<svg xmlns="http://www.w3.org/2000/svg" id="Layer_2" data-name="Layer 2" viewBox="0 0 94.46 54.12"><defs><style>.cls-1{fill:currentColor;fill-opacity:.5}</style></defs><g id="Layer_1-2" data-name="Layer 1"><g id="Layer_1-3" data-name="Layer_1"><g id="_2660044021152" data-name="2660044021152"><path fill="currentColor" d="M94.2 5.94s-5.12-1.59-8.29-2.07l-1.16-.18c-2.95-.46-6.33-.98-8.5-.86-1.26.07-3.05.05-5.25-.02s-4.79-.19-7.68-.33c-4.2-.2-7.62-.77-10.07-1.17-.93-.15-1.72-.28-2.36-.36-.96-.12-2.1-.05-3.2.1-1.43.2-2.79.55-3.63.85-.91.33-2.53.86-4.29 1.33-1.24.33-2.56.63-3.76.8-.44.06-1.04.15-1.68.24-2.92.4-6.74.94-8.96 1.68-.46.15-1.61.33-3.05.46-1.32.12-2.91.22-4.46.26l-1.01.02c-2.35.04-3.43.06-3.8.57-.22.3-.22 1 .01 1.74.2.66.59 1.33 1.15 1.75.65.49 1.39.89 2.2 1.18.83.31 1.72.51 2.67.61.78.08 2.05.12 3.35.13 1.91.02 3.85-.02 4.3-.06.48-.04.89.04 1.58.19.57.12 1.33.28 2.49.44 2.47.34 6.66.13 6.67.13l.04.88s-4.29.21-6.83-.14c-1.18-.16-1.97-.33-2.55-.45-.61-.13-.98-.21-1.32-.17-.47.04-2.45.08-4.39.07-1.32-.01-2.63-.05-3.43-.14-1.02-.11-1.99-.33-2.88-.66a9.4 9.4 0 0 1-2.42-1.31c-.73-.54-1.21-1.38-1.46-2.2-.3-.99-.26-2 .12-2.52.62-.86 1.85-.88 4.5-.93l1-.02c1.53-.03 3.09-.13 4.39-.25 1.38-.13 2.46-.29 2.86-.42 2.3-.77 6.17-1.3 9.12-1.71.57-.08 1.11-.15 1.67-.24 1.16-.17 2.45-.46 3.66-.78 1.73-.46 3.32-.98 4.21-1.3s2.32-.69 3.81-.9c1.17-.16 2.38-.23 3.42-.1.64.08 1.45.21 2.4.37 2.43.4 5.82.96 9.97 1.16 2.9.14 5.5.26 7.66.33 2.17.07 3.93.09 5.18.02 2.26-.13 5.69.41 8.68.87l1.16.18c3.23.49 8.41 2.1 8.42 2.11l-.26.84Z" class="cls-1"/><path fill="currentColor" d="M60.08 13.05s-2.86-.27-4.57-.1c-.91.09-2.04.17-3.06.24-1 .06-1.91.1-2.41.1-.4 0-1.11-.08-1.93-.17-1.3-.14-2.92-.32-4-.26-.88.05-1.99.21-3.11.43-1.1.22-2.18.49-3.03.79-.36.12-.63.21-.88.3-1.24.4-2.18.71-2.49 1.33-.2.41-.28.82-.27 1.34 0 .55.12 1.22.3 2.11.23 1.2 2.01 1.52 3.86 1.85.45.08.9.16 1.3.25 1.69.36 4.12.42 5.96.46.71.02 1.34.03 1.79.06.87.05 1.67.17 2.37.34.72.17 1.36.41 1.88.7.2.11.49.29.87.52 1.47.9 4.14 2.54 6.42 3.16 1.03.28 2.31.5 3.63.65-1.92-.07-4.08-.17-5.25-.27-2.01-.79-4.04-2.04-5.26-2.79-.36-.22-.64-.39-.83-.5a7 7 0 0 0-1.66-.62c-.65-.16-1.4-.26-2.22-.31-.47-.03-1.07-.04-1.76-.06-1.88-.04-4.36-.1-6.13-.48-.44-.09-.86-.17-1.27-.24-2.15-.39-4.22-.76-4.57-2.55-.18-.93-.3-1.64-.31-2.27-.01-.66.1-1.2.37-1.74.47-.95 1.57-1.31 3.01-1.78.3-.1.62-.2.87-.29.9-.31 2.03-.6 3.15-.82 1.14-.23 2.3-.39 3.23-.44 1.15-.07 2.8.12 4.14.26.79.09 1.47.16 1.84.16.5 0 1.38-.04 2.35-.1 2.91-.18 4.85-.63 7.68.75Zm6.99 14.26c.75-.03 1.44-.09 2-.2 1.37-.26 3.05-1.43 4.5-2.43 1.09-.75 2.06-1.43 2.78-1.64.78-.23 1.72-.46 2.66-.64 1.96-.38 3.71-.48 5.66-1.05-1.05 1.12-3.23 1.53-4.49 1.74 2.32.64 4.42 1.63 6.44 2.58 2.05.96 4.01 1.89 6.03 2.36v.92c-2.1-.49-4.55-1.66-6.64-2.64-2.46-1.16-4.92-2.26-7.85-2.8-.61.14-1.06.22-1.57.38-.59.18-1.51.81-2.53 1.52-1.18.82-2.51 1.74-3.76 2.25l-3.24-.34Zm2.71-11.9c2.58 0 4.81-.96 6.87-2.43-1.5 2.42-4.17 3.51-6.87 2.43M53.4 2.52s3.33.9 6.09 1.07c2.22.14 4.4.35 6.6.58 0 0-3.82.14-6.64-.03-1.31-.08-5.23-.44-6.06-1.62Z" class="cls-1"/><path fill="currentColor" d="M34.87 14.73s2.44-.3 3.11-.36c.36-.03.56.11.68.37.09.19.1.45.1.74-.02.92.06 1.73.16 2.63.03.3.06.61.1.99.07.82-.68.89-1.42.95h-.03c-.6.05-2.99.21-2.99.21l-.03-.55s2.36-.16 2.98-.21h.03c.47-.04.94-.08.92-.35-.03-.32-.06-.65-.1-.98-.09-.91-.18-1.73-.16-2.7 0-.22 0-.4-.05-.5-.02-.04-.06-.05-.14-.05-.65.05-3.07.35-3.08.35l-.07-.55Zm8.12-.68c-.39 1.02-.39 1.89-.38 2.47 0 .52-.05 1.55.46 2.98-.83-1.02-.99-1.67-1.01-2.97-.01-.76.29-2.02.93-2.48m1.48.5L44.39 16c-.03.56-.07 1.33 0 1.88.04.29.16 1.02.16 1.02-.38-.38-.65-1.39-.65-1.94 0-1.01.18-1.52.57-2.41M31.05 4.34s.35.93.17 1.62c-.14.53-.44 1.04-.56 1.53.03-1.27.28-1.74-.12-2.96l.52-.19Zm-1.3.44c-.45 1.13-.3 1.74-.18 2.92-.3-.63-.59-1.17-.59-1.9 0-.62.26-1.24.27-1.24l.51.22ZM28.23 6s-.11.85.08 1.82c-.59-.47-.48-1.24-.08-1.82m-14.81.74s.07.22.61.44c.24.1.73.13 1.26.14.8 0 1.65-.06 1.85-.12.09-.03.19-.3.28-.54.08-.22.15-.42.27-.54l.39.39s-.09.18-.15.34c-.13.37-.29.79-.65.89-.24.06-1.16.14-2 .13-.59 0-1.15-.05-1.46-.18-.81-.32-.95-.84-.95-.85l.54-.11Zm-.81-3.07s-.05.4.31.61c.19.12.69.23 1.24.31.71.11 1.5.17 1.86.16.53-.03 1-.79 1-.79l.46.3s-.62 1-1.44 1.04c-.39.02-1.22-.05-1.97-.16-.61-.1-1.18-.23-1.44-.38-.66-.4-.57-1.15-.57-1.15l.55.07Zm13.4-.05s1.52-.55 2.33-.66c.73-.1 2.94.2 4.16.36l.39.05c1.02.13 1.77.07 1.77.07l.05.55c-1.13 0-8.4.12-8.51.15zm21.15-2.14c1.16-.1 2.64.13 3.92.69 0 0-2.55-.25-3.88-.14-1.31.11-3.02 1.05-3.03 1.05.73-.94 1.77-1.5 2.98-1.6Zm-19.21 8.93s-.25 1.52.15 2.6l-.69.18c-.31-.91-.14-2.13.54-2.78m26.55 1.93c.6-.79 1.95-1.68 2.97-1.39-1.29.39-2.22 1.83-2.23 1.83l-.74-.45Z" class="cls-1"/><path fill="currentColor" d="M15.99 3.61s.79-1.11 2.16-1.19c.77-.04 1.62.14 2.54.33.55.12 1.12.24 1.68.31.82.11 1.8.18 2.83.26.83.06 1.71.12 2.61.22 1.94.2 3.58.23 3.58.23v.89s-1.68-.03-3.67-.24c-.85-.09-1.74-.15-2.59-.21-1.04-.08-2.02-.15-2.89-.26-.61-.08-1.2-.21-1.75-.33-.85-.18-1.65-.35-2.3-.32-.94.06-1.5.84-1.5.84l-.71-.53Z" class="cls-1"/><path fill="currentColor" d="M28.79 4.9H21.7c-1.69 0-4.62-.38-6.23-.59l-.17-.02c-.42-.05-.75-.1-1.05-.15-.99-.14-1.73-.25-2.12-.17-.18.04-.36.23-.51.51-.17.33-.29.78-.3 1.28-.01.36.16.78.38 1.16.34.59.76 1.05.88 1.09l-.28.84c-.25-.08-.92-.72-1.37-1.48-.29-.5-.51-1.08-.5-1.63.02-.64.17-1.22.4-1.66.27-.51.66-.86 1.1-.96.55-.12 1.36 0 2.43.15.35.05.72.1 1.04.15l.17.02c1.59.21 4.47.58 6.12.58h7.09v.89Z" class="cls-1"/><path fill="currentColor" d="M5.17 10.33c-5.86 4.72-5.86 14.82 0 19.54l.79-1.43L7.5 32.1 3.98 32l.57-1.02c-6.07-4.92-6.07-16.84.01-21.77l-.57-1.02 3.52-.1-1.54 3.66-.79-1.43Zm48.51 17.48s3.05.9 5.81 1.07c2.27.14 4.46.38 6.7.68 0 0-3.92.04-6.73-.13-1.89-.12-4.18-.52-5.78-1.62M34.87 40.02s2.44-.3 3.11-.36c.36-.03.56.11.68.37.09.19.1.45.1.74-.02.92.06 1.73.16 2.63.03.3.06.61.1.99.07.82-.68.89-1.42.95h-.03c-.6.05-2.99.21-2.99.21l-.03-.55s2.36-.16 2.98-.21h.03c.47-.04.94-.08.92-.35-.03-.32-.06-.65-.1-.98-.09-.91-.18-1.73-.16-2.7 0-.22 0-.4-.05-.5-.02-.04-.06-.05-.14-.05-.65.05-3.07.35-3.08.35l-.07-.55Zm7.75 1.79c0 .57 0 1.3.06 1.58.09.49.47 1.68.47 1.69-.32-.5-.88-1.15-.97-1.7-.05-.31-.1-.96-.11-1.56 0-.52.01-1.02.07-1.26.12-.48.58-1.38.58-1.38-.23 1.07-.12 1.76-.11 2.63Zm1.71 1.51c.04.29.23 1.53.23 1.53-.32-.51-.65-.99-.72-1.61-.02-.17-.03-.49-.03-.85s.01-.76.03-1.13l.08-1.45c.26 1.18.27 2.33.41 3.5ZM31.05 29.63s.23.98.04 1.67c-.11.41-.77 1.6-1.03 1.91.19-.76.43-1.38.62-2.11.14-.52-.15-1.29-.15-1.29l.52-.19Zm-1.3.45s-.32.66-.32 1.18c0 .55.09 2.08.09 2.08-.26-.72-.55-1.45-.55-2.24 0-.62.26-1.24.27-1.24zm-1.46.99c-.08.25-.12 1.84 0 2.44-.57-.75-.5-1.69 0-2.44m-14.87.97s.07.22.61.44c.24.1.73.13 1.26.14.8 0 1.65-.06 1.85-.12.09-.03.19-.3.28-.54.08-.22.15-.42.27-.54l.39.39s-.09.18-.15.34c-.13.37-.29.79-.65.89-.24.06-1.16.14-2 .13-.59 0-1.15-.05-1.46-.18-.81-.32-.95-.85-.95-.85l.54-.11Zm-.81-3.07s-.05.4.31.61c.19.12.69.23 1.24.31.71.11 1.5.18 1.86.16.53-.03 1-.79 1-.79l.46.3s-.62 1-1.44 1.04c-.39.02-1.22-.05-1.97-.16-.61-.1-1.18-.23-1.44-.38-.66-.4-.57-1.15-.57-1.15l.55.07Zm13.4-.06s1.52-.55 2.33-.66c.73-.09 2.94.2 4.16.36l.39.05c1.02.13 1.77.07 1.77.07l.05.55c-1.86 0-4.7-.18-6.32.03-.75.1-2.19.12-2.19.12zm21.15-2.14c1.21-.1 2.54.24 3.51.76 0 0-2.14-.31-3.46-.2-1.31.11-3.34 1.05-3.34 1.05.96-.86 1.94-1.49 3.3-1.6Zm-19.23 8.7s-.26 1.72.12 2.8l-.74.1c-.27-.8-.02-2.44.62-2.9"/><path fill="currentColor" d="M15.99 28.91s.79-1.11 2.16-1.19c.77-.04 1.62.14 2.54.33.55.12 1.12.24 1.68.32.82.11 1.8.18 2.83.26.83.06 1.71.12 2.61.22 1.94.2 3.58.23 3.58.23v.89s-1.68-.03-3.67-.24c-.85-.09-1.74-.15-2.59-.21-1.04-.08-2.02-.15-2.89-.26-.61-.08-1.2-.21-1.75-.33-.85-.18-1.65-.35-2.3-.32-.94.06-1.5.84-1.5.84l-.71-.53Zm54.36 11.42c2.88 0 5.37-1.16 7.7-2.81-1.4 2.38-4.23 4.01-7.7 2.81m-15.79-2.8c.86-1.12 2.47-1.21 3.74-1.32-1.87.21-3.05 1.87-3.05 1.87l-.68-.56Z"/><path fill="currentColor" d="M61.48 38.58c-3.65-.31-5.56-.31-9.03-.1-1 .06-1.91.1-2.41.1-.4 0-1.11-.08-1.93-.17-1.3-.14-2.92-.32-4-.26-.88.05-1.99.21-3.11.43-1.1.22-2.18.49-3.03.79-.36.12-.63.21-.88.3-1.24.4-2.18.71-2.49 1.33-.2.41-.28.82-.27 1.34 0 .55.12 1.22.3 2.11.23 1.2 2.01 1.52 3.86 1.85.45.08.9.16 1.3.25 1.69.36 4.12.42 5.96.46.71.02 1.34.03 1.79.06.87.05 1.67.17 2.37.34.72.17 1.36.41 1.88.7.2.11.49.29.87.52 1.47.9 4.14 2.54 6.42 3.16 1.44.39 3.35.67 5.21.78 1.82.11 3.58.07 4.79-.15 1.37-.26 3.05-1.43 4.5-2.43 1.09-.75 2.06-1.43 2.78-1.64.78-.23 1.72-.46 2.66-.64 1.96-.38 4.04-.48 6-1.05-1.17 1.18-4.27 1.62-5.83 1.92-.91.18-1.83.39-2.58.62-.59.18-1.51.81-2.53 1.52-1.53 1.06-3.29 2.28-4.84 2.58-1.27.24-3.11.29-5 .17-1.91-.12-3.89-.4-5.39-.82-2.41-.66-5.15-2.34-6.65-3.26-.36-.22-.64-.39-.83-.5a7 7 0 0 0-1.66-.62c-.65-.16-1.4-.26-2.22-.31-.47-.03-1.07-.04-1.76-.06-1.88-.04-4.36-.1-6.13-.48-.44-.09-.86-.17-1.27-.24-2.15-.39-4.22-.76-4.57-2.55-.18-.93-.3-1.64-.31-2.27-.01-.66.1-1.2.37-1.74.47-.95 1.57-1.31 3.01-1.78.3-.1.62-.2.87-.29.9-.31 2.03-.6 3.15-.82 1.14-.23 2.3-.39 3.23-.44 1.15-.07 2.8.12 4.14.26.79.09 1.47.16 1.84.16.5 0 1.38-.04 2.35-.1 3.15-.2 6.11-.54 9.08.98Z"/><path fill="currentColor" d="M78.27 47.88c3.12.54 5.81 1.81 8.38 3.02 2.04.96 4.01 1.89 6.02 2.36l-.2.86c-2.1-.49-4.11-1.44-6.2-2.42-2.52-1.19-5.15-2.43-8.16-2.95l.15-.87ZM94.2 31.24s-5.12-1.59-8.29-2.07l-1.16-.18c-2.95-.46-6.33-.98-8.5-.86-1.26.07-3.05.05-5.25-.02s-4.79-.19-7.68-.33c-4.2-.2-7.62-.77-10.07-1.17-.93-.15-1.72-.28-2.36-.36-.96-.12-2.1-.05-3.2.1-1.43.2-2.79.55-3.63.85-.91.33-2.53.86-4.29 1.33-1.24.33-2.56.63-3.76.8-.44.06-1.04.15-1.68.24-2.92.4-6.74.94-8.96 1.68-.46.15-1.61.33-3.05.46-1.32.12-2.91.22-4.46.26l-1.01.02c-2.35.04-3.43.06-3.8.57-.22.3-.22 1 .01 1.74.2.66.59 1.33 1.15 1.75.65.49 1.39.89 2.2 1.18.83.31 1.72.51 2.67.61.78.08 2.05.12 3.35.13 1.91.02 3.85-.02 4.3-.06.48-.04.89.04 1.58.19.57.12 1.33.28 2.49.44 2.47.34 6.66.13 6.67.13l.04.88s-4.29.21-6.83-.14c-1.18-.16-1.97-.33-2.55-.45-.61-.13-.98-.21-1.32-.17-.47.04-2.45.08-4.39.07-1.32-.01-2.63-.05-3.43-.14-1.02-.11-1.99-.33-2.88-.66a9.4 9.4 0 0 1-2.42-1.31c-.73-.54-1.21-1.38-1.46-2.2-.3-.99-.26-2 .12-2.52.62-.86 1.85-.88 4.5-.93l1-.02c1.53-.03 3.09-.13 4.39-.25 1.38-.13 2.46-.29 2.86-.42 2.3-.77 6.17-1.3 9.12-1.71.57-.08 1.11-.15 1.67-.24 1.16-.17 2.45-.46 3.66-.78 1.73-.46 3.32-.98 4.21-1.3s2.32-.69 3.81-.9c1.17-.16 2.38-.23 3.42-.1.64.08 1.45.21 2.4.37 2.43.4 5.82.96 9.97 1.16 2.9.14 5.5.26 7.66.33 2.17.07 3.93.09 5.18.02 2.26-.13 5.69.41 8.68.87l1.16.18c3.23.49 8.41 2.1 8.42 2.11l-.26.84Z"/><path fill="currentColor" d="M28.79 30.19H21.7c-1.69 0-4.62-.38-6.23-.59l-.17-.02c-.42-.05-.75-.1-1.05-.15-.99-.14-1.73-.25-2.12-.17-.18.04-.36.23-.51.51-.17.33-.29.78-.3 1.28-.01.36.16.78.38 1.16.34.59.76 1.05.88 1.09l-.28.84c-.25-.08-.92-.72-1.37-1.48-.29-.5-.51-1.08-.5-1.63.02-.64.17-1.22.4-1.66.27-.51.66-.86 1.1-.96.55-.12 1.36 0 2.43.15.35.05.72.1 1.04.15l.17.02c1.59.21 4.47.58 6.12.58h7.09v.88Z"/></g></g></g></svg>