<svg xmlns="http://www.w3.org/2000/svg" id="Layer_2" data-name="Layer 2" viewBox="0 0 87.11 54.71"><defs><style>.cls-2{fill:currentColor;fill-opacity:.5}</style></defs><g id="Layer_1-2" data-name="Layer 1"><g id="Layer_1-3" data-name="Layer_1"><g id="_2659733472736" data-name="2659733472736"><path fill="currentColor" d="M47.17 1.53s-2.72-.96-4.59.27c-1.19.78-2.58 2.17-3.87 3.45-.88.88-1.71 1.71-2.42 2.29-.84.69-1.91 1.38-2.99 2.09-1.16.75-2.36 1.53-3.32 2.33-1.15.96-3.25 2.66-5.29 4.17-1.37 1.01-2.72 1.94-3.79 2.52-1.39.76-3.06 1.6-4.68 2.35-1.46.68-2.9 1.29-4.07 1.7-1.21.43-2.29.87-3.09 1.32-.72.41-1.2.79-1.29 1.13-.02.1-.03.26-.02.46.04.49.23 1.16.7 1.78.47.63 1.22 1.2 2.38 1.5.72.18 1.59.25 2.64.16l.07.88c-1.16.1-2.12.02-2.93-.19-1.39-.35-2.3-1.05-2.88-1.82-.58-.78-.82-1.62-.87-2.24-.03-.3 0-.57.04-.75.15-.6.78-1.17 1.72-1.69.86-.48 1.98-.94 3.23-1.38 1.14-.41 2.55-1.01 3.99-1.67 1.62-.75 3.27-1.58 4.63-2.33 1.02-.55 2.34-1.46 3.69-2.45 2.05-1.51 4.12-3.19 5.25-4.14 1.01-.84 2.23-1.63 3.41-2.4 1.06-.69 2.1-1.36 2.92-2.03.69-.56 1.5-1.37 2.35-2.23 1.32-1.32 2.74-2.74 4.01-3.57 2.24-1.46 5.35-.37 5.36-.36l-.28.84Zm-30.24 33.8s-3.37 2.5-3.97 4.36c-.24.74-.16 1.59.05 2.38.3 1.14.88 2.11 1.25 2.44.22.2.81.32 1.47.36.94.07 1.95 0 2.35-.13.44-.15 2.99-.56 5.63-.92 2.24-.31 4.56-.59 5.7-.65 1.38-.07 4.01-.12 6.52-.11 1.96.01 3.85.06 5.02.18 1.25.12 3 .4 4.7.71 1.95.36 3.84.77 4.85 1.04.92.25 1.91.49 2.96.64 1.03.15 2.11.21 3.2.12l.07.88c-1.16.1-2.31.03-3.4-.12-1.08-.16-2.12-.4-3.07-.66-.99-.27-2.85-.67-4.78-1.03-1.68-.31-3.4-.58-4.62-.7-1.14-.11-3-.16-4.94-.17-2.48-.01-5.1.04-6.47.11-1.11.06-3.41.34-5.63.64-2.59.36-5.07.75-5.47.88-.49.16-1.66.26-2.7.18-.83-.06-1.61-.24-2-.59-.46-.42-1.16-1.57-1.51-2.87-.25-.93-.33-1.96-.03-2.88.69-2.14 4.27-4.79 4.28-4.79l.53.71Z" class="cls-2"/><path fill="currentColor" d="M8.45 23.95s.46.38.88.58c.17.09.39.11.62.09.26-.02.53-.07.79-.14.29-.07 1.03-.37 1.7-.7.52-.25.99-.51 1.13-.66.23-.25-.37-1.24-.37-1.24l.47-.28s.82 1.35.3 1.9c-.19.2-.72.5-1.29.78-.7.34-1.49.66-1.81.74-.29.07-.59.13-.89.15-.32.02-.62-.02-.89-.15-.47-.23-.98-.65-.98-.65l.35-.42Z" class="cls-2"/><path fill="currentColor" d="M47.63 23.87c-1.56 1.25-5.34 1.31-7.21.34 1.75.07 5.4 0 6.78-1.03zm-8.71-1.66c-.16.57-.62 1.28-1.54 2.15-.74.69-1.71 1.42-2.87 2.04-2.55 1.36-4.84 1.78-4.85 1.78l-.18-.86s2.18-.4 4.61-1.7a12.7 12.7 0 0 0 2.68-1.9c.81-.76 1.3-1.46 1.42-1.89.22-.82.11-3.46.11-3.47.5 1.06.93 2.7.62 3.85"/><path fill="currentColor" d="M17.28 34.08c-.15 0-.3-.04-.46-.09-.76-.25-1.67-1.03-2.36-1.88-.71-.87-1.23-1.85-1.19-2.48 0-.09.02-.19.05-.27.19-.57.55-1.14 1.39-1.93.79-.74 2.03-1.69 4-3.03 3.02-2.05 5.64-4.47 7.2-5.9.44-.4.79-.73 1.06-.95.37-.31.78-.76 1.25-1.28.96-1.05 2.18-2.37 3.93-3.56 1.23-.83 2.39-1.36 3.67-1.95 1.44-.66 3.03-1.39 5.04-2.7 3.83-2.5 9.96-5.89 9.98-5.9s3-1.63 5.18-1.63c1.12 0 2.27.57 3.26 1.47 1.02.92 1.89 2.2 2.38 3.55.44 1.21 1.24 2.61 2.14 4.02.92 1.42 1.95 2.84 2.86 4.08.99 1.35 2.42 3.26 3.82 5.12 1.15 1.52 2.28 2.99 3.13 4.07.93 1.17 1.64 1.96 2.47 2.59.83.62 1.82 1.1 3.31 1.67 3.05 1.15 7.09 2.39 7.1 2.39l-.25.85s-4.07-1.25-7.16-2.42c-1.57-.59-2.62-1.11-3.53-1.79s-1.66-1.51-2.63-2.74c-.87-1.09-2-2.57-3.15-4.08-1.39-1.84-2.82-3.76-3.83-5.13-.92-1.25-1.96-2.69-2.89-4.13-.94-1.45-1.76-2.91-2.23-4.19-.45-1.22-1.22-2.37-2.14-3.2-.83-.76-1.78-1.24-2.67-1.24-1.91 0-4.61 1.44-4.76 1.52-.02 0-6.13 3.39-9.92 5.87-2.06 1.35-3.69 2.09-5.16 2.76-1.25.57-2.38 1.09-3.54 1.88-1.66 1.12-2.84 2.41-3.78 3.43-.49.53-.91 1-1.33 1.35-.24.21-.59.53-1.03.93-1.57 1.44-4.22 3.89-7.3 5.98-1.93 1.31-3.14 2.23-3.9 2.94-.71.67-1.01 1.13-1.16 1.56v.04c-.03.4.4 1.15.99 1.87.6.74 1.36 1.4 1.95 1.6.08.03.16.04.23.05l-.05.88Z"/><path fill="currentColor" d="M53.58 1.71c-1.69-.57-3.12-.95-4.14-.8s-2.05.66-3.63 1.52c-.53.29-1.1.71-1.83 1.25-.76.56-1.7 1.25-2.95 2.06-1.98 1.28-4.05 2.8-5.55 3.89l-.95.69c-1.4 1.01-2.85 3.75-2.85 3.76l-.78-.42s1.55-2.93 3.11-4.06l.95-.69c1.51-1.11 3.6-2.63 5.6-3.93 1.23-.79 2.15-1.47 2.9-2.03s1.35-.99 1.93-1.31C47.06.73 48.16.18 49.32.01c1.17-.17 2.98.3 4.81.91l-.55.76Zm-15.63 21s6.85-1.99 9.12-3.37c2.37-1.44 2.42-2.04 3.15-3.21-.31 2.02-.86 2.85-2.69 3.96-2.37 1.44-9.31 3.45-9.33 3.46l-.25-.85Zm-8.28 5.42c-.1.34-.63.83-1.27 1.32-.88.67-1.84 1.18-2.25 1.39l-.59-.58c.38-.19 1.45-.87 2.3-1.52.51-.39 1-.74 1.04-.86.13-.45-.15-2.44-.15-2.44.46.71 1.16 1.84.92 2.68Z"/><path fill="currentColor" d="M38.03 30.6c-1.05 0-4.5.03-7.52.14-1.82.06-3.5.15-4.45.27-1.15.15-2.83.63-4.38 1.18-1.79.63-3.4 1.34-3.85 1.71-.38.31-.74.96-1.01 1.71-.3.82-.48 1.75-.48 2.51 0 .68.24 1.43.57 2.04s.7 1.06.94 1.09c.37.04 2.21-.06 4.05-.16 1.57-.09 3.15-.17 3.86-.17.57 0 1.66.06 2.95.13 2.15.11 4.88.26 6.74.21 1.6-.04 3.4 0 5.22.17 1.63.15 3.26.39 4.76.75 2.2.52 4.25 1.24 6.5 2.04 1.02.36 2.08.73 3.11 1.08 1.76.59 3.22.91 4.75 1.07s3.13.16 5.14.1c2.07-.06 3.77.09 5.37.43s3.09.85 4.72 1.52c3.21 1.31 12.06 5.5 12.09 5.51l-.37.8s-8.81-4.17-12.05-5.49c-1.59-.65-3.04-1.15-4.57-1.47-1.54-.32-3.18-.47-5.17-.41-2.05.06-3.68.06-5.26-.11s-3.11-.5-4.93-1.11c-1.16-.39-2.17-.74-3.13-1.08-2.22-.79-4.24-1.5-6.41-2.01-1.47-.35-3.06-.59-4.64-.73-1.78-.16-3.55-.21-5.12-.17-1.9.05-4.64-.09-6.81-.21-1.25-.07-2.31-.12-2.91-.12-.73 0-2.27.09-3.81.17-1.88.1-3.76.21-4.2.16-.54-.06-1.17-.7-1.63-1.55-.39-.73-.68-1.63-.68-2.46s.21-1.9.54-2.81c.32-.89.77-1.68 1.28-2.09.53-.43 2.24-1.2 4.12-1.86 1.6-.56 3.34-1.06 4.56-1.22.98-.13 2.69-.22 4.53-.28 3.1-.11 6.52-.14 7.55-.14 1.47 0 4.8-.75 6.49-1.13l.46-.1c1.46-.32 5.4-1.88 5.41-1.89-2.84 2.44-8.71 4-12.36 4Z"/><path fill="currentColor" d="M53.38 43.61c-2.1.44-3.83.49-3.84.49l-.3-.73s1.91-.08 3.95-.5c1.98-.41 4.17-2.22 4.64-2.52-.98 1.26-2.33 2.82-4.46 3.26ZM72.6 30.73c.14 1.34-.34 2.9-1.14 3.54 0 0 .61-1.83.41-3.77s-2.29-5.69-2.29-5.7c1.37 1.54 2.81 3.86 3.02 5.93M51.51 19.92c-1.61 1.42-3.11 2.73-4.05 4.48-1.14 2.12-1.71 4.06-1.71 4.07l-1.02.3s.77-2.59 1.95-4.79c1.02-1.89 2.57-3.25 4.25-4.72 1.78-1.56 3.71-3.26 5.22-5.82-.58 2.61-2.68 4.77-4.63 6.49Z"/><path fill="currentColor" d="M47.89 19.21s1.01.69 2.39.64l.03.88c-1.68.06-2.91-.79-2.91-.79l.49-.74ZM45.13 29.3l-.77-.44c.35-.62 3.4-2.77 5.47-4.23l.55-.39c1.95-1.38 4.57-4.09 4.58-4.09-2.4 4.35-8.85 7.7-9.83 9.15m-6.82-6.17s1.85 1.85 2.47 3.14c.63 1.3.77 3.5.77 3.5l-.88.06s-.13-2.04-.68-3.18c-.55-1.15-2.31-2.91-2.31-2.91l.64-.61Zm-6.64 4.06s.79 1.88 1.46 2.64l-.66.59c-.77-.87-1.61-2.86-1.61-2.87zm-12.69-2.44s1.04.49 1.45 1c.21.26.29.53.28.79 0 .33-.15.62-.31.82-.14.17-.81.71-1.52 1.25-.67.51-1.39 1.02-1.73 1.21-.38.22-.74.28-1.06.27-.32-.02-.6-.11-.86-.22-.52-.23-1.3-1.1-1.3-1.1l.41-.37s.71.79 1.12.97c.21.09.43.17.66.18s.48-.04.76-.19c.31-.18 1.01-.67 1.67-1.17.69-.52 1.32-1.02 1.42-1.15.1-.12.18-.3.19-.49 0-.14-.04-.29-.16-.43-.33-.41-1.25-.84-1.26-.84l.23-.5Zm5.25-4.23c1.42.63 2.1 1.4 2.38 2.35-.72-.86-2.08-1.55-2.76-1.76zm8.06-7.3c.81 1.21 2.71 2.6 4.1 2.95-1.84-.17-3.49-1.1-4.55-2.63l.45-.31Zm1.42-1.02c.92.51 2.26 1.26 2.44 2.34-1.1-1.3-2.71-1.86-2.71-1.86zm4.38 2.68c-.86-1.85-2.35-2.57-2.35-2.57 1.37.1 2.47 1.18 2.35 2.57m-.95 23.79c.05 1.33-.55 2.95-.56 2.96l-.51-.2s.64-1.68.59-2.89c-.05-1.25-.35-3.32-.35-3.33.65.9.79 2.38.83 3.47Zm-2.49 1.76s.18-.76.28-1.71c.1-.93-.02-2.47-.02-2.47.63.98.62 3.32-.25 4.18Zm-.37-6.37c-.51 1.8-.73 3.49-.06 5.71-1.02-1.48-1.37-4.39.06-5.71m24.71 9.35c2.5-.5 3.47-.91 4.35-1.86-.71 1.39-2.31 2.13-4.35 1.86"/><path fill="currentColor" d="M64.16 43.82c-.9.57-3.78.79-4.99.52.01 0 4.06-.59 4.82-1.06.75-.48 1.65-1.9 1.65-1.91-.13.96-.6 1.89-1.48 2.45M54.14 23.91C56.76 22.55 58 21 58 20.99c-.22 1.47-2.5 3.04-3.86 2.92m-2.57-6.7c1.67-3.44.94-7.08.94-7.09.74 1.81.93 6.04-.94 7.09m8.46-2.45c-.66 1.11-1.75 1.6-2.85 2.14 0 0 1.78-1.42 2.38-2.42s1.32-3.62 1.32-3.62c-.12 1.29-.17 2.78-.85 3.91Zm-5.62 18.63c.19.81-.84 2.46-1.44 3.08.26-.79 1.07-2.21.9-2.96-.18-.8-1.26-2.71-1.27-2.71.69.68 1.59 1.66 1.81 2.59m-29.5 7.55c.33-.59.52-1.44.61-2.33.1-1.08.05-2.21-.1-3.01-.06-.3-.26-.52-.52-.68-.4-.24-.95-.35-1.37-.39-.37-.03-1.11-.03-1.86-.01-.78.02-1.57.07-1.96.12-.26.03-.48.21-.66.45-.28.35-.47.85-.61 1.28-.2.65-.34 1.71-.36 2.76-.02.94.04 1.87.22 2.46l-.53.16c-.2-.66-.27-1.64-.24-2.64.03-1.09.17-2.2.39-2.9.15-.49.37-1.05.7-1.46.27-.35.61-.6 1.03-.65.41-.06 1.22-.1 2.02-.12.77-.02 1.53-.02 1.92.02.48.04 1.12.17 1.6.46.39.23.69.57.78 1.04.16.84.22 2.03.11 3.16-.09.96-.3 1.88-.67 2.55l-.48-.27Z"/><path fill="currentColor" d="m3.77 43.12.53-1.42C1.93 40.56.08 38.05 0 35.42c-.09-2.82 1.79-5.75 4.29-7.06l-.52-1.4 3.47 1.18-1.83 3.24-.59-1.59c-2.28 1.11-3.8 2.87-3.72 5.59.08 2.47 1.58 4.09 3.69 4.97l.62-1.67 1.83 3.24-3.47 1.18Z" style="fill-rule:evenodd"/></g></g></g></svg>