<svg xmlns="http://www.w3.org/2000/svg" data-name="Layer 2" viewBox="0 0 85.9 92.89"><g data-name="Layer 1"><g data-name="Layer_1"><g fill="currentColor" data-name="2695723788912"><path d="M29.19 60.99c.17-.03.3-.24.45-.5.12-.21.26-.44.46-.67.53-.6 1.26-.99 1.27-.99-.53.82-.88 1.35-1.15 2.07-.25.42-.38.76-.9.85-.47.08-1.97.81-1.97.81.33-.77.96-1.41 1.84-1.57m6.26-3.31c.18-.01.32-.09.52-.21.29-.17.9-.16 1.23-.08-.47.19-1.48 1.05-1.7 1.06-.5.03-1.21.04-1.89.36.29-.58 1.08-1.08 1.84-1.13m4.41-2.02c.8-.1 1.64.06 2.2.48-.86 0-3.15.27-3.83.81.3-.84.56-1.15 1.62-1.28Zm15.91 6.08s-3.66.37-5.84 2.27c.7-1.84 3.93-2.85 5.77-3.04l.08.77ZM44.5 64.27c-.84-1.96-2.83-3.49-4.59-4.58 2.42.68 4.37 1.87 4.59 4.58m6.84 3.34c.44.44 1.14 1.06 1.62 1.45-.52-.06-1.87-.79-2.23-1.15-1.13-1.13-2.3-2.31-4.86-3.08 2.12-.16 4.02 1.33 5.46 2.78Zm24.78-47.6c-.34 1.39.79 3.78 1.24 4.74l.03.05c.19.41.69.75 1.34.97.67.23 1.5.32 2.35.21.71-.09 1.38-.38 1.94-.73.76-.48 1.3-1.06 1.48-1.41.14-.27.13-.65.07-1.04-.07-.41-.2-.83-.31-1.16-.12-.37-.67-1.5-1.24-2.52-.41-.74-.83-1.41-1.1-1.68-.15-.15-.34-.25-.56-.3-.64-.15-1.5.05-2.35.43-.87.39-1.71.95-2.27 1.51-.33.33-.56.65-.62.92Zm.74 4.97c-.48-1.01-1.66-3.52-1.28-5.11.09-.37.37-.78.77-1.18.61-.61 1.51-1.22 2.44-1.63.95-.42 1.94-.64 2.7-.46.32.08.6.22.82.44.3.3.75 1.02 1.19 1.8.58 1.04 1.15 2.21 1.28 2.61.12.34.26.79.33 1.25.08.48.07.97-.12 1.37-.21.42-.83 1.1-1.68 1.63-.62.39-1.37.71-2.17.81-.93.12-1.84.02-2.59-.24-.79-.27-1.4-.71-1.66-1.26l-.03-.05Zm-45.73-5.99c0 .4-.11 1.43-.24 2.46-.13.99-.28 1.98-.38 2.36-.24.89-1.43 1.09-2.4 1.25l-.17.03c-.52.09-1.47.08-2.3-.01-.74-.08-1.4-.24-1.66-.46-.26-.23-.43-.45-.54-.68-.12-.24-.16-.48-.16-.75 0-.29.04-1.8.14-3.18.06-.8.13-1.55.23-1.99.18-.81 1.07-1.35 2.19-1.59.6-.12 1.28-.16 1.93-.1.66.06 1.31.22 1.85.48.9.44 1.52 1.15 1.52 2.18Zm-.78 2.39c.13-1 .23-2.01.23-2.39 0-.78-.5-1.34-1.21-1.68-.48-.24-1.06-.38-1.66-.43-.6-.06-1.22-.02-1.77.09-.91.19-1.64.59-1.76 1.16-.09.42-.16 1.14-.22 1.91-.09 1.35-.14 2.85-.14 3.14 0 .19.03.36.11.51.08.16.21.33.41.51.16.15.71.26 1.35.33.79.09 1.68.09 2.15.01l.17-.03c.81-.13 1.81-.3 1.96-.84.1-.37.25-1.32.37-2.29ZM32 50.74l.04.55c-1.06.08-1.75.2-2.71.97.34-1.01 1.6-1.45 2.68-1.52Zm-6.31-2.53.05.47c-1.33 0-2.76.76-2.76.76.5-.7 1.61-1.23 2.71-1.23m10.47 1.65.13.49c-1.49-.15-2.85.55-2.85.55.4-.78 1.98-1.11 2.72-1.04m5.28 2.5-.02.55c-1.14-.04-2.28.38-2.94.9.19-.95 2.14-1.48 2.95-1.45Zm28.89 1.39c-.94.56-2.54 1.24-4.59.85 2.7-.15 4.3-1.32 4.31-1.32zM40.21 64.56c1.17.17 2.73.65 3.57 1.48-1.21-.42-2.29-.75-3.38-.91-1.08-.16-2.17-.15-3.44.09 1.16-.7 1.89-.86 3.25-.66m-15.97-.35s1.05.34 1.25 1.48c.07.4.22 1.03.37 1.68.22.94.45 1.95.5 2.46.11 1.05-1.1 1.49-1.1 1.5l-.2-.51s.81-.3.75-.93c-.05-.47-.28-1.46-.49-2.39-.15-.67-.3-1.3-.37-1.71-.14-.82-.88-1.05-.88-1.05l.17-.52ZM20.42 34.2c1.24.65 1.84 1.37 1.84 1.37l-.44.34s-.53-.63-1.66-1.22c-1.12-.59-4.08-.69-4.09-.69 1.29-.29 3.16-.42 4.34.2Zm-3.27.32s2.04 1.81 3.91 2.08l-.13.47c-1.5-.21-3.16-1.12-3.78-2.55m-5.35 6.4s2.57 2.34 4.88 2.02l.08.55c-1.48.21-4.35-1-4.95-2.57Zm57.07 2.29-.04.55c-1.86-.12-4.63 1.64-4.64 1.64.83-1.27 3.24-2.29 4.67-2.2Zm-3.68 2.28s2.94-.34 3.8-.76l.25.49c-1.2.6-2.76.56-4.05.27m6.23-33.04s.88-1.27 2.01-1.91c.58-.33 1.5-.76 2.35-1.11.77-.31 1.49-.56 1.87-.61.8-.1 2.21.29 2.21.29-1.32-.02-2.65.34-3.87.83-.83.34-1.73.76-2.29 1.08-.9.51-1.34 1-2.28 1.43M24.98 7.02s.56-.66 1.25-.77c.34-.05 1.3-.13 2.33 0 .84.1 1.78.32 2.21.49.96.38 2.06 1.57 2.07 1.57-1.71-.72-2.35-1.15-4.25-1.38-1.56-.19-2.12-.18-3.61.09m5.5 70.65s1.27.3 1.89.11c.68-.21 1.87-.96 1.87-.97-.47.61-.93 1.25-1.71 1.49-.83.26-1.52-.04-2.06-.63Zm18.2 6.35c-.84-1.97-2.73-2.89-2.73-2.9 1.34-.08 3.37 1.37 2.73 2.9m-5.92-4.93c1.17-.48 3.05-1.1 4.52-.41-1.37-.16-3.92.9-3.92.9l-.59-.49Zm9.17-7.27c3.09-.1 9.83.13 12.17 2.22-1.58-.76-3.57-1.16-5.58-1.35-2.03-.19-4.1-.17-5.83-.12zM21.9 56.19c-.72.76-2.72 2.18-3.76 2.06 1.69-.66 3.35-2.44 3.36-2.44zm-1.74-.97s-1.2.68-1.67 1.21c-.6.67-1.15 1.5-1.68 2.26 0 0 .73-2.03 1.26-2.63.54-.6 1.81-1.32 1.81-1.32l.27.48Zm-5.21-3.36s-1.16.35-2.01 1.07-1.56 2.37-1.56 2.37c-.03-.59.66-2.26 1.53-3 .94-.8 1.87-.97 1.87-.97l.16.53Zm11.06.59c-1.04.29-2.4.82-3.23 2.04.01-1.47 2.31-2.36 3.07-2.57zm1.05.23c-.56 1.06-1.77 2.09-3.03 1.95 0 0 .53-.15 1.22-.58.66-.4 1.31-1.63 1.31-1.63l.49.26Zm-7.4-3.47s-1.48 0-2.82 1.07c.2-1.05 1.83-1.62 2.82-1.62zm10.65 3.4s2.09-.32 3-1.04l.34.43c-.85.67-2.36.77-3.34.6Z"/><path d="M65.02 5.07s2.03 2.72 2.67 3.75c.41.66.62 1.94.82 3.14.14.84.27 1.64.45 2.1.2.52.86 1.67 1.71 3.04.99 1.58 2.21 3.44 3.29 4.98.93 1.33 1.79 2.3 2.57 2.99.86.76 1.61 1.15 2.23 1.28.68.15 1.69.19 2.7 0 .76-.15 1.51-.43 2.1-.91.6-.49.99-1.23 1.22-2.02.29-.99.31-2.02.13-2.7a62 62 0 0 0-2.02-6.33c-.74-1.96-1.53-3.78-2.35-5.67-.95-2.2-3.83-6.49-5.31-8.72 2.57 2.74 4.56 4.77 6.12 8.37.83 1.91 1.63 3.76 2.36 5.71.74 1.96 1.44 4.04 2.05 6.42.21.81.19 2.03-.14 3.17-.27.94-.76 1.85-1.51 2.46-.71.58-1.6.92-2.49 1.09-1.14.22-2.28.17-3.05 0-.75-.16-1.64-.62-2.62-1.48-.82-.72-1.73-1.74-2.71-3.15-1.1-1.58-2.34-3.45-3.32-5.02-.88-1.42-1.57-2.62-1.79-3.19-.2-.53-.34-1.38-.49-2.27-.19-1.12-.38-2.31-.7-2.82-.62-1-2.5-3.47-2.5-3.48z"/><path d="M52.22 20.56c-.13 2.2-.12 4.71.02 6.82.13 1.9.36 3.47.69 4.19.21.45.6 1.12 1.08 1.94 1.24 2.11 3.06 5.21 4.05 8.47.83 2.7 1.71 4.63 2.58 6.51.56 1.22 1.12 2.42 1.65 3.81.8 2.11 1.5 4.29 2.07 6.27.57 1.97 1.01 3.73 1.32 5.03.09.4.24.69.42.88.2.22.45.32.74.32.32 0 .69-.12 1.07-.33.64-.36 1.28-.99 1.78-1.78.58-.9.85-2.36.9-3.88.06-1.89-.21-3.87-.64-5.08l-.02-.04v-.04s-.76-5.13-1.13-7.09c-.37-1.98-.49-2.59-.49-2.59v-.05l-.01-.05c0-.01 0-3.59-.37-5.79-.37-2.22-1.6-6.17-1.61-6.18l-.02-.08v-.08c.16-2.33-.12-4.33-.39-6.2-.29-2.05-.56-3.95-.22-5.98.38-2.3 2.16-6.3 2.17-6.32l.81.36s-1.74 3.92-2.11 6.1c-.32 1.89-.06 3.73.23 5.71.27 1.89.56 3.91.41 6.3.18.57 1.26 4.13 1.61 6.22.36 2.15.38 5.51.38 5.9.04.21.18.93.49 2.58.36 1.93 1.05 6.64 1.12 7.09.45 1.31.73 3.38.67 5.36-.05 1.67-.36 3.28-1.04 4.33-.58.9-1.33 1.63-2.09 2.07-.51.29-1.02.45-1.51.45-.53 0-1-.19-1.38-.61-.28-.3-.49-.72-.62-1.27-.31-1.3-.75-3.05-1.31-5-.56-1.94-1.24-4.08-2.05-6.2-.52-1.37-1.07-2.56-1.62-3.76-.88-1.9-1.77-3.85-2.62-6.63-.96-3.16-2.76-6.21-3.97-8.28-.5-.85-.9-1.54-1.12-2.02-.38-.83-.64-2.51-.77-4.5-.14-2.15-.15-4.7-.02-6.94.25-4.25.8-18.96.8-18.99.76 5.78.42 13.27.08 19.04Z"/><path d="M70.1 16.46s-.33 4.03-.78 5.54c-.29.96-.66 1.68-.91 2.16-.12.24-.21.41-.22.46 0 0 .1.28.24.68.3.85.77 2.17.91 3.63.19 1.92-.11 3.75-.23 4.51l-.04.27s.14.54.35 1.27c.54 1.85 1.48 5.08 1.53 7.71.04 2.03-.03 3.1-.07 3.82-.04.57-.06.92 0 1.35.05.38.24 1.15.46 2.06.36 1.5.82 3.39.96 4.73.11 1.11.28 2.16.47 3.33.17 1.06.36 2.2.52 3.51.18 1.4.23 2.78.18 4-.05 1.28-.22 2.38-.48 3.18-.25.74-.83 1.43-1.48 1.98-.83.7-1.82 1.19-2.4 1.28l-.13-.87c.45-.07 1.25-.49 1.96-1.09.55-.46 1.03-1.02 1.21-1.58.24-.72.39-1.74.44-2.93.05-1.17 0-2.49-.18-3.86-.17-1.35-.35-2.46-.51-3.48-.19-1.18-.36-2.24-.48-3.38-.13-1.28-.58-3.13-.94-4.61-.23-.93-.42-1.72-.47-2.15-.07-.52-.05-.9 0-1.52.04-.72.11-1.77.07-3.75-.05-2.51-.97-5.67-1.5-7.48-.24-.83-.41-1.4-.38-1.62l.05-.31c.12-.73.4-2.48.22-4.29-.13-1.35-.58-2.61-.87-3.42-.18-.52-.31-.89-.27-1.11.03-.19.15-.41.31-.72.23-.45.58-1.11.85-2 .42-1.43.75-5.35.75-5.36l.88.07Z"/><path d="M50.24 57.59c1.93.71 5.44 3.21 5.81 3.48.45.2 4.52 2.07 8.31 5.27 2.17 1.83 5.11 4.67 7.56 7.36 2.08 2.28 3.82 4.47 4.47 5.85 1.03 2.22 1.24 3.15 1.41 3.92.05.24.1.46.18.73.28.95 2.3 3.17 2.31 3.17-.95-.75-2.84-1.87-3.15-2.92-.08-.27-.14-.52-.2-.79-.16-.73-.35-1.6-1.35-3.75-.6-1.29-2.29-3.4-4.32-5.63-2.43-2.67-5.34-5.48-7.47-7.28-3.92-3.3-8.14-5.15-8.15-5.16l-.04-.02-.03-.02s-3.71-2.68-5.64-3.39c-2.66-1.15-6.46-2.08-6.47-2.09 1.96-.32 4.98.6 6.78 1.26Z"/><path d="M25.19 47.66s2.9-.96 5.41-.52c2.34.41 5.23 2.18 5.58 2.39.42.16 3.5 1.35 5.37 2.76.22.12.52.28.81.43 1.87.99 3.67 1.94 5.22 4.11l-.95.25c-1.42-2-2.9-2.65-4.67-3.58-.25-.13-.51-.27-.84-.45h-.03l-.03-.04c-1.9-1.44-5.21-2.67-5.22-2.67l-.05-.02-.04-.02s-2.98-1.89-5.3-2.29c-2.3-.4-4.98.49-4.99.49z"/><path d="M16.01 44.1s4.99.96 7.14 2.25c1.71 1.02 2.46 1.58 2.7 1.76 5.64 1.73 7.97 3.35 11.88 6.09.67.47 1.38.97 2.26 1.57l-.66.63c-.77-.53-1.39-.97-2.11-1.48-3.86-2.7-6.14-4.3-11.71-5.99l-.09-.03-.07-.06s-.6-.5-2.65-1.73c-2.02-1.21-6.84-2.14-6.85-2.14zm-1.18 1.69s3.27 1.25 4.87 2.6c2.11.8 6.44 3.4 6.96 3.71 2.15.57 3.38.98 4.59 1.75s2.36 1.89 4.39 3.87l-.62.63c-1.98-1.94-3.11-3.03-4.24-3.76-1.12-.72-2.3-1.11-4.4-1.66l-.07-.02-.05-.03s-4.81-2.92-6.93-3.7l-.07-.03-.06-.05c-1.46-1.27-4.66-2.49-4.67-2.49l.31-.83Zm-3.71 3.18c1.51.56 2.22 1.06 3.19 1.76.31.22.66.47 1.05.73.07.05.44.24.92.49 1 .52 2.49 1.29 3.24 1.8.6.41 1.07.74 1.42.98.21.15.37.26.52.36.05.04.31.18.68.4 1.3.74 4.01 2.28 5.26 3.26 1.64 1.28 2.46 2.36 2.46 2.36l-.69.55s-.77-1.01-2.31-2.21c-1.2-.94-3.87-2.45-5.16-3.19-.39-.22-.65-.37-.74-.43-.1-.07-.28-.19-.53-.37-.3-.21-.73-.51-1.41-.98-.71-.48-2.17-1.24-3.15-1.74-.5-.26-.88-.46-1.01-.54-.42-.28-.76-.52-1.07-.75-.92-.65-1.59-1.13-2.99-1.65l.31-.83Zm-7.39 3.2s.21.78 1.38 1.4c.78.42 2.6 1.58 4.51 2.94 1.4 1 2.86 2.11 4.01 3.12.91.8 1.49 1.32 1.97 1.75 1.2 1.08 1.83 1.65 2.6 2.2.63.46 2.24 2.08 3.88 3.9 1.37 1.52 2.76 3.18 3.62 4.42l-.73.5c-.83-1.2-2.2-2.83-3.55-4.33-1.6-1.77-3.15-3.35-3.74-3.77-.8-.58-1.44-1.16-2.67-2.26-.57-.51-1.26-1.13-1.96-1.75-1.11-.98-2.55-2.08-3.93-3.07-1.88-1.34-3.66-2.48-4.41-2.89-1.49-.8-1.79-1.9-1.79-1.91l.84-.28Z"/><path d="M35.01 74.84s-1.07-4.99-2.01-6.36l-.23-.34c-1.01-1.49-2.8-4.12-4.6-4.27-.18-.01-.35-.02-.53-.02-.92 0-1.84.19-2.52.47-.58.24-.97.51-.99.74 0 .32.25 1.16.54 2.18.46 1.58 1.03 3.56 1.09 4.96l.04.89c.1 2.36.24 5.83.24 7.64 0 .91.35 1.55.81 2.02.48.49 1.09.81 1.55 1.02.62.28 2.59 1.36 4.41 2.56 1.17.77 2.28 1.6 2.98 2.33 1.47 1.55 4.64 3.61 6.62 4.23-2.9-.21-5.29-1.56-7.26-3.63-.64-.67-1.7-1.47-2.82-2.21-1.78-1.18-3.68-2.22-4.28-2.49-.53-.24-1.24-.61-1.82-1.2-.6-.62-1.07-1.46-1.07-2.64 0-1.86-.14-5.28-.23-7.6l-.04-.89c-.05-1.29-.61-3.22-1.05-4.75-.32-1.09-.58-2-.58-2.42v-.08c.05-.58.66-1.12 1.55-1.48.79-.32 1.82-.53 2.85-.53.2 0 .4 0 .61.03 2.22.19 4.16 3.04 5.26 4.65l.23.34c1.05 1.52 2.15 6.66 2.15 6.68l-.86.18Zm8.74-5.42c1.93.18 4.04.6 6.19 1.38 2.51.9 5.65 2.52 7.69 3.68l-1.08.32a46.5 46.5 0 0 0-6.91-3.18c-2.09-.75-4.19-1.3-6.04-1.47-4.06-.38-8.37.3-8.38.3 2.36-.95 6.25-1.25 8.52-1.03Z"/><path d="M39.51 77.8c-.47-.38-.85-.7-1.2-1-1.04-.89-1.78-1.52-2.51-1.52-1.7 0-2.81.67-4.27.76.38-.33 1.25-.79 2.15-1.14.75-.29 1.54-.5 2.12-.5 1.05 0 1.89.72 3.08 1.74.37.31.77.66 1.18.98 1.76 1.41 5.36 3.23 5.37 3.24-2.26-.31-4.08-1.08-5.92-2.55Z"/><path d="M39.25 77.05c1.44-2.77 4.33-3.79 7.25-4.11-2.99 1.46-4.76 1.25-6.47 4.53zm2.64 1.59c2.31-2.11 4.87-3.37 7.65-4.03 3.72-.88 6.71-.76 10.27.46-3.09-.28-7.41-.23-10.07.4a16 16 0 0 0-7.26 3.82zm25.48 4.9c-1.64-3.26-3.9-5.95-6.81-7.71 3.49.78 6.25 4.27 6.81 7.71M24.38 6.45s-1.7 2.37-2.6 4.29c-.31.65-.78 2.1-1.36 3.85-1.07 3.25-2.49 7.56-3.93 10.05-1.5 2.61-2.35 4.79-3.19 6.95-.37.95-.73 1.89-1.14 2.85-.71 1.65-2.2 4.13-3.63 6.51-1.38 2.29-2.69 4.47-3.13 5.63-.17.45-.18.88-.06 1.26.11.35.32.67.61.95.3.28.68.52 1.1.68.76.29 1.65.35 2.51.09 1.08-.33 2.28-1.21 3.42-2.3 1.51-1.44 2.9-3.23 3.78-4.62 1.62-2.54 2.76-4.14 2.76-4.14s4.22-5.71 5.47-8.08c1.24-2.36 1.91-4.72 1.91-4.73l.85.24s-.7 2.45-1.98 4.9c-1.28 2.44-5.52 8.18-5.54 8.19-.07.1-1.19 1.68-2.73 4.1-.92 1.45-2.36 3.3-3.92 4.79-1.23 1.17-2.55 2.13-3.77 2.5-1.05.32-2.15.24-3.08-.11-.53-.2-1.01-.5-1.4-.86-.39-.38-.69-.83-.84-1.33-.17-.56-.16-1.18.08-1.83.47-1.22 1.8-3.44 3.2-5.76 1.41-2.34 2.89-4.8 3.57-6.4.42-.97.78-1.9 1.14-2.83.85-2.19 1.7-4.4 3.24-7.07 1.39-2.41 2.79-6.67 3.85-9.89.58-1.77 1.06-3.23 1.4-3.94.93-1.98 2.67-4.42 2.68-4.42l.72.51Z"/><path d="M7.54 42.43s-2.39 2.29-4.6 4.02c-1.04.81-1.6 1.42-1.87 1.95-.24.47-.23.91-.11 1.4.12.52.57 1.06 1.24 1.45.61.36 1.4.58 2.3.54.88-.04 1.74-.29 2.52-.64 1.01-.45 1.89-1.07 2.53-1.63l.58.66c-.69.61-1.65 1.28-2.75 1.77-.87.39-1.84.67-2.84.71-1.09.05-2.04-.22-2.79-.65C.87 51.5.28 50.75.1 50c-.17-.69-.18-1.3.18-2 .33-.65.97-1.35 2.12-2.24 2.16-1.69 4.79-4.2 4.79-4.21zm23.62-16.15s-1.7 4.83-3.49 6.56c-1.53 1.48-2.6 2.34-2.84 2.53-.39.5-4 5.03-5.99 6.29l-.47-.75c1.98-1.25 5.79-6.12 5.8-6.13l.04-.05.05-.04s1.1-.84 2.8-2.49c1.64-1.59 3.27-6.21 3.28-6.23l.83.29Z"/><path d="M46.24 13.35c-1.26 1.46-2.22 2.2-2.52 2.42-.43.76-3.67 6.4-5.53 8.16-1.7 1.6-2.9 2.79-3.15 3.04-.26.51-2.11 4.06-4.17 6.12-1 1-2.01 2.25-3.03 3.53-1.2 1.49-2.43 3.02-3.74 4.27l-.2.18c-1.22 1.11-2.34 1.63-3.32 1.73-1.04.1-1.9-.27-2.56-.96l-.05-.06.65-.6.05.05c.47.49 1.09.76 1.83.69.8-.08 1.74-.54 2.81-1.51l.18-.17c1.26-1.2 2.48-2.71 3.66-4.18 1.05-1.3 2.07-2.58 3.09-3.6 2.13-2.13 4.04-5.95 4.04-5.96l.03-.06.05-.05s1.24-1.24 3.22-3.1c1.9-1.79 5.41-8.01 5.42-8.03l.05-.1.09-.06s.98-.65 2.43-2.32c1.44-1.66 4.57-9.35 4.58-9.37.22 2.19-2.59 8.42-3.91 9.94"/><path d="M29.5 25.13s1.14.47 2.02.47 2.76-.28 2.77-.28c-.71.52-1.96 1.09-2.89 1.09-1.04 0-2.69-.64-2.7-.64l.8-.63Z"/><path d="M24.66 5.55c-.43 1.08-.63 3.99-.85 7.14-.11 1.58-.22 3.22-.38 4.77-.23 2.26-.4 4.24-.18 5.66.2 1.27.72 2.08 1.85 2.22 1.4.17 2.82.07 4.15-.44 1.17-.45 2.28-1.21 3.25-2.38 1-1.21 1.96-3.2 2.69-5.25.81-2.26 1.33-4.59 1.33-6.04 0-2.85-.15-5.66-.16-5.66 1.1 2.04 1.04 3.2 1.04 5.66 0 1.55-.55 3.98-1.38 6.33-.76 2.14-1.77 4.22-2.84 5.52s-2.31 2.15-3.61 2.65c-1.48.57-3.04.68-4.57.49-1.62-.2-2.36-1.28-2.62-2.96-.24-1.53-.06-3.56.17-5.88.15-1.5.26-3.15.37-4.74.22-3.23.43-6.2.91-7.41.7-1.76 2.22-3.97 2.22-3.98-.46 1.43-.85 2.92-1.4 4.31Z"/><path d="M21.28 25.38s2 1.04 3.31 1.09c1.27.05 2.37-.76 2.37-.77l.18.84s-1.16.74-2.71.68c-1.22-.05-2.57-1.11-3.15-1.85Zm15.46-13.15s3.82-2.25 5.37-4.25c1.58-2.03 2.25-3.36 2.25-3.36-.9 4.31-3.45 6.18-7.18 8.37l-.45-.76Zm-.23-3.78s2.48-1.47 3.94-2.81C41.9 4.3 44.27.69 44.27.68c-.71 2.03-1.61 4.11-3.23 5.61-1.52 1.4-4.07 2.91-4.08 2.92l-.46-.75Zm26.31 4.93c-.17.84-.33 1.49-.46 2.03-.25 1-.57 3.29-.57 4.4-.57-1.86-.22-4.65.17-6.6.49-2.43.12-6.73.12-6.74.72 2.14 1.19 4.69.75 6.91Zm1.75-2.96c0-3.33-.36-7.41-.74-8.48 1.64 1.52 1.55 6.51.74 8.48m-21.7 5.59s.1-1.27-.73-2.49c.74 0 1.49 1.41 1.57 2.12zm24.7 49.22s-.21 3.5-.14 4.25l-.77.07c-.07-.81.14-4.35.14-4.36l.77.05Zm-.68-33.7-.1.68c-2.77-.59-5.33.92-5.34.92 1.01-1.6 4.27-1.94 5.44-1.61ZM39.32 42.24l7.4 2.84.41-1.48 6.56 5.6-7.99-.38.42-1.55-7.46-2.87-.41 1.31-6.14-5.09 7.7.04z"/></g></g></g></svg>