<svg xmlns="http://www.w3.org/2000/svg" data-name="Layer 2" viewBox="0 0 55.45 77.14"><g data-name="Layer 1"><g data-name="Layer_1"><g fill="currentColor" data-name="2659736244768"><path d="M19.4 21.35s1.4-.7 2.69-.63c.57.03 1.11.22 1.6.48.65.34 1.19.79 1.55 1.15s1.27 1.78 2.14 3.4c.66 1.23 1.31 2.58 1.68 3.68.49 1.42 1.06 3.14 1.48 4.54.33 1.08.57 1.99.63 2.46.07.53.08 1.37.08 2.28 0 .9-.04 1.87-.07 2.68-.03.7-.03 1.72-.02 2.83.01 1.46.05 3.08.09 4.38.03 1.21-.12 2.21-.49 3.01-.39.83-1.02 1.43-1.93 1.79-.73.29-1.53.36-2.28.32-1.02-.06-1.95-.36-2.41-.61-1.19-.65-1.97-1.84-2.46-3.21-.67-1.86-.83-4.06-.83-5.65 0-2.31 0-3.09-.12-3.7-.06-.31-.77-1.38-1.53-2.54-.53-.81-1.09-1.66-1.49-2.35-.5-.87-.9-1.63-1.22-2.36s-.58-1.44-.78-2.18l.85-.23c.19.69.43 1.35.74 2.06s.7 1.45 1.18 2.27c.39.67.94 1.51 1.46 2.3.81 1.23 1.56 2.38 1.66 2.85.14.69.14 1.49.14 3.87 0 1.52.15 3.62.78 5.35.43 1.19 1.08 2.2 2.06 2.74.38.21 1.16.45 2.05.5.63.04 1.3-.02 1.9-.25.68-.27 1.16-.72 1.45-1.35.31-.67.44-1.54.41-2.61-.04-1.29-.07-2.92-.09-4.4-.01-1.13 0-2.16.02-2.87.03-.82.07-1.78.07-2.65 0-.86 0-1.66-.07-2.17-.05-.42-.28-1.28-.6-2.31-.43-1.41-.99-3.11-1.47-4.51-.36-1.05-.98-2.35-1.62-3.55-.83-1.55-1.68-2.89-1.99-3.19-.32-.31-.79-.71-1.34-.99-.39-.2-.82-.35-1.25-.38-1.05-.06-2.26.54-2.26.55l-.38-.8Z"/><path d="M24.27 21.75s1.67-1.43 2.43-1.76c.43-.19 1.26-.36 2.15-.4.71-.03 1.46.01 2.09.19.73.21 1.4.64 2.02 1.2.59.54 1.13 1.2 1.61 1.89l-.72.5c-.44-.64-.94-1.25-1.48-1.74-.52-.48-1.08-.84-1.66-1.01-.53-.15-1.18-.19-1.8-.16-.78.04-1.5.18-1.84.33-.63.27-2.2 1.62-2.2 1.62l-.57-.67Z"/><path d="M32.41 20.77s1.53-.57 2.76-.52c.63.02 1.15.12 1.66.37.5.25.98.64 1.55 1.27 1.11 1.22 1.8 2.79 1.8 2.79l-.81.36s-.64-1.45-1.65-2.56c-.49-.54-.89-.87-1.29-1.07-.38-.19-.79-.26-1.3-.28-1.06-.04-2.42.47-2.43.47l-.3-.83Z"/><path d="M16.22 29.97c.7-1.22 1.65-3.02 2.1-4.71.22-.83.36-1.51.48-2.09.19-.93.34-1.63.66-2.31.24-.52.47-1.04.71-1.64.24-.61.48-1.3.76-2.15.55-1.7.98-3.49.98-3.5l.02-.06s2.2-5.31 2.26-7.33c.03-1.06-.09-2.12-.38-3-.24-.74-.61-1.35-1.11-1.7l-.12-.08c-.52-.31-1.33-.52-2.11-.52-.72 0-1.4.16-1.7.6l-.04.06c-.51.87-1.16 2.29-1.76 3.6-.36.79-.7 1.53-.99 2.12-.77 1.55-1.32 3.72-1.64 4.95-.08.31-.14.56-.19.73-.13.47-.69 1.5-1.35 2.62-.65 1.11-1.39 2.3-1.92 3.13-.5.8-.93 1.58-1.27 2.29-.36.75-.62 1.43-.78 1.98-.18.65-.63 1.95-1.14 3.24-.39.97-.81 1.94-1.19 2.62l-.22.4C5 31.5 1.78 37.24 1.2 39.78c-.22.96-.17 3.87-.13 6.18.01.84.03 1.61.03 2.06 0 .74-.04 1.94-.08 3.34-.08 2.43-.18 5.46-.11 7.91.09 3.44 1.31 6.91 2.12 9.2l.22.64c.69 1.99 1.99 6.77 2.31 7.97h-.91c-.4-1.48-1.58-5.82-2.23-7.68l-.22-.64c-.83-2.35-2.09-5.9-2.18-9.49-.06-2.48.04-5.52.11-7.96.04-1.34.08-2.49.08-3.31 0-.65-.01-1.31-.02-2.04-.04-2.35-.09-5.33.15-6.39.6-2.67 3.87-8.49 5.17-10.8l.22-.4c.36-.65.77-1.58 1.14-2.51.5-1.26.93-2.52 1.11-3.15.17-.6.45-1.33.83-2.13.36-.75.81-1.56 1.32-2.38.53-.84 1.27-2.03 1.9-3.1.62-1.06 1.15-2.02 1.26-2.41.05-.17.11-.41.18-.7.32-1.26.88-3.49 1.71-5.13.28-.55.62-1.3.98-2.09.61-1.34 1.27-2.79 1.8-3.68l.07-.11C18.54.27 19.48 0 20.47 0c.93 0 1.92.27 2.55.64q.075.045.18.12c.67.47 1.14 1.23 1.44 2.14.32.98.45 2.14.42 3.3-.06 2.08-2.11 7.13-2.31 7.61-.05.22-.46 1.88-.99 3.53-.28.88-.53 1.59-.77 2.2-.24.62-.48 1.16-.73 1.69-.28.58-.41 1.24-.59 2.11-.13.6-.27 1.31-.49 2.14-.44 1.66-1.32 3.38-2.02 4.63-.59 1.06-1.43 2.45-1.61 3.59-.8-1.18.06-2.65.67-3.73m25.56 8.25c-.94-.25-1.9-.75-3.1-1.64-1.21-.9-2.44-1.99-3.45-3.08-.95-1.02-1.72-2.05-2.13-2.93-.47-1.02-.87-2.28-.93-3.49-.05-1 .12-1.98.65-2.78.58-.87.99-1.37 1.47-1.63.52-.28 1.04-.26 1.83-.08.96.22 2.3.99 3.61 1.73.65.37 1.29.73 1.84 1.01.82.41 1.72.75 2.74 1 1.03.25 2.18.42 3.52.48 1.42.07 2.37.23 3.12.51.77.3 1.3.73 1.86 1.34.58.63.93 1.5 1.15 2.51.2.98.28 2.08.28 3.23 0 1.29.26 3.07.53 4.91.19 1.31.39 2.65.5 3.91.15 1.62.22 3.26.17 4.7-.05 1.26-.19 2.36-.48 3.17-.28.81-.77 1.72-1.32 2.58-.63.98-1.35 1.91-1.98 2.57-.82.87-1.84 3.19-2.71 5.16-.25.57-.49 1.12-.74 1.65l-.13.29c-.92 1.97-1.44 3.1-2.9 4.83-.71.85-1.68 2.5-2.5 4.17-.76 1.54-1.53 3.71-1.77 4.73h-.9c.21-1.03 1.05-3.44 1.88-5.12.85-1.72 1.86-3.45 2.62-4.35 1.38-1.64 1.88-2.73 2.77-4.63l.13-.29c.21-.44.46-1.02.74-1.64.9-2.03 1.95-4.43 2.88-5.41.59-.62 1.27-1.51 1.88-2.45.52-.81.97-1.65 1.23-2.39.25-.72.39-1.74.43-2.91.05-1.4-.02-3.01-.17-4.59-.11-1.19-.31-2.54-.5-3.86-.27-1.88-.54-3.69-.54-5.04 0-1.1-.07-2.15-.25-3.05-.18-.86-.47-1.59-.93-2.09-.47-.51-.91-.87-1.53-1.11-.65-.25-1.52-.39-2.84-.45-1.4-.07-2.61-.24-3.69-.51s-2.03-.63-2.92-1.07c-.59-.3-1.23-.66-1.88-1.03-1.25-.71-2.54-1.44-3.37-1.63-.57-.13-.92-.16-1.21 0-.33.18-.66.6-1.16 1.34-.42.63-.55 1.42-.51 2.25.06 1.09.42 2.23.86 3.17.37.8 1.08 1.75 1.97 2.7.98 1.05 2.16 2.1 3.33 2.97 1.1.82 1.96 1.27 2.8 1.49 1.55.41 4.29.14 5.59-.73-1 1.55-4.01 2.07-5.82 1.58Z"/><path d="M3.36 43.49s2.55-.4 4.13-.77c1.59-.37 3.74-.26 5.74-.16h.29c1.02.07 2.74-.12 4.32-.42 1.47-.27 2.8-.63 3.3-.97l.49.74c-.6.4-2.08.66-3.66.96-4.58.92-7.28-.18-10.09.49-1.98.35-3.68.49-4.53.14Zm18.17 1.14c-2.52 2.18-4.86 5.58-8.56 5.81 4.14-1.98 4.86-3.65 8.03-6.39l.52.58Zm1.58 6.42s-.92 3.89-.53 6.01c.21 1.15.7 3.23 1.18 5.1.43 1.67.86 3.16 1.08 3.62-1.6-1.91-2.67-6.08-3.12-8.56-.42-2.31.54-6.35.54-6.37l.86.2Z"/><path d="M22.45 55.36s-2.37 3.68-2.69 6.87c-.39-1.97.87-5.64 1.95-7.34l.75.47ZM19.07 75.4c2.83-2.32 3.34-7.2 3.35-7.21.05 3.29.31 5.92-3.35 7.21m20.81-38.79s-.09 1.35-.42 2.48c-.2.67-.68 2.27-1.14 3.72-.31.99-.63 1.94-.85 2.56-.31.86-.75 1.79-1.29 2.51-.46.61-1.01 1.09-1.65 1.28-.65.19-1.32.23-1.97.15-.69-.09-1.36-.31-1.96-.64l.42-.78c.51.28 1.07.46 1.65.54.54.07 1.09.03 1.61-.12.44-.13.84-.49 1.2-.96.49-.64.88-1.48 1.17-2.27.21-.57.52-1.52.84-2.53.48-1.52.95-3.08 1.13-3.7.3-1.03.39-2.28.39-2.29l.88.05Z"/><path d="M40.19 43.73s-1.01.24-2.48.2l.02-.88c1.35.03 2.26-.18 2.26-.18zm.98-6.39s-.03 2.22.34 3.06c.17.39.46.7.78.95 1.25.99 4.59 2.12 6.06 2.36-1.51.52-5.23-.58-6.61-1.67-.41-.33-.8-.74-1.04-1.28-.46-1.03-.42-3.41-.42-3.42zM27.73 68.61s1 5.03 3.24 7.23c-2.6-.51-3.56-5-3.24-7.23m-1.22 4.27c-.02.67-.28 3.85-.06 4.25-.94-.62-.86-3.16-.83-4.28.06-2.21-.79-4.83-.79-4.83 1.06 1.64 1.73 2.69 1.67 4.86ZM6.52 57.11c2.84-1.05 4.72-3.06 5.25-3.85-.03 2.15-3.9 3.92-5.25 3.85m14.45-16.46c.46-.93 1.48-1.42 2.48-1.43-1.16.56-1.93 1.89-1.93 1.89l-.54-.46Z"/><path d="M41.68 40.99s-.44 1.02-.85 1.63c-.13.19-.2.38-.24.55-.05.21-.04.38-.02.48.09.36 1.75 1.84 2.11 1.99-.7-.23-2.83-1.23-2.97-1.77-.05-.2-.07-.52.01-.89.06-.26.17-.55.37-.84.36-.55.76-1.45.76-1.45l.82.31Zm-5.7 5.8c.08-.41.46-2.41.48-3.18 0-.2-.05-.37-.16-.5-.17-.21-.47-.35-.82-.42-.37-.08-.79-.09-1.19-.02-.53.08-1.01.29-1.23.58-.29.39-.6 1.2-.79 2.01-.16.69-.22 1.35-.09 1.71.02.07.25.15.58.23.4.1.91.16 1.39.14.38-.01.76-.1 1.08-.21.38-.13.66-.27.75-.35Zm1.04-3.16c-.03.91-.5 3.33-.5 3.34v.06l-.04.05c-.09.14-.52.41-1.07.59-.37.12-.8.22-1.24.23-.53.02-1.1-.05-1.54-.16-.5-.12-.87-.33-.96-.58-.17-.47-.11-1.25.07-2.02.2-.87.56-1.77.89-2.21.31-.42.92-.69 1.59-.8.46-.07.95-.07 1.39.03.46.1.87.3 1.12.61.19.23.3.52.29.87Zm-6.58 2.43c-.11-.07-.24-.13-.4-.16-.44-.1-1-.05-1.53.14s-1.01.51-1.3.95c-.1.16-.18.33-.23.52-.08.35-.14.8-.17 1.26-.04.61-.05 1.23-.04 1.64.01.44.08.75.17.94.08.14.17.21.29.21.23 0 1.13-.2 1.94-.51.51-.19.97-.42 1.18-.66l.41.36c-.28.32-.82.59-1.39.81-.87.33-1.87.55-2.13.55-.32 0-.59-.15-.78-.5-.14-.26-.22-.64-.23-1.18-.01-.43 0-1.07.04-1.7.04-.48.09-.96.18-1.35.06-.25.16-.49.3-.7.36-.54.94-.94 1.57-1.16.62-.23 1.3-.29 1.84-.16.21.05.41.13.57.24l-.3.46Zm-4.45-7.61s1.2-.01 1.81-.21c.62-.21 1.33-.46 1.91-.75-.7 1.12-2.63 1.45-3.72.96m1.83-1.9c.75-.27 1.45-.13 2.13.18 0 0-1.28.02-1.92.24-.67.24-2.4 1.01-2.4 1.01.66-.54 1.38-1.14 2.19-1.42Zm9.51-.73c.62.03 1.21.31 1.41.36l.14.31c-.18-.04-.99-.1-1.57-.12-.9-.04-2.24.09-3.06.39.89-.57 2-.99 3.08-.94m-2.42 1.28c1.18.2 2.33.18 3.52-.16-1.11.96-2.73.73-3.52.16m10.6 1.73c2.83-.4 3.75-2.18 3.75-2.19-.1 1.73-2.39 2.69-3.75 2.19m6.3-10.58c-.59 1.08-.94 1.38-1.02 3.05-.55-1.12.07-2.51.54-3.32l.48.28Zm-1.8 4.42s.81-.69 1.29-1.28c.45-.55.9-2.08.9-2.09.36 1.39-.84 2.97-2.19 3.36Zm3.65-2c-.16.47-1.55 1.62-2.22 1.63 0 0 .79-.52 1.16-.96s.53-.84.53-.84l.52.17Zm-17.3-7.64c.3 1.07 0 2.26-.21 3.04-.09.33-.15.58-.14.61.04.12.69.55 1.46 1.01.93.57 2.01 1.14 2.43 1.28.3.1.64.04.94-.13.36-.2.68-.54.87-.92.37-.72.08-1.87.08-1.88l.54-.13s.35 1.36-.12 2.26c-.24.47-.64.9-1.1 1.15-.43.24-.91.32-1.38.17-.46-.15-1.58-.75-2.54-1.34-.86-.52-1.6-1.05-1.69-1.29-.07-.19.01-.51.12-.94.19-.72.48-1.82.21-2.75l.53-.15Zm9.7 27.09s1.87 2.9 3 3.43c-1.63-.08-2.55-2.07-3-3.43M15.87 14.39s1.41.58 2.73.7c.51.05 1.47.02 1.95-.08.72-.14 1.22-.44 1.41-.56-.04.61-.94.93-1.49 1.04-.53.11-1.12.17-1.69.11-1.12-.11-2.03-.57-2.92-1.21Z"/><path d="M21.94 14.5s-1.16-.22-2.16-.26c-.97-.04-2.74.08-2.74.08 1.41-.45 3.69-.95 4.9.19Zm-9.82 8.87s1.18.61 2.28.79c.55.09 1.19.05 1.77-.02.58-.08 1.11-.2 1.43-.27.58-.14 1.24-.57 1.25-.57-.63 1.09-1.43 1.24-2.61 1.39-1.41.19-3.24-.1-4.13-1.31Zm5.78-.38c-1.02-.11-1.99-.03-3.05.06-.4.03-.81.07-1.27.09 1.07-.48 3.09-1.13 4.32-.15m-8.42 9.36c2.58.43 3.75-.39 5.96-1.3-.65.9-1.58 1.26-2.65 1.58-1.09.33-2.43.42-3.31-.28m-2.04 1.12s1.08.52 2.76.17c1.73-.37 3.41-.89 3.41-.89-.81.66-2.31 1.22-3.3 1.43-1.07.23-2.22.24-2.87-.71m-3.79 2.9c.26.33 1.66 1.75 3.35 1.69-.88.77-3.03-.2-3.35-1.69m21.69-12.65s-1.64.09-2.75.3c-1.1.21-1.72.39-1.72.39 1.1-.7 3.29-1.51 4.47-.69m-1.95-.9c-1.14-.2-2.7.37-2.7.37.65-.93 2.08-.7 2.7-.37m7.02-1.25c.4-.02 1.41.13 1.62.41 0 0-.87.03-1.51.07-1.02.05-2.01.38-3 .57-.86.16-1.2-.04-1.2-.04 1.54-.3 2.54-.92 4.09-1.01m1.04 1.45c-1.25-.12-2.73.4-2.73.4 1.15-.84 1.4-.96 2.73-.4m10.63 20.29c.2.54 1.86 2.09 2.37 2.46 1.27.95 2.24 2.2 2.89 3.05l.02.02c.42.54 1.75 1.59 2.37 1.8-1.25.09-2.35-.88-2.79-1.44l-.02-.02c-.63-.82-1.58-2.05-2.8-2.96-.69-.51-1.94-2.04-2.04-2.91"/></g></g></g></svg>