<svg xmlns="http://www.w3.org/2000/svg" data-name="entangled" viewBox="0 0 498.735 335.132"><path fill="currentColor" d="M415.075 136.583c-1.796-2.13-3.823-4.063-5.708-6.113a13.4 13.4 0 0 1-1.374-1.903c-.388-.603-.92-1.078-1.335-1.66a33 33 0 0 0-2.643-3.288q-2.883-3.123-5.762-6.25c-3.526-3.825-6.794-8.037-10.94-11.23a23 23 0 0 0-6.258-3.477 24 24 0 0 0-3.446-.768q-1.715-.342-3.456-.534a58.3 58.3 0 0 0-15.9.507c-.111.018-.081.19.025.19 4.695.05 9.41-.285 14.092.195a20.5 20.5 0 0 1 6.738 1.657 39.6 39.6 0 0 1 6.128 3.216 38.6 38.6 0 0 1 5.306 4.779c1.839 1.917 3.696 3.819 5.517 5.753 1.911 2.03 3.807 4.074 5.71 6.111a40 40 0 0 0 2.912 2.998c.476.414 1.001.779 1.453 1.217a13.5 13.5 0 0 0 1.477 1.329 23.2 23.2 0 0 1 3.49 3.428c1.053 1.17 2.067 2.377 3.168 3.505 2.197 2.249 4.256 4.644 6.526 6.82.052.05.122-.024.078-.078-1.834-2.224-3.942-4.201-5.798-6.404m-23.662 40.629a19 19 0 0 1-3-1.47c-.86-.543-1.63-1.274-2.434-1.899a19.5 19.5 0 0 0-2.651-1.57 22 22 0 0 1-2.688-1.376 60 60 0 0 1-4.842-4.211c-1.542-1.432-2.992-2.928-4.428-4.465-2.857-3.06-5.74-6.133-8.833-8.957a23.8 23.8 0 0 0-5.72-4.08 14.4 14.4 0 0 0-3.626-1.108.129.129 0 0 0 .023-.236 40 40 0 0 0-9.976-2.98 99 99 0 0 0-10.302-1.493c-.046-.004-.044.065 0 .07a88 88 0 0 1 10.28 1.951c3.18.81 6.296 1.897 9.5 2.607a37 37 0 0 0-2.821-.317c-5.828-.46-11.651-1.015-17.477-1.512-.047-.004-.059.075-.011.083 5.157.835 10.319 1.631 15.476 2.46a27.3 27.3 0 0 1 6.919 1.769 33.4 33.4 0 0 1 5.885 3.805c3.352 2.459 6.524 5.173 9.63 7.932 1.572 1.397 3.183 2.748 4.75 4.15 1.502 1.343 3.033 2.652 4.63 3.881a8 8 0 0 1 1.64 1.387 8 8 0 0 0 .978 1.114 11.8 11.8 0 0 0 2.667 2.056 24 24 0 0 0 3.118 1.155c1.114.389 2.193.89 3.3 1.303.03.011.043-.037.013-.05m22.156 9.906c-2.13-1.145-4.44-1.97-6.672-2.894-.013-.005-.022.017-.01.023 2.188 1.026 4.354 2.177 6.636 2.979.063.022.104-.077.046-.108m8.059 14.102a67 67 0 0 1-6.46-2.874c-2.062-1.025-4.173-1.988-6.18-3.118-.985-.556-1.886-1.17-2.823-1.801a9 9 0 0 0-1.423-.876 12 12 0 0 0-1.659-.573c-2.226-.607-4.375-1.536-6.565-2.28a288 288 0 0 0-7.483-2.442c-.042-.013-.058.05-.018.065a162 162 0 0 1 6.662 2.71c1.061.463 2.114.944 3.172 1.415a28 28 0 0 1 3.163 1.446 10.1 10.1 0 0 0 2.935 1.471 25 25 0 0 1 3.331.897 72 72 0 0 1 6.509 2.984 62 62 0 0 0 6.828 3.017c.026.009.036-.032.011-.041m-91.55-7.867a33 33 0 0 0-3.575-2.24c-1.314-.783-2.635-1.554-3.949-2.338-2.589-1.545-5.182-3.083-7.755-4.655-.033-.02-.062.03-.03.051a293 293 0 0 0 7.61 4.903 227 227 0 0 0 3.808 2.32 29.5 29.5 0 0 0 3.812 2.093c.073.03.14-.085.079-.134m5.257-2.157c-.835-.465-1.68-.913-2.488-1.424-1.728-1.092-3.448-2.196-5.175-3.29q-5.132-3.25-10.446-6.168a.047.047 0 0 0-.047.08q5.12 3.132 10.238 6.266a181 181 0 0 1 5.072 3.207c.805.53 1.566 1.109 2.33 1.695.524.403 1.42 1.41 2.14 1.183a.14.14 0 0 0 .103-.135c-.072-.728-1.164-1.101-1.727-1.414m7.442.253c-.705-.399-1.421-.779-2.122-1.186a81 81 0 0 1-4.141-2.549 264 264 0 0 0-8.196-5.244c-.061-.038-.115.056-.056.095a264 264 0 0 0 8.211 5.219 83 83 0 0 1 3.952 2.605c.669.464 1.318.954 1.98 1.429a4.3 4.3 0 0 0 1.836 1.003c.1.014.162-.12.114-.197a4 4 0 0 0-1.578-1.175m4.693-.459c-1.04-.853-2.157-1.615-3.251-2.396l-3.384-2.415c-.04-.028-.077.037-.038.066q1.652 1.21 3.303 2.422c1.098.805 2.185 1.639 3.334 2.37.028.017.063-.026.036-.047m5.582 1.406a3.7 3.7 0 0 0-1.213-.801 4.6 4.6 0 0 0-1.385-.362c-.047-.005-.058.074-.011.084a6.6 6.6 0 0 1 1.35.443 5 5 0 0 1 .612.318c.202.123.393.264.596.385a.043.043 0 0 0 .051-.067m-22.858 67.086c-2.63-1.829-5.396-3.47-8.1-5.188a781 781 0 0 1-8.088-5.189c-.041-.027-.078.038-.038.066a279 279 0 0 0 7.97 5.392c2.682 1.74 5.376 3.51 8.204 5.007a.05.05 0 0 0 .052-.088m7.108.552.016-.01a16 16 0 0 0-2.597-1.847q-1.342-.91-2.689-1.81c-1.835-1.225-3.667-2.452-5.512-3.661-3.688-2.418-7.394-4.806-11.082-7.224-.046-.03-.087.043-.043.074 3.62 2.536 7.22 5.1 10.84 7.637 1.772 1.242 3.555 2.466 5.337 3.693q1.336.92 2.679 1.83a16.7 16.7 0 0 0 2.787 1.79c.277.114.454-.287.264-.472m4.294-.765a4.8 4.8 0 0 0-1.774-1.606c-.762-.544-1.529-1.079-2.293-1.618l-4.478-3.158-9.063-6.392c-.037-.026-.068.033-.035.058l8.748 6.67 4.268 3.252 2.24 1.708a5.2 5.2 0 0 0 2.205 1.322.163.163 0 0 0 .182-.236m5.41.503c-.495-1.39-1.994-2.081-3.088-2.93-1.203-.935-2.404-1.871-3.615-2.795-2.49-1.9-5.032-3.732-7.545-5.6-.027-.02-.061.024-.036.046 2.362 2.064 4.696 4.164 7.083 6.2 1.161.99 2.333 1.967 3.503 2.947 1.065.892 2.048 2.184 3.51 2.378a.195.195 0 0 0 .188-.246m3.302-.978c-.306-.918-1.407-1.413-2.162-1.933-.486-.333-.97-.628-1.424-1.008a15 15 0 0 1-1.249-1.166 22 22 0 0 0-2.32-2.24c-.842-.663-1.764-1.203-2.647-1.803-.057-.04-.116.045-.071.093.732.788 1.406 1.63 2.198 2.363a21 21 0 0 0 2.486 1.892 13.2 13.2 0 0 1 2.441 2.17c.357.4.715.807 1.095 1.185a2.4 2.4 0 0 0 1.263.837c.22.038.474-.14.39-.39m2.902-.701c-.34-.306-.688-.6-1.054-.874a17 17 0 0 0-2.395-1.465.021.021 0 0 0-.021.036c.763.524 1.498 1.104 2.219 1.684.714.573 1.423 1.15 2.139 1.72a.05.05 0 0 0 .072-.071 9.5 9.5 0 0 0-.96-1.03m6.489.64c-.267-.185-.523-.373-.802-.54l-.798-.482c-.542-.326-1.103-.62-1.658-.924a.05.05 0 0 0-.05.088c.53.345 1.054.701 1.597 1.025l.802.477c.278.166.565.303.853.45a.055.055 0 0 0 .056-.094m5.914.365a6 6 0 0 0-.683-.235 5 5 0 0 0-.769-.15 7 7 0 0 0-.758-.061 11 11 0 0 1-.777-.078c-.168-.023-.209.268-.04.299.25.045.493.09.737.156a6 6 0 0 0 .733.175 6 6 0 0 0 .758.097 5 5 0 0 0 .748-.014c.087-.011.154-.14.051-.189m7.376.71a5 5 0 0 0-.847-.26 6 6 0 0 0-.968-.16c-.312-.032-.626-.026-.938-.028a14 14 0 0 1-.974-.05c-.165-.013-.205.264-.04.29.31.05.617.098.922.168.317.073.633.152.955.198a5.5 5.5 0 0 0 .94.069 5 5 0 0 0 .927-.057.094.094 0 0 0 .023-.17m16.197 2.963a75 75 0 0 0-5.98-1.672 37 37 0 0 0-3.06-.586c-1.04-.157-2.083-.157-3.121-.36-.09-.018-.13.117-.038.138 1.017.243 1.96.657 2.955.961a32 32 0 0 0 3.136.758c2.006.397 4.05.722 6.082.951.114.013.125-.158.026-.19M123.385 120.533a.042.042 0 0 0-.081-.023c-.275.982-.563 1.957-.766 2.958-.21 1.037-.294 2.089-.577 3.11-.282 1.019.083 1.896.067 2.925-.018 1.065-.227 2.122-.231 3.182-.002.398.634.397.618 0a31 31 0 0 1-.167-3.064c.06-1.031.565-1.892.49-2.939a15 15 0 0 1 .217-2.921c.133-1.076.247-2.16.43-3.228m78.75.347a.153.153 0 0 0-.255-.068 4.7 4.7 0 0 0-.83 1.806c-.22.823-.455 1.648-.642 2.479-.365 1.623-.63 3.272-.989 4.899-.716 3.243-1.635 6.448-2.475 9.661a.021.021 0 0 0 .04.012c.88-3.203 1.687-6.437 2.689-9.603.49-1.546 1.052-3.064 1.553-4.604.263-.81.462-1.645.688-2.466a5 5 0 0 0 .221-2.117m1.955 2.591q-.935 3.493-1.591 7.047a165 165 0 0 0-.611 3.49 19 19 0 0 0-.44 3.45.23.23 0 0 0 .45.061 28 28 0 0 0 .41-3.454 76 76 0 0 1 .5-3.598q.576-3.506 1.34-6.98a.03.03 0 0 0-.057-.016m-9.678-2.248c-.577 1.232-1.183 2.45-1.746 3.69a30 30 0 0 0-.782 1.844 8.2 8.2 0 0 0-.427 1.884c-.015.115.144.129.197.054a8.4 8.4 0 0 0 .971-1.734c.246-.613.455-1.24.658-1.868.414-1.277.783-2.566 1.184-3.847.01-.032-.04-.054-.055-.023m56.748-8.134c-.441.932-.924 1.846-1.392 2.765-.234.46-.449.934-.656 1.406a13 13 0 0 0-.481 1.401.068.068 0 0 0 .123.053 13 13 0 0 0 .76-1.346c.2-.436.401-.872.578-1.317.386-.969.757-1.945 1.17-2.902.03-.069-.069-.13-.102-.06m-53.389 65.642c-.777.548-1.595 1.033-2.33 1.64a16.4 16.4 0 0 0-2.024 2 2.8 2.8 0 0 0-.417.57c-.076.16-.247.442-.202.623.118.474.748-.09.904-.25.334-.344.626-.735.94-1.097.316-.365.628-.733.953-1.09a22 22 0 0 1 2.232-2.322c.04-.033-.013-.104-.056-.073M371.868 315.54c-2.175-1.881-4.466-3.624-6.678-5.463a219 219 0 0 1-6.556-5.644c-.052-.048-.129.027-.078.077a86.7 86.7 0 0 0 13.235 11.13c.06.04.132-.052.077-.1m11.367 3.736a21 21 0 0 0-2.363-1.863 56 56 0 0 1-2.679-2.115c-1.673-1.388-3.3-2.84-4.897-4.314-3.168-2.922-6.441-5.728-9.68-8.571-.015-.014-.039.009-.023.024 3.155 2.995 6.326 5.978 9.646 8.791a176 176 0 0 1 4.816 4.208c.786.717 1.57 1.438 2.32 2.19a23 23 0 0 0 2.398 2.248c.35.263.766-.302.462-.598m5.975-.673c-2.673-2.21-5.134-4.644-7.715-6.96q-4.34-3.892-8.94-7.472c-.05-.04-.123.03-.072.071q4.038 3.257 7.908 6.717a72.4 72.4 0 0 1 7.448 7.226c.546.652 1.054 1.321 1.642 1.938.297.312 1.034 1.337 1.546 1.115.893-.387-1.487-2.362-1.816-2.635m11.075 4.334a13.2 13.2 0 0 0-2.108-2.04q-1.135-.958-2.29-1.89c-1.568-1.263-2.976-2.73-4.427-4.124q-4.363-4.19-8.78-8.32c-.036-.034-.09.019-.054.053q4.295 4.257 8.667 8.434c1.416 1.36 2.915 2.673 4.208 4.153q.974 1.115 1.973 2.207a14 14 0 0 0 2.186 2.105l.003.003.023.018.003-.008c.35.19.878-.212.596-.591m-6.613-12.072a25 25 0 0 0-2.992-2.36c-.023-.016-.052.022-.03.04.948.832 1.833 1.727 2.749 2.594q1.373 1.3 2.709 2.647c.045.046.134-.017.093-.072a24 24 0 0 0-2.529-2.849m11.363 10.729c-.573-.549-1.145-1.1-1.732-1.633q-1.764-1.6-3.495-3.235a.025.025 0 0 0-.036.036q1.665 1.702 3.3 3.43c.53.56 1.077 1.104 1.62 1.652a6.4 6.4 0 0 0 1.76 1.538.077.077 0 0 0 .105-.104 6.2 6.2 0 0 0-1.522-1.684m10.171 2.316a25 25 0 0 0-3.503-3.22c-1.25-1.09-2.512-2.163-3.769-3.244-2.514-2.162-5.087-4.256-7.597-6.425-.02-.017-.05.012-.03.03 2.446 2.227 4.825 4.526 7.265 6.758 1.187 1.087 2.37 2.179 3.562 3.259q.946.854 1.896 1.705a12 12 0 0 0 1.823 1.49c.206.123.517-.139.353-.352m7.468.932a20.3 20.3 0 0 0-2.732-2.536q-1.457-1.258-2.917-2.511l-5.749-4.948c-.025-.021-.06.014-.036.036l5.712 5.144 2.772 2.496a20.4 20.4 0 0 0 2.883 2.406c.057.034.103-.04.067-.087m7.185-.124a12.6 12.6 0 0 0-2.502-2.092c-.948-.728-1.907-1.44-2.87-2.15l-5.768-4.25c-.026-.02-.061.025-.036.046l5.543 4.542c.897.735 1.795 1.467 2.706 2.184a13 13 0 0 0 2.731 1.975.175.175 0 0 0 .196-.255m7.26.418a15 15 0 0 0-1.898-1.453q-1.069-.75-2.164-1.46a66 66 0 0 0-4.43-2.613.03.03 0 0 0-.03.052 85 85 0 0 1 4.306 2.667q1.058.696 2.092 1.428c.685.485 1.343 1.03 2.074 1.446a.043.043 0 0 0 .05-.067m8.106-.722a14 14 0 0 0-2.518-2.155 93 93 0 0 0-2.82-2.029q-2.85-1.99-5.77-3.88c-.037-.024-.07.034-.034.058q2.83 1.949 5.556 4.038c.936.717 1.859 1.45 2.79 2.173a17 17 0 0 0 2.698 1.922.08.08 0 0 0 .098-.127m8.471.049a37 37 0 0 0-3.663-2.67q-1.921-1.388-3.803-2.829c-2.57-1.968-5.114-3.963-7.587-6.051-.053-.045-.13.03-.077.077 2.385 2.131 4.811 4.226 7.329 6.199q1.786 1.4 3.608 2.752a28.3 28.3 0 0 0 3.993 2.78c.16.08.345-.124.2-.258m7.728-.011c-1.167-1.038-2.503-1.9-3.76-2.823q-2.073-1.522-4.094-3.111a193 193 0 0 1-7.604-6.285c-.033-.029-.08.018-.048.047a133 133 0 0 0 7.543 6.524q1.843 1.47 3.73 2.885a33 33 0 0 0 4.156 2.863c.06.033.133-.05.077-.1m6.265-.37a66 66 0 0 0-6.305-4.63l-6.59-4.62c-.027-.02-.052.024-.026.044l6.384 4.72a67 67 0 0 0 6.471 4.572c.053.03.115-.044.067-.086m4.441-1.132c-1.755-1.361-3.59-2.607-5.419-3.867-.068-.047-.129.062-.064.11 1.79 1.304 3.57 2.622 5.432 3.824.04.025.09-.037.05-.067m8.491 1.42a16.6 16.6 0 0 1-3.992-2.25c-.033-.027-.08.017-.048.047a10.4 10.4 0 0 0 1.862 1.399 10 10 0 0 0 2.15.902c.065.019.087-.074.028-.098m-114.66-8.083c-1.525-1.43-3.165-2.728-4.746-4.092-1.587-1.37-3.197-2.714-4.755-4.116a.042.042 0 0 0-.06.06 56 56 0 0 0 9.474 8.26.072.072 0 0 0 .087-.112m-8.51-2.546a25 25 0 0 0-1.416-1.37q-1.433-1.258-2.986-2.37c-.047-.032-.107.045-.062.08a38 38 0 0 1 2.854 2.483c.45.432.905.857 1.344 1.3a17 17 0 0 0 1.365 1.35c.052.042.14-.011.1-.077a9 9 0 0 0-1.2-1.396m-109.179-65.076q-3.145-3.764-6.182-7.619c-.02-.026-.067.01-.046.036a209 209 0 0 0 6 7.63c2.11 2.55 4.224 5.126 6.556 7.477.035.036.084-.016.054-.054-2.07-2.536-4.282-4.956-6.382-7.47m8.151 5.523q-4.584-5.65-9.209-11.268c-.02-.025-.056.01-.036.036q4.497 5.645 9.016 11.27c3.012 3.737 5.928 7.586 9.106 11.182.038.042.115-.015.08-.062-2.83-3.83-5.957-7.46-8.957-11.158m9.554 6.798q-4.343-5.053-8.363-10.37c-.026-.035-.084-.002-.058.033q3.929 5.238 8.169 10.231a125 125 0 0 0 8.992 9.844.034.034 0 0 0 .048-.048c-2.897-3.26-5.943-6.38-8.788-9.69m16.231 12.213a20 20 0 0 0-2.052-2.002q-.997-.943-1.976-1.904-2.002-1.967-3.924-4.012a158 158 0 0 1-7.4-8.429c-.016-.021-.045.009-.029.03a129 129 0 0 0 7.356 8.648q1.915 2.051 3.911 4.025.976.965 1.97 1.91a15.3 15.3 0 0 0 2.073 1.827c.06.04.11-.045.071-.093m-9.858-15.589c-.023-.023-.058.012-.036.036 3.624 3.872 7.245 7.744 10.99 11.5.023.023.058-.012.036-.036-3.582-3.911-7.286-7.704-10.99-11.5m18.963 20.795a4 4 0 0 0-.215-.436 10 10 0 0 0-.635-.917c-.43-.58-.864-1.16-1.315-1.723-.903-1.128-2.026-2.051-2.991-3.12-.133-.147-.343.067-.216.215.948 1.097 1.635 2.369 2.512 3.52q.639.837 1.25 1.695c.204.285.4.578.624.848a4 4 0 0 0 .333.358c.17.154.308.136.497.24a.137.137 0 0 0 .199-.152c-.027-.195.036-.33-.043-.528m8.552 4.06a31.4 31.4 0 0 0-3.819-4.682c-1.375-1.57-2.713-3.175-4.083-4.75q-4.113-4.727-8.436-9.258c-.019-.02-.048.01-.03.03q4.099 4.658 8.165 9.344c1.336 1.548 2.681 3.093 3.973 4.677a39 39 0 0 0 4.03 4.793.128.128 0 0 0 .2-.154m10.196 4.926c-1.149-1.359-2.496-2.543-3.77-3.785q-1.869-1.822-3.688-3.692-3.68-3.781-7.236-7.686c-.03-.032-.076.015-.048.048q3.413 4.125 7.13 7.973 1.81 1.879 3.668 3.71a35 35 0 0 0 3.883 3.512c.05.036.096-.039.061-.08m4.441-.557q-1.332-1.287-2.69-2.547-2.727-2.517-5.603-4.859c-.021-.017-.05.012-.03.03q2.747 2.482 5.447 5.015 1.315 1.23 2.613 2.479.666.643 1.325 1.294a9 9 0 0 0 1.31 1.185.055.055 0 0 0 .074-.075 16 16 0 0 0-2.446-2.522m6.451 1.455a26 26 0 0 0-1.775-1.344l-1.862-1.317c-.023-.016-.043.02-.022.036l1.791 1.37c.592.453 1.198.907 1.827 1.308.032.02.07-.028.041-.053m3.69.723c-.61-.376-1.226-.742-1.842-1.11a.055.055 0 0 0-.055.096c.623.355 1.244.712 1.872 1.058a.025.025 0 0 0 .025-.044m-30.253-82.519c-.819-.41-1.717-.669-2.567-1.006a64 64 0 0 1-2.856-1.225 56 56 0 0 1-5.21-2.707.021.021 0 0 0-.022.036 56 56 0 0 0 5.235 2.858 49 49 0 0 0 2.53 1.112 16.5 16.5 0 0 0 2.854 1.017c.048.01.085-.06.035-.085m3.358-1.634c-1.34-.527-2.723-.932-4.064-1.458-1.379-.54-2.753-1.097-4.082-1.75-.029-.015-.054.027-.025.043a38 38 0 0 0 3.892 1.92 21.6 21.6 0 0 0 4.243 1.376.068.068 0 0 0 .036-.13m4.788-1.823c-.73-.272-1.459-.544-2.211-.747l-2.25-.608a.03.03 0 0 0-.016.058l2.206.767c.735.256 1.49.442 2.244.628a.05.05 0 0 0 .027-.098m61.319-73.749q-2.075-2.74-4.156-5.476c-.016-.021-.052-.001-.036.021q1.98 2.86 3.97 5.712a61 61 0 0 0 4.072 5.414c.042.047.118-.014.087-.067a61 61 0 0 0-3.937-5.604m7.024 3.142-1.38-2c-.898-1.3-1.767-2.596-2.574-3.956a65 65 0 0 0-5.43-7.428c-.02-.026-.066.008-.046.036 1.8 2.526 3.448 5.155 5.327 7.627a35 35 0 0 1 2.493 3.856c.38.666.752 1.333 1.11 2.01.294.552.527 1.363 1.13 1.635a.142.142 0 0 0 .21-.12c.048-.635-.497-1.166-.84-1.66m-3.746-11.252c-.021-.026-.066.008-.047.036a104 104 0 0 1 4.01 6.308c.022.038.077.005.058-.034a32.4 32.4 0 0 0-4.021-6.31m9.086 13.893a11 11 0 0 0-.81-1.183c-.293-.364-.596-.711-.86-1.099a62 62 0 0 1-1.521-2.37.047.047 0 0 0-.08.047c.467.815.93 1.628 1.36 2.463.215.417.377.847.555 1.278a10 10 0 0 0 .655 1.274.407.407 0 0 0 .701-.41m2.072-2.572q-.949-1.447-1.87-2.911a654 654 0 0 0-3.73-5.827.021.021 0 0 0-.037.021 661 661 0 0 0 3.482 5.973q.88 1.487 1.737 2.989a16 16 0 0 0 1.7 2.822c.174.195.551-.01.453-.263a16 16 0 0 0-1.735-2.804m5.541 2.08q-.79-1.134-1.61-2.247-1.572-2.133-3.242-4.192c-.038-.048-.124.016-.086.066q1.612 2.133 3.102 4.352.723 1.077 1.418 2.171a8.2 8.2 0 0 0 1.524 2.145.107.107 0 0 0 .177-.103 6.9 6.9 0 0 0-1.283-2.193m5.45 2.339c-.268-.396-.535-.792-.82-1.177q-.883-1.196-1.775-2.385c-.054-.072-.175-.007-.125.073q.787 1.252 1.578 2.5c.257.404.53.795.803 1.187a6 6 0 0 0 .927 1.137c.053.045.156.003.128-.074a6 6 0 0 0-.716-1.26m3.986.879-1.124-1.088a.038.038 0 0 0-.054.054l1.09 1.123a15 15 0 0 0 1.126 1.085.034.034 0 0 0 .048-.047 15 15 0 0 0-1.086-1.127m-1.247-29.871a66 66 0 0 0-2.134-2.721 89 89 0 0 0-4.767-5.351c-.03-.032-.075.015-.048.047 1.534 1.822 3 3.696 4.422 5.606.673.904 1.318 1.827 1.977 2.74a16 16 0 0 0 2.107 2.725c.11.099.328.006.268-.156a12.3 12.3 0 0 0-1.824-2.89m6.357 6.091a25.7 25.7 0 0 0-2.361-3.626c-.833-1.235-1.659-2.474-2.503-3.7q-2.499-3.627-5.041-7.222c-.034-.048-.113-.004-.08.047q2.39 3.767 4.81 7.514c.785 1.21 1.59 2.408 2.386 3.61a26 26 0 0 0 2.483 3.612c.163.172.39-.045.306-.235m.888-2.118a120 120 0 0 0-1.511-2.343q-1.57-2.361-3.215-4.671c-.037-.053-.124-.004-.088.051q1.572 2.354 3.07 4.756c.49.789.983 1.576 1.468 2.369a11 11 0 0 0 1.5 2.266.064.064 0 0 0 .106-.062 10 10 0 0 0-1.33-2.366m3.444.891-.3-.397q-.28-.375-.566-.747c-.393-.507-.8-1.003-1.2-1.505-.048-.06-.152.02-.107.082.374.522.74 1.05 1.121 1.566.186.251.377.498.565.747l.3.397a.63.63 0 0 0 .28.258.064.064 0 0 0 .08-.061.63.63 0 0 0-.173-.34m2.31-.007a.013.013 0 0 0 0-.025m-276.682 47.126c-.722-.7-1.459-1.386-2.189-2.078l-4.32-4.095c-.024-.023-.06.013-.036.036l4.227 4.188c.695.688 1.384 1.382 2.085 2.064a17.6 17.6 0 0 0 2.101 1.95c.051.036.125-.035.087-.086a17 17 0 0 0-1.955-1.98m7.132 1.944a25 25 0 0 0-2.754-2.699l-2.898-2.712q-2.86-2.676-5.76-5.303c-.024-.022-.06.013-.036.036q2.845 2.768 5.722 5.5 1.4 1.326 2.801 2.65a25 25 0 0 0 2.873 2.594c.043.03.078-.032.051-.066m3.251-1.885q-.622-.663-1.26-1.312-1.31-1.331-2.68-2.6a77 77 0 0 0-5.513-4.617c-.022-.018-.053.022-.03.04q2.85 2.26 5.489 4.766 1.287 1.218 2.518 2.492.633.654 1.25 1.322a9.3 9.3 0 0 0 1.21 1.248c.053.04.116-.035.086-.087a7.3 7.3 0 0 0-1.07-1.252m.12-3.7-2.883-2.654c-.044-.04-.11.024-.066.066l2.849 2.688c.945.893 1.86 1.849 2.885 2.651a.042.042 0 0 0 .06-.06c-.871-.965-1.889-1.81-2.845-2.691m8.008 7.452c-.255-.383-.662-.645-.926-1.027a2.8 2.8 0 0 0-.422-.565c-.116-.103-.24-.196-.364-.29a4 4 0 0 0-.475-.468 4.5 4.5 0 0 0-.53-.374c-.466-.385-.936-.763-1.401-1.152a.032.032 0 0 0-.045.045c.632.715 1.229 1.452 1.889 2.143.16.167.29.35.44.525a2.2 2.2 0 0 0 .575.414c.407.255.686.668 1.089.92a.126.126 0 0 0 .17-.17m4.61-.54c-.926-.971-1.994-1.822-3.002-2.706l-3.041-2.667c-.017-.014-.04.01-.024.024l3.022 2.77c.978.896 1.93 1.852 2.984 2.659.047.036.1-.04.061-.08m6.215.791c-1.13-1.081-2.434-2.007-3.656-2.98-1.232-.983-2.48-1.946-3.723-2.914-.038-.03-.092.022-.054.053 1.236 1.012 2.467 2.03 3.714 3.027 1.205.966 2.383 2.02 3.673 2.874.036.024.077-.03.046-.06m5.187 1.357q-.394-.328-.79-.654a10 10 0 0 1-.77-.675 2.8 2.8 0 0 0-.757-.633 15 15 0 0 1-1.677-1.05c-.588-.385-1.156-.801-1.735-1.198-.031-.022-.07.029-.04.053q.62.499 1.232 1.01c-.002.014-.007.029.01.037.04.02.076.046.115.066.074.063.152.12.224.184a13 13 0 0 1 1.482 1.403 2.6 2.6 0 0 0 .741.554 8 8 0 0 1 .875.633q.404.319.805.64a2.6 2.6 0 0 0 .803.435.066.066 0 0 0 .074-.097 2.5 2.5 0 0 0-.591-.708m3.566.933a6 6 0 0 0-.602-.536c-.397-.336-.817-.65-1.23-.967a27 27 0 0 0-2.599-1.783c-.018-.01-.039.015-.023.03.774.69 1.537 1.391 2.313 2.078.385.34.766.691 1.165 1.016.188.154.372.318.57.458a4.3 4.3 0 0 0 .76.372c.044.02.106-.023.073-.072a6 6 0 0 0-.427-.596m32.219 4.343q-1.087-.9-2.171-1.803a96 96 0 0 1-4.179-3.677.055.055 0 0 0-.078.078 143 143 0 0 0 4.02 3.946q.997.937 2.039 1.826a8.4 8.4 0 0 0 2.152 1.558c.086.034.169-.082.12-.155a9.4 9.4 0 0 0-1.903-1.772m8.931 4.682a32 32 0 0 0-2.792-2.844q-1.463-1.435-2.94-2.856a308 308 0 0 0-5.912-5.516c-.028-.025-.07.016-.042.042a701 701 0 0 1 5.8 5.628q1.425 1.393 2.836 2.799a39 39 0 0 0 2.93 2.866.085.085 0 0 0 .12-.12m5.303.977c-4.002-3.75-8.12-7.365-12.066-11.177-.024-.022-.06.013-.036.036 3.885 3.846 7.804 7.73 11.982 11.26.082.07.2-.044.12-.12m5.158 1.109c-.724-.781-1.554-1.463-2.349-2.17l-2.393-2.125-4.798-4.24c-.04-.036-.1.022-.06.06l4.791 4.379q1.18 1.08 2.367 2.152c.77.7 1.52 1.433 2.355 2.057.068.05.14-.056.087-.113m4.287 1-1.17-1.167c-.78-.778-1.555-1.56-2.343-2.33l-4.725-4.623a.03.03 0 0 0-.042.042q2.3 2.374 4.598 4.749c.746.77 1.502 1.528 2.255 2.29l1.161 1.175a6.7 6.7 0 0 0 1.165 1.068.072.072 0 0 0 .099-.098 6.3 6.3 0 0 0-.998-1.106m4.015.526c-.627-.59-1.252-1.181-1.886-1.763l-3.804-3.49c-.036-.032-.089.02-.054.054l3.691 3.603c.598.584 1.204 1.159 1.81 1.734a15 15 0 0 0 1.887 1.675c.043.03.108-.03.075-.075a15 15 0 0 0-1.72-1.738m6.604 3.466a16 16 0 0 0-1.621-1.558l-1.7-1.572c-1.118-1.034-2.256-2.046-3.386-3.067-.028-.025-.069.016-.041.042 1.107 1.074 2.207 2.157 3.327 3.218l1.633 1.546a16 16 0 0 0 1.68 1.53c.09.063.167-.067.108-.139m3.201-.246c-.34-.227-.689-.433-1.02-.674a13 13 0 0 1-.993-.793 11.3 11.3 0 0 1-1.663-1.86c-.01-.013-.031 0-.022.013a11.4 11.4 0 0 0 1.635 1.897 8.5 8.5 0 0 0 2.033 1.468.03.03 0 0 0 .03-.051m4.376 1.177c-1.145-.856-2.395-1.579-3.611-2.328-.023-.015-.044.02-.021.036 1.179.808 2.346 1.658 3.594 2.357.043.025.076-.037.038-.065m4.495.997a3.4 3.4 0 0 0-.636-.32q-.314-.145-.63-.282l-1.295-.55c-.04-.017-.074.039-.034.058l1.284.621c.214.104.432.2.65.298a3.2 3.2 0 0 0 .628.253.043.043 0 0 0 .033-.078m5.135 1.539a3 3 0 0 0-.429-.297 11 11 0 0 0-.464-.289l-.938-.56a.05.05 0 0 0-.052.087l.922.589q.23.148.466.286a3 3 0 0 0 .457.248c.036.013.064-.039.037-.064m-141.217-20.3c-1.273-.847-2.637-1.552-3.909-2.406a52 52 0 0 1-3.803-2.795c-.017-.014-.04.01-.024.024a43 43 0 0 0 3.641 2.81 25 25 0 0 0 4.06 2.425.034.034 0 0 0 .035-.058m1.133-1.139a9 9 0 0 0-.82-.554l-.817-.541-1.69-1.12c-.031-.021-.06.03-.029.051l1.658 1.11.815.544a10 10 0 0 0 .847.557c.028.014.063-.024.036-.047m4.352.378a2.4 2.4 0 0 0-.706-.582q-.45-.312-.893-.633a22 22 0 0 0-1.792-1.255c-1.259-.733-2.478-1.525-3.71-2.302-.02-.014-.038.018-.019.033 1.185.87 2.368 1.737 3.503 2.672.53.437 1.106.782 1.674 1.17q.452.308.896.628a2.7 2.7 0 0 0 .849.527.178.178 0 0 0 .198-.258m4.181-68.481a29.3 29.3 0 0 0-2.216 6.204.055.055 0 0 0 .106.03c.73-2.058 1.407-4.136 2.256-6.149.041-.098-.1-.185-.146-.085m1.325-.054c-.659 1.823-1.306 3.65-1.97 5.473-.322.887-.503 1.83-.805 2.73a16 16 0 0 1-.575 1.566c-.144.318-.342.52-.264.873a.083.083 0 0 0 .138.036c.302-.257.259-.67.353-1.039.121-.475.286-.944.442-1.41.303-.904.73-1.767 1.008-2.675.569-1.848 1.154-3.692 1.726-5.54.011-.034-.04-.047-.053-.014m1.172 1.854a46 46 0 0 0-2.329 6.197c-.334 1.07-.655 2.145-1.038 3.2-.332.916-1.046 2.146-.926 3.142a.122.122 0 0 0 .225.06 3.6 3.6 0 0 0 .492-1.391c.132-.546.231-1.098.362-1.645a31 31 0 0 1 .996-3.211c.758-2.11 1.588-4.192 2.288-6.322.013-.04-.051-.069-.07-.03m.305 4.439a62 62 0 0 0-2.383 5.614q-.536 1.48-.996 2.987-.213.703-.408 1.41a2.3 2.3 0 0 0-.191 1.309.107.107 0 0 0 .177.047 2.15 2.15 0 0 0 .417-1.136q.183-.765.386-1.525.377-1.418.821-2.818a61 61 0 0 1 2.194-5.877c.006-.012-.012-.023-.018-.01m-4.921 61.263a11 11 0 0 0-.744-.489c-.502-.307-.98-.652-1.477-.968a37 37 0 0 1-3.035-2.05c-.019-.014-.044.01-.027.028a13.4 13.4 0 0 0 2.83 2.058 11.4 11.4 0 0 1 1.528 1.02 8 8 0 0 1 .637.63 1.4 1.4 0 0 0 .611.502.135.135 0 0 0 .164-.163 1.08 1.08 0 0 0-.487-.568m3.305.336a4.7 4.7 0 0 0-.917-.792c-.34-.25-.677-.505-1.02-.752-.683-.491-1.384-.96-2.079-1.435-.017-.012-.04.016-.023.03.656.535 1.306 1.077 1.973 1.597q.493.379.991.752a4.8 4.8 0 0 0 1.036.667c.041.017.06-.04.039-.067m50.427 2.192-.646-.467c-.458-.335-.905-.684-1.36-1.025a44 44 0 0 0-2.764-1.898c-.025-.016-.047.024-.023.04.888.627 1.766 1.267 2.643 1.909.453.331.909.662 1.34 1.022q.308.256.608.518a2.5 2.5 0 0 0 .613.474c.069.029.17-.038.116-.116a2.1 2.1 0 0 0-.527-.457m-.325-2.867c-.01-.008-.021.01-.01.019.545.403 1.091.803 1.65 1.188.013.01.025-.012.013-.022a62 62 0 0 0-1.653-1.185"/><path fill="currentColor" d="M498.69 158.091c-2.588-3.057-5.153-6.13-7.822-9.115-2.664-2.979-5.446-5.844-8.262-8.678a188 188 0 0 0-15.346-14.257 70 70 0 0 0-17.699-10.681c-6.578-2.636-13.569-4.26-19.576-8.163-3.076-1.999-5.843-4.403-8.738-6.645a33.5 33.5 0 0 0-7.045-4.621 75 75 0 0 0-9.33-8.175 31.4 31.4 0 0 0-6.07-3.575 21.4 21.4 0 0 0-7.329-1.686c-2.685-.15-5.386.043-8.07.15l-8.166.328-33.09 1.328-16.291.655a134 134 0 0 0-14.583 1.188 45.36 45.36 0 0 0-26.018 12.431 11.2 11.2 0 0 0-1.827 2.154c-5.948.26-11.898.518-17.834.93a36.7 36.7 0 0 0-11.045 2.17 33.4 33.4 0 0 0-8.203 4.827 54 54 0 0 0-7.793 7.675 91 91 0 0 0-3.474 4.335c-.823 1.1-1.56 2.238-2.29 3.387-2.603-.692-5.2-1.404-7.786-2.153q-5.845-1.693-11.665-3.476l-5.756-1.754q-1.469-.446-2.942-.876c-.087-.025-.176-.045-.263-.07a19.2 19.2 0 0 0-6.614-3.13c-3.463-.837-7.118-.593-10.65-.58l-11.335.043-17.493.067c-.854-1.09-1.681-2.19-2.577-3.253-.96-1.137-1.96-2.24-2.946-3.354q-2.958-3.34-5.946-6.655c-3.313-3.695-6.587-8.031-11.103-10.33a13.26 13.26 0 0 0-12.732.434 17.54 17.54 0 0 0-8.12 10.6 24.8 24.8 0 0 0-.741 8.623 33 33 0 0 0 .687 4.476c.154.698.324 1.393.531 2.076a11 11 0 0 0 .502 1.488c-1.47.756-2.917 1.56-4.363 2.359-6.395 3.532-12.858 6.964-19.184 10.617-5.054 2.918-9.936 6.734-11.223 12.744a19.13 19.13 0 0 0 4.051 15.78c3.738 4.62 9.415 7.42 15.124 8.71a42.7 42.7 0 0 0 9.951.962 56 56 0 0 0 10.895-1.127c1.65-.352 3.302-.685 4.947-1.06a.8.8 0 0 0 .3.02 1.7 1.7 0 0 0 .429-.131 1.7 1.7 0 0 0 .33-.192c5.048 1.78 11.376 1.405 16.389 1.964 1.067.12 2.132.267 3.195.42 4.935 5.076 9.608 10.348 14.185 15.756a159 159 0 0 0 15.51 16.302c11.004 9.798 23.359 17.892 35.365 26.378 6.06 4.283 12.05 8.676 17.734 13.453 5.61 4.715 10.896 9.793 16.255 14.786a196 196 0 0 0 16.704 14.278 86 86 0 0 0 9.188 5.986 98 98 0 0 0 3.423 1.814c4.342 4.31 7.607 9.383 10.677 14.645 3.1 5.316 6.006 10.808 10.017 15.516 4.599 5.399 10.59 8.72 17.32 10.778a91.4 91.4 0 0 0 24.154 3.852c4.193.113 8.386-.125 12.578-.01a73.4 73.4 0 0 1 12.588 1.615c8.294 1.682 16.55 3.519 24.893 4.953a214 214 0 0 0 25.259 2.986 250 250 0 0 0 25.762-.41c16.173-.833 32.618-1.58 48.296 3.241 1.853.57 3.689 1.21 5.499 1.904.234.09.385-.284.17-.402-13.949-7.632-30.738-7.82-46.21-7.238-8.617.325-17.222.988-25.85.972a178 178 0 0 1-25.46-2.014c-8.315-1.217-16.56-2.854-24.782-4.582-4.112-.865-8.215-1.814-12.371-2.447a76 76 0 0 0-12.409-.739c-4.185.051-8.355.11-12.532-.212a90.5 90.5 0 0 1-12.46-1.84c-7.21-1.582-14.583-3.848-20.111-8.969-9.012-8.35-12.158-21.109-20.98-29.585 1.138.557 2.275 1.115 3.407 1.685 7.254 3.66 13.848 8.45 20.99 12.313.583.315 1.17.622 1.756.93a67.6 67.6 0 0 0 15.667 10.106.097.097 0 0 0 .098-.168c-4.023-2.75-8.113-5.405-12.176-8.1a136 136 0 0 0 16.207 6.81q2.735.937 5.51 1.735c.128.037.174-.15.054-.196a185 185 0 0 1-21.96-9.822c-7.017-3.762-13.475-8.404-20.328-12.433-3.544-2.084-7.251-3.847-10.913-5.709a91 91 0 0 1-9.868-5.8 152.5 152.5 0 0 1-17.004-13.769c-5.41-4.942-10.661-10.058-16.156-14.908-5.492-4.847-11.286-9.326-17.217-13.62-11.954-8.652-24.44-16.614-35.765-26.106a144 144 0 0 1-12.585-11.973c-.077-.538-.193-1.07-.276-1.608a21 21 0 0 1-.227-2.378c-.01-.245.007-.49.004-.734.658 1.885 1.323 3.783 2.096 5.624a1.3 1.3 0 0 0 .26.619l.076.18c.007.018.037.006.03-.012l-.044-.122a.3.3 0 0 0 .338-.01.051.051 0 0 0-.026-.095c-.5-.038-.435-3.785-.44-4.264-.005-.465.01-.928.023-1.392a67 67 0 0 0 1.464 4.013q.048.896.148 1.788a4 4 0 0 0 .35 1.654.06.06 0 0 0 .107-.014 4.7 4.7 0 0 0-.095-1.64c-.025-.235-.037-.471-.057-.707a47 47 0 0 0 1.058 2.316c.007.014.029.001.022-.013a109 109 0 0 1-1.097-2.519c-.025-.315-.058-.629-.076-.944a35 35 0 0 1-.021-3.746 35.3 35.3 0 0 1 1.212-7.586.043.043 0 0 0-.083-.023 32.4 32.4 0 0 0-1.477 11.236 67 67 0 0 1-1.454-3.897 46 46 0 0 1 .14-2.63 42.5 42.5 0 0 1 1.52-8.266.023.023 0 0 0-.044-.013 39.4 39.4 0 0 0-1.912 9.45 41 41 0 0 0-.059 4.81c.008.156-.002.826.074 1.44-.667-1.837-1.375-3.659-2.031-5.5a28 28 0 0 1 .2-3.417 69 69 0 0 1 1.908-8.987.027.027 0 0 0-.053-.015 61.5 61.5 0 0 0-2.098 9.002q-.174 1.318-.23 2.648-.644-1.852-1.26-3.713c.027-.338.046-.677.083-1.015a39 39 0 0 1 1.562-7.502c1.86.33 3.722.656 5.58 1.004 2.79.525 5.575 1.091 8.337 1.756 2.78.669 5.584 1.059 8.387 1.594.006.001.011-.004.017-.003l.01.01a1.8 1.8 0 0 0 .703.387 4.2 4.2 0 0 0 1.617.204 2 2 0 0 0 .304-.051c.725.255 1.448.514 2.182.744 2.72.853 5.478 1.567 8.242 2.26-.13.06-.258.136-.395.216a11 11 0 0 0-1.177.715 15.7 15.7 0 0 0-1.913 1.75 15 15 0 0 0-2.95 4.387c-.33.77-.607 1.559-.9 2.343a19 19 0 0 0-.784 2.28c-.301 1.278-.402 2.636.844 3.423a.586.586 0 0 0 .796-.208c.282-.56.596-1.071.829-1.657.206-.522.4-1.047.624-1.563a17 17 0 0 1 1.52-3.096 33 33 0 0 1 2.238-2.855c.757-.863 1.617-1.636 2.358-2.51.071-.085-.025-.242-.128-.167a22.4 22.4 0 0 0-4.634 5.17c-.716 1.007-1.56 1.913-2.26 2.929-.348.504-.703 1.016-1.006 1.55a4.6 4.6 0 0 0-.384.896 2.2 2.2 0 0 1-.302-.965 4.8 4.8 0 0 1 .509-2.008 16 16 0 0 1 2.46-3.799c.921-1.113 1.738-2.303 2.721-3.366.514-.556 1.072-1.084 1.559-1.662.381-.452 1.088-.979 1.189-1.581.001-.009-.005-.013-.004-.02l1.353.337q2.484.618 4.966 1.242l-.056.08c-.418.629-.853 1.245-1.28 1.867-.872 1.27-1.699 2.571-2.592 3.826a34 34 0 0 1-3.018 3.615c-.515.547-1.027 1.112-1.592 1.609-.542.476-1.275.619-1.54 1.334a.26.26 0 0 0 .317.317c.728-.21.919-.953 1.398-1.477.535-.585 1.117-1.13 1.664-1.704 1.066-1.12 2.105-2.265 3.164-3.392a37 37 0 0 0 2.933-3.424c.47-.64.91-1.3 1.343-1.967.096-.15.185-.291.264-.432l5.972 1.493c7.949 2.006 15.938 3.921 23.777 6.333a179 179 0 0 1 22.604 9.01c2.19 1.015 4.374 2.045 6.563 3.065.505.336 1.015.663 1.511 1.013 1.95 1.378 3.815 2.871 5.736 4.29 2.002 1.478 4.046 2.896 6.171 4.192a33 33 0 0 0 3.346 1.803c1.181.545 2.419.906 3.626 1.38.142.055.225-.166.101-.24-1.154-.7-2.218-1.549-3.356-2.277-1.067-.684-2.149-1.34-3.228-2.004q-3.173-1.949-6.186-4.134-.981-.705-1.967-1.403c.141.062.28.13.421.191 4.343 1.908 8.78 3.578 13.22 5.24.173.064.281-.207.125-.295-3.68-2.068-7.352-4.18-11.141-6.044-3.723-1.832-7.5-3.554-11.262-5.303a208 208 0 0 0-22.254-9.3c-15.188-5.023-30.967-7.975-46.401-12.098a111 111 0 0 1-11.195-3.526 54 54 0 0 1-5.31-2.478 28 28 0 0 1-5.108-3.124c-.042-.034-.101.023-.06.06 1.301 1.143 2.598 2.287 3.976 3.338a31 31 0 0 0 4.386 2.643c.577.304 1.164.583 1.752.862a28.5 28.5 0 0 0-3.674-1.329c-2.357-.656-4.78-1.127-7.179-1.603-4.917-.974-9.865-1.796-14.802-2.662-5.021-.88-10.036-1.841-15.08-2.579-.18-.026-.359-.048-.537-.074-.087-.065-.169-.136-.256-.201a.464.464 0 0 0-.647.077c-2.051-.274-4.109-.489-6.177-.585-2.438-.114-4.888-.103-7.321-.319a21.7 21.7 0 0 1-7.08-1.755 10.96 10.96 0 0 1-5.125-4.266c-.017-.03-.056-.004-.044.025a11.27 11.27 0 0 0 5.807 5.927 2 2 0 0 1-.314.186 5 5 0 0 1-.85.26c-6.235.568-12.906 1.347-19.26.77l-.002-.008c-3.471-2.463-7.136-4.67-10.719-6.967-.036-.023-.07.035-.034.059 3.515 2.318 6.983 4.746 10.6 6.903a39 39 0 0 1-3.127-.417v-.002c-3.626-1.996-7.236-3.989-10.706-6.252-.013-.009-.026.013-.012.022a81.6 81.6 0 0 0 10.544 6.2 25.96 25.96 0 0 1-12.585-5.75 18.4 18.4 0 0 1-6.607-14.2 14.3 14.3 0 0 1 .472-3.299 23 23 0 0 0 .348 3.352 17 17 0 0 0 1.321 4.737 3.82 3.82 0 0 0 2.987 2.355 4.2 4.2 0 0 0 2.556-.792 7.3 7.3 0 0 1 1.084-.713c.564-.252 1.125-.514 1.694-.756.774-.33 1.643-.352 2.151-1.103a2.57 2.57 0 0 0 .197-2.152c-.23-.846-.653-1.634-.932-2.465a18 18 0 0 1-.653-2.565 17.4 17.4 0 0 1 2.184-11.948.47.47 0 0 0 .003-.499c1.186-.65 2.376-1.293 3.557-1.946l9.464-5.227a104 104 0 0 1 11.274-5.853 13.7 13.7 0 0 0-1.688 2.016 13.2 13.2 0 0 0-2.092 4.582 23.4 23.4 0 0 0-.432 5.978c.053 2.186.322 4.358.58 6.527.166 1.395.495 3.568 2.393 3.246a.48.48 0 0 0 .345-.344c.306-1.525-.225-3.015-.394-4.53a21.5 21.5 0 0 1 .03-4.851 36 36 0 0 1 .954-4.885 23 23 0 0 1 .65-2.242 7.1 7.1 0 0 0 .666-2.27.145.145 0 0 0-.268-.072 6.1 6.1 0 0 0-.694 2.126c-.16.76-.41 1.503-.614 2.252a37 37 0 0 0-1.015 4.789 22 22 0 0 0-.18 4.518c.054.76.15 1.513.17 2.277a12 12 0 0 1-.205 2.276c-.712-.14-1.187-1.255-1.35-1.83a25 25 0 0 1-.691-3.583 19.6 19.6 0 0 1 .308-7.363 20.2 20.2 0 0 1 2.155-5.232 12.3 12.3 0 0 1 1.7-2.254 17 17 0 0 0 1.91-1.894c.01-.016.006-.032.013-.048a25 25 0 0 1 5.131-1.097c3.472-.35 6.987-.248 10.471-.261l10.93-.042 21.59-.083c7.166-.027 14.34-.157 21.505-.072a23 23 0 0 1 4.998.495 20 20 0 0 1 2.598.815.5.5 0 0 0-.178.442 2.23 2.23 0 0 1-.268 1.15 15 15 0 0 0-.538 1.614c-.295 1.136-.537 2.295-.802 3.44-.511 2.21-1.183 4.378-1.776 6.566q-.907 3.348-1.685 6.728a36 36 0 0 0-.9 5.154 5 5 0 0 0 .306 2.554c.256.548.883 1.542 1.606 1.345a.29.29 0 0 0 .203-.267c.034-.309-.166-.51-.318-.762a9 9 0 0 1-.53-.989 7.4 7.4 0 0 1-.64-2.35 17.4 17.4 0 0 1 .932-5.453 92 92 0 0 1 3.762-12.669c.478-1.177 1.054-2.326 1.473-3.525a4.5 4.5 0 0 0 .482-2.517c.115.05.232.096.346.148a37.3 37.3 0 0 1 7.477 4.791q1.763 1.373 3.472 2.81a.14.14 0 0 0 .197-.198c-1.55-1.672-3.154-3.393-4.877-4.967 1.373.527 2.75 1.046 4.138 1.534a241 241 0 0 0 10.237 3.35c6.91 2.085 13.902 3.918 20.929 5.567a371 371 0 0 0 42.424 7.377q5.984.687 11.989 1.04c2.043.118 4.09.236 6.135.294 2.058.058 4.088-.06 6.142-.174.237-.013.324-.4.06-.44-1.726-.264-3.44-.595-5.179-.77-1.79-.18-3.58-.343-5.37-.524a670 670 0 0 1-6.411-.689q.518-.095 1.032-.183 2.709-.457 5.442-.748 2.603-.278 5.22-.438a49 49 0 0 0 5.26-.64.085.085 0 0 0 0-.164 23.8 23.8 0 0 0-5.26-.324q-2.75.158-5.48.504-2.605.332-5.188.804a26 26 0 0 0-3.76.89q-.787-.088-1.575-.173-7.18-.764-14.322-1.823l-.196-.22c-.018-.02-.047.01-.03.03l.153.179q-2.05-.303-4.099-.625c-.952-1.026-1.95-2.015-2.934-2.999q-2.306-2.305-4.707-4.51c-.008-.007-.02.005-.012.013q2.325 2.282 4.598 4.618c.909.932 1.803 1.883 2.709 2.823-.823-.132-1.647-.256-2.47-.393-.66-.11-1.316-.238-1.975-.354-.889-.944-1.818-1.855-2.73-2.77-1.196-1.201-2.407-2.387-3.615-3.576a.01.01 0 0 0-.015.015c1.178 1.22 2.352 2.442 3.541 3.65.87.883 1.736 1.781 2.63 2.647-1.323-.233-2.648-.462-3.969-.711-.299-.285-.603-.565-.9-.848q-.908-.868-1.82-1.73-1.823-1.729-3.665-3.436c-.01-.01-.025.005-.015.015q1.79 1.76 3.601 3.5.88.845 1.762 1.687c.263.25.524.508.788.763q-2.369-.45-4.733-.923c-.925-.749-1.855-1.492-2.754-2.274q-1.954-1.696-3.81-3.505a.01.01 0 0 0-.014.015q1.826 1.887 3.793 3.623c.804.706 1.62 1.41 2.464 2.076-1.63-.33-3.263-.648-4.89-.998-.671-.512-1.35-1.013-2.007-1.545a34 34 0 0 1-2.31-2.049.017.017 0 0 0-.024.024 22 22 0 0 0 4.043 3.505 384 384 0 0 1-11.006-2.53c.026.005.055.01.073-.013a6.6 6.6 0 0 1 2.413-1.883 6 6 0 0 0 1.052-.413 3.1 3.1 0 0 0 .86-1.003 15 15 0 0 0 1.073-2.952 29 29 0 0 1 1.184-2.968 32 32 0 0 1 3.167-5.317 38.6 38.6 0 0 1 3.735-4.507c.228-.109.447-.237.679-.34a32.3 32.3 0 0 1 10.348-2.476c4-.348 8.027-.436 12.037-.62 4.097-.187 8.193-.391 12.29-.589l24.58-1.186c4.599-.222 9.185-.496 13.776-.85a299 299 0 0 0 13.91-1.403.135.135 0 0 0 0-.27c-8.375-.234-16.749-.111-25.12.291l-14.605.702c-1.152-.8-2.412-1.465-3.618-2.179-1.22-.722-2.45-1.43-3.675-2.142a.013.013 0 0 0-.012.022c1.212.736 2.42 1.476 3.639 2.202 1.183.705 2.35 1.478 3.58 2.101l-3.669.177c-.383-.232-.772-.454-1.155-.678l-1.823-1.07q-1.705-.998-3.415-1.985a48 48 0 0 1 4.669-3.023 44 44 0 0 1 13.346-4.616 103 103 0 0 1 14.083-1.493c5.199-.262 10.402-.434 15.602-.642l32.246-1.291c5.388-.216 10.775-.441 16.163-.647a31.2 31.2 0 0 1 7.763.372 21 21 0 0 1 6.329 2.615 75 75 0 0 1 11.227 8.713 129 129 0 0 1 10.099 10.215c.772.865 1.53 1.744 2.3 2.61.116.13.33-.038.24-.184a68.6 68.6 0 0 0-7.879-10.267c1.047.75 2.082 1.518 3.075 2.356 2.455 2.071 4.829 4.248 7.367 6.219a39 39 0 0 0 8.691 5.116c3.323 1.409 6.76 2.512 10.152 3.735a67.1 67.1 0 0 1 18.018 9.936 154 154 0 0 1 15.322 13.874c3.089 3.093 6.146 6.217 9.282 9.261 3.186 3.092 6.485 6.059 9.705 9.115a.174.174 0 0 0 .245-.246m-345.365 13.522c.027-.238.052-.477.086-.715l.026-.16c.147.505.302 1.006.492 1.495-.199-.209-.403-.412-.604-.62m3.187 3.45c-.574-.637-1.146-1.276-1.73-1.905a14.8 14.8 0 0 1 .695-3.031c.208.681.41 1.365.625 2.045q.273.864.553 1.725a10 10 0 0 0-.143 1.166m.208.229q.084-.369.154-.742c.162.488.325.976.498 1.46-.214-.243-.436-.478-.652-.718m.756.838q-.263-.933-.552-1.857c.12-.686.227-1.375.386-2.05.119-.504.256-1.005.4-1.503.259 1.056.545 2.108.83 3.16a17.7 17.7 0 0 0-.435 2.98c-.21-.242-.417-.489-.629-.73m.889 1.032c.119-.889.207-1.782.336-2.67.44 1.582.906 3.158 1.423 4.714q-.876-1.025-1.76-2.044m3.632 4.219c-.536-.623-1.074-1.243-1.609-1.868q-.817-2.742-1.61-5.49c.027-.16.048-.319.08-.477a30 30 0 0 1 .858-3.256q.479 1.693.99 3.375c-.045.192-.099.381-.138.575a18 18 0 0 0-.321 2.645 5.5 5.5 0 0 0 .23 2.643.06.06 0 0 0 .108-.014 9.7 9.7 0 0 0 .08-2.442 22 22 0 0 1 .246-2.738q.474 1.555.975 3.103c.09.278.185.558.276.837a22 22 0 0 0-.165 3.107m.352.408c.055-.844.095-1.689.137-2.533.48 1.458.977 2.914 1.539 4.34l.018.16q-.848-.981-1.694-1.967m1.63-.345c-.01.547-.03 1.152.003 1.75-.478-1.44-.98-2.873-1.476-4.308.04-.723.088-1.445.177-2.166a44 44 0 0 1 .407-2.608q.57 2.07 1.177 4.13a25 25 0 0 0-.289 3.202m1.682 4.191c-.398-.452-.788-.913-1.18-1.37-.021-.936-.175-1.889-.16-2.821.015-.818.082-1.635.17-2.45.139.466.273.933.416 1.398.48 1.565.955 3.148 1.477 4.712a9 9 0 0 0 .178 1.214.106.106 0 0 0 .207-.028v-.076c.124.35.245.7.377 1.046-.493-.543-1-1.073-1.485-1.625m2.372-2.13a23 23 0 0 0-.005 1.662 14 14 0 0 0 .486 3.556c-.393-.423-.796-.835-1.185-1.262-.173-.585-.372-1.164-.56-1.745-.01-1.076-.122-2.16-.12-3.236 0-.924.05-1.847.12-2.768q.609 1.904 1.264 3.793m.313-12.464a35.7 35.7 0 0 0-1.75 7.402c-.017.144-.024.29-.04.434-.254-.78-.511-1.558-.755-2.341-.004-.013-.025-.008-.02.005.247.82.506 1.636.764 2.453a37 37 0 0 0-.214 3.37c-.01.649-.024 1.321 0 1.99-.444-1.33-.893-2.658-1.311-3.994-.17-.541-.331-1.086-.497-1.63.045-.376.081-.755.139-1.13.357-2.343.922-4.654 1.495-6.953.73.128 1.46.265 2.19.394m-6.238-1.102q1.998.348 3.995.698a58 58 0 0 0-1.788 7.236l-.016.122q-.602-2.004-1.185-4.013c.222-1.182.49-2.354.821-3.514a.031.031 0 0 0-.06-.017 41 41 0 0 0-.89 3.1c-.103-.358-.218-.711-.32-1.069a.013.013 0 0 0-.024.007c.104.387.215.772.32 1.158a34 34 0 0 0-.606 3.146q-.083.596-.156 1.2c-.067-.195-.138-.39-.203-.586-.364-1.099-.696-2.208-1.046-3.311a20.3 20.3 0 0 1 1.158-4.157m-.118-.02a19.3 19.3 0 0 0-1.238 3.549c-.336-1.07-.69-2.133-1.013-3.206-.003-.01-.007.002-.015.004.075-.235.146-.47.227-.703zm-3.13-.547 1.025.18a25 25 0 0 0-1.26 3.93c-.287-.998-.575-1.995-.852-2.995.124-.416.267-.825.41-1.235zm-.757-.134c-.14.329-.278.658-.403.992-.103-.373-.214-.745-.315-1.119zm-.784-.139c.1.433.209.866.314 1.298-.21.578-.4 1.164-.56 1.76-.129.471-.252.962-.356 1.457q-.235-.741-.474-1.481c-.232-.716-.476-1.428-.715-2.14.136-.385.295-.76.463-1.129zm-1.399-.248q-.256.441-.474.898c-.117-.347-.226-.698-.349-1.044zm-2.086-.232q.006-.115.15-.105c-.032.03.012.088.048.062.021-.016.023-.036.031-.054l.976.173c.112.39.238.774.355 1.162a11 11 0 0 0-.635 1.712 11 11 0 0 0-.261 1.276c-.117-.125-.228-.256-.345-.38a18 18 0 0 0-.576-2.254l-.035-.11c.026-.147.046-.295.074-.443q.054-.284.114-.568l.061-.283zm-.074-.15a1.8 1.8 0 0 0-.12.396q-.117.42-.221.842a20 20 0 0 0-.478-1.384zm-.945-.168c.123.661.3 1.313.483 1.962q-.125.542-.227 1.09c-.53-.545-1.08-1.07-1.622-1.601.027-.167.05-.334.086-.499a7.4 7.4 0 0 1 .344-1.112zm-1.178-.202a4.9 4.9 0 0 0-.56 1.286c-.242-.234-.473-.48-.72-.71-.365-.341-.745-.66-1.118-.987.8.13 1.599.272 2.398.411M92.54 138.134a18.6 18.6 0 0 0 .412 4.523 17 17 0 0 0 .61 2.12c.27.757.658 1.477.877 2.251.57 2.017-1.825 2.818-3.317 3.385-.502.19-1.034.254-1.552.395a5.5 5.5 0 0 1-1.274.22 2.4 2.4 0 0 1-1.869-.702 6.83 6.83 0 0 1-1.55-3.39 26 26 0 0 1-.807-5.497 12 12 0 0 1 .284-2.831q.255-.45.55-.88a21.1 21.1 0 0 1 6.293-5.649 74 74 0 0 1 3.444-2.039 18.9 18.9 0 0 0-2.101 8.094m30.356-24.788c.007-.064.022-.127.025-.191a8 8 0 0 0-.024-1.098.015.015 0 0 0-.03 0c-.029.366-.077.73-.134 1.093-.012.082-.014.165-.024.248a24 24 0 0 0-1.852.584l.025-.131c.088-.45.194-.896.305-1.34a20 20 0 0 1 .852-2.604c.007-.018-.023-.03-.031-.013a20.5 20.5 0 0 0-1.127 2.786q-.222.712-.383 1.438-.728.278-1.441.588c.043-.143.065-.296.099-.45q.114-.518.238-1.035.255-1.072.567-2.127a39 39 0 0 1 1.492-4.208c.004-.007-.007-.014-.01-.006a38 38 0 0 0-1.657 4.008q-.353 1.043-.646 2.105-.138.513-.26 1.03a2.4 2.4 0 0 0-.132.823q-.704.313-1.4.646c-.072-.295-.169-.587-.24-.869a63 63 0 0 1-.465-1.97 32 32 0 0 1-.587-3.636 25.2 25.2 0 0 1 .212-7.25 16.1 16.1 0 0 1 6.75-10.602 11.56 11.56 0 0 1 11.056-1.303 10 10 0 0 0-2.452-.08 11.9 11.9 0 0 0-6.404 2.6 10 10 0 0 0-2.25 2.597 5.7 5.7 0 0 0-.747 1.855 3.04 3.04 0 0 0 .351 2.003 40 40 0 0 0 1.98 3.688c.703 1.214 1.278 2.502 1.979 3.72.415.721.859 1.426 1.34 2.105.17.239.349.47.523.706a5 5 0 0 1 .442.623c.09.182.118.394.218.574a6.05 6.05 0 0 0 1.754 2.014 34.8 34.8 0 0 0-7.912 1.079m30.481-1.203c-5.546.021-11.103-.03-16.653.026a24 24 0 0 0 4.628-2 13.7 13.7 0 0 1 4.137-1.137c1.337-.144 2.67.006 3.995-.24a.15.15 0 0 0 .035-.272 6.1 6.1 0 0 0-3.681-.502 14.4 14.4 0 0 0-3.863.92 19 19 0 0 0-3.345 1.872c-1.295.841-2.642 1.599-4.227 1.076-.08-.026-.121.06-.092.12a28 28 0 0 1-1.157-.159 8 8 0 0 0-1.053-.103 10 10 0 0 0-1.834-1.666 10.4 10.4 0 0 1-1.316-1.001 14 14 0 0 1-1.257-1.7 23.9 23.9 0 0 1-3.232-6.97c-.174-.565-.33-1.137-.511-1.7a4.04 4.04 0 0 1-.44-1.97 6.65 6.65 0 0 1 1.81-2.785 10.4 10.4 0 0 1 5.51-2.86 10.8 10.8 0 0 1 3.502-.083 15 15 0 0 1 1.769.415 4.6 4.6 0 0 0 1.13.302c2.856 2.136 5.187 5.06 7.525 7.667 2.106 2.348 4.207 4.701 6.327 7.037 1.06 1.167 2.103 2.351 3.188 3.494a74 74 0 0 0 2.215 2.207zm95.377-1.852a28.6 28.6 0 0 0-3.332 5.215 31 31 0 0 0-1.204 2.748c-.385 1.01-.63 2.077-1.043 3.073a5.7 5.7 0 0 1-.886 1.352 6 6 0 0 1-.946 1.215 17.5 17.5 0 0 0-1.867 1.494 29.4 29.4 0 0 1 1.476-6.072 26 26 0 0 1 1.312-2.973c.502-.97 1.143-1.854 1.654-2.818.032-.06-.052-.135-.1-.077a15 15 0 0 0-1.678 2.823 30 30 0 0 0-1.28 2.9 26.6 26.6 0 0 0-1.594 6.467.07.07 0 0 0 .046.068c-1.75-.432-3.504-.856-5.248-1.313a64 64 0 0 0 1.89-2.244c1.019-1.282 2.036-2.566 3.094-3.817a61.4 61.4 0 0 1 6.63-6.829 34 34 0 0 1 6.356-4.416 21.8 21.8 0 0 0-3.28 3.204m36.202-9.63c.477-.31.945-.64 1.392-.992l.51-.399.001.004a21 21 0 0 0 2.079 1.012l.414.176q-2.198.102-4.396.199m5.59-.254-.788.036c-.271-.109-.544-.216-.81-.33-.679-.294-1.352-.602-2.033-.887q.925-.732 1.857-1.454 1.162.788 2.327 1.572c.474.317.948.646 1.429.968Zm3.469-1.984 1.814 1.083c.33.197.658.403.99.6l-3.915.188c-.555-.357-1.12-.7-1.67-1.048q-1.203-.762-2.411-1.514c.159-.123.314-.25.473-.371q.656-.499 1.324-.982 1.696 1.024 3.395 2.044"/><path fill="currentColor" d="M175.135 190.568a.006.006 0 0 0-.012.004 4.2 4.2 0 0 0 1.092 1.856.006.006 0 0 0 .008-.009 4.2 4.2 0 0 1-1.088-1.85m24.764 15.448c-.01-.019-.04-.002-.03.018 1.341 2.494 2.63 5.03 4.097 7.453a.019.019 0 0 0 .033-.019c-1.261-2.536-2.712-4.983-4.1-7.452m5.275 4.228q-1.883-3.92-3.727-7.86c-.014-.029-.057-.003-.044.026a407 407 0 0 0 3.672 7.892c1.247 2.6 2.412 5.3 3.859 7.796.018.031.06.004.047-.028-1.137-2.658-2.554-5.22-3.807-7.826m3.799 2.252q-1.956-3.975-3.931-7.941c-.008-.018-.034-.003-.026.015q1.938 3.986 3.884 7.969c1.297 2.646 2.503 5.364 3.923 7.946.015.027.052.003.04-.024-1.175-2.703-2.589-5.32-3.89-7.965m5.347 5.72q-1.458-2.707-2.74-5.502c-.006-.013-.024-.002-.018.01a73.5 73.5 0 0 0 5.778 10.847.019.019 0 0 0 .033-.02c-1.007-1.785-2.08-3.529-3.054-5.335m3.078 2.369c-.011-.015-.037 0-.026.015a34.3 34.3 0 0 0 4.169 5.223c.011.011.029-.006.018-.018a46 46 0 0 1-4.161-5.22m6.829 5.354c-.008-.018-.033-.003-.026.014a8.7 8.7 0 0 0 2.725 3.524c.015.012.035-.014.02-.026a10.1 10.1 0 0 1-2.72-3.513M299.608 96.57q-1.292-.871-2.59-1.733c-.007-.004-.013.006-.006.011l2.524 1.745c.84.575 1.664 1.2 2.544 1.713.016.01.036-.014.02-.026-.79-.62-1.66-1.15-2.492-1.71m1.249-2.054c-.016-.01-.031.016-.015.026l1.488.9a.01.01 0 0 0 .01-.018zm-34.96 29.252c-.015-.016-.038.008-.024.024 2.114 2.361 4.18 4.792 6.4 7.055.017.017.042-.009.026-.027-2.038-2.428-4.257-4.719-6.402-7.052m6.024 2.267a.008.008 0 0 0-.012.012c1.94 1.944 3.74 4.004 5.522 6.093.01.012.028-.006.018-.018a66 66 0 0 0-5.528-6.087m6.269 2.027a.01.01 0 0 0-.015.015c1.286 1.295 2.564 2.599 3.891 3.852a.015.015 0 0 0 .021-.02c-1.269-1.313-2.587-2.576-3.897-3.847m5.885 2.413c-.016-.014-.04.01-.024.024.673.617 1.338 1.245 2.03 1.841.013.011.03-.006.018-.017-.658-.633-1.346-1.236-2.024-1.848m4.458-.051c-.012-.007-.022.01-.01.018a56 56 0 0 0 2.003 1.328c.017.01.03-.015.015-.026-.657-.46-1.332-.89-2.008-1.32m85.732 39.463c-3.733-3.404-7.572-6.693-11.417-9.969-.035-.03-.086.02-.051.051 3.772 3.361 7.556 6.715 11.439 9.948.02.017.05-.011.03-.03m33.349 87.963c-1.901-1.793-3.884-3.495-5.86-5.207-.022-.02-.054.013-.032.033 1.931 1.76 3.855 3.53 5.86 5.208.022.019.054-.012.032-.033m5.197 1.804c-2.408-2.262-4.863-4.47-7.224-6.783a.01.01 0 0 0-.015.014c2.316 2.35 4.682 4.676 7.212 6.796.018.015.045-.01.027-.027m4.254.54c-1.88-1.87-3.896-3.61-5.876-5.374-.008-.007-.02.005-.012.012 1.925 1.823 3.83 3.683 5.852 5.398.025.02.06-.013.036-.036m4.572.776c-1.774-1.613-3.662-3.109-5.517-4.626-.01-.009-.026.006-.015.015 1.813 1.566 3.611 3.168 5.505 4.638.019.015.046-.01.027-.027m5.892.55c-1.624-1.218-3.31-2.345-4.996-3.476-.027-.018-.051.025-.025.044 1.643 1.191 3.284 2.384 4.99 3.487.034.023.063-.03.031-.055m6.91-146.964c-.012-.022-.044-.003-.033.019 1.322 2.568 2.646 5.139 4.115 7.627a.036.036 0 0 0 .062-.036c-1.283-2.589-2.714-5.101-4.144-7.61m4.914 2.064c-.011-.026-.057-.007-.046.02 1.524 3.72 3.05 7.442 4.722 11.1.013.027.062.007.05-.022-1.477-3.74-3.101-7.42-4.726-11.098m4.004.326c-.008-.02-.04-.011-.032.01a113 113 0 0 0 7.586 16.656c.016.029.059.003.044-.025a177 177 0 0 1-7.598-16.64m4.917 2.217c-.007-.014-.029-.002-.022.013 3.059 6.18 6.11 12.376 9.353 18.462.012.022.044.002.033-.02-2.992-6.212-6.186-12.336-9.364-18.455m10.807 11.935q-2.452-5.23-5.005-10.41c-.008-.018-.034-.003-.025.014q2.48 5.146 4.896 10.322c1.611 3.445 3.1 6.96 4.787 10.367.01.02.043.006.035-.015-1.415-3.482-3.092-6.875-4.688-10.277m5.313 4.337q-2.958-6.17-5.94-12.329c-.01-.02-.04-.002-.03.017q2.924 6.19 5.876 12.367c1.964 4.113 3.844 8.282 5.938 12.331.012.025.047.003.036-.021-1.84-4.172-3.909-8.254-5.88-12.365m1.374-5.752c-.01-.02-.039-.002-.03.017 3.417 7.174 6.68 14.417 9.95 21.657.01.023.043.003.033-.019-3.09-7.317-6.466-14.519-9.953-21.655m6.786 6.664c-.019-.044-.092-.025-.074.021a140.4 140.4 0 0 0 8.422 17.922c.013.022.044.003.033-.019-2.925-5.923-5.86-11.81-8.381-17.923m6.807 8.845c-.015-.032-.063-.004-.047.027a87 87 0 0 0 5.858 10.533c.01.016.035.001.025-.015a115 115 0 0 1-5.836-10.545m5.108 3.714c-.008-.018-.033-.003-.026.015a29.1 29.1 0 0 0 4.46 7.175c.016.018.048-.007.034-.026a42.5 42.5 0 0 1-4.468-7.164m6.688 5.684c-.01-.015-.036-.001-.025.015a151 151 0 0 0 2.613 3.665c.01.015.036 0 .025-.015q-1.277-1.855-2.613-3.665m-391.52-25.967c.026-.048-.046-.091-.074-.043-1.218 2.14-2.791 4.224-3.11 6.72a2.9 2.9 0 0 0-.025 1.547 7.5 7.5 0 0 1 .483 2.09 21 21 0 0 0 .599 4.16.082.082 0 0 0 .16-.022 16.6 16.6 0 0 0-.571-3.681 9.7 9.7 0 0 1-.275-1.878c.004-.328.184-.62.198-.934a5 5 0 0 0-.097-.776 7.16 7.16 0 0 1 .961-3.772c.554-1.152 1.156-2.28 1.751-3.41"/><path fill="currentColor" d="M174.918 191.129q-.171-1.682-.212-3.373a48 48 0 0 1 .303-6.74c.004-.035-.056-.043-.061-.009a42 42 0 0 0-.473 6.75q.025 1.688.18 3.372a14 14 0 0 0 .523 3.365.067.067 0 0 0 .13-.018 34 34 0 0 0-.39-3.347m2.144 2.398a41 41 0 0 1-.353-3.126 37 37 0 0 1 .004-5.811c.004-.046-.065-.044-.07 0a35.6 35.6 0 0 0-.184 5.92 20.3 20.3 0 0 0 .9 5.658c.024.065.139.062.13-.017-.089-.883-.29-1.749-.427-2.624m2.105 2.448a35 35 0 0 1-.443-2.502 31 31 0 0 1-.296-5.138.05.05 0 0 0-.101 0 31 31 0 0 0 .184 5.167q.144 1.184.391 2.352a9 9 0 0 0 .658 2.373.063.063 0 0 0 .116-.031 17 17 0 0 0-.509-2.22m1.056-4.577c-.003-.022-.04-.017-.038.005a29.4 29.4 0 0 0 1.732 8.687.04.04 0 0 0 .075-.02c-.63-2.887-1.326-5.748-1.769-8.672m3.251 7.385c-.295-1.168-.607-2.33-.918-3.493a.027.027 0 0 0-.052.015c.267 1.174.533 2.349.817 3.52.283 1.166.522 2.357.91 3.494a.035.035 0 0 0 .068-.018c-.187-1.188-.531-2.354-.825-3.518m2.509 2.682q-.422-1.28-.748-2.589c-.007-.03-.052-.017-.045.012q.303 1.339.702 2.652a15.3 15.3 0 0 0 .927 2.487.024.024 0 0 0 .043-.018c-.256-.86-.599-1.692-.88-2.544m1.689.963c-.013-.033-.065-.019-.053.014.43 1.145.834 2.305 1.31 3.432.012.028.06.008.05-.021-.394-1.156-.866-2.287-1.307-3.425m2.791 2.759c-.004-.01-.017-.002-.014.008l.522 1.186c.004.01.018.002.014-.008zm2.998.975c-.015-.032-.07-.01-.058.024a11.4 11.4 0 0 0 1.92 3.492c.032.038.094-.01.068-.052a29 29 0 0 1-1.93-3.464m89.091 11.62c-.002-.035-.056-.035-.055 0 .066 1.816.132 3.63.23 5.444.002.03.048.03.047 0a306 306 0 0 0-.222-5.444m-1.868.68c-.133 3.801-.268 7.602-.358 11.404a.02.02 0 0 0 .039 0c.148-3.8.252-7.602.358-11.404a.02.02 0 0 0-.04 0m-2.375 4.766a.016.016 0 0 0-.031 0c.058 3.966.011 7.951.216 11.914a.023.023 0 0 0 .046 0c.056-3.968-.14-7.948-.231-11.914m-1.599 2.211c-.228 3.404-.47 6.807-.592 10.218-.001.04.06.04.063 0 .265-3.402.409-6.81.568-10.219.001-.025-.037-.025-.039 0m-2.394 3.393q-.519 3.835-.929 7.68c-.004.04.064.049.07.01q.525-3.835.928-7.68c.004-.04-.064-.05-.07-.01m36.55-26.57a16 16 0 0 0-2.337-.544c-.262-.056-2.413-.438-2.43-.672a.38.38 0 0 0-.27-.356c-3.034-.98-6.107-1.854-9.124-2.884-.033-.011-.056.042-.024.057a57 57 0 0 0 8.951 3.538.36.36 0 0 0 .359-.095c.213-.27 2.288.593 2.586.692a12 12 0 0 0 2.24.625c.22.027.227-.293.049-.36m-.547-3.748a8.3 8.3 0 0 0-3.08-.708c-.046-.002-.044.066 0 .07a14.7 14.7 0 0 1 3.053.703c.038.012.064-.048.027-.065M298.2 207.1c-.005-.002-.007.006-.003.007l4.256 1.363c.014.004.02-.019.006-.023zm3.762 4.878a13.3 13.3 0 0 1-3.058-1.364c-.034-.02-.066.033-.031.054a11.8 11.8 0 0 0 3.076 1.355.023.023 0 0 0 .013-.045m46.993-70.854q-3.051-.984-6.121-1.894c-.024-.007-.034.03-.01.038q3.049.988 6.118 1.902c.03.008.041-.036.013-.046m9.85-42.149a60 60 0 0 0-10.723-.25c-.02 0-.02.032 0 .03a82 82 0 0 1 10.723.275c.036.003.035-.05 0-.055M124.458 46.75l-6.701 36.873 40.944-6.437-11.73-10.426c14.576-25.214 4.336-42.334-1.316-48.994C131.043.546 101.265-5.281 81.931 5.298c-7.184 3.93-22.958 16.118-14.284 44.392q2.64 8.338 4.56 15.65c-26.094-.005-43.945 6.608-53.121 19.724-10.446 14.93-5.843 32.972-3.614 39.525L0 129.236l31.15 18.875 14.614-32.62-15.91 4.78c-1.246-3.496-5.295-16.863 1.523-26.608 6.492-9.281 21.761-13.832 44.328-13.282 6.977 35.162.316 49.047-5.158 54.425-10.143 9.966-28.096 4.088-28.277 4.027l-2.416 7.1-2.443 7.09a56 56 0 0 0 16.756 2.58c8.486 0 18.678-2.088 26.801-10.008a34 34 0 0 0 1.226-1.275 12.08 12.08 0 0 1 3.213-8.43c.083-.091.178-.174.264-.264a10.4 10.4 0 0 1 1.307-1.313 18 18 0 0 1 2.507-1.768c7.466-18.627 4.963-47.887-7.517-87.318-3.983-12.984-1.573-21.99 7.163-26.77 12.903-7.06 35.236-2.596 45.087 9.014 7.724 9.103 5.992 19.712 1.256 29.07Z"/><path fill="currentColor" d="M84.936 66.803s18.128 1.192 26.128 1.021c0 0-10.724 9.532-24.51 10.383Z"/></svg>