<svg xmlns="http://www.w3.org/2000/svg" id="Layer_2" data-name="Layer 2" viewBox="0 0 100.4 65.21"><defs><style>.cls-1{fill:currentColor;fill-opacity:.5}</style></defs><g id="Layer_1-2" data-name="Layer 1"><g id="Layer_1-3" data-name="Layer_1"><g id="_2659733511472" data-name="2659733511472"><path fill="currentColor" d="M75.32 49.23s2.36-.55 4.6-1.97c1.15-.73 2.12-1.38 2.94-2.06.81-.67 1.49-1.39 2.05-2.26-.31 2.07-2.83 3.99-4.52 5.07-2.37 1.5-4.86 2.08-4.86 2.08zm13.79-11.32s-.08 2.2-.67 3.8c-.55 1.49-2.37 3.59-3.73 4.35 0 0 2.45-3 2.98-4.43.54-1.45.54-3.45.54-3.45l.44-.13.44-.13Zm-5.6 12.18s3.19.34 5.19.03c1.68-.1 6.01-3.18 6.03-3.19-1.17 1.53-4.2 3.96-5.98 4.07-1.6.1-3.97-.32-5.24-.91m.38 7.62s2.92-1.13 5.31-2.35c1.19-.61 2.42-1.25 3.53-1.86 1.08-.59 2.01-1.14 2.62-1.55 1.29-.88 4.05-1.75 4.06-1.75l.26.84s-2.64.83-3.83 1.63c-.63.43-1.59.99-2.69 1.59-1.07.59-2.32 1.24-3.56 1.87-2.46 1.26-5.39 2.38-5.39 2.39l-.32-.82Z" class="cls-1"/><path fill="currentColor" d="M68.86 39.48s-.22 2.65-1.11 3.61c-.24.26-.7.73-1.23 1.26-1.14 1.16-2.61 2.64-2.89 3.08-.24.37-.94 1.76-1.77 3.43-.59 1.19-1.26 2.52-1.92 3.8-.75 1.45-1.3 2.53-1.64 3.37-.32.79-.45 1.36-.4 1.85.04.37.44.85.97 1.29.71.6 1.6 1.11 2.14 1.25.44.12 1.43-.15 2.53-.62 1.15-.48 2.38-1.18 3.22-1.89.85-.71 1.44-1.3 1.89-1.84.44-.53.73-1.02.97-1.56.8-1.76 2.08-3.2 3.29-4.57.99-1.12 1.93-2.18 2.48-3.28.53-1.06 1.48-4.06 1.48-4.06-.1 1.39-.09 3.25-.7 4.46-.6 1.2-1.58 2.31-2.6 3.47-1.17 1.32-2.4 2.71-3.15 4.35-.28.6-.6 1.16-1.09 1.75-.48.58-1.11 1.2-2.01 1.96-.91.76-2.22 1.51-3.44 2.02-1.26.53-2.46.82-3.09.66-.65-.17-1.69-.75-2.49-1.44-.68-.58-1.21-1.25-1.27-1.88-.06-.64.09-1.34.46-2.26.35-.88.91-1.97 1.67-3.45.61-1.18 1.3-2.56 1.91-3.79.84-1.69 1.55-3.1 1.83-3.52.33-.5 1.83-2.03 3-3.21.52-.52.97-.98 1.21-1.25.68-.73.88-3.08.88-3.09l.88.08Z" class="cls-1"/><path fill="currentColor" d="M63.84 62.43s.5 1.4 1.24 1.77c.31.15 1.85.16 3.63.1 2.52-.08 5.48-.32 6.28-.48.73-.15 2.86-1.04 4.8-1.98 1.6-.78 3.05-1.59 3.43-2.02.28-.31.31-.76.22-1.23-.15-.77-.62-1.56-.98-2.01-.19-.24-.69-.38-1.28-.47-1.01-.15-2.22-.11-2.84-.04-.48.05-1.25.28-2.1.58-1.8.66-3.47 1.52-5.22 2.11.54-1.2 3.63-2.47 4.92-2.93.9-.33 1.76-.57 2.31-.63.67-.07 1.97-.12 3.05.04.79.12 1.49.36 1.84.8.43.54.98 1.48 1.16 2.39.14.72.07 1.43-.42 1.98-.46.52-2.02 1.4-3.71 2.22-2 .97-4.21 1.9-5.01 2.06-.83.17-3.86.41-6.43.49-1.91.06-3.6.03-4.06-.2-1.06-.53-1.69-2.28-1.69-2.28l.84-.28Zm-9.59-15.95c.48 2.02 1.47 2.81 1.71 3.76.09.35.05.66-.14 1.09-.14.33-.69 1.08-1.29 1.91-.77 1.07-1.65 2.28-1.79 2.7-.12.35-.12.8-.05 1.27.08.51.26 1.04.5 1.47.31.55 2.59 1.33 4.14 1.86.54.19 1 .34 1.3.47l-.34.81c-.24-.1-.7-.26-1.24-.44-1.68-.57-4.15-1.42-4.63-2.27a5.4 5.4 0 0 1-.61-1.77c-.09-.6-.08-1.2.08-1.68.19-.56 1.1-1.82 1.91-2.94.58-.8 1.1-1.51 1.2-1.75.1-.23.12-.38.09-.52-.39-1.55-1.44-2.13-.85-3.98Zm6.73 5.85-.8.32c-.53-1.49-2.49-2.27-2.5-2.27 1.16-.1 2.74.76 3.3 1.95" class="cls-1"/><path fill="currentColor" d="M73.07 57.88s-2.05-.27-3.3-.17l-.07-.88c1.33-.11 3.64.2 3.64.2zM27.56 46.33s-2.56.53-3.31 1.24c-.46.44-.68.99-.68 1.55 0 .31.07.63.19.93q.195.465.57.87c.65.68 1.68 1.16 3.05 1.16.61 0 2-.09 3.32-.2 1.38-.11 2.68-.25 2.95-.32s1.2-.15 2.37-.25c1.75-.15 4.04-.35 5.15-.58 1-.21 1.9-.45 2.58-.63.56-.15.98-.27 1.24-.29.29-.03 2.33-.35 4.23-.68 1.19-.21 2.31-.42 2.86-.56 1.63-.42 3.01.11 3.01.11l-.29.83s-1.14-.44-2.5-.09c-.6.16-1.74.37-2.92.58-1.9.33-3.99.66-4.3.69-.17.02-.56.12-1.09.27-.67.18-1.56.42-2.63.64-1.18.24-3.48.44-5.25.59-1.13.1-2.04.18-2.23.22-.32.08-1.68.22-3.09.34-1.35.11-2.77.21-3.4.21-1.63 0-2.89-.59-3.69-1.44-.33-.34-.58-.73-.75-1.14s-.26-.84-.26-1.27c0-.8.31-1.58.96-2.19.94-.89 3.74-1.47 3.75-1.47l.17.87Z" class="cls-1"/><path fill="currentColor" d="M39.58 36.36s-4.4 1.24-4.75 1.42c-.11.05-.45.18-.94.35-1.72.62-5.4 1.94-6.51 2.88-.53.44-.76 1.02-.8 1.61-.06.85.23 1.72.56 2.27.24.41.67.64 1.18.76.57.13 1.26.13 1.94.09.69-.05 2.05-.34 3.35-.67 1.32-.34 2.56-.73 2.94-.96.34-.2 1.21-.51 2.23-.83 1.65-.52 3.72-1.09 4.5-1.3l.61-.17c.71-.2.85-.24 1.76-.28.61-.03 2.88-.35 4.83-.71 1.34-.25 2.5-.51 2.8-.68l.45.76c-.39.23-1.66.52-3.08.78-1.98.37-4.32.7-4.95.73-.8.04-.93.07-1.56.25l-.62.17c-.78.21-2.84.78-4.46 1.29-.97.3-1.77.58-2.05.74-.45.27-1.78.69-3.16 1.05-1.34.35-2.77.65-3.51.7-.76.05-1.53.05-2.2-.11-.73-.17-1.35-.52-1.74-1.17-.4-.67-.76-1.74-.68-2.79.06-.81.38-1.6 1.12-2.22 1.23-1.03 5.02-2.4 6.78-3.03.46-.17.79-.28.84-.31.42-.21 4.9-1.48 4.91-1.48l.23.85Z" class="cls-1"/><path fill="currentColor" d="M53.52 36.47c-.19 1.73.1 2.73.2 4.28.1 1.61-.34 2.03.22 3.96-.62-.67-1.09-2.16-1.04-3.08.02-.44.03-.72.02-.98-.02-.25-.06-.49-.15-.88-.02-1.26.03-2.38.76-3.29Zm3.59 6.22c1.18.15 2.32-.09 3.62-.41 1.54-.38 4.1-.62 5.05-.01-1.55-.03-3.49.48-4.78.8-1.13.28-3 .48-3.9-.38Zm9.28-3.13c.29 1.03.95 2.05 1.4 2.55l-.7.63c-.7-.77-1-2.25-.7-3.19Zm-3.78 8.45-.29.71c-1.31-.47-3.14-.36-3.14-.36.84-.58 2.44-.76 3.44-.35Zm19.47 9.4c-.32-.24-1-.15-1.69.04-.74.21-1.48.54-1.88.72-.32.14-.47.4-.52.7-.04.29.01.62.12.94.11.34.28.67.47.95.28.41.58.69.76.67.16-.02 1.19-.42 2.11-.81.67-.29 1.25-.57 1.35-.68l.02-.02c.16-.22.1-.73-.05-1.24-.16-.54-.42-1.06-.65-1.26l-.03-.02Zm-1.84-.48c.83-.23 1.67-.32 2.16.04l.06.05c.3.26.63.89.81 1.52.2.66.24 1.36-.04 1.73l-.04.05c-.15.17-.81.5-1.54.82-.95.41-2.06.83-2.27.86-.39.04-.88-.34-1.27-.91-.22-.32-.41-.7-.54-1.09-.13-.4-.19-.82-.14-1.19.07-.49.32-.9.83-1.13.41-.18 1.18-.53 1.96-.74Zm-17.92-1.77c.26.11 1.06.62 1.76 1.17.48.38.93.79 1.15 1.13.05.08.09.15.13.22s.07.14.1.2c.27.62.08.92-.15 1.26-.14.23-.65.95-1.24 1.65-.35.41-.74.82-1.1 1.12-.5.4-.92.63-1.3.73-.4.11-.75.07-1.12-.06-.3-.11-.76-.43-1.19-.79-.56-.46-1.11-1.01-1.28-1.25-.18-.25-.2-.64-.12-1.06.08-.45.27-.95.5-1.37.2-.37.52-.92.91-1.47.28-.39.6-.79.95-1.13.28-.27.58-.45.92-.51.33-.06.69 0 1.1.17Zm1.42 1.6c-.67-.53-1.41-1-1.64-1.1-.3-.13-.56-.17-.79-.13-.22.04-.43.16-.62.35-.32.32-.62.69-.89 1.06-.38.53-.68 1.05-.87 1.41-.2.37-.37.82-.44 1.21-.05.29-.05.53.03.65.15.21.66.7 1.19 1.14.4.33.79.61 1.03.7.26.09.51.12.79.05.3-.08.65-.28 1.09-.63.33-.27.7-.65 1.03-1.05.57-.67 1.06-1.36 1.2-1.58s.25-.4.1-.75c-.02-.05-.05-.1-.08-.16s-.07-.12-.11-.18c-.18-.28-.58-.65-1.02-1ZM43.55 38.03s.2 1.54.43 2.27c.23.75.67 1.58.67 1.58l-.48.26s-.39-.76-.63-1.56c-.21-.67-.1-1.81.02-2.55Zm-1.48 8.35s-.06 1.44.08 2.5c.14 1.04.67 1.81.68 1.81-.84-.18-1.11-.9-1.22-1.74-.14-1.07.1-1.72.47-2.58Zm1.22 3.73s.05-.94-.09-1.97c-.14-1.02-.75-2.28-.75-2.29 1.26.63 1.51 3.12.84 4.26m21.32-.85s1.86 1.28 4.13 1.85c-1.23.48-3.84-.74-4.13-1.85m6.11 1.63c-.22-.22-.84-.73-1.55-1.22-.5-.35-1.05-.69-1.53-.92-1.15-.55-2.46-.77-2.46-.77 2.32-.25 4.5.73 5.54 2.91M45.73 39.78c.1.95 0 2.07 0 2.08l-.55-.04s.09-1.09 0-1.98c-.09-.85-.97-2.3-.98-2.3.73.55 1.42 1.29 1.53 2.25Zm-9.96-.34s.14 1.42.52 2.45c.37 1.02 1.12 1.95 1.12 1.96l-.44.34c-.92-1.23-1.9-3.2-1.2-4.74Zm-2.68 7.88s.02 2.66.72 4.53c-1.31-.9-1.21-3.17-.72-4.53m19.32-3.61s.18 2.34.6 3.24 1.55 1.76 1.56 1.76l-.34.43s-1.12-.8-1.6-1.82c-.39-.83-.48-2.71-.21-3.61Z" class="cls-1"/><path fill="currentColor" d="M52.01 36.26s.08 2.24.39 2.85c.32.64 1.14 1.51 1.14 1.51l-.41.37s-.87-.93-1.23-1.64c-.36-.73-.11-2.32.1-3.1Zm20.21 23.78s.1 1.01.28 1.6c.16.56 1.16 1.73 1.17 1.73-1.27-.53-2.32-2-1.44-3.33Zm7.31-11.89s.96.9 2.29 1.44c-.66.26-2.34-.39-2.84-.89zm-4.12 1.87s1.86 1.16 2.42 1.96c.46.66.51 1.84.51 2.67 0 0-.67-1.55-1.15-2.23-.46-.66-2.2-1.75-2.2-1.76l.42-.65Z" class="cls-1"/><path fill="currentColor" d="M73.65 10.65c-3.15-.41-4.9 1.02-4.9 1.02.6-1.94 3.45-2.33 4.9-1.02M59.3 13.54c-1.01.3-3.13.87-5.35 1.4-1.66.4-3.37.78-4.66 1.01-2.89.51-5.71 1.69-6.84 2.16l-.09.04c-.64.27-2.36.82-4.34 1.3-1.37.33-2.87.63-4.23.78-.85.09-1.74.2-2.61.3-2.25.27-4.35.52-6.58.59l-.67.02c-2.41.07-3.16.09-3.85.45-.49.26-.81.69-.96 1.22-.16.56-.13 1.22.08 1.89.21.69.61 1.38 1.2 1.97.96.98 2.41 1.7 4.32 1.75l-.02.88c-2.18-.05-3.83-.89-4.93-2.01-.69-.7-1.16-1.52-1.41-2.33-.26-.83-.29-1.67-.09-2.39.21-.76.68-1.39 1.4-1.76.87-.45 1.67-.47 4.24-.55l.67-.02c2.16-.06 4.26-.32 6.5-.58.83-.1 1.67-.2 2.62-.3 1.32-.14 2.78-.43 4.12-.76 1.93-.47 3.59-1 4.21-1.26l.09-.04c1.15-.48 4.04-1.68 7.02-2.21 1.3-.23 2.98-.6 4.61-.99 2.17-.52 4.28-1.09 5.3-1.39 1.72-.51 3.98-2 3.98-2-1.15 1.46-1.79 2.27-3.73 2.85Z"/><path fill="currentColor" d="M98.95 1.97s-7.07-.14-10.12-.41c-1.43-.13-3.34-.23-5.25-.31-2.17-.09-4.39-.14-5.92-.14-.79 0-1.69-.06-2.6-.11-2.26-.14-4.64-.29-6 .42-1.6.84-2.41 2.17-2.92 3.02-.11.18-.21.35-.29.47-.38.57-1.71 1.6-3.2 2.75-.84.65-1.73 1.34-2.49 1.97-1.02.85-1.97 1.73-2.78 2.56-.86.87-1.54 1.66-1.94 2.24l-.73-.5c.43-.62 1.14-1.45 2.03-2.35.82-.84 1.8-1.75 2.85-2.62.8-.67 1.68-1.35 2.51-1.99 1.42-1.1 2.7-2.09 3-2.54.09-.13.17-.28.27-.44.57-.94 1.45-2.4 3.27-3.35 1.58-.83 4.09-.67 6.46-.52.88.06 1.75.11 2.54.11 1.5 0 3.72.05 5.95.14 1.96.08 3.89.18 5.29.31 3 .26 9.99.41 10 .41l.04.88ZM51.3 23.92c-1.49.31-2.56.53-3.57.76-.99.22-1.94.45-3.2.76-1.25.31-2.8.68-4.37 1.04-1.55.35-3.07.67-4.23.86-2.12.34-5.07.51-7.21.63l-.62.04c-1.02.06-1.7.16-2.18.37-.42.18-.67.45-.87.86-.23.49-.3 1.3-.07 2.15.18.69.56 1.4 1.21 1.98.76.68 1.9 1.27 3.18 1.69 1.28.41 2.71.65 4.05.63 1.35-.02 2.52-.08 3.51-.13 1.04-.05 1.88-.1 2.6-.08.7.02 2.13-.06 3.76-.2 1.48-.13 3.11-.32 4.48-.53 1.75-.28 4.74-.63 7.59-.97 1.96-.23 3.86-.46 5.18-.64 2.35-.32 4.91-.62 7.47-.76 2.57-.14 5.15-.12 7.52.22.46.07 1.23.31 2.14.6 1.74.55 4.03 1.27 5.38 1.16-2 .8-5.17-.53-7.64-.88-2.31-.33-4.83-.35-7.36-.22-2.53.14-5.07.44-7.4.75-1.41.19-3.27.41-5.2.64-2.87.34-5.88.7-7.56.96-1.38.22-3.04.41-4.54.54-1.66.15-3.13.23-3.86.21-.67-.02-1.51.02-2.53.08-.99.05-2.15.11-3.55.13-1.44.02-2.96-.23-4.33-.67-1.4-.45-2.65-1.1-3.5-1.87a4.9 4.9 0 0 1-1.47-2.41c-.28-1.06-.18-2.1.13-2.76.3-.62.68-1.02 1.31-1.3.58-.25 1.35-.37 2.48-.44l.62-.04c2.12-.12 5.05-.29 7.12-.62 1.14-.18 2.65-.5 4.18-.85 1.51-.34 3.08-.73 4.35-1.04 1.24-.31 2.19-.53 3.22-.76 1.01-.23 2.08-.45 3.59-.76 2.97-.61 12.14-3.97 12.16-3.98-.93 1.58-10 4.43-11.99 4.84Z"/><path fill="currentColor" d="M61.16 33.6s.53 2.28 1.1 3.37c.45.86 1.53.99 2.56 1.12l.22.03c.69.09 2.04.37 3.45.75 1.11.3 2.28.67 3.2 1.05 1.05.43 2.11.81 3.11 1.08.91.25 1.77.42 2.53.47.65.05 1.29.04 1.86 0 .81-.05 1.45-.16 1.68-.22.21-.06 2.34-1.08 4.72-2.24 2.02-.99 4.23-2.09 5.57-2.81 2.23-1.19 5.38-2.26 7.47-2.98.59-.2 1.1-.38 1.48-.52l.3.83c-.38.14-.9.32-1.5.52-2.06.7-5.15 1.76-7.33 2.92-1.28.68-3.51 1.8-5.6 2.82-2.42 1.19-4.62 2.23-4.86 2.3-.27.08-.98.2-1.86.26-.6.04-1.28.05-1.97 0-.81-.06-1.73-.24-2.7-.5-1.04-.29-2.14-.67-3.22-1.12-.88-.36-2-.71-3.09-1.01-1.37-.37-2.67-.65-3.33-.73l-.22-.03c-1.25-.15-2.56-.31-3.23-1.58-.63-1.19-1.18-3.57-1.18-3.58l.86-.2Zm16.95-12.3c1.16-.84 11.1-3.11 13.43-4.05-2.8 2.49-11.18 3.51-12.91 4.77-.94.69-2.48 1.97-2.48 1.97.5-1.01 1.02-2 1.97-2.69ZM70.08 7.67c.74-.08 1.51-.1 2.31-.08 4.13.11 8.27.26 12.42.36-4.14.79-8.03.63-12.44.52-.76-.02-1.48 0-2.19.08-1.34.15-3.39 1.37-3.39 1.37.66-1.05 2.13-2.12 3.3-2.25Zm.49 8.43c1.97-.87 7.51.01 9.74.11-2.25.41-7.69-.04-9.39.7-1.16.51-3.01 1.62-3.02 1.63.82-1 1.4-1.88 2.66-2.43Z"/><path fill="currentColor" d="M73.66 32.75s.59 1.38 1.7 2.49 2.56 1.78 4.12 1.97c-1.2.15-3.9-.5-4.74-1.35-1.23-1.23-1.89-2.77-1.89-2.78l.81-.34ZM72.19 2.57c1.38-.24 3.34.07 4.6.67 0 0-2.94-.13-4.42.13-1.45.26-3.64 1.6-3.65 1.6.89-1.17 1.95-2.14 3.48-2.41Z"/><path fill="currentColor" d="M74.84 32.71s1.13 1.66 3.19 2.37c-1.35.16-3.01-.96-3.92-1.96zM25.8 28.04s.59.77.78 1.46c.13.47.17.94.2 1.27.01.13.02.24.03.31 0 .02.02.03.04.04.08.03.22.04.39.04.25 0 1.7-.04 2.79-.11.59-.04 1.05-.08 1.12-.12.13-.08.34-.36.48-.77.1-.31.15-.69.09-1.11-.16-1.01-.81-1.54-.81-1.54l.37-.41s.79.65.99 1.87c.08.51.02.98-.11 1.36-.18.56-.51.96-.73 1.08-.15.09-.7.15-1.36.19-1.11.07-2.57.11-2.82.11-.22 0-.42-.01-.58-.07-.22-.08-.36-.22-.4-.47-.02-.09-.03-.21-.04-.35-.03-.31-.06-.76-.18-1.17-.16-.58-.7-1.29-.7-1.29zm23.92.88c-.03-.17-.11-.56-.21-1-.1-.45-.24-.97-.39-1.44-.28-.87-.88-1.4-.88-1.41 1.44.66 1.91 2.46 1.48 3.84Zm-2.35-4.49s.1 1.05.47 1.74c.39.72 1.23 1.88 1.24 1.88-.67-.38-1.32-.88-1.72-1.62-.43-.79-.39-1.97-.39-1.97l.4-.04Zm3.57 5.06c.04-.2.04-.82-.02-1.47-.04-.46-.12-.93-.24-1.25-.29-.81-1.01-1.82-1.01-1.82 1.73 1.58 2.1 2.28 1.27 4.55Zm-6.33-12.77s1.52 1.11 1.78 2.04.11 1.49-.03 2.36c0 0-.18-1.16-.41-1.95-.21-.76-1.7-2.02-1.7-2.02l.36-.42Zm.54 4.53c-.28-1.38-.66-2.2-1.58-3.3 1.27.56 2.05 1.94 1.58 3.3m-2.14-2.86s.35 1.25.84 2.03c.35.57 1.29 1.59 1.29 1.59-.52 0-1.33-.67-1.69-1.26-.46-.75-.53-1.75-.44-2.36m-3.92 7.63c.95.71 1.34 2.42 1.01 3.54 0 0-.2-1.36-.49-2.03-.27-.64-.85-1.07-.86-1.07l.33-.44Zm-5.34-6.25s.37.55.66 1.27c.28.71.39 1.87.14 2.53 0 0-.21-1.54-.46-2.18-.25-.63-.77-1.28-.77-1.28l.44-.34Zm-.45 3.22c-.22-1.28-.75-2.04-.75-2.04.88.17.86 1.36.75 2.04m5.72 7.3s.03-.68-.07-1.26c-.09-.55-.67-1.43-.67-1.43 1.12.44 1.34 1.72.74 2.69m-18.87-9.13c.15.36.29.85.39 1.37.09.46.15.93.16 1.37 0 .26 0 .38.08.46.08.09 1.02.12 2.01.1.98-.02 1.98-.1 2.27-.23l.15-.07c.59-.32.86-.78.92-1.29.06-.54-.1-1.14-.37-1.72-.05-.11-.1-.21-.16-.31l.48-.26c.06.11.12.23.17.34.31.66.5 1.37.42 2.02-.08.68-.44 1.29-1.21 1.71l-.17.09c-.36.17-1.45.27-2.49.28-1.11.02-2.22-.07-2.41-.26-.23-.23-.23-.43-.24-.83 0-.4-.06-.85-.15-1.27-.1-.48-.23-.94-.36-1.27l.51-.2ZM12.1 8C.38 10.4-.04 30.89 10.85 34.58v4.73C-4.02 33.62-3.61 7.74 12.1 3.19v4.82Zm1.55 1.19 1.04 1.88c-2.28 1.08-3.95 2.93-5 5.11-.94 1.96-1.37 4.18-1.26 6.35.11 2.19.76 4.33 1.97 6.1 1.32 1.91 3.28 3.37 5.92 3.97v-2.47a7.14 7.14 0 0 1-3.95-2.85c-.95-1.38-1.46-3.09-1.55-4.85-.09-1.78.26-3.61 1.03-5.21.79-1.64 2.02-3.04 3.68-3.89l.54 2.1 2.5-4.61z"/></g></g></g></svg>