<svg xmlns="http://www.w3.org/2000/svg" data-name="Layer 2" viewBox="0 0 57.12 71.63"><g data-name="Layer 1"><g data-name="Layer_1"><g fill="currentColor" data-name="2659736249472"><path d="M44.44 19.66s-.05 2.17.05 3.07c.04.36.63.97 1.43 1.58.83.63 1.86 1.21 2.75 1.47-1.29.24-4.81-1.76-4.95-2.97-.1-.94-.05-3.17-.05-3.18l.77.02Z"/><path d="M44.68 23.41s-.34 1.06-.34 1.77c0 .38.4.82.77 1.23.2.22.4.44.54.66.23.35.43.91.64 1.52 1.03 2.94 1.72 2.77 3.06 4.06-2.06-.92-3.05-1.69-3.79-3.81-.2-.57-.38-1.09-.56-1.35-.11-.17-.29-.36-.47-.57-.47-.51-.98-1.07-.98-1.75 0-.82.38-2.01.38-2.02l.73.24Zm-7.6 3.06c.44.38 1.02.58 1.64.64.75.07 1.55-.07 2.17-.35.27-.12.47-.26.61-.4.14-.13.2-.25.21-.34.01-.14-.03-.9-.09-1.67-.05-.57-.11-1.14-.18-1.45-.07-.32-.36-.63-.78-.86-.41-.22-.93-.34-1.48-.3-.52.05-.95.18-1.27.36-.39.21-.63.47-.71.67s-.14.72-.16 1.39c-.02.68-.01 1.5.04 2.29Zm1.59 1.19c-.77-.07-1.5-.35-2.04-.86l-.08-.07v-.11c-.06-.84-.08-1.72-.05-2.46.03-.73.09-1.33.2-1.59.13-.31.45-.67.96-.95a3.8 3.8 0 0 1 1.49-.43c.66-.06 1.29.09 1.79.36.56.3.95.75 1.05 1.23.07.34.14.93.19 1.52.07.79.11 1.6.09 1.77-.02.21-.14.45-.38.68-.18.17-.43.35-.77.5-.71.33-1.61.48-2.45.4Zm-8.65-1.75c-.36.36-.54 1.14-.6 1.98-.09 1.15.04 2.35.25 2.7.06.1.47.22 1.01.31s1.18.14 1.73.08c.58-.06 1.09-.19 1.49-.38.37-.18.63-.4.74-.64.1-.22.1-.84.06-1.54-.06-.94-.22-1.98-.36-2.43a.8.8 0 0 0-.2-.33c-.29-.29-.82-.41-1.41-.42-.62-.01-1.29.1-1.83.27-.42.13-.74.27-.87.4Zm-1.16 1.93c.07-.95.3-1.87.76-2.33.19-.19.6-.39 1.1-.54.58-.17 1.32-.3 2-.29.72.01 1.38.18 1.79.58.15.16.27.34.34.57.14.48.31 1.57.38 2.55.05.78.04 1.5-.11 1.81-.17.36-.52.67-1 .91-.45.22-1.03.37-1.67.44-.61.06-1.3.01-1.88-.09-.69-.12-1.25-.34-1.39-.57-.26-.42-.43-1.78-.33-3.03Zm-8.32 1.71c-.37-.07-.87.06-1.34.28-.55.26-1.05.64-1.29.97-.14.23-.11.81.01 1.37.12.57.32 1.1.49 1.23.07.05.28.12.51.14.15.01.31 0 .42-.05l.23.5c-.22.1-.47.12-.71.1-.33-.03-.65-.15-.77-.23h-.01c-.29-.21-.57-.88-.72-1.58-.15-.69-.16-1.44.07-1.79.29-.42.88-.87 1.51-1.17.57-.27 1.19-.42 1.68-.33l-.1.54ZM41.56 5.76s.55 1.63.55 2.45v1.67c0 .09.08.22.19.36.15.19.34.39.54.55.21.16 1.04.57 1.87.92.66.28 1.32.51 1.63.55.35.04.64 0 .85-.09.17-.08.28-.2.33-.38.05-.19.03-.59-.02-1-.06-.56-.17-1.11-.23-1.2l.48-.28c.09.15.23.8.3 1.42.05.46.07.93 0 1.19-.09.35-.31.6-.63.74-.3.14-.69.18-1.14.13-.38-.04-1.08-.29-1.79-.58-.87-.37-1.76-.81-2.01-1-.23-.19-.47-.42-.64-.64s-.28-.45-.3-.65c-.02-.21-.01-.52 0-.93v-.78c0-.74-.52-2.27-.52-2.28l.52-.17Zm-21.1-.98c.96-.23 3.47-.73 4.21-.05-.62-.05-1.38.04-2.24.18-.59.1-1.27.27-1.85.41-1.01.24-2.18 1.37-2.18 1.37.44-.88 1.03-1.67 2.06-1.91m-.68 1.95c.82 0 3.33-.8 4.12-1.14-.5.77-1.18.87-2.03 1.15-.77.26-1.49.29-2.09 0Zm-5.86 6.26c.62-.26 1.57-.56 2.2-.32-1.02.15-1.81.68-2.68 1.02-1.22.43-1.7 1.18-1.7 1.18.05-1.15 1.28-1.51 2.17-1.88Zm-1.67 2.36c1.7-.49 1.91-.61 3.43-1.45-1.02 1.21-1.58 1.82-3.43 1.45m2.41 9.54s1.16-.21 1.74-.45c.51-.21 2.29-.96 2.71-.87-.82.41-1.51.89-2.39 1.25-.68.29-1.4.22-2.07.07Zm7.1-2.86c1.55 0 3.19-.46 4.62-1.04-1.31 1.23-3.38 1.52-4.62 1.04m-6.11 3.65s1.84-.11 2.75-.67c-.7 1.01-1.71.95-2.75.67m6.9-2.65c1.69.04 2.38-.26 3.2-.68-.65 1.14-1.91 1.17-3.2.68m12.27-2.92s-.49.11-1 .11c-1.56 0-3.17.14-4.67.52 2.03-1.04 3.4-1.16 5.67-.63m-4.98.85c1.49.16 3.05.15 4.51-.27-1.24.81-3.21 1.03-4.51.27m.81-18.15c1.11-.04 2.16.2 2.96.96-1.04-.65-2.93-.66-4.1-.47-.59.1-2.34.74-2.34.74.89-.73 2.3-1.19 3.48-1.24Zm-2.47 1.76c1.14.17 4.02.23 5.15 0-1.21 1-3.81.49-5.15 0m10.75-1.81c.85-.03 1.28.06 2.45.45l.23.45c-1.01-.34-2.42-.47-3.49-.39-.7.05-2.15.28-2.15.28 1.25-.57 1.6-.74 2.96-.79m-1.98 1.12s1.09.21 1.76.26c.69.05 2.36.16 2.37.16-1.11.49-3.09.21-4.13-.42m11.72 17.5c1.21.16 3.29-.83 4.48-2.29-.47 1.58-2.29 3-4.48 2.29m-8.69-3.2c.95 0 1.95.31 2.66.81 0 0-2.23-.36-3.11-.36s-2.03.41-2.03.41c.57-.63 1.55-.86 2.48-.86m-1.62 1.12s1.94.1 3.07.04c-.84.68-2.19.42-3.07-.04m18.46-5.45c-.36 1.07-1.21 2.26-2.45 2.23 0 0 .59-.3 1.06-.79.46-.49.87-1.63.87-1.63zm-2.58 1.09c.43-.73.79-1.48.79-2.33.57.15.22 1.84-.79 2.33M27.18 27.57c-.46-.18-1.04-.16-1.6-.04-.69.16-1.34.48-1.74.81-.17.14-.26.65-.3 1.25-.06.91.01 1.96.12 2.36.02.07.06.13.16.17.16.07.44.12.9.15.45.03.92-.04 1.33-.16.42-.12.78-.3 1.02-.51.21-.19.32-.46.38-.73.06-.28.07-.57.07-.77h.55c0 .22 0 .54-.09.89-.08.36-.24.74-.55 1.02-.3.26-.74.49-1.23.63-.47.14-1 .21-1.51.18-.53-.03-.87-.09-1.09-.19-.29-.13-.41-.3-.47-.53-.12-.44-.21-1.58-.14-2.54.05-.73.2-1.38.5-1.64.46-.39 1.2-.75 1.97-.93.66-.15 1.35-.16 1.92.06l-.2.51ZM4.09 43.89c1.53 2.61 3.4 4.14 4.29 5.02-2.31-.35-4.69-4.09-4.69-4.1zm4.25 7.15s2.22 1 4.17 1c2.27 0 4.99-.24 7.22-.65-1.45.83-5.44 1.42-7.22 1.42-1.67 0-3.16-.47-4.17-1.78Zm18.48 1.22s2.6.11 4.54-.16c1.95-.27 5.27-1.55 5.37-1.64l-.1.66c-2.04 1.22-6.22 2.16-9.81 1.14m-17-17.56c2.04-.54 4.04-1.25 5.22-2.23l.58.66c-1.22 1.07-4.16 1.75-5.8 1.57m8.64 14.92c-1.69.59-3.98.48-5.53-.32 0 0 3.12.34 4.89-.28 1.82-.64 4.53-2.12 4.53-2.13-1.07 1.3-2.18 2.12-3.88 2.72ZM24.7 33.7s-1.53 2.57-1.92 3.82c-.45 1.48-.36 5.37.1 6.74-.91-1.87-1.23-2.25-1.23-4.44 0-.94.08-1.91.29-2.56.42-1.36 2-4 2-4.01z"/><path d="M43.68 7.73s-.67-1.35-1.17-2.29c-.27-.51-.8-1.32-1.4-2.03-.42-.49-.88-.93-1.29-1.15-.41-.21-.97-.26-1.56-.22-.79.06-1.61.3-2.17.55-.97.44-1.2.75-1.21.75l-.69-.55s.37-.48 1.53-1c.64-.29 1.56-.56 2.46-.63.73-.06 1.46.02 2.03.32.53.28 1.07.79 1.56 1.35.65.76 1.22 1.65 1.51 2.2.46.87 1.18 2.3 1.18 2.3l-.79.39Z"/><path d="M23.97 47.82s4.4 1.52 7.91 1.72c1.5.08 2.93-.23 4.23-.76 1.68-.68 3.16-1.72 4.3-2.72 1.14-.99 2.71-2.62 4.07-4.02 1.15-1.19 2.15-2.22 2.63-2.61.37-.29 1.03-.77 1.79-1.31 1.47-1.04 3.32-2.37 4.06-3.1.47-.47.95-1.56 1.34-2.77.48-1.49.81-3.11.81-3.96 0-.96.27-3.43.53-5.76.18-1.62.35-3.18.41-4.08l.05-.65c.14-1.87.25-3.48-.17-4.54-.21-.53-.61-.89-1.12-1.15-.55-.28-1.22-.45-1.93-.57-.83-.14-2.27-.53-3.73-1.04-1.22-.42-2.46-.91-3.41-1.41-.93-.49-1.79-1.1-2.55-1.65-.94-.67-1.74-1.25-2.27-1.32-.49-.07-1.07.13-1.58.66-.46.48-.87 1.22-1.1 2.27-.44 1.95.22 4.2 1.45 6.14 1.32 2.08 3.29 3.79 5.27 4.41 1.45.45 4.85.35 6.83-.86-1.11 1.63-4.91 2.38-7.09 1.71-2.18-.68-4.33-2.53-5.76-4.78-1.34-2.12-2.05-4.6-1.56-6.8.28-1.23.76-2.11 1.33-2.69.73-.75 1.59-1.02 2.33-.92.75.1 1.63.74 2.66 1.48.76.54 1.59 1.14 2.45 1.59.91.47 2.11.95 3.29 1.36 1.42.49 2.81.87 3.6 1 .78.13 1.54.33 2.18.66.68.35 1.23.86 1.53 1.61.5 1.25.38 2.95.23 4.93l-.05.65c-.06.91-.24 2.48-.42 4.12-.25 2.3-.52 4.73-.52 5.67s-.35 2.66-.86 4.23c-.43 1.32-.98 2.55-1.56 3.12-.78.78-2.67 2.13-4.17 3.2-.77.55-1.43 1.02-1.76 1.28-.43.34-1.42 1.36-2.55 2.53-1.38 1.43-2.98 3.08-4.12 4.08-1.21 1.05-2.76 2.14-4.55 2.87-1.41.57-2.97.91-4.61.82-2.31-.13-5.57-1.05-7.86-2.6Z"/><path d="M24.37 2.69c.65-.71 1.86-1.37 2.72-1.84.22-.12.42-.23.57-.32.47-.27.98-.42 1.52-.49a8 8 0 0 1 1.62 0c.65.06 1.59.36 2.43.89.67.42 1.28.99 1.66 1.69.4.75.76 1.79 1.03 2.89s.44 2.26.46 3.25c.02.7.11 2.28.22 4.03.17 2.85.37 6.15.31 7.04-.05.76-.05 2.41-.06 4 0 1.33 0 2.63-.03 3.36-.04.87-.16 1.71-.39 2.43-.22.7-.53 1.3-.95 1.73l-.13.13c-.88.85-2.12 1.37-3.36 1.45-1.26.08-2.54-.27-3.5-1.19l-.12-.12c-.45-.47-.79-1.03-1.01-1.66a6.1 6.1 0 0 1-.34-2.06c0-.78-.08-3.33-.15-5.82-.06-1.91-.11-3.79-.13-4.82-.02-1.07-.16-2.73-.32-4.34-.19-1.84-.43-3.6-.58-4.31-.17-.79-.46-2.08-.75-3.14-.19-.7-.37-1.28-.51-1.54-.13-.25-.48-.44-.86-.59-.44-.17-.93-.27-1.28-.34-1.17-.23-2.52-.07-3.77.39-1.28.46-2.45 1.22-3.24 2.15l-.46.56c-1.13 1.4-3.4 4.2-4.63 4.6l-.28-.84c.98-.33 3.14-2.99 4.22-4.32.18-.22.33-.4.47-.57.89-1.05 2.2-1.9 3.61-2.41 1.4-.51 2.92-.69 4.24-.42.37.07.91.19 1.42.38.12.05.24.1.35.15Zm3.14-1.06c-.77.42-1.85 1.01-2.41 1.57.1.1.18.21.25.34.17.33.38.98.58 1.73.29 1.07.58 2.38.76 3.18.16.73.4 2.53.59 4.4.17 1.62.31 3.3.33 4.41.02 1 .08 2.89.13 4.81.08 2.55.15 5.15.15 5.84 0 .63.1 1.23.29 1.77.18.51.46.97.82 1.34l.09.09c.76.73 1.8 1.01 2.83.94 1.05-.07 2.08-.5 2.81-1.21l.11-.11c.31-.33.56-.81.74-1.38.2-.65.32-1.41.35-2.2.03-.73.03-2.01.03-3.32 0-1.62 0-3.3.06-4.06.06-.83-.14-4.11-.31-6.93-.1-1.74-.2-3.3-.22-4.06-.02-.93-.19-2.02-.44-3.06-.25-1.03-.58-2-.95-2.68-.3-.56-.8-1.01-1.35-1.36-.72-.45-1.51-.71-2.04-.76-.49-.04-.98-.06-1.43 0-.43.05-.83.17-1.18.37-.16.09-.37.21-.6.33ZM9.35 17.65c-.27 2.73.62 4.35 1.5 6.08.47.92.94 1.85 1.15 2.46.21.63.7 1.75 1.34 2.93.48.9 1.05 1.82 1.61 2.55.55.71 1.15 1.21 1.72 1.54.7.41 1.33.56 1.74.54.42-.02 1.19-.34 1.79-.83.41-.33.74-.74.77-1.16l.88.06c-.05.7-.51 1.32-1.09 1.79-.74.6-1.73.99-2.29 1.02s-1.38-.15-2.24-.66c-.66-.39-1.35-.96-1.97-1.76-.6-.77-1.19-1.73-1.69-2.68-.65-1.21-1.17-2.39-1.4-3.07-.17-.52-.64-1.43-1.1-2.33-.5-.97-.98-1.93-1.12-2.44-.3-1.15-.21-3.09.4-4.04"/><path d="M4.47 16c.76 1.35 3.15 4.87 4.9 4.87l-.09.88s-.93-.06-2.14-1.11C6.07 19.72 4.61 17.3 4.48 16Zm-1.5 5.28c1.65.77 5.11 1.38 6.99 1.38v.89c-2.25 0-5.43-.56-6.99-2.27m5.9 5.66s1.65-.15 2.44-.84l.5.55c-.7.45-2.1.72-2.94.29m12.26 6s1.13 3.63 1.13 4.75c0 1.9-.36 3.51-1.09 4.92s-1.83 2.6-3.31 3.67c1.98-2.78 3.52-5.03 3.52-8.59 0-.99-1.08-4.48-1.08-4.49l.84-.26Zm15.58-5.82s1.5.9 2.59.85c.58-.03 1.25-.22 1.86-.55.54-.3 1.02-.69 1.31-1.16.32-.52.53-.98.66-1.51.13-.55.18-1.2.18-2.1 0-1.86-.16-3.32-.16-3.32l.88-.09s.16 1.53.16 3.41c0 .97-.06 1.68-.21 2.3-.15.64-.4 1.17-.77 1.77s-.97 1.11-1.64 1.47c-.72.39-1.54.63-2.24.66-1.37.06-3.06-.96-3.07-.96l.44-.77Z"/><path d="M38.59 48.42s-2.16 3.79-2.53 5.36c-.17.73-.3 1.69-.38 2.72-.1 1.21-.15 2.51-.15 3.59 0 1.68.64 9.05.86 11.53h-.88c-.23-2.56-.86-9.86-.86-11.53 0-1.11.05-2.42.15-3.67.09-1.06.22-2.07.41-2.85.4-1.71 2.61-5.58 2.62-5.6l.77.43Zm-9.84-17.46c-.07.34-.35.89-.8 1.38-.33.36-.77.7-1.29.91-.64.26-1.52.52-2.33.58-.67.05-1.3-.03-1.77-.34-.52-.35-1.05-.85-1.49-1.56-.35-.57-.64-1.28-.81-2.13-.33-1.74-.61-4.48-.76-5.91v-.12c-.08-.64-.5-2.09-.95-3.59-.47-1.58-.95-3.23-1.08-4.17-.12-.87-.28-1.68-.48-2.38-.19-.67-.41-1.22-.65-1.62-.21-.35-.62-.64-1.18-.83-.6-.21-1.35-.32-2.22-.3-.63.02-1.4 0-2.17-.05-.79-.04-1.53-.1-2.09-.14-.82-.07-1.76 0-2.62.27-.7.22-1.33.56-1.77 1.07-.36.41-.7 1.14-1.01 1.94-.48 1.27-.84 2.68-.95 3.27-.12.65-.52 1.35-.87 1.98-.24.43-.46.82-.53 1.07-.12.43 0 1.06.09 1.66.04.24.08.48.11.72.04.37-.01 1.83-.07 3.57-.09 2.34-.19 5.2-.11 6.52.07 1.13.17 2.07.32 2.96s.34 1.72.61 2.65c.54 1.87 2.32 5.68 2.33 5.69l.02.04s2.19 6.54 2.36 8.5c.12 1.46-.03 5.12-.14 7.67-.04.84-.07 1.56-.08 2.02-.04 1.58-.48 7.23-.65 9.32h-.89c.16-2.03.61-7.8.66-9.35.01-.49.04-1.2.08-2.03.11-2.52.26-6.14.14-7.56-.15-1.8-2.15-7.82-2.3-8.27-.13-.28-1.83-3.93-2.37-5.79-.28-.97-.48-1.84-.64-2.75-.15-.91-.25-1.88-.33-3.05-.09-1.34.02-4.24.11-6.6.06-1.7.12-3.12.08-3.44-.02-.21-.06-.43-.1-.67-.12-.69-.24-1.42-.08-2.04.1-.36.34-.8.61-1.28.32-.57.68-1.21.77-1.71.12-.63.49-2.1.99-3.42.33-.88.73-1.7 1.17-2.2.56-.64 1.33-1.07 2.17-1.33.97-.3 2.04-.39 2.95-.31.58.05 1.34.11 2.06.14.75.04 1.51.07 2.1.05.98-.02 1.84.1 2.53.35.76.27 1.32.68 1.64 1.21.28.46.54 1.09.75 1.83.21.73.38 1.59.51 2.51.12.87.59 2.48 1.05 4.03.45 1.54.89 3.02.96 3.75v.12c.16 1.42.44 4.13.76 5.84.14.74.39 1.35.69 1.83.36.58.8 1 1.23 1.28.28.19.72.23 1.21.19.72-.06 1.5-.29 2.07-.52.39-.16.71-.42.97-.69.34-.36.54-.74.58-.95l.87.17Zm-4.61 19.06c.06 3.55.03 10.44-.52 14.69 0-.02-.17-6.33-.12-8.2.07-2.26-.21-4.44.64-6.49m-2.25.89c.36 1.75.68 10.19.35 11.23-.34-3.68-.79-7.84-.35-11.23"/></g></g></g></svg>