<svg xmlns="http://www.w3.org/2000/svg" data-name="Layer 2" viewBox="0 0 86.97 56.56"><g data-name="Layer 1"><g data-name="Layer_1"><g fill="currentColor" data-name="2659736233440"><path d="m10.76 19.28-.47-.36c-.34-.25-.77-.51-1.18-.76-.44-.27-.86-.52-1.15-.75-.26-.21-.85-.82-1.46-1.48-.68-.74-1.41-1.55-1.75-1.98-.23-.28-.63-.44-1.08-.49-.54-.06-1.12.03-1.59.25-.98.46-1.28 1.56-1.23 2.84.09 2.26 1.26 5.06 1.83 6.29.09.19.77 1.44 1.64 3.04.94 1.72 2.1 3.84 2.97 5.46.86 1.6 1.53 3.03 2.01 4.24.48 1.22.77 2.25.86 3.07.08.73.24 1.24.42 1.62.18.37.41.63.61.86.6.67 1.43 2.12 1.43 3.04-.39-.68-1.51-1.85-2.06-2.48-.23-.26-.5-.57-.73-1.04-.23-.46-.42-1.07-.51-1.91-.08-.74-.35-1.7-.8-2.85-.47-1.19-1.13-2.59-1.97-4.15-.87-1.62-2.02-3.74-2.96-5.46-.89-1.62-1.58-2.9-1.67-3.09C1.32 21.92.1 19 0 16.58c-.06-1.6.35-3 1.71-3.64.6-.28 1.36-.4 2.04-.32.66.07 1.27.33 1.65.8.33.4 1.04 1.2 1.71 1.93.6.64 1.15 1.22 1.38 1.4.23.19.63.43 1.05.68.43.26.88.53 1.25.81l.48.36c.99.75 2.46 2.11 4.55 2.5-2.08.44-3.96-.98-5.07-1.83Z"/><path d="M17.4 15.98c-.71-.42-1.34-.8-1.72-1.01-.78-.42-1.66-.93-2.43-1.41-.63-.39-1.19-.77-1.54-1.07-.36-.3-.91-.92-1.51-1.61-.75-.85-1.58-1.8-2.11-2.2-.42-.32-.92-.46-1.42-.43-.31.02-.62.1-.9.25-.28.14-.53.35-.72.61-.32.42-.51.99-.46 1.68.06.92.75 2.52.75 2.52l-.78.34s-.76-1.74-.82-2.81c-.06-.91.2-1.67.63-2.24.27-.36.62-.65 1.01-.85s.81-.32 1.24-.35c.68-.04 1.38.15 1.97.59.6.45 1.46 1.43 2.24 2.31.58.66 1.11 1.26 1.42 1.52.32.27.84.62 1.44 1 .75.47 1.63.97 2.39 1.38.43.24 1.05.6 1.75 1.02 3.45 2.05 3.73 2.39 7.51 3.45-3.49.52-5.5-1.27-7.94-2.72Z"/><path d="M31.65 18.74c-1.81-.66-3.07-.82-4.51-1.5-1.29-.62-2.71-1.4-3.36-1.78-.55-.31-1.15-.61-1.77-.9-.59-.28-1.18-.57-1.74-.88-.76-.42-2.49-1.82-3.89-2.96-.8-.65-1.49-1.21-1.81-1.43-.37-.26-.78-.42-1.17-.49-.43-.08-.84-.05-1.14.06-.26.09-.54.36-.76.72s-.37.8-.38 1.22l-.85-.02c.02-.58.22-1.16.51-1.64.32-.52.75-.92 1.2-1.08.43-.15.99-.19 1.57-.09.5.09 1.03.29 1.51.63.35.25 1.05.81 1.86 1.47 1.37 1.11 3.07 2.48 3.77 2.87.55.3 1.13.58 1.7.86.64.31 1.27.61 1.82.93.64.37 2.04 1.14 3.31 1.75 1.35.65 3.11 1.48 4.14 2.27Z"/><path d="M86.97 54.47c-3.09-3.12-6.28-5.03-9.4-6.89-3.62-2.16-7.15-4.27-10.36-8.14-2.43-2.93-6.79-5.86-11.01-8.69-2.53-1.69-5-3.35-6.99-4.96-1.36-1.1-2.64-1.91-3.71-2.49-1.06-.58-1.9-.92-2.37-1.11-.62-.24-3.95-1.56-6.69-2.69-1.61-.66-3.03-1.27-3.65-1.58-.85-.42-1.67-.92-2.47-1.5s-1.58-1.25-2.35-2.01c-.44-.44-.83-.85-1.2-1.22-.9-.94-1.66-1.72-2.37-2.23-.26-.19-.67-.28-1.09-.28-.3 0-.6.06-.86.17-.25.1-.46.25-.59.44-.11.16-.18.36-.18.6 0 .27.07.63.19 1 .11.34.27.69.47 1.01l-.71.46c-.24-.38-.43-.8-.57-1.2-.15-.45-.23-.9-.23-1.26 0-.43.12-.8.33-1.1.24-.33.57-.57.96-.73.37-.15.78-.23 1.18-.23.59 0 1.18.14 1.59.44.78.56 1.56 1.36 2.49 2.33.37.39.77.8 1.18 1.21.73.73 1.48 1.37 2.24 1.93.77.56 1.55 1.03 2.35 1.43.59.29 2 .89 3.59 1.55 2.78 1.15 6.07 2.45 6.67 2.69.5.19 1.38.55 2.48 1.15s2.43 1.43 3.84 2.57c1.96 1.59 4.41 3.24 6.92 4.92 4.27 2.86 8.69 5.82 11.19 8.85 3.11 3.76 6.58 5.83 10.14 7.95 2.41 1.44 8.62 4.75 8.97 7.62ZM5.44 29.1s-1.21.37-1.6 1.05c-.29.52-.29 1.64-.29 2.46 0 .33 0 .62-.01.81-.04.45-.42 1.05-.86 1.72-.41.63-.87 1.33-1.06 1.94-.29.92.64 3.36 1.34 5.2.16.43.32.83.44 1.19.55 1.56.94 2.95 1.58 5.27l.39 1.41c.43 1.54 1.04 2.69 1.75 3.59.71.89 1.94 2.31 2.79 2.82-1.51-.2-2.51-1.11-3.45-2.29-.78-.98-1.45-2.23-1.91-3.89l-.39-1.41c-.63-2.3-1.01-3.67-1.56-5.21-.12-.33-.27-.73-.44-1.17-.74-1.95-1.73-4.55-1.35-5.75.23-.72.72-1.47 1.15-2.14.38-.58.71-1.08.73-1.33.02-.19.01-.44.01-.74 0-.92 0-2.17.4-2.88.56-.98 2.08-1.44 2.08-1.44l.26.81Zm19.31-6.02c-.67-.71-2.11-1.14-2.12-1.14.67-.25 2.29.19 2.12 1.14m-8.63 3.51c.64.7 1.37 1.35 1.98 1.87-.84-.3-1.77-1-2.37-1.65-.35-.38-.68-.74-.97-1.03-.74-.74-1.92-1.18-1.93-1.18 1.42-.07 2.38 1 3.28 1.98Z"/><path d="M32.26 19.78c.33 0 1.05.16 1.55.44.44.25.88.58 1.16.93.3.37 1.01 1.14 1.74 1.88.6.61 1.2 1.18 1.58 1.49 1.37 1.08 3.68 2.82 5.22 3.56-1.9-.57-3.73-1.71-5.55-3.15-.41-.32-1.03-.91-1.63-1.53-.73-.74-1.46-1.53-1.77-1.92-.24-.31-.69-.93-2.3-1.7M8.14 21.5c.84-.48 2.07-.79 3.24-.44-1.65.24-2.85.73-3.21.94-.59.34-1.43 1.23-1.43 1.23.39-.7.65-1.3 1.4-1.73m-6.76-7.53c-.05.36-.02.73.08 1.08.1.38.29.74.52 1.05.09.12.25.01.4-.08l.13-.08c.17-.1.57-.28 1.03-.45.34-.13.71-.25 1.03-.32s.49-.14.56-.22c.02-.02.02-.05 0-.08-.04-.12-.26-.49-.49-.84-.19-.28-.37-.55-.48-.65l.36-.39c.14.13.36.43.57.75.25.38.49.8.54.95.08.22.07.44-.13.63-.14.14-.4.27-.82.36-.3.07-.65.18-.96.29-.42.16-.8.33-.95.41l-.11.07c-.34.22-.72.46-1.11-.05-.28-.37-.49-.79-.61-1.23-.12-.42-.15-.87-.09-1.3l.52.08Zm2.17 5.59s.65-.75 1.09-1.07c.19-.14.44-.27.7-.38.75-.33 1.69-.41 2.49-.23 0 0-1.19.24-1.59.36-1.14.36-1.74.92-2.69 1.32m.88.15c.58-.07 1.7-.76 2.3-1.02.22-.09.42-.17.62-.22-.37.69-2.22 1.66-2.92 1.23ZM2.75 37.27c-.43.31-.99.79-1.15 1.31l-.51-.16c.22-.69.86-1.16 1.34-1.5.43-.3 1.1-.73 1.5-1.15-.19.73-.66 1.13-1.18 1.5m9.79-11.16s1.42 1.09 2.58 1.58c-1.1.29-2.09-.66-2.58-1.58M2.16 38.91c.43-.22.96-.65 1.49-1.17.11.83-.78 1.18-1.49 1.17m.81-5.44s.83-.63.95-.9c.09-.19-.02-1.77-.08-2.65-.02-.3-.04-.53-.04-.6h.53c0 .07.01.28.03.56.06.93.18 2.59.03 2.9-.18.39-1.12 1.11-1.12 1.11l-.32-.42Zm1.72-23.9s.93 1.69 1.28 1.96c.14.11.27.14.39.13.14 0 .29-.06.44-.11q.27-.105.72-.3c.21-.09.46-.2.77-.33.21-.09.39-.15.54-.2.24-.08.35-.12.35-.19 0-.4-1.73-2.32-1.74-2.32l.4-.35s1.87 2.05 1.87 2.67c0 .45-.23.53-.71.69-.14.05-.31.1-.5.19-.28.12-.54.23-.77.33-.31.13-.54.23-.75.31-.18.07-.38.13-.6.14-.24 0-.48-.05-.74-.24-.43-.33-1.42-2.13-1.43-2.13l.47-.25Zm6.56 5.3c.26-.1.75-.23 1.26-.35.58-.14 1.54-.12 2.03.21-1.13-.05-2.09.21-3.15.63-.39.16-1.51 1.05-1.51 1.05.27-.58.76-1.3 1.38-1.54Z"/><path d="M10.83 16.08c1.08-.18 2.08-.79 3.05-1.11-.24.94-2.22 1.23-3.05 1.11m.32-6.35s1.36 1.18 1.79 1.34c.23.09.39.02.63-.08.15-.06.32-.14.53-.2.28-.08.57-.15.86-.22s.58-.13.82-.17q-.06-.09-.15-.21c-.34-.44-.95-1-1.22-1.19l.3-.44c.3.21.96.82 1.34 1.3.12.15.21.29.26.41.09.21.08.39-.07.52a.5.5 0 0 1-.19.09c-.27.05-.61.12-.98.2-.27.06-.56.13-.84.21-.19.06-.34.12-.47.17-.35.15-.59.25-1.02.09-.53-.2-1.94-1.43-1.94-1.43l.34-.4Zm10.64 4.44c.35-.01.69 0 .84.02l.04.4c-1.3-.29-2.32.27-3.41.73.34-.81 1.71-1.13 2.54-1.15Zm-2.16 1.4c.91 0 2.11-.39 2.92-.71-1 .93-1.64.99-2.92.71m2.56-4.75c-.07.25-.1.4-.08.52s.08.24.21.43a13 13 0 0 0 .87 1.19c.12.14.22.19.32.19.12 0 .29-.08.48-.17.23-.11.47-.22.71-.3.25-.09.49-.17.72-.2.11-.02.23-.04.32-.08.06-.03.1-.05.13-.09.01-.02.02-.05.02-.08s-.01-.06-.03-.1l.48-.21c.04.08.06.16.07.24.03.19-.02.34-.11.47-.08.11-.2.2-.34.26s-.3.1-.45.12c-.19.03-.4.09-.61.17-.22.08-.45.19-.67.29-.25.12-.47.21-.7.22-.26 0-.49-.09-.73-.37-.13-.15-.29-.36-.45-.58-.17-.22-.33-.46-.46-.66-.17-.26-.26-.44-.29-.65s0-.41.1-.73l.51.14Zm3.55 5.02c1.03-.59 1.64-.72 2.32-.68-.6.09-1.54.66-2.05.94l-.27-.27Zm.92.46c.38-.05 1.18-.47 1.5-.68-.14.34-1.11 1.02-1.36 1.05l-.14-.36Zm-3.4 4.02s1.65.3 2.44 1.24c.37.44 1.39 1.48 2.38 2.45.95.93 2.19 2.36 2.52 2.6-.92-.47-2.13-1.48-2.89-2.22-1-.98-2.03-2.03-2.42-2.49-.52-.62-1.12-1.05-2.04-1.58Zm10.51 34.29c-.91-.75-2.57-1.58-4.54-2.18-1.68-.52-3.58-.87-5.41-.87 3.89-.89 7.25-.04 9.95 3.05m8.22-37.62s3.01-3.28 3.74-4.31c.3-.43.75-1.16 1.22-1.92.63-1.03 1.3-2.13 1.75-2.68.42-.52.93-.93 1.48-1.21.55-.27 1.13-.41 1.71-.36.56.05 1.09.32 1.49.67.48.41.8.96.83 1.4l-.85.06c-.02-.23-.23-.55-.54-.82-.28-.24-.64-.43-1.01-.46-.42-.04-.85.06-1.25.27-.44.22-.85.56-1.2.99-.41.51-1.06 1.57-1.68 2.59-.47.76-.91 1.49-1.25 1.97-.84 1.18-2.11 3.16-3.54 3.78-.31.13-.56.05-.89.05Z"/><path d="M50.96 16.92c.73-1.06 1-2.6 1.3-3.59.14-.46.38-1.55.6-2.57.23-1.06.45-2.04.56-2.28.13-.3.57-.75 1.21-1.03.44-.19 1-.32 1.62-.28.69.05 1.26.3 1.71.66.54.43.91 1.02 1.13 1.59.35.92.34 2.39.34 2.91v.11c0 .2.07.93.15 1.73.04.48.24 3.96.24 3.97.08.12.61 1.65.42 2.51-.03-.32-.87-1.97-1.06-2.25-.18-.28-.2-.73-.23-1.4-.01-.27-.03-.58-.06-.96-.04-.56-.1-1.2-.16-1.79-.08-.84-.15-1.6-.15-1.81v-.11c0-.47.02-1.82-.28-2.6-.17-.45-.45-.9-.86-1.23-.32-.26-.73-.44-1.23-.48-.48-.03-.9.06-1.23.21-.44.19-.71.44-.78.6s-.28 1.11-.5 2.12c-.39 1.78-.98 5.15-2.74 5.97"/><path d="M58.66 12.08c.14-.29.58-.69 1.11-.98.42-.23.9-.39 1.36-.39.5 0 .96.18 1.37.47.45.32.84.77 1.16 1.25.64.98 1.62 3.73 2.34 5.76.23.65.44 1.24.56 1.56.13.34.25.61.5.91.27.32.71.68 1.48 1.22 1.51 1.05 2.05 2.81 2.3 3.62q.045.165.09.27c.11.3.52 1.93.97 3.7.42 1.67.88 3.47 1.13 4.36.21.76.59 1.54 1.03 2.25.58.94 1.25 1.77 1.76 2.3 2.77 2.87 4.95 6.21 7.45 10.02.73 1.11 1.6 2.76 2.39 3.94l-.82-.02c-.81-1.2-1.56-2.35-2.28-3.45-2.48-3.78-4.64-7.08-7.35-9.9-.55-.57-1.26-1.45-1.87-2.45-.47-.77-.89-1.62-1.12-2.46-.26-.92-.71-2.71-1.13-4.38-.44-1.76-.85-3.37-.94-3.62-.03-.08-.06-.18-.1-.3-.22-.73-.71-2.29-1.97-3.17-.83-.58-1.31-.99-1.64-1.36-.34-.39-.49-.73-.65-1.16-.19-.5-.37-1.01-.57-1.57-.71-2-1.68-4.69-2.25-5.59-.26-.4-.58-.77-.93-1.02-.28-.2-.58-.32-.89-.32s-.66.12-.96.29c-.38.21-.67.46-.75.61l-.76-.38Zm-25.22 5.4s1.88-1.48 3.55-2.34c1.02-.52 2.35-1.51 3.45-2.33.62-.46 1.17-.87 1.57-1.13l.35-.23c.95-.62 1.51-.99 2.55-.89 1.25.11 1.92 1.45 1.92 1.46l-.75.4s-.47-.94-1.25-1.01c-.75-.07-1.23.24-2.02.76l-.36.23c-.38.25-.92.65-1.53 1.09-1.13.84-2.49 1.85-3.57 2.4-1.59.82-3.4 2.24-3.41 2.24l-.53-.66ZM50.61 7.32c-.1.1-.31.45-.51.8-.18.32-.35.63-.4.76.05 0 .11.01.2.01.22 0 .58.02.97.09.27.05.56.13.82.24.22.1.38.19.51.27.13.07.18.12.18.12.08-.07.26-.39.42-.77.13-.31.24-.65.26-.87l.53.04c-.02.29-.15.68-.3 1.04-.19.44-.44.86-.58.97-.28.22-.44.12-.78-.07-.12-.07-.27-.16-.46-.24-.22-.1-.46-.16-.7-.21-.35-.06-.68-.08-.88-.08-.22 0-.39-.03-.51-.1-.19-.11-.26-.27-.22-.5.03-.13.24-.55.47-.96.22-.38.46-.76.58-.89l.39.36Zm4.46.71s-.32 1.18-.3 1.45c.06.02.16.04.26.06l.31.04c.79.09 1.5.17 2.21.67.11.08.21.14.28.18l.02-.13c.06-.4.16-1.04.14-1.35l.53-.03c.02.37-.08 1.04-.15 1.46l-.02.16c-.06.38-.24.5-.53.45-.17-.03-.35-.15-.57-.3-.6-.42-1.25-.49-1.97-.58l-.31-.04c-.17-.02-.34-.06-.47-.14-.15-.09-.26-.22-.27-.39-.03-.32.32-1.65.32-1.65l.51.15Zm-.3 1.46"/><path d="M60.16 11.71s.07.99.12 1.31c.02.1.03.15.04.16 0 0 0-.01.02-.01s.09-.02.19-.04c.3-.06.77-.17 1.31-.09.3.04.56.12.77.18.18.05.26.12.28.11.03-.02-.21-.51-.35-.94-.06-.19-.12-.36-.16-.49l.51-.14c.03.11.09.28.15.47.2.58.44 1.3.19 1.51-.19.16-.42.09-.76 0-.19-.05-.42-.12-.7-.16-.44-.06-.86.03-1.12.08-.13.03-.22.05-.3.05-.15 0-.28-.03-.4-.14-.09-.1-.16-.24-.19-.46-.05-.33-.13-1.35-.13-1.35l.53-.04Zm-17.31 5.26s-1.59.4-2.42.88c.41-.81 1.67-1.44 2.54-1.55zm4.33.15s-.32.5-.67 1.27c-.21.46-.44 1.09-.59 1.54.02-1.01.06-2.49 1.26-2.82Zm10.5 6.77c-.04.59-.12 2.05-.04 2.24-.48-1.05-.39-2.78-.45-4.03-.06-1.41-.52-3.15-.52-3.15.93 1.35 1.1 3.33 1.01 4.94m9.32.74c.27.82.51 2.75.58 3.65 0 0-.75-2.51-1.08-3.48-.31-.93-1.85-2.72-1.85-2.73.92.57 2.01 1.55 2.35 2.56M50.12 11.58c.84.24 1.21.49 1.55 1.24 0 0-.4-.29-.68-.42-.19-.09-.62-.31-1.03-.42-.94-.27-.88-.25-1.87-.25.47-.25 1.53-.29 2.03-.15m5.91 2.04c1.18.31 1.16.49 2.02 1.29-.5-.11-.94-.59-2.15-.87-.99-.26-1.24-.12-2.3-.12.71-.27 1.43-.56 2.43-.3m5.96 2.45c.67.07 1.41.59 1.84 1.1-.41-.31-1.51-.7-2.01-.75-.42-.04-1.35.07-1.36.07.41-.38.89-.48 1.52-.42Zm-7.25-1.84s1.36.57 2.3.69c-.7.24-1.91.02-2.3-.69m-14.48 2.9c-1.24-.42-3.16-.04-3.17-.04.7-.32 2.38-.97 3.17.04m3.3-1.86c-.07-.07-.66-.41-.97-.57-.38-.2-1.54-.53-1.9-.53.8-.06 2.75 0 2.86 1.1Zm.9-4.01c-.08.03-.37.2-.65.4-.2.14-.38.28-.47.36q.09.06.21.09c.16.04.44.14.72.28.23.11.46.25.66.39.09.07.23.04.38-.04.25-.13.53-.4.75-.7l.42.32c-.27.35-.6.68-.93.85s-.66.2-.95 0c-.17-.12-.37-.24-.57-.34-.25-.12-.48-.21-.61-.24a1.1 1.1 0 0 1-.4-.17.6.6 0 0 1-.19-.2q-.09-.15-.06-.33c.01-.06.04-.11.08-.16.09-.12.36-.34.64-.54.31-.22.66-.43.8-.47l.15.51Z"/><path d="M21.46 2.07 29.19 0v1.03h8.83V0l7.74 2.07-7.74 2.07V3.12h-8.83v1.02z" style="fill-rule:evenodd"/></g></g></g></svg>