<svg xmlns="http://www.w3.org/2000/svg" id="Layer_2" data-name="Layer 2" viewBox="0 0 104.37 63.99"><defs><style>.cls-1{fill:currentColor;fill-opacity:.5}</style></defs><g id="Layer_1-2" data-name="Layer 1"><g id="Layer_1-3" data-name="Layer_1"><g id="_2659738606976" data-name="2659738606976"><path fill="currentColor" d="M44.42 6.42c.3.76.54 1.81.03 2.43 0-1.06-.54-2.2-.54-2.21l.5-.23Zm-17.73 43.8s.06-1.68-.07-2.63c-.06-.43-.16-.71-.33-.87-.16-.15-.4-.2-.76-.18-.6.03-1.95.14-3.11.29-.75.1-1.41.21-1.71.33-.94.37-1.44 1-1.44 1l-.44-.34s.59-.75 1.67-1.17c.35-.14 1.05-.26 1.84-.36 1.18-.15 2.55-.27 3.15-.3.52-.03.89.07 1.17.33.27.25.42.64.5 1.19.14.99.07 2.72.07 2.73l-.55-.02Zm9.5-.36c.42-2.38-.06-4.59-.06-4.6.71.81 1.05 3 .06 4.6m-.73-2.15s-.05 1.07-.05 1.86.09 1.13.09 1.13l-.54.11c0-1.05.04-2.14.5-3.1m7.72-40.7s-.07.77.14 1.46c.22.73.59 1.61.59 1.61-.39-.47-.95-.9-1.12-1.46-.24-.8-.16-1.67-.16-1.67l.55.05Zm-10.75 3.22s-.21 1.35.36 3c-.64-.73-1.06-2.12-.91-3.09l.54.08Zm-16.97 1.01s.4.83.86.94c.34.08 1.86.22 3.2.27.9.03 1.71.02 2.03-.09.75-.24 1.09-1 1.09-1l.5.23s-.43.98-1.42 1.3c-.39.12-1.26.14-2.21.11-1.38-.04-2.95-.19-3.31-.28-.72-.17-1.23-1.23-1.23-1.23z" class="cls-1"/><path fill="currentColor" d="M34.92 41.95s-2.4.32-2.91.31c-.95-.01-2.68-.01-4.41.11-1.68.12-3.35.36-4.21.82-1.11.59-2.12 1.33-2.87 2.05-.7.68-1.16 1.33-1.22 1.8-.07.58-.03 1.34.17 2.03.16.54.4 1.03.75 1.32.5.42 2.25.14 3.87-.12.74-.12 1.46-.24 2.05-.28 1.53-.11 3.64.1 5.32.27.46.05.88.09 1.34.13l.74.06c1.59.14 3.49.31 5 .19.96-.08 2.99.06 5.26.35 2.06.26 4.34.64 6.21 1.09 1.92.46 3.45.8 4.83.99 1.36.18 2.59.22 3.91.08l.89-.1c1.91-.22 2.34-.27 6.66.24 1.84.22 3.44.24 4.76.16 2.12-.12 3.5-.47 4.01-.64l.28.84c-.55.18-2.03.56-4.24.69-1.37.08-3.02.06-4.91-.17-4.22-.5-4.63-.45-6.46-.24l-.9.1c-1.4.15-2.69.11-4.12-.08-1.41-.19-2.97-.53-4.92-1-1.83-.44-4.08-.82-6.12-1.08-2.21-.28-4.17-.42-5.08-.35-1.58.13-3.52-.04-5.14-.19l-.74-.06c-.33-.03-.82-.08-1.35-.13-1.65-.17-3.72-.37-5.18-.27-.57.04-1.26.15-1.97.27-1.81.29-3.77.61-4.58-.07-.49-.42-.83-1.06-1.03-1.75-.23-.81-.29-1.7-.2-2.38.08-.68.64-1.51 1.48-2.33.8-.78 1.89-1.57 3.07-2.2.98-.52 2.77-.79 4.56-.92 1.74-.13 3.51-.13 4.49-.11.44 0 2.79-.3 2.79-.3l.11.87ZM19.93 10.96c.13-.47.4-.82.74-1.08.42-.31.97-.46 1.55-.45.41 0 .86.02 1.35.03.69.02 1.46.04 2.34.04 1.18 0 3.5-.19 5.7-.43 2.38-.26 5.18-.67 5.61-.83 1.33-.43 2.98-.95 4.6-1.45 3.07-.96 6.07-1.86 6.67-2 1.17-.26 9.07-1.22 9.09-1.22l.1.88s-7.88.95-9 1.2c-.56.13-3.53 1.02-6.6 1.98-2.97.93-6.02 1.9-7.04 2.27-1.01.37-3.3.88-5.59 1.31-2.58.49-5.2.89-6.03.89-.72 0-2.11-.13-3.52-.26-1.56-.14-3.14-.29-3.79-.25-.45.02-.83.3-1.1.7-.33.5-.52 1.2-.52 1.91 0 .62.36 1.31.96 1.99.7.8 1.7 1.57 2.83 2.21.96.55 2.25.9 3.53 1.09 1.56.23 3.1.21 4.06.01 1.24-.26 2.9-.34 4.15-.41.65-.03 1.18-.06 1.48-.1l.12.87c-.32.05-.88.08-1.56.11-1.23.06-2.85.15-4.02.39-1.05.22-2.71.24-4.36 0-1.38-.2-2.78-.59-3.85-1.19-1.2-.69-2.29-1.52-3.05-2.4-.74-.84-1.18-1.73-1.18-2.57 0-.88.24-1.76.67-2.4.42-.63 1.03-1.06 1.79-1.1.69-.03 2.27.11 3.85.25Zm10.98-.93c-1.98.2-3.95.35-5 .35-.76 0-1.6-.02-2.36-.04-.49-.01-.95-.02-1.34-.03-.4 0-.76.09-1.02.28q-.225.165-.36.45c1.06.09 2.03.17 2.59.17.79 0 3.33-.39 5.87-.87.55-.1 1.1-.21 1.62-.32Z" class="cls-1"/><path fill="currentColor" d="M39.13 15.1c.14.78.61 2.44.11 3.06-.15-1.34-.64-2.93-.64-2.93l.54-.13Zm-1.42 2s-.02.86.23 1.85c.25 1.01 1.02 2.49 1.02 2.5-.98-.96-2.34-2.99-1.25-4.35m-14.06 6.2c.12.26.33.89.32 1.43 0 .41-.11.77-.44.96-.49.28-1.4.64-2.32.94-.94.32-1.88.58-2.38.64-1.31.16-2.11-.91-2.11-.91l.44-.33s.61.82 1.6.7c.46-.06 1.36-.31 2.27-.61.88-.3 1.76-.64 2.22-.9.12-.07.16-.25.16-.48 0-.44-.17-.97-.27-1.19l.5-.24Zm4.59-1.97s.07 1.06.23 1.58c.16.53.94 2.49.94 2.5-.59-.82-1.17-1.38-1.46-2.33-.19-.59-.26-1.71-.26-1.71zm-.54 17.8s.25-1.35.23-2.4c0-.43-.1-.78-.22-1.03-.14-.29-.31-.45-.45-.5-.16-.05-1.15-.12-2.18-.17-1-.05-2.02-.08-2.36-.04-.29.03-.64.3-.95.7s-.55.92-.63 1.45c-.18 1.15.02 2.31.02 2.31l-.54.1s-.21-1.26-.02-2.49c.1-.63.39-1.23.74-1.7.4-.51.89-.87 1.33-.91.36-.04 1.41 0 2.43.04 1.07.05 2.11.13 2.32.2.27.08.57.34.79.78.16.32.27.74.28 1.26.02 1.11-.23 2.5-.23 2.5l-.54-.09Zm8.17.06c-.11.71-.85 2.5-.85 2.51l-.51-.2s.72-1.75.82-2.39c.1-.66.3-3.03.3-3.04.13.92.39 2.25.25 3.12Zm-.7-3.46s-.82 1.55-.96 2.21c-.05.25-.08.55-.09.85-.02.52-.08 1.48-.07 1.55-.21-.87-.56-1.61-.38-2.51.17-.82.87-1.53 1.5-2.1m1.44 3.25c.72-1.73.88-4.76.88-4.77.45.9.36 3.95-.88 4.77m3.76-24.67s.62.67.84 1.63c.22.92.16 3.04.16 3.04-.35-1.05-.42-1.84-.67-2.92-.19-.82-.74-1.39-.75-1.39l.41-.36Zm12.7 16.4c-1.42.42-2.62.8-3.55 1.12-.99.33-1.64.58-1.88.72l-.42-.77c.29-.16.99-.43 2.02-.78.92-.31 2.14-.7 3.58-1.13 2.92-.87 5.1-2.32 5.1-2.32-1.4 1.8-2.5 2.47-4.86 3.17Z"/><path fill="currentColor" d="M57.51 24.68c-1.97 1.16-5.66 3.34-4.89 5.65l-.84.28c-.99-2.98 3.09-5.4 5.28-6.69l.61-.36c1.75-1.08 3.42-3.38 3.43-3.39-.78 2.36-1.49 3.26-3.59 4.51"/><path fill="currentColor" d="M35.71 16.58s1.37-2.36 3.73-3.61c.5-.26 1.35-.72 2.39-1.29 3.62-1.96 9.67-5.23 12.46-6.43 2.88-1.25 3.86-2.02 4.89-2.84.23-.18.46-.36.71-.55.78-.59 1.7-1.07 2.78-1.4.97-.3 2.07-.47 3.3-.47 1.32 0 2.49.29 3.57.9 1.06.61 2.03 1.54 2.96 2.84.98 1.37 3.29 4.22 5.72 7.02 1.92 2.21 3.91 4.37 5.36 5.72 1.68 1.56 3.66 3.54 5.57 5.45s3.75 3.75 5.1 4.98c1.32 1.21 3.04 2.53 4.76 3.71 1.8 1.24 3.99 3 5.36 3.65-3.16-1.08-6.45-2.81-10.71-6.71-1.38-1.26-3.22-3.1-5.13-5.01-1.92-1.92-3.91-3.91-5.54-5.43-1.48-1.38-3.5-3.56-5.43-5.78-2.44-2.8-4.77-5.68-5.77-7.09-.85-1.19-1.72-2.04-2.68-2.58-.94-.54-1.96-.79-3.13-.79s-2.15.15-3.04.43c-.97.3-1.8.73-2.5 1.26-.25.19-.47.36-.69.54-1.08.85-2.1 1.66-5.09 2.95-2.73 1.18-8.77 4.45-12.39 6.4-1.05.57-1.89 1.02-2.4 1.29-2.14 1.13-3.33 3.08-3.33 3.09l-.81-.27Z"/><path fill="currentColor" d="M67.08 5.34s-2.39-.6-4.83 0c-2.41.6-5.94 2.49-8.84 4.05l-.31.16c-1.54.83-4.18 2.05-6.7 3.12-2.38 1.02-4.67 1.91-5.83 2.23-1.59.43-3.48 1.66-5.04 2.68-.66.43-1.27.83-1.77 1.11-1.04.59-3.66 2.02-6.18 3.29-1.57.79-3.11 1.52-4.19 1.94-1.11.43-1.93.73-2.67 1-1.4.52-2.49.92-3.36 1.32-.11.05-.2.13-.27.23-.16.24-.22.59-.2 1.01.03.45.16.97.39 1.47.34.73.89 1.44 1.62 1.93 1.05.7 2.15 1.02 3.26 1.12 1.14.1 2.29-.03 3.43-.23 3.02-.55 5.04-1.06 6.94-1.8 1.91-.74 3.72-1.7 6.31-3.15l.13-.07.14.02s2.14.3 4.7-.51c2.63-.84 5.49-2.01 5.5-2.01l.11-.04.12.02s4.76.83 8.15-.61l.13.81c-3.29 1.4-7.51.81-8.3.69-.55.22-3.06 1.22-5.44 1.98-2.35.75-4.38.62-4.93.57-2.56 1.43-4.37 2.39-6.3 3.13-1.96.76-4.02 1.28-7.11 1.84-1.2.22-2.43.35-3.66.24-1.25-.11-2.49-.48-3.67-1.27-.88-.59-1.53-1.43-1.93-2.3-.28-.61-.44-1.23-.47-1.79-.03-.6.08-1.15.35-1.55.16-.24.37-.43.63-.55.9-.42 2.01-.83 3.43-1.35.84-.31 1.78-.66 2.66-1 1.04-.4 2.55-1.12 4.11-1.91 2.48-1.25 5.09-2.69 6.14-3.27.49-.28 1.08-.66 1.72-1.08 1.61-1.05 3.56-2.32 5.29-2.79 1.11-.3 3.36-1.18 5.71-2.19 2.5-1.07 5.11-2.28 6.63-3.09l.31-.16c2.94-1.58 6.53-3.5 9.04-4.13 1.95-.49 3.59-.24 5.04.85Zm7.12 6.31c1.12 1.22 2.51 2.59 3.74 3.73 1.51 1.4 4.71 4.78 5.45 6.61-.27-.35-1.11-1.21-2.16-2.24-1.22-1.2-2.69-2.61-3.89-3.72a71 71 0 0 1-3.79-3.78c-2.08-2.27-2.12-3.39-3.61-5.55 2.01 1.7 2.55 3.09 4.26 4.96Z"/><path fill="currentColor" d="M53.23 34.07s-3.75-1.2-5.21-1.43c-.54-.08-.91-.06-1.26-.04-.61.04-1.15.07-2.29-.36-.85-.32-1.68-.61-2.73-.85s-2.31-.44-4.02-.57c-3.38-.27-5.89.27-5.9.27l.31-.85s2.13-.58 5.66-.29c1.75.14 3.05.34 4.14.59s1.96.55 2.84.88c.96.36 1.41.33 1.92.3.39-.02.81-.05 1.45.05 1.64.26 3.94 1.02 5.07 2.3Zm-31.12-1.24c-1.03.82-1.81 1.69-2.15 2.66-.33.93-.24 1.96.46 3.15.16.28.47.42.8.49.39.08.83.06 1.18.03.47-.04 2.02-.14 3.44-.19.91-.03 1.77-.04 2.26 0 .94.09 2.29.62 3.66 1.16.48.19.97.38 1.49.58 1.57.58 2.56.69 3.39.78l.27.03c.57.07 1.88.32 3.5.9 1.05.38 2.24.89 3.45 1.58.4.23.92.54 1.44.84 2.5 1.47 4.99 2.94 7.11 2.99 1.46.03 3.62-.18 5.6-.38 1.8-.18 5.64-.44 6.98.76-2.64-.22-4.28-.14-6.89.12-2 .2-4.19.42-5.7.38-2.35-.05-4.94-1.58-7.54-3.11-.44-.26-.88-.52-1.43-.83-1.17-.67-2.3-1.16-3.31-1.52-1.54-.55-2.77-.79-3.31-.86l-.27-.03c-.88-.1-1.93-.22-3.59-.83-.45-.17-.98-.38-1.51-.59-1.31-.52-2.6-1.03-3.41-1.1-.45-.04-1.27-.03-2.16 0-1.39.04-2.92.14-3.38.19-.42.04-.94.06-1.44-.04-.56-.11-1.08-.37-1.39-.9-.85-1.43-.95-2.72-.53-3.89.4-1.14 1.29-2.14 2.43-3.05l.55.69Z"/><path fill="currentColor" d="M56.21 47.67s2.48.49 4.49 1.24c.5.19 1.18.46 1.95.78 2.21.9 5.24 2.14 7.37 2.59 2.44.52 4.8.5 7.35.49h1.32c3.62 0 7.66 1.59 11.45 3.71 3.42 1.92 7.39 4.29 9.7 7.5-2.57-2.06-6.43-4.65-10.14-6.73-3.67-2.06-7.56-3.61-11.01-3.61h-1.32c-2.6.02-5.01.03-7.53-.5-2.19-.47-5.26-1.72-7.51-2.64-.76-.31-1.42-.58-1.93-.77-1.94-.73-4.33-1.2-4.34-1.2l.16-.87Zm35.55 5.85c2.86 1.11 4.91 2.74 6.9 4.74 0 0-3.32-2.23-6.62-3.51-3.26-1.27-6.07-1.45-6.07-1.45 2.31-.24 4.15-.37 5.79.23ZM59.03 26.41s1.25-.65 2.41-1.71 2.33-2.79 2.33-2.79c-.23 1.84-2.76 4.81-4.74 4.5m-8.9-5.68s-.43 2.76.03 3.76l-.81.36c-.49-1.09.2-3.37.78-4.12m-11.25 3.05s.03 1.91.67 3.33l-.8.24c-.4-1.03-.44-2.93.13-3.57m10.53 21.31s2.01.26 2.87.26h.34c.68.03 1.55-.08 2.91-.94-1.3 2.4-4.15 1.71-6.12.68m24.02-6.93c-1.78 1.22-3.07 1.14-4.73 1.28 0 0 2.14-.6 4.03-1.89 1.87-1.27 4.81-6.22 4.82-6.23-.92 2.35-2.05 5.43-4.12 6.84M61.12 17.95c-1.17 1.21-2.22 3.7-2.65 5.34l-.96.6c.43-1.63 1.94-5.35 3.61-5.93Zm11.21-2.89s.89 2.87 3.1 5.28c-1.63.19-4-3.91-3.1-5.28m7.48 35.17s2.69-.42 4.18-1.91c1.13-1.14 1.72-3.07 2.25-5.14.12 2.43-.55 4.7-1.62 5.77-1.26 1.04-3.19 1.3-4.81 1.29ZM54.6 17.49s-.86 3.18-.36 4.93c-1.27-.65-.58-3.95.36-4.93m-47.43.66c1.53 2.86 4.39 4.73 7.52 5.39v.7c-3.61-.72-6.97-2.72-8.59-5.74l-.98.33.5-3.08 2.94 1.95-1.38.46Zm0 21.35c1.53-2.86 4.39-4.73 7.52-5.39v-.7c-3.61.72-6.97 2.72-8.59 5.74l-.98-.33.5 3.08 2.94-1.95-1.38-.46ZM0 27.73s1.16 1.34 2.68 1.32c.79-.01 1.26-.33 1.72-.65 1.56-1.07 3.42-1.07 4.98 0 .46.32.92.64 1.72.65 1.52.02 2.68-1.32 2.68-1.32-.35 1.31-1.23 2.08-2.69 2.06-1.02-.01-1.58-.4-2.13-.78-1.2-.83-2.94-.83-4.14 0-.55.38-1.11.76-2.13.78-1.46.02-2.34-.75-2.69-2.06"/></g></g></g></svg>