<svg xmlns="http://www.w3.org/2000/svg" data-name="Layer 2" viewBox="0 0 93.04 52.46"><g data-name="Layer 1"><g data-name="Layer_1"><g fill="currentColor" data-name="2660043456864"><path d="M46.86 10.16c-1.47 1.28-7.02 2.04-9.07 1.44-.3-.09-1.49-.38-3-.75-2.6-.64-6.12-1.51-7.61-1.95-.76-.23-1.48-.49-2.18-.73-1.62-.58-3.1-1.11-4.97-1.13-1.01 0-2.42-.02-3.81-.02h-3.73c-1.06 0-2.29.18-3.47.44-1.64.36-3.21.86-4.18 1.23-.84.32-1.72.78-2.43 1.26-.65.44-1.15.88-1.33 1.23-.18.34-.23 1.09-.19 1.87.05.85.21 1.72.44 2.18.18.36.64.68 1.25.93.75.31 1.7.51 2.65.58.75.06 1.83.09 2.89.1 1.56.01 3.11-.02 3.55-.05.63-.04 2.98.48 5.32 1 .66.15 1.3.29 2.11.46l1.42.3c2.48.52 5.21 1.1 7.48 1.81 1.13.36 2.59.88 4.05 1.44 2.07.79 4.18 1.64 5.44 2.17.89.37 4.06 2.88 4.08 2.89-1.62-.15-2.77-1.38-4.42-2.07-1.26-.52-3.35-1.38-5.42-2.16-1.46-.56-2.9-1.08-4-1.42-2.24-.71-4.95-1.27-7.4-1.79l-1.42-.3c-.52-.11-1.33-.29-2.12-.47-2.28-.51-4.56-1.01-5.07-.98-.45.03-2.02.06-3.61.05-1.1 0-2.21-.04-2.96-.1-1.03-.08-2.07-.3-2.91-.65-.79-.33-1.41-.78-1.7-1.35-.28-.57-.48-1.57-.53-2.53-.05-.93.03-1.84.29-2.33.26-.48.86-1.04 1.62-1.55.77-.52 1.71-1.01 2.61-1.35 1-.38 2.61-.9 4.3-1.27 1.24-.27 2.53-.46 3.66-.46h3.73c1.39 0 2.8.01 3.81.02 2.02.02 3.57.57 5.26 1.18.66.24 1.35.48 2.13.72 1.48.44 4.99 1.3 7.57 1.94 1.51.37 2.71.67 3.03.76 2.01.59 6.88-.1 8.82-.6Z"/><path d="M13.24 17.09s2.93 4.29 4.1 5.18c.39.29.79.68 1.26 1.12 1.05.99 2.4 2.27 4.31 3.25 2.8 1.44 6.4 4.73 8.14 6.31l.13.12c.4.36.8.75 1.24 1.18 1.55 1.5 3.52 3.4 5.32 4.32 1.99 1.02 5.55 2.5 6.67 4.32-.93-.53-2.35-1.21-3.83-1.93-1.09-.53-2.22-1.08-3.24-1.6-1.91-.99-3.93-2.93-5.52-4.47-.46-.44-.88-.85-1.22-1.16l-.13-.12c-1.71-1.56-5.25-4.8-7.94-6.18-2.04-1.04-3.43-2.37-4.52-3.39-.45-.42-.84-.79-1.19-1.06-1.29-.99-4.28-5.36-4.29-5.38l.73-.5ZM47.92 5.62c-2.14-.22-6.54-.67-8.86-.86-1.37-.11-2.4-.11-3.23-.02-.82.09-1.45.26-2.04.5-.52.21-1.2.91-1.78 1.66-.62.82-1.22 1.94-1.2 2.28l-.76-.22c-.04-.55.52-1.64 1.26-2.6.66-.86 1.48-1.67 2.15-1.94.66-.27 1.37-.47 2.28-.57.89-.1 1.97-.1 3.4.02 2.25.18 6.71.64 8.88.86 1.98.2 3.29.2 5.28-.32-1.4 1.46-3.53 1.39-5.37 1.2ZM14.99 6.83s-2.26-2.29-4.08-3.16c-.82-.39-1.66-.49-2.42-.36-.8.14-1.52.53-2.02 1.11-.4.46-.54.92-.5 1.35.05.55.37 1.06.77 1.44l-.6.64c-.54-.51-.98-1.22-1.05-2-.06-.65.13-1.35.72-2.01.64-.72 1.53-1.22 2.54-1.39.93-.16 1.95-.04 2.95.44 1.95.93 4.32 3.33 4.33 3.34l-.63.62Z"/><path d="M93.04 20.31c-1.62-.32-7.4-1.55-9.16-2.76-1.1-.75-2.49-2.05-3.94-3.4-1.21-1.13-2.47-2.3-3.59-3.19-1.16-.92-2.21-1.33-3.42-1.81-1.34-.53-2.87-1.13-5-2.55-1.27-.85-2.27-1.62-3.16-2.32-1.92-1.5-3.33-2.59-5.97-3.15-1.78-.38-3.07-.27-4.7-.14l-.61.05c-.93.07-2.41.22-3.92.38-1.42.15-2.88.33-3.95.48-1.9.26-3.27.63-4.25 1.01-1.28.5-1.84 1.02-2.04 1.38l-.77-.44c.28-.49.98-1.16 2.49-1.76 1.03-.41 2.47-.79 4.45-1.07C46.57.87 48.04.7 49.47.54 51.01.37 52.5.23 53.42.16l.61-.05c1.69-.14 3.03-.24 4.94.16 2.84.6 4.32 1.75 6.33 3.31.88.68 1.86 1.45 3.11 2.28 2.05 1.37 3.54 1.95 4.83 2.46 1.28.5 2.37.93 3.64 1.94 1.17.93 2.43 2.1 3.65 3.23 1.43 1.33 2.79 2.6 3.84 3.32 1.58 1.08 6.88 2.22 8.67 2.58v.9Zm-30.9 3.81s5.98 3.53 11.16 4.92c2.96.79 6 1.63 8.6 3.28 0 0-3.18-.91-8.83-2.43-4.53-1.22-8.79-3.94-10.94-5.78Zm15.01 17.26c-4.19-.89-15.35-1.86-15.38-1.87 3.17-.28 12.86-.27 15.38 1.87m-37.62-1.79s1.05 2.6 2.51 4.13c1.14 1.2 4.36 1.95 7.01 2.57.6.14 1.16.27 1.75.42 1.39.36 2.7.68 4.36 1 1.64.31 3.62.62 6.36.94 3.84.46 7.56.23 10.39.06 1.2-.07 2.25-.14 3.08-.14 1.43 0 2.35.03 3.37.18 1 .14 2.1.4 3.88.83 1.64.4 3.71.82 5.6 1.15 1.87.33 4.17.72 5.21.84v.89c-1.05-.11-3.44-.51-5.36-.86-1.89-.34-3.98-.76-5.66-1.17-1.75-.43-2.82-.68-3.8-.82-.96-.14-1.85-.17-3.24-.17-.83 0-1.85.06-3.03.13-2.87.17-6.63.4-10.55-.06-2.76-.33-4.76-.64-6.42-.95-1.65-.32-2.98-.64-4.41-1.01-.47-.12-1.08-.26-1.73-.41-2.76-.64-6.12-1.43-7.45-2.82-1.58-1.65-2.69-4.4-2.69-4.41l.82-.33Z"/><path d="M60.66 5.47c.7.33 1.1.77 1.64 1.35.57.61 1.72 1.71 2.38 2.09-1.15-.29-2.17-.85-2.94-1.68-.49-.53-.99-.95-1.56-1.22-.89-.42-2.93-.52-2.93-.52 1-.48 2.37-.52 3.42-.03Zm-4.03 2.11s1.28 1.15 1.88 1.23c1.27.18 2.27.67 2.59 1.28-1.14-.48-2.14-.66-2.84-.76-.86-.12-1.45-1.01-1.63-1.75m-12.29 7.37s1.16.24 3.04.3c.96.05 1.74.24 2.41.49.66.25 1.2.55 1.7.84.35.2.77.48 1.2.77.78.52 1.63 1.08 2.22 1.3-1.67.03-3.79-1.58-5.39-2.18-.6-.22-1.26-.47-2.14-.52-1.1-.06-2.57-.3-3.04-.99Zm-32.9-6.34s-.58 1.5-.68 2.26c-.06.46-.13 1.15-.13 1.77 0 .43-.02 1.52.06 1.73-.4-.89-.56-2.5-.43-3.47.12-.86.61-1.67 1.17-2.29ZM2.3 9.3s1.32-.38 2.19-.49c.47-.06.79-.06 1.02.03.29.11.43.31.51.62.06.24.07.96.05 1.78-.02.83-.08 1.76-.15 2.36-.07.53-.32.9-.62 1.16-.48.41-1.11.53-1.37.56-.16.02-.69.13-1.24.24-.67.14-1.36.28-1.52.28v-.55c.12 0 .78-.14 1.41-.27.57-.12 1.11-.23 1.3-.25.2-.02.69-.12 1.06-.43.21-.18.39-.44.43-.81.07-.6.13-1.51.15-2.31.02-.77.01-1.43-.04-1.63-.03-.13-.08-.21-.16-.24-.14-.05-.38-.05-.76 0-.83.11-2.1.47-2.11.47l-.16-.53Zm5.23-6.15s2.17 1.57 2.6 2.04c.5.54.37 1.5.37 1.51l-.55-.05s.09-.74-.22-1.09C9.34 5.14 7.22 3.6 7.22 3.6l.32-.45Zm14.11 9.13c-.35 1.53-.04 2.96 0 3.58 0 0-.19-.23-.36-.69-.09-.25-.18-.9-.21-1.58-.02-.53.03-1.15.11-1.54.2-.86 1.47-3.2 1.47-3.2-.19.79-.84 2.64-1.02 3.43Zm5.41 8.33s-.72 1.44-1.51 2.07c-1 .8-2.28 1.22-3.48 1.63.77-.39 2.55-1.58 3.14-2.06.69-.56 1.36-1.88 1.36-1.89zm-2.27-.29s-.88.63-1.61 1.27c-.71.61-1.94 2.35-1.95 2.35.4-1.02.88-2.08 1.75-2.83.76-.66 1.5-1.24 1.5-1.24l.31.46Zm-.64-9.51s-.3 1.15-.37 1.81c-.04.42-.06.79-.08 1.12-.01.22-.02.41-.04.58-.34 1.69-1 2.97-1.01 2.97.29-1.29.57-3.24.6-3.75.05-1.07.14-1.91.88-2.72ZM35.9 4.53c-1.06.76-2.26 2.69-2.26 4.03-.52-1.58.62-3.21 1.81-4.11zm-.05 26.85s0 1.48.21 2.31.83 2.23.83 2.23c-1.5-1.51-1.76-2.42-1.04-4.54m-15.3-20.22s-.25 1.1-.25 1.72-.07 2.27.09 2.85c-.17-.25-.5-1.41-.56-1.69-.14-.71.13-2.41.72-2.89Zm25.23 7.72s1.55 1.05 3.43 1.54c1.35.35 3.84.91 4.38 1.8-1.47-.57-2.78-.66-4.78-1.19-1.86-.48-2.45-1.35-3.03-2.16Zm-4.77 15.23c.65.44 2.21 1.69 3.44 2.39.87.5 2.48.51 3.8.52 1.19 0 3.44.62 4.15 1.36-1.57-.35-2.56-.57-4.16-.58-1.41-.01-3.12-.03-4.17-.62-1.26-.71-2.26-1.88-3.06-3.06Zm8.82-.69c-.7-.25-1.72-.59-2.54-.81-.81-.22-2.24-.39-2.89-.37 2.17-.63 3.75-.66 5.44 1.18Zm20.9-19.13s6.13 3.18 10.26 2.9c-1.97 1.67-8.38-1.4-10.26-2.9m-34.6-8.93c-.6.75-1.18 2.45-1.26 3.39-.11-1.42-.17-2.58 1.26-3.39"/></g></g></g></svg>