<svg xmlns="http://www.w3.org/2000/svg" data-name="lock" viewBox="0 0 599.835 254.122"><path fill="currentColor" d="M386.612 115.158a9 9 0 0 0-1.473 1.739 13 13 0 0 0-1.048 2.12 18 18 0 0 0-.724 2.303 7.6 7.6 0 0 0-.357 2.346.059.059 0 0 0 .116.016 17 17 0 0 0 .527-2.212 18 18 0 0 1 .685-2.173 14 14 0 0 1 .996-2.05 14 14 0 0 1 1.367-2c.051-.061-.03-.146-.089-.089m1.238-.035c-.592.189-.884.957-1.12 1.475-.28.619-.534 1.248-.8 1.874a16 16 0 0 0-.643 1.767 7.3 7.3 0 0 0-.435 1.882.086.086 0 0 0 .169.023c.203-.574.25-1.212.439-1.797a13 13 0 0 1 .739-1.851 8 8 0 0 1 1.054-1.567c.364-.426.958-.903 1.004-1.495a.324.324 0 0 0-.408-.311m1.442 1.114a4.7 4.7 0 0 0-1.196 1.768c-.148.307-.257.626-.385.941-.069.17-.13.342-.199.511a.7.7 0 0 0-.045.49.06.06 0 0 0 .107.014.8.8 0 0 0 .156-.414 4 4 0 0 1 .104-.535 5 5 0 0 1 .408-.992c.313-.615.803-1.114 1.167-1.693.049-.077-.055-.138-.117-.09m1.127 1.528-.191.32a1.4 1.4 0 0 0-.09.158l-.076.175c-.01.022.018.051.037.029l.117-.143a1.4 1.4 0 0 0 .105-.158l.2-.322c.04-.064-.063-.124-.102-.059m-20.113-8.903a2.85 2.85 0 0 0-1.991.335 15 15 0 0 0-1.868 1.18 17 17 0 0 0-1.694 1.342 8.4 8.4 0 0 0-1.522 1.587c-.017.026.017.061.042.043a20 20 0 0 0 1.503-1.363 15.5 15.5 0 0 1 1.798-1.391 8.6 8.6 0 0 1 1.95-.902 6.2 6.2 0 0 0 1.798-.772c.022-.018.007-.051-.016-.06m2.591 1.125a.94.94 0 0 0-.785.154 8.4 8.4 0 0 1-1.055.53c-.626.237-1.255.458-1.868.73a18.7 18.7 0 0 0-3.64 2.153c-.027.02-.002.067.028.047a29 29 0 0 1 3.572-2.015 16 16 0 0 1 1.995-.841 4.7 4.7 0 0 1 1.085-.173 1 1 0 0 0 .75-.272.19.19 0 0 0-.082-.313m-1.35 2.777a6.25 6.25 0 0 0-2.638 1.364c-.017.014.005.043.024.03a16 16 0 0 1 2.632-1.35c.026-.012.007-.049-.018-.044m4.306-1.629a2 2 0 0 0-.626.199q-.296.123-.588.253c-.396.176-.783.371-1.179.548-.012.006-.003.025.01.022.413-.115.832-.211 1.246-.325q.3-.084.596-.174c.107-.032.211-.071.316-.109a1.1 1.1 0 0 0 .301-.133c.11-.081.089-.289-.076-.281m1.828 1.973a6 6 0 0 0-1.183.117 8 8 0 0 0-1.221.276 11 11 0 0 0-1.13.432 8 8 0 0 0-1.078.622c-.039.025-.014.098.033.079a30 30 0 0 1 2.266-.801q.557-.175 1.117-.342c.399-.118.812-.18 1.207-.306a.04.04 0 0 0-.01-.077m-.131 2.363c-.024.01-.004.045.019.034a1.6 1.6 0 0 1 .88-.13c.014.002.02-.02.006-.023a1.6 1.6 0 0 0-.906.12m-10.185-24.64a3.37 3.37 0 0 0-1.645-.623q-.97-.248-1.935-.517c-1.36-.38-2.724-.75-4.074-1.166a84 84 0 0 1-8.054-2.933c-.022-.01-.043.023-.02.033a102 102 0 0 0 7.722 3.29c1.324.497 2.659.981 4.012 1.394.676.206 1.356.4 2.037.59a3.45 3.45 0 0 0 1.866.278.21.21 0 0 0 .091-.346m-1.924 1.971a28 28 0 0 0-3.21-.925c-.483-.093-.966-.05-1.444-.151a14 14 0 0 1-1.59-.51q-3.045-1.053-6.038-2.249c-.033-.013-.046.04-.014.053 1.982.835 3.984 1.62 6.014 2.333.488.172.986.322 1.463.522.54.227.967.61 1.51.836a22 22 0 0 0 3.07.959.45.45 0 0 0 .24-.868m-.772 3.078a2.5 2.5 0 0 0-1.183-.494c-.534-.133-1.074-.238-1.607-.376a26 26 0 0 1-2.918-.974 54 54 0 0 1-2.993-1.311 11.3 11.3 0 0 0-2.942-1.036.031.031 0 0 0-.024.057 10.9 10.9 0 0 0 2.813 1.34c1 .356 2.007.688 3.005 1.05 1.002.363 2.003.724 2.99 1.127.81.33 1.91 1.02 2.803.827a.126.126 0 0 0 .056-.21m-2.679 1.987a34 34 0 0 0-6.104-2.258c-.033-.01-.058.043-.024.057a59 59 0 0 0 6.106 2.251c.03.009.05-.036.022-.05m2.994.415a2.8 2.8 0 0 0-.726-.117q-.331-.021-.662-.021c-.24-.002-.479-.018-.719-.02-.015 0-.015.021 0 .023a3.3 3.3 0 0 1 .742.154 4.4 4.4 0 0 1 .616.278 6 6 0 0 0 .667.335.6.6 0 0 0 .36.048c.085-.023.191-.085.203-.178.036-.277-.265-.427-.481-.502m-.943 2.624a4.3 4.3 0 0 0-.734-.21q-.416-.092-.833-.18l-1.637-.35c-.048-.01-.07.063-.02.075l1.625.39.798.19a4.3 4.3 0 0 0 .788.136c.025 0 .039-.04.013-.051m-1.674 2.573a.008.008 0 0 0 0 .015h.128a.008.008 0 0 0 0-.015Zm30.807-26.311c-.435 1.755-.906 3.5-1.28 5.271a26 26 0 0 0-.826 5.208.098.098 0 0 0 .192.026 29 29 0 0 0 1.167-5.193c.32-1.756.556-3.525.845-5.285.01-.063-.082-.092-.098-.027m4.172-.618c-.313 1.287-.626 2.574-.915 3.868q-.215.953-.425 1.904a6 6 0 0 0-.286 1.877.043.043 0 0 0 .08.022 5.6 5.6 0 0 0 .476-1.746c.134-.663.26-1.328.39-1.992.255-1.305.486-2.614.717-3.923.005-.025-.031-.036-.037-.01m-1.775 9.323a250 250 0 0 0-1.421 4.835c-.227.808-.44 1.618-.629 2.436a3.45 3.45 0 0 0-.158 2.128.17.17 0 0 0 .264.034c.516-.493.511-1.483.62-2.148.13-.803.254-1.607.388-2.41.272-1.63.599-3.253.997-4.858a.031.031 0 0 0-.06-.017m4.251-2.703q-.988 4.49-2.075 8.957c-.722 2.963-1.678 5.93-2.142 8.946a.055.055 0 0 0 .106.029 70 70 0 0 0 2.264-8.913q1.012-4.488 1.922-8.998c.01-.049-.064-.07-.075-.02m1.597 7.39c-1.203 5.105-2.538 10.208-3.45 15.375-.008.044.055.063.067.018 1.377-5.063 2.342-10.25 3.429-15.38.006-.03-.039-.043-.046-.013m.236 10.619q-.726 2.534-1.348 5.096c-.199.822-.39 1.646-.563 2.474a17 17 0 0 0-.44 2.514c-.001.037.051.04.062.009a23 23 0 0 0 .557-2.473c.182-.86.363-1.72.554-2.578q.563-2.526 1.23-5.027a.027.027 0 0 0-.052-.015m1.437 6.649c-.266 2.268-.73 4.498-1.05 6.756-.006.039.05.057.06.017a43 43 0 0 0 1.022-6.773c.001-.02-.03-.02-.032 0m.492 7.531a22.6 22.6 0 0 1-.607 3.96.023.023 0 0 0 .045.013 17.2 17.2 0 0 0 .6-3.974c.002-.025-.037-.025-.038 0m-186.458-12.068a.084.084 0 0 0-.112-.03l-.329.192a.06.06 0 0 0-.02.08.06.06 0 0 0 .08.021l.351-.15a.08.08 0 0 0 .038-.05.08.08 0 0 0-.008-.063m-35.738 58.539-.257-.383-.513-.765c-.02-.029-.066-.002-.047.028l.51.784.252.385a2.6 2.6 0 0 0 .26.37c.02.02.047-.006.037-.029a2.6 2.6 0 0 0-.242-.39m3.375-7.867a72 72 0 0 0-3.653-6.815.031.031 0 0 0-.054.032c1.106 2.288 2.312 4.526 3.421 6.812 1.104 2.275 2.05 4.653 3.238 6.884a.027.027 0 0 0 .05-.022 53.5 53.5 0 0 0-3.002-6.891m3.893.334a12 12 0 0 1-.506-1.357 7 7 0 0 0-.622-.981 103 103 0 0 0-2.76-4.288.004.004 0 0 0-.006.004c.754 1.492 1.56 2.958 2.342 4.435.159.3.274.635.442.928.003.009.002.018.009.026l.014.02c.016.026.026.057.043.083a4 4 0 0 0 .261.325c.092.125.196.239.276.371a9 9 0 0 1 .466.865c.013.029.058.008.05-.02l-.023-.063a19 19 0 0 0 .94 1.815c.05.075.189.029.154-.065a18 18 0 0 0-1.08-2.098m-15.628-9.572a10 10 0 0 0-.811-.68q-.469-.38-.96-.729c-.026-.018-.058.024-.034.043q.42.332.817.69c.266.24.495.514.756.759q.097.09.192.181c.046.045.116.106.184.066.144-.085-.086-.27-.144-.33m10.733-6.425a26 26 0 0 0-2.52-1.868q-1.312-.923-2.632-1.837a258 258 0 0 0-5.415-3.631c-.055-.036-.104.05-.051.088 1.754 1.23 3.497 2.477 5.248 3.712q1.271.895 2.536 1.798a31 31 0 0 0 2.725 1.879c.087.048.187-.07.109-.141m.272-3.328c-.005-.009-.019-.001-.013.008a2.36 2.36 0 0 0 1.365 1.026.012.012 0 0 0 .006-.022 2.34 2.34 0 0 1-1.358-1.012m5.958 1.165-.677-.184a.023.023 0 0 0-.012.045l.68.177a.02.02 0 0 0 .01-.038m39.693-49.672c-.004-.044-.072-.046-.07 0 .087 4.663.27 9.31.706 13.954.009.089.142.092.141 0-.058-4.666-.37-9.306-.777-13.954m1.757 2.894a.04.04 0 0 0-.078 0 53 53 0 0 0 1.261 14.148c.018.071.139.059.13-.017-.508-4.708-1.145-9.393-1.313-14.131m-19.131 23.488a51 51 0 0 0-1.157-3.023c-.795-1.923-1.564-3.852-2.415-5.752-.217-.484-.343-.989-.52-1.485a5.6 5.6 0 0 0-.933-1.346c-.667-.93-1.193-1.975-1.78-2.955a207 207 0 0 1-3.41-5.88c-.043-.076-.153-.01-.115.066a202 202 0 0 1 2.828 5.94c.492 1.073 1.08 2.137 1.484 3.248a6.7 6.7 0 0 0 .539 1.511c.278.423.635.785.9 1.222a53 53 0 0 1 3.014 5.477 40 40 0 0 1 1.229 3.07c.338.95.57 1.95.965 2.876.033.077.17.039.16-.043a13.6 13.6 0 0 0-.789-2.926m-.996-8.028c-.018-.04-.088-.011-.07.03.895 2.138 1.719 4.308 2.571 6.464.016.04.082.025.068-.019a50 50 0 0 0-2.569-6.475"/><path fill="currentColor" d="M599.736 23.616a38.5 38.5 0 0 0-5.195-2.277c-1.76-.58-3.55-1.076-5.318-1.63-3.612-1.132-7.204-2.335-10.744-3.678-3.386-1.285-6.68-2.83-10.116-3.98a37.2 37.2 0 0 0-10.881-1.741c-7.752-.212-15.535.028-23.287.17-7.714.14-15.428.326-23.143.468-2.466.045-4.933.075-7.4.11-2.896-.045-5.796-.034-8.703-.05q-9.924-.053-19.844-.33-19.84-.556-39.64-1.996-9.813-.717-19.607-1.655c-6.48-.617-13.064-1.013-19.387-2.656-5.76-1.496-11.304-3.658-17.274-4.217-5.297-.496-10.856.15-15.568 2.753-8.66 4.783-11.92 14.996-17.748 22.407a60 60 0 0 1-2.273 2.732c-.507.248-1.007.51-1.515.755a277 277 0 0 1-30.842 12.664q-7.887 2.684-15.935 4.853c-4.632 1.25-9.366 2.2-13.908 3.76-3.954 1.36-7.95 3.35-10.786 6.5-2.967 3.296-4.08 7.453-4.416 11.742-.085-.034-.168-.078-.254-.106a11 11 0 0 0-2.115-.343 38 38 0 0 0-4.184-.226c-2.76-.015-5.522.14-8.277.298-5.633.321-11.258.78-16.878 1.28-11.236 1.004-22.462 2.185-33.729 2.8-5.618.307-11.246.472-16.873.402a208 208 0 0 1-8.52-.295 50 50 0 0 0-8.32.024c-5.215.59-9.967 2.861-14.981 4.241-5.294 1.457-10.818 2.004-16.183 3.151a171 171 0 0 0-11.746 2.93c-3.942.53-7.846 1.35-11.776 1.97-4.045.64-8.07 1.392-12.125 1.985-8.161 1.193-16.364 2.083-24.578 2.827-8.179.74-16.369 1.356-24.552 2.049-8.167.691-16.336 1.447-24.455 2.586a152 152 0 0 0-23.893 4.995 20 20 0 0 0-2.713 1.099.114.114 0 0 0 .058.21 52 52 0 0 0 5.82-1.095q2.986-.664 5.994-1.222 6.015-1.119 12.07-2.004c8.089-1.181 16.224-1.997 24.366-2.697 8.177-.703 16.361-1.305 24.538-2.01 8.17-.704 16.339-1.486 24.465-2.597 4.053-.554 8.111-1.147 12.129-1.922 1.676-.324 3.36-.677 5.036-1.061-.856.293-1.712.59-2.572.87a189 189 0 0 0-7.763 2.698c-1.312.492-2.606 1.029-3.906 1.552a.047.047 0 0 0 .025.09c2.645-.687 5.293-1.367 7.901-2.182 2.609-.816 5.214-1.667 7.853-2.378 5.274-1.42 10.57-2.816 15.883-4.081 5.372-1.28 10.798-2.125 16.22-3.138a57 57 0 0 0 7.695-2.011c2.445-.822 4.867-1.728 7.365-2.385 5.412-1.422 10.89-.767 16.403-.575 5.57.195 11.146.136 16.713-.087 11.217-.448 22.392-1.555 33.565-2.589 5.566-.514 11.134-1.011 16.71-1.4a130 130 0 0 1 16.574-.479c.694.04 1.385.106 2.078.163a6 6 0 0 0 .86-.002c-.007.165-.022.328-.027.493a10 10 0 0 0 .053 1.265c-.028.187-.047.375-.08.562a37 37 0 0 1-1.436 6.091c-1.427 4.006-4.343 7.38-6.849 10.748l-4.154 5.582c-1.278 1.718-2.587 3.421-3.71 5.247q-.195.318-.382.645c.044-.587.086-1.173.137-1.76.084-.965.199-1.936.207-2.905.008-1.002-.041-2.014.03-3.015.004-.07-.112-.086-.124-.016-.154.95-.419 1.882-.622 2.823-.206.951-.312 1.924-.434 2.89-.125.994-.245 1.989-.383 2.982a12 12 0 0 0-.152 1.378 3 3 0 0 0 .029.316 13.96 13.96 0 0 0-1.095 6.323c-.561.21-.78.892-1.158 1.321a6.07 6.07 0 0 1-3.215 1.59c-1.36.333-2.755.514-4.099.914a19.4 19.4 0 0 0-4.225 1.857 34.3 34.3 0 0 0-7.229 5.952 77 77 0 0 0-6.691 7.859 116 116 0 0 0-6.584 10.07c-.099.17.145.298.257.15a187 187 0 0 1 6.42-8.028c-.1.267-.204.532-.303.8-.591 1.601-1.19 3.2-1.773 4.803-1.162 3.188-2.161 6.453-3.078 9.719a.16.16 0 0 0 .293.123 88 88 0 0 0 4.303-9.298c.04-.102.074-.205.114-.307l.051.23a23.4 23.4 0 0 0 1.446 3.93c1.108 2.525 2.305 4.975 3.177 7.598a79 79 0 0 1 3.265 16.766c.167 1.593.309 3.188.438 4.784.064.796.1 1.598.19 2.392a3.6 3.6 0 0 0 .416 1.314c-.244-.116-.483-.244-.729-.357a54 54 0 0 0-13.038-4.203c-5.061-.9-10.21-1.033-15.314-1.544a55.2 55.2 0 0 1-14.275-3.328 85 85 0 0 1-8.144-3.677 18 18 0 0 0-1.277-2.232 76 76 0 0 1-1.498-2.755c-.467-.902-.884-1.829-1.352-2.73a21 21 0 0 0-.727-1.31l1.442-.793.727-.4c.055.126.107.253.167.378.242.504.477 1.013.731 1.511.5.977 1.053 1.925 1.595 2.878.025.045.107.014.086-.036-.582-1.38-1.171-2.745-1.844-4.083q-.208-.413-.428-.818c.833-.458 1.66-.924 2.493-1.383.496.824.852 1.763 1.28 2.598.639 1.245 1.292 2.48 1.95 3.714 1.29 2.415 2.536 4.913 4.016 7.216a.086.086 0 0 0 .148-.086c-1.11-2.598-2.52-5.107-3.834-7.608q-.975-1.857-1.979-3.697a14.5 14.5 0 0 0-1.388-2.244c1.432-.79 2.868-1.575 4.292-2.381 2.734-1.547 5.428-3.165 8.17-4.697a486 486 0 0 0 8.102-4.6q4.558-2.663 9.127-5.307a.027.027 0 0 0-.027-.048q-5.454 2.789-10.901 5.59c-5.937 3.018-11.823 6.14-17.87 8.93a118 118 0 0 1-11.268 4.332c-.919.314-1.842.633-2.776.9-.713.205-1.262.114-1.488-.626a5.9 5.9 0 0 1 .237-3.221l.14.152 1.088 1.144a10 10 0 0 0 1.146 1.001c.037.029.09-.027.064-.064a12 12 0 0 0-.744-.947c-.283-.323-.595-.623-.896-.93q-.345-.357-.698-.708c.09-.314.182-.62.26-.909.113-.423.243-.84.368-1.26a21 21 0 0 0 1.652 1.736 14 14 0 0 0 2.543 2.065.043.043 0 0 0 .052-.067c-.71-.817-1.544-1.522-2.325-2.269-.612-.586-1.213-1.185-1.837-1.758q.411-1.36.87-2.704a10.1 10.1 0 0 0 2.255 2.281c.48.364.95.742 1.432 1.103a4 4 0 0 1 .772.655 2.8 2.8 0 0 0 .678.638c.41.263.771-.376.379-.647a3.3 3.3 0 0 0-.77-.364 3.1 3.1 0 0 1-.841-.517 16 16 0 0 1-1.4-1.191 29 29 0 0 0-2.402-2.161l.155-.284q.473-.854.941-1.709a19 19 0 0 0 1.543 1.19 72 72 0 0 1 2.25 1.61c.019.013.04-.016.024-.03a44 44 0 0 0-2.056-1.861 11 11 0 0 0-1.627-1.155 39 39 0 0 0 1.293-2.572c1.305 1.096 2.674 2.102 4.05 3.109.677.496 1.348 1.003 2.04 1.479.348.24.702.471 1.067.683a1.75 1.75 0 0 0 .96.347c.051-.003.1-.063.065-.112a2.2 2.2 0 0 0-.754-.55 16 16 0 0 1-1.007-.64c-.711-.486-1.408-.993-2.11-1.492-1.406-.999-2.808-1.993-4.278-2.895a27.4 27.4 0 0 0 1.397-4.163c1.687 1.316 3.37 2.633 5.088 3.91l2.784 2.07a16.5 16.5 0 0 0 2.844 1.967.094.094 0 0 0 .114-.147 15.5 15.5 0 0 0-2.587-2.028l-2.802-2.04a282 282 0 0 0-5.42-3.814q.125-.462.245-.929a43.7 43.7 0 0 1 4.514-10.047 213 213 0 0 1 5.764-9.788c2.205-3.537 4.386-7.113 6.713-10.57.035-.052-.045-.094-.08-.048-2.365 3.083-4.719 6.147-6.88 9.378a274 274 0 0 0-6.106 9.588q-1.48 2.424-2.92 4.873a24 24 0 0 0-2.593 5.002c-.538 1.73-.862 3.514-1.537 5.201a44 44 0 0 1-2.424 4.792 32.7 32.7 0 0 0-2.576 5.554 13.7 13.7 0 0 0-.665 3.073q-.041.477-.043.96c-1.517-1.625-2.957-3.312-4.591-4.827a70 70 0 0 0-5.513-4.516c-.503-.38-1.015-.754-1.524-1.13-.131-.743-.33-1.478-.49-2.213a83 83 0 0 1-1.099-6.281l-.012-.077c.353-1.686.845-3.363 1.318-5.003l.114-.4a117 117 0 0 0 2.275 15.194c.008.034.059.019.053-.015a471 471 0 0 1-2.296-15.291c.247-.876.487-1.742.816-2.603q.353-.916.751-1.813.247 1.593.482 3.188.14.979.277 1.957c.043.302.06.62.124.916a6 6 0 0 0 .285.75 19.4 19.4 0 0 1 .62 3.638c.175 1.209.258 2.467.548 3.653a.051.051 0 0 0 .1-.013 30 30 0 0 0-.514-3.423c-.107-.647-.218-1.294-.324-1.941a9.3 9.3 0 0 1-.25-2.15 12.6 12.6 0 0 0-.561-3.344q-.353-1.688-.723-3.371c.166-.374.333-.749.51-1.118a66 66 0 0 1 3.24-5.87c1.325-2.161 2.584-4.372 3.946-6.511.036-.057-.049-.101-.088-.051-1.424 1.847-2.948 3.604-4.268 5.533-1.306 1.907-2.55 3.86-3.66 5.889-1.088 1.989-1.928 4.06-2.856 6.12a17.3 17.3 0 0 0-1.244 6.68 24.3 24.3 0 0 0 .539 6.201 53.4 53.4 0 0 1-6.992-5.96c-.105-.11-.199-.229-.302-.341.4-1.69.583-3.447.947-5.143.41-1.907.89-3.794 1.464-5.659.004-.014-.018-.02-.023-.006a59 59 0 0 0-1.668 5.715 29.4 29.4 0 0 0-.875 4.916 23 23 0 0 1-1.904-2.425c.452-1.557.753-3.153 1.2-4.713a45 45 0 0 1 1.587-4.6c.007-.018-.024-.031-.032-.013a44 44 0 0 0-1.74 4.562 22.4 22.4 0 0 0-1.071 4.676 21 21 0 0 1-1.231-2.1c.208-.836.344-1.694.523-2.534.237-1.112.49-2.22.772-3.32a75 75 0 0 1 1.926-6.411c.015-.041-.049-.058-.064-.018-.805 2.125-1.534 4.283-2.128 6.477a61 61 0 0 0-.777 3.197c-.16.748-.33 1.507-.43 2.271-.03-.06-.063-.115-.092-.175a29 29 0 0 1-1.052-2.55 27 27 0 0 0 .755-2.863q.363-1.465.772-2.916a82 82 0 0 1 1.874-5.845c.004-.01-.01-.013-.015-.004-.785 1.935-1.517 3.893-2.135 5.888a63 63 0 0 0-.854 3.01 18 18 0 0 0-.513 2.418 55 55 0 0 1-1.116-3.57q-.025-.086-.052-.171c.145-.537.26-1.083.394-1.62q.31-1.266.673-2.518a53 53 0 0 1 1.671-4.927c.007-.017-.021-.029-.029-.012a51 51 0 0 0-1.886 4.871 30 30 0 0 0-1.011 3.583 40 40 0 0 0-.833-2.488c-.057-.152-.323-.147-.307.042a36 36 0 0 0 1.285 6.626 30.5 30.5 0 0 0 2.517 6.413c2.309 4.222 6.191 7.166 9.962 10.008 3.775 2.846 7.651 5.601 10.899 9.063a62 62 0 0 0 4.956 5.133 37.4 37.4 0 0 0 5.902 3.933c8.461 4.753 17.266 9.583 26.922 11.322 5.06.912 10.21 1.039 15.317 1.53a54 54 0 0 1 14.062 3.172c8.609 3.26 16.115 8.593 23.537 13.921a85 85 0 0 0-10.7-1.892q-3.344-.372-6.71-.473c-1.914-.058-4.082-.127-5.728 1.012a7.86 7.86 0 0 0-2.324 2.754c.714-1.836 1.613-3.58 1.542-5.618a.05.05 0 0 0-.102 0 9.1 9.1 0 0 1-1.03 3.378c-.475.998-1.087 1.897-1.593 2.874a23 23 0 0 0-2.268 6.144 28.3 28.3 0 0 0-.525 6.258 13.7 13.7 0 0 1-.101 2.829 10.4 10.4 0 0 1-.902 2.58.118.118 0 0 0 .16.16 3.67 3.67 0 0 0 1.651-2.123 7.1 7.1 0 0 0 1.544 2.012c2.492 2.236 6.007 3.293 9.188 4.087 1.93.482 3.883.87 5.834 1.262 1.865.374 3.762.65 5.612 1.09a45 45 0 0 0 5.722.997c.605.062 1.21.153 1.806.192a91 91 0 0 1-7.916 4.016 40.4 40.4 0 0 1-10.496 3.111 50.8 50.8 0 0 1-11.4.12 92 92 0 0 1-11.01-1.56 94.5 94.5 0 0 1-20.917-6.826c-3.4-1.58-6.644-3.47-10.033-5.072a40.5 40.5 0 0 0-5.172-2.065c-1.884-.592-3.81-1.041-5.718-1.544a82 82 0 0 1-11.232-4.07c-3.512-1.498-7.145-3.036-11.009-3.167a.055.055 0 0 0-.014.107 50.6 50.6 0 0 1 9.955 4.036q.74.38 1.479.762a35 35 0 0 0-3.092-.945 52 52 0 0 0-6.962-1.279c-2.363-.281-4.74-.426-7.104-.705a57 57 0 0 1-3.475-.514c-1.195-.218-2.373-.534-3.58-.677a8.44 8.44 0 0 0-3.732.518 96 96 0 0 1-3.62 1.15 57 57 0 0 1-7.417 1.667 40.3 40.3 0 0 1-13.805-.322 21.6 21.6 0 0 1-6.556-2.65 21.1 21.1 0 0 1-5.497-4.43c-.048-.057-.15.02-.105.08a21 21 0 0 0 4.133 4.369 24.8 24.8 0 0 0 5.399 3.033 33.5 33.5 0 0 0 4.48 1.575 90 90 0 0 1-7.207-.018 63.5 63.5 0 0 1-10.04-1.321c-3.266-.674-6.506-1.482-9.812-1.941-3.06-.426-6.143-.62-9.228-.767-5.992-.285-12.094-.394-17.91-2.019a33.13 33.13 0 0 1-14.806-9.156 57 57 0 0 1-6.486-8.28c-.983-1.491-1.888-3.033-2.871-4.522-1.026-1.554-2.057-3.115-3.004-4.718a.027.027 0 0 0-.047.028c.786 1.519 1.513 3.073 2.26 4.612.711 1.465 1.532 2.882 2.372 4.276a94 94 0 0 0 1.063 1.71c-1.723-2.032-3.629-3.91-5.494-5.809-.027-.027-.067.014-.042.042 1.856 2.05 3.683 4.147 5.7 6.042h.008a63 63 0 0 0 4.282 5.936 34.54 34.54 0 0 0 13.94 10.654 35 35 0 0 0 5.773 1.651c1.974 1.399 3.827 2.969 5.733 4.456 2.137 1.668 4.354 3.48 6.946 4.378.062.021.09-.066.042-.1-2.32-1.621-4.67-3.166-6.915-4.895a64 64 0 0 0-5.265-3.726 62 62 0 0 0 6.55.839q2.486 1.935 5.024 3.804l3.403 2.515 1.801 1.331c.286.212.578.465.888.678a86 86 0 0 1-4.926.492 39 39 0 0 1-7.324-.086 26.2 26.2 0 0 1-6.83-1.912 85 85 0 0 1-12.587-6.691 110 110 0 0 1-6.51-4.454 30 30 0 0 0-5.357-3.643 14.3 14.3 0 0 1 3.718-.163c.135.015.186-.196.07-.255a13.3 13.3 0 0 0-2.817-1.094 8.6 8.6 0 0 0-3.208-.111 11.8 11.8 0 0 1-3.332.216 30 30 0 0 0-3.152-.344c-4.031-.08-8.007 1.76-11.441 3.705a44 44 0 0 0-2.929 1.807c-.957.646-1.833 1.394-2.735 2.114-.07.055.018.153.09.117 1.772-.909 3.528-1.837 5.294-2.76a30 30 0 0 1 5.519-2.293 20 20 0 0 1 5.56-.746c2.069-.01 4.072.633 6.14.337a51 51 0 0 0 1.547-.252 46.4 46.4 0 0 0 5.438 4.518q2.855 2.202 5.88 4.165a95 95 0 0 0 12.707 7 32 32 0 0 0 6.815 2.337 31 31 0 0 0 7.432.507 101 101 0 0 0 15.16-1.998 169 169 0 0 0 8.384-1.9c1.412-.355 2.816-.724 4.211-1.137a18 18 0 0 0 3.915-1.51c.018-.01.022-.028.036-.041l.158.006a37.8 37.8 0 0 0 10.467-1.192 30 30 0 0 0 6.753.235 63.3 63.3 0 0 0 15.042-3.339 6.9 6.9 0 0 1 3.682-.19q1.066.218 2.133.425c-.112.03-.228.048-.339.08a35.3 35.3 0 0 0-5.756 2.514c-1.924.96-3.84 1.937-5.757 2.908l-2.878 1.457a9 9 0 0 1-1.353.668 1 1 0 0 1-.338.032 49 49 0 0 0-2.106-.89 28.8 28.8 0 0 0-10.804-2.138 21.8 21.8 0 0 0-9.968 2.632 23.42 23.42 0 0 0-11.71 16.208 26 26 0 0 0-.36 2.612 7.6 7.6 0 0 0 .093 2.693c.47 1.67 2.158 2.738 3.53 3.633a37.2 37.2 0 0 0 9.438 4.11c3.306 1.023 6.674 1.855 9.932 3.03a76 76 0 0 1 10.242 4.67c.725.39 1.444.791 2.17 1.181a8.3 8.3 0 0 0 .813 1.326c1.93 2.514 5.098 3.555 8.052 4.315a56 56 0 0 0 10.433 1.534c3.536.222 7.081.219 10.623.223 3.724.004 7.45.023 11.174.008a31 31 0 0 0 10.49-1.518 80 80 0 0 0 9.466-4.47c6.462-3.326 12.986-6.558 19.306-10.148 5.072-2.881 10.902-6.089 13.837-11.373a14 14 0 0 0 1.197-3.017c1.081.14 2.164.27 3.248.375a64 64 0 0 0 11.532.257 37.4 37.4 0 0 0 11.985-3.194 85.6 85.6 0 0 0 10.927-6.139.5.5 0 0 0 .22-.294l.027-.012c1.548-.846 1.99-2.61 2.452-4.183a47 47 0 0 0 1.278-5.682 45 45 0 0 0 .587-11.185 5.2 5.2 0 0 0-1.882-4.015 7.5 7.5 0 0 0-2.238-.965c-.138-.04-.279-.074-.417-.114a13.6 13.6 0 0 0-2.116-2.135 128 128 0 0 0-2.797-2.07 170 170 0 0 0-5.717-3.981 94 94 0 0 0-9.582-5.608 31 31 0 0 0-.278-3.51q-.019-.216-.033-.429a229 229 0 0 0-.316-4.33c-.236-2.816-.555-5.623-1.012-8.412a67 67 0 0 0-1.893-8.393 58 58 0 0 0-3.067-7.872c-.646-1.388-1.297-2.774-1.85-4.202a45 45 0 0 1-.78-2.147c-.132-.399-.237-.798-.37-1.188.224-.61.459-1.216.678-1.828a80 80 0 0 0 .832-2.418 12.5 12.5 0 0 0 .53-1.93l.13-.151a.24.24 0 0 0 .077-.09q1.87-2.138 3.774-4.24a40.5 40.5 0 0 1 6.43-5.96 19.6 19.6 0 0 1 7.65-3.292 18.2 18.2 0 0 0 3.993-1.101 5.9 5.9 0 0 0 1.627-1.075 5 5 0 0 0 .633-.759c.01.04.016.078.028.117 1.125 3.75 4.178 6.546 5.972 9.96 1.858 3.532 2.95 7.407 4.49 11.077a36.3 36.3 0 0 0 2.719 5.303c1.04 1.654 2.16 3.261 3.25 4.883a21 21 0 0 1 2.641 5.127c.57 1.74.911 3.623 1.99 5.145 2.341 3.3 6.776 3.319 10.116 1.679a17.4 17.4 0 0 0 7.75-8.062 11.4 11.4 0 0 0 .71-2.075 8.4 8.4 0 0 0 2.165.588 6.6 6.6 0 0 0 2.959-.415c.893-.311 1.764-.667 2.671-.938.882-.263 1.773-.493 2.652-.764a11.5 11.5 0 0 0 4.612-2.427 15.6 15.6 0 0 0 3.087-4.91 42 42 0 0 0 2.276-5.76c.089-.298.144-.601.21-.903a14 14 0 0 0 1.525-2.14 26.5 26.5 0 0 0 1.961-3.84 32.2 32.2 0 0 0 2.152-8.686 25.7 25.7 0 0 0-.583-8.973 21.8 21.8 0 0 0-2.696-6.192l-.043-.087q-.888-1.6-1.8-3.186a43 43 0 0 0-1.91-2.99c-.338-.489-.672-.981-1.025-1.46a49.6 49.6 0 0 0 7.5-2.58c2.782-1.162 5.544-2.385 8.42-3.31 3.009-.968 6.146-1.449 9.162-2.39.029-.008.057-.02.086-.028a54 54 0 0 0-4.173 7.409 93 93 0 0 0-3.59 8.538q-1.57 4.358-2.71 8.855c-.789 3.112-1.502 6.202-.489 9.353a14.74 14.74 0 0 0 4.653 6.827c2.362 1.933 5.234 2.883 7.903 4.283a53 53 0 0 1 7.553 5.288q3.834 2.962 7.807 5.737a199 199 0 0 0 7.79 5.15 11 11 0 0 0-1.775.234 15.4 15.4 0 0 0-4.314 1.575 16.3 16.3 0 0 0-6.555 6.591 12.55 12.55 0 0 0-1.55 4.902 6.77 6.77 0 0 0 1.848 4.887 47 47 0 0 0 4.206 4.006l4.682 4.289a103 103 0 0 0 8.335 7.316q.224.396.453.79c2.06 3.56 3.404 7.46 5.39 11.051 2 3.615 4.84 6.585 8.884 7.805 4.264 1.286 8.819.613 12.967-.763 4.67-1.549 9.073-3.803 13.713-5.442 4.759-1.682 9.605-3.094 14.441-4.532 4.843-1.44 9.697-2.85 14.592-4.103 4.882-1.248 9.799-2.227 14.746-3.165a32.6 32.6 0 0 0 6.888-1.935 20.7 20.7 0 0 0 5.275-3.359 29.4 29.4 0 0 0 4.24-4.586.31.31 0 0 0 .343-.181 4.9 4.9 0 0 1 2.722-2.08c1.285-.519 2.64-.852 3.939-1.335a69 69 0 0 0 8.735-4.185q9.285-5.039 18.543-10.126l18.56-10.166c2.819-1.544 5.666-3.046 8.435-4.677a36.5 36.5 0 0 0 7.104-5.214 27 27 0 0 0 3.15-3.846 11.9 11.9 0 0 1 3.37-3.551 17.5 17.5 0 0 1 4.248-1.806q1.507-.444 3.024-.849c3.591 1.397 6.844 3.571 10.4 5.083 2.412 1.025 4.94 1.75 7.34 2.8a45 45 0 0 1 6.585 3.847 45 45 0 0 0 6.693 3.683c2.36 1.03 4.781 1.9 7.183 2.823a84 84 0 0 1 7.786 3.466c1.287.65 2.557 1.334 3.841 1.99 1.286.655 2.644 1.168 3.916 1.853.22.12.485-.183.28-.362-.979-.851-1.91-1.757-2.932-2.559a27 27 0 0 0-3.24-2.088 59.5 59.5 0 0 0-7.097-3.4c-4.889-2.002-9.895-3.57-14.381-6.433a70 70 0 0 0-6.586-4.045c-2.396-1.18-4.957-1.956-7.447-2.907a70 70 0 0 1-6.912-3.354 23.5 23.5 0 0 0-7.01-2.64 24.8 24.8 0 0 0-7.865.051 17.1 17.1 0 0 0-7.264 3.062.023.023 0 0 0 .024.04 21.44 21.44 0 0 1 13.777-1.833c.345.08.677.187 1.014.285a14.1 14.1 0 0 0-5 1.097 11.2 11.2 0 0 0-3.44 2.397 42 42 0 0 0-2.913 3.817c-3.752 4.852-9.59 7.58-14.84 10.463q-18.877 10.364-37.744 20.748a86 86 0 0 1-9.984 5.055c-1.178.465-2.644.848-3.912 1.467q.44-.717.856-1.441a22 22 0 0 0 1.235-2.652c.073-.179-.198-.323-.32-.186-2.68 3.001-4.705 6.533-7.56 9.396a23.3 23.3 0 0 1-4.67 3.711 22.6 22.6 0 0 1-6.189 2.355c-2.322.558-4.687.912-7.03 1.367-2.418.47-4.825.999-7.221 1.572-4.835 1.157-9.625 2.494-14.396 3.889-4.768 1.393-9.53 2.809-14.268 4.302-2.346.74-4.67 1.546-6.96 2.447-2.236.88-4.425 1.875-6.647 2.787-4.105 1.686-8.424 3.065-12.916 2.633a14 14 0 0 1-2.133-.394c-.235-.405-.505-.785-.737-1.207a17.5 17.5 0 0 1-1-2.32 13.9 13.9 0 0 0-2.143-4.24 24 24 0 0 1-1.778-2.144 12 12 0 0 1-1.2-2.447 16.6 16.6 0 0 1-.901-5.206 27.6 27.6 0 0 1 .499-6.09c.007-.038-.051-.055-.06-.016a21.1 21.1 0 0 0-.185 10.593 14.6 14.6 0 0 0 2.291 4.74 18 18 0 0 1 1.581 2.317 20 20 0 0 1 1.014 2.45 21 21 0 0 0 1.088 2.621q.155.297.326.577a11.6 11.6 0 0 1-2.322-1.128 13.4 13.4 0 0 1-3.873-4.04c-2.138-3.292-3.35-7.067-5.255-10.483a46 46 0 0 0-1.71-2.812 25.5 25.5 0 0 0-2.051-2.535 43 43 0 0 0-4.508-4.765 27 27 0 0 0-2.347-1.873c-.05-.034-.098.04-.062.08 1.469 1.647 2.945 3.277 4.32 5.007-.655-.605-1.315-1.204-1.97-1.804l-8.629-7.906a12.5 12.5 0 0 1-3.132-3.585c-.752-1.583-.297-3.342.304-4.895a14.63 14.63 0 0 1 5.07-6.447 14.44 14.44 0 0 1 8.87-2.807 22.3 22.3 0 0 0 3.556 1.783c.297.112.593.194.89.276q.473.2.953.377a17.6 17.6 0 0 0 .56 6.046c.01.034.059.02.053-.015a46 46 0 0 1-.576-6.019q.446.164.9.29a22 22 0 0 0 2.561.549q.015.31.034.62.043.63.092 1.26a14.6 14.6 0 0 0 .256 2.356 6.2 6.2 0 0 0-.617 1.804.216.216 0 0 0 .393.165c1.296-2.147 3.78-3.55 6.059-4.395 1.4-.518 2.841-.914 4.24-1.434a23 23 0 0 0 4.051-2.007 35 35 0 0 1 3.649-2.01c1.2-.55 2.434-1.018 3.659-1.506a22.7 22.7 0 0 0 6.944-3.87 11.9 11.9 0 0 0 2.58-3.343c.067.847.136 1.696.241 2.544.027.217.34.298.407.055a16.3 16.3 0 0 0 .41-7.547 47 47 0 0 0-2.55-7.407c-1.927-4.976-3.869-9.948-5.885-14.89q-1.498-3.673-3.066-7.316c-1.032-2.391-2.146-4.75-3.137-7.16a27.5 27.5 0 0 1-1.96-7.306 50 50 0 0 1-.168-7.328c.085-2.774.3-5.543.368-8.318a38.6 38.6 0 0 0-.763-8.151c-.01-.052-.099-.04-.092.012a38.5 38.5 0 0 1-.032 7.342c-.144 2.477-.432 4.941-.685 7.408a42.8 42.8 0 0 0 .026 11.087q-.724-1.253-1.4-2.533c-.998-1.894-1.945-3.814-2.984-5.686a36 36 0 0 0-3.25-4.987 21.4 21.4 0 0 0-3.973-3.73 12.5 12.5 0 0 0-2.605-1.564 18 18 0 0 0-2.999-.869.035.035 0 0 0-.018.068 10 10 0 0 1 1.227.51q2.235 3.14 4.36 6.357 1.049 1.59 2.063 3.204c.69 1.1 1.3 2.298 2.083 3.333a.068.068 0 0 0 .118-.069 30 30 0 0 0-1.993-3.248q-1.06-1.655-2.15-3.29-2.116-3.168-4.375-6.234a19.3 19.3 0 0 1 3.408 2.318 23.2 23.2 0 0 1 3.58 3.946 70 70 0 0 1 6.042 10.407 74 74 0 0 0 1.674 3.06q.127.219.259.459c-.73-.204-1.462-.401-2.192-.608q-2.659-.753-5.301-1.565-5.341-1.64-10.607-3.514c-6.86-2.442-13.502-5.524-20.513-7.513-.91-.258-1.777-.614-2.67-.912a6.3 6.3 0 0 1-2.351-1.272 16.1 16.1 0 0 1-3.2-4.257c-.013-.023-.054-.007-.044.018a18.7 18.7 0 0 0 1.955 4.235 14.4 14.4 0 0 0 1.843 2.165c-.328.196-.646.406-.97.635a17 17 0 0 1-1.777.98 22.6 22.6 0 0 1-3.67 1.543c-2.864.943-5.859 1.4-8.747 2.257-5.422 1.61-10.434 4.371-15.899 5.856a27.3 27.3 0 0 1-6.514.951q-.49-.382-.979-.767c-.337-.268-.673-.539-1.014-.803a4.4 4.4 0 0 0-.995-.677 29 29 0 0 0-1.257-3.6 31 31 0 0 0-2.702-5.206 147 147 0 0 1-1.59-2.418.098.098 0 0 0-.168.099 55 55 0 0 1 2.568 5.708 37 37 0 0 1 1.79 5.704 23 23 0 0 1 .606 5.954c-.058 1.775-.117 4.13-1.598 5.339-.751.613-1.606 1.114-2.392 1.683q-1.15.833-2.257 1.721a45 45 0 0 0-4.2 3.8 35.3 35.3 0 0 0-5.036 6.521c-.184.137-.366.278-.55.414a14 14 0 0 1-1.969 1.26 11.45 11.45 0 0 1-4.654 1.233 31.4 31.4 0 0 1-5.49-.297 23.5 23.5 0 0 1-5.346-1.13c-.021-.008-.034.025-.015.036a16 16 0 0 0 5.457 2.061 29 29 0 0 0 5.867.536 11.3 11.3 0 0 0 2.705-.435.7.7 0 0 0 .112.086 1.3 1.3 0 0 0 .344.126c.22.058.443.096.666.145a5 5 0 0 0 .737.14 1 1 0 0 0 .11-.007l-.006.017c-.765.21-1.528.547-2.27.763-.926.27-1.857.518-2.803.709a27.2 27.2 0 0 1-6.179.517c-.01 0-.01.015 0 .016a33 33 0 0 0 6.136-.271 26 26 0 0 0 3.065-.595c.575-.153 1.226-.313 1.832-.537a28 28 0 0 0-.624 1.956 52 52 0 0 1-1.133.51c-.825.355-1.653.717-2.504 1.006a11.6 11.6 0 0 1-5.265.635c-.007 0-.008.01-.002.012a12.1 12.1 0 0 0 5.164-.337 21 21 0 0 0 2.6-.86q.497-.204.988-.42a26 26 0 0 0-.501 2.416 7 7 0 0 1-1.024.42 17 17 0 0 1-1.657.394 29 29 0 0 1-3.627.463.012.012 0 0 0 0 .024 17.2 17.2 0 0 0 3.52-.384 26 26 0 0 0 1.772-.469c.324-.096.655-.168.985-.244a24 24 0 0 0-.242 2.767 1 1 0 0 0-.144.053 1.3 1.3 0 0 0-.155.105 1 1 0 0 0-.144.126.035.035 0 0 0 .05.05 1 1 0 0 1 .139-.1.7.7 0 0 1 .161-.06q.044-.01.087-.016a20.04 20.04 0 0 0 2.896 11.295c.118.19.261.365.387.552a5.6 5.6 0 0 1-.884-.098.027.027 0 0 0-.014.053 4.4 4.4 0 0 0 .977.158 19 19 0 0 0 2.056 2.542c-.435-.017-.873-.014-1.306-.039a15 15 0 0 1-1.977-.248c-.03-.006-.042.037-.012.045a14 14 0 0 0 1.915.344 7.6 7.6 0 0 0 1.538.059 16.6 16.6 0 0 0 4.067 3.005 18.65 18.65 0 0 1-6.155 8.164c-2.71 1.914-7.26 3.268-9.63.045-1.032-1.403-1.31-3.211-1.846-4.83a26.7 26.7 0 0 0-2.42-5.053c-.955-1.624-2.082-3.142-3.107-4.721a35 35 0 0 1-2.721-5.013c-1.553-3.529-2.638-7.244-4.3-10.727a31 31 0 0 0-2.859-4.798 31 31 0 0 1-3.047-4.662c-1.756-3.68-.587-7.784 1.358-11.13a55 55 0 0 1 3.462-5.028q2-2.693 3.997-5.388c2.431-3.276 5.181-6.505 6.937-10.213a20.8 20.8 0 0 0 1.952-8.263 16 16 0 0 0 .225-2.092 35 35 0 0 1 .301-3.815 17.4 17.4 0 0 1 2.068-6.303 10 10 0 0 0 1.318 2.025c.014.017.042-.005.03-.023a6.1 6.1 0 0 1-.936-2.618l-.003-.045c.148-.223.318-.423.478-.633q.075.084.144.176c.25.329.471.682.71 1.02a10.8 10.8 0 0 0 3.183 3.33c.689.391 1.452.667 2.16 1.024a25 25 0 0 0 2.375 1.036 26.4 26.4 0 0 0 5.55 1.576c.02.003.036-.024.015-.036q-.201-.113-.401-.228l-.002.003c.282.19.238.148-.031.045q-.434-.167-.873-.315-.769-.256-1.54-.505a36 36 0 0 1-3.41-1.271 11.1 11.1 0 0 1-2.7-1.535 51 51 0 0 0-2.253-1.785 7.3 7.3 0 0 1-2.146-2.32c-.121-.223-.23-.511-.37-.762a15 15 0 0 1 1.233-1.309 4.3 4.3 0 0 0 .814 1.307 14.5 14.5 0 0 0 1.635 1.54 18 18 0 0 0 1.953 1.423.041.041 0 0 0 .05-.064c-.551-.541-1.1-1.086-1.657-1.62a20 20 0 0 1-1.504-1.531 4.2 4.2 0 0 1-.874-1.422 24.2 24.2 0 0 1 7.262-4.13 117 117 0 0 1 13.058-3.682q7.944-2.05 15.74-4.63a272 272 0 0 0 30.45-12.147q7.43-3.492 14.656-7.397c4.741-2.56 9.328-5.5 14.256-7.694a30.3 30.3 0 0 1 7.667-2.297 33 33 0 0 1 8.07-.126c5.392.497 10.757 1.887 16.186 1.895 1.33.002 2.672-.11 3.999-.2a.047.047 0 0 0 0-.093 50 50 0 0 1-8.367-.963c-2.733-.446-5.444-1.018-8.177-1.463-5.4-.878-10.912-1.279-16.211.355q-.752.234-1.489.506c-1.125-.225-2.27-.387-3.39-.612q-2.26-.455-4.503-.99a.014.014 0 0 0-.008.026q2.264.626 4.557 1.127c.958.21 1.941.438 2.925.608a44 44 0 0 0-3.147 1.34q-.175-.024-.35-.043-.414-.047-.827-.098c-.007 0-.008.01-.002.011q.41.083.818.169l.197.04q-1.54.731-3.048 1.536a.15.15 0 0 0-.149-.045.043.043 0 0 0-.025.063 7.5 7.5 0 0 0-1.04-.014 4.4 4.4 0 0 1-1.363-.29 4.4 4.4 0 0 0-1.119-.201 37 37 0 0 1-1.176-.188 30.5 30.5 0 0 1-4.515-.995 38 38 0 0 1 7.422-9.393c4.099-3.468 9.444-4.809 14.728-4.771 5.938.043 11.426 1.936 17.046 3.629 6.153 1.854 12.44 2.57 18.81 3.236 6.524.683 13.06 1.255 19.6 1.765q19.617 1.53 39.291 2.175 9.833.318 19.672.415c3.28.032 6.56.06 9.839.04 2.195-.014 4.394-.025 6.587-.127l1.102-.015c7.715-.123 15.429-.302 23.143-.448 7.71-.146 15.42-.26 23.13-.25a45 45 0 0 1 11.212 1.017 82 82 0 0 1 9.956 3.7c3.887 1.561 7.848 2.93 11.838 4.203q3.053.973 6.125 1.883a34 34 0 0 0 6.162 1.052.208.208 0 0 0 .104-.386M147.121 137.973a25.3 25.3 0 0 1 .121-5.685c.043-.28.104-.559.157-.839.069.61.127 1.22.215 1.827.16 1.113.358 2.22.583 3.322.175.862.335 1.757.592 2.61-.557-.41-1.11-.823-1.668-1.235m25.576 20.155q-1.297-.703-2.585-1.416l-.844-1.15q-.44-.594-.882-1.185c.503-.361 1.024-.7 1.553-1.027.072.143.133.292.208.434.437.828.889 1.654 1.38 2.452a23 23 0 0 0 1.412 2.021zm1.4.75c-.147-.243-.295-.484-.435-.73-.45-.79-.902-1.58-1.366-2.361a70 70 0 0 1-1.324-2.294l-.316-.57a74 74 0 0 1 1.715-.977c.054.131.104.243.11.254q.181.335.365.667c.213.39.444.767.675 1.145.478.784.967 1.562 1.417 2.363s.904 1.598 1.334 2.41c.278.525.52 1.13.828 1.671q-1.51-.775-3.003-1.579m-93.274 48.89a134 134 0 0 1-9.324 1.584 7 7 0 0 0-1.019-.785l-1.809-1.32-3.517-2.564q-2.458-1.794-4.953-3.535c1.642.125 3.286.22 4.922.295l.95.044c1.374.99 2.678 2.081 4.016 3.114l2.823 2.18q.749.581 1.506 1.15c.387.29.782.716 1.289.717a.075.075 0 0 0 .071-.094c-.132-.49-.644-.758-1.025-1.058q-.685-.538-1.38-1.065l-3.012-2.295c-.96-.73-1.915-1.465-2.891-2.172q-.311-.225-.631-.442 2.262.104 4.522.254c1.543 1.185 3.083 2.373 4.639 3.54l1.618 1.215a20 20 0 0 0 1.63 1.195c.642.384.79-.444.371-.39-.018.002-.024.02-.037.028a3.3 3.3 0 0 1-.49-.367l-.653-.477c-.435-.316-.876-.626-1.314-.937l-2.469-1.75c-.968-.685-1.948-1.354-2.925-2.027.913.064 1.826.125 2.737.217.533.054 1.062.13 1.593.202.94.665 1.844 1.386 2.752 2.086a205 205 0 0 0 2.486 1.877c.488.365.981.78 1.494 1.154-.657.138-1.312.29-1.97.425m2.822-.61c-.59-.503-1.28-.923-1.888-1.37-.889-.65-1.776-1.301-2.674-1.938-.728-.517-1.455-1.04-2.205-1.521a82 82 0 0 1 4.561.83 90 90 0 0 0 1.776 1.328l1.99 1.442c.293.212.599.465.92.693-.827.178-1.653.36-2.48.536m4.525-.977c-.44.1-.883.19-1.324.285-.393-.33-.858-.607-1.257-.882l-2.084-1.436c-.403-.278-.814-.545-1.222-.815q1.012.214 2.024.435c1.337.293 2.677.564 4.022.802.326.21.645.43.968.644.2.132.395.268.598.393.068.042.141.092.214.14-.648.139-1.295.287-1.94.434m3.682-.775c-.44.074-.879.167-1.317.257a2.2 2.2 0 0 0-.303-.356 6 6 0 0 0-.538-.469l-.085-.06c1.125.177 2.254.332 3.39.435zm72.682 1.459c-.057.049-.117.094-.173.146-.201.184-.385.387-.578.58l-.177-.095q-.466-.259-.918-.542c-.605-.378-1.193-.781-1.792-1.168a21 21 0 0 0-.695-.426 31 31 0 0 0 3.148 1.162q.592.178 1.185.343m-17.56-3.045a13 13 0 0 0 .864-1.001c.864.07 1.729.134 2.59.226a44.6 44.6 0 0 1 7.86 1.66.137.137 0 0 0 .173-.113q.255.101.503.22l.234.107a16 16 0 0 1 1.763 1.089c.571.398 1.13.815 1.705 1.206.276.187.581.412.902.594-.207.211-.422.413-.625.627q-.257.273-.513.549c-.667-.498-1.42-.923-2.109-1.35a38 38 0 0 0-3.127-1.75 52 52 0 0 0-6.338-2.63c-.034-.012-.047.04-.015.052a49 49 0 0 1 6.266 2.94q1.425.794 2.81 1.648c.736.456 1.441.999 2.176 1.47a10 10 0 0 0-.504.603 3.7 3.7 0 0 0-.366.62 32 32 0 0 0-2.137-.413 13.8 13.8 0 0 0-2.409-1.506 34 34 0 0 0-2.832-1.411 41 41 0 0 0-5.83-1.983.022.022 0 0 0-.012.042 39 39 0 0 1 5.738 2.315 49 49 0 0 1 2.625 1.374c.548.312 1.088.685 1.639 1.022a37 37 0 0 0-4.652-.297 22 22 0 0 1-.431-.206 40 40 0 0 0-1.351-.64 43 43 0 0 0-5.322-2.026c-.025-.007-.034.03-.01.038a76 76 0 0 1 4.045 1.689q.95.433 1.881.905l.491.25a42 42 0 0 0-3.67.227q-.539-.203-1.078-.401-1.332-.484-2.672-.939c-.019-.006-.032.024-.014.032q1.289.546 2.591 1.057.38.15.762.294c-.777.091-1.552.195-2.32.327a43 43 0 0 0-4.488 1.033 14 14 0 0 1 .946-1.705 42 42 0 0 1 1.616-2.475 38 38 0 0 1 1.717-2.278q.454-.554.927-1.092m-20.306 2.437q.413-.211.825-.427c1.336 1.283 2.753 2.48 4.16 3.683q1.114.952 2.237 1.893a17 17 0 0 0 2.26 1.777.086.086 0 0 0 .103-.135 17.3 17.3 0 0 0-2.173-1.957q-1.15-.978-2.315-1.94c-1.378-1.145-2.753-2.296-4.194-3.361 1.714-.892 3.42-1.81 5.203-2.554a21 21 0 0 1 3.135-1.023c.532-.129 1.068-.225 1.602-.341l.04-.008q2.41.295 4.829.511c1.195.108 2.392.195 3.59.285-.387.44-.745.915-1.09 1.339a39 39 0 0 0-1.94 2.586q-.882 1.294-1.653 2.66a4.3 4.3 0 0 0-.662 2.403.12.12 0 0 0-.048.068 39.5 39.5 0 0 0-4.796 1.851c-.9-.065-1.81-.064-2.716-.057-.146-.154-.309-.294-.45-.432q-.525-.515-1.064-1.014a45 45 0 0 0-2.352-2.027 50 50 0 0 0-4.123-2.97zm-1.718.875a58 58 0 0 1 4.176 3.21q1.117.952 2.191 1.956.538.5 1.062 1.016.095.094.192.199-.598.006-1.19 0-1.08-.01-2.16-.015l-.065-.057q-.491-.437-.992-.862a39 39 0 0 0-2.054-1.645 30 30 0 0 0-3.783-2.467zm-2.844 1.447c.717.568 1.456 1.11 2.183 1.668a72 72 0 0 1 2.762 2.246q.577.49 1.137.999c-.509.004-1.029.025-1.54-.014a13 13 0 0 0-1.14-.94q-1.048-.79-2.13-1.535a47 47 0 0 0-2.137-1.396c-.177-.109-.36-.208-.539-.314zm-2.212 1.147q.398.266.8.527 1.102.715 2.184 1.462.107.076.213.154l-.189-.112q-1.223-.696-2.472-1.346c-.31-.16-.628-.303-.941-.458q.206-.114.405-.227m-20.081 27.3a72 72 0 0 1-8.64-2.87 30.5 30.5 0 0 0 5.35 1.148 30 30 0 0 0 3.375.214c.572.004 1.151-.046 1.722-.018a4.4 4.4 0 0 0 1.753.078.88.88 0 0 1 .69-.07 3 3 0 0 1 .81.474c.534.376 1.08.734 1.63 1.085 1.027.653 2.088 1.253 3.118 1.901a62 62 0 0 1 3.341 2.233 9.6 9.6 0 0 1 1.378 1.112 2.2 2.2 0 0 1 .549 1.03 56 56 0 0 0-15.076-6.318m17.363 7.926q-.933-.726-1.913-1.375a3.35 3.35 0 0 0-.674-1.914 7.9 7.9 0 0 0-2.247-1.99 36 36 0 0 0-6.579-3.835c-.535-.22-1.1-.354-1.632-.58-.533-.227-.713-.745-1.342-.842a11.4 11.4 0 0 0-1.875.089c-.63.014-1.259.02-1.889 0a29.8 29.8 0 0 1-7.187-1.116 33 33 0 0 1-3.902-1.383c-.78-.332-1.564-.728-2.36-1.065a3.8 3.8 0 0 1-.937-.965 4.37 4.37 0 0 1-.204-2.582 21.65 21.65 0 0 1 9.7-16.305 20.36 20.36 0 0 1 8.923-3.132 25.1 25.1 0 0 1 10.39 1.39 42 42 0 0 1 5.57 2.363c1.8.907 3.492 2.005 5.278 2.928 1.92.992 4.245.643 6.334.6.652-.015 1.313-.011 1.976-.01a32 32 0 0 0-3.891 2.723 33.8 33.8 0 0 0-9.902 13.614 29.5 29.5 0 0 0-2.03 8.274 14.5 14.5 0 0 0 .393 5.113m47.551 6.951a66 66 0 0 1-10.467.339c-3.502-.005-7.004.01-10.506-.022a94 94 0 0 1-11.018-.598c2.446.083 4.887.007 7.336-.142 1.507-.093 3.018-.15 4.526-.235q1.08-.061 2.158-.125a23 23 0 0 1 2.418.063 29.4 29.4 0 0 0 4.701-.289 53 53 0 0 0 4.433-.707 16.6 16.6 0 0 1 4.965-.409 9.3 9.3 0 0 1 2.589.716 3.75 3.75 0 0 1 1.43.83 22 22 0 0 1-2.565.58m43.204-22.823a36.5 36.5 0 0 1-6.586 4.945c-5.844 3.596-11.989 6.679-18.085 9.815-3.094 1.592-6.176 3.212-9.29 4.762a41 41 0 0 1-6.139 2.558 3.8 3.8 0 0 0-1.034-.61c-.708-.298-1.436-.561-2.156-.832a18 18 0 0 0-2.274-.79 11.3 11.3 0 0 0-4.442.297c-1.701.296-3.416.499-5.132.683-.803.085-1.61.14-2.412.226-.833.09-1.63.322-2.452.447-1.633.249-3.347.221-4.996.304-3.258.162-6.512.141-9.772.045-2.313-.068-4.592-.324-6.87-.618a31 31 0 0 1-2.167-.72 9.36 9.36 0 0 1-3.602-2.254 7.2 7.2 0 0 1-1.673-3.367 17.4 17.4 0 0 1 .5-7.982 31.27 31.27 0 0 1 18.027-21.086l.154-.028a.47.47 0 0 0 .249-.15 37 37 0 0 1 3.987-1.423c11.794-3.47 25.637-1.792 34.808 6.9a38 38 0 0 1 2.885 2.95c.04.047.118-.014.086-.066a24.5 24.5 0 0 0-5.801-6.446 34 34 0 0 0-7.588-4.46 29 29 0 0 0-3.441-1.187l.092-.086c.476-.495.908-1.036 1.375-1.54.454-.493.923-.972 1.385-1.457.151-.159.372-.372.563-.61a58 58 0 0 1 8.222 2.566c3.447 1.489 6.684 3.413 10.058 5.051a95.2 95.2 0 0 0 21.048 7.323c2.11.466 4.243.842 6.384 1.153a16 16 0 0 1-3.911 5.687m41.84-39.18c1.37.382 3.06.643 3.684 2.1a13.5 13.5 0 0 1 .626 4.532 35.5 35.5 0 0 1-.11 5.236 38.7 38.7 0 0 1-2.266 9.96 2.7 2.7 0 0 1-1.182 1.54 7 7 0 0 1-1.964.536 9 9 0 0 1-2.26.041 151 151 0 0 0-2.61-.125 39.4 39.4 0 0 1-10.511-1.713 247 247 0 0 1-5.657-1.905 20 20 0 0 1-4.717-2.158 7.77 7.77 0 0 1-3.047-3.772 12 12 0 0 1-.358-1.302c.28-2.18.218-4.37.615-6.542.057-.312.125-.622.188-.932a41 41 0 0 1 1.685-4.045 8.9 8.9 0 0 1 2.561-3.571 7.05 7.05 0 0 1 4.466-.935c1.756.057 3.509.126 5.26.269a83 83 0 0 1 10.463 1.53q2.586.546 5.135 1.256m118.32-38.174a6.2 6.2 0 0 0-1.223 1.52 13 13 0 0 0-.08-1.53q-.08-.933-.173-1.865-.035-.327-.074-.653.368.051.74.083c.106.008.214-.002.32 0 .065.023.125.052.19.072.145.044.294.072.442.103.033.301.059.604.098.905.046.353.088.712.143 1.068-.125.102-.264.188-.383.297m.557-.432c-.04-.303-.09-.605-.133-.904-.044-.303-.102-.603-.152-.904.243.047.486.092.726.151a6 6 0 0 1 1.127.393q.109.054.213.116a12 12 0 0 0-1.781 1.148m9.719-54.971a8.75 8.75 0 0 0 4.116 4.733l.468 2.012c.082.352.166.703.242 1.057l.025.121a12 12 0 0 1-1.817-1.066 7.9 7.9 0 0 1-2.209-2.265 6.1 6.1 0 0 1-.825-4.592m-3.813 3.25c.051.24.097.479.158.716a10 10 0 0 0-.806-.195q-.03-.664-.077-1.331a1.22 1.22 0 0 0 .397.734.39.39 0 0 0 .328.076m-1.169-5.267q.12.076.242.149l.067.05q.097.176.198.348c-.007.039-.017.076-.022.115a10 10 0 0 0-.059.666c-.026.476-.033.949-.035 1.426-.002.352-.01.707-.002 1.06-.098-1.15-.235-2.3-.44-3.438.024-.124.034-.25.051-.376m-3.276 6.951a8.4 8.4 0 0 0 .461 1.084l-.694.68a6.4 6.4 0 0 0 .233-1.764M331.997 82.57a15.4 15.4 0 0 0 2.83-1.416 11 11 0 0 0 1.686-1.442 4.7 4.7 0 0 0 .902-1.15 5.2 5.2 0 0 0 1.069.63c1.654.708 3.421 1.094 5.13 1.64 1.739.556 3.447 1.202 5.144 1.872 6.891 2.72 13.794 5.344 20.857 7.584a5.6 5.6 0 0 1-.569 1.936 16.4 16.4 0 0 0-1.212 2.746c-.566 2.135.648 4.022.694 6.117a6.3 6.3 0 0 1-2.514 4.89 13.75 13.75 0 0 1-5.68 2.38c-1.931.446-4.224 1.626-3.81 3.98a.575.575 0 0 0 .555.423 5.9 5.9 0 0 1 2.58.456.707.707 0 0 0 .851-.484 5.8 5.8 0 0 1 2.25-2.5 25 25 0 0 1 3.263-1.95c2.55-1.218 5.324-.847 7.898.108a34 34 0 0 1 6.86 3.833 7 7 0 0 1 1.425 1.049 1.71 1.71 0 0 1 .275 1.646 7.6 7.6 0 0 1-.558 1.407 10 10 0 0 0-.38.726c-.304.536-.63 1.06-.931 1.579-.72 1.24-1.649 2.513-1.756 3.987a2.536 2.536 0 0 0 1.633 2.676.61.61 0 0 0 .761-.58l.09-.8a1.24 1.24 0 0 0 .07-.568 14.8 14.8 0 0 1 2.037-6.477 6.7 6.7 0 0 1 2.709-2.414 6 6 0 0 1 1.768-.503 6 6 0 0 1 1.03-.034c.136.006.273.025.41.03a.8.8 0 0 0 .201.001.45.45 0 0 0 .338.218.57.57 0 0 0 .337-.068q1.69 4.218 3.339 8.452c1.055 2.709 2.248 5.395 3.168 8.153a18.5 18.5 0 0 1 .78 3.85 18 18 0 0 1-.804 1.45 13.4 13.4 0 0 1-2.46 2.848 22.7 22.7 0 0 1-6.991 3.688c-1.245.481-2.492.959-3.71 1.509a33 33 0 0 0-3.65 2.028 21 21 0 0 1-3.96 1.937l-.015.006a3.2 3.2 0 0 0-1.08-.115 45 45 0 0 1-2.18.051 35 35 0 0 1-4.508-.298 33 33 0 0 1-4.282-.863 36 36 0 0 1-2.12-.661c-.205-.07-.42-.143-.637-.219-1.099-.6-2.168-1.258-3.21-1.9q-3.924-2.415-7.733-5.011-3.857-2.629-7.587-5.437c-2.4-1.806-4.706-3.76-7.215-5.416-2.447-1.616-5.19-2.576-7.745-3.984a13.9 13.9 0 0 1-3.668-2.91 15.6 15.6 0 0 0 2.525.667 8.3 8.3 0 0 0 2.532-.02c.118.053.23.116.35.163.033.013.049-.036.023-.053-.069-.048-.145-.084-.215-.13a17 17 0 0 0 1.058-.194c.044-.01.03-.069-.01-.072a20 20 0 0 1-2.06-.329c-.342-.182-.688-.359-1.03-.539a40 40 0 0 0-1.906-.944 4.2 4.2 0 0 1 1.668-.04l.152.003c.49.255.979.515 1.472.767l1.248.639a8.4 8.4 0 0 0 1.275.607c.031.01.044-.033.02-.05a8.4 8.4 0 0 0-1.234-.662l-1.3-.65c-.44-.22-.884-.431-1.325-.649.405.012.81.023 1.216.018a23 23 0 0 0 6.256-1.047.053.053 0 0 0-.028-.102 23.6 23.6 0 0 1-6.446.654 17 17 0 0 1-1.523-.104c-.488-.058-.957-.24-1.438-.292a.93.93 0 0 0-.465.064 5 5 0 0 0-.034-.33c-.002-.013-.021-.008-.023.004a2 2 0 0 1-.085.4 2 2 0 0 0-.292.212 2.05 2.05 0 0 1-1.392.607.4.4 0 0 0-.068.015 13 13 0 0 1-.781-1.292 12 12 0 0 1-.792-1.887c.96.916 2.742.9 4.076 1.099a23 23 0 0 0 4.117-.082c1.438-.051 2.871-.14 4.307-.228a.045.045 0 0 0 0-.09c-2.379-.14-4.76-.233-7.137-.397-1.091-.075-2.16.207-3.255.085a3.66 3.66 0 0 1-2.307-1.128 9 9 0 0 1-.234-1.353 15.1 15.1 0 0 1 .57-4.697q1.01-4.289 2.414-8.472a99 99 0 0 1 3.66-9.358c1.387-3.058 2.976-6.016 4.428-9.04a.6.6 0 0 0 .038-.459m-34.933 6.41c.329.297.668.58 1.01.86q.286.23.575.458a27 27 0 0 1-1.88-.049c-.015-.087-.025-.175-.041-.263a23 23 0 0 0-.406-1.754 5 5 0 0 0 .742.748m-16.308 47.973c-3.964-6.103-3.624-13.838-.617-20.271a32.4 32.4 0 0 1 6.471-9.05 46 46 0 0 1 4.078-3.624c1.447-1.145 3.082-2.08 4.481-3.276 1.49-1.275 1.74-3.296 1.894-5.143a20 20 0 0 0-.149-4.416 5.4 5.4 0 0 0 .895.46 6.8 6.8 0 0 0 2.252.412 16 16 0 0 0 3.25-.222c1.272 1.83 2.728 3.525 3.95 5.398a29.4 29.4 0 0 1 3.582 7.239c.082.26.134.528.205.791a20 20 0 0 0-1.109-1.793 22.1 22.1 0 0 0-5.28-5.33c-.006-.004-.012.006-.006.01a19.9 19.9 0 0 1 4.93 5.302 22 22 0 0 1 1.594 3.016q.16.37.31.749a24 24 0 0 1 .335 3.272l-.297-.762c-.19-.483-.39-.964-.575-1.449-.172-.452-.235-.938-.401-1.384a4.3 4.3 0 0 0-.353-.586c-.126-.223-.242-.452-.371-.674a15 15 0 0 0-.831-1.288 17.5 17.5 0 0 0-1.951-2.279.023.023 0 0 0-.033.033 13.8 13.8 0 0 1 1.775 2.466q.356.631.678 1.28c.101.204.208.408.298.617a5 5 0 0 0 .274.731 9 9 0 0 1 .758 1.306c.188.452.352.914.508 1.378q.233.696.44 1.4.048.165.091.339a29.7 29.7 0 0 1-1.749 9.685 42 42 0 0 1-.9 2.305 12 12 0 0 0 .274-1.243 10.5 10.5 0 0 0-.124-4.738 4.04 4.04 0 0 0-2.663-2.942 3.06 3.06 0 0 0-2.075.225 19 19 0 0 0-2.155.957 12.26 12.26 0 0 0-3.908 3.757.051.051 0 0 0 .08.061 19.5 19.5 0 0 1 4.235-3.673 5.4 5.4 0 0 1 1.305-.589 3 3 0 0 1 1.4.086 2.87 2.87 0 0 1 1.774 1.178 7.33 7.33 0 0 1 .902 4.495 13.6 13.6 0 0 1-.435 2.817c-.237.907-.431 1.816-.648 2.727a.13.13 0 0 0 .007.076c-.863 1.705-1.449 3.537-2.154 5.31a38 38 0 0 1-2.53 5.35 7.9 7.9 0 0 1-2.088 2.323c.074-.117.157-.23.228-.348a18.5 18.5 0 0 0 2.089-4.933 16.7 16.7 0 0 0-.57-10.53 7.86 7.86 0 0 0-3.845-3.99.027.027 0 0 0-.028.046 8.5 8.5 0 0 1 2.954 3.987 13.9 13.9 0 0 1 1.07 4.883 17.56 17.56 0 0 1-2.332 9.489 16 16 0 0 1-1.6 2.295q-.135.16-.269.312c-1.409.512-2.88.845-4.301 1.32-.927.31-1.82.733-2.768.972a4.87 4.87 0 0 1-2.888-.228 15.13 15.13 0 0 1-7.364-6.094m65.642-110.301c.417-.412.81-.845 1.195-1.288a5 5 0 0 0 .57.087q.238.03.476.056c-.748.38-1.491.769-2.24 1.145m2.954-1.51-.176-.016q-.506-.052-1.012-.094l-.268-.023c.341-.406.66-.832.98-1.256a14.6 14.6 0 0 0 2.133.53q-.828.432-1.657.86m2.09-1.083-.238-.027c-.756-.099-1.503-.254-2.256-.37q.546-.727 1.06-1.48c.852.213 1.712.399 2.568.586.31.068.62.129.93.193-.69.363-1.372.74-2.064 1.098m2.388-1.27a61 61 0 0 0-1.32-.27 62 62 0 0 0-2.44-.429c.323-.473.63-.957.94-1.439a22 22 0 0 0 3.376.84q.68.145 1.367.274zm3.188-1.697c-.273.15-.552.292-.827.44a50 50 0 0 0-1.847-.382 21 21 0 0 0-3.318-.521c.523-.813 1.03-1.63 1.532-2.447q1.962.502 3.937.943c.95.212 1.931.47 2.912.627-.796.45-1.592.9-2.389 1.34m-.291-4.352c1.063.262 2.134.482 3.201.724a4 4 0 0 0 .587.134c.33.018.639-.039.976.003.435.054.853.186 1.278.272-1 .545-1.992 1.104-2.982 1.664-1.081-.294-2.22-.458-3.305-.672q-1.942-.382-3.888-.74c.078-.128.162-.255.239-.382q.552-.905 1.111-1.815a18 18 0 0 0 2.783.812"/><path fill="currentColor" d="M137.467 210.123c-2.157-2.053-4.51-3.894-6.811-5.78-.07-.057-.169.039-.1.099 2.252 1.953 4.467 3.965 6.858 5.749.04.029.087-.035.053-.068m-33.599-.642a1.2 1.2 0 0 1-.132-.214 1 1 0 0 0 .132.214m13.638 3.337a11 11 0 0 0-3.27-1.274 37 37 0 0 0-3.599-.923 34 34 0 0 0-3.493-.541c-.593-.057-1.185-.08-1.779-.106a1.95 1.95 0 0 1-1.497-.493 2.37 2.37 0 0 0 1.62.771c1.376.201 2.76.332 4.13.58 1.332.242 2.657.545 3.96.908q1.008.28 1.999.614a9.7 9.7 0 0 0 1.897.58c.069.008.075-.084.032-.116m-13.821-3.633c.01.033.037.051.05.082-.013-.029-.03-.052-.043-.084-.001-.005-.009-.003-.007.002m19.363 6.582a5.1 5.1 0 0 0-1.87-1.164c-.652-.306-1.336-.566-2.007-.828-.05-.02-.081.06-.036.086.326.183.648.37.964.571.298.19.577.402.868.601a7.5 7.5 0 0 0 1.84 1.147c.257.08.385-.237.241-.413m-1.115 1.396a11.7 11.7 0 0 0-2.222-1.51 22 22 0 0 0-2.4-1.203 22 22 0 0 0-5.45-1.516c-.04-.005-.057.054-.018.06a22 22 0 0 1 5.33 1.562 22 22 0 0 1 2.372 1.212c.79.467 1.5 1.06 2.283 1.53a.086.086 0 0 0 .105-.135m-1.516.798a16.6 16.6 0 0 0-3.625-1.974c-.032-.013-.056.043-.024.058a37 37 0 0 1 3.61 1.984c.044.026.078-.038.039-.068m51.836 1.901a30 30 0 0 0-2.382-2.006 8.6 8.6 0 0 0-2.517-1.545 48 48 0 0 0-6.01-1.871 35.6 35.6 0 0 0-14.127.367c-.075.015-.042.125.03.113a38.3 38.3 0 0 1 14.015-.183 17.2 17.2 0 0 1 5.72 1.937c.829.525 1.7.875 2.559 1.338a15.3 15.3 0 0 1 2.684 1.878c.019.016.046-.01.028-.028m3.14 3.279a36 36 0 0 0-1.212-1.213.04.04 0 0 0-.055.055c.393.405.777.82 1.143 1.249a9 9 0 0 0 1.121 1.263.043.043 0 0 0 .068-.052 5.7 5.7 0 0 0-1.065-1.302m-1.978 2.324a16 16 0 0 0-1.114-1.408 18.3 18.3 0 0 0-2.727-2.522 17.5 17.5 0 0 0-6.834-3.103c-.04-.009-.056.05-.017.06a18.5 18.5 0 0 1 6.567 3.183 18 18 0 0 1 2.668 2.477 19 19 0 0 1 1.22 1.552 8 8 0 0 0 .991 1.367.06.06 0 0 0 .098-.057 4.5 4.5 0 0 0-.852-1.549m-2.747 1.553a14.3 14.3 0 0 0-1.757-1.903 27 27 0 0 0-4.349-3.107c-.03-.018-.057.028-.027.047a31.5 31.5 0 0 1 4.2 3.155 14 14 0 0 1 1.746 1.917c.514.689.863 1.465 1.34 2.17a.043.043 0 0 0 .08-.032 6.2 6.2 0 0 0-1.233-2.247m-2.293 2.936a19 19 0 0 0-1.217-1.59 16 16 0 0 0-2.983-2.75c-.014-.01-.032.012-.019.024a23 23 0 0 1 2.84 2.816 19 19 0 0 1 1.225 1.649 15 15 0 0 0 1.05 1.63c.029.034.082-.002.072-.041a6.2 6.2 0 0 0-.968-1.738m-4.037-.728c-.023-.027-.069.009-.05.038a23.3 23.3 0 0 0 2.703 3.602.04.04 0 0 0 .062-.048 23.3 23.3 0 0 0-2.715-3.592m-.374 5.346a15 15 0 0 0-.207-.301c-.07-.1-.152-.192-.228-.287q-.12-.15-.233-.303c-.05-.066-.163-.006-.115.067q.105.157.203.318c.063.104.122.212.191.311q.105.15.213.298a1.6 1.6 0 0 0 .261.269c.03.025.089.002.072-.042a1.6 1.6 0 0 0-.157-.33m29.47-1.907-2.083-.686c-.014-.005-.02.018-.006.023l2.036.701c.676.233 1.35.505 2.042.682.021.005.037-.027.015-.036-.647-.274-1.336-.463-2.004-.684m5.756-1.065c-1.45-.43-2.93-.739-4.37-1.207a44 44 0 0 1-4.373-1.69c-.023-.01-.043.022-.02.033a44 44 0 0 0 4.212 1.704 26 26 0 0 0 4.527 1.25.047.047 0 0 0 .025-.09m3.077-2.005a5.4 5.4 0 0 0-1.728-.559c-.648-.175-1.295-.356-1.948-.514a414 414 0 0 1-3.844-.942.016.016 0 0 0-.009.03c1.263.383 2.521.78 3.78 1.176.617.194 1.24.367 1.863.544a5.7 5.7 0 0 0 1.841.433.09.09 0 0 0 .045-.168m2.366-2.38a15 15 0 0 0-1.946-.275c-.655-.09-1.31-.18-1.96-.3a.043.043 0 0 0-.023.082 18 18 0 0 0 1.958.451 7 7 0 0 0 1.957.15c.057-.007.079-.09.014-.108m1.532-2.207a1.3 1.3 0 0 0-.426-.18 2.5 2.5 0 0 0-.44-.052 2.1 2.1 0 0 0-.868.209c-.04.018-.011.083.03.071a3 3 0 0 1 .838-.078 2.3 2.3 0 0 1 .418.04c.137.028.275.046.412.076a.047.047 0 0 0 .036-.086m2.041-.63a1 1 0 0 0-.339-.144 1.7 1.7 0 0 0-.72.004c-.118.028-.096.229.029.215a1.26 1.26 0 0 1 .61.078c.082.033.182.07.265.112.106.054.203.149.33.127a.11.11 0 0 0 .078-.104c.002-.137-.15-.224-.253-.288M190.32 180.39c-.997 1.621-2.135 3.154-3.087 4.803a26 26 0 0 0-1.276 2.41 4 4 0 0 0-.364 1.228 5.1 5.1 0 0 1-.357 1.51 46 46 0 0 0-1.707 5.146 6.6 6.6 0 0 1-1.985 3.633c.522-2.07.994-4.158 1.411-6.25.25-1.245.52-2.487.751-3.736a21 21 0 0 1 .773-3.448 8 8 0 0 1 .82-1.573c.34-.531.47-1.102.768-1.648.55-1.011 1.183-1.956 1.67-3.006a18 18 0 0 0 1.676-6.368c.002-.035-.053-.042-.062-.008a33 33 0 0 1-2.436 6.534 12.9 12.9 0 0 1-2.02 3.06 4.93 4.93 0 0 0-1.021 2.818 61 61 0 0 1-1.24 7.287c-.6 2.395-1.338 4.734-2.171 7.058a.444.444 0 0 0 .54.541 4.47 4.47 0 0 0 3.114-3.16 22 22 0 0 0 .573-2.765c.185-1.005.428-2 .69-2.988a9 9 0 0 1 .44-1.403 13 13 0 0 1 .914-1.353 21 21 0 0 0 1.194-2.717c.797-1.872 1.538-3.753 2.44-5.578a.027.027 0 0 0-.047-.027m2.998-3.707a26 26 0 0 1-1.03 5.967 32.6 32.6 0 0 1-2.384 5.295 1.07 1.07 0 0 0-.664.773 7 7 0 0 0-.087 1.368 8.6 8.6 0 0 1-.479 2.564.13.13 0 0 0 .216.125 8.1 8.1 0 0 0 1.325-2.03c.171-.42.313-.851.487-1.27a1.39 1.39 0 0 0 .083-1.161c.346-.925.843-1.79 1.165-2.73a22 22 0 0 0 .754-2.936 37 37 0 0 0 .669-5.965c0-.036-.052-.035-.055 0m-11.849 1.015c-.146.422-.374.822-.56 1.227-.18.392-.328.796-.468 1.203a22 22 0 0 0-.712 2.507.122.122 0 0 0 .221.093 10.2 10.2 0 0 0 1.143-2.371 7.4 7.4 0 0 0 .322-1.268c.066-.45.084-.913.166-1.36a.059.059 0 0 0-.113-.031m-80.041 20.951c-2.056-1.705-4.205-3.291-6.268-4.987a82 82 0 0 1-5.969-5.386c-.047-.046-.115.024-.072.072 3.555 3.952 7.522 7.847 12.21 10.43.078.043.174-.067.1-.13m6.086-.6c-1.295-.936-2.78-1.582-4.089-2.512-1.368-.972-2.668-2.04-3.963-3.106-2.481-2.041-4.957-4.092-7.38-6.203-.052-.046-.129.029-.077.077 2.358 2.197 4.788 4.307 7.344 6.272 1.301 1 2.631 1.963 3.932 2.964 1.313 1.011 2.46 2.27 3.833 3.192.429.288.807-.39.4-.684m-1.937-6.408c-.985-.913-2.026-1.768-3.01-2.684a144 144 0 0 1-2.922-2.79c-.025-.024-.06.013-.038.04a31 31 0 0 0 2.818 2.97 26 26 0 0 0 3.1 2.532c.04.027.088-.034.052-.068m9.214 5.688-.032-.025-.106-.079a6 6 0 0 0-.344-.238c-.202-.13-.4-.264-.611-.38-.452-.248-.926-.448-1.382-.69a39 39 0 0 1-2.658-1.56c-.051-.033-.096.047-.047.08.668.465 1.332.931 1.967 1.44.594.477 1.144 1.004 1.746 1.468a6 6 0 0 0 .928.621c.27.135.69.126.81-.208a.29.29 0 0 0-.27-.429m3.692-1.832a36 36 0 0 1-1.82-1.109 52 52 0 0 1-3.598-2.618c-2.247-1.768-4.375-3.677-6.555-5.526-.053-.044-.129.028-.077.078 2.117 2.02 4.3 3.982 6.587 5.809a58 58 0 0 0 3.277 2.44 59 59 0 0 0 1.868 1.248c.46.291 1.104.884 1.67.81a.107.107 0 0 0 .09-.158c-.231-.492-.987-.714-1.442-.974m6.692.555a8.2 8.2 0 0 0-2.182-1.576c-.795-.505-1.592-1.008-2.379-1.526q-2.358-1.55-4.614-3.248c-.032-.024-.073.03-.043.055q2.145 1.801 4.396 3.47a60 60 0 0 0 2.31 1.643 7.2 7.2 0 0 0 2.424 1.332.09.09 0 0 0 .088-.15m2.552-2.729a7 7 0 0 0-.87-.582c-.611-.346-1.24-.648-1.871-.954a.07.07 0 0 0-.071.121c.593.35 1.16.745 1.724 1.14.282.197.569.39.864.564a5 5 0 0 0 .864.468c.055.019.117-.055.08-.103a4 4 0 0 0-.72-.654M52.13 206.436c-1.247-.963-2.566-1.836-3.837-2.767q-1.964-1.438-3.868-2.955c-.015-.013-.037.01-.022.022q1.831 1.503 3.719 2.935a47 47 0 0 0 3.976 2.819c.035.021.062-.03.031-.054m6.874 1.594c-2.033-1.395-4.13-2.692-6.159-4.094a205 205 0 0 1-6.002-4.292c-.018-.013-.04.016-.024.03a74 74 0 0 0 12.145 8.424.04.04 0 0 0 .04-.068M302.405 89.66a23 23 0 0 0-2.043-1.942q-1.043-.951-2.07-1.92c-1.37-1.29-2.724-2.597-4.099-3.882a.018.018 0 0 0-.024.024 83 83 0 0 0 4.026 4.066q1.023.973 2.061 1.928a18 18 0 0 0 2.1 1.79c.04.028.078-.03.05-.064m2.778-.818a6.2 6.2 0 0 0-1.003-1.208q-.59-.624-1.19-1.237-1.203-1.227-2.45-2.408-2.497-2.366-5.17-4.53c-.016-.012-.038.009-.023.022a102 102 0 0 1 5.03 4.672q1.185 1.18 2.327 2.402.586.627 1.161 1.266a7.5 7.5 0 0 0 1.163 1.176c.098.069.206-.062.155-.155m-2.77-7.694a32 32 0 0 0-2.267-2.002c-.015-.013-.036.007-.022.022 1.407 1.403 2.77 2.845 4.202 4.223.016.015.045-.005.031-.023a21 21 0 0 0-1.944-2.22m4.746 4.469q-.323-.332-.658-.655c-.445-.427-.975-.744-1.422-1.166a.01.01 0 0 0-.014.014c.41.462.71 1.004 1.124 1.465q.302.336.615.661a1.64 1.64 0 0 0 .705.562.144.144 0 0 0 .175-.175 1.6 1.6 0 0 0-.524-.706m3.296-.468c-.093-.129-.206-.248-.31-.369q-.312-.366-.634-.725a31 31 0 0 0-1.291-1.364 24 24 0 0 0-2.84-2.406c-.015-.011-.032.012-.02.024q1.304 1.318 2.573 2.67.627.667 1.234 1.353.302.344.597.694c.103.123.202.25.308.371a.9.9 0 0 0 .345.24.12.12 0 0 0 .175-.135.8.8 0 0 0-.137-.353m3.242-.826a2.5 2.5 0 0 0-.728-.62 3.7 3.7 0 0 1-.86-.713 20 20 0 0 1-1.343-1.82 9.8 9.8 0 0 0-2.881-2.96.016.016 0 0 0-.02.024c.497.506.988 1.005 1.445 1.548.468.557.906 1.14 1.38 1.692.46.54.936 1.067 1.397 1.606.24.281.452.57.664.872a1.76 1.76 0 0 0 .745.632.18.18 0 0 0 .2-.26m2.395-1.214a13 13 0 0 0-1.409-1.197 32 32 0 0 0-1.697-1.189c-.035-.023-.079.032-.045.059.968.767 1.833 1.643 2.738 2.48.113.105.455.486.634.375.192-.118-.135-.44-.221-.527m2.115-1.16q-.228-.168-.46-.33l-.929-.646c-.046-.033-.086.041-.043.074l.89.676q.22.166.443.327a2 2 0 0 0 .456.283c.026.01.055-.025.037-.048a1.8 1.8 0 0 0-.394-.336m2.717-.503q-.128-.083-.26-.16l-.527-.313c-.022-.013-.04.02-.02.034l.512.338q.127.085.259.164a2 2 0 0 0 .255.139c.019.007.033-.02.019-.033a2 2 0 0 0-.238-.169m2.775-.198c-.073-.05-.144-.105-.22-.15l-.214-.126-.443-.262a.041.041 0 0 0-.042.071l.445.26.214.125c.077.044.159.08.239.119a.022.022 0 0 0 .021-.037m23.476-9.17c-.01-.01-.025.006-.016.017q.759.929 1.449 1.911c.45.64.885 1.29 1.359 1.914a.031.031 0 0 0 .054-.032 15 15 0 0 0-2.846-3.81m7.037 5.244a30 30 0 0 0-2.163-3.492 43 43 0 0 0-2.429-3.172c-.01-.011-.03.005-.021.017a58 58 0 0 1 2.33 3.297c.666 1.014 1.266 2.065 1.897 3.099l-.019-.012c-.032-.021-.065.025-.04.052q.15.162.288.332c.075.093.205-.025.157-.121m4.736 1.782c-.477-.858-1.094-1.638-1.641-2.453-.567-.844-1.106-1.707-1.669-2.553a25 25 0 0 0-3.668-4.538.018.018 0 0 0-.025.025 28.7 28.7 0 0 1 3.533 4.885c.503.82 1.01 1.64 1.537 2.445a10.7 10.7 0 0 0 1.804 2.289.082.082 0 0 0 .129-.1m3.622-.806q-1.207-1.676-2.42-3.35a22.3 22.3 0 0 0-4.516-5.09c-.02-.014-.045.018-.026.034a30.4 30.4 0 0 1 4.418 5.526c.729 1.03 1.466 2.055 2.201 3.08a14 14 0 0 0 2.35 3.009c.03.024.09.003.074-.044a13.7 13.7 0 0 0-2.081-3.164m4.479 1.014-2.38-3.472a41 41 0 0 0-4.67-6.127c-.013-.012-.031.007-.02.02a59 59 0 0 1 4.696 6.532l2.309 3.37a33 33 0 0 0 2.296 3.254c.05.057.134-.015.101-.078a35 35 0 0 0-2.333-3.5m-32.847-.807a20.4 20.4 0 0 0-2.563-1.447q-1.31-.676-2.614-1.36c-.014-.007-.025.013-.012.02q1.301.741 2.598 1.49a20 20 0 0 0 2.567 1.354c.036.014.051-.038.024-.057m-.552-2.071a5 5 0 0 0-1.181-.691q-.666-.354-1.33-.71-1.307-.698-2.596-1.43a.012.012 0 0 0-.012.02q1.245.807 2.525 1.553.63.367 1.27.714a4.7 4.7 0 0 0 1.288.606.037.037 0 0 0 .036-.062m-.852-2.226a7 7 0 0 0-1.193-.731c-.419-.228-.842-.448-1.263-.671q-1.285-.682-2.572-1.36a.027.027 0 0 0-.028.047l2.503 1.479c.41.241.819.487 1.232.724a7 7 0 0 0 1.248.635.075.075 0 0 0 .073-.124m-1.586-3.358a3.2 3.2 0 0 0-.746-.374c-.26-.12-.515-.25-.77-.38a23 23 0 0 1-1.51-.87c-.012-.006-.02.01-.01.018a13 13 0 0 0 1.483.97q.386.218.787.406a2.3 2.3 0 0 0 .744.284.032.032 0 0 0 .022-.054m-2.796-4.151c-.017-.006-.023.02-.007.026.465.178.93.359 1.405.509.014.005.02-.017.006-.023-.46-.19-.933-.35-1.404-.512m-63.562 46.185c-.007-.003-.01.009-.003.011a21.3 21.3 0 0 0 10.205 1.56c.022-.002.023-.035 0-.034a25.3 25.3 0 0 1-10.202-1.537m12.616-1.345a54.7 54.7 0 0 1-12.51-1.147.02.02 0 0 0-.01.037 31.2 31.2 0 0 0 12.535 1.225c.067-.01.048-.114-.015-.115m2.618-2.579a7.3 7.3 0 0 0-1.235.023c-.523.012-1.047 0-1.57-.01a105 105 0 0 1-3.019-.117c-2.083-.102-4.168-.248-6.236-.52-.009-.002-.01.013-.002.015 2.068.383 4.142.714 6.238.895 1.081.094 2.167.139 3.252.165.776.019 1.922.222 2.598-.251.067-.047.076-.185-.026-.2m2.196-3.152c-.484.024-.965.086-1.448.121-.931.07-1.864.13-2.797.17a21.7 21.7 0 0 1-5.8-.318.023.023 0 0 0-.013.045 18 18 0 0 0 5.607.62c.967-.035 1.933-.103 2.9-.163.482-.03.965-.024 1.448-.044.36-.015.713.067.984-.192a.08.08 0 0 0 0-.111c-.264-.224-.547-.145-.88-.128m-.469-2.199a19 19 0 0 1-1.944.02 17 17 0 0 1-1.993-.23.023.023 0 0 0-.013.046 7.25 7.25 0 0 0 3.955.202.02.02 0 0 0-.005-.038m3.608-.643a.5.5 0 0 0-.27-.021 8 8 0 0 0-.332.033c-.198.024-.396.046-.592.078-.422.069-.843.138-1.266.197-.007 0-.005.012.002.011.42-.024.84-.038 1.26-.052.208-.007.413-.024.62-.04q.154-.012.309-.03a.55.55 0 0 0 .27-.068c.033-.024.046-.087 0-.108m-1.952-1.79a.012.012 0 0 0 0 .024c.68.013 1.364.045 2.043.003a.016.016 0 0 0 0-.03c-.68-.042-1.363-.01-2.043.003m4.065-2.222a6.5 6.5 0 0 0-.876.308c-.016.006-.01.031.007.026.15-.043.306-.079.454-.131.145-.052.29-.104.43-.167.02-.01.006-.04-.015-.036m-4.445 14.362a44.6 44.6 0 0 0-2.966 7.37 29.3 29.3 0 0 0-1.41 7.822c-.002.045.07.057.08.01.492-2.562.882-5.127 1.558-7.651a46.4 46.4 0 0 1 2.751-7.543c.004-.01-.009-.017-.013-.008m.657 2.761a52.5 52.5 0 0 0-2.584 7.488c-.334 1.283-.536 2.58-.754 3.888-.115.688-.21 1.379-.333 2.066a14 14 0 0 0-.307 1.88.206.206 0 0 0 .381.103q.115-.178.215-.365c.037-.066-.035-.123-.097-.096l-.065.03c.04-.468.047-.94.082-1.407.055-.727.172-1.446.297-2.163.228-1.3.564-2.574.867-3.858a56.5 56.5 0 0 1 2.345-7.547c.01-.026-.035-.046-.047-.02m1.062 5.31a41.4 41.4 0 0 0-2.186 7.109c-.255 1.214-.409 2.446-.652 3.662-.097.48-.74 2.072-.176 2.412a.16.16 0 0 0 .162 0 .21.21 0 0 0 .11-.204c0-.032-.03-.045-.05-.066.005-.015.02-.022.018-.041q.033-.23.047-.464a8 8 0 0 0 .023-.81 11.3 11.3 0 0 1 .14-1.949c.161-1.072.382-2.138.631-3.193a53 53 0 0 1 1.96-6.45c.006-.016-.02-.022-.027-.006m1.21 4.566c-.407 1.894-.813 3.79-1.184 5.691a92 92 0 0 1-.582 2.788 9 9 0 0 0-.436 2.755c.015.134.215.232.287.078a8.5 8.5 0 0 0 .47-2.46c.133-1.04.275-2.074.451-3.108.328-1.915.655-3.83 1.012-5.739.003-.012-.016-.017-.018-.005m1.213 6.007c0-.015-.022-.014-.024 0a206 206 0 0 1-.502 3.68 30 30 0 0 0-.475 3.46c-.006.195.296.292.383.103l.02-.05v.001l.002-.005q.056-.133.107-.27c.014-.038-.02-.07-.057-.08.16-1.05.166-2.146.243-3.199.089-1.214.194-2.427.303-3.64m1.751 4.08a.023.023 0 0 0-.047 0 15 15 0 0 1-.116 2.087c-.044.353-.101.704-.16 1.055a3 3 0 0 0-.111.978.144.144 0 0 0 .26.034 2.6 2.6 0 0 0 .175-1.008c.026-.339.037-.68.042-1.02q.013-1.064-.043-2.126m2.098 3.66a12 12 0 0 0-.205-1.363c-.002-.01-.016-.006-.015.004a9 9 0 0 1 .094 1.385q-.004.336-.02.672a2.2 2.2 0 0 0 .009.633c.01.037.072.05.09.011a1.7 1.7 0 0 0 .08-.644 7 7 0 0 0-.033-.698m1.946.17.002.319c.001.106-.002.213.004.319a.012.012 0 0 0 .024 0c.006-.106.003-.213.003-.32l.003-.318a.018.018 0 0 0-.036 0m-19.507-13.427a4.5 4.5 0 0 0-2.052.145c-.027.007-.015.046.012.041a13.5 13.5 0 0 1 2.033-.128c.031-.001.04-.051.007-.058m1.135 3.973-.128.128a.01.01 0 0 0 .014.013l.128-.127a.01.01 0 0 0-.014-.014m6.02 17.427a6 6 0 0 0-1.28-.147c-.44-.033-.879-.056-1.318-.09q-1.395-.111-2.78-.308c-.012-.002-.017.016-.005.018q1.356.246 2.722.429c.442.059.885.118 1.328.158a5 5 0 0 0 1.333.027c.046-.009.04-.075 0-.087m1.936-2.238a5 5 0 0 0-1.476-.275c-.586-.065-1.173-.119-1.76-.176a67 67 0 0 1-3.565-.424c-.017-.002-.024.023-.007.027 1.155.23 2.31.468 3.47.672a41 41 0 0 0 1.6.247 5 5 0 0 0 1.719.071.079.079 0 0 0 .019-.142m1.135-1.968a9.2 9.2 0 0 0-1.816-.287l-1.826-.249c-1.174-.16-2.35-.296-3.527-.432-.009 0-.01.014-.002.016 1.206.212 2.411.423 3.621.61l1.817.281a8.6 8.6 0 0 0 1.71.225.084.084 0 0 0 .023-.164m-34.612 47.409a.033.033 0 0 0-.065.008 30 30 0 0 1-.504 7.11c-.458 2.307-1.147 4.553-1.766 6.82a.05.05 0 0 0 .098.027 46 46 0 0 0 2.074-7.104 17.3 17.3 0 0 0 .163-6.861m-54.004 24.272c-1.285-1.271-2.638-2.47-4.004-3.652-.017-.014-.041.01-.025.025 1.3 1.255 2.615 2.495 3.996 3.66.023.02.055-.011.033-.033m5.484 1.672c-.562-.604-1.214-1.127-1.79-1.72-.568-.583-1.105-1.194-1.647-1.8s-1.081-1.219-1.656-1.795a7.6 7.6 0 0 0-1.892-1.53.006.006 0 0 0-.006.01 9.3 9.3 0 0 1 1.914 1.756 72 72 0 0 1 1.608 1.844c.515.603 1.04 1.199 1.593 1.768a7.7 7.7 0 0 0 1.831 1.526.037.037 0 0 0 .045-.058m4.137.041q-.555-.473-1.105-.952-1.13-.986-2.248-1.986-2.199-1.98-4.315-4.05a.014.014 0 0 0-.02.02q2.071 2.17 4.253 4.226 1.061 1 2.151 1.968.577.51 1.16 1.013a3.1 3.1 0 0 0 1.01.73.04.04 0 0 0 .044-.057 3.4 3.4 0 0 0-.93-.912m7.088 1.83a7.2 7.2 0 0 0-1.089-1.023q-.652-.568-1.3-1.14-1.262-1.109-2.547-2.192c-.835-.704-1.735-1.327-2.599-1.996a70 70 0 0 0-2.635-1.96c-.021-.015-.048.02-.028.037.825.705 1.66 1.397 2.492 2.094.857.72 1.658 1.498 2.515 2.216q1.251 1.049 2.482 2.122.615.536 1.218 1.086a8.4 8.4 0 0 0 1.197 1.05c.173.105.428-.117.294-.294m6.048.378c-1.386-1.222-2.926-2.26-4.344-3.446-1.381-1.155-2.744-2.288-4.218-3.326-.036-.025-.082.034-.048.061 1.418 1.136 2.882 2.211 4.301 3.343 1.422 1.135 2.652 2.462 4.005 3.672.205.184.511-.121.303-.304m4.447.152a14 14 0 0 0-1.56-1.208c-.589-.446-1.167-.905-1.747-1.362q-1.644-1.296-3.3-2.577c-.02-.016-.051.012-.03.03q1.61 1.374 3.227 2.74c.524.44 1.05.878 1.565 1.328a15 15 0 0 0 1.599 1.367c.195.128.406-.157.246-.318m3.614.335a21 21 0 0 0-2.993-2.366c-.031-.021-.07.03-.04.053 1.003.78 1.949 1.64 3 2.356.027.017.055-.022.034-.043m3.92-.084a.8.8 0 0 0-.192-.143 1 1 0 0 0-.227-.095 1.3 1.3 0 0 0-.49-.051.043.043 0 0 0 0 .086 2 2 0 0 1 .458.082c.074.021.145.05.218.076.072.024.139.06.21.085.024.007.038-.023.023-.04m3.318.051c-.19.001-.381.013-.57.003a1.9 1.9 0 0 1-.565-.117c-.04-.015-.067.05-.029.068a1.5 1.5 0 0 0 1.176.09c.022-.01.01-.044-.012-.044m-83.353-23.549c-1.725-1.68-3.505-3.302-5.221-4.99a.023.023 0 0 0-.034.032c1.686 1.717 3.394 3.426 5.227 4.985.019.017.046-.01.028-.027m7.058 2.909a26.2 26.2 0 0 1-4.631-4.136 31.6 31.6 0 0 0-4.328-4.21c-.025-.02-.058.023-.033.042a33.3 33.3 0 0 1 4.34 4.48 14.2 14.2 0 0 0 4.61 3.895.041.041 0 0 0 .042-.07m5.022 1.865c-.624-.672-1.34-1.266-2.008-1.894q-1.033-.972-2.047-1.965-2-1.96-3.934-3.985c-.012-.012-.03.007-.019.02a124 124 0 0 0 3.945 4.08q.984.97 1.988 1.918a26 26 0 0 0 2.052 1.857c.018.014.038-.015.023-.03m4.103.623c-.439-.45-.961-.827-1.44-1.234q-.722-.616-1.42-1.262-1.393-1.29-2.699-2.673c-.017-.018-.044.01-.027.028.85.965 1.737 1.89 2.676 2.768q.694.649 1.413 1.269a11 11 0 0 0 1.464 1.147.027.027 0 0 0 .033-.043m3.211-.282a30 30 0 0 0-3.691-2.96c-.021-.014-.04.02-.02.035 1.255.951 2.456 1.968 3.684 2.952.019.016.046-.01.027-.027m1.543-1.558c-.026-.016-.05.024-.024.04a18 18 0 0 1 2.28 1.678c.012.012.031-.007.019-.019a13.7 13.7 0 0 0-2.275-1.7m-17.148-75.158c-.352-2.1-.713-4.216-1.259-6.276-.003-.01-.016-.005-.015.004.285 2.08.69 4.144 1.033 6.214.34 2.054.509 4.179.993 6.203a.055.055 0 0 0 .107-.014 47 47 0 0 0-.859-6.13m.485-7.673c-.003-.017-.029-.01-.026.007.487 2.604.901 5.242 1.555 7.81.01.037.062.02.056-.016-.39-2.62-1.027-5.212-1.584-7.801m2.779-.124a.025.025 0 0 0-.049.013c.123.47.24.94.379 1.405a.012.012 0 0 0 .023-.006c-.105-.474-.232-.942-.353-1.412m-14.333 9.596a18.7 18.7 0 0 0-1.22 5.99c0 .03.049.04.054.008.162-1.005.276-2.016.476-3.016q.3-1.5.724-2.973c.007-.022-.026-.03-.034-.009m-7.742-18.165a35 35 0 0 0-1.453 3.507 30 30 0 0 0-.566 1.805 8 8 0 0 0-.366 1.872c-.002.042.065.065.083.023a12.5 12.5 0 0 0 .508-1.693q.25-.947.537-1.883a41 41 0 0 1 1.292-3.616c.009-.02-.026-.035-.035-.015m-1.608-1.632a22 22 0 0 0-1.14 3.958.031.031 0 0 0 .06.017c.43-1.303.716-2.652 1.118-3.965.007-.024-.03-.033-.038-.01M32.709 174.18c-.008-.021-.042-.013-.034.009a54.5 54.5 0 0 0 7.336 14.072c.019.026.062.002.044-.026a80.6 80.6 0 0 1-7.346-14.056m14.165 17.933c-.276-.381-.51-.795-.756-1.196a15.7 15.7 0 0 1-1.382-2.654 2.6 2.6 0 0 0-.539-.959 7 7 0 0 1-.844-1.325q-.708-1.224-1.397-2.46-1.378-2.47-2.681-4.982c-.867-1.672-1.83-3.292-2.68-4.972-.003-.007-.013-.001-.01.006.772 1.729 1.474 3.485 2.332 5.175q1.308 2.575 2.698 5.108.681 1.24 1.381 2.47a13.7 13.7 0 0 0 1.32 2.314 19.6 19.6 0 0 1 1.697 2.477 15 15 0 0 1 .77 1.3 1.8 1.8 0 0 0 .566.853c.094.066.19-.042.175-.134-.074-.44-.395-.668-.65-1.02m4.823.131a9.7 9.7 0 0 0-1.07-1.852 31 31 0 0 1-2.479-4.164c-.725-1.402-1.385-2.836-2.064-4.26a34 34 0 0 0-2.121-4.346.024.024 0 0 0-.043.018 21.6 21.6 0 0 0 1.73 4.172c.654 1.391 1.373 2.748 2.087 4.109.716 1.365 1.434 2.721 2.093 4.115.32.676.638 1.34.975 2.009.263.522.374 1.258.836 1.648a.11.11 0 0 0 .172-.022 1.5 1.5 0 0 0-.116-1.427m3.267-1.348q-1.076-1.887-2.112-3.793c-.672-1.245-1.194-2.553-1.837-3.81-.317-.62-.627-1.269-1.001-1.857-.17-.268-.335-.487-.675-.41a.032.032 0 0 0-.018.046c.979 2.293 2.505 4.327 3.679 6.519a165 165 0 0 1 1.766 3.42 28 28 0 0 0 1.743 3.578c.164.233.62.099.5-.21a28.4 28.4 0 0 0-2.045-3.483m7.804 4.318h.011a12.4 12.4 0 0 0-1.121-1.829c-.439-.69-.9-1.363-1.362-2.039a33 33 0 0 1-2.374-4.147c-.683-1.401-1.226-2.866-1.946-4.25-.12-.23-.348-.7-.69-.52a.225.225 0 0 0-.077.379c.017.017.052 0 .043-.025q.341-.08.346.325l.111.266c.125.284.26.566.394.846.269.56.57 1.101.882 1.639a185 185 0 0 1 1.837 3.243c.605 1.09 1.153 2.206 1.743 3.302.295.547.625 1.075.956 1.601a8 8 0 0 0 .948 1.389c.147.15.338-.027.299-.18m4.322.826h.006c-.423-.773-.987-1.455-1.466-2.192-.494-.759-.944-1.55-1.418-2.322a32 32 0 0 0-2.767-4.25c-.015-.016-.041.006-.03.024q1.28 2.235 2.613 4.435c.455.75.937 1.487 1.372 2.248s.783 1.573 1.277 2.303a.24.24 0 0 0 .414-.245m.525-4.158a4 4 0 0 0-.52-.626 3 3 0 0 0-.678-.436c-.02-.01-.047.012-.032.032.148.205.258.432.41.636.157.207.322.409.475.62a11.5 11.5 0 0 1 .89 1.288.043.043 0 0 0 .078-.033 5 5 0 0 0-.623-1.481m3.174 4.697a.6.6 0 0 0-.025-.156 1.1 1.1 0 0 0-.181-.296 5 5 0 0 0-.42-.496q-.208-.218-.43-.424a5 5 0 0 1-.429-.48c-.01-.011-.029.004-.021.017.102.175.214.348.299.533.089.19.173.384.27.571a5 5 0 0 0 .306.528 2 2 0 0 0 .2.262.5.5 0 0 0 .147.097.3.3 0 0 0 .074.026c.03.004.061-.01.09-.006a.08.08 0 0 0 .073-.055l.021-.027a.2.2 0 0 0 .025-.094"/><path fill="currentColor" d="m70.75 196.696-.007.005-.008.01Zm3.385-.195.01.003-.017-.022a.2.2 0 0 0-.043-.056c-.08-.11-.172-.216-.252-.324l-.375-.504q-.399-.535-.8-1.067a13.4 13.4 0 0 0-1.702-1.944.022.022 0 0 0-.033.026 15.6 15.6 0 0 0 1.45 2.22q.384.52.766 1.042l.392.54c.103.14.195.316.375.363a.203.203 0 0 0 .246-.14.26.26 0 0 0-.017-.137m3.165-.267a7 7 0 0 0-.484-.625 9 9 0 0 0-1.137-1.136c-.022-.018-.062.006-.043.033.311.426.638.839.966 1.252.161.203.323.41.496.602.183.204.376.398.559.601.025.029.07-.008.052-.04-.133-.231-.262-.465-.41-.687m3.608.8q-.198-.218-.407-.425a9 9 0 0 0-.857-.747c-.018-.014-.046.014-.032.032a9 9 0 0 0 .749.855q.202.203.414.395a2.6 2.6 0 0 0 .436.364.037.037 0 0 0 .051-.05 2.5 2.5 0 0 0-.354-.424m67.327-50.574a46 46 0 0 1-4.715 3.878 16.4 16.4 0 0 0-4.131 4.735 63 63 0 0 0-5.155 12.484 114 114 0 0 0-2.048 7.542.037.037 0 0 0 .071.02c1.302-4.325 2.41-8.712 4.067-12.922a37.5 37.5 0 0 1 3.043-6.263 20.4 20.4 0 0 1 4.063-4.968c1.698-1.412 3.702-2.526 4.919-4.419a.073.073 0 0 0-.114-.087"/><path fill="currentColor" d="M143.194 154.974a2.46 2.46 0 0 0-.733 1.113c-.264.52-.532 1.039-.791 1.561-.488.982-.957 1.975-1.43 2.964-.962 2.016-1.925 4.03-2.84 6.067-.91 2.023-1.716 4.089-2.621 6.112a27 27 0 0 0-1.006 2.589 4.6 4.6 0 0 1-.518 1.284c-.137.196-.294.5-.544.518-.178.013-.613-.334-.765-.429-.026-.016-.057.023-.033.043.276.236.533.493.794.746a.17.17 0 0 0 .197.025 4.5 4.5 0 0 0 1.484-1.828 13.3 13.3 0 0 0 .77-2.788 35 35 0 0 1 2.343-6.348c.906-1.993 1.91-3.941 2.956-5.864.522-.96 1.06-1.914 1.578-2.877q.383-.721.761-1.444a2.8 2.8 0 0 0 .55-1.356.103.103 0 0 0-.152-.088m-5.078-3.839a50 50 0 0 0-4.877 7.56c-.31.64-.567 1.3-.85 1.953a2.55 2.55 0 0 0-.375 1.822c-.036 1.454-.515 2.89-.392 4.344.004.043.073.06.08.011.221-1.428.118-2.894.77-4.23.13-.266.327-.493.442-.762a7 7 0 0 0 .231-.987 13.6 13.6 0 0 1 .794-2.132c1.178-2.623 2.872-5.016 4.254-7.534a.045.045 0 0 0-.077-.045M11.421 181.624c-.012-.013-.032.006-.02.02 1.929 1.986 3.916 3.923 6.015 5.73.011.01.028-.006.017-.016-2.042-1.872-4.068-3.76-6.012-5.734m9.972 6.115a29 29 0 0 0-2.155-2.22c-.756-.742-1.52-1.477-2.272-2.225q-2.224-2.21-4.448-4.423c-.014-.014-.035.007-.022.022q2.093 2.398 4.327 4.666a37.7 37.7 0 0 0 4.527 4.235c.035.025.066-.027.043-.055m4.625.113a.023.023 0 0 0-.04.024l.02.049c-.864-.904-1.866-1.707-2.782-2.553q-1.522-1.407-3.023-2.837-3.003-2.857-5.914-5.81c-.032-.033-.08.016-.05.049q2.888 3.056 5.904 5.985 1.488 1.443 3.012 2.847a32 32 0 0 0 3.03 2.687c.053.038.13-.038.091-.091q-.13-.171-.248-.35m2.672-.62c-.024-.027-.065.007-.049.038l-.013.242c-3.81-3.97-7.703-7.86-11.496-11.848-.014-.014-.036.007-.022.022 3.691 4.168 7.494 8.31 11.526 12.155a.113.113 0 0 0 .187-.05.5.5 0 0 0-.133-.56m1.126-1.685q-.163-.195-.32-.395a.06.06 0 0 0-.061-.018c-1.39-1.524-2.89-2.965-4.335-4.432q-2.372-2.41-4.789-4.773a.022.022 0 0 0-.03.03q2.276 2.503 4.602 4.96c1.543 1.633 3.047 3.336 4.674 4.887.173.166.407-.08.259-.26m348.201 7.645a18 18 0 0 1-.96-2.559q-.186-.637-.324-1.288a4.8 4.8 0 0 0-.28-1.197 3.2 3.2 0 0 0-.67-.773c-.274-.268-.526-.564-.779-.851a11.6 11.6 0 0 1-1.52-2.185c-.016-.03-.058-.004-.044.025a9 9 0 0 0 1.253 2.038c.25.304.559.554.803.86a2.1 2.1 0 0 1 .39 1.2 18 18 0 0 0 1.564 5.061c.183.382.743.049.567-.331m-13.231-41.223-.169-1.512a34 34 0 0 0-.088-.726l-.048-.363-.02-.138q-.085-.212.158-.16c-.012.01.004.029.017.02.142-.088-.036-.267-.165-.218-.173.066-.137.365-.129.496q.038.574.095 1.15c.145 1.517.249 3.046.536 4.544.006.03.054.023.054-.007-.017-1.034-.127-2.059-.241-3.086m-3.617-1.07a39 39 0 0 1-.101-3.155.018.018 0 0 0-.035 0 27 27 0 0 0-.034 3.217 14.5 14.5 0 0 0 .408 3.08.027.027 0 0 0 .054-.007c-.054-1.046-.214-2.09-.292-3.135m-1.703-3.002a.012.012 0 0 0-.022-.006 5.7 5.7 0 0 0-.07 3.759.025.025 0 0 0 .049-.013 7.4 7.4 0 0 1 .043-3.74m-2.356.008c.006-.016-.02-.023-.026-.007a3 3 0 0 0-.122 1.55c.004.017.03.01.027-.008a3.2 3.2 0 0 1 .122-1.535m-18.975-30.557a.2.2 0 0 0-.074-.103.3.3 0 0 0-.098-.046.194.194 0 0 0-.225.083.045.045 0 0 0 .078.045l.002-.003.008-.008.006-.006.005-.003.01-.005.005-.003s-.012.004-.004.002l.021-.006c.007-.001-.012.001 0 0h.032l.004.001.012.003.023.008.011.005.021.013.007.004.003.003.017.017.016.017c.002.002.01.012.003.003l.004.006.005.01.001.002.006.018v.01a.06.06 0 0 0 .016.051l.006.005.005.004a.04.04 0 0 0 .036.005c.054-.014.051-.09.038-.132m-6.029 4.025a5.5 5.5 0 0 0-.685-.381l-.725-.368c-.475-.242-.956-.473-1.436-.706-.016-.007-.03.015-.014.024.474.261.948.525 1.426.777a11 11 0 0 0 1.41.711c.036.013.052-.038.024-.057m1.729-.886a1.4 1.4 0 0 0-.288-.24 2.3 2.3 0 0 0-.35-.2 3 3 0 0 0-.743-.226c-.017-.003-.025.022-.007.026a3 3 0 0 1 .724.267q.164.085.32.183c.108.071.208.154.318.223.022.014.041-.016.026-.033m-9.711-5.278a7.4 7.4 0 0 0-1.01-.528l-1.035-.49c-.01-.005-.02.011-.01.017l1.025.546a7 7 0 0 0 1.015.491c.022.008.033-.024.015-.036m1.941-.461c-.12-.044-.242-.083-.362-.128a10 10 0 0 1-.754-.317 9 9 0 0 1-1.351-.773c-.016-.01-.037.015-.021.028a8 8 0 0 0 1.318.884 7 7 0 0 0 .694.321c.126.05.254.1.383.141a.6.6 0 0 0 .355.054.042.042 0 0 0 .018-.068.6.6 0 0 0-.28-.142m2.644-.536c-.19-.112-.376-.235-.576-.33a8 8 0 0 0-.553-.235 10 10 0 0 0-1.235-.359.027.027 0 0 0-.015.053c.398.146.787.315 1.18.475l.577.233c.197.08.401.138.6.217.03.012.05-.037.022-.054m37.261 30.865c-.005-.454-.075-.895-.103-1.363a3.5 3.5 0 0 0-.318-1.454 21 21 0 0 0 2.484-2.545 17.5 17.5 0 0 0 1.939-3.082c.02-.04-.04-.076-.06-.036a14.13 14.13 0 0 1-4.85 5.362.287.287 0 0 0-.1.381 8.2 8.2 0 0 1 .692 1.476 3.24 3.24 0 0 1-.23 1.725c-.08.231.197.397.388.298a14.5 14.5 0 0 0 2.269-1.776c.05-.04-.014-.115-.066-.086-.677.376-1.4.675-2.045 1.1m81.049 29.895a394 394 0 0 1-4.797-2.786 14.5 14.5 0 0 1-2.371-1.631 9 9 0 0 0-.96-.673 6.7 6.7 0 0 1-1.034-.963 51 51 0 0 1-3.495-4.44q-1.713-2.302-3.366-4.649c-.013-.018-.043 0-.03.018 2.118 3.162 4.255 6.362 6.603 9.359a7.8 7.8 0 0 0 1.726 1.887c.766.472 1.6.862 2.387 1.299 1.444.8 2.868 1.642 4.292 2.48a18.7 18.7 0 0 1-4.109-.843c-.78-.253-1.5-.599-2.291-.834a17 17 0 0 1-2.54-.952.045.045 0 0 0-.044.078 25 25 0 0 0 2.213 1.474 9.4 9.4 0 0 0 2.48.898 23.3 23.3 0 0 0 5.224.693.224.224 0 0 0 .113-.415m-.267-2.82a17 17 0 0 0-2.028-1.755l-2.176-1.725q-2.084-1.65-4.232-3.222c-.018-.013-.04.016-.024.03q2.059 1.788 4.187 3.497l2.098 1.685a16.4 16.4 0 0 0 2.122 1.557.043.043 0 0 0 .053-.068m27.507-11.754c-2.297-.532-4.649-.85-6.982-1.174-.024-.003-.036.033-.01.038 2.311.463 4.639.935 6.985 1.19.03.003.037-.048.007-.054m5.937-3.279c-2.232-.547-4.56-.779-6.823-1.177a225 225 0 0 1-6.815-1.295c-.02-.004-.028.025-.008.03 2.286.54 4.582 1.042 6.891 1.474a48.5 48.5 0 0 0 6.749 1.018.026.026 0 0 0 .006-.05m3.778-3.051a12 12 0 0 0-1.825-.207 36 36 0 0 1-2.372-.305 10 10 0 0 1-1.064-.2 9 9 0 0 0-.916-.29c-.718-.114-1.44-.192-2.156-.316-2.77-.48-5.515-1.156-8.238-1.849a.016.016 0 0 0-.008.03c2.735.833 5.506 1.471 8.296 2.09.664.148 1.326.32 1.993.455a6 6 0 0 0 .888.03c.435.025.866.105 1.296.17q1.012.154 2.02.324a11.5 11.5 0 0 0 2.056.29.114.114 0 0 0 .03-.222m5.245-2.851c-1.356-.297-2.761-.42-4.134-.626a366 366 0 0 1-4.137-.652q-4.136-.67-8.254-1.454c-.017-.003-.024.023-.007.026q4.145.915 8.322 1.666c1.374.244 2.752.463 4.13.675 1.34.205 2.7.472 4.056.542a.09.09 0 0 0 .024-.177m4.592-2.594c-2.105-.53-4.32-.776-6.463-1.121q-3.242-.523-6.481-1.058c-.017-.003-.025.023-.007.026q3.29.578 6.578 1.17c2.101.378 4.236.87 6.363 1.064.046.004.055-.07.01-.08m5.792-2.898c-1.972-.363-4.015-.488-6.008-.707a837 837 0 0 0-6.236-.657c-.02-.002-.02.03 0 .032 2.038.254 4.076.509 6.116.748 2.025.238 4.08.583 6.117.673.05.002.062-.08.011-.089m3.225-2.513a13.5 13.5 0 0 0-2.081-.33q-1.124-.142-2.25-.269a131 131 0 0 0-4.507-.408c-.01 0-.01.015 0 .016 1.476.157 2.948.344 4.421.522q1.082.13 2.163.274a17 17 0 0 0 2.246.257.031.031 0 0 0 .008-.062m-.675-3.128c-.01 0-.01.016 0 .016a21 21 0 0 1 3.74.188c.014.001.017-.02.004-.023a14.7 14.7 0 0 0-3.744-.181m7.733-2.282a4.6 4.6 0 0 0-.938.195.022.022 0 0 0 .012.042 5.9 5.9 0 0 1 1.871-.136.02.02 0 0 0 .006-.038 3.3 3.3 0 0 0-.951-.063m5.717-1.967a16 16 0 0 0-1.52.548c-.013.005-.008.027.007.022a16 16 0 0 0 1.528-.535c.02-.009.005-.041-.015-.035m26.027-24.025a23 23 0 0 0-2.025-1.858c-.015-.013-.037.008-.022.022a30 30 0 0 1 1.953 1.88c.626.654 1.196 1.353 1.792 2.033.015.016.044-.006.031-.024a16.5 16.5 0 0 0-1.729-2.053m7.685 2.332c-.893-1.533-1.795-3.061-2.693-4.592q-2.693-4.593-5.4-9.178a.01.01 0 0 0-.017.01q2.589 4.582 5.193 9.155l2.573 4.52a39 39 0 0 0 2.746 4.562c.02.025.072.012.057-.024a38 38 0 0 0-2.459-4.452m9.754 5.838a35 35 0 0 0-.744-1.353 27 27 0 0 1-1.565-3.025c-.178-.43-.328-.873-.507-1.304a7 7 0 0 0-.838-1.268 38 38 0 0 1-1.642-2.591 630 630 0 0 0-6.597-11.082.008.008 0 0 0-.013.008c2.114 3.743 4.312 7.437 6.469 11.156a26 26 0 0 1 1.398 2.734 7.6 7.6 0 0 0 .718 1.509c.276.39.564.77.824 1.171a20 20 0 0 1 1.421 2.748c.227.509.448 1.02.688 1.523a2.06 2.06 0 0 0 .679 1.02.075.075 0 0 0 .111-.064 2.14 2.14 0 0 0-.402-1.182m7.099 2.561c-.421-.742-.832-1.49-1.256-2.23-.87-1.516-1.822-2.98-2.667-4.51-1.69-3.06-2.977-6.335-4.755-9.345-.017-.029-.07-.01-.057.025 1.281 3.21 3.16 6.156 4.726 9.23.794 1.56 1.505 3.163 2.318 4.713.415.791.855 1.57 1.29 2.352.324.586.637 1.524 1.24 1.86a.08.08 0 0 0 .118-.067c.02-.695-.624-1.441-.957-2.028m2.143-7.871a30 30 0 0 0-.73-1.775 7 7 0 0 0-.717-1.348 1.9 1.9 0 0 0-1.03-.647c-.037-.012-.05.043-.016.057.405.162.68.69.872 1.06.229.44.412.903.62 1.353.247.53.515 1.05.787 1.568.271.515.531 1.043.817 1.55.022.04.09.013.075-.031-.208-.6-.452-1.193-.678-1.787m6.778 13.696a6.4 6.4 0 0 0-.617-1.207q-.371-.703-.754-1.399c-.998-1.804-2.04-3.582-3.026-5.394-.011-.02-.04-.002-.03.018q1.073 2.134 2.098 4.29c.336.707.674 1.412 1.027 2.11q.267.523.538 1.041l.27.52c.024.047.173.407.09.4a.08.08 0 0 0-.07.12c.252.418.545-.233.474-.499m5.284.599q-.957-1.94-1.91-3.883l-3.742-7.666c-.009-.018-.035-.002-.027.016l3.589 7.613q.87 1.848 1.731 3.701a29 29 0 0 0 1.903 3.886c.047.07.17.029.143-.06a26.4 26.4 0 0 0-1.687-3.607m5.9 2.463q-.644-1.272-1.18-2.593c-.016-.041-.083-.025-.067.018q.483 1.306 1.052 2.579a14.2 14.2 0 0 0 1.38 2.508.031.031 0 0 0 .053-.032c-.374-.844-.822-1.656-1.238-2.48M364.368 15.864a7 7 0 0 0-1.667-.402l-1.821-.357a131 131 0 0 0-3.658-.658c-.012-.002-.017.016-.005.02 1.203.281 2.408.551 3.618.799l1.817.372a7 7 0 0 0 1.703.273c.023 0 .037-.035.013-.047m5.448-3.701-1.194-.244c-.01-.002-.014.012-.005.015l1.212.268c.388.086.78.197 1.174.244.014.001.015-.02.003-.023-.385-.12-.796-.179-1.19-.26m4.26-.208a.5.5 0 0 0-.228-.022 2 2 0 0 0-.248.036q-.237.05-.475.093c-.039.008-.03.072.01.07q.242-.015.485-.02a2 2 0 0 0 .237-.023.5.5 0 0 0 .227-.077.032.032 0 0 0-.008-.057m-.254 29.818c-2.284-.997-4.59-1.941-6.877-2.931-.03-.013-.055.03-.025.043 2.266 1.046 4.546 2.056 6.883 2.934.027.01.046-.034.02-.046m5.272-.154c-3.166-1.34-6.378-2.553-9.528-3.935-.016-.006-.03.016-.014.024a70 70 0 0 0 9.518 3.968c.033.01.057-.043.024-.057m1.13-2.696a10 10 0 0 0-1.735-.771c-.629-.245-1.252-.506-1.876-.762l-3.748-1.538c-.006-.002-.01.008-.004.01l3.715 1.616c.619.269 1.24.534 1.854.814a10 10 0 0 0 1.762.706.041.041 0 0 0 .032-.075m6.572.644a25 25 0 0 0-4.474-2.056c-1.564-.641-3.122-1.296-4.68-1.949-.035-.014-.06.046-.026.061a235 235 0 0 1 4.614 2.106 27 27 0 0 0 4.521 1.945.059.059 0 0 0 .045-.107m3.969-.96a15 15 0 0 0-2.549-1.065q-1.432-.53-2.862-1.066-2.809-1.049-5.572-2.213c-.018-.008-.032.024-.014.032q2.644 1.213 5.324 2.344c.909.381 1.825.743 2.744 1.097a14 14 0 0 0 2.907.924c.03.005.053-.035.022-.053m1.193-2.473a9 9 0 0 0-1.706-.55q-.922-.266-1.84-.549a72 72 0 0 1-3.633-1.224c-.014-.005-.024.019-.01.025 1.161.492 2.335.952 3.528 1.36q.91.31 1.83.582a7.4 7.4 0 0 0 1.815.415.031.031 0 0 0 .016-.059m.846-2.093a2.5 2.5 0 0 0-.774-.235c-.27-.06-.544-.111-.815-.17a36 36 0 0 1-1.65-.389.012.012 0 0 0-.006.023c.54.201 1.085.386 1.638.546.277.08.553.156.834.217a2 2 0 0 0 .764.076c.033-.006.034-.053.01-.068m2.374-2.036a10 10 0 0 0-1.802.276c-.015.003-.011.029.004.027a10 10 0 0 0 1.804-.257.024.024 0 0 0-.006-.046m-114.918 31.51-.002.004c1.175.834 2.348 1.67 3.533 2.491.004.003.008-.004.004-.007-1.172-.838-2.354-1.662-3.535-2.488m-.029-3.481a17 17 0 0 0-1.318-1.226c-.479-.39-.97-.77-1.419-1.194a2.1 2.1 0 0 1-.477-.597 1.3 1.3 0 0 0-.217-.336 3 3 0 0 0-.328-.257 4 4 0 0 1-.519-.63 6 6 0 0 0-.654-.682c-.021-.02-.063 0-.052.03a6 6 0 0 0 .313.835 5 5 0 0 1 .385.8 1.1 1.1 0 0 0 .44.707c.232.146.493.24.725.39.533.344 1.024.754 1.522 1.146a18 18 0 0 0 1.554 1.072.037.037 0 0 0 .045-.058m24.751 36.811c-.016-.012-.037.015-.021.027a18 18 0 0 0 2.505 2.101c.035.02.086-.022.059-.058a10.6 10.6 0 0 0-2.543-2.07M121.986 245.57c-.018-.009-.034.018-.016.027a39 39 0 0 0 6.91 3.035c.017.006.023-.02.007-.026-2.338-.947-4.663-1.864-6.901-3.036m13.543 3.303a14.7 14.7 0 0 0-2.813-1.218c-1.015-.4-2.033-.793-3.047-1.195a192 192 0 0 1-6.246-2.62c-.025-.01-.047.026-.022.038 2.019.927 4.05 1.824 6.087 2.712.939.41 1.879.818 2.827 1.205a14.7 14.7 0 0 0 3.187 1.143.035.035 0 0 0 .027-.065m4.87-.613a2.55 2.55 0 0 0-1.08-.559q-.755-.287-1.512-.57c-1.043-.393-2.092-.77-3.132-1.17a167 167 0 0 1-6.286-2.605c-.012-.005-.022.012-.01.017 2.026.935 4.069 1.83 6.112 2.728.928.408 1.853.825 2.787 1.217q.748.315 1.5.614a3.54 3.54 0 0 0 1.565.46.08.08 0 0 0 .056-.133m4.593-.177a16 16 0 0 0-2.496-1.047q-1.341-.531-2.672-1.088-2.752-1.152-5.458-2.411c-.025-.012-.047.024-.022.037q2.635 1.297 5.318 2.495 1.317.587 2.645 1.149a14 14 0 0 0 2.628 1 .075.075 0 0 0 .057-.135m4.096-.806a10.6 10.6 0 0 0-1.753-.724c-.61-.225-1.222-.441-1.834-.657q-1.87-.66-3.736-1.333c-.031-.012-.044.037-.014.048q1.822.705 3.637 1.423c.583.23 1.165.462 1.751.685a11.3 11.3 0 0 0 1.911.647.05.05 0 0 0 .038-.09m.865-3.127a5.6 5.6 0 0 0-2.18-.667c-.032-.003-.04.053-.007.058a8 8 0 0 1 2.163.65c.027.011.05-.026.024-.041m1.903-1.021a.02.02 0 0 0 0 .039c.341.003.681.01 1.022-.004a.016.016 0 0 0 0-.031c-.34-.014-.68-.008-1.022-.004m61.909-96.59a62 62 0 0 0-1.789 6.406.031.031 0 0 0 .06.017 62 62 0 0 0 1.774-6.41.023.023 0 0 0-.045-.013m-1.803 1.016c-.821 2.482-1.75 4.953-2.32 7.509a.037.037 0 0 0 .071.02c.96-2.436 1.578-5.002 2.29-7.518a.022.022 0 0 0-.04-.011m-2.543 3.234c-.62 1.647-1.254 3.29-1.823 4.955-.006.017.02.023.026.007.646-1.638 1.228-3.298 1.823-4.955.006-.016-.02-.023-.026-.007m-2.333 3.168q-.44 1.272-.849 2.553c-.004.015.018.02.023.007q.447-1.271.86-2.551c.007-.022-.027-.03-.034-.01m-16.852-1.013-.923-1.484c-.616-.99-1.24-1.975-1.86-2.961a.023.023 0 0 0-.041.024c.588 1.005 1.175 2.012 1.77 3.014l.89 1.503a10 10 0 0 0 .898 1.378c.028.033.092-.002.075-.044a10 10 0 0 0-.809-1.43m.037-4.281c-.018-.034-.068-.004-.05.029.357.659.708 1.32 1.09 1.966a.018.018 0 0 0 .03-.018c-.338-.67-.706-1.322-1.07-1.978"/></svg>