<svg xmlns="http://www.w3.org/2000/svg" data-name="eight" viewBox="0 0 498.408 209.042"><path fill="currentColor" d="M381.552 27.537c-.36-1.13-.773-2.244-1.137-3.373a23.6 23.6 0 0 0-1.114-3.72c-.297-.567-.674-1.088-.951-1.669q-.413-.874-.83-1.747c-.558-1.163-1.05-2.36-1.64-3.507-.03-.058-.112-.01-.098.047.611 2.379 1.582 4.695 1.977 7.124a14.2 14.2 0 0 0 1.479 3.34c.494 1.093.93 2.213 1.356 3.333a40.4 40.4 0 0 1 1.886 6.587 12.2 12.2 0 0 1-.27 6.7 1.6 1.6 0 0 0-1.501.195 30 30 0 0 0-.238-2.121c-.153-1.105-.265-2.217-.42-3.322a34.4 34.4 0 0 0-1.444-6.537.027.027 0 0 0-.052.017 55 55 0 0 1 1.314 6.767 18.3 18.3 0 0 1 .09 3.497c-.09 1.066-.183 2.119-.199 3.19-.035.62.928.57.965-.045.009-.768.916-.988 1.488-.715a.392.392 0 0 0 .558-.258 28.8 28.8 0 0 0 .39-6.924 32 32 0 0 0-1.61-6.859m3.616-4.353c-.174-.857-.353-1.72-.446-2.587a2 2 0 0 0-.5-1.118 8.4 8.4 0 0 1-.704-1.158c-.859-1.55-1.76-3.096-2.669-4.62-.02-.034-.071 0-.052.035a22.8 22.8 0 0 1 2.005 4.927 5.7 5.7 0 0 1 .25 1.262 2.1 2.1 0 0 0 .294 1.114 12 12 0 0 1 1.088 2.384 39.4 39.4 0 0 1 1.754 10.16.05.05 0 0 0 .102-.005 43 43 0 0 0-1.122-10.394m-102.164-.697a18 18 0 0 0-2.906-1.113 8.6 8.6 0 0 0-1.463-.11 5.3 5.3 0 0 0-1.588.161 1 1 0 0 0-.505.459c-.129.194-.083.21-.332.265-.526.116-1.045.259-1.569.386a51 51 0 0 0-3.06.824c-2.03.631-4.014 1.394-6.013 2.114-2.024.728-4.043 1.47-6.037 2.274a100 100 0 0 0-11.419 5.646 7.8 7.8 0 0 1-3.189 1.327 3 3 0 0 0-1.243.168 9.5 9.5 0 0 0-1.305.953c-.424.282-.734.661-1.18.926-.462.273-.935.529-1.407.78a31 31 0 0 1-3.015 1.372 80.7 80.7 0 0 1-13.516 4.094c-.015.003-.008.025.007.023a81 81 0 0 0 11.846-3.238c1.925-.688 3.822-1.45 5.744-2.147a26 26 0 0 1 3.006-.79 2.36 2.36 0 0 0 1.207-.674 7 7 0 0 1 1.144-1.301 55 55 0 0 1 5.52-3.21q2.876-1.586 5.88-2.91c3.847-1.689 7.808-3.152 11.784-4.508 1.116-.38 2.239-.74 3.376-1.051a28 28 0 0 1 1.708-.422 12 12 0 0 1 1.001-.157 2.9 2.9 0 0 1 .917-.094c.202.062.269.227.436.346a1.08 1.08 0 0 0 .737.137 65 65 0 0 0 1.713-.084 12 12 0 0 0 1.636-.168 5.5 5.5 0 0 1 2.05-.126.078.078 0 0 0 .035-.152"/><path fill="currentColor" d="M296.312 27.31a61 61 0 0 0-6.605-1.743q-1.631-.415-3.251-.878-.803-.228-1.608-.451a5.3 5.3 0 0 1-1.715-.558.68.68 0 0 0-.94.044c-.13.14-.64.097-.82.115a23 23 0 0 0-2.263.344c-.971.183-1.936.404-2.903.606l-6.304 1.314c-.06.012-.03.1.029.09l5.976-1.13c1.03-.194 2.06-.4 3.098-.55a13 13 0 0 1 1.437-.124c.304-.01 1.508-.106 1.684.145a.684.684 0 0 0 .92.197 3.14 3.14 0 0 1 1.528-.056 17 17 0 0 1 1.824.263c1.1.211 2.189.503 3.271.79a60 60 0 0 0 6.601 1.691c.061.01.107-.084.04-.109m1.558 32.636a1.73 1.73 0 0 0-.868-.456c-.407-.083-.828-.112-1.24-.16l-.081-.007q-.557-.531-1.118-1.058l-2.446-2.3c-1.63-1.534-3.284-3.042-4.93-4.559-.015-.013-.035.01-.02.023 1.58 1.588 3.153 3.184 4.75 4.755l2.327 2.289q.406.399.814.797a21 21 0 0 0-1.757-.073 23 23 0 0 1-3.338-.258c-.465-.404-.939-.796-1.398-1.205q-2.865-2.559-5.67-5.185c-.06-.056-.14.034-.085.092q2.705 2.809 5.56 5.46.391.362.785.722-.64-.103-1.273-.22c-1.972-.361-3.941-.66-5.918-.92-1.66-1.453-3.282-2.951-4.824-4.53-.05-.052-.122.03-.074.08 1.463 1.534 3 2.993 4.577 4.41q-2.072-.269-4.16-.485c-.067-.007-.094.094-.023.107q2.302.413 4.6.75c.404.359.794.733 1.206 1.082 1.072.907 2.186 1.761 3.257 2.668.462.393.89.822 1.333 1.234l-.079-.013c-1.829-.292-3.656-.59-5.481-.905l-.5-.088c-.812-.621-1.615-1.253-2.42-1.879q-3.666-2.846-7.394-5.609c-.067-.05-.157.044-.09.098q3.664 2.941 7.399 5.787.992.754 1.982 1.51a487 487 0 0 1-9.616-1.76q-.514-.34-1.024-.684c-1.854-1.25-3.688-2.535-5.461-3.899-.028-.02-.064.018-.037.04a59.5 59.5 0 0 0 7.875 5.585c1.413.837 2.878 1.617 4.243 2.532.652.437 1.312.88 2.001 1.255.07.038.152.07.228.106a618 618 0 0 0-8.783-1.836l-.066-.038c-.986-.609-1.972-1.217-2.947-1.845q-2.962-1.907-5.821-3.967c-.04-.03-.093.027-.053.057q2.74 2.08 5.578 4.024 1.177.802 2.373 1.578-1.641-.334-3.281-.67a.016.016 0 0 0-.007.03q1.761.394 3.521.795.148.1.296.197a15 15 0 0 0 2.934 1.723c.12.041.192-.132.109-.208a13 13 0 0 0-2.292-1.475c3.104.704 6.21 1.401 9.326 2.05a2 2 0 0 1 .364.237c-.162.241.191.484.444.492a.46.46 0 0 0 .524-.452q1.666.338 3.336.652a.035.035 0 0 0 .015-.068q-1.68-.41-3.367-.79a.85.85 0 0 0-.23-.433 3.8 3.8 0 0 0-1.09-.588c-.44-.202-.88-.4-1.333-.572-1.029-.39-2.04-.767-3.028-1.256a40 40 0 0 1-4.261-2.515c3.365.774 6.74 1.508 10.128 2.176.347.27.697.537 1.037.818 1.204.994 2.236 2.168 3.523 3.065.422.294.782-.344.47-.686l.019-.012c-1.177-1.001-2.562-1.692-3.816-2.583-.22-.156-.43-.325-.648-.486q2.542.496 5.09.96c.36.064.723.122 1.084.184a2.65 2.65 0 0 0 1.112.437.156.156 0 0 0 .17-.219l.31.053a12.5 12.5 0 0 0 2.622.3c.133-.007.202-.22.06-.272a12.6 12.6 0 0 0-2.446-.512l-.986-.16a4 4 0 0 0-.872-.652c-.6-.35-1.23-.648-1.81-1.032a39 39 0 0 1-3.472-2.7c-.313-.262-.609-.542-.918-.808 1.81.262 3.622.49 5.452.67q.676.064 1.366.142c.648.595 1.299 1.187 1.942 1.787l1.424 1.328a7 7 0 0 0 .769.676 2.2 2.2 0 0 0 .686.237c.096.032.151-.088.112-.16a2.1 2.1 0 0 0-.473-.737c-.23-.205-.477-.39-.72-.579q-.728-.57-1.443-1.154c-.513-.419-1.003-.863-1.503-1.297a19 19 0 0 1 2.888.58 21 21 0 0 0 2.542.617c.224.038.449.07.673.106a2.4 2.4 0 0 0 .574.372.067.067 0 0 0 .086-.094 2 2 0 0 0-.117-.193l.017.003a1.9 1.9 0 0 0 1.14-.168.154.154 0 0 0 .055-.258m4.843-3.439a16.4 16.4 0 0 0-2.375-.133q-1.401-.08-2.796-.245l-.12-.017q-.15-.137-.298-.275-1.055-1.001-2.114-1.999-2.09-1.964-4.194-3.915c-.033-.031-.08.02-.047.052q2.038 2.021 4.102 4.016 1.014.987 2.034 1.967l.094.094a74 74 0 0 1-4.584-.745.02.02 0 0 0-.009.038 36.5 36.5 0 0 0 4.861.972 13 13 0 0 0 1.676 1.507c.05.036.118-.041.081-.089a10.6 10.6 0 0 0-1.31-1.353 49 49 0 0 0 2.245.23 11.4 11.4 0 0 0 2.737.08c.097-.017.13-.162.017-.185m.12-4.421c-1.928-.448-3.894-.761-5.85-1.06-.024-.004-.033.032-.008.038 1.935.411 3.884.813 5.846 1.076a.027.027 0 0 0 .012-.054m6.83.089-2.495-2.692-.256-.273.891-.041a.016.016 0 0 0-.001-.032l-.918.043c-1.546-1.664-3.107-3.313-4.663-4.967-.024-.026-.06.014-.036.04 1.589 1.77 3.168 3.547 4.77 5.304l2.328 2.556a21 21 0 0 0 2.524 2.659.059.059 0 0 0 .089-.076 19.4 19.4 0 0 0-2.233-2.521m-5.552 64.032c-3.653.697-7.302 1.446-10.978 2.01a29.7 29.7 0 0 1-5.157.373c-.784-.017-1.567-.016-2.35-.017a7 7 0 0 0-1.164.014 7 7 0 0 1-1.496.315 16.3 16.3 0 0 1-5.019-1.506c-.785-.307-1.562-.696-2.325-1.056a4.5 4.5 0 0 0-1.023-.451 8 8 0 0 0-1.36-.16 53 53 0 0 1-5.368-.662c-1.811-.258-3.625-.507-5.434-.78-4.024-.606-8.036-1.312-12.052-1.97-.004 0-.006.007-.001.008l11.007 2.074c3.539.666 7.105 1.375 10.6 2.244a24 24 0 0 0 2.5.795c.4.053.807-.02 1.213.022.472.049.958.067 1.428.135a32 32 0 0 1 4.925 1.572 6.5 6.5 0 0 1 1.306.51 6 6 0 0 0 .964.51 6.65 6.65 0 0 0 2.784.079 35 35 0 0 0 4.982-1.228c3.958-1.121 8.012-1.917 12.028-2.801.02-.005.01-.034-.01-.03"/><path fill="currentColor" d="M297.848 113.907a43.7 43.7 0 0 0-10.476 1.963c-.077.025-.058.157.027.145a103 103 0 0 0 10.473-1.979c.073-.018.05-.134-.024-.13m7.842-1.929a3.2 3.2 0 0 0-1.107.153 9 9 0 0 0-1.085.325 12.5 12.5 0 0 0-1.947 1.004c-.051.032 0 .11.051.079a6.4 6.4 0 0 1 .976-.473 6 6 0 0 1 .995-.262 7 7 0 0 1 1.032-.15 9 9 0 0 0 1.027-.02.34.34 0 0 0 .313-.303.33.33 0 0 0-.255-.353m-.198-3.052a9.5 9.5 0 0 0-2.846.654q-1.559.442-3.128.845-3.08.79-6.197 1.42c-.047.01-.032.093.016.085 2.057-.366 4.111-.761 6.155-1.2q1.53-.327 3.054-.682a9.2 9.2 0 0 0 3.01-.921.11.11 0 0 0-.064-.201m1.488-3.282c-1.082.251-2.143.627-3.202.963l-3.188 1.01a.035.035 0 0 0 .022.067l3.2-.974c1.062-.324 2.15-.615 3.183-1.022a.023.023 0 0 0-.014-.044m-.797-3.268a1.4 1.4 0 0 0-.566-.032 2.2 2.2 0 0 0-.557.13 2 2 0 0 0-.888.693c-.014.02.013.046.03.026a2.17 2.17 0 0 1 .903-.63 2 2 0 0 1 .53-.132 5 5 0 0 1 .543.007c.038 0 .036-.05.005-.062m-89.424 10.802a26.4 26.4 0 0 0-6.773-.166c-2.316.217-4.636.182-6.96.202-4.644.038-9.289.121-13.934.165-2.317.021-4.659.085-6.974-.011-1.21-.05-2.364-.254-3.56-.417a14.6 14.6 0 0 0-3.422.265c-2.311.218-4.638.286-6.955.433q-3.478.221-6.955.452c-5.216.341-10.433.667-15.647 1.042a.016.016 0 0 0 .002.031c9.243-.487 18.482-.738 27.737-.88q.81-.01 1.62.016c.644.02 1.26.114 1.898.17a11.3 11.3 0 0 0 3.312-.438 42 42 0 0 1 7.084-.496c4.6-.173 9.208-.184 13.81-.178 2.636.004 5.315-.11 7.941.123a33.6 33.6 0 0 0 7.744.05c.19-.027.251-.326.032-.363m5.126-.118-.367.021-.72.042a.043.043 0 0 0 .003.086l.721-.025.354-.012.177-.006a.17.17 0 0 0 .13-.042.03.03 0 0 0-.003-.044c-.075-.062-.205-.026-.295-.02m-15.964-4.676c-.508-.034-.993-.239-1.506-.242a14 14 0 0 0-1.483.25c-.906.093-1.825.092-2.735.12l-5.847.172q-5.785.172-11.567.397a.016.016 0 0 0 .001.032q5.789-.084 11.576-.207l5.725-.13c.952-.021 1.912-.073 2.864-.027a12 12 0 0 0 1.503.173c.505-.039.978-.26 1.48-.32a.11.11 0 0 0-.01-.218m11.247-.196a10.9 10.9 0 0 0-4.443-.112c-.025.004-.024.042.001.04a20.4 20.4 0 0 1 4.426.148.04.04 0 0 0 .017-.076m-21.123 49.63a2.06 2.06 0 0 0-1.256-.76q-.938-.233-1.876-.462-1.76-.426-3.524-.837c-2.397-.56-4.824-.922-7.227-1.44-4.8-1.035-9.62-1.993-14.413-3.06a15 15 0 0 1-3.472-1.29 5.1 5.1 0 0 0-1.556-.558c-.632-.095-1.277-.118-1.913-.178-2.462-.232-4.9-.635-7.342-1.016q-7.29-1.136-14.614-2.02c-5.481-.665-10.97-1.295-16.465-1.834-.044-.005-.06.063-.015.068 9.752 1.142 19.435 2.67 29.093 4.433 2.376.434 4.745.88 7.098 1.424 1.218.282 2.4.69 3.612.988a16 16 0 0 0 3.547 0 23.3 23.3 0 0 1 3.87.59c1.185.233 2.372.46 3.552.719a310 310 0 0 1 7.178 1.658c2.664.652 5.276 1.474 7.925 2.184 1.323.354 2.649.696 3.971 1.05l1.984.534a5.4 5.4 0 0 0 .936.24 2.2 2.2 0 0 0 .859-.208.135.135 0 0 0 .048-.225m6.812 1.07a23.7 23.7 0 0 0-3.848-1.097c-.054-.014-.07.068-.019.084a23.6 23.6 0 0 0 3.818 1.144c.074.01.126-.095.049-.13m71.451-92.576a39 39 0 0 0-4.31-1.013 5 5 0 0 1-1.291-.477 3 3 0 0 0-.883-.459c-.216-.06-.435-.11-.653-.162-.615-.353-1.242-.688-1.854-1.04-.902-.518-1.808-1.028-2.698-1.569-1.749-1.063-3.455-2.193-5.155-3.331-.059-.04-.127.058-.071.102a52 52 0 0 0 5.088 3.492c.888.54 1.784 1.074 2.704 1.56.355.187.714.38 1.076.566q-.351-.079-.7-.162c-1.468-.357-2.934-.724-4.408-1.055-1.557-.349-3.132-.581-4.7-.862a.047.047 0 0 0-.021.091c1.47.526 2.925 1.084 4.425 1.526 1.488.439 2.996.82 4.5 1.199.712.18 1.423.371 2.14.535a2.8 2.8 0 0 0 1.067.002 4.8 4.8 0 0 1 1.282.16 38 38 0 0 0 4.434 1.022.067.067 0 0 0 .028-.125m27.246-10.886c-.299-.292-.608-.572-.916-.853-.615-.562-1.226-1.13-1.85-1.685q-1.871-1.663-3.786-3.273a.035.035 0 0 0-.047.052q1.771 1.77 3.586 3.493c.589.557 1.19 1.102 1.786 1.651.307.283.61.569.926.841a3.7 3.7 0 0 0 .964.724.071.071 0 0 0 .091-.1 3.5 3.5 0 0 0-.754-.85m-.107-5.589q-2.36-2.487-4.743-4.952c-.031-.033-.077.02-.047.052q2.298 2.48 4.606 4.95c1.53 1.63 2.998 3.392 4.67 4.88.031.028.087-.015.058-.05-1.372-1.732-3.024-3.279-4.544-4.88m5.813-5.096c-.026-.022-.063.017-.036.04a44 44 0 0 1 4.069 4.142c.017.02.052-.01.035-.03a28 28 0 0 0-4.068-4.152m2.744 14.856a.008.008 0 0 0-.01.012c2.503 2.254 4.977 4.548 7.523 6.754a.02.02 0 0 0 .026-.029c-2.472-2.289-5.024-4.495-7.539-6.737m7.914 1.145c-1.524-1.367-3.069-2.708-4.613-4.051a.031.031 0 0 0-.042.046c1.496 1.397 2.989 2.795 4.506 4.169 1.512 1.37 2.983 2.82 4.603 4.063a.047.047 0 0 0 .063-.07c-1.403-1.482-2.998-2.794-4.517-4.157m6.631-.039-3.11-2.753c-2.073-1.836-4.17-3.644-6.26-5.46a.027.027 0 0 0-.038.04c2.044 1.868 4.082 3.742 6.144 5.59l3.004 2.691a42 42 0 0 0 3.241 2.785.05.05 0 0 0 .068-.075 41 41 0 0 0-3.05-2.818m.157-5.801-6.4-5.841a.012.012 0 0 0-.016.017l6.362 5.884c2.111 1.952 4.156 4.041 6.38 5.865a.043.043 0 0 0 .058-.064c-2.005-2.061-4.26-3.922-6.384-5.86m7.959 1.095q-1.578-1.572-3.205-3.093a128 128 0 0 0-6.732-5.84c-.02-.015-.045.013-.026.03a155 155 0 0 1 6.55 5.864q1.576 1.49 3.105 3.03a43 43 0 0 0 3.132 3.165c.049.04.129-.019.088-.075a26 26 0 0 0-2.912-3.08m6.662.633a.04.04 0 0 0 .057.053l.035.087q-.154.129-.223-.028a.8.8 0 0 1-.152-.236 2 2 0 0 0-.328-.4c-.428-.423-.869-.835-1.304-1.251q-1.273-1.215-2.555-2.42-2.564-2.411-5.18-4.766a.02.02 0 0 0-.027.03q3.537 3.321 7.014 6.706.852.83 1.7 1.664a3.4 3.4 0 0 1 .461.506 2 2 0 0 0 .193.303.4.4 0 0 0 .275.16c.385-.004.22-.64.034-.408m3.797-2.274a27 27 0 0 0-2.245-1.828l-2.322-1.745c-.031-.023-.073.02-.042.047l2.269 1.866a26 26 0 0 0 2.287 1.736c.046.03.09-.041.053-.076m4.868-1.319c-.338-.233-.684-.454-1.018-.691a3.1 3.1 0 0 1-.856-.789 2.24 2.24 0 0 0-.988-.612c-1.41-.658-2.777-1.415-4.169-2.11a.031.031 0 0 0-.029.056 40 40 0 0 1 3.267 2.287c-.178-.094-.354-.193-.534-.285a.027.027 0 0 0-.025.048c.27.148.543.287.814.431.097.079.204.147.299.227a2.6 2.6 0 0 0 .839.614 3.2 3.2 0 0 1 .608.18 5 5 0 0 1 .464.278c.345.222.677.462 1.01.702.212.153.46.382.731.288a.07.07 0 0 0 .049-.07c0-.266-.262-.417-.462-.554M268.12 67.292a31 31 0 0 0-3.128-.907q-1.62-.442-3.245-.858a90 90 0 0 0-3.265-.766 13.8 13.8 0 0 0-3.215-.496.055.055 0 0 0-.022.103 13.8 13.8 0 0 0 3.099 1.003c1.041.27 2.089.527 3.14.76q1.577.35 3.16.67a33 33 0 0 0 3.42.644c.083.007.152-.116.056-.153m-9.143.417a14.2 14.2 0 0 0-3.61-1.154 34 34 0 0 0-3.858-.664.016.016 0 0 0-.007.03c1.242.31 2.49.597 3.724.938a27 27 0 0 0 3.719.937.047.047 0 0 0 .032-.087m-9.98-.765c-.023-.01-.042.025-.018.035l1.579.663c.018.008.033-.02.014-.028zm4.649-32.347a33 33 0 0 0-4.887 2.442c-.777.47-1.536.974-2.282 1.492-.757.526-1.59 1.022-2.303 1.6a8 8 0 0 0-.907 1.038c-.3.341-.603.681-.899 1.026q-.888 1.039-1.683 2.153a43 43 0 0 0-1.434 2.136 12.5 12.5 0 0 0-1.32 2.41c-.028.08.098.146.147.077.493-.687.853-1.48 1.308-2.197a23 23 0 0 1 1.566-2.183q.858-1.059 1.809-2.038c.317-.327.638-.652.984-.948.323-.278.707-.49 1.005-.795.613-.63 1.141-1.298 1.815-1.876a24 24 0 0 1 2.217-1.679 28.4 28.4 0 0 1 4.88-2.606c.033-.013.016-.065-.016-.052m-12.198 6.453a27.4 27.4 0 0 0-4.383 4.372 11.3 11.3 0 0 0-1.417 2.477c-.09.225-.165.456-.25.683a1.03 1.03 0 0 1-.79.672c-.598.182-1.177.414-1.76.636a.023.023 0 0 0 .015.044 18 18 0 0 0 1.914-.39 1.19 1.19 0 0 0 .858-.728c.209-.522.36-1.055.605-1.564a12 12 0 0 1 .772-1.349 27.3 27.3 0 0 1 4.459-4.833c.015-.014-.008-.034-.023-.02m-10.997 9.47q-.578.146-1.166.237-.286.043-.574.074-.132.014-.265.025a1 1 0 0 0-.28.034.051.051 0 0 0 .005.098 1 1 0 0 0 .28-.013q.155-.017.31-.037.287-.039.572-.09.576-.104 1.14-.26c.044-.012.022-.078-.022-.067m121.986 2.454c-.564-.348-1.257-.42-1.85-.716a13.5 13.5 0 0 1-1.685-1.101c-1.032-.727-2.114-1.373-3.179-2.05-.03-.018-.064.03-.035.051a33 33 0 0 0 3.154 2.192 16 16 0 0 1 1.764 1.093 13 13 0 0 0 1.446 1.266c.467.268.835-.457.385-.735m3.993.137a1.6 1.6 0 0 0-.48-.426q-.306-.212-.616-.417-.64-.42-1.305-.804a23 23 0 0 0-2.721-1.322c-.023-.01-.041.023-.019.035a33 33 0 0 1 2.587 1.486q.633.4 1.243.835.303.217.599.441a1.9 1.9 0 0 0 .58.362.126.126 0 0 0 .133-.19m3.731-.928a5 5 0 0 0-.512-.446 5 5 0 0 0-.597-.361 7 7 0 0 0-1.277-.484c-.03-.01-.046.037-.019.05.404.204.779.45 1.171.672.193.109.38.23.575.334.2.107.404.206.606.311a.047.047 0 0 0 .053-.076m-43.217 17.481a1.6 1.6 0 0 0-.24-.213c-.158-.128-.312-.26-.474-.382l-.976-.73q-.973-.732-1.938-1.478c-.035-.027-.082.022-.047.052q.928.783 1.845 1.579l.888.774c.153.133.314.257.472.384.075.06.148.122.228.176a1.6 1.6 0 0 0 .289.128c.053.023.12-.035.081-.09-.046-.064-.078-.139-.128-.2m-3.492 1.311c-.095-.124-.189-.25-.29-.369l-.63-.737c-.022-.027-.069.012-.047.04l.592.769c.095.124.199.241.3.36.105.123.205.25.321.362a.027.027 0 0 0 .042-.035c-.086-.137-.19-.262-.288-.39m75.233-23.689a9 9 0 0 0-1.106-.892q-.574-.425-1.14-.86c-.754-.58-1.508-1.16-2.25-1.757-.058-.047-.136.037-.079.086.73.63 1.469 1.25 2.228 1.845q.561.44 1.13.87a7.4 7.4 0 0 0 1.168.778.043.043 0 0 0 .05-.07m4.853.036a41 41 0 0 0-3.394-2.771c-1.155-.903-2.326-1.783-3.471-2.7-.027-.021-.063.017-.037.041 1.097.996 2.197 1.995 3.343 2.935a26 26 0 0 0 3.502 2.577c.051.03.098-.043.058-.082m-3.545-7.517c-.015-.009-.032.015-.018.026a50 50 0 0 1 4.072 3.445c.038.035.085-.02.053-.058a17.5 17.5 0 0 0-4.107-3.413m8.37 6.712a1.8 1.8 0 0 0-.59-.558c-.221-.167-.458-.316-.687-.473a36 36 0 0 1-1.35-.984c-.039-.03-.09.024-.052.058.408.37.814.74 1.203 1.129.191.191.378.39.576.574.099.092.199.186.304.27a1.1 1.1 0 0 0 .37.232c.13.033.29-.113.226-.248m3.406-1.548-1.005-.783c-.712-.555-1.422-1.112-2.14-1.66q-2.125-1.623-4.282-3.198c-.015-.012-.036.01-.02.023q2.072 1.737 4.184 3.423c.683.547 1.374 1.085 2.063 1.625l1.065.836a2.9 2.9 0 0 0 .963.639.063.063 0 0 0 .066-.095 3.1 3.1 0 0 0-.894-.81m5.446.214-.38-.39c-.023-.024-.047-.001-.05.025-.494-.42-1.013-.818-1.513-1.223l-1.951-1.579a440 440 0 0 0-3.927-3.131c-.023-.019-.055.015-.032.034 1.277 1.08 2.553 2.16 3.841 3.226l1.877 1.552c.659.545 1.3 1.143 1.997 1.638a.103.103 0 0 0 .138-.152m3.254-.532-.855-.723-1.664-1.406c-1.11-.937-2.237-1.854-3.356-2.78-.015-.013-.036.01-.021.023 1.086.963 2.164 1.935 3.26 2.886l1.596 1.386.846.734a3.2 3.2 0 0 0 .804.616.055.055 0 0 0 .071-.078 3 3 0 0 0-.681-.658m4.822.511a10 10 0 0 0-1.21-1.084l-1.291-1.064-2.547-2.098c-.027-.022-.063.017-.037.04l2.527 2.192 1.227 1.064a10 10 0 0 0 1.282 1.02c.045.028.078-.036.049-.07m2.213-2.031q-.971-.757-2.012-1.416c-.037-.024-.08.037-.045.063q.973.733 1.872 1.555c.296.271.603.53.896.804a9 9 0 0 0 .952.79c.037.027.094-.01.065-.055a7.8 7.8 0 0 0-1.728-1.741m2.938.399c-.48-.413-.972-.81-1.464-1.208-.015-.013-.036.01-.02.023.481.41.963.82 1.457 1.214.02.016.046-.012.027-.029m16.275-1.651a.023.023 0 0 0-.02.041c.57.308 1.139.625 1.716.92a.016.016 0 0 0 .015-.027c-.564-.322-1.14-.624-1.71-.934m6.724 1.18c-1.422-.778-2.883-1.479-4.336-2.198a.043.043 0 0 0-.04.076c1.445.734 2.88 1.487 4.354 2.163a.023.023 0 0 0 .022-.042m3.804-.701c-1.583-.751-3.223-1.37-4.849-2.02-.018-.008-.033.019-.014.027 1.606.7 3.201 1.431 4.85 2.03.02.007.032-.028.013-.037m2.631-.58c-.722-.382-1.483-.694-2.228-1.03-.028-.012-.05.029-.022.042.739.35 1.47.726 2.23 1.03.027.01.048-.028.02-.042m-198.188 72.425c-.026-.002-.03.044-.004.046 5.146.473 10.238 1.276 15.318 2.208a.016.016 0 0 0 .007-.03 121 121 0 0 0-15.32-2.224m22.522 5.373a15 15 0 0 0-2.034-.365q-1.012-.2-2.022-.413-2.02-.422-4.052-.79c-2.709-.49-5.432-.896-8.164-1.235-.014-.002-.02.02-.005.023q4.091.543 8.15 1.3 1.968.367 3.927.786a51 51 0 0 1 2.01.465 19 19 0 0 0 2.105.602.192.192 0 0 0 .085-.373m5.022.779c-.108-.123-.347-.13-.498-.15-.173-.023-.344-.046-.518-.055q-.543-.028-1.086-.064c-.031-.002-.034.048-.005.054q.536.116 1.07.24c.173.039.347.062.521.088a.8.8 0 0 0 .507-.014.064.064 0 0 0 .009-.1m-24.968 18.74a38.6 38.6 0 0 0-13.446.226c-.047.009-.032.09.016.084a56 56 0 0 1 13.407-.211c.063.006.089-.088.023-.1m-130.518 37.351q-.926-.871-1.85-1.745-1.845-1.748-3.539-3.644c-.052-.059-.157.029-.106.09a70 70 0 0 0 3.332 3.795 35 35 0 0 0 1.814 1.786 10 10 0 0 0 1.969 1.538c.053.027.12-.038.082-.09a14 14 0 0 0-1.702-1.73m8.256 5.034c-1.055-1.106-2.174-2.143-3.205-3.275-1.032-1.135-2.01-2.314-3.022-3.466q-3.024-3.445-6.042-6.895c-.017-.02-.051.009-.035.03q2.79 3.589 5.79 7.001c1.012 1.147 2.073 2.248 3.102 3.379 1.056 1.161 2.037 2.391 3.101 3.543.167.185.544-.073.311-.317m6.086 3.227a7.5 7.5 0 0 0-1.301-1.684c-.603-.697-1.213-1.39-1.78-2.115-1.035-1.323-2.057-2.653-3.083-3.982a85 85 0 0 0-6.14-7.683c-.025-.025-.067.01-.048.04 1.814 2.771 4.072 5.233 6.092 7.85 1 1.296 1.989 2.599 2.955 3.92.482.659.926 1.345 1.367 2.032a9 9 0 0 0 1.386 1.978l.005-.013c.24.202.7-.004.547-.343m3.187-.168a28 28 0 0 1-1.398-1.773 166 166 0 0 1-2.557-3.532c-1.642-2.348-3.185-4.778-4.99-7.008a.02.02 0 0 0-.032.021 68 68 0 0 0 4.88 7.223c.835 1.14 1.659 2.289 2.497 3.427.43.584.86 1.17 1.253 1.78.282.437.516 1.133 1.077 1.245a.087.087 0 0 0 .105-.088c.038-.54-.51-.921-.835-1.295m5.704 2.595a6 6 0 0 0-1.156-1.227 13 13 0 0 1-1.29-1.521c-.727-.988-1.378-2.027-2.03-3.065a36.6 36.6 0 0 0-4.178-5.805c-.021-.022-.06.01-.042.035 1.547 1.948 2.876 4.047 4.223 6.134a86 86 0 0 0 2.046 3.052c.351.496.692 1 1.032 1.504a3.8 3.8 0 0 0 1.075 1.245c.223.142.432-.156.32-.352m4.092.515c-.408-.447-.819-.886-1.21-1.349-.7-.827-1.354-1.686-2.011-2.546-1.334-1.745-2.653-3.506-4.066-5.188-.016-.019-.048 0-.033.021 1.256 1.839 2.617 3.605 3.957 5.383.671.89 1.338 1.778 1.96 2.703.312.462.59.942.891 1.41.227.351.454.713.88.808a.167.167 0 0 0 .2-.167 1.57 1.57 0 0 0-.568-1.075m5.687 2.107a11.8 11.8 0 0 0-1.88-2.32q-1.034-1.245-2.028-2.524a29 29 0 0 1-1.759-2.587 13 13 0 0 0-1.75-2.506.09.09 0 0 0-.145.095 10.6 10.6 0 0 0 1.633 2.465c.666.848 1.335 1.692 1.95 2.58a151 151 0 0 0 1.803 2.552 10.6 10.6 0 0 0 1.87 2.442c.132.097.392-.007.306-.197m5.697 1.184a4.3 4.3 0 0 0-.87-1.048q-.53-.536-1.055-1.076a30 30 0 0 1-2.154-2.495 246 246 0 0 0-3.85-4.8c-.035-.04-.106.002-.073.048a63 63 0 0 0 3.846 4.817 47 47 0 0 1 2.108 2.533q.458.597.922 1.19a4.1 4.1 0 0 0 .963 1.01c.118.075.212-.08.163-.18m3.787.081-.788-.874c-.56-.62-1.11-1.249-1.662-1.875l-3.264-3.705c-.018-.02-.053.01-.036.03l3.157 3.796c.518.623 1.038 1.244 1.55 1.873l.742.914c.202.249.382.553.701.648a.067.067 0 0 0 .081-.068 1.46 1.46 0 0 0-.48-.739m5.271.705q-.299-.326-.604-.648l-1.22-1.282q-1.22-1.283-2.428-2.576c-.021-.023-.052.012-.032.034q1.164 1.306 2.323 2.616l1.138 1.294q.276.313.557.622a2.1 2.1 0 0 0 .616.58.06.06 0 0 0 .083-.07 1.7 1.7 0 0 0-.433-.57m3.777-.327a16 16 0 0 1-1.372-1.68.05.05 0 0 0-.085.056 11 11 0 0 0 1.216 1.802 5.2 5.2 0 0 0 1.621 1.416c.04.019.091-.028.061-.067-.424-.561-.968-1.01-1.441-1.527m6.307 2.067a9 9 0 0 0-1.023-.826l-1.096-.751c-.04-.028-.087.04-.05.07l1.042.83a9.4 9.4 0 0 0 1.087.735c.035.02.069-.03.04-.058m-68.768-25.45c-.017-.02-.05.008-.035.03a34.5 34.5 0 0 0 5.219 6.198c.022.02.061-.011.04-.035q-2.592-3.113-5.224-6.193m-3.2-.364c-.022-.026-.067 0-.046.03a35 35 0 0 0 3.083 3.989c.041.042.107-.018.077-.066a35 35 0 0 0-3.114-3.953m-4.899-.693c-.874-.564-1.767-1.093-2.66-1.627-.034-.02-.062.035-.028.056.884.546 1.764 1.096 2.666 1.612.026.015.046-.025.022-.041m-13.942.311a16.7 16.7 0 0 0-3.285-1.896c-.036-.016-.065.038-.029.055a21 21 0 0 1 3.287 1.879c.022.015.048-.022.027-.038m-11.299-6.459a25 25 0 0 0-11.189 1.691c-.028.01-.014.055.015.045a31.1 31.1 0 0 1 11.169-1.675c.034 0 .04-.058.005-.061m-7.617-1.637a37 37 0 0 0-3.807.797c-.017.004-.012.033.006.03a37 37 0 0 0 3.812-.766c.033-.009.024-.065-.011-.06m6.896-.397a1.5 1.5 0 0 0-.283-.052q-.135-.003-.272-.003c-.195-.001-.391.014-.587.024-.391.018-.783.03-1.174.045-.025 0-.023.038.002.039q.59.02 1.178.046c.196.01.393.025.59.024q.135.002.27-.002a1.6 1.6 0 0 0 .28-.053c.034-.008.028-.06-.004-.068m-4.461-2.319a25.8 25.8 0 0 0-5.71 1.2.016.016 0 0 0 .01.03 47 47 0 0 1 5.703-1.183c.029-.005.028-.05-.003-.047m-2.409-2.175a3 3 0 0 0-.713.105c-.248.051-.493.113-.738.175l-1.47.372c-.049.013-.023.084.025.075l1.498-.283c.25-.047.499-.094.746-.152a3 3 0 0 0 .68-.205c.045-.023.013-.085-.028-.087m-1.897-2.328a7 7 0 0 0-1.197.217l-1.217.283c-.05.011-.024.083.024.074l1.21-.225a7 7 0 0 0 1.193-.28.035.035 0 0 0-.013-.07M41.251 29c-.036-.02-.062.033-.029.055 3.216 2.066 6.204 4.423 9.207 6.779a.055.055 0 0 0 .074-.081 40 40 0 0 0-9.252-6.754M55.23 33.65c-.544-.336-1.125-.612-1.683-.924-1.126-.63-2.184-1.365-3.251-2.087a52 52 0 0 0-6.53-4.17c-.053-.027-.113.048-.062.088 1.994 1.542 4.23 2.71 6.325 4.103a34 34 0 0 1 3.2 2.324c.488.415.943.87 1.432 1.283.405.343.834.786 1.4.723a.235.235 0 0 0 .209-.302c-.112-.523-.615-.774-1.04-1.037m-1.727-4.686a30 30 0 0 1-4.2-2.616c-.032-.024-.074.02-.043.046a16.1 16.1 0 0 0 4.21 2.632c.042.017.074-.04.033-.062M60 32.881a1 1 0 0 0-.377-.314c-.124-.077-.256-.143-.383-.213-.255-.142-.525-.26-.788-.387-.527-.254-1.028-.556-1.53-.857-.038-.022-.08.037-.045.064.467.35.935.697 1.37 1.087.216.194.426.398.653.578.113.091.225.186.341.273a1 1 0 0 0 .433.235.311.311 0 0 0 .325-.466m.15-3.13a48 48 0 0 0-4.453-2.644c-.027-.015-.047.026-.022.042a48 48 0 0 0 4.43 2.666c.038.019.082-.037.045-.064m.949-2.14a.008.008 0 0 0-.01.012l.267.243a.008.008 0 0 0 .01-.011Zm20.516 10.928c-3.096-1.665-6.21-3.306-9.257-5.059-.027-.015-.047.026-.022.042a77 77 0 0 0 9.247 5.079.035.035 0 0 0 .032-.062m8.624-.029c-.287.413-1.777-.618-2.093-.784q-.904-.476-1.814-.939c-1.285-.655-2.571-1.308-3.852-1.97-2.523-1.305-5.014-2.702-7.584-3.91a.023.023 0 0 0-.022.042 93 93 0 0 0 8.577 4.862 97 97 0 0 0 4.305 2.141 8.6 8.6 0 0 0 2 .85c.266.044.475.005.563-.262.016-.05-.055-.065-.08-.03m5.605-1.083c-2.265-1.284-4.65-2.372-6.997-3.499a623 623 0 0 0-7.084-3.33c-.023-.011-.04.023-.018.034a621 621 0 0 0 6.984 3.523c2.334 1.154 4.663 2.362 7.072 3.355a.047.047 0 0 0 .043-.083m6.065-1.007c-1.856-1.004-3.81-1.83-5.729-2.707l-5.765-2.637c-.064-.03-.115.067-.05.097l5.735 2.693c1.911.897 3.806 1.854 5.773 2.623.046.018.081-.045.036-.07m3.216-1.892a16 16 0 0 0-2.257-.965c-.757-.313-1.513-.63-2.27-.94q-2.276-.93-4.554-1.855c-.023-.01-.042.024-.018.034l4.585 1.984q1.127.484 2.258.963a15.5 15.5 0 0 0 2.208.91.07.07 0 0 0 .048-.131m4.341-1.906a10.4 10.4 0 0 0-1.807-.844c-.612-.263-1.228-.518-1.843-.774-1.233-.514-2.478-.996-3.72-1.485-.037-.015-.066.038-.03.055 1.227.573 2.451 1.15 3.689 1.7.609.269 1.217.54 1.828.802a10 10 0 0 0 1.821.714.09.09 0 0 0 .062-.168m3.877-2.415a3.6 3.6 0 0 0-1.238-.412 31 31 0 0 1-1.359-.401 33 33 0 0 1-2.776-1.004c-.069-.028-.123.07-.054.104a24 24 0 0 0 2.674 1.15c.46.163.93.305 1.4.437a3 3 0 0 0 1.332.225.06.06 0 0 0 .021-.099m4.045-1.368c-1.54-.395-3.114-.645-4.629-1.152-.058-.02-.093.076-.037.102a15 15 0 0 0 2.266.836q.578.155 1.168.26a6 6 0 0 0 1.222.07.059.059 0 0 0 .01-.116m4.598-1.09a2.9 2.9 0 0 0-1.389-.372q-.797-.113-1.593-.232c-1.043-.156-2.08-.348-3.124-.495a.086.086 0 0 0-.046.166c.93.276 1.878.48 2.828.678q-.29-.015-.575-.014c-.036 0-.032.052.002.055a14.3 14.3 0 0 1 2.563.427c.03.007.048-.04.019-.051-.076-.028-.152-.048-.228-.073l.026.005a2.86 2.86 0 0 0 1.497.056.083.083 0 0 0 .02-.15m133.105-10.59a38.7 38.7 0 0 0-17.212-2.387.008.008 0 0 0 .001.015 42 42 0 0 1 8.83.345 53 53 0 0 1 8.365 2.07c.025.008.041-.033.016-.043m-1.649 1.73a21 21 0 0 0-4.258-1.35 34 34 0 0 0-4.561-.732c-.02-.002-.027.028-.007.03a34 34 0 0 1 4.465.79c1.474.365 2.882.904 4.332 1.342.047.015.073-.059.03-.08m-2.482 1.937a12.5 12.5 0 0 0-4.42-1.036c-.065-.004-.059.096.005.102a19.2 19.2 0 0 1 4.39 1c.039.012.06-.05.025-.066m18.408 149.892-.255.004a.016.016 0 0 0 0 .03l.255.005a.02.02 0 0 0 0-.04m54.158-39.161c-.02-.074-.037-.148-.06-.221-.052-.164-.113-.324-.16-.49l-.277-.97a.04.04 0 0 0-.076.02l.25.979c.042.16.072.323.106.485.016.08.04.16.063.239a1.2 1.2 0 0 0 .106.217.035.035 0 0 0 .066-.017 1.2 1.2 0 0 0-.018-.242m-4.654-8.21a.027.027 0 0 0-.052.015 32 32 0 0 1 .924 4.364c.003.022.04.017.038-.005a22.5 22.5 0 0 0-.91-4.374m2.1 9.723-.215-.775a.031.031 0 0 0-.06.017l.147.793a3.3 3.3 0 0 0 .205.757c.016.036.074.017.072-.02a3.3 3.3 0 0 0-.149-.772m-3.631-5.751c-.002-.017-.032-.013-.03.005a32.8 32.8 0 0 0 1.384 6.925.027.027 0 0 0 .053-.014c-.527-2.298-1.088-4.576-1.407-6.916m51.123 31.799c-.008-.065-.097-.105-.136-.036a54 54 0 0 1-1.492 2.503c-.44.706-1.338 1.385-1.53 2.22a7 7 0 0 1-.222.957c-.078.207-.152.416-.232.622-.185.48-.407.945-.615 1.417q-.568 1.29-1.081 2.604a72.4 72.4 0 0 0-3.347 11 .97.97 0 0 0-.765-.275c.118-.53.333-1.005.451-1.535.13-.588.223-1.192.331-1.786.217-1.195.423-2.39.674-3.578a61 61 0 0 1 1.85-7.026 14 14 0 0 1 1.513-3.483 5.8 5.8 0 0 0 .772-1.52c.197-.569.43-1.129.654-1.688.92-2.29 1.888-4.573 2.912-6.818a.063.063 0 0 0-.108-.063 52 52 0 0 0-2.89 5.003q-.627 1.27-1.21 2.56c-.183.407-.419.81-.575 1.227a7 7 0 0 0-.231 1.295 40 40 0 0 1-1.764 5.585q-.887 2.697-1.602 5.447c-.277 1.06-.556 2.125-.76 3.2-.097.52-.211 1.042-.279 1.566-.075.579.021 1.149-.062 1.74-.014.103.061.21.178.177a.745.745 0 0 1 .865.324.134.134 0 0 0 .242-.032 60.7 60.7 0 0 1 3.183-11.08q.557-1.398 1.179-2.769a8.6 8.6 0 0 1 1.54-2.615c.658-.659.67-1.771 1.084-2.586a23 23 0 0 1 1.329-2.305 16.2 16.2 0 0 1-.367 4.01c-.323 1.39-.758 2.755-1.2 4.11l-1.354 4.156q-.331 1.01-.695 2.008c-.276.764-.671 1.432-.894 2.212a.407.407 0 0 0 .783.216c.244-.73.284-1.453.476-2.198.187-.726.38-1.448.59-2.167.432-1.476.86-2.955 1.296-4.43.405-1.363.844-2.717 1.142-4.11a12.7 12.7 0 0 0 .367-4.059m.966 7.146c-.334.963-.676 1.924-1.037 2.877a26 26 0 0 0-.982 2.882.063.063 0 0 0 .114.048 14 14 0 0 0 1.16-2.792c.317-.986.587-1.986.82-2.995a.04.04 0 0 0-.076-.02m48.933 7.411a46.1 46.1 0 0 0-4.533 14.553c-.006.063.092.073.108.015a102 102 0 0 1 4.52-14.513c.027-.063-.065-.12-.095-.055m3.269-.914a50.5 50.5 0 0 0-3.51 9.205 48 48 0 0 0-1.064 4.924q-.174 1.086-.305 2.177c-.058.487-.098.977-.168 1.462-.057.39-.187.76-.213 1.153-.012.195.275.185.297 0 .056-.45-.003-.903.047-1.359.045-.414.11-.826.176-1.237q.188-1.185.426-2.36a70 70 0 0 1 1.102-4.678 66 66 0 0 1 3.273-9.252c.018-.04-.04-.076-.06-.035m-.235 6.526c-.317 1.032-.642 2.06-.94 3.097-.147.508-.3 1.015-.429 1.528a9.4 9.4 0 0 0-.322 1.51.055.055 0 0 0 .102.027 9 9 0 0 0 .463-1.406c.153-.528.282-1.062.416-1.595.265-1.046.502-2.1.747-3.15a.02.02 0 0 0-.037-.01"/><path fill="currentColor" d="M498.378 107.086c-.303-6.032-2.59-12.58-8.23-15.55-3.126-1.648-6.709-2.224-10.131-2.938q-5.748-1.198-11.52-2.273c-15.469-2.878-31.026-4.89-46.664-6.568a71 71 0 0 1-11.419-1.96c-3.671-1.013-7.277-2.339-11.068-2.854a63.7 63.7 0 0 0-11.501-.052q-6.038.277-12.08.488c-7.938.279-15.882.532-23.824.695-4.03.083-8.057.144-12.088.142-1.833-.001-3.657-.062-5.488-.122-.756-.024-1.514-.04-2.27-.07a28 28 0 0 1 1.863-4.534c.765-1.55 1.54-3.106 2.436-4.585a15 15 0 0 1 1.515-2.103V64.8a53.8 53.8 0 0 1 15.614-5.818c5.851-1.25 11.765-2.249 17.65-3.323a890 890 0 0 1 18.1-3.135c11.913-1.92 23.867-3.403 35.898-4.326 11.343-.87 22.874-1.633 33.763-5.178 7.972-2.595 18.235-7.688 18.771-17.29.27-4.822-2.593-9.39-6.371-12.181-4.252-3.142-9.513-4.403-14.665-5.115-11.814-1.633-23.733-.43-35.592-.19-12.095.244-24.134-1.21-36.223-1.159-12.149.052-23.985 2.648-36.019 3.925a335 335 0 0 1-36.607 1.5q-1.81-.008-3.619-.033a75 75 0 0 0-3.53-.63 104 104 0 0 0-9.477-.996 127 127 0 0 0-18.977.46c-3.154.294-6.289.78-9.446 1.036a40 40 0 0 1-9.323-.37c-1.413-.216-2.821-.476-4.23-.73-4.548-1.969-9.22-3.693-13.793-5.561-3.127-1.278-6.29-2.474-9.45-3.666A25.8 25.8 0 0 0 221.448 0a39.3 39.3 0 0 0-9.49 1.474c-3.26.79-6.52 1.49-9.84 1.98-6.568.968-13.2 1.365-19.81 1.929a142 142 0 0 0-19.422 2.8c-6.344 1.438-12.562 3.37-18.743 5.381-6.207 2.02-12.39 4.118-18.665 5.923q-9.504 2.733-19.207 4.698a268 268 0 0 1-19.669 3.204q-2.548.322-5.094.636a58.5 58.5 0 0 1-10.234-1.242c-5.316-1.036-10.47-2.738-15.65-4.287a80 80 0 0 0-15.76-3.437c-6.244-.554-12.481.638-18.733.331a86 86 0 0 1-10.619-1.344c-3.491-.611-6.999-1.184-10.465-1.922a.04.04 0 0 0-.018.076c3.127.797 6.204 1.755 9.357 2.444 3.06.669 6.15 1.215 9.26 1.58a80 80 0 0 0 9.46.568c3.23-.006 6.48-.18 9.706.025 10.9.694 20.967 5.275 31.536 7.58 1.095.239 2.206.457 3.325.63a247 247 0 0 1-5.756.527c-1.644.129-3.29.216-4.937.278a.035.035 0 0 0 .003.07c3.298.004 6.603.075 9.9-.005 3.232-.079 6.465-.146 9.686-.403 6.568-.526 13.109-1.42 19.595-2.575a277 277 0 0 0 37.818-9.78c6.125-2.009 12.242-4.057 18.463-5.752a124.5 124.5 0 0 1 19.415-3.691c6.54-.706 13.112-1.05 19.653-1.743 3.247-.345 6.483-.782 9.693-1.38 3.175-.59 6.282-1.461 9.442-2.117a22.2 22.2 0 0 1 9.824-.165 78 78 0 0 1 9.322 3.322c4.299 1.649 8.632 3.213 12.97 4.759-2.798-.29-5.596-.388-8.412-.407-3.538-.025-7.08.027-10.612.223-3.548.197-7.066.677-10.6 1.035a.023.023 0 0 0 .002.047c3.143-.114 6.286-.108 9.428-.205 3.14-.096 6.28-.178 9.42-.108 6.277.139 12.433 1.36 18.582 2.504q1.278.238 2.565.425c.122.034.242.073.365.107a.19.19 0 0 0 .174-.038 38.4 38.4 0 0 0 6.155.399c3.176-.08 6.321-.561 9.474-.909a141 141 0 0 1 18.723-.817c3.499.082 7.002.189 10.494.426q2.021.134 4.045.278.994.088 1.99.154c1.566.13 3.13.278 4.687.48a.122.122 0 0 0 .078-.229c2.224.087 4.45.144 6.67.218 5.974.201 11.943.115 17.91-.207a209 209 0 0 0 17.946-1.766c5.866-.829 11.713-1.82 17.612-2.395 11.863-1.156 23.715.033 35.578.509 5.944.238 11.875.148 17.817-.088 5.84-.232 11.684-.528 17.531-.424a71.2 71.2 0 0 1 16.758 1.913 28 28 0 0 1 3.15 1.03q-.624-.004-1.247 0a62 62 0 0 0-6.31.377 52 52 0 0 0-3.134.433 7.6 7.6 0 0 0-2.42.697 2.84 2.84 0 0 0-1.195 1.253 24 24 0 0 0-1.51-1.82c-.018-.02-.047.009-.035.03a29 29 0 0 1 1.404 2.945.7.7 0 0 0 .142.338q.3.724.582 1.437a23.4 23.4 0 0 1 1.61 10.083 21 21 0 0 1-.325 2.583c-.164.88-.223 1.734-.31 2.623a.126.126 0 0 0 .233.085 10 10 0 0 0 .713-1.552c1.288 1.561 4.03 1.318 5.893 1.273 3.029-.073 6.058-.206 9.08-.42a90 90 0 0 0 2.203-.19 5.5 5.5 0 0 0 2.04-.35c1.018-.541.978-1.71 1.015-2.71a44 44 0 0 0-.207-8.94 19 19 0 0 0-.784-3.121 14 14 0 0 1 1.45 2.029 10.96 10.96 0 0 1-.797 12.275 24.75 24.75 0 0 1-10.396 7.536c-10.309 4.327-21.59 5.514-32.632 6.398-5.716.457-11.435.86-17.139 1.464a416 416 0 0 0-17.957 2.325c-11.808 1.773-23.551 3.95-35.289 6.136-5.574 1.039-11.22 2.053-16.486 4.228-5.184 2.14-9.763 5.515-14.274 8.795q-1.78 1.294-3.537 2.618c-1.168.883-2.263 1.898-3.467 2.729-.272.188.007.622.28.432 1.244-.857 2.632-1.543 3.911-2.354q.43-.273.857-.55c.5 1.346.99 2.696 1.513 4.033-.27-.052-.54-.126-.81-.185a62 62 0 0 1-1.237-3.33.016.016 0 0 0-.03.01 34 34 0 0 0 1.028 3.265 29 29 0 0 1-3.69-1.06c-.095-.035-.143.106-.065.157a13.7 13.7 0 0 0 4.433 1.929 29.5 29.5 0 0 0 4.901.869c3.658.251 7.38.047 11.044.011 7.713-.075 15.426-.017 23.138-.225 7.807-.212 15.609-.532 23.412-.875a39.1 39.1 0 0 1 11.102.726c3.56.87 6.978 2.234 10.553 3.056 7.394 1.7 15.051 2.13 22.565 3.056q11.362 1.398 22.654 3.281 11.418 1.889 22.75 4.26c3.249.681 6.714 1.239 9.587 3.002a13.03 13.03 0 0 1 5.267 6.983c1.759 5.055 2.435 12.669-1.98 16.615-2.46 2.198-6.085 2.626-9.222 3.052-2.74.372-5.477.606-8.222.818.026-.098-.019-.215-.144-.207a106 106 0 0 1-15.565-.348c-5.231-.454-10.432-1.199-15.673-1.548a250 250 0 0 0-31.594.411c-10.585.634-21.178 1.417-31.79 1.292-10.656-.125-21.23-1.59-31.879-1.933q-3.986-.129-7.976-.124c-2.65.007-5.335-.021-7.977.216-1.332.119-2.646.338-3.985.418-1.328.079-2.657.162-3.983.268q-3.859.309-7.69.89-1.958.299-3.916.61c-.034.006-.026.064.009.062 2.247-.17 4.5-.3 6.756-.418a13.2 13.2 0 0 0 .583 2.615c.264.882.521 1.766.8 2.644a.031.031 0 0 0 .06-.017c-.176-.905-.376-1.805-.568-2.707a13.4 13.4 0 0 0-.734-2.542c.859-.045 1.718-.093 2.577-.134a6.8 6.8 0 0 0 .288 2.187c.077.373.154.746.242 1.117a12 12 0 0 0 .273 1.306 18.5 18.5 0 0 1 .679 2.38c.189.86.277 1.774.548 2.613.014.043.09.039.085-.012-.096-.816-.361-1.627-.538-2.43a15 15 0 0 1-.382-2.604 8 8 0 0 0-.229-1.077q-.108-.611-.233-1.219a7.6 7.6 0 0 0-.615-2.267c.644-.03 1.288-.067 1.933-.096 0 .011-.008.018-.005.03a36 36 0 0 0 1.214 4.381c.237.694.532 1.361.744 2.065.136.452.211.994.373 1.476a8.5 8.5 0 0 0-.52 1.06.34.34 0 0 0-.148.438 5.4 5.4 0 0 0-.203.848c-.297 2.094.879 3.964 2.123 5.53.084.107.274-.008.228-.132a11.3 11.3 0 0 1-1.105-4.886 39.85 39.85 0 0 0 16.625 11.811 96 96 0 0 0 12.344 3.837c2.124.538 4.256 1.045 6.385 1.565 2.107.515 4.238.997 6.293 1.698a31.8 31.8 0 0 1 5.663 2.916 42 42 0 0 0 5.786 2.733c4.092 1.604 8.325 2.88 12.518 4.19 8.615 2.691 17.325 5.026 26.015 7.455 4.298 1.201 8.585 2.447 12.829 3.83a107 107 0 0 1 11.595 4.314c3.265 1.503 6.506 3.449 8.686 6.38a11.46 11.46 0 0 1 2.171 8.583 7.9 7.9 0 0 1-1.716 3.87 8.35 8.35 0 0 1-3.671 2.321 4.6 4.6 0 0 0 .515-.587 14 14 0 0 0 2.31-4.533 25 25 0 0 0 .752-5.095 10.2 10.2 0 0 0-.644-4.646 1.46 1.46 0 0 0-.486-.726 3.9 3.9 0 0 0-1.034-.445c-.914-.283-1.861-.483-2.791-.707q-3.336-.802-6.701-1.47a97 97 0 0 0-3.338-.615 6.6 6.6 0 0 0-2.587-.009 5.13 5.13 0 0 0-1.13-2.676c-.012-.013-.036.005-.025.02a2.94 2.94 0 0 1 .448 2.539 9.6 9.6 0 0 0-.298 2.231 32 32 0 0 1-.967 5.78 34 34 0 0 1-1.813 5.308 9.2 9.2 0 0 1-.998 1.914c-.37.503-1.009.8-1.275 1.365a.15.15 0 0 0 .052.198c.61.379 1.287-.1 1.737-.519a4 4 0 0 0 .415-.45c.303.923 1.432 1.433 2.352 1.726a39 39 0 0 0 5.81 1.29c1.907.303 3.827.571 5.751.73.408.034.832.081 1.257.109a49.2 49.2 0 0 1-11.057 1.022c-8.988-.067-17.885-1.845-26.723-3.3l-27.246-4.486c-8.844-1.455-17.684-2.941-26.537-4.345 1.747-.06 3.495-.128 5.243-.183a.055.055 0 0 0 0-.11c-3.196-.187-6.39-.453-9.589-.57-1.577-.059-3.14-.243-4.715-.307-1.587-.066-3.17-.168-4.747-.366a40 40 0 0 1-8.576-2.336c-2.873-1.04-5.737-2.087-8.646-3.026-5.938-1.915-11.963-3.563-17.977-5.218-3.012-.83-6.034-1.629-9.084-2.31q-2.25-.503-4.521-.899a26.4 26.4 0 0 0-4.56-.556c-1.685.004-3.369-.195-5.05-.32q-2.654-.199-5.316-.265-2.543-.06-5.084.022c-1.773.06-3.557.275-5.324.434-.064.006-.067.103 0 .102 3.103-.05 6.22.117 9.32.274 2.116.107 4.236.264 6.344.502-1.348.15-2.693.344-4.037.526-1.955.263-3.914.557-5.843.976-1.965.426-3.885 1.057-5.817 1.605a.035.035 0 0 0 .019.068c1.912-.377 3.843-.592 5.772-.86 1.957-.272 3.906-.591 5.87-.82 1.904-.221 3.822-.32 5.735-.438a24 24 0 0 1 1.75-.041q-1.073 3.738-2.105 7.486-.54 1.958-1.065 3.92c-.18.673-.365 1.346-.531 2.023a15 15 0 0 1-.115.439c-.727.637-1.466 1.261-2.2 1.89.235-.823.42-1.664.62-2.492.325-1.355.647-2.711.95-4.072q.895-4.023 1.758-8.053c.016-.073-.096-.104-.113-.03q-.972 4.063-2.012 8.11c-.336 1.31-.66 2.622-.989 3.933-.252 1.008-.544 2.02-.727 3.045-.343.292-.68.592-1.025.881q-1.241 1.038-2.496 2.08a81 81 0 0 0 2.713-8.715q1.303-4.888 2.284-9.85c.005-.024-.032-.035-.038-.01a204 204 0 0 1-2.524 9.784c-.864 3.016-1.879 5.99-2.708 9.014q-1.799 1.484-3.649 2.918a14.3 14.3 0 0 0 1.604-4.096q.723-2.604 1.419-5.217c.928-3.484 1.78-6.987 2.603-10.497a.055.055 0 0 0-.105-.029c-.873 3.412-1.79 6.813-2.706 10.214q-.671 2.492-1.369 4.976a27.3 27.3 0 0 1-1.616 4.77c-.002.005.003.006.002.01-4.565 3.517-9.412 6.654-14.932 8.418a58 58 0 0 1-6.702 1.746 35 35 0 0 1-3.52.467c-1.202.103-2.368.356-3.58.352-.057 0-.055.08 0 .086 1.046.106 2.084.32 3.133.401a23 23 0 0 0 2.958-.055 11 11 0 0 1-1.18.123l-.672.027a19 19 0 0 1-2.706.598c-4.49.644-8.973-.26-13.286-1.475-2.227-.628-4.421-1.366-6.648-1.996q-3.45-.976-6.9-1.955c-2.538-.725-5.043-1.566-7.578-2.306-2.611-.762-5.24-1.464-7.845-2.249-.059-.017-.076.072-.02.092 4.61 1.65 9.171 3.42 13.796 5.032.138.048.275.101.413.15-.494-.088-.987-.183-1.481-.27l-3.948-.693c-1.361-.24-2.719-.563-4.089-.74l-16.098-2.082c-10.452-1.351-20.977-2.452-31.355-4.298a106 106 0 0 1-14.627-3.563 91 91 0 0 1-13.62-5.94c-8.726-4.553-17.117-9.728-26.462-12.964a104.5 104.5 0 0 0-14.693-3.778c-1.81-.345-3.638-.671-5.471-.98-.896-.727-1.85-1.388-2.796-2.039a49 49 0 0 0-.777-.521 34 34 0 0 1 1.697.127c.122.013.242.033.364.046 1.316.858 2.638 1.704 4.003 2.483.03.018.053-.03.025-.049-1.262-.85-2.563-1.638-3.871-2.414a37 37 0 0 1 7.64 1.631c.126.043.201-.164.08-.218a33 33 0 0 0-6.934-2.22 40 40 0 0 0-7.35-.576 27 27 0 0 0-5.261.468h-.002a.32.32 0 0 0-.203.034q-1.006.193-2 .458a45.5 45.5 0 0 1-7.59 1.813c-5.154.475-10.192-1.135-15.176-2.19a58 58 0 0 0-3.843-.687 39 39 0 0 0-3.959-.262c-2.696-.111-5.392-.136-8.089-.266-6.248-.303-12.5-.435-18.748-.774-.035-.002-.032.052.003.055 5.523.407 11.03.973 16.548 1.44 2.718.23 5.434.408 8.136.79 1.311.184 2.594.424 3.89.676 1.336.26 2.702.378 4.042.627 4.994.93 9.89 2.562 15.01 2.648 3.497.058 6.753-.983 10.044-1.927.342.15.72.253 1.056.36a13 13 0 0 0 1.627.428 9.3 9.3 0 0 0 2.49.15c.05.01.1.016.149.026 1.222.25 2.45.439 3.682.634 2.51.4 5.019.804 7.519 1.26a136 136 0 0 1 14.781 3.516 88 88 0 0 1 13.899 5.567c4.408 2.198 8.686 4.644 13.02 6.98a112 112 0 0 0 13.212 6.26 93.4 93.4 0 0 0 14.584 4.13c10.24 2.09 20.696 3.137 31.052 4.476l16.247 2.1c5.37.695 10.783 1.098 16.185 1.496l1.024.076c3.2 1.205 6.384 2.45 9.652 3.468 4.4 1.372 9.021 2.428 13.66 2.046a25.3 25.3 0 0 0 10.357-3.355 24 24 0 0 0 1.716-.366 40 40 0 0 0 11.505-5.103 110 110 0 0 0 10.383-7.797q5.16-4.217 10.1-8.694c1.778-1.613 3.636-3.201 5.268-4.966 1.362-1.472 2.122-3.38 3.77-4.578a.7.7 0 0 0 .145-.15q3.433.783 6.834 1.698c6.02 1.624 12.028 3.311 17.992 5.129q4.473 1.363 8.883 2.918a58 58 0 0 0 8.512 2.507 29 29 0 0 0 5.008.466c1.424.019 2.834-.078 4.249-.13.28.108.556.227.819.317a13 13 0 0 0 1.697.448q1.73.34 3.466.635 3.479.598 6.96 1.172l13.808 2.28 27.74 4.583c4.575.755 9.149 1.52 13.726 2.265 4.438.722 8.892 1.397 13.377 1.752a63.5 63.5 0 0 0 13.469-.226c3.708-.498 8.212-1.146 10.784-4.17a10.88 10.88 0 0 0 2.13-8.77 14.3 14.3 0 0 0-4.985-8.57 33.1 33.1 0 0 0-9.683-5.436c-4.133-1.642-8.365-3.045-12.614-4.353-8.632-2.658-17.394-4.863-26.067-7.38q-6.698-1.943-13.336-4.084a79.4 79.4 0 0 1-12.307-4.642c-1.917-.994-3.678-2.274-5.666-3.13a39.6 39.6 0 0 0-6.185-1.873c-4.329-1.073-8.685-2.042-12.977-3.258-7.596-2.15-15.296-5.178-21.27-10.495a29 29 0 0 1-3.267-3.392c.044-.121.073-.243.13-.363a17 17 0 0 1 1.584-2.471 25 25 0 0 1 1.878-2.35c.409-.45.843-.868 1.29-1.27l.01.023a.051.051 0 0 0 .095-.026l-.01-.08a17.6 17.6 0 0 1 3.282-2.33 10.4 10.4 0 0 1 2.847-1.03c.098-.021.199-.028.298-.043 1.99-.01 3.98-.005 5.97.03q7.986.143 15.947.82c5.32.445 10.63.977 15.967 1.156 10.604.358 21.206-.314 31.786-.957 10.52-.64 21.064-1.264 31.605-.82 5.257.22 10.468.831 15.697 1.39 2.6.277 5.212.543 7.826.635 1.299.046 2.603.042 3.9-.012a21 21 0 0 0 2.232-.24 59 59 0 0 0 8.282.184 49.2 49.2 0 0 0 10.943-1.491 10.98 10.98 0 0 0 6.981-5.337 16.7 16.7 0 0 0 1.58-8.547M472.764 27.97c-.042.689-.078 1.382-.152 2.068-.046.42-.068 1.049-.5 1.25a5.4 5.4 0 0 1-1.747.173c-.736.047-1.471.089-2.206.14q-4.045.275-8.098.39a21 21 0 0 1-4.53-.041 2.85 2.85 0 0 1-1.566-.81c-.035-.038-.098-.146-.176-.265q.203-1.15.294-2.313a23.3 23.3 0 0 0-1.716-10.709 17 17 0 0 0-.742-1.539 3.4 3.4 0 0 1 .19-.667 2.7 2.7 0 0 1 1.92-1.147 43 43 0 0 1 5.38-.688q2.667-.226 5.346-.224c.854 0 1.715.001 2.567.065a10 10 0 0 1 .956.14 18.5 18.5 0 0 1 2.887 1.958q.24.434.444.893a17.3 17.3 0 0 1 1.05 3.305 29.6 29.6 0 0 1 .4 8.021m-137.42 38.382c-.08.112-.166.226-.242.337-.252.361-.472.748-.708 1.124l-.144-.385c-.036-.095-.082-.185-.121-.279.404-.266.806-.537 1.214-.797m-1.365.896c.031.09.068.177.099.266.061.176.114.355.168.534-.208.337-.405.68-.604 1.022-.048-.132-.09-.267-.139-.398q-.163-.441-.358-.872zm-1.046.692c.104.285.21.568.309.854q.103.308.197.619c-.222.388-.43.783-.641 1.176-.079-.19-.15-.385-.236-.572-.215-.465-.45-.92-.695-1.371zm-3.841 7.796-.082-.2c-.528-1.33-1.09-2.645-1.643-3.964l.664-.428a97 97 0 0 0 1.344 3.885l.298.791c-.194-.027-.388-.05-.581-.084m1.576-.334c-.094-.275-.181-.553-.28-.827a53 53 0 0 0-1.53-3.802c-.012-.027-.055-.015-.045.014q.6 1.642 1.185 3.29c.19.54.371 1.083.557 1.624l.014.043-.052.18q-.276-.027-.55-.062l-.346-.913a97 97 0 0 0-1.564-3.821c.531-.342 1.064-.681 1.594-1.026.3.719.601 1.437.872 2.168q.29.788.546 1.59l.069.224q-.257.651-.47 1.318m.595-1.632-.012-.033q-.269-.797-.574-1.58a27 27 0 0 0-.933-2.115l.492-.316.402-.267c.209.606.414 1.212.643 1.811.165.431.325.874.502 1.309q-.273.589-.52 1.191m.234-2.624a66 66 0 0 0-.773-1.743l1.06-.703c.231.477.451.959.652 1.45.088.213.167.43.25.644-.091.172-.192.34-.28.513q-.232.46-.455.926c-.148-.366-.304-.73-.454-1.087M72.214 165.662c-.164-.041-.33-.08-.494-.126q.734-.195 1.474-.366.248.151.5.294a8 8 0 0 0-1.48.198m3.583-.042q-.493-.262-.98-.53l-.328-.183c.14-.026.277-.06.417-.083.535-.09 1.067-.187 1.6-.279.365.271.73.539 1.11.79.301.198.611.374.92.554-.914-.1-1.827-.202-2.74-.269m3.432.338-1.351-.925q-.423-.286-.844-.577a19 19 0 0 1 1.706-.191c.123.092.246.187.372.276q.69.488 1.383.973.543.383 1.097.756a103 103 0 0 0-2.363-.312m2.895.382a77 77 0 0 0-2.055-1.454c-.32-.22-.647-.433-.97-.648l.015-.001q1.036-.036 2.076.01l.442.305q.837.57 1.657 1.167c.468.34.928.689 1.39 1.035-.851-.14-1.701-.29-2.555-.414m202.972 17.609c-.618.553-1.242 1.099-1.864 1.647.096-.378.172-.76.262-1.109q.55-2.146 1.082-4.296.978-3.963 1.919-7.933c.254.004.51.001.764.018.252.016.508.02.764.025a160 160 0 0 1-2.305 9.371c-.211.751-.46 1.508-.622 2.277m.66-.592c.162-.515.296-1.04.435-1.554.318-1.17.618-2.344.88-3.528a80 80 0 0 0 1.08-5.97c.337.005.675.009 1.01.022.078.018.158.031.237.049a120 120 0 0 1-.905 4.69c-.204.945-.407 1.89-.63 2.831-.158.662-.338 1.323-.468 1.992-.541.495-1.093.977-1.638 1.468m3.415-3.073-.361.328c-.327.303-.663.594-.991.895.142-.502.26-1.011.377-1.517.229-.979.445-1.96.629-2.949a71 71 0 0 0 .691-4.64c.324.07.648.144.976.2.146.025.29.056.436.083q-.505 1.931-.96 3.875-.3 1.293-.574 2.59c-.079.368-.158.75-.223 1.135m1.91-1.758c-.404.39-.82.77-1.235 1.145l.06-.275c.194-.9.367-1.802.536-2.706.248-1.32.473-2.642.684-3.968q.531.1 1.063.203c-.264.961-.461 1.94-.662 2.918a31 31 0 0 0-.447 2.683m2.325-3.477q-.106.478-.193.963l-.099.154a12.7 12.7 0 0 1-1.359 1.657c.15-.657.275-1.32.392-1.981.167-.946.334-1.89.439-2.841.44.087.882.164 1.322.252a18 18 0 0 0-.502 1.796m.711-.402q.132-.653.214-1.313c.225.046.453.083.678.13l.148.033a5.6 5.6 0 0 0-1.04 1.15m154.435 21.69a2.3 2.3 0 0 1-1.298.287 33 33 0 0 1-5.103-.207 38.4 38.4 0 0 1-5.722-1.27c-1.39-.395-3.603-.718-4.167-2.287-.01-.029-.038-.045-.056-.069q.187-.351.34-.72a33.7 33.7 0 0 0 1.382-6.033c.216-1.067.453-2.13.67-3.196.214-1.05.556-2.039.824-3.071a5 5 0 0 0 .136-.96c1.618-.356 3.454.246 5.035.552q2.526.489 5.037 1.054c1.659.373 3.34.725 4.972 1.203a8 8 0 0 1 .968.42c.337.15.554.153.76.518a5.5 5.5 0 0 1 .436 2.417 14.6 14.6 0 0 1-.447 4.487 20 20 0 0 1-.841 2.14 18 18 0 0 1-1.034 2.146 17 17 0 0 1-1.136 1.743 3.6 3.6 0 0 1-.756.846M327.9 127.95c-.14-.376-.314-.747-.425-1.095-.224-.7-.348-1.414-.533-2.123a47 47 0 0 0-1.332-4.309c.617-.026 1.235-.062 1.853-.086a56 56 0 0 0 1.744 5.756c-.44.582-.9 1.204-1.307 1.857m1.405-1.98a57 57 0 0 0-1.796-5.636c.443-.017.887-.043 1.33-.06.227.872.477 1.737.737 2.6.202.666.377 1.353.596 2.02q-.447.526-.867 1.077m1.075-1.307c-.172-.645-.389-1.282-.584-1.912q-.388-1.254-.864-2.48c.25-.01.5-.025.75-.034.22-.008.437-.003.656-.003.145.606.313 1.208.465 1.812.142.56.27 1.124.433 1.679-.295.303-.577.62-.856.938m1.07-1.159a11 11 0 0 0-.333-1.545 12 12 0 0 0-.613-1.725q.767.006 1.531.04c.024.1.044.2.069.298.094.376.185.751.293 1.123q.104.365.215.731a19 19 0 0 0-1.162 1.078m1.459-1.333-.175-.569c-.11-.358-.234-.71-.358-1.063l-.09-.255c.34.014.68.031 1.021.038a15 15 0 0 0 .37 1.313c-.257.177-.522.34-.768.536m1.094-.765a20 20 0 0 0-.177-.57c-.055-.171-.118-.339-.18-.506h.022c.779.002 1.557-.014 2.336-.027a14 14 0 0 0-2 1.103"/><path fill="currentColor" d="M429.283 193.858a1 1 0 0 0-.166.042q-.08.032-.162.058a3 3 0 0 0-.353.143 1 1 0 0 0-.146.086 1 1 0 0 0-.176.145l-.056.069q-.026.031-.05.064a.3.3 0 0 0-.033.07q.042-.063.007-.02l-.043.052-.034.075a.135.135 0 0 0 .115.201l.075-.004a.6.6 0 0 0 .108-.03c-.056.016.072-.008.085-.012l.082-.026a1.1 1.1 0 0 0 .381-.243 3 3 0 0 0 .242-.262q.057-.068.117-.134a1 1 0 0 0 .104-.148c.044-.065-.029-.142-.097-.126m62.099-93.443a19.5 19.5 0 0 0-1.305-4.256c-.13-.283-.282-.541-.434-.813a5.6 5.6 0 0 0-.339-.756 2.66 2.66 0 0 0-1.761-.736 90 90 0 0 0-10.167-.81q-2.838-.078-5.678-.008a5.36 5.36 0 0 0-3.119.672 2.2 2.2 0 0 0-.257-.536c-.481-.72-.703-1.363-1.485-1.832a.028.028 0 0 0-.037.038 5.4 5.4 0 0 1 .642 1.35 4 4 0 0 1 .073 1.118c.03.876.388 1.714.462 2.587a31 31 0 0 1-.032 3.597c-.037 1.202-.096 2.403-.146 3.605a63 63 0 0 1-.463 6.91c-.16 1.038-.52 2.018-.676 3.058a14.8 14.8 0 0 1-.79 3.101c-.03.081.086.113.13.054a11.6 11.6 0 0 0 1.498-2.785 1.1 1.1 0 0 0 .314.4 4.7 4.7 0 0 0 .833.581 9 9 0 0 0 2.114.767c1.955.496 3.95.87 5.942 1.18a53 53 0 0 0 5.92.575 45 45 0 0 0 6.322-.026.05.05 0 0 0 0-.101c-1.943-.187-3.895-.259-5.836-.469-1.98-.215-3.954-.513-5.92-.831a78 78 0 0 1-5.729-1.13 11 11 0 0 1-2.088-.662 5 5 0 0 1-.959-.565 2.7 2.7 0 0 0-.723-.374 14.4 14.4 0 0 0 .221-2.805c.085-2.417.12-4.835.202-7.251a55 55 0 0 1 .46-7.476 8 8 0 0 0 .135-1.084c.953-.817 2.306-.662 3.485-.679q2.346-.035 4.692.03c3.043.086 6.084.272 9.113.593 1.22.13 2.927.164 3.578 1.382a13.6 13.6 0 0 1 1.29 4.073 30 30 0 0 1 .2 4.368 88 88 0 0 1-.023 4.034 24.6 24.6 0 0 1-.44 4.441 14 14 0 0 1-.582 2.074 7 7 0 0 0-.643 1.964.193.193 0 0 0 .288.165c1.091-.651 1.485-2.276 1.778-3.437a21 21 0 0 0 .538-4.262 36.8 36.8 0 0 0-.598-9.033"/><path fill="currentColor" d="M470.882 114.126a6 6 0 0 0-.348-.415c-.25-.27-.503-.541-.763-.802a17 17 0 0 0-1.598-1.463c-.04-.03-.097.03-.07.07a17 17 0 0 0 1.372 1.689c.238.268.488.526.734.787a5 5 0 0 0 .4.382 1.15 1.15 0 0 0 .428.277.075.075 0 0 0 .091-.092 1.1 1.1 0 0 0-.246-.433m1.467-.296q-.417-.5-.847-.99a34 34 0 0 0-1.798-1.886.043.043 0 0 0-.06.06q.862.957 1.692 1.94.41.485.806.98.193.242.382.485a1.9 1.9 0 0 0 .433.454.063.063 0 0 0 .092-.07 3.3 3.3 0 0 0-.7-.973m1.273-.77c-.217-.254-.44-.502-.66-.753-.44-.502-.903-.978-1.367-1.457-.015-.015-.044.006-.031.024.387.528.77 1.056 1.184 1.565l.614.756a2.8 2.8 0 0 0 .693.703c.049.03.126-.02.103-.08a2.7 2.7 0 0 0-.536-.759m1.86 2.018a1.4 1.4 0 0 0-.154-.178l-.274-.285-.26-.276a2 2 0 0 1-.226-.312c-.034-.055-.128-.02-.107.045.055.17.122.335.183.503a6 6 0 0 0 .242.525c.1.209.257.6.56.439a.32.32 0 0 0 .17-.264.23.23 0 0 0-.134-.197m1.064-.739c-.234-.249-.447-.517-.673-.773a15 15 0 0 0-1.447-1.46.016.016 0 0 0-.022.022c.42.523.857 1.03 1.274 1.554a10 10 0 0 1 .6.795c.16.251.303.63.626.686a.076.076 0 0 0 .094-.071c.041-.314-.256-.544-.452-.753m2.517.613-.432-.488c-.14-.158-.274-.322-.42-.474-.153-.162-.315-.316-.473-.474-.036-.037-.106.013-.073.057q.19.26.384.519c.127.17.271.329.408.492l.407.486a1.8 1.8 0 0 0 .468.444c.036.02.091-.014.075-.058a1.7 1.7 0 0 0-.344-.504m2.764.459c-.013-.023-.029-.041-.04-.065a.4.4 0 0 0-.138-.154l-.27-.204a2 2 0 0 0-.128-.094q-.072-.044-.146-.083l-.3-.171a.067.067 0 0 0-.081.104 5 5 0 0 0 .47.468l.255.206a.5.5 0 0 0 .165.1c.027.009.053.012.08.022a.16.16 0 0 0 .083.01c.032-.005.07-.028.066-.067a.2.2 0 0 0-.016-.072m2.745.326a.5.5 0 0 0-.107-.093 2 2 0 0 0-.23-.131 1 1 0 0 0-.256-.068 2 2 0 0 0-.268-.034c-.04-.002-.045.057-.009.07a2 2 0 0 1 .231.09c.075.035.143.082.218.116a2 2 0 0 1 .216.11 1 1 0 0 0 .12.059.3.3 0 0 0 .112.04.047.047 0 0 0 .045-.06.3.3 0 0 0-.072-.099m1.818.443a2 2 0 0 0-.256-.006l-.255.002a.05.05 0 0 0 0 .101l.255.003a2 2 0 0 0 .256-.007.047.047 0 0 0 0-.093m-88.838-17.963a13 13 0 0 1 .142-2.566c.072-.308.332-.597.351-.904a3.3 3.3 0 0 0-.31-1.026.13.13 0 0 0-.249 0 3.2 3.2 0 0 0-.363 1.026c.012.297.247.57.3.868a11 11 0 0 1 .021 2.23l-.135 4.71c-.044 1.528-.052 3.062-.149 4.586a20 20 0 0 1-.297 2.389 12.5 12.5 0 0 0-.183 1.671 2.64 2.64 0 0 1-.812-1.364 18 18 0 0 1-.206-3.057 232 232 0 0 1-.25-6.583 23.8 23.8 0 0 1 .637-6.405 9 9 0 0 1 .458-1.431 6.4 6.4 0 0 0 .58-1.48 8 8 0 0 0-.086-1.244 10.5 10.5 0 0 1 .291-1.547 25.2 25.2 0 0 0 .5-6.718.031.031 0 0 0-.063 0 22.9 22.9 0 0 1-1.246 6.613 6 6 0 0 1-.585 1.63 2.9 2.9 0 0 0-.617 1.371c-.066.52-.012 1.041-.043 1.564-.033.564-.079 1.127-.1 1.692-.088 2.298.053 4.613.131 6.91.079 2.325.106 4.65.132 6.977.016 1.415-.388 4.163 1.731 4.207a.493.493 0 0 0 .485-.485 13 13 0 0 0-.085-2.23 20 20 0 0 1-.177-2.356c-.016-1.528.052-3.058.089-4.586zm2.45-3.628c-.042-.473-.188-.946-.247-1.419-.051-.411-.087-.824-.126-1.237-.162-1.73-.278-3.463-.442-5.193-.005-.044-.072-.046-.07 0 .057 1.729.122 3.463.094 5.193-.014.872-.15 1.724-.19 2.589a19.5 19.5 0 0 0 .334 2.486c.148 1.679.09 3.391.074 5.076-.008.825-.03 1.65-.054 2.475a11 11 0 0 0 .003 2.49.06.06 0 0 0 .113 0 9.6 9.6 0 0 0 .152-2.366c.017-.866.026-1.733.038-2.6.025-1.688-.036-3.39.068-5.075a17 17 0 0 0 .253-2.42m2.991-.578c-.004-.045-.072-.046-.07 0 .082 1.574.06 3.157.2 4.727a.043.043 0 0 0 .087 0 31 31 0 0 0-.217-4.727m-12.421 2.829a31 31 0 0 1-.165-2.566.059.059 0 0 0-.117 0 18 18 0 0 0-.067 2.615 11 11 0 0 0 .46 2.51c.019.06.122.052.116-.016-.08-.848-.143-1.696-.227-2.543m56.126-1.926a.133.133 0 0 0-.266 0c-.024 1.47.072 2.94.018 4.416-.055 1.52-.258 3.029-.45 4.535-.187 1.45-.363 2.901-.516 4.355-.068.646-.201 1.283-.271 1.927a7.7 7.7 0 0 1-.303 1.594c-.17-1.716-.233-3.437-.252-5.162a48 48 0 0 1 .218-6.098c.054-.465.131-.927.181-1.393a4.3 4.3 0 0 1 .09-.787c.053-.17.19-.317.25-.499a2.13 2.13 0 0 0-.12-1.314 8 8 0 0 1-.139-1.577c-.102-2.009-.36-4.01-.539-6.013-.004-.054-.087-.056-.086 0 .051 1.976-.139 3.921-.26 5.89a10 10 0 0 1-.152 1.562 2.9 2.9 0 0 0-.222 1.356c.067.275.233.478.285.768a7 7 0 0 1 .038.737c.035.492.098.982.129 1.474.12 1.96.064 3.931.083 5.894.019 1.961.107 3.922.22 5.88a.174.174 0 0 0 .323.087 9.4 9.4 0 0 0 1.344-3.67 40 40 0 0 0 .329-4.522c.035-1.552-.035-3.104-.018-4.656.017-1.585.15-3.205.086-4.784m-4.595 4.533a87 87 0 0 1-.072-4.154c0-.051-.074-.05-.078 0a29.3 29.3 0 0 0 .133 8.32c.017.08.136.059.138-.018.041-1.384-.066-2.766-.12-4.148m-144.282 69.647a11.3 11.3 0 0 0-1.733-1.589q-.91-.75-1.823-1.497c-.031-.025-.075.016-.045.044q.874.811 1.75 1.621a11 11 0 0 0 1.799 1.488c.044.027.08-.03.052-.067m2.73-.774-2.903-2.969c-.035-.036-.09.02-.056.056l2.863 3.01a41 41 0 0 0 2.908 2.963.031.031 0 0 0 .044-.044c-.86-1.078-1.893-2.03-2.856-3.016m8.093 4.361c-.408-.723-1.307-1.116-1.92-1.645-.672-.579-1.308-1.202-1.954-1.81q-1.913-1.8-3.828-3.596c-.04-.038-.1.021-.06.06l3.737 3.687c.614.606 1.236 1.204 1.83 1.83a12 12 0 0 1 .85 1.023 2.8 2.8 0 0 0 .912.884.319.319 0 0 0 .433-.433m5.463 2.012a.1.1 0 0 1-.049-.06 1.6 1.6 0 0 0-.301-.314q-.277-.279-.564-.546a8.5 8.5 0 0 0-1.097-.842 15.8 15.8 0 0 1-2.374-2.217q-2.169-2.21-4.426-4.323a.027.027 0 0 0-.038.038 148 148 0 0 0 4.538 4.703l1.112 1.107a9.7 9.7 0 0 1 1.077 1.39 9.4 9.4 0 0 0 .958 1.134c.304.315.608.705 1.077.722a.4.4 0 0 0 .087-.792m3.141-.234a43 43 0 0 1-2.009-2.053c-.635-.689-1.202-1.438-1.827-2.137a18 18 0 0 0-2.21-1.968c-.09-.07-.211.043-.128.128.656.667 1.273 1.365 1.958 2.006.701.655 1.457 1.257 2.095 1.977a17 17 0 0 1 1.754 2.33 5.2 5.2 0 0 0 1.715 2.032.135.135 0 0 0 .195-.15 4.5 4.5 0 0 0-1.543-2.165m1.787-1.73a13 13 0 0 0-1.472-1.266c-.04-.03-.09.036-.052.067a19 19 0 0 1 1.419 1.304c.452.458.861.953 1.295 1.426a.031.031 0 0 0 .049-.037 9 9 0 0 0-1.24-1.494m4.443 4.669a1.6 1.6 0 0 0-.233-.291 4.6 4.6 0 0 0-.531-.459c-.177-.142-.365-.277-.532-.431q-.264-.244-.524-.492a.05.05 0 0 0-.072.072l.465.524c.154.174.287.37.427.556a4.5 4.5 0 0 0 .434.535 1.6 1.6 0 0 0 .284.243.46.46 0 0 0 .3.106.1.1 0 0 0 .074-.074.43.43 0 0 0-.092-.289m5.195 1.218q-.386-.453-.782-.897-.812-.912-1.66-1.792a49 49 0 0 0-3.513-3.309c-.038-.032-.092.02-.055.056a87 87 0 0 1 3.316 3.417q.783.856 1.534 1.741.386.454.763.916c.213.262.414.61.756.704a.07.07 0 0 0 .09-.068 1.4 1.4 0 0 0-.449-.768m6.119 2.398a9 9 0 0 0-1.23-1.338q-.685-.695-1.377-1.38l-2.737-2.702c-.015-.014-.036.008-.022.022l2.592 2.846q.639.701 1.289 1.392a9.5 9.5 0 0 0 1.325 1.32c.096.069.222-.064.16-.16m4.188.375a15 15 0 0 0-1.166-1.134c-.391-.376-.795-.739-1.179-1.123-.033-.033-.078.015-.05.05a15 15 0 0 0 1.1 1.233 6.8 6.8 0 0 0 1.243 1.041c.044.026.082-.031.052-.067m2.396 1.014a.6.6 0 0 0-.096-.09l-.098-.065a2 2 0 0 0-.211-.138l-.451-.229a.027.027 0 0 0-.028.048l.406.306a2 2 0 0 0 .216.129l.102.059a1 1 0 0 0 .122.045.04.04 0 0 0 .038-.065m27.447 4.877a15 15 0 0 0-1.193-1.103l-1.216-1.08c-.044-.04-.11.026-.066.067l1.224 1.105a15 15 0 0 0 1.217 1.054c.027.02.053-.02.034-.043m5.254.028c-.958-.791-2.047-1.428-3.047-2.164a65 65 0 0 1-3.096-2.417c-.03-.026-.074.016-.044.044a36 36 0 0 0 2.896 2.458 18 18 0 0 0 3.239 2.146c.04.019.093-.034.052-.067m4.956.991c-1.994-1.65-4.093-3.176-6.154-4.74-.014-.011-.033.013-.019.024 2.034 1.6 4.04 3.246 6.14 4.76.025.017.057-.024.033-.044m5.566 1.771c-.898-.863-1.925-1.593-2.884-2.385q-1.447-1.195-2.832-2.463c-.06-.054-.147.032-.089.089q1.366 1.324 2.809 2.563a20 20 0 0 0 2.953 2.252.035.035 0 0 0 .043-.056m4.087.34a6 6 0 0 0-.864-.715q-.471-.35-.949-.692l-1.91-1.363c-.04-.028-.09.037-.052.067l1.853 1.438q.445.345.897.682a6 6 0 0 0 .973.651.043.043 0 0 0 .052-.068m3.754.502a4 4 0 0 0-.288-.299q-.16-.135-.325-.262c-.215-.168-.444-.322-.665-.481-.451-.325-.93-.613-1.397-.915-.026-.016-.057.023-.033.043.417.355.825.727 1.259 1.061.221.17.44.348.666.512q.17.122.345.236a4 4 0 0 0 .371.19.055.055 0 0 0 .067-.085m3.7.59-.213-.083-.434-.17c-.038-.015-.054.045-.017.06l.427.167.205.08a1 1 0 0 0 .225.076.02.02 0 0 0 .015-.036 1 1 0 0 0-.207-.094m4.155 1.255a5 5 0 0 0-.575-.537 5.5 5.5 0 0 0-.676-.484c-.463-.286-.967-.497-1.431-.781-.109-.067-.2.097-.099.169.447.319.842.705 1.29 1.021a5.4 5.4 0 0 0 .684.418 5 5 0 0 0 .731.325c.08.024.123-.074.076-.13m-68.588-76.276a18.4 18.4 0 0 0-3.95-2.864.035.035 0 0 0-.035.06c1.334.927 2.592 1.955 3.923 2.885.048.033.102-.04.062-.08m6.065.421a18 18 0 0 0-1.797-1.096q-.938-.55-1.872-1.106-1.84-1.09-3.642-2.243c-.013-.009-.024.011-.012.02q1.799 1.225 3.639 2.388.89.56 1.798 1.093a14 14 0 0 0 1.859 1.008c.04.016.056-.042.027-.064m3.957-.225a11 11 0 0 0-1.443-1.162c-.507-.373-1.022-.734-1.536-1.098-1.042-.739-2.1-1.453-3.159-2.168-.021-.015-.05.02-.028.037.982.766 1.962 1.534 2.96 2.278.506.377 1.009.757 1.52 1.125a12 12 0 0 0 1.625 1.068.051.051 0 0 0 .062-.08m3.884-.294a9 9 0 0 0-1.22-.9l-1.385-.913c-.907-.597-1.84-1.159-2.76-1.735-.043-.027-.08.039-.04.067.878.615 1.746 1.248 2.637 1.842l1.335.892a9.4 9.4 0 0 0 1.376.821c.045.02.099-.034.057-.074m3.923.16a6 6 0 0 0-.983-.733c-.335-.223-.667-.45-1.005-.668-.698-.45-1.402-.892-2.103-1.338-.056-.036-.104.05-.051.088.681.479 1.36.962 2.045 1.437.33.23.667.45 1 .675a6 6 0 0 0 1.047.624c.05.02.083-.052.05-.085m3.744-.355a13 13 0 0 0-1.745-1.012c-.593-.317-1.194-.62-1.791-.93a.035.035 0 0 0-.036.06c.591.344 1.178.695 1.775 1.029a13.5 13.5 0 0 0 1.77.917c.04.015.056-.043.027-.064m3.758.486a25 25 0 0 0-2.187-1.236c-.071-.038-.134.068-.064.108a25 25 0 0 0 2.22 1.182.031.031 0 0 0 .03-.054m4.271.148a6 6 0 0 0-1.083-.4q-.567-.161-1.133-.324a.094.094 0 0 0-.05.181l1.121.369a6 6 0 0 0 1.117.276c.054.007.073-.079.027-.102m48.016-.008a19.6 19.6 0 0 0-2.544-1.614 34 34 0 0 0-2.777-1.39c-.031-.014-.06.031-.027.048.902.466 1.795.957 2.677 1.46.882.505 1.734 1.068 2.628 1.551.033.018.075-.03.043-.055m5.638.16a11.3 11.3 0 0 0-1.659-1.012c-.592-.344-1.19-.68-1.784-1.021l-3.569-2.042a.027.027 0 0 0-.027.047l3.508 2.146c.584.358 1.167.719 1.754 1.073a11.3 11.3 0 0 0 1.686.966.094.094 0 0 0 .09-.157m5.026-.72a2 2 0 0 0-.759-.463l-.93-.44c-.642-.304-1.283-.61-1.93-.903l-3.818-1.736c-.022-.01-.042.022-.02.033l3.797 1.917c.612.309 1.229.606 1.845.905l.924.45a2.1 2.1 0 0 0 .86.31.044.044 0 0 0 .031-.073m5.463.124a13.5 13.5 0 0 0-3.12-1.774q-1.64-.74-3.346-1.318c-.024-.008-.033.029-.01.038a37 37 0 0 1 3.352 1.524c1.023.53 2.016 1.163 3.078 1.609.043.018.08-.05.046-.079m4.803-.435c-1.393-.7-2.827-1.278-4.276-1.85-.045-.018-.077.057-.033.078 1.412.66 2.817 1.304 4.282 1.836.037.014.063-.046.027-.064m4.786-.018a9.7 9.7 0 0 0-1.493-.904 10 10 0 0 0-1.615-.583c-.103-.03-.142.123-.044.158.54.194 1.062.428 1.585.663.514.232 1.03.467 1.527.733a.04.04 0 0 0 .04-.067m-160.342 59.168q-1.763 5.545-3.49 11.1l-1.685 5.437c-.585 1.888-1.229 3.772-1.656 5.703a.043.043 0 0 0 .083.023c.71-1.803 1.222-3.685 1.782-5.54l1.682-5.567q1.681-5.567 3.314-11.148a.016.016 0 0 0-.03-.008m-4.742 4.04c-1.181 3.626-2.495 7.24-3.465 10.929a.027.027 0 0 0 .053.014c1.327-3.576 2.331-7.287 3.45-10.933.007-.024-.03-.034-.038-.01m-4.572 13.115q-.382 1.193-.77 2.383a16 16 0 0 0-.696 2.403c-.007.044.056.081.078.033a16 16 0 0 0 .758-2.349q.349-1.226.706-2.45a.04.04 0 0 0-.076-.02m-1.636-4.065a85 85 0 0 0-3.456 10.538.027.027 0 0 0 .053.015c1.033-3.555 2.11-7.085 3.426-10.547.005-.014-.017-.02-.023-.006m-5.688 6.774a32 32 0 0 0-1.856 4.612c-.01.033.043.057.057.024.653-1.524 1.203-3.088 1.836-4.621.008-.02-.027-.035-.036-.015m-22.023-17.427a134 134 0 0 1-15.633-7.487.027.027 0 0 0-.028.048 73 73 0 0 0 15.632 7.545c.07.022.092-.079.03-.105m6.43.323c-1.345-.613-2.784-1.051-4.172-1.557a118 118 0 0 1-12.814-5.53c-.026-.014-.05.026-.023.04 2.731 1.478 5.52 2.856 8.38 4.07q2.004.85 4.041 1.619a29 29 0 0 0 4.549 1.45c.052.011.095-.067.039-.092m5.622-1.035c-2.766-.704-5.554-1.243-8.286-2.089a61 61 0 0 1-8.155-3.19c-.045-.022-.085.044-.04.067a61 61 0 0 0 8.02 3.327 38.2 38.2 0 0 0 8.445 2c.067.006.079-.1.016-.115m3.591-1.499a6.3 6.3 0 0 0-1.658-.361q-.835-.131-1.67-.271-1.847-.309-3.68-.691c-2.408-.5-4.798-1.052-7.166-1.715a.027.027 0 0 0-.014.053c2.375.756 4.781 1.444 7.216 1.985q1.767.393 3.55.712a11 11 0 0 0 3.406.41.067.067 0 0 0 .016-.122m1.625-2.288c-.206.432-.978.27-1.346.246-.608-.04-1.215-.084-1.822-.116l-3.577-.187c-.04-.002-.04.06 0 .063 1.417.127 2.833.27 4.251.377a14 14 0 0 0 1.935.13c.31-.02.622-.143.646-.49a.047.047 0 0 0-.087-.023m2.099-1.786a20.6 20.6 0 0 0-3.765.463c-.065.01-.05.121.016.115a20.6 20.6 0 0 0 3.761-.486.047.047 0 0 0-.012-.092m1.354-1.806c-.093.055-.18.122-.274.176a2.8 2.8 0 0 1-.91.335c-.025.005-.014.042.01.038a2.9 2.9 0 0 0 .926-.328 1.5 1.5 0 0 0 .277-.185c.02-.018-.006-.05-.028-.037M139.674 22.417a8.8 8.8 0 0 0-2.451-.54 20 20 0 0 0-2.662-.127.027.027 0 0 0 0 .055 23 23 0 0 1 2.635.266c.82.132 1.629.35 2.454.434.045.004.066-.07.024-.088m4.929-1.018a27 27 0 0 0-3.626-.605c-1.173-.16-2.348-.312-3.521-.467-.013-.002-.016.02-.003.023 1.206.21 2.41.431 3.619.63a27 27 0 0 0 3.521.488.035.035 0 0 0 .01-.069m3.764-.949a29.5 29.5 0 0 0-6.153-1.28c-.035-.004-.043.056-.009.062 2.062.364 4.086.9 6.142 1.293a.04.04 0 0 0 .02-.076m3.912-1.493a19 19 0 0 0-2.168-.395q-1.088-.19-2.174-.372c-1.398-.234-2.794-.496-4.2-.675-.03-.004-.037.047-.008.054 1.43.33 2.88.575 4.32.848q1.082.206 2.166.402a18 18 0 0 0 2.034.353c.127.008.145-.18.03-.215m4.591-1.196a13 13 0 0 0-1.978-.45 84 84 0 0 0-2.078-.366q-1.969-.326-3.95-.57c-.022-.003-.027.035-.005.038q2.044.3 4.075.685.995.191 1.988.4a17 17 0 0 0 1.933.371c.065.006.069-.088.014-.107m4.42-.993a12.4 12.4 0 0 0-1.934-.447q-.977-.187-1.957-.358-1.96-.343-3.93-.63c-.019-.003-.028.027-.008.03q1.994.345 3.976.747.973.198 1.943.41a15 15 0 0 0 1.894.363c.07.005.074-.094.016-.115m6.651-.226a36 36 0 0 0-4.73-1.257 87 87 0 0 0-4.81-.938c-.024-.005-.035.032-.01.037 1.597.334 3.182.71 4.769 1.087 1.582.376 3.152.887 4.752 1.176a.055.055 0 0 0 .029-.105m7.663-.863a41.6 41.6 0 0 0-7.449-1.966 89 89 0 0 0-7.384-1.178c-.013-.002-.017.02-.004.023 2.497.381 4.978.86 7.443 1.41s4.884 1.358 7.363 1.824a.059.059 0 0 0 .031-.113m7.168-.056a66 66 0 0 0-8.357-2.56 145 145 0 0 0-8.523-1.953c-.02-.004-.028.025-.008.03a213 213 0 0 1 8.464 2.163c2.805.774 5.567 1.745 8.395 2.425a.055.055 0 0 0 .03-.105m4.385-1.046a58.4 58.4 0 0 0-7.691-3.123 116 116 0 0 0-8.124-2.563.04.04 0 0 0-.02.075q4.018 1.225 7.972 2.662c2.628.954 5.185 2.125 7.83 3.027a.043.043 0 0 0 .033-.078m4.439-.883a24 24 0 0 0-2.936-1.15c-1.021-.37-2.04-.743-3.066-1.1l-6.258-2.187c-.03-.01-.04.035-.013.045l6.102 2.301c.98.37 1.963.726 2.945 1.084a26 26 0 0 0 3.196 1.078c.042.01.071-.05.03-.071m3.729-.967a18 18 0 0 0-1.757-.626q-.943-.323-1.88-.66-1.938-.697-3.833-1.505c-.036-.015-.068.037-.031.054q1.79.81 3.622 1.525.93.362 1.873.687a13.5 13.5 0 0 0 1.976.597c.04.007.073-.052.03-.072m2.909-1.78a28 28 0 0 1-3.264-1.458c-.022-.012-.042.021-.02.034a17.5 17.5 0 0 0 3.273 1.462c.025.007.034-.03.01-.038m3.759-.684a9.5 9.5 0 0 0-2.901-1.218.066.066 0 0 0-.035.128 27 27 0 0 1 2.889 1.17.047.047 0 0 0 .047-.08"/></svg>