<svg xmlns="http://www.w3.org/2000/svg" data-name="six" viewBox="0 0 532.725 266.367"><path fill="currentColor" d="M319.443 43.488c-2.468-1.089-4.936-2.18-7.415-3.245-2.471-1.063-4.971-2.115-7.405-3.262a57 57 0 0 0-7.083-3.188 10.8 10.8 0 0 0-3.688-.666 17 17 0 0 0-1.787.564c-.627.111-1.264.16-1.891.277a97 97 0 0 0-14.833 4.491c-2.393.86-4.803 1.612-7.14 2.616l-3.741 1.608c-1.096.47-2.151 1.042-3.216 1.585-.419.063-.833.145-1.25.23-1.185.24-2.364.359-3.558.53-1.144.163-2.223.57-3.357.77q-1.7.3-3.407.553a142 142 0 0 1-14.137 1.599.024.024 0 0 0 0 .048 121 121 0 0 0 14.14-.707q1.718-.215 3.43-.475c1.149-.174 2.312-.176 3.451-.425.231-.05.458-.12.687-.18q-2.324 1.099-4.662 2.172c-2.76 1.27-5.459 2.677-8.217 3.956-.017.008-.005.036.012.03 2.476-.975 4.973-1.875 7.468-2.799s4.93-2.015 7.434-2.92c2.465-.891 4.94-1.73 7.35-2.759 2.345-1 4.65-2.03 6.933-3.161a76.3 76.3 0 0 1 14.308-5.372 24.4 24.4 0 0 1 3.888-.773 2.6 2.6 0 0 1 .95.069c.314.084.58.286.89.367.59.156 1.249.146 1.853.273 1.211.254 2.366.694 3.543 1.067 1.21.382 2.413.786 3.622 1.173 2.812.9 5.57 1.96 8.356 2.939 2.826.993 5.631 2.054 8.45 3.066.03.011.051-.038.022-.05m-8.326-5.237c-2.575-1.327-5.305-2.407-7.996-3.475-.033-.013-.057.043-.024.059 2.614 1.243 5.264 2.506 7.99 3.489.042.015.07-.053.03-.073m10.829 4.138a.9.9 0 0 0-.399-.294c-.187-.097-.38-.182-.572-.268q-.578-.256-1.167-.482a72 72 0 0 1-2.452-.986c-.042-.017-.079.042-.036.062a76 76 0 0 1 2.335 1.17q.559.293 1.133.557c.179.081.356.166.54.238a1.06 1.06 0 0 0 .565.132.088.088 0 0 0 .053-.129M425.25 58.077c-.003-.017-.034-.013-.032.004a25.7 25.7 0 0 1-.13 7.153 30 30 0 0 1-.763 3.464 16.3 16.3 0 0 0-.408 3.334 74 74 0 0 1-2.689 14.002q-.504 1.902-1.087 3.779-.292.939-.595 1.874a13 13 0 0 1-.591 1.45 5.4 5.4 0 0 1-.665-1.733 2.2 2.2 0 0 1-.026-1.158 4 4 0 0 0 .15-1.244 56 56 0 0 1 .25-5.611c.522-4.174 1.32-8.305 2.238-12.409q.39-1.746.871-3.469a37 37 0 0 0 .932-3.583.064.064 0 0 0-.123-.034 42.5 42.5 0 0 0-1.712 6.566c-.51 2.162-.97 4.335-1.403 6.514-.44 2.21-.862 4.443-1.421 6.627-.25.972-.54 1.942-.813 2.907a10 10 0 0 0-.388 1.226 12 12 0 0 0-.106 1.363 3.06 3.06 0 0 0 .287 1.388c.17.425.195.921.331 1.365a6.15 6.15 0 0 0 1.384 2.408.42.42 0 0 0 .694-.183c.117-.567.152-1.137.305-1.7.173-.631.358-1.26.532-1.891.314-1.146.613-2.295.924-3.44.634-2.334 1.193-4.683 1.752-7.034.548-2.305 1-4.641 1.695-6.907a19.7 19.7 0 0 0 .907-3.502c.131-1.166.059-2.378.104-3.552a39 39 0 0 0-.405-7.974m-6.013 6.183c-.688 2.704-1.375 5.414-2.15 8.094-.378 1.303-.824 2.576-1.149 3.895a23 23 0 0 0-.562 4.075c-.004.064.1.096.126.034a22 22 0 0 0 1.298-3.74c.314-1.37.5-2.754.759-4.134.515-2.747 1.122-5.482 1.725-8.21.006-.03-.039-.043-.047-.013m12.203 3.844a43 43 0 0 1-1.09 4.536 38 38 0 0 0-1.222 4.51c-.018.104.125.184.182.077a15.8 15.8 0 0 0 1.422-4.482c.297-1.536.537-3.086.731-4.638.002-.013-.021-.016-.023-.003m56.399 15.989c.013-.033-.04-.047-.054-.015a18.54 18.54 0 0 0-1.291 10.097c.006.04.074.03.07-.01a21.75 21.75 0 0 1 1.275-10.072M292.65 148.483c-3.155-1.307-6.446-2.328-9.668-3.459l-9.685-3.397c-.014-.005-.02.018-.006.023l9.662 3.478c3.212 1.156 6.408 2.441 9.68 3.416.04.013.053-.046.017-.06m9.508-.307a18.4 18.4 0 0 0-2.684-.852q-1.46-.412-2.92-.828l-5.96-1.693q-5.899-1.677-11.79-3.382a.016.016 0 0 0-.008.031q5.816 1.74 11.626 3.502l5.808 1.765q1.392.423 2.783.848a21 21 0 0 0 3.047.842c.128.018.243-.168.098-.233m1.308-1.857a10.7 10.7 0 0 0-1.952-.624l-2.204-.604q-2.205-.604-4.41-1.205l-8.82-2.402a.032.032 0 0 0-.017.061l8.787 2.526q2.135.613 4.272 1.223l2.198.627a11.4 11.4 0 0 0 2.114.516.064.064 0 0 0 .032-.119m3.143-2.544a28 28 0 0 0-3.04-.682l-3.053-.638q-3.053-.638-6.108-1.265c-.02-.004-.028.026-.008.03q3.092.72 6.186 1.432l3.036.697a27 27 0 0 0 2.96.63c.12.013.132-.17.027-.204m2.427-3.106a7.6 7.6 0 0 0-1.201-.085 20 20 0 0 1-1.181-.114 14.3 14.3 0 0 1-2.474-.526c-.05-.015-.068.06-.02.077a14 14 0 0 0 2.464.665 11 11 0 0 0 1.21.13 3.8 3.8 0 0 0 1.202-.047.052.052 0 0 0 0-.1m4.181-3.344a3 3 0 0 0-.689.08c-.238.035-.475.106-.71.16-.471.112-.944.216-1.418.321-.035.008-.02.06.015.054.482-.075.963-.152 1.446-.222.24-.035.485-.06.723-.11a2.8 2.8 0 0 0 .66-.179c.055-.027.023-.099-.027-.104m-48.363 76.356a16.2 16.2 0 0 1-3.702.178 26.5 26.5 0 0 1-3.495-.616c-.523-.104-1.052-.174-1.578-.261a4.2 4.2 0 0 0-.914-.11c-.308.017-.59.113-.901.106a12.4 12.4 0 0 1-3.612-.88c-2.32-.787-4.555-1.82-6.795-2.803a455 455 0 0 0-6.645-2.847c-2.238-.941-4.411-2.075-6.714-2.847a17.5 17.5 0 0 0-3.544-.934 28.5 28.5 0 0 1-3.63-.763c-4.731-1.195-9.517-2.154-14.315-3.04q-7.96-1.47-16.03-2.195c-.03-.002-.03.045 0 .048a145.8 145.8 0 0 1 29.066 5.804l.063.02c.148.144.3.285.442.433q.515.535.995 1.102a12 12 0 0 0 .933 1.165c.362.337.73.668 1.09 1.008 1.435 1.359 2.723 2.852 4.109 4.257a.032.032 0 0 0 .05-.038 40 40 0 0 0-3.593-4.675c-.32-.378-.642-.756-.973-1.124a3 3 0 0 0-.479-.487c-.215-.149-.447-.255-.66-.418-.405-.311-.802-.632-1.199-.953l-.07-.06c.899.289 1.79.59 2.665.95.75.31 1.465.653 2.198.966a86 86 0 0 0 2.398 2.633c1.31 1.374 2.6 2.793 3.984 4.092.027.025.061-.012.04-.04-1.193-1.48-2.512-2.878-3.785-4.292q-.975-1.082-1.984-2.133c.19.072.378.147.573.21q.76.249 1.513.49c1.005.883 2.053 1.722 3.072 2.567.772.64 1.532 1.307 2.331 1.912a4.7 4.7 0 0 0 1.155.716 3.5 3.5 0 0 0 1.36-.064 14.2 14.2 0 0 1 3.292.2q1.633.212 3.254.5l.772.144c.946.177 1.89.361 2.83.57q.82.181 1.637.38a35 35 0 0 1 3.427 1.176 6.5 6.5 0 0 1 .905.434 3.3 3.3 0 0 0 .765.445 9.6 9.6 0 0 0 2.04.361 17.5 17.5 0 0 0 3.844-.24 22.3 22.3 0 0 0 3.862-.878.088.088 0 0 0-.047-.169M198.619 237.6a2.67 2.67 0 0 0-1.277-.668c-.58-.124-1.159-.24-1.736-.383-1.146-.287-2.256-.742-3.37-1.135-2.2-.776-4.374-1.623-6.573-2.404-2.235-.793-4.49-1.547-6.706-2.395a50 50 0 0 1-6.52-2.753 8.3 8.3 0 0 0-1.594-.74c-.565-.18-1.134-.333-1.706-.49a100 100 0 0 1-3.408-1.002 367 367 0 0 1-6.765-2.179q-6.685-2.234-13.383-4.424-7.548-2.456-15.064-5.003c-.039-.013-.055.048-.017.062 8.857 3.202 17.666 6.532 26.512 9.763 2.193.8 4.386 1.597 6.563 2.44 2.182.845 4.324 1.802 6.51 2.633a8 8 0 0 0 1.72.44 16 16 0 0 1 1.75.332c1.14.316 2.268.682 3.396 1.04 2.221.703 4.422 1.457 6.624 2.215 2.483.855 4.98 1.664 7.468 2.499 1.242.416 2.495.83 3.722 1.29a19 19 0 0 1 1.995.932 5 5 0 0 0 .736.358 3 3 0 0 0 .923.054c.225-.001.399-.322.2-.483m3.768 5.454c-.643-.59-1.341-1.124-1.993-1.707-.068-.061-.169.038-.101.101.633.599 1.222 1.248 1.863 1.837a14.3 14.3 0 0 0 1.956 1.66c.051.032.127-.035.088-.087a14.3 14.3 0 0 0-1.813-1.804m-4.089.04c-.015-.014-.037.008-.022.022 2.965 2.824 5.896 5.69 8.94 8.427.027.024.066-.014.04-.04-2.919-2.87-5.959-5.622-8.958-8.41m9.644 6.348c-.026-.016-.05.024-.024.042a29.3 29.3 0 0 1 4.179 3.427.032.032 0 0 0 .045-.045 19.5 19.5 0 0 0-4.2-3.424m59.024-38.805c-1.914-.86-3.958-1.471-5.938-2.159q-3.088-1.072-6.173-2.153c-.01-.003-.014.012-.004.016q3.015 1.112 6.03 2.227c1.996.741 3.995 1.586 6.051 2.149.046.012.08-.06.034-.08m6.582-.672a36 36 0 0 0-3.638-1.458l-3.882-1.484-7.763-2.967c-.015-.006-.02.017-.007.023l7.624 3.002 3.754 1.479a38 38 0 0 0 3.887 1.463c.034.01.057-.04.025-.058m5.792-1.527q-.053-.023-.106-.043a.5.5 0 0 0-.17-.049.2.2 0 0 0-.057.016 7 7 0 0 1-.744-.273 2 2 0 0 0-.281-.085.072.072 0 0 0-.07.12 1.5 1.5 0 0 0 .224.182q.06.033.123.065l-.012-.005-.926-.422-1.619-.737-3.47-1.58-6.939-3.158c-.041-.019-.078.042-.036.062l9.665 4.509 2.3 1.073 1.267.59a2.1 2.1 0 0 0 .684.275c.553.02.435-.572.166-.54m5.361-.958a33 33 0 0 0-3.226-1.229q-1.712-.647-3.412-1.33-3.506-1.41-6.92-3.033c-.023-.011-.043.023-.02.034q3.323 1.679 6.74 3.16 1.585.687 3.193 1.317a23.6 23.6 0 0 0 3.565 1.27c.11.023.19-.133.08-.189m2.781-1.442a27 27 0 0 0-3.216-1.286l-3.349-1.254c-.024-.009-.033.03-.01.039l3.26 1.327a28 28 0 0 0 3.281 1.254.044.044 0 0 0 .034-.08m3.123-1.749c-1.022-.405-2.074-.724-3.119-1.063-.064-.021-.09.078-.028.1 1.039.356 2.07.734 3.13 1.025.04.01.054-.047.017-.062M277.125 75.232c-4.702-1.405-9.515-2.486-14.282-3.647a.028.028 0 0 0-.015.054c4.737 1.276 9.477 2.645 14.274 3.677a.044.044 0 0 0 .023-.084m12.107-1.196a37.5 37.5 0 0 0-5.272-1.305l-5.307-1.176q-5.306-1.176-10.607-2.376c-.025-.006-.036.032-.01.038q5.345 1.273 10.685 2.568l5.278 1.282a37 37 0 0 0 5.211 1.125c.096.009.1-.127.022-.156m6.288-2.609c-1.5-.468-3.113-.676-4.65-1.003q-2.39-.509-4.774-1.04-4.707-1.051-9.383-2.237a.024.024 0 0 0-.013.046q4.718 1.265 9.47 2.397 2.314.55 4.638 1.06a41 41 0 0 0 4.69.94c.098.01.11-.137.023-.163m5.189-2.311a38 38 0 0 0-4.32-.86 145 145 0 0 1-4.43-.952q-4.352-1.014-8.628-2.32c-.02-.005-.028.025-.009.031q4.306 1.409 8.698 2.529c1.423.361 2.851.703 4.286 1.012a25 25 0 0 0 4.37.795.12.12 0 0 0 .032-.235m2.055-2.656c-1.575-.493-3.233-.753-4.846-1.101-1.622-.351-3.242-.71-4.853-1.11a.028.028 0 0 0-.015.054c1.618.483 3.243.953 4.883 1.353a30 30 0 0 0 4.813.937c.079.006.089-.11.018-.133m2.118-2.204a8 8 0 0 0-1.022-.38l-1.067-.335c-.074-.023-.103.09-.032.115l1.038.363a8 8 0 0 0 1.052.31c.042.008.074-.052.03-.073m4.502-1.622-1.39.344a.024.024 0 0 0 .013.046l1.39-.344a.024.024 0 0 0-.013-.046m31.05 18.811q-2.463-2.907-4.635-6.047c-.008-.012-.029 0-.02.012a69 69 0 0 0 4.417 5.978 41.3 41.3 0 0 0 5.217 5.567.04.04 0 0 0 .056-.057c-1.633-1.86-3.432-3.561-5.035-5.453m10.753 6.902a.06.06 0 0 0-.07.009l-.043.049c-.013.014-.007.031-.002.047a23 23 0 0 1-1.97-2.01l-1.943-2.003-3.975-4.095q-3.974-4.096-7.962-8.177c-.032-.033-.082.017-.05.05q4.719 4.965 9.442 9.925l4.729 4.955c.35.367.697.737 1.053 1.099.142.143.438.566.696.55.27-.016.328-.28.095-.4m3.724.019q-8.324-9.283-16.724-18.496c-.024-.026-.063.013-.04.04q7.778 8.87 15.676 17.634a.04.04 0 0 0-.036.065c.307.322.615.638.938.943a.132.132 0 0 0 .186-.186m4.492-.281-1.049-1.224c-.023-.027-.07.009-.05.039l.006.008c-2.081-2.238-4.17-4.464-6.18-6.77q-3.537-4.057-6.898-8.265c-.02-.025-.064.008-.044.033a174 174 0 0 0 14.052 16.342c.106.107.259-.052.163-.163m4.792.901c-.195-.366-.408-.723-.617-1.083-.024-.041-.099-.013-.08.034l.191.456c-1.986-2.344-4.026-4.64-5.986-7.007q-3.176-3.835-6.252-7.75c-.017-.022-.054.006-.038.028q2.964 3.94 6.069 7.77c2.121 2.602 4.247 5.23 6.525 7.697.095.103.251-.028.188-.145m4.228-.355.005-.002-.013-.015v-.003l-.017-.018c-.76-.984-1.646-1.885-2.466-2.82q-1.359-1.549-2.7-3.113a505 505 0 0 1-5.252-6.195c-.03-.036-.08.015-.05.05a306 306 0 0 0 5.09 6.191q1.257 1.482 2.532 2.949c.895 1.03 1.758 2.13 2.738 3.08a.085.085 0 0 0 .133-.103m2.524-2.201c-.683-.783-1.362-1.569-2.048-2.348-1.37-1.557-2.77-3.089-4.155-4.634-.024-.027-.062.012-.04.04 1.332 1.598 2.647 3.21 3.992 4.798.651.77 1.31 1.533 1.966 2.299a13.6 13.6 0 0 0 2.049 2.245c.068.05.142-.044.109-.109a13.2 13.2 0 0 0-1.873-2.291m6.18 2.936c-.277-.354-.568-.697-.858-1.04q-.93-1.099-1.91-2.153a52 52 0 0 0-4.12-3.913c-.035-.03-.086.019-.052.05 1.365 1.283 2.65 2.636 3.917 4.014q.924 1.005 1.803 2.051.45.538.89 1.084a4.2 4.2 0 0 0 .9.992.072.072 0 0 0 .105-.08 3.5 3.5 0 0 0-.675-1.005m3.831.43-1.253-1.61c-.822-1.055-1.67-2.09-2.506-3.134-.023-.028-.072.01-.05.039.798 1.072 1.585 2.155 2.398 3.217l1.203 1.57a14 14 0 0 0 1.234 1.495.044.044 0 0 0 .07-.053 14 14 0 0 0-1.096-1.524m4.307 1.426c-.43-.421-.856-.847-1.291-1.263-.87-.832-1.75-1.654-2.63-2.478a.032.032 0 0 0-.044.045c.835.867 1.67 1.735 2.513 2.594.41.417.83.826 1.245 1.238a10.4 10.4 0 0 0 1.307 1.195c.045.032.109-.031.076-.076a10 10 0 0 0-1.176-1.255m4.676 1.923c-.288-.337-.599-.654-.9-.977-.595-.639-1.244-1.224-1.868-1.834-.037-.036-.088.018-.056.057.555.677 1.085 1.377 1.672 2.028a10.8 10.8 0 0 0 1.81 1.807c.058.04.124-.036.093-.092a6.4 6.4 0 0 0-.752-.99m5.587 2.725c-.995-.979-2.082-1.854-3.164-2.734-.024-.02-.057.012-.034.033 1.024.95 2.045 1.906 3.155 2.757.033.025.072-.028.043-.056m32.32 5.518c-1.166-.92-2.351-1.813-3.53-2.715-.028-.022-.056.026-.028.048 1.175.903 2.342 1.817 3.529 2.704.021.016.05-.02.029-.037m7.581 2.506a19 19 0 0 0-1.88-1.766l-1.92-1.728-3.837-3.455c-.034-.03-.085.02-.05.051l3.851 3.548 1.898 1.748a18 18 0 0 0 1.89 1.664c.039.028.075-.03.048-.062m5.729.217a20 20 0 0 0-2.318-2.115q-1.165-1.054-2.27-2.172a57 57 0 0 1-4.156-4.705c-.03-.038-.099.014-.068.053a56 56 0 0 0 4.078 4.797q1.084 1.138 2.23 2.213a12 12 0 0 0 2.436 2.016.056.056 0 0 0 .068-.087m6.5 1.094c-.069-.043-.148.057-.087.112a1 1 0 0 1 .169.235c-.724-.771-1.508-1.5-2.255-2.24q-1.386-1.377-2.787-2.738-2.757-2.692-5.51-5.386a.048.048 0 0 0-.069.068q2.697 2.752 5.39 5.506 1.328 1.358 2.663 2.709c.912.917 1.788 1.913 2.766 2.759.095.082.295.037.279-.116a1.13 1.13 0 0 0-.56-.91m6.907 1.372c-.244-.426-.429-.887-.631-1.334-.02-.045-.095-.013-.08.034.097.312.198.624.29.939-.748-.625-1.515-1.228-2.251-1.867a87 87 0 0 1-2.61-2.378 69 69 0 0 1-4.817-5.03c-.034-.04-.089.017-.057.056a70 70 0 0 0 4.744 5.232 44.6 44.6 0 0 0 5.195 4.565c.134.098.291-.088.217-.217m5.918.79c-.021.038.033.083.063.048-.172.203-.439-.196-.568-.32q-.306-.288-.614-.573l-1.09-1.02c-.773-.721-1.544-1.446-2.323-2.16l-4.61-4.228c-.025-.024-.065.015-.039.04 2.149 2.072 4.29 4.15 6.458 6.203l1.626 1.54c.262.248.75.92 1.19.854.48-.073.059-.648-.093-.384m4.65.709q-.534-.524-1.076-1.04a97 97 0 0 0-2.185-2.043 118 118 0 0 0-4.569-3.873c-.02-.016-.048.011-.028.028a155 155 0 0 1 4.423 4.02c.707.663 1.416 1.323 2.114 1.996q.538.52 1.07 1.045a5.7 5.7 0 0 0 1.068.951.06.06 0 0 0 .082-.081 5 5 0 0 0-.9-1.003m1.829-1.914a29 29 0 0 0-3.644-2.779c-.017-.01-.032.016-.016.028a38 38 0 0 1 3.537 2.957c1.094 1.034 2.067 2.18 3.14 3.231.035.034.097-.01.07-.053a18 18 0 0 0-3.087-3.384m8.676 4.067a33 33 0 0 0-2.721-2.49c-.926-.813-1.874-1.6-2.818-2.393-.023-.02-.057.013-.034.034.91.854 1.816 1.71 2.746 2.543a33 33 0 0 0 2.77 2.38c.046.033.092-.036.057-.074m4.936.611a42 42 0 0 0-3.773-2.849c-.019-.013-.042.017-.025.031a42 42 0 0 0 3.76 2.868c.03.02.066-.025.039-.05m4.182.676a5 5 0 0 0-.65-.445q-.351-.225-.708-.44l-1.436-.842c-.022-.013-.041.02-.02.034l1.39.922c.231.153.468.297.705.443a5 5 0 0 0 .684.388c.033.014.06-.037.035-.06m5.19-.031a.5.5 0 0 0-.166.007 2 2 0 0 1-.18.01 1.6 1.6 0 0 1-.36-.03 1.4 1.4 0 0 1-.646-.322c-.065-.057-.161.037-.096.096a1.55 1.55 0 0 0 .703.367 1.5 1.5 0 0 0 .389.04.64.64 0 0 0 .374-.102.04.04 0 0 0-.018-.066m4.502 1.122-1.38-.38a.032.032 0 0 0-.017.06l1.386.359a.02.02 0 0 0 .01-.039m-165.884-8.067a20.8 20.8 0 0 0-3.71-4.31 32 32 0 0 0-4.552-3.204 27.6 27.6 0 0 0-5.049-2.322 29 29 0 0 0-5.558-1.13c-.062-.01-.076.095-.015.109a34 34 0 0 1 5.166 1.74 37 37 0 0 1 4.981 2.415 32.7 32.7 0 0 1 4.5 3.205c1.382 1.163 2.805 2.334 4.074 3.622.08.082.23-.026.163-.125m-5.634-7.978c-3.338-1.21-6.695-2.367-10.047-3.538-.019-.007-.027.024-.008.03 3.345 1.19 6.685 2.396 10.044 3.547.025.008.035-.03.011-.039m-182.983-9.855a22 22 0 0 1-4.313.131 12.4 12.4 0 0 0-4.068.647 65 65 0 0 1-7.94 1.873c-5.394 1.028-10.789 2.028-16.206 2.925q-4.589.76-9.188 1.451c-.018.003-.014.034.004.031q8.143-.991 16.263-2.162c2.748-.4 5.499-.78 8.243-1.207 2.762-.43 5.52-.996 8.314-1.15a14.1 14.1 0 0 0 4.43-.764c.71-.282 1.378-.656 2.087-.935a17 17 0 0 1 2.398-.755c.055-.013.03-.094-.024-.085m48.494-14.04c-1.333.265-2.684.44-4.016.708-1.368.275-2.707.685-4.05 1.059q-3.974 1.104-7.941 2.227c-2.605.74-5.208 1.479-7.787 2.308-2.621.842-5.215 1.742-7.857 2.528-2.959.881-5.924 1.741-8.886 2.614a.004.004 0 0 0 .003.008c5.275-1.495 10.555-3.169 15.932-4.264 2.65-.54 5.258-1.31 7.863-2.028l7.952-2.188c1.462-.402 2.962-.742 4.399-1.23 1.487-.503 2.933-1.121 4.416-1.642a.052.052 0 0 0-.028-.1m-18.662 20.076c-7.161.394-14.295 1.45-21.406 2.357a52 52 0 0 1-5.46.578c-.826.016-1.652.079-2.478.092a21 21 0 0 0-2.726.078c-.909.131-1.8.325-2.695.528-.893.203-1.724.582-2.63.77a203 203 0 0 0-5.117 1.14c-3.976.926-8.017 1.62-12.017 2.435-.03.006-.018.052.012.046a274 274 0 0 1 10.63-1.838c1.83-.275 3.674-.45 5.51-.68a21 21 0 0 1 2.596-.247 25 25 0 0 0 2.722-.137 36 36 0 0 0 5.079-1.222 52 52 0 0 1 5.375-1.077c3.58-.535 7.176-.973 10.77-1.4 3.948-.468 7.905-.815 11.844-1.352.04-.006.03-.073-.01-.07m6.952 44.07c-4.286-.509-8.587-.884-12.882-1.309-4.343-.43-8.754-.685-13.04-1.537a59 59 0 0 0-6.166-1.152c-2.134-.192-4.304-.074-6.447-.163-4.3-.177-8.6-.521-12.897-.776q-7.276-.43-14.546-.96c-.015-.001-.015.023 0 .024 8.615.735 17.204 1.693 25.8 2.616 2.129.23 4.223.62 6.333.957a23 23 0 0 0 3.274.333c1.049.016 2.107-.118 3.16-.137a117 117 0 0 1 12.887.764c4.842.449 9.678.98 14.524 1.38.026.002.025-.037 0-.04m-15.926 6.35a52 52 0 0 0-6.843-1.061c-2.313-.273-4.629-.518-6.945-.763-4.676-.494-9.347-1.026-14.018-1.558-.026-.003-.025.037 0 .04 4.698.63 9.397 1.26 14.09 1.927 2.206.314 4.411.628 6.62.915a53 53 0 0 0 7.073.664.084.084 0 0 0 .022-.164M20.763 191.463c-1.083-1.006-2.198-1.976-3.243-3.022a51 51 0 0 1-3.009-3.256c-.036-.044-.096.018-.062.062a33.5 33.5 0 0 0 6.266 6.279c.036.027.08-.032.048-.063m9.111 4.067a91.6 91.6 0 0 1-10.681-11.506c-.012-.016-.04-.001-.028.016a58.8 58.8 0 0 0 10.647 11.553c.043.034.104-.023.062-.062m18.649.679q-1.228-1.497-2.309-3.107c-.017-.025-.058-.002-.041.024q1.034 1.585 2.208 3.072a25.5 25.5 0 0 0 2.586 2.894.032.032 0 0 0 .045-.046c-.828-.947-1.69-1.862-2.489-2.836m6.196 1.832a70 70 0 0 1-5.232-7.455.032.032 0 0 0-.055.032 70 70 0 0 0 5.076 7.586 37.7 37.7 0 0 0 6.032 6.598.052.052 0 0 0 .073-.074c-1.898-2.287-4.026-4.369-5.894-6.687m16.591 14.449a58 58 0 0 0-3.986-5.523c-1.392-1.854-2.782-3.708-4.189-5.55q-4.112-5.385-8.278-10.728c-.01-.014-.035.005-.025.02q4.016 5.58 8.063 11.14c1.341 1.834 2.701 3.656 4.058 5.48a57 57 0 0 0 4.131 5.335.144.144 0 0 0 .226-.174m.574-6.342c-2.615-3.911-5.259-7.803-7.897-11.7-.031-.045-.107-.002-.075.045 2.577 3.932 5.149 7.868 7.749 11.785 2.597 3.912 5.077 7.942 7.897 11.699.033.044.105.006.075-.044-2.377-4.047-5.14-7.885-7.749-11.785m23.79 20.425c-1.34-2.348-2.908-4.565-4.413-6.81l-4.38-6.536c-2.968-4.43-5.992-8.823-9-13.227-.016-.025-.057-.001-.04.025 2.898 4.467 5.782 8.946 8.72 13.389l4.34 6.56c1.492 2.257 2.937 4.561 4.587 6.708.082.106.257.015.186-.109m.683-7.749c-2.694-4.3-5.424-8.578-8.137-12.866-.025-.039-.087-.003-.062.036 2.662 4.318 5.309 8.646 7.99 12.952 2.683 4.306 5.316 8.647 8.124 12.873a.052.052 0 0 0 .09-.052c-2.566-4.376-5.312-8.645-8.005-12.943m5.955-1.391a73 73 0 0 1-3.236-6.645c-.007-.017-.036-.005-.03.012a72 72 0 0 0 3.148 6.702 39.6 39.6 0 0 0 3.897 6.297c.026.032.076-.01.057-.044-1.223-2.14-2.642-4.158-3.836-6.322"/><path fill="currentColor" d="M532.437 95.849c-2.048-12.117-14.01-18.31-24.333-22.45-12.809-5.138-26.223-8.5-39.502-12.162-6.641-1.831-13.265-3.74-19.78-5.989-6.635-2.29-12.967-5.18-19.415-7.929a70.5 70.5 0 0 0-9.872-3.498 106 106 0 0 0-10.437-2.021 195 195 0 0 1-21.133-4.325c-14.198-3.847-28.172-8.512-42.332-12.502-3.527-.993-7.058-1.966-10.58-2.977a.48.48 0 0 0-.496.12c-2.657-1.49-5.336-2.946-8.055-4.303a42 42 0 0 0-6.227-2.59 35 35 0 0 0-6.563-1.312 115 115 0 0 0-13.548-.296c-9.456.062-18.917-.172-28.35-.848q-7.07-.507-14.11-1.363c-3.17-.39-6.326-.883-9.489-1.33a211 211 0 0 0-22.39-9.087 17.3 17.3 0 0 0-5.785-.984 41 41 0 0 0-5.81.72q-5.982.987-11.94 2.12-23.94 4.555-47.355 11.448c-15.527 4.572-30.696 10.064-45.786 15.897a224 224 0 0 1-22.864 7.808 141.6 141.6 0 0 1-23.934 4.115c-16.221 1.449-32.485.782-48.727.241a222 222 0 0 0-5.939-.138c-.19-.002-.178.264 0 .286 8.046 1.01 16.18 1.521 24.276 1.936a226 226 0 0 0 24.027.156 161 161 0 0 0 23.732-2.968 160 160 0 0 0 22.924-6.815c7.572-2.793 15.046-5.841 22.625-8.613q11.283-4.126 22.757-7.7Q171.183 11.28 194.97 6.35q5.826-1.207 11.68-2.274c4.031-.734 8.137-1.66 12.224-1.995 4.2-.345 7.985 1.404 11.838 2.825 3.901 1.44 7.84 2.863 11.837 4.011.927.266 1.857.52 2.786.778-.631-.08-1.262-.166-1.894-.236a110 110 0 0 0-14.058-.692A99 99 0 0 0 215.55 9.8a54 54 0 0 0-3.417.684.156.156 0 0 0 .041.306c4.604-.337 9.218-.81 13.838-.79a112 112 0 0 1 13.883.893c4.73.613 9.434 1.416 14.16 2.06q6.957.95 13.955 1.539c9.332.788 18.699 1.123 28.063 1.148 8.91.023 18.23-.944 26.644 2.62 4.149 1.757 8.06 4.103 12.01 6.255 4.137 2.254 8.38 4.46 12.7 6.34 1.1.477 2.194.961 3.28 1.473a.22.22 0 0 0 .22-.379c-2.024-1.262-3.984-2.626-6.016-3.876-2.027-1.248-4.123-2.398-6.185-3.587l-.604-.345c12.748 4.111 25.493 8.21 38.315 12.095 6.819 2.066 13.668 4.067 20.644 5.538 6.852 1.445 13.86 2.063 20.674 3.688 6.772 1.615 12.958 4.71 19.324 7.432a190 190 0 0 0 18.996 6.831c12.903 3.958 26.068 7.01 38.923 11.13a144 144 0 0 1 18.387 7.02 47 47 0 0 1 8.326 4.987c-1.505-.498-3.055-.889-4.492-1.329-2.373-.726-4.744-1.465-7.128-2.155a23.5 23.5 0 0 0-6.976-1.188 11.8 11.8 0 0 0-6.094 1.921 7.27 7.27 0 0 0-3.108 4.67.06.06 0 0 0 .115.032 7.22 7.22 0 0 1 3.308-3.801 9 9 0 0 1 4.82-1.324c4.382-.04 8.579 1.587 12.708 2.868 2.035.63 4.078 1.237 6.108 1.883a16.3 16.3 0 0 1 4.79 2.262c.085.062.16.132.24.198.409.482.808.973 1.178 1.49q.33.466.633.952a14.6 14.6 0 0 1 .533 7.093 58 58 0 0 1-1.307 7.321c-.418 1.695-.834 4.056-2.293 5.238a23 23 0 0 0-3.336-.556q-2.31-.393-4.597-.912a82 82 0 0 1-9.004-2.584 67 67 0 0 1-8.423-3.515 10.75 10.75 0 0 1-5.47-5.698 13.8 13.8 0 0 1-.477-8.502.016.016 0 0 0-.031-.009 15 15 0 0 0-.599 7.577 10.05 10.05 0 0 0 4.2 6.37 26 26 0 0 0 4.101 2.191q2.192 1.002 4.44 1.875a82 82 0 0 0 9.367 3.005q2.725.696 5.494 1.192 1.385.247 2.777.445a4.75 4.75 0 0 0 2.519-.1.162.162 0 0 0 .038-.292 3 3 0 0 0-.312-.182 2.4 2.4 0 0 0 .814-.487l-.003.296a.155.155 0 1 0 .31 0l-.003-.347-.002-.17-.004-.09a6.8 6.8 0 0 0 1.153-2.389 55 55 0 0 0 1.67-7.199 38 38 0 0 0 .546-4.993 17.1 17.1 0 0 1 .39 9.065 12.3 12.3 0 0 1-3.683 6.316 16.8 16.8 0 0 1-7.786 3.575 58.6 58.6 0 0 1-9.218 1.016c-3.515.19-7.038.232-10.558.154a198 198 0 0 1-21.055-1.704c-14.062-1.827-27.951-4.739-41.933-7.059-6.975-1.157-14.006-1.918-20.98-3.06a71.4 71.4 0 0 1-10.037-2.338 99 99 0 0 1-4.112-1.417 8 8 0 0 0-.604-.755 10 10 0 0 0-.947-.872 13 13 0 0 0-2.121-1.352.044.044 0 0 0-.045.076 25 25 0 0 1 1.92 1.567c.298.262.599.522.89.791q.208.191.425.37c-1.732-.64-3.454-1.308-5.177-1.971a101.7 101.7 0 0 0-20.015-5.73 91 91 0 0 0-10.261-1.09c-3.322-.165-6.638-.032-9.962-.065-3.233-.033-6.653.003-9.72-1.17a.4.4 0 0 0-.206-.02 43 43 0 0 0-2.407-2.135 79 79 0 0 0-2.026-1.589l-.027-.033q-.937-1.16-1.818-2.365c-1.136-1.552-2.195-3.159-3.218-4.786a64.3 64.3 0 0 1-5.42-10.374c-.02-.05-.104-.03-.085.024a69 69 0 0 0 4.797 10.763 55 55 0 0 0 3.045 4.712 51 51 0 0 1-6.008-5.108 112 112 0 0 1-8.372-10.54c-.685-.902-1.39-1.779-2.033-2.714-.043-.062-.144-.006-.103.06 1.157 1.886 2.17 3.844 3.367 5.71a76 76 0 0 0 3.754 5.31q1.991 2.585 4.209 4.99a46 46 0 0 0 5.009 4.538c1.813 1.461 3.675 2.87 5.398 4.44a52 52 0 0 1 4.587 4.82c1.457 1.72 2.827 3.51 4.176 5.316 1.302 1.742 2.628 3.475 3.814 5.299a18.24 18.24 0 0 1 3.33 12.853 73 73 0 0 1-2.3 14.094c-1.002 3.82-2.233 7.692-4.543 10.945a13.8 13.8 0 0 1-4 3.804 18.5 18.5 0 0 1-5.789 2.155c-2.04.444-4.116.7-6.18 1.004-2.248.33-4.48.753-6.69 1.283a50.6 50.6 0 0 0-12.62 4.908c-.982.544-1.958 1.099-2.94 1.643-.174.097-.02.338.153.262a70 70 0 0 1 6.731-2.35c2.217-.714 4.448-1.393 6.717-1.919q.848-.196 1.693-.398a5 5 0 0 0 .442.547 6 6 0 0 0 .74.496 11.7 11.7 0 0 1 1.527 1.265 13 13 0 0 1 2.314 3.025 15.74 15.74 0 0 1 1.75 8.03 33.5 33.5 0 0 1-2.137 9.9 52.7 52.7 0 0 1-3.83 8.847c-5.853 10.319-17.261 14.92-27.756 19.083-3.626 1.438-7.265 2.836-10.87 4.326-1.807.747-3.596 1.534-5.398 2.295-1.83.773-3.595 1.711-5.36 2.622-.168.087-.05.344.125.299 1.77-.454 3.582-.864 5.31-1.455q.866-.295 1.732-.587a61 61 0 0 0 1.674 6.529c.348 1.226.66 2.46.963 3.699a24 24 0 0 0 .836 3.245 45.3 45.3 0 0 1-3.65 6.521c-5.028 7.402-11.946 13.315-19.25 18.379-2.203 1.527-4.459 2.973-6.708 4.431-.957.62-1.872 1.302-2.812 1.945a27.6 27.6 0 0 0 2.765-3.277c.19-.26-.204-.504-.42-.323a49.6 49.6 0 0 1-18.194 9.86 56.05 56.05 0 0 1-22.559 1.187c-8.125-1.087-15.914-3.564-23.677-6.106-3.807-1.246-7.627-2.468-11.526-3.4-.77-.186-1.547-.344-2.323-.507a22 22 0 0 0-1.863-2.954 158 158 0 0 0-2.274-3.337q-2.31-3.314-4.755-6.53c-.027-.037-.089-.002-.061.035q2.391 3.249 4.653 6.59c.73 1.081 1.446 2.17 2.16 3.262q.57.87 1.13 1.745c.245.382.487.77.76 1.135-1.4-.29-2.804-.56-4.213-.802q-.208-.367-.408-.738a.046.046 0 0 0-.068-.015c-.773-1.205-1.639-2.367-2.442-3.54l-3.08-4.5c-2.055-3-4.138-5.982-6.211-8.97-.02-.03-.068-.002-.048.028 2.024 3.066 4.04 6.138 6.084 9.19l3.032 4.529c.873 1.305 1.71 2.671 2.652 3.935q-2.49-.418-4.988-.784c-1.63-.241-3.255-.5-4.88-.759l-.032-.032c-.726-1.305-1.562-2.57-2.319-3.843l-2.9-4.883-5.866-9.874a.016.016 0 0 0-.027.016l5.742 9.946 2.84 4.919c.696 1.207 1.35 2.47 2.078 3.676-6.564-1.059-13.083-2.28-19.542-3.763a.13.13 0 0 0 .051-.138 6.2 6.2 0 0 0-1.274-2.49c-.032-.037-.098.013-.069.054a6 6 0 0 1 .745 1.374c-2.426-4.297-4.964-8.535-7.417-12.818q-3.973-6.938-7.91-13.896a.028.028 0 0 0-.048.028q3.845 7.012 7.768 13.98c2.615 4.628 5.177 9.303 7.928 13.853-4.1-.945-8.179-1.985-12.226-3.165a.1.1 0 0 0 .008-.071l-.265-1.005c-.01-.038-.075-.032-.07.01l.045.41c-1.708-3.513-3.713-6.92-5.66-10.3a315 315 0 0 0-6.366-10.614q-1.894-3.008-3.846-5.979c-.02-.03-.068-.002-.048.028q6.615 10.458 12.6 21.298c1.13 2.041 2.18 4.133 3.352 6.15-2.913-.854-5.815-1.753-8.696-2.753a182 182 0 0 1-13.236-5.204 14.5 14.5 0 0 1-.739-1.769 7.3 7.3 0 0 0-.534-1.691c-.293-.513-.717-.934-1.031-1.443-1.37-2.22-2.873-4.314-4.373-6.444a.092.092 0 0 0-.158.093c.578 1.115 1.098 2.261 1.698 3.365.602 1.105 1.243 2.185 1.87 3.276.136.236.29.47.408.716.141.29.202.602.335.895a5.4 5.4 0 0 0 1.015 1.298 5.8 5.8 0 0 1 .87 1.422 180 180 0 0 1-7.796-3.643c-5.783-2.892-11.427-6.049-17.047-9.243-1.195-2.12-2.574-4.145-3.908-6.177l-4.332-6.596q-4.412-6.7-8.917-13.339c-.011-.017-.038-.001-.027.016 2.87 4.555 5.75 9.106 8.681 13.624l4.363 6.725c1.193 1.839 2.37 3.705 3.665 5.477l-1.93-1.096c-6.464-3.685-12.92-7.39-19.557-10.756a107 107 0 0 0-9.985-4.428 96 96 0 0 0-10.255-3.527c-1.792-.465-3.565-.994-5.363-1.435a.06.06 0 0 0-.032.115 113 113 0 0 1 14.087 5.784 77 77 0 0 0-3.866-.302c-4.074-.232-8.051-.487-11.947-1.806-4.043-1.37-7.849-3.426-11.96-4.596a163 163 0 0 0-12.395-3.019c-4.751-.96-9.54-1.538-14.327-2.28-.06-.01-.086.08-.025.092 4.129.826 8.233 1.82 12.334 2.778a123 123 0 0 1 12.255 3.543c3.976 1.377 7.774 3.213 11.695 4.73a33.4 33.4 0 0 0 6.055 1.79 50 50 0 0 0 5.953.648c2.202.134 4.41.214 6.602.474 1.089.13 2.17.355 3.266.424q.886.057 1.756.164l1.38.687c6.71 3.347 13.27 6.954 19.788 10.661 13.287 7.557 26.535 15.054 40.895 20.42a227.8 227.8 0 0 0 46.706 11.601c4.113.604 8.234 1.17 12.314 1.968a110 110 0 0 1 12.095 3.18c7.84 2.486 15.58 5.214 23.705 6.646a63 63 0 0 0 23.34.142 41.1 41.1 0 0 0 15.443-6.283l-.208.191c-.102.093.005.29.14.24a35 35 0 0 0 3.261-1.288 54 54 0 0 0 3.225-1.75c2.105-1.235 4.146-2.593 6.167-3.961a102 102 0 0 0 11.402-8.8c6.543-5.924 12.076-13.105 15.008-21.5.911-2.607 1.601-5.284 2.293-7.956.337-1.3.67-2.6 1.015-3.898.181-.686.344-1.378.512-2.068.047-.192.105-.388.155-.585 1.05-.406 2.1-.81 3.147-1.223a121 121 0 0 0 16.692-7.531 35.96 35.96 0 0 0 12.863-11.948 49.7 49.7 0 0 0 4.215-9.18 39.4 39.4 0 0 0 2.514-10.368 17.37 17.37 0 0 0-1.967-9.801 12.9 12.9 0 0 0-2.73-3.492 10.7 10.7 0 0 0-1.794-1.264 7 7 0 0 0-.743-.354 72 72 0 0 1 3.558-.747c2.168-.388 4.358-.641 6.53-1.002 4.135-.687 8.194-1.951 11.216-5 2.817-2.841 4.483-6.616 5.683-10.376a75.5 75.5 0 0 0 2.963-13.948c.575-4.781.818-9.594-1.149-14.103a31.4 31.4 0 0 0-3.346-5.627 202 202 0 0 0-4.077-5.477 73 73 0 0 0-5.754-6.701 28.7 28.7 0 0 0 8.287 1.537c3.438.109 6.875.012 10.311.213a88.4 88.4 0 0 1 20.965 3.834c6.747 2.091 13.163 5.129 19.943 7.121 6.885 2.023 14.062 2.633 21.137 3.652 14.313 2.061 28.469 5.065 42.756 7.282 14.13 2.192 28.476 3.64 42.778 2.53 5.675-.44 12.002-1.314 16.142-5.644 3.6-3.766 4.557-9.214 3.71-14.218M291.47 224.842a28 28 0 0 0-.786-3.093 100 100 0 0 1-.885-3.588 61 61 0 0 0-1.666-6.677c.843-.283 1.685-.564 2.525-.856.011.194.045.391.07.596.065.555.156 1.106.25 1.657.193 1.135.438 2.266.698 3.388a44 44 0 0 0 1.36 4.76 48 48 0 0 1-1.566 3.813m2.051-5.156c-.048.151-.111.296-.161.446-.291-1.275-.608-2.544-.919-3.818a329 329 0 0 1-.748-3.12c-.207-.887-.394-1.812-.68-2.688l.386-.132c.553-.197 1.1-.408 1.651-.611a6 6 0 0 0 .06.63c.131.948.32 1.889.53 2.822.247 1.094.504 2.202.831 3.286a92 92 0 0 1-.95 3.185m1.988-6.943-.623 2.272q-.138-.653-.277-1.3-.261-1.221-.53-2.44c-.093-.42-.186-.843-.31-1.255a4 4 0 0 0-.148-.424l-.019-.037c.642-.24 1.287-.472 1.928-.714-.007.1-.019.199-.017.299.004.37.04.732.076 1.1a8.5 8.5 0 0 0 .248 1.324q-.166.588-.328 1.175m1.015-3.406c-.086.246-.158.498-.237.747a12 12 0 0 0-.118-.947 3 3 0 0 0-.124-.482c.283-.107.569-.207.851-.315-.124.332-.255.662-.372.997"/><path fill="currentColor" d="M117.097 232.595q-1.77-2.639-3.44-5.341-3.311-5.353-6.253-10.919c-.014-.027-.055-.003-.041.024a167 167 0 0 0 6.233 11.07q1.637 2.651 3.37 5.242a48 48 0 0 0 3.6 5.103c.028.03.077-.01.057-.044-1.044-1.779-2.377-3.42-3.526-5.135m11.417 8.134c-.951-1.653-2.01-3.258-3.004-4.88-1.148-1.875-2.292-3.753-3.45-5.622l-7.08-11.432a.036.036 0 0 0-.061.036l6.947 11.51c1.136 1.882 2.286 3.756 3.431 5.633 1.186 1.941 2.296 3.963 3.59 5.833.046.066.172.07.19-.024a.92.92 0 0 0-.563-1.054m14.213 5.071a13.5 13.5 0 0 0-.89-1.643c-.975-1.717-2.052-3.391-3.043-5.088q-1.965-3.367-3.92-6.739-3.896-6.751-7.738-13.535a.02.02 0 0 0-.034.02q3.73 6.848 7.588 13.622 1.933 3.385 3.891 6.756c1.303 2.231 2.517 4.574 3.976 6.706a.099.099 0 0 0 .17-.1m10.859 1.997c-4.538-7.42-9.272-14.726-13.92-22.077-.016-.026-.058-.002-.041.024 4.578 7.393 9.078 14.843 13.767 22.167a.113.113 0 0 0 .194-.114m4.93.944.007-.002-.012-.026-.001-.004-.005-.008a25 25 0 0 0-1.506-2.78 208 208 0 0 0-1.596-2.737q-1.716-2.88-3.495-5.721a268 268 0 0 0-7.348-11.075c-.029-.041-.097-.002-.068.04q3.645 5.477 7.074 11.093 1.722 2.805 3.382 5.646.8 1.368 1.595 2.738a30 30 0 0 0 1.744 2.934.127.127 0 0 0 .229-.098m3.73-1.497c-.035-.049-.116-.004-.082.048a9.7 9.7 0 0 1 .887 1.753 234 234 0 0 0-13.248-20.945c-.02-.03-.069-.002-.048.028q3.671 5.415 7.094 10.993c2.282 3.722 4.435 7.51 6.633 11.281a.14.14 0 0 0 .254-.107 9.9 9.9 0 0 0-1.49-3.051m10.614 4.147c-.824-1.674-1.86-3.269-2.829-4.862q-1.43-2.351-2.908-4.673a237 237 0 0 0-6.212-9.24c-.018-.024-.059 0-.042.025q3.102 4.616 6.034 9.344 1.454 2.335 2.862 4.7c.803 1.35 1.571 2.735 2.404 4.072-.012.016-.025.035-.01.055q.244.351.477.71a.13.13 0 0 0 .223-.13m14.279 1.817c-.084.02-.056.133.019.141-.258-.028-.444-.443-.574-.628l-.458-.656a82 82 0 0 0-.815-1.14l-1.821-2.514q-1.792-2.473-3.57-4.955c-.042-.058-.138-.004-.097.056q2.455 3.587 4.895 7.183c.393.579.785 1.158 1.188 1.73.211.3.418.603.634.9.11.15.229.347.422.403.514.149.552-.608.177-.52m3.252-.146q-.96-1.35-1.924-2.696l-3.995-5.56c-.033-.045-.108-.002-.076.044l3.971 5.702q.977 1.403 1.965 2.799a25 25 0 0 0 1.969 2.685c.04.044.108-.012.081-.063a27 27 0 0 0-1.992-2.91m4.621 1.822q-.828-1.077-1.624-2.178a120 120 0 0 1-3.053-4.397c-.02-.03-.067-.003-.048.028a77 77 0 0 0 2.978 4.535q.766 1.071 1.561 2.12a16.6 16.6 0 0 0 1.689 2.047.044.044 0 0 0 .069-.053 25 25 0 0 0-1.573-2.102m4.48 1.745q-.644-.753-1.264-1.527-1.27-1.586-2.436-3.25c-.052-.075-.176-.004-.124.072q1.118 1.616 2.33 3.162.613.78 1.25 1.54a11 11 0 0 0 1.378 1.503c.033.027.09-.008.063-.048a15 15 0 0 0-1.197-1.452m2.81-.472-1.568-1.954c-.065-.08-.176.034-.113.113l1.53 1.937c.51.644 1.047 1.264 1.579 1.889.023.027.072-.01.05-.039-.487-.653-.968-1.311-1.478-1.946m22.019 4.67c-2.033-1.906-4.14-3.732-6.227-5.581-.042-.037-.104.024-.062.062 2.071 1.866 4.122 3.757 6.244 5.565.03.026.075-.017.045-.046m7.64 1.043c-.855-.764-1.827-1.41-2.738-2.106q-1.517-1.157-2.978-2.384-2.788-2.341-5.363-4.92a.048.048 0 0 0-.067.068q2.575 2.642 5.379 5.045 1.382 1.182 2.816 2.3a22 22 0 0 0 2.903 2.06c.038.02.083-.032.048-.063m4.35-.508c-1.005-1.072-2.17-2.003-3.254-2.997q-1.63-1.496-3.223-3.034a191 191 0 0 1-6.231-6.287c-.014-.015-.036.008-.023.023a158 158 0 0 0 6.225 6.462q1.584 1.546 3.208 3.05a35 35 0 0 0 3.25 2.846c.038.027.078-.031.048-.063m4.262-1.653-.967-.965c-.004-.004-.008.002-.012 0-1.538-1.493-3.15-2.921-4.712-4.384l-5.7-5.338c-.03-.028-.075.017-.046.045l5.65 5.39c1.878 1.793 3.706 3.669 5.659 5.38.087.077.213-.045.129-.129m4.224-1.304a6.6 6.6 0 0 0-.98-.945l-1.041-.99-1.997-1.9q-4.037-3.838-8.087-7.662c-.019-.018-.047.01-.029.028q3.003 2.925 6.015 5.84l2.928 2.83 1.55 1.499c.166.16 1.46 1.308 1.465 1.6a.05.05 0 0 0-.061-.014l-.063.037a.05.05 0 0 0-.026.046c.027.42.718.22.326-.37m3.763-1.321c-.852-.933-1.848-1.758-2.772-2.62l-2.872-2.68q-2.84-2.632-5.697-5.246c-.019-.018-.047.01-.028.028l5.602 5.342q1.384 1.312 2.777 2.614c.948.892 1.863 1.86 2.877 2.674a.08.08 0 0 0 .113-.112m3.94-2.561a23 23 0 0 0-2.42-2.371q-1.283-1.183-2.577-2.355l-5.095-4.627c-.023-.021-.056.012-.034.033l5.055 4.81q1.228 1.167 2.463 2.327a23 23 0 0 0 2.555 2.252c.044.03.082-.033.053-.069m3.037-2.988a15 15 0 0 0-2.019-1.94c-.746-.684-1.503-1.356-2.26-2.03l-4.473-3.981c-.038-.034-.094.02-.057.056l4.346 4.11c.714.676 1.425 1.353 2.15 2.018a15.3 15.3 0 0 0 2.171 1.909c.084.051.205-.056.142-.142m2.904-2.54-.794-.704q-.795-.704-1.597-1.399l-3.204-2.786c-.054-.047-.133.03-.079.078l3.148 2.843q.764.69 1.533 1.375l.794.703a3.5 3.5 0 0 0 .795.635c.048.021.107-.025.076-.077a3.2 3.2 0 0 0-.672-.668m4.126-.79-.678-.603c-.452-.403-.92-.788-1.381-1.18l-2.77-2.352c-.051-.043-.124.029-.074.073l2.704 2.419c.437.391.869.79 1.315 1.17l.69.59a3.6 3.6 0 0 0 .695.53c.043.021.103-.025.071-.071a3.4 3.4 0 0 0-.572-.576m2.836-2.674q-.527-.53-1.066-1.047-1.08-1.032-2.158-2.068a.048.048 0 0 0-.067.068q1.037 1.076 2.068 2.158.502.525 1.016 1.037a6.7 6.7 0 0 0 1.084.993.064.064 0 0 0 .087-.087 6.5 6.5 0 0 0-.964-1.054m2.418-2.307q-.18-.166-.363-.328-.357-.313-.718-.622l-1.439-1.244c-.03-.027-.075.016-.045.045q.697.644 1.393 1.29.338.314.677.626.181.164.365.324a.94.94 0 0 0 .326.24c.03.01.068-.021.054-.053a.9.9 0 0 0-.25-.278m3.378-.105c-.67-.607-1.383-1.165-2.085-1.735-.028-.022-.067.016-.04.04.689.59 1.368 1.192 2.087 1.745.028.022.065-.026.038-.05m5.543-4.509c-.274-.138-.571-.237-.856-.351l-.884-.354c-.038-.015-.055.047-.017.062l.868.347c.287.115.574.25.87.34.026.007.043-.032.019-.044M95.148 90.257c-2.902-1.012-5.84-1.921-8.766-2.865-.02-.007-.027.024-.008.03 2.916.972 5.823 1.979 8.762 2.881.03.01.041-.036.012-.046m10.039.458c-2.606-.75-5.255-1.354-7.87-2.075q-3.924-1.08-7.783-2.375c-.015-.005-.02.018-.006.023q3.833 1.376 7.735 2.547a68 68 0 0 0 7.895 1.988.056.056 0 0 0 .03-.108m3.473-2.077c-2.522-.495-5.082-.785-7.628-1.13-.02-.002-.03.028-.009.031 2.537.42 5.07.893 7.629 1.161.035.004.043-.055.008-.062m5.555-1.428a.02.02 0 0 0 0 .04c1.042 0 2.084.008 3.125-.004a.016.016 0 0 0 0-.032c-1.041-.012-2.083-.004-3.125-.004m104.3 114.53c-.037-.037-.089.017-.056.056a24 24 0 0 0 2.833 3.025c.035.03.1-.01.068-.053a24 24 0 0 0-2.845-3.029m6.134 6.539q-.384-.445-.789-.872l-.925-.97c-.014-.015-.035.008-.022.023.487.62.97 1.24 1.479 1.843.058.069.113.14.177.202.047.046.106.124.182.09.142-.063-.048-.255-.101-.316m-9.269-6.01c-.027-.024-.065.013-.04.04 1.184 1.203 2.371 2.409 3.67 3.49a.044.044 0 0 0 .061-.061c-1.152-1.236-2.422-2.355-3.69-3.47m70.8 13.968a.036.036 0 0 0-.069.019c.78 2.88 1.48 5.797 2.115 8.712.005.02.034.012.031-.008a65 65 0 0 0-2.077-8.723m2.604 10.76q-.016-.084-.041-.167l-.12-.366q-.117-.36-.23-.722a.008.008 0 0 0-.016.005l.18.735.086.361q.024.09.055.177a.7.7 0 0 0 .066.168.028.028 0 0 0 .052-.015.7.7 0 0 0-.032-.176m-4.147-4.125a.024.024 0 0 0-.045.012 31 31 0 0 0 1.247 4.443.04.04 0 0 0 .077-.021 31 31 0 0 0-1.278-4.434m49.163-62.07a19.7 19.7 0 0 0-2.192-4.14.02.02 0 0 0-.035.02c.677 1.408 1.367 2.823 1.928 4.283q.4 1.05.732 2.127c.23.742.404 1.5.69 2.223.027.065.138.065.134-.018a14.8 14.8 0 0 0-1.257-4.494m-1.319 3.519a48 48 0 0 0-2.096-5.28c-.011-.024-.053-.006-.044.02.63 1.772 1.16 3.579 1.677 5.387.516 1.804.87 3.685 1.56 5.433.023.059.12.057.117-.016a20.6 20.6 0 0 0-1.214-5.545m-2.142 1.388c-.129-.62-.316-1.225-.488-1.833-.013-.046-.076-.026-.07.019.089.617.16 1.24.292 1.85.132.608.312 1.199.489 1.795.008.03.059.025.055-.007-.08-.612-.153-1.22-.278-1.824m1.334 7.183q-.145-.58-.285-1.162a33 33 0 0 1-.465-2.392c-.01-.061-.118-.047-.11.015.098.806.207 1.609.299 2.415q.065.574.143 1.148a1.9 1.9 0 0 0 .32 1.079.125.125 0 0 0 .193-.025 1.84 1.84 0 0 0-.095-1.078m-2.093.903a52 52 0 0 0-.465-2.633c-.007-.035-.066-.028-.063.008q.136 1.33.274 2.659a19 19 0 0 0 .373 2.578.052.052 0 0 0 .102-.013 14 14 0 0 0-.22-2.6m-2.009 4.018c.003-.027-.04-.033-.047-.007a5 5 0 0 0-.075 1.974c.005.032.055.024.054-.007a13 13 0 0 1 .068-1.96m29.234-65.226a106 106 0 0 1-1.998 13.163q-.278 1.508-.563 3.015a10 10 0 0 0-.246 1.378 2 2 0 0 0 .047.484 2.6 2.6 0 0 1 .015.993 32.7 32.7 0 0 1-1.683 6.023c-.356 1.064-.762 2.107-1.168 3.152a44 44 0 0 1-.714 1.707 2.77 2.77 0 0 0-.392 1.487.194.194 0 0 0 .288.165c.751-.436 1.02-1.503 1.324-2.266a29 29 0 0 0 .99-2.954c.567-2.024.935-4.073 1.298-6.14a8 8 0 0 1 .341-1.474 7.6 7.6 0 0 0 .621-1.514q.268-1.55.524-3.1c.356-2.152.7-4.306.925-6.476a76 76 0 0 0 .455-7.644.032.032 0 0 0-.064 0m-4.794 15.604c-.507 3.326-1.245 6.612-1.901 9.91a.06.06 0 0 0 .115.032 52.4 52.4 0 0 0 1.92-9.924c.007-.075-.122-.093-.134-.018m-31.058-57.668a.044.044 0 0 0-.062.062c2.205 2.31 4.391 4.636 6.727 6.816a.04.04 0 0 0 .057-.057c-2.147-2.366-4.443-4.584-6.722-6.821M256.37 42.765a81 81 0 0 0-8.6.551c-.065.008-.068.11 0 .104 2.861-.244 5.732-.453 8.6-.608a.024.024 0 0 0 0-.047m6.525-.417a4.7 4.7 0 0 0-1.614-.145q-.833.047-1.66.158c-.153.02-.16.262 0 .247q.829-.075 1.66-.07a9.3 9.3 0 0 0 1.614-.082c.058-.01.05-.093 0-.108M201.28 13.195c-5.74.982-11.719 3.48-15.473 8.116a.108.108 0 0 0 .152.153 50.7 50.7 0 0 1 7.152-5.08 29.2 29.2 0 0 1 8.184-3.136c.036-.007.02-.06-.014-.053m-11.741 1.932a22 22 0 0 0-4.543 2.777c-.042.035.013.105.058.075a51 51 0 0 1 4.553-2.735c.078-.04.01-.154-.069-.117"/></svg>