<svg xmlns="http://www.w3.org/2000/svg" data-name="zero" viewBox="0 0 385.879 305.888"><path fill="currentColor" d="M385.794 186.802a30.4 30.4 0 0 0-5.473-2.39c-1.923-.53-3.918-.834-5.883-1.169a121 121 0 0 1-12.01-2.385 53.8 53.8 0 0 1-11.183-4.496 18.7 18.7 0 0 1-4.595-3.183c-1.345-1.372-2.334-3.046-3.677-4.42a17.3 17.3 0 0 0-4.873-3.381 23.5 23.5 0 0 0-2.847-1.128 6.3 6.3 0 0 0-1.44-.282 48 48 0 0 0-3.734-3.943c-4.59-4.37-9.376-8.452-13.565-13.23-8.658-9.875-15.316-21.3-21.363-32.903-6.109-11.72-11.638-23.742-18.117-35.268-7.021-12.492-15.719-23.817-23.777-35.631a163 163 0 0 1-11.271-18.805c-2.732-5.464-5.264-11.154-9.318-15.801A24.6 24.6 0 0 0 216.251.2c-6.666-.689-13.376.53-19.932 1.609a494.6 494.6 0 0 1-96.233 6.27q-5.939-.191-11.872-.527a58.5 58.5 0 0 0-11.629.046c-5.995.862-11.043 4.135-15.003 8.621-3.987 4.516-6.892 9.878-9.618 15.213-3.68 7.201-7.425 14.375-10.962 21.648q-1.804 3.708-3.58 7.43l-1.01 1.582-9.718 15.22c-2.831 4.434-6.324 8.896-7.3 14.185a50 50 0 0 0-.562 8.174l-.151 8.538c-.107 5.98-.356 11.997-.12 17.974.006.132.007.263.012.394a9.6 9.6 0 0 0-1.435 1.954 47 47 0 0 1-1.564 2.878c-1.114 1.917-2.277 3.816-3.22 5.827a18.25 18.25 0 0 0-1.346 12.706c.038.136.092.268.133.403-.001.249.02.495.04.741a6.3 6.3 0 0 0-1.878.591 14 14 0 0 0-2.235 1.144 15.16 15.16 0 0 0-6.16 7.89 11.4 11.4 0 0 0-.54 2.438 10 10 0 0 0-.044 1.237l.01.56H.33c-.005-.03-.033-.056-.066-.03a.63.63 0 0 0-.252.353.477.477 0 0 0 .328.577c.015.004.028.002.043.005a7.6 7.6 0 0 0 .03 2.606c.5 2.917 2.216 5.553 3.716 8.045a95.8 95.8 0 0 0 13.117 17.633l.018.14c.46 4.11 1.075 8.207 1.668 12.3.332 2.292.65 4.58 1.136 6.847.415 1.94.965 3.847 1.415 5.781a85 85 0 0 0-.187 1.842 27.9 27.9 0 0 0 .948 11.466 13.38 13.38 0 0 0 6.955 8.244 41.4 41.4 0 0 0 6.277 1.985q3.21.88 6.378 1.908a240 240 0 0 1 24.721 9.792c8.16 3.675 16.218 7.57 24.382 11.235 4.069 1.827 8.163 3.597 12.303 5.256 2.06.825 4.118 1.657 6.243 2.3 1.061.322 2.105.687 3.18.966 1.073.279 2.163.494 3.24.76l.293.066a110 110 0 0 0 3.355 2.065c4.905 2.876 9.971 5.73 15.503 7.206a25 25 0 0 0 8.16.892 28.8 28.8 0 0 0 8.096-2.069 28.7 28.7 0 0 1 8.253-1.99 67 67 0 0 1 8.85.216 216 216 0 0 0 34.401-.461 218.4 218.4 0 0 0 33.687-5.846q3.653-.934 7.261-2.017a.44.44 0 0 0 .282.107c1.978.053 3.943.219 5.921.267 1.898.047 3.796.058 5.693.124 3.848.134 7.694.303 11.514.816a62 62 0 0 1 11.247 2.56c3.593 1.192 7.069 2.697 10.526 4.232 14.344 6.37 28.976 11.961 43.81 17.083 4.18 1.444 8.357 2.966 12.596 4.23s8.55 2.276 12.817 3.44c.248.068.334-.287.104-.376-3.697-1.435-7.347-2.98-11.056-4.382-3.694-1.396-7.456-2.605-11.192-3.883-7.466-2.554-14.904-5.19-22.28-7.993-7.36-2.797-14.653-5.766-21.848-8.965-3.443-1.53-6.884-3.08-10.415-4.4-2-2.17-4.178-4.198-6.305-6.24-2.182-2.094-4.368-4.18-6.618-6.2l.116-.054c1.282-.63 2.543-1.299 3.808-1.961.146-.077.044-.334-.114-.272a322 322 0 0 1-32.087 10.829 214.4 214.4 0 0 1-67.243 7.642c-5.687-.26-11.518-1.137-17.16 0a72 72 0 0 0-7.944 2.608 20.2 20.2 0 0 1-8.247.92c-5.593-.532-10.81-3.107-15.662-5.776q-7.953-4.375-15.966-8.634c-1.401-.74-2.83-1.379-4.29-1.996a.05.05 0 0 0-.05.087c2.511 1.916 5.17 3.572 7.848 5.244l.262.166c-1.61-.676-3.23-1.336-4.858-1.961-4.106-1.575-8.162-3.276-12.186-5.05-8.054-3.547-15.985-7.366-23.987-11.029-7.985-3.655-16.053-7.165-24.343-10.077-4.15-1.458-8.352-2.715-12.599-3.857l-.356-.098a3.6 3.6 0 0 0 .772-1.15 77 77 0 0 0 2-5.115.025.025 0 0 0-.046-.02c-.679 1.28-1.307 2.598-1.93 3.905a5.2 5.2 0 0 1-1.564 2.162q-.436-.127-.866-.268a39 39 0 0 1 1.35-4.69 7 7 0 0 1 .363-1.087 5 5 0 0 1 .793-.982 8.2 8.2 0 0 0 1.224-1.909 31.2 31.2 0 0 0 2.733-9.183c.004-.025-.033-.036-.037-.01a24 24 0 0 1-1.293 4.792 19.2 19.2 0 0 1-2.306 4.5c-.497.67-1.15 1.19-1.66 1.843a4.9 4.9 0 0 0-.806 2.018c-.33 1.507-.523 3.035-.855 4.54a12.3 12.3 0 0 1-3.246-1.644c-.2-.148-.38-.318-.567-.481l.036-.26c.06-.43.193-.85.293-1.27a8.8 8.8 0 0 0-.008-3.04 14.7 14.7 0 0 1 .822-6.374 24.16 24.16 0 0 1 7.507-10.195c.04-.032-.016-.085-.055-.055a25 25 0 0 0-6.87 7.763 19.1 19.1 0 0 0-1.82 5.095 18 18 0 0 0-.344 2.565c-.052.915.067 1.827.023 2.74a14 14 0 0 1-.43 2.196 12 12 0 0 1-1.7-2.457 22.04 22.04 0 0 1-2.03-10.21c0-2.333.005-4.671.054-7.003a43 43 0 0 0-.285-6.826 12 12 0 0 0-.888-3.177c-.044-.102-.221-.052-.211.057a51 51 0 0 1 .3 6.986 41 41 0 0 1-.154 2.131 65 65 0 0 0-.53-6.551q-.786-5.281-1.604-10.556c-.54-3.48-1.084-6.967-1.707-10.432a30 30 0 0 0-1.25-4.998 35 35 0 0 0-2-4.292c-1.57-2.985-3.413-5.829-5.214-8.676-.931-1.473-1.836-2.978-2.84-4.401a8 8 0 0 0-2.944-2.993 2.37 2.37 0 0 0-1.846-.097c.05-.251.095-.503.156-.752a13.2 13.2 0 0 1 2.102-4.538 13.5 13.5 0 0 1 3.526-3.395 12.6 12.6 0 0 1 2.15-1.157c.444-.183 1.113-.292 1.637-.528a11.9 11.9 0 0 0 2.863 5.035c2.69 2.88 6.766 4.322 10.539 5.07a37.2 37.2 0 0 0 13.111.364 26.8 26.8 0 0 0 6.121-1.775c.557.135 1.11.327 1.653.509a21 21 0 0 1 3.284 1.409 26.2 26.2 0 0 1 5.868 4.428c1.832 1.79 3.508 3.732 5.19 5.661 1.726 1.98 3.518 3.92 5.164 5.967a14.1 14.1 0 0 1 2.102 3.348 15 15 0 0 0 .768 1.76 2.8 2.8 0 0 1 .331 1.035c-.485.049-.97.1-1.46.193a16 16 0 0 0-1.608.396 8 8 0 0 0 .398-1.177 11 11 0 0 0 .223-1.115c.054-.37.055-.74.082-1.111.002-.024-.038-.03-.042-.006-.058.358-.168.706-.255 1.058a18 18 0 0 1-.31 1.09c-.143.456-.3.908-.448 1.362a24 24 0 0 0-3.037 1.224 50 50 0 0 0 1.964-7.967c.006-.03-.038-.043-.045-.013-.625 2.713-1.48 5.37-2.12 8.079q-1.151.557-2.276 1.174c-.494.269-.968.561-1.44.856a86.6 86.6 0 0 0 3.27-13.002c.007-.04-.051-.056-.06-.017-1.024 4.403-2.384 8.723-3.392 13.127-1.821 1.153-3.515 2.467-5.237 3.784-.038.03-.005.094.04.068 2.113-1.228 4.285-2.362 6.46-3.478a27.3 27.3 0 0 1 6.838-2.407 16.8 16.8 0 0 1 7.148.043 56 56 0 0 1 7.442 2.58 241 241 0 0 0 30.526 9.345c2.916.685 5.854 1.286 8.817 1.726a22.8 22.8 0 0 0 8.794-.146.15.15 0 0 0-.04-.292 36.5 36.5 0 0 1-8.084-1.092l-.07-.017a27.7 27.7 0 0 0 5.075-1.677 26 26 0 0 0 8.774-6.552c2.667-2.99 4.272-6.819 7.166-9.612 1.54-1.486 3.31-2.72 4.972-4.06q2.432-1.96 4.75-4.058a66 66 0 0 0 5.08-5.035c1.546-1.742 2.972-3.572 4.371-5.431.035-.046-.042-.105-.08-.062a102 102 0 0 1-8.803 8.727 73 73 0 0 1-4.826 3.944c-1.673 1.248-3.448 2.354-5.1 3.632a21.6 21.6 0 0 0-4.171 4.32 29.8 29.8 0 0 0 1.434-6.695c.477-4.014 1.056-7.927 3.073-11.497a54.5 54.5 0 0 1 7.2-9.19 49 49 0 0 0 7.182-9.744 46 46 0 0 1 3.491-6.033 61 61 0 0 1 4.41-5.113c1.482-1.61 2.929-3.244 4.25-4.992 1.227-1.624 2.359-3.315 3.494-5.004 2.248-3.344 4.505-6.743 7.547-9.432a38.6 38.6 0 0 1 5.437-3.7 20 20 0 0 0 4.591-3.779 22.2 22.2 0 0 0 4.7-9.703 30.3 30.3 0 0 0 .526-11.087c-.121-.865-.312-1.727-.46-2.588-.005-.026-.05-.02-.047.006a39 39 0 0 1 .077 5.569 37 37 0 0 1-.575 5.65 22.85 22.85 0 0 1-4.249 9.83c-.266.348-.55.684-.844 1.009.056-.257-.486-.349-.637-.393q-.528-.156-1.061-.298a20 20 0 0 1-2.132-.659c-.032-.013-.056.042-.024.057.654.303 1.296.63 1.961.908a11 11 0 0 0 1.073.39c.137.04.526.197.717.102a16.6 16.6 0 0 1-2.638 2.323c-.568-.16-1.14-.308-1.703-.489-.684-.22-1.364-.454-2.045-.683-1.385-.465-2.768-.939-4.155-1.401-.03-.01-.053.04-.022.053a50 50 0 0 0 4.04 1.548c1.199.404 2.42.797 3.64 1.151l-.064.047c-.969.647-1.987 1.212-2.998 1.788-.232-.103-.47-.194-.71-.292-.502-.205-1.01-.397-1.517-.593-1.013-.393-2.023-.792-3.045-1.158-.02-.007-.035.027-.015.036.984.457 1.983.882 2.98 1.313.472.205.944.414 1.42.611q.303.127.605.25a23.5 23.5 0 0 0-6.447 5.176 16 16 0 0 0-.023-2.39 23.2 23.2 0 0 0-1.226-5.946 24.4 24.4 0 0 0-2.717-5.366 21.5 21.5 0 0 0-1.765-2.347 19 19 0 0 0-2.391-2.163.07.07 0 0 0-.1.1c.634.744 1.179 1.587 1.743 2.388.54.767 1.061 1.549 1.528 2.364a23 23 0 0 1 1.6 3.488 18 18 0 0 0-1.642-1.022c-1.31-.71-2.71-1.276-4.063-1.895-2.763-1.265-5.519-2.547-8.29-3.793a23.4 23.4 0 0 0-8.217-2.33c-2.637-.16-5.267.082-7.865-.511-4.01-.916-7.994-3.226-9.87-7.021-1.165-2.359-1.076-4.986-.834-7.54a69 69 0 0 1 1.333-8.334 76 76 0 0 1 2.596-9.06 116 116 0 0 1 1.712-4.44c.61-1.513 1.195-3.079 1.916-4.54.055-.111-.105-.208-.169-.098-.72 1.249-1.48 2.453-2.158 3.73a49 49 0 0 0-1.853 3.957 77 77 0 0 0-2.929 8.204 78 78 0 0 0-1.961 8.398 30.5 30.5 0 0 0-.589 5.242c-.034.014-.07.023-.104.038-.456.196-.89.439-1.346.634-.912.392-1.79.863-2.715 1.221a24.2 24.2 0 0 1-5.748 1.406 63 63 0 0 1-12.51-.047c-4.291-.325-8.899-.732-12.505-3.325a19 19 0 0 1-4.482-4.927c-1.425-2.094-2.797-4.225-4.167-6.354-1.612-2.503-3.147-5.056-4.687-7.604-1.541-2.55-3.213-5.016-4.768-7.556a.043.043 0 0 0-.074.044c1.264 2.473 2.439 4.989 3.805 7.41 1.344 2.38 2.736 4.73 4.106 7.093s2.731 4.733 4.145 7.07a25 25 0 0 0 4.196 5.619 13.4 13.4 0 0 0 2.944 2.027 10.3 10.3 0 0 0-.841 1.485c-.277.703-.58 1.4-.912 2.079a17.5 17.5 0 0 1-2.588 3.898 17.2 17.2 0 0 1-3.53 3.068 29.3 29.3 0 0 1-4.506 2.187 12 12 0 0 0-4.19 2.72c-.013-.001-.028 0-.034.013l-.014.033-.049.046a23.6 23.6 0 0 0-2.74 4.197 14.5 14.5 0 0 1-2.85 3.724 13.2 13.2 0 0 1-3.675 2.314 16.6 16.6 0 0 1-7.125 1.157c-.74-.47-1.526-.885-2.313-1.322a273 273 0 0 1-6.251-3.607c-4.069-2.4-8.1-4.9-12.271-7.118-1.029-.547-2.072-1.052-3.082-1.632a.078.078 0 0 0-.08.135c1.895 1.203 3.694 2.548 5.595 3.745q2.845 1.79 5.705 3.556c3.778 2.336 7.647 4.588 11.293 7.128a7.55 7.55 0 0 1 3.181 3.81 12.1 12.1 0 0 1 .368 4.856 38.5 38.5 0 0 1-.996 5.31 69 69 0 0 1-1.635 5.77 44.9 44.9 0 0 1-7.129 13.61c-.021-.017-.036-.039-.07-.045a19 19 0 0 0-2.66-.152c-.953-.039-1.9-.058-2.854-.061-1.866-.008-3.717-.306-5.578-.44-3.754-.27-7.506-.545-11.261-.796-.024-.002-.03.038-.006.042 3.666.52 7.326.908 11.019 1.18 1.858.136 3.728.066 5.578.27.91.099 1.815.191 2.73.243a22 22 0 0 0 2.805.116 35 35 0 0 1-2.861 3.162c-.438-.005-.876.012-1.313.014-.456.002-.892-.082-1.345-.1-.448-.018-.892.09-1.344.096a49 49 0 0 1-1.344-.005c-1.83-.028-3.663-.1-5.492-.204a97 97 0 0 1-11.135-1.327c-.022-.004-.031.029-.009.033 3.606.724 7.242 1.24 10.9 1.604q2.802.278 5.614.365l1.344.04c.45.015.898.124 1.344.124.487 0 .976-.127 1.467-.14.262-.008.526-.012.789-.02-.387.358-.762.728-1.168 1.069q-.96.805-1.991 1.528a15 15 0 0 0-1.55.142c-.51.046-1.021.08-1.533.114a29 29 0 0 1-3.131.116c-.018 0-.017.026 0 .028a27 27 0 0 0 3.192.31 19 19 0 0 0 1.595-.06l.515-.04a26.3 26.3 0 0 1-6.126 2.949 30.6 30.6 0 0 1-12.212 1.176 26.3 26.3 0 0 1-10.853-2.998 14.2 14.2 0 0 1-3.506-2.842l-.026-.056a11 11 0 0 0-.27-.562 7.5 7.5 0 0 1-.35-.985c-.012-.044-.076-.025-.068.019.016.081.019.17.032.252-.202-.365-.404-.73-.576-1.108a18 18 0 0 1-1.045-2.916 17.5 17.5 0 0 1-.493-6.184c.43-4.24 2.826-7.8 4.93-11.376a54 54 0 0 0 1.598-2.885c.038 1.616.079 3.231.164 4.848a.364.364 0 0 0 .726 0c1.014-11.499 1.033-23.064 1.24-34.6a49.4 49.4 0 0 1 .5-8.1 21.4 21.4 0 0 1 3.025-7.3c2.968-4.855 6.118-9.607 9.181-14.402l18.71-29.295c4.466-6.978 9.84-15.087 17.994-18.05 4.83-1.754 9.563-.714 14.49-.05 5.732.773 11.359-.13 17.04-.878q16.955-2.23 34.076-2.79 17.206-.563 34.41.571c5.742.378 11.479.882 17.233 1.053 2.834.084 5.672.09 8.505-.042 2.493-.115 4.96-.524 7.447-.723 2.486-.2 5.051-.196 7.546-.187a33.8 33.8 0 0 1 7.406.74 21.06 21.06 0 0 1 10.896 6.324c5.46 5.892 8.152 13.765 13.032 20.09a52 52 0 0 0 3.98 4.333c.232.239.596-.126.365-.365a28.7 28.7 0 0 1-3.686-5.263c-1.052-1.764-2.035-3.575-3.025-5.374-.994-1.808-1.841-3.693-2.853-5.496-1.017-1.811-2.072-3.604-3.25-5.315a27.6 27.6 0 0 0-8.243-8.194c-4.172-2.52-9.046-3.355-13.856-3.43a62 62 0 0 0-7.536.467c-.926.098-1.854.154-2.783.199-.488-.334-1.002-.638-1.484-.954-.912-.599-1.805-1.224-2.704-1.842a49 49 0 0 0-5.536-3.5.033.033 0 0 0-.034.058c1.787 1.197 3.672 2.238 5.458 3.438a37 37 0 0 1 2.712 1.98c.33.27.653.561.979.85-1.413.058-2.827.09-4.24.16-.35-.193-.706-.375-1.05-.58-.885-.527-1.746-1.106-2.604-1.676a70 70 0 0 0-5.246-3.187.023.023 0 0 0-.023.04c1.73 1.097 3.491 2.13 5.237 3.2.879.54 1.757 1.1 2.58 1.719.213.16.415.33.617.502q-2.438.114-4.877.103c-.666-.375-1.33-.753-1.999-1.124l-4.2-2.33a.02.02 0 0 0-.02.033q2.1 1.247 4.2 2.497c.498.297 1 .61 1.507.919q-2.437-.019-4.873-.12l-.386-.17c-1.103-.494-2.198-1.007-3.299-1.506-.018-.009-.033.017-.015.027a59 59 0 0 0 3.248 1.63q-3.202-.136-6.4-.35c-11.772-.794-23.507-1.475-35.314-1.353a350 350 0 0 0-35.019 2.121c-5.79.644-11.586 1.762-17.41 2.015a42.5 42.5 0 0 1-8.566-.621 34 34 0 0 0-7.99-.633c-8.893.715-15.418 7.577-20.35 14.398-3 4.15-5.657 8.551-8.412 12.866l-1.808 2.831c1.243-2.294 2.492-4.584 3.715-6.89 3.256-6.14 6.317-12.435 9.936-18.372 3.048-5 6.758-9.924 11.93-12.875 6.587-3.757 14.287-2.656 21.522-2.284a494.7 494.7 0 0 0 93.328-4.072c7.405-1.027 14.774-2.561 22.214-3.299 6.489-.644 13.427-.5 19.186 2.933 5.49 3.273 8.824 8.955 11.65 14.496 3.11 6.1 6.142 12.156 9.817 17.948 7.616 12.006 16.585 23.098 24.012 35.23 6.73 10.993 12.282 22.642 18.056 34.15 5.718 11.397 11.676 22.758 19.225 33.071a107.6 107.6 0 0 0 12.452 14.347c4.415 4.214 9.212 8.062 13.093 12.806a26.7 26.7 0 0 1 4.764 7.995.278.278 0 0 0 .535-.147 23.7 23.7 0 0 0-4.13-9.141q.74.355 1.478.714a16.9 16.9 0 0 1 4.389 2.93 55 55 0 0 1 3.525 4.354 16.4 16.4 0 0 0 4.505 3.544 55.4 55.4 0 0 0 11.076 4.779 90.5 90.5 0 0 0 11.848 2.55c2.204.37 4.398.775 6.592 1.198 2.281.44 4.602.557 6.868 1.058.177.04.308-.217.13-.307m-121.04 78.43q2.284 2.018 4.57 4.034c1.68 1.473 3.3 3.078 5.103 4.401.04.03.083-.033.052-.067a58 58 0 0 0-5.042-4.588 183 183 0 0 0-4.583-3.824q1.847-.833 3.672-1.723c2.1 2.183 4.263 4.3 6.432 6.413 2.032 1.98 4.054 4.003 6.195 5.87a62 62 0 0 0-11.107-2.973c-.334-.057-.67-.095-1.005-.147a30 30 0 0 1-1.635-1.184 89 89 0 0 1-2.302-1.91 30 30 0 0 0-3.77-2.81q1.719-.724 3.42-1.492m-3.499 1.525a42 42 0 0 1 3.977 3.204 29 29 0 0 0 3.22 2.582 84 84 0 0 0-4.74-.56 210 210 0 0 0-2.938-1.832c-1.049-.646-2.106-1.276-3.163-1.908a160 160 0 0 0 3.644-1.486m-3.718 1.514c1.052.673 2.102 1.348 3.162 2.008.905.563 1.81 1.128 2.724 1.68a92 92 0 0 0-4.438-.272 26 26 0 0 0-2.124-1.031q-.676-.291-1.361-.563a15 15 0 0 0-1.407-.514q1.73-.635 3.444-1.308m-3.62 1.374c.004.008-.003.017.004.025q.15.17.299.342c.009.01.023-.003.018-.014l-.114-.237c.4.176.818.324 1.223.487q.757.306 1.504.636c.586.26 1.17.527 1.755.791-.502-.015-1.004-.041-1.505-.048-2.134-.031-4.27.01-6.403.08-1.147.038-2.287.13-3.426.232a174 174 0 0 0 6.646-2.294M2.487 164.329c1.49-.27 2.707 2.141 3.421 3.097 1.193 1.597 2.375 3.196 3.471 4.862 2.126 3.23 4.464 6.578 5.751 10.25a30.3 30.3 0 0 1 1.325 5.673c.231 1.589.451 3.181.649 4.775-2.587-3.532-5.195-7.061-7.632-10.697q-1.982-2.958-3.804-6.02a40 40 0 0 1-3.136-5.862c-.746-1.935-1.205-4.235-.045-6.078m60.472-23.735a65.7 65.7 0 0 0 3.512-12.08c.652-3.337 1.055-7.298-.968-10.27a7 7 0 0 0-.736-.888 12.1 12.1 0 0 0 4.443-.405 14.7 14.7 0 0 0 6.223-3.511q-.394.74-.824 1.467c-1.913 3.211-4.188 6.22-5.53 9.736-2.325 6.097-2.793 12.904-6.05 18.643a22 22 0 0 1-3.946 4.867 47 47 0 0 0 3.876-7.559m-14.182 18.291a34.1 34.1 0 0 0 7.985-7.467 21 21 0 0 0 3.152-1.988 17.3 17.3 0 0 0 3.703-3.966 30.7 30.7 0 0 0 3.849-9.071c.91-3.253 1.598-6.568 2.66-9.777a38 38 0 0 1 1.87-4.647c.898-1.853 2.126-3.53 3.128-5.326a50 50 0 0 0 2.717-5.844c.14-.349.263-.7.39-1.05.487-.84.954-1.692 1.483-2.506a9.16 9.16 0 0 1 3.903-3.39c1.626-.774 3.346-1.326 4.91-2.234a18.6 18.6 0 0 0 3.936-3.066 19.3 19.3 0 0 0 3.358-4.647 13.7 13.7 0 0 0 1.067-2.647 3.7 3.7 0 0 0 .175-1.405l-.042-.38a29.4 29.4 0 0 0 8.986 1.91 71.4 71.4 0 0 0 13.184.262 27 27 0 0 0 7.046-1.54 11.4 11.4 0 0 0 3.123-1.62c.234-.186.47-.375.696-.574a11.6 11.6 0 0 0 .335 1.8c1.225 4.414 5.03 7.518 9.152 9.14a20.3 20.3 0 0 0 6.962 1.34c1.537.039 3.078-.02 4.612.107a16.4 16.4 0 0 1 4.228.99c3.226 1.17 6.32 2.778 9.438 4.204 1.586.726 3.167 1.465 4.76 2.178a19.4 19.4 0 0 0 3.828 1.204c.02.065.044.129.064.194a24.3 24.3 0 0 1 1.02 5.523 18 18 0 0 1-.05 3.032c-.066.629-.132 1.254-.153 1.882a69 69 0 0 0-2.285 3.107 102 102 0 0 1-7.235 9.865c-2.976 3.342-6.18 6.47-8.334 10.441-1.074 1.982-2.015 4.027-3.268 5.908a46 46 0 0 1-3.568 4.583 114 114 0 0 0-7.527 8.957 26 26 0 0 0-2.774 5.002 25.4 25.4 0 0 0-1.54 5.882c-.625 4.06-.718 8.212-1.812 12.19a18 18 0 0 1-.745 2.125q-.42.586-.866 1.158a27.4 27.4 0 0 1-3.763 3.91 38 38 0 0 1-4.312 3.054 31.6 31.6 0 0 1-5.365 2.717 28 28 0 0 1-2.532.854c-1.842-.43-3.682-.874-5.525-1.298q-7.87-1.812-15.608-4.15-7.732-2.335-15.296-5.184a76 76 0 0 0-7.44-2.657 17 17 0 0 0-3.913-.552c-.011-.078-.023-.157-.03-.223a8 8 0 0 0-.2-1.166 2.8 2.8 0 0 0-.452-1.032 7 7 0 0 1-.311-.423c-.08-.12-.174-.198-.25-.314a12 12 0 0 0-1.419-2.627 69 69 0 0 0-5.378-6.434c-3.549-4.061-7.08-8.499-11.921-11.087a17 17 0 0 0-4.033-1.562c-.16-.039-.32-.056-.48-.084a29 29 0 0 0 2.707-1.58"/><path fill="currentColor" d="M210.347 97.915c-.261 5.49-.562 11.011-.439 16.509a.055.055 0 0 0 .11 0c.396-5.484.372-11.013.384-16.51a.027.027 0 0 0-.055 0m-3.097 6.464a.059.059 0 0 0-.117 0c-.014 1.388-.097 2.778-.168 4.164q-.053 1.022-.143 2.04c-.03.34-.07.68-.1 1.02a1.4 1.4 0 0 0-.002.469c.034.13.11.2.157.33a.067.067 0 0 0 .121.016c.07-.111.159-.167.219-.279a1.1 1.1 0 0 0 .082-.38c.04-.363.051-.733.071-1.097q.056-1.02.074-2.04a40 40 0 0 0-.194-4.243m-.124 11.57c-.01-.275-.028-.55-.04-.826a43 43 0 0 0-.12-1.718c-.006-.07-.111-.072-.11 0a15 15 0 0 1-.05 1.686c-.025.279-.064.556-.107.832a1.04 1.04 0 0 0 .058.784.12.12 0 0 0 .184.023 1 1 0 0 0 .185-.78m-2.751-7.652a372 372 0 0 1-.296 5.79c-.11 1.925-.324 3.855-.272 5.784.001.055.09.072.1.013a41 41 0 0 0 .433-5.683c.073-1.968.097-3.934.09-5.904a.027.027 0 0 0-.055 0m-2.417 3.746a150 150 0 0 1-.61 5.211q-.182 1.382-.399 2.759a13 13 0 0 0-.304 2.421.04.04 0 0 0 .076.01 11.5 11.5 0 0 0 .513-2.56q.186-1.263.343-2.53c.219-1.764.362-3.537.475-5.311.003-.061-.089-.06-.094 0m-2.108 2.366a212 212 0 0 1-.697 4.688c-.24 1.51-.538 3.012-.71 4.532-.006.05.072.058.084.012a41 41 0 0 0 .85-4.667c.218-1.515.391-3.033.535-4.557.003-.035-.056-.043-.061-.008m-2.531 5.444-.592 2.517a19 19 0 0 0-.5 2.45c-.005.042.056.045.068.01a19 19 0 0 0 .588-2.468l.518-2.487c.011-.053-.07-.077-.083-.022m-2.243 1.19c-.387 1.96-1.033 3.855-1.415 5.814-.01.049.06.087.086.036a17.4 17.4 0 0 0 1.39-5.841c.004-.035-.054-.043-.061-.009m-2.942 2.403-.43 2.235c-.072.373-.13.75-.192 1.124a6 6 0 0 0-.116 1.067.047.047 0 0 0 .092.013 6.3 6.3 0 0 0 .236-1.112c.055-.356.115-.71.161-1.067l.295-2.254c.004-.026-.04-.032-.046-.006m-2.396 1.874c-.072 1.131-.185 2.27-.195 3.402 0 .031.043.03.047 0 .127-1.126.152-2.27.218-3.402.003-.045-.067-.045-.07 0m-2.356.17c-.268 1.98-.593 3.964-.724 5.958-.003.04.062.049.069.01.337-1.97.484-3.976.686-5.964.001-.018-.029-.022-.031-.004m-2.359.846a58 58 0 0 0-.44 8.344c.003.045.077.061.085.011a58 58 0 0 0 .457-8.355c0-.067-.096-.064-.102 0m-1.829 1.307a.237.237 0 0 0-.429-.056 8.2 8.2 0 0 0-.507 2.835 24 24 0 0 0 .007 2.948 19.4 19.4 0 0 1-.176 2.953 7.5 7.5 0 0 0-.03 2.986.118.118 0 0 0 .226 0 7.6 7.6 0 0 0 .201-2.759 16 16 0 0 1 .182-3.238c.164-.93.37-1.833.455-2.777a9.1 9.1 0 0 0 .07-2.892m-2.979 3.628a39 39 0 0 0-.615 5.51 54 54 0 0 1-.34 3.05c-.061.434-.122.869-.201 1.301a7 7 0 0 0-.249 1.37.294.294 0 0 0 .576.077 7 7 0 0 0 .037-1.398c.007-.44.037-.88.064-1.32.06-.956.15-1.908.258-2.86a42 42 0 0 0 .531-5.721.031.031 0 0 0-.061-.009m-3.247 3.92c-.196 1.784-.335 3.57-.478 5.358a45 45 0 0 0-.335 5.358c.001.042.068.055.077.01a45 45 0 0 0 .449-5.263c.122-1.82.25-3.639.318-5.463.001-.02-.029-.02-.03 0m-2.368 3.401a50.8 50.8 0 0 0-.578 12.26c.003.036.059.037.058 0a87 87 0 0 1 .589-12.25c.005-.04-.063-.049-.07-.01m-2.135 3.235q-.32 5.614-.375 11.233a.023.023 0 0 0 .047 0q.326-5.614.371-11.233a.021.021 0 0 0-.043 0m-2.06 4.237a27 27 0 0 0-.602 6.828.023.023 0 0 0 .047 0 44 44 0 0 1 .593-6.818c.004-.024-.033-.035-.038-.01m-2.951 5.471-.156 1.363c-.002.015.022.014.023 0l.168-1.363c.002-.023-.033-.022-.035 0m4.043 18.208c-.211 4.085-.41 8.167-.503 12.256 0 .033.05.033.05 0 .232-4.083.36-8.168.473-12.256 0-.013-.019-.013-.02 0m-2.014 1.703c-.409 6.247-.937 12.48-1.398 18.723-.003.037.06.046.065.009a161 161 0 0 0 1.356-18.732c0-.015-.022-.015-.023 0m-2.235 3.574c-.314 6.044-.972 12.041-1.64 18.053-.004.035.055.043.061.009a130 130 0 0 0 1.634-18.062c.001-.035-.053-.034-.055 0m-2.37 6.809a93 93 0 0 1-.35 5.978c-.177 1.984-.526 3.958-.66 5.943a.037.037 0 0 0 .074.01 37 37 0 0 0 .757-5.836c.162-2.027.232-4.062.241-6.095a.031.031 0 0 0-.062 0m-2.033 5.277a57 57 0 0 1-.56 5.777c-.002.02.026.029.03.008a29.3 29.3 0 0 0 .56-5.785.016.016 0 0 0-.03 0M42.5 159.495a52.4 52.4 0 0 1-14.806-1.677.01.01 0 0 0-.005.02 42.3 42.3 0 0 0 14.81 1.716c.037-.003.038-.06 0-.059m-1.871-2.758a86.6 86.6 0 0 1-12.614-1.369c-.02-.004-.028.026-.009.03a82 82 0 0 0 12.623 1.792c.29.016.291-.44 0-.453m16.205-10.843a5.3 5.3 0 0 0-2.204.13c-.8.084-1.606.173-2.41.23-1.607.114-3.22-.029-4.829-.006a60 60 0 0 1-9.845-.72c-.03-.004-.042.04-.012.045a83 83 0 0 0 9.736 1.122c1.659.1 3.294-.084 4.95-.123.805-.02 1.607-.034 2.41-.086a4.8 4.8 0 0 0 2.24-.313.155.155 0 0 0-.036-.279m1.15-3.821c-1.471.013-2.956.24-4.42.387a43 43 0 0 1-4.429.181 268 268 0 0 1-8.857-.205c-.048-.002-.046.069 0 .074a70 70 0 0 0 8.98.326c1.477-.037 2.953-.09 4.43-.096a25.7 25.7 0 0 0 4.35-.264c.231-.041.173-.405-.054-.403m2.437-3.953a7.4 7.4 0 0 0-1.906-.032c-.706.024-1.403.11-2.106.164-1.438.11-2.896.069-4.337.104q-4.277.106-8.547.31a.022.022 0 0 0 0 .042q4.274-.069 8.547-.161c1.401-.03 2.812-.119 4.213-.082.702.02 1.402.087 2.106.091a8 8 0 0 0 2.03-.093.18.18 0 0 0 0-.343m.664-3.74a3.25 3.25 0 0 0-1.353-.078q-.572.023-1.142.096a19.4 19.4 0 0 1-3.043.124 42 42 0 0 0-5.726.195.02.02 0 0 0 0 .039 43 43 0 0 0 5.836-.062 18 18 0 0 1 2.864-.006 14 14 0 0 0 1.431.05 2.7 2.7 0 0 0 1.16-.144c.103-.047.055-.181-.027-.214m-.671-3.41q-.561.038-1.121.081l-2.082.166a93 93 0 0 0-4.325.417c-.026.003-.028.043 0 .043 1.443-.01 2.884-.08 4.325-.156l2.082-.11q.56-.032 1.12-.068c.26-.017.512.03.691-.18a.07.07 0 0 0 0-.099c-.207-.185-.422-.112-.69-.094m.127-3.326a45 45 0 0 0-4.765.354c-.034.004-.036.057 0 .055a46 46 0 0 0 4.77-.363c.027-.004.02-.046-.005-.046m1.215-2.222a.4.4 0 0 0-.226-.023q-.106.003-.212.013-.106.017-.213.027c-.074.007-.148.008-.221.012a.037.037 0 0 0 0 .074c.073.004.147.005.22.012.072.006.143.018.214.027.07.009.142.01.212.014a.4.4 0 0 0 .226-.024.077.077 0 0 0 0-.132m.821-3.523a.2.2 0 0 0-.05.04l-.043.04-.09.084a.03.03 0 0 0 .042.042l.084-.09.04-.043a.2.2 0 0 0 .04-.05.018.018 0 0 0-.023-.023m-3.883-9.725a9 9 0 0 0-.755-.612c-.276-.162-.57-.297-.853-.445-.568-.298-1.136-.594-1.7-.898a105 105 0 0 1-3.14-1.768q-3.215-1.878-6.348-3.89c-.013-.008-.024.012-.012.02q3.139 2.117 6.36 4.107c1.056.652 2.117 1.297 3.176 1.944q.82.501 1.644.996a5 5 0 0 0 .834.476c.24.087.493.121.734.213.09.034.125-.095.06-.143m4.762 2.759c-.043-.05-.023-.133-.074-.19a.8.8 0 0 0-.203-.133c-.131-.073-.27-.134-.405-.2l-.872-.424c-.58-.282-1.147-.59-1.714-.897a.012.012 0 0 0-.012.02c.547.341 1.095.681 1.627 1.046l.8.548c.123.085.245.175.374.254a.8.8 0 0 0 .216.11c.075.016.137-.042.202-.03a.063.063 0 0 0 .061-.104m2.67-1.239a77 77 0 0 1-1.835-.83q-1.767-.832-3.508-1.716-3.483-1.768-6.873-3.707a.014.014 0 0 0-.014.023c2.086 1.273 4.203 2.5 6.361 3.646q1.567.832 3.155 1.62c.565.281 1.133.555 1.699.834q.422.21.848.416.212.104.426.203a.42.42 0 0 0 .282.085c-.003.005-.011.004-.012.01l-.011.047a.09.09 0 0 0 .039.096.185.185 0 0 0 .233.005.14.14 0 0 0 .062-.153c-.062-.362-.558-.45-.852-.579m3.844-1.444a20 20 0 0 0-2.709-1.169c-.954-.4-1.9-.819-2.84-1.248q-2.759-1.256-5.434-2.682c-.025-.013-.046.023-.022.037a94 94 0 0 0 5.45 2.86q1.362.658 2.749 1.265a14.4 14.4 0 0 0 2.746 1.08.078.078 0 0 0 .06-.144m1.844-1.432a5 5 0 0 0-1.447-.641q-.841-.319-1.689-.621-1.694-.607-3.382-1.23c-.021-.009-.03.025-.009.033q1.645.667 3.282 1.354.803.336 1.612.66a5.3 5.3 0 0 0 1.593.542.057.057 0 0 0 .04-.097m1.683-2.043a19 19 0 0 0-2.917-.976c-.05-.014-.067.057-.021.075a19 19 0 0 0 2.915.955c.03.006.055-.039.023-.054m2.218-1.176a2.75 2.75 0 0 0-1.103-.702 6 6 0 0 0-1.299-.222c-.065-.006-.08.104-.015.115a5.3 5.3 0 0 1 1.206.415c.384.17.776.316 1.165.473.046.018.076-.048.046-.079m4.421-4.782a20 20 0 0 0-2.158-.794 53.5 53.5 0 0 1-6.72-2.902c-.026-.013-.05.026-.023.041a43 43 0 0 0 4.378 2.178c.71.3 1.426.588 2.15.85a11.7 11.7 0 0 0 2.346.692c.036.005.067-.045.027-.065m4.469-1.744a2.5 2.5 0 0 0-1.329-.489c-.518-.127-1.036-.253-1.55-.398a43 43 0 0 1-3.358-1.118 62 62 0 0 1-6.56-2.912c-.02-.01-.037.02-.017.03a53 53 0 0 0 6.312 2.988c1.1.434 2.214.83 3.332 1.21.577.198 1.153.4 1.735.583a2.36 2.36 0 0 0 1.4.24.08.08 0 0 0 .035-.134m2.534-1.861a21 21 0 0 0-3.162-1.05 92 92 0 0 1-3.457-1.19 94 94 0 0 1-6.834-2.872c-.035-.017-.067.035-.031.054a74 74 0 0 0 6.58 2.968c1.135.449 2.277.884 3.432 1.278a15 15 0 0 0 3.424.99.096.096 0 0 0 .048-.178m2.124-2.887a3.8 3.8 0 0 0-1.67-.583c-.695-.191-1.394-.357-2.092-.534a29 29 0 0 1-4.256-1.524c-2.641-1.13-5.253-2.375-7.77-3.763a.04.04 0 0 0-.039.068 51.7 51.7 0 0 0 7.75 3.837c1.34.522 2.707.982 4.042 1.52.706.284 1.409.569 2.137.795a3.76 3.76 0 0 0 1.844.39.124.124 0 0 0 .054-.206m-3.529-4.881c-2.545-1.041-5.117-2.016-7.652-3.08-.012-.006-.021.015-.01.02a67 67 0 0 0 7.65 3.101c.027.009.037-.031.012-.041m6.848 2.174a3.3 3.3 0 0 0-.776-.492 6 6 0 0 0-.91-.297c-.633-.157-1.278-.278-1.917-.402-.017-.004-.025.021-.008.026a11.4 11.4 0 0 1 1.809.65c.275.122.551.245.832.356a4 4 0 0 0 .435.153c.161.042.321.062.484.094.046.01.096-.052.051-.088m2.521-3.214a30 30 0 0 0-3.248-.941 155 155 0 0 1-3.251-.926q-3.238-.964-6.455-2c-.027-.008-.037.032-.011.042q3.217 1.24 6.515 2.232c1.08.324 2.163.638 3.25.93a21 21 0 0 0 3.19.728c.041.004.041-.052.01-.065m-2.878-3.747a12 12 0 0 0-2.303-.541q-1.284-.285-2.552-.64a47 47 0 0 1-4.891-1.645c-.02-.008-.035.027-.015.036a40 40 0 0 0 4.757 1.81q1.215.371 2.452.659a8.6 8.6 0 0 0 2.526.416c.045-.004.077-.072.026-.095m-3.94-5.154c-1.076-.318-2.217-.417-3.307-.707a21.6 21.6 0 0 1-3.3-1.149c-.025-.01-.047.025-.022.037a18.4 18.4 0 0 0 3.2 1.327 9.6 9.6 0 0 0 3.418.569.04.04 0 0 0 .01-.077m-3.517-4.325q-.216-.058-.432-.11-.447-.112-.891-.238a24 24 0 0 1-1.777-.582c-.031-.011-.052.038-.023.054a13 13 0 0 0 1.707.747q.45.16.912.28.216.057.435.098a.53.53 0 0 0 .373-.01.055.055 0 0 0 .02-.075.54.54 0 0 0-.324-.164m-1.746-2.895a1 1 0 0 0-.231-.131 4 4 0 0 0-.265-.114 5 5 0 0 0-.56-.18 28 28 0 0 0-1.168-.283c-.03-.007-.055.04-.023.054.36.152.72.302 1.087.439q.275.103.56.183.15.039.299.067a1 1 0 0 0 .274.031c.03-.002.055-.043.027-.066m-2.718-3.258a1.3 1.3 0 0 0-.344-.165c-.13-.05-.26-.102-.393-.146-.265-.086-.534-.157-.802-.23-.027-.008-.047.034-.02.046.25.11.498.225.753.324q.195.073.395.137a1.4 1.4 0 0 0 .385.097c.03 0 .052-.042.026-.063m13.315 10.111a115 115 0 0 1-4.723-6.095c-.016-.023-.053-.002-.037.021a99 99 0 0 0 4.483 6.045 53 53 0 0 0 5.144 5.76.033.033 0 0 0 .047-.047c-1.59-1.934-3.317-3.754-4.914-5.684m8.925 6.536.008-.003a9 9 0 0 0-1.33-1.391c-.466-.477-.91-.976-1.355-1.472q-1.415-1.577-2.781-3.196a175 175 0 0 1-5.381-6.68c-.01-.015-.034-.002-.024.013a117 117 0 0 0 5.101 6.638q1.356 1.63 2.76 3.217c.469.53.947 1.05 1.41 1.583a9 9 0 0 0 1.375 1.513c.147.104.287-.1.217-.222M96.204 74.88c-.024-.032-.075-.005-.054.031 1.257 2.206 2.712 4.28 4.17 6.354.022.03.071.003.051-.03-1.322-2.164-2.645-4.323-4.167-6.355m10.716 13.065.018-.005-.032-.035-.003-.01a5 5 0 0 1-.363-.553.05.05 0 0 0-.089.038l.001.013c-.173-.174-.353-.342-.52-.513a31 31 0 0 0-1.092-1.075c-.737-.688-1.5-1.346-2.221-2.052a.014.014 0 0 0-.02.02c.671.737 1.294 1.514 1.946 2.267q.476.546.975 1.071.263.279.53.554a6 6 0 0 0 .538.546.215.215 0 0 0 .332-.266m3.564-.442a4.7 4.7 0 0 0-1.146-1.224 53 53 0 0 1-1.43-1.34 43 43 0 0 1-2.577-2.807 77 77 0 0 1-4.703-6.229c-.03-.045-.103-.005-.074.043a49.5 49.5 0 0 0 4.549 6.27c.84.999 1.723 1.961 2.604 2.925.441.481.88.965 1.336 1.433a4.2 4.2 0 0 0 1.317 1.09c.095.04.163-.086.124-.16m3.445-.975q-.578-.626-1.15-1.256a64 64 0 0 1-2.15-2.515q-2.142-2.631-4.18-5.352c-.007-.01-.024 0-.017.01a65 65 0 0 0 3.862 5.41c.688.866 1.39 1.72 2.095 2.57q.544.658 1.102 1.303c.315.362.61.83 1.088.975a.083.083 0 0 0 .1-.101 2.4 2.4 0 0 0-.75-1.044m4.091.707a7 7 0 0 0-.78-.62q-.37-.294-.723-.61-.726-.645-1.393-1.35a25 25 0 0 1-2.485-3.089c-.02-.029-.066-.002-.047.028a24.4 24.4 0 0 0 2.405 3.117q.67.736 1.394 1.42.362.34.731.672a4.6 4.6 0 0 0 .753.62.12.12 0 0 0 .144-.188m1.183-1.939c-.427-.396-.863-.783-1.296-1.172-.016-.015-.04.009-.025.025.417.405.832.814 1.255 1.213.424.4.841.807 1.294 1.174a.02.02 0 0 0 .028-.027c-.396-.428-.83-.817-1.256-1.213m4.993-1.567q-.856-.942-1.682-1.91c-1.086-1.27-2.122-2.581-3.179-3.875-.01-.012-.03.004-.021.016.929 1.34 1.953 2.612 3 3.86q.797.946 1.62 1.87a16 16 0 0 0 1.764 1.833c.026.022.076-.007.052-.04a22 22 0 0 0-1.554-1.754m1.997-1.862-1.188-1.533c-.78-1.005-1.574-2-2.361-3-.018-.022-.058.008-.04.03.752.984 1.497 1.972 2.257 2.949l1.154 1.485c.394.507.771 1.043 1.21 1.513a.022.022 0 0 0 .033-.027c-.317-.495-.705-.952-1.065-1.417m-.616-6.087c-.028-.038-.092-.002-.064.038.786 1.138 1.533 2.323 2.413 3.392.019.022.055-.007.04-.031-.712-1.184-1.58-2.28-2.389-3.399m2.404-1.388c-.02-.023-.05.01-.033.033a16 16 0 0 0 1.163 1.386c.018.019.053-.006.037-.028a16 16 0 0 0-1.167-1.39M140 95.752c-.532-.546-1.142-1.024-1.694-1.551a32 32 0 0 1-1.615-1.641 27 27 0 0 1-2.854-3.729.025.025 0 0 0-.044.026 22.4 22.4 0 0 0 2.673 3.845 20 20 0 0 0 1.648 1.691 10.7 10.7 0 0 0 1.836 1.423.041.041 0 0 0 .05-.064m2.958-.41c-.537-.438-1.086-.861-1.612-1.312a18 18 0 0 1-1.445-1.34 20 20 0 0 0-1.396-1.54 33 33 0 0 1-5.442-6.178c-.012-.017-.038-.002-.027.016a41.5 41.5 0 0 0 5.043 6.295 10 10 0 0 0 1.433 1.242 19 19 0 0 1 1.607 1.439c.518.503 1.01 1.031 1.507 1.553.419.438.883 1.068 1.489 1.23a.08.08 0 0 0 .098-.099c-.203-.562-.806-.94-1.255-1.306m3.935.378c-.45-.321-.884-.66-1.317-1.004a52 52 0 0 1-2.431-2.072q-2.343-2.108-4.475-4.434c-.026-.028-.067.013-.041.041q2.141 2.37 4.5 4.527a89 89 0 0 0 2.34 2.045c.405.344.816.68 1.22 1.025a3.1 3.1 0 0 0 1.13.801.067.067 0 0 0 .075-.097 3.15 3.15 0 0 0-1-.832m3.879.137a6.4 6.4 0 0 0-.802-.75q-.412-.363-.82-.731-.84-.756-1.662-1.532-1.62-1.53-3.186-3.116c-.012-.013-.031.006-.02.02q1.535 1.659 3.152 3.237.788.765 1.594 1.513a11 11 0 0 0 1.668 1.458c.065.039.118-.046.076-.099m1.189-2.469q-.176-.166-.355-.327-.368-.334-.737-.666-.732-.65-1.469-1.297c-.024-.021-.06.013-.036.036q.719.685 1.441 1.365.354.329.709.654.187.174.378.343a1.3 1.3 0 0 0 .33.254c.027.011.046-.025.035-.046a1.4 1.4 0 0 0-.296-.316m-.172-2.305a.037.037 0 0 0-.038.064 14 14 0 0 1 2.39 1.847.03.03 0 0 0 .042-.041 7.5 7.5 0 0 0-2.395-1.87m31.305 14.68a31 31 0 0 0-4.266-1.522c-.017-.005-.029.022-.012.029a31 31 0 0 0 4.254 1.55c.033.01.057-.041.024-.057m7.232-1.533a1.8 1.8 0 0 0-.84-.35q-.591-.134-1.178-.283-1.133-.284-2.269-.556c-1.543-.37-3.089-.737-4.653-1.004a.02.02 0 0 0-.01.037c1.523.437 3.064.807 4.596 1.212q1.128.298 2.253.61.585.16 1.162.34a1.86 1.86 0 0 0 .904.125.08.08 0 0 0 .035-.13m-.239-3.451a8 8 0 0 0-1.335-.196 33 33 0 0 1-3.787-.791.012.012 0 0 0-.006.022 22 22 0 0 0 2.556.73q.638.137 1.283.233a4.8 4.8 0 0 0 1.273.12.06.06 0 0 0 .016-.119m.175-3.732a1.3 1.3 0 0 0-.469-.169q-.27-.053-.539-.101a11 11 0 0 0-1.045-.129c-.04-.003-.045.058-.009.07a11 11 0 0 0 1.035.283c.171.035.343.076.516.106a1.3 1.3 0 0 0 .5.022.046.046 0 0 0 .011-.082m.104-3.438a.3.3 0 0 0-.084-.017.4.4 0 0 0-.165.013.46.46 0 0 0-.252.2c-.018.029.026.065.049.037a.4.4 0 0 1 .231-.136.5.5 0 0 1 .13-.014c.022.001.044.007.066.01a.2.2 0 0 0 .074-.002.03.03 0 0 0 .016-.04.15.15 0 0 0-.065-.051M86.308 28.733a13.5 13.5 0 0 0-.765-1.74 4.15 4.15 0 0 0-2.968-1.677c-1.527-.357-3.074-.649-4.616-.929a9.3 9.3 0 0 0-4.325-.08c-.03.009-.027.062.007.057a13.3 13.3 0 0 1 4.346.383c1.399.279 2.798.557 4.19.872a4.5 4.5 0 0 1 1.786.663 7 7 0 0 1 1.26 1.21 28.5 28.5 0 0 1 2.153 3.73c.021.038.073.004.057-.034-.355-.828-.783-1.622-1.125-2.455"/><path fill="currentColor" d="M85.904 33.083a13 13 0 0 0-.575-1.134 18 18 0 0 0-1.369-2.073 14.9 14.9 0 0 0-3.49-3.303c-.022-.015-.05.02-.029.037a18 18 0 0 1 3.403 3.474 15 15 0 0 1 1.248 2.004q.277.54.522 1.095a3 3 0 0 0 .497.979.065.065 0 0 0 .11-.046 2.24 2.24 0 0 0-.317-1.033M204.83 16.778a27 27 0 0 0-2.342-1.455 92 92 0 0 1-2.293-1.452c-1.561-1.03-3.074-2.14-4.673-3.112-.04-.024-.071.035-.035.06 1.49 1.08 3.073 2.03 4.603 3.053a92 92 0 0 1 2.233 1.553 27 27 0 0 0 2.292 1.632c.169.095.38-.151.216-.279m-1.798-4.675a8.4 8.4 0 0 0-1.196-.99 7.6 7.6 0 0 0-1.368-.719c-.015-.006-.024.018-.01.025.443.242.872.514 1.294.794a14 14 0 0 1 1.247.923c.023.02.055-.011.033-.033m45.509 42.19c-.017-.029-.058-.004-.044.025a72 72 0 0 0 4.17 7.877.047.047 0 0 0 .081-.048 72 72 0 0 0-4.207-7.854m2.761 2.2c-.018-.036-.08-.01-.065.027 1.476 3.509 2.854 7.078 4.56 10.484a.047.047 0 0 0 .085-.036 90 90 0 0 0-4.58-10.475m3.531 4.103c-.012-.022-.044-.002-.034.02 1.474 3.18 2.875 6.392 4.363 9.565.015.031.07.009.058-.024a78 78 0 0 0-4.387-9.56m23.636 43.724a64 64 0 0 0-.895-2.012 119 119 0 0 0-1.913-3.847c-1.332-2.59-2.758-5.135-4.213-7.658a376 376 0 0 1-4.258-7.536c-.708-1.296-1.44-2.594-2.026-3.95-.264-.614-.512-1.237-.811-1.833a6.6 6.6 0 0 0-.526-.973 2 2 0 0 0-.162-.162 3.8 3.8 0 0 1-.596-.8 90 90 0 0 1-4.405-10.048c-.01-.025-.051-.014-.042.012a260 260 0 0 0 3.605 8.987 8 8 0 0 1 .773 2.041 4.8 4.8 0 0 0 .78 1.918c.744 1.234 1.52 2.445 2.248 3.69 2.946 5.038 6.139 9.936 8.804 15.136a66 66 0 0 1 2.142 4.56q.49 1.167.941 2.35a4.56 4.56 0 0 0 .925 1.953.077.077 0 0 0 .13-.054 3.23 3.23 0 0 0-.5-1.774m54.516 66.725a.023.023 0 0 0-.04.024 97 97 0 0 1 4.718 10.976.043.043 0 0 0 .083-.023 42 42 0 0 0-4.761-10.977m-.096 3.972a.012.012 0 0 0-.022.006 94 94 0 0 0 3.1 9.518c.013.032.063.02.053-.014-.949-3.198-2.09-6.341-3.13-9.51M144.643 282.343c-1.718-.409-3.49-.595-5.225-.922a108 108 0 0 1-5.198-1.12.022.022 0 0 0-.011.042q2.6.76 5.251 1.302a30 30 0 0 0 5.173.767.035.035 0 0 0 .01-.07m4.58-1.512c-1.991-.221-3.996-.281-5.987-.511a59 59 0 0 1-6.123-1.027.033.033 0 0 0-.017.064 50 50 0 0 0 6.099 1.263 28 28 0 0 0 6.028.333.06.06 0 0 0 0-.121m6.127-2.055c-1.29-.08-2.583.008-3.873.025a63 63 0 0 1-3.876-.074 67 67 0 0 1-7.92-.843c-.022-.004-.032.029-.01.034a49.6 49.6 0 0 0 7.81 1.195 28.2 28.2 0 0 0 7.885-.218c.07-.015.049-.115-.016-.119m5.1-2.416c-1.37.016-2.731.21-4.097.307-1.41.1-2.823.165-4.237.179a65 65 0 0 1-8.335-.43c-.022-.003-.027.034-.006.038a62 62 0 0 0 8.341.667 57 57 0 0 0 4.237-.115 22.3 22.3 0 0 0 4.113-.532.059.059 0 0 0-.016-.115m-4.585-1.751a67 67 0 0 1-7.66-.08c-.048-.005-.046.068 0 .074a27.8 27.8 0 0 0 7.669.067c.035-.005.026-.062-.009-.06m8.024-.845a4.6 4.6 0 0 0-1.423.01q-.725.071-1.445.187a109 109 0 0 1-3.117.458c-.012.002-.012.02 0 .02 1.033-.072 2.066-.124 3.1-.166q.762-.03 1.521-.108a4.6 4.6 0 0 0 1.38-.272.071.071 0 0 0-.016-.129m2.854-3.344c-.959.093-1.908.357-2.856.529q-1.65.298-3.313.506a66 66 0 0 1-6.246.504.023.023 0 0 0 0 .047 60 60 0 0 0 6.366-.407q1.446-.177 2.883-.42a18.6 18.6 0 0 0 3.177-.682c.038-.014.036-.082-.01-.077m-.668-1.95a16 16 0 0 1-3.406.482.031.031 0 0 0 0 .063 10.8 10.8 0 0 0 3.418-.499.023.023 0 0 0-.012-.045m3.744-2.556c-.378.084-.752.173-1.122.284s-.732.25-1.098.374a.027.027 0 0 0 .015.053c.374-.094.752-.174 1.123-.282a16 16 0 0 0 1.097-.372.03.03 0 0 0-.015-.057m13.948 12.469c-1.56-.458-3.145-.831-4.706-1.291q-2.338-.689-4.63-1.526c-.022-.007-.03.026-.01.034a43.3 43.3 0 0 0 9.331 2.836.027.027 0 0 0 .015-.053m8.348.139c-1.118-.397-2.292-.648-3.436-.958a110 110 0 0 1-3.538-1.03q-3.464-1.064-6.839-2.392c-.019-.007-.026.023-.008.03q3.401 1.433 6.903 2.605a38 38 0 0 0 6.9 1.875c.079.01.084-.107.018-.13m7.134-.956c-2.751-.887-5.58-1.515-8.331-2.413q-4.228-1.38-8.322-3.134c-.02-.01-.039.02-.018.03a86 86 0 0 0 8.06 3.237 48 48 0 0 0 8.592 2.344.033.033 0 0 0 .018-.064m8.184-.235c-1.62-.613-3.336-1.008-4.988-1.53q-2.486-.784-4.927-1.704-4.98-1.877-9.77-4.21c-.015-.007-.03.016-.013.024a83 83 0 0 0 9.503 4.334q2.49.95 5.033 1.755a33 33 0 0 0 5.15 1.376.023.023 0 0 0 .012-.045m5.658-2.104a29.4 29.4 0 0 0-4.63-1.477 82 82 0 0 1-4.9-1.737c-3.194-1.23-6.397-2.44-9.567-3.735-.016-.007-.028.021-.012.028 3.068 1.34 6.163 2.625 9.32 3.74 1.596.563 3.2 1.101 4.788 1.688a25 25 0 0 0 4.924 1.675c.102.014.187-.127.077-.182m.147-4.428a64.5 64.5 0 0 1-8.175-3.541.016.016 0 0 0-.016.027 34 34 0 0 0 8.176 3.567c.034.01.048-.041.015-.053m8.384 2.364a3.7 3.7 0 0 0-1.31-.57 37 37 0 0 0-1.482-.446c-1.012-.286-2.035-.533-3.045-.823-.063-.018-.088.077-.027.098.978.341 1.94.726 2.917 1.071.469.166.94.331 1.414.48a3.9 3.9 0 0 0 1.48.32c.059-.006.107-.081.053-.13m8.326-2.416a13.6 13.6 0 0 0-3.442-.933 58 58 0 0 1-3.431-.91 92 92 0 0 1-6.924-2.403c-.03-.012-.053.04-.023.054a70 70 0 0 0 6.771 2.54c1.166.372 2.335.733 3.51 1.07a10.5 10.5 0 0 0 3.504.713.07.07 0 0 0 .035-.13m5.579-2.641c-3.704-.852-7.414-1.663-11.073-2.697a.018.018 0 0 0-.009.034 72.6 72.6 0 0 0 11.067 2.716c.034.005.05-.045.015-.053m-.018-3.338a.018.018 0 0 0-.01.033 32.5 32.5 0 0 0 5.308 1.054c.02.002.025-.031.005-.035-1.78-.304-3.552-.602-5.303-1.053m12.617-.229a4.95 4.95 0 0 0-2.392-.357.025.025 0 0 0 0 .05 9.5 9.5 0 0 1 2.373.353c.026.007.046-.034.02-.046m3.173-2.16a2.4 2.4 0 0 0-.374-.108q-.092-.019-.185-.035c-.062-.011-.127-.012-.188-.025-.127-.027-.25-.066-.375-.104-.041-.013-.071.053-.03.07.115.05.229.099.34.157.054.029.101.07.155.1q.085.051.173.1a3 3 0 0 0 .354.164c.117.042.286.123.403.053a.13.13 0 0 0 .06-.147c-.047-.137-.211-.176-.333-.225M31.318 214.224a19.36 19.36 0 0 0-5.247 7.061c-.024.06.068.092.1.043a47 47 0 0 1 5.194-7.057.033.033 0 0 0-.047-.047m27.004-39.546q-1.177 3.842-2.272 7.704c-.722 2.566-1.58 5.138-2.08 7.758a.031.031 0 0 0 .06.017c.936-2.499 1.539-5.142 2.255-7.71.72-2.58 1.4-5.167 2.06-7.763a.012.012 0 0 0-.023-.006m-3.77-3.081a17.3 17.3 0 0 0-1.042 3.197c-.326 1.193-.67 2.38-.996 3.574-.314 1.155-.626 2.31-.921 3.47a16.7 16.7 0 0 0-.754 3.413c-.004.11.145.116.18.025a24 24 0 0 0 .759-3.51c.244-1.132.509-2.26.804-3.38.295-1.118.611-2.232.968-3.333a28 28 0 0 0 1.074-3.426c.007-.04-.05-.073-.072-.03m-3.041-2.796a43 43 0 0 0-2.264 5.593c-.328.97-.641 1.943-.964 2.913q-.243.728-.47 1.461-.116.367-.228.734c-.034.114-.124.707-.235.751.03-.012.03-.062-.009-.061l-.053.001a.04.04 0 0 0-.039.03c-.025.106-.028.1.043.181a.06.06 0 0 0 .065.017c.275-.115.277-.382.349-.659.129-.495.252-.991.387-1.485.3-1.092.627-2.176 1.012-3.241.757-2.092 1.633-4.148 2.442-6.22.008-.02-.026-.034-.036-.015m-4.141-3.334a52.3 52.3 0 0 0-2.88 9.199.03.03 0 0 0 .056.015c.998-3.056 1.812-6.164 2.9-9.193.016-.048-.058-.067-.076-.02m-3.611-.027a23.6 23.6 0 0 0-1.667 4.623c-.006.028.037.051.05.02.64-1.506 1.081-3.093 1.674-4.619.013-.032-.043-.056-.057-.024m-2.78-.632q-.196.42-.386.843-.088.202-.163.411a2.3 2.3 0 0 0-.133.454.03.03 0 0 0 .053.022 2.3 2.3 0 0 0 .21-.421q.088-.204.162-.412.15-.44.293-.882c.006-.021-.027-.036-.036-.015m100.583 38.507c-3.257-.439-6.5-.991-9.703-1.73a.022.022 0 0 0-.012.041 61 61 0 0 0 9.71 1.731c.023.003.03-.039.005-.042m2.405-1.85c-2.193-.48-4.444-.725-6.663-1.046-.022-.003-.032.03-.01.034 2.212.38 4.43.842 6.665 1.065.03.003.037-.047.008-.053m-68.59-10.22a8.8 8.8 0 0 0-3.405.125c-1.378.242-2.754.503-4.129.767a33.6 33.6 0 0 0-7.147 1.918c-.016.007-.004.035.012.028a33.3 33.3 0 0 1 6.967-1.63q1.892-.311 3.781-.64a21.5 21.5 0 0 1 3.91-.492.04.04 0 0 0 .01-.076m5.079 3.058a32.5 32.5 0 0 0-7.838.308 50 50 0 0 0-7.469 1.553.016.016 0 0 0 .009.03 56 56 0 0 1 7.697-1.426c2.533-.284 5.064-.24 7.6-.41a.027.027 0 0 0 .001-.055m-8.168 3.362c-.012.003-.007.021.005.02 2.089-.309 4.187-.435 6.293-.54a.018.018 0 0 0 0-.036 29.7 29.7 0 0 0-6.298.556m16.861.287a35 35 0 0 0-2.343-.27c-.809-.055-1.62-.064-2.428-.109-.033-.001-.032.048 0 .051.794.086 1.585.204 2.38.28.792.077 1.587.098 2.382.117.038 0 .05-.064.01-.07m194.778 75.934q-1.796-1.925-3.617-3.826c-2.456-2.565-4.942-5.098-7.528-7.533a.02.02 0 0 0-.028.028c2.401 2.618 4.865 5.174 7.322 7.74q1.82 1.901 3.636 3.807c1.233 1.293 2.43 2.658 3.752 3.86a.05.05 0 0 0 .072-.071c-1.103-1.409-2.39-2.698-3.609-4.005m6.465 1.654q-.929-1.119-1.874-2.224c-1.288-1.503-2.597-2.989-3.88-4.496-2.57-3.02-5.133-6.043-7.838-8.943-.01-.011-.026.005-.017.016 2.57 2.967 5.196 5.884 7.729 8.882 1.255 1.486 2.465 3.01 3.67 4.535l1.81 2.289a13.2 13.2 0 0 0 1.996 2.27.043.043 0 0 0 .067-.051 11.5 11.5 0 0 0-1.663-2.278m8.87 4.83a.054.054 0 0 0-.004.067 17 17 0 0 1-1.608-2.092l-1.74-2.23c-1.23-1.585-2.432-3.191-3.646-4.789-1.104-1.453-2.198-2.916-3.328-4.35-1.2-1.521-2.51-2.929-3.807-4.365-.04-.043-.1.02-.064.064 1.542 1.907 3.043 3.838 4.62 5.717a127 127 0 0 1 4.629 5.82c1.436 1.93 2.73 3.95 4.106 5.922.147.21.935 1.345 1.245.633.099-.227-.182-.617-.403-.397m-2.178-10.613a18 18 0 0 0-1.117-1.416 15 15 0 0 0-1.417-1.364c-.023-.02-.067.008-.046.036.358.47.684.965 1.05 1.432.407.518.805 1.042 1.206 1.564q.57.74 1.111 1.5c.371.522.707 1.068 1.078 1.589a.045.045 0 0 0 .078-.046 19.4 19.4 0 0 0-1.943-3.295m9.697 13.383c-.149-.21-.305-.416-.46-.623-.296-.401-.61-.79-.922-1.18a85 85 0 0 1-1.943-2.499c-.02-.025-.063-.001-.044.026a82 82 0 0 1 1.718 2.62c.275.435.55.87.842 1.293.146.212.29.427.442.634a1.1 1.1 0 0 0 .471.446.133.133 0 0 0 .168-.128 1.1 1.1 0 0 0-.272-.588m9.613 3.583a31.5 31.5 0 0 0-2.552-3.197c-.32-.446-.626-.904-.955-1.344a9 9 0 0 0-1.048-1.027 12.4 12.4 0 0 1-1.56-2.084c-1.734-2.651-3.188-5.843-5.978-7.565-.03-.019-.056.027-.028.047 2.797 2.04 4.168 5.521 6.046 8.315.466.694 1.01 1.331 1.462 2.032a19 19 0 0 0 2.153 2.298 16 16 0 0 1 1.57 2.08c.159.243.381.81.763.77a.19.19 0 0 0 .184-.183.17.17 0 0 0-.057-.142m8.421 2.483a5.6 5.6 0 0 0-1.039-1.482c-.477-.567-.998-1.095-1.483-1.656a61 61 0 0 1-2.982-3.776 108 108 0 0 0-2.58-3.394c-.61-.765-1.322-2.06-2.389-2.193-.058-.007-.063.072-.027.099a15.4 15.4 0 0 1 2.485 2.897c.879 1.094 1.817 2.136 2.721 3.209.927 1.098 1.85 2.21 2.698 3.37a12 12 0 0 0 2.43 3.054.114.114 0 0 0 .166-.128m2.532-4.292c-.015-.017-.043.005-.03.023a20.7 20.7 0 0 0 4.488 5.372c.04.03.113-.011.077-.06-1.395-1.871-3.034-3.55-4.535-5.335m10.338 6.995a2 2 0 0 0-.223-.208 11 11 0 0 0-.482-.35c-.326-.225-.67-.42-.991-.65-.033-.022-.073.03-.043.056.302.255.577.539.876.798q.217.19.444.368a3 3 0 0 0 .258.167 1 1 0 0 0 .261.112.055.055 0 0 0 .062-.08 1 1 0 0 0-.162-.213M165.57 74.93c-.015-.015-.037.006-.023.021 1.28 1.384 2.54 2.793 3.898 4.102a.022.022 0 0 0 .03-.03c-1.24-1.421-2.587-2.748-3.906-4.094m5.807 2.363c-.559-.573-1.177-1.093-1.77-1.63-.597-.54-1.213-1.058-1.803-1.605a.021.021 0 0 0-.03.03c.56.592 1.117 1.187 1.72 1.736a17 17 0 0 0 1.845 1.518c.03.02.062-.024.038-.049"/></svg>