<svg xmlns="http://www.w3.org/2000/svg" data-name="ONE" viewBox="0 0 263.485 485.902"><path fill="currentColor" d="M188.65 164.465c-.485-.049-.938-.202-1.42-.25a5.2 5.2 0 0 0-1.371.093 5 5 0 0 0-.607.145 2.5 2.5 0 0 0-.202-.623 9.3 9.3 0 0 0-1.788-2.278q-2.199-2.307-4.55-4.46a100 100 0 0 0-9.827-7.917 56 56 0 0 0-5.22-3.409 6.77 6.77 0 0 0-5.751-.802 21.2 21.2 0 0 0-8.578 6.456 22 22 0 0 0-3.13 5.019 23 23 0 0 0-1.027 2.791 6.4 6.4 0 0 1-1.168 2.558.083.083 0 0 0 .058.14c1.516.085 1.867-1.983 2.274-3.063a23 23 0 0 1 2.323-4.493 21.94 21.94 0 0 1 7.338-6.927 10.8 10.8 0 0 1 2.503-1.128 4.6 4.6 0 0 1 2.73.14 22.3 22.3 0 0 1 5.043 2.977 97 97 0 0 1 9.467 7.308q2.482 2.173 4.816 4.505c.774.77 1.56 1.54 2.28 2.362a13 13 0 0 1 .897 1.217q.063.089.129.175-.332.161-.651.329a21.6 21.6 0 0 0-4.579 3.34 74.5 74.5 0 0 0-8.304 9.026q-.924 1.187-1.793 2.416a18 18 0 0 1-1.728 2.295 1.83 1.83 0 0 1-1.133.702c-.455.003-.887.027-1.347.05a5.5 5.5 0 0 1-2.5-.582c-1.786-.832-3.09-2.48-4.363-3.926a242 242 0 0 1-4.343-5.099c-1.604-1.926-3.194-3.865-4.715-5.858q-1.096-1.435-2.203-2.861c-.707-.91-1.272-1.98-2.438-2.306a.07.07 0 0 0-.089.067 4.28 4.28 0 0 0 1.334 2.593c.685.88 1.374 1.756 2.087 2.614 1.45 1.745 2.894 3.496 4.353 5.233q2.229 2.654 4.518 5.257a50 50 0 0 0 4.285 4.537c1.3 1.155 2.992 2.32 4.834 1.955a1.75 1.75 0 0 0 1.02-.582c.314-.336.735-.569 1.08-.876a11.2 11.2 0 0 0 1.7-2.125 52 52 0 0 1 8.292-9.683 39.5 39.5 0 0 1 5.44-4.133 16 16 0 0 1 2.14-1.088.16.16 0 0 0 .148-.063c.222-.092.437-.198.664-.28a26 26 0 0 0 1.494-.582 7.3 7.3 0 0 1 1.61-.66c.15-.027.097-.233-.033-.246m22.697 143.86a34 34 0 0 1-3.997-3.567 24.7 24.7 0 0 1-3.271-3.956 5.44 5.44 0 0 0-1.621-1.959 6.3 6.3 0 0 1-1.586-1.94 46 46 0 0 1-2.595-4.396 35.6 35.6 0 0 1-2.311-5.576.059.059 0 0 0-.113.032 38.6 38.6 0 0 0 3.942 9.887c.44.757.997 1.477 1.365 2.27a4 4 0 0 1 .215.438 2.6 2.6 0 0 0 .141.6 5.6 5.6 0 0 0 .958 1.15 64 64 0 0 0 3.967 3.665 41 41 0 0 0 4.839 3.467c.075.046.133-.065.067-.115m-44.937-53.366q-1.276-2.809-2.532-5.627a47 47 0 0 0-4.564-8.862c-1.84-2.508-4.472-4.688-7.693-4.952a14.9 14.9 0 0 0-5.388.802 40.5 40.5 0 0 0-5.188 2.073 11.04 11.04 0 0 0-4.178 2.752 9.4 9.4 0 0 0-1.751 4.537c-.617 3.935.145 7.871.45 11.794.157 2.02.31 4.041.583 6.049.118.867.193 1.742.338 2.605a2.84 2.84 0 0 0 .925 2.077c.191.124.417.21.58.332.258.193.475.45.74.643.024.019.06-.017.042-.042a2.35 2.35 0 0 1-.493-.941c-.028-.252.083-.521.065-.773a4 4 0 0 0-.414-1.088q-.213-.548-.384-1.109c-.516-1.679-.797-3.453-1.147-5.173a48.7 48.7 0 0 1-1.2-11.235 16.9 16.9 0 0 1 .925-5.32 6.54 6.54 0 0 1 3.298-3.63 36.4 36.4 0 0 1 4.762-1.942 16.5 16.5 0 0 1 5.142-1.078 10.03 10.03 0 0 1 7.876 3.423 29.9 29.9 0 0 1 4.317 7.309l2.41 5.13a35.5 35.5 0 0 1 2.183 5.023 4.01 4.01 0 0 1-1.125 4.402 20.7 20.7 0 0 1-3.906 2.667 33.1 33.1 0 0 1-9.976 3.66 37.5 37.5 0 0 1-5.429.605c-1.804.084-3.607-.138-5.4.005a.208.208 0 0 0-.055.407 14.7 14.7 0 0 0 5.039.707 29.6 29.6 0 0 0 5.14-.38 33.7 33.7 0 0 0 9.941-3.176 31 31 0 0 0 4.433-2.687 6.2 6.2 0 0 0 2.812-3.77c.312-1.827-.438-3.588-1.178-5.217"/><path fill="currentColor" d="M261.533 267.02a61 61 0 0 0-4.132-7.302c-1.122-3.614-2.227-7.223-3.62-10.753q-2.383-6.042-4.691-12.114-4.615-12.085-8.93-24.284c-.808-2.292-1.637-4.577-2.445-6.87q-.604-1.72-1.204-3.441-.127-.365-.257-.727a44.3 44.3 0 0 0-1.662-9.424 19.95 19.95 0 0 0-5.13-8.672c-2.738-2.535-6.217-3.515-9.869-3.75a38 38 0 0 0-1.405-.06q-.37-.22-.74-.443a1.4 1.4 0 0 0 .043-.208 1.83 1.83 0 0 0-.254-1.027q-.467-1.035-.953-2.06c-.216-.457-.441-.91-.665-1.363a6.4 6.4 0 0 0-.061-1.62q-.173-1.594-.328-3.19c-.2-2.046-.372-4.094-.539-6.143a346 346 0 0 1-.81-12.314q-.276-6.042-.316-12.09c-.027-4.113-.11-8.229-.067-12.34.023-2.302.015-4.605.069-6.905.027-1.148.1-2.303.073-3.45l-.002-.045a65 65 0 0 0 .62-9.272 166 166 0 0 0-1.696-21.711c-.47-3.561-1-7.114-1.498-10.67a52 52 0 0 1-.622-11.232c.283-3.646.98-7.236 1.089-10.9a63 63 0 0 0-.705-10.943 127.5 127.5 0 0 0-5.438-21.234c-1.784-5.437-3.568-11.256-7.486-15.589a14.66 14.66 0 0 0-6.91-4.381 15.4 15.4 0 0 0-7.976.067 20.22 20.22 0 0 0-12.728 10.759c-2.851 5.726-3.542 12.288-3.342 18.607a61.4 61.4 0 0 0 2.61 15.773c-.009.24-.022.48-.024.722-.01 1.726.094 3.444.17 5.168.15 3.442.242 6.888.219 10.334-.023 3.4-.158 6.8-.461 10.187-.303 3.38-.81 6.733-1.304 10.089-.499 3.383-.97 6.778-1.189 10.193a96 96 0 0 0 .028 10.336q.453 10.318.395 20.628-.028 5.827-.069 11.654c-.011 1.897-.008 3.795-.01 5.693a40 40 0 0 0 .178 4.56 29.6 29.6 0 0 0-6.678-2.743 19 19 0 0 0-2.256-.43l-.009-.006c-.182-.126-.36-.264-.552-.375l-.07-.04a.52.52 0 0 0-.334-.38l-.009-.017a6 6 0 0 0-.454-.44l-.839-.851c-.616-.623-1.25-1.23-1.877-1.842q-1.885-1.837-3.7-3.741c-2.16-2.26-4.015-4.777-7.042-5.913a18.2 18.2 0 0 0-4.748-.93 40 40 0 0 0-5.032-.142 41.4 41.4 0 0 0-9.741 1.514 49 49 0 0 0-9.48 3.925 17.36 17.36 0 0 0-6.877 5.834c-3.586 5.603-3.067 12.525-2.182 18.809q.624 4.434 1.37 8.865c-.118-.138-.227-.284-.348-.42a38 38 0 0 0-2.857-2.891 52.6 52.6 0 0 0-6.459-5.081 19.2 19.2 0 0 0-7.239-3.087 14.07 14.07 0 0 0-7.993 1.22c-2.707 1.162-5.317 2.582-7.954 3.894l-8.14 4.05a9.5 9.5 0 0 0-3.172 2.225 8.5 8.5 0 0 0-1.603 3.395c-.701 2.75-1.126 5.6-1.55 8.404a66 66 0 0 0-.863 9.813 32 32 0 0 0 .332 4.883l.003.013c-.015.336-.015.67-.01.988a15 15 0 0 0 .14 1.822l.011.105a34.4 34.4 0 0 0-4.54-4.463c-2.742-2.197-6.065-4.242-9.603-4.726-3.81-.522-7.647.943-10.974 2.676-6.375 3.32-11.499 8.528-16.428 13.654-2.562 2.664-5.116 5.38-6.467 8.884-1.366 3.546-1.466 7.424-1.907 11.154a58.7 58.7 0 0 1-2.746 10.726c-.265.84-.524 1.679-.766 2.52-.017.038-.038.074-.054.113a21 21 0 0 0-.677 1.888 26 26 0 0 0-.979 4.11 14.4 14.4 0 0 0 .015 4.102 12.5 12.5 0 0 1 .16 1.96 8.4 8.4 0 0 1-.402 2.125c-.383 1.367-.772 2.731-1.11 4.11a24.3 24.3 0 0 0-.763 3.925A4.82 4.82 0 0 0 3.876 263a1.15 1.15 0 0 0-.705.417 5 5 0 0 0-.689 1.154 6.4 6.4 0 0 0-.35 2.838c.113 2.23.528 4.402.484 6.646-.049 2.507-.368 5.006-.644 7.496-.282 2.54-.565 5.08-.826 7.623-.516 5.04-.942 10.093-1.084 15.16a90.6 90.6 0 0 0 .564 14.607 58 58 0 0 0 3.203 12.546 91 91 0 0 0 .67 5.7 103.8 103.8 0 0 0 6.948 24.269 111 111 0 0 0 5.537 11.408c2.152 3.845 4.648 7.444 7.038 11.14a49 49 0 0 1 3.308 5.918c.975 2.096 1.808 4.253 2.653 6.403l5.291 13.463c1.607 4.088 3.12 8.357 6.11 11.674a22 22 0 0 0 2.14 2.062c.232 1.276.4 2.566.629 3.843a22.3 22.3 0 0 0 1.815 5.021c1.529 3.44 1.949 7.119 2.467 10.811 1.095 7.797 2.15 15.606 2.74 23.46.167 2.212.284 4.422.532 6.628.257 2.292.482 4.592.746 6.885.02.176.317.261.346.046a60.3 60.3 0 0 0 .443-12.087c-.27-4.011-.668-8.013-1.137-12.005-.47-4.002-1.011-7.996-1.567-11.987-.526-3.77-.838-7.7-2.294-11.254a58 58 0 0 1-2.346-5.773c-.213-.737-.387-1.487-.596-2.22a46 46 0 0 0 5.843 3.478c.891.457 1.763.944 2.665 1.382a.168.168 0 0 0 .17-.29c-1.647-1.155-3.325-2.251-4.927-3.471a34 34 0 0 1-4.549-3.904 29.6 29.6 0 0 1-3.698-4.718 39 39 0 0 1-2.717-5.78c-1.75-4.413-3.473-8.838-5.208-13.257a97 97 0 0 0-5.447-12.534c-2.171-3.83-4.85-7.351-7.116-11.127a108 108 0 0 1-5.766-11.005 111.8 111.8 0 0 1-7.616-23.687c-.837-4.091-1.607-8.212-2.045-12.367-.436-4.138-.495-8.269-.625-12.421-.033-1.044-.077-2.087-.096-3.132-.001-.1-.168-.133-.184-.025a72 72 0 0 0-.565 12.558c.02.636.053 1.273.082 1.91a133 133 0 0 1-.803-6.071 113 113 0 0 1-.72-14.121c.068-4.985.434-9.96.915-14.92.473-4.891 1.214-9.776 1.53-14.678a34.6 34.6 0 0 0-.38-7.816 13.8 13.8 0 0 1-.242-3.076 9 9 0 0 1 .122-1.481c.052-.221.168-.434.212-.653a2 2 0 0 0 .018-.472 7 7 0 0 0 1.279.72 10.4 10.4 0 0 0 3.756.76 46 46 0 0 1 5.08.073c.154.023.226-.196.066-.24a32 32 0 0 0-3.95-.737 15.5 15.5 0 0 1-3.394-.752 5.5 5.5 0 0 1-2.395-1.685 4.18 4.18 0 0 1-.734-3.01 25.4 25.4 0 0 1 .8-3.794c.317-1.262.689-2.506 1.024-3.761a8.4 8.4 0 0 0 .23-3.75c-.182-.985-.381-1.946-.475-2.93a42 42 0 0 1 2.055-7.78 81 81 0 0 0 3.264-10.162c.74-3.53.741-7.163 1.452-10.695a16.8 16.8 0 0 1 1.797-5.06 23.3 23.3 0 0 1 3.095-4.09 151 151 0 0 1 7.409-7.555 53.5 53.5 0 0 1 7.916-6.399 24.6 24.6 0 0 1 9.647-4.008c3.614-.486 6.963 1.115 9.887 3.088a39.3 39.3 0 0 1 7.933 7.367c1.217 1.447 2.357 2.957 3.51 4.453.709.919 1.39 1.865 2.107 2.78.199 1.03.41 2.06.604 3.093 1.273 6.778 2.71 13.514 4.217 20.244a86 86 0 0 0 2.658 9.75c1.111 3.17 2.47 6.247 3.76 9.346 2.64 6.341 5.205 12.714 7.796 19.076 1.421 3.49 2.847 6.978 4.178 10.503.888 2.354 1.964 4.633 2.965 6.942a81 81 0 0 0 1.688 9.303 33.4 33.4 0 0 0 3.497 8.502 13.55 13.55 0 0 1-6.477 7.801 17.77 17.77 0 0 1-11.92 1.246 21.7 21.7 0 0 1-5.768-2.014 16.2 16.2 0 0 1-4.693-3.88 58 58 0 0 1-3.636-5.028l-4-5.878c-5.34-7.852-10.74-15.667-16.02-23.56a107 107 0 0 1-6.646-12.15L31.4 246.604c-2.091-4.215-4.193-8.414-6.488-12.522q-1.696-3.036-3.253-6.142c-1.053-2.107-2.023-4.263-3.132-6.34-.537-1.008-1.135-1.951-1.616-2.992-.024-.051-.115-.014-.093.04.455 1.13.776 2.289 1.2 3.43.393 1.06.873 2.09 1.33 3.125.99 2.239 2.02 4.46 3.02 6.695.987 2.202 1.94 4.42 2.913 6.627.974 2.207 2.073 4.362 3.145 6.523l6.587 13.279a131 131 0 0 0 6.652 12.652c2.62 4.09 5.44 8.06 8.172 12.075l8.349 12.272 4.14 6.085c1.235 1.816 2.443 3.657 3.821 5.37a18.7 18.7 0 0 0 4.643 4.23 21 21 0 0 0 5.181 2.234c-.23.08-.46.157-.686.248a19 19 0 0 0-3.92 2.203 19.15 19.15 0 0 0-5.82 6.386c-.045.082.07.184.134.105a21.03 21.03 0 0 1 10.02-7.195 34 34 0 0 1 2.001-.656c.439-.126.929-.21 1.372-.378a19.95 19.95 0 0 0 10.662-.883q.668-.268 1.324-.601a8 8 0 0 0 .809-.144c.307-.069.604-.172.903-.267a22.6 22.6 0 0 0-2.572 2.608 23.7 23.7 0 0 0-3.793 6.554c-.025.061.076.102.108.045a24.9 24.9 0 0 1 7.116-8.23 20.2 20.2 0 0 1 4.673-2.665c1.22-.462 3.706-1.464 4.785-.248.776.875.485 2.462.426 3.524-.029.517-.07 1.032-.114 1.547a58 58 0 0 0-4.36 9.534 43 43 0 0 0-2.553 10.952 47 47 0 0 1-.545 6.015c-.44 1.968-1.181 3.855-1.656 5.815a56.4 56.4 0 0 0-1.135 13.502.113.113 0 0 0 .226 0c.327-3.607.66-7.24 1.29-10.81.61-3.463 2.056-6.743 2.431-10.245.184-1.717.19-3.444.434-5.157a33 33 0 0 1 1.149-5.03 57.5 57.5 0 0 1 3.914-9.185c.812-1.592 1.625-3.209 2.548-4.74a13 13 0 0 1 1.498-2.07 8 8 0 0 1 .848-.822c.145-.12.297-.223.448-.336q.085-.064.167-.131a.675.675 0 0 0 .824-.378c4.996 1.309 10.461.865 15.475-.08a24.7 24.7 0 0 0 9.863-3.667 17.1 17.1 0 0 0 5.958-8.184 27.7 27.7 0 0 0 1.626-8.063c.054.201.103.404.158.605a66 66 0 0 0 2.595 7.35c1.02 2.49 2.079 4.971 3.251 7.394 1.33 2.746 2.818 5.402 4.385 8.018a.102.102 0 0 0 .175-.102c-2.229-4.735-4.394-9.527-6.388-14.366a48.5 48.5 0 0 1-3.972-14.45 25 25 0 0 1-.016-4.009 19 19 0 0 1 .29-2.149 6.4 6.4 0 0 0 .188-1.1 23.4 23.4 0 0 0 3.62.802 32.26 32.26 0 0 0 15.032-1.826c4.564-1.581 9.25-3.74 12.336-7.586a33.6 33.6 0 0 0 5.906-12.78 22 22 0 0 0 .642-4.777c.774.776 1.53 1.572 2.298 2.353a35 35 0 0 1 2.335 2.586c.023.028.068-.008.05-.038a24 24 0 0 0-2.101-2.831 14.7 14.7 0 0 0-2.577-2.278 20 20 0 0 0-.127-2.82c-.018-.146-.05-.289-.07-.434a22 22 0 0 0 1.57 1.616q1.119 1.096 2.246 2.183a21 21 0 0 1 2.062 2.245c.338.434.656.877.949 1.342a3.25 3.25 0 0 0 .898 1.058.193.193 0 0 0 .281-.216 3 3 0 0 0-.813-1.125q-.54-.535-1.05-1.096a65 65 0 0 1-2.046-2.376 29 29 0 0 0-2.069-2.246 12.4 12.4 0 0 0-2.085-1.743q-.277-1.83-.719-3.628c1.197 1.27 2.434 2.499 3.65 3.75.745.768 1.463 1.56 2.207 2.327a20 20 0 0 0 2.32 2.23c.05.037.107-.033.081-.08a14.7 14.7 0 0 0-1.933-2.495c-.745-.844-1.543-1.645-2.335-2.444a46 46 0 0 0-4.11-3.764q-.364-1.431-.773-2.85c.316.26.64.51.937.76q1.193 1 2.348 2.043 1.128 1.016 2.204 2.087c.378.376.742.765 1.123 1.137a2 2 0 0 0 .895.649 35.3 35.3 0 0 1 2.76 9.888l-.139.27q-.448.848-.84 1.724c-.058.129-.108.26-.164.39q-.036-.046-.074-.088l-.568-.605c-.373-.397-.727-.813-1.087-1.223l-.006.006c.344.431.694.858 1.023 1.301l.464.625c.05.068.105.13.159.195q-.63 1.45-1.227 2.913a30.8 30.8 0 0 0-2.253 6.944 21.2 21.2 0 0 0 .517 7.384 50.5 50.5 0 0 0 2.227 7.39.07.07 0 0 0 .135-.038 63 63 0 0 1-1.45-7.354 19.3 19.3 0 0 1 .033-7.332 60 60 0 0 1 2.272-6.586q.45-1.217.889-2.438c-.122 1.163-.298 2.323-.43 3.49a18.3 18.3 0 0 0 .474 6.787 108 108 0 0 0 4.526 12.65 106 106 0 0 0 6.571 13.419c.071.123.25.015.19-.11a117 117 0 0 1-9.355-25.995 20.5 20.5 0 0 1-.405-6.99 33.7 33.7 0 0 0 .485-6.949c-.368-4.266-2.068-8.227-3.585-12.182a72 72 0 0 1-1.242-3.48 17 17 0 0 1-.859-3.336 4.7 4.7 0 0 1 .054-1.567 16 16 0 0 0 2.096 1.302 18.7 18.7 0 0 0 5.611 1.667 120 120 0 0 0 7.24.917c.162.016.183-.231.037-.276-1.999-.605-4.013-1.13-6.029-1.674a23.5 23.5 0 0 1-5.273-1.986 26.6 26.6 0 0 1-7.606-6.441c-.6-.717-1.175-1.454-1.776-2.169-.061-.073-.13-.137-.193-.208a35 35 0 0 0 3.94.455c1.352.08 2.708.053 4.055.212a16.8 16.8 0 0 1 4.008.887c.26.098.437-.324.19-.45a28 28 0 0 0-7.492-2.276c-2.607-.51-5.3-.677-7.767-1.748a26.9 26.9 0 0 1-6.477-4.5q-2.884-2.458-5.567-5.14a96.6 96.6 0 0 1-17.811-24.572 87.6 87.6 0 0 1-5.896-14.58c-1.631-5.477-2.611-11.342-1.683-17.04a22.2 22.2 0 0 1 5.848-11.93 15.9 15.9 0 0 1 12.483-4.953c5.333.33 10.293 3.005 14.631 5.945a106 106 0 0 1 13.218 10.734 56 56 0 0 0 3.079 2.72c.028.024.08-.007.055-.042a30 30 0 0 0-2.464-3.12c.569.458 1.137.916 1.68 1.403a48 48 0 0 0 4.08 3.214c5.753 4.144 11.471 8.431 17.574 12.055a55 55 0 0 0 5.073 2.707c.253.116.52.2.78.297a16.5 16.5 0 0 1-7.352-1.546.082.082 0 0 0-.083.141 13.9 13.9 0 0 0 4.794 2.06c.871.187 1.759.29 2.642.399.93.115 1.843.3 2.776.395 3.493.356 7.108.756 10.005 2.923a13.4 13.4 0 0 1 1.69 1.52 5.44 5.44 0 0 1-1.186 2.233c-.805.83-1.94 1.209-2.745 2.01-.845.842-1.919 1.49-2.815 2.288a33 33 0 0 0-2.506 2.534c-3.49 3.847-7.181 7.5-10.618 11.394-.726.822-1.755 1.66-1.83 2.832a9 9 0 0 0 .276 1.918c.057.343.093.702.173 1.04.088.373.306.527.51.85a.087.087 0 0 0 .158-.02 5.5 5.5 0 0 0 .218-.715 3.4 3.4 0 0 0-.122-.809c-.119-.649-.245-1.297-.356-1.947a2.31 2.31 0 0 1 .179-2.005 13 13 0 0 1 1.343-1.604c1.819-1.889 3.674-3.741 5.517-5.605 1.79-1.811 3.527-3.705 5.442-5.386.948-.832 1.914-1.657 2.926-2.409q.712-.528 1.464-1c.529-.33 1.124-.486 1.658-.82a7.6 7.6 0 0 0 2.674-2.452 3.9 3.9 0 0 0 .497-1.335c3.5 4.454 4.305 10.795 5.098 16.208.662 4.51 1.423 9.087 3.625 13.142.082.151.352.046.285-.12a35.5 35.5 0 0 1-2.09-9.603q.798 2.629 1.613 5.253c1.286 4.129 2.673 8.231 4.077 12.321q4.237 12.338 8.992 24.486a114 114 0 0 0 2.492 5.891c-.54-.878-1.083-1.754-1.617-2.635-1.078-1.781-2.262-3.486-3.418-5.217a.055.055 0 0 0-.094.055c3.105 6.538 6.481 12.96 9.892 19.342a21.6 21.6 0 0 1 2.862 9.283 43 43 0 0 1-1.157 10.26c-2.38 11.947-4.955 24.397-13.14 33.876-2.174 2.518-4.523 4.87-6.678 7.406q-.062.077-.12.153a28 28 0 0 0 1.114-3.922.102.102 0 0 0-.186-.078c-1.457 2.582-2.472 5.387-3.753 8.058a26 26 0 0 0-2.116 4.013.13.13 0 0 0 .037.152q-1.01 1.953-2.064 3.883c-2.873 5.266-5.934 10.453-9.29 15.427q-2.49 3.688-5.195 7.224c-1.809 2.365-3.75 4.616-5.616 6.935a27 27 0 0 0-2.7 3.929c-.738 1.344-1.365 2.747-2.046 4.121a94 94 0 0 1-4.618 8.194c-3.738 5.957-7.815 11.694-11.63 17.6a.18.18 0 0 0 .282.217c2.085-2.321 4.082-4.74 6.09-7.126a80 80 0 0 0 5.593-7.573q.826-1.255 1.616-2.534c-.503 2.296-.89 4.622-1.485 6.898a93 93 0 0 1-3.08 9.385 37.2 37.2 0 0 0-2.541 9.586 49.4 49.4 0 0 0 .29 9.98c1.478 13.849 3.164 27.679 4.75 41.516.446 3.884.835 7.779 1.355 11.653.264 1.969.668 3.901.991 5.86.161.975.425 1.927.61 2.897.185.973.323 1.953.513 2.925a.196.196 0 0 0 .383-.052c-.03-.827-.083-1.65-.132-2.477-.054-.91-.014-1.815-.042-2.724-.055-1.727-.118-3.48-.26-5.202-.286-3.475-.76-6.94-1.156-10.403l-2.381-20.806-2.384-20.806a74 74 0 0 1-.701-9.997 29.7 29.7 0 0 1 1.91-9.579 95 95 0 0 0 3.337-10.373 36.9 36.9 0 0 0 1.38-10.525c.658-1.12 1.3-2.248 1.911-3.394 1.468-2.757 2.612-5.726 4.41-8.294 1.732-2.472 3.827-4.697 5.694-7.07q2.795-3.553 5.383-7.263a116.4 116.4 0 0 0 9.316-15.409c1.469-3.023 2.87-6.068 4.144-9.179q.325-.795.66-1.592c.88-1.009 1.877-1.898 2.802-2.868 2.058-2.161 4.202-4.228 6.196-6.453a46 46 0 0 0 5.435-7.316 53 53 0 0 0 3.989-8.578 122 122 0 0 0 4.713-18.165 65 65 0 0 0 1.552-10.287 21.6 21.6 0 0 0-1.934-9.932m-122.29 30.487a17.25 17.25 0 0 1-4.533 8.27c-2.468 2.348-5.768 3.497-9.03 4.233-6.263 1.414-13.529 2.14-19.519-.687-5.773-2.725-9.049-8.461-10.925-14.327a98 98 0 0 1-2.69-11.462c-.392-2.048-.756-4.104-1.264-6.127a35 35 0 0 0-2.134-5.893c-.016-.036-.075-.01-.064.027.449 1.526.765 3.087 1.074 4.647-.871-2.328-1.865-4.623-2.795-6.915-2.578-6.35-5.149-12.704-7.76-19.041-1.289-3.13-2.651-6.232-3.873-9.389a74.5 74.5 0 0 1-2.94-9.638c-1.59-6.67-2.934-13.394-4.623-20.042a870 870 0 0 1-2.834-11.387c-.446-1.86-.854-3.735-1.347-5.583-.515-1.93-1.103-3.839-1.656-5.758a.02.02 0 0 0-.037.01c.54 3.477 1.115 6.925 1.812 10.375.328 1.628.635 3.26.954 4.889l-.476-.78a52 52 0 0 0-2.89-4.237c-.291-.388-.596-.765-.896-1.146a.13.13 0 0 0 .028-.102 71 71 0 0 1-.39-8.267 58 58 0 0 1 .629-8.264c.401-2.794.966-5.557 1.52-8.323a22 22 0 0 1 .872-3.557 4.95 4.95 0 0 1 2.142-2.536c1.14-.694 2.38-1.243 3.572-1.841l3.85-1.932 7.702-3.864c2.323-1.165 4.686-2.385 7.35-2.382a14.6 14.6 0 0 1 7.083 2.173 44 44 0 0 1 6.962 5.097c1.14.988 2.258 1.999 3.37 3.018.555.509 1.102 1.027 1.66 1.533.062.057.12.103.18.154a217 217 0 0 0 2.332 11.592c.358 3.972.894 7.922 1.454 11.872a134 134 0 0 1 1.477 14.393 59 59 0 0 0 .266 7.243 19.3 19.3 0 0 0 2.491 6.316 70 70 0 0 1 3.526 7.042c.458 1.093.902 2.198 1.323 3.307.143 1.014.288 2.028.418 3.044a93.6 93.6 0 0 0 3.73 15.803 79 79 0 0 1 2.1 7.727c.497 2.449.823 4.931 1.417 7.36a19.86 19.86 0 0 0 6.84 11.087 23 23 0 0 0 2.744 1.872 5 5 0 0 0 .112.747c.108.416.313.83.46 1.234q.495 1.346.888 2.725a31 31 0 0 1 1.034 5.18 29.5 29.5 0 0 1-.695 10.51m44.881-52.755c.29.877.606 1.746.93 2.61l.15.395a29 29 0 0 0-.996-1.027q-1.106-1.097-2.268-2.136a45 45 0 0 0-2.4-1.992 13.5 13.5 0 0 0-1.632-1.163c-.254-.855-.51-1.71-.786-2.558l.3.259c.79.677 1.602 1.33 2.407 1.99q1.176.962 2.333 1.946l1.224 1.045.543.465zm-.857-1.773q-1.298-1.097-2.625-2.16a60 60 0 0 0-2.548-1.967c-.425-.306-.855-.61-1.291-.9-.262-.782-.523-1.565-.803-2.34q.4.376.805.748a98 98 0 0 0 2.282 2.009l2.24 1.925 1.086.933a10 10 0 0 0 .925.764q.159.681.35 1.353-.21-.184-.42-.365m-5.088-7.382 2.538 2.236q.654.576 1.313 1.146c.31.27.623.551.951.807q.025.418.084.833c-.385-.317-.79-.616-1.146-.918l-2.32-1.97a83 83 0 0 0-3.48-2.83c-.166-.125-.337-.26-.517-.38-.236-.634-.473-1.267-.721-1.895 1.06 1.038 2.204 2.006 3.298 2.97m-3.778-4.144c-.215-.525-.422-1.054-.646-1.576 1.223 1.165 2.537 2.255 3.793 3.345l2.913 2.528a22 22 0 0 0 2.701 2.19 5 5 0 0 0-.128.536c-.014.086-.014.173-.024.259-.16-.135-.322-.269-.476-.404q-.655-.576-1.313-1.147l-2.636-2.282a53 53 0 0 0-4.184-3.449m-1.577-3.87q.675.617 1.374 1.207 1.492 1.253 3.007 2.477l2.651 2.15a28.4 28.4 0 0 0 2.775 2.96q.417.381.854.748c-.032.055-.05.12-.078.18a26 26 0 0 0-2.364-2.136l-3.023-2.584c-1.554-1.329-3.118-2.75-4.804-3.947-.16-.356-.305-.72-.468-1.073l-.042-.086zm-19.69-85.532a.77.77 0 0 0-.379-.317l-.141-.18c-.118-.144-.236-.29-.362-.428-.251-.274-.522-.533-.784-.797-.527-.528-1.06-1.056-1.564-1.606a36 36 0 0 0-1.516-1.574c-.564-.545-1.205-.967-1.797-1.473a.129.129 0 0 0-.182.182c.28.335.5.715.764 1.062.26.34.527.67.798 1 .542.658 1.116 1.294 1.622 1.982.49.666.942 1.352 1.39 2.048.094.146.195.303.3.457a16.4 16.4 0 0 0-5.146 2.257 22.57 22.57 0 0 0-8.38 10.975c-1.976 5.295-1.933 11.146-.943 16.644a72.4 72.4 0 0 0 5.288 16.221 97 97 0 0 0 9.23 16.366.25.25 0 0 0-.136-.045 2.8 2.8 0 0 0-1.41.385 1.6 1.6 0 0 1-.659.524l-.456.152c-.305.101-.609.204-.915.299-1.15.356-2.325.61-3.48.943a50.6 50.6 0 0 1-7.147 1.671c-.627.086-1.253.176-1.88.255a5.4 5.4 0 0 0-1.756.346 20 20 0 0 1-3.502 1.08c-2.397.637-4.824 1.143-7.223 1.763-.017.004-.014.032.004.03 2.4-.224 4.8-.649 7.18-1.033a30 30 0 0 1 3.893-.54 4.8 4.8 0 0 0 1.568-.438c.602-.225 1.21-.435 1.812-.661 2.335-.88 4.729-1.515 7.12-2.224 1.155-.343 2.274-.783 3.424-1.145.306-.096.614-.185.92-.278a5 5 0 0 1 1.264-.11 2.6 2.6 0 0 0 1.383-.502.31.31 0 0 0 .118-.295 99 99 0 0 0 7.969 9.958 88 88 0 0 0 10.688 10.002c1.794 4.532 3.798 8.96 5.331 13.596.8 2.419 1.527 4.865 2.145 7.336a26.3 26.3 0 0 1 .97 7.77 26.6 26.6 0 0 1-1.7 7.355 35 35 0 0 1-2.722 6.05 18.6 18.6 0 0 1-4.089 4.961 25.1 25.1 0 0 1-6.298 3.549c-8.281 3.537-18.337 4.47-26.2-.602a17.6 17.6 0 0 1-7.314-9.337 53 53 0 0 1-1.572-7.19 66 66 0 0 0-1.692-7.205c-.731-2.47-1.547-4.914-2.237-7.396q-1.055-3.793-1.925-7.638c-.585-2.557-1.208-5.109-1.705-7.684-.5-2.59-.91-5.204-1.46-7.783-.272-1.28-.577-2.552-.89-3.824-.034-.142-.273-.116-.26.036.208 2.43.52 4.846.858 7.26a40 40 0 0 0-1.27-3.115 60 60 0 0 1-2.85-6.154 22.2 22.2 0 0 1-.637-6.919c-.07-9.66-2.172-19.12-3.574-28.633a83 83 0 0 1-.802-7.98c-.135-2.723-.046-5.45-.134-8.173a.055.055 0 0 0-.108-.014 27.4 27.4 0 0 0-.806 6.104q-.56-4.88-1.274-9.728c-.919-6.277-2.11-13.267 1.093-19.12a15.1 15.1 0 0 1 6.673-5.977 46.3 46.3 0 0 1 9.23-3.787 39.2 39.2 0 0 1 14.927-1.147 12.1 12.1 0 0 1 4.496 1.212 15.4 15.4 0 0 1 3.66 3.309 74 74 0 0 0 4.2 4.206 82 82 0 0 0 4.012 3.53 19 19 0 0 0-3.052.176m61.888 35.743c-1.514-.768-3.049-1.473-4.532-2.305-2.975-1.67-5.81-3.577-8.613-5.517-.757-.525-1.517-1.045-2.275-1.57-2.982-3.102-6.186-6.01-9.356-8.91q-5.407-4.95-11.02-9.658c-.043-.035-.103.022-.061.06q5.394 4.946 10.792 9.887c2.749 2.528 5.44 5.132 8.217 7.636-1.74-1.202-3.478-2.409-5.225-3.603-1.149-.786-2.287-1.603-3.455-2.367-2.382-2.155-4.88-4.196-7.3-6.303q-2.218-1.932-4.42-3.881c-1.496-1.326-2.96-2.715-4.533-3.947a.055.055 0 0 0-.077.077c1.322 1.49 2.825 2.841 4.283 4.196q2.196 2.04 4.451 4.02c1.327 1.162 2.663 2.333 4.021 3.476-.497-.35-.995-.697-1.483-1.077-1.52-1.183-2.98-2.435-4.45-3.68a43 43 0 0 1-4.183-3.958c-.085-.094-.217.043-.138.139.396.48.8.947 1.204 1.415-.49-.41-.965-.835-1.463-1.234a59 59 0 0 0-6.809-4.81 62.5 62.5 0 0 0 .379-9.633c.04-3.466.05-6.932.074-10.398.048-6.971.051-13.938-.252-20.903-.147-3.366-.309-6.735-.209-10.104a91 91 0 0 1 1-10.232c.49-3.39 1.033-6.774 1.417-10.178.386-3.42.59-6.857.665-10.296.084-3.855.008-7.711-.147-11.563q-.03-.734-.057-1.469a30 30 0 0 0 1.937 3.924.18.18 0 0 0 .328-.138c-.85-2.675-1.784-5.324-2.552-8.026a30 30 0 0 0-.196-1.364.1.1 0 0 0 .018-.045 11.9 11.9 0 0 0-.748-4.177l-.013-.078a.2.2 0 0 0-.042-.082c-.08-.233-.155-.467-.24-.7q-.196-.543-.418-1.08a67 67 0 0 1-.6-4.443c-.602-6.236-.61-12.702 1.25-18.743 1.682-5.466 5.028-10.291 10.264-12.832 4.74-2.301 10.48-2.252 14.642 1.224 4.173 3.485 6.136 8.918 7.802 13.92a155 155 0 0 1 5.656 20.397 67.4 67.4 0 0 1 1.17 10.44 66 66 0 0 1-.703 10.583 47.6 47.6 0 0 0-.274 10.991c.344 3.533.923 7.043 1.414 10.558.968 6.924 1.828 13.875 2.1 20.866a129 129 0 0 1-.898 20.637 44 44 0 0 1-1.008 5.219.188.188 0 0 0 .362.1 88 88 0 0 0 1.535-5.097c-.062.729-.126 1.457-.17 2.186-.253 4.113-.462 8.218-.49 12.34-.055 8.22.352 16.464 1.02 24.655.187 2.298.427 4.591.685 6.882l.046.396q-.419-.978-.827-1.96c-.603-1.449-1.29-2.864-1.884-4.314-.05-.122-.24-.079-.203.056.399 1.465.73 2.93 1.196 4.38.474 1.477.983 2.945 1.484 4.413.488 1.427.942 2.868 1.482 4.276.182.473.379.939.573 1.406-.048-.025-.094-.055-.143-.08"/><path fill="currentColor" d="M133.082 297.37a2.37 2.37 0 0 0-.763-1.385c-.037-.031-.113-.003-.091.053a7.4 7.4 0 0 1 .432 1.249 1.17 1.17 0 0 1-.192.984 42.3 42.3 0 0 0-14.42 1.288 26.7 26.7 0 0 0-6.039 2.583 22.6 22.6 0 0 0-2.653 1.854c-.554.447-1.442 1.043-1.712 1.782a1.65 1.65 0 0 1-.687.093c-.287-1.1-.661-2.177-.981-3.267a30 30 0 0 1-.738-3.504c-.107-.646-.231-1.29-.29-1.943-.051-.588-.045-1.206-.14-1.787a13 13 0 0 0-.49-1.64l-.53-1.734a30.8 30.8 0 0 1-1.262-7.028 12.4 12.4 0 0 1 .993-6.122 9.8 9.8 0 0 1 4.203-4.391 8.5 8.5 0 0 1 2.825-1.091c.957-.128 1.905-.32 2.864-.442 2.05-.261 4.32-.673 6.302.134 1.879.765 2.951 2.38 3.874 4.1 2.552 4.761 5 9.567 7.633 14.285.013.023.044.003.034-.02-2.217-5.003-4.429-10.045-6.954-14.903-.948-1.825-2.224-3.785-4.188-4.614a11.12 11.12 0 0 0-6.854-.116q-.773.186-1.534.416a16 16 0 0 0-1.666.699 23 23 0 0 0-2.897 1.362 10.46 10.46 0 0 0-4.13 4.641 13 13 0 0 0-.984 3.116 17.3 17.3 0 0 0-.365 3.304 49.3 49.3 0 0 0 1.095 7.942c.136.762.216 1.558.407 2.308.19.748.618 1.456.883 2.186.53 1.46.943 2.987 1.325 4.491.182.717.28 1.46.407 2.189.072.406.141.813.22 1.218a2.1 2.1 0 0 0 .236.875c.26.324.887.3 1.248.204a1.06 1.06 0 0 0 .648-.504 2.7 2.7 0 0 0 .678-.437c.446-.364.88-.74 1.34-1.086a24 24 0 0 1 2.6-1.681 26 26 0 0 1 5.792-2.395 40.1 40.1 0 0 1 14.228-1.03.66.66 0 0 0 .66-.66 15 15 0 0 0-.367-1.576m-37.952 2.381c-.462-.599-1.223-.517-1.91-.48a24 24 0 0 0-2.468.274 24 24 0 0 0-5.005 1.372 24.4 24.4 0 0 0-4.459 2.283 17 17 0 0 0-2.042 1.53 20 20 0 0 0-1.76 1.981.086.086 0 0 0 .122.122c.633-.53 1.358-.952 2.033-1.426.638-.449 1.267-.91 1.926-1.326a24.7 24.7 0 0 1 4.245-2.164 22.1 22.1 0 0 1 8.972-1.561.404.404 0 0 0 .346-.605m-6.31-11.186a19 19 0 0 0-2.609-3.917 9.6 9.6 0 0 0-8.096-2.762 8.23 8.23 0 0 0-5.77 4.904 14.06 14.06 0 0 0-.428 8.897 39 39 0 0 0 1.961 5.77c.381.935.76 1.871 1.161 2.798.196.453.384.91.599 1.354a15 15 0 0 0 .909 1.457.079.079 0 0 0 .143-.06 16 16 0 0 0-.62-2.381c-.319-.85-.657-1.692-.994-2.534-.598-1.489-1.192-2.981-1.674-4.512-.898-2.848-1.435-5.914-.457-8.812a8.8 8.8 0 0 1 4.308-5.367c2.709-1.22 5.428-.297 7.663 1.414a14.9 14.9 0 0 1 3.469 3.512 41 41 0 0 1 2.387 4.522c.012.023.053.007.043-.018a35 35 0 0 0-1.995-4.265m16.258-57.401c-2.086.667-4.096 1.562-6.182 2.24-2.118.688-4.24 1.326-6.416 1.804-1.12.246-2.237.444-3.373.6a5.4 5.4 0 0 0-1.65.409 12 12 0 0 0-1.462.732 12.83 12.83 0 0 1-6.481 1.334c-.04-.005-.046.058-.01.07a9.6 9.6 0 0 0 3.209.428c1.065-.039 2.057-.384 3.103-.517.558-.072 1.099-.064 1.662-.166a6.8 6.8 0 0 0 1.857-.548c1.043-.505 2.057-1.043 3.127-1.492 2.138-.898 4.325-1.61 6.512-2.374a34.6 34.6 0 0 0 6.122-2.478.024.024 0 0 0-.018-.042m3.075 1.372a46 46 0 0 1-7.18 2.575c-.632.145-1.257.221-1.89.32a6.3 6.3 0 0 0-1.686.717c-1.196.597-2.348 1.202-3.595 1.698a.043.043 0 0 0 .023.083c1.255-.281 2.512-.463 3.774-.698a8 8 0 0 0 1.79-.465c.291-.13.523-.336.802-.49.308-.172.627-.329.939-.493 2.277-1.199 4.724-2.081 7.072-3.133.063-.028.017-.141-.049-.114m-2.558-3.983a6 6 0 0 0-1.449-.055c-.522.08-.766.406-1.247.563-.993.324-2.053.504-3.062.776a64 64 0 0 0-6.017 1.942c-.041.016-.025.08.02.068a278 278 0 0 1 6.09-1.672c1.015-.264 2.039-.554 3.07-.747.51-.096.867.124 1.394-.033a7 7 0 0 0 1.258-.63c.106-.057.047-.204-.057-.212M75.879 255.04c-.613-1.035-2.325-.58-3.172-.145-1.995 1.023-3.953 2.1-5.976 3.069-2.022.967-3.988 2.047-6.012 3.009a23 23 0 0 0-3.06 1.412c-.914.612-1.79 1.227-2.75 1.774-2.021 1.152-4.023 2.386-6.367 2.712-.06.008-.047.113.014.107a18.5 18.5 0 0 0 5.091-1.288c.823-.324 1.612-.742 2.405-1.13.94-.46 1.959-.738 2.878-1.231.908-.488 1.733-1.142 2.626-1.664.929-.543 1.884-1.045 2.826-1.565 1.814-.999 3.566-2.105 5.383-3.1q1.527-.835 3.068-1.644c.592-.31 1.656-.852 2.165-.274a11.8 11.8 0 0 0-2.25 1.436 16 16 0 0 1-1.224 1.117c-.47.332-.958.635-1.424.977a.027.027 0 0 0 .028.047c.474-.25.928-.521 1.392-.789a13 13 0 0 1 1.624-.671 13 13 0 0 0 2.594-1.623.4.4 0 0 0 .14-.536m-10.629 6.41a13 13 0 0 1-2.086 1.2c-.356.165-.711.333-1.075.481-.19.077-.397.132-.58.222-.177.088-.27.28-.413.416a.083.083 0 0 0 .058.14 1.7 1.7 0 0 0 .591.003 4 4 0 0 0 .552-.285 12 12 0 0 0 1.067-.634 23 23 0 0 0 1.933-1.481c.033-.028-.011-.087-.047-.061m-7.849 4.575c-.857.443-1.722.872-2.555 1.358-.031.018-.004.063.027.048.866-.427 1.7-.91 2.544-1.38.017-.01.002-.035-.016-.026m8.706-10.913a4 4 0 0 0-.676.082 3.7 3.7 0 0 0-.696.37c-.399.228-.79.467-1.185.703a54 54 0 0 1-2.474 1.417c-1.709.905-3.465 1.718-5.226 2.514-.036.016-.01.079.027.064 1.783-.694 3.533-1.465 5.281-2.242.905-.402 1.816-.79 2.719-1.194.421-.188.84-.38 1.252-.587a3.3 3.3 0 0 0 .69-.382 4.4 4.4 0 0 0 .417-.523.134.134 0 0 0-.129-.222m79.606-45.13a3.54 3.54 0 0 1-1.764.52 4.3 4.3 0 0 0-1.42.322 31 31 0 0 1-3.3.76q-3.465.758-6.928 1.525c-.04.008-.022.066.017.06q3.693-.617 7.386-1.239c.605-.102 1.21-.208 1.816-.306.596-.097 1.183-.098 1.774-.17a3.3 3.3 0 0 0 1.259-.594 11 11 0 0 0 1.207-.816c.035-.028-.01-.084-.047-.062m4.613-1.206a12 12 0 0 0-1.794.486q-.885.288-1.772.565a.008.008 0 0 0 .004.015q.9-.231 1.803-.453a12 12 0 0 0 1.782-.53.043.043 0 0 0-.023-.083m83.14-8.512a49 49 0 0 0-1.652-7.968.04.04 0 0 0-.076.02c.475 2.752.87 5.532 1.182 8.307.3 2.665.384 5.343.948 7.97.03.137.232.099.238-.033a48 48 0 0 0-.64-8.296m-2.683-2.033a14 14 0 0 0-.908-3.178.035.035 0 0 0-.068.019 26 26 0 0 1 .526 3.22c.095 1.025.126 2.069.304 3.084.01.055.092.05.105 0a7.7 7.7 0 0 0 .04-3.145m1.072 9.425a69 69 0 0 0-.266-1.493c-.196-1.033-.37-2.068-.538-3.106-.005-.03-.056-.023-.054.007.072 1.051.138 2.101.183 3.154q.032.76.08 1.518c.028.455.003 1.049.36 1.376a.13.13 0 0 0 .202-.026c.274-.402.108-.979.033-1.43m-2.443-.003c-.163-.917-.325-1.835-.466-2.757q-.438-2.864-.67-5.755c-.003-.034-.057-.035-.055 0q.158 2.846.509 5.676c.108.865.225 1.73.37 2.59a16.5 16.5 0 0 0 .583 2.844c.033.089.183.084.177-.024a23 23 0 0 0-.448-2.574m-2.198 2.24c-.074-.535-.155-1.068-.235-1.6l-.477-3.2c-.004-.025-.049-.02-.046.007l.384 3.211c.063.536.125 1.071.195 1.606a8 8 0 0 0 .252 1.492.04.04 0 0 0 .077-.01 8 8 0 0 0-.15-1.506m-2.785-.872c-.004-.054-.088-.055-.086 0 .05 1.306.076 2.614.227 3.913.005.043.07.046.07 0 .005-1.307-.115-2.61-.211-3.913m-3.296 1.526a6.9 6.9 0 0 0-.53 2.73.035.035 0 0 0 .07 0 15 15 0 0 1 .506-2.718c.009-.03-.035-.04-.046-.012M190.4 169.46c-.047-.398-.225-.744-.3-1.131-.006-.027-.046-.02-.046.006-.005.394-.133.772-.135 1.17q-.004.588.01 1.174.013.588.052 1.174a8 8 0 0 0 .1 1.105c.017.084.135.072.158 0a5.7 5.7 0 0 0 .182-1.105 10 10 0 0 0 .057-1.219 11 11 0 0 0-.078-1.173m-2.292.572q-.197.957-.322 1.926a8 8 0 0 0-.065 1.999c.006.051.087.075.1.013a17 17 0 0 0 .2-1.899q.078-1.006.215-2.004c.012-.082-.11-.121-.128-.035m-2.001 1.377a34 34 0 0 0-.437 3.905c-.001.039.06.05.069.01a34 34 0 0 0 .407-3.916c.002-.025-.036-.024-.039 0m-1.671 1.847c-.096.561-.192 1.12-.266 1.684l-.114.87c-.038.29-.038.58-.048.871a.035.035 0 0 0 .069.01c.059-.27.13-.54.164-.813l.106-.87c.07-.58.117-1.16.165-1.741.004-.044-.069-.054-.076-.01M182.192 176a.016.016 0 0 0-.032 0l-.004 1.022a.02.02 0 0 0 .04 0zm-41.801-8.854c-.003-.035-.056-.036-.055 0 .164 3.458.226 6.972.73 10.402.007.049.084.035.084-.012.013-3.463-.429-6.948-.759-10.39m2.846 9.895c-.2-2.5-.367-5.003-.464-7.51a.023.023 0 0 0-.047 0c-.007 2.546.04 5.092.185 7.633a38 38 0 0 0 .772 7.385.094.094 0 0 0 .184-.025c.046-2.483-.43-5.008-.63-7.483m2.62 7.56a8 8 0 0 1-.038-1.115 8 8 0 0 0 .095-.992c-.03-.744-.106-1.489-.154-2.232-.186-2.896-.322-5.794-.508-8.69a.027.027 0 0 0-.054 0c-.087 2.94-.027 5.875.085 8.814.027.702.046 1.406.089 2.108a5 5 0 0 0 .192.904 8 8 0 0 1 .14 1.327 35 35 0 0 0 .303 4.239c.023.12.205.087.208-.028.029-1.43-.26-2.907-.358-4.335m3.028 6.516c-.034-.663-.08-1.325-.12-1.988-.074-1.242-.143-2.484-.226-3.726l-.517-7.701c-.002-.035-.056-.036-.055 0l.241 7.825c.04 1.284.095 2.567.144 3.85.025.663.044 1.326.079 1.988a3.7 3.7 0 0 0 .224 1.538.095.095 0 0 0 .172-.022 4.3 4.3 0 0 0 .058-1.764m2.835 3.347q-.194-1.645-.349-3.295a190 190 0 0 1-.521-6.486c-.002-.03-.048-.03-.047 0 .051 2.205.14 4.41.327 6.608q.135 1.588.308 3.173a20 20 0 0 0 .46 3.186.082.082 0 0 0 .162-.022 27 27 0 0 0-.34-3.164m2.274 2.964-.667-4.251c-.004-.03-.049-.017-.045.012l.576 4.19.282 2.055a16 16 0 0 0 .357 2.12.04.04 0 0 0 .077-.011 31 31 0 0 0-.58-4.115m1.937 2.749c-.01-.04-.068-.023-.06.016.332 1.59.639 3.188 1.06 4.758.008.034.058.02.052-.015-.284-1.6-.68-3.177-1.052-4.76m3.544 7.197c-.16-.378-.357-.744-.538-1.114-.015-.031-.07-.009-.057.024.149.374.284.757.451 1.123.172.375.343.75.531 1.117.02.04.087.012.072-.03-.142-.378-.302-.748-.46-1.12m1.824 3.627a1.7 1.7 0 0 0-.367-.477c-.049-.043-.12.028-.072.072a1.6 1.6 0 0 1 .348.45 1.9 1.9 0 0 1 .19.536c.004.026.047.02.046-.007a1.4 1.4 0 0 0-.145-.574M62.593 428.41a23 23 0 0 0-3.716-1.196 47 47 0 0 1-3.853-1.343 35.5 35.5 0 0 1-7.282-3.966c-.036-.025-.082.034-.047.062a35 35 0 0 0 6.984 4.447 30 30 0 0 0 3.78 1.504 10.7 10.7 0 0 0 4.073.718c.108-.01.178-.167.06-.226m7.096-1.584a43 43 0 0 0-4.294-.876 48 48 0 0 1-4.268-1.085 40.5 40.5 0 0 1-8.248-3.523.035.035 0 0 0-.036.06 40.3 40.3 0 0 0 8.038 3.942 34 34 0 0 0 4.344 1.224 14.1 14.1 0 0 0 4.44.442.094.094 0 0 0 .024-.184m5.9-2.064a5.4 5.4 0 0 0-1.722-.288c-.677-.066-1.357-.101-2.034-.16a23 23 0 0 1-4.313-.895 58 58 0 0 1-8.04-2.868c-.063-.028-.119.063-.055.095a41.6 41.6 0 0 0 7.908 3.024c1.363.354 2.75.604 4.116.952.698.178 1.393.356 2.103.482a5 5 0 0 0 1.974.136.264.264 0 0 0 .063-.478m-6.75-3.902a.031.031 0 0 0-.017.06 32.6 32.6 0 0 0 12.756 1.79.012.012 0 0 0 0-.023 45.8 45.8 0 0 1-12.74-1.827m16.994 1.728c-.4.052-.797.123-1.194.187-.025.004-.015.042.01.038.397-.058.796-.109 1.19-.179.026-.005.02-.05-.006-.046m5.622-1.862a28 28 0 0 0-1.36.045c-.456.03-.907.081-1.36.137-.092.012-.098.152 0 .149.464-.015.924-.033 1.387-.075.45-.04.897-.102 1.346-.164.052-.007.039-.093-.013-.092M182.547 259.9c-.04-.05-.127 0-.088.052.563.746 1.116 1.498 1.716 2.215.022.027.07-.008.049-.038-.531-.764-1.109-1.492-1.677-2.229m9.229 42.704c-.021-.041-.079-.005-.061.036a39.6 39.6 0 0 0 4.938 8.514c.035.046.11-.013.08-.061a92 92 0 0 1-4.957-8.489m9.1 10.786-1.92-3.234c-1.264-2.118-2.536-4.232-3.797-6.353a.047.047 0 0 0-.08.048 234 234 0 0 0 3.641 6.583 183 183 0 0 0 1.853 3.133 25 25 0 0 0 2.003 3.057c.034.041.084-.011.067-.052a28 28 0 0 0-1.767-3.182m-.711-4.352a.02.02 0 0 0-.034.02 58 58 0 0 0 5.91 8.838c.028.034.085-.01.061-.047-1.954-2.954-4.01-5.838-5.937-8.811m8.229 9.255a109 109 0 0 0-2.149-2.104.031.031 0 0 0-.044.044c.665.753 1.334 1.5 2.02 2.234.684.735 1.411 1.424 2.143 2.11a.04.04 0 0 0 .055-.055c-.658-.759-1.318-1.514-2.025-2.229m10.238-8.726a44.3 44.3 0 0 1-8.012-7.294c-.056-.068-.177.024-.123.094a27.2 27.2 0 0 0 8.088 7.28c.053.031.095-.046.047-.08m2.724-1.027c-.53-.358-1.092-.673-1.627-1.028q-.802-.533-1.57-1.112a23 23 0 0 1-2.924-2.605c-.02-.022-.051.01-.033.034a18.4 18.4 0 0 0 2.822 2.83 15 15 0 0 0 1.567 1.09 10 10 0 0 0 1.73.878c.052.019.077-.058.035-.086m-28.431-80.544c-2.098-.716-4.277-1.17-6.408-1.777a56 56 0 0 1-6.507-2.141c-.05-.021-.094.049-.043.074 4.012 1.975 8.365 4.002 12.93 4.05a.106.106 0 0 0 .028-.206m-.032-1.737a33 33 0 0 0-3.335-1.008 47 47 0 0 1-3.297-1.1c-.053-.02-.09.069-.039.094a30 30 0 0 0 3.245 1.337 12 12 0 0 0 3.411.785c.067.002.067-.086.015-.108m2.403-1.802a14.4 14.4 0 0 0-4.098-.511.035.035 0 0 0 0 .07c1.36.11 2.731.292 4.076.524.053.009.077-.069.022-.083M179.45 57.601c-.528-1.078-1.186-2.09-1.76-3.144a68 68 0 0 1-1.626-3.215 66 66 0 0 1-2.808-6.846.02.02 0 0 0-.038.01 50 50 0 0 0 2.512 6.9 49 49 0 0 0 1.67 3.32 22 22 0 0 0 1.908 3.084c.067.084.184-.023.142-.109m3.661 1.345a47 47 0 0 1-.926-1.289c-.6-.875-1.084-1.806-1.626-2.716q-1.62-2.719-2.961-5.59c-.017-.037-.07-.005-.054.032a64 64 0 0 0 2.879 5.753c.519.916 1.143 1.776 1.69 2.678q.41.676.833 1.343a3.2 3.2 0 0 0 .827 1.03.051.051 0 0 0 .074-.057 3.8 3.8 0 0 0-.736-1.184m3.925 1.397q-.37-.592-.737-1.187-.808-1.318-1.582-2.657a212 212 0 0 1-2.958-5.314c-.024-.045-.089-.005-.068.04a84 84 0 0 0 2.842 5.498q.734 1.304 1.5 2.589.41.685.83 1.364a3.3 3.3 0 0 0 .744.988c.05.038.108-.024.098-.075a4 4 0 0 0-.67-1.246m.495-5.152-.9-1.59c-.013-.021-.045-.002-.034.02l.84 1.625c.277.54.558 1.087.888 1.596a.031.031 0 0 0 .054-.032c-.245-.555-.55-1.09-.849-1.619m4.5 6.825a1.6 1.6 0 0 0-.311-.539 6 6 0 0 0-.428-.452c-.285-.286-.58-.562-.874-.838a.074.074 0 0 0-.105.105 8 8 0 0 1 .72.954c.104.161.197.33.302.49.056.086.123.166.183.248a1 1 0 0 0 .096.13 1 1 0 0 0 .143.112.18.18 0 0 0 .188 0l.038-.029a.18.18 0 0 0 .048-.18m1.931-3.514c-.325-.459-.692-.891-1.04-1.333-.028-.034-.087.011-.062.048.322.475.632.962.978 1.42.341.45.684.895 1.041 1.333.028.034.086-.01.061-.047a48 48 0 0 0-.977-1.421m-20.424 46.832c-.014-.02-.047-.002-.033.02a36.7 36.7 0 0 1 3.181 5.989c.017.04.086.011.072-.03a21.5 21.5 0 0 0-3.22-5.98m7.086 10.281a21 21 0 0 1-1.446-2.288c-.014-.026-.054-.003-.04.024a20 20 0 0 0 1.423 2.392 13 13 0 0 0 1.746 2.084.035.035 0 0 0 .05-.05c-.583-.717-1.191-1.411-1.733-2.162m-4.219-1.245c-.037-.034-.091.02-.056.055 2.54 2.519 4.838 5.245 7.223 7.906.038.042.114-.015.08-.062a53.4 53.4 0 0 0-7.247-7.9m11.511 6.695-1.98-2.317c-1.3-1.52-2.623-3.021-3.941-4.526-.027-.031-.07.013-.044.044 1.259 1.52 2.513 3.045 3.79 4.55l1.857 2.188.987 1.162a8.4 8.4 0 0 0 1.02 1.128c.05.04.127-.01.092-.07a15.6 15.6 0 0 0-1.78-2.159m5.092 1.812-.963-1.058-1.983-2.18c-1.302-1.432-2.624-2.846-3.943-4.262-.048-.052-.123.025-.077.077 1.28 1.454 2.558 2.911 3.855 4.35l1.916 2.127.959 1.063a4.6 4.6 0 0 0 .962.963c.057.034.11-.031.085-.085a4.4 4.4 0 0 0-.811-.995m2.877-.722c-.535-.657-1.067-1.317-1.61-1.969q-1.626-1.952-3.293-3.866c-.032-.036-.097.013-.068.052a262 262 0 0 0 3.09 3.977c.527.664 1.065 1.32 1.6 1.979a9.4 9.4 0 0 0 1.646 1.845c.05.035.094-.031.075-.075a9.3 9.3 0 0 0-1.44-1.943m4.47.76c-.45-.456-.91-.903-1.368-1.35-.918-.896-1.854-1.771-2.788-2.65a.035.035 0 0 0-.05.05c.874.938 1.746 1.878 2.638 2.8.433.447.866.895 1.308 1.335a8.6 8.6 0 0 0 1.404 1.256.051.051 0 0 0 .07-.07 8.4 8.4 0 0 0-1.214-1.37m4.965.51a9 9 0 0 0-.75-.487c-.266-.17-.543-.325-.817-.484l-1.64-.959a.04.04 0 0 0-.04.068l1.597.97c.262.16.52.324.787.474a9 9 0 0 0 .834.455c.022.01.051-.018.029-.037m-3.391 43.071q-2.74-2.688-5.473-5.382c-3.654-3.593-7.468-6.998-11.38-10.309-.037-.032-.092.021-.055.056 3.777 3.451 7.513 6.947 11.275 10.414q2.822 2.602 5.542 5.312c1.805 1.804 3.52 3.733 5.42 5.435a.035.035 0 0 0 .05-.05c-1.644-1.948-3.561-3.691-5.38-5.476m6.682 2.475c-1.226-1.45-2.593-2.806-3.916-4.169q-1.949-2.01-3.952-3.965-4.049-3.959-8.355-7.639c-.045-.039-.11.025-.066.067q4.173 3.82 8.229 7.764 2.008 1.951 3.973 3.945c1.337 1.355 2.618 2.776 3.982 4.102.07.068.166-.033.105-.105m-7.33-12.246c-.037-.033-.092.02-.055.056 1.571 1.493 3.122 3.012 4.768 4.423.034.029.082-.017.05-.05-1.528-1.538-3.157-2.972-4.763-4.429M20.479 264.175a.095.095 0 0 0-.081.14 2.36 2.36 0 0 0-.839-.675 42 42 0 0 0-1.047-.652c-.756-.452-1.507-.913-2.268-1.357-1.522-.888-3.075-1.722-4.617-2.575a.047.047 0 0 0-.047.081c1.899 1.348 3.792 2.695 5.736 3.977.466.308.93.62 1.403.916a5.3 5.3 0 0 0 1.416.786c.249.059.583-.038.611-.33a.26.26 0 0 0-.267-.311m4.853.263c-.527-.729-1.501-.965-2.245-1.398-.814-.473-1.512-1.12-2.281-1.658-1.561-1.092-3.158-2.123-4.767-3.143-.048-.03-.107.044-.061.08 1.486 1.166 2.978 2.32 4.515 3.419a27 27 0 0 1 2.49 1.731c.355.32.656.695 1.028.997a1.74 1.74 0 0 0 1 .531.374.374 0 0 0 .321-.559m3.478-.638c-1.026-.787-2.256-1.206-3.25-2.049-.5-.425-.943-.913-1.471-1.307a14.6 14.6 0 0 0-1.895-1.076c-.086-.047-.19.071-.11.14.465.403.864.858 1.367 1.218a16 16 0 0 0 1.576.943 7 7 0 0 1 1.558 1.162c.45.445.842.945 1.318 1.365.31.274.953.988 1.416.701.52-.322-.257-.903-.51-1.096m3.516-.279a22 22 0 0 0-1.388-.921 18.7 18.7 0 0 0-2.934-1.437c-.085-.034-.131.097-.06.143a90 90 0 0 1 2.697 1.803q.647.448 1.28.916c.353.26.83.772 1.304.708a.16.16 0 0 0 .115-.15c-.041-.477-.666-.811-1.014-1.062m3.495-.38a4 4 0 0 0-.967-.597c-.17-.082-.347-.145-.523-.212-.19-.072-.39-.126-.575-.208-.045-.02-.084.042-.04.067.166.094.315.214.476.316.166.106.329.218.502.31a4.2 4.2 0 0 0 1.065.428c.057.012.111-.06.061-.104m.496 29.924c-3.575-1.143-7.194-2.127-10.733-3.385-.086-.03-.12.104-.038.136a63.3 63.3 0 0 0 10.748 3.332.043.043 0 0 0 .023-.083m6.832-1.358a10.5 10.5 0 0 0-3.062-.94c-1.07-.26-2.145-.504-3.216-.767-2.18-.535-4.359-1.066-6.523-1.663a.047.047 0 0 0-.025.09c2.12.735 4.254 1.45 6.412 2.066 1.06.302 2.12.602 3.19.862a9.5 9.5 0 0 0 3.181.512.087.087 0 0 0 .043-.16m4.616-1.884a14 14 0 0 0-3.258-.808c-1.167-.245-2.33-.5-3.488-.784-2.314-.565-4.626-1.14-6.904-1.835-.054-.016-.073.063-.023.083a57 57 0 0 0 6.764 2.343 59 59 0 0 0 3.476.825 10.7 10.7 0 0 0 3.368.416c.112-.014.194-.176.065-.24m1.683-2.559c-.402-.624-1.51-.414-2.16-.493a14 14 0 0 1-2.908-.785 56 56 0 0 0-5.533-1.35.066.066 0 0 0-.036.128 35 35 0 0 0 5.458 1.624 17 17 0 0 1 2.79.59c.451.156.886.351 1.33.526a1 1 0 0 0 .984.043.21.21 0 0 0 .075-.283m-3.233-3.08a11.5 11.5 0 0 0-2.914-1.009c-.053-.012-.093.066-.039.093a11.5 11.5 0 0 0 2.905 1.03c.066.013.115-.079.048-.114m7.321 34.732a36.3 36.3 0 0 0-7.168-2.558c-.058-.016-.1.074-.042.1a36.4 36.4 0 0 0 7.144 2.615c.091.02.157-.11.066-.157m7.01-.94a51 51 0 0 0-6.767-2.443c-2.327-.783-4.644-1.604-6.921-2.522-.037-.015-.063.046-.027.064 2.191 1.077 4.404 2.103 6.673 3.008a27 27 0 0 0 6.99 2.083.102.102 0 0 0 .052-.19m4.866-.849c-2.637-1.27-5.383-2.318-8.076-3.462a253 253 0 0 1-8.072-3.572c-.076-.036-.144.074-.067.114a140 140 0 0 0 8.023 3.891 60.4 60.4 0 0 0 8.159 3.108c.045.013.078-.057.033-.079m3.219-1.317a40 40 0 0 0-3.926-1.674q-2.172-.882-4.33-1.8a383 383 0 0 1-8.222-3.602c-.031-.014-.06.032-.027.047a204 204 0 0 0 8.226 3.834q1.96.856 3.935 1.68a33 33 0 0 0 4.296 1.63.063.063 0 0 0 .048-.115m-6.584-5.586c-2.484-1.338-5.079-2.46-7.678-3.554-.016-.007-.028.022-.012.029 2.57 1.156 5.091 2.415 7.655 3.585.04.019.076-.038.035-.06m8.645 3.692c-.178-.294-.685-.404-.99-.514-.398-.144-.804-.264-1.207-.393a71 71 0 0 1-2.365-.792c-.115-.041-.158.136-.05.181.774.317 1.536.659 2.298 1.003.365.164.727.339 1.098.491.189.078.379.158.573.223a.86.86 0 0 0 .532.076.19.19 0 0 0 .112-.275m-3.733-5.004a15 15 0 0 0-2.418-1.243 101 101 0 0 0-2.452-1.055c-1.701-.714-3.442-1.344-5.18-1.962-.024-.009-.033.028-.01.038 1.738.709 3.45 1.471 5.17 2.224.831.364 1.656.746 2.485 1.116a19 19 0 0 0 2.366.974.051.051 0 0 0 .04-.092m-4.567-4.488c-.792-.456-1.617-.85-2.441-1.245-.05-.024-.093.048-.043.074.806.43 1.612.862 2.449 1.232.04.018.076-.038.035-.06m23.011 13.169a20.4 20.4 0 0 0-.977 7.343.07.07 0 0 0 .14 0c.28-2.443.792-4.873.953-7.328.004-.07-.094-.073-.116-.015m-2.666 1.033a30.1 30.1 0 0 0-1.112 9.712c.008.085.148.12.162.022.454-3.224.562-6.484 1.063-9.703.012-.072-.095-.106-.113-.03m-2.613 2.557q-.37 2.776-.731 5.553-.178 1.387-.329 2.776a8.8 8.8 0 0 0-.06 2.592c.023.117.175.089.21 0a9 9 0 0 0 .432-2.592c.076-.925.147-1.85.205-2.776q.173-2.776.335-5.553c.002-.04-.057-.038-.062 0m-2.331 3.75q-.19 2.519-.442 5.034a33.4 33.4 0 0 0-.365 5.016.051.051 0 0 0 .1.014 21 21 0 0 0 .632-4.932q.136-2.566.114-5.132a.02.02 0 0 0-.04 0m-2.068 6.469q-.058.99-.183 1.973-.067.513-.142 1.024a4.4 4.4 0 0 0-.079.934c.003.045.073.076.095.025a6.1 6.1 0 0 0 .333-1.908q.088-1.022.101-2.048a.063.063 0 0 0-.125 0m-47.502 48.933a111 111 0 0 1-7.037-8.861 73 73 0 0 1-5.643-9.614c-.045-.092-.174-.012-.135.078 2.922 6.859 7.092 13.527 12.705 18.508a.078.078 0 0 0 .11-.11m-1.126-5.269a118 118 0 0 1-6.857-9.347c-.033-.05-.113-.004-.081.048a97 97 0 0 0 6.552 9.367 70.4 70.4 0 0 0 7.839 8.575.055.055 0 0 0 .077-.077c-2.548-2.826-5.126-5.613-7.53-8.567m10.114 7.339a52 52 0 0 1-8.162-9c-.036-.053-.124-.003-.087.052a38.2 38.2 0 0 0 8.206 9.003c.031.025.072-.028.042-.055m3.677-.59c-1.592-1.302-3.194-2.592-4.676-4.02a.02.02 0 0 0-.027.027 25.6 25.6 0 0 0 4.65 4.06c.04.027.09-.036.053-.067m147.617-9.622a9.5 9.5 0 0 1-1.16-1.132 4.4 4.4 0 0 0-1.306-.935 37 37 0 0 1-2.69-1.566 28.8 28.8 0 0 1-5.097-4.403c-3.074-3.142-5.874-6.552-8.696-9.918-.022-.027-.07.01-.049.038a108 108 0 0 0 8.61 10.164c1.57 1.588 3.262 3.043 4.863 4.596a38 38 0 0 0 2.467 2.192 3.6 3.6 0 0 0 1.37.74c.526.142 1.046.258 1.563.44.116.04.227-.137.125-.216m10.927 7.446a31 31 0 0 0-3.803-2.66 149 149 0 0 1-4.022-2.288c-.135-.08-.25.124-.122.21 1.29.853 2.561 1.73 3.824 2.624a31 31 0 0 0 4.043 2.25.078.078 0 0 0 .08-.136m-5.803-9.846a102 102 0 0 1-8.865-7.104.063.063 0 0 0-.089.088 34.6 34.6 0 0 0 8.89 7.124.063.063 0 0 0 .064-.108m9.47 5.334a1.2 1.2 0 0 0-.201-.284 1.7 1.7 0 0 0-.386-.242c-.243-.124-.494-.23-.74-.349-.524-.25-1.05-.498-1.566-.765a17 17 0 0 1-2.916-1.879c-.178-.143-.433.105-.254.254.902.756 1.827 1.496 2.794 2.167a15 15 0 0 0 1.474.922c.273.147.546.293.832.413a2 2 0 0 0 .383.13 1.1 1.1 0 0 0 .445-.034.228.228 0 0 0 .135-.333m3.842-4.75a18 18 0 0 0-3.299-1.628 36 36 0 0 1-3.255-1.744 43 43 0 0 1-6.107-4.47c-.04-.036-.101.023-.06.061a40 40 0 0 0 6.005 4.686 47 47 0 0 0 3.285 1.908 9.7 9.7 0 0 0 3.39 1.34c.09.009.097-.11.041-.153m3.292-4.606a5.3 5.3 0 0 0-.934-.281 5.8 5.8 0 0 1-1.14-.488c-.325-.165-.65-.33-.963-.516a9 9 0 0 1-.961-.737 13 13 0 0 0-1.822-1 40 40 0 0 1-1.868-1.13 61 61 0 0 1-7.16-5.302c-.048-.043-.119.025-.071.071a55.4 55.4 0 0 0 6.745 5.63 65 65 0 0 0 1.811 1.228 11 11 0 0 0 1.84 1.184 22 22 0 0 1 2.125.91c.321.166.66.313.966.508a9 9 0 0 0 .985.689c.514.242.964-.527.447-.766m3.343-5.122a.55.55 0 0 0-.3.25l-.08-.03a20 20 0 0 0-.849-.351 23 23 0 0 1-2.193-.94 41 41 0 0 1-3.848-2.244c-1.214-.785-2.418-1.587-3.677-2.3-.237-.134-.885-.65-1.203-.447a.232.232 0 0 0-.035.395.043.043 0 0 0 .067-.052c-.096-.175.624.263.656.288q.28.215.569.42.576.406 1.173.778c.764.477 1.543.919 2.335 1.348 1.613.873 3.247 1.723 4.806 2.693.57.356 3.01 2.5 3.395.99a.657.657 0 0 0-.816-.798m3.864-3.517a5.6 5.6 0 0 0-1.311-.438 9.5 9.5 0 0 1-1.569-.609c-.911-.428-1.794-.914-2.696-1.36a48 48 0 0 0-5.361-2.37c-.043-.014-.067.05-.03.072a47 47 0 0 0 5.395 2.717c.924.412 1.858.797 2.771 1.233.877.418 1.597 1.134 2.491 1.49.428.17.703-.518.31-.735m3.006-3.531c-.312-.502-1.137-.63-1.658-.8-.714-.232-1.427-.463-2.133-.718-1.388-.5-2.786-.971-4.177-1.465-.058-.02-.08.068-.025.09 1.347.558 2.685 1.138 4.035 1.688.704.286 1.396.595 2.09.903.504.224 1.212.69 1.777.526a.154.154 0 0 0 .09-.224m2.092-3.829a7.4 7.4 0 0 0-1.326-.512l-1.327-.442a50 50 0 0 0-2.78-.834c-.03-.008-.04.034-.013.045.884.36 1.773.698 2.677 1.006l1.325.451a7.6 7.6 0 0 0 1.393.407c.069.01.123-.08.051-.121m2.885-3.028a6.6 6.6 0 0 0-1.585-.383l-1.66-.304c-.04-.007-.057.05-.017.06l1.632.407a6.6 6.6 0 0 0 1.606.307c.044 0 .068-.067.024-.087m2.927-3.302a3 3 0 0 0-.192-.035.37.37 0 0 0-.22-.063 2 2 0 0 0-.26.023c-.148.023-.293.062-.441.08a2.2 2.2 0 0 1-.958-.01c-.04-.014-.07.054-.03.072.161.068.31.163.47.237a2.2 2.2 0 0 0 .472.165 2 2 0 0 0 .533.06 1.1 1.1 0 0 0 .292-.054.4.4 0 0 0 .21-.16 1 1 0 0 0 .17-.146.103.103 0 0 0-.046-.17m2.447-2.957a.1.1 0 0 0-.043-.106.2.2 0 0 0-.109-.014.3.3 0 0 0-.188-.03l-.142.035c-.087.023-.17.06-.258.081a1.4 1.4 0 0 1-.526.025.106.106 0 0 0-.056.203 2.2 2.2 0 0 0 .62.127 1.1 1.1 0 0 0 .336-.015 1 1 0 0 0 .138-.048.27.27 0 0 0 .155-.159.2.2 0 0 0 .073-.1m-41.251 41.608c-.488-.25-1.012-.422-1.5-.673a48 48 0 0 1-2.76-1.554q-2.759-1.657-5.486-3.365c-.043-.027-.08.04-.04.067q2.674 1.797 5.401 3.51c.896.56 1.794 1.121 2.662 1.722.451.313.862.683 1.314.992a2.2 2.2 0 0 0 1.264.354.087.087 0 0 0 .074-.13 2.25 2.25 0 0 0-.929-.923m5.904 3.676a2.3 2.3 0 0 0-.438-.287c-.331-.176-.674-.328-1.016-.483q-1.025-.464-2.043-.945c-.233-.11-.437.223-.205.35q.982.543 1.951 1.103c.324.187.646.376.982.542.268.132.69.345.991.224a.105.105 0 0 0 .071-.125.8.8 0 0 0-.293-.378m-3.165 4.495a13.6 13.6 0 0 0-2.516-1.317q-1.265-.616-2.51-1.272a84 84 0 0 1-5.038-2.895c-.065-.04-.122.06-.06.102a100 100 0 0 0 4.954 3.038q1.218.701 2.457 1.364a10.7 10.7 0 0 0 2.588 1.196c.113.024.234-.13.125-.216m-2.343 3.996a18.5 18.5 0 0 0-4.444-2.559c-1.551-.72-3.121-1.4-4.7-2.059-.045-.018-.076.058-.033.079q2.329 1.134 4.58 2.412a28 28 0 0 0 4.49 2.31.11.11 0 0 0 .107-.183m-2.419 4.256a15.2 15.2 0 0 0-2.973-1.517 38 38 0 0 0-3.207-1.138c-.054-.017-.072.062-.022.083 1.06.44 2.104.92 3.147 1.398a32 32 0 0 0 2.997 1.31c.085.029.122-.09.057-.136m-33.389 3.8c-2.843-1.901-5.743-3.71-8.519-5.711q-4.237-3.054-8.202-6.472c-.053-.045-.13.03-.078.077a98 98 0 0 0 7.938 6.531 66.6 66.6 0 0 0 8.81 5.663.05.05 0 0 0 .05-.088m9.501 1.138a6.2 6.2 0 0 0-1.346-.815q-.778-.423-1.548-.86-1.444-.82-2.858-1.69-2.922-1.797-5.717-3.792a103 103 0 0 1-10.749-8.813c-.044-.04-.11.024-.066.067a89.6 89.6 0 0 0 10.457 8.923q2.775 2.019 5.699 3.82 1.507.93 3.048 1.804.77.436 1.548.858a5.6 5.6 0 0 0 1.434.668.102.102 0 0 0 .099-.17m6.022-.479q-.598-.336-1.21-.646c-.887-.448-1.816-.81-2.685-1.293-1.717-.957-3.334-2.173-4.954-3.284q-4.98-3.418-9.709-7.192c-.027-.022-.065.015-.038.038a100 100 0 0 0 9.384 7.324c1.635 1.123 3.338 2.123 5.005 3.195.838.54 1.588 1.2 2.411 1.761q.661.452 1.355.853c.359.206.663.432 1.084.316a.26.26 0 0 0 .177-.313c-.121-.425-.444-.548-.82-.759m9.02.559c-.271-.5-.966-.652-1.467-.858-.667-.275-1.346-.512-2.022-.764a25.7 25.7 0 0 1-4.156-2.109c-2.534-1.516-4.894-3.293-7.515-4.665-.065-.033-.138.051-.08.105a32.4 32.4 0 0 0 7.441 4.823c1.32.69 2.678 1.34 3.95 2.116.653.4 1.3.802 1.983 1.146.506.255 1.145.703 1.726.55a.237.237 0 0 0 .14-.344m6.288-.941a20 20 0 0 0-2.636-1.244q-1.284-.593-2.551-1.218c-1.72-.846-3.42-1.741-5.1-2.665a.059.059 0 0 0-.059.101 62 62 0 0 0 7.74 4.115 13 13 0 0 0 2.564 1.01.055.055 0 0 0 .042-.1m-11.091-9.802c-1.5-.91-3.061-1.707-4.614-2.522a.023.023 0 0 0-.023.04c1.518.876 3.026 1.77 4.597 2.55a.04.04 0 0 0 .04-.068m71.304-78.258a21 21 0 0 0-2.368-1.12 62 62 0 0 1-2.316-1.084 39 39 0 0 1-4.481-2.609c-.026-.017-.047.023-.024.04a39 39 0 0 0 4.407 2.899 26 26 0 0 0 2.353 1.184 10.4 10.4 0 0 0 2.38.804.063.063 0 0 0 .049-.114m3.781-4.137a16 16 0 0 0-2.375-.88c-.813-.274-1.628-.544-2.432-.845a55 55 0 0 1-4.951-2.115c-.04-.02-.075.038-.036.06a43 43 0 0 0 4.816 2.46 16.1 16.1 0 0 0 4.91 1.567.134.134 0 0 0 .068-.248m.644-4.192c-.866-.373-1.79-.61-2.678-.925a27 27 0 0 1-2.768-1.142c-.027-.013-.05.025-.024.04a23 23 0 0 0 2.628 1.32 9.6 9.6 0 0 0 2.814.809c.052.004.077-.08.028-.102m2.037-3.62a8.7 8.7 0 0 0-1.594-.276 32 32 0 0 0-1.646-.108.04.04 0 0 0-.01.077c.54.106 1.077.207 1.621.287a8.6 8.6 0 0 0 1.617.112.047.047 0 0 0 .012-.092m3.559-3.59a3 3 0 0 1-.38-.027c-.125-.017-.252-.015-.377-.032a6 6 0 0 1-.753-.116c-.104-.027-.179.13-.076.178a2.2 2.2 0 0 0 .795.239 1.8 1.8 0 0 0 .411-.012 2.6 2.6 0 0 0 .396-.114.059.059 0 0 0-.016-.116m-108.263-21.18c-.735-.474-1.568-.816-2.347-1.216-.785-.402-1.562-.819-2.34-1.234q-2.336-1.246-4.601-2.616c-.03-.018-.057.028-.028.047q2.277 1.433 4.628 2.745c.77.43 1.553.836 2.34 1.236a17.4 17.4 0 0 0 2.324 1.095c.035.012.053-.038.024-.057m5.095-.205-.302-.348c-.018-.02-.051.006-.037.029.147.233.276.313-.063.08a9 9 0 0 0-.795-.434l-1.391-.76-2.883-1.571c-1.955-1.067-3.925-2.106-5.889-3.155-.035-.02-.066.034-.031.054 1.88 1.043 3.754 2.1 5.643 3.127 1.878 1.021 3.735 2.178 5.677 3.07a.059.059 0 0 0 .07-.092m4.521-.443a6.8 6.8 0 0 0-1.362-.777q-.793-.404-1.584-.815-1.48-.774-2.935-1.593a137 137 0 0 1-5.93-3.526c-.03-.019-.056.028-.027.047a92 92 0 0 0 5.84 3.678q1.448.832 2.92 1.619a68 68 0 0 0 1.58.823 6.2 6.2 0 0 0 1.449.628c.045.01.09-.049.049-.084m2.267-1.017c-1.402-1.037-2.973-1.893-4.452-2.816q-2.234-1.395-4.484-2.763c-.021-.013-.04.02-.02.034q2.205 1.444 4.428 2.86c1.47.937 2.918 1.988 4.457 2.806a.07.07 0 0 0 .071-.121m2.638-.804a3 3 0 0 0-.693-.432 49 49 0 0 1-.857-.478q-.827-.474-1.632-.985-1.609-1.022-3.12-2.185c-.028-.021-.066.027-.038.05q1.477 1.168 3.05 2.206.796.524 1.616 1.011.397.237.799.464a3 3 0 0 0 .845.402.032.032 0 0 0 .03-.053m2.498-1.262a5 5 0 0 0-.958-.597l-1.014-.567-2.063-1.152a.047.047 0 0 0-.047.08l2.043 1.186q.503.29 1.005.582a5 5 0 0 0 1.004.52.031.031 0 0 0 .03-.052m2.926-1.055a13.8 13.8 0 0 0-2.474-1.351l-2.616-1.272c-.04-.02-.075.038-.035.06l2.533 1.414a13.8 13.8 0 0 0 2.528 1.26c.06.018.118-.07.064-.111m1.52-1.684a1.5 1.5 0 0 0-.406-.249 10 10 0 0 0-.485-.241l-1.02-.473-2.006-.93c-.08-.038-.153.08-.07.12l2.015.99.973.477q.244.12.494.226a1.6 1.6 0 0 0 .47.167.051.051 0 0 0 .035-.087m1.385-1.789a14 14 0 0 0-1.755-.706c-.606-.227-1.222-.43-1.836-.638-.034-.012-.046.04-.014.053.59.246 1.178.498 1.775.726a14 14 0 0 0 1.8.637c.042.01.07-.05.03-.072m1.015-2.367a2 2 0 0 0-.386-.117 6 6 0 0 1-.396-.136 2.7 2.7 0 0 1-.734-.421c-.057-.046-.14.03-.083.083a2.9 2.9 0 0 0 .735.5 2 2 0 0 0 .418.143 1 1 0 0 0 .435.034.047.047 0 0 0 .011-.086m1.71-1.51a.5.5 0 0 0-.203-.12l-.242-.102-.5-.21c-.318-.136-.651-.243-.976-.363-.02-.008-.034.025-.015.035.316.157.628.328.95.47l.479.212.24.105a.5.5 0 0 0 .229.067.055.055 0 0 0 .038-.094m1.358-2.172-.102-.025.06.047c-.063-.101-.204-.113-.315-.124-.071-.008-.158-.026-.252-.042a1.5 1.5 0 0 1-.273-.075c-.084-.032-.172-.053-.255-.09a.079.079 0 0 0-.095.123 1 1 0 0 0 .222.221 1.6 1.6 0 0 0 .3.15 1.1 1.1 0 0 0 .325.063c.112.01.29-.009.344-.123l-.037.037q.047-.022.093-.048a.063.063 0 0 0-.015-.114m.596-2.275-.018-.042a.2.2 0 0 0-.105-.08.3.3 0 0 0-.058-.006l-.016.001-.028.003-.059.006a.17.17 0 0 0-.164.165.17.17 0 0 0 .048.116l.033.025a.16.16 0 0 0 .083.023l.06.006.027.003.016.001a.3.3 0 0 0 .058-.006l.042-.017a.13.13 0 0 0 .05-.045.1.1 0 0 0 .022-.04.13.13 0 0 0 .015-.066Zm-57.804 49.086a9 9 0 0 0-1.802-.533c-.602-.155-1.202-.32-1.804-.475q-1.875-.484-3.733-1.033c-.043-.013-.061.053-.018.068q1.835.624 3.69 1.186c.595.18 1.196.34 1.797.5a7.8 7.8 0 0 0 1.842.389.055.055 0 0 0 .028-.102m4.068-.299a16 16 0 0 0-2.094-.692c-.728-.215-1.455-.429-2.18-.656q-2.208-.693-4.398-1.449c-.025-.008-.034.029-.01.038a74 74 0 0 0 4.352 1.616 22 22 0 0 0 4.309 1.223.043.043 0 0 0 .021-.08m3.054-1.147a6.5 6.5 0 0 0-1.604-.476q-.834-.223-1.663-.464c-1.126-.327-2.25-.654-3.366-1.014-.034-.01-.047.041-.014.053 1.103.397 2.213.784 3.336 1.122q.827.248 1.659.48a5.7 5.7 0 0 0 1.632.372.04.04 0 0 0 .02-.073m2.246-1.024c-.7-.275-1.453-.42-2.17-.647q-1.079-.34-2.128-.762c-.017-.007-.029.021-.012.028q1.04.456 2.113.833a10.5 10.5 0 0 0 2.188.617c.042.005.043-.056.009-.069m3.215-.785a10.7 10.7 0 0 1-2.02-.407c-.038-.013-.054.047-.016.06a6 6 0 0 0 2.036.394c.03 0 .029-.043 0-.047m3.901-1.743a9 9 0 0 1-1.29.352 4.5 4.5 0 0 1-1.405-.02c-.054-.01-.078.072-.023.082a4.6 4.6 0 0 0 1.419.05 3.1 3.1 0 0 0 1.32-.414.027.027 0 0 0-.022-.05m-48.669 6.073a2.6 2.6 0 0 0-.907-.317q-.537-.132-1.071-.27c-.688-.179-1.374-.365-2.06-.55a69 69 0 0 1-4.152-1.252c-.01-.004-.014.011-.004.015 1.385.504 2.777.994 4.181 1.444.702.225 1.41.43 2.12.625a5.2 5.2 0 0 0 1.882.39c.044-.006.04-.065.011-.085m2.913-1.07a7.7 7.7 0 0 0-1.829-.474q-.985-.223-1.962-.485a70 70 0 0 1-3.87-1.156c-.043-.014-.059.052-.018.068a39 39 0 0 0 3.824 1.322q.971.277 1.954.515a6.2 6.2 0 0 0 1.871.319c.053-.005.086-.08.03-.11m1.888-1.275a6.5 6.5 0 0 0-1.39-.339c-.462-.096-.923-.201-1.387-.297q-1.443-.298-2.872-.664a.035.035 0 0 0-.018.068q1.407.436 2.832.808c.458.119.92.218 1.382.316a5.5 5.5 0 0 0 1.424.218c.052-.004.086-.083.03-.11m.83-1.173a19 19 0 0 0-2.04-.357c-.048-.007-.07.066-.02.076a19 19 0 0 0 2.05.35c.04.003.047-.058.01-.069m.329-.994a.016.016 0 0 0 0 .031h.17a.016.016 0 0 0 0-.031Zm15.38-137.245a30.7 30.7 0 0 0-3.977-3.148q-2.136-1.49-4.382-2.813a.078.078 0 0 0-.079.135q2.193 1.336 4.283 2.83c1.387.994 2.712 2.076 4.117 3.045.03.02.063-.024.038-.049m-.254 2.22q-1.257-1.115-2.59-2.14a39.5 39.5 0 0 0-5.91-3.732.043.043 0 0 0-.043.074 60 60 0 0 1 5.728 3.95q1.307 1.016 2.54 2.122a32 32 0 0 0 2.506 2.194c.037.027.09-.027.064-.065a14 14 0 0 0-2.295-2.403m-3.993.145a45 45 0 0 0-3.145-2.267c-1.112-.722-2.255-1.397-3.393-2.076-.08-.048-.143.07-.071.121 1.059.769 2.115 1.546 3.201 2.275a45 45 0 0 0 3.351 2.02c.045.025.1-.04.057-.073m6.308 4.891a1.5 1.5 0 0 0-.44-.532 15 15 0 0 0-.505-.442 19 19 0 0 0-1.048-.8 26 26 0 0 1-2.08-1.593c-.07-.063-.174.038-.104.105a26 26 0 0 1 1.752 1.928c.277.32.549.64.847.94q.235.24.48.467a1.7 1.7 0 0 0 .589.437c.275.088.633-.216.509-.51m-5.625-.118a16.3 16.3 0 0 0-3.112-2.342.047.047 0 0 0-.057.074 16.3 16.3 0 0 0 3.098 2.36c.056.035.12-.048.071-.093m4.157 3.699a2 2 0 0 0-.215-.181l-.415-.302a13 13 0 0 1-.822-.634c-.083-.07-.204.047-.121.122.26.235.504.489.745.744l.357.377a2 2 0 0 0 .193.173.45.45 0 0 0 .283.138.164.164 0 0 0 .155-.204.43.43 0 0 0-.16-.233m-2.843 2.666c-.019-.03-.067-.002-.047.028l.344.508c.017.025.057.002.04-.023zm29.626-50.908c-.447-.108-.898-.168-1.347-.26a1.6 1.6 0 0 0-.624-.076 3.4 3.4 0 0 0-.613.233 9.5 9.5 0 0 1-1.45.213q-.725.112-1.448.239a47 47 0 0 0-5.63 1.297 18.6 18.6 0 0 0-4.758 2.16 33 33 0 0 0-4.002 3.272c-.027.024.012.06.038.038a32 32 0 0 1 4.197-3.127 17.2 17.2 0 0 1 5.014-1.856c1.773-.396 3.579-.671 5.375-.936q.727-.108 1.456-.203a7 7 0 0 1 1.335-.163 3 3 0 0 0 .654.074 1.8 1.8 0 0 0 .681-.257c.373-.176.767-.313 1.143-.484a.09.09 0 0 0-.021-.164m4.734.208q.02.032-.017-.02a.15.15 0 0 0-.068-.04 1 1 0 0 0-.098-.024 4 4 0 0 0-.511-.048c-.333-.024-.661-.072-.992-.116-.057-.008-.085.076-.025.09.32.075.64.146.954.24a4 4 0 0 0 .49.14c.035.006.072.014.108.016a.2.2 0 0 0 .074-.004.15.15 0 0 0 .068-.039c-.04.014.03.01.045.001a.12.12 0 0 0 .052-.064c.017-.067-.037-.097-.08-.132m-8.371 2.938a70 70 0 0 0-9.503 2.328.035.035 0 0 0 .019.068 70 70 0 0 0 9.515-2.283.059.059 0 0 0-.03-.113m86.371 68.883q-3.546 3.732-7.062 7.493c-.03.033.02.083.05.05q3.514-3.763 7.023-7.532c.006-.008-.004-.019-.011-.011m9.073-8.93a8 8 0 0 0-1.142.913q-.595.518-1.167 1.06-1.13 1.071-2.17 2.232c-.006.008.004.019.011.011q1.046-1.125 2.179-2.165.55-.505 1.121-.988a14 14 0 0 0 1.201-1.02.027.027 0 0 0-.033-.043m-3.408-7.922a59 59 0 0 0-5.892 4.26 55 55 0 0 0-2.693 2.47c-.436.424-.86.861-1.279 1.302a2.3 2.3 0 0 0-.512.622 5.7 5.7 0 0 1-.397.94c-.048.076.055.14.116.09a4.8 4.8 0 0 1 .897-.49 2.3 2.3 0 0 0 .538-.52c.414-.446.837-.883 1.262-1.32q1.24-1.274 2.552-2.474a64 64 0 0 1 5.519-4.69c.111-.082.009-.268-.11-.19m-13.745 13.369-.256.255a.05.05 0 0 0 .071.071l.255-.255a.05.05 0 0 0-.07-.07m10.315 6.102c-1.228 1.084-2.442 2.168-3.57 3.358a32.5 32.5 0 0 0-3.083 3.682c-.066.093.075.192.153.118 1.162-1.103 2.258-2.303 3.35-3.475 1.098-1.181 2.158-2.397 3.26-3.573a.078.078 0 0 0-.11-.11"/></svg>