<svg xmlns="http://www.w3.org/2000/svg" data-name="two" viewBox="0 0 255.585 528.105"><path fill="currentColor" d="M251.218 297.617a39 39 0 0 0-4.759-10.591 37.8 37.8 0 0 0-6.735-7.322c-.63-.54-1.28-1.03-1.943-1.5q-1.477-1.712-2.95-3.427c-1.317-1.528-2.723-2.953-4.14-4.385q-2.266-2.29-4.488-4.62a15 15 0 0 0 .05-2.82c-.065-1.372-.08-2.741-.173-4.112l-.563-8.349c-.371-5.51-.728-11.02-1.12-16.528-.384-5.419-.862-10.828-1.598-16.211a145 145 0 0 0-2.868-15.746c-.359-1.427-.677-2.87-1.118-4.275l-.016-.048c.41-4.246.494-8.489.586-12.77l.32-14.89q.323-15.084.663-30.166c.214-10 .483-19.957-.692-29.912-1.161-9.844-2.816-19.562-2.952-29.499-.069-5.02.043-10.036-.277-15.05a126 126 0 0 0-1.818-14.594 127.2 127.2 0 0 0-7.962-26.98c-2.755-6.454-6.868-13.297-13.866-15.705-7.256-2.498-15.305 1.157-19.93 6.877-5.355 6.624-6.808 15.4-7.17 23.675-.433 9.943.514 19.99 1.412 29.887.224 2.472.494 4.937.773 7.404a.43.43 0 0 0 .086.209 41 41 0 0 0-.49 4.758c-.228 4.201.127 8.422.25 12.621a230 230 0 0 1-.908 26.655c-.775 8.918-1.928 17.797-3.18 26.659-.614 4.341-1.176 8.699-1.904 13.023a39.5 39.5 0 0 1-3.754 11.816 103 103 0 0 1-6.338 10.237c-1.051 1.548-2.141 3.072-3.335 4.514-.461.558-.954 1.087-1.444 1.618a49 49 0 0 1-4.541-4.248c-.462-.759-.94-1.509-1.388-2.272a92 92 0 0 1-3.658-6.924 155 155 0 0 1-5.927-14.558c-1.8-5.026-3.462-10.1-5.21-15.146a144 144 0 0 0-5.796-14.786c-1.044-2.195-2.192-4.323-3.38-6.438a73 73 0 0 0-1.775-7.276c-1.407-4.492-4.004-8.27-6.724-12.052a87 87 0 0 1-7.529-12.317 124 124 0 0 1-5.52-13.893 237 237 0 0 0-11.91-27.601c-4.582-9.147-9.352-18.2-14.025-27.3C65.74 15.967 62.147 7.526 54.94 2.965c-7.191-4.55-16.797-3.706-23.42 1.468a23.2 23.2 0 0 0-7.068 9.443 26.8 26.8 0 0 0-1.588 13.279 65.2 65.2 0 0 0 3.609 14.135q2.469 7.033 5.284 13.939 2.765 6.802 5.84 13.473a129 129 0 0 0 6.47 12.783c.873 3.454 1.938 6.85 3.004 10.254 1.332 4.25 2.73 8.48 4.102 12.717q4.12 12.713 8.272 25.415l4.179 12.696c1.357 4.125 2.628 8.294 4.216 12.338a87.4 87.4 0 0 0 5.778 11.447c2.212 3.862 4.456 7.706 6.685 11.558q6.66 11.505 13.488 22.904c.277.465.55.932.832 1.394a6 6 0 0 0 .514.7c.041.423.076.846.088 1.279v.028a115 115 0 0 0-3.958-.539q-1.646-.191-3.297-.336a6.9 6.9 0 0 0-3.11.174 5.1 5.1 0 0 0-1.46.911 12.2 12.2 0 0 0-8.117 3.736 16.6 16.6 0 0 0-2.122 2.546c-2.313-3.683-6.867-5.478-11.06-5.902-5.378-.543-10.658 1.372-15.37 3.79-4.458 2.288-9.1 4.937-12.524 8.661a17.6 17.6 0 0 0-3.847 6.435 24.8 24.8 0 0 0-.978 8.292c.083 3.314.424 6.633.8 9.925.2 1.743.404 3.49.711 5.218a15 15 0 0 0 .559 2.488l.22.614a11.1 11.1 0 0 0-4.514-1.564c-3.214-.35-6.371.835-9.314 1.975-4.817 1.867-9.952 3.922-13.458 7.885a15.8 15.8 0 0 0-3.59 7.297 50.6 50.6 0 0 0-.765 9.501c-.072 3.864-.02 7.74.232 11.598.078 1.199.175 2.397.282 3.594-.006.523-.013 1.047-.002 1.567a45 45 0 0 0 .294 4.334c.168 1.43.476 2.84.646 4.269.346 2.912-.357 5.92-.596 8.823q-.363 4.413-.323 8.848a7.6 7.6 0 0 0 .734 3.988 3 3 0 0 0 .36.468 13.2 13.2 0 0 0-.794 2.546 22 22 0 0 0-.391 3.174 62 62 0 0 0 .015 6.426c.211 4.451.49 8.9.739 13.35l.752 13.464c.24 4.29.33 8.663 1.433 12.84a36 36 0 0 1 1.442 6.141c.179 2.152-.007 4.31.04 6.465a42.3 42.3 0 0 0 2.14 11.947 90 90 0 0 0 4.635 11.281c1.754 3.676 3.581 7.32 5.429 10.95 1.84 3.615 3.743 7.2 5.808 10.694q1.544 2.61 3.22 5.141a28.2 28.2 0 0 0 3.653 4.841 25 25 0 0 0 2.076 1.702 109 109 0 0 0 5.783 13.706c2.328 4.597 4.872 9.09 7.46 13.545a57 57 0 0 0 7.093 10.108 25 25 0 0 0 3.347 3.092 10.2 10.2 0 0 0 .993 3.616q.879 2.078 1.722 4.171 1.732 4.31 3.312 8.68c2.067 5.739 3.777 11.566 5.546 17.398a39 39 0 0 0 1.61 4.45 4.3 4.3 0 0 0 1.248 1.791 19 19 0 0 1 1.716 1.65.177.177 0 0 0 .276-.213 5.7 5.7 0 0 1-.784-1.921 7.7 7.7 0 0 0-.657-2.116 32 32 0 0 1-1.37-3.759c-.88-2.84-1.658-5.712-2.55-8.55q-2.751-8.75-6.18-17.27-.987-2.437-2.027-4.852a19 19 0 0 0-.887-1.843 16.8 16.8 0 0 0 6.082 1.585c.202.018.231-.291.046-.345a16.5 16.5 0 0 1-5.075-2.67 34 34 0 0 1-4.284-3.573 49 49 0 0 1-6.954-9.557 193 193 0 0 1-13.534-26.73c-1.065-2.678-2.037-5.392-3.014-8.104s-1.8-5.491-2.922-8.148c-.031-.076-.174-.08-.16.021a60 60 0 0 0 1.636 7.545c.454 1.74.966 3.462 1.504 5.177a30 30 0 0 0-1.344-2.02q-1.758-2.47-3.357-5.048c-2.107-3.375-4.035-6.859-5.878-10.384-1.865-3.567-3.652-7.175-5.432-10.785a119 119 0 0 1-4.916-11.002 46.2 46.2 0 0 1-2.88-11.614c-.403-4.166.282-8.348-.786-12.447-.534-2.055-1.189-4.057-1.527-6.16a61 61 0 0 1-.576-6.222q-.376-6.588-.737-13.178l-.745-13.34c-.118-2.119-.25-4.238-.301-6.36-.052-2.1.053-4.184.176-6.279.043-.724.094-1.441.139-2.16.487.338.963.562 1.09 1.199.037.19.289.149.346 0a2.82 2.82 0 0 0-.558-2.463 9 9 0 0 1-.865-1.306 4.8 4.8 0 0 1-.3-1.648 76 76 0 0 1 .164-8.707q.144-2.209.39-4.41a31 31 0 0 0 .326-4.306 22 22 0 0 0-.695-4.257 43 43 0 0 1-.783-4.35c-.053-.432-.08-.867-.12-1.3-.07-1.179-.143-2.357-.19-3.537v-.003a48 48 0 0 1 .025-4.945.031.031 0 0 0-.061-.008l-.089.44c-.03-1.842-.04-3.684-.005-5.527.057-3.083.154-6.189.476-9.258a17.74 17.74 0 0 1 2.529-8.023c2.7-4.094 7.454-6.352 11.854-8.14a35 35 0 0 1 8.336-2.703 9.8 9.8 0 0 1 7.705 2.282c2.46 2.052 4.166 4.924 5.87 7.596q1.233 1.932 2.44 3.876c1.901 5.424 3.842 10.827 6.014 16.15 4.934 12.09 10.171 24.052 15.406 36.013l8.075 18.451c2.487 5.684 4.847 11.447 7.53 17.043 2.031 4.24 4.492 8.49 8.038 11.651a.6.6 0 0 0-.128.186c-1.614 3.62-3.29 7.15-6.253 9.887a15.05 15.05 0 0 1-10.647 4.09 11.96 11.96 0 0 1-5.515-1.495 18.6 18.6 0 0 1-4.818-4.402 813 813 0 0 1-9.19-11.097c-6.146-7.53-12.126-15.206-17.545-23.28q-3.842-5.726-7.308-11.69c-2.31-3.966-4.567-7.981-6.685-12.052-2.136-4.107-4.11-8.291-5.976-12.527-1.882-4.275-3.523-8.642-5.29-12.963-.404-.989-.809-1.975-1.225-2.959-.032-.075-.146-.02-.128.054a107 107 0 0 0 4.407 13.506 196 196 0 0 0 2.05 5.107c-.13-.13-.262-.255-.39-.385a24.6 24.6 0 0 1-3.028-3.678 26.5 26.5 0 0 1-2.204-4.232c-.666-1.549-1.376-3.094-2.002-4.66a.066.066 0 0 0-.128.036 43 43 0 0 0 1.336 4.96 23 23 0 0 0 2.177 4.376 31 31 0 0 0 2.968 3.77q.8.897 1.657 1.742a8 8 0 0 0 .697.63q1.17 2.71 2.402 5.394c1.991 4.32 4.083 8.577 6.416 12.723q3.493 6.204 7.417 12.153c2.43 3.696 4.991 7.302 7.628 10.852-.803 3.794-1.82 7.534-2.61 11.33a.055.055 0 0 0 .105.029 54 54 0 0 0 2.679-11.126c.53.711 1.057 1.424 1.593 2.13-.223.872-.448 1.742-.663 2.614a45 45 0 0 0-.973 4.451.047.047 0 0 0 .09.025 35 35 0 0 0 1.19-4.39c.187-.823.359-1.648.526-2.474.355.468.705.94 1.063 1.406a37 37 0 0 0-.424 1.624 32 32 0 0 0-.412 2.005 11 11 0 0 0-.235 1.92.07.07 0 0 0 .138.018 15 15 0 0 0 .546-1.965c.154-.614.292-1.232.442-1.846q.154-.644.303-1.288 3.34 4.336 6.797 8.58c.894 1.101 1.801 2.191 2.704 3.285-.855 4.574-1.754 9.163-2.328 13.775-.008.066.1.08.115.016a120 120 0 0 0 2.346-13.63c.617.747 1.229 1.498 1.847 2.244-.402 2.596-.815 5.19-1.22 7.786-.011.073.094.106.113.031a52 52 0 0 0 1.275-7.612c.5.602.992 1.21 1.492 1.811l-.255 1.716c-.199 1.308-.383 2.618-.624 3.92a.066.066 0 0 0 .128.034 38 38 0 0 0 .994-3.974c.072-.395.122-.792.178-1.189l2.783 3.347a28.6 28.6 0 0 0 4.87 4.945 13.1 13.1 0 0 0 5.703 2.34c.083.014.168.015.252.027a88 88 0 0 0-5.172 14.103c-.03.103.122.14.158.043 1.772-4.699 3.586-9.374 5.208-14.126a16 16 0 0 0 2.762.123c-.229.434-.426.89-.62 1.318q-.582 1.286-1.087 2.604a55 55 0 0 0-1.862 5.43c-.032.12.147.204.207.087.849-1.662 1.564-3.415 2.289-5.134q.55-1.304 1.049-2.627c.208-.552.446-1.139.608-1.732a16.4 16.4 0 0 0 2.454-.374 13.4 13.4 0 0 0-.962 1.653 27.3 27.3 0 0 0-1.8 4.876c-.034.13.155.218.22.093.781-1.483 1.415-3.036 2.225-4.507.397-.72.803-1.435 1.25-2.125l.207-.316a16.4 16.4 0 0 0 4.487-2.203 20.8 20.8 0 0 0 7.369-9.596 15 15 0 0 0 .778-2.715 19 19 0 0 0 6.764 3.459 23.5 23.5 0 0 0 7.05.72c-.49 1.201-.882 2.454-1.254 3.686q-.759 2.512-1.379 5.062a78 78 0 0 0-1.048 5.097 20 20 0 0 1-1.3 4.746.04.04 0 0 0 .067.04 12.4 12.4 0 0 0 1.456-4.278c.353-1.722.713-3.442 1.115-5.154q.599-2.554 1.337-5.073c.404-1.378.867-2.748 1.252-4.134q.649-.029 1.293-.086c.127-.01.253-.033.38-.046q-.956 2.83-1.839 5.685a77 77 0 0 0-2.13 7.51.047.047 0 0 0 .09.025 77 77 0 0 0 2.424-7.429q.866-2.9 1.664-5.816c.456-.051.911-.1 1.366-.167-.614 1.547-1.065 3.19-1.574 4.749a164 164 0 0 0-.993 3.16 19 19 0 0 0-.697 2.713 93 93 0 0 0-3.611 5.905 91 91 0 0 0-5.789 12.59c-.057.153.193.259.265.112a128 128 0 0 1 12.42-21.118 36.3 36.3 0 0 1 8.408-8.255c1.665-1.133 3.43-2.108 5.194-3.077a32 32 0 0 1 5.702-2.63 2.87 2.87 0 0 0 1.975-1.689q.788-1.671 1.57-3.346c.6-1.273 1.202-2.549 1.736-3.85a11 11 0 0 0 .786-1.917 21.5 21.5 0 0 0 1.044-3.173 39 39 0 0 0 .619-4.397c.298-2.903.496-5.818.747-8.724a69.7 69.7 0 0 1 3.64-16.743c.523-1.514 1.091-3.01 1.644-4.512.564-1.531 1.008-3.102 1.571-4.632.011-.029-.035-.048-.05-.02-.676 1.314-1.42 2.582-2.046 3.924-.578 1.236-1.092 2.507-1.59 3.776-1.056 2.69-2.032 5.42-2.855 8.191q-.304 1.024-.576 2.056c.082-1.09.182-2.18.308-3.268a47.7 47.7 0 0 1 2.51-10.207 50.6 50.6 0 0 1 10.43-17.706c2.147-2.33 4.562-4.603 7.525-5.734a40.2 40.2 0 0 0 5.387 13.713.031.031 0 0 0 .054-.031 64.7 64.7 0 0 1-5.392-13.704 11 11 0 0 1 1.36-.42c.336.549.652 1.109.96 1.674a53 53 0 0 0 2.772 6.357c.88 1.747 1.801 3.49 2.83 5.161a7.2 7.2 0 0 0-.465 2 21.5 21.5 0 0 0-.177 4.388 19.95 19.95 0 0 0 2.515 8.259c.088.159.363.051.3-.127a28 28 0 0 1-1.516-7.576 29.5 29.5 0 0 1-.014-3.785 17 17 0 0 1 .163-1.916c.095.143.183.29.28.432a.031.031 0 0 0 .054-.032l-.299-.559c.024-.113.043-.229.076-.337.078.18.15.365.239.538 1.455 2.844 4.518 4.33 6.84 6.346a23.5 23.5 0 0 1 3.389 3.994c1.042 1.413 2.156 2.768 3.29 4.106 2.262 2.668 4.68 5.161 7.19 7.592a73 73 0 0 0 9.18 7.481c.122.085.275-.111.16-.208a101 101 0 0 1-13.965-14.206c-2.09-2.624-3.811-5.516-5.91-8.129-2.002-2.49-4.847-3.915-7.082-6.14a6.6 6.6 0 0 1-1.966-3.605 4.6 4.6 0 0 1 .028-1.807 4.4 4.4 0 0 1 .26-.744 3.3 3.3 0 0 1 .429-.895.7.7 0 0 0 .154-.352c1.047-.113 2.085-.333 3.121-.503q2.076-.342 4.176-.5a67 67 0 0 1 18.7 1.368.156.156 0 0 0 .082-.302 46.7 46.7 0 0 0-15.51-2.802 58.5 58.5 0 0 0-7.923.467c-2.112.268-4.86.975-6.73-.417a7.2 7.2 0 0 1-1.87-2.461c-.553-1.028-1.06-2.077-1.646-3.086a39.7 39.7 0 0 0-4.297-6.004 58 58 0 0 0-5.275-5.12c-1.741-1.563-3.496-3.295-4.204-5.591a6.24 6.24 0 0 1-.082-3.79 12.3 12.3 0 0 1 2.025-3.355c.93-1.252 1.947-2.44 2.857-3.706.983-1.368 1.985-2.72 3.018-4.051.03-.039-.02-.093-.055-.055-2.02 2.192-4.12 4.306-6.137 6.5-1.7 1.848-3.433 3.615-3.788 6.21a6 6 0 0 0-.011 1.337l-.382.082a4 4 0 0 0-.048-.389 3.6 3.6 0 0 1-.106-.705 7 7 0 0 1 .041-.67 6.8 6.8 0 0 1 1.01-2.764c.013-.022-.02-.04-.034-.02a8.6 8.6 0 0 0-1.406 3.086 6.2 6.2 0 0 0-.303 1.645 39.7 39.7 0 0 1-9.892 1.074 38.2 38.2 0 0 1-11.388-2.458l-.142-.055.03-.09c.01-.033-.043-.057-.058-.024l-.037.089a66.2 66.2 0 0 1-13.486-7.02 7.4 7.4 0 0 0-2.025-2.427 5.9 5.9 0 0 0-2.743-.965c-.545-.414-1.09-.827-1.624-1.25a91.4 91.4 0 0 1-11.022-10.33 37 37 0 0 0-1.667-3.42 33 33 0 0 1-2.028-4.392c-.954-2.894-2.02-5.736-3.132-8.575a.031.031 0 0 0-.06.016 41.7 41.7 0 0 0 3.062 8.486c.703 1.397 1.18 2.924 1.77 4.372.299.734.594 1.502.932 2.245a87 87 0 0 1-4.034-4.981q-.396-.53-.79-1.07c-.402-1.027-.804-2.055-1.216-3.079-.86-2.135-1.748-4.258-2.634-6.382-.012-.027-.056-.017-.046.012a580 580 0 0 0 2.53 7.035q.191.517.38 1.037c-3.992-5.698-7.43-12.177-7.346-19.242.075-6.183 3.86-12.65 9.91-14.634-.297.404-.572.812-.823 1.196a21.1 21.1 0 0 0-2.592 5.757 11.85 11.85 0 0 0-.458 6.173.126.126 0 0 0 .24 0c.417-1.686.528-3.424.991-5.104a18.5 18.5 0 0 1 2.116-4.863 14.3 14.3 0 0 1 3.161-3.837.43.43 0 0 0 .319-.224 3.97 3.97 0 0 1 2.608-.325c.982.1 1.965.196 2.946.31 1.835.215 3.664.476 5.487.772a.6.6 0 0 0 .151.121.7.7 0 0 0 .647.01 121 121 0 0 1 17.398 4.283 50 50 0 0 1 5.771 2.079 9.3 9.3 0 0 1 2.088 1.277c.31.264.646.536.96.829a18 18 0 0 0-3.615 3.752c-1.579 2.129-2.951 4.34-5.04 6.026-3.9 3.148-9.235 4.164-14.134 3.773a35.7 35.7 0 0 1-9.63-2.338 159 159 0 0 1-9.688-4.024c-.018-.008-.033.017-.015.027 2.729 1.516 5.439 3.126 8.306 4.37a41 41 0 0 0 8.575 2.72 23.76 23.76 0 0 0 15.057-1.683 17.1 17.1 0 0 0 5.797-4.87c1.644-2.113 3.025-4.546 5.19-6.186 4.194-3.176 9.936-2.925 14.92-2.868a74 74 0 0 0 10.329-.521 45 45 0 0 0 5.416-1.04c.241-.062.473-.14.709-.21a87 87 0 0 0-3.204 1.85 37 37 0 0 0-2.396 1.586.149.149 0 0 0 .15.256 80.4 80.4 0 0 1 10.87-4.228c3.53-.923 7.07-1.639 10.686-.687.396.104.78.232 1.157.37-2.238-.008-4.043 1.38-5.666 2.865a20.2 20.2 0 0 0-4.254 5.664 28 28 0 0 0-1.42 3.136 22 22 0 0 1-1.535 3.926c-1.272 2.086-3.31 3.649-4.444 5.829a8.2 8.2 0 0 0-.909 3.043 2.45 2.45 0 0 0 1.359 2.51.075.075 0 0 0 .101-.102 7.2 7.2 0 0 1-.852-2.618 4.5 4.5 0 0 1 .673-2.912c1.078-1.868 3.051-3.144 4.003-5.087 1.054-2.152 1.535-4.527 2.639-6.666a25.5 25.5 0 0 1 6.91-7.803 8.4 8.4 0 0 1 3.668-1.681 21 21 0 0 1 7.346 5.416c2.652 2.802 5.139 5.772 7.664 8.688 5.272 6.086 10.485 12.223 15.744 18.32 5.23 6.063 10.507 12.088 15.93 17.98q4.082 4.435 8.286 8.756c1.325 1.358 2.642 2.731 4.024 4.031l-.114-.077c-2.833-1.893-5.744-3.715-8.491-5.727q-.99-.725-1.964-1.475c-.036-.027-.078.031-.048.062a70 70 0 0 0 7.528 6.336c1.342.997 2.692 1.983 4.02 2.998 1.325 1.012 2.564 2.078 3.81 3.182a61 61 0 0 1 6.939 6.694 31 31 0 0 1 5.16 9.349c1.36 3.788 2.433 7.714 3.407 11.617a55 55 0 0 1 1.815 11.968 49 49 0 0 1-4.388 20.727 89 89 0 0 1-5.124 9.69 105 105 0 0 1-5.962 9.201c-.54.725-1.086 1.444-1.627 2.168-.132.177.151.383.3.232a76 76 0 0 0 7.104-8.246l-.107.249q-2.451 5.715-4.75 11.494c-3.07 7.723-6.092 15.465-9.129 23.2-2.66 6.777-5.296 13.567-8.188 20.25a187 187 0 0 1-9.415 19.08 138 138 0 0 1-11.666 17.665c-.556.691-1.128 1.37-1.691 2.054a.176.176 0 0 0 .248.249 72 72 0 0 0 5.17-5.43c2.416 4.656 4.849 9.343 7.583 13.819a.047.047 0 0 0 .081-.048c-2.317-4.713-4.975-9.285-7.616-13.825q.979-1.137 1.92-2.306 2.88 6.198 6.09 12.25c-.028.412-.066.825-.085 1.238a57.4 57.4 0 0 0 .597 10.542c.97 6.968 2.387 13.895 3.73 20.8q2.043 10.503 4.337 20.955 1.266 5.767 2.607 11.516a56 56 0 0 0 1.459 5.718c.675 1.945 1.465 3.839 2.117 5.793a.207.207 0 0 0 .399-.11c-.3-1.81-.456-3.626-.703-5.441-.232-1.713-.627-3.37-1.022-5.05q-1.21-5.148-2.36-10.31-2.3-10.325-4.356-20.702c-1.369-6.91-2.707-13.836-3.854-20.788a66 66 0 0 1-1.028-10.327 87 87 0 0 1 .78-10.602c.461-3.937.894-7.877 1.372-11.812l.053-.419a.04.04 0 0 0 .063-.046l-.045-.103a92 92 0 0 0 .981-10.608c1.718-3.357 3.315-6.779 4.843-10.212 2.916-6.549 5.56-13.214 8.183-19.885q4.563-11.607 9.11-23.22c1.528-3.902 3.079-7.804 4.489-11.75.697-1.95 1.401-3.9 2.091-5.853.363-1.027.74-2.053 1.108-3.082a59 59 0 0 0 2.564-4.703 53.95 53.95 0 0 0 5.696-21.311c.322-8.191-1.936-16.255-4.337-24.007m-94.727-2.653a6.7 6.7 0 0 0 2.425 2.214 9 9 0 0 0 .254.905c.08.268.193.52.297.78.11.277.186.57.27.856.278.937.548 1.877.84 2.809a1.6 1.6 0 0 0-.246.312c-.89-1.654-1.787-3.305-2.612-4.994a166 166 0 0 1-1.692-3.605q.218.37.464.723m-52.91 78.675a16 16 0 0 0-.476 1.679 59 59 0 0 0-1.818 2.5c.187-.542.346-1.094.513-1.634.312-1.016.627-2.031.935-3.049.502-1.662 1.125-3.345 1.552-5.047a54 54 0 0 0 1.31-.215q-.112.322-.228.634c-.318.848-.611 1.707-.915 2.56a103 103 0 0 0-.873 2.572m1.827-1.091c-.476.527-.913 1.09-1.364 1.64q.066-.192.13-.385c.288-.857.57-1.719.834-2.583.265-.864.541-1.726.791-2.594.08-.276.168-.557.255-.84.394-.075.789-.136 1.182-.221a40 40 0 0 0-.8 1.906 15.6 15.6 0 0 0-1.028 3.077m2.58-3.745c-.231.585-.482 1.169-.684 1.766-.281.27-.548.558-.821.838q.26-.85.525-1.699c.215-.685.441-1.366.665-2.048q.036-.105.075-.212c.275-.062.552-.12.827-.188-.201.516-.389 1.037-.588 1.542m1.766-1.042-.04.085q-.262.485-.541.962l-.097.157q-.123.1-.244.203c-.013-.017-.033-.015-.05-.023l.019-.053a20 20 0 0 0 .63-2.049c.175-.046.35-.085.523-.132a5 5 0 0 0-.212.633.45.45 0 0 0 .012.217m2.36-1.046c-.13.083-.252.173-.38.257.126-.116.258-.226.377-.35.155-.158.283-.33.419-.5.423-.142.853-.268 1.27-.421-.565.333-1.134.66-1.687 1.014m39.268-80.115c.486.632.958 1.274 1.401 1.938a8.7 8.7 0 0 0-2.087.576 7 7 0 0 0 .264-.626 7.6 7.6 0 0 0 .327-1.203 6 6 0 0 0 .095-.685m-.249-.315a8 8 0 0 0-.374.854q-.228.584-.444 1.171c-.142.384-.27.773-.398 1.161a14 14 0 0 0-1.76 1.074 22.3 22.3 0 0 0 1.494-6.032q.766.865 1.482 1.772m-1.581-1.887a244 244 0 0 0-1.65 4.474c-.304.842-.611 1.684-.895 2.534a30 30 0 0 0-2.254 2.054q-.026.026-.05.053.057-.167.114-.318c.481-1.274.903-2.57 1.338-3.86a119 119 0 0 0 1.211-3.767c.262-.872.553-1.769.753-2.674.49.49.972.987 1.433 1.504m-1.765-1.837c-.36.763-.646 1.575-.939 2.351-.452 1.197-.868 2.41-1.285 3.619q-.605 1.753-1.165 3.523c-.187.59-.365 1.18-.521 1.778-.058.221-.102.47-.153.72a50 50 0 0 0-3.735 4.509c1.116-2.733 2.047-5.543 2.986-8.34a370 370 0 0 0 1.738-5.28c.469-1.465.982-2.948 1.35-4.451a49 49 0 0 1 1.724 1.57m-10.059-8.617a10 10 0 0 0 1.342-.716.5.5 0 0 0 .418-.108.28.28 0 0 0 .087-.22c.11-.073.224-.14.332-.215a10.3 10.3 0 0 0 1.664 3.679q-1.308 3.285-2.545 6.598-.743 1.98-1.462 3.967a38 38 0 0 0-1.393 4.243c-.008.033.04.056.057.024a35 35 0 0 0 1.574-3.816q.785-2.096 1.55-4.2 1.2-3.316 2.338-6.652c.212.298.432.588.658.861a20 20 0 0 0 1.426 1.52c-1.607 4.303-2.944 8.713-4.319 13.095l-2.196 7.002a56 56 0 0 0-1.997 7.187c-.015.088.113.161.158.066a54.5 54.5 0 0 0 2.376-6.847l2.205-7.129c1.36-4.395 2.768-8.793 3.893-13.256a60 60 0 0 0 1.972 1.788c-.597 1.386-1.072 2.84-1.575 4.254-.622 1.748-1.234 3.5-1.848 5.25-1.145 3.263-2.347 6.52-3.263 9.856a48 48 0 0 0-1.188 1.79 47.4 47.4 0 0 0-4.696 9.795 52.2 52.2 0 0 0-2.267 10.55 40.4 40.4 0 0 0-.196 7.506 65 65 0 0 0-.74 3.841c-.415 2.608-.646 5.228-.876 7.855l-.073-.471q-1.36-8.875-3.385-17.631a58 58 0 0 1 .883-5.8c.004-.02-.025-.028-.03-.009a35 35 0 0 0-.954 5.368c-.152-.66-.295-1.323-.454-1.981a246 246 0 0 0-2.23-8.557c.631-2.553 1.173-5.126 1.835-7.672q1.023-3.932 2.197-7.825 2.327-7.665 5.354-15.093a46 46 0 0 0 2.627-7.03 15.4 15.4 0 0 0 2.741-.867m-2.992.922c-.69 2.04-1.626 4.002-2.447 5.985q-1.534 3.7-2.895 7.468c-1.827 5.057-3.442 10.2-4.757 15.415-.675 2.68-1.345 5.387-1.822 8.112a252 252 0 0 0-2.286-7.613c1.347-3.504 2.407-7.125 3.59-10.685a639 639 0 0 1 4.013-11.653c.78-2.2 1.545-4.406 2.33-6.605a22 22 0 0 0 4.274-.424m-4.378.426q-4.638 11.382-8.382 23.103c-.574 1.782-1.136 3.562-1.594 5.372-.258-.812-.505-1.627-.772-2.436-.353-1.07-.733-2.13-1.108-3.194.686-1.662 1.272-3.377 1.891-5.057.76-2.06 1.496-4.129 2.251-6.19 1.44-3.93 2.895-7.852 4.315-11.789a32 32 0 0 0 3.4.191m-7.285-.777c-1.081 2.564-2.103 5.155-3.116 7.746l-1.763 4.511a36.5 36.5 0 0 0-1.631 4.676.047.047 0 0 0 .085.036 35 35 0 0 0 1.859-4.37l1.72-4.522c1.018-2.673 2.03-5.352 2.975-8.052a38 38 0 0 0 2.574.44c.344.045.7.07 1.049.107a191 191 0 0 0-4.7 11.408 228 228 0 0 0-2.238 6.193c-.55 1.603-1.123 3.231-1.583 4.877a236 236 0 0 0-3.982-10.342c.896-2.207 1.618-4.494 2.451-6.723a508 508 0 0 1 2.66-6.926 43 43 0 0 0 3.64.94m-3.743-.972a121 121 0 0 0-2.774 6.647c-.84 2.208-1.724 4.445-2.357 6.731a361 361 0 0 0-1.546-3.69c.26-.606.492-1.226.73-1.831.466-1.192.908-2.393 1.351-3.594a151 151 0 0 0 1.815-5.19q1.378.503 2.781.927m-5.495-2.002c.824.354 1.658.68 2.498.99a222 222 0 0 0-1.967 4.917c-.449 1.156-.909 2.308-1.344 3.468-.208.553-.431 1.11-.638 1.672l-.135-.323c-.492-1.147-1.007-2.284-1.517-3.423.105-.26.212-.52.312-.782.332-.868.669-1.735.997-2.604.508-1.346 1-2.7 1.495-4.05.1.043.198.092.299.135m-.43-.194c-.545 1.31-1.094 2.619-1.629 3.933-.339.831-.667 1.667-1 2.5-.083.205-.16.412-.241.617q-.526-1.162-1.06-2.32c.026-.065.051-.125.066-.167q.16-.464.311-.93c.197-.598.38-1.2.57-1.8l.567-1.803c.102-.325.221-.658.326-.994q1.038.5 2.09.964m-4.365-2.135c.7.37 1.399.747 2.11 1.092-.156.405-.3.817-.448 1.212l-.84 2.234c-.22.583-.444 1.167-.647 1.756-.346-.748-.704-1.49-1.058-2.235a11 11 0 0 0 .566-2.344c.08-.425.168-.85.238-1.276q.037-.216.079-.44m-.243-.126c-.04.164-.076.33-.116.488-.105.418-.194.84-.288 1.261a15 15 0 0 0-.41 2.067c-.185-.388-.363-.779-.551-1.165a96 96 0 0 0-2.543-4.87 75 75 0 0 0 3.908 2.22m-38.435-51.898c-1.79 8.224 2.2 16.516 6.712 23.146a91.3 91.3 0 0 0 16.175 18.02 95 95 0 0 0 9.66 7.27c.156.335.316.668.467 1.003.685 1.522 1.416 3.024 2.113 4.541 1.406 3.065 2.851 6.109 4.19 9.204q3.971 9.18 7.096 18.683c2.086 6.334 4.066 12.683 5.715 19.148q2.499 9.794 4.184 19.772a59 59 0 0 1 1.203 9.835 18 18 0 0 1-.378 4.344c-.06.24-.142.472-.222.704l-.035.06a24 24 0 0 1-.864 1.442 17.7 17.7 0 0 1-2.002 2.626 23.1 23.1 0 0 1-5.266 4.11 43.3 43.3 0 0 1-14.153 4.912c-5.408.971-11.17.776-15.89-2.324-4.06-2.667-6.774-6.919-8.945-11.163-2.678-5.236-4.867-10.74-7.223-16.126l-7.873-17.997c-5.113-11.686-10.252-23.363-15.125-35.152q-1.823-4.41-3.61-8.834c-1.193-2.957-2.494-5.87-3.706-8.82-2.42-5.89-4.589-11.88-6.788-17.856a162 162 0 0 0-1.674-4.417.133.133 0 0 0-.257.07c1.25 5.123 2.964 10.138 4.708 15.122a22.9 22.9 0 0 0-4.102-6.087 15 15 0 0 0-1.497-1.316 25 25 0 0 0-.107-3.391c-.17-1.453-.357-2.903-.536-4.355q-.528-4.276-.834-8.576a34.4 34.4 0 0 1 .125-7.887 15.8 15.8 0 0 1 2.782-6.812c2.73-3.784 6.928-6.329 10.914-8.593 4.46-2.533 9.378-4.851 14.599-4.999a16.8 16.8 0 0 1 7.03 1.268 15.1 15.1 0 0 1 5.467 4.129 18.7 18.7 0 0 0-2.053 5.296m54.72-3.91a12 12 0 0 0-1.283.692 2.4 2.4 0 0 0-.286-.6 4.7 4.7 0 0 0-.537-.632l1.382.254.98.18c-.084.037-.17.069-.255.107m83.325 32.823q3.28 2.185 6.525 4.422c1.428.985 2.841 1.993 4.253 3a34.6 34.6 0 0 0 4.49 3.036.043.043 0 0 0 .052-.068 25 25 0 0 0-4.056-3.332 137 137 0 0 0-4.357-3.057 122 122 0 0 0-7.461-4.636c-.648-.744-1.302-1.483-1.947-2.229-5.316-6.15-10.578-12.348-15.892-18.5-2.627-3.042-5.236-6.107-7.944-9.077-2.46-2.698-5.181-5.23-8.61-6.621a18.1 18.1 0 0 0-11.012-.528 24 24 0 0 0-2.978.938.2.2 0 0 0-.098-.016c-1.58.3-3.2.404-4.789.671-1.582.266-3.177.468-4.766.687a74 74 0 0 1-9.504.7c-4.369.032-8.964-.254-13.188 1.028q-.3-.046-.598-.095l-2.082-.358-2.081-.357c-.311-.053-.633-.111-.956-.15a25.4 25.4 0 0 0-4.702-2.01 120 120 0 0 0-12.62-3.65 119 119 0 0 0-7.397-1.452c-.112-.315-.169-.668-.255-.993-.245-.918-.41-1.854-.644-2.775a26 26 0 0 0-.834-2.734c-.341-.918-.831-1.752-1.24-2.638-.041-.088-.188-.026-.157.066.313.959.471 1.98.706 2.96.182.764.358 1.53.516 2.3-.55-1.062-1.141-2.104-1.709-3.158q-1.597-2.969-3.207-5.93c-2.133-3.908-4.328-7.782-6.5-11.668-2.15-3.85-4.284-7.71-6.46-11.546-2.127-3.752-4.371-7.469-6.142-11.407a124 124 0 0 1-4.387-12.14l-4.145-12.576q-4.184-12.697-8.44-25.37-2.122-6.339-4.253-12.675c-.878-2.605-1.739-5.233-2.664-7.834q.52.931 1.049 1.856a.367.367 0 0 0 .634-.37c-2.27-4.33-4.27-8.778-6.381-13.185-2.065-4.308-4.081-8.64-5.987-13.02q-2.932-6.742-5.54-13.618c-1.69-4.452-3.378-8.937-4.657-13.527a36.7 36.7 0 0 1-1.527-14.299A22.2 22.2 0 0 1 29.018 9.21a20.03 20.03 0 0 1 9.477-6.73 19.26 19.26 0 0 1 12.517.21c7.8 2.89 11.839 10.99 15.393 17.925q6.826 13.319 13.61 26.66A259 259 0 0 1 92.197 74.11c1.725 4.661 3.218 9.41 5.124 14.002a81 81 0 0 0 6.44 12.412c2.458 3.867 5.36 7.45 7.553 11.486a29.4 29.4 0 0 1 2.478 6.444 40 40 0 0 0-2.491-3.302c-.033-.038-.09.01-.068.052a467 467 0 0 1 3.228 6.005q.075.332.147.665c.316.511.65 1.01.97 1.519.96 1.97 1.812 3.994 2.65 6.019 2.012 4.868 3.843 9.825 5.573 14.8 3.486 10.027 6.62 20.217 11.06 29.88a97 97 0 0 0 3.978 7.765 39 39 0 0 0 2.297 3.711 30 30 0 0 0 3.199 3.244.17.17 0 0 0 .223.018c.054.075.097.156.154.228q.119.152.246.297c.04.045.077.094.12.135a.49.49 0 0 0 .396.125c-.303.326-.608.65-.897.99a26 26 0 0 1-1.853 2.06c-.146.14.04.34.204.264a15.5 15.5 0 0 0 4.724-3.042 43 43 0 0 0 3.636-4.298c2.356-3.125 4.516-6.441 6.549-9.784a40.6 40.6 0 0 0 4.96-11.373c1.038-4.222 1.522-8.585 2.14-12.882 1.282-8.911 2.514-17.833 3.415-26.791a253 253 0 0 0 1.406-27.01c-.058-8.451-1.007-16.909.117-25.329.138-1.031.383-2.053.55-3.082a.075.075 0 0 0-.135-.057 16.7 16.7 0 0 0-1.67 4.07c-.317-8.861-1.109-17.699-1.315-26.562-.2-8.61.041-17.947 3.871-25.854 3.234-6.677 9.87-12.337 17.673-11.853 7.535.468 12.38 7.178 15.325 13.432a95 95 0 0 1 4.448 11.865 141 141 0 0 1 3.592 13.814 125 125 0 0 1 2.13 14.205c.428 4.748.497 9.517.568 14.282.073 4.897.2 9.766.684 14.643.468 4.732 1.162 9.437 1.772 14.151.62 4.787 1.152 9.588 1.344 14.413.194 4.874.106 9.752.005 14.627-.405 19.47-.974 38.945-1.198 58.417-.003.33.005.658.008.987l-.132-.383c-.49-1.433-.928-2.885-1.428-4.316-.502-1.436-1.16-2.814-1.69-4.24-.02-.052-.099-.032-.083.022.371 1.31.63 2.629.92 3.958.28 1.282.652 2.549.968 3.823.634 2.557.992 5.176 1.562 7.748 1.146 5.173 2.167 10.375 2.94 15.618 1.59 10.796 2.102 21.72 2.837 32.598l.623 9.22q.077 1.095.178 2.186a4.6 4.6 0 0 0-1.32-1.42q-.913-.805-1.842-1.59-1.904-1.61-3.876-3.136c-1.622-1.254-3.298-2.43-4.995-3.576-1.268-1.438-2.523-2.886-3.782-4.33m13.785 15.415q-4.782-5.146-9.42-10.424a165 165 0 0 1 4.25 3.402q1.83 1.508 3.603 3.083.908.808 1.798 1.634c.506.47 1.03 1.157 1.741 1.289a.13.13 0 0 0 .087-.024q.104 1.112.211 2.227c.043.445.08.901.128 1.358-.8-.848-1.604-1.69-2.398-2.545m-9.754 189.74a263 263 0 0 0-6.043-12.181c.48-.6.96-1.197 1.423-1.808a80 80 0 0 1 2.65 4.837c.839 1.671 1.511 3.43 2.346 5.1a81 81 0 0 0-.376 4.052m1.089-9.206-.029.195a25.5 25.5 0 0 0-3.059-5.066c-.04-.051-.127 0-.088.051a28.8 28.8 0 0 1 3.125 5.164 164 164 0 0 0-.617 4.463 36 36 0 0 0-2.161-4.77 57 57 0 0 0-2.83-4.883 89 89 0 0 0 3.055-4.277c1.11 1.94 2.093 3.933 3.064 5.939-.153 1.061-.299 2.123-.46 3.184m.506-3.503a60 60 0 0 0-3.085-5.656q.761-1.142 1.49-2.305a70 70 0 0 1 2.14 4.194c-.178 1.256-.364 2.511-.545 3.767m1.036-7.165c-.15 1.075-.313 2.149-.466 3.224a20.4 20.4 0 0 0-2.085-4.148q.921-1.48 1.79-2.995a20 20 0 0 0 .946 2.58zm.252-1.824a75 75 0 0 1-.883-2.317q.895-1.56 1.746-3.147c-.35 1.808-.612 3.642-.863 5.464"/><path fill="currentColor" d="M124.172 348.753a7.7 7.7 0 0 0-.43-2.187c-.433-1.362-.826-2.732-1.237-4.1-.821-2.732-1.819-5.407-2.875-8.055a31 31 0 0 0-3.456-7.106 10.7 10.7 0 0 0-5.891-4.219 21.2 21.2 0 0 0-7.664-.25c-2.6.277-5.317.51-7.6 1.906a16.7 16.7 0 0 0-5.087 5.38 10.7 10.7 0 0 0-1.623 3.696 10.3 10.3 0 0 0 .209 4.03 117 117 0 0 0 2.448 9.724q.71 2.407 1.53 4.78a18.4 18.4 0 0 0 1.9 4.465c.084.123.333.096.313-.085a19.2 19.2 0 0 0-.992-3.727 152 152 0 0 1-1.182-3.884q-1.138-3.899-2.024-7.866a111 111 0 0 1-.823-3.975 7.7 7.7 0 0 1 .106-3.94 12.8 12.8 0 0 1 1.793-3.236 18.6 18.6 0 0 1 2.228-2.662 10.87 10.87 0 0 1 6.417-2.91 35 35 0 0 1 7.223-.44 9.42 9.42 0 0 1 6.082 2.638 25.3 25.3 0 0 1 3.788 5.66 46.7 46.7 0 0 1 3.556 8.124c.474 1.385.93 2.785 1.295 4.203.345 1.334.485 2.692.905 4a4 4 0 0 0-.494.642 5 5 0 0 1-.135.163q-.091.104-.189.202c-.073.074-.155.139-.233.207a2.1 2.1 0 0 0-.905-.04 1.4 1.4 0 0 0-.335.13c-.293.03-.577.075-.817.102q-1.41.159-2.81.4c-1.943.333-3.864.775-5.774 1.262a106 106 0 0 0-5.808 1.677c-1.706.54-3.43 1.06-5.084 1.748a16 16 0 0 0-2.494 1.27c-.63.401-1.547.966-1.558 1.799a.17.17 0 0 0 .168.168 2 2 0 0 0 1.208-.48c.455-.288.909-.58 1.382-.84a20 20 0 0 1 2.862-1.242c2.158-.77 4.363-1.432 6.55-2.115 2.3-.717 4.605-1.408 6.956-1.94a50 50 0 0 1 3.473-.662c.622-.096 1.246-.161 1.87-.246a7 7 0 0 0 .69-.114l.113.02.269.059a.56.56 0 0 0 .552-.14q.105-.091.203-.188a5 5 0 0 0 .528-.631c.463-.349.914-.548.903-1.175"/><path fill="currentColor" d="m96.018 357.96-.061-.029a.16.16 0 0 0-.055-.087l-.042-.023a1 1 0 0 0-.133-.065 1 1 0 0 0-.153-.022.26.26 0 0 0-.171.029l.09-.024h-.09a.3.3 0 0 0-.111.009.7.7 0 0 1-.159.02.075.075 0 0 0-.037.137l.083.046.042.023q-.002-.007.004.003a.2.2 0 0 0 .034.027 1 1 0 0 0 .085.041l.044.02q-.029-.023.006.004l.032.024a.6.6 0 0 0 .127.043.4.4 0 0 0 .136.024l.09-.007.062-.006a.15.15 0 0 0 .084-.056h.057c.065-.002.103-.1.036-.132m-5.79-34.007a4.1 4.1 0 0 0-1.792-.58c-.649-.08-1.301-.142-1.948-.23a.047.047 0 0 0-.025.09c.614.198 1.222.422 1.834.629a4.2 4.2 0 0 0 1.886.259.09.09 0 0 0 .045-.168m1.868-1.363a2.6 2.6 0 0 0-.865-.246c-.329-.06-.66-.102-.99-.15-.633-.09-1.27-.139-1.906-.198-.048-.004-.058.074-.011.085.635.148 1.267.304 1.908.421.316.057.63.118.949.162a2.6 2.6 0 0 0 .9.04.063.063 0 0 0 .015-.114m2.367-1.193a15 15 0 0 0-3.068-.396.043.043 0 0 0-.012.084 15 15 0 0 0 3.068.404.047.047 0 0 0 .012-.092m3.27-1.499a.6.6 0 0 1-.115.033 1 1 0 0 0-.124.009q-.12.027-.237.066a4 4 0 0 1-.452.106 1.9 1.9 0 0 1-.948-.028c-.066-.02-.114.086-.048.114a2.7 2.7 0 0 0 1.023.222 1.7 1.7 0 0 0 .527-.104 1 1 0 0 0 .241-.125 1.5 1.5 0 0 0 .19-.195.06.06 0 0 0-.057-.098m3.203-1.207c-.113.031-.228.049-.343.072a3 3 0 0 1-.33.048 2.4 2.4 0 0 1-.68-.047c-.078-.017-.111.105-.033.12a2.5 2.5 0 0 0 .725.04 2 2 0 0 0 .347-.055 1.7 1.7 0 0 0 .332-.135c.024-.012.007-.05-.018-.043m3.744-.382a8 8 0 0 0-.928-.187l-.951-.108a.12.12 0 0 0-.122.121.124.124 0 0 0 .122.121l.933.113a8 8 0 0 0 .933.032.047.047 0 0 0 .013-.092m-13.305-66.73c-.35-.768-.714-1.53-1.056-2.302q-1.051-2.366-1.996-4.772c-1.201-3.071-2.256-6.199-3.381-9.298a.043.043 0 0 0-.083.022 74 74 0 0 0 3.324 9.44q.91 2.309 1.725 4.65c.264.762.513 1.529.766 2.294a5.05 5.05 0 0 0 .978 2.088.202.202 0 0 0 .34-.141 4.5 4.5 0 0 0-.617-1.98m4.978 3.755a61 61 0 0 1-1.02-2.127c-.73-1.611-1.428-3.239-2.037-4.899-.57-1.552-.864-3.197-1.278-4.795a14.1 14.1 0 0 0-1.82-4.272.078.078 0 0 0-.135.079c.678 1.472.864 3.182 1.427 4.706.578 1.564 1.308 3.063 1.88 4.63.552 1.516 1.098 3.035 1.7 4.534.307.765.612 1.532.928 2.294.226.548.42 1.418.954 1.724a.07.07 0 0 0 .104-.042c.096-.622-.435-1.295-.703-1.832m5.68 2.696c-.41-.79-.811-1.582-1.15-2.406-.641-1.563-1.23-3.145-1.839-4.72a44.8 44.8 0 0 0-3.834-8.534.031.031 0 0 0-.054.032c1.49 2.843 2.47 5.974 3.7 8.935.617 1.487 1.243 2.969 1.818 4.472.294.768.526 1.554.753 2.343.18.62.293 1.467.859 1.846a.236.236 0 0 0 .344-.14c.142-.63-.315-1.285-.597-1.829m-.968-11.6c-.02-.038-.089-.012-.071.03.864 2.06 1.717 4.124 2.52 6.211.019.05.098.031.082-.023a32.8 32.8 0 0 0-2.53-6.218m6.634 16.561q-.416-.95-.823-1.904a144 144 0 0 1-1.635-4.051c-.025-.065-.13-.038-.105.029.51 1.37 1.041 2.732 1.558 4.1q.38 1.006.769 2.009a7.3 7.3 0 0 0 .804 1.816c.076.098.196-.015.183-.107a8 8 0 0 0-.751-1.892m5.882 1.763q-.558-.972-1.107-1.95a76 76 0 0 1-2.105-4.096c-1.335-2.762-2.551-5.579-3.832-8.367-.018-.04-.086-.011-.071.03 1.029 2.863 2.282 5.64 3.583 8.388.658 1.39 1.342 2.767 1.998 4.157q.506 1.07 1.032 2.131a5.4 5.4 0 0 0 1.159 1.83.154.154 0 0 0 .254-.148 5.8 5.8 0 0 0-.911-1.975m1-6.559a35 35 0 0 0-2.375-3.723.055.055 0 0 0-.094.055c.656 1.294 1.279 2.603 1.926 3.9.645 1.293 1.382 2.533 2.08 3.797.035.064.146.02.12-.052a26 26 0 0 0-1.657-3.977m5.402 9.954a6 6 0 0 0-.501-.693 15 15 0 0 1-.492-.7q-.479-.706-.951-1.417a.07.07 0 0 0-.121.07c.273.5.54 1 .81 1.5.135.252.268.502.388.76a6 6 0 0 0 .379.766.3.3 0 0 0 .32.13.26.26 0 0 0 .168-.13.28.28 0 0 0 0-.286m5.711 1.621a27 27 0 0 0-1.753-2.608q-.86-1.26-1.657-2.558a81 81 0 0 1-3.019-5.402c-.014-.027-.053-.003-.04.024a62 62 0 0 0 2.899 5.585q.793 1.357 1.64 2.683a14.7 14.7 0 0 0 1.74 2.422.122.122 0 0 0 .19-.146m3.405-1.455-.875-1.109c-.044-.055-.139.018-.099.076a18.6 18.6 0 0 0 1.684 2.243.047.047 0 0 0 .074-.056 9 9 0 0 0-.784-1.154m-45.24 95.027a1.5 1.5 0 0 0-.316-.364c-.021-.018-.026-.02-.037-.029-.027-.053-.07-.109-.1-.159a16 16 0 0 0-.656-1.03 48 48 0 0 0-2.447-4.689c-.944-1.695-1.936-3.362-2.905-5.045a41 41 0 0 0-3.251-4.834c-1.072-1.366-2.139-3.05-4.078-3.287-1.893-.233-3.843.528-5.568 1.187a10.03 10.03 0 0 0-4.364 2.953c-2.381 3.007-1.65 6.822-.43 10.134.8 2.173 1.711 4.313 2.575 6.464a90 90 0 0 0 1.382 3.292c.254.567.498 1.137.785 1.69.292.562.686 1.025.983 1.578.084.155.357.048.299-.119-.178-.509-.224-1.016-.406-1.525q-.223-.623-.487-1.232c-.386-.891-.762-1.785-1.184-2.66l-2.524-5.247a20.1 20.1 0 0 1-1.88-5.435 7.2 7.2 0 0 1 .183-2.436 7.4 7.4 0 0 1 .876-2.47 7.3 7.3 0 0 1 3.698-2.802 19.7 19.7 0 0 1 4.839-1.51 4.94 4.94 0 0 1 4.285 1.872 70 70 0 0 1 3.42 4.177 28 28 0 0 1 3.083 5.084c.862 1.848 1.394 3.761 2.09 5.663a.62.62 0 0 0 .553.408l.098.21c.003.005.088.233.093.234l.002-.02a.46.46 0 0 0 .012.254c.017.1.047.202.054.302-.005-.07-.005.006-.004.081a5 5 0 0 0-.638-.015 22 22 0 0 0-6.19 1.022 23.7 23.7 0 0 0-5.49 2.626c-1.59 1.016-3.524 2.315-4.35 4.006-.108.22.13.53.386.366 1.272-.811 2.282-1.948 3.517-2.814a20.3 20.3 0 0 1 4.037-2.201 23.5 23.5 0 0 1 4.42-1.244 20 20 0 0 1 2.338-.303q.554-.04 1.11-.05.332-.007.666-.001c.147.002.367.094.267-.033a.65.65 0 0 0 .324.03l.04.005c.01-.002.02 0 .03-.002a1 1 0 0 0 .174-.01 1.21 1.21 0 0 0 .954-1.242 1.54 1.54 0 0 0-.267-.83m14.229 5.449c-.58 2.057-1.173 4.11-1.754 6.168-.58 2.054-1.245 4.097-1.69 6.185a.027.027 0 0 0 .052.015c.757-1.997 1.282-4.084 1.86-6.139a274 274 0 0 0 1.645-6.198.059.059 0 0 0-.112-.031m-4.183 15.826q-.301 1.151-.535 2.319a12 12 0 0 0-.29 2.29.04.04 0 0 0 .077.011c.186-.757.275-1.528.397-2.297q.182-1.157.418-2.304c.01-.044-.056-.063-.067-.019m-.335-9.87c-.979 3.588-1.95 7.168-2.729 10.806a.04.04 0 0 0 .076.021c1.031-3.575 1.866-7.19 2.698-10.815a.023.023 0 0 0-.045-.012m67.64-142.18c-2.02 1.622-2.64 4.37-4.658 5.987-.139.11.056.3.193.194 2.057-1.6 2.745-4.286 4.515-6.131.032-.034-.015-.078-.05-.05m11.434-18.709c-.587-.233-1.272.683-1.595 1.064-.519.612-1.069 1.197-1.598 1.8a23.6 23.6 0 0 0-2.772 3.834 27.4 27.4 0 0 0-2.03 4.44c-.315.885-.663 1.768-.899 2.679-.187.725-.572 1.7-.2 2.41a.036.036 0 0 0 .055.008c.605-.474.648-1.41.81-2.113.202-.88.317-1.78.547-2.655a18.7 18.7 0 0 1 1.9-4.662 20.2 20.2 0 0 1 2.849-3.823 9.7 9.7 0 0 1 1.786-1.498c.416-.265 1.36-.695 1.304-1.277a.23.23 0 0 0-.157-.207m-9.619-1.037c-4.534 3.68-8.543 8.619-10.297 14.26a.102.102 0 0 0 .186.079 61 61 0 0 1 4.33-7.582 42.8 42.8 0 0 1 5.803-6.735c.016-.014-.006-.035-.022-.022m-48.637-12.97c-3.996-.693-8.044-1.031-12.026-1.824-.049-.01-.07.063-.02.076a46.5 46.5 0 0 0 12.025 1.9c.085 0 .11-.137.021-.153m7.486-.845a1.2 1.2 0 0 0-1.16-.299 3.8 3.8 0 0 1-1.099.159c-.32-.014-.64-.038-.958-.06a73 73 0 0 1-3.942-.385 82 82 0 0 1-7.893-1.386.027.027 0 0 0-.015.052 62 62 0 0 0 7.873 1.594q1.862.252 3.737.396a8.4 8.4 0 0 1 2.206.323 1.18 1.18 0 0 0 1.25-.195.14.14 0 0 0 0-.199m4.691-.715c-.897-.506-2.213-.299-3.21-.44-1.094-.155-2.169-.391-3.254-.598-1.026-.195-2.072-.302-3.11-.42a15.8 15.8 0 0 1-3.285-.482c-.05-.016-.085.065-.036.086a13 13 0 0 0 2.782.73c1.105.211 2.224.406 3.341.535 1.173.135 2.348.198 3.518.369.998.146 2.212.716 3.22.484a.146.146 0 0 0 .034-.264m2.367-1.464c-.886-.127-1.78-.176-2.669-.29a47 47 0 0 1-2.83-.452c-.034-.006-.049.044-.014.053a24 24 0 0 0 2.77.557 15 15 0 0 0 2.733.201c.038-.001.05-.063.01-.069m3.692-.785c-.316.018-.628 0-.945-.003a7 7 0 0 1-.967-.079c-.044-.006-.064.06-.019.068a7 7 0 0 0 .968.125 5 5 0 0 0 .97-.066c.026-.003.02-.047-.007-.046m50.292-8.109a27 27 0 0 0-6.205-1.19c-2.104-.17-4.212-.044-6.314-.176a20 20 0 0 0-3.176-.072 8 8 0 0 0-1.393.457c-.528.146-1.085.215-1.624.31-2.171.384-4.319.872-6.476 1.326-.085.018-.048.141.035.129 2.166-.333 4.342-.623 6.519-.882q.703-.084 1.41-.131c.58-.038 1.066.17 1.647.097.965-.121 1.951-.406 2.912-.596a23.8 23.8 0 0 1 6.228-.2 39 39 0 0 1 6.412 1.019.047.047 0 0 0 .025-.09m11.274 1.989a34.7 34.7 0 0 0-9.914-3.065 101 101 0 0 0-10.427-1.15c-.056-.003-.054.08 0 .087 3.49.396 6.992.776 10.451 1.4a53.6 53.6 0 0 1 9.86 2.799c.04.016.069-.052.03-.072m6.245.448a5 5 0 0 0-1.798-.77q-1.17-.373-2.344-.735c-1.532-.475-3.048-.997-4.587-1.45a64.5 64.5 0 0 0-9.408-2c-.034-.004-.05.047-.014.053 3.117.538 6.216 1.234 9.272 2.052 1.51.405 3.015.847 4.482 1.389.795.294 1.579.632 2.352.979a6.1 6.1 0 0 0 1.943.728.146.146 0 0 0 .102-.246m-2.556-3.033a40.8 40.8 0 0 0-8.31-2.273c-.024-.004-.035.033-.01.038a64 64 0 0 1 8.308 2.28c.029.01.04-.034.012-.045m8.447.626c-.32-.237-.684-.428-1.023-.636a22 22 0 0 0-1.086-.615c-.724-.388-1.488-.7-2.241-1.025-.113-.048-.21.102-.099.169.71.433 1.415.88 2.16 1.25.361.179.724.354 1.095.513.374.161.75.352 1.137.48.086.028.12-.09.057-.136m16.714 63.244a20 20 0 0 0-2.181-1.421q-1.192-.761-2.382-1.526c-1.555-.993-3.102-2-4.653-2.998q-4.708-3.03-9.513-5.893c-.052-.032-.098.048-.048.08q4.659 2.992 9.349 5.932c1.53.955 3.06 1.909 4.577 2.885q1.138.732 2.274 1.467a24 24 0 0 0 2.482 1.597c.075.036.167-.062.095-.123m-1.653-4.539a5.9 5.9 0 0 0-1.895-1.171c-.717-.388-1.41-.811-2.11-1.229-1.432-.855-2.85-1.733-4.276-2.6-2.818-1.716-5.714-3.287-8.634-4.821a.031.031 0 0 0-.032.054c2.823 1.702 5.638 3.413 8.509 5.035 1.417.801 2.833 1.603 4.228 2.441.698.42 1.399.834 2.076 1.286a6.5 6.5 0 0 0 2.016 1.208.122.122 0 0 0 .118-.203m-.905-4.252a6.5 6.5 0 0 0-1.607-1.182c-.618-.387-1.243-.761-1.868-1.137a274 274 0 0 1-3.824-2.358c-1.234-.77-2.479-1.548-3.776-2.21a30 30 0 0 0-3.982-1.63c-.05-.017-.081.06-.036.086 1.26.732 2.506 1.475 3.807 2.134 1.304.66 2.63 1.273 3.925 1.953a42 42 0 0 1 3.67 2.166c.61.403 1.206.828 1.8 1.252a7.8 7.8 0 0 0 1.773 1.128c.125.045.188-.118.118-.202m-9.168-10.438c-.825-.449-1.632-.933-2.47-1.36-.842-.431-1.703-.818-2.56-1.22a.063.063 0 0 0-.063.109 22 22 0 0 0 2.462 1.482 28 28 0 0 0 2.592 1.082c.054.02.09-.066.04-.093m7.993.638a10.4 10.4 0 0 0-2.568-1.879c-1.004-.583-2.007-1.172-3.028-1.726a171 171 0 0 0-6.108-3.136.043.043 0 0 0-.044.074c1.959 1.178 3.902 2.382 5.849 3.582.957.59 1.926 1.16 2.885 1.746a11.6 11.6 0 0 0 2.946 1.456.07.07 0 0 0 .068-.117m-.734-5.153q-.834-.374-1.656-.776a76 76 0 0 1-3.117-1.652c-1.028-.567-2.02-1.197-3.084-1.696a25 25 0 0 0-3.252-1.176.031.031 0 0 0-.024.057c1.061.58 2.103 1.19 3.208 1.684 1.046.467 2.124.856 3.162 1.339a30 30 0 0 1 3.016 1.6 25 25 0 0 1 1.517 1.013c.362.26.669.627 1.134.509a.14.14 0 0 0 .096-.168c-.121-.463-.597-.553-1-.734m.464-4.307a13 13 0 0 0-2.07-1.267 57 57 0 0 0-2.335-1.234 50 50 0 0 0-4.642-2.003c-.038-.015-.062.046-.028.064 1.505.791 2.987 1.621 4.494 2.409.755.394 1.503.8 2.257 1.198a17 17 0 0 0 2.161 1.113.17.17 0 0 0 .164-.28m-5.278-7.147a24 24 0 0 0-2.618-.808.027.027 0 0 0-.015.053 15 15 0 0 1 2.386 1.233 8 8 0 0 0 2.306 1.15c.078.017.161-.069.11-.144a4.53 4.53 0 0 0-2.17-1.484m-.284-4.664a3.7 3.7 0 0 0-.862-.522 4.8 4.8 0 0 0-.97-.296c-.044-.008-.063.058-.019.068a5.5 5.5 0 0 1 1.818.793c.025.017.058-.023.033-.043m15.699 115.516c-3.704-2.251-7.437-4.456-11.107-6.764-.06-.038-.114.056-.055.094 3.64 2.36 7.316 4.657 11.122 6.738a.04.04 0 0 0 .04-.068m22.296.008a3.6 3.6 0 0 0-1.334.014q-.89.085-1.784.116a29 29 0 0 1-3.217-.073 19.5 19.5 0 0 1-3.44-.592 25 25 0 0 0-3.053-.951 20.7 20.7 0 0 1-6.1-2.15c-1.914-.904-3.79-1.886-5.68-2.836a71 71 0 0 1-6.502-3.609c-.043-.027-.08.04-.04.068a97 97 0 0 0 11.61 6.52c1.968.975 4.039 1.753 5.985 2.77a9 9 0 0 0 2.985.835c1.091.165 2.185.312 3.285.408a34 34 0 0 0 3.81.153q.953-.024 1.904-.112a3.7 3.7 0 0 0 1.6-.34.123.123 0 0 0-.029-.221m-3.824-2.794c-1.836-.14-3.675-.266-5.495-.557-.024-.004-.035.032-.01.037a25.3 25.3 0 0 0 5.505.598.04.04 0 0 0 0-.078m4.212.021-.382-.008a.031.031 0 0 0 0 .063l.382-.008a.023.023 0 0 0 0-.047m-7.763 8.24a15 15 0 0 0-3.986-.804c-.056-.004-.054.08 0 .086a35 35 0 0 1 3.965.793.04.04 0 0 0 .02-.075m-66.749-17.761c-.783-1.225-1.604-2.426-2.395-3.646a.043.043 0 0 0-.074.044c.69 1.307 1.377 2.61 2.138 3.878a22.5 22.5 0 0 0 2.44 3.554c.053.06.133-.016.104-.08a30 30 0 0 0-2.213-3.75m4.842 3.945a93 93 0 0 1-3.797-6.817c-.02-.041-.079-.005-.06.035a66 66 0 0 0 3.666 7.026 40.3 40.3 0 0 0 4.424 6.315.043.043 0 0 0 .067-.052c-1.386-2.201-2.932-4.293-4.3-6.507m4.728 3.241a75 75 0 0 1-3.297-6.226c-.026-.055-.104-.007-.08.047a60 60 0 0 0 3.238 6.388 33.4 33.4 0 0 0 3.91 5.748c.027.03.075-.009.055-.043-1.188-2.022-2.631-3.89-3.826-5.914m2.308-.605a.05.05 0 0 0-.087.052 32 32 0 0 0 4.975 7.166c.03.031.088-.01.061-.047-1.676-2.377-3.409-4.699-4.949-7.17m5.747 5.085a.035.035 0 0 0-.05.05c.766.766 1.526 1.538 2.308 2.288a.016.016 0 0 0 .022-.022c-.747-.785-1.516-1.548-2.28-2.316m-31.566-33.805c-.877-.515-1.747-1.035-2.574-1.63-.012-.008-.024.012-.012.021a18 18 0 0 0 2.562 1.649.023.023 0 0 0 .024-.04m6.15.592c-1.264-.738-2.605-1.353-3.887-2.06q-1.928-1.063-3.767-2.276c-.025-.017-.048.024-.023.04q1.836 1.28 3.768 2.413a24.6 24.6 0 0 0 3.88 1.954c.041.016.067-.05.03-.07m3.804-.843a16 16 0 0 0-1.807-1.096c-.572-.331-1.147-.655-1.717-.99q-1.763-1.039-3.47-2.17c-.034-.022-.064.031-.031.054q1.7 1.204 3.46 2.317a45 45 0 0 0 1.751 1.062 11 11 0 0 0 1.78.902c.05.017.069-.052.034-.079m3.466-.547c-1.541-.953-3.156-1.773-4.758-2.618a.02.02 0 0 0-.02.034c1.569.905 3.123 1.835 4.75 2.63a.027.027 0 0 0 .028-.046m4.082-.126c-1.015-.562-2.06-1.068-3.1-1.586-.044-.023-.083.044-.039.067 1.034.531 2.06 1.074 3.116 1.56.027.012.05-.026.023-.04m-45.351 2.73c-1.573 5.726-3.304 11.437-4.606 17.232a.04.04 0 0 0 .076.02c1.75-5.675 3.086-11.49 4.567-17.241a.02.02 0 0 0-.037-.01m3.724-20.039a169 169 0 0 0-10.507 31.669c-.702 3.117-1.263 6.25-1.752 9.407-.014.092.123.135.143.04a257 257 0 0 1 8.891-32.261q1.563-4.443 3.282-8.83c.013-.033-.042-.057-.057-.025m-7.38 39.167a135 135 0 0 0-1.938 14.197c-.003.04.059.04.063 0a187 187 0 0 1 1.995-14.163c.015-.079-.105-.113-.12-.034m-29.892-27.331c-4.871 1.133-9.74 2.358-14.516 3.847-2.33.726-4.682 1.414-7 2.178a9 9 0 0 0-1.503.587c-.532.292-.988.685-1.534.955a25 25 0 0 1-3.345 1.294 20.6 20.6 0 0 1-7.86 1.15c-.051-.003-.05.074 0 .08a19.4 19.4 0 0 0 6.627-.635c1.165-.3 2.312-.674 3.445-1.08.498-.178 1-.353 1.511-.492.623-.169 1.273-.2 1.883-.423 1.065-.39 2.062-.984 3.083-1.477a30 30 0 0 1 3.639-1.426c2.366-.787 4.768-1.466 7.172-2.124 2.81-.768 5.62-1.551 8.41-2.388a.023.023 0 0 0-.012-.045m2.679-.211a.4.4 0 0 0 .183-.334.5.5 0 0 0 .031-.11c0-.008-.006-.014-.006-.022a.55.55 0 0 0-.164-.413 1.2 1.2 0 0 0-.186-.146.6.6 0 0 0-.275-.083c-.036-.004-.075-.011-.112-.013a.4.4 0 0 0-.217.058l-.012.003a.44.44 0 0 0-.314.413l.002.033a2.5 2.5 0 0 0-.379.337.047.047 0 0 0 .066.066 1.6 1.6 0 0 1 .375-.226.4.4 0 0 0 .148.16q.024.012.049.02l.002.001c.01.009.017.022.028.03a1 1 0 0 0 .14.102l.068.045-.103-.08a.6.6 0 0 0 .244.143q.028.006.057.008.021.007.042.01a.16.16 0 0 0 .229.091.3.3 0 0 0 .078-.057l.018-.019.01-.011a.4.4 0 0 0 .089-.095l-.09.088Z"/><path fill="currentColor" d="m103.995 285.67-.083-.064c.01.007.014.018.023.024zm-.083-.064-.003-.002-.017-.013Zm.052 1.179c-3.436 2.271-7.667 3.311-11.53 4.615-2.064.697-4.127 1.448-6.233 2.008-.517.137-1.033.281-1.553.404a4.1 4.1 0 0 0-1.517.496 8.6 8.6 0 0 1-1.449.872c-.564.246-1.143.451-1.722.659-2.29.821-4.62 1.57-6.86 2.52-.037.016-.01.077.027.065 2.121-.673 4.186-1.518 6.28-2.27a15.5 15.5 0 0 1 3.364-1.004 4.3 4.3 0 0 0 1.42-.211c.477-.225.945-.48 1.433-.697 4.039-1.785 8.313-2.973 12.468-4.449a22 22 0 0 0 5.876-3.001c.004-.003 0-.01-.004-.007m-8.291-2.41c-1.828.178-3.636.613-5.44.95-1.9.354-3.828.668-5.744.922-1.892.25-3.546 1.302-5.288 2.033-1.693.71-3.377 1.423-5.01 2.267-.032.016-.004.061.027.047a38.6 38.6 0 0 1 5.31-1.986 18 18 0 0 1 2.682-.55 10.6 10.6 0 0 0 2.729-.703 38.4 38.4 0 0 1 5.284-1.638c1.813-.43 3.676-.711 5.463-1.242.053-.015.046-.105-.013-.1M57.29 312.442a30 30 0 0 1-2.95 1.004q-1.321.449-2.627.94a55 55 0 0 1-5.352 1.845 3.8 3.8 0 0 0-1.231.455 5.3 5.3 0 0 0-.696.776 10.8 10.8 0 0 1-2.528 1.536 35 35 0 0 1-5.269 2.599c-.005.001-.003.009.002.007a37 37 0 0 0 4.903-2.332 15.7 15.7 0 0 1 2.684-1.311 8 8 0 0 1 1.222-.1 2.9 2.9 0 0 0 1.22-.61 24 24 0 0 1 5.212-2.693q1.298-.518 2.613-.995a22 22 0 0 1 2.547-.847c-.265.298-.517.608-.77.915a.031.031 0 0 0 .044.044c.373-.348.76-.687 1.105-1.064a.108.108 0 0 0-.13-.17m-5.415 4.275q-2.855 1.65-5.74 3.248-1.419.784-2.855 1.534c-.48.251-.958.501-1.446.735a6 6 0 0 1-1.626.707.413.413 0 0 0-.393.516.5.5 0 0 0 .105.18.41.41 0 0 0 .576 0 5.8 5.8 0 0 1 1.452-.98c.46-.28.927-.55 1.396-.819q1.455-.834 2.912-1.665 2.867-1.63 5.702-3.314a.082.082 0 0 0-.083-.142m-15.666 8.371a2.5 2.5 0 0 1-.804.376 3 3 0 0 1-.42.08 1.2 1.2 0 0 0-.46.102.16.16 0 0 0-.063.075l-.036.02a.067.067 0 0 0 .016.12l.035.013a.2.2 0 0 0 .087.068.8.8 0 0 0 .497-.06 3 3 0 0 0 .435-.203 3.8 3.8 0 0 0 .741-.554c.019-.018-.006-.052-.028-.037m6.022-10.345a23.3 23.3 0 0 0-6.373 3.238c-.02.014-.002.047.02.034a62 62 0 0 1 6.397-3.165c.061-.027.018-.127-.045-.107m27.86 61.686a36 36 0 0 1-5.093-1.201c-.04-.015-.07.052-.03.071a10.8 10.8 0 0 0 5.106 1.253c.067-.004.089-.108.017-.123m2.673-1.13a13.7 13.7 0 0 0-2.326-.448c-.76-.118-1.524-.206-2.286-.307-.06-.008-.075.096-.014.108.775.149 1.549.311 2.327.441a13.4 13.4 0 0 0 2.286.298.047.047 0 0 0 .013-.092m2.449-.898a2.7 2.7 0 0 0-1.095-.25 18 18 0 0 0-1.21-.109c-.817-.045-1.635-.079-2.453-.119-.022 0-.027.035-.005.039.804.138 1.608.281 2.414.414.382.063.77.11 1.156.153a2.8 2.8 0 0 0 1.176 0 .071.071 0 0 0 .017-.128m1.134-1.192a6.3 6.3 0 0 0-1.51-.312 9.3 9.3 0 0 0-1.57.068.043.043 0 0 0 0 .086c.518.026 1.025.113 1.54.159.51.044 1.015.073 1.526.1.06.002.066-.083.014-.1m23.607-7.729c-1.785-.484-3.59-.87-5.348-1.457a30.7 30.7 0 0 1-5.218-2.307.04.04 0 0 0-.04.067c3.143 1.906 6.874 3.592 10.592 3.805a.055.055 0 0 0 .014-.108m4.215-.899c-1.413-.339-2.86-.523-4.275-.859a30 30 0 0 1-4.165-1.304c-.032-.013-.056.042-.024.057a27.6 27.6 0 0 0 4.111 1.53 14.6 14.6 0 0 0 4.342.66.043.043 0 0 0 .011-.084m2.547-1.006c-.852-.26-1.734-.429-2.605-.615a68 68 0 0 1-2.615-.6.02.02 0 0 0-.01.038c.864.281 1.735.558 2.616.783a15 15 0 0 0 2.602.486c.054.004.061-.077.012-.092m2.942-.628a7.7 7.7 0 0 0-1.31-.375c-.454-.112-.916-.196-1.375-.29a.055.055 0 0 0-.03.105c.45.127.9.263 1.354.372a7.7 7.7 0 0 0 1.34.268c.04.002.06-.062.021-.08m-45.515 16.3a377 377 0 0 0-3.48 10.552c-1.114 3.525-2.292 7.043-3.177 10.635a.055.055 0 0 0 .106.029c1.32-3.46 2.358-7.024 3.453-10.559a375 375 0 0 0 3.15-10.642.027.027 0 0 0-.052-.015m-3.216 2.077q-1.88 5.19-3.425 10.49a89 89 0 0 0-2.74 10.685.047.047 0 0 0 .091.025c1.155-3.482 1.934-7.102 2.95-10.627q1.528-5.297 3.184-10.557c.012-.038-.047-.054-.06-.016m-3.841 4.083a117 117 0 0 0-3.281 9.755 79 79 0 0 0-2.366 10.014c-.01.068.088.1.106.03.823-3.333 1.498-6.69 2.43-9.998q1.394-4.95 3.15-9.791c.008-.024-.03-.034-.039-.01m-4.679 5.588c-.693 2.038-1.387 4.075-2.036 6.129-.01.029.035.04.045.012.718-2.03 1.391-4.075 2.066-6.12.016-.049-.06-.069-.075-.022m-3.547 12.891q-.256.559-.47 1.136-.104.284-.198.573a2 2 0 0 0-.116.608.043.043 0 0 0 .08.021 2.5 2.5 0 0 0 .21-.537c.06-.2.117-.4.181-.6q.19-.585.427-1.153c.027-.065-.085-.113-.114-.048m-3.103-5.36a80 80 0 0 0-1.329 6.4c-.004.029.04.042.046.012.396-2.142.83-4.278 1.336-6.397.008-.034-.044-.049-.053-.015m.88-32.555a107 107 0 0 0-2.713 13.435c-.007.053.08.063.092.012 1.094-4.426 1.855-8.949 2.659-13.436.004-.024-.032-.035-.038-.01m-3.23 4.846c-.503 2.963-1.195 5.888-1.77 8.838a.043.043 0 0 0 .084.023 53.6 53.6 0 0 0 1.778-8.849c.007-.052-.083-.064-.092-.012m-3.012 3.325a128 128 0 0 0-1.567 6.406.035.035 0 0 0 .068.018c.57-2.127 1.091-4.255 1.552-6.41a.027.027 0 0 0-.053-.014M34.767 345.7c-.727 2.598-1.345 5.227-2.029 7.837-.685 2.613-1.448 5.204-2.034 7.842a.066.066 0 0 0 .128.036 67 67 0 0 0 2.336-7.76c.663-2.617 1.28-5.261 1.682-7.932.008-.054-.068-.078-.083-.023m-2.819 1.276c-1.436 5.237-2.923 10.495-4.01 15.818a.059.059 0 0 0 .113.031 129 129 0 0 0 3.988-15.824.047.047 0 0 0-.09-.025m-2.899 2.021c-1.301 5.069-2.67 10.121-3.88 15.213a.035.035 0 0 0 .067.018c1.52-5.008 2.753-10.1 3.919-15.202a.055.055 0 0 0-.106-.029m-3.135 3.973c-.927 3.857-2.088 7.647-3.082 11.485a.031.031 0 0 0 .06.017 99 99 0 0 0 3.053-11.494c.004-.02-.026-.028-.03-.009m-5.386 8.421-.637 2.425a.008.008 0 0 0 .015.004l.644-2.423a.012.012 0 0 0-.022-.007M4.942 321.463a46 46 0 0 0-1.862-1.842.04.04 0 0 0-.055.055c.593.643 1.171 1.298 1.764 1.94.592.642 1.2 1.265 1.804 1.896.04.04.095-.02.061-.061a35 35 0 0 0-1.712-1.988m5.813 2.864c-.813-.862-1.762-1.602-2.635-2.402-.879-.804-1.761-1.6-2.62-2.426a.043.043 0 0 0-.06.06 68 68 0 0 0 2.578 2.539 24 24 0 0 0 2.685 2.296c.042.028.085-.033.052-.067m2.745-.936c-.816-.663-1.704-1.237-2.545-1.868q-1.333-.998-2.607-2.07c-.03-.025-.075.018-.044.044q1.244 1.076 2.544 2.085a22 22 0 0 0 2.618 1.852c.026.015.058-.022.033-.043m1.45-1.229c-1.04-.678-2.108-1.309-3.174-1.946a.05.05 0 0 0-.05.088c1.057.65 2.11 1.303 3.192 1.912a.031.031 0 0 0 .032-.054m6.211-67.057a31.7 31.7 0 0 0-14.29 7.218c-.057.049.02.15.08.105a47.9 47.9 0 0 1 14.244-7.202.063.063 0 0 0-.034-.12m30.768-42.369a65.5 65.5 0 0 0-17.006 9.706c-.017.013.005.043.023.03a94 94 0 0 1 17.02-9.65c.047-.02.013-.105-.037-.086m77.969 238.098a139 139 0 0 0-13.142-7.882.027.027 0 0 0-.028.048 139 139 0 0 0 13.099 7.955.07.07 0 0 0 .071-.121m12.4-1.138c-.475-.317-.962-.616-1.449-.916-.973-.599-1.966-1.157-2.959-1.723a82 82 0 0 1-5.61-3.485c-1.825-1.245-3.585-2.58-5.398-3.843-1.876-1.306-3.82-2.495-5.772-3.682-.075-.045-.132.065-.067.115 1.82 1.399 3.647 2.772 5.568 4.03 1.841 1.207 3.742 2.319 5.59 3.514a100 100 0 0 1 5.434 3.789c.92.685 1.838 1.37 2.787 2.017.472.321.943.648 1.43.946a1.5 1.5 0 0 0 1.105.36.22.22 0 0 0 .152-.268c-.104-.422-.466-.623-.811-.854m12.331-.509c-2.103-1.526-4.376-2.804-6.613-4.124-2.204-1.3-4.361-2.67-6.49-4.089-2.137-1.426-4.195-2.947-6.251-4.486a72 72 0 0 0-6.557-4.195c-.07-.042-.157.062-.09.116a63 63 0 0 0 6.124 4.491c2.208 1.367 4.44 2.687 6.61 4.115a222 222 0 0 1 6.455 4.389 68 68 0 0 0 6.517 4.29.293.293 0 0 0 .295-.507m-9.359-14.53a42 42 0 0 0-5.153-3.232.063.063 0 0 0-.063.108 55 55 0 0 1 4.849 3.418c1.598 1.228 3.185 2.475 4.693 3.813a.055.055 0 0 0 .077-.077 35.4 35.4 0 0 0-4.403-4.03m17.171 13.2a15 15 0 0 0-.948-.684c-.697-.468-1.422-.888-2.133-1.334-1.405-.882-2.755-1.834-4.098-2.807-.061-.044-.12.057-.06.102 1.374 1.003 2.732 2.018 4.032 3.116.62.524 1.225 1.06 1.863 1.561.468.368 1.213 1.108 1.857 1.001a.15.15 0 0 0 .103-.182c-.05-.327-.368-.578-.615-.773m6.453-2.671c-.91-.67-1.847-1.304-2.75-1.984-1.9-1.428-3.73-2.96-5.575-4.459a1164 1164 0 0 1-10.62-8.764c-.062-.05-.15.034-.09.088 3.47 3.062 7 6.046 10.573 8.985 1.754 1.444 3.55 2.84 5.285 4.306.865.73 1.704 1.49 2.563 2.228.687.59 1.593 1.614 2.543 1.694a.134.134 0 0 0 .128-.168c-.288-.848-1.37-1.421-2.057-1.926m7.321-.103a12 12 0 0 0-.882-1.154 24 24 0 0 0-1.05-.987c-.718-.643-1.477-1.239-2.224-1.847-1.487-1.211-2.868-2.562-4.283-3.856a110 110 0 0 0-8.581-7.347c-.04-.03-.088.035-.052.068 2.795 2.634 5.776 5.052 8.629 7.622 1.423 1.283 2.875 2.554 4.17 3.97.622.678 1.232 1.367 1.874 2.027.334.343.674.685 1.027 1.01a14 14 0 0 0 1.135.8c.193.146.36-.148.237-.306m-12.026-18.374c-.022-.014-.04.019-.02.033a64 64 0 0 1 7.093 6.185c.043.043.105-.021.066-.067a33.3 33.3 0 0 0-7.14-6.151m17.952 15.788c-.261-.281-.541-.536-.823-.795a35 35 0 0 0-1.798-1.528c-.6-.48-1.241-.914-1.822-1.417a35 35 0 0 1-1.722-1.606c-.079-.078-.2.043-.122.121q.838.83 1.65 1.68c.543.567 1.02 1.197 1.555 1.773a23 23 0 0 0 1.638 1.598c.299.262.594.52.917.754a2 2 0 0 0 .919.453.17.17 0 0 0 .162-.213 2 2 0 0 0-.554-.82m9.203-1.336c-1.553-1.42-3.435-2.466-5.11-3.734-1.82-1.376-3.557-2.854-5.295-4.33a442 442 0 0 1-9.863-8.663c-.026-.024-.065.015-.04.039q4.849 4.514 9.91 8.787c1.653 1.4 3.325 2.777 4.961 4.197a54 54 0 0 0 4.954 4.33c.375.252.817-.321.483-.626m3.384-5.554c-.838-.565-1.675-1.127-2.488-1.727-1.776-1.31-3.495-2.7-5.197-4.104q-4.915-4.056-9.593-8.397c-.026-.023-.064.014-.039.04q4.577 4.52 9.521 8.632c1.617 1.346 3.269 2.648 4.91 3.964.847.68 1.679 1.378 2.521 2.064.606.493 1.45 1.44 2.29 1.4a.095.095 0 0 0 .09-.12c-.226-.813-1.363-1.313-2.015-1.752m5.556-2.546a5.3 5.3 0 0 0-1.498-1.6c-.622-.51-1.255-1.005-1.885-1.505q-1.89-1.499-3.735-3.05-3.68-3.106-7.259-6.327c-.018-.017-.046.01-.027.027q3.52 3.36 7.11 6.647 1.773 1.619 3.538 3.246c.59.54 1.18 1.08 1.787 1.602a5.05 5.05 0 0 0 1.815 1.16.138.138 0 0 0 .154-.2m5.816-5.068a7.6 7.6 0 0 0-1.79-1.139q-.965-.523-1.889-1.116a84 84 0 0 1-3.72-2.545c-2.434-1.755-4.743-3.682-7.158-5.464-.043-.031-.095.038-.057.074a65 65 0 0 0 7.027 5.485c1.227.867 2.47 1.71 3.716 2.55.64.433 1.274.873 1.898 1.328a6.7 6.7 0 0 0 1.817 1.094.161.161 0 0 0 .156-.267m3.699-5.907a7.7 7.7 0 0 0-1.6-.677 11.7 11.7 0 0 1-1.997-.932q-1.71-.962-3.376-1.992a731 731 0 0 0-6.68-4.098c-.039-.024-.07.035-.035.06a69 69 0 0 0 6.59 4.253q1.651.94 3.312 1.864a15 15 0 0 1 1.793 1.11 8.4 8.4 0 0 0 1.606 1.073.383.383 0 0 0 .387-.661m2.432-5.416a19 19 0 0 0-2.408-.955q-1.402-.554-2.79-1.144a138 138 0 0 1-5.12-2.295c-.049-.023-.092.049-.043.074 1.692.863 3.401 1.69 5.137 2.46q1.184.524 2.378 1.023a16.4 16.4 0 0 0 2.747 1.073.13.13 0 0 0 .099-.236m.74-5.319a2.5 2.5 0 0 0-.73-.311c-.282-.097-.57-.179-.854-.267q-.854-.265-1.7-.552-1.69-.572-3.38-1.136c-.026-.009-.043.03-.019.042a33 33 0 0 0 3.258 1.367q.842.301 1.692.58a4.8 4.8 0 0 0 1.693.422.079.079 0 0 0 .04-.145m.471-4.769a15 15 0 0 0-3.311-.601c-.027-.004-.031.039-.006.046a15 15 0 0 0 3.301.67c.07.003.076-.094.016-.115m2.592-2.349a1.2 1.2 0 0 0-.414-.224 2.2 2.2 0 0 0-.469-.11 2.7 2.7 0 0 0-.963.082c-.085.02-.047.141.035.128a3.2 3.2 0 0 1 .913.02 4 4 0 0 1 .428.083c.145.033.287.09.434.107.045.006.065-.058.036-.086m1.789-3.347c-.075-.084-.224-.092-.329-.117a3 3 0 0 0-.329-.046q-.33-.037-.663-.067c-.054-.006-.06.077-.012.092q.322.102.645.197a3 3 0 0 0 .315.08.6.6 0 0 0 .353.013.098.098 0 0 0 .02-.152m1.497-2.74a.9.9 0 0 0-.56-.032 1.14 1.14 0 0 0-.512.259c-.05.043.023.116.072.071a1.04 1.04 0 0 1 .464-.244 1.4 1.4 0 0 1 .522-.003.028.028 0 0 0 .014-.05M118.5 449.176c-1.664-1.483-3.474-2.809-5.173-4.253a170 170 0 0 1-5.037-4.428c-.015-.014-.037.008-.022.022a106 106 0 0 0 4.999 4.6 53 53 0 0 0 5.18 4.127c.041.026.09-.035.053-.068m-13.015-7.152-3.112-3.272c-.017-.018-.044.01-.027.028l3.023 3.36c.999 1.111 1.988 2.283 3.095 3.289a.043.043 0 0 0 .06-.061c-.917-1.182-2.009-2.26-3.039-3.344m-4.357-2.284c-.68-.596-1.372-1.178-2.06-1.765-.034-.03-.084.02-.05.05.691.584 1.379 1.173 2.077 1.748.023.02.056-.013.033-.033M66.69 484.597a40 40 0 0 0-3.992-2.398 52 52 0 0 1-3.979-2.617 45.3 45.3 0 0 1-7.125-6.391c-.055-.06-.14.028-.089.088a49 49 0 0 0 7.005 6.747 44 44 0 0 0 3.877 2.704 15.1 15.1 0 0 0 4.232 2.039.094.094 0 0 0 .072-.172m6.079-.162c-2.796-1.568-5.647-2.978-8.328-4.75a66 66 0 0 1-7.75-5.972c-.06-.054-.147.033-.088.088a62 62 0 0 0 7.621 6.037 43 43 0 0 0 8.512 4.676c.046.017.074-.055.033-.079m6.198-1.119a46.7 46.7 0 0 1-8.326-4.122c-2.639-1.689-5.127-3.61-7.595-5.537-.027-.02-.066.016-.039.04a84 84 0 0 0 7.49 5.744 25.9 25.9 0 0 0 8.447 3.957.043.043 0 0 0 .023-.082m3.929-2.014c-.907-.586-1.905-1.037-2.861-1.539q-1.397-.731-2.758-1.527a88 88 0 0 1-5.418-3.405c-.03-.02-.055.026-.027.047a58 58 0 0 0 5.383 3.666 28.4 28.4 0 0 0 5.63 2.88c.074.023.112-.082.05-.122m4.399-1.886c-1.117-.613-2.326-1.054-3.468-1.62-1.149-.57-2.283-1.156-3.383-1.815-.061-.036-.113.056-.055.095a32 32 0 0 0 3.342 2.009 16 16 0 0 0 3.513 1.452.067.067 0 0 0 .051-.121m3.595-2.103c-.633-.157-1.282-.216-1.91-.4a10.7 10.7 0 0 1-1.874-.72.035.035 0 0 0-.035.06 8 8 0 0 0 1.825.839 5.3 5.3 0 0 0 1.984.297c.041-.004.056-.065.01-.076m38.821-.075c-3.43-1.262-6.988-2.207-10.488-3.253-.053-.016-.075.066-.023.082 3.477 1.124 6.943 2.363 10.484 3.269a.05.05 0 0 0 .027-.098m5.351-1.491c-1.527-.398-3.095-.64-4.626-1.024a75 75 0 0 1-4.564-1.28c-.03-.01-.04.035-.013.045a55 55 0 0 0 4.62 1.41 30 30 0 0 0 4.572.925c.045.004.053-.065.01-.076m7.141-1.221c-2.771-.593-5.622-.888-8.427-1.28-.024-.002-.036.034-.01.039 2.795.472 5.603 1.048 8.427 1.317.044.005.053-.067.01-.076m5.105-1.621c-.751-.032-1.507.007-2.26-.024a19 19 0 0 1-2.315-.245c-.073-.012-.106.096-.031.113a14.6 14.6 0 0 0 2.301.346 8.5 8.5 0 0 0 2.317-.098c.054-.011.039-.09-.012-.092m8.17-1.262c-.03.002-.03.049 0 .046 2.297-.184 4.594-.365 6.89-.565.02-.002.02-.033 0-.031-2.298.171-4.594.362-6.89.55m47.543-27.047c-.027-.042-.094-.004-.068.04 3.183 5.295 6.107 10.728 9.063 16.15.015.027.053.004.04-.023a143 143 0 0 0-9.035-16.167m-1.105 3.364c-.016-.03-.063-.003-.047.028 2.976 5.916 5.962 11.835 9.176 17.626.017.03.062.003.047-.028-2.9-5.954-6.036-11.795-9.176-17.625m.287 8.155a.02.02 0 0 0-.034.02c2.628 4.732 5.231 9.491 8.1 14.083a.027.027 0 0 0 .048-.028c-2.531-4.786-5.341-9.427-8.114-14.075m1.914 9.121c-.034-.062-.128-.007-.095.055 1.487 2.746 2.933 5.52 4.523 8.21a.027.027 0 0 0 .047-.028c-1.407-2.79-2.964-5.504-4.475-8.237m3.472 12.31c-.014-.02-.048 0-.033.02a6.2 6.2 0 0 1 1.004 2.3c.006.03.05.018.045-.012a5.8 5.8 0 0 0-1.016-2.308m-33.511-144.859c-.04-.077-.149-.009-.115.067a53 53 0 0 0 5.708 10.038c.04.055.131.007.094-.055-1.973-3.305-3.934-6.62-5.687-10.05m3.648 1.621c-.032-.057-.118-.006-.088.051a71 71 0 0 0 6.387 10.225c.028.035.085-.01.062-.047-2.16-3.393-4.399-6.713-6.361-10.23m4.393 3.286c-.02-.03-.066-.003-.048.028a80 80 0 0 0 7.519 10.327c.026.03.08-.01.055-.042-2.565-3.403-5.152-6.77-7.526-10.313m5.21 3.936c-.017-.019-.043.009-.028.028 1.996 2.505 4.016 4.998 6.162 7.377.024.026.06-.012.039-.04-1.964-2.53-4.06-4.958-6.173-7.364m10.353 6.755c-1.41-1.235-2.873-2.408-4.326-3.591-.031-.025-.076.018-.045.044 1.431 1.21 2.854 2.431 4.327 3.59.031.025.075-.017.044-.043m-47.441-55.594c-.006-.03-.057-.024-.054.007a25.1 25.1 0 0 0 2.863 9.528c.025.045.106.014.085-.036a45.5 45.5 0 0 1-2.895-9.5m-2.101 3.324c-.014-.065-.11-.037-.098.027a24.2 24.2 0 0 0 1.518 5.12c.015.037.077.01.064-.027a47 47 0 0 1-1.484-5.12m58.199-222.012c-3.828-1.755-8.015-2.162-12.158-2.608a60 60 0 0 1-3.282-.431 17 17 0 0 0-3.083-.387 3.3 3.3 0 0 0-.772.082 7 7 0 0 1-.83.28c-.557.08-1.153.058-1.716.093-1.07.066-2.139.16-3.206.26-2.409.227-4.8.578-7.194.926-.057.008-.043.102.013.1 2.088-.085 4.178-.14 6.265-.243q1.602-.079 3.206-.126a9.5 9.5 0 0 1 3.267.105 6.95 6.95 0 0 0 3.02-.117 29 29 0 0 1 3.182-.237 31.6 31.6 0 0 1 6.343.694c2.312.482 4.607 1.126 6.882 1.759.087.024.15-.11.063-.15"/><path fill="currentColor" d="M209.693 73.603a21 21 0 0 0-5.93-2.263 44 44 0 0 0-6.397-1.016c-2.203-.246-4.418-.516-6.634-.608a60 60 0 0 0-6.761.176.05.05 0 0 0 0 .101c2.217.11 4.43.188 6.65.19 2.143.003 4.28-.041 6.416.167a44 44 0 0 1 6.432 1.234c2.137.535 4.107 1.41 6.181 2.119.061.02.093-.068.043-.1m-4.937-7.191a.008.008 0 0 0-.005.015l1.191.343a.008.008 0 0 0 .004-.015Zm-3.184-44.138a28.6 28.6 0 0 0-8.182-5.13c-.04-.018-.076.04-.035.06a50.3 50.3 0 0 1 8.17 5.131c.035.026.079-.031.047-.061m3.221 4.439a57.8 57.8 0 0 0-12.757-8.216c-.03-.016-.058.03-.027.047 4.442 2.465 8.546 5.377 12.737 8.23.037.025.08-.031.047-.06m.544 3.532a19.6 19.6 0 0 0-3.27-2.104 6.6 6.6 0 0 1-1.895-1.412 1.28 1.28 0 0 0-.626-.517 37 37 0 0 1-.905-.46 80 80 0 0 0-7.211-3.498c-.033-.013-.056.041-.024.057a65 65 0 0 1 6.972 3.89 5.3 5.3 0 0 0 1.382.912 3 3 0 0 1 .814.24c.134.069.26.148.387.23.284.182.567.37.84.568 1.094.788 2.036 1.85 3.186 2.548a.29.29 0 0 0 .35-.454m1.286 4.069a2.77 2.77 0 0 0-1.079-.929c-.514-.324-1.03-.643-1.53-.99a53 53 0 0 0-2.982-1.955 29.6 29.6 0 0 0-6.302-2.89c-.04-.013-.052.044-.017.06a56 56 0 0 1 6.312 3.044 29 29 0 0 1 2.827 1.817 13 13 0 0 1 1.364 1.176 3.4 3.4 0 0 0 1.195.943c.162.056.285-.14.212-.276m-4.183.354a12.95 12.95 0 0 0-4.7-2.562.027.027 0 0 0-.02.05c1.525.91 3.127 1.694 4.669 2.58.04.023.09-.036.052-.068m5.299 3.482a1.8 1.8 0 0 0-.348-.251c-.109-.069-.216-.14-.328-.203-.24-.134-.484-.262-.725-.394a42 42 0 0 1-1.43-.825c-.039-.023-.072.035-.035.06.454.317.906.633 1.347.966.22.167.44.338.663.502a3 3 0 0 0 .693.424c.165.057.27-.165.163-.279m.232 3.777a16 16 0 0 0-1.369-1.155 40 40 0 0 0-1.397-1.071 58 58 0 0 0-2.998-2.067c-.038-.025-.072.035-.035.06.984.685 1.949 1.395 2.91 2.11.467.345.924.702 1.39 1.049.489.364.957.782 1.47 1.111.023.015.047-.018.029-.037m-.83 2.35c-.898-.64-1.823-1.236-2.745-1.84-.026-.016-.049.024-.024.041.91.621 1.815 1.247 2.75 1.833.021.013.04-.02.02-.034m.847 3.703a.05.05 0 0 0 0 .1.05.05 0 0 0 0-.1m.208 3.586c-.045-.055-.12.023-.077.077.668.862 1.33 1.726 2.056 2.54.032.037.096-.011.067-.051-.641-.888-1.345-1.725-2.046-2.566m-8.837-33.55a14.3 14.3 0 0 0-3.31-2.307 21.6 21.6 0 0 0-3.714-1.58c-.054-.018-.074.063-.023.082a27 27 0 0 1 3.67 1.735c1.15.652 2.2 1.447 3.316 2.15a.051.051 0 0 0 .061-.08m8.643 62.511c-.037-.034-.092.02-.055.055 1.019.969 2.035 1.936 3.097 2.859.026.022.064-.014.039-.04-1-.989-2.04-1.93-3.081-2.874m4.615 9.3q-.442-.442-.89-.88c-.598-.58-1.202-1.156-1.802-1.735l-3.606-3.471a.043.043 0 0 0-.06.06l3.503 3.574 1.703 1.737c.292.297.59.588.887.882a3.8 3.8 0 0 0 .914.781.067.067 0 0 0 .09-.09 3.5 3.5 0 0 0-.74-.858m-2.322 2.542a44.5 44.5 0 0 0-5.22-4.317c-.028-.02-.055.027-.027.047a47 47 0 0 1 5.173 4.461q1.153 1.152 2.221 2.384c.746.86 1.434 1.773 2.213 2.604a.043.043 0 0 0 .068-.052 26.4 26.4 0 0 0-4.428-5.128m-.778 4.179c-1.692-1.6-3.37-3.213-5.057-4.818a.031.031 0 0 0-.044.045c.772.873 1.57 1.72 2.414 2.525.846.807 1.742 1.55 2.654 2.281.023.019.055-.012.033-.033m4.856 4.976a8 8 0 0 0-.392-.455q-.409-.436-.816-.875a59 59 0 0 1-1.579-1.805c-.04-.047-.102.02-.066.066a62 62 0 0 1 1.454 1.93q.335.473.667.947.159.227.334.44c.118.147.244.334.432.385a.173.173 0 0 0 .217-.165.87.87 0 0 0-.251-.468m-6.003-1.452a80 80 0 0 0-1.75-1.653c-.595-.542-1.21-1.06-1.822-1.583-.038-.032-.092.02-.055.056.582.552 1.16 1.11 1.76 1.644.6.536 1.212 1.057 1.829 1.575.026.022.064-.014.038-.04m6.631 7.408c-.263-.313-.538-.615-.807-.922-.54-.614-1.062-1.242-1.587-1.869-.033-.038-.086.017-.056.056.522.656 1.045 1.31 1.553 1.977.23.303.457.61.692.91a4.3 4.3 0 0 0 .813.886c.056.04.108-.035.085-.086a4.3 4.3 0 0 0-.693-.952m-1.005 3.376q-1.32-1.41-2.696-2.767-2.72-2.68-5.662-5.113c-.03-.025-.075.017-.044.044a110 110 0 0 1 5.502 5.133q1.295 1.298 2.54 2.644c.868.94 1.666 1.981 2.62 2.834.041.037.113-.01.08-.061a21 21 0 0 0-2.34-2.714m-2.609 2.205a.016.016 0 0 0-.016.028 14.6 14.6 0 0 1 2.568 2.014.023.023 0 0 0 .033-.033 12.2 12.2 0 0 0-2.585-2.008"/><path fill="none" d="M175.99 135.022a.012.012 0 0 0 0-.024"/><path fill="currentColor" d="M206.665 132.979a49 49 0 0 0-6.031-.965q-3.082-.384-6.176-.61c-1.03-.075-2.064-.12-3.093-.2-1.062-.084-2.147-.286-3.208-.308a26 26 0 0 0-3.08.448c-1.021.1-2.045.19-3.064.313a54 54 0 0 0-6.766 1.254.023.023 0 0 0 .012.045 52 52 0 0 1 6.166-1.089 42 42 0 0 1 3.062-.257 12 12 0 0 1 1.419-.012c.562.046 1.096.231 1.658.229.996-.004 1.974-.198 2.969-.243 1.032-.046 2.06-.015 3.092.03 2.026.088 4.048.293 6.06.534 2.324.278 4.63.767 6.96.977.084.007.1-.126.02-.146m-10.595-3.214q-5.538.085-11.06.448c-.025.002-.025.04 0 .039q5.538-.073 11.06-.44c.03-.002.03-.047 0-.047m12.314 1.529a14.2 14.2 0 0 0-4.249-.873 180 180 0 0 0-4.299-.637c-.026-.003-.031.04-.006.046 1.429.334 2.86.64 4.297.938a14 14 0 0 0 4.216.679c.073-.008.12-.112.04-.153M66.405 65.87c-1.987.664-4.027 1.28-5.965 2.072a15.7 15.7 0 0 0-2.653 1.626 76 76 0 0 0-2.616 1.818 38 38 0 0 0-5.354 4.69.04.04 0 0 0 .055.056 54 54 0 0 1 4.97-3.89 31 31 0 0 1 3.87-2.31c.496-.25 1.029-.403 1.52-.65.91-.458 1.745-1.08 2.623-1.594a19 19 0 0 1 2.936-1.347 41.4 41.4 0 0 1 5.907-1.713 60 60 0 0 1 7.09-.968.02.02 0 0 0 0-.04 39.6 39.6 0 0 0-12.383 2.25"/><path fill="currentColor" d="M75.41 64.897a20.4 20.4 0 0 0-5.873 1.098c-.916.293-1.814.638-2.733.922a7.5 7.5 0 0 0-2.719 1.014 7 7 0 0 1-1.27.935c-.495.266-.998.518-1.496.78-.873.461-1.743.927-2.615 1.39-1.855.988-3.713 1.978-5.614 2.876-.012.005-.004.026.009.021a59 59 0 0 0 5.352-2.49c.878-.454 1.749-.92 2.624-1.378a10.8 10.8 0 0 1 2.964-1.369 6.9 6.9 0 0 0 2.566-1.198 14 14 0 0 1 2.795-1.225 29.6 29.6 0 0 1 6.01-1.305c.044-.006.047-.071 0-.07m-10.04 4.966c-.934.4-1.849.84-2.769 1.268-.045.022-.006.089.04.068.922-.423 1.848-.836 2.756-1.288.032-.016.004-.061-.028-.048m43.711 56.269c-5.383-.415-10.604 1.549-15.654 3.129q-1.66.516-3.308 1.07c-1.155.389-2.366.684-3.498 1.118a8 8 0 0 0-1.379.803c-.516.32-1.062.592-1.593.887a48 48 0 0 0-3.033 1.817 34 34 0 0 0-6.021 4.88c-.025.025.013.063.038.038a25.8 25.8 0 0 1 5.55-4.263 37 37 0 0 1 4.672-2.206c.55-.208 1.108-.274 1.66-.436a7 7 0 0 0 1.445-.685 14 14 0 0 1 1.644-.745 97 97 0 0 1 3.26-1.248c2.39-.88 4.79-1.744 7.232-2.472a36 36 0 0 1 8.985-1.625.031.031 0 0 0 0-.062"/><path fill="currentColor" d="M106.888 124.82a63 63 0 0 0-14.738 2.569 97 97 0 0 0-7.196 2.509 43.7 43.7 0 0 0-6.458 3.677 65 65 0 0 0-6.975 4.672c-.018.014.005.043.023.03 2.052-1.397 4.052-2.815 6.219-4.038a61 61 0 0 1 6.875-3.083c1.131-.466 2.218-1.031 3.35-1.502 1.128-.47 2.272-.89 3.432-1.275 2.314-.768 4.67-1.403 7.043-1.962a71 71 0 0 1 8.425-1.527c.044-.005.046-.073 0-.07m-27.425 5.568c-1.396.736-2.756 1.527-4.115 2.33a.02.02 0 0 0 .02.033c1.388-.75 2.768-1.506 4.12-2.322a.023.023 0 0 0-.025-.04m62.307 59.799a47 47 0 0 0-5.858-1.498l-5.892-1.375a.023.023 0 0 0-.012.045l5.964 1.55a46 46 0 0 0 5.786 1.37c.056.007.058-.075.013-.092m1.189-1.813a24 24 0 0 0-3.706-1.187c-1.317-.382-2.636-.758-3.948-1.158-2.623-.799-5.243-1.603-7.84-2.48-.044-.015-.061.051-.02.067 2.567.975 5.15 1.92 7.765 2.757 1.268.406 2.539.806 3.817 1.178a19.7 19.7 0 0 0 3.903.933.059.059 0 0 0 .03-.11m-2.541-3.113a23 23 0 0 0-3.283-1.218c-1.14-.366-2.283-.728-3.432-1.066a300 300 0 0 0-7.038-1.974.023.023 0 0 0-.012.046l6.822 2.29c1.098.366 2.202.714 3.303 1.07a25.6 25.6 0 0 0 3.577 1.002c.084.014.153-.105.063-.15m-1.7-3.486c-.467.18-1.023-.111-1.463-.26q-.645-.216-1.293-.42l-2.917-.922q-2.863-.905-5.723-1.819c-.082-.026-.115.1-.035.128q3.22 1.101 6.437 2.21c1.072.37 2.14.751 3.22 1.101.504.164 1.477.702 1.845.073.026-.043-.018-.112-.07-.091m-2.901-3.367c-2.995-1.138-6.133-1.949-9.198-2.876-.033-.01-.047.042-.014.053 3.046.984 6.088 2.106 9.197 2.875a.027.027 0 0 0 .015-.052m-2.027-3.459c-3.213-1.24-6.571-2.093-9.883-3.024a.02.02 0 0 0-.01.037c3.26 1.097 6.517 2.285 9.87 3.07a.043.043 0 0 0 .023-.082m-2.726-3.361a36 36 0 0 0-3.506-1.213l-3.662-1.145c-.053-.017-.075.065-.023.083l3.566 1.227a37 37 0 0 0 3.595 1.12c.04.01.072-.053.03-.072m-1.36-2.893a8.6 8.6 0 0 0-1.543-.51q-.771-.234-1.545-.457l-3.213-.934a.02.02 0 0 0-.01.037l3.188 1.025c.511.165 1.023.33 1.537.487a8.6 8.6 0 0 0 1.562.44c.047.004.063-.067.024-.088m-3.589-4.41a14 14 0 0 0-1.523-.372l-1.538-.32c-.04-.008-.056.051-.017.06l1.555.372a14 14 0 0 0 1.517.306c.027.004.03-.038.006-.046m-1.002-2.93a3 3 0 0 0-.467-.173 10 10 0 0 0-.53-.136l-1.048-.23a.027.027 0 0 0-.015.052l1.023.327q.25.078.506.143a3 3 0 0 0 .511.09.04.04 0 0 0 .02-.073m-1.723-2.877a.02.02 0 0 0 0 .039.02.02 0 0 0 0-.04m-.51-4.262-.34-.016a.043.043 0 0 0 0 .086l.34-.016a.027.027 0 0 0 0-.054m-14.603-40.555a7.6 7.6 0 0 0-1.117-.534l-1.094-.488-2.227-.992c-.037-.016-.069.038-.032.054l2.253 1.037 1.126.518a7 7 0 0 0 1.07.455.027.027 0 0 0 .021-.05m-1.737-3.165a13.9 13.9 0 0 0-5.948-2.254c-.034-.005-.05.046-.014.053a18 18 0 0 1 3.002.91c1.001.404 1.95.888 2.92 1.358a.04.04 0 0 0 .04-.067m-1.322-3.112a4.2 4.2 0 0 0-1.27-.617 22 22 0 0 0-1.398-.493 27 27 0 0 0-2.987-.716c-.025-.004-.036.032-.01.038a30 30 0 0 1 2.886.882c.465.168.932.329 1.393.51a5.8 5.8 0 0 0 1.353.476.047.047 0 0 0 .033-.08m-2.051-3.585a4.2 4.2 0 0 0-.994-.416q-.5-.17-1.006-.319-1.051-.308-2.1-.624c-.069-.02-.095.082-.03.106q1.034.374 2.065.755.495.182.999.345a4 4 0 0 0 1.039.255.055.055 0 0 0 .027-.102m-2.234-2.87a27 27 0 0 0-2.899-.834.02.02 0 0 0-.01.038 27 27 0 0 0 2.894.849.027.027 0 0 0 .015-.053m-1.876-3.393a8 8 0 0 0-1.097-.291l-1.108-.252a.027.027 0 0 0-.014.053l1.117.3a7.6 7.6 0 0 0 1.094.251c.038.004.038-.05.008-.061"/><path fill="none" d="M97.35 95.524a.004.004 0 0 0 0-.007"/></svg>