<svg xmlns="http://www.w3.org/2000/svg" data-name="three" viewBox="0 0 302.022 544.815"><path fill="currentColor" d="M301.573 526.191a38 38 0 0 0-1.562-5.418c-1.255-3.586-2.86-7.04-4.312-10.547a67 67 0 0 1-3.62-10.742 82.5 82.5 0 0 1-1.33-11.584 41.4 41.4 0 0 0-.84-6.472 21.6 21.6 0 0 0-2.036-5.207c.402-1.163.807-2.325 1.172-3.5a144 144 0 0 0 4.779-19.941c2.2-13.767 1.878-27.733 2.11-41.625q.097-5.818.346-11.63c.06-1.353.149-2.704.243-4.054 1.099-5.649 1.92-11.36 2.528-17.076a200 200 0 0 0 1.16-20.536 76 76 0 0 0-.555-10.229 47 47 0 0 0-2.324-9.554 54 54 0 0 0-3.18-7.125c-.656-3.42-1.505-6.815-2.335-10.192-.471-1.922-.927-3.848-1.423-5.763-.481-1.862-1.038-3.704-1.503-5.57a61 61 0 0 1-1.39-11.768c-.198-3.921-.39-7.843-.612-11.763-.122-2.141-.222-4.293-.514-6.42a36 36 0 0 0-.623-3.256 5.3 5.3 0 0 0-1.043-2.314 9.7 9.7 0 0 0 .945-1.672 25 25 0 0 0 1.714-6.137 62.4 62.4 0 0 0 .171-13.735q-.57-8.241-1.847-16.413c-.842-5.406-1.98-10.76-2.853-16.16-.244-1.51-.452-3.026-.683-4.539-.231-1.52-.567-3.02-.703-4.554-.025-.285-.04-.57-.056-.854 1.275-9.504 1.777-19.12 2.267-28.687.575-11.22.834-22.465.456-33.697a238 238 0 0 0-3.316-33.226c-1.93-10.984-5.511-21.774-6.09-32.963a81.8 81.8 0 0 0-2.434-16.425c-1.42-5.487-3.25-10.863-5.03-16.242q-2.677-8.09-5.444-16.151a146 146 0 0 0-5.264-14.346c-1.806-3.88-4.439-7.634-8.414-9.512a16.64 16.64 0 0 0-13.18-.084c-8.93 3.58-14.154 13.11-17.027 21.789-6.805 20.558-1.633 42.605 4.958 62.487.307.923.593 1.92.974 2.839-.007.018-.025.025-.028.047a21 21 0 0 0-.28 2.313c-.025.825.042 1.662.096 2.486.108 1.658.288 3.315.437 4.97l.884 9.818c.588 6.53 1.248 13.06 1.667 19.605a122 122 0 0 1-.11 19.715c-.634 6.435-1.685 12.852-2.668 19.242q-.815 5.3-1.767 10.578-.48 2.638-1.018 5.264c-.235 1.142-.497 2.291-.696 3.447l-.046-.343c-.003-.018-.033-.014-.03.004l.05.49c-.027.16-.06.32-.083.481-2.927-.315-5.275 1.947-7.718 3.19a19.1 19.1 0 0 1-8.579 1.977 32 32 0 0 1-2.04-.066l-.032-.113a.25.25 0 0 0-.017-.167 66 66 0 0 0-.853-1.806l-.058-.116a.6.6 0 0 0-.02-.148c-.607-1.844-1.043-3.751-1.625-5.606q-.905-2.882-1.824-5.76c-1.183-3.71-2.422-7.404-3.638-11.104l-7.361-22.393c-1.177-3.581-2.377-7.161-3.27-10.826a100 100 0 0 1-1.888-11.285c-.453-3.612-.888-7.233-1.65-10.796a72 72 0 0 0-3.34-10.794c-2.7-6.995-5.742-13.862-8.565-20.809q-4.292-10.565-8.32-21.236-4.005-10.674-7.607-21.493c-2.231-6.744-4.088-13.621-6.461-20.316-2.124-5.992-4.887-12.016-9.438-16.573A25 25 0 0 0 121.084.084c-6.015-.603-11.384 2.078-15.26 6.584a40.6 40.6 0 0 0-8.79 17.623 27.6 27.6 0 0 0-.222 10.247 54.7 54.7 0 0 0 3.061 10.25c2.622 6.933 5.175 13.885 7.499 20.924a341 341 0 0 1 11.323 43.055q2.08 10.93 3.275 21.995c.802 7.334 1.814 14.505 4.293 21.49 4.83 13.604 13.196 26.108 14.866 40.718a39.3 39.3 0 0 1-.138 10.199c-.452.488-.961.917-1.394 1.423a48 48 0 0 0-4.338 6.063 27 27 0 0 1-1.96 3.016c-.163.2-.349.376-.523.565-.977-1.683-1.932-3.378-2.972-5.025-1.278-2.02-2.57-4.032-3.82-6.07-2.466-4.011-4.832-8.088-7.168-12.176q-3.544-6.2-6.988-12.457a137 137 0 0 1-6.417-12.759c-1.757-4.144-3.028-8.55-5.447-12.382-2.382-3.774-5.727-6.819-8.51-10.282-5.223-6.498-9.203-13.886-13.134-21.204-1.99-3.703-3.981-7.4-6.168-10.991-.93-1.53-1.973-2.968-3.015-4.417-1.705-4.065-3.653-8.004-5.66-11.94l-7.314-14.346c-2.325-4.558-4.591-9.152-7.01-13.661a60.5 60.5 0 0 0-7.742-11.634c-5.576-6.307-13.947-10.93-22.56-9.112C11.14 47.407 4.91 53.638 2.097 60.835c-3.507 8.974-2.217 19.124.958 27.99 3.387 9.46 8.723 18.11 13.39 26.965 4.947 9.388 9.655 18.906 14.456 28.37q7.274 14.337 14.509 28.695 3.6 7.188 7.145 14.404a142 142 0 0 0 7.253 13.72 112 112 0 0 0 9.054 11.977q5.081 6.042 10.267 11.994 2.048 2.365 4.141 4.68a17.83 17.83 0 0 0-6.23 7.626 24.5 24.5 0 0 0-.643 15.873 32 32 0 0 0 3.06 7.278 11.7 11.7 0 0 0-11-1.638 28.3 28.3 0 0 0-6.242 3.38q-3 2.005-5.845 4.226-2.85 2.213-5.535 4.631c-1.653 1.49-3.452 3.013-4.347 5.104a15.1 15.1 0 0 0-.755 6.905 59 59 0 0 0 1.03 7.59c.992 5.105 2.284 10.16 3.481 15.22q.883 3.73 1.775 7.459a50 50 0 0 0 2.017 7.217 33.5 33.5 0 0 0 4.577 7.49c.168 1.41.407 2.814.563 4.228.21 1.919.41 3.841.556 5.766a91 91 0 0 1 .138 11.602 39.5 39.5 0 0 0-.102 5.748 18.7 18.7 0 0 0 1.379 5.106 23.8 23.8 0 0 1 1.512 5.311c.272 1.884.366 3.794.544 5.689.731 7.8 1.893 15.551 3.162 23.28 1.254 7.643 2.487 15.296 3.85 22.92a53.7 53.7 0 0 0 2.639 10.34 27 27 0 0 0 2.394 4.771 19.7 19.7 0 0 0 2.66 3.199 25 25 0 0 0 .233 3.529 36.7 36.7 0 0 0 4.196 11.701c2.022 3.885 4.188 7.697 6.44 11.453 4.463 7.444 9.304 14.655 14.335 21.725 5.063 7.114 10.32 14.087 15.602 21.039q2.062 2.714 4.127 5.426a28.3 28.3 0 0 0 4.194 4.907 13.8 13.8 0 0 0 3.22 1.941 3.4 3.4 0 0 0 .158.622 16 16 0 0 0 .621 1.603 78 78 0 0 0 1.399 3.057 45 45 0 0 1 2.498 6.113c.616 2.007 1.1 4.051 1.656 6.075a48 48 0 0 0 .912 3.004 8 8 0 0 0 .616 1.422 4 4 0 0 0 .42.584c.163.185.406.326.553.521a.298.298 0 0 0 .542-.229c-.098-.468-.01-.98-.115-1.466a14 14 0 0 0-.453-1.495 55 55 0 0 1-.922-3.12c-.545-2.026-1.028-4.07-1.674-6.068a39 39 0 0 0-2.523-5.952 66 66 0 0 0-1.635-2.982c-.224-.381-.45-.766-.695-1.136.09.033.176.071.266.103 1.74.621 3.563.923 5.326 1.454.873.264 1.74.553 2.589.886.186.073.292-.215.132-.314-3.051-1.883-6.573-2.872-9.625-4.746a15.7 15.7 0 0 1-4.24-3.791c-1.37-1.74-2.686-3.522-4.026-5.283-5.168-6.795-10.327-13.598-15.321-20.521-4.965-6.883-9.768-13.887-14.237-21.103q-3.364-5.431-6.451-11.029a60.7 60.7 0 0 1-5.317-11.537 32.2 32.2 0 0 1-1.391-10.993 28.4 28.4 0 0 1 1.012-5.558 30.7 30.7 0 0 1 1.932-5.38 23 23 0 0 1 1.348-2.385c.025-.039-.035-.072-.06-.035a29.1 29.1 0 0 0-4.69 10.131 36 36 0 0 0-.939 6.844 34 34 0 0 1-3.185-6.89 67 67 0 0 1-2.354-9.153c-1.42-7.39-2.54-14.847-3.785-22.267-1.28-7.642-2.524-15.297-3.352-23.003-.208-1.937-.37-3.878-.55-5.817a27 27 0 0 0-.893-5.298c-.523-1.75-1.356-3.389-1.863-5.144a17.2 17.2 0 0 1-.43-5.647 97 97 0 0 0-.184-12.8 74 74 0 0 0-.562-4.727l.15.148q.538.523 1.088 1.033c.752.702 1.52 1.39 2.295 2.07q1.081.948 2.193 1.857c.75 1.208 1.472 2.433 2.19 3.66-2.37-1.968-5.067-3.594-7.434-5.52-.015-.013-.036.007-.022.022a47.5 47.5 0 0 0 4.978 4.123q1.573 1.17 3.09 2.401l.009.014a170 170 0 0 1 2.425 4.41c-2.978-2.653-6.151-5.072-9.283-7.538-.03-.023-.071.016-.042.041 3.117 2.643 6.191 5.34 9.474 7.778a201 201 0 0 1 2.556 5 61 61 0 0 0-5.353-4.63 149 149 0 0 0-5.72-4.402c-.054-.04-.103.048-.052.087q2.98 2.28 5.874 4.668c1.787 1.468 3.49 3.068 5.34 4.458.452.915.907 1.83 1.345 2.753q1.554 3.27 3.006 6.587c.954 2.173 2.023 4.26 3.146 6.349.513.955 1.01 1.917 1.5 2.884.675 2.223 1.426 4.43 2.315 6.571 1.88 4.531 4.275 9.124 8.061 12.362a17.3 17.3 0 0 0 2.55 1.806c-.762 5.204-1.58 10.398-2.309 15.606-.007.053.07.079.083.023a128 128 0 0 0 2.347-15.564 16 16 0 0 0 2.385 1.126c-.16.652-.263 1.326-.382 1.977q-.255 1.396-.494 2.795a91 91 0 0 0-.769 5.441c-.007.07.108.085.123.017a91 91 0 0 0 1.065-5.568q.227-1.404.439-2.81c.087-.583.189-1.18.247-1.774.335.118.664.248 1.008.341a15 15 0 0 0 1.487.31c-.173.915-.278 1.848-.391 2.767-.16 1.298-.314 2.596-.475 3.893-.007.05.077.061.088.012.286-1.278.537-2.563.733-3.858a24 24 0 0 0 .295-2.778 17 17 0 0 0 2.085.166c-.026.103-.049.185-.056.217-.083.405-.169.81-.238 1.217a36 36 0 0 0-.335 2.344c-.006.05.076.06.088.012a32 32 0 0 0 .615-3.062c.033-.221.07-.443.1-.665l.009-.063a23 23 0 0 0 5.33-.608 64 64 0 0 0 8.828-2.905 31 31 0 0 0 7.245-3.645 14.8 14.8 0 0 0 4.941-6.099 22 22 0 0 0 1.634-7.805 45.4 45.4 0 0 0-.57-8.362 83 83 0 0 0-1.98-9.627c-3.225-12.04-9.236-23.044-14.695-34.168-.202-.41-.389-.826-.587-1.237.43-2.427.786-4.867 1.258-7.287q.846-4.337 1.874-8.634c.002-.01-.013-.014-.015-.004a176 176 0 0 0-1.96 8.738c-.454 2.315-.924 4.654-1.246 7-.558-1.158-1.1-2.325-1.64-3.491.704-2.466 1.27-4.97 1.768-7.485.004-.02-.026-.028-.03-.008-.518 2.487-1.142 4.947-1.778 7.406a205 205 0 0 1-2.555-5.72 19.3 19.3 0 0 0 3.541-2.323 17.6 17.6 0 0 0 2.78-3.26c.016-.022-.019-.048-.037-.029a21 21 0 0 1-3.098 2.474 16 16 0 0 0 1.133-1.18 17 17 0 0 0 1.575-2.13 12.3 12.3 0 0 0 1.01-2.422c.008-.022-.023-.032-.035-.015-.47.67-1.06 1.25-1.577 1.886a20 20 0 0 1-1.603 1.761 21 21 0 0 1-1.814 1.544l-.405.307a66 66 0 0 0 1.42-10.238 101 101 0 0 0 9.109 7.693 189 189 0 0 0-2.306 10.842 94 94 0 0 0-1.5 10.935c-.002.035.056.043.062.008.632-3.655 1.062-7.344 1.679-11.003q.91-5.402 2.106-10.753a66 66 0 0 0 8.729 5.492c-.793 4.32-1.453 8.669-2.175 13.001-.766 4.593-1.638 9.176-2.278 13.789-.005.036.048.053.056.016 1.03-4.575 1.762-9.223 2.53-13.848.712-4.29 1.425-8.596 1.95-12.915a54 54 0 0 0 5.126 2.337c.755.296 1.516.547 2.284.776-.037.11-.07.222-.11.333-.004.013.01.009.021.009-.283 1.043-.431 2.135-.625 3.193a118 118 0 0 0-.63 3.9 140 140 0 0 1-.65 3.895 24 24 0 0 0-.62 3.657.031.031 0 0 0 .061.009 12 12 0 0 0 .395-1.929q.175-.97.358-1.938c.243-1.29.497-2.577.774-3.86.277-1.284.543-2.568.777-3.86a30 30 0 0 0 .531-3.331c.457.132.913.267 1.38.379h.002l.005.02c.038.144.098.285.146.429a.3.3 0 0 0-.074.104 3 3 0 0 0-.142.62l-.236 1.197c-.177.9-.356 1.797-.523 2.698a113 113 0 0 0-.869 5.34c-.01.075.097.11.117.032.44-1.74.83-3.494 1.185-5.252.175-.865.338-1.732.503-2.599l.248-1.3.034-.188a13 13 0 0 0 1.47 2.457 30.6 30.6 0 0 0 5.667 5.535c.435.345.88.675 1.326 1.004a216 216 0 0 0-.537 9.624c-.06 1.704-.118 3.406-.111 5.11.003.873-.037 1.747-.065 2.619-.014.415.115 3.038-.677 2.738-.036-.014-.05.038-.024.057a.44.44 0 0 0 .243.096 90 90 0 0 0-1.63 2.166c.023-2.539-.127-5.072-.038-7.614q.138-3.92.63-7.814c.001-.007-.01-.007-.011 0q-.517 3.89-.69 7.814a52 52 0 0 0 .049 7.7 71 71 0 0 0-2.434 3.579c.034-2.23-.035-4.457.068-6.689a91 91 0 0 1 .583-6.965c.002-.015-.025-.018-.027-.003a79 79 0 0 0-.659 6.845 53 53 0 0 0-.023 6.903c-.254.399-.518.79-.762 1.195a52 52 0 0 0-3.654 7.423c-.025.061.078.105.107.045a72.7 72.7 0 0 1 7.48-12.416 53 53 0 0 1 3.663-4.22c.007.118.005.238.014.356a.037.037 0 0 0 .074 0c.013-.16.016-.32.027-.479q.616-.652 1.235-1.3c.907-.956 1.76-1.94 2.563-2.967l-.002.154c0 .034.055.044.062.008.016-.096.023-.194.038-.29a32 32 0 0 0 1.673-2.352 27 27 0 0 1 1.991-2.88c.455-.54 1.004-.99 1.496-1.486 2.646 1.611 5.277 3.25 7.76 5.093a99 99 0 0 0-2.081 12.636 55 55 0 0 0-2.257 3.657c.199-2.203.293-4.42.567-6.617.382-3.063.995-6.08 1.533-9.118a.02.02 0 0 0-.038-.01 51 51 0 0 0-1.903 8.951 46 46 0 0 0-.576 7.525 70 70 0 0 0-1.68 3.257 101 101 0 0 1 1.523-18.158c.005-.024-.032-.035-.037-.01a73.3 73.3 0 0 0-1.724 18.678c-.316.661-.635 1.32-.93 1.991q-.66 1.501-1.28 3.023c-.129-2.711-.224-5.42-.177-8.137a100 100 0 0 1 .73-10.33c.003-.019-.031-.024-.034-.004a79.7 79.7 0 0 0-.654 18.81 138 138 0 0 0-2.108 5.57c-.28-2.643-.537-5.285-.64-7.95a112 112 0 0 1 .146-11.312c.002-.03-.044-.03-.046 0a101 101 0 0 0-.216 11.435c.105 2.734.272 5.497.621 8.225a172 172 0 0 0-4.53 15.095 120.2 120.2 0 0 0-3.854 26.634 87 87 0 0 0 .698 13.345c.293 2.218.67 4.423 1.146 6.61.202.928.42 1.856.62 2.786q-.047.305-.096.598c-.155.893-.29 1.788-.426 2.683q-.397 2.596-.725 5.201-.68 5.383-1.144 10.794c-.006.072.1.068.11 0q.702-5.372 1.471-10.734l.747-5.134.314-2.138a24 24 0 0 1 .367 2.654 50.5 50.5 0 0 1-.248 7.167 74 74 0 0 0-.183 7.084 71.4 71.4 0 0 0 1.738 13.636c.244 1.11.51 2.212.822 3.306a.149.149 0 0 0 .287-.08 89 89 0 0 1-1.468-13.817q-.097-3.41.107-6.82c.136-2.326.452-4.633.615-6.955a26.7 26.7 0 0 0-.448-6.944c-.42-2.182-.97-4.335-1.364-6.522a81.6 81.6 0 0 1-1.242-13.081 111 111 0 0 1 2.997-26.466 164 164 0 0 1 7.654-24.597 77 77 0 0 1 5.051-10.445 49.7 49.7 0 0 1 7.01-9.163c.324-.34.693-.678.988-1.041a6 6 0 0 0 .381-.546l.122.118.78.805c.094.106.18.216.276.32a20 20 0 0 0 1.491 1.46 21 21 0 0 0 1.65 1.31c.288.207.58.416.887.594a4 4 0 0 0 .437.215.8.8 0 0 0 .29.093.3.3 0 0 0 .095-.027 4.9 4.9 0 0 0 .4 1.752q.526 1.273 1.104 2.523a53 53 0 0 0 2.629 4.923 68.4 68.4 0 0 0 6.398 8.938 64.7 64.7 0 0 0 16.733 14.214 52.8 52.8 0 0 0 11.32 4.971c.124.038.212-.157.09-.214a81.5 81.5 0 0 1-18.234-11.502 69.9 69.9 0 0 1-14.144-16.138 72 72 0 0 1-3.008-5.25c-.462-.896-.925-1.79-1.36-2.7a7 7 0 0 0-.686-1.332 8 8 0 0 0-.45-.518c.094.025.185.054.279.077 3.508.868 7.05 1.612 10.603 2.268 3.584.661 7.16 1.368 10.751 1.989a.102.102 0 0 0 .054-.196c-2.998-.907-6.008-1.816-9.038-2.612-2.953-.776-5.864-1.705-8.836-2.416-1.455-.349-2.942-.63-4.367-1.089a8.5 8.5 0 0 1-3.373-2.13 73 73 0 0 0-5.54-5.153c-8.016-6.36-17.778-10.349-25.235-17.442a21 21 0 0 1-2.813-3.205 13 13 0 0 1-1.061-1.822 12 12 0 0 1-.806-1.85c-.665-2.377-.188-5.517 1.766-7.177.024-.02-.008-.061-.033-.043a7.13 7.13 0 0 0-2.899 5.436 10.7 10.7 0 0 0 .28 3.231 87.4 87.4 0 0 1-13.993-8.004 114 114 0 0 1-12.507-10.67c-3.978-3.857-7.757-7.918-11.524-11.98-.58-.626-1.169-1.242-1.752-1.865a1 1 0 0 0-.07-.074c-3.279-3.5-6.59-6.968-9.851-10.484-4.004-4.317-7.828-8.906-10.344-14.274a25.7 25.7 0 0 1-2.29-15.187 16.7 16.7 0 0 1 6.888-10.917c-.08.094-.163.186-.238.284a6 6 0 0 0-.546.843.04.04 0 0 0 .061.047q.344-.343.699-.676a5.5 5.5 0 0 1 .74-.622c.264-.173.503-.38.76-.564a1.7 1.7 0 0 0 .379-.356l.091-.115a22 22 0 0 1 9.796-2.305 23.2 23.2 0 0 0-9.281 5.224 23.5 23.5 0 0 0-4.906 6.348 22 22 0 0 0-1.573 3.785 20 20 0 0 0-.482 1.913 6.9 6.9 0 0 0-.23 2.317 4.5 4.5 0 0 0 .295 1.023.34.34 0 0 0 .057.432c.122.101.259.19.385.287.038.045.071.101.113.14a6.8 6.8 0 0 0 1.394.922c1.255.807 2.585 1.527 3.87 2.223a89 89 0 0 0 6.085 3.014c2.068.923 4.158 1.793 6.248 2.666.422.176 4.37 1.838 4.306.426a1.54 1.54 0 0 0 .615-.484 14 14 0 0 0 1.177-2.439 34.1 34.1 0 0 1 7.07-9.188q1.166-1.149 2.373-2.256a15 15 0 0 1 1.345-1.04 8.3 8.3 0 0 1 1.41-1.046.616.616 0 0 0 .219-.833 9 9 0 0 0-2.003-1.971c-.686-.618-1.39-1.216-2.09-1.819a92 92 0 0 0-4.137-3.376q-.11-.3-.231-.594l1.614 1.2a4.5 4.5 0 0 0 .336.639.031.031 0 0 0 .057-.024 3 3 0 0 0-.141-.427l.774.576c.05.037.111-.044.066-.086-.33-.302-.666-.59-1.001-.88l-.146-.314q-.258-.543-.54-1.074a20 20 0 0 0-1.31-2.112c-.017-.024-.057-.002-.04.024.42.697.814 1.413 1.194 2.132q.281.532.538 1.076l.002.003a32 32 0 0 0-1.439-1.146c-.066-.05-.137-.096-.204-.144a17 17 0 0 0-1.656-2.897c-.017-.024-.057-.002-.04.024a31 31 0 0 1 1.496 2.73c-.448-.32-.902-.634-1.354-.956l-.278-.521c-.376-.703-.78-1.391-1.178-2.082a53 53 0 0 1 12.674 6.173c2.623 1.677 5.164 3.48 7.71 5.27a57 57 0 0 0 8.118 5.162c.516.245 1.02.493 1.526.734-.181-.042-.364-.078-.545-.122-1.609-.388-3.204-.805-4.817-1.171-.18-.041-.318.228-.133.314a55.6 55.6 0 0 0 9.16 3.107 64 64 0 0 0 9.667 1.781c5.737.62 12.139.273 17.205 3.477 2.527 1.597 4.43 3.976 6.46 6.126a43.7 43.7 0 0 0 6.568 5.658 91.3 91.3 0 0 0 15.229 8.224c5.637 2.56 11.252 5.135 16.73 8.026q8.41 4.44 16.426 9.577 8.068 5.171 15.678 11.014a96 96 0 0 0 7.754 5.674 69 69 0 0 0 8.788 4.192c10.806 4.76 19.215 13.234 26.826 22.034.922 1.065 1.878 2.1 2.82 3.146.118.13.347-.042.246-.19a108 108 0 0 0-11.12-13.493A64.2 64.2 0 0 0 264.5 312.75a45 45 0 0 0-3.03-1.624c1.64.359 3.273.756 4.877 1.247a43.3 43.3 0 0 1 12.808 6.195 35.6 35.6 0 0 1 5.937 5.401c.07.08.201-.023.147-.114-5.008-8.264-14.758-12.223-23.839-14.07-1.327-.27-2.671-.452-3.996-.733q-.429-.091-.855-.198-.24-.105-.477-.212a43 43 0 0 1-8.292-4.912c-5.135-3.823-10.155-7.758-15.47-11.34q-5.111-3.445-10.414-6.582c.56-.107 1.13-.335 1.602-.454a125 125 0 0 1 3.479-.825c2.364-.528 4.684-1.193 7.077-1.58a126 126 0 0 1 14.59-1.504q4.172-.184 8.342-.002c.095.004.094-.142 0-.148a125 125 0 0 0-12.57-.217c.217-.028.432-.06.648-.087.068-.009.073-.112 0-.11-2.318.073-4.639.036-6.956.15-1.18.057-2.359.115-3.54.155-1.09.037-2.183-.012-3.27.107-2.253.246-4.386.945-6.608 1.329a18.1 18.1 0 0 1-6.813-.58c-1.274-.268-2.556-.514-3.826-.807l-.267-.062c-.28-.153-.568-.293-.849-.444 1.883-.327 3.732-.847 5.604-1.248 2.418-.519 4.814-1.128 7.207-1.754a93.6 93.6 0 0 1 14.598-2.942c.03-.003.03-.049 0-.047a104 104 0 0 0-14.312 2.255c-2.388.492-4.771 1.009-7.166 1.467a29 29 0 0 1-3.692.552c-1.251.076-2.481.135-3.729.264a.97.97 0 0 0-.647.335c-1.089-.57-2.169-1.155-3.266-1.708a21.5 21.5 0 0 0 3.255-.168c1.019-.13 2.04-.259 3.046-.477a22 22 0 0 0 3.02-1.051c1.953-.727 3.958-1.35 5.96-1.93 2.277-.66 4.593-1.196 6.901-1.733.015-.004.009-.026-.006-.023-2.565.546-5.13 1.104-7.713 1.56-1.218.216-2.443.364-3.663.562-.672.108-1.336.233-2.014.298-.64.06-1.294.065-1.93.177-1.285.227-2.511.763-3.763 1.11a14.6 14.6 0 0 1-3.428.471 17 17 0 0 1-2.34-.108 237 237 0 0 0-5.95-2.813c-1.843-.836-3.694-1.662-5.535-2.508-1.517-1.346-3.077-2.649-4.604-3.976-.025-.022-.06.014-.036.035 1.386 1.232 2.756 2.49 4.152 3.718a102 102 0 0 1-9.807-5.065 48 48 0 0 1-7.023-5.054c-2.225-1.96-4.077-4.269-6.198-6.331a18.26 18.26 0 0 0-7.377-4.45 38.8 38.8 0 0 0-8.754-1.379 132 132 0 0 1-16.298-2.02c-1.285-.932-2.612-1.792-3.879-2.75-1.284-.974-2.624-1.853-3.954-2.76-2.656-1.813-5.257-3.704-7.904-5.528-5.178-3.568-10.646-6.894-16.717-8.695a27.3 27.3 0 0 0-16.45-.037A20.7 20.7 0 0 0 84 229.166c-5.9-7.65-12.388-14.836-18.24-22.522-6.107-8.02-10.177-17.169-14.618-26.159-4.64-9.392-9.372-18.74-14.108-28.084-4.655-9.185-9.244-18.408-13.996-27.544-2.383-4.58-4.767-9.161-7.205-13.712-2.324-4.335-4.746-8.62-6.949-13.019-4.24-8.463-7.66-17.653-7.2-27.268.405-8.448 4.256-16.685 11.679-21.135a18.25 18.25 0 0 1 10.917-2.645 22.6 22.6 0 0 1 11.813 5.008c7.295 5.733 11.301 14.502 15.413 22.571 4.472 8.78 8.795 17.661 13.464 26.34l-.08-.1a26 26 0 0 0-2.136-2.237c-.06-.055-.163.016-.116.09 1.103 1.738 2.299 3.416 3.422 5.144a77 77 0 0 1 1.702 2.715c.528.892.97 1.834 1.495 2.727 2.109 3.585 4.042 7.285 6.015 10.946 3.956 7.34 7.816 14.782 12.777 21.51a74 74 0 0 0 4.006 4.986c1.48 1.68 3.03 3.3 4.438 5.043 2.86 3.545 4.414 7.703 6.041 11.9 3.434 8.856 8.378 17.072 13.045 25.316 2.341 4.135 4.718 8.248 7.243 12.273q1.878 2.992 3.838 5.93c.154.231.315.462.472.693-.33 4.623-1.774 9.13-2.027 13.761a.051.051 0 0 0 .1.014 66 66 0 0 0 1.212-6.988 43.6 43.6 0 0 0 .76-6.721 64 64 0 0 0 2.036 2.865c-.39 1.676-.787 3.35-1.15 5.031a39 39 0 0 0-.874 4.955c-.005.055.076.06.092.012a40 40 0 0 0 1.126-4.974c.31-1.645.583-3.296.865-4.946.5.652 1.01 1.292 1.556 1.895l.071.08-.627 2.077c-.123.405-.226.815-.336 1.224a4.1 4.1 0 0 0-.211 1.221 14.6 14.6 0 0 0-2.554 5.265c-.038.139.16.187.21.058a13 13 0 0 1 4.294-5.473 22 22 0 0 0 2.67-2.111 16.4 16.4 0 0 0 2.058-2.95c1.265-2.1 2.677-4.093 4.07-6.108.721-1.046 1.32-2.162 2.108-3.163.772-.983 1.584-1.934 2.389-2.89 1.767-2.1 3.527-4.187 5.162-6.392.014-.019-.015-.037-.03-.024a72 72 0 0 0-5.412 5.335 105 105 0 0 0-2.476 2.806c-.085.1-.175.196-.261.295 2.115-13.416-3.888-26.423-9.206-38.428-2.864-6.466-5.664-13.035-7.171-19.97-1.561-7.19-1.928-14.604-2.945-21.88a308 308 0 0 0-9.275-42.734q-3.014-10.434-6.615-20.687-1.822-5.215-3.771-10.385c-1.245-3.306-2.588-6.588-3.557-9.99a28 28 0 0 1-1.11-10.524 32 32 0 0 1 2.817-9.93c2.523-5.571 6.162-11.688 11.845-14.485 5.224-2.571 11.43-1.468 16.33 1.31 5.474 3.102 9.168 8.163 11.845 13.754 2.886 6.031 4.576 12.555 6.554 18.917q3.299 10.606 7.08 21.054c5.057 14.065 10.64 27.934 16.403 41.723 2.84 6.793 5.775 13.57 7.152 20.843 1.365 7.216 1.662 14.589 3.524 21.716 1.92 7.35 4.577 14.538 6.949 21.752 2.412 7.337 4.776 14.691 7.253 22.006q.905 2.674 1.823 5.342c.454 1.321.989 2.617 1.474 3.928q.003.074.008.146a8 8 0 0 0 .173 1.318 8 8 0 0 0 .415 1.26 1.14 1.14 0 0 0 .19.532 29 29 0 0 1-5.532-1.152c-1.821-.583-3.597-1.3-5.36-2.037-1.829-.763-3.662-1.5-5.45-2.357-.05-.023-.093.048-.043.075a93 93 0 0 0 9.074 4.744 50 50 0 0 0 4.747 1.756 25.3 25.3 0 0 0 4.644.854 20 20 0 0 0 8.969-1.125 14.8 14.8 0 0 0 3.875-2.182c.493-.382.99-.807 1.513-1.188a19 19 0 0 1 2.06-.28c.175-.016.378-.039.59-.058.382.004.762.01 1.142.044.205.018.408.047.611.075a1.6 1.6 0 0 1 .255.086.38.38 0 0 0 .478-.078c.043-.014.085-.027.144-.048a.472.472 0 0 0 0 .902c1.432.48 2.937.718 4.397 1.099 1.461.382 2.91.809 4.356 1.246 2.891.874 5.778 1.747 8.68 2.582.057.016.077-.066.024-.087a136 136 0 0 0-8.568-2.987c-1.403-.44-2.81-.869-4.207-1.325-1.3-.424-2.584-.94-3.908-1.29a1 1 0 0 0-.047-.229c.63.14 1.262.27 1.9.371 1.963.315 3.965.452 5.949.588.113.007.14-.183.027-.2a34 34 0 0 1-5.087-1.193c-.837-.26-1.675-.512-2.504-.798-.453-.157-.914-.33-1.38-.475.343-1.062.6-2.155.843-3.242q.532-2.376 1.01-4.764a275 275 0 0 0 1.726-9.587c1.04-6.357 2.033-12.736 2.849-19.126a111.5 111.5 0 0 0 .648-19.82c-.334-6.589-1-13.158-1.59-19.727l-.994-11.06c-.164-1.822-.322-3.646-.492-5.468a46 46 0 0 0-.333-2.702c-.02-.134-.05-.263-.077-.395a.94.94 0 0 0 .836.137.695.695 0 0 0 .307-.932 2.6 2.6 0 0 0-.487-.778 4.85 4.85 0 0 1-.829-1.882c-1.483-5.418-3.142-10.784-4.527-16.23-2.65-10.419-4.383-21.159-3.683-31.936.649-9.98 3.395-20.312 9.395-28.46 2.812-3.82 6.6-7.092 11.235-8.397 4.613-1.298 9.656-.54 13.198 2.835 3.199 3.046 4.9 7.323 6.354 11.4 1.892 5.307 3.695 10.647 5.497 15.984 1.848 5.475 3.683 10.955 5.448 16.457a115.4 115.4 0 0 1 4.187 16.083c.918 5.472.74 11.034 1.592 16.52.864 5.57 2.248 11.04 3.484 16.534a216.4 216.4 0 0 1 4.713 33.324 338 338 0 0 1 .353 34.04 597 597 0 0 1-.837 16.676c-.358 5.68-.888 11.362-1.111 17.048-.109 2.77-.142 5.533-.126 8.304a.29.29 0 0 0 .28.278c.033.685.085 1.368.17 2.048.67 5.349 1.781 10.623 2.706 15.93q1.393 7.997 2.09 16.093a85 85 0 0 1 .392 14.242 27.2 27.2 0 0 1-1.386 6.824 33 33 0 0 1-1.37 3.181c-.238.5-.438 1.01-.637 1.525a12 12 0 0 1-.9 1.66c-.088.15.092.35.245.246a11.8 11.8 0 0 0 2.495-2.234 9.3 9.3 0 0 0 .08 1.507c.12 1.033.247 2.057.322 3.094.138 1.902.28 3.8.366 5.706q.265 5.868.56 11.734a74 74 0 0 0 1.186 11.9c.815 3.787 2.034 7.488 3.193 11.18.854 2.72 1.693 5.458 2.607 8.168-.82-1.425-1.619-2.86-2.467-4.27-.953-1.585-2.017-3.098-3.112-4.59a.035.035 0 0 0-.06.036c1.33 2.97 2.874 5.815 4.338 8.718a83 83 0 0 1 3.705 8.733 54 54 0 0 1 2.548 9.08 60 60 0 0 1 .807 10.175 207 207 0 0 1-3.823 40.292c-.7 3.681-1.33 7.392-2.16 11.047-.424 1.869-.797 3.748-1.212 5.619-.416 1.87-.95 3.706-1.382 5.57a.172.172 0 0 0 .331.092c.639-1.635 1.144-3.323 1.714-4.984.542-1.584 1.09-3.171 1.57-4.776a165 165 0 0 0 1.416-5.02c-.1 1.531-.188 3.063-.248 4.595-.272 6.919-.304 13.843-.514 20.763a193 193 0 0 1-1.496 20.645 140 140 0 0 1-4.498 20.04c-2.141 7.329-4.446 14.61-6.585 21.94-.061.211.273.366.364.154 1.984-4.623 3.931-9.266 5.63-14a29 29 0 0 1 .725 3.487c.27 1.88.538 3.753.69 5.65a112 112 0 0 0 1.128 11.648c1.385 7.42 4.861 14.307 7.695 21.246a105 105 0 0 1 2.181 5.902c.681 2 1.401 4.006 1.915 6.056a.177.177 0 0 0 .346-.046 28 28 0 0 0-.447-5.537M171.212 341.635q.079-.58.144-1.16l.034-.308c.399.357.811.699 1.198 1.07a4 4 0 0 0-.579.324 10 10 0 0 0-.91.747c.038-.225.081-.448.113-.673m-1.8-3.162q.832.687 1.644 1.397-.044.231-.082.46-.106.615-.19 1.234c-.054.385-.1.769-.129 1.156a33 33 0 0 0-1.82 1.89c-.218.242-.416.502-.629.75a96 96 0 0 0 .672-3.612q.192-1.163.387-2.326.08-.474.147-.949m-2.017-1.593q.884.664 1.736 1.363c-.102.417-.188.839-.272 1.254q-.24 1.198-.448 2.403a43 43 0 0 0-.472 3.78q-1.28 1.526-2.43 3.153c.739-3.979 1.379-7.994 1.806-12.01zm-9.701-5.675c.034-.191.054-.385.082-.578.283.172.562.35.845.522a6 6 0 0 0-.876.758c-.113.115-.207.248-.314.368a9 9 0 0 0 .263-1.07m-1.675-1.664c.455.279.905.564 1.362.842-.031.222-.058.444-.098.665-.104.589-.217 1.18-.317 1.77q-.587.735-1.102 1.515l-.232.36a14.3 14.3 0 0 0 .386-2.868c.037-.758.03-1.522 0-2.284m-1.51-.933q.672.418 1.346.832a53 53 0 0 1-.133 2.32c-.09 1.07-.224 2.126-.26 3.2-.32.499-.64.997-.97 1.489.08-1.186.098-2.38.103-3.56.005-1.417.001-2.855-.086-4.28m-1.47-.954c.314.204.618.42.933.623q.188.117.377.232c.025 1.421.063 2.842.037 4.265-.025 1.36-.117 2.72-.167 4.08l-.113.168c-.472.664-.988 1.29-1.515 1.908.198-2.014.251-4.044.311-6.066.05-1.722.157-3.475.138-5.21m-.182-.123c-.093 1.775-.08 3.564-.153 5.333-.085 2.067-.221 4.136-.233 6.206q-.418.488-.839.974c-.396.456-.777.921-1.167 1.381.11-2.482.079-4.98.176-7.46.1-2.551.298-5.1.424-7.651.596.408 1.189.82 1.792 1.217m-1.917-1.303c-.27 2.568-.389 5.168-.51 7.738-.12 2.557-.281 5.167-.204 7.743q-1.112 1.322-2.18 2.677a10.3 10.3 0 0 0 .102-2.215c.008-2.038.12-4.071.193-6.108.134-3.781.331-7.56.491-11.34q1.042.77 2.108 1.505m-86.35 10.95a146 146 0 0 0-2.274-1.967c-.528-.446-1.054-.934-1.61-1.366-.058-.36-.098-.723-.163-1.082a89 89 0 0 0-.573-2.985 91 91 0 0 1 1.693 2.276q2.211 3.1 4.236 6.325c-.44-.397-.864-.81-1.31-1.202m48.257-39.459a247 247 0 0 1-1.48 10.374 6 6 0 0 1-1.554.885 3 3 0 0 1-.34.08c.457-2.18.688-4.444 1.003-6.637q.443-3.08.864-6.163c.505.485.997.981 1.507 1.461m-1.554-1.506q-.51 3.141-1.002 6.285c-.336 2.176-.776 4.387-.972 6.59q-.137.023-.278.053c-.342-.835-.664-1.68-.993-2.52.275-1.728.472-3.473.699-5.201q.45-3.43.834-6.867.853.832 1.712 1.66m-2.362-2.29c.197.198.402.388.602.583q-.553 3.435-1.03 6.88c-.22 1.572-.463 3.15-.653 4.732-.159-.409-.328-.813-.483-1.224-.286-.758-.55-1.523-.825-2.285.222-1.35.4-2.708.593-4.057.27-1.893.548-3.786.772-5.684.343.35.678.707 1.024 1.055m-1.06-1.092c-.354 1.964-.654 3.938-.96 5.91-.176 1.14-.364 2.284-.527 3.43a186 186 0 0 1-1.015-2.94l.064-.43c.123-.837.248-1.674.365-2.512l.688-4.896c.462.48.92.963 1.386 1.438m-1.399-1.452-.735 4.603q-.193 1.205-.375 2.412l-.087.565c-.245-.727-.462-1.464-.699-2.194.097-.434.177-.873.254-1.307q.187-1.058.334-2.122c.138-.995.24-1.993.326-2.993.33.343.651.694.982 1.036m-1.03-1.087a83 83 0 0 1-.435 3.247q-.16 1.02-.343 2.038c-.054.3-.12.603-.178.905-.287-.89-.554-1.787-.83-2.68q.13-.884.254-1.768l.403-2.933c.378.396.75.796 1.129 1.191m-1.175-1.24-.495 3.028q-.112.696-.218 1.396-.486-1.581-.95-3.17.176-1.34.303-2.688c.454.477.905.958 1.36 1.435m-1.408-1.485q-.142 1.275-.312 2.545a138 138 0 0 1-.996-3.589l-.116-.458c.47.505.948 1.002 1.424 1.502m-22.574-25.183q.27.151.55.286c.366.567.766 1.112 1.153 1.665-.183-.094-.363-.185-.53-.275a38 38 0 0 0-1.821-.917q-1.845-.874-3.759-1.594c-.014-.006-.02.017-.006.022a42 42 0 0 1 3.809 1.765c.6.316 1.19.65 1.78.987.297.17.599.38.91.563q.788 1.094 1.616 2.154c-.745-.4-1.49-.796-2.25-1.168a77 77 0 0 0-5.389-2.363c-.024-.01-.042.031-.018.043 1.79.854 3.553 1.76 5.303 2.693q1.317.699 2.618 1.423c.149.082.297.173.446.264.104.127.202.26.307.386a103 103 0 0 0 2.758 3.17c-.189-.081-.375-.17-.564-.25-.532-.228-1.07-.446-1.594-.693-.577-.273-1.001-.71-1.569-.98-1.078-.513-2.139-1.064-3.213-1.586-.518-.253-1.036-.508-1.557-.755-.298-.142-.595-.287-.897-.42.175.077-1.02-.38-.783-.495.01-.005.003-.02-.007-.018l-.068.013a.02.02 0 0 0-.013.013.34.34 0 0 0 .117.311 3.6 3.6 0 0 0 .955.565q.434.236.87.465c1.202.631 2.412 1.248 3.62 1.866a7.2 7.2 0 0 0 1.424.653 8.7 8.7 0 0 1 2.154 1.043c.603.353 1.203.712 1.82 1.039l.017.01a263 263 0 0 0 3.859 4.101q-.717-.32-1.43-.644c-1.315-.6-2.559-1.312-3.832-1.988-2.503-1.328-5.168-2.409-7.736-3.607-.016-.008-.03.015-.014.023 2.473 1.3 4.92 2.658 7.42 3.905 1.216.607 2.486 1.1 3.694 1.735.619.324 1.227.668 1.843.997q.439.232.882.456c1.342 1.403 2.687 2.804 4.008 4.223q1.05 1.127 2.095 2.258a64 64 0 0 0 1.8 7.563q1.273 4.526 2.8 8.976a178 178 0 0 0 6.892 17.168c5.056 10.93 11.123 21.426 15.143 32.812a81 81 0 0 1 4.23 18.104c.542 4.957.539 10.46-2.3 14.78-2.954 4.497-8.536 6.315-13.352 8.04-5.317 1.903-11.341 3.491-16.62.614-4.126-2.248-6.891-6.356-8.969-10.447-1.215-2.394-2.237-4.895-3.232-7.386-1.175-2.943-2.285-5.898-3.238-8.921-.47-1.492-1.018-2.953-1.54-4.427a.153.153 0 0 0-.294.081q.25 1.604.584 3.184c-.59-1.435-1.248-2.85-1.885-4.256a207 207 0 0 0-6.135-12.474c-2.17-4.042-4.496-8-7.016-11.833q-1.89-2.875-3.928-5.65c-1.348-1.83-2.78-3.601-4.058-5.483a22.4 22.4 0 0 1-2.978-6.005c-.713-2.315-1.209-4.704-1.771-7.059q-1.754-7.337-3.47-14.683a74.5 74.5 0 0 1-2.418-14.735 9.83 9.83 0 0 1 1.428-6.233 16 16 0 0 1 2.147-2.261q1.3-1.21 2.643-2.372a90.4 90.4 0 0 1 11.16-8.321 17.6 17.6 0 0 1 6.148-2.652 11.27 11.27 0 0 1 6.072.623 15 15 0 0 1 1.99.988.2.2 0 0 0 .048.126 3 3 0 0 0 .57.444q.279.185.571.35m27.564-29.518.2.15c.1.214.208.425.303.641l-.06-.047c-.392-.298-.798-.575-1.196-.863q-.15-.29-.304-.577l-.083-.155c.388.282.767.574 1.14.851m-1.44-1.062.2.364.211.38c-.391-.28-.775-.571-1.171-.844a7 7 0 0 0-.303-.575 11 11 0 0 1 1.064.675m-1.05-.294c-.48-.327-.957-.659-1.448-.969q-.075-.095-.146-.193l-.038-.058a10 10 0 0 0 1.082.561c.082.036.16.085.24.125q.043.069.083.138.112.197.228.396m-.502-2.661c.367.724.728 1.451 1.118 2.163l.129.235a11 11 0 0 1-1.06-.878c-.103-.098-.215-.187-.324-.28l-.021-.034a25 25 0 0 0-1.096-1.577c.421.112.837.243 1.254.371m-1.348-.395q.413.66.82 1.325a18 18 0 0 0-1.638-1.037q-.2-.302-.405-.602c.412.092.816.207 1.222.314m-1.942.486.04.026.168.154a3.4 3.4 0 0 0 .663.494.027.027 0 0 0 .033-.043c-.046-.057-.1-.107-.15-.16q.464.301.934.596.073.114.15.23a33 33 0 0 0-3.399-1.851 1.6 1.6 0 0 0-.02-.308c.532.292 1.08.563 1.581.862m-3.685-.548a2 2 0 0 1 1.567.323.294.294 0 0 0 .436-.004l.092.065.065.09c.012.015.038 0 .027-.017l-.009-.014c2.58 1.864 5.245 3.61 7.753 5.575 1.42 1.112 2.822 2.263 4.144 3.49a60 60 0 0 1 1.898 1.854c.47.477.925 1.105 1.45 1.576-.2.22-.425.425-.626.631-.32.33-.571.716-.892 1.045-.639.652-1.333 1.256-1.986 1.895a69 69 0 0 0-3.764 3.976c-1.161 1.334-2.21 2.733-3.253 4.16a27 27 0 0 0-1.553 2.35c-.367.63-.752 1.995-1.653 1.809-.814-.168-1.61-.4-2.418-.594-.587-.255-1.192-.486-1.762-.74-1.942-.864-3.881-1.745-5.838-2.577-1.933-.821-3.821-1.73-5.7-2.668-1.602-.802-3.183-1.712-4.819-2.45a3 3 0 0 1-.137-.382 5.2 5.2 0 0 1 .115-2.102q.17-.926.425-1.835a21 21 0 0 1 1.253-3.368 22.45 22.45 0 0 1 9.653-10.103 20.3 20.3 0 0 1 3.648-1.512 13 13 0 0 1 1.884-.473m32.948-12.196a13 13 0 0 0-.857.938 6 6 0 0 0 .246-.788c.106-.426.218-.852.31-1.281l.443-2.065q.725.811 1.442 1.628c-.518.531-1.051 1.048-1.584 1.568"/><path fill="currentColor" d="M167.815 255.732a2.6 2.6 0 0 0-1.423.598 41 41 0 0 0-1.445 1.149c-.88.742-1.664 1.563-2.477 2.376-1.675 1.673-3.46 3.233-5.12 4.925a236 236 0 0 1-5.134 5.04 8.6 8.6 0 0 0-1.056 1.227c-.358.502-.377 1.065-.693 1.578-.624 1.012-1.325 1.975-1.936 2.996a32.4 32.4 0 0 1-4.846 6.76c-.029.028.014.07.044.044a31.8 31.8 0 0 0 4.645-5.25c.719-.965 1.41-1.948 2.122-2.918a7.6 7.6 0 0 1 1.074-1.373c.148-.123.367-.183.533-.303a3.7 3.7 0 0 0 .717-.797c.717-.927 1.237-2.007 1.89-2.983a30 30 0 0 1 2.225-2.914 54 54 0 0 1 5.03-5.018c1-.894 2.143-1.585 3.21-2.394q.768-.587 1.54-1.17a3.4 3.4 0 0 0 1.241-1.39.127.127 0 0 0-.141-.183m-3.941-2.666c-1.847.93-3.608 1.954-5.36 3.051a5.2 5.2 0 0 1-1.389.713 4.2 4.2 0 0 0-1.347.72 18 18 0 0 0-2.138 1.925c-1.321 1.311-2.938 2.291-4.286 3.578a18.3 18.3 0 0 0-3.186 4.157c-.51.885-.957 1.801-1.424 2.708a18 18 0 0 0-1.223 2.643.34.34 0 0 0 .494.38 3.62 3.62 0 0 0 1.376-1.854c.034-.086-.097-.13-.143-.06a3.9 3.9 0 0 1-1.153 1.072 4.7 4.7 0 0 1 .587-1.585c.24-.534.483-1.064.749-1.585a29 29 0 0 1 1.624-2.838 17.4 17.4 0 0 1 4.88-4.904 21 21 0 0 1 2.933-1.528 7.74 7.74 0 0 0 3-1.863 8 8 0 0 1 1.72-1.307c.475-.329.95-.658 1.417-.998a56 56 0 0 0 2.945-2.327c.057-.048-.015-.129-.076-.098m1.206 9.837c-1.59 1.692-3.23 3.334-4.874 4.972q-.608.606-1.218 1.209a12 12 0 0 0-1.194 1.185c-.702.909-1.296 1.894-1.944 2.84-.056.08.062.155.128.099.873-.742 1.8-1.43 2.626-2.226a13 13 0 0 0 1.076-1.35q.54-.672 1.084-1.342c1.445-1.786 2.895-3.566 4.398-5.304.049-.056-.03-.138-.083-.083m-40.114-57.187c-.373 2.098-.785 4.192-1.02 6.312-.128 1.152-.258 2.3-.425 3.448-.161 1.109-.441 2.198-.597 3.307-.026.19.264.276.294.081.18-1.156.236-2.33.406-3.489.157-1.07.354-2.128.55-3.191.395-2.138.614-4.3.868-6.458.005-.044-.069-.054-.076-.01m-1.999-3.083q-.689 2.92-1.272 5.86-.29 1.474-.582 2.946a15 15 0 0 0-.443 2.775.106.106 0 0 0 .208.028 16.3 16.3 0 0 0 .648-2.928l.53-2.84q.54-2.904.971-5.825c.006-.039-.05-.057-.06-.017m-2.391-2.045-.935 3.97q-.229.975-.442 1.953a7.4 7.4 0 0 0-.34 1.924c.005.08.118.124.16.044a7 7 0 0 0 .46-1.811q.213-1.02.41-2.041l.77-4.016c.01-.054-.07-.078-.083-.023m-2.059-2.555c-.214.95-.432 1.9-.643 2.851-.106.476-.198.955-.296 1.433a8 8 0 0 0-.213 1.352c-.001.056.074.06.092.013a8.4 8.4 0 0 0 .341-1.42c.09-.461.187-.92.268-1.383l.497-2.833c.005-.03-.039-.043-.046-.013m-1.969-1.177c-.161.683-.33 1.365-.468 2.053a.02.02 0 0 0 .037.01c.187-.676.342-1.36.506-2.042.012-.05-.064-.07-.075-.021m-22.575-38.478c-6.043.247-11.86 2.926-17.093 5.79-.67.366-1.343.733-2.029 1.068-.352.172-.716.19-1.065.344a5 5 0 0 0-1.026.769c-1.206.982-2.44 1.946-3.685 2.88-2.54 1.907-5.232 3.607-7.758 5.534-2.588 1.975-5.117 4.404-6.314 7.49-.014.035.038.051.057.024.88-1.275 1.735-2.6 2.74-3.783a22.6 22.6 0 0 1 3.18-3.046 84 84 0 0 1 7.709-5.364 43 43 0 0 1 3.942-2.145 12 12 0 0 0 1.975-.956c.306-.231.49-.548.813-.775.328-.23.67-.44 1.01-.651a54 54 0 0 1 8.034-4.007 90 90 0 0 1 9.518-3.11.031.031 0 0 0-.008-.062"/><path fill="currentColor" d="M77.563 167.063c-4.338 2.008-8.175 4.872-12.244 7.343q-.301.184-.61.357a8 8 0 0 1-.837.342c-.444.191-.462.571-.789.87-.727.667-1.55 1.228-2.276 1.902a13.4 13.4 0 0 0-3.537 4.68c-.018.047.053.072.079.033a23 23 0 0 1 3.91-4.685q.529-.467 1.08-.905.378-.301.764-.591a1.9 1.9 0 0 1 .722-.318c.452-.134.52-.406.831-.742a10 10 0 0 1 1.306-1.039 76 76 0 0 1 11.621-7.214c.023-.011.003-.044-.02-.033m-25.107-64.601a1.15 1.15 0 0 0-1.253-.655 12.3 12.3 0 0 0-2.31.475q-1.224.3-2.429.667a51 51 0 0 0-4.831 1.747c-1.493.625-2.954 1.333-4.405 2.049-.755.372-1.516.733-2.272 1.105-.746.367-1.56.67-2.278 1.086a3.3 3.3 0 0 0-.903.924 10 10 0 0 1-1.08 1.143c-.67.655-1.387 1.262-2.067 1.908a54 54 0 0 0-3.978 4.138c-.01.011.006.028.016.017a28.3 28.3 0 0 1 7.04-6.216 8.2 8.2 0 0 0 1.933-.99c.559-.522 1.123-1.035 1.731-1.501a23.6 23.6 0 0 1 3.93-2.458 43.3 43.3 0 0 1 8.67-3.176q1.076-.268 2.164-.482c.243-.048 1.725-.427 1.657.178-.037.335-.628.406-.88.571a6.5 6.5 0 0 1-1.385.723q-.594.217-1.184.443-1.286.494-2.565 1.008-2.574 1.028-5.072 2.234c-1.78.86-3.692 1.594-5.376 2.628a.418.418 0 0 0 .422.722c1.663-.952 3.194-2.1 4.906-2.978q2.648-1.36 5.394-2.516c.914-.385 1.84-.732 2.776-1.061.432-.153.864-.315 1.302-.447.5-.15 1-.04 1.496-.182.524-.149 1.051-.478.831-1.104m94.369-44.024c-1.35-.214-2.701-.448-4.061-.583-.027-.003-.032.04-.007.046.627.13 1.261.227 1.893.33q.142.023.285.044c-.971-.047-2.047-.079-2.217-.084a58 58 0 0 0-7.923.318 48.5 48.5 0 0 0-7.3 1.22c-1.077.292-2.196.564-3.246.942a1.7 1.7 0 0 0-.658.36c-.186.197-.22.342-.46.503-.48.322-.987.61-1.474.922a29.8 29.8 0 0 0-5.819 4.655c-.03.033.018.082.05.05a21.8 21.8 0 0 1 4.79-3.746 16 16 0 0 1 2.722-1.244c.41-.14.76.011 1.189-.166.47-.194.896-.487 1.358-.697a34.7 34.7 0 0 1 12.92-2.684c1.323-.056 2.647-.065 3.972-.072 1.314-.008 2.66-.084 3.97.002.065.004.082-.105.016-.116"/><path fill="currentColor" d="M141.427 56.873a17.7 17.7 0 0 0-4.557.123 19 19 0 0 1-2.37.114 7.4 7.4 0 0 0-2.193.408 47 47 0 0 0-8.786 3.131c-.028.013-.004.053.023.04a36.6 36.6 0 0 1 8.894-2.696c.427-.068.849-.082 1.276-.113a4 4 0 0 0 .964-.287 10.7 10.7 0 0 1 2.306-.437 31 31 0 0 1 2.27-.133 17 17 0 0 0 2.173-.067c.041-.006.04-.076 0-.083m25.345 69.295a33.6 33.6 0 0 0-7.993.243 55 55 0 0 0-7.72 1.568 57 57 0 0 0-7.374 2.584c-.6.258-1.194.53-1.795.785a13.6 13.6 0 0 0-1.898.822c-.543.333-.873.905-1.389 1.29-.551.41-1.12.795-1.684 1.189a56 56 0 0 0-6.894 5.547c-.022.021.01.053.033.033a54 54 0 0 1 6.318-4.883 9 9 0 0 1 3.518-1.735 3.6 3.6 0 0 0 1.6-.702 18 18 0 0 1 1.66-1.025 48.2 48.2 0 0 1 14.781-4.818c2.932-.474 5.88-.578 8.837-.789a.055.055 0 0 0 0-.11"/><path fill="currentColor" d="M157.305 125.998a2.2 2.2 0 0 0-1.213.006q-.733.097-1.464.203c-1.1.16-2.2.333-3.292.537a61 61 0 0 0-6.372 1.605c-.927.278-1.882.507-2.782.865a14.5 14.5 0 0 0-2.496 1.332 25 25 0 0 0-4.326 3.679.055.055 0 0 0 .078.077 22.5 22.5 0 0 1 4.829-3.176c.805-.42 1.638-.777 2.44-1.204a22 22 0 0 1 2.56-1.257 36 36 0 0 1 5.92-1.568q1.617-.309 3.25-.524.826-.109 1.655-.202a2.4 2.4 0 0 0 1.212-.272c.031-.023.045-.081 0-.101m5.57-.841a2.8 2.8 0 0 0-1.203-.009 5 5 0 0 0-1.203.358c-.036.015-.023.073.017.06a6.7 6.7 0 0 1 1.2-.24 6 6 0 0 1 .603-.045 4 4 0 0 0 .586-.034c.048-.008.04-.077 0-.09m99.16-36.415c-.556.026-1.083-.093-1.642-.032a5 5 0 0 0-1.655.408 11.4 11.4 0 0 1-3.581.993q-3.675.56-7.39.785a62 62 0 0 1-7.247.09 53 53 0 0 1-3.67-.322 6 6 0 0 0-1.707-.176 9 9 0 0 0-.885.297c-.303.077-.619.121-.925.184-2.307.472-5.298.804-7.181-.934-.028-.025-.08.01-.055.043a5.7 5.7 0 0 0 4.39 2.095 67.7 67.7 0 0 0 23.783.154.051.051 0 0 0-.013-.1 117 117 0 0 1-23.226-.043l.087.002a22 22 0 0 1 3.809-.102 3.7 3.7 0 0 0 1.6-.265 14 14 0 0 1 2.157-.302c2.525-.268 5.103-.094 7.64-.229q3.747-.198 7.466-.737 1.072-.155 2.14-.338a11 11 0 0 1 2.341-.28 5.9 5.9 0 0 0 1.914-.102 11.3 11.3 0 0 0 1.901-.9.102.102 0 0 0-.051-.19m-19.347 5.851c-2.265-.202-4.534-.296-6.806-.393-.06-.002-.06.09 0 .094 2.269.16 4.533.322 6.806.377.051.001.05-.074 0-.078M268.4 151.23c-2.455-.026-4.873.073-7.325-.144-2.554-.226-5.104-.55-7.637-.94a170 170 0 0 1-7.276-1.271c-.605-.12-1.181-.33-1.786-.44a5.4 5.4 0 0 0-1.601.166 14.5 14.5 0 0 1-3.406-.385 19.7 19.7 0 0 1-6.967-2.226c-.079-.047-.144.07-.07.121a18.4 18.4 0 0 0 5.77 2.69c1.1.302 2.228.49 3.35.682a4.7 4.7 0 0 1 1.472.36 3.05 3.05 0 0 0 1.822.413 63 63 0 0 1 7.638.328c2.536.168 5.06.471 7.592.688a32.5 32.5 0 0 0 8.436.051c.053-.01.039-.092-.013-.092"/><path fill="currentColor" d="M270.774 148.403c-1.89-.061-3.788.09-5.678.136-1.873.046-3.694-.096-5.56-.212-.912-.057-1.802.186-2.717.213q-1.421.042-2.841.032-2.84-.017-5.678-.13c-.061-.002-.06.09 0 .094q2.835.227 5.678.379 1.42.075 2.84.155a22 22 0 0 0 2.842.242c1.899-.136 3.779-.314 5.683-.386a48 48 0 0 0 5.45-.377c.086-.014.06-.144-.02-.146m-150.495 96.101c-.228.57-.472 1.136-.675 1.715a43 43 0 0 0-.574 1.742c-.015.05.057.066.075.021q.353-.851.669-1.717c.21-.573.38-1.162.566-1.744.012-.04-.046-.053-.06-.017m-1.199.25a74 74 0 0 0-1.82 4.619c-.013.037.048.064.064.027a74 74 0 0 0 1.827-4.616c.015-.04-.054-.07-.071-.03m-1.406.894a44 44 0 0 0-1.532 3.258 26.5 26.5 0 0 0-1.211 3.286c-.01.033.042.057.057.024.49-1.055.9-2.154 1.34-3.23.455-1.11.924-2.214 1.388-3.32.01-.024-.03-.041-.042-.018m-1.809 1.722c-.442 1.05-.879 2.1-1.298 3.158a33 33 0 0 0-1.202 3.184c-.01.034.04.056.057.024a33 33 0 0 0 1.266-3.11c.419-1.076.82-2.159 1.214-3.245.01-.024-.028-.033-.037-.01m-2.273 2.82c-.36.899-.737 1.793-1.073 2.7a20 20 0 0 0-.922 2.742c-.007.034.039.057.057.025a19.4 19.4 0 0 0 1.065-2.656c.338-.922.635-1.86.948-2.79.017-.048-.057-.066-.075-.02m-2.412 3.833q-.2.668-.447 1.322c-.082.218-.175.432-.255.65-.078.216-.18.43-.241.652a.027.027 0 0 0 .05.02 5 5 0 0 0 .294-.628c.09-.21.162-.43.234-.645q.226-.673.403-1.361a.02.02 0 0 0-.038-.01m.07-19.81q-.223-.352-.45-.7l-.899-1.402c-.016-.025-.056-.002-.04.023l.883 1.443q.216.356.434.71a5 5 0 0 0 .454.673c.02.022.047-.006.037-.029a5 5 0 0 0-.419-.718m1.252-.176c-.01-.018-.036-.002-.027.016a5.2 5.2 0 0 0 .82 1.223c.017.019.043-.008.027-.027a7 7 0 0 1-.82-1.212m66.334 114.956c-.275-.232-.59-.424-.883-.632q-.486-.346-.95-.72a20 20 0 0 1-1.69-1.532c-.024-.026-.063.013-.038.038a20 20 0 0 0 1.691 1.576q.42.347.858.671a6 6 0 0 0 .98.642c.025.012.058-.021.032-.043m-.724.959c-.02-.043-.097-.012-.078.033a74 74 0 0 0 6.698 12.49c.025.038.084.004.06-.035-2.442-4.046-4.614-8.24-6.68-12.488m11.284 146.172a98 98 0 0 1-23.535-14.18c-.023-.02-.056.012-.033.032a71.5 71.5 0 0 0 23.511 14.284c.078.027.135-.102.057-.136m12.034-.807c-.187-.135-.307-.347-.494-.475a3 3 0 0 0-.63-.256q-.697-.266-1.395-.528-1.448-.54-2.885-1.112c-.989-.392-1.973-.806-2.92-1.29a8.2 8.2 0 0 1-1.437-.847 5 5 0 0 0-1.056-.839 129 129 0 0 1-10.909-5.744 127 127 0 0 1-5.856-3.67c-.047-.032-.088.042-.044.073q5.105 3.567 10.44 6.795 2.61 1.583 5.286 3.055a4.8 4.8 0 0 0 1.243.613 8 8 0 0 1 1.532.402c1.02.421 2.004.928 2.982 1.436 1.02.53 2.035 1.063 3.062 1.578q.77.385 1.549.75a3.8 3.8 0 0 0 .727.32 4 4 0 0 0 .735-.007.138.138 0 0 0 .07-.254m12.855.009c-.502-.378-1.096-.64-1.622-.991a.12.12 0 0 0-.184.087c-3.992-1.993-8.048-3.855-12.047-5.836q-6.9-3.417-13.8-6.831c-.026-.013-.05.026-.023.04q6.817 3.557 13.635 7.112c4.545 2.37 9.001 4.904 13.582 7.204a.455.455 0 0 0 .46-.785m8.254-.607a15 15 0 0 0-2.365-1.215l-2.42-1.127q-2.473-1.156-4.923-2.36-4.846-2.38-9.605-4.93a.02.02 0 0 0-.02.033q4.736 2.704 9.573 5.224 2.366 1.228 4.754 2.412 1.195.591 2.399 1.163a14 14 0 0 0 2.505 1.043.133.133 0 0 0 .103-.243m8.473-1.281a13 13 0 0 0-1.937-1.113 5.9 5.9 0 0 0-2.045-1.15l-.318-.18a32.6 32.6 0 0 0-4.786-1.681 42 42 0 0 1-4.84-2.057 30.6 30.6 0 0 0-4.78-2.105c-.023-.006-.031.027-.01.034a32 32 0 0 1 4.796 2.51 40 40 0 0 0 4.484 2.059c.796.32 1.595.634 2.38.98q.123.054.243.11c-.05.004-.1.003-.149.007a.031.031 0 0 0 0 .063c.133.008.263.027.394.042a10 10 0 0 0 1.862.72 22 22 0 0 1 2.304.694c.061.023.12.052.18.076q.283.163.563.332c.045.027.078-.001.093-.04.512.251 1.011.528 1.541.742.024.01.045-.027.025-.042m5.088.243a.044.044 0 0 0-.022-.069 18 18 0 0 0-2.566-.72.043.043 0 0 0-.023.082l.283.093-.26-.07a30 30 0 0 1-3.455-1.093c-.008-.003-.014.01-.006.014 1.057.49 2.1 1 3.185 1.426.586.23 1.19.41 1.778.638.242.094 1.097.456 1.242.027.047-.138-.031-.244-.156-.328M123.57 375.23c.417-.404.249-1.327.132-1.803-.338-1.377-.75-2.733-1.176-4.085a67 67 0 0 0-2.92-7.754 36.8 36.8 0 0 0-4.166-7.046 12.45 12.45 0 0 0-5.73-4.567c-2.686-.904-5.51-.328-8.097.648a16.6 16.6 0 0 0-6.15 3.843 10.7 10.7 0 0 0-2.96 6.848 25.8 25.8 0 0 0 1.25 8.234c.875 3.333 1.758 6.665 2.74 9.968.24.806.502 1.605.74 2.41a14 14 0 0 0 .68 2.182 1.24 1.24 0 0 0 1.331.796c.015.016.021.037.042.05.323.196.617-.064.858-.272.415-.359.808-.745 1.203-1.125.796-.763 1.579-1.537 2.408-2.265a23.7 23.7 0 0 1 5.197-3.613 18 18 0 0 1 6.777-1.565c1.28-.088 2.562-.173 3.844-.195.644-.01 1.288.02 1.93-.016a4 4 0 0 0 .831-.095.3.3 0 0 0 .032.06.3.3 0 0 0 .12.111 1 1 0 0 0 .17.07l.035.009.02.003a1 1 0 0 0 .13.017.9.9 0 0 0 .37-.097l.068-.037a1 1 0 0 0 .148-.113l.027-.031q.046-.055.087-.114a.46.46 0 0 0 .06-.394zm-.569-.215a.4.4 0 0 0-.15.1l-.03.033-.006.005-.014.008-.058.016-.04.001-.036.005a3.48 3.48 0 0 0-2.127-.507c-1.088-.03-2.179.037-3.264.1a30.4 30.4 0 0 0-6.045.742 21.1 21.1 0 0 0-8.921 5.495 29 29 0 0 0-2.504 2.569.4.4 0 0 0-.545.068c.02.003.018.032-.018.018-.008.01-.021.013-.028.026a.06.06 0 0 1 .026-.028.14.14 0 0 1-.055-.037 1 1 0 0 1-.12-.195 5 5 0 0 1-.326-.72 42 42 0 0 1-.81-1.975 88 88 0 0 1-1.329-3.745 68 68 0 0 1-2.03-7.672c-.895-4.48-1.723-9.655 1.581-13.377a15.1 15.1 0 0 1 5.08-3.54 14.2 14.2 0 0 1 6.813-1.51c2.371.151 4.248 1.655 5.76 3.382a31.2 31.2 0 0 1 3.949 5.894 55 55 0 0 1 3.221 7.45c.44 1.234.85 2.48 1.242 3.73.196.624.387 1.25.599 1.869.104.304.194.616.318.913.096.232.343.613.208.88a.45.45 0 0 0-.273-.023.4.4 0 0 0-.068.025"/><path fill="currentColor" d="M99.261 383.65c-.005 0-.012.01-.02.016l.001.002c.006-.008.014-.01.02-.018m-35.317-62.442a35.6 35.6 0 0 1-5.254.696c-.061.004-.084.104-.015.115a9.3 9.3 0 0 0 5.308-.718c.055-.024.014-.104-.04-.093m27.323-15.858c-.932-.524-1.623.099-2.277.734a16 16 0 0 1-2.511 1.939 51 51 0 0 1-5.25 2.862c-3.604 1.752-7.324 3.33-10.843 5.252a16.5 16.5 0 0 0-2.72 1.844 5.85 5.85 0 0 0-1.916 2.398c-.038.11.091.176.178.137a11 11 0 0 0 2.234-1.588c.69-.544 1.374-1.097 2.06-1.646a28.5 28.5 0 0 1 4.674-3.11c3.298-1.708 6.732-3.146 9.954-5 .9-.519 1.78-1.074 2.656-1.633.54-.344 1.788-1.504 2.609-1.384-.105.251-.196.507-.296.77a3.6 3.6 0 0 1-.891 1.293 10.3 10.3 0 0 1-2.38 1.724c-1.006.542-2.045 1.023-3.055 1.559-1.023.543-2.008 1.169-3.005 1.76-.997.59-1.98 1.215-2.996 1.774a14 14 0 0 0-1.613.847c-.519.376-1.005.802-1.521 1.185-1.939 1.438-3.992 2.697-5.982 4.06a.043.043 0 0 0 .043.074c2.193-1.184 4.322-2.465 6.56-3.566.594-.292 1.234-.52 1.805-.854.503-.294.928-.706 1.417-1.025 1.042-.68 2.108-1.325 3.16-1.986 1.057-.664 2.115-1.315 3.13-2.04.892-.637 1.757-1.32 2.663-1.933a33 33 0 0 0 2.23-1.673c.74-.596 1.71-1 2.108-1.914a.644.644 0 0 0-.225-.86m-9.697 1.536a41 41 0 0 0-4.431 2.145c-.773.411-1.533.834-2.342 1.171a16 16 0 0 0-2.21 1.016c-.699.426-1.329.984-2.008 1.448a93 93 0 0 1-2.15 1.421 57 57 0 0 1-4.449 2.565c-.03.016-.009.071.024.057 1.525-.635 2.985-1.377 4.452-2.132 1.49-.768 3.013-1.512 4.485-2.309a11.5 11.5 0 0 0 1.872-1.396 16.4 16.4 0 0 1 2.239-1.546c1.477-.875 3.004-1.627 4.537-2.397.023-.012.007-.052-.018-.043M219.71 290.82c-.305.786-.613 1.57-.909 2.36-.01.028.034.04.046.012.315-.782.618-1.569.924-2.355.015-.037-.046-.054-.06-.016m-29.587 237.22c-.51-2.263-1.05-4.523-1.476-6.803a14 14 0 0 0-1.32-4.818 1.5 1.5 0 0 0-.492-.532.9.9 0 0 0-.347-.108c-.092-.1-.394-.344-.447-.399a10 10 0 0 0-.469-.46 5.7 5.7 0 0 0-2.139-1.094.055.055 0 0 0-.042.1 5.4 5.4 0 0 1 1.68 1.585 3.6 3.6 0 0 1 .316.477 2 2 0 0 0 .116.256.15.15 0 0 1 .03.088.9.9 0 0 0-.08.347 1.6 1.6 0 0 0 .19.671 40 40 0 0 0-3.16-2.656c-.02-.015-.047.01-.028.028q1.618 1.462 3.095 3.066.33.36.642.737a24 24 0 0 1 1.289 3.162c1.285 4.187 2.386 8.448 3.494 12.685a275 275 0 0 0 1.999 7.175.078.078 0 0 0 .15-.042c-.934-4.504-1.99-8.978-3.001-13.465m13.739-5.032c-.697-2.25-1.29-4.537-2.042-6.769-.519-1.539-1.321-3.14-3.078-3.454a.62.62 0 0 0-.667.271 9.3 9.3 0 0 0-1.155 2.14 6.4 6.4 0 0 0-.65 2.412 13 13 0 0 0 .69 2.617q.326 1.475.658 2.949c1.031 4.629 2.044 9.265 3.199 13.866.652 2.6 1.375 5.177 2.097 7.758a.023.023 0 0 0 .045-.013 306 306 0 0 0-2.58-13.14q-.72-3.263-1.474-6.518c-.25-1.085-.503-2.17-.747-3.256a9 9 0 0 1-.44-2.5 27 27 0 0 1 2.177 1.861q.64.615 1.227 1.28.302.34.593.69a5.5 5.5 0 0 0 .582.694.106.106 0 0 0 .166-.128 3.6 3.6 0 0 0-.506-.68q-.301-.372-.622-.725-.627-.69-1.31-1.325a19 19 0 0 0-2.302-1.804c.004-.028-.002-.06.004-.087a7 7 0 0 0 .196-1.447c0-.12-.01-.237-.016-.356l.046.058q.397.445.81.874.805.835 1.618 1.661a91 91 0 0 0 3.341 3.214c.04.037.116-.012.08-.061l-.031-.04c.04.035.11.021.09-.042m-5.197-8.928c.101.19.217.374.326.553.225.37.491.713.743 1.064a9.2 9.2 0 0 0 1.56 1.643c.192.434.374.873.564 1.308a23 23 0 0 0-1.626-1.78 47 47 0 0 0-1.341-1.282c-.251-.232-.512-.477-.785-.7a2.4 2.4 0 0 1 .559-.806m2.136 5.438a42 42 0 0 0-1.665-1.615q-.44-.405-.905-.779c-.113-.09-.232-.17-.35-.25q-.023-.262-.042-.527a3.2 3.2 0 0 1 .089-.94c.164.195.335.386.5.57.423.475.85.944 1.292 1.403.43.444.854.895 1.314 1.31a12 12 0 0 0 1.267.987c.479 1.107.963 2.212 1.43 3.323a33 33 0 0 0-2.93-3.482"/><path fill="currentColor" d="M204.661 525.894q-.147-.155-.304-.3l-.62-.588a.035.035 0 0 0-.05.05l.587.62c.096.102.19.202.292.297a3 3 0 0 0 .321.277.031.031 0 0 0 .043-.043 2.6 2.6 0 0 0-.269-.313m-5.193-3.257c-.018-.018-.045.01-.028.028 1.744 1.884 3.466 3.795 5.279 5.614.018.018.044-.009.027-.027-1.704-1.922-3.505-3.758-5.278-5.615m3.192 5.743-2.267-2.242a.063.063 0 0 0-.089.088l2.23 2.28c.744.762 1.482 1.527 2.287 2.224a.035.035 0 0 0 .05-.05c-.693-.809-1.454-1.551-2.21-2.3m-.461 1.917c-.022-.027-.07 0-.048.028.678.913 1.352 1.828 2.06 2.719.016.02.052-.007.036-.029-.662-.922-1.357-1.818-2.049-2.718m10.619-8.799a56 56 0 0 1-.44-2.337 11 11 0 0 1-.179-1.262 2.7 2.7 0 0 0-.14-1.08 3.2 3.2 0 0 1-.469-1.218 9 9 0 0 1-.036-1.08c.02-.698.27-1.372.292-2.056a.036.036 0 0 0-.06-.025c-1.055.868-.957 2.635-1 3.844-.014.393-.219.733-.146 1.132a7.7 7.7 0 0 0 .484 1.207q.45 1.22.84 2.463c1.04 3.335 1.858 6.734 2.913 10.064a.059.059 0 0 0 .113-.031c-.64-3.226-1.506-6.402-2.172-9.621m.799-4.306c-.01-.044-.077-.026-.067.018a47 47 0 0 0 1.693 5.961c.014.037.072.022.06-.017a137 137 0 0 1-1.686-5.962M94.847 279.773a40 40 0 0 1-2.042-.816c-.299-.133-.604-.26-.89-.418-.284-.158-.528-.402-.822-.536-.592-.27-1.237-.475-1.84-.739-2.336-1.026-4.67-2.077-7.06-2.979-.012-.004-.02.016-.009.022 2.154 1.101 4.376 2.074 6.584 3.06.558.25 1.145.47 1.687.755.157.082.308.208.47.277.296.125.639.145.944.247a15 15 0 0 1 1.795.784c.295.143.584.295.874.446a4 4 0 0 1 .806.376.053.053 0 0 0-.099.026l.002.06a.07.07 0 0 0 .05.065.2.2 0 0 0 .213-.02.12.12 0 0 0 .053-.13c-.085-.328-.42-.368-.716-.48m1.242 3.629a2.85 2.85 0 0 0-1.046-.695c-.415-.213-.839-.409-1.26-.61-.931-.446-1.868-.88-2.805-1.315q-2.677-1.242-5.426-2.314c-.015-.005-.025.02-.01.025q2.743 1.184 5.426 2.503c.893.441 1.774.91 2.645 1.392.407.226.808.462 1.215.686a3 3 0 0 0 1.161.501.116.116 0 0 0 .1-.173m1.426 3.669a4.2 4.2 0 0 0-1.132-.633q-.584-.275-1.171-.542-1.255-.571-2.491-1.185a37 37 0 0 0-4.939-2.029c-.032-.01-.043.037-.013.05 1.638.69 3.284 1.359 4.926 2.04a27 27 0 0 1 2.486 1.176q.566.304 1.125.62a4.7 4.7 0 0 0 1.165.579.045.045 0 0 0 .044-.076m-7.331-.694c-.023-.008-.04.03-.017.04 1.524.651 3.05 1.29 4.614 1.841.019.006.032-.024.014-.032-1.513-.68-3.058-1.27-4.611-1.849m7.824 3.313q-.106-.053-.214-.103l-.446-.213-.875-.418c-.006-.003-.012.007-.006.01l.871.46.42.22q.105.058.211.111a.6.6 0 0 0 .202.08c.02.002.027-.024.015-.037a.6.6 0 0 0-.178-.11m.016 2.302a8 8 0 0 0-1.07-.434l-1.103-.429q-1.125-.434-2.254-.855c-.012-.004-.017.014-.005.019q1.094.46 2.194.908l1.059.429a8.4 8.4 0 0 0 1.145.444.045.045 0 0 0 .034-.082m.52 3.384a8 8 0 0 0-2.399-1.18c-.034-.011-.046.04-.014.053.827.326 1.601.759 2.39 1.164a.022.022 0 0 0 .023-.037m.821 2.091c-.021-.013-.041.02-.02.034q.425.255.854.506a.01.01 0 0 0 .01-.017q-.42-.265-.844-.523m6.988 95.483c-1.286-.316-2.602-.494-3.888-.818a40 40 0 0 1-3.797-1.167c-.008-.003-.01.008-.004.01a40 40 0 0 0 3.851 1.247 20.6 20.6 0 0 0 3.832.774.024.024 0 0 0 .006-.046m2.741-.933c-.704-.224-1.464-.32-2.185-.482a93 93 0 0 1-2.024-.476q-2.094-.522-4.154-1.17c-.015-.005-.02.017-.006.022q2.082.708 4.205 1.285a55 55 0 0 0 2.093.527 14.5 14.5 0 0 0 2.055.41c.068.005.076-.097.016-.116m2.373-1.984a10 10 0 0 0-1.599-.269q-.833-.135-1.66-.3a52 52 0 0 1-3.227-.746.012.012 0 0 0-.006.022c1.075.327 2.161.622 3.26.86q.793.17 1.592.313a7.2 7.2 0 0 0 1.626.22.051.051 0 0 0 .014-.1m3.037-1.049a9 9 0 0 0-1.64-.372c-.555-.097-1.109-.2-1.663-.298q-1.664-.297-3.316-.655a.014.014 0 0 0-.007.026q1.662.438 3.337.82c.548.126 1.099.237 1.65.345a7.6 7.6 0 0 0 1.63.203.035.035 0 0 0 .009-.069m2.577-1.164a7 7 0 0 0-1.18-.204q-.698-.091-1.392-.21-1.288-.22-2.553-.545a.008.008 0 0 0-.004.015q1.276.367 2.577.643.625.131 1.254.24a5.3 5.3 0 0 0 1.29.123.031.031 0 0 0 .008-.062m1.085-1.212-1.17-.133c-.766-.088-1.533-.16-2.3-.238-.025-.003-.032.042-.006.046.74.1 1.478.206 2.218.3l1.128.14a4 4 0 0 0 1.093.094.031.031 0 0 0 .007-.057 3.5 3.5 0 0 0-.97-.152m2.662-.803a2.4 2.4 0 0 0-.557-.129c-.209-.036-.418-.077-.628-.106q-.6-.081-1.202-.153c-.014-.002-.016.02-.004.023.399.086.797.174 1.197.253.2.04.403.07.604.102a2.5 2.5 0 0 0 .575.065c.026-.002.044-.042.015-.055m1.011-1.205a.018.018 0 0 0 .01.034 1.55 1.55 0 0 1 1.014.139.016.016 0 0 0 .016-.027 1.21 1.21 0 0 0-1.04-.146m2.554-1.198a.012.012 0 0 0 0 .023c.283.003.569.018.851 0a.012.012 0 0 0 0-.023c-.282-.017-.568-.003-.85 0m-18.046-70.78c-1.895-.925-3.871-1.68-5.78-2.577-.02-.01-.038.02-.018.03a42 42 0 0 0 5.78 2.59c.024.008.042-.031.018-.043m2.267 3.637a38.4 38.4 0 0 0-9.076-3.988c-.01-.003-.013.012-.004.015q2.374.838 4.662 1.892c1.476.683 2.91 1.451 4.383 2.141a.035.035 0 0 0 .035-.06m1.32 3.138a29 29 0 0 0-4.813-2.497 49 49 0 0 0-4.924-1.835c-.007-.003-.01.009-.003.011a51 51 0 0 1 5.031 1.997c1.593.732 3.1 1.619 4.671 2.388a.037.037 0 0 0 .038-.064m.165 2.393a25.5 25.5 0 0 0-3.901-1.911 51 51 0 0 0-3.93-1.499c-.007-.002-.01.01-.003.012q2.075.748 4.093 1.648c1.257.56 2.458 1.256 3.724 1.79.023.01.036-.027.017-.04m.69 2.705c-.892-.526-1.855-.95-2.79-1.396q-1.409-.673-2.821-1.34c-.016-.008-.03.015-.014.023q1.417.715 2.835 1.428c.913.456 1.824.949 2.774 1.324.023.01.037-.027.016-.039m-2.588.917c-.006-.003-.012.007-.006.01.922.483 1.84.977 2.781 1.419.014.006.025-.013.012-.02-.913-.5-1.853-.95-2.787-1.409m-26.335-70.686a.01.01 0 0 0-.019.005 34 34 0 0 0 2.146 6.328c.008.018.04.005.032-.014a45 45 0 0 1-2.159-6.32m3.987 7.102q-.932-2.682-1.702-5.419a.012.012 0 0 0-.023.006 76 76 0 0 0 1.645 5.54 40.5 40.5 0 0 0 2.03 5.205.026.026 0 0 0 .046-.02c-.612-1.788-1.374-3.525-1.996-5.312m2.714 3.131q-1.03-3.335-2.094-6.66a.006.006 0 0 0-.011.004q1.01 3.53 2.049 7.052c.33 1.119.642 2.246 1.01 3.353a6.7 6.7 0 0 0 1.258 2.438c.035.038.097-.01.071-.054a27.5 27.5 0 0 1-2.283-6.133m3.058 2.889q-1.194-3.45-2.081-6.998a.016.016 0 0 0-.03.008q.848 3.615 2.043 7.13a45 45 0 0 0 2.685 6.673c.012.023.052.008.043-.018-.846-2.282-1.864-4.49-2.66-6.795m1.075-4.425a.02.02 0 0 0-.038.01 128 128 0 0 0 4.525 14.669c.011.03.059.018.049-.014-1.582-4.876-3.224-9.705-4.536-14.665m5.371 10.13a270 270 0 0 1-2.083-6.23c-.006-.016-.032-.01-.027.008.658 2.13 1.338 4.253 2.066 6.36.697 2.02 1.336 4.11 2.22 6.058.008.018.037.005.032-.014-.635-2.087-1.494-4.12-2.208-6.182m3.598 3.275q-1.394-3.675-2.45-7.461a.014.014 0 0 0-.027.007 81 81 0 0 0 2.442 7.584 49.6 49.6 0 0 0 3.11 7.09c.01.016.04.005.033-.014-1.002-2.42-2.178-4.753-3.108-7.206m1.715-3.341c-.004-.011-.023-.006-.019.006 1.911 4.75 3.798 9.51 5.757 14.24.005.015.028.009.022-.005-1.879-4.763-3.832-9.497-5.76-14.24m7.798 13.414q-1.36-3.552-2.484-7.188c-.004-.012-.023-.007-.02.005q1.122 3.695 2.48 7.313a61 61 0 0 0 2.907 6.904c.007.014.03.005.025-.01-.915-2.362-2.001-4.656-2.908-7.024m2.838-.014a54 54 0 0 0-1.348-3.06c-.006-.014-.026-.002-.02.011q.717 1.571 1.348 3.18c.407 1.035.734 2.104 1.159 3.132a.014.014 0 0 0 .026-.007 26 26 0 0 0-1.165-3.256m3.739 8.674c-.173-.372-.357-.74-.54-1.108q-.565-1.146-1.153-2.28c-.003-.005-.01-.001-.007.003q.569 1.167 1.067 2.364c.157.38.304.763.458 1.143a6 6 0 0 0 .485 1.116.09.09 0 0 0 .164-.069 5.3 5.3 0 0 0-.475-1.169m2.551-.831c-.003-.006-.013 0-.01.007l2.016 3.76c.006.01.023 0 .017-.01zm5.136 7.973a5 5 0 0 1-.53-.829c-.007-.016-.03-.002-.023.014a5 5 0 0 0 .527.851 3.5 3.5 0 0 0 .669.685c.01.008.023-.009.014-.018a9 9 0 0 1-.657-.704m20.632 12.854q-1.044-1.776-1.93-3.639c-.01-.023-.043-.003-.033.02a35.7 35.7 0 0 0 4.105 7.145c.022.028.067-.008.049-.038-.727-1.166-1.494-2.303-2.191-3.488m3.282 1.074q-1.709-3.272-3.34-6.584c-.008-.016-.031-.002-.024.014a203 203 0 0 0 3.25 6.637c1.122 2.183 2.227 4.404 3.525 6.488a.035.035 0 0 0 .061-.035c-1.093-2.204-2.334-4.339-3.473-6.52m7.179 7.15q-.549-1.028-1.092-2.057-1.061-2.003-2.11-4.013c-1.39-2.681-2.791-5.357-4.16-8.05-.01-.02-.04-.002-.03.018a257 257 0 0 0 3.928 8.185q.996 1.97 2.012 3.928.54 1.032 1.088 2.06a6.6 6.6 0 0 0 1.09 1.793.067.067 0 0 0 .111-.065 6.4 6.4 0 0 0-.837-1.8m6.276 4.755c-.704-1.49-1.524-2.922-2.28-4.386-.762-1.472-1.368-3.012-2.109-4.492-1.479-2.956-3.189-5.773-4.87-8.615a.03.03 0 0 0-.051.03c1.568 2.905 3.012 5.878 4.593 8.777.772 1.414 1.64 2.762 2.352 4.21.746 1.52 1.392 3.089 2.136 4.61.076.154.302.02.23-.134m5.311 3.604-2.658-5.446a495 495 0 0 0-5.48-10.937c-.014-.025-.05-.003-.038.022a393 393 0 0 0 4.088 8.752c.323.668 3.64 7.68 4.113 8.572l-.015-.001a.06.06 0 0 0-.059.045.23.23 0 0 0 .272.32c.524-.164-.131-1.139-.223-1.327m4.415 3.122q-.434-.931-.878-1.858-.914-1.909-1.865-3.8a169 169 0 0 0-3.946-7.349c-.01-.017-.036-.002-.027.016q1.963 3.684 3.814 7.426.916 1.842 1.796 3.7.44.93.872 1.863a8.4 8.4 0 0 0 .876 1.728c.022.029.06-.003.055-.032a7.4 7.4 0 0 0-.697-1.694m.772-5.664c-.003-.008-.017-.002-.014.006 1.437 3.498 2.843 7.024 4.422 10.46.01.02.044.006.036-.015-1.372-3.524-2.929-6.986-4.444-10.451m6.85 12.218q-.1-.13-.202-.258l-.428-.52c-.005-.006-.017.003-.012.01l.4.54q.096.128.196.251c.07.09.139.18.218.263a.016.016 0 0 0 .024-.019c-.06-.093-.129-.179-.196-.267m38.547 38.681c-3.41-1.786-6.814-3.583-10.048-5.676a78 78 0 0 1-9.364-7.076c-.013-.012-.033.007-.02.02 5.628 5.28 12.156 10.028 19.382 12.85.068.027.114-.084.05-.118m5.175-.148c-1.407-.81-3.027-1.238-4.486-1.952-1.428-.699-2.792-1.525-4.157-2.338a80 80 0 0 1-8.17-5.521c-.017-.014-.042.01-.024.025a62 62 0 0 0 7.997 5.612c1.41.82 2.875 1.53 4.328 2.267a24.2 24.2 0 0 0 4.43 2.103.108.108 0 0 0 .082-.196m-.257-2.899c-2.18-.917-4.37-1.786-6.46-2.901-.02-.011-.037.019-.017.03a31.4 31.4 0 0 0 6.464 2.92c.032.01.042-.037.013-.05m-31.241 3.101a92 92 0 0 1-3.749-6.704c-.009-.018-.035-.002-.027.016a55.2 55.2 0 0 0 7.903 13.174c.039.046.115-.013.083-.063-1.386-2.154-2.869-4.24-4.21-6.423m4.293 4.206a55 55 0 0 1-3.487-5.955c-.017-.034-.067-.004-.05.03a51 51 0 0 0 3.529 6.169 37.3 37.3 0 0 0 4.278 5.431c.023.024.055-.01.036-.036-1.475-1.856-2.982-3.667-4.306-5.639m6.27 5.806q-.817-1.11-1.604-2.24a120 120 0 0 1-3.053-4.582c-.026-.04-.09-.003-.065.038a96 96 0 0 0 3.025 4.698q.782 1.133 1.594 2.244a19 19 0 0 0 1.652 2.114.041.041 0 0 0 .064-.05c-.47-.78-1.074-1.49-1.614-2.223m3.367 1.503c-.445-.628-.888-1.258-1.338-1.881-.933-1.29-1.883-2.569-2.831-3.848-.01-.014-.034-.001-.024.013.9 1.338 1.8 2.677 2.717 4.004.451.654.912 1.302 1.37 1.951a13.5 13.5 0 0 0 1.411 1.846.025.025 0 0 0 .04-.031 14.3 14.3 0 0 0-1.345-2.054m3.326 1.454q-.617-.803-1.244-1.598c-.864-1.09-1.745-2.168-2.612-3.257-.024-.03-.075.01-.052.04.834 1.114 1.654 2.238 2.492 3.35q.621.821 1.253 1.634a14 14 0 0 0 1.298 1.544.033.033 0 0 0 .052-.04 14 14 0 0 0-1.187-1.673m1.985-.259a60 60 0 0 1-2.29-2.87c-.007-.01-.024 0-.016.01a41 41 0 0 0 2.144 2.876 23.6 23.6 0 0 0 2.49 2.708.025.025 0 0 0 .036-.036c-.764-.916-1.592-1.778-2.364-2.688m3.286 1.594c-.595-.542-1.197-1.074-1.799-1.607-.018-.017-.046.01-.027.027.575.56 1.149 1.122 1.732 1.674.582.552 1.16 1.12 1.794 1.612a.025.025 0 0 0 .036-.036c-.536-.596-1.144-1.13-1.736-1.67m1.745.3c-.032-.026-.08.02-.047.047a17.5 17.5 0 0 1 2.477 2.647c.011.014.034-.004.025-.019a10.7 10.7 0 0 0-2.455-2.675m3.832 2.504a3.3 3.3 0 0 1-.626-.613c-.012-.016-.04.005-.028.021a3.07 3.07 0 0 0 1.385 1.05c.015.005.025-.018.01-.025a4.5 4.5 0 0 1-.742-.433m4.154 1.28a4.8 4.8 0 0 0-.892-.483c-.314-.152-.64-.285-.959-.427-.04-.018-.076.04-.035.061.307.163.61.337.922.49a4.8 4.8 0 0 0 .936.408c.026.007.053-.03.028-.049m4.433.984a20 20 0 0 0-1.165-.811c-.395-.256-.818-.477-1.23-.701a.022.022 0 0 0-.022.037c.38.28.76.57 1.16.82q.599.378 1.224.712a.033.033 0 0 0 .033-.057m-87.27-57.179a84 84 0 0 0-.616 9.524.016.016 0 0 0 .031 0c.14-3.181.285-6.356.613-9.524.002-.018-.026-.017-.028 0m-2.762 7.142c0-.013-.019-.013-.02 0a9.6 9.6 0 0 0 .178 2.553c.002.01.017.006.015-.004a9.6 9.6 0 0 1-.173-2.55m-3.073-36.256c-.24 3.313-1.235 6.49-1.842 9.745q-.446 2.397-.776 4.816a47 47 0 0 0-.528 4.85c0 .015.022.014.024 0 .229-1.731.33-3.476.58-5.205q.356-2.474.878-4.917c.332-1.564.738-3.109 1.1-4.666a18 18 0 0 0 .642-4.623.04.04 0 0 0-.078 0m-2.756-.65a143 143 0 0 0-3.487 22.432c-.003.054.076.05.082 0 .495-3.787.917-7.58 1.48-11.358q.828-5.558 1.951-11.067c.004-.017-.022-.024-.026-.007m-5.209-2.239c-.632 4.298-1.288 8.593-2.034 12.873q-.549 3.152-1.168 6.292c-.427 2.171-.936 4.342-1.264 6.531a.04.04 0 0 0 .075.02c.617-2.117 1.019-4.318 1.44-6.482q.623-3.202 1.17-6.418c.726-4.252 1.345-8.524 1.8-12.813.002-.011-.017-.014-.019-.003m-2.166-2.029q-1.346 6.167-2.435 12.387c-.715 4.055-1.557 8.15-1.918 12.255-.004.041.064.05.073.01.876-4.066 1.375-8.228 2.09-12.325q1.076-6.167 2.21-12.322c.002-.012-.017-.018-.02-.005m-1.881-1.534c-1.662 7.878-3.156 15.829-4.128 23.824-.004.037.06.046.066.01 1.293-7.958 2.536-15.915 4.073-23.83.002-.008-.01-.011-.011-.004m-4.494-2.907c-1.377 6.373-2.631 12.78-3.569 19.233-.003.024.033.035.038.01 1.13-6.423 2.248-12.847 3.546-19.239.002-.01-.013-.014-.015-.004m-5.361-5.105a52 52 0 0 1-.75 5.619c-.005.03.038.042.045.012a21 21 0 0 0 .716-5.63.006.006 0 0 0-.011 0m55.633-34.226c-.126 1.196-.264 2.391-.361 3.59-.001.012.018.012.02 0 .143-1.194.246-2.393.36-3.59.002-.012-.018-.012-.019 0m-1.741 1.031a.027.027 0 0 0-.055 0 17 17 0 0 1-.167 2.12c-.092.656-.26 1.313-.308 1.974-.002.028.044.042.055.015a6.8 6.8 0 0 0 .41-1.968 17 17 0 0 0 .065-2.141m-1.814 2.364a29 29 0 0 1-1.126 3.59c-.009.024.031.04.043.017a12.4 12.4 0 0 0 1.131-3.593c.006-.032-.041-.046-.048-.014m-2.64 3.933-.376 1.694c-.002.01.013.014.015.004l.391-1.69c.005-.02-.025-.028-.03-.008m.856-69.974a.012.012 0 0 0-.006.022 70 70 0 0 1 7.177 2.315c.014.005.02-.017.006-.023a50.6 50.6 0 0 0-7.177-2.314m2.382-1.528c-.02-.004-.028.026-.008.03a60 60 0 0 1 10.746 3.349c.012.005.021-.016.01-.022a51.5 51.5 0 0 0-10.748-3.357m16.193 3.193a40 40 0 0 0-5.052-1.921q-2.655-.877-5.352-1.62a.02.02 0 0 0-.01.037q2.635.78 5.227 1.695c1.723.609 3.42 1.32 5.164 1.862.032.01.053-.038.023-.053m-2.409-2.32c-.023-.004-.032.03-.01.034a18.8 18.8 0 0 1 4.63 1.61c.018.01.034-.016.016-.026a14.3 14.3 0 0 0-4.636-1.618m8.723 1.79a12.5 12.5 0 0 0-1.824-.98 15 15 0 0 0-1.96-.663.025.025 0 0 0-.013.05 27 27 0 0 1 3.771 1.637.025.025 0 0 0 .026-.044m58.495-.037c-2.538-1.153-5.106-2.24-7.74-3.155a70 70 0 0 0-4.023-1.277 8.3 8.3 0 0 0-1.769-.454c-.196-.007-.338.026-.396.216-.002.006.008.01.01.004.201-.435 1.555.287 1.859.4q.794.294 1.59.58c1.174.425 2.351.842 3.525 1.265 2.305.83 4.616 1.642 6.907 2.506.05.019.085-.063.037-.085m28.971 5.693a71.6 71.6 0 0 0-13.462-5.769c-.032-.01-.044.039-.014.05a124 124 0 0 1 13.447 5.77c.033.016.062-.032.03-.05m2.878-3.029c-5.454-2.866-11.202-5.215-16.833-7.706-.019-.008-.035.019-.016.027 5.558 2.656 11.084 5.49 16.811 7.769.052.02.086-.064.038-.09m-7.942-7.766a23 23 0 0 0-3.564-2.113 22 22 0 0 0-1.811-.74c-.665-.232-1.354-.362-2.024-.567-.03-.009-.041.035-.013.046.67.24 1.307.594 1.957.884.6.267 1.2.533 1.794.81 1.215.566 2.443 1.109 3.626 1.741a.035.035 0 0 0 .036-.06m5.391 2.495c-.26-.128-.528-.235-.792-.35-.53-.233-1.061-.45-1.578-.712-.074-.037-.139.072-.065.111.517.277 1.001.596 1.502.897.246.148.484.308.737.445.222.119.483.306.735.182a.08.08 0 0 0 .035-.086c-.042-.267-.357-.38-.574-.487m.733-3.412c-.552-.27-1.142-.455-1.7-.715-1.171-.547-2.288-1.215-3.421-1.836a25.3 25.3 0 0 0-6.819-2.845.014.014 0 0 0-.007.026 52 52 0 0 1 6.398 2.698 60 60 0 0 1 2.951 1.572c.5.283.992.58 1.47.9a5.5 5.5 0 0 0 1.177.727.25.25 0 0 0 .048.11.14.14 0 0 0 .15.06l.056-.008a.15.15 0 0 0 .108-.108c.106-.32-.153-.454-.41-.58m.043-3.673a2.17 2.17 0 0 0-1.03-.633c-.418-.184-.843-.351-1.26-.54a75 75 0 0 1-2.712-1.313c-.825-.415-1.612-.895-2.463-1.258a22 22 0 0 0-2.85-.937c-.022-.006-.038.028-.016.04.867.432 1.717.873 2.611 1.251.904.382 1.847.658 2.75 1.04a27 27 0 0 1 2.629 1.266c.397.222.775.468 1.162.705a2.3 2.3 0 0 0 1.104.508.086.086 0 0 0 .075-.13m-.675-3.912c-.327-.14-.664-.248-.997-.372-.873-.323-1.704-.777-2.554-1.155a54 54 0 0 0-4.702-1.858c-.015-.005-.02.017-.007.023 1.617.635 3.23 1.28 4.813 1.995a20 20 0 0 1 2.23 1.08c.34.21.665.442 1.006.649a1.6 1.6 0 0 0 1.016.374.08.08 0 0 0 .07-.12 1.52 1.52 0 0 0-.875-.616m-6.924-7.608-.021-.042-.044-.086-.09-.176c-.02-.038-.076-.004-.057.034l.088.172.042.084.022.041a.1.1 0 0 0 .034.04c.013.011.039.005.037-.015a.1.1 0 0 0-.011-.052m3.082 1.384a9.7 9.7 0 0 0-2.883-1.25.04.04 0 0 0-.02.075 24 24 0 0 1 2.88 1.216.023.023 0 0 0 .023-.04m4.29 2.006c-.035-.037-.055-.083-.093-.118a.5.5 0 0 0-.125-.072 1.5 1.5 0 0 0-.303-.074 5 5 0 0 1-.557-.132 3.6 3.6 0 0 1-1.014-.57c-.017-.014-.04.016-.023.03a8 8 0 0 0 .961.677 5 5 0 0 0 .504.301 1.5 1.5 0 0 0 .284.118.6.6 0 0 0 .152.014.6.6 0 0 0 .186-.07.063.063 0 0 0 .028-.104m.308-3.288c-.315-.37-.91-.437-1.354-.599-.576-.209-1.144-.438-1.713-.664l-1.65-.656a12 12 0 0 0-1.727-.614.022.022 0 0 0-.017.04 11 11 0 0 0 1.516.689l1.705.694c.579.235 1.158.467 1.73.718q.405.175.8.372a1 1 0 0 0 .653.16.083.083 0 0 0 .058-.14m.755-4.055c-.155-.265-.43-.32-.707-.423-.384-.143-.772-.272-1.158-.41a28 28 0 0 1-2.271-.94c-.698-.319-1.374-.683-2.07-1.004-.708-.326-1.444-.57-2.176-.836-.025-.009-.041.03-.018.043.693.358 1.373.73 2.094 1.029.756.314 1.531.576 2.284.897.709.302 1.41.609 2.092.967.34.177.674.362 1.016.535a1.3 1.3 0 0 0 .863.265.085.085 0 0 0 .05-.123m.486-3.99a5 5 0 0 1-.357-.253c-.044-.034-.103.029-.08.075-.416-.168-.84-.32-1.257-.48q-.895-.344-1.788-.69c-1.19-.462-2.391-.888-3.585-1.338-.027-.01-.046.035-.02.047 1.138.492 2.266 1.002 3.414 1.47q.889.363 1.779.723c.588.238 1.177.52 1.782.71a.145.145 0 0 0 .112-.264m-.527-4.146a3.2 3.2 0 0 0-1.076-.482q-.62-.234-1.244-.46-1.244-.452-2.497-.878c-.015-.005-.025.019-.011.025q1.18.515 2.367 1.01.614.256 1.231.504a3.5 3.5 0 0 0 1.182.397.07.07 0 0 0 .048-.116m-2.062-5.348c-.35-.135-.702-.26-1.054-.389-.018-.006-.031.024-.013.032q.51.233 1.023.46a7.5 7.5 0 0 0 1.03.38.02.02 0 0 0 .014-.035 8 8 0 0 0-1-.448m-.005-5.226c-.037-.015-.054.046-.017.06.284.111.568.223.856.322.015.005.025-.018.01-.025-.28-.127-.564-.241-.85-.357m.84-11.692a13.7 13.7 0 0 0-2.867-1.288q-1.527-.534-3.097-.927a.012.012 0 0 0-.006.022q1.523.468 3 1.066c.981.399 1.934.864 2.935 1.209.05.017.076-.056.035-.082m-2.024-4.804a10 10 0 0 0-2.04-1.106 20 20 0 0 0-2.25-.706c-.046-.013-.063.056-.019.071.75.266 1.456.625 2.184.942.693.301 1.383.617 2.09.881.052.02.073-.054.035-.082m4.346 1.386a6 6 0 0 0-.664-.191c-.215-.05-.439-.09-.65-.15a3 3 0 0 0-.31-.077c-.122-.018-.238-.07-.362-.088-.014-.002-.025.017-.01.025.095.056.203.084.301.134q.133.07.272.13c.216.091.428.204.641.305.2.094.407.173.613.254.161.064.448.182.61.068a.08.08 0 0 0 .036-.09c-.053-.188-.315-.262-.477-.32m.216-3.854a9.6 9.6 0 0 0-2.051-.867 75 75 0 0 1-2.413-1.013q-2.215-.982-4.388-2.057c-.01-.004-.017.01-.008.014q2.221 1.16 4.5 2.2c.747.34 1.493.68 2.244 1.009a8.4 8.4 0 0 0 2.089.816c.06.007.065-.075.027-.102m.196-4.328a4 4 0 0 0-1.067-.468l-1.256-.469q-1.21-.453-2.422-.9-2.469-.906-4.945-1.79c-.017-.006-.024.02-.008.026q2.451.97 4.91 1.922 1.206.464 2.416.922l1.253.477a3.9 3.9 0 0 0 1.1.346c.04.002.043-.047.018-.066m-1.659-4.084a7.5 7.5 0 0 0-1.923-.791 26 26 0 0 1-2.367-1.09 24 24 0 0 0-4.262-1.889.04.04 0 0 0-.03.072 24 24 0 0 0 4.162 1.91q1.18.448 2.312 1.004a8.4 8.4 0 0 0 1.992.984c.102.018.22-.118.116-.2m-8.75-7.614c-.021-.008-.036.026-.016.036q3.688 1.722 7.325 3.56c.011.006.02-.01.01-.017a65 65 0 0 0-7.32-3.579m7.562-.298a11.6 11.6 0 0 0-2.157-1.023c-.678-.302-1.344-.628-2.016-.943a75 75 0 0 0-4.094-1.758c-.026-.01-.037.031-.012.041q2.166.889 4.302 1.85c.677.304 1.349.618 2.004.967a13 13 0 0 0 1.916 1.002c.086.028.12-.09.057-.136m-3.126-6.008a11 11 0 0 0-1.096-.643c-.385-.184-.78-.347-1.172-.514-.785-.335-1.57-.67-2.347-1.022-.013-.006-.025.014-.011.02.77.39 1.533.795 2.295 1.2.374.2.747.402 1.13.585a11 11 0 0 0 1.172.442c.041.014.064-.046.029-.068m3.143 1.463a4 4 0 0 1-.26-.06 1.5 1.5 0 0 1-.486-.238c-.023-.017-.053.021-.031.04a1.9 1.9 0 0 0 .482.296 1 1 0 0 0 .272.077.6.6 0 0 0 .288-.006.03.03 0 0 0 0-.057 1.6 1.6 0 0 0-.265-.052m-1.893-4.126c-1.276-.84-2.64-1.533-3.99-2.248a.027.027 0 0 0-.028.047c1.31.785 2.609 1.594 3.989 2.252a.03.03 0 0 0 .03-.05m.278-3.954a5.7 5.7 0 0 0-1.51-.878q-.78-.387-1.557-.778c-1.073-.541-2.14-1.094-3.207-1.646-.017-.009-.033.018-.015.027 1.054.573 2.109 1.146 3.157 1.729q.759.423 1.515.85a5.7 5.7 0 0 0 1.58.762.04.04 0 0 0 .037-.066m-.846-3.763a18 18 0 0 0-1.715-.772q-.866-.372-1.733-.742-1.673-.717-3.354-1.415c-.01-.004-.018.013-.008.018q1.708.786 3.422 1.559.857.387 1.716.77a17 17 0 0 0 1.625.693.06.06 0 0 0 .047-.111m-3.751-4.593a13 13 0 0 0-1.173-.548l-1.187-.524c-.027-.012-.051.028-.024.04l1.196.556a12 12 0 0 0 1.172.512c.022.007.035-.025.016-.036m-2.72-5.126c-.018-.008-.026.023-.008.03.284.113.567.229.852.337.013.004.021-.017.01-.022-.283-.12-.57-.23-.854-.345m-1.188-13.628c-1.64-.583-3.305-1.09-4.935-1.703-.016-.006-.023.02-.007.027a35.4 35.4 0 0 0 4.932 1.714.02.02 0 0 0 .01-.038m2.411-4.427a6.2 6.2 0 0 0-2.069-1.06q-1.17-.486-2.366-.906a51 51 0 0 0-4.948-1.465.016.016 0 0 0-.008.03 49 49 0 0 1 4.818 1.61q1.205.476 2.386 1.013a8 8 0 0 0 2.144.884c.056.007.078-.07.044-.106m-10.741-8.712c-.017-.005-.024.02-.007.026 2.364.795 4.717 1.624 7.107 2.338.018.005.024-.02.008-.026-2.348-.844-4.733-1.574-7.108-2.338m11.757 3.977a.57.57 0 0 0-.376-.226c-.365-.098-.737-.179-1.098-.293q-.554-.175-1.102-.37c-.066-.024-.094.081-.029.105.466.169.924.347 1.378.544.22.096.434.201.652.3a1.5 1.5 0 0 1 .209.099c-.05.108.141.213.25.177a.232.232 0 0 0 .116-.336m-1.172-5.082a3.9 3.9 0 0 0-1.285-.371q-.75-.179-1.5-.368-1.39-.349-2.775-.722c-1.915-.517-3.834-1.033-5.743-1.574a.012.012 0 0 0-.006.022A100 100 0 0 0 263.847 69q1.383.378 2.773.732.749.189 1.498.373a3.7 3.7 0 0 0 1.319.25.057.057 0 0 0 .028-.105m-1.232-4.965a23 23 0 0 0-2.58-.95l-2.677-.948q-2.727-.96-5.471-1.863c-.017-.006-.024.02-.008.026q2.66 1.006 5.335 1.964 1.288.46 2.577.914a25 25 0 0 0 2.785.95c.054.012.093-.066.04-.093m-2.476-6.395a3 3 0 0 0-1.145-.5 38 38 0 0 1-1.527-.526c-.95-.348-1.888-.724-2.83-1.087-1.959-.754-3.953-1.37-5.975-1.928a.016.016 0 0 0-.008.03c1.966.602 3.915 1.267 5.861 1.93 1.022.347 2.04.715 3.03 1.146q.692.3 1.357.653a3.2 3.2 0 0 0 1.156.48.116.116 0 0 0 .081-.197m-1.405-4.925a5.4 5.4 0 0 0-1.15-.542q-.584-.252-1.173-.494-1.173-.474-2.372-.88a36.5 36.5 0 0 0-5.066-1.334c-.012-.002-.017.016-.005.02a58 58 0 0 1 4.954 1.4q1.199.403 2.374.875c.442.177.884.358 1.317.556a6 6 0 0 0 1.088.477.043.043 0 0 0 .033-.078m-1.902-5.365c-.605-.29-1.27-.483-1.9-.713-.653-.24-1.309-.47-1.964-.703l-4.002-1.42c-.019-.007-.027.022-.008.03l3.902 1.492c.626.24 1.252.482 1.88.715.67.249 1.344.555 2.034.739.08.021.138-.101.058-.14m-2.714-6.851a7.3 7.3 0 0 0-1.294-.457q-.646-.211-1.295-.416-1.346-.424-2.695-.836c-.012-.003-.017.015-.005.02q1.331.475 2.668.935.643.222 1.288.437a7.3 7.3 0 0 0 1.31.401c.046.007.06-.063.023-.083m-4.932-5.941-1.044-.332c-.022-.007-.03.026-.01.034l1.018.356a9 9 0 0 0 1.025.324c.016.004.03-.02.012-.028a8 8 0 0 0-1-.353M229.591 88.94c-.469-.525-1.02-.985-1.51-1.49q-.761-.781-1.469-1.612a35 35 0 0 1-2.643-3.531c-.01-.015-.033-.001-.023.014a32 32 0 0 0 2.575 3.525q.704.833 1.462 1.618a13 13 0 0 0 1.587 1.503c.016.013.034-.013.021-.027m2.892-.169c-.798-.79-1.632-1.544-2.427-2.339q-1.192-1.191-2.323-2.442c-.01-.01-.027.006-.017.017q1.121 1.259 2.303 2.462c.787.8 1.58 1.604 2.44 2.327.016.014.04-.009.024-.025m1.579-1.138c-.23-.217-.456-.437-.69-.65l-1.398-1.278c-.012-.012-.032.007-.019.02l1.355 1.321q.332.319.668.632a6 6 0 0 0 .689.62c.019.013.046-.013.032-.032a6 6 0 0 0-.637-.633m1.298-1.564c-.021-.018-.052.012-.03.03a84 84 0 0 0 2.572 2.191c.013.011.033-.007.02-.02a83 83 0 0 0-2.562-2.201M135.305 11.143a19.4 19.4 0 0 0-4.407-3.28 30 30 0 0 0-4.988-2.285c-.024-.009-.034.029-.01.038a30.5 30.5 0 0 1 4.957 2.478c1.537.946 2.923 2.079 4.384 3.131.05.036.104-.04.064-.082m-.508 3.227a20 20 0 0 0-3.609-2.773 35.5 35.5 0 0 0-4.08-2.29c-.019-.008-.034.018-.016.027a39 39 0 0 1 3.978 2.328q.947.63 1.853 1.316c.623.472 1.21.984 1.85 1.423.019.013.039-.015.024-.03m2.855 2.205a7 7 0 0 0-.645-.519c-.459-.331-.908-.671-1.392-.965-.028-.017-.053.026-.026.044a7.5 7.5 0 0 1 1.318 1.015c.19.19.371.389.554.585a2.2 2.2 0 0 0 .606.517c.028.014.069-.01.057-.044a1.56 1.56 0 0 0-.472-.633m.574 4.198q-1.374-1.255-2.836-2.411a43.6 43.6 0 0 0-6.037-4.012.01.01 0 0 0-.01.017 47.4 47.4 0 0 1 6.125 4.192q1.37 1.11 2.632 2.34a24 24 0 0 0 2.5 2.504c.05.035.109-.033.08-.08a12.3 12.3 0 0 0-2.454-2.55m-.814 2.897a64 64 0 0 0-5.447-4.458c-.018-.013-.036.017-.018.03a64 64 0 0 1 5.537 4.621c1.716 1.607 3.275 3.348 4.887 5.055.03.032.073-.014.047-.047a45 45 0 0 0-5.006-5.2m3.114 6.15a108 108 0 0 0-5.663-5.48c-.024-.022-.06.013-.036.036 1.884 1.782 3.7 3.63 5.468 5.526 1.765 1.892 3.378 3.938 5.193 5.78.034.034.096-.011.068-.052a48.4 48.4 0 0 0-5.03-5.81m2.788 6.541q-2-2.187-4.12-4.26a.016.016 0 0 0-.023.022q2.062 2.074 4.01 4.256c1.296 1.455 2.526 2.966 3.82 4.421.018.02.054-.006.038-.028a54 54 0 0 0-3.725-4.411m-1.887 2.187c-.011-.01-.028.006-.016.016 2.347 2.136 4.544 4.416 6.78 6.665.022.022.052-.01.033-.033a60 60 0 0 0-6.797-6.649m2.048 5.781c-.015-.013-.037.01-.022.022a79 79 0 0 1 4.301 3.87c.011.01.028-.006.017-.017a60 60 0 0 0-4.296-3.875m-2.239 8.368c-.023-.017-.044.02-.022.037.91.676 1.815 1.36 2.734 2.026.01.007.02-.01.01-.017-.9-.692-1.814-1.366-2.722-2.046m3.278-.062c-.022-.016-.044.022-.021.038a32 32 0 0 1 2.994 2.457c.013.012.032-.007.02-.02a27 27 0 0 0-2.993-2.475m11.732 17.051c-1.906-1.734-3.954-3.318-5.953-4.943-.015-.013-.037.009-.022.022 1.963 1.671 3.894 3.397 5.947 4.958.021.016.048-.02.028-.037m4.564 8.573a6.4 6.4 0 0 0-1.476-1.274 51 51 0 0 1-1.824-1.5q-1.717-1.47-3.403-2.973-3.374-3.007-6.677-6.095c-.009-.009-.022.004-.014.013q3.187 3.206 6.55 6.223 1.636 1.47 3.302 2.907c.57.492 1.139.983 1.699 1.486a7 7 0 0 0 1.68 1.377c.098.042.238-.053.163-.163m.74 5.482c-.507-.507-1.025-1.008-1.537-1.51q-1.502-1.474-2.986-2.964a52 52 0 0 0-6.276-5.445c-.014-.01-.032.013-.018.025 2.08 1.824 4.202 3.603 6.244 5.47a41 41 0 0 1 2.886 2.91q.684.767 1.334 1.563a5.2 5.2 0 0 0 1.36 1.406c.049.025.123-.018.101-.078a4.2 4.2 0 0 0-1.107-1.377m5.181 10.899a15.6 15.6 0 0 0-2.456-2.648c-.827-.897-1.623-1.822-2.437-2.731a44 44 0 0 0-5.068-4.962c-.012-.01-.028.007-.017.016a46.6 46.6 0 0 1 5.048 4.983c.793.883 1.581 1.77 2.35 2.674a16.5 16.5 0 0 0 2.4 2.847c.112.082.239-.073.18-.179m3.048 7.875c-.514-.517-1.053-1.01-1.578-1.516-1.047-1.013-2.033-2.097-3.018-3.17a293 293 0 0 0-6.01-6.368c-.015-.016-.04.008-.024.025 1.818 2.024 3.643 4.027 5.533 5.984q1.394 1.442 2.745 2.928c.437.482.856.98 1.266 1.485.23.284.47.56.71.837.065.074.55.566.803.792-.01.005-.021-.004-.031.004l-.045.035a.13.13 0 0 0-.034.127.283.283 0 0 0 .364.208.21.21 0 0 0 .151-.198c.056-.484-.524-.863-.832-1.173m2.205 6.915a31 31 0 0 1-1.255-1.161 146 146 0 0 1-2.455-2.513q-2.402-2.5-4.91-4.892a.03.03 0 0 0-.04.042q2.347 2.552 4.813 4.987a146 146 0 0 1 2.407 2.426q.594.618 1.147 1.27a2.95 2.95 0 0 0 1.089.978.077.077 0 0 0 .094-.093 2.8 2.8 0 0 0-.89-1.044m1.653 6.524a17 17 0 0 0-2.068-2.018c-.714-.646-1.4-1.324-2.09-1.995-1.382-1.342-2.747-2.702-4.187-3.983a.031.031 0 0 0-.044.044c1.353 1.41 2.784 2.74 4.197 4.09.696.665 1.397 1.326 2.07 2.015a16.5 16.5 0 0 0 2.048 1.942c.061.044.112-.046.074-.095m-1.948 3.48c-.309-.314-.643-.606-.964-.908a.016.016 0 0 0-.022.022c.3.323.59.66.902.97a13 13 0 0 0 .959.914.023.023 0 0 0 .033-.033 13 13 0 0 0-.908-.965m.589 12.69c-.018-.018-.045.01-.028.028a186 186 0 0 0 3.536 3.781c.017.018.044-.009.027-.027a186 186 0 0 0-3.535-3.782m2.766 7.699c-1.997-1.946-4.011-3.875-6.021-5.809a.018.018 0 0 0-.025.025c1.965 1.979 3.926 3.961 5.904 5.926 1.972 1.96 3.895 4.013 6.009 5.821a.035.035 0 0 0 .05-.05c-1.842-2.084-3.926-3.973-5.917-5.913m1.918 7.163a42.4 42.4 0 0 0-6.786-5.963c-.013-.008-.024.012-.012.02a48.4 48.4 0 0 1 6.833 6.258c2.303 2.35 4.564 4.757 6.964 7.009a.041.041 0 0 0 .058-.058c-2.264-2.5-4.687-4.866-7.057-7.266m2.707 7.601q-3.807-3.392-7.763-6.607c-.013-.011-.033.008-.02.02q3.877 3.298 7.63 6.74c2.5 2.294 4.906 4.707 7.468 6.932a.03.03 0 0 0 .041-.042 93 93 0 0 0-7.356-7.043m-5.334.473c-.025-.019-.058.023-.033.042 4.862 3.856 9.492 7.972 14.046 12.184a.03.03 0 0 0 .041-.041 124 124 0 0 0-14.054-12.185m15.304 18.461a26 26 0 0 0-1.768-1.567c-1.216-.997-2.361-2.078-3.553-3.103a64 64 0 0 0-7.454-5.422c-.015-.01-.029.014-.014.024 2.443 1.651 4.788 3.458 7.078 5.313a41 41 0 0 1 3.223 2.797c.504.503.96 1.05 1.452 1.564.11.115 1.102 1.13 1.484 1.435a.1.1 0 0 0-.055.112c.027.147.117.198.257.217a.175.175 0 0 0 .168-.128c.168-.512-.498-.926-.819-1.242m3.414 8.85a7 7 0 0 0-1.436-1.512c-.564-.513-1.15-1-1.727-1.497-1.18-1.02-2.34-2.06-3.526-3.073a74 74 0 0 0-7.18-5.452c-.027-.018-.051.025-.025.044 2.487 1.805 4.953 3.651 7.31 5.624 1.136.95 2.258 1.926 3.308 2.97.539.536 1.053 1.096 1.58 1.643a8 8 0 0 0 1.522 1.427.128.128 0 0 0 .174-.174m-3.213 1.175a67 67 0 0 0-5.817-4.642c-.033-.023-.063.03-.031.054a81 81 0 0 1 5.804 4.774c1.814 1.642 3.436 3.475 5.227 5.136.025.023.072-.009.05-.038a40 40 0 0 0-5.233-5.284m-1.97 3.285c-.011-.008-.025.01-.015.018a77 77 0 0 1 6.177 5.392.012.012 0 0 0 .016-.017 54 54 0 0 0-6.178-5.393m1.596 6.744c-.014-.015-.036.007-.022.022.722.752 1.442 1.506 2.17 2.253.01.009.023-.005.014-.014-.716-.758-1.44-1.508-2.162-2.261M30.27 53.36c-.032-.006-.046.042-.014.049a20.86 20.86 0 0 1 9.051 4.362c.015.013.037-.009.022-.022a19.56 19.56 0 0 0-9.06-4.39m14.306 10.387a37.1 37.1 0 0 0-14.145-7.122.045.045 0 0 0-.023.087 46.8 46.8 0 0 1 14.126 7.09c.032.023.073-.03.042-.055m.937 3.844a27 27 0 0 0-3.202-2.104c-1.176-.704-2.357-1.39-3.59-1.992a36.4 36.4 0 0 0-7.424-2.668.018.018 0 0 0-.01.034 40 40 0 0 1 7.452 2.818 35 35 0 0 1 3.29 1.864c1.116.716 2.139 1.62 3.195 2.423.213.162.499-.204.289-.374m2.386 5.023a6.2 6.2 0 0 0-1.443-1.057 107 107 0 0 1-1.685-1.08c-1.074-.697-2.129-1.428-3.243-2.061a18 18 0 0 0-6.862-2.218c-.024-.002-.03.038-.006.043a23.8 23.8 0 0 1 7.122 2.411c1.047.607 2.045 1.288 3.027 1.994.512.368 1.024.736 1.53 1.113a6.2 6.2 0 0 0 1.503.953c.06.022.093-.057.057-.098m-9.461-1.888c-.016-.007-.023.02-.007.026 1.588.625 3.176 1.25 4.772 1.856.014.006.02-.017.006-.022-1.586-.633-3.178-1.246-4.771-1.86m12.148 6.544q-.284-.162-.573-.313a26 26 0 0 1-1.11-.608 22 22 0 0 1-2.105-1.397c-.037-.027-.086.036-.05.065.659.517 1.336 1.007 2.013 1.498.343.249.692.488 1.041.727q.256.17.521.325a.96.96 0 0 0 .566.17.075.075 0 0 0 .065-.113.9.9 0 0 0-.368-.355M48.3 79.74q-2.471-1.496-5.043-2.814c-.02-.01-.038.02-.018.03q2.557 1.343 5.023 2.848c1.645 1.003 3.221 2.105 4.843 3.143.017.011.03-.015.015-.027a53 53 0 0 0-4.82-3.18m4.797 6.967a17.6 17.6 0 0 0-4.79-2.87c-.014-.005-.025.019-.01.025a26.7 26.7 0 0 1 4.776 2.876c.018.013.04-.016.024-.03m1.159 3.611c-.007-.007-.019.004-.011.01l1.178 1.037c.01.008.024-.006.014-.014zm6.669 16.263c-.015-.005-.021.018-.007.022a47.6 47.6 0 0 1 6.962 2.94c.016.009.03-.015.014-.023a39.4 39.4 0 0 0-6.97-2.94m11.086 8.674a56 56 0 0 0-13.12-5.972c-.046-.016-.065.055-.02.071a134 134 0 0 1 13.099 5.972.041.041 0 0 0 .04-.07m.841 4.444a35.1 35.1 0 0 0-11.105-4.506.014.014 0 0 0-.007.026 55 55 0 0 1 5.703 2.084c1.812.775 3.57 1.664 5.375 2.453a.033.033 0 0 0 .034-.058m.476 3.978a33 33 0 0 0-8.001-3.227.014.014 0 0 0-.008.027c1.352.421 2.682.908 3.994 1.44 1.354.55 2.657 1.207 3.992 1.8.027.013.05-.024.023-.04m-2.379 1.183c-.016-.007-.03.016-.014.024.792.403 1.583.807 2.38 1.2.013.006.025-.014.011-.02-.788-.409-1.583-.805-2.377-1.203m-12.251 48.153a41 41 0 0 1-4.624-1.461c-.017-.007-.024.02-.008.026a25 25 0 0 0 4.621 1.473c.025.005.035-.032.01-.038m-1.373-2.685c-.01-.003-.014.012-.004.015a16.9 16.9 0 0 0 5.287 1.024c.026 0 .024-.036 0-.04a27.3 27.3 0 0 1-5.283-1m6.81-.849a5 5 0 0 0-.879-.233q-.413-.091-.83-.158-.839-.133-1.687-.192c-.025-.002-.025.036 0 .039q.886.084 1.761.248c.277.052.554.104.829.165.264.058.531.141.8.173.027.003.026-.034.006-.042m-.163-2.068a.018.018 0 0 0-.01.034c1.184.311 2.367.646 3.57.873a.018.018 0 0 0 .009-.034c-1.172-.354-2.376-.603-3.57-.873m36.797-1.433a22 22 0 0 0-5.474-1.48c-.01 0-.014.014-.004.016a46 46 0 0 1 5.463 1.5c.021.006.036-.027.015-.036m1.06 3.36a8.9 8.9 0 0 0-2.445-1.238 14.5 14.5 0 0 0-2.734-.645c-.049-.007-.071.066-.02.075a16 16 0 0 1 2.607.756c.874.327 1.695.757 2.548 1.126a.043.043 0 0 0 .044-.074m.965 3.132a6.3 6.3 0 0 1-2.08-1.115c-.017-.014-.04.008-.024.025a4.05 4.05 0 0 0 2.09 1.14.025.025 0 0 0 .013-.05m146.414 226.76a180 180 0 0 1-17.101-7.785.012.012 0 0 0-.012.02 81.5 81.5 0 0 0 17.09 7.848c.054.017.073-.062.023-.083m9.722-.317c-3.527-1.43-7.203-2.507-10.777-3.816-3.638-1.333-7.265-2.73-10.826-4.256-.031-.014-.06.032-.027.047 3.46 1.624 6.948 3.162 10.519 4.53a73 73 0 0 0 11.085 3.59.049.049 0 0 0 .026-.095m4.994-.627a7.3 7.3 0 0 0-2.26-.99c-.853-.265-1.699-.532-2.526-.87-1.724-.702-3.394-1.524-5.1-2.264-3.287-1.426-6.633-2.712-9.928-4.117-.063-.027-.12.065-.055.094 3.262 1.493 6.504 3.036 9.836 4.369 1.655.662 3.349 1.225 5.006 1.882.903.358 1.771.772 2.643 1.199a7.1 7.1 0 0 0 2.35.825c.075.008.08-.092.034-.128m4.848-2.05a30 30 0 0 0-3.458-1.438q-1.733-.688-3.47-1.367l-7.175-2.805c-.022-.008-.03.026-.01.034l7.033 2.858q1.73.703 3.462 1.397a31 31 0 0 0 3.595 1.375.03.03 0 0 0 .023-.054m-3.317-4.985c-1.693-.79-3.423-1.494-5.15-2.204-.01-.004-.018.013-.008.018 1.704.764 3.406 1.534 5.145 2.218.018.007.031-.024.013-.032m6.493 2.214a13 13 0 0 0-1.56-.548q-.815-.253-1.628-.512c-.068-.022-.096.083-.03.105q.796.263 1.59.53a13 13 0 0 0 1.605.479c.03.006.055-.04.023-.054m6.887-8.41a44 44 0 0 0-3.186-1.433c-.029-.012-.049.036-.021.05 1.047.517 2.1 1 3.186 1.433.029.012.048-.036.02-.05m11.219-39.205c-.018-.073-.129-.041-.113.032 1.026 4.861 1.734 9.782 2.426 14.699.007.046.084.035.08-.01a82 82 0 0 0-2.393-14.72m-1.792 3.584c-.003-.015-.029-.011-.027.004.613 4.692 1.195 9.391 1.844 14.078.007.05.092.039.088-.012a115 115 0 0 0-1.905-14.07m-135.079 5.118c0-.012-.019-.012-.02 0a74 74 0 0 0-.204 8.092c.026.64.085 1.28.127 1.92q-.059-1.019-.065-2.039c-.02-2.656.098-5.317.162-7.973m.101 12.108a29 29 0 0 1-.193-2.023c.043.636.069 1.274.127 1.91a16.8 16.8 0 0 0 .651 3.858c.009.025.054.023.05-.007-.154-1.253-.468-2.485-.635-3.738m-.193-2.023-.005-.073Zm-2.2-1.264c-.002-.022-.037-.022-.035 0 .268 2.978.51 5.959.838 8.93.002.017.03.018.028 0-.228-2.98-.543-5.955-.831-8.93m-2.236 7.527c-.005-.039-.068-.04-.063 0 .3 2.384.561 4.777.93 7.151.002.017.032.013.03-.004-.24-2.388-.59-4.767-.897-7.147m-41.276-24.534a8.6 8.6 0 0 0-2.723-.04 19 19 0 0 0-2.48.39 34.6 34.6 0 0 0-5.14 1.707 11.3 11.3 0 0 0-1.912.873 10 10 0 0 0-1.673 1.549 7.47 7.47 0 0 0-1.973 3.605.008.008 0 0 0 .015.004 7.4 7.4 0 0 1 2.301-3.524c.563-.49 1.206-.772 1.8-1.2a17 17 0 0 1 1.789-1.196 18 18 0 0 1 4.715-1.676 19 19 0 0 1 2.671-.392c.866-.061 1.74.04 2.6-.03.038-.004.05-.06.01-.07m-4.085-1.237c-1.294.177-2.56.465-3.83.76-.026.005-.015.04.01.037 1.287-.21 2.569-.424 3.832-.752.03-.008.017-.05-.012-.045m-17.338 3.899c-.675-.323-1.378-.59-2.057-.906-.685-.319-1.355-.663-2.031-1-.017-.008-.038.015-.022.028a9.7 9.7 0 0 0 1.918 1.204 8.5 8.5 0 0 0 2.157.756c.046.008.084-.059.035-.082m2.273-1.579a7 7 0 0 0-1.17-.383q-.628-.189-1.253-.394-1.288-.424-2.537-.954c-.03-.012-.056.03-.026.044q1.199.555 2.437 1.014.617.229 1.245.423a5.5 5.5 0 0 0 1.287.312.033.033 0 0 0 .017-.062m-.884-1.614c-.015-.003-.022.02-.007.022.805.156 1.608.327 2.421.43.015.002.019-.023.004-.026-.798-.182-1.61-.297-2.418-.426m2.811-1.253c-.038-.024-.073.036-.035.06a2.8 2.8 0 0 0 1.43.45c.023 0 .022-.032 0-.035a3.4 3.4 0 0 1-1.394-.475m5.089.132a1.43 1.43 0 0 1-.89-.106c-.016-.008-.03.016-.014.024a1.28 1.28 0 0 0 .91.104.012.012 0 0 0-.006-.022m-25.347 7.787a57 57 0 0 0-5.4-3.583.022.022 0 0 0-.02.037q2.68 1.658 5.197 3.564c1.723 1.303 3.331 2.736 4.994 4.113.017.014.04-.008.025-.025a39 39 0 0 0-4.796-4.106m-1.14 2.112a29 29 0 0 0-3.38-1.709c-.016-.006-.03.017-.014.024a31 31 0 0 1 3.304 1.726c1.07.642 2.067 1.373 3.088 2.086.017.011.037-.015.022-.028a21 21 0 0 0-3.02-2.1m-3.121 1.849c-.02-.006-.028.024-.009.03a20.5 20.5 0 0 1 3.44 1.535.014.014 0 0 0 .015-.024 15.2 15.2 0 0 0-3.446-1.54m28.592 38.055c-1.093 5.397-2.247 10.788-3.186 16.214-.005.03.039.042.045.013 1.187-5.378 2.16-10.804 3.193-16.212.007-.035-.045-.05-.052-.015m-3.944 5.748c-.778 4.244-1.623 8.482-2.24 12.753-.003.026.036.039.042.011.872-4.226 1.515-8.5 2.224-12.757.003-.017-.023-.025-.026-.007m-4.016 7.011c-.3 2.045-.594 4.088-.848 6.139-.003.017.028.021.03.004.313-2.042.586-4.089.853-6.138.002-.02-.032-.024-.035-.005m63.153-20.28a95.7 95.7 0 0 0-2.952 22.968.05.05 0 0 0 .101 0 225 225 0 0 1 2.878-22.96c.003-.018-.022-.025-.027-.008m-2.641 1.641a158 158 0 0 0-3.599 25.042c-.003.065.106.082.115.016.59-4.168 1.04-8.354 1.618-12.524.58-4.182 1.205-8.36 1.908-12.523.004-.027-.036-.039-.042-.011m-3.123 4.352q-1.163 6.251-2.006 12.554c-.573 4.267-1.086 8.556-1.25 12.86-.003.075.104.07.113 0 .545-4.197.93-8.413 1.432-12.616q.765-6.407 1.76-12.785c.004-.031-.043-.046-.05-.013m-3.222 6.615-1.598 11.603c-.521 3.782-1.196 7.594-1.423 11.407a.043.043 0 0 0 .085.012c.76-3.744 1.086-7.601 1.553-11.39l1.433-11.625c.003-.028-.046-.035-.05-.007m-3.587 6.272a204 204 0 0 0-2.037 20.304c-.002.047.065.044.07 0 .84-6.744 1.303-13.539 1.994-20.3.002-.015-.025-.019-.027-.004m-3.176 6.261a174 174 0 0 0-1.354 18.895.023.023 0 0 0 .047 0c.322-6.309.705-12.608 1.334-18.895.002-.018-.025-.017-.027 0m-3.357 10.708c.25-3.571.6-7.134.838-10.707.001-.007-.01-.007-.011 0-.437 3.557-.657 7.13-.865 10.707-.102 1.767-.226 3.533-.336 5.3-.056.906-.105 1.811-.202 2.713-.071.66-.344 1.66-.011 2.26a.08.08 0 0 0 .135 0c.374-.578.172-1.594.154-2.26-.024-.905.008-1.808.04-2.713.06-1.768.135-3.535.259-5.3m-2.627-1.406c.002-.01-.013-.014-.015-.004a29.2 29.2 0 0 0-.403 7.2c.044 1.228.1 2.458.077 3.687a15 15 0 0 1-.137 2.113 6.7 6.7 0 0 0-.21 1.66c.004.052.087.09.112.03a3.4 3.4 0 0 0 .212-1.439c0-.63.04-1.26.052-1.89.025-1.228 0-2.456-.024-3.685a39.3 39.3 0 0 1 .336-7.672m-3.081 11.123c-.05.979-.102 1.957-.146 2.935-.001.015.022.015.023 0 .06-.978.112-1.956.166-2.935.001-.027-.042-.027-.043 0m1.254 73.357a71 71 0 0 1-5.576-8.516c-.023-.042-.087-.005-.064.037a76 76 0 0 0 5.576 8.771 49 49 0 0 0 6.752 7.646.033.033 0 0 0 .047-.047c-2.293-2.6-4.63-5.131-6.735-7.89m11.158 7.495q-.772-.891-1.53-1.795-1.555-1.852-3.059-3.745-3.04-3.82-5.895-7.787c-.01-.014-.033-.001-.024.013a129 129 0 0 0 5.57 7.792q1.482 1.912 3.034 3.768.756.905 1.527 1.799a7.9 7.9 0 0 0 1.638 1.712c.052.031.1-.03.077-.078a7.8 7.8 0 0 0-1.338-1.679m5.234 4.907a4.7 4.7 0 0 0-.622-.56l-.641-.539-1.283-1.079c-.038-.032-.094.023-.055.056l1.288 1.11.634.546a4.6 4.6 0 0 0 .641.515c.032.019.06-.023.038-.049m6.271 1.771c-2.174-2.008-4.347-3.996-6.388-6.142q-3.054-3.21-5.819-6.681c-.01-.012-.025.005-.016.017a84 84 0 0 0 12.173 12.855c.034.029.083-.018.05-.05m4.926-.06c-1.678-1.404-3.407-2.704-4.958-4.256a39 39 0 0 1-4.307-5.114c-.02-.028-.067-.002-.047.028a35.6 35.6 0 0 0 4.177 5.15 25.6 25.6 0 0 0 5.104 4.232c.024.014.054-.021.031-.04m-2.521-5.546c-.017-.011-.031.015-.015.027 1.944 1.402 3.74 2.97 5.556 4.53a.03.03 0 0 0 .041-.04 31.7 31.7 0 0 0-5.582-4.517m9.92 4.65a92 92 0 0 0-3.784-2.62c-.012-.008-.023.012-.011.021a92 92 0 0 0 3.775 2.632c.022.014.04-.019.02-.033m24.094-.277a14.4 14.4 0 0 0-2.115-1.671c-.04-.027-.076.037-.037.064a14 14 0 0 1 2.052 1.752c.613.636 1.136 1.347 1.728 2.001.025.028.064-.007.05-.038a8 8 0 0 0-1.678-2.108m.217 3.322a11 11 0 0 0-1.4-1.327c-.025-.02-.06.014-.036.036a18 18 0 0 1 1.31 1.346 16 16 0 0 1 1.192 1.501c.017.025.056.003.04-.023a11.5 11.5 0 0 0-1.106-1.533m31.374-7.677c-.012-.008-.023.012-.012.02q1.628 1.258 3.292 2.463c.013.009.03-.012.017-.022q-1.629-1.259-3.297-2.46m5.675 7.347a51 51 0 0 0-6.231-5.116c-.017-.012-.031.015-.016.027a127 127 0 0 1 6.208 5.128c.026.023.064-.014.039-.039m-51.388-29.538a88.6 88.6 0 0 1-13.362-13.318c-.009-.01-.027.004-.019.014a69.5 69.5 0 0 0 13.348 13.347c.024.018.057-.024.033-.043m73.605-.341a9.3 9.3 0 0 0-2.331-.7c-.85-.194-1.715-.343-2.554-.573a43 43 0 0 1-4.817-1.714 70.4 70.4 0 0 1-9.453-4.703.008.008 0 0 0-.008.014 69 69 0 0 0 9.237 4.654c1.614.665 3.264 1.226 4.899 1.838.821.307 1.62.662 2.451.944a7.8 7.8 0 0 0 2.486.575.181.181 0 0 0 .09-.335m6.324-1.501c-2.182-.629-4.383-1.164-6.534-1.897a54.5 54.5 0 0 1-6.483-2.682c-.031-.015-.059.031-.027.048a40.6 40.6 0 0 0 13.024 4.602c.046.006.067-.058.02-.071m5.354-2.013c-1.65-.54-3.314-1.037-4.979-1.532a.031.031 0 0 0-.016.06c1.657.52 3.313 1.039 4.984 1.513a.022.022 0 0 0 .011-.041m-98.282-17.747c-.021-.025-.056.01-.036.036 1.917 2.414 3.816 4.847 5.818 7.193.018.021.058-.008.04-.031-1.877-2.45-3.86-4.817-5.822-7.198m5.447-.864q-3.32-3.91-6.305-8.09c-.01-.015-.034-.001-.024.013q2.862 4.135 6.079 8.002a68 68 0 0 0 6.97 7.538.031.031 0 0 0 .044-.044c-2.217-2.51-4.594-4.865-6.764-7.42m14.998 6.839a122.7 122.7 0 0 1-17.833-17.897q-2.342-2.91-4.502-5.958c-.022-.03-.072-.002-.05.03a107.5 107.5 0 0 0 16.76 19.212 98 98 0 0 0 5.587 4.652c.027.02.066-.016.038-.04m2.549-3.826c-7.133-5.291-12.755-12.246-17.87-19.435a419 419 0 0 1-4.262-6.137c-.018-.027-.062-.002-.044.026 4.928 7.34 9.921 14.82 16.399 20.91a51.4 51.4 0 0 0 5.75 4.684c.028.02.055-.027.027-.047m87.173 10.099a40 40 0 0 0-4.003-1.755c-1.412-.501-2.87-.878-4.314-1.274a.033.033 0 0 0-.018.064c1.419.424 2.792.96 4.174 1.485 1.375.524 2.768 1 4.127 1.562.047.02.08-.06.034-.082m12.141-12.033c-3.138-1.511-6.295-2.982-9.449-4.46-.038-.019-.072.038-.033.057 3.15 1.486 6.298 2.98 9.464 4.434.02.01.038-.02.018-.03m3.196-3.583c-3.96-2.035-8.057-3.82-12.127-5.622-.025-.01-.047.026-.022.037 4.05 1.854 8.051 3.824 12.125 5.626.027.012.051-.027.024-.04m.85-4.76c-1.337-.742-2.75-1.358-4.13-2.013l-4.156-1.97c-.027-.013-.051.027-.024.04l4.202 2.053c1.352.66 2.695 1.367 4.086 1.94.03.012.048-.035.022-.05m.033-4.276a23 23 0 0 0-4.344-2.424c-.036-.016-.068.036-.032.054 1.498.723 2.907 1.592 4.348 2.417.032.018.055-.026.028-.047m1.634-3.915a11 11 0 0 0-1.612-.918q-.835-.41-1.686-.782c-.025-.011-.047.024-.022.037q.831.41 1.645.853c.54.295 1.082.612 1.645.86a.03.03 0 0 0 .03-.05m1.016-3.175a4.4 4.4 0 0 0-.686-.35l-.702-.32c-.045-.022-.085.044-.04.066l.705.345a4.4 4.4 0 0 0 .703.306.026.026 0 0 0 .02-.047m1.449-2.614a9 9 0 0 0-.625-.587q-.332-.273-.666-.545c-.023-.02-.056.012-.033.033q.317.297.638.591c.21.191.438.364.664.535.017.013.035-.014.022-.027m-9.854 41.152a35.7 35.7 0 0 0-2.216 5.86.025.025 0 0 0 .05.013 53 53 0 0 1 2.203-5.851c.011-.025-.025-.047-.037-.022m7.85 6.878c-.634 3.065-1.272 6.129-1.869 9.201-.003.017.023.025.027.007.65-3.06 1.26-6.13 1.872-9.2.004-.02-.026-.028-.03-.008m1.762 5.25a104 104 0 0 0-.508 7.78c-.001.05.07.047.074 0 .26-2.587.4-5.181.466-7.78 0-.02-.03-.02-.032 0m2.558 7.267a22 22 0 0 0-.62-2.568.04.04 0 0 0-.075.02c.194.83.321 1.672.467 2.51.15.861.287 1.728.39 2.597.006.04.069.043.067 0a20 20 0 0 0-.23-2.559m-18.614-241.712a29.3 29.3 0 0 0-8.725-4.178c-.019-.006-.027.023-.008.03a40 40 0 0 1 8.711 4.185c.024.015.044-.021.022-.037m6.095 3.377a4 4 0 0 0-.391-.3 17 17 0 0 0-.916-.571c-.612-.361-1.256-.67-1.89-.988-.085-.043-.16.083-.075.128a18 18 0 0 1 1.781 1.111c.281.191.555.394.83.593.147.105.292.211.447.303a.95.95 0 0 0 .42.18.085.085 0 0 0 .081-.106.9.9 0 0 0-.288-.35m3.467-4.413a18 18 0 0 0-3.232-2.285 72 72 0 0 0-3.59-2.104c-2.44-1.332-4.95-2.522-7.492-3.644-.025-.011-.047.025-.021.037 2.47 1.169 4.875 2.474 7.232 3.857 1.164.683 2.32 1.377 3.462 2.095a30 30 0 0 0 3.55 2.16c.074.033.155-.053.09-.116m1.898-5.8a7 7 0 0 0-1.867-1.33c-.647-.382-1.274-.795-1.901-1.206a125 125 0 0 0-4.096-2.6 62 62 0 0 0-8.387-4.179c-.042-.018-.074.056-.031.075 2.845 1.265 5.635 2.695 8.351 4.218a58 58 0 0 1 3.944 2.413 21 21 0 0 1 1.973 1.469 8.4 8.4 0 0 0 1.822 1.389.159.159 0 0 0 .192-.249m-8.231-10.672a20.6 20.6 0 0 0-2.92-2.048 24 24 0 0 0-3.237-1.505c-.035-.013-.06.046-.026.061a38.3 38.3 0 0 1 6.146 3.541c.028.02.065-.026.037-.049m7.516 4.395q-.056-.059-.116-.115a.3.3 0 0 0-.142-.233 7 7 0 0 0-.434-.268c-.276-.16-.555-.312-.835-.465-.577-.316-1.158-.626-1.72-.97-.068-.04-.127.063-.062.105.563.367 1.104.765 1.647 1.16.267.194.534.388.809.573a2.7 2.7 0 0 0 .432.27c.084.035.122.012.205.008q.044-.04.04-.001a1 1 0 0 0 .115.04.063.063 0 0 0 .061-.104m-1.348-6.64a12.6 12.6 0 0 0-2.06-1.52q-1.158-.77-2.353-1.48-2.357-1.398-4.847-2.552c-.022-.011-.042.022-.02.033q2.409 1.212 4.691 2.653 1.14.722 2.243 1.5a24 24 0 0 0 2.198 1.559.124.124 0 0 0 .149-.193m-2.271-6.903a9 9 0 0 0-.773-.477q-.791-.448-1.611-.84a33 33 0 0 0-3.287-1.318c-.03-.01-.05.038-.021.05a35 35 0 0 1 3.186 1.59q.768.425 1.524.876c.258.156.516.318.783.46a1.7 1.7 0 0 0 .674.27.077.077 0 0 0 .066-.115 1.6 1.6 0 0 0-.541-.496m-.466-4.673a7 7 0 0 0-.616-.375c-.434-.24-.883-.458-1.337-.655a29 29 0 0 0-2.695-.966c-.024-.007-.034.03-.01.038a19.5 19.5 0 0 1 2.635 1.226q.614.333 1.216.684c.208.12.415.244.627.357a.8.8 0 0 0 .494.16.08.08 0 0 0 .055-.098c-.047-.175-.225-.272-.369-.371m-.56-4.33a2.9 2.9 0 0 0-.78-.432 38 38 0 0 0-.868-.378c-.592-.248-1.187-.486-1.78-.733-.04-.017-.069.052-.03.071.577.284 1.15.577 1.727.86q.426.208.858.406a2.9 2.9 0 0 0 .834.3.055.055 0 0 0 .039-.094m-.66-3.296a2.6 2.6 0 0 0-.522-.347 14 14 0 0 0-.544-.291c-.381-.193-.77-.37-1.155-.556a.03.03 0 0 0-.03.05c.365.22.727.446 1.096.658q.268.153.542.294a2.7 2.7 0 0 0 .58.248.033.033 0 0 0 .033-.056m-1.384-4.233c-.016-.008-.03.016-.014.023l.683.337c.011.006.02-.01.01-.016zm-72.885 50.77a31 31 0 0 0-2.497-2.249q-1.319-1.126-2.659-2.227a340 340 0 0 0-5.327-4.29c-.018-.014-.043.01-.025.025a468 468 0 0 1 5.295 4.466c1.697 1.448 3.34 3.051 5.165 4.337.038.026.077-.03.048-.062m5.42-.653a33 33 0 0 0-2.838-2.656q-1.449-1.299-2.901-2.593-2.913-2.584-5.849-5.14c-.02-.018-.05.012-.03.03q2.899 2.677 5.813 5.337 1.439 1.309 2.888 2.606a32 32 0 0 0 2.872 2.474c.037.025.072-.029.045-.059m4.196-2.076a13 13 0 0 0-1.516-1.226q-.833-.645-1.613-1.353c-.977-.888-1.89-1.847-2.805-2.8a33.4 33.4 0 0 0-5.86-5.114c-.027-.018-.052.025-.025.043a40 40 0 0 1 6.062 5.304c.905.918 1.796 1.85 2.685 2.783a13.4 13.4 0 0 0 2.843 2.66.19.19 0 0 0 .23-.297m4.374-1.87c-.42-.349-.833-.706-1.25-1.06q-1.327-1.126-2.652-2.255c-1.744-1.484-3.49-2.963-5.285-4.385-.022-.017-.052.01-.03.03 1.681 1.547 3.41 3.037 5.145 4.525l2.564 2.199q.623.532 1.242 1.067a5.7 5.7 0 0 0 1.303 1.033c.06.027.142-.032.099-.099a5.2 5.2 0 0 0-1.136-1.055m6.141.119c-2.105-1.707-4.314-3.282-6.413-5-.038-.03-.094.022-.055.056a48.5 48.5 0 0 0 6.433 4.99c.028.017.062-.025.035-.046m4.059-.302a38 38 0 0 0-3.24-2.219c-.034-.022-.062.031-.03.054a37 37 0 0 0 3.234 2.211c.028.017.063-.024.036-.046m3.907-1.34c-.036-.015-.069.037-.032.055a8.2 8.2 0 0 1 1.921 1.263c.017.015.041-.008.025-.025a6 6 0 0 0-1.914-1.292m-20.865-66.683c-4.811 1.498-9.907 1.248-14.875 1.015-.013 0-.012.019 0 .02 4.976.413 10.109.757 14.888-.99.028-.01.016-.054-.013-.045m-3.976 3.456a39 39 0 0 1-6.294.353c-.028-.001-.028.042 0 .043a31 31 0 0 0 6.298-.369c.015-.002.012-.029-.004-.027m-84.44 16.2a42 42 0 0 0-.67 4.778.04.04 0 0 0 .077.01 42 42 0 0 0 .662-4.778c.004-.04-.062-.049-.069-.01m-43.146-89.09a81 81 0 0 0-8.08-2.785.018.018 0 0 0-.009.034 42.6 42.6 0 0 1 7.897 3.205.247.247 0 1 0 .192-.454m3.193 1.541a6 6 0 0 0-.54-.245l-.55-.188-1.142-.39c-.077-.026-.108.093-.033.12l1.115.402.547.198a5 5 0 0 0 .583.15c.027.006.047-.034.02-.047m1.711 2.887a16.3 16.3 0 0 0-2.714-.893q-1.36-.404-2.723-.805-2.826-.836-5.657-1.657a.012.012 0 0 0-.006.022q2.807.906 5.617 1.805l2.706.863a16.3 16.3 0 0 0 2.745.782c.063.008.085-.09.032-.117m.483 3.122a31.8 31.8 0 0 0-7.487-2.586.014.014 0 0 0-.007.026 64 64 0 0 1 7.477 2.599c.023.009.038-.028.017-.04m-1.184 1.838c-.014-.005-.02.017-.006.023.788.297 1.573.614 2.378.866.02.006.026-.023.008-.03-.779-.322-1.584-.582-2.38-.859m4.575 3.288c-.01-.008-.02.009-.01.016l.683.508c.008.006.016-.007.008-.013Z"/></svg>