<svg xmlns="http://www.w3.org/2000/svg" data-name="five" viewBox="0 0 459.969 449.614"><path fill="currentColor" d="M201.086 376.468c-.384-3.517-.65-7.044-.84-10.576a178 178 0 0 1 .114-20.953c.261-4.05.652-8.09 1.198-12.112.003-.02-.027-.028-.03-.008a176 176 0 0 0-1.386 42.436q.272 2.975.667 5.935a34 34 0 0 0 1.155 5.82.122.122 0 0 0 .238-.032c-.065-3.509-.736-7.024-1.116-10.51m51.115 26.443c-5.337-.823-10.713-1.359-16.038-2.27a97 97 0 0 1-15.633-3.86 68 68 0 0 1-7.474-3.017 39 39 0 0 1-3.539-1.92 11.4 11.4 0 0 1-2.928-2.201 13 13 0 0 1-.895-1.62 3.8 3.8 0 0 1-.442-.77 10 10 0 0 1-.31-1.272 82 82 0 0 1-.736-4.462q-.626-4.516-.99-9.064a158 158 0 0 1-.312-20.202c.004-.076-.113-.075-.117 0a164 164 0 0 0-.083 18.613q.238 4.585.74 9.15.247 2.25.539 4.494c.093.724.202 1.452.27 2.18a6.3 6.3 0 0 1 .018 1.152 3.4 3.4 0 0 0-.046 1.023 4.27 4.27 0 0 0 2.424 2.856c1.206.635 2.457 1.165 3.688 1.746a77 77 0 0 0 7.45 3.045 107 107 0 0 0 16.021 3.995c6.074 1.11 12.228 1.986 18.382 2.488.047.004.06-.077.011-.084"/><path fill="currentColor" d="M264.986 402.46c-.26-.066-.52-.11-.78-.17a.017.017 0 0 0-.006-.033l-.282-.03a62.5 62.5 0 0 0-9.17-1.219c-.061-.004-.058.087 0 .094 1.467.188 2.929.41 4.39.636a82 82 0 0 1-4.088-.505 14 14 0 0 1-2.188-.635 11.5 11.5 0 0 0-2.14-.39q-2.348-.298-4.69-.642-9.007-1.32-17.89-3.32-4.97-1.11-9.892-2.417a.023.023 0 0 0-.012.045q8.853 2.535 17.858 4.484 4.438.952 8.902 1.786 2.2.407 4.408.777c.755.128 1.51.257 2.268.371a11 11 0 0 0 2.17-.066 17 17 0 0 1 2.644.245q1.203.146 2.408.282l1.316.148c1.583.244 3.167.484 4.757.682.07.008.084-.106.017-.123m-21.622-185.294q-8.173 6.138-16.263 12.381l-8.197 6.325-4.048 3.125-1.966 1.517c-.692.535-1.474.82-2.205 1.292a10.7 10.7 0 0 0-1.557 1.672c-.618.622-1.31 1.177-1.96 1.765-1.177 1.065-2.397 2.08-3.613 3.101-2.435 2.047-4.868 4.094-7.265 6.185q-7.193 6.276-14.135 12.83c-5.221 4.93-10.201 10.112-14.961 15.485-.073.082.044.202.121.122 8.846-9.142 17.832-18.169 27.37-26.592q3.577-3.16 7.253-6.205c1.267-1.056 2.534-2.12 3.846-3.119a47 47 0 0 1 3.917-2.83 10.7 10.7 0 0 0 2.067-1.208c.6-.58 1.039-1.23 1.697-1.754l4.088-3.258 8-6.376q8.97-7.15 17.854-14.403c.03-.025-.01-.079-.043-.055m22.316 7.104a203 203 0 0 0-21.7 19.874q-2.866 3.033-5.594 6.197c-.062.072.04.176.105.105 6.647-7.216 13.627-14.126 20.961-20.644 2.077-1.846 4.155-3.689 6.278-5.482.035-.03-.015-.077-.05-.05m-.076 3.23a220 220 0 0 0-18.883 16.634c-6.006 5.852-11.793 11.926-17.261 18.284q-4.65 5.407-9.043 11.026c-.072.093.053.226.133.133 5.425-6.383 11.052-12.585 16.811-18.668q8.645-9.13 17.861-17.695 5.203-4.846 10.431-9.664c.034-.032-.015-.077-.05-.05m-19.614 21.524c-7.572 8.14-14.983 16.422-21.982 25.063a348 348 0 0 0-4.91 6.228 14.5 14.5 0 0 0-1.21 1.549q-.514.896-1.023 1.796a39 39 0 0 0-1.823 3.634c-2.146 4.932-4.013 10.001-5.757 15.088q-3.04 8.867-5.264 17.973a.031.031 0 0 0 .06.016q2.087-7.955 4.725-15.758a128 128 0 0 1 6.013-15.302 39 39 0 0 1 4.15-6.756c.384-.493.643-1.083.99-1.605a40 40 0 0 1 1.197-1.686 162 162 0 0 1 2.462-3.197q5.1-6.498 10.364-12.866c3.935-4.785 7.927-9.51 12.057-14.127.03-.034-.018-.083-.05-.05m-27.702-46.026c-3.216 1.216-6.324 2.654-9.493 3.98-.751.315-1.502.63-2.247.959-.371.163-.745.38-1.13.506-.371.123-.768.156-1.135.304a6.4 6.4 0 0 0-2.013 1.451 15.5 15.5 0 0 1-2.13 1.61 71 71 0 0 0-8.05 6.406c-2.616 2.383-5.186 4.824-8.02 6.953-2.623 1.97-5.327 3.832-7.858 5.922a32 32 0 0 0-3.622 3.525 38 38 0 0 1-3.6 3.767c-2.743 2.358-6.053 4.056-9.085 6.007-1.602 1.03-3.167 2.13-4.726 3.223a16.5 16.5 0 0 0-2.236 1.68 16.4 16.4 0 0 1-2.341 1.797c-3.37 2.322-6.744 4.633-10.303 6.66a55.8 55.8 0 0 1-11.173 4.84.031.031 0 0 0 .017.06 62.7 62.7 0 0 0 9.829-3.513 71 71 0 0 0 9.336-5.351c1.548-1.013 3.06-2.145 4.679-3.04.437-.241.914-.397 1.349-.642.394-.222.766-.498 1.146-.744.799-.519 1.596-1.039 2.387-1.57 3.06-2.048 6.102-4.146 8.976-6.452a29.6 29.6 0 0 0 3.796-3.549c1.146-1.31 2.217-2.687 3.403-3.962a46.4 46.4 0 0 1 7.889-6.314 76 76 0 0 0 7.93-6.343c2.632-2.389 5.2-4.867 8.032-7.021a17.8 17.8 0 0 1 5.011-3.065 6.4 6.4 0 0 0 2.493-1.262 13.6 13.6 0 0 1 2.456-1.642c3.357-1.951 6.974-3.415 10.47-5.094.047-.023.013-.105-.037-.086m-10.001-45.995c-3.228-.13-6.478.01-9.704.146-3.234.136-6.463.364-9.687.65-.074.007-.075.123 0 .117 3.225-.254 6.455-.437 9.687-.57 3.234-.134 6.47-.12 9.704-.249a.047.047 0 0 0 0-.094m-.248-2.596a66 66 0 0 1-7.157.463.02.02 0 0 0 0 .039 42 42 0 0 0 7.164-.456c.025-.004.02-.049-.007-.046m-163.153 2.447a8.97 8.97 0 0 1-4.316 4.44 3.2 3.2 0 0 1-.89.37 2.8 2.8 0 0 0-.867.182 3.4 3.4 0 0 0-1.102 1.047 13.2 13.2 0 0 1-2.64 2.159 28.5 28.5 0 0 0-4.602 4.17c-1.018 1.162-2.448 2.754-1.707 4.407a.444.444 0 0 0 .762 0c.564-.989 1.157-2.024 1.816-2.952a13 13 0 0 1 2.864-2.699 68 68 0 0 1 6.118-3.827.078.078 0 0 0-.079-.135 47 47 0 0 0-6.323 4.067c-.955.736-1.834 1.559-2.747 2.344a16 16 0 0 0-1.358 1.228 6.3 6.3 0 0 0-.701.953c-.665-1.529 1.834-3.845 2.729-4.738a17.1 17.1 0 0 1 5.126-3.784c.957-.408 2.216-.161 3.008-.91.188-.178.312-.394.49-.58a5 5 0 0 1 .681-.536q.563-.402 1.09-.85a8.03 8.03 0 0 0 2.769-4.323.063.063 0 0 0-.12-.033m-5.189 9.402c-1.462.999-2.896 2.04-4.341 3.064-.016.011 0 .038.016.027 1.45-1.016 2.912-2.016 4.345-3.057.02-.014 0-.048-.02-.034M58.03 201.7a40 40 0 0 1 2.212-3.933 33 33 0 0 1 2.852-3.922 19 19 0 0 1 3.567-3.07 4.7 4.7 0 0 0 .908-.775c.312-.363.46-.814.78-1.16a17.4 17.4 0 0 1 1.932-1.658 75 75 0 0 1 4.328-3.245.094.094 0 0 0-.094-.162 27 27 0 0 0-4.449 2.488q-1.012.712-1.98 1.483a19 19 0 0 0-2.11 1.355 17 17 0 0 0-1.498 2.024c-.49.681-.946 1.38-1.457 2.047-1.036 1.352-2.065 2.698-2.98 4.136a40 40 0 0 0-2.425 4.377c-.402.848-1.521 2.432-.17 2.964.335.132 1.06.298 1.353.05a4.7 4.7 0 0 0 .614-1.114q.366-.645.75-1.28a47 47 0 0 1 3.174-4.593 8 8 0 0 1 2.201-2.285 2.25 2.25 0 0 0 1.022-.943q.382-.615.796-1.21a24.7 24.7 0 0 1 4.574-4.462c.055-.046-.023-.121-.077-.078-1.324 1.067-2.555 2.228-3.834 3.346a33 33 0 0 1-1.907 1.527 3.8 3.8 0 0 0-.863.711c-.278.396-.298.895-.582 1.296-.905 1.277-1.923 2.472-2.825 3.752-.977 1.387-1.926 2.793-2.796 4.25-.183.307-.326.771-.68.842a1.7 1.7 0 0 1-.908-.19c-.563-.338-.22-.86-.012-1.324q.281-.627.584-1.244m11.75-9.657q-1.314 1.472-2.634 2.937c-.429.472-.867.937-1.285 1.418a16 16 0 0 0-1.175 1.555c-.05.072.056.144.116.09a15 15 0 0 0 1.345-1.359c.43-.5.841-1.016 1.26-1.524q1.241-1.502 2.5-2.99c.073-.088-.05-.215-.128-.127M97.75 96.282a31.6 31.6 0 0 0-8.233 2.855c-1.31.635-2.628 1.254-3.942 1.883-.691.33-1.38.648-2.076.966-.295.135-.55.361-.847.485a.8.8 0 0 1-.305.07c-.067.004-.3-.175-.165-.042a.55.55 0 0 0-.769 0 25.3 25.3 0 0 1-3.853 2.975c-1.234.883-2.573 1.64-3.721 2.633-.018.016 0 .046.022.04a18.4 18.4 0 0 0 4.177-2.079c1.19-.713 2.278-1.6 3.445-2.345a1.35 1.35 0 0 0 .91.52 2.43 2.43 0 0 0 2.005-.919 17.9 17.9 0 0 1 3.881-3.288 39 39 0 0 1 9.483-3.708.023.023 0 0 0-.013-.046"/><path fill="currentColor" d="M94.646 98.654c-2.84 1.14-5.668 2.398-8.385 3.808a24 24 0 0 0-3.828 2.401c-.586.46-1.147.952-1.735 1.412a22 22 0 0 0-1.935 1.544.075.075 0 0 0 .09.117c.658-.36 1.255-.834 1.89-1.235.64-.405 1.3-.76 1.968-1.112 1.38-.728 2.658-1.57 3.966-2.415a70 70 0 0 1 7.988-4.477c.023-.012.006-.053-.019-.043m-7.902 5.914c-1.466.637-2.917 1.309-4.373 1.968-.009.004-.001.017.008.013 1.463-.645 2.932-1.279 4.385-1.947.023-.01.003-.043-.02-.034m38.824 24.59a8.2 8.2 0 0 0-3.402-.922 10.5 10.5 0 0 0-3.732.38c-1.23.42-2.505.673-3.729 1.13-1.158.432-2.277.952-3.39 1.49-1.173.567-2.438.938-3.578 1.576-1.135.634-2.19 1.418-3.28 2.125a31.5 31.5 0 0 0-6.107 4.841 66 66 0 0 0-5.096 6.761c-.035.05.045.094.081.047a42.7 42.7 0 0 1 10.722-10.263 70 70 0 0 1 3.162-1.9c1.071-.612 2.033-1.352 3.038-2.06a20.3 20.3 0 0 1 6.87-2.883 14 14 0 0 1 2.192-.21c.685-.06 1.363-.126 2.05-.13.683-.004 1.362.048 2.043.085.705.037 1.413.016 2.116.078a.079.079 0 0 0 .04-.145m-12.025-1.374c-1.164.616-2.323 1.243-3.493 1.849a20 20 0 0 1-1.963.91 13 13 0 0 0-1.556.648 14 14 0 0 0-1.495 1.11 18 18 0 0 1-1.655 1.08c-1.133.668-2.287 1.304-3.434 1.948-.013.007-.001.027.012.02 1.154-.632 2.305-1.275 3.472-1.882a19 19 0 0 1 1.978-.902 11.4 11.4 0 0 0 1.564-.619 15 15 0 0 0 1.51-1.084 21 21 0 0 1 1.661-1.069c1.132-.67 2.276-1.321 3.414-1.982a.016.016 0 0 0-.015-.027m63.37-76.562a5.1 5.1 0 0 0-2.978-1.154 20 20 0 0 0-3.626.234 50 50 0 0 0-6.795 1.234c-2.264.562-4.54 1.084-6.77 1.773a28 28 0 0 0-1.573.528 3.07 3.07 0 0 0-1.527.848 1.2 1.2 0 0 1-.477.47c-.238.148-.472.299-.712.443-.539.324-1.078.646-1.608.986a29 29 0 0 0-6.063 4.895c-.01.012.004.035.02.024 1.848-1.232 3.634-2.56 5.536-3.713a31 31 0 0 1 2.932-1.625 4.4 4.4 0 0 1 .744-.335l.11.043a.9.9 0 0 0 .323.014 4.9 4.9 0 0 0 1.592-.783 35.6 35.6 0 0 1 6.128-2.932 31.2 31.2 0 0 1 6.716-1.467 12.6 12.6 0 0 1 3.983-.012c1.314.268 2.643.449 3.965.666.071.012.151-.08.08-.137"/><path fill="currentColor" d="M177.689 52.788a38 38 0 0 0-7.277-.397 39 39 0 0 0-6.621.904c-1.074.243-2.131.544-3.189.846-.563.161-1.132.297-1.693.466a4.7 4.7 0 0 0-1.328.505 15 15 0 0 1-1.441.997c-.45.244-.915.462-1.37.697a40 40 0 0 0-3.05 1.754c-.013.008-.001.029.011.02a40 40 0 0 1 2.867-1.632c.457-.234.916-.466 1.391-.663a7 7 0 0 1 1.79-.44 17.7 17.7 0 0 0 2.966-1.184 29 29 0 0 1 3.07-.867 47.7 47.7 0 0 1 13.865-.937c.039.003.048-.063.009-.069m17.636 45.573a3.9 3.9 0 0 0-1.709-.468 43 43 0 0 0-1.913-.224 40 40 0 0 0-3.972-.169 57 57 0 0 0-7.622.707 39 39 0 0 0-3.9.827 18.4 18.4 0 0 0-3.782 1.15 52 52 0 0 0-6.723 3.84 43.5 43.5 0 0 0-6.656 5.707.023.023 0 0 0 .033.033 35.7 35.7 0 0 1 6.1-4.715q1.653-1.017 3.399-1.873a24.6 24.6 0 0 1 3.524-1.547 33 33 0 0 0 3.515-1.284 23 23 0 0 1 3.658-1.142 36 36 0 0 1 7.678-1.07 40 40 0 0 1 4.168.099 36 36 0 0 1 2.234.238 5.5 5.5 0 0 0 1.937.127.13.13 0 0 0 .03-.236m-10.541-2.451a27 27 0 0 0-4.458.486 23 23 0 0 1-2.496.372 8.3 8.3 0 0 0-2.164.369 3.5 3.5 0 0 0-.862.471 8 8 0 0 1-1.187.497 68 68 0 0 0-1.982.846 40 40 0 0 0-4.264 2.204.031.031 0 0 0 .032.054 40 40 0 0 1 4.203-2.04 28 28 0 0 1 2.094-.763 7 7 0 0 1 1.073-.305 9 9 0 0 0 1.122-.135 13.5 13.5 0 0 0 1.95-.733 10 10 0 0 1 2.191-.63c1.57-.31 3.162-.424 4.748-.615.048-.006.051-.078 0-.078m90.134-34.963c-4.022-1.385-8.351-1.416-12.502-2.132a26.3 26.3 0 0 0-6.266-.493 18 18 0 0 0-3.012.662c-1.014.246-2.044.42-3.072.6a62 62 0 0 0-7.034 1.676.016.016 0 0 0 .008.03 62 62 0 0 1 6.072-1.231 28 28 0 0 1 3.198-.338c1.063-.034 2.085.144 3.14.197a56 56 0 0 0 6.189-.482 32 32 0 0 1 6.37.286c2.324.32 4.58.91 6.884 1.315a.047.047 0 0 0 .025-.09"/><path fill="currentColor" d="M275.188 60.148c-3.263-2.184-7.387-2.511-11.17-3.057-1.063-.153-2.129-.302-3.186-.498a11 11 0 0 0-2.893-.36 13.3 13.3 0 0 0-2.982.68 16.7 16.7 0 0 1-3.308.616.047.047 0 0 0 0 .093 14.7 14.7 0 0 0 2.95-.183c1.037-.123 2.076-.188 3.115-.288a27.2 27.2 0 0 1 6.02.245c3.857.48 8.069.621 11.434 2.786.022.013.04-.02.02-.034m4.547 43.764a17 17 0 0 0-2.96-1.408q-1.594-.665-3.234-1.211a62 62 0 0 0-6.737-1.912c-1.121-.235-2.258-.382-3.378-.616a15 15 0 0 0-1.563-.287 6.3 6.3 0 0 0-1.773.13 32 32 0 0 1-3.512.152 36 36 0 0 0-3.329.329 49 49 0 0 0-7.612 1.916.04.04 0 0 0 .02.075 43 43 0 0 1 6.733-1.133 53 53 0 0 1 6.777-.313 10 10 0 0 1 1.631.305 8 8 0 0 0 1.71.063 23 23 0 0 1 3.324.156 37.5 37.5 0 0 1 6.676 1.234q1.808.54 3.567 1.227c1.198.469 2.346 1.117 3.561 1.529.145.049.215-.158.1-.236"/><path fill="currentColor" d="M278.598 106.232a13.6 13.6 0 0 0-2.652-1.524 29 29 0 0 0-2.826-1.184 29 29 0 0 0-6.118-1.455c-.01-.001-.011.014-.003.015a28.6 28.6 0 0 1 8.865 2.764c.908.455 1.757 1.028 2.672 1.464.048.023.11-.041.062-.08m93.859 116.306c-.008-.035-.06-.02-.053.014a32.7 32.7 0 0 0 4.192 10.677.027.027 0 0 0 .048-.028 37.1 37.1 0 0 1-4.187-10.663m11.869 14.668a35.2 35.2 0 0 1-8.286-11.1c-.02-.042-.08-.006-.061.035a30.8 30.8 0 0 0 8.297 11.115c.035.028.084-.019.05-.05m-5.675 89.352a.07.07 0 0 0-.035.06v.069a.059.059 0 0 0 .116.016c-.109.31-2.994-.912-3.206-1.014-.465-.224-.87-.535-1.32-.78-.49-.265-1.063-.35-1.576-.571a54 54 0 0 1-5.596-2.883.012.012 0 0 0-.012.02q1.924 1.192 3.922 2.256c.649.344 1.317.656 1.957 1.016.308.172.578.408.902.552a8 8 0 0 0 1.048.306 17 17 0 0 1 2.248.857 4.1 4.1 0 0 0 1.574.61c.57-.035.37-.723-.022-.514m-3.133-3.918a.496.496 0 0 0 0 .992.496.496 0 0 0 0-.992m-7.659 8.632a8.2 8.2 0 0 1-3.053-1.006c-.036-.02-.064.03-.032.054a5.36 5.36 0 0 0 3.085 1.03c.051 0 .048-.072 0-.078M210.543 420.77c-4.852-2.004-9.839-3.661-14.693-5.664-.069-.029-.12.09-.051.121a105 105 0 0 0 14.71 5.664c.08.022.106-.09.034-.12m2.834-.567c-4.047-2.07-8.257-3.786-12.467-5.497-.057-.023-.098.074-.042.1 4.1 1.957 8.206 3.91 12.464 5.504.062.023.104-.077.045-.107m1.193 11.103a131 131 0 0 0-1.22-3.41c-.383-1.02-.854-2.013-1.223-3.037-.143-.394-.12-.898-.379-1.233a2.34 2.34 0 0 0-1.121-.61c-1.099-.391-2.245-.662-3.348-1.06-2.34-.843-4.666-1.72-7.01-2.553-.03-.01-.04.034-.013.045a585 585 0 0 0 6.466 2.662 20.6 20.6 0 0 1 3.22 1.478c.389.244.676.607 1.057.841a6 6 0 0 1 .721.338 2.1 2.1 0 0 1 .528.882c.758 2.056 1.568 4.092 2.242 6.178.694 2.145 1.285 4.316 1.897 6.484a.164.164 0 0 0 .316-.087c-.588-2.34-1.348-4.639-2.134-6.918m8.589-4.025c1.23.948 2.478 1.872 3.732 2.79.786.576 1.57 1.155 2.362 1.725a17 17 0 0 0 2.495 1.683.055.055 0 0 0 .066-.085 16 16 0 0 0-2.253-1.754c-.787-.574-1.58-1.14-2.373-1.707-1.33-.953-2.665-1.9-4.019-2.82a1.55 1.55 0 0 0-.152-.732 1.44 1.44 0 0 1-.025-1.014 8.9 8.9 0 0 1 1.061-2.519c.052-.09-.075-.156-.135-.079-.443.574-.915 1.14-1.303 1.753a7.5 7.5 0 0 0-.715 1.701c-.46.483-.316 1.022-.043 1.655a15.5 15.5 0 0 1 .6 2.175 67 67 0 0 1 1.024 4.53c.28 1.487.601 2.963.943 4.437.18.776.357 1.551.555 2.323a7.5 7.5 0 0 0 .64 2.067.055.055 0 0 0 .103-.028 12 12 0 0 0-.665-2.432 45 45 0 0 1-.64-2.547c-.377-1.752-.718-3.518-.967-5.294-.131-.933-.193-1.86-.246-2.8q-.017-.277-.046-.57 1.804 1.364 3.604 2.733c.617.468 1.243.925 1.865 1.386l.932.692a2.3 2.3 0 0 0 .871.54.056.056 0 0 0 .062-.08 2 2 0 0 0-.681-.604l-.939-.682c-.645-.47-1.286-.944-1.936-1.406q-1.893-1.35-3.787-2.695a8.5 8.5 0 0 1-.044-1.914c.023-.16.04-.297.054-.428m7.392-.318c-1.762-1.308-3.604-2.51-5.372-3.81-.053-.04-.122.05-.071.092a32.2 32.2 0 0 0 5.396 3.799.047.047 0 0 0 .047-.081"/><path fill="currentColor" d="M232.36 431.299c-1.36-1.231-2.847-2.33-4.315-3.427-1.505-1.124-3.004-2.272-4.61-3.251-.074-.046-.161.063-.094.123 1.37 1.226 2.863 2.31 4.34 3.402 1.509 1.115 3.02 2.251 4.628 3.22.04.025.088-.034.052-.067m-2.604 5.436a14 14 0 0 0-1.372-.876q-.739-.481-1.457-.995a33 33 0 0 1-2.779-2.233c-.03-.026-.073.017-.044.045a33 33 0 0 0 2.674 2.246q.705.531 1.443 1.017a8 8 0 0 0 1.482.888.055.055 0 0 0 .053-.092m-3.843-.513c-.04-.018-.076.042-.035.06a10 10 0 0 1 3.072 2.273c.025.026.06-.012.038-.039a8.34 8.34 0 0 0-3.075-2.294m2.32 3.045c-.245-.223-.511-.426-.767-.636l-.77-.634c-.027-.022-.066.017-.039.04l.782.642c.254.209.502.429.766.625.021.016.048-.02.028-.037m-1.28 1.029c-.029-.028-.073.016-.044.044.515.506 1.02 1.023 1.56 1.503a.02.02 0 0 0 .027-.027c-.494-.527-1.024-1.019-1.543-1.52m3.35-34.666a140 140 0 0 1-13.043-4.831c-4.233-1.808-8.283-3.946-12.365-6.061a.035.035 0 0 0-.036.06 67.2 67.2 0 0 0 12.257 6.695 75 75 0 0 0 13.146 4.287.078.078 0 0 0 .041-.15m-33.74-9.572a77 77 0 0 0 1.508-3.744c.038-.103-.132-.176-.179-.076a111 111 0 0 1-1.81 3.644c-.896-.294-1.824-.49-2.73-.753a31 31 0 0 1-3.59-1.277 35 35 0 0 1-6.324-3.51c-.01-.006-.02.01-.01.018a36.5 36.5 0 0 0 6.547 3.774q1.45.641 2.946 1.17l-1.668 2.901a57 57 0 0 1-2.854-.872c-.062-.021-.088.077-.027.098q1.388.469 2.749 1.004l-.315.547c-.351.617-.687 1.244-1.024 1.87l-.32.593a.1.1 0 0 0-.033-.092 10.6 10.6 0 0 0-2.639-1.045 97 97 0 0 1-2.838-1.034c-1-.384-1.994-.786-2.974-1.22a25 25 0 0 1-1.272-.6 12 12 0 0 1-1.244-.844c-.785-.536-1.702-.917-2.524-1.4q-1.276-.751-2.478-1.617a26.8 26.8 0 0 1-4.492-4.09c-.01-.011-.026.005-.016.017a25.3 25.3 0 0 0 4.348 4.28 36 36 0 0 0 2.281 1.626 16.5 16.5 0 0 0 2.592 1.538c.495.206 1.01.309 1.505.537.487.224.97.458 1.454.687.91.43 1.83.84 2.755 1.238q1.312.565 2.634 1.104a10.7 10.7 0 0 0 2.86 1.002c.035.003.045-.024.06-.046a6 6 0 0 0-.555 1.331.075.075 0 0 0 .124.072 9 9 0 0 0 1.125-1.831c.33-.63.662-1.26.978-1.897l.3-.613.17.065c.518.212 1.046.4 1.573.59a6 6 0 0 0 1.009.324c-.225.413-.445.83-.67 1.243a12.7 12.7 0 0 0-1.363 2.786.11.11 0 0 0 .183.106 10.3 10.3 0 0 0 1.79-2.658 62 62 0 0 0 1.471-2.809c.325-.654.627-1.318.92-1.985.106.007.21.026.317.027.052.001.053-.067.011-.084-.086-.036-.175-.062-.261-.095M195 397.98c-.209.404-.431.801-.647 1.201a5.7 5.7 0 0 0-1.084-.383c-.533-.165-1.066-.333-1.605-.476l-.122-.034q.727-1.478 1.45-2.958c.093.033.184.07.277.102a15 15 0 0 0 2.669.73zM4.109 142.623c-.02-1.79.049-3.579.116-5.367.001-.02-.031-.024-.034-.005a35 35 0 0 0-.348 5.372 29 29 0 0 0 .417 5.373c.009.048.085.037.084-.011-.052-1.789-.215-3.572-.235-5.362m2.367 2.18q-.075-3.77.11-7.54c.002-.02-.029-.02-.03 0q-.346 3.823-.344 7.664a36 36 0 0 0 .453 7.427c.015.071.12.052.123-.017.083-2.498-.262-5.03-.312-7.534m2.923 10.344c-.064-.738-.065-1.478-.073-2.218-.016-1.44.105-2.876.108-4.314.007-2.873-.148-5.757-.227-8.626a.016.016 0 0 0-.032 0 84 84 0 0 0-.544 8.626c.005 1.395.15 2.794.189 4.19.02.738.065 1.48.046 2.218a3.1 3.1 0 0 0 .214 1.783.117.117 0 0 0 .2 0 2.9 2.9 0 0 0 .119-1.66m2.549 2.167a349 349 0 0 1-.134-3.83q-.12-3.768-.124-7.539a.014.014 0 0 0-.027 0q-.055 3.831.006 7.663c.02 1.236.06 2.471.104 3.706a31 31 0 0 0 .214 3.717c.009.057.093.04.096-.013.061-1.227-.083-2.477-.135-3.704m2.09.017a64 64 0 0 1 .324-8.054c.001-.013-.018-.012-.02 0a59 59 0 0 0-.44 8.176 43 43 0 0 0 .704 7.925c.012.058.109.046.103-.014-.256-2.684-.613-5.331-.671-8.033m2.566 8.261a72 72 0 0 1-.352-3.515q-.265-3.464-.188-6.94a.008.008 0 0 0-.016 0 69 69 0 0 0 .14 7.061q.122 1.701.334 3.394a24 24 0 0 0 .53 3.378c.005.019.036.016.034-.004-.085-1.126-.34-2.253-.482-3.374m2.077.721q-.291-2.516-.347-5.049a.006.006 0 0 0-.011 0 49 49 0 0 0 .3 5.247 29 29 0 0 0 .856 4.995.023.023 0 0 0 .045-.013c-.24-1.733-.641-3.436-.843-5.18m2.856 2.671c-.205-1.13-.421-2.257-.635-3.385-.004-.02-.034-.01-.03.009.188 1.111.374 2.223.571 3.333.196 1.105.342 2.234.615 3.322.006.027.053.023.05-.006-.123-1.097-.373-2.188-.57-3.273m2.253 1.827c-.174-.637-.355-1.272-.533-1.908a.008.008 0 0 0-.015.004c.156.642.307 1.286.467 1.927.158.637.303 1.292.52 1.912a.022.022 0 0 0 .042-.011c-.114-.648-.307-1.29-.48-1.924m1.429.154c-.004-.009-.017 0-.013.008q.363.776.745 1.543c.005.011.022.001.016-.01q-.364-.776-.748-1.54m3.766 4.505c-.003-.018-.036-.014-.034.005a38 38 0 0 0 .572 4.095.031.031 0 0 0 .06-.008 38 38 0 0 0-.598-4.091m3.053 5.667a7 7 0 0 0-.184-1.09c-.14-.785-.234-1.58-.342-2.37-.227-1.666-.457-3.34-.629-5.011-.004-.042-.069-.044-.066 0 .082 1.66.179 3.306.363 4.96.087.777.19 1.552.295 2.327a9 9 0 0 0 .142 1.146c.116.428.26.852.395 1.275a.027.027 0 0 0 .054-.007q-.017-.615-.027-1.23m.443 3.113-.028-.15c-.02-.1-.05-.198-.075-.296q-.075-.296-.147-.592c-.003-.01-.017-.005-.016.004l.093.596q.02.147.044.293.013.075.032.15c.008.038.008.079.049.097a.03.03 0 0 0 .035-.004c.03-.032.02-.059.013-.098m.969-9.975c-.004-.024-.041-.017-.042.006a36.6 36.6 0 0 0 .61 6.48c.002.017.032.013.03-.005-.188-2.155-.253-4.344-.598-6.48m1.787 12.587c-.03-.295-.1-.59-.152-.88q-.085-.481-.21-.955c-.084-.317-.215-.613-.28-.936l-.192-.96c-.012-.06-.1-.034-.09.024l.147.973c.05.33.025.656.057.985q.044.459.12.915a9 9 0 0 0 .172.966c.089.318.522.102.428-.132m2.324 1.747c-.085-.473-.198-.94-.295-1.411a29 29 0 0 1-.465-3.458 38.5 38.5 0 0 0-.583-6.154c-.011-.045-.073-.031-.077.01a27.2 27.2 0 0 0 .566 6.157c.154 1.11.298 2.23.367 3.35.032.52.048 1.04.098 1.559a2.9 2.9 0 0 0 .262 1.26.127.127 0 0 0 .229-.03 2.94 2.94 0 0 0-.102-1.283m2.376 1.279a49 49 0 0 1-.26-3.224 35 35 0 0 0-.455-6.102c-.012-.052-.085-.036-.089.012a36.5 36.5 0 0 0 .455 6.21q.15 1.548.203 3.104a10.3 10.3 0 0 0 .155 2.9c.04.114.23.14.257 0a10.3 10.3 0 0 0-.267-2.9m2.621 2.943q-.151-1.397-.29-2.797c-.185-1.903-.315-3.813-.52-5.715-.002-.012-.02-.013-.02 0 .044 1.945.215 3.89.38 5.827q.124 1.456.269 2.909a12.7 12.7 0 0 0 .348 2.696.055.055 0 0 0 .108-.015 15.4 15.4 0 0 0-.275-2.905m2.008-4.082c0-.01-.016-.01-.016 0 .175 3.713.571 7.408 1.087 11.087.011.084.14.049.128-.035-.536-3.668-.902-7.357-1.199-11.052m2.712 7.07c-.083-.796-.172-1.591-.25-2.388-.002-.015-.025-.015-.024 0 .04.813.086 1.624.157 2.435a16 16 0 0 0 .285 2.344.026.026 0 0 0 .05-.007 22 22 0 0 0-.219-2.384m.858 5.444c-.02-.127-.061-.25-.09-.375-.06-.246-.124-.489-.18-.736a.014.014 0 0 0-.026.004c.016.252.023.503.035.755.007.123.002.248.017.37a2 2 0 0 0 .029.19.4.4 0 0 0 .026.082c.02.039.056.047.078.078a.044.044 0 0 0 .079-.01c.01-.03.04-.049.05-.083a.3.3 0 0 0 .005-.1 2 2 0 0 0-.023-.175m1.949-5.111c-.002-.011-.02-.009-.02.002.216 1.731.396 3.489.741 5.2.005.023.045.018.043-.006-.154-1.739-.48-3.475-.764-5.196m2.353 1.516a.037.037 0 0 0-.072.02c.216.94.402 1.884.648 2.816.006.02.042.017.039-.005a22 22 0 0 0-.615-2.83m2.274-.179a.041.041 0 0 0-.07.041c.113.218.212.444.308.67.096.228.174.462.266.69.011.027.062.028.058-.008a3.3 3.3 0 0 0-.562-1.393m4.564 8.363c-.005-.02-.035-.011-.03.009.334 1.567.65 3.142 1.07 4.689a.018.018 0 0 0 .035-.01c-.294-1.576-.694-3.131-1.075-4.688m4.339 8.951c-.148-.544-.282-1.091-.428-1.635-.273-1.01-.569-2.012-.8-3.033-.477-2.116-.833-4.266-1.137-6.413-.003-.017-.033-.013-.03.005.238 2.127.573 4.235.963 6.34.198 1.07.365 2.149.598 3.213.12.55.265 1.096.406 1.641a3.9 3.9 0 0 0 .522 1.383.089.089 0 0 0 .164-.044 4.2 4.2 0 0 0-.258-1.457m1.049-7.841c-.003-.037-.06-.038-.058 0 .128 1.848.27 3.694.477 5.535.002.022.036.023.035 0-.103-1.85-.271-3.692-.454-5.535m2.358 13.615a10 10 0 0 0-.166-.69c-.117-.443-.252-.88-.385-1.317a56 56 0 0 1-.73-2.695c-.01-.034-.061-.02-.053.014.207.893.411 1.784.574 2.686.079.435.158.869.248 1.301.048.231.099.466.16.693a.9.9 0 0 0 .234.5.075.075 0 0 0 .116-.014.75.75 0 0 0 .002-.477m3.126 2.845q-.276-.918-.526-1.842-.497-1.85-.92-3.72a168 168 0 0 1-1.524-7.496c-.003-.018-.033-.014-.03.004a69 69 0 0 0 1.212 7.463q.413 1.87.9 3.724.244.927.497 1.85a7.3 7.3 0 0 0 .574 1.74.134.134 0 0 0 .247-.066 8 8 0 0 0-.43-1.657m2.661 1.162q-.418-1.476-.752-2.975a76 76 0 0 1-1.173-6.48c-.003-.024-.04-.026-.04 0a42 42 0 0 0 .813 6.345q.344 1.617.788 3.21a10.6 10.6 0 0 0 1.044 2.91c.03.049.122.035.116-.03a16.6 16.6 0 0 0-.795-2.98m3.351 2.582q-.445-1.264-.796-2.559a51 51 0 0 1-1.115-5.234c-.004-.022-.04-.017-.039.005a29.5 29.5 0 0 0 .935 5.29q.35 1.293.8 2.558a13.2 13.2 0 0 0 1.061 2.482.033.033 0 0 0 .06-.026c-.238-.856-.611-1.677-.906-2.515m1.911-1.738a.01.01 0 0 0-.02.006 34 34 0 0 0 1.719 5.02c.007.017.039.004.032-.014-.644-1.646-1.24-3.313-1.731-5.012m8.497-2.659a.04.04 0 0 0-.076.02 32 32 0 0 0 .892 3.248c.01.03.066.028.061-.009a13.4 13.4 0 0 0-.878-3.259m2.428-.297c-.246-.808-.503-1.611-.758-2.416a.033.033 0 0 0-.064.017c.23.829.457 1.658.696 2.483a21 21 0 0 0 .753 2.375c.013.03.055.007.05-.02a21 21 0 0 0-.677-2.44m2.46-1.35-.492-1.839c-.341-1.273-.693-2.543-1.04-3.814a.025.025 0 0 0-.05.013c.321 1.33.64 2.66.967 3.987l.492 1.99a3.06 3.06 0 0 0 .566 1.456.028.028 0 0 0 .046-.027c-.14-.59-.332-1.179-.489-1.766m1.784-2.478c-.172-.615-.318-1.237-.469-1.857a14.6 14.6 0 0 0-1.26-3.36c-.023-.045-.088-.005-.067.04a23.5 23.5 0 0 1 1.269 3.478c.171.591.345 1.184.492 1.782a18 18 0 0 0 .43 1.877.094.094 0 0 0 .18-.05 20 20 0 0 0-.575-1.91m1.071-4.555a.021.021 0 0 0-.041.012 11.4 11.4 0 0 0 .775 2.586c.02.044.078.01.072-.03a11.4 11.4 0 0 0-.806-2.568m32.882-14.581c-.85.21-1.685.506-2.521.768-.84.262-1.683.509-2.537.72-.02.005-.011.034.008.03a19.2 19.2 0 0 0 5.073-1.464c.03-.015.008-.061-.023-.054m2.458-2.21c-2.175.3-4.33.851-6.478 1.304-.008.002-.004.013.003.012q1.626-.303 3.251-.608c1.081-.203 2.172-.385 3.236-.663.03-.008.017-.05-.012-.045m1.006-2.158a9.3 9.3 0 0 0-1.943.32c-.711.164-1.422.335-2.132.505-1.394.334-2.78.69-4.177 1.015-.015.003-.008.025.007.022 1.416-.241 2.838-.475 4.247-.759q1.036-.208 2.066-.44a8.8 8.8 0 0 0 1.95-.594.037.037 0 0 0-.018-.07m.267-2.301c-1.122.175-2.22.543-3.323.813-1.105.27-2.21.542-3.322.785-.03.006-.017.05.012.045 1.154-.16 2.3-.354 3.435-.622a17 17 0 0 0 3.222-.963c.035-.016.008-.062-.024-.058m-.508-2.209c-.733.156-1.439.432-2.162.629-.724.197-1.455.371-2.192.51-.015.003-.012.03.004.027a21 21 0 0 0 2.224-.405 9.3 9.3 0 0 0 2.148-.71c.028-.016.008-.057-.022-.05m-2.917-1.35a.025.025 0 0 0 .014.05 16 16 0 0 1 1.965-.348c.022-.003.024-.035 0-.035a7.6 7.6 0 0 0-1.978.333m-32.162-42.147c-.002-.012-.02-.013-.02 0a63 63 0 0 0 .533 6.389c.006.042.074.031.073-.01a63 63 0 0 0-.586-6.379m2.763-2.637a.033.033 0 0 0-.067 0 50.7 50.7 0 0 0 .565 11.417.045.045 0 0 0 .088-.012c-.296-3.792-.629-7.598-.586-11.405m3.504 13.765c-.079-.56-.14-1.127-.253-1.68a18.7 18.7 0 0 1-.36-3.363c-.052-2.198-.107-4.397-.101-6.595a.031.031 0 0 0-.063 0 48 48 0 0 0 .04 6.717c.091 1.105.14 2.18.128 3.289a16 16 0 0 0 .106 1.7 2.5 2.5 0 0 0 .313 1.267.111.111 0 0 0 .2-.026 2.6 2.6 0 0 0-.01-1.309m3.622 4.187q-.138-.83-.273-1.661a28 28 0 0 1-.38-3.55c-.04-1.13.037-2.248.098-3.375a6.3 6.3 0 0 0-.243-2.846c-.018-.043-.078-.016-.08.022a61 61 0 0 0 .034 6.56c.055 1.08.095 2.164.182 3.242.04.5.102.998.172 1.494a3.8 3.8 0 0 0 .349 1.434c.056.095.232.09.253-.033a3.8 3.8 0 0 0-.112-1.287m3.381 4.007c-.065-.502-.12-1.005-.19-1.505a45 45 0 0 1-.387-3.705c-.066-1.133-.058-2.27-.09-3.403a6.6 6.6 0 0 0-.401-2.757.04.04 0 0 0-.073.02c.087 1.024.004 2.071.06 3.101.06 1.136.178 2.27.27 3.403.092 1.13.143 2.263.224 3.394a9 9 0 0 0 .424 2.972.142.142 0 0 0 .257-.034 5 5 0 0 0-.094-1.486m2.796 2.019a23.4 23.4 0 0 1-.27-3.45c-.012-1.093.065-2.184.05-3.278a3.6 3.6 0 0 0-.515-2.44c-.043-.05-.139.004-.114.067a4.4 4.4 0 0 1 .156 1.439q.022.819.067 1.636c.063 1.093.14 2.184.185 3.278.046 1.083.067 2.171.159 3.252a8.7 8.7 0 0 0 .56 2.826.185.185 0 0 0 .342-.092c-.099-1.079-.45-2.164-.62-3.238m4.075 4.132c-.212-1.116-.416-2.213-.525-3.346-.098-1.012-.143-2.03-.247-3.041-.101-.992-.29-1.952-.462-2.931-.005-.028-.051-.022-.05.006.06 1.02.1 2.027.235 3.042.13.98.318 1.953.448 2.934.145 1.093.215 2.166.252 3.265a6.6 6.6 0 0 0 .414 2.73.077.077 0 0 0 .139-.019 6.4 6.4 0 0 0-.203-2.64m2.904-.72c-.003-.014-.025-.008-.022.007.275 1.85.511 3.71.904 5.538.005.023.045.019.042-.005-.217-1.86-.59-3.698-.924-5.54m-43.357-61.013c0-.01-.015-.01-.016 0a23 23 0 0 0 .174 5.624c.005.03.056.023.054-.008-.116-1.864-.27-3.748-.212-5.616m2.133-1.097c0-.02-.03-.019-.031 0a50.6 50.6 0 0 0 .013 10.721c.004.037.06.039.059 0-.116-3.578-.195-7.141-.041-10.72m2.25 1.352c0-.007-.01-.007-.012 0a57 57 0 0 0-.149 11.831c.004.035.056.036.055 0a107 107 0 0 1 .106-11.83m1.943 3.494c0-.005-.008-.005-.008 0a61.5 61.5 0 0 0-.148 8.083.01.01 0 0 0 .02 0c-.03-2.695-.02-5.392.136-8.083m.453 13.887c-.026-.358-.086-.713-.143-1.068-.125-.777-.193-1.568-.274-2.35-.004-.042-.07-.043-.066 0a18 18 0 0 1 .104 2.292c-.011.376-.043.75-.041 1.126a3.9 3.9 0 0 0 .077 1.128.17.17 0 0 0 .12.12.3.3 0 0 0 .091 0 .17.17 0 0 0 .12-.12 3.4 3.4 0 0 0 .012-1.128m2.321 2.04c-.139-1.15-.205-2.306-.263-3.462-.116-2.311-.186-4.625-.283-6.937a.023.023 0 0 0-.047 0c-.013 2.36.099 4.708.267 7.06.082 1.154.18 2.307.227 3.463.04.98-.21 2.245.225 3.154a.136.136 0 0 0 .246-.032c.25-.995-.252-2.247-.372-3.246m2.029-4.535c-.002-.008-.016-.006-.016.002.017 2.046.11 4.09.196 6.134a.03.03 0 0 0 .058 0 25.4 25.4 0 0 0-.238-6.136m.761 11.154c-.06-.68-.134-1.357-.167-2.04-.003-.067-.108-.068-.105 0 .026.681.01 1.36.009 2.04q0 .51.02 1.02a4.7 4.7 0 0 0 .16.95c.009.034.067.037.072 0a4.7 4.7 0 0 0 .08-.95q-.025-.511-.069-1.02m2.228-1.443c0-.007-.012-.008-.011 0 .136 2.045.209 4.102.5 6.133.003.022.039.016.038-.006-.05-2.049-.322-4.089-.527-6.127m2.749 4.079c-.003-.018-.032-.014-.03.003q.133 1.115.332 2.219c.003.017.033.013.03-.005a38 38 0 0 0-.332-2.218M55.388 60.473a29 29 0 0 0-3.477 11.939c-.002.03.043.029.047 0a34.6 34.6 0 0 1 3.45-11.927c.007-.013-.013-.025-.02-.012m1.481 1.125a38.8 38.8 0 0 0-3.475 13.881c-.002.034.056.044.06.008a57.2 57.2 0 0 1 3.433-13.882c.004-.01-.014-.018-.018-.007m1.838 1.602a42.4 42.4 0 0 0-2.905 8.046c-.175.701-.313 1.41-.483 2.113a15 15 0 0 0-.238 1.945c-.077.718-.176 1.434-.263 2.152a11.6 11.6 0 0 0-.178 2.276c.003.04.068.057.076.01a16 16 0 0 0 .122-1.832 23 23 0 0 1 .259-2.375c.111-.643.327-1.26.437-1.9a37 37 0 0 1 .437-2.224 48 48 0 0 1 2.746-8.206c.003-.007-.007-.013-.01-.006m.56 5.64a66 66 0 0 0-2.067 7.907.037.037 0 0 0 .071.02c.849-2.581 1.367-5.284 2.027-7.919a.016.016 0 0 0-.03-.008m-2.241 10.718c.002-.015-.021-.014-.023 0q-.144 1.168-.242 2.342a8.2 8.2 0 0 0-.018 2.27.047.047 0 0 0 .09 0 13.5 13.5 0 0 0 .07-2.27q.015-1.173.123-2.342m2.857-2.457c.007-.032-.041-.045-.049-.013a37 37 0 0 0-.914 5.42 19.3 19.3 0 0 0 .055 5.49c.009.042.071.03.073-.01.092-1.79-.06-3.584.05-5.377a35 35 0 0 1 .785-5.51m1.169 6.46c.002-.023-.033-.023-.036 0a28.8 28.8 0 0 0 .036 7.918c.003.017.032.013.03-.004a42.4 42.4 0 0 1-.03-7.915m1.227 5.276c-.001-.012-.02-.012-.02 0 .107 1.48.22 2.955.388 4.429.002.017.029.018.028 0-.094-1.48-.242-2.954-.396-4.429m1.53 5.792a.2.2 0 0 1 .057.093.2.2 0 0 1-.02-.108c.018-.058-.09-.016-.037.015m.382 1.013q-.074-.244-.159-.484-.046-.13-.094-.258l-.026-.056.017.058q.046.13.088.26.078.242.144.488.136.511.247 1.03c.004.017.03.01.027-.008a8 8 0 0 0-.244-1.03m-.279-.798a1 1 0 0 0-.046-.122 1 1 0 0 0 .046.122m1.961 4.46-.15-.419c-.004-.011-.023-.006-.019.006l.135.422c.045.141.098.28.148.42.005.013.027.007.023-.007-.045-.141-.086-.283-.137-.422m95.569 11.228a30 30 0 0 0-1.401 4.609.025.025 0 0 0 .049.013c.48-1.532.913-3.078 1.379-4.615.005-.017-.02-.023-.027-.007m4.842-4.141a61 61 0 0 0-5.113 13.67.037.037 0 0 0 .072.02c1.546-4.627 3.137-9.19 5.065-13.676.007-.016-.016-.03-.024-.014m1.988 1.506c-1.078 2.506-2.09 5.05-2.922 7.65-.422 1.317-.887 2.62-1.345 3.926-.468 1.337-1.028 2.675-1.39 4.045a.124.124 0 0 0 .24.066c.482-1.29.81-2.65 1.23-3.962.424-1.317.86-2.633 1.364-3.922 1.006-2.576 1.928-5.185 2.852-7.791.006-.017-.022-.029-.029-.012m2.067 3.925a51.3 51.3 0 0 0-3.01 7.994c-.426 1.358-.813 2.728-1.253 4.08-.232.716-.488 1.421-.69 2.146a4.6 4.6 0 0 0-.344 1.82c.019.122.183.112.24.03a5.4 5.4 0 0 0 .54-1.852c.157-.696.28-1.398.44-2.092.32-1.386.75-2.747 1.199-4.096.897-2.698 2.018-5.32 2.903-8.02a.014.014 0 0 0-.025-.01m2.38 5.735a17.6 17.6 0 0 0-1.69 3.87c-.454 1.45-.964 2.88-1.466 4.312q-.737 2.1-1.528 4.18a35 35 0 0 0-.702 2.046 10 10 0 0 0-.577 2.131.181.181 0 0 0 .335.09 10 10 0 0 0 .611-1.87c.217-.73.433-1.458.625-2.193a54 54 0 0 1 1.286-4.246c.5-1.426 1.022-2.846 1.65-4.222a23 23 0 0 0 1.491-4.083.02.02 0 0 0-.036-.015m1.263 7.313a198 198 0 0 0-2.858 7.76q-.665 1.922-1.353 3.836a32 32 0 0 0-1.42 3.946c-.011.051.062.089.09.037a29 29 0 0 0 1.342-3.725 251 251 0 0 1 1.447-3.938c.98-2.62 1.917-5.248 2.786-7.906.008-.022-.025-.03-.034-.01m1.867 5.21q-1.788 4.334-3.518 8.691c-.567 1.434-1.019 2.897-1.607 4.324q-.472 1.145-.964 2.281a14 14 0 0 0-.843 2.115.124.124 0 0 0 .225.095 33 33 0 0 0 1.574-4.236c.552-1.49 1.226-2.918 1.8-4.399q1.713-4.418 3.348-8.867c.003-.01-.011-.013-.015-.004m.975 5.907a11.7 11.7 0 0 1-.88 2.326q-.523 1.17-1.024 2.35c-.683 1.604-1.331 3.224-2.013 4.829-.004.009.01.017.013.008.758-1.667 1.55-3.319 2.305-4.986.344-.758.684-1.518 1.01-2.284a6.4 6.4 0 0 0 .604-2.24.008.008 0 0 0-.015-.003m-4.421 10.73a31.5 31.5 0 0 0-1.812 4.167 33 33 0 0 1-.927 2.18c-.343.712-.761 1.386-1.152 2.072a.047.047 0 0 0 .073.057 9.7 9.7 0 0 0 2.056-3.939 27.6 27.6 0 0 1 1.765-4.535Zm5.755-5.113c-1.546 3.121-2.924 6.308-4.324 9.496-.682 1.555-1.39 3.098-2.094 4.644-.359.79-.735 1.572-1.143 2.338-.318.596-.959 1.409-.91 2.1.004.066.082.134.146.085.52-.4.684-1.263.907-1.858q.474-1.27 1.028-2.505c.729-1.625 1.453-3.252 2.207-4.865 1.457-3.121 2.915-6.23 4.223-9.418.009-.023-.029-.039-.04-.017m.807 5.72a95 95 0 0 0-2.476 6.009c-.01.027.034.046.046.02a95 95 0 0 0 2.452-6.02c.004-.013-.016-.021-.022-.01m-4.248 10.603-.486 1.079c-.077.17-.158.339-.23.51a4 4 0 0 0-.211.55.014.014 0 0 0 .025.01 4 4 0 0 0 .264-.527c.08-.172.153-.348.23-.522l.465-1.066c.017-.039-.04-.073-.057-.034M146.902 62.96a26 26 0 0 0-1.203 3.827.02.02 0 0 0 .037.01c.376-1.283.752-2.569 1.2-3.828.007-.022-.026-.03-.034-.01m3.753-2.639a68 68 0 0 0-3.34 9.02.03.03 0 0 0 .057.015c1.109-3.008 2.116-6.047 3.308-9.025.005-.014-.02-.024-.025-.01m1.466 1.117a93.6 93.6 0 0 0-4.037 13.52.025.025 0 0 0 .049.014c1.321-4.518 2.54-9.054 4.007-13.53.004-.011-.015-.016-.019-.004m1.766 3.311c-.692 1.734-1.34 3.487-1.879 5.275-.005.017.021.024.027.008.6-1.768 1.205-3.534 1.875-5.276.005-.014-.017-.02-.023-.007m-3.287 10.65a22 22 0 0 0-.705 2.383c-.093.395-.178.793-.246 1.194a5.4 5.4 0 0 0-.124 1.182.031.031 0 0 0 .062.008 11 11 0 0 0 .196-1.247q.086-.582.203-1.159a22 22 0 0 1 .626-2.358c.002-.007-.01-.01-.012-.003m4.18-4.933a91.4 91.4 0 0 0-3.807 13.513c-.005.027.034.038.041.011.617-2.257 1.126-4.543 1.751-6.8q.938-3.382 2.03-6.72c.004-.01-.011-.014-.014-.004m1.762 3.43a75 75 0 0 0-2.668 7.615 38 38 0 0 0-1.683 7.663c-.005.075.106.085.126.017.375-1.247.595-2.537.884-3.806.3-1.311.619-2.617.974-3.914.7-2.552 1.487-5.08 2.39-7.569.005-.014-.017-.02-.023-.006m.742 6.026c-.385 1.15-.771 2.296-1.115 3.46-.358 1.208-.584 2.428-.864 3.654-.268 1.18-.595 2.345-.904 3.515-.154.585-.325 1.165-.475 1.75a3.8 3.8 0 0 0-.234 1.508c.019.118.18.115.235.031a4.5 4.5 0 0 0 .425-1.672c.097-.559.191-1.117.3-1.673.233-1.188.465-2.38.799-3.545s.713-2.31 1.01-3.488c.298-1.173.577-2.352.88-3.524a.03.03 0 0 0-.057-.016m1.459 5.368a42 42 0 0 0-2.21 6.643c-.29 1.15-.55 2.306-.842 3.455-.146.572-.298 1.145-.429 1.72a5.1 5.1 0 0 0-.227 1.687c.014.113.186.202.247.067a13.4 13.4 0 0 0 .552-3.312 32 32 0 0 1 .78-3.472c.63-2.284 1.416-4.525 2.175-6.768.01-.027-.034-.047-.046-.02m.846 5.247a85 85 0 0 0-1.8 6.645q-.372 1.65-.68 3.313a22 22 0 0 0-.508 3.244.07.07 0 0 0 .138.019c.287-1.078.373-2.232.571-3.332q.3-1.665.658-3.32a105 105 0 0 1 1.636-6.565.008.008 0 0 0-.015-.004m.636 6.798q-.458 1.744-.888 3.495a26 26 0 0 0-.675 3.418c-.004.034.048.038.057.008.348-1.125.565-2.294.8-3.446q.353-1.737.74-3.466a.018.018 0 0 0-.034-.01m1.626 3.59c-.092.375-.127.762-.194 1.142-.067.383-.145.764-.214 1.147a.025.025 0 0 0 .05.014 7 7 0 0 0 .291-1.149 4.8 4.8 0 0 0 .098-1.15c-.001-.017-.027-.022-.031-.004m-21.49-94.306a26.66 26.66 0 0 0-7.17 16.086c-.003.059.094.074.104.014a33.1 33.1 0 0 1 7.097-16.07c.017-.02-.012-.05-.03-.03m1.697 1.278a46 46 0 0 0-3.426 5.94 37 37 0 0 0-2.303 6.252.012.012 0 0 0 .023.006 71 71 0 0 1 5.727-12.186c.008-.013-.012-.024-.02-.012m-6.489 14.659a69 69 0 0 0-.949 3.754 41 41 0 0 0-.377 1.894c-.05.291-.089.584-.127.877-.034.255-.12.524.041.744a.113.113 0 0 0 .175.023c.183-.165.17-.397.195-.63q.052-.48.101-.962c.066-.652.138-1.303.23-1.952a34 34 0 0 1 .741-3.74.016.016 0 0 0-.03-.008m6.478-8.451a72 72 0 0 0-3.96 9.967 49 49 0 0 0-2.296 10.479.04.04 0 0 0 .076.01c.76-3.46 1.37-6.92 2.375-10.326a74 74 0 0 1 3.818-10.122c.004-.01-.01-.017-.014-.008m-.028 8.112a82 82 0 0 0-2.928 9.177 46 46 0 0 0-1.665 9.265.051.051 0 0 0 .1.014c.669-3.1 1.05-6.248 1.792-9.338a83 83 0 0 1 2.742-9.107c.01-.026-.031-.037-.041-.011m.042 8.183a52.4 52.4 0 0 0-2.272 8.302 41.3 41.3 0 0 0-.83 8.348.031.031 0 0 0 .062 0c.244-2.863.45-5.705.974-8.536a60 60 0 0 1 2.096-8.106c.006-.02-.024-.027-.03-.008m-.206 9.664a72 72 0 0 0-1.204 9.71c-.001.02.03.019.03 0 .287-3.25.64-6.487 1.208-9.7.003-.023-.03-.032-.034-.01m.236 7.244a.008.008 0 0 0-.016 0c.025 1.703.05 3.405.13 5.107a.012.012 0 0 0 .023 0c-.009-1.704-.074-3.405-.137-5.107m1.193 5.276c-.002-.015-.025-.015-.024 0a22.5 22.5 0 0 0 .58 3.75c.003.014.025.008.022-.006a29 29 0 0 1-.578-3.744m102.971 51.242a23 23 0 0 0-1.714 2.51 15 15 0 0 0-1.327 2.746c-.018.054.06.083.09.038.54-.848.983-1.767 1.476-2.643.496-.88.983-1.766 1.493-2.637.007-.01-.01-.025-.018-.014m5.063-1.139a40 40 0 0 0-6.803 11c-.015.036.046.062.064.027a73.5 73.5 0 0 1 6.766-11.006c.012-.016-.014-.037-.027-.021m1.654 3.523a67.8 67.8 0 0 0-9.141 15.865c-.02.05.062.083.086.036a127.5 127.5 0 0 1 9.088-15.881c.015-.021-.019-.04-.033-.02m-.759 7.831c-2.682 4.315-5.225 8.724-7.51 13.263-.015.03.028.055.044.026 2.457-4.448 4.92-8.89 7.496-13.271a.018.018 0 0 0-.03-.018m-1.146 8.021c-2.563 4.846-5.208 9.648-7.786 14.486a.023.023 0 0 0 .04.023c2.768-4.73 5.308-9.6 7.76-14.5.004-.01-.01-.018-.014-.009m-3.804 12.735a49 49 0 0 0-2.562 5.531c-.007.02.023.027.03.009a80 80 0 0 1 2.562-5.522c.01-.02-.02-.038-.03-.018m-1.435-71.99a20.2 20.2 0 0 0-2.978 4.204.033.033 0 0 0 .057.034c.947-1.425 1.898-2.859 2.952-4.208.016-.021-.012-.051-.03-.03m4.49-1.122a70 70 0 0 0-5.97 8.761.022.022 0 0 0 .037.022c1.88-2.996 3.812-5.95 5.945-8.773.006-.007-.006-.017-.012-.01m1.576 2.101a64.6 64.6 0 0 0-7.26 11.866c-.014.03.028.055.043.026a96 96 0 0 1 7.247-11.874c.014-.019-.017-.036-.03-.018m-.174 4.68a62.2 62.2 0 0 0-7.213 13.13c-.009.023.03.04.04.017a79 79 0 0 1 7.213-13.123c.018-.025-.023-.048-.04-.024m-1.2 6.602a45.4 45.4 0 0 0-4.322 9.078c-.007.022.026.03.034.009a66 66 0 0 1 4.301-9.08.008.008 0 0 0-.013-.007m-2.674 9.002a48 48 0 0 0-1.517 4.601.012.012 0 0 0 .023.006 60 60 0 0 1 1.502-4.604c.001-.005-.006-.007-.008-.003m-.839 6.047a150 150 0 0 0-1.033 3.912.014.014 0 0 0 .026.007q.553-1.946 1.057-3.905a.025.025 0 0 0-.05-.014m7.03-81.145a28 28 0 0 0-8.241 10.494c-.019.043.04.08.064.038a38.6 38.6 0 0 1 8.193-10.514c.011-.01-.005-.026-.017-.017m1.495 1.669a50.6 50.6 0 0 0-10.78 14.77c-.017.037.035.068.054.032a61 61 0 0 1 10.742-14.785.012.012 0 0 0-.016-.016m-.292 4.559a69.3 69.3 0 0 0-11.406 16.774c-.013.029.028.054.044.025a93.3 93.3 0 0 1 11.39-16.77c.016-.02-.01-.047-.028-.028m-.677 5.195a70.5 70.5 0 0 0-11.49 17.963c-.012.029.029.055.044.025 1.6-3.147 3.225-6.264 5.118-9.249a84 84 0 0 1 6.353-8.714c.015-.017-.01-.042-.025-.025m-.91 4.957q-1.934 2.497-3.698 5.118-.88 1.31-1.715 2.649a17.5 17.5 0 0 0-1.563 2.746c-.009.022.025.041.039.023a25 25 0 0 0 1.55-2.526q.838-1.393 1.726-2.756 1.748-2.683 3.68-5.24c.007-.01-.011-.024-.02-.014M245.1 38.947l-1.059 2.11-.52 1.037a7 7 0 0 0-.465 1.029c-.008.026.029.039.043.018a7.5 7.5 0 0 0 .536-1.028q.25-.525.497-1.05l.994-2.1c.009-.019-.018-.035-.027-.016m6.615-6.347a77.8 77.8 0 0 0-7.448 14.701c-.009.024.028.033.038.01a103 103 0 0 1 7.444-14.692c.013-.021-.02-.04-.034-.02m-1.104 7.743c-1.99 3.548-3.921 7.152-5.562 10.876-.008.018.018.034.027.016 1.82-3.646 3.598-7.305 5.555-10.88.007-.013-.013-.025-.02-.012m-3.97 12.821a12.1 12.1 0 0 0-1.295 3.237.02.02 0 0 0 .038.01 19.4 19.4 0 0 1 1.295-3.225c.013-.025-.024-.046-.037-.022"/><path fill="currentColor" d="M459.883 184.495a12.8 12.8 0 0 0-3.218-7.162 16.6 16.6 0 0 0-7.058-4.419c-5.747-1.962-12.161-1.61-18.09-.844a76 76 0 0 0-19.263 5.102 71.77 71.77 0 0 0-32.072 25.443c-2.18 3.191-4.212 6.485-6.289 9.743l-6.375 9.999q-6.41 10.054-12.827 20.105-3.209 5.025-6.422 10.048a96 96 0 0 1-6.277 9.164c-.483.592-1 1.169-1.506 1.754a24 24 0 0 0-2.947 0c-1.574.123-3.133.359-4.697.574-2.82.388-5.655.73-8.455 1.25a13 13 0 0 0-.984-.829c-.629-.462-1.277-.897-1.897-1.37a40 40 0 0 1-3.378-2.872 62 62 0 0 1-6.016-6.87c-.927-1.192-1.834-2.4-2.748-3.603a24 24 0 0 0-3.179-3.703 10.2 10.2 0 0 0-1.878-1.269c1.44-2.085.38-4.892-.685-6.941-1.394-2.682-3.2-5.186-4.832-7.729a24.2 24.2 0 0 0-4.622-5.75 1 1 0 0 0 .18-.114 1.68 1.68 0 0 0 .534-1.27 17 17 0 0 0-.117-2.234l-.79-8.566-1.578-17.074c-.511-5.534-.83-11.133-1.717-16.623a31.5 31.5 0 0 0-1.987-7.596 12.7 12.7 0 0 0-1.018-1.852c.091-.527.233-1.062.321-1.57a20 20 0 0 0 .25-2.307q.126-2.207.203-4.416c.105-2.997.141-5.999.165-8.998a371 371 0 0 0-.266-17.825c-.477-11.863-1.93-23.605-3.242-35.395-.649-5.836-1.177-11.682-1.45-17.549-.262-5.608-.304-11.219-.432-16.83-.255-11.173-.703-22.394-3.114-33.345-2.071-9.402-5.49-21.021-15.135-25.248a14.76 14.76 0 0 0-12.81.408 21.44 21.44 0 0 0-8.941 9.353c-2.384 4.676-3.16 10.003-3.513 15.183-.383 5.604-.487 11.22-.89 16.825a141 141 0 0 0-.189 17.848c.322 5.924.903 11.83 1.303 17.748a317 317 0 0 1 .386 35.658c-.268 5.896-.68 11.792-1.292 17.662a43.4 43.4 0 0 1-2.294 11.059c-.196.248-.393.494-.58.75-.431.59-.8 1.22-1.213 1.82a21 21 0 0 1-2.436 3.138 10.04 10.04 0 0 1-5.33 2.672 11.45 11.45 0 0 1-6.624-.97q-.448-.507-.917-.994c-.04-.042-.083-.078-.124-.12a.6.6 0 0 0-.038-.126c-.633-1.31-.939-2.786-1.547-4.116q-.905-1.978-1.767-3.976-1.737-4.024-3.286-8.125-3.082-8.138-5.448-16.524c-1.64-5.81-2.992-11.689-4.807-17.451-1.795-5.698-3.864-11.305-6.05-16.864-4.46-11.342-9.232-22.566-13.884-33.83q-6.936-16.798-14.03-33.53c-1.985-4.649-4.263-9.299-7.802-12.982A19.13 19.13 0 0 0 148.66.034c-10.726-.755-16.895 11.252-18.073 20.367-.745 5.772.487 11.475 2.067 17.004 1.682 5.887 3.463 11.747 5.199 17.619q5.215 17.646 10.474 35.279c3.527 11.74 7.105 23.466 10.816 35.15 1.794 5.647 3.832 11.259 5.298 17.003a37.6 37.6 0 0 1 1.293 8.63c.044 2.604-.206 5.405-1.617 7.666a6.22 6.22 0 0 1-4.374 3.033 16 16 0 0 1-1.66-.166 18 18 0 0 1-2.973-.74c-.473-.163-.947-.416-1.431-.535a8 8 0 0 1-.92-.29c-.335-.484-.608-1.04-.907-1.546a21 21 0 0 0-1.258-1.877q-1.234-1.66-2.452-3.331a999 999 0 0 0-4.997-6.762c-3.27-4.4-6.553-8.787-9.9-13.13-3.319-4.307-6.683-8.581-10.153-12.769-3.334-4.023-6.82-7.905-10.289-11.81a77 77 0 0 1-8.932-11.661 69 69 0 0 1-3.344-6.782 35.5 35.5 0 0 0-3.811-6.597c-1.506-2.026-3.172-3.924-4.692-5.938-1.464-1.94-2.794-3.976-4.107-6.02-2.613-4.07-5.193-8.23-8.584-11.714-5.777-5.932-15.744-10.085-23.23-4.68a17.23 17.23 0 0 0-6.286 9.533 24.1 24.1 0 0 0 .294 12.889 63 63 0 0 0 6.25 13.758q4.126 7.318 8.286 14.616l16.729 29.507c2.685 4.735 5.312 9.512 8.178 14.142a104 104 0 0 0 9.066 12.425c6.41 7.577 13.625 14.424 20.124 21.922a142 142 0 0 1 4.396 5.312 4 4 0 0 1-.02.449 14.5 14.5 0 0 1-2.597 5.863 29 29 0 0 1-3.923 4.634 21 21 0 0 1-2.353 1.98 13 13 0 0 1-1.264.828 9 9 0 0 1-.416.216c-.189-.029-.38-.052-.567-.085-1.644-.29-3.308-.58-4.928-.99a17 17 0 0 1-2.038-.657l-.093-.035c-.829-.65-1.657-1.298-2.501-1.928q-2.799-2.085-5.56-4.219-5.51-4.262-10.868-8.716-5.402-4.49-10.644-9.17c-3.444-3.074-6.8-6.248-10.311-9.248a95 95 0 0 0-5.484-4.371c-1.783-1.309-3.626-2.533-5.398-3.857a32.5 32.5 0 0 1-4.925-4.459c-1.491-1.684-2.834-3.493-4.265-5.227a116.5 116.5 0 0 0-19.115-18.58c-3.441-2.62-7.292-4.828-11.665-5.293a12.21 12.21 0 0 0-10.678 3.948A15.4 15.4 0 0 0 .02 141.46a28.96 28.96 0 0 0 4.092 12.593 105 105 0 0 0 7.66 11.158c2.795 3.747 5.612 7.484 8.653 11.037 3.152 3.682 6.54 7.155 9.886 10.66l10.104 10.585c6.53 6.842 13.022 13.724 19.652 20.47 6.473 6.583 13.139 12.977 20.236 18.888a73 73 0 0 0 4.705 3.58 16.7 16.7 0 0 0 1.121 3.664c.75 1.805 1.67 3.534 2.48 5.311a76 76 0 0 1 4.17 11.526 81 81 0 0 0 3.563 11.578 23.8 23.8 0 0 0 3.004 5.075 8.37 8.37 0 0 0 3.456 2.823 17.5 17.5 0 0 0 .365 6.276c.555 3.012 1.276 5.989 2.087 8.941 1.614 5.877 3.564 11.653 5.287 17.497 1.694 5.746 2.95 11.554 4.07 17.435 1.091 5.724 2.227 11.488 4.386 16.922a58 58 0 0 0 9.045 14.823c1.841 2.288 3.81 4.465 5.686 6.724a41 41 0 0 1 4.939 7.429c1.362 2.635 2.526 5.366 3.834 8.029a81 81 0 0 0 4.056 7.348 46.9 46.9 0 0 0 11.725 13.048 8.3 8.3 0 0 0 1.098 2.981 48 48 0 0 0 2.114 3.811 48 48 0 0 0 5.326 7.054c1.97 2.165 4.13 4.105 5.129 6.939.517 1.469.85 3 1.221 4.509l1.22 4.95 1.309 5.31a14.7 14.7 0 0 0 1.953 5.231c.157.218.615.257.664-.086a12.7 12.7 0 0 0-.495-4.827l-1.222-4.949c-.778-3.154-1.465-6.348-2.363-9.47a14.9 14.9 0 0 0-1.858-4.231 26.5 26.5 0 0 0-2.894-3.424 66 66 0 0 1-5.572-6.656 61 61 0 0 1-2.783-4.174q-.532-.873-1.06-1.748a27.4 27.4 0 0 0 11.63 4.223 24 24 0 0 0 3.916.08.133.133 0 0 0 0-.265c-10.543-1.04-19.702-8.237-25.613-16.669a94 94 0 0 1-7.923-14.493 54.4 54.4 0 0 0-4.075-7.561 74 74 0 0 0-5.468-6.81 73.5 73.5 0 0 1-9.832-13.732 61.4 61.4 0 0 1-5.24-16.054c-1.17-5.612-2.073-11.274-3.51-16.828-1.483-5.729-3.347-11.348-5.071-17.006a119 119 0 0 1-4.236-17.193 9.1 9.1 0 0 1 .187-4.29 12.3 12.3 0 0 1 2.022-3.455 26.6 26.6 0 0 1 5.796-5.576c1.056-.745 2.178-1.427 3.29-2.086.199-.118.069-.469-.163-.385a18 18 0 0 0-2.247.994q-.507-.164-1.027-.294c.291-.534.588-1.064.882-1.596.581.145 1.16.303 1.741.449-.061.143-.135.278-.194.423-.011.026.034.045.046.02l.21-.428c.131.033.261.072.394.102a.023.023 0 0 0 .012-.046c-.121-.047-.247-.085-.371-.127q.373-.766.751-1.53c.815.193 1.623.418 2.441.595a.016.016 0 0 0 .009-.03 23 23 0 0 0-2.425-.615c.242-.488.495-.97.746-1.453.702.153 1.404.311 2.108.456l-.201.377c-.007.014.013.025.02.012l.207-.384c.479.099.956.204 1.437.29.02.004.028-.025.008-.03-.47-.114-.943-.21-1.416-.313q.442-.81.877-1.625c.004-.007-.001-.012-.005-.017.942.245 1.886.49 2.84.682a.014.014 0 0 0 .007-.027c-1.18-.337-2.384-.594-3.58-.868a.012.012 0 0 0-.007.022l.727.187c-.005.001-.01-.002-.012.004q-.44.816-.873 1.636c-.705-.154-1.412-.294-2.119-.438.177-.34.347-.684.528-1.02a.023.023 0 0 0-.04-.024c-.2.338-.377.685-.568 1.027-.508-.104-1.016-.212-1.524-.315.067-.105.127-.215.196-.32.014-.02-.02-.039-.034-.019a100 100 0 0 0-1.279 1.781c-.334-.06-.665-.134-1-.19-.01-.001-.014.014-.004.016.33.058.657.135.987.199q-.48.687-.935 1.393c-.128-.026-.258-.057-.385-.082q-.678-.136-1.36-.243.733-1.295 1.5-2.57c.015-.023-.02-.043-.037-.021q-.895 1.257-1.725 2.553a35 35 0 0 0-1.224-.164c-.016-.002-.015.022 0 .024.4.05.8.113 1.199.178-.332.52-.639 1.056-.954 1.586q-.266-.047-.531-.091c-.462-.073-.927-.124-1.39-.18.42-.8.824-1.61 1.256-2.405a.016.016 0 0 0-.027-.016c-.453.796-.878 1.608-1.32 2.41q-1.05-.123-2.104-.198.826-1.485 1.68-2.954a.012.012 0 0 0-.02-.012q-.903 1.468-1.765 2.958c-.206-.014-.412-.034-.62-.044-.012-.001-.012.018 0 .02.2.015.397.048.595.068-.303.524-.592 1.057-.888 1.586q-1.066-.04-2.134-.017a.022.022 0 0 0 0 .043 31 31 0 0 1 2.055.115c-.238.428-.484.851-.718 1.282l-.172.32c-.854-.092-1.706-.191-2.561-.271-.02-.002-.02.029 0 .031.832.11 1.66.246 2.489.373q-.537.994-1.06 2a30 30 0 0 0-2.201-.088.023.023 0 0 0 0 .047q1.05.1 2.1.234c-.316.613-.626 1.23-.918 1.852q-.466-.07-.928-.142c-.03-.005-.043.038-.013.045.298.073.598.13.897.197q-.323.688-.617 1.387l-.025-.031a20.7 20.7 0 0 1-2.666-4.226 59.7 59.7 0 0 1-3.531-10.831 81 81 0 0 0-3.896-11.266c-1.479-3.403-3.65-6.641-4.497-10.285a9.8 9.8 0 0 1-.359-3.106 12.8 12.8 0 0 1 .705-2.907 57 57 0 0 0 1.87-5.713.035.035 0 0 0-.067-.019c-.629 1.799-1.694 3.378-2.477 5.106a14.5 14.5 0 0 0-1.352 5.146c-.01.185-.008.37-.005.557-2.943-2.662-5.94-5.263-8.856-7.957q-4.977-4.598-9.785-9.37c-6.484-6.457-12.802-13.073-19.12-19.692-6.608-6.924-13.24-13.826-19.823-20.776-3.212-3.39-6.308-6.871-9.201-10.54a319 319 0 0 1-8.198-10.897 51.8 51.8 0 0 1-6.644-11.438c-1.502-3.896-2.256-8.258-.985-12.325a11 11 0 0 1 7.22-7.539c4.08-1.154 8.351.16 11.89 2.247a64 64 0 0 1 10.185 7.995 117 117 0 0 1 9.2 9.328q2.168 2.464 4.199 5.044a56 56 0 0 0 4.3 5.072c3.122 3.114 6.962 5.367 10.453 8.022 3.61 2.746 6.96 5.816 10.309 8.868q5.054 4.607 10.234 9.071 10.396 8.905 21.386 17.085a78 78 0 0 0 2.696 1.902 12 12 0 0 0 1.428.815 12 12 0 0 1 1.581.788.264.264 0 0 0 .354-.016 2.4 2.4 0 0 1 .405.094c.414.145.817.319 1.224.478a34.4 34.4 0 0 0 5.353 1.557.018.018 0 0 0 .01-.033 40 40 0 0 1-5.805-1.834 7 7 0 0 1-.627-.311 2.6 2.6 0 0 1-.521-.435.3.3 0 0 0-.061-.066q-.029-.023-.056-.047l-.006-.005-.003-.002a9 9 0 0 1-.93-.957 41 41 0 0 0 5.304 1.455 16.9 16.9 0 0 0 5.461.204 6.37 6.37 0 0 0 4.21-2.191c.083-.11-.053-.257-.172-.224-.74.206-1.442.464-2.196.637-.733.17-1.473.345-2.22.442a14 14 0 0 1-2.621.078c.35-.234.69-.487 1.023-.727a25.7 25.7 0 0 0 4.109-3.65 24.3 24.3 0 0 0 3.174-4.516 8.92 8.92 0 0 0 1.474-5.492 10 10 0 0 0-.873-2.993c-.523-1.09-1.249-2.066-1.857-3.106-.036-.061-.125-.008-.095.055a19.4 19.4 0 0 1 1.235 3.353q.13.466.25.941c-5.235-7.367-11.633-13.81-17.717-20.468a136 136 0 0 1-9.424-11.272 139 139 0 0 1-8.296-13.146c-5.472-9.558-10.867-19.16-16.298-28.741l-8.165-14.403c-2.607-4.6-5.34-9.154-7.732-13.873-2.182-4.303-4.06-8.97-4.327-13.842a19.1 19.1 0 0 1 2.618-10.93 12.33 12.33 0 0 1 9.079-6.04c4.253-.46 8.448 1.193 11.886 3.593 3.79 2.646 6.604 6.42 9.134 10.23 2.643 3.977 5.087 8.067 8.072 11.806 1.548 1.94 3.168 3.827 4.54 5.9a45.5 45.5 0 0 1 3.389 6.611 56 56 0 0 0 7.705 12.33c3.058 3.79 6.416 7.325 9.62 10.989 3.527 4.033 6.929 8.175 10.258 12.374 6.705 8.455 13.142 17.12 19.81 25.603q1.225 1.557 2.436 3.124a18 18 0 0 0 1.216 1.463 18 18 0 0 1-4.118-3.741c-.023-.029-.066.008-.05.038a15.5 15.5 0 0 0 4.123 4.824c.434.329.887.632 1.34.935a15 15 0 0 0 1.418.986 14.7 14.7 0 0 0 3.075 1.125 23.9 23.9 0 0 0 7.793.382c2.847-.252 5.708-.411 8.55-.726 3.165-.351 6.295-.797 9.435-1.325.145-.024.11-.256-.034-.253-5.45.13-10.89.378-16.34.578-.957.035-1.917.049-2.876.067a8 8 0 0 0 .868-.587 10 10 0 0 0 3.258-6.402c.875-5.572-.403-11.282-2.004-16.604-1.73-5.745-3.638-11.44-5.427-17.168q-2.742-8.776-5.419-17.571-5.305-17.44-10.445-34.932-2.616-8.834-5.226-17.67c-1.708-5.777-3.59-11.533-5.04-17.38-1.358-5.48-1.845-11.044-.367-16.553a28 28 0 0 1 3.098-7.271 19.7 19.7 0 0 1 4.96-5.842c3.825-2.795 8.876-2.556 13.017-.584 4.537 2.162 7.692 6.17 10.051 10.497a137 137 0 0 1 6.564 15.11c2.256 5.684 4.584 11.338 6.909 16.994 4.646 11.302 9.357 22.578 13.982 33.89a275 275 0 0 1 11.713 33.778 230 230 0 0 0 11.181 33.038q.807 1.858 1.65 3.7c.505 1.099 1.225 2.078 1.817 3.122a21.6 21.6 0 0 1-2.572-2.005 18.2 18.2 0 0 1-2.607-3 33 33 0 0 1-2.233-3.24c-.019-.034-.08-.01-.064.027a31 31 0 0 0 1.414 3.387 29 29 0 0 0 2.086 3.18 15.1 15.1 0 0 0 5.507 4.736 13.4 13.4 0 0 0 6.955 1.243 10.2 10.2 0 0 0 6.238-2.62 9 9 0 0 0 .755-.862c6.812-5.684 7.137-15.923 7.808-24.123a319 319 0 0 0 .935-35.16c-.168-5.814-.518-11.616-.977-17.413-.463-5.857-.978-11.715-1.11-17.591-.132-5.844.361-11.633.725-17.458.34-5.444.229-10.936.973-16.35.667-4.847 2.09-9.596 5.103-13.52 2.549-3.32 6.32-6.188 10.592-6.644 4.689-.5 9.114 1.834 12.243 5.197 3.498 3.76 5.41 8.71 6.87 13.553 3.197 10.603 4.05 21.755 4.438 32.77.394 11.215.401 22.438 1.405 33.622 1.043 11.608 2.658 23.163 3.44 34.793.788 11.711.75 23.423.548 35.151q-.037 2.127-.057 4.253a19 19 0 0 0 .095 2.125l.034.277a13 13 0 0 0-2.52-2.105 23 23 0 0 0-3.524-1.806 73 73 0 0 0-3.657-1.526 20.5 20.5 0 0 0-8.461-1.554.012.012 0 0 0 0 .024 17.2 17.2 0 0 1 7.186 1.903 55 55 0 0 1 6.051 2.872 11.7 11.7 0 0 1 4.485 4.482 23.7 23.7 0 0 1 2.067 6.491 145 145 0 0 1 1.768 15.187l1.44 15.522.805 8.69.415 4.47c.07.748.149 1.492.261 2.236a3.5 3.5 0 0 1 .105.667c-.005.085-.058.17-.067.256l-.002.025a12.5 12.5 0 0 0-6.389-1.643c-1.582-.026-3.169.085-4.748.173q-1.194.067-2.386.142a12.3 12.3 0 0 1-2.554.035c-.034-.005-.05.046-.015.053a21 21 0 0 0 3.65.645c1.34.04 2.679-.021 4.018-.026 2.5-.01 5.178.267 7.267 1.768a19.4 19.4 0 0 1 4.745 5.284 370 370 0 0 1 4.501 7.042 18.6 18.6 0 0 1 1.989 3.825 11.6 11.6 0 0 1 .62 3.645 18.5 18.5 0 0 0-4.733-1.397 59 59 0 0 0-6.653-2.09 68.4 68.4 0 0 0-9.92-1.814c-.015-.002-.019.024-.003.026a75 75 0 0 1 9.866 1.996c1.702.468 3.365 1.036 5.02 1.624q-.516-.068-1.027-.13c-2.067-.245-4.134-.592-6.215-.7-2.086-.109-4.184-.087-6.272-.091a.05.05 0 0 0 0 .101 49 49 0 0 1 5.7.643c1.821.304 3.652.552 5.457.95 1.759.39 3.54.891 5.257 1.435a12 12 0 0 1 4.42 2.231 23.7 23.7 0 0 1 3.132 3.621c.933 1.233 1.862 2.468 2.808 3.69a62 62 0 0 0 5.873 6.74 26.6 26.6 0 0 0 3.957 3.233 15 15 0 0 0 2.048 1.137 32 32 0 0 0-5.023 1.617q.198-.852.366-1.712c.008-.04-.05-.056-.06-.017-.143.59-.28 1.179-.401 1.772-.431.183-.86.37-1.282.576a23 23 0 0 0-1.667.91c.194-.682.341-1.377.47-2.075q.245-1.35.506-2.7c.008-.044-.058-.063-.068-.018q-.316 1.358-.647 2.715a21 21 0 0 0-.426 2.179 35 35 0 0 0-3.053 2.12q.11-.445.214-.89c.202-.841.385-1.688.575-2.532.373-1.66.725-3.323 1.09-4.983a.023.023 0 0 0-.044-.013c-.432 1.642-.877 3.281-1.302 4.925-.208.807-.424 1.612-.621 2.42-.111.458-.232.919-.322 1.384q-.609.476-1.208.964c-2.304 1.881-4.6 3.991-7.391 5.114-.028.01-.017.055.012.045a24.9 24.9 0 0 0 6.618-3.505 43.6 43.6 0 0 1 6.43-4.233 32.7 32.7 0 0 1 8.162-2.356c2.85-.537 5.738-.882 8.61-1.278 1.72-.236 3.464-.409 5.166-.746a25 25 0 0 0 2.213-.563c-.24.321-.472.649-.68.99a16.3 16.3 0 0 0-1.759 5.058 47 47 0 0 0-1.09 11.16 28.3 28.3 0 0 0 .697 5.452.137.137 0 0 0 .268-.036 66 66 0 0 1 .245-11.074 41 41 0 0 1 1.05-5.425 12.35 12.35 0 0 1 2.155-4.742c.662-.822 1.41-1.562 2.145-2.316a.17.17 0 0 0 .091-.093 24 24 0 0 0 1.208-1.315 53 53 0 0 0 3.267-4.409c2.076-3.074 4.032-6.232 6.031-9.356q12.424-19.42 24.815-38.86c1.966-3.08 3.909-6.185 6.112-9.104a59.7 59.7 0 0 1 7.042-7.717 72.8 72.8 0 0 1 15.813-11.136 74.7 74.7 0 0 1 18.031-6.634 60.4 60.4 0 0 1 18.343-1.64c5.12.44 10.855 2.169 13.641 6.855a11.35 11.35 0 0 1 1.37 7.085 13.3 13.3 0 0 1-2.783 6.553c-.345.452-.753.846-1.119 1.276a7 7 0 0 0-.27.348 7.4 7.4 0 0 1-2.786.8 12.2 12.2 0 0 1-4.595-.759 4.4 4.4 0 0 0-1.985-.268 2.97 2.97 0 0 0-1.755 1.143 55.5 55.5 0 0 0-5.47 7.867c-1.623 2.77-3.19 5.594-4.9 8.31-.792 1.258-1.793 2.82-1.693 4.377a2.85 2.85 0 0 0 .85 1.845c.686 1.322 2.162 1.549 3.537 1.24a11.3 11.3 0 0 1-1.512 2.457 18.5 18.5 0 0 1-3.33 2.87 15.6 15.6 0 0 0-3.22 3.104 41 41 0 0 0-2.502 3.92c-3.046 5.192-5.677 10.613-8.513 15.918a93.6 93.6 0 0 1-9.832 15.294 41.1 41.1 0 0 0-9.359 15.996c-1.372 3.549-2.76 7.092-4.116 10.646a111 111 0 0 0-1.512 4.262c1.044-4.626 1.975-9.293 2.566-13.987.008-.064-.09-.07-.108-.015-1.585 4.957-2.837 10.01-4.213 15.028q-2.066 7.531-4.185 15.047c-.703 2.485-1.397 4.973-2.114 7.454a33.6 33.6 0 0 1-2.163 6.37 8.4 8.4 0 0 1-1.949 2.501 20 20 0 0 1-2.793 1.86l-.09.057a18 18 0 0 1-1.895-.784 34 34 0 0 1-2.503-1.087 34 34 0 0 1-4.22-2.788 23 23 0 0 0-2.1-1.179 11.3 11.3 0 0 1-2.263-1.714c-1.254-1.173-2.416-2.441-3.577-3.704-.017-.02-.043.008-.027.027 1.21 1.426 2.432 2.835 3.747 4.166 1.27 1.287 2.39 2.778 4.01 3.632 1.633.86 3.44 1.367 5.126 2.109.806.354 1.607.726 2.417 1.07a6 6 0 0 0 1.095.375c-1.945 1.207-3.736 2.623-5.6 3.948a42.7 42.7 0 0 1-6.71 3.936 33 33 0 0 1-3.678 1.458c-1.244.403-2.512.628-3.786.913a.196.196 0 0 0 .052.384 27.8 27.8 0 0 0 6.947-1.089l.028-.008q-.779.676-1.528 1.383c-2.923 2.771-5.63 5.77-8.395 8.695-5.564 5.887-11.038 11.86-16.694 17.66a208 208 0 0 1-17.374 16.16 111 111 0 0 1-18.625 12.41 89.4 89.4 0 0 1-20.375 7.982c-.9.215-1.806.403-2.71.598-.195.042-.156.371.048.353a63.3 63.3 0 0 0 21.039-5.77 92 92 0 0 0 11.658-6.553c-.372.554-.741 1.11-1.118 1.662-1.036 1.515-2.088 3.013-3.234 4.447a58.3 58.3 0 0 1-7.755 7.85 38 38 0 0 1-5.098 3.59c-.143.086-.051.335.117.278a23.3 23.3 0 0 0 3.972-1.795c1.743 2.356 3.547 4.67 5.359 6.973 1.692 2.15 3.368 4.33 5.158 6.404q.363 8.265 1.283 16.493c.228 2.029.413 4.086.843 6.084.426 1.98 1 3.948 1.587 5.884a.18.18 0 0 0 .353-.048c-.043-1.782-.146-3.56-.169-5.342a52 52 0 0 0-.527-5.358q-.627-5.366-1.021-10.756c-.532-7.14-.755-14.31-.71-21.47.014-2.004.026-4.01.026-6.014a37 37 0 0 0-.206-4.535c.49-.732.965-1.472 1.415-2.217a19 19 0 0 0 1.863-3.572q2.615-1.806 5.132-3.741a183.5 183.5 0 0 0 17.708-15.81c5.716-5.72 11.208-11.662 16.738-17.561 2.893-3.086 5.834-6.142 8.647-9.302a48 48 0 0 1 6.711-6.564 21 21 0 0 0 2.333-1.245c2.106-1.325 4.015-2.931 6.077-4.32 1.943-1.307 4.183-2.308 5.703-4.15a16.6 16.6 0 0 0 2.81-5.983 471 471 0 0 0 2.177-7.578c1.242-4.434 2.339-8.903 3.408-13.38 1.322-2.742 2.656-5.472 3.84-8.28 1.32-3.13 2.576-6.29 3.856-9.438 1.238-3.043 2.38-6.156 3.894-9.076a43.3 43.3 0 0 1 5.283-7.51 85 85 0 0 0 5.515-7.36c1.667-2.534 3.192-5.159 4.646-7.82 2.922-5.346 5.551-10.847 8.529-16.162 1.649-2.943 3.275-5.938 5.889-8.147a20.4 20.4 0 0 0 3.504-3.361 8.3 8.3 0 0 0 1.467-3.529 5 5 0 0 0 .57-.31 13.4 13.4 0 0 0 2.697-2.506q1.531-1.726 3.06-3.454c3.702-4.179 7.67-8.27 10.586-13.062a18 18 0 0 0 1.98-3.954 6.16 6.16 0 0 0 1.952-2.174 12.2 12.2 0 0 0 1.381-2.306 14.35 14.35 0 0 0 1.275-7.598m-344.736 79.623c.506.112 1.013.218 1.519.33-.266.477-.531.957-.775 1.446l-.138-.031c-.499-.107-1.002-.191-1.503-.285q.433-.739.897-1.46m-.914 1.488c.503.1 1.007.19 1.507.304l.129.032c-.25.503-.482 1.017-.706 1.535a17 17 0 0 0-1.734-.448q.394-.717.804-1.423m-6.796 7.738c-.184.168-.37.332-.55.506a9.3 9.3 0 0 0-1.549-.355q.47-.949.944-1.896l1.456.246.344.062q-.343.71-.645 1.437m.378-1.778c-.473-.07-.947-.13-1.42-.192l.004-.009c.268-.535.558-1.058.83-1.59.125.018.252.027.376.047.475.075.947.172 1.42.262q-.414.76-.801 1.54-.207-.028-.41-.058m1.414.25a6 6 0 0 0-.566-.119q.387-.77.78-1.536c.132.027.267.046.4.074.371.08.759.195 1.148.286a31 31 0 0 0-1.763 1.295m4.176-2.75c-.56.297-1.102.631-1.639.972q.332-.592.657-1.188c.327.072.654.148.982.215m-2.082-2.394q.74.126 1.475.287c.085.019.168.043.253.063-.334.52-.658 1.045-.96 1.583a31 31 0 0 0-1.644-.329c.29-.536.576-1.074.876-1.604m-.953 1.746c.547.11 1.094.219 1.639.34q-.394.717-.734 1.46c-.472-.142-.976-.229-1.43-.318-.083-.016-.166-.024-.249-.04l.178-.347c.193-.368.398-.73.596-1.095m-2.233-.38c.523.076 1.047.149 1.567.241.11.02.216.047.325.068-.21.355-.434.701-.636 1.062l-.21.385c-.512-.09-1.024-.184-1.541-.245-.094-.012-.189-.012-.283-.022q.385-.746.778-1.488m-2.173-.253c.694.07 1.39.142 2.08.24q-.41.743-.817 1.491a34 34 0 0 0-2.12-.15c.285-.527.566-1.057.857-1.58m-1.61 2.969c.22-.417.45-.828.673-1.242q1.037.094 2.068.245c-.287.534-.591 1.057-.873 1.594-.157-.02-.314-.045-.472-.064-.526-.063-1.055-.11-1.583-.167.064-.122.123-.245.187-.366m-.258.507c.541.084 1.085.153 1.625.244l.388.065c-.328.629-.646 1.263-.964 1.897q-.513-.072-1.016-.126c-.35-.038-.699-.06-1.048-.088q.501-1 1.015-1.992m-1.118 2.196c.371.05.744.095 1.114.153.298.047.6.104.9.159-.09.18-.185.36-.275.54-.214.431-.438.865-.652 1.304q-.042-.003-.082-.01l-1.032-.153-.924-.142c.316-.617.64-1.23.95-1.85m-1.734 3.373c.252-.466.485-.942.727-1.413.324.07.645.15.97.213q.492.095.987.173l.042.008a12 12 0 0 0-.575 1.395c-.011.035.039.053.057.024a14 14 0 0 0 .749-1.374 1.54 1.54 0 0 0 .685.037.057.057 0 0 0 .014-.103 1.4 1.4 0 0 0-.593-.15c.229-.48.449-.965.679-1.436q.098-.2.2-.402a18 18 0 0 0 1.515.224 16.5 16.5 0 0 0-3.111 4.04 8 8 0 0 0-.451 1.035c-.612-.77-1.257-1.51-1.895-2.27Zm202.73 125.637c.26.372.553.73.822 1.078.469.606.938 1.211 1.417 1.81.471.59.947 1.169 1.395 1.767q-.045 2.018-.048 4.037c-1.773-2.35-3.583-4.671-5.475-6.926a35 35 0 0 0 1.89-1.766m-1.926 1.799a57.6 57.6 0 0 0 5.507 7.286c0 1.217.018 2.433.042 3.649-1.064-1.387-2.217-2.714-3.326-4.051q-2.165-2.61-4.415-5.145 1.132-.818 2.192-1.739m.943 10.336c-1.868-2.348-3.752-4.686-5.693-6.973a27 27 0 0 0 2.48-1.57q1.995 2.623 4.079 5.175c1.232 1.508 2.434 3.073 3.746 4.524l.002.21a245 245 0 0 0 .163 4.753c-1.528-2.087-3.17-4.096-4.777-6.119m4.654-9.438c-.017.442-.013.885-.025 1.327-.33-.414-.681-.807-.985-1.179q-.725-.888-1.464-1.763c-.337-.4-.68-.839-1.051-1.233a40 40 0 0 0 2.208-2.44 7 7 0 0 0 .417.732q.356.582.725 1.154c.096.15.2.296.299.445-.054.986-.087 1.973-.124 2.957m.317-5.4a40 40 0 0 0-.15 1.737l-.02-.033c-.24-.385-.491-.764-.74-1.144a5.5 5.5 0 0 0-.514-.703q.898-1.102 1.727-2.252a58 58 0 0 0-.303 2.395m145.486-201.523q-.861 1.44-1.85 2.796c-1.334 1.832-2.8 3.57-4.303 5.265q-2.416 2.727-4.847 5.441c-1.623 1.823-3.182 3.742-4.91 5.466a5.64 5.64 0 0 1-2.743 1.703 4.5 4.5 0 0 1-2.427-.214 3.7 3.7 0 0 1-.17-2.527 9 9 0 0 1 .907-1.993c.37-.665.712-1.345 1.08-2.01a86 86 0 0 1 4.841-7.811c.86-1.222 1.77-2.407 2.649-3.616a31 31 0 0 1 2.715-3.45c.565-.582 1.166-.471 1.87-.209a14.4 14.4 0 0 0 2.092.69 10.1 10.1 0 0 0 4.39-.022 7 7 0 0 0 1.22-.426c-.169.307-.334.616-.514.917"/><path fill="currentColor" d="M122.125 262.2c-.027-.006-.039.034-.012.04a10 10 0 0 0 2.554.285.02.02 0 0 0 0-.04 17 17 0 0 1-2.542-.286m5.995-4.959c-.036-.006-.052.05-.015.057 2.082.4 4.161.823 6.254 1.164.022.003.032-.03.01-.034-2.074-.443-4.164-.803-6.248-1.186m10.457-.315c-3.442-.725-6.91-1.279-10.333-2.101a.012.012 0 0 0-.006.022 75 75 0 0 0 10.332 2.133c.03.003.037-.048.007-.054m-1.391-2.633-4.213-.767c-.027-.005-.039.036-.012.041l4.292.798c1.374.256 2.75.564 4.136.745.015.002.019-.023.004-.027-1.385-.33-2.807-.535-4.207-.79m-3.325-3.043c-.012-.003-.017.016-.005.018 3.514.652 7.035 1.288 10.577 1.774.022.003.032-.03.01-.034-3.519-.637-7.054-1.18-10.582-1.759m3.83-1.912a.023.023 0 0 0-.012.045 39 39 0 0 0 5.361 1.064c.018.002.022-.027.004-.03-1.789-.333-3.582-.659-5.353-1.079m9.768 1.635a.53.53 0 0 0-.29-.095 6 6 0 0 0-.335-.042q-.326-.034-.65-.061-.678-.061-1.352-.145c-.028-.003-.035.045-.007.05q.657.12 1.31.263l.64.138q.16.033.323.059a.6.6 0 0 0 .314.01c.066-.029.114-.12.047-.177m-3.39-2.518c-.012 0-.012.019 0 .02 2.255.213 4.51.468 6.771.594.018.001.017-.025 0-.027-2.248-.267-4.514-.406-6.77-.587m6.06-1.842a71 71 0 0 1-2.736-.239c-.013-.001-.017.021-.004.023.892.138 1.787.26 2.686.338a19 19 0 0 0 2.803.103.02.02 0 0 0 0-.039c-.91-.104-1.835-.12-2.749-.186m2.366-1.614a.01.01 0 0 0 0 .02c.638.003 1.277.013 1.915.002a.012.012 0 0 0 0-.024c-.638-.011-1.277 0-1.915.002m6.384-2.151-.765.134c-.01.001-.005.017.004.015l.763-.142c.005 0 .003-.008-.002-.007m-44.039-34.237c-.777-.243-1.589-.375-2.378-.579a38 38 0 0 1-2.351-.683c-.027-.01-.037.031-.012.04.78.296 1.568.562 2.371.783a12 12 0 0 0 2.364.49c.03.001.033-.042.006-.05m-2.553.713-1.151-.183c-.037-.006-.053.05-.016.057l1.17.203c.373.065.758.134 1.136.164.015.002.018-.023.003-.026-.372-.095-.763-.155-1.142-.215m32.171 146.669c.21-.66.424-1.318.628-1.98.006-.02-.024-.027-.03-.009-.227.639-.445 1.28-.666 1.919a153 153 0 0 1-1.936-2.04c.111-.345.215-.691.329-1.035.003-.01-.012-.013-.015-.004-.114.34-.217.683-.328 1.024-1.038-1.11-2.057-2.236-3.02-3.423a66 66 0 0 1-3.745-5.122l.39-1.183c.01-.03-.035-.041-.045-.013l-.396 1.121a69 69 0 0 1-1.578-2.49.02.02 0 0 0-.034.02 69 69 0 0 0 1.588 2.539q-.867 2.441-1.724 4.886-1.044-1.582-1.968-3.24a486 486 0 0 1 2.031-6.026c.005-.015-.017-.02-.023-.006a160 160 0 0 0-2.18 5.728 53 53 0 0 1-1.442-2.828q.69-2.137 1.383-4.273c.003-.01-.012-.014-.015-.005l-1.44 4.128c-.085-.179-.175-.354-.257-.534-.009-.018-.035-.002-.027.016.084.193.178.38.264.572-.324.928-.654 1.855-.972 2.786-.25.73-.51 1.46-.769 2.192-.538-.983-1.059-1.976-1.58-2.968q.24-.75.483-1.5 1.153-3.528 2.365-7.037c.005-.014-.017-.02-.022-.006q-1.305 3.48-2.502 7c-.15.442-.29.888-.437 1.331-.156-.297-.32-.592-.474-.89-.022-.043-.085-.005-.064.037.163.324.336.644.501.967-.223.675-.45 1.348-.665 2.025-.24.753-.502 1.513-.726 2.28a53 53 0 0 1-1.4-2.684c.562-1.555 1.008-3.173 1.496-4.73.699-2.231 1.364-4.47 2.016-6.716a.018.018 0 0 0-.034-.009c-.703 2.188-1.421 4.37-2.135 6.555-.49 1.494-1.051 3-1.52 4.52-.247-.515-.498-1.027-.725-1.55-.153-.35-.278-.712-.422-1.066.535-1.413.965-2.887 1.418-4.307q.982-3.081 1.851-6.195a.012.012 0 0 0-.023-.007q-.953 3.03-1.966 6.043c-.455 1.358-.977 2.72-1.427 4.096q-.763-1.918-1.368-3.892c.642-1.448 1.081-3.018 1.583-4.515.554-1.654 1.097-3.313 1.645-4.97.007-.02-.026-.03-.034-.009-.574 1.616-1.152 3.23-1.722 4.848-.52 1.476-1.13 2.974-1.52 4.496-.065-.215-.142-.427-.203-.643a.025.025 0 0 0-.05.013c.067.254.15.502.22.755-.021.085-.05.17-.07.255-.005.026.034.046.047.019q.032-.072.06-.144a55 55 0 0 0 1.315 4.076 26 26 0 0 0-.47 1.641c-.007.029.037.05.05.021.2-.424.382-.86.555-1.301.35.93.718 1.853 1.121 2.762a26 26 0 0 0-.426 1.62c-.007.034.045.061.061.025.192-.425.362-.863.528-1.303.316.698.638 1.394.986 2.078.13.255.278.5.413.752-.07.268-.136.536-.189.807a.033.033 0 0 0 .064.017c.086-.203.161-.411.237-.62.28.518.55 1.041.85 1.548a13 13 0 0 0 .813 1.191l-.027.097c-.008.033.043.058.057.024l.022-.054c.268.354.545.703.814 1.066q.468.632.938 1.259c-.07.304-.154.607-.213.913a.059.059 0 0 0 .113.031c.096-.236.177-.48.268-.718a65 65 0 0 0 2.054 2.636c-.087.31-.184.617-.262.929-.007.028.037.05.05.02.116-.265.216-.538.326-.807l.09.115a36.6 36.6 0 0 0 4.545 4.681c.055.046.132-.027.08-.08-1.603-1.595-3.178-3.185-4.655-4.867.43-1.072.822-2.163 1.187-3.264a39 39 0 0 0 2.203 2.841c-.319.982-.629 1.966-.921 2.954-.012.04.046.054.06.017.35-.925.683-1.856 1.01-2.79.078.089.146.185.225.273a29 29 0 0 0 1.976 2.012c.083.076.173.165.26.25-.11.359-.232.714-.34 1.074-.008.03.036.04.046.012.12-.344.227-.692.345-1.037a5.2 5.2 0 0 0 1.618 1.232.057.057 0 0 0 .064-.083 4.8 4.8 0 0 0-.92-.81c-.232-.192-.453-.394-.678-.593.471-1.386.933-2.776 1.375-4.172.719.79 1.457 1.562 2.235 2.287-.088.307-.184.612-.269.92a.008.008 0 0 0 .015.005c.087-.305.18-.608.268-.912a31 31 0 0 0 1.74 1.523c.016.014.04-.009.024-.025q-.866-.834-1.71-1.677.675-2.334 1.418-4.647a46 46 0 0 0 1.947 1.994 127 127 0 0 0-1.52 4.635c-.01.034.042.048.054.015.548-1.517 1.05-3.047 1.54-4.582.39.37.777.745 1.182 1.096.02.017.046-.01.028-.027zm-15.09-9.305c.308-.93.605-1.865.907-2.798.446.973.915 1.935 1.423 2.875-.24.663-.487 1.323-.716 1.988-.313.908-.635 1.826-.949 2.747-.488-.822-.948-1.662-1.41-2.5.247-.773.493-1.546.746-2.312m-2.394 6.015c-.482-.821-1-1.62-1.472-2.448l-.028-.052c.262-.784.484-1.585.732-2.366q.316-.988.637-1.975c.515 1.008 1.028 2.016 1.561 3.014-.474 1.342-.929 2.693-1.3 4.062-.045-.078-.084-.158-.13-.235m1.821 3.006c-.15-.208-.311-.405-.456-.619-.44-.648-.783-1.335-1.158-2.011.52-1.278.963-2.59 1.387-3.908.457.848.911 1.698 1.397 2.53a44 44 0 0 0-1.17 4.008m2.24 2.816q-1.079-1.24-2.062-2.575c.467-1.237.879-2.5 1.267-3.772q.705 1.186 1.471 2.335c.136.203.286.395.426.596-.4 1.13-.773 2.268-1.101 3.416m1.18-3.636c-.17-.242-.352-.476-.516-.723a58 58 0 0 1-1.393-2.204c.318-1.047.632-2.095.97-3.127.193-.589.399-1.173.594-1.76q.916 1.67 1.957 3.266c-.176.503-.357 1.004-.531 1.507-.352 1.012-.72 2.025-1.081 3.041m2.414 3.13a40 40 0 0 1-2.203-2.833c.348-1.057.686-2.116 1.038-3.164.166-.497.327-.997.493-1.494.46.695.934 1.382 1.431 2.055.244.33.508.652.761.979a226 226 0 0 0-1.52 4.456m2.616 2.695c-.11-.098-.224-.19-.332-.29a29 29 0 0 1-1.837-1.866c-.102-.113-.19-.237-.29-.351a220 220 0 0 0 1.492-4.48 51 51 0 0 0 2.314 2.772c-.466 1.4-.91 2.806-1.347 4.215m3.717-2.018q-1.138-1.136-2.221-2.315.616-1.951 1.228-3.903c.006-.02-.024-.028-.03-.009q-.638 1.913-1.279 3.825a52 52 0 0 1-2.33-2.73c.517-1.597 1.029-3.197 1.55-4.79.01-.032-.038-.045-.049-.014-.536 1.548-1.084 3.096-1.627 4.645-.278-.351-.564-.692-.831-1.055-.474-.642-.927-1.3-1.37-1.964q.83-2.494 1.648-4.992a67 67 0 0 0 3.56 4.949 65 65 0 0 0 3.17 3.705q-.75 2.311-1.419 4.648m6.817-5.312a35.1 35.1 0 0 1-7.825-8.859.03.03 0 0 0-.05.03 29.1 29.1 0 0 0 7.851 8.86c.018.013.04-.016.024-.03m-2.653-7.44c-.007-.007-.018.004-.01.01 1.005.87 2.008 1.742 3.026 2.597.011.01.028-.006.016-.016-1.002-.874-2.018-1.731-3.031-2.591m3.401-1.734c-.015-.013-.038.01-.022.022a19.4 19.4 0 0 0 2.177 1.662c.013.009.025-.012.012-.02a24 24 0 0 1-2.167-1.664m15.583 59.475a49.4 49.4 0 0 1-10.674-10.243c-.013-.018-.043-.001-.03.017a38.3 38.3 0 0 0 10.678 10.27c.029.017.052-.025.026-.044m7.665 1.278a36.64 36.64 0 0 1-14.89-11.906c-.01-.014-.033 0-.023.014a32.6 32.6 0 0 0 14.885 11.96c.038.015.067-.05.028-.068m5.338-.709a48.5 48.5 0 0 1-18.708-14.386c-.01-.014-.035.005-.024.02a42.84 42.84 0 0 0 18.708 14.423c.033.012.056-.043.024-.057m7.646-.479a55.3 55.3 0 0 1-21.36-13.926c-.008-.009-.022.005-.013.014a49.55 49.55 0 0 0 21.358 13.965c.034.01.047-.04.015-.053m-8.114-12.878c-.009-.009-.023.005-.014.013a23.7 23.7 0 0 0 8.166 5.232c.01.004.018-.013.008-.017a29 29 0 0 1-8.16-5.228m21.82.487c-.882-.32-1.813-.49-2.716-.742a43 43 0 0 1-2.506-.791 35.6 35.6 0 0 1-5.143-2.23.023.023 0 0 0-.024.041 36 36 0 0 0 5.002 2.432 30 30 0 0 0 2.676.885 12 12 0 0 0 2.692.547c.086.004.092-.116.019-.142m-.137-4.8a11 11 0 0 0-1.342-.283q-.677-.13-1.345-.303a16 16 0 0 1-2.672-.961c-.027-.013-.05.026-.024.04a18 18 0 0 0 2.604 1.068 7.7 7.7 0 0 0 2.768.516.04.04 0 0 0 .01-.077m-.117-3.601a9 9 0 0 0-1.69-.796l-1.768-.73c-.022-.008-.038.03-.016.04l1.728.826a9 9 0 0 0 1.72.72.033.033 0 0 0 .026-.06m39.041 10.259c-4.116-1.941-8.262-3.816-12.367-5.782-.018-.008-.034.018-.016.027 4.081 2.012 8.18 3.995 12.363 5.789.023.01.043-.023.02-.034m9.607-.705a63 63 0 0 0-7.967-3.988c-2.646-1.19-5.326-2.295-8.012-3.39-.035-.014-.06.046-.026.06 2.73 1.167 5.422 2.421 8.103 3.693 2.611 1.238 5.183 2.634 7.872 3.696.043.017.066-.049.03-.071m11.113 4.704c-2.227-1.19-4.603-2.13-6.91-3.152-.037-.017-.069.036-.032.053 2.29 1.068 4.562 2.242 6.925 3.139.023.008.038-.028.017-.04m9.932-.825c-3.64-1.755-7.42-3.222-11.12-4.848q-5.563-2.444-11.024-5.105a437 437 0 0 1-6.252-3.094c-.036-.018-.067.036-.031.054a331 331 0 0 0 22.107 10.581c2.074.897 4.14 1.784 6.28 2.505.054.018.092-.068.04-.093m12.618-.741a13 13 0 0 0-2.732-1.27c-.949-.395-1.896-.796-2.848-1.184a287 287 0 0 1-5.996-2.506c-3.85-1.67-7.672-3.408-11.519-5.088-2.193-.958-4.41-1.86-6.607-2.808-.015-.007-.03.016-.013.023 3.826 1.817 7.647 3.631 11.527 5.333 3.845 1.686 7.717 3.307 11.548 5.025q1.631.733 3.273 1.44a15 15 0 0 0 3.268 1.27.13.13 0 0 0 .099-.235m11.366-3.568a19 19 0 0 0-3.11-1.384q-1.678-.658-3.365-1.292c-2.216-.836-4.439-1.657-6.643-2.52a44 44 0 0 1-1.753-.727c-.532-.236-1.017-.555-1.556-.775-1.077-.44-2.164-.856-3.24-1.297q-3.406-1.399-6.745-2.95a80 80 0 0 1-7.176-3.731.016.016 0 0 0-.015.027 90 90 0 0 0 12.724 6.635q1.58.678 3.171 1.326c1.121.459 2.265.749 3.402 1.156 2.263.811 4.501 1.722 6.732 2.618q1.835.736 3.66 1.494a30 30 0 0 0 3.87 1.524.057.057 0 0 0 .044-.104m8.144-3.367a11.2 11.2 0 0 0-2.908-1.442c-1.008-.436-2.014-.88-3.033-1.292-2.187-.883-4.37-1.765-6.534-2.703-4.268-1.85-8.491-3.8-12.758-5.653a395 395 0 0 0-7.028-2.947c-.01-.004-.017.013-.007.018 8.4 3.897 17.036 7.276 25.389 11.275 1.16.556 2.333 1.08 3.51 1.6a12.3 12.3 0 0 0 3.314 1.278.079.079 0 0 0 .055-.133m2.669-7.743a159 159 0 0 1-7.097-2.404 106 106 0 0 1-3.504-1.33c-1.165-.47-2.284-1.035-3.445-1.514a215 215 0 0 1-7.05-3.075q-3.841-1.749-7.637-3.6c-.013-.007-.025.012-.011.02 4.316 2.363 8.752 4.473 13.283 6.394 2.204.935 4.464 1.703 6.7 2.556q3.449 1.316 6.94 2.515c1.33.454 2.661.91 4 1.34a10.6 10.6 0 0 1 3.66 1.647c.026.023.063-.013.038-.038-1.507-1.553-3.887-1.894-5.877-2.511m12.312-2.716a42 42 0 0 0-6.13-2.583c-2.166-.847-4.365-1.606-6.544-2.419-4.293-1.601-8.495-3.424-12.763-5.088-2.34-.912-4.685-1.805-7.079-2.566-.017-.005-.024.02-.007.026 4.219 1.463 8.335 3.239 12.507 4.831 4.287 1.637 8.497 3.437 12.73 5.205 1.153.48 2.317.935 3.478 1.398a25 25 0 0 0 3.757 1.317.067.067 0 0 0 .051-.121m6.757-5.85c-1.805-.795-3.72-1.359-5.59-1.983q-2.864-.954-5.703-1.975a72 72 0 0 1-2.824-1.072c-.983-.4-1.902-.891-2.89-1.277q-2.81-1.098-5.613-2.211c-2.238-.886-4.478-1.767-6.691-2.713-.039-.017-.073.04-.034.057 3.675 1.679 7.347 3.348 11.096 4.857 1.906.767 3.863 1.34 5.792 2.054 1.927.714 3.847 1.446 5.777 2.151a53 53 0 0 0 6.656 2.169c.033.007.059-.042.024-.057m-21.553-14.76c-.014-.005-.02.017-.006.023a152 152 0 0 0 14.773 5.082.01.01 0 0 0 .005-.019q-7.453-2.324-14.772-5.086m27.179 8.494a10.5 10.5 0 0 0-1.87-.815 40 40 0 0 0-1.998-.59c-1.368-.36-2.764-.624-4.15-.91-.107-.023-.154.141-.045.165 1.361.299 2.682.708 4.012 1.12.639.197 1.278.395 1.914.602a17 17 0 0 0 2.088.542c.067.013.114-.078.049-.114m5.59-6.168a1.95 1.95 0 0 0-.988-.41 52 52 0 0 0-1.575-.384c-.977-.219-1.951-.416-2.92-.669-1.97-.515-3.936-1.045-5.904-1.568q-5.906-1.57-11.831-3.058a.016.016 0 0 0-.008.03q5.879 1.663 11.78 3.237c1.928.516 3.857 1.025 5.782 1.546.966.262 1.911.567 2.864.87.515.163 1.037.306 1.556.453a2.2 2.2 0 0 0 1.187.172.132.132 0 0 0 .057-.22m4.54-4.538a20.6 20.6 0 0 0-4.596-1.275c-1.621-.375-3.217-.863-4.817-1.32a439 439 0 0 0-9.637-2.628.023.023 0 0 0-.013.045 439 439 0 0 0 9.612 2.721c1.566.422 3.146.814 4.689 1.314a21.3 21.3 0 0 0 4.714 1.317.094.094 0 0 0 .047-.174m7.169-4.472a7.7 7.7 0 0 0-2.24-.715c-.827-.207-1.656-.384-2.477-.614q-2.456-.69-4.928-1.317-4.949-1.259-9.961-2.218c-.015-.002-.021.02-.006.023q4.966 1.148 9.904 2.426 2.41.623 4.81 1.289c.823.229 1.62.507 2.43.78a8.5 8.5 0 0 0 2.384.655.167.167 0 0 0 .084-.31m5.399-5.002a5.2 5.2 0 0 0-1.72-.425 24 24 0 0 1-2.028-.36c-1.35-.296-2.7-.595-4.057-.863-2.603-.513-5.231-.855-7.868-1.143-.021-.002-.027.035-.005.039 2.651.402 5.289.891 7.93 1.354 1.284.226 2.566.46 3.84.733a17 17 0 0 1 2.004.532 5.8 5.8 0 0 0 1.823.435.163.163 0 0 0 .081-.302m3.898-4.015a2.4 2.4 0 0 0-.99-.3l-.986-.195a80 80 0 0 0-2.228-.408c-1.463-.25-2.926-.495-4.387-.758-.017-.003-.024.023-.007.027 1.467.338 2.93.696 4.394 1.046.705.168 1.412.331 2.121.481l1.147.243a2.1 2.1 0 0 0 .908.082.12.12 0 0 0 .028-.218m4.538-5.603a5 5 0 0 0-1.865-.415 80 80 0 0 0-2.018-.258c-1.387-.156-2.774-.293-4.159-.472-.043-.005-.053.07-.01.077 1.332.219 2.656.476 3.984.717-.13-.01-.261-.025-.393-.036-.052-.004-.052.078 0 .082.369.029.737.05 1.105.075.485.082.97.165 1.455.24a4.9 4.9 0 0 0 1.883.133.079.079 0 0 0 .018-.143m-24.303-52.331a55 55 0 0 1-.131-3.755 55.5 55.5 0 0 1 .495-7.836c.003-.021-.03-.032-.034-.009a46.4 46.4 0 0 0-.87 7.724 47 47 0 0 0 .273 5.928 4.6 4.6 0 0 0 .332 1.616.107.107 0 0 0 .193-.025 5.8 5.8 0 0 0-.086-1.712 53 53 0 0 1-.172-1.931m-3.29 1.257a30 30 0 0 1-.076-3.272c.078-2.209.298-4.446.579-6.637.002-.02-.031-.024-.035-.005a37.5 37.5 0 0 0-.586 6.642c-.003 1.13-.009 2.262.018 3.393a11.7 11.7 0 0 0 .2 3.296.133.133 0 0 0 .26-.035 6 6 0 0 0-.139-1.486 22 22 0 0 1-.22-1.896m-3.757-1.122a33 33 0 0 1 .535-5.572c.002-.012-.016-.018-.019-.005a33.3 33.3 0 0 0-.697 5.471 18.2 18.2 0 0 0 .333 5.514.07.07 0 0 0 .138-.019c-.004-.915-.145-1.828-.21-2.74q-.093-1.322-.08-2.649m-3.019-.872a17.8 17.8 0 0 0-.35 6.141c.004.031.053.023.054-.007a39 39 0 0 1 .326-6.125c.003-.02-.026-.029-.03-.009m-13.653-22.851q-.968 3.363-1.92 6.73a57 57 0 0 0-1.742 6.778.057.057 0 0 0 .109.03 57 57 0 0 0 1.878-6.74q.863-3.392 1.701-6.79a.014.014 0 0 0-.026-.008m-2.881-2.699c-.73 2.642-1.368 5.31-2.115 7.947-.368 1.3-.751 2.594-1.16 3.88a28 28 0 0 0-1.206 3.996c-.01.067.086.125.121.051a22.7 22.7 0 0 0 1.152-3.773q.547-2.013 1.11-4.023c.744-2.684 1.521-5.349 2.136-8.067a.02.02 0 0 0-.038-.01m-2.72-4.191c-1.144 2.825-2.11 5.709-3.086 8.595q-.71 2.103-1.46 4.192-.396 1.104-.808 2.203a6.8 6.8 0 0 0-.652 2.004c-.002.057.069.065.098.027a6.4 6.4 0 0 0 .706-1.862q.362-1.113.743-2.22.74-2.159 1.523-4.303c1.043-2.86 2.091-5.711 2.963-8.628.005-.018-.02-.024-.027-.008m-2.841-2.897a49.7 49.7 0 0 0-3.189 7.512c-.421 1.273-.788 2.562-1.166 3.848a16 16 0 0 1-.607 1.764c-.274.637-.728 1.15-1.017 1.766-.014.028.016.07.048.048a5.6 5.6 0 0 0 1.486-2.735c.44-1.312.79-2.651 1.24-3.961.954-2.777 2.066-5.528 3.26-8.21.016-.036-.035-.068-.054-.032m-4.388-1.554q-1.193 2.582-2.19 5.247a41 41 0 0 0-1.803 5.591.023.023 0 0 0 .045.013c.742-1.77 1.297-3.638 1.955-5.441q.988-2.708 2.018-5.4c.005-.014-.019-.024-.025-.01m-4.763-.526a17.5 17.5 0 0 1-.995 2.955c-.012.03.035.047.05.021a8.2 8.2 0 0 0 .965-2.97c.001-.013-.017-.018-.02-.006m6.155-7.189a45.5 45.5 0 0 0-13.294-3.945c-.03-.005-.042.04-.012.045a69 69 0 0 1 6.715 1.731c2.207.69 4.359 1.534 6.553 2.258a.05.05 0 0 0 .038-.09m-2.151-2.861a26.6 26.6 0 0 0-5.788-1.949.014.014 0 0 0-.007.026c1.96.554 3.863 1.276 5.776 1.97a.026.026 0 0 0 .02-.047m-4.384-3.893c-.015-.002-.014.022 0 .023a5.5 5.5 0 0 1 2.54.921c.012.009.023-.011.011-.02a5.2 5.2 0 0 0-2.55-.924m-1.342-14.133a26 26 0 0 0-5.718-2.57 55 55 0 0 0-6.219-1.772c-.039-.009-.055.05-.016.06a50 50 0 0 1 6.074 1.884c1.979.755 3.86 1.747 5.84 2.49.057.022.086-.062.04-.092m-.756-4.743a20 20 0 0 0-3.252-1.47 81 81 0 0 0-3.524-1.326q-3.558-1.241-7.208-2.193a.014.014 0 0 0-.007.027q3.566 1.039 7.04 2.356c1.14.433 2.274.878 3.398 1.35a35 35 0 0 0 3.475 1.442.102.102 0 0 0 .078-.186m-7.209-7.677a39 39 0 0 0-6.156-2.224.02.02 0 0 0-.01.037c2.087.628 4.134 1.4 6.15 2.227.022.009.038-.03.016-.04m6.739 2.749c-.109-.22-.404-.317-.615-.401a6 6 0 0 0-.772-.251c-.254-.065-.515-.091-.768-.158-.262-.069-.517-.156-.774-.243-.016-.006-.028.021-.012.028.24.105.477.208.708.329.238.125.454.285.69.412a6 6 0 0 0 .717.33 1.14 1.14 0 0 0 .753.132.124.124 0 0 0 .073-.178m-1.098-4.523c-.2-.198-.053-.175-.352-.314-.18-.084-.373-.148-.56-.218-.504-.188-1.016-.34-1.529-.501-.958-.302-1.889-.693-2.834-1.032a61 61 0 0 0-5.995-1.74.014.014 0 0 0-.007.026c1.947.637 3.873 1.334 5.816 1.986a32 32 0 0 1 3 1.084c.431.195.86.394 1.297.577.206.087.415.185.627.256.303.1.203.035.479.017a.083.083 0 0 0 .058-.14m.956-4.361a5.8 5.8 0 0 0-2.615-1.16c-1.001-.295-1.976-.694-2.948-1.076a24 24 0 0 0-5.911-1.789.016.016 0 0 0-.008.03 55 55 0 0 0 5.774 1.88 19 19 0 0 1 3.002 1.172 6.6 6.6 0 0 0 2.655 1.066.073.073 0 0 0 .05-.123m-1.354-5.447c-.478-.677-1.751-.744-2.488-.945a26 26 0 0 1-2.815-.986 36 36 0 0 0-5.933-1.73.025.025 0 0 0-.013.048c1.941.584 3.853 1.241 5.812 1.766a15 15 0 0 1 2.98 1.098c.654.337 1.588 1.11 2.365.976a.155.155 0 0 0 .092-.227m-6.254-6.563a11.6 11.6 0 0 0-4.238-1.252c-.028-.002-.029.037-.006.046.68.272 1.393.482 2.091.702s1.41.41 2.123.576c.041.01.07-.05.03-.072m4.367 1.45a1 1 0 0 0-.055-.134.4.4 0 0 0-.13-.109 2 2 0 0 0-.32-.134c-.196-.075-.398-.118-.598-.177a12 12 0 0 1-1.22-.426c-.085-.036-.123.104-.038.139a11 11 0 0 1 1.162.572c.182.102.355.212.547.297a2 2 0 0 0 .3.125.36.36 0 0 0 .174.015 1 1 0 0 0 .132-.053.08.08 0 0 0 .046-.115m-.995-4.404c-.182-.337-.803-.452-1.139-.55q-.666-.194-1.345-.346-1.406-.318-2.829-.562c-.017-.003-.024.023-.007.027a26 26 0 0 1 2.717.782q.657.232 1.31.474c.332.123.887.43 1.246.293a.08.08 0 0 0 .047-.118m-.441-4.561a8 8 0 0 0-1.925-.605 27 27 0 0 0-2.054-.368c-.012-.002-.018.016-.006.018a36 36 0 0 1 1.977.507 17 17 0 0 0 1.976.523c.042.006.077-.053.032-.075m-.396-3.527a5.07 5.07 0 0 0-3.067-.842c-.024 0-.03.04-.006.043a28 28 0 0 1 3.031.87c.038.01.077-.043.042-.07m-1.019-4.375a6.3 6.3 0 0 0-1.907-.928c-.017-.005-.023.02-.007.026a14 14 0 0 1 1.889.946c.029.017.05-.025.025-.044m1.074-10.648a13.4 13.4 0 0 0-2.173-1.678q-1.238-.837-2.537-1.58a39.5 39.5 0 0 0-5.175-2.438c-.022-.009-.03.025-.01.034a42 42 0 0 1 5.165 2.613q1.212.716 2.371 1.515c.767.529 1.496 1.14 2.3 1.61a.05.05 0 0 0 .059-.076m-1.198-3.514a7.3 7.3 0 0 0-1.52-1.295 25 25 0 0 0-1.807-1.181 34 34 0 0 0-3.802-1.924c-.018-.008-.034.018-.016.027a32 32 0 0 1 3.643 2.07q.851.558 1.678 1.15a14 14 0 0 0 1.77 1.223.045.045 0 0 0 .054-.07m-1.548-4.75q-.459-.337-.94-.642-.964-.612-1.982-1.129c-.018-.009-.034.017-.016.027a21 21 0 0 1 1.899 1.205c.3.214.596.438.89.661a4 4 0 0 0 .88.627c.037.014.07-.035.05-.066a2.9 2.9 0 0 0-.781-.683m.913-4.189a5.3 5.3 0 0 0-1.341-.838q-.72-.331-1.47-.594c-.021-.007-.036.027-.015.036q.712.326 1.393.716a14 14 0 0 0 1.388.738c.036.016.08-.027.045-.058m95.172 69.475a23 23 0 0 1-1.052-3.431 15.5 15.5 0 0 0-.83-3.41c-.05-.104-.188-.04-.197.054a8.5 8.5 0 0 0 .722 3.44 62 62 0 0 0 1.333 3.578 33 33 0 0 0 3.474 6.418c.012.018.042.001.03-.018a36.5 36.5 0 0 1-3.48-6.631m2.982-1.725a18.7 18.7 0 0 1-1.859-7.02c-.045-.572-.075-1.147-.106-1.721a2.47 2.47 0 0 0-.233-1.311.03.03 0 0 0-.05 0 2.26 2.26 0 0 0-.165 1.419 15 15 0 0 0 .2 1.662 30 30 0 0 0 .908 3.66 29 29 0 0 0 1.189 3.255 13.2 13.2 0 0 0 1.727 3.123c.018.021.048-.006.037-.029-.503-1.036-1.154-1.993-1.648-3.038m1.808-6.881a16.5 16.5 0 0 1-.698-2.176 14 14 0 0 1-.365-2.304 10.3 10.3 0 0 0-.207-2.159c-.04-.137-.27-.156-.298 0a5.5 5.5 0 0 0 .188 2.124c.172.767.351 1.533.562 2.29.211.76.436 1.515.702 2.257a8 8 0 0 0 .902 2.029c.026.035.089.016.075-.032-.203-.697-.596-1.352-.861-2.029m.752-9.032c-.003-.016-.032-.013-.03.005a20.5 20.5 0 0 0 .668 3.701c.01.032.067.028.062-.008-.166-1.24-.442-2.474-.7-3.697m3.038-4.346a.04.04 0 0 0-.077-.01 4.13 4.13 0 0 0 .328 2.585c.013.028.06.008.05-.02a6.7 6.7 0 0 1-.301-2.555m36.167 27.308a23.6 23.6 0 0 1-3.586-4.454.031.031 0 0 0-.054.031 14.5 14.5 0 0 0 3.604 4.459c.024.02.06-.013.035-.036m2.947.115a45 45 0 0 1-4.098-4.328c-.026-.032-.084.012-.058.045a21 21 0 0 0 4.127 4.32c.022.016.047-.019.029-.037m2.684-.275a19.3 19.3 0 0 1-2.944-2.526c-.02-.022-.053.01-.033.033a13.3 13.3 0 0 0 2.955 2.53c.024.015.044-.021.022-.037m22.34-49.349a59 59 0 0 0-13.056-2.182c-.037-.003-.037.055 0 .058 4.408.432 8.688 1.407 13.035 2.199a.04.04 0 0 0 .02-.075m4.828 3.051a19 19 0 0 0-3.096-1.068q-1.734-.512-3.502-.895a52.5 52.5 0 0 0-6.813-.994c-.01-.001-.01.014 0 .015a52.5 52.5 0 0 1 6.897 1.11q1.591.368 3.16.824c1.114.326 2.207.784 3.334 1.054.027.007.046-.033.02-.046m-5.169.076a49 49 0 0 0-5.556-1.374c-.015-.003-.021.02-.006.023a55 55 0 0 1 5.444 1.4c1.796.561 3.505 1.316 5.273 1.945a.018.018 0 0 0 .014-.032 31.6 31.6 0 0 0-5.17-1.962m5.288 4.149a17.6 17.6 0 0 0-3.756-1.889 25.6 25.6 0 0 0-4.14-1.245.02.02 0 0 0-.01.037 41 41 0 0 1 3.963 1.348c1.336.537 2.597 1.223 3.914 1.799a.03.03 0 0 0 .03-.05m-2.101.391a10 10 0 0 0-1.861-1.017c-.025-.01-.047.025-.022.037a12 12 0 0 1 1.736 1.062c.563.408 1.067.88 1.606 1.315.024.02.068-.007.046-.035a6.8 6.8 0 0 0-1.505-1.362m-.465 1.537c-.03-.026-.073.015-.044.044.698.712 1.316 1.498 2.001 2.22a.03.03 0 0 0 .046-.035 9 9 0 0 0-2.003-2.23m1.076 2.897a.018.018 0 0 0-.03.017c.29.515.573 1.035.903 1.527a.014.014 0 0 0 .023-.014c-.27-.527-.588-1.026-.896-1.53m-111.18 75.076a34.5 34.5 0 0 0-.445 7.416.022.022 0 0 0 .043 0 62 62 0 0 1 .43-7.413c.001-.015-.025-.019-.028-.004M210.192 374.588c-.008-.01-.022.004-.014.014a103.5 103.5 0 0 0 9.82 10.225c.025.022.06-.013.036-.036-3.403-3.285-6.731-6.637-9.842-10.203m8.246 1.908q-2.987-3.323-5.648-6.917c-.013-.018-.044-.001-.03.018q2.554 3.537 5.42 6.833a61 61 0 0 0 6.266 6.376c.023.02.054-.01.033-.033-2.025-2.086-4.097-4.113-6.041-6.277m12.955 5.364a67.3 67.3 0 0 1-12.065-12.301c-.014-.02-.048-.001-.033.02a55.5 55.5 0 0 0 12.077 12.308c.016.012.037-.015.021-.027m3.459-2.824a57.4 57.4 0 0 1-6.247-6.134c-.013-.016-.035.006-.022.022a46.7 46.7 0 0 0 6.244 6.137c.017.014.042-.01.025-.025m-13.286 12.899a61.4 61.4 0 0 1-14.702-13.762c-.02-.026-.063-.001-.044.025a56.1 56.1 0 0 0 14.726 13.771c.021.014.04-.02.02-.034m85.514 32.952c-1.063-1.22-2.173-2.4-3.254-3.603-.537-.596-.957-1.265-1.49-1.85-.56-.613-1.113-1.232-1.67-1.849q-1.584-1.755-3.176-3.505a48 48 0 0 0-3.436-3.597c-.006-.006-.018.002-.012.01a47 47 0 0 0 3.06 3.625c1.07 1.214 2.152 2.419 3.232 3.625.526.587 1.057 1.17 1.578 1.762.552.627 1.193 1.136 1.756 1.761 1.11 1.234 2.193 2.495 3.321 3.712.057.061.146-.03.092-.091m-3.746 2.698c-.316-.33-.637-.658-.949-.994a16 16 0 0 1-1.052-1.349 19.5 19.5 0 0 0-1.818-1.785c-2.63-2.668-5.225-5.37-7.851-8.042-.013-.012-.032.007-.02.02 2.56 2.737 5.149 5.448 7.708 8.185a18 18 0 0 0 1.71 1.892 22 22 0 0 1 2.164 2.004c1.316 1.366 2.525 2.924 3.97 4.155a.025.025 0 0 0 .035-.036c-1.145-1.463-2.616-2.707-3.897-4.05m2.601 9.045c-1.133-1.363-2.468-2.588-3.707-3.854-1.247-1.275-2.483-2.56-3.724-3.84-2.482-2.562-4.999-5.086-7.602-7.526a.016.016 0 0 0-.022.022c2.507 2.537 5.044 5.04 7.562 7.566a204 204 0 0 1 3.733 3.83c1.22 1.29 2.37 2.683 3.663 3.899a.068.068 0 0 0 .097-.097m-4.898-.076q-2.974-2.705-5.886-5.48c-.006-.004-.014.004-.009.01q2.88 2.806 5.84 5.525c1.97 1.806 3.924 3.673 6.026 5.325.016.012.037-.008.022-.022-1.938-1.846-4.012-3.557-5.993-5.358m-.208 3.526c-.007-.006-.018.005-.01.011 1.408 1.314 2.798 2.65 4.247 3.92.011.01.028-.007.017-.017-1.383-1.34-2.83-2.617-4.254-3.914m-43.298-28.157c-4.264-2.237-8.563-4.406-12.826-6.643-.018-.01-.034.017-.016.027 4.195 2.371 8.44 4.637 12.814 6.663.032.015.06-.03.028-.047m4.865.095c-4.217-2.569-8.731-4.696-13.128-6.935-.016-.008-.03.015-.014.024 4.325 2.374 8.624 4.906 13.12 6.948a.022.022 0 0 0 .022-.037m3.83-.882a52 52 0 0 0-4.933-2.144q-2.566-1.066-5.143-2.102c-.014-.006-.025.019-.01.025q2.538 1.13 5.09 2.224a52 52 0 0 0 4.977 2.044.026.026 0 0 0 .02-.047m3.866-.726a35.8 35.8 0 0 0-8.334-2.966.008.008 0 0 0-.004.015q2.138.58 4.218 1.346c1.383.513 2.733 1.102 4.105 1.641.02.008.034-.025.015-.035m-1.685-2.496a.012.012 0 0 0-.007.023 54 54 0 0 1 5.649 1.96c.014.006.024-.018.01-.024a36 36 0 0 0-5.652-1.959m8.704 1.603a21.4 21.4 0 0 0-3.595-1.233.014.014 0 0 0-.007.027c1.212.36 2.407.79 3.589 1.239.018.007.031-.024.013-.033m2.791-.858c-.012-.004-.018.015-.005.018l2.05.477c.012.003.017-.016.005-.018Zm-28.428 4.02c-4-2.716-8.216-5.126-12.296-7.722-.042-.027-.08.04-.039.068a133 133 0 0 0 12.306 7.705.03.03 0 0 0 .03-.05m-6.823-1.186c-2.201-1.506-4.424-2.982-6.596-4.53-.023-.016-.043.02-.022.037a75 75 0 0 0 6.588 4.544c.033.02.06-.03.03-.05m-26.052-6.35c-4.644-2.485-9.47-4.66-14.249-6.871-.011-.005-.021.011-.01.017 4.697 2.377 9.395 4.812 14.224 6.915.04.017.076-.039.035-.06m-2.922 1.247c-3.628-1.85-7.326-3.557-10.932-5.455-.025-.012-.046.024-.022.038a112 112 0 0 0 10.93 5.475c.033.013.056-.042.025-.058m-10.324-2.849c-.018-.009-.033.018-.015.027q3.498 1.75 7.007 3.476c.014.006.025-.014.012-.02q-3.493-1.76-7.004-3.483m-35.871 10.603c-.02-.017-.047.01-.028.027a59 59 0 0 0 6.4 5.22c.016.012.037-.014.021-.027-2.145-1.726-4.325-3.4-6.393-5.22m10.376 4.917c-2.732-1.947-5.523-3.8-8.204-5.82-.014-.01-.033.014-.02.025a84 84 0 0 0 8.206 5.825c.02.012.036-.017.018-.03m-6.2-7.044c-.01-.007-.02.01-.01.017 2.879 2.183 5.726 4.432 8.69 6.5.016.011.037-.015.021-.028-2.825-2.255-5.79-4.347-8.701-6.489m5.489 1.919c-.017-.011-.032.016-.016.027 2.054 1.381 4.08 2.827 6.189 4.122.013.008.024-.012.012-.02-2.007-1.45-4.12-2.764-6.185-4.129m4.119.844a.008.008 0 0 0-.008.014c1.653.947 3.298 1.91 4.978 2.808a.012.012 0 0 0 .012-.02c-1.64-.97-3.316-1.88-4.983-2.802m4.586 1.041c-.01-.003-.014.012-.004.016.98.38 1.957.766 2.943 1.13.012.004.017-.015.005-.02-.976-.388-1.961-.754-2.944-1.126m-22.628-139.687a44 44 0 0 0-4.044 10.998.037.037 0 0 0 .072.02 81 81 0 0 1 4.002-11c.01-.02-.02-.039-.03-.018m-2.454-1.164a79.3 79.3 0 0 0-6.983 19.048.031.031 0 0 0 .06.017 99.8 99.8 0 0 1 6.967-19.04c.014-.029-.03-.055-.044-.025m-4.091 2.427c-2.64 6.121-5.118 12.34-7.14 18.694-.008.022.026.03.033.01 2.255-6.281 4.543-12.54 7.135-18.692.007-.016-.021-.028-.028-.012m-4.134 1.949a146.6 146.6 0 0 0-7.141 19.918.02.02 0 0 0 .037.01c2.158-6.727 4.387-13.4 7.13-19.917.005-.014-.02-.025-.026-.01m-2.903 1.293a136 136 0 0 0-8.113 20.909.016.016 0 0 0 .03.008 188 188 0 0 1 8.1-20.907c.006-.012-.011-.021-.017-.01m-5.158 4.702c-1.998 5.166-3.913 10.39-5.484 15.704-.007.024.03.034.038.01 1.77-5.256 3.51-10.516 5.468-15.708.006-.014-.017-.02-.022-.006m-4.587 5.58c-1.357 4.31-2.774 8.61-4.006 12.958a.016.016 0 0 0 .03.008c1.431-4.286 2.683-8.637 3.99-12.962.004-.01-.011-.014-.014-.004m-4.138 5.641c-.714 2.428-1.458 4.849-2.09 7.3a.014.014 0 0 0 .027.007c.765-2.412 1.42-4.86 2.104-7.295a.022.022 0 0 0-.041-.012m-3.429 4.728c-.38 1.19-.798 2.376-1.12 3.584a.016.016 0 0 0 .031.008c.42-1.177.749-2.39 1.112-3.586.004-.014-.018-.02-.023-.006m-2.261 3.082a.248.248 0 0 0 0 .496.248.248 0 0 0 0-.496m21.885-135.586a75 75 0 0 0-17.994 13.344q-2.274 2.268-4.317 4.75c-.007.008.004.02.01.012a83.7 83.7 0 0 1 16.916-14.814 92 92 0 0 1 5.403-3.261c.02-.011.002-.041-.018-.03m-3.259-1.55a62.2 62.2 0 0 0-14.001 11.41c-.012.013.007.032.019.019a70.3 70.3 0 0 1 14.001-11.395.02.02 0 0 0-.02-.034m124.316 228.923c-1.38-.766-2.95-1.254-4.399-1.88-.73-.316-1.473-.617-2.18-.984a18 18 0 0 0-1.979-.998 94 94 0 0 1-8.896-4.054c-.031-.015-.059.031-.028.048 2.851 1.516 5.778 2.897 8.619 4.427a14 14 0 0 0 2.05.827c.751.265 1.477.6 2.211.908a34 34 0 0 0 4.562 1.802.053.053 0 0 0 .04-.096m.167-6.91c-2.104-.841-4.22-1.641-6.286-2.573-.01-.005-.02.011-.01.017a46.4 46.4 0 0 0 6.286 2.59c.022.007.03-.026.01-.034m11.88 4.573c-2.581-1.476-5.599-2.071-8.383-3.065-.026-.009-.037.032-.011.042 2.758 1.053 5.438 2.56 8.355 3.116a.051.051 0 0 0 .04-.093m8.526-3.356a21.4 21.4 0 0 0-3.973-1.579c-.737-.23-1.47-.408-2.193-.683q-1.077-.41-2.15-.828-4.236-1.65-8.431-3.407c-.018-.007-.032.025-.014.033q4.066 1.766 8.19 3.392a110 110 0 0 1 4.338 1.798 19 19 0 0 0 4.179 1.402c.074.014.128-.087.054-.128m3.84-5.776a12.7 12.7 0 0 0-2.941-1.4c-1.111-.447-2.214-.915-3.32-1.374-2.172-.901-4.358-1.77-6.54-2.648-.038-.015-.067.051-.028.068 2.148.959 4.291 1.926 6.45 2.86 1.06.46 2.126.911 3.182 1.381a13.3 13.3 0 0 0 3.164 1.192.043.043 0 0 0 .033-.079m5.078 1.696a4.4 4.4 0 0 0-1.654-.655 24 24 0 0 1-1.78-.55c-.09-.033-.156.118-.066.156q.841.368 1.689.72a3.8 3.8 0 0 0 1.766.439c.048-.005.094-.072.045-.11m8.823-5.761c-1.32-.557-2.786-.902-4.155-1.332q-2.247-.705-4.477-1.466-4.396-1.5-8.745-3.143c-.012-.005-.016.014-.005.018q4.242 1.774 8.581 3.285 2.113.731 4.241 1.413c.73.233 1.466.435 2.199.656a19 19 0 0 0 2.326.651c.046.008.085-.06.035-.082m6.145-5.718a24 24 0 0 0-3.678-1.08c-1.342-.368-2.682-.714-4.01-1.13-2.61-.817-5.212-1.676-7.759-2.67-.016-.007-.023.02-.007.026 2.532 1.06 5.078 2.072 7.688 2.924 1.281.419 2.566.853 3.86 1.224a17.2 17.2 0 0 0 3.86.877c.087.004.13-.132.046-.17m6.21-5.566a6.6 6.6 0 0 0-1.647-.428 11.6 11.6 0 0 1-1.85-.545c-1.193-.467-2.466-.753-3.698-1.1-2.472-.697-4.945-1.41-7.385-2.215-.022-.007-.03.027-.01.034 2.429.859 4.854 1.711 7.315 2.474a28 28 0 0 0 3.722 1.01 13 13 0 0 1 1.877.45 6.2 6.2 0 0 0 1.65.418.053.053 0 0 0 .026-.098m5.417-6.32c-4.374-1.19-8.787-2.178-13.203-3.19a.016.016 0 0 0-.008.03c4.389 1.12 8.765 2.261 13.198 3.205a.023.023 0 0 0 .012-.045m5.024-5.54c-1.98-.516-4.038-.795-6.046-1.192q-3.027-.6-6.039-1.281a.012.012 0 0 0-.006.022q3.035.818 6.106 1.484a45 45 0 0 0 5.975 1.044c.044.003.052-.066.01-.077m6.637-3.738c-1.063-.351-2.203-.503-3.294-.749q-1.532-.345-3.054-.734c-2.107-.536-4.207-1.105-6.316-1.636a.025.025 0 0 0-.014.05 50 50 0 0 0 6.362 1.928q1.588.375 3.19.692a20 20 0 0 0 3.118.502.027.027 0 0 0 .007-.054m5.991-5.606a2.3 2.3 0 0 0-1.052-.211 10.5 10.5 0 0 1-1.416-.206c-.911-.189-1.813-.415-2.728-.588-1.799-.341-3.599-.677-5.394-1.034-.013-.003-.018.016-.006.019 1.81.438 3.623.859 5.447 1.231.883.18 1.773.295 2.662.441a12 12 0 0 1 1.411.31 2.3 2.3 0 0 0 1.06.16.067.067 0 0 0 .017-.122m10.18-13.898c-1.534-.248-3.079-.42-4.6-.744a.016.016 0 0 0-.008.03 17.2 17.2 0 0 0 4.6.767c.03 0 .04-.048.008-.053m4.706.397a1.3 1.3 0 0 0-.565-.193c-.217-.036-.436-.044-.654-.059-.428-.03-.856-.055-1.284-.09-.094-.008-.116.148-.023.164q.646.113 1.29.236c.207.04.412.082.623.102a1.3 1.3 0 0 0 .613-.052c.048-.02.032-.084 0-.108m-18.04-65.428a46 46 0 0 1-.102-3.433c.006-.574.052-1.146.068-1.72a2.25 2.25 0 0 0-.186-1.36.02.02 0 0 0-.033 0 2.34 2.34 0 0 0-.183 1.484c.03.574.095 1.145.137 1.719.086 1.185.175 2.37.277 3.555a69 69 0 0 0 .88 6.947c.004.018.03.01.027-.007-.367-2.384-.73-4.776-.885-7.185m3.006-4.04a57 57 0 0 1-.145-3.084 55 55 0 0 0-.062-1.663c-.02-.372.04-.715-.227-.994a.06.06 0 0 0-.085 0c-.237.303-.152.621-.133.994.03.556.084 1.11.148 1.663.125 1.069.272 2.135.407 3.202.261 2.075.416 4.217.882 6.258.006.025.05.02.046-.007-.229-2.13-.658-4.229-.83-6.37m3.049-.711q-.214-1.542-.388-3.089a68 68 0 0 1-.271-2.888 14.7 14.7 0 0 0-.287-2.679.04.04 0 0 0-.077.01 14.3 14.3 0 0 0 .24 2.892c.12.96.228 1.924.338 2.887q.164 1.441.331 2.883a18 18 0 0 0 .373 2.668.043.043 0 0 0 .084-.012 21 21 0 0 0-.343-2.672m1.552-10.274a3.5 3.5 0 0 0-.296-1.278c-.01-.02-.038-.008-.04.011a4.4 4.4 0 0 0 .14 1.32q.146.66.25 1.329c.004.024.044.018.042-.006q-.043-.689-.096-1.376m.841 6.418-.12-.693-.24-1.384c-.008-.047-.08-.027-.072.02l.227 1.36.111.666a4 4 0 0 0 .14.687.022.022 0 0 0 .042-.005 3.7 3.7 0 0 0-.088-.651m1.122-9.129c-.002-.015-.025-.009-.022.006.082.482.162.966.252 1.447.002.01.016.005.015-.004-.076-.484-.162-.967-.245-1.45m-32.537 25.461c.015-.051-.062-.072-.08-.022a29.6 29.6 0 0 0-1.51 14.314c.009.05.09.038.088-.012a44.9 44.9 0 0 1 1.502-14.28m-3.721 4.323a35.7 35.7 0 0 0-1.18 10.386.03.03 0 0 0 .058 0 65 65 0 0 1 1.163-10.375c.006-.027-.035-.039-.042-.012m-2.934 3.331a.018.018 0 0 0-.034-.009 19.3 19.3 0 0 0-.61 8.01c.008.05.084.037.083-.01-.004-1.316-.071-2.631.007-3.946a26 26 0 0 1 .554-4.044m-2.69 3.475a22 22 0 0 0-.355 2.248 10.4 10.4 0 0 0-.07 2.354.016.016 0 0 0 .032 0c.076-.751.05-1.512.115-2.265a22 22 0 0 1 .327-2.323c.006-.032-.042-.046-.049-.014m-2.31.934a18.3 18.3 0 0 0-.64 3.842.03.03 0 0 0 .058.008c.263-1.271.39-2.563.616-3.84.004-.023-.029-.032-.034-.01m-122.459-72.872a6 6 0 0 0-.757-.264 19 19 0 0 0-.758-.22 7.7 7.7 0 0 0-1.56-.309.028.028 0 0 0-.014.051 7.7 7.7 0 0 0 1.509.494q.383.097.77.179a6 6 0 0 0 .79.141.04.04 0 0 0 .02-.072m5.091-2.024c-1.301-.529-2.722-.815-4.06-1.242a67 67 0 0 1-3.997-1.407c-.012-.005-.02.015-.009.021a45 45 0 0 0 3.95 1.59 18.6 18.6 0 0 0 4.106 1.111c.046.005.045-.058.01-.073m2.921-3.123c-1.4-.499-2.913-.745-4.35-1.126-1.447-.385-2.891-.78-4.326-1.21-.03-.009-.041.036-.013.045a93 93 0 0 0 4.384 1.323 28 28 0 0 0 4.299 1.01c.025.003.027-.034.006-.042m3.456-1.581c-2.53-.84-5.109-1.523-7.644-2.35-.021-.007-.03.027-.009.034a70 70 0 0 0 7.64 2.364.025.025 0 0 0 .013-.049m3.716-2.094c-2.23-.584-4.46-1.155-6.641-1.902-.046-.016-.065.055-.02.071a40.3 40.3 0 0 0 6.648 1.877c.03.005.042-.038.012-.046m6.123-2.478a6.6 6.6 0 0 0-2.304-.718 31 31 0 0 1-2.29-.703c-1.57-.543-3.154-1.03-4.743-1.513-.039-.012-.054.048-.016.06 1.575.524 3.15 1.042 4.744 1.506.768.224 1.528.47 2.277.75a6.6 6.6 0 0 0 2.298.745.069.069 0 0 0 .034-.127m4.191-1.861a10.4 10.4 0 0 0-1.925-.623q-.968-.276-1.938-.542c-1.344-.37-2.692-.724-4.039-1.081a.01.01 0 0 0-.005.019c1.332.411 2.663.825 3.999 1.224q.964.29 1.93.57a10.4 10.4 0 0 0 1.962.491.031.031 0 0 0 .016-.058m2.702-2.379a17 17 0 0 0-2.246-.745l-2.346-.694c-.02-.006-.027.024-.008.03l2.28.767a17 17 0 0 0 2.299.692c.028.006.051-.036.02-.05m3.319-1.153c-.508-.137-1.035-.21-1.546-.332a14 14 0 0 1-1.515-.455c-.014-.006-.02.017-.006.022a13 13 0 0 0 1.522.538 6 6 0 0 0 1.537.28.027.027 0 0 0 .008-.053m3.187-1.674a1.3 1.3 0 0 1-.757-.128c-.016-.008-.03.016-.014.023a1.33 1.33 0 0 0 .774.129c.013-.002.01-.025-.003-.023m2.042-2.541c-.017-.007-.028.02-.012.028a4.4 4.4 0 0 0 .934.327 3.4 3.4 0 0 0 .994.054.02.02 0 0 0 0-.04 6.6 6.6 0 0 1-1.916-.37m2.561-33.597c-4.09-1.556-8.238-2.94-12.4-4.293-.023-.008-.033.03-.01.038 4.106 1.514 8.22 2.997 12.395 4.308.035.01.047-.04.015-.053m-2.281 1.768a65 65 0 0 0-8.572-3.548c-.024-.008-.034.029-.01.038 2.886 1.11 5.704 2.379 8.558 3.567.033.014.055-.04.024-.057m.75 2.967a33 33 0 0 0-6.893-3.462c-.023-.009-.033.029-.01.038a59 59 0 0 1 6.881 3.46.022.022 0 0 0 .022-.036m22.201-4.45c-.024-.009-.034.029-.01.038 1.192.465 2.382.935 3.578 1.391.012.005.017-.014.005-.019-1.188-.478-2.382-.94-3.573-1.41m7.913.273a85 85 0 0 0-10.061-3.784c-.034-.01-.048.042-.015.053 3.395 1.142 6.728 2.456 10.057 3.773.025.01.043-.031.019-.042m-5.476-5.15c-.02-.008-.027.023-.01.03 3.01 1.248 5.978 2.59 8.958 3.903.014.006.026-.013.012-.02-2.933-1.422-5.942-2.687-8.96-3.913m7.402.522c-.011-.005-.02.011-.01.017 1.275.6 2.55 1.2 3.83 1.788.013.006.025-.014.012-.02-1.273-.604-2.553-1.194-3.832-1.785M105.59 262.59a63 63 0 0 0-3.104 5.319 33 33 0 0 0-2.434 5.451.022.022 0 0 0 .04.017c.916-1.796 1.64-3.69 2.554-5.49q1.373-2.703 2.975-5.279c.012-.02-.018-.037-.03-.018m-1.853-1.491a42.3 42.3 0 0 0-4.58 8.306c-.012.03.035.049.05.021.722-1.406 1.39-2.838 2.14-4.23q1.125-2.09 2.414-4.083c.01-.015-.014-.029-.024-.014m-.628-3.821a43 43 0 0 0-2.516 3.81 23.7 23.7 0 0 0-1.986 3.96c-.01.03.035.047.05.02.734-1.304 1.338-2.677 2.081-3.978q1.115-1.951 2.399-3.796c.012-.017-.015-.032-.027-.016m-1.033-2.818c-.865 1.3-1.719 2.61-2.533 3.943q-.59.968-1.159 1.948a15 15 0 0 0-1.062 2.014c-.014.038.04.054.061.026a19 19 0 0 0 1.166-1.944c.385-.679.78-1.353 1.175-2.026a136 136 0 0 1 2.39-3.94c.014-.023-.023-.044-.038-.02m-2.053-1.794a40 40 0 0 0-2.002 3.07q-.454.778-.875 1.575a7.8 7.8 0 0 0-.728 1.603.047.047 0 0 0 .086.037 12 12 0 0 0 .87-1.641q.397-.777.824-1.538a50 50 0 0 1 1.868-3.08c.019-.028-.025-.052-.043-.026m-2.035-1.529c-.432.723-.872 1.443-1.294 2.172l-.622 1.076a7 7 0 0 0-.56 1.072c-.012.03.034.058.055.033a7 7 0 0 0 .633-1.03l.606-1.086c.41-.736.803-1.483 1.203-2.225a.012.012 0 0 0-.02-.012m-1.736-1.448q-.473.82-.955 1.634-.235.4-.464.806a4 4 0 0 0-.402.812.026.026 0 0 0 .042.025 4 4 0 0 0 .48-.767q.224-.407.443-.819.441-.837.89-1.67a.02.02 0 0 0-.034-.02m-2.252-2.911q-.288.414-.58.824c-.097.134-.197.267-.288.404l-.138.214a.32.32 0 0 0-.077.199.038.038 0 0 0 .047.035.3.3 0 0 0 .145-.13q.074-.104.146-.21c.097-.139.183-.286.274-.43q.272-.43.548-.86c.032-.049-.045-.092-.077-.045m28.616 81.359c-.57 1.533-1.147 3.063-1.706 4.6l-.807 2.217a18 18 0 0 0-.816 2.404c-.007.035.043.06.06.025a17 17 0 0 0 .842-2.217l.815-2.31c.553-1.568 1.088-3.142 1.63-4.714.005-.012-.014-.016-.018-.005m-1.486-3.556-1.194 3.36c-.192.54-.386 1.079-.573 1.62a8.4 8.4 0 0 0-.511 1.644c-.004.033.043.04.058.016a8.4 8.4 0 0 0 .612-1.617c.186-.54.365-1.083.546-1.626l1.13-3.378c.014-.044-.053-.061-.068-.019m-1.213-3.077a38 38 0 0 0-1.019 2.478 15 15 0 0 0-.824 2.642c-.004.022.029.04.04.017.352-.815.562-1.7.858-2.538.308-.87.62-1.735.966-2.59.005-.013-.016-.021-.022-.01m-1.561-2.74-.668 1.224q-.162.295-.32.593a4 4 0 0 0-.287.617c-.008.025.026.035.04.017a4 4 0 0 0 .336-.583q.16-.31.313-.624l.61-1.23c.007-.015-.015-.03-.024-.014m-1.869-3.393c-.362.901-.722 1.8-1.032 2.72-.007.02.022.026.03.008.376-.895.7-1.807 1.024-2.722.005-.014-.017-.02-.022-.006m301.064-92.319q-.546-.98-1.012-2.003c-.022-.05-.107-.015-.089.037a11.9 11.9 0 0 0 2.22 3.922c.024.027.067-.008.05-.038-.389-.64-.805-1.263-1.169-1.918m-3.462-1.972c-.019-.03-.066-.002-.047.028.334.514.669 1.03 1.012 1.538.01.015.033.001.024-.014q-.488-.78-.989-1.552m-130.726-106.9a29 29 0 0 0-2.847-2.23q-1.512-1.081-3.082-2.079c-.02-.012-.037.018-.018.03q1.53 1.011 3.004 2.102c.98.725 1.923 1.507 2.917 2.21.02.015.044-.016.026-.033m-6.297-2.054c-.017-.01-.032.016-.015.027a30 30 0 0 1 2.485 1.892c.775.658 1.504 1.363 2.253 2.05a.022.022 0 0 0 .03-.03 23 23 0 0 0-4.753-3.939m1.865 3.763c-.017-.014-.042.011-.024.025a26 26 0 0 1 2.555 2.38c.01.011.027-.005.017-.017a21 21 0 0 0-2.548-2.388m-80.157-14.5a18.5 18.5 0 0 0-7.514-2.17c-.012 0-.012.019 0 .02a22.8 22.8 0 0 1 7.496 2.18c.02.01.038-.019.018-.03m-5.631 1.199c-.032-.008-.046.04-.014.048a21 21 0 0 1 5.268 2.053.016.016 0 0 0 .015-.027 17 17 0 0 0-5.27-2.075m1.86 2.598c-.012-.005-.017.014-.005.018a29 29 0 0 1 3.396 1.537c.01.006.02-.01.01-.017a26 26 0 0 0-3.401-1.538"/></svg>