<svg xmlns="http://www.w3.org/2000/svg" data-name="seven" viewBox="0 0 488.188 218.558"><path fill="currentColor" d="M393.274 113.224a10.7 10.7 0 0 1 .465-2.908 15.3 15.3 0 0 1 1.18-3.049.016.016 0 0 0-.026-.015 33.6 33.6 0 0 0-2.604 5.406c-.36.949-.676 1.675.054 2.547.116.139.256.246.38.373q.236.001.172.19a2 2 0 0 1 .055.37c.052.548.047 1.105.082 1.655a48 48 0 0 1-.288 6.75c-.092 1.147-.179 2.294-.298 3.437-.103.995-.548 2.06-.112 3.015a.138.138 0 0 0 .236 0c.538-.854.247-1.931.27-2.892.028-1.105.093-2.21.148-3.314.053-1.065.136-2.128.21-3.19a30 30 0 0 1 .325-3.374 10.5 10.5 0 0 0 .382-2.792 1.96 1.96 0 0 0-.392-1.156 1.67 1.67 0 0 1-.24-1.053m-2.119 10.715c-.21 1.663-.446 3.323-.671 4.985-.109.8-.237 1.598-.346 2.398-.047.347-.1.692-.127 1.04a2.4 2.4 0 0 0-.017.562c.034.21.15.39.202.599a.142.142 0 0 0 .257.033c.077-.172.215-.313.284-.483a2 2 0 0 0 .096-.524c.044-.373.059-.747.075-1.123.036-.842.053-1.685.09-2.527.07-1.653.132-3.308.22-4.96.002-.042-.058-.04-.063 0m-1.768 3.388a228 228 0 0 1-.65 3.736c-.109.598-.232 1.194-.334 1.793-.054.31-.116.636-.138.95a1.8 1.8 0 0 0 .206.743.15.15 0 0 0 .272.035 1.9 1.9 0 0 0 .363-.664 8 8 0 0 0 .08-.958c.034-.609.045-1.22.071-1.829q.08-1.9.191-3.797c.002-.035-.055-.044-.061-.009m-1.791 3.379a14 14 0 0 0-.849 5.49c.007.078.127.108.146.02.388-1.81.457-3.672.733-5.502a.016.016 0 0 0-.03-.008m.252-16.953a51 51 0 0 1-6.636 12.12 4.1 4.1 0 0 0-.583 1.284c-.173.554-.402 1.091-.582 1.645-.314.969-.68 1.918-1.012 2.88a20 20 0 0 0-.82 3.132c-.158.912-.173 1.826-.254 2.74a4 4 0 0 0-.673-.193 5.8 5.8 0 0 0 .349-2.025c.044-1.018-.03-2.041-.001-3.061a39 39 0 0 1 .651-6.008 35.4 35.4 0 0 1 4.258-11.344 46 46 0 0 1 4.098-5.763c.019-.023-.012-.056-.033-.034a37.1 37.1 0 0 0-6.427 10.08 41.8 41.8 0 0 0-3.358 11.495q-.218 1.614-.304 3.242c-.03.607-.037 1.217-.09 1.823-.055.627-.296 1.19-.387 1.804a.486.486 0 0 0 .702.54 1.97 1.97 0 0 1 1.347-.022.222.222 0 0 0 .27-.269 10.7 10.7 0 0 1 .312-3.546 20 20 0 0 1 .844-2.907 15.7 15.7 0 0 1 1.473-2.873c.28-.443.585-.851.88-1.28a6.8 6.8 0 0 0 .617-1.456c.802-2.043 1.898-3.972 2.867-5.94a49 49 0 0 0 2.545-6.05c.012-.033-.04-.046-.053-.014M386.18 34.95c-.308-1.145-.668-2.276-.98-3.421a23.6 23.6 0 0 0-.94-3.768c-.27-.58-.623-1.117-.873-1.71-.25-.595-.496-1.19-.748-1.784-.504-1.188-.94-2.406-1.476-3.58-.027-.06-.111-.015-.1.042.5 2.405 1.363 4.764 1.645 7.208a14.2 14.2 0 0 0 1.323 3.406c.443 1.114.827 2.253 1.2 3.392a40.4 40.4 0 0 1 1.58 6.667 12.2 12.2 0 0 1-.581 6.68 1.6 1.6 0 0 0-1.508.125 30 30 0 0 0-.14-2.13c-.101-1.11-.161-2.226-.265-3.337a34.4 34.4 0 0 0-1.14-6.597.027.027 0 0 0-.053.014 55 55 0 0 1 1 6.821 18.3 18.3 0 0 1-.073 3.497c-.14 1.061-.28 2.108-.346 3.178-.064.618.9.612.966 0 .044-.767.96-.944 1.52-.646a.392.392 0 0 0 .569-.231 28.8 28.8 0 0 0 .71-6.9 32 32 0 0 0-1.29-6.925m3.813-4.181c-.134-.864-.273-1.734-.326-2.605a2 2 0 0 0-.447-1.14 8.4 8.4 0 0 1-.65-1.19 167 167 0 0 0-2.452-4.738c-.02-.035-.071-.004-.054.032a22.8 22.8 0 0 1 1.775 5.015 5.7 5.7 0 0 1 .19 1.272 2.1 2.1 0 0 0 .243 1.127 12 12 0 0 1 .977 2.432 39.4 39.4 0 0 1 1.282 10.23.05.05 0 0 0 .101 0 43 43 0 0 0-.64-10.436m57.605 96.556c-.264 1.676-.576 3.343-.989 4.99a25 25 0 0 1-.699 2.446 6 6 0 0 1-.585 1.254 2.2 2.2 0 0 0-.34.965 15.6 15.6 0 0 1-.344 2.593 25 25 0 0 1-.837 2.403c-.329.858-.703 1.7-1.083 2.537a8.1 8.1 0 0 1-1.366 2.419c-.484.486.593 1.041.667.276a10.4 10.4 0 0 1 .892-2.614c.31-.788.594-1.585.888-2.38.307-.831.578-1.68.909-2.503a26 26 0 0 1 1.239-2.398 6.2 6.2 0 0 0 .323-2.047c.135-.894.324-1.78.497-2.668.342-1.743.651-3.494.895-5.254.007-.044-.06-.064-.067-.019M287.971 25.343a18 18 0 0 0-2.852-1.246 8.6 8.6 0 0 0-1.456-.178 5.3 5.3 0 0 0-1.594.087 1 1 0 0 0-.525.435c-.138.189-.093.206-.344.25-.531.091-1.056.21-1.585.313-1.039.203-2.07.414-3.094.681-2.057.536-4.075 1.207-6.106 1.833a172 172 0 0 0-6.136 1.992 100 100 0 0 0-11.668 5.112 7.8 7.8 0 0 1-3.247 1.177 3 3 0 0 0-1.25.11 9.5 9.5 0 0 0-1.347.892c-.436.263-.764.627-1.222.87-.473.252-.958.486-1.442.716a31 31 0 0 1-3.075 1.23 80.7 80.7 0 0 1-13.691 3.464c-.015.002-.008.024.006.022a81 81 0 0 0 11.984-2.685c1.954-.598 3.885-1.27 5.836-1.88a26 26 0 0 1 3.04-.648 2.36 2.36 0 0 0 1.237-.619 7 7 0 0 1 1.204-1.247 55 55 0 0 1 5.663-2.95q2.945-1.45 6.007-2.634c3.921-1.51 7.946-2.787 11.98-3.958a57 57 0 0 1 3.421-.894c.572-.128 1.147-.25 1.726-.342.334-.053.67-.086 1.008-.111a2.9 2.9 0 0 1 .92-.05c.199.07.258.238.42.365a1.08 1.08 0 0 0 .729.17 65 65 0 0 0 1.715-.004 12 12 0 0 0 1.642-.092 5.5 5.5 0 0 1 2.055-.03.078.078 0 0 0 .041-.151"/><path fill="currentColor" d="M301.042 30.777a61 61 0 0 0-6.517-2.047q-1.61-.49-3.207-1.027-.792-.266-1.585-.526a5.3 5.3 0 0 1-1.687-.636.68.68 0 0 0-.941 0c-.137.133-.644.067-.825.077a23 23 0 0 0-2.276.24c-.98.137-1.953.313-2.929.47l-6.358 1.02c-.06.01-.033.1.025.09l6.022-.85c1.038-.147 2.076-.304 3.12-.406a13 13 0 0 1 1.442-.058c.304.004 1.51-.036 1.675.223a.684.684 0 0 0 .91.24 3.14 3.14 0 0 1 1.53.014 17 17 0 0 1 1.81.347c1.089.263 2.162.604 3.23.941a60 60 0 0 0 6.516 1.995c.06.012.11-.079.045-.107m.044 32.673a1.73 1.73 0 0 0-.845-.496c-.403-.101-.823-.15-1.232-.217l-.08-.011q-.532-.556-1.069-1.108l-2.336-2.411c-1.558-1.607-3.14-3.19-4.714-4.782-.014-.014-.035.007-.022.022 1.506 1.659 3.004 3.326 4.526 4.97q1.11 1.196 2.218 2.393.387.418.776.834a21 21 0 0 0-1.751-.154 23 23 0 0 1-3.323-.412c-.445-.425-.9-.838-1.34-1.269q-2.743-2.688-5.424-5.442c-.057-.058-.141.029-.089.089q2.572 2.93 5.301 5.71.374.38.75.758-.633-.132-1.26-.278a119 119 0 0 0-5.87-1.193c-1.591-1.529-3.141-3.1-4.609-4.75-.047-.052-.123.025-.077.078 1.39 1.6 2.858 3.13 4.367 4.617q-2.057-.364-4.132-.677c-.068-.01-.1.09-.029.106q2.28.519 4.56.963c.388.376.76.769 1.156 1.136 1.028.956 2.101 1.86 3.129 2.816.444.413.85.862 1.275 1.294l-.078-.016a455 455 0 0 1-5.434-1.158l-.496-.112c-.781-.658-1.554-1.326-2.33-1.988q-3.53-3.013-7.126-5.946c-.065-.053-.158.037-.093.094q3.522 3.108 7.121 6.124c.636.534 1.275 1.064 1.91 1.6a487 487 0 0 1-9.523-2.204q-.498-.364-.992-.73c-1.794-1.336-3.566-2.704-5.275-4.148-.026-.022-.065.015-.038.039a59.5 59.5 0 0 0 7.608 5.942c1.373.902 2.8 1.75 4.12 2.726.632.467 1.27.94 1.942 1.347.067.041.148.078.223.116-2.89-.773-5.789-1.51-8.69-2.24l-.063-.041c-.957-.654-1.914-1.308-2.858-1.98q-2.871-2.042-5.632-4.233c-.038-.03-.094.023-.055.055q2.64 2.205 5.385 4.278a127 127 0 0 0 2.298 1.687q-1.624-.41-3.247-.822a.016.016 0 0 0-.008.03q1.74.475 3.48.957l.287.21a15 15 0 0 0 2.852 1.857c.117.047.197-.122.117-.202a13 13 0 0 0-2.22-1.58c3.068.847 6.138 1.687 9.22 2.48a2 2 0 0 1 .353.254c-.173.233.169.492.421.511a.46.46 0 0 0 .544-.426q1.649.414 3.302.805a.035.035 0 0 0 .019-.067q-1.66-.488-3.327-.945a.85.85 0 0 0-.21-.444 3.8 3.8 0 0 0-1.062-.637 21 21 0 0 0-1.305-.633c-1.01-.437-2.003-.86-2.966-1.395a40 40 0 0 1-4.14-2.71 327 327 0 0 0 10.016 2.642c.334.287.672.57.998.865 1.157 1.049 2.133 2.27 3.377 3.225.409.314.798-.307.502-.663l.019-.011c-1.13-1.055-2.48-1.809-3.692-2.757-.212-.166-.415-.345-.624-.516q2.516.613 5.04 1.194c.357.082.715.157 1.073.235a2.65 2.65 0 0 0 1.091.488.156.156 0 0 0 .18-.21l.307.067a12.5 12.5 0 0 0 2.606.42c.133 0 .211-.21.073-.269a12.6 12.6 0 0 0-2.42-.624q-.49-.101-.978-.205a4 4 0 0 0-.84-.692c-.585-.377-1.2-.705-1.761-1.115a39 39 0 0 1-3.344-2.857c-.3-.276-.583-.57-.879-.85 1.795.346 3.596.656 5.415.92q.673.098 1.358.207c.62.624 1.242 1.246 1.857 1.875l1.36 1.392a7 7 0 0 0 .738.711 2.2 2.2 0 0 0 .675.268c.094.036.155-.08.119-.155a2.1 2.1 0 0 0-.439-.758c-.22-.215-.459-.41-.692-.611q-.7-.603-1.388-1.22c-.493-.442-.963-.908-1.442-1.365a19 19 0 0 1 2.859.712 21 21 0 0 0 2.51.736q.333.069.668.136a2.4 2.4 0 0 0 .555.399.067.067 0 0 0 .091-.09 2 2 0 0 0-.108-.199l.017.004a1.9 1.9 0 0 0 1.146-.115.154.154 0 0 0 .067-.254m4.997-3.212a16.4 16.4 0 0 0-2.366-.243q-1.396-.145-2.781-.374l-.12-.023q-.144-.143-.284-.288-1.008-1.05-2.02-2.094a595 595 0 0 0-4.008-4.106c-.032-.032-.08.016-.05.05q1.943 2.113 3.912 4.202.968 1.032 1.94 2.059l.09.098a74 74 0 0 1-4.544-.957.02.02 0 0 0-.01.038 36.5 36.5 0 0 0 4.81 1.196 13 13 0 0 0 1.604 1.583c.05.039.12-.036.086-.085a10.6 10.6 0 0 0-1.246-1.413q1.112.193 2.231.334a11.4 11.4 0 0 0 2.731.207c.098-.012.136-.155.025-.184m.325-4.41c-1.905-.538-3.854-.941-5.794-1.33-.025-.006-.035.03-.01.037 1.913.5 3.842.992 5.79 1.345a.027.027 0 0 0 .014-.052m6.818.404-2.367-2.804-.243-.285h.892a.016.016 0 0 0 0-.031h-.919c-1.467-1.733-2.95-3.453-4.427-5.178-.023-.027-.061.012-.04.039 1.506 1.84 3.002 3.69 4.52 5.52l2.208 2.66a21 21 0 0 0 2.398 2.773.059.059 0 0 0 .092-.071 19.4 19.4 0 0 0-2.114-2.623m-8.51 63.707c-3.681.527-7.362 1.106-11.06 1.5a29.7 29.7 0 0 1-5.169.134c-.782-.054-1.564-.09-2.346-.127a7 7 0 0 0-1.164-.04 7 7 0 0 1-1.508.245 16.3 16.3 0 0 1-4.944-1.736c-.77-.343-1.528-.767-2.274-1.163a4.5 4.5 0 0 0-1.001-.497 8 8 0 0 0-1.352-.223 53 53 0 0 1-5.33-.91c-1.798-.342-3.598-.674-5.393-1.03-3.992-.793-7.966-1.684-11.947-2.526-.005-.001-.007.006-.002.007l10.9 2.581c3.503.83 7.033 1.703 10.484 2.733a24 24 0 0 0 2.461.91c.396.071.806.018 1.21.078.47.07.954.112 1.42.201a32 32 0 0 1 4.848 1.799 6.5 6.5 0 0 1 1.28.569 6 6 0 0 0 .94.555 6.65 6.65 0 0 0 2.777.207 35 35 0 0 0 5.033-.996c4.006-.937 8.093-1.543 12.145-2.241.02-.004.011-.033-.008-.03"/><path fill="currentColor" d="M298.567 117.352a43.7 43.7 0 0 0-10.556 1.476c-.078.021-.065.154.02.146a103 103 0 0 0 10.553-1.491c.075-.015.057-.132-.017-.131m7.923-1.565a3.2 3.2 0 0 0-1.113.102 9 9 0 0 0-1.099.275 12.5 12.5 0 0 0-1.991.912c-.053.03-.006.11.047.081a6.4 6.4 0 0 1 .997-.427 6 6 0 0 1 1.006-.215 7 7 0 0 1 1.038-.103 9 9 0 0 0 1.027.027.34.34 0 0 0 .326-.288.33.33 0 0 0-.238-.364m-.057-3.057a9.5 9.5 0 0 0-2.873.521q-1.578.37-3.164.7-3.114.645-6.255 1.132c-.048.007-.037.09.01.084 2.073-.27 4.143-.57 6.205-.912q1.544-.257 3.083-.54a9.2 9.2 0 0 0 3.05-.782.11.11 0 0 0-.056-.204m1.64-3.209c-1.093.201-2.171.527-3.245.814l-3.23.861a.035.035 0 0 0 .018.068l3.241-.825c1.076-.274 2.176-.515 3.228-.873a.023.023 0 0 0-.012-.045m-.645-3.301a1.4 1.4 0 0 0-.564-.059 2.2 2.2 0 0 0-.562.104 2 2 0 0 0-.92.651c-.015.02.011.047.028.028a2.17 2.17 0 0 1 .933-.588 2 2 0 0 1 .536-.107 5 5 0 0 1 .541.032c.038.002.039-.049.008-.061m-89.828 6.65a26.4 26.4 0 0 0-6.759-.48c-2.323.11-4.639-.033-6.96-.12-4.642-.177-9.286-.31-13.928-.481-2.316-.086-4.658-.13-6.966-.334-1.206-.106-2.35-.363-3.536-.582a14.6 14.6 0 0 0-3.431.107c-2.32.11-4.646.07-6.968.11q-3.484.06-6.969.13c-5.226.1-10.452.183-15.678.317a.016.016 0 0 0 0 .03c9.256-.058 18.497.119 27.748.407.541.016 1.079.049 1.618.09.643.05 1.252.172 1.888.257a11.3 11.3 0 0 0 3.33-.284 42 42 0 0 1 7.098-.168c4.603.04 9.207.244 13.804.463 2.632.125 5.314.135 7.927.49a33.6 33.6 0 0 0 7.733.408c.191-.018.266-.313.048-.36m5.126.119-.367.004-.722.008a.043.043 0 0 0 0 .086l.722.009.354.004.177.002a.17.17 0 0 0 .13-.035.03.03 0 0 0 0-.045c-.071-.064-.204-.035-.294-.033m-15.729-5.411c-.507-.057-.982-.284-1.494-.311a14 14 0 0 0-1.493.182c-.91.05-1.828.007-2.738-.008l-5.848-.098q-5.787-.097-11.574-.14a.016.016 0 0 0 0 .032q5.787.184 11.574.33l5.724.135c.952.023 1.913.016 2.862.106a12 12 0 0 0 1.493.242c.507-.015.99-.214 1.494-.25a.11.11 0 0 0 0-.22m11.245.326a10.9 10.9 0 0 0-4.434-.318c-.025.003-.026.04 0 .04a20.4 20.4 0 0 1 4.413.353.04.04 0 0 0 .021-.075m-23.398 48.599a2.06 2.06 0 0 0-1.22-.818q-.925-.276-1.852-.548-1.739-.507-3.482-1c-2.368-.67-4.776-1.144-7.152-1.773-4.748-1.256-9.517-2.435-14.256-3.724a15 15 0 0 1-3.408-1.45 5.1 5.1 0 0 0-1.529-.628c-.627-.125-1.27-.177-1.903-.267-2.448-.345-4.865-.861-7.287-1.354q-7.23-1.473-14.505-2.696c-5.444-.917-10.897-1.8-16.362-2.594-.044-.006-.064.06-.019.068 9.689 1.591 19.292 3.566 28.857 5.775 2.354.544 4.7 1.098 7.025 1.75 1.204.339 2.366.8 3.562 1.156a16 16 0 0 0 3.543.163 23.3 23.3 0 0 1 3.839.77c1.173.287 2.348.568 3.515.881a312 312 0 0 1 7.093 1.989c2.632.775 5.202 1.717 7.816 2.549 1.305.415 2.613.818 3.918 1.233l1.957.624a5.4 5.4 0 0 0 .924.283 2.2 2.2 0 0 0 .867-.167.135.135 0 0 0 .06-.222m6.754 1.384a23.7 23.7 0 0 0-3.793-1.274c-.053-.017-.074.064-.023.083a23.6 23.6 0 0 0 3.761 1.32c.074.013.13-.09.055-.129m54.415 13.44a35.5 35.5 0 0 0-5.125-1.214 151 151 0 0 1-5.018-1.184q-5.049-1.298-9.98-3.004c-.028-.01-.04.035-.012.045q4.941 1.854 10.02 3.307c1.69.481 3.39.938 5.1 1.336a22.6 22.6 0 0 0 4.993.875.082.082 0 0 0 .022-.161m5.534-2.037a4.9 4.9 0 0 0-2.011-.663 5.6 5.6 0 0 0-1.083.25 8 8 0 0 1-1.202.009 45 45 0 0 1-4.91-.32 74 74 0 0 1-9.9-1.878.016.016 0 0 0-.008.03 78 78 0 0 0 9.625 2.146q2.292.361 4.593.666l1.201.162a2.6 2.6 0 0 1 .878.22 2 2 0 0 0 .465.194 3.85 3.85 0 0 0 2.312-.51c.116-.047.187-.24.04-.306m13.096-1.233c-1.627-1.214-3.263-2.418-4.882-3.642 1.202-1.16 2.4-2.322 3.616-3.472a110 110 0 0 0 9.454-10.138c.01-.011-.007-.028-.016-.017a113 113 0 0 1-8.97 9.497 51 51 0 0 1-5.103 4.256 27 27 0 0 1-2.548 1.77 6.5 6.5 0 0 1-2.934 1.064c-.559-.023-.625.779-.127.942a3.2 3.2 0 0 0 .734.148 1.3 1.3 0 0 1 .24.154 4.4 4.4 0 0 1-.94.185.07.07 0 0 0 0 .14 4.3 4.3 0 0 1 .956.005c.203.05.4.192.605.257a.418.418 0 0 0 .512-.512 2 2 0 0 0-.21-.36 4 4 0 0 0 .636-.28c1.717 1.26 3.474 2.496 5.294 3.603.035.021.062-.03.031-.054-1.682-1.282-3.46-2.46-5.247-3.593a10.3 10.3 0 0 0 2.08-1.72q1.738 1.376 3.529 2.682c.705.516 1.408 1.035 2.123 1.537a18 18 0 0 0 2.24 1.505.059.059 0 0 0 .07-.092 17 17 0 0 0-2.016-1.583c-.699-.525-1.408-1.036-2.116-1.548a118 118 0 0 0-3.734-2.595c.184-.183.366-.365.547-.538l1.206-1.158a87 87 0 0 0 4.638 3.755 46 46 0 0 0 5.103 3.484c.034.019.074-.029.043-.055-1.536-1.292-3.207-2.428-4.814-3.627m13.367-17.566a.02.02 0 0 0-.04 0 35.3 35.3 0 0 0 .428 5.785.024.024 0 0 0 .046-.006c-.166-1.928-.385-3.84-.434-5.778"/><path fill="currentColor" d="M282.536 170.629c-1.595-1.491-3.427-2.77-5.153-4.104q-2.679-2.069-5.383-4.101c-.025-.019-.057.023-.033.043q2.627 2.134 5.29 4.22c1.715 1.349 3.402 2.814 5.236 3.997a.035.035 0 0 0 .043-.055m2.179-1.183c-1.7-1.638-3.63-3.086-5.482-4.547a150 150 0 0 0-5.549-4.15c-.033-.025-.063.03-.031.053a205 205 0 0 1 5.708 4.41c1.778 1.418 3.468 2.959 5.269 4.344.064.049.142-.056.085-.11m.46-3.219q-.63-.561-1.262-1.118l-2.532-2.227q-2.535-2.228-5.106-4.413c-.015-.013-.037.008-.022.022q2.478 2.284 4.99 4.53l2.44 2.178q.63.561 1.262 1.118a6.6 6.6 0 0 0 1.246 1.008c.032.016.077-.02.053-.054a6 6 0 0 0-1.07-1.044m2.17-1.441c-1.315-1.35-2.785-2.559-4.194-3.81a463 463 0 0 0-4.272-3.731c-.03-.027-.074.016-.044.044a464 464 0 0 0 4.177 3.826c1.4 1.263 2.767 2.59 4.255 3.749.054.042.128-.026.078-.078m-3.668-6.458q-1.79-1.837-3.723-3.527c-.023-.02-.056.013-.034.033q1.88 1.694 3.626 3.53c1.163 1.224 2.232 2.532 3.384 3.76.024.026.07-.008.05-.037a34 34 0 0 0-3.303-3.759m3.464.327q-.38-.352-.762-.702-.74-.684-1.482-1.367l-2.964-2.734c-.03-.027-.073.016-.044.044l2.93 2.768 1.423 1.345q.375.356.753.711a4 4 0 0 0 .708.607c.03.017.068-.017.048-.048a3.7 3.7 0 0 0-.61-.624m-.816-3.823q-.566-.556-1.137-1.107l-2.289-2.199a.031.031 0 0 0-.044.044l2.243 2.245q.545.546 1.098 1.083a8.4 8.4 0 0 0 1.132 1.062c.03.019.068-.02.049-.048a8 8 0 0 0-1.052-1.08m.724-2.352c-.527-.553-1.108-1.049-1.675-1.56-.568-.51-1.163-.993-1.746-1.487-.02-.016-.046.01-.028.028.56.532 1.112 1.077 1.69 1.592.563.504 1.115 1.022 1.716 1.482.033.025.07-.028.043-.055m-1.05-4.054a.031.031 0 0 0-.044.044l1.37 1.353a.02.02 0 0 0 .028-.027zm-60.62 66.081c-3.41-1.733-6.963-3.208-10.425-4.838q-5.204-2.45-10.356-5.016c-.018-.009-.033.018-.015.027q5.135 2.718 10.37 5.228c3.414 1.637 6.847 3.346 10.396 4.67.041.016.07-.051.03-.071m5.09-1.317a17 17 0 0 0-2.163-1q-1.092-.485-2.178-.985-2.225-1.024-4.426-2.101-4.341-2.138-8.555-4.522a.04.04 0 0 0-.04.067q4.242 2.45 8.617 4.655a155 155 0 0 0 4.297 2.085q1.138.528 2.283 1.04a13.5 13.5 0 0 0 2.12.868.059.059 0 0 0 .045-.107m4.105-.713a23.6 23.6 0 0 0-3.234-1.486 170 170 0 0 1-3.127-1.456q-3.17-1.506-6.241-3.205a.016.016 0 0 0-.016.027q3.065 1.818 6.236 3.45a87 87 0 0 0 3.207 1.552 16.2 16.2 0 0 0 3.103 1.29.094.094 0 0 0 .072-.172m1.957-1.551a17 17 0 0 0-2.483-1.319l-2.54-1.223c-1.694-.816-3.4-1.605-5.105-2.4-.032-.014-.06.031-.028.048 1.699.872 3.395 1.75 5.104 2.6l2.521 1.255a17 17 0 0 0 2.498 1.118c.049.015.07-.052.033-.079m3.525-1.256a9 9 0 0 0-1.604-.651q-.886-.343-1.765-.702-1.783-.73-3.52-1.562c-.037-.017-.068.036-.032.054q1.715.891 3.477 1.685.82.37 1.653.71a7.6 7.6 0 0 0 1.748.625c.091.012.107-.118.043-.16m4.765-.688a8 8 0 0 0-1.71-.757l-1.791-.669c-1.214-.453-2.446-.853-3.677-1.257-.02-.007-.035.027-.015.036 1.176.51 2.35 1.027 3.544 1.491l1.85.718a8 8 0 0 0 1.766.562c.071.01.081-.09.033-.124m1.465-4.315a4.4 4.4 0 0 0-.943-.3c-.24-.05-.484-.076-.728-.102q-.413-.182-.827-.362-.89-.384-1.787-.749c-.373-.151-.75-.294-1.125-.441a16 16 0 0 0-1.453-.795c-.568-.288-1.15-.542-1.73-.804-.081-.037-.152.076-.071.121.549.308 1.095.62 1.658.904-.382-.13-.76-.268-1.149-.376-.037-.01-.064.048-.027.064 1.21.546 2.455 1.01 3.68 1.52q.984.408 1.956.84l-.317-.021c-.166-.011-.165.246 0 .257a5.7 5.7 0 0 1 1.775.47l.28.12a.4.4 0 0 1 .136.172.44.44 0 0 0 .413.315 3 3 0 0 0 .445-.089.7.7 0 0 0 .396.01.136.136 0 0 0 .092-.164c-.065-.282-.425-.476-.674-.59M277.26 68.718a39 39 0 0 0-4.26-1.211 5 5 0 0 1-1.268-.537 3 3 0 0 0-.86-.499c-.213-.07-.43-.129-.645-.192-.598-.381-1.209-.745-1.803-1.124-.878-.56-1.76-1.112-2.623-1.693-1.698-1.142-3.35-2.35-4.995-3.566-.057-.042-.13.052-.076.098a52 52 0 0 0 4.921 3.725 52 52 0 0 0 2.628 1.682c.347.204.696.413 1.05.617q-.348-.096-.693-.195c-1.45-.425-2.897-.86-4.354-1.258-1.538-.42-3.101-.725-4.655-1.079a.047.047 0 0 0-.025.09c1.444.594 2.872 1.22 4.35 1.73 1.466.507 2.954.957 4.44 1.406.702.212 1.404.437 2.112.634a2.8 2.8 0 0 0 1.066.05 4.8 4.8 0 0 1 1.274.22 38 38 0 0 0 4.382 1.226.067.067 0 0 0 .033-.124m27.721-9.613c-.285-.305-.58-.598-.875-.894-.59-.59-1.173-1.186-1.77-1.768q-1.793-1.749-3.63-3.446a.035.035 0 0 0-.05.05q1.687 1.851 3.42 3.655c.562.585 1.138 1.156 1.708 1.733.293.296.583.596.886.883a3.7 3.7 0 0 0 .929.767.071.071 0 0 0 .096-.096 3.5 3.5 0 0 0-.714-.884m.151-5.588q-2.242-2.593-4.508-5.165c-.03-.035-.078.015-.05.05q2.181 2.583 4.373 5.157c1.453 1.7 2.837 3.528 4.438 5.09.03.03.088-.01.061-.047-1.29-1.793-2.869-3.414-4.314-5.085m6.044-4.82c-.026-.024-.064.014-.039.038a44 44 0 0 1 3.873 4.325c.016.02.052-.007.037-.028a28 28 0 0 0-3.871-4.335m2.053 14.967c-.007-.007-.018.004-.011.011 2.396 2.367 4.76 4.774 7.202 7.095a.02.02 0 0 0 .027-.028c-2.363-2.4-4.81-4.723-7.218-7.078m7.852 1.51c-1.459-1.436-2.94-2.847-4.42-4.26a.031.031 0 0 0-.045.044c1.43 1.464 2.856 2.93 4.308 4.373 1.448 1.438 2.85 2.955 4.41 4.271a.047.047 0 0 0 .067-.066c-1.333-1.546-2.866-2.93-4.32-4.362m6.625.267-2.978-2.894c-1.986-1.93-3.997-3.833-6.002-5.743a.027.027 0 0 0-.038.039c1.955 1.96 3.904 3.926 5.878 5.867l2.876 2.828a42 42 0 0 0 3.109 2.932.05.05 0 0 0 .071-.072 41 41 0 0 0-2.916-2.957m.425-5.786-6.123-6.132a.012.012 0 0 0-.016.016l6.083 6.172c2.018 2.048 3.964 4.23 6.1 6.154a.043.043 0 0 0 .062-.06c-1.908-2.152-4.074-4.116-6.106-6.15m7.9 1.463q-1.503-1.644-3.059-3.239a128 128 0 0 0-6.454-6.144c-.018-.017-.046.01-.027.027q3.227 2.987 6.27 6.162 1.506 1.562 2.963 3.17a43 43 0 0 0 2.982 3.307c.047.042.13-.013.092-.071a26 26 0 0 0-2.767-3.212m6.625.942a.04.04 0 0 0 .055.055l.031.088q-.16.122-.222-.038a.8.8 0 0 1-.14-.243 2 2 0 0 0-.31-.415c-.408-.442-.829-.874-1.245-1.31q-1.214-1.272-2.44-2.536-2.45-2.526-4.954-5a.02.02 0 0 0-.028.028q3.38 3.482 6.696 7.025.813.868 1.621 1.74a3.4 3.4 0 0 1 .438.527 2 2 0 0 0 .178.311.4.4 0 0 0 .268.174c.385.013.249-.63.052-.406m3.899-2.097a27 27 0 0 0-2.159-1.93l-2.238-1.85c-.03-.025-.074.017-.044.045l2.18 1.97a26 26 0 0 0 2.204 1.839c.044.032.093-.037.057-.074m4.924-1.092c-.327-.248-.662-.484-.986-.737a3.1 3.1 0 0 1-.818-.828 2.24 2.24 0 0 0-.96-.657c-1.377-.722-2.707-1.542-4.065-2.3a.031.031 0 0 0-.032.054 40 40 0 0 1 3.158 2.436c-.174-.102-.345-.209-.52-.31a.027.027 0 0 0-.028.047c.263.16.53.312.794.469.093.083.196.155.287.24a2.6 2.6 0 0 0 .81.652 3.2 3.2 0 0 1 .599.21 5 5 0 0 1 .45.297c.335.238.656.493.977.749.205.162.442.403.717.32a.07.07 0 0 0 .052-.067c.012-.265-.242-.428-.435-.575m-37.916 29.651a.016.016 0 0 0-.022.022c1.47 1.478 2.914 2.989 4.422 4.428a.02.02 0 0 0 .028-.028c-1.44-1.508-2.95-2.952-4.428-4.422m6.999 2.021-4.606-4.415c-.01-.01-.027.006-.017.017l4.57 4.452c1.515 1.476 2.977 3.062 4.598 4.423a.023.023 0 0 0 .033-.033c-1.416-1.573-3.05-2.98-4.578-4.444m4.995.623q-3.4-3.41-6.822-6.795a.023.023 0 0 0-.033.033q3.373 3.436 6.761 6.856c2.255 2.271 4.44 4.656 6.816 6.801a.031.031 0 0 0 .044-.044c-2.133-2.386-4.507-4.584-6.766-6.85m4.128-.724q-4.035-4.303-8.168-8.51c-.028-.028-.072.016-.044.045q4.057 4.282 8.076 8.601c2.676 2.876 5.258 5.856 8.029 8.64.029.028.07-.014.044-.045-2.494-3.034-5.252-5.867-7.937-8.73m-1.075-4.717c-.026-.024-.064.014-.039.039 5.043 4.847 9.765 9.97 14.504 15.109.038.04.096-.02.06-.061a188 188 0 0 0-14.525-15.087m17.351 15.055-2.634-2.885q-2.595-2.844-5.214-5.667c-.02-.022-.054.011-.034.033 1.688 1.887 3.371 3.777 5.069 5.655l2.47 2.734 1.273 1.408a12 12 0 0 0 1.385 1.453c.032.026.087-.007.061-.047a22 22 0 0 0-2.376-2.684m10.084 2.461c-1.579-1.6-3.296-3.064-4.88-4.663q-2.372-2.397-4.617-4.921c-.017-.02-.043.008-.027.027q2.175 2.588 4.543 4.996a52 52 0 0 0 4.914 4.627c.047.036.11-.022.067-.066m3.41.668c-.64-.744-1.414-1.396-2.111-2.087q-1.084-1.075-2.146-2.17-2.096-2.16-4.14-4.37c-.038-.04-.097.02-.06.062a121 121 0 0 0 4.07 4.438q1.031 1.068 2.083 2.116a27 27 0 0 0 2.199 2.116.074.074 0 0 0 .105-.105m2.404-1.353-.828-.772-1.609-1.502c-1.073-1.001-2.16-1.987-3.244-2.977-.022-.02-.055.012-.033.033 1.053 1.021 2.102 2.046 3.166 3.055l1.55 1.472.821.779a4.4 4.4 0 0 0 .776.661c.036.02.084-.022.06-.059a4.2 4.2 0 0 0-.66-.69m.113-2.883c-.014-.013-.036.01-.021.023 1.223 1.048 2.432 2.12 3.678 3.142.015.012.037-.009.022-.023-1.204-1.07-2.45-2.097-3.678-3.142m5.373 1.108a.008.008 0 0 0-.011.01l.68.681a.008.008 0 0 0 .011-.01Zm6.091 1.087c-.875-.514-1.785-.967-2.684-1.435-.04-.021-.076.039-.036.06.892.484 1.777.985 2.692 1.422.031.015.058-.029.028-.047"/><path fill="currentColor" d="M486.596 140.66c-2.174-3.903-6.226-6.248-10.027-8.312a197.6 197.6 0 0 0-27.851-12.137c-4.79-1.712-9.62-3.306-14.466-4.848-4.856-1.545-9.756-2.97-14.571-4.64-2.442-.847-4.86-1.77-7.208-2.854-2.251-1.04-4.397-2.263-6.54-3.507a51 51 0 0 0-6.599-3.373 33.3 33.3 0 0 0-7.287-1.86c-5.278-.823-10.591-1.402-15.868-2.248q-7.944-1.272-15.827-2.89c-5.167-1.06-10.327-2.185-15.437-3.493-3.923-1.005-7.952-2.317-11.1-4.925.05-.393.018-.788.03-1.185a10.5 10.5 0 0 1 .422-2.531 24.8 24.8 0 0 1 2.336-5.204c.835-1.514 1.68-3.031 2.645-4.468a15 15 0 0 1 1.61-2.03l.001-.001a53.8 53.8 0 0 1 15.866-5.089c5.903-.977 11.857-1.702 17.786-2.502 6.068-.818 12.142-1.6 18.226-2.294 11.988-1.366 23.997-2.294 36.059-2.659 11.37-.344 22.925-.572 33.966-3.608 8.083-2.223 18.572-6.836 19.552-16.403.492-4.805-2.155-9.5-5.8-12.463-4.103-3.335-9.3-4.839-14.413-5.789-11.725-2.178-23.688-1.529-35.545-1.838-12.094-.316-24.052-2.325-36.13-2.834-12.138-.511-24.082 1.534-36.162 2.252a335 335 0 0 1-36.638-.197q-1.807-.09-3.613-.2a74 74 0 0 0-3.497-.793 104 104 0 0 0-9.421-1.433 127 127 0 0 0-18.979-.419c-3.164.148-6.317.488-9.483.598a40 40 0 0 1-9.296-.803c-1.402-.28-2.796-.606-4.191-.925-4.452-2.177-9.04-4.116-13.521-6.193-3.064-1.421-6.169-2.762-9.27-4.1A25.8 25.8 0 0 0 227.523.03a39.3 39.3 0 0 0-9.548 1.034c-3.293.639-6.582 1.187-9.92 1.522-6.607.663-13.25.753-19.88 1.01a142 142 0 0 0-19.53 1.897c-6.404 1.143-12.704 2.785-18.973 4.508-6.294 1.73-12.567 3.54-18.919 5.052q-9.62 2.29-19.404 3.803a268 268 0 0 1-19.795 2.291q-2.56.203-5.119.399a58.5 58.5 0 0 1-10.165-1.715c-5.262-1.28-10.332-3.219-15.434-5.007a80 80 0 0 0-15.585-4.163c-6.211-.843-12.497.06-18.728-.536A86 86 0 0 1 15.978 8.29c-3.46-.772-6.937-1.507-10.366-2.404a.04.04 0 0 0-.02.075c3.086.94 6.115 2.04 9.234 2.875 3.025.81 6.086 1.498 9.177 2.006a80 80 0 0 0 9.422 1.006c3.227.144 6.482.12 9.695.475 10.857 1.198 20.7 6.24 31.15 9.032 1.084.289 2.184.558 3.294.782-1.924.106-3.848.2-5.775.26-1.648.053-3.296.064-4.944.05a.035.035 0 0 0 0 .07c3.294.156 6.592.38 9.889.453 3.232.071 6.464.154 9.694.046 6.586-.22 13.16-.811 19.694-1.665a277 277 0 0 0 38.23-8.018c6.211-1.723 12.416-3.486 18.71-4.891a124.5 124.5 0 0 1 19.564-2.788c6.566-.403 13.147-.44 19.713-.832 3.26-.194 6.512-.48 9.746-.928 3.2-.444 6.344-1.17 9.53-1.679a22.2 22.2 0 0 1 9.822.29 78 78 0 0 1 9.158 3.751c4.217 1.846 8.474 3.609 12.736 5.354-2.782-.419-5.573-.646-8.385-.796-3.532-.188-7.073-.3-10.61-.268-3.554.032-7.09.349-10.637.543a.023.023 0 0 0 0 .047c3.144.031 6.283.183 9.427.232 3.141.049 6.28.112 9.416.328 6.262.43 12.356 1.934 18.445 3.361q1.266.297 2.543.543c.12.04.238.085.359.125a.19.19 0 0 0 .176-.03 38.4 38.4 0 0 0 6.13.683c3.176.068 6.34-.268 9.505-.469a141 141 0 0 1 18.741.05c3.492.245 6.986.514 10.464.912q2.011.228 4.027.465.989.134 1.98.247c1.56.201 3.116.422 4.661.695a.122.122 0 0 0 .088-.224c2.218.189 4.438.349 6.654.527a205 205 0 0 0 17.9.622 209 209 0 0 0 18.007-.934c5.9-.556 11.785-1.275 17.705-1.576 11.904-.606 23.688 1.13 35.516 2.155 5.927.514 11.855.698 17.802.738 5.845.038 11.696.013 17.532.387a71.2 71.2 0 0 1 16.652 2.687 28 28 0 0 1 3.098 1.176q-.623-.033-1.245-.058a62 62 0 0 0-6.322.084 52 52 0 0 0-3.15.288 7.6 7.6 0 0 0-2.45.583 2.84 2.84 0 0 0-1.251 1.197 24 24 0 0 0-1.424-1.887c-.017-.022-.048.005-.036.028a29 29 0 0 1 1.265 3.006.7.7 0 0 0 .127.344q.266.738.515 1.463a23.4 23.4 0 0 1 1.14 10.146 22 22 0 0 1-.444 2.565c-.204.872-.302 1.722-.43 2.606a.126.126 0 0 0 .228.097 10 10 0 0 0 .785-1.518c1.213 1.62 3.964 1.503 5.827 1.544 3.029.068 6.06.075 9.09.001a96 96 0 0 0 2.21-.087 5.5 5.5 0 0 0 2.053-.255c1.043-.494 1.056-1.663 1.14-2.66a44 44 0 0 0 .207-8.941 19 19 0 0 0-.639-3.154 14 14 0 0 1 1.355 2.094 10.96 10.96 0 0 1-1.365 12.225 24.75 24.75 0 0 1-10.733 7.046c-10.499 3.846-21.823 4.51-32.894 4.88-5.731.193-11.462.33-17.188.67a416 416 0 0 0-18.045 1.49c-11.878 1.225-23.71 2.856-35.536 4.497-5.616.779-11.302 1.53-16.664 3.459-5.278 1.898-10.007 5.058-14.666 8.125q-1.838 1.21-3.655 2.451c-1.207.828-2.348 1.792-3.588 2.566-.281.175-.023.621.26.445 1.281-.8 2.7-1.42 4.015-2.17q.442-.254.881-.512c.439 1.376.868 2.755 1.332 4.122.365 1.077.692 2.19 1.114 3.253-.007.09-.028.18-.033.27q-.452-.489-.867-1.014c-.317-.867-.665-1.725-.971-2.594a62 62 0 0 1-1.133-3.542.016.016 0 0 0-.03.008 34 34 0 0 0 .978 3.654c.187.566.382 1.146.603 1.715a13 13 0 0 1-1.639-3.082.168.168 0 0 0-.324.089 12.2 12.2 0 0 0 3.873 7.08c.156.258.322.51.498.748a.17.17 0 0 0 .298-.025 19 19 0 0 0 2.2 1.606 26.6 26.6 0 0 0 5.275 2.462q2.7 3.033 5.446 6.021l2.812 3.057a24.5 24.5 0 0 0 2.89 3.001c.05.039.117-.036.085-.086a23.6 23.6 0 0 0-2.684-3.034l-2.906-3.134q-2.688-2.898-5.42-5.75c2.635.91 5.38 1.543 8.076 2.19q15.422 3.697 31.135 5.996c2.598.384 5.2.736 7.806 1.071a57 57 0 0 1 7.489 1.32c4.763 1.27 8.754 4.12 13.06 6.39a86 86 0 0 0 14.034 5.584c4.803 1.536 9.63 2.995 14.427 4.554a268 268 0 0 1 28.127 10.604 126 126 0 0 1 12.969 6.634 20.9 20.9 0 0 1 4.967 3.972 14 14 0 0 0-2.563-1.224 49 49 0 0 0-5.566-2.01 24 24 0 0 0-5.77-1.217.4.4 0 0 0-.172.036 3.1 3.1 0 0 0-.73-1.166.051.051 0 0 0-.08.061 3.78 3.78 0 0 1 .208 2.907 7 7 0 0 1-.448 1.36 3.6 3.6 0 0 0-.572 1.404c-.105.84-.348 1.656-.442 2.5-.104.933-.096 1.857-.24 2.789a23.2 23.2 0 0 1-1.453 5.051c-.322.817-.614 1.646-.969 2.45a9.8 9.8 0 0 0-.85 2.519.095.095 0 0 0 .138.106 3.7 3.7 0 0 0 1.089-.964 8.3 8.3 0 0 0 1.658.746 16.3 16.3 0 0 0 2.66.606c1.68.342 3.323.786 5.028 1.015a24 24 0 0 1 2.663.404 5.3 5.3 0 0 0 2.292.2c1.4-.295 2.317-1.842 3-2.968a19.56 19.56 0 0 0 2.605-8.763 15 15 0 0 0-.018-2.249 10.3 10.3 0 0 0-.259-1.952 10.4 10.4 0 0 1 1.415 3.482 13.23 13.23 0 0 1-2.43 10.193c-2.371 3.236-6.236 4.952-10.119 5.513a38.8 38.8 0 0 1-12.634-.748c-4.915-.927-9.79-2.078-14.691-3.072q-15.593-3.16-31.311-5.657c-10.089-1.602-20.209-3.014-30.361-4.143a25 25 0 0 1 2.845-.075 44 44 0 0 1 4.546.358.094.094 0 0 0 .05-.18 18.4 18.4 0 0 0-3.657-1.098c-1.23-.228-2.494-.3-3.735-.452-2.56-.314-5.183-.178-7.757-.241a50.7 50.7 0 0 1-14.703-2.931c-4.814-1.598-9.527-3.498-14.399-4.924a101 101 0 0 0-15.246-3.183c-.491-.064-.985-.109-1.476-.168-1.852-.303-3.693-.623-5.567-.816a50 50 0 0 1-3.545-.499 13.7 13.7 0 0 0-3.416-.358 11.4 11.4 0 0 0-2.359.483c-.259.023-.517.052-.777.067-1.164.068-2.35.057-3.514.026-2.49-.064-4.972-.273-7.463-.324-2.478-.052-4.959-.088-7.43-.302a23.5 23.5 0 0 1-7.165-1.462c-.045-.018-.077.058-.033.079a30.6 30.6 0 0 0 8.611 2.374c-1.246.17-2.49.393-3.745.517a48 48 0 0 1-6.504.304c-.043-.001-.054.07-.01.077a30.6 30.6 0 0 0 6.632.46 33 33 0 0 0 3.173-.368 9.6 9.6 0 0 0 2.536-.721l.346.041c2.546.282 5.101.666 7.664.895a24 24 0 0 0 3.236.344c.953.026 1.91.065 2.863-.002a30 30 0 0 1 .71 6.83.027.027 0 0 0 .056 0 22.7 22.7 0 0 0-.696-6.835c.1-.007.198-.01.297-.02a11 11 0 0 0 1.308-.239 1.8 1.8 0 0 0-.254.8 2.1 2.1 0 0 0 .092.694 9.2 9.2 0 0 0 .672 3.996 40 40 0 0 1-1.1 5.864c-.25.92-.547 1.826-.867 2.724a21 21 0 0 0-1 2.798c-.087.429.506.734.738.311a11.5 11.5 0 0 0 .879-2.825c.24-1 .443-2.007.63-3.017a58 58 0 0 0 .782-5.632c.075.275.144.546.19.808a15.76 15.76 0 0 1-.785 7.489 54 54 0 0 1-2.895 6.896 49.5 49.5 0 0 1-3.242 5.925q-.452.684-.946 1.341.207-.466.419-.93l1.293-2.866q1.34-2.966 2.693-5.926c.016-.037-.037-.069-.054-.032q-1.378 2.945-2.76 5.888l-1.338 2.838c-.223.473-.44.949-.68 1.413-.083.157-.178.312-.267.469a18 18 0 0 1-2.701 2.665 18.7 18.7 0 0 1-6.095 3.025c-4.763 1.46-9.86 1.77-14.788 2.295q-4.618.493-9.257.696c-3.09.134-6.177.368-9.269.414a.04.04 0 0 0 0 .078c1.706.115 3.41.233 5.115.318-.608.053-1.216.107-1.824.15-1.68.119-3.345.333-5.03.399-3.382.132-6.803.338-10.185.173-.056-.003-.055.08 0 .086 1.72.15 3.433.343 5.15.506 1.715.163 3.436.185 5.158.189.7.001 1.402.014 2.104.023.445 2.108.763 4.239 1.127 6.362a32.5 32.5 0 0 0 1.201 5.363 38 38 0 0 1-2.795 6.62c-3.365 5.933-9.195 10.015-14.73 13.752-.364.246-.738.476-1.103.72q.597-.592 1.187-1.19c.126-.128-.041-.365-.2-.257-3.32 2.261-6.623 4.602-10.112 6.607a27.4 27.4 0 0 1-10.908 3.97c-4.514.435-8.95-.675-13.203-2.09-2.196-.73-4.353-1.568-6.549-2.3q-3.4-1.135-6.8-2.273c-2.503-.842-4.967-1.798-7.464-2.654-2.574-.883-5.167-1.706-7.733-2.61-.058-.02-.079.068-.025.09 4.53 1.862 9.004 3.842 13.55 5.666l.405.169c-.49-.111-.978-.228-1.468-.338l-3.91-.875c-1.35-.303-2.69-.689-4.05-.93l-15.986-2.824c-10.377-1.834-20.84-3.42-31.122-5.745a106 106 0 0 1-14.446-4.236 91 91 0 0 1-13.331-6.564c-8.505-4.953-16.648-10.51-25.833-14.177a104.5 104.5 0 0 0-14.502-4.453c-1.793-.429-3.604-.84-5.42-1.233-.861-.767-1.784-1.473-2.699-2.166q-.373-.281-.751-.557c.565.058 1.13.12 1.689.206.121.019.24.044.361.063 1.275.917 2.557 1.824 3.884 2.665.03.02.055-.027.027-.047-1.22-.908-2.484-1.755-3.755-2.591a37 37 0 0 1 7.557 1.983c.123.048.208-.155.09-.214a33 33 0 0 0-6.824-2.54A40 40 0 0 0 64.76 165a27 27 0 0 0-5.276.224h-.001a.32.32 0 0 0-.205.024c-.676.1-1.35.218-2.018.366a45.5 45.5 0 0 1-7.667 1.459c-5.17.236-10.129-1.606-15.059-2.89a58 58 0 0 0-3.807-.864 39 39 0 0 0-3.942-.446c-2.688-.235-5.38-.385-8.068-.64-6.227-.591-12.467-1.013-18.692-1.641-.035-.004-.034.05 0 .055 5.499.662 10.974 1.483 16.464 2.205 2.704.356 5.41.66 8.09 1.165 1.302.245 2.572.544 3.855.856 1.322.321 2.682.502 4.009.814 4.945 1.16 9.76 3.017 14.87 3.34 3.492.22 6.793-.67 10.124-1.46.335.165.707.285 1.038.409a13 13 0 0 0 1.605.502 9.3 9.3 0 0 0 2.48.265q.075.016.148.034c1.21.307 2.427.55 3.649.804 2.488.514 4.976 1.035 7.452 1.606a136 136 0 0 1 14.603 4.197 88 88 0 0 1 13.626 6.204c4.301 2.4 8.461 5.041 12.684 7.576a112 112 0 0 0 12.906 6.865 93.4 93.4 0 0 0 14.378 4.801c10.132 2.56 20.529 4.091 30.812 5.908l16.131 2.85c5.333.943 10.721 1.597 16.1 2.245l1.019.122c3.14 1.352 6.263 2.743 9.48 3.912 4.332 1.574 8.9 2.843 13.55 2.676a25.95 25.95 0 0 0 11.828-3.57 34.4 34.4 0 0 0 4.193-2.852c.531-.237 1.066-.467 1.59-.721a62 62 0 0 0 5.266-2.846 67.7 67.7 0 0 0 9.076-6.568 31.5 31.5 0 0 0 6.903-8.103c1.964-3.46 3.064-7.382 4.34-11.128a64 64 0 0 0 2.119-6.62 4.9 4.9 0 0 0 .01-2.09c.097-.032.196-.054.29-.095a.57.57 0 0 0 .185-.828c2.71 0 5.425-.081 8.132-.198q4.193-.18 8.368-.648a58 58 0 0 0 7.149-1.15 22.3 22.3 0 0 0 6.55-2.625 19.2 19.2 0 0 0 4.977-4.58 36 36 0 0 0 3.587-5.807c1.11-2.178 2.159-4.401 3.077-6.667a22.4 22.4 0 0 0 1.926-8.519 13.8 13.8 0 0 0-.395-3.058 19 19 0 0 0-.218-2.811 18 18 0 0 0-.47-2.878c.196-.038.39-.078.589-.103a23 23 0 0 1 3.05-.062q.764.055 1.527.113c2.591.202 5.181.487 7.749.897a115 115 0 0 1 15.099 3.501c9.564 2.891 18.748 7.632 28.833 8.465.307.025.614.03.921.047.036.03.058.067.111.083a22 22 0 0 0 3.761.967q2.063.242 4.124.495c2.647.325 5.29.676 7.935 1.012q8.028 1.018 16.032 2.213 15.964 2.381 31.816 5.45 7.923 1.533 15.812 3.238a81.7 81.7 0 0 0 13.208 2.128 22.9 22.9 0 0 0 12.202-2.35 15.14 15.14 0 0 0 7.136-8.74 13.92 13.92 0 0 0-.891-10.875m-9.321-101.054c-.075.686-.142 1.376-.249 2.058-.065.418-.116 1.045-.557 1.225a5.4 5.4 0 0 1-1.753.093c-.737.013-1.473.02-2.21.037q-4.053.088-8.107.015a21 21 0 0 1-4.523-.25 2.85 2.85 0 0 1-1.527-.881c-.033-.04-.092-.151-.164-.274q.256-1.139.4-2.297a23.3 23.3 0 0 0-1.217-10.777 17 17 0 0 0-.67-1.571 3.4 3.4 0 0 1 .22-.658 2.7 2.7 0 0 1 1.972-1.057 43 43 0 0 1 5.406-.438q2.674-.103 5.35.024c.854.04 1.713.08 2.562.184a10 10 0 0 1 .948.183 18.5 18.5 0 0 1 2.793 2.09c.145.298.282.6.402.913a17.3 17.3 0 0 1 .895 3.35 29.6 29.6 0 0 1 .029 8.031m-139.05 31.977c-.085.109-.175.219-.257.326-.268.35-.506.726-.759 1.09l-.126-.391c-.032-.097-.073-.19-.108-.284.416-.248.83-.5 1.25-.74m-1.405.832c.028.09.06.18.087.27q.078.27.143.542c-.223.327-.435.66-.65.993-.043-.134-.078-.27-.12-.404-.097-.298-.2-.596-.318-.888zm-1.076.643c.09.29.184.578.269.868q.088.312.168.627c-.24.378-.465.762-.695 1.145-.07-.194-.132-.391-.209-.582a23 23 0 0 0-.63-1.402q.547-.329 1.097-.656m-1.183.706c.208.487.406.979.584 1.478.078.217.147.437.22.656-.1.167-.207.33-.303.5q-.254.447-.497.903c-.131-.373-.271-.743-.405-1.106-.219-.598-.455-1.188-.69-1.778zm-2.058 8.869c-.024-.056-.06-.102-.082-.16-.007-.019-.037-.01-.03.008.025.077.067.143.097.216-.03.166-.036.334-.06.5-.296-.92-.643-1.829-.955-2.733-.466-1.352-.967-2.692-1.457-4.036q.34-.199.683-.396c.366 1.32.741 2.639 1.163 3.943q.31.963.623 1.925.056.174.107.354c-.028.127-.065.251-.089.379m.633-2.225c-.082-.28-.156-.561-.242-.84a53 53 0 0 0-1.352-3.869c-.011-.027-.055-.017-.045.012q.523 1.668 1.03 3.342c.166.548.322 1.099.482 1.648l.012.043c-.081.234-.169.466-.239.703-.029.098-.044.2-.07.3l-.601-1.84a97 97 0 0 0-1.386-3.89c.547-.317 1.095-.631 1.64-.95.266.731.534 1.462.77 2.205q.255.801.472 1.613l.059.227q-.288.64-.53 1.296m.66-1.637q-.232-.808-.501-1.605a27 27 0 0 0-.834-2.156l.505-.293.415-.247c.18.614.358 1.23.559 1.838.144.438.283.888.44 1.33q-.3.577-.575 1.167Zm149.832 70.05a18 18 0 0 1-1.633 3.955 17 17 0 0 1-1.043 1.64 4.5 4.5 0 0 1-1.55 1.58 7.8 7.8 0 0 1-1.995.437 9 9 0 0 1-2.518.087 22.3 22.3 0 0 1-5.318-1.113c-.839-.308-1.57-.82-2.39-1.16-.583-.241-1.14-.549-1.734-.74a9.4 9.4 0 0 0 .98-2.936c.329-1.952.367-3.92.79-5.863a28 28 0 0 1 .88-2.712c.157-.48.277-.978.465-1.448a5.3 5.3 0 0 0 .56-1.416 14.4 14.4 0 0 0 .424-2.903c-.007-.078-.026-.152-.037-.228 1.498.46 3.08.689 4.593 1.11q2.232.62 4.396 1.453 1.126.434 2.228.927a14 14 0 0 1 2.156 1.065 2.65 2.65 0 0 1 .907 1.786 13 13 0 0 1 .23 2.213 14.2 14.2 0 0 1-.39 4.266M59.586 167.338c-.163-.049-.326-.096-.488-.149q.742-.16 1.49-.297.24.162.486.317a8 8 0 0 0-1.488.13m3.58.124q-.48-.284-.954-.575l-.319-.198c.14-.02.28-.046.42-.063.54-.066 1.075-.138 1.612-.205.351.288.705.572 1.072.84.292.212.593.403.893.597-.908-.142-1.816-.286-2.724-.396m3.413.496q-.652-.493-1.307-.985-.41-.307-.816-.616a19 19 0 0 1 1.713-.112c.12.098.237.198.359.293q.667.519 1.336 1.036.526.408 1.062.806c-.782-.148-1.564-.293-2.347-.422m2.874.517a77 77 0 0 0-1.985-1.548c-.31-.235-.626-.462-.94-.693h.016q1.036.013 2.073.106.213.164.428.325.81.61 1.601 1.243c.451.36.895.731 1.341 1.098-.844-.18-1.687-.367-2.534-.531m199.76 17.299a28 28 0 0 1-.473-1.708 55 55 0 0 1-.657-3.344 61 61 0 0 0-1.251-6.179c.588.007 1.177.013 1.764.003.127.568.261 1.134.367 1.706.146.79.254 1.585.386 2.377.133.788.272 1.575.46 2.352a10 10 0 0 0 .478 1.552c-.363 1.071-.714 2.157-1.075 3.24m1.219-3.66c-.135-.455-.274-.909-.382-1.37-.182-.78-.315-1.567-.45-2.356a22.4 22.4 0 0 0-.84-3.847c.295-.006.59-.011.884-.027.213-.01.426-.027.64-.04.18.907.41 1.807.654 2.698.173.636.35 1.27.545 1.899a306 306 0 0 0-1.051 3.042m1.846-5.238c-.226.594-.435 1.193-.648 1.79-.134-.524-.283-1.045-.428-1.567a40 40 0 0 0-.809-2.632q.677-.04 1.354-.086c.031.098.054.197.088.295a1.1 1.1 0 0 1-.068.532c-.009.02.025.034.036.015a1.5 1.5 0 0 0 .117-.286c.024.075.053.15.073.224q.169.609.297 1.228l.062.303zm.382-.978c-.074-.303-.146-.606-.234-.905-.06-.206-.118-.427-.187-.644q.364-.026.734-.05a3.8 3.8 0 0 1-.313 1.599"/><path fill="currentColor" d="M271.03 69.41a31 31 0 0 0-3.083-1.05q-1.598-.516-3.202-1.008a90 90 0 0 0-3.227-.916 13.8 13.8 0 0 0-3.187-.644.055.055 0 0 0-.028.101 13.8 13.8 0 0 0 3.05 1.146c1.027.318 2.062.623 3.1.904q1.56.423 3.126.816a33 33 0 0 0 3.387.802c.082.011.157-.109.063-.15m-9.153-.007a14.2 14.2 0 0 0-3.553-1.32 34 34 0 0 0-3.823-.842.016.016 0 0 0-.008.03c1.227.367 2.46.712 3.677 1.11a27 27 0 0 0 3.671 1.107.047.047 0 0 0 .036-.085m-9.933-1.226c-.023-.011-.043.023-.02.034l1.547.735c.018.009.033-.018.015-.027zm6.141-32.097a33 33 0 0 0-4.995 2.213c-.797.434-1.579.902-2.348 1.385-.78.49-1.635.947-2.375 1.491a8 8 0 0 0-.954.995c-.315.327-.633.652-.945.984q-.935.996-1.78 2.072a44 44 0 0 0-1.533 2.067 12.5 12.5 0 0 0-1.43 2.347c-.031.078.092.15.144.084.524-.665.92-1.44 1.408-2.134a23 23 0 0 1 1.665-2.109q.907-1.018 1.902-1.952c.332-.312.668-.621 1.027-.902.335-.262.729-.456 1.04-.747.642-.6 1.2-1.244 1.9-1.79a24 24 0 0 1 2.293-1.574 28.4 28.4 0 0 1 4.996-2.377c.032-.012.019-.064-.015-.053M245.6 41.96a27.4 27.4 0 0 0-4.58 4.166 11.3 11.3 0 0 0-1.53 2.41c-.1.22-.185.446-.281.67a1.03 1.03 0 0 1-.821.634c-.605.155-1.194.36-1.787.554a.023.023 0 0 0 .012.045 18 18 0 0 0 1.93-.301 1.19 1.19 0 0 0 .892-.688c.232-.511.407-1.037.676-1.534a12 12 0 0 1 .834-1.312 27.3 27.3 0 0 1 4.678-4.621c.015-.013-.007-.034-.022-.022m-11.424 8.952q-.583.119-1.176.182-.287.03-.576.047-.133.008-.267.013a1 1 0 0 0-.28.021.051.051 0 0 0 0 .098 1 1 0 0 0 .28 0l.312-.022q.288-.025.576-.064.58-.077 1.15-.207c.044-.01.025-.077-.019-.068m121.742 8.1c-.548-.373-1.236-.477-1.815-.8a13.5 13.5 0 0 1-1.632-1.179c-.998-.773-2.049-1.469-3.081-2.194-.029-.02-.065.026-.038.05a33 33 0 0 0 3.05 2.335 16 16 0 0 1 1.71 1.174 13 13 0 0 0 1.387 1.33c.455.29.855-.417.419-.716m3.983.322a1.6 1.6 0 0 0-.462-.447q-.294-.227-.595-.446-.62-.45-1.266-.863a23 23 0 0 0-2.657-1.447c-.023-.01-.042.021-.02.034a33 33 0 0 1 2.514 1.604q.615.43 1.204.892.292.23.578.469a1.9 1.9 0 0 0 .563.388.126.126 0 0 0 .14-.184m3.771-.754a5 5 0 0 0-.49-.47 5 5 0 0 0-.58-.388 7 7 0 0 0-1.254-.543c-.03-.01-.047.035-.02.05.393.222.756.485 1.138.725.188.118.368.247.558.36.196.117.395.225.591.34a.047.047 0 0 0 .057-.074m-43.98 15.461a1.6 1.6 0 0 0-.23-.224c-.152-.135-.3-.274-.456-.403l-.941-.775q-.939-.776-1.867-1.566c-.034-.03-.083.018-.05.05q.891.824 1.77 1.662l.852.815c.146.14.3.271.453.405.072.063.143.128.22.186a1.6 1.6 0 0 0 .282.142c.053.025.122-.03.086-.086-.043-.067-.072-.143-.12-.206m-3.548 1.148c-.09-.129-.177-.258-.273-.382l-.594-.766c-.022-.028-.07.009-.05.038l.556.796c.09.128.188.25.284.374.098.127.193.259.303.376a.027.027 0 0 0 .043-.033c-.079-.141-.177-.27-.269-.403m76.249-20.18a9 9 0 0 0-1.064-.942q-.553-.451-1.098-.912a123 123 0 0 1-2.166-1.86c-.056-.05-.138.03-.083.083.7.662 1.409 1.317 2.14 1.946q.54.465 1.088.92a7.4 7.4 0 0 0 1.131.832.043.043 0 0 0 .052-.067m4.848.26a41 41 0 0 0-3.262-2.925c-1.112-.955-2.242-1.889-3.343-2.857-.026-.023-.064.014-.039.039 1.05 1.045 2.103 2.095 3.203 3.086a26 26 0 0 0 3.38 2.737c.05.032.1-.038.06-.08m-3.192-7.672c-.014-.01-.032.013-.019.025a50 50 0 0 1 3.908 3.63c.036.036.086-.017.055-.056a17.5 17.5 0 0 0-3.944-3.599m8.05 7.092a1.8 1.8 0 0 0-.563-.585c-.214-.177-.443-.337-.664-.504-.446-.335-.874-.69-1.303-1.045-.038-.032-.091.019-.055.055.39.389.778.776 1.15 1.183.182.2.359.408.548.6.095.097.19.196.291.285a1.1 1.1 0 0 0 .36.248c.128.039.293-.099.236-.237m3.474-1.389-.967-.829c-.686-.587-1.37-1.176-2.06-1.757q-2.048-1.72-4.13-3.393c-.015-.012-.037.008-.022.022q1.99 1.832 4.021 3.614c.658.578 1.323 1.147 1.986 1.719l1.025.884a2.9 2.9 0 0 0 .932.683.063.063 0 0 0 .071-.092 3.1 3.1 0 0 0-.856-.851m5.431.466q-.183-.203-.362-.408c-.022-.024-.047-.002-.051.024-.474-.442-.974-.864-1.455-1.292l-1.876-1.668a440 440 0 0 0-3.777-3.31c-.023-.019-.056.013-.033.034a440 440 0 0 0 3.687 3.4l1.802 1.637c.633.575 1.246 1.202 1.92 1.728a.103.103 0 0 0 .145-.145m3.275-.381-.821-.762-1.597-1.481c-1.065-.988-2.149-1.956-3.224-2.932-.014-.014-.036.008-.022.022 1.04 1.012 2.072 2.033 3.122 3.034l1.532 1.458.81.773a3.2 3.2 0 0 0 .775.652.055.055 0 0 0 .075-.075 3 3 0 0 0-.65-.689m4.793.734a10 10 0 0 0-1.158-1.138l-1.241-1.123-2.447-2.214c-.026-.023-.064.015-.038.039l2.422 2.305 1.177 1.12a10 10 0 0 0 1.233 1.079c.043.03.08-.033.052-.068m2.304-1.926q-.935-.8-1.944-1.508c-.036-.025-.081.033-.047.061q.937.777 1.798 1.64c.283.285.578.557.858.845a9 9 0 0 0 .914.833c.035.028.094-.006.067-.052a7.8 7.8 0 0 0-1.646-1.82m2.916.536c-.46-.435-.932-.855-1.405-1.275-.015-.013-.037.008-.022.022.462.432.924.863 1.4 1.28.019.017.046-.01.028-.027m16.335-.896a.023.023 0 0 0-.024.04c.557.334 1.11.676 1.673 1a.016.016 0 0 0 .016-.028c-.549-.347-1.11-.676-1.665-1.012m6.662 1.489c-1.385-.842-2.812-1.61-4.229-2.396a.043.043 0 0 0-.043.075c1.409.8 2.808 1.618 4.248 2.361a.023.023 0 0 0 .024-.04m3.832-.524c-1.545-.824-3.156-1.519-4.75-2.243-.018-.008-.034.018-.015.027 1.572.774 3.132 1.578 4.75 2.252.02.008.034-.026.015-.036m2.657-.458c-.705-.414-1.45-.762-2.18-1.132-.026-.013-.05.026-.023.04.721.384 1.435.795 2.179 1.133.027.012.05-.025.024-.04m-57.42 93.04c-1.31-1.154-2.624-2.307-3.88-3.52a.027.027 0 0 0-.038.038 22.7 22.7 0 0 0 3.88 3.531c.029.02.064-.025.038-.049m5.46.801c-1.968-1.908-4.063-3.685-6.119-5.498-.037-.033-.092.021-.055.055 2.025 1.847 4.02 3.737 6.13 5.487.03.026.074-.015.044-.044m1.247-1.95a174 174 0 0 1-3.884-4.09c-.028-.03-.07.014-.044.044a85 85 0 0 0 3.779 4.195 39 39 0 0 0 4.084 3.896.035.035 0 0 0 .05-.05c-1.248-1.398-2.67-2.66-3.985-3.995m3.692.265q-1.845-1.889-3.73-3.736a.043.043 0 0 0-.06.061q1.771 1.961 3.588 3.878c1.206 1.276 2.425 2.56 3.733 3.733a.04.04 0 0 0 .055-.055c-1.122-1.354-2.358-2.623-3.586-3.88m4.62 1.124c-1.162-1.283-2.337-2.553-3.506-3.83-.03-.033-.08.016-.05.05 1.143 1.302 2.28 2.61 3.43 3.907 1.145 1.29 2.269 2.625 3.503 3.832.037.036.086-.017.055-.055-1.067-1.36-2.271-2.624-3.432-3.904m6.439 3.452q-.394-.398-.783-.801-.798-.83-1.57-1.684-1.523-1.684-2.94-3.459c-.025-.032-.069.013-.044.044q1.403 1.787 2.911 3.488.744.838 1.513 1.653.384.407.775.81a4.8 4.8 0 0 0 .776.732.035.035 0 0 0 .048-.048 5 5 0 0 0-.686-.735m4.651 1.244q-.226-.26-.46-.512l-.953-1.047-1.88-2.062c-.021-.023-.053.01-.034.033l1.786 2.157.88 1.064c.146.177.29.356.443.528a1.2 1.2 0 0 0 .453.385c.042.015.075-.03.067-.067a1.1 1.1 0 0 0-.302-.479m3.898.93-.61-.587c-.204-.195-.437-.364-.656-.542-.431-.35-.883-.674-1.331-1.003-.032-.024-.072.028-.043.055.416.384.827.771 1.26 1.134.204.17.403.355.619.51l.71.5c.04.029.086-.034.051-.067m16.587.397c-.025-.026-.06.012-.038.038a17 17 0 0 0 1.869 2.085c.031.027.089-.01.061-.047a17 17 0 0 0-1.892-2.076m6.152 3.043q-.343-.34-.68-.686a90 90 0 0 1-1.298-1.356q-1.279-1.373-2.446-2.845c-.046-.058-.15.02-.104.08q1.117 1.494 2.344 2.899c.413.471.834.935 1.274 1.382q.32.325.647.645a4.4 4.4 0 0 0 .733.573c.032.02.077-.021.053-.053a5 5 0 0 0-.523-.64m3.482.352q-.349-.328-.69-.663-.721-.707-1.412-1.444a59 59 0 0 1-2.638-2.981c-.033-.041-.106.014-.073.056a41 41 0 0 0 2.56 3.076q.688.74 1.407 1.45.36.354.726.701a2.3 2.3 0 0 0 .687.555c.053.02.086-.044.066-.086a2.6 2.6 0 0 0-.633-.664m2.077-.746c-.743-.724-1.51-1.424-2.254-2.148-.018-.018-.044.009-.027.028.687.777 1.374 1.56 2.105 2.296a15.3 15.3 0 0 0 2.248 2.05c.034.023.085-.024.059-.059a21 21 0 0 0-2.13-2.167m5.496 2.238a6 6 0 0 0-.6-.43c-.221-.144-.436-.298-.656-.445a12 12 0 0 1-1.258-.963c-.064-.055-.155.034-.094.094a13 13 0 0 0 1.2 1.04 7 7 0 0 0 .663.435 3.3 3.3 0 0 0 .71.328c.033.01.062-.036.035-.059m2.859.621a4 4 0 0 0-.399-.347 7 7 0 0 0-.914-.572c-.067-.035-.126.064-.06.1a6.6 6.6 0 0 1 .875.577c.134.106.27.208.402.317.135.112.26.237.396.347.028.023.08-.007.055-.042a3 3 0 0 0-.355-.38M322.56 130.457a18.6 18.6 0 0 0-3.608-2.515.016.016 0 0 0-.016.027c1.253.763 2.423 1.646 3.596 2.525.02.016.047-.02.028-.037m3.18.525a21 21 0 0 0-3.078-2.287c-.022-.014-.041.02-.02.033a34 34 0 0 1 3.064 2.287c.023.019.056-.012.034-.033m3.825.642c-1.52-1.217-3.154-2.302-4.74-3.431-.025-.018-.048.023-.024.04 1.568 1.151 3.11 2.361 4.74 3.422.019.012.042-.017.024-.03m3.458.115a19 19 0 0 0-4.478-2.938c-.022-.01-.042.022-.02.034a32 32 0 0 1 4.47 2.94c.021.016.048-.019.028-.037m-19.643 4.104c-.004-.03-.056-.024-.053.007.177 1.955.17 3.921.349 5.874a.05.05 0 0 0 .101 0 23.6 23.6 0 0 0-.396-5.881m-1.183 1.917c-.007-.043-.082-.033-.077.01a13 13 0 0 1 .078 1.593c-.009.532-.053 1.062-.059 1.594a.04.04 0 0 0 .077.01 8.5 8.5 0 0 0-.02-3.207m-1.621.645a.047.047 0 0 0-.093 0c-.013.303-.038.608-.04.911a6 6 0 0 0 .056.885.032.032 0 0 0 .06 0 6 6 0 0 0 .056-.885c-.003-.303-.026-.608-.039-.91m-58.129-22.896c-.026-.003-.032.043-.006.047 5.118.71 10.167 1.748 15.2 2.914a.016.016 0 0 0 .008-.03 121 121 0 0 0-15.202-2.93m22.249 6.409a15 15 0 0 0-2.014-.458q-1.003-.246-2.001-.506-1.999-.515-4.011-.976a149 149 0 0 0-8.098-1.613c-.014-.002-.02.02-.006.023q4.062.732 8.08 1.677 1.95.457 3.888.966a51 51 0 0 1 1.987.558 19 19 0 0 0 2.074.699.192.192 0 0 0 .101-.37m4.981 1.011c-.102-.128-.34-.145-.49-.172-.172-.03-.342-.062-.516-.08q-.54-.053-1.081-.113c-.031-.004-.036.046-.007.054q.53.141 1.058.288c.17.047.343.078.516.112a.8.8 0 0 0 .507.01.064.064 0 0 0 .013-.099m-25.809 17.563a38.6 38.6 0 0 0-13.441-.396c-.048.006-.037.089.011.084a56 56 0 0 1 13.403.41c.063.009.092-.084.027-.098m13.037 46.492c-.136-.555-.232-1.127-.336-1.688-.208-1.13-.38-2.266-.595-3.395-.429-2.251-.84-4.506-1.271-6.757-.008-.04-.066-.022-.06.016.328 2.232.719 4.452 1.13 6.67.202 1.086.45 2.163.687 3.242.122.56.244 1.12.35 1.684a10.5 10.5 0 0 0 .324 1.69c.017.047.096.045.093-.012a8 8 0 0 0-.322-1.45m-2.434-1.738a.043.043 0 0 0-.083.023c.282 1.195.539 2.399.894 3.574a.027.027 0 0 0 .053-.014c-.23-1.207-.56-2.393-.864-3.583m-17.846 22.396a2.3 2.3 0 0 0-.85-.43q-.597-.226-1.196-.45l-2.39-.9c-1.594-.6-3.196-1.174-4.797-1.75-.029-.01-.04.034-.013.045 1.552.637 3.103 1.276 4.664 1.89l2.296.904 1.19.469a2.6 2.6 0 0 0 1.06.308.051.051 0 0 0 .036-.086m1.652-1.941a.055.055 0 0 0-.02-.074l-.03-.017.007.007a.13.13 0 0 0-.09-.051l-.11-.002h-.055l-.018-.003-.01-.002-.05-.014c-.006-.003-.038-.01-.01-.004l-.022-.01-.048-.027-.02-.013-.01-.008a.102.102 0 0 0-.144.143.7.7 0 0 0 .114.09l.048.027.03.013a.3.3 0 0 1 .048.02l.015.007.015.006.03.01.053.014a.4.4 0 0 0 .178-.002.12.12 0 0 0 .064-.045.1.1 0 0 0 .012-.033q.012-.014.023-.032"/><path fill="currentColor" d="m247.789 205.483.001.002q.014.01-.001-.002m2.423-1.201a9.3 9.3 0 0 0-1.75-.707c-.622-.237-1.246-.467-1.868-.704-1.241-.472-2.492-.917-3.73-1.397-.038-.014-.064.048-.028.064 1.202.535 2.398 1.082 3.618 1.575.618.25 1.235.501 1.858.737a9 9 0 0 0 1.845.636c.116.016.137-.15.055-.204m2.392-1.476a10 10 0 0 0-1.124-.431c-.393-.12-.79-.227-1.184-.341-.07-.02-.094.081-.03.105.38.14.758.285 1.139.422a10 10 0 0 0 1.166.324c.044.01.08-.058.033-.079m-142.036-22.311c-.588-.61-1.18-1.217-1.768-1.829q-1.761-1.832-3.365-3.803c-.05-.062-.158.02-.11.085a70 70 0 0 0 3.152 3.944c.553.642 1.13 1.268 1.73 1.868a10 10 0 0 0 1.895 1.628c.052.03.121-.032.086-.086a14 14 0 0 0-1.62-1.807m8.014 5.411c-1.002-1.154-2.073-2.241-3.05-3.42-.978-1.181-1.901-2.404-2.858-3.602q-2.861-3.581-5.716-7.168c-.016-.02-.052.007-.037.029q2.62 3.714 5.46 7.262c.957 1.192 1.967 2.34 2.942 3.518 1 1.21 1.924 2.483 2.934 3.683.157.193.546-.048.325-.302m5.93 3.504a7.5 7.5 0 0 0-1.222-1.742c-.57-.724-1.147-1.443-1.68-2.195-.972-1.368-1.932-2.745-2.895-4.12a85 85 0 0 0-5.778-7.959c-.024-.027-.067.008-.05.038 1.684 2.852 3.826 5.415 5.723 8.124.939 1.34 1.866 2.687 2.77 4.052.45.68.862 1.387 1.271 2.093a9 9 0 0 0 1.293 2.04l.005-.013c.232.214.7.03.563-.317m3.191-.02c-.468-.59-.895-1.21-1.314-1.836a166 166 0 0 1-2.39-3.646c-1.533-2.422-2.96-4.921-4.66-7.232a.02.02 0 0 0-.034.02 68 68 0 0 0 4.54 7.441c.782 1.178 1.552 2.363 2.336 3.538a35 35 0 0 1 1.17 1.837c.26.45.463 1.156 1.017 1.293a.087.087 0 0 0 .11-.082c.063-.538-.466-.944-.775-1.333m5.579 2.857a6 6 0 0 0-1.099-1.28 13 13 0 0 1-1.218-1.58c-.68-1.02-1.282-2.088-1.886-3.155a36.6 36.6 0 0 0-3.905-5.992c-.02-.023-.061.008-.043.033 1.454 2.018 2.685 4.176 3.934 6.323a86 86 0 0 0 1.903 3.144c.327.511.645 1.031.96 1.55a3.8 3.8 0 0 0 1.017 1.293c.216.152.439-.135.337-.336m4.063.703c-.387-.465-.777-.923-1.146-1.403-.66-.86-1.274-1.747-1.891-2.637-1.252-1.805-2.488-3.625-3.822-5.37-.015-.02-.047-.003-.034.02 1.17 1.894 2.447 3.722 3.704 5.56.629.92 1.254 1.838 1.833 2.79.29.476.545.97.825 1.45.21.361.42.733.84.848a.167.167 0 0 0 .208-.158 1.57 1.57 0 0 0-.517-1.1m5.583 2.369a11.8 11.8 0 0 0-1.771-2.406q-.975-1.291-1.908-2.615a29 29 0 0 1-1.637-2.665 13 13 0 0 0-1.632-2.584.09.09 0 0 0-.15.087 10.6 10.6 0 0 0 1.517 2.539c.627.877 1.255 1.752 1.828 2.666a161 161 0 0 0 1.683 2.634 10.6 10.6 0 0 0 1.756 2.526c.127.103.39.011.314-.183m5.637 1.446a4.3 4.3 0 0 0-.822-1.087q-.504-.56-1.004-1.123a30 30 0 0 1-2.036-2.592 246 246 0 0 0-3.624-4.972c-.032-.044-.105-.004-.074.043a63 63 0 0 0 3.619 4.99c.69.857 1.359 1.726 1.988 2.629q.43.617.866 1.23a4.1 4.1 0 0 0 .916 1.054c.114.08.215-.07.17-.172m3.78.256-.748-.91c-.53-.645-1.05-1.298-1.573-1.95l-3.089-3.852c-.016-.02-.053.007-.037.028l2.978 3.939c.489.646.98 1.291 1.461 1.943l.7.947c.19.258.355.57.67.68a.067.067 0 0 0 .084-.065 1.46 1.46 0 0 0-.446-.76m5.233.949q-.284-.34-.573-.676l-1.159-1.337q-1.16-1.338-2.307-2.686c-.02-.023-.052.01-.033.033q1.102 1.358 2.199 2.72l1.078 1.346q.26.326.527.647a2.1 2.1 0 0 0 .588.608.06.06 0 0 0 .086-.066 1.7 1.7 0 0 0-.406-.59m3.788-.152a16 16 0 0 1-1.293-1.74.05.05 0 0 0-.087.05 11 11 0 0 0 1.131 1.858 5.2 5.2 0 0 0 1.554 1.489c.039.02.092-.024.064-.064-.397-.58-.92-1.054-1.37-1.593m6.206 2.358a9 9 0 0 0-.984-.873l-1.06-.801c-.039-.03-.089.035-.052.067q.5.44 1.001.878a9.4 9.4 0 0 0 1.052.784c.034.022.07-.027.043-.055m-67.516-28.608c-.016-.02-.05.006-.037.029a34.5 34.5 0 0 0 4.927 6.433c.02.021.062-.008.043-.033q-2.446-3.23-4.933-6.429m-3.18-.511c-.02-.027-.066-.003-.047.027a35 35 0 0 0 2.895 4.128c.04.044.108-.013.08-.062a35 35 0 0 0-2.928-4.093m-4.862-.92c-.846-.603-1.714-1.173-2.58-1.747-.034-.023-.065.031-.032.054.858.586 1.711 1.177 2.589 1.734.025.016.047-.023.023-.04m-13.941-.335a16.7 16.7 0 0 0-3.193-2.047c-.036-.017-.068.036-.032.054a21 21 0 0 1 3.197 2.03c.02.015.049-.02.028-.037m-10.987-6.976a25 25 0 0 0-11.256 1.172c-.028.01-.016.054.013.045a31.1 31.1 0 0 1 11.234-1.155c.035.002.044-.057.009-.062m-7.534-1.987a37 37 0 0 0-3.84.62c-.016.003-.013.032.005.03a37 37 0 0 0 3.844-.589c.033-.007.027-.064-.009-.061m6.907-.076a1.5 1.5 0 0 0-.28-.065q-.136-.01-.271-.016c-.196-.01-.392-.004-.588-.004q-.587-.001-1.175-.01c-.025 0-.025.038 0 .04q.588.046 1.175.1c.196.02.392.044.588.052q.135.008.27.01a1.6 1.6 0 0 0 .281-.04c.036-.006.032-.058 0-.067m-4.348-2.523a25.8 25.8 0 0 0-5.76.934.016.016 0 0 0 .008.03 47 47 0 0 1 5.752-.918c.03-.003.03-.048 0-.047m-2.306-2.283a3 3 0 0 0-.717.071c-.25.04-.498.09-.746.141l-1.485.304c-.05.01-.027.082.021.075l1.51-.213c.251-.036.502-.071.752-.118a3 3 0 0 0 .688-.173c.047-.021.018-.084-.023-.087m-1.787-2.415a7 7 0 0 0-1.207.163l-1.228.225c-.05.01-.028.082.02.076l1.22-.17a7 7 0 0 0 1.204-.225.035.035 0 0 0-.01-.069M46.177 20.654c-.035-.021-.064.031-.032.054 3.117 2.213 5.992 4.706 8.884 7.198a.055.055 0 0 0 .077-.077 40 40 0 0 0-8.93-7.175m13.749 5.294c-.527-.362-1.096-.664-1.638-1.002-1.096-.682-2.119-1.464-3.151-2.235a52 52 0 0 0-6.33-4.469c-.052-.028-.115.044-.066.086 1.92 1.633 4.1 2.902 6.128 4.392a34 34 0 0 1 3.089 2.47c.469.436.902.911 1.371 1.347.389.362.797.823 1.365.787a.235.235 0 0 0 .223-.291c-.087-.528-.578-.802-.99-1.085m-1.509-4.761a30 30 0 0 1-4.075-2.807c-.03-.026-.074.016-.044.044a16.1 16.1 0 0 0 4.084 2.824c.04.02.075-.037.035-.06m6.308 4.212a1 1 0 0 0-.361-.331c-.12-.083-.25-.155-.373-.231-.248-.154-.512-.283-.769-.423-.515-.278-1.001-.603-1.49-.926-.036-.025-.081.033-.047.061.45.371.902.74 1.318 1.15.207.203.407.416.625.608.11.095.216.196.329.288a1 1 0 0 0 .422.255.311.311 0 0 0 .346-.45m.295-3.121a48 48 0 0 0-4.326-2.847c-.026-.016-.048.023-.024.04a48 48 0 0 0 4.302 2.869c.037.02.083-.033.047-.061m1.048-2.094a.008.008 0 0 0-.011.01l.255.256a.008.008 0 0 0 .011-.01Zm19.988 11.865c-3.016-1.806-6.05-3.589-9.013-5.481-.026-.017-.049.023-.024.04a77 77 0 0 0 9.001 5.502.035.035 0 0 0 .036-.06m8.615.371c-.305.398-1.745-.7-2.054-.881q-.881-.517-1.769-1.022c-1.253-.714-2.507-1.425-3.756-2.147-2.46-1.42-4.883-2.93-7.395-4.256a.023.023 0 0 0-.023.04 93 93 0 0 0 8.342 5.254 97 97 0 0 0 4.201 2.339 8.6 8.6 0 0 0 1.959.942c.263.055.474.027.574-.236.019-.05-.052-.068-.079-.033m5.65-.824c-2.204-1.387-4.536-2.584-6.827-3.818a622 622 0 0 0-6.923-3.656c-.022-.011-.042.022-.02.034 2.266 1.29 4.532 2.58 6.814 3.843 2.279 1.26 4.548 2.575 6.909 3.679a.047.047 0 0 0 .047-.081m6.105-.726c-1.808-1.088-3.722-2.004-5.597-2.969l-5.637-2.9c-.063-.033-.118.06-.055.094l5.605 2.955c1.867.985 3.716 2.029 5.645 2.888.045.02.083-.041.04-.068m3.299-1.741a16 16 0 0 0-2.21-1.069q-1.111-.524-2.225-1.043-2.23-1.035-4.462-2.065c-.023-.01-.043.023-.02.034l4.488 2.194c.736.358 1.474.71 2.212 1.066a15.5 15.5 0 0 0 2.163 1.011.07.07 0 0 0 .054-.128m4.425-1.703a10.4 10.4 0 0 0-1.766-.927c-.6-.291-1.203-.574-1.806-.859-1.207-.57-2.428-1.11-3.647-1.656-.036-.016-.068.035-.031.054 1.199.629 2.394 1.263 3.605 1.868.596.298 1.19.596 1.79.887a10 10 0 0 0 1.785.797.09.09 0 0 0 .07-.164m3.985-2.233a3.6 3.6 0 0 0-1.218-.47c-.45-.142-.895-.3-1.339-.463-.924-.34-1.836-.71-2.727-1.13-.067-.032-.126.063-.059.1a24 24 0 0 0 2.619 1.272c.452.185.914.348 1.377.502a3 3 0 0 0 1.32.287.06.06 0 0 0 .027-.098m4.104-1.179c-1.522-.466-3.082-.789-4.57-1.365-.059-.023-.098.071-.043.1a15 15 0 0 0 2.225.94q.57.182 1.154.313a6 6 0 0 0 1.218.127.059.059 0 0 0 .016-.115m3.321-.776a7.3 7.3 0 0 0-1.25-.4 7.5 7.5 0 0 0-1.31-.15c-.036-.001-.035.051 0 .055a14.3 14.3 0 0 1 2.54.545c.028.009.05-.037.02-.05m134.775-4.516a38.7 38.7 0 0 0-17.083-3.182.008.008 0 0 0 0 .016 42 42 0 0 1 8.805.753 53 53 0 0 1 8.26 2.456c.024.009.042-.032.018-.043m-1.727 1.653a21 21 0 0 0-4.192-1.546 34 34 0 0 0-4.522-.943c-.02-.003-.029.027-.009.03a34 34 0 0 1 4.424.995c1.456.433 2.837 1.037 4.265 1.542.046.016.076-.056.034-.079m-2.569 1.821a12.5 12.5 0 0 0-4.367-1.24c-.065-.008-.063.093 0 .101a19.2 19.2 0 0 1 4.34 1.203c.037.014.062-.046.027-.065"/></svg>