<svg xmlns="http://www.w3.org/2000/svg" data-name="four" viewBox="0 0 372.303 531.064"><path fill="currentColor" d="M370.808 515.71c-.683-2.889-1.466-5.753-2.219-8.624l-4.487-17.097-4.492-17.096c-.727-2.766-1.472-5.53-2.002-8.343a41.7 41.7 0 0 1-.698-8.297c.038-3.016.27-6.04.147-9.056a19.5 19.5 0 0 0-1.352-7.151c1.305-2.958 2.444-5.993 3.456-9.035a100 100 0 0 0 4.071-17.137c.976-6.712 1.318-13.504 1.629-20.273.176-3.826.32-7.652.457-11.48a309 309 0 0 0 .155-7.718 35 35 0 0 0 1.26-4.563c1.34-6.668.51-13.54-.784-20.146-1.318-6.73-2.976-13.4-4.502-20.085-.757-3.318-1.505-6.638-2.272-9.954a85 85 0 0 0-1.312-5.069c.009-.078.01-.155.02-.234a20 20 0 0 0 .252-2.275 36 36 0 0 0-.44-4.373q-.483-4.439-.963-8.879c-.635-5.915-1.196-11.839-1.804-17.757a67 67 0 0 0-1.268-9.752.7.7 0 0 0-.226-.34 7 7 0 0 0 1.168-1.89 15.9 15.9 0 0 0 .969-5.186c.194-4.04-.533-8.107-1.023-12.102-.583-4.764-1.215-9.522-1.83-14.282-.596-4.593-1.155-9.195-1.922-13.764a82 82 0 0 0-3.753-14.808 1.2 1.2 0 0 0-.274-.42 6.9 6.9 0 0 0 1.122-2.452 21.2 21.2 0 0 0 .337-5.238c-.122-4.247-.349-8.493-.526-12.738l-1.09-26.077-1.102-26.343c-.178-4.262-.233-8.554-.665-12.8a56 56 0 0 0-2.828-12.233c-1.486-4.433-3.028-8.848-4.364-13.33a94 94 0 0 0-.068-9.561c-.262-3.381-.707-6.753-1.183-10.11q-1.41-9.939-3.684-19.73-2.286-9.839-5.434-19.451a203 203 0 0 0-3.417-9.575 85 85 0 0 0-3.509-8.234 26.5 26.5 0 0 0-4.83-6.898 17.3 17.3 0 0 0-6.982-4.19 20.85 20.85 0 0 0-16.073 1.795 26.8 26.8 0 0 0-10.819 11.887c-2.766 5.727-3.624 12.09-3.744 18.392-.13 6.843.276 13.733.829 20.552a147 147 0 0 0 2.857 20.372 51 51 0 0 0 1.334 4.977.37.37 0 0 0 .156.204c.264 2.08.502 4.161.813 6.237q.592 3.965 1.164 7.933 2.31 15.935 3.758 31.98a72 72 0 0 0 .967 7.737 16.2 16.2 0 0 0 1.095 3.784 8 8 0 0 0 .633 1.073 4.8 4.8 0 0 1 .176 1.394 16 16 0 0 1-.545 3.525 60 60 0 0 0-1.933 7.034c-.36 2.504-.378 5.033-.488 7.556q-.17 3.901-.522 7.792-.35 3.878-.879 7.737c-.167 1.207-.317 2.425-.547 3.621a5.2 5.2 0 0 1-1.658 2.636l-2.758 2.94a8.5 8.5 0 0 0-1.2.37c-1.098.443-2.175.942-3.267 1.4-.759.32-1.516.644-2.275.963a14.04 14.04 0 0 1-7.19-3.16 17.24 17.24 0 0 1-4.64-6.958c-1.114-2.867-1.957-5.849-2.886-8.78q-1.492-4.707-2.952-9.424a349 349 0 0 1-9.877-38.199c-1.202-6.396-2.185-12.85-4.31-19.025a160 160 0 0 0-7.701-17.416q-8.532-17.629-16.075-35.717c-2.504-6.012-4.964-12.048-7.286-18.134-2.226-5.833-4.204-11.76-6.442-17.587-1.953-5.086-4.398-10.294-8.515-14.004-3.684-3.32-8.75-5.587-13.782-4.941-10.233 1.313-13.262 12.647-14.394 21.265-1.53 11.651-2.41 23.92.792 35.376a47 47 0 0 0 3.182 8.268c1.384 2.789 3 5.464 4.22 8.332 2.536 5.958 3.741 12.516 5.308 18.775 1.571 6.271 3.092 12.558 4.728 18.814a73.3 73.3 0 0 0 5.694 15.845 27.5 27.5 0 0 0 2.169 3.478 14.4 14.4 0 0 0 1.488 1.64c.175.944.347 1.89.496 2.837.322 2.054.806 4.083 1.248 6.113q1.345 6.175 2.62 12.364 2.57 12.373 4.784 24.816 1.21 6.8 2.307 13.618l-4.73 4.525c-1.599 1.53-3.099 3.165-4.696 4.69l-.315.292c-5.435-.447-10.467-2.914-14.81-6.163-4.985-3.73-8.85-8.667-12.196-13.867-3.617-5.62-6.712-11.56-10.429-17.117a119.5 119.5 0 0 0-12.871-15.487 203 203 0 0 1-13.534-15.229c-4.322-5.594-8.246-11.48-12.45-17.162-8.507-11.498-17.89-22.306-27.332-33.038-4.37-4.968-8.637-10.15-13.977-14.123-2.59-1.927-5.506-3.67-8.785-3.978a10.78 10.78 0 0 0-8.197 3.218c-8.537 7.851-8.804 20.844-6.495 31.384a70.4 70.4 0 0 0 6.33 17.393 51.4 51.4 0 0 0 5.112 7.954 77 77 0 0 0 6.705 7.161 49.4 49.4 0 0 1 6.53 7.425 65.6 65.6 0 0 1 4.658 8.69c2.94 6.218 6.093 12.307 9.637 18.205 7.077 11.775 15.285 22.816 23.538 33.781 8.408 11.173 16.737 22.478 26.142 32.843 1.77 1.95 3.775 3.645 5.698 5.43a3.4 3.4 0 0 0 .226.553 2 2 0 0 0 .112.157 12.65 12.65 0 0 1-2.642 4.663c-1.651 1.983-3.5 3.812-5.255 5.704l-2.71 2.921c-.967 1.044-1.78 2.211-2.691 3.303-1.525-.86-2.98-1.852-4.514-2.7q-2.492-1.376-4.963-2.792c-3.285-1.89-6.53-3.856-9.679-5.966a83 83 0 0 1-17.009-14.799c-1.267-1.477-2.51-2.98-3.899-4.346a26 26 0 0 0-4.68-3.616c-1.725-1.06-3.513-2.01-5.242-3.063a99 99 0 0 1-5.172-3.384 226 226 0 0 1-19.657-15.96q-9.668-8.508-19.156-17.203c-3.109-2.852-6.175-5.755-9.39-8.487q-2.548-2.165-5.202-4.2l-.758-.773q-2.295-2.345-4.671-4.606a14.5 14.5 0 0 0-4.35-3.27c-.996-.401-2.824-.721-3.892-.047a16 16 0 0 0-1.312-.396 10.37 10.37 0 0 0-9.867 2.635c-5.425 5.098-6.55 13.399-5.308 20.402 1.345 7.583 5.24 14.721 9.531 21.028a76.6 76.6 0 0 0 14.804 16.183 54 54 0 0 0 3.436 2.569c.85.709 1.723 1.39 2.644 2.017a43 43 0 0 1 5.491 4.034c1.54 1.448 2.914 3.065 4.315 4.645 1.367 1.542 2.721 3.094 4.081 4.642 2.694 3.066 5.41 6.117 8.276 9.025a82.6 82.6 0 0 0 9.071 8.045 58 58 0 0 0 5.06 3.422 30.6 30.6 0 0 1 5.48 3.596c6.378 5.96 11.058 13.453 16.51 20.209a65 65 0 0 0 8.305 8.736c2.939 2.508 6.29 4.955 10.019 6.103a14 14 0 0 0 1.773.42 17.2 17.2 0 0 0 .704 3.706 280 280 0 0 0 10.126 28.974 36 36 0 0 0 3.5 7.308 13 13 0 0 0 2.487 2.771 6.2 6.2 0 0 0 2.574 1.177 10 10 0 0 0-.68 1.713c-.947 3.293-.126 6.993.472 10.275.639 3.51 1.466 6.982 2.36 10.435 3.401 13.124 7.485 26.078 12.164 38.801q6.992 19.01 15.787 37.294 4.361 9.065 9.156 17.914c3.15 5.813 6.356 11.635 9.945 17.192a55 55 0 0 0 12.17 13.994 38.5 38.5 0 0 0 5.827 3.685c.365.54.769 1.057 1.165 1.573.926 1.204 1.861 2.4 2.825 3.575q2.876 3.509 5.788 6.987a12.3 12.3 0 0 1 2.242 3.267c.529 1.35.879 2.785 1.305 4.17q1.32 4.303 2.656 8.602c.5 1.622 1.092 3.17 1.74 4.735.682 1.646 1.436 3.26 2.115 4.907a.184.184 0 0 0 .354-.097c-.669-3.204-1.104-6.453-2.066-9.587l-2.837-9.237a45 45 0 0 0-1.486-4.508 14.2 14.2 0 0 0-2.427-3.478q-3.103-3.654-6.225-7.29-.884-1.025-1.79-2.035c2.588 1.117 5.262 2.063 7.972 2.936 1.516.489 3.037.96 4.555 1.44.448.142.611-.526.19-.69a107.3 107.3 0 0 1-17.06-8.169 45.2 45.2 0 0 1-13.124-12.785 176 176 0 0 1-9.732-16.114q-4.783-8.59-9.157-17.398-8.82-17.762-15.926-36.306-7.059-18.433-12.359-37.477a160 160 0 0 1-4.625-20.08 16.26 16.26 0 0 1 .892-8.992c1.048-2.426 3.392-4.395 5.388-6.032 1.03-.844 2.054-1.68 3.06-2.551.098-.084-.026-.224-.13-.17a28.8 28.8 0 0 0-6.786 4.716 19.2 19.2 0 0 0-3.23 3.897c-.505-.56-.987-1.139-1.528-1.67a19 19 0 0 1-2.015-2.189 29.3 29.3 0 0 1-3.197-5.968c-1.952-4.514-3.668-9.145-5.321-13.775q-2.464-6.9-4.588-13.914c-.685-2.258-1.599-4.63-1.36-7.03.223-2.225 1.483-4.283 2.616-6.156a87 87 0 0 1 4.362-6.497c1.6-2.175 3.19-4.402 4.897-6.493.02-.024-.012-.058-.036-.035a61 61 0 0 0-5.09 5.27q-2.306 2.794-4.39 5.762a29.7 29.7 0 0 0-3.726 6.104 8 8 0 0 0-.479 2.15c-1.289-.685-2.595-1.337-3.877-2.042a38 38 0 0 1-4.926-3.232 56.4 56.4 0 0 1-8.376-8.202c-5.57-6.557-10.136-13.93-16.114-20.148a23 23 0 0 0-5.099-4.117c-1.788-1.03-3.598-1.996-5.322-3.137a68.4 68.4 0 0 1-9.368-7.628c-5.905-5.63-11.022-11.984-16.586-17.935a28.3 28.3 0 0 0-4.88-4.26c-1.823-1.224-3.7-2.353-5.498-3.618a49 49 0 0 1-5.122-4.222c-1.577-1.467-3.197-2.892-4.753-4.38l-.034-.034a85 85 0 0 1-4.909-5.798 69.9 69.9 0 0 1-10.866-19.394c-2.404-6.945-2.952-15.047 1.099-21.514 1.794-2.865 4.613-5.333 8.159-5.346 3.836-.013 7.299 2.36 10.349 4.426a142.5 142.5 0 0 1 18.847 15.512c6.052 5.829 12.292 11.417 18.59 16.978 6.223 5.494 12.462 10.99 19.115 15.964a104 104 0 0 0 10.063 6.72c1.663.966 3.363 1.874 4.956 2.955a24.6 24.6 0 0 1 4.288 3.814c2.512 2.743 4.822 5.622 7.524 8.19a88 88 0 0 0 8.492 7.046 157 157 0 0 0 16.453 10.342 4.2 4.2 0 0 0-1.318.343c-.47.153-.945.28-1.426.39-1.1.252-2.206.28-3.298.545-2.115.514-4.229 1.02-6.33 1.587-.018.005-.01.031.008.029 2.157-.349 4.3-.759 6.444-1.175 1.058-.205 2.026-.627 3.083-.86a18 18 0 0 1 1.792-.306 2.8 2.8 0 0 0 1.27-.302.13.13 0 0 0 .06-.093q1.084.606 2.17 1.205c1.405.774 2.885 1.401 4.31 2.132a429 429 0 0 0-4.26 5.313.13.13 0 0 0 .183.182c1.663-1.524 3.373-3.01 4.985-4.586 1.617-1.581 3.318-3.058 4.86-4.712q2.31-2.477 4.612-4.961a33.3 33.3 0 0 0 3.792-4.527 10 10 0 0 0 .614-1.13 26 26 0 0 0 .338 3.415c.936 5.55 3.559 10.639 6.421 15.42 1.454 2.429 2.975 4.816 4.446 7.234 1.468 2.413 2.924 4.837 4.562 7.14a38.3 38.3 0 0 0 5.402 6.209 45 45 0 0 0 6.457 4.807 103 103 0 0 0 9.675 5.224c-.984 2.66-1.72 5.441-2.524 8.155-.426 1.44-.859 2.877-1.276 4.319-.24.83-.47 1.658-.746 2.47-.47.374-.936.75-1.416 1.113a33 33 0 0 1-4.245 2.89c-.38.203-.768.39-1.158.572.48-1.237.766-2.585 1.145-3.845.476-1.584.965-3.164 1.484-4.734q1.538-4.647 3.377-9.188c.007-.017-.023-.03-.03-.012q-1.884 4.46-3.487 9.03a129 129 0 0 0-1.519 4.592 30 30 0 0 0-1.178 4.257c-1.318.606-2.678 1.128-4.005 1.712a110 110 0 0 0-11.351 5.748q-6.379 3.745-12.875 7.274c-.019.01-.002.039.017.03 3.917-2.028 7.848-4.025 11.823-5.935 3.806-1.83 7.507-3.895 11.433-5.465 1.949-.78 3.989-1.293 5.93-2.094a25.7 25.7 0 0 0 4.653-2.376 69.5 69.5 0 0 0 7.712-6.644c1.424-1.312 2.862-2.611 4.403-3.786 1.536-1.17 3.21-2.088 4.805-3.163l.062-.061a39.6 39.6 0 0 0 10.398 2.382 21 21 0 0 0 3.148-.009 3.85 3.85 0 0 0 .832 1.981 24 24 0 0 0 3.265 3.016q1.865 1.605 3.774 3.157c.89.725 1.798 1.425 2.703 2.13a252 252 0 0 0-2.303 7.028c-.613 1.952-1.284 3.917-1.816 5.906-.34.325-.685.644-1.018.977-.437.436-.845.893-1.268 1.34.133-.512.263-1.022.4-1.518q.696-2.504 1.384-5.01c.915-3.341 1.851-6.68 2.65-10.051a.023.023 0 0 0-.044-.013c-1.057 3.3-1.979 6.643-2.92 9.977q-.688 2.437-1.366 4.877c-.216.773-.468 1.563-.691 2.359a168 168 0 0 0-3.272 3.645c.84-2.881 1.558-5.801 2.306-8.704q1.408-5.463 2.76-10.94a.013.013 0 0 0-.023-.007q-1.522 5.432-2.985 10.879c-.816 3.034-1.667 6.068-2.374 9.132a52 52 0 0 1-5.067 5.505 73 73 0 0 1-6.473 4.635q-3.185 2.194-6.283 4.514c-2.033 1.519-3.99 3.133-6.004 4.676q-1.478 1.133-2.939 2.287c-1.001.796-2.058 1.513-3.025 2.35a37 37 0 0 0-2.98 3.076c-.991 1.084-2 2.152-2.99 3.237-1.956 2.145-3.834 4.357-5.708 6.573-.09.105.055.255.153.153a118 118 0 0 1 11.297-10.408c1.98-1.594 3.66-3.502 5.532-5.218 1.902-1.743 3.903-3.357 5.942-4.935q3.057-2.366 6.236-4.563c2.114-1.457 4.315-2.799 6.38-4.326a43 43 0 0 0 5.673-5.053 162 162 0 0 1 5.498-5.59 138 138 0 0 1 6.478-5.826c2.113-1.794 4.338-3.44 6.497-5.175 1.639 1.187 3.299 2.347 5.011 3.419.089.055.18.1.269.155q-.782 5.39-1.374 10.804c-.273 2.508-.592 5.052-.742 7.592a72 72 0 0 1-1.719 3.33c-1.132 2.036-2.353 4.021-3.52 6.039a65 65 0 0 0-3.272 6.308c-.993 2.258-1.852 4.572-2.724 6.879-.468 1.24-.956 2.462-1.38 3.72-.403 1.195-.78 2.395-1.207 3.582-.858 2.377-1.701 4.761-2.363 7.201a63 63 0 0 0-1.494 7.315c-.175 1.193-.315 2.39-.471 3.586-.161 1.228-.421 2.424-.465 3.669-.1 2.862-.078 5.728-.19 8.591-.113 2.915-.236 5.83-.272 8.746a.02.02 0 0 0 .042 0c.109-2.567.184-5.136.317-7.702.131-2.545.388-5.07.614-7.607.109-1.23.316-2.441.39-3.675.074-1.228.094-2.435.24-3.661a66 66 0 0 1 1.33-7.543 59 59 0 0 1 2.222-7.119c.89-2.359 1.982-4.643 2.84-7.011a96.6 96.6 0 0 1 5.87-13.755c1.235-2.25 2.549-4.458 3.772-6.716.47-.869.933-1.76 1.372-2.662-.003.118-.013.237-.015.355-.072.233-.137.468-.213.7a96 96 0 0 1-5.092 11.616 111 111 0 0 0-5.046 11.873 101 101 0 0 0-5.183 25.577 150.3 150.3 0 0 0 .47 27.054 180.5 180.5 0 0 0 4.916 27.138q.449 1.69.916 3.377a.125.125 0 0 0 .241-.067c-1.864-8.89-3.664-17.82-4.738-26.844a145.6 145.6 0 0 1-.882-26.514 108.5 108.5 0 0 1 4.636-25.203 90 90 0 0 1 4.571-11.772c1.779-3.768 3.746-7.446 5.38-11.283a52 52 0 0 0 2.116-5.785 56 56 0 0 0 1.283-6.043c.628-3.591 1.593-7.615 5.032-9.54a11 11 0 0 1 1.924-.83 24 24 0 0 1 3.607 1.43 11 11 0 0 1 2.762 2.19 105 105 0 0 0 7.872 11.099 22 22 0 0 0 1.383 1.893c.114.139.244.264.36.4l.088.21a19.2 19.2 0 0 1 1.538 4.367.56.56 0 0 0 .402.402 9.8 9.8 0 0 1 2.946 1.09c.893.509 1.719 1.131 2.598 1.656.237.141.445-.13.348-.348l-.01-.018.037.031a85.7 85.7 0 0 0 19.565 12.68 55 55 0 0 0 5.906 2.298c2.114.666 4.276 1.143 6.444 1.597a.117.117 0 0 0 .062-.225 61 61 0 0 1-10.486-4.3 91 91 0 0 1-9.52-5.601c-3.078-2.06-6.021-4.31-8.901-6.637a92 92 0 0 1-8.217-7.229 19.9 19.9 0 0 1-3.56-4.731 11.4 11.4 0 0 1-.947-2.606c-.107-.458-.184-.916-.264-1.379l-.026-.143.01-.073q-.011.078-.004.034.005-.036.012-.07.013-.07.03-.138a.6.6 0 0 0-.007-.334.2.2 0 0 0 .006-.066l-.008-.063a27 27 0 0 0 4.414-.215c1.825-.187 3.654-.362 5.487-.449 3.808-.18 7.62-.294 11.43-.146.175.007.222-.284.043-.311a77 77 0 0 0-9.5-.95c-3.058-.077-6.099.092-9.153.15-2.408.046-5.11.005-7.117-1.511-1.074-.811-1.856-1.948-2.863-2.835a12.9 12.9 0 0 0-3.274-2.05c-2.521-1.128-5.212-1.78-7.692-3.011a58 58 0 0 1-7.58-4.723c-5.018-3.542-9.86-7.324-14.555-11.282a155 155 0 0 1-2-1.708 4.7 4.7 0 0 1-1.392-1.61 4.3 4.3 0 0 1-.029-2.255 10.5 10.5 0 0 1 .53-2.185 28.2 28.2 0 0 1 4.698-8.51c.051-.06-.033-.148-.088-.088a30.7 30.7 0 0 0-4.96 6.99 30 30 0 0 0-.78 1.762c-.295.708-.713 1.366-.982 2.085a5 5 0 0 0-.284 1.205 46.7 46.7 0 0 1-15.104-3.798 152 152 0 0 1-14.632-7.144 44.4 44.4 0 0 1-12.412-9.4c-3.542-4.061-6.145-8.86-8.986-13.41-5.407-8.66-11.838-19.15-8.048-29.723a17.14 17.14 0 0 1 9.37-9.713 19.2 19.2 0 0 1 6.345-1.507 14.6 14.6 0 0 0-2.875 1.256 17.9 17.9 0 0 0-4.967 4.135 26 26 0 0 0-3.69 5.937 28.4 28.4 0 0 0-2.305 6.92.73.73 0 0 0 .322.793c1.025.645 1.99 1.533 3.07 2.073.246.124.518.173.76.309.235.131.459.295.685.442.555.36 1.092.746 1.644 1.11 1.007.666 2.037 1.296 3.065 1.928 1.06.653 2.06 1.409 3.148 2.013a31 31 0 0 0 6.58 3.099 9 9 0 0 0 2.098.312c.119.496.254.99.382 1.483q.13.501.274 1a5 5 0 0 0 .284.85 10 10 0 0 0-.288 1.374c-.013.094.14.112.163.022 1.018-4.087 5.13-5.481 8.234-7.636 2.936-2.037 4.309-5.305 5.962-8.347a10.8 10.8 0 0 1 1.728-2.391 10.6 10.6 0 0 1 2.972-1.967.038.038 0 0 0-.018-.07 6.13 6.13 0 0 0-4.356 2.384 4.4 4.4 0 0 0 .042-1.181 4.7 4.7 0 0 0-1.116-2.794 17 17 0 0 0-2.177-2.265 68 68 0 0 0-10.89-8.383 30 30 0 0 0-3.513-1.77c-.494-.21-1.02-.411-1.554-.59a23.6 23.6 0 0 1 5.398 1.17c5.26 1.813 9.668 5.468 14.302 8.436a127 127 0 0 0 14.919 8.362c.484.225.973.413 1.463.6-.913.035-1.821.075-2.74.027-1.284-.067-2.576.013-3.853-.153-.055-.007-.068.086-.013.098 1.05.228 2.06.622 3.111.829.548.107 1.1.191 1.65.285.538.091 1.053.278 1.588.374a33.7 33.7 0 0 0 6.453.416 84 84 0 0 0 12.403-1.41 37.7 37.7 0 0 1 11.13-.674 14.7 14.7 0 0 1 5.095 1.618 17.8 17.8 0 0 1 3.949 3.109c1.37 1.366 2.623 2.845 3.969 4.235a19.5 19.5 0 0 0 4.575 3.478c.14.077.306-.117.177-.23a25 25 0 0 1-3.036-3.381 25 25 0 0 0 3.386 2.617c2.769 1.736 5.638 3.302 8.483 4.909q8.945 5.05 17.908 10.07c11.8 6.63 23.603 13.254 35.484 19.738q8.97 4.896 18.008 9.669c2.786 1.468 5.668 2.827 8.31 4.548a18 18 0 0 1 5.788 5.954c2.884 4.866 3.855 10.665 5.097 16.106l4.544 19.911c1.478 6.519 2.87 13.144 2.627 19.866-.232 6.418-2.102 12.747-4.437 18.695-.593 1.51-1.271 2.988-1.913 4.478-.09.21.205.4.317.185 1.674-3.21 3.42-6.43 4.862-9.763-.097.942-.19 1.884-.265 2.827-.272 3.386-.565 6.771-.805 10.16-.474 6.708-.74 13.447-1.537 20.127a99 99 0 0 1-3.65 17.22 117 117 0 0 1-6.52 16.2 108.3 108.3 0 0 1-9.85 16.857c-.128.175.159.397.3.232a101 101 0 0 0 6.958-9.111c2.052 3.325 4.168 6.63 6.38 9.856.032.255.058.51.094.764.23 1.613.556 3.21.921 4.797-1.159-1.795-2.404-3.546-3.579-5.32-1.603-2.422-3.232-4.827-4.838-7.248a.03.03 0 0 0-.05.03c1.463 2.556 2.98 5.074 4.612 7.528 1.287 1.937 2.593 3.92 4.034 5.767q.335 1.401.696 2.796c2.969 11.43 5.993 22.845 8.994 34.266.833 3.168 1.605 6.36 2.51 9.509.462 1.609.902 3.262 1.518 4.82.622 1.573 1.266 3.14 1.848 4.728a.213.213 0 0 0 .41-.113c-.484-2.952-.802-5.908-1.491-8.825M18.385 161.131a3 3 0 0 1 .452.001 5.9 5.9 0 0 1 2.476.897 20 20 0 0 1 3.465 2.95 38 38 0 0 0-6.393-3.848m240.696 168.663a2.14 2.14 0 0 0-.366 1.207q-.452-.749-.915-1.493a12 12 0 0 0 1.28.286m-2.625-.769a9 9 0 0 0 .948.346q.644 1.167 1.312 2.32c.004.06.005.128.01.185a9.5 9.5 0 0 0 .605 2.618c.032.085.076.165.11.249-2.025-2.586-4-5.21-5.884-7.905a9.6 9.6 0 0 0 2.9 2.187m-15.137-8.593c-.026.095-.058.19-.082.286q-.306 1.06-.617 2.119c-.023-.938-.058-1.874-.084-2.805.26.135.52.272.783.4m-1.322-.683c-.19 1.009-.442 2.005-.609 3.021a171 171 0 0 0-.506 3.332c-.122.85-.238 1.7-.337 2.55a39 39 0 0 0-1.051 4.926c-.115.67-.26 1.33-.4 1.993l-.134.276c.155-1.985.27-3.975.436-5.949q.465-5.524 1.061-11.038c.51.309 1.022.609 1.54.889m-9.645-6.529.11.084q.512.38 1.027.758c-.55.366-1.09.75-1.623 1.141q.115-.436.22-.871c.09-.369.191-.74.266-1.112m-1.727-1.314c.462.35.92.708 1.384 1.054a99 99 0 0 0-.465 1.639l-.3 1.07c-.63.475-1.238.977-1.854 1.471.22-.81.417-1.626.61-2.44q.269-1.125.518-2.255c.04-.179.07-.36.107-.539m-.323-.246c-.064.224-.132.447-.19.674q-.298 1.162-.58 2.329c-.23.952-.451 1.909-.639 2.872-.268.218-.546.425-.812.645-.45.371-.88.763-1.32 1.142.367-1.013.693-2.042.995-3.082q.41-1.41.763-2.833c.049-.198.454-1.99.593-2.663q.594.46 1.19.916m-1.395-1.074a4 4 0 0 0-.163.516c-.094.312-.181.626-.27.94-.188.662-.362 1.328-.55 1.99-.55 1.937-1.177 3.853-1.738 5.787q-1.084.95-2.139 1.934c.549-1.663 1.01-3.364 1.501-5.021a257 257 0 0 0 2.036-7.189c.443.345.878.7 1.323 1.043m-28.44-14.918c.429.177.857.36 1.289.529a15 15 0 0 0-1.716.935c.065-.184.133-.367.193-.552a4.5 4.5 0 0 0 .233-.912m-.29-.119-.076.141c-.086.174-.15.359-.221.54-.14.354-.268.713-.405 1.07-.033.087-.06.175-.093.262q-.498.334-.982.676c-.633.45-1.25.923-1.86 1.404q.337-.852.648-1.711c.385-1.067.776-2.123 1.087-3.208.633.279 1.264.56 1.902.826m-2.796-1.215c.204.093.412.177.616.268-.452.996-.829 2.02-1.214 3.05a53 53 0 0 0-.878 2.499q-.785.632-1.556 1.278l-.666.565c.369-1.086.706-2.182 1.044-3.28.505-1.638 1.022-3.278 1.441-4.942.405.186.809.378 1.213.562m-1.395-.647c-.601 1.58-1.112 3.195-1.63 4.804-.424 1.319-.853 2.636-1.222 3.97q-.992.84-1.986 1.678c.399-1.35.785-2.705 1.17-4.06.68-2.39 1.371-4.782 1.948-7.2.574.269 1.146.544 1.72.808m-1.836-.863c-.72 2.111-1.361 4.25-1.99 6.389-.36 1.226-.725 2.451-1.076 3.68-.141.498-.252 1.077-.405 1.642q-1.143.962-2.304 1.902c.132-.424.253-.85.374-1.265.447-1.525.882-3.054 1.319-4.582.813-2.84 1.73-5.702 2.353-8.597.576.278 1.151.56 1.73.831m-33.056-50.948c.086-.242.164-.486.245-.73q.36.869.74 1.728a18 18 0 0 1-.985-.998m20.922 15.082a11.4 11.4 0 0 0-.374-1.64q-.21-.692-.49-1.364a10 10 0 0 0 1.449-.069l.012.072q.054.33.097.66c.027.21.046.422.08.631a8 8 0 0 0-.774 1.71m1.113-2.21c-.01-.07-.01-.14-.023-.21a5 5 0 0 0-.168-.67l-.007-.02a11 11 0 0 0 1.239-.267 7.7 7.7 0 0 0-1.041 1.167m-5.135-29.998c.976.47 1.925.998 2.858 1.55a46 46 0 0 1 5.359 3.74c1.658 1.33 3.212 2.775 4.754 4.235.77.728 1.545 1.453 2.272 2.223a12 12 0 0 1 1.685 2.384 4.65 4.65 0 0 1 .623 2.767 41 41 0 0 0-2.354 4.053 12.26 12.26 0 0 1-3.688 4.435c-1.366.948-2.886 1.666-4.253 2.611a7.7 7.7 0 0 1-2.352.269 11.6 11.6 0 0 1-3.485-.818c-2.183-.782-4.412-1.468-6.537-2.4-1.04-.455-2.128-.815-3.135-1.34a38 38 0 0 1-3.02-1.776 50 50 0 0 1-1.552-1.039 18 18 0 0 1-.902-.677 6 6 0 0 1-.72-.77 16 16 0 0 0-1.355-1.21q-.403-.956-.833-1.9c.585-1.75 1.083-3.525 1.775-5.244a22.5 22.5 0 0 1 3.324-5.83 17 17 0 0 1 4.56-3.966 13.5 13.5 0 0 1 2.658-1.2c.907-.293 1.832-.472 2.713-.83.535.251 1.084.482 1.605.733m176.866 79.762a24.2 24.2 0 0 0-7.079-5.413c-5.945-3.27-12.007-6.336-17.976-9.563-12.069-6.524-24.047-13.213-36.009-19.93q-9.063-5.089-18.123-10.184-4.48-2.518-8.968-5.021c-2.741-1.533-5.536-2.96-8.294-4.453a24 24 0 0 1-3.337-2.312c-.377-.471-.751-.946-1.148-1.402a17.17 17.17 0 0 0-8.86-5.744c-3.716-.91-7.582-.594-11.33-.081-4.052.555-8.053 1.293-12.14 1.573-2.119.146-4.244.172-6.367.207a81 81 0 0 0-7.167-4.157q-3.9-2.11-7.68-4.427c-2.501-1.533-4.948-3.147-7.383-4.78a53 53 0 0 0-7.483-4.416 24.48 24.48 0 0 0-16.167-1.703 19.7 19.7 0 0 0-11.43 8.041 17.6 17.6 0 0 0-2.526 6.431c-.146-.44-.29-.88-.448-1.32a17.4 17.4 0 0 0-.959-2.517 14 14 0 0 0-1.585-2.156c-.022-.027-.06.007-.046.035a18 18 0 0 1 .987 2.719q.222.686.386 1.388a7.3 7.3 0 0 1 .144 1.324q.008.136.02.274c-1.43-1.758-2.781-3.587-4.266-5.291a384 384 0 0 1-6.715-7.948c-4.432-5.376-8.692-10.891-12.903-16.442-8.198-10.804-16.471-21.59-23.975-32.895-3.758-5.663-7.31-11.467-10.504-17.469a159 159 0 0 1-4.446-9.093 67 67 0 0 0-4.533-8.765c-3.506-5.436-8.707-9.354-12.845-14.254a54.7 54.7 0 0 1-9.236-16.625c-3.699-10.116-6.151-22.589-1.02-32.672a19.4 19.4 0 0 1 5.138-6.528 8.44 8.44 0 0 1 8.67-1.206 27.5 27.5 0 0 1 8.084 5.495 88 88 0 0 1 6.67 6.91c9.34 10.515 18.658 21.09 27.254 32.228 4.294 5.564 8.277 11.348 12.397 17.04a161 161 0 0 0 12.98 15.776c4.504 4.806 9.164 9.486 13.27 14.648 4.117 5.177 7.37 10.933 10.728 16.61 5.266 8.905 11.605 18.544 21.129 23.18a4.6 4.6 0 0 0-1.052-.01c-.48.031-.958.069-1.436.125-.956.112-1.91.224-2.872.281-.09.006-.092.145 0 .142.976-.038 1.95-.018 2.927.001.48.01.957-.001 1.436-.017a3.3 3.3 0 0 0 1.33-.23.095.095 0 0 0 .046-.122 27.5 27.5 0 0 0 3.966 1.513 25 25 0 0 0 5.519.966 17.1 17.1 0 0 1-8.382 4.45c-.18.028-.124.294.04.302 4.13.206 7.843-2.115 10.99-4.743a.5.5 0 0 0 .395-.334 62 62 0 0 0 1.806-1.61 554 554 0 0 0 6.856-6.48c.464-.443 1.334-1.015 1.425-1.689a4.4 4.4 0 0 0-.144-1.199l-.211-1.3q-.382-2.338-.777-4.674c-2.088-12.37-4.388-24.718-7.061-36.975q-1.122-5.144-2.305-10.273a50 50 0 0 0-.654-2.515 26 26 0 0 0-.288-2.824 6.3 6.3 0 0 0-1.524-2.334c-.23-.284-.46-.577-.693-.867-.073-.13-.146-.263-.223-.388a44 44 0 0 1-1.335-2.35c.489.515.976 1.03 1.442 1.565.464.534.937 1.065 1.382 1.616.229.284.379.6.58.899.215.315.463.602.706.895.377.458 1.076-.216.66-.66a9 9 0 0 0-.772-.768c-.265-.223-.557-.403-.808-.647-.522-.505-1.022-1.034-1.538-1.545-.67-.661-1.324-1.335-1.992-1.996-.103-.199-.212-.394-.313-.593a55 55 0 0 1-3.144-7.717c-1.867-5.656-3.175-11.493-4.62-17.265-1.584-6.329-3.123-12.67-4.76-18.985a62 62 0 0 0-2.84-8.745c-1.198-2.816-2.759-5.451-4.13-8.182-5.386-10.72-5.687-23.022-4.681-34.74a82.5 82.5 0 0 1 2.303-15.328c1.178-4.175 3.206-8.505 7.104-10.768 4.402-2.555 9.787-1.497 13.901 1.124 4.62 2.942 7.463 7.837 9.572 12.756 2.4 5.597 4.265 11.444 6.393 17.148 2.231 5.983 4.502 11.952 6.898 17.87q7.204 17.803 15.446 35.162c2.714 5.704 5.657 11.323 8.014 17.188a94 94 0 0 1 4.904 18.372 340 340 0 0 0 9.304 37.532c1.894 6.241 3.889 12.451 5.887 18.66 1.665 5.178 3.477 10.408 8.433 13.296a13.9 13.9 0 0 0 4.734 1.69c-.86.363-1.721.719-2.578 1.09-2.282.985-4.571 1.926-6.911 2.767-2.36.847-4.643 1.908-7.01 2.722a.058.058 0 0 0 .03.113c2.46-.658 4.935-1.132 7.363-1.923 2.328-.759 4.667-1.486 6.991-2.256a96 96 0 0 0 6.875-2.593q.573-.24 1.15-.478a16.6 16.6 0 0 1-2.482 2.268c-1.021.718-2.092 1.37-3.134 2.056-2.443 1.607-4.88 3.213-7.25 4.927-1.221.884-2.455 1.752-3.671 2.644-1.217.891-2.49 1.7-3.685 2.622a.171.171 0 0 0 .172.295c1.226-.618 2.387-1.34 3.59-1.997s2.414-1.296 3.612-1.96c2.397-1.33 4.77-2.683 7.118-4.1a32.2 32.2 0 0 0 6.376-4.39c1.932-1.927 3.752-3.976 5.619-5.965a17.3 17.3 0 0 0 2.427-2.788 9.3 9.3 0 0 0 .883-3.469q.6-4.001 1.017-8.028.413-4.014.635-8.045c.146-2.65.146-5.315.404-7.959a24.5 24.5 0 0 1 .81-4.292c.387-1.37.86-2.72 1.15-4.118a8.8 8.8 0 0 0 .166-2.987.16.16 0 0 0 .128-.204c-.384-1.085-.588-2.189-.867-3.302-.273-1.091-.643-2.151-.885-3.252a55 55 0 0 1-.937-6.87 653 653 0 0 0-1.625-15.835q-.914-7.884-2.033-15.742c-.751-5.283-1.55-10.559-2.714-15.766-.649-2.9-1.144-5.835-1.714-8.752a81 81 0 0 0-.991-4.336 195 195 0 0 1-.833-7.065c-.649-6.664-.978-13.363-1.155-20.055-.169-6.43-.064-13.002 1.906-19.187a27.77 27.77 0 0 1 8.61-13.095 19.86 19.86 0 0 1 14.683-4.444 16.14 16.14 0 0 1 7.284 2.646 19 19 0 0 1 5.42 6.005 47 47 0 0 1 3.47 7.433q1.749 4.527 3.293 9.13c2.083 6.187 3.963 12.433 5.545 18.767q2.372 9.497 3.928 19.173.775 4.823 1.343 9.676c.337 2.894.632 5.786 1.082 8.663-.152-.601-.31-1.2-.455-1.804-.558-2.331-1.193-4.636-1.771-6.96-.018-.071-.139-.058-.131.018.198 2.082.4 4.127.763 6.19.357 2.03.794 4.046 1.218 6.062a120 120 0 0 0 3.127 12.211q.171.528.345 1.054c-1.228-1.519-2.57-2.962-3.9-4.354a77 77 0 0 0-6.897-6.358c-.033-.027-.08.019-.047.047a91 91 0 0 1 6.683 6.4c1.564 1.655 2.986 3.425 4.454 5.157.563 1.71 1.122 3.422 1.614 5.151a50.4 50.4 0 0 0-12.718-11.848c-.055-.036-.103.05-.05.087a64.5 64.5 0 0 1 12.971 12.527c.353 1.305.673 2.619.901 3.956a100 100 0 0 1 .932 12.633l2.17 51.888.6 14.37a42 42 0 0 1 .011 5.9c-.09.916-.253 1.834-.426 2.738a12 12 0 0 1-.342 1.397 3.75 3.75 0 0 1-2.654-.248 34 34 0 0 1-3.445-1.777c-1.153-.634-2.305-1.27-3.483-1.857-1.262-.63-2.56-1.162-3.819-1.801a.03.03 0 0 0-.03.05c1.295.835 2.514 1.766 3.807 2.605 1.286.836 2.614 1.607 3.929 2.395 1.162.696 2.267 1.477 3.435 2.163a3.58 3.58 0 0 0 2.446.471c2.672 8.05 3.787 16.508 4.878 24.89.602 4.628 1.192 9.258 1.807 13.884.543 4.082 1.316 8.18 1.478 12.301a20 20 0 0 1-.47 5.725c-.232.91-.572 1.783-.874 2.669a10.8 10.8 0 0 1-1.18 2.544.18.18 0 0 0 .245.245 11 11 0 0 0 1.051-.755c.116 2.714.434 5.424.684 8.126.273 2.961.572 5.92.86 8.879q.866 8.875 1.645 17.758c.07.78.133 1.562.2 2.344a22.2 22.2 0 0 0-2.92-4.609m-1.172 143.307c.606.907 1.214 1.812 1.781 2.745q.54.888 1.047 1.794.2.362.397.73c-.025.565-.054 1.13-.071 1.694a64 64 0 0 0-.024 1.624 53 53 0 0 0-1.224-1.871q-1.584-2.323-3.25-4.585c.45-.709.912-1.41 1.344-2.131m-2.892 4.463c.5-.738 1-1.476 1.48-2.227 1.498 2.357 3.113 4.65 4.541 7.049.01 1.478.078 2.952.23 4.425a92 92 0 0 0-6.25-9.247m6.15.027-.02-.04q-.5-.984-1.086-1.922a22 22 0 0 0-2.03-2.724c.088-.149.186-.292.274-.442.317-.538.61-1.092.91-1.64l.01.013c.235.313.475.623.703.942.494.691.949 1.407 1.4 2.125-.042 1.23-.103 2.459-.161 3.688m.177-4.469q-.094-.151-.19-.3a17 17 0 0 0-1.445-1.866q-.148-.164-.303-.322l-.057-.054a71 71 0 0 0 1.767-3.474 46 46 0 0 1 .255 4.767c-.003.417-.016.833-.027 1.25"/><path fill="currentColor" d="M254.164 256.05a10.9 10.9 0 0 1-2.992 4.582q-.446.446-.912.873a6.2 6.2 0 0 1-1.125.662 7.9 7.9 0 0 0-1.743 2.095c-2.262 2.955-4.15 6.706-7.502 8.581-.028.016-.003.058.025.044a13 13 0 0 0 4.19-3.822 19.7 19.7 0 0 1 4.155-4.205 6.04 6.04 0 0 0 2.105-1.72 18 18 0 0 1 1.724-2.282 10.5 10.5 0 0 0 2.163-4.784c.01-.057-.072-.082-.088-.024m-7.908-11.21a2.5 2.5 0 0 0-.977-.025 5 5 0 0 0-.989.354 9.2 9.2 0 0 0-1.65 1.104 16.3 16.3 0 0 0-2.909 2.775c-.023.028.016.07.041.04a9.55 9.55 0 0 1 3.032-2.39 15 15 0 0 1 1.755-.63c.31-.1.616-.215.92-.332a3.6 3.6 0 0 0 .829-.5c.13-.095.152-.367-.052-.397m-1.933 3.621c-.744.549-1.396 1.216-2.1 1.816-.78.665-1.7 1.112-2.477 1.765a2.2 2.2 0 0 0-.438.413c-.12.177-.117.399-.265.582a12 12 0 0 1-1.138 1.07q-1.09 1.031-2.16 2.084a91 91 0 0 0-8.102 8.963c-1.056 1.361-2.067 3.177-3.832 3.594a16 16 0 0 1 .208-1.595 12 12 0 0 1 .677-1.977 9.7 9.7 0 0 1 2.672-3.664c.009-.007-.003-.018-.011-.011a13.34 13.34 0 0 0-4.585 7.835.49.49 0 0 0 .49.49c1.592-.145 2.673-1.443 3.575-2.65 1.244-1.662 2.445-3.343 3.791-4.928a86 86 0 0 1 4.22-4.58q1.135-1.155 2.308-2.273.52-.498 1.045-.992a5.7 5.7 0 0 1 1.332-1.146 3 3 0 0 0 .528-.22 3.3 3.3 0 0 0 .588-.601c.389-.464.715-.972 1.129-1.417.817-.88 1.795-1.597 2.606-2.48.036-.04-.013-.114-.06-.079m-7.386-2.495a23 23 0 0 0-3.931 2.92c-.637.573-1.252 1.17-1.873 1.76-.614.584-1.363 1.051-1.931 1.676a23 23 0 0 0-1.427 1.939c-.497.678-1.008 1.347-1.51 2.022a20 20 0 0 0-2.48 4.142c-.02.048.06.08.084.035a28 28 0 0 1 2.752-4.193 18 18 0 0 1 1.562-1.692c.581-.559 1.265-1.031 1.808-1.627.524-.575.907-1.27 1.418-1.86a42 42 0 0 1 1.658-1.812 21 21 0 0 1 3.908-3.245.038.038 0 0 0-.038-.065m-75.686-4.018c-.004-.003-.008.004-.004.007a2 2 0 0 1 .825 1.353c0 .005.009.003.008-.002a2 2 0 0 0-.829-1.358m1.456-.606c-.018-.027-.061-.002-.043.025a29 29 0 0 1 2.16 4.111c.012.026.056.007.046-.02a20.7 20.7 0 0 0-2.163-4.116m4.176 3.967q-.558-1.177-1.176-2.325c-.01-.019-.038-.002-.029.017q.584 1.142 1.112 2.312c.35.778.643 1.586 1.025 2.348a.034.034 0 0 0 .061-.026 18 18 0 0 0-.993-2.326m1.579.087c-.026-.034-.084-.001-.058.034.741.993 1.376 2.047 2.032 3.097a.025.025 0 0 0 .044-.025 20 20 0 0 0-2.018-3.106m3.973 3.072a.02.02 0 0 0-.03.03l.546.545a.02.02 0 0 0 .03-.03zm62.544 74.37c-.383 3.81-.8 7.625-.97 11.451-.001.044.062.041.067 0 .47-3.8.695-7.631.952-11.45.003-.033-.046-.032-.05 0m-1.739 14.991c.001-.027-.039-.025-.042 0q-.164 1.244-.239 2.496a9.8 9.8 0 0 0 .026 2.42c.014.072.107.044.115-.015a21 21 0 0 0 .033-2.453q.016-1.225.106-2.448m-2.033-6a426 426 0 0 0-.445 7.089c-.002.038.055.037.058 0 .167-2.362.301-4.724.429-7.089.001-.026-.04-.026-.042 0m42.83 29.682c-.014-.023-.056-.008-.045.02a31 31 0 0 0 5.054 8.825c.058.067.154-.019.118-.091-1.512-3.014-3.375-5.876-5.127-8.754m8.347 9.054c-.67-1.162-1.271-2.363-1.892-3.551q-1.896-3.626-3.882-7.201c-.024-.043-.086-.005-.065.038 1.184 2.414 2.375 4.825 3.553 7.243.597 1.224 1.21 2.445 1.74 3.701.247.588.453 1.192.712 1.775a2.3 2.3 0 0 0 .98 1.326.173.173 0 0 0 .25-.102c.265-1.07-.895-2.361-1.396-3.23m3.437 2.069c-.53-.989-.968-2.03-1.417-3.059a61 61 0 0 0-3.169-6.22.046.046 0 0 0-.079.045 179 179 0 0 1 3.081 6.143 21 21 0 0 1 1.338 3.315c.253.894.262 2.168 1.102 2.726a.172.172 0 0 0 .25-.102c.276-1.006-.657-2.012-1.106-2.848m4.33 3.005c-.211-.437-.46-.862-.688-1.29q-.643-1.21-1.292-2.418a64 64 0 0 0-2.9-4.875.033.033 0 0 0-.058.034c.84 1.662 1.695 3.32 2.526 4.987.41.82.809 1.645 1.185 2.482.188.419.366.842.551 1.263a3 3 0 0 0 .697.921.11.11 0 0 0 .185-.076 2.4 2.4 0 0 0-.207-1.028m3.001.493c-.393-.64-.773-1.287-1.16-1.93a246 246 0 0 1-2.363-4.006c-.016-.03-.055-.004-.043.025a52 52 0 0 0 2.042 4.193c.36.66.744 1.305 1.132 1.947a7.2 7.2 0 0 0 1.328 1.858.092.092 0 0 0 .153-.09 8.4 8.4 0 0 0-1.09-1.997m2.806.282q-.96-1.36-1.937-2.707c-.05-.069-.163-.006-.115.067q.937 1.404 1.891 2.796a22.5 22.5 0 0 0 1.922 2.67c.047.05.12-.013.092-.07a23 23 0 0 0-1.853-2.756m4.165 1.683c-.497-.561-1.016-1.101-1.53-1.647-.04-.044-.101.02-.064.065.473.569.94 1.144 1.43 1.699a19 19 0 0 0 1.506 1.622c.037.033.104-.01.072-.055a19 19 0 0 0-1.415-1.684m7.731 3.794c-.646-.579-1.29-1.16-1.98-1.688-.701-.535-1.426-1.035-2.14-1.553-.026-.02-.06.024-.035.046.667.577 1.32 1.17 2.002 1.73.67.552 1.383 1.046 2.093 1.543.046.033.103-.04.06-.078m-87.013-85.53c-.03-.085-.162-.05-.136.038a22.2 22.2 0 0 0 3.61 7.483c.046.057.133-.016.1-.076a45 45 0 0 1-3.574-7.445m6.699 5.451q-1.675-3.45-3.042-7.036c-.026-.07-.138-.04-.112.03q1.266 3.515 2.818 6.915a39 39 0 0 0 3.644 6.768.05.05 0 0 0 .086-.05c-1.01-2.26-2.312-4.4-3.394-6.628m4.502 1.151q-2.071-4.88-3.95-9.84c-.017-.045-.088-.027-.073.019q1.675 4.978 3.67 9.83a74 74 0 0 0 4.295 9.34c.028.047.112.016.092-.039-1.186-3.159-2.715-6.204-4.034-9.31m4.472 2.342a145 145 0 0 1-3.743-10.558.033.033 0 0 0-.064.018 89 89 0 0 0 3.48 10.758 59.3 59.3 0 0 0 4.749 10.038c.031.049.124.018.099-.042-1.425-3.44-3.139-6.751-4.521-10.214m.316-8.652c-.008-.02-.04-.011-.032.01 1.207 3.596 2.45 7.177 3.819 10.717.013.034.068.02.056-.016-1.186-3.605-2.496-7.163-3.843-10.71m7.931 19.515c-.267-.495-.566-.972-.822-1.472a78 78 0 0 1-1.468-3.049c-.043-.094-.176-.012-.137.08.446 1.05.876 2.1 1.273 3.17.189.507.333 1.03.512 1.542.135.387.314.974.75 1.102a.17.17 0 0 0 .189-.076c.2-.413-.1-.929-.297-1.297m5.208 4.281a.11.11 0 0 0-.098-.057l-.07.005c-.029.002-.043.029-.06.05a6 6 0 0 0-.135-.436q-.088-.214-.178-.427l-.516-1.222-.98-2.322-2.012-4.766q-2.01-4.764-4.07-9.506c-.01-.026-.056-.007-.045.02a1032 1032 0 0 0 4.648 11.709l2.325 5.786c.161.4.384 1.535.89 1.618a.287.287 0 0 0 .301-.452m-1.344-10.504c-.029-.064-.14-.018-.114.048a118 118 0 0 0 5.33 12.324.05.05 0 0 0 .092-.039 118 118 0 0 0-5.308-12.333m7.622 9.669c-.601-1.2-1.23-2.385-1.855-3.573-.022-.043-.085-.005-.064.038.561 1.197 1.117 2.395 1.702 3.58a37 37 0 0 0 1.812 3.516c.029.046.112.017.091-.038a36 36 0 0 0-1.686-3.523m4.84 3.424a52 52 0 0 0-1.73-1.867c-.02-.02-.046.01-.03.03.522.66 1.05 1.307 1.603 1.94.549.63 1.086 1.275 1.687 1.857.036.034.104-.013.072-.056-.493-.667-1.055-1.281-1.602-1.904m-89.956-51.022q-2.033-3.821-3.873-7.74c-.009-.02-.037-.003-.029.017a114 114 0 0 0 7.979 15.367.046.046 0 0 0 .08-.046c-1.343-2.556-2.801-5.05-4.157-7.598m1.026-5.831c-.015-.029-.058-.004-.044.025 2.932 5.744 5.745 11.582 8.905 17.205.024.042.085.005.064-.038-2.773-5.822-5.922-11.486-8.925-17.192m12.228 14.63q-1.072-1.83-2.117-3.675a371 371 0 0 1-4.111-7.418c-.018-.034-.068-.004-.05.03a240 240 0 0 0 4.094 7.576q1.047 1.845 2.12 3.674a29 29 0 0 0 2.15 3.515c.023.028.058-.008.046-.035a37 37 0 0 0-2.132-3.667m5.626 3.069c-.566-1.1-1.127-2.202-1.7-3.297q-1.781-3.404-3.573-6.802c-.01-.019-.039-.002-.03.017l3.376 6.764c.552 1.106 1.12 2.206 1.682 3.308a32 32 0 0 0 1.808 3.388c.024.037.093.015.076-.032a31 31 0 0 0-1.64-3.346m5.447 3.446c-.632-1.056-1.246-2.123-1.86-3.19q-1.81-3.144-3.499-6.36c-.025-.049-.094-.007-.072.041a112 112 0 0 0 3.239 6.514 97 97 0 0 0 1.765 3.107 13 13 0 0 0 1.929 2.894.076.076 0 0 0 .125-.072 15 15 0 0 0-1.627-2.934m3.661.034a81 81 0 0 0-2.595-4.095c-.033-.049-.11-.005-.08.046a210 210 0 0 1 2.426 4.103c.795 1.368 1.489 2.823 2.384 4.128.027.04.104.016.084-.036a30.4 30.4 0 0 0-2.219-4.146m2.316-.054c-.02-.02-.046.009-.03.03 1.212 1.501 2.35 3.061 3.567 4.557.03.038.089-.01.066-.05a22 22 0 0 0-3.603-4.537m8.078 5.307c-.273-.303-.533-.616-.805-.92q-.82-.916-1.563-1.897c-.028-.038-.092-.004-.064.037q.675 1.01 1.427 1.965a9.7 9.7 0 0 0 1.675 1.742c.033.025.081-.024.057-.057a11 11 0 0 0-.727-.87m98.873-18.233a6.8 6.8 0 0 0-2.383-1.182 29 29 0 0 0-2.64-.802c-1.848-.467-3.754-.75-5.635-1.054-.036-.005-.052.049-.015.057a43 43 0 0 1 5.392 1.564q1.307.45 2.611.905a8.9 8.9 0 0 0 2.585.718.122.122 0 0 0 .085-.206m7.295.044a85 85 0 0 0-8.3-2.49c-2.781-.779-5.566-1.543-8.343-2.333a.03.03 0 0 0-.015.056 320 320 0 0 0 8.258 2.636 65.5 65.5 0 0 0 8.376 2.22.046.046 0 0 0 .024-.089m4.908-1.1c-2.518-.876-5.122-1.471-7.71-2.102-2.59-.631-5.194-1.207-7.791-1.809a.033.033 0 0 0-.018.065c2.566.713 5.127 1.451 7.701 2.134 2.577.684 5.15 1.406 7.783 1.84a.067.067 0 0 0 .035-.128m6.029-.586a11.1 11.1 0 0 0-3.766-1.289c-1.277-.324-2.556-.63-3.839-.93-2.65-.62-5.296-1.25-7.937-1.908a.054.054 0 0 0-.028.104c2.614.752 5.22 1.532 7.823 2.322 1.26.382 2.52.757 3.787 1.116a11.1 11.1 0 0 0 3.91.771.101.101 0 0 0 .05-.186m2.143-1.323a18.6 18.6 0 0 0-3.268-1.225 41 41 0 0 0-3.497-.863.033.033 0 0 0-.018.064c1.135.319 2.26.674 3.383 1.035 1.116.36 2.228.787 3.365 1.073.049.012.083-.06.035-.084m4.1-.055a7.3 7.3 0 0 1-2.433-1.126c-.057-.04-.111.053-.055.094a6.1 6.1 0 0 0 2.473 1.088c.036.007.052-.046.015-.056m13.098.796a4.9 4.9 0 0 0-1.487-.424 5.8 5.8 0 0 0-1.56.075c-.114.017-.083.196.026.197.498.003.984.072 1.478.117.495.045.993.103 1.485.172.076.01.143-.098.058-.137m-20.156-72.233a38.3 38.3 0 0 0-8.737-2.394c-.021-.003-.03.029-.009.033a52 52 0 0 1 8.73 2.417c.036.013.05-.042.016-.056m19.343 5.197a61.8 61.8 0 0 0-11.428-5.974 92 92 0 0 0-12.011-4.106.03.03 0 0 0-.016.056 103 103 0 0 1 12.079 4.44c3.878 1.702 7.543 3.78 11.322 5.678a.054.054 0 0 0 .054-.094m-7.875-9.202c-.15-.117-.197-.293-.337-.418a1.3 1.3 0 0 0-.654-.243 15 15 0 0 1-1.7-.535 92 92 0 0 0-3.167-1.037c-2.209-.669-4.45-1.174-6.698-1.688a.038.038 0 0 0-.02.073c2.17.643 4.31 1.4 6.45 2.136 1.052.362 2.107.714 3.153 1.09a12 12 0 0 1 1.68.678 1.44 1.44 0 0 0 .65.25c.196.008.359-.095.552-.085.105.006.18-.15.091-.22m6.895 2.64q-.646-.207-1.293-.41c-.892-.28-1.796-.533-2.665-.878-.06-.024-.085.072-.026.096.884.373 1.727.84 2.58 1.276q.604.308 1.208.613c.224.112.882.401 1.012.002.13-.4-.565-.618-.816-.699m.729-3.791a15.2 15.2 0 0 0-3.477-1.794q-1.852-.827-3.755-1.534a60 60 0 0 0-8.073-2.333c-.02-.004-.03.027-.009.033a69 69 0 0 1 7.788 2.452q1.979.749 3.904 1.63a27 27 0 0 0 3.557 1.657c.06.018.117-.067.064-.111m.005-4.957a14.8 14.8 0 0 0-3.29-1.427 100 100 0 0 0-3.339-1.225c-2.321-.796-4.68-1.492-7.047-2.135a.025.025 0 0 0-.014.048c2.31.71 4.596 1.49 6.864 2.323 1.114.41 2.228.816 3.333 1.247a19.4 19.4 0 0 0 3.441 1.291.067.067 0 0 0 .052-.122m-1.7-4.991a16 16 0 0 0-2.51-.885l-2.525-.778q-2.622-.808-5.262-1.551a.038.038 0 0 0-.02.072q2.548.882 5.114 1.708l2.517.806a17 17 0 0 0 2.642.735c.059.009.11-.074.044-.107m-.266-3.835a7.3 7.3 0 0 0-1.255-.429q-.63-.184-1.263-.355l-2.628-.717a.025.025 0 0 0-.014.049l2.598.828q.625.2 1.254.388a7.3 7.3 0 0 0 1.285.321c.045.005.062-.065.023-.085m-2.148-4.739a3.3 3.3 0 0 0-.523-.236c-.18-.07-.364-.132-.546-.198-.37-.134-.744-.26-1.117-.387-.022-.008-.038.029-.016.038.354.15.706.303 1.062.447l.54.219a3 3 0 0 0 .572.185.038.038 0 0 0 .029-.068m-.655-5.562a2 2 0 0 0-.157-.117 2 2 0 0 0-.349-.186 1.9 1.9 0 0 0-.772-.136.05.05 0 0 0 0 .1 2.1 2.1 0 0 1 .712.172 2 2 0 0 1 .314.167 2 2 0 0 1 .155.113.7.7 0 0 0 .153.097.046.046 0 0 0 .063-.063.4.4 0 0 0-.119-.147m-48.609-83.848c-1.033-.694-2.16-1.253-3.22-1.904a43 43 0 0 1-3.096-2.087c-.034-.025-.077.032-.045.06a29 29 0 0 0 2.993 2.28 14.7 14.7 0 0 0 3.32 1.765c.07.024.104-.076.048-.114m7.558.977c-1.87-.94-3.813-1.72-5.676-2.678a51 51 0 0 1-5.4-3.214c-.058-.04-.11.053-.054.093a51 51 0 0 0 5.393 3.421 26.7 26.7 0 0 0 5.692 2.485c.062.017.105-.077.045-.107m4.913.497c-1.113-.738-2.34-1.32-3.517-1.948l-3.547-1.898c-.043-.022-.08.042-.038.065l3.515 1.952c1.168.648 2.321 1.364 3.545 1.9a.042.042 0 0 0 .042-.071m3.792-1.036c-1.43-.52-2.889-.962-4.337-1.428-.03-.01-.043.038-.013.048 1.442.486 2.877.996 4.336 1.428.031.01.043-.037.014-.048m5.473.24a4 4 0 0 0-.869-.32l-.87-.259c-.604-.179-1.213-.337-1.82-.502a.054.054 0 0 0-.028.104c.597.2 1.192.408 1.793.594l.868.269a4 4 0 0 0 .898.215.055.055 0 0 0 .028-.1m6.257.286c-.72-.173-1.425-.417-2.156-.545a14 14 0 0 0-2.195-.117.033.033 0 0 0-.009.065 13.5 13.5 0 0 0 2.151.564c.728.097 1.464.083 2.195.14a.054.054 0 0 0 .014-.107m6.803-.366a3.6 3.6 0 0 0-.623.06q-.294.04-.588.086l-1.243.18c-.046.006-.035.087.011.081l1.245-.163q.296-.036.59-.077a3.6 3.6 0 0 0 .616-.11.03.03 0 0 0-.008-.057m-25.118 62.005a10.4 10.4 0 0 0-1.715-1.363 73 73 0 0 1-1.966-1.491q-1.834-1.449-3.552-3.033c-.059-.055-.146.032-.088.088q1.732 1.66 3.576 3.198.909.756 1.845 1.478a8 8 0 0 0 1.847 1.213c.055.022.085-.054.053-.09m5.045-.568-1.362-.922c-.879-.596-1.753-1.199-2.64-1.782-1.801-1.186-3.6-2.37-5.428-3.515-.014-.008-.026.013-.013.022 1.734 1.295 3.496 2.548 5.26 3.803.865.617 1.744 1.214 2.618 1.819l1.353.936a2.5 2.5 0 0 0 1.124.592c.06.006.087-.067.064-.113a2.6 2.6 0 0 0-.977-.84m7.258.916a.09.09 0 0 0-.077.044l-.03.047c-.004.005.002.012.001.018a7 7 0 0 0-.364-.269q-.293-.187-.59-.372-.514-.327-1.032-.651c-.715-.445-1.438-.878-2.157-1.316a489 489 0 0 1-4.38-2.69c-.079-.05-.148.071-.072.121 1.918 1.267 3.82 2.556 5.726 3.843q.687.464 1.382.915a6.5 6.5 0 0 0 1.324.83c.474.155.749-.481.269-.52m4.907.678a6.6 6.6 0 0 0-1.55-1.116 31 31 0 0 0-1.69-.973q-1.75-.932-3.577-1.71c-.039-.017-.073.038-.034.057q1.784.857 3.485 1.87a80 80 0 0 1 1.661 1.02 9 9 0 0 0 1.636.97c.072.026.112-.07.07-.118m3.545-.807a5.5 5.5 0 0 0-.827-.522c-.304-.18-.612-.351-.912-.538a16.5 16.5 0 0 1-1.73-1.24c-.061-.05-.15.035-.088.089a18 18 0 0 0 1.66 1.298 10 10 0 0 0 .893.57 3.6 3.6 0 0 0 .956.426c.045.01.089-.048.049-.083m4.358-.277a7.7 7.7 0 0 0-1.306-.536c-.452-.162-.919-.29-1.376-.438-.078-.025-.107.092-.033.12.442.173.879.365 1.324.526a7.6 7.6 0 0 0 1.355.412c.049.008.084-.056.036-.084m4.931-.123a8 8 0 0 0-1.208-.342 11 11 0 0 0-1.24-.225.03.03 0 0 0-.015.056 12 12 0 0 0 1.228.36 8 8 0 0 0 1.223.233c.052.003.051-.065.011-.082M307.774 14.827c-.033-.015-.063.034-.03.05a30.9 30.9 0 0 1 7.596 5.429.038.038 0 0 0 .053-.053 24.5 24.5 0 0 0-7.619-5.426m6.074 8.237a71 71 0 0 0-6.248-4.327c-.074-.045-.14.07-.068.115a71 71 0 0 1 6.287 4.545c1.963 1.593 3.774 3.36 5.728 4.96a.05.05 0 0 0 .07-.071 37.4 37.4 0 0 0-5.769-5.222m8.177 11.796a35 35 0 0 0-3.066-2.655l-3.128-2.594c-2.087-1.73-4.196-3.435-6.296-5.15-.036-.03-.09.022-.053.053 2.094 1.78 4.18 3.569 6.287 5.332l3.115 2.607a34 34 0 0 0 3.09 2.473c.041.026.083-.032.051-.066m-3.66 1.23a95 95 0 0 0-9.43-7.223c-.017-.012-.033.016-.016.029 3.202 2.327 6.281 4.808 9.411 7.23.025.019.06-.014.035-.036m5.916 5.099c-.164-.18-.34-.346-.515-.516l-1.044-1.016c-.696-.678-1.374-1.375-2.057-2.066-.046-.046-.114.024-.07.071.652.722 1.31 1.438 1.95 2.172l.932 1.071c.16.184.315.371.485.545.149.153.282.35.508.366a.13.13 0 0 0 .129-.129c-.003-.214-.182-.35-.318-.498m-1.051 3.646a59 59 0 0 0-3.35-3.092 64 64 0 0 0-7.238-5.362c-.018-.012-.034.017-.017.029a63.5 63.5 0 0 1 7.195 5.558 67 67 0 0 1 3.12 2.991c1.058 1.078 2.012 2.297 3.158 3.28.041.036.11-.009.079-.06a20 20 0 0 0-2.948-3.344m2.437 8.234q-1.481-1.735-3.081-3.363a63 63 0 0 0-6.603-5.806c-.015-.012-.035.014-.02.026a69 69 0 0 1 6.494 5.91q1.511 1.557 2.916 3.213c.954 1.124 1.786 2.385 2.812 3.441a.05.05 0 0 0 .078-.06 22 22 0 0 0-2.596-3.361m-1.119 3.511a49 49 0 0 0-5.546-4.815c-.026-.02-.061.026-.035.046a56 56 0 0 1 5.456 4.895c1.713 1.752 3.242 3.652 4.791 5.546.027.033.083-.01.06-.045a38.4 38.4 0 0 0-4.726-5.626m-2.043 3.413c-.016-.014-.04.01-.023.024a44 44 0 0 1 3.562 3.579c1.147 1.295 2.178 2.675 3.22 4.055.018.025.06.003.043-.025a38.2 38.2 0 0 0-6.802-7.633m4.966 9.222-1.885-2.741c-.024-.035-.081-.003-.057.033l1.845 2.764c.613.92 1.211 1.863 1.887 2.74.022.028.07.003.05-.03-.56-.952-1.215-1.856-1.84-2.766m2.093 7.151-.803-.568c-.035-.024-.07.034-.034.058l.816.546c.022.015.042-.02.02-.036m4.753 22.7q-1.45-1.524-3.015-2.933c-.032-.028-.08.019-.048.048q1.538 1.395 2.969 2.9.704.744 1.381 1.513c.462.526.893 1.084 1.37 1.594.023.024.066-.008.047-.035a29 29 0 0 0-2.704-3.087m3.541 17.049q-.584-.554-1.17-1.104-1.17-1.106-2.398-2.149a62 62 0 0 0-4.996-3.819c-.067-.046-.128.062-.064.108a61 61 0 0 1 5.007 4.003q1.138 1.014 2.224 2.083.573.566 1.116 1.16a2.76 2.76 0 0 0 1.002.847c.052.021.11-.042.092-.093a2.5 2.5 0 0 0-.813-1.036m3.372 4.089-.245-.246c-.168-.168-.35-.322-.526-.481q-.52-.474-1.033-.955a.038.038 0 0 0-.053.053c.327.335.656.67.978 1.01.16.167.313.34.48.5l.252.238c.072.069.14.162.246.163a.055.055 0 0 0 .054-.054c-.003-.102-.086-.16-.153-.228m-2.128 4.27a68 68 0 0 0-2.75-2.38q-2.713-2.212-5.615-4.175c-.036-.024-.068.033-.034.058q2.904 2.09 5.61 4.431a88 88 0 0 1 2.561 2.293q.61.57 1.207 1.154a7.8 7.8 0 0 0 1.265 1.132.097.097 0 0 0 .132-.132 12.6 12.6 0 0 0-2.376-2.381m-.27 5.57q-1.071-1.072-2.174-2.112a81 81 0 0 0-4.575-3.98c-.013-.01-.03.007-.018.018a138 138 0 0 1 4.397 4.043q1.065 1.019 2.1 2.069c.706.716 1.372 1.494 2.145 2.139.04.033.114-.011.078-.06a19 19 0 0 0-1.954-2.117m-3.786 1.027c-.028-.033-.073.015-.047.048 1.453 1.809 2.854 3.684 4.416 5.4.028.031.084-.01.059-.045-1.377-1.873-2.94-3.619-4.428-5.403m3.019 10.613c-.01-.013-.031 0-.022.013l.82 1.088c.007.008.021 0 .015-.009zM179.18 66.621a517 517 0 0 0-3.977-5.301c-.047-.063-.155-.004-.108.063A521 521 0 0 0 179 66.85c1.28 1.761 2.52 3.56 3.93 5.222.039.047.117-.014.084-.066-1.17-1.867-2.528-3.612-3.834-5.385m5.15 2.963a68 68 0 0 1-1.619-2.044q-1.506-1.973-2.867-4.05c-.012-.017-.04 0-.03.018a61 61 0 0 0 2.826 4.158q.702.943 1.443 1.857a16.6 16.6 0 0 0 1.68 1.916c.027.025.076-.007.053-.04-.448-.64-.99-1.213-1.486-1.815m4.159.909-.598-.69c-.423-.489-.843-.98-1.27-1.465l-2.528-2.865c-.018-.02-.047.01-.03.03l2.449 2.943c.401.483.811.96 1.217 1.438l.591.697a3.2 3.2 0 0 0 .637.667c.042.028.08-.024.062-.062a3 3 0 0 0-.53-.693m3.064-.489a17 17 0 0 0-1.736-1.67l-1.794-1.61c-.06-.054-.147.032-.088.088l1.77 1.684a17 17 0 0 0 1.787 1.586c.05.035.095-.038.06-.078m3.184-.98a16.7 16.7 0 0 0-2.907-1.531.02.02 0 0 0-.02.036 17 17 0 0 0 2.891 1.58c.053.018.074-.056.036-.085m7.886 61.02a50 50 0 0 1-4.268-4.421 34 34 0 0 1-3.52-5.202c-.01-.02-.039-.003-.03.017a26.25 26.25 0 0 0 7.757 9.684c.046.034.101-.04.06-.078m3.599.478a22 22 0 0 0-1.859-1.747 29 29 0 0 1-1.82-1.888 28 28 0 0 1-3.081-4.287.042.042 0 0 0-.072.042 24.5 24.5 0 0 0 2.903 4.399 24 24 0 0 0 1.78 1.928 8.7 8.7 0 0 0 2.074 1.651.063.063 0 0 0 .075-.098m2.943-.473c-1.158-1.143-2.449-2.132-3.573-3.313a30.6 30.6 0 0 1-3.139-3.865c-.02-.03-.07-.003-.05.03a25 25 0 0 0 2.944 3.992 15.4 15.4 0 0 0 3.752 3.24.054.054 0 0 0 .066-.084m2.66-1.284c-.264-.175-.52-.36-.78-.541q-.78-.546-1.51-1.16a26 26 0 0 1-2.687-2.605c-.022-.024-.066.009-.046.036a18 18 0 0 0 2.557 2.812q.694.607 1.438 1.153c.268.196.546.378.827.554a1.8 1.8 0 0 0 .766.355.067.067 0 0 0 .057-.1 2 2 0 0 0-.622-.504m3.357-.608a1.8 1.8 0 0 0-.486-.277q-.262-.123-.516-.264a9 9 0 0 1-1-.644 10 10 0 0 1-1.765-1.642c-.015-.018-.047.006-.033.025a8.2 8.2 0 0 0 1.647 1.754 9 9 0 0 0 1.018.674 2.6 2.6 0 0 0 1.099.46.05.05 0 0 0 .035-.086m3.532-.837a4.4 4.4 0 0 0-.859-.427c-.283-.12-.564-.242-.851-.35q-.899-.342-1.796-.687c-.022-.008-.038.029-.016.039q.872.404 1.742.814c.29.136.588.259.884.384a4.2 4.2 0 0 0 .864.304.042.042 0 0 0 .032-.076m3.544-1.649a50 50 0 0 0-2.955-.945c-.031-.01-.043.037-.013.048.978.34 1.955.674 2.952.953.037.01.05-.043.016-.056m7.133 68.535a33 33 0 0 0-3.008-1.462c-.986-.45-1.99-.857-2.989-1.277-.03-.013-.052.039-.022.053.994.503 1.984 1.015 2.992 1.488a33 33 0 0 0 2.982 1.305c.063.022.101-.074.045-.107m5.988-.535c-3.109-1.69-6.25-3.31-9.26-5.174-.06-.037-.113.056-.055.094a59.7 59.7 0 0 0 9.26 5.173c.062.027.118-.06.055-.093m12.159-.067a2.5 2.5 0 0 0-1.15-.571c-.438-.141-.877-.276-1.315-.414a6.4 6.4 0 0 1-1.434-.627c.138.047.271.106.41.148.03.01.043-.038.013-.048-.23-.08-.454-.174-.68-.262a7 7 0 0 0-1.105-.765c-.754-.35-1.507-.705-2.274-1.027-.188-.132-.381-.256-.564-.398-.025-.02-.06.016-.036.035.118.092.245.173.365.262l-.114-.05a30 30 0 0 1-2.926-1.276.042.042 0 0 0-.042.072c.884.585 1.721 1.233 2.601 1.823a19 19 0 0 0 2.595 1.43 8 8 0 0 0 1.448.363 7 7 0 0 1 1.429.56c.468.237.934.471 1.413.685a2.4 2.4 0 0 0 1.254.33.16.16 0 0 0 .112-.27m8.26.631c-2.836-1.54-5.764-2.908-8.628-4.396a363 363 0 0 1-8.55-4.562.03.03 0 0 0-.03.05c2.827 1.647 5.677 3.257 8.572 4.78 2.822 1.485 5.653 2.992 8.594 4.227.057.024.095-.07.042-.099m8.241.61c-1.91-.934-3.836-1.814-5.705-2.831a247 247 0 0 1-5.559-3.148 85.5 85.5 0 0 0-11.158-5.681c-.022-.009-.038.029-.016.038a98 98 0 0 1 11.254 5.976c3.57 2.095 7.201 4.407 11.113 5.814a.092.092 0 0 0 .07-.168m-.511-3.46a27.4 27.4 0 0 0-4.493-2.975q-2.455-1.495-4.959-2.905a197 197 0 0 0-10.067-5.286c-.024-.012-.045.023-.021.036 3.34 1.783 6.64 3.646 9.906 5.563q2.422 1.422 4.82 2.888a36.6 36.6 0 0 0 4.741 2.804c.07.03.125-.077.073-.125m-6.622-7.798a73 73 0 0 0-10.35-6.01c-.014-.007-.026.015-.012.022 3.556 1.835 6.923 3.953 10.328 6.046.037.023.068-.033.034-.058m4.112 2.435a2.1 2.1 0 0 0-.562-.454c-.211-.135-.433-.247-.655-.363-.443-.231-.876-.478-1.31-.724a.054.054 0 0 0-.055.093c.418.276.835.55 1.242.84.205.146.406.293.622.42a2.1 2.1 0 0 0 .657.292.063.063 0 0 0 .06-.104m-1.986-4.781a15.7 15.7 0 0 0-2.232-1.533q-1.175-.741-2.37-1.45-2.43-1.439-4.934-2.746c-.029-.014-.054.028-.026.044q2.441 1.326 4.808 2.785 1.143.71 2.266 1.449a24 24 0 0 0 2.407 1.555c.065.032.14-.05.081-.104m-.242-3.862a22 22 0 0 0-2.927-2q-1.473-.971-2.949-1.938l-6.103-3.99c-.018-.012-.034.017-.017.029l5.948 4.023q1.462.989 2.93 1.97a23 23 0 0 0 3.058 1.984c.048.022.105-.037.06-.079m-1.966-5.088a22 22 0 0 0-2.003-1.338l-2.233-1.436c-1.467-.937-2.944-1.86-4.415-2.789-.019-.011-.035.017-.017.029 1.43.943 2.858 1.892 4.293 2.83q1.077.7 2.156 1.397a23 23 0 0 0 2.178 1.36c.032.016.072-.027.04-.053m-1.86-4.717c-2.325-1.505-4.723-2.904-7.09-4.345-.008-.005-.017.01-.008.015 2.352 1.464 4.682 2.975 7.073 4.374a.025.025 0 0 0 .025-.044m-2.763-5.661c-.736-.55-1.518-1.039-2.284-1.546l-2.3-1.52c-.017-.012-.034.016-.016.028l2.28 1.553c.76.516 1.507 1.055 2.295 1.528.028.017.05-.025.025-.043m-1.283-4.497c-.81-.437-1.637-.845-2.431-1.31a25 25 0 0 1-2.302-1.527c-.026-.02-.061.025-.035.046a19 19 0 0 0 4.742 2.852c.036.014.059-.043.026-.06m-2.219-5.631a6 6 0 0 0-.848-.786l-.896-.74q-.895-.739-1.793-1.476c-.037-.03-.09.02-.053.053l1.759 1.56.867.768a6 6 0 0 0 .899.706c.056.033.103-.039.065-.085m-1.627-5.446a4 4 0 0 0-.652-.384l-.66-.352c-.456-.243-.93-.454-1.397-.675-.03-.014-.054.027-.026.043.446.259.887.529 1.345.766l.664.344a4 4 0 0 0 .689.321c.034.01.066-.038.037-.063m-1.442-4.888a3 3 0 0 0-.174-.245 5 5 0 0 0-.41-.443 4.7 4.7 0 0 0-.971-.71.03.03 0 0 0-.03.051 4.6 4.6 0 0 1 1.296 1.191q.089.118.175.238c.05.071.09.164.17.204a.042.042 0 0 0 .063-.036.5.5 0 0 0-.119-.25m-1.071-5.358c-.043-.047-.094-.09-.141-.135l-.29-.277-.574-.546a.03.03 0 0 0-.042.04l.547.575.27.282q.065.072.134.142a.36.36 0 0 0 .15.103.034.034 0 0 0 .042-.04.35.35 0 0 0-.096-.144m-1.857-3.945a.025.025 0 0 0 0 .05.025.025 0 0 0 0-.05m-157.976.559c-1.152-.887-2.372-1.672-3.552-2.52a54 54 0 0 1-3.534-2.8 48.7 48.7 0 0 1-6.059-6.21c-.044-.055-.14.018-.098.075a47.7 47.7 0 0 0 5.94 6.509 28.6 28.6 0 0 0 7.215 5.097.088.088 0 0 0 .088-.151m-5.179-8.454a81 81 0 0 1-6.232-5.916c-.044-.047-.114.023-.071.071a43.7 43.7 0 0 0 6.273 5.885c.023.017.051-.02.03-.04m7.724 5.59a3.8 3.8 0 0 0-1.089-.653 29 29 0 0 1-1.194-.682 17 17 0 0 1-2.233-1.634c-.04-.035-.098.021-.059.059a18.5 18.5 0 0 0 2.138 1.762 13 13 0 0 0 1.16.738 2.9 2.9 0 0 0 1.235.51.06.06 0 0 0 .042-.1m3.623-2.204c-.794-.536-1.657-.962-2.478-1.453q-1.233-.737-2.423-1.546a44 44 0 0 1-4.643-3.628c-.048-.043-.119.027-.071.07a44.5 44.5 0 0 0 4.542 3.686q1.21.854 2.481 1.612a16 16 0 0 0 2.56 1.335c.046.017.069-.051.032-.076m3.087-2.35c-1.122-.669-2.345-1.187-3.52-1.755a106 106 0 0 1-3.522-1.78.02.02 0 0 0-.02.036 44 44 0 0 0 3.45 2.034 18.6 18.6 0 0 0 3.576 1.548.046.046 0 0 0 .036-.084m2.195-2.221c-.205-.11-.424-.196-.637-.29-.204-.092-.407-.188-.616-.27l-1.308-.514c-.056-.022-.098.075-.041.099l1.29.557c.205.088.417.164.626.244.218.082.435.176.658.243a.038.038 0 0 0 .029-.069m20.149 61.784a8.2 8.2 0 0 0-1.562-1.022 76 76 0 0 1-1.676-1.03q-1.704-1.087-3.303-2.327c-.024-.019-.06.014-.035.036q1.505 1.283 3.118 2.431c.535.38 1.077.752 1.636 1.098a6.5 6.5 0 0 0 1.764.912.059.059 0 0 0 .057-.098m2.895-3.4a7 7 0 0 0-1.027-.252 12 12 0 0 1-.993-.264 11 11 0 0 1-1.977-.815.042.042 0 0 0-.042.072 10.4 10.4 0 0 0 1.928.94 9 9 0 0 0 1.021.293 3.1 3.1 0 0 0 1.08.108.042.042 0 0 0 .01-.082"/><path fill="currentColor" d="M141.815 168.857c-3.874 1.854-7.665 3.939-11.438 5.989-.864.47-1.686 1-2.513 1.53a21.5 21.5 0 0 1-2.492 1.269c-.41.194-.532.536-.838.817a5.8 5.8 0 0 1-1.17.689 18 18 0 0 1-2.874 1.17c-.02-.012-.04-.01-.06-.026-.114-.087-.16-.186-.302-.24a3 3 0 0 0-.772-.038 11.4 11.4 0 0 1-1.587-.395c-.54-.152-1.095-.284-1.619-.486-.054-.021-.086.063-.039.091a11 11 0 0 0 1.709.852q.454.166.92.298c.163.047.33.086.492.14a3 3 0 0 1 .376.195 1 1 0 0 0 .416.108 1.2 1.2 0 0 0 .313-.074.1.1 0 0 0 .016.038 3.9 3.9 0 0 0-1.148 1.002c-.272.37-.511.744-.81 1.098-.175.208-.331.427-.493.643a5.5 5.5 0 0 0-1.168-.662q-.695-.352-1.38-.72c-.9-.482-1.811-.944-2.703-1.442a.017.017 0 0 0-.017.03c.849.564 1.704 1.129 2.594 1.628q.656.369 1.32.722a5.2 5.2 0 0 0 1.256.57c-.079.108-.166.208-.243.317-.021.03.024.06.05.038q.512-.442 1.026-.881a10 10 0 0 1 1.188-.79 5.9 5.9 0 0 1 2.056-1.155 2.1 2.1 0 0 0 .918-.423q.577-.446 1.167-.874.346-.251.691-.505a1.6 1.6 0 0 1 .42-.154 5 5 0 0 0 .573-.057c.814-.223 1.475-1.292 2.03-1.88a12 12 0 0 1 2.52-2.047c3.774-2.29 7.848-4.079 11.661-6.305.052-.03.006-.105-.046-.08m1.019 2.2c-3.715 1.957-7.238 4.212-10.747 6.512-.863.565-1.774 1.05-2.668 1.568a14.3 14.3 0 0 0-2.406 2.025c-1.526 1.41-2.932 2.931-4.387 4.411a71 71 0 0 0-4.89 5.228c-.022.028.015.068.042.041 1.473-1.465 2.888-2.984 4.392-4.419a59 59 0 0 1 4.929-4.024c.789-.604 1.62-1.15 2.408-1.753a29 29 0 0 0 2.17-2.114 36.6 36.6 0 0 1 5.147-3.808q2.948-1.927 6.035-3.624c.029-.016.004-.058-.025-.043"/><path fill="currentColor" d="M127.791 173.083c-.786.252-1.572.484-2.366.71a2.03 2.03 0 0 0-1.14.537 4.5 4.5 0 0 1-1.07.785c-1.384.931-2.623 2.067-3.929 3.102-.018.015.006.046.025.033a47 47 0 0 1 4.352-2.368 5.5 5.5 0 0 1 1.058-.532c.255-.065.403-.012.633-.195.158-.125.311-.259.465-.39a21 21 0 0 1 2.033-1.537c.072-.047.029-.173-.06-.145m55.163 34.424c-4.662 0-9.335-.017-13.991-.29-.044-.003-.041.061 0 .066a64 64 0 0 0 13.991.333.054.054 0 0 0 0-.109m6.901-3.983a133 133 0 0 1-16.53.401c-.043-.002-.042.064 0 .067a83 83 0 0 0 16.539-.402c.037-.005.029-.068-.009-.066m-11.237-3.354a30.6 30.6 0 0 0-5.366-.157c-1.852.042-3.703.135-5.556.131a.063.063 0 0 0 0 .125c1.853.094 3.702.245 5.556.302a24.6 24.6 0 0 0 5.366-.233.088.088 0 0 0 0-.168m1.632-4.133a5.3 5.3 0 0 0-1.877.01c-.62.048-1.242.072-1.864.092a11 11 0 0 1-2.056-.08 8.2 8.2 0 0 0-1.803-.142c-2.627.155-5.234.522-7.853.759a.033.033 0 0 0 0 .067c2.618.026 5.234.183 7.853.127a8.3 8.3 0 0 0 1.803-.28 11.4 11.4 0 0 1 2.056-.251c.621-.03 1.242-.055 1.864-.058a5.4 5.4 0 0 0 1.877-.14.055.055 0 0 0 0-.104m-4.492-2.508c-.695-.455-1.744.03-2.494.092-.988.082-1.991.069-2.982.084-1.96.031-3.898.202-5.852.352a.03.03 0 0 0 0 .058c1.957-.005 3.898.013 5.852-.111.956-.061 1.914-.135 2.871-.149.792-.012 1.925.418 2.605-.103a.13.13 0 0 0 0-.223m-2.553-3.193a1.03 1.03 0 0 0-.925-.078 10 10 0 0 1-1.366.174c-.91.057-1.828.039-2.74.032a63 63 0 0 0-5.376.18.054.054 0 0 0 0 .11c1.796.048 3.583.01 5.377-.093.878-.05 1.758-.107 2.638-.105a9 9 0 0 1 1.319.084 1.26 1.26 0 0 0 1.073-.102.118.118 0 0 0 0-.202m-2.749-3.214a8 8 0 0 0-1.7-.076l-1.805-.028c-1.203-.018-2.406-.03-3.61-.045a.025.025 0 0 0 0 .05q1.806.107 3.61.209l1.805.099a8 8 0 0 0 1.7.04c.128-.02.118-.22 0-.249m-2.398-3.68a21.4 21.4 0 0 0-3.266.146c-1.09.084-2.178.218-3.266.335-.026.002-.027.042 0 .041 1.11-.034 2.222-.053 3.33-.121a21 21 0 0 0 3.215-.303c.058-.013.04-.094-.013-.098m-2.692-2.966c-.317-.1-.497.054-.807.081a7 7 0 0 1-.77-.014q-.8-.014-1.6-.018a132 132 0 0 0-3.204.018.067.067 0 0 0 0 .133c1.088.105 2.177.19 3.267.268q.8.057 1.602.104a4 4 0 0 1 .769.045 3 3 0 0 1 .278.13.75.75 0 0 0 .465.002.392.392 0 0 0 0-.75m1.518.312q-.054-.007-.107-.01-.12-.002-.24.001l-.472.003a.058.058 0 0 0 0 .117l.472.002.231.002q.059-.002.116-.01a.3.3 0 0 0 .108-.02.038.038 0 0 0 0-.065.3.3 0 0 0-.108-.02m-4.639-3.658c-1.512.078-3.015.264-4.528.342-.053.003-.054.085 0 .083a29 29 0 0 0 4.535-.376c.028-.005.021-.05-.007-.049m1.623.028a2.4 2.4 0 0 0-.34.056q-.067.02-.135.033a.3.3 0 0 0-.121.045l-.294.01a.088.088 0 0 0 0 .176l.293.01a.3.3 0 0 0 .113.043q.073.015.145.035a2.4 2.4 0 0 0 .339.056.23.23 0 0 0 .164-.068.24.24 0 0 0 .068-.164c-.005-.113-.103-.248-.232-.232m-2.713-3.493a21 21 0 0 0-2.35.236c-.787.083-1.574.172-2.364.23a.013.013 0 0 0 0 .026c.805.014 1.608.01 2.41-.052a10 10 0 0 0 2.318-.341.05.05 0 0 0-.014-.099m-1.94-2.628a7 7 0 0 0-1.387-.043q-.577.082-1.152.149-.39.018-.78.048c-.021.002-.023.019-.016.033-.32.03-.638.063-.96.084a.014.014 0 0 0 0 .027c.96.002 1.906.056 2.864.134a7 7 0 0 0 1.431-.123 11 11 0 0 0 1.329-.17.026.026 0 0 0 0-.049 11 11 0 0 0-1.329-.09m-1.229-2.741a3.6 3.6 0 0 1-.682.08 1.3 1.3 0 0 1-.498-.11.6.6 0 0 0-.203-.054 5 5 0 0 0-.586.138c-.238.035-.477.06-.716.084l-1.402.145c-.027.003-.028.043 0 .043l1.402-.014q.3-.006.601-.002a3 3 0 0 1 .451.033 1 1 0 0 0 .25.042c.22-.017.385-.196.608-.23a3.2 3.2 0 0 1 .694-.017c.332.023.89.195 1.153-.073a.073.073 0 0 0 0-.102c-.282-.226-.758-.026-1.072.037m-.3-3.029a.8.8 0 0 0-.432.042 3 3 0 0 1-.518.087.6.6 0 0 1-.291-.041.43.43 0 0 0-.212-.07 2.4 2.4 0 0 0-.482.1c-.236.055-.472.102-.708.151-.013-.003-.027.003-.041 0-.013-.004-.016.009-.024.014-.42.086-.841.163-1.27.218-.027.003-.029.044 0 .043.687-.027 1.371-.022 2.06-.022a3 3 0 0 0 .492-.01c.183-.032.273-.189.459-.228a3 3 0 0 1 .56-.06.77.77 0 0 0 .427-.078.081.081 0 0 0-.02-.146m70.683-40.681a4.1 4.1 0 0 0-1.483-.74q-.863-.347-1.732-.676c-1.156-.438-2.315-.877-3.5-1.232a.03.03 0 0 0-.022.053c1.1.561 2.239 1.045 3.375 1.526q.82.348 1.645.681a4.3 4.3 0 0 0 1.66.523.08.08 0 0 0 .056-.135m2.151-1.095a20 20 0 0 0-2.08-.667l-2.098-.604a.033.033 0 0 0-.017.065l2.08.666a20 20 0 0 0 2.097.604.033.033 0 0 0 .017-.065m2.037-1.308a1.7 1.7 0 0 0-.57-.292c-.219-.084-.434-.17-.66-.234l-1.342-.38c-.027-.007-.046.035-.02.047l1.264.566c.21.094.423.167.64.242a1.8 1.8 0 0 0 .646.15.059.059 0 0 0 .042-.099M201.648 65.55c-.542-.353-1.107-.668-1.644-1.03a18 18 0 0 1-1.584-1.201c-.028-.024-.07.016-.041.041a18 18 0 0 0 1.526 1.214 9.6 9.6 0 0 0 1.717 1.02.025.025 0 0 0 .026-.043m3.393-.658a17 17 0 0 0-1.7-1.44c-.582-.464-1.162-.93-1.75-1.388l-3.53-2.747c-.03-.023-.07.017-.041.04l3.503 2.873c.576.471 1.16.933 1.74 1.399a17 17 0 0 0 1.743 1.308.03.03 0 0 0 .035-.045m3.551-1.579c-.681-.648-1.464-1.209-2.204-1.79l-2.237-1.755-4.476-3.511c-.041-.033-.1.025-.059.059l4.517 3.594 2.224 1.77c.717.57 1.427 1.186 2.195 1.686a.033.033 0 0 0 .04-.053m3.969-1.059c-3.836-3.524-7.947-6.765-12.089-9.92-.04-.031-.097.04-.055.072 4.117 3.199 8.083 6.572 12.103 9.89.028.023.07-.016.041-.042m2.382-3.293a116 116 0 0 0-14.78-11.166c-.014-.01-.026.012-.013.021 5.09 3.506 9.904 7.358 14.746 11.192.033.026.08-.017.047-.047m-.873-5.852a21.7 21.7 0 0 0-3.308-2.56q-1.764-1.34-3.539-2.664c-2.37-1.762-4.824-3.394-7.325-4.963-.032-.02-.06.03-.029.05 2.415 1.622 4.796 3.296 7.18 4.96q1.763 1.23 3.477 2.523a30.4 30.4 0 0 0 3.489 2.726.046.046 0 0 0 .055-.072m-8.185-10.546c-1.874-1.332-3.806-2.58-5.658-3.944-.03-.023-.068.027-.04.052a27 27 0 0 0 5.648 3.978.05.05 0 0 0 .05-.086m5.942 4.231c-.23-.192-.477-.36-.72-.534l-.735-.529c-.03-.021-.07.029-.04.053l.701.571c.232.19.458.385.703.557.07.049.157-.063.091-.118m-3.047-6.185a9.4 9.4 0 0 0-1.788-1.349c-.611-.413-1.221-.83-1.838-1.236q-1.91-1.26-3.83-2.504c-.027-.018-.05.024-.024.043q1.856 1.35 3.724 2.683c.602.43 1.21.85 1.817 1.274a9.4 9.4 0 0 0 1.89 1.173c.05.02.079-.05.048-.083m-3.693-6.427q-.676-.506-1.38-.974a27 27 0 0 0-2.942-1.662c-.029-.014-.054.028-.025.044a34 34 0 0 1 2.791 1.722q.66.445 1.297.922a9 9 0 0 0 1.353 1.002c.037.018.093-.023.063-.063a5.4 5.4 0 0 0-1.157-.991m-1.605-4.62c-.872-.55-1.79-1.015-2.71-1.48a.025.025 0 0 0-.025.044c.884.53 1.767 1.057 2.697 1.5a.038.038 0 0 0 .038-.064m-3.281-5.077c-.024.01-.003.047.021.036a.52.52 0 0 1 .684.339c.006.026.047.015.04-.011a.56.56 0 0 0-.745-.364m21.297 45.531c-2.012-1.765-4.208-3.329-6.341-4.942-.052-.04-.123.05-.07.092 2.093 1.664 4.155 3.4 6.366 4.909.035.023.077-.031.045-.06m3.349 7.535a69 69 0 0 0-6.016-5.15 591 591 0 0 0-6.2-4.965c-.02-.016-.05.012-.029.03 2.02 1.76 4.04 3.518 6.084 5.25a69 69 0 0 0 6.096 4.92c.052.035.107-.042.065-.085m2.523 6.555c-3.544-3.009-7.303-5.783-11.034-8.552-.026-.02-.05.024-.026.043 3.69 2.83 7.297 5.774 11.014 8.567.034.026.078-.031.046-.058m4.48 6.983a29 29 0 0 0-3.022-2.251q-1.56-1.142-3.125-2.279c-2.121-1.535-4.24-3.072-6.392-4.563-.031-.022-.058.028-.03.05 2.047 1.576 4.126 3.105 6.205 4.638q1.507 1.11 3.02 2.212a31 31 0 0 0 3.243 2.325.084.084 0 0 0 .1-.131m-4.195 1.465c-1.102-.996-2.3-1.883-3.475-2.792-1.144-.886-2.303-1.751-3.461-2.62-.019-.014-.044.018-.025.033 1.151.939 2.302 1.878 3.468 2.798 1.136.896 2.258 1.819 3.458 2.627.028.018.06-.024.035-.046m4.47 3.786q-.384-.364-.778-.716-.777-.695-1.54-1.405c-.024-.021-.059.013-.036.036q.74.732 1.472 1.474.36.367.728.723a3.3 3.3 0 0 0 .767.66.042.042 0 0 0 .057-.058 3.1 3.1 0 0 0-.67-.714m2.597 6.77a24 24 0 0 0-2.49-2.073l-2.638-2.067q-2.599-2.035-5.2-4.068c-.012-.01-.03.008-.017.018l5.18 4.23 2.513 2.05a24 24 0 0 0 2.591 1.988.05.05 0 0 0 .06-.078m-.531 3.068a24.6 24.6 0 0 0-3.296-2.517c-.022-.015-.042.02-.02.036 1.132.786 2.208 1.65 3.28 2.516.025.02.06-.013.036-.036m1.617 2.561a.012.012 0 0 0-.018.018l.542.547a.017.017 0 0 0 .024-.023ZM85.543 77.085a3.2 3.2 0 0 1-.285-.683.97.97 0 0 0-.325-.43 1.7 1.7 0 0 0-.5-.184 2.1 2.1 0 0 1-.723-.536q-.955-.874-1.984-1.664a26.7 26.7 0 0 0-4.608-2.847c-.038-.019-.072.037-.033.057a33 33 0 0 1 4.447 2.84q1.072.816 2.061 1.73a1.9 1.9 0 0 1 .572.69 2 2 0 0 0 .183.499 1.03 1.03 0 0 0 .425.33c.097.04.215.036.311.082a2.5 2.5 0 0 1 .333.242c.077.056.17-.052.126-.126m3.757 4.018c-.014-.015-.037.008-.023.024 2 2.238 3.944 4.526 5.926 6.78.029.032.073-.015.047-.048-1.86-2.366-3.867-4.584-5.95-6.756M31.536 221.746a8 8 0 0 0-.972-.634c-.722-.435-1.447-.865-2.131-1.36a55 55 0 0 1-4.18-3.357 65 65 0 0 1-7.205-7.467c-.023-.03-.075.01-.052.04a64 64 0 0 0 6.99 7.693 74 74 0 0 0 4.011 3.467c.654.528 1.29 1.078 1.937 1.614a8 8 0 0 0 1.016.764 3.5 3.5 0 0 0 1.186.293c.058.012.126-.052.085-.11a4.2 4.2 0 0 0-.685-.943m3.132 2.018a2 2 0 0 0-.522-.295l-.496-.209c-.355-.15-.709-.298-1.055-.467a.008.008 0 0 0-.008.014c.322.203.63.423.941.643l.45.32a2 2 0 0 0 .52.287.177.177 0 0 0 .17-.293m1.917-1.459a10.5 10.5 0 0 0-1.662-.896 31 31 0 0 1-1.754-.96 44 44 0 0 1-3.252-2.12 56 56 0 0 1-6.142-5.06.025.025 0 0 0-.035.036 50 50 0 0 0 5.914 5.254 63 63 0 0 0 3.282 2.29 15.8 15.8 0 0 0 3.411 2.02c.357.12.497-.37.238-.564m2.086-1.283c-1.671-.911-3.34-1.792-4.944-2.821a48 48 0 0 1-4.716-3.453c-.024-.02-.06.014-.035.035a48 48 0 0 0 4.463 3.568 35 35 0 0 0 5.018 3.038c.243.116.457-.235.214-.367m2.351-1.817a6.7 6.7 0 0 0-1.56-.588c-.561-.2-1.114-.432-1.656-.677a15.7 15.7 0 0 1-2.972-1.77c-.034-.025-.078.032-.046.06a17.6 17.6 0 0 0 2.893 2.028 13 13 0 0 0 1.568.735 4.1 4.1 0 0 0 1.708.452.13.13 0 0 0 .065-.24m2.325-2.01c-.535-.143-1.06.02-1.502-.408a.53.53 0 0 0-.336-.193c-.105-.015-.182.034-.276.036a3.4 3.4 0 0 1-.76-.187q-1.566-.404-3.137-.78c-.017-.005-.03.02-.012.03a19 19 0 0 0 3.187 1.259q.195.055.389.113c.164.05.264.157.419.219.287.115.57-.098.87-.07s.54.208.826.259a.35.35 0 0 0 .378-.165.078.078 0 0 0-.046-.113m1.489-1.718a3 3 0 0 0-.403-.092.7.7 0 0 0-.253-.168 1.3 1.3 0 0 0-.441-.095 1.8 1.8 0 0 0-.415.063 1 1 0 0 0-.137.047c-.208-.078-.403-.243-.609-.314a4.3 4.3 0 0 0-.748-.13c-.5-.08-.995-.183-1.496-.261a4.8 4.8 0 0 1-1.454-.39.01.01 0 0 0-.011.017 9.7 9.7 0 0 0 2.777 1.083 5 5 0 0 0 .779.238c.276.04.57-.051.84.016a2 2 0 0 1 .37.189 2.5 2.5 0 0 0 .385.132 4 4 0 0 0 .75.156c.298.026.313-.4.066-.491m3.042-2.752a9.5 9.5 0 0 0-1.959-.373q-.986-.172-1.957-.42a24 24 0 0 1-3.89-1.366c-.038-.018-.072.038-.033.057a28.5 28.5 0 0 0 3.862 1.531q1.021.32 2.067.555a5.5 5.5 0 0 0 1.91.233c.124-.019.087-.18 0-.217m1.452-2.239a3.1 3.1 0 0 0-1.165-.077 12 12 0 0 1-1.276-.097 9.8 9.8 0 0 1-2.486-.618c-.048-.02-.083.061-.036.083a10.3 10.3 0 0 0 2.481.836 9 9 0 0 0 1.273.135 2.07 2.07 0 0 0 1.223-.156.06.06 0 0 0-.014-.106m1.427-1.916c-.417-.032-.835-.002-1.252-.03a10 10 0 0 1-1.273-.161.038.038 0 0 0-.02.072 6.3 6.3 0 0 0 1.269.257 3.9 3.9 0 0 0 1.288-.048.046.046 0 0 0-.012-.09m2.051-1.273-.128-.008q-.138-.002-.278.001l-.555.003a.058.058 0 0 0 0 .117l.555.002c.093 0 .186.004.278.002q.064-.002.128-.009a.5.5 0 0 0 .138-.018.038.038 0 0 0 0-.072.5.5 0 0 0-.138-.018m20.888 50.355a1.7 1.7 0 0 0-.952-.506c-.502-.171-1-.355-1.497-.54q-1.608-.6-3.16-1.335a42 42 0 0 1-5.612-3.205c-.027-.018-.05.025-.025.043a39 39 0 0 0 5.553 3.503q1.35.696 2.752 1.287.781.33 1.578.616a2.1 2.1 0 0 0 1.313.26.084.084 0 0 0 .05-.123m1.821-2.274a1.55 1.55 0 0 0-.884-.314q-.6-.123-1.196-.262-1.113-.261-2.21-.58a49 49 0 0 1-4.471-1.521c-.013-.005-.023.017-.01.023a40 40 0 0 0 4.41 1.757q1.163.38 2.347.693.552.146 1.108.278a1.36 1.36 0 0 0 .89.05.08.08 0 0 0 .016-.124m1.948-1.875a7.5 7.5 0 0 0-1.776-.244 30 30 0 0 1-1.903-.276 20 20 0 0 1-3.592-.985c-.027-.01-.046.035-.02.046a22.4 22.4 0 0 0 3.602 1.231 16 16 0 0 0 1.779.324 4.75 4.75 0 0 0 1.91.025.063.063 0 0 0 0-.121m1.45-2.065a10 10 0 0 0-1.255-.077 21 21 0 0 1-1.238-.102 14 14 0 0 1-2.597-.531c-.047-.014-.065.057-.02.072a16 16 0 0 0 2.59.655 12 12 0 0 0 1.265.127 4.2 4.2 0 0 0 1.255-.063c.038-.01.041-.073 0-.08m1.807-1.423c-.713.028-1.428.066-2.142.036a11.5 11.5 0 0 1-2.192-.31.025.025 0 0 0-.013.048 9.25 9.25 0 0 0 4.355.283.03.03 0 0 0-.008-.057m1.645-1.771a4 4 0 0 0-.68.036c-.228.024-.457.034-.685.05a11 11 0 0 1-1.37.007c-.037-.002-.047.06-.01.066a10 10 0 0 0 1.38.105c.228 0 .457-.018.684-.038a2.4 2.4 0 0 0 .692-.144.042.042 0 0 0-.011-.082m1.997-2.047a4 4 0 0 0-.403.07c-.134.027-.27.042-.404.064a3.2 3.2 0 0 1-.837.021c-.029-.003-.034.042-.007.05a3.3 3.3 0 0 0 .852.103 2 2 0 0 0 .414-.057 1.3 1.3 0 0 0 .41-.158c.038-.025.028-.098-.025-.093m2.154-2.386-.547.173c-.02.007-.011.04.009.033l.545-.181c.015-.005.009-.03-.007-.025m4.842-2.404a57 57 0 0 1-3.972 3.794c-1.345 1.157-2.84 2.147-4.119 3.379-.59.569-1.376 1.007-1.631 1.806a12 12 0 0 1-1.19 2.612c-1.017 1.657-2.124 3.251-3.102 4.933a.008.008 0 0 0 .015.008 44 44 0 0 1 3.094-4.644 10.7 10.7 0 0 1 2.19-2.135c.706-.51.818-1.358 1.278-2.076a22 22 0 0 1 3.741-3.78 57 57 0 0 0 3.713-3.879c.01-.012-.006-.03-.018-.018m-6.663.779-.362.185a.053.053 0 0 0 .054.092l.362-.184a.053.053 0 0 0-.054-.093m-61.059-73.669a21.57 21.57 0 0 0-11.012-4.413c-.023-.003-.028.036-.006.041a35 35 0 0 1 5.598 1.736 45 45 0 0 1 5.36 2.715c.047.027.105-.042.06-.079m-.401 2.244a6.6 6.6 0 0 0-2.217-1.335c-.775-.364-1.539-.75-2.32-1.1a48 48 0 0 0-4.8-1.846c-.021-.007-.03.025-.01.032a48 48 0 0 1 4.866 2.054c.767.376 1.529.764 2.259 1.209a8.2 8.2 0 0 0 2.133 1.14.092.092 0 0 0 .089-.154m5.775 3.028a.9.9 0 0 0-.285-.337 3 3 0 0 0-.432-.203q-.458-.173-.9-.38a9.6 9.6 0 0 1-1.687-.952c-.053-.04-.123.05-.07.091.514.41 1.007.839 1.553 1.209q.408.276.835.521a2.4 2.4 0 0 0 .463.207.8.8 0 0 0 .471-.027.088.088 0 0 0 .052-.129m3.046 3.958a11.7 11.7 0 0 0-1.92-1.081q-.92-.462-1.85-.904-1.927-.917-3.89-1.755c-.009-.004-.018.01-.008.014q1.973.894 3.904 1.876.947.485 1.884.992a14 14 0 0 0 1.848.934c.049.017.066-.05.032-.076m3.269 1.633a7 7 0 0 0-.36-.186l-.368-.174c-.019-.01-.036.018-.016.029l.358.19q.18.093.365.177c.024.011.045-.023.021-.036m132.93 41.017a62 62 0 0 0-7.82-.714c-.033 0-.041.052-.008.057a62 62 0 0 0 7.815.755c.055.002.07-.09.013-.098m7.901-2.526a26 26 0 0 0-3.252.025 7.1 7.1 0 0 1-2.019-.341 3.4 3.4 0 0 0-1.519-.225 35 35 0 0 1-6.93-.39c-.014 0-.017.023-.003.025a48 48 0 0 1 6.833 1.107c1.061.315 2.151-.062 3.245.032a33 33 0 0 0 3.541.536c.422-.01.557-.697.104-.77m3.028-2.408a31 31 0 0 0-3.158-.085 30 30 0 0 1-3.38-.386 61 61 0 0 0-6.231-.695.067.067 0 0 0-.018.131 61 61 0 0 0 6.215.823 30 30 0 0 1 3.373.437 31 31 0 0 0 3.077.677c.51.055.635-.833.122-.902m3.702-2.92a17 17 0 0 0-3.238.096c-1.128-.028-2.258-.15-3.383-.24-2.254-.182-4.503-.32-6.76-.442-.083-.004-.079.116 0 .125 2.21.257 4.407.468 6.63.6 1.083.066 2.172.099 3.253.195 1.135.1 2.234.614 3.385.501.441-.043.618-.727.113-.835m2.791-1.589c-.423-.03-.848-.012-1.272-.008a.038.038 0 0 0 0 .075c.424.003.85.02 1.272-.009a.03.03 0 0 0 0-.058m59.977-15.634a17 17 0 0 0-2.86-1.152l-.05-.02-.06-.03-.009.002c-1.052-.416-2.104-.881-3.139-1.335a56 56 0 0 1-5.964-2.955.022.022 0 0 0-.022.037 56 56 0 0 0 5.95 3.41c.983.472 1.954.851 2.974 1.231a11.5 11.5 0 0 0 3.142.95c.077.006.097-.101.038-.138m103.301 72.803a50 50 0 0 0-10.361-3.644.075.075 0 0 0-.04.145c3.553.95 6.93 2.3 10.376 3.56.035.013.059-.044.025-.061m3.356-3.567a43.6 43.6 0 0 0-8.534-4.022 52 52 0 0 0-9.208-2.591c-.032-.006-.045.04-.014.048a57.6 57.6 0 0 1 9.017 3.132c2.866 1.207 5.653 2.78 8.633 3.684.154.047.231-.167.106-.251m-.51-5.231a2.28 2.28 0 0 0-1.523-.941 54 54 0 0 1-2.257-.752c-1.55-.549-3.05-1.219-4.568-1.85a71.5 71.5 0 0 0-9.24-3.026.038.038 0 0 0-.02.072c3.04 1.004 6.05 2.106 9.073 3.159a40 40 0 0 1 4.548 1.813 27 27 0 0 1 2.095 1.14 2.5 2.5 0 0 0 1.81.587.14.14 0 0 0 .082-.202m-6.875-8.01a48 48 0 0 0-8.715-2.912.054.054 0 0 0-.029.104c2.952.811 5.838 1.84 8.722 2.862.03.01.052-.04.022-.054m5.731 1.855a.9.9 0 0 0-.291-.26 3 3 0 0 0-.353-.218 9 9 0 0 0-.768-.362 14 14 0 0 0-1.568-.574.092.092 0 0 0-.049.176 8.5 8.5 0 0 1 1.517.656q.348.2.682.423.172.116.35.22a1 1 0 0 0 .353.16c.118.016.173-.134.127-.22m-1.164-5.196a3.5 3.5 0 0 0-1.19-.61l-1.385-.567c-.953-.39-1.908-.777-2.872-1.142a32 32 0 0 0-6.026-1.711c-.088-.015-.128.116-.038.136a41 41 0 0 1 5.882 1.839c.929.357 1.85.736 2.768 1.118l1.382.577a4 4 0 0 0 1.431.474.067.067 0 0 0 .048-.114m-2.011-5.192a11 11 0 0 0-2.037-.643q-1.097-.313-2.183-.664c-1.447-.468-2.89-.937-4.314-1.472-.027-.01-.046.035-.02.046 1.375.595 2.767 1.17 4.189 1.645q1.083.361 2.178.685a8.7 8.7 0 0 0 2.16.504.055.055 0 0 0 .027-.1m-1.78-4.798a4.5 4.5 0 0 0-1.128-.523c-.449-.185-.903-.355-1.356-.53l-2.666-1.036c-.04-.015-.068.052-.03.069l2.627 1.13c.409.175.815.355 1.226.525a5 5 0 0 0 1.286.465.059.059 0 0 0 .041-.1m-1.035-5.131a4 4 0 0 0-.467-.229 11 11 0 0 0-1.057-.396c-.723-.224-1.46-.41-2.2-.568a.07.07 0 0 0-.038.136 18 18 0 0 1 2.14.759c.342.146.687.286 1.027.435.153.067.303.127.46.181.146.05.278.13.425.06a.08.08 0 0 0 .036-.09c-.035-.156-.198-.213-.326-.288m-1.843-4.45q-.285-.07-.57-.145a5.8 5.8 0 0 1-1.112-.433.046.046 0 0 0-.046.079 7.5 7.5 0 0 0 1.085.548 4 4 0 0 0 .578.188.92.92 0 0 0 .56.026.054.054 0 0 0 .01-.085 1.15 1.15 0 0 0-.505-.178m.472-2.522a11.5 11.5 0 0 0-1.434-.622c-.065-.026-.113.087-.048.114a11.5 11.5 0 0 0 1.457.57.034.034 0 0 0 .025-.062m-73.213 111.249c-.029-.052-.104-.006-.08.046a45 45 0 0 0 3.983 7.065.05.05 0 0 0 .087-.05c-1.286-2.38-2.695-4.688-3.99-7.061m8.006 9.009q-.937-1.468-1.793-2.987a72 72 0 0 1-3.186-6.31c-.023-.051-.113-.014-.092.038a59 59 0 0 0 3.001 6.435 28.7 28.7 0 0 0 3.874 5.946c.05.053.13-.014.098-.076-.553-1.062-1.258-2.038-1.902-3.046m5.007 3.124a129 129 0 0 1-2.143-3.525 136 136 0 0 1-3.904-7.12c-.022-.043-.084-.005-.064.038q1.71 3.766 3.764 7.346a88 88 0 0 0 2.077 3.419 23 23 0 0 0 2.295 3.305c.054.058.137-.016.105-.081a39 39 0 0 0-2.13-3.382m4.911 3.027a119 119 0 0 1-2.246-3.594q-2.17-3.634-4.091-7.416c-.027-.053-.104-.007-.08.046a91 91 0 0 0 4.012 7.608 90 90 0 0 0 2.23 3.603 26.4 26.4 0 0 0 2.401 3.362c.036.04.096-.01.072-.056-.664-1.236-1.536-2.375-2.298-3.553m2.802-.871q-1.879-3.15-3.773-6.29a.038.038 0 0 0-.064.038 274 274 0 0 0 3.64 6.368c1.238 2.095 2.414 4.272 3.827 6.257a.063.063 0 0 0 .108-.063c-1.119-2.166-2.49-4.217-3.738-6.31m6.4 5.757q-.892-1.472-1.745-2.968a173 173 0 0 1-3.252-5.943c-.017-.033-.067-.004-.05.03a107 107 0 0 0 3.203 6.1q.826 1.447 1.688 2.873a23 23 0 0 0 1.818 2.806c.025.031.067-.008.052-.04-.476-.995-1.142-1.915-1.713-2.858m-.437-7.104c-.008-.013-.03 0-.021.013 1.045 1.633 2.07 3.28 3.148 4.892.011.018.04.002.028-.016-1.023-1.647-2.1-3.263-3.155-4.889m7.346 10.173a3 3 0 0 0-.269-.344c-.185-.193-.37-.39-.573-.566-.408-.355-.802-.72-1.215-1.07a.03.03 0 0 0-.042.04 9 9 0 0 1 .992 1.235c.141.217.294.427.435.645.08.123.172.234.262.348a1.1 1.1 0 0 0 .317.261.165.165 0 0 0 .24-.184 1 1 0 0 0-.148-.365m.991-4.35c-.029-.024-.07.015-.042.041a44 44 0 0 1 3.092 3.306c.025.029.074-.009.052-.04a18.5 18.5 0 0 0-3.103-3.307m9.163 4.253a5.4 5.4 0 0 0-.683-.398c-.492-.241-1.007-.428-1.496-.675a.096.096 0 0 0-.097.165c.452.31.864.673 1.312.99a5 5 0 0 0 .677.408 1.35 1.35 0 0 0 .76.204.105.105 0 0 0 .073-.128 1.35 1.35 0 0 0-.546-.567m-51.26-16.929q-1.041-1.256-2.064-2.528a261 261 0 0 1-4.07-5.171c-2.618-3.43-5.233-6.873-7.688-10.422-.034-.048-.112-.004-.08.046 2.382 3.69 4.81 7.34 7.448 10.852a190 190 0 0 0 3.888 5.02q1.023 1.272 2.066 2.527a12.5 12.5 0 0 0 2.188 2.264c.073.053.149-.047.114-.114a13.6 13.6 0 0 0-1.802-2.473m-13.024-9.741a33 33 0 0 1-2.45-3.753c-.6-1.163-1.005-2.875-2.244-3.558a.223.223 0 0 0-.332.191c.116 1.352 1.39 2.376 2.228 3.319a40 40 0 0 1 2.834 3.927 74 74 0 0 0 5.24 7.295c.034.039.1-.012.072-.056-1.6-2.564-3.612-4.892-5.348-7.366m.187 6.712c-.574-.893-1.346-1.679-1.987-2.527a53 53 0 0 1-1.908-2.703 28 28 0 0 1-1.607-2.777c-.236-.464-.448-.94-.68-1.407a3.9 3.9 0 0 0-.895-1.372c-.18-.143-.574-.08-.534.221a6.5 6.5 0 0 0 1.573 2.646 100 100 0 0 1 2.005 2.77c.629.906 1.275 1.801 1.925 2.693a21 21 0 0 0 1.964 2.567c.072.072.202-.021.144-.11m-6.997-4.545c-.21-.374-.444-.736-.667-1.103a10 10 0 0 0-.722-.98c-.025-.032-.067.008-.053.04a11 11 0 0 0 .573 1.158c.213.355.417.72.646 1.065.467.706.941 1.406 1.412 2.11a.025.025 0 0 0 .043-.026c-.41-.754-.81-1.517-1.232-2.264m4.113 6.338q-.086-.124-.176-.246l-.362-.508-.714-1c-.062-.086-.206-.005-.144.084l.698 1.01.343.497.172.248c.048.069.103.162.19.176a.06.06 0 0 0 .072-.04.3.3 0 0 0-.079-.22m-5.643-1.465c-.023-.035-.08-.003-.057.034.704 1.104 1.389 2.222 2.146 3.29.018.027.06.004.043-.025-.668-1.126-1.41-2.206-2.132-3.299m-.176 5.731a2 2 0 0 0-.096-.282 4 4 0 0 0-.298-.56 6 6 0 0 0-.79-.956c-.063-.06-.152.03-.095.094a5.7 5.7 0 0 1 .7.969c.097.169.196.336.285.51q.069.127.142.253a3 3 0 0 0 .148.267c.02.027.072.022.07-.019a1.4 1.4 0 0 0-.066-.276m-3.127 2.053c-.005-.009-.02 0-.014.009l.276.406c.003.004.01 0 .007-.004Zm112.075-42.089a10.6 10.6 0 0 1-2.007 3.293c-.387.453-.803.88-1.212 1.315a10.3 10.3 0 0 1-1.391 1.39 4.7 4.7 0 0 0-1.266 1.069c-.381.531-.738 1.087-1.103 1.63-.795 1.186-1.52 2.412-2.25 3.638a91 91 0 0 1-9.81 13.38q-3.093 3.53-6.47 6.793c-.093.09.05.232.141.142a119 119 0 0 0 11.028-12.422c1.721-2.237 3.366-4.525 5.026-6.806.896-1.23 1.82-2.437 2.823-3.58a16 16 0 0 1 1.283-1.338 5.1 5.1 0 0 0 1.247-1.41c.647-1.225 1.698-2.238 2.433-3.431a13.5 13.5 0 0 0 1.575-3.65.025.025 0 0 0-.048-.013m-22.945 31.64q-.274.196-.55.387c-.173.118-.355.219-.534.326s-.372.19-.545.307c-.082.057-.153.124-.23.185a.4.4 0 0 0-.11-.071.4.4 0 0 0-.15-.006l-.03-.038a.153.153 0 0 0-.203-.012.16.16 0 0 0-.04.2l.01.024a.3.3 0 0 0-.066.103.56.56 0 0 0 .013.27 1.2 1.2 0 0 0 .148.376.47.47 0 0 0 .727.094 5 5 0 0 0 .448-.454c.147-.175.259-.364.389-.546.253-.356.536-.685.824-1.014.058-.067-.02-.19-.101-.13m19.005-20.497a18.8 18.8 0 0 0-2.714 3.876 128 128 0 0 1-2.782 4.046 62.5 62.5 0 0 1-6.55 7.579c-.023.023.011.057.035.035a78 78 0 0 0 6.919-7.302 47 47 0 0 0 2.894-3.786 13 13 0 0 0 2.4-4.33.122.122 0 0 0-.202-.118m-1.814-9.938a5.15 5.15 0 0 1-1.67 2.296 43 43 0 0 0-2.033 1.996 57 57 0 0 0-1.894 2.124 14 14 0 0 0-1.686 1.89c-1.945 3.27-3.956 6.481-5.648 9.896a.058.058 0 0 0 .1.058c1-1.665 2.046-3.31 3.18-4.888 1.163-1.62 2.454-3.084 3.735-4.604a3.7 3.7 0 0 0 .53-.994 6.7 6.7 0 0 1 .84-1.144c.6-.794 1.22-1.571 1.831-2.356.991-1.273 2.457-2.618 2.811-4.248a.05.05 0 0 0-.096-.026M231.49 459.753c-.16-.47-.395-.941-.603-1.392-.434-.944-.9-1.873-1.326-2.821q-1.302-2.901-2.612-5.799c-.028-.063-.138-.018-.114.049q1.091 2.99 2.188 5.977c.36.977.676 1.967 1.025 2.947a15 15 0 0 0 .545 1.417 9.4 9.4 0 0 0 .916 1.33.142.142 0 0 0 .259-.11 9.3 9.3 0 0 0-.277-1.598m-4.925-5.827c-.028-.064-.139-.018-.114.048a50.3 50.3 0 0 0 5.505 11.43.054.054 0 0 0 .094-.055c-1.71-3.863-3.816-7.535-5.485-11.423m1.742 9.289c-.874-1.74-1.722-3.491-2.496-5.278-.013-.03-.065-.008-.053.023.68 1.8 1.41 3.585 2.247 5.318a30 30 0 0 0 2.916 5.18.046.046 0 0 0 .079-.046c-.784-1.784-1.82-3.456-2.693-5.197m-2.115.707c-.021-.043-.085-.005-.065.038 1.098 2.322 2.141 4.683 3.377 6.936.021.039.074.005.057-.034-1.01-2.363-2.22-4.642-3.369-6.94m-.182 5.805c-.017-.021-.045.009-.03.03a17.6 17.6 0 0 1 1.816 2.902c.014.029.056.003.043-.025a14.3 14.3 0 0 0-1.829-2.907m-91.003-210.058a57.6 57.6 0 0 0-11.256 2.509.013.013 0 0 0 .007.024c3.73-.929 7.507-1.633 11.257-2.472.034-.007.027-.065-.008-.061m.606-3.618a2.7 2.7 0 0 0-1.494.087c-.532.118-1.06.256-1.591.376a16 16 0 0 1-2.041.328 7.8 7.8 0 0 0-1.543.439 54 54 0 0 1-6.949 1.855c-.018.003-.014.033.005.032a27.6 27.6 0 0 0 6.843-1.36 13 13 0 0 0 1.564-.406 10 10 0 0 1 1.814-.676 10 10 0 0 1 1.946-.233 3.5 3.5 0 0 0 1.483-.16c.131-.065.075-.237-.037-.282m-13.034-3.83c-1.834.38-3.663.785-5.463 1.301a.01.01 0 0 0 .006.02c1.84-.347 3.655-.808 5.464-1.293a.015.015 0 0 0-.008-.028m4.401-.727c-.261.041-.515.108-.775.16q-.812.16-1.635.259c-.11.013-.111.188 0 .175a22 22 0 0 1 1.616-.14c.265-.012.529-.009.793-.029.203-.015.57-.014.667-.236a.1.1 0 0 0 0-.093c-.15-.195-.455-.13-.665-.096m-3.688-2.041a9.7 9.7 0 0 0-2.297.306c-.837.177-1.67.373-2.502.57-1.635.385-3.276.749-4.91 1.138-.013.004-.007.023.006.02 1.621-.318 3.244-.64 4.873-.912.817-.136 1.634-.264 2.45-.406a11 11 0 0 0 2.4-.577.071.071 0 0 0-.02-.139m-4.666-2.063a1.6 1.6 0 0 0-.993.047 9 9 0 0 1-1.202.35c-.776.114-1.556.2-2.333.308-1.612.222-3.183.627-4.766.993-.008.002-.004.014.003.012 1.562-.329 3.147-.543 4.714-.847.766-.148 1.532-.302 2.305-.409a3.3 3.3 0 0 1 .944-.034 4 4 0 0 0 .392.046 1.62 1.62 0 0 0 .971-.192.153.153 0 0 0-.035-.274m-3.433-2.219a30.5 30.5 0 0 0-7.587 1.183.013.013 0 0 0 .007.024 44 44 0 0 1 3.829-.641 24 24 0 0 1 3.75-.162l-.004-.015c.236.006.279-.401.005-.389m-6.24-1.695c-.5.112-.986.277-1.472.433q-.733.238-1.447.525a.02.02 0 0 0 .011.04q.757-.196 1.5-.442c.478-.16.961-.315 1.424-.518.022-.01.006-.043-.016-.038m2.344-.459a.6.6 0 0 0-.151.033.3.3 0 0 0-.143.07l.06-.035a.5.5 0 0 0-.094.036l-.025.02q.012-.011-.003-.004l-.043.01c-.055.014-.106.034-.161.044l-.34.062c-.037.006-.028.066.01.065l.346-.003c.057-.001.113.009.17.012q.022 0 .044.003h.005q-.02-.002.025.012a1 1 0 0 0 .094.014c.01.002.016.01.028.012l.062.007a.6.6 0 0 0 .164.002.184.184 0 0 0-.048-.36m-4.888-1.267c-.61.09-1.215.213-1.822.33-.024.004-.013.04.01.036.609-.106 1.217-.205 1.82-.338.02-.004.01-.03-.007-.028m-1.539-1.717c-.52.055-1.036.16-1.55.252-.019.004-.01.031.007.028.516-.077 1.037-.142 1.546-.255.014-.003.011-.026-.003-.025m-1.707-5.048a3.4 3.4 0 0 0-1.416-.118c-.484.023-.967.08-1.447.143a19.5 19.5 0 0 0-2.808.587.031.031 0 0 0 .017.06 17.6 17.6 0 0 1 2.898-.428c.464-.028.928-.029 1.394-.027a4.8 4.8 0 0 0 1.362-.072.076.076 0 0 0 0-.145m-2.928-2.26a11.9 11.9 0 0 0-4.178.393c-.008.002-.004.014.004.012a32 32 0 0 1 4.174-.342.031.031 0 0 0 0-.063m-1.812-2.157a10 10 0 0 0-1.684.107c-.565.09-1.124.212-1.688.305-.028.004-.021.051.007.049.571-.042 1.144-.054 1.715-.1a10 10 0 0 0 1.66-.291.036.036 0 0 0-.01-.07m-2.357-2.598a10 10 0 0 0-1.254.09c-.405.054-.808.145-1.21.22a.015.015 0 0 0 .004.028c.418-.023.84-.03 1.254-.076a10 10 0 0 0 1.214-.205.03.03 0 0 0-.008-.057m-13.896-9.62a27.8 27.8 0 0 0-6.718-.961c-.035-.002-.034.05 0 .054 2.252.226 4.46.73 6.708.976.041.005.046-.058.01-.07m-6.432-3.319a64 64 0 0 0-2.921-.11.01.01 0 0 0 0 .021q1.433.082 2.865.194c.946.073 1.908.227 2.858.211a.021.021 0 0 0 .006-.04 18 18 0 0 0-2.808-.277m-.553-2.119a10 10 0 0 0-1.967-.138l-2.036-.029c-.025 0-.024.036 0 .038l1.997.149a10 10 0 0 0 1.998.041c.031-.004.046-.053.008-.061m-3.181-2.172c-.483-.038-.97-.002-1.454-.003q-.726-.001-1.45-.071c-.016-.002-.02.026-.004.029q.723.108 1.454.15a5.6 5.6 0 0 0 1.46-.06c.027-.005.019-.043-.006-.045m-4.541-1.946c-.032.003-.032.053 0 .05.423-.038.848-.067 1.269-.123.015-.002.017-.026 0-.025-.424.017-.847.063-1.27.098m-21.577 5.518a1.4 1.4 0 0 0-.39-.32 2.8 2.8 0 0 0-.596-.15 13 13 0 0 1-1.16-.253c-.78-.2-1.56-.393-2.339-.596a.013.013 0 0 0-.006.024c.763.26 1.522.53 2.284.793.388.134.762.283 1.139.446a2.6 2.6 0 0 0 .553.188 1.4 1.4 0 0 0 .495-.056.046.046 0 0 0 .02-.076m1.307.16q-.112-.025-.226-.044l-.455-.074a.097.097 0 0 0-.115.065.095.095 0 0 0 .065.116l.447.104q.112.024.225.045c.07.014.204.03.23-.061.025-.092-.104-.138-.171-.152m12.559-14.12a10.7 10.7 0 0 0-4.103-.033c-.037.005-.028.068.009.066.68-.04 1.362-.043 2.043-.026s1.36.08 2.041.063a.036.036 0 0 0 .01-.07m-3.547-2.345q-1.044-.05-2.09-.015a.01.01 0 0 0 0 .02q1.027.003 2.05.083c.678.054 1.359.168 2.038.187a.02.02 0 0 0 .006-.041 10 10 0 0 0-2.004-.234m-2.452-2.104a.01.01 0 0 0 0 .022l.635-.003a.008.008 0 0 0 0-.016zm-2.636-2.994a2.1 2.1 0 0 1-.814.072c-.032-.003-.033.047 0 .05a1.9 1.9 0 0 0 .82-.102c.012-.004.007-.024-.006-.02m66.926-16.066a6 6 0 0 0-1.062-.364c-.372-.1-.746-.19-1.12-.283a.013.013 0 0 0-.007.024c.357.128.712.26 1.072.38a6 6 0 0 0 1.096.292c.027.004.051-.035.02-.05m-.733-2.083c-.017-.003-.026.024-.007.028.663.143 1.325.294 1.999.377.016.002.02-.025.004-.029-.657-.168-1.327-.268-1.995-.376m3.369-1.221q-.381-.158-.764-.31c-.258-.105-.522-.193-.778-.303-.048-.02-.09.046-.042.072a7 7 0 0 0 .752.367 5 5 0 0 0 .816.234.031.031 0 0 0 .017-.06m-3.408 107.958a49.4 49.4 0 0 0-5.357 5.865q-1.21 1.571-2.289 3.237a15.4 15.4 0 0 0-1.907 3.506c-.043.134.137.184.21.089a37 37 0 0 0 1.977-3.304q1.024-1.694 2.185-3.299a48 48 0 0 1 5.202-6.073c.014-.014-.007-.034-.02-.021m-2.109-1.199a48.6 48.6 0 0 0-5.485 6.039 27.2 27.2 0 0 0-4.208 6.946c-.021.058.06.08.091.038.808-1.062 1.475-2.23 2.192-3.354q1.076-1.69 2.255-3.305a69 69 0 0 1 5.179-6.34.017.017 0 0 0-.024-.024m-3.373.167a44.5 44.5 0 0 0-4.571 5.215c-.684.928-1.234 1.94-1.86 2.907-.325.499-.667.983-1.009 1.47a4.1 4.1 0 0 0-.861 1.488.16.16 0 0 0 .264.154 4.1 4.1 0 0 0 .74-1.33 18 18 0 0 1 .823-1.578c.596-.999 1.339-1.877 2.023-2.813a60 60 0 0 1 4.475-5.49.017.017 0 0 0-.024-.023m-5.925 3.243q-1.355 1.666-2.611 3.409a19.8 19.8 0 0 0-2.338 3.74c-.018.045.038.106.076.059.898-1.116 1.581-2.387 2.365-3.584q1.208-1.843 2.544-3.596c.016-.02-.02-.048-.036-.028m-3.749 1.066a52 52 0 0 0-1.558 1.818q-.355.437-.687.894a6 6 0 0 0-.343.512 1.3 1.3 0 0 0-.207.457c-.004.031.036.047.06.034a1.4 1.4 0 0 0 .355-.373q.168-.216.323-.441l.667-.954a32 32 0 0 1 1.437-1.9c.027-.032-.018-.079-.047-.046m-2.524-.8q-.581.573-1.127 1.18a7.4 7.4 0 0 0-.96 1.279.027.027 0 0 0 .042.032 15 15 0 0 0 1.03-1.232q.5-.634 1.033-1.241c.01-.012-.007-.03-.018-.018m78.33-28.163q-.305-1.043-.664-2.068a.017.017 0 0 0-.032.009q.249 1.077.552 2.14a15 15 0 0 0 .647 2.037c.013.029.05.006.046-.019a15 15 0 0 0-.55-2.1m-2.933-1.348c-.01-.022-.043-.003-.032.019a8 8 0 0 1 .627 1.815c.003.013.023.007.02-.006a7 7 0 0 0-.615-1.828m37.233 35.276a2.6 2.6 0 0 0-.317-.445c-.232-.33-.433-.682-.658-1.017-.445-.663-.916-1.303-1.374-1.957a.027.027 0 0 0-.046.027c.33.728.658 1.45 1.04 2.152.186.343.396.673.59 1.012a3.5 3.5 0 0 0 .276.512c.133.16.344.227.498.365a.063.063 0 0 0 .105-.06c-.06-.193-.037-.403-.114-.59m1.737 2.223a4 4 0 0 0-.137-.166 2 2 0 0 0-.14-.144c-.05-.047-.097-.077-.145-.121s-.098-.08-.147-.12c-.048-.038-.09-.087-.136-.13a1 1 0 0 1-.13-.135l-.128-.156c-.068-.084-.217.03-.15.116a2.3 2.3 0 0 1 .218.307c.031.059.072.113.101.173.028.055.05.114.082.17a3 3 0 0 0 .184.326q.066.092.136.182a.55.55 0 0 0 .166.167.24.24 0 0 0 .35-.268.54.54 0 0 0-.124-.201m2.586-2.507a6 6 0 0 0-.34-.48c-.24-.305-.48-.61-.73-.907-.498-.593-1.033-1.153-1.526-1.75-.009-.01-.027.004-.02.015.437.642.825 1.314 1.255 1.96q.315.469.647.927.172.24.363.462a.95.95 0 0 0 .395.332.118.118 0 0 0 .148-.113.9.9 0 0 0-.192-.446m1.294-2.416a2 2 0 0 0-.378-.339 2 2 0 0 0-.423-.234 1.3 1.3 0 0 0-.213-.074c-.078-.017-.158-.023-.235-.047a.027.027 0 0 0-.026.046 1.3 1.3 0 0 1 .15.17c.046.056.1.103.152.154.11.11.228.208.346.308a5 5 0 0 0 .384.29.8.8 0 0 0 .398.197.07.07 0 0 0 .07-.068.72.72 0 0 0-.225-.403m-1.122 25.332q-1.215 3.57-2.329 7.174c-.742 2.397-1.522 4.799-2.095 7.242a.025.025 0 0 0 .048.014c.818-2.375 1.474-4.81 2.2-7.213q1.09-3.608 2.196-7.211c.004-.013-.016-.018-.02-.006m-5.254 17.374q-.284 1.053-.575 2.103c-.092.337-.19.674-.277 1.012a4.4 4.4 0 0 1-.31.987.03.03 0 0 0 .045.036 1.4 1.4 0 0 0 .37-.743c.098-.378.182-.759.27-1.14q.255-1.122.518-2.243a.02.02 0 0 0-.04-.011m.89-12.474q-1.502 4.638-2.803 9.336c-.869 3.125-1.756 6.269-2.364 9.457a.03.03 0 0 0 .056.015c.878-3.127 1.593-6.3 2.44-9.435.845-3.137 1.75-6.258 2.691-9.367.004-.013-.016-.018-.02-.006m-4.086 4.903c-1.714 5.4-3.613 10.765-5.146 16.218-.014.05.059.068.076.021 1.98-5.302 3.517-10.8 5.11-16.228a.02.02 0 0 0-.04-.01m-5.389 6.788c-.934 3.966-2.16 7.835-3.338 11.732-.01.034.04.046.052.014a75 75 0 0 0 3.307-11.74c.002-.013-.017-.02-.02-.006m-4.721 7.092c-.565 2.425-1.23 4.824-1.881 7.227a.017.017 0 0 0 .032.008 74 74 0 0 0 1.868-7.23c.003-.012-.017-.018-.02-.005m-4.009 3.391a84 84 0 0 1-2.463 8.077c-.01.028.033.038.044.012a46 46 0 0 0 2.443-8.082c.003-.016-.02-.022-.024-.007m-6.082-47.384c-.984 2.845-1.978 5.687-2.944 8.538q-.703 2.074-1.395 4.152a30.5 30.5 0 0 0-1.332 4.444c-.013.078.096.14.137.058a28 28 0 0 0 1.447-4.02q.715-2.209 1.416-4.422c.922-2.907 1.816-5.823 2.72-8.736.009-.031-.038-.044-.049-.014m-7.313 4.919c-1.032 2.553-2.03 5.136-2.833 7.771-.396 1.298-.725 2.614-1.125 3.911q-.302.973-.623 1.94a3.6 3.6 0 0 0-.372 1.653.077.077 0 0 0 .129.034 3.4 3.4 0 0 0 .453-1.498c.136-.665.283-1.328.451-1.986.349-1.362.814-2.675 1.257-4.007.871-2.614 1.723-5.23 2.695-7.809.008-.02-.024-.028-.032-.009m-4.252 5.163q-1.104 2.889-2.126 5.808a51 51 0 0 0-1.862 5.893.03.03 0 0 0 .057.015c.764-1.905 1.29-3.923 1.932-5.873q.966-2.933 2.02-5.838c.004-.012-.016-.017-.02-.005m-3.657 2.322q-.87 2.753-1.775 5.495a50 50 0 0 0-1.716 5.509c-.006.026.033.046.046.019a41 41 0 0 0 1.818-5.374q.862-2.81 1.692-5.631a.033.033 0 0 0-.065-.018m-4.041 4.331c-.735 2.49-1.543 4.974-2.124 7.506a.023.023 0 0 0 .044.012c.832-2.461 1.445-5 2.124-7.506a.023.023 0 0 0-.044-.012m-3.326 3.697c-.271 1.564-.68 3.1-1.097 4.632a.023.023 0 0 0 .044.012 22 22 0 0 0 1.09-4.634c.003-.024-.032-.035-.036-.01M115.7 292.183c-.69 2.698-1.239 5.44-1.739 8.178-.005.031.041.045.049.014.653-2.707 1.262-5.436 1.726-8.182.004-.023-.03-.033-.036-.01m3.185-1.486a68.6 68.6 0 0 0-3.598 17.977c-.002.036.05.034.054 0a99.5 99.5 0 0 1 3.58-17.967c.008-.023-.028-.033-.036-.01m2.213 1.371a118 118 0 0 0-2.65 11.435 77.5 77.5 0 0 0-1.34 11.43c-.001.053.073.05.08 0 .502-3.877.903-7.759 1.545-11.618q.943-5.67 2.39-11.24a.013.013 0 0 0-.025-.007m1.7 4.377a89 89 0 0 0-2.58 11.27 59.6 59.6 0 0 0-.895 11.312.052.052 0 0 0 .104 0c.316-3.838.558-7.672 1.103-11.487a93 93 0 0 1 2.284-11.09.008.008 0 0 0-.016-.005m.942 6.395a66.7 66.7 0 0 0-2.289 20.82.025.025 0 0 0 .05 0 82 82 0 0 1 2.267-20.812.015.015 0 0 0-.028-.007m.03 10.326c.001-.016-.024-.016-.026 0a64.6 64.6 0 0 0-.265 13.899c.002.024.04.024.038 0a79.4 79.4 0 0 1 .252-13.9m.833 10.767c-.002-.018-.03-.019-.03 0 .129 2.09.258 4.178.434 6.264.002.015.026.016.025 0-.111-2.09-.27-4.177-.43-6.264m2.467 6.669c-.002-.021-.038-.016-.036.005.048.5.114.996.179 1.494.002.015.027.016.025 0-.051-.5-.1-1-.168-1.5m9.512 14.026c-.585 2.8-1.18 5.594-1.562 8.43-.004.034.044.05.052.015.655-2.787 1.093-5.61 1.543-8.437.003-.02-.028-.03-.032-.008m-1.699 11.852a.031.031 0 0 0-.062 0c-.043 2.085-.233 4.184-.1 6.268a.031.031 0 0 0 .063 0c.2-2.08.076-4.183.1-6.268m4.257-6.409q-.827 5.312-1.23 10.672c-.133 1.784-.25 3.57-.312 5.358-.033.915-.048 1.83-.058 2.746a14 14 0 0 0 .074 2.666.187.187 0 0 0 .358 0 16 16 0 0 0 .055-2.535q.002-1.373.026-2.746c.029-1.787.067-3.573.16-5.358q.282-5.413.956-10.798c.002-.016-.026-.02-.029-.004m2.078 8.057c-.436 2.566-.708 5.147-.912 7.741-.002.035.057.044.062.009.366-2.576.69-5.152.879-7.747.001-.016-.026-.02-.029-.003m-.885 20.851c-.033-.73-.095-1.459-.109-2.19a62 62 0 0 1 .079-4.375c.003-.056-.085-.056-.088 0a179 179 0 0 0-.198 4.46c-.025.73-.079 1.458-.082 2.19a5.2 5.2 0 0 0 .152 1.997c.046.105.195.06.225-.03a5.9 5.9 0 0 0 .02-2.052m2.452-8.605c.003-.037-.054-.037-.058 0a85 85 0 0 0-.408 6.874 37.6 37.6 0 0 0 .316 6.622c.007.045.077.033.078-.01.046-2.246-.12-4.498-.133-6.745q-.02-3.372.205-6.74m2.343 11.703c-.002-.02-.035-.021-.033 0a23 23 0 0 1 .062 3.002c0 .02.028.019.03 0a15 15 0 0 0-.06-3.002m82.255-32.51a120 120 0 0 0-7.925 20.543q-.763 2.708-1.405 5.448c-.203.869-.48 1.736-.626 2.615-.147.89-.225 1.791-.37 2.682-.596 3.642-1.21 7.265-1.578 10.94-.203 2.03-.378 4.063-.475 6.1a31 31 0 0 0 0 6.143.107.107 0 0 0 .205 0 50 50 0 0 0 .234-5.41c.07-1.791.168-3.583.304-5.37.278-3.68.72-7.365 1.355-11 .317-1.811.845-3.564 1.195-5.365.342-1.76.783-3.505 1.236-5.24q1.392-5.326 3.235-10.518c1.383-3.913 2.924-7.77 4.677-11.533.019-.04-.041-.076-.062-.035m-12.771 35.779a146 146 0 0 0-1.21 10 158 158 0 0 0-.356 5.082 37 37 0 0 0-.065 5.22.054.054 0 0 0 .109 0c.222-1.686.218-3.39.3-5.09.083-1.694.176-3.389.3-5.081q.368-5.071.951-10.127c.002-.016-.026-.02-.029-.004m-3.829 8.577a95 95 0 0 0-1.122 14.58.023.023 0 0 0 .045 0c.337-4.866.544-9.726 1.118-14.574.003-.023-.038-.029-.041-.006M207 402.65c-.01 1.68-.014 3.359 0 5.039a.015.015 0 0 0 .029 0c.014-1.68.009-3.36 0-5.04a.015.015 0 0 0-.03 0m8.893 95.654a130 130 0 0 1-21.38-9.084.03.03 0 0 0-.029.05 81.8 81.8 0 0 0 21.377 9.15.06.06 0 0 0 .032-.116m3.402-1.221a135 135 0 0 1-13.888-5.006c-.024-.01-.045.024-.02.036a58.5 58.5 0 0 0 13.887 5.046.04.04 0 0 0 .021-.076m2.579-1.324c-2.244-.848-4.526-1.58-6.817-2.29-.018-.005-.025.022-.008.028 2.251.83 4.509 1.636 6.807 2.326.042.013.057-.05.018-.064m44.549-17.084a85.5 85.5 0 0 1-13.944-5.57.019.019 0 0 0-.019.033 45.8 45.8 0 0 0 13.934 5.641.054.054 0 0 0 .03-.104m-1.646-7.26a80.7 80.7 0 0 1-13.59-7.298c-.044-.028-.083.04-.04.068 4.295 2.846 8.6 5.866 13.606 7.318.058.017.078-.067.024-.088m15.703 5.456c-2.757-1.198-5.747-1.69-8.627-2.489a.054.054 0 0 0-.03.105c2.856.863 5.642 2.046 8.605 2.506.067.01.127-.09.051-.122m16.977-3.134a23 23 0 0 0-3.087-.771c-1.076-.247-2.154-.482-3.222-.757-2.093-.54-4.181-1.147-6.211-1.893a25 25 0 0 0-2.984-1.14 25 25 0 0 1-3.13-1.044q-3.139-1.162-6.223-2.467a109 109 0 0 1-6.662-3.119c-.04-.02-.077.04-.036.061 3.836 2.025 7.758 3.914 11.775 5.552 1.022.417 2.054.808 3.082 1.21.501.197.964.476 1.464.668.518.2 1.117.264 1.66.42 2.119.607 4.232 1.235 6.35 1.845 1.216.35 2.433.7 3.656 1.024a18 18 0 0 0 3.523.743c.204.011.211-.268.045-.332m13.362-2.807a16.2 16.2 0 0 0-3.586-1.102 113 113 0 0 1-3.742-.896c-2.535-.645-5.048-1.234-7.534-2.064-4.976-1.66-9.834-3.618-14.648-5.698a209 209 0 0 1-8.029-3.643c-.055-.027-.103.054-.048.082a133 133 0 0 0 14.157 6.367q3.653 1.38 7.363 2.604 1.883.624 3.777 1.218c1.266.4 2.496.896 3.758 1.3 1.418.456 2.854.851 4.284 1.265a15.4 15.4 0 0 0 4.187.792c.114 0 .173-.172.061-.225m-12.968-11.321c-4.867-2.234-9.9-4.058-14.937-5.861-.034-.012-.046.04-.015.052 4.934 2.06 9.853 4.161 14.91 5.908.058.02.098-.073.042-.099m25.95 7.986a31 31 0 0 0-4.16-1.543 302 302 0 0 0-4.452-1.393c-2.979-.902-6.004-1.614-9.005-2.433a.056.056 0 0 0-.03.109c2.953.83 5.854 1.837 8.784 2.748 1.443.449 2.887.897 4.326 1.36a40 40 0 0 0 4.475 1.297c.083.016.147-.103.061-.145m9.621-4.757a16.2 16.2 0 0 0-3.488-1.69c-1.219-.497-2.44-.99-3.674-1.446-2.506-.927-5.058-1.734-7.578-2.622-5.014-1.766-10.04-3.539-15.13-5.072-2.893-.872-5.807-1.659-8.714-2.481a.031.031 0 0 0-.016.06c5.07 1.618 10.132 3.239 15.223 4.788a158 158 0 0 1 15.002 5.33c1.343.561 2.697 1.097 4.04 1.66a23.6 23.6 0 0 0 4.27 1.626.084.084 0 0 0 .065-.153m-12.555-13.605a76.7 76.7 0 0 0-13.45-3.663c-.04-.008-.056.05-.017.06 4.51 1.106 8.954 2.505 13.436 3.716.074.02.1-.086.031-.113m17.392 6.14c-2.359-1.855-5.285-2.637-8.132-3.398a.035.035 0 0 0-.019.068c2.822.826 5.37 2.35 8.084 3.445.062.025.12-.073.067-.115m6.571-8.21a15.3 15.3 0 0 0-3.35-.92c-1.122-.24-2.251-.428-3.366-.704a13 13 0 0 1-1.772-.523 8 8 0 0 0-1.746-.619c-1.168-.214-2.321-.52-3.475-.797-4.67-1.12-9.34-2.209-14.064-3.076-.01-.002-.015.013-.005.016 4.636 1.224 9.302 2.318 13.953 3.48 1.15.287 2.313.554 3.443.915a6 6 0 0 0 1.61.26 10 10 0 0 1 1.91.377c1.153.3 2.27.698 3.407 1.049a16 16 0 0 0 3.37.852.168.168 0 0 0 .085-.31m4.432-6.335c-1.698-.48-3.489-.603-5.222-.915s-3.454-.702-5.169-1.106a153 153 0 0 0-10.381-2.058c-.021-.004-.03.027-.01.032a153 153 0 0 0 10.335 2.228c1.693.302 3.386.614 5.06 1.007 1.75.41 3.48 1.018 5.265 1.258.285.038.42-.363.123-.446m1.719-6.059c-2.228-.536-4.514-.908-6.773-1.29-2.185-.368-4.375-.696-6.58-.917-.012-.001-.014.018-.003.02 2.223.355 4.45.685 6.668 1.075 2.222.39 4.418.892 6.631 1.317.133.025.19-.173.057-.205m2.062-5.449a7.6 7.6 0 0 0-2.023-.22q-1.037-.07-2.074-.153a71 71 0 0 1-4.365-.475c-.036-.006-.053.049-.016.056a74 74 0 0 0 4.278.72q1.044.142 2.094.236a6.6 6.6 0 0 0 2.106.04.107.107 0 0 0 0-.204m.672-4.204a2.5 2.5 0 0 0-.905-.236c-.36-.045-.719-.068-1.08-.094-.705-.051-1.413-.064-2.118-.127-.016-.001-.02.026-.004.029.7.105 1.388.259 2.085.375.332.055.663.116.997.155a2.7 2.7 0 0 0 1.013-.007.053.053 0 0 0 .012-.095m.559-5.241a.153.153 0 0 0-.154-.152.057.057 0 0 0-.04.096l.024.025c.01.011.003.008.004.003l-.037.032c-.01.004-.023 0-.033.006a.3.3 0 0 0-.045.036c-.019.017.03-.02-.006.004l-.05.028c-.028.014.034-.013-.003 0l-.041.018q.034-.014.01-.005l-.026.008-.007.002h-.056q-.071-.003-.142-.002a.3.3 0 0 0-.057.01c.018-.006-.004 0-.012.002q-.045.004-.088.012a1 1 0 0 0-.116.04.26.26 0 0 0-.172.187.06.06 0 0 0 .117.032.1.1 0 0 1 .055-.064.2.2 0 0 1 .043-.014c.023-.005.015-.006.036-.002l.027.005.03.004.035.006c.004.001.04.007.017.001.027.007.051.02.079.027l.066.016a.5.5 0 0 0 .298.013c.095-.037.232-.127.239-.242a.18.18 0 0 0 .005-.132"/><path fill="currentColor" d="M354.267 419.848c.006.008.002.017.006.026 0 .007.007.012.007.02Zm.778-4.07q-.009-.005 0 .001l-.022-.017a.2.2 0 0 0-.048-.017l-.062-.01a.3.3 0 0 0-.111.001.7.7 0 0 0-.257.106 1.1 1.1 0 0 0-.367.392.056.056 0 0 0 .097.057.7.7 0 0 1 .158-.166.7.7 0 0 1 .2-.09 1 1 0 0 1 .112-.025c.022-.003-.03.003.008 0l.053-.008.053-.01c.042-.007-.037.004.019-.003a.3.3 0 0 0 .06-.018c-.017.006 0 .002.009 0l.028-.008.023-.005a.1.1 0 0 0 .036-.02q.017-.014.009-.005c-.009.004.005-.002.007-.002a.1.1 0 0 0 .038-.026.07.07 0 0 0 .01-.079.14.14 0 0 0-.053-.048m-51.868 79.665c-2.58.106-5.154.313-7.722.578-1.237.127-2.476.271-3.717.349-1.236.077-2.489.08-3.711.28a6 6 0 0 0-1.574.439 10.2 10.2 0 0 1-2.152.565c-1.22.263-2.448.491-3.669.755a228 228 0 0 0-7.482 1.772c-4.915 1.237-9.806 2.589-14.762 3.656a38.7 38.7 0 0 1-7.55 1.183 9 9 0 0 0-3.388.798 12 12 0 0 0-1.355.766 11 11 0 0 1-2.023.803 70 70 0 0 1-8.155 2.043c-2.857.58-5.721 1.098-8.61 1.488-.028.004-.022.052.006.05a95.5 95.5 0 0 0 14.838-2.481 46 46 0 0 0 3.5-1.052c.538-.185 1.096-.27 1.627-.454.602-.21 1.183-.47 1.798-.646 2.37-.68 4.775-1.077 7.19-1.569 4.969-1.01 9.86-2.334 14.754-3.651 2.428-.654 4.857-1.305 7.305-1.876q1.884-.44 3.779-.83a30.5 30.5 0 0 1 3.892-.684c.351-.025.67.07 1.018.07a7 7 0 0 0 1.026-.13c.723-.108 1.426-.288 2.135-.467a40 40 0 0 1 4.16-.807c2.93-.424 5.89-.666 8.842-.906.026-.002.027-.043 0-.042m-9.049 4.049a23 23 0 0 0-4.015.724q-2.043.452-4.088.893c-2.768.592-5.528 1.223-8.3 1.8a69 69 0 0 1-8.6 1.414c-.635.049-1.292.02-1.916.13a7 7 0 0 0-.87.27 11 11 0 0 1-1.28.248c-1.372.243-2.745.477-4.118.714-3.174.548-6.345 1.08-9.533 1.54-.019.003-.015.036.004.033q4.275-.516 8.546-1.06c1.316-.166 2.628-.354 3.94-.544.75-.108 1.506-.26 2.26-.329a8 8 0 0 0 2.021-.29 58 58 0 0 1 8.298-1.75c2.835-.517 5.682-.961 8.506-1.538q2.307-.471 4.609-.966a24.4 24.4 0 0 0 4.561-1.196c.047-.02.022-.095-.025-.093m-32.634 11.558a21 21 0 0 0-3.615-2.05 17 17 0 0 0-3.848-1.274.059.059 0 0 0-.045.107q.203.127.4.262c.022.014.048-.02.028-.036l-.136-.121c1.207.432 2.422.806 3.598 1.33a35 35 0 0 1 3.587 1.836c.035.02.064-.032.031-.054m.706 3.227a52 52 0 0 0-9.825-4.744c-.023-.01-.032.027-.01.036 3.37 1.384 6.563 3.107 9.804 4.762a.031.031 0 0 0 .032-.054m-4.388.499q-1.461-.78-2.994-1.414c-.026-.01-.046.035-.02.046q1.517.653 2.967 1.45c.965.531 1.875 1.154 2.836 1.692.017.01.04-.016.022-.03a18 18 0 0 0-2.81-1.744m3.017 4.977a15.4 15.4 0 0 0-3.947-2.746c-.029-.014-.054.028-.025.043a22.6 22.6 0 0 1 3.94 2.735c.022.019.053-.011.032-.032m86.516-59.804c-.023-.03-.073-.001-.05.03 3.363 4.607 6.646 9.312 10.264 13.727.02.025.064-.008.045-.036-3.21-4.716-6.793-9.193-10.26-13.721m.086 5.48c-.012-.015-.032.006-.02.02 3.476 4.498 6.838 9.127 10.556 13.43.018.022.055-.007.04-.03-3.233-4.677-6.953-9.046-10.576-13.42m2.818 9.156c-.012-.016-.042.006-.029.023 2.115 2.74 4.211 5.5 6.46 8.132.018.021.056-.008.04-.03-2.06-2.784-4.276-5.448-6.47-8.125m3.558 8.976c-.007-.01-.024.003-.017.013a59 59 0 0 1 3.557 5.297.015.015 0 0 0 .025-.015 42.6 42.6 0 0 0-3.565-5.295m3.841 7.745a.017.017 0 0 0-.029.016 25 25 0 0 0 2.206 3.117c.01.013.028-.005.018-.017a29 29 0 0 1-2.195-3.116m-108.693-20.824a90 90 0 0 1-10.874-11.056c-.012-.015-.032.006-.02.02a63.7 63.7 0 0 0 10.858 11.071c.025.02.06-.013.036-.035m4.544 8.491a77.5 77.5 0 0 1-15.264-11.667.02.02 0 0 0-.03.03 64.1 64.1 0 0 0 15.26 11.694.033.033 0 0 0 .034-.057m-48.529 8.255a82.8 82.8 0 0 1-15.662-9.134c-.026-.02-.05.024-.025.043a71.7 71.7 0 0 0 15.673 9.126c.02.008.033-.026.014-.035m-11.986-10.355c-.013-.009-.026.013-.012.021a91.7 91.7 0 0 0 16.472 8.883c.016.006.027-.02.012-.027a114 114 0 0 1-16.472-8.877m19.75 6.68c-1.942-.924-3.955-1.716-5.924-2.58q-2.962-1.3-5.893-2.669c-.015-.006-.027.015-.013.022q2.964 1.425 5.96 2.78c1.926.869 3.862 1.776 5.85 2.496.028.01.048-.036.02-.05m-3.136-3.944c-.01-.002-.015.014-.005.016 1.566.378 3.11.826 4.66 1.262a.015.015 0 0 0 .008-.028c-1.529-.503-3.095-.893-4.663-1.25m-53.484-315.993a8 8 0 0 0-.817.074 35 35 0 0 0-1.725.29c-.027.006-.021.054.007.05a16 16 0 0 1 1.72-.085c.282 0 .566.004.848-.008a1.7 1.7 0 0 0 .777-.123.053.053 0 0 0 0-.09 1.54 1.54 0 0 0-.81-.108m-1.191-1.858a3.3 3.3 0 0 0-1.036.106q-.534.111-1.076.178c-.033.004-.036.055 0 .054.368-.01.735-.021 1.101-.047a2.45 2.45 0 0 0 1.025-.24.028.028 0 0 0-.014-.05m-1.335-1.473a3 3 0 0 0-.792-.005c-.272.024-.543.068-.815.1a.012.012 0 0 0 0 .024c.272.007.544.025.815.022a3 3 0 0 0 .792-.08c.028-.008.031-.055 0-.06m-53.49-38.17a60 60 0 0 0-5.561-2.295c-.03-.01-.05.037-.021.05a60 60 0 0 0 5.561 2.295c.03.01.05-.036.021-.05m1.851-1.101c-.845-.337-1.707-.623-2.567-.916-.017-.006-.024.02-.008.026.851.321 1.699.648 2.566.924.022.007.03-.025.01-.034m-35.203-7.653c-.016-.034-.066-.004-.05.03a27.6 27.6 0 0 0 3.414 5.9c.018.023.055-.007.04-.03a54 54 0 0 1-3.404-5.9m1.616-.997c-.01-.014-.033 0-.023.014.825 1.26 1.649 2.517 2.513 3.75.014.02.047.002.033-.02a144 144 0 0 0-2.523-3.744M268.28 325.354c-1.282-1.046-2.622-1.99-3.83-3.128a32 32 0 0 1-3.407-3.75c-.018-.023-.059 0-.04.024a30 30 0 0 0 3.313 3.771 20.2 20.2 0 0 0 3.937 3.117c.02.01.046-.018.026-.034m4.631-.044a19 19 0 0 0-1.977-1.514 80 80 0 0 1-2.214-1.758q-2.059-1.689-3.982-3.533c-.033-.032-.082.017-.05.05q1.913 1.902 3.973 3.648a57 57 0 0 0 1.993 1.606 13.6 13.6 0 0 0 2.203 1.571c.044.022.092-.033.055-.07m3.876.038a61 61 0 0 1-6.436-5.309.02.02 0 0 0-.027.028 30.5 30.5 0 0 0 6.435 5.329c.032.018.055-.027.028-.048m4.571.378c-1.98-1.446-4.066-2.758-6.106-4.116-.015-.01-.029.014-.014.024 2.02 1.387 4.016 2.834 6.096 4.132.026.016.048-.023.024-.04m4.312.253c-.62-.442-1.298-.813-1.958-1.19l-1.988-1.14a.02.02 0 0 0-.02.034l1.957 1.192c.65.396 1.302.81 1.988 1.14a.021.021 0 0 0 .021-.036m.988-1.813c-.024-.013-.046.024-.021.037.734.404 1.47.802 2.22 1.177.016.007.03-.015.014-.024a63 63 0 0 0-2.213-1.19m76.799 47.479c-1.383 3.113-2.875 6.19-4.383 9.244-1.513 3.065-3.16 6.063-4.677 9.125a.059.059 0 0 0 .101.059 104 104 0 0 0 9.024-18.4c.014-.038-.048-.064-.065-.028m-4.645 4.575c-2.337 4.819-4.982 9.481-7.315 14.3a.057.057 0 0 0 .098.058 109 109 0 0 0 7.267-14.328c.015-.033-.034-.063-.05-.03m-4.646 4.487q-.847 1.67-1.706 3.335a33 33 0 0 1-1.779 3.27 18 18 0 0 1-2.032 2.472 6.6 6.6 0 0 0-1.432 1.99l-.05-.047a.065.065 0 0 0-.118-.015.376.376 0 0 0 .157.537.21.21 0 0 0 .304-.124c.706-2.004 2.584-3.028 3.609-4.798 1.208-2.087 2.107-4.388 3.141-6.565.03-.063-.062-.118-.094-.055m-5.622 5.016a52 52 0 0 1-3.681 4.98c-.035.047.035.087.073.057a7.7 7.7 0 0 0 1.131-1.062c.336-.393.646-.806.94-1.23a25 25 0 0 0 1.602-2.708c.022-.042-.04-.079-.065-.037m-118.816 54.102c-.016-.02-.043.008-.028.027a46.7 46.7 0 0 0 5.917 6.152c.011.01.028-.006.017-.016a57 57 0 0 1-5.906-6.163m1.579-4.365c-.88-.866-1.732-1.758-2.613-2.622a64 64 0 0 0-1.382-1.311 4.3 4.3 0 0 0-1.305-.967c-.037-.014-.06.031-.046.06a4.6 4.6 0 0 0 1.121 1.286q.656.617 1.324 1.22c.946.85 1.912 1.676 2.848 2.536 1.84 1.692 3.56 3.542 5.459 5.166a.021.021 0 0 0 .03-.03c-1.69-1.883-3.633-3.564-5.436-5.338m5.28-1.108c-1.001-.85-2.12-1.569-3.144-2.392-1-.803-1.968-1.655-2.885-2.551-1.862-1.82-3.36-3.982-5.248-5.764a.051.051 0 0 0-.08.062 26.2 26.2 0 0 0 5.24 5.79 83 83 0 0 0 2.951 2.623 23.3 23.3 0 0 0 3.07 2.357c.076.045.167-.065.096-.125m-.677-6.897a7.7 7.7 0 0 0-1.33-.919 17 17 0 0 1-1.539-1.14c-.99-.832-1.922-1.736-2.85-2.636-.958-.929-1.893-1.879-2.836-2.823a15.4 15.4 0 0 0-2.934-2.576c-.033-.019-.076.02-.054.053a15.3 15.3 0 0 0 2.727 2.784c1.054.94 2.114 1.873 3.146 2.836.942.877 1.863 1.78 2.842 2.617a8.3 8.3 0 0 0 2.76 1.919.069.069 0 0 0 .067-.115m-9.279-13.298a19.4 19.4 0 0 0-2.587-2.368c-.013-.009-.031.009-.022.021a19.4 19.4 0 0 0 2.42 2.535c.871.828 1.766 1.631 2.653 2.44a.021.021 0 0 0 .03-.03c-.827-.87-1.649-1.746-2.494-2.598m6.875 6.317q-.124-.12-.25-.238l-.491-.457-.984-.915c-.097-.09-.243.054-.146.147l.971.926.472.45q.125.12.252.236a1 1 0 0 0 .11.092 1 1 0 0 0 .172.076.045.045 0 0 0 .062-.062.9.9 0 0 0-.168-.255m-3.838-8.347c-1.912-1.893-3.949-3.658-5.975-5.428-.024-.021-.06.013-.035.036 1.952 1.85 3.901 3.711 5.966 5.436.03.026.073-.015.044-.044m-2.38-8.175c-.919-.845-1.903-1.62-2.867-2.413-.033-.026-.08.02-.047.047.953.81 1.891 1.643 2.888 2.4.02.015.044-.017.026-.034m-1.861-6.295a5.3 5.3 0 0 0-1.352-.756c-.027-.009-.039.028-.018.043.41.297.853.55 1.27.84.426.295.83.616 1.233.941a.027.027 0 0 0 .039-.039 7.6 7.6 0 0 0-1.172-1.03m17.66-200.634a7.5 7.5 0 0 0-1.111-.505q-.528-.225-1.058-.443-1.128-.469-2.255-.941c-.012-.005-.02.016-.009.021q1.118.494 2.234.99.558.25 1.118.494a7 7 0 0 0 1.061.43.026.026 0 0 0 .02-.046m-2.207 1.688c-1.628-.728-3.29-1.375-4.942-2.041-.02-.009-.036.027-.015.035 1.642.693 3.276 1.406 4.943 2.038.018.007.032-.024.014-.032m98.452 10.835c-5.847-3.22-12.053-6.122-18.81-6.551-.011-.001-.01.014 0 .015 6.714.558 12.858 3.598 18.79 6.57.023.01.042-.022.02-.034m-1.448 2.123a54 54 0 0 0-8.985-4.338c-.024-.01-.034.028-.01.037a70 70 0 0 1 8.973 4.338.022.022 0 0 0 .022-.037"/></svg>