<svg xmlns="http://www.w3.org/2000/svg" data-name="NINE" viewBox="0 0 499.455 263.427"><path fill="currentColor" d="M495.001 86.532a18.6 18.6 0 0 0-1.208-6.886 11.3 11.3 0 0 0-1.45-2.535 4.42 4.42 0 0 0-2.353-1.52 38.7 38.7 0 0 0-7.481-1.329c-1.846-.181-5.21-.838-6.433 1.048a6.2 6.2 0 0 0-.986-1.13c-.018-.015-.048.005-.034.027a9.53 9.53 0 0 1 1.805 4.477c.011.282-.108.507-.081.796.037.388.148.78.22 1.162.155.808.271 1.629.369 2.446a37 37 0 0 1 .084 5.506 50 50 0 0 1-.158 3.007c-.093 1.024-.428 1.99-.524 3.004-.067.697 1.033.705 1.098.01a.5.5 0 0 0 .148.046 30.6 30.6 0 0 0 6.894.09c1.078-.138 2.148-.335 3.226-.48.75-.102 1.536-.176 2.296-.323q.647-.051 1.3-.138a2.1 2.1 0 0 0 1.21-.609q.13-.03.26-.063.163-.044.324-.096c.03-.01.062-.026.094-.036a.29.29 0 0 0 .306-.012c.8-.567.861-2.065.999-2.965a21 21 0 0 0 .075-3.497m-.916 3.005c-.087.395-.188.784-.288 1.174-.289.375-.58.747-.86 1.13a3.4 3.4 0 0 1-.659.834 4 4 0 0 1-.945.464 12.5 12.5 0 0 1-2.46.598 23 23 0 0 1-2.7.151c-.025.001-.033.042-.006.046.056.009.113.006.169.014-.517-.01-1.033-.03-1.557-.05-2.256-.09-4.508-.07-6.762-.252a.5.5 0 0 0-.178.022c-.023-.232-.05-.464-.06-.7-.022-.498-.003-1.005.015-1.503.037-1.049.096-2.096.137-3.145.076-1.926.12-3.85.232-5.775q.032-.575.029-1.154c.117 1.048.212 2.098.27 3.15a68 68 0 0 1-.1 7.155c-.004.087.124.083.134 0a43.6 43.6 0 0 0-.357-11.54 3.3 3.3 0 0 0-.178-1.102q-.166-.935-.361-1.856c-.004-.02-.034-.011-.03.008q.155.834.286 1.671a1.2 1.2 0 0 1-.213-.3c-.09-.19-.149-.403-.223-.6a13.3 13.3 0 0 0-1.109-2.317 11.85 11.85 0 0 1 5.523-.445 48 48 0 0 1 6.798 1.069c.913.212 1.765.564 2.654.836a3.78 3.78 0 0 1 2.235 2.488 18.6 18.6 0 0 1 1.093 6.17 16 16 0 0 1-.529 3.76M346.596 214.159c-.393.86-.62 1.778-1.03 2.636a17 17 0 0 1-1.455 2.447 32 32 0 0 1-3.995 4.458 123 123 0 0 1-4.736 4.339 44 44 0 0 1-5.205 3.686 1.395 1.395 0 0 1 .668-2.042 13 13 0 0 0 2.276-1.402 54 54 0 0 0 4.394-4.51c.69-.73 1.392-1.447 2.095-2.165a7 7 0 0 0 1.61-2.198 39.5 39.5 0 0 0 2.214-5.385.056.056 0 0 0-.11-.03 11 11 0 0 1-1.361 3.09 7.5 7.5 0 0 1-1.113 1.364 13 13 0 0 0-1.195 1.075c-1.407 1.71-2.824 3.4-4.284 5.067-.722.825-1.422 1.678-2.2 2.45a10 10 0 0 1-2.564 1.81 2.56 2.56 0 0 0-1.516 1.819 2.3 2.3 0 0 0 .62 2.111.53.53 0 0 0 .636.082 57 57 0 0 0 5.32-4.537c1.66-1.467 3.272-2.99 4.866-4.527a34.6 34.6 0 0 0 3.92-4.357c1.062-1.444 2.325-3.363 2.428-5.205a.153.153 0 0 0-.283-.076m-4.566-2.638a19.6 19.6 0 0 1-1.95 3.184c-.42.563-.861 1.107-1.332 1.627-.444.49-.973.908-1.386 1.424a11 11 0 0 0-.896 1.638 12.3 12.3 0 0 1-1.316 1.846c-.875 1.059-1.863 2.024-2.705 3.107-.024.03.013.07.043.043a36 36 0 0 0 2.815-3.167 16 16 0 0 1 1.412-1.486 9.5 9.5 0 0 0 1.516-1.396c.394-.55.664-1.187 1.018-1.764.335-.546.678-1.087 1.014-1.633a24 24 0 0 0 1.791-3.413c.006-.013-.017-.023-.023-.01m-1.831 14.931c-.438.502-.89.99-1.342 1.48a5.6 5.6 0 0 0-1.134 1.567c-.023.055.055.111.102.078a5.6 5.6 0 0 0 1.292-1.446c.382-.543.761-1.088 1.158-1.621.032-.044-.04-.099-.075-.058m34.703 15.088a10.9 10.9 0 0 0 2.183-3.932c.642-1.75 1.226-3.522 1.883-5.267.009-.022-.03-.039-.04-.016-.753 1.66-1.564 3.295-2.345 4.943a10.8 10.8 0 0 1-1.252 2.156c-.524.656-1.192 1.189-1.744 1.826-1.094 1.265-1.9 2.751-2.91 4.083a24 24 0 0 1-1.682 2.025 6.2 6.2 0 0 0-1.294 1.85c-.17.398.235 1.044.694.695.427-.324.866-.638 1.262-1 .42-.382.77-.837 1.181-1.23.769-.738 1.597-1.41 2.366-2.147a15.3 15.3 0 0 0 3.76-4.84c.033-.079-.084-.111-.126-.054-.622.84-1.17 1.725-1.835 2.533a23 23 0 0 1-2.112 2.208 18.6 18.6 0 0 1-2.438 1.986c-.41.266-.82.512-1.228.765a14 14 0 0 1 1.922-2.92c1.13-1.354 2.536-2.395 3.755-3.663m-.329-4.875c-1.352 1.804-2.955 3.455-3.918 5.516-.042.09.066.188.143.11 1.614-1.61 2.62-3.687 3.858-5.578.034-.052-.047-.096-.083-.048m18.183-94.647q-.138-1.492-.336-2.978a19 19 0 0 0-.61-3.44c-.034-.101-.203-.09-.197.027.05.95.28 1.887.424 2.826q.243 1.577.411 3.163.319 3.01.382 6.041a54 54 0 0 1-.161 5.916 5.5 5.5 0 0 1-1.419 3.56 14 14 0 0 1 .094-2.532 104 104 0 0 0 .218-3.368c.105-2.218.355-4.404.54-6.614a6 6 0 0 0 .064-1.582c-.042-.214-.165-.389-.224-.598a5.5 5.5 0 0 1-.106-.922q-.156-1.527-.364-3.05c-.3-2.217-.657-4.43-1.055-6.632-.016-.085-.165-.067-.153.02q.418 3.205.552 6.431.067 1.615.08 3.231c.002.26.029.55.005.81-.027.295-.167.521-.195.808a7.4 7.4 0 0 0 .19 1.62 36.6 36.6 0 0 1 .395 6.478q-.062 1.55-.172 3.099a8.35 8.35 0 0 1-.642 3.381.494.494 0 0 0 .67.67c1.497-.678 1.632-2.084 1.727-3.538.135-2.076.19-4.166.188-6.246q-.005-3.296-.306-6.581m-4.062 1.912a12.5 12.5 0 0 0-.386-1.565 8.54 8.54 0 0 1-.051-3.874.035.035 0 0 0-.067-.018 11.2 11.2 0 0 0-.336 3.209c-.005.63-.098 1.215-.156 1.838a5.1 5.1 0 0 0 .255 1.727 17.5 17.5 0 0 1 .313 4.022q.004.96-.029 1.918a6.8 6.8 0 0 0 .012 1.66.066.066 0 0 0 .126 0 6 6 0 0 0 .106-1.66q.004-.958.002-1.918c-.003-1.187-.052-2.376.052-3.56a10 10 0 0 0 .16-1.779m50.558-.176c-.074-.825-.185-1.648-.286-2.47a86 86 0 0 1-.462-5.077.026.026 0 0 0-.052 0c.008 1.65-.02 3.292-.11 4.94-.045.823-.092 1.646-.118 2.47a9.4 9.4 0 0 0 .42 2.223 19.2 19.2 0 0 1 .08 4.938 29.5 29.5 0 0 1-.734 5.19c-.1.398.55.487.554.074.012-1.62.247-3.239.323-4.858.078-1.658-.075-3.331.058-4.984a14.3 14.3 0 0 0 .327-2.446m1.523-.747a.039.039 0 0 0-.078 0c-.053 2.452-.166 4.916-.004 7.366a.043.043 0 0 0 .087 0c.162-2.45.048-4.914-.005-7.366m1.291-63.589c-.169-1.786-.38-3.567-.538-5.355a.035.035 0 0 0-.069 0c-.034 1.742-.121 3.48-.168 5.221a31 31 0 0 0 .04 5.1c.127.913.334 1.81.407 2.73.069.87.105 1.74.144 2.61.081 1.823.034 3.678.21 5.494a.126.126 0 0 0 .25 0c.051-1.778-.12-3.578-.162-5.357-.021-.87-.046-1.739-.039-2.61.008-.92.14-1.824.213-2.74a29.3 29.3 0 0 0-.288-5.093m1.368-.258c-.005-.049-.08-.05-.078 0 .187 3.527.274 7.057.545 10.58a.052.052 0 0 0 .104 0 92 92 0 0 0-.57-10.58m-45.596 4.432a26 26 0 0 0-1.063-7.073c-.04-.111-.235-.105-.221.03.217 2.093.648 4.144.771 6.254a47 47 0 0 1-.054 6.47c-.167 2.124-.444 4.24-.67 6.359a294 294 0 0 1-.359 3.168c-.045.38-.126 1.786-.641 2.091a13 13 0 0 1-.091-1.38c.023-.633.095-1.263.16-1.894.13-1.243.261-2.487.431-3.725a52.5 52.5 0 0 0 .793-6.878 17 17 0 0 0-.058-1.758 7.8 7.8 0 0 0-.45-1.75 14 14 0 0 1-.312-1.603c-.125-.621-.257-1.242-.385-1.863-.495-2.394-1.164-4.75-1.641-7.147-.02-.1-.166-.056-.15.042.37 2.346.55 4.719.906 7.067.176 1.162.435 2.34.545 3.509a16 16 0 0 0 .167 1.924c.127.596.275 1.181.36 1.786a29.5 29.5 0 0 1-.25 7.017c-.116 1.172-.249 2.342-.36 3.515-.056.587-.103 1.175-.188 1.759-.095.648-.35 1.245-.43 1.896a.49.49 0 0 0 .354.465c1.876.747 2.133-2.41 2.254-3.468.28-2.466.536-4.928.612-7.41.075-2.465.107-4.94-.03-7.403m-4.645 1.562a64 64 0 0 1-.421-4.103.039.039 0 0 0-.078 0 47 47 0 0 1-.29 4.103 8 8 0 0 0-.096 1.915c.084.643.265 1.265.32 1.915.225 2.63.019 5.296.06 7.932a.039.039 0 0 0 .077 0c.158-2.639.014-5.299.241-7.932.056-.65.233-1.271.312-1.915a7.7 7.7 0 0 0-.125-1.915M373.139 29.38c-.109-.66-.17-1.31-.228-1.975-.06-.68-.012-1.343-.05-2.022a1.9 1.9 0 0 0-.543-1.315 3.28 3.28 0 0 1-.51-2.261c.019-1.261.25-2.513.297-3.774.038-1.045.279-2.327-.648-3.057a5.3 5.3 0 0 1-1.13-.934 12 12 0 0 1-.89-1.418c-.65-1.182-1.234-2.4-1.819-3.615-.027-.057-.105-.007-.082.048.523 1.235 1.048 2.472 1.504 3.735a6.55 6.55 0 0 0 1.134 2.623c.132.13.295.213.432.332a1.15 1.15 0 0 1 .42.937c.05.628.037 1.26.067 1.889.058 1.223.284 2.419.442 3.63a3.6 3.6 0 0 1 .005 1.965 1.72 1.72 0 0 0-.11 1.409c.365 1.148.944 2.22 1.27 3.39a27 27 0 0 1 .718 3.513c.176 1.27.136 2.518.216 3.789.003.041.069.056.077.01.403-2.219-.21-4.71-.572-6.9m2.39-4.847a2.77 2.77 0 0 0-.697-1.287 5.9 5.9 0 0 1-.681-1.874c-.354-1.151-.754-2.287-1.12-3.434a.043.043 0 0 0-.084.023c.21 1.19.385 2.386.608 3.575.116.617.254 1.232.355 1.851a4 4 0 0 0 .115.864 2.7 2.7 0 0 0 .392.637 2.58 2.58 0 0 1 .768 1.517 12 12 0 0 1-.09 1.457 3.98 3.98 0 0 0 .378 2.527c.032.053.125.019.103-.043-.652-1.864.32-3.904-.047-5.813m-1.293-12.799a.022.022 0 0 0-.042.011c.335 1.207.643 2.43 1.088 3.603a.035.035 0 0 0 .066-.018c-.286-1.221-.715-2.408-1.112-3.596m33.954 2.377a38 38 0 0 0-2.656-6.968.026.026 0 0 0-.047.02 58 58 0 0 1 1.934 7.16c.498 2.419.736 4.881 1.386 7.265.036.131.207.089.222-.03a19.6 19.6 0 0 0-.838-7.447m-2.083.047c-.012-.077-.129-.044-.117.032.237 1.513.47 3.025.752 4.53.005.029.055.023.05-.006-.197-1.524-.443-3.039-.685-4.556M252.454 209.988a146 146 0 0 1-12.909-7.448c-.042-.028-.08.04-.04.068a76 76 0 0 0 12.914 7.44c.04.017.076-.039.035-.06m2.671-1.518a63 63 0 0 0-5.659-3.66c-1.965-1.228-3.947-2.426-5.925-3.631-.03-.018-.054.026-.027.044 1.91 1.248 3.813 2.505 5.735 3.732a63 63 0 0 0 5.818 3.59c.045.021.103-.04.058-.076m6.241 2.866a2.15 2.15 0 0 0-.96-.641c-.366-.173-.742-.321-1.115-.477q-.57-.238-1.143-.47a12 12 0 0 0-1.184-.48.022.022 0 0 0-.017.039 12 12 0 0 0 1.122.629q.523.294 1.05.583c.35.192.698.392 1.058.567a2.23 2.23 0 0 0 1.122.367.08.08 0 0 0 .067-.117m4.714-1.187a8.5 8.5 0 0 0-1.927-.902q-1.088-.475-2.16-.985-2.146-1.015-4.22-2.174a77 77 0 0 1-7.982-5.124c-.031-.023-.073.03-.042.054a64.6 64.6 0 0 0 7.89 5.299q2.065 1.17 4.207 2.198 1.126.54 2.276 1.032a6.7 6.7 0 0 0 1.919.698.057.057 0 0 0 .04-.096m2.432-2.422a21 21 0 0 0-2.87-1.546q-1.412-.709-2.808-1.447a240 240 0 0 1-5.653-3.056.048.048 0 0 0-.048.082c1.845 1.157 3.708 2.284 5.62 3.329q1.432.783 2.881 1.535a16 16 0 0 0 2.808 1.27c.104.03.15-.11.07-.167m.906-3.129a15.3 15.3 0 0 0-4.715-2.317c-.054-.019-.074.063-.023.083 1.617.661 3.111 1.557 4.69 2.295.037.017.085-.032.048-.061m4.179-2.327c-1.266-.554-2.563-1.04-3.812-1.632-.045-.022-.084.042-.04.067q.922.508 1.876.955a12.3 12.3 0 0 0 1.936.706c.055.015.096-.071.04-.095m5.636-1.267c-.403-.149-.804-.3-1.214-.429l-1.225-.384c-.09-.029-.13.113-.04.142l1.225.391c.408.13.821.237 1.235.347a.035.035 0 0 0 .019-.067m52.952-84.594a242 242 0 0 0-3.236-3.093.03.03 0 0 0-.043.043 242 242 0 0 0 3.12 3.21c1.05 1.056 2.074 2.153 3.223 3.104a.048.048 0 0 0 .067-.067c-.96-1.14-2.066-2.157-3.131-3.198m-2.818-.388-.92-1.059c-.041-.046-.108.021-.068.068l.91 1.069c.303.356.621.698.936 1.043.023.026.057-.01.037-.036-.296-.364-.588-.73-.895-1.085M321.56 64.99a18.4 18.4 0 0 0-4.34-3.044.026.026 0 0 0-.026.045c1.444 1.014 2.823 2.12 4.309 3.073.046.03.096-.037.058-.075m4.766-7.607c-.033-.03-.08.018-.049.05 2.728 2.75 5.372 5.582 8.055 8.375.036.037.086-.017.056-.055a73.4 73.4 0 0 0-8.062-8.37"/><path fill="currentColor" d="M343.806 111.211a8.7 8.7 0 0 1 1.856-1.412 9 9 0 0 1 1.058-.51c.177-.071.369-.115.54-.2a1.3 1.3 0 0 0 .168-.11c.31-.021.618-.05.928-.067a154 154 0 0 1 18.515.44 147 147 0 0 0 18.758.252c6.248-.407 12.484-1.07 18.718-1.63l37.628-3.386 18.967-1.708c6.127-.553 12.255-1.138 18.335-2.09 4.825-.756 9.986-1.57 14.173-4.262a12.47 12.47 0 0 0 5.996-10.991 17.68 17.68 0 0 0-5.439-11.652c-3.624-3.557-8.654-5.36-13.56-6.267-5.605-1.037-11.36-1.145-17.038-1.458l-18.86-1.04-37.718-2.08a160 160 0 0 0-18.827-.282c-6.17.387-12.296 1.32-18.43 2.053-6.035.72-12.086 1.348-18.16 1.634-4.552.214-9.096.172-13.644.07a9.63 9.63 0 0 1-4.364-6.657 8.54 8.54 0 0 1 .732-4.524 9 9 0 0 1 1.262-2.08c.194-.234.403-.455.61-.676 2.871-1.07 5.765-2.074 8.717-2.908a81.3 81.3 0 0 1 14.065-2.634 121 121 0 0 0 14.481-1.856 111 111 0 0 0 13.724-4.465 143 143 0 0 1 14.01-4.344c4.726-1.195 9.504-2.166 14.307-2.996 4.534-.783 9.143-1.28 13.622-2.356 4.073-.978 8.14-2.567 11.247-5.46a15.23 15.23 0 0 0 5.066-10.128 11.87 11.87 0 0 0-4.833-9.786c-3.488-2.73-7.8-3.754-12.14-4.128-4.908-.422-9.878-.364-14.8-.49l-15.34-.394-15.34-.393c-4.948-.127-9.963-.475-14.9.009-4.976.487-9.816 1.833-14.7 2.836-4.851.995-9.738 1.801-14.635 2.529-9.87 1.465-19.803 2.509-29.732 3.478q-2.484.242-4.962.517c-.653-.052-1.304-.117-1.958-.16-6.586-.427-13.25-1.057-19.854-.782-6.494.27-12.897 1.625-19.36 2.243-5.293.506-10.609.798-15.923 1.014-4.647-.662-9.13-2.631-13.522-4.381a57 57 0 0 0-10.328-3.198 42.5 42.5 0 0 0-12.397-.272c-8.317.873-16.61 2.414-24.826 3.956q-12.43 2.335-24.727 5.311-12.293 2.973-24.424 6.566c-7.862 2.328-15.671 4.877-23.694 6.609-7.874 1.7-16.11 2.592-24.086 1.042a56 56 0 0 1-11.348-3.878 42.8 42.8 0 0 0-11.39-3.153c-4.081-.535-8.204-.766-12.304-1.108-4.211-.351-8.418-.869-12.613-1.376-8.616-1.043-17.099-2.72-25.663-4.077-2.137-.339-4.256-.766-6.372-1.221-.06-.013-.085.077-.025.092 4.182 1.052 8.33 2.23 12.551 3.119 4.22.888 8.46 1.672 12.704 2.436 8.402 1.514 16.863 2.766 25.362 3.59a64.6 64.6 0 0 1 12.087 1.903c3.865 1.139 7.488 2.972 11.317 4.224 7.559 2.472 15.652 2.592 23.476 1.558 8.159-1.079 16.075-3.357 23.938-5.719 8.022-2.409 16.062-4.733 24.179-6.804a504 504 0 0 1 50.03-10.102 71.5 71.5 0 0 1 12.918-1.09 38.5 38.5 0 0 1 11.18 2.285c3.495 1.192 6.95 2.43 10.5 3.452a53 53 0 0 0 1.554.42c-3.003.026-6.007-.087-9.006-.19-3.731-.129-7.463-.122-11.191-.363-.073-.005-.072.106 0 .112 3.324.316 6.639.72 9.96 1.053 2.955.297 5.926.355 8.89.5 4.228 2.354 8.532 4.568 12.87 6.711 4.085 2.018 8.209 4 12.394 5.812-.916.448-1.834.892-2.75 1.342-1.395.686-2.832 1.326-4.186 2.094a15 15 0 0 0-1.632 1.082 3.1 3.1 0 0 1-1.244.717 2.1 2.1 0 0 0-.82.148 13 13 0 0 0-1.629 1.202 9.8 9.8 0 0 1-2.302.965c-1.395.51-2.827.938-4.257 1.338a77 77 0 0 1-9.98 2.123c-.037.005-.029.071.01.068a69 69 0 0 0 8.984-1.329 67 67 0 0 0 4.444-1.15c.755-.221 1.51-.44 2.263-.666.333-.1.666-.21 1.007-.282a12 12 0 0 0 1.24-.132 2.19 2.19 0 0 0 1.405-1.233c.114-.343-.028-.645.237-.944a2.7 2.7 0 0 1 1.177-.559 32 32 0 0 0 4.162-1.823c1.664-.82 3.323-1.652 4.984-2.479.176.075.351.155.528.23.068.028.116-.087.05-.12l-.408-.194c1.2-.598 2.401-1.191 3.6-1.79 3.283-1.644 6.572-3.275 9.843-4.941.41-.21.05-.809-.359-.614-2.225 1.057-4.439 2.14-6.654 3.217a15 15 0 0 0-2.014-1.036q-1.22-.602-2.445-1.196-2.389-1.16-4.798-2.276c-2.942-1.37-5.904-2.701-8.913-3.922 1.978-.042 3.957-.128 5.938-.28.368-.03.735-.073 1.104-.104a59 59 0 0 1 6.944 3.103l7.67 3.874c.101.05.254-.035.209-.16a4.7 4.7 0 0 0-.512-1.082c-.02-.028-.077-.022-.073.02a3.8 3.8 0 0 0 .203.822l-7.645-3.76a53 53 0 0 0-6.672-2.829c2.414-.206 4.82-.473 7.222-.787 1.72.986 3.444 1.963 5.183 2.917q1.456.799 2.92 1.581a22 22 0 0 0 3.002 1.473c.07.025.097-.073.047-.11a22 22 0 0 0-2.863-1.68q-1.514-.817-3.034-1.622a312 312 0 0 0-5.04-2.586c.369-.049.738-.087 1.106-.139 1.284-.18 2.567-.366 3.852-.545 1.662.825 3.328 1.64 5.013 2.418q1.45.67 2.906 1.322a16 16 0 0 0 2.86 1.187.035.035 0 0 0 .026-.063 18 18 0 0 0-2.893-1.336q-1.461-.645-2.915-1.306-2.44-1.108-4.87-2.24c1.871-.26 3.746-.5 5.63-.656 6.592-.548 13.215.12 19.804.423 3.717.171 7.43.25 11.15.33 3.764.079 7.523-.024 11.288-.009.199 0 .19-.283 0-.303-3.35-.358-6.69-.885-10.05-1.157-.442-.036-.885-.08-1.328-.12q2.845-.17 5.686-.369c4.85-.34 9.693-.705 14.529-1.199a250 250 0 0 0 28.888-4.735c2.382-.53 4.777-1.05 7.2-1.355a54 54 0 0 1 7.296-.34c4.985.051 9.972.236 14.956.362l29.968.76c4.706.12 9.587-.054 14.174 1.159a18 18 0 0 1 3.698 1.427q-.376-.092-.773-.15a30.2 30.2 0 0 0-6.788-.13 8.4 8.4 0 0 0-3.518.801 1.04 1.04 0 0 0-.471.649 8.7 8.7 0 0 0-1.754-1.328c-.038-.02-.08.031-.047.062a9.1 9.1 0 0 1 2.433 3.88c.22.667.775 1.222 1.026 1.897a11.7 11.7 0 0 1 .605 2.655c.206 1.705.284 3.43.462 5.14.044.419.085.84.14 1.259a3 3 0 0 0 .109.429.22.22 0 0 0-.127.25 1.2 1.2 0 0 0 .156.364 6.5 6.5 0 0 0-.38 1.54.215.215 0 0 0 .212.212c.598-.043.885-.558.975-1.098a3.3 3.3 0 0 0 .807.312 9.8 9.8 0 0 0 2.966-.116c2.138-.246 4.34-.14 6.457-.534.047-.009.03-.071-.01-.076-1.998-.253-4.02.045-6.02-.175-.964-.106-1.923-.262-2.888-.354-.336-.032-.67.008-.995-.047a3 3 0 0 1-.31-.085c.001-.037-.007-.073-.002-.11a4.7 4.7 0 0 0-.017-1.24c-.223-1.906-.478-3.797-.877-5.674-.195-.919-.391-1.834-.605-2.749a7.3 7.3 0 0 0-.641-2.406 14 14 0 0 0-1.13-1.436c.173-.633 2.907-.912 3.19-.94a30 30 0 0 1 3.585-.092c2.164.047 4.664-.051 6.355 1.536a10 10 0 0 1 2.773 6.003 12.5 12.5 0 0 1 .038 3.708 15 15 0 0 1-.33 1.53 2.46 2.46 0 0 0-.174 1.467.3.3 0 0 0 .028.044l-.056.101a17.44 17.44 0 0 1-9.163 6.918c-4.115 1.48-8.484 2.034-12.783 2.704-4.771.744-9.527 1.596-14.245 2.63-4.667 1.024-9.296 2.235-13.841 3.713-4.508 1.465-8.9 3.262-13.42 4.691a68 68 0 0 1-13.88 2.714 133 133 0 0 0-14.215 1.83c-9.095 1.909-17.616 5.546-25.92 9.63a37 37 0 0 0-2.986 1.66c-.814.497-1.656 1.053-2.514 1.503l-.117-.095c-.017-.014-.041.009-.024.024l.102.091c-.13.067-.26.14-.39.2-.227.108-.029.444.197.338.176-.083.36-.154.54-.228 1.045.946 2.092 1.886 3.158 2.809.6.52 1.197 1.042 1.806 1.552a14 14 0 0 0 1.832 1.44c.045.026.082-.032.052-.069a14 14 0 0 0-1.749-1.608c-.6-.52-1.213-1.026-1.822-1.536a185 185 0 0 0-3.213-2.615c.759-.306 1.553-.558 2.328-.819a263 263 0 0 0 8.88 7.726 154 154 0 0 1-5.332-.591c-.085-.01-.095.12-.02.144a67 67 0 0 0 17.303 2.927 138 138 0 0 0 17.821-.66c12.098-1.087 24.122-3.454 36.303-3.27 6.137.093 12.269.53 18.395.87l18.517 1.025q18.453 1.02 36.905 2.043c9.485.538 21.056 1.655 25.914 11.152 1.86 3.638 2.293 8.133-.056 11.657-2.537 3.806-7.318 5.32-11.565 6.236a155 155 0 0 1-17.45 2.447c-6.106.603-12.22 1.12-18.331 1.67l-36.964 3.327-18.558 1.67a157 157 0 0 1-18.335.826c-11.959-.325-23.973-1.854-35.797.766-2.83.627-5.432 1.796-8.178 2.667-.313.099-.18.593.136.493.46-.146.932-.27 1.406-.386 1.526 1.968 3.173 3.833 4.845 5.677q1.275 1.408 2.588 2.779.693.723 1.393 1.44a4.8 4.8 0 0 0 1.101 1.026c-.473-.063-.947-.123-1.418-.197-.435-.067-.867-.157-1.3-.239a.08.08 0 0 0 .003-.101 21 21 0 0 0-2.106-2.401q-1.136-1.235-2.278-2.464c-1.517-1.63-3.024-3.316-4.683-4.803a.035.035 0 0 0-.05.05c1.379 1.715 2.939 3.302 4.434 4.916q1.108 1.196 2.21 2.396a26 26 0 0 0 2.235 2.364 65 65 0 0 1-6.993-1.831c-.316-.1-.545.41-.23.547a67 67 0 0 0 8.08 2.76 55 55 0 0 0 8.502 1.834 152 152 0 0 0 17.894.866c12.554.072 25.08.31 37.62.945 12.78.647 25.555 1.344 38.332 2.018q9.564.505 19.129 1.015c3.214.174 6.43.332 9.643.524a51 51 0 0 1 9.04 1.16c4.752 1.159 9.55 3.713 11.833 8.242 2.076 4.118 1.31 9.135-.926 13.045a25 25 0 0 0 .466-5.026 38 38 0 0 0-.443-6.683 12 12 0 0 0-.618-3.017c-.372-.82-1.355-1.07-2.14-1.318a42 42 0 0 0-6.427-1.432 39 39 0 0 0-7.225-.406 10.4 10.4 0 0 0-3.441.665 8.3 8.3 0 0 0-1.136-1.726c-.054-.063-.142.017-.11.084a14.8 14.8 0 0 1 1.072 5.749c.104 2.209.148 4.42.093 6.632q-.083 3.269-.429 6.523a31 31 0 0 1-.417 3.212 2.85 2.85 0 0 1-.661 1.369c.112-.197.231-.39.325-.598a.012.012 0 0 0-.02-.011 3.2 3.2 0 0 1-.688.79 2 2 0 0 1-.41.255 1.4 1.4 0 0 0-.267.16.6.6 0 0 0-.107.096.3.3 0 0 0-.059.121l-.006.02q-.023.136.008.012a.22.22 0 0 0 0 .214.21.21 0 0 0 .183.105l.011-.003.018.003a.4.4 0 0 0 .078.004.42.42 0 0 0 .252-.12 1 1 0 0 0 .209-.24l.007-.012c.72.462 1.236.13 1.597-.48.65.775 2.117.874 3.06.904a41 41 0 0 0 6.717-.345 37.4 37.4 0 0 0 6.412-1.442 6.1 6.1 0 0 0 1.687-.873 23.7 23.7 0 0 1-10.672 6.09c-5.83 1.66-11.972 1.545-17.97 1.229-12.781-.674-25.548-1.559-38.352-1.696-12.85-.138-25.665.716-38.502 1.113-6.384.197-12.764.223-19.148.014-6.364-.208-12.723-.574-19.09-.727-10.48-.252-21.928-.22-31.441 4.816a36.4 36.4 0 0 0-5.902 4.258c-.268.218.114.597.38.38a19.4 19.4 0 0 1 3.47-2.182 225 225 0 0 0 3.29 4.73c.743 1.046 1.463 2.116 2.226 3.152l-.002.08a12.56 12.56 0 0 0 1.764 6.1c.096.169.215.322.318.486a43 43 0 0 1-1.672-1.757c-.47-.525-.97-1.007-1.447-1.53a14 14 0 0 1-1.36-1.874.074.074 0 0 0-.127.075c.349.622.745 1.22 1.084 1.846a16 16 0 0 0 1.055 1.83 30 30 0 0 0 2.659 3.172 42.6 42.6 0 0 0 6.092 5.696 103 103 0 0 0 15.044 8.315 52 52 0 0 1 8.731 4.754c2.557 1.876 4.916 4.008 7.47 5.89a130 130 0 0 0 15.444 9.56c10.708 5.785 21.898 10.79 31.918 17.766a67 67 0 0 1 7.086 5.54c2.133 1.956 4.228 4.293 5.123 7.103a7.33 7.33 0 0 1-1.525 7.304 10 10 0 0 1-2.401 1.912 11.3 11.3 0 0 0 2.688-4.49 4.13 4.13 0 0 0 .145-2.836 6.6 6.6 0 0 0-1.965-2.145 38 38 0 0 0-5.456-3.86 35 35 0 0 0-3.285-1.691q-.821-.368-1.66-.7c-.23-.09-.652-.335-.905-.265.092-.209-.052-.368-.245-.433a3.46 3.46 0 0 0-.479-2.337c-.014-.025-.048-.003-.037.021.437 1.031-.157 2.11-.601 3.014a24 24 0 0 1-1.219 2.096c-.948 1.518-1.906 3.031-2.937 4.494a40 40 0 0 1-3.334 4.17 12 12 0 0 1-1.916 1.79 5.5 5.5 0 0 1-2.458.967.17.17 0 0 0-.085.315 2.2 2.2 0 0 0 2.29.117 5.3 5.3 0 0 0 .734-.423 1.77 1.77 0 0 0 .929.74 36 36 0 0 0 5.586 1.675 54 54 0 0 0 5.565.985q1.43.178 2.87.279c.129.009.267.02.4.032a.2.2 0 0 0 .076.135l.04.034a42 42 0 0 1-9.75-.379q-5.113-.586-10.17-1.565c-4.232-.814-8.417-1.804-12.587-2.859-.669-.286-1.344-.563-2.004-.86-4.922-2.22-9.873-4.367-14.76-6.664-4.868-2.288-9.714-4.627-14.644-6.78-5.107-2.232-10.344-4.07-15.547-6.056a69 69 0 0 1-7.761-3.465c-2.566-1.364-5.046-2.881-7.615-4.239a98.5 98.5 0 0 0-15.756-6.241q-8.584-2.786-17.22-5.41a75.4 75.4 0 0 0-17-3.508 76 76 0 0 1-8.584-.749 40.5 40.5 0 0 1-7.602-2.229c-2.44-.958-4.875-1.976-7.21-3.168-2.389-1.219-4.697-2.624-6.97-4.043-1.095-.683-2.183-1.375-3.274-2.062-.15-.095-.337.136-.194.252a123 123 0 0 0 13.002 9.136c.044.028.092.05.136.078-1.538-.102-3.07-.294-4.605-.447-2.125-.212-4.25-.516-6.36-.852-4.283-.68-8.517-1.636-12.802-2.309a75.5 75.5 0 0 0-13.36-.82c-4.47.092-8.92.156-13.384-.169a126.5 126.5 0 0 1-25.848-4.815 236 236 0 0 1-24.82-8.999c-4.1-1.7-8.157-3.502-12.2-5.33l-.345-.156c-1.334-.68-2.681-1.339-3.99-2.064-1.545-.857-3.077-1.74-4.624-2.592-3.02-1.665-6.202-3.03-9.18-4.777a32 32 0 0 1-4-2.665 44 44 0 0 1-3.339-3.097c-2.313-2.311-4.556-4.806-7.523-6.283-.038-.02-.08.029-.047.06 2.709 2.617 4.976 5.691 7.513 8.482-.42-.175-.838-.354-1.258-.528a75 75 0 0 0-9.613-3.651 26.4 26.4 0 0 0-4.741-.717c-.448-.256-.91-.49-1.352-.733-.843-.464-1.696-.908-2.545-1.36-1.536-.816-3.089-1.597-4.641-2.38a.204.204 0 0 0-.214-.302l-.265.056-.202-.103a.026.026 0 0 0-.026.044q.067.04.136.078c-2.542.521-5.067 1.039-7.585 1.677-2.623.665-5.22 1.458-7.8 2.27-4.902 1.543-9.917 3.334-15.117 3.347-4.978.013-9.43-2.16-14.028-3.772a42.5 42.5 0 0 0-7.403-1.856 73 73 0 0 0-7.743-.695 332 332 0 0 0-8.774-.314c-3.048-.078-6.097-.06-9.141-.182-.074-.003-.07.104 0 .112 2.734.302 5.455.732 8.186 1.074 2.672.335 5.344.673 8.022.953 2.575.268 5.14.603 7.7.987a47 47 0 0 1 7.51 1.684c4.72 1.527 9.195 3.837 14.228 4.159 5.236.334 10.37-1.256 15.302-2.81q1.773-.558 3.54-1.134c.432.06.86.122 1.278.165 1.645.17 3.293.289 4.942.41 3.339.243 6.678.414 10.022.56 3.228.14 6.589.047 9.747.807a63.5 63.5 0 0 1 9.107 3.38q2.527 1.039 5.043 2.104a15 15 0 0 0 2.145.797c.22.164.425.344.652.5a41 41 0 0 0 4.443 2.528c1.602.83 3.208 1.655 4.824 2.46 1.592.792 3.251 1.434 4.865 2.18 1.61.744 3.222 1.491 4.837 2.226.218.1.438.195.657.294a373 373 0 0 0 9.237 4.506 195 195 0 0 0 24.85 9.765 136 136 0 0 0 25.925 5.511 108 108 0 0 0 13.453.578 100 100 0 0 1 13.695.291c4.34.516 8.614 1.473 12.912 2.247 4.242.764 8.577 1.462 12.882.834a37 37 0 0 0 2.526-.474 36.5 36.5 0 0 0 13.72 3.884c2.903.267 5.825.283 8.72.63a61 61 0 0 1 8.573 1.77c5.748 1.552 11.423 3.41 17.095 5.215a157 157 0 0 1 16.53 5.837c5.251 2.343 10 5.642 15.268 7.95 5.163 2.264 10.558 3.939 15.771 6.078 5.061 2.077 10.008 4.421 14.953 6.758 2.85 1.347 5.703 2.726 8.582 4.039l.006.006a102 102 0 0 0 9.733 4.092c3.304 1.118 6.63 2.157 10.02 2.985 3.464.847 7.003 1.462 10.528 1.988 3.425.51 6.886.97 10.346 1.138a20.4 20.4 0 0 0 9.685-1.517 11.4 11.4 0 0 0 5.787-5.789c2.51-6.076-2.324-11.918-6.693-15.596-9.54-8.03-20.794-13.536-31.804-19.216-5.533-2.854-11.043-5.775-16.296-9.124a92 92 0 0 1-7.565-5.326 71 71 0 0 0-8.048-6.068c-2.8-1.63-5.82-2.883-8.731-4.3-2.621-1.276-5.213-2.61-7.74-4.064-2.557-1.471-4.983-3.145-7.457-4.742a26 26 0 0 1-1.683-1.188 19.2 19.2 0 0 1-3.355-8.108c-.493-4.029 1.625-7.716 3.804-10.927a20 20 0 0 1 1.877-2.416 84 84 0 0 1 14.09-1.051c12.886-.074 25.737 1.128 38.628.925 13.03-.206 26.035-1.212 39.068-1.289 12.94-.076 25.864.65 38.775 1.432 11.336.688 24.106 1.713 33.49-5.998a18.53 18.53 0 0 0 6.837-12.949 14.76 14.76 0 0 0-5.933-12.73c-4.463-3.448-10.08-4.543-15.58-4.995-6.338-.52-12.715-.701-19.066-1.038l-38.887-2.059c-13.015-.689-26.032-1.467-39.068-1.587-6.008-.056-12.019.035-18.025-.167q-4.515-.152-9.01-.581c-1.862-.176-3.732-.342-5.597-.549a9.7 9.7 0 0 1-1.546-2.443 8.3 8.3 0 0 1-.712-4.677 7.57 7.57 0 0 1 2.132-4.038m-78.818-85.577c-4.19-2.015-8.408-3.975-12.584-6.021-4.264-2.089-8.493-4.245-12.73-6.385.26.013.52.022.781.037 2.298.13 4.593.232 6.887.294 3.433 1.8 6.901 3.53 10.429 5.14q2.962 1.351 5.957 2.63 1.362.582 2.729 1.151a14.7 14.7 0 0 0 2.806 1.087c-1.423.693-2.853 1.371-4.275 2.067m-1.773-7.847q2.345 1.093 4.678 2.21 1.23.586 2.455 1.18a19 19 0 0 0 1.939.929c-.949.461-1.9.915-2.848 1.377a13 13 0 0 0-2.66-1.177q-1.577-.661-3.147-1.334a324 324 0 0 1-5.95-2.645q-5.071-2.309-10.077-4.76c2.183.054 4.364.066 6.547.022 3.01 1.424 6.045 2.792 9.063 4.198m177.527-8.812c-.046-.1-.103-.186-.153-.28a10.6 10.6 0 0 1 1.494 2.073 9.47 9.47 0 0 1 .318 7.961l.02-.317a21.5 21.5 0 0 0-.002-3.383 18 18 0 0 0-1.677-6.054M329.828 54.983l.772.772a.022.022 0 0 0 .031-.03l-.76-.76c.532-.218 1.062-.441 1.596-.651q1.095-.428 2.192-.848a8.6 8.6 0 0 0-.91 1.287 9 9 0 0 0-1.09 5.056 60 60 0 0 0-1.23-1.36 49 49 0 0 0-2.682-2.616c.694-.285 1.388-.565 2.081-.85m3.506 11.422c-.174-.005-.349-.018-.523-.024-2.879-3.037-5.901-5.932-8.924-8.824a.052.052 0 0 0-.074.074c2.9 2.961 5.802 5.922 8.84 8.742q-1.327-.058-2.656-.174v-.008a262 262 0 0 0-8.839-7.77c.146-.05.295-.098.438-.148a57 57 0 0 0 3.236-1.25c.924-.393 1.86-.757 2.79-1.139q1.336 1.311 2.606 2.687.716.772 1.406 1.568l.045.054c.005.033.001.067.006.1a8.23 8.23 0 0 0 4.37 6.18zM81.333 168.323a589 589 0 0 0-4.023-.153 75 75 0 0 0-1.753-.558l-1.672-.518a8.4 8.4 0 0 0-1.64-.411c-.027-.003-.035.036-.014.048a8.4 8.4 0 0 0 1.586.612l1.603.521q.414.134.83.266-2.742-.092-5.488-.13-1.09-.012-2.18-.016c.395-.137.793-.264 1.187-.406 1.862-.666 3.679-1.419 5.49-2.193 1.058.538 2.115 1.078 3.19 1.583.951.447 1.91.948 2.895 1.355Zm.709.025c-1.14-.614-2.377-1.085-3.548-1.615-1.042-.472-2.088-.93-3.134-1.391q1.396-.598 2.794-1.204c1.507.876 3.013 1.753 4.54 2.597.84.464 1.679.936 2.527 1.39q.335.18.674.37c-1.286-.07-2.576-.101-3.853-.147m328.475 91.028a6.6 6.6 0 0 1-1.146.736.4.4 0 0 0-.204-.133c.126.02.37.123.052-.001a1.6 1.6 0 0 0-.383-.095c-.368-.048-.751-.027-1.123-.042q-1.178-.048-2.354-.149-2.406-.207-4.786-.639a58 58 0 0 1-4.473-1.008q-1.14-.302-2.266-.654a5.1 5.1 0 0 1-1.753-.775q.436-.38.832-.79a40 40 0 0 0 3.939-4.823c1.225-1.734 2.35-3.535 3.434-5.358a11 11 0 0 0 .784-1.561 1.4 1.4 0 0 0 .345.233 51 51 0 0 1 6.03 2.965 36 36 0 0 1 5.346 3.954 5 5 0 0 1 .991 1.052 2.3 2.3 0 0 1 .068 1.828 10 10 0 0 1-1.128 2.718 9.6 9.6 0 0 1-2.205 2.542m-93.702-82.9c-.654-.965-1.35-1.905-2.03-2.844a82 82 0 0 0-3.432-4.418c.582-.293 1.17-.575 1.762-.836q.972 1.43 2.009 2.813a62 62 0 0 0 2.13 2.727 12.3 12.3 0 0 0-.439 2.558m.494-2.73a65 65 0 0 0-2.012-2.805q-1-1.332-2.05-2.618a73 73 0 0 1 1.69-.713c.202-.082.407-.154.61-.232.12.198.235.398.365.59.284.419.59.824.885 1.235a22 22 0 0 0 1.516 1.936 16.6 16.6 0 0 0-1.004 2.607m1.125-2.858c-.412-.68-.908-1.321-1.378-1.95-.292-.391-.576-.791-.88-1.174-.128-.163-.268-.315-.404-.471q.971-.366 1.96-.684.847 1.234 1.767 2.414a21 21 0 0 0-1.065 1.865m1.158-1.999a23 23 0 0 0-1.676-2.334 47 47 0 0 1 1.995-.592l.065.123c.022.04.079.016.08-.024.027.037.05.074.077.11q.241.33.47.67.105.152.212.303-.644.849-1.223 1.744m2.497-3.337q-.564.663-1.1 1.356c-.055-.084-.105-.171-.164-.253q-.23-.316-.47-.624c-.042-.054-.09-.102-.134-.154a52 52 0 0 1 2.004-.48c-.044.05-.094.105-.136.155m167.888-13.3a9 9 0 0 1-.652 2.005c-.206.498-.312.867-.82 1.139a6 6 0 0 1-1.39.435c-1.758.434-3.485.907-5.275 1.21a41 41 0 0 1-6.17.577c-1.558.025-3.382.203-4.638-.85a10.4 10.4 0 0 0 .353-1.651q.51-3.849.652-7.733a70 70 0 0 0-.103-7.722 14.5 14.5 0 0 0-.457-3.145 7 7 0 0 0-.23-.616 2 2 0 0 1 .254-.026 8.7 8.7 0 0 1 1.175 2.256c.395.874.78 1.754 1.142 2.642.01.022.046.013.038-.01a45 45 0 0 0-1.038-2.715 7.6 7.6 0 0 0-1.184-2.174 4 4 0 0 1 .471.032 6.6 6.6 0 0 0 1.133.021c.947-.031 1.892-.07 2.84-.058a36.4 36.4 0 0 1 5.518.48 34.4 34.4 0 0 1 5.12 1.296c.109.646.253 1.287.36 1.934a25.6 25.6 0 0 1 .349 4.393.027.027 0 0 0 .054 0 23 23 0 0 0-.052-3.573 24 24 0 0 0-.218-1.61 12 12 0 0 0-.197-.905l-.041-.158a6.1 6.1 0 0 1 2.104.915c.682.58.702 1.736.835 2.568a34.5 34.5 0 0 1 .067 11.042m-150.92-42.265a2 2 0 0 0 .171.233q.162.171.316.35c.211.243.436.477.654.714.213.232.403.484.619.712l.24.256a9 9 0 0 0-.588 1.23q-.136-.155-.258-.301c-.358-.437-.727-.864-1.094-1.293-.49-.574-1.002-1.127-1.51-1.683.485-.071.972-.141 1.45-.218m-1.624.244c.463.603.921 1.208 1.405 1.796.348.423.693.85 1.05 1.267q.227.267.457.532a7.6 7.6 0 0 0-.32 1.27c-.005.034-.006.068-.011.101l-.058-.074c-.452-.6-.938-1.175-1.422-1.75a42 42 0 0 0-2.702-2.904q.802-.122 1.601-.238m-1.739.259c.85.997 1.7 1.995 2.537 3.003.472.568.928 1.149 1.39 1.726q.17.214.343.427a8.4 8.4 0 0 0 .096 2.087c-.572-.684-1.144-1.369-1.724-2.046-1.427-1.664-2.858-3.315-4.368-4.903q.86-.159 1.726-.294m6.758 11.706-.341-.047c.008-.015.018-.03.012-.046a3.9 3.9 0 0 0-.984-1.15q-.658-.684-1.31-1.374-1.34-1.419-2.663-2.853c-1.695-1.836-3.34-3.719-5.038-5.552q.867-.209 1.752-.373a109 109 0 0 0 3.572 4.36c.63.735 1.259 1.474 1.9 2.201l.784.89a7.5 7.5 0 0 0 1.004 2.403 8.5 8.5 0 0 0 1.312 1.541m-1.149-10.356c-.025-.044-.046-.09-.073-.134a5 5 0 0 0-.63-.79 5 5 0 0 0-.723-.664 8 8 0 0 0-.402-.275 1 1 0 0 0-.084-.04l.013-.002q2.177-.359 4.366-.617a8.6 8.6 0 0 0-1.106.888 9.3 9.3 0 0 0-1.36 1.634"/><path fill="currentColor" d="M266.7 27.663a72 72 0 0 1-3.735 1.861q-.95.438-1.908.856c-.298.13-.599.254-.893.392a2.8 2.8 0 0 0-.892.518.25.25 0 0 0 .175.422 4.8 4.8 0 0 0 1.775-.775q.943-.515 1.874-1.051 1.834-1.056 3.644-2.156a.039.039 0 0 0-.04-.067m-31.28.303c-2.538-1.285-5.132-2.457-7.712-3.656-.03-.014-.057.03-.026.044 2.56 1.241 5.108 2.51 7.708 3.665.035.015.066-.035.03-.053m13.782 2.099c-7.484-3.54-14.946-7.136-22.24-11.055-.03-.016-.055.028-.026.045a232 232 0 0 0 22.223 11.085c.05.021.095-.051.043-.075m7.206-.25c-2.236-1.43-4.736-2.536-7.087-3.767q-3.497-1.829-7.01-3.625c-4.725-2.422-9.477-4.791-14.221-7.178-.1-.05-.187.098-.088.15 4.745 2.478 9.481 4.972 14.244 7.413q3.575 1.833 7.163 3.637c2.297 1.153 4.58 2.49 6.97 3.44.042.018.065-.048.03-.07m3.568-1.852c-2.135-1.453-4.494-2.645-6.755-3.887a379 379 0 0 0-6.863-3.696q-6.916-3.613-13.96-6.96c-.03-.014-.057.03-.027.045q6.945 3.529 13.82 7.2c2.293 1.222 4.59 2.438 6.873 3.68 2.272 1.235 4.522 2.604 6.872 3.685a.039.039 0 0 0 .04-.067m27.615-12.696a19.3 19.3 0 0 0-5.345-3.15c-.05-.02-.086.065-.037.088a41.4 41.4 0 0 1 5.34 3.117c.033.021.072-.029.042-.055m3.586-.959c-1.11-.798-2.26-1.515-3.425-2.229-.034-.02-.062.03-.03.053.56.386 1.115.786 1.686 1.158.57.373 1.15.725 1.738 1.07.035.02.062-.03.031-.052m-18.988 92.756c-.718-.135-1.451-.092-2.177-.16a56 56 0 0 1-2.222-.256 329 329 0 0 1-4.606-.64c-.081-.012-.118.11-.035.125 1.474.271 2.944.558 4.414.85q1.056.212 2.107.451c.755.17 1.49.478 2.255.588.617.09.902-.838.264-.958m19.944 5.34c-.732-.284-1.423-.644-2.129-.982a5.2 5.2 0 0 0-1.566-.607c-.324-.03-.598.025-.928-.035-.266-.05-.53-.124-.793-.19-.659-.163-1.312-.35-1.966-.533-1.263-.355-2.52-.735-3.788-1.075-1.314-.352-2.653-.59-3.972-.918a.026.026 0 0 0-.013.05c1.28.473 2.526 1.033 3.818 1.475 1.285.44 2.588.83 3.886 1.23.606.187 1.214.368 1.817.564a7.4 7.4 0 0 1 1.031.345 6 6 0 0 0 .725.438 7.4 7.4 0 0 0 1.754.208c.701.052 1.405.099 2.102.192.1.013.101-.132.022-.162m12.992-.238c-4.632-.779-9.233-1.67-13.78-2.855a.017.017 0 0 0-.01.034 113 113 0 0 0 13.779 2.862c.026.004.039-.037.011-.041m11.053-2.818c-.675-.528-1.984-.439-2.813-.529-1.085-.118-2.172-.229-3.257-.35q-3.493-.387-6.975-.866a303 303 0 0 1-13.51-2.155c-.065-.012-.093.086-.027.1a248 248 0 0 0 13.541 2.55q3.276.516 6.564.952c1.13.15 2.26.3 3.393.424.542.06 1.086.128 1.63.174a2.57 2.57 0 0 0 1.427-.089.135.135 0 0 0 .027-.21m2.377-2.01a12 12 0 0 0-2.603-.43q-1.542-.197-3.084-.406-2.786-.38-5.567-.803a511 511 0 0 1-11.245-1.826c-.027-.005-.04.036-.012.041 3.762.76 7.532 1.458 11.321 2.064q2.775.443 5.556.843 1.425.204 2.851.398a12 12 0 0 0 2.765.255.07.07 0 0 0 .018-.136m1.328-2.64a41 41 0 0 0-4.368-.53q-2.418-.288-4.827-.644-4.59-.678-9.154-1.54c-.027-.005-.04.036-.012.042q4.59 1.037 9.23 1.774 2.175.343 4.357.631a30 30 0 0 0 4.743.497.118.118 0 0 0 .031-.23m1.506-3.502a8 8 0 0 0-2.216-.16 89 89 0 0 1-2.362-.148 77 77 0 0 1-4.7-.469c-.038-.005-.047.061-.008.068 1.53.288 3.07.534 4.617.71.785.09 1.574.151 2.362.205a7 7 0 0 0 2.307.02.118.118 0 0 0 0-.226m.038-3.355a2.2 2.2 0 0 0-1.125-.209 13 13 0 0 0-1.3.076c-.856.082-1.699.263-2.553.354a.035.035 0 0 0 0 .07c.853.04 1.7.173 2.553.204.42.016.832.022 1.252.002a2.27 2.27 0 0 0 1.173-.272.132.132 0 0 0 0-.225m2.199-2.47a8.5 8.5 0 0 0-1.134-.07l-1.133.023a.082.082 0 0 0 0 .164l1.133.024a8.5 8.5 0 0 0 1.134-.071.035.035 0 0 0 0-.07m3.013-1.454-.564-.198c-.037-.013-.053.047-.016.059l.569.18c.027.01.037-.032.011-.04m-4.289-12.959a78 78 0 0 0-15.316-5.123.07.07 0 0 0-.037.133c5.207 1.417 10.21 3.354 15.306 5.101.065.022.11-.08.047-.11m-1.846 1.256a27.5 27.5 0 0 0-8.59-3.425.04.04 0 0 0-.021.075 54 54 0 0 1 8.562 3.432.048.048 0 0 0 .049-.082m-26.907-36.99c-4.213-.467-8.438-.714-12.668-.962-.068-.004-.066.098 0 .104 4.219.399 8.433.8 12.668.979.08.003.076-.113 0-.121M280.27 163.413c-7.03-3.457-14.413-6.148-21.463-9.573-.055-.026-.103.054-.048.083 6.911 3.623 13.939 7.397 21.435 9.672.106.032.18-.132.077-.182m8.995.121c-3.482-1.332-7.053-2.428-10.556-3.707-3.498-1.276-6.972-2.605-10.404-4.052-.063-.027-.11.082-.047.11 3.367 1.513 6.773 2.954 10.227 4.256a87 87 0 0 0 10.753 3.494.052.052 0 0 0 .027-.1m5.624-1.903c-1.438-.534-2.964-.859-4.445-1.248-1.532-.404-3.066-.801-4.596-1.213a487 487 0 0 1-9.028-2.505.026.026 0 0 0-.013.05c3.013.988 6.038 1.93 9.088 2.796 1.48.42 2.964.832 4.454 1.216a37 37 0 0 0 4.524 1.014c.068.009.07-.09.015-.11m4.758-2.602a84 84 0 0 0-12.842-2.348c-.039-.004-.048.062-.01.069 4.291.707 8.535 1.682 12.83 2.362a.043.043 0 0 0 .022-.084m3.411-2.682a14.1 14.1 0 0 0-6.065-.558.056.056 0 0 0 0 .113 28 28 0 0 1 3.1.266c.972.14 1.962.29 2.944.332.094.004.097-.123.02-.153m3.766-3.506a5 5 0 0 0-.582.014 7 7 0 0 0-.581.04 5 5 0 0 0-.566.08q-.281.065-.566.119c-.058.01-.044.103.014.102q.29-.008.581-.006a6 6 0 0 0 .582-.044c.19-.018.376-.05.564-.084a5 5 0 0 0 .569-.11.057.057 0 0 0-.015-.11m6.394 22.458a43 43 0 0 0-3.768-4.137.026.026 0 0 0-.037.037 69 69 0 0 1 3.589 4.207c1.135 1.443 2.1 3.022 3.258 4.444.027.032.07-.01.055-.042a24.8 24.8 0 0 0-3.097-4.509m-4.104-.588c-.022-.025-.059.012-.037.036l1.875 2.09c.015.017.04-.008.025-.024zm19.843-16.292c-1.984-1.07-4.041-1.993-6.083-2.946-.03-.014-.056.03-.026.045 2.012 1.013 4.01 2.057 6.078 2.953.035.015.066-.033.03-.052m5.291-.193c-2.72-1.43-5.515-2.698-8.325-3.94-.02-.008-.038.02-.018.03 2.737 1.394 5.486 2.758 8.312 3.962.035.015.066-.033.031-.052m5.67.192a30.7 30.7 0 0 0-6.08-2.788c-.049-.016-.068.058-.021.075a64 64 0 0 1 6.058 2.787.043.043 0 0 0 .043-.074m6.864 1.155q-.495-.389-.998-.767c-.717-.538-1.465-1.028-2.169-1.582a6.6 6.6 0 0 0-1.028-.677 6 6 0 0 0-.555-.282c-.215-.087-.42-.05-.64-.119a14 14 0 0 1-1.395-.62 33 33 0 0 1-1.286-.608.031.031 0 0 0-.031.054c.759.463 1.503.955 2.237 1.458.07.049.146.098.217.152a.086.086 0 0 0 .027.15c.056.016.108.04.163.056a1 1 0 0 0 .119.168 2.4 2.4 0 0 0 .517.332 8 8 0 0 0 1.196.575 9.8 9.8 0 0 1 2.248 1.28c.37.266.733.545 1.094.826.238.185.448.472.769.38a.12.12 0 0 0 .084-.11c.013-.333-.332-.481-.568-.666m5.367.403c-.639-.497-1.293-.983-1.882-1.54a4.3 4.3 0 0 0-.78-.648 1.2 1.2 0 0 0-.394-.126 2 2 0 0 1-.347-.115 6 6 0 0 1-.609-.23 1.05 1.05 0 0 0-.424-.15 1.7 1.7 0 0 1-.648-.152c-.18-.083-.358-.172-.538-.256-.766-.359-1.55-.678-2.308-1.052a.018.018 0 0 0-.018.03c.679.41 1.326.868 1.996 1.292.327.208.67.397.987.618a2.2 2.2 0 0 0 .423.299c.228.087.385-.013.614-.012.015 0 .035.003.052.004q.179.083.358.163l.287.134a.5.5 0 0 0 .109.12 10 10 0 0 0 .872.559c.694.418 1.337.919 1.987 1.402.196.146.457-.19.263-.34m-249.854 2.643c-.017-.022-.054-.001-.038.022 2.73 3.684 5.433 7.392 8.263 11.001.024.03.077-.01.054-.042-2.683-3.717-5.496-7.339-8.28-10.981m10.227 6.92a426 426 0 0 1-6.158-9.128c-.02-.032-.073-.002-.052.031a287 287 0 0 0 6.108 9.312c2.05 2.984 4.075 6.028 6.378 8.824.025.03.076-.01.055-.042-2.012-3.063-4.247-5.982-6.33-8.996m1.131-8.065a.022.022 0 0 0-.037.022c2.042 3.584 4.114 7.152 6.317 10.64a.026.026 0 0 0 .045-.026c-2.01-3.603-4.154-7.128-6.325-10.636m12.157 18.362a71 71 0 0 0-1.095-1.44q-1.21-1.554-2.391-3.128c-.007-.008-.021 0-.015.01q1.09 1.61 2.148 3.241.528.817 1.078 1.618a3.8 3.8 0 0 0 1.128 1.348.07.07 0 0 0 .102-.078 4 4 0 0 0-.955-1.57m8.688 3.885q-.46-.68-.917-1.36-.84-1.25-1.657-2.512-1.736-2.702-3.451-5.418c-2.262-3.581-4.425-7.24-6.827-10.728a.022.022 0 0 0-.037.022c2.022 3.768 4.369 7.373 6.652 10.988q1.68 2.657 3.379 5.302c.59.92 1.17 1.847 1.748 2.774a7.8 7.8 0 0 0 1.598 2.303c.1.07.212-.046.191-.147a3.6 3.6 0 0 0-.679-1.224m8.702 4.217a8.9 8.9 0 0 0-1.565-2.244c-.71-.877-1.34-1.804-1.97-2.74q-1.763-2.619-3.46-5.282-3.397-5.324-6.617-10.759a.052.052 0 0 0-.09.053q3.047 5.533 6.461 10.85 1.707 2.657 3.483 5.27c.566.833 1.15 1.655 1.668 2.52a9.6 9.6 0 0 0 1.749 2.53c.138.118.421.01.34-.198m7.484 2.243a86 86 0 0 1-1.621-2.386q-1.633-2.455-3.19-4.96-3.076-4.953-5.885-10.067c-.016-.03-.06-.003-.045.026a177 177 0 0 0 5.727 10.16q1.501 2.46 3.077 4.875c.524.804 1.064 1.6 1.589 2.404a9 9 0 0 0 1.641 2.243c.058.046.167.006.138-.08a9.2 9.2 0 0 0-1.431-2.215m10.134 4.457a57 57 0 0 0-3.648-4.91c-1.223-1.633-2.332-3.333-3.44-5.045-2.214-3.416-4.424-6.836-6.56-10.301a.048.048 0 0 0-.082.048c2.077 3.553 4.238 7.055 6.56 10.455 1.147 1.682 2.323 3.34 3.434 5.048a40 40 0 0 0 3.422 4.947c.153.17.428-.049.314-.242m6.389.833a48 48 0 0 1-1.611-2.288q-1.588-2.379-3.053-4.836-2.929-4.91-5.38-10.085c-.012-.026-.049-.004-.037.021a108 108 0 0 0 5.365 10.242q1.463 2.457 3.05 4.837c.517.774 1.039 1.545 1.547 2.325a7.1 7.1 0 0 0 1.544 2.075.083.083 0 0 0 .121-.093 8.5 8.5 0 0 0-1.546-2.198m7.88 2.072q-.778-1.2-1.552-2.404-1.51-2.349-3.008-4.706l-5.997-9.428a.052.052 0 0 0-.09.053q2.842 4.808 5.795 9.545 1.445 2.31 2.91 4.606.769 1.207 1.542 2.41a9 9 0 0 0 1.526 2.12.061.061 0 0 0 .101-.059 8.6 8.6 0 0 0-1.227-2.137m7.724 2.765q-.702-.933-1.38-1.883-1.31-1.85-2.56-3.741-2.5-3.783-4.773-7.709a.04.04 0 0 0-.068.04q2.273 3.997 4.799 7.843 1.25 1.892 2.559 3.743.634.899 1.27 1.796a11.4 11.4 0 0 0 1.351 1.762.057.057 0 0 0 .089-.068 13 13 0 0 0-1.287-1.783m6.628.453q-.489-.675-.972-1.353-.933-1.315-1.84-2.65-1.845-2.706-3.61-5.467c-.011-.02-.04-.002-.03.017q1.739 2.835 3.559 5.619.91 1.39 1.837 2.77.461.69.928 1.378a3.3 3.3 0 0 0 .814.999.061.061 0 0 0 .089-.069 3.9 3.9 0 0 0-.775-1.244m6.962.099q-.678-.815-1.32-1.66a40 40 0 0 1-2.282-3.348.017.017 0 0 0-.03.017 40 40 0 0 0 2.209 3.46q.56.785 1.167 1.536a11.5 11.5 0 0 0 1.396 1.543c.039.033.108-.01.075-.058-.369-.527-.804-.996-1.215-1.49m4.433-.795a43 43 0 0 0-1.247-1.208.035.035 0 0 0-.049.05c.388.43.778.856 1.183 1.272.405.415.82.815 1.244 1.211a.04.04 0 0 0 .055-.055 37 37 0 0 0-1.186-1.27m6.815 2.442c-.209-.143-.435-.264-.652-.394l-.654-.39a.039.039 0 0 0-.04.068q.33.19.659.382c.218.127.434.266.66.379a.026.026 0 0 0 .027-.045m7.01-.644c-.688-.208-1.385-.378-2.082-.552a.052.052 0 0 0-.027.1c.695.183 1.387.369 2.09.519a.035.035 0 0 0 .019-.067M76.356 161.287c-1.86.412-3.68 1.034-5.5 1.594a445 445 0 0 0-5.334 1.684q-5.393 1.733-10.733 3.616c-.03.01-.018.06.014.05q5.386-1.734 10.78-3.445c1.778-.562 3.559-1.112 5.339-1.665 1.821-.567 3.677-1.063 5.46-1.743a.048.048 0 0 0-.026-.091m-10.753-.708a60 60 0 0 0-7.218 2.539c-.02.008-.012.042.01.033 2.375-.935 4.8-1.72 7.222-2.522a.026.026 0 0 0-.014-.05m10.017-2.46a7.7 7.7 0 0 0-1.703.169c-.573.1-1.145.207-1.718.311a.017.017 0 0 0 .005.034c.58-.046 1.16-.089 1.741-.14a7.7 7.7 0 0 0 1.688-.272.052.052 0 0 0-.014-.102m-3.037-3.619c-3.49.76-6.926 1.774-10.372 2.71a.03.03 0 0 0 .016.058c3.465-.866 6.957-1.66 10.374-2.702a.035.035 0 0 0-.018-.066m-.941-3.07a49.5 49.5 0 0 0-8.31 1.767.026.026 0 0 0 .015.05c2.751-.66 5.54-1.138 8.308-1.723.052-.01.041-.1-.013-.094m21.138 17.496c-2.18-1.423-4.484-2.679-6.742-3.972q-3.396-1.945-6.82-3.838a.022.022 0 0 0-.023.037q3.358 2.01 6.736 3.984c2.25 1.308 4.49 2.675 6.814 3.85a.035.035 0 0 0 .035-.06m1.401-3.164c-4.34-2.572-8.805-4.932-13.266-7.289-.02-.01-.037.02-.017.03 4.374 2.512 8.755 5.025 13.248 7.32a.035.035 0 0 0 .035-.06m-3.027-5.655a62 62 0 0 0-7.959-4.115c-.045-.02-.085.046-.04.068 2.717 1.256 5.324 2.703 7.973 4.092a.026.026 0 0 0 .026-.045m-1.523-4.322a25 25 0 0 0-3.322-1.946q-1.714-.883-3.484-1.648c-.02-.009-.038.02-.017.03q1.747.805 3.44 1.723c1.126.614 2.218 1.295 3.357 1.886a.026.026 0 0 0 .026-.045m-2.83-6.05a17.8 17.8 0 0 0-3.819-1.828c-.021-.007-.03.026-.009.034a34 34 0 0 1 3.8 1.84.026.026 0 0 0 .027-.046m-2.181-7.056h.008a.057.057 0 0 0 .04-.096 1.5 1.5 0 0 0-.346-.277 3.2 3.2 0 0 0-.665-.548 3.1 3.1 0 0 0-1.419-.418c-.028-.002-.036.047-.007.051a3.7 3.7 0 0 1 1.612.688l-.136-.054c-.381-.15-.761-.302-1.146-.44a34 34 0 0 0-2.332-.74.03.03 0 0 0-.022.054c.722.377 1.45.733 2.197 1.058.366.158.736.305 1.106.454a2.7 2.7 0 0 0 .988.266c.048.055.105.102.149.16.03.039.094.005.067-.04-.027-.043-.065-.076-.094-.118m4.233-108.879a65.5 65.5 0 0 0-20.399-7.598c-.054-.011-.077.07-.023.084A108.5 108.5 0 0 1 88.795 33.9a.056.056 0 0 0 .056-.098m-1.157 3.37c-.457-.627-1.084-.631-1.8-.65a7 7 0 0 1-2.125-.505c-1.63-.577-2.744-1.906-4.26-2.677a32.6 32.6 0 0 0-5.545-1.9c-2.033-.6-4.065-1.196-6.11-1.756a.048.048 0 0 0-.025.092 294 294 0 0 0 6.137 2.166 42 42 0 0 1 6.004 2.174 16 16 0 0 1 2.102 1.33c.66.492 1.22 1.113 1.913 1.563a4.9 4.9 0 0 0 2.026.743 3.4 3.4 0 0 1 .92.287.6.6 0 0 0 .668-.126.61.61 0 0 0 .095-.74m-11.104.562c-.78-.361-1.562-.728-2.371-1.022-.408-.148-.813-.297-1.227-.423a11 11 0 0 0-1.314-.29c-.028-.005-.047.032-.02.048a11 11 0 0 0 1.138.59c.401.167.807.316 1.216.462.83.296 1.68.52 2.532.745.064.017.11-.081.047-.11m9.243 3.356a1.2 1.2 0 0 0-.621-.28 17 17 0 0 0-1.455-.266 8 8 0 0 1-1.42-.223q-.717-.235-1.418-.517c-.091-.036-.155.115-.067.158.755.373 1.563.654 2.278 1.1a5.7 5.7 0 0 0 1.187.549c.206.07.41.135.623.185a1 1 0 0 1 .28.072c-.072-.04-.002.018.02.045a.45.45 0 0 0 .702-.09.59.59 0 0 0-.109-.733m-4.292 2.664a10.8 10.8 0 0 0-2.852-1.529 15.6 15.6 0 0 0-3.259-.868.078.078 0 0 0-.042.15c1.017.407 2.026.83 3.042 1.237a30 30 0 0 0 3.026 1.155c.079.022.155-.088.085-.145m1.856 3.814a10 10 0 0 0-1.456-.963 13 13 0 0 0-1.605-.708c-.074-.027-.105.09-.032.117a14.6 14.6 0 0 1 3.061 1.595c.024.016.055-.023.032-.041m24.918-11.186a74.5 74.5 0 0 0-9.657-2.161c-.054-.009-.078.074-.023.083 3.25.575 6.46 1.341 9.661 2.145a.035.035 0 0 0 .019-.067m10.375-2.022a71 71 0 0 0-15.31-2.097c-.04-.002-.038.057 0 .06 5.137.465 10.18 1.412 15.275 2.163.08.012.118-.103.035-.126m5.126-2.388a49.5 49.5 0 0 0-11.94-1.51c-.051 0-.05.075 0 .079 3.986.286 7.969.884 11.91 1.54.07.011.101-.09.03-.11m5.088-2.436a82 82 0 0 0-8.534-1.134c-.02-.002-.024.031-.005.034a82 82 0 0 0 8.526 1.194.048.048 0 0 0 .013-.094m3.192-1.934a17 17 0 0 0-5.486-.386.065.065 0 0 0 0 .13c.918.012 1.828.083 2.743.15.91.065 1.814.19 2.727.225a.061.061 0 0 0 .016-.12m4.34-1.52a5.85 5.85 0 0 0-2.457-.222c-.043.005-.046.07 0 .07a15 15 0 0 1 2.439.22.035.035 0 0 0 .018-.068m2.076-1.143a.013.013 0 0 0 0 .026h1.512a.013.013 0 0 0 0-.026Zm340.81 63.887-.193 2.36c-.007.075.113.076.117 0l.107-2.36c.001-.02-.03-.02-.031 0m-.149 3.168a1.2 1.2 0 0 0-.133.289 1 1 0 0 0-.032.158l-.007.08a.2.2 0 0 0 .03.092.06.06 0 0 0 .103 0 .3.3 0 0 0 .029-.08l.002-.082a1 1 0 0 1 .015-.13 1 1 0 0 1 .08-.276.05.05 0 0 0-.087-.05m.912-1.061-.065.607-.032.298q-.009.071-.015.142a1 1 0 0 0 .008.167.027.027 0 0 0 .053.007 1.5 1.5 0 0 0 .047-.293l.022-.31.044-.618c.003-.041-.058-.04-.062 0m-6.006 53.046c0-.005-.008-.006-.008 0a31 31 0 0 1 .014 5.1 14 14 0 0 1-.348 2.546 5.4 5.4 0 0 1-.464 1.234 4.4 4.4 0 0 0-.402.876c-.006.02.024.027.03.009.264-.735.904-1.28 1.04-2.063a23 23 0 0 0 .25-2.414 31 31 0 0 0-.112-5.288m-5.654 13.323q-.117.084-.236.166c-.083.058-.173.108-.253.169q-.12.09-.234.187c-.075.063-.141.14-.213.207-.042.04.011.094.057.074a3 3 0 0 0 .268-.123 2 2 0 0 0 .25-.18 2 2 0 0 0 .208-.213 5 5 0 0 0 .196-.232c.022-.028-.008-.08-.043-.055m-115.8.908a4 4 0 0 1-.496-.353q-.525-.394-1.041-.8a156 156 0 0 1-1.946-1.544c-.013-.011-.032.007-.02.02.62.563 1.252 1.111 1.905 1.636q.476.383.959.756a6 6 0 0 1 .508.398c.127.121.214.243.404.236a.038.038 0 0 0 .036-.047c-.045-.167-.165-.225-.309-.302m2.245 1.585q-.252-.161-.502-.326c-.336-.22-.66-.452-.984-.687-.043-.031-.099.04-.057.073.312.251.621.503.921.769q.225.198.447.399a1.2 1.2 0 0 0 .49.328.116.116 0 0 0 .13-.168 1.2 1.2 0 0 0-.445-.388m3.243-.058c-.266-.201-.537-.394-.804-.593-.583-.434-1.165-.867-1.738-1.313-1.102-.859-2.227-1.689-3.322-2.557-.025-.02-.06.012-.035.036a41 41 0 0 0 3.112 2.848q.776.626 1.568 1.232.422.318.851.628c.204.148.486.408.754.333a.08.08 0 0 0 .06-.079c-.015-.247-.262-.396-.446-.535m.61-2.187a13 13 0 0 0-2.804-2.187c-.01-.007-.024.01-.014.019a29 29 0 0 0 2.783 2.214c.028.019.057-.023.035-.046m3.372 2.421a1.5 1.5 0 0 0-.43-.41 5 5 0 0 0-.492-.335c-.08-.048-.17-.078-.25-.124-.077-.043-.147-.098-.227-.136a4 4 0 0 1-.51-.337c-.031-.02-.07.028-.04.052l.216.178a2 2 0 0 1 .232.2c.06.068.126.129.19.194.07.071.123.157.191.23.129.135.26.272.4.394a1.7 1.7 0 0 0 .503.377c.167.06.29-.146.217-.283m3.679.394a3.5 3.5 0 0 0-.642-.488q-.35-.244-.695-.494c-.46-.333-.924-.66-1.381-.998a60 60 0 0 1-2.737-2.177c-.013-.011-.032.007-.02.02a54 54 0 0 0 2.592 2.371c.43.372.862.74 1.31 1.09q.337.264.678.523a3.3 3.3 0 0 0 .709.473v-.011a.187.187 0 0 0 .186-.31m2.714-.259a1.8 1.8 0 0 0-.533-.34q-.294-.156-.578-.327a23 23 0 0 1-1.114-.716 12 12 0 0 1-2.02-1.769c-.008-.008-.023.003-.016.012a12.7 12.7 0 0 0 1.85 1.998 9 9 0 0 0 1.07.8q.294.188.6.358a1.55 1.55 0 0 0 .632.247.156.156 0 0 0 .109-.263m3.02-.02a4 4 0 0 0-.527-.459c-.198-.143-.41-.268-.618-.397q-.3-.188-.604-.373a7 7 0 0 1-.62-.377c-.036-.027-.078.031-.047.062.172.173.317.37.492.542a6 6 0 0 0 .562.477 3.7 3.7 0 0 0 .598.39 2.7 2.7 0 0 0 .709.23.057.057 0 0 0 .055-.095m2.821.066a1.3 1.3 0 0 0-.196-.129 2.4 2.4 0 0 0-.426-.169c-.012-.003-.021.016-.009.022a2.4 2.4 0 0 1 .39.223q.094.062.184.126a1 1 0 0 0 .185.12c.02.008.036-.019.027-.035a.6.6 0 0 0-.154-.158m-26.095.481a1 1 0 0 0-.081-.063q-.04-.03-.08-.056l-.194-.117a.04.04 0 0 0-.048.01.04.04 0 0 0 .003.049l.156.122q.08.061.165.115c.026.017.07.044.099.021a.04.04 0 0 0 .014-.031c0-.022-.02-.036-.034-.05m-5.221-.596c-.774-.45-1.593-.817-2.374-1.255a.012.012 0 0 0-.012.02 10.2 10.2 0 0 0 2.366 1.282c.028.01.044-.033.02-.047m58.587-.752a24 24 0 0 0-3.444-1.919c-.013-.006-.025.014-.012.02q.871.461 1.724.956c.568.329 1.13.675 1.713.977a.02.02 0 0 0 .02-.034m1.844-1.451c-1.173-.975-2.439-1.834-3.686-2.71-.01-.006-.02.009-.012.016 1.203.936 2.394 1.895 3.67 2.73.022.015.049-.019.028-.036m2.9 1.651a1 1 0 0 0-.165-.144 4 4 0 0 0-.368-.232 26 26 0 0 0-.745-.43.041.041 0 0 0-.042.07 8 8 0 0 1 .682.516c.103.089.202.184.308.269a1.2 1.2 0 0 0 .179.127.5.5 0 0 0 .195.05.04.04 0 0 0 .04-.053.44.44 0 0 0-.084-.173m3.875-.076c-1.157-.798-2.364-1.523-3.54-2.292a119 119 0 0 1-3.486-2.36c-.01-.006-.02.008-.012.015a41 41 0 0 0 7.004 4.695.033.033 0 0 0 .034-.058m4.551-.55a12 12 0 0 0-1.648-.833 15 15 0 0 1-1.59-1.05c-1.022-.717-2.066-1.4-3.106-2.09-.013-.009-.024.011-.012.02a37 37 0 0 0 3.071 2.151c.535.33 1.105.632 1.606 1.012a9.6 9.6 0 0 0 1.494 1.106.18.18 0 0 0 .185 0c.077-.054.079-.062.09-.158a.18.18 0 0 0-.09-.158m3.394-.003q-.391-.244-.78-.492-.753-.484-1.494-.985a164 164 0 0 1-2.933-2.045c-.011-.008-.025.01-.015.018.904.73 1.837 1.419 2.791 2.08q.714.495 1.44.973.385.253.773.502a2.3 2.3 0 0 0 .721.396c.025.004.057-.024.038-.05a1.9 1.9 0 0 0-.54-.397m4.013.4c-.341-.23-.734-.39-1.095-.587q-.568-.305-1.11-.65a45 45 0 0 1-2.095-1.439c-.014-.01-.032.013-.019.025.662.538 1.322 1.081 2.027 1.562a12 12 0 0 0 1.095.677 3.9 3.9 0 0 0 1.173.47.031.031 0 0 0 .024-.058m3.225-.14a5 5 0 0 0-.706-.342 23 23 0 0 1-.675-.309 14 14 0 0 1-1.344-.733c-.016-.01-.028.014-.014.024a14 14 0 0 0 1.316.83 4.5 4.5 0 0 0 1.402.58.027.027 0 0 0 .02-.05m3.293.133a5.9 5.9 0 0 0-1.948-.929.027.027 0 0 0-.021.05 12.7 12.7 0 0 0 1.933.94c.034.012.065-.038.036-.061m21.158.416c-.019-.007-.027.023-.009.03.704.293 1.407.587 2.114.873.006.002.01-.008.005-.01-.702-.303-1.406-.597-2.11-.893m18.463 3.04c-.745-.337-1.51-.63-2.256-.962-.749-.335-1.49-.69-2.214-1.075a.016.016 0 0 0-.016.027 18 18 0 0 0 4.462 2.067c.033.009.057-.042.024-.057m2.499-.033c-.825-.362-1.677-.661-2.51-1.003a46 46 0 0 1-2.62-1.17c-.022-.012-.042.02-.02.033q1.24.687 2.537 1.256a16 16 0 0 0 2.592.934c.028.007.05-.037.02-.05m.708-1.027q-.472-.202-.945-.402-1.042-.436-2.075-.893c-.009-.004-.017.01-.008.014q1.002.481 2.013.944.498.225 1 .439a6.4 6.4 0 0 0 .993.385.02.02 0 0 0 .015-.036 7.4 7.4 0 0 0-.993-.45m1.406-.305-1.378-.512c-.01-.003-.013.011-.004.015l1.34.55a13 13 0 0 0 1.35.513c.021.006.036-.025.015-.035a13 13 0 0 0-1.323-.53m2.719.104a2.6 2.6 0 0 0-.484-.255c-.148-.067-.296-.135-.447-.195q-.492-.196-.992-.368c-.015-.006-.02.017-.007.022q.496.205.983.432c.154.073.311.14.466.212a3 3 0 0 0 .465.191.022.022 0 0 0 .017-.04m.762-.584c-.02-.003-.028.027-.009.03a4.7 4.7 0 0 1 .951.332c.014.007.026-.013.012-.02a3.4 3.4 0 0 0-.954-.341m8.628-5.683c-.195-.125-.423-.044-.645-.018l-.757.089c-.569.066-1.139.12-1.709.178l-3.354.338c-.03.003-.03.05 0 .047l3.418-.265c.548-.043 1.096-.088 1.645-.122l.882-.054c.2-.013.377.012.529-.129a.042.042 0 0 0-.009-.064M86.85 146.741a4.7 4.7 0 0 0-1.434-.83 55 55 0 0 0-1.608-.7q-1.71-.716-3.4-1.47c-.034-.016-.064.033-.03.05q1.638.817 3.255 1.673.78.415 1.573.805a4.9 4.9 0 0 0 1.592.595c.064.007.093-.082.051-.123m-.381-3.536.026.044c-.026-.106-.134-.163-.223-.215-.08-.047-.17-.08-.254-.121a3 3 0 0 0-.244-.122c-.022-.007-.044-.009-.066-.017l-.061-.028a1 1 0 0 0-.127-.057.051.051 0 0 0-.05.085 1 1 0 0 0 .102.08l.062.048c.014.013.023.029.037.042a1 1 0 0 0 .113.083l.118.084c.073.053.142.115.218.163q.058.035.118.066a.23.23 0 0 0 .187.032h-.053a.3.3 0 0 0 .124.008.057.057 0 0 0 .04-.07.3.3 0 0 0-.067-.105m-2.656-3.897a24 24 0 0 0-3.259-.968.03.03 0 0 0-.016.056 24 24 0 0 0 3.25.973c.033.005.062-.045.025-.061m202.176 77.173c-.726-.773-1.532-1.48-2.297-2.214q-1.15-1.106-2.266-2.247c-.005-.005-.013.003-.008.008q1.073 1.213 2.215 2.36a23 23 0 0 0 2.327 2.13c.022.017.046-.018.029-.037m5.775 2.009c-.12.127-.378-.066-.455-.14-.066-.064-.127-.137-.19-.204q-.217-.225-.437-.45-.434-.45-.865-.906a108 108 0 0 1-1.707-1.835q-1.682-1.856-3.283-3.784c-.013-.016-.034.006-.022.022q1.83 2.33 3.812 4.533.98 1.086 2.002 2.133c.107.11 1.019 1.204 1.187.656a.026.026 0 0 0-.042-.025m2.225-.667c-.543-.638-1.095-1.269-1.644-1.902q-1.621-1.873-3.257-3.733c-.012-.013-.03.006-.02.02q1.564 1.878 3.14 3.745c.51.603 1.017 1.208 1.53 1.809a16.6 16.6 0 0 0 1.67 1.877c.022.02.06-.005.042-.033a15.5 15.5 0 0 0-1.46-1.783m2.226-.413a179 179 0 0 1-2.654-3.548c-.011-.016-.038 0-.027.016a108 108 0 0 0 2.623 3.645 36 36 0 0 0 2.726 3.414c.02.02.056-.006.04-.03-.825-1.215-1.816-2.33-2.708-3.496m3.801 1.642q-1.463-1.816-2.91-3.644c-.013-.016-.04.005-.028.02a156 156 0 0 0 2.77 3.595 41 41 0 0 0 2.981 3.59c.017.016.048-.006.034-.027-.855-1.238-1.903-2.362-2.847-3.534m4.741 3.376q-.525-.626-1.03-1.269a60 60 0 0 1-2.01-2.691c-.006-.008-.02 0-.013.008a47 47 0 0 0 1.898 2.665q.487.63.994 1.245a8.4 8.4 0 0 0 1.111 1.262c.021.017.056-.004.04-.03a11 11 0 0 0-.99-1.19m3.506 1.66a67 67 0 0 1-.973-1.148q-.973-1.17-1.874-2.397c-.019-.026-.063 0-.044.026q.849 1.196 1.764 2.343.457.572.935 1.125a11 11 0 0 0 1.053 1.132c.018.015.05-.005.034-.026-.27-.373-.593-.709-.895-1.055m2.462.751a12 12 0 0 0-1.57-1.236c-.02-.013-.036.017-.018.03a18 18 0 0 1 1.53 1.301c.475.452.905.945 1.352 1.425.018.019.052-.007.036-.029a9.4 9.4 0 0 0-1.33-1.49m2.526 1.297a.012.012 0 0 0-.012.02 6.5 6.5 0 0 1 1.881 1.7c.012.015.039.001.027-.016a5.2 5.2 0 0 0-1.896-1.704m22.124 7.676c-.011-.014-.03.006-.02.02.672.801 1.34 1.606 2.027 2.396.01.011.026-.005.016-.017-.664-.808-1.344-1.603-2.023-2.4m1.69-2.203c-.012-.015-.034.007-.022.023 1.854 2.284 3.686 4.588 5.584 6.835.012.014.03-.006.02-.02-1.823-2.308-3.714-4.564-5.582-6.837m7.099 5.259q-2.286-2.893-4.344-5.958c-.007-.01-.024-.001-.017.01q1.96 3.011 4.163 5.85a52 52 0 0 0 4.81 5.597c.022.02.052-.01.033-.034-1.522-1.845-3.16-3.585-4.645-5.465m4.374 1.83q-1.96-2.628-3.894-5.276c-.02-.028-.067-.001-.047.027q1.922 2.716 3.902 5.389c1.284 1.724 2.541 3.488 3.938 5.123.015.018.047-.006.033-.026-1.25-1.788-2.628-3.49-3.932-5.237m5.172 3.195q-1.744-2.016-3.55-3.976c-.013-.015-.035.008-.021.022q1.746 1.963 3.457 3.957c1.14 1.328 2.237 2.694 3.402 4 .011.013.035-.005.024-.019-1.04-1.377-2.184-2.68-3.313-3.984m2.59.954c-.013-.012-.033.007-.02.02a34 34 0 0 1 3.434 3.546c.01.011.026-.005.017-.017a28 28 0 0 0-3.431-3.55m4.307 1.964c-.013-.008-.024.012-.012.02a8.45 8.45 0 0 1 2.3 2.465.012.012 0 0 0 .02-.011 7.2 7.2 0 0 0-2.308-2.474m13.614 6.924c-.683-.708-1.375-1.406-2.063-2.108-.014-.014-.036.008-.022.022.676.714 1.35 1.43 2.032 2.139.68.706 1.346 1.437 2.062 2.107a.016.016 0 0 0 .022-.022c-.644-.74-1.35-1.431-2.032-2.138m1.836-.73c-.015-.014-.037.008-.022.022 1.457 1.436 2.899 2.891 4.404 4.277a.014.014 0 0 0 .02-.019c-1.43-1.465-2.925-2.864-4.402-4.28m3.523 1.414c-.005-.006-.013.002-.008.008.855.847 1.701 1.704 2.571 2.534a.012.012 0 0 0 .017-.016c-.846-.856-1.717-1.687-2.58-2.526m4.309 1.637c-.014-.007-.026.014-.012.02l1.36.684c.012.005.021-.012.01-.017zm-60.199-61.164a28 28 0 0 0-2.396-2.014c-.813-.659-1.627-1.317-2.432-1.987a178 178 0 0 1-4.77-4.087c-.05-.043-.121.027-.073.072a165 165 0 0 0 4.755 4.234c.796.677 1.596 1.351 2.41 2.008a21 21 0 0 0 2.454 1.842.043.043 0 0 0 .052-.068m-3.326.793c-2.79-2.374-5.594-4.729-8.306-7.192-.015-.013-.037.008-.022.022 2.672 2.504 5.409 4.95 8.3 7.197.02.015.048-.01.028-.027M178.77 106.559c-2.185-.104-4.37-.224-6.555-.31-1.114-.044-2.225-.15-3.34-.191a5.3 5.3 0 0 0-1.46.132 10 10 0 0 1-1.879.156c-4.372.157-8.736.342-13.096.716q-3.763.323-7.521.695c-.032.003-.033.054 0 .051 4.393-.378 8.795-.594 13.2-.756 2.184-.08 4.367-.16 6.552-.204a63 63 0 0 1 1.607-.017c.593.003 1.151.16 1.731.192a22 22 0 0 0 3.216-.177c2.503-.24 5.032-.23 7.545-.24a.023.023 0 0 0 0-.047m49.023.941c-2.394-.246-4.788-.302-7.193-.364-2.4-.062-4.794-.18-7.193-.2-4.796-.044-9.59-.101-14.386-.206a.008.008 0 0 0 0 .015c4.797.164 9.592.374 14.386.6 2.396.113 4.793.13 7.193.202 2.402.072 4.792.15 7.193.039a.043.043 0 0 0 0-.086m-9.003-8.388a29 29 0 0 0-3.75-.054q-1.99-.013-3.978-.033l-7.953-.09a.02.02 0 0 0 0 .04l7.83.153q1.926.038 3.852.086a31 31 0 0 0 3.976.07c.09-.009.13-.157.024-.172m8.222 52.216c-2.013-.51-3.997-1.163-5.99-1.75-1.915-.564-3.832-1.123-5.746-1.694q-5.86-1.751-11.723-3.49c-3.829-1.13-7.69-2.202-11.44-3.575a20 20 0 0 0-2.742-.882c-.938-.196-1.914-.27-2.862-.428-1.879-.313-3.77-.524-5.664-.728a80 80 0 0 1-12.974-2.013.01.01 0 0 0-.006.019 70.5 70.5 0 0 0 11.108 1.94c2.015.25 4.026.516 6.019.91 1.889.373 3.69 1.013 5.572 1.384 1.973.39 3.914.806 5.849 1.357 1.899.541 3.783 1.134 5.67 1.717q5.844 1.806 11.695 3.589 3.224.984 6.443 1.985c2.222.688 4.48 1.31 6.674 2.08.265.094.392-.351.117-.42m-2.023-5.878-5.553-1.63a.008.008 0 0 0-.004.014l5.546 1.657c1.836.548 3.68 1.225 5.55 1.64a.018.018 0 0 0 .01-.034c-1.796-.67-3.71-1.107-5.55-1.647m12.679 3.414a7 7 0 0 0-.846-.229c-.284-.07-.57-.13-.856-.194l-1.713-.384c-.036-.008-.052.048-.015.057l1.736.426q.425.107.852.205a7 7 0 0 0 .835.165c.029.003.03-.037.007-.046m-1.188-2.226c-3.202-1-6.406-2.006-9.561-3.148-.015-.005-.02.017-.007.022a92 92 0 0 0 9.559 3.16.018.018 0 0 0 .01-.034M222.16 58.628c-2.38.388-4.72 1.017-7.081 1.506a17 17 0 0 1-2.193.27 8.3 8.3 0 0 0-1.516.343c-1.163.312-2.343.573-3.518.834-4.75 1.057-9.511 2.068-14.268 3.095-.022.005-.013.038.01.034 4.768-.985 9.535-1.985 14.31-2.938a95 95 0 0 1 3.566-.662 7.8 7.8 0 0 0 1.708-.37 11.6 11.6 0 0 1 1.79-.537c2.397-.523 4.835-.892 7.21-1.511.041-.011.023-.07-.019-.064m-15.988 7.545c-.017-.004-.024.022-.007.026 1.715.4 3.416.863 5.106 1.355a.016.016 0 0 0 .009-.03 41 41 0 0 0-5.108-1.351m8.347.654a25.3 25.3 0 0 0-5.118-1.301c-.012-.002-.018.016-.005.019a51 51 0 0 1 5.113 1.316c.023.007.03-.026.01-.034m4.086-.472a4.7 4.7 0 0 0-1.246-.35c-.472-.105-.942-.213-1.414-.314-.927-.2-1.859-.38-2.787-.57-.018-.004-.025.022-.008.026.917.235 1.831.481 2.75.706l1.355.324a5 5 0 0 0 1.332.244.035.035 0 0 0 .018-.066m2.058-.916a4.3 4.3 0 0 0-1.63-.461 7.7 7.7 0 0 0-1.795-.009c-.022.003-.023.037 0 .036a7.4 7.4 0 0 1 1.75.076q.414.069.819.173c.279.074.554.174.837.231a.026.026 0 0 0 .02-.046m1.167-1.292c-.027-.004-.04.037-.012.042.57.1 1.141.22 1.718.272.018.002.021-.026.005-.03-.563-.132-1.14-.198-1.711-.284m3.065-.202a.008.008 0 0 0 0 .016l.851-.002a.006.006 0 0 0 0-.012z"/></svg>