<svg xmlns="http://www.w3.org/2000/svg" data-name="Layer 2" viewBox="0 0 70.21 54.45"><g data-name="Layer 1"><g data-name="Layer_1"><g fill="currentColor" data-name="2659733518624"><path d="M49.38 21.23s-1.24-4.06-2.97-6.59c-.87-1.27-1.75-2.24-2.58-3.01s-1.62-1.35-2.34-1.82c-.58-.39-1.69-1.01-3.05-1.78-2.04-1.15-4.63-2.61-6.86-4.07-1.83-1.2-3.16-1.85-4.33-2.25-1.16-.39-2.18-.53-3.37-.69-1.94-.26-3.68-.09-5.34.06-.43.04-.86.08-1.15.1-.58.05-1.2.09-1.81.13-1.39.09-2.72.19-3.84.35-.77.12-1.44.29-2.01.57-.55.27-1.03.66-1.43 1.21-.36.49-.61 1.11-.76 1.72-.19.76-.22 1.48-.14 1.92.07.39.48 1.24.98 2.19.52.99 1.13 2.03 1.57 2.79.46.79.78 1.47 1.02 2.13s.41 1.3.57 2.06c.12.56.34 1 .59 1.34.33.45.72.72 1.04.88.27.14 1.25.03 2.38-.28.95-.26 1.98-.68 2.77-1.23.89-.62 1.5-1.19 1.94-1.83.43-.64.7-1.36.89-2.28.19-.89.21-1.91.12-2.9-.1-1.08-.34-2.12-.66-2.93-.6-1.51-2.85-3.13-2.85-3.14 3.02 1.28 4.1 2.79 4.39 5.99.1 1.08.07 2.19-.13 3.16-.21 1.03-.52 1.85-1.02 2.59s-1.19 1.38-2.16 2.07c-.88.61-2.01 1.07-3.05 1.35-1.33.37-2.56.44-3.01.22-.42-.21-.93-.57-1.36-1.14-.32-.43-.59-.98-.74-1.67-.16-.71-.32-1.32-.54-1.94-.22-.61-.52-1.24-.95-1.99-.45-.78-1.07-1.86-1.58-2.82-.53-1.01-.98-1.94-1.07-2.44-.1-.55-.06-1.41.15-2.28.17-.71.47-1.44.9-2.04.49-.67 1.07-1.14 1.76-1.47.67-.33 1.42-.52 2.27-.65 1.15-.17 2.5-.26 3.91-.36.58-.04 1.17-.08 1.8-.13.47-.04.8-.07 1.13-.1C20.17.07 21.97-.1 24 .17c1.24.17 2.3.31 3.54.73 1.23.42 2.62 1.1 4.53 2.34 2.23 1.45 4.79 2.9 6.81 4.04 1.38.78 2.51 1.41 3.1 1.81.75.5 1.58 1.1 2.45 1.91s1.79 1.83 2.7 3.16c1.55 2.25 2.03 4.48 2.25 7.09Z"/><path d="M10.71 15.15s-5.59 1.46-7.03 2.08c-.64.27-1.31 1.01-1.84 1.88-.55.91-.94 1.95-.96 2.76-.03 1.06.13 1.56.39 2.41.16.5.35 1.12.56 2.02l.29 1.25c.39 1.7.65 2.84 1.32 4.38.81 1.86 1.76 2.9 1.77 2.9l-.49.85s-1.22-1.4-2.09-3.4c-.7-1.62-.97-2.79-1.37-4.54-.08-.34-.16-.7-.29-1.25-.21-.88-.39-1.47-.54-1.96-.29-.93-.46-1.48-.43-2.69.02-.97.46-2.17 1.08-3.2.62-1.02 1.44-1.88 2.25-2.23 1.5-.64 7.14-2.12 7.16-2.12l.22.85Z"/><path d="M14.38 19.37s-3.31 1.37-5.03 2.3c-.82.44-1.65 1.21-2.3 2.08-.63.84-1.08 1.76-1.16 2.52l-.07.61c-.21 1.76-.53 4.55-.37 7.58.08 1.4.07 2.26.06 2.96 0 .99-.01 1.65.24 3.18.21 1.28.42 2.18.72 2.83.27.59.61.97 1.12 1.23.52.28 1.22.35 1.87.41.74.08 1.41.15 1.88.5.49.37.7.9.99 1.65.23.59.52 1.34 1.06 2.23.54.88 1.1 1.34 1.7 1.57.61.24 1.27.25 1.97.22.22 0 .47-.03.72-.04 1.28-.09 2.5-.18 4.03.73.83.49 1.57.87 2.32 1.14.74.27 1.5.43 2.37.49.75.05 1.91-.11 3.15-.38 1.59-.34 3.29-.84 4.43-1.26 1.05-.38 2.23-.69 3.45-.9 1.24-.22 2.55-.35 3.85-.39 1.29-.04 2.67-.23 4.01-.61 1.21-.34 2.4-.83 3.48-1.5.86-.53 1.68-1.1 2.47-1.65 1.36-.95 2.64-1.84 3.96-2.4 2.82-1.21 8.81-1.24 12.82-1.27.77 0 1.46 0 2.05-.02l.02.88c-.58.01-1.29.02-2.07.02-3.94.02-9.82.05-12.48 1.2-1.23.53-2.48 1.39-3.8 2.32-.8.56-1.63 1.13-2.51 1.67-1.15.71-2.42 1.23-3.7 1.6-1.41.4-2.86.6-4.23.64-1.25.04-2.51.16-3.73.38-1.19.21-2.31.5-3.31.86-1.17.43-2.92.94-4.55 1.29-1.3.28-2.55.45-3.39.39-.95-.07-1.78-.25-2.61-.54-.82-.29-1.61-.7-2.47-1.21-1.29-.77-2.38-.69-3.52-.61-.23.02-.46.03-.74.04-.8.03-1.57.01-2.33-.28-.76-.3-1.48-.87-2.13-1.93-.58-.95-.89-1.74-1.13-2.37-.23-.6-.4-1.04-.69-1.26-.27-.21-.83-.26-1.44-.33-.73-.07-1.51-.16-2.19-.51-.69-.36-1.15-.86-1.51-1.65-.33-.73-.56-1.7-.78-3.05-.27-1.59-.26-2.29-.25-3.33 0-.68.01-1.52-.06-2.91-.17-3.1.16-5.94.37-7.72l.07-.61c.1-.92.62-1.99 1.33-2.95.72-.96 1.65-1.83 2.59-2.33 1.78-.95 5.1-2.33 5.11-2.33z"/><path d="M11.06 40.9c1.16-2.24 2.24-6.26 2.96-8.84.33-1.17.63-2.25.99-3.14.5-1.26 1.58-1.91 2.86-2.68.54-.33 1.12-.67 1.68-1.09.9-.67 2.07-1.31 3.29-1.87 1.39-.64 2.85-1.18 4.08-1.53 1.63-.47 3.23-.56 4.6.06 1.38.62 2.48 1.93 3.09 4.25l-.85.22c-.53-2.03-1.46-3.15-2.6-3.66-1.15-.51-2.55-.42-4-.01-1.19.34-2.61.86-3.96 1.48-1.17.54-2.29 1.15-3.13 1.78-.61.45-1.2.8-1.75 1.14-1.14.69-2.1 1.27-2.49 2.25-.33.84-.63 1.89-.95 3.05-.78 2.78-1.76 6.58-3.81 8.6Z"/><path d="M30.82 16.67s-2.65 2.6-3.15 5.16l-.87-.17c.37-1.9 2.02-4.46 4.02-4.99"/><path d="M18.5 16.85s2.12-.79 3.82-.79c1.43 0 2.58.63 3.45 1.62.96 1.09 1.56 2.62 1.78 4.21l-.87.12c-.2-1.43-.73-2.79-1.57-3.74-.71-.8-1.64-1.32-2.79-1.32-1.55 0-3.51.73-3.52.73zm51.56-2.05s-10.57 1.41-12.93 1.65c-1.2.12-2.21.16-3.17.13s-1.85-.13-2.8-.3c-1.86-.32-4.22-.88-4.23-.88l.19-.86s2.31.54 4.18.87c.92.16 1.77.26 2.68.29s1.89-.01 3.05-.13c2.35-.24 12.88-1.65 12.91-1.65l.11.87Z"/><path d="M48.24 14.95s1.76 1.72 2.52 3.41c.77 1.72.49 4.55.49 4.56-.34-2.31-.54-2.79-1.17-4.2-.68-1.52-2.46-3.14-2.47-3.14zm6.71 14.01c1.13 1.65 2.71 3.94 2.9 6.43.18 2.31-1.01 5.62-2.86 7.41 1.26-1.94 2.12-5.52 1.97-7.34-.18-2.26-1.67-4.43-2.75-6-.34-.49-.63-.92-.85-1.29-.94-1.63-1.2-4.32-1.2-4.33.85 2.96 1.23 2.88 2.77 5.11ZM23.7 38.61c.7-1.5 1.44-3.53 2.01-5.09.34-.94.63-1.71.81-2.13.26-.59.73-1.14 1.27-1.63.52-.47 1.11-.9 1.65-1.26.62-.42 1.9-1.19 3.15-1.87.91-.49 1.82-.95 2.47-1.18.79-.29 1.67-.27 2.49-.05.88.24 1.72.72 2.32 1.33.55.55.95 1.32 1.22 2.17.3.95.44 2.01.44 2.97 0 .9-.1 1.76-.3 2.55-.2.77-.49 1.48-.89 2.1-.84 1.3-3.29 2.23-3.3 2.23l-.33-.82s2.2-.84 2.89-1.9c.35-.53.6-1.15.78-1.83.18-.72.27-1.51.27-2.34s-.13-1.84-.4-2.7c-.23-.72-.56-1.37-1-1.81-.5-.5-1.19-.9-1.93-1.1-.66-.18-1.35-.2-1.96.02-.59.21-1.46.64-2.35 1.13-1.23.67-2.48 1.42-3.08 1.83-.51.34-1.07.74-1.55 1.18-.46.42-.85.87-1.06 1.34-.16.37-.45 1.14-.79 2.08-.58 1.59-1.33 3.64-2.04 5.16-1.13 2.45-4.04 6.3-4.05 6.32 1.07-2.24 2.19-4.4 3.25-6.69Z"/><path d="m37.08 38.3-.43-.95c1.4-1.57 1.78-2.21 2.2-4.33.54 2.15-.62 3.98-1.77 5.27Z"/><path d="M36.93 41.39c-.21.27-1 1.01-1.86 1.76-1.05.92-2.21 1.9-2.49 2.07.94-1.63 2.46-2.82 3.65-4.37.33-.42.33-.88.33-1.99 0-1.2-.07-3.26-.07-3.26.72 1.23 1.32 4.65.44 5.79"/><path d="M37.1 41s.42 2.04.07 3.81c-.34 1.7-.8 3.53-2.05 4.68 0 0 .95-2.81 1.28-4.47.32-1.59-.17-3.85-.17-3.86l.87-.17Zm3.2-12.44c1.27-.99 4.16-2.18 5.75-1.96-2.58.55-5.2 2.65-5.21 2.66zm-.47-3.47c3.56-1.01 5.18-3.78 5.18-3.78-.47 2.64-2.63 3.99-5.18 3.78m7.63 13.36s-.7-1.71-1.99-2.54-2.28-.68-2.28-.68c2.63-1.26 3.98.89 4.27 3.22m7.47-12.97s7.05-.66 10.64-1.06c-.95.72-9.84 2.35-10.64 1.06m2.79-2.25c1.79-.14 5.56-.49 8.24-.27-.01 0-5.65.76-8.19.96-3.26.26-4.13-.5-4.13-.5 1.44-.02 2.61-.07 4.08-.19M23.04 7.5c0 1.96-.89 3.81-.89 3.82l-.81-.36s1.02-2.27 1.02-4.04-.67-2.87-.67-2.87c.9.91 1.35 2.11 1.35 3.46Zm-2.03 7.71-.29-.83c2.61-.92 4.48-3.95 4.48-3.96-.2 2.21-2.16 4.08-4.19 4.8Zm34.96 15.52-.41.63c-1.88-2.67-6.31-3.38-6.32-3.38 2.78.11 4.91.18 6.73 2.75M26.86 5.57c-.17 1.53-.52 2.5-1.36 3.67 0 0 .64-1.5.78-3.16.14-1.69-.08-3.11-.08-3.11.43.98.71 1.52.66 2.61Zm-16.65 8.29c.15-1.14.58-2.38 1.28-3.38.6-.85 1.41-1.54 2.42-1.84.46-.14.87-.15 1.23-.05.38.11.69.35.93.69.19.28.46.76.7 1.23.27.54.51 1.07.57 1.29.09.3-.03.57-.23.81-.17.2-.39.37-.61.53l-.25.17c-.65.44-2.17 1.45-2.94 2.54l-.22.32c-.77 1.11-.96 1.37-1.4 1.52l-.19-.52c.28-.1.44-.33 1.13-1.32l.22-.32c.83-1.18 2.4-2.23 3.08-2.68l.24-.16c.18-.13.38-.28.5-.43.09-.11.15-.22.12-.31-.06-.19-.28-.69-.54-1.19-.23-.46-.48-.91-.66-1.17-.16-.24-.38-.4-.63-.47s-.56-.06-.92.05c-.89.27-1.6.87-2.13 1.63-.65.93-1.04 2.08-1.19 3.14l-.55-.07ZM7.58 7.13c.79-.4 1.17-.84 1.78-1.43.34-.33.69-.69.95-.99.29-.32 1.41-1.25 1.86-1.05-.37.25-1.12.97-1.45 1.34-.27.3-.63.76-.98 1.1-.59.58-1.34.99-2.17 1.04Zm3.54-4.2c-1.58.89-2.5 1.54-3.33 3.2-.06-1.83 1.79-2.83 3.33-3.2M2.49 17.39s.83.4 1.38.87c.72.63 1.26 1.35 1.53 2.26-.69-1.19-1.96-2.04-3.16-2.64zM.83 21.03c1.14 1.03 1.95 1.67 3.53 2.07-.81.11-1.66-.13-2.39-.5-.69-.35-1.51-1.17-1.51-1.17l.37-.41Zm4.03 1.39s-.46-.52-.99-.92-1.76-1.1-1.77-1.1c1.21.03 2.46.83 2.75 2.03Zm23.75-11.85c-.68.55-1.47 1.29-2.7 1.52 0 0 1.36-.81 2.3-1.83.93-1.01 1.76-3.14 1.77-3.15-.13 1.46-.7 2.63-1.36 3.45Z"/><path d="M36.59 41.42s-.67 2.48-1.11 3.35c-.43.87-1.64 1.54-2.46 2.11 0 0 1.57-1.57 1.96-2.36.4-.8.77-2.81.77-2.82l.83-.29Zm2.77-4.64s1.74 1 2.57 2.13c.51.7.97 3.02.57 3.77 0-.25-.01-.82-.12-1.45-.1-.63-.39-1.23-.76-1.73-.76-1.04-2.94-1.98-2.95-1.99l.68-.73Zm15.15 4.62c-.17 1.03-1.11 2.63-2.07 3.09.05-.1.12-.22.22-.37.37-.61 1.08-1.76 1.31-3.16.28-1.74-.2-3.27-.2-3.28.59 1.01 1.03 1.99.75 3.72ZM37.9 50.26c-.47 1.26-1.34 1.88-1.35 1.89l-.41-.37s.77-.87 1.21-2.03c.44-1.19.74-3.07.74-3.08.07.82.24 2.41-.2 3.6Zm-6.53-19.32c.99.52 1.73 1.58 2.16 2.63 0 0-1.51-1.69-2.52-2.22-1.03-.54-2.19-.84-2.2-.84.87-.21 1.74 0 2.56.43m-2.65.53c1.33 1.08 1.84 1.41 3.55 1.95-1.46.13-3-.53-3.55-1.95m-.37 1.51s1.2.97 2.22 1.36 2.29.44 2.29.44c-1.53.42-3.82-.24-4.51-1.8m-5.75-2.5c-.45-.72-2.11-2.19-4.14-2.78 1.65.02 3.5.62 4.14 2.78m-2.17-.36c.94.67 1.27 1.16 1.53 1.81 0 0-.85-.72-1.89-1.46-1.03-.74-2.89-1.56-2.89-1.56 1.18.02 2.28.53 3.25 1.22Zm-3.65.26s.93.97 1.69 1.3c.68.3 1.62.95 2.37 1.06-1.42-.01-3.94-.65-4.06-2.37Zm-3.94-4.65s-.6-.53-1.47-1.23c-.86-.69-2.43-1.34-2.44-1.34 1.73.04 3.35.88 3.91 2.57M8.37 24.2s1.04 1.24 1.86 1.77c.83.54 1.72.88 1.72.89-1.86 0-2.95-1.02-3.59-2.65Zm-1.12 1.74s.83 1 1.7 1.48c.88.49 2.11.71 2.12.71-1.76.28-3.22-.47-3.81-2.19Zm12.85-9.37-.02-.55c1.01-.04 2.3-.45 3.5-.95 1.69-.71 3.18-1.61 3.43-1.95-1.08 2.08-4.64 3.36-6.91 3.46ZM58.6 37.1c.31-2.27-.7-4.3-.7-4.31 1.14 1.3 1.62 2.73.7 4.31"/></g></g></g></svg>