<svg xmlns="http://www.w3.org/2000/svg" data-name="Layer 2" viewBox="0 0 74.34 82.68"><g data-name="Layer 1"><g data-name="Layer_1"><g fill="currentColor" data-name="2659730679312"><path d="M26.26 36.03c-.16.02-.33.03-.52.04-.76.04-1.88.11-2.11.38l-.67-.57c.47-.55 1.82-.63 2.73-.68.2-.01.38-.02.49-.03l.08.88Zm-2.59 3.13c.68.39 2.91 2.74 2.92 2.75l-.64.61s-2.17-2.27-2.73-2.59c-.33-.19-1.03-.5-1.83-.76-.6-.19-1.24-.36-1.8-.42-1.28-.14-2.71.43-2.71.43 1.72-1.85 4.84-1.15 6.78-.02Z"/><path d="m23.74 35.85.05.11v.11s-.16 2.64.08 3.39l-.84.26c-.24-.78-.16-3-.13-3.57-1.21-1.96-3.03-4.15-4.43-6.06 1.79 1.43 4.25 3.71 5.27 5.76m3.69 5.16s-.71-3.4-1.1-4.27c-.44-1.01-.44-1.02-.44-1.62 0-1.81 1.92-7.05 4.24-8.45-1.02 1.37-3.35 6.99-3.35 8.45q0 .42.37 1.26c.43 1.01 1.15 4.45 1.15 4.46z"/><path d="M31.91 37.1c-1.49 2.02-3.25 3.85-5.3 5.18-.97.63-2.12 1.49-3.14 2.35-.96.8-1.79 1.6-2.25 2.17l-.69-.55c.49-.62 1.38-1.46 2.37-2.3 1.05-.89 2.24-1.78 3.23-2.42 1.95-1.27 3.63-3.01 5.07-4.96 1.45-1.96 2.65-4.12 3.66-6.21-.1 2.11-1.71 5.05-2.95 6.73Zm1.23 37.18c2.37.68 7.33 2.11 8.39 4.38-2.25-1.72-8.61-3.53-8.63-3.53zm-1.16-51.3s-1.84.5-3.55.7c-.9.11-2.61.27-4.41.42-1.56.13-3.22.25-4.51.32-1.14.06-2.05.3-2.78.62-.89.4-1.49.92-1.86 1.42-.46.61-.6 1.88-.73 3.02-.05.47-.1.92-.18 1.32l-.11.58c-.27 1.44-.71 3.78-.92 5.61l-.88-.1c.22-1.85.66-4.21.93-5.67l.11-.58c.07-.35.11-.79.17-1.26.14-1.25.3-2.65.9-3.45.45-.6 1.16-1.23 2.2-1.69.81-.36 1.83-.63 3.09-.7 1.23-.07 2.89-.19 4.48-.32 1.81-.15 3.5-.31 4.38-.41 1.63-.19 3.76-.82 3.76-.82l-.11 1Z"/><path d="M32.9 11.88c-.16 1.4 0 2.83.16 4.28.2 1.75.4 3.53.05 5.36-.12.65-.43.98-.83 1.39-.65.67-1.53 2.4-1.74 3.24.09-3.01 1.5-3.97 1.68-4.92.32-1.69.16-3.27-.03-4.97-.17-1.5-.33-2.98-.16-4.48l.88.1Z"/><path d="M26.52 10.13s1.33.79 2.8 1.04c.74.13 1.57.19 2.27.19 2.03 0 3.02-.99 4.58-2.18-.43.98-2.03 2.49-2.77 2.83-.35.16-1.02.24-1.8.24s-1.62-.07-2.42-.21c-1.62-.28-3.1-1.16-3.11-1.16l.46-.75ZM16.07 46.24s2.64.4 4.64.3 4.99-.86 5-.86c-1.98 1.68-7.72 2.65-9.64.56m33.14-16.48c.71 2.8.48 5.6.23 8.72-.14 1.75-.28 3.55-.26 5.37-.73-1.66-.63-4.18-.49-5.98.24-3.05.28-5.68-.39-8.35l.92.23Z"/><path d="M20.88 47.06s-2.27-1.49-3.94-2.53a11.4 11.4 0 0 1-1.82-1.46c-.79-.78-1.34-1.53-1.52-1.84-.14-.23-.3-.74-.51-1.39-.32-.97-.73-2.26-1.19-3.03-.37-.62-.83-1.14-1.38-1.51-.5-.34-1.06-.56-1.67-.6-.58-.04-1.14.13-1.59.42-.46.3-.79.73-.91 1.19l-.09.34c-.27 1.04-.54 2.11-.89 2.64-.18.28-.61.71-1.11 1.15-.59.52-1.29 1.09-1.76 1.41-.32.23-.61.59-.86 1-.31.52-.55 1.12-.73 1.7-.1.33-.03.77.12 1.21.25.76.71 1.49.93 1.8.14.19 1.17 1.37 2.53 2.94 2.31 2.65 5.56 6.4 7.14 8.37 1.22 1.52 2.3 2.62 3.29 3.43.98.8 1.86 1.31 2.7 1.65.79.32 2.04 1.39 3.58 2.69 2.14 1.82 4.85 4.11 7.4 5.36.94.46 1.73.84 2.39 1.16 2.46 1.18 3.33 1.59 5.14 3.08 1.89 1.57 4.95 5.21 5.94 6.41h-1.15c-1.26-1.5-3.75-4.41-5.36-5.73-1.73-1.43-2.57-1.83-4.95-2.97-.66-.32-1.44-.69-2.4-1.16-2.65-1.3-5.41-3.63-7.59-5.48-1.48-1.25-2.69-2.28-3.34-2.55-.91-.38-1.88-.93-2.93-1.78-1.04-.84-2.16-1.99-3.42-3.57-1.54-1.92-4.8-5.68-7.12-8.34-1.38-1.59-2.43-2.79-2.58-3-.25-.35-.77-1.18-1.06-2.04-.19-.59-.28-1.2-.12-1.73.19-.63.46-1.31.82-1.9.31-.52.68-.97 1.11-1.27.44-.31 1.11-.85 1.68-1.35.45-.4.82-.77.95-.97.27-.42.52-1.41.78-2.39l.09-.34c.18-.68.65-1.29 1.28-1.71.6-.39 1.34-.61 2.13-.56.77.05 1.48.32 2.1.75.65.45 1.21 1.06 1.64 1.79.5.85.94 2.19 1.27 3.21.19.59.34 1.06.43 1.2.17.28.66.94 1.39 1.66.47.46 1.03.94 1.67 1.34 1.73 1.09 3.94 2.54 3.95 2.54l-.48.74Zm5.48-36.2-.02.02s-2.85 1.98-5.94 2.2c-1.37.1-2.69-.15-3.79-.55-1.43-.51-2.51-1.3-2.91-1.93-.33-.53-.43-1.15-.4-1.72.04-.74.32-1.44.62-1.74.27-.27 1.28-.83 2.32-1.41.81-.45 1.65-.91 2.14-1.24.63-.42 1.99-1.36 3.21-2.23.93-.67 1.78-1.29 2.16-1.6.52-.46 1.27-.64 2.07-.66.75-.02 1.56.09 2.3.22.39.07 1.16.23 2.11.43 2.53.52 6.35 1.31 7.65 1.42.93.08 1.87.22 2.71.48.88.28 1.64.69 2.15 1.32.5.62.78 1.49.94 2.35.15.83.19 1.66.22 2.25.03.67.88 4.92 1.92 9.28.72 3.02 1.52 6.07 2.18 7.98.83 2.39 1.61 5.33 2.3 8.33s1.3 6.06 1.8 8.71c.26 1.38.5 2.87.74 4.37.67 4.17 1.37 8.49 2.65 11.53.72 1.71 1.17 2.84 1.51 3.69.51 1.28.77 1.93 1.23 2.77.38.7 3.18 3.54 6 6.4 2.46 2.5 8.87 9.58 10.12 11.12H73.2c-1.9-2.21-7.38-8.25-9.6-10.5-2.86-2.91-5.71-5.79-6.14-6.6-.47-.88-.74-1.55-1.27-2.86-.35-.88-.82-2.04-1.51-3.68-1.32-3.14-2.03-7.51-2.71-11.73-.24-1.49-.48-2.95-.74-4.35-.5-2.64-1.1-5.7-1.79-8.68s-1.45-5.89-2.27-8.24c-.68-1.96-1.49-5.04-2.21-8.07-1.04-4.4-1.91-8.73-1.94-9.44-.03-.57-.06-1.36-.21-2.13-.13-.74-.36-1.46-.76-1.95-.39-.48-1-.81-1.73-1.03-.76-.24-1.65-.37-2.52-.44-1.33-.12-5.19-.91-7.75-1.44-.94-.19-1.71-.35-2.09-.42-.69-.13-1.44-.23-2.12-.21-.62.02-1.18.14-1.55.44-.4.33-1.27.97-2.21 1.64-1.23.88-2.6 1.83-3.23 2.25-.5.33-1.37.81-2.21 1.28-.98.54-1.93 1.07-2.12 1.26-.17.17-.34.63-.37 1.16-.02.41.05.85.27 1.21.31.49 1.23 1.13 2.46 1.58 1 .36 2.19.58 3.43.5 2.79-.2 5.38-1.96 5.49-2.04.95-.86 1.18-3 1.21-4.22.55 1.31.76 3.75-.68 4.92Z"/><path d="M5.1 38.59s1-.7 1.31-1.23c.11-.18.21-.54.31-.93.17-.73.29-1.56.31-1.73l.55.07c-.02.18-.15 1.04-.33 1.8-.1.44-.23.85-.37 1.09-.38.64-1.46 1.4-1.47 1.4l-.32-.45ZM19.15 4.6s.5.73.16 1.27c-.14.23-.89.79-1.68 1.31-.81.54-1.68 1.05-1.99 1.14-.62.18-1.15-.39-1.4-.65l-.06-.07.31-.46s.09.08.16.15c.18.19.55.59.85.5.26-.08 1.07-.56 1.84-1.08.73-.49 1.42-.99 1.51-1.14.15-.23-.16-.69-.16-.69l.47-.29ZM1.74 45.7c.42-.28 1.19-1.15 1.49-1.56.35-.47.72-1.13.72-1.13-.07 1.33-.9 2.42-2.21 2.69m25-.07c1.69-.66 2.9-2.2 3.93-3.63.57-.8 1.12-1.67 1.5-2.51.12 1.16-1.39 3.33-2.54 4.68.53-.27 1.01-.54 1.28-.76.91-.74 2.08-1.92 2.08-1.93-1.15 2.25-3.72 4.01-6.24 4.14Zm-.52 2.1s1.93 1.15 4.28 1.33c-1.49.4-3.39.04-4.28-1.33m13.56 4.6c1.86-1.76 2.62-4.19 2.76-5.48.51 2.91-1.24 4.55-2.76 5.48m-7.45-30.32c.97 0 1.99.27 2.68.96-1.57-.52-2.64-.41-2.64-.41zm.3-.71s2.87-.43 3.9-2c-.43 1.48-2.64 2.6-3.92 2.56l.02-.55Zm9.02-17.68s-1.3.89-1.94 2.87c.1-1.49.21-2.38 1.64-3.33l.31.46Zm1.45 1.44c-.67 1.01-1.4 1.14-2.47 1.31.96-.42 2.01-1.61 2.01-1.61l.46.31ZM17.27 64.03s2.33.38 4.95.93c1.34.28 3.24.93 3.99 2.17-1.5-.83-6.18-1.84-8.19-2.12l-.76-.99ZM14.39 43.1c-1.2-.57-3.33-.36-3.34-.36 1.13-.48 2.9-.65 3.34.36m-.21-2.38-.42.35c-.66-.78-3.01-1.08-3.01-1.08 1.09-.18 2.68-.18 3.44.73Zm14.52-.28-.85-.25c1.37-1.85 2.75-8.05 2.75-8.07.45 1.81-.88 6.95-1.9 8.32M43.55 7.9c-.88.49-3.91.81-4.77.34 2.62 0 4.39-1.02 4.39-1.02l.38.67ZM2.76 45.94c1.49-.5 2.49-2.42 3.07-3.73.36 1.88-1.33 3.44-3.07 3.73m14.18-21.8s.85.21 1.22.64c.5.59.7 2.03.55 2.46 0 0-.76-1.63-1.02-1.93-.22-.25-1-.52-1-.52l.24-.65Zm-2.68 2.73c.3.25 1.15 1.04 2.17 1.34-1.02.6-2.29-.31-2.45-.46zm1.85-2.04c.52.3.95 1.29.92 1.88-.46-1-1.3-1.21-1.3-1.21z"/></g></g></g></svg>