<svg xmlns="http://www.w3.org/2000/svg" data-name="reel" viewBox="0 0 511.83 400.487"><path fill="currentColor" d="M511.751 305.644a81.4 81.4 0 0 1-15.578-13.277 158 158 0 0 1-12.94-16.1 364 364 0 0 1-5.822-8.56c-1.929-2.906-3.775-5.89-5.982-8.598a22.4 22.4 0 0 0-8.175-6.422 43.5 43.5 0 0 1-5.085-2.461 21 21 0 0 1-4.112-3.52c-1.274-1.357-2.465-2.788-3.72-4.163q-.707-.773-1.411-1.549c-1.257-2.212-2.365-4.505-3.638-6.71a223 223 0 0 0-4.108-6.788q-4.249-6.786-8.379-13.645-8.254-13.717-15.982-27.739c-5.131-9.296-10.14-18.66-15.326-27.926-5.152-9.207-10.492-18.31-16.253-27.152a280 280 0 0 0-8.883-12.882c-.563-.766-1.14-1.52-1.717-2.275-.594-1.302-1.173-2.61-1.824-3.886-1.007-1.975-2.01-3.949-2.96-5.953-1.758-3.714-3.257-7.564-5.351-11.11a28.1 28.1 0 0 0-7.835-8.611 46 46 0 0 0-10.146-5.264c-3.909-1.536-7.922-2.828-11.936-4.059a182 182 0 0 0-13.099-3.512q-3.277-.743-6.586-1.338c-2.22-.397-4.453-.74-6.648-1.269-4.3-1.034-8.133-3.26-12.341-4.555a38.4 38.4 0 0 0-12.286-1.666 31.7 31.7 0 0 0-5.673.645c-4.549-1.37-9.263-1.825-13.96-2.42q-7.22-.913-14.447-1.769c-9.589-1.135-19.185-2.213-28.794-3.165q-7.171-.71-14.345-1.387c-4.426-.414-9.243-1.288-13.524.343-2.049.781-3.923 1.945-5.902 2.879-2.076.98-4.217 1.81-6.377 2.582-4.43 1.584-8.91 3.031-13.368 4.533q-6.898 2.322-13.79 4.658a125 125 0 0 1-13.144 3.843q-.66.147-1.319.287c-.237-.125-.468-.26-.707-.383-6.59-3.356-14.022-5.457-21.466-5.066a33.3 33.3 0 0 0-18.305 6.553 25.98 25.98 0 0 0-10.21 16.98 30 30 0 0 0-.293 3.92 13.4 13.4 0 0 0-3.429 4.053 24 24 0 0 0-2.542 5.705 23.36 23.36 0 0 0-.353 12.098 24.4 24.4 0 0 0 5.604 10.574 25.06 25.06 0 0 0 10.476 6.766 43.5 43.5 0 0 0 7.273 1.783 37 37 0 0 0 3.782.407 15 15 0 0 0 1.929.012c.226-.016.443-.02.662-.028q7.17 7.455 14.375 14.878 1.025 1.062 2.046 2.13a28.9 28.9 0 0 0-.065 10.896 30.6 30.6 0 0 0 4.096 10.892 52.6 52.6 0 0 0 7.197 9.03 89 89 0 0 0 8.706 7.925 44.5 44.5 0 0 0 8.399 5.576 35 35 0 0 0-.056 7.058 57 57 0 0 0 .824 7.825 28.5 28.5 0 0 0 6.413 13.596 65 65 0 0 0 10.856 9.473 60 60 0 0 0 .274 10.824 39.5 39.5 0 0 0 2.442 10.83 26.1 26.1 0 0 0 6.418 9.405 127 127 0 0 0 10.29 8.098l11.104 8.417 5.551 4.21c1.726 1.308 3.421 2.687 5.245 3.86a15.05 15.05 0 0 0 5.83 2.282c2.204.348 4.453.441 6.676.614 4.411.344 8.822.722 13.241.961 2.385.129 4.78.214 7.177.234a13 13 0 0 1 1.481 1.416 31 31 0 0 1 2.062 2.82c1.416 2.024 2.667 4.148 3.937 6.265 2.815 4.694 5.658 9.374 8.66 13.952a158.7 158.7 0 0 0 20.15 25.084 236 236 0 0 0 23.93 20.695 270 270 0 0 0 25.81 17.791q6.722 4.004 13.782 7.396a136 136 0 0 0 7.033 3.145c2.419.997 4.895 1.816 7.363 2.678 1.218.425 2.457.795 3.693 1.166.212.063.286-.247.09-.324a198 198 0 0 1-28.08-13.877 279 279 0 0 1-25.9-17.446 256 256 0 0 1-24.067-20.14 154.5 154.5 0 0 1-20.616-24.507 228 228 0 0 1-2.915-4.419c-.14-.768-.32-1.529-.462-2.296q-.246-1.339-.419-2.688c-.001-.01-.017-.01-.015 0q.148 1.305.36 2.602c.125.748.257 1.504.444 2.243q-1.63-2.53-3.215-5.09c-.411-2.88-.928-5.742-1.407-8.612-.462-2.766-.806-5.58-1.358-8.337.895-.098 1.787-.22 2.677-.355.045 1.048.22 2.095.363 3.133.163 1.18.32 2.362.496 3.54.357 2.393.727 4.78 1.196 7.154.01.05.097.04.092-.013-.208-2.347-.508-4.68-.826-7.014-.161-1.18-.337-2.359-.51-3.537-.163-1.1-.29-2.221-.558-3.303a58 58 0 0 0 3.433-.65 21 21 0 0 0 .145 2.212q.122 1.348.258 2.696.271 2.696.611 5.384.325 2.586.7 5.165c.123.853.248 1.706.39 2.556a17.3 17.3 0 0 0 .528 2.775.055.055 0 0 0 .108-.014 17 17 0 0 0-.318-2.468l-.394-2.682q-.407-2.784-.755-5.577-.336-2.69-.63-5.384-.14-1.286-.268-2.574c-.07-.7-.114-1.422-.25-2.118.649-.143 1.297-.282 1.94-.452a30 30 0 0 0 2.271-.715 135 135 0 0 0 1.316 14.732c.63 4.85 1.375 9.686 2.275 14.494.255 1.366.539 2.725.831 4.083a36 36 0 0 0 1.037 4.158c.017.05.105.047.1-.014-.21-2.399-.786-4.799-1.206-7.17a511 511 0 0 1-1.266-7.376c-.8-4.94-1.456-9.902-2.028-14.874-.31-2.691-.589-5.384-.964-8.065l.367-.127q.676.602 1.346 1.208c11.27 10.23 21.499 21.58 33.202 31.337a113 113 0 0 0 18.575 12.838 100.7 100.7 0 0 0 19.289 7.885 54 54 0 0 0 4.763 2.888 85.8 85.8 0 0 0 26.011 9.39c1.686.305 3.394.565 5.102.712 1.733.149 3.455.148 5.191.167.162.002.21-.269.04-.292-2.988-.407-5.972-1.014-8.936-1.58a101 101 0 0 1-8.886-2.088 94 94 0 0 1-17.018-6.73 66 66 0 0 1-2.701-1.48 122.6 122.6 0 0 0 43.996 3.098c1.849-.205 3.684-.438 5.52-.743.192-.031.146-.344-.046-.337-7.625.27-15.25.448-22.874.028a136 136 0 0 1-22.643-3.103 103.4 103.4 0 0 1-21.322-7.25 101.5 101.5 0 0 1-19.014-11.854c-11.898-9.284-22.12-20.453-33.069-30.789-5.282-4.986-10.907-9.601-16.123-14.657-5.139-4.982-9.83-10.52-12.688-17.148a77.6 77.6 0 0 1-3.628-11.516c-1.02-3.974-2.069-7.925-3.393-11.81a174 174 0 0 0-9.95-22.68c-.936-1.836-1.86-3.672-2.844-5.483-.057-.106-.246-.033-.2.084 2.518 6.327 5.34 12.531 7.76 18.896a115 115 0 0 0-2.872-4.717 108 108 0 0 0-6.583-9.232 84.5 84.5 0 0 0-16.491-15.663 156.4 156.4 0 0 0-19.768-11.77 87 87 0 0 0-11.044-4.852c-.917-.32-1.842-.629-2.735-1.014-.793-.342-1.544-.759-2.3-1.17a.088.088 0 0 0-.011-.135c-3.668-2.237-7.487-4.208-11.257-6.271a331 331 0 0 1-11.224-6.402 97 97 0 0 1-10.179-6.758 92 92 0 0 1-9.091-8.482q-9.136-9.427-18.227-18.898c-5.482-5.684-11.149-11.3-15.695-17.787-4.35-6.21-7.62-13.324-8.116-20.977a26.8 26.8 0 0 1 1.433-10.87 23.3 23.3 0 0 1 5.033-8.062 30.36 30.36 0 0 1 16.556-8.661 37.5 37.5 0 0 1 20.497 2.513c1.172.467 2.311.996 3.435 1.55a.31.31 0 0 0 .276.204l.123-.002a65.6 65.6 0 0 1 14.865 10.637 100 100 0 0 0 9.4 8.126 69.6 69.6 0 0 0 9.553 5.763c-1.941-.521-3.906-.932-5.85-1.454a.027.027 0 0 0-.014.053c1.974.73 3.889 1.597 5.871 2.305s3.997 1.316 5.952 2.099c3.428 1.373 6.954 2.582 10.26 4.236a34.6 34.6 0 0 1 9.005 6.67c2.7 2.698 5.256 5.526 8.146 8.03a84 84 0 0 0 10.554 7.58c.127.079.229-.111.115-.196a99 99 0 0 1-8.912-7.704 92 92 0 0 1-2.341-2.305c2.131 1.316 4.289 2.592 6.441 3.866q5.794 3.43 11.654 6.752 11.782 6.657 23.605 13.24a106 106 0 0 0 11.394 5.948c3.962 1.623 8.163 2.164 12.36 2.835a90 90 0 0 1 12.732 3.123c2.02.634 4.03 1.314 6.097 1.778a29 29 0 0 0 6.468.661c4.345-.01 8.67-.417 13.017-.23a93 93 0 0 1 12.952 1.53c1.052.197 2.094.46 3.135.71a.164.164 0 0 0 .087-.317 61.5 61.5 0 0 0-12.383-3.018 89 89 0 0 0-12.919-.532 54 54 0 0 1-6.55-.192 33.4 33.4 0 0 1-6.23-1.307c-2.132-.641-4.25-1.31-6.38-1.932a11.8 11.8 0 0 0 2.39-.746 15.76 15.76 0 0 0 5.646-4.375c1.583-1.84 2.964-3.846 4.405-5.796 1.334-1.805 2.682-3.6 4.063-5.369a110 110 0 0 1 18.875-19.393 60 60 0 0 1 6.197-4.213 64 64 0 0 1 6.6-3.572c.139-.061.04-.285-.102-.242a43 43 0 0 0-6.16 2.24 51.5 51.5 0 0 0-5.753 3.255 65 65 0 0 0-10.258 8.36 104 104 0 0 0-5.34 5.72q.023-.096.048-.191a70 70 0 0 1 2.02-7.342 61.4 61.4 0 0 1 7.769-14.221c1.752-2.498 3.424-5.057 5.223-7.52.021-.03-.026-.066-.049-.039-1.72 2.047-3.543 4.002-5.175 6.122a84 84 0 0 0-4.608 6.61 55 55 0 0 0-3.787 6.937 42 42 0 0 0-2.483 7.532 35 35 0 0 1-1.054 3.839c-.174.49-.381.966-.581 1.445-3.2 3.907-6.215 7.967-9.209 12.04a26.4 26.4 0 0 1-5.453 5.846 11.7 11.7 0 0 1-3.557 1.807c-.84.25-1.728.283-2.572.46a66 66 0 0 0-3.213-.758c-1.602-.332-3.22-.583-4.84-.83a.26.26 0 0 0 .18-.103c.185-.227-.016-.51-.226-.63-.154-.087-.2-.108-.268-.28a12 12 0 0 0-.189-.447 22 22 0 0 0-1.909-3.463c-.089-.132-.302-.011-.215.126a16.5 16.5 0 0 1 1.339 2.517c.172.42.324.845.472 1.274a1.2 1.2 0 0 0 .267.553 1.3 1.3 0 0 0 .219.14l.041.035a.26.26 0 0 0 .158.257c-1.49-.228-2.98-.456-4.457-.747-1.792-3.256-3.7-6.442-5.379-9.764a169 169 0 0 1-5.251-11.355c-.012-.027-.056-.016-.046.013a118 118 0 0 0 4.938 11.283 91 91 0 0 0 5.53 9.779 38 38 0 0 1-2.924-.697 27 27 0 0 1-1.295-.407c.006-.01.016-.018.009-.032-.795-1.579-1.749-3.087-2.612-4.63q-1.297-2.32-2.478-4.702a114 114 0 0 1-4.36-9.919c-.025-.065-.13-.038-.106.029a101 101 0 0 0 4.135 9.816q1.166 2.389 2.45 4.718a39 39 0 0 0 2.88 4.694 57.5 57.5 0 0 1-9.34-4.523c-.902-1.914-1.986-3.756-2.92-5.654a161 161 0 0 1-2.965-6.337c-.009-.02-.044-.006-.036.015a101 101 0 0 0 2.766 6.321 58 58 0 0 0 2.853 5.485l-.368-.206q-3.24-1.814-6.482-3.624c-.082-.498-.17-.996-.24-1.498a21 21 0 0 1-.19-3.386 23.4 23.4 0 0 1 1.148-6.461 42.8 42.8 0 0 1 5.81-11.403c1.203-1.735 2.505-3.395 3.855-5.018a47 47 0 0 0 4.006-5.246 29.6 29.6 0 0 0 2.627-6.239 47 47 0 0 1 2.491-5.961c1.077-2.17 2.274-4.275 3.407-6.415a48 48 0 0 0 1.552-3.157c.48-1.095.806-2.227 1.194-3.355.02-.057-.075-.099-.1-.042-.437.998-1.029 1.922-1.56 2.872a99 99 0 0 1-1.654 2.84c-1.117 1.854-2.303 3.665-3.43 5.512a43 43 0 0 0-3.01 5.727 67 67 0 0 1-2.707 6.362 34 34 0 0 1-3.923 5.366c-1.394 1.666-2.753 3.36-4.016 5.128a42.2 42.2 0 0 0-4.232 7.246 2.4 2.4 0 0 0-.424-.093 39 39 0 0 0-4.526.035 56.2 56.2 0 0 1-17.839-3.046 54.6 54.6 0 0 1-9.2-4.147 21 21 0 0 1-3.998-2.66 6.1 6.1 0 0 1-1.351-1.69 4.4 4.4 0 0 0-.52-.927c-.133-.155-.257-.277-.364-.413a26.4 26.4 0 0 0 5.24-7.668c3.335-6.912 4.537-14.654 4.925-22.255.11-2.148.147-4.3.136-6.451a31 31 0 0 0-.427-6.459c-.021-.097-.186-.104-.203 0a36 36 0 0 0-.25 5.365 128 128 0 0 1-.172 5.47 75 75 0 0 1-1.34 11.068 51.2 51.2 0 0 1-3.214 10.341 29.3 29.3 0 0 1-5.574 8.902 12.56 12.56 0 0 1-4.805 3.155 10.3 10.3 0 0 1-2.867.556q-.384.014-.767.05a32 32 0 0 0-6.975-5.225 45 45 0 0 0-10.454-4.01c-.59-.148-1.173-.308-1.759-.462-.633-.414-1.241-.907-1.862-1.308a70 70 0 0 0-2.62-1.625c-1.805-1.059-3.64-2.066-5.43-3.151a67.4 67.4 0 0 1-10.023-7.428c-3.052-2.73-5.998-5.562-9.252-8.055a64 64 0 0 0-7.228-4.809c1.064-.11 2.124-.27 3.191-.487a63 63 0 0 0 6.545-1.799c4.518-1.44 9.007-2.979 13.504-4.487l13.61-4.565a84.6 84.6 0 0 0 12.494-5.037 18.7 18.7 0 0 1 6.286-2.38 30 30 0 0 1 6.577.125q7.172.662 14.338 1.394 14.34 1.455 28.66 3.124 7.16.832 14.312 1.72 3.611.448 7.22.911 1.805.232 3.609.467c1.157.15 2.305.197 3.468.279.413.028.824.034 1.235.044a39 39 0 0 0-4.152 1.358 11 11 0 0 0-1.23.647c-.445.247-.93.422-1.398.624-.044.02-.013.095.033.079a10 10 0 0 1 1.363-.43c.549-.106 1.093-.147 1.638-.278 1.002-.242 2.005-.49 3.018-.686a47 47 0 0 1 6.075-.607 41.3 41.3 0 0 1 12.108.886 38 38 0 0 1 5.837 1.917c2.028.846 4.016 1.796 6.1 2.5 4.135 1.396 8.541 1.838 12.8 2.71a187 187 0 0 1 25.24 7.166c7.003 2.496 14.088 5.787 18.485 12.05a66.6 66.6 0 0 1 5.57 10.588 129 129 0 0 0 2.04 4.245 70 70 0 0 0-2.141-2.687c-.843-.995-1.733-1.948-2.58-2.941-.026-.03-.078.01-.055.043 1.47 2.167 2.861 4.373 4.371 6.516 1.486 2.11 2.973 4.214 4.388 6.373q4.279 6.53 8.534 13.076 8.56 13.183 16.276 26.885c5.23 9.241 10.248 18.6 15.353 27.91q7.664 13.977 15.789 27.69 4.096 6.88 8.317 13.683c1.394 2.248 2.773 4.51 4.23 6.719 1.092 1.658 2.263 3.252 3.434 4.848-2.487-2.785-4.927-5.609-7.462-8.351q-1.054-1.14-2.1-2.289c-.027-.029-.08.01-.056.043 2.544 3.313 5.07 6.633 7.67 9.902 2.606 3.274 5.067 6.669 7.722 9.902a24.9 24.9 0 0 0 8.374 7.058c1.701.813 3.475 1.477 5.115 2.416a18.3 18.3 0 0 1 4.009 3.174 55 55 0 0 1 6.178 8.315 462 462 0 0 0 5.83 8.662 139.5 139.5 0 0 0 12.882 16.43 69.7 69.7 0 0 0 15.995 12.716c.762.437 1.558.819 2.348 1.205a.164.164 0 0 0 .165-.283m-352.683-88.845a47.6 47.6 0 0 1-1.202-8.588c-.092-1.428-.15-2.858-.198-4.289a27 27 0 0 0-.172-2.413c.33.444.663.885.985 1.334 1.082 1.508 2.15 3.026 3.356 4.438.154.18.316.35.474.524a37.5 37.5 0 0 0-1.602 8.022 26.5 26.5 0 0 0 .119 4.404c.06.605.081 1.236.2 1.837a25.8 25.8 0 0 1-1.96-5.269m93.792 83.953a17.6 17.6 0 0 0-2.498-2.397c-.118-.1-.246-.188-.366-.285a98 98 0 0 0 3.423-.082c.132.765.277 1.527.443 2.289.21.966.423 1.927.711 2.87a33 33 0 0 0-1.713-2.395m2.09 2.964a29 29 0 0 0-.683-3.476 56 56 0 0 0-.6-2.262 84 84 0 0 0 2.252-.13c.188 1.86.448 3.715.722 5.566.206 1.394.413 2.8.69 4.189a165 165 0 0 0-2.382-3.887m4.81 2.06c.445 2.777.906 5.55 1.501 8.298q-1.155-1.87-2.295-3.748-.498-.826-.993-1.654c-.145-1.733-.45-3.457-.737-5.168a113 113 0 0 0-1.076-5.674 74 74 0 0 0 2.41-.222c.252 2.734.757 5.469 1.19 8.169m-14.823-40.678a44.3 44.3 0 0 0 3.801 7.891 57 57 0 0 0 6.586 8.535 183 183 0 0 0 13.484 12.647 94 94 0 0 1-24.139 1.866c-4.262-.171-8.517-.503-12.77-.832l-6.535-.506a29 29 0 0 1-4.965-.642.41.41 0 0 0 .283-.4c-.202-3.43-.4-6.868-.48-10.305a108 108 0 0 1-.018-5.031c.02-.858.075-1.717.127-2.574.024-.403.018-.825.08-1.224a5 5 0 0 1 .315-.994 1.8 1.8 0 0 0 .392.007c.416-.042.595-.29.66.22.11.845.08 1.738.122 2.592.084 1.687.166 3.373.214 5.061.047 1.645.142 3.295.092 4.939-.051 1.646-.45 3.409.057 5.009a.268.268 0 0 0 .512 0 11.5 11.5 0 0 0-.219-4.198c-.22-1.58-.263-3.17-.338-4.762-.145-3.044-.205-6.09-.312-9.136a.075.075 0 0 0-.054-.071 3.9 3.9 0 0 1-1.182-.5.427.427 0 0 0-.62.477 8.5 8.5 0 0 1 .208 1.356c0 .445-.075.902-.108 1.347-.065.857-.11 1.716-.175 2.574a141 141 0 0 0-.304 5.031 86 86 0 0 0 .08 8.964 5.8 5.8 0 0 1-.856-1.24 7.5 7.5 0 0 1-.673-2.816 6.9 6.9 0 0 0-.12-2.434 8.2 8.2 0 0 1-.446-2.82c-.317-4.472-.23-8.977-.484-13.455a.023.023 0 0 0-.047 0c-.073 4.679.155 9.36.06 14.037-.009.457-.02.911-.047 1.368a4 4 0 0 1-.09.84 2.2 2.2 0 0 0-.147.532 4.5 4.5 0 0 0 .415 1.381c.15.458.292.92.447 1.376.284.838.623 1.652.937 2.478a7.3 7.3 0 0 0 1.223 2.238 11 11 0 0 1-.813-.276 21.8 21.8 0 0 1-5.093-3.154q-2.658-2.006-5.309-4.021l-10.909-8.262c-3.49-2.644-7.04-5.226-10.461-7.958a27.9 27.9 0 0 1-7.537-8.52c-3.45-6.444-3.886-14.01-4.135-21.164q-.023-.608-.07-1.21c1.896 1.408 3.804 2.801 5.79 4.079a75 75 0 0 0 6.812 3.8c2.519 1.27 5.065 2.49 7.522 3.878q1.804 1.018 3.53 2.167c1.192.794 2.516 1.391 3.772 2.08a.22.22 0 0 0 .294-.113c.45.482.886.978 1.347 1.45a73.3 73.3 0 0 0 13.095 10.443 32 32 0 0 0 4.378 2.404 10.2 10.2 0 0 0 4.762 1.198.74.74 0 0 0 .712-.712 9 9 0 0 0 .006-1.538c.947.713 2.862.458 3.804.428a37.4 37.4 0 0 0 5.854-.612 21 21 0 0 0 5.067-1.628 14.5 14.5 0 0 0 2.16-1.243q.232-.163.456-.342m-50.423-67.471q.72.398 1.438.8c.544.305 1.085.618 1.626.929a31 31 0 0 0-1.336-.376c-.602-.155-1.21-.297-1.809-.466a5.3 5.3 0 0 0 .08-.887m-.82 3.466c.015-.073.012-.147.022-.221.075-.186.16-.368.228-.557.106-.289.202-.595.29-.907.386.116.794.191 1.155.286a20.7 20.7 0 0 0 4.125.791c1.415.837 2.812 1.705 4.198 2.59-.168-.04-.339-.081-.504-.122-1.198-.297-2.413-.531-3.62-.784q-1.815-.38-3.634-.735a19 19 0 0 0-2.336-.287c.033-.006.068-.013.076-.054m2.04 1.138q1.87.408 3.742.805c1.208.258 2.412.54 3.626.764.763.14 1.559.308 2.352.4q.126.08.254.164a82.8 82.8 0 0 1 16.867 14.875c4.91 5.717 9.207 11.914 13.746 17.92q.165.218.333.435c.137.392.282.782.415 1.176 1.351 3.996 2.715 7.964 3.809 12.041 1.054 3.932 1.953 7.909 3.192 11.79.098.304.212.601.314.904-.165.11-.325.23-.48.336a18 18 0 0 1-1.945 1.192 18.4 18.4 0 0 1-4.444 1.562 34 34 0 0 1-5.169.673c-.867.059-1.736.09-2.602.149-.39.025-.78.066-1.17.09a3.6 3.6 0 0 1-.955-.135.5.5 0 0 0-.2.01l-.001-.009c-.238-.941-.732-1.811-1.024-2.739a10.9 10.9 0 0 1-.408-5.534 18.1 18.1 0 0 1 1.77-5.055 30 30 0 0 1 3.068-4.474c.95-1.203 2.107-2.763 1.734-4.347.025.003.047.015.073.018a.224.224 0 0 0 .215-.282 4.53 4.53 0 0 0-1.502-1.743c-.645-.592-1.341-1.138-2.023-1.688-1.305-1.052-2.671-2.032-4.055-2.976a47 47 0 0 0-8.782-4.819 22.5 22.5 0 0 0-9.892-1.863 12 12 0 0 0-8.145 3.825c-2.068 2.24-3.166 5.221-2.156 8.195.017.05.108.047.1-.014a9.4 9.4 0 0 1 2.476-7.245 11.15 11.15 0 0 1 7.725-3.326c6.298-.392 12.4 2.805 17.477 6.208 1.464.981 2.868 2.043 4.298 3.071.712.513 1.412 1.05 2.137 1.543a11 11 0 0 0 1.35.873 10.3 10.3 0 0 1-.904 2.052 21 21 0 0 1-1.464 2.02 19.8 19.8 0 0 0-2.765 4.366 16.24 16.24 0 0 0-1.074 9.843c.214 1.057.646 2.06.798 3.128a6.35 6.35 0 0 1 .025 2.784c-.496-.118-.997-.216-1.488-.35a16 16 0 0 1-2.036-.717 29 29 0 0 1-3.646-1.95 79 79 0 0 1-6.768-4.635 87 87 0 0 1-12.079-11.035c-1.024-1.146-1.996-2.334-2.987-3.508-1.022-1.21-2.103-2.396-3.055-3.66-.047-.063-.151-.008-.108.063.744 1.226 1.44 2.46 2.235 3.655.756 1.137 1.605 2.214 2.463 3.275.408.506.84.992 1.258 1.49a29 29 0 0 0-2.372-1.569c-2.117-1.268-4.323-2.381-6.53-3.483-2.215-1.106-4.438-2.201-6.59-3.428a73 73 0 0 1-6.874-4.552 91.6 91.6 0 0 1-11.603-9.44 30 30 0 0 1-3.891-4.901.41.41 0 0 0 .456.028.26.26 0 0 0 .132-.23 28 28 0 0 1-.261-3.072 42 42 0 0 1 .13-3.227 52 52 0 0 1 .705-6.63.082.082 0 1 0-.161-.022 56 56 0 0 1-.896 6.845 26 26 0 0 0-.357 3.034 11.5 11.5 0 0 0 .05 1.664 7.7 7.7 0 0 1 .183 1.496.06.06 0 0 0-.032.037c-.043-.068-.09-.133-.132-.201.015-.016.034-.03.03-.06a14 14 0 0 0-.31-2.012 21 21 0 0 1-.602-2.05 18.4 18.4 0 0 1-.168-4.335 50 50 0 0 1 1.265-7.777 17.95 17.95 0 0 0 7.74 5.03 18.5 18.5 0 0 0 9.874.36 18.9 18.9 0 0 0 9.187-5.52 23 23 0 0 0 2.526-3.207c1.783.324 3.59.552 5.366.9q1.758.343 3.5.767.928.226 1.85.474a2.7 2.7 0 0 0 1.491.212.12.12 0 0 0 .052-.196 2.57 2.57 0 0 0-1.385-.587q-.923-.248-1.851-.473-1.8-.436-3.619-.786a46 46 0 0 0-5.107-.767c.235-.378.463-.76.674-1.152.255-.47.48-.953.695-1.442a20 20 0 0 0 2.31.681m-3.191-5.68q.014.289.043.578.07.67.171 1.335l.04.27q-.127.334-.265.66-.238.563-.486 1.123a49 49 0 0 0-.355-1.919q-.239-1.141-.532-2.27c-.05-.196-.11-.4-.165-.602.516.275 1.035.545 1.549.825m-1.94-1.033c.074.303.155.605.227.9q.267 1.093.483 2.198.217 1.105.384 2.219.023.164.04.334c-.096.202-.186.407-.29.607q-.309.596-.654 1.171-.052-.358-.104-.702-.216-1.504-.52-2.993a30 30 0 0 0-1.303-4.642q.871.449 1.736.908m-1.976-1.033c.35 1.598.735 3.188 1.053 4.793q.265 1.337.46 2.687c.079.54.121 1.12.204 1.686-.098.15-.215.286-.317.434-.05 0-.1-.004-.15-.003a.063.063 0 0 0-.017.123q.033.008.068.014c-.273.385-.54.773-.835 1.14-.19-.79-.409-1.576-.539-2.382-.178-1.102-.308-2.199-.522-3.296-.399-2.048-.781-4.106-1.276-6.133.624.31 1.251.617 1.871.937m-14.02-6.005c1.815.843 3.74 1.421 5.605 2.143a72 72 0 0 1 3.946 1.686c1.029 4.763 2.302 9.471 3.245 14.252.012.059.102.034.09-.025a236 236 0 0 0-3.286-14.204c.483.221.969.435 1.448.665.323.154.64.322.96.481.303 2.105.728 4.194 1.132 6.281.211 1.091.5 2.153.747 3.235.194.853.286 1.723.419 2.587-.138.166-.266.339-.41.5a17.56 17.56 0 0 1-8.821 5.577 16.96 16.96 0 0 1-9.503-.477 15.2 15.2 0 0 1-3.947-2.076.85.85 0 0 0 .461-.657 4.93 4.93 0 0 0-.628-2.516 12 12 0 0 1-.742-2.349 14.8 14.8 0 0 1-.23-4.572 15.5 15.5 0 0 1 3.675-8.404 12.8 12.8 0 0 1 2.046-1.908c.636-.464 1.355-.758 2.006-1.171.581.34 1.17.666 1.786.952M128.9 157.184c1.967 2.046 3.946 4.082 6.003 6.035a62.2 62.2 0 0 0 9.93 7.703c3.62 2.258 7.412 4.248 11.182 6.243l.991.525-.142-.014a6 6 0 0 0-1.112-.021 5 5 0 0 0-2.067.562.031.031 0 0 0 .024.057 7.5 7.5 0 0 1 2.08-.416 5.6 5.6 0 0 1 1.042.06 3.7 3.7 0 0 0 .869.14l.658.35 5.82 3.602c1.796 1.117 3.615 2.22 5.365 3.406.672.455 1.342.907 2.02 1.344a9.6 9.6 0 0 0-2.923 2.18 15.6 15.6 0 0 0-2.854 3.944 17 17 0 0 0-1.697 9.49 15.5 15.5 0 0 0 .546 2.72 14.6 14.6 0 0 1 .668 2.263 14.4 14.4 0 0 1-3.938-3.71c-1.582-1.909-3.169-3.818-4.686-5.778-1.556-2.011-3.078-4.048-4.631-6.062-.646-.837-1.314-1.656-1.98-2.477a17.4 17.4 0 0 1-.161-4.852 7.58 7.58 0 0 1 1.982-4.632.067.067 0 0 0-.065-.11c-1.878.398-2.353 2.694-2.567 4.31a12.2 12.2 0 0 0 .189 4.506c-.762-.937-1.524-1.873-2.261-2.83-.024-.03-.077-.003-.054.032 1.003 1.535 1.983 3.086 2.974 4.63.03.061.053.125.084.185a.034.034 0 0 0 .044.015l.22.343c1.133 1.758 2.413 3.428 3.653 5.11l1.68 2.277a1.4 1.4 0 0 0-.239-.024c-1.737-1.312-3.518-2.568-5.256-3.882a87 87 0 0 1-8.633-7.484c-5.308-5.236-10.214-11.226-12.005-18.621a32 32 0 0 1-.86-6.601c-.042-1.507.033-3.013.107-4.518m-36.109-41.115a71.5 71.5 0 0 0 9.733 13.532 50.5 50.5 0 0 0 4.058 6.337c.03.039.093-.011.068-.052-1.179-1.94-2.437-3.832-3.655-5.749a195 195 0 0 0 4.393 4.748c.894.939 1.799 1.867 2.696 2.803-.141-.03-.285-.07-.424-.098-1.054-.21-2.112-.404-3.17-.59q-1.256-.217-2.504-.457c-.712-1.26-1.584-2.458-2.367-3.67l-2.636-4.084c-1.735-2.688-3.495-5.36-5.248-8.037-.02-.03-.067-.003-.048.027 1.7 2.709 3.393 5.421 5.11 8.118l2.544 3.994c.752 1.181 1.46 2.429 2.268 3.58a43 43 0 0 1-3.318-.779 24.6 24.6 0 0 1-10.407-5.626 22.08 22.08 0 0 1-6.428-20.589 23 23 0 0 1 2.285-6.138c.52-.956 1.13-1.846 1.736-2.748.18-.267.372-.526.566-.784a39.5 39.5 0 0 0 4.748 16.262m146.618 12.31c1.088 1.285.845 2.986.556 4.55a37 37 0 0 0-2.596-6.121 7 7 0 0 1 2.04 1.57m-4.538-2.698c.773.323 1.596.652 2.37 1.058a187 187 0 0 1 2.654 6.566l-.051.276a12 12 0 0 1-.677 2.49 5.4 5.4 0 0 1-.435.805c-.26-.625-.541-1.244-.794-1.855q-.662-1.6-1.345-3.193-1.449-3.374-3.025-6.689.652.27 1.303.542m-1.656-.689.23.096q1.49 3.471 2.917 6.97.69 1.696 1.354 3.402c.242.62.462 1.262.702 1.893q-.172.25-.336.505a.4.4 0 0 0-.133.105l-1.651-.923c-.33-.814-.722-1.612-1.072-2.41q-.765-1.742-1.55-3.475-1.492-3.284-3.085-6.517 1.305.212 2.624.354m-2.771-.375q1.452 3.294 2.906 6.587.743 1.686 1.479 3.375c.308.71.602 1.433.911 2.15l-2.628-1.47a.16.16 0 0 0-.004-.114c-.424-.98-1.03-1.9-1.525-2.848a86 86 0 0 1-1.39-2.795c-.85-1.776-1.615-3.588-2.424-5.381q1.331.277 2.675.496m-2.794-.521a46 46 0 0 0 2.18 5.493c.451.977.935 1.94 1.432 2.895a26 26 0 0 0 1.387 2.516l-4.17-2.332c-1.173-3.162-2.738-6.173-3.967-9.312 1.038.278 2.086.518 3.138.74m-3.285-.782a45 45 0 0 0 3.676 9.109l-2.373-1.327-.304-.167c-.172-.663-.47-1.324-.697-1.945q-.48-1.31-1.014-2.597a60 60 0 0 0-1.752-3.788c.816.257 1.638.491 2.464.714m-2.701-.793c.55 1.352 1.098 2.704 1.616 4.068q.478 1.256.936 2.52c.167.462.31.965.478 1.453l-1.841-1.012a18 18 0 0 0-.752-1.904q-.501-1.243-1.02-2.477a64 64 0 0 0-1.524-3.342c.696.252 1.403.468 2.107.694m-2.441-.814c.47 1.23.963 2.453 1.458 3.67q.504 1.24.989 2.486c.155.399.297.854.467 1.294l-1.38-.758a10.5 10.5 0 0 0-.828-1.942q-.482-1.026-.945-2.062c-.507-1.136-1.045-2.258-1.567-3.387q.897.365 1.806.699m-3.01-1.194c.29.126.584.24.876.36.427 1.255.86 2.505 1.388 3.725q.466 1.08.954 2.15c.183.4.364.836.582 1.243-.702-.383-1.4-.774-2.104-1.156-.169-.485-.386-.96-.571-1.419-.3-.743-.62-1.476-.948-2.208-.521-1.162-1.12-2.285-1.724-3.406.514.242 1.028.486 1.547.71m-1.923-.883c.482 1.253.938 2.515 1.435 3.763.306.768.606 1.54.913 2.308q.106.272.207.558-1.126-.612-2.253-1.222-.158-.44-.321-.878c-.318-.842-.63-1.686-.975-2.517-.45-1.088-.931-2.16-1.415-3.233a55 55 0 0 0 2.409 1.22m-2.735-1.397c.61 1.768 1.201 3.543 1.832 5.305q.188.524.373 1.05c-.565-.303-1.134-.6-1.701-.9l-.05-.172c-.112-.395-.263-.78-.402-1.166a62 62 0 0 0-.812-2.157 67 67 0 0 0-1.431-3.242 42 42 0 0 0 2.191 1.282m-3.315-2.002c.26.178.532.34.796.51.398 1.26.788 2.52 1.202 3.775.24.728.502 1.45.751 2.175.05.147.101.325.157.513l-1.6-.847c-.217-.726-.5-1.445-.74-2.151a96 96 0 0 0-1.079-2.962c-.267-.707-.569-1.394-.868-2.083a15 15 0 0 0 1.381 1.07m-4.099-4.491c.15-.115.286-.242.43-.36a1.4 1.4 0 0 0-.035.221 3.43 3.43 0 0 0 .761 1.865 9 9 0 0 0 .84 1.004c.357 1.05.715 2.1 1.088 3.146.352.988.69 1.982 1.03 2.975.146.427.277.865.415 1.301-.574-.301-1.144-.61-1.719-.91a6 6 0 0 0-.477-1.688q-.423-1.321-.863-2.636a39 39 0 0 0-1.791-4.7c.105-.075.218-.14.321-.218m-.513.349a40 40 0 0 0 1.277 4.862q.394 1.28.8 2.555c.087.271.163.628.272.972-.627-.323-1.249-.656-1.878-.973a7 7 0 0 0-.37-1.518 50 50 0 0 0-.694-1.902 34 34 0 0 0-.742-1.822 19 19 0 0 0-.537-1.079 13.6 13.6 0 0 0 1.872-1.095m-2.172 1.23c.08.395.167.787.276 1.18.18.648.391 1.292.611 1.926a19.4 19.4 0 0 0 1.009 2.708c-.488-.243-.975-.492-1.465-.73q-.137-.065-.277-.127a10 10 0 0 0-.281-.73c-.231-.526-.466-1.05-.686-1.58s-.426-1.063-.641-1.593q-.085-.212-.174-.443a13 13 0 0 0 1.628-.61m-2.25.792q.052.238.104.453a12 12 0 0 0 .578 1.727c.051.123.108.243.16.365q-1.022-1.096-2.047-2.191l-.113-.118a12 12 0 0 0 1.319-.236"/><path fill="currentColor" d="M184.86 203.765q-.499-1.976-.98-3.957-.944-3.906-2.067-7.759a.02.02 0 0 0-.038.01q.984 3.83 2.012 7.647c.344 1.272.667 2.549.979 3.83a39 39 0 0 0 .912 3.846c.014.039.083.036.077-.01a31 31 0 0 0-.894-3.607m-1.941.965-.74-2.986c-.493-1.99-1.007-3.975-1.511-5.962a.02.02 0 0 0-.038.01c.483 1.993.958 3.989 1.452 5.979q.37 1.492.743 2.984c.245.984.425 2.023.765 2.978a.023.023 0 0 0 .045-.012c-.146-1.005-.472-2.006-.716-2.992m-2.323 1.627c-.005-.009-.018 0-.013.008l.172.34c.005.008.018 0 .014-.009Zm-16.097 7.458a20 20 0 0 0-.433 4.962.031.031 0 0 0 .062 0 28 28 0 0 1 .477-4.933c.013-.068-.091-.098-.106-.029m66.64 52.752c-.131.165-.433-.317-.494-.396l-.516-.672c-.33-.429-.68-.842-1.022-1.262a159 159 0 0 1-2.1-2.646c-.02-.025-.062.008-.044.033q1.233 1.654 2.43 3.333c.38.535.76 1.078 1.177 1.586a.6.6 0 0 0 .44.264c.13-.001.22-.07.215-.204-.001-.04-.057-.072-.086-.036m2.577-.452a12.7 12.7 0 0 0-1.55-1.93l-1.68-1.989q-1.68-1.988-3.391-3.947c-.017-.02-.043.008-.028.027q1.588 2.023 3.217 4.01l1.6 1.96a13.4 13.4 0 0 0 1.69 1.977.09.09 0 0 0 .142-.108m1.731-1.218q-.378-.516-.764-1.027-.756-1.002-1.539-1.983-1.618-2.027-3.363-3.947c-.024-.026-.062.013-.039.04q1.68 1.967 3.256 4.02.756.983 1.485 1.987.354.486.7.977a4.3 4.3 0 0 0 .769.957c.038.03.11.004.09-.054a3.6 3.6 0 0 0-.595-.97m2.872.014c-1.628-2.108-3.371-4.127-5.159-6.099-.017-.019-.043.009-.028.028 1.665 2.051 3.246 4.163 4.816 6.287.128.252.537-.001.37-.217m1.626-.886q-.21-.26-.423-.519a27 27 0 0 0-.932-1.063 41 41 0 0 0-1.968-1.976.027.027 0 0 0-.039.039c.596.702 1.17 1.423 1.753 2.135.283.346.561.695.848 1.038q.227.272.45.546a1.6 1.6 0 0 0 .456.478.139.139 0 0 0 .201-.155 1.5 1.5 0 0 0-.346-.523m.425-2.199a.031.031 0 0 0-.045.044 9.6 9.6 0 0 0 1.16 1.222c.028.023.08-.007.055-.042a9.6 9.6 0 0 0-1.17-1.224m-5.27 27.057c-.018-.018-.045.01-.028.028 1.267 1.341 2.523 2.696 3.848 3.98a.027.027 0 0 0 .04-.039c-1.243-1.364-2.559-2.662-3.86-3.969m3.922-.518c-.032-.032-.082.018-.05.05 2.2 2.166 4.357 4.388 6.64 6.467a.023.023 0 0 0 .033-.033c-2.132-2.234-4.404-4.338-6.623-6.484m11.752 7.313a22 22 0 0 0-2.146-2.135q-1.113-1.087-2.21-2.19c-1.444-1.45-2.89-2.897-4.305-4.374-.035-.037-.09.018-.056.055a169 169 0 0 0 4.263 4.536q1.061 1.08 2.137 2.144a19 19 0 0 0 2.218 2.092c.083.059.151-.062.1-.128m3.888-1.172c-.043-.018-.08.05-.046.079.016.014.016.03.03.044-1.366-1.417-2.835-2.752-4.266-4.1a352 352 0 0 0-4.733-4.363c-.03-.027-.073.016-.044.045a351 351 0 0 0 4.535 4.56c1.524 1.498 3.025 3.055 4.638 4.456a.168.168 0 0 0 .284-.117.61.61 0 0 0-.398-.604m4.845.358.008-.007a23 23 0 0 0-2.07-1.833 111 111 0 0 0-2.184-1.83q-2.127-1.725-4.313-3.375c-.05-.037-.114.046-.066.086a207 207 0 0 1 4.275 3.622c.696.604 1.394 1.205 2.084 1.816.675.598 1.323 1.27 2.052 1.803.176.129.353-.156.214-.282m2.757-1.971q-.698-.658-1.445-1.261c-.967-.782-1.993-1.48-3.03-2.163-.09-.06-.166.08-.083.141 1.004.742 1.948 1.565 2.873 2.403q.673.61 1.332 1.234a4.5 4.5 0 0 0 1.338 1.073.083.083 0 0 0 .101-.101 3.7 3.7 0 0 0-1.086-1.326m4.153.249a8 8 0 0 0-.669-.722 10 10 0 0 0-.76-.626 18 18 0 0 0-1.631-1.057c-.033-.02-.075.03-.043.055.514.403.995.841 1.496 1.259.245.205.486.413.737.61.259.204.524.39.794.579.062.043.118-.048.076-.098m-89.174-49.683a.023.023 0 0 0-.047 0 67 67 0 0 0 1.425 14.663c.01.045.075.025.068-.019a114 114 0 0 1-1.446-14.644m1.627 6.133c-.002-.025-.041-.025-.039 0a62.4 62.4 0 0 0 2.96 14.634c.013.038.072.023.06-.016a75 75 0 0 1-2.98-14.618m17.483-129.718c-.005-.025-.049-.02-.046.007a9.55 9.55 0 0 1-1.143 4.971c-.597 1.353-1.167 2.72-1.881 4.018a8.94 8.94 0 0 1-2.852 3.4c-.625.39-1.331.657-1.921 1.098a6.8 6.8 0 0 0-1.517 1.645 33 33 0 0 0-1.91 3.67 40 40 0 0 1-1.978 3.692 44.3 44.3 0 0 1-5.832 6.7 59.5 59.5 0 0 0-6.332 7.15c-.046.064.04.135.101.102a48 48 0 0 0 10.851-7.927c.025-.025-.012-.062-.038-.039a57.2 57.2 0 0 1-10.586 7.66c3.293-4.854 8.082-8.503 11.741-13.069.884-1.103 1.694-2.269 2.519-3.417a51 51 0 0 1 1.262-1.674 18 18 0 0 1 1.474-1.616c2.056-2.077 4.34-4.11 5.701-6.737a31 31 0 0 0 1.906-4.61 9.64 9.64 0 0 0 .481-5.024m-5.636-4.182a72 72 0 0 0-3.002 2.237c-.517.411-1.03.828-1.551 1.234-.561.437-1.235.718-1.766 1.194a51 51 0 0 0-4.87 5.455c-2.93 3.509-5.812 7.305-7.461 11.607a20.6 20.6 0 0 0-1.053 3.733q-.156.872-.23 1.756a1.6 1.6 0 0 1-.366.876 1.74 1.74 0 0 0-.21.956.757.757 0 0 0 1.28.53 17.7 17.7 0 0 0 1.925-2.56c1.071-.887 2.031-1.923 3.058-2.855 1.324-1.2 2.737-2.295 3.994-3.565 1.988-2.008 4.209-4.058 4.751-6.953a.21.21 0 0 0-.303-.234c-.345.21-.781.25-1.142.44a10 10 0 0 0-1.02.634c-.615.426-1.219.884-1.8 1.358a11.7 11.7 0 0 0-1.644 1.67 2.26 2.26 0 0 0-.436 1.046 3.9 3.9 0 0 1-.803 1.475c-1.204 1.47-2.524 2.856-3.795 4.267a84 84 0 0 1-2.027 2.18c-.343.355-.7.712-1.04 1.084a5.4 5.4 0 0 1 .12-1.713 20 20 0 0 1 .765-3.334 23.5 23.5 0 0 1 3.044-6.19 31.2 31.2 0 0 1 4.686-5.284c1.713-1.573 3.626-2.895 5.341-4.462 1.024-.934 1.786-2.105 2.719-3.135a87 87 0 0 0 2.893-3.374c.03-.038-.01-.107-.057-.074m-11.477 19.288a5 5 0 0 1 .63-.311c-.202.21-.4.423-.603.632-.761.785-1.526 1.565-2.284 2.353.359-.488.712-.98 1.073-1.467a4.7 4.7 0 0 1 1.184-1.207m1.061-20.164c-1.355.953-2.733 1.885-3.994 2.963a35 35 0 0 0-1.948 1.825 12 12 0 0 1-.875.865 2.5 2.5 0 0 0-.828.939c-.2.409-.32.836-.559 1.23-.211.348-.438.693-.662 1.032-.471.714-.95 1.421-1.397 2.15a32 32 0 0 0-2.303 4.486c-.019.045.056.076.078.033a55 55 0 0 1 2.415-4.289c.437-.695.895-1.38 1.387-2.037a12 12 0 0 1 .884-1.064 8 8 0 0 1 1.078-.833 2.4 2.4 0 0 0 .71-.88 6.3 6.3 0 0 1 .801-1.048 46 46 0 0 1 1.653-1.83 33.6 33.6 0 0 1 3.621-3.462c.045-.035-.014-.113-.061-.08m-29.993-23.51a5.6 5.6 0 0 0-2.134-.512 7.9 7.9 0 0 0-2.227.403 13 13 0 0 0-1.918.784 4.9 4.9 0 0 0-1.13-1.942q-.974-1.259-2.023-2.455a50 50 0 0 0-4.778-4.67 42.7 42.7 0 0 0-10.846-7.383.07.07 0 0 0-.07.122 94 94 0 0 1 9.95 7.776c1.476 1.42 2.852 2.961 4.196 4.505.698.8 1.371 1.622 2.03 2.455.307.386.623.773.897 1.184.229.345.352.764.584 1.102-.27.18-.537.367-.8.574a34 34 0 0 0-3.387 3.292q-1.7 1.785-3.349 3.618c-2.19 2.436-4.24 5.003-6.228 7.606-1.962 2.57-3.734 5.255-5.474 7.98a22.7 22.7 0 0 0-2.373 4.575 9.74 9.74 0 0 0-.345 4.854c.02.126.23.097.222-.03a10.25 10.25 0 0 1 .87-4.284 22 22 0 0 1 2.067-3.969c1.672-2.594 3.65-4.999 5.568-7.413a180 180 0 0 1 12.201-13.715 24.4 24.4 0 0 1 3.59-3.107 6.4 6.4 0 0 1 2.25-.965 8.6 8.6 0 0 1 2.641-.27c.073.006.071-.092.016-.115"/><path fill="currentColor" d="M124.225 75.138a5.38 5.38 0 0 0-2.9-1.85 11.6 11.6 0 0 0-3.696-.2 19.3 19.3 0 0 0-6.752 1.943 25 25 0 0 0-10.373 9.949 33.3 33.3 0 0 0-3.08 7.22 37 37 0 0 0-.94 3.89 9.6 9.6 0 0 0-.262 3.902 7.5 7.5 0 0 0 2.003 2.97 127 127 0 0 0 2.67 2.865A72 72 0 0 0 113.48 116.2a57 57 0 0 0 3.634 2.171 17.6 17.6 0 0 0 3.946 1.725c.156.04.316-.18.17-.294a68 68 0 0 0-5.95-3.748 73 73 0 0 1-6.034-4.235 63.3 63.3 0 0 1-10.356-9.969 5.5 5.5 0 0 1-.97-1.478 4.4 4.4 0 0 1-.208-1.907 27 27 0 0 1 .68-3.642 34 34 0 0 1 2.39-6.94 24.73 24.73 0 0 1 8.865-10.33 19.9 19.9 0 0 1 6.793-2.766 12.5 12.5 0 0 1 3.904-.173c.622.075 1.22.273 1.837.347a9 9 0 0 1 1.896.431c.156.054.239-.148.148-.254m30.323 25.684c-.002-.024-.04-.026-.039 0 .154 2.841.33 5.684.685 8.508.008.062.104.067.101 0-.12-2.846-.424-5.68-.747-8.508m-2.248 2.375c-.002-.025-.04-.026-.039 0 .12 3.687.02 7.385.225 11.069a.043.043 0 0 0 .086 0 77.4 77.4 0 0 0-.272-11.07m-1.632 8.869a234 234 0 0 0-.43-5.292c-.005-.06-.097-.061-.094 0 .084 1.764.103 3.526.082 5.292-.01.883-.022 1.766-.011 2.649a11 11 0 0 0 .185 2.468.087.087 0 0 0 .166 0 9.7 9.7 0 0 0 .202-2.468 39 39 0 0 0-.1-2.65m-2.338 3.046c-.02-1.359-.072-2.719-.109-4.078a.02.02 0 0 0-.04 0c-.057 1.333-.126 2.667-.17 4a25 25 0 0 0 .064 4c.008.062.112.093.123.017a25 25 0 0 0 .132-3.938m-2.552 2.049a.063.063 0 0 0-.125 0c-.005.908-.012 1.815.031 2.723a.031.031 0 0 0 .063 0c.043-.908.036-1.815.03-2.724m-21.587 20.062a.031.031 0 0 0-.06.017 36.8 36.8 0 0 0 3.301 10.085.043.043 0 0 0 .079-.033c-1.144-3.346-2.267-6.693-3.32-10.069m3.923.679a.02.02 0 0 0-.038.011 71 71 0 0 0 4.589 15.727c.03.066.131.018.114-.048-1.373-5.275-3.155-10.451-4.665-15.69m5.036 2.401c-.006-.025-.042-.014-.038.01a85 85 0 0 0 2.527 11.41.023.023 0 0 0 .045-.012c-.79-3.816-1.7-7.601-2.534-11.408m4.541 17.998c-.176-.605-.377-1.203-.567-1.803a133 133 0 0 1-1.118-3.76.008.008 0 0 0-.015.004c.295 1.25.582 2.503.84 3.761.127.618.245 1.239.382 1.854a4.7 4.7 0 0 0 .561 1.768c.064.084.245.104.264-.035a4.6 4.6 0 0 0-.347-1.79m3.97.187c-.378-1.472-.779-2.939-1.17-4.408-.77-2.898-1.56-5.791-2.345-8.685a.02.02 0 0 0-.038.01c.672 2.926 1.34 5.852 2.028 8.773.339 1.44.67 2.884 1.019 4.322a21.4 21.4 0 0 0 1.158 4.194.15.15 0 0 0 .276-.075 21 21 0 0 0-.929-4.13m4.26 4.716-.993-3.997c-.651-2.624-1.345-5.237-2.02-7.855a.043.043 0 0 0-.082.023c.596 2.596 1.176 5.196 1.79 7.788q.461 1.944.928 3.886a32 32 0 0 0 1.035 3.855c.026.068.149.067.139-.018a30 30 0 0 0-.797-3.682m3.138.184q-.802-3.013-1.475-6.057c-.006-.03-.05-.017-.045.012q.59 3.065 1.306 6.104a42.4 42.4 0 0 0 1.676 6.007.082.082 0 0 0 .158-.043c-.398-2.027-1.089-4.026-1.62-6.023m3.219.391c-.007-.03-.05-.017-.045.012a33 33 0 0 0 2.244 7.88c.02.045.092.013.079-.033-.746-2.626-1.635-5.203-2.278-7.86m8.655 4.257a.023.023 0 0 0-.045.012 27 27 0 0 0 2 4.956c.017.031.063.004.048-.028a35.6 35.6 0 0 1-2.003-4.94m3.912-2.04a.05.05 0 0 0-.098.027 52.7 52.7 0 0 0 5.094 12.782c.02.036.07.005.054-.031a85 85 0 0 1-5.05-12.778m8.867 13.93q-1.035-2.128-1.944-4.314a81 81 0 0 1-2.967-8.437.059.059 0 0 0-.113.032 81 81 0 0 0 2.965 8.675q.816 2.005 1.738 3.964a29 29 0 0 0 2.19 4.092.047.047 0 0 0 .081-.047c-.576-1.352-1.306-2.643-1.95-3.965m5.719 3.716q-.538-1.127-1.06-2.261-1.046-2.269-2.028-4.566-2.006-4.691-3.785-9.478c-.02-.056-.11-.033-.09.025a163 163 0 0 0 3.62 9.432q.93 2.207 1.918 4.388.515 1.139 1.046 2.27a13 13 0 0 0 1.207 2.316c.03.04.1.019.086-.037a13 13 0 0 0-.914-2.09m3.553-.142c-.654-1.47-1.303-2.943-1.964-4.41-1.304-2.895-2.625-5.782-3.938-8.673-.013-.028-.052-.004-.04.023l3.74 8.646c.61 1.4 1.233 2.795 1.85 4.192.647 1.465 1.239 2.978 2.028 4.374a.035.035 0 0 0 .064-.027c-.47-1.414-1.134-2.766-1.74-4.125m-1.289-11.051c-.023-.05-.095-.006-.074.044 1.136 2.634 2.258 5.273 3.499 7.861.013.028.061.008.05-.021-1.085-2.661-2.286-5.269-3.475-7.884m7.924 16.229c-.115-.264-.257-.514-.396-.765-.261-.472-.544-.93-.833-1.385-.599-.942-1.195-1.885-1.805-2.82a.074.074 0 0 0-.129.075 27 27 0 0 1 1.512 2.991c.215.504.422 1.012.633 1.517.185.442.35 1.149.828 1.346a.284.284 0 0 0 .345-.196 1.07 1.07 0 0 0-.155-.763m4.981 1.902a29 29 0 0 1-1.144-2.072q-1.097-2.171-2.086-4.39c-1.303-2.92-2.52-5.877-3.78-8.814-.018-.04-.086-.012-.072.03a82 82 0 0 0 3.632 8.775q1.017 2.14 2.075 4.26c.37.744.74 1.489 1.076 2.249a9.4 9.4 0 0 0 1.023 2.07c.133.171.425-.014.36-.208a10 10 0 0 0-1.084-1.9m4.97 2.152-1.617-3.883q-1.572-3.777-3.172-7.542c-.026-.06-.132-.016-.107.046q1.552 3.9 3.12 7.795l1.528 3.78a37 37 0 0 0 1.588 3.795.126.126 0 0 0 .228-.096 38 38 0 0 0-1.568-3.895m4.553.504c-.01-.023-.043-.003-.033.02l1.574 3.554c.006.014.026.002.02-.012q-.784-1.78-1.56-3.562m6.968 9.196a.008.008 0 0 0-.013.008l.52.845c.002.005.009 0 .006-.003Zm-2.343-93.81a.043.043 0 0 0-.075.044c.807 1.493 1.58 3.03 2.53 4.438a.04.04 0 0 0 .068-.04c-.726-1.536-1.651-2.985-2.523-4.442m5.575 5.67q-.794-1.431-1.573-2.871c-1.057-1.952-2.145-3.886-3.22-5.827-.032-.058-.115-.007-.087.051.958 2.006 1.94 4 2.995 5.958q.778 1.44 1.569 2.874a13.6 13.6 0 0 0 1.663 2.705.055.055 0 0 0 .091-.053 14.7 14.7 0 0 0-1.438-2.837m4.364 2.92a.06.06 0 0 0-.045-.046l-.058-.008a.051.051 0 0 0-.04.093c-.14-.101-.293-.615-.38-.78l-.458-.87q-.399-.764-.802-1.523-.837-1.573-1.68-3.143a571 571 0 0 0-3.469-6.364c-.017-.03-.063-.004-.047.028a611 611 0 0 0 3.523 6.9c.587 1.128 1.169 2.257 1.763 3.38l.919 1.738c.152.287.276.756.629.835a.105.105 0 0 0 .114-.047c.059-.081.056-.096.031-.193m1.607-1.768q-.809-1.509-1.626-3.012-1.694-3.114-3.427-6.205c-.018-.031-.063-.004-.047.027q1.616 3.159 3.274 6.294.8 1.514 1.61 3.022a18.5 18.5 0 0 0 1.687 2.992c.035.044.107-.003.091-.053a18.5 18.5 0 0 0-1.562-3.065m2.294-1.15c-.834-1.624-1.698-3.233-2.55-4.848-.022-.04-.081-.005-.061.036.808 1.64 1.605 3.286 2.432 4.917.824 1.623 1.586 3.303 2.527 4.862.043.07.138.008.108-.064-.712-1.678-1.624-3.282-2.456-4.903m2.963 2.35a174 174 0 0 1-2.202-4.257c-.015-.032-.061-.004-.047.028a55.3 55.3 0 0 0 4.46 8.492.031.031 0 0 0 .053-.032c-.703-1.438-1.512-2.818-2.264-4.23m2.973-.205c-.009-.018-.035-.002-.027.016a36 36 0 0 0 2.398 4.51.027.027 0 0 0 .047-.028c-.798-1.504-1.648-2.979-2.418-4.498m4.362 3.257c-.014-.015-.035.007-.022.022.446.517.881 1.046 1.343 1.548.017.02.044-.008.028-.027-.434-.527-.899-1.03-1.35-1.543m7.841 1.669c-.824-.553-1.704-1.02-2.57-1.505a.035.035 0 0 0-.035.06c.85.512 1.692 1.044 2.58 1.486a.023.023 0 0 0 .025-.04m-46.502-12.538a56 56 0 0 0-4.776-4.306c-1.6-1.345-3.24-2.636-4.9-3.906-.02-.016-.048.02-.028.037a407 407 0 0 1 4.821 4.107c1.601 1.38 3.152 2.833 4.822 4.129.043.033.1-.02.061-.061m5.459.839a64 64 0 0 0-5.058-4.651c-1.722-1.516-3.476-2.997-5.22-4.488-.05-.042-.12.027-.072.071 1.709 1.576 3.409 3.163 5.14 4.714a63 63 0 0 0 5.158 4.421c.04.03.083-.033.052-.067m-3.307-6.278a101 101 0 0 0-4.485-3.651c-.018-.014-.041.016-.024.03a199 199 0 0 1 4.438 3.81c1.464 1.29 2.854 2.672 4.36 3.913a.043.043 0 0 0 .06-.06 50 50 0 0 0-4.35-4.042m6.887 1.335c-1.204-1.098-2.517-2.092-3.792-3.105l-3.843-3.055c-.019-.015-.047.012-.027.028l3.845 3.159c1.243 1.02 2.475 2.08 3.784 3.016.025.018.056-.022.033-.043m.821-3.025a33 33 0 0 0-2.693-2.238c-.893-.707-1.811-1.383-2.719-2.071-.017-.014-.04.016-.023.03.892.752 1.776 1.515 2.684 2.248a32 32 0 0 0 2.713 2.08.031.031 0 0 0 .038-.049m1.248-2.452a7 7 0 0 0-.98-.849c-.362-.272-.722-.544-1.091-.805q-1.104-.782-2.207-1.567c-.028-.02-.065.027-.038.05q1.054.847 2.105 1.698c.339.273.684.536 1.03.8a7 7 0 0 0 1.124.747.047.047 0 0 0 .057-.074m1.171-2.531a6.8 6.8 0 0 0-1.875-1.199c-.045-.02-.085.047-.04.067a8.4 8.4 0 0 1 1.882 1.165c.023.019.056-.012.033-.033m.856-3.239c-.43-.422-.904-.8-1.361-1.192-.03-.025-.075.018-.044.045.455.397.9.812 1.38 1.178.019.013.04-.016.025-.031m.486-5.804a.3.3 0 0 0-.097.025l-.092.044-.172.081c-.118.057-.229.129-.342.196-.04.024-.013.097.034.078.12-.05.246-.094.362-.155l.168-.088a.6.6 0 0 0 .17-.108c.022-.025.008-.078-.031-.074m83.537 4.535a46 46 0 0 0-.77-4.698.075.075 0 0 0-.146.02 48 48 0 0 0 .322 4.865c.19 1.566.386 3.164.726 4.705a.082.082 0 0 0 .16-.022 40 40 0 0 0-.292-4.87m-3.572-3.326c-.007-.035-.058-.019-.053.015q.851 5.964 1.65 11.937c.006.049.082.051.077 0q-.55-6.017-1.674-11.952m-2.392 3.407c-.006-.04-.066-.022-.06.017.693 5.006 1.361 10.024 2.238 15.002.007.042.082.033.076-.01-.62-5.02-1.45-10.017-2.254-15.009m-1.589 3.423c-.003-.034-.058-.035-.054 0a126 126 0 0 0 2.198 15.189c.012.055.092.03.083-.023-.8-5.05-1.648-10.084-2.227-15.166m-.723 11.166c-.428-2.65-.863-5.297-1.26-7.952-.008-.06-.098-.034-.09.025.362 2.62.735 5.24 1.158 7.852.42 2.602.806 5.233 1.403 7.801.007.03.058.024.054-.007-.339-2.583-.85-5.148-1.265-7.719m-2.467-3.335c-.007-.085-.14-.086-.133 0a59.7 59.7 0 0 0 1.965 12.113.04.04 0 0 0 .075-.02 108 108 0 0 1-1.907-12.093m-1.919 1.701c-.004-.03-.05-.03-.047 0a92 92 0 0 0 1.997 12.778c.01.04.066.022.06-.017-.702-4.251-1.484-8.482-2.01-12.761m-.676 8.678c-.451-2.091-.88-4.188-1.26-6.293-.004-.026-.04-.014-.037.01.292 2.127.63 4.246 1.05 6.351a44 44 0 0 0 1.534 6.239.05.05 0 0 0 .098-.027c-.344-2.11-.933-4.19-1.385-6.28m-3.287-4.084c-.007-.035-.057-.02-.052.015a52.8 52.8 0 0 0 3.224 12.598c.024.059.116.038.098-.027-1.17-4.183-2.404-8.323-3.27-12.586m-1.606 3.552a.016.016 0 0 0-.03.008 71 71 0 0 0 3.228 11.113c.02.05.098.032.083-.023-1.028-3.719-2.299-7.364-3.281-11.098m-1.5 5.656c-.006-.014-.028-.008-.023.006.455 1.247.896 2.5 1.371 3.74.007.02.037.011.03-.008-.44-1.252-.918-2.493-1.378-3.738m-21.189 20.121-3.74-6.973c-.017-.031-.063-.004-.047.028l3.626 7.04c1.204 2.339 2.368 4.727 3.72 6.985.034.057.114.007.087-.051-1.094-2.395-2.401-4.709-3.646-7.029m13.252 3.542q-.476-.982-.945-1.967c-.626-1.313-1.238-2.632-1.857-3.948q-1.852-3.944-3.657-7.911c-.014-.032-.07-.009-.057.024q1.626 3.999 3.4 7.93a240 240 0 0 0 1.835 3.961q.465.987.937 1.972a7 7 0 0 0 .997 1.816c.05.053.12-.004.11-.065a6.9 6.9 0 0 0-.763-1.812m8.382 6.682q-.65-1.06-1.282-2.129-1.234-2.088-2.4-4.215a189 189 0 0 1-4.483-8.729c-.018-.036-.07-.004-.054.032q1.837 4.178 3.978 8.202 1.055 1.986 2.171 3.937c.174.304 1.943 3.215 2.28 3.867l-.063.012a.09.09 0 0 0-.064.085c.004.182.08.268.258.276a.14.14 0 0 0 .123-.07c.246-.433-.245-.912-.464-1.268m1.061-4.22a53 53 0 0 1-2.38-4.406c-.014-.028-.053-.004-.041.023a39 39 0 0 0 2.299 4.545 26 26 0 0 0 2.82 4.063c.027.03.077-.009.055-.042-.902-1.406-1.891-2.75-2.753-4.183m4.338.917c-.274-.406-.567-.797-.826-1.213a.027.027 0 0 0-.047.028 9 9 0 0 0 .729 1.294 9.6 9.6 0 0 0 .935 1.121c.03.03.089-.011.061-.047a27 27 0 0 1-.852-1.183m28.051 10.413a22 22 0 0 0-4.305-2.01c-1.5-.623-3.015-1.211-4.521-1.82-.037-.015-.063.047-.027.064 1.47.693 2.932 1.405 4.41 2.083a21.8 21.8 0 0 0 4.398 1.79.059.059 0 0 0 .045-.107m8.718.769a69.7 69.7 0 0 0-14.342-6.393c-.048-.016-.066.057-.02.076 4.852 1.96 9.503 4.35 14.31 6.405a.05.05 0 0 0 .052-.088m5.883-.389a68.7 68.7 0 0 0-14.565-7.307c-.048-.018-.067.057-.021.075a115 115 0 0 1 14.543 7.307.043.043 0 0 0 .043-.075m4.455-1.917a36 36 0 0 0-6.764-3.76 67 67 0 0 0-6.993-2.787c-.024-.008-.034.03-.01.038a75 75 0 0 1 7.106 3.024c2.253 1.097 4.365 2.47 6.617 3.559a.043.043 0 0 0 .043-.074m2.137-2.868a9 9 0 0 0-1.749-.946q-1-.47-2.007-.924l-3.97-1.774c-.04-.018-.077.04-.036.06l3.87 1.947q.952.478 1.912.936a9.6 9.6 0 0 0 1.923.799c.051.011.106-.06.057-.098m1.116-2.61a12.4 12.4 0 0 0-3.404-1.723c-.05-.017-.085.065-.036.086 1.16.512 2.258 1.152 3.385 1.731a.055.055 0 0 0 .055-.094m3.581-3.098a2 2 0 0 1-.34-.096c-.115-.04-.235-.056-.35-.101a3 3 0 0 1-.312-.125 1.6 1.6 0 0 1-.306-.206.09.09 0 0 0-.127.127 1.55 1.55 0 0 0 .64.504 1.3 1.3 0 0 0 .395.09 1.4 1.4 0 0 0 .4-.08c.05-.016.061-.105 0-.113m-84.481 96.698a.035.035 0 0 0-.068.018c1.598 6.24 3.092 12.506 4.699 18.743a.04.04 0 0 0 .075-.021c-1.354-6.298-2.996-12.532-4.706-18.74m10.158 21.798q-1.876-6.695-3.483-13.463-.927-3.879-1.748-7.782c-.006-.03-.05-.017-.045.012a252 252 0 0 0 6.28 27.105 95 95 0 0 0 2.593 7.563.086.086 0 0 0 .166-.046c-1.18-4.485-2.512-8.923-3.763-13.388m5.41-.325c-.17-.838-.452-1.664-.66-2.495l-1.248-5.014a491 491 0 0 0-2.6-10.005.023.023 0 0 0-.045.013q1.2 4.97 2.258 9.972.527 2.472.989 4.957c.16.853.276 1.712.424 2.567a18 18 0 0 0 .872 2.43c.023.07.145.064.138-.02a22 22 0 0 0-.128-2.405m3.926 17.244c-.158-.635-.31-1.273-.482-1.906-.32-1.186-.642-2.37-.981-3.552-.702-2.44-1.309-4.904-1.877-7.378-.002-.01-.017-.005-.015.004.487 2.5.97 5 1.394 7.512a123 123 0 0 0 .681 3.634c.13.644.28 1.282.427 1.922a7.7 7.7 0 0 0 .45 1.623c.053.368.743.436.757-.067a7 7 0 0 0-.354-1.791m6.459 3.749c-.383-1.142-.772-2.283-1.044-3.457-.544-2.347-1.09-4.693-1.611-7.045q-1.563-7.056-3.219-14.09c-.63-2.668-1.32-5.316-2.034-7.962a.043.043 0 0 0-.083.023c1.843 9.462 4.243 18.798 6.42 28.186.315 1.356.57 2.705.751 4.085a28 28 0 0 0 .325 1.946 3.7 3.7 0 0 0 .602 1.67.31.31 0 0 0 .516-.136 6.8 6.8 0 0 0-.623-3.22m1.895-15.135a67 67 0 0 0-1.784-6.738.031.031 0 0 0-.06.016c.374 2.312.654 4.615 1.222 6.893.562 2.253 1.159 4.498 1.713 6.753.01.045.075.026.068-.018-.382-2.303-.741-4.61-1.159-6.906m4.047 21.437a28 28 0 0 0-.67-3.054c-.558-2.1-.948-4.24-1.456-6.352-.023-.098-.172-.056-.15.042a45 45 0 0 1 1.133 6.494c.078 1.039.163 2.073.298 3.106a6.25 6.25 0 0 0 .675 2.824.135.135 0 0 0 .242-.031 6 6 0 0 0-.072-3.03m6.351 6.189a76 76 0 0 0-.828-3.39c-.625-2.374-1.126-4.772-1.637-7.173-1.013-4.759-2.064-9.51-3.099-14.264-.017-.079-.136-.045-.12.033.943 4.736 1.87 9.476 2.836 14.208.483 2.368.983 4.732 1.355 7.121.179 1.155.36 2.31.587 3.456a10.2 10.2 0 0 0 .94 3.42c.094.152.393.154.422-.054a9.8 9.8 0 0 0-.456-3.357m6.406 7.776c-.223-.997-.473-1.988-.717-2.98-.48-1.948-.91-3.906-1.356-5.862q-1.353-5.928-2.915-11.807a.047.047 0 0 0-.09.025q1.434 5.914 2.692 11.869c.418 1.967.82 3.934 1.145 5.919.16.973.307 1.949.469 2.922a5.8 5.8 0 0 0 .802 2.635c.057.073.173.024.195-.052a5.5 5.5 0 0 0-.225-2.669m3-.157c-.437-1.67-.863-3.339-1.208-5.03-.005-.026-.041-.015-.038.01.25 1.744.527 3.491.913 5.211a25.4 25.4 0 0 0 1.48 4.887c.037.082.15.02.136-.057-.318-1.7-.846-3.349-1.283-5.021m4.855 6.029c-.03-.047-.116-.016-.093.04l.19.456c.06.146.113.299.187.438q.112.214.229.426a3 3 0 0 0 .273.394c.031.039.09-.003.079-.045a6.7 6.7 0 0 0-.865-1.709m-30.527 12.608q-.13-.507-.236-1.02a22 22 0 0 1-.339-2.202c-.012-.113-.191-.115-.18 0q.108 1.094.32 2.174.11.553.248 1.1a4 4 0 0 0 .346.999.035.035 0 0 0 .066-.018 6 6 0 0 0-.225-1.033m9.978 6.86c-.319-2.105-.659-4.207-.967-6.314a567 567 0 0 1-1.7-12.742q-.444-3.6-.819-7.21c-.004-.039-.065-.04-.062 0 .669 8.459 1.638 16.9 3.022 25.272.39 2.36.74 4.793 1.36 7.104.012.04.082.034.077-.01-.194-2.039-.605-4.074-.911-6.1m5.497 8.754c-.132-.553-.27-1.103-.398-1.656a52 52 0 0 1-.638-3.352c-.36-2.207-.707-4.417-1.018-6.632-.639-4.544-1.187-9.095-1.571-13.669-.003-.034-.057-.035-.055 0 .334 4.504.784 9.005 1.412 13.478q.474 3.38 1.083 6.738c.205 1.12.417 2.24.585 3.366.085.566.162 1.132.249 1.697a2.27 2.27 0 0 0 .38 1.315.063.063 0 0 0 .105-.028 2.1 2.1 0 0 0-.134-1.258m4.373.948q-.625-2.914-1.15-5.85c-.706-3.943-1.305-7.914-1.73-11.898-.002-.02-.033-.02-.03 0 .327 3.932.778 7.845 1.434 11.737q.495 2.941 1.12 5.858a41.5 41.5 0 0 0 1.504 5.892.04.04 0 0 0 .076-.02c-.274-1.929-.815-3.815-1.224-5.719m2.122-7.73c-.006-.03-.05-.016-.045.013.493 3.076.959 6.157 1.545 9.217a37 37 0 0 0 2.452 8.496c.016.036.078.01.064-.027-2.082-5.71-2.912-11.748-4.016-17.699m6.538 12.781a.02.02 0 0 0-.038.01 41.7 41.7 0 0 0 2.431 7.2c.01.024.053.007.043-.018a65 65 0 0 1-2.437-7.192m5.438 8.852c-.016-.042-.082-.026-.068.018a93 93 0 0 0 1.654 4.783c.014.037.073.022.06-.017a93 93 0 0 0-1.646-4.784m16.643-33.86c-.012-.032-.065-.018-.052.014a51.2 51.2 0 0 0 4.92 9.553c.02.029.066.003.047-.028a73 73 0 0 1-4.914-9.54m12.049 11.343q-1.646-2.674-3.203-5.401c-2.044-3.567-3.94-7.21-5.763-10.894q-1.571-3.176-3.016-6.413c-.01-.023-.044-.003-.034.02a168 168 0 0 0 11.435 22.22 63 63 0 0 0 3.768 5.75c.03.04.09-.01.067-.051-1.006-1.788-2.179-3.484-3.254-5.231m9.087 4.332a174 174 0 0 1-3.397-4.903q-3.236-4.873-6.082-9.987a168 168 0 0 1-3.192-5.958c-.012-.022-.045-.003-.034.02a143.5 143.5 0 0 0 11.898 20.506 34.6 34.6 0 0 0 4.037 5.186.07.07 0 0 0 .11-.085 56 56 0 0 0-3.34-4.779m8.155 4.199a25 25 0 0 1-1.493-2.103q-1.528-2.323-3.053-4.647-3.089-4.7-6.21-9.379c-.014-.02-.048-.002-.034.02q3.109 4.902 6.242 9.788c1.01 1.573 2.014 3.149 3.03 4.717a20 20 0 0 0 1.359 1.91 4.2 4.2 0 0 0 1.592 1.375.051.051 0 0 0 .057-.075c-.411-.586-1.031-1.046-1.49-1.606m5.515 0a72 72 0 0 1-2.164-2.75 307 307 0 0 0-4.274-5.483c-.03-.038-.094.012-.068.053 1.31 2.006 2.599 4.02 4 5.964a43 43 0 0 0 1.943 2.506 10.2 10.2 0 0 0 2.404 2.264.09.09 0 0 0 .123-.123 26 26 0 0 0-1.964-2.431m5.317 1.195a17 17 0 0 0-1.234-1.343 23.4 23.4 0 0 0-2.747-2.287c-.037-.026-.078.03-.048.061.825.85 1.624 1.724 2.437 2.584.395.42.787.842 1.191 1.253a14 14 0 0 0 1.311 1.26.07.07 0 0 0 .11-.085 8.5 8.5 0 0 0-1.02-1.443m6.049 1.162a14 14 0 0 0-1.254-1.077c-.425-.34-.866-.66-1.304-.983-.064-.047-.146.06-.085.11.42.36.837.72 1.271 1.062a14 14 0 0 0 1.316.962.047.047 0 0 0 .056-.073m4.877 1.431-1.018-.854c-.027-.023-.065.016-.038.038l1.023.85c.023.018.056-.014.033-.034m7.234-163.489a43.66 43.66 0 0 0-17.861-9.244.04.04 0 0 0-.021.075 46.6 46.6 0 0 1 17.843 9.208c.027.022.066-.015.039-.039m-6.612-6.985c-.034-.012-.047.04-.014.052a34.1 34.1 0 0 1 12.432 8.017c.046.047.116-.024.072-.072a29.14 29.14 0 0 0-12.49-7.997m59.626 100.672c-1.064 7.158-2.132 14.315-3.093 21.487-.005.035.056.043.061.009 1.096-7.152 2.084-14.317 3.077-21.483.004-.03-.04-.042-.045-.013m-15.728 46.06-.153.267zm12.383-42.748c-1.58 8.383-3.306 16.804-5.713 24.994a71 71 0 0 1-1.759 5.236 12.4 12.4 0 0 0-.88 2.608 13 13 0 0 1-.656 2.652 46 46 0 0 1-3.374 7.257c1.04-1.842 2-3.74 2.889-5.668.38-.823.71-1.673 1.125-2.478a18.4 18.4 0 0 0 1.282-2.43c.587-1.734.979-3.549 1.448-5.317 1.001-3.776 1.86-7.59 2.682-11.41q1.656-7.685 2.978-15.438c.003-.015-.02-.021-.022-.006m-21.967 54.326c-.027.022.012.06.04.038a38 38 0 0 0 9.39-11.349q-.648 1.117-1.35 2.199a41.4 41.4 0 0 1-8.08 9.112m11.055-10.145a49.8 49.8 0 0 1-5.117 10.188c-.025.039.035.073.06.036a42.5 42.5 0 0 0 5.163-10.195c.023-.067-.082-.095-.106-.03M375.76 372.56c-.02-.003-.028.027-.008.03q3.75.679 7.43 1.688a.012.012 0 0 0 .006-.023q-3.675-1.012-7.428-1.694m14.818 6.877c-.04-.021-.075.04-.035.061a7.7 7.7 0 0 1 2.822 2.516c.016.025.057.002.04-.023a7.8 7.8 0 0 0-2.827-2.554M211.085 208.933a15.7 15.7 0 0 0-2.628-.823l-2.731-.778a.078.078 0 0 0-.042.15l2.716.835a16 16 0 0 0 2.652.74c.065.007.09-.096.033-.124m-1.479 3.124c-.473-.645-1.142-.667-1.88-.828-.831-.182-1.655-.411-2.476-.633-1.683-.455-3.373-.89-5.071-1.283-3.402-.789-6.826-1.488-10.28-2.003-.034-.005-.05.045-.014.053 3.367.721 6.73 1.461 10.063 2.33 1.648.428 3.293.869 4.93 1.34.816.235 1.638.476 2.44.761.75.267 1.41.732 2.213.446a.126.126 0 0 0 .075-.183m8.119 2.264a6 6 0 0 0-1.249-.328l-1.397-.313-2.742-.614c-.059-.013-.084.076-.025.09l2.722.688 1.336.337a6 6 0 0 0 1.316.286.079.079 0 0 0 .04-.146m3.371 6.723a12.4 12.4 0 0 0-2.784-1.16c-1.01-.367-2.018-.736-3.03-1.097l-5.95-2.121c-4.004-1.428-8.024-2.81-12.038-4.208-.029-.01-.04.035-.012.045 3.98 1.516 7.956 3.048 11.948 4.535l5.926 2.207c1.007.375 2.017.742 3.026 1.11a12.3 12.3 0 0 0 2.86.892c.116.012.135-.148.054-.203m-4.667 1.725c-.02-.003-.028.027-.008.03a9.5 9.5 0 0 1 2.844.874c.018.009.033-.018.015-.027a9.5 9.5 0 0 0-2.851-.877m9.223 22.868c.012-.017-.015-.031-.027-.016-3.487 4.636-7.049 10.068-5.749 16.149.006.025.043.014.038-.01-1.148-6.015 2.594-11.387 5.738-16.123m-4.966 20.33-.408-.899c-.005-.012-.026-.003-.021.01l.369.915a6.5 6.5 0 0 0 .38.884.031.031 0 0 0 .058-.024 6.5 6.5 0 0 0-.378-.886m-29.161-37.784a13.64 13.64 0 0 0-3.204 8.807.05.05 0 0 0 .102 0 17.1 17.1 0 0 1 3.2-8.731c.042-.057-.053-.13-.098-.076m-68.834-84.43q-.22-.576-.443-1.152a20 20 0 0 1-.756-2.213c-.377-1.476-.95-2.876-1.466-4.312q-.814-2.261-1.639-4.519c-.012-.032-.064-.019-.053.015q1.052 3.215 2.112 6.428c.166.505.268 1.035.467 1.528.219.54.485 1.046.683 1.596a25.5 25.5 0 0 1 .98 3.262c-.008-.014-.014-.03-.034-.03h-.069a.06.06 0 0 0-.058.044c-.121.39.407.434.463.006a1.5 1.5 0 0 0-.187-.653m-5.078-5.226q-.474-1.226-.955-2.448l-2-5.08c-.016-.04-.083-.024-.067.02l1.932 5.201q.475 1.278.957 2.552a18 18 0 0 0 .99 2.454.059.059 0 0 0 .108-.045 19.5 19.5 0 0 0-.965-2.654m-6.889-10.808c-.01-.023-.047-.014-.038.01 1.01 2.892 1.957 5.835 3.169 8.65.014.032.067.01.057-.024-.899-2.928-2.086-5.781-3.188-8.636m-4.277-2.339c-.015-.02-.049 0-.034.02a8.3 8.3 0 0 1 1.23 2.576.016.016 0 0 0 .03-.009 8.3 8.3 0 0 0-1.226-2.587m-17.551 1.577q-1.55-2.33-3.11-4.651c-.015-.021-.048-.002-.035.02q1.509 2.353 3.023 4.703c1.01 1.563 1.972 3.175 3.09 4.663.033.043.102.006.074-.043-.918-1.618-2.012-3.143-3.042-4.692m7.071 6.883a28 28 0 0 0-2.045-3.59 124 124 0 0 0-2.336-3.664 123 123 0 0 0-5.054-7.08c-.015-.019-.048 0-.034.02q2.487 3.485 4.808 7.088a168 168 0 0 1 2.245 3.582c.747 1.223 1.411 2.559 2.273 3.704.048.063.18.03.143-.06m3.438.807a.08.08 0 0 0-.09.012l-.039.037c-.01.01-.002.022-.004.033-.224-.308-.966-1.675-1.045-1.806l-1.15-1.907q-1.149-1.908-2.314-3.806a640 640 0 0 0-4.71-7.564.023.023 0 0 0-.041.023q2.812 4.878 5.688 9.716c.949 1.595 1.91 3.183 2.869 4.772.097.16.478 1.061.848.865.178-.095.143-.28-.012-.375M297.612 72.08c-.017-.01-.032.017-.015.028l3.132 1.932c.012.008.024-.012.011-.02zm2.86 4.022a37 37 0 0 0-3.086-2.28c-.018-.013-.04.016-.023.03a37 37 0 0 0 3.066 2.305c.034.021.074-.029.043-.055M64.368 17.622c21.696-2.897 36.604 6.343 45.92 15.887l-14.718 8.78 42.514 21.767 2.73-48.758-15.599 9.306a82 82 0 0 0-4.328-4.551C104.783 4.403 84.457-2.291 62.107.693s-40.206 14.776-51.64 34.103A83.7 83.7 0 0 0 0 63.154l16.917 2.351c.25-1.73 6.583-42.426 47.451-47.883"/><path fill="currentColor" d="M84.665 123.711a15 15 0 0 1-.73-1.607 59 59 0 0 1-5.48 1.022c-21.696 2.897-36.605-6.343-45.921-15.886l14.718-8.781L4.738 76.692l-2.73 48.759 15.6-9.306a82 82 0 0 0 4.328 4.55c16.104 15.65 36.43 22.345 58.779 19.36a74.6 74.6 0 0 0 16.907-4.264c-5.965-2.223-11.06-6.078-12.957-12.08"/></svg>