<svg xmlns="http://www.w3.org/2000/svg" data-name="Layer 2" viewBox="0 0 59.54 97.02"><g data-name="Layer 1"><g data-name="Layer_1"><g fill="currentColor" data-name="2659733510560"><path d="M38.43 89.01s-2.54.9-4.99.9c-1.62 0-5.02-1.08-5.76-2.57 2.13 1.07 3.54 1.82 5.99 1.82 2.3 0 4.31-.82 4.32-.82l.45.68Zm-5.1-47.31c.66-.3 2.01-1.5 3.24-3.35.66-.98 1.27-1.75 1.83-2.35.57-.61 1.06-1.05 1.46-1.38.37-.3 1.04-1.29 1.71-2.28.62-.91 1.24-1.82 1.67-2.25.49-.48 1.32-.77 2.29-.88 1-.11 2.16-.04 3.24.19.96.21 1.75.78 2.37 1.5.8.93 1.33 2.1 1.59 3 .53 1.86.37 3.7-.11 5.29-.65 2.17-1.91 3.89-2.83 4.6-.28.48-1.8 2.99-2.75 3.81-.99.84-3.86.74-5.02.22 1.3.11 3.4 0 4.44-.89.94-.81 2.6-3.65 2.61-3.66l.05-.08.08-.06c.8-.58 1.97-2.16 2.58-4.19.44-1.45.58-3.12.1-4.79-.23-.81-.7-1.85-1.41-2.67-.51-.59-1.14-1.06-1.89-1.22-.99-.21-2.05-.28-2.96-.18-.78.09-1.43.29-1.76.63-.37.38-.97 1.25-1.56 2.12-.71 1.04-1.42 2.08-1.88 2.46-.38.31-.85.73-1.37 1.29-.53.57-1.12 1.3-1.74 2.24-.87 1.31-2.27 3.14-3.98 2.87Z"/><path d="M35.52 40.66s-3.04.58-4.6.43c-.81-.08-1.58-.52-2.4-1s-1.71-1-2.67-1.13c-.84-.12-1.65-.04-2.34.17-.82.24-1.49.64-1.91 1.06-.3.3-.57.71-.86 1.15-.52.78-1.1 1.65-2.05 2.32-1.14.8-2.78.92-4.07 1.02-.45.03-.85.06-1.15.12-.51.09-1.01.38-1.48.83-.51.49-.99 1.17-1.4 1.99-.44.88-.81 1.55-1.27 2.11-.47.58-1.03 1.04-1.82 1.49-.53.3-1.11.59-1.69.88-1.05.52-2.09 1.04-2.64 1.55-.4.37-.78 1-1.08 1.7-.33.77-.56 1.63-.63 2.35s-.09 1.86-.1 2.96c-.02 1.15-.04 2.26-.11 2.82-.03.23-.06.42-.09.61-.17 1.1-.4 2.71-.18 3.2l.21.46c.98 2.11 3.36 7.22 4.4 9.04.93 1.63 2.61 3.01 3.77 3.96.22.18.43.35.57.47.68.58 1.41 1.6 2.18 2.67.57.79 1.15 1.61 1.74 2.27.73.82 1.93 1.84 3.25 2.63 1.05.63 2.18 1.12 3.2 1.27 3.15.65 6.48.04 6.49.04-1.96.91-4.41 1.14-6.61.84-1.15-.16-2.39-.7-3.53-1.38-1.4-.84-2.67-1.92-3.45-2.8-.61-.68-1.21-1.53-1.8-2.35-.73-1.02-1.43-2-2.03-2.51l-.56-.47c-1.22-1-2.97-2.44-3.98-4.2-1.06-1.86-3.45-6.99-4.44-9.1l-.21-.46c-.34-.73-.08-2.49.1-3.7l.09-.6c.07-.52.09-1.6.1-2.72.02-1.12.04-2.28.11-3.03.08-.82.33-1.77.7-2.62.35-.81.8-1.55 1.29-2.01.65-.6 1.74-1.14 2.85-1.69.57-.28 1.14-.57 1.64-.85.7-.4 1.18-.79 1.58-1.28.41-.5.75-1.12 1.17-1.95.46-.91.99-1.67 1.58-2.23.6-.57 1.26-.94 1.94-1.06.34-.06.77-.09 1.24-.13 1.19-.09 2.7-.21 3.63-.86.81-.57 1.34-1.37 1.82-2.08.32-.48.62-.93.97-1.28.51-.51 1.32-1 2.29-1.28.81-.24 1.74-.34 2.71-.2 1.13.16 2.09.72 2.99 1.24.74.43 1.43.83 2.04.89 1.43.14 4.76-.42 4.77-.42l-.25.87Z"/><path d="M35.45 52.18c.44.87.73 1.77.92 2.62.25 1.12.32 2.15.32 2.93 0 1.3.6 4.77.6 4.78l-.87.15s-.61-3.56-.61-4.93c0-.74-.07-1.7-.3-2.74-.18-.79-.44-1.62-.85-2.42-.72-1.44-1.44-3.17-2.06-4.67-.64-1.55-.98-2.39-.88-4.13.62 2.07 2.72 6.38 3.73 8.4Zm-14.24-.71c0 .83.12 1.9.29 2.96.25 1.59.59 3.15.77 3.81.19.69.69 1.75 1.28 3.01.33.69.68 1.44 1.02 2.21.54 1.22 1.08 2.42 1.51 3.33.36.75.64 1.31.78 1.53l-.74.49c-.17-.25-.47-.85-.84-1.64-.44-.93-.98-2.14-1.52-3.35-.35-.78-.69-1.52-1.01-2.19-.61-1.3-1.13-2.4-1.34-3.16-.18-.67-.53-2.27-.79-3.91-.17-1.11-.3-2.23-.3-3.09 0-2.06-.7-4.86-.7-4.86.74 1.09 1.59 2.92 1.59 4.86M9.92 53.68s.15 2.85.35 4.15c.09.6.22 1.33.37 2.1.18.95.39 1.96.58 2.87.16.76.45 1.46.82 2.1.4.67.9 1.26 1.46 1.75.5.44 1.15 1.16 1.87 1.95.99 1.09 2.11 2.33 3.11 3.14.83.67 1.61 1.08 2.36 1.28.72.19 1.42.18 2.1 0 .71-.19 1.46-.51 2.09-.86s1.13-.73 1.35-1.03l.72.51c-.29.41-.9.88-1.64 1.29-.69.39-1.51.74-2.3.95-.83.22-1.68.24-2.56 0-.86-.23-1.74-.7-2.68-1.45-1.06-.85-2.21-2.12-3.22-3.23-.7-.77-1.33-1.47-1.8-1.88-.63-.55-1.2-1.21-1.64-1.97-.42-.71-.74-1.51-.92-2.36-.68-3.2-1.27-6.01-.44-9.31Z"/><path d="M.67 66.13s1.15 2.28 1.72 2.94c.33.39.77.85 1.23 1.34.42.44.86.91 1.28 1.38.36.4 1.14.99 2.09 1.63 1.19.8 2.62 1.66 3.81 2.32.96.54 1.88.79 2.72.82.93.03 1.77-.2 2.5-.62.6-.34 1.08-.92 1.41-1.55.4-.77.59-1.61.54-2.17l.88-.08c.06.71-.16 1.73-.64 2.65-.4.77-.99 1.48-1.75 1.91-.87.49-1.87.77-2.97.73-.98-.04-2.03-.32-3.12-.93-1.21-.67-2.66-1.55-3.87-2.36-1-.67-1.84-1.31-2.25-1.77-.38-.43-.84-.91-1.27-1.36-.49-.52-.96-1.01-1.27-1.37-.65-.75-1.53-2.79-1.54-2.79l.49-.72ZM46.3 81.74c-1.97-1-1.64-1.3-4.13-1.85a72 72 0 0 1-4.74-1.21c-1.65-.48-3.68-1.35-5.47-2.26-1.92-.97-3.58-2-4.21-2.67-.57-.6-.96-1.28-1.21-1.99a7.2 7.2 0 0 1-.42-2.48c0-1.48.47-3.13 1.32-4.49.77-1.23 1.85-2.22 3.2-2.64.81-.26 1.72-.42 2.6-.49.94-.08 1.86-.05 2.6.06 1.43.23 3.39.95 5.28 1.64 1.11.41 2.19.81 3.12 1.09l.71.21c2.19.66 3.97 1.19 5.44 2.22.78.55 1.74 1.25 2.71 2.05.97.81 1.93 1.71 2.7 2.66.81 1 1.16 2.02 1.26 3.06.1 1.01-.03 2.01-.18 3.01-.13.9-.55 1.88-1.05 2.76-.66 1.18-1.49 2.19-1.96 2.55s-1.38.54-2.35.74c-.85.17-1.74.35-2.28.63-.45.23-1.19.69-2.04 1.21-1.39.86-3.05 1.88-4.18 2.39-.74.34-1.87.6-3 .8-4.06.7-6.33-.16-7.21-.51 2.25.05 4.19.14 7.06-.36 1.07-.18 2.12-.43 2.79-.73 1.09-.49 2.71-1.49 4.08-2.33.86-.53 1.61-.99 2.09-1.24.65-.34 1.61-.53 2.52-.72.87-.17 1.68-.34 1.99-.57.39-.3 1.12-1.21 1.73-2.29.45-.8.83-1.68.94-2.46.14-.96.27-1.9.18-2.8-.09-.87-.38-1.74-1.07-2.59-.73-.9-1.65-1.77-2.58-2.54a43 43 0 0 0-2.66-2.01c-1.35-.95-3.06-1.46-5.18-2.1l-.71-.21c-.94-.28-2.04-.69-3.17-1.1-1.85-.68-3.78-1.39-5.11-1.6-.66-.1-1.51-.13-2.4-.05-.82.07-1.66.22-2.4.45-1.13.36-2.05 1.21-2.71 2.26-.76 1.21-1.18 2.7-1.18 4.02 0 .69.1 1.45.36 2.19.22.6.54 1.17 1.02 1.68.56.59 2.13 1.55 3.97 2.49 1.75.88 3.72 1.73 5.32 2.2a81 81 0 0 0 4.68 1.2c1.34.3 3.55 1.67 3.94 2.71Z"/><path d="M46.54 50.33s.4 1.6.44 3.38c.02.83.07 1.39.17 1.87.1.47.24.87.45 1.39.1.24.22.49.35.76.43.87.96 1.92 1.23 4.06.16 1.29.35 2.39.53 3.25.19.9.38 1.52.54 1.82l-.78.41c-.2-.37-.42-1.07-.63-2.05-.19-.88-.38-2-.55-3.33-.25-1.98-.74-2.96-1.15-3.77-.14-.28-.27-.53-.38-.82-.22-.56-.38-1-.49-1.54-.11-.53-.16-1.13-.19-2.03-.04-1.67-.42-3.18-.42-3.18l.86-.21Zm-1.08 8.27s-1.39 3.11-1.29 6.12h-.78c0-1.94.73-4.62 2.07-6.12m.03 27.96s-.28 1.02-.09 2.48c.09.66.43 2.15.79 3.64.36 1.45.91 3.45 1.18 4.34h-.92c-.25-.81-.74-2.62-1.11-4.13s-.72-3.03-.81-3.74c-.21-1.64.11-2.83.11-2.83zm-28.35 2.5s.27.5.74 2.21c.4 1.46.88 4.85 1.01 5.76H18c-.14-1-.6-4.17-.97-5.53-.44-1.61-.7-2.09-.7-2.09zm1.98.75s1.86 1.62 3.23 1.8c1.49.2 3.16.3 3.17.3-2.63.64-4.81.39-6.96-1.42l.57-.67Zm11.64 1.24c.46 1.83.53 2.63 1.42 5.72-.78-1.29-2.65-4.25-1.42-5.72M28.68 74s-.91 2.02-1.15 4.13c-.24 2.1.39 4.65.39 4.65-1.1-1.28-1.23-3.46-1.04-5.11.25-2.24 1-4.02 1-4.03l.81.36Z"/><path d="M46.92 47.56s0 1.99-.38 3.13c-.21.63-.91 1.54-1.83 2.37-.81.74-1.79 1.45-2.75 1.87.88-1.27 3.04-2.1 3.74-4.53.33-.99.33-2.87.33-2.87l.89.02Zm-5.82-7.31s1.77 2.09 3.1 2.57c.73.26 1.82.45 2.88.47.91.02 1.99-.21 2.57-.47l.18.61c-.47.21-1.13.51-1.96.58-1.42.11-3.16-.15-3.99-.45-1.34-.48-2.4-2.06-2.78-3.31M21.13 51.67l-.64.41c-.4-1.76-2.59-3.41-2.6-3.42 1.33.62 2.69 1.49 3.23 3.01Zm14.96 5.94s.43-.76 1.32-1.22c.5-.26 2.43-1.24 2.94-.82-1.41.5-1.63.85-2.45 1.27-.71.37-1.27 1.19-1.27 1.2zm-4.92 6.99c-.05.15-.64 1.79-1.07 2.91-.35.92-.79 1.8-1.1 2.44l-.24.49c-.12.26-.15.57-.1.84.05.25.17.46.35.56.25.15 1.49.56 2.78.95 1.11.33 2.25.63 2.83.71.57.08.93.03 1.18-.1.24-.12.39-.33.55-.56.17-.24.38-.64.61-1.2.23-.55.49-1.25.78-2.12.22-.65.34-1.29.26-1.84-.07-.52-.34-.98-.89-1.31-.73-.43-1.9-1.09-2.94-1.61-.71-.36-1.35-.64-1.7-.71-.49-.1-.78-.03-.97.1-.17.12-.26.31-.33.44Zm-1.59 2.71c.44-1.14 1.06-2.9 1.07-2.9v-.02c.1-.19.23-.47.53-.68.29-.21.73-.33 1.39-.19.4.08 1.08.38 1.83.75 1.04.52 2.23 1.19 2.97 1.63.72.43 1.06 1.02 1.16 1.71.09.65-.05 1.37-.29 2.09-.29.88-.56 1.59-.79 2.16-.25.6-.48 1.03-.67 1.3-.2.28-.4.55-.75.73-.34.18-.8.26-1.5.16-.6-.08-1.77-.39-2.91-.73-1.32-.39-2.61-.83-2.9-1-.32-.19-.53-.53-.61-.92-.08-.38-.04-.81.14-1.18l.24-.5c.31-.64.75-1.51 1.08-2.39Zm16.74 8.65s1.25-1.34 1.68-2.71c.44-1.39.48-2.66.48-2.66.83 1.94-.29 4.55-2.16 5.37m-34.69 4.75s1.05-.39 2.54-1.27c1.47-.86 2.28-1.98 2.28-1.98.06 1.94-3.29 3.01-4.83 3.25ZM7.16 66.64c-1.13.61-2.43 2.17-2.43 2.17.25-.74 1.11-2.09 2.18-2.66 1.21-.65 3.44-1.32 3.45-1.32-1.08.68-2.06 1.21-3.19 1.81Zm-1.84 2.63s1.2-.58 2.09-1.24c.94-.69 1.89-1.46 1.89-1.46-1.05 1.9-2.53 2.39-3.99 2.7Zm2.91-.11s.75-.32 1.42-.77c.68-.46 1.19-1.19 1.2-1.2-.32 1.32-1.31 1.92-2.62 1.96Zm11-9.65s-1.73.35-3.12.89c-1.37.53-2.79 1.84-2.79 1.84.44-1.13 1.33-1.75 2.48-2.2.99-.38 2.38-.68 3.44-.53Zm-.03 1.56s-1.71.86-2.45 1.29c-.73.42-1.51 1.14-1.51 1.14.68-1.81 2.41-1.95 3.96-2.43m-3.75 3.16c.92-.17 2.12-.9 3-1.35 1.03-.53 1.94-1.45 1.95-1.45-.43 1.64-3.1 2.91-4.94 2.81Zm4.27 7.1s.66.11 2.46-.94c1.84-1.08 2.22-1.66 2.22-1.66-.62 1.78-2.84 2.96-4.68 2.6m-3.58 2.66c-.18.19-.34.45-.85.79-1.12.76-2.03 1.01-3.36.68 0 0 1.07-.03 1.75-.35.8-.38 1.75-.94 2.35-1.59.29-.32.51-.86.51-.86.08.45-.04.94-.4 1.33m8.69-18.45s1.45-1.4 2.19-1.77c.37-.19 1.26-.48 2.16-.74.87-.25 1.76-.47 2.2-.51.91-.09 1.89.18 1.89.18-2.05.23-2.7.51-3.94.86-.87.25-1.72.53-2.06.7-.92.46-1.55.75-2.43 1.28Zm4.66-.89c.97-.38 2.46-.58 3.49-.41-1.07.36-2.12.46-3.29.92-1.11.43-3.48 1.45-3.49 1.45 1.04-.68 2.15-1.52 3.28-1.97Zm-3.64 2.71s1.71-.15 2.64-.51c.46-.18 1.13-.47 1.75-.74.64-.29 1.22-.56 1.43-.68-.49.91-1.85 1.46-2.82 1.84-.95.37-2.03.31-2.99.09ZM36.81 62s.75-1.09 1.75-2.4c.92-1.2 1.97-1.78 3.23-2.45 0 0-1.81 1.51-2.79 2.79-1 1.3-1.74 2.38-1.74 2.38z"/><path d="M41.66 59.74c-.67 1.17-.85 1.17-1.81 1.77 0 0 .6-.76 1.34-2.05.73-1.27 1.36-4.02 1.36-4.03.12 1.46-.14 3.02-.88 4.31Zm-4.85-14.7s1.18 2.25 3.78 2.6c-1.39.79-3.55-.95-3.78-2.6"/><path d="M37.7 47.49s1 1.19 2.12 1.53c.83.25 2.67.11 3.42-.26-1.7 1.44-4.93 1.16-5.55-1.26Zm2.72 31.5s.16 2.13.79 3.07c.31.46 2.1 2.36 2.49 2.36-1.46-.44-2.32-1.31-3.11-2.12-.7-1.03-1.11-3.21-1.11-3.21l.93-.1Zm-6.8 4.07s3.06 3.02 5.42 3.27c-1.78.8-4.77-1.65-5.42-3.27m17.1-9.41c-.12.68-.33 1.26-.6 1.78-.74 1.44-1.73 1.88-3.35 2.05 1.73-.6 3.09-2.1 3.4-3.93.22-1.27.22-3.7.22-3.71.39 1.25.55 2.48.32 3.8Zm-27.76.2c-.7.83-1.41 1.66-2 2.71-.7 1.24-1.5 2.77-2.89 3.23.9-.85 1.61-2.12 2.33-3.39.61-1.09 1.22-2.18 1.98-3.06l.59.5Zm1.28 13.73c1.24-2.29.64-4.41.36-6.78 1.07 1.92 1.81 5.32-.36 6.78m17.87-8.28s.69 2.1 1.75 3.25c-1.06-.22-2.17-2.01-2.48-3.02l.74-.23Zm-2.34 9.37c-.74.48-1.97 1.25-3.82 1.75-1.73.47-3.56.57-4.82.25 0 0 1.57-.05 3.55-.44 1.93-.39 4.66-2.19 4.67-2.2l.42.65Zm-11.82 1.64s.55.15 1.08 1.38c.65 1.51.59 2.7.6 4.04-.68-2.47-1.23-3.79-1.68-5.42m14.81-2.37c-1.51 1.86-3.47 3.34-5.97 3.44 1.42-.46 2.3-.87 3.05-1.45s1.39-1.33 2.33-2.48l.6.49Zm6.76-66.95-1.95 6.38 7.94.16-1.85-2.02c3.83-2.16 6.98-6.09 5.51-10.05-1.97-5.32-9.52-5.71-13.94-3.5l.62 2.1c7.05-2.05 14.06 2.55 5.66 9.12l-2.01-2.19Zm-9.58-8.28 4.7 4.74-6.95 3.84.7-2.65c-4.4-.13-8.7-2.91-9.25-7.1C28.4 5.92 32.95 1.27 38.83 0l.66 2.93c-7.19 1.48-10.78 10.75-.29 12.65l.75-2.87Z"/></g></g></g></svg>