<svg xmlns="http://www.w3.org/2000/svg" data-name="tie off" viewBox="0 0 504.225 312.61"><path fill="currentColor" d="M504.18 135.569c-2.588-3.057-5.153-6.13-7.822-9.115-2.664-2.979-5.447-5.844-8.263-8.679a188 188 0 0 0-15.346-14.257 70 70 0 0 0-17.698-10.68c-6.578-2.636-13.57-4.26-19.576-8.163-3.077-1.999-5.843-4.403-8.739-6.645a33.5 33.5 0 0 0-7.045-4.621 75 75 0 0 0-9.33-8.175 31.4 31.4 0 0 0-6.07-3.575 21.4 21.4 0 0 0-7.328-1.687c-2.685-.15-5.386.044-8.07.151l-8.167.328-33.09 1.328-16.29.655a134 134 0 0 0-14.584 1.188 45.36 45.36 0 0 0-26.017 12.431 11.2 11.2 0 0 0-1.827 2.154c-5.948.26-11.899.518-17.835.93a36.7 36.7 0 0 0-11.045 2.17 33.4 33.4 0 0 0-8.202 4.827 54 54 0 0 0-7.793 7.675 91 91 0 0 0-3.474 4.335c-.823 1.1-1.56 2.237-2.29 3.387-2.603-.692-5.2-1.404-7.786-2.153q-5.845-1.693-11.666-3.476l-5.755-1.754q-1.47-.446-2.942-.876c-.087-.026-.176-.045-.263-.07a19.2 19.2 0 0 0-6.614-3.131c-3.463-.836-7.118-.592-10.65-.579l-11.335.043-17.493.067c-.854-1.09-1.681-2.19-2.577-3.253-.96-1.137-1.96-2.24-2.946-3.354q-2.959-3.34-5.946-6.655c-3.313-3.695-6.587-8.031-11.103-10.33a13.26 13.26 0 0 0-12.732.433 17.54 17.54 0 0 0-8.12 10.601 24.8 24.8 0 0 0-.742 8.623 33 33 0 0 0 .688 4.476c.154.698.324 1.393.531 2.076a11 11 0 0 0 .502 1.488c-1.47.756-2.917 1.56-4.363 2.359-6.395 3.532-12.858 6.964-19.185 10.617-5.053 2.918-9.936 6.734-11.222 12.744a19.13 19.13 0 0 0 4.051 15.78c3.738 4.619 9.415 7.42 15.124 8.71a42.7 42.7 0 0 0 9.95.962 56 56 0 0 0 10.895-1.127c1.651-.352 3.303-.685 4.948-1.06a.8.8 0 0 0 .3.02 1.7 1.7 0 0 0 .428-.131 1.8 1.8 0 0 0 .331-.192c5.047 1.78 11.376 1.405 16.388 1.964 1.068.12 2.132.267 3.196.42 4.935 5.075 9.607 10.348 14.184 15.756a159 159 0 0 0 15.51 16.302c11.004 9.798 23.36 17.892 35.365 26.377 6.06 4.284 12.051 8.677 17.735 13.454 5.609 4.714 10.896 9.793 16.254 14.785a196 196 0 0 0 16.705 14.279 86 86 0 0 0 9.187 5.986 99 99 0 0 0 3.423 1.814c4.342 4.31 7.608 9.383 10.677 14.645 3.101 5.316 6.007 10.808 10.018 15.516 4.599 5.399 10.59 8.72 17.319 10.778a91.4 91.4 0 0 0 24.154 3.852c4.193.113 8.386-.125 12.58-.01a73.4 73.4 0 0 1 12.587 1.615c8.294 1.682 16.55 3.518 24.892 4.953a214 214 0 0 0 25.26 2.986 250 250 0 0 0 25.762-.41c16.173-.834 32.618-1.58 48.296 3.24a87 87 0 0 1 5.499 1.905c.234.09.385-.284.17-.402-13.949-7.632-30.738-7.82-46.21-7.238-8.618.325-17.223.988-25.85.972a178 178 0 0 1-25.46-2.014c-8.315-1.217-16.561-2.854-24.782-4.582-4.113-.865-8.215-1.814-12.372-2.447a76 76 0 0 0-12.408-.739c-4.185.051-8.355.11-12.532-.212a90.5 90.5 0 0 1-12.46-1.84c-7.211-1.582-14.584-3.848-20.111-8.969-9.013-8.35-12.158-21.109-20.98-29.585 1.137.557 2.275 1.115 3.406 1.685 7.255 3.66 13.849 8.45 20.991 12.313.582.315 1.17.622 1.755.93a67.6 67.6 0 0 0 15.668 10.106.097.097 0 0 0 .098-.168c-4.023-2.75-8.113-5.405-12.176-8.1a136 136 0 0 0 16.207 6.81q2.734.937 5.51 1.735c.128.037.174-.15.054-.196a185 185 0 0 1-21.961-9.822c-7.016-3.762-13.474-8.404-20.327-12.433-3.545-2.084-7.252-3.847-10.914-5.71a91 91 0 0 1-9.868-5.799 152.5 152.5 0 0 1-17.003-13.769c-5.41-4.942-10.662-10.058-16.157-14.908-5.492-4.847-11.286-9.326-17.217-13.62-11.954-8.652-24.439-16.614-35.765-26.106a145 145 0 0 1-14.065-13.55c-.708-2.382-1.567-4.728-2.31-7.1q-1.228-3.923-2.354-7.878a.013.013 0 0 0-.024.007q1.061 3.972 2.265 7.903c.704 2.29 1.384 4.623 2.24 6.868-.493-.543-1-1.073-1.485-1.625-.475-.539-.938-1.092-1.41-1.636-.71-2.21-1.525-4.389-2.255-6.592q-1.178-3.556-2.257-7.145a.015.015 0 0 0-.029.008q1.018 3.605 2.176 7.167c.697 2.143 1.391 4.308 2.23 6.404q-1.868-2.159-3.728-4.328c-1.031-3.46-2.062-6.915-3.003-10.402l1.474.261c5.05.888 10.106 1.741 15.145 2.687 2.791.524 5.576 1.091 8.338 1.756 2.779.669 5.584 1.059 8.386 1.594.007.001.012-.004.018-.003l.01.01a1.8 1.8 0 0 0 .703.387 4.2 4.2 0 0 0 1.616.204 2 2 0 0 0 .305-.051c.725.255 1.448.514 2.182.744 2.72.853 5.477 1.567 8.241 2.26-.13.06-.257.136-.394.216a11 11 0 0 0-1.178.715 15.7 15.7 0 0 0-1.913 1.75 15 15 0 0 0-2.95 4.387c-.33.77-.606 1.559-.9 2.343a19 19 0 0 0-.783 2.28c-.301 1.278-.403 2.636.844 3.423a.586.586 0 0 0 .796-.208c.281-.56.596-1.071.828-1.657.207-.522.401-1.047.624-1.563a17 17 0 0 1 1.52-3.096 33 33 0 0 1 2.239-2.855c.757-.863 1.616-1.636 2.357-2.51.072-.085-.024-.242-.128-.167a22.4 22.4 0 0 0-4.634 5.17c-.716 1.007-1.56 1.913-2.26 2.929-.347.504-.703 1.016-1.005 1.55a4.6 4.6 0 0 0-.384.896 2.2 2.2 0 0 1-.303-.965 4.8 4.8 0 0 1 .51-2.008 16 16 0 0 1 2.46-3.799c.92-1.113 1.738-2.303 2.72-3.366.514-.556 1.072-1.084 1.56-1.662.38-.452 1.087-.979 1.188-1.581.002-.009-.005-.013-.004-.02l1.354.337q2.483.618 4.966 1.242l-.056.08c-.418.629-.853 1.245-1.28 1.867-.872 1.27-1.7 2.571-2.592 3.826a34 34 0 0 1-3.018 3.615c-.515.547-1.027 1.112-1.592 1.609-.542.476-1.276.619-1.54 1.334a.26.26 0 0 0 .317.317c.727-.21.919-.953 1.398-1.477.535-.585 1.116-1.13 1.664-1.704 1.066-1.12 2.105-2.265 3.164-3.392a37 37 0 0 0 2.933-3.424c.47-.64.91-1.3 1.342-1.967q.145-.223.264-.433l5.972 1.494c7.95 2.006 15.938 3.921 23.777 6.333a179 179 0 0 1 22.605 9.01c2.19 1.015 4.374 2.045 6.562 3.065.505.336 1.016.663 1.512 1.013 1.95 1.378 3.815 2.871 5.736 4.29 2.001 1.478 4.046 2.896 6.17 4.192a33 33 0 0 0 3.346 1.803c1.182.545 2.42.906 3.627 1.38.142.055.224-.166.101-.24-1.154-.7-2.219-1.549-3.356-2.277-1.068-.684-2.149-1.34-3.229-2.004q-3.173-1.949-6.186-4.134-.98-.705-1.967-1.403c.142.062.28.13.422.191 4.342 1.908 8.78 3.578 13.22 5.24.173.064.28-.207.124-.295-3.68-2.068-7.352-4.18-11.14-6.044-3.724-1.832-7.5-3.554-11.263-5.303a208 208 0 0 0-22.253-9.3c-15.188-5.023-30.967-7.975-46.402-12.098a111 111 0 0 1-11.194-3.526 54 54 0 0 1-5.31-2.478 28 28 0 0 1-5.109-3.124c-.041-.034-.1.023-.06.06 1.302 1.143 2.599 2.287 3.977 3.338a31 31 0 0 0 4.385 2.643c.577.304 1.165.583 1.752.862a28.5 28.5 0 0 0-3.673-1.329c-2.358-.656-4.78-1.127-7.18-1.603-4.916-.974-9.864-1.796-14.801-2.662-5.021-.88-10.037-1.841-15.081-2.579-.179-.026-.358-.048-.537-.074-.087-.065-.168-.136-.256-.201a.464.464 0 0 0-.647.077c-2.05-.274-4.108-.489-6.176-.585-2.438-.114-4.889-.103-7.321-.319a21.7 21.7 0 0 1-7.08-1.755 10.96 10.96 0 0 1-5.126-4.266c-.016-.03-.056-.004-.043.025a11.27 11.27 0 0 0 5.806 5.927 2 2 0 0 1-.314.186 5 5 0 0 1-.85.26c-6.235.568-12.906 1.347-19.26.77l-.002-.009c-3.47-2.462-7.136-4.67-10.718-6.966-.037-.023-.07.035-.034.059 3.514 2.318 6.983 4.746 10.6 6.903a39 39 0 0 1-3.128-.417v-.002c-3.626-1.996-7.236-3.989-10.705-6.252-.014-.009-.026.013-.013.022a81.6 81.6 0 0 0 10.544 6.2 25.96 25.96 0 0 1-12.585-5.75 18.4 18.4 0 0 1-6.606-14.2 14.3 14.3 0 0 1 .471-3.299 23 23 0 0 0 .348 3.352 17 17 0 0 0 1.322 4.737 3.82 3.82 0 0 0 2.987 2.355 4.2 4.2 0 0 0 2.555-.792 7.3 7.3 0 0 1 1.085-.713c.564-.252 1.125-.514 1.694-.756.774-.33 1.643-.352 2.15-1.103a2.57 2.57 0 0 0 .198-2.152c-.23-.846-.653-1.634-.933-2.465a18 18 0 0 1-.653-2.565 17.4 17.4 0 0 1 2.184-11.948.47.47 0 0 0 .004-.499c1.185-.65 2.376-1.293 3.557-1.946l9.464-5.227a104 104 0 0 1 11.273-5.853 13.7 13.7 0 0 0-1.687 2.016 13.2 13.2 0 0 0-2.092 4.582 23.4 23.4 0 0 0-.432 5.978c.053 2.185.322 4.358.58 6.527.166 1.395.494 3.568 2.393 3.246a.48.48 0 0 0 .345-.344c.306-1.525-.225-3.015-.395-4.53a21.5 21.5 0 0 1 .03-4.851 36 36 0 0 1 .954-4.885 23 23 0 0 1 .65-2.242 7.1 7.1 0 0 0 .667-2.27.145.145 0 0 0-.268-.072 6.1 6.1 0 0 0-.694 2.126c-.161.76-.41 1.503-.615 2.252a37 37 0 0 0-1.015 4.789 22 22 0 0 0-.18 4.518c.054.76.15 1.513.171 2.277a12 12 0 0 1-.205 2.276c-.712-.139-1.187-1.255-1.35-1.83a25 25 0 0 1-.691-3.583 19.6 19.6 0 0 1 .308-7.363 20.2 20.2 0 0 1 2.155-5.232 12.3 12.3 0 0 1 1.7-2.254 17 17 0 0 0 1.909-1.894c.011-.016.007-.032.013-.048a25 25 0 0 1 5.132-1.097c3.472-.35 6.986-.248 10.47-.261l10.93-.042 21.591-.083c7.166-.027 14.34-.157 21.505-.072a23 23 0 0 1 4.997.495 20 20 0 0 1 2.598.815.5.5 0 0 0-.178.442 2.23 2.23 0 0 1-.268 1.15 15 15 0 0 0-.537 1.614c-.295 1.136-.537 2.295-.802 3.44-.512 2.21-1.183 4.378-1.776 6.566q-.907 3.348-1.685 6.728a36 36 0 0 0-.9 5.154 5 5 0 0 0 .305 2.554c.257.548.884 1.542 1.606 1.345a.29.29 0 0 0 .203-.267c.035-.309-.165-.51-.318-.762a9 9 0 0 1-.53-.989 7.4 7.4 0 0 1-.639-2.35 17.4 17.4 0 0 1 .931-5.453 92 92 0 0 1 3.763-12.669c.478-1.177 1.054-2.326 1.473-3.525a4.5 4.5 0 0 0 .482-2.517c.115.05.231.096.345.148a37.3 37.3 0 0 1 7.478 4.79q1.763 1.374 3.471 2.81a.14.14 0 0 0 .198-.197c-1.55-1.672-3.154-3.393-4.878-4.967 1.374.527 2.75 1.046 4.139 1.534a241 241 0 0 0 10.237 3.35c6.91 2.085 13.902 3.918 20.928 5.567a371 371 0 0 0 42.424 7.377q5.985.687 11.99 1.04c2.043.118 4.089.236 6.135.294 2.058.058 4.088-.06 6.142-.174.236-.013.323-.4.06-.44-1.727-.264-3.44-.595-5.179-.77-1.79-.18-3.58-.343-5.37-.524a668 668 0 0 1-6.412-.69c.346-.061.69-.125 1.033-.182q2.709-.457 5.441-.749 2.604-.277 5.22-.437a49 49 0 0 0 5.26-.64.085.085 0 0 0 0-.164 23.8 23.8 0 0 0-5.26-.324q-2.75.158-5.48.504-2.604.332-5.188.804a26.4 26.4 0 0 0-3.76.89q-.787-.089-1.575-.173-7.179-.764-14.321-1.824l-.196-.22c-.018-.02-.048.01-.03.03l.153.18q-2.05-.303-4.1-.625c-.951-1.027-1.95-2.015-2.934-2.999q-2.305-2.306-4.707-4.51c-.008-.007-.02.005-.012.013q2.325 2.282 4.599 4.618c.909.931 1.803 1.883 2.709 2.823-.823-.132-1.648-.256-2.47-.393-.66-.11-1.317-.239-1.976-.354-.888-.945-1.818-1.855-2.73-2.77-1.196-1.201-2.407-2.387-3.614-3.576a.01.01 0 0 0-.015.015c1.177 1.22 2.351 2.441 3.54 3.65.87.883 1.737 1.781 2.631 2.647-1.324-.234-2.648-.462-3.969-.712-.299-.285-.604-.564-.9-.847q-.908-.868-1.82-1.731-1.824-1.728-3.665-3.435c-.01-.01-.025.005-.015.015q1.79 1.76 3.6 3.5.88.845 1.762 1.686c.264.252.525.51.789.764q-2.37-.45-4.734-.923c-.925-.749-1.854-1.493-2.754-2.274q-1.953-1.696-3.808-3.505a.01.01 0 0 0-.015.015q1.826 1.887 3.793 3.623c.804.706 1.62 1.41 2.464 2.076-1.631-.33-3.264-.648-4.89-.998-.672-.512-1.35-1.014-2.008-1.545a34 34 0 0 1-2.31-2.05.017.017 0 0 0-.024.025 22 22 0 0 0 4.044 3.505 384 384 0 0 1-11.007-2.53c.027.005.056.009.074-.013a6.6 6.6 0 0 1 2.413-1.883 6 6 0 0 0 1.051-.413 3.1 3.1 0 0 0 .86-1.003 15 15 0 0 0 1.073-2.952 29 29 0 0 1 1.184-2.968 32 32 0 0 1 3.167-5.317 38.6 38.6 0 0 1 3.736-4.507c.228-.11.447-.237.678-.34a32.3 32.3 0 0 1 10.348-2.477c4-.347 8.028-.436 12.037-.619 4.097-.187 8.194-.391 12.29-.589l24.58-1.186c4.6-.222 9.185-.496 13.776-.85 4.656-.36 9.278-.827 13.911-1.403a.135.135 0 0 0 0-.27c-8.376-.234-16.75-.112-25.12.29l-14.605.703c-1.152-.8-2.413-1.465-3.619-2.18-1.22-.721-2.449-1.428-3.674-2.14a.013.013 0 0 0-.013.021c1.212.735 2.421 1.476 3.64 2.202 1.182.705 2.35 1.478 3.58 2.101l-3.67.176c-.382-.231-.771-.453-1.154-.678l-1.824-1.068q-1.704-1-3.415-1.987a48 48 0 0 1 4.67-3.022 44 44 0 0 1 13.345-4.617 103 103 0 0 1 14.084-1.493c5.198-.261 10.401-.433 15.602-.641l32.246-1.291c5.387-.216 10.774-.442 16.162-.647a31.2 31.2 0 0 1 7.764.372 21 21 0 0 1 6.328 2.614 75 75 0 0 1 11.228 8.714 129 129 0 0 1 10.098 10.215c.772.865 1.53 1.744 2.301 2.61.116.13.329-.038.24-.184a68.6 68.6 0 0 0-7.88-10.268c1.048.75 2.083 1.519 3.076 2.357 2.455 2.071 4.828 4.247 7.366 6.218a39 39 0 0 0 8.692 5.116c3.322 1.41 6.76 2.512 10.151 3.735a67.1 67.1 0 0 1 18.018 9.937 154 154 0 0 1 15.322 13.874c3.09 3.092 6.146 6.216 9.283 9.261 3.185 3.092 6.485 6.059 9.705 9.114a.174.174 0 0 0 .245-.245m-341.372 11.008c.788 3.396 1.703 6.79 2.806 10.106-.88-1.028-1.755-2.06-2.648-3.076-.375-1.343-.804-2.67-1.233-3.996a138 138 0 0 0-1.146-3.428zm-2.28-.404a136 136 0 0 0 1.064 3.477c.406 1.285.815 2.569 1.27 3.838a136 136 0 0 0-3.22-3.545 18 18 0 0 0-.576-2.254 23 23 0 0 0-.635-1.888q1.05.185 2.098.372m-2.224-.394c.13.7.319 1.39.515 2.075.178.626.364 1.25.6 1.857a84 84 0 0 0-3.572-3.559c-.366-.34-.745-.659-1.118-.986 1.193.193 2.384.404 3.575.613M98.03 115.612a18.6 18.6 0 0 0 .412 4.523 17 17 0 0 0 .61 2.12c.271.757.658 1.477.877 2.251.571 2.017-1.824 2.818-3.316 3.384-.502.19-1.034.254-1.552.396a5.5 5.5 0 0 1-1.274.22 2.4 2.4 0 0 1-1.87-.702 6.83 6.83 0 0 1-1.55-3.39 26 26 0 0 1-.807-5.497 12 12 0 0 1 .284-2.831q.257-.45.55-.88a21.1 21.1 0 0 1 6.293-5.649 74 74 0 0 1 3.445-2.039 18.9 18.9 0 0 0-2.102 8.094m30.356-24.788c.008-.064.023-.127.026-.192a8 8 0 0 0-.025-1.097.015.015 0 0 0-.03 0c-.028.366-.076.73-.133 1.093-.013.082-.014.165-.025.248-.621.172-1.24.36-1.85.584l.023-.131c.088-.45.195-.896.306-1.34a20 20 0 0 1 .851-2.604c.007-.018-.022-.03-.03-.013a20.5 20.5 0 0 0-1.127 2.786q-.223.71-.383 1.438-.73.278-1.442.588c.044-.144.066-.296.1-.45q.113-.518.238-1.036.254-1.07.567-2.126a39 39 0 0 1 1.492-4.208c.003-.008-.007-.014-.01-.007a38 38 0 0 0-1.657 4.01q-.353 1.042-.646 2.104a28 28 0 0 0-.26 1.03 2.4 2.4 0 0 0-.132.823q-.705.313-1.4.646c-.072-.295-.17-.587-.24-.87a63 63 0 0 1-.465-1.97 32 32 0 0 1-.587-3.636 25.2 25.2 0 0 1 .211-7.249 16.1 16.1 0 0 1 6.751-10.602 11.56 11.56 0 0 1 11.056-1.303 10 10 0 0 0-2.453-.08 11.9 11.9 0 0 0-6.403 2.6 10 10 0 0 0-2.25 2.597 5.7 5.7 0 0 0-.747 1.855 3.04 3.04 0 0 0 .35 2.003 40 40 0 0 0 1.98 3.687c.704 1.215 1.279 2.503 1.98 3.72.415.722.859 1.427 1.34 2.106.17.239.348.47.523.706a4.6 4.6 0 0 1 .442.623c.09.182.118.394.218.574a6.05 6.05 0 0 0 1.754 2.014 34.8 34.8 0 0 0-7.913 1.079m30.482-1.203c-5.547.02-11.103-.03-16.653.026a24 24 0 0 0 4.628-2 13.7 13.7 0 0 1 4.137-1.137c1.336-.144 2.669.005 3.995-.241a.15.15 0 0 0 .035-.27 6.1 6.1 0 0 0-3.681-.503 14.4 14.4 0 0 0-3.863.92 19 19 0 0 0-3.345 1.872c-1.295.84-2.643 1.599-4.227 1.076-.08-.026-.121.06-.092.12a28 28 0 0 1-1.157-.16 8 8 0 0 0-1.053-.102 10 10 0 0 0-1.834-1.666 10.4 10.4 0 0 1-1.316-1.001 14 14 0 0 1-1.257-1.701 23.9 23.9 0 0 1-3.232-6.968c-.174-.566-.33-1.138-.511-1.701a4.04 4.04 0 0 1-.44-1.97 6.65 6.65 0 0 1 1.809-2.785 10.4 10.4 0 0 1 5.51-2.86 10.8 10.8 0 0 1 3.503-.083 15 15 0 0 1 1.768.415 4.6 4.6 0 0 0 1.131.302c2.856 2.136 5.186 5.059 7.525 7.666 2.106 2.349 4.206 4.702 6.327 7.038 1.06 1.166 2.103 2.351 3.188 3.494a74 74 0 0 0 2.214 2.207zm95.377-1.852a28.6 28.6 0 0 0-3.332 5.215 31 31 0 0 0-1.204 2.748c-.386 1.01-.63 2.077-1.043 3.073a5.7 5.7 0 0 1-.887 1.352 6 6 0 0 1-.946 1.215 17.5 17.5 0 0 0-1.866 1.493 29.4 29.4 0 0 1 1.476-6.071 26 26 0 0 1 1.311-2.973c.503-.97 1.144-1.854 1.654-2.818.032-.06-.051-.135-.1-.077a15 15 0 0 0-1.678 2.822 30 30 0 0 0-1.279 2.9 26.6 26.6 0 0 0-1.595 6.468.07.07 0 0 0 .047.068c-1.751-.432-3.504-.856-5.249-1.313a64 64 0 0 0 1.89-2.244c1.02-1.283 2.037-2.566 3.094-3.817a61.4 61.4 0 0 1 6.63-6.829 34 34 0 0 1 6.357-4.416 21.8 21.8 0 0 0-3.28 3.204m36.201-9.63c.478-.31.946-.64 1.393-.992l.51-.399v.004a21 21 0 0 0 2.08 1.012l.414.175q-2.198.103-4.397.2m5.59-.254-.787.036c-.272-.109-.544-.216-.81-.33-.68-.294-1.353-.603-2.033-.888q.925-.73 1.856-1.453 1.163.788 2.328 1.572c.473.317.948.646 1.428.968Zm3.47-1.985 1.814 1.084c.33.197.658.402.99.6l-3.915.188c-.555-.358-1.121-.7-1.67-1.048q-1.203-.762-2.411-1.515c.158-.122.314-.25.473-.37q.656-.499 1.324-.982 1.696 1.024 3.394 2.043"/><path fill="currentColor" d="M420.564 114.06c-1.795-2.13-3.822-4.062-5.707-6.112a13.4 13.4 0 0 1-1.374-1.903c-.388-.603-.92-1.079-1.335-1.66a33 33 0 0 0-2.643-3.288q-2.883-3.123-5.762-6.25c-3.527-3.826-6.794-8.037-10.94-11.23a23 23 0 0 0-6.259-3.477 24 24 0 0 0-3.446-.769q-1.715-.34-3.455-.534a58.3 58.3 0 0 0-15.9.507c-.111.019-.081.19.025.192 4.694.05 9.41-.286 14.091.194a20.5 20.5 0 0 1 6.739 1.657 39.6 39.6 0 0 1 6.128 3.215 38.6 38.6 0 0 1 5.305 4.78c1.84 1.917 3.697 3.819 5.518 5.753 1.91 2.03 3.807 4.074 5.71 6.111a40 40 0 0 0 2.912 2.998c.476.414 1 .779 1.452 1.217a13.5 13.5 0 0 0 1.477 1.329 23.2 23.2 0 0 1 3.49 3.428c1.054 1.17 2.068 2.377 3.169 3.504 2.196 2.25 4.255 4.645 6.526 6.82.052.05.122-.024.077-.077-1.834-2.224-3.942-4.201-5.798-6.404m-23.661 40.629a19 19 0 0 1-3-1.47c-.861-.543-1.63-1.275-2.434-1.899a19.5 19.5 0 0 0-2.652-1.57 22 22 0 0 1-2.687-1.376 60 60 0 0 1-4.843-4.211c-1.542-1.433-2.991-2.928-4.427-4.465-2.858-3.06-5.74-6.133-8.833-8.957a23.8 23.8 0 0 0-5.72-4.08 19.6 19.6 0 0 0-6.923-1.506c-5.828-.461-11.65-1.015-17.476-1.512-.047-.004-.059.075-.012.083 5.157.834 10.32 1.631 15.477 2.46a27.2 27.2 0 0 1 6.918 1.769 33.4 33.4 0 0 1 5.886 3.804c3.352 2.46 6.524 5.174 9.63 7.933 1.572 1.397 3.182 2.748 4.75 4.15 1.502 1.343 3.033 2.652 4.63 3.881a8 8 0 0 1 1.64 1.386 8 8 0 0 0 .978 1.115 11.8 11.8 0 0 0 2.666 2.056 24 24 0 0 0 3.118 1.155c1.114.389 2.194.89 3.3 1.303.031.011.043-.037.014-.05m22.155 9.906c-2.13-1.145-4.44-1.97-6.671-2.894-.013-.006-.023.017-.01.023 2.188 1.026 4.354 2.177 6.636 2.979.063.022.104-.077.045-.108m8.06 14.102a67 67 0 0 1-6.46-2.874c-2.062-1.025-4.174-1.988-6.18-3.118-.985-.556-1.887-1.17-2.823-1.801a9 9 0 0 0-1.424-.876 12 12 0 0 0-1.658-.573c-2.226-.608-4.375-1.536-6.566-2.28a288 288 0 0 0-7.483-2.442c-.042-.013-.057.05-.018.065 2.239.86 4.465 1.75 6.663 2.71 1.061.463 2.114.944 3.172 1.415a28 28 0 0 1 3.163 1.446 10.1 10.1 0 0 0 2.935 1.47 25 25 0 0 1 3.33.898 72 72 0 0 1 6.51 2.984 62 62 0 0 0 6.828 3.016c.025.01.036-.031.01-.04m-91.55-7.867a33 33 0 0 0-3.574-2.24c-1.315-.783-2.636-1.554-3.95-2.338-2.588-1.545-5.181-3.083-7.754-4.655-.033-.02-.062.03-.03.051a293 293 0 0 0 7.61 4.903c1.264.781 2.528 1.563 3.807 2.32a29.5 29.5 0 0 0 3.813 2.093c.073.03.14-.086.078-.134m5.258-2.157c-.836-.465-1.68-.913-2.488-1.424-1.728-1.092-3.448-2.196-5.175-3.29q-5.132-3.25-10.446-6.168a.047.047 0 0 0-.047.08q5.12 3.132 10.238 6.266a181 181 0 0 1 5.072 3.207c.804.53 1.566 1.109 2.33 1.695.524.403 1.42 1.41 2.14 1.183a.14.14 0 0 0 .103-.135c-.072-.729-1.164-1.101-1.727-1.414m7.441.253c-.705-.4-1.42-.779-2.122-1.186a81 81 0 0 1-4.14-2.55 264 264 0 0 0-8.197-5.244c-.06-.037-.114.056-.055.095a264 264 0 0 0 8.21 5.22 83 83 0 0 1 3.952 2.605c.67.464 1.32.954 1.98 1.428a4.3 4.3 0 0 0 1.837 1.004c.1.013.162-.12.113-.197a4 4 0 0 0-1.578-1.175m4.694-.459c-1.04-.853-2.157-1.615-3.252-2.396l-3.383-2.415c-.04-.029-.078.037-.039.066l3.304 2.422c1.098.805 2.184 1.639 3.334 2.37.028.017.062-.026.036-.047m5.582 1.406a3.7 3.7 0 0 0-1.213-.801 4.6 4.6 0 0 0-1.385-.362c-.047-.005-.058.074-.011.083a6.6 6.6 0 0 1 1.35.444 5 5 0 0 1 .612.318c.202.123.393.264.596.385a.043.043 0 0 0 .05-.067m-22.858 67.087c-2.63-1.83-5.395-3.472-8.099-5.19a781 781 0 0 1-8.088-5.188c-.041-.027-.078.038-.038.066a279 279 0 0 0 7.97 5.391c2.682 1.741 5.375 3.51 8.204 5.008a.05.05 0 0 0 .051-.088m7.109.551.016-.009a16 16 0 0 0-2.597-1.847q-1.342-.91-2.69-1.81c-1.834-1.225-3.667-2.452-5.511-3.661-3.688-2.418-7.394-4.806-11.082-7.224-.046-.03-.087.042-.043.073 3.62 2.537 7.22 5.101 10.84 7.638 1.771 1.241 3.555 2.466 5.337 3.693q1.335.92 2.678 1.829a16.7 16.7 0 0 0 2.787 1.79c.278.115.454-.286.265-.471m4.294-.765a4.8 4.8 0 0 0-1.775-1.607c-.76-.543-1.528-1.078-2.293-1.617l-4.477-3.158-9.064-6.392c-.036-.026-.068.032-.034.058l8.748 6.67 4.267 3.252 2.24 1.708a5.2 5.2 0 0 0 2.206 1.322.163.163 0 0 0 .182-.236m5.409.503c-.495-1.39-1.993-2.082-3.087-2.931-1.203-.934-2.404-1.87-3.615-2.794-2.49-1.9-5.032-3.732-7.546-5.6-.026-.02-.06.024-.035.046 2.362 2.064 4.695 4.164 7.083 6.2 1.161.99 2.333 1.967 3.503 2.947 1.064.891 2.048 2.183 3.51 2.378a.195.195 0 0 0 .187-.246m3.303-.979c-.307-.917-1.407-1.412-2.163-1.932-.485-.334-.97-.628-1.423-1.008a15 15 0 0 1-1.25-1.166 22 22 0 0 0-2.32-2.24c-.842-.663-1.764-1.203-2.646-1.803-.057-.04-.116.045-.072.093.732.788 1.407 1.63 2.199 2.363a21 21 0 0 0 2.486 1.891 13.2 13.2 0 0 1 2.44 2.17c.358.4.715.808 1.096 1.186a2.4 2.4 0 0 0 1.263.837c.22.038.473-.141.39-.39m2.902-.701c-.34-.306-.688-.6-1.055-.874a17 17 0 0 0-2.394-1.465.021.021 0 0 0-.021.036c.762.524 1.497 1.104 2.219 1.683.714.574 1.422 1.151 2.138 1.721a.05.05 0 0 0 .072-.072 9.5 9.5 0 0 0-.959-1.03m6.489.641c-.267-.185-.524-.373-.802-.54l-.799-.482c-.541-.326-1.103-.62-1.657-.924a.05.05 0 0 0-.051.088c.53.345 1.054.701 1.598 1.025l.801.477c.279.165.566.302.854.45a.055.055 0 0 0 .056-.095m5.914.366a6 6 0 0 0-.683-.236 5 5 0 0 0-.77-.15 7 7 0 0 0-.757-.06 11 11 0 0 1-.777-.079c-.169-.022-.21.27-.04.3.249.044.493.09.737.156a6 6 0 0 0 .732.174 6 6 0 0 0 .758.098 5 5 0 0 0 .748-.014c.088-.011.154-.14.052-.189m7.375.71a5 5 0 0 0-.847-.26 6 6 0 0 0-.968-.16c-.311-.032-.625-.026-.938-.028a14 14 0 0 1-.974-.05c-.164-.013-.205.264-.04.29.31.05.618.098.923.168.317.073.632.151.954.198a5.5 5.5 0 0 0 .941.069 5 5 0 0 0 .927-.057.094.094 0 0 0 .022-.17m16.198 2.962a75 75 0 0 0-5.98-1.671 37 37 0 0 0-3.06-.586c-1.041-.157-2.083-.157-3.121-.36-.09-.018-.13.116-.039.138 1.018.243 1.96.657 2.956.961a32 32 0 0 0 3.136.758c2.005.397 4.05.722 6.082.951.114.013.125-.159.026-.191M128.875 98.01a.042.042 0 0 0-.082-.022c-.275.982-.562 1.957-.765 2.958-.21 1.037-.295 2.088-.577 3.11-.283 1.019.083 1.896.066 2.925-.017 1.064-.226 2.122-.23 3.181-.002.399.633.397.617 0a31 31 0 0 1-.167-3.063c.06-1.031.566-1.892.49-2.939a15 15 0 0 1 .218-2.921c.132-1.076.247-2.16.43-3.228m78.75.346a.153.153 0 0 0-.255-.067 4.7 4.7 0 0 0-.831 1.806c-.219.823-.454 1.648-.641 2.479-.366 1.623-.63 3.272-.99 4.899-.715 3.243-1.635 6.448-2.474 9.661a.021.021 0 0 0 .04.011c.88-3.202 1.687-6.436 2.689-9.602.489-1.546 1.052-3.064 1.552-4.604.264-.81.463-1.645.69-2.466a5 5 0 0 0 .22-2.117m1.955 2.591q-.935 3.493-1.591 7.047a165 165 0 0 0-.611 3.49 19 19 0 0 0-.44 3.45.23.23 0 0 0 .45.06 28 28 0 0 0 .41-3.453 76 76 0 0 1 .5-3.598q.575-3.506 1.34-6.98a.03.03 0 0 0-.058-.016m-9.677-2.248c-.577 1.232-1.183 2.45-1.746 3.69a30 30 0 0 0-.782 1.844 8.2 8.2 0 0 0-.428 1.884c-.014.115.145.128.198.053a8.4 8.4 0 0 0 .97-1.733c.247-.613.455-1.24.659-1.868.414-1.277.783-2.566 1.183-3.847.01-.032-.04-.054-.054-.023m56.747-8.134c-.44.932-.923 1.846-1.392 2.765-.234.46-.448.933-.656 1.406a13 13 0 0 0-.48 1.401.068.068 0 0 0 .123.052 13 13 0 0 0 .76-1.345c.2-.436.4-.872.578-1.317.386-.969.757-1.945 1.17-2.902.03-.069-.07-.13-.102-.06m-53.39 65.643c-.776.547-1.594 1.032-2.33 1.639a16.4 16.4 0 0 0-2.023 2 2.8 2.8 0 0 0-.417.57c-.077.16-.247.442-.202.623.118.473.748-.09.904-.25.334-.344.626-.735.94-1.098.316-.365.628-.732.953-1.09a22 22 0 0 1 2.232-2.321c.04-.034-.013-.104-.057-.073m174.096 136.81c-2.174-1.882-4.465-3.625-6.677-5.464a219 219 0 0 1-6.556-5.644c-.053-.048-.129.027-.078.077a86.7 86.7 0 0 0 13.235 11.13c.06.039.131-.052.076-.1m11.367 3.736a21 21 0 0 0-2.362-1.863 56 56 0 0 1-2.679-2.115c-1.673-1.389-3.3-2.84-4.898-4.314-3.167-2.922-6.44-5.728-9.678-8.571-.017-.014-.04.009-.024.024 3.155 2.995 6.326 5.978 9.646 8.791a176 176 0 0 1 4.816 4.208 68 68 0 0 1 2.32 2.19 23 23 0 0 0 2.398 2.248c.35.263.765-.303.461-.598m5.976-.673c-2.673-2.21-5.134-4.644-7.716-6.96q-4.34-3.892-8.94-7.472c-.05-.04-.122.03-.071.071q4.038 3.256 7.907 6.717a72.4 72.4 0 0 1 7.448 7.226c.546.652 1.055 1.321 1.643 1.938.297.311 1.034 1.336 1.545 1.115.894-.387-1.486-2.362-1.816-2.635m11.075 4.333a13.2 13.2 0 0 0-2.107-2.04q-1.135-.957-2.29-1.89c-1.568-1.262-2.976-2.73-4.427-4.123q-4.363-4.19-8.78-8.32c-.036-.034-.09.018-.054.053q4.294 4.257 8.666 8.434c1.417 1.36 2.916 2.673 4.209 4.153q.974 1.115 1.973 2.207a14 14 0 0 0 2.185 2.105l.003.003.023.018.004-.008c.35.19.878-.212.595-.592m-6.612-12.071a25 25 0 0 0-2.992-2.36c-.024-.016-.053.021-.031.04.948.832 1.834 1.727 2.75 2.594q1.373 1.3 2.708 2.646c.046.047.135-.016.093-.071a24 24 0 0 0-2.528-2.85m11.363 10.73c-.573-.549-1.145-1.1-1.732-1.633q-1.764-1.601-3.495-3.235a.025.025 0 0 0-.036.036q1.664 1.702 3.3 3.43c.53.56 1.076 1.104 1.62 1.652a6.4 6.4 0 0 0 1.76 1.538.077.077 0 0 0 .105-.105 6.2 6.2 0 0 0-1.522-1.683m10.17 2.317a25 25 0 0 0-3.503-3.222c-1.249-1.089-2.511-2.162-3.768-3.243-2.515-2.162-5.088-4.256-7.597-6.425-.02-.017-.05.012-.03.03 2.446 2.227 4.824 4.525 7.264 6.758 1.188 1.086 2.37 2.179 3.563 3.259q.946.853 1.896 1.705a12 12 0 0 0 1.822 1.49c.207.123.518-.14.353-.352m7.468.932a20.3 20.3 0 0 0-2.732-2.536q-1.457-1.258-2.917-2.511l-5.748-4.948c-.025-.021-.06.014-.036.036l5.712 5.144 2.772 2.496a20.4 20.4 0 0 0 2.883 2.406c.057.034.103-.04.066-.087m7.186-.124a12.6 12.6 0 0 0-2.502-2.092 188 188 0 0 0-2.87-2.15l-5.768-4.25c-.027-.02-.062.025-.036.046l5.543 4.542c.897.735 1.795 1.467 2.706 2.184a13 13 0 0 0 2.73 1.975.175.175 0 0 0 .197-.255m7.26.418a15 15 0 0 0-1.898-1.454q-1.07-.749-2.165-1.46a66 66 0 0 0-4.43-2.612.03.03 0 0 0-.03.051 85 85 0 0 1 4.306 2.668q1.059.696 2.093 1.428c.685.485 1.343 1.03 2.073 1.446a.043.043 0 0 0 .052-.067m8.104-.722a14 14 0 0 0-2.518-2.155 93 93 0 0 0-2.82-2.029q-2.85-1.99-5.77-3.88c-.036-.025-.07.033-.034.058q2.83 1.949 5.557 4.037c.936.717 1.859 1.451 2.79 2.174a17 17 0 0 0 2.698 1.921.08.08 0 0 0 .097-.126m8.472.048a37 37 0 0 0-3.663-2.67q-1.921-1.387-3.803-2.828c-2.57-1.968-5.114-3.963-7.587-6.051-.053-.046-.131.03-.078.077 2.385 2.131 4.812 4.226 7.33 6.199q1.785 1.4 3.608 2.752a28.3 28.3 0 0 0 3.993 2.78c.16.08.344-.124.2-.259m7.727-.01c-1.166-1.038-2.502-1.9-3.76-2.823q-2.072-1.522-4.093-3.112a193 193 0 0 1-7.604-6.285c-.033-.028-.08.018-.048.048a133 133 0 0 0 7.543 6.524q1.843 1.47 3.73 2.885a33 33 0 0 0 4.156 2.863c.06.032.133-.05.076-.1m6.266-.371a66 66 0 0 0-6.305-4.63l-6.59-4.62c-.028-.018-.052.025-.026.044l6.384 4.72a67 67 0 0 0 6.471 4.573c.053.03.114-.044.067-.086m4.44-1.132c-1.754-1.361-3.59-2.608-5.418-3.867-.068-.047-.13.062-.064.11 1.79 1.304 3.57 2.622 5.431 3.823.04.026.09-.036.051-.066m8.49 1.42a16.6 16.6 0 0 1-3.991-2.251c-.034-.026-.081.018-.048.048a10.4 10.4 0 0 0 1.861 1.399 10 10 0 0 0 2.151.902c.065.019.086-.074.027-.098m-114.66-8.083c-1.525-1.43-3.164-2.728-4.746-4.092-1.587-1.37-3.196-2.714-4.754-4.116a.042.042 0 0 0-.06.06 56 56 0 0 0 9.473 8.26.072.072 0 0 0 .087-.112m-8.509-2.546c-.458-.47-.923-.938-1.416-1.371q-1.433-1.258-2.987-2.368c-.046-.034-.106.044-.061.08a38 38 0 0 1 2.854 2.481c.449.433.905.858 1.344 1.3a17 17 0 0 0 1.365 1.35c.052.043.14-.01.1-.076a9 9 0 0 0-1.2-1.396m-109.179-65.076q-3.145-3.765-6.182-7.62c-.02-.025-.067.01-.047.037a209 209 0 0 0 6 7.63c2.11 2.55 4.224 5.126 6.557 7.477.035.036.084-.017.054-.054-2.071-2.536-4.282-4.957-6.382-7.47m8.151 5.523q-4.585-5.651-9.209-11.268c-.02-.026-.056.01-.036.036q4.497 5.644 9.016 11.27c3.011 3.737 5.927 7.586 9.106 11.181.038.043.114-.014.08-.061-2.83-3.831-5.957-7.46-8.957-11.158m9.554 6.798q-4.343-5.053-8.363-10.371c-.026-.034-.085 0-.058.034q3.928 5.238 8.168 10.23a125 125 0 0 0 8.993 9.845.034.034 0 0 0 .047-.048c-2.896-3.26-5.942-6.38-8.787-9.69m16.231 12.212a20 20 0 0 0-2.052-2.002q-.997-.942-1.976-1.903-2.002-1.967-3.924-4.012a158 158 0 0 1-7.4-8.429c-.017-.021-.046.009-.03.03a129 129 0 0 0 7.357 8.648q1.915 2.051 3.911 4.025.976.964 1.97 1.91a15.3 15.3 0 0 0 2.072 1.826c.061.04.11-.044.072-.093m-9.858-15.587c-.023-.024-.058.011-.036.035 3.624 3.872 7.245 7.744 10.99 11.5.023.023.058-.012.035-.036-3.582-3.912-7.286-7.704-10.989-11.5m18.962 20.795a4 4 0 0 0-.215-.436 10 10 0 0 0-.635-.917c-.429-.58-.863-1.16-1.315-1.723-.902-1.128-2.025-2.051-2.99-3.12-.133-.147-.343.067-.216.214.947 1.098 1.635 2.37 2.512 3.52q.638.838 1.25 1.696c.203.285.4.578.623.848a4 4 0 0 0 .333.358c.17.154.309.136.498.24a.137.137 0 0 0 .199-.152c-.028-.196.036-.33-.044-.528m8.553 4.06a31.4 31.4 0 0 0-3.82-4.682c-1.374-1.57-2.712-3.175-4.083-4.75q-4.113-4.727-8.435-9.258c-.02-.02-.048.01-.03.03q4.098 4.658 8.165 9.344c1.336 1.548 2.68 3.092 3.973 4.677a39 39 0 0 0 4.03 4.793.128.128 0 0 0 .2-.154m10.196 4.926c-1.149-1.36-2.497-2.544-3.77-3.786q-1.869-1.82-3.689-3.69-3.68-3.783-7.236-7.687c-.03-.033-.075.015-.048.048q3.413 4.125 7.13 7.973 1.81 1.879 3.669 3.71a35.4 35.4 0 0 0 3.882 3.512c.05.036.097-.039.062-.08m4.441-.557q-1.333-1.287-2.69-2.547-2.727-2.517-5.604-4.859c-.02-.017-.05.012-.03.03q2.747 2.482 5.448 5.015 1.315 1.23 2.613 2.478.666.644 1.325 1.295a9 9 0 0 0 1.309 1.185.055.055 0 0 0 .075-.075 16 16 0 0 0-2.446-2.522m6.451 1.455a26 26 0 0 0-1.775-1.344l-1.863-1.318c-.022-.016-.042.02-.02.037l1.79 1.37c.592.453 1.198.907 1.827 1.308.032.02.07-.028.04-.053m3.691.722c-.61-.376-1.227-.74-1.842-1.108a.055.055 0 0 0-.055.095c.622.354 1.244.712 1.871 1.058a.025.025 0 0 0 .026-.044m-30.253-82.519c-.82-.41-1.717-.67-2.567-1.007a64 64 0 0 1-2.857-1.224 56 56 0 0 1-5.21-2.708.021.021 0 0 0-.021.037 56 56 0 0 0 5.235 2.858 48 48 0 0 0 2.53 1.112 16.5 16.5 0 0 0 2.853 1.017c.049.01.086-.06.036-.085m3.358-1.634c-1.34-.527-2.723-.933-4.065-1.458-1.378-.54-2.752-1.097-4.081-1.75-.029-.015-.054.027-.026.043a38 38 0 0 0 3.892 1.92 21.6 21.6 0 0 0 4.244 1.376.068.068 0 0 0 .036-.13m4.788-1.824c-.73-.271-1.46-.544-2.212-.747l-2.25-.607a.03.03 0 0 0-.015.057l2.205.768c.735.255 1.49.442 2.245.627a.05.05 0 0 0 .027-.098m61.319-73.748q-2.075-2.74-4.156-5.476c-.016-.021-.052-.002-.037.021q1.981 2.86 3.97 5.712a61 61 0 0 0 4.073 5.414c.042.047.118-.014.086-.067a61 61 0 0 0-3.936-5.604m7.024 3.143-1.38-2c-.899-1.302-1.767-2.597-2.575-3.957a65 65 0 0 0-5.429-7.428c-.02-.026-.066.008-.046.036 1.8 2.526 3.448 5.155 5.327 7.627a35 35 0 0 1 2.492 3.856c.38.666.752 1.333 1.112 2.01.293.552.525 1.362 1.129 1.635a.142.142 0 0 0 .21-.12c.048-.635-.498-1.166-.84-1.66m-3.746-11.252c-.021-.026-.066.008-.047.036a104 104 0 0 1 4.01 6.308c.021.038.076.005.058-.034a32.4 32.4 0 0 0-4.021-6.31m9.086 13.893a11 11 0 0 0-.81-1.183c-.294-.364-.596-.711-.861-1.1a62 62 0 0 1-1.52-2.37.047.047 0 0 0-.081.048c.468.815.93 1.628 1.36 2.463.215.417.378.847.556 1.278a10 10 0 0 0 .655 1.274.407.407 0 0 0 .701-.41m2.072-2.572q-.95-1.447-1.87-2.911a654 654 0 0 0-3.73-5.827.021.021 0 0 0-.037.021 661 661 0 0 0 3.482 5.973q.88 1.487 1.736 2.988a16 16 0 0 0 1.7 2.823c.174.195.552-.01.453-.264a16 16 0 0 0-1.734-2.803m5.541 2.079q-.79-1.133-1.61-2.246-1.572-2.133-3.242-4.192c-.039-.048-.124.016-.086.066q1.612 2.133 3.102 4.352.722 1.076 1.418 2.17a8.2 8.2 0 0 0 1.524 2.146.107.107 0 0 0 .176-.103 6.9 6.9 0 0 0-1.282-2.193m5.449 2.339a32 32 0 0 0-.819-1.177q-.883-1.196-1.776-2.385c-.054-.072-.174-.008-.124.073q.786 1.252 1.578 2.5c.257.404.53.795.803 1.187a6 6 0 0 0 .927 1.137c.052.045.155.003.127-.074a6 6 0 0 0-.715-1.26m3.986.879-1.124-1.088a.038.038 0 0 0-.054.054l1.089 1.123a15 15 0 0 0 1.127 1.085.034.034 0 0 0 .048-.048 15 15 0 0 0-1.086-1.126m-1.247-29.872a66 66 0 0 0-2.135-2.72 89 89 0 0 0-4.766-5.352c-.03-.032-.076.015-.048.048 1.534 1.822 3 3.696 4.422 5.606.673.904 1.318 1.827 1.977 2.74a16 16 0 0 0 2.106 2.725c.11.099.328.005.269-.156a12.3 12.3 0 0 0-1.825-2.89m6.357 6.09a25.7 25.7 0 0 0-2.36-3.626c-.833-1.234-1.66-2.473-2.504-3.699q-2.498-3.627-5.04-7.222c-.034-.048-.113-.004-.08.047q2.39 3.767 4.809 7.514c.785 1.21 1.59 2.408 2.387 3.61a26 26 0 0 0 2.483 3.612c.162.171.39-.046.305-.236m.889-2.117a120 120 0 0 0-1.512-2.343q-1.57-2.361-3.214-4.671c-.038-.053-.125-.004-.088.051q1.571 2.354 3.069 4.756c.49.789.984 1.576 1.468 2.369a11 11 0 0 0 1.5 2.266.064.064 0 0 0 .106-.062 10 10 0 0 0-1.329-2.366m3.444.891-.3-.397q-.282-.375-.566-.747c-.393-.507-.8-1.004-1.201-1.505-.048-.06-.151.02-.106.082.373.522.74 1.05 1.12 1.566.186.251.378.498.566.747l.3.397a.63.63 0 0 0 .28.258.064.064 0 0 0 .08-.061.63.63 0 0 0-.173-.34m2.31-.007a.013.013 0 0 0 0-.025m-276.682 47.126c-.722-.7-1.459-1.386-2.19-2.078l-4.32-4.095c-.024-.023-.059.013-.036.036l4.228 4.188c.695.688 1.384 1.381 2.085 2.063a17.6 17.6 0 0 0 2.101 1.952c.05.035.125-.036.087-.087a17 17 0 0 0-1.955-1.98m7.131 1.943a25 25 0 0 0-2.753-2.698l-2.899-2.712q-2.859-2.676-5.76-5.303c-.024-.022-.06.013-.036.036q2.845 2.768 5.722 5.5l2.802 2.65a25 25 0 0 0 2.873 2.594c.043.03.078-.032.051-.067m3.251-1.884q-.623-.663-1.26-1.312-1.31-1.331-2.68-2.6a77 77 0 0 0-5.513-4.618c-.023-.017-.053.022-.03.04q2.85 2.261 5.488 4.767 1.287 1.217 2.519 2.491.632.655 1.25 1.323a9.3 9.3 0 0 0 1.21 1.248c.053.04.115-.035.086-.087a7.3 7.3 0 0 0-1.07-1.252m.12-3.701-2.883-2.653c-.044-.04-.11.024-.066.065l2.848 2.689c.946.893 1.861 1.849 2.886 2.651a.042.042 0 0 0 .06-.06c-.871-.965-1.89-1.81-2.846-2.691m8.009 7.452c-.256-.383-.662-.645-.926-1.027a2.8 2.8 0 0 0-.423-.565c-.115-.104-.24-.197-.364-.291a4 4 0 0 0-.475-.468 4.5 4.5 0 0 0-.53-.373c-.465-.385-.936-.764-1.4-1.152a.032.032 0 0 0-.046.045c.633.714 1.23 1.452 1.89 2.143.16.167.29.35.44.524a2.2 2.2 0 0 0 .575.415c.407.255.685.668 1.088.92a.126.126 0 0 0 .171-.17m4.61-.54c-.926-.972-1.994-1.822-3.002-2.706l-3.042-2.667c-.016-.014-.04.01-.024.024l3.023 2.77c.978.896 1.929 1.852 2.984 2.659.047.036.1-.04.061-.08m6.215.791c-1.13-1.082-2.435-2.007-3.656-2.981-1.232-.982-2.48-1.945-3.723-2.914-.038-.03-.092.023-.054.054 1.236 1.012 2.467 2.03 3.713 3.027 1.206.965 2.384 2.02 3.673 2.874.037.024.078-.03.047-.06m5.187 1.357q-.394-.329-.791-.654a10 10 0 0 1-.77-.675 2.8 2.8 0 0 0-.756-.634 15 15 0 0 1-1.678-1.05c-.587-.384-1.155-.8-1.734-1.197-.031-.022-.071.029-.041.053q.62.499 1.232 1.01c0 .014-.006.029.01.037.04.02.077.046.116.066.074.063.152.12.224.184a13 13 0 0 1 1.482 1.402 2.6 2.6 0 0 0 .741.555 8 8 0 0 1 .875.633q.403.319.805.64a2.6 2.6 0 0 0 .803.435.066.066 0 0 0 .074-.097 2.5 2.5 0 0 0-.591-.708m3.565.933a6 6 0 0 0-.601-.536c-.398-.336-.817-.65-1.23-.967a27 27 0 0 0-2.599-1.783c-.018-.01-.04.015-.023.03.774.69 1.536 1.391 2.313 2.078.385.34.766.691 1.164 1.016.188.154.372.318.571.457a4.3 4.3 0 0 0 .76.373c.043.02.106-.024.073-.072a6 6 0 0 0-.428-.596m32.22 4.343q-1.088-.9-2.172-1.803a96 96 0 0 1-4.178-3.677.055.055 0 0 0-.078.078 143 143 0 0 0 4.02 3.946q.997.937 2.039 1.826a8.4 8.4 0 0 0 2.152 1.558c.085.034.168-.082.12-.155a9.4 9.4 0 0 0-1.903-1.773m8.93 4.682a32 32 0 0 0-2.791-2.843q-1.463-1.435-2.94-2.856a308 308 0 0 0-5.912-5.516c-.028-.025-.07.016-.042.042a701 701 0 0 1 5.8 5.628q1.425 1.392 2.836 2.799a39 39 0 0 0 2.93 2.866.085.085 0 0 0 .12-.12m5.303.976c-4.002-3.749-8.121-7.364-12.067-11.176-.023-.023-.059.013-.036.036 3.885 3.846 7.805 7.73 11.983 11.26.082.07.2-.044.12-.12m5.158 1.109c-.724-.781-1.554-1.463-2.35-2.17l-2.392-2.126-4.798-4.24c-.04-.036-.1.023-.06.06l4.791 4.38q1.18 1.08 2.366 2.152c.771.7 1.52 1.433 2.356 2.057.067.05.14-.056.087-.113m4.287 1-1.17-1.167c-.78-.779-1.556-1.56-2.343-2.331l-4.726-4.622a.03.03 0 0 0-.042.041l4.6 4.75c.744.77 1.5 1.528 2.253 2.29l1.162 1.175a6.7 6.7 0 0 0 1.165 1.068.072.072 0 0 0 .098-.098 6.3 6.3 0 0 0-.997-1.106m4.014.525c-.626-.59-1.251-1.18-1.885-1.762l-3.804-3.49c-.036-.033-.09.02-.054.054l3.69 3.603a180 180 0 0 0 1.81 1.734 15 15 0 0 0 1.887 1.675c.044.03.109-.03.075-.075a15 15 0 0 0-1.72-1.739m6.605 3.467a16 16 0 0 0-1.621-1.558l-1.7-1.572c-1.118-1.034-2.256-2.046-3.386-3.067-.028-.025-.07.015-.042.042 1.108 1.074 2.208 2.157 3.328 3.218l1.632 1.546a16 16 0 0 0 1.681 1.53c.09.063.166-.067.108-.14m3.201-.246c-.34-.226-.689-.432-1.02-.673a13 13 0 0 1-.993-.793 11.3 11.3 0 0 1-1.663-1.86c-.01-.013-.032 0-.022.013a11.4 11.4 0 0 0 1.635 1.897 8.5 8.5 0 0 0 2.033 1.468.03.03 0 0 0 .03-.051m4.376 1.177c-1.145-.856-2.395-1.579-3.611-2.329-.024-.014-.044.022-.022.037 1.18.808 2.347 1.658 3.594 2.357.044.025.077-.037.039-.065m4.495.997a3.4 3.4 0 0 0-.636-.32c-.21-.096-.418-.193-.63-.282l-1.295-.55c-.04-.017-.074.039-.035.058l1.284.621c.215.104.433.2.65.298a3.2 3.2 0 0 0 .63.252.043.043 0 0 0 .032-.077m5.134 1.539a3 3 0 0 0-.428-.297 11 11 0 0 0-.464-.289l-.939-.56a.05.05 0 0 0-.05.087l.921.589q.23.148.466.285a3 3 0 0 0 .457.249c.036.013.064-.039.037-.064m-141.217-20.3c-1.274-.847-2.637-1.552-3.909-2.406a52 52 0 0 1-3.803-2.795c-.017-.014-.041.01-.024.024a43 43 0 0 0 3.64 2.81 25 25 0 0 0 4.061 2.425.034.034 0 0 0 .035-.058m1.132-1.139a9 9 0 0 0-.819-.554l-.817-.542-1.69-1.12c-.031-.02-.06.03-.03.052l1.658 1.109.816.545a10 10 0 0 0 .846.556c.029.015.063-.024.036-.046m4.352.378a2.4 2.4 0 0 0-.705-.583q-.45-.31-.894-.632a22 22 0 0 0-1.792-1.256c-1.258-.732-2.478-1.524-3.709-2.301-.021-.014-.038.018-.02.032 1.186.87 2.369 1.737 3.504 2.672.53.438 1.106.783 1.674 1.171q.451.308.896.628a2.7 2.7 0 0 0 .848.527.178.178 0 0 0 .198-.258m4.182-68.481a29.3 29.3 0 0 0-2.216 6.204.055.055 0 0 0 .106.03c.73-2.058 1.406-4.136 2.256-6.149.041-.098-.1-.185-.146-.085m1.325-.054c-.659 1.823-1.306 3.65-1.97 5.473-.322.887-.503 1.83-.805 2.73a16 16 0 0 1-.575 1.566c-.145.318-.343.52-.264.872a.083.083 0 0 0 .138.037c.302-.257.258-.67.352-1.04.122-.475.287-.944.443-1.409.303-.904.729-1.767 1.008-2.675.569-1.848 1.153-3.692 1.726-5.54.01-.034-.041-.047-.053-.014m1.172 1.854a46 46 0 0 0-2.329 6.197c-.334 1.07-.655 2.145-1.038 3.2-.332.916-1.047 2.146-.926 3.142a.122.122 0 0 0 .224.06 3.6 3.6 0 0 0 .493-1.391c.131-.546.23-1.098.361-1.645a31 31 0 0 1 .997-3.211c.758-2.11 1.587-4.192 2.287-6.323.014-.04-.05-.068-.07-.029m.305 4.439a62 62 0 0 0-2.382 5.614q-.537 1.48-.996 2.987-.213.702-.409 1.41a2.3 2.3 0 0 0-.19 1.309.107.107 0 0 0 .176.047 2.15 2.15 0 0 0 .417-1.136q.183-.765.386-1.525.378-1.418.822-2.818a61 61 0 0 1 2.194-5.877c.005-.012-.012-.023-.018-.01m-4.921 61.263a11 11 0 0 0-.745-.489c-.501-.307-.98-.652-1.476-.968a37 37 0 0 1-3.035-2.05c-.019-.014-.044.01-.027.027a13.4 13.4 0 0 0 2.83 2.058 11.3 11.3 0 0 1 1.528 1.021 8 8 0 0 1 .637.63 1.4 1.4 0 0 0 .61.502.135.135 0 0 0 .165-.164 1.08 1.08 0 0 0-.487-.567m3.304.335a4.7 4.7 0 0 0-.916-.791c-.34-.25-.677-.505-1.02-.752-.684-.491-1.384-.96-2.079-1.435-.018-.012-.04.016-.023.03.655.535 1.305 1.077 1.973 1.597.327.254.66.502.99.752a4.8 4.8 0 0 0 1.036.667c.042.017.06-.04.04-.067m50.427 2.192c-.215-.157-.431-.31-.646-.468-.459-.334-.906-.684-1.36-1.024a44 44 0 0 0-2.764-1.898c-.026-.016-.048.023-.024.04a192 192 0 0 1 2.643 1.909c.454.331.91.662 1.342 1.022q.306.255.607.518a2.5 2.5 0 0 0 .613.474c.069.029.17-.038.116-.116a2.1 2.1 0 0 0-.527-.457m-.325-2.867c-.011-.008-.021.01-.01.018.545.404 1.09.804 1.65 1.189.013.01.025-.012.012-.022a62 62 0 0 0-1.652-1.185m-1.713 20.246a216 216 0 0 1-2.372-7.138c-.004-.013-.024-.008-.02.005a174 174 0 0 0 2.357 7.279c.813 2.319 1.608 4.674 2.605 6.92.008.018.038.006.031-.012-.82-2.367-1.773-4.689-2.601-7.054m2.355.81c-.005-.016-.03-.01-.024.006a58 58 0 0 0 3.096 7.765c.007.014.028.001.022-.013a79 79 0 0 1-3.094-7.758m4.608 6.084a.006.006 0 0 0-.012.003 4.2 4.2 0 0 0 1.091 1.857.006.006 0 0 0 .01-.01 4.2 4.2 0 0 1-1.089-1.85m24.764 15.449c-.011-.019-.04-.002-.03.017 1.341 2.495 2.63 5.03 4.097 7.454a.019.019 0 0 0 .033-.02c-1.261-2.536-2.712-4.983-4.1-7.45m5.275 4.227q-1.884-3.92-3.727-7.86c-.014-.03-.057-.003-.044.026a407 407 0 0 0 3.671 7.892c1.248 2.6 2.413 5.3 3.86 7.796.018.031.06.004.047-.028-1.137-2.658-2.555-5.22-3.807-7.826m3.799 2.252q-1.957-3.975-3.931-7.942c-.009-.017-.034-.002-.026.015q1.938 3.987 3.883 7.97c1.297 2.645 2.504 5.364 3.924 7.945.015.027.052.004.04-.023-1.176-2.703-2.59-5.32-3.89-7.965m5.347 5.72q-1.458-2.707-2.74-5.502c-.006-.013-.024-.002-.019.01a73.5 73.5 0 0 0 5.779 10.847.019.019 0 0 0 .033-.02c-1.007-1.785-2.081-3.529-3.054-5.335m3.077 2.369c-.01-.016-.036 0-.025.015a34.3 34.3 0 0 0 4.169 5.223c.011.011.028-.006.018-.018a46 46 0 0 1-4.162-5.22m6.829 5.353c-.008-.017-.033-.002-.025.015a8.7 8.7 0 0 0 2.724 3.524c.015.012.036-.014.02-.026a10.1 10.1 0 0 1-2.719-3.513m75.383-129.37q-1.292-.87-2.59-1.732c-.007-.005-.013.006-.007.01q1.262.874 2.525 1.746c.84.575 1.664 1.2 2.543 1.713.016.01.036-.014.02-.027-.789-.62-1.659-1.149-2.491-1.71m1.249-2.053c-.017-.01-.032.016-.015.026l1.488.9a.01.01 0 0 0 .01-.019zm-34.96 29.252c-.015-.016-.039.008-.024.024 2.114 2.361 4.18 4.791 6.399 7.055.017.017.042-.009.027-.027-2.038-2.428-4.257-4.719-6.402-7.052m6.023 2.267a.008.008 0 0 0-.011.012c1.94 1.943 3.74 4.004 5.522 6.092.01.013.028-.005.018-.018a66 66 0 0 0-5.528-6.086m6.269 2.027a.01.01 0 0 0-.015.015c1.286 1.295 2.564 2.599 3.89 3.852a.015.015 0 0 0 .022-.021c-1.269-1.312-2.587-2.575-3.897-3.846m5.885 2.413c-.016-.015-.04.01-.024.024.673.617 1.338 1.245 2.03 1.841.012.01.03-.006.018-.018-.659-.632-1.347-1.235-2.024-1.847m4.458-.051c-.012-.008-.022.01-.011.018.662.452 1.323.904 2.004 1.328.016.01.03-.015.015-.026-.657-.46-1.332-.89-2.008-1.32"/><path fill="currentColor" d="M379.755 147.365c-3.733-3.404-7.572-6.693-11.417-9.969-.035-.03-.086.02-.051.05 3.771 3.362 7.556 6.715 11.438 9.949.02.017.05-.012.03-.03m33.35 87.964c-1.902-1.794-3.885-3.496-5.86-5.208-.022-.02-.055.013-.032.033 1.931 1.76 3.855 3.53 5.859 5.208.022.019.055-.012.033-.033m5.197 1.804c-2.408-2.263-4.863-4.47-7.224-6.784a.01.01 0 0 0-.015.015c2.316 2.35 4.682 4.676 7.212 6.796.018.015.045-.01.027-.027m4.254.54c-1.88-1.87-3.896-3.611-5.876-5.374-.008-.007-.02.004-.012.012 1.924 1.823 3.829 3.683 5.852 5.398.024.02.06-.013.036-.036m4.572.776c-1.774-1.613-3.662-3.109-5.518-4.627-.01-.008-.025.006-.015.015 1.814 1.567 3.612 3.169 5.506 4.639.018.014.045-.01.027-.027m5.892.551c-1.624-1.219-3.31-2.346-4.996-3.477-.027-.018-.052.025-.026.044 1.644 1.191 3.285 2.384 4.99 3.487.035.023.064-.03.032-.055m6.91-146.965c-.012-.021-.044-.002-.033.02 1.322 2.568 2.646 5.139 4.115 7.627a.036.036 0 0 0 .062-.036c-1.283-2.589-2.714-5.101-4.144-7.61m4.914 2.065c-.012-.027-.058-.008-.047.019 1.525 3.72 3.052 7.442 4.723 11.1.013.027.062.007.05-.022-1.477-3.74-3.102-7.42-4.726-11.098m4.004.326c-.008-.02-.04-.011-.033.01a113 113 0 0 0 7.586 16.656c.017.029.06.003.044-.026a177 177 0 0 1-7.597-16.64m4.917 2.218c-.008-.015-.03-.002-.022.013 3.058 6.18 6.11 12.376 9.353 18.462.012.021.043.002.033-.02-2.992-6.212-6.187-12.336-9.364-18.455m10.807 11.936q-2.452-5.23-5.005-10.412c-.009-.017-.034-.002-.026.015q2.48 5.146 4.897 10.322c1.611 3.445 3.1 6.96 4.787 10.367.01.019.043.005.035-.015-1.415-3.482-3.093-6.875-4.688-10.277m5.313 4.337q-2.959-6.17-5.941-12.33c-.01-.019-.039-.002-.03.018q2.925 6.19 5.877 12.367c1.964 4.112 3.844 8.282 5.937 12.33.013.026.048.004.037-.02-1.841-4.172-3.909-8.254-5.88-12.365m1.373-5.752c-.01-.02-.038-.002-.029.017 3.416 7.174 6.679 14.417 9.95 21.657.01.023.042.003.033-.019-3.09-7.317-6.466-14.52-9.954-21.655m6.786 6.665c-.018-.045-.091-.026-.073.02a140.4 140.4 0 0 0 8.422 17.922c.012.022.043.003.033-.019-2.925-5.923-5.861-11.81-8.382-17.923m6.808 8.845c-.016-.032-.063-.005-.048.027a87 87 0 0 0 5.858 10.533c.01.016.036.001.026-.015a115 115 0 0 1-5.836-10.545m5.108 3.713c-.009-.017-.034-.002-.026.015a29.1 29.1 0 0 0 4.46 7.176c.016.017.048-.007.033-.026a42.5 42.5 0 0 1-4.468-7.165m6.689 5.685c-.01-.015-.036-.001-.025.015a151 151 0 0 0 2.612 3.664c.011.015.037.001.026-.015q-1.277-1.854-2.613-3.664M56.39 12.659c16.222 0 26.269 8.25 32.177 16.176l-11.674 5.007 29.098 20.16 6.788-35.552-12.372 5.306a61 61 0 0 0-2.734-3.767C87.377 6.912 73.1 0 56.39 0S25.402 6.912 15.106 19.989A62 62 0 0 0 4.635 39.795l12.197 3.387c.353-1.246 8.998-30.523 39.557-30.523m.001 78.891c-16.224 0-26.27-8.25-32.178-16.175l11.674-5.007L6.788 50.207 0 85.759l12.372-5.306a61 61 0 0 0 2.734 3.768c10.296 13.076 24.572 19.988 41.283 19.988s30.988-6.912 41.284-19.988a62 62 0 0 0 10.471-19.807l-12.197-3.387c-.353 1.246-8.998 30.523-39.558 30.523"/></svg>