<svg xmlns="http://www.w3.org/2000/svg" data-name="time" viewBox="0 0 558.984 385.732"><path fill="currentColor" d="M91.14 214.108q-.515-1.71-.984-3.434c-.622-2.27-1.112-4.537-1.947-6.746a.027.027 0 0 0-.053.015c.437 2.32 1.198 4.51 1.85 6.773q.477 1.657.914 3.325a16 16 0 0 0 .9 3.229.106.106 0 0 0 .197-.053 15.2 15.2 0 0 0-.877-3.11m-4.808-4.9a.035.035 0 0 0-.068.019 53 53 0 0 0 2.326 6.665c.001.004.01.002.007-.002-.84-2.2-1.478-4.464-2.265-6.682m18.371-29.357a.178.178 0 0 0-.276-.036 2.34 2.34 0 0 0-.465 1.485 34 34 0 0 0-.18 1.978c-.076 1.401-.014 2.802-.07 4.205a57 57 0 0 1-.32 4.08c-.074.661-.16 1.32-.241 1.98a10 10 0 0 0-.19 2.225.051.051 0 0 0 .1.014 8.3 8.3 0 0 0 .219-1.869l.143-1.978c.108-1.48.27-2.958.497-4.424.208-1.338.53-2.652.718-3.992.086-.615.148-1.23.204-1.848a2.8 2.8 0 0 0-.139-1.82m2.669 1.262c-.38 2.234-.512 4.515-.73 6.769a84 84 0 0 1-.409 3.657c-.166 1.18-.453 2.336-.626 3.513-.027.18.246.262.279.077.213-1.214.291-2.463.462-3.685.16-1.138.344-2.272.506-3.41a46 46 0 0 0 .633-6.905c0-.064-.104-.083-.115-.016m3.028 3.073q-.361 2.816-.69 5.637-.167 1.41-.317 2.822a8.3 8.3 0 0 0-.09 2.637c.028.12.18.096.219 0a8.8 8.8 0 0 0 .318-2.637q.082-1.41.174-2.822.186-2.821.44-5.637c.004-.036-.05-.034-.054 0m3.285 1.537c-.191 2.605-.427 5.214-.407 7.828a.043.043 0 0 0 .086 0c.272-2.6.29-5.218.352-7.828 0-.02-.03-.02-.031 0m33.185.331a55.3 55.3 0 0 0-2.832 18.902.066.066 0 0 0 .132 0 122 122 0 0 1 2.76-18.885.031.031 0 0 0-.06-.017m-2.86 3.585a.02.02 0 0 0-.038-.01 50 50 0 0 0-1.641 9.059 35 35 0 0 0 .263 9.188c.022.119.207.088.207-.028.019-3.016-.105-6.026.073-9.041a67 67 0 0 1 1.136-9.168m-6.75 28.89a42.2 42.2 0 0 1-3.597 8.762 136 136 0 0 1-2.176 4.023c-.41.723-1.077 1.153-1.399 1.945-.293.722-.44 1.512-.681 2.254a96 96 0 0 1-3.862 9.192q-1.907 4.282-3.684 8.62c-1.392 3.397-2.733 6.817-3.937 10.286-.016.048.058.066.076.02 2.403-6.085 4.809-12.163 7.473-18.14a58 58 0 0 1 4.375-8.769c.424-.63.826-1.269 1.274-1.884a4.33 4.33 0 0 0 1.01-2.195 7.7 7.7 0 0 1 .92-2.274q.493-1.034.969-2.076a39.3 39.3 0 0 0 3.292-9.75c.005-.034-.044-.05-.053-.014m-9.34 30.49c-2.799 7.023-6.27 13.75-9.572 20.543a.11.11 0 0 0 .189.11 115 115 0 0 0 9.602-20.593c.051-.137-.166-.193-.219-.06m37.252 1.895c-7.034 8.629-13.963 17.347-20.96 26.007q-1.282 1.588-2.576 3.166a8.4 8.4 0 0 1-1.375 1.484 7.4 7.4 0 0 0-1.454 1.43c-.858 1.097-1.452 2.378-2.25 3.517-.802 1.144-1.644 2.261-2.472 3.386-3.32 4.506-6.79 8.894-10.267 13.278q-1.43 1.802-2.862 3.6c-1.287-2.98-2.676-5.9-3.807-8.95a103 103 0 0 1-2.867-9.005l.536-1.29c.025-.06-.081-.106-.107-.045q-2.145 5.028-4.292 10.055c-.063-.159-.12-.32-.184-.477-.01-.023-.044-.015-.038.01.053.197.115.392.17.588l-.48 1.124-2.389 5.592c-.777 1.827-1.644 3.659-2.239 5.555a.059.059 0 0 0 .108.045c.267-.498.513-1.01.749-1.527a62 62 0 0 0 2.694 9.06c.01.023.046.015.038-.01-1-3-1.973-5.999-2.722-9.074.59-1.294 1.105-2.629 1.65-3.932q.522-1.252 1.039-2.506a52.5 52.5 0 0 0 1.888 7.035 76 76 0 0 0 1.186 3.33 13.4 13.4 0 0 0 1.45 3.26.063.063 0 0 0 .113-.048 18.4 18.4 0 0 0-1.225-3.305 94 94 0 0 1-1.244-3.437c-.768-2.271-1.414-4.58-2.113-6.874a.03.03 0 0 0-.031-.018l1.266-3.054.362-.871c.676 2.34 1.503 4.633 2.319 6.927q.683 1.921 1.322 3.858c.208.624.394 1.256.587 1.885a9 9 0 0 0 .66 1.889c.04.068.17.045.16-.044a8.3 8.3 0 0 0-.574-1.784c-.227-.62-.462-1.237-.68-1.86-.46-1.322-.897-2.653-1.323-3.986-.755-2.364-1.5-4.737-2.402-7.05l1.941-4.675q1.123 4.478 2.668 8.825a63 63 0 0 0 3.29 7.955q-3.176 3.987-6.343 7.98c-.028.035.02.085.05.05q3.214-3.91 6.375-7.865c.038.071.07.146.108.217.014.026.061.008.05-.021l-.104-.262c4.847-6.034 9.665-12.094 14.663-18 1.803-2.131 3.574-4.315 5.565-6.273a9.8 9.8 0 0 0 2.5-3.133 16 16 0 0 1 2.407-3.46q5.096-6.613 10.145-13.262c3.786-4.994 7.635-9.94 11.37-14.973.022-.028-.026-.065-.049-.037m-46.673 58.96c-1.053-2.687-2.24-5.314-3.215-8.035q-1.539-4.3-2.732-8.719c-.006-.022-.025-.024-.043-.024l1.736-4.179a84 84 0 0 0 2.818 9.181 61 61 0 0 0 3.847 8.743z"/><path fill="currentColor" d="M107.615 306.736a.035.035 0 0 0-.068.02 61.6 61.6 0 0 0 3.337 9.908c.01.024.052.007.043-.018-1.202-3.279-2.404-6.533-3.312-9.91m13.458-8.475c-.716-1.813-1.361-3.654-2.01-5.492q-1.926-5.465-4.07-10.842c-.013-.032-.065-.02-.053.014q1.886 5.538 3.99 10.993c.687 1.78 1.377 3.562 1.997 5.367a39.5 39.5 0 0 0 1.968 5.403c.055.105.21.03.186-.079a39.4 39.4 0 0 0-2.008-5.364m3.215-1.325-.833-2.325q-.833-2.326-1.673-4.649-1.676-4.65-3.4-9.282c-.02-.056-.11-.033-.09.025q1.641 4.724 3.344 9.425.837 2.324 1.678 4.647.42 1.162.842 2.323a15 15 0 0 0 .856 2.2c.018.032.063.01.057-.024a15.6 15.6 0 0 0-.781-2.34m-3.366-20.679c-.007-.019-.036-.01-.03.008.626 1.892 1.246 3.784 1.942 5.651.012.033.064.02.053-.014-.607-1.9-1.288-3.77-1.965-5.645m5.428 15.998c-.013-.027-.053-.003-.04.024a20 20 0 0 1 1.041 2.887.023.023 0 0 0 .045-.013 11.7 11.7 0 0 0-1.046-2.898m-.619-14.499c-.024-.05-.097-.006-.074.043.782 1.683 1.435 3.414 2.14 5.13.017.04.081.025.068-.02a36 36 0 0 0-2.134-5.153m10.967-13.738c-.006-.014-.027-.002-.02.012 1.002 2.277 1.996 4.56 3.017 6.829.009.018.035.002.027-.016-.993-2.282-2.013-4.552-3.024-6.825m2.277-6.838c-.013-.028-.053-.004-.04.023 1.999 4.615 3.991 9.233 6.072 13.812.014.032.06.004.047-.027-1.97-4.628-4.028-9.217-6.08-13.808m4.062-3.569c-.026-.06-.133-.016-.107.045 1.219 2.906 2.36 5.862 3.728 8.702.019.04.087.011.071-.03-1.1-2.954-2.44-5.825-3.692-8.717m3.426-2.72c-.015-.036-.076-.02-.06.017.448 1.083.889 2.168 1.364 3.24.009.02.043.006.035-.015-.426-1.09-.886-2.164-1.339-3.242M188.233 97.14c-1.975-.314-3.97-.567-5.923-1a13 13 0 0 1-1.409-.385c-.517-.18-.934-.52-1.447-.705a6.3 6.3 0 0 0-2.82-.164 13.4 13.4 0 0 1-3.143-.23 51 51 0 0 1-3.145-.552.12.12 0 0 0-.128.052 1.5 1.5 0 0 1-1.105.816c-.142.028-.108.213 0 .256 1.766.707 3.57 1.418 5.39 1.972.066.02.113-.085.048-.115-1.623-.744-3.323-1.373-5.007-1.98a1.6 1.6 0 0 0 .45-.271c.092-.08.241-.359.343-.412.2-.104.466.03.662.078 1.107.272 2.216.54 3.318.834.552.147 1.093.319 1.632.506.545.19 1.044.459 1.593.643a4.8 4.8 0 0 0 1.557.299c.578-.004 1.115-.214 1.694-.225a44 44 0 0 1 6.883.763 182 182 0 0 0 3.202.424q.852.102 1.704.208l.254.027c-.537-.107-1.072-.238-1.575-.327a173 173 0 0 0-3.028-.513m4.603.841a9 9 0 0 0 1.239.16c-.404-.084-.83-.118-1.239-.16m1.695.18c-.149.006-.304-.012-.456-.02a4 4 0 0 1 .443.118c.068.024.088-.101.013-.098"/><path fill="currentColor" d="M558.926 94.59a67 67 0 0 0-1.864-11.818c-.94-3.921-2.112-7.78-3.279-11.639l-3.642-12.042-3.638-12.029a70.6 70.6 0 0 1-2.797-11.758c-.497-4.046-.549-8.131-1.017-12.18-.403-3.488-.872-7.633-3.646-10.122a13.3 13.3 0 0 0-4.284-2.4 57 57 0 0 0-5.503-1.703 48 48 0 0 0-5.816-1.243c-.721-.098-1.445-.178-2.168-.26a17.5 17.5 0 0 0-2.666-1.862 11.58 11.58 0 0 0-7.052-1.305c-2.602.294-5.18.945-7.74 1.48-5.255 1.095-10.496 2.27-15.655 3.76-2.86.827-5.682 1.767-8.519 2.667a47 47 0 0 1-4.026 1.099c-1.682.139-3.363.292-5.043.431-7.145.589-14.309 1.039-21.4 2.13a124 124 0 0 0-19.66 4.935c-6.196 2.026-12.326 4.26-18.597 6.046-1.761.502-3.533.968-5.316 1.38-1.592.37-3.199.657-4.796.992-3.527-.666-6.914-2.207-10.513-2.508a28.5 28.5 0 0 0-7.377.701 46 46 0 0 1-7.528.626c-5.136.063-10.278-.025-15.414-.056q-7.797-.047-15.593-.098c-2.87-.02-5.739-.044-8.608-.054l-4.366-.016q-.764-.005-1.522.001a19 19 0 0 1 3.007-.959c2.695-.662 5.428-1.226 7.679-2.952a13.17 13.17 0 0 0 4.424-14.339A14.4 14.4 0 0 0 332.4.01a6.04 6.04 0 0 0-4.776 1.853c-1.425 1.427-2.674 3.062-3.986 4.593-1.294 1.508-2.542 3.066-3.876 4.538a4.6 4.6 0 0 1-1.947 1.453 2.9 2.9 0 0 1-1.14.08 12 12 0 0 0-.617-1.716 8.36 8.36 0 0 0-5.271-4.644 5.9 5.9 0 0 0-3.574.201c-1.263.486-2.338 1.312-3.548 1.902-2.515 1.225-5.453 1.198-8.185 1.228q-19.121.204-38.244.066-19.122-.137-38.24-.594a76 76 0 0 0-4.697.035 8.2 8.2 0 0 0-.726-2.08 9.4 9.4 0 0 0-2.852-3.21 14 14 0 0 0-8.315-2.51c-5.968.058-12.377 3.597-13.555 9.841a29 29 0 0 0-.27 5.914c.036 2.125.08 4.25.121 6.374.019.949.045 1.897.066 2.846a69 69 0 0 1-2.592 2.588c-.807.758-1.616 1.51-2.442 2.242-.038-.02-.057-.057-.104-.07a3.6 3.6 0 0 0-1.068-.026q-.543.022-1.086.04-.73.024-1.46.04a14.6 14.6 0 0 0-2.617-.405c-2.299-.15-4.613-.174-6.915-.257l-13.817-.496-27.914-1.002c-18.512-.665-37.025-1.41-55.547-1.744q-7.754-.14-15.507-.323c-5.266-.127-10.525-.13-15.79-.188a.133.133 0 0 0 0 .265c4.7.285 9.392.64 14.098.863q6.909.328 13.816.689 13.81.74 27.632 1.278 27.631 1.033 55.265 2l15.508.555 1.576.056c.744.427 1.502.832 2.249 1.253 1.68.948 3.316 1.99 5.03 2.878a4.85 4.85 0 0 0-.36 2.008c-.001 1.15.025 2.299.038 3.448.104 9.133.188 18.267.329 27.4.04 2.532.056 5.066.121 7.598.034 1.286.042 2.575.108 3.86.02.404.026.813.045 1.22-.031.495-.073.99-.1 1.485a62 62 0 0 0-.059 3.36c.001.552.008 1.106.045 1.658-.966.216-1.934.426-2.889.689a15.3 15.3 0 0 0-3.904 1.573 11.3 11.3 0 0 0-3.14 2.958 36 36 0 0 0-2.264 3.619q-1.166 2.015-2.439 3.965c-3.564 5.475-7.662 10.573-11.687 15.71q-6.29 8.029-12.494 16.122c-2.316 3.026-4.646 6.041-6.93 9.092-1.998 2.67-4.155 5.288-5.943 8.115-1.833 1.59-3.676 3.167-5.5 4.765q-3.742 3.278-7.597 6.424a74 74 0 0 0-7.517 6.32 17.8 17.8 0 0 0-4.129 7.756 40 40 0 0 0-1.005 5.902q-.554.702-1.077 1.427a206 206 0 0 0-2.472 3.503 246 246 0 0 0-4.156 6.24 18 18 0 0 0-2.672.794 70 70 0 0 1-3.594 1.101q-3.726 1.055-7.472 2.04-7.45 1.969-14.958 3.72c-10.034 2.337-20.133 4.44-30.247 6.4-5.696 1.105-11.41 2.202-17.152 3.039-.022.003-.017.04.005.038 5.092-.559 10.195-1.01 15.27-1.71 5.186-.716 10.361-1.448 15.513-2.379 10.197-1.843 20.309-4.118 30.335-6.737q4.228-1.104 8.435-2.284c1.359-.381 2.717-.767 4.055-1.215q.445-.149.88-.303-4.033 6.305-7.912 12.708-8.79 14.477-16.886 29.36c-.13.239-.255.48-.384.718-.287.363-.567.732-.862 1.09-2.368 2.867-4.938 5.568-7.527 8.234-5.15 5.303-10.447 10.583-14.31 16.941-4.259 7.01-6.212 15.025-7.588 23.03-1.397 8.13-2.292 16.402-4.802 24.293-.67 2.109-1.524 4.148-2.258 6.234a27.4 27.4 0 0 0-1.43 6.69c-.416 4.583-.261 9.211-.807 13.783-.02.174-.057.346-.082.52a26.6 26.6 0 0 1-5.23 6.215c-1.658 1.41-3.566 2.467-4.903 4.227a29.6 29.6 0 0 0-3.138 6.171 939 939 0 0 0-6.047 14.113c-1.092 2.598-2.046 5.254-3.12 7.86-1.102 2.68-2.143 5.394-3.206 8.092-.083.21.265.356.364.154 2.254-4.623 4.389-9.314 6.743-13.887 2.357-4.58 4.342-9.365 6.417-14.077a54 54 0 0 1 2.978-6.373c1.19-1.959 3.053-3.05 4.798-4.45a24.16 24.16 0 0 0 6.958-9.38 38.4 38.4 0 0 0 3.2-13.037c.003-.072-.104-.083-.124-.017a71 71 0 0 1-3.969 11.307c-.07.14-.145.278-.216.417.074-.293.164-.584.234-.877a36 36 0 0 0 .896-6.816 42 42 0 0 1 .653-6.871 44 44 0 0 1 2.12-6.39c2.938-7.781 4.048-16.042 5.355-24.21 1.29-8.062 2.808-16.286 6.682-23.566 3.476-6.534 8.618-11.944 13.595-17.343 1.869-2.027 3.742-4.052 5.526-6.153-.301.6-.615 1.193-.908 1.797-1.379 2.853-2.562 5.791-3.741 8.73-.08.2.23.31.335.141 1.519-2.408 3.097-4.79 4.508-7.264q2.09-3.665 4.09-7.376 4.012-7.424 8.2-14.751 7.398-12.945 15.345-25.565c1.426 5.692 2.84 11.423 4.625 17.013a.047.047 0 0 0 .09-.025c-1.303-5.743-3-11.42-4.665-17.068.586-.931 1.164-1.868 1.754-2.797q.799 3.172 1.622 6.337.502 1.923 1.013 3.843a33 33 0 0 0 1.157 4.06c.015.036.083.038.077-.01a30 30 0 0 0-.922-3.75q-.542-2.04-1.095-4.077-.882-3.251-1.796-6.493l.294-.468 1.13-1.777c.458 2 .942 3.995 1.466 5.98q.472 1.787.955 3.57a33 33 0 0 0 1.094 3.649c-.243 1.737-.467 3.477-.732 5.212-.309 2.024-.713 4.031-1.015 6.055-.028.189.239.275.294.08.971-3.405 1.568-6.911 2.45-10.339.87-3.373 1.415-6.87 1.982-10.305.578-3.508.997-7.035 1.358-10.571.312-3.066.48-6.162 1.018-9.199a19 19 0 0 1 3.053-7.985c1.843-2.534 4.567-4.362 6.98-6.303a191 191 0 0 0 14.938-13.123c2.629-2.608 5.195-5.272 7.767-7.937a148 148 0 0 0 3.8-4.051c1.291-1.442 2.488-2.961 3.755-4.423.068-.079-.041-.192-.116-.116-2.372 2.42-4.882 4.719-7.306 7.088-2.015 1.97-4.098 3.862-6.196 5.74.897-1.087 1.779-2.187 2.673-3.269a962 962 0 0 0 6.438-7.898q6.415-7.93 12.755-15.918c4.033-5.104 8.142-10.166 11.845-15.518 1.774-2.565 3.366-5.223 4.953-7.905a16.4 16.4 0 0 1 2.338-3.233 9.1 9.1 0 0 1 3.341-2.085 5.8 5.8 0 0 1 1.592.235 7.8 7.8 0 0 1 1.98.918 3.05 3.05 0 0 0 2.216.356c.725-.141 1.386-.51 2.123-.636a7.7 7.7 0 0 1 2.246-.036 15.3 15.3 0 0 1 4.623 1.37.047.047 0 0 0 .047-.08 10.6 10.6 0 0 0-3.96-1.74 39 39 0 0 0-4.53-.471 22 22 0 0 0-2.331-.042 6.1 6.1 0 0 1-1.915-.531c.95-.26 1.907-.494 2.851-.766l.101-.033a.16.16 0 0 0 .185-.06 46 46 0 0 0 4.599-1.638 40.8 40.8 0 0 0 8.958-5.017.14.14 0 0 0-.142-.243 74 74 0 0 1-8.67 3.682 51 51 0 0 1-2.518.777c1.263-.95 2.526-1.9 3.766-2.883q3.424-2.711 6.9-5.354 6.702-5.124 13.61-9.978c3.557-2.489 7.193-4.87 10.937-7.069a9 9 0 0 1 .67-.24 7.5 7.5 0 0 1 2.862-.32 50 50 0 0 1 6.352.887 35 35 0 0 1 5.889 1.757 16.2 16.2 0 0 1 5.138 2.957.059.059 0 0 0 .092-.07 8.87 8.87 0 0 0-4.571-3.572 42 42 0 0 0-6.395-2.057c-2.15-.54-4.478-1.434-6.723-1.157-.057.007-.114.018-.171.025a101 101 0 0 1 7.138-3.566 34 34 0 0 1 7.76-2.62c.571.022 1.152.009 1.701.06a18 18 0 0 1 2.907.501 19.5 19.5 0 0 1 2.785.94 4.06 4.06 0 0 1 2.103 1.475c.566 1.03-.212 2.104-.754 2.977a20 20 0 0 1-1.598 2.235c-1.135 1.374-2.677 3.043-4.42 3.584-.167.053-.148.343.044.323a3.9 3.9 0 0 0 1.857-1.06 23 23 0 0 0 1.882-1.647 18.6 18.6 0 0 0 3.046-3.888 5.1 5.1 0 0 0 .807-2.19 2.03 2.03 0 0 0-.892-1.688 8.6 8.6 0 0 1 2.618 2.733c2.201 3.691 1.812 8.461.673 12.432-2.67 9.302-9.112 16.95-15.893 23.602a202 202 0 0 1-5.38 5.06c-1.89 1.724-3.755 3.513-5.782 5.08a22 22 0 0 1-3.215 2.072 26 26 0 0 0-3.328 1.906 16 16 0 0 0-4.253 5.385c-.358.635-.715 1.265-1.118 1.865.113-.529.205-1.063.266-1.603a10.5 10.5 0 0 0-.075-3.188 10.2 10.2 0 0 0-1.211-2.865c-.019-.034-.08-.01-.065.027a7.9 7.9 0 0 1 .436 2.952 11.8 11.8 0 0 1-.339 2.904 26.2 26.2 0 0 1-2.372 5.712c-2.104 4.042-4.472 7.96-6.72 11.924q-3.45 6.087-6.887 12.182a132 132 0 0 1-7.027 11.342 17.1 17.1 0 0 0-3.109 6.062 7.8 7.8 0 0 0 .46 4.89 7.7 7.7 0 0 0-1.677-.055 22.7 22.7 0 0 0-4.853 1.127c-3.322 1.06-6.599 2.294-9.827 3.61a51 51 0 0 0-4.782 2.089c-1.566.835-3.105 1.718-4.663 2.57-.098.054-.011.196.087.148a51 51 0 0 1 4.436-1.868c1.373-.51 2.717-1.1 4.087-1.624a70 70 0 0 1 8.634-2.672c1.47-.354 2.949-.666 4.428-.974a10.2 10.2 0 0 1 4.49-.323 16.8 16.8 0 0 1 3.864 1.731q2.014 1.071 4.027 2.146c10.689 5.71 21.33 11.582 31.278 18.527a34 34 0 0 1 3.842 2.823 3.8 3.8 0 0 1 1.161 1.777 9.4 9.4 0 0 1 .164 2.328q.018 2.712-.07 5.421c-.022.684-.076 1.384-.105 2.084l-.042.202c-.084.423-.184.842-.28 1.262-.093.401-.193.785-.258 1.19a5.3 5.3 0 0 0-.823-.307 9.5 9.5 0 0 0-5.154-3.595 18.9 18.9 0 0 0-6.646-.1c0-.01.007-.021-.002-.032a16.5 16.5 0 0 0-2.175-1.865 97 97 0 0 0-2.22-1.727q-2.332-1.744-4.73-3.394c-.017-.012-.032.015-.016.027q2.375 1.75 4.685 3.587c.727.576 1.458 1.148 2.18 1.731a21 21 0 0 0 2.166 1.688q-.86.11-1.699.228a69 69 0 0 0-8.69 1.782 53 53 0 0 0-9.26 3.697c-.043.02-.012.096.033.078a70 70 0 0 1 8.02-2.507 53 53 0 0 1 8.353-1.602 42 42 0 0 1 8.202-.236 7.56 7.56 0 0 1 3.56 1.206 11.8 11.8 0 0 1 2.62 2.754c.906 1.199 1.822 2.395 2.674 3.633.894 1.298 1.7 2.64 2.543 3.97a.153.153 0 0 0 .278-.118 27.6 27.6 0 0 0-3.4-7.326c.385.27.763.55 1.12.856a23.5 23.5 0 0 1 3.333 3.536c1.041 1.357 1.982 2.784 3.063 4.111a42 42 0 0 0 3.329 3.598c2.357 2.29 4.904 4.371 7.384 6.525 1.239 1.077 2.466 2.171 3.638 3.321a7.5 7.5 0 0 1 1.449 1.767 6.7 6.7 0 0 1 .619 2.534c.21 2.134.39 4.268.482 6.41.046 1.072.006 2.156.091 3.224a15 15 0 0 0 .223 1.615 110 110 0 0 0-1.683-1.836 16 16 0 0 0-8.05-5.051c-3.811-.825-7.851-.185-11.614.577a30.4 30.4 0 0 0-5.576 1.626 28.2 28.2 0 0 0-4.902 2.818c-.042.028-.004.094.04.067a24 24 0 0 1 4.671-1.972 36 36 0 0 1 4.77-1.292 37.5 37.5 0 0 1 4.997-.545 35.4 35.4 0 0 1 5.144-.031 11.2 11.2 0 0 1 4.582 1.323 17 17 0 0 1 3.565 2.84c2.477 2.493 4.715 5.235 7.029 7.876q3.745 4.276 7.491 8.55a35.4 35.4 0 0 1 5.512 7.565 13.3 13.3 0 0 1 .72 9.556c-.919 3.422-2.43 6.686-3.66 10.004a233 233 0 0 0-3.535 10.307 91 91 0 0 0 .76-11.686 87 87 0 0 0-.095-3.14c-.003-.067-.112-.09-.122-.017-.578 4.083-.865 8.199-1.452 12.282a81.5 81.5 0 0 1-2.53 11.87c-2.139 7.116-5.25 13.843-10.263 19.402-2.664 2.952-5.49 5.713-7.86 8.923-2.342 3.175-4.353 6.576-6.51 9.876a171 171 0 0 1-14.297 18.633 326 326 0 0 1-7.913 8.738 116 116 0 0 0-7.852 8.737c-.588.77-1.134 1.57-1.726 2.339-.197.255.204.498.417.321 1.54-1.27 3.134-2.455 4.6-3.814 1.454-1.349 2.792-2.826 4.154-4.266a373 373 0 0 0 8.058-8.766 188 188 0 0 0 14.68-18.547c2.247-3.285 4.279-6.71 6.513-10.002a54 54 0 0 1 3.57-4.748c1.301-1.523 2.701-2.957 4.076-4.413a45.7 45.7 0 0 0 10.96-18.042.24.24 0 0 0 .25-.126c.402-.84.828-1.667 1.229-2.507a16.7 16.7 0 0 0 .911-2.728q.781-2.784 1.632-5.549 1.665-5.413 3.591-10.74c1.292-3.574 2.86-7.071 3.997-10.697a16.1 16.1 0 0 0 .216-10.29 27 27 0 0 0-5.191-8.217c-2.491-2.94-5.075-5.806-7.617-8.701-1.63-1.855-3.234-3.74-4.872-5.591a12.7 12.7 0 0 0 .51-2.283 24 24 0 0 0 .068-2.975q-.01-2.973-.205-5.942a9.44 9.44 0 0 0-1.407-5.173 24.8 24.8 0 0 0-3.641-3.633c-2.512-2.232-5.137-4.333-7.608-6.611a49 49 0 0 1-3.597-3.639c-1.163-1.32-2.161-2.757-3.23-4.151a17.3 17.3 0 0 0-4.11-4.04c-.436-.29-.893-.557-1.356-.811.013-.016.03-.027.042-.045a.77.77 0 0 0 .181-.437.3.3 0 0 0-.022-.09 3.3 3.3 0 0 0 .2-.531 7.3 7.3 0 0 0 .125-1.16c.076-.861.13-1.723.173-2.586.083-1.683.139-3.367.185-5.05a15.5 15.5 0 0 0-.245-4.376 5.86 5.86 0 0 0-2.577-3.132c-5.118-3.76-10.474-7.192-15.929-10.439-5.43-3.233-10.97-6.277-16.537-9.267q-2.114-1.135-4.232-2.262c-1.33-.708-2.645-1.473-4.022-2.086a10.4 10.4 0 0 0-2.146-.703 7.44 7.44 0 0 1 .106-3.442 2 2 0 0 0 .191.183 5.05 5.05 0 0 0 2.715.789 9.3 9.3 0 0 0 5.414-1.234 12.7 12.7 0 0 0 4.614-5.403 5 5 0 0 0 .999.123 8 8 0 0 0 1.432-.237c.959-.208 1.9-.508 2.843-.776q2.717-.775 5.43-1.557 5.547-1.598 11.08-3.245 11.068-3.28 22.098-6.69 22.059-6.818 43.955-14.15 8.64-2.893 17.25-5.877a2.6 2.6 0 0 0 .571.725q.495.523 1.037.997a5.4 5.4 0 0 0 2.27 1.308 13.4 13.4 0 0 0 2.726.286 5.1 5.1 0 0 0 1.925-.124 16 16 0 0 0 1.29 2.588 14 14 0 0 0 4.207 4.16 28.7 28.7 0 0 0 5.45 2.662 58 58 0 0 0 6.48 2.143c4.186 1.075 8.79 1.467 12.868-.232a12.75 12.75 0 0 0 7.405-7.48c1.347-4.126-.538-8.262-2.89-11.61a104 104 0 0 0-8.038-9.87c.394.05.72.079.867.1 3.777.555 7.56 1.04 11.351 1.48l11.379 1.32 5.69.66a39 39 0 0 1 5.297.85 22.7 22.7 0 0 1 5.175 2.122 34 34 0 0 0 3.428 1.68q.91.963 1.822 1.924c4.99 5.248 9.726 10.732 14.682 16.012a125 125 0 0 0 15.728 14.525 70 70 0 0 0 9.301 5.95 93 93 0 0 0 11.783 5.109 158 158 0 0 0 25.648 7c.101.018.203.031.304.05q.1.06.2.123a15.87 15.87 0 0 0 7.982 2.38c2.638.115 5.282.063 7.92-.036q.241.075.476.151c.987.323 2.003.585 3.014.82a75 75 0 0 0 6.027 1.124c4.04.589 8.112.928 12.168 1.383a94 94 0 0 1 12.118 2.002 32 32 0 0 0 6.122 1.254 11.24 11.24 0 0 0 5.645-1.407 21 21 0 0 0 4.316-2.962 7.8 7.8 0 0 0 2.744-2.257 16.8 16.8 0 0 0 2.42-4.585 88 88 0 0 0 1.117-3.146 26 26 0 0 0 .647-2.505 11 11 0 0 1 1.629-1.413 39 39 0 0 0 4.308-3.147 51 51 0 0 0 4.02-4.477 20.6 20.6 0 0 0 3.185-4.689 8.63 8.63 0 0 0 .634-5.298 10.56 10.56 0 0 0-2.353-4.546 23.1 23.1 0 0 0-9.22-6.134 28 28 0 0 0-6.556-1.83c-.384-.055-.77-.094-1.156-.135 1.06-.176 2.123-.345 3.18-.532a113 113 0 0 0 14.631-3.539c3.764-1.202 7.639-2.683 10.558-5.445a11.5 11.5 0 0 0 3.036-4.666 17.9 17.9 0 0 0 .43-7.238c-.067-.767-.168-1.53-.258-2.294a1.3 1.3 0 0 0 .334-.164.38.38 0 0 0 .36-.129 5.3 5.3 0 0 0 .723-1.103 8 8 0 0 0 .38-1.47q.283-1.493.439-3.002a36.4 36.4 0 0 0 .137-5.823M96.938 206.911l-.044.324c-.217-1.153-.568-2.282-.876-3.412q-.485-1.782-.959-3.568-.802-3.024-1.642-6.037l1.318-2.075c.376 1.75.864 3.479 1.314 5.208q.39 1.504.772 3.009a24 24 0 0 0 .658 2.412 191 191 0 0 1-.54 4.139m.634-4.903c-.123-.546-.28-1.087-.416-1.616q-.404-1.562-.818-3.12c-.468-1.765-.922-3.547-1.507-5.28q.621-.974 1.24-1.95c.089.48.18.96.294 1.437a181 181 0 0 0 .764 3.091c.297 1.148.557 2.356.893 3.53q-.22 1.954-.45 3.908m.807-7.036q-.095.82-.187 1.643c-.204-.732-.415-1.46-.601-2.172-.259-.989-.533-1.972-.809-2.956a35 35 0 0 0-.542-1.713c.307-.488.619-.974.924-1.463.276 1.072.556 2.143.82 3.217.18.736.349 1.486.533 2.23-.047.405-.09.81-.138 1.214m.313-2.753q-.092-.377-.188-.746a36 36 0 0 0-1.135-3.49q.579-.93 1.156-1.862a22 22 0 0 0 .302 2.522c.047.285.118.566.176.85-.1.909-.207 1.817-.31 2.726m.815-7.67c-.077.836-.17 1.67-.256 2.506q-.186-.705-.44-1.394l.697-1.124Zm82.26-151.903q-.614.455-1.247.881a10.5 10.5 0 0 0-1.84-.964c1.03.015 2.06.033 3.086.083m-5.667-.137c.514.019 1.03.023 1.545.032.282.108.565.213.842.333.61.265 1.222.53 1.838.78-.263.176-.526.352-.795.519q-.315.194-.63.393c-.802-.47-1.644-.873-2.47-1.293-.551-.28-1.11-.54-1.663-.812zm1.372 3.253a3 3 0 0 0-.277.45 28.5 28.5 0 0 0-3.57-2.265q-1.083-.596-2.186-1.156c-.082-.042-.543-.254-1.035-.486l3.697.132c.696.455 1.405.889 2.141 1.285a23 23 0 0 0 2.275 1.098 4.8 4.8 0 0 0-1.045.942m5.985 2.395a22 22 0 0 0-2.65 2.23 5 5 0 0 0-1.01 3.42c-.013 1.442.011 2.884.023 4.326l.067 8.588.076 9.708a.88.88 0 0 0 .436.76c.345.181.739.273 1.078.466a2.2 2.2 0 0 1 .725.75 7.4 7.4 0 0 1 .892 1.978 14.6 14.6 0 0 1 .453 4.71 28 28 0 0 1-.838 5.738 31 31 0 0 1-.877 2.832c-.23.649-.505 1.282-.714 1.935-.334.298-.672.592-.999.897q-.476.445-.955.886-.018-.295-.031-.589c-.047-1.12-.059-2.24-.129-3.359-.037-.6-.092-1.197-.138-1.796l.008-.286c.037-1.12.037-2.241.04-3.363.008-2.241-.012-4.483-.026-6.725q-.04-6.726-.11-13.451l-.138-13.451-.035-3.363a27 27 0 0 1-.007-3.206c.099-.89.745-1.323 1.452-1.762a38 38 0 0 0 2.31-1.53 29 29 0 0 0 4.672-4.144 17.7 17.7 0 0 0 1.776-2.4l.081 3.554a19.2 19.2 0 0 1-2.866 4.221 27 27 0 0 1-2.566 2.426M201.503 69.6c.004-.048.01-.086.014-.139a63 63 0 0 0 .109-6.88c-.134-3.451-.92-7.766 1.37-10.636l.77 15.451a.64.64 0 0 0 .215.436q-1.245.875-2.478 1.768m2.451-55.294q-.544-.113-1.093-.232c-.04-.234-.068-.47-.11-.702a47 47 0 0 0-.709-3.165c.376-.033.753-.07 1.13-.085.442-.017.883-.006 1.324.002l.46.042c.02.294.018.59.035.832q.056.823.056 1.65c0 .285-.022.569-.033.854-.094.328-.169.66-.252.99q-.401-.102-.808-.186m8.541 2.347c-.115 2.242-.194 4.488-.274 6.732-.13 3.599-.414 7.229-.377 10.84-.059.69-.124 1.38-.178 2.07-.485 6.188-.75 12.387-.944 18.59q-.08 2.543-.138 5.086c-.022.96-.237 2.404.447 3.146q-1.569.994-3.118 2.02l-.01.006c.013-.042.032-.083.043-.126a13.3 13.3 0 0 0 .257-3.289l.02-3.498c.026-4.821.208-9.675.03-14.491a.466.466 0 0 0-.583-.445c-1.189.337-1.833-2.07-2.074-2.87a18.6 18.6 0 0 1-.704-3.681 17.45 17.45 0 0 1 .976-7.262c.827-2.395 2.418-4.312 3.879-6.333a6.97 6.97 0 0 0 1.126-3.63q.233-2.27.345-4.552c.092-1.872.242-4.047-.484-5.837a.19.19 0 0 0 .021-.216 6 6 0 0 0-.416-.554 4.8 4.8 0 0 0-.727-.94.4.4 0 0 0-.337-.121 11.45 11.45 0 0 0-5.987-2.078 10.97 10.97 0 0 0-8.22 2.644 5.25 5.25 0 0 0-1.852 4.124 3.8 3.8 0 0 0 .756 2.068 3.94 3.94 0 0 0 1.775 1.084c.65.25 1.34.401 1.983.667a2.57 2.57 0 0 1 1.514 2.074c.474 2.048.934 4.11 1.202 6.196a20.4 20.4 0 0 1 .208 3.471 1.95 1.95 0 0 1-.561 1.63 3 3 0 0 1-.92.45c-.79.227-1.617.266-2.395.447a10 10 0 0 1-.41-.133 6 6 0 0 1-1.243-.635c-.09-.192-.16-.397-.236-.597.063.004.124.018.188.018a.008.008 0 0 0 0-.016q-.094-.006-.193-.016c-.057-.15-.129-.292-.177-.447a.652.652 0 0 0-1.174-.153 4.86 4.86 0 0 0-.641 3.683c.215 1.492.597 2.933.694 4.445a73 73 0 0 1-.387 9.653l-1.377 20.112-.391 5.71-.187 2.732a11.5 11.5 0 0 0-.14 2.148.79.79 0 0 0 .233.69c-.362.283-.726.561-1.087.845-.007-1.747-.016-3.495.004-5.243.025-2.159-.18-4.307-.184-6.465a.047.047 0 0 0-.094 0c-.178 2.16-.525 4.297-.612 6.465-.081 2.041-.163 4.083-.22 6.126l-.673.537a.68.68 0 0 0-.485-.089q-.002-.24-.002-.483l-.003-1.12V75.6l-.003-4.484-.005-8.967c-.003-5.916-.004-11.831-.057-17.747a15.5 15.5 0 0 1 .51-4.607q.107-.346.235-.682c.13-.272.265-.54.385-.817l.246 10.532c.1 4.243.107 8.514.4 12.748.073 1.044.184 2.084.288 3.124a.129.129 0 0 0 .258 0c.288-4.078.255-8.16.253-12.247-.002-4-.04-8-.06-11.998q-.011-2.362-.027-4.723a.3.3 0 0 0-.001-.238q-.028-5.234-.06-10.468l.046-.1a.19.19 0 0 0-.05-.21c-.02-2.836-.037-5.671-.07-8.507-.036-3.305.109-6.59 2.44-9.16a12.9 12.9 0 0 1 7.068-3.81c4.997-1.004 12.354.98 12.95 6.957a43.4 43.4 0 0 1-.232 6.457m105.886-2.791c1.486-.309 2.495-1.538 3.452-2.618q1.835-2.07 3.655-4.154c1.14-1.3 2.229-2.688 3.465-3.9a4.1 4.1 0 0 1 1.772-1.12 5.9 5.9 0 0 1 2.285-.055 12.2 12.2 0 0 1 3.769 1.126 12.7 12.7 0 0 1 5.543 5.171 11.15 11.15 0 0 1-2.685 13.757c-4.112 3.44-10.647 2.016-14.14 6.479-2.166 2.765-2.342 6.583-2.659 9.937a206 206 0 0 0-.45 5.906l-.026-4.074c-.013-2.17-.022-4.34-.048-6.512a5.5 5.5 0 0 1 .167-1.1c.189-.694.417-1.387.635-2.073a.57.57 0 0 0 .397-.479c.046-.264.062-.528.096-.793a12 12 0 0 1 1.81-2.842 12.27 12.27 0 0 1 7.577-3.97.486.486 0 0 0 .339-.596 1.98 1.98 0 0 1 .533-2.225c.523-.433 1.695-.685 2.09-.004.416.72 1 1.29 1.92 1.015a3.4 3.4 0 0 0 1.727-1.791 9.9 9.9 0 0 0 1.194-4.647l.002-.033.001-.025a8.86 8.86 0 0 0-.84-4.81 9.23 9.23 0 0 0-3.074-3.524 4.7 4.7 0 0 0-2.243-.97 3.25 3.25 0 0 0-2.24 1.16 28.4 28.4 0 0 0-4.18 4.8.69.69 0 0 0 0 .71 33 33 0 0 1 2.201 3.485 3.3 3.3 0 0 1 .464 1.189 1.4 1.4 0 0 1-.502 1.038c-.523.588-1.068 1.157-1.602 1.735-1.012 1.097-2.005 2.217-3.04 3.292l-.109.105c-.037 0-.071.007-.109.005a2.37 2.37 0 0 1-1.675-.707c-.513-.563-.944-1.186-1.823-.917a1.86 1.86 0 0 0-1.188 1.739 28 28 0 0 0 .078 2.819q.042 1.488.043 2.977a26 26 0 0 0 .063 2.977l.021.164q-.17 3.53-.277 7.062-.23 7.291-.26 14.59c-.035 9.768.121 19.538.358 29.303q.098 4.051.222 8.102.064 2.057.133 4.113.033.998.07 1.994.005.157.007.321a23 23 0 0 1-1.392-1.588 3.9 3.9 0 0 0 .291-1.428 51 51 0 0 0-.01-2.238c-.025-1.367-.051-2.734-.07-4.102a774 774 0 0 0-.143-8.204c-.13-5.52-.264-11.04-.373-16.562q-.162-8.282-.2-16.567-.018-4.172.02-8.344.021-2.055.058-4.11a33 33 0 0 0 .018-3.935c-.14-1.365-1.024-2.222-1.538-3.43a9.5 9.5 0 0 1-.565-1.992c-.016-1.803-.027-3.605-.044-5.407a31 31 0 0 0-.368-5.252 3.06 3.06 0 0 0 1.397.027m18.127-6.074c.042-.07.089-.136.128-.21a8 8 0 0 1 .998.976 7.3 7.3 0 0 1 1.208 2.048 7.6 7.6 0 0 0-1.111-1.558.65.65 0 0 0-.5-.182 4.3 4.3 0 0 0-.723-1.074M215.475 40.156c.027.79.053 1.58.06 2.37.022 3.085-.2 6.153-.363 9.23-.047.878-.247 1.744-.27 2.62-.023.874.126 1.74.107 2.619l-.055 2.494c-.01.422-.042.85-.048 1.276-.412.243-.826.484-1.236.732v-.011c.022-.499.027-1 .04-1.498q.07-2.621.144-5.242c.193-6.905.342-13.811.494-20.717q.122-5.525.24-11.05l1.391-.043c-.15 3.452-.294 6.904-.388 10.359-.044 1.584-.126 3.16-.206 4.74-.035.703.066 1.418.09 2.12m32.243 33.812c1.55-4.253 2.432-9.105 1.08-13.535a11.2 11.2 0 0 0-3.617-5.51 12.9 12.9 0 0 0-6.734-2.627c-5.534-.607-10.95 1.914-15.797 4.272a106 106 0 0 0-6.797 3.635l.005-.215.087-2.494a19 19 0 0 1 .179-2.208 9.3 9.3 0 0 0-.014-2.283c-.138-1.557-.065-3.175-.078-4.74-.012-1.495.058-2.994.093-4.49.037-1.577.125-3.173.314-4.74a42 42 0 0 0 .055-4.49c.038-3.078.065-6.154.061-9.232 0-.797-.016-1.594-.027-2.391 3.734-.108 7.47-.226 11.199-.416a10.1 10.1 0 0 0 4.919-.556 10.3 10.3 0 0 1 2.648-1.006c.872-.16 1.746-.284 2.617-.448a48 48 0 0 1 2.634-.024q4.667.055 9.334.128c2.977.047 5.96.019 8.93.247a37 37 0 0 1 4.54.606c.799.161 1.587.366 2.375.571a95 95 0 0 0-3.67.076c-2.61.114-5.214-.15-7.826-.123q-3.914.039-7.826.12c-2.98.06-5.962.132-8.944.133a.047.047 0 0 0 0 .093c5.22.153 10.432.459 15.652.582 1.324.03 2.652.095 3.976.03 1.282-.064 2.566-.125 3.85-.094 2.61.064 5.216.12 7.827.13l2.479.005c1.804.128 3.627.135 5.416.2q4.65.17 9.302.3 2.605.071 5.21.13c1.66.037 3.34.15 5 .073a6.5 6.5 0 0 0 3.85-1.431 5.45 5.45 0 0 1 3.118-1.591 1.16 1.16 0 0 1 .174 1.12c-.209.513-.612.917-.807 1.45a5.8 5.8 0 0 0-.274 1.86c-.068 2.84.413 5.665.471 8.505a34 34 0 0 1-.115 4.358 9 9 0 0 0-.087 1.992c.08.696.272 1.384.387 2.075a22.4 22.4 0 0 1 .118 4.523c-.064 1.494-.116 2.99-.275 4.476a7 7 0 0 0 .137 2.093 13 13 0 0 1 .206 2.52c.007 1.663-.009 3.32.117 4.98a.035.035 0 0 0 .07 0c.114-1.577.097-3.15.097-4.731a18 18 0 0 1 .072-2.117 15 15 0 0 0 .29-2.365c-.066-1.575-.25-3.153-.325-4.731a23 23 0 0 1 .092-4.648c.112-.692.303-1.38.379-2.075a11.4 11.4 0 0 0-.15-2.49 35 35 0 0 1-.068-4.482c.025-1.54.172-3.072.303-4.606.063-.749.14-1.49.133-2.241a10 10 0 0 1 .068-2.021 2.2 2.2 0 0 1 .133-.406c.019.347.034.696.057 1.043a117 117 0 0 1-.05 16.219c-.2 2.682-.098 5.42-.13 8.11q-.051 4.116-.074 8.233c-.034 5.39-.044 10.779-.06 16.168q-.01 4.036-.035 8.072-.013 1.987-.031 3.974a16.7 16.7 0 0 1-.11 3.524c-.08.338-.49 1.56-.801 1.45a.44.44 0 0 0-.491.107 6 6 0 0 0-.586-.063 3.48 3.48 0 0 0 1.395-3.191.035.035 0 0 0-.07 0 2.4 2.4 0 0 1-.852 1.96 6.6 6.6 0 0 1-1.67.733 14.9 14.9 0 0 1-4.404.298c-1.688-.023-3.375.018-5.062-.01-1.381-.023-2.766-.106-4.148-.055-1.146.042-2.3.481-3.407.012a9 9 0 0 0-2.928-1.041 13 13 0 0 0-3.424.378 17.7 17.7 0 0 1-3.573.361c-1.384-.008-2.767-.046-4.15-.034-2.762.022-5.527.218-8.288.29-2.696.071-5.387.18-8.076.393-5.34.423-10.69.817-16.007-.042a52.6 52.6 0 0 0 10.409-16.615m-17.67 24.063.108-.105c.186.156.39.295.58.439.41.309.828.608 1.242.912.854.625 1.72 1.23 2.591 1.831.547.378 1.101.747 1.653 1.117a.825.825 0 0 0 .505 1.104c-.265-.111-.001-.02-.102.09a2 2 0 0 1-.253.26 101 101 0 0 0-3.34-2.311q-1.109-.742-2.24-1.448-.603-.378-1.209-.75c-.151-.094-.304-.194-.459-.288.308-.284.62-.563.924-.85m-1.591 1.465c.146.106.302.2.452.299q.52.342 1.038.69c.69.462 1.375.933 2.065 1.397 1.08.726 2.141 1.477 3.206 2.225q-.227.05-.44.104-.474.123-.952.229-.505-.366-1.015-.725c-.933-.656-1.877-1.296-2.819-1.94-.764-.523-1.525-1.066-2.308-1.567zm-1.41 1.298c.296.23.59.46.894.674.79.556 1.585 1.104 2.377 1.656q1.115.776 2.238 1.54a11 11 0 0 1-1.414.115l-.037-.002c-.275-.224-.58-.423-.853-.62-.55-.4-1.118-.776-1.675-1.165-.54-.378-1.075-.764-1.616-1.14l-.605-.421c.232-.21.46-.426.691-.637m1.841 3.632a4.6 4.6 0 0 1-2.35-1.69q.713.53 1.436 1.044.456.324.914.646m-16.733 10.992c1.251-.803 2.898-.387 4.3-.543a4.83 4.83 0 0 0 3.476-1.792 5 5 0 0 0 .237-.349.258.258 0 0 0 .184-.365 1.3 1.3 0 0 0 .087-.351 19 19 0 0 0 1.69-.16c-.65.68-1.224 1.446-1.902 2.097a7.2 7.2 0 0 1-3.592 1.954c-1.636.334-3.315.496-4.968.72-.47.065-.941.148-1.414.224.665-.416 1.224-1 1.902-1.435m-20.493 37.429c-.138.265-.27.533-.411.798a19.4 19.4 0 0 1-2.267 3.653 112 112 0 0 0 2.678-4.451m2.925.245a45 45 0 0 1-2.543 5.006 8.2 8.2 0 0 1-4.305 3.623 7.6 7.6 0 0 1-2.746.364 6.7 6.7 0 0 1-1.388-.22 1.9 1.9 0 0 1-.583-.25c-.047-.033-.082-.073-.128-.108a.7.7 0 0 0-.146-.126q-.185-.137.003-.01a.48.48 0 0 0-.244-.328 18 18 0 0 1 1.342-2.427 1.4 1.4 0 0 0 .156.735 2.63 2.63 0 0 0 1.71 1.281c1.548.407 3.162-.51 4.227-1.57a17 17 0 0 0 2.771-4.16 118 118 0 0 0 2.647-5.274c3.385-7.159 6.165-14.586 9.549-21.747.911-1.928 1.838-3.866 2.878-5.729.802-1.436 1.906-3.15 3.506-3.768l.64-.075c-.108.128-.225.247-.328.38a36 36 0 0 0-3.165 5.206c-1.98 3.703-3.688 7.555-5.473 11.355l-5.587 11.894zm11.733-.462q-3.065.897-6.133 1.784c-1.022.295-2.05.575-3.064.9a11.5 11.5 0 0 0-1.614.615c-.03.015-.054.04-.084.055.427-.905.828-1.813 1.236-2.681q.654-1.392 1.303-2.786a11.6 11.6 0 0 0 2.728 1.529 10.6 10.6 0 0 0 3.225 1.096c.07.007.084-.092.033-.124a24 24 0 0 0-3.132-1.416q-.79-.353-1.572-.726a10 10 0 0 0-1.213-.505q.82-1.752 1.637-3.505 2.24 1.312 4.558 2.483a43 43 0 0 0 5.095 2.397zm3.337-.982a53 53 0 0 0-5.315-2.718 180 180 0 0 0-4.606-2.206q.84-1.803 1.685-3.605c2.002 1.35 4.027 2.664 6.105 3.893q1.665.985 3.351 1.934a31 31 0 0 0 2.85 1.504q-2.036.597-4.07 1.198m53.248-16.393q-21.958 7.104-44.078 13.693a10.4 10.4 0 0 0-1.608-1.05l-2.018-1.229c-1.311-.795-2.633-1.574-3.95-2.36a304 304 0 0 0-7.961-4.615.023.023 0 0 0-.024.04c2.58 1.664 5.192 3.27 7.821 4.856 1.278.77 2.553 1.547 3.835 2.31.677.404 1.356.802 2.034 1.202a14 14 0 0 0 1.624.92q-2.264.672-4.532 1.333c-.974-.675-2.055-1.218-3.085-1.796a253 253 0 0 1-3.356-1.926q-3.079-1.791-6.139-3.615c2.279-4.881 4.563-9.76 6.91-14.606 1.042-2.153 2.127-4.29 3.344-6.351a19 19 0 0 1 2.76-4.08c.62-.088 1.243-.17 1.862-.268a8.7 8.7 0 0 0 4.542-2.15 9.47 9.47 0 0 0 2.886-3.994q.552.018 1.106.044c1.287.066 2.584.049 3.873.066 2.499.033 4.998.047 7.497.083 5.038.073 10.08.008 15.118-.007l30.235-.093 4.248-.014a26 26 0 0 0 3.89-.183 8.6 8.6 0 0 0 1.744 1.818c.674.615 1.356 1.219 2.039 1.823q2.095 1.853 4.191 3.704a26 26 0 0 0 3.972 3.236q.118.064.241.125-19.443 6.74-39.02 13.084m28.465-24.322a8.5 8.5 0 0 1 1.785-.643 10 10 0 0 0 .989 1.27c.505.634.975 1.306 1.508 1.916 1.022 1.17 2.131 2.292 3.237 3.384a32 32 0 0 0 3.6 3.09 9 9 0 0 0 1.812 1.115c-.198-.043-.39-.081-.546-.125a5.8 5.8 0 0 1-1.973-1.014c-1.302-.986-2.487-2.15-3.717-3.222l-3.749-3.27q-.985-.86-1.984-1.701c-.304-.257-.622-.547-.962-.8m15.7 15.809q-.571.004-1.143-.02a8.8 8.8 0 0 1-2.196-.253 6 6 0 0 1-1.736-1.123c-.3-.229-.6-.456-.917-.663l-.132-.086 1.649-.57c.285.238.6.448.89.664a8 8 0 0 0 1.534.954 3.1 3.1 0 0 0 2.454.096c.105.32.207.639.316.958a2.2 2.2 0 0 1-.718.043m31.048-9.647a64 64 0 0 1 3.928 5.21 14.15 14.15 0 0 1 2.397 5.637c.495 3.511-1.502 6.678-4.358 8.565-3.38 2.234-7.474 2.53-11.385 1.842a42 42 0 0 1-6.679-1.851 41 41 0 0 1-5.494-2.286 14.5 14.5 0 0 1-4.464-3.437 15.7 15.7 0 0 1-2.576-5.217c-.26-.783-.509-1.569-.77-2.351.052-.008.104-.007.155-.019a.17.17 0 0 0 .04-.307 3 3 0 0 0-.345-.13 26 26 0 0 0-1.169-2.917 17.3 17.3 0 0 0-3.27-4.544l-.028-.026c.195.115.392.225.585.342a.137.137 0 0 0 .166-.215 28.1 28.1 0 0 0-7.55-5.834 33 33 0 0 0-2.19-1.03 3.73 3.73 0 0 0-2.15-.52 10.3 10.3 0 0 0-2.01.955 14 14 0 0 1-1.82.587c-.295.03-.59.075-.883.09-1.255.062-2.517.032-3.773.036l-15.368.045c-10.245.03-20.49.038-30.735.106-2.832.019-5.664.097-8.496.14-1.458.021-2.915.056-4.373.084-.744.015-1.5.03-2.252.075-.164-.013-.323-.016-.491-.035a28 28 0 0 0-5.102.186 25 25 0 0 0-4.06.391 9 9 0 0 1 1.01-.712c.994-.588 2.057-1.051 3.074-1.598.926.55 2.714.166 3.527.112q3.142-.212 6.289-.334c4.195-.164 8.397-.233 12.595-.183 1.152.014 2.306.067 3.458.068 1.24.002 2.465-.331 3.703-.338a.205.205 0 0 0 .102-.38 4.5 4.5 0 0 1-.729-.743 7 7 0 0 0-.64-.56c-.376-.312-.75-.626-1.13-.932-.825-.663-1.661-1.314-2.481-1.983a8.7 8.7 0 0 1-1.067-.993c-.432-.495-.557-.83-1.268-.782-.778.052-1.56.179-2.338.298-.798-.526-1.592-1.057-2.394-1.575a101 101 0 0 0-2.597-1.632c-.437-.264-.872-.532-1.312-.793-.18-.107-.368-.23-.56-.342.366-.35.727-.71 1.09-1.064a11 11 0 0 0 1.317.916c.616.389 1.272.71 1.898 1.084s1.22.809 1.806 1.241c.305.225.6.465.9.695a2.8 2.8 0 0 0 .863.55.138.138 0 0 0 .154-.201 2.5 2.5 0 0 0-.711-.592c-.312-.211-.63-.414-.94-.627a22 22 0 0 1-1.887-1.42c-.567-.487-1.094-1.019-1.676-1.487-.287-.231-.59-.44-.889-.655l-.186-.136c.933-.92 1.857-1.85 2.758-2.806 4.074.359 8.197.23 12.279.23 4.487.003 8.972.005 13.459-.036q13.522-.124 27.042-.356 3.738-.066 7.476-.138 1.932-.037 3.863-.077a10.7 10.7 0 0 0 3.79-.345.76.76 0 0 0 .355-.286l.038.002a2.07 2.07 0 0 0 1.223-.566 4.12 4.12 0 0 0 .95-2.675c.16-2.765.06-5.573.077-8.343.035-5.588.07-11.177.049-16.765-.022-5.613-.042-11.226-.105-16.838l-.048-4.242c-.016-1.416-.14-2.827-.198-4.242-.113-2.786-.08-5.571-.052-8.359.014-1.417-.006-2.831.133-4.242.138-1.4.228-2.835.234-4.242.004-.98.158-2.26-.587-3.041-.941-.987-2.308-.208-3.391.058a30.4 30.4 0 0 1-7.762.574c-2.808-.046-5.616-.104-8.423-.156q-16.838-.312-33.676-.552c-5.654-.089-11.31-.13-16.963-.241-2.787-.055-5.57-.218-8.358-.272-2.786-.055-5.572-.058-8.358-.08q-.975-.005-1.948.016l-.026-1.308a2 2 0 0 0 .326.046c.572.03 1.146.039 1.719.058a28 28 0 0 0 3.567.021c.58-.056 1.001-.427 1.595-.465.613-.039 1.247.007 1.861.01 1.158.007 2.316.034 3.473.057l3.598.07a17 17 0 0 1 1.71.07 8 8 0 0 1 .837.12 6 6 0 0 0 .926.317c1.137.09 2.307.03 3.448.046l3.429.049q6.99.1 13.98.206l7.09.104c.538.008 1.082.042 1.618.013a4 4 0 0 0 .858-.094c.283-.085.47-.312.758-.375a9.3 9.3 0 0 1 1.74-.018 24 24 0 0 0 1.74-.093 17.5 17.5 0 0 1 4.118.14c.653.106 1.23.333 1.86.494a8.3 8.3 0 0 0 1.975.147l3.853.048 1.988.025a1.93 1.93 0 0 0 1.69-.62.466.466 0 0 0 0-.645 1.67 1.67 0 0 0-1.317-.653c-.579-.023-1.16-.02-1.74-.029l-3.604-.06a9.8 9.8 0 0 0-3.414.264 11.1 11.1 0 0 1-3.545.33c-1.212-.003-2.396-.152-3.604-.2-.533-.02-1.088.002-1.616-.064-.292-.036-.415-.195-.669-.319a2.9 2.9 0 0 0-.947-.188 34 34 0 0 0-3.483-.072l-3.483-.05-14.01-.199q-3.49-.049-6.98-.095c-.534-.007-1.075-.04-1.61-.02a2.5 2.5 0 0 0-.82.232 4.8 4.8 0 0 1-1.04.157 34 34 0 0 1-3.473.022l-3.97-.016c-.661-.002-1.323-.014-1.984-.026a4.4 4.4 0 0 1-2.069-.259 3.8 3.8 0 0 0-1.878-.301c-.614-.011-1.228-.031-1.842-.029-.655.003-1.31.015-1.965.022a2.7 2.7 0 0 0-.97.087 2.8 2.8 0 0 0-.715.504.474.474 0 0 0 0 .668 2.3 2.3 0 0 0 .85.526l-.059 1.348q-.765.019-1.53.05l.016-1.042c.013-.995.046-2 0-2.995-.024-.544-.1-1.091-.167-1.637.012-.436.01-.871-.015-1.303 3.064.274 6.14.31 9.215.388q4.733.12 9.466.203 9.466.173 18.933.263 18.873.178 37.746.024c3.004-.024 6.039.062 9.036-.161a13.73 13.73 0 0 0 7.585-2.511 5.1 5.1 0 0 1 3.346-.989 5.45 5.45 0 0 1 2.893 1.472c1.915 1.79 2.428 4.527 2.577 7.038.179 3.018.096 6.063.118 9.085q.035 4.744.074 9.488l.156 18.975.154 18.85.077 9.488c.022 2.624-.038 5.279.172 7.9a9.2 9.2 0 0 0 .248 2.43 9.4 9.4 0 0 0 .437 1.294 15 15 0 0 0 .69 1.69.27.27 0 0 0 .283.147 17.5 17.5 0 0 0 1.748 2.247c1.446 1.595 3.104 2.976 4.698 4.418q2.51 2.27 4.901 4.669a132 132 0 0 1 9.051 10.062m203.891 30.247a21.4 21.4 0 0 1-3.01 4.445c-1.105 1.37-2.227 2.726-3.46 3.983a15.2 15.2 0 0 0-.145-5.298c-.236-1.34-.552-3.227-1.557-4.347a.4.4 0 0 1 .015-.08 2.5 2.5 0 0 1 .543-.606 7.1 7.1 0 0 1 2.782-1.71 10.1 10.1 0 0 1 3.06-.737c2.025-.028 1.664 2.401 1.887 4.067-.038.094-.072.19-.115.283m14.992-47.51c-.05.98-.135 1.96-.264 2.935l-.115.349c-.067.21-.131.42-.204.629q-.054.158-.112.316l-.02.055-.005.009a104 104 0 0 0-2.117-10.548c-2.505-9.94-5.778-19.725-9.251-29.363-1.706-4.732-3.565-9.406-5.272-14.137-.834-2.31-1.757-4.604-2.53-6.934a65 65 0 0 1-1.865-7.077c-.254-1.207-.481-2.417-.733-3.624-.036-.173-.296-.128-.3.04a32.7 32.7 0 0 0 .762 7.025c.467 2.359.972 4.731 1.598 7.053 1.247 4.629 3.165 9.096 4.835 13.584 3.49 9.374 6.666 18.88 9.406 28.501a128 128 0 0 1 3.336 14.368 68 68 0 0 1 .82 7.201 11.74 11.74 0 0 1-1.045 6.365c-1.741 3.2-5.22 5.08-8.497 6.354a87 87 0 0 1-13.483 3.792c-4.763 1.011-9.569 1.809-14.377 2.57-4.088.649-8.546 1.64-12.664.673-.73-.23-1.462-.452-2.186-.7-1.861-.642-3.686-1.434-5.568-2.02q-.866-.502-1.727-1.009l-.3-.178v-.004c-1.626-1.569-3.332-3.046-4.92-4.655a98 98 0 0 1-2.292-2.381q-.59-.64-1.171-1.285c-.388-.427-.84-.795-1.257-1.193-.011-.01-.024-.006-.036-.001a15 15 0 0 0 1.054-1.801 35 35 0 0 0 2.03-5.306 54.3 54.3 0 0 0 1.747-9.158.7.7 0 0 0 .165.033 34 34 0 0 1 5.522.239 10.07 10.07 0 0 0 2.243 5.665 12 12 0 0 1 .88 1.397 6.4 6.4 0 0 0 .98 1.239 13.6 13.6 0 0 0 2.654 2.144c.098.062.239-.067.166-.166a19.4 19.4 0 0 0-1.962-2.309c-.374-.371-.725-.772-1.129-1.112a7 7 0 0 1-1.325-1.246 14.45 14.45 0 0 1-2.477-5.607c.362.058.724.107 1.082.194.208.05.41.122.615.182 1.75 5.337 7.105 8.277 11.686 10.899a.016.016 0 0 0 .016-.027c-4.53-2.793-9.025-5.932-11.459-10.8a10 10 0 0 1 1.808.724c.138.075.269.16.401.243a18 18 0 0 0 1.415 2.16 16.7 16.7 0 0 0 4.056 3.728 34.4 34.4 0 0 0 10.322 4.331c.086.023.112-.096.036-.128a36.4 36.4 0 0 1-9.696-5.535 22 22 0 0 1-3.7-3.924 29 29 0 0 1-1.637-2.691c-.093-.167-.216-.439-.365-.72a30 30 0 0 0 2.34-.209 70.3 70.3 0 0 0 13.7-3.6.121.121 0 0 0-.064-.233c-8.314 1.754-17.289 3.896-25.614 1.13.058-.092.131-.173.197-.26a3.7 3.7 0 0 0 .682-.74 11.5 11.5 0 0 1 3.386-1.816 56 56 0 0 0 6.192-2.712 41 41 0 0 0 10.867-8.608 43.4 43.4 0 0 0 4.55-6.314c.046-.074-.066-.137-.114-.067a40.4 40.4 0 0 1-4.737 5.52 43.4 43.4 0 0 1-5.364 4.646 45.4 45.4 0 0 1-6.03 3.602c-2.033 1.043-4.156 1.797-6.273 2.638-.18.072-.358.15-.537.225l.085-.136a36 36 0 0 0 1.507-2.848c.074.007.149.018.219.023a7 7 0 0 0 .68.018 3 3 0 0 0 1.278-.338.055.055 0 0 0-.027-.102 18 18 0 0 0-1.275 0q-.316.013-.632-.004l-.064-.005q.318-.686.616-1.38a11 11 0 0 0 1.421.086 8.8 8.8 0 0 0 2.248-.258.059.059 0 0 0-.016-.115c-.747-.01-1.486.057-2.232.077q-.674.019-1.347.034c.058-.138.12-.274.174-.413.155-.395.288-.8.434-1.2.776.018 1.547 0 2.325-.041a18 18 0 0 0 2.58-.249c.068-.013.046-.11-.016-.115a19 19 0 0 0-2.667.067c-.733.049-1.456.121-2.18.223a72 72 0 0 0 2.776-9.951c.46-2.221.73-4.477 1.127-6.71.006-.034-.044-.05-.052-.015-.464 1.89-1.051 3.739-1.567 5.613-.51 1.847-1.01 3.697-1.59 5.524a52.6 52.6 0 0 1-4.631 10.599q-.803 1.37-1.721 2.665a6 6 0 0 1-.18.238c.33-2.892.644-5.787.787-8.693a97 97 0 0 0 .095-4.22 2.43 2.43 0 0 0 .595-1.11q.366-.956.72-1.916.69-1.864 1.319-3.748c.838-2.515 1.49-5.078 2.162-7.642a.04.04 0 0 0-.076-.02c-.905 2.5-1.921 4.96-2.859 7.45q-.68 1.805-1.373 3.607-.239.615-.481 1.23c-.002-.966.011-1.936.104-2.898.045-.458.131-.903.213-1.355.097-.536.068-1.075.179-1.618.436-2.145 1.363-4.179 1.916-6.297a32 32 0 0 0 .661-3.2c.17-1.096.17-2.21.247-3.316.006-.09-.147-.113-.161-.021a46 46 0 0 1-1.418 5.627 54 54 0 0 1-2.041 5.557c-.181.436-.353.875-.537 1.309-.191.449-.465.893-.623 1.35a11.7 11.7 0 0 0-.43 2.9c-.141 2.03-.013 4.079-.066 6.113-.108 4.15-.43 8.297-.836 12.427a84 84 0 0 1-1.753 12.068 39.6 39.6 0 0 1-1.99 5.925c-.617 1.45-1.182 2.919-1.761 4.382a13 13 0 0 1-.667-1.852 46 46 0 0 1-1.022-6.081c-.655-5.253-1.115-10.536-1.933-15.768q-.702-4.484-1.481-8.956c-.008-.043-.082-.034-.077.01.647 5.445 1.128 10.91 1.604 16.374.239 2.737.428 5.47.509 8.217a32 32 0 0 0 .621 6.407 14 14 0 0 0 .833 2.515 52.3 52.3 0 0 1-8.373-4.502 24.5 24.5 0 0 1-4.713-4.494 28.4 28.4 0 0 1-3.746-5.655c-.039-.083-.185-.023-.15.064a29.6 29.6 0 0 0 2.53 5.155 31 31 0 0 0 3.677 4.524 30 30 0 0 0 4.478 3.854 40.7 40.7 0 0 0 6.052 3.132 92 92 0 0 1 11.016 6.516 46.6 46.6 0 0 0 11.345 5.666 15.7 15.7 0 0 1 3.32 1.22 12.5 12.5 0 0 1 2.464 2.004c1.537 1.531 2.838 3.277 4.416 4.767.117.11.336-.037.233-.18-1.126-1.55-2.011-3.254-3.103-4.826a13 13 0 0 0-2.286-2.52c.033.003.065.011.097.014a7 7 0 0 0 1.286-.075c.91-.11 1.818-.247 2.721-.402a41 41 0 0 1 5.295-.65c3.305-.134 6.767-.194 9.857 1.145a.094.094 0 0 0 .095-.162 19 19 0 0 0-1.687-.993 37 37 0 0 1 3.83 1.09 23.7 23.7 0 0 1 9.183 5.404 10.1 10.1 0 0 1 2.524 3.973 6.5 6.5 0 0 1 .258 1.33 3 3 0 0 0-.386-.775c-1.167-1.625-3.026-.97-4.525-.218a21 21 0 0 0-2.361 1.433 9.8 9.8 0 0 0-2.131 1.339q-.03-.02-.064-.037a5 5 0 0 0-.049-.843c-.007-.053-.084-.042-.098 0a1.27 1.27 0 0 1-.505.699.438.438 0 0 0 0 .742 4.7 4.7 0 0 1 .909.873l.023.03a3.9 3.9 0 0 1 .572 1.078l.023.06c.126.37.223.75.312 1.131q.129.592.21 1.184a25.7 25.7 0 0 1-.388 6.534c-1.038.941-2.106 1.85-3.148 2.786q-.054.049-.105.1c.213-.765.437-1.526.61-2.302.263-1.177.483-2.361.765-3.535a.059.059 0 0 0-.113-.031c-.717 2.05-1.567 4.066-2.35 6.093-.396 1.02-.93 1.98-1.328 3-.393 1.011-.746 2.038-1.125 3.054a39 39 0 0 1-1.938 4.556c-.186.35-.39.705-.614 1.051-.496.43-1.014.833-1.542 1.221a10 10 0 0 0 .886-3.283c.157-1.456.169-2.923.277-4.383.119-1.602.265-3.202.302-4.807.001-.06-.099-.077-.108-.015-.383 2.717-.557 5.468-.86 8.196a11.7 11.7 0 0 1-1.414 4.942q-.662.44-1.349.827a6.6 6.6 0 0 1 .275-1.576c.13-.413.226-.832.335-1.252a5 5 0 0 0 .267-1.105c.012-.394-.118-.774-.122-1.17a8.5 8.5 0 0 1 .086-1.23c.105-.775.24-1.547.33-2.325a35.7 35.7 0 0 0-.656-9.757c-.003-.022-.041-.017-.038.005a36.7 36.7 0 0 1 .308 10.052 19 19 0 0 1-.5 2.27 7 7 0 0 1-.414 1.142 3.4 3.4 0 0 0-.428 1.036 8.6 8.6 0 0 0 .087 2.222 15 15 0 0 1 .11 1.877c-.36.193-.722.385-1.092.554a13.2 13.2 0 0 1-5.382 1.282 23 23 0 0 1-5.843-1.114c-7.72-1.963-15.752-2.36-23.649-3.145a129 129 0 0 1-6.454-.785c2.301-.195 4.592-.463 6.894-.749a.172.172 0 0 0 0-.344c-2.978-.068-5.95-.246-8.928-.316s-5.956-.15-8.934-.209a23 23 0 0 1-4.148-.33 21.3 21.3 0 0 1-3.86-1.338 79 79 0 0 1-7.682-3.858c-2.907-1.58-5.826-3.148-8.71-4.77a.043.043 0 0 0-.044.075c2.434 1.753 4.874 3.472 7.407 5.08 1.63 1.035 3.273 2.047 4.915 3.061-2.428-.738-4.857-1.471-7.282-2.22-4.208-1.297-8.388-2.695-12.557-4.113a84.5 84.5 0 0 1-21.764-10.51 109 109 0 0 1-15.802-14.066c-4.959-5.186-9.655-10.614-14.558-15.85a104 104 0 0 0-7.707-7.54q-3.991-3.463-8.295-6.54a24 24 0 0 0-2.29-1.415c-.097-.055-.21.08-.122.16 2.634 2.401 5.371 4.662 7.9 7.183a183 183 0 0 1 3.024 3.11 25 25 0 0 0-2.783-1.849c-2.797-1.55-6.014-1.752-9.128-2.112-6.637-.768-13.27-1.59-19.913-2.3q-2.72-.29-5.442-.536c-.907-.082-1.813-.167-2.72-.24-.492-.04-.992-.105-1.485-.118-.16-.005-.335.023-.495.01a1 1 0 0 1-.178-.03q-4.248-4.557-8.902-8.708c-.55-.49-1.106-.992-1.658-1.501.005-.012.014-.022.018-.033a4 4 0 0 0 .279-1.677c-.008-.326-.022-.65-.034-.976a370 370 0 0 0 6.036 5.857c1.3 1.24 2.586 2.495 3.887 3.734a46 46 0 0 0 3.937 3.544c.085.063.158-.066.104-.135a40 40 0 0 0-3.716-3.907c-1.284-1.257-2.596-2.486-3.904-3.718-2.077-1.955-4.178-3.892-6.357-5.735l-.018-.534q-.065-1.87-.123-3.739-.113-3.614-.205-7.23-.187-7.293-.289-14.587c-.092-6.562-.14-13.124-.182-19.687.64-3.297 1.385-6.572 1.96-9.88q.433-2.49.824-4.984a13.2 13.2 0 0 1 1.223-4.235 6 6 0 0 1 1.123-1.467 49.5 49.5 0 0 0 7.094.247q3.867.05 7.735.082 7.796.067 15.593.123c5.15.033 10.3.067 15.449.073a61 61 0 0 0 7.703-.354c2.458-.31 4.862-.994 7.33-1.209a27.2 27.2 0 0 1 7.658.84c.955.19 1.898.371 2.841.508-1.32.303-2.64.607-3.985.802-.855.125-1.723.165-2.575.292a19 19 0 0 1-2.993.264.035.035 0 0 0 0 .07c1.692.095 3.347.303 5.042.316q2.386.018 4.77-.085a46.3 46.3 0 0 0 9.466-1.772c6.373-1.657 12.578-3.876 18.815-5.969a140 140 0 0 1 19.2-5.286c7.064-1.294 14.253-1.889 21.4-2.507 4.123-.356 8.272-.608 12.378-1.126 2.07-.261 4.118-.644 6.188-.903 1.992-.25 3.975-.576 5.959-.88.075-.012.056-.132-.018-.131-1.855.029-3.715.032-5.57.11-1.7.07-3.397.064-5.097.11 1.285-.352 2.563-.728 3.844-1.103 5.027-1.472 10.132-2.668 15.252-3.763 2.536-.542 5.076-1.09 7.625-1.564a15.1 15.1 0 0 1 7.278-.05 14.55 14.55 0 0 1 5.38 3.552 65 65 0 0 1 4.519 4.758 37.2 37.2 0 0 1 7.418 12.782.137.137 0 0 0 .264-.072 29 29 0 0 0-5.198-12.302 42 42 0 0 0-4.364-5.197q-.548-.56-1.121-1.11l2.126.502q2.776.651 5.503 1.499c2.908.901 6.545 1.835 8.268 4.59a13.2 13.2 0 0 1 1.581 4.685c.33 1.8.537 3.617.688 5.44.317 3.83.43 7.675 1.006 11.478a79 79 0 0 0 2.736 10.938l3.383 11.209c2.239 7.415 4.66 14.802 6.592 22.304a70 70 0 0 1 2.198 12.337 49 49 0 0 1 .088 6.06m-69.575 19.429a46 46 0 0 0 2.4 2.518 40 40 0 0 0 4.398 3.75 24 24 0 0 0-1.01-.568c-2.118-1.383-4.222-2.79-6.41-4.055a78 78 0 0 0-.614-.675 23 23 0 0 0-1.278-1.285c-.222-.206-.44-.416-.671-.61q-.048-.041-.097-.087a21 21 0 0 0 1.287-1.682c0 .007-.008.011-.004.019a19.3 19.3 0 0 0 1.999 2.675"/><path fill="currentColor" d="M469.71 169.394a2.3 2.3 0 0 0-1.196-.471q-.701-.178-1.408-.334c-.707-.156-.944-.2-1.411-.32a3.3 3.3 0 0 1-.726-.22c-.22-.117-.31-.298-.495-.442-.352-.272-.899-.18-1.305-.28a7.5 7.5 0 0 1-1.458-.668q-1.397-.694-2.79-1.395c-.027-.013-.05.026-.024.04l2.72 1.516a10 10 0 0 1 1.524.929 2.13 2.13 0 0 0 1.015.618 2.3 2.3 0 0 0 .481-.073 2.2 2.2 0 0 1 .819.13c.493.134.978.295 1.464.453q.737.238 1.482.452a2.3 2.3 0 0 0 1.273.196.08.08 0 0 0 .034-.13m5.115-.519a17.3 17.3 0 0 0-3.168-1.109q-1.69-.536-3.36-1.133c-2.217-.794-4.452-1.552-6.632-2.445-.032-.013-.056.042-.024.057 2.104 1.026 4.21 2.04 6.405 2.857q1.663.619 3.347 1.177a13.4 13.4 0 0 0 3.355.88.153.153 0 0 0 .077-.284m4.227-.931a12.6 12.6 0 0 0-3.011-1.179c-1.005-.334-2.01-.668-3.02-.99l-6.287-2.005c-.034-.011-.047.04-.015.053l6.19 2.36c.992.38 1.99.744 2.986 1.113a12.4 12.4 0 0 0 3.076.946c.17.015.202-.218.081-.298m2.53-1.696a29 29 0 0 0-3.366-1.175c-1.162-.38-2.328-.738-3.479-1.15-.045-.017-.077.058-.033.078 1.096.51 2.208 1.014 3.348 1.42a15 15 0 0 0 3.499.943.063.063 0 0 0 .031-.116m2.219-3.262a17 17 0 0 0-3.77-.987.04.04 0 0 0-.02.075 17 17 0 0 0 3.76 1.021.059.059 0 0 0 .03-.11M341.893 109.2c-2.762-2.793-5.736-5.387-8.602-8.071q-4.307-4.035-8.613-8.072a.027.027 0 0 0-.038.039q4.119 4.226 8.4 8.285c2.853 2.695 5.7 5.451 8.765 7.907.061.049.146-.03.088-.089m4.492.284c-1.084-1.207-2.373-2.272-3.57-3.366q-1.811-1.657-3.614-3.323l-7.213-6.665c-.033-.03-.082.018-.05.05q3.57 3.459 7.203 6.849 1.796 1.672 3.602 3.335a45 45 0 0 0 3.599 3.175c.033.025.068-.027.043-.055m4.367-.643c-.903-.866-1.915-1.624-2.872-2.43q-1.44-1.214-2.851-2.462a206 206 0 0 1-5.568-5.078c-.029-.028-.073.016-.044.044a135 135 0 0 0 5.559 5.24q1.41 1.247 2.85 2.461a34 34 0 0 0 2.87 2.299c.044.03.094-.037.056-.074m4.883-.104a36 36 0 0 0-3.277-2.852l-3.338-2.791c-.042-.035-.103.024-.061.06l3.329 2.893a36 36 0 0 0 3.3 2.752c.037.025.076-.03.047-.062m3.564-1.029a19 19 0 0 0-1.352-.957c-.466-.292-.94-.572-1.41-.857-.026-.016-.047.023-.023.04.448.323.891.653 1.344.97.45.316.925.596 1.401.871.045.026.079-.038.04-.067m5.803.655a15 15 0 0 0-1.663-1.092 25 25 0 0 0-1.784-.881c-.036-.016-.067.034-.032.054.576.327 1.143.669 1.71 1.01.566.343 1.146.662 1.722.99.053.03.094-.046.047-.081m-142.645 37.855a7.4 7.4 0 0 0-1.836-1.115c-.7-.36-1.364-.792-2.039-1.197-1.387-.833-2.769-1.675-4.162-2.497q-4.128-2.434-8.292-4.804a.047.047 0 0 0-.047.081q4.077 2.52 8.186 4.985c1.353.809 2.717 1.599 4.076 2.398.679.398 1.373.78 2.031 1.21a8.3 8.3 0 0 0 1.961 1.148.126.126 0 0 0 .122-.209m-.85-5.519c-1.29-.735-2.57-1.483-3.875-2.19-1.307-.709-2.645-1.36-3.973-2.026a.04.04 0 0 0-.04.067c1.271.766 2.544 1.533 3.858 2.225 1.317.694 2.662 1.326 4.01 1.958.023.01.042-.021.02-.034m5.555 3.072a12.5 12.5 0 0 0-2.056-1.129c-.818-.39-1.598-.847-2.375-1.313-.017-.01-.032.016-.016.027.662.453 1.333.9 1.95 1.415a15.4 15.4 0 0 0 1.866 1.443c.218.13.672.46.926.255.273-.221-.116-.566-.295-.698m5.795-2.077a12 12 0 0 0-1.323-.542 15 15 0 0 1-1.395-.674q-1.264-.673-2.52-1.36-2.557-1.398-5.108-2.807a.035.035 0 0 0-.036.061q2.505 1.493 5.06 2.889 1.258.684 2.525 1.353c.406.215.815.434 1.205.676a14 14 0 0 0 1.327.856c.3.143.563-.285.265-.452m2.436-3.706a13 13 0 0 0-2.015-1.15 16 16 0 0 0-2.13-.78c-.063-.019-.088.076-.027.098a29.6 29.6 0 0 1 4.137 1.893.035.035 0 0 0 .035-.06m4.903 1.429a2.6 2.6 0 0 0-.37-.26 2.5 2.5 0 0 0-.427-.17 3.4 3.4 0 0 0-.917-.16c-.09-.004-.09.136 0 .14a3.3 3.3 0 0 1 .864.155c.14.046.271.106.406.163.138.058.274.112.406.181.03.016.067-.025.038-.049m4.416-4.084c-.226-.062-.45-.128-.679-.18l-.684-.158a.02.02 0 0 0-.01.038l.677.184c.225.06.455.108.683.16a.023.023 0 0 0 .013-.044M218.3 24.194c-.15 2.61-.326 5.217-.46 7.827a65 65 0 0 0-.237 7.827c.004.053.09.074.1.013a64 64 0 0 0 .419-7.716c.086-2.65.131-5.3.201-7.95 0-.016-.023-.015-.023 0m-.295 23.742c-.05-1.504-.118-3.01-.22-4.51-.008-.12-.192-.122-.187 0 .06 1.504.075 3.005.014 4.51-.03.752-.082 1.503-.107 2.256a8.7 8.7 0 0 0 .074 2.105c.02.096.153.082.18 0a7.3 7.3 0 0 0 .27-2.105c.024-.752 0-1.505-.024-2.256m83.008 34.261c.003-1.207.199-2.404.287-3.607.18-2.446.083-4.888.069-7.339-.028-4.85.04-9.703-.033-14.553-.043-2.778-.13-5.554-.14-8.333a.047.047 0 0 0-.093 0c-.243 4.894-.554 9.775-.612 14.676q-.044 3.608-.059 7.215c-.01 2.434-.153 4.912.052 7.339.116 1.369.347 2.735.43 4.105a15.3 15.3 0 0 1-.107 4.192 13.8 13.8 0 0 0-2.96.317c-1.068.146-2.14.252-3.208.397-.079.01-.059.14.019.138 1.104-.022 2.207-.085 3.311-.105a10.5 10.5 0 0 0 3.14-.196.28.28 0 0 0 .192-.339 13.6 13.6 0 0 1-.288-3.907m-7.788-12.679a12 12 0 0 1 1.384-1.784c.503-.637.982-1.292 1.486-1.928.052-.065-.03-.154-.094-.094-.646.606-1.315 1.188-1.962 1.793a5.1 5.1 0 0 0-1.387 1.57 1.2 1.2 0 0 0-.053.699 6.2 6.2 0 0 1 .043 1.384q-.078 1.319-.084 2.64a49 49 0 0 0 1.027 10.146c.005.024.042.014.037-.01a49 49 0 0 1-.939-9.656q.004-1.14.062-2.28a5.8 5.8 0 0 1 .48-2.48m41.752 60.201a11.4 11.4 0 0 0-.632-2.864c.098.039.193.084.29.123.432.353 1.122-.518.505-.793-2.184-.975-4.383-1.907-6.548-2.924q-1.623-.763-3.228-1.564c-.5-.249-.997-.502-1.5-.743a4 4 0 0 0-1.448-.516l-.034-.005h-.003v.001c-.15.014-.3.186-.192.333a4.7 4.7 0 0 0 1.782 1.253l-.003.01c.069.854-1.2 1.182-1.836 1.359a8.6 8.6 0 0 1-2.779.296 8.36 8.36 0 0 1-4.828-1.849 8.6 8.6 0 0 1-2.725-3.924c-.465-1.416-.388-3.063-1.747-3.992-1.297-.887-3.108-.623-4.33-1.62a.525.525 0 0 0-.742.741c.765.877 1.512 1.768 2.268 2.653.93 1.448 1.93 2.86 2.83 4.319l.294.48q.302.68.653 1.33.407.922.817 1.843c.299 1.207.751 2.383.99 3.61.206 1.064.294 2.025 1.326 2.61 1.216.687 2.518 1.253 3.775 1.86 1.285.621 2.578 1.266 3.9 1.835a.64.64 0 0 0 .468.325c.178.034.36.055.538.088a21 21 0 0 0 2.897.921 32.8 32.8 0 0 0 9.495.374.644.644 0 0 0 .61-.801zm.354-5.81c-.987-.434-2.015-.667-3.032-1.011a33 33 0 0 1-3.258-1.377 40 40 0 0 0-6.014-2.43.075.075 0 0 0-.057.135 40 40 0 0 0 5.932 2.624 33 33 0 0 1 3.257 1.381c.913.472 1.765 1.013 2.713 1.415l.021.013c.007.004.013.003.02.006l.084.038-.002-.015c.456.114.804-.573.336-.778m-.237-2.652c-.175-.378-.684-.414-1.04-.531-.514-.17-1.01-.387-1.512-.59q-1.56-.632-3.123-1.256c-2.123-.848-4.256-1.597-6.425-2.317-.041-.013-.07.053-.03.072 1.953.889 3.896 1.767 5.885 2.577q1.506.614 3.01 1.235c.923.381 1.807.81 2.709 1.23a.5.5 0 0 0 .095.09.23.23 0 0 0 .23 0 .5.5 0 0 0 .149-.108.34.34 0 0 0 .052-.402m-1.337-2.369c-.174-.335-.538-.409-.873-.542l-1.4-.558q-1.307-.52-2.62-1.022c-1.809-.696-3.628-1.365-5.446-2.037-.046-.017-.078.058-.034.078 1.769.792 3.535 1.587 5.314 2.354q1.228.533 2.461 1.051l1.3.544c.383.16.806.453 1.223.316a.127.127 0 0 0 .075-.184m-5.049-3.803a7 7 0 0 0-1.137-.467c-.422-.15-.843-.305-1.265-.455q-1.277-.456-2.514-1.013c-.067-.03-.127.067-.06.102q1.213.624 2.468 1.162.594.251 1.204.461a5.4 5.4 0 0 0 1.273.326c.063.005.082-.087.031-.116m-5.547-95.753a.6.6 0 0 0-.085-.21c-.01-.02-.03-.028-.04-.045l-.04-.066a1.3 1.3 0 0 0-.179-.215 1.25 1.25 0 0 0-.477-.277 1 1 0 0 0-.28-.039 1.5 1.5 0 0 0-.225.028.3.3 0 0 0-.05.012q-.094.035-.183.077l-.028.013-.034.022a1.05 1.05 0 0 0-.306.307.7.7 0 0 0 .251.956.7.7 0 0 0 .15.041l.002.015a.86.86 0 0 0 .351.458l.183.077a.77.77 0 0 0 .407 0l.183-.077a.8.8 0 0 0 .275-.275 1.03 1.03 0 0 0 .156-.525 1.2 1.2 0 0 0-.03-.277m-1.292-1.816a.4.4 0 0 0-.106-.184l-.084-.065a.4.4 0 0 0-.21-.056.427.427 0 0 0-.415.415l.014.11a.4.4 0 0 0 .107.184l.084.065a.4.4 0 0 0 .21.056.427.427 0 0 0 .415-.415Zm-11.816 67.975-.05-3.488-.098-6.852q-.098-6.864-.223-13.728c-.04-2.3-.36-4.612-.535-6.905-.177-2.32-.424-4.634-.513-6.96-.088-2.274-.063-4.558-.067-6.834a31 31 0 0 1 .064-3.48c.132-1.18.304-2.346.483-3.52a18.5 18.5 0 0 0 .184-3.811c-.067-1.29-.39-2.557-.444-3.852-.052-1.285-.103-2.569-.163-3.853-.031-.66-.029-1.332-.106-1.988-.08-.666-.225-1.323-.311-1.988a.043.043 0 0 0-.086 0c-.135 1.173-.303 2.296-.34 3.48q-.053 1.739-.092 3.479c-.055 2.292-.491 4.536-.39 6.834a24 24 0 0 0 .555 3.359 21.5 21.5 0 0 1 .36 3.6q.071 3.418.124 6.835c.035 2.332-.127 4.633-.243 6.959q-.172 3.463-.36 6.926c-.12 2.246-.027 4.504 0 6.753q.043 3.475.1 6.95l.12 7.724.06 3.862c.011.66-.013 1.334.047 1.993a2.25 2.25 0 0 0 .677 1.552.437.437 0 0 0 .614 0 2 2 0 0 0 .618-1.303 16 16 0 0 0 .015-1.744m-59.109 22.038c-.05-.053-.111-.098-.163-.15a.8.8 0 0 1-.12-.167.065.065 0 0 0-.088-.025c-.466-.435-.975-.838-1.459-1.24-.64-.532-1.28-1.064-1.933-1.583a63 63 0 0 0-1.869-1.44 9.4 9.4 0 0 0-1.957-1.263c-.02-.007-.037.018-.027.035a9.2 9.2 0 0 0 1.575 1.639c.61.563 1.24 1.103 1.873 1.641.616.524 1.244 1.031 1.87 1.541a19 19 0 0 0 1.922 1.5c.293.18.65-.259.376-.488m2.138-.807c-.128-.12-.265-.234-.391-.357a2.4 2.4 0 0 1-.309-.477 4.8 4.8 0 0 0-.768-.773c-.272-.254-.556-.496-.838-.739a19.6 19.6 0 0 0-3.58-2.451c-.023-.012-.05.018-.03.036a109 109 0 0 0 3.19 2.835c.528.453 1.033.944 1.58 1.374.156.123.353.154.512.272a3.5 3.5 0 0 1 .365.383 2.6 2.6 0 0 0 .766.67c.043.018.115-.013.092-.07a2.1 2.1 0 0 0-.59-.703m2.748.118a5 5 0 0 1-.728-.632c-.454-.435-.896-.882-1.355-1.31q-1.36-1.27-2.784-2.47c-.045-.038-.11.023-.066.067a68 68 0 0 0 2.707 2.62c.453.411.918.809 1.373 1.217a5 5 0 0 1 .716.716c.154.206.265.387.537.419.065.007.1-.066.09-.119-.052-.274-.275-.369-.49-.508m2.835.36a3.6 3.6 0 0 0-.481-.51q-.269-.264-.543-.522c-.376-.352-.76-.697-1.161-1.021a17 17 0 0 0-2.476-1.692c-.034-.018-.075.029-.043.055.77.635 1.55 1.259 2.31 1.905.371.316.745.63 1.11.954q.281.25.557.507a5 5 0 0 0 .55.5.13.13 0 0 0 .177-.176m36.355-12.05a10.3 10.3 0 0 0-2.27-.352c-.831.066-1.65.16-2.488.198-1.7.079-3.4.16-5.102.202-3.358.084-6.72.078-10.078.01-.03-.001-.03.044 0 .046 3.356.23 6.715.38 10.078.472 1.659.046 3.318.09 4.978.1.833.004 1.657-.002 2.488.055a8.2 8.2 0 0 0 2.394-.505c.107-.025.117-.209 0-.226m11.83.214a10 10 0 0 1-1.317-.43 2.1 2.1 0 0 0-1.028-.342 12.8 12.8 0 0 0-2.756.249 29 29 0 0 1-3.18.315.059.059 0 0 0 0 .117c1.81-.011 3.59.236 5.397.293a4.7 4.7 0 0 0 1.186-.035 3.4 3.4 0 0 1 .508-.136 1.54 1.54 0 0 1 .697.22 5.6 5.6 0 0 1 1.797 1.189c.049.055.13-.015.099-.076a2.9 2.9 0 0 0-1.403-1.364M499.363 25.52c-.012-.045-.074-.025-.068.018a46 46 0 0 0 2.099 8.543.078.078 0 0 0 .15-.041c-.627-2.87-1.38-5.695-2.18-8.52m4.706 3.473-.404-1.49c-.263-.974-.566-1.94-.853-2.907a.023.023 0 0 0-.045.012c.233.983.451 1.971.707 2.948l.378 1.438a4.9 4.9 0 0 0 .431 1.375.043.043 0 0 0 .08-.022 4.7 4.7 0 0 0-.294-1.354m1.87 8.195q-.455-1.624-.823-3.271c-.007-.03-.051-.017-.045.012q.333 1.688.754 3.356a20 20 0 0 0 .962 3.184c.024.055.104.014.093-.04-.233-1.096-.638-2.161-.94-3.24m4.785 2.281c-.404-1.334-.797-2.672-1.192-4.01q-1.168-3.951-2.282-7.92a.023.023 0 0 0-.045.012q.968 4.073 2.096 8.1c.366 1.303.752 2.6 1.145 3.895a29 29 0 0 0 1.305 3.86c.022.047.087.012.079-.033a35 35 0 0 0-1.106-3.904m4.649 2.775q-.604-1.65-1.178-3.311a308 308 0 0 1-2.19-6.553.023.023 0 0 0-.046.012c.642 2.253 1.325 4.49 2.073 6.711q.541 1.607 1.11 3.204a16.7 16.7 0 0 0 1.244 3.179.059.059 0 0 0 .108-.045 19.6 19.6 0 0 0-1.121-3.197m2.227-2.07c-.017-.053-.098-.03-.083.023a25.8 25.8 0 0 0 2.927 6.652.035.035 0 0 0 .06-.036 43.7 43.7 0 0 1-2.904-6.64M484.23 70.83c-1.364 3.191-2.741 6.378-4.062 9.588-.008.02.027.035.036.015 1.383-3.184 2.709-6.392 4.048-9.595.005-.012-.016-.02-.022-.009m.309 5.389a72 72 0 0 0-4.116 8.743c-.014.037.046.063.064.027 1.455-2.869 2.687-5.85 4.112-8.735.02-.04-.04-.076-.06-.035m.993 2.915c-.755 1.656-1.576 3.28-2.366 4.919-.382.793-.776 1.58-1.153 2.375a7.8 7.8 0 0 0-.905 2.357c-.01.081.102.114.153.064a7.7 7.7 0 0 0 1.32-2.307c.372-.8.717-1.614 1.065-2.426.7-1.631 1.323-3.294 1.972-4.946.02-.049-.063-.084-.086-.036m-.415 7.014q-.896 1.427-1.666 2.928a14 14 0 0 0-1.214 3.05c-.013.055.066.093.093.04.505-.982.904-2.011 1.349-3.02q.67-1.521 1.472-2.978a.02.02 0 0 0-.034-.02m-2.2 8.543c-.135.338-.279.673-.401 1.015-.008.02.027.035.035.015.146-.335.27-.679.403-1.019.01-.023-.028-.033-.037-.01m18.97 33.665c-2.517-2.157-5.166-4.15-7.624-6.38a117 117 0 0 1-7.082-6.996c-.035-.038-.087.017-.055.055a73 73 0 0 0 6.949 7.287 51.6 51.6 0 0 0 7.755 6.107c.045.027.098-.038.057-.073m4.175-.704a31.5 31.5 0 0 1-5.386-3.94c-1.814-1.468-3.628-2.934-5.418-4.431-.038-.032-.094.021-.056.055 1.834 1.598 3.676 3.192 5.562 4.728q1.376 1.12 2.765 2.225a6 6 0 0 0 2.5 1.442c.044.008.08-.055.033-.079m4.718-.141c-1.224-.863-2.525-1.608-3.76-2.454a59 59 0 0 1-3.709-2.723c-.042-.034-.103.024-.06.06 1.13.99 2.3 1.943 3.522 2.816a23 23 0 0 0 3.951 2.395.055.055 0 0 0 .056-.094m4.109-.681c-1.658-1.018-3.401-1.88-5.136-2.757-.022-.011-.041.021-.02.034 1.686.967 3.364 1.95 5.124 2.776a.031.031 0 0 0 .032-.054m3.291-.58c-.581-.287-1.178-.537-1.774-.793-.045-.02-.085.047-.04.067.595.268 1.185.54 1.793.776.029.011.049-.036.021-.05m5.262-.543a3 3 0 0 0-.534-.179c-.199-.051-.397-.105-.6-.14-.392-.066-.786-.091-1.184-.121-.059-.005-.066.083-.013.1.377.12.75.243 1.137.328.194.043.392.064.589.09a3 3 0 0 0 .573.039c.057-.004.092-.088.032-.117m-4.109-14.153c-1.646-1.164-3.467-2.097-5.214-3.1-1.754-1.006-3.517-1.995-5.275-2.994a.043.043 0 0 0-.044.074 273 273 0 0 0 5.177 3.163 55 55 0 0 0 5.293 2.965.063.063 0 0 0 .063-.108m3.344-.532a9 9 0 0 0-1.598-.955q-.814-.442-1.635-.871l-3.406-1.772c-.018-.009-.033.017-.016.027l3.327 1.907q.803.46 1.615.905a9 9 0 0 0 1.671.831c.04.012.075-.043.042-.072m4.463-.141a16.9 16.9 0 0 0-4.983-2.192c-.048-.014-.067.059-.02.075 1.709.61 3.302 1.465 4.964 2.184a.04.04 0 0 0 .039-.067m3.427-.981c-.416-.128-.83-.242-1.255-.34-.423-.1-.855-.164-1.282-.241-.054-.01-.077.068-.023.083.417.114.834.243 1.256.337.427.094.85.171 1.283.236a.04.04 0 0 0 .021-.075m-104.57 27.32c-.01-.029-.054-.017-.045.012a37.5 37.5 0 0 0 6.472 12.092c.022.027.07-.01.05-.038a43.6 43.6 0 0 1-6.477-12.066m93.746 22.467c-.162 1.75-.296 3.505-.5 5.25a8 8 0 0 0-.02 1.252 8.3 8.3 0 0 1-.174 1.656c-.152.897-.36 1.783-.574 2.667a.016.016 0 0 0 .03.008c.258-.945.454-1.906.622-2.87.071-.413.127-.828.228-1.234a6.6 6.6 0 0 0 .28-1.27c.106-1.816.101-3.64.14-5.459 0-.02-.03-.02-.032 0m-5.461-23.034a19.6 19.6 0 0 0-3.35-2.797c-.017-.011-.032.016-.016.027a20.4 20.4 0 0 1 3.278 2.858 27 27 0 0 1 2.626 3.46.04.04 0 0 0 .067-.04 16 16 0 0 0-2.605-3.508m4.77 1.962q-.369-.448-.76-.877a20 20 0 0 0-1.613-1.591 20.6 20.6 0 0 0-3.712-2.538.008.008 0 0 0-.008.013 25.7 25.7 0 0 1 3.548 2.775 25 25 0 0 1 1.529 1.519q.373.408.726.834a2.6 2.6 0 0 0 .728.77.067.067 0 0 0 .098-.074 2 2 0 0 0-.536-.831m2.534-1.214q-1.222-1.114-2.487-2.176a12 12 0 0 0-1.444-1.062 7.5 7.5 0 0 0-1.663-.752c-.04-.013-.058.043-.027.064.454.319.899.635 1.372.926a50 50 0 0 1 1.394.881 11 11 0 0 1 2.54 2.287c.126.158.614 1.009.903.774.302-.245-.445-.812-.588-.943m3.302-.337c-.203-.195-.427-.368-.646-.545q-.676-.547-1.376-1.063a21 21 0 0 0-3.005-1.846.035.035 0 0 0-.036.06q1.397 1.006 2.78 2.037.7.52 1.375 1.074c.205.167.402.345.612.506a1.9 1.9 0 0 0 .677.428c.049.011.106-.032.087-.086a1.64 1.64 0 0 0-.468-.565m2.268-1.106a21 21 0 0 0-.523-.36q-.515-.34-1.039-.665c-.7-.434-1.423-.823-2.16-1.195a.027.027 0 0 0-.027.047c.683.44 1.353.897 2.025 1.353q.495.336.982.687l.487.349a.94.94 0 0 0 .476.253.11.11 0 0 0 .106-.139.75.75 0 0 0-.327-.33m2.82-.456a4.3 4.3 0 0 0-1.326-.934 12 12 0 0 0-1.526-.563c-.03-.008-.05.037-.022.05a14 14 0 0 1 1.4.768q.337.204.679.402a8 8 0 0 0 .734.356.051.051 0 0 0 .061-.08m-50.941-14.413c-.036-.045-.112.014-.08.061.789 1.165 1.55 2.35 2.304 3.537.756 1.191 1.485 2.407 2.333 3.536a.066.066 0 0 0 .115-.067 30.1 30.1 0 0 0-4.672-7.067m7.191 7.101q-1.585-2.796-3.219-5.561a.059.059 0 0 0-.101.059q1.487 2.79 3.023 5.55a55 55 0 0 0 3.176 5.46c.028.039.108.016.086-.036a54 54 0 0 0-2.965-5.472m5.295 5.545a87 87 0 0 0-1.553-2.872q-1.673-2.938-3.572-5.728c-.023-.033-.075-.003-.054.032a166 166 0 0 1 3.322 5.747c.524.955 1.05 1.908 1.554 2.872a29 29 0 0 0 1.594 2.97c.035.052.128.022.107-.045a19 19 0 0 0-1.398-2.976m3.427 2.238q-.678-1.244-1.377-2.477a128 128 0 0 0-2.912-4.864.023.023 0 0 0-.04.024q1.383 2.42 2.715 4.87.658 1.202 1.296 2.414a19.4 19.4 0 0 0 1.38 2.473c.04.053.139.025.115-.048a15 15 0 0 0-1.177-2.392m4.074 2.425c-.194-.37-.4-.733-.603-1.098q-.57-1.026-1.17-2.035a84 84 0 0 0-2.612-4.093.031.031 0 0 0-.054.032 379 379 0 0 1 2.372 4.142q.579 1.021 1.152 2.046.287.512.57 1.026a2.9 2.9 0 0 0 .618.923c.033.026.098.014.093-.038a2.5 2.5 0 0 0-.366-.905m3.096 1.511a.4.4 0 0 0-.134-.106.14.14 0 0 0-.04-.117q-.075-.146-.161-.285c-.114-.187-.24-.365-.361-.548a11 11 0 0 1-.589-.985 76 76 0 0 1-1.104-2.206c-.358-.745-.656-1.514-1.063-2.235a22 22 0 0 0-1.386-2.047.055.055 0 0 0-.094.055c.421.87.792 1.748 1.286 2.581.49.828 1.021 1.62 1.47 2.473a14.4 14.4 0 0 1 1.163 2.672c.094.323.165.84.453 1.06a.37.37 0 0 0 .56-.088.22.22 0 0 0 0-.224m.356-4.614a29 29 0 0 0-.831-1.43.059.059 0 0 0-.101.058c.222.51.457 1.006.709 1.502.25.492.545.959.84 1.424a.047.047 0 0 0 .082-.047 17 17 0 0 0-.7-1.507m2.322 4.593-.164-.317-.34-.655a.16.16 0 0 0-.22-.058.164.164 0 0 0-.057.22l.317.669.153.323c.058.123.112.279.251.329a.154.154 0 0 0 .186-.106c.043-.134-.066-.291-.126-.405m1.52-2.075c-.308-.6-.655-1.182-.984-1.77-.023-.04-.08-.005-.06.036.287.612.56 1.235.868 1.836.31.603.635 1.188.984 1.77.024.04.078.005.06-.036a31 31 0 0 0-.868-1.836m-7.373-27.752c-.886-1.564-2.374-2.69-3.333-4.213a13 13 0 0 1-1.126-2.566c-.146-.408-.28-.82-.452-1.219a5.4 5.4 0 0 0-.73-1.161c-.033-.043-.125-.038-.117.031a5.2 5.2 0 0 0 .23 1.216 9 9 0 0 0 .557 1.174c.45.834.986 1.622 1.499 2.418.994 1.546 2.198 2.947 3.27 4.438a.117.117 0 0 0 .202-.118m-3.118-.373c-.323-.432-.672-.844-.995-1.276a23 23 0 0 1-1.587-2.4 85 85 0 0 1-2.658-5.068c-.014-.028-.06-.008-.05.021a20.6 20.6 0 0 0 2.59 5.117q.797 1.195 1.55 2.42c.257.42.5.85.759 1.27.188.304.364.745.732.838a.075.075 0 0 0 .094-.072c.035-.33-.245-.596-.435-.85m-4.217-1.766c-.564-1.056-1.138-2.108-1.691-3.17-.02-.038-.088-.011-.071.03a34 34 0 0 0 1.456 3.25 15.6 15.6 0 0 0 1.85 3.033c.03.034.096-.002.078-.046a31 31 0 0 0-1.622-3.097m-1.544 2.014c-.217-.451-.477-.885-.717-1.325-.01-.019-.044-.006-.036.015.186.453.355.917.56 1.361a8.7 8.7 0 0 0 .694 1.34.047.047 0 0 0 .085-.037 9 9 0 0 0-.586-1.354m12.547-26.366c-.76.096-1.52.223-2.283.297-.765.075-1.54.107-2.31.125a.02.02 0 0 0 0 .039 11.5 11.5 0 0 0 4.603-.392c.035-.012.032-.075-.01-.07m1.13-2.076a23.3 23.3 0 0 1-4.323.55.035.035 0 0 0 0 .07 11.8 11.8 0 0 0 4.336-.575.023.023 0 0 0-.012-.045m.019-2.432a3.7 3.7 0 0 0-1.553.333c-.512.184-1.014.394-1.528.575a.031.031 0 0 0 .017.06c.532-.113 1.07-.196 1.602-.305a3.7 3.7 0 0 0 1.499-.525.075.075 0 0 0-.038-.138m-.006-3.173c-.117.048-.236.081-.35.135-.115.053-.235.101-.346.16a1.9 1.9 0 0 1-.703.207c-.062.006-.085.1-.016.115a1.9 1.9 0 0 0 .831 0 1.1 1.1 0 0 0 .383-.18.7.7 0 0 0 .171-.163 2 2 0 0 0 .105-.176c.024-.046-.017-.121-.075-.098m-.01-2.009a2 2 0 0 0-.149.14l-.143.153a1 1 0 0 0-.12.17l-.113.175c-.02.03.024.061.05.038l.147-.14a1 1 0 0 0 .15-.156l.12-.163a2 2 0 0 0 .113-.174.035.035 0 0 0-.055-.043m-38.608 22.613a.012.012 0 0 0-.023 0 14.5 14.5 0 0 0 .522 5.126c.016.055.09.03.083-.023-.23-1.696-.444-3.396-.582-5.103m2.66 2.217a71 71 0 0 1-.384-8.09.027.027 0 0 0-.054 0 70 70 0 0 0 .182 8.21 36.4 36.4 0 0 0 1.294 7.894c.015.048.098.043.092-.012-.293-2.678-.847-5.32-1.13-8.002m3.566 8.258a75 75 0 0 1-.662-3.01 61 61 0 0 1-.885-6.197c-.004-.045-.073-.046-.07 0q.22 3.028.73 6.023c.175 1.013.373 2.023.608 3.024a14.5 14.5 0 0 0 .828 2.862c.018.038.085.02.08-.022a24 24 0 0 0-.629-2.68m2.039.788a17.6 17.6 0 0 1-.53-2.837c-.001-.02-.031-.02-.03 0a12.44 12.44 0 0 0 1.363 5.524c.025.045.103.015.085-.036-.31-.88-.648-1.747-.888-2.65m-93.41-.047a.016.016 0 0 0-.03.009 63 63 0 0 0 2.375 7.544c.012.032.064.02.052-.014-.852-2.498-1.7-4.992-2.397-7.539m7.184 10.855c-.131-.36-.378-.69-.515-1.061-.249-.68-.477-1.368-.708-2.054q-.715-2.115-1.368-4.25a215 215 0 0 1-2.388-8.476.023.023 0 0 0-.045.013c.634 2.91 1.377 5.79 2.201 8.652q.601 2.086 1.257 4.155c.23.729.47 1.453.705 2.18.11.343.102.735.219 1.064a5.6 5.6 0 0 0 .587.856.075.075 0 0 0 .135-.057 5.3 5.3 0 0 0-.08-1.022m2.196 7.38a1.4 1.4 0 0 0-.092-.55q-.081-.293-.17-.584c-.113-.36-.232-.719-.348-1.078-.241-.746-.514-1.483-.76-2.227a.02.02 0 0 0-.038.01c.187.776.348 1.559.541 2.333.095.38.184.762.285 1.14a2.8 2.8 0 0 0 .375 1.041c.07.087.197.01.2-.086Zm3.717 2.549q-.47-1.508-.93-3.019-.907-2.962-1.753-5.942-1.705-6.016-3.2-12.092c-.008-.03-.052-.017-.045.013q1.316 6.12 2.936 12.164.802 2.992 1.667 5.966c.294 1.01.6 2.018.91 3.024a12.8 12.8 0 0 0 .994 2.776c.05.085.206.055.197-.054a14 14 0 0 0-.776-2.837m4.738 5.554c-.116-.481-.247-.96-.377-1.438-.262-.956-.536-1.908-.801-2.863q-.811-2.925-1.624-5.849-1.604-5.788-3.15-11.593a.031.031 0 0 0-.06.016q1.301 5.87 2.746 11.705.717 2.886 1.481 5.76c.256.957.51 1.915.774 2.87q.197.718.416 1.427a1.94 1.94 0 0 0 .514 1.066.1.1 0 0 0 .163-.044 1.7 1.7 0 0 0-.082-1.057m3.046 1.883-.654-2.65-1.278-5.177c-.863-3.49-1.789-6.966-2.72-10.438a.02.02 0 0 0-.038.01c.786 3.511 1.579 7.022 2.434 10.518q.633 2.59 1.269 5.18l.65 2.65a12 12 0 0 0 .707 2.393.063.063 0 0 0 .116-.031 12 12 0 0 0-.486-2.455m3.269 2.618q-.678-2.582-1.344-5.168-1.348-5.231-2.683-10.466a.023.023 0 0 0-.045.013q1.206 5.268 2.484 10.52.636 2.594 1.283 5.185a54 54 0 0 0 1.444 5.271.082.082 0 0 0 .158-.044c-.3-1.79-.835-3.556-1.296-5.31m5.176 5.655c.014.048.017.033 0 0"/><path fill="currentColor" d="M409.317 144.2a1 1 0 0 1-.022-.121 5 5 0 0 0-.165-.596q-.154-.6-.333-1.19c-.262-.87-.557-1.728-.836-2.593a22 22 0 0 1-.741-2.618c-.094-.503.065-1.03-.066-1.521-.116-.434-.324-.852-.447-1.288-.997-3.53-1.891-7.092-2.825-10.64a.02.02 0 0 0-.038.011c.828 3.62 1.717 7.23 2.458 10.869a11 11 0 0 0 .218 1.35c.149.438.46.798.602 1.246a20.5 20.5 0 0 1 .557 2.669c.154.899.292 1.799.464 2.694.094.487.195.972.314 1.453.072.293.102.479.359.648a.345.345 0 0 0 .412-.053.3.3 0 0 0 .078-.337Zm3.365 1.404c-.198-.708-.392-1.417-.593-2.124-.392-1.375-.787-2.749-1.175-4.125-.775-2.751-1.556-5.501-2.317-8.257a.027.027 0 0 0-.053.015c.664 2.781 1.338 5.56 2.055 8.33q.521 2.016 1.055 4.03c.19.71.39 1.417.588 2.125a6 6 0 0 0 .687 1.859.055.055 0 0 0 .102-.028 5.7 5.7 0 0 0-.35-1.825m4.374 4.878-.005-.03v-.005l-.002-.01a22 22 0 0 0-.98-3.694q-.56-1.96-1.137-3.916a782 782 0 0 0-2.345-7.814.02.02 0 0 0-.038.01 780 780 0 0 0 2.076 7.888q.513 1.91 1.04 3.816a22 22 0 0 0 1.141 3.823c.06.122.25.051.243-.069Zm2.417.063q-.468-1.322-.904-2.655a158 158 0 0 1-1.705-5.455.016.016 0 0 0-.03.008c.492 1.874 1.013 3.745 1.616 5.587q.452 1.383.937 2.754a17.4 17.4 0 0 0 .98 2.531.035.035 0 0 0 .064-.027 26 26 0 0 0-.958-2.743m2.449-1.779c-.032-.063-.123-.008-.094.056.867 1.902 1.705 3.828 2.726 5.655.023.041.098.013.079-.033-.789-1.944-1.767-3.807-2.71-5.678m-48.092-43.242c-1.192-1.046-2.477-2.004-3.744-2.955q-1.958-1.468-3.94-2.9c-.022-.015-.05.02-.03.038q1.903 1.538 3.83 3.043c1.25.975 2.51 1.965 3.832 2.841.04.027.089-.035.052-.067m3.545-.729c-3.428-2.871-7.164-5.405-10.836-7.95-.037-.026-.072.035-.035.061 3.635 2.61 7.15 5.396 10.828 7.944.033.022.074-.03.043-.055m1.861-2.24a52.3 52.3 0 0 0-6.625-5.48q-3.54-2.613-7.257-4.97c-.09-.057-.17.083-.083.141q3.632 2.389 7.095 5.021c2.296 1.75 4.474 3.673 6.818 5.356.041.029.085-.034.052-.068m-2.415-5.525a58 58 0 0 0-5.303-4.132q-2.81-2.01-5.727-3.867c-.043-.028-.081.04-.04.067q2.845 1.876 5.59 3.897c1.825 1.346 3.586 2.78 5.428 4.103.04.028.088-.035.052-.068m-2.348-4.934c-2.654-2.004-5.458-3.82-8.202-5.698-.016-.012-.032.015-.015.027 2.714 1.92 5.391 3.92 8.193 5.712.026.017.047-.023.024-.04m-2.58-5.069a44 44 0 0 0-4.332-2.44c-.022-.012-.042.021-.02.033 1.48.75 2.915 1.58 4.329 2.448.026.016.049-.024.023-.04m-1.393-4.616c-.848-.431-1.705-.847-2.558-1.268-.022-.011-.042.022-.02.033.85.427 1.699.859 2.554 1.275.027.013.051-.027.024-.04M217.034 238.998a68 68 0 0 0-7.276-.42c-2.425-.062-4.85-.072-7.276-.1a.074.074 0 0 0 0 .148c2.425.15 4.85.32 7.276.437a68 68 0 0 0 7.276.114.09.09 0 0 0 0-.18m3.574-3.311a149 149 0 0 1-16.083-.75c-.06-.006-.075.099-.015.108a70.6 70.6 0 0 0 16.098.751.055.055 0 0 0 0-.11m2.053-2.421a58 58 0 0 0-6.782-.403q-3.506-.15-7.013-.23c-.045-.002-.045.067 0 .07q3.445.242 6.89.426a59 59 0 0 0 6.89.244c.058-.003.08-.097.015-.107m-.781-3.198a31.4 31.4 0 0 1-6.622-.03c-.047-.006-.059.076-.011.084a17.5 17.5 0 0 0 6.644.03c.047-.01.037-.089-.011-.084m2.041-2.807a16.7 16.7 0 0 0-2.822.5c-.06.012-.033.098.025.09.477-.069.959-.114 1.436-.186a8.6 8.6 0 0 0 1.373-.32c.044-.014.039-.086-.012-.084m-38.787-25.104a106 106 0 0 1-10.744 1.278c-.04.003-.04.064 0 .063a67 67 0 0 0 10.763-1.273c.044-.01.025-.075-.02-.068m3.8-5.005c-3.739.645-7.455 1.379-11.215 1.905-.026.004-.02.048.006.046a60.4 60.4 0 0 0 11.232-1.868.043.043 0 0 0-.023-.083m.54-3.707c-1.119.097-2.224.299-3.332.48-.039.006-.03.074.01.069 1.113-.142 2.23-.262 3.33-.488.035-.007.028-.064-.008-.061m14.097 10.286a37.6 37.6 0 0 0-6.195-2.96c-.057-.023-.099.074-.042.1 2.088.927 4.105 2.009 6.19 2.94a.047.047 0 0 0 .047-.08m4.538-.123a35 35 0 0 0-4.088-2.628c-1.426-.869-2.865-1.714-4.303-2.56a.02.02 0 0 0-.02.034c1.371.906 2.74 1.814 4.126 2.698a36 36 0 0 0 4.21 2.554c.059.027.135-.05.075-.098m5.882-1.562c-1.671-1.575-3.524-2.963-5.323-4.388-.02-.015-.047.01-.028.028 1.738 1.5 3.451 3.061 5.314 4.41.028.02.063-.026.037-.05m1.002-2.074a.05.05 0 0 0 0 .1.05.05 0 0 0 0-.1m34.495 57.242a.027.027 0 0 0-.054 0c-.042 2.47-.051 4.935-.008 7.404a.035.035 0 0 0 .07 0c.044-2.47.034-4.934-.008-7.404m-3.17 4.85a163 163 0 0 1-.946 10.477c-.007.061.096.075.108.015a50.4 50.4 0 0 0 .916-10.492.04.04 0 0 0-.078 0m6.555 31.9c-.005-.03-.058-.024-.054.007.6 4.753.794 9.524.96 14.307a.047.047 0 0 0 .093 0 80 80 0 0 0-1-14.314m-4.065-1.542c-.01-.04-.068-.023-.06.016a155 155 0 0 1 1.816 10.323c.495 3.53.822 7.076 1.189 10.62.007.069.11.072.11 0a98.4 98.4 0 0 0-3.055-20.96m-.458 23.649c-.215-1.029-.308-2.073-.422-3.117-.106-.973-.135-1.948-.22-2.921-.082-.954-.245-1.909-.374-2.858q-.798-5.888-1.96-11.707c-.014-.07-.116-.04-.106.029q.84 5.802 1.598 11.618c.121.931.226 1.865.352 2.796.127.937.344 1.858.461 2.8.121.969.262 1.947.291 2.924.015.49-.01.975-.031 1.463q-.015.305-.008.61a1.6 1.6 0 0 0 .018.48.373.373 0 0 0 .378.576.42.42 0 0 0 .387-.295c.246-.716-.216-1.692-.364-2.398m-3.546 4.278c-.213-.932-.55-1.825-.764-2.754-.42-1.823-.65-3.696-.93-5.545-.564-3.746-1.098-7.502-1.889-11.209-.006-.03-.057-.023-.053.008.428 3.688 1.103 7.342 1.752 10.996.34 1.916.737 3.838.933 5.775.092.901.058 1.81.144 2.713.072.759.058 1.787.642 2.339a.17.17 0 0 0 .264-.034 3.43 3.43 0 0 0-.1-2.29m-3.439 5.685a16.4 16.4 0 0 1-.68-2.339c-.38-1.706-.637-3.445-.888-5.174q-.763-5.244-1.376-10.51c-.005-.05-.082-.052-.078 0 .252 3.458.66 6.897 1.25 10.314.298 1.723.64 3.438.937 5.16a25 25 0 0 1 .316 2.859 4.94 4.94 0 0 0 .476 2.322.351.351 0 0 0 .648-.175 5.5 5.5 0 0 0-.605-2.457m-6.397-6.493a93 93 0 0 0-.306-1.955 9.7 9.7 0 0 0-.447-1.916.027.027 0 0 0-.054.007 17.2 17.2 0 0 0 .43 3.811 98 98 0 0 0 .731 3.877c.012.055.106.044.1-.014a96 96 0 0 0-.454-3.81m2.66 13.119a7.3 7.3 0 0 0-.323-1.163c-.284-.76-.545-1.526-.812-2.293-.037-.108-.21-.063-.173.048a8.5 8.5 0 0 1 .446 2.317c.015.37.054.741.077 1.11a2.3 2.3 0 0 0 .263 1.177.287.287 0 0 0 .49 0 1.9 1.9 0 0 0 .032-1.196m-4.7 2.358c-.211-1.37-.437-2.738-.69-4.1-.503-2.726-1.066-5.442-1.754-8.126-.011-.044-.077-.026-.068.018.578 2.671 1.148 5.344 1.63 8.034.238 1.324.466 2.65.675 3.98a36 36 0 0 0 .634 4.103.04.04 0 0 0 .077-.01 24 24 0 0 0-.504-3.899m-4.46.889q-.699-3.514-1.618-6.975a.023.023 0 0 0-.045.013q.832 3.42 1.511 6.878c.453 2.3.726 4.642 1.22 6.93a.031.031 0 0 0 .062-.008 57 57 0 0 0-1.13-6.838m-3.542 1.482c0-.015-.024-.015-.023 0a40.6 40.6 0 0 0 1.105 7.65c.01.035.06.02.053-.014a62 62 0 0 1-1.135-7.636m-3.74 7.9c-.005-.025-.042-.014-.038.01.168 1.103.293 2.226.536 3.316.005.025.049.02.046-.006-.116-1.113-.353-2.219-.544-3.32m-157.655-93.49a37.7 37.7 0 0 0-7.036 12.085c-.024.074.094.126.128.054a66.6 66.6 0 0 1 6.987-12.077c.035-.046-.043-.106-.08-.062m-2.017 7.695a45 45 0 0 0-2.835 4.543 17.4 17.4 0 0 0-1.894 4.872c-.019.098.118.172.171.072.816-1.55 1.424-3.2 2.152-4.792a40 40 0 0 1 2.474-4.656c.027-.043-.04-.08-.068-.04m-1.754 9.21a21 21 0 0 0-1.508 3.144 18 18 0 0 0-.866 3.478c-.01.063.083.091.098.027.272-1.126.635-2.217 1.004-3.314a30 30 0 0 1 1.319-3.307c.015-.032-.03-.059-.047-.028m33.534-35.984a462 462 0 0 0-2.872 16.071c-.01.059.079.085.09.025a463 463 0 0 0 2.82-16.086c.004-.024-.032-.035-.037-.01m-61.803-32.317c-3.038-1.666-6.137-3.214-9.23-4.775-.036-.018-.068.035-.032.054 3.062 1.622 6.115 3.258 9.23 4.775.037.018.068-.034.032-.054m12.495-.478c-3.524-1.985-7.139-3.799-10.635-5.836q-5.239-3.053-10.316-6.38c-.02-.014-.04.02-.02.034a132 132 0 0 0 10.159 6.65 93 93 0 0 0 10.745 5.647c.076.032.144-.072.067-.115m6.839-2.714c-.43-.76-1.596-1.085-2.341-1.442a65 65 0 0 1-2.784-1.413c-1.763-.952-3.456-2.012-5.117-3.134-3.372-2.279-6.757-4.564-10.038-6.973-.056-.041-.13.054-.076.099a92 92 0 0 0 9.854 7.09c1.739 1.066 3.486 2.115 5.21 3.204q1.27.802 2.533 1.612c.721.46 1.686 1.32 2.59 1.251a.198.198 0 0 0 .169-.294m7.875-2.264a38 38 0 0 0-1.308-.647q-1.373-.657-2.724-1.352a95 95 0 0 1-5.411-3.009c-3.538-2.127-7.023-4.332-10.595-6.403a.023.023 0 0 0-.023.04c3.414 2.337 6.966 4.418 10.549 6.48q2.63 1.515 5.207 3.118 1.341.833 2.67 1.686c.408.262.82.52 1.239.765a1.5 1.5 0 0 0 1.108.344.223.223 0 0 0 .155-.274c-.166-.423-.463-.536-.867-.748m9.613-.494a44 44 0 0 0-4.906-2.496 49 49 0 0 1-4.725-2.807c-1.527-1.017-3.031-2.066-4.58-3.05-1.546-.98-3.143-1.875-4.7-2.835-.026-.016-.047.023-.023.04 1.483 1.088 2.938 2.203 4.482 3.207 1.536 1 3.134 1.895 4.732 2.79a83 83 0 0 1 4.714 2.825 33 33 0 0 0 4.655 2.927.348.348 0 0 0 .35-.6m7.895-.429a10.3 10.3 0 0 0-1.768-1.415q-.998-.735-2.007-1.455-1.97-1.404-3.988-2.74-4.087-2.707-8.353-5.114a.02.02 0 0 0-.02.034q4.143 2.502 8.165 5.203 1.958 1.32 3.88 2.692 1.01.719 2.008 1.454a13 13 0 0 0 2.022 1.421.051.051 0 0 0 .061-.08m.178-7.559a31 31 0 0 0-3.356-2.546 38 38 0 0 0-3.775-2.105c-.067-.034-.125.064-.059.1 1.249.684 2.441 1.444 3.633 2.219a79 79 0 0 1 3.505 2.4c.039.029.089-.036.052-.068m5.765 4.43a1.4 1.4 0 0 0-.218-.45 2.2 2.2 0 0 0-.38-.328c-.154-.122-.321-.226-.486-.334-.292-.192-.588-.373-.884-.558-.67-.417-1.335-.82-1.97-1.29-.017-.014-.04.015-.023.03.534.46 1.018.957 1.511 1.458a17 17 0 0 0 1.486 1.432 1.25 1.25 0 0 0 .491.272.66.66 0 0 0 .403.008.19.19 0 0 0 .07-.24m6.119-3.531q-.689-.409-1.376-.82-1.29-.77-2.593-1.515c-1.806-1.032-3.652-1.944-5.528-2.84-.044-.022-.083.042-.039.067 1.785 1.045 3.546 2.132 5.327 3.184q1.293.764 2.571 1.552.683.42 1.355.855a2.25 2.25 0 0 0 1.16.529.134.134 0 0 0 .115-.2 2.23 2.23 0 0 0-.992-.812m4.189-3.486a11.3 11.3 0 0 1-2.58-1.208c-.065-.042-.118.057-.06.101a6.6 6.6 0 0 0 1.243.768c.215.098.435.19.66.266a5 5 0 0 0 .712.164.047.047 0 0 0 .025-.09m3.565-2.482a7 7 0 0 0-.95-.746c-.34-.224-.705-.407-1.06-.604-.049-.027-.108.041-.062.08.31.254.612.526.94.756.163.114.324.224.494.326a6 6 0 0 0 .558.293c.065.03.14-.05.08-.105m163.242-77.482.084.144a1.1 1.1 0 0 0-.348-.427 2.5 2.5 0 0 0-.426-.3 1.7 1.7 0 0 0-.47-.182.9.9 0 0 0-.397-.016l-.026-.004c-.016-.002-.027.011-.043.016l-.008.001h.007c-.057.017-.103.064-.066.127l.013.022a.5.5 0 0 0 .074.215 1.6 1.6 0 0 0 .191.286 2.8 2.8 0 0 0 .56.44 2 2 0 0 0 .31.157 1 1 0 0 0 .17.061.2.2 0 0 0 .065.012h.006q.026.013.054.024a3 3 0 0 0 .617.162c.075.015.155-.064.106-.137a4 4 0 0 0-.473-.6m3.175 2.524a2.5 2.5 0 0 0-.472-.378 5 5 0 0 0-.442-.268c-.075-.04-.156-.063-.23-.103s-.152-.072-.224-.114a2 2 0 0 1-.243-.148l-.218-.17a.023.023 0 0 0-.033.033q.084.098.167.198a2 2 0 0 1 .158.234c.044.071.08.145.121.217.044.076.072.16.117.237a5 5 0 0 0 .272.417 2.6 2.6 0 0 0 .401.471.47.47 0 0 0 .313.13.443.443 0 0 0 .313-.756m16.805-.616a16 16 0 0 0-1.33-1.421 9 9 0 0 0-.797-.67 5 5 0 0 0-.396-.264.92.92 0 0 0-.543-.203.344.344 0 0 0-.336.336.5.5 0 0 0 .065.223c-.053-.01-.11-.02-.156-.032a37 37 0 0 0-4.325-.765c-2.99-.36-6.01-.439-9.017-.528a.562.562 0 0 0-.394.95l.428.396q-.274-.199-.549-.396c-.021-.016-.048.02-.028.037.553.464 1.117.919 1.661 1.394.543.473.985 1.054 1.478 1.577a2.3 2.3 0 0 0 1.034.611.66.66 0 0 0 .495.114 13.6 13.6 0 0 0 2.135.053c1.43-.009 2.853-.1 4.282-.137a29 29 0 0 1 2.2.028 13.6 13.6 0 0 1 2.418.206.547.547 0 0 0 .666-.666q.039.044.076.09a.66.66 0 0 0 .467.192.66.66 0 0 0 .466-1.126Zm2.897.66a5.6 5.6 0 0 0-.758-.91 2 2 0 0 0-.484-.33 1.7 1.7 0 0 1-.428-.35 4 4 0 0 1-.343-.403c-.108-.143-.17-.312-.272-.46a2 2 0 0 0-.502-.454 1.06 1.06 0 0 0-.617-.19.296.296 0 0 0-.283.371 1.2 1.2 0 0 0 .313.492 3 3 0 0 0 .213.164 2 2 0 0 0 .265.194c.159.083.337.113.496.197a1.9 1.9 0 0 1 .45.33 1.4 1.4 0 0 1 .32.407 4 4 0 0 0 .228.496c.191.312.41.603.612.908a.47.47 0 0 0 .626.164.46.46 0 0 0 .164-.626m1.311-.88c-.204-.25-.396-.508-.606-.754a5.5 5.5 0 0 0-.676-.655 2.3 2.3 0 0 0-.41-.281 2 2 0 0 0-.213-.089c-.08-.031-.162-.043-.24-.072-.114-.044-.165.108-.106.182.023.03.034.072.054.104.019.03.043.055.063.083.046.062.088.128.138.187a4 4 0 0 0 .329.335c.226.207.447.418.673.625a6 6 0 0 1 .626.641 1.1 1.1 0 0 1 .175.367.92.92 0 0 0 .347.496c.278.187.6-.121.534-.41-.085-.373-.467-.49-.687-.759m2.592-.131-.035-.065c.025.047-.005-.011-.01-.023a1 1 0 0 0-.088-.174 2 2 0 0 0-.226-.283 1.6 1.6 0 0 0-.517-.377 1.2 1.2 0 0 0-.306-.109c-.099-.015-.226-.058-.306.017l.052-.021h-.022a.063.063 0 0 0-.054.093l.013.017-.008-.056c-.016.098.055.158.107.233a2 2 0 0 0 .194.235c.126.14.25.28.386.411.065.063.124.132.19.193l.108.1c.024.02.07.046.094.072-.032-.033.005.015.014.026a3.4 3.4 0 0 0 .39.382.107.107 0 0 0 .18-.075 1.3 1.3 0 0 0-.156-.596m-48.379-8.272c-.092-.098-.164-.206-.25-.308a3 3 0 0 0-.612-.56 3 3 0 0 0-.71-.38 9 9 0 0 0-.369-.108c-.065-.018-.13-.022-.196-.035a1 1 0 0 1-.199-.072c-.11-.045-.156.118-.075.179a1 1 0 0 1 .157.135c.038.046.072.093.113.136l.27.278a4 4 0 0 0 .65.482 4 4 0 0 0 .69.34c.12.048.24.081.355.14a2 2 0 0 0 .333.16.075.075 0 0 0 .084-.109 1.5 1.5 0 0 0-.241-.278m2.004 1.398-.248-.141a.09.09 0 0 0-.132.101.1.1 0 0 0 .042.054l.263.114a.08.08 0 0 0 .057.008.074.074 0 0 0 .018-.136m15.704-2.87a11.8 11.8 0 0 0-3.482-.538q-1.723-.115-3.448-.175c-2.407-.084-4.755.174-7.152.306a.04.04 0 0 0 0 .078c2.38.001 4.773.277 7.152.378q1.725.072 3.448.2a14.6 14.6 0 0 0 3.482.06c.173-.028.13-.259 0-.309m63.164 3.945c-.037-.034-.092.02-.055.055a155 155 0 0 0 4.496 4.182c.037.033.092-.02.055-.055a155 155 0 0 0-4.496-4.182m-30.8-82.673.01.008.017.007-.01-.007Z"/><path fill="currentColor" d="m289.966 15.661-.185-.143a.9.9 0 0 0-.461-.125 1.3 1.3 0 0 0-.44.047c-.18.016-.361.032-.542.06a1.5 1.5 0 0 0-.252.047l-.103.038a.8.8 0 0 0-.178.104 1.2 1.2 0 0 0-.239.146 1 1 0 0 0-.134.107.61.61 0 0 0 0 .851 1.4 1.4 0 0 0 .304.204l-.124-.096a2 2 0 0 0 .14.104 1 1 0 0 0 .17.074l-.16-.067a1 1 0 0 0 .255.12l.104.03a3 3 0 0 0 .43.046c.143.01.287.007.43.007a1 1 0 0 0 .207.022 2.5 2.5 0 0 0 .375-.048.9.9 0 0 0 .546-.42.94.94 0 0 0 .109-.583.87.87 0 0 0-.252-.525"/><path fill="currentColor" d="m287.768 17.022-.023-.017-.003-.002Zm-.252-1.152c.018-.015.033-.022.05-.035a1 1 0 0 1 .09-.073Zm5.046.156a.56.56 0 0 0-.202-.202.4.4 0 0 0-.21-.066.58.58 0 0 0-.56.268.4.4 0 0 0-.066.21.58.58 0 0 0 .268.56c.01.006.02.006.03.012l.005.004.11.046a.5.5 0 0 0 .175 0l-.048.013a.4.4 0 0 0 .111-.013h.006l.045-.006.134-.056a.56.56 0 0 0 .202-.202l.057-.134a.57.57 0 0 0 0-.3Zm-97.59 9.733a.9.9 0 0 0-.232-.398l-.003-.002-.182-.141-.007-.004a.6.6 0 0 0-.118-.053 1 1 0 0 0-.116-.048l-.005-.001c-.022-.006-.213-.029-.235-.032a.87.87 0 0 0-.75.43.93.93 0 0 0-.128.465v.004l.032.237.001.008.002.01a.3.3 0 0 0 .046.108q.022.057.047.112a.9.9 0 0 0 .323.323l.216.091a.9.9 0 0 0 .48 0 1 1 0 0 0 .538-.414.7.7 0 0 0 .107-.335.7.7 0 0 0-.016-.36m-1.044-2.466a.43.43 0 0 0 0 .86.43.43 0 0 0 0-.86m-19.04 14.603a16.5 16.5 0 0 0-3.935-2.698c-1.442-.77-2.933-1.442-4.414-2.131-.1-.046-.186.097-.087.148 1.425.74 2.783 1.59 4.14 2.445a31.4 31.4 0 0 0 4.168 2.402c.103.044.22-.075.128-.166m-7.482-1.205a18 18 0 0 0-2.21-1.317l-2.28-1.197a.035.035 0 0 0-.036.061l2.2 1.334a18 18 0 0 0 2.27 1.214.055.055 0 0 0 .056-.095"/></svg>