<svg xmlns="http://www.w3.org/2000/svg" data-name="Layer 2" viewBox="0 0 110.81 73.18"><g data-name="Layer 1"><g data-name="Layer_1"><g fill="currentColor" data-name="2695723814208"><path d="M46.53 12.14c-.33.41-1.6 1.06-2.84 1.69-.82.42-1.62.83-2.07 1.12-1.14.74-2.33 1.76-2.34 1.77l-.51-.58s1.24-1.06 2.42-1.83c.5-.32 1.31-.74 2.14-1.16 1.17-.59 2.36-1.21 2.58-1.48.4-.49.85-2.82.85-2.83.28.79.32 2.6-.25 3.31Zm3.56 23.53s-.7-.23-1.41.08l-.31-.7c.99-.44 1.98-.11 1.98-.1l-.26.73Zm1.05-13.76s-1.1 2.46-1.1 4.08c-.7-1.63-.38-2.98 1.1-4.08m-7.96 42.01c.13-.66.15-1.39.07-2.03-.07-.61-.23-1.12-.45-1.36-.09-.1-.59-.13-1.2-.13-1.06 0-2.42.16-2.95.25-.36.06-.59.2-.73.39-.15.21-.22.49-.25.83s-.03.71 0 1.03c.03.35.09.63.16.78l-.5.22c-.09-.2-.16-.55-.2-.95-.03-.35-.04-.75 0-1.13.04-.43.14-.81.35-1.1.23-.31.57-.52 1.09-.61.54-.09 1.94-.25 3.04-.26.76 0 1.4.07 1.62.31.3.33.5.95.59 1.67.08.69.06 1.49-.08 2.2l-.54-.11Zm-.41-44.01s-.58 3.25-.21 5.56c.36 2.28 1.91 3.97 1.85 5.99-.19-.43-.44-.9-.71-1.4-.68-1.28-1.49-2.78-1.76-4.51-.3-1.86-.09-3.98.83-5.64m8.68 39.47s-.47 3.05-.02 4.58c-1.37-.95-.62-3.38.02-4.58m3.99 5.38c.62-1.75-.05-5.21-.72-6.61 1.73 1.07 1.88 5.16.72 6.61m23.68-19.92c-.47.47-2.45 3.01-3.01 4.78-.1.3-.19.6-.28.92-.53 1.77-1.03 3.52-2.55 4.67.91-1.14 1.52-3.16 2.02-4.82.1-.33.2-.65.28-.93.59-1.88 1.97-3.62 3.54-4.61ZM65.48 26.85s-.38 6.94 0 9.27c-1.38-1.66-1.09-7.52 0-9.27m17.91 14.99c-.28-2.68-1.66-5.26-1.67-5.27 1.19.97 2.68 3.88 1.67 5.27M55.23 15.43s-1.22 1.35-.97 3.16l-.55.12c-.19-1.33.21-2.76 1.51-3.27ZM42.49 37.39c-.04 1.31.21 2.58.63 3.66.46 1.16 1.11 2.1 1.8 2.61-1.13-.19-1.93-1.41-2.32-2.41a9.7 9.7 0 0 1-.66-3.88c.09-2.8-.28-5.6-.28-5.61.96 1.34.88 4.07.83 5.62Z"/><path d="m46.6 12.47-.37-.68c2.11-1.61 1.98-3.9 1.98-3.9.82 1.57-.35 3.62-1.61 4.58m17.99-1.09s-1.63-.16-2.51.12c-.8.25-1.55.71-2.31 1.07 0 0 1.13-1.28 2.14-1.6.99-.31 2.72-.14 2.73-.14zm-11.4 51c.08-2.37-.39-3.47-.39-3.48.83.78 1.16 2.58.39 3.48M32.51 10.1c.99.36 1.98.99 2.33 2.01-.89-.93-2.87-1.6-2.87-1.61l.55-.4Zm11.15-7.43s.05 1.04 1.15 2.48c-.9-.6-1.29-1.08-1.57-2.21zm4.02-.65c.56 1.17.22 2.65-.71 3.53.23-.55.41-1.11.47-1.67.06-.54 0-1.09-.26-1.62zm-1.99-.18c.37 1 .39 2.2-.17 3.1.27-1.48-.35-2.9-.35-2.91zM38.89.6c.33.88.41 1.64.08 2.5-.08-1.06-.59-2.28-.59-2.29zm-1.84.64s.14 1.16.66 1.83c-.58-.28-1.1-.93-1.15-1.61zm3.74-.72c.18.82.05 2.08-.34 2.84.16-.97-.2-2.72-.2-2.72zM26.32 12.61c.93.46 1.82 1.31 1.97 2.35-.61-1.04-2.21-1.86-2.22-1.86zm30.26 2.61s-1.68 1.99-1.36 4.49l-.59-.05c-.2-1.61.3-3.76 1.95-4.44m-8.55 6.81s-1.39 3.52-1.21 5.05l-.55.06c-.19-1.6.5-4.02 1.76-5.11m31.65 30.53c2.01 1.43 3.93 2.06 5.9 2.71 1.5.5 3.82 1.63 4.75 2.93-1.76-1.01-3.41-1.55-5.02-2.09-2.03-.67-4.01-1.33-6.13-2.83l.51-.72ZM28.97 22.79c-2.82 2.04-5.46 3.99-8.02 6.08-2.54 2.08-4.96 4.28-7.35 6.83-.69.74-1.84 1.83-3.16 2.97-1.08.93-2.28 1.89-3.45 2.72-1.2.85-2.5 1.8-3.63 2.64-1.26.94-2.32 1.75-2.81 2.14l-.56-.68c.48-.39 1.55-1.21 2.84-2.17 1.13-.84 2.43-1.79 3.64-2.65 1.14-.81 2.32-1.76 3.39-2.67 1.3-1.12 2.42-2.18 3.09-2.9 2.42-2.58 4.87-4.81 7.43-6.91 2.54-2.08 5.21-4.05 8.06-6.11l.52.72Z"/><path d="M39.72 14.97c.03.52-.2 1.16-.6 2.05-.5 1.13-1.21 2.39-1.75 3.23-.5.79-1.16 1.4-1.95 1.88-.77.47-1.66.82-2.66 1.09-.97.26-2.22.35-3.19.05-.37-.11-.7-.28-.97-.52a1.95 1.95 0 0 1-.6-.96c-.12-.46-.11-1.01.1-1.68.09-.27.28-.77.52-1.4.61-1.57 1.56-3.99 1.84-5.57.22-1.21.59-2.06 1.09-2.75.5-.68 1.11-1.19 1.81-1.71.67-.5 2.6-1.72 4.61-3 1.98-1.26 4.04-2.57 5.04-3.27 1.08-.76 2.13-1.04 3.2-.96 1.05.08 2.1.51 3.2 1.18l.9.55c2.27 1.41 6.02 3.73 9.9 5.39 2.25.96 4.08 1.83 5.49 2.64 1.45.84 2.46 1.63 3.05 2.43 1.13 1.55 2.41 3.44 3.77 5.45 3.69 5.45 7.99 11.82 11.41 14.43 1.35 1.03 2.56 1.84 3.72 2.62 1.94 1.3 3.76 2.52 5.83 4.48 1.65 1.55 3.94 3.46 6.27 5.26 2.3 1.78 4.65 3.45 6.47 4.57 3.62 2.23 4.6 2.49 4.6 2.49l-.24.85s-1.09-.3-4.82-2.59c-1.83-1.13-4.21-2.82-6.55-4.63-2.36-1.82-4.67-3.75-6.33-5.32-2.03-1.91-3.81-3.11-5.72-4.39-1.18-.79-2.41-1.61-3.76-2.65-3.53-2.69-7.88-9.13-11.6-14.64-1.36-2.02-2.64-3.91-3.75-5.42-.51-.7-1.44-1.42-2.78-2.19-1.38-.8-3.17-1.64-5.39-2.59-3.93-1.68-7.72-4.03-10.02-5.46l-.89-.55c-.99-.6-1.91-.99-2.8-1.05-.87-.06-1.73.17-2.63.81-.98.69-3.06 2.02-5.07 3.29-1.99 1.26-3.89 2.48-4.55 2.97-.64.47-1.19.92-1.62 1.51s-.75 1.33-.94 2.39c-.3 1.67-1.26 4.13-1.89 5.74-.24.61-.43 1.09-.5 1.34-.15.49-.17.88-.09 1.18.06.22.18.39.33.53.17.15.39.26.64.34.8.25 1.87.17 2.7-.06.92-.25 1.74-.57 2.43-1 .68-.41 1.24-.94 1.66-1.6.52-.81 1.21-2.03 1.69-3.11.35-.78.58-1.47.56-1.85-.05-.93-1.33-3.05-1.33-3.05 1.04.66 2.1 1.87 2.17 3.2Z"/><path d="M43.89 2.51s-2.2-1.45-3.45-1.59c-.65-.07-1.37-.03-2.03.11-.61.13-1.14.34-1.49.63-.59.48-2.29 2.23-4.05 4.05l-1.84 1.9c-1.13 1.15-2 2.17-2.7 3.07-.69.89-1.2 1.66-1.61 2.32-.3.49-.67 1.29-1.1 2.23-.74 1.61-1.67 3.65-2.86 5.43-.92 1.38-1.41 2.23-1.65 2.84-.2.53-.2.84-.11 1.18.08.31.44.67.88.95.44.27.94.44 1.33.39l.12.87c-.6.08-1.31-.15-1.91-.52-.63-.39-1.14-.95-1.28-1.48-.12-.5-.14-.96.15-1.71.26-.67.78-1.58 1.73-3.01 1.15-1.73 2.07-3.72 2.79-5.3.45-.98.83-1.81 1.15-2.33.42-.69.95-1.48 1.67-2.4.71-.91 1.61-1.95 2.77-3.14l1.84-1.9c1.78-1.84 3.49-3.6 4.13-4.12.46-.38 1.13-.65 1.86-.81.75-.16 1.57-.21 2.31-.12 1.46.17 3.83 1.73 3.84 1.74l-.49.74Zm18.54 26.44s-4.16-5.1-5.34-6.5c-1.09-1.3-2.19-2.32-3.03-3.1l-.24-.22c-.44-.41-.9-.73-1.37-1.06-.44-.31-.89-.62-1.35-1.02-.44-.39-.97-.79-1.51-1.22-1.41-1.09-2.95-2.29-3.75-3.65l.76-.44c.71 1.21 2.18 2.36 3.52 3.4.55.43 1.09.84 1.55 1.25.42.37.85.67 1.27.96.5.35.99.69 1.47 1.13l.24.22c.86.8 1.98 1.84 3.1 3.18 1.26 1.51 5.33 6.49 5.34 6.5l-.68.56Z"/><path d="M61.47 47.8s-.2-5.26.41-8.91c.3-1.8.5-4.07.57-6.18.07-2.09.02-4.03-.17-5.2-.39-2.35-1.47-4.81-1.47-4.81 2.58 3.54 2.68 5.76 2.53 10.03-.07 2.16-.28 4.47-.58 6.3-.59 3.57-.4 8.71-.4 8.73l-.88.04ZM46.14 20.22c-.14.78-.09 2.18.09 3.61.17 1.37.46 2.75.82 3.59.7 1.67 1.08 4.08 1.57 7.2l.16 1c.57 3.62.48 5.73.48 5.73l-.88-.03s.09-2.03-.47-5.57l-.16-1c-.48-3.06-.85-5.43-1.51-7-.76-1.8-1.27-5.78-.1-7.54Z"/><path d="M61.87 27.14s.76 4.56.76 5.91c0 .72-.64 1.9-1.46 3.05-.92 1.27-2.09 2.53-2.88 3.06l-.49-.73c.71-.47 1.79-1.65 2.65-2.84.73-1.02 1.3-2.02 1.3-2.54 0-1.29-.89-6.35-.89-6.36l1.02.45Z"/><path d="M46 39.61s1.4 1.02 2.29 1.1c2.23.2 4.43-.64 6.34-1.37 1.16-.45 2.22-.85 3.17-.98.9-.12 1.79 0 2.52.22 1.17.34 2.03 1.01 2.11 1.34l-.46.47c-.03-.12-1.02-.7-1.89-.96-.64-.19-1.39-.29-2.16-.19-.84.11-1.86.51-2.98.93-1.99.76-4.29 1.64-6.73 1.42-1.13-.1-2-1.01-2.21-1.98m3.84-7.43s1.8.81 2.65.81c1.14 0 5.2-.27 6.16-.63-1.04.98-4.74 1.51-6.16 1.51-1.04 0-3-.88-3-.89l.36-.81Z"/><path d="M47.93 32.42s1.24.24 2.4-1.42c1.29-1.84 2.02-3.67 2.02-3.68.21 2.27-1.88 6.34-4.55 5.97zm3.91 1.33s-.99.91-.99 1.47c0 .36.42 1.26.98 2.03.41.56 1.1 1.4 1.51 1.5-1.43.3-3.38-2.37-3.38-3.53 0-.95 1.27-2.11 1.27-2.11l.6.65Zm32.63 17.77s-3.74.98-5.68 2.25c-1.5.97-2.55 2.08-3.58 3.16-.31.33-.62.66-.96.99-.72.72-1.4 1.3-2.34 1.86-.93.55-2.1 1.09-3.83 1.75-1.3.5-2.81 1.01-4.25 1.49-2.24.76-4.32 1.45-5.2 1.98l-.08.05c-1.55.93-3.38 2.03-4.91 1.81-.7-.1-1.99-.54-3.36-1-1.5-.51-3.1-1.05-4.07-1.21-1.52-.24-4.52-.15-5.89-.11l-.66.02c-.39 0-1.25-.04-1.95-.22-.52-.14-.97-.36-1.15-.73-.2-.4-.52-1.58-.54-2.77-.02-.8.09-1.62.46-2.25.44-.78 1.11-1.52 1.98-2.16.8-.59 1.77-1.09 2.88-1.45 1.62-.52 4.07-.71 5.86-.86.72-.06 1.33-.11 1.72-.16 1.36-.19 3.7-1.07 3.71-1.08h.02s2.86-.99 5.42-2.57c2-1.23 2.79-2.1 3.46-2.84 1.9-2.1 3.02-4.82 3.55-7.59 1.02 4.46-2.97 8.98-6.55 11.18-2.64 1.63-5.59 2.64-5.6 2.65-.22.08-2.51.92-3.89 1.12-.42.06-1.05.11-1.78.17-1.76.14-4.16.33-5.67.82-1.02.32-1.9.78-2.62 1.32-.77.57-1.35 1.22-1.74 1.89-.27.48-.36 1.14-.34 1.8.02 1.05.29 2.07.45 2.4.05.1.29.19.58.27.6.16 1.38.19 1.73.19.16 0 .36 0 .63-.01 1.39-.04 4.45-.13 6.05.12 1.05.17 2.69.72 4.21 1.24 1.33.45 2.58.87 3.2.96 1.22.17 2.91-.84 4.34-1.69l.08-.05c.96-.58 3.08-1.29 5.37-2.06 1.41-.47 2.89-.97 4.22-1.48 1.68-.64 2.81-1.16 3.69-1.68.86-.51 1.49-1.05 2.17-1.73.32-.31.63-.64.94-.97 2.61-2.74 5-4.93 9.91-4.8Z"/><path d="M77.58 53.96s5.25 3.24 9.15 8.1a814 814 0 0 0 8.66 10.54l-.68.57s-4.8-5.74-8.67-10.56c-3.82-4.75-8.91-7.9-8.93-7.91l.46-.75Zm-58.52 2.22s2.62.88 4.44.78c.59-.03 1.2-.15 1.89-.28 1.43-.28 3.18-.62 5.98-.42 4.1.3 7.07.2 7.07.2l.02.88s-3.04.1-7.16-.2c-2.69-.2-4.37.13-5.75.4-.71.14-1.34.26-2.01.3-2.01.11-3.1-.47-4.49-1.66Zm22.55-5.51s-.3 3.19.96 4.18l-.6.53c-1.33-1-1.18-3.43-.36-4.7Z"/><path d="M7.66 71.74s8.05-8.95 10.44-11.34c2.47-2.47 4.92-3.41 4.92-3.41l.32.82s-2.27.87-4.61 3.21C16.31 63.44 8.35 72.3 8.32 72.33zm9.24-14.61s-4.09 2.68-8.36 7.47c1.39-2.5 5.4-7.7 8.36-7.47m-2.61-16.19c-1.12 1.2-3.1 2.46-4.61 3.1 1.4-1.02 2.86-2.35 4-3.59 1.15-1.23 2.46-3.31 3.41-5.22-.18 1.77-1.6 4.41-2.81 5.71Z"/></g></g></g></svg>