<svg xmlns="http://www.w3.org/2000/svg" data-name="Layer 2" viewBox="0 0 93.73 68.27"><g data-name="Layer 1"><g data-name="Layer_1"><g fill="currentColor" data-name="2659555166496"><path d="M2.07 57.59s5.33-1.14 7.66-1.97c.8-.29 2.58-1.3 4.6-2.52 2.95-1.79 6.38-4 8.03-5.07 1.71-1.11 3.36-1.44 5.54-.96 1.82.4 3.57 1.36 4.88 2.47 2.07 1.75 2.04 2.84 1.9 3.39-.2.74-.59 1.37-1 2.1-1.44 2.53-8.39 12.41-10.86 13.26 3.96-4.63 8.26-9.81 11.04-15.26l.08-.2c.12-.35.53-1.13-1.51-2.85-1.25-1.05-2.91-1.96-4.64-2.34-1.6-.35-3.1-.17-4.43.7-1.31.86-5.28 3.44-8.6 5.45-2.06 1.24-3.89 2.28-4.75 2.59-1.99.72-5.81 1.81-7.93 1.22Z"/><path d="M33.44 54.59c.56-.11 1.07-.29 1.44-.6.3-.24.52-.57.59-1 .07-.42.06-.85-.03-1.27-.26-1.25-1.19-2.48-2.47-3.48a10.8 10.8 0 0 0-4.64-2.07c-1.04-.18-2.09-.2-3.09.01-.54.11-.99.29-1.33.58s-.59.69-.75 1.26l-.55-.15c.19-.68.5-1.18.93-1.54.42-.36.95-.57 1.58-.71 1.07-.22 2.2-.21 3.3-.02 1.79.32 3.53 1.12 4.9 2.18 1.38 1.07 2.38 2.42 2.68 3.81.1.49.12.99.03 1.48-.1.58-.39 1.02-.8 1.35-.45.37-1.05.59-1.69.71l-.11-.56Z"/><path d="M24.88 45.86s1.05-3.07 1.05-4.53c0-.89-.21-3.28-.4-5.39-.14-1.52-.26-2.9-.28-3.47-.03-.66.08-1.08.2-1.53.13-.5.28-1.06.22-2.14v-.14c-.11-2.02-.21-3.88.06-5.01.28-1.18 1.69-1.74 3.27-2.37l.54-.22c.87-.35 1.58-.56 2.17-.62.64-.07 1.15.03 1.59.28.7.4 1.27.61 1.27.61l-.31.73s-.59-.21-1.35-.65c-.29-.17-.65-.23-1.11-.18-.51.05-1.15.24-1.95.57l-.55.22c-1.37.54-2.6 1.03-2.79 1.81-.24 1.02-.15 2.82-.05 4.79v.14c.07 1.2-.09 1.82-.24 2.38-.1.39-.2.76-.18 1.31.02.56.14 1.93.28 3.43.19 2.14.41 4.57.41 5.46 0 1.58-1.1 4.78-1.1 4.79l-.75-.26Z"/><path d="M30.04 28.94s-.05-3.96.12-4.53c.23-.77.77-1.01 1.42-1.23 0 0-.52.99-.66 1.46-.14.48-.09 4.09-.09 4.11l-.8.2Z"/><path d="M30.7 24.01s1.08 0 1.53-.18l.3.74c-.6.24-1.83.24-1.83.24z"/><path d="M29.4 29.55s.8-.92 1.19-1.83l.15-.35c.46-1.1 1.26-3 1.59-3.71.19-.4.34-.72.5-.98.18-.28.36-.5.62-.69.26-.2 1.06-.68 1.91-1.11.58-.29 1.19-.56 1.69-.69.69-.19 1.31-.05 1.83.21.5.25.9.6 1.18.89.55.55.93 1.15.94 1.15l-.65.46s-.35-.55-.85-1.05c-.24-.24-.58-.54-.97-.74-.37-.18-.8-.28-1.27-.16-.44.12-1 .37-1.55.64-.81.4-1.55.85-1.79 1.03-.17.12-.29.27-.42.48-.14.22-.28.51-.46.9-.33.7-1.12 2.58-1.58 3.68l-.15.35c-.44 1.05-1.19 1.39-1.92 1.52Z"/><path d="M34.6 30.81s1.22-3.96 1.55-4.95c.29-.88.51-1.4.54-2.33.6 1.04.66 1.24.22 2.58-.3.9-1.36 4.19-1.36 4.2z"/><path d="M36.64 25.04s2.39-.9 3.16-1.62l.24.66c-.89.83-3.09 1.69-3.09 1.69l-.3-.74Z"/><path d="M36.67 28.55c.44-.65.96-1.64 1.45-2.58.48-.92.93-1.78 1.28-2.26.36-.5.67-.86.99-1.13.34-.29.68-.46 1.09-.55.44-.1.96-.09 1.44.03.32.08.63.22.87.41.27.21.47.48.54.83.05.22.05.47-.02.73-.12.45-.33 1-.59 1.64-.15.37-.3.76-.42 1.09-.53 1.42-1.59 3.33-2.22 4.46-.19.35-.34.62-.42.78-.27.55-.27 1.45-.27 1.45l-.76.12s-.04-1.21.32-1.92c.07-.14.23-.44.44-.81.62-1.11 1.66-2.99 2.17-4.35.17-.45.3-.79.43-1.11.24-.62.45-1.14.56-1.54.04-.14.04-.26.01-.36-.03-.15-.13-.27-.26-.37a1.5 1.5 0 0 0-.58-.26c-.36-.09-.75-.1-1.07-.03-.28.06-.52.18-.75.38-.26.22-.53.54-.85.99-.32.44-.76 1.28-1.22 2.17-.5.95-1.03 1.96-1.5 2.66-1.08 1.6-2.11 1.74-2.96 1.97.58-.72 1.43-1.14 2.3-2.41Z"/><path d="M39.13 33.71c.6-.18 2.45-1.68 3.11-2.29.53-.49 1.56-2.01 2.21-2.98l.36-.52c.29-.42.52-.97.75-1.53.21-.5.42-1.01.7-1.49.13-.23.3-.41.48-.53.26-.17.55-.24.84-.22.27.02.54.11.79.26.32.19.62.47.83.78.51.77.15 2.42-.14 3.68-.07.3-.13.58-.17.81-.16.91-.87 1.87-1.53 2.78-.26.35-.5.69-.73 1.04-.55.86-1.54 2.02-2.18 2.77-.23.27-.42.49-.52.62-.33.44-.53.69-.98 2.23l-.33 1.15c-.56 2.02-1.45 5.19-2.07 6.38-.35.68-1.07 1.59-1.87 2.49-.94 1.05-2.03 2.1-2.81 2.74l-.5-.62c.75-.61 1.8-1.63 2.72-2.65.77-.85 1.44-1.71 1.76-2.32.58-1.12 1.45-4.23 2.01-6.22.12-.45.23-.83.33-1.16.49-1.69.72-1.99 1.11-2.49.1-.13.3-.37.55-.66.63-.74 1.59-1.87 2.11-2.68.21-.33.48-.7.76-1.08.62-.84 1.26-1.73 1.39-2.45.04-.24.11-.53.18-.84.25-1.12.57-2.58.25-3.07-.14-.21-.34-.4-.56-.53-.15-.09-.3-.14-.44-.15-.12 0-.24.02-.34.08-.08.05-.16.14-.23.26-.25.43-.46.92-.65 1.4-.25.6-.49 1.18-.83 1.67l-.35.52c-.68 1-1.73 2.57-2.33 3.12-.78.72-2.21 2.08-3.65 1.7ZM6.99 27.89s2.5 2.2 7.29 3.85c1.27.44 2.3.78 3.15 1.06 2.42.8 3.45 1.14 4.88 2.01.87.53 1.6.9 2.19 1.14.62.25 1.08.34 1.39.32l.06.8c-.41.03-.99-.08-1.74-.38-.64-.25-1.41-.64-2.31-1.2-1.34-.82-2.35-1.15-4.71-1.93-.85-.28-1.87-.62-3.16-1.06-4.93-1.7-7.54-3.99-7.55-3.99L7 27.9Z"/><path d="M0 24.68s2.52 2.13 4.28 2.88c1.02.44 1.77.6 2.21.66-.04-.31-.05-.71.08-1.06 1.41-3.87 7.21-9.43 10.78-12.85l.95-.92c.82-1.06-1.97-1.76-1.98-1.76l-.2-.05-.08-.19s-.39-.91-1.84-2.52c-.97-.92-1.67-1.5-2.37-1.92s-1.41-.68-2.42-.96c-1.02-.28-4.05-.94-4.33-1.9 1.3.57 3.11.74 4.54 1.13 1.08.3 1.85.58 2.62 1.04.76.46 1.5 1.07 2.51 2.03l.02.02c1.17 1.29 1.71 2.21 1.91 2.59.76.22 3.65 1.21 2.21 3-.22.28-.73.71-1.01.98-3.52 3.37-9.24 8.86-10.58 12.55-.16.44.06 1.11.06 1.11l.14.47-.5.04s-1.14.06-3.06-.76C2.03 27.47.92 26.4-.03 24.68Z"/><path d="M9.67 6.01S8.39 4.32 6.86 3.04C5.56 1.96 4.15.99 2.77 0c1.11-.07 3.82 1.77 4.61 2.43 1.6 1.34 2.93 3.09 2.93 3.09l-.63.49Zm2.92 8.13c-2.2 2.01-4.06 4.28-5.52 6.24-1.46 1.95-2.67 4.1-3.87 6.87l-.73-.32c1.22-2.83 2.37-4.73 3.87-6.74 1.14-1.52 4.57-5.36 6.25-6.05m4.02-2.68s-1.87.93-2.22 1.36c.43-.9.88-1.44 1.88-1.84l.34.47Zm2.08 2.19s2.02 1.43 4.23 3.65c.96.96 1.83 1.78 2.57 2.45.97.88 1.98 1.73 2.51 2.15l-.7.44c-.53-.41-1.33-1.08-2.35-2-.78-.71-1.66-1.54-2.6-2.48-2.18-2.18-4.13-3.56-4.13-3.56zm7.89 9.17-.24.6c-1.63-.1-2.81.68-2.82.69.62-1.04 1.9-1.36 3.06-1.29m17.47.06s3.02.47 6.04.76c2.5.23 11.12-.02 16.11-.17l2.52-.07.02.8-2.52.07c-5.01.15-13.66.4-16.21.16-3.05-.29-6.08-.76-6.09-.76l.12-.79Zm-.94 14.46s4.98.23 9.3-.56c1.98-.37 4.14-.7 6.15-.98 2.42-.34 4.65-.6 6.12-.73 2.62-.23 5.32-.52 5.32-.52l.09.79s-2.66.28-5.34.52c-1.44.13-3.65.39-6.08.72-2.01.28-4.15.61-6.12.98-4.41.81-9.46.58-9.47.58z"/><path d="M68.4 23.47c.28.04.54.15.78.31.87.57 1.53 1.85 1.9 3.41.36 1.52.45 3.32.2 4.97-.18 1.19-.55 2.3-1.12 3.18-.17.27-.35.46-.54.58-.2.14-.41.21-.61.21s-.4-.07-.57-.18-.32-.27-.46-.46l.47-.32c.09.13.19.24.3.31.08.05.17.09.26.09s.19-.03.29-.1c.12-.09.25-.22.38-.42.52-.8.86-1.84 1.03-2.95.24-1.57.16-3.3-.19-4.75-.34-1.42-.91-2.58-1.66-3.06-.18-.11-.36-.19-.55-.22l.08-.56Z"/><path d="M66.92 35.13s.45 1.39 1.75 1.72c.5.12.93.06 1.3-.11.39-.18.72-.49 1-.85.9-1.14 1.35-3.18 1.4-5.29.06-2.27-.33-4.62-1.12-6.03-.36-.65-.78-1.18-1.22-1.53-.33-.26-.67-.42-.99-.44-.31-.02-.61.09-.9.35-.25.23-.49.57-.7 1.04l-.52-.23q.375-.81.84-1.23c.41-.37.86-.52 1.31-.49.44.03.89.23 1.31.56.49.39.96.98 1.36 1.7.83 1.5 1.25 3.95 1.19 6.32-.06 2.22-.55 4.38-1.52 5.63-.33.42-.73.79-1.2 1.01-.49.23-1.05.31-1.69.15-1.61-.4-2.15-2.09-2.16-2.1l.54-.17ZM34.87 18.86c1.68-.99 4.39-1.7 5.25.81-.98-.76-1.74-1.07-2.48-1.03-.76.04-1.56.43-2.61 1.06l-.25.15-.22-.2c-.75-.68-1.37-.99-2.01-1.03-.66-.04-1.37.21-2.28.63 1.47-1.69 2.9-1.83 4.61-.39Z"/><path d="M70.97 23.3s2.87.01 3.55-.16c.3-.07.98-.5 1.8-1.03.91-.58 1.99-1.26 3.01-1.74 1.01-.47 1.79-.74 2.47-.87.7-.13 1.29-.11 1.88-.01.69.12 1.33.2 1.83.26.34.04.87.1 1.02.13l-.37.77c-.19-.03-.44-.06-.75-.1-.53-.07-1.21-.15-1.86-.26-.51-.08-1.01-.1-1.6 0-.61.11-1.34.36-2.28.81-.98.46-2.04 1.13-2.93 1.69-.88.56-1.61 1.02-2.04 1.13-.79.2-3.73.18-3.74.18v-.8Z"/><path d="M83.08 20.73s1.8-.46 2.99-.75c.65-.16 1.59-.2 2.51-.13.9.06 1.8.23 2.41.48.54.23.99.61 1.32 1.01.47.56.74 1.19.79 1.55.04.3-.06.6-.17.93s-.23.7-.12.95c.06.13.14.3.23.47.33.65.72 1.44.69 2.17-.03.62-.4 1.12-.71 1.53-.15.2-.27.37-.3.46-.03.13.05.51.14.91.1.47.21.96.17 1.32-.06.48-.5.94-.91 1.37-.23.24-.45.48-.53.63-.07.14-.09.41-.11.7-.04.51-.08 1.1-.4 1.68-1.04 1.88-7.31 1.72-9.27 1.67h-.22c-1.55-.04-2.96-.76-3.94-1.25l-.23-.12c-.52-.26-1.15-.54-1.77-.72-.46-.14-.92-.22-1.31-.2-1.03.05-2.38-.03-2.39-.03l.05-.8s1.32.08 2.3.03c.48-.02 1.03.07 1.57.23.67.2 1.35.49 1.91.77l.24.12c.92.47 2.24 1.13 3.6 1.16h.22c1.85.05 7.75.2 8.56-1.25.23-.42.27-.92.3-1.34.03-.38.05-.72.2-1.01.13-.27.39-.54.66-.83.32-.34.67-.7.69-.92.03-.23-.06-.65-.15-1.05-.11-.49-.21-.96-.13-1.27.06-.25.23-.48.43-.74.24-.33.53-.72.55-1.09.02-.52-.32-1.21-.6-1.78-.09-.18-.17-.35-.25-.51-.24-.53-.06-1.05.09-1.52.08-.23.15-.45.13-.57-.03-.24-.24-.71-.61-1.15-.27-.32-.61-.61-1.02-.79-.53-.22-1.33-.37-2.15-.42-.85-.06-1.7-.03-2.27.11-1.48.36-2.4.15-3.17-.03Z"/><path d="M88.43 34.55s.19-.35.24-.79c.04-.38-.23-1.07-.23-1.07.97.3 1.03 1.3 0 1.86Zm.48-3.97s.43-.71.51-1.02c.07-.3-.09-.58-.12-.87.32.1.76.47.67.87-.12.51-.61.84-1.05 1.02Zm.94-3.35c.52-.69.45-1.23.22-1.97.84.41.98 1.86-.22 1.97m.25-4.13c.38-.76.31-1 .01-1.51 1.05.17.76 1.3-.01 1.51m-61.41-8.69.89-.06c.02.14.06.26.12.33q.15.18.42.18c.13 0 .24-.03.31-.09s.11-.14.11-.22-.03-.15-.1-.21q-.105-.09-.48-.18c-.41-.09-.71-.22-.88-.37a.74.74 0 0 1-.27-.59c0-.16.05-.3.14-.44s.23-.25.41-.33q.27-.12.75-.12c.39 0 .69.07.89.22.2.14.33.38.36.69l-.88.05q-.03-.21-.15-.3a.5.5 0 0 0-.31-.09c-.11 0-.19.02-.25.07s-.08.1-.08.17c0 .05.02.09.07.13.04.04.15.08.31.11.41.09.71.18.88.27.18.09.31.2.39.34q.12.195.12.45c0 .19-.05.37-.16.54-.11.16-.26.29-.45.38s-.44.13-.73.13c-.52 0-.88-.1-1.07-.3-.2-.2-.31-.45-.34-.76Zm19.53-2.04h2.52v.65h-1.57v.48h1.46v.62h-1.46v.6h1.62v.69h-2.56v-3.04Zm-3.14 0h2.66v.61l-1.71 1.78h1.77v.65h-2.89v-.63l1.69-1.76h-1.52zm-3 0h2.52v.65h-1.57v.48h1.46v.62h-1.46v.6h1.62v.69h-2.56v-3.04Zm-3.07 0h2.52v.65h-1.57v.48h1.46v.62h-1.46v.6h1.62v.69h-2.56v-3.04Zm-1.56 0h.94v1.81c0 .18-.03.35-.08.51-.06.16-.14.3-.26.42s-.25.2-.38.25c-.18.07-.4.1-.66.1q-.225 0-.48-.03c-.18-.02-.32-.06-.44-.12a1 1 0 0 1-.32-.26 1 1 0 0 1-.2-.35 1.8 1.8 0 0 1-.09-.51v-1.81h.94v1.86c0 .17.05.3.14.39s.22.14.38.14.29-.05.38-.14a.53.53 0 0 0 .14-.39v-1.86Zm-2.82 2.6c.12.08.19.13.23.15.05.03.13.07.22.11l-.26.53c-.13-.06-.26-.14-.39-.23s-.22-.15-.27-.2c-.21.09-.47.14-.78.14-.46 0-.83-.12-1.09-.36-.32-.28-.47-.69-.47-1.2s.14-.89.41-1.17c.28-.28.66-.42 1.16-.42s.89.14 1.17.41.41.66.41 1.16q0 .675-.33 1.08Zm-.72-.48c.08-.13.11-.33.11-.6 0-.31-.06-.53-.17-.66a.59.59 0 0 0-.47-.2c-.19 0-.34.07-.46.2s-.17.34-.17.63c0 .33.06.57.17.7s.27.2.47.2c.06 0 .12 0 .18-.02-.08-.08-.2-.15-.38-.22l.15-.34c.08.02.15.03.2.06.05.02.14.08.27.17.03.02.07.04.1.07Z"/></g></g></g></svg>