<svg xmlns="http://www.w3.org/2000/svg" data-name="Layer 2" viewBox="0 0 91.34 47.87"><g data-name="Layer 1"><g data-name="Layer_1"><g fill="currentColor" data-name="2659553827904"><path d="M3.66 31.54s6.71-1.02 10.92-2.84l.48.68C10.76 31.23 3.8 32.3 3.78 32.3z"/><path d="M4.22 47.26s7.88-6.12 9.16-6.79c.94-.5 2.13-.92 2.69-1.1.45-.15.43-.09.53-.82.05-.4.07-.82 0-1.82a33 33 0 0 0-.57-3.87c-.34-1.66-.71-3-.87-3.29-.17-.31-.43-.2-.43-.2l-.1-.32-.52-.02c.02-.43.15-.76.36-.99.17-.19.38-.3.61-.34s.47-.01.71.09c.37.16.74.49 1.03 1.02.6 1.1 1.22 3.96 1.48 6.66.22 2.3.19 4.51-.33 5.46-.13.24-.29.4-.46.5-.23.13-.47.15-.71.09-.22-.06-.42-.19-.6-.37a2.3 2.3 0 0 1-.54-.83c-.57.21-1.29.5-1.91.82-1.22.65-9.03 6.7-9.05 6.72l-.47-.61Zm11.95-7.12c.09.24.23.46.4.62.12.11.24.2.37.23.1.03.2.02.29-.03s.17-.14.25-.29c.46-.85.48-2.94.27-5.15-.25-2.63-.84-5.4-1.42-6.44-.23-.41-.5-.67-.76-.78-.14-.06-.28-.08-.4-.06-.11.02-.22.08-.3.17a.9.9 0 0 0-.19.4c.21-.04.65-.05.95.49.18.32.58 1.73.93 3.45.25 1.24.48 2.66.58 3.93.14 1.83-.09 2.67-.32 3.04-.2.33-.29.29-.65.41Z"/><path d="M16.39 28.2s1.64-.61 2.91-1.69c.72-.61 1.81-1.39 2.98-2.12 1.01-.63 2.09-1.21 3.03-1.61 1.72-.71 3.49-.67 4.92-.63.27 0 .52.01.84.01 1.49 0 3.66-.29 5.11-.48.75-.1 1.43-.15 2.03-.18.63-.03 1.13-.03 1.53-.03.51 0 .87.33 1.11.79.29.55.4 1.3.4 1.74s-.36.93-.85 1.36c-.53.46-1.22.87-1.72 1.02-.79.23-2.96.54-4.11.7l-.29.04c-.93.13-1.93.86-1.93.86l-.45-.63s1.15-.84 2.27-1l.29-.04c1.14-.16 3.27-.46 4-.68.4-.12.98-.46 1.43-.86.34-.29.58-.59.58-.77 0-.36-.09-.96-.31-1.39-.11-.22-.26-.38-.42-.38-.43 0-.95 0-1.5.02-.58.02-1.24.07-1.95.17h-.01c-1.48.2-3.69.49-5.22.49-.22 0-.53 0-.86-.02-1.36-.04-3.03-.08-4.61.57-.91.38-1.95.94-2.92 1.55-1.13.7-2.18 1.46-2.88 2.05-1.37 1.17-3.14 1.83-3.15 1.83l-.26-.73Z"/><path d="M31.45 26.48c0 1.06 2.87 2.63 3.6 3.07 1.1.67 2.24 1.33 2.88 1.64.87.42 1.72 1.08 2.54 1.71.55.42 1.08.83 1.59 1.14.49.3.98.52 1.44.69.68.25 1.28.38 1.61.43.14.02.25.09.33.18.15.18.16.41.06.68-.06.16-.17.35-.31.55-.45.64-1.3 1.46-1.91 1.72-.46.19-.99.21-1.5.13-.69-.1-1.38-.37-1.84-.58l-.37-.18c-.73-.35-1.69-.86-2.67-1.01-.73-.12-1.9-.54-1.91-1.39 0 0 .79.44 1.94.62 1.09.18 2.2.71 2.97 1.08l.36.17c.4.19 1.01.42 1.62.51.4.06.79.05 1.1-.08.48-.2 1.18-.89 1.57-1.45.06-.09.12-.17.16-.25-.38-.08-.9-.21-1.48-.42-.5-.18-1.04-.43-1.58-.76-.53-.33-1.09-.75-1.65-1.19-.79-.61-1.61-1.24-2.41-1.62-.66-.32-1.83-1-2.94-1.68-1.52-.93-3.6-1.8-3.2-3.73Z"/><path d="M40.82 37.95s-.87.67-1.72.93c-.4.12-1.08.14-1.77.09-.83-.05-1.71-.2-2.17-.34-.76-.24-3.71-.45-3.57-1.38.72.47 3.37.5 3.8.64.41.13 1.21.25 1.99.31.61.04 1.19.03 1.49-.06.71-.22 1.5-.82 1.5-.82z"/><path d="M35.33 38.66c-1.24 1.1-1.53 1.13-2.83 1.23l-.42.03c-.47.04-2.89-.27-3.24-.23 1.14-.78 1.85-.42 3.17-.53l.42-.04c1.09-.09 1.34-.11 2.38-1.04l.51.58Z"/><path d="M31.85 39.8s-1.92.99-2.7 1.15c-.4.08-1.09.07-2.03-.01-.9-.08-2.08-.23-3.51-.42-1.02-.14-1.94-.29-2.72-.41-1.35-.22-2.31-.37-2.69-.32l-.11-.77c.49-.07 1.5.09 2.92.32.78.13 1.69.27 2.7.41 1.4.19 2.56.34 3.48.42.87.08 1.49.09 1.81.02.68-.14 1.94-.79 1.95-.79l.91.4Zm5.69-17.67s-.05 1.09.19 1.79c.05.17.12.27.19.32.06.05.14.06.24.06.34 0 .77-.05 1.2-.14.51-.11 1.03-.26 1.42-.4l.15.41c-.4.15-.94.31-1.49.42-.45.09-.91.15-1.29.15-.19 0-.36-.04-.51-.16-.14-.11-.25-.27-.33-.53-.26-.77-.21-1.95-.21-1.95zm-10.29 1.32c-.17.7 1.37 2.37 1.98 2.64-1.05.2-2.28-1.54-1.98-2.64m2.56-1.13c.63.49 1.06 1.54.63 2.27.04-1.07-.9-1.92-.9-1.92zm11.5 14.78c.84-.63 1.06-1.46 1.06-1.46.38.72-.48 1.27-1.06 1.46m.46-1.07c-.67.58-.71.59-1.09 1.43-.33-.49.33-1.56 1.09-1.43m-15.25 2.46c-1.58-.36-4.03-.63-4.04-.63.74-.06 3.93-.3 4.04.63m1.93-1.56c-.85-.36-2.51-.76-2.52-.76.8-.15 1.83 0 2.69.36.84.35 1.55.49 1.55.49-.47.42-1.18.15-1.73-.08Zm2.02-2.23c-.42-.3-.87-.62-1.61-.92 1.15-.06 1.93.77 2.91 1.19.87.37 1.15.23 1.15.23-.61.54-1.79-.02-2.45-.5M6.52 25.95s4.82 2.76 6.85 3.35l-.53.6c-2.12-.62-6.69-3.27-6.7-3.28z"/><path d="M12.28 3.64c2.49 1.68 3.91 2.65 5.71 6.06.34.22.75.67 1.11 1.16.45.61.86 1.33 1 1.77l.18.57-.59-.07s-.57-.07-3.05 1.34c-1.3.73-2.66 1.74-3.96 2.91a25.7 25.7 0 0 0-3.44 3.78c-2.02 2.73-2.35 5.39-2.35 5.4v.1l-.07.08s-.34.48-1.47.37c-1.29-.12-1.83-.64-2.65-1.43-.38-.13-1.79-.66-2.69-1.86l.62-.46c.89 1.19 2.38 1.61 2.38 1.61l.09.03.11.11c.71.69 1.18 1.15 2.21 1.25.46.04.65 0 .73-.03.1-.62.62-3.1 2.47-5.61a27 27 0 0 1 3.55-3.89c1.34-1.21 2.75-2.24 4.1-3.01 1.5-.85 2.41-1.2 2.93-1.34-.17-.34-.43-.76-.71-1.14-.34-.47-.7-.87-.95-1l-.11-.06-.06-.11c-1.73-3.32-3.1-4.25-5.51-5.87C9.81 2.9 7.84 1.44 5.85 0c2.78 1.06 4.07 2.05 6.43 3.64"/><path d="M17.7 10.35c-3.16.43-7.09 3.59-9.72 6.3 1.52-2.96 6.3-6.61 9.62-7.07zM2.56 25.3c.36-2.09 1.39-4.93 3.12-6.24-1.68 1.99-2.36 6.36-2.36 6.37zm17.42-12.79s1.7 2.37 2.99 3.84c1.04 1.18 1.8 1.89 2.06 2.12 1.18.04 9.77.35 15.5 1.53 5.07 1.04 9.92 1.57 14.79 1.75s9.77 0 14.94-.36l.05.77c-5.18.36-10.1.54-15.02.36-4.91-.18-9.81-.71-14.92-1.76-6.09-1.25-15.48-1.52-15.5-1.52h-.13l-.1-.09s-.93-.79-2.25-2.29-3.03-3.89-3.04-3.9zm24.88 22.61c4.3-.12 10.91-1.1 16.68-1.97 3.1-.46 5.96-.89 8.12-1.13l.08.77c-2.13.24-5 .67-8.1 1.13-5.79.87-12.41 1.86-16.78 1.98l-.02-.77Z"/><path d="M70.12 21.96c-.02-.52.22-1.06.51-1.35.12-.12.26-.2.4-.22.17-.03.33 0 .48.13.22.18.39.58.43 1.3.04.62 0 2.47-.07 4.53-.09 2.57-.23 5.48-.32 6.75-.11 1.5-.51 1.47-1 1.44h-.02c-.29-.02-.56-.17-.74-.49-.13-.23-.2-.57-.19-1.02.07-1.99.14-3.82.22-5.62.08-1.81.18-3.59.29-5.45Zm.89-.95c-.2.19-.36.58-.34.95v.03c-.11 1.88-.21 3.66-.29 5.45-.08 1.81-.15 3.64-.22 5.61-.01.35.04.59.12.74.07.14.18.19.29.2h.02c.19.01.34.03.41-.92.09-1.29.23-4.18.32-6.73.07-2.05.11-3.87.07-4.48-.03-.55-.13-.82-.24-.91h-.02c-.03 0-.07.04-.12.08Z"/><path d="M71.58 21.33c.07 0 .78-.78 1.54-1.62.26-.29.53-.58.81-.88.6-.64 1.18-1.5 1.7-2.26.38-.56.73-1.08 1.03-1.42.41-.47 1.01-.75 1.7-.91.65-.15 1.38-.21 2.12-.25.82-.04 1.26-.12 1.67-.19.31-.06.6-.11.99-.14.5-.04.99.09 1.42.3.49.25.91.61 1.16.98l.46.68c.21.32.41.61.59.86l-.63.45a28 28 0 0 1-.61-.88l-.45-.67c-.18-.27-.5-.54-.87-.73a1.9 1.9 0 0 0-1.01-.22c-.37.03-.63.08-.91.13-.43.08-.91.16-1.77.21-.69.04-1.39.09-1.98.23-.55.13-1.01.33-1.3.66-.28.32-.61.81-.98 1.35-.53.78-1.14 1.67-1.78 2.35-.24.26-.52.57-.8.87-.88.97-1.7 1.88-2.11 1.88v-.77Z"/><path d="M80.51 16.84s1.17.17 2.52-.21c1.49-.42 2.96-.31 4.43-.12.8.1 1.3.34 1.63.6.35.29.5.61.59.85.13.35.09.57.05.91-.02.15-.05.32-.06.53-.01.25.1.32.31.45.14.09.31.19.49.32.37.28.61.71.73 1.13.13.48.09.98-.12 1.32-.11.17-.23.31-.35.45-.2.22-.39.45-.43.84-.02.26.15.41.34.57.21.18.43.37.58.69.2.42.17.85-.01 1.27-.15.37-.42.74-.74 1.12l-.27.31c-.38.44-.66.75-.6 1.13.06.35.13.8.05 1.3-.08.52-.32 1.06-.9 1.56-.93.8-1.66.92-2.2 1l-.23.04c-.3.06-1.58.21-3.05.35-1.08.1-2.27.2-3.21.24-1.53.07-2.67-.26-3.65-.54-.47-.14-.9-.26-1.3-.31-1.22-.16-3.63-.13-3.63-.13v-.77s2.43-.04 3.74.14c.45.06.91.19 1.41.34.92.27 2 .58 3.4.51.94-.04 2.11-.14 3.18-.24 1.43-.13 2.68-.28 2.97-.34l.26-.04c.45-.07 1.06-.17 1.82-.82.41-.36.58-.74.64-1.09.06-.38 0-.76-.05-1.06-.12-.74.25-1.16.78-1.76l.26-.3c.27-.32.49-.63.61-.92.1-.23.12-.45.03-.65-.08-.17-.24-.31-.38-.43-.35-.3-.66-.57-.6-1.23.06-.65.34-.97.62-1.28.1-.11.19-.22.27-.35.1-.16.11-.43.03-.71-.07-.27-.22-.54-.45-.71-.16-.12-.3-.21-.42-.28-.47-.28-.72-.44-.68-1.15.01-.26.04-.44.07-.6.03-.22.05-.36 0-.53-.06-.15-.15-.35-.35-.52-.23-.19-.61-.36-1.24-.44-1.38-.18-1.78-.46-3.51-.23-1.48.16-2.48.53-3.34-.21Z"/><path d="M84.94 29.93c-2.79-.53-7.9-.52-7.92-.52 1.59-.58 6.82-.36 7.92.52m3.22-11.13c-.33.59-1.19.81-1.81.9-.49.07-1.25.13-1.56.24 1.05-.81 2.4-.51 3.37-1.14m.32 8.39c-.58-.15-1.63-.12-1.63-.12.48-.42 1.31-.5 1.63.12m.46-4.1c-.43 0-1.79.34-1.79.34.23-.53 1.47-.93 1.79-.34"/></g></g></g></svg>