<svg xmlns="http://www.w3.org/2000/svg" data-name="Layer 2" viewBox="0 0 93.16 67.69"><g data-name="Layer 1"><g data-name="Layer_1"><g fill="currentColor" data-name="2659555174944"><path d="M33.34 54.32h.01c.53-.1.93-.36 1.2-.72.28-.37.43-.85.45-1.39.01-.28-.01-.57-.07-.87-.1-.5-.31-.98-.62-1.45-.32-.48-.72-.95-1.19-1.4-1.06-1.02-2.48-1.89-4.03-2.41-1.4-.47-2.9-.66-4.33-.42-.65.11-1.17.38-1.55.76-.21.22-.38.46-.49.73l.08.06c1.41-.7 2.99-.77 4.52-.43 1.82.4 3.57 1.36 4.88 2.47 2.06 1.74 2.38 2.83 1.12 5.08Zm-11.31-6.74c.08-.59.36-1.13.79-1.57.45-.45 1.08-.79 1.86-.92 1.52-.26 3.12-.06 4.6.44 1.63.55 3.12 1.46 4.24 2.54.5.48.94.98 1.28 1.5.35.53.59 1.08.7 1.66.06.34.09.68.08 1-.03.65-.22 1.24-.56 1.71-.36.47-.87.81-1.55.94-.15.03-.3.05-.47.05-.72 1.24-3.6 5.69-6.25 9-1.8 2.24-3.39 3.19-4.35 3.76l.07-.08c3.14-3.67 7.34-8.53 10.2-13.69.24-.44.72-1.19.74-1.68.05-1.04-.79-1.92-1.55-2.56-1.25-1.05-2.91-1.96-4.64-2.34-1.57-.34-3.07-.19-4.38.67-1.25.82-5.28 3.45-8.66 5.49-2.06 1.24-3.89 2.28-4.75 2.59-2.4.86-7.56 1.95-7.57 1.96 1.92-1.34 4.99-1.88 7.3-2.71.8-.29 2.58-1.3 4.6-2.52 3.1-1.88 6.72-4.22 8.26-5.23Z"/><path d="M24.06 45.28s1.3-2.8 1.3-4.24c0-.89-.21-3.28-.4-5.39-.14-1.52-.26-2.9-.28-3.48-.03-.66.08-1.08.2-1.53.13-.5.27-1.06.22-2.14v-.14c-.11-2.02-.21-3.88.06-5.01.28-1.18 1.69-1.74 3.27-2.37l.54-.22c.87-.36 1.58-.56 2.17-.62.64-.07 1.15.03 1.59.28.7.4 1.27.61 1.27.61l-.31.73s-.59-.21-1.35-.65c-.3-.17-.65-.23-1.11-.18-.51.05-1.15.24-1.95.57l-.55.22c-1.37.55-2.6 1.03-2.78 1.81-.24 1.02-.15 2.82-.05 4.79v.14c.07 1.2-.09 1.82-.24 2.38-.1.39-.2.76-.18 1.31.02.56.14 1.93.28 3.43.19 2.14.41 4.57.41 5.46 0 1.61-1.37 4.57-1.38 4.58l-.72-.34Z"/><path d="M29.46 28.65s-.02-3.78.15-4.35c.24-.81.75-1.33 1.44-1.61 0 0-.56 1.19-.7 1.66-.14.48-.14 4.13-.14 4.14l-.75.17Z"/><path d="M30.12 23.72s1.08 0 1.53-.18l.3.74c-.6.24-1.83.24-1.83.24z"/><path d="M28.75 29.41s.89-1.07 1.27-1.98l.15-.35c.46-1.1 1.26-3 1.59-3.71.19-.4.34-.72.5-.98.18-.28.36-.5.62-.69.26-.2 1.06-.68 1.91-1.11.58-.29 1.19-.56 1.69-.69.69-.19 1.31-.05 1.83.21.5.25.9.61 1.18.89.55.55.93 1.15.94 1.15l-.65.46s-.35-.55-.85-1.05c-.24-.24-.58-.54-.97-.74-.37-.18-.8-.28-1.27-.16-.44.12-1 .37-1.55.64-.81.4-1.55.85-1.79 1.03-.17.12-.29.27-.42.48-.14.22-.28.51-.46.9-.33.7-1.12 2.58-1.58 3.68l-.15.35c-.42.99-1.02 1.49-2.01 1.67Z"/><path d="M34.18 30.05s1.06-3.48 1.39-4.48c.29-.88.44-2.04.44-2.04.52.88.57 1.39.19 2.53-.3.9-1.24 3.95-1.24 3.96l-.79.03Z"/><path d="M36.1 24.68s2.1-.68 2.78-1.34l.55.58c-.81.78-3.08 1.52-3.09 1.52z"/><path d="M33.74 30.19c.73-.42 1.33-.42 2.36-1.93.44-.65.96-1.64 1.45-2.58.48-.92.93-1.78 1.28-2.26.36-.5.67-.86.99-1.13.34-.29.68-.46 1.09-.55.44-.1.96-.09 1.44.03.32.08.63.22.87.41.27.21.47.48.55.83.05.22.05.47-.02.73-.12.45-.33 1-.59 1.64-.15.37-.3.76-.42 1.09-.53 1.42-1.59 3.33-2.22 4.46-.19.35-.34.62-.42.78-.27.55-.27 1.45-.27 1.45h-.8s0-1.09.36-1.81c.07-.14.23-.44.44-.81.62-1.11 1.66-2.99 2.17-4.35.17-.45.3-.79.43-1.11.24-.62.45-1.14.56-1.54.04-.14.04-.26.01-.36-.03-.15-.13-.27-.26-.37a1.5 1.5 0 0 0-.58-.26c-.36-.09-.75-.1-1.07-.03-.28.06-.52.18-.75.38-.26.22-.53.54-.85.99-.32.44-.76 1.28-1.22 2.17-.5.95-1.03 1.97-1.5 2.66-.61.89-1.85 1.85-3.02 1.49Z"/><path d="M38.4 33.51s2.62-1.76 3.28-2.37c.53-.49 1.56-2.01 2.21-2.98l.36-.52c.29-.42.52-.97.75-1.53.21-.5.42-1.01.7-1.49.13-.23.3-.41.48-.53.26-.17.55-.24.84-.22.27.02.54.11.79.26.32.19.62.47.83.78.51.77.15 2.42-.14 3.68-.07.3-.13.58-.17.81-.16.91-.87 1.87-1.53 2.78-.25.35-.5.69-.73 1.04-.55.86-1.54 2.02-2.18 2.77-.23.27-.42.49-.52.62-.33.44-.53.69-.98 2.23l-.33 1.15c-.56 2.02-1.45 5.19-2.07 6.38-.37.72-1.1 1.69-1.91 2.64-.85 1-1.81 1.97-2.56 2.58l-.5-.62c.71-.58 1.63-1.52 2.46-2.48.78-.9 1.46-1.83 1.8-2.49.58-1.12 1.45-4.23 2.01-6.22.12-.44.23-.83.33-1.16.49-1.69.72-1.98 1.11-2.49.1-.13.3-.37.55-.66.63-.74 1.6-1.87 2.11-2.68.21-.33.48-.7.76-1.08.62-.84 1.26-1.73 1.39-2.45.04-.24.11-.53.18-.84.25-1.12.57-2.58.25-3.07-.14-.21-.34-.4-.56-.53-.15-.09-.3-.14-.44-.15-.12 0-.24.02-.34.08-.08.05-.16.14-.23.26-.25.43-.46.92-.65 1.4-.25.6-.49 1.18-.83 1.67l-.35.52c-.68 1-1.73 2.57-2.33 3.12-1.12 1.03-2.33 1.94-3.82 1.79ZM6.42 27.6s2.5 2.2 7.29 3.85c1.27.44 2.3.78 3.15 1.06 2.42.8 3.45 1.14 4.87 2.01.87.53 1.6.9 2.19 1.14.62.25 1.08.34 1.39.32l.06.8c-.41.03-.99-.08-1.74-.38-.64-.25-1.41-.64-2.31-1.2-1.34-.82-2.35-1.15-4.71-1.93-.85-.28-1.87-.62-3.16-1.06-4.93-1.7-7.54-3.99-7.55-3.99l.52-.61Z"/><path d="M0 24.74s1.95 1.78 3.71 2.53c1.02.44 1.77.6 2.21.66-.04-.31-.05-.71.08-1.06 1.41-3.87 7.21-9.43 10.78-12.85l.95-.92c.82-1.06-1.97-1.76-1.98-1.76l-.2-.05-.07-.19s-.39-.91-1.84-2.52c-.97-.92-1.67-1.5-2.37-1.92s-1.41-.68-2.42-.96c-1.32-.36-3.45-.91-4.33-1.9.72.32 1.42.45 2.27.62.64.12 1.37.27 2.27.51 1.08.3 1.85.58 2.62 1.04.76.46 1.5 1.07 2.51 2.03l.02.02c1.17 1.29 1.71 2.21 1.91 2.59.76.22 3.65 1.21 2.21 3-.22.28-.73.71-1.01.98-3.52 3.37-9.24 8.86-10.58 12.55-.16.44.06 1.11.06 1.11l.14.47-.5.04s-1.14.06-3.06-.76C1.54 27.21.7 26.44-.01 24.73Z"/><path d="M9.1 5.72S7.82 4.03 6.29 2.75C4.95 1.64 3.58.96 2.24 0 3.52-.02 6.23 1.66 6.8 2.14c1.6 1.34 2.93 3.09 2.94 3.09l-.63.49Zm2.78 8.35c-2.2 2.01-3.92 4.06-5.39 6.02-1.46 1.95-2.67 4.1-3.87 6.87l-.73-.32c1.22-2.83 2.46-5.03 3.96-7.03 1.19-1.59 4.11-5.12 6.03-5.54m4.3-2.87s-2.02.8-2.36 1.23c.38-.83 1.02-1.39 1.89-1.73l.48.5Zm1.94 2.16s2.02 1.43 4.23 3.65c.96.96 1.83 1.78 2.57 2.45.97.88 1.95 1.66 2.48 2.07l-.67.51c-.53-.41-1.33-1.08-2.34-2-.78-.71-1.66-1.54-2.6-2.48-2.18-2.18-4.13-3.56-4.13-3.57l.47-.65Zm7.74 9.26-.02.68c-1.63-.1-2.98.52-2.98.52.67-1.07 1.73-1.27 3-1.2m16.68 14.43s4.98.23 9.3-.56c1.98-.37 4.14-.7 6.15-.98 2.42-.34 4.65-.6 6.12-.73a1012 1012 0 0 1 5.96-.52l-.39.86s-2.84.21-5.51.45c-1.44.13-3.65.39-6.08.72-2.01.28-4.15.61-6.12.98-4.41.81-9.46.58-9.47.58l.03-.8Z"/><path d="M66.31 34.97c.13.28.37.67.75 1 .25.22.57.41.95.51.68.17 1.31.09 1.87-.3.59-.41 1.12-1.17 1.57-2.35.44-1.14.65-2.65.68-4.16.03-1.66-.16-3.32-.53-4.5-.27-.88-.66-1.58-1.11-2.06-.34-.37-.72-.6-1.1-.69-.37-.08-.75-.02-1.12.2-.21.13-.42.3-.62.53.62.03 1.12-.04 1.65.3.84.55 1.45 1.77 1.78 3.27.32 1.46.37 3.2.13 4.81-.2 1.29-.59 2.5-1.21 3.45a1.68 1.68 0 0 1-1.44.8c-.32 0-.63-.1-.88-.26-.15-.1-.28-.22-.38-.36l.47-.32c.06.08.13.15.22.21.16.1.36.16.57.17.21 0 .43-.06.62-.19.12-.09.24-.2.34-.35.57-.87.93-2.01 1.12-3.22.24-1.54.18-3.21-.12-4.6-.25-1.15-.57-1.97-1.12-2.52-.59-.58-1.99-.37-2.91-.35-5.1.15-14.45.41-17.03.17-3.05-.29-6.08-.76-6.09-.76l.12-.79s3.02.47 6.04.76c2.54.24 11.86-.03 16.94-.17h.46c.33-.49.68-.83 1.06-1.05.5-.3 1.03-.38 1.54-.27.5.11.98.4 1.4.86.5.54.94 1.32 1.23 2.29.38 1.24.58 2.96.55 4.67-.03 1.57-.25 3.15-.72 4.36-.5 1.29-1.09 2.13-1.77 2.61-.71.5-1.49.6-2.33.39-.48-.12-.88-.36-1.19-.63a3.8 3.8 0 0 1-.88-1.18l.51-.25Zm-32.02-16.4c1.03-.61 1.87-.98 2.73-1.02.97-.05 2.42.83 2.52 1.83-.98-.76-1.74-1.07-2.48-1.03-.76.04-1.56.43-2.61 1.06l-.25.15-.22-.2c-.75-.68-1.38-.99-2.01-1.03-.66-.04-1.37.21-2.28.63 1.32-1.69 3.02-1.73 4.61-.39Z"/><path d="M71 23.01s2.26.01 2.94-.16c.3-.07.98-.5 1.8-1.03.91-.58 1.99-1.26 3.01-1.74 1.01-.47 1.79-.74 2.47-.87.7-.13 1.29-.11 1.88-.01.69.12 1.33.2 1.83.26.34.04 1.01.17 1.16.2l-.52.7c-.19-.03-.44-.06-.75-.1-.53-.07-1.21-.15-1.86-.26-.51-.08-1.01-.1-1.6 0-.61.11-1.34.36-2.28.81-.98.46-2.04 1.13-2.93 1.69-.88.56-1.61 1.02-2.04 1.13-.79.2-2.94.19-2.94.19l-.19-.81Z"/><path d="M81.97 20.52c.66.01 2.34-.54 3.53-.83.65-.16 1.59-.2 2.51-.13.9.06 1.8.23 2.4.48.54.23.99.61 1.32 1.01.47.56.74 1.19.79 1.54.04.3-.06.6-.17.93s-.23.7-.12.95c.06.13.14.3.23.47.33.65.72 1.44.69 2.17-.03.62-.4 1.12-.71 1.53-.15.2-.27.37-.3.46-.03.13.05.51.14.91.1.47.21.96.17 1.32-.06.48-.5.94-.91 1.37-.23.24-.45.48-.53.63-.07.14-.09.41-.11.7-.04.51-.08 1.1-.4 1.68-1.04 1.88-7.31 1.72-9.27 1.67h-.22c-1.55-.04-2.96-.76-3.94-1.25l-.23-.12c-.51-.25-1.08-.5-1.63-.64-.42-.11-.82-.17-1.16-.13-.94.12-2.59-.19-2.59-.19l.16-.78s1.51.28 2.34.18c.45-.06.95.01 1.46.15.6.16 1.23.43 1.78.7l.23.12c.92.47 2.24 1.13 3.6 1.16h.22c1.85.05 7.75.2 8.56-1.25.23-.42.27-.92.3-1.34.03-.38.05-.72.2-1.01.13-.27.39-.54.66-.83.32-.34.66-.7.69-.92.03-.23-.06-.65-.15-1.05-.11-.49-.21-.96-.13-1.27.06-.25.23-.48.43-.74.24-.33.53-.72.55-1.09.02-.52-.32-1.21-.6-1.78-.09-.18-.17-.35-.25-.51-.24-.53-.06-1.05.09-1.52.08-.23.15-.45.13-.57-.03-.24-.24-.71-.61-1.15-.27-.32-.61-.61-1.02-.79-.52-.22-1.33-.37-2.15-.42-.85-.06-1.7-.03-2.27.11-1.39.34-2.38.39-3.72.06Z"/><path d="M88.81 32.5c-.05.44-.43.72-.91.97 0 0 .28-.62.33-1.05.04-.38-.22-.88-.22-.88.47.1.78.65.8.97Zm-.19-3.01s.34-.56.42-.87c.07-.31-.17-.85-.2-1.09.03 0 .77.69.73.86-.16.67-.39 1.07-.95 1.1m.45-3.39c.34-.45.4-.67.36-1.21-.01-.17-.06-.37-.13-.63.46.11.8.56.65 1.05-.14.46-.48.71-.88.79m.41-3.2c.22-.44.35-.94.03-1.49.86.3.95.92-.03 1.49m-61.36-8.78.89-.06c.02.14.06.26.12.33q.15.18.42.18c.13 0 .24-.03.31-.09s.11-.14.11-.22-.03-.15-.1-.21q-.105-.09-.48-.18c-.41-.09-.71-.22-.88-.37a.74.74 0 0 1-.27-.59c0-.16.04-.3.14-.44.09-.14.23-.25.41-.33q.27-.12.75-.12c.39 0 .69.07.89.22.2.14.33.37.36.69l-.88.05q-.03-.21-.15-.3a.5.5 0 0 0-.31-.09c-.11 0-.19.02-.25.07s-.08.1-.08.17c0 .05.02.09.07.13.04.04.15.08.31.11.41.09.71.18.88.27.18.09.31.2.39.34q.12.195.12.45c0 .2-.05.38-.16.54s-.26.29-.45.38-.44.13-.73.13q-.78 0-1.08-.3c-.2-.2-.31-.45-.34-.76Zm29.19 1.01h-2.54c.03-.25.12-.49.27-.71s.42-.48.83-.78q.375-.27.48-.42c.07-.1.1-.19.1-.27 0-.09-.03-.17-.1-.24s-.16-.1-.26-.1-.2.03-.27.1-.11.19-.14.36l-.85-.07c.03-.24.09-.42.18-.56a.87.87 0 0 1 .37-.31c.16-.07.38-.11.67-.11s.53.03.69.1.3.17.39.31.14.3.14.47c0 .19-.05.36-.16.53s-.31.35-.59.56c-.17.12-.28.2-.34.25s-.12.11-.2.19h1.32v.69Zm-5.42-2.21h1l.35.62.41-.62h.93l-.75 1.05.81 1.16h-.99l-.41-.71-.48.71h-.91l.8-1.16zm-4.24-.84h2.52v.65H48.6v.48h1.46v.62H48.6v.6h1.62v.69h-2.56v-3.04Zm-3.15 0h2.66v.61l-1.71 1.78h1.77v.65h-2.89v-.63l1.69-1.76H44.5zm-2.99 0h2.52v.65h-1.57v.48h1.46v.62h-1.46v.6h1.62v.69h-2.56v-3.04Zm-3.07 0h2.52v.65h-1.57v.48h1.46v.62h-1.46v.6h1.62v.69h-2.56v-3.04Zm-1.56 0h.94v1.81c0 .18-.03.35-.08.51-.06.16-.14.3-.26.42s-.25.2-.38.25c-.18.07-.4.1-.66.1q-.225 0-.48-.03c-.17-.02-.32-.06-.44-.12a1 1 0 0 1-.32-.26 1 1 0 0 1-.2-.35 1.8 1.8 0 0 1-.09-.51v-1.81h.94v1.86c0 .17.05.3.14.39s.22.14.38.14.29-.05.38-.14a.53.53 0 0 0 .14-.39v-1.86Zm-2.82 2.6c.12.08.19.13.23.15.05.03.13.07.22.11l-.26.53c-.13-.06-.26-.14-.39-.23s-.22-.15-.27-.2c-.21.09-.47.14-.78.14-.46 0-.83-.12-1.09-.36-.32-.28-.47-.69-.47-1.2s.14-.89.41-1.17c.28-.28.66-.42 1.16-.42s.9.14 1.17.41c.28.27.41.66.41 1.16q0 .675-.33 1.08Zm-.72-.48c.08-.13.11-.33.11-.6 0-.31-.06-.53-.17-.66a.59.59 0 0 0-.47-.2c-.19 0-.34.07-.46.2q-.18.195-.18.63c0 .33.06.57.17.7s.27.2.47.2c.06 0 .12 0 .18-.02-.08-.08-.2-.15-.38-.22l.15-.34c.08.02.15.03.19.06.05.02.14.08.27.17.03.02.07.04.1.07Z"/></g></g></g></svg>