<svg xmlns="http://www.w3.org/2000/svg" data-name="Layer 2" viewBox="0 0 81.01 62.84"><g data-name="Layer 1"><g data-name="Layer_1"><g fill="currentColor" data-name="2659553835344"><path d="M27.75 51.15c.33-.42.7-.92 1.09-1.46 1.26-1.72 2.77-3.78 4.71-5.45 2.32-2 4.3-5.31 5.53-7.36l.19-.32c.59-.99 1.14-2.13 1.55-3.14.4-1.01.66-1.89.66-2.34 0-.34-.22-.69-.53-.97-.38-.35-.87-.59-1.25-.61-.34-.02-.76.16-1.19.42-.46.28-.93.66-1.32 1-.44.38-1.51 1.58-2.6 2.82-.86.97-1.73 1.96-2.36 2.61-1.1 1.14-2.7 2.43-3.91 3.41-.43.34-.8.65-1.05.86-1.78 1.5-2.72 1.5-4.14 1.8 1.4-.9 2.27-1.23 3.65-2.39.31-.26.67-.55 1.07-.87 1.19-.96 2.77-2.23 3.84-3.34.63-.66 1.5-1.63 2.34-2.58 1.12-1.26 2.2-2.49 2.68-2.9.42-.36.91-.76 1.42-1.07.55-.33 1.11-.56 1.64-.53.55.04 1.22.36 1.72.82.46.42.78.96.78 1.54 0 .54-.28 1.53-.72 2.63a24 24 0 0 1-1.6 3.26l-.19.32c-1.25 2.09-3.27 5.47-5.69 7.55-1.87 1.61-3.35 3.63-4.59 5.32-.38.52-.74 1.02-1.1 1.47-.89 1.14-2.3 3.69-3.23 5.45-.56 1.06-.95 1.83-.96 1.84-.39-1.88 2.45-6.32 3.58-7.76Z"/><path d="M19.35 39.67s1.72-.55 3.17-1.44c.8-.49 1.79-1.33 2.68-2.08.76-.64 1.44-1.22 1.9-1.5.4-.24.97-.63 1.63-1.07.94-.64 2.05-1.39 3.03-1.97.78-.46 1.52-1.03 2.19-1.54.78-.6 1.46-1.13 2.06-1.37 1.08-.44 1.64-.01 2.12.35.08.06.15.11.2.15l-.43.64c-.09-.06-.17-.12-.24-.17-.32-.24-.69-.53-1.36-.25-.5.2-1.15.7-1.88 1.26-.69.53-1.45 1.11-2.26 1.6-.99.59-2.07 1.32-2.99 1.94-.67.46-1.26.86-1.66 1.1-.41.24-1.07.8-1.8 1.42-.91.77-1.93 1.63-2.77 2.15-1.17.72-2.47.85-3.57.78Z"/><path d="M33.53 31.25c-.56.19-2.14.79-3.6 1.36-.84.32-1.64.63-2.23.85-.76.28-1.38.52-2.01.84-.64.32-1.3.72-2.17 1.34-1.15.83-5.65 3.82-6.94 3.14.57-.16 1.55-.66 2.63-1.29 1.37-.79 2.88-1.78 3.87-2.48.9-.65 1.6-1.07 2.27-1.41s1.31-.58 2.09-.87c.54-.2 1.36-.52 2.22-.85 1.46-.56 3.41-1.24 4.01-1.44l-.13.81Z"/><path d="m21.21 36.95-.24-.07c-.8-.22-1.63-.45-2.29-.22-.36.12-.9.32-1.47.55-.74.29-1.51.61-2.09.85-.82.34-1.46.52-1.99.61-.54.09-.96.09-1.32.06-.99-.06-1.98.17-2.91.59-1.1.49-2.12 1.24-2.95 2.05l-.61.6c-1.62 1.58-4.2 4.1-4.91 4.56l-.42-.65c.64-.42 3.19-2.91 4.79-4.47l.61-.6c.89-.87 1.99-1.67 3.18-2.2 1.04-.46 2.15-.72 3.27-.66.31.02.68.02 1.14-.06.48-.08 1.07-.24 1.82-.56.61-.26 1.4-.58 2.1-.86.58-.23 1.12-.43 1.51-.56.89-.29 1.83-.04 2.74.21l.24.06-.2.75Zm12.99-6.18s-.02.1.02.11c.17.01.58.06.97.2.25.09.5.22.67.41l-.32.3c-.12-.13-.31-.22-.5-.3-.34-.12-.7-.17-.85-.18-.49-.04-.42-.63-.42-.63zm.7 7.98c-1.28-.84-2.25-1.42-3.75-1.27 1.69-.69 2.64-.02 3.75 1.27m-3.54-.59s1.82.92 2.75 1.02c-.78.23-2.48-.2-2.75-1.02m6.66-2.56c-1.32-1.12-2.81-1.36-2.81-1.36.75-.28 2.43.12 2.81 1.36m-9.82 2.3c-1.4-1.04-3.08-.99-3.09-.99 1.13-.4 2.84-.02 3.09.99m-1.63-2.45c1 .05 2.35.6 2.84 1.48-1.06-.92-2.87-1.04-2.88-1.04zm4.15-2.75c.97 0 1.91.39 2.45 1.19-.78-.48-1.88-.84-2.61-.84zM20.1 45.93s1.03-.66 1.93-1.45c-.12.84-1.13 1.53-1.93 1.45M4.36 50.8c2.72-1.75 5.49-5.16 5.49-5.17-.01 1.77-3.82 4.58-5.49 5.17m5.45 2.75c.99-.67 2-1.6 2.78-2.39.72-.71 2.83-2.89 3.28-3.79-.12 1.96-4.37 5.67-6.06 6.17Z"/><path d="M12.22 39.3c.79-.2 2.09-.26 2.09-.26-.69.37-1.2.49-1.98.69-.69.17-1.76 1.59-1.77 1.6.06-.84.84-1.82 1.66-2.02Zm2.84 1.92c-.87.56-1.01 1.34-2.04 1.85.15-.15.34-.44.55-.75.36-.54.78-1.17 1.26-1.48.75-.48 2.12-.52 2.12-.52-.72.32-1.2.45-1.89.89Zm6.14 1.7s-1 .3-1.86 1.16c-.87.87-1.11 1.34-1.11 1.34 0-1.66 1.37-2.44 2.96-2.5Zm18.13-13.53c-.32.15-.71.48-1.06.84-.48.5-.89 1.04-1.01 1.29-.04.09.01.15.12.2.16.07.38.13.64.2l.18.05c.64.17 1.05.41 1.34.57l.14.08c.06.03.14.02.24-.05.16-.1.37-.3.65-.6.26-.28.46-.58.6-.85.15-.3.23-.57.23-.76h.44c0 .25-.09.59-.28.95-.16.31-.38.64-.67.95-.31.33-.54.55-.73.68-.26.16-.47.18-.68.06l-.14-.08c-.27-.15-.66-.37-1.24-.53l-.18-.05c-.28-.07-.53-.14-.72-.23-.36-.17-.52-.4-.33-.79.13-.28.58-.88 1.09-1.41.38-.39.81-.76 1.18-.93l.19.4Zm-9.46 25.69s.31 1.17.43 2.58c.12 1.38-.78 2.14-1.74 2.95-.14.11-.27.23-.43.36-.33.29-.62.54-.89.77-.6.51-1.08.91-1.17 1.09l-.86-.09c.16-.32.86-1.03 1.54-1.6.29-.24.6-.5.88-.75.13-.12.29-.25.44-.37.8-.68 1.55-1.31 1.47-2.3-.12-1.35-.41-2.45-.41-2.45l.75-.2Z"/><path d="M27.51 56.28c.91-.71 17.35-13.52 21.63-16.56l.45.63c-3.85 2.74-17.8 13.59-20.99 16.07-.06.88-3.05.83-3.84.83l.03-.77s1.33.04 2.73-.19Zm23.35-18.1c.42-.33 1.08-.87 1.89-1.59s1.77-1.63 2.76-2.67c.7-.74 1.2-1.28 1.62-1.75 1.38-1.51 2.01-2.2 4.27-3.81l.48-.35c2.77-1.97 5.59-3.99 6.48-5.22.49-.67.83-1.3 1.17-1.91s.67-1.21 1.12-1.82l.02-.03c.89-1.22 2.68-3.67 3.3-4.9.36-.72.9-1.68 1.49-2.58.48-.74.99-1.44 1.46-1.96.49-.54.9-1.05 1.2-1.49.31-.45.51-.81.57-1.04.1-.36-.06-.58-.06-.58l.66-.4s.33.47.14 1.18c-.09.32-.32.76-.68 1.28-.33.47-.76 1.01-1.27 1.57-.44.49-.93 1.16-1.38 1.86-.57.88-1.1 1.81-1.44 2.51-.65 1.29-2.46 3.78-3.36 5.01l-.02.03c-.42.57-.74 1.15-1.06 1.74-.35.63-.71 1.29-1.22 1.99-.96 1.33-3.84 3.38-6.66 5.39l-.48.35c-2.19 1.57-2.81 2.24-4.15 3.7-.45.5-.99 1.08-1.63 1.76a48 48 0 0 1-2.81 2.72c-.82.73-1.5 1.28-1.93 1.62z"/><path d="M71.01 15.2c1.47-2.02 3.8-5.22 5.01-6.57.8-.89 1.47-1.62 2.1-2.28.64-.67 1.16-1.2 1.66-1.71.35-.35.48-.67.44-.93a.7.7 0 0 0-.23-.41c-.15-.14-.35-.25-.59-.33-.71-.22-1.72-.13-2.66.48-.44.29-1.06.79-1.62 1.29-.68.6-1.26 1.16-1.34 1.3-.14.25-.66.56-1.3.95-.58.35-1.28.77-1.78 1.17-1.04.82-2.52 2.7-2.53 2.71l-.06.07-.08.04c-.93.45-1.77 1.03-2.58 1.59-.89.62-1.74 1.2-2.66 1.59-.31.13-.86.26-1.47.34-.54.07-1.49.11-2 .09l.15-.74c.46.02 1.24-.05 1.74-.12.54-.07 1.02-.18 1.28-.29.85-.35 1.67-.92 2.52-1.51.81-.56 1.65-1.14 2.6-1.61.28-.35 1.61-1.98 2.6-2.76.56-.44 1.27-.87 1.86-1.23.55-.33.99-.6 1.03-.67.12-.2.77-.85 1.5-1.5.58-.52 1.23-1.05 1.71-1.36 1.15-.75 2.41-.86 3.31-.58.36.11.66.29.89.5.25.24.41.53.46.86.07.49-.11 1.05-.66 1.6-.56.56-1.09 1.1-1.65 1.69-.57.6-1.23 1.32-2.08 2.27-1.2 1.33-3.51 4.5-4.97 6.5-.55.76-.98 1.35-1.18 1.6-.74.95-1.84 3.06-1.84 3.07 0-1.55 1.34-3.68 2.39-5.12Z"/><path d="M64.86 24.38c-1.25.83-3.44 2.2-4.63 3.15 1.15-1.35 2.85-2.63 4.33-3.61.48-.32.93-.61 1.29-.86 1.25-.85 1.48-1.64 1.48-1.64.15 1.42-1.48 2.31-2.47 2.97Zm1.21-4.28c-.3.5-.96.62-1.48.7 0 0 .78-.49 1.01-.86.6-1 .69-1.26.69-1.26.06.5.05.98-.21 1.42Zm-20.44 5.47s.73-.98.68-2.78c-.03-.97.17-2.06.54-3.17.39-1.2.98-2.44 1.67-3.62.65-1.11 1.4-2.35 2.15-3.45.77-1.12 1.55-2.08 2.27-2.62.7-.52 1.38-1.11 1.95-1.69.51-.52.92-1.03 1.18-1.48.32-.57.86-1.43 1.5-2.36.53-.76 1.12-1.57 1.72-2.3.68-.82 1.51-1.42 2.33-1.76.9-.38 1.81-.44 2.49-.17.66.27 1.19.8 1.49 1.42s.38 1.35.15 2.01c-.21.59-.7 1.54-1.26 2.51-.57.97-1.22 1.98-1.75 2.65-.24.3-.48.6-.73.91-.91 1.12-1.92 2.37-2.04 2.91-.35 1.63-.14 1.87-1.26 3.39.23-.77.3-1.63.36-2.35.04-.46.07-.87.14-1.19.15-.71 1.23-2.04 2.19-3.23.26-.32.52-.64.72-.9.5-.64 1.13-1.61 1.69-2.57.55-.94 1.01-1.84 1.2-2.38.16-.46.1-.98-.11-1.43-.22-.46-.61-.85-1.09-1.04-.49-.2-1.18-.13-1.9.17-.71.3-1.44.82-2.03 1.53-.58.71-1.17 1.5-1.68 2.25-.63.91-1.15 1.74-1.46 2.29-.29.52-.75 1.08-1.3 1.65-.6.61-1.31 1.22-2.04 1.77-.64.48-1.37 1.39-2.09 2.44-.74 1.07-1.47 2.3-2.12 3.41-.67 1.13-1.23 2.32-1.6 3.47-.34 1.04-.53 2.04-.5 2.91.06 2.06-.82 3.25-.82 3.25l-.63-.45Zm-.74 1.55s-2.32 1.69-4.23 2.57l-.32-.7c1.84-.85 4.09-2.49 4.1-2.49l.46.62Z"/><path d="M80.39 3.85s-.21-.12-.44-.03c-.11.04-.38.25-.67.5-.39.34-.79.73-.88.86-.02.03-.04.06-.05.09a.45.45 0 0 0 .03.34c.06.12.15.23.24.3.03.02.06.04.09.05l-.15.41a.6.6 0 0 1-.2-.11c-.15-.11-.3-.28-.38-.47-.09-.21-.13-.44-.04-.67.02-.07.06-.13.1-.2.11-.15.54-.58.95-.93.32-.28.64-.53.81-.59.41-.15.79.06.79.06zm-6.53 8.2-.42.15c-.17-.47-.91-1.11-1.32-1.31.67.19 1.47.4 1.73 1.16Zm-2.71-1.09s.92 1.66 1.88 2.12l-.19.4c-.95-.46-1.57-1.57-1.68-2.51ZM60.49 8.19c-.6-.5-1.08-.72-2.19-.95.74-.24 2.03-.07 2.19.95m1.07-.39s-.67-.87-1.67-1.31c-.68-.31-1.81-.38-1.81-.38 1.62-.37 2.86 0 3.49 1.68Zm16.06 1.51s-.81-.23-.71-1.09l.44.05c-.06.48.38.61.38.61zM60.73 3.04c.1.03.78.24 1.54.7.38.23.64.38.82.44.13.04.22.03.32-.03.15-.1.37-.33.6-.65.2-.28.41-.61.57-.94.15-.32.18-.63.12-.9-.07-.27-.24-.49-.48-.63-.26-.15-.53-.23-.8-.26-.28-.03-.55 0-.78.08-.22.08-.56.31-.89.61-.35.31-.7.68-.93 1.01-.3.42-.11.54-.07.56Zm1.3 1.08c-.77-.47-1.45-.67-1.46-.67h-.02s-.76-.31-.12-1.23c.25-.36.63-.76 1-1.09.38-.33.76-.6 1.04-.7.29-.1.63-.14.97-.1.32.04.65.14.97.32.35.2.6.52.69.9.09.36.05.77-.14 1.19-.17.37-.39.72-.61 1.02-.26.35-.53.63-.71.75-.21.14-.42.17-.7.08-.23-.07-.51-.23-.92-.48ZM43.17 27.28c.51-.81 1.19-1.31 1.91-1.56.86-.3 1.77-.26 2.49 0 .08.03.16.06.24.1 2.15.95 3.29 3.61 3.71 6.5.41 2.85.13 5.95-.57 7.84-.05.14-.1.26-.16.39-.15.34-.35.71-.58 1.07-.53.81-1.25 1.6-2.07 2.08-.86.5-1.84.67-2.85.23-.16-.07-.33-.16-.49-.27l.3-.46c.14.09.28.16.41.22.82.36 1.63.22 2.35-.2.75-.43 1.4-1.16 1.89-1.91.21-.33.39-.67.54-.99.05-.11.1-.23.14-.35.67-1.82.94-4.81.54-7.57-.4-2.72-1.44-5.21-3.39-6.07-.07-.03-.14-.06-.21-.08a3.115 3.115 0 0 0-3.73 1.33l-.47-.29Zm1.08-.41c.41-.2.8-.31 1.17-.34.86-.08 1.61.23 2.25.77.61.52 1.11 1.26 1.5 2.07.55 1.14.88 2.43.97 3.39.1 1.03.18 2.39.1 3.78-.08 1.41-.33 2.85-.89 4.04-.33.7-.81 1.41-1.44 1.86-.52.37-1.14.57-1.87.45l.09-.54c.57.09 1.06-.06 1.47-.36.54-.39.96-1.02 1.26-1.65.53-1.12.77-2.49.84-3.83.08-1.36 0-2.69-.1-3.7-.09-.9-.4-2.12-.92-3.2-.36-.74-.81-1.42-1.36-1.89-.52-.45-1.14-.71-1.84-.64-.31.03-.64.12-.99.29z"/><path d="m74.32 47.02 3.19.9-.86-3.22-.9.9-3.81-3.82.78-.78-.52-.52-2.1 2.1.52.52.69-.69 3.81 3.82zm-7.8-7.8 3.18.9-.86-3.22-.89.89-3.82-3.81.78-.79-.52-.52-2.1 2.1.53.52.68-.69 3.82 3.82zM32.21 1.07l-3.18-.9.86 3.22.9-.9 3.81 3.82-.78.78.52.52 2.1-2.09-.52-.53-.69.69-3.81-3.81zm7.81 7.8-3.18-.9.86 3.22.89-.89 3.82 3.81-.78.79.52.52 2.1-2.1-.53-.52-.68.69-3.82-3.82z" style="fill-rule:evenodd"/></g></g></g></svg>