<svg xmlns="http://www.w3.org/2000/svg" data-name="Layer 2" viewBox="0 0 93.55 52.13"><g data-name="Layer 1"><g data-name="Layer_1"><g fill="currentColor" data-name="2659553810288"><path d="M18.93 3.88c.59 1.14 1.19 2.12 1.72 2.99.48.77.89 1.45 1.22 2.12.58 1.2.45 2.36.38 2.76.23.42 1 1.87 1.11 2.3.16.65-.15.96-.16.96l-.06.06-.07.03s-6.92 2.76-10.42 4.8c-3.48 2.04-5.94 4.49-5.95 4.5l-.17.17-.23-.08s-1.06-.31-1.57-1.21c-.33-.57-.48-1.13-.55-1.41C2.76 20.95.44 17.27 0 15.8c1.63 1.78 3.06 4.62 4.72 5.49l.17.1.02.2s.1.62.49 1.32c.24.42.67.66.93.77.64-.61 2.91-2.68 5.92-4.45 3.27-1.91 9.41-4.41 10.39-4.8 0-.03-.02-.09-.04-.2-.09-.36-1.11-2.24-1.11-2.25l-.07-.13.03-.14s.29-1.17-.3-2.41c-.29-.61-.71-1.28-1.18-2.05-.53-.86-1.13-1.84-1.75-3.04C17.11 2.04 15.62 0 15.61 0c1.18.62 2.32 1.94 3.31 3.88Z"/><path d="M4.4 21.22c.75-.84 3.4-3.45 4.39-3.37-1.98 1.5-4.02 4.05-4.02 4.06l-.37-.68Zm17.36-9.89.2.72c-4.82 1.07-9.29 3.57-9.3 3.58 1.72-1.91 7.11-3.85 9.1-4.3m1.51 3.35s2.03 4.19 2.81 6.26c.38 1.01.68 1.68.94 2.13.23.4.39.6.52.69s.84.33 1.66.6c1.04.34 2.74.82 3.22.93l-.66.63c-.5-.12-1.73-.48-2.8-.83-.89-.28-1.67-.56-1.86-.69-.22-.15-.48-.43-.77-.96-.27-.48-.59-1.19-.99-2.24-.77-2.04-2.78-6.18-2.79-6.19l.7-.34Zm-16.31 9.4c1.22 1.95 2.81 3.6 4.41 5.25 1 1.03 1.99 2.07 2.92 3.2l-.6.49c-.9-1.1-1.89-2.13-2.88-3.15-1.62-1.69-3.24-3.36-4.5-5.38z"/><path d="M13.51 33.32c.31-.71.8-1.09 1.38-1.26.7-.21 1.51-.08 2.25.18.65.23 1.35.61 2.01 1.19.55.48 1.06 1.1 1.49 1.88.65 1.2.97 2.47 1.08 3.66.15 1.57-.07 3.02-.37 3.98-.18.57-.62 1.16-1.14 1.55-.24.18-.49.32-.75.39-.27.08-.55.1-.8.02-.17-.05-.33-.15-.47-.28-.89.53-2 1.29-3.38 2.22-.6.41-1.25.85-1.84 1.24-3.21 2.16-7.54 4.05-7.55 4.05l-.31-.7s4.29-1.87 7.44-3.99c.73-.49 1.3-.88 1.83-1.24 2.2-1.49 4.03-2.72 5.09-3.17.15-.24.26-.53.34-.85.24-.92.23-2.08.07-3.18l-.03-.16c-.19-1.08-.72-2.48-1.52-3.58-.66-.9-1.26-1.21-1.9-1.38-1.13-.3-2.36.11-4.09.4-3.27.54-7.38 1.31-7.39 1.32l-.14-.76s4.15-.78 7.4-1.32q.75-.12 1.29-.21Zm5.18 11s.08.04.12.05c.14.04.31.03.48-.02.19-.06.39-.17.58-.31.43-.32.8-.81.95-1.27.28-.91.49-2.28.35-3.77-.1-1.12-.4-2.32-1.02-3.44-.39-.72-.87-1.29-1.37-1.73-.6-.53-1.24-.88-1.83-1.08-.64-.23-1.33-.34-1.91-.17-.33.1-.63.3-.85.63 2.01-.31 3.11-.27 4.58 1.73.85 1.16 1.43 2.66 1.62 3.81l.03.18c.17 1.16.17 2.4-.08 3.39-.13.51-.3.99-.62 1.31-.29.29-.58.44-1.02.69Z"/><path d="M17.29 32.31s3.58-2.23 5.66-3.73l.1-.07c2.08-1.51 3.26-2.35 4.55-2.44.63-.04 1.66-.2 2.68-.41.88-.18 1.74-.41 2.31-.63.97-.38 2.11-.24 3.31-.1.51.06 1.04.13 1.53.15 1.83.08 2.79.88 2.79.88l-.46.62s-.79-.65-2.36-.72c-.55-.03-1.08-.09-1.59-.15-1.1-.13-2.15-.26-2.94.05-.61.24-1.52.48-2.43.67-1.05.22-2.13.39-2.79.43-1.07.07-2.18.87-4.15 2.29l-.1.07c-2.09 1.51-5.69 3.76-5.7 3.76l-.4-.66Z"/><path d="M31.93 27.79s1.38-.32 2.76-.69c.53-.14 1.09-.32 1.65-.5 1.05-.34 2.09-.67 2.72-.72.71-.06 1.74.09 2.81.24.36.05.73.1 1.13.15.62.07 1.1.27 1.47.5.57.37.87.83.99 1.09l-.7.33c-.08-.18-.29-.5-.71-.77-.28-.18-.65-.33-1.14-.39-.35-.04-.75-.1-1.15-.15-1.02-.14-2.01-.28-2.64-.23-.55.04-1.54.36-2.55.68-1.1.35-3.73.94-4.64.46"/><path d="M35.24 30.04s2.5-.7 4.03-1.25c.62-.22 1.38-.41 2.13-.57 1.17-.25 2.33-.41 2.9-.49.48-.06.98-.09 1.4-.08.44.01.82.07 1.05.18.26.12.63.33.86.6.22.25.34.54.25.87-.09.34-.72.78-1.45 1.19-.68.39-1.43.75-1.87.97l-2.44 1.18-.34-.69 2.44-1.19c.45-.22 1.21-.59 1.83-.94.58-.32 1.06-.62 1.09-.72 0-.03-.03-.09-.09-.16-.15-.17-.4-.32-.59-.4-.15-.06-.42-.1-.77-.11a8 8 0 0 0-1.27.07c-.55.07-1.69.24-2.84.48-1.88.39-4.63 1.57-6.32 1.06"/><path d="M35.26 33.77s1.75-.05 3.38-.65c.46-.17 1.08-.41 1.64-.62.97-.37 1.73-.66 2.1-.76.67-.17 1.21-.18 1.62-.06.31.09.55.25.7.47.16.22.23.49.21.79-.03.34-.18.71-.47 1.1-.18.24-.72.79-1.4 1.33-.46.37-.99.72-1.51.97-.62.29-1.02.6-1.42.92-.37.29-.74.58-1.3.88-1.07.58-2.09.88-2.26.93-.41.19-4.57 2.16-5.59 2.84-.59.39-1.71.84-2.95 1.21-1.21.37-2.55.68-3.59.8-2.15.24-3.65-.22-3.65-.22l.23-.74s1.35.41 3.33.19c1-.11 2.29-.41 3.45-.77 1.17-.36 2.22-.77 2.75-1.12 1.13-.75 5.71-2.9 5.72-2.91h.03l.03-.02s1.04-.28 2.13-.87c.49-.27.84-.54 1.19-.81.43-.34.86-.67 1.56-1 .47-.22.95-.55 1.36-.88.62-.49 1.1-.98 1.26-1.19.2-.26.3-.5.32-.7 0-.11-.01-.21-.06-.28a.52.52 0 0 0-.29-.18c-.28-.08-.68-.07-1.21.07-.3.08-1.06.37-2.01.73-1.65.63-3.6 1.13-5.3.55"/><path d="M32.46 40.42c9.1 3.44 18.96 3.24 28.62 3.05 2.25-.04 4.48-.09 6.59-.09v.77c-2.25 0-4.4.04-6.57.09-9.74.19-19.68.39-28.91-3.1zm15.02-11.33c3.61.89 7.49 1.58 11.4 2.15 3.92.57 7.86 1.02 11.58 1.43l-.63.69c-3.73-.41-7.13-.78-11.06-1.35s-7.84-1.27-11.48-2.17l.18-.75ZM88.5 44.42c.86-.2 1.82-.5 2.16-.99.41-.59-.23-1.84-.23-1.84l.68-.36s.85 1.67.18 2.64c-.62.89-2.37 1.26-3.42 1.47h-.05c-.97.21-2.64.61-2.64.61.78-.85 1.96-1.22 3.32-1.54Z"/><path d="M71.81 33.08q-.09-.135-.21-.27c-.14-.14-.31-.26-.46-.26-.03 0-.06 0-.08.01-.08.03-.16.06-.23.11-1.02.63-1.9 2.86-2.43 5.26-.53 2.43-.69 5-.26 6.3q.075.225.18.39c.06.09.12.15.2.18.07.03.15.04.23.03.09-.01.19-.05.28-.11.14-.08.26-.21.35-.37-.3-.06-.38-.79-.42-1.07-.17-1.36 0-3.03.34-4.64.22-1.03 1.36-5.28 2.52-5.57Zm-1.89 11.4c-.13.3-.36.55-.61.71-.15.1-.32.16-.49.18-.18.03-.36 0-.53-.06-.17-.07-.33-.21-.45-.4a2.4 2.4 0 0 1-.23-.51c-.46-1.39-.31-4.08.24-6.59.55-2.53 1.52-4.9 2.68-5.61.11-.07.23-.12.35-.16.09-.03.17-.04.26-.04.32 0 .62.19.86.42.15.15.28.33.36.5.44-.14 1.05-.36 1.77-.7.81-.38 1.52-.66 2.24-.95.8-.32 1.6-.64 2.52-1.08.67-.32 1.13-.58 1.48-.77.59-.33.93-.51 1.56-.65.62-.13 1.66-.01 2.76.11.74.08 1.51.17 2.16.19 1.62.03 1.99.51 2.5 1.18l.19.24c.59.73 1.03 1.42 1.03 1.42l-.64.43s-.42-.67-.99-1.36l-.2-.26c-.38-.5-.65-.85-1.9-.88-.7-.01-1.48-.1-2.23-.19-1.03-.12-2.01-.23-2.51-.12-.53.11-.82.28-1.35.57-.36.2-.82.46-1.52.79-.95.46-1.76.78-2.56 1.1-.72.29-1.43.57-2.2.94-1.4.65-2.39.9-2.71.96-.72 1.01-1.47 2.82-1.91 4.88-.37 1.73-.53 3.51-.28 4.85.54.12 2.5.56 3.06.95l.11.08c.57.41 1.57 1.12 3.62 1.74 1.2.36 2.02.57 2.76.75.67.17 1.28.32 2 .54.66.2 1.29.28 1.87.26.67-.02 1.24-.17 1.66-.37.34-.16.69-.31 1.06-.45.58-.24 1.22-.49 1.87-.86.36-.2.6-.43.77-.66.26-.35.33-.65.33-.74h.77c0 .16-.09.68-.48 1.2-.22.3-.55.61-1.01.87-.69.39-1.35.66-1.96.9-.36.15-.71.29-1.02.43-.5.24-1.19.42-1.96.45-.65.02-1.38-.06-2.12-.29-.71-.22-1.3-.37-1.96-.53-.76-.19-1.62-.4-2.8-.76-2.17-.66-3.23-1.41-3.85-1.85l-.1-.07c-.33-.23-1.5-.53-2.25-.71Z"/><path d="M83.53 32.02s1.4.23 2.62.2c.67-.02 1.54-.11 2.32-.19.64-.07 1.22-.13 1.65-.15.48-.02.9.03 1.26.13.41.11.75.29 1.01.5.26.22.49.65.68 1.11.18.43.32.9.43 1.25.12.4.05.8-.13 1.16-.2.43-.55.81-.85 1.05s-1.23.52-2.2.82c-.87.27-2.64.58-3.03.79.87-.83 1.63-1.17 2.8-1.53.9-.28 1.76-.54 1.95-.69.23-.18.49-.46.63-.77.1-.21.14-.42.08-.61-.1-.33-.24-.78-.4-1.18-.15-.37-.31-.69-.46-.81a1.9 1.9 0 0 0-.72-.35c-.29-.08-.64-.12-1.03-.1-.39.01-.97.08-1.59.14-1.79.19-3.52.41-5.02-.77"/><path d="M92.54 36.88s.83 1.54.83 2.31c0 .44-.23.94-.64 1.4-.36.4-.87.79-1.49 1.08-1.31.62-3.63.96-5.09 1.3.71-.9 3.71-1.5 4.76-1.99.53-.25.95-.57 1.25-.9.28-.32.44-.63.44-.88 0-.57-.74-1.95-.74-1.95l.68-.36Zm-6.12-.61c0 .64-.51.99-1.04 1.18.04-.07.09-.13.14-.2.2-.27.46-.62.46-.98 0-.46-.52-1.18-.52-1.18.4.34.97.61.97 1.18Zm-.7 4.67c.07.55-.41 1.12-.94 1.14.13-.13.27-.3.38-.49.1-.18.16-.38.13-.6-.07-.5-.37-1.25-.37-1.25.41.39.73.57.81 1.2Zm-1.12 3.61c-.25.54-.54.67-1.05.59 0 0 .46-.36.65-.77.18-.38-.05-1.12-.05-1.12.42.31.7.76.45 1.31Zm-.58 2.97c-.09.56-.59.87-.59.87l-.25-.37s.34-.23.4-.59c.06-.41-.06-.78-.06-.78.38.22.52.58.5.87M19.32 31.3l-.59.31c-1.04-1.04-2.76-1.52-2.76-1.52 1.21-.06 2.45.31 3.35 1.21m53.55 11.39c1.5.14 5.15.87 5.78 2.34-2.02-1.24-3.89-1.49-5.78-2.34M31.61 30.27c.22-.1.51-.1.81-.04.27.05.86.46 1.1.64-.23-.08-.93-.16-1.18-.2-.69-.12-1.04.33-1.6.68.13-.4.38-.85.87-1.07Zm1.67 3.45c.65-.08.89.16 1.32.56-.6-.1-.6-.2-1.27-.12-.41.05-1.14.42-1.14.43.14-.43.64-.81 1.09-.86Zm-9.31 4.84c2.41-.62 5.48-2.64 5.49-2.64-.9 1.23-4.14 3.08-5.49 2.64m18.11-6.23s.51.39.84.76c.13.15.21.23.25.24.03 0 .1-.02.24-.07.17-.07.33-.17.47-.29.15-.12.27-.25.33-.37l.38.22c-.09.16-.25.34-.43.49-.17.14-.37.27-.58.36-.24.1-.38.14-.55.09-.15-.05-.25-.16-.44-.36-.31-.34-.79-.71-.79-.71l.28-.34Zm2.97-4.26s.31.35.61.72c.12.14.22.21.3.24.07.03.13.02.16.02.08-.02.37-.12.63-.21.18-.07.32-.12.34-.14l.28.34c-.06.05-.26.13-.47.21-.28.1-.6.21-.69.23a.75.75 0 0 1-.41-.03c-.15-.06-.32-.17-.49-.38-.28-.34-.61-.72-.61-.72l.34-.27Zm-16.76.02c.52-.16 1.32-.08 1.74.3-1.15-.15-1.54.16-1.94.48-.12.1-.25.2-.39.29 0-.31.3-.96.59-1.06Z"/></g></g></g></svg>