<svg xmlns="http://www.w3.org/2000/svg" data-name="Layer 2" viewBox="0 0 89.93 54.43"><g data-name="Layer 1"><g data-name="Layer_1"><g fill="currentColor" data-name="2659646868896"><path d="M13.42 4.88c.71.76 1.11 1.29 1.42 1.7.51.67.74.98 1.81 1.44 1.66.71 2.36 1.89 2.53 2.23l.45.39c.79.68 1.13.97 1.8 2.14l.19.33-.33.19c-2.98 1.78-5.51 3.78-7.74 6.06-2.23 2.29-4.16 4.87-5.95 7.83-.02.04-.05.07-.08.1-.26.26-.87.23-1.54.03-.58-.17-1.24-.46-1.75-.77-.25-.15-.47-.31-.63-.47-.33-.34-.89-.75-1.44-1.15-.96-.71-1.55-1.46-2.15-2.45.2.28 1.98 1.37 2.61 1.83.57.42 1.15.85 1.52 1.22.11.11.28.24.48.36.46.28 1.05.53 1.57.69.39.12.7.19.76.17 1.81-2.99 3.77-5.61 6.03-7.93 2.19-2.25 4.66-4.22 7.57-5.99-.49-.8-.8-1.06-1.43-1.61l-.52-.45-.07-.06-.03-.08s-.5-1.19-2.16-1.9c-1.26-.54-1.53-.9-2.12-1.68-.3-.4-.69-.91-1.36-1.63C10.96 3.39 6.83.65 5.37 0c3.05.71 6.75 3.49 8.05 4.88"/><path d="M21.38 12.86c.58.56 1.19 1.18 1.82 1.83 2.14 2.19 4.58 4.68 6.9 5.84l-.67.53c-2.45-1.22-4.6-3.6-6.79-5.83-.63-.64-1.24-1.26-1.81-1.82l.54-.56ZM7.36 26.73s4.85 1.98 6.54 2.87l-.36.68c-1.66-.88-6.46-2.84-6.47-2.84zm11.58-16.04c-2.55.98-5.2 2.52-7.48 4.44-2.06 1.74-4.12 3.86-5.24 6.09.27-2.33 2.83-5.07 4.74-6.68 2.35-1.99 5.08-3.57 7.7-4.58l.28.72ZM3.6 25.63c.37-1.09.97-2.29 1.94-2.93-.68 1.26-1.21 3.19-1.21 3.19l-.73-.27ZM.63 37.97s8.4-3.54 13.42-7.4l.47.61C12.14 33.01 3.77 37.96.63 37.97"/><path d="M14.08 30.58c1.73.22 4.88 8.29 5.72 10.43l.09.22c.28.71.47 1.06.63 1.2.06.05.14.02.24-.03.11-.06.17-.17.21-.32.05-.22.04-.5-.02-.82-.18-.99-1.26-3.68-2.45-6.18-1-2.11-2.08-4.07-2.72-4.71-.46-.45-.82-.65-1.11-.7a.82.82 0 0 0-.6.13c-.14.1-.24.3-.3.51-.1.33-.11.68-.06.83l-.53.14c-.06-.23-.06-.7.07-1.13.09-.33.26-.64.52-.81.25-.17.58-.3 1-.22.39.07.86.31 1.41.85.69.69 1.8 2.71 2.83 4.87 1.2 2.53 2.31 5.28 2.5 6.32.07.38.08.74.02 1.04-.07.31-.22.55-.48.69-.29.16-.54.23-.86-.04-.22-.19-.47-.61-.78-1.41l-.09-.22c-.81-2.08-3.87-9.9-5.27-10.08l.07-.55Z"/><path d="M19.84 42.19s-5.02 2.9-5.98 3.73c-.43.37-1.16 1.2-2.02 2.17-1.51 1.71-5.36 5.89-7.42 6.34 0 0 1.51-1.38 3.54-3.31 1.1-1.04 2.29-2.39 3.31-3.55.87-.99 1.62-1.84 2.09-2.24 1.01-.87 6.08-3.81 6.1-3.82l.38.67Zm1.6-1.02s2.43.07 4.21.36c.79.13 1.75.19 2.64.2 1.03.01 1.97-.04 2.47-.13.38-.07.77-.26 1.13-.48.47-.29.86-.65 1.08-.92l.6.48c-.26.33-.73.75-1.27 1.09-.43.27-.92.5-1.41.59-.54.1-1.54.16-2.62.14-.93-.01-1.92-.08-2.75-.21-1.74-.28-4.11-.35-4.11-.35l.02-.77Z"/><path d="M31.1 40.08s1.83-.1 2.66-.2c.69-.09 1.99-1.95 1.99-1.95l.64.44s-1.5 2.15-2.53 2.28c-1.11.14-1.83-.08-2.75-.57Z"/><path d="M37.17 37.96c.2.06.42.14.71.21.45.11 1.4.18 2.43.15.83-.02 1.7-.11 2.4-.3 1.56-.41 2.6-1.31 2.61-1.32l.51.58s-1.18 1.03-2.92 1.48c-.76.2-1.7.29-2.58.32-1.1.03-2.13-.05-2.64-.17-.31-.08-.55-.15-.76-.22-1.54-.5-1.71-.27-3.27-.27.76-.77 2.53-.78 3.51-.47Z"/><path d="M38.71 34.71s3.68 1.52 6.83 1.88c1.39.16 3.76.06 6.27-.16 3.2-.28 6.6-.75 8.51-1.14 1.37-.28 3.41-.52 5.54-.72 3.29-.31 6.76-.52 8.15-.58l.03.77c-1.38.06-4.84.26-8.11.57-2.1.2-4.12.44-5.46.71-1.94.39-5.38.87-8.59 1.16-2.55.22-4.98.32-6.42.15-3.27-.38-7.03-1.93-7.04-1.93l.29-.72Z"/><path d="M38.05 34.24c.12-.55.84-.93.84-.93l.46.44s-.49.38-.55.66c-.07.31.11 1.58.11 1.58a1.57 1.57 0 0 1-.87-1.75Z"/><path d="M41.42 33.05c.8.04 1.4.11 1.97.17.62.07 1.19.13 1.93.15s2.3-.08 3.77-.23c1.34-.13 2.59-.31 3.03-.45.33-.11.47-.31.51-.56.05-.32-.03-.73-.16-1.15-.1-.33-.39-.53-.73-.66-.39-.15-.84-.2-1.16-.22-.52-.03-2.06-.02-3.01 0h-.69c-.19 0-.67-.05-1.3-.12-1.18-.14-2.9-.34-4.14-.34-.76 0-1.52-.04-2.2-.09-1.02-.08-1.85-.19-2.19-.24-.36-.06-1.3-.3-2.41-.8-.7-.31-1.47-.73-2.21-1.27-1.13-.82-2.01-1.7-1.7-3.1 0 0 .39 1.2 2.15 2.48.7.51 1.42.9 2.08 1.19 1.04.46 1.9.68 2.23.74.33.05 1.13.16 2.12.23.65.05 1.39.09 2.14.09 1.27 0 3.03.2 4.23.34.6.07 1.06.12 1.21.12h.68c.96-.02 2.54-.03 3.07 0 .38.03.9.09 1.39.28.54.21 1.01.56 1.19 1.16.15.51.25 1.03.18 1.49-.09.53-.38.95-1.03 1.17-.5.17-1.81.35-3.2.49-1.5.15-3.11.25-3.87.23-.78-.03-1.36-.09-1.99-.16-.56-.06-1.15-.13-1.93-.17-1.63-.09-3.75.27-3.75.27.89-1.08 2.42-1.12 3.79-1.04"/><path d="M31.16 25.71s0-.81.57-1.22c.25-.18.97-.5 1.71-.82.6-.26 1.22-.54 1.59-.73.31-.17.65-.29 1-.43.58-.22 1.21-.45 1.71-.9l.11-.1H38c2.16.04 4.53.31 6.78.67 3.19.51 6.12 1.2 7.78 1.66 4.61.83 12.21.64 17.06.52 1.09-.03 1.79.03 2.55.02l.42.68c-.74 0-1.85.04-2.94.07-4.89.12-12.55.31-17.23-.54h-.03c-1.64-.46-4.54-1.15-7.71-1.65-2.17-.35-4.45-.61-6.53-.66-.58.47-1.23.72-1.84.94-.32.12-.64.24-.91.38-.38.21-1.02.49-1.64.76-.7.31-1.38.61-1.57.74-.24.18-.32.72-.32.72l-.7-.12Z"/><path d="M15.55 29.66c1.39-1.07 2.85-2.06 4.3-3.04 1.5-1.01 2.99-2.02 4.34-3.08.49-.39.91-.74 1.28-1.05 1.09-.92 1.75-1.48 3.15-1.83 1.1-.27 1.35-.39 1.67-.54.2-.09.41-.2.81-.34.83-.3 1.82-.09 2.77.12.43.09.86.19 1.21.22.19.02.44.02.71.02.74 0 1.6.02 2.17.33.54.29.54.62.55 1.18v.33l-.77.04v-.36c0-.27 0-.43-.14-.51-.41-.22-1.17-.23-1.82-.24-.28 0-.55 0-.77-.03-.42-.04-.86-.13-1.31-.23-.84-.18-1.72-.38-2.34-.15-.37.13-.56.23-.74.31-.36.17-.64.31-1.82.6-1.22.3-1.83.81-2.83 1.67-.36.31-.77.66-1.3 1.07-1.4 1.09-2.88 2.1-4.38 3.11-1.45.98-2.9 1.97-4.26 3.01l-.47-.61Zm56.66-5.41c1.12.53 1.82 1.73 2.21 3.14.56 1.99.54 4.41.31 5.81-.11.66-.34 1.47-.67 2-.16.26-.36.46-.58.56-.26.12-.53.11-.83-.07-.26-.16-.54-.46-.82-.96l.48-.27c.23.41.44.65.63.76.12.07.22.08.31.04.12-.05.24-.18.35-.36.29-.46.5-1.19.59-1.79.22-1.34.24-3.66-.3-5.57-.37-1.3-1-2.4-2-2.82-.15-.2-.29-.17-.45.02l-.43-.34c.36-.45.85-.67 1.35-.73.58-.06 1.18.1 1.6.39 1.13.79 1.75 2.48 2 4.34.32 2.33.05 4.94-.51 6.26-.31.73-.66 1.27-1.02 1.62-.38.37-.78.55-1.19.56s-.81-.15-1.2-.46c-.42-.34-.84-.85-1.22-1.52l.48-.27c.35.61.71 1.08 1.08 1.36.29.23.57.35.85.34.27 0 .54-.14.82-.41.31-.31.61-.78.9-1.44.53-1.24.78-3.73.47-5.97-.23-1.72-.78-3.27-1.77-3.96-.32-.22-.78-.35-1.22-.3-.07 0-.14.02-.21.04Z"/><path d="M73.91 24.02s1.27-.75 2.58-1.82l.4-.33c1.13-.93 1.74-1.44 2.82-1.44.61 0 1.09 0 1.58-.02.59 0 1.19-.02 1.64-.02.51 0 1.03.27 1.51.64.71.55 1.32 1.32 1.57 1.66l-.62.46c-.23-.31-.79-1.02-1.42-1.51-.35-.27-.72-.47-1.04-.47-.64 0-1.14 0-1.63.02-.58 0-1.16.02-1.59.02-.8 0-1.34.44-2.33 1.26l-.41.33c-1.35 1.1-2.67 1.89-2.68 1.89l-.39-.67Z"/><path d="M82.01 22.5s2.11.27 3.21.07c.59-.11 1.09-.2 1.5-.23.47-.03.85.02 1.16.21.25.15.59.48.89.83.34.39.65.81.74 1.04.17.42-.05.92-.27 1.41-.05.11-.1.23-.15.34-.08.21.14.49.36.77.08.1.16.21.23.31.21.3.28.68.24 1.07-.04.38-.19.77-.43 1.1-.16.22-.36.39-.53.54s-.31.27-.29.33c.04.12.09.22.13.32.21.49.44 1.02.16 1.54-.2.37-.68.76-1.09 1.1-.18.14-.34.28-.45.39-.09.09-.09.16-.09.29 0 .18.01.42-.05.79-.09.52-.48 1.03-1 1.4-.51.36-1.15.61-1.75.64-.53.02-1.01.03-1.58.01-.58-.01-1.24-.05-2.11-.12-2.34-.19-3.06-.46-4.59-1.03-.37-.14-.79-.3-1.36-.5l.26-.73c.51.18.97.35 1.37.5 1.46.55 2.14.8 4.38.98.88.07 1.52.11 2.06.12.55.01 1.02 0 1.54-.01.45-.02.94-.21 1.33-.49.36-.26.63-.59.69-.91.05-.31.05-.5.04-.65 0-.35-.01-.53.31-.86.12-.12.31-.27.51-.44.35-.29.77-.63.9-.87.1-.19-.05-.54-.19-.86-.06-.13-.11-.26-.15-.37-.2-.57.12-.84.52-1.18.14-.12.3-.25.41-.4.16-.21.26-.47.28-.72.02-.21-.01-.41-.11-.55-.06-.09-.13-.18-.2-.27-.35-.45-.72-.91-.47-1.53.05-.12.1-.25.16-.37.15-.35.31-.69.26-.81-.06-.15-.31-.48-.6-.82-.26-.29-.53-.57-.72-.68-.15-.09-.39-.11-.7-.09-.38.03-.85.11-1.41.21-1.17.21-2.44-.08-3.34-.83ZM52.09 32.81s-.17-.87-.25-1.51v-.06c-.05-.13-.18-.2-.35-.25-.22-.05-.5-.05-.78-.02s-.55.1-.78.17c-.33.1-.51.27-.59.49-.08.24-.05.55.04.91q.075.3.21.45c.08.08.18.13.33.14.4.02.87.02.87.02v.44s-.46 0-.89-.03c-.27-.02-.47-.11-.63-.29-.14-.16-.24-.37-.31-.64-.11-.44-.15-.83-.03-1.16.12-.35.39-.62.88-.77.25-.08.56-.15.86-.18.33-.04.66-.04.94.03.32.08.57.25.66.54.01.04.02.09.03.14.08.66.24 1.48.24 1.48l-.43.08Zm-23.21 1.33c-3.09.03-6.8 1.16-6.81 1.17 1.72-1.04 4.85-1.84 6.81-1.17m2.66-.93 1.99.33c1.02.17 2.17-.73 2.82-.17-.31.04-.65.16-1 .28-2.02.7-2.23.42-3.81-.44m-1.69 3.45s.77.46 1.47.51c.71.05 1.31-.15 1.31-.15-.3.5-.74.63-1.34.59-.76-.05-1.05-.42-1.44-.95m14.49-3.28-.26.35s-.71-.54-.76-1.07c-.04-.47.2-1.61.2-1.62.01.93.04 1.81.83 2.33Zm.48-2.66s-.18 1.24.09 2.1c-.69-.13-.49-1.75-.09-2.1"/><path d="M87.21 25.32c.04.43-.34.85-.69.93 0 0 .27-.64.25-.89-.03-.29-.37-.86-.37-.86.33.19.77.38.81.82m.08 3.17c.02.33-.88 1.07-1.12 1.11.16-.26.69-.83.68-1.08-.02-.31-.31-.91-.31-.91.3.23.72.46.75.88m-.85 3.23c.06.46-.56.95-.96 1.02.11-.14.26-.32.37-.5.1-.16.16-.33.15-.47-.04-.34-.23-.67-.23-.67.37.11.61.14.67.62m-67.68-4.14-.38.39c-1.43-1.23-4.11-2.02-4.12-2.02 1.24.12 3.28.63 4.5 1.62Zm58.45 5.3s2.4.15 3.4.34c.92.18 1.46.59 2.14 1.14 0 0-1.27-.56-2.24-.75-1.13-.22-2.18-.44-3.29-.73Zm7.01 2.64c.09-.04.25-.21.39-.4.36-.5.18-.52.18-1.04 1.03.77-.12 1.66-.58 1.45Z"/><path d="m51.99 40.57-2.89 1.62 2.89 1.66v-1.26h6.88v1.11h.74v-2.97h-.74v.97h-6.88zm12.53 0-2.89 1.62 2.89 1.66v-1.26h6.88v1.11h.74v-2.97h-.74v.97h-6.88zm-6.35-26.98 2.88 1.61-2.88 1.67V15.6h-6.88v1.11h-.74v-2.97h.74v.98h6.88zm-12.54 0 2.89 1.61-2.89 1.67V15.6h-6.88v1.11h-.74v-2.97h.74v.98h6.88z" style="fill-rule:evenodd"/></g></g></g></svg>