<svg xmlns="http://www.w3.org/2000/svg" data-name="boat" viewBox="0 0 509.425 349.128"><path fill="currentColor" d="M74.144 126.698a50 50 0 0 0-.472-5.267 15.9 15.9 0 0 0-1.756-4.877 46 46 0 0 0-2.71-4.699.04.04 0 0 0-.067.04 25.7 25.7 0 0 1 2.004 4.868c.508 1.64.738 3.315 1.303 4.941a26 26 0 0 1 1.111 4.994 51 51 0 0 1 .235 5.221c.002.059.095.078.107.015a26 26 0 0 0 .245-5.236m33.736-16.588a18 18 0 0 0-.65-.596q-.682-.592-1.399-1.141a25 25 0 0 0-3.058-2.005.023.023 0 0 0-.024.04 36 36 0 0 1 2.889 2.215q.67.57 1.305 1.177.319.304.635.61a1.7 1.7 0 0 0 .638.487.126.126 0 0 0 .154-.154 1.55 1.55 0 0 0-.49-.634m1.401 4.355a2.6 2.6 0 0 0-.46-.438 11 11 0 0 1-.902-.844c-.28-.301-.756-.692-.84-1.104a.94.94 0 0 0-.207-.52 3 3 0 0 0-.488-.407 38 38 0 0 0-4.186-2.809.043.043 0 0 0-.043.075 17.3 17.3 0 0 1 3.713 3.309 1.44 1.44 0 0 0 .86.657c.414.09.747.594.995.912a5.5 5.5 0 0 1 .642 1.083 2.7 2.7 0 0 0 .287.572c.119.144.279.133.417.222a.205.205 0 0 0 .298-.23c-.039-.173.03-.31-.086-.478m-.015 2.764a18 18 0 0 0-.698-.624q-.69-.592-1.426-1.13a23 23 0 0 0-3.184-1.947.035.035 0 0 0-.035.06 24 24 0 0 1 3.016 2.15q.678.567 1.31 1.185c.224.218.44.442.656.667a1.7 1.7 0 0 0 .65.514.173.173 0 0 0 .212-.212 1.53 1.53 0 0 0-.501-.663m.267 3.241a12 12 0 0 0-.517-.575 14 14 0 0 0-1.086-1.047 16 16 0 0 0-2.456-1.72.02.02 0 0 0-.02.035 17.5 17.5 0 0 1 2.325 1.889c.344.332.682.67 1.002 1.026q.246.275.48.56c.124.152.282.404.487.438a.068.068 0 0 0 .084-.064c.017-.201-.18-.397-.3-.542m-1.074 1.471a6.4 6.4 0 0 0-1.775-1.266.04.04 0 0 0-.04.068 8 8 0 0 1 1.652 1.328 18 18 0 0 1 1.279 1.688c.027.036.093.017.078-.033a4.6 4.6 0 0 0-1.194-1.784m.28 2.996c-.013-.027-.053-.004-.04.024.232.508.459 1.018.714 1.516.014.027.052.003.04-.024-.22-.514-.469-1.013-.714-1.516m1.794 5.273-.439-.512c-.026-.031-.069.013-.044.044l.419.517c.14.172.289.334.438.499.017.019.053-.008.036-.029-.134-.175-.266-.352-.41-.52M84.271 82.158c-.16-.956-.332-1.91-.54-2.858-.423-1.942-.894-3.877-1.474-5.78a.043.043 0 0 0-.083.023 39 39 0 0 1 1.01 5.832c.084.966.148 1.937.168 2.908.02.938-.129 1.868-.064 2.807.064.94.226 1.866.263 2.812.037.937.05 1.874.019 2.81a60 60 0 0 1-.487 5.808c-.01.075.113.09.13.018a45 45 0 0 0 1.01-5.592 70 70 0 0 0 .296-3.044 28 28 0 0 0 .197-2.93 21 21 0 0 0-.445-2.814m36.231-3.434a28.5 28.5 0 0 0-3.05-9.802c-.014-.027-.06-.008-.05.021a40.6 40.6 0 0 1 2.258 10.001 68 68 0 0 1-.16 10.127c-.006.12.163.13.2.027a14 14 0 0 0 .734-2.535 22 22 0 0 0 .245-2.536 31.5 31.5 0 0 0-.177-5.303"/><path fill="currentColor" d="M509.225 47.527c-17.394 2.744-34.955 4.555-52.519 5.775-8.838.614-17.695 1.183-26.55 1.473a172.6 172.6 0 0 1-26.538-1.13c-4.895-.595-9.772-1.332-14.641-2.11-4.14-.66-8.277-1.404-12.438-1.924-.336-.278-.665-.564-1.003-.84-3.107-2.528-6.3-4.95-9.537-7.308a207 207 0 0 0-20.087-12.975 138 138 0 0 0-21.117-9.778 97.6 97.6 0 0 0-22.493-5.272c-7.481-.805-15.188-.015-22.513-2.028q-.52-.142-1.032-.287a39.4 39.4 0 0 0-10.855-4.67c-4.833-1.064-9.667-.217-14.517.222a134.7 134.7 0 0 1-43.057-3.051c-4.679-1.105-9.272-2.77-14.049-3.41a32.4 32.4 0 0 0-13.543 1.467c-4.572 1.358-9.007 3.134-13.582 4.487a126 126 0 0 1-14.066 3.299q-3.683.644-7.4 1.06c-1.205-.15-2.44-.18-3.627-.266q-3.388-.246-6.782-.389-3.455-.145-6.914-.182a20.8 20.8 0 0 0-5.545.345 5 5 0 0 0-2.237 1.16 1.97 1.97 0 0 0-.636 1.15 11.94 11.94 0 0 0-5.79 3.838 8.44 8.44 0 0 0-1.915 4.868 12.46 12.46 0 0 0 1.872 6.324 50.8 50.8 0 0 0 15.44 17.235 52.9 52.9 0 0 0 18.634 8.273l-8.854.986c-6.062.674-12.15 1.237-18.192 2.07a51.7 51.7 0 0 0-8.668 1.882 8.6 8.6 0 0 1-2.131.486 11 11 0 0 1-2.334-.258 31 31 0 0 0-4.345-.39c-2.979-.065-5.965.178-8.934.394a57 57 0 0 0-8.744 1.169c-2.803.65-5.517 1.818-8.431 1.862-1.506.023-3.003-.168-4.503-.267a32 32 0 0 0-4.452.03 83 83 0 0 0-8.937 1.32c-2.941.544-5.882 1.089-8.807 1.712a77.3 77.3 0 0 0-16.542 5.07c-4.595 2.137-8.887 5.376-11.197 9.996a14.72 14.72 0 0 0-.088 13.074 20.43 20.43 0 0 0 8.255 8.536 21 21 0 0 0 5.241 1.827c-.417.045-.836.077-1.252.132a51.5 51.5 0 0 0-10.93 2.644 29.9 29.9 0 0 0-8.57 4.607 15.57 15.57 0 0 0-5.676 8.644 12.8 12.8 0 0 0-.052 5.366 13 13 0 0 0 .918 3.712 20.46 20.46 0 0 0 6.636 8.18 50.6 50.6 0 0 0 17.555 8.668 22.7 22.7 0 0 0-4.664.752 9.6 9.6 0 0 0-3.36 1.534 27 27 0 0 0-4.016-.215 18.25 18.25 0 0 0-8.549 2.144c-2.143 1.213-4.444 3.135-5.34 5.505a14.16 14.16 0 0 0-8.391 3.632 6.78 6.78 0 0 0-2.282 4.972 10.3 10.3 0 0 0 .192 1.777 5.4 5.4 0 0 0-.52 1.309 5.7 5.7 0 0 0-.153 2.47 22 22 0 0 0 1.757 5.076 69 69 0 0 0 2.415 4.976q.622 1.173 1.268 2.334c.188.338.365.727.57 1.096l-.06.04a8.47 8.47 0 0 0-3.403 5.537 9.98 9.98 0 0 0 2.316 7.037 7 7 0 0 0 .138 1.431 9.4 9.4 0 0 0 1.186 3.029 40 40 0 0 0 4.336 5.63q2.449 2.883 5.025 5.654 1.285 1.388 2.598 2.749a16 16 0 0 0 1.351 1.323c.031.026.066.046.098.071a4 4 0 0 0 .566.513l.016.008a120 120 0 0 0 3.098 6.05 26.4 26.4 0 0 0 5.179 7.006 27 27 0 0 0 3.771 2.766 44.8 44.8 0 0 0 8.545 13.728c2.087 2.166 4.442 4.047 6.683 6.047a94 94 0 0 1 6.186 6.075c3.983 4.27 7.618 8.849 11.168 13.48 3.518 4.59 6.872 9.372 10.66 13.744a15.6 15.6 0 0 0 3.021 2.769 13.8 13.8 0 0 0 3.985 1.697 37 37 0 0 1 4.085 1.288 28 28 0 0 1 3.843 2.017c2.473 1.517 4.798 3.267 7.195 4.9q3.743 2.548 7.598 4.926a304 304 0 0 0 31.75 16.867c7.766 3.612 15.61 7.073 23.594 10.176 1.769 1.238 3.566 2.438 5.34 3.653q5.242 3.593 10.536 7.109c3.52 2.346 7.016 4.738 10.568 7.035a19 19 0 0 0 5.104 2.464 17.5 17.5 0 0 0 5.45.596 30.2 30.2 0 0 0 6.344-1.018 27 27 0 0 0 3.008-.998 9 9 0 0 0 1.466-.668c.422-.257.795-.55 1.228-.781q1.141-.098 2.277-.24c7.046-.879 14.072-2.014 21.092-3.078 14.194-2.151 28.363-4.513 42.394-7.563 6.995-1.52 13.976-3.174 21.093-4.027a190 190 0 0 1 21.535-1.115q10.752-.058 21.482.643c6.111.39 12.193 1.072 18.283 1.69 3.588.56 7.127 1.324 10.662 2.157a75 75 0 0 0 11.437 1.92c3.932.304 7.867.443 11.787.898 3.898.453 7.772 1.086 11.645 1.705q11.699 1.871 23.39 3.789c8.78 1.457 17.615 2.656 26.363 4.298.195.037.28-.254.083-.301-3.91-.946-7.805-1.945-11.727-2.837-3.842-.874-7.71-1.646-11.58-2.38-7.755-1.472-15.553-2.71-23.346-3.964-3.881-.624-7.76-1.273-11.656-1.806-3.91-.534-7.82-.863-11.756-1.105a78.4 78.4 0 0 1-11.688-1.488c-3.798-.813-7.56-1.781-11.407-2.348a108 108 0 0 0-6.984-.785 214.5 214.5 0 0 0-28.904-1.997c-7.177-.1-14.378-.019-21.54.51a152 152 0 0 0-20.812 3.176c-13.89 2.996-27.795 5.707-41.833 7.925-7.027 1.11-14.065 2.148-21.104 3.175-6.764.987-13.937 2.573-20.52-.078a41.7 41.7 0 0 1-8.282-4.872c-2.917-2.06-5.816-4.146-8.723-6.22q-4.363-3.111-8.733-6.211c-1.55-1.095-3.146-2.126-4.746-3.15q.407.174.814.352c.256.111.478-.235.225-.385-2.893-1.707-5.774-3.42-8.713-5.048-2.984-1.653-6.009-3.225-9.035-4.8q-8.945-4.656-17.936-9.224l-36.067-18.415a117 117 0 0 1-10.938-6.074 8.2 8.2 0 0 0 2.694-3.512c.013-.035-.039-.053-.057-.025a6.2 6.2 0 0 1-3.238 2.744 18 18 0 0 0-.258-.946c.225-.312.395-.645.606-.978.288-.455.6-.903.9-1.351a38 38 0 0 0 1.672-2.699 24 24 0 0 0 1.293-2.713 3.77 3.77 0 0 0 .433-2.695c-.01-.027-.055-.016-.046.013.328 1.06-.385 2.229-.843 3.156a27 27 0 0 1-1.4 2.505 16 16 0 0 1-1.825 2.393 6.6 6.6 0 0 1-1.023 1.001 5.8 5.8 0 0 0-1 .74.69.69 0 0 0-.175.66l.049.173a43 43 0 0 1-2.169-1.688 1.25 1.25 0 0 0 .438-.528 2.2 2.2 0 0 1 .208-.477 3 3 0 0 1 .557-.445 11 11 0 0 0 1.01-.941 14.5 14.5 0 0 0 1.74-2.106 7.6 7.6 0 0 0 1.21-2.541c.004-.024-.032-.044-.044-.018a14.6 14.6 0 0 1-1.17 2.245 7 7 0 0 1-1.895 1.867 7 7 0 0 1-1.1.557 3.3 3.3 0 0 0-1.117.572 1.24 1.24 0 0 0-.344.598c-.047.214.056.435.005.644a.6.6 0 0 1-.055.111l-.184-.152c-4.694-4.14-8.823-8.918-13.076-13.497q-6.914-7.445-13.831-14.889c-4.038-4.337-8.1-8.691-12.877-12.232-2.344-1.737-4.888-3.115-7.383-4.613a22 22 0 0 1-6.624-5.73 71 71 0 0 1-4.655-7.811l-1.147-2.07c.005-.027.024-.05.015-.076a2 2 0 0 0-.352-.664 2 2 0 0 0-.165-.168 171 171 0 0 1-2.964-5.548c-.726-1.437-1.56-2.819-2.35-4.222a.118.118 0 0 0-.214.09 92 92 0 0 0 2.26 5.986 2 2 0 0 1-.166-.176c-.163-.298-.32-.6-.494-.892q-1.149-1.94-2.395-3.818c-1.633-2.463-3.439-4.822-5.302-7.115-1.615-1.987-3.508-3.934-4.506-6.333a6.03 6.03 0 0 1 .693-6.119c2.825-3.698 8.258-4.65 12.599-4.881a41.4 41.4 0 0 1 16.087 2.616 65.5 65.5 0 0 1 14.584 7.587 53.4 53.4 0 0 1 11.854 10.639 39 39 0 0 1 2.348 3.288 26 26 0 0 0 2.183 3.124 7.96 7.96 0 0 0 3.13 2.185c1.214.483 2.468.85 3.676 1.352a58.3 58.3 0 0 1 13.097 8.046c4.134 3.2 8.072 6.645 12.235 9.808 2.123 1.612 4.366 3.05 6.505 4.637a14.17 14.17 0 0 1 5.106 5.996 13 13 0 0 1 .548 1.743c.143.64.37 1.25.471 1.903.053.342.513.255.61 0a5.2 5.2 0 0 0 .432-1.906 6.6 6.6 0 0 0-.326-1.828 18.7 18.7 0 0 1 3.3.144 22 22 0 0 1 4.2 1.304c1.4.564 2.798 1.136 4.219 1.644.697.25 1.398.491 2.093.748.115.043.239.082.362.122a47 47 0 0 0-7.265 3.37 18.65 18.65 0 0 0-8.84 10.73c-1.343 4.582-.898 9.376-.002 13.996a19.6 19.6 0 0 0 1.02 4.086c.042.13.074.26.117.39a.25.25 0 0 0 .093.11c.139.34.264.685.426 1.014 2.57 5.197 8.191 7.592 13.464 9.15 11.717 3.466 24.135 2.126 36.156 1.86 3.074-.069 6.15-.075 9.221.076 3.18.156 6.339.539 9.507.837a54.4 54.4 0 0 0 9.554.25 29.1 29.1 0 0 0 9.045-2.29 42.5 42.5 0 0 1 8.913-3.025 62 62 0 0 1 9.664-.755q5.332-.127 10.66-.347a13.6 13.6 0 0 0 2.062.775 57 57 0 0 0 3.744 1.048 73 73 0 0 0 7.527 1.396 77 77 0 0 0 15.163.667 72 72 0 0 0 8.38-1.025c.117-.02.09-.21-.028-.207-4.982.16-9.98-.007-14.952-.338a116 116 0 0 1-14.847-1.902q-1.512-.299-3.022-.604 2.436-.132 4.87-.302c12.858-.905 25.96-2.39 38.24-6.482a92 92 0 0 0 4.532-1.654.172.172 0 0 0-.091-.331 299 299 0 0 1-37.716 6.103c-6.296.554-12.61.884-18.927 1.082-6.213.195-12.66-.1-18.693 1.646-2.954.855-5.66 2.35-8.562 3.343a27.7 27.7 0 0 1-9.07 1.337c-6.19-.014-12.32-1.153-18.511-1.293-11.874-.268-23.88 1.515-35.692-.297a48.6 48.6 0 0 1-8.437-2.038 25.1 25.1 0 0 1-7.69-3.904c-4.16-3.361-5.184-8.935-5.43-13.998q-.03-.603-.054-1.203a27 27 0 0 1 .21-3.598 16.7 16.7 0 0 1 7.04-11.734c3.999-2.812 8.724-4.34 13.286-5.961q8.574-3.048 17.147-6.102a136.5 136.5 0 0 1 16.78-5.315 82 82 0 0 1 17.453-1.545c5.876.007 11.745.342 17.62.438a45 45 0 0 0 8.44-.459 28.8 28.8 0 0 0 7.945-2.85c5.03-2.522 10.013-5.052 15.24-7.152 5.208-2.092 10.459-4.148 15.833-5.777 1.325-.402 2.615-.914 3.914-1.39.095-.035.092-.207-.026-.192a61 61 0 0 0-6.887 1.32 31.2 31.2 0 0 0-8.37-1.475 74 74 0 0 1 3.408-3.23 30.7 30.7 0 0 1 5.755 1.098c2.326.68 4.593 1.568 6.874 2.381.042.015.071-.053.03-.071-3.844-1.742-8.11-3.504-12.417-3.613a77 77 0 0 1 10.054-7.535 109 109 0 0 1 26.388-11.668 144 144 0 0 1 30.959-5.816 135.6 135.6 0 0 1 31.517 1.227 155.4 155.4 0 0 1 26.878 7.165.5.5 0 0 0 .17.06c.692.243 1.385.483 2.076.732 1.449.612 2.881 1.262 4.252 2.012a15.2 15.2 0 0 1 3.222 2.297c.977.928 1.856 1.956 2.878 2.837a24 24 0 0 0 6.89 3.851c2.676 1.076 5.408 2.01 8.159 2.876 3.367 1.061 6.766 2.024 10.169 2.97-.043-.005-.085-.015-.128-.02a.102.102 0 0 0-.05.19 47 47 0 0 0 6.334 2.218c2.242.698 4.481 1.407 6.731 2.08 4.458 1.333 8.928 2.63 13.422 3.836 8.946 2.4 17.904 4.83 26.972 6.725 5.131 1.072 10.27 2.087 15.417 3.08a.14.14 0 0 0 .074-.27c-8.96-2.51-17.88-5.135-26.899-7.431q-8.362-2.13-16.714-4.298a222 222 0 0 0-6.973-2.457c-2.832-.938-5.705-1.76-8.562-2.62q-8.552-2.571-17.1-5.157c-2.768-.838-5.523-1.723-8.234-2.73a31.4 31.4 0 0 1-7.243-3.456c-2.226-1.565-3.791-3.855-6.085-5.357a31 31 0 0 0-5.464-2.716c.99-.32 1.972-.672 2.952-1.02 1.95-.691 3.892-1.399 5.838-2.098a114 114 0 0 1 11.547-3.902 51.6 51.6 0 0 1 11.716-1.023l12.513-.132c16.516-.173 33.037-.264 49.551-.563 9.345-.17 18.706-.478 28.029-1.157a.133.133 0 0 0 0-.266c-16.67-.84-33.37-.478-50.052-.293l-25.025.279-12.513.149a84.4 84.4 0 0 0-12.14.615c-4.478.704-8.716 2.562-12.931 4.158l-6.507 2.463c-1.664.631-3.346 1.255-4.957 2.016l-.004-.001c-2.972-1.14-6.035-2.04-9.098-2.897l-1.007-.282q-3.408-1.109-6.89-1.977a.02.02 0 0 0-.007-.028c-3.393-1.949-6.815-3.845-10.235-5.747a.027.027 0 0 0-.028.047c3.382 1.914 6.76 3.832 10.167 5.7q-3.529-.884-7.097-1.55a136 136 0 0 0-31.922-2.128 145.8 145.8 0 0 0-31.688 5.138 116.2 116.2 0 0 0-27.437 11.205c-8.316 4.84-15.863 11.015-21.362 18.975-.2.29-.382.592-.571.89-2.41-2.135-5.041-4.077-7.614-5.994q-4.368-3.254-8.942-6.218c-.026-.016-.049.024-.024.04q4.487 2.99 8.8 6.231 2.242 1.681 4.432 3.432c1.092.873 2.16 1.783 3.25 2.66-.15.238-.31.47-.457.712-.633.264-1.261.54-1.889.815-2.692-2.086-5.506-4.026-8.247-6.048q-4.231-3.122-8.44-6.277c-.031-.024-.074.03-.042.055q4.044 3.192 8.17 6.275c2.751 2.058 5.493 4.176 8.354 6.083q-1.414.625-2.817 1.277c-1.939-1.476-3.95-2.865-5.915-4.302q-3.662-2.679-7.303-5.385c-.032-.024-.074.03-.043.055q3.47 2.758 7.024 5.403c1.975 1.469 3.95 2.97 6.001 4.34-.965.452-1.931.902-2.887 1.372-.656-.576-1.387-1.088-2.061-1.629q-1.327-1.063-2.64-2.14a449 449 0 0 0-3.933-3.18q-.193-.695-.44-1.37a21.5 21.5 0 0 0-2.093-3.9.074.074 0 0 0-.128.075 20.3 20.3 0 0 1 1.38 3.815c.041.145.073.291.113.436l-.119-.095c-.042-.034-.102.022-.06.06l.221.2a28 28 0 0 1 .692 3.189c.016.107.037.29.075.483.005.088.007.177.017.266q.032.282.073.565c-.29-.083-.579-.161-.856-.228a21 21 0 0 0-1.083-.223 21.3 21.3 0 0 0-6.227-12.87c-.021-.022-.052.01-.033.033a23.3 23.3 0 0 1 3.579 6.497 24 24 0 0 1 1.502 6.153 66 66 0 0 0-8.382-.337l-5.78-.038-.112-.132q-.173-.202-.348-.403-.315-.362-.635-.719-.676-.753-1.376-1.484-1.401-1.462-2.895-2.83a61 61 0 0 0-6.168-4.923c-.033-.024-.064.03-.031.054a64 64 0 0 1 7.49 6.288q1.677 1.639 3.226 3.401c.215.245.421.501.637.747l-5.22-.034a64 64 0 0 0-9.287.375 20.7 20.7 0 0 0-4.745 1.197c-1.15.453-2.836 1.1-3.603 2.208a9.5 9.5 0 0 0-1.35-1.562 16.5 16.5 0 0 0-6.528-3.264 151 151 0 0 0-16.672-4.184c-2.608-.488-5.468-.803-7.859.551a7.7 7.7 0 0 0-1.506-2.033c-1.988-1.932-4.567-3.31-6.884-4.802-5.03-3.237-10.108-6.409-15.375-9.249a109 109 0 0 0-4.553-2.34q-1.154-.554-2.327-1.07a4.8 4.8 0 0 0-2.22-.596 19.8 19.8 0 0 0-3.803-4.745c-2.253-2.263-4.574-4.467-6.996-6.552q.177-.031.364-.06.793-.12 1.593-.186a32 32 0 0 1 3.11-.103 62 62 0 0 1 6.255.469c2.032.233 4.076.463 6.089.826a16.3 16.3 0 0 1 5.393 1.802 18.4 18.4 0 0 1 4.05 3.37.146.146 0 0 0 .246-.102 5.35 5.35 0 0 0-1.305-2.956l.043-.001c.573-.034 1.143-.094 1.718-.112a27 27 0 0 1 3.341.083c2.229.202 4.428.652 6.624 1.068a92 92 0 0 0 6.735 1.002 21 21 0 0 1 6.166 1.373 10.36 10.36 0 0 1 4.883 3.712.141.141 0 0 0 .257-.108 7.4 7.4 0 0 0-1.902-3.37c1.051-.138 2.108-.37 3.123-.508 1.741-.237 3.493-.385 5.24-.577q5.26-.578 10.518-1.175a39 39 0 0 1 10.566-.138 60 60 0 0 1 9.516 2.367 47.6 47.6 0 0 1 9.752 4.555c.11.068.246-.097.142-.184a39.6 39.6 0 0 0-17.655-8.15 36.2 36.2 0 0 0-10.86-.326c-3.671.382-7.335.842-11 1.276-1.98.234-3.963.466-5.934.763a14.7 14.7 0 0 0-4.504 1.159c-.05-.036-.09-.08-.14-.114a14.46 14.46 0 0 0-6.078-1.958c-2.408-.347-4.828-.544-7.225-.976-2.35-.424-4.69-.925-7.067-1.19a25 25 0 0 0-3.924-.168 13.4 13.4 0 0 0-2.027.24 2.33 2.33 0 0 0-1.272.53 14.1 14.1 0 0 0-5.413-2.431 57 57 0 0 0-6.416-.987c-2.238-.273-4.478-.507-6.733-.558a36 36 0 0 0-3.835.106q-.871.076-1.737.2a4.7 4.7 0 0 0-1.892.464c-.015.01-.024.024-.037.035-.21-.174-.413-.354-.624-.526a58.6 58.6 0 0 0-12.073-7.752c-.317-.33-.645-.65-.966-.97-.562-.561-1.143-1.102-1.717-1.65a.05.05 0 0 0-.072.072c.546.576 1.085 1.159 1.644 1.722q.279.282.557.568a39 39 0 0 0-8.338-2.717 27.3 27.3 0 0 0-6.292-.636 9.6 9.6 0 0 0-2.82.474 5.3 5.3 0 0 0-1.856.993 56.3 56.3 0 0 0-8.856-12.332 43.1 43.1 0 0 0-11.807-8.518 37.2 37.2 0 0 0-9.617-3.178 13 13 0 0 1 1.988-.63 24 24 0 0 1 4.773-.48 226 226 0 0 1 6.504-.02c.686.097 1.37.203 2.06.275a17.5 17.5 0 0 0 5.293-.225q4.637.031 9.274.114c3.59.066 7.208.05 10.788.343a23.8 23.8 0 0 1 5.018.922c.765.234 1.485.534 2.222.838a11.3 11.3 0 0 1 2.285 1.163c.123.089.293-.085.209-.208-.247-.36-.487-.715-.757-1.047.672.012 1.334-.01 2.011-.062q2.193-.168 4.392-.242 4.526-.157 9.059-.075c3.026.055 6.05.187 9.072.351 2.825.154 5.666.238 8.484.487a18.2 18.2 0 0 1 3.707.678 12.6 12.6 0 0 1 3.195 1.6.122.122 0 0 0 .178-.137 4.2 4.2 0 0 0-1.52-1.994c.807-.02 1.616-.024 2.424-.037 1.786-.029 3.573-.123 5.358-.195 3.614-.145 7.227-.33 10.84-.497 6.658-.305 13.405-.564 19.83 1.518a26.1 26.1 0 0 1 8.629 4.88c.107.089.298-.027.208-.162a16.4 16.4 0 0 0-6.775-5.458c-.203-.096-.413-.17-.618-.258l-.003-.012a.5.5 0 0 0-.037-.21.2.2 0 0 0-.058-.1l-.012-.016c.02.026-.003-.004-.01-.015a2 2 0 0 1-.13-.209l-.046-.091-.014-.04a2 2 0 0 1-.063-.24l-.004-.022-.009-.12c-.005-.079.002-.156.002-.234a2 2 0 0 0-.008-.14c.055-.074.115-.144.167-.221a8.2 8.2 0 0 0 1.032-2.374 6.8 6.8 0 0 0 .288-2.54 9 9 0 0 0-.706-2.471c-.01-.027-.053-.018-.045.012a5.85 5.85 0 0 1 .08 2.413 9.5 9.5 0 0 1-.559 2.264 7 7 0 0 1-1.19 1.847 10 10 0 0 1-.828.857 3.2 3.2 0 0 0-.621.621 31.6 31.6 0 0 0-5.819-1.137 73 73 0 0 0-10.968-.116c-3.728.168-7.455.352-11.183.528a378 378 0 0 0-6.23.334c-1.044.067-2.098.138-3.135.282a4.6 4.6 0 0 0-1.595.395 12 12 0 0 0-1.904-.545 60 60 0 0 0-8.126-.725c-3.156-.182-6.323-.346-9.491-.434-.78-.69-1.62-1.333-2.407-2.003q-1.543-1.314-3.082-2.634-3.077-2.64-6.114-5.327c-.011-.01-.028.006-.016.017q3.062 2.745 6.164 5.445 1.53 1.33 3.073 2.643c.712.605 1.413 1.254 2.144 1.851-1.572-.042-3.145-.07-4.717-.06-4.493-3.848-9.175-7.49-13.819-11.149-.02-.015-.047.012-.028.028 4.523 3.756 9.037 7.55 13.709 11.122-1.43.01-2.859.041-4.286.108q-2.69.127-5.372.382a16.3 16.3 0 0 0-2.607.381c-.31.082-.65.152-.982.246a8.3 8.3 0 0 0-1.384-.883 14.9 14.9 0 0 0-4.55-1.246 94 94 0 0 0-10.995-.53q-6.107-.13-12.215-.135c-1.905-.003-3.813-.009-5.72.008q-1.295-.18-2.58-.427a52.2 52.2 0 0 1-10.231-3.082 50.2 50.2 0 0 1-9.128-4.982 24.4 24.4 0 0 1-7.074-7.001 17.4 17.4 0 0 1-2.098-5.132 10 10 0 0 1-.246-2.732 12 12 0 0 1 .279-1.824 14.3 14.3 0 0 1 4.787-7.514 26.8 26.8 0 0 1 8.178-4.52 52.7 52.7 0 0 1 10.371-2.642 51.6 51.6 0 0 1 10.635-.468 67 67 0 0 1 7.181.9c-.029.032-.03.082.025.083.852.018 1.705.251 2.552.351l.09.01q.604.104 1.209.203c.659.106 1.315.187 1.971.27a24 24 0 0 1 1.728.443 12.2 12.2 0 0 0 2.396.717 7.4 7.4 0 0 0 2.204-.488c.386-.093.774-.166 1.165-.227.596-.004 1.19-.002 1.791-.026 3.888-.152 7.773-.34 11.66-.512l12.939-.57a55 55 0 0 1 5.682-.13 19 19 0 0 1 5.005 1.098.245.245 0 0 0 .274-.356 4.4 4.4 0 0 0-.68-.835 23 23 0 0 1 2-.724 27 27 0 0 1 4.684-.97 97 97 0 0 1 9.828-.364c7.214-.06 14.435.031 21.633.56a17.7 17.7 0 0 1 5.281.85 6.3 6.3 0 0 1 1.879 1.196 5.7 5.7 0 0 1 1.498 1.8c.06.139.201.125.301.052.053.126.094.252.153.378.668 1.437 1.612 2.744 2.414 4.108a62 62 0 0 0 2.692 4.197c.042.06.158.026.128-.054-1.035-2.814-2.282-5.592-3.563-8.302a10.9 10.9 0 0 1-1.34-4.09 12.6 12.6 0 0 1 .101-2.21c.041-.322.094-.627.127-.932.338-.613.683-1.222 1.002-1.844a61 61 0 0 0 2.738-6.175c.79-2.074 1.443-4.208 2.035-6.346a47 47 0 0 0 .796-3.244c.216-1.073.234-2.165.377-3.247.004-.027-.039-.03-.046-.006-.31 1.072-.78 2.087-1.107 3.155-.306.993-.607 1.988-.933 2.975-.694 2.1-1.515 4.147-2.395 6.176a94 94 0 0 1-2.774 5.817q-.742 1.434-1.546 2.833-.388.676-.791 1.343a10 10 0 0 0-.666 1.107 10.6 10.6 0 0 0-3.164-.892 106 106 0 0 0-10.897-.704 299 299 0 0 0-11.196-.156c-3.526.01-7.075-.032-10.594.215a29.6 29.6 0 0 0-5.392.84 16.3 16.3 0 0 0-2.617.94 13 13 0 0 0-1.158.589c-.185.108-.373.232-.564.352-2.016-1.061-4.803-.85-6.966-.755q-6.096.265-12.192.543l-12.193.544a62.6 62.6 0 0 1-11.854-.301c-3.846-.557-7.648-1.392-11.526-1.72a52 52 0 0 0-3.353-.162l-.33-.118a9 9 0 0 0-1.612-.331c-1.025-.154-2.058-.243-3.08-.417a24.7 24.7 0 0 1-6.058-1.718c-.236-.107-.463-.23-.694-.345a20.2 20.2 0 0 1-5.887-5.73 13.56 13.56 0 0 1-1.727-12.337c1.744-4.708 5.82-8.073 10.183-10.277 4.985-2.519 10.542-3.937 15.969-5.135 2.836-.626 5.69-1.167 8.546-1.695 2.9-.536 5.804-1.115 8.742-1.414a36 36 0 0 1 4.326-.195c1.427.03 2.843.202 4.266.294a24 24 0 0 0 8.353-1.267c5.47-1.578 11.294-1.905 16.961-2.079a40 40 0 0 1 4.408.08c1.414.113 2.81.487 4.225.546a12.6 12.6 0 0 0 4.175-.897 41 41 0 0 1 4.123-1.013c2.855-.558 5.752-.856 8.64-1.178l8.956-.999c5.789-.645 11.62-1.142 17.376-2.037a57.9 57.9 0 0 0 25.208-2.103 40 40 0 0 0 4.663-1.8 3.7 3.7 0 0 0 1.046.773q.878.532 1.8.983a28 28 0 0 0 5.29 1.925 8.5 8.5 0 0 0-.24 3.697c-.384-.364-.782-.715-1.16-1.068q-1.14-1.066-2.307-2.1-2.306-2.045-4.739-3.931c-.03-.024-.075.018-.044.044q2.395 1.992 4.719 4.073 1.128 1.013 2.23 2.055c.456.432.9.895 1.361 1.333a19.3 19.3 0 0 0 2.76 6.505c.194.313.394.623.591.934-.004.023-.005.04-.01.065a.02.02 0 0 0 .038.01l.008-.019.115.182c.436 1.633 1.076 3.249 1.643 4.818q1.053 2.917 2.204 5.796c1.499 3.769 3.092 7.518 4.94 11.13 1.065 2.084 2.08 4.194 3.234 6.231.076.135.32.042.257-.108-3.163-7.578-6.415-15.113-9.347-22.788l-.302-.8c1.053 1.872 2.013 3.795 2.946 5.73 3.5 7.255 6.703 14.91 12.486 20.707.422.423.861.82 1.308 1.206a.3.3 0 0 0 .017.077 9.7 9.7 0 0 1 1.05 2.438 22 22 0 0 1 .313 2.954 13.3 13.3 0 0 0 2.248 6.437 34 34 0 0 0 5.068 5.586 51 51 0 0 1 5.335 5.781c1.599 2.06 3.07 4.214 4.69 6.257a49 49 0 0 0 4.928 5.365 68.5 68.5 0 0 0 11.588 8.577c4.694 2.82 9.634 5.144 14.561 7.52.126.06.235-.12.11-.19-4.233-2.384-8.44-4.839-12.536-7.453a79 79 0 0 1-11.556-8.717 52 52 0 0 1-4.988-5.326c-1.613-1.998-3.083-4.106-4.63-6.155a49.6 49.6 0 0 0-5.07-5.839 50 50 0 0 1-5.404-5.561 14 14 0 0 1-1.925-3.34 12.7 12.7 0 0 1-.713-3.553 16 16 0 0 0-.413-2.83 52.5 52.5 0 0 0 6.106 3.448c1.89.934 3.775 1.868 5.587 2.949 1.885 1.124 3.703 2.354 5.557 3.529 7.371 4.67 15.759 7.616 24.066 10.146a110 110 0 0 0 25.592 4.857q1.633.094 3.269.159c.148.005.141-.211 0-.227-4.286-.462-8.538-1.163-12.783-1.907q-6.29-1.102-12.45-2.816a103.4 103.4 0 0 1-23.671-9.652c-3.72-2.13-7.169-4.703-10.952-6.727-3.506-1.876-7.234-3.48-10.375-5.96-6.186-4.886-9.771-12.05-13.072-19.025a117 117 0 0 0-5.755-11.184c-2.094-3.415-4.845-6.778-5.158-10.932a10.5 10.5 0 0 1 .076-2.061 48 48 0 0 0 8.582.978 66.7 66.7 0 0 0 14.604-.886 32 32 0 0 0 2.908-.71 4.46 4.46 0 0 0 .864 2.414 7.3 7.3 0 0 0 6.802 3.325 5.2 5.2 0 0 0 1.99-.516 3.3 3.3 0 0 0 .45-.288 7.4 7.4 0 0 0 .796 4.466 26.6 26.6 0 0 0 3.959 4.914 47 47 0 0 0 2.812 2.82c.74.685 1.505 1.34 2.252 2.014a3.4 3.4 0 0 0 .56.896 1.23 1.23 0 0 0 1.031.41.142.142 0 0 0 .122-.211c-.234-.349-.45-.75-.668-1.116a12 12 0 0 1-.587-1.185 84 84 0 0 1-1.345-3.223 40 40 0 0 1-2.03-6.438c-.012-.055-.091-.03-.083.023a49 49 0 0 0 1.597 7.257c.144.454.308.902.475 1.348l-.01-.015a49 49 0 0 0-1.906-2.513c-1.268-1.577-2.745-2.988-3.968-4.6a7.5 7.5 0 0 1-1.632-4.942 10 10 0 0 1 2.055-5.164 22.4 22.4 0 0 1 2.13-2.433 13.4 13.4 0 0 0 2.039-2.302c.051-.084-.047-.156-.123-.123a9.5 9.5 0 0 0-2.37 1.664 21 21 0 0 0-2.208 2.24 12.16 12.16 0 0 0-2.69 4.988c-.317.062-.638.113-.956.173-.53.102-1.071.233-1.609.29a6.15 6.15 0 0 1-3.104-.448 6.3 6.3 0 0 1-2.338-1.836 7.7 7.7 0 0 1-.824-1.28 5 5 0 0 0-.496-.904 23 23 0 0 0 3.422-1.428 14 14 0 0 0 3.033-2.052 11.7 11.7 0 0 0 2.227-3.06.212.212 0 0 0-.332-.256 26 26 0 0 1-3.341 2.573 20.7 20.7 0 0 1-3.563 2.016 29.7 29.7 0 0 1-8.282 2.112 74 74 0 0 1-8.934.475 54.3 54.3 0 0 1-9.801-.723 28.7 28.7 0 0 1-7.408-2.344c-.39-.617-.822-1.21-1.234-1.81-.544-.793-1.067-1.598-1.631-2.377a20.3 20.3 0 0 1 1.371-7.721c1.311-3.687 3.191-7.15 4.5-10.834a10.76 10.76 0 0 0 .441-6.27c-.015-.058-.115-.048-.107.014.399 2.981-1.043 5.888-2.338 8.485-1.273 2.553-2.646 5.045-3.7 7.701a22 22 0 0 0-1.75 7.903 14 14 0 0 0 .336 3.19 65.5 65.5 0 0 1-22.45 4.014c-.039-.01-.078-.027-.118-.037a8.3 8.3 0 0 0-1.7-.152c-.115-.002-.23.005-.345.004a.2.2 0 0 0-.105-.044 37 37 0 0 0-2.579-.035 52.2 52.2 0 0 1-20.325-6.447 51 51 0 0 1-16.78-15.2 40.5 40.5 0 0 1-3.003-4.993 8.35 8.35 0 0 1-.954-6.143c1.142-3.748 5.099-5.695 8.689-6.29a38.3 38.3 0 0 1 6.732-.3c2.306.03 4.61.023 6.916-.06a127.3 127.3 0 0 0 27.454-4.065c4.482-1.177 8.84-2.687 13.217-4.192 4.214-1.449 8.56-2.803 13.047-2.931a14 14 0 0 0 .284 1.593c.11.828.146 1.666.24 2.496a54 54 0 0 1 .06 5.765.016.016 0 0 0 .03 0c.176-2.07.263-4.139.61-6.187a8 8 0 0 0 .049-2.525 4 4 0 0 0-.306-1.14c.493.007.984.037 1.472.076q-.017.128-.027.242a5.4 5.4 0 0 0 .288 1.386c.181 1 .241 2.037.35 3.048.225 2.068.057 4.166.134 6.241a.027.027 0 0 0 .055 0c.112-2.114-.02-4.25.246-6.355a25 25 0 0 0 .296-3.08 3.8 3.8 0 0 0-.107-1.349 77 77 0 0 1 10.125 2.39 136.3 136.3 0 0 0 41.417 4.495c4.736-.217 9.431-.96 14.163-1.162a25.2 25.2 0 0 1 6.73.475 39 39 0 0 1 5.556 1.795 48 48 0 0 1 2.73 1.184l.037.031a28 28 0 0 0 2.98 1.442c1.646.821 3.289 1.647 4.98 2.368a43 43 0 0 0 5.58 1.92.074.074 0 0 0 .04-.143 39 39 0 0 1-6.91-3.053 40 40 0 0 0 3.914.59c3.75.387 7.53.38 11.288.658a96 96 0 0 1 22.577 4.592 128.4 128.4 0 0 1 21.14 9.177 207 207 0 0 1 20.226 12.624q4.927 3.44 9.83 6.914c.63.447 1.267.885 1.903 1.323a.34.34 0 0 0 .208.443c.238.068.479.126.717.193 2.323 1.581 4.668 3.13 6.952 4.766q1.23.88 2.455 1.77c.157.113.36-.147.209-.27-2.192-1.787-4.34-3.626-6.5-5.448 2.982.732 5.997 1.353 9.005 1.943 4.359.856 8.73 1.616 13.128 2.238a167 167 0 0 0 26.58 1.637c8.923-.172 17.847-.768 26.75-1.355 8.822-.581 17.642-1.27 26.421-2.331a217 217 0 0 0 26.02-4.514q1.597-.395 3.191-.797c.204-.052.114-.34-.085-.31M86.279 280.847q2.428 1.498 4.968 2.81c12.017 6.244 24.123 12.32 36.185 18.476 6.08 3.104 12.145 6.238 18.248 9.294 5.689 2.847 11.353 5.765 17.165 8.356 1.489 1.145 2.997 2.267 4.468 3.448a194 194 0 0 0 8.542 6.455l8.883 6.36c2.718 1.947 5.4 3.975 8.25 5.727a26 26 0 0 0 8.674 3.61 25.6 25.6 0 0 0 4.984.412c-.82.204-1.637.414-2.456.617a36 36 0 0 1-5.49 1.067 17.3 17.3 0 0 1-5.395-.28 16.3 16.3 0 0 1-5.084-2.248c-3.387-2.14-6.684-4.435-10.018-6.655-3.455-2.302-6.908-4.607-10.394-6.86q-.84-.545-1.68-1.097 2.075.753 4.162 1.469c1.383.473 2.756.977 4.137 1.455.178.062.302-.224.13-.307-5.312-2.539-10.636-5.044-16.02-7.426a66 66 0 0 0-2.565-1.445.29.29 0 0 0-.388.154c-4.535-1.981-9.083-3.936-13.59-5.982a330 330 0 0 1-31.772-16.308q-7.604-4.502-14.853-9.561a46.5 46.5 0 0 0-7.335-4.443 26.4 26.4 0 0 0-3.603-1.277 4.8 4.8 0 0 0 .962-1.373.047.047 0 0 0-.081-.047 5.4 5.4 0 0 1-1.127 1.246 1 1 0 0 1-.13.059l-.032-.01q-.654-.179-1.305-.373a1.5 1.5 0 0 1 .175-.364 4 4 0 0 1 .44-.657c.318-.394.684-.754 1.039-1.115a5.85 5.85 0 0 0 1.906-3.188m-.145-.09a3.85 3.85 0 0 1-.955 2.118c-.758.89-1.814 1.48-2.652 2.288a3.1 3.1 0 0 0-.625.74 12 12 0 0 1-1.424-.585.5.5 0 0 1-.042-.187 1 1 0 0 1 .023-.144l.023-.02a21 21 0 0 0 1.641-1.697c.513-.573 1.086-1.085 1.652-1.603.508-.465.988-.96 1.48-1.44.288.186.588.35.879.53M35.752 232.6a63.8 63.8 0 0 1 13.752 11.477c4.53 4.767 8.96 9.63 13.436 14.448 4.449 4.79 8.8 9.7 13.43 14.316a62 62 0 0 0 6.771 5.924 41 41 0 0 0 2.039 1.415c-.738.588-1.485 1.162-2.208 1.77-.797.669-1.673 1.22-2.508 1.838a9.6 9.6 0 0 0-1.058.896c-2.08-1.441-3.617-3.667-5.154-5.625-1.77-2.253-3.504-4.534-5.24-6.814-3.509-4.608-7.021-9.221-10.81-13.606a112 112 0 0 0-5.894-6.347c-2.097-2.077-4.332-3.987-6.566-5.912a42.5 42.5 0 0 1-6.213-6.336 73 73 0 0 1-4.622-7.245c-.211-.357-.428-.711-.641-1.068zm-25.236-31.482a144 144 0 0 1 5.413 7.421q.483.709.967 1.414l-.246-.26q-2.415-2.597-4.73-5.283a54 54 0 0 1-4.365-5.392 11 11 0 0 1-1.437-2.928c-.037-.124-.06-.25-.09-.375 1.468 1.822 3.046 3.56 4.488 5.403m224.282 11.468a61 61 0 0 1 8.3 1.349 96 96 0 0 0-6.42 1.878 63 63 0 0 0-1.773-.251c-.86-.11-1.724-.25-2.59-.323a71 71 0 0 1 2.483-2.653m-2.646 2.833c.899.175 1.813.276 2.718.404q.636.089 1.271.165-1.171.39-2.332.795c-1.365.479-2.719.99-4.065 1.524a67 67 0 0 1 2.408-2.888m-229.127-41.9a33 33 0 0 1-1.823-4.802 5.06 5.06 0 0 1-.083-2.608l.014-.051c.3 1.05.662 2.085.962 3.09.625 2.09 1.213 4.21 1.853 6.31a62 62 0 0 1-.923-1.938m48.881 16.503a70.3 70.3 0 0 0-14.79-8.392 45.8 45.8 0 0 0-16.544-3.657c-4.512-.077-9.523.533-13.426 3.006-.688-3.599-1.835-7.11-2.84-10.63-.54-1.887-1.146-3.763-1.634-5.664a5.4 5.4 0 0 1 .572-4.754c1.736-2.427 4.984-3.642 7.832-4.038a23.9 23.9 0 0 1 9.453.813c12.698 3.425 22.721 12.878 29.966 23.508a113 113 0 0 1 6.07 10.103c.95 1.768 1.852 3.56 2.725 5.367q.367.765.742 1.532a56 56 0 0 0-8.126-7.194m84.113 48.89a41 41 0 0 0-1.786-4.328q-1.058-2.337-2.234-4.616-1.952-3.792-4.22-7.396 2.148.88 4.27 1.815a102 102 0 0 1 3.656 6.675c1.119 2.25 2.074 4.563 3.076 6.861zm2.94-1.053a66 66 0 0 0-3.04-6.788c-1.142-2.275-2.414-4.476-3.76-6.635q2.327 1.024 4.601 2.153a96 96 0 0 1 2.346 4.089q.877 1.629 1.68 3.296c.432.899.788 1.883 1.247 2.784zm3.266-1.17c-.33-.886-.807-1.753-1.205-2.585q-.822-1.721-1.725-3.403a71 71 0 0 0-2.356-4.021 69 69 0 0 1 3.269 1.739c.105.06.206.125.31.186a109 109 0 0 1 1.945 3.368c.708 1.286 1.38 2.597 2.091 3.882Zm2.486-.89c-.617-1.31-1.343-2.58-2.059-3.826a109 109 0 0 0-1.965-3.267 53 53 0 0 1 4.06 2.586 12 12 0 0 1 1.145 2.083c.009.02.044.005.036-.015a9.7 9.7 0 0 0-1.087-2.004l.141.095c1.306.94 2.563 1.965 3.907 2.852zm70.423-16.58q1.273 1.048 2.558 2.082c.633.51 1.26 1.075 1.927 1.564-.337.167-.68.32-1.016.49a1.5 1.5 0 0 0-.265-.381 7.5 7.5 0 0 0-.864-.692 13 13 0 0 0-1.814-1.123c-.42-.221-.859-.405-1.294-.595l-.069-.093a7.7 7.7 0 0 0-.91-.917c-.304-.281-.603-.573-.932-.824a2.7 2.7 0 0 0-.52-.33q-.02-.009-.04-.015a6 6 0 0 0-.029-.292 16 16 0 0 0-.407-2.047 115 115 0 0 0 3.675 3.172m-17.278.957a74.5 74.5 0 0 1 10.224.376 21 21 0 0 1 4.938 1.294 40 40 0 0 1 3.886 2.055q.119.104.242.198a53 53 0 0 1-6.778 3.18 22.8 22.8 0 0 1-5.28 1.134 32 32 0 0 0-4.041-4.073 53 53 0 0 0-5.006-3.917c-.029-.02-.055.027-.027.048a66 66 0 0 1 4.92 4.101c1.353 1.235 2.577 2.607 3.905 3.863-.97.092-1.946.142-2.927.16-.352.006-.705.002-1.057.004-.542-.571-1.119-1.115-1.678-1.655q-1.47-1.423-3.009-2.77c-1.637-1.432-3.362-2.763-5.12-4.044zm-10.714-.073q1.868.012 3.735.026 2.692 2.034 5.234 4.254 1.416 1.242 2.773 2.55c.562.54 1.101 1.112 1.655 1.668q-2.175.01-4.35-.04a21 21 0 0 0-2.254-2.126 68 68 0 0 0-2.962-2.447 73 73 0 0 0-5.549-3.887q.86-.002 1.718.002M61.56 172.033a9.7 9.7 0 0 1 1.563-.787 9 9 0 0 1 2.35-.38 24.4 24.4 0 0 1 5.35.477c.402.073.795.18 1.193.268.91 2.163 1.821 4.32 2.605 6.533a62 62 0 0 1 1.069 3.36 26 26 0 0 0 1.027 3.39.047.047 0 0 0 .087-.024 16.4 16.4 0 0 0-.913-3.421A122 122 0 0 0 74.7 178a64 64 0 0 0-2.622-6.375 40 40 0 0 1 9.147 3.272c6.754 3.374 12.532 8.33 17.899 13.576a37 37 0 0 1 4.07 4.376 18.7 18.7 0 0 1 2.578 4.993.138.138 0 0 0 .264 0 5.3 5.3 0 0 0-.053-2.932 22 22 0 0 0 2.696 1.321 170 170 0 0 1 3.837 1.948 159 159 0 0 1 7.3 4.119 301 301 0 0 1 7.235 4.482c2.313 1.47 4.663 2.908 6.916 4.47a11.4 11.4 0 0 1 3.058 2.905 6 6 0 0 1 1.18 4.12c-.025.16.202.294.286.12a4.94 4.94 0 0 0 .26-3.688c2.128-.942 4.548-.65 6.766-.226 2.594.497 5.176 1.076 7.741 1.703q3.956.968 7.86 2.13a23.2 23.2 0 0 1 6.599 2.64 11.7 11.7 0 0 1 2.697 2.722c.777 1.04 1.563 2.08 2.29 3.155.082.12.31.048.25-.106a26.4 26.4 0 0 0-1.564-3.526 7.2 7.2 0 0 0 1.326-.648 17 17 0 0 1 1.9-.912 20.4 20.4 0 0 1 3.958-1.064 39.6 39.6 0 0 1 6.686-.476 75 75 0 0 1 5.713 4.189q1.407 1.142 2.763 2.346c.696.622 1.363 1.317 2.09 1.916a449 449 0 0 1-4.896-.159 38 38 0 0 0-4.199-3.374q-2.254-1.633-4.63-3.087c-.022-.013-.041.02-.02.034q2.316 1.475 4.517 3.119c1.424 1.066 2.772 2.226 4.185 3.303a447 447 0 0 0-5.021-.163 59 59 0 0 0-7.891-5.988c-.021-.014-.04.02-.02.033 2.685 1.874 5.228 3.92 7.793 5.951-.506-.012-1.011-.033-1.517-.04a98.7 98.7 0 0 0-17.85 1.04 97 97 0 0 0-16.613 4.807c-1.795-2.636-4.756-4.537-7.414-6.184a74 74 0 0 0-9.02-4.623c-6.94-3.075-14.042-5.807-21.071-8.671l-6.203-2.527-3.216-1.31a8.3 8.3 0 0 0-3.192-.995.52.52 0 0 0-.484.372 14 14 0 0 0-1.647-3.439 24.1 24.1 0 0 0-5.957-5.939q-7.73-5.78-15.521-11.481c-1.47-1.078-2.932-2.164-4.407-3.234q-1.053-.765-2.126-1.504c-.669-.462-1.276-1.09-2.12-.958a17 17 0 0 0-1.557-3.817c-1.347-2.582-2.77-5.126-4.184-7.672Zm-23.134-21.2a41 41 0 0 1 11.339 7.65 50.3 50.3 0 0 1 8.925 11.631c1.62 2.816 3.153 5.682 4.728 8.523 1.512 2.729 3.446 5.427 3.41 8.676-.002.123.193.192.247.067a5.4 5.4 0 0 0 .403-2.471c.15.134.316.265.504.415.645.515 1.298 1.02 1.95 1.526 1.235.958 2.497 1.879 3.75 2.813q3.786 2.823 7.585 5.63l7.496 5.54a35.4 35.4 0 0 1 6.421 5.479 21.5 21.5 0 0 1 2.357 3.574 28 28 0 0 1 1.904 4.142c.056.162.325.148.315-.042a15.7 15.7 0 0 0-.532-3.327 7 7 0 0 0 2.41 1.27c.918.378 1.837.75 2.756 1.125l5.512 2.249 11.025 4.498c2.228.91 4.473 1.798 6.71 2.713a127 127 0 0 1 4.124 7.455q1.132 2.236 2.172 4.519c.676 1.477 1.263 3.002 1.984 4.458l-4.226 1.514c-1.656.594-3.335 1.167-5.007 1.768a3 3 0 0 0-.302-.153c-.828-.368-1.664-.716-2.488-1.091q-2.397-1.093-4.848-2.058a20 20 0 0 0-4.757-1.406 9.8 9.8 0 0 0-4.123.189 13 13 0 0 0-1.587-2.517 28.5 28.5 0 0 0-6.479-5.397c-4.469-3.06-8.593-6.556-12.797-9.962a82 82 0 0 0-13.217-9.19q-1.744-.916-3.565-1.672c-1.237-.515-2.534-.878-3.765-1.403-2.562-1.092-3.67-3.79-5.17-5.945a40 40 0 0 0-1.033-1.404 21.7 21.7 0 0 0-1.777-4.892c-.77-1.691-1.6-3.359-2.433-5.02a107 107 0 0 0-5.469-9.689 68.8 68.8 0 0 0-13.72-15.917 48.6 48.6 0 0 0-17.371-9.529 28.5 28.5 0 0 0-9.723-1.198 18.6 18.6 0 0 1 1.808-2.022 14.2 14.2 0 0 1 2.84-2.01 17.5 17.5 0 0 1 7.135-2.038 31 31 0 0 1 14.579 2.928M187.027 48.713c.262.41.533.821.823 1.217a23 23 0 0 1-1.422-.808.674.674 0 0 0-.437-.971 13 13 0 0 1-.228-1.731 20 20 0 0 0 1.264 2.293m-46.394-37.58q-3.566.208-7.14.214c-2.336.004-4.677-.082-7.007.112a21 21 0 0 0-3.862.684 5.8 5.8 0 0 1 1.075-.753 6 6 0 0 1 2.209-.666 38 38 0 0 1 5.321-.073c3.414.055 6.826.21 10.234.422-.277.018-.553.044-.83.06"/><path fill="currentColor" d="M121.797 153.075a38 38 0 0 0-2.105-1.288 33 33 0 0 0-4.349-2.074c-.05-.02-.081.06-.036.086 1.388.792 2.751 1.62 4.102 2.473.655.414 1.296.85 1.938 1.285.34.232.673.476 1.016.702a2.04 2.04 0 0 0 .932.425.157.157 0 0 0 .15-.197c-.26-.631-1.105-1.05-1.648-1.412m1.615 3.583a25.5 25.5 0 0 0-3.123-2.161 36 36 0 0 0-3.93-1.937c-.067-.028-.126.062-.06.101a53 53 0 0 1 6.31 4.422c.284.227.911.945 1.318.616.423-.342-.279-.854-.515-1.041m.665 3.793a2 2 0 0 0-.206-.327 4 4 0 0 0-.344-.311c-.257-.207-.52-.408-.78-.612q-.736-.576-1.484-1.134a110 110 0 0 0-3.11-2.219c-.023-.015-.049.019-.03.037.944.86 1.894 1.71 2.867 2.537q.708.601 1.433 1.185.384.312.77.622c.109.087.224.163.34.238a1.8 1.8 0 0 0 .412.156.118.118 0 0 0 .132-.172m.349 2.502a1.7 1.7 0 0 0-.451-.54q-.284-.282-.576-.556a22 22 0 0 0-1.212-1.049 31 31 0 0 0-2.536-1.847c-.039-.025-.071.035-.036.061a31 31 0 0 1 2.417 2q.556.515 1.098 1.045.271.264.536.535a2.2 2.2 0 0 0 .553.51c.098.044.257-.032.207-.159m-.72 2.744a6 6 0 0 0-.536-.754 6.4 6.4 0 0 0-1.427-1.2c-.019-.011-.042.018-.024.031a7.8 7.8 0 0 1 1.263 1.325 9 9 0 0 1 .527.74 7 7 0 0 0 .49.763c.033.04.084-.005.078-.046a2.6 2.6 0 0 0-.37-.859m1.703 4.585a9 9 0 0 0-.192-.4l-.4-.773c-.018-.036-.07-.005-.054.031l.36.78q.089.194.19.383a3 3 0 0 0 .205.374c.017.024.06.011.05-.02a3 3 0 0 0-.16-.375m-43.724-17.021a8.8 8.8 0 0 0-1.957-1.639c-.714-.481-1.446-.93-2.178-1.383-.037-.023-.081.032-.048.061.654.578 1.305 1.155 1.98 1.705a8.7 8.7 0 0 0 2.127 1.387c.08.033.119-.078.076-.13m.438 2.734c-.177-.185-.369-.358-.555-.533-.395-.37-.794-.738-1.207-1.087a24 24 0 0 0-2.538-1.862c-.03-.02-.065.025-.038.049.794.688 1.567 1.399 2.347 2.101q.574.513 1.13 1.044c.195.188.383.383.582.567a1.6 1.6 0 0 0 .565.413.103.103 0 0 0 .125-.125 1.5 1.5 0 0 0-.411-.567m-.75 1.914a13 13 0 0 0-1.74-1.346c-.056-.035-.123.05-.072.092a20 20 0 0 1 1.578 1.487c.245.255.496.504.732.768a9 9 0 0 0 .78.788.059.059 0 0 0 .091-.07 6 6 0 0 0-1.37-1.72m.874 3.537-.19-.25-.384-.51c-.041-.056-.137 0-.094.055l.394.516.197.257a1.6 1.6 0 0 0 .203.241.035.035 0 0 0 .055-.042 1.6 1.6 0 0 0-.181-.267m1.184 6.858q-.534-.727-1.087-1.438-1.161-1.495-2.423-2.905c-.023-.026-.06.012-.038.04q1.225 1.47 2.382 2.996.554.733 1.086 1.481a14 14 0 0 0 1.064 1.448c.035.038.088-.01.068-.052a10.3 10.3 0 0 0-1.053-1.57m.728 3.742a5.5 5.5 0 0 0-.655-.932q-.34-.443-.682-.885a98 98 0 0 0-1.462-1.848q-1.486-1.826-3.006-3.625c-.04-.047-.102.02-.066.067q1.46 1.883 2.887 3.79.686.914 1.378 1.824.345.455.688.912a5.5 5.5 0 0 0 .704.863.137.137 0 0 0 .214-.166m-1.459 1.111c-.238-.282-.484-.558-.728-.836q-.712-.81-1.435-1.61a108 108 0 0 0-2.962-3.131c-.014-.015-.036.007-.022.022.963 1.07 1.91 2.153 2.856 3.238q.69.79 1.367 1.59.358.424.715.85a3.6 3.6 0 0 0 .687.725c.062.04.114-.035.091-.09a3.3 3.3 0 0 0-.569-.758m72.618 93.77a32.9 32.9 0 0 0-2.185-11.852 9.1 9.1 0 0 0-3.317-4.388c-1.805-1.167-4.102-1.066-6.165-1.168-4.68-.23-9.369-.245-14.049-.008-1.219.062-2.452.102-3.664.26-.857.111-2.227.3-2.684 1.163a1.37 1.37 0 0 0 .123 1.29c.274.584.563 1.162.844 1.743.281.58.547 1.17.863 1.732.07.124.155.233.232.35.138.37.276.74.4 1.115a34.6 34.6 0 0 1 1.397 5.98 35.4 35.4 0 0 1-.38 12.354c-.302 1.4-1.256 3.388-.468 4.782a1.66 1.66 0 0 0 .619.625 2.5 2.5 0 0 0 1.54.004q1.783-.22 3.565-.452c4.67-.61 9.339-1.238 14.015-1.79 2.069-.244 4.413-.357 6.126-1.689a3.7 3.7 0 0 0 .704-.746 6.16 6.16 0 0 0 2.204-3.863 23 23 0 0 0 .28-5.442m-3.999 8.847c-1.474 1.118-3.494 1.212-5.257 1.472-4.455.656-8.92 1.243-13.382 1.845-1.106.149-2.212.296-3.316.453l-1.595.226c-.413.058-.526-.004-.595-.45a5.9 5.9 0 0 1 .387-2.252q.356-1.411.59-2.85a34.7 34.7 0 0 0-.043-11.57 35 35 0 0 0-1.692-6.235 27 27 0 0 0-1.281-2.972 8 8 0 0 0-.429-.723l-.15-.345c-.08-.183-.402-.684-.367-.868.067-.347.9-.48 1.187-.543a10 10 0 0 1 1.539-.19c1.018-.069 2.037-.117 3.057-.159a132 132 0 0 1 12.448.06c1.024.054 2.047.119 3.069.21a8.7 8.7 0 0 1 2.865.599 8.94 8.94 0 0 1 3.518 3.46c1.944 3.094 2.395 7.104 2.415 10.68a38 38 0 0 1-.257 5.602c-.041.281-.102.565-.157.848-.322.582-.6 1.173-.893 1.782a5.36 5.36 0 0 1-1.661 1.92m8.783-21.861q-.48-.667-1.02-1.285a18.3 18.3 0 0 0-2.352-2.203c-.031-.025-.09.008-.062.047.631.853 1.236 1.725 1.861 2.582q.468.641.94 1.28a2.7 2.7 0 0 0 1.089 1.026.1.1 0 0 0 .123-.095 2.4 2.4 0 0 0-.578-1.352m.853 3.08q-.546-.686-1.106-1.36a48 48 0 0 0-2.316-2.562c-.04-.041-.095.018-.06.06.713.891 1.408 1.797 2.11 2.697q.526.674 1.037 1.36a5.5 5.5 0 0 0 1.075 1.194.06.06 0 0 0 .086-.066 4.8 4.8 0 0 0-.826-1.323m.479 2.636a12 12 0 0 0-.407-.524q-.43-.517-.878-1.017-.9-1.002-1.876-1.93a.047.047 0 0 0-.067.066q.907.976 1.736 2.019.418.527.815 1.07.193.264.393.524a.8.8 0 0 0 .413.367.08.08 0 0 0 .099-.075.8.8 0 0 0-.228-.5m-.403 1.323a25 25 0 0 0-1.964-2.14.035.035 0 0 0-.05.05 51 51 0 0 1 1.841 2.205c.591.749 1.124 1.54 1.746 2.262.024.028.065-.007.05-.037a13.3 13.3 0 0 0-1.623-2.34m.238 2.819a20 20 0 0 0-1.42-1.779c-.038-.042-.115.016-.08.062.456.596.874 1.216 1.295 1.837.422.624.795 1.279 1.255 1.876.027.034.098.017.079-.033a9.6 9.6 0 0 0-1.13-1.963m-.115 2.443a.055.055 0 0 0-.095.055 18 18 0 0 1 .976 2.311.031.031 0 0 0 .06-.017 8 8 0 0 0-.941-2.349m1.036 4.384c-.077-.192-.153-.389-.245-.574-.1-.201-.224-.394-.342-.585-.034-.054-.132-.02-.108.045.074.197.139.395.207.594.071.206.157.408.23.615.141.409.32.805.476 1.209a.047.047 0 0 0 .09-.025 5.6 5.6 0 0 0-.308-1.279m.185 3.217a.043.043 0 0 0-.078-.033 2 2 0 0 0-.281.7 1 1 0 0 0-.02.21 2 2 0 0 0 .028.183.9.9 0 0 0 .134.36c.027.035.097.042.108-.014a3 3 0 0 0 .017-.356l.012-.173c.004-.057-.001-.115 0-.173q-.002-.17.007-.341a1.6 1.6 0 0 1 .073-.363m30.817 2.442a66 66 0 0 1 .298-7.566c.48-4.67 1.25-9.593-.303-14.15-.01-.03-.054-.018-.045.012 1.39 4.757.602 9.65.197 14.49-.211 2.523-.424 5.051-.52 7.582-.047 1.266-.13 2.531-.201 3.797-.054.946-.166 1.903-.14 2.852a2.2 2.2 0 0 1-.54-.365 2.57 2.57 0 0 1-.784-2.064c-.034-1.359.092-2.715.048-4.076-.043-1.33-.205-2.638-.33-3.96a21 21 0 0 1 .09-4.012 12 12 0 0 0 .092-1.88 13.6 13.6 0 0 1-.046-2.014c.108-1.327.32-2.64.394-3.972a36 36 0 0 0-.478-7.616 37.8 37.8 0 0 0-2.375-8.376c-.017-.041-.084-.025-.068.018a35.7 35.7 0 0 1 2.04 16.203 33 33 0 0 1-.654 4.3 13.5 13.5 0 0 0-.438 1.8 8 8 0 0 0 .032 2.208c.246 1.344.616 2.666.842 4.014a45 45 0 0 1 .525 4.508 36 36 0 0 0 .3 4.459 2.65 2.65 0 0 0 1.913 2.299.688.688 0 0 0 .86-.656 30 30 0 0 0-.46-3.915 41 41 0 0 1-.25-3.92m4.001-16.493c-.276-1.08-.425-2.194-.691-3.282a41 41 0 0 0-2.117-6.304c-.01-.025-.051-.007-.043.018a31.7 31.7 0 0 1 1.485 6.494 18 18 0 0 1 .179 3.235 4.4 4.4 0 0 0 .321 1.498 12 12 0 0 1 .325 1.551.087.087 0 0 0 .166 0q.13-.888.293-1.77a3.3 3.3 0 0 0 .081-1.44m-.422 8.413-.124.64c-.007.034.046.049.053.014l.131-.637c.008-.04-.052-.056-.06-.017m-10.602-13.032a.035.035 0 0 0-.07.01c-.014.809-.051 1.619-.038 2.428.012.813.097 1.625.095 2.437a.082.082 0 0 0 .161.022 8.8 8.8 0 0 0 .364-2.459 7.6 7.6 0 0 0-.512-2.438m-63.805-65.338q-.317-.263-.645-.512-.685-.52-1.39-1.01a41 41 0 0 0-2.908-1.843.027.027 0 0 0-.027.047q1.41.907 2.748 1.919.676.51 1.33 1.046l.647.53a1.5 1.5 0 0 0 .615.4c.045.01.101-.03.082-.08a1.3 1.3 0 0 0-.452-.497m-.366 1.783a19 19 0 0 0-1.458-1.31 24 24 0 0 0-3.143-2.14c-.062-.036-.113.054-.056.094a31 31 0 0 1 2.989 2.398q.69.621 1.354 1.272a10.5 10.5 0 0 0 1.366 1.214c.058.04.12-.037.09-.091a6 6 0 0 0-1.142-1.437m.896 3.441q-.276-.372-.574-.728a15.4 15.4 0 0 0-4.374-3.672.07.07 0 0 0-.071.121 19.5 19.5 0 0 1 2.908 2.421c.436.435.854.886 1.245 1.361.203.248.394.505.588.76a1.5 1.5 0 0 0 .552.546.07.07 0 0 0 .089-.068 1.4 1.4 0 0 0-.363-.741m-.955 1.611c-.278-.311-.55-.628-.838-.93a71 71 0 0 0-1.73-1.753c-.037-.035-.108.014-.074.057q.737.959 1.508 1.892c.258.313.53.613.799.917a3 3 0 0 0 .883.805c.046.02.11-.014.092-.07a2.8 2.8 0 0 0-.64-.918m.065 2.335a3 3 0 0 1-.476-.27 2 2 0 0 1-.398-.382c-.034-.044-.095.018-.06.06a1.83 1.83 0 0 0 .915.635c.025.007.043-.031.018-.043m22.871-8.073c-.018-.01-.04.016-.023.031 2.054 1.734 4.069 3.51 6.09 5.282a.05.05 0 0 0 .071-.072 22 22 0 0 0-6.137-5.24m4.473 5.525a27 27 0 0 0-2.66-1.745c-.078-.046-.144.07-.07.122.869.595 1.687 1.25 2.503 1.915a30 30 0 0 0 2.38 1.885c.038.025.092-.026.064-.064a10.5 10.5 0 0 0-2.217-2.114m1.636 3.798q-.312-.382-.642-.75a15 15 0 0 0-1.42-1.368.02.02 0 0 0-.028.027c.445.473.875.961 1.303 1.45q.316.361.616.736c.1.125.209.24.315.36.11.124.214.26.334.376a.035.035 0 0 0 .055-.043 4.7 4.7 0 0 0-.533-.788m-1.273 1.686c-.026-.031-.069.013-.044.044.372.476.735.96 1.135 1.414.017.02.052-.006.036-.028-.354-.493-.745-.958-1.127-1.43m2.298 4.725c-.096-.096-.183-.2-.279-.296a4 4 0 0 1-.272-.304 5.4 5.4 0 0 1-.472-.67c-.023-.041-.078-.006-.06.035a3 3 0 0 0 .428.724 4 4 0 0 0 .282.31 2 2 0 0 0 .335.25c.03.02.063-.024.038-.049M18.18 127.514a100 100 0 0 1-2.476-4.634c-.013-.027-.052-.003-.04.024.731 1.626 1.505 3.235 2.369 4.795a32 32 0 0 0 2.72 4.419c.048.061.138-.017.104-.08-.811-1.549-1.82-3-2.678-4.524m.091-5.024c-.02-.036-.07-.004-.054.032.937 2.046 1.897 4.065 2.971 6.044.015.027.052.004.04-.023-.907-2.062-1.914-4.058-2.957-6.053m5.747 11.154q-.319-.515-.628-1.035a46 46 0 0 1-1.153-2.083c-.035-.067-.135-.008-.101.059.355.71.728 1.412 1.1 2.114q.274.518.558 1.03a3.3 3.3 0 0 0 .653.943.043.043 0 0 0 .072-.042 3.5 3.5 0 0 0-.5-.986m3.447.359q-1.055-1.627-2.024-3.308a88 88 0 0 1-3.522-6.774c-.01-.023-.043-.003-.033.02a67 67 0 0 0 3.433 6.958q.93 1.635 1.943 3.223a16.8 16.8 0 0 0 2.176 3.095.059.059 0 0 0 .092-.071 29 29 0 0 0-2.065-3.143m5.635 3.401q-.557-.807-1.095-1.627-1.138-1.737-2.186-3.53a121 121 0 0 1-3.872-7.207c-.014-.027-.062-.008-.05.021a61 61 0 0 0 3.369 6.841q.947 1.651 1.971 3.256c.17.268 1.926 2.806 2.204 3.248l-.052.008a.06.06 0 0 0-.043.057.19.19 0 0 0 .204.222.12.12 0 0 0 .117-.09c.145-.444-.33-.855-.567-1.199m2.904.246q-1.184-1.638-2.272-3.342a76 76 0 0 1-3.987-7.025c-.038-.077-.15-.01-.114.067a65 65 0 0 0 3.97 7.165q1.092 1.7 2.282 3.334a23 23 0 0 0 2.46 3.09c.037.036.102-.01.073-.057-.713-1.131-1.628-2.148-2.412-3.233m5.922 2.963-.987-1.253q-1.006-1.279-1.98-2.581a201 201 0 0 1-3.645-5.02c-.026-.036-.086-.003-.061.036a104 104 0 0 0 3.554 5.18q.916 1.248 1.861 2.475.41.536.83 1.063a4.4 4.4 0 0 0 1.015 1.114.047.047 0 0 0 .07-.053 3.5 3.5 0 0 0-.657-.96m1.838-1.534a88 88 0 0 1-2.428-2.922c-.027-.034-.087.012-.061.048a53 53 0 0 0 2.322 2.964 25 25 0 0 0 2.634 2.816.035.035 0 0 0 .05-.05c-.795-.99-1.687-1.897-2.517-2.856m5.114 3.068a21 21 0 0 0-2.827-2.422c-.039-.03-.087.034-.052.068a21 21 0 0 0 2.822 2.427c.046.03.091-.035.057-.073m3.792-.221a6 6 0 0 1-.374-.158c-.113-.05-.23-.09-.342-.142a5 5 0 0 1-.666-.372c-.042-.029-.08.038-.04.067a5 5 0 0 0 .675.406 2.5 2.5 0 0 0 .352.154q.188.057.38.098a.027.027 0 0 0 .015-.053m-24.3-53.66c-.038-.066-.135-.008-.102.06a36 36 0 0 0 5.196 7.829c.046.052.14-.018.098-.076a92 92 0 0 1-5.192-7.813m2.789-1.012a.043.043 0 0 0-.075.044 74 74 0 0 0 7.876 11.145c.023.026.07-.009.049-.037-2.701-3.668-5.442-7.279-7.85-11.152m10.997 9.768a138 138 0 0 1-2.868-3.646 138 138 0 0 1-5.06-7.148c-.016-.025-.056-.003-.04.023a103 103 0 0 0 4.978 7.33 53 53 0 0 0 5.506 6.68c.034.033.098-.01.068-.052-.803-1.104-1.726-2.126-2.584-3.187m7.563 3.678c-2.063-2.657-4.243-5.214-6.253-7.915q-2.948-3.961-5.698-8.068c-.016-.025-.057-.001-.04.024q2.737 4.25 5.744 8.31c1.958 2.633 3.939 5.32 6.147 7.75.063.068.153-.03.1-.1m-5.468-13.157c-.012-.016-.039 0-.027.016 1.409 1.995 2.788 4.016 4.262 5.963.018.024.058.002.04-.023-1.369-2.024-2.839-3.98-4.275-5.956m9.955 12.662c-.25-.236-.49-.483-.738-.72a20 20 0 0 1-1.417-1.493c-.047-.055-.121.023-.078.077q.648.805 1.332 1.58c.221.25.463.483.702.716a3.3 3.3 0 0 0 .798.64c.046.023.107-.026.075-.075a4.2 4.2 0 0 0-.674-.725m4.097.717q-.863-.914-1.684-1.866-1.664-1.929-3.145-4.003c-.012-.016-.039-.001-.027.016q1.433 2.074 3.044 4.016.805.967 1.653 1.898a14 14 0 0 0 1.789 1.78c.034.027.064-.026.042-.055-.499-.64-1.114-1.196-1.672-1.786m6.685 1.947c-.22.189-2.295-1.884-2.534-2.103a64 64 0 0 1-2.242-2.155A70 70 0 0 1 56.047 94c-.037-.044-.115.016-.08.061a54 54 0 0 0 4.773 5.411 49 49 0 0 0 2.646 2.443c.133.113 1.588 1.498 1.648.974.003-.026-.03-.033-.046-.02m.935-3.324q-1.421-1.497-2.79-3.043a149 149 0 0 1-5.304-6.318c-.016-.021-.053.007-.037.028a104 104 0 0 0 5.1 6.368q1.358 1.557 2.767 3.067a21.5 21.5 0 0 0 2.867 2.827c.037.027.091-.027.064-.064a31 31 0 0 0-2.667-2.865m5.687.67q-.79-.787-1.57-1.584-1.6-1.637-3.15-3.323-3.1-3.369-5.996-6.916c-.032-.04-.086.016-.055.055q2.863 3.576 5.935 6.977 1.497 1.654 3.044 3.263.813.846 1.64 1.68a7.6 7.6 0 0 0 1.563 1.439.035.035 0 0 0 .048-.048 8.3 8.3 0 0 0-1.459-1.543M64.32 86.75c-.023-.027-.06.012-.039.039 2.062 2.567 4.124 5.129 6.31 7.592.02.023.051-.01.033-.033-2.02-2.601-4.159-5.1-6.304-7.598m10.796 12.13c-.122-.138-.24-.278-.37-.408l-.75-.761c-.501-.507-.986-1.028-1.474-1.548-.076-.081-.194.04-.121.122.465.528.933 1.053 1.384 1.594q.334.4.67.799c.11.133.228.259.347.386a1.2 1.2 0 0 0 .398.333c.084.035.2-.024.167-.128a1.1 1.1 0 0 0-.251-.39m1.97-2.654a11.6 11.6 0 0 0-1.683-1.923q-.914-.98-1.82-1.968c-1.205-1.317-2.432-2.614-3.634-3.935-.02-.023-.052.01-.033.033 1.142 1.378 2.282 2.761 3.469 4.1q.863.976 1.736 1.944a11.2 11.2 0 0 0 1.836 1.878c.08.053.174-.051.129-.129m-.416-4.985c-.23-.256-.47-.503-.708-.75l-1.408-1.465c-.042-.043-.107.023-.066.067l1.387 1.484c.228.244.455.49.69.725.242.242.474.501.732.726a.027.027 0 0 0 .039-.04c-.205-.261-.444-.5-.667-.748M58.545 138.86c-.025-.018-.049.023-.024.04 1.237.83 2.418 1.733 3.58 2.664.015.012.037-.01.022-.023a37 37 0 0 0-3.578-2.682m6.159 1.385q-.936-.864-1.903-1.695a60 60 0 0 0-3.86-3.03c-.028-.02-.065.027-.037.05a93 93 0 0 1 3.781 3.192q.902.8 1.777 1.628a12.7 12.7 0 0 0 1.804 1.622.051.051 0 0 0 .07-.07 9.4 9.4 0 0 0-1.632-1.697m4.049-.096a50 50 0 0 0-4.493-4.255l-4.614-4.134c-.06-.054-.147.033-.088.088l4.576 4.3a50 50 0 0 0 4.571 4.062c.038.027.075-.03.048-.061m-8.092-12.466a.043.043 0 0 0-.06.061c3.012 3.029 6.015 6.075 9.153 8.975a.031.031 0 0 0 .044-.044c-2.955-3.086-6.055-6.034-9.137-8.992m2.765-2.254c-.018-.017-.045.01-.027.028 2.12 2.145 4.063 4.445 6.088 6.677.032.036.096-.012.068-.052a45.7 45.7 0 0 0-6.129-6.653m17.633 18.46a39 39 0 0 1-5.569-4.095c-.015-.013-.036.008-.022.022a23.7 23.7 0 0 0 5.563 4.12.027.027 0 0 0 .028-.047m6.094.712a24 24 0 0 0-2.603-2.142l-2.722-2.172c-1.79-1.427-3.598-2.83-5.4-4.24-.031-.024-.076.019-.044.044 1.795 1.469 3.583 2.945 5.391 4.397l2.632 2.114a24 24 0 0 0 2.68 2.086.055.055 0 0 0 .066-.086m14.43.616c-1.36-1.05-2.76-2.043-4.11-3.107q-1.97-1.552-3.843-3.222c-.026-.023-.064.015-.038.039a59.7 59.7 0 0 0 7.968 6.33c.026.017.046-.022.023-.04m1.767-2.013-1.269-.905c-.029-.02-.056.027-.028.047l1.277.892c.021.014.04-.02.02-.034m18.893 1.289c-.896-.74-1.882-1.38-2.833-2.045-.982-.686-1.983-1.345-2.976-2.014-.02-.015-.04.019-.02.033.955.697 1.903 1.404 2.87 2.084.96.676 1.909 1.395 2.922 1.992.03.017.065-.026.037-.05m6.108.159a21 21 0 0 0-2.982-2.208l-3.31-2.354q-3.258-2.317-6.53-4.617c-.016-.012-.031.015-.015.027q3.182 2.328 6.367 4.653l3.189 2.317a22.7 22.7 0 0 0 3.224 2.256.047.047 0 0 0 .057-.074m4.775-.203c-1.59-1.289-3.277-2.462-4.916-3.687q-2.612-1.952-5.183-3.958c-.012-.009-.028.007-.017.017q2.435 1.953 4.907 3.859c1.694 1.305 3.38 2.648 5.171 3.818.03.019.066-.027.038-.05m2.392-1.616c-.5-.399-1.023-.77-1.539-1.15-.028-.02-.055.027-.027.048.51.383 1.014.776 1.538 1.14.022.014.05-.02.028-.038m1.288 36.742c-1.351-.867-2.723-1.702-4.088-2.548-.013-.008-.024.012-.012.02 1.358.857 2.71 1.726 4.08 2.562.022.013.041-.02.02-.034m7.782 1.162c-2.664-1.355-5.323-2.727-7.916-4.215a.016.016 0 0 0-.016.027 78 78 0 0 0 7.908 4.228c.027.013.051-.026.024-.04m3.974-1.693c-1.312-.694-2.665-1.312-3.992-1.978-.022-.01-.042.022-.02.034a45 45 0 0 0 3.988 2c.033.015.055-.04.024-.056m12.77-33.808a.031.031 0 0 0-.054.032 21.5 21.5 0 0 0 2.694 3.701c.02.023.052-.01.033-.033a26.7 26.7 0 0 1-2.673-3.7m1.564-2.445a.027.027 0 0 0-.047.028 44 44 0 0 0 5.663 7.859c.031.034.078-.016.05-.05a86 86 0 0 1-5.666-7.837m27.094-63.593c-.046-.07-.159-.007-.114.067a70.4 70.4 0 0 1 5.827 12.9.063.063 0 0 0 .121-.034 41.2 41.2 0 0 0-5.833-12.933m2.741 11.351a59.4 59.4 0 0 0-4.838-9.148.031.031 0 0 0-.054.032 66.4 66.4 0 0 1 4.489 9.286c1.231 3.157 2.117 6.416 3.151 9.638a.09.09 0 0 0 .173-.048 39 39 0 0 0-2.92-9.76m-4.873-3.201a.035.035 0 0 0-.06.035 89 89 0 0 1 6.814 18.198c.021.08.131.045.12-.033a48.3 48.3 0 0 0-6.874-18.2m.943 8.343c-.022-.045-.087-.005-.067.04a70.7 70.7 0 0 1 4.209 14.552.063.063 0 0 0 .123-.016 41.4 41.4 0 0 0-4.265-14.575m-.28 8.318c-.009-.024-.045-.014-.038.01.792 2.834 1.348 5.733 2.163 8.558.017.057.114.049.108-.014a36.6 36.6 0 0 0-2.233-8.554m-.389 6.895a.027.027 0 0 0-.053.014c.28 1.28.523 2.575.906 3.828a.031.031 0 0 0 .06-.017c-.222-1.291-.587-2.557-.913-3.825m-2.038 8.303c.003.213.001.426.017.638l.05.639a.04.04 0 0 0 .077 0l.05-.639c.015-.212.013-.425.017-.638a.106.106 0 0 0-.211 0m5.599 11.863c-.027-.035-.088.012-.06.047a111 111 0 0 1 8.108 12.727c.035.062.123.008.094-.055a60.6 60.6 0 0 0-8.142-12.72m5.2 10.939a66 66 0 0 0-4.973-7.342c-.021-.028-.07.009-.049.038a76 76 0 0 1 4.751 7.462c1.441 2.578 2.558 5.316 3.978 7.9a.047.047 0 0 0 .085-.037 37 37 0 0 0-3.792-8.021m-2.651.308c-.017-.025-.058-.002-.04.023a36.4 36.4 0 0 1 2.755 4.852c.816 1.74 1.455 3.538 2.107 5.343a.035.035 0 0 0 .068-.019 30.4 30.4 0 0 0-4.89-10.2m1.689 6.875c-.013-.027-.052-.003-.04.024a41 41 0 0 1 1.227 3.15c.357 1.032.663 2.084 1.027 3.113a.031.031 0 0 0 .06-.017 24.5 24.5 0 0 0-2.274-6.27m.51 6.254a.05.05 0 0 0-.068-.018.05.05 0 0 0-.018.069l.13.254a.05.05 0 0 0 .068.018.05.05 0 0 0 .018-.068Zm27.308 55.149c-1.642-1.432-3.387-2.745-5.1-4.09-.038-.031-.094.022-.055.054 1.695 1.374 3.364 2.786 5.127 4.073.021.015.048-.02.028-.037m4.855 3.571a15 15 0 0 0-1.421-1.259c-.02-.016-.046.01-.028.028a15 15 0 0 0 1.42 1.268c.022.016.046-.019.029-.037m-14.196-36.556q-1.009-1-2.047-1.97-2.049-1.912-4.21-3.699c-.019-.016-.046.011-.027.028q2.131 1.816 4.153 3.756.996.957 1.964 1.943c.66.674 1.29 1.391 1.997 2.017a.043.043 0 0 0 .061-.06 22 22 0 0 0-1.892-2.015m-5.101-3.125a.031.031 0 0 0-.044.044 103 103 0 0 1 7.958 9.528c.027.035.086.003.061-.036a55 55 0 0 0-7.975-9.536m4.194 7.42c-.011-.016-.038-.001-.027.016a46.5 46.5 0 0 1 3.582 5.989c.012.022.045.003.034-.02a36 36 0 0 0-3.589-5.985m24.684-58.277a51 51 0 0 1-1.382-2.91c-.007-.016-.035-.004-.028.012.374.994.78 1.976 1.252 2.928a19.3 19.3 0 0 0 1.628 2.848.035.035 0 0 0 .061-.036c-.481-.961-1.043-1.883-1.53-2.842m4.27 2.777a285 285 0 0 1-3.08-5.956c-.018-.036-.07-.004-.054.032.942 2.031 1.91 4.05 2.94 6.037a59 59 0 0 0 3.281 5.85.035.035 0 0 0 .061-.035c-.955-2.022-2.103-3.951-3.148-5.928m5.986 4.807q-1.019-1.738-1.97-3.516a107 107 0 0 1-3.488-7.128c-.007-.016-.035-.004-.028.012a78 78 0 0 0 3.214 7.16q.891 1.744 1.875 3.438a18.4 18.4 0 0 0 2.146 3.296c.032.035.104-.002.085-.05a28 28 0 0 0-1.834-3.211m6.917 5.426c-.667-1.025-1.469-1.972-2.167-2.978q-1.051-1.515-2.003-3.095a60 60 0 0 1-3.4-6.532c-.007-.016-.036-.004-.029.012a51 51 0 0 0 3.251 6.623q.934 1.59 1.973 3.114a23 23 0 0 0 2.234 2.965c.07.073.197-.022.14-.109m4.019.906a60 60 0 0 1-2.132-3.166c-1.365-2.155-2.627-4.38-3.897-6.59-.022-.04-.081-.005-.06.035 1.183 2.307 2.38 4.602 3.733 6.816q.995 1.629 2.119 3.173a14 14 0 0 0 2.431 2.836c.05.038.13-.01.092-.071-.65-1.074-1.548-2.017-2.286-3.033m3.649.277a66 66 0 0 1-2.913-4.057c-.02-.03-.066-.003-.047.027.895 1.455 1.84 2.89 2.875 4.25a31 31 0 0 0 3.254 3.809c.042.039.094-.019.061-.061-1.046-1.347-2.187-2.618-3.23-3.969m4.392 1.788a.055.055 0 0 0-.078.077c.976.983 1.95 1.965 2.95 2.922a.031.031 0 0 0 .045-.044c-.955-1.003-1.936-1.978-2.917-2.955M212.54 76.429c-.011-.033-.063-.02-.053.014a79.7 79.7 0 0 0 5.736 13.799c.024.044.088.005.067-.04-2.09-4.519-4.104-9.07-5.75-13.773m10.315 14.467q-1.41-2.703-2.58-5.524a72.6 72.6 0 0 1-3.602-11.123c-.008-.034-.06-.02-.052.015a67 67 0 0 0 3.562 11.477q1.117 2.69 2.456 5.281a32 32 0 0 0 2.97 4.985c.025.033.071-.009.054-.042-.86-1.726-1.914-3.358-2.808-5.07m3.491-.469A141 141 0 0 1 222.1 79.88c-.005-.014-.028-.008-.023.006a121 121 0 0 0 3.994 10.432 73 73 0 0 0 5.126 10.162.04.04 0 0 0 .068-.04c-1.58-3.367-3.392-6.616-4.918-10.014m10.377 11.262c-.513-.792-1.046-1.572-1.56-2.363a38.4 38.4 0 0 1-2.661-4.975c-1.577-3.439-2.884-6.995-4.206-10.537-.005-.014-.028-.008-.023.006a108 108 0 0 0 3.991 10.397c.809 1.744 1.746 3.423 2.58 5.155.41.852.8 1.714 1.204 2.568.294.622.596 1.617 1.346 1.813a.095.095 0 0 0 .115-.066c.17-.74-.405-1.41-.786-1.998m5.697 1.55a55 55 0 0 1-2.33-4.909 59 59 0 0 0-4.398-9.316.055.055 0 0 0-.094.055 94 94 0 0 1 4.61 9.77c1.283 3.06 2.522 6.46 4.798 8.938.037.04.1-.011.074-.057-.881-1.498-1.837-2.948-2.66-4.481m0-11.889c-.027-.049-.098-.006-.074.043a127 127 0 0 0 3.977 7.522c.025.044.09.005.068-.04a127 127 0 0 0-3.97-7.525m9.115 17.279q-.532-.857-1.02-1.739a30 30 0 0 1-1.765-3.807c-.028-.074-.147-.044-.12.033a40 40 0 0 0 1.537 3.828q.44.945.942 1.858a3.9 3.9 0 0 0 1.154 1.554c.047.026.124-.006.117-.068a4.55 4.55 0 0 0-.845-1.66m5.441 1.3q-1.192-2.083-2.334-4.195-2.282-4.218-4.417-8.517c-.014-.027-.053-.004-.04.024a167 167 0 0 0 4.25 8.615q1.098 2.066 2.245 4.107.587 1.047 1.187 2.086a10.8 10.8 0 0 0 1.255 1.921.043.043 0 0 0 .071-.042 26 26 0 0 0-2.217-4m1.978-4.502c-.016-.031-.063-.004-.047.027a94 94 0 0 0 6.243 10.736c.025.037.084.004.06-.035-2.156-3.538-4.312-7.066-6.256-10.728m8.471 7.122c-.006-.008-.02 0-.014.008.712 1.029 1.414 2.065 2.143 3.081.012.017.039.001.027-.015-.703-1.036-1.435-2.052-2.156-3.074m6.987 2.835a.004.004 0 0 0 0-.008m-31.36-44.064a58 58 0 0 1-1.905-5.733.027.027 0 0 0-.052.014 45 45 0 0 0 1.685 5.901 26.6 26.6 0 0 0 2.52 5.406c.043.067.17.025.136-.057-.751-1.862-1.655-3.658-2.384-5.531m1.566-1.749c-.013-.029-.06-.008-.05.021a21.2 21.2 0 0 0 4.261 8.186c.048.054.133-.016.098-.076a87 87 0 0 1-4.31-8.13m6.923 5.633a31 31 0 0 0-2.184-2.284c-.022-.02-.063.007-.043.033.625.823 1.242 1.653 1.89 2.458a24 24 0 0 0 2.064 2.39.07.07 0 0 0 .11-.085 15.4 15.4 0 0 0-1.837-2.512m-58.764-24.577c-.991-1.426-2.133-2.735-3.199-4.104-1.115-1.433-2.234-2.864-3.318-4.321-.035-.048-.113-.006-.08.047a51 51 0 0 0 3.012 4.472 30 30 0 0 0 3.456 4.005c.065.06.184-.02.129-.1m1.263-3.946-.703-.87-1.365-1.69c-.91-1.125-1.838-2.233-2.765-3.344-.012-.014-.036.005-.025.019.852 1.124 1.699 2.251 2.568 3.362l1.3 1.662.691.883a3.1 3.1 0 0 0 .671.74.063.063 0 0 0 .092-.07 2.6 2.6 0 0 0-.464-.691m3.796 3.807a.3.3 0 0 1-.102.01.3.3 0 0 1-.108-.082q-.124-.123-.238-.26c-.187-.214-.362-.439-.551-.65a17 17 0 0 1-1.097-1.322c-.064-.088-.212-.006-.149.086q.286.413.566.829c.186.276.371.554.582.812q.152.187.308.37a1.8 1.8 0 0 0 .329.357.47.47 0 0 0 .333.082c.086-.016.192-.077.182-.178-.003-.027-.023-.058-.055-.054m5.273.373a90 90 0 0 0-1.326-1.473q-1.381-1.495-2.785-2.97a215 215 0 0 0-5.662-5.7.023.023 0 0 0-.033.034 380 380 0 0 1 5.395 5.811q1.3 1.424 2.579 2.866.657.741 1.32 1.478a5.8 5.8 0 0 0 1.353 1.314c.048.027.127-.019.103-.08a4.7 4.7 0 0 0-.944-1.28m4.679.207q-.528-.473-1.052-.95-1.077-.977-2.111-2-2.067-2.046-3.953-4.262c-.023-.027-.06.012-.038.039q1.845 2.25 3.874 4.34.988 1.015 2.017 1.989.542.513 1.102 1.005a4.6 4.6 0 0 0 1.071.838c.036.015.085-.02.06-.06a5 5 0 0 0-.97-.94m4.26-.011c-.02.1-.34-.231-.372-.263q-.17-.172-.343-.34l-.774-.762c-.501-.495-1-.991-1.507-1.48l-3.04-2.935a.02.02 0 0 0-.028.027c1.194 1.225 2.379 2.459 3.585 3.67l1.788 1.797c.14.141.375.478.615.46.101-.007.182-.072.143-.174-.01-.029-.06-.037-.067 0m2.216-1.415-1.568-1.349c-.06-.052-.147.033-.088.089l1.508 1.408a10 10 0 0 0 1.541 1.31c.04.024.102-.029.07-.07a10 10 0 0 0-1.463-1.388m5.412.332a9 9 0 0 0-1.077-.587l-1.106-.537c-.036-.017-.067.035-.032.054l1.096.597a9 9 0 0 0 1.095.53c.035.013.052-.039.024-.057m-97.424-24.969c-.014-.032-.066-.02-.053.014a34.9 34.9 0 0 0 5.346 9.998c.043.052.125-.015.092-.071a87 87 0 0 1-5.385-9.941m7.9 9.333a100 100 0 0 1-4.517-8.347c-.013-.028-.052-.004-.04.023a79 79 0 0 0 4.335 8.587 54 54 0 0 0 5.327 7.75c.043.05.129-.016.092-.071-1.74-2.644-3.56-5.23-5.197-7.942m10.276 9.434q-.75-1.027-1.515-2.043a51 51 0 0 1-2.756-4.388q-2.673-4.435-5.018-9.063c-.023-.045-.088-.005-.067.04a100 100 0 0 0 4.923 9.251c.44.727.913 1.422 1.402 2.115.512.727.928 1.495 1.378 2.26q.64 1.09 1.337 2.146a5.8 5.8 0 0 0 1.458 1.883.138.138 0 0 0 .2-.155 6.7 6.7 0 0 0-1.342-2.046m-2.936-11.909c-.014-.02-.047-.002-.034.02 1.571 2.615 3.063 5.28 4.526 7.956.014.027.053.003.04-.024a68 68 0 0 0-4.532-7.952m10.167 16.073c-.132-.2-.273-.394-.414-.59l-.933-1.295c-.61-.849-1.203-1.71-1.797-2.571-.04-.057-.132-.005-.094.055.568.895 1.136 1.79 1.685 2.696l.797 1.316c.142.234.284.467.437.694a1.8 1.8 0 0 0 .452.533c.117.077.24-.05.218-.168a1.9 1.9 0 0 0-.352-.67m4.376.219-1.19-1.84q-1.154-1.792-2.285-3.597-2.262-3.61-4.452-7.265a.031.031 0 0 0-.054.032q2.12 3.694 4.31 7.347 1.065 1.774 2.143 3.539.571.934 1.147 1.866a6.2 6.2 0 0 0 1.157 1.597.067.067 0 0 0 .11-.065 6 6 0 0 0-.886-1.614m6.217 2.643c-1.34-2.204-2.902-4.285-4.29-6.462q-2.083-3.27-4.042-6.622a.027.027 0 0 0-.047.027q1.857 3.479 3.939 6.821a63 63 0 0 0 4.268 6.369c.079.097.235-.028.172-.133m4.398.468-.044-.047a.028.028 0 0 0-.046.027 1.2 1.2 0 0 1-.31-.365l-.226-.34q-.227-.34-.457-.678l-.81-1.18-1.734-2.53-3.468-5.058c-.006-.008-.02 0-.014.008l3.692 5.519 1.818 2.716q.454.68.916 1.354c.157.228.307.611.58.719a.06.06 0 0 0 .066-.027l.044-.065a.044.044 0 0 0-.007-.053m2.416-1.91q-.597-.742-1.185-1.494-1.208-1.54-2.334-3.142c-.026-.037-.086-.003-.061.035q1.083 1.638 2.249 3.22.54.733 1.107 1.443a7.6 7.6 0 0 0 1.27 1.427c.028.02.056-.018.043-.043a8.8 8.8 0 0 0-1.089-1.446m.629-3.446c-.018-.024-.058-.001-.04.023a29.3 29.3 0 0 0 3.415 4.118c.026.024.061-.012.039-.039-1.142-1.366-2.335-2.683-3.414-4.102m6.35 3.316-.86-.982-1.693-1.934c-.02-.023-.052.01-.033.033l1.638 1.936.794.938a11 11 0 0 0 .87.97c.023.02.062-.006.044-.033a10 10 0 0 0-.76-.928m2.154-1.521q-.674-.654-1.338-1.316c-.057-.057-.141.029-.088.089q.618.706 1.266 1.387a7.8 7.8 0 0 0 1.355 1.245c.041.027.099-.028.07-.07a10 10 0 0 0-1.265-1.335m3.819.118c-.078-.083-.168-.157-.252-.234-.175-.16-.356-.31-.54-.459-.175-.141-.345-.292-.528-.421q-.286-.2-.575-.399c-.018-.013-.038.015-.023.031l.468.504c.16.171.342.325.514.485.17.157.339.309.517.455.086.07.17.147.26.212a1 1 0 0 0 .289.168.063.063 0 0 0 .07-.091 1 1 0 0 0-.2-.251M198.55 5.246a7.8 7.8 0 0 0-.571-2.496c-.008-.017-.032-.004-.029.012a3.8 3.8 0 0 1 .073 1.354 8 8 0 0 1-.271 1.112 3.6 3.6 0 0 0-.244 1.192c.005.206.045.42.064.628s.013.41.018.62a.07.07 0 0 0 .13.035c.118-.204.228-.407.352-.607.044-.071.081-.166.12-.228a2 2 0 0 0 .158-.22 2.6 2.6 0 0 0 .2-1.402m-.64 4.561c0-.036-.05-.034-.055 0-.141 1.087-.363 2.164-.484 3.253a19.3 19.3 0 0 0-.025 3.253c.005.087.143.117.161.022a19 19 0 0 0 .43-3.211c.032-1.105-.038-2.211-.027-3.317m91.034 10.977c-1.76-1.823-4.273-3.016-6.484-4.192-2.337-1.244-4.747-2.353-7.121-3.523-.072-.036-.135.07-.063.107 2.332 1.252 4.565 2.653 6.823 4.032 1.094.668 2.184 1.343 3.285 2a17.8 17.8 0 0 0 3.465 1.74.098.098 0 0 0 .095-.164m-2.501 1.631c-.537-.295-1.095-.538-1.652-.791a14.2 14.2 0 0 1-3.169-2.013 12.4 12.4 0 0 0-5.818-2.969c-.034-.005-.05.044-.015.053 2.2.576 4.02 2.091 5.923 3.256.939.575 1.84 1.21 2.785 1.775.522.312 1.056.604 1.58.912a6.7 6.7 0 0 0 1.496.861.067.067 0 0 0 .075-.097 2.6 2.6 0 0 0-1.205-.987m-2.348 2.018a19 19 0 0 1-2.053-1.196 72 72 0 0 0-4.028-2.371.043.043 0 0 0-.044.074 72 72 0 0 0 4.005 2.411 19 19 0 0 1 1.968 1.19c.31.227.615.465.927.691a1.8 1.8 0 0 0 .892.433.138.138 0 0 0 .118-.206c-.352-.546-1.221-.762-1.785-1.026m-.854 2.954a19 19 0 0 1-2.032-1.297c-.066-.051-.156.064-.09.116a7.8 7.8 0 0 0 2.098 1.238c.034.012.054-.04.024-.057M111.53 264.192c-.072-2.444-.077-4.887.022-7.33 0-.024-.038-.024-.04 0a84 84 0 0 0-.136 7.452 50.5 50.5 0 0 0 .545 7.2c.007.038.071.03.07-.01-.1-2.44-.39-4.868-.461-7.312m2.441-1.625q-.133-3.532-.339-7.06c0-.02-.032-.02-.03 0q.128 3.529.167 7.06.019 1.735.017 3.47c-.001 1.195-.08 2.403-.043 3.595a.215.215 0 0 0 .43 0c.066-2.34-.114-4.725-.202-7.065M114.58 276q-.036-.303-.07-.607-.07-.585-.136-1.17-.134-1.192-.265-2.385c-.006-.059-.098-.06-.093 0l.2 2.432.093 1.216.044.562a2.4 2.4 0 0 0 .129.572.043.043 0 0 0 .084-.011 3 3 0 0 0 .044-.327c-.002-.094-.02-.188-.03-.281m1.613-2.548a63 63 0 0 1-.487-8.246.016.016 0 0 0-.031 0 64 64 0 0 0 .235 7.433c.09 1.205.22 2.408.35 3.609.026.242.075 1.79.294 1.849a.047.047 0 0 0-.053.069l.015.023a.06.06 0 0 0 .05.029c.375-.031-.333-4.414-.373-4.766m2.443 4.033q-.224-1.453-.36-2.918c-.004-.034-.058-.035-.056 0q.104 1.444.289 2.88a19 19 0 0 0 .5 2.757c.009.033.065.028.06-.008-.106-.909-.293-1.807-.433-2.71"/><path fill="currentColor" d="M131.792 258.76a31.4 31.4 0 0 0-3.465-8.044.023.023 0 0 0-.04.023 39.4 39.4 0 0 1 4.766 16.68.023.023 0 0 0 .046 0 31.3 31.3 0 0 0-1.307-8.66m1.217 13.427q-.06 1.156-.17 2.309-.054.564-.121 1.128a8 8 0 0 0-.123 1.17.027.027 0 0 0 .054.007 6 6 0 0 0 .172-1.087q.069-.586.124-1.173.11-1.175.165-2.354c.004-.065-.098-.065-.101 0m-66.227-83.198a37 37 0 0 0-.457-1.772c-.328-1.2-.729-2.38-1.13-3.557a.043.043 0 0 0-.083.023c.304 1.184.556 2.379.822 3.572.128.574.242 1.152.367 1.727a5.1 5.1 0 0 0 .531 1.698c.03.046.118.046.129-.017a4.4 4.4 0 0 0-.179-1.674m-.608 2.578-.474-1.815c-.31-1.188-.668-2.36-1.014-3.538a.023.023 0 0 0-.045.012c.25 1.204.488 2.409.774 3.605l.42 1.757a5.5 5.5 0 0 0 .535 1.668.055.055 0 0 0 .102-.028 5.3 5.3 0 0 0-.298-1.661m-.966.8a49 49 0 0 0-.757-2.562.012.012 0 0 0-.022.006c.157.862.326 1.72.527 2.573a19 19 0 0 0 .706 2.524c.02.048.108.048.1-.014a19 19 0 0 0-.554-2.527m-.563 2.368c-.006-.02-.036-.011-.03.008l.487 1.54c.007.023.045.013.037-.011zm33.822 19.312a21 21 0 0 0-1.767-3.52.05.05 0 0 0-.088.051 22.7 22.7 0 0 1 1.537 3.624c.408 1.215.618 2.49 1.065 3.688a.059.059 0 0 0 .115-.016 10.3 10.3 0 0 0-.862-3.827m.091 5.186q-.275-.986-.58-1.962a48 48 0 0 0-1.4-3.85c-.018-.045-.091-.027-.075.021.432 1.291.833 2.595 1.218 3.9q.29.98.548 1.97a11 11 0 0 0 .573 1.824c.02.043.089.021.087-.023a8.3 8.3 0 0 0-.371-1.88m-1.09 1.288a20.4 20.4 0 0 0-1.15-2.988c-.006-.014-.026-.002-.02.011a21 21 0 0 1 1.045 3.069c.263 1.015.414 2.045.634 3.069a.027.027 0 0 0 .054-.008 12 12 0 0 0-.563-3.154m-.828 3.645c-.03-.02-.058.029-.028.047a.72.72 0 0 1 .332.655c-.001.025.037.025.04 0a.77.77 0 0 0-.345-.702m8.771-24.746q-.44-1.02-.972-1.998a22.3 22.3 0 0 0-2.378-3.525c-.014-.017-.044.006-.03.024a28 28 0 0 1 2.276 3.579q.504.947.924 1.937a20 20 0 0 0 .78 1.945c.028.05.092.013.086-.036a7.8 7.8 0 0 0-.687-1.926m-.501 2.275q-.274-.678-.574-1.344-.66-1.466-1.405-2.89c-.012-.023-.045-.003-.034.02q.711 1.467 1.337 2.973.297.717.584 1.438a11 11 0 0 0 .578 1.398.04.04 0 0 0 .071-.03 9 9 0 0 0-.557-1.565m-1.18.957c-.417-.946-.853-1.881-1.294-2.816-.012-.024-.053-.007-.043.018.371.932.745 1.862 1.14 2.785a29 29 0 0 0 1.288 2.82.031.031 0 0 0 .057-.024 28 28 0 0 0-1.148-2.783m-1.09 2.104c-.011-.023-.044-.003-.034.02.387.856.76 1.719 1.216 2.541.01.02.044.006.035-.015-.355-.872-.793-1.706-1.217-2.546m34.379 13.092-.623-1.694c-.026-.07-.137-.04-.113.031l.585 1.74a13 13 0 0 0 .632 1.669c.022.045.088.012.078-.034a13 13 0 0 0-.559-1.712m-1.084.381c-.02-.048-.105-.013-.085.036.298.734.572 1.483.938 2.187a.027.027 0 0 0 .05-.021c-.246-.755-.588-1.475-.903-2.202m35.997 8.1a31 31 0 0 0-3.753-3.397c-.035-.028-.082.017-.05.05a31 31 0 0 0 3.736 3.433c.053.038.105-.042.066-.086m6.74-.87a12.6 12.6 0 0 0-1.684-1.3c-.035-.023-.063.03-.032.053a20 20 0 0 1 3.067 2.883c.026.03.079-.01.055-.042a11.3 11.3 0 0 0-1.406-1.594m25.205-2.644c-.028-.021-.066.016-.039.038a41 41 0 0 1 3.88 3.773c.028.03.068-.014.044-.044a22 22 0 0 0-3.885-3.767m-26.494-10.281a28 28 0 0 0-2.458-1.968c-.049-.035-.095.046-.047.081a28 28 0 0 1 2.441 2.01c.758.701 1.444 1.472 2.186 2.189.027.026.08-.01.055-.043a15.7 15.7 0 0 0-2.176-2.27m9.473 4.026q-.568-.58-1.15-1.145a59 59 0 0 0-2.532-2.308q-2.492-2.16-5.18-4.08c-.04-.03-.078.038-.039.068q2.713 2.005 5.227 4.258a87 87 0 0 1 2.365 2.221q.583.565 1.152 1.142a8.6 8.6 0 0 0 1.114 1.073c.045.032.102-.03.074-.075a7 7 0 0 0-1.031-1.154m9.245-1.059q-1.38-1.444-2.823-2.823a80 80 0 0 0-5.978-5.142c-.031-.024-.076.019-.045.044a97 97 0 0 1 5.805 5.17q1.365 1.313 2.672 2.685c.914.96 1.758 2.009 2.738 2.902.037.034.105-.01.073-.057a24 24 0 0 0-2.442-2.78m-1.2-5.673c-.034-.03-.084.02-.05.05a64 64 0 0 1 5.06 5.155c.027.03.068-.013.044-.044a40 40 0 0 0-5.054-5.161m5.063-.133c-.026-.016-.048.023-.024.04a13.6 13.6 0 0 1 2.548 2.384c.017.02.052-.007.037-.029a9 9 0 0 0-2.561-2.395m-138.476-4.409c-.21-.315-.397-.64-.598-.96a25 25 0 0 0-1.237-1.83 20 20 0 0 0-3.007-3.174c-.023-.02-.056.012-.033.033a19.3 19.3 0 0 1 2.89 3.294 16 16 0 0 1 1.09 1.785 8 8 0 0 1 .46 1.036 1.12 1.12 0 0 0 .525.719.075.075 0 0 0 .11-.044 1 1 0 0 0-.2-.859m1.775 3.71a4 4 0 0 0-.125-.23c-.094-.161-.192-.32-.282-.484-.18-.327-.346-.663-.519-.994-.035-.067-.134-.008-.101.06.161.33.327.66.484.992.078.164.145.334.217.5.035.08.068.161.109.24s.07.18.156.218a.09.09 0 0 0 .132-.053.37.37 0 0 0-.071-.25m-2.391.399q-.64-1.116-1.344-2.193a41 41 0 0 0-3-4.007c-.016-.02-.042.008-.027.028a48 48 0 0 1 2.895 4.143q.642 1.027 1.225 2.089c.399.725.727 1.509 1.194 2.191.052.076.189.032.157-.066a12 12 0 0 0-1.1-2.184m-.816 3.399q-.446-1.012-.988-1.98a22 22 0 0 0-2.44-3.48c-.034-.038-.086.017-.056.056a25 25 0 0 1 2.31 3.533q.484.89.89 1.82.22.507.417 1.025a3.7 3.7 0 0 0 .398.887.055.055 0 0 0 .102-.028 5.3 5.3 0 0 0-.633-1.832m-2.542.589a24 24 0 0 0-1.508-3.183c-.017-.032-.062-.004-.047.027a42 42 0 0 1 1.365 3.336c.398 1.098.704 2.227 1.096 3.328a.043.043 0 0 0 .083-.023 16 16 0 0 0-.989-3.485m-1.993 1.232c-.021-.044-.097-.013-.079.033a22 22 0 0 1 .745 2.196c.214.744.36 1.505.573 2.25a.047.047 0 0 0 .092-.013 12 12 0 0 0-1.331-4.466m-.364 6.326c-.007-.04-.068-.023-.06.016l.27 1.375c.006.03.05.017.045-.013Zm52.116 18.328a18 18 0 0 0-3.939-4.259c-.062-.05-.15.036-.088.089a16.3 16.3 0 0 1 3.529 4.373 42.5 42.5 0 0 1 2.24 5.156c.039.094.197.094.192-.026a10.9 10.9 0 0 0-1.934-5.333m-1.009 3.214a20.6 20.6 0 0 0-3.309-4.706c-.034-.037-.087.017-.055.056a23 23 0 0 1 3.023 4.75 53 53 0 0 1 1.905 5.277c.026.07.143.066.139-.018a14.1 14.1 0 0 0-1.703-5.36m-.65 4.031a26 26 0 0 0-2.303-4.139c-.014-.02-.047-.002-.034.02a32.5 32.5 0 0 1 2.122 4.21c.59 1.416 1.005 2.89 1.53 4.33a.043.043 0 0 0 .082-.023 17 17 0 0 0-1.397-4.398m-2.337-.034c-.025-.05-.098-.006-.074.043a44 44 0 0 1 2.285 6.09.031.031 0 0 0 .06-.016 23.5 23.5 0 0 0-2.27-6.117m.784 7.634c-.225-.682-.483-1.354-.729-2.03-.012-.032-.063-.02-.053.015.207.7.402 1.405.628 2.1a17 17 0 0 0 .713 2c.018.039.072.01.065-.026a18 18 0 0 0-.623-2.06M17.126 156.83a11.7 11.7 0 0 0-2.55.45 45 45 0 0 0-2.76.757 53 53 0 0 0-5.1 1.897c-.032.014-.009.07.024.057q2.532-.972 5.147-1.698a68 68 0 0 1 2.578-.673 22 22 0 0 0 2.678-.667c.063-.023.058-.124-.017-.123m4.934 2.231a29 29 0 0 0-5.794 1.338L10.3 161.94a.023.023 0 0 0 .012.045l6.014-1.368a29 29 0 0 0 5.757-1.469.047.047 0 0 0-.023-.087m3.922 2.003a55 55 0 0 0-13.465 3.13c-.042.015-.025.082.019.068a69.2 69.2 0 0 1 13.446-3.026c.108-.013.11-.184 0-.172m3.777 2.104a18.5 18.5 0 0 0-3.19.468c-1.092.187-2.182.379-3.273.567-2.22.383-4.444.75-6.663 1.146-.021.004-.016.041.005.039 2.162-.284 4.317-.61 6.471-.942 1.096-.17 2.192-.337 3.286-.516a19 19 0 0 0 3.38-.647.059.059 0 0 0-.016-.115m3.391 2.328a12.3 12.3 0 0 0-3.047.037q-1.516.087-3.027.244a61 61 0 0 0-6.014.938c-.04.008-.023.067.016.06a75 75 0 0 1 6.23-.84q1.511-.138 3.028-.207a17 17 0 0 0 2.814-.134.051.051 0 0 0 0-.098m3.766 3.237a17.7 17.7 0 0 0-5.625-.787 25 25 0 0 0-5.646.572c-.02.005-.01.034.009.03a26.4 26.4 0 0 1 5.637-.454 51 51 0 0 1 5.605.714.04.04 0 0 0 .02-.075m3.594 3.394a14 14 0 0 0-2.97-.746q-1.552-.315-3.122-.53a48 48 0 0 0-6.218-.445.031.031 0 0 0 0 .063 62 62 0 0 1 6.398.606q1.507.228 3.001.533a26 26 0 0 0 2.883.621.055.055 0 0 0 .028-.102m3.711 3.341a23.5 23.5 0 0 0-9.552-2.351c-.02-.001-.02.03 0 .03a26.5 26.5 0 0 1 4.954.775 39 39 0 0 1 4.577 1.596c.029.012.048-.036.021-.05m-.003 2.729a21.2 21.2 0 0 0-4.086-1.395.012.012 0 0 0-.006.022 29 29 0 0 1 4.068 1.413c.027.012.052-.027.024-.04m4.267 4.595c-.886-.712-1.825-1.357-2.751-2.015-.021-.014-.04.02-.02.034.903.687 1.796 1.391 2.738 2.024.026.017.058-.024.033-.043M30.247 149.7a22.6 22.6 0 0 0-12.12 2.427c-.045.023-.005.088.04.068a29.4 29.4 0 0 1 12.08-2.425.035.035 0 0 0 0-.07m3.909 1.106a32.9 32.9 0 0 0-12.415 2.418c-.014.005-.008.027.006.022a43.5 43.5 0 0 1 12.409-2.37.035.035 0 0 0 0-.07m5.109 1.538a34.7 34.7 0 0 0-6.118.39 55 55 0 0 0-5.819 1.06c-.02.004-.011.034.008.03a63 63 0 0 1 6.04-.99c1.961-.226 3.928-.237 5.89-.412a.04.04 0 0 0 0-.078m3.75 2.543a15.9 15.9 0 0 0-4.76-.63 17 17 0 0 0-4.77.53c-.016.005-.013.034.005.031a37 37 0 0 1 4.764-.36 44 44 0 0 1 4.753.49c.036.005.04-.05.008-.06m2.738 2.499a14.5 14.5 0 0 0-3.321-.757 24 24 0 0 0-3.508-.202.035.035 0 0 0 0 .07 26.5 26.5 0 0 1 3.486.294c1.12.167 2.212.457 3.325.663a.035.035 0 0 0 .018-.068m2.038 2.769a11 11 0 0 0-4.107-1.315c-.021-.003-.027.035-.005.039a16.7 16.7 0 0 1 4.089 1.317c.027.012.05-.025.023-.04m3.042 3.097a9 9 0 0 0-1.144-.759 13 13 0 0 0-1.234-.601c-.018-.008-.034.018-.016.027a17 17 0 0 1 2.37 1.373c.025.017.047-.023.024-.04m5.301 3.537c-.842-.529-1.717-.993-2.525-1.575-.074-.054-.142.068-.071.121a10.3 10.3 0 0 0 2.572 1.511c.034.013.053-.039.024-.057m-29.293 15.64a29.6 29.6 0 0 0-11.747 1.073.04.04 0 0 0 .02.075 35 35 0 0 1 11.727-1.093c.036.002.034-.05 0-.055m1.366 2.169a19.2 19.2 0 0 0-6.483.406c-.035.008-.02.06.014.052a24 24 0 0 1 6.469-.411c.03.002.03-.044 0-.047m6.978 1.946-2.047-.487c-.05-.011-.07.065-.02.076l2.055.456c.03.006.042-.038.012-.045M80.6 279.463a9 9 0 0 0-1.114.941c-.17.175-.34.353-.495.54-.076.092-.142.196-.21.295a2.3 2.3 0 0 0-.2.313.04.04 0 0 0 .062.047 3 3 0 0 0 .25-.25c.084-.084.173-.164.253-.25.166-.18.325-.364.495-.54.334-.346.656-.703 1.007-1.034.031-.03-.011-.089-.048-.062m101.291 49.257c-1.057-.98-2.248-1.83-3.388-2.71q-1.887-1.458-3.735-2.965c-1.103-.902-2.185-1.827-3.34-2.662a21 21 0 0 0-3.96-2.47c-.093-.039-.192.065-.114.148a23 23 0 0 0 3.417 2.735c1.235.882 2.516 1.69 3.773 2.54q1.88 1.27 3.682 2.657c1.204.926 2.361 1.934 3.613 2.794.04.027.088-.035.052-.068m1.073-5.332a6 6 0 0 0-1.436-.933q-.84-.48-1.682-.956-1.739-.98-3.465-1.979c-1.119-.646-2.18-1.382-3.293-2.035-1.15-.674-2.355-1.244-3.556-1.822a.023.023 0 0 0-.024.04c1.098.678 2.183 1.378 3.318 1.991 1.172.634 2.38 1.19 3.534 1.861q1.674.974 3.312 2.002.819.516 1.635 1.037a6.7 6.7 0 0 0 1.588.912.07.07 0 0 0 .069-.118m.139-4.404c-1.007-.514-2.033-.988-3.029-1.524q-1.494-.805-2.915-1.736c-.042-.027-.08.04-.04.068a29.6 29.6 0 0 0 5.966 3.235c.024.01.041-.03.018-.043m2.715-2.532-.85-.177c-.03-.006-.042.04-.012.045l.851.17c.025.005.035-.033.01-.038m60.452-25.649a148 148 0 0 1-21.29-5.548c-.028-.011-.039.033-.012.045a70.4 70.4 0 0 0 21.282 5.649.075.075 0 0 0 .02-.146m-3.085-15.896c-1.858-.827-3.739-1.604-5.613-2.395-.014-.006-.026.014-.012.02 1.866.813 3.726 1.64 5.607 2.418.025.01.043-.032.018-.043m7.47-.468c-2.112-1.187-4.305-2.225-6.452-3.345a322 322 0 0 1-6.42-3.418.023.023 0 0 0-.024.04 112.5 112.5 0 0 0 12.863 6.801c.045.02.074-.055.033-.078m6.855-1.292c-2.28-1.112-4.614-2.108-6.885-3.24a149 149 0 0 1-6.739-3.55.023.023 0 0 0-.023.04 109 109 0 0 0 6.776 3.722 67 67 0 0 0 6.844 3.092.035.035 0 0 0 .027-.064m6.129-1.366c-2.166-1.024-4.397-1.919-6.587-2.893q-3.291-1.464-6.529-3.043c-.013-.007-.025.013-.012.02q3.26 1.656 6.577 3.198c2.138.993 4.3 1.997 6.521 2.79.041.014.07-.053.03-.072m6.108-1.318c-1.215-.66-2.498-1.194-3.77-1.734q-1.85-.785-3.725-1.507c-.042-.016-.06.052-.019.068q1.958.779 3.887 1.624c1.204.529 2.388 1.105 3.606 1.599.029.012.048-.036.021-.05m6.136-1.21c-.955-.432-1.929-.809-2.903-1.193-.052-.02-.073.062-.023.082.963.404 1.92.812 2.902 1.168.033.012.056-.042.024-.057m-17.867-58.73a41.4 41.4 0 0 0-14.507-4.306c-.026-.003-.032.042-.006.046a55.4 55.4 0 0 1 14.47 4.334c.049.022.093-.048.043-.074m4.438-3.923a11 11 0 0 0-1.45-.506c-.538-.196-1.063-.428-1.588-.658a24 24 0 0 0-3.045-1.145 41 41 0 0 0-6.89-1.326c-.027-.003-.03.039-.006.046 1.156.332 2.317.627 3.5.849 1.152.216 2.324.336 3.467.602a14.4 14.4 0 0 1 3.282 1.313 5.54 5.54 0 0 0 2.699.941c.057-.005.09-.085.031-.116m-1.543-4.939a21 21 0 0 0-2.677-.974 20 20 0 0 0-2.794-.554c-.04-.006-.046.058-.01.069.907.265 1.81.54 2.718.794.91.255 1.822.49 2.733.737.041.012.072-.053.03-.071m7.643 2.627c-.54-.23-1.119-.362-1.672-.557a13 13 0 0 1-1.692-.742c-.08-.042-.15.077-.071.122a14 14 0 0 0 1.652.792 5.6 5.6 0 0 0 1.758.48c.048.002.072-.075.025-.095m3.599-3.652a19.15 19.15 0 0 0-9.037-3.436c-.053-.007-.078.071-.023.083a30 30 0 0 1 4.573 1.367c1.526.587 2.976 1.344 4.44 2.067a.047.047 0 0 0 .047-.081m5.608-3.559a17.8 17.8 0 0 0-8.205-2.662c-.044-.005-.054.069-.01.077a46.5 46.5 0 0 1 8.172 2.685c.062.023.09-.067.043-.1m5.254-2.841a10 10 0 0 0-2.691-1.098 29 29 0 0 0-2.924-.635c-.034-.005-.05.045-.014.053a27 27 0 0 1 2.813.837c.915.327 1.83.706 2.77.95a.059.059 0 0 0 .046-.107m5.859-2.651a4.13 4.13 0 0 0-1.965-.974 4.56 4.56 0 0 0-2.198.207.023.023 0 0 0 .012.046 5.8 5.8 0 0 1 2.124.098 6.6 6.6 0 0 1 1.96.709c.053.03.115-.044.067-.086m88.197 138.833a98 98 0 0 0-15.1-3.985c-.084-.016-.12.11-.036.128 5.09 1.093 10.11 2.508 15.1 3.985.083.024.115-.1.035-.128m31.889-207.61c-2.11-.224-4.224-.536-6.34-.684a10.2 10.2 0 0 0-3.132.232c-.546.145-1.07.35-1.625.482a86 86 0 0 1-1.51.341c-2.005.439-4.003.898-6.028 1.238-2.168.365-4.359.545-6.55.7-.02.001-.02.032 0 .031 2.085-.073 4.173-.115 6.257-.22a55 55 0 0 0 6.119-.72 13 13 0 0 1 3.21-.28 11.7 11.7 0 0 0 3.104-.276c1.04-.2 2.074-.456 3.125-.598a23.6 23.6 0 0 1 3.37-.176c.047 0 .044-.066 0-.07m26.217-1.88c-3.973.139-7.946.467-11.913.713-.025.002-.026.04 0 .04 3.968-.227 7.952-.373 11.913-.706.03-.002.03-.048 0-.047m-9.925 7.776a131 131 0 0 1-18.265 1.342 63 63 0 0 0-7.042.288 6.3 6.3 0 0 0-2.99 1.003c-.709.494-2.043 1.497-1.723 2.511.24.761 1.02.79 1.677.921.844.168 1.693.275 2.542.405 1.7.26 3.407.456 5.106.729a.086.086 0 0 0 .046-.166c-1.324-.4-2.645-.805-3.947-1.269-.61-.217-1.237-.4-1.857-.596-.31-.098-.62-.198-.932-.287-.162-.047-.44-.159-.688-.226.11-.115.218-.232.338-.336a5 5 0 0 1 .819-.552c.369.217.745.424 1.12.629.786.426 1.58.842 2.392 1.217a22.2 22.2 0 0 0 5.078 1.72c.098.019.171-.118.072-.171-1.562-.835-3.194-1.566-4.791-2.334a62 62 0 0 1-2.323-1.164q-.329-.178-.654-.361a8 8 0 0 1 2.165-.777c.197-.035.4-.046.598-.074a51 51 0 0 0 4.502 2.48c.778.395 1.57.77 2.362 1.138a21 21 0 0 0 2.442 1.04c.09.029.126-.093.06-.143a21 21 0 0 0-2.401-1.44c-.764-.42-1.526-.843-2.3-1.243-1.317-.678-2.63-1.345-3.99-1.915 1.588-.155 3.21-.126 4.804-.163a88 88 0 0 0 8.623 4.804.05.05 0 0 0 .051-.087 86 86 0 0 0-8.332-4.726q.2-.004.397-.01a102 102 0 0 0 3.1-.189c1.314.756 2.625 1.517 3.95 2.258.697.39 1.392.784 2.093 1.168a14.3 14.3 0 0 0 2.082 1.045c.039.014.075-.045.041-.072a14.4 14.4 0 0 0-1.998-1.188c-.7-.384-1.408-.757-2.113-1.135-1.318-.706-2.646-1.39-3.972-2.081a86 86 0 0 0 4.884-.476l.21-.031q1.653.931 3.32 1.835c1.116.6 2.217 1.25 3.382 1.749a.035.035 0 0 0 .036-.061c-1.062-.689-2.215-1.24-3.334-1.83q-1.654-.868-3.324-1.705c2.913-.387 5.812-.878 8.7-1.413.04-.008.023-.067-.016-.06"/><path fill="currentColor" d="M427.693 132.27c-1.309-.778-2.7-1.41-4.074-2.063-.04-.02-.076.039-.036.06 1.342.72 2.676 1.464 4.078 2.057.036.015.068-.032.032-.054m5.472-1.114c-1.108-.424-2.252-.734-3.393-1.056a.04.04 0 0 0-.021.076c1.122.383 2.24.777 3.393 1.056a.04.04 0 0 0 .021-.076m-34.017 18.758a34.7 34.7 0 0 0-7.52-4.746.059.059 0 0 0-.058.101c2.489 1.6 5.039 3.105 7.512 4.73.051.034.115-.046.066-.085m5.047.12a13 13 0 0 0-1.657-1.02 80 80 0 0 1-1.711-1.01q-1.722-1.05-3.417-2.148c-.047-.03-.086.042-.043.075a48 48 0 0 0 3.32 2.31q.84.534 1.695 1.04a9.7 9.7 0 0 0 1.73.897c.078.026.15-.09.083-.144m5.773-.689a23 23 0 0 0-2.527-1.24c-.853-.397-1.718-.77-2.576-1.155-.023-.01-.043.022-.02.034.852.428 1.698.873 2.558 1.285a23 23 0 0 0 2.529 1.162c.051.017.08-.058.036-.086m5.836-1.172a25 25 0 0 0-2.357-.772l-2.4-.621a.027.027 0 0 0-.014.052q1.176.397 2.351.796a25 25 0 0 0 2.393.643.05.05 0 0 0 .027-.098m-56.166 38.507c-1.526-.84-3.13-1.544-4.68-2.337a128 128 0 0 1-4.617-2.473q-4.56-2.573-8.88-5.54c-.026-.017-.049.024-.024.04q4.338 3.038 8.929 5.688a110 110 0 0 0 4.592 2.513 45 45 0 0 0 4.644 2.195c.05.018.082-.06.036-.086m6.013-2.509a38 38 0 0 0-3.796-2.125l-3.959-2.094c-2.602-1.378-5.218-2.73-7.83-4.09-.023-.011-.043.022-.02.034 2.617 1.434 5.23 2.873 7.858 4.289l3.832 2.064a38 38 0 0 0 3.891 1.98c.035.013.052-.039.024-.058m4.896-2.911c-.268.78-2.847-.964-3.217-1.166q-1.518-.83-3.045-1.646-3.165-1.686-6.328-3.376c-.066-.036-.125.063-.059.1 2.58 1.463 5.147 2.95 7.736 4.396 1.227.685 2.454 1.495 3.742 2.057.422.184 1.215.278 1.27-.352.006-.06-.082-.065-.1-.013m5.054-1.646c-1.524-.867-3.12-1.603-4.657-2.448a73 73 0 0 1-4.52-2.699c-.035-.022-.064.03-.032.054a50 50 0 0 0 4.492 2.915 27.6 27.6 0 0 0 4.681 2.263c.05.018.082-.06.036-.085m3.762-3.13a10.5 10.5 0 0 1-3.12-1.607c-.028-.021-.056.026-.028.047a9.9 9.9 0 0 0 3.136 1.606c.029.008.04-.036.012-.046m7.494-.355c-1.02-.344-2.059-.63-3.09-.936a.035.035 0 0 0-.018.068c1.03.31 2.055.64 3.096.913a.023.023 0 0 0 .012-.045m-39.16-47.961a75 75 0 0 0-11.932-2.316c-.055-.007-.054.079 0 .085a110 110 0 0 1 11.917 2.284.027.027 0 0 0 .015-.053m37.214-65.127a103.3 103.3 0 0 0-16.493-12.412c-.021-.013-.04.02-.02.034a193 193 0 0 1 16.452 12.439c.042.034.101-.022.06-.061m-15.118-6.308c-.046-.03-.089.043-.043.074a106 106 0 0 1 7.178 5.316c2.27 1.826 4.41 3.795 6.614 5.698a.031.031 0 0 0 .044-.044 75.2 75.2 0 0 0-13.793-11.044m7.501 9.852c-.022-.02-.055.012-.033.033 1.377 1.346 2.747 2.7 4.145 4.024.022.02.055-.012.033-.033-1.365-1.358-2.759-2.687-4.145-4.024m1.758 5.732c-.031-.033-.08.016-.05.05.897 1.032 1.79 2.066 2.743 3.046.025.025.06-.012.039-.039-.871-1.054-1.803-2.053-2.732-3.057M172.775 184.594a27.4 27.4 0 0 0-6.177-3.005c-.024-.008-.033.03-.01.038a43 43 0 0 1 6.16 3.014.027.027 0 0 0 .027-.047m7.77.438c-1.986-1.353-4.178-2.44-6.271-3.62-2.104-1.185-4.226-2.337-6.34-3.502a.027.027 0 0 0-.028.047c2.082 1.221 4.157 2.456 6.25 3.657 2.084 1.196 4.14 2.524 6.318 3.54a.07.07 0 0 0 .071-.122m4.827-.752a18.6 18.6 0 0 0-2.946-2.004q-1.65-1.04-3.33-2.027a118 118 0 0 0-6.759-3.65c-.049-.026-.092.047-.043.073a138 138 0 0 1 6.589 3.706q1.623.97 3.22 1.98a28 28 0 0 0 3.198 2.014c.057.026.123-.043.071-.092m2.658-2.302c-1.45-.965-3.07-1.716-4.602-2.537-1.546-.828-3.102-1.636-4.653-2.452-.045-.023-.084.043-.04.068 1.533.848 3.061 1.705 4.6 2.54 1.53.832 3.048 1.773 4.651 2.456a.043.043 0 0 0 .044-.075m2.041-2.72c-1.121-.593-2.263-1.147-3.399-1.71-.045-.023-.084.044-.04.067 1.136.567 2.266 1.145 3.416 1.683.026.013.05-.026.023-.04m85.907-17.278a131 131 0 0 1-24.63-15.058c-.054-.043-.132.033-.077.077a119.3 119.3 0 0 0 18.852 12.26 99 99 0 0 0 5.82 2.783c.04.018.076-.042.035-.061m-1.736 2.469a142.4 142.4 0 0 1-22.122-14.238c-.047-.037-.113.027-.066.066a100.8 100.8 0 0 0 22.144 14.246c.05.023.093-.047.044-.074m-12.327-3.605c-1.794-1.344-3.689-2.545-5.54-3.807q-2.775-1.891-5.515-3.832-5.573-3.95-10.977-8.13c-.028-.022-.067.016-.04.038q5.283 4.162 10.73 8.108 2.722 1.97 5.486 3.88c1.907 1.317 3.803 2.662 5.817 3.81.044.026.078-.038.04-.067m11.897 6.186c-1.315-.669-2.688-1.209-3.993-1.903a40 40 0 0 1-3.784-2.297c-.075-.051-.145.07-.071.122a40 40 0 0 0 3.823 2.367 22 22 0 0 0 3.98 1.818.059.059 0 0 0 .045-.107m.087 6.285c-2.061-1.271-4.225-2.385-6.313-3.611q-3.034-1.782-6.01-3.662-6.049-3.82-11.864-7.991c-.017-.012-.032.015-.016.027a205 205 0 0 0 11.808 8.087q2.975 1.88 6.009 3.664c2.08 1.224 4.168 2.51 6.35 3.546a.035.035 0 0 0 .035-.06m-4.488 2.853c-.947-.801-2.016-1.473-3.03-2.185l-3.15-2.21-6.4-4.492c-.029-.02-.056.027-.028.048l6.274 4.464 3.035 2.16c1.072.763 2.124 1.6 3.261 2.264.03.017.066-.026.038-.05m-3.346 1.948c-1.998-1.53-4.11-2.92-6.177-4.354-.021-.015-.04.02-.02.034 2.043 1.468 4.059 2.996 6.17 4.367.03.02.054-.026.027-.047m16.583-16.853c-1.624-.854-3.335-1.564-4.995-2.346q-2.499-1.176-4.971-2.407-4.945-2.462-9.777-5.139c-.014-.007-.025.013-.012.02q4.865 2.737 9.844 5.26 2.463 1.247 4.953 2.44c1.621.776 3.248 1.602 4.931 2.236.038.014.062-.046.027-.064m1.045-3.471a48.6 48.6 0 0 1-7.186-2.987c-.018-.01-.034.018-.016.027a35.2 35.2 0 0 0 7.192 2.998.02.02 0 0 0 .01-.038m5.453-1.026-2.385-1.357a.016.016 0 0 0-.016.027l2.378 1.37a.023.023 0 0 0 .023-.04m5.79-.346c-.788-.351-1.584-.688-2.377-1.03-.04-.018-.077.042-.035.06.798.339 1.593.684 2.394 1.014.025.01.043-.032.018-.043M121.29 95.18c-.025-.026-.062.011-.04.038a75 75 0 0 0 3.066 3.404c.035.036.087-.018.055-.056a75 75 0 0 0-3.082-3.387m5.207 1.024a86 86 0 0 1-4.115-5.157c-.026-.036-.087-.002-.06.035a68 68 0 0 0 3.913 5.128 44.5 44.5 0 0 0 4.55 4.798.035.035 0 0 0 .05-.05c-1.434-1.596-2.939-3.125-4.338-4.754m1.918-3.742q-2.902-3.385-5.635-6.914c-.011-.014-.036.005-.025.02q2.632 3.54 5.476 6.913a67 67 0 0 0 6.097 6.676.027.027 0 0 0 .039-.038c-1.884-2.297-4.017-4.4-5.952-6.657m5.639.132a130 130 0 0 1-6.186-7.706c-.012-.016-.039 0-.027.016q2.814 3.94 5.964 7.615a75 75 0 0 0 6.792 7.19.031.031 0 0 0 .044-.044c-2.192-2.364-4.471-4.635-6.587-7.07m5.49-.207q-2.922-3.287-5.584-6.792c-.02-.028-.068-.001-.047.027q2.583 3.427 5.411 6.658a72 72 0 0 0 6.088 6.357.023.023 0 0 0 .033-.033c-1.957-2.084-4-4.078-5.9-6.217m2.304-4.134c-.014-.015-.036.007-.022.022 2.176 2.46 4.3 4.985 6.554 7.376.024.026.06-.012.038-.039-2.114-2.513-4.377-4.914-6.57-7.36m3.987-1.615a.023.023 0 0 0-.033.033c1.811 1.818 3.598 3.667 5.447 5.447a.023.023 0 0 0 .033-.033c-1.78-1.849-3.63-3.635-5.447-5.447m6.435.725a2.4 2.4 0 0 0-.285-.236l-.29-.23c-.185-.148-.376-.287-.566-.429l-1.19-.887c-.025-.018-.057.024-.033.043l1.166.919c.185.146.37.294.56.435l.298.22a2.4 2.4 0 0 0 .302.214.031.031 0 0 0 .038-.049m.707-4.47-.677-.347c-.031-.016-.059.032-.027.047l.684.334c.023.01.043-.022.02-.034m-64.122 16.3q-1.282-1.187-2.562-2.375c-.03-.028-.073.015-.045.044l2.487 2.45a32 32 0 0 0 2.554 2.384.043.043 0 0 0 .06-.06 32 32 0 0 0-2.494-2.443m6.796 2.604a20 20 0 0 0-1.737-1.452q-.902-.742-1.788-1.502a137 137 0 0 1-3.454-3.045c-.014-.013-.036.009-.022.023a98 98 0 0 0 3.436 3.156q.855.744 1.726 1.47a15 15 0 0 0 1.792 1.412.04.04 0 0 0 .047-.062m4.17-.454c-1.017-.972-2.108-1.87-3.171-2.793-1.066-.923-2.143-1.834-3.216-2.749-.026-.022-.065.016-.038.04 1.05.936 2.098 1.878 3.157 2.806s2.099 1.887 3.202 2.763c.046.036.11-.024.066-.067m2.457-1.635-1.373-1.427-2.708-2.813c-.031-.033-.08.017-.05.05l2.64 2.803q.642.68 1.283 1.362a16 16 0 0 0 1.388 1.412c.028.023.08-.009.055-.043a15 15 0 0 0-1.235-1.344m1.955-1.661-3.27-3.637c-.027-.03-.071.015-.045.045l3.186 3.62c1.056 1.2 2.076 2.466 3.222 3.583.024.023.071-.01.049-.038-.965-1.252-2.086-2.398-3.142-3.573m2.54-2.354-3.791-4.327c-.04-.045-.106.021-.066.067l3.723 4.275 1.834 2.105c.627.72 1.23 1.477 1.912 2.146.024.024.071-.008.05-.038-1.11-1.484-2.44-2.835-3.662-4.228m3.245-1.839q-2.207-2.388-4.31-4.87c-.025-.032-.07.013-.044.043q2.092 2.492 4.287 4.894a62 62 0 0 0 4.523 4.674.023.023 0 0 0 .033-.033c-1.438-1.619-3.019-3.117-4.489-4.708m3.662-.11a102 102 0 0 1-2.475-2.82q-2.494-2.935-4.752-6.055c-.023-.033-.077-.002-.054.031q2.126 3.104 4.5 6.029c.79.97 1.614 1.912 2.451 2.841a25 25 0 0 0 2.784 2.824.05.05 0 0 0 .071-.072c-.77-.984-1.682-1.857-2.525-2.778m.954-3.777-2.183-2.483c-1.455-1.655-2.93-3.292-4.4-4.934-.013-.015-.034.007-.021.022 1.41 1.655 2.815 3.314 4.24 4.956l2.104 2.425a21 21 0 0 0 2.21 2.455c.036.03.096-.008.068-.052a20 20 0 0 0-2.018-2.389m-.74-4.995-3.114-3.448c-.02-.022-.053.01-.034.033L113.77 85c1.002 1.142 1.967 2.35 3.06 3.406.027.027.08-.01.055-.043-.913-1.192-1.985-2.277-2.991-3.39m.386-3.857a23 23 0 0 1-1.446-1.974c-.019-.03-.066-.002-.047.027a23 23 0 0 0 1.39 1.954 14 14 0 0 0 1.653 1.817.027.027 0 0 0 .039-.039c-.528-.597-1.082-1.168-1.589-1.785m32.894 28.355c-.012-.01-.028.007-.017.017a45.4 45.4 0 0 1 6.92 7.743c.023.032.075.003.054-.032a31.1 31.1 0 0 0-6.957-7.728m6.411 11.429q-1.197-1.503-2.466-2.948-2.5-2.856-5.254-5.474c-.025-.024-.064.014-.038.039q2.67 2.625 5.11 5.47 1.184 1.382 2.309 2.815c.786 1.001 1.52 2.072 2.37 3.02.03.034.082-.01.06-.047a24 24 0 0 0-2.09-2.874m-.941 3.574a58 58 0 0 0-5.426-5.861c-.029-.028-.073.016-.044.044a58 58 0 0 1 5.196 5.787c1.643 2.104 3.01 4.368 4.55 6.542a.05.05 0 0 0 .087-.052 35.2 35.2 0 0 0-4.363-6.46m-3.043 1.629a.027.027 0 0 0-.039.039 47 47 0 0 1 3.351 3.726c1.08 1.34 2.036 2.756 3.019 4.166.02.028.065.003.047-.028a40 40 0 0 0-6.378-7.903m2.688 8.848-3.31-4.126c-.028-.036-.077.014-.05.05l3.225 4.096c1.071 1.361 2.105 2.769 3.257 4.063.027.03.079-.01.056-.043-.988-1.397-2.11-2.706-3.179-4.04m-2.036 1.734c-.035-.036-.09.02-.056.056.663.697 1.31 1.412 2 2.082.018.018.044-.009.028-.028-.632-.725-1.312-1.41-1.972-2.11m41.307-76.653q-1.467-1.554-3.057-2.987a52 52 0 0 0-6.646-5.048c-.034-.021-.065.032-.031.054a56 56 0 0 1 6.622 5.2q1.501 1.367 2.895 2.847c.951 1.009 1.813 2.109 2.786 3.095.03.03.086-.01.062-.048a23.6 23.6 0 0 0-2.63-3.113m-10.601-5.151c-.03-.02-.056.027-.028.047a89 89 0 0 1 10.337 9.074c.028.029.07-.014.044-.044a62 62 0 0 0-10.353-9.077m1.646 5.537c-.018-.018-.045.01-.027.027 2.233 2.19 4.43 4.429 6.752 6.527a.031.031 0 0 0 .044-.044c-2.181-2.244-4.498-4.358-6.769-6.51m-7.78 224.246c-1.496-.985-3.035-1.907-4.559-2.85-.03-.02-.057.028-.027.047 1.516.954 3.02 1.932 4.563 2.843.026.016.048-.024.023-.04m3.337.109c-2.617-1.746-5.406-3.26-8.114-4.86a.008.008 0 0 0-.007.013c2.683 1.642 5.328 3.395 8.097 4.887a.023.023 0 0 0 .024-.04m4.375.095c-1.404-.89-2.865-1.68-4.254-2.596a66 66 0 0 1-4.177-2.978c-.012-.009-.028.007-.017.017a52 52 0 0 0 3.994 2.995 33.4 33.4 0 0 0 4.41 2.636.043.043 0 0 0 .044-.074m3.446-.424c-1.697-1.14-3.425-2.237-5.141-3.35-.017-.01-.033.016-.016.027 1.708 1.126 3.407 2.267 5.134 3.363.025.017.048-.023.023-.04m46.606 54.887c-1.319-.655-2.67-1.25-4.007-1.869-.023-.01-.043.023-.02.034 1.332.629 2.655 1.284 4.004 1.876.027.011.051-.027.024-.04m6.158-2.096c-2.212-.962-4.489-1.769-6.696-2.747a109 109 0 0 1-6.521-3.166c-.05-.026-.092.047-.044.074q3.222 1.787 6.585 3.288a50 50 0 0 0 6.655 2.601c.029.008.05-.037.021-.05m6.092-1.954c-2.514-1.208-5.158-2.17-7.71-3.303q-3.835-1.703-7.606-3.545c-.018-.009-.034.018-.016.027q3.806 1.9 7.679 3.661a82 82 0 0 0 7.617 3.246c.05.016.084-.063.036-.086m6.479-2.196c-.226.529-1.095-.027-1.4-.174q-.66-.318-1.321-.632-1.278-.603-2.557-1.202-2.605-1.224-5.212-2.443c-.027-.012-.051.028-.024.04q3.193 1.562 6.388 3.117c1.034.503 2.063 1.02 3.109 1.497.325.148 1.013.369 1.09-.173.005-.04-.053-.075-.072-.03m7.45-.474a16 16 0 0 0-2.27-1.09c-.713-.33-1.429-.654-2.14-.99q-2.209-1.04-4.372-2.175c-.04-.021-.075.038-.036.06q2.168 1.207 4.385 2.321c.727.365 1.456.724 2.194 1.063a12 12 0 0 0 2.197.911.055.055 0 0 0 .042-.1m6.177-1.466a10 10 0 0 0-1.872-.824q-.974-.394-1.952-.775-1.991-.774-3.985-1.543c-.02-.008-.035.027-.015.036l3.928 1.678q.908.386 1.82.76a10.7 10.7 0 0 0 2.034.768.055.055 0 0 0 .042-.1m6.529-1.169a30 30 0 0 0-2.745-1.26c-.898-.39-1.814-.741-2.72-1.11-.041-.017-.07.053-.03.071.911.425 1.817.869 2.739 1.27.896.391 1.785.822 2.717 1.122a.051.051 0 0 0 .039-.093m5.405-1.618c-.788-.256-1.59-.443-2.396-.634a.04.04 0 0 0-.02.075c.794.23 1.586.461 2.397.626a.035.035 0 0 0 .019-.068m7.834-.972a9.8 9.8 0 0 1-3.044-.47c-.057-.02-.08.07-.025.09a6.9 6.9 0 0 0 3.069.442.031.031 0 0 0 0-.062M66.03 172.395a.027.027 0 0 0-.053.015c.774 2.815 1.506 5.66 2.498 8.408a.047.047 0 0 0 .09-.025c-.68-2.841-1.633-5.62-2.535-8.398m2.675-.836a.04.04 0 0 0-.076.02 125 125 0 0 0 4.429 13.334c.019.045.09.028.075-.021-1.377-4.476-2.977-8.88-4.428-13.333m12.355 15.667a114 114 0 0 0-1.583-4.909 77.5 77.5 0 0 0-3.763-9.353c-.022-.046-.087-.006-.067.04 1.376 3.101 2.729 6.22 3.798 9.443a72 72 0 0 1 1.365 4.726 42 42 0 0 0 1.254 4.878c.02.054.111.052.107-.014a22 22 0 0 0-1.111-4.81m3.41-1.966a95 95 0 0 0-3.112-8.898c-.015-.037-.075-.022-.06.016q1.666 4.342 2.968 8.816.646 2.205 1.192 4.438c.373 1.524.658 3.073 1.075 4.586.009.032.066.027.061-.009a57 57 0 0 0-2.124-8.949m4.735 3.361q-1.19-4.033-2.545-8.015c-.011-.033-.064-.02-.053.014q1.316 3.993 2.471 8.036c.767 2.693 1.363 5.445 2.199 8.116a.04.04 0 0 0 .075-.02 79 79 0 0 0-2.147-8.13m1.772-5.656c-.007-.019-.037-.011-.03.008a96 96 0 0 1 3.436 13.652c.005.026.05.02.046-.006a59.6 59.6 0 0 0-3.452-13.654m4.923 6.986a.012.012 0 0 0-.022.006c.425 1.427.842 2.857 1.286 4.278a.016.016 0 0 0 .03-.008c-.416-1.43-.86-2.852-1.294-4.276m11.7 9.716c-.008-.024-.044-.014-.037.01a50 50 0 0 0 2.675 7.177c.017.036.078.01.064-.027-.904-2.386-1.85-4.754-2.701-7.16m2.039-1.707c-.014-.027-.054-.004-.041.023a106 106 0 0 1 4.779 12.245.027.027 0 0 0 .052-.014 72.5 72.5 0 0 0-4.79-12.254m3.91 2.386c-.005-.009-.018 0-.014.008a88 88 0 0 1 4.402 11.41.023.023 0 0 0 .046-.012 75 75 0 0 0-4.434-11.406m5.85 9.466q-.241-.781-.46-1.569-.109-.393-.213-.789l-.013-.043q.004.023.01.044.094.366.194.73.223.818.47 1.63.484 1.594 1.06 3.158c.005.014.027.008.022-.006a62 62 0 0 1-1.07-3.155m-.686-2.401a5 5 0 0 0-.185-.731 4 4 0 0 0 .185.731m-.277-.906a.8.8 0 0 1 .092.175.8.8 0 0 1 0-.187c.017-.106-.142-.054-.092.012m3.599 4.442q-.539-1.455-.972-2.945a.012.012 0 0 0-.022.006 36 36 0 0 0 2.135 5.822c.01.02.044.006.036-.015-.396-.956-.817-1.897-1.177-2.868m2.447-.072a.008.008 0 0 0-.014.008 30 30 0 0 1 1.751 3.465c.006.013.026.001.02-.012a29.5 29.5 0 0 0-1.757-3.46m3.204 1.549c-.01-.017-.038-.002-.027.015l1.194 1.871c.009.013.029.001.02-.012Zm14.33 5.254c-.011-.016-.038-.001-.027.016q1.441 2.182 2.721 4.463c.855 1.52 1.63 3.08 2.456 4.615.012.023.053.007.043-.018a52 52 0 0 0-5.193-9.076m8.031 7.347q-.876-1.545-1.829-3.045a65 65 0 0 0-3.967-5.522c-.019-.024-.062.008-.043.033a78 78 0 0 1 3.86 5.576q.896 1.412 1.723 2.865c.566.995 1.06 2.048 1.678 3.01.02.03.08.011.065-.028a22 22 0 0 0-1.487-2.89m2.38-1.69q-1.584-2.462-3.12-4.955c-.019-.03-.066-.002-.047.028q1.525 2.499 3.097 4.968c1.041 1.635 2.038 3.353 3.219 4.892.018.023.056.003.04-.024-.969-1.684-2.138-3.274-3.19-4.909m-.866-5.847c-.012-.016-.034.006-.022.022 2.876 3.565 5.5 7.298 8.227 10.974.017.023.057.002.04-.024a117 117 0 0 0-8.245-10.972m4.866.972c-.022-.034-.076-.003-.054.031 2.035 3.174 4.09 6.37 6.395 9.357.018.023.058.002.04-.023-2.097-3.143-4.312-6.203-6.381-9.365m4.283 1.794c-.023-.032-.077-.001-.053.031 1.604 2.164 3.123 4.384 4.646 6.605.017.025.057.002.04-.023-1.449-2.267-3.026-4.456-4.632-6.613m4.243 2.044c-.021-.023-.054.01-.033.032 1.126 1.198 2.232 2.42 3.394 3.584.021.022.053-.01.033-.033-1.099-1.223-2.26-2.394-3.394-3.584m-62.967-7.15c-.011-.017-.038-.002-.027.016a53 53 0 0 1 3.393 6.647c.012.028.06.008.05-.021a35.2 35.2 0 0 0-3.416-6.642m4.429.851c-.011-.023-.044-.004-.033.019 1.863 3.792 3.687 7.66 5.873 11.28a.035.035 0 0 0 .06-.036c-1.85-3.81-3.97-7.494-5.9-11.264m3.704.599c-.022-.034-.076-.003-.055.031 2.837 4.651 5.436 9.427 8.024 14.219.022.04.08.005.06-.036a117.5 117.5 0 0 0-8.03-14.214m9.421 9.819q-1.728-3.504-3.76-6.846a.031.031 0 0 0-.054.032q1.975 3.304 3.666 6.766c1.125 2.31 2.046 4.7 3.108 7.035.015.033.068.01.057-.024a53 53 0 0 0-3.017-6.963m2.148-2.903c-.002-.005-.009 0-.006.004 2.248 4.39 4.229 8.89 6.08 13.46.007.018.037.01.03-.008a133 133 0 0 0-6.104-13.456m1.735-2.401c-.01-.017-.037-.002-.027.015a130 130 0 0 1 8.44 16.71c.01.02.044.006.036-.014a98.6 98.6 0 0 0-8.449-16.711m66.514 13.685a41.1 41.1 0 0 0-14.443-2.514.008.008 0 0 0 0 .015 52.2 52.2 0 0 1 14.423 2.575c.048.015.067-.058.02-.076m10.239.81c-4.297-2.013-8.84-3.862-13.622-4.181-.015-.001-.015.022 0 .023 4.804.458 9.178 2.43 13.598 4.215.033.013.056-.042.024-.057m-3.901-3.986a.012.012 0 0 0-.007.023 56 56 0 0 1 9.316 3.842c.018.01.034-.017.016-.027a49.6 49.6 0 0 0-9.325-3.838m5.595.418a.016.016 0 0 0-.01.03 25.4 25.4 0 0 1 5.14 2.128.016.016 0 0 0 .015-.027 22.6 22.6 0 0 0-5.146-2.131m8.363 1.65c-1.406-.707-2.844-1.348-4.272-2.008-.023-.01-.043.023-.02.034 1.418.68 2.828 1.382 4.268 2.015.027.012.051-.027.024-.04m2.701-1.284c-.588-.27-1.201-.481-1.808-.705a43 43 0 0 1-1.91-.746c-.018-.007-.034.018-.016.027a12.8 12.8 0 0 0 3.704 1.495c.04.007.073-.051.03-.071m2.393-1.424c-.28-.102-.557-.205-.843-.287l-.853-.248a.05.05 0 0 0-.027.098l.849.265c.283.088.57.155.86.225a.027.027 0 0 0 .014-.053"/></svg>