<svg xmlns="http://www.w3.org/2000/svg" data-name="broken equipment" viewBox="0 0 507.767 358.945"><path fill="currentColor" d="M254.444 177.398a128 128 0 0 0-2.017-5.57q-.029-.482-.064-.965c-.103-1.4-.148-2.82-.348-4.21-.4-2.788-1.135-5.572-1.788-8.311-1.313-5.518-2.843-10.984-4.533-16.399a341 341 0 0 0-5.464-16.015q-1.448-3.942-2.97-7.857c-.99-2.551-1.979-5.106-3.177-7.568a34 34 0 0 0-4.926-7.511 33 33 0 0 0-3.302-3.227c-.567-.494-1.13-1.02-1.722-1.5l-.027-.078a19.7 19.7 0 0 0-5.508-8.19 15.14 15.14 0 0 0-9.441-3.543 38.3 38.3 0 0 0-11.007 1.723l-2.3.606a41 41 0 0 0-2.662-4.313c-1.165-1.69-2.325-3.383-3.496-5.069a24.8 24.8 0 0 0-3.504-4.272 20.8 20.8 0 0 0-4.692-3.055c-6.87-3.498-13.847-6.977-21.212-9.312-3.66-1.16-7.669-2.387-11.513-1.452a26.6 26.6 0 0 0-5.33 2.171c-1.618.794-3.235 1.593-4.813 2.464-5.494 3.028-10.89 7.443-12.486 13.715a4 4 0 0 0-.338-.01 5.4 5.4 0 0 0-1.073-.293c-.618-.097-1.237-.135-1.857-.21a30 30 0 0 1-3.62-.704c-2.362-.587-4.676-1.35-7.04-1.928-4.388-1.072-9.269-1.533-13.385.708-3.667 1.998-5.963 5.706-8.052 9.18-2.67 4.44-5.428 8.839-7.994 13.338a32 32 0 0 0-1.788 3.594 12.2 12.2 0 0 0-.719 2.42c-.024-.003-.046-.011-.071-.013a.88.88 0 0 0-.564.19 5 5 0 0 1-.575.36q-.065.034-.131.065l-.04.018-.009.003q-.09.038-.178.08c-.454-.026-.917-.01-1.368-.018-1.157-.019-2.313-.048-3.468-.142a54 54 0 0 0-6.687-.445 19.8 19.8 0 0 0-10.757 4.31 70.6 70.6 0 0 0-8.719 7.568c-2.542 2.618-4.974 5.869-5.436 9.595a19 19 0 0 0-.066 3.524 9 9 0 0 1-.928 1.096 10.3 10.3 0 0 1-2.363 1.626c-2.017 1.076-4.304 1.483-6.432 2.274-4.285 1.593-7.668 4.645-10.926 7.753a42.4 42.4 0 0 0-4.503 4.774 15.7 15.7 0 0 0-2.872 6.056 68 68 0 0 0-1.05 7.402l-.907 7.658c-.336 2.832-.743 5.672-.862 8.524-.1 2.378-.2 4.752-.283 7.13-.17.678-.33 1.36-.46 2.05a41.1 41.1 0 0 0 .107 17.085 29 29 0 0 0 1.416 4.394 13.5 13.5 0 0 0 .997 2.13 4 4 0 0 0 .785.862c1.48 2.583 3.709 4.59 5.682 6.827 2.355 2.668 3.771 5.901 5.62 8.905a24.6 24.6 0 0 0 6.898 7.27c.463.325.944.623 1.432.91a2.8 2.8 0 0 0 .033.797 10.3 10.3 0 0 0 .558 1.903 33 33 0 0 0 1.694 3.659c1.3 2.47 2.67 4.904 4.01 7.353 2.746 5.025 5.481 10.058 8.398 14.987 2.562 4.332 5.203 8.757 8.78 12.344a24.2 24.2 0 0 0 5.692 4.233 10.8 10.8 0 0 0 2.024 3.255 20 20 0 0 0 1.596 1.723 12 12 0 0 1-.226 1.44 21 21 0 0 1-.967 2.869 19.9 19.9 0 0 0-1.555 6.247 26.3 26.3 0 0 0 .972 6.867c.536 2.282 1.01 4.572 1.351 6.893 1.377 9.388.798 18.849-.13 28.246-.522 5.284-.847 10.582-1.38 15.866-.02.196.305.24.345.046.95-4.696 1.977-9.373 2.74-14.105a111 111 0 0 0 1.19-14.266 94 94 0 0 0-.566-14.162 75 75 0 0 0-1.185-7.085 49 49 0 0 1-1.33-6.792 11.8 11.8 0 0 1 .288-3.79c.287-1.14.713-2.237 1.076-3.354a13.5 13.5 0 0 0 .741-3.71c.214.175.427.353.647.522a24.4 24.4 0 0 0 9.762 4.464 29.2 29.2 0 0 0 6.238.583c.183 0 .236-.295.045-.33a39.2 39.2 0 0 1-12.63-4.43 23.6 23.6 0 0 1-4.614-3.504c-.04-.076-.064-.157-.108-.231a.32.32 0 0 0-.27-.15 25 25 0 0 1-1.74-1.966q-.035-.044-.069-.09a26 26 0 0 0 4.805 1.468c5.571 1.12 11.2.291 16.777-.346.228-.026.242-.371 0-.367a83.5 83.5 0 0 1-14.426-.864 29 29 0 0 1-6.787-1.823 21.2 21.2 0 0 1-5.871-3.77c-3.554-3.204-6.126-7.307-8.575-11.372-2.872-4.767-5.553-9.645-8.222-14.527l-4.48-8.198c-.676-1.236-1.365-2.47-1.932-3.76-.24-.548-.44-1.11-.632-1.676 2.11 1.01 4.337 1.814 6.488 2.67.201.08.323-.239.145-.343-2.812-1.646-5.507-3.435-8.158-5.325a25.2 25.2 0 0 1-6.696-6.545c-1.877-2.858-3.211-6.038-5.32-8.748-2.06-2.65-4.649-4.824-6.582-7.583a17.3 17.3 0 0 1-2.258-5.086c-.305-1.03-.584-2.068-.856-3.108a34.6 34.6 0 0 1-.633-5.935 45.4 45.4 0 0 1 .61-8.266 110 110 0 0 1 1.798-8.908c.409-1.643.892-3.268 1.376-4.89.494-1.66.917-3.336 1.377-5.005.031-.111-.144-.194-.193-.081-.605 1.393-1.256 2.762-1.802 4.18-.568 1.476-1.11 2.96-1.634 4.452q-.304.862-.6 1.728c.495-2.707.934-5.422 1.259-8.167l.905-7.659c.291-2.468.515-4.957.911-7.412a15.5 15.5 0 0 1 2.269-6.256 29.6 29.6 0 0 1 4.311-4.807c3.117-2.99 6.342-6.178 10.451-7.754 2.395-.918 4.965-1.479 7.176-2.824a8.8 8.8 0 0 0 2.37-2.124l.049-.068c.083.718.178 1.436.27 2.153.34 2.644.832 5.265 1.134 7.916.018.161.264.17.257 0a107 107 0 0 1-.047-6.68c.055-2.211-.196-4.426-.085-6.64a15.53 15.53 0 0 1 4.44-9.627 67 67 0 0 1 8.117-7.328c2.826-2.228 6.105-4.295 9.759-4.704a37 37 0 0 1 7.28.333 25 25 0 0 0 3.707.086 12 12 0 0 0 1.776-.21 2.9 2.9 0 0 0 1.047-.49 10.25 10.25 0 0 0 1.826 6.364.168.168 0 0 0 .29-.17 9.23 9.23 0 0 1-.509-6.233 23.2 23.2 0 0 1 2.498-6.245c2.352-4.262 4.995-8.38 7.503-12.552 2.013-3.347 4-7.148 7.353-9.355 3.619-2.382 8.116-2.058 12.155-1.126 2.548.588 5.03 1.43 7.57 2.044a34 34 0 0 0 3.8.707 8.7 8.7 0 0 0 2.36.045l.135.019q.399.056.798.108l-.01.053a12.9 12.9 0 0 0 .254 5.045 17 17 0 0 0 .975 2.686q-.747-.671-1.543-1.292a27 27 0 0 0-3.558-2.37 20.3 20.3 0 0 0-3.918-1.516.055.055 0 0 0-.042.1c1.228.63 2.365 1.415 3.525 2.16a27 27 0 0 1 3.295 2.464 32 32 0 0 1 2.835 2.885c.433.495.842 1.01 1.297 1.483l.08.076c1.63 3.243 3.244 6.515 5.07 9.647.249.426.49.862.762 1.275a3.8 3.8 0 0 0 .763.79q-.281.45-.538.916a21.9 21.9 0 0 0-.016 20.44 30.3 30.3 0 0 0 6.526 8.426 24.8 24.8 0 0 0 9.4 5.416 61 61 0 0 0 3.144.885c.112.222.236.442.367.67.45.79.935 1.548 1.452 2.295a50 50 0 0 0 3.163 4.064 67.6 67.6 0 0 0 7.333 7.33c.97.83 1.973 1.626 2.99 2.4q.179.244.353.49a.84.84 0 0 0-.124.762 26.3 26.3 0 0 1 1.326 7.386 12.8 12.8 0 0 1-1.718 6.189c-2.106 3.753-5.462 6.76-8.564 9.677-3.337 3.138-7.096 6.105-11.74 6.872a10.9 10.9 0 0 1-6.476-.879 26.5 26.5 0 0 1-5.618-3.93 56.2 56.2 0 0 1-9.822-10.763c-2.975-4.27-5.753-8.686-8.606-13.038-5.776-8.811-11.499-17.66-17.335-26.43-2.584-3.884-5.28-7.938-8.74-11.104a51 51 0 0 1-4.281-4.53 20.8 20.8 0 0 1-3.235-5.032 12 12 0 0 1-.883-3.006c-.004-.022-.04-.017-.039.005a16.3 16.3 0 0 0 1.508 5.666 29 29 0 0 0 3.478 5.228c2.928 3.713 6.028 7.283 8.721 11.177 3.034 4.387 5.896 8.896 8.82 13.356l9.11 13.894c2.965 4.523 5.883 9.082 8.913 13.562a61 61 0 0 0 8.699 10.37c.065.078.124.159.191.237.754.877 1.485 1.78 2.173 2.71 1.334 1.801 2.533 3.681 3.929 5.437.08.1.243-.008.209-.121a16.6 16.6 0 0 0-2.371-4.706 29 29 0 0 0 2.11 1.522.75.75 0 0 0 .04.372 16.2 16.2 0 0 1 .808 8.401.82.82 0 0 0-.138.711 18 18 0 0 1-1.222 3.851 25.2 25.2 0 0 1-7.98 9.613 35.8 35.8 0 0 1-12.116 5.894 26.2 26.2 0 0 1-6.64 1.068 8.2 8.2 0 0 1-3.216-.544 7.9 7.9 0 0 1-2.546-1.857c-1.68-1.718-3.158-3.66-4.706-5.495l-5.064-6.005c-3.243-3.846-6.444-7.731-9.755-11.519a73.5 73.5 0 0 0-10.173-9.84c-1.904-1.478-3.858-2.894-5.672-4.483a37.5 37.5 0 0 1-4.658-4.938c-2.853-3.6-5.094-7.62-7.641-11.428-2.865-4.284-5.4-8.771-8.236-13.073-.703-1.067-1.409-2.133-2.107-3.204a.031.031 0 0 0-.054.032c1.241 2.373 2.424 4.781 3.74 7.114 1.316 2.332 2.648 4.655 3.894 7.025a110 110 0 0 0 7.235 12.54 46 46 0 0 0 4.495 5.495 50 50 0 0 0 5.613 4.802c1.937 1.482 3.872 2.958 5.674 4.606 1.826 1.671 3.542 3.459 5.198 5.298 3.438 3.817 6.69 7.806 10.002 11.733 3.39 4.02 6.695 8.136 10.191 12.063a13 13 0 0 0 2.376 2.125.29.29 0 0 0-.189.213c-.045.32-.154.618-.21.932-.063.346-.064.7-.122 1.047a6 6 0 0 1-.835 2.216 13 13 0 0 1-3.335 3.404 36 36 0 0 1-9.004 4.962 25 25 0 0 1-10.92 1.9c-3.604-.34-7.02-1.94-10.202-3.568a72.4 72.4 0 0 1-17.314-12.59 76.5 76.5 0 0 0-8.06-7.117c-2.353-1.707-4.855-3.19-7.35-4.675-2.77-1.648-5.64-3.172-8.256-5.062a25.6 25.6 0 0 1-3.548-3.094 22 22 0 0 1-3.124-3.87c-.042-.07-.14-.009-.108.063a19 19 0 0 0 2.118 3.87 25 25 0 0 0 2.905 3.17 48 48 0 0 0 2.678 2.3 17 17 0 0 1-.571-.211 32 32 0 0 1-4.433-2.192 24.6 24.6 0 0 1-3.97-2.871 28 28 0 0 1-3.533-3.444c-.027-.035-.085.01-.061.047a24.4 24.4 0 0 0 2.994 4.134 29 29 0 0 0 3.88 3.314 22.5 22.5 0 0 0 4.525 2.454 9.4 9.4 0 0 0 4.174.992 42 42 0 0 0 1.548 1.009c2.61 1.601 5.27 3.129 7.805 4.85a44 44 0 0 1 4.066 3.154c-1.592.374-3.176.767-4.803.988a29.6 29.6 0 0 1-5.921.218 46 46 0 0 1-5.887-.835 45 45 0 0 1-5.795-1.422c-.024-.008-.033.029-.01.038a57 57 0 0 0 5.72 2.132 33 33 0 0 0 5.972 1.077 34.2 34.2 0 0 0 11.916-1.133c.402.364.793.745 1.191 1.116a55 55 0 0 1-7.09 1.701 39 39 0 0 1-8.807.273c-.02-.001-.02.03 0 .031a54 54 0 0 0 8.86.078 40 40 0 0 0 4.155-.395 34 34 0 0 0 3.74-.886c.286.272.58.534.863.81a90 90 0 0 0 8.519 7.432 69 69 0 0 0 9.524 6c3.37 1.758 6.946 3.444 10.746 3.975a20 20 0 0 0 5.695-.082q.407 3.77 1.135 7.494a59 59 0 0 0 2.166 8.57.035.035 0 0 0 .068-.02c-.633-2.798-1.408-5.558-1.99-8.37-.527-2.544-.94-5.112-1.3-7.685q1.114-.17 2.215-.428.622 3.92 1.508 7.79a69 69 0 0 0 2.094 7.673c-.378 3.216-.576 6.453-.764 9.685-.006.112.16.108.172 0 .678-6.443 1.474-12.995 3.678-19.125a28.4 28.4 0 0 1 4.471-8.251c2.151-2.659 4.765-4.905 6.867-7.612.973-1.253 1.761-2.864 3.17-3.691a1.756 1.756 0 0 1 2.73 1.183 29 29 0 0 0-.516 2.452 43 43 0 0 0-.545 9.543 63.9 63.9 0 0 0 4.033 18.7 207 207 0 0 0 3.999 10.159c.057.134.279.038.235-.1-1.839-5.898-3.591-11.788-4.866-17.84a57.3 57.3 0 0 1-1.296-18.04 33 33 0 0 1 .808-4.734 5.9 5.9 0 0 1 1.472-2.757q.328-.062.653-.128a37.7 37.7 0 0 0 10.99-4.134c-.038.086-.08.175-.115.258a9.8 9.8 0 0 0-.639 2.5 42 42 0 0 0-.27 5.8 88 88 0 0 0 1.048 12.452c.353 2.378.82 4.744 1.4 7.076.045.183.312.104.279-.077a90.6 90.6 0 0 1-1.62-15.356c-.004-.284.002-.568 0-.852 1.555-1.796 2.972-3.737 4.464-5.58q2.514-3.103 5.128-6.124 5.15-5.95 10.655-11.586 3.157-3.227 6.432-6.335c.015-.014-.007-.036-.022-.022a239 239 0 0 0-21.876 23.244c-1.623 1.977-3.33 3.976-4.781 6.102a112 112 0 0 1 .124-6.434 19 19 0 0 1 .341-3.236 6.8 6.8 0 0 1 .499-1.493 8 8 0 0 0 .626-1.18.33.33 0 0 0 .045-.191c.142-.091.288-.176.43-.27a32.8 32.8 0 0 0 5.938-4.982.5.5 0 0 0 .229-.102 16.4 16.4 0 0 0 2.371-2.768q1.076-1.338 2.182-2.65 2.318-2.76 4.755-5.415l.245-.257.487-.17a.73.73 0 0 0 .492-.862q1.83-1.925 3.701-3.81c.704-.712 1.414-1.417 2.116-2.13a29 29 0 0 1 3.928-.85.11.11 0 0 0 .13-.006l.02-.019c.077-.01.156-.014.234-.024a161 161 0 0 0-14.75 14.73c-1.46 1.661-2.915 3.337-4.277 5.079-.212.271.16.66.387.386a205 205 0 0 1 15.693-17.29c1.026-.99 2.078-1.953 3.122-2.924a35 35 0 0 1 1.68-.177c-.116.16-.234.32-.34.487-.032.051.038.096.08.061.22-.18.429-.375.632-.576a30 30 0 0 1 3.182-.046.532.532 0 0 0 .477-.788c1.434-1.567 2.698-3.307 4.006-4.973l4.17-5.31c2.714-3.458 5.431-6.914 8.09-10.413.158.631.32 1.232.465 1.766a26.6 26.6 0 0 0 3.554 7.674.059.059 0 0 0 .102-.06 29.5 29.5 0 0 1-2.287-6.243 30 30 0 0 1-1.08-6.29c-.076-1.557.007-3.52 1.17-4.701l.015-.012c.425-.227.838-.477 1.243-.74a5.26 5.26 0 0 1 3.746.337 7.8 7.8 0 0 1 2.387 1.943 56 56 0 0 0 2.703 4.185 43.5 43.5 0 0 0 4.158 4.499 63 63 0 0 0 5.153 4.598c.046.038.11-.023.067-.066a60 60 0 0 1-4.57-5.337 30 30 0 0 1-1.976-2.954c-.593-.964-1.243-1.878-1.878-2.815a32.5 32.5 0 0 1-3.462-5.89 4.28 4.28 0 0 1-.326-2.748 34 34 0 0 0 1.189-.931 7.7 7.7 0 0 0 1.748-1.945c.083.254.161.51.247.764a12.1 12.1 0 0 0 1.729 3.587 6 6 0 0 0 .506.554c-.179.791.6 1.54 1.088 2.09a26 26 0 0 0 2.036 2.01 38.5 38.5 0 0 0 4.587 3.565 30.3 30.3 0 0 0 5.012 2.698 31 31 0 0 0 5.448 1.854c.151.031.267-.188.111-.264-1.712-.83-3.449-1.553-5.088-2.531-1.582-.944-3.152-1.9-4.662-2.958a47 47 0 0 1-4.346-3.425c-.394-.353-.774-.721-1.157-1.085 1.303.548 2.703.93 3.986 1.35a49 49 0 0 0 8.94 2.15 21.3 21.3 0 0 0 5.164.14 19.8 19.8 0 0 0 4.866-1.24c.12-.046.075-.232-.054-.196-5.271 1.495-10.92.153-15.973-1.61a.08.08 0 0 0-.011-.1l-.435-.474c-.033-.036-.096.011-.068.052l.038.056a90 90 0 0 0-9.877-6.877c-.313-.911-.61-1.83-.916-2.742a95 95 0 0 0-.593-1.695q4.167 3.061 8.315 6.149 2.178 1.62 4.345 3.254c1.472 1.11 2.913 2.29 4.455 3.302.03.019.064-.026.038-.05-1.327-1.17-2.79-2.199-4.204-3.261q-2.219-1.668-4.448-3.32-4.238-3.141-8.541-6.188c-.32-.9-.635-1.803-.891-2.716a3.5 3.5 0 0 1-.163-1.404l.014-.058a30 30 0 0 0 5.007-1.792 23 23 0 0 0 2.35-1.274 6 6 0 0 0 1.297-.385 21 21 0 0 0 2.472-1.121 20.4 20.4 0 0 0 4.396-3.186 21.7 21.7 0 0 0 3.443-4.17 18.7 18.7 0 0 0 1.986-4.958c.027-.093-.11-.128-.143-.04a22 22 0 0 1-2.61 4.55 20.6 20.6 0 0 1-3.435 3.859 21.6 21.6 0 0 1-3.628 2.539 20.23 20.23 0 0 0 5.892-9.984 12.9 12.9 0 0 0 .23-4.459.145.145 0 0 0-.288 0 20.85 20.85 0 0 1-2.963 8.502 21.7 21.7 0 0 1-6.289 6.367c-5.727 3.794-12.61 4.992-19.385 4.719-7.611-.307-15.011-2.376-22.397-4.064-3.477-.794-6.988-1.612-10.077-3.468a26.9 26.9 0 0 1-7.398-6.815 23.6 23.6 0 0 1-4.346-8.961 19.86 19.86 0 0 1 12.48-22.887 31.8 31.8 0 0 1 10.86-1.355c3.824.018 7.625.049 11.44-.281a142 142 0 0 0 22.665-4.162c.628-.16 1.254-.33 1.881-.498.235-.02.47-.027.705-.054a6 6 0 0 0 .879-.1 1.7 1.7 0 0 0 .672-.448c2.197-.595 4.398-1.179 6.628-1.616 3.393-.665 6.986-.936 10.304.225a14.36 14.36 0 0 1 7.012 5.803 35.3 35.3 0 0 1 3.959 9.389c.524 1.71.998 3.43 1.446 5.162.049.19.375.158.353-.048a57 57 0 0 0-1.372-8.658c.766.894 1.504 1.81 2.264 2.708a36.3 36.3 0 0 1 4.48 6.588 72 72 0 0 1 3.155 7.204q1.55 3.955 3.03 7.936a297 297 0 0 1 10.028 31.792q1.001 4.031 1.836 8.101c-1.385-3.407-2.768-6.818-4.403-10.113-.03-.06-.124-.018-.107.045.975 3.63 2.201 7.181 3.342 10.761 1.13 3.549 2.246 7.092 3.463 10.613a29.6 29.6 0 0 1 1.498 5.187 9.64 9.64 0 0 1-.656 5.074c-.65 1.642-1.526 3.206-2.33 4.776-.077.152-.15.307-.228.46a.166.166 0 0 0-.193.1c-.322.683-.61 1.388-.892 2.096q-.547 1.135-1.077 2.278c-1.762 3.8-3.644 7.536-5.461 11.31a.184.184 0 0 0 .317.185 148 148 0 0 0 2.277-3.567q-1.602 4.023-3.314 8.001c-2.856 6.606-5.798 13.188-8.911 19.677a95.6 95.6 0 0 1-10.447 17.703c-4.327 5.538-9.604 10.309-14.804 15.007a41.7 41.7 0 0 1-9.187 6.576 37 37 0 0 1-5.444 2.255c-1.88.594-3.777 1.08-5.682 1.586-.19.05-.158.378.048.353a62.6 62.6 0 0 0 10.318-1.959 26 26 0 0 0 8.874-5.253 88 88 0 0 0 2.15-1.847l-.52.688c-1.421 1.883-2.877 3.738-4.332 5.595-2.878 3.674-5.855 7.268-8.74 10.934a.195.195 0 0 0 .276.276 77.6 77.6 0 0 0 9.477-10.017c.015.313.024.625.018.939a18.3 18.3 0 0 1-.468 3.566c-.523 2.404-1.329 4.736-1.846 7.141-1.108 5.16-.44 10.517-.56 15.75a139 139 0 0 1-1.313 15.807c-.727 5.272-1.765 10.482-2.732 15.713-1.096 5.93-2.151 11.867-3.277 17.793a.172.172 0 0 0 .332.091c1.49-5.18 3.101-10.36 4.323-15.61 1.224-5.263 2.253-10.55 3.04-15.897a150 150 0 0 0 1.552-16.078c.104-2.71.096-5.418.034-8.128a43.4 43.4 0 0 1 .297-7.931c.449-2.764 1.379-5.418 1.94-8.158a18.8 18.8 0 0 0 .441-4.167 8.7 8.7 0 0 0-.224-1.942 3 3 0 0 0-.23-.605 100 100 0 0 0 2.916-4 72 72 0 0 0 1.898-2.882 18 18 0 0 0 1.222-2.105q1.07-1.004 2.136-2.01a105 105 0 0 0 7.576-7.775 84.3 84.3 0 0 0 11.266-17.581c3.255-6.52 6.271-13.2 9.087-19.92 1.6-3.82 3.139-7.666 4.535-11.566q1.047-2.923 1.96-5.888l.079-.262.003-.006a85 85 0 0 0 5.287-9.917 12.6 12.6 0 0 0 1.284-5.276 17.8 17.8 0 0 0-1.09-5.383M93.076 248.156c-.094.629-.165 1.26-.242 1.892-.594-2.474-1.314-4.923-1.9-7.4a170 170 0 0 1-1.628-7.753 34 34 0 0 0 1.803-.48c.296 1.91.626 3.812 1.006 5.71.397 1.986.778 4.006 1.336 5.96-.132.689-.272 1.377-.375 2.07m.452-2.492c-.376-1.869-.85-3.723-1.236-5.589a288 288 0 0 1-1.102-5.685q.666-.201 1.322-.424.375 1.837.805 3.664l.56 2.366a13 13 0 0 0 .528 1.96 50 50 0 0 0-.877 3.708m1.027-4.252c-.088-.476-.226-.948-.34-1.412l-.597-2.453a123 123 0 0 0-.948-3.633l.106-.035c.45-.157.89-.342 1.333-.52.223.958.441 1.916.683 2.869l.524 2.056.118.464a41 41 0 0 0-.88 2.664m1.179-3.498c-.025.06-.043.123-.066.184l-.509-1.887c-.265-.982-.553-1.958-.838-2.934.202-.083.409-.153.61-.238l.11.373c.162.563.31 1.13.464 1.697q.222.82.418 1.648c.036.15.072.317.112.485-.097.226-.21.443-.301.672m.69-1.539a53 53 0 0 0-.367-1.418 36 36 0 0 0-.502-1.624c-.052-.16-.11-.327-.165-.492.193-.084.389-.162.58-.249l.237 1.176q.12.59.242 1.179a2.3 2.3 0 0 0 .257.802c-.1.205-.184.42-.281.626m.844-4.404a2.45 2.45 0 0 1-.196 1.044q-.163-.39-.325-.783c.175-.084.347-.174.521-.26m-.17 3.031-.046-.221q-.065-.334-.133-.667a.28.28 0 0 0 .343-.082 3.2 3.2 0 0 0 .66-1.513.31.31 0 0 0 .287-.002 2.95 2.95 0 0 0 1.011-1.014 2.8 2.8 0 0 0 .302-.748c.122-.072.248-.136.369-.209a33.6 33.6 0 0 0-2.794 4.456m43.743-32.694a22 22 0 0 0 .914-2.687 57 57 0 0 0 2.161-.7q-1.564 1.67-3.075 3.387m9.096-9.462a96 96 0 0 0-2.935 2.862c.45-1.885 2.277-3.14 4.11-3.905-.39.35-.79.686-1.175 1.043m53.51-32.643-.41-.145a114 114 0 0 1-3.907-1.503 14.7 14.7 0 0 1-3.394-1.636 6.27 6.27 0 0 1-1.943-2.872c-.123-.322-.23-.652-.343-.979 3.463 2.203 6.754 4.62 9.996 7.135m-44.453 25.967q.487-.383.956-.782c1.256-1.067 2.452-2.206 3.635-3.357-.648.76-1.285 1.527-1.939 2.282l-2.036 2.35c-.204-.166-.41-.327-.616-.493m1.121.896c2.1-2.26 4.075-4.647 6.022-7.017q4.374-5.327 8.447-10.887c1.311-1.792 2.681-3.591 3.86-5.487l.07.044a14 14 0 0 0 .165 2.278q-7.658 9.845-15.736 19.335c-.67.791-1.345 1.578-2.01 2.373q-.412-.318-.818-.64m14.098-21.445a43 43 0 0 1 1.945-2.438.223.223 0 0 0 .222-.247q.137-.156.278-.31c.209.097.407.214.608.326a145 145 0 0 0-4.541 5.65q.084-.533.133-1.07c.436-.648.892-1.281 1.355-1.91m-.331-.297a13 13 0 0 1 .885-1.338 12 12 0 0 1 .8-.917q.153.039.307.07a32 32 0 0 0-1.992 2.185m3.527-2.295c.286.165.564.345.842.526-1.157 1.447-2.225 2.975-3.341 4.449a287 287 0 0 1-3.468 4.456 15 15 0 0 0 1.075-2.842c.01-.042.015-.084.025-.126l.147-.201q2.336-3.149 4.72-6.262m-6.686 15.933-4.23 5.249c-1.275 1.58-2.621 3.136-3.78 4.809-.497-.34-.98-.697-1.457-1.062q.818-.915 1.624-1.842a256 256 0 0 0 4.02-4.782 331 331 0 0 0 7.7-9.735q2.082-2.723 4.093-5.498c.129.845.313 1.673.506 2.452-2.863 3.439-5.668 6.926-8.476 10.41m-8.323-36.264a120 120 0 0 0 11.816 2.266 45.2 45.2 0 0 0 15.116-.36 2 2 0 0 0-.106.459 10.8 10.8 0 0 0 .881 3.936q.268.851.532 1.705a4.3 4.3 0 0 0-.997 1.156 7 7 0 0 1-1.458 1.551c-1.331 1.096-2.803 2.045-4.203 3.05-2.433 1.748-5.403 4.422-8.546 2.807a31 31 0 0 1-4.028-2.67q-1.845-1.35-3.6-2.817a68 68 0 0 1-6.919-6.707 90 90 0 0 1-3.367-4.007c-.478-.6-.954-1.202-1.438-1.797 2.105.493 4.224.94 6.317 1.428m17.016-50.113a2 2 0 0 0-.147-.351 28 28 0 0 0-.923-1.552 3 3 0 0 0 .079-.363 6 6 0 0 0 .528.362q.712.424 1.46.783a13 13 0 0 0 1.532.624c-.842.17-1.684.343-2.53.497m3.187-.626c-.694-.29-1.395-.568-2.078-.885q-.706-.328-1.384-.714-.339-.195-.688-.373l.001-.012a26 26 0 0 0-.05-1.687 65 65 0 0 0 3.443 1.717c1.042.48 2.095.986 3.17 1.414-.805.178-1.606.373-2.414.54m2.842-.635c-1.173-.547-2.383-1.024-3.556-1.565-1.166-.538-2.326-1.088-3.489-1.633a25 25 0 0 0-.258-2.3 78 78 0 0 1 9.559 4.276.023.023 0 0 0 .023-.04 50.5 50.5 0 0 0-9.592-4.297c-.057-.357-.106-.717-.18-1.067a18 18 0 0 0-2.851-6.205.04.04 0 0 0-.067.04 17.4 17.4 0 0 1 2.119 6.503 26 26 0 0 1 .15 2.597c-.028.01-.046.04-.013.06l.014.007c.003.219.013.437.014.657q0 .372-.002.743a59 59 0 0 0-2.964-4.094c-1.19-1.506-2.348-3.037-3.555-4.53-1.263-1.56-2.665-2.966-4.052-4.413-.035-.037-.106.014-.073.057 1.103 1.469 2.11 3.01 3.181 4.502 1.055 1.47 2.123 2.93 3.075 4.47s1.854 3.11 2.788 4.66c.478.794.963 1.583 1.437 2.378q.178.298.354.597c.013.023.063.095.115.17-.997.166-1.995.324-2.997.464a88 88 0 0 1-11.963.87c-3.965.007-7.947-.212-11.88.426a22.22 22.22 0 0 0-14.521 9.06 2 2 0 0 0-.04-.246 11 11 0 0 0-.554-1.323 85 85 0 0 0-1.25-2.71c-.857-1.79-1.762-3.557-2.645-5.335-.859-1.73-1.766-3.44-2.605-5.18a13.7 13.7 0 0 1-1.501-4.856c-.514-6.773 4.74-12.088 10.086-15.342 1.478-.9 3.009-1.71 4.553-2.488 1.566-.79 3.133-1.613 4.754-2.284a11.84 11.84 0 0 1 5.307-.994 26 26 0 0 1 5.508 1.134c7.155 2.037 13.865 5.302 20.5 8.614a41 41 0 0 1 5.253 2.878 17 17 0 0 1 3.986 4.267c1.264 1.788 2.49 3.604 3.733 5.406a49 49 0 0 0 2.936 3.933q-4.4 1.144-8.837 2.133"/><path fill="currentColor" d="M138.064 282.443c-1.959-2.017-3.793-4.161-5.563-6.345a44 44 0 0 1-4.765-7.021 28 28 0 0 1-.87-1.818 6.1 6.1 0 0 0-.973-1.912 11.2 11.2 0 0 1-2.103-3.48 67 67 0 0 1-2.933-7.988 56.4 56.4 0 0 1-2.064-9.366c-.006-.054-.09-.056-.086 0a57.1 57.1 0 0 0 3.751 16.61c.516 1.294 1.156 2.557 1.58 3.885a8.6 8.6 0 0 0 .707 2.096c.39.626.838 1.22 1.266 1.818 1.645 2.3 3.196 4.654 4.97 6.861a44.3 44.3 0 0 0 6.895 6.848c.13.105.31-.062.188-.188m41.457-111.21q-3.976 5.01-7.863 10.096l-3.918 5.124q-.98 1.28-1.944 2.571a10 10 0 0 0-1.7 2.596.083.083 0 0 0 .121.093 8.9 8.9 0 0 0 1.843-2.107c.647-.857 1.296-1.713 1.936-2.576l3.91-5.272q3.867-5.216 7.646-10.502c.012-.018-.017-.04-.031-.023m-1.408 5.706a332 332 0 0 1-6.21 8.98q-1.567 2.197-3.175 4.365c-1.091 1.47-2.255 2.907-3.25 4.446a.035.035 0 0 0 .055.043 53 53 0 0 0 3.251-4.18q1.635-2.221 3.227-4.473a257 257 0 0 0 6.15-9.154c.018-.03-.029-.056-.048-.027m-2.803 7.925a153 153 0 0 0-9.358 13.672c-.029.05.042.088.074.044 3.19-4.505 6.132-9.184 9.31-13.7.012-.017-.015-.032-.026-.016m-2.7 9.856c-.68 1.193-1.365 2.382-2.013 3.592a.027.027 0 0 0 .047.027c.699-1.181 1.36-2.383 2.027-3.583a.035.035 0 0 0-.06-.035m-35.703 17.385q-2.149 1.862-4.162 3.873-.978.978-1.921 1.99a42 42 0 0 0-.947 1.059 5 5 0 0 0-.83 1.097c-.032.067.038.164.112.113a5.2 5.2 0 0 0 .9-.922c.311-.357.627-.711.938-1.068q.934-1.073 1.906-2.111 1.941-2.075 4.026-4.009c.015-.014-.007-.035-.022-.022m17.284-7.995a222 222 0 0 0-19.297 21.256c-1.637 2.057-3.293 4.123-4.742 6.319-.029.044.04.098.074.057 3.02-3.662 5.816-7.503 8.864-11.145s6.206-7.199 9.462-10.658q2.779-2.953 5.661-5.807c.015-.014-.007-.036-.022-.022m-1.62 7.587a70.6 70.6 0 0 0-7.996 8.346 76 76 0 0 0-3.324 4.444 21 21 0 0 1-3.601 4.2c-.052.043.015.124.07.091a11.3 11.3 0 0 0 3.427-3.629c1.13-1.654 2.268-3.296 3.505-4.873a71 71 0 0 1 7.947-8.551c.018-.017-.01-.044-.028-.028m-16.766 19.732q-.997.982-1.978 1.98-.482.492-.958.99-.23.243-.453.493a3.6 3.6 0 0 0-.459.559.201.201 0 0 0 .274.273c.016-.01.022-.026.037-.037l.003.006a2 2 0 0 0 .191-.196c.013-.018.034-.03.045-.047.071-.085.139-.174.208-.259q.227-.274.45-.552.432-.541.871-1.076.88-1.07 1.796-2.105c.017-.02-.01-.046-.027-.028m11.073-9.106q-3.693 4.454-7.257 9.013-1.72 2.206-3.41 4.436c-.56.738-1.12 1.475-1.67 2.22a14 14 0 0 0-1.666 2.503.102.102 0 0 0 .16.123 13.6 13.6 0 0 0 1.682-2.106c.572-.777 1.13-1.563 1.698-2.343q1.668-2.29 3.368-4.556 3.505-4.672 7.139-9.246c.024-.03-.019-.075-.044-.044m-3.404 9.905c-1.938 2.642-3.827 5.327-5.598 8.085q-1.312 2.043-2.568 4.12a25.3 25.3 0 0 0-2.327 4.146c-.02.057.066.109.105.06a34 34 0 0 0 2.467-4.062q1.247-2.083 2.55-4.132c1.757-2.764 3.55-5.5 5.431-8.182.027-.038-.034-.072-.06-.036m-2.705 9.768a251 251 0 0 0-3.223 5.582c-.513.923-1.015 1.853-1.517 2.782a21 21 0 0 0-1.372 2.756c-.023.063.066.089.1.042a24 24 0 0 0 1.618-2.849c.481-.899.972-1.793 1.452-2.693.997-1.864 1.981-3.735 2.983-5.596a.023.023 0 0 0-.04-.024m-.591 9.147a14.2 14.2 0 0 0-1.757 4.364.035.035 0 0 0 .068.018 36 36 0 0 1 1.757-4.342c.023-.045-.042-.084-.067-.04m32.47-135.561c-.132-.905-.284-1.806-.397-2.714a76 76 0 0 1-.472-5.419 58 58 0 0 1-.02-5.315c.033-.82.046-1.656.152-2.471.094-.718.45-1.385.492-2.104a.087.087 0 0 0-.108-.083 1.34 1.34 0 0 0-.982.836c-.854-.244-1.763-.369-2.633-.53q-1.423-.261-2.854-.482a65 65 0 0 0-5.636-.637 40 40 0 0 0-5.748-.031c-.865.07-1.732.157-2.588.301-.98.166-1.925.463-2.89.7-.041.01-.034.082.01.077.946-.12 1.895-.108 2.845-.152a65 65 0 0 1 2.742-.089c1.882-.007 3.752.009 5.63.157q2.816.223 5.611.66 1.43.223 2.854.49c.785.147 1.574.333 2.367.449a17 17 0 0 0-.197 1.944 62 62 0 0 0-.164 5.918 53 53 0 0 0 .406 5.781c.116.93.24 1.864.41 2.787q.037.195.078.394a2.3 2.3 0 0 0 .05.639c.095.387.203.548-.217.69a7.6 7.6 0 0 1-1.378.214c-1.824.254-3.635.6-5.437.98-3.643.772-7.257 1.693-10.935 2.299a29 29 0 0 1-5.405.587 4.2 4.2 0 0 1-2.252-.958 12.7 12.7 0 0 1-2.047-1.609c-1.27-1.308-1.325-2.988-1.39-4.711q-.111-2.911.033-5.825a14.35 14.35 0 0 1 1.196-5.78 9.74 9.74 0 0 1 3.45-3.659.04.04 0 0 0-.02-.073c-3.584.075-5.033 4.447-5.397 7.367a46 46 0 0 0-.246 6.266c.025 1.851-.131 4.06.744 5.755a9.84 9.84 0 0 0 3.616 3.39 4.3 4.3 0 0 0 2.527.802 30 30 0 0 0 3.114-.283c4.09-.516 8.098-1.504 12.122-2.374 2.331-.505 4.675-.974 7.042-1.27a3.1 3.1 0 0 0 1.68-.521c.014.02.028.036.042.058.036.053.137.055.15-.02a5 5 0 0 1 .095-.414 1 1 0 0 0 .088-.423 2 2 0 0 0 .02-.37c-.02-.41-.093-.817-.153-1.224m3.718-14.111c0-.038-.064-.05-.07-.01a25 25 0 0 0-.268 3.221 27 27 0 0 0 .245 3.34c.01.073.118.078.118 0-.007-1.092.037-2.184.033-3.275-.004-1.093-.049-2.184-.058-3.276m-29.912 30.975q-.93-1.003-1.871-1.993c-1.253-1.32-2.514-2.632-3.828-3.892-.018-.018-.053.006-.037.028a49 49 0 0 0 3.43 4.192q.919 1.013 1.878 1.985a11.5 11.5 0 0 0 2.007 1.776.07.07 0 0 0 .096-.096 13 13 0 0 0-1.675-2m4.907 1.762a80 80 0 0 1-2.401-2.28c-.761-.756-1.463-1.572-2.235-2.318a58 58 0 0 0-2.457-2.222.031.031 0 0 0-.044.044 83 83 0 0 0 2.241 2.311c.787.774 1.64 1.48 2.428 2.252a57 57 0 0 1 2.23 2.324 15 15 0 0 0 2.25 2.203c.06.043.144-.042.102-.102a13.7 13.7 0 0 0-2.114-2.212m6.902 2.962a19.6 19.6 0 0 0-2.093-2.035c-.73-.717-1.43-1.463-2.13-2.207-1.402-1.49-2.815-2.966-4.223-4.45-.056-.058-.143.03-.089.089a144 144 0 0 0 4.225 4.447c.702.704 1.413 1.398 2.1 2.117a18 18 0 0 0 2.087 2.162c.07.053.176-.052.123-.123m3.412-.293q-.518-.47-1.027-.95c-.718-.673-1.405-1.38-2.09-2.084-1.355-1.391-2.685-2.806-4.023-4.212-.018-.018-.044.009-.028.028a69 69 0 0 0 3.943 4.291c.676.68 1.368 1.342 2.046 2.02l.993.983a4.2 4.2 0 0 0 1.065.925.04.04 0 0 0 .054-.053 4.2 4.2 0 0 0-.933-.948m1.522-2.118q-1.934-1.855-3.842-3.734a.027.027 0 0 0-.039.038q1.883 1.905 3.792 3.784c1.272 1.253 2.534 2.521 3.89 3.684a.031.031 0 0 0 .045-.044c-1.237-1.289-2.557-2.493-3.846-3.729m8.345 3.481c-.388-.32-.778-.636-1.164-.958-.748-.627-1.5-1.258-2.187-1.953q-2.062-2.084-4.17-4.116c-.026-.025-.062.012-.04.039a39.6 39.6 0 0 0 4.113 4.175c.715.625 1.394 1.291 2.09 1.937q.55.512 1.11 1.013a4.3 4.3 0 0 0 1.102.81c.035.016.086-.018.059-.058a4.4 4.4 0 0 0-.913-.889m-1.559-6.097a.05.05 0 0 0-.072.072 36 36 0 0 0 3.108 3.188.04.04 0 0 0 .055-.055 36 36 0 0 0-3.091-3.205m8.916 8.189a5.3 5.3 0 0 0-.647-.65l-.706-.593c-.472-.396-.967-.766-1.45-1.148-.03-.024-.074.016-.044.044.454.425.899.862 1.364 1.273l.69.609a5 5 0 0 0 .737.539c.047.03.09-.035.056-.074m4.315-.056a20 20 0 0 0-1.915-1.686q-.994-.861-1.967-1.745-1.919-1.743-3.772-3.556a.035.035 0 0 0-.05.05c1.23 1.248 2.485 2.47 3.777 3.654q.942.863 1.903 1.705a15 15 0 0 0 1.982 1.634c.035.021.068-.027.042-.056m3.062-.856a28 28 0 0 1-2.933-2.34.027.027 0 0 0-.038.038 13.3 13.3 0 0 0 2.947 2.342.023.023 0 0 0 .024-.04m2.981-1.07a4 4 0 0 0-.511-.293c-.027-.013-.05.027-.024.04a4.6 4.6 0 0 1 .945.66c.022.02.054-.012.033-.034a3 3 0 0 0-.443-.374m-95.57-4.593a8.3 8.3 0 0 0-2.782-.47c-.866-.544-2.003.335-2.71.822q-1.287.887-2.553 1.806c-1.662 1.21-3.372 2.351-4.984 3.632a46.4 46.4 0 0 0-8.695 9.037c-.014.02.02.04.034.02a47.3 47.3 0 0 1 8.704-8.852 28.3 28.3 0 0 1 5.137-3.296 26 26 0 0 1 2.862-1.15c.76-.252 2.027-.372 2.434-1.17a3.08 3.08 0 0 1 2.529-.289c.059.019.08-.069.025-.09m-9.241 7.761a88 88 0 0 0-7.269 6.802 46.5 46.5 0 0 0-6.101 7.622c-.057.093.078.202.153.118 2.183-2.438 4.186-5.038 6.367-7.48a95 95 0 0 1 6.904-7.007c.038-.034-.017-.087-.055-.055m-12.221 3.096c-.823.969-1.64 1.946-2.39 2.973a38 38 0 0 0-2.115 3.281c-.036.062.054.112.095.056.751-1.045 1.515-2.078 2.254-3.132.734-1.047 1.449-2.108 2.199-3.145.018-.025-.023-.056-.043-.033M55.566 172.44a1.3 1.3 0 0 0-.641.11 6 6 0 0 0-.706.335 4.4 4.4 0 0 0-.711.435 6 6 0 0 0-.597.56c-.175.193-.335.41-.49.62-.154.208-.32.406-.475.612-.315.418-.64.828-.943 1.255-.06.085.07.18.141.11a12 12 0 0 1 1.137-1.03c.193-.148.389-.299.593-.43.215-.139.436-.265.65-.407.205-.136.399-.285.596-.432a6 6 0 0 0 .582-.54c.184-.18.37-.357.55-.541a1.4 1.4 0 0 0 .374-.552.087.087 0 0 0-.06-.105m-9.472 9.887a59 59 0 0 0-4.472 6.4c-.023.039.035.07.061.035 1.522-2.108 2.94-4.287 4.484-6.378.032-.042-.04-.099-.073-.057m6.884-1.812a35.6 35.6 0 0 0-3.394 4.611c-.016.026.024.049.04.024a49 49 0 0 1 3.398-4.59c.026-.031-.017-.075-.044-.045M332.8 168.416a.043.043 0 0 0-.075.044c1.628 2.887 3.217 5.797 4.815 8.7.022.04.08.005.06-.035-1.489-2.967-3.103-5.856-4.8-8.709m-22.599-8.332h-.002c-.025.019-.042.04.002 0"/><path fill="currentColor" d="M502.08 195.768a27 27 0 0 0-1.832-9.95c.314-1.117.604-2.241.844-3.376a27.3 27.3 0 0 0 .757-5.562c-.003-3.702-2.53-6.638-4.364-9.641a38 38 0 0 1-2.547-4.805 41 41 0 0 1-1.7-5.233 35 35 0 0 0-2.027-5.825 17.5 17.5 0 0 0-1.412-2.47 12 12 0 0 0-.899-1.188c-.04-.045-.09-.08-.134-.122.16-.936.322-1.871.474-2.809a5.8 5.8 0 0 0-.432-3.472q-1.52-3.535-3.36-6.922c-1.218-2.253-2.525-4.47-3.957-6.594a20.7 20.7 0 0 0-4.78-5.265 27.2 27.2 0 0 0-6.666-3.243c-2.449-.924-4.922-1.777-7.443-2.482a72 72 0 0 1-8.2-2.423 23 23 0 0 1-3.573-1.89 47 47 0 0 1-1.613-1.081c-.184-.129-.377-.237-.568-.35a38 38 0 0 0-2.674-3.597 69 69 0 0 0-6.865-6.924 12.7 12.7 0 0 0-3.606-2.428 11.4 11.4 0 0 0-4.75-.565 90 90 0 0 0-10.381 1.04c-3.693.581-7.384 1.798-11.132 1.017a10.1 10.1 0 0 0-1.875-3.396 43 43 0 0 0-6.256-5.7q-3.453-2.85-7.056-5.52c-2.402-1.776-4.828-3.564-7.358-5.155a8.5 8.5 0 0 0-3.9-1.438 18 18 0 0 0-4.56.513 68 68 0 0 0-9.478 2.48q-2.336.797-4.61 1.76-1.17.494-2.308 1.05c-.345.169-.679.353-1.012.545a5 5 0 0 1-.44.256c-.25-.617-.487-1.238-.744-1.852-.634-1.514-1.22-3.091-1.997-4.539a7.87 7.87 0 0 0-2.786-3.182 14.7 14.7 0 0 0-4.005-1.473 56 56 0 0 0-4.888-1.02 94 94 0 0 0-9.946-1.035c-3.207-.184-6.484-.448-9.696-.31-3.689.16-6.882 1.95-10.046 3.694q-2.356 1.299-4.649 2.708c-.798.49-1.583 1-2.363 1.52a10.4 10.4 0 0 0-1.692 1.23l-.314.05a7 7 0 0 0-2.47.696 2 2 0 0 0-.193.156 1.71 1.71 0 0 0-1.41-.446 6.44 6.44 0 0 0-3.294 1.573 64.4 64.4 0 0 0-11.015 10.73q-1.397 1.672-2.725 3.398a32 32 0 0 0-2.293 3.14 2.3 2.3 0 0 0-.373-.215c-1.763-.78-3.56.19-4.982 1.216a24.3 24.3 0 0 1-5.01 2.987 37 37 0 0 1-3.142 1.117c-.55.17-1.099.342-1.65.507a5.8 5.8 0 0 0-1.492.53 23 23 0 0 0-3.045.184 28 28 0 0 0-4.527.945 9.2 9.2 0 0 0-3.953 1.922 31 31 0 0 0-2.806 3.478 96 96 0 0 0-2.871 3.99 19.3 19.3 0 0 0-3.429 8.434c-.83 6.415 1.59 12.56 3.699 18.487 2.205 6.199 4.229 12.471 6.118 18.774 1.06 3.537 2.094 7.08 3.03 10.652q.718 2.735 1.383 5.483l.022.083c.14 1.385.28 2.77.446 4.152a58 58 0 0 0 2.014 10.114 52 52 0 0 0 3.512 8.486 150 150 0 0 0 9.802 15.545c1.718 2.527 3.418 5.069 4.997 7.686 1.751 2.903 3.34 5.9 5.069 8.817 2.778 4.685 6.153 9.735 10.983 12.477.434.704.888 1.397 1.327 2.088.816 1.284 1.621 2.582 2.488 3.832a69 69 0 0 0 5.437 6.817 156 156 0 0 0 12.394 11.883c4.288 3.82 8.589 7.64 12.51 11.842a55.5 55.5 0 0 0 6.302 6.21 21.6 21.6 0 0 0 3.436 2.156 14.2 14.2 0 0 0 2.063 4.703c1.218 1.85 2.652 3.545 3.945 5.34a73.3 73.3 0 0 1 7.097 12.363c1.99 4.347 3.634 8.842 5.209 13.352q2.62 7.507 5.117 15.057 1.444 4.341 2.856 8.693a43 43 0 0 0 1.53 4.154c.646 1.454 1.356 2.893 1.944 4.372a.278.278 0 0 0 .535-.147c-.317-1.326-.455-2.694-.781-4.015-.327-1.322-.628-2.64-1.028-3.945-.785-2.56-1.653-5.098-2.494-7.641q-2.532-7.663-5.163-15.294c-3.083-8.937-6.317-18.15-11.793-25.95-1.47-2.095-3.182-3.994-4.765-6a21.3 21.3 0 0 1-2.749-4.338 27 27 0 0 0 3.047 1.11 40.2 40.2 0 0 0 10.496 1.511 41.3 41.3 0 0 0 10.622-1.427c.193-.047.11-.327-.08-.293a44 44 0 0 1-18.94-1.146 26.2 26.2 0 0 1-8.04-3.527 39 39 0 0 1-6.236-5.898c-7.655-8.293-16.696-15.129-24.516-23.255a71 71 0 0 1-6.15-7.215c-.994-1.356-1.952-2.74-2.972-4.076q-.063-.083-.128-.164c.345.123.693.242 1.051.341a.18.18 0 0 0 .139-.328 44.6 44.6 0 0 1-12.092-13.152c-1.768-2.856-3.348-5.823-5.034-8.728-1.54-2.654-3.206-5.23-4.919-7.775-3.367-5.003-6.903-9.913-9.823-15.2a55 55 0 0 1-3.71-8.065 52.5 52.5 0 0 1-2.29-9.51c-.604-3.847-1.318-7.677-1.97-11.517-.675-3.967-1.338-7.92-2.22-11.847a.051.051 0 0 0-.1.013c.186 3.416.53 6.803.893 10.202-.488-2.15-.99-4.296-1.52-6.436a221 221 0 0 0-5.384-18.236c-1.023-2.996-2.152-5.957-3.143-8.964a34.2 34.2 0 0 1-1.908-8.957 17 17 0 0 1 1.417-8.043q.025.24.073.49a16.2 16.2 0 0 0 1.95 4.193 19.2 19.2 0 0 0 6.015 7.004c.033.021.073-.029.043-.055a39 39 0 0 1-3.126-2.92 20.7 20.7 0 0 1-2.605-3.629 10.7 10.7 0 0 1-1.405-4.203c-.075-.717-.197-1.492-.213-2.255a58 58 0 0 1 4.705-6.743c.977-1.263 1.854-2.639 3.366-3.292a33.1 33.1 0 0 1 14.998-2.232c.184.019.223-.283.043-.322a32 32 0 0 0-3.3-.536 35 35 0 0 0 2.717-.734 20 20 0 0 0 5.078-2.346c1.242-.827 2.988-2.547 4.633-2.082.431.123.546.399.863.68a9 9 0 0 1 .899.906c.596.69 1.214 1.357 1.828 2.031a22 22 0 0 0 4.534 3.822c.035.021.065-.032.032-.054a19.4 19.4 0 0 1-4.278-3.912 12 12 0 0 1-1.527-2.594c-.169-.38-.17-.798-.32-1.174a27 27 0 0 0 2.046-2.418q1.093-1.366 2.202-2.719a98 98 0 0 1 4.437-5.112 60 60 0 0 1 4.854-4.668c.892-.76 1.81-1.49 2.76-2.178.783-.567 1.738-1.313 2.75-1.135a29.7 29.7 0 0 0 6.5 7.436.086.086 0 0 0 .122-.122 40.5 40.5 0 0 1-4.669-6.533c-.125-.219-.234-.448-.345-.676.202-.01.409-.05.61-.067.422-.038.835-.1 1.253-.161.831-.122 1.659-.256 2.496-.334a15.5 15.5 0 0 1 4.694.144c3.361.725 5.5 3.306 7.418 5.975a18.33 18.33 0 0 1 3.722 9.286 30.4 30.4 0 0 1-1.263 10.384 94 94 0 0 1-8.212 19.744c-1.454 2.705-2.986 5.49-5.33 7.536a13.8 13.8 0 0 1-4.055 2.276 25.5 25.5 0 0 0-4.514 2.56 21.6 21.6 0 0 1-9.749 3.421 23.5 23.5 0 0 1-10.548-1.068c-.174-.064-.293.218-.127.3a24.7 24.7 0 0 0 4.545 1.75 19.6 19.6 0 0 0 5.028.64 20.1 20.1 0 0 0 6.383-1.042 27 27 0 0 1-2.61.923 33.5 33.5 0 0 1-12.799 1.2 23.1 23.1 0 0 1-7.791-1.98c-.023-.01-.042.022-.02.035a22.7 22.7 0 0 0 6.616 2.714 31.6 31.6 0 0 0 7.278.67 27.9 27.9 0 0 0 10.174-2.137 79 79 0 0 1 3.26 2.165c.912.642 1.803 1.324 2.716 1.969.011.186.02.372.042.558.123 1.064.385 2.101.564 3.156a8.3 8.3 0 0 1 .03 3.067 12 12 0 0 1-1.095 2.927 44 44 0 0 1-3.072 5.22 59 59 0 0 1-4.251 5.509.145.145 0 0 0 .204.204 37.1 37.1 0 0 0 8.624-11.076 11.3 11.3 0 0 0 1.12-3.264l.003-.033c.087.176.177.349.257.514a12.8 12.8 0 0 1 .923 2.561 14.5 14.5 0 0 1 .443 5.657c-.284 1.96-.712 3.903-1.162 5.831a.094.094 0 0 0 .18.05 34.3 34.3 0 0 0 1.986-5.85 23.4 23.4 0 0 0 .562-4.115l.021-.025q.043-.05.083-.103l.006-.009.065-.075.046-.056.023-.029q.042-.05.088-.097.042-.042.088-.081l.042-.035-.017.015a1.4 1.4 0 0 1 .187-.11q.496.395 1.019.755 2.804 1.938 5.622 3.856a21.9 21.9 0 0 0 5.55 2.988 19.1 19.1 0 0 0 6.233.747 50 50 0 0 0 5.2-.344c.3.888.707 1.755 1.085 2.6q.74 1.657 1.523 3.295a119 119 0 0 0 1.617 3.245c.275.528.547 1.074.845 1.604.13.416.267.83.423 1.24a24.8 24.8 0 0 0 8.502 10.717 41.5 41.5 0 0 0 11.98 6.401 38.5 38.5 0 0 0 6.689 1.642 21.6 21.6 0 0 0 3.427.249c1.17.992 2.346 1.98 3.503 2.99.638.555 1.265 1.124 1.892 1.693l.585.54a22 22 0 0 0 1.387 2.316 22.74 22.74 0 0 0 8.187 7.259 26.23 26.23 0 0 0 15.09 2.62c1.596 1.802 3.203 3.579 4.959 5.245 2.24 2.126 3.92 4.734 6.087 6.919.03.03.087-.01.062-.048-1.695-2.526-4.017-4.576-5.881-6.972a43.4 43.4 0 0 0-4.84-5.178q1.151-.143 2.291-.372.065.064.129.13c.352.348.713.686 1.07 1.029.698.667 1.404 1.324 2.093 2 1.378 1.35 2.792 2.664 4.174 4.01.063.062.145-.028.094-.093a48 48 0 0 0-4.842-5.334 35 35 0 0 0-2.129-1.87 31 31 0 0 0 1.776-.444q.335.122.66.278a10 10 0 0 1 1.236.696c.123.083.262.192.406.3a8.2 8.2 0 0 0 2.362 3.547 25 25 0 0 0 1.842 1.584 20 20 0 0 1 1.207 3.534 46 46 0 0 1 1.225 5.562 53.3 53.3 0 0 1 .624 11.507 83 83 0 0 1-.268 3.565q-.04.053-.077.106a.084.084 0 0 0 .053.128 66.5 66.5 0 0 1-4.196 18.088 61 61 0 0 1-5.788 11.172c-.075.113.105.256.19.147a48 48 0 0 0 6.042-9.728 70 70 0 0 0 1.913-4.623 31.3 31.3 0 0 0 .873 7.263c.033.14.23.077.21-.058a38 38 0 0 1 .025-10.37c.332-1.033.647-2.072.93-3.118.081-.302.149-.61.225-.915 1.817-2.355 3.601-4.735 5.473-7.047q3.65-4.507 7.628-8.739 2.3-2.44 4.717-4.766c.033-.032-.017-.08-.05-.05a132 132 0 0 0-15.779 17.186q-.891 1.175-1.736 2.389.27-1.18.503-2.373.224-.588.48-1.163c.306-.68.608-1.704 1.335-2.037a.71.71 0 0 0 .362-.631l-.014-.272q.577-.715 1.158-1.422 2.24-2.714 4.55-5.37 4.686-5.407 9.693-10.523a.02.02 0 0 0-.028-.027q-5.173 5.019-10.043 10.338-2.412 2.636-4.723 5.362l-.653.77-.146-2.82q.794-.927 1.589-1.85 2.197-2.547 4.43-5.063 3.499-3.943 7.107-7.79a17.9 17.9 0 0 0 6.265-1.131c5.66-2.216 9.514-7.136 13.105-11.808q5.432-7.067 11.005-14.024a13.5 13.5 0 0 0 3.23 2.463 17.2 17.2 0 0 0 4.894 1.965.066.066 0 0 0 .035-.128 14 14 0 0 1-4.547-2.492 14.6 14.6 0 0 1-1.68-1.662c-.362-.405-.686-.852-1.036-1.272l.461-.579c.05-.027.106-.054.148-.082.328-.217.648-.454.959-.697a20 20 0 0 0 1.503-1.367c.87.138 1.747.205 2.611.403 1.03.236 2.048.534 3.067.815a27.5 27.5 0 0 0 5.912 1.028 29 29 0 0 0 5.888-.286 17.7 17.7 0 0 0 3.017-.729c.942-.32 1.767-.826 2.667-1.233.064-.029.018-.138-.049-.114a21 21 0 0 1-2.704.615 38 38 0 0 1-2.898.516 21 21 0 0 1-5.618.045c-3.787-.495-7.238-2.341-11.038-2.738a10 10 0 0 0-.397-.036c.617-.77 1.226-1.547 1.841-2.318q.132.155.269.3c.226.244.48.466.719.696.234.225.461.459.712.665.257.211.517.411.788.605.047.033.088-.036.057-.074q-.306-.38-.637-.74c-.225-.245-.479-.464-.723-.69-.237-.22-.467-.456-.716-.661q-.166-.136-.336-.268l.98-1.235a28 28 0 0 0 1.895 2c.431.408.876.8 1.325 1.188.217.187.433.378.663.55a2.7 2.7 0 0 0 .738.468.071.071 0 0 0 .079-.103 2.9 2.9 0 0 0-.578-.598c-.211-.196-.436-.377-.655-.564a62 62 0 0 1-1.364-1.215 122 122 0 0 1-1.993-1.865q.565-.704 1.125-1.416c1.072 1.087 2.134 2.184 3.221 3.255q.924.91 1.83 1.839c.295.3.581.61.879.907a2.6 2.6 0 0 0 .935.73.114.114 0 0 0 .14-.14 2.4 2.4 0 0 0-.653-.914c-.286-.307-.59-.6-.886-.898q-.943-.942-1.904-1.865c-1.11-1.066-2.281-2.056-3.472-3.027l.058-.073c.203-.041.406-.084.612-.116.661-.101 1.33-.172 1.983-.315 1.181-.26 2.369-.474 3.544-.758 1.116-.27 2.25-.716 3.381-.89a4.3 4.3 0 0 1 1.382.16 7.5 7.5 0 0 0 1.83.106 14.2 14.2 0 0 0 6.137-2.283 29.4 29.4 0 0 0 5.171-3.874 19.3 19.3 0 0 0 2.287-2.48 5.46 5.46 0 0 0 .933-2.84c.002-.023-.034-.027-.039-.006a5.84 5.84 0 0 1-1.722 2.46 19.6 19.6 0 0 1-2.208 1.895 34.5 34.5 0 0 1-5.2 3.294 13.6 13.6 0 0 1-5.807 1.885 19.6 19.6 0 0 0-3.084-.257 19 19 0 0 0-3.063.943c-1.229.42-2.416.93-3.628 1.392a27 27 0 0 0-1.719.739l-.08.033c.298-.385.604-.764.898-1.152 2.487-3.273 5.03-6.502 7.379-9.875.046-.068-.055-.14-.11-.086-1.285 1.239-2.56 2.479-3.75 3.807a226 226 0 0 1-3.528 3.853c-2.416 2.571-4.705 5.255-6.933 7.99q-6.62 8.123-13.04 16.406c-1.908 2.463-3.76 4.977-5.755 7.37a30.7 30.7 0 0 1-5.974 5.76 16.3 16.3 0 0 1-7.102 2.756l.216-.231a.02.02 0 0 0-.028-.028l-.27.272c-.42.055-.844.099-1.272.122a27.2 27.2 0 0 1-9.146-1.139 31.1 31.1 0 0 1-9.013-4.37 13.2 13.2 0 0 1-3.651-3.344 4.3 4.3 0 0 1-.74-2.163 5 5 0 0 1 .12-1.117c.214-.09.43-.175.641-.271a9.9 9.9 0 0 0 4.54-3.962 51 51 0 0 1 3.553-5.201c2.67-3.36 5.671-6.439 8.325-9.81a83 83 0 0 0 7.186-11.54c2.146-3.902 4.289-7.813 6.241-11.816q1.658-3.4 3.139-6.882a8 8 0 0 0 .573-.62 50 50 0 0 0 1.76-2.291c1.128-1.553 2.168-3.164 3.19-4.788 2.118-3.364 3.914-6.92 6.457-9.998.028-.035-.02-.084-.05-.05a82 82 0 0 0-6.984 9.216c-1.049 1.608-2.106 3.212-3.226 4.771-.133.185-.28.36-.415.543.273-.704.55-1.406.806-2.116a65 65 0 0 0 1.45-4.594 51 51 0 0 0 2.955-4.165 44 44 0 0 0 3.044-5.446 16.4 16.4 0 0 0 1.197-6.132 240 240 0 0 0 .158-6.633c.02-2.563-.108-5.103-.323-7.658a.059.059 0 0 0-.117 0c-.3 4.361-.449 8.729-.749 13.09a18.5 18.5 0 0 1-1.307 6.137 49 49 0 0 1-2.937 5.325 35 35 0 0 0-1.017 1.881c.346-1.56.657-3.13.898-4.715.155-1.023.145-2.073.238-3.106a.153.153 0 0 0-.3-.04c-.196 1.033-.535 2.012-.763 3.034q-.355 1.583-.793 3.145a101 101 0 0 1-1.902 5.975 120 120 0 0 1-4.849 11.755c-1.84 3.888-3.835 7.705-5.884 11.488-2.078 3.837-4.095 7.752-6.46 11.422a83 83 0 0 1-7.725 9.584c-1.358 1.548-2.694 3.115-3.948 4.75-1.223 1.594-2.239 3.296-3.35 4.963a9.3 9.3 0 0 1-4.642 3.223 30 30 0 0 1-5.88 1.658 27 27 0 0 1-3.714.374 54 54 0 0 1-5.086-1.662 52 52 0 0 1-5.972-2.888 27 27 0 0 1-2.68-1.695 14 14 0 0 0-1.28-.986 13 13 0 0 1-1.43-.723 15.7 15.7 0 0 1-3.906-4.94.04.04 0 0 0-.067.04 22.3 22.3 0 0 0 3.49 4.967c.425.423.842.885 1.284 1.284a4.9 4.9 0 0 0 1.329.68c1.031.47 2.028 1.012 3.022 1.555a59 59 0 0 0 5.934 2.863 31 31 0 0 0 4.544 1.529 24.9 24.9 0 0 1-7.636-1.154 21.63 21.63 0 0 1-14.109-14.02 11 11 0 0 1-.402-1.758c3.487-1.76 6.076-5.019 8.073-8.304a124 124 0 0 0 6.422-13.118c4.143-9.08 8.129-18.284 10.848-27.906a99 99 0 0 0 3.002-14.932c.257-2.094.41-4.195.533-6.3a48 48 0 0 0 2.374-5.58 51 51 0 0 0 2.086-8.61 69 69 0 0 0 .82-8.745q.009-.335.01-.672a17 17 0 0 1 3.107-.77c1.21-.222 2.422-.4 3.62-.675a.035.035 0 0 0-.01-.07 26 26 0 0 0-3.622.42c-1.033.173-2.06.4-3.102.48a15 15 0 0 0-.185-2.162c2.64 1.192 5.902.186 8.594-.316a88 88 0 0 1 10.228-1.297 23.7 23.7 0 0 1 4.89-.068 8.2 8.2 0 0 1 4.1 2.074 70 70 0 0 1 6.672 6.554c2.398 2.643 4.905 5.205 7.168 7.965.09.108.256-.03.19-.147q-.693-1.228-1.423-2.43a26 26 0 0 0 2.627 1.803 29 29 0 0 0 6.682 2.664 81 81 0 0 1 14.116 5.252 15.6 15.6 0 0 1 5.314 4.432 54 54 0 0 1 3.935 6.114q1.863 3.234 3.445 6.619.395.845.771 1.699a3.93 3.93 0 0 1 .502 3 11.7 11.7 0 0 0-.94-2.245 76 76 0 0 0-1.465-2.785 61 61 0 0 0-3.242-5.285.023.023 0 0 0-.04.024 179 179 0 0 1 2.911 5.478c.46.908.899 1.826 1.33 2.747a12 12 0 0 0 1.395 2.572l-.154 1.802c-.511 5.968-1.05 11.93-1.557 17.898-.014.165.263.205.292.04q1.308-7.685 2.585-15.374c.385.757.782 1.51 1.118 2.294a36 36 0 0 1 1.603 4.975c.456 1.716.87 3.446 1.484 5.114a33 33 0 0 0 2.22 4.74c.85 1.516 1.79 2.976 2.732 4.434a13.8 13.8 0 0 1 2.17 4.466 14.4 14.4 0 0 1-.293 5.336 53 53 0 0 1-1.243 5.375c-.557 1.962-1.187 3.902-1.746 5.863-.556 1.953-1.25 3.88-1.707 5.86a.188.188 0 0 0 .343.145c.938-1.614 1.688-3.34 2.472-5.03a47 47 0 0 0 2.038-5.21 68 68 0 0 1 .536 6.92c.055 3.278-.019 6.553-.054 9.831-.072 6.755-.118 13.51-.195 20.265-.037 3.315-.076 6.631-.188 9.945a57 57 0 0 1-.957 9.53 42 42 0 0 1-6.891 15.303c-1.809 2.623-3.881 5.041-5.775 7.599-1.912 2.582-4.017 5.015-6.041 7.507a.176.176 0 0 0 .249.248c2.105-1.9 4.2-3.841 6.198-5.854-.024.076-.053.151-.077.228-.396 1.24-.77 2.486-1.162 3.727a28.1 28.1 0 0 1-10.885 15.521 25.3 25.3 0 0 1-6.066 3.575.156.156 0 0 0 .083.301 23.1 23.1 0 0 0 11.306-5.95c.3-.298.582-.608.865-.918.07.741.158 1.482.16 2.209a21.7 21.7 0 0 1-.587 4.901 9.9 9.9 0 0 0-.332 4.87 37 37 0 0 0 1.91 4.798 179 179 0 0 0 8.75 18.561 351 351 0 0 0 5.95 10.063.149.149 0 0 0 .255-.15c-2.945-6.207-5.596-12.547-8.496-18.777q-2.167-4.655-4.192-9.376c-.651-1.518-1.318-3.035-1.916-4.575a6 6 0 0 1-.518-2.249 11.5 11.5 0 0 1 .437-2.418 19.5 19.5 0 0 0 .4-5.533 12.7 12.7 0 0 0-.634-3.713 27.6 27.6 0 0 0 4.82-9.316 50 50 0 0 0 1.064-4.34q.243-1.188.455-2.38c.05-.284.114-.578.15-.87a59 59 0 0 0 4.074-4.924 47.1 47.1 0 0 0 7.787-15.187c1.765-6.353 1.657-13.09 1.751-19.628.1-6.841.143-13.683.209-20.524.036-3.78.155-7.58.008-11.358m-197.65-48.684c-.026.705-.063 1.408-.05 2.11a30 30 0 0 0-2.45-1.778 43 43 0 0 0-3.32-1.968 22 22 0 0 0 2.093-1.04c.098-.057.189-.125.286-.184a20 20 0 0 0 2.272.997c.07.025.107-.078.049-.114a20 20 0 0 0-1.82-.984c-.066-.032-.134-.06-.2-.092a20 20 0 0 0 2.036-1.461 1 1 0 0 1 .07.067 3.5 3.5 0 0 1 .292.448 5 5 0 0 1 .547 1.23 9.1 9.1 0 0 1 .196 2.77m126.708 81.097a297 297 0 0 0-7.293 7.57q-2.324 2.51-4.582 5.08-.547.623-1.094 1.25c-.031-.61-.067-1.219-.095-1.828.574-.684 1.124-1.392 1.694-2.058a210 210 0 0 1 3.512-4.024 223 223 0 0 1 5.698-6.064q1.077.081 2.16.074m-3.473-.198q.524.059 1.052.101c-2.034 1.86-4.026 3.768-5.92 5.768a118 118 0 0 0-3.594 3.943c-.383.443-.78.893-1.175 1.349-.029-.695-.07-1.388-.087-2.083 1.363-1.32 2.53-2.882 3.77-4.3 1.483-1.697 2.978-3.379 4.55-4.994.467.08.932.162 1.404.216m-1.529-.235c-1.67 1.516-3.325 3.058-4.881 4.692a36 36 0 0 0-3.326 3.774c-.01-.586-.028-1.171-.026-1.758 0-.265-.003-.539-.005-.808.783-.922 1.551-1.858 2.362-2.756 1.116-1.236 2.275-2.434 3.399-3.664a32 32 0 0 0 2.477.52m-7.998.856a3.18 3.18 0 0 1 1.846-2.518c.342.13.69.24 1.035.36q-.286.258-.568.524c-.5.477-.97.98-1.424 1.502-.354.407-.707.835-1.04 1.28.039-.386.079-.772.151-1.148m-.215 2.046c.49-.633.952-1.29 1.445-1.913.397-.5.811-.988 1.227-1.474q.32-.374.653-.738c.72.242 1.447.451 2.18.644q-1.835 1.668-3.547 3.465a46 46 0 0 0-1.988 2.19 40 40 0 0 1 .03-2.174m-86.952-64.113a28.3 28.3 0 0 1-5.765-.073c-3.944-.566-7.071-3.1-10.267-5.284l-2.627-1.795a5.86 5.86 0 0 1-3.006-4.152c-.276-.953-.528-1.914-.78-2.873q-.885-3.36-1.646-6.753c-.258-1.148-.501-2.3-.743-3.452-.197-.942-.266-2.19.544-2.857.851-.362 1.72-.678 2.555-1.072a22.1 22.1 0 0 0-1.668 6.017.11.11 0 0 0 .21.058c.907-2.233 1.674-4.591 2.736-6.78l.013-.008c2.763-1.87 4.637-4.726 6.232-7.595a97.8 97.8 0 0 0 9.004-21.14 32.4 32.4 0 0 0 1.414-11.175 20.07 20.07 0 0 0-4.029-10.264c-2.084-2.879-4.421-5.686-8.012-6.6a15.2 15.2 0 0 0-5.135-.326l-.242.029c.62-.36 1.243-.712 1.867-1.064a117 117 0 0 1 4.121-2.222c1.393-.71 2.81-1.365 4.22-2.039a14.2 14.2 0 0 1 8.904-1.826c1.548.062 3.097.117 4.644.189 3.14.145 6.278.35 9.397.743a49 49 0 0 1 9.144 1.886 6.07 6.07 0 0 1 3.263 2.152 23 23 0 0 1 1.912 4.057c1.27 2.97 2.529 5.98 3.56 9.044a3.6 3.6 0 0 1 .247 1.943 15 15 0 0 1-.768 2.152c-.569 1.47-1.23 2.91-1.83 4.37a126 126 0 0 0-3.62 9.904c-1.073 3.397-1.894 6.858-2.663 10.335a.145.145 0 0 0 .278.077c.932-2.84 1.993-5.632 3.022-8.437l-.015.088c-.337 2.043-.647 4.091-.962 6.139-.63 4.1-1.197 8.21-1.774 12.318-1.058 7.528-1.792 15.424-5.038 22.4a42 42 0 0 1-3.155 5.516 35 35 0 0 0-1.77 3.072c-.54.412-1.08.82-1.612 1.244-1.436 1.143-2.76 2.571-4.513 3.23a19.4 19.4 0 0 1-5.647.824m5.936 1.465c.028.075.048.153.074.228-.124-.258-.254-.512-.375-.771a10 10 0 0 0 1.309-.544 22 22 0 0 0-.132 1.783c-.044-.096-.075-.2-.124-.292-.056-.106-.72-1.23-.87-.992-.107.171.058.422.118.588m.003 2.188a19 19 0 0 0 .95 1.812c.019.236.046.472.069.709q-.274-.58-.553-1.158-.655-1.354-1.379-2.671c-.191-.348-.396-.735-.619-1.114q.163-.043.33-.082a9 9 0 0 0 .763 1.593c.148.303.287.61.439.91m.242 3.51c-.531-1.085-1.074-2.163-1.599-3.251-.4-.83-.788-1.698-1.25-2.51.124-.016.25-.028.373-.046.19.412.403.815.58 1.19.432.907.871 1.81 1.301 2.717s.835 1.824 1.25 2.739c.176.39.351.784.542 1.169q.064.34.138.679c-.446-.896-.895-1.79-1.335-2.687m38.527 29.636a65 65 0 0 0-1.899-1.655q-1.713-1.443-3.55-2.715a13.6 13.6 0 0 0 2.006-.166c.391.247.784.491 1.155.769a13 13 0 0 1 1.315 1.173q.151.489.31.957c.19.557.418 1.1.663 1.637m32.023-98.441q-.09 2.302-.339 4.594a74 74 0 0 1-1.765 9.948c-.33 1.325-.65 2.65-.982 3.972.085-1.818.151-3.639.14-5.454-.007-1.294-.058-2.587-.092-3.88-.002-.06-.098-.079-.107-.015-1.395 9.851-2.024 19.82-4.339 29.527a156.3 156.3 0 0 1-9.733 27.145c-1.941 4.358-3.898 8.723-5.991 13.01-1.908 3.907-4.159 7.923-7.556 10.736a10.76 10.76 0 0 1-5.685 2.514 21.3 21.3 0 0 1-6.977-.694 39.7 39.7 0 0 1-12.068-5.02c-3.695-2.312-7.34-5.256-9.554-9.074-2.146-3.7-2.878-7.994-3.268-12.197-.1-1.086-.183-2.164-.317-3.247a.64.64 0 0 0-.185-.387 14.6 14.6 0 0 0 2.072-1.607 53 53 0 0 0 5.282-5.67.16.16 0 0 0-.035-.228 40 40 0 0 0 2.388-3.973 42.4 42.4 0 0 0 3.731-10.879c.798-3.78 1.253-7.616 1.731-11.446q.787-6.3 1.547-12.604c.28-2.344.55-4.693.787-7.042.12-1.194.25-2.388.347-3.584.031-.388.04-.775.042-1.162a248 248 0 0 1 2.603-6.627q.933-2.265 1.947-4.495c.637-1.4 1.66-2.756 1.683-4.35a6.5 6.5 0 0 0-.518-2.3c-.305-.84-.622-1.675-.943-2.508-.217-.566-.453-1.123-.676-1.686.327-.104.648-.263.914-.367 2.868-1.127 5.66-2.363 8.606-3.292a69 69 0 0 1 8.732-2.148 9.6 9.6 0 0 1 4.671-.125 15 15 0 0 1 3.8 2.296q7.585 5.376 14.642 11.452c2.036 1.748 4.44 3.605 5.177 6.314a15 15 0 0 1 .288 4.553"/><path fill="currentColor" d="M375.764 205.094c-1.487-1.42-3.101-2.7-4.711-3.975-.023-.018-.056.012-.033.033 1.52 1.386 3.045 2.773 4.687 4.015.043.032.095-.037.057-.073M357.847 93.805c-1.122-.496-2.22-1.037-3.325-1.57-1-.483-1.95-1.068-2.953-1.546a2.03 2.03 0 0 0-1.128-.303c-.572.059-1.164.053-1.744.126a9.1 9.1 0 0 1-3.773.11 13 13 0 0 0-1.606-.538c-.566-.104-1.142-.142-1.71-.23-1.226-.192-2.445-.46-3.664-.693l-7.129-1.362c-.034-.006-.049.044-.014.053l7.004 1.813c1.12.29 2.244.571 3.362.868a7.7 7.7 0 0 0 3.2.509c1.21-.194 2.434-.077 3.656-.193a7 7 0 0 1 1.657-.07c.459.07.403.121.668.325a2.1 2.1 0 0 0 .694.283 64 64 0 0 1 6.142 2.362l-10.854-.743q-2.856-.195-5.713-.365a20 20 0 0 1-2.688-.26 5.75 5.75 0 0 0-2.456.198.424.424 0 0 0 .225.817 2.64 2.64 0 0 1 1.38.009.02.02 0 0 0 .01-.038 5 5 0 0 1-.44-.164c.537-.102 1.073-.203 1.604-.337a8.8 8.8 0 0 1 2.72.012c1.869.134 3.737.268 5.607.39l11.215.736c.101.007.15-.156.053-.2m-15.141.574c-.005-.001-.007.006-.002.007l1.536.321c.005.001.007-.006.002-.007Zm8.363 1.763a9.8 9.8 0 0 0-2.441-.237c-.87-.063-1.74-.14-2.608-.22q-2.7-.246-5.378-.674c-.029-.004-.042.04-.012.045q2.66.545 5.351.914c.813.11 1.629.198 2.446.273a8.7 8.7 0 0 0 2.642.095.102.102 0 0 0 0-.196m33.453-4.751a.885.885 0 0 0-.951-.456 11 11 0 0 1-1.223.055 51 51 0 0 1-2.75-.259q-2.796-.322-5.583-.71c-.024-.004-.036.033-.01.037q2.722.494 5.455.926c.875.138 1.753.273 2.625.43a13 13 0 0 1 1.37.385.93.93 0 0 0 1.043-.218.16.16 0 0 0 .024-.19m16.414 9.475a41 41 0 0 0-3.87-2.942q-2.071-1.463-4.192-2.853a83 83 0 0 0-4.204-2.574 7.6 7.6 0 0 0-4.11-1.303.074.074 0 0 0 0 .149 10.06 10.06 0 0 1 4.29 1.74q2.067 1.25 4.11 2.54 1.99 1.262 3.932 2.598c1.32.913 2.596 1.904 3.959 2.755.067.042.145-.056.085-.11m-8.64-2.965a1.6 1.6 0 0 0-.686-.422c-.275-.13-.545-.27-.817-.406l-1.525-.759q-1.58-.786-3.16-1.568c-.045-.022-.084.044-.04.067l3.163 1.685 1.555.826c.25.133.504.261.75.4a1.5 1.5 0 0 0 .713.29c.064.003.08-.07.047-.112m8.447 5.355a23 23 0 0 0-2.529-1.574l-2.575-1.493a.02.02 0 0 0-.02.034l2.52 1.59a23 23 0 0 0 2.565 1.51.04.04 0 0 0 .04-.067m-10.037-11.873a11.4 11.4 0 0 0-2.034-1.09c-.027-.012-.051.027-.024.04a16.3 16.3 0 0 1 3.716 2.579.04.04 0 0 0 .056-.055 11 11 0 0 0-1.714-1.474m57.74 26.556a21 21 0 0 0-2.085-3.04c-.194-.264-.394-.525-.568-.803a9 9 0 0 1-.48-1.058 10.5 10.5 0 0 0-.909-1.394 148 148 0 0 0-4.357-6.104c-.053-.07-.17-.008-.121.071q2.004 3.23 4.078 6.408a8 8 0 0 0 1.033 1.445 6.7 6.7 0 0 1 1.127 1.55 23 23 0 0 0 1.95 3.18c.162.196.431-.053.332-.255m-7.064-6.992c-.044-.066-.15-.007-.107.063 1.839 3.034 3.738 6.013 5.766 8.926.031.044.103.005.074-.044-1.809-3.052-3.733-6.014-5.733-8.945m-1.049 1.783a.023.023 0 0 0-.04.024c1.142 2.11 2.302 4.193 3.603 6.21a.027.027 0 0 0 .048-.028c-1.108-2.128-2.344-4.169-3.611-6.205m6.219 10.845a3 3 0 0 0-.151-.417 8 8 0 0 0-.406-.762 18 18 0 0 0-.945-1.47c-.025-.036-.085-.004-.06.035a9.7 9.7 0 0 1 .807 1.518c.108.259.195.525.296.786.049.127.102.257.16.38a.54.54 0 0 0 .206.284.075.075 0 0 0 .101-.027.47.47 0 0 0-.008-.327m-3.56-1.732q-.7-1.38-1.341-2.789c-.028-.06-.133-.016-.108.045q.58 1.392 1.212 2.761a17 17 0 0 0 1.462 2.729c.029.04.106.017.086-.036a28 28 0 0 0-1.31-2.71m-30.019-17.467c-.267.069-.535.115-.805.17a2.2 2.2 0 0 0-.748.329c-.054.035-.039.137.035.131a2.3 2.3 0 0 0 .806-.2c.248-.121.489-.25.742-.36.042-.017.011-.081-.03-.07M393.74 210.2c-1.004-.623-1.957-1.278-3.01-1.82a33 33 0 0 1-3.023-1.799 63 63 0 0 1-5.806-4.318c-.019-.016-.047.011-.028.028a63 63 0 0 0 5.572 4.317c.967.666 1.959 1.295 2.933 1.95a19 19 0 0 0 3.327 1.703c.04.017.075-.037.036-.061m6.189 2.803a3.1 3.1 0 0 0-.96-.6l-1.008-.498c-.695-.342-1.386-.693-2.079-1.04-.103-.053-.193.1-.09.154.695.37 1.391.737 2.084 1.112l1.02.553a3 3 0 0 0 .998.406c.046.006.062-.058.035-.087m-2.93-4.558a88 88 0 0 0-3.937-2.519c-.022-.013-.04.02-.02.034a89 89 0 0 0 3.925 2.539c.034.021.064-.032.031-.054m-26.306-11.678a47 47 0 0 1-3.138-1.313 15 15 0 0 1-2.987-1.574c-.344-.267-.634-.61-.99-.853a5.4 5.4 0 0 0-1.226-.539 17 17 0 0 1-2.985-1.508 103 103 0 0 1-10.582-7.83c-.05-.04-.122.028-.072.071a97.5 97.5 0 0 0 10.499 7.798 30 30 0 0 1 2.762 1.902 5.2 5.2 0 0 0 1.184.824c.435.187.933.24 1.387.389a29 29 0 0 1 3.082 1.422c.732.34 1.47.668 2.208.997a60 60 0 0 1-4.426-1.228 25 25 0 0 1-2.674-.995 7 7 0 0 1-1.087-.57 6.2 6.2 0 0 0-1.174-.786 10 10 0 0 0-1.274-.278 10 10 0 0 1-1.362-.564 35 35 0 0 1-2.487-1.26 41 41 0 0 1-4.496-2.898 43 43 0 0 1-4.827-4.127.074.074 0 0 0-.105.105 44 44 0 0 0 8.554 6.781c.792.484 1.588.96 2.4 1.409a14.5 14.5 0 0 1 2.445 1.482 5.4 5.4 0 0 0 2.477.819c.898.236 1.776.549 2.657.838a53 53 0 0 0 6.195 1.64.08.08 0 0 0 .042-.154m-4.935-5.954a10.6 10.6 0 0 0-2.416-1.317c-.84-.425-1.66-.893-2.477-1.36q-2.49-1.428-4.878-3.025c-.03-.02-.056.028-.028.048q2.354 1.647 4.814 3.133c.807.487 1.628.947 2.443 1.42a8.6 8.6 0 0 0 2.466 1.232c.071.014.139-.075.076-.13m-37.973-27.268c-1.129-.626-2.348-1.074-3.527-1.595q-1.83-.808-3.634-1.673-3.557-1.698-6.994-3.637a.043.043 0 0 0-.043.074q3.439 2.042 7.018 3.827 1.737.866 3.509 1.655a25 25 0 0 0 3.631 1.442.051.051 0 0 0 .04-.093m4.285-1.217a11.4 11.4 0 0 0-2.778-1.048 44 44 0 0 1-2.824-1.045 65 65 0 0 1-5.713-2.7.05.05 0 0 0-.051.087q2.751 1.583 5.645 2.897c.923.417 1.849.832 2.783 1.225a8.7 8.7 0 0 0 2.846.926.185.185 0 0 0 .092-.342m102.16 62.983a35.6 35.6 0 0 1-5.545-2.758c-1.725-.958-3.43-1.957-5.07-3.055a22 22 0 0 1-1.218-.873 6 6 0 0 1-.563-.478c-.198-.194-.292-.436-.479-.631a4.8 4.8 0 0 0-1.132-.625 8.6 8.6 0 0 1-1.303-.968 23 23 0 0 1-3.955-4.474c-.025-.037-.085-.002-.06.036a26.8 26.8 0 0 0 3.772 4.542c.373.366.761.723 1.114 1.109a8 8 0 0 0 .837.999 2.1 2.1 0 0 0 .622.272 5 5 0 0 1 .789.439c.42.265.836.54 1.251.812 1.707 1.118 3.483 2.128 5.28 3.093q1.324.71 2.66 1.396a10.7 10.7 0 0 0 2.973 1.262.05.05 0 0 0 .027-.098"/><path fill="currentColor" d="M432.987 223.225a16.1 16.1 0 0 1-4.505-2.965c-1.433-1.213-2.875-2.42-4.379-3.546a82 82 0 0 0-2.406-1.754 22 22 0 0 0-2.592-1.692c-.026-.013-.059.023-.033.043.659.52 1.406.941 2.092 1.427q1.163.822 2.285 1.7a44 44 0 0 1 4.023 3.57 26.7 26.7 0 0 0 3.288 3.045 8.3 8.3 0 0 0 1.986 1.048 5 5 0 0 0 1.049.272c.29.039 1.642-.137 1.373.612a.035.035 0 0 0 .059.034c.958-1.074-1.754-1.611-2.24-1.794m53.106-77.342c-.267-.482-.566-.946-.827-1.432-.497-.926-.732-1.956-1.186-2.905a51 51 0 0 0-3.125-5.631.043.043 0 0 0-.074.043c.913 1.911 1.872 3.798 2.797 5.703a30 30 0 0 1 1.535 2.924c.172.485.311.982.47 1.471.118.363.21.806.58.974a.092.092 0 0 0 .133-.054c.138-.384-.118-.758-.303-1.093m-2.007 1.272-1.107-2.12c-.765-1.464-1.553-2.914-2.34-4.366-.02-.035-.072-.004-.055.032.719 1.49 1.435 2.982 2.176 4.461l1.072 2.141a9.2 9.2 0 0 0 1.178 2.095c.04.043.102-.003.092-.053a9.3 9.3 0 0 0-1.016-2.19m-2.966-1.023c-.019-.037-.07-.005-.055.031a57 57 0 0 0 1.512 3.244c.018.037.069.004.054-.032a57 57 0 0 0-1.512-3.243m13.985 25.722c-.008-.083-.134-.087-.133 0a17 17 0 0 1-.286 3.076c-.171.968-.396 1.919-.52 2.896-.008.068.094.087.124.033a10.35 10.35 0 0 0 .815-6.005m-2.28.681a20 20 0 0 1-.571 3.826c-.153.61-.338 1.21-.52 1.812-.145.476-.5 1.122-.196 1.59a.14.14 0 0 0 .16.064c.548-.207.622-.956.735-1.46a17 17 0 0 0 .295-1.875 28 28 0 0 0 .16-3.957.031.031 0 0 0-.063 0m-1.891 1.355-.562 1.874c-.092.308-.178.612-.246.926a5 5 0 0 0-.071.953c-.001.055.085.085.11.03a5 5 0 0 0 .332-.842c.075-.327.13-.652.18-.983l.294-1.947a.02.02 0 0 0-.037-.01m-1.155 4.765c.005-.05-.07-.055-.085-.01-.132.396-.252.8-.422 1.183-.085.19-.166.38-.233.577a1.2 1.2 0 0 0-.065.358.8.8 0 0 0 .079.335.21.21 0 0 0 .328.042c.337-.304.295-.832.297-1.247.002-.414.059-.827.1-1.238m-2.101-.687c-.245.649-.509 1.29-.779 1.928-.127.3-.261.598-.38.901a3 3 0 0 0-.154.496 1 1 0 0 0-.03.204c.002.071.034.14.043.212a.103.103 0 0 0 .174.071 2 2 0 0 0 .183-.174 1 1 0 0 0 .1-.194 3 3 0 0 0 .163-.482c.086-.322.155-.65.232-.973a53 53 0 0 1 .508-1.973c.011-.04-.046-.053-.06-.016m-3.212 2.893a8 8 0 0 1-.515.77 7 7 0 0 0-.48.786.043.043 0 0 0 .067.052 2.5 2.5 0 0 0 .6-.728 8 8 0 0 0 .37-.862c.01-.025-.03-.04-.042-.018m-4.659 16.478a3.4 3.4 0 0 0-.585-.693l-.725-.761q-.706-.74-1.41-1.482a85 85 0 0 0-2.9-2.884.027.027 0 0 0-.038.039 86 86 0 0 0 2.726 3.057q.68.724 1.362 1.447l.72.766a3.6 3.6 0 0 0 .7.662.11.11 0 0 0 .15-.15m1.883-.721-.43-.434-.881-.891a36 36 0 0 0-1.8-1.7.027.027 0 0 0-.039.038 36 36 0 0 0 1.668 1.832l.851.875.426.437a1 1 0 0 0 .433.322.051.051 0 0 0 .063-.063.97.97 0 0 0-.291-.416m2.205-.13a2 2 0 0 0-.182-.18l-.405-.362c-.261-.234-.546-.44-.825-.654-.025-.019-.053.022-.033.043.241.256.476.518.736.755l.378.344a2 2 0 0 0 .204.17.7.7 0 0 0 .21.13.047.047 0 0 0 .058-.057.6.6 0 0 0-.141-.19m2.287-.84c-.05.008-.03.085.02.075a.6.6 0 0 1 .371.054.76.76 0 0 1 .283.256c.012.017.044.007.036-.015a.654.654 0 0 0-.71-.37m-13.204 9.167c-.32-.269-.649-.522-.983-.773-.678-.51-1.385-.982-2.082-1.466-.03-.02-.064.026-.038.05.63.57 1.25 1.153 1.901 1.7.31.26.622.514.946.758a4.4 4.4 0 0 0 1.05.675.067.067 0 0 0 .075-.097 4.3 4.3 0 0 0-.869-.847m3.352.94-.54-.44c-.349-.283-.696-.57-1.05-.85l-2.124-1.673c-.073-.058-.179.042-.105.105l2.089 1.768c.343.29.694.571 1.042.857l.506.414a1.4 1.4 0 0 0 .517.336.067.067 0 0 0 .075-.098 1.3 1.3 0 0 0-.41-.42m1.922-.325-.76-.621c-.487-.4-.998-.766-1.506-1.14-.018-.012-.04.017-.024.032.465.43.925.862 1.412 1.267l.709.59a3.6 3.6 0 0 0 .761.554c.038.017.095-.022.064-.064a3.5 3.5 0 0 0-.656-.618m2.796 0a5 5 0 0 0-.525-.337c-.371-.201-.74-.404-1.102-.62-.058-.035-.102.049-.052.087.335.254.66.518.986.784a5 5 0 0 0 .491.35 2 2 0 0 0 .287.147 1.4 1.4 0 0 0 .28.11c.053.012.11-.046.076-.097a1.9 1.9 0 0 0-.441-.425m3.629.27a2 2 0 0 0-.274-.121c-.102-.03-.205-.066-.309-.089q-.31-.064-.62-.124a.047.047 0 0 0-.025.09c.2.068.398.139.598.204.098.032.2.052.3.076a2 2 0 0 0 .31.037.04.04 0 0 0 .02-.073m-53.451 33.403q-3.172 3.094-6.153 6.374a51.5 51.5 0 0 0-5.477 6.695.055.055 0 0 0 .086.067c2.008-2.098 3.753-4.468 5.652-6.666q2.861-3.31 5.92-6.443a.02.02 0 0 0-.028-.027m-13.644 15.804q-.8.968-1.547 1.979-.377.513-.74 1.036-.175.254-.347.51a2.2 2.2 0 0 0-.319.538.035.035 0 0 0 .059.034 2 2 0 0 0 .317-.449q.166-.26.336-.517.35-.53.715-1.051.74-1.055 1.543-2.063c.01-.012-.007-.029-.017-.017m10.889-7.666a104 104 0 0 0-7.383 8.458 76.6 76.6 0 0 0-6.27 9.06.027.027 0 0 0 .048.028c2.112-3.092 4.159-6.21 6.46-9.169q3.381-4.346 7.172-8.349c.018-.018-.01-.046-.027-.028m.975 4.029a81 81 0 0 0-6.363 7.747c-1.003 1.39-1.868 2.845-2.758 4.306-.424.696-.845 1.395-1.254 2.101a9.2 9.2 0 0 0-1.148 2.175c-.01.04.042.075.072.042a11 11 0 0 0 1.16-2.039 60 60 0 0 1 1.228-2.116c.872-1.426 1.848-2.779 2.792-4.158a77.5 77.5 0 0 1 6.31-8.02c.023-.026-.015-.064-.04-.038m-2.85 8.573c-1.276 1.965-2.568 3.933-3.689 5.992a.04.04 0 0 0 .068.039c1.322-1.935 2.486-3.981 3.655-6.012a.02.02 0 0 0-.034-.02m-5.279 8.85c-.228.316-.424.649-.623.983q-.145.245-.274.5a2.7 2.7 0 0 0-.244.534c-.05.19.215.25.287.08.071-.171.1-.354.157-.53q.087-.27.196-.533a6 6 0 0 1 .549-1.006c.019-.03-.027-.056-.048-.028m5.492-3.038q-.89 1.521-1.686 3.094a41 41 0 0 0-.756 1.591 6.5 6.5 0 0 0-.609 1.553.055.055 0 0 0 .1.042 9 9 0 0 0 .74-1.595c.228-.52.466-1.037.705-1.554q.729-1.575 1.553-3.104a.027.027 0 0 0-.047-.027m1.304 6.945a3 3 0 0 0-.514 1.075 3.5 3.5 0 0 0-.077.581 2 2 0 0 0 .075.59.047.047 0 0 0 .092-.012c-.001-.187.019-.372.028-.559a3 3 0 0 1 .08-.565 3.9 3.9 0 0 1 .39-1.066c.027-.05-.043-.088-.075-.044m.587 2.916a.04.04 0 0 0-.078 0c-.01.17-.024.34-.02.51l.003.25c.002.088.015.174.025.261a.031.031 0 0 0 .062 0c.01-.087.023-.173.025-.26l.004-.25c.003-.171-.01-.34-.02-.511m68.503-65.298a16 16 0 0 0-1.08-2.137.04.04 0 0 0-.072.03 15.5 15.5 0 0 0 .898 2.158c.342.719.682 1.448 1.074 2.142.025.045.104.014.085-.037-.265-.73-.59-1.446-.906-2.156m-3.5.944c-.03-.052-.108-.006-.081.048 1.356 2.646 2.717 5.283 4.244 7.835a.04.04 0 0 0 .068-.04c-1.299-2.676-2.76-5.258-4.231-7.843m-2.139 2.517c-.027-.05-.095-.006-.074.043a34 34 0 0 0 2.604 4.83.023.023 0 0 0 .04-.024c-.859-1.616-1.688-3.245-2.57-4.85m5.995 9.738q-.369-.503-.728-1.013-.718-1.02-1.396-2.067c-.017-.025-.057-.002-.04.024q.654 1.082 1.35 2.138.342.52.694 1.033a3.9 3.9 0 0 0 .711.91c.03.024.076-.014.063-.048a4.4 4.4 0 0 0-.654-.977m-1.161 3.513c-.612-.99-1.229-1.975-1.818-2.979-1.18-2.007-2.288-4.05-3.525-6.023a.035.035 0 0 0-.06.036c1.122 2.04 2.358 4.01 3.513 6.029.579 1.01 1.124 2.037 1.673 3.064a11.8 11.8 0 0 0 1.69 2.8.055.055 0 0 0 .092-.053 11.6 11.6 0 0 0-1.565-2.874m-5.182-3.203c-.024-.05-.097-.006-.074.044.472 1.04.94 2.077 1.453 3.098.014.027.052.003.04-.024-.446-1.052-.933-2.083-1.42-3.118m5.034 10.286a25 25 0 0 0-1.215-1.892c-.014-.02-.047-.002-.034.02q.596.93 1.116 1.908c.346.646.612 1.351 1.015 1.963a.04.04 0 0 0 .072-.03 8.6 8.6 0 0 0-.954-1.97m-2.522 1.596a57 57 0 0 0-3.194-5.76c-.027-.042-.095-.003-.068.04q1.688 2.702 3.119 5.558c.985 1.973 1.735 4.019 2.568 6.055.02.05.1.031.082-.023a48 48 0 0 0-2.507-5.87m-3.205.21c-.026-.055-.122-.016-.1.042.567 1.506 1.176 2.988 1.886 4.433a.031.031 0 0 0 .057-.024c-.535-1.519-1.165-2.992-1.843-4.45m3.528 9.29a3 3 0 0 0-.086-.293l-.19-.537q-.193-.557-.377-1.119a.012.012 0 0 0-.023.006q.157.58.301 1.163l.14.573a1.3 1.3 0 0 0 .201.51c.027.032.07.003.073-.03a.8.8 0 0 0-.04-.273m-3.088 1.159a4 4 0 0 0-.482-.896c-.03-.04-.097-.003-.068.04a4.5 4.5 0 0 1 .715 1.854c.004.026.047.02.046-.007a3.3 3.3 0 0 0-.21-.991m-2.061 6.61.008.681a.008.008 0 0 0 .015 0l.008-.68a.016.016 0 0 0-.031 0m-73.162-144.47a18 18 0 0 0-3.343 1.212 14 14 0 0 0-1.509.908q-.375.256-.74.527a1.66 1.66 0 0 0-.564.56.056.056 0 0 0 .061.08 1.9 1.9 0 0 0 .668-.357q.351-.243.714-.466a31 31 0 0 1 1.53-.872 21.6 21.6 0 0 1 3.208-1.502.047.047 0 0 0-.025-.09m-2.236 4.01a12 12 0 0 0-1.735.566 4.3 4.3 0 0 0-.775.445 2.2 2.2 0 0 0-.608.693c-.033.056.024.149.093.12a3.6 3.6 0 0 0 .745-.367c.243-.174.494-.337.737-.511a6.8 6.8 0 0 1 1.564-.87.04.04 0 0 0-.021-.076m-4.089 4.946-.35.254c-.115.084-.224.175-.334.264-.021.017.006.052.028.037.117-.081.235-.16.347-.248l.341-.264c.025-.018-.008-.06-.033-.043M308.456 95.846a28.6 28.6 0 0 1-6.365 7.645 27 27 0 0 1-4.012 2.909q-1.05.625-2.154 1.149c-.398.188-.802.358-1.208.528-.541.225-1.025.568-1.575.764a.11.11 0 0 0 .03.215 4.8 4.8 0 0 0 1.468.02 7 7 0 0 0 1.41-.54q1.157-.529 2.255-1.169a26 26 0 0 0 4.197-3.051 25.1 25.1 0 0 0 6.015-8.434c.018-.04-.04-.076-.061-.036m-28.219 9.118a5 5 0 0 0-.636.205l-.6.243c-.397.16-.78.36-1.166.54-.012.006-.003.026.01.022.414-.138.837-.26 1.244-.421l.602-.238a4.4 4.4 0 0 0 .577-.28.04.04 0 0 0-.03-.071m.689 1.819a2.46 2.46 0 0 0-1.349-.037 4.1 4.1 0 0 0-1.245.553.05.05 0 0 0 .052.088 5.3 5.3 0 0 1 1.278-.332c.42-.066.844-.102 1.264-.167.058-.009.045-.09 0-.105m.677 1.359a5.5 5.5 0 0 0-1.093-.035 5 5 0 0 0-.549.057c-.192.036-.38.08-.575.106a.035.035 0 0 0 0 .07c.188.005.374.023.562.04a4 4 0 0 0 .562 0 5.7 5.7 0 0 0 1.093-.155c.038-.01.044-.077 0-.083m1.014 1.41a8 8 0 0 0-1.362-.207.024.024 0 0 0-.007.046 8 8 0 0 0 1.363.207.024.024 0 0 0 .006-.046m20.819 21.756c-.035-.049-.117-.001-.08.047a.55.55 0 0 1-.323.817.024.024 0 0 0 .006.046.45.45 0 0 0 .271-.105.64.64 0 0 0 .17-.235.58.58 0 0 0-.044-.57m2.157 4.259c-1.246-.092-2.496-.134-3.744-.194-.025-.001-.025.038 0 .039 1.248.07 2.495.157 3.744.194.025 0 .025-.037 0-.039m3.062-2.685c-1.1-.116-2.215-.134-3.32-.202a183 183 0 0 1-3.31-.232c-.022-.002-.027.036-.005.039 1.081.146 2.162.265 3.25.345a27 27 0 0 0 3.385.113.031.031 0 0 0 0-.063m3.102-2.924a1.9 1.9 0 0 0-.973-.043 8 8 0 0 1-1.126-.02c-.814-.054-1.624-.18-2.436-.253a90 90 0 0 1-5.017-.575c-.078-.012-.113.106-.033.12 1.58.278 3.17.515 4.769.663.815.076 1.618.094 2.436.111a11 11 0 0 1 1.388.093 1.83 1.83 0 0 0 .976.025c.047-.017.074-.097.016-.121m-.364-2.905c-.971-.145-1.966-.119-2.945-.182q-1.52-.098-3.035-.258c-.035-.003-.043.056-.008.062q1.455.246 2.926.377a15.4 15.4 0 0 0 3.048.1c.051-.005.076-.09.014-.1m1.518-2.556a13.6 13.6 0 0 0-2.893.012.027.027 0 0 0 0 .054 13.6 13.6 0 0 0 2.893.012.04.04 0 0 0 0-.078m1.9-3.056a1.2 1.2 0 0 0-.344-.021 2.3 2.3 0 0 0-.387.036c-.24.04-.456.16-.69.222-.091.024-.076.179.023.169.246-.024.493.01.738-.034a2 2 0 0 0 .343-.09 1.3 1.3 0 0 0 .335-.146.075.075 0 0 0-.018-.135m3.041-3.894q-.04.022-.078.046a1 1 0 0 0-.07.061l-.136.127-.269.25a.074.074 0 1 0 .105.104l.259-.26.127-.127a1 1 0 0 0 .064-.068l.051-.08a.04.04 0 0 0-.053-.053m-13.316 35.29c-1.325-.9-2.611-1.845-3.913-2.777-1.298-.928-2.654-1.773-4.016-2.604-.035-.021-.062.03-.031.054 1.278.962 2.567 1.914 3.912 2.78 1.342.865 2.692 1.71 4.013 2.608.037.025.073-.036.035-.061m-4.186.412a21.6 21.6 0 0 0-3.93-2.363c-.037-.017-.068.034-.032.054a54 54 0 0 1 3.938 2.35c.026.016.047-.023.024-.041m3.057 1.897c-.053-.049-.104-.102-.16-.148-.053-.043-.113-.08-.17-.12l-.347-.245-.707-.497c-.054-.037-.103.05-.051.088l.686.504.332.245c.059.043.116.09.178.13.06.038.128.07.192.104.037.02.08-.03.047-.061m-1.687 2.024a4.2 4.2 0 0 0-.957-.692q-.5-.298-1.008-.582c-.7-.39-1.42-.75-2.145-1.091-.058-.027-.11.057-.051.088a49 49 0 0 1 2.088 1.188q.5.298.99.61a5 5 0 0 0 1.03.571c.055.019.088-.053.053-.091m-2.539 2.677a7 7 0 0 0-.932-.603q-.49-.261-.995-.496c-.044-.021-.084.043-.039.067.654.346 1.28.74 1.938 1.08a.027.027 0 0 0 .028-.048m-48.387-32.595c-.007-.014-.027-.002-.02.011l.173.339c.005.009.018 0 .014-.008Z"/><path fill="currentColor" d="M252.74 130.49a1.27 1.27 0 0 0-.4-.705 5 5 0 0 1-.584-.588 9 9 0 0 1-.495-.751 22 22 0 0 1-1.586-3.088c-.015-.035-.073-.022-.06.017a22.6 22.6 0 0 0 1.341 3.188c.13.25.27.495.4.746a8 8 0 0 1 .345.848 1.26 1.26 0 0 0 .486.65 6 6 0 0 1 .774.575.067.067 0 0 0 .104-.08 3.4 3.4 0 0 1-.325-.812m6.621 5.661c-.529-.34-1.062-.674-1.588-1.02a43 43 0 0 1-3.097-2.22c-.05-.04-.122.03-.071.072a73 73 0 0 0 2.916 2.361c.502.383 1.009.76 1.534 1.112a4.15 4.15 0 0 0 1.562.85.11.11 0 0 0 .094-.164 4.4 4.4 0 0 0-1.35-.99m-5.467-14.027a.023.023 0 0 0-.04.024 18 18 0 0 0 3.406 4.25.031.031 0 0 0 .044-.044 28 28 0 0 1-3.41-4.23m51.229 123.015a37.8 37.8 0 0 1-8.842-6.265 5.2 5.2 0 0 1-.861-1.146c-.223-.384-.493-.437-.836-.69a11 11 0 0 1-1.76-1.905 35 35 0 0 1-3.16-4.597.016.016 0 0 0-.027.016 38 38 0 0 0 3.077 4.667c.514.671 1.154 1.311 1.597 2.029.241.39.272.668.676.913a7.7 7.7 0 0 1 1.231.918 34.6 34.6 0 0 0 8.87 6.12c.04.019.075-.038.035-.06m4.246-2.185a56.5 56.5 0 0 1-6.456-3.307 29.6 29.6 0 0 1-5.656-4.821c-.02-.022-.053.01-.033.033a29.8 29.8 0 0 0 5.49 4.93 20.7 20.7 0 0 0 6.6 3.294c.075.018.13-.093.055-.129m2.7-1.983c-.695-.369-1.445-.623-2.166-.932a35 35 0 0 1-2.221-1.032 29.4 29.4 0 0 1-4.084-2.546c-.053-.04-.124.05-.071.092a30 30 0 0 0 4.03 2.667 14.8 14.8 0 0 0 4.472 1.844c.053.008.094-.064.04-.093m1.409-3.2c-1.15-.535-2.341-.978-3.472-1.553a.086.086 0 0 0-.086.148 10.6 10.6 0 0 0 3.507 1.527c.069.013.124-.088.051-.122m88.004-16.834c-1.215-1.44-2.546-2.742-3.893-4.055a.023.023 0 0 0-.033.033c1.232 1.383 2.386 2.84 3.582 4.255 1.19 1.408 2.406 2.795 3.572 4.224.025.03.077-.01.055-.043a53 53 0 0 0-3.283-4.414m8.446 9.959q-1.813-2.167-3.732-4.24c-.007-.008-.018.003-.011.01q1.837 2.1 3.573 4.284c1.148 1.447 2.18 3.028 3.443 4.376a.043.043 0 0 0 .067-.052 31.3 31.3 0 0 0-3.34-4.378m-.132 4.836q-1.676-2.024-3.365-4.038-3.415-4.074-6.919-8.07c-.06-.069-.157.03-.1.1q3.378 4.032 6.735 8.082 1.643 1.974 3.273 3.958a40 40 0 0 0 3.47 4.102.075.075 0 0 0 .116-.09 35.5 35.5 0 0 0-3.21-4.044m-2.613 3.157a127 127 0 0 1-4.037-5.54c-.05-.074-.17-.006-.122.071 1.238 1.956 2.535 3.872 3.935 5.717a34.6 34.6 0 0 0 4.38 5.173c.043.039.122-.012.085-.066-1.263-1.882-2.862-3.555-4.24-5.354m.616 6.409-2.224-2.866c-.027-.035-.088.012-.061.047l2.172 2.906c.705.944 1.4 1.893 2.171 2.785.023.027.07-.008.05-.038-.655-.98-1.386-1.902-2.108-2.834m-1.059 6.186c-.015-.02-.048-.001-.034.02.377.525.749 1.054 1.14 1.57.017.023.057 0 .04-.024-.371-.53-.761-1.046-1.146-1.566m-59.268 35.078a77 77 0 0 1-10.872-8.356c-.022-.021-.054.011-.033.033a50.2 50.2 0 0 0 10.866 8.39.04.04 0 0 0 .039-.067m7.93 1.652a14 14 0 0 0-1.947-1.479q-1.085-.773-2.163-1.556-2.205-1.6-4.387-3.232-4.41-3.284-8.743-6.673c-.031-.024-.076.018-.044.044q4.108 3.415 8.362 6.641 2.122 1.612 4.28 3.175 1.078.783 2.162 1.557a15.7 15.7 0 0 0 2.414 1.608c.054.025.112-.039.066-.085m5.637-.021a8.5 8.5 0 0 0-1.842-1.305q-1.035-.679-2.06-1.371a213 213 0 0 1-3.983-2.735q-4.08-2.884-8.029-5.958c-.027-.022-.066.015-.038.038q3.78 3.126 7.748 6.002c1.337.966 2.686 1.92 4.054 2.842q1.026.693 2.065 1.365a8.2 8.2 0 0 0 2.043 1.193.043.043 0 0 0 .042-.071m5.319-.575a15 15 0 0 0-2.471-1.772c-.835-.561-1.668-1.127-2.507-1.681q-2.6-1.718-5.24-3.374c-.038-.024-.07.035-.035.06q2.543 1.817 5.119 3.58c.831.568 1.67 1.124 2.505 1.685a15 15 0 0 0 2.568 1.607c.061.025.101-.063.061-.104m2.755-1.778c-1.703-1.116-3.518-2.044-5.313-3a.027.027 0 0 0-.027.046c1.741 1.05 3.47 2.132 5.3 3.021a.04.04 0 0 0 .04-.067m4.255-.34a6.8 6.8 0 0 0-1.311-.706 5.1 5.1 0 0 0-1.437-.323c-.037-.003-.04.05-.009.061q.685.227 1.361.479c.459.169.916.342 1.356.557a.04.04 0 0 0 .04-.068m-10.572 19.775c-2.623-1.881-5.299-3.678-7.985-5.468-.043-.028-.08.039-.04.067 2.643 1.853 5.289 3.694 7.994 5.455.034.023.064-.03.031-.054m3.961.13a33.8 33.8 0 0 0-7.548-5.04c-.044-.022-.084.043-.04.068a68 68 0 0 1 7.53 5.046c.043.032.097-.038.058-.074m4.517-.421a40 40 0 0 0-6.412-3.668c-.054-.025-.101.055-.047.081a68 68 0 0 1 6.428 3.641c.034.022.063-.031.031-.054m17.901-13.738c-4.502.62-8.984 1.342-13.468 2.08-.05.009-.029.083.02.076 4.497-.655 8.987-1.323 13.464-2.096.04-.007.023-.065-.016-.06m42.034 1.905a39.8 39.8 0 0 1-11.321-2.147c-1.793-.589-3.555-1.267-5.343-1.868a21 21 0 0 0-3.154-.93 1.63 1.63 0 0 0 .869-.662c2.053.562 4.137 1.012 6.203 1.53a.05.05 0 0 0 .027-.098c-2.252-.877-4.47-1.845-6.754-2.635a.512.512 0 0 0-.272.986c-.226-.068-.179-.127-.398-.085a2.3 2.3 0 0 0-.45.208c-.336.156-.676.307-1.006.475-.623.318-1.204.708-1.83 1.023-1.252.63-2.54 1.192-3.815 1.774q-3.832 1.75-7.668 3.488c-.07.031-.01.13.059.101q4.892-2.081 9.796-4.137c1.433-.602 2.917-1.047 4.358-1.617a2.6 2.6 0 0 0 .482.328 12 12 0 0 0 1.402.415c.867.251 1.736.493 2.604.741 1.81.517 3.616 1.046 5.428 1.555 3.479.977 7.141 1.913 10.783 1.626a.035.035 0 0 0 0-.07m-6.648-2.612c-.03-.004-.03.043 0 .047l4.439.574c.02.003.02-.028 0-.03z"/><path fill="currentColor" d="M424.227 294.59c-2.587-.958-5.244-1.7-7.888-2.484a286 286 0 0 0-7.954-2.243.04.04 0 0 0-.02.076q3.923 1.305 7.886 2.488c2.639.794 5.265 1.63 7.953 2.247a.043.043 0 0 0 .023-.083m-8.305.607a64 64 0 0 0-7.526-2.823c-.059-.019-.081.07-.025.09 2.51.927 5.004 1.895 7.518 2.812.045.016.078-.059.033-.079M67.284 277.894a19 19 0 0 0-2.839-1.996 61 61 0 0 0-3.099-1.76.047.047 0 0 0-.047.082q1.513.888 2.977 1.857c.968.642 1.927 1.337 2.942 1.903.053.029.114-.044.066-.086m8.6 1.886c-1.865-1.34-3.895-2.473-5.82-3.728q-2.893-1.885-5.684-3.92c-.033-.023-.063.03-.031.054q2.748 2.101 5.6 4.06a47 47 0 0 0 5.864 3.655.07.07 0 0 0 .071-.122m7.624.834c-1.205-.85-2.556-1.518-3.822-2.276a159 159 0 0 1-3.788-2.333q-3.748-2.39-7.354-4.997c-.03-.021-.056.026-.028.047q3.597 2.727 7.383 5.18a112 112 0 0 0 3.779 2.349 32 32 0 0 0 3.803 2.095c.04.016.058-.043.027-.065m4.928-.647c-2.173-1.485-4.472-2.787-6.648-4.272q-3.26-2.223-6.399-4.625c-.031-.024-.073.03-.042.055q3.037 2.453 6.243 4.675a63 63 0 0 0 6.759 4.315.086.086 0 0 0 .087-.148m2.762-2.474a179 179 0 0 0-6.125-3.578.059.059 0 0 0-.06.101c2.03 1.22 4.073 2.4 6.15 3.538a.035.035 0 0 0 .035-.061m-6.808-39.855c-.002-.024-.04-.025-.038 0a46 46 0 0 0 1.73 10.478.035.035 0 0 0 .069-.018 95 95 0 0 1-1.76-10.46m-2.676.523c-.008-.035-.059-.02-.053.014a56 56 0 0 0 .766 3.83c.009.035.059.02.053-.014a56 56 0 0 0-.766-3.83m21.857-18.927a.185.185 0 0 0-.304-.08 47 47 0 0 1-4.568 3.318 7 7 0 0 0-1.96 1.42 4.2 4.2 0 0 1-1.005.95q-.563.39-1.132.773-4.498 3.033-9.256 5.662c-.013.008-.001.027.012.02a106 106 0 0 0 9.462-5.535q.572-.377 1.14-.76a7 7 0 0 1 1.357-.628 8 8 0 0 0 1.983-1.494c1.307-1.105 2.644-2.172 3.967-3.258.098 1.019-.935 2.072-1.511 2.787a29 29 0 0 1-2.095 2.319 25 25 0 0 1-2.334 2.038q-.624.484-1.272.936l-.619.43a4 4 0 0 0-.386.3.16.16 0 0 0-.175-.07.343.343 0 0 0-.234.533c.29.42.865-.022 1.12-.209a30 30 0 0 0 3.29-2.89 44 44 0 0 0 2.99-3.254c.733-.888 1.924-2.047 1.53-3.308m22.967-13.178a19 19 0 0 1-1.778.628 1.51 1.51 0 0 0-1.136.744 5.8 5.8 0 0 1-1.424 1.29c-.477.398-.943.808-1.408 1.219a24.5 24.5 0 0 1-6.16 4.411c-.068.03-.02.147.05.121a19.6 19.6 0 0 0 5.877-4.013c.467-.41.931-.823 1.404-1.226a11 11 0 0 1 1.558-1.247c.261-.15.565-.108.841-.235a1.5 1.5 0 0 0 .513-.417 4.9 4.9 0 0 1 1.693-1.204c.04-.019.012-.086-.03-.071m8.873-6.435c-2.363 2.449-4.627 4.988-7.044 7.386a178 178 0 0 1-3.671 3.554 33 33 0 0 0-3.595 3.623c-.051.065.012.17.095.122a21.7 21.7 0 0 0 3.905-3.175 103 103 0 0 0 3.706-3.683 77 77 0 0 0 6.677-7.77c.032-.044-.037-.095-.073-.058m28.974-30.131c-.683.276-1.154 1.084-1.6 1.641q-.831 1.04-1.726 2.027a48 48 0 0 1-3.798 3.726 40.4 40.4 0 0 1-8.901 6.042c-.046.022-.006.088.04.067a43.4 43.4 0 0 0 9.227-5.598 37 37 0 0 0 3.957-3.712q.902-.977 1.741-2.012a4.25 4.25 0 0 0 1.214-2.064.122.122 0 0 0-.154-.117m-2.453 6.608a50 50 0 0 0-4.14 3.273c-.046.04.016.122.066.086a50 50 0 0 0 4.14-3.273c.045-.041-.015-.122-.066-.086M41.377 142.534c-.099-2.605-.306-5.198-.563-7.79a.031.031 0 0 0-.062 0c-.068 2.597-.085 5.191.006 7.79.09 2.59.166 5.22.5 7.79a.094.094 0 0 0 .188 0c.147-2.583.03-5.206-.069-7.79m-3.905 2.887c-.049-.857-.004-1.71.03-2.567.064-1.677.056-3.36.057-5.039a.043.043 0 0 0-.086 0c-.072 1.678-.152 3.36-.159 5.04-.003.825.01 1.649-.071 2.471a4.76 4.76 0 0 0-.023 2.238.102.102 0 0 0 .175 0 4.5 4.5 0 0 0 .077-2.143m-2.51-5.823a28 28 0 0 0-.257 3.316c0 .034.055.044.061.008a28 28 0 0 0 .336-3.324c.005-.092-.13-.087-.14 0m-.39 4.839c-.016-.075-.124-.042-.113.031a2.85 2.85 0 0 1-.054 1.191 4 4 0 0 1-.184.506.8.8 0 0 0-.11.304.2.2 0 0 0 .201.2c.235-.007.269-.358.301-.535a4 4 0 0 0 .05-.55 4.7 4.7 0 0 0-.091-1.147m-2.313-2.796a.027.027 0 0 0-.055 0 16 16 0 0 0 0 1.788.027.027 0 0 0 .055 0 16 16 0 0 0 0-1.788m45.964-29.361c-.004-.05-.082-.05-.079 0 .102 1.616.186 3.234.322 4.848.003.03.048.03.047 0-.067-1.617-.188-3.233-.29-4.848m-2.823-1.277a.02.02 0 0 0-.04 0c-.05 2.383-.14 4.767-.026 7.149a.047.047 0 0 0 .093 0c.113-2.382.023-4.766-.027-7.149m-2.595.001c-.122 1.442-.288 2.888-.314 4.336-.001.036.05.033.054 0 .188-1.436.238-2.891.33-4.336.003-.045-.066-.045-.07 0m-2.315-.767c0 .766-.003 1.532.02 2.298a.02.02 0 0 0 .039 0c.022-.766.02-1.532.02-2.298a.04.04 0 0 0-.079 0m33.578-26.715a62.3 62.3 0 0 0-12.853 17.427 52 52 0 0 0-1.486 3.218c-.004-.052.002-.103-.005-.156a7.1 7.1 0 0 0-.862-2.532 5 5 0 0 0 .436-1.064 7.5 7.5 0 0 1 .674-1.495q.708-1.322 1.48-2.608a66 66 0 0 1 3.252-4.907 66 66 0 0 1 7.947-9.052c.019-.017-.009-.044-.027-.028A58.5 58.5 0 0 0 91.088 96.1q-.776 1.282-1.489 2.602a9.4 9.4 0 0 1-.826 1.407 4.4 4.4 0 0 0-.712 1.275.39.39 0 0 0 .176.432 2.94 2.94 0 0 1 1.338 2.215c.017.143.022.298.028.452-.281.672-.564 1.344-.816 2.03-.158.433.532.72.744.314.018-.035.023-.065.038-.099l.003.002a63.5 63.5 0 0 1 4.462-9.714 62.5 62.5 0 0 1 6.158-8.777c1.308-1.57 2.716-2.994 4.17-4.424.19-.188-.099-.474-.294-.293m-1.45 5.71a55 55 0 0 0-5.086 7.193 48 48 0 0 0-2.084 3.869 11.8 11.8 0 0 0-1.436 4.006c-.006.094.114.104.16.043a9.5 9.5 0 0 0 .979-1.945c.28-.639.55-1.28.833-1.918a58 58 0 0 1 1.875-3.864 53 53 0 0 1 4.787-7.356c.015-.02-.012-.047-.028-.028m44.238-19.698a6.4 6.4 0 0 0-1.156-.506.38.38 0 0 0-.368.097c-.212.222-.717.27-.993.355a11 11 0 0 0-1.011.368 15 15 0 0 0-1.87.969c-1.43.85-2.837 1.739-4.254 2.61l-8.636 5.305a.02.02 0 0 0 .02.034l9.3-5.64c1.488-.902 2.955-1.876 4.5-2.682a5.7 5.7 0 0 1 2.49-.855c.307.005.531.185.822.17a7 7 0 0 1 1.134-.145.043.043 0 0 0 .022-.08m2.074.394c-1.211.68-2.444 1.295-3.626 2.034q-1.81 1.133-3.575 2.337-1.717 1.173-3.381 2.418a27 27 0 0 1-3.433 2.519c-.307.16-.034.629.271.464.169-.09.34-.17.513-.252.107-.051.055-.199-.044-.22a24.5 24.5 0 0 1 2.936-2.322q1.67-1.238 3.383-2.416 1.664-1.146 3.372-2.227c1.2-.76 2.376-1.593 3.595-2.314a.012.012 0 0 0-.011-.02m32.92 14.777c-.014-.007-.026.014-.012.02l2.072.957c.01.005.017-.009.008-.013zm40.113 18.334a56 56 0 0 0-2.612-8.362c-.019-.046-.092-.028-.076.02a81 81 0 0 1 2.419 8.295c.648 2.811 1.03 5.66 1.467 8.508.006.044.078.033.076-.01a46 46 0 0 0-1.274-8.45m-1.091 5.029q-.757-3.325-1.798-6.575a.027.027 0 0 0-.052.014q.925 3.222 1.585 6.51c.434 2.178.61 4.443 1.18 6.587a.067.067 0 0 0 .13-.018 29.6 29.6 0 0 0-1.045-6.518m-2.12 2.132a.035.035 0 0 0-.068.019c.36 1.545.673 3.113 1.16 4.625a.035.035 0 0 0 .067-.019c-.285-1.563-.748-3.092-1.16-4.625m-9.527 47.712c-2.15-1.847-4.514-3.492-6.77-5.208l-6.985-5.311c-.016-.013-.031.014-.016.027l6.857 5.288c2.274 1.753 4.507 3.632 6.881 5.247.026.017.057-.023.033-.043m2.026-2.272c-2.376-1.936-4.883-3.737-7.349-5.557q-3.797-2.802-7.63-5.558c-.036-.027-.07.034-.035.06q3.76 2.757 7.493 5.551c2.484 1.859 4.934 3.784 7.468 5.572.04.027.09-.037.052-.068m-.485-4.882a62 62 0 0 0-12.508-7.965c-.068-.034-.127.066-.06.1a108 108 0 0 1 12.506 7.946c.047.033.106-.043.062-.08m.523-4.892a5 5 0 0 0-1.605-.812c-.735-.3-1.455-.662-2.163-1.02-1.337-.677-2.64-1.41-3.96-2.12a32 32 0 0 0-1.97-.967c-.322-.146-.976-.59-1.347-.458-.372.132-.187.605.071.405a.02.02 0 0 0 .006-.022 12 12 0 0 0 1.11.566c.455.236.917.456 1.381.674.965.452 1.959.843 2.937 1.266.941.406 1.866.853 2.785 1.307a11 11 0 0 0 2.683 1.305c.067.012.132-.07.072-.124m-3.124-4.507a38 38 0 0 0-3.808-1.367c-.05-.015-.066.057-.021.075a38 38 0 0 0 3.799 1.364c.04.011.071-.054.03-.072m3.352 1.506c-.032-.037-.059-.077-.091-.113a.7.7 0 0 0-.132-.105 1 1 0 0 0-.284-.106 13 13 0 0 1-.551-.182c-.052-.019-.079.058-.036.086q.247.164.486.338a1 1 0 0 0 .26.16.5.5 0 0 0 .153.037c.048.003.096.001.146.005.065.005.086-.078.05-.12m-1.576-4.042c-.3-.134-.599-.274-.902-.403-.295-.125-.596-.238-.894-.357-.02-.008-.035.026-.015.035.292.134.581.274.876.4.302.131.61.25.914.375.029.012.05-.037.021-.05m32.448 51.205a85 85 0 0 0-8.459-1.892c-.053-.01-.077.069-.023.083a85 85 0 0 0 8.46 1.892.043.043 0 0 0 .022-.083m3.554-1.943a70 70 0 0 1-10.235-2.237c-.024-.007-.034.03-.01.038a41.4 41.4 0 0 0 10.235 2.268c.04.003.049-.063.01-.07m-1.008-2.874c-1.695-.456-3.416-.797-5.132-1.16-.059-.013-.084.076-.025.09 1.709.4 3.412.822 5.14 1.13.039.007.056-.05.017-.06M17.613 90.688 7.07 84.958c.48-.887 12.07-21.955 37.234-43.027C67.5 22.506 107.072-.555 164.065.011l-.115 11.998a213 213 0 0 0-1.933-.01c-41.81 0-78.682 13.053-109.625 38.812-23.567 19.618-34.67 39.677-34.779 39.877"/><path fill="currentColor" d="M38.266 88.517 0 67.907l1.291 22.712 1.291 22.711zm451.888 2.171 10.543-5.73c-.48-.887-12.07-21.955-37.234-43.027C440.266 22.506 400.695-.555 343.702.011l.115 11.998q.968-.01 1.933-.01c41.81 0 78.682 13.053 109.625 38.812 23.567 19.618 34.67 39.677 34.779 39.877"/><path fill="currentColor" d="m469.501 88.517 38.266-20.61-1.291 22.712-1.291 22.711z"/></svg>