<svg xmlns="http://www.w3.org/2000/svg" data-name="calm down" viewBox="0 0 560.441 373.457"><path fill="currentColor" d="M267.498 70.768a15.64 15.64 0 0 0-3.268-6.946 14.4 14.4 0 0 0-6.304-4.227c-5.05-1.77-10.603-1.2-15.822-.745-6.309.55-12.861.663-18.741 3.255-2.9 1.278-5.658 2.88-8.441 4.389q-4.344 2.354-8.684 4.715l-4.34 2.361a14.7 14.7 0 0 0-3.309 2.078 10.85 10.85 0 0 0-4.289-2.122 17.9 17.9 0 0 0-5.25-.8 5.4 5.4 0 0 0-3.695.914 7 7 0 0 0-.556-1.206 12.8 12.8 0 0 0-1.898-2.58 55 55 0 0 0-5.01-4.382 50 50 0 0 1-5.355-5.328c-1.592-1.834-2.94-3.824-4.398-5.759-1.107-1.469-2.82-3.43-4.823-3.616a30 30 0 0 0-3.04-4.658 58 58 0 0 0-9.063-8.669 59 59 0 0 1-4.589-4.127 28.8 28.8 0 0 1-3.811-4.933 19.9 19.9 0 0 0-3.622-4.74 12.84 12.84 0 0 0-5.452-2.562c-2.229-.543-4.526-.767-6.75-1.316a.08.08 0 0 0-.033-.057 52 52 0 0 0-5.051-3.094q-2.583-1.453-5.125-2.977c-3.3-1.97-6.521-4.058-9.714-6.197-2.847-1.907-5.896-3.799-9.364-4.238-2.974-.377-6.236.345-8.266 2.689a14.1 14.1 0 0 0-2.341 4.321 51 51 0 0 0-1.759 5.23 20 20 0 0 0-.486 2.604 22.4 22.4 0 0 0-3.268-3.143q-2.013-1.733-4.117-3.354a93 93 0 0 0-8.829-6.018A49.2 49.2 0 0 0 59.23.764a11.64 11.64 0 0 0-9.401.47 14.7 14.7 0 0 0-5.811 6.069c-1.487 2.752-2.59 6.02-2.034 9.165a17.9 17.9 0 0 0-5.372-4.179 14.3 14.3 0 0 0-7.866-1.8c-5.517.475-9.086 5.108-11.33 9.752a14.2 14.2 0 0 0-1.373 4.29 15 15 0 0 0 .14 4.492 33 33 0 0 0 1.73 6.087 5.24 5.24 0 0 0-3.726-1.84 10 10 0 0 0-5.159.779c-3.69 1.58-5.886 5.196-7.074 8.88A41 41 0 0 0 .24 56.145 39.9 39.9 0 0 0 2.86 69.89c.927 2.37 2.129 4.6 3.241 6.882.582 1.193 1.148 2.395 1.64 3.628q.37.925.68 1.872a6.6 6.6 0 0 0 .685 1.718l.01-.01a.25.25 0 0 0 .081.103c.02.195.034.39.056.584q.26 2.375.594 4.741.676 4.813 1.65 9.577a42.2 42.2 0 0 0 2.43 8.719 22.6 22.6 0 0 0 4.644 6.617q.113.115.23.23a10.7 10.7 0 0 1-.733-2.488 22 22 0 0 1-2.649-3.99 34.4 34.4 0 0 1-2.563-8.456q-.967-4.576-1.657-9.206-.391-2.624-.69-5.26a21.8 21.8 0 0 0-.948-5.12c-.046-.124-.256-.156-.286 0a10 10 0 0 0-.16 1.427q-.11-.297-.21-.58a45 45 0 0 0-1.148-2.894c-.87-2.014-1.816-3.994-2.717-5.994a39.8 39.8 0 0 1-3.427-12.68 44.5 44.5 0 0 1 .71-13.069c.753-3.655 2.144-7.578 5.192-9.955a9.2 9.2 0 0 1 5.328-1.91c1.926-.051 3.512.763 5.226 1.522a.14.14 0 0 0 .14-.012q.299.775.61 1.537a80.6 80.6 0 0 0 8.358 15.109 139 139 0 0 0 5.755 7.723 24.7 24.7 0 0 0 4.356 4.79 8.3 8.3 0 0 0 .534 1.523c.375.9.783 1.787 1.209 2.664a66 66 0 0 0 2.792 5.144q.684 1.139 1.399 2.255c.125.333.25.666.365 1.002a32.6 32.6 0 0 1 1.269 4.95c.195 1.113.311 2.237.395 3.364.278-.48.599-.987.954-1.484a31 31 0 0 0-.323-2.05 33 33 0 0 0-.67-2.756c.746 1.1 1.512 2.188 2.277 3.275a8 8 0 0 1 .846-.738l-.063-.088a163 163 0 0 1-4.024-5.88 89 89 0 0 1-3.63-6.1q-.854-1.583-1.614-3.213c-.156-.336-.302-.73-.467-1.122a6 6 0 0 0 .988.36.184.184 0 0 0 .142-.335 22.3 22.3 0 0 1-5.348-5.52 180 180 0 0 1-4.831-6.567 95.3 95.3 0 0 1-8.192-13.904 60 60 0 0 1-2.988-7.627c-.844-2.71-1.475-5.64-.814-8.461a21.7 21.7 0 0 1 3.465-7.132 11.53 11.53 0 0 1 5.652-4.616 12 12 0 0 1 8.714.82 20.3 20.3 0 0 1 3.845 2.41c1.027.807 1.99 1.631 3.067 2.354a47 47 0 0 0 1.652 4.498q.936 2.382 1.933 4.74a90 90 0 0 0 4.756 9.671 48 48 0 0 0 6.478 9.06 21.6 21.6 0 0 0 5.434 4.336 11.3 11.3 0 0 0 1.486 4.173c.82 1.535 1.805 2.99 2.748 4.45q3.011 4.666 6.198 9.214c2.054 2.933 4.121 5.885 6.338 8.698.139.176.291.317.437.473a2.3 2.3 0 0 1-.181.739 3.9 3.9 0 0 1-.965 1.163c-.411.382-.809.78-1.22 1.16-.206.19-.399.395-.605.585a9 9 0 0 0-.647.594.13.13 0 0 0 .126.216 5 5 0 0 0 .856-.376q.442-.216.87-.46a8 8 0 0 0 1.6-1.198 3.4 3.4 0 0 0 .995-1.552c.008-.035.007-.071.014-.106a7.4 7.4 0 0 0 2.55 1.247 36 36 0 0 0 5.21 1.024c3.934.49 8.216.441 11.941-1.035.137-.054.134-.283-.037-.276a89 89 0 0 1-10.27.166 34.5 34.5 0 0 1-5.156-.798 7.8 7.8 0 0 1-4.25-1.972 45 45 0 0 1-3.101-4.04q-1.558-2.116-3.079-4.259-3.008-4.236-5.865-8.576c-1.04-1.582-2.091-3.162-3.067-4.786a23 23 0 0 1-1.86-3.954 12 12 0 0 0 2.161.717c.226.05.397-.283.166-.393a26.4 26.4 0 0 1-7.289-5.025 40.2 40.2 0 0 1-5.733-7.426c-3.58-5.753-6.094-12.102-8.45-18.43a14.2 14.2 0 0 1-1.254-5.126 13.9 13.9 0 0 1 1.097-4.69 16.44 16.44 0 0 1 4.68-6.76 9.56 9.56 0 0 1 8.458-1.811c3.318.787 6.355 2.663 9.25 4.402a104 104 0 0 1 9.207 6.27q2.234 1.694 4.364 3.52a31 31 0 0 0 4.399 3.643.5.5 0 0 0 .134.048 17 17 0 0 0 .006 1.924 39 39 0 0 0 .928 5.701 41.5 41.5 0 0 0 3.146 10.198 25 25 0 0 0 6.976 7.89 17.2 17.2 0 0 0 5.2 3.02 12 12 0 0 0 2.34.504 3.9 3.9 0 0 0 .597 1.857c.817 1.353 1.898 2.587 2.846 3.85 1.94 2.584 3.915 5.141 5.876 7.71.613.801 1.214 1.642 1.838 2.469a.5.5 0 0 0 .094.189c.109.38.24.755.314 1.147a5.7 5.7 0 0 1 .067 1.572 11 11 0 0 1-.29 1.494c-.116.515-.318.988-.48 1.485a.142.142 0 0 0 .207.159 3.96 3.96 0 0 0 1.574-3.092 5.7 5.7 0 0 0-.062-1.192 13.8 13.8 0 0 0 2.689 2.436 20.7 20.7 0 0 0 8.122 2.912 21.2 21.2 0 0 0 9.723-.55c.14-.042.124-.283-.036-.268a28.7 28.7 0 0 1-15.825-2.584c-2.527-1.3-4.113-3.505-5.804-5.71l-5.448-7.101c-.993-1.296-2-2.58-3.005-3.868a9.7 9.7 0 0 1-1.857-2.816 16 16 0 0 0 2.453-.072 24.1 24.1 0 0 0 11.563-4.878c.124-.093.058-.33-.115-.272-3.37 1.12-6.58 2.797-10.081 3.5a14.8 14.8 0 0 1-3.964.27.28.28 0 0 0-.386-.043 12.9 12.9 0 0 1-5.577-1.874 24.8 24.8 0 0 1-7.429-6.865 27.4 27.4 0 0 1-3.6-9.385c-.822-3.549-1.812-7.256-1.356-10.925a26 26 0 0 1 1.424-5.404 29 29 0 0 1 1.91-4.646 7.13 7.13 0 0 1 3.189-3.058 9.05 9.05 0 0 1 4.246-.745c3.32.158 6.275 1.894 9 3.65 3.412 2.197 6.806 4.407 10.311 6.458q2.662 1.557 5.38 3.012a40 40 0 0 0 4.355 2.067 38.6 38.6 0 0 1-6.636-2.3c-.063-.03-.118.059-.056.094a41 41 0 0 0 5.955 2.923 43 43 0 0 0 6.208 1.73 18.4 18.4 0 0 1 5.712 1.8 12.2 12.2 0 0 1 4.015 4.326 40.5 40.5 0 0 0 3.414 4.89 41 41 0 0 0 4.404 4.292c3.089 2.657 6.363 5.113 9.068 8.182a40 40 0 0 1 4.13 5.719 41 41 0 0 1 3.378 6.301c.073.188.366.118.309-.085a41 41 0 0 0-1.774-5.262 5 5 0 0 1 1.249.775 13 13 0 0 1 1.957 2.235c1.344 1.835 2.601 3.71 4.068 5.455a52 52 0 0 0 5.02 5.192c1.591 1.433 3.29 2.748 4.834 4.234a14 14 0 0 1 2.168 2.552 8.5 8.5 0 0 1 .781 1.534 2.5 2.5 0 0 0 .49.855c-.213.5-.372 1.025-.6 1.517a12 12 0 0 1-1.508 2.31 62 62 0 0 0-6.126 9.324c-1.749 3.293-3.198 6.752-4.66 10.179-1.794 4.2-3.42 8.453-5.09 12.703-.022.054.067.091.092.04 1.73-3.563 3.518-7.089 5.148-10.7 1.444-3.198 2.89-6.394 4.526-9.5a71 71 0 0 1 5.548-9.13 34 34 0 0 0 3.1-4.248c.32-.615.516-1.276.79-1.91a1.89 1.89 0 0 1 1.626-1.31 16.2 16.2 0 0 1 5.777.395 17 17 0 0 1 2.65.856c.73.305 1.41.675 2.14.958a9.7 9.7 0 0 1-1.092 1.248c-.591.534-1.238 1.001-1.878 1.473-1.326.975-2.672 1.928-3.971 2.939-1.252.974-2.416 2.044-3.664 3.028-.09.072.027.222.123.16 1.378-.894 2.816-1.671 4.178-2.586 1.294-.869 2.563-1.78 3.841-2.673a17 17 0 0 0 3.364-2.645 6.2 6.2 0 0 1 1.511-1.383c.658-.397 1.352-.742 2.029-1.106q8.417-4.525 16.828-9.062a39.7 39.7 0 0 1 8.25-3.6 50.7 50.7 0 0 1 9.263-1.296c2.997-.247 5.994-.537 8.995-.735a41.6 41.6 0 0 1 7.625.062 16.5 16.5 0 0 1 6.879 2.27 13.1 13.1 0 0 1 4.791 5.587c2.35 5.023 1.443 10.864-.92 15.703a39.05 39.05 0 0 1-10.4 12.567 75.4 75.4 0 0 1-14.131 9.218 78 78 0 0 1-15.656 5.921c-5.594 1.454-11.377 2.051-16.854 3.948a20 20 0 0 0-3.677 1.788.19.19 0 0 0-.075.224 35 35 0 0 0-3 1.9 78 78 0 0 0-9.195 8.01 77 77 0 0 1-9.511 8.3 42 42 0 0 1-8.591 4.57 13 13 0 0 1 1.503 1.038 44 44 0 0 0 4.841-2.374 53.3 53.3 0 0 0 9.825-7.543c5.865-5.508 11.469-11.872 19.3-14.558.456-.157.94-.275 1.385-.463a12 12 0 0 0 1.198-.696.3.3 0 0 0 .142-.16c3.218-.665 6.476-1.17 9.694-1.85a79.4 79.4 0 0 0 16.541-5.474 78.6 78.6 0 0 0 14.886-8.89 46.3 46.3 0 0 0 11.696-12.217c2.985-4.837 4.663-10.594 3.513-16.26m125.616 72.339.306-.116q-1.602-.13-3.192-.366a15.4 15.4 0 0 0-2.31.57 26 26 0 0 0 3.435.269q.883-.168 1.761-.357M552.239 42.93c-1.188-3.685-3.385-7.301-7.074-8.881a10 10 0 0 0-5.16-.779 5.24 5.24 0 0 0-3.725 1.84 33 33 0 0 0 1.73-6.087 15 15 0 0 0 .14-4.493 14.2 14.2 0 0 0-1.372-4.289c-2.245-4.644-5.814-9.277-11.33-9.752a14.3 14.3 0 0 0-7.867 1.8 17.9 17.9 0 0 0-5.373 4.18c.556-3.146-.547-6.414-2.033-9.166a14.7 14.7 0 0 0-5.81-6.07 11.64 11.64 0 0 0-9.403-.469 49.2 49.2 0 0 0-9.405 4.766 93 93 0 0 0-8.828 6.018q-2.102 1.623-4.117 3.354a22.4 22.4 0 0 0-3.268 3.143 20 20 0 0 0-.487-2.604 51 51 0 0 0-1.758-5.23 14.1 14.1 0 0 0-2.341-4.321c-2.03-2.344-5.293-3.066-8.267-2.69-3.467.44-6.516 2.332-9.363 4.24-3.193 2.138-6.414 4.225-9.714 6.196q-2.544 1.52-5.125 2.977a52 52 0 0 0-5.051 3.094.08.08 0 0 0-.033.057c-2.225.55-4.521.773-6.75 1.316a12.84 12.84 0 0 0-5.452 2.563 19.9 19.9 0 0 0-3.622 4.74 28.8 28.8 0 0 1-3.811 4.932 59 59 0 0 1-4.59 4.127 58 58 0 0 0-9.062 8.67 30 30 0 0 0-3.04 4.657c-2.003.186-3.716 2.147-4.823 3.616-1.457 1.935-2.806 3.925-4.398 5.759a50 50 0 0 1-5.355 5.328 55 55 0 0 0-5.01 4.382 12.8 12.8 0 0 0-1.898 2.58 7 7 0 0 0-.556 1.206 5.4 5.4 0 0 0-3.696-.914 17.9 17.9 0 0 0-5.25.8 10.85 10.85 0 0 0-4.288 2.122 14.7 14.7 0 0 0-3.308-2.077l-4.34-2.362q-4.341-2.36-8.685-4.715c-2.783-1.509-5.541-3.11-8.441-4.389-5.88-2.592-12.432-2.705-18.741-3.254-5.22-.455-10.772-1.025-15.822.744a14.4 14.4 0 0 0-6.304 4.227 15.64 15.64 0 0 0-3.268 6.946c-1.15 5.665.528 11.422 3.513 16.259a46.3 46.3 0 0 0 11.696 12.218 78.6 78.6 0 0 0 14.886 8.889 79.4 79.4 0 0 0 16.541 5.475c3.218.68 6.476 1.184 9.694 1.848a.3.3 0 0 0 .142.161 12 12 0 0 0 1.198.696c.444.188.93.306 1.386.463 7.83 2.686 13.434 9.05 19.3 14.558a53.3 53.3 0 0 0 9.824 7.543c.672.386 1.364.737 2.057 1.087a14 14 0 0 1 .987-1.198 42 42 0 0 1-5.29-3.123 77 77 0 0 1-9.512-8.299 78 78 0 0 0-9.195-8.011 35 35 0 0 0-3-1.9.19.19 0 0 0-.075-.224 20 20 0 0 0-3.677-1.788c-5.477-1.897-11.26-2.494-16.854-3.948a78 78 0 0 1-15.656-5.921 75.4 75.4 0 0 1-14.131-9.218 39.05 39.05 0 0 1-10.4-12.567c-2.364-4.84-3.27-10.68-.92-15.703A13.1 13.1 0 0 1 294 62.478a16.5 16.5 0 0 1 6.878-2.27 41.6 41.6 0 0 1 7.626-.062c3.001.198 5.998.488 8.995.735a50.7 50.7 0 0 1 9.263 1.297 39.7 39.7 0 0 1 8.25 3.6q8.414 4.529 16.828 9.061c.677.364 1.37.709 2.029 1.106a6.2 6.2 0 0 1 1.51 1.383 17 17 0 0 0 3.365 2.645c1.278.893 2.547 1.804 3.841 2.673 1.362.915 2.8 1.692 4.177 2.586.096.062.214-.088.124-.16-1.248-.984-2.412-2.054-3.664-3.028-1.299-1.01-2.645-1.964-3.97-2.94-.641-.47-1.288-.938-1.88-1.472a9.7 9.7 0 0 1-1.09-1.248c.728-.283 1.408-.653 2.139-.958a17 17 0 0 1 2.65-.856 16.2 16.2 0 0 1 5.777-.396 1.89 1.89 0 0 1 1.625 1.31c.275.635.47 1.296.791 1.91a34 34 0 0 0 3.1 4.25 71 71 0 0 1 5.548 9.129c1.636 3.106 3.082 6.302 4.526 9.5 1.63 3.611 3.419 7.137 5.148 10.7.025.051.114.014.093-.04-1.67-4.25-3.297-8.502-5.09-12.703-1.463-3.427-2.912-6.886-4.66-10.179a62 62 0 0 0-6.127-9.324 12 12 0 0 1-1.508-2.31c-.228-.492-.387-1.017-.6-1.517a2.5 2.5 0 0 0 .49-.855 8.5 8.5 0 0 1 .781-1.534 14 14 0 0 1 2.168-2.552c1.544-1.486 3.243-2.8 4.835-4.234a52 52 0 0 0 5.019-5.192c1.467-1.744 2.724-3.62 4.068-5.455a13 13 0 0 1 1.957-2.235 5 5 0 0 1 1.25-.775 41 41 0 0 0-1.775 5.262c-.057.203.236.273.31.085a41 41 0 0 1 3.377-6.302 40 40 0 0 1 4.13-5.718c2.705-3.07 5.98-5.525 9.068-8.182a41 41 0 0 0 4.404-4.291 40.5 40.5 0 0 0 3.414-4.89 12.2 12.2 0 0 1 4.015-4.326 18.4 18.4 0 0 1 5.712-1.8 43 43 0 0 0 6.208-1.73 41 41 0 0 0 5.955-2.924c.062-.035.007-.124-.056-.095a38.6 38.6 0 0 1-6.636 2.3 40 40 0 0 0 4.356-2.066q2.716-1.458 5.378-3.012c3.505-2.051 6.9-4.26 10.312-6.459 2.725-1.755 5.68-3.491 9-3.65a9.05 9.05 0 0 1 4.246.745 7.13 7.13 0 0 1 3.189 3.059 29 29 0 0 1 1.91 4.646 26 26 0 0 1 1.423 5.404c.457 3.669-.533 7.376-1.355 10.925a27.4 27.4 0 0 1-3.6 9.385 24.8 24.8 0 0 1-7.43 6.865 12.9 12.9 0 0 1-5.576 1.874.28.28 0 0 0-.386.043 14.8 14.8 0 0 1-3.964-.27c-3.5-.703-6.71-2.38-10.081-3.5-.173-.057-.24.18-.115.271a24.1 24.1 0 0 0 11.563 4.88 16 16 0 0 0 2.453.071 9.7 9.7 0 0 1-1.857 2.816c-1.005 1.287-2.012 2.572-3.006 3.868l-5.447 7.102c-1.69 2.203-3.277 4.409-5.805 5.709a28.7 28.7 0 0 1-15.824 2.584c-.16-.015-.177.226-.036.269a21.2 21.2 0 0 0 9.723.549 20.7 20.7 0 0 0 8.122-2.912 13.8 13.8 0 0 0 2.689-2.436 5.7 5.7 0 0 0-.062 1.192 3.96 3.96 0 0 0 1.574 3.092.142.142 0 0 0 .207-.16c-.162-.496-.365-.97-.481-1.484a11 11 0 0 1-.29-1.494 5.7 5.7 0 0 1 .068-1.572c.074-.392.205-.767.314-1.147a.5.5 0 0 0 .094-.19c.624-.826 1.225-1.667 1.838-2.469 1.961-2.568 3.936-5.125 5.876-7.709.948-1.263 2.029-2.497 2.846-3.85a3.9 3.9 0 0 0 .598-1.857 12 12 0 0 0 2.339-.504 17.2 17.2 0 0 0 5.2-3.02 25 25 0 0 0 6.976-7.89 41.5 41.5 0 0 0 3.146-10.198 39 39 0 0 0 .928-5.701 17 17 0 0 0 .006-1.924.5.5 0 0 0 .134-.048 31 31 0 0 0 4.399-3.643q2.13-1.822 4.364-3.52a104 104 0 0 1 9.207-6.27c2.895-1.739 5.932-3.615 9.25-4.402a9.56 9.56 0 0 1 8.457 1.81 16.44 16.44 0 0 1 4.68 6.76 13.9 13.9 0 0 1 1.098 4.691 14.2 14.2 0 0 1-1.254 5.126c-2.356 6.328-4.87 12.677-8.45 18.43a40.2 40.2 0 0 1-5.733 7.426 26.4 26.4 0 0 1-7.29 5.025c-.23.11-.059.443.166.393a12 12 0 0 0 2.163-.717 23 23 0 0 1-1.861 3.954c-.976 1.623-2.026 3.204-3.067 4.786q-2.857 4.34-5.865 8.576-1.521 2.142-3.08 4.258a45 45 0 0 1-3.1 4.041 7.8 7.8 0 0 1-4.25 1.972 34.5 34.5 0 0 1-5.157.798 89 89 0 0 1-10.269-.166c-.171-.007-.174.222-.037.276 3.724 1.476 8.006 1.526 11.941 1.035a36 36 0 0 0 5.21-1.025 7.4 7.4 0 0 0 2.55-1.246c.006.035.006.071.014.106a3.4 3.4 0 0 0 .995 1.552 8 8 0 0 0 1.6 1.199q.428.243.87.459a5 5 0 0 0 .856.376.13.13 0 0 0 .126-.216 9 9 0 0 0-.648-.594c-.205-.19-.398-.395-.604-.585-.411-.38-.809-.778-1.22-1.16a3.9 3.9 0 0 1-.965-1.163 2.3 2.3 0 0 1-.181-.739c.146-.156.298-.297.437-.473 2.217-2.814 4.284-5.765 6.338-8.698q3.186-4.547 6.197-9.213c.944-1.462 1.928-2.916 2.75-4.45a11.3 11.3 0 0 0 1.485-4.174 21.6 21.6 0 0 0 5.433-4.337 48 48 0 0 0 6.479-9.059 90 90 0 0 0 4.756-9.671q1.002-2.356 1.933-4.74a47 47 0 0 0 1.651-4.498c1.078-.723 2.04-1.547 3.068-2.354a20.3 20.3 0 0 1 3.845-2.41 12 12 0 0 1 8.714-.82 11.53 11.53 0 0 1 5.652 4.616 21.7 21.7 0 0 1 3.465 7.131c.661 2.822.03 5.752-.814 8.462a60 60 0 0 1-2.988 7.627 95.3 95.3 0 0 1-8.192 13.904c-1.553 2.23-3.179 4.41-4.83 6.567a22.3 22.3 0 0 1-5.349 5.52.184.184 0 0 0 .142.336 6 6 0 0 0 .988-.36c-.165.391-.31.785-.467 1.12q-.757 1.632-1.614 3.213a89 89 0 0 1-3.63 6.1 163 163 0 0 1-4.025 5.881q-1.048 1.474-2.11 2.938c-.102.142-.222.267-.334.4q.164.22.306.455a2.5 2.5 0 0 1 .284.34 2 2 0 0 1 .107.243c.617-.778 1.171-1.61 1.746-2.42a247 247 0 0 0 3.062-4.406c-.261.91-.489 1.828-.67 2.756a30 30 0 0 0-.562 5.22 20 20 0 0 0 .728 5.24.122.122 0 0 0 .238-.033c-.051-1.73.068-3.476.12-5.207a35.5 35.5 0 0 1 .502-5.05 32.6 32.6 0 0 1 1.269-4.949c.115-.336.24-.669.365-1.002.475-.746.944-1.496 1.399-2.255a66 66 0 0 0 2.792-5.144c.425-.877.834-1.764 1.209-2.664a8.3 8.3 0 0 0 .534-1.524 24.7 24.7 0 0 0 4.356-4.79 139 139 0 0 0 5.755-7.722 80.6 80.6 0 0 0 8.357-15.11c.209-.506.41-1.021.61-1.536a.14.14 0 0 0 .14.011c1.715-.758 3.3-1.572 5.227-1.521a9.2 9.2 0 0 1 5.327 1.91c3.048 2.377 4.44 6.3 5.193 9.955a44.5 44.5 0 0 1 .71 13.068 39.8 39.8 0 0 1-3.428 12.681c-.9 2-1.847 3.98-2.716 5.994a45 45 0 0 0-1.148 2.895q-.1.282-.21.58a10 10 0 0 0-.16-1.427c-.03-.157-.24-.125-.286 0a21.8 21.8 0 0 0-.949 5.118q-.298 2.637-.689 5.261-.69 4.627-1.657 9.206a34.4 34.4 0 0 1-2.563 8.457 23 23 0 0 1-3.233 4.7c.179.01.36.003.537.023a8 8 0 0 1 .81.14 21.4 21.4 0 0 0 3.378-5.233 42.2 42.2 0 0 0 2.43-8.719q.974-4.76 1.65-9.577.331-2.366.594-4.74.03-.292.055-.585a.25.25 0 0 0 .081-.104l.011.01a6.6 6.6 0 0 0 .685-1.717q.31-.947.68-1.872c.491-1.233 1.058-2.435 1.64-3.628 1.112-2.282 2.313-4.512 3.24-6.883a39.9 39.9 0 0 0 2.621-13.745 41 41 0 0 0-1.714-13.216" opacity=".51"/><path fill="currentColor" d="M268.835 150.942a12.56 12.56 0 0 0-2.855-6.976 21.2 21.2 0 0 0-6.792-4.736c-2.792-1.42-5.58-2.671-8.768-2.72a66 66 0 0 0-9.18.876 112 112 0 0 0-17.691 3.375 59 59 0 0 0-8.415 3.16 62 62 0 0 0-8.07 4.68c-2.999 2.005-6.02 4.039-8.93 6.21a17.22 17.22 0 0 0-10.847-2.855 3.2 3.2 0 0 0-1.312.333 2 2 0 0 0-.02-.355 5.2 5.2 0 0 0-.657-1.678 15.6 15.6 0 0 0-1.929-2.718 38 38 0 0 0-5.561-4.88 44.6 44.6 0 0 1-5.62-5.06c-1.464-1.6-2.693-3.415-4.204-4.973a11.2 11.2 0 0 0-2.69-2.134 7.8 7.8 0 0 0-1.586-.696 42 42 0 0 0-.804-1.788 27.2 27.2 0 0 0-4.408-6.019c-3.488-3.94-7.539-7.317-11.281-11.003a56 56 0 0 1-5.283-5.772 21.6 21.6 0 0 0-4.793-5.142c-2.132-1.431-4.685-1.6-7.133-2.077a22.3 22.3 0 0 1-6.447-2.47c-2.26-1.24-4.414-2.66-6.683-3.884-.49-.265-.987-.515-1.488-.76a7.2 7.2 0 0 0-1.074-1.087c-.56-.427-1.134-.837-1.694-1.267-1.087-.835-2.164-1.686-3.301-2.454a16.5 16.5 0 0 0-3.405-1.812 5.87 5.87 0 0 0-3.181-.561 14.8 14.8 0 0 0-4.478-1.542 9.98 9.98 0 0 0-8.735 3.08 17.7 17.7 0 0 0-4.263 9.33 31 31 0 0 0-.192 1.223 69 69 0 0 0-3.946-3.198 18 18 0 0 0-2.185-2.903 31 31 0 0 0-4.155-3.832 29.4 29.4 0 0 0-10.113-5.105 17 17 0 0 0-2.787-.626c-4.126-1.508-8.607-1.863-12.54.537-4.098 2.501-6.195 6.924-6.617 11.531l-.162-.082a11.4 11.4 0 0 0-1.519-.66 6.7 6.7 0 0 0-1.834-.37 13 13 0 0 0-1.732-.814 14.67 14.67 0 0 0-8.084-.572 16.37 16.37 0 0 0-11.865 10.44 19.87 19.87 0 0 0-.26 12.586 6.86 6.86 0 0 0-3.09-.653 10.9 10.9 0 0 0-6.16 2.44 21.1 21.1 0 0 0-4.98 5.004 17.7 17.7 0 0 0-2.523 6.81c-.94 5.24-.451 10.57.367 15.79a25.7 25.7 0 0 0 1.736 7.025c1.024 2.18 3.053 3.625 4.048 5.829a39 39 0 0 1 1.412 4.005q.695 2.134 1.356 4.278c.452 1.466.862 2.958 1.418 4.39.07.178.151.353.228.529.12 1.826.222 3.642.482 5.459a80.4 80.4 0 0 0 2.48 11.84 17.6 17.6 0 0 0 2.216 4.946 24.4 24.4 0 0 0 3.976 4.036c2.945 2.672 5.194 6.104 7.585 9.256a178 178 0 0 0 4.414 5.62c1.195 1.45 2.478 2.82 3.758 4.192a18 18 0 0 0 3.563 4.13 42.3 42.3 0 0 0 6.5 4.291 33 33 0 0 0 7.822 3.648 34 34 0 0 0 9.318.628 58 58 0 0 0 9.2-1.069 87.3 87.3 0 0 0 16.508-5.413c1.456-.607 2.879-1.299 4.316-1.95a46 46 0 0 1 4.453-1.657 79 79 0 0 1 8.39-2.258c3.226 1.158 6.465 2.262 9.75 3.26a160 160 0 0 0 25.303 5.846 69.7 69.7 0 0 0 25.149-.766 53.6 53.6 0 0 0 21.644-10.86c3.318-2.723 6.336-5.798 9.877-8.246 3.452-2.387 7.244-4.13 10.859-6.239.845-.493 1.642-1.069 2.457-1.612a27 27 0 0 1 3.08-1.197c2.502-.783 5.045-1.383 7.61-1.921 2.574-.54 5.159-1.06 7.67-1.854a47.3 47.3 0 0 0 7.79-3.299 82.3 82.3 0 0 0 14.073-9.818 236 236 0 0 0 6.524-5.665 53.5 53.5 0 0 0 5.904-6.006c3.332-4.111 5.639-9.148 5.086-14.55m-71.362 4.359c-.363.275-.713.566-1.072.846a5 5 0 0 0-.053-1.153q.562.152 1.125.307m-3.257.635a13 13 0 0 0-.126-1.522c.659.156 1.313.326 1.967.501l.005.105q.027.37.028.74c.002.215-.009.432-.019.648q-1.03.813-2.038 1.651a8 8 0 0 0 .183-2.123m-88.291-70.69a19.5 19.5 0 0 1 3.325 1.927c1.043.73 2.04 1.523 3.05 2.298l.301.234a10 10 0 0 0-1.397-.38q-1.704-1.245-3.434-2.456c-1-.697-2.032-1.411-3.1-2.074a11 11 0 0 1 1.255.451M69.6 83.542a31.1 31.1 0 0 1 8.35 6.319q.504.543.982 1.109-1.225-.889-2.455-1.763c-2.91-2.072-5.78-4.227-8.79-6.155a34 34 0 0 0-2.012-1.195 31 31 0 0 1 3.925 1.685m-27.383 9.347c.145.08.292.176.44.267-.01.249-.02.497-.021.746a9.5 9.5 0 0 0-1.45-1.49 11 11 0 0 1 1.031.477m221.527 69.699c-3.094 4.505-7.505 8.067-11.615 11.603a95.3 95.3 0 0 1-13.36 9.94 49 49 0 0 1-7.375 3.633 51 51 0 0 1-7.57 2.173c-4.407.957-9.181 1.652-13.134 3.978a4.3 4.3 0 0 0-1.06.395c-.433.24-.865.482-1.29.736q-.6.36-1.178.755a5 5 0 0 0-.394.32q-.732.312-1.454.645a58 58 0 0 0-5.468 2.95 67 67 0 0 0-10.081 7.74 63.3 63.3 0 0 1-9.784 7.356 50.3 50.3 0 0 1-11.103 4.905 64.1 64.1 0 0 1-24.908 1.909 141 141 0 0 1-25.157-5.302c-4.296-1.248-8.535-2.665-12.797-4.023-4.012-1.279-8.136-2.83-12.388-3.004a22 22 0 0 0-3.257.142.059.059 0 0 0 0 .117c4.398.216 8.622 1.719 12.71 3.228.642.237 1.285.468 1.927.701-4.854.353-9.508 2.059-14.132 3.52-2.664.84-5.232 1.935-7.846 2.917a79 79 0 0 1-7.886 2.57A53.7 53.7 0 0 1 57.2 224.12a16 16 0 0 1-4.35-.932 33 33 0 0 1-3.823-1.878 68 68 0 0 1-6.689-3.957 25.5 25.5 0 0 1-6.338-5.77 32.5 32.5 0 0 1-2.26-4.035 91 91 0 0 0-2.358-4.242c-.016-.027-.052-.003-.04.024.693 1.616 1.274 3.26 1.926 4.878a127 127 0 0 0-2.972-4.097l-3.744-4.934c-1.174-1.547-2.331-3.115-3.653-4.54-1.257-1.357-2.746-2.46-4.034-3.782a12.6 12.6 0 0 1-2.752-4.626 69 69 0 0 1-2.685-11.497c-.192-1.108-.324-2.232-.539-3.335q-.057-.284-.117-.567a45 45 0 0 0-.942-5.075 36 36 0 0 0-.902-4.477.059.059 0 0 0-.116.016c-.02.319-.02.637-.025.956-.54-1.738-1.076-3.477-1.648-5.204a26 26 0 0 0-1.221-3.19 12.4 12.4 0 0 0-1.929-2.748 12 12 0 0 1-1.933-2.69 13.7 13.7 0 0 1-.978-3.092 57.7 57.7 0 0 1-1.422-14.765 26 26 0 0 1 1.245-7.09 14.1 14.1 0 0 1 3.682-5.63 14.94 14.94 0 0 1 6.126-3.962 6.77 6.77 0 0 1 5.13.657c.088.25.188.496.282.744a7 7 0 0 0-.665-.334 14 14 0 0 0-3.81-.865c-.035-.005-.042.053-.008.061a15.5 15.5 0 0 1 3.577 1.122 7 7 0 0 1 1.205.792q.278.676.584 1.34c2.725 5.86 6.96 10.815 10.34 16.283 1.164 1.88 2.25 3.82 3.472 5.666.37.921.72 1.847 1.027 2.773a10.7 10.7 0 0 0 .759 1.997 21 21 0 0 0 1.483 2.05 37 37 0 0 0 2.707 3.203 67 67 0 0 0 2.93 6.26 17.3 17.3 0 0 0 2.444 3.39 8 8 0 0 0 .34 1.086 17 17 0 0 1 .464 2.049 17.2 17.2 0 0 1 .092 4.363 30.8 30.8 0 0 1-2.277 8.303c-.07.177.19.25.286.12a17.4 17.4 0 0 0 3.36-8.423q.063-.59.077-1.188a14 14 0 0 1 3.13.886 11.2 11.2 0 0 0-2.563 3.3c-.065.128.076.31.214.214a27 27 0 0 1 2.356-1.567 68 68 0 0 0 2.508-1.462 26.2 26.2 0 0 1 5.064-2.529 29 29 0 0 1 6.47-1.364c2.308-.241 4.637-.535 6.959-.581a.023.023 0 0 0 0-.047 53 53 0 0 0-7.198-.237 39 39 0 0 0-6.762 1.064c-.195.05-.393.11-.59.163-.439.087-.879.154-1.323.232-.621.108-1.23.278-1.856.351a6 6 0 0 1-.736-.01c-.108 0-.379.111-.505.06-.26-.107-.423-.483-.555-.711a8.2 8.2 0 0 0-1.697-2.171c-.71-.62-1.498-1.14-2.262-1.69-3.41-2.452-5.204-6.626-6.989-10.294-.562-1.155-1.13-2.31-1.685-3.469q-.057-.12-.113-.243a8.7 8.7 0 0 0 2.454.858.232.232 0 0 0 .178-.421c-.984-.686-1.865-1.52-2.789-2.282a19 19 0 0 1-2.514-2.567 49 49 0 0 1-4.132-6.184c-3.039-5.062-6.775-9.675-9.715-14.794-2.805-4.884-4.877-10.633-3.759-16.324 1-5.088 4.306-9.763 9.244-11.659a14 14 0 0 1 8.44-.572 12.9 12.9 0 0 1 3.957 1.8 18 18 0 0 1 1.773 1.355q.454.394.89.808a2 2 0 0 0 .295.216c.022.286.044.572.079.856.85 7.026 4.779 13.046 8.417 18.93l3.272 5.294a39.5 39.5 0 0 0 3.206 4.9 11.2 11.2 0 0 0 3.976 2.88q.587.264 1.19.487a14.2 14.2 0 0 0 1.85 4.3c.892 1.583 1.858 3.125 2.798 4.68 1.959 3.237 3.968 6.445 5.96 9.662 1.582 2.555 2.988 5.517 5.47 7.3q.053.18.1.36a5.8 5.8 0 0 1 .177 1.306 6 6 0 0 1-.027.718c-.01.107-.033.216-.052.325a6.8 6.8 0 0 0-1.215 1.157 13 13 0 0 0-1.455 2.45c-.035.071.058.16.116.09a16 16 0 0 1 1.802-1.776 16.4 16.4 0 0 1 2.07-1.629 8.4 8.4 0 0 1 2.42-1.039c.161-.039.323-.066.486-.093a38 38 0 0 0 5.41.745c3.749.32 7.741.439 11.21-1.248.143-.07.04-.284-.106-.25a29.8 29.8 0 0 1-9.976.397c-2.866-.314-6.004-.632-8.598-1.986-2.909-1.52-4.383-4.62-6.064-7.288-1.907-3.03-3.793-6.073-5.731-9.083-1.061-1.648-2.144-3.285-3.177-4.95a54 54 0 0 1-1.369-2.368c-.243-.442-.46-.905-.685-1.362.797.18 1.614.255 2.423.364.221.03.415-.28.169-.4-1.273-.624-2.53-1.256-3.817-1.853a12.7 12.7 0 0 1-3.538-2.282 19 19 0 0 1-2.722-3.842l-2.745-4.448c-3.462-5.608-7.485-11.259-9.105-17.74-1.395-5.589-.634-12.028 3.98-15.947 4.92-4.18 11.663-2.226 16.635.747 3.203 1.916 6.197 4.2 9.245 6.35a110 110 0 0 0 9.895 6.493.43.43 0 0 0 .286.045 31.1 31.1 0 0 0 .307 8.877 25.5 25.5 0 0 0 3.98 10.13 38.6 38.6 0 0 0 7.55 7.541 19.4 19.4 0 0 0 4.396 2.799c.172.074.35.13.524.198q.037.03.072.062.468.415.9.867.421.442.811.913.187.225.362.458l.181.245a.7.7 0 0 0 .114.116 4 4 0 0 0 .201.4c.82 1.395 1.865 2.684 2.806 3.998.984 1.374 2.041 2.695 3.07 4.035.112.147.232.293.346.44 1.012 1.648 1.957 3.332 2.964 4.991.299.493.622.977.97 1.442a8.5 8.5 0 0 1 .097 1.217 3.05 3.05 0 0 1-.881 2.545.333.333 0 0 0 .233.563 1.56 1.56 0 0 1 .78.104.326.326 0 0 0 .395-.224c.2-.551.41-1.1.617-1.647a3 3 0 0 1 .215-.46q.19-.112.383-.22a15 15 0 0 0 2.926 1.714 35.4 35.4 0 0 0 7.876 2.526 16.96 16.96 0 0 0 9.015-.434.023.023 0 0 0-.012-.045c-5.451.826-10.756-.835-15.65-3.104a14.8 14.8 0 0 1-3.194-1.873 11 11 0 0 1-2.396-2.907c-1.364-2.254-2.678-4.497-4.231-6.633a52 52 0 0 0-4.158-5.03l-.547-.76a5 5 0 0 1-.295-.642 3.2 3.2 0 0 1-.197-1.299 3 3 0 0 1 .062-.409c.206.026.411.062.619.08a18.2 18.2 0 0 0 10.73-2.704 20.6 20.6 0 0 0 4.108-3.252 25 25 0 0 0 3.21-4.34c.027-.043-.038-.078-.068-.039a31.2 31.2 0 0 1-6.897 6.282 17.45 17.45 0 0 1-8.774 2.82 15.14 15.14 0 0 1-9.287-2.61 42 42 0 0 1-3.839-3.111 39 39 0 0 1-3.595-3.523c-4.552-5.184-6.165-12.6-5.582-19.352.014-.157.034-.316.05-.474l.045.022c.018.01.034-.017.016-.027l-.057-.03a20.5 20.5 0 0 1 2.806-9.01 9.37 9.37 0 0 1 7.601-4.613c3.737-.015 6.988 2.361 9.912 4.414a157 157 0 0 0 5.146 3.474c1.808 1.165 3.686 2.2 5.55 3.273.13.074.289-.113.166-.215-1.24-1.03-2.469-2.069-3.731-3.068a32 32 0 0 1 1.948 1.058c1.969 1.168 3.84 2.49 5.789 3.69a30.6 30.6 0 0 0 5.989 2.974c2.314.8 4.803.844 7.11 1.648 2.213.771 3.768 2.572 5.15 4.382 1.55 2.03 3.14 3.995 4.863 5.882 3.48 3.812 7.54 7.058 11.11 10.787a54 54 0 0 1 5.094 6.228 31.3 31.3 0 0 1 4.148 7.18.156.156 0 0 0 .302-.082 32 32 0 0 0-.885-3.57c-.011-.038-.028-.072-.04-.109.142.091.285.18.42.282a14.4 14.4 0 0 1 2.057 1.935c1.351 1.53 2.533 3.192 3.856 4.744a36.7 36.7 0 0 0 5.122 4.913 64 64 0 0 1 5.502 4.551 15.7 15.7 0 0 1 2.228 2.721c.321.508.595 1.041.865 1.577a5 5 0 0 0 .763 1.032c-.057.064-.117.113-.172.182-.643.805-1.273 1.622-1.903 2.437-.35.453-.692.912-1.038 1.369.04-.213.084-.425.122-.636a19.4 19.4 0 0 0 .386-5.105c-.003-.028-.05-.04-.054-.007-.226 1.679-.305 3.361-.617 5.033-.082.439-.18.873-.285 1.305a113 113 0 0 0-2.276 3.124c-.202.288-.39.586-.588.877q.19-1.026.355-2.051c.374-2.325.6-4.661.75-7.01.001-.018-.025-.017-.027 0-.26 2.4-.633 4.79-1.068 7.164a93 93 0 0 1-.547 2.7 54.3 54.3 0 0 0-4.98 9.152c-1.667 4.026-2.493 8.381-4.417 12.303a24 24 0 0 1-1.555 2.751 16 16 0 0 1-1.896 2.528 13 13 0 0 1-1.205 1.046 15.6 15.6 0 0 0 2.566-3.958 95 95 0 0 0 3.896-11.268c.01-.032-.038-.043-.05-.014-.726 1.817-1.495 3.613-2.188 5.444-.647 1.71-1.27 3.436-2.068 5.082a16.5 16.5 0 0 1-2.766 4.18 12.2 12.2 0 0 1-3.893 2.941c-.013.006-.018.017-.027.026l-.395.135c-.024.008-.014.045.01.038l.355-.105a.08.08 0 0 0 .105.08 9.2 9.2 0 0 0 2.168-.78 14 14 0 0 0 2.965-1.321 13.4 13.4 0 0 0 3.826-3.575c2.38-3.317 3.443-7.362 4.69-11.191a50 50 0 0 1 5.356-11.319 117 117 0 0 1 7.257-9.945c.286-.361.562-.831 1.03-.962a6.1 6.1 0 0 1 1.715-.042 24.4 24.4 0 0 1 3.415.35c.638.113 1.27.25 1.898.396.019.519.035 1.038.02 1.56-.02.763-.13 1.536-.111 2.301a58 58 0 0 0-1.808 1.578q-.034.034-.07.067a53 53 0 0 0 .196-5.297.008.008 0 0 0-.016 0 52 52 0 0 0-.256 5.373c-1.064.989-2.055 2.058-3.055 3.113a.059.059 0 0 0 .083.082 71 71 0 0 1 7.393-5.245c2.578-1.688 5.163-3.362 7.703-5.107 4.996-3.432 9.998-6.756 15.706-8.896a83.4 83.4 0 0 1 16.879-4.098c2.879-.435 5.77-.783 8.662-1.113 3.06-.35 6.087-.727 9.064.297a31 31 0 0 1 4.058 1.85 37 37 0 0 1 3.497 1.977 11.17 11.17 0 0 1 4.61 5.656c1.666 4.84.068 10.043-2.728 14.114"/><path fill="currentColor" d="M166.383 154.643c.008-.066-.103-.08-.115-.016a12.47 12.47 0 0 1-5.338 7.482c-1.412.962-2.968 1.699-4.452 2.54-1.467.83-2.985 1.58-4.425 2.456-2.735 1.662-5.251 3.695-7.878 5.517-2.625 1.82-5.253 3.64-7.993 5.286a52.8 52.8 0 0 1-9.736 4.794.078.078 0 0 0 .041.15 36.8 36.8 0 0 0 9.186-3.539c2.891-1.58 5.646-3.39 8.397-5.199a84 84 0 0 1 8.513-5.063c1.59-.796 3.144-1.713 4.684-2.607a87 87 0 0 1-6.345 5.09c-1.804 1.311-3.672 2.525-5.543 3.738-1.905 1.234-3.749 2.553-5.669 3.765a.082.082 0 0 0 .083.142c2.066-1.014 4.168-1.982 6.14-3.176a74 74 0 0 0 5.716-3.861 59 59 0 0 0 5.214-4.313 32 32 0 0 0 2.735-2.957 24 24 0 0 0 1.935-1.661c2.475-2.361 4.424-5.095 4.85-8.568M12.935 152.59c-1.097-.401-2.222-.72-3.32-1.12a48 48 0 0 1-3.346-1.353c-.04-.019-.076.04-.035.06a35 35 0 0 0 3.214 1.43 20.6 20.6 0 0 0 3.464 1.065.043.043 0 0 0 .023-.083m5.602-.266a19 19 0 0 0-2.255-.557c-.702-.162-1.403-.323-2.102-.497q-2.175-.543-4.317-1.204c-.014-.005-.02.017-.006.022q2.164.73 4.365 1.342c.72.2 1.442.393 2.17.564a12.6 12.6 0 0 0 2.134.406c.047.003.05-.062.01-.076m.853-1.374c-1.212-.388-2.473-.639-3.692-1.01q-1.83-.559-3.62-1.239c-.004-.001-.006.006-.001.008q1.776.72 3.595 1.323a27 27 0 0 0 3.678 1.06.074.074 0 0 0 .04-.142m2.554.419c-.164-.06-.337-.101-.505-.151l-.506-.15c-.039-.012-.054.046-.016.06l.496.184c.165.061.329.131.497.183a.07.07 0 0 0 .063-.017.05.05 0 0 0 .02-.046.07.07 0 0 0-.049-.063m.172-2.338-.68-.003a.027.027 0 0 0 0 .055l.68-.004a.023.023 0 0 0 0-.047m20.703-4.436c-.828-.53-1.78-.879-2.648-1.342-.875-.468-1.73-.968-2.592-1.46-.03-.017-.066.026-.038.049a17.7 17.7 0 0 0 2.501 1.63 11 11 0 0 0 2.735 1.223.055.055 0 0 0 .042-.1m2.924-.595a7 7 0 0 0-1.673-.597q-.868-.28-1.718-.61a51 51 0 0 1-3.507-1.492.012.012 0 0 0-.012.02 23 23 0 0 0 3.329 1.692q.875.352 1.772.647a5.1 5.1 0 0 0 1.787.42.043.043 0 0 0 .022-.08m2.457-.91c-.364-.313-1.037-.265-1.493-.361a10 10 0 0 1-1.653-.518 43 43 0 0 1-3.26-1.443.025.025 0 0 0-.026.044 15.6 15.6 0 0 0 3.148 1.467c.549.18 1.103.344 1.649.53.292.1.58.214.873.308a1.23 1.23 0 0 0 .73.09.07.07 0 0 0 .032-.117m-1.945-2.073c-.026-.008-.037.033-.011.042a21.4 21.4 0 0 0 3.704 1c.022.003.032-.029.01-.034-1.247-.3-2.487-.596-3.703-1.008m6.563.512c-.19-.006-.383.006-.574.01a.025.025 0 0 0 0 .051c.19.004.384.017.574.011.192-.006.384-.01.575-.022a.014.014 0 0 0 0-.028q-.287-.015-.575-.022m4.283-1.504c-.137.017-.271.059-.407.082q-.2.038-.4.07a8 8 0 0 1-.859.082.031.031 0 0 0 0 .063 4 4 0 0 0 .858-.03 3 3 0 0 0 .428-.087 2 2 0 0 0 .392-.133c.022-.01.013-.05-.013-.047M20.847 103.27a.022.022 0 0 0-.041-.012 20.5 20.5 0 0 0-.637 8.444c.007.042.073.031.072-.01-.013-1.387-.071-2.773.005-4.16a26 26 0 0 1 .601-4.262m1.611-1.542a67 67 0 0 0-1.05 13.284.033.033 0 0 0 .066 0c.208-4.444.41-8.865 1.002-13.279.002-.012-.016-.018-.018-.005m.887 2.042c.003-.028-.04-.027-.043 0a63 63 0 0 0-.1 15.848c.004.03.056.024.054-.007a95.7 95.7 0 0 1 .089-15.841m1.185 10.762a67 67 0 0 1 .237-9.213c.001-.013-.018-.012-.02 0a67.5 67.5 0 0 0-.402 9.334 41 41 0 0 0 1.013 9.056c.008.033.065.027.061-.008-.279-3.063-.755-6.091-.889-9.17m1.82 1.193a49.5 49.5 0 0 1 .21-8.871c.002-.015-.022-.015-.023 0a49.5 49.5 0 0 0-.313 9.108 37 37 0 0 0 1.42 8.776.031.031 0 0 0 .06-.017 75 75 0 0 1-1.353-8.996m2.709 4.096a60 60 0 0 1-.512-3.307q-.395-3.098-.483-6.223a.012.012 0 0 0-.023 0q.06 3.18.428 6.342.17 1.438.406 2.867a16 16 0 0 0 .666 3.168c.008.021.044.02.042-.005a25 25 0 0 0-.525-2.842m1.208 6.18-.156-.566-.307-1.11a.008.008 0 0 0-.015.003l.277 1.12.136.548a3.3 3.3 0 0 0 .154.525.016.016 0 0 0 .03-.007 3 3 0 0 0-.119-.514m.859-4.099q-.678-2.78-1.083-5.614c0-.005-.008-.003-.008.002q.387 2.836 1.037 5.627a38.4 38.4 0 0 0 1.598 5.492c.015.036.072.023.06-.017-.526-1.835-1.151-3.631-1.604-5.49m2.261 1.909c-.003-.01-.018-.006-.015.004a18 18 0 0 0 1.766 4.092.012.012 0 0 0 .02-.012 23 23 0 0 1-1.77-4.084m3.493 2.172-.32-.393c-.017-.021-.048.01-.03.03l.32.382c.107.126.21.257.323.38.008.01.026-.004.018-.015-.099-.131-.207-.256-.311-.384m2.979.399a.248.248 0 0 0 0 .497.248.248 0 0 0 0-.496m7.606-30.912a37 37 0 0 0-.617 6.521.016.016 0 0 0 .031 0 57 57 0 0 1 .628-6.51c.004-.027-.037-.039-.042-.011m2.208.261a35 35 0 0 0-1.149 7.792c0 .015.023.015.023 0a43.5 43.5 0 0 1 1.14-7.787.008.008 0 0 0-.014-.004m2.402-1.154a57.6 57.6 0 0 0-1.432 13.03.018.018 0 0 0 .036 0 84.5 84.5 0 0 1 1.433-13.02c.005-.025-.032-.035-.037-.01m2.219.903a66 66 0 0 0-1.25 8.303c-.001.018.026.017.028 0 .363-2.773.746-5.543 1.264-8.291.005-.027-.036-.04-.042-.012m-1.482 12.288a18 18 0 0 1 .165-2.08c0-.005-.007-.006-.008-.001a29 29 0 0 0-.308 3.086 2.6 2.6 0 0 0 .06 1.014.037.037 0 0 0 .072 0 3.2 3.2 0 0 0 .028-.974 17 17 0 0 1-.01-1.045m3.6-8.34a71 71 0 0 0-1.154 6.866 46 46 0 0 0-.434 7.186.023.023 0 0 0 .047 0c.161-2.316.19-4.63.439-6.943q.385-3.579 1.114-7.106c.001-.008-.01-.01-.012-.003m2.269.914a68 68 0 0 0-1.285 8.513 48.3 48.3 0 0 0-.13 8.84.025.025 0 0 0 .051 0c.041-2.874-.041-5.727.18-8.598a73 73 0 0 1 1.203-8.75c.003-.012-.016-.018-.019-.005m.741 12.022a67.5 67.5 0 0 1 1.01-10.114c.002-.012-.017-.018-.02-.005a69 69 0 0 0-1.094 9.998 50.5 50.5 0 0 0 .477 10.046c.004.021.04.017.038-.005-.227-3.312-.488-6.596-.411-9.92m1.741 7.326a35 35 0 0 1-.031-4.171c0-.02-.03-.02-.032 0a35 35 0 0 0-.007 4.251 19.4 19.4 0 0 0 .53 4.064c.005.02.04.018.038-.005-.124-1.384-.403-2.748-.498-4.139m1.677 1.32c-.003-.014-.026-.008-.023.007a25 25 0 0 0 .785 3.57.014.014 0 0 0 .026-.007c-.281-1.187-.579-2.367-.789-3.57m6.391 5.606c-.02-.01-.039.02-.018.03.255.128.51.258.77.375.016.007.03-.015.014-.023-.252-.135-.51-.257-.767-.382m7.039.61a11 11 0 0 0-1.68-.727c-.586-.221-1.17-.444-1.758-.658l-.243-.088a.06.06 0 0 0-.021-.055.7.7 0 0 0-.269-.074c-.018-.004-.038.005-.057.003l-3-1.091c-.01-.003-.013.011-.004.015l2.686 1.117a.5.5 0 0 0-.23.17.5.5 0 0 0-.062.13c-.007.022-.02.042-.027.064-.008.023-.01.045-.02.068-.026.074.079.104.119.05l.04-.037a.2.2 0 0 1 .037-.03l.007-.003.025-.01.02-.012.053-.028c.075-.036.142-.089.216-.128l.107-.055c.002-.002.024-.014.01-.007l.028-.01.036-.012.434.18q.837.347 1.68.681a12 12 0 0 0 1.832.644.053.053 0 0 0 .04-.097m-58.862 51.338c-.028-.012-.052.028-.024.04a23.8 23.8 0 0 0 6.525 1.891c.02.003.024-.031.005-.034a29 29 0 0 1-6.506-1.897m8.79.449a10.6 10.6 0 0 0-1.623-.517c-.542-.157-1.086-.31-1.628-.468q-1.69-.492-3.374-1.002c-.021-.006-.03.027-.009.034q1.673.547 3.354 1.072.81.253 1.62.499a10 10 0 0 0 1.646.433c.027.004.037-.04.014-.05m3.104.1q-.222-.055-.445-.1c-.288-.062-.579-.11-.867-.167a.018.018 0 0 0-.01.034c.282.083.561.175.843.254q.22.063.44.117c.059.014.263.1.29-.001.026-.103-.191-.122-.251-.137m3.546-1.313c-1.557-.322-3.136-.52-4.691-.855a50 50 0 0 1-4.615-1.227c-.017-.005-.024.02-.007.026a39 39 0 0 0 4.658 1.4 22.8 22.8 0 0 0 4.648.702.024.024 0 0 0 .007-.046m2.427-2.052a10 10 0 0 0-1.935-.254 80 80 0 0 1-2.226-.286 88 88 0 0 1-4.144-.71c-.012-.002-.017.016-.005.02q2.085.485 4.198.818.966.153 1.936.28a8.8 8.8 0 0 0 2.169.185.027.027 0 0 0 .007-.053m2.561-1.413a5.4 5.4 0 0 0-1.283-.184c-.439-.04-.877-.087-1.315-.128a60 60 0 0 1-2.772-.316c-.027-.004-.04.036-.012.041.917.17 1.835.337 2.756.48.429.066.86.118 1.29.172a5 5 0 0 0 1.336.067c.073-.012.057-.112 0-.132m.631-2.163a3.5 3.5 0 0 0-.947-.056q-.488.025-.976.073a.014.014 0 0 0 0 .027q.487.048.976.072a3.5 3.5 0 0 0 .947-.056.031.031 0 0 0 0-.06m1.775-1.779q-.056.015-.113.026l-.054.009c-.022.002-.042-.002-.064.002-.071.01-.143.028-.214.043a1.4 1.4 0 0 1-.443.018c-.051-.007-.06.075-.012.088a1.5 1.5 0 0 0 .477.053.7.7 0 0 0 .24-.05c.035-.017.07-.042.104-.063l.103-.069a.031.031 0 0 0-.024-.057m1.476-1.543a.3.3 0 0 0-.069-.01.6.6 0 0 0-.147.017.6.6 0 0 0-.252.136c-.02.02.01.049.03.03a.53.53 0 0 1 .365-.125l.062.002.07.007a.018.018 0 0 0 .008-.033.2.2 0 0 0-.067-.024m12.73-7.823a49.6 49.6 0 0 1-7.41-3.676c-.034-.022-.063.031-.031.054a21.4 21.4 0 0 0 7.41 3.693c.041.01.073-.053.03-.071m4.931.383c-1.564-.65-3.203-1.111-4.776-1.744a49 49 0 0 1-4.745-2.208.018.018 0 0 0-.018.03 43 43 0 0 0 4.684 2.365 22 22 0 0 0 4.84 1.614.03.03 0 0 0 .015-.057m4.491.046c-1.56-.557-3.157-.997-4.71-1.58a51 51 0 0 1-4.704-2.045c-.03-.014-.055.03-.026.044q2.218 1.133 4.535 2.055a29 29 0 0 0 4.889 1.586.031.031 0 0 0 .016-.06m-1.088-1.744q-2.177-.811-4.292-1.781c-.009-.004-.017.01-.007.014a52 52 0 0 0 4.128 1.787 28 28 0 0 0 4.423 1.44.018.018 0 0 0 .01-.033c-1.398-.533-2.858-.905-4.262-1.427m6.449.472c-.754-.27-1.537-.454-2.292-.724q-1.168-.418-2.293-.947c-.029-.014-.055.03-.025.044q1.088.52 2.22.94a13.6 13.6 0 0 0 2.378.728.022.022 0 0 0 .012-.041m.256-1.92a.035.035 0 0 0-.018.068c.426.127.85.254 1.282.363a.014.014 0 0 0 .007-.027c-.42-.147-.845-.275-1.27-.404m3.136-.413-.084-.025a1 1 0 0 0-.171-.033l-.336-.032c-.028-.002-.03.038-.007.046l.32.11a1 1 0 0 0 .158.037l.088.012a.2.2 0 0 0 .086-.01.036.036 0 0 0 .016-.06.2.2 0 0 0-.07-.045m19.59-4.202a52 52 0 0 1-8.412-2.57c-.016-.007-.028.021-.012.028a32.6 32.6 0 0 0 8.411 2.592c.031.005.046-.042.013-.05m7.165.202c-3.847-1.189-7.72-2.258-11.518-3.604-.036-.012-.05.044-.016.057a81.4 81.4 0 0 0 11.521 3.593.023.023 0 0 0 .013-.046m3.166-1.274a17 17 0 0 0-2.413-.788q-1.21-.362-2.418-.732c-1.672-.509-3.347-1.009-5.015-1.53-.017-.005-.024.02-.008.026a256 256 0 0 0 4.884 1.643q1.204.386 2.41.759a16 16 0 0 0 2.527.7c.043.006.082-.055.033-.078m2.318-1.222a33 33 0 0 0-3.881-1.295c-1.347-.424-2.7-.82-4.058-1.208-.02-.006-.027.023-.009.03 1.31.458 2.622.909 3.943 1.332a33 33 0 0 0 3.98 1.202c.033.006.061-.044.025-.06m.878-2.147a15 15 0 0 0-1.8-.473q-.901-.228-1.79-.504c-.024-.007-.034.03-.01.038q.894.316 1.804.585a8 8 0 0 0 1.79.404c.03.001.03-.04.006-.05m1.946-1.577-.103-.024a3 3 0 0 0-.226-.042l-.455-.073c-.07-.011-.102.095-.03.11l.46.088q.112.022.226.037l.113.014a.3.3 0 0 0 .113-.008.032.032 0 0 0 .007-.057.3.3 0 0 0-.105-.045m-19.039-43.344c0-.015-.023-.015-.024 0a21 21 0 0 0 .117 3.575c.001.007.013.008.012 0a21 21 0 0 1-.105-3.575m2.552-7.399c.007-.041-.055-.06-.064-.018-1.067 5.409-1.46 11.347-.082 16.74.01.041.081.034.077-.01-.268-2.75-.59-5.477-.61-8.244a48 48 0 0 1 .68-8.468m2.297-1.152a112 112 0 0 0-.712 12.251.01.01 0 0 0 .02 0c.248-4.082.442-8.17.728-12.25.001-.024-.033-.023-.036 0m.375 18.552-.296-1.782a303 303 0 0 1-.567-3.503c0-.005-.008-.003-.008.002.162 1.193.312 2.388.46 3.584l.214 1.726a4.7 4.7 0 0 0 .278 1.48.04.04 0 0 0 .072-.01 4.7 4.7 0 0 0-.153-1.497m2.4.654q-.35-2.425-.509-4.871a65 65 0 0 1 .035-9.36c.002-.036-.052-.036-.055 0a62.4 62.4 0 0 0-.16 9.48q.14 2.231.44 4.449a28 28 0 0 0 .881 4.717c.016.05.102.044.096-.013-.166-1.475-.517-2.933-.728-4.402m1.915-1.291a52.5 52.5 0 0 1-.534-7.323.018.018 0 0 0-.035 0 52.5 52.5 0 0 0 .46 7.109 36.7 36.7 0 0 0 1.522 7.19.03.03 0 0 0 .057-.015c-.51-2.326-1.128-4.598-1.47-6.961m2.126-1.328c-.001-.007-.013-.007-.012 0a27.5 27.5 0 0 0 2.46 9.981c.007.016.034.005.028-.012a35.7 35.7 0 0 1-2.477-9.969m5.081 9.709q-.334-.816-.616-1.651a29 29 0 0 1-.903-3.34c-.002-.008-.013-.005-.011.002a29 29 0 0 0 .88 3.41q.263.808.574 1.6a9.7 9.7 0 0 0 .694 1.563c.017.027.064.01.053-.023-.178-.532-.459-1.04-.671-1.561m1.435-1.941c-.01-.027-.055-.016-.045.013a11.9 11.9 0 0 0 1.993 3.863c.018.022.054-.007.04-.031a28 28 0 0 1-1.988-3.845m5.053 3.186a5.8 5.8 0 0 1-1.549-1.503.016.016 0 0 0-.027.016 3.07 3.07 0 0 0 1.552 1.543c.034.015.05-.038.024-.057m17.351 24.261c-3.62-.81-7.222-1.71-10.751-2.853-.01-.003-.014.011-.004.015a61 61 0 0 0 10.74 2.89c.034.006.05-.045.015-.053m5.106-1.141c-3.285-.714-6.645-1.112-9.969-1.604-.017-.002-.025.023-.007.027 3.309.59 6.623 1.28 9.966 1.65.042.004.05-.064.01-.073m26.36-14.808c-.015-.065-.106-.036-.097.027a19.4 19.4 0 0 1-.649 7.897c-.018.064.084.11.111.046a12.77 12.77 0 0 0 .635-7.97m-1.965-1.715a1.93 1.93 0 0 0-.317-.991.08.08 0 0 0-.123.015 2 2 0 0 0-.095.957c0 .435.049.855.092 1.288a24 24 0 0 1 .148 2.49 17.6 17.6 0 0 1-.248 2.642c-.123.783-.343 1.56-.405 2.35a.03.03 0 0 0 .058.008 42 42 0 0 0 .784-5c.091-.861.172-1.716.182-2.582a6 6 0 0 0-.075-1.177m-2.873-2.625a.057.057 0 0 0-.109 0 6.5 6.5 0 0 0-.1 1.7c.004.632.01 1.264-.007 1.896a28 28 0 0 1-.114 1.821q-.043.454-.097.907a2.3 2.3 0 0 0-.021.854.07.07 0 0 0 .125.016 4.4 4.4 0 0 0 .315-1.707q.094-.909.153-1.821c.04-.607.07-1.217.068-1.825a5.1 5.1 0 0 0-.213-1.84m-3.276-2.799a.028.028 0 0 0 .006.05c.264.052.165.692.166.879 0 .273.013.546.015.82.004.526.01 1.052-.009 1.579-.04 1.068-.127 2.133-.176 3.2-.002.052.073.059.088.012a13 13 0 0 0 .528-3.97c0-.286 0-2.883-.618-2.57m-2.639-1.932c-.023-.048-.091-.005-.07.042a5 5 0 0 1 .385 1.897.027.027 0 0 0 .054 0 3.8 3.8 0 0 0-.37-1.938m26.948 30.666a53 53 0 0 0-.791 6.113c-.001.026.04.033.046.006.386-2.019.56-4.072.78-6.115.003-.02-.03-.024-.034-.004m-1.017 7.641q-.193.975-.397 1.946a7 7 0 0 0-.303 1.904c.003.036.06.061.077.02a7 7 0 0 0 .355-1.888q.136-.99.283-1.977c.001-.01-.013-.015-.015-.005m-1.705-9.302a468 468 0 0 0-.596 4.948l-.27 2.375-.134 1.188c-.048.428-.007 1.272-.308 1.591a.028.028 0 0 0 .026.046c.194-.063.237-.169.279-.365.087-.412.098-.854.144-1.272l.305-2.77q.315-2.87.597-5.74c.003-.029-.04-.028-.043 0m-2.888-4.477c0-.014-.024-.02-.027-.003-.187 1.18-.234 2.39-.352 3.58-.124 1.231-.292 2.464-.38 3.699a.03.03 0 0 0 .058.008 27 27 0 0 0 .535-3.565 23 23 0 0 0 .166-3.718m-2.221-2.549c-.001-.023-.036-.023-.035 0a22 22 0 0 1-.353 4.722c-.004.022.03.032.034.01a17 17 0 0 0 .354-4.732M61.824 223.753a167 167 0 0 1-18.78-8.259c-.024-.013-.046.024-.021.037a88 88 0 0 0 18.779 8.3c.051.016.07-.06.022-.078m-2.276-3.351c-4.017-2.01-8.166-3.761-12.279-5.565-.03-.013-.055.03-.026.044 4.07 1.905 8.124 3.87 12.286 5.567.026.011.045-.033.02-.046m5.571 2.048q-1.024-.393-2.029-.833c-.013-.006-.025.014-.011.02q.95.435 1.917.837a17 17 0 0 0 2.026.75c.02.005.036-.027.015-.036-.626-.276-1.278-.494-1.917-.739m6.306-.278c-1.487-.667-3.03-1.221-4.532-1.858q-2.255-.955-4.483-1.974-4.456-2.036-8.804-4.3c-.02-.011-.038.019-.018.03q4.374 2.337 8.886 4.397 2.228 1.018 4.484 1.972c1.464.619 2.934 1.287 4.441 1.794.035.012.06-.045.026-.06m3.695-.996c-2.489-1.102-5.05-2.043-7.538-3.152q-3.734-1.665-7.387-3.51c-.029-.015-.055.028-.025.043q3.663 1.943 7.44 3.652a74 74 0 0 0 7.468 3.067c.058.02.1-.074.042-.1m2.934-1.507c-.834-.378-1.737-.627-2.596-.943a81 81 0 0 1-2.55-.995q-2.71-1.102-5.313-2.442c-.03-.015-.055.028-.026.044q2.533 1.377 5.175 2.536c.815.356 1.64.687 2.472 1.004a19 19 0 0 0 2.776.942c.083.018.15-.107.062-.146m4.128-1.342c-.995-.848-2.509-.937-3.728-1.25a20 20 0 0 1-4.135-1.582c-.016-.008-.03.015-.014.024a22 22 0 0 0 3.818 1.679c.67.222 1.352.403 2.032.59.667.184 1.31.438 1.974.63.05.015.095-.055.053-.09m3.625-1.538c-1.117-.419-2.28-.71-3.428-1.029s-2.298-.636-3.45-.942a.014.014 0 0 0-.008.026c1.125.4 2.262.765 3.405 1.107a28 28 0 0 0 3.468.883.023.023 0 0 0 .013-.045m-.634-2.19a.01.01 0 0 0-.005.02 36 36 0 0 0 2.682.761.018.018 0 0 0 .01-.034 36 36 0 0 0-2.687-.746m7.281-.041a18 18 0 0 1-2.028-.279.022.022 0 0 0-.011.042 3.9 3.9 0 0 0 2.048.301c.04-.006.025-.06-.01-.065m-7.644-27.091c-1.3-.52-2.633-.943-3.919-1.508a31 31 0 0 1-3.638-1.87c-.022-.012-.04.02-.02.034a25 25 0 0 0 3.662 2.098 16.2 16.2 0 0 0 3.894 1.325.041.041 0 0 0 .021-.08m5.867.423c-3.667-1.734-7.43-3.256-11.083-5.027-.029-.014-.055.03-.025.044a105 105 0 0 0 11.093 5.019c.02.007.035-.027.015-.036m-1.771-3.479c-1.789-1.047-3.67-1.943-5.515-2.887-.022-.011-.042.022-.02.034 1.827.977 3.636 2.012 5.516 2.887.022.01.041-.021.02-.034m7.049 2.766a3 3 0 0 0-.813-.394 30 30 0 0 0-.989-.367q-.979-.339-1.967-.65c-.036-.012-.05.044-.015.056q.959.354 1.904.742.473.192.947.382a3.4 3.4 0 0 0 .904.3.041.041 0 0 0 .029-.07m-6.3-5.674c-.011-.005-.02.012-.01.017a114 114 0 0 0 12.767 5.11c.02.006.027-.023.009-.03-4.275-1.667-8.568-3.234-12.766-5.097m19.291 3.572a16.4 16.4 0 0 0-2.945-1.035q-1.59-.498-3.166-1.042a89 89 0 0 1-6.423-2.495c-.013-.006-.025.013-.012.02a88 88 0 0 0 6.13 2.687q1.555.608 3.138 1.142a13 13 0 0 0 3.244.847.067.067 0 0 0 .034-.124m5.769-.7a4.6 4.6 0 0 0-1.596-.467 23 23 0 0 1-1.596-.373c-1.162-.33-2.305-.734-3.438-1.152-2.3-.85-4.57-1.797-6.792-2.836-.015-.007-.03.016-.013.024a59 59 0 0 0 6.559 2.825c1.138.408 2.289.778 3.44 1.149.595.192 1.181.405 1.771.614a4.1 4.1 0 0 0 1.617.39.095.095 0 0 0 .048-.174m4.082-1.479a27 27 0 0 0-2.642-.683 59 59 0 0 1-2.533-.706 46 46 0 0 1-5.187-1.95c-.009-.003-.017.01-.008.014a75 75 0 0 0 5.05 2.093q1.28.482 2.582.898a14.4 14.4 0 0 0 2.688.702c.224.025.233-.3.05-.368m2.521-1.795c-.191-.007-.382.033-.575.027a3 3 0 0 1-.654-.124c-.449-.119-.896-.246-1.344-.37q-1.384-.384-2.773-.75a.02.02 0 0 0-.01.037c1.003.355 2.01.697 3.019 1.04a11 11 0 0 0 1.413.452c.334.066.767.11.982-.212a.067.067 0 0 0-.057-.1m2.941-1.26a1 1 0 0 0-.151-.051 1 1 0 0 0-.144-.04 6 6 0 0 0-.337-.052 5 5 0 0 0-.66-.018.035.035 0 0 0-.01.07 5 5 0 0 0 .645.148q.162.022.325.033a1 1 0 0 0 .162-.002 1 1 0 0 0 .16-.012.041.041 0 0 0 .01-.075m10.104 37.852c-3.287-1.427-6.62-2.728-9.838-4.31-.032-.016-.06.03-.028.047a63.5 63.5 0 0 0 9.84 4.324c.035.011.06-.045.026-.06m9.271 1.139c-4.805-2.213-9.739-4.13-14.641-6.113-.008-.003-.014.011-.006.015 4.852 2.102 9.68 4.273 14.628 6.144.026.01.045-.034.02-.046m9.661.275c-1.368-.652-2.877-1.066-4.297-1.594q-2.198-.818-4.38-1.678-4.528-1.784-8.99-3.733c-.016-.007-.03.016-.013.023q4.274 1.95 8.633 3.7 2.178.873 4.375 1.697a39 39 0 0 0 4.647 1.642c.033.008.058-.04.025-.057m6.715-.652c-1.34-.541-2.747-.924-4.118-1.379q-2.117-.703-4.22-1.447-4.146-1.463-8.243-3.065c-.016-.007-.023.02-.007.026a179 179 0 0 0 8.207 3.196q2.042.734 4.103 1.416a42 42 0 0 0 4.264 1.302.025.025 0 0 0 .014-.049m5.226-.998c-2.17-.72-4.399-1.267-6.572-1.985q-3.259-1.077-6.443-2.358c-.028-.011-.04.034-.013.046 2.113.881 4.253 1.702 6.42 2.439a52 52 0 0 0 6.584 1.94.043.043 0 0 0 .023-.082m4.5-1.073a36 36 0 0 0-5.118-1.737 180 180 0 0 0-5.413-1.412.012.012 0 0 0-.006.022c1.766.482 3.528.987 5.266 1.563 1.74.578 3.462 1.181 5.24 1.638.042.012.075-.055.03-.074m6.726-2.201a12 12 0 0 0-1.437-.146q-.772-.06-1.54-.152-1.598-.194-3.166-.546c-.01-.002-.014.013-.004.015a41 41 0 0 0 3.098.616 12.7 12.7 0 0 0 3.04.282c.037-.003.051-.06.01-.069m2.277-2.214-1.4-.077c-.933-.052-1.867-.092-2.8-.135-.01 0-.01.015 0 .016.915.065 1.83.136 2.746.193l1.346.084a12 12 0 0 0 1.4.061c.023-.001.031-.038.006-.042a11 11 0 0 0-1.298-.1m2.91-2.2a4 4 0 0 0-.455.004q-.456.032-.911.06a.03.03 0 0 0 0 .058q.455.028.91.06a4 4 0 0 0 .456.003 1.6 1.6 0 0 0 .431-.054.04.04 0 0 0 0-.076 1.6 1.6 0 0 0-.43-.054m3.742-1.698a1.7 1.7 0 0 1-.885.089.033.033 0 0 0-.018.064 1.2 1.2 0 0 0 .475.042 1.4 1.4 0 0 0 .227-.047 1 1 0 0 0 .218-.108c.02-.013.007-.048-.017-.04m4.772-52.334q-.103 1.499-.203 2.998-.048.735-.087 1.47a10 10 0 0 0-.039 1.529c.004.036.06.051.07.01a9 9 0 0 0 .114-1.421c.024-.51.049-1.02.067-1.529l.106-3.057c0-.018-.026-.018-.028 0m-1.537 1.659c-.083 1.063-.17 2.126-.243 3.19a25 25 0 0 0-.107 3.19c.003.04.07.056.077.01a25 25 0 0 0 .221-3.138c.037-1.084.061-2.168.088-3.252 0-.023-.034-.022-.035 0m-1.653 2.296a.022.022 0 0 0-.043 0l-.181 2.999a18 18 0 0 0-.026 2.999c.005.048.083.07.092.012a18 18 0 0 0 .158-2.952Zm-1.499 2.933c-.138 1.868-.326 3.747-.305 5.622a.022.022 0 0 0 .043 0c.215-1.862.225-3.75.282-5.622 0-.012-.02-.012-.02 0m-1.568 5.106c.003-.852-.007-1.703.017-2.555 0-.02-.03-.02-.03 0-.056.867-.113 1.736-.124 2.605a16 16 0 0 0 .075 2.511c.004.028.044.018.046-.006.072-.847.014-1.706.016-2.555m-1.423.772c-.107.893-.214 1.783-.267 2.68-.001.018.028.022.03.005.122-.892.19-1.787.256-2.685.001-.012-.018-.012-.02 0m-1.249 3.803q-.409 1.099-.791 2.206c-.006.017.02.024.026.008q.412-1.099.799-2.205c.008-.022-.026-.03-.034-.01m36.59 16.963c-2.159-.602-4.369-.99-6.517-1.64-.043-.012-.06.054-.018.069a25.7 25.7 0 0 0 6.524 1.652c.047.004.055-.068.011-.08m1.027-3.175a25.5 25.5 0 0 0-4.415-1.524q-2.318-.682-4.668-1.25a.018.018 0 0 0-.01.034q2.29.627 4.548 1.357c1.492.483 2.981 1.126 4.51 1.466.048.01.083-.058.035-.083m6.631 1.43a4 4 0 0 0-1.11-.302c-.42-.093-.84-.178-1.26-.267q-1.238-.26-2.474-.523c-.01-.002-.014.013-.004.015l2.45.61c.4.1.8.203 1.201.299a4.3 4.3 0 0 0 1.181.226.032.032 0 0 0 .016-.058m6.01-1.359a15 15 0 0 0-2.255-.545q-1.135-.248-2.267-.507-2.324-.532-4.636-1.112a316 316 0 0 1-9.1-2.411.023.023 0 0 0-.012.045c3.038.934 6.095 1.809 9.178 2.585q2.253.567 4.516 1.088 1.192.274 2.386.536a12.6 12.6 0 0 0 2.18.401c.049.002.05-.064.01-.08m3.453-2.737c-1.235-.268-2.497-.39-3.745-.589q-1.876-.3-3.733-.703a75 75 0 0 1-7.327-1.979c-.015-.004-.02.018-.007.023a75 75 0 0 0 7.411 2.122 38 38 0 0 0 7.385 1.242.059.059 0 0 0 .016-.115m3.711-3.307a4.6 4.6 0 0 0-1.475-.166q-.842-.036-1.677-.143c-1.154-.148-2.307-.301-3.461-.448a64 64 0 0 1-6.949-1.305.014.014 0 0 0-.007.026 89 89 0 0 0 6.916 1.574 35 35 0 0 0 3.261.457 50 50 0 0 1 1.677.176 4.8 4.8 0 0 0 1.716.085.134.134 0 0 0 0-.256m5.094-3.074a8.1 8.1 0 0 0-2.888-.219 27 27 0 0 1-3.101-.351c-2.063-.18-4.122-.352-6.178-.607-.02-.002-.025.031-.005.035 2.012.353 4.035.69 6.064.929 1.105.13 2.214.022 3.308.226a6.9 6.9 0 0 0 2.8.13.075.075 0 0 0 0-.143m-.533-3.345a43 43 0 0 1-6-.462c-.037-.006-.054.049-.016.056a23.6 23.6 0 0 0 6.016.457.025.025 0 0 0 0-.05m5.117-.174a1 1 0 0 0-.427.015 8 8 0 0 0-.463.112c-.3.08-.601.163-.906.223-.023.005-.013.037.009.034.31-.048.624-.073.936-.102q.224-.019.447-.05a1 1 0 0 0 .417-.132.055.055 0 0 0-.013-.1m2.68-2.409a6.2 6.2 0 0 0-1.603-.113c-.576-.006-1.15-.006-1.726-.01-1.15-.005-2.3-.002-3.45-.039-.02 0-.02.03 0 .032 1.15.085 2.3.18 3.45.235.575.027 1.15.05 1.726.058a5.7 5.7 0 0 0 1.603-.091.037.037 0 0 0 0-.072m1.785-2.613a5 5 0 0 0-.842.084q-.469.066-.941.097a16 16 0 0 1-1.798.035c-.02-.001-.02.029 0 .03a11 11 0 0 0 1.867.082 5 5 0 0 0 1.728-.274c.029-.012.012-.054-.014-.055m1.796-2.073a1 1 0 0 0-.367-.083 2.3 2.3 0 0 0-.409.008 3.5 3.5 0 0 0-.784.184.027.027 0 0 0 .015.053 5 5 0 0 1 .784-.073q.19-.005.38-.002a1.7 1.7 0 0 0 .373-.02.037.037 0 0 0 .009-.067m2.03-1.896a2.2 2.2 0 0 0-.458.075q-.225.07-.454.134a.037.037 0 0 0 .02.072q.228-.047.457-.088a2.2 2.2 0 0 0 .442-.142c.024-.01.025-.053-.007-.05m-130.058-46.445a33 33 0 0 1-3.322 4.06 28.3 28.3 0 0 1-3.9 3.513c-.046.034-.004.11.045.078a24.6 24.6 0 0 0 4.085-3.36 21.8 21.8 0 0 0 3.119-4.275.016.016 0 0 0-.027-.016m-54.907 10.42a21 21 0 0 0-2.92-1.128c-1.022-.33-2.048-.662-3.096-.897-.01-.002-.018.013-.008.018.943.444 1.925.803 2.903 1.159a21.6 21.6 0 0 0 3.085.934c.05.01.087-.06.036-.086m2.418-.61a35 35 0 0 0-3.393-1.145 101 101 0 0 1-3.502-1.184c-.024-.01-.034.028-.01.037 1.13.44 2.264.873 3.403 1.288a23 23 0 0 0 3.466 1.09c.048.008.088-.064.036-.086m4.308-1.211a6.5 6.5 0 0 0-1.41-.635q-.765-.302-1.528-.607-1.578-.636-3.143-1.304c-.014-.005-.026.014-.012.02q1.518.706 3.05 1.382.752.332 1.507.657a6.3 6.3 0 0 0 1.51.55.035.035 0 0 0 .026-.063m-.167-1.662a20 20 0 0 1-2.224-.855c-.01-.005-.017.008-.008.013a16 16 0 0 0 2.168.92 10.4 10.4 0 0 0 2.287.554c.02.002.024-.03.005-.035-.74-.212-1.494-.36-2.228-.597m4.149-.64a10 10 0 0 1-1.155-.146 4.6 4.6 0 0 1-1.106-.372c-.033-.017-.063.031-.03.05a3.58 3.58 0 0 0 2.297.51c.026-.005.017-.04-.006-.042m1.349-1.38c-.196.001-.391.014-.586.022a.02.02 0 0 0 0 .039c.195.007.39.02.586.021a4 4 0 0 0 .568-.02.022.022 0 0 0 0-.041 4 4 0 0 0-.568-.02m465.345 3.309a17.7 17.7 0 0 0-2.524-6.81 21.1 21.1 0 0 0-4.979-5.004 10.9 10.9 0 0 0-6.16-2.44 6.86 6.86 0 0 0-3.09.653 19.87 19.87 0 0 0-.26-12.585 16.37 16.37 0 0 0-11.865-10.441 14.67 14.67 0 0 0-8.084.572 13.7 13.7 0 0 0-3.681 2.116 9.5 9.5 0 0 0-1.48 1.518c-.015-5.196-2.1-10.43-6.703-13.239-3.933-2.4-8.414-2.045-12.54-.537a17 17 0 0 0-2.787.626 29.4 29.4 0 0 0-10.112 5.105 31 31 0 0 0-4.156 3.832 18 18 0 0 0-2.185 2.903 70 70 0 0 0-3.946 3.198 31 31 0 0 0-.192-1.224 17.7 17.7 0 0 0-4.263-9.329 9.98 9.98 0 0 0-8.735-3.08c-3.532.543-6.649 2.714-9.515 4.712q-1.734 1.209-3.434 2.456a11.5 11.5 0 0 0-2.187.663 33 33 0 0 0-3.485 1.652c-2.268 1.224-4.424 2.644-6.683 3.883a22.3 22.3 0 0 1-6.447 2.471c-2.447.477-5.001.646-7.133 2.077a21.6 21.6 0 0 0-4.793 5.142 56 56 0 0 1-5.283 5.772c-3.742 3.686-7.793 7.063-11.28 11.003a27.2 27.2 0 0 0-4.408 6.019 43 43 0 0 0-.805 1.788 7.8 7.8 0 0 0-1.585.696 11.2 11.2 0 0 0-2.691 2.134c-1.511 1.558-2.74 3.372-4.204 4.974a44.6 44.6 0 0 1-5.62 5.06 38 38 0 0 0-5.561 4.879 15.6 15.6 0 0 0-1.929 2.718 5.2 5.2 0 0 0-.657 1.678 2 2 0 0 0-.02.355 3.2 3.2 0 0 0-1.312-.333 17.22 17.22 0 0 0-10.846 2.855c-2.91-2.171-5.932-4.205-8.93-6.21a62 62 0 0 0-8.071-4.68 59 59 0 0 0-8.414-3.16 112 112 0 0 0-17.69-3.375 66 66 0 0 0-9.181-.877c-3.189.05-5.977 1.302-8.77 2.72a21.2 21.2 0 0 0-6.79 4.737 12.56 12.56 0 0 0-2.856 6.976c-.477 4.66 1.178 9.049 3.78 12.806a41 41 0 0 0 1.85 3.469 25.1 25.1 0 0 0 8.02 8.38 25 25 0 0 0 2.995 1.63 9.7 9.7 0 0 0 1.61.545 80 80 0 0 0 13.332 9.208 47.3 47.3 0 0 0 7.791 3.299c2.51.795 5.095 1.314 7.67 1.854 2.565.538 5.107 1.138 7.61 1.92a27 27 0 0 1 3.08 1.198c.815.543 1.611 1.12 2.457 1.612 3.614 2.109 7.406 3.852 10.859 6.239 3.54 2.448 6.558 5.523 9.876 8.246a53.6 53.6 0 0 0 21.644 10.86 69.7 69.7 0 0 0 25.15.766 160 160 0 0 0 25.302-5.846c3.285-.998 6.525-2.102 9.75-3.26a79 79 0 0 1 8.39 2.258 46 46 0 0 1 4.454 1.657c1.437.651 2.859 1.343 4.315 1.95a87.3 87.3 0 0 0 16.508 5.413 58 58 0 0 0 9.2 1.069 34 34 0 0 0 9.319-.628 33 33 0 0 0 7.82-3.648 42.3 42.3 0 0 0 6.501-4.29 18 18 0 0 0 3.563-4.13c1.28-1.374 2.563-2.744 3.759-4.194 1.516-1.84 2.972-3.72 4.413-5.619 2.392-3.152 4.64-6.584 7.586-9.256a24.4 24.4 0 0 0 3.975-4.036 17.6 17.6 0 0 0 2.216-4.947 80.4 80.4 0 0 0 2.48-11.84c.26-1.816.363-3.632.482-5.458.077-.176.159-.35.228-.53.557-1.431.966-2.923 1.418-4.389q.662-2.144 1.356-4.278a39 39 0 0 1 1.412-4.005c.996-2.204 3.024-3.648 4.049-5.829a25.7 25.7 0 0 0 1.735-7.025c.819-5.22 1.307-10.55.367-15.79M471.631 89.86a30.5 30.5 0 0 1 12.274-8.004c-.693.38-1.367.781-2.012 1.195-3.01 1.928-5.88 4.083-8.79 6.155q-1.229.875-2.454 1.763.477-.566.982-1.109m-118.112 65.16.005-.105a68 68 0 0 1 1.967-.501 13 13 0 0 0-.126 1.522 8 8 0 0 0 .184 2.123q-1.006-.84-2.039-1.651c-.01-.216-.02-.433-.019-.649q.003-.37.028-.74m-.285-.026a5 5 0 0 0-.054 1.153c-.359-.28-.709-.57-1.072-.846q.563-.155 1.126-.307m-62.306 16.652a25.4 25.4 0 0 1-3.18-3.994c1.27 1.341 2.615 2.612 3.988 3.845q2.451 2.203 4.965 4.336a28 28 0 0 1-1.102-.606 22.7 22.7 0 0 1-4.67-3.581m255.576-26.321a13.7 13.7 0 0 1-.978 3.092 12 12 0 0 1-1.933 2.69 12.4 12.4 0 0 0-1.928 2.749 26 26 0 0 0-1.221 3.19c-.573 1.726-1.109 3.465-1.648 5.203-.006-.319-.006-.637-.026-.956a.059.059 0 0 0-.115-.016 36 36 0 0 0-.903 4.477 45 45 0 0 0-.942 5.075q-.06.284-.117.567c-.215 1.103-.347 2.227-.539 3.335a69 69 0 0 1-2.685 11.497 12.6 12.6 0 0 1-2.752 4.626c-1.288 1.322-2.777 2.425-4.034 3.782-1.321 1.425-2.479 2.993-3.652 4.54l-3.745 4.934a127 127 0 0 0-2.971 4.097c.651-1.618 1.233-3.262 1.926-4.878.011-.027-.025-.05-.04-.024a91 91 0 0 0-2.359 4.242 32.5 32.5 0 0 1-2.26 4.036 25.5 25.5 0 0 1-6.338 5.769 68 68 0 0 1-6.688 3.957 33 33 0 0 1-3.823 1.878 16 16 0 0 1-4.35.932 53.7 53.7 0 0 1-17.947-1.626 79 79 0 0 1-7.886-2.571c-2.613-.982-5.181-2.076-7.846-2.918-4.623-1.46-9.277-3.166-14.131-3.519q.963-.348 1.926-.701c4.088-1.51 8.313-3.012 12.71-3.228a.059.059 0 0 0 0-.117 22 22 0 0 0-3.257-.142c-4.251.174-8.376 1.725-12.388 3.004-4.261 1.358-8.5 2.775-12.797 4.023a141 141 0 0 1-25.156 5.302 64.1 64.1 0 0 1-24.909-1.909 50.3 50.3 0 0 1-11.102-4.905 63.3 63.3 0 0 1-9.784-7.356 67 67 0 0 0-10.081-7.74 58 58 0 0 0-5.468-2.95q-.722-.332-1.454-.645a5 5 0 0 0-.395-.32 22 22 0 0 0-1.178-.755 41 41 0 0 0-1.29-.736 4.3 4.3 0 0 0-1.06-.395c-3.952-2.326-8.727-3.02-13.133-3.978a51 51 0 0 1-7.57-2.173 49 49 0 0 1-7.376-3.633 95.3 95.3 0 0 1-13.36-9.94c-4.11-3.536-8.52-7.098-11.615-11.603-2.796-4.07-4.393-9.274-2.728-14.114a11.17 11.17 0 0 1 4.61-5.656 37 37 0 0 1 3.498-1.977 31 31 0 0 1 4.057-1.85c2.977-1.024 6.004-.646 9.065-.297 2.892.33 5.783.678 8.661 1.113a83.4 83.4 0 0 1 16.88 4.099c5.707 2.14 10.71 5.463 15.705 8.895 2.54 1.745 5.126 3.42 7.704 5.108a71 71 0 0 1 7.392 5.245.059.059 0 0 0 .083-.083c-1-1.055-1.99-2.124-3.055-3.113a52 52 0 0 0-.256-5.373.008.008 0 0 0-.015 0 53 53 0 0 0 .195 5.298l-.07-.068a58 58 0 0 0-1.807-1.578c.019-.764-.092-1.538-.112-2.301-.015-.522.002-1.04.02-1.56.629-.146 1.26-.283 1.898-.395a24.4 24.4 0 0 1 3.416-.35 6.1 6.1 0 0 1 1.715.042c.467.13.743.6 1.03.962a117 117 0 0 1 7.257 9.945 50 50 0 0 1 5.356 11.318c1.246 3.829 2.31 7.874 4.689 11.191a13.4 13.4 0 0 0 3.826 3.575 14 14 0 0 0 2.965 1.321 9.2 9.2 0 0 0 2.169.78.08.08 0 0 0 .104-.08l.355.105c.025.007.034-.03.01-.038-.128-.045-.263-.09-.395-.135-.008-.009-.013-.02-.027-.025a12.2 12.2 0 0 1-3.893-2.942 16.5 16.5 0 0 1-2.766-4.18c-.798-1.646-1.42-3.372-2.067-5.081-.694-1.832-1.462-3.627-2.19-5.445-.011-.03-.058-.018-.048.014a95 95 0 0 0 3.895 11.268 15.6 15.6 0 0 0 2.567 3.958 13 13 0 0 1-1.205-1.046 16 16 0 0 1-1.897-2.528 24 24 0 0 1-1.555-2.75c-1.924-3.923-2.75-8.278-4.416-12.304a54.3 54.3 0 0 0-4.98-9.152 94 94 0 0 1-.547-2.7 99 99 0 0 1-1.068-7.164c-.002-.017-.029-.017-.028 0 .15 2.35.377 4.686.75 7.01q.165 1.024.355 2.051c-.198-.29-.386-.588-.587-.877a113 113 0 0 0-2.276-3.124 24 24 0 0 1-.285-1.304c-.312-1.672-.391-3.355-.618-5.034-.004-.033-.05-.02-.053.007a19.4 19.4 0 0 0 .386 5.105c.037.211.081.424.122.636-.346-.456-.689-.915-1.039-1.369-.63-.815-1.26-1.632-1.902-2.437-.056-.07-.116-.118-.173-.181a5 5 0 0 0 .763-1.032c.271-.536.544-1.07.865-1.578a15.7 15.7 0 0 1 2.228-2.72 64 64 0 0 1 5.502-4.552 36.7 36.7 0 0 0 5.122-4.913c1.324-1.552 2.505-3.215 3.857-4.744a14.4 14.4 0 0 1 2.057-1.935c.134-.102.277-.19.419-.281-.012.036-.029.07-.04.107a32 32 0 0 0-.884 3.57.156.156 0 0 0 .301.084 31.3 31.3 0 0 1 4.148-7.18 54 54 0 0 1 5.095-6.229c3.569-3.728 7.63-6.975 11.11-10.787 1.722-1.887 3.312-3.852 4.862-5.882 1.382-1.81 2.937-3.61 5.15-4.382 2.308-.804 4.796-.848 7.11-1.648a30.6 30.6 0 0 0 5.99-2.973c1.948-1.2 3.82-2.523 5.788-3.69a32 32 0 0 1 1.949-1.059c-1.263 1-2.492 2.039-3.732 3.068-.123.102.036.29.166.215 1.864-1.073 3.742-2.107 5.55-3.273a157 157 0 0 0 5.146-3.474c2.925-2.053 6.175-4.428 9.912-4.413a9.37 9.37 0 0 1 7.601 4.612 20.5 20.5 0 0 1 2.807 9.01l-.058.03c-.017.01-.002.036.016.028l.045-.023c.016.158.037.317.05.475.584 6.752-1.03 14.167-5.581 19.352a39 39 0 0 1-3.596 3.522 42 42 0 0 1-3.838 3.11 15.14 15.14 0 0 1-9.288 2.612 17.45 17.45 0 0 1-8.774-2.82 31.2 31.2 0 0 1-6.897-6.282c-.03-.04-.095-.005-.068.04a25 25 0 0 0 3.21 4.339 20.6 20.6 0 0 0 4.109 3.251 18.2 18.2 0 0 0 10.73 2.704c.207-.017.412-.054.618-.08a3 3 0 0 1 .062.41 3.2 3.2 0 0 1-.197 1.299 5 5 0 0 1-.294.64l-.548.762a52 52 0 0 0-4.158 5.03c-1.553 2.135-2.867 4.378-4.23 6.633a11 11 0 0 1-2.397 2.907 14.8 14.8 0 0 1-3.194 1.873c-4.894 2.269-10.199 3.93-15.65 3.104a.023.023 0 0 0-.012.045 16.96 16.96 0 0 0 9.015.434 35.4 35.4 0 0 0 7.876-2.526 15 15 0 0 0 2.926-1.714c.128.073.257.143.383.22a3 3 0 0 1 .215.46c.208.547.417 1.095.617 1.646a.326.326 0 0 0 .395.224 1.56 1.56 0 0 1 .78-.104.333.333 0 0 0 .233-.563 3.05 3.05 0 0 1-.88-2.544 8.5 8.5 0 0 1 .096-1.218c.348-.464.672-.949.97-1.441 1.007-1.66 1.952-3.343 2.965-4.991.113-.147.234-.293.346-.44 1.028-1.34 2.085-2.662 3.069-4.035.94-1.315 1.986-2.603 2.806-3.998a4 4 0 0 0 .201-.4.7.7 0 0 0 .114-.116l.18-.246q.178-.233.363-.458.389-.47.811-.912.432-.452.9-.868l.072-.062c.174-.067.352-.123.525-.198a19.4 19.4 0 0 0 4.396-2.799 38.6 38.6 0 0 0 7.549-7.54 25.5 25.5 0 0 0 3.98-10.13 31.1 31.1 0 0 0 .308-8.877.43.43 0 0 0 .285-.045 110 110 0 0 0 9.896-6.494c3.047-2.15 6.042-4.433 9.245-6.35 4.971-2.973 11.714-4.926 16.635-.746 4.613 3.918 5.375 10.358 3.979 15.946-1.62 6.482-5.643 12.132-9.105 17.74l-2.745 4.448a19 19 0 0 1-2.722 3.842 12.7 12.7 0 0 1-3.538 2.282c-1.287.598-2.544 1.23-3.817 1.854-.245.12-.052.43.169.4.81-.11 1.626-.184 2.423-.365-.226.457-.441.92-.685 1.363a53 53 0 0 1-1.37 2.367c-1.032 1.666-2.114 3.302-3.176 4.95-1.937 3.01-3.823 6.054-5.731 9.083-1.68 2.668-3.155 5.769-6.064 7.288-2.594 1.354-5.732 1.672-8.598 1.987a29.8 29.8 0 0 1-9.975-.398c-.146-.033-.25.18-.106.25 3.468 1.687 7.46 1.569 11.21 1.248a38 38 0 0 0 5.41-.745c.162.027.324.055.485.094a8.4 8.4 0 0 1 2.421 1.039 16.4 16.4 0 0 1 2.069 1.629 16 16 0 0 1 1.802 1.776c.058.069.151-.02.117-.09a13 13 0 0 0-1.455-2.45 6.8 6.8 0 0 0-1.216-1.157c-.019-.11-.041-.218-.052-.326a6 6 0 0 1-.027-.718 5.8 5.8 0 0 1 .177-1.305c.03-.12.066-.24.1-.36 2.482-1.784 3.888-4.746 5.47-7.3 1.992-3.217 4.001-6.425 5.96-9.663.94-1.555 1.906-3.097 2.798-4.68a14.2 14.2 0 0 0 1.85-4.3c.403-.147.799-.312 1.19-.487a11.2 11.2 0 0 0 3.976-2.879 39.5 39.5 0 0 0 3.206-4.901l3.272-5.293c3.639-5.885 7.567-11.904 8.417-18.93.035-.284.057-.57.08-.856a2 2 0 0 0 .294-.217q.436-.413.89-.807a18 18 0 0 1 1.773-1.356 12.9 12.9 0 0 1 3.956-1.8 14 14 0 0 1 8.441.572c4.938 1.897 8.244 6.572 9.244 11.66 1.119 5.69-.954 11.44-3.759 16.323-2.94 5.12-6.676 9.733-9.715 14.794a49 49 0 0 1-4.132 6.184 19 19 0 0 1-2.514 2.567c-.924.763-1.805 1.596-2.789 2.282a.232.232 0 0 0 .178.422 8.7 8.7 0 0 0 2.455-.859l-.114.244c-.556 1.159-1.123 2.313-1.685 3.469-1.784 3.668-3.579 7.842-6.99 10.294-.763.55-1.551 1.07-2.261 1.69a8.2 8.2 0 0 0-1.697 2.17c-.132.229-.295.604-.554.71-.127.053-.398-.058-.506-.058a6 6 0 0 1-.735.01c-.627-.074-1.235-.243-1.857-.352-.444-.077-.884-.145-1.323-.231-.197-.054-.395-.114-.59-.163a39 39 0 0 0-6.762-1.065 53 53 0 0 0-7.197.237.023.023 0 0 0 0 .047c2.32.046 4.65.34 6.958.581a29 29 0 0 1 6.47 1.365 26.2 26.2 0 0 1 5.065 2.529c.83.505 1.656.993 2.507 1.462a27 27 0 0 1 2.356 1.566c.138.096.279-.086.214-.214a11.2 11.2 0 0 0-2.564-3.3 14 14 0 0 1 3.131-.885q.014.598.077 1.188a17.4 17.4 0 0 0 3.36 8.422c.096.13.357.057.286-.12a30.8 30.8 0 0 1-2.277-8.302 17.2 17.2 0 0 1 .092-4.364 17 17 0 0 1 .464-2.05 8 8 0 0 0 .34-1.085 17.3 17.3 0 0 0 2.444-3.39 69 69 0 0 0 3.04-6.517c.48-1.13.91-2.274 1.33-3.427.19-.517.384-1.035.554-1.56a19.8 19.8 0 0 0 2.719-2.983c1.775-2.353 3.187-4.959 4.735-7.461 3.38-5.468 7.616-10.423 10.34-16.284q.652-1.401 1.166-2.86a6.77 6.77 0 0 1 5.13-.656A14.94 14.94 0 0 1 543 117.84a14.1 14.1 0 0 1 3.681 5.63 26 26 0 0 1 1.245 7.09 57.7 57.7 0 0 1-1.422 14.764"/><path fill="currentColor" d="M383.198 154.643c-.008-.066.103-.08.115-.016a12.47 12.47 0 0 0 5.338 7.482c1.412.962 2.968 1.699 4.452 2.54 1.467.83 2.985 1.58 4.425 2.456 2.735 1.662 5.251 3.695 7.878 5.517 2.625 1.82 5.254 3.64 7.993 5.286a52.8 52.8 0 0 0 9.736 4.794.078.078 0 0 1-.041.15 36.8 36.8 0 0 1-9.185-3.54c-2.892-1.579-5.647-3.388-8.398-5.198a84 84 0 0 0-8.513-5.063c-1.59-.796-3.144-1.714-4.684-2.607a87 87 0 0 0 6.345 5.09c1.805 1.311 3.672 2.525 5.543 3.738 1.905 1.234 3.75 2.553 5.669 3.765a.082.082 0 0 1-.083.142c-2.066-1.014-4.168-1.982-6.139-3.176a74 74 0 0 1-5.717-3.861 59 59 0 0 1-5.214-4.313 32 32 0 0 1-2.735-2.957 24 24 0 0 1-1.935-1.661c-2.474-2.361-4.423-5.095-4.85-8.568m153.448-2.053c1.098-.401 2.222-.72 3.32-1.12 1.13-.413 2.25-.857 3.346-1.353.04-.019.077.04.036.06a35 35 0 0 1-3.215 1.43 20.6 20.6 0 0 1-3.464 1.065.043.043 0 0 1-.023-.083m-5.601-.266a19 19 0 0 1 2.254-.557c.702-.162 1.403-.323 2.102-.497q2.175-.543 4.317-1.204c.015-.005.02.017.006.022q-2.164.73-4.365 1.342c-.72.2-1.442.393-2.17.564a12.6 12.6 0 0 1-2.134.406c-.046.003-.05-.062-.01-.076m-.853-1.374c1.213-.388 2.473-.639 3.692-1.01q1.83-.559 3.62-1.239c.004-.001.006.006.002.008q-1.776.72-3.596 1.323a27 27 0 0 1-3.678 1.06.074.074 0 0 1-.04-.142m-2.554.419c.165-.06.337-.101.505-.151l.506-.15c.04-.012.054.046.017.06l-.497.184c-.164.061-.328.131-.496.183a.07.07 0 0 1-.064-.017.05.05 0 0 1-.019-.046.07.07 0 0 1 .048-.063m-.172-2.338.68-.003a.027.027 0 0 1 0 .055l-.68-.004a.023.023 0 0 1 0-.047m-20.703-4.436c.828-.53 1.78-.879 2.648-1.342.876-.468 1.73-.968 2.592-1.46.03-.017.067.026.038.049a17.7 17.7 0 0 1-2.5 1.63 11 11 0 0 1-2.736 1.223.055.055 0 0 1-.042-.1M503.84 144a7 7 0 0 1 1.672-.597q.868-.28 1.718-.61a51 51 0 0 0 3.507-1.492.012.012 0 0 1 .012.02 23 23 0 0 1-3.329 1.692q-.875.352-1.772.647a5.1 5.1 0 0 1-1.787.42.043.043 0 0 1-.021-.08m-2.458-.91c.364-.313 1.037-.265 1.493-.361a10 10 0 0 0 1.653-.518 43 43 0 0 0 3.26-1.443.025.025 0 0 1 .026.044 15.6 15.6 0 0 1-3.148 1.467c-.549.18-1.102.344-1.649.53-.292.1-.58.214-.873.308a1.23 1.23 0 0 1-.73.09.07.07 0 0 1-.032-.117m1.945-2.073c.026-.008.037.033.011.042a21.4 21.4 0 0 1-3.704 1c-.022.003-.032-.029-.01-.034 1.247-.3 2.487-.596 3.703-1.008m-6.563.512c.19-.006.383.006.574.01a.025.025 0 0 1 0 .051c-.19.004-.384.017-.574.011-.192-.006-.383-.01-.575-.022a.014.014 0 0 1 0-.028q.288-.015.575-.022m-4.282-1.504c.136.017.27.059.406.082q.2.038.401.07a8 8 0 0 0 .858.082.031.031 0 0 1 0 .063 4 4 0 0 1-.858-.03 3 3 0 0 1-.428-.087 2 2 0 0 1-.392-.133c-.021-.01-.013-.05.013-.047m36.252-36.755a.022.022 0 0 1 .042-.012 20.5 20.5 0 0 1 .637 8.444c-.008.042-.074.031-.073-.01.014-1.387.072-2.773-.005-4.16a26 26 0 0 0-.6-4.262m-1.611-1.542a67 67 0 0 1 1.05 13.284.033.033 0 0 1-.067 0c-.207-4.444-.409-8.865-1.002-13.279-.002-.012.017-.018.019-.005m-.888 2.042c-.003-.028.04-.027.043 0a63 63 0 0 1 .1 15.848c-.004.03-.055.024-.053-.007a95.7 95.7 0 0 0-.09-15.841m-1.185 10.762a67 67 0 0 0-.237-9.213c-.001-.013.018-.012.02 0a67.5 67.5 0 0 1 .403 9.334 41 41 0 0 1-1.014 9.056c-.008.033-.064.027-.061-.008.28-3.063.755-6.091.89-9.17m-1.822 1.193a49.5 49.5 0 0 0-.209-8.871c-.001-.015.022-.015.024 0a49.5 49.5 0 0 1 .312 9.108 37 37 0 0 1-1.42 8.776.031.031 0 0 1-.06-.017 75 75 0 0 0 1.354-8.996m-2.709 4.096c.203-1.097.37-2.2.511-3.307q.395-3.098.483-6.223a.012.012 0 0 1 .023 0q-.06 3.18-.428 6.342-.17 1.438-.405 2.867a16 16 0 0 1-.666 3.168c-.009.021-.044.02-.043-.005a25 25 0 0 1 .525-2.842m-1.208 6.18.156-.566.307-1.11a.008.008 0 0 1 .016.003l-.278 1.12-.136.548a3.3 3.3 0 0 1-.154.525.016.016 0 0 1-.03-.007 3 3 0 0 1 .119-.514m-.859-4.099q.678-2.78 1.083-5.614c.001-.005.008-.003.008.002q-.386 2.836-1.037 5.627a38.4 38.4 0 0 1-1.598 5.492c-.015.036-.072.023-.06-.017.526-1.835 1.151-3.631 1.604-5.49m-2.261 1.909c.003-.01.018-.006.015.004a18 18 0 0 1-1.766 4.092.012.012 0 0 1-.02-.012 23 23 0 0 0 1.77-4.084m-3.493 2.172.32-.393c.018-.021.049.01.03.03l-.32.382c-.107.126-.21.257-.322.38-.01.01-.027-.004-.019-.015.099-.131.207-.256.311-.384m-2.979.399a.248.248 0 0 1 0 .497.248.248 0 0 1 0-.496m-7.606-30.912a37 37 0 0 1 .617 6.521.016.016 0 0 1-.03 0 57 57 0 0 0-.628-6.51c-.005-.027.036-.039.041-.011m-2.208.261a35 35 0 0 1 1.15 7.792c0 .015-.023.015-.024 0a43.5 43.5 0 0 0-1.14-7.787.008.008 0 0 1 .014-.004m-2.401-1.154a57.6 57.6 0 0 1 1.43 13.03.018.018 0 0 1-.034 0 84.5 84.5 0 0 0-1.434-13.02c-.005-.025.032-.035.038-.01m-2.22.903a66 66 0 0 1 1.25 8.303c.001.018-.025.017-.027 0-.364-2.773-.747-5.543-1.264-8.291-.005-.027.035-.04.041-.012m1.483 12.288a18 18 0 0 0-.166-2.08c0-.005.007-.006.008-.001a29 29 0 0 1 .308 3.086 2.6 2.6 0 0 1-.06 1.014.037.037 0 0 1-.072 0 3.2 3.2 0 0 1-.028-.974c.016-.348.016-.697.01-1.045m-3.6-8.34c.494 2.269.887 4.56 1.155 6.866a46 46 0 0 1 .433 7.186.023.023 0 0 1-.047 0c-.16-2.316-.19-4.63-.438-6.943q-.385-3.579-1.114-7.106c-.002-.008.01-.01.011-.003m-2.269.914a68 68 0 0 1 1.285 8.513 48.3 48.3 0 0 1 .13 8.84.025.025 0 0 1-.05 0c-.042-2.874.04-5.727-.18-8.598a73 73 0 0 0-1.204-8.75c-.002-.012.016-.018.019-.005m-.74 12.022a67.5 67.5 0 0 0-1.01-10.114c-.002-.012.016-.018.019-.005a69 69 0 0 1 1.094 9.998 50.5 50.5 0 0 1-.477 10.046c-.003.021-.04.017-.038-.005.227-3.312.488-6.596.411-9.92m-1.741 7.326a35 35 0 0 0 .032-4.171c-.001-.02.03-.02.03 0a35 35 0 0 1 .008 4.251 19.4 19.4 0 0 1-.53 4.064c-.005.02-.04.018-.038-.005.124-1.384.404-2.748.498-4.139m-1.676 1.32c.003-.014.025-.008.023.007a25 25 0 0 1-.785 3.57.014.014 0 0 1-.027-.007c.282-1.187.579-2.367.789-3.57m-6.39 5.606c.02-.01.038.02.018.03-.256.128-.51.258-.77.375-.016.007-.03-.015-.015-.023.252-.135.51-.257.767-.382m-7.039.61a11 11 0 0 1 1.681-.727c.585-.221 1.17-.444 1.757-.658l.243-.088a.06.06 0 0 1 .021-.055.7.7 0 0 1 .27-.074c.017-.004.037.005.056.003l3-1.091c.01-.003.013.011.004.015l-2.686 1.117a.5.5 0 0 1 .23.17.5.5 0 0 1 .062.13c.007.022.02.042.027.064.009.023.01.045.02.068.026.074-.079.104-.118.05l-.042-.037a.2.2 0 0 0-.036-.03l-.007-.003-.025-.01-.02-.012-.053-.028c-.075-.036-.142-.089-.216-.128l-.107-.055c-.002-.002-.024-.014-.009-.007l-.03-.01-.035-.012-.434.18q-.837.347-1.679.681a12 12 0 0 1-1.833.644.053.053 0 0 1-.04-.097m58.863 51.338c.027-.012.05.028.023.04a23.8 23.8 0 0 1-6.525 1.891c-.02.003-.024-.031-.005-.034a29 29 0 0 0 6.507-1.897m-8.79.449a10.6 10.6 0 0 1 1.622-.517c.543-.157 1.086-.31 1.628-.468q1.69-.492 3.374-1.002c.022-.006.03.027.01.034q-1.674.547-3.355 1.072-.81.253-1.62.499a10 10 0 0 1-1.646.433c-.026.004-.037-.04-.013-.05m-3.104.1q.221-.055.444-.1c.288-.062.579-.11.867-.167a.018.018 0 0 1 .01.034c-.282.083-.56.175-.843.254q-.22.063-.44.117c-.058.014-.263.1-.29-.001-.026-.103.191-.122.252-.137m-3.546-1.313c1.556-.322 3.135-.52 4.69-.855a50 50 0 0 0 4.615-1.227c.017-.005.024.02.008.026a39 39 0 0 1-4.659 1.4 22.8 22.8 0 0 1-4.648.702.024.024 0 0 1-.006-.046m-2.427-2.052a10 10 0 0 1 1.935-.254 80 80 0 0 0 2.225-.286 88 88 0 0 0 4.144-.71c.012-.002.017.016.005.02q-2.084.485-4.197.818-.967.153-1.937.28a8.8 8.8 0 0 1-2.168.185.027.027 0 0 1-.008-.053m-2.561-1.413a5.4 5.4 0 0 1 1.283-.184c.439-.04.877-.087 1.315-.128a60 60 0 0 0 2.773-.316c.026-.004.039.036.011.041a96 96 0 0 1-2.756.48c-.429.066-.86.118-1.29.172a5 5 0 0 1-1.336.067c-.072-.012-.057-.112 0-.132m-.631-2.163a3.5 3.5 0 0 1 .947-.056q.488.025.976.073a.014.014 0 0 1 0 .027q-.487.048-.976.072a3.5 3.5 0 0 1-.947-.056.031.031 0 0 1 0-.06m-1.775-1.779q.057.015.113.026l.054.009c.022.002.043-.002.064.002.072.01.143.028.214.043a1.4 1.4 0 0 0 .443.018c.052-.007.06.075.012.088a1.5 1.5 0 0 1-.477.053.7.7 0 0 1-.24-.05c-.035-.017-.07-.042-.104-.063l-.103-.069a.031.031 0 0 1 .024-.057m-1.476-1.543a.3.3 0 0 1 .07-.01.6.6 0 0 1 .146.017.6.6 0 0 1 .252.136c.02.02-.01.049-.03.03a.53.53 0 0 0-.365-.125l-.062.002-.069.007a.018.018 0 0 1-.009-.033.2.2 0 0 1 .067-.024m-12.729-7.823a49.6 49.6 0 0 0 7.409-3.676c.034-.022.063.031.031.054a21.4 21.4 0 0 1-7.41 3.693c-.041.01-.073-.053-.03-.071m-4.93.383c1.563-.65 3.203-1.111 4.775-1.744a49 49 0 0 0 4.746-2.208.018.018 0 0 1 .017.03 43 43 0 0 1-4.684 2.365 22 22 0 0 1-4.839 1.614.03.03 0 0 1-.015-.057m-4.492.046c1.56-.557 3.157-.997 4.71-1.58a51 51 0 0 0 4.704-2.045c.03-.014.055.03.026.044q-2.218 1.133-4.535 2.055a29 29 0 0 1-4.889 1.586.031.031 0 0 1-.016-.06m1.088-1.744q2.178-.811 4.292-1.781c.009-.004.017.01.008.014a52 52 0 0 1-4.129 1.787 28 28 0 0 1-4.423 1.44.018.018 0 0 1-.009-.033c1.397-.533 2.857-.905 4.261-1.427m-6.449.472c.754-.27 1.537-.454 2.292-.724q1.169-.418 2.293-.947c.03-.014.055.03.025.044q-1.087.52-2.219.94a13.6 13.6 0 0 1-2.38.728.022.022 0 0 1-.01-.041m-.257-1.92a.035.035 0 0 1 .019.068c-.427.127-.851.254-1.282.363a.014.014 0 0 1-.008-.027c.42-.147.845-.275 1.27-.404m-3.135-.413q.041-.015.084-.025a1 1 0 0 1 .17-.033l.337-.032c.027-.002.03.038.006.046l-.32.11a1 1 0 0 1-.158.037l-.087.012a.2.2 0 0 1-.087-.01.036.036 0 0 1-.015-.06.2.2 0 0 1 .07-.045m-19.592-4.202a52 52 0 0 0 8.413-2.57c.016-.007.028.021.012.028a32.6 32.6 0 0 1-8.41 2.592c-.032.005-.047-.042-.014-.05m-7.164.202c3.846-1.189 7.72-2.258 11.518-3.604.035-.012.05.044.015.057a81.4 81.4 0 0 1-11.52 3.593.023.023 0 0 1-.013-.046m-3.167-1.274a17 17 0 0 1 2.414-.788q1.21-.362 2.417-.732c1.672-.509 3.347-1.009 5.016-1.53.017-.005.023.02.007.026a256 256 0 0 1-4.884 1.643q-1.204.386-2.41.759a16 16 0 0 1-2.527.7c-.043.006-.082-.055-.033-.078m-2.317-1.222a33 33 0 0 1 3.88-1.295c1.347-.424 2.701-.82 4.059-1.208.019-.006.027.023.008.03a158 158 0 0 1-3.943 1.332 33 33 0 0 1-3.979 1.202c-.034.006-.062-.044-.025-.06m-.879-2.147a15 15 0 0 1 1.8-.473q.901-.228 1.79-.504c.025-.007.034.03.01.038q-.894.316-1.803.585a8 8 0 0 1-1.79.404c-.03.001-.032-.04-.007-.05m-1.946-1.577.103-.024q.112-.025.226-.042l.455-.073c.07-.011.102.095.03.11l-.46.088q-.112.022-.226.037l-.113.014a.3.3 0 0 1-.113-.008.032.032 0 0 1-.007-.057.3.3 0 0 1 .105-.045m19.04-43.344c-.001-.015.022-.015.023 0a21 21 0 0 1-.117 3.575c0 .007-.013.008-.012 0a21 21 0 0 0 .106-3.575m-2.553-7.399c-.007-.041.056-.06.064-.018 1.068 5.409 1.46 11.347.082 16.74-.01.041-.08.034-.076-.01.267-2.75.588-5.477.61-8.244a48 48 0 0 0-.68-8.468m-2.298-1.152a112 112 0 0 1 .712 12.251.01.01 0 0 1-.02 0c-.248-4.082-.442-8.17-.727-12.25-.002-.024.032-.023.035 0m-.375 18.552q.147-.891.297-1.782c.194-1.167.386-2.334.566-3.503.001-.005.009-.003.008.002a309 309 0 0 0-.46 3.584l-.214 1.726a4.7 4.7 0 0 1-.278 1.48.04.04 0 0 1-.071-.01 4.7 4.7 0 0 1 .152-1.497m-2.399.654q.349-2.425.508-4.871a65 65 0 0 0-.034-9.36c-.003-.036.051-.036.054 0a62.4 62.4 0 0 1 .16 9.48q-.14 2.231-.439 4.449a28 28 0 0 1-.882 4.717c-.016.05-.102.044-.096-.013.167-1.475.517-2.933.729-4.402m-1.915-1.291a52.5 52.5 0 0 0 .533-7.323.018.018 0 0 1 .035 0 53 53 0 0 1-.46 7.109 36.7 36.7 0 0 1-1.522 7.19.03.03 0 0 1-.057-.015c.51-2.326 1.128-4.598 1.47-6.961m-2.125-1.328c0-.007.012-.007.012 0a27.5 27.5 0 0 1-2.46 9.981c-.007.016-.035.005-.028-.012a35.7 35.7 0 0 0 2.476-9.969m-5.081 9.709q.334-.816.616-1.651a29 29 0 0 0 .903-3.34c.002-.008.013-.005.012.002a29 29 0 0 1-.88 3.41q-.263.808-.575 1.6a9.7 9.7 0 0 1-.694 1.563c-.016.027-.064.01-.053-.023.178-.532.459-1.04.671-1.561m-1.435-1.941c.011-.027.055-.016.045.013a11.9 11.9 0 0 1-1.993 3.863c-.018.022-.054-.007-.04-.031a28 28 0 0 0 1.988-3.845m-5.052 3.186a5.8 5.8 0 0 0 1.548-1.503.016.016 0 0 1 .027.016 3.07 3.07 0 0 1-1.551 1.543c-.035.015-.051-.038-.024-.057m-17.352 24.261c3.62-.81 7.222-1.71 10.751-2.853.01-.003.014.011.005.015a61 61 0 0 1-10.741 2.89c-.034.006-.05-.045-.015-.053m-5.106-1.141c3.286-.714 6.646-1.112 9.97-1.604.016-.002.024.023.007.027-3.31.59-6.623 1.28-9.967 1.65-.042.004-.05-.064-.01-.073m-26.36-14.808c.015-.065.106-.036.098.027a19.4 19.4 0 0 0 .648 7.897c.018.064-.083.11-.11.046a12.77 12.77 0 0 1-.636-7.97m1.964-1.715a1.93 1.93 0 0 1 .319-.991.08.08 0 0 1 .122.015 2 2 0 0 1 .095.957c0 .435-.049.855-.092 1.288a24 24 0 0 0-.148 2.49 17.6 17.6 0 0 0 .248 2.642c.123.783.344 1.56.405 2.35a.03.03 0 0 1-.058.008 42 42 0 0 1-.784-5c-.091-.861-.172-1.716-.182-2.582a6 6 0 0 1 .076-1.177m2.872-2.625a.057.057 0 0 1 .11 0 6.5 6.5 0 0 1 .098 1.7c-.003.632-.009 1.264.009 1.896q.026.912.113 1.821.043.454.098.907a2.3 2.3 0 0 1 .02.854.07.07 0 0 1-.125.016 4.4 4.4 0 0 1-.315-1.707 46 46 0 0 1-.152-1.821 26 26 0 0 1-.069-1.825 5.1 5.1 0 0 1 .213-1.84m3.277-2.799a.028.028 0 0 1-.007.05c-.264.052-.165.692-.165.879-.002.273-.014.546-.016.82-.004.526-.01 1.052.01 1.579.039 1.068.126 2.133.175 3.2.003.052-.073.059-.088.012a13 13 0 0 1-.527-3.97c0-.286 0-2.883.618-2.57m2.638-1.932c.023-.048.092-.005.071.042a5 5 0 0 0-.386 1.897.027.027 0 0 1-.054 0 3.8 3.8 0 0 1 .37-1.938m-26.949 30.666a53 53 0 0 1 .792 6.113c.002.026-.04.033-.046.006-.386-2.019-.56-4.072-.78-6.115-.002-.02.031-.024.034-.004m1.017 7.641q.193.975.397 1.946a7 7 0 0 1 .303 1.904c-.002.036-.06.061-.076.02a7 7 0 0 1-.356-1.888q-.135-.99-.283-1.977c-.001-.01.013-.015.015-.005m1.705-9.302c.206 1.649.408 3.297.596 4.948l.27 2.375.134 1.188c.049.428.007 1.272.308 1.591a.028.028 0 0 1-.026.046c-.194-.063-.237-.169-.279-.365-.087-.412-.097-.854-.143-1.272l-.305-2.77q-.315-2.87-.597-5.74c-.003-.029.04-.028.042 0m2.888-4.477c.001-.014.024-.02.027-.003.187 1.18.234 2.39.353 3.58.123 1.231.291 2.464.38 3.699a.03.03 0 0 1-.058.008 27 27 0 0 1-.535-3.565 23 23 0 0 1-.167-3.718m2.221-2.549c.002-.023.036-.023.035 0a22 22 0 0 0 .353 4.722c.004.022-.029.032-.034.01a17 17 0 0 1-.354-4.732m107.237 79.251a167 167 0 0 0 18.779-8.259c.024-.013.046.024.022.037a88 88 0 0 1-18.78 8.3c-.051.016-.07-.06-.021-.078m2.275-3.351c4.017-2.01 8.166-3.761 12.28-5.565.029-.013.055.03.025.044-4.07 1.905-8.123 3.87-12.285 5.567-.027.011-.046-.033-.02-.046m-5.573 2.048q1.025-.393 2.03-.833c.013-.006.025.014.012.02q-.952.435-1.918.837a17 17 0 0 1-2.026.75c-.02.005-.036-.027-.015-.036.627-.276 1.278-.494 1.917-.739m-6.305-.278c1.486-.667 3.03-1.221 4.53-1.858q2.256-.955 4.484-1.974 4.456-2.036 8.805-4.3c.02-.011.037.019.017.03q-4.374 2.337-8.885 4.397-2.228 1.018-4.485 1.972c-1.464.619-2.934 1.287-4.44 1.794-.036.012-.061-.045-.026-.06m-3.695-.996c2.488-1.102 5.049-2.043 7.537-3.152q3.735-1.665 7.387-3.51c.03-.015.055.028.026.043q-3.664 1.943-7.441 3.652a74 74 0 0 1-7.468 3.067c-.058.02-.099-.074-.042-.1m-2.934-1.507c.834-.378 1.737-.627 2.596-.943a81 81 0 0 0 2.55-.995q2.71-1.102 5.313-2.442c.03-.015.055.028.026.044q-2.533 1.377-5.175 2.536a56 56 0 0 1-2.471 1.004 19 19 0 0 1-2.777.942c-.083.018-.15-.107-.062-.146m-4.128-1.342c.995-.848 2.509-.937 3.728-1.25a20 20 0 0 0 4.136-1.582c.015-.008.029.015.013.024a22 22 0 0 1-3.818 1.679c-.67.222-1.352.403-2.032.59-.667.184-1.31.438-1.973.63-.05.015-.096-.055-.054-.09m-3.625-1.538c1.117-.419 2.28-.71 3.428-1.029 1.15-.318 2.298-.636 3.45-.942a.014.014 0 0 1 .008.026c-1.125.4-2.262.765-3.405 1.107a28 28 0 0 1-3.468.883.023.023 0 0 1-.013-.045m.634-2.19a.01.01 0 0 1 .005.02 36 36 0 0 1-2.682.761.018.018 0 0 1-.009-.034 36 36 0 0 1 2.686-.746m-7.281-.041a18 18 0 0 0 2.028-.279.022.022 0 0 1 .012.042 3.9 3.9 0 0 1-2.049.301c-.04-.006-.025-.06.01-.065m7.644-27.091c1.3-.52 2.634-.943 3.919-1.508a31 31 0 0 0 3.639-1.87c.021-.012.04.02.02.034a25 25 0 0 1-3.663 2.098 16.2 16.2 0 0 1-3.893 1.325.041.041 0 0 1-.022-.08m-5.867.423c3.667-1.734 7.43-3.256 11.083-5.027.03-.014.055.03.026.044a105 105 0 0 1-11.094 5.019c-.02.007-.035-.027-.015-.036m1.771-3.479c1.79-1.047 3.67-1.943 5.515-2.887.022-.011.042.022.02.034-1.827.977-3.636 2.012-5.515 2.887-.023.01-.042-.021-.02-.034m-7.05 2.766a3 3 0 0 1 .813-.394q.492-.192.989-.367.979-.339 1.967-.65c.037-.012.05.044.016.056q-.96.354-1.905.742-.473.192-.947.382a3.4 3.4 0 0 1-.904.3.041.041 0 0 1-.029-.07m6.3-5.674c.011-.005.021.012.01.017a114 114 0 0 1-12.767 5.11c-.02.006-.027-.023-.009-.03 4.275-1.667 8.568-3.234 12.766-5.097m-19.29 3.572a16.4 16.4 0 0 1 2.944-1.035q1.59-.498 3.167-1.042a89 89 0 0 0 6.422-2.495c.014-.006.026.013.012.02a88 88 0 0 1-6.13 2.687q-1.555.608-3.138 1.142a13 13 0 0 1-3.244.847.067.067 0 0 1-.033-.124m-5.77-.7a4.6 4.6 0 0 1 1.596-.467c.536-.11 1.069-.223 1.596-.373 1.162-.33 2.305-.734 3.439-1.152 2.3-.85 4.57-1.797 6.79-2.836.017-.007.03.016.015.024a59 59 0 0 1-6.56 2.825c-1.138.408-2.288.778-3.44 1.149-.595.192-1.181.405-1.771.614a4.1 4.1 0 0 1-1.617.39.095.095 0 0 1-.048-.174m-4.081-1.479a27 27 0 0 1 2.641-.683 59 59 0 0 0 2.533-.706 46 46 0 0 0 5.187-1.95c.01-.003.017.01.008.014a75 75 0 0 1-5.05 2.093q-1.28.482-2.582.898a14.4 14.4 0 0 1-2.687.702c-.224.025-.234-.3-.05-.368m-2.523-1.795c.193-.007.384.033.576.027a3 3 0 0 0 .654-.124c.45-.119.896-.246 1.344-.37q1.384-.384 2.773-.75a.02.02 0 0 1 .01.037c-1.003.355-2.01.697-3.018 1.04a11 11 0 0 1-1.414.452c-.333.066-.767.11-.982-.212a.067.067 0 0 1 .058-.1m-2.941-1.26a1 1 0 0 1 .15-.051 1 1 0 0 1 .145-.04q.167-.031.336-.052a5 5 0 0 1 .661-.018.035.035 0 0 1 .01.07 5 5 0 0 1-.646.148 6 6 0 0 1-.324.033 1 1 0 0 1-.162-.002 1 1 0 0 1-.161-.012.041.041 0 0 1-.01-.075m-10.103 37.852c3.287-1.427 6.619-2.728 9.838-4.31.03-.016.059.03.027.047a63.5 63.5 0 0 1-9.84 4.324c-.035.011-.06-.045-.025-.06m-9.272 1.139c4.805-2.213 9.74-4.13 14.641-6.113.009-.003.015.011.006.015-4.852 2.102-9.68 4.273-14.627 6.144-.027.01-.046-.034-.02-.046m-9.661.275c1.367-.652 2.876-1.066 4.296-1.594q2.199-.818 4.38-1.678 4.528-1.784 8.99-3.733c.016-.007.03.016.014.023q-4.275 1.95-8.634 3.7-2.178.873-4.375 1.697a39 39 0 0 1-4.647 1.642c-.033.008-.058-.04-.024-.057m-6.716-.652c1.34-.541 2.747-.924 4.119-1.379q2.116-.703 4.219-1.447 4.147-1.463 8.243-3.065c.016-.007.023.02.007.026a179 179 0 0 1-8.207 3.196q-2.042.734-4.103 1.416a42 42 0 0 1-4.264 1.302.025.025 0 0 1-.014-.049m-5.225-.998c2.17-.72 4.398-1.267 6.572-1.985q3.258-1.077 6.442-2.358c.029-.011.04.034.013.046a102 102 0 0 1-6.42 2.439 52 52 0 0 1-6.584 1.94.043.043 0 0 1-.023-.082m-4.5-1.073a36 36 0 0 1 5.118-1.737c1.8-.492 3.6-.976 5.413-1.412a.012.012 0 0 1 .006.022c-1.766.482-3.528.987-5.266 1.563-1.74.578-3.462 1.181-5.239 1.638-.043.012-.075-.055-.032-.074m-6.725-2.201a12 12 0 0 1 1.437-.146q.772-.06 1.541-.152 1.597-.194 3.165-.546c.01-.002.014.013.004.015a41 41 0 0 1-3.097.616 12.7 12.7 0 0 1-3.04.282c-.037-.003-.052-.06-.01-.069m-2.277-2.214 1.4-.077c.932-.052 1.866-.092 2.8-.135.01 0 .01.015 0 .016-.916.065-1.83.136-2.747.193l-1.346.084a12 12 0 0 1-1.4.061c-.023-.001-.031-.038-.006-.042a11 11 0 0 1 1.298-.1m-2.91-2.2a4 4 0 0 1 .456.004q.455.032.91.06a.03.03 0 0 1 0 .058q-.455.028-.91.06a4 4 0 0 1-.456.003 1.6 1.6 0 0 1-.431-.054.04.04 0 0 1 0-.076 1.6 1.6 0 0 1 .43-.054m-3.742-1.698a1.7 1.7 0 0 0 .886.089.033.033 0 0 1 .017.064 1.2 1.2 0 0 1-.475.042 1.4 1.4 0 0 1-.227-.047 1 1 0 0 1-.218-.108c-.02-.013-.007-.048.017-.04m-4.772-52.334q.104 1.499.204 2.998.047.735.087 1.47a10 10 0 0 1 .038 1.529c-.004.036-.06.051-.07.01a9 9 0 0 1-.114-1.421c-.023-.51-.049-1.02-.067-1.529l-.106-3.057c0-.018.027-.018.028 0m1.536 1.659c.084 1.063.17 2.126.244 3.19a25 25 0 0 1 .107 3.19c-.002.04-.07.056-.077.01a25 25 0 0 1-.22-3.138c-.038-1.084-.062-2.168-.088-3.252-.001-.023.033-.022.035 0m1.653 2.296a.022.022 0 0 1 .043 0l.18 2.999a18 18 0 0 1 .026 2.999c-.005.048-.083.07-.092.012a18 18 0 0 1-.158-2.952Zm1.498 2.933c.139 1.868.326 3.747.305 5.622a.022.022 0 0 1-.043 0c-.215-1.862-.225-3.75-.281-5.622 0-.012.018-.012.02 0m1.567 5.106c-.002-.852.007-1.703-.017-2.555 0-.02.03-.02.031 0 .055.867.112 1.736.123 2.605a16 16 0 0 1-.075 2.511c-.004.028-.044.018-.046-.006-.072-.847-.014-1.706-.016-2.555m1.423.772c.107.893.214 1.783.267 2.68.001.018-.028.022-.03.005a45 45 0 0 1-.256-2.685c-.001-.012.018-.012.02 0m1.249 3.803q.41 1.099.791 2.206c.006.017-.02.024-.026.008q-.412-1.099-.799-2.205c-.007-.022.026-.03.034-.01m-36.59 16.963c2.159-.602 4.369-.99 6.517-1.64.044-.012.06.054.019.069a25.7 25.7 0 0 1-6.525 1.652c-.047.004-.055-.068-.011-.08m-1.027-3.175a25.5 25.5 0 0 1 4.415-1.524q2.319-.682 4.668-1.25a.018.018 0 0 1 .01.034q-2.29.627-4.548 1.357c-1.492.483-2.98 1.126-4.51 1.466-.048.01-.082-.058-.035-.083m-6.631 1.43a4 4 0 0 1 1.111-.302c.419-.093.84-.178 1.26-.267q1.237-.26 2.473-.523c.01-.002.014.013.005.015l-2.45.61c-.4.1-.8.203-1.202.299a4.3 4.3 0 0 1-1.18.226.032.032 0 0 1-.017-.058m-6.01-1.359a15 15 0 0 1 2.255-.545q1.135-.248 2.267-.507 2.324-.532 4.637-1.112c3.043-.764 6.08-1.557 9.099-2.411a.023.023 0 0 1 .012.045 185 185 0 0 1-9.178 2.585q-2.252.567-4.516 1.088-1.191.274-2.386.536a12.6 12.6 0 0 1-2.179.401c-.05.002-.051-.064-.01-.08m-3.453-2.737c1.234-.268 2.496-.39 3.744-.589q1.876-.3 3.733-.703a75 75 0 0 0 7.328-1.979c.014-.004.02.018.006.023a75 75 0 0 1-7.41 2.122 38 38 0 0 1-7.386 1.242.059.059 0 0 1-.015-.115m-3.713-3.307a4.6 4.6 0 0 1 1.476-.166q.842-.036 1.678-.143c1.153-.148 2.306-.301 3.46-.448a64 64 0 0 0 6.95-1.305.014.014 0 0 1 .007.026 89 89 0 0 1-6.917 1.574 35 35 0 0 1-3.261.457 50 50 0 0 0-1.677.176 4.8 4.8 0 0 1-1.716.085.134.134 0 0 1 0-.256m-5.094-3.074a8.1 8.1 0 0 1 2.888-.219 27 27 0 0 0 3.101-.351c2.064-.18 4.123-.352 6.179-.607.019-.002.024.031.004.035-2.012.353-4.034.69-6.064.929-1.104.13-2.214.022-3.308.226a6.9 6.9 0 0 1-2.8.13.075.075 0 0 1 0-.143m.534-3.345a43 43 0 0 0 6-.462c.037-.006.053.049.016.056a23.6 23.6 0 0 1-6.016.457.025.025 0 0 1 0-.05m-5.117-.174a1 1 0 0 1 .426.015q.233.05.463.112c.3.08.601.163.907.223.022.005.012.037-.01.034-.31-.048-.623-.073-.936-.102a8 8 0 0 1-.447-.05 1 1 0 0 1-.417-.132.055.055 0 0 1 .014-.1m-2.681-2.409a6.2 6.2 0 0 1 1.604-.113c.575-.006 1.15-.006 1.725-.01 1.151-.005 2.3-.002 3.45-.039.02 0 .02.03 0 .032-1.149.085-2.299.18-3.45.235-.575.027-1.15.05-1.725.058a5.7 5.7 0 0 1-1.604-.091.037.037 0 0 1 0-.072m-1.784-2.613a5 5 0 0 1 .84.084q.47.066.943.097a16 16 0 0 0 1.797.035c.02-.001.02.029 0 .03a11 11 0 0 1-1.866.082 5 5 0 0 1-1.73-.274c-.027-.012-.011-.054.016-.055m-1.798-2.073a1 1 0 0 1 .368-.083 2.3 2.3 0 0 1 .409.008 3.5 3.5 0 0 1 .784.184.027.027 0 0 1-.015.053 5 5 0 0 0-.784-.073 11 11 0 0 0-.38-.002 1.7 1.7 0 0 1-.373-.02.037.037 0 0 1-.009-.067m-2.03-1.896a2.2 2.2 0 0 1 .458.075q.226.07.454.134a.037.037 0 0 1-.02.072q-.228-.047-.457-.088a2.2 2.2 0 0 1-.442-.142c-.024-.01-.024-.053.007-.05m130.058-46.445a33 33 0 0 0 3.323 4.06 28.3 28.3 0 0 0 3.9 3.513c.045.034.003.11-.046.078a24.6 24.6 0 0 1-4.085-3.36 21.8 21.8 0 0 1-3.119-4.275.016.016 0 0 1 .027-.016m54.907 10.42a21 21 0 0 1 2.92-1.128c1.022-.33 2.048-.662 3.096-.897.01-.002.018.013.008.018-.943.444-1.924.803-2.903 1.159a21.6 21.6 0 0 1-3.085.934c-.049.01-.087-.06-.036-.086m-2.418-.61a35 35 0 0 1 3.393-1.145 101 101 0 0 0 3.502-1.184c.024-.01.034.028.01.037-1.13.44-2.263.873-3.403 1.288a23 23 0 0 1-3.466 1.09c-.048.008-.088-.064-.036-.086m-4.308-1.211a6.5 6.5 0 0 1 1.41-.635q.765-.302 1.528-.607 1.578-.636 3.143-1.304c.014-.005.026.014.012.02q-1.518.706-3.05 1.382-.751.332-1.507.657a6.3 6.3 0 0 1-1.51.55.035.035 0 0 1-.026-.063m.167-1.662a20 20 0 0 0 2.224-.855c.01-.005.017.008.008.013a16 16 0 0 1-2.168.92 10.4 10.4 0 0 1-2.287.554c-.02.002-.023-.03-.005-.035.74-.212 1.494-.36 2.228-.597m-4.149-.64a10 10 0 0 0 1.155-.146 4.6 4.6 0 0 0 1.106-.372c.034-.017.063.031.03.05a3.58 3.58 0 0 1-2.297.51c-.025-.005-.016-.04.006-.042m-1.348-1.38c.195.001.39.014.586.022a.02.02 0 0 1 0 .039c-.195.007-.391.02-.586.021a4 4 0 0 1-.569-.02.022.022 0 0 1 0-.041 4 4 0 0 1 .569-.02m-138.581 23.94a43.5 43.5 0 0 0-5.717-2.389 73 73 0 0 0-6.232-1.992 95 95 0 0 0-3.106-.762c-.515-.12-1.035-.225-1.544-.374-.46-.134-.906-.495-1.396-.47-.272.014-.51.157-.785.174a6 6 0 0 1-.787-.062c-.562-.045-1.123-.103-1.687-.141q-1.573-.107-3.15-.092a34.4 34.4 0 0 0-6.957.795c-.03.006-.017.05.012.045a37 37 0 0 1 6.382-.64q1.52-.025 3.038.068.732.044 1.463.114a5.6 5.6 0 0 1 1.814.305 1.86 1.86 0 0 0 1.218.325 6.3 6.3 0 0 1 1.757.074c1.054.168 2.093.403 3.128.664a66 66 0 0 1 5.926 1.807c2.23.792 4.374 1.814 6.602 2.6.03.01.048-.035.021-.05"/><path fill="currentColor" d="M330.397 150.861a41.5 41.5 0 0 0-15.835-6.394c-.02-.004-.028.026-.009.03a49 49 0 0 1 8.088 2.493 59 59 0 0 1 7.72 3.932c.04.023.072-.036.036-.061m6.633 2.314c-.02-.016-.047.012-.027.027l.645.504c.012.009.028-.007.017-.017Zm13.982 8.737q-1.777-3.01-3.829-5.843c-.032-.044-.105-.003-.074.043q1.927 2.845 3.593 5.854c1.106 2.003 2.077 4.084 3.216 6.068.028.049.112.016.093-.04a35 35 0 0 0-3-6.082m-4.356-3.02a.04.04 0 0 0-.067.039 124 124 0 0 1 7.187 14.853c.03.069.144.02.121-.051a66 66 0 0 0-7.24-14.841m.878 5.37a.059.059 0 0 0-.1.06 79.3 79.3 0 0 1 5.453 12.85.035.035 0 0 0 .068-.019 45.3 45.3 0 0 0-5.42-12.89m1.384 6.912a.023.023 0 0 0-.045.013c.57 1.94 1.058 3.906 1.551 5.868.007.03.051.017.045-.013a54 54 0 0 0-1.551-5.868m.252 4.864c.004-.02-.026-.028-.03-.009a1.38 1.38 0 0 0 .118.907c.007.013.027.001.02-.012a1.35 1.35 0 0 1-.108-.886m43.644-13.159a9 9 0 0 1-1.764-2.31c-.014-.027-.055-.003-.041.024a8 8 0 0 0 1.772 2.318c.022.02.055-.012.033-.033m-.228-3.461a.027.027 0 0 0-.048.028 20.2 20.2 0 0 0 4.494 5.722c.03.026.073-.015.044-.044a29.8 29.8 0 0 1-4.49-5.706m4.727 1.657c-.03-.059-.116-.007-.088.051a21.8 21.8 0 0 0 3.476 5.227c.027.03.069-.013.044-.044a31 31 0 0 1-3.432-5.234m37-11.038a29 29 0 0 1-1.49-2.25.031.031 0 0 0-.054.032 18.3 18.3 0 0 0 3.15 4.378c.021.02.062-.008.043-.033-.547-.711-1.123-1.4-1.65-2.127m4.703 3.534c-.617-.798-1.365-1.492-2.042-2.24a81 81 0 0 1-1.987-2.28c-.028-.033-.087.012-.06.048a31 31 0 0 0 1.889 2.39 14.4 14.4 0 0 0 2.148 2.15c.043.031.08-.033.052-.068m-1.378-3.091a.023.023 0 0 0-.033.034c.862.883 1.729 1.762 2.65 2.585a.035.035 0 0 0 .05-.05c-.851-.895-1.758-1.733-2.667-2.568M526.4 188.12a13 13 0 0 1-1.111 1.442q-.291.327-.599.635c-.215.216-.45.42-.646.653a.047.047 0 0 0 .056.073 3.6 3.6 0 0 0 .72-.563 7 7 0 0 0 .625-.674 8.4 8.4 0 0 0 1.001-1.538.027.027 0 0 0-.047-.028m-3.015.786a20 20 0 0 1-1.92 1.38c-.037.027-.015.095.034.08a4.26 4.26 0 0 0 1.936-1.41.035.035 0 0 0-.05-.05m-29.703 4.211-1.626-1.316c-.035-.028-.085.022-.05.05l1.643 1.3c.023.018.057-.015.033-.034m5.07 1.07a167 167 0 0 0-4.203-2.442.023.023 0 0 0-.024.04 167 167 0 0 0 4.2 2.45.027.027 0 0 0 .027-.048m.151-24.837a20 20 0 0 0-3.186-1.764c-.036-.017-.068.035-.031.054a26 26 0 0 1 3.037 1.817c1 .688 1.898 1.486 2.84 2.247a.047.047 0 0 0 .067-.066 15 15 0 0 0-2.727-2.287m2.958 4.865a43.4 43.4 0 0 0-5.516-4.701c-.018-.013-.041.016-.024.03 1.844 1.558 3.626 3.187 5.49 4.72.035.029.082-.016.05-.049m-.517 1.666c-.407-.403-.81-.807-1.24-1.185q-.649-.568-1.32-1.105c-.024-.019-.056.011-.034.033q.604.61 1.235 1.19c.423.39.869.748 1.315 1.111.03.025.073-.015.044-.044M27.82 194.818a27 27 0 0 1-3.552-2.456c-.02-.016-.047.01-.028.027a20 20 0 0 0 3.557 2.47.023.023 0 0 0 .023-.041m2.1-.725a12 12 0 0 0-1.447-.885l-1.52-.86a.043.043 0 0 0-.044.073l1.5.897a12 12 0 0 0 1.485.821c.024.01.047-.03.026-.046m1.875-.98c-.589-.193-1.187-.354-1.783-.524a.02.02 0 0 0-.01.038c.592.182 1.182.372 1.78.531a.023.023 0 0 0 .013-.045m95.612 63.601L110.3 230.037l-17.106 26.677H106.8v90.066H93.194l17.107 26.677 17.106-26.677H113.8v-90.066zm319.612 0h13.606l-17.107-26.677-17.106 26.677h13.607v90.066h-13.607l17.106 26.677 17.107-26.677h-13.606z"/><path fill="none" stroke="#2b2b2b" stroke-miterlimit="10" stroke-width="2" d="M108.283 279.307q-1.619-.594-3.274-1.238s-1.183.533-3.219 1.367"/><path fill="none" stroke="#2b2b2b" stroke-dasharray="6.87856 6.87856" stroke-miterlimit="10" stroke-width="2" d="M95.376 281.917c-10.561 3.86-27.541 8.963-39.095 6.96-17.872-3.099-22.128-15.934-22.128-15.934s-8.697-10.688-15.157-15.011c-6.46-4.324-5.67-23.433-8.21-31.1s-9.23-13.548-9.182-20.543c.04-5.923-1.759-22.93 8.528-26.865"/><path fill="none" stroke="#2b2b2b" stroke-miterlimit="10" stroke-width="2" d="M13.488 178.669a18 18 0 0 1 3.496.046s-.125-1.4-.108-3.496"/><path fill="none" stroke="#2b2b2b" stroke-dasharray="7.51835 7.51835" stroke-miterlimit="10" stroke-width="2" d="M17.587 167.743c.8-4.03 2.448-8.075 5.758-10.002 4.957-2.886 9.846-3.228 13.868-1.838"/><path fill="none" stroke="#2b2b2b" stroke-miterlimit="10" stroke-width="2" d="M40.564 157.591a14 14 0 0 1 2.61 2.315 21.4 21.4 0 0 1 .348-3.476"/><path fill="none" stroke="#2b2b2b" stroke-dasharray="7.13024 7.13024" stroke-miterlimit="10" stroke-width="2" d="M45.932 149.762a10.96 10.96 0 0 1 8.306-5.345c7.489-.915 18.97 6.924 25.702 12.17"/><path fill="none" stroke="#2b2b2b" stroke-miterlimit="10" stroke-width="2" d="M82.728 158.825a91 91 0 0 1 2.66 2.273 23 23 0 0 1 .887-3.38"/><path fill="none" stroke="#2b2b2b" stroke-dasharray="7.35825 7.35825" stroke-miterlimit="10" stroke-width="2" d="M89.814 151.322c2.355-2.61 5.871-4.265 11.037-2.478 12.792 4.424 24.026 14.381 31.345 14.892s9.361 7.49 13.021 10.979a166 166 0 0 1 13.87 14.44"/><path fill="none" stroke="#2b2b2b" stroke-miterlimit="10" stroke-width="2" d="M161.315 192.088a30 30 0 0 1 1.86 2.967 7.8 7.8 0 0 1 3.157 1.439"/><path fill="none" stroke="#2b2b2b" stroke-dasharray="8.48903 8.48903" stroke-miterlimit="10" stroke-width="2" d="M172.06 202.737a90 90 0 0 0 7.966 7.127 19 19 0 0 1 1.532 1.35"/><path fill="none" stroke="#2b2b2b" stroke-miterlimit="10" stroke-width="2" d="M184.272 214.477a18.5 18.5 0 0 1 1.711 3.046 14.8 14.8 0 0 1 3.49-.074m5.509 1.229a22 22 0 0 1 3.171 1.476s.972-.859 2.732-2.184"/><path fill="none" stroke="#2b2b2b" stroke-dasharray="7.14044 7.14044" stroke-miterlimit="10" stroke-width="2" d="M206.778 213.94c7.033-4.37 17.706-9.54 29.503-10.119 20.814-1.021 25.588.464 29.021 5.702 3.433 5.239 3.087 19.132-11.49 29.021-14.576 9.89-16.998 16.865-41.605 19.156-8.181 1.866-14.87 7.627-19.586 12.93-4.534 5.097-27.05 28.386-80.971 9.873"/><path fill="none" stroke="#2b2b2b" stroke-miterlimit="10" stroke-width="2" d="M452.664 279.307q1.619-.594 3.274-1.238s1.183.533 3.22 1.367"/><path fill="none" stroke="#2b2b2b" stroke-dasharray="6.87856 6.87856" stroke-miterlimit="10" stroke-width="2" d="M465.57 281.917c10.563 3.86 27.542 8.963 39.096 6.96 17.873-3.098 22.128-15.934 22.128-15.934s8.697-10.688 15.157-15.011 5.67-23.433 8.21-31.1 9.23-13.548 9.183-20.543c-.04-5.923 1.758-22.93-8.529-26.865"/><path fill="none" stroke="#2b2b2b" stroke-miterlimit="10" stroke-width="2" d="M547.46 178.669a18 18 0 0 0-3.497.046s.125-1.4.108-3.496"/><path fill="none" stroke="#2b2b2b" stroke-dasharray="7.51835 7.51835" stroke-miterlimit="10" stroke-width="2" d="M543.36 167.743c-.8-4.03-2.448-8.075-5.758-10.002-4.957-2.886-9.846-3.228-13.868-1.838"/><path fill="none" stroke="#2b2b2b" stroke-miterlimit="10" stroke-width="2" d="M520.383 157.591a14 14 0 0 0-2.61 2.315 21.4 21.4 0 0 0-.348-3.476"/><path fill="none" stroke="#2b2b2b" stroke-dasharray="7.13024 7.13024" stroke-miterlimit="10" stroke-width="2" d="M515.015 149.762a10.96 10.96 0 0 0-8.306-5.345c-7.488-.915-18.97 6.924-25.702 12.17"/><path fill="none" stroke="#2b2b2b" stroke-miterlimit="10" stroke-width="2" d="M478.22 158.825a89 89 0 0 0-2.66 2.273 23 23 0 0 0-.887-3.38"/><path fill="none" stroke="#2b2b2b" stroke-dasharray="7.35825 7.35825" stroke-miterlimit="10" stroke-width="2" d="M471.134 151.322c-2.356-2.61-5.872-4.265-11.038-2.478-12.791 4.424-24.026 14.381-31.345 14.892s-9.361 7.49-13.02 10.979a166 166 0 0 0-13.871 14.44"/><path fill="none" stroke="#2b2b2b" stroke-miterlimit="10" stroke-width="2" d="M399.632 192.088a30 30 0 0 0-1.86 2.967 7.8 7.8 0 0 0-3.157 1.439"/><path fill="none" stroke="#2b2b2b" stroke-dasharray="8.48903 8.48903" stroke-miterlimit="10" stroke-width="2" d="M388.888 202.737a90 90 0 0 1-7.966 7.127 19 19 0 0 0-1.532 1.35"/><path fill="none" stroke="#2b2b2b" stroke-miterlimit="10" stroke-width="2" d="M376.675 214.477a18.5 18.5 0 0 0-1.71 3.046 14.8 14.8 0 0 0-3.49-.074m-5.51 1.229a22 22 0 0 0-3.171 1.476s-.972-.859-2.732-2.184"/><path fill="none" stroke="#2b2b2b" stroke-dasharray="7.14044 7.14044" stroke-miterlimit="10" stroke-width="2" d="M354.17 213.94c-7.034-4.37-17.706-9.54-29.504-10.119-20.814-1.021-25.588.464-29.021 5.702s-3.087 19.132 11.49 29.021 16.998 16.865 41.605 19.156c8.182 1.866 14.87 7.627 19.586 12.93 4.534 5.097 27.05 28.386 80.972 9.873"/></svg>