<svg xmlns="http://www.w3.org/2000/svg" data-name="cold" viewBox="0 0 624.573 493.883"><path fill="currentColor" d="M115.639 124.388c-.49-.709-.9-1.446-1.43-2.133a17.2 17.2 0 0 0-3.261-3.684c-1.337-.95-3.16-.973-4.721-1.239a62 62 0 0 0-2.381-.366c-.905-.118-1.818-.111-2.724-.224-.079-.01-.094.119-.018.138.783.194 1.523.502 2.292.741.806.25 1.62.474 2.43.715a13.1 13.1 0 0 1 4.235 1.724c1.206.929 2.325 2.01 3.466 3.018.631.557 1.337 1.016 1.965 1.57.626.553 1.129 1.225 1.727 1.805.021.021.062-.007.043-.033-.506-.706-1.129-1.317-1.623-2.032m39.191 27.276a122 122 0 0 1-11.674-7.18c-1.9-1.344-3.86-2.596-5.764-3.932-1.867-1.311-3.445-3.029-5.533-4.01a38 38 0 0 1-3.332-1.912c-1.119-.675-2.174-1.473-3.228-2.244-.025-.018-.057.023-.033.043a233 233 0 0 1 5.253 4.505c.402.354.722.786 1.126 1.144a13 13 0 0 0 1.43 1.136c.933.616 1.955 1.1 2.91 1.678 1.983 1.204 3.87 2.567 5.895 3.704 1.993 1.119 4.021 2.17 6.009 3.296a266 266 0 0 0 6.921 3.806c.023.012.042-.021.02-.034m-11.371-1.756c-2.374-1.478-5.015-2.517-7.175-4.32-.51-.427-.834-1.006-1.49-1.183a9.2 9.2 0 0 1-1.935-.8c-1.244-.653-2.537-1.192-3.806-1.794-.026-.012-.06.022-.033.043 1.043.828 2.054 1.693 3.163 2.433a9.7 9.7 0 0 1 1.769 1.345 1.4 1.4 0 0 0 .841.506 8 8 0 0 1 1.015.268c2.665.923 5.002 2.54 7.612 3.595.054.022.086-.064.039-.093m-22.43 2.725a60 60 0 0 1-6.117-3.348c-.499-.317-1.008-.627-1.489-.97a7.6 7.6 0 0 1-1.442-1.155c-.29-.352-.644-.64-.927-.994a6.4 6.4 0 0 0-.957-1.145 5 5 0 0 1-1.012-1.11c-.244-.351-.51-.684-.777-1.018a13.4 13.4 0 0 0-1.964-2.03c-.687-.566-1.351-1.156-2.033-1.727a4.1 4.1 0 0 0-1.177-.61 4.5 4.5 0 0 0-1.482-.215c-.559-.041-1.117-.183-1.678-.237a14 14 0 0 0-2.033.002c-1.369.067-2.737.196-4.102.314-.044.004-.046.072 0 .07a23.7 23.7 0 0 1 7.073.688 6.6 6.6 0 0 1 1.182.634 12 12 0 0 0 1.232.508c.405.147.84.18 1.244.34a6 6 0 0 1 1.296.698 13 13 0 0 1 2.128 1.878 10 10 0 0 1 .872 1.16 2.9 2.9 0 0 1 .355 1.476 2.98 2.98 0 0 0 1.725 2.24c.503.176.98.324 1.473.543.507.227 1.005.465 1.503.712 2.336 1.16 4.694 2.29 7.083 3.336.027.012.051-.027.024-.04m24.996-29.081c-.84-.817-1.718-1.589-2.577-2.385-.856-.794-1.597-1.715-2.48-2.48a5.6 5.6 0 0 0-1.329-.907 7 7 0 0 1-1.68-.869c-.903-.75-1.81-1.492-2.73-2.221-.915-.725-1.859-1.414-2.698-2.224-.768-.742-1.685-1.355-2.402-2.146a3.2 3.2 0 0 0-1.184-.956 17 17 0 0 0-1.592-.558c-.993-.322-1.997-.564-3-.847a15.3 15.3 0 0 1-3.367-1.612c-1.057-.612-2.126-1.182-3.15-1.85a.043.043 0 0 0-.052.067 27 27 0 0 0 4.945 3.858 21.4 21.4 0 0 0 2.704 1.462 49 49 0 0 1 2.972 1.289c.494.232 1.023.215 1.52.438a11 11 0 0 1 1.495.838c.963.628 1.89 1.25 2.803 1.953.93.717 1.85 1.448 2.783 2.16a6 6 0 0 1 1.554 1.352 6 6 0 0 0 .935 1.22 24 24 0 0 0 3.228 2.185c1.113.714 2.143 1.571 3.226 2.33.06.042.126-.049.076-.097m.95-3.172c-.759-.653-1.482-1.343-2.207-2.033-.708-.673-1.365-1.378-2.035-2.086a6 6 0 0 0-1.153-.91c-.432-.273-.926-.431-1.37-.684-.053-.03-.113.043-.066.086.358.327.631.729.979 1.065a8 8 0 0 0 1.074.89c.422.282.864.522 1.275.822a15 15 0 0 1 1.215 1.007 17.3 17.3 0 0 1 2.016 2.115 9 9 0 0 0 2.006 2.04c.07.048.137-.042.107-.107a6.6 6.6 0 0 0-1.84-2.205m15.398-50.854a13 13 0 0 0-1.326.7 6 6 0 0 0-.597.442 2 2 0 0 0-.271.251.5.5 0 0 0-.144.3.07.07 0 0 0 .066.066.56.56 0 0 0 .3-.11 2 2 0 0 0 .277-.221c.185-.162.381-.311.564-.475a12 12 0 0 1 1.155-.913.023.023 0 0 0-.024-.04m-4.107-1.438q-.308.209-.623.407a2.3 2.3 0 0 0-.29.228 1.1 1.1 0 0 0-.26.27.055.055 0 0 0 .062.08 1.1 1.1 0 0 0 .315-.18 2.3 2.3 0 0 0 .3-.232c.181-.171.361-.34.548-.506.036-.032-.012-.095-.052-.067m-75.145 7.22a5 5 0 0 0 .319-.55 2.3 2.3 0 0 0 .1-.517 3.26 3.26 0 0 1 .605-1.416 14.6 14.6 0 0 1 1.95-1.916c.807-.7 1.722-1.311 2.584-1.944a16.6 16.6 0 0 1 2.242-1.452c.059-.03.026-.113-.032-.116-2.004-.14-3.296 1.936-4.555 3.168-.752.735-1.555 1.422-2.316 2.15a10 10 0 0 1-1.21.9 2.23 2.23 0 0 0-.878 1.288 6.7 6.7 0 0 0-.174 2.846.774.774 0 0 0 1.32.52 6.7 6.7 0 0 0 1.516-2.078 14 14 0 0 1 1.622-2.44 11 11 0 0 1 1.277-1.123 12 12 0 0 1 1.456-1.123c1-.573 1.375-1.83 1.889-2.783a.031.031 0 0 0-.05-.038 13.4 13.4 0 0 0-1.97 1.781c-.25.316-.375.675-.612.99a5.7 5.7 0 0 1-1.07.943 13.3 13.3 0 0 0-2.982 3.536c-.24.377-1.155 2.055-1.633 1.835-.344-.158-.067-1.007.028-1.29a6.3 6.3 0 0 1 .574-1.17m7.634-4.119c-.699.763-1.432 1.49-2.145 2.24-.339.357-.679.708-.981 1.097-.254.326-.684.745-.483 1.186a.14.14 0 0 0 .125.072c.47.018.735-.57.974-.89.293-.391.565-.798.845-1.2.573-.822 1.124-1.657 1.714-2.468.021-.029-.025-.064-.049-.038M62.95 119.745c.114-1.174.397-2.297.611-3.452a.04.04 0 0 0-.075-.02 19.7 19.7 0 0 0-.685 5.344c-.014.938.064 1.864.095 2.8a3.6 3.6 0 0 1-.443 2.098 11.6 11.6 0 0 0-.63-2.82 8.2 8.2 0 0 1-.45-2.012 12.3 12.3 0 0 1 .076-2.005 35 35 0 0 1 .643-3.908c.303-1.303.756-2.559 1.08-3.853a.04.04 0 0 0-.072-.03 12.2 12.2 0 0 0-1.378 3.55 16.8 16.8 0 0 0-.535 3.908c-.01 1.344.024 2.665-.06 4.005a16.8 16.8 0 0 0 .435 4.155.423.423 0 0 0 .618.252c1.615-1.114.767-3.226.682-4.85a21 21 0 0 1 .088-3.162m-2.195-4.505a12.6 12.6 0 0 0-.953 6.149c.012.085.13.052.138-.019a49 49 0 0 1 .867-6.115.027.027 0 0 0-.052-.015m1.304 41.219q-.265-.752-.466-1.52a26 26 0 0 1-.645-6.76.043.043 0 0 0-.086 0 40 40 0 0 0 .043 6.625 13 13 0 0 0 .749 2.88 2.37 2.37 0 0 1-.03 1.635 6 6 0 0 0-.14.632 7.8 7.8 0 0 1-1.087-2.839 16 16 0 0 1-.34-2.11 10 10 0 0 1 .11-1.688 17 17 0 0 0-.38-3.642 31 31 0 0 1-.23-3.65c.001-.045-.065-.043-.07 0-.134 1.296-.28 2.593-.354 3.893a8.9 8.9 0 0 0 .254 3.79 28 28 0 0 1 .91 3.794 12.6 12.6 0 0 0 1.243 3.202.2.2 0 0 0 .361-.047c.11-.501.201-.993.33-1.492a5.4 5.4 0 0 0 .222-1.384 4.5 4.5 0 0 0-.394-1.32m-3.596-5.597c-.002-.014-.025-.015-.023 0 .117 1.023.233 2.045.364 3.066.002.02.033.02.031 0-.114-1.023-.244-2.044-.372-3.066m3.135 32.154c-.004-.325.04-.652.025-.976a6 6 0 0 0-.183-.99 6 6 0 0 1-.097-1.105 28 28 0 0 1 .2-4.332c.004-.031-.046-.037-.054-.007a25 25 0 0 0-.98 4.485 5.6 5.6 0 0 0 .055 2.234 7.6 7.6 0 0 0 1.167 1.917c.028.036.093.018.079-.033a4.7 4.7 0 0 1-.212-1.193m2.282 1.827c-.109-.392-.209-.785-.313-1.178a21 21 0 0 1-.529-2.43 22 22 0 0 0-.267-2.421.043.043 0 0 0-.083 0 7.4 7.4 0 0 0 .01 2.281c.062.72.119 1.442.236 2.156a16 16 0 0 0 .518 2.164l.165.52c.015.047.086.09.095.124.103.417-.245.944-.427 1.294a.027.027 0 0 0 .047.028 5 5 0 0 0 .453-.923c.07-.21.17-.381.237-.577a1.9 1.9 0 0 0-.143-1.038m31.827-6.212c-.611-.297-1.238-.566-1.86-.839-1.225-.537-2.449-1.077-3.676-1.61-.031-.014-.06.03-.028.047a76 76 0 0 1 3.45 1.998c.557.343 1.109.697 1.667 1.038.476.29 1.086.777 1.672.616a.166.166 0 0 0 .114-.202c-.166-.568-.85-.811-1.34-1.048m2.114-.13a6 6 0 0 0-1.315-.618q-.696-.294-1.387-.602c-.907-.402-1.816-.8-2.715-1.218-.045-.021-.085.044-.04.067.908.474 1.82.937 2.751 1.363q.687.314 1.379.617a5 5 0 0 0 1.303.478c.053.007.055-.063.024-.087m1.681.722c.017-.041-.008-.082-.03-.117a.15.15 0 0 0-.062-.083 1.3 1.3 0 0 0-.43-.137l-.205-.045c-.072-.016-.14-.04-.21-.063a.047.047 0 0 0-.036.086c.061.033.125.063.184.101l.184.12a1.3 1.3 0 0 0 .398.211.15.15 0 0 0 .114-.022c.037-.01.078-.016.093-.052m2.288-1.077a3.3 3.3 0 0 0-1.226-.61q-.71-.29-1.413-.6c-.916-.402-1.835-.802-2.742-1.225-.036-.016-.067.034-.032.054.88.507 1.767.991 2.683 1.428q.686.327 1.38.636a3 3 0 0 0 1.3.438.071.071 0 0 0 .05-.12m1.689-1.212q-.236-.086-.476-.158-.513-.157-1.02-.335c-.673-.236-1.348-.462-2.01-.726-.025-.01-.041.03-.018.043a18 18 0 0 0 1.925.923q.5.198 1.008.375.254.09.514.156a.57.57 0 0 0 .411.014.06.06 0 0 0 .021-.08.6.6 0 0 0-.355-.212m2.615-1.046a11 11 0 0 0-1.525-.44.074.074 0 0 0-.04.143l.78.201a5.4 5.4 0 0 0 .769.154c.03.003.044-.046.016-.058m31.168.273c-1.627-.42-3.26-.814-4.887-1.234-.636-.164-1.283-.322-1.93-.486.56.172 1.12.343 1.678.497 1.697.47 3.398.917 5.12 1.29.044.01.062-.056.018-.067m-6.815-1.72a48 48 0 0 0-2.157-.618c.708.233 1.43.434 2.157.618m-3.837-1.391c-.078-.093-.116-.229-.207-.324-.274-.285-.586-.255-.955-.282a14 14 0 0 1-2.563-.556c-1.658-.447-3.295-.976-4.923-1.52-.107-.035-.147.127-.046.166 1.609.62 3.228 1.212 4.836 1.836a17 17 0 0 1 2.431 1.05c.335.195.586.397.988.267a1.6 1.6 0 0 1 1.098-.103c.342.068.682.152 1.021.239-.295-.098-.59-.194-.878-.306a1.9 1.9 0 0 1-.802-.467m80.163 199.888c-.344-.679-.682-1.36-1.041-2.031-.032-.059-.115-.007-.088.051.321.69.665 1.371 1 2.055.043.085.172.01.13-.075m279.4-123.444a11.4 11.4 0 0 0-1.247-1.086c-.423-.342-.87-.652-1.312-.968-.047-.034-.105.041-.062.08.411.368.818.74 1.25 1.083a11 11 0 0 0 1.315.965.047.047 0 0 0 .056-.074m4.869 3.282a1 1 0 0 0-.137-.197 1.6 1.6 0 0 0-.38-.323 7 7 0 0 0-.832-.429 15 15 0 0 1-1.657-.874c-.035-.022-.062.03-.031.054a14 14 0 0 1 1.43 1.248 7 7 0 0 0 .723.63 1.5 1.5 0 0 0 .438.224.8.8 0 0 0 .23.045 1 1 0 0 0 .176-.039.12.12 0 0 0 .082-.144.7.7 0 0 0-.041-.195m2.392-.965a12.3 12.3 0 0 0-4.336-3.347c-.048-.024-.11.04-.062.08 1.425 1.136 2.822 2.326 4.308 3.384.074.053.137-.056.09-.117M127.02 223.702a20.2 20.2 0 0 0-4.48-.14c-1.488.168-2.975.435-4.444.725-2.952.584-5.814 1.495-8.727 2.235-2.916.74-5.848 1.486-8.737 2.325-1.45.422-2.848 1.012-4.284 1.488s-2.86.984-4.283 1.495c-1.53.55-3.065 1.07-4.549 1.73a81 81 0 0 1-5.013 2.062c-.033.012-.02.064.014.053a56 56 0 0 1 4.33-1.28c1.473-.362 2.897-.807 4.34-1.267 1.439-.459 2.884-.895 4.323-1.35q1.022-.325 2.046-.646c.767-.239 1.533-.394 2.307-.594 1.42-.366 2.794-.925 4.197-1.353q2.163-.659 4.347-1.236c2.886-.758 5.81-1.231 8.745-1.75 1.637-.289 3.276-.561 4.916-.829a33 33 0 0 0 4.993-1.36.157.157 0 0 0-.042-.308"/><path fill="currentColor" d="M590.374 177.148a13.7 13.7 0 0 0-1.681-3.637c-1.409-2.457-2.78-4.937-4.212-7.38a33 33 0 0 0-2.244-3.395 7.35 7.35 0 0 0-2.692-2.352 8.8 8.8 0 0 0-2.295-.616 17 17 0 0 0 .287-1.814q.24-1.513.45-3.031.422-3.03.734-6.073c.417-4.105.687-8.227.746-12.353a75 75 0 0 0-.033-3.432 22 22 0 0 0-.109-1.717 8 8 0 0 0-.137-.949q1.162-.675 2.34-1.325a12.3 12.3 0 0 0 3.723-2.713c2.347-2.84 1.515-6.86.115-9.928a30.6 30.6 0 0 0-2.617-4.474 6.27 6.27 0 0 0-3.972-2.899 11.4 11.4 0 0 0-1.979-.195 128.5 128.5 0 0 0-7.904-27.878 149 149 0 0 0-6.199-13.165 85 85 0 0 0-7.624-12.006c-5.558-7.225-12.744-13.51-21.555-16.317-4.83-1.539-9.907-1.735-14.934-1.896a81.7 81.7 0 0 1-14.937-1.658c-.364-.08-.722-.177-1.084-.261q-1.562-.674-3.125-1.33c-3.055-1.292-6.1-2.606-9.152-3.905-6.196-2.64-12.478-5.085-18.722-7.607-6.202-2.504-12.456-4.861-18.683-7.298q-9.34-3.656-18.674-7.323c-3.478-1.368-6.951-2.75-10.433-4.109-3.553-1.387-7.18-2.575-10.731-3.96-.025-.009-.043.033-.018.044 3.124 1.327 6.175 2.822 9.294 4.164 3.014 1.296 6.048 2.545 9.074 3.813l18.666 7.816c6.186 2.589 12.338 5.255 18.55 7.782l4.512 1.835-1.074-.38c-.088-.031-.144.106-.063.15a147 147 0 0 0 13.33 6.368 107 107 0 0 0 13.797 5.12 77 77 0 0 0 8.399 1.797c.338.09.672.198 1.013.28a.15.15 0 0 0 .179-.102c1.603.224 3.21.414 4.827.523 5.101.344 10.269.12 15.321 1.023 8.963 1.6 16.687 7.044 22.564 13.821a79 79 0 0 1 8.083 11.479 120 120 0 0 1 6.618 12.672 127.4 127.4 0 0 1 8.596 27.47c.196 1.019.373 2.04.545 3.062-.868.042-1.735.114-2.583.154-1.143.055-2.284.143-3.426.224-.544.038-1.08.088-1.618.17-.192.029-.422.032-.616.082a7 7 0 0 0-.905-.53c-2.232-1.076-4.73-.558-6.985.18a103.4 103.4 0 0 0-13.737 5.577q-1.818.9-3.602 1.864a9.5 9.5 0 0 0-2.644 1.693 9 9 0 0 0-.932-.187c-2.298-.314-4.546.555-6.704 1.22-2.272.7-4.545 1.389-6.855 1.957a39.7 39.7 0 0 1-7.044 1.032 123 123 0 0 1-14.523-.37c-2.47-.138-4.938-.301-7.402-.52-2.371-.21-4.752-.56-7.136-.56a8.4 8.4 0 0 1-.603-1.926 13 13 0 0 1-.254-2.522 20.3 20.3 0 0 1 .62-5.08c.945-3.974 2.366-7.86 3.592-11.752a20.4 20.4 0 0 1 2.234-5.493 52 52 0 0 1 3.703-4.18 22.7 22.7 0 0 0 4.615-8.877 23.4 23.4 0 0 0 .42-10.115 15.83 15.83 0 0 0-4.25-8.713 7.47 7.47 0 0 0-8.63-1.57c-2.98 1.471-4.869 4.53-6.632 7.21a100 100 0 0 1-6.801 9.35 53 53 0 0 1-3.962 4.258c-1.383 1.324-2.889 2.502-4.314 3.778a18.6 18.6 0 0 0-3.646 4.386 34 34 0 0 0-2.373 5.14 92 92 0 0 1-4.331 10.21 30.7 30.7 0 0 1-6.624 8.7c-2.833 2.508-6.123 4.434-8.971 6.926-5.508 4.818-8.085 11.737-10.048 18.592-2.015 7.036-3.846 14.114-6.385 20.989a90.4 90.4 0 0 1-7.064 14.916.5.5 0 0 0-.226.112.86.86 0 0 0-.252.67 82 82 0 0 1-2.277 3.55 82 82 0 0 1-2.315 3.197 155 155 0 0 1-18.353 7.889c-12.558 4.658-25.085 9.397-37.526 14.362q-18.44 7.36-36.607 15.383a1 1 0 0 0-.153-.085c-.455-.17-.936-.29-1.4-.434q-1.457-.454-2.913-.916-1.785-.568-3.575-1.09c-.512-.345-1.017-.698-1.545-1.021-1.652-1.015-3.387-1.91-5.081-2.853-3.326-1.849-6.679-3.649-10.013-5.483q-10.107-5.56-20.12-11.29-9.891-5.69-19.613-11.668c-6.107-3.773-12.187-7.614-18.013-11.812-3.17-2.285-6.33-4.598-9.345-7.085a132 132 0 0 1-4.353-3.761c-1.481-1.334-2.9-2.737-4.432-4.01a.2.2 0 0 0-.1-.035q-.561-.91-1.12-1.823c-.609-.99-1.318-1.928-1.894-2.938a7.6 7.6 0 0 1-.706-3.257 197 197 0 0 0-.643-6.505 85.5 85.5 0 0 0-2.403-12.934 51.5 51.5 0 0 0-5.025-11.963c-1.207-2.09-2.493-4.138-3.763-6.192-1.064-1.722-2.025-3.5-3.001-5.271-.028-.392-.047-.785-.086-1.177a46 46 0 0 0-.616-4.291 5.25 5.25 0 0 0-1.734-3.16 19 19 0 0 0-3.164-1.829q-1.668-.898-3.253-1.94a52.5 52.5 0 0 1-5.832-4.471 106 106 0 0 1-10.437-10.892c-3.3-3.857-6.418-7.912-9.91-11.598a10.7 10.7 0 0 0-3.13-2.43 10.2 10.2 0 0 0-3.839-.854c-1.352-.069-2.706.02-4.059-.018a24.3 24.3 0 0 1-4.096-.47c-5.407-1.081-10.346-3.697-15.054-6.471-2.29-1.349-4.613-3.12-7.242-3.727a5.76 5.76 0 0 0-6.359 2.602c-1.459 2.31-1.314 5.185-.776 7.755a24.9 24.9 0 0 0 2.448 6.628 29.8 29.8 0 0 0 9.32 10.26 39 39 0 0 0 6.58 3.512 28.3 28.3 0 0 1 7.107 4.299c.496.424.976.866 1.45 1.315.061.058.134.106.2.162.157.218.308.441.463.663a7 7 0 0 0 .547.671c-.198-.055-.398-.105-.595-.162-1.76-.501-3.472-1.132-5.21-1.699a27.7 27.7 0 0 1-4.97-2.207c-1.649-.926-3.165-2.23-5.035-2.689a19 19 0 0 0-3.462-.348c-1.15-.067-2.294-.195-3.438-.329a43 43 0 0 1-4.77-.787c-1.068-.677-2.101-1.419-3.123-2.16-2.273-1.649-4.493-3.354-6.734-5.047a147 147 0 0 0-14.469-9.267 20.3 20.3 0 0 0-7.445-2.971 65 65 0 0 0-8.75-.209h-4.464q-.564 0-1.131-.009c.192-.287.355-.6.532-.886q.605-.976 1.254-1.922a54 54 0 0 1 2.587-3.51 57.6 57.6 0 0 1 6.093-6.44 63.4 63.4 0 0 1 14.538-9.818 77.8 77.8 0 0 1 18.903-6.34 125 125 0 0 1 20.733-2.068 127.7 127.7 0 0 0 24.239-2.762.165.165 0 0 0-.044-.322c-3.565.123-7.126.325-10.687.533q.398-.16.794-.317c2.319-.913 4.671-1.763 6.958-2.75q6.951-3 13.86-6.098c9.167-4.113 18.256-8.396 27.193-12.99a195 195 0 0 0 7.281-3.919 54 54 0 0 0 6.905-4.643c.11-.087-.01-.281-.137-.235a60 60 0 0 0-6.805 2.888c-2.208 1.118-4.419 2.232-6.617 3.371q-6.595 3.42-13.292 6.635c-9.063 4.353-18.262 8.403-27.46 12.461-2.547 1.124-5.044 2.34-7.557 3.54-1.553.74-3.157 1.456-4.702 2.264a478 478 0 0 1-7.94.41c-3.673.15-7.35.219-11.015.509-3.338.263-6.667.682-9.964 1.271-12.68 2.267-24.942 7.255-34.817 15.645a56.4 56.4 0 0 0-7.007 7.086 56 56 0 0 0-3.065 4.078c-.467.687-.91 1.389-1.338 2.101q-.308.514-.603 1.034a4 4 0 0 1-.268.472.52.52 0 0 0-.512.3.7.7 0 0 0-.082.418c-.424.008-.848.023-1.27.056a7.06 7.06 0 0 0-3.71 1.305c-1.126.814-2.18 1.74-3.244 2.63-2.037 1.706-4.955 3.684-5.5 6.494a9.4 9.4 0 0 0-.037 2.088 12.3 12.3 0 0 0 .25 2.065 17 17 0 0 0 .65 2.245 9 9 0 0 0 .795 1.56 40 40 0 0 0-1.202 2.197 47.5 47.5 0 0 0-2.61 6.218 74.6 74.6 0 0 0-2.975 14.08c-.174 1.25-.354 2.5-.522 3.752-.074.554-.139 1.11-.207 1.666a3.9 3.9 0 0 0 .02 1.715c-.21.202-.419.409-.63.606-1.927 1.806-3.868 3.598-5.775 5.427a5.36 5.36 0 0 0-1.85 3.241 39 39 0 0 0-.297 3.98 17.1 17.1 0 0 0 .506 5.234c.064.607.139 1.213.234 1.817a4.54 4.54 0 0 0 2.95 3.798 11.7 11.7 0 0 0 2.775.568 6.8 6.8 0 0 0 1.59-.013 4 4 0 0 0 .463-.107c.02 1.083.08 2.167.109 3.25.031 1.154.045 2.308.051 3.462a19 19 0 0 0 .02 2.294l-.488.842-3.81 6.59c-1.148 1.987-2.193 3.905-1.946 6.28.24 2.3 1.187 4.463 1.587 6.738.385 2.184.744 4.652 2.549 6.165a4.7 4.7 0 0 0 2.676 1.192 2.7 2.7 0 0 0 .588-.03c-.046.455-.1.911-.124 1.369a7.5 7.5 0 0 0 .007 1.917 28.2 28.2 0 0 0-2.834 5.067c-.737 2.002-.454 4.133-.22 6.198l.42 3.702a5.8 5.8 0 0 0 .827 3.087 5.2 5.2 0 0 0 2.572 1.61 4.45 4.45 0 0 0 2.834-.068c-1.107 6.857-1.717 13.814-2.514 20.704q-1.416 12.226-2.83 24.453c-.922 8.022-1.808 16.062-1.99 24.141a179 179 0 0 0 1.232 24.088c1.805 15.96 4.963 31.766 7.864 47.555 2.86 15.567 5.86 31.114 9.418 46.539 1.776 7.7 3.69 15.368 5.796 22.985 2.075 7.511 4.142 15.152 7.109 22.369.48 1.168.973 2.316 1.487 3.457q.394 2.22.824 4.434c1.18 6.067 2.543 12.085 4.161 18.052q1.19 4.385 2.513 8.732a40 40 0 0 0 2.599 6.748 15.35 15.35 0 0 0 4.545 5.48 12.8 12.8 0 0 0 7.305 2.25c5.59.083 10.54-2.722 15.093-5.665q1.21-.783 2.423-1.555a246 246 0 0 0 37.243-6.714 353.8 353.8 0 0 0 109.066-47.636c18.125-11.92 34.845-25.67 50.813-40.286 2.85 4.263 5.978 8.337 8.9 12.552 3.27 4.714 6.45 9.486 9.614 14.272 6.14 9.29 12.24 18.624 18.96 27.512a170 170 0 0 0 20.443 22.949 105.7 105.7 0 0 0 25.509 17.463c4.99 2.406 10.126 4.492 15.25 6.59 1.225.502 2.453.992 3.68 1.487v.002a.128.128 0 0 0 .189.075c3.816 1.54 7.638 3.067 11.454 4.606l.359.146a94 94 0 0 0 4.063 3.352c4.643 3.589 10.268 6.676 16.334 5.828 4.775-.668 8.629-3.726 11.75-7.225 3.291-3.688 5.964-7.883 9.303-11.53 3.972-4.338 8.918-7.566 13.616-11.042a67 67 0 0 0 6.869-5.671 43 43 0 0 0 5.488-6.562 64.8 64.8 0 0 0 7.493-15.56 156 156 0 0 0 4.757-17.539 98.8 98.8 0 0 0 2.755-20.138 49 49 0 0 0-.257-5.067.133.133 0 0 0-.265 0 104 104 0 0 1-2.651 19.939 253 253 0 0 1-4.822 17.982 79.4 79.4 0 0 1-6.375 15.622 44.5 44.5 0 0 1-10.798 12.825c-4.485 3.654-9.437 6.7-13.804 10.504-3.866 3.368-6.807 7.475-9.943 11.491-2.771 3.548-5.87 7.295-10.113 9.11a13.1 13.1 0 0 1-7.113.896 21.4 21.4 0 0 1-8.031-3.295 67 67 0 0 1-7.106-5.37q-3.747-3.14-7.37-6.426-7.155-6.491-14.024-13.287c-1.1-1.09-2.165-2.217-3.256-3.318-.141-.142-.336.066-.216.216.23.286.472.563.705.848a97 97 0 0 1 2.023 6.55c.31 1.153.588 2.314.87 3.474q.227.928.438 1.86a6.8 6.8 0 0 0 .457 1.618q-1.455-.598-2.906-1.207a37 37 0 0 0-.98-3.74c-.401-1.466-.798-2.935-1.21-4.399l-2.471-8.783a.031.031 0 0 0-.06.016l2.218 8.854c.36 1.435.735 2.867 1.105 4.3.3 1.16.533 2.405.928 3.557a174 174 0 0 1-3.63-1.575 109 109 0 0 1-14.13-7.497 104 104 0 0 1-12.035-9.02 157 157 0 0 1-20.824-22.36c-6.741-8.646-12.808-17.794-18.848-26.935-3.12-4.722-6.231-9.449-9.422-14.123q-2.442-3.575-4.964-7.094c-1.633-2.273-3.237-4.616-5.052-6.75a79 79 0 0 0-1.754-1.987q5.662-5.208 11.207-10.545c20.112-19.32 39.384-39.51 60.01-58.291 8.156-7.426 16.532-14.608 25.203-21.422a.36.36 0 0 0 .115.375c.171.139.349.27.523.406a1.4 1.4 0 0 0 .488.38q.581.442 1.176.866c.038.08.07.165.113.244a.54.54 0 0 0 .56.236c2.804 1.944 5.784 3.656 8.68 5.45q4.735 2.935 9.363 6.04a2.4 2.4 0 0 0-.416.219c-.04.028-.003.094.04.067a1.4 1.4 0 0 1 .523-.189c.717.481 1.444.947 2.155 1.436a140 140 0 0 1 21.24 17.531 100 100 0 0 1 15.97 21.719 128.7 128.7 0 0 1 10.323 24.851 227 227 0 0 1 6.18 26.41c.191 1.1.348 2.205.507 3.309.03.207.388.16.368-.05a159 159 0 0 0-4.466-26.998 133 133 0 0 0-9.653-25.57 103.2 103.2 0 0 0-15.345-22.414 124 124 0 0 0-17.19-15.485c.879.46 1.757.92 2.629 1.394a129 129 0 0 1 12.296 7.458c7.3 5.105 14.024 11.438 18.635 19.121a43.4 43.4 0 0 1 5.458 13.56c.027.135.223.075.203-.056a40.4 40.4 0 0 0-4.045-12.709 54.6 54.6 0 0 0-7.702-11.115c-6.466-7.276-14.934-12.758-23.57-17.111q-3.802-1.916-7.697-3.64-.584-.258-1.168-.512a235 235 0 0 0-7.48-5.04c-1.78-2.654-3.768-5.19-5.772-7.671a90 90 0 0 0-6.524-7.43c.039-.054.071-.112.112-.165.282-.212.557-.433.84-.644 11.557-8.611 23.68-16.253 35.881-23.9 1.397-.876 2.785-1.76 4.178-2.639.44-.103.88-.203 1.323-.287a27 27 0 0 1 8.535.014c2.912.386 5.78 1.087 8.655 1.676 2.899.594 5.809 1.145 8.739 1.563a60.5 60.5 0 0 0 17.042.311c.076-.01.151-.026.227-.037a90.8 90.8 0 0 1 21.115 11.249 82.7 82.7 0 0 1 18.404 18.328 89 89 0 0 1 4.046 6.09c.77 1.267 1.546 2.542 2.375 3.778a199 199 0 0 1-4.038 27.495 224.5 224.5 0 0 1-8.99 30.083c-3.658 9.833-7.861 19.464-12.314 28.962-2.21 4.714-4.512 9.384-6.845 14.038-2.358 4.704-4.738 9.402-6.792 14.25q-.765 1.804-1.556 3.597c-.078.176.16.327.263.154 2.72-4.543 5.464-9.056 7.874-13.777q3.584-7.018 7.042-14.099c4.618-9.509 9.024-19.11 12.85-28.968a234 234 0 0 0 9.541-30.077 199 199 0 0 0 4.745-29.366.146.146 0 0 0 .087-.156c-.016-.07-.04-.14-.057-.21.07-.836.145-1.671.204-2.508a186 186 0 0 0-.489-32.802l-.013-.093c.41.15.854.248 1.203.361a7.1 7.1 0 0 0 2.79.519 13 13 0 0 0 2.117-.383c.879-.083 1.758-.166 2.632-.293a9.76 9.76 0 0 0 4.905-2.038 5.42 5.42 0 0 0 1.949-4.782 15.3 15.3 0 0 1-.13-3.241c.123-1.027.392-2.032.58-3.048a10 10 0 0 0-.62-6.184 28.6 28.6 0 0 0-3.411-5.157c-1.527-2.047-3.069-4.084-4.602-6.129q.17-.812.309-1.628a4.56 4.56 0 0 0 3.758 1.19 11 11 0 0 0 2.94-.956 13.3 13.3 0 0 0 2.63-1.43 4.06 4.06 0 0 0 1.432-2.379c.269-1.118.47-2.255.703-3.38.47-2.283.982-4.561 1.402-6.853a13.64 13.64 0 0 0-.285-6.8 25 25 0 0 0-2.731-5.65 49 49 0 0 0-4.058-5.418 46 46 0 0 0 1.04-4.701c.02-.102.034-.205.053-.307a9.5 9.5 0 0 0 1.485.327q.222.038.446.073a.18.18 0 0 0 .2.147c.126-.024.256-.033.383-.051q.54.083 1.081.138a8.7 8.7 0 0 0 1.992-.146c.416-.056.83-.14 1.244-.228a9.3 9.3 0 0 0 2.744-.592 9.5 9.5 0 0 0 4.686-4.585 25.9 25.9 0 0 0 2.08-7.616 10.9 10.9 0 0 0 .066-4.22m-156.97 304.499.135.12c-.096-.051-.19-.107-.287-.157-.859-.447-1.735-.865-2.61-1.287q-.019-.107-.041-.211a7.3 7.3 0 0 0-.446-1.359l-.07-.143q1.647 1.533 3.32 3.037m-4.298-3.964.044.075a11 11 0 0 1 .584 1.216 11 11 0 0 1 .344 1.071c-.806-.383-1.622-.74-2.435-1.108a11 11 0 0 0-.466-2.645c-.07-.233-.156-.459-.238-.687q1.078 1.045 2.167 2.078m-2.831-2.716.063.061c.15.43.288.866.396 1.31a19 19 0 0 1 .394 2.365c-.453-.203-.9-.42-1.355-.616-.35-.152-.706-.296-1.058-.446q-.073-.319-.14-.624a28 28 0 0 0-1.86-5.663q1.757 1.832 3.56 3.613m-3.908-3.985a33 33 0 0 1 1.212 3.444c.247.855.454 1.72.632 2.593.03.144.05.293.073.44-.946-.4-1.895-.791-2.845-1.182a37 37 0 0 0-.712-3.731 47 47 0 0 0-1.482-4.933q1.542 1.702 3.122 3.369m-5.331.061a73 73 0 0 0-.999-3.439 103 103 0 0 0-2.192-6.268q2.564 3.13 5.28 6.143c.51 1.657.963 3.335 1.32 5.03.253 1.2.436 2.41.63 3.617l-3.404-1.399a.16.16 0 0 0 .098-.132 6 6 0 0 0-.276-1.697q-.22-.93-.457-1.855m160.982-339.572c-.062.653-.076 1.307-.102 1.961-.051 1.308-.093 2.615-.144 3.922a198 198 0 0 1-.44 7.711q-.304 3.85-.794 7.682-.25 1.951-.552 3.895-.15.97-.312 1.937c-.052.31-.128.628-.164.946l-4.231-.586a84 84 0 0 1-8.417-1.309 32 32 0 0 1-8.055-3.702 18 18 0 0 1-1.199-.75 5.4 5.4 0 0 1 .676-1.048 7.2 7.2 0 0 0 1.261-2.529c.556-1.948 1.935-3.128 3.393-4.443 2.586-2.334 5.117-4.724 7.52-7.242.837-.42 1.686-.77 2.5-1.234a57 57 0 0 0 2.596-1.575c1.642-1.053 3.3-2.077 4.958-3.104.51-.315 1.025-.619 1.538-.926q-.014.201-.032.394m-26.187 19.139q-.453-.414-.902-.833a3.95 3.95 0 0 1 .164-2.03.045.045 0 0 0 0 .062 10 10 0 0 0 1.8 1.589c.242.165.496.311.75.457l-.006.017a12 12 0 0 1-.84 1.59l-.084-.073c-.295-.259-.591-.515-.882-.779m.812 1.169a3 3 0 0 0-.193.496 7 7 0 0 1-.745-.783 3.8 3.8 0 0 1-.65-1.218c.178.193.353.388.541.571.282.274.568.54.87.791.058.049.118.094.177.143m-132.823 24.62 1.363-.136c1.09-.108 2.18-.202 3.259-.4a66 66 0 0 1-2.964 2.156c-.898-.064-1.796-.047-2.7-.024h-.03c.374-.52.718-1.062 1.072-1.596m-1.358 1.976 1.174-.01q.72-.009 1.434-.07-2.435 1.633-4.992 3.074c.84-.96 1.63-1.965 2.384-2.994M134.536 58.713c1.429.839 2.872 1.67 4.333 2.47.088 1.374-1.47 2.594-2.686 2.89a6.24 6.24 0 0 1-4.603-.94 10.7 10.7 0 0 1-1.694-1.458 9 9 0 0 1-.653-.87c-.218-.3-.556-.59-.511-.982a4.92 4.92 0 0 1 2.314-3.14c1.25.588 2.44 1.408 3.5 2.03m-77.194 49.443a100 100 0 0 1 2.653-14.372 56 56 0 0 1 2.657-7.069c.53-1.185 1.124-2.332 1.72-3.484a16 16 0 0 0 .828-1.7c.03-.082.06-.171.09-.257a10.6 10.6 0 0 0 2.408 1.583 17 17 0 0 0 3.147 1.14c.438.108.884.213 1.328.324.176.088.354.172.528.264a45 45 0 0 1 7.51 5.163c2.304 1.894 4.554 3.851 6.887 5.71a79 79 0 0 0 3.557 2.69 31 31 0 0 1 3.601 2.528c1.159 1.102 1.7 2.73 2.423 4.12a27 27 0 0 0 2.072 3.762q-.464.097-.943.174a18.7 18.7 0 0 1-3.556.313 38 38 0 0 1-3.848-.363c-5.264-.69-10.542-1.24-15.84-1.588-2.562-.169-5.136-.329-7.704-.333a11.9 11.9 0 0 0-6.593 1.574 23 23 0 0 0-3.329 2.747c.186-.964.27-1.971.404-2.926m.532 87.161c-.737-.325-1.707-.677-2.012-1.499a12.2 12.2 0 0 1-.375-2.78l-.333-2.962c-.215-1.918-.451-3.87.333-5.696a38 38 0 0 1 2.845-4.826c.954-1.54 1.803-3.413 3.348-4.454a27.5 27.5 0 0 1 4.871-2.28 143 143 0 0 1 10.757-3.946 182 182 0 0 1 6.036-1.854c.693-.198 1.39-.381 2.085-.567a1.9 1.9 0 0 0-.955 1.015.1.1 0 0 0 .069.12c.65.173 1.378-.339 1.945-.607.763-.36 1.537-.69 2.309-1.03a42 42 0 0 1 4.693-1.948 5.8 5.8 0 0 1 2.376-.262 11.7 11.7 0 0 1 2.29.653c1.634.547 3.304.968 4.975 1.384a.106.106 0 0 0 .082-.192c-2.961-1.762-6.169-4.036-9.783-3.077a24 24 0 0 0-4.824 2.168c-.17.089-.332.189-.5.28h-.021c-.502.037-1 .12-1.496.206-.654.114-1.305.251-1.954.392-1.614.07-3.23.04-4.84.16-2.128.162-4.243.385-6.367.59a90 90 0 0 1-6.392.4 14 14 0 0 0-3.177.196 9.9 9.9 0 0 0-2.646 1.07c-.996.591-1.962 1.24-2.936 1.867a7.16 7.16 0 0 0-2.472 2.048.047.047 0 0 0 .04.07 4.2 4.2 0 0 0 1.641-.435 16 16 0 0 0-.624 2.915 4.4 4.4 0 0 1-1.006-.185 4.03 4.03 0 0 1-1.923-1.346c-1.188-1.544-1.262-3.776-1.635-5.612-.43-2.113-1.44-4.177-1.418-6.364.022-2.15 1.484-4.067 2.518-5.856l3.25-5.623a.5.5 0 0 0 .153-.147 3 3 0 0 0 .232-.52c.535-.927 1.039-1.883 1.631-2.774a4.2 4.2 0 0 1 2.338-1.735c2.148-.703 4.388-1.202 6.59-1.71q3.44-.796 6.919-1.41c2.322-.41 4.898-.576 6.987-1.774a7.2 7.2 0 0 0 2.106-1.98 3.96 3.96 0 0 0 .807-2.598.07.07 0 0 0-.138-.019 5.6 5.6 0 0 1-.82 1.302 4.8 4.8 0 0 1-1.055 1.102 7 7 0 0 1-.488.305 9.3 9.3 0 0 0-2.482-.761c-1.06-.15-2.132-.208-3.2-.285l-6.652-.475a30.3 30.3 0 0 1-6.173-.869 9.7 9.7 0 0 0-2.93-.526 7.6 7.6 0 0 0-2.437.556c-.907.328-1.786.728-2.685 1.077a4.65 4.65 0 0 1-2.867.418.051.051 0 0 0-.039.093 3.7 3.7 0 0 0 1.998.707 7 7 0 0 0 .993-.077q-.037.384-.056.77c-.087-.039-.172-.084-.26-.118a11 11 0 0 0-1.348-.414c-.791-.19-1.604-.298-2.386-.527a2.73 2.73 0 0 1-1.709-1.24 6.7 6.7 0 0 1-.729-2.023 30.3 30.3 0 0 1-.67-5.54 33 33 0 0 1-.01-1.262q.096-1.086.224-2.169a5.2 5.2 0 0 1 .403-1.79 5 5 0 0 1 1.106-1.286c1.868-1.742 3.743-3.474 5.61-5.216l2.906-2.71a18.5 18.5 0 0 1 2.553-2.116c1.972-1.264 4.283-1.318 6.552-1.228 2.562.102 5.124.262 7.682.442 5.132.362 10.24.923 15.34 1.592a31 31 0 0 0 4.328.345 9.6 9.6 0 0 0 3.775-.611 8.77 8.77 0 0 0 4.504-4.346c.06-.135-.124-.25-.203-.118a5.7 5.7 0 0 1-2.333 2.102 6 6 0 0 1-1.14.458 19.7 19.7 0 0 0-1.251-3.507 29 29 0 0 0-1.89-4.247 10.1 10.1 0 0 0-3.286-2.86 60 60 0 0 1-3.727-2.664c-2.424-1.866-4.734-3.873-7.084-5.83-2.335-1.944-4.752-4.113-7.557-5.352-.798-.353-1.64-.583-2.45-.91-.83-.334-1.66-.672-2.492-1.003-1.062-.423-2.143-.86-3.248-1.193a8 8 0 0 1-.903-.586 17 17 0 0 1-1.349-1.19 10.3 10.3 0 0 0-1.424-1.034c-.026-.017-.048.015-.038.037a6.8 6.8 0 0 0 .78 1.535 12 12 0 0 0 .898 1.034 9.2 9.2 0 0 0-1.177 1.56c-.08.116-.143.244-.219.363a11 11 0 0 0-.213-1.125c-.159-.614-.33-1.222-.455-1.845a6.63 6.63 0 0 1 .1-3.858 11 11 0 0 1 .726-1.65 8 8 0 0 1 1.106-1.377 38 38 0 0 1 2.897-2.569c1.026-.863 2.052-1.732 3.108-2.56a5.9 5.9 0 0 1 3.49-1.372c2.796-.156 5.633-.02 8.433-.017a77 77 0 0 1 8.416.148 18.1 18.1 0 0 1 7.102 2.774 157 157 0 0 1 13.71 8.692c2.422 1.779 4.716 3.732 7.204 5.422a29 29 0 0 0 3.855 2.09 18.8 18.8 0 0 0 4.197 1.55.133.133 0 0 0 .103-.243c-.2-.139-.407-.261-.61-.394l.123.04a27.4 27.4 0 0 0 6.116.848 8.2 8.2 0 0 1 2.946.558 23 23 0 0 1 2.528 1.52 45 45 0 0 0 4.748 2.525c6.722 3.112 14.29 3.74 21.53 4.863q3.13.486 6.236 1.145c2.052.439 4.077 1.03 6.157 1.325.11.015.196-.13.081-.193a21.2 21.2 0 0 0-5.087-1.81 107 107 0 0 0-5.461-1.217c-3.625-.722-7.272-1.361-10.878-2.175-.76-.172-1.519-.36-2.276-.55-.017-.042-.03-.084-.05-.125a2.4 2.4 0 0 0-.64-.759c-.497-.438-.984-.886-1.51-1.29-.486-.37-.88-.818-1.336-1.22-.252-.221-.505-.435-.753-.654l-.067-.07a43 43 0 0 0-2.838-2.638c-2.057-1.73-4.645-2.531-7.016-3.71a29.35 29.35 0 0 1-10.324-8.465 25.2 25.2 0 0 1-3.308-5.767 18 18 0 0 1-1.518-7.126c.073-2.2 1.193-4.738 3.573-5.209a5.2 5.2 0 0 1 2.634.233 5.76 5.76 0 0 0-2.144 3.702c-.12.847.649 1.347 1.282 1.76a19.4 19.4 0 0 0 2.45 1.52 10.8 10.8 0 0 0 2.574.916 8.5 8.5 0 0 0 2.536-.028c1.415-.167 2.95-.94 3.2-2.406a49 49 0 0 0 8.945 3.812 28 28 0 0 0 7.668 1.212c1.98.021 4.068-.175 5.958.41l-.038.008a7.2 7.2 0 0 0-1.763.714 7.45 7.45 0 0 0-2.76 2.191 7.3 7.3 0 0 0-.834 1.973c-.062.2-.127.394-.203.589a2.6 2.6 0 0 1-.227.582c-.084.107-.203.138-.282.256a.63.63 0 0 0 .509.968c.33.029.47-.206.565-.478a14 14 0 0 1 .622-1.913 5.5 5.5 0 0 1 1.445-1.773 19 19 0 0 1 1.93-1.212.04.04 0 0 0-.03-.072 4.36 4.36 0 0 0-2.574 1.703 7.6 7.6 0 0 0-.904 1.34 15 15 0 0 0-.575 1.503c-.065.164-.13.27-.283.106.069.073-.032-.113-.047-.136-.027-.044-.097-.1-.112-.14-.035-.097.011.003.007-.078a2.7 2.7 0 0 1 .138-.606 9.5 9.5 0 0 1 .68-2.019 4.3 4.3 0 0 1 2.644-2.229 17 17 0 0 1 1.795-.335 5 5 0 0 1 1.816-.22.4.4 0 0 0 .066.004c.017.01.036.017.053.029a14.6 14.6 0 0 1 2.758 2.615q1.205 1.359 2.38 2.743c1.582 1.852 3.14 3.725 4.708 5.588a144 144 0 0 0 9.778 10.77 55.7 55.7 0 0 0 11.337 8.692c1.02.573 2.109 1.04 3.1 1.661a4.05 4.05 0 0 1 1.84 2.907c.575 2.811.87 5.69 1.265 8.53.208 1.49.377 2.98.478 4.481a.227.227 0 0 0 .453 0c.057-1.758.09-3.51.058-5.26.34.805.71 1.6 1.1 2.382.964 1.931 2.063 3.795 3.143 5.661a55.7 55.7 0 0 1 5.331 11.9 77.5 77.5 0 0 1 2.566 12.85c.27 2.2.483 4.407.672 6.616a20 20 0 0 0 .395 3.391 9.9 9.9 0 0 0 1.571 2.94c1.535 2.275 3.275 4.419 4.883 6.643 1.596 2.207 3.283 4.347 4.959 6.494.097.124.29-.035.215-.166a396 396 0 0 0-4.724-7.868 62 62 0 0 0 5.141 5.25 102 102 0 0 0 8.092 6.885c5.657 4.273 11.635 8.115 17.644 11.87 13.111 8.193 26.545 15.857 40.08 23.326q5.635 3.11 11.292 6.182c.438.237.884.463 1.324.698-.302-.088-.606-.17-.907-.26-1.011-.304-2.019-.628-3.039-.9-1.022-.273-2.061-.462-3.076-.761-.065-.02-.085.073-.027.098.99.417 1.925.934 2.91 1.36.94.405 1.895.77 2.848 1.14 1.943.756 3.875 1.542 5.815 2.307a90 90 0 0 0 5.767 2.038q1.224.39 2.45.771c-11.148 5.023-22.144 10.387-33.367 15.244-11.72 5.072-23.786 9.403-36.377 11.711-10.103 1.852-20.35 2.609-30.582 3.403l-.042-.044a75 75 0 0 0-2.568-2.507 7.3 7.3 0 0 0-1.003-1.31q-1.059-1.143-2.18-2.224a71 71 0 0 0-4.595-4.053c-3.235-2.628-6.644-5.03-10.077-7.39-3.437-2.36-6.902-4.685-10.246-7.177a104 104 0 0 1-9.395-8.034 44.4 44.4 0 0 0-5.215-4.443 17.7 17.7 0 0 0-2.717-1.52c1.547-.222 3.074-.435 4.607-.765.102-.022.073-.172-.024-.176-5.728-.263-11.55.085-17.227-.929a32.7 32.7 0 0 1-8.076-2.669 51 51 0 0 0-7.99-3.044c-5.476-1.505-11.147-2.132-16.63-3.605-5.7-1.531-10.843-4.56-16.543-6.07-3.151-.834-6.38-1.371-9.483-2.389a26 26 0 0 1-4.105-1.714 16.5 16.5 0 0 1-1.819-1.122 21 21 0 0 1-.893-.664 7 7 0 0 0-.928-.553.09.09 0 0 0-.123.123 4.7 4.7 0 0 0 1.002 1.488 13.5 13.5 0 0 0 1.489 1.284c.117.089.238.172.357.26-1.132-.297-2.264-.586-3.38-.947-1.289-.418-2.514-1.002-3.8-1.418a11.5 11.5 0 0 0-4.188-.466c-2.788.152-5.574.372-8.36.552l-4.18.269c-1.345.086-2.708.118-4.043.31a10 10 0 0 0-1.111.203 6 6 0 0 0-1.01.45 34 34 0 0 0-1.63.855c-.266.144-.548.301-.84.453a.6.6 0 0 0-.424.207 3.87 3.87 0 0 1-2.62.44c-.02-.006-.04.024-.022.04a2.67 2.67 0 0 0 2.376.6c-.128.703-.257 1.407-.374 2.113-.8-.306-1.611-.58-2.394-.925m.868-26.42c.792-.41 1.583-.822 2.378-1.227a7.9 7.9 0 0 1 2.623-1.146 14 14 0 0 1 1.473.062c.524.008 1.05.005 1.574-.001a72 72 0 0 0 8.569-.618q-4.907 1.533-9.664 3.494a22.7 22.7 0 0 0-5.347 2.6 10 10 0 0 0-2.17 2.515c.018-.43.027-.859.063-1.287.014-.17.038-.34.058-.51l.004-.007a.16.16 0 0 0 .012-.14c.145-1.19.381-2.373.45-3.568a.5.5 0 0 0-.023-.168m-2.249-33.76c.122-.032.243-.061.364-.097a18 18 0 0 1 2.504-.628 6.4 6.4 0 0 1 2.694.26 29 29 0 0 0 2.989.752 37 37 0 0 0 3.205.356c2.207.165 4.416.314 6.624.47 1.272.09 2.545.202 3.82.247.277.01.56.018.84.018a56 56 0 0 1-6.77 1.318q-3.65.682-7.26 1.563-1.774.434-3.536.915a10.2 10.2 0 0 0-3.105 1.183 6.2 6.2 0 0 0-1.67 1.82q-.031-1.724-.121-3.446a33 33 0 0 0-.578-4.731m159.505 116.87q-2.248.178-4.494.366c-.922.079-1.846.165-2.77.248a10 10 0 0 0-.259-1.335c-.516-2.205-.957-4.445-1.583-6.622a13 13 0 0 0-.645-1.773c1.493 1.205 2.957 2.446 4.352 3.764q1.241 1.173 2.414 2.415a9.2 9.2 0 0 0 1.807 1.616c.386.447.782.884 1.178 1.322m-159.96-2.915a11 11 0 0 0 1.272-.987 30 30 0 0 1 2.27-1.645 71 71 0 0 1 4.747-2.918 40 40 0 0 1 2.466-1.236c.842-.395 1.627-.848 2.443-1.291a45 45 0 0 1 5.42-2.26c1.956-.75 3.914-1.515 5.797-2.433.019-.01.003-.035-.015-.027q-2.732 1.212-5.519 2.286c-1.768.678-3.55 1.391-5.377 1.894-.932.256-1.866.416-2.775.752-.893.331-1.774.692-2.66 1.039a28 28 0 0 0-5.003 2.416 28 28 0 0 0-2.619 1.91c-.06.05-.131.107-.202.163 1.708-15.707 3.78-31.377 5.355-47.097.2-1.992.348-3.976.435-5.975a15 15 0 0 1 2.082-.736 15 15 0 0 1 1.787-.24c.683-.07 1.37-.11 2.057-.15l4.303-.252q4.24-.249 8.483-.486a17.6 17.6 0 0 1 4.248.01c1.345.257 2.68.673 3.998 1.045 1.464.414 2.946.78 4.427 1.126a16.3 16.3 0 0 0 3.75.501 58 58 0 0 0 7.885 2.523 68 68 0 0 1 8.663 2.808c2.776 1.151 5.506 2.424 8.372 3.344 5.523 1.772 11.313 2.422 16.94 3.767a44 44 0 0 1 8.103 2.709 44.4 44.4 0 0 0 8.269 3.163c.883.207 1.776.37 2.674.505a40 40 0 0 0-3.459.266c-2.274.277-4.546.592-6.802.997a51.5 51.5 0 0 0-6.942 1.822c-.023.008-.02.05.007.046 2.017-.235 4.021-.481 6.028-.794 2.103-.329 4.202-.68 6.326-.84a53 53 0 0 1 12.393.31 42 42 0 0 1 3.012.629c.484.116.973.204 1.456.32a1.24 1.24 0 0 0 .821.002l.205.055.917.247q2.118 1.665 4.081 3.507c-.086.002-.172 0-.258.006a9.6 9.6 0 0 0-2.737-.743 51 51 0 0 0-4.248-.568 79 79 0 0 0-8.515-.317c-2.885.032-5.77.166-8.647.375a68 68 0 0 0-4.35.436c-1.409.194-2.794.497-4.196.728-1.61.265-3.225.483-4.825.803-1.636.328-3.243.794-4.862 1.193-.075.019-.042.123.03.113 2.884-.414 5.8-.682 8.693-1.024 2.827-.333 5.693-.361 8.532-.579a111.6 111.6 0 0 1 16.826-.229c1.56.118 3.117.29 4.662.541q1.184.193 2.37.38l.183.028a.4.4 0 0 0 .287.142 2 2 0 0 1 .204-.008c.072.01.144.053.216.069.04.009.054-.033.033-.06a19 19 0 0 1 2.552.708.5.5 0 0 0 .223.023q1.245 1.144 2.51 2.262c-1.613-.372-3.263-.589-4.904-.804a98 98 0 0 0-6.643-.624 117 117 0 0 0-13.432.01 180 180 0 0 0-26.602 3.594c-8.902 1.822-17.695 4.135-26.44 6.594q-6.457 1.815-12.894 3.704c-4.184 1.225-8.358 2.505-12.425 4.083-7.675 2.976-15.147 7.216-21.014 13.06-.349.347-.68.709-1.002 1.077.162-1.924.354-3.846.554-5.768m76.982 219.764q-2.418.439-4.838.869c.463-.276.916-.567 1.386-.833a110 110 0 0 1 3.943-2.114c2.22.197 4.478.197 6.698.29.721.03 1.442.027 2.163.037q-4.667.905-9.352 1.751m11.836-2.243a85 85 0 0 0-4.647-.316c-1.753-.063-3.526-.19-5.29-.229.385-.192.766-.393 1.153-.582a240 240 0 0 1 4.974-2.353c2.477.279 4.958.53 7.434.824q2.295.273 4.59.551c.395.048.792.087 1.188.131q-4.691 1.03-9.402 1.974m10.906-2.307-.209-.028q-1.119-.159-2.241-.295l-4.711-.566c-2.244-.268-4.507-.542-6.77-.646 2.487-1.144 4.983-2.27 7.466-3.425l.418-.196c.683.134 1.36.303 2.02.437q2.497.51 5 .995l4.886.942c1.044.2 2.113.46 3.184.641q-4.51 1.13-9.043 2.141m15.981-3.965c-1.938.54-3.882 1.047-5.828 1.543-1.43-.412-2.964-.6-4.41-.875l-5.256-1c-1.712-.326-3.428-.63-5.144-.938l-.881-.16a152 152 0 0 0 5.413-2.663c3.41.432 6.823.817 10.216 1.377q2.462.406 4.91.897c1.425.286 2.85.654 4.29.873-1.103.318-2.204.638-3.31.946m3.599-1.029a39 39 0 0 0-4.75-1.083q-2.511-.488-5.038-.887c-3.248-.513-6.525-.96-9.81-1.15a83 83 0 0 0 6.566-3.783c3.548.924 7.11 1.785 10.694 2.56 1.873.404 3.75.78 5.632 1.14 1.558.298 3.109.606 4.681.782q-3.974 1.253-7.975 2.421m249.535-171.855a4.6 4.6 0 0 0-.06-1.5 8 8 0 0 1 .007-.878l.456.534c.633.74 1.289 1.459 1.939 2.184.621.693 1.241 1.386 1.878 2.064a186 186 0 0 0-4.22-2.403m7.755.807c1.952 2.387 3.782 4.863 5.65 7.313-.918-.594-1.83-1.2-2.756-1.782a395 395 0 0 0-5.22-3.209c-.844-1.032-1.743-2.019-2.643-3.005-.637-.698-1.266-1.406-1.92-2.088l-.873-.912c.028-.244.053-.489.104-.73a8.3 8.3 0 0 1 1.318-2.997c2.091 2.487 4.28 4.893 6.34 7.41m125.728-2.268-.1-.163q-1.05-1.721-2.193-3.383a71 71 0 0 0-4.994-6.437 74 74 0 0 0-11.873-10.756 68.5 68.5 0 0 0-7.93-4.769.063.063 0 0 0-.063.108 68 68 0 0 1 6.658 4.746 77 77 0 0 1 6.007 5.051 82 82 0 0 1 10.375 12.074q1.275 1.814 2.439 3.703c.51.83.973 1.786 1.583 2.59-.033.851-.062 1.702-.107 2.552-.04.74-.093 1.48-.14 2.221q-.36-.724-.755-1.415-1.65-2.887-3.554-5.614a84 84 0 0 0-8.47-10.269 82.1 82.1 0 0 0-21.257-15.844 71 71 0 0 0-9.81-4.168 34.5 34.5 0 0 0 5.477-1.548c2.546-.97 4.902-2.39 7.471-3.292a14 14 0 0 1 2.135-.575c.737-.132 1.479-.184 2.203-.386.067-.02.13-.048.197-.068a1.6 1.6 0 0 0 .743.631 6.5 6.5 0 0 0 3.234.31 13 13 0 0 0 3.174-.916 2.97 2.97 0 0 1 1.575-.28 13.5 13.5 0 0 1 1.752.619 57 57 0 0 1 12.565 6.293c1.006.665 1.986 1.364 2.975 2.053a31 31 0 0 0 .076 3.914q.157 2.008.282 4.017.261 4.096.35 8.2c.015.71.011 1.422.02 2.133a97 97 0 0 0-2.678-2.977 70 70 0 0 0-6.692-6.1c-.042-.035-.1.022-.06.06 1.95 1.897 3.692 3.984 5.504 6.01.89.996 1.77 2.005 2.584 3.065q.61.792 1.224 1.579l.135.168c.009 2.288-.003 4.576-.062 6.863m14.507-94.524q-.222 1.21-.454 2.416c-.234 1.2-.526 2.39-.786 3.586-.863-.972-1.74-1.929-2.618-2.875a21 21 0 0 0-2.603-2.435c-.934-.715-1.958-1.295-2.947-1.928q-.348-.222-.704-.435c.208-.077.418-.136.594-.182a4.6 4.6 0 0 0 1.3-.488c.354-.221.536-.47.969-.481a23 23 0 0 1 2.907.22c.975.099 1.93.258 2.895.424a16 16 0 0 1 1.842.442 7.5 7.5 0 0 0-.395 1.736m15.615-9.756c-.227 1.286-.458 2.575-.806 3.836-.683 2.474-1.91 5.01-4.269 6.273a11.9 11.9 0 0 1-3.916.956 11 11 0 0 0-1.275.273c-.167-.03-.331-.072-.5-.089-.638-.06-1.278-.093-1.915-.164-.526-.057-1.076-.165-1.613-.171.042-.253.093-.504.132-.757a9.3 9.3 0 0 0 .198-1.717 13 13 0 0 0 2.592.774 9.2 9.2 0 0 0 2.667.05 5.6 5.6 0 0 0 2.473-.939.106.106 0 0 0-.082-.193c-.614.087-1.248.095-1.867.155a10 10 0 0 1-1.523.025 8.8 8.8 0 0 1-3.125-.8c-1.043-.472-2.04-1.037-3.113-1.443a14 14 0 0 0-3.084-.708c-1.062-.146-2.132-.225-3.202-.299a4 4 0 0 0-1.585.107 5.2 5.2 0 0 0-1.289.841 7.8 7.8 0 0 0-1.747 1.336 6 6 0 0 1-.896-.772 6.9 6.9 0 0 1-1.492-2.921.114.114 0 0 0-.218 0c-.57 1.603.465 3.24 1.439 4.454a8 8 0 0 0 .85.888 1.15 1.15 0 0 0 .31.453.104.104 0 0 0 .166-.046c1.028.821 2.188 1.465 3.268 2.257a29 29 0 0 1 4.237 4.208c1.288 1.433 2.564 2.88 3.76 4.393 2.366 2.995 4.81 6.621 5.34 10.488.299 2.177-.295 4.358-.73 6.476l-1.312 6.373c-.204.993-.28 2.125-1.18 2.749a14.5 14.5 0 0 1-2.802 1.413 9 9 0 0 1-2.978.639 6 6 0 0 1-1.393-.001 3 3 0 0 1-.805-.302c.053-.361.11-.721.138-1.086q.03-.378.024-.757-.003-.098-.012-.196a13 13 0 0 0 1.855-.241 5.3 5.3 0 0 0 1.096-.344c.361-.167.686-.4 1.05-.56.047-.02.012-.088-.033-.079a8 8 0 0 1-1.256.066c-.379.02-.754.068-1.132.1a16 16 0 0 1-2.213.06 11 11 0 0 1-2.188-.365 15 15 0 0 1-1.1-.331 1.84 1.84 0 0 0-1.19-.17l-.013.007a13 13 0 0 1-.978-1.888c-.068-.165-.118-.338-.18-.505a6 6 0 0 1 .058-.747c.082-.516.216-1.023.3-1.54a8.8 8.8 0 0 0 .076-2.591 11.4 11.4 0 0 0-1.991-4.961.016.016 0 0 0-.027.016 10.35 10.35 0 0 1 1.243 5.313 13 13 0 0 1-.312 2.644c-.12-.362-.234-.726-.367-1.083a28.8 28.8 0 0 0-3.354-6.762.075.075 0 0 0-.136.058c.577 2.08 1.528 4.025 2.114 6.103.567 2.014.61 4.18 1.473 6.108a28.4 28.4 0 0 0 3.436 5.07l1.42 1.907a.74.74 0 0 0 .152.436.8.8 0 0 0 .364.255l2.155 2.892c1.3 1.743 2.643 3.463 3.887 5.247a9.87 9.87 0 0 1 2.142 5.101c.076 2.058-.707 4.037-.878 6.075-.146 1.747.707 3.723-.297 5.308-.944 1.488-2.843 2.165-4.494 2.455-1.111.196-2.24.253-3.36.392a6 6 0 0 0-1.384.354 7.2 7.2 0 0 1-2.362-.286 6.7 6.7 0 0 0-1.813-.33 28 28 0 0 0-.23-1.12 13 13 0 0 0 2.522 1.108.213.213 0 0 0 .238-.31 10.9 10.9 0 0 0-2.177-2.427c-.869-.698-1.792-1.33-2.71-1.962-1.87-1.29-3.788-2.515-5.777-3.613a53 53 0 0 0-6.14-2.91c-2.046-.81-4.29-1.784-6.464-.93a11.5 11.5 0 0 1-3.517 1.005 9 9 0 0 1-1.744-.036 10 10 0 0 0 1.698-1.11c1.982-1.61 3.06-3.867 4.192-6.095a.05.05 0 0 0-.088-.052 22 22 0 0 1-4.383 5.116 6.1 6.1 0 0 1-3.043 1.34 27 27 0 0 0-3.95.594c-2.552.7-4.845 2.064-7.3 3.016a38 38 0 0 1-7.713 2.076 42 42 0 0 1-2.488.317.43.43 0 0 0-.289.025 61.6 61.6 0 0 1-13.882-.443c-2.846-.38-5.673-.901-8.487-1.467l-.144-.03c.003-.03.02-.059.012-.086-.102-.368-.414-.55-.718-.745a10 10 0 0 0-1.172-.627 12.7 12.7 0 0 1-2.227-1.297c-.7-.526-1.284-1.189-1.97-1.735-.698-.557-1.44-1.056-2.14-1.611-.058-.046-.137.027-.083.083.616.632 1.214 1.292 1.889 1.863.657.556 1.404.957 2.102 1.455a21 21 0 0 1 2.044 1.74c.194.18.434.416.699.632q-1.166-.246-2.332-.489c-.051-.03-.097-.068-.149-.097a13 13 0 0 0-1.423-.65 22.6 22.6 0 0 1-3.07-1.499 12.6 12.6 0 0 1-4.399-4.07c-.022-.036-.088-.012-.071.03a10.5 10.5 0 0 0 2.163 3.29c-.007.004-.015.003-.022.007-.643.326-1.8-.208-2.425-.365a5.54 5.54 0 0 0-2.563-.18 8.4 8.4 0 0 0-2.521 1.37 23 23 0 0 1-2.69 1.437 35.4 35.4 0 0 1-5.66 1.936 22 22 0 0 1-2.99.436 16.7 16.7 0 0 1-3.151.192c-.035-.002-.044.056-.009.062.983.168 1.955.416 2.95.516a21 21 0 0 0 3.146-.051c.27-.014.535-.05.803-.075a14 14 0 0 0 1.598-.136c-3.36 1.805-6.682 3.68-9.938 5.706q-9.154 5.697-17.979 11.9a403 403 0 0 0-32.863 25.831c-20.882 18.184-40.147 38.102-59.903 57.475-6.656 6.527-13.384 12.993-20.242 19.312a.67.67 0 0 0-.596.549 415 415 0 0 1-41.682 34.12 350 350 0 0 1-70.085 38.191q-12.724 5.15-25.824 9.294c-1.69-.434-3.41-.716-5.125-1.045q-2.823-.54-5.639-1.117-5.284-1.071-10.545-2.269a47 47 0 0 0 10.44-8.912c.773-.908 1.575-1.784 2.307-2.73.11-.142-.077-.346-.204-.204a50.6 50.6 0 0 1-10.83 8.794 125 125 0 0 1-12.392 6.731c-8.568 4.152-17.487 7.648-25.635 12.62-4.599 2.808-8.999 6.37-14.329 7.678a14.15 14.15 0 0 1-7.386-.007 10.48 10.48 0 0 1-5.399-3.904 23.4 23.4 0 0 1-3.097-6.305c-.887-2.572-1.622-5.201-2.364-7.818q-2.457-8.672-4.473-17.474-2.015-8.784-3.533-17.672-.74-4.38-1.375-8.777c-.423-2.966-.732-5.952-1.17-8.915-.215-1.455-.414-2.91-.635-4.365-.014-.088-.154-.065-.154.021a158 158 0 0 0 1.498 18.408c.22 1.763.464 3.524.72 5.284-1.265-4.26-2.632-8.494-3.863-12.753a513 513 0 0 1-5.977-22.694c-3.661-15.24-6.726-30.617-9.6-46.022-2.917-15.639-6.008-31.3-8.161-47.065a206 206 0 0 1-2.006-24.256c-.089-5.176.135-10.34.534-15.493 3.067-2.452 6.056-4.996 9.34-7.16a66.7 66.7 0 0 1 10.888-5.832c8.033-3.372 16.534-5.573 24.9-7.952 8.58-2.44 17.196-4.771 25.912-6.68a190 190 0 0 1 26.324-4.048 130.5 130.5 0 0 1 26.357.634c1.088.139 2.158.25 3.253.304a.5.5 0 0 0 .298-.075q1.203 1.01 2.452 1.975c-.534-.066-1.08-.087-1.63-.133q-1.94-.164-3.881-.306c-2.544-.183-5.1-.268-7.65-.301a63.3 63.3 0 0 0-15.08 1.33c-.025.005-.02.049.006.045a96 96 0 0 1 15.074-.648c2.515.085 5.02.287 7.528.472q1.881.14 3.76.304a12 12 0 0 0 3.012.11 162 162 0 0 0 4.33 3.126c-1.731-.197-3.49-.305-5.222-.407-1.029-.06-2.059-.102-3.088-.165a12.8 12.8 0 0 1-3.264-.43 8.6 8.6 0 0 0-2.916-.259c-1.072.01-2.144.035-3.216.057-2.054.043-4.105.115-6.155.264a82 82 0 0 0-6.742.778c-.038.006-.03.074.01.07a77.3 77.3 0 0 1 15.608-.437c.66.053 1.32.133 1.979.182a11 11 0 0 0 1.978-.212 19.7 19.7 0 0 1 3.954.228c2.594.286 5.203.68 7.808.84 4.284 2.98 8.646 5.852 12.799 9.012.199.412.44.804.627 1.224a16.6 16.6 0 0 1 .84 2.625c.564 2.197 1.02 4.426 1.52 6.639.047.202.124.637.252 1.073-10.75 1.01-21.518 2.487-31.813 5.818a89.1 89.1 0 0 0-22.945 11.403c-.071.007-.145.005-.216.015a13.5 13.5 0 0 0-1.827.44 39 39 0 0 0-3.635 1.27 51 51 0 0 0-6.816 3.317 76 76 0 0 0-12.147 8.954c-8.286 7.359-15.328 15.953-22.01 24.757-1.902 2.505-3.844 4.981-5.717 7.51a40 40 0 0 0-2.61 3.78c-.81 1.405-1.472 2.857-2.139 4.33-.018.041.038.076.061.036a33 33 0 0 1 2.412-3.539c.822-1.05 1.58-2.154 2.377-3.224 1.65-2.213 3.384-4.365 5.097-6.53 3.407-4.306 6.928-8.528 10.504-12.694 6.801-7.924 14.277-15.563 23.177-21.136a60 60 0 0 1 7.361-3.95 48 48 0 0 1 3.248-1.292c-.805.595-1.61 1.189-2.4 1.808-17.028 13.366-29.717 31.735-40.304 50.404a128 128 0 0 0-3.77 7.185.055.055 0 0 0 .095.055c5.94-9.223 11.405-18.729 17.854-27.623a150.4 150.4 0 0 1 21.706-24.297 92.4 92.4 0 0 1 27.763-17.242c11.497-4.445 23.785-6.333 35.996-7.512 12.176-1.177 24.417-1.711 36.535-3.445a156 156 0 0 0 36.255-10.058c11.885-4.79 23.378-10.477 35.031-15.79q18.602-8.479 37.566-16.13 18.627-7.56 37.48-14.547c10.647-3.97 22.074-7.456 31.254-14.383a36.7 36.7 0 0 0 5.747-5.68.2.2 0 0 0-.282-.282c-.522.434-1.06.844-1.595 1.257a44 44 0 0 0-4.61.4 61 61 0 0 0 1.683-2.745c.876-.016 1.754-.1 2.62-.182a22 22 0 0 0 3.51-.526c.046-.012.038-.088-.011-.085-1.195.09-2.378.296-3.57.42-.815.083-1.634.136-2.451.2a75 75 0 0 0 3.37-6.58 145 145 0 0 0 7.158-20.498c1.903-6.728 3.447-13.815 7.429-19.691 4.168-6.151 11.444-8.935 16.047-14.679a41.5 41.5 0 0 0 5.525-9.452c1.47-3.377 2.502-6.953 4.124-10.26.307-.628.65-1.233 1.016-1.824a9 9 0 0 1 1.503-.395 32 32 0 0 1 3.607-.166 14.8 14.8 0 0 1 3.884.32 12.4 12.4 0 0 1 1.784.492 4.1 4.1 0 0 0 1.64.349c.028-.002.038-.05.007-.054a39 39 0 0 1-3.938-1.143 21 21 0 0 0-4.076-.85 12 12 0 0 0-3.595.288l-.04.014a15 15 0 0 1 1.307-1.567c.253-.258.518-.503.783-.749a.11.11 0 0 0 .061.145 7.7 7.7 0 0 0 2.24.154 15 15 0 0 1 2.309.153 14.8 14.8 0 0 1 4.44 1.553.027.027 0 0 0 .027-.048 17 17 0 0 0-4.47-1.795 16 16 0 0 0-2.306-.459 4.2 4.2 0 0 0-2.205.205c1.11-1.019 2.296-1.954 3.415-2.964a57.6 57.6 0 0 0 7.516-8.45c2.2-2.954 4.072-6.123 6.215-9.113a15.7 15.7 0 0 1 2.772-3.067l.006.002a5 5 0 0 0 .643.078 12.5 12.5 0 0 1 1.62.217 5.86 5.86 0 0 1 2.753 1.185 1.7 1.7 0 0 1 .755 1.441 4.4 4.4 0 0 1-.487 1.652 11 11 0 0 1-1.663 2.466 9.3 9.3 0 0 1-2.271 1.98 4.06 4.06 0 0 1-3.005.321 7 7 0 0 0-2.474-.421c-.32.07-.13.162-.659.137-.186-.008-.372-.047-.56-.056a3 3 0 0 0-1.297.168c-.03.011-.03.066.008.061a8 8 0 0 1 1.196-.115 3.2 3.2 0 0 1 .646.056c.29.069.422.272.66.432a5.9 5.9 0 0 0 2.337.613c1.694.238 3.157-.728 4.379-1.798a11.5 11.5 0 0 0 2.978-3.945c.563-1.3.818-3.203-.501-4.104a6.95 6.95 0 0 0-2.775-.964 12 12 0 0 0-1.235-.137 5.46 5.46 0 0 1 3.58-.78c3.069.432 5.25 3.452 6.297 6.139a20.7 20.7 0 0 1 1.193 9.727 21.5 21.5 0 0 1-3.268 9.252c-1.95 3.04-5.081 5.154-6.524 8.528a45 45 0 0 0-1.6 4.686 13.8 13.8 0 0 0-2.211-4.742.055.055 0 0 0-.095.055c.467.84.922 1.696 1.308 2.576.338.766.634 1.55.93 2.334q-.14.46-.282.917l-1.933 6.14c-1.026 3.26-2.085 6.758-1.568 10.206a8.2 8.2 0 0 0 .695 2.194 5.7 5.7 0 0 0 .69 1.08 12 12 0 0 0-1.811-.426 34 34 0 0 0-3.078-.388 32.4 32.4 0 0 0-6.578.153 31.4 31.4 0 0 0-6.332 1.413 29.5 29.5 0 0 0-5.752 2.892.04.04 0 0 0 .04.068 37 37 0 0 1 6.135-2.223 36 36 0 0 1 6.12-1.255 34.5 34.5 0 0 1 6.155-.106c.692.05 1.381.13 2.068.225-.062.01-.124.013-.186.023-1.308.212-2.615.454-3.9.783a48 48 0 0 0-7.251 2.834c-.04.017-.012.086.03.071a52 52 0 0 1 6.675-1.808 27.5 27.5 0 0 1 7.07-.459c2.403.094 4.808.499 7.201.736 2.42.24 4.847.422 7.275.573 2.47.153 4.94.275 7.412.396a63 63 0 0 0 7.057.091 42 42 0 0 0 6.968-1.239c2.273-.536 4.521-1.163 6.769-1.797 1.255-.354 2.507-.722 3.764-1.07a14.2 14.2 0 0 1 3.805-.672c2.407.01 4.72.896 7.14.866.132-.002.169-.208.032-.238a23.6 23.6 0 0 1-3.47-1.206c.33-.163.647-.34.942-.492q1.546-.8 3.116-1.553a142 142 0 0 1 6.233-2.828q3.206-1.351 6.492-2.502c2.1-.738 4.293-1.599 6.552-1.504a6.13 6.13 0 0 1 3.33 1.106 21 21 0 0 1 2.777 2.233c.067.064.196-.023.135-.104a25 25 0 0 0-2.252-2.695c.16.008.318.024.479.025q1.467.005 2.936-.013c1.758-.021 3.524-.172 5.281-.102a4.81 4.81 0 0 1 3.953 1.835 29.5 29.5 0 0 1 2.545 4.104c1.348 2.566 2.806 6.516.612 9.048a12.7 12.7 0 0 1-3.681 2.534c-1.54.84-3.079 1.687-4.6 2.563a87 87 0 0 0-5.057 3.166c-.417.28-.827.562-1.229.855q.606-.678 1.21-1.358a28 28 0 0 0 2.172-2.89c.028-.04-.029-.072-.061-.047-.959.742-1.879 1.453-2.763 2.285q-1.302 1.224-2.626 2.423c-1.795 1.625-3.595 3.25-5.362 4.906a408 408 0 0 1-5.19 4.763 13.7 13.7 0 0 0-1.9 2.047c-.408-.169-.818-.332-1.218-.519a31 31 0 0 1-1.894-.969c-.037-.02-.082.032-.047.062a9 9 0 0 0 1.83 1.166 9 9 0 0 0 1.164.476 10.3 10.3 0 0 0-1.088 2.633c-.227-.128-.456-.252-.675-.393a17 17 0 0 1-1.91-1.42.046.046 0 0 0-.064.001c.027-.077.046-.157.079-.233.044-.102-.075-.221-.166-.128a3.24 3.24 0 0 0-.83 1.7l-.053-.05c-.03-.028-.088.01-.061.048l.092.116a5.67 5.67 0 0 0 .996 3.937c1.434 2.03 3.843 3.186 5.983 4.325a23.5 23.5 0 0 0 7.627 2.53c2.883.442 5.78.802 8.67 1.199 1.35.185 2.723.314 4.06.58a4.96 4.96 0 0 1 2.923 1.762 41.7 41.7 0 0 1 4.377 6.742q1.072 1.85 2.142 3.701a13.9 13.9 0 0 1 1.752 3.641 10.4 10.4 0 0 1-.203 4.102m-22.175 46.104-.002.005q-.123.362-.222.73c-.123.458-.23.917-.337 1.379-.051.221-.111.44-.167.66-.727-.98-1.463-1.954-2.174-2.945.312.047.624.092.937.122a17 17 0 0 0 1.965.049"/><path fill="currentColor" d="M550.558 293.128a19.4 19.4 0 0 0-2.607-3.008 115 115 0 0 0-2.825-2.965q-2.893-2.909-6.035-5.554c-.019-.016-.046.01-.028.028q2.96 2.757 5.68 5.757a82 82 0 0 1 2.616 3.022c.411.502.812 1.014 1.21 1.527a14 14 0 0 0 1.345 1.69.412.412 0 0 0 .644-.497m3.693 5.425a11 11 0 0 0-.79-.971 30 30 0 0 0-1.725-1.736.063.063 0 0 0-.088.088 12.4 12.4 0 0 1 1.428 1.944c.2.337.392.679.586 1.019.184.323.384.78.76.905a.217.217 0 0 0 .265-.15c.088-.393-.218-.796-.436-1.1m-2.569 6.301a60 60 0 0 0-4.879-6.588c-1.73-2.192-3.517-4.34-5.305-6.485-.053-.063-.137.026-.089.088 1.735 2.233 3.428 4.497 5.129 6.755 1.613 2.142 3.115 4.423 4.93 6.396.105.115.292-.033.214-.166m-2.614 5.791q-1.225-1.804-2.466-3.596c-1.653-2.396-3.355-4.757-5.059-7.117-.023-.032-.076-.003-.054.032 1.556 2.45 3.112 4.899 4.72 7.314q1.173 1.762 2.355 3.517a20.3 20.3 0 0 0 2.511 3.458c.075.072.234.001.19-.11a19.7 19.7 0 0 0-2.197-3.498m-1.735 7.542q-1.02-1.808-2.095-3.583a151 151 0 0 0-4.524-6.967c-.022-.033-.075-.003-.054.031a230 230 0 0 1 4.251 7.127q1.005 1.747 1.988 3.508a19 19 0 0 0 2.046 3.503.106.106 0 0 0 .177-.102 15.4 15.4 0 0 0-1.789-3.517m-2.101 7.494-1.658-3.056c-1.145-2.109-2.343-4.19-3.537-6.27-.013-.022-.045-.003-.034.02 1.061 2.11 2.119 4.222 3.23 6.305l1.637 3.069a25 25 0 0 0 1.8 3.116c.041.055.15.026.122-.051a24 24 0 0 0-1.56-3.133m-2.702 5.096q-1.156-2.492-2.367-4.956c-.01-.02-.044-.006-.036.015.66 1.653 1.326 3.3 2.018 4.94a37 37 0 0 0 2.32 4.983.07.07 0 0 0 .128-.054 36 36 0 0 0-2.064-4.928m-2.184 7.6c-.3-.777-.634-1.54-.959-2.308-.013-.032-.068-.009-.057.025.28.81.554 1.622.86 2.423a20 20 0 0 0 .948 2.313.043.043 0 0 0 .079-.034 21 21 0 0 0-.87-2.42m-.823 6.485c-.036-.073-.145-.01-.108.062a67 67 0 0 0 1.055 2.023c.015.027.053.003.04-.024a68 68 0 0 0-.987-2.062M408.2 468.29l-.358-1.581q-.33-1.46-.672-2.915-.707-3.035-1.434-6.064c-.972-4.038-1.93-8.08-2.939-12.108-.003-.015-.025-.009-.022.006.81 4.038 1.67 8.065 2.516 12.095q.628 2.991 1.28 5.977.315 1.463.641 2.924l.327 1.46c.1.444.1.936.455 1.244a.154.154 0 0 0 .24-.03 1.38 1.38 0 0 0-.034-1.009m-10.303-26.724a.02.02 0 0 0-.037.01c.77 3.434 1.54 6.885 2.581 10.25a.035.035 0 0 0 .068-.02c-.687-3.453-1.653-6.854-2.612-10.24m5.817 22.299c-.14-.665-.3-1.325-.455-1.987a193 193 0 0 1-.9-3.977c-.006-.034-.058-.02-.052.015.244 1.343.467 2.689.683 4.037.107.674.21 1.348.335 2.02a7.5 7.5 0 0 0 .455 1.857c.054.116.22.049.225-.062a7.5 7.5 0 0 0-.291-1.903m-6.266-7.508c-.438-1.904-.897-3.803-1.35-5.703-.915-3.84-1.864-7.673-2.806-11.507-.008-.035-.06-.02-.053.014.827 3.823 1.645 7.647 2.498 11.463.417 1.867.826 3.736 1.257 5.6a55 55 0 0 0 1.482 5.796c.023.066.14.062.13-.018a53 53 0 0 0-1.158-5.645m-4.482-4.205a231 231 0 0 0-4.85-17.425.016.016 0 0 0-.03.008 335 335 0 0 1 3.102 11.57q.713 2.847 1.364 5.708c.45 1.972.776 4.022 1.4 5.946.034.107.22.096.206-.028a46 46 0 0 0-1.192-5.779m-5.934-8.428c-.998-3.679-2.036-7.347-3.063-11.018a.035.035 0 0 0-.067.02c.926 3.698 1.84 7.4 2.796 11.09.95 3.673 1.731 7.462 3.044 11.023a.055.055 0 0 0 .105-.03c-.624-3.743-1.821-7.423-2.815-11.085m-3.295 2.143a817 817 0 0 0-1.45-5.763q-1.465-5.76-2.963-11.51a.023.023 0 0 0-.046.012q1.312 5.802 2.64 11.599c.446 1.931.892 3.863 1.352 5.79a33 33 0 0 0 1.485 5.526c.042.096.203.047.196-.053a33 33 0 0 0-1.214-5.601m-5.49-4.4c-.338-1.511-.681-3.021-1.012-4.534a403 403 0 0 1-1.871-8.97c-.007-.034-.058-.019-.053.015.48 2.983.998 5.958 1.59 8.92.29 1.44.584 2.878.91 4.31a36 36 0 0 0 1.177 4.491c.021.057.124.055.115-.015-.172-1.42-.544-2.823-.856-4.217m-7.621-15.893c-.013-.065-.109-.037-.098.027.449 2.611.924 5.214 1.452 7.811.009.045.075.026.068-.018a263 263 0 0 0-1.422-7.82m90.25 38.252a30 30 0 0 1 .072-2.796c.127-1.837.356-3.641.304-5.488a.082.082 0 0 0-.164 0 53 53 0 0 0-.212 5.385 29 29 0 0 1-.17 2.692q-.08.697-.223 1.385a1.7 1.7 0 0 0 .055 1.136c.037.1.195.148.25.033a1.45 1.45 0 0 0 .196-.973c-.047-.46-.096-.912-.108-1.374m-5.868-14.049c.404.087.265-.67-.166-.604-.414.062-.47.637-.486.95-.047.93.005 1.87 0 2.803-.01 1.83-.012 3.658-.094 5.488q-.06 1.34-.163 2.678c-.05.654-.145 1.302-.231 1.95q-.056-.055-.11-.111a.142.142 0 0 0-.235.137c.087.35.145.71.246 1.057.11.383.788.456.851 0 .16-1.16.158-2.35.235-3.52.082-1.257.14-2.516.16-3.776a65 65 0 0 0-.017-3.66c-.024-.61-.063-1.22-.107-1.828-.023-.327-.057-.65-.092-.975-.029-.266-.195-.656.22-.665-.043 0-.056.067-.011.076m-5.57 6.192a37 37 0 0 1-.013-4.335q.072-2.106.081-4.212a59 59 0 0 0-.04-2.106 11 11 0 0 1-.044-1.916c.003.017.005.037.027.04l.064.012a.06.06 0 0 0 .062-.025c.077-.134.045-.309-.126-.336-.248-.04-.32.329-.35.491a19 19 0 0 0-.128 2.725q-.041 1.424-.01 2.85c.037 1.815.141 3.633.108 5.45-.017.915-.117 1.814-.198 2.725a8.7 8.7 0 0 0-.008 2.699l.007-.003a.366.366 0 0 0 .702.003 13.2 13.2 0 0 0-.134-4.062m-5.331-8.15c.18-2.415.386-4.828.505-7.247.001-.03-.044-.029-.047 0-.294 2.41-.486 4.828-.687 7.247q-.149 1.78-.287 3.563c-.097 1.237-.492 2.45-.522 3.687l.013-.002a.37.37 0 0 0 .74.002c.146-1.214-.067-2.462.022-3.687q.13-1.782.263-3.563m-4.217-7.596c-.244 1.53-.481 3.058-.686 4.593q-.153 1.167-.283 2.337l-.131 1.168a9 9 0 0 1-.114.571c-.165-.123-.45.257-.334.485.125.247.47.211.656.071.349-.263.329-.832.367-1.217.263-2.664.46-5.324.6-7.998.003-.043-.069-.054-.076-.01m-5.612-2.383c-.004-.05-.079-.051-.078 0a12.5 12.5 0 0 1-.324 3.067q-.17.736-.394 1.457a2.4 2.4 0 0 0-.226 1.336.106.106 0 0 0 .155.063 1.93 1.93 0 0 0 .616-1.25 11.5 11.5 0 0 0 .248-1.498 17 17 0 0 0 .003-3.175m-5.76-5.123c-.028-.11-.183-.061-.166.046a5.8 5.8 0 0 1-.024 1.368l-.011.099q-.01-.07-.016-.14c-.113-1.469-.068-2.953-.073-4.425a.04.04 0 0 0-.078 0c-.108 1.508-.18 3.023-.391 4.52-.044.311-.136.613-.169.926-.04.393-.04.796-.06 1.191-.016.34-.043.68-.034 1.021a4 4 0 0 0 .27 1.056.13.13 0 0 0 .249 0c.07-.203.197-.362.264-.562a2.3 2.3 0 0 0 .076-.494c.032-.339.029-.68.036-1.02.007-.35.025-.703.02-1.053a3.2 3.2 0 0 0 .311-1.094 4.3 4.3 0 0 0-.204-1.439M115.02 469.96c-4.236-.474-8.501-.744-12.746-1.15-.08-.007-.093.118-.019.139a35.7 35.7 0 0 0 12.766 1.198.094.094 0 0 0 0-.187m5.879-4.664q-7.29-.737-14.538-1.767c-.068-.01-.1.092-.03.105a118 118 0 0 0 14.567 1.733c.046.002.045-.066 0-.07m8.673-6.127a32 32 0 0 0-2.489-.143c-.835-.012-1.656.118-2.489.11-1.656-.012-3.33-.18-4.978-.332a96 96 0 0 0-9.955-.614c-.055.001-.072.091-.014.1a96 96 0 0 0 9.845.781c1.722.084 3.474.15 5.183.385.813.113 1.597.343 2.413.45a31 31 0 0 0 2.484.205.48.48 0 0 0 .454-.346.5.5 0 0 0 0-.25.48.48 0 0 0-.454-.345m-1.274-4.809c-1.493-.176-2.975-.432-4.476-.532a80 80 0 0 0-4.465-.174c-.06-.001-.076.094-.015.107a39 39 0 0 0 4.392.665 41 41 0 0 0 4.564.052.059.059 0 0 0 0-.118m10.405.546a5 5 0 0 0-.848-.222c-.303-.037-.606-.057-.91-.08-.583-.042-1.167-.102-1.75-.12a24 24 0 0 0-1.751.017 18 18 0 0 1-1.82-.062c-.214-.013-.207.307 0 .328a17 17 0 0 1 1.82.248c.567.121 1.133.22 1.708.298.548.075 1.102.112 1.653.164.28.026.56.056.84.075a5 5 0 0 0 .98-.073.31.31 0 0 0 .281-.214.25.25 0 0 0 0-.155.29.29 0 0 0-.203-.204m6.274-4.078a17.7 17.7 0 0 0-3.534-.476 130 130 0 0 0-3.82-.351c-2.506-.184-5.018-.275-7.53-.334-.072-.002-.068.1 0 .109 2.47.3 4.936.629 7.406.925 1.232.148 2.465.281 3.697.423a20.6 20.6 0 0 0 3.693.357.334.334 0 0 0 .088-.653m4.513-5.068a26.8 26.8 0 0 0-8.172-.864.07.07 0 0 0 0 .14 60 60 0 0 1 8.148.807c.054.008.078-.067.023-.083m8.18-4.622a25.5 25.5 0 0 0-3.837-.307c-.043-.001-.055.07-.01.076a25.6 25.6 0 0 0 3.835.315c.047-.001.06-.076.012-.085m6.894-3.582a5.7 5.7 0 0 0-2.863.1c-.099.025-.056.168.041.15a16 16 0 0 1 2.81-.158.047.047 0 0 0 .012-.092m28.349 15.52c-1.95-.532-3.978-.835-5.961-1.229-1.993-.395-3.992-.757-5.99-1.123a419 419 0 0 0-12.039-2.04c-.072-.01-.106.098-.03.114 4.012.853 8.039 1.632 12.075 2.367 2.001.364 4 .732 6.006 1.067 1.966.328 3.942.754 5.926.944.058.005.067-.085.013-.1m6.464-5.312c-.711-.55-1.956-.41-2.813-.475a65 65 0 0 1-3.439-.36 282 282 0 0 1-7.076-.992 119 119 0 0 0-13.559-1.653.027.027 0 0 0-.007.053 118 118 0 0 0 13.395 1.936q3.49.39 6.968.874c1.142.157 2.284.32 3.417.538.564.109 1.126.228 1.69.334a2.35 2.35 0 0 0 1.355.006c.093-.039.174-.18.069-.261m13.749-4.079a29 29 0 0 0-6.19-1.252c-2.224-.182-4.415-.52-6.615-.905-4.299-.753-8.578-1.63-12.887-2.323-2.435-.392-4.874-.702-7.317-1.032-.03-.004-.043.039-.013.045 4.281.885 8.553 1.709 12.876 2.367 4.3.654 8.685 1.191 12.909 2.247 1.21.302 2.407.61 3.639.82a28 28 0 0 0 3.561.302.137.137 0 0 0 .037-.269m8.412-7.746a14.6 14.6 0 0 0-3.888-.688c-1.316-.12-2.633-.198-3.945-.357-2.758-.335-5.5-.76-8.239-1.232-5.27-.909-10.483-2.073-15.803-2.68-.74-.085-1.477-.172-2.219-.232a3.9 3.9 0 0 0-1.627-.03c-.143.067-.428.575-.116.426.028-.014.008-.06-.02-.05a1.2 1.2 0 0 1 .733-.082c.12.019.242.063.36.093q.42.105.844.197c.566.125 1.136.231 1.705.34q1.711.325 3.433.596c2.29.364 4.59.644 6.894.904 4.736.534 9.46 1.114 14.15 1.972 1.262.231 2.505.542 3.759.811a14.5 14.5 0 0 0 3.913.495.247.247 0 0 0 .066-.483m10.713-4.642a37 37 0 0 0-6.677-1.344q-3.363-.588-6.724-1.19c-4.482-.801-8.958-1.635-13.443-2.421-2.532-.445-5.069-.856-7.605-1.276-.102-.017-.149.135-.044.158 8.93 1.958 17.922 3.585 26.923 5.177 1.263.224 2.525.448 3.785.684a18.4 18.4 0 0 0 3.755.442.118.118 0 0 0 .03-.23m8.697-7.421a12.2 12.2 0 0 0-3.733-.365c-1.31-.003-2.623-.091-3.93-.193-2.614-.203-5.221-.541-7.82-.884-2.577-.34-5.116-.774-7.646-1.368a32 32 0 0 0-3.587-.715 10.4 10.4 0 0 0-3.512.214c-.03.006-.024.057.007.053 2.556-.283 5.161.688 7.61 1.266a41.7 41.7 0 0 0 7.127.909c2.527.15 5.059.285 7.576.553 1.377.146 2.76.307 4.121.56a12.3 12.3 0 0 0 3.737.338.188.188 0 0 0 .05-.368m10.421-5.887c-1.754-.238-3.558-.201-5.323-.336-1.853-.142-3.703-.34-5.552-.524-3.677-.367-7.38-.817-11.072-.959a.082.082 0 0 0-.022.161 75 75 0 0 0 10.848 1.299c1.808.112 3.617.187 5.428.248 1.88.064 3.803.3 5.682.187.041-.002.057-.07.01-.076m5.101-5.48c-2.716-.178-5.454-.059-8.17.028a.023.023 0 0 0 0 .047c2.716.087 5.454.206 8.17.027a.05.05 0 0 0 0-.101m10.953-4.495a3.36 3.36 0 0 0-2.024-.61 2.5 2.5 0 0 0-1.021.313 3.8 3.8 0 0 0-.845.66.055.055 0 0 0 .066.087 4.3 4.3 0 0 1 1.857-.495 3.67 3.67 0 0 1 1.904.195c.09.037.136-.102.063-.15m-99.307-53.07c-3.645-.402-7.293-.782-10.951-1.054-1.825-.136-3.65-.276-5.475-.397-.871-.058-1.743-.108-2.614-.162a4.1 4.1 0 0 0-1.936.162c-.036.016-.01.078.027.064a5.54 5.54 0 0 1 2.531-.004c.83.088 1.659.18 2.49.258 1.783.17 3.566.349 5.35.506 3.523.31 7.048.544 10.578.745.076.004.073-.11 0-.118m14.66-6.187a8.1 8.1 0 0 0-3.55-.59c-1.317-.06-2.636.017-3.956-.028-2.642-.09-5.289-.34-7.914-.646-2.64-.308-5.258-.753-7.913-.918-2.636-.164-5.276-.245-7.914-.364-.02 0-.02.029 0 .031 2.638.335 5.27.707 7.914.997 2.59.284 5.191.292 7.79.436s5.21.34 7.79.688c1.326.179 2.631.476 3.957.652a8.36 8.36 0 0 0 3.755.056.174.174 0 0 0 .04-.314m-5.693-7.233c-2.372-.569-4.74-1.182-7.144-1.6a49 49 0 0 0-3.422-.488 6.7 6.7 0 0 0-3.04.218.031.031 0 0 0 .017.06 7.44 7.44 0 0 1 3.423.443q1.695.393 3.415.671c2.233.36 4.485.587 6.732.842.083.009.1-.127.02-.146m16.12 2.285a10.3 10.3 0 0 0-2.684-.804 35 35 0 0 0-2.638-.294c-1.911-.157-3.809-.399-5.713-.621-.035-.004-.043.056-.009.061 1.869.273 3.717.581 5.552 1.031.896.22 1.79.452 2.696.631a11.5 11.5 0 0 0 2.737.215c.106-.004.172-.168.06-.219m12.951-6.922a41 41 0 0 0-7.482-1.524c-2.561-.414-5.13-.785-7.7-1.14-5.036-.694-10.091-1.2-15.158-1.618-.06-.005-.058.086 0 .094 5.123.686 10.236 1.457 15.347 2.222 2.523.377 5.042.781 7.56 1.19a49 49 0 0 0 7.4 1.013.122.122 0 0 0 .033-.237m9.966-5.159c-4.825-.99-9.716-1.617-14.586-2.34q-3.63-.537-7.262-1.05l-3.697-.517a3.2 3.2 0 0 0-2.313.171.04.04 0 0 0 .04.068c.97-.569 2.536-.018 3.573.152l3.552.58c2.288.373 4.579.725 6.87 1.08 4.594.712 9.18 1.504 13.808 1.963.062.006.075-.095.015-.108m8.834-6.539a4.67 4.67 0 0 0-2.64-.84c-1.02-.153-2.048-.232-3.068-.388-2.06-.317-4.113-.71-6.16-1.098-1.967-.372-3.938-.704-5.926-.932a61 61 0 0 0-3.174-.294c-1.062-.066-2.122.039-3.18-.005-.068-.003-.087.113-.016.123 1.037.146 2.058.45 3.098.607.926.14 1.855.253 2.784.375 2.066.272 4.138.486 6.21.716 2.087.232 4.185.523 6.242.953 1 .209 1.976.508 2.968.751a5 5 0 0 0 2.799.274.146.146 0 0 0 .063-.242m6.272-5.595a28 28 0 0 0-4.16-.89c-1.488-.267-2.975-.535-4.465-.788-2.902-.494-5.8-.856-8.72-1.218-.083-.01-.1.127-.02.145 2.961.684 5.903 1.35 8.893 1.9 1.444.265 2.888.527 4.337.765a12.6 12.6 0 0 0 4.135.23c.078-.014.063-.122 0-.144m6.362-5.103a15.4 15.4 0 0 0-4.26-.598 30.4 30.4 0 0 0-4.434.08.027.027 0 0 0 0 .054c1.45.088 2.9.154 4.349.276a38 38 0 0 0 4.325.341.079.079 0 0 0 .02-.153m6.645-4.896c-.055-.012-.111-.021-.165-.036s-.105-.045-.159-.06a2 2 0 0 0-.297-.035 4 4 0 0 0-.65.015q-.651.053-1.302.11a.078.078 0 0 0 0 .156q.651.057 1.302.11a4 4 0 0 0 .65.015 2 2 0 0 0 .297-.035c.046-.012.089-.041.135-.055.06-.019.127-.028.189-.042a.075.075 0 0 0 0-.143m5.61-4.31a3.66 3.66 0 0 0-2.369.1c-.18.062-.102.349.08.286a4.5 4.5 0 0 1 1.126-.236c.384-.028.763-.03 1.147-.027a.063.063 0 0 0 .016-.123m-53.829-68.233a11.4 11.4 0 0 0-3.127-.713 225 225 0 0 0-3.332-.407 25.4 25.4 0 0 1-3.548-.476 9.3 9.3 0 0 0-1.484-.436c-.594-.054-1.209.033-1.804.039a118 118 0 0 0-13.831.73c-.044.005-.046.074 0 .07a66 66 0 0 1 13.59-.181c.585.062 1.16.18 1.742.257a5.8 5.8 0 0 0 1.538-.136 13.6 13.6 0 0 1 3.655.285c1.11.172 2.21.37 3.304.62a15.6 15.6 0 0 0 3.244.545c.098 0 .152-.153.053-.197m-9.758 2.933a20.3 20.3 0 0 0-8.689.204c-.025.006-.014.042.01.038a26.4 26.4 0 0 1 8.658-.167c.049.007.071-.065.021-.075m16.648 2.384a5.4 5.4 0 0 0-1.58-.454c-.6-.114-1.206-.214-1.81-.318a237 237 0 0 1-3.548-.642c-.039-.008-.056.05-.016.06 1.168.268 2.334.54 3.497.827q.855.211 1.713.415a5.6 5.6 0 0 0 1.71.236.067.067 0 0 0 .034-.124m-.816 2.977a81.6 81.6 0 0 0-13.807-.695 102 102 0 0 0-13.772 1.183c-.02.003-.012.033.008.03a112 112 0 0 1 13.886-1.09q3.425-.055 6.85.11c2.282.11 4.55.358 6.827.516.03.002.038-.049.008-.054m-4.589 4.037a15.8 15.8 0 0 0-8.187-.243c-.06.012-.033.098.025.09a23 23 0 0 1 4.08-.187c1.364.053 2.701.266 4.05.453a.059.059 0 0 0 .032-.113m-24.01-40.371a60 60 0 0 1-13.29-1.151c-.03-.006-.042.038-.013.045a40.4 40.4 0 0 0 13.303 1.177c.044-.005.046-.071 0-.07m4.084-1.688c-3.64-.331-7.326-.235-10.978-.294a.055.055 0 0 0 0 .11c3.65.128 7.326.414 10.978.27a.043.043 0 0 0 0-.086m2.039 8.13c-.017-.02-.053.007-.037.028.987 1.308 1.969 2.617 3.033 3.863.023.027.07-.009.05-.038-.963-1.326-2.006-2.588-3.046-3.853m7.231 5.55q-.71-1.094-1.387-2.208a121 121 0 0 1-2.715-4.652c-.01-.018-.036-.002-.027.016a75 75 0 0 0 2.624 4.806q.693 1.155 1.42 2.288a15 15 0 0 0 1.498 2.155c.044.048.112-.013.086-.066a24 24 0 0 0-1.499-2.34m-.702-6.403c-.02-.029-.066-.002-.047.028 2.606 4.317 5.164 8.702 8.01 12.865a.043.043 0 0 0 .075-.044c-2.49-4.386-5.305-8.61-8.038-12.849m7.063 5.419c-.01-.018-.036-.002-.027.016 1.531 2.894 3.04 5.8 4.615 8.67.012.023.045.003.034-.02-1.503-2.907-3.074-5.781-4.622-8.666m7.091 6.667c-.022-.027-.06.011-.04.039l1.592 1.995c.015.02.043-.009.027-.028zm219.881 115.438a11.4 11.4 0 0 1-.931-1.866q-.368-.948-.749-1.89a52 52 0 0 0-3.286-6.836c-.01-.019-.043-.007-.035.015.876 2.33 1.865 4.604 2.862 6.885a17.7 17.7 0 0 1 1.435 3.883 7.5 7.5 0 0 0 1.452 3.201c.068.09.24.075.233-.063a7.1 7.1 0 0 0-.98-3.33m7.303 6.388a119 119 0 0 1-2.166-5.153 102 102 0 0 0-4.259-9.771c-.016-.03-.07-.009-.057.024 1.373 3.318 2.938 6.55 4.288 9.878a53 53 0 0 1 1.745 4.955c.246.839.47 1.686.74 2.518a11.3 11.3 0 0 0 .996 2.515c.116.185.47.128.444-.12a16.5 16.5 0 0 0-1.731-4.846m.747-8.558c-.026-.05-.099-.006-.074.043 1.078 2.186 2.001 4.444 2.915 6.703.015.036.073.022.06-.017a43.4 43.4 0 0 0-2.901-6.73m7.755 20.324a22 22 0 0 0-.873-2.714c-.662-1.75-1.19-3.543-1.823-5.303-.014-.038-.074-.022-.06.016a31.3 31.3 0 0 1 1.454 5.406c.136.912.26 1.824.44 2.731.13.657.153 1.859.776 2.258a.19.19 0 0 0 .25-.066c.422-.582-.017-1.705-.164-2.328m5.764 5.436a84 84 0 0 0-.751-2.754q-.838-2.916-1.808-5.792c-1.256-3.725-2.63-7.408-4.178-11.023-.008-.02-.044-.005-.036.015 1.487 3.672 2.834 7.403 3.958 11.201q.845 2.851 1.561 5.738c.23.924.445 1.85.667 2.777a6.6 6.6 0 0 0 .788 2.568.145.145 0 0 0 .242-.063 6.2 6.2 0 0 0-.443-2.667m4.775 4.786q-.508-2.222-1.102-4.422c-.79-2.934-1.733-5.827-2.766-8.684-.006-.019-.036-.011-.03.008.96 2.84 1.802 5.716 2.57 8.614q.569 2.145 1.058 4.31a41 41 0 0 0 .989 4.444c.017.051.102.046.1-.014a24 24 0 0 0-.819-4.257m3.057-2.643a.016.016 0 0 0-.03.008c.813 2.986 1.556 6.003 2.499 8.952a.027.027 0 0 0 .052-.015c-.728-3.008-1.662-5.972-2.52-8.945m7.052 8.198c-.006-.02-.036-.011-.03.008.317 1.029.626 2.06.963 3.082.01.029.054.017.045-.012-.31-1.031-.648-2.053-.978-3.078m-16.147-85.486a51.6 51.6 0 0 0-4.557-6.113c-.807-.982-1.61-1.972-2.45-2.926a10.4 10.4 0 0 0-2.84-2.563c-.05-.025-.112.027-.08.08a14 14 0 0 0 2.48 2.632c.924.873 1.826 1.757 2.665 2.712a74 74 0 0 1 4.654 6.253c.054.077.178.009.128-.075m-2.65-11.753c-.343-.38-.712-.735-1.073-1.098-.033-.032-.079.016-.05.05.331.392.655.79 1.005 1.167.35.376.702.743 1.07 1.1.037.036.087-.016.056-.055a30 30 0 0 0-1.008-1.164m96.7-99.091a29 29 0 0 0-3.411-3.545 121 121 0 0 0-3.735-3.388.05.05 0 0 0-.072.072 121 121 0 0 0 3.465 3.657 29 29 0 0 0 3.62 3.337c.077.056.191-.056.133-.133m2.609-.306a6.2 6.2 0 0 0-1.57-1.66l-1.826-1.654q-1.8-1.63-3.61-3.25c-.02-.017-.046.009-.028.027q1.728 1.751 3.458 3.5l1.686 1.697a6.2 6.2 0 0 0 1.762 1.506c.101.042.165-.088.128-.166m-2.407-5.28c-.04-.023-.072.035-.036.061a30 30 0 0 1 2.013 1.566c.641.534 1.24 1.116 1.879 1.653a.047.047 0 0 0 .066-.066 13.8 13.8 0 0 0-3.922-3.214m7.01 4.863a1.7 1.7 0 0 0-.272-.208q-.123-.074-.25-.142l-.12-.063c-.046-.022-.123-.047-.145-.055-.092-.035-.18-.086-.276-.115a1 1 0 0 1-.126-.037l-.137-.055c-.086-.034-.171-.063-.255-.101a7 7 0 0 0-.274-.117c-.082-.034-.136.1-.06.143a3 3 0 0 1 .456.304 3 3 0 0 1 .375.388 1 1 0 0 0 .073.098l.092.101q.091.104.178.21l.048.06c-.05-.076.022.032.038.05.03.033.067.062.1.094a.83.83 0 0 0 .341.245.378.378 0 0 0 .461-.461.74.74 0 0 0-.247-.339m1.817-1.346-.544-.43-1.155-.913q-1.11-.876-2.227-1.742c-.038-.03-.09.036-.052.067q1.101.938 2.216 1.86l1.097.91.531.442a2.3 2.3 0 0 0 .532.38c.069.03.137-.067.097-.126a2.3 2.3 0 0 0-.495-.448m2.045-2.039a3 3 0 0 0-.278-.202q-.287-.177-.569-.363c-.07-.046-.154.061-.09.116q.258.218.508.443a3 3 0 0 0 .273.213c.087.063.198.166.313.13a.08.08 0 0 0 .054-.072c.004-.121-.126-.2-.21-.265m-14.707 26.167c-1.037-1.035-2.142-2.002-3.264-2.944-.03-.025-.074.016-.044.044 1.053.99 2.063 2.02 3.073 3.054 1.007 1.03 1.926 2.164 3.002 3.122.05.044.14-.014.099-.076a22 22 0 0 0-2.866-3.2m6.386 3.394q-.357-.374-.722-.74-.77-.774-1.573-1.513-1.586-1.46-3.293-2.78c-.027-.02-.066.017-.038.039q1.688 1.337 3.26 2.812.774.728 1.517 1.488.361.37.715.747a5.2 5.2 0 0 0 .733.741c.03.022.064-.019.048-.048a4.2 4.2 0 0 0-.647-.746m2.666-.055c-.26-.223-.516-.45-.778-.67-.518-.434-1.059-.844-1.588-1.266-.019-.015-.046.01-.027.028.497.453.985.92 1.494 1.36.25.217.508.429.762.643a5 5 0 0 0 .771.607c.035.018.087-.022.059-.059a4.7 4.7 0 0 0-.693-.643m-31.982-10.868c-2.155-.332-4.38-.392-6.553-.565-2.334-.186-4.693-.27-7.011-.61a29 29 0 0 1-1.652-.279c-.553-.114-1.088-.32-1.645-.406a9.6 9.6 0 0 0-1.69.17c-.579.009-1.16-.028-1.739-.048-2.277-.078-4.554-.13-6.833-.117-2.541.013-5.08.008-7.62-.048-.076-.002-.076.113 0 .117 4.532.236 9.051.665 13.584.907l1.615.088a6 6 0 0 1 1.663.188 2.1 2.1 0 0 0 .696.22 4 4 0 0 0 .798-.074 17 17 0 0 1 1.8-.208 57 57 0 0 1 6.798.179c2.586.162 5.192.507 7.78.555.039 0 .05-.063.01-.069m-7.9 3.603c-.842-.167-1.692-.356-2.547-.439-.907-.087-1.825-.091-2.734-.11-1.826-.038-3.644.138-5.469.102-.106-.002-.104.157 0 .164 1.796.117 3.568.442 5.363.556.875.056 1.753.12 2.63.129a23 23 0 0 0 2.733-.225c.092-.01.132-.155.024-.177m7.128.73a3.4 3.4 0 0 0-.708-.155q-.33-.06-.66-.103-.726-.092-1.45-.195c-.068-.01-.1.092-.03.105.477.087.953.173 1.427.267.239.047.478.083.718.118a3.3 3.3 0 0 0 .688.07.055.055 0 0 0 .015-.107m1.762-31.279c-1.213.06-2.413.297-3.617.437a30 30 0 0 1-3.386.185 12 12 0 0 0-1.637.1 15 15 0 0 0-1.88.441 19.6 19.6 0 0 1-3.54.485c-2.353.173-4.725.15-7.084.184-2.394.034-4.788.083-7.182.12a.047.047 0 0 0 0 .093q7.198.035 14.389-.04a34 34 0 0 1 3.533.02 9.1 9.1 0 0 0 3.437-.246c1.133-.32 2.26-.64 3.41-.891 1.19-.261 2.402-.454 3.567-.812.041-.012.036-.079-.01-.076m37.775-4.899a22 22 0 0 0-2.596-1.847 21 21 0 0 0-2.967-1.355 12.5 12.5 0 0 0-6.21-.845c-2.275.346-3.968 1.684-5.855 2.879a26.2 26.2 0 0 1-5.852 2.741 23.6 23.6 0 0 1-7.378 1.312.031.031 0 0 0 0 .063 23.9 23.9 0 0 0 11.98-2.18c1.935-.952 3.624-2.449 5.634-3.23a10.56 10.56 0 0 1 6.366-.169 19 19 0 0 1 3.445 1.324c1.095.53 2.234.976 3.365 1.424.063.026.123-.075.068-.117m-13.775-32.97c-1.131-.178-2.232-.406-3.376-.5q-1.757-.142-3.516-.244a8.28 8.28 0 0 0-5.432 1.142c-.745.514-1.306 1.17-1.997 1.74q-1.025.847-2.078 1.662a13.6 13.6 0 0 1-4.777 2.587c-.045.012-.038.09.011.084a12.5 12.5 0 0 0 4.593-1.742c.719-.416 1.419-.864 2.12-1.308a13 13 0 0 1 1.222-.731c.375-.183.783-.287 1.163-.462 1.565-.718 3.21-1.717 4.947-1.886a32 32 0 0 1 3.505 0c1.21.018 2.388-.11 3.594-.189.082-.005.113-.139.02-.153m-31.933 13.936c-3.913 1.757-7.868 3.416-11.768 5.202a90 90 0 0 1-5.976 2.49 11 11 0 0 0-1.296.566c-.515.272-.95.663-1.467.933-.874.456-1.737.931-2.612 1.385a20.3 20.3 0 0 1-6.486 2.277c-.048.007-.037.088.011.084a21.5 21.5 0 0 0 5.639-1.406c.929-.344 1.847-.718 2.765-1.091.438-.178.868-.381 1.31-.546.539-.2 1.1-.295 1.627-.537.978-.452 1.883-1.04 2.837-1.541.99-.52 1.972-1.059 2.975-1.552 1.934-.95 3.901-1.848 5.802-2.863 2.194-1.172 4.432-2.26 6.662-3.361.028-.014.004-.053-.023-.04m22.762.075a17.6 17.6 0 0 0-6.322-2.536.047.047 0 0 0-.025.09c1.042.408 2.113.74 3.149 1.164 1.06.433 2.097.916 3.147 1.37a.05.05 0 0 0 .052-.088m5.064-.41a9.7 9.7 0 0 0-1.896-1.035q-1.012-.489-2.05-.92a37 37 0 0 0-4.43-1.502.023.023 0 0 0-.012.046 46 46 0 0 1 4.319 1.577q1.055.445 2.085.951a18 18 0 0 0 1.938.962c.043.014.082-.05.046-.079m4.141-.637a16 16 0 0 0-2.167-1.148 59 59 0 0 0-2.153-.998 45 45 0 0 0-4.36-1.707c-.025-.008-.043.031-.018.042 1.467.653 2.962 1.241 4.423 1.91.72.329 1.44.656 2.154.999.691.333 1.368.715 2.088.98.049.019.071-.052.033-.078m2.573-1.819a7 7 0 0 0-1.522-.697l-1.633-.687-3.268-1.375c-.052-.022-.091.07-.039.093l3.236 1.449 1.618.724a7 7 0 0 0 1.548.636.079.079 0 0 0 .06-.143m1.282-1.55c-.202-.124-.393-.267-.604-.377s-.42-.228-.636-.324c-.436-.194-.88-.376-1.318-.566-.036-.016-.068.033-.032.054.419.24.831.496 1.256.723.21.112.428.212.642.315.213.101.44.167.66.254.046.018.072-.054.032-.079m-64.618-47.716a17 17 0 0 0-1.8-.184c-.648-.053-1.3-.044-1.95-.047a7.6 7.6 0 0 0-1.774.084c-.21.051-.578.251-.376.498a.031.031 0 0 0 .052-.014c.053-.3.48-.17.664-.148.227.029.46.04.688.054.515.032 1.033.034 1.549.048q.746.02 1.491-.027c.483-.029.977-.03 1.456-.106a.083.083 0 0 0 0-.158m28.02-17.228a10.3 10.3 0 0 0-1.422-2.424c-.02-.027-.067-.002-.047.028a13 13 0 0 1 1.241 2.504c.323.859.477 1.758.746 2.63a.051.051 0 0 0 .1-.013 6.7 6.7 0 0 0-.618-2.725m-1.059 3.14a21 21 0 0 0-1.312-2.537.023.023 0 0 0-.04.024 21 21 0 0 1 1.22 2.57c.34.859.572 1.755.915 2.611a.04.04 0 0 0 .076-.02 10.5 10.5 0 0 0-.86-2.647m-1.195 2.059a12.8 12.8 0 0 0-1.736-2.518c-.023-.026-.07.01-.049.038a17 17 0 0 1 1.589 2.54c.47.92.764 1.897 1.157 2.845a.05.05 0 0 0 .098-.027 9.2 9.2 0 0 0-1.059-2.879m-1.089 2.074a10.4 10.4 0 0 0-1.666-2.55c-.02-.024-.051.01-.033.033a11.6 11.6 0 0 1 1.545 2.554 17.7 17.7 0 0 1 .88 2.84.031.031 0 0 0 .062-.007 8 8 0 0 0-.788-2.87m-1.534 2.492a11.4 11.4 0 0 0-1.18-2.202.02.02 0 0 0-.033.02 17 17 0 0 1 1.054 2.268c.289.763.46 1.559.721 2.33.014.04.08.035.077-.01a7.8 7.8 0 0 0-.64-2.406m-1.444 3.828c-.049-.212-.093-.424-.152-.633q-.183-.65-.359-1.301c-.005-.02-.033-.012-.03.008q.12.654.234 1.31c.037.214.087.425.135.637a1.8 1.8 0 0 0 .184.61c.019.026.072.029.078-.011a1.8 1.8 0 0 0-.09-.62m-1.917 2.433a1 1 0 0 1-.088-.25 1.3 1.3 0 0 1-.018-.529.023.023 0 0 0-.045-.012.96.96 0 0 0-.037.57 1.2 1.2 0 0 0 .103.262.64.64 0 0 0 .176.227c.03.022.063-.019.048-.048-.041-.076-.1-.142-.14-.22m-5.73 6.855a.031.031 0 0 0-.057.024 44 44 0 0 0 2.626 6.364.051.051 0 0 0 .093-.039 44 44 0 0 0-2.662-6.349m-.266 6.034a39 39 0 0 0-.83-2.682c-.013-.037-.072-.022-.06.017.273.877.52 1.762.753 2.65s.401 1.794.656 2.675c.011.037.074.031.07-.01a20 20 0 0 0-.59-2.65m-.205 5.981c.003-.096-.02-.189-.024-.284a3.5 3.5 0 0 0-.157-1.14 15 15 0 0 0-.589-1.69 31 31 0 0 0-1.537-3.299c-.021-.037-.089-.011-.072.03a17.7 17.7 0 0 1 1.063 3.296l-.001-.001a.035.035 0 0 0-.05.05c.03.033.052.073.082.107q.154.801.276 1.609a3.46 3.46 0 0 0 .56 1.662.175.175 0 0 0 .314-.04 2 2 0 0 0 .072-.293c.013.032.062.035.063-.007m84.098 12.514c-.369-.648-.777-1.275-1.12-1.936a17 17 0 0 0-.964-2.025 2.7 2.7 0 0 0-.603-.646 5 5 0 0 1-.834-.902c-.414-.522-.832-1.041-1.295-1.521a6.4 6.4 0 0 0-2.993-1.968.063.063 0 0 0-.033.12 6.12 6.12 0 0 1 3.062 2.439c.392.518.795 1.032 1.16 1.57a7 7 0 0 1 .463 1.019 4.4 4.4 0 0 0 .543.785c.444.553.995.98 1.405 1.569.383.55.711 1.14 1.042 1.724.677 1.196 1.221 2.483 1.962 3.64a.043.043 0 0 0 .078-.034 19.7 19.7 0 0 0-1.873-3.834m-1.732-6.572a14.6 14.6 0 0 0-1.393-1.698c-.062-.067-.158.031-.1.099a25.3 25.3 0 0 1 2.536 3.582c.021.035.07.005.054-.031a12.3 12.3 0 0 0-1.097-1.952m3.96 6.724a15 15 0 0 1-.83-1.446c-.01-.018-.035-.002-.028.016a16 16 0 0 0 .748 1.524 5.8 5.8 0 0 0 .961 1.35.043.043 0 0 0 .068-.053c-.27-.484-.614-.928-.919-1.391m10.139 50.885c-.26 1.594-.469 3.194-.828 4.77q-.258 1.128-.59 2.236a9.8 9.8 0 0 1-.86 2.335 6.4 6.4 0 0 1-.702-1.143 2.82 2.82 0 0 1-.103-2.044c.392-1.655 1.212-3.17 1.529-4.847a20.5 20.5 0 0 0 .162-4.851 17 17 0 0 0-.272-2.382 6.8 6.8 0 0 0-.753-2.48.09.09 0 0 0-.168.044 8.2 8.2 0 0 0 .384 2.584c.19.91.431 1.811.573 2.73a11.3 11.3 0 0 1-.72 5.785 14.5 14.5 0 0 0-1.41 4.61 3.8 3.8 0 0 0 .123 1.768 1.71 1.71 0 0 0 1.302 1.099.34.34 0 0 0 .424-.323 11 11 0 0 1 .725-2.58q.362-1.22.634-2.464a23 23 0 0 0 .619-4.838c0-.038-.063-.049-.07-.009"/><path fill="currentColor" d="M579.004 169.21a25 25 0 0 0-.256 2.65 16.5 16.5 0 0 0 .164 2.742c.008.058.094.063.094 0-.002-.896.034-1.792.042-2.689.008-.894.034-1.792.102-2.684.006-.082-.134-.102-.146-.02m-2.502 42.158a.043.043 0 0 0-.086 0 52 52 0 0 1-.302 6.271 31 31 0 0 1-.517 3.166c-.213.955-.856 1.85-.525 2.828a.158.158 0 0 0 .26.07c.756-.725.551-1.816.682-2.783.137-1.015.275-2.03.375-3.05a39 39 0 0 0 .113-6.502m-1.421 13.765-.505.516a.027.027 0 0 0 .039.04l.516-.506c.032-.032-.018-.082-.05-.05m-3.86 21.725c-.012-.102-.18-.15-.2-.027a38 38 0 0 1-.938 4.6 45 45 0 0 1-1.56 4.425.09.09 0 0 0 .15.088 12.52 12.52 0 0 0 2.548-9.086M408.92 288.886a32.6 32.6 0 0 0-8.96-1.746.04.04 0 0 0-.01.076c2.98.591 5.958 1.2 8.942 1.776a.055.055 0 0 0 .029-.106m.482-3.735a41 41 0 0 1-6.357-1.1.05.05 0 0 0-.027.098 15.7 15.7 0 0 0 6.384 1.08.04.04 0 0 0 0-.078m3.724.104c-.081-.016-.163-.026-.245-.04a9 9 0 0 0-.466-.056l-.963-.1c-.056-.005-.07.09-.013.1l.95.188c.157.03.312.06.47.082.118.017.325.09.42-.01a.06.06 0 0 0 .01-.07.2.2 0 0 0-.163-.094m3.935-5.221a46 46 0 0 0-8.688.083c-.059.005-.061.095 0 .094 2.896-.064 5.794-.021 8.688-.099a.04.04 0 0 0 0-.078m5.894-3.613a18.2 18.2 0 0 0-4.275-.32c-1.474-.002-2.949 0-4.423-.02a.066.066 0 0 0 0 .132c1.476.099 2.949.22 4.423.337a18.3 18.3 0 0 0 4.275.022c.077-.012.07-.133 0-.15m4.339-4.194a10 10 0 0 0-1.765-.121c-.628-.021-1.257-.027-1.886-.036a158 158 0 0 0-3.771.004.027.027 0 0 0 0 .055c1.257.085 2.513.165 3.771.22.629.027 1.257.058 1.886.072a10 10 0 0 0 1.765-.021c.088-.014.083-.155 0-.173m4.846-2.804a7 7 0 0 0-1.82-.168c-.65-.014-1.3-.033-1.95-.03q-1.951.006-3.902.008a.043.043 0 0 0 0 .086q1.951.111 3.902.228c.65.039 1.3.056 1.95.079a6.8 6.8 0 0 0 1.82-.067.07.07 0 0 0 0-.136m3.319-2.429a18 18 0 0 0-2.516-.224c-.866-.046-1.734-.048-2.601-.072-.036-.001-.034.051 0 .054.85.085 1.7.193 2.55.256a18 18 0 0 0 2.552.1c.062-.003.084-.1.015-.114m3.57-2.297a3.6 3.6 0 0 0-.635-.015l-.65.002a.047.047 0 0 0 0 .094l.65.002a3.6 3.6 0 0 0 .635-.015.035.035 0 0 0 0-.068m4.59-3.004a2.5 2.5 0 0 0-1.114.11 4.4 4.4 0 0 0-.986.54c-.071.053-.01.168.07.122a3.8 3.8 0 0 1 1.007-.4c.347-.082.685-.202 1.038-.257.07-.011.046-.11-.016-.115m-40.272 30.626c-.257-.275-.534-.206-.884-.205a13 13 0 0 1-1.402-.092c-.868-.092-1.735-.211-2.602-.316-1.801-.219-3.6-.445-5.406-.629-.035-.004-.043.056-.008.061 1.735.263 3.474.487 5.214.716.867.115 1.736.224 2.602.344a13 13 0 0 1 1.552.283c.332.09.596.223.91.022a.12.12 0 0 0 .024-.184m1.713.233a1.4 1.4 0 0 0-.195-.073l-.186-.052-.385-.116c-.021-.006-.036.027-.015.036l.368.156q.088.038.175.08a1.3 1.3 0 0 0 .196.07c.059.018.101-.076.043-.1m-6.082 2.369c-1.446-.25-2.96-.268-4.423-.375-1.52-.111-3.035-.222-4.56-.236-.08 0-.104.134-.02.146 1.464.21 2.931.33 4.404.446 1.504.119 3.05.341 4.56.311.16-.003.21-.262.039-.292m-4.627 4.334a2.5 2.5 0 0 0-1.104.115 7 7 0 0 1-1.448.146c-.517-.017-.969-.284-1.48-.287-.48-.003-.896.233-1.375.267a20 20 0 0 1-2.746-.093c-.947-.07-1.89-.134-2.832-.257-.022-.003-.027.034-.006.038.904.178 1.817.353 2.733.452.948.101 1.904.105 2.851.197a10 10 0 0 0 1.375.254 7.7 7.7 0 0 0 1.296-.382 9.3 9.3 0 0 1 1.66-.127 2.26 2.26 0 0 0 1.1-.145.099.099 0 0 0-.024-.178m-10.982 5.288a11 11 0 0 0-2.191-.154 13.4 13.4 0 0 0-2.187.275c-.055.01-.044.105.014.1 1.44-.145 2.906-.13 4.353-.137.047 0 .06-.075.011-.084m4.802-.08a9 9 0 0 0-1.001.028c-.334.018-.668.028-1.001.041a.027.027 0 0 0 0 .055c.333.013.667.023 1 .042a9 9 0 0 0 1.002.027.1.1 0 0 0 .094-.07.1.1 0 0 0 0-.052.1.1 0 0 0-.094-.071m-7.366 4.637a46 46 0 0 1-6.39-.178c-.075-.008-.074.108 0 .117a31.7 31.7 0 0 0 6.39.124c.04-.004.041-.064 0-.063m-7.445 5.314a1.4 1.4 0 0 1-.47.09 2 2 0 0 1-.491-.023 2 2 0 0 1-.46-.152 1.4 1.4 0 0 1-.394-.27c-.024-.025-.07.01-.05.038q.037.05.076.098c.032.037.05.08.084.114a1.4 1.4 0 0 0 .2.167 1.3 1.3 0 0 0 .498.218 1.4 1.4 0 0 0 .54.022 1.4 1.4 0 0 0 .503-.216c.041-.028.017-.106-.036-.086m51.157 112.188a.05.05 0 0 0-.101 0 7 7 0 0 0-.044.894c.005.3.03.595.055.893a.04.04 0 0 0 .079 0 13 13 0 0 0 .055-.893 7 7 0 0 0-.044-.894m-.059 5.649c-.036-.206-.1-.406-.143-.611a5 5 0 0 1-.076-.698.027.027 0 0 0-.055 0 5 5 0 0 1-.07.674c-.042.215-.112.42-.15.635a4 4 0 0 0-.076.669 1.05 1.05 0 0 0 .183.666.2.2 0 0 0 .28 0 1 1 0 0 0 .183-.641 4 4 0 0 0-.076-.694m-3.256-8.203a.055.055 0 0 0-.11 0 29.5 29.5 0 0 0 .016 4.086.04.04 0 0 0 .078 0 29.5 29.5 0 0 0 .016-4.085m77.615-172.361c-.658-.55-1.325-1.09-1.99-1.63q-1.966-1.6-3.925-3.208c-.027-.023-.066.015-.039.038q1.902 1.664 3.79 3.344c.62.55 1.24 1.103 1.867 1.645a10.2 10.2 0 0 0 1.924 1.51c.06.03.15-.037.102-.102a9.8 9.8 0 0 0-1.73-1.598m2.301-2.337a17 17 0 0 0-4.13-3.02.027.027 0 0 0-.027.046c1.4.967 2.78 1.963 4.124 3.008.023.017.055-.012.033-.034m3.597 2.626q-.178-.124-.352-.252c-.226-.165-.448-.334-.675-.498a11 11 0 0 1-1.3-1.098c-.042-.043-.106.022-.065.066.39.423.79.842 1.204 1.24a7 7 0 0 0 .638.54q.172.13.348.258a.46.46 0 0 0 .363.112.076.076 0 0 0 .052-.091.46.46 0 0 0-.213-.277m4.433-1.181q-.548-.356-1.091-.72-1.155-.771-2.29-1.574a144 144 0 0 1-4.41-3.229c-.02-.016-.049.02-.028.037a84 84 0 0 0 4.234 3.381q1.085.805 2.19 1.581.57.4 1.144.792a2.2 2.2 0 0 0 1.048.548.075.075 0 0 0 .064-.111c-.166-.339-.556-.507-.86-.705m5.314-.353-1.018-.76c-.7-.523-1.407-1.035-2.111-1.55q-2.08-1.523-4.176-3.024c-.028-.02-.066.027-.038.05q1.982 1.542 3.979 3.063c.674.513 1.346 1.031 2.025 1.54q.508.381 1.018.76a3.5 3.5 0 0 0 1.004.659.06.06 0 0 0 .066-.086 2.8 2.8 0 0 0-.75-.652m4.181-.705a8 8 0 0 0-1.585-1.168l-1.618-1.087a186 186 0 0 0-3.369-2.202c-.021-.014-.04.02-.02.034 1.089.792 2.18 1.579 3.285 2.347l1.601 1.114a8 8 0 0 0 1.657 1.047c.05.019.08-.05.05-.085m3.39-1.385a2 2 0 0 0-.57-.387l-.59-.333-1.22-.69c-.827-.468-1.664-.917-2.5-1.372a.016.016 0 0 0-.015.027c.811.495 1.62.994 2.44 1.475l1.208.71.584.342a2 2 0 0 0 .621.3.043.043 0 0 0 .042-.072m4.599-1.019a4.3 4.3 0 0 0-.903-.585c-.325-.194-.657-.376-.987-.561q-.99-.555-1.983-1.107a.023.023 0 0 0-.024.04q.962.604 1.925 1.206c.322.2.64.405.968.595a4.3 4.3 0 0 0 .947.51.06.06 0 0 0 .057-.098m3.583-1.835c-.178-.12-.353-.249-.54-.353l-.585-.326c-.382-.213-.785-.395-1.177-.59a.047.047 0 0 0-.047.081c.375.224.745.464 1.13.67l.57.304c.198.106.407.187.613.275a.035.035 0 0 0 .036-.06m2.259-1.224c-.21-.056-.424-.091-.637-.133l-.64-.124c-.029-.006-.041.039-.012.045l.637.133c.213.044.425.094.64.124.029.004.042-.037.012-.045m-103.422-74.361c-1.455.09-2.896.368-4.334.598-.03.005-.024.058.007.054 1.446-.173 2.909-.3 4.332-.613a.02.02 0 0 0-.005-.039m1.807-2.956a19 19 0 0 0-2.152.325 40 40 0 0 0-2.196.456c-.037.01-.03.074.01.07a39 39 0 0 0 2.15-.33 20 20 0 0 0 2.195-.46c.033-.009.028-.063-.008-.06m3.584-4.896a4.2 4.2 0 0 0-1.585.539q-.771.32-1.557.604c-1.087.394-2.153.84-3.265 1.163a.04.04 0 0 0 .02.075 29 29 0 0 0 3.406-.879q.814-.289 1.615-.616a3.35 3.35 0 0 0 1.413-.773.067.067 0 0 0-.047-.113m-1.843-2.66a1.9 1.9 0 0 0-.677.22q-.337.139-.681.26c-.23.081-.463.149-.693.23a5 5 0 0 1-.719.218.02.02 0 0 0 .005.039c.266-.02.527-.018.792-.049a4 4 0 0 0 .717-.162 6 6 0 0 0 .697-.258 1.37 1.37 0 0 0 .612-.404.063.063 0 0 0-.054-.094m2.456-1.103a.123.123 0 0 0-.084-.15.3.3 0 0 0-.076-.005.43.43 0 0 0-.368-.017q.065-.003-.015.005a.25.25 0 0 0-.124.04l-.056.025a1 1 0 0 0-.151.074 3 3 0 0 0-.28.21.53.53 0 0 0-.183.238l-.155.122c-.032.025-.05.055-.079.083a1 1 0 0 1-.102.067c-.045.03-.018.113.04.092.036-.013.074-.03.112-.041.04-.01.08-.006.12-.015l.17-.046a.26.26 0 0 0 .167.026c.054-.01.108-.026.16-.038a3 3 0 0 0 .303-.088 1.2 1.2 0 0 0 .356-.209 1 1 0 0 0 .138-.12.3.3 0 0 0 .06-.18.4.4 0 0 0 .047-.073m-.641-3.397a2 2 0 0 1-.276.042 2 2 0 0 0-.244.056 5 5 0 0 1-.495.087 6.6 6.6 0 0 1-1.016.065c-.043-.001-.055.07-.01.077a4 4 0 0 0 1.063.04 5 5 0 0 0 .508-.088 1 1 0 0 0 .24-.069q.13-.067.264-.131c.045-.022.012-.089-.034-.079m.266-4.061a4.4 4.4 0 0 0-.69.277c-.109.058-.222.11-.327.175a1 1 0 0 0-.072.06 1 1 0 0 1-.081.044l-.173.096c-.055.03-.007.105.047.081l.17-.073c.06-.026.121-.037.18-.06.116-.044.227-.102.34-.153a4.3 4.3 0 0 0 .637-.376c.035-.023.014-.086-.03-.071m48.686-43.024c-.06-.21-.127-.418-.19-.626-.132-.435-.283-.86-.435-1.288a.05.05 0 0 0-.098.027c.115.438.228.875.363 1.308q.095.313.194.624a3 3 0 0 0 .241.622.04.04 0 0 0 .073-.02 3 3 0 0 0-.148-.648m1.305 4.065a4 4 0 0 0-.247-.446c-.089-.145-.187-.283-.272-.43-.087-.153-.159-.316-.237-.473-.007-.016-.035-.004-.028.012.064.163.137.325.192.491.053.161.089.325.137.488a4 4 0 0 0 .168.485c.056.131.135.337.29.372a.07.07 0 0 0 .076-.03c.08-.142-.018-.337-.079-.469m-2.604.551q-.385-1.239-.858-2.447c-.016-.041-.083-.024-.067.019q.431 1.196.78 2.42c.232.813.394 1.656.671 2.453.013.035.074.033.07-.01a13 13 0 0 0-.596-2.435m74.191 32.013a3.7 3.7 0 0 0-.968-.462l-1.08-.465-1.044-.449c-.34-.145-.698-.252-1.047-.373a.02.02 0 0 0-.015.036c.33.177.657.37 1 .524l1.071.48 1.035.463a3.6 3.6 0 0 0 .987.393.087.087 0 0 0 .06-.147m2.355-1.642a5.6 5.6 0 0 0-1.223-.619c-.41-.183-.805-.397-1.205-.602-.828-.424-1.646-.872-2.502-1.237-.036-.015-.067.033-.032.054.795.481 1.637.881 2.463 1.305.4.204.804.399 1.192.624a5.6 5.6 0 0 0 1.216.632c.084.023.167-.096.091-.157m1.706-2.988a19.7 19.7 0 0 1-4.339-1.276c-.033-.013-.055.041-.024.057a14.5 14.5 0 0 0 4.307 1.422c.133.024.19-.181.056-.203m2.571-2.781a1.63 1.63 0 0 0-.765-.29c-.275-.068-.55-.143-.827-.203-.577-.125-1.16-.225-1.74-.338a.02.02 0 0 0-.01.038c.56.182 1.117.38 1.682.549.271.08.547.149.82.223a1.64 1.64 0 0 0 .814.12.06.06 0 0 0 .026-.099m1.788-2.33a.7.7 0 0 0-.307-.1c-.105-.025-.21-.056-.317-.074-.223-.037-.448-.068-.671-.103-.054-.008-.078.068-.023.083q.325.09.651.176c.105.026.214.04.32.06l.173.031a.3.3 0 0 0 .153.005.047.047 0 0 0 .021-.078m-2.793 49.691-1-1.007a85 85 0 0 0-2.043-1.969.02.02 0 0 0-.028.028 85 85 0 0 0 1.946 2.066l.967.984a10 10 0 0 0 1.015.95c.03.023.076-.024.053-.054a10 10 0 0 0-.91-.998m1.995-.868-2.275-2.318c-.036-.036-.09.019-.056.055l2.248 2.347a29 29 0 0 0 2.284 2.31.027.027 0 0 0 .039-.038 29 29 0 0 0-2.24-2.356m3.204-.084-1.966-2.18c-.034-.038-.088.017-.055.055l1.89 2.195a27 27 0 0 0 1.94 2.145c.027.026.079-.009.055-.042a27 27 0 0 0-1.864-2.173m1.859-1.159c-.011-.013-.035.005-.025.02.674.94 1.344 1.893 2.084 2.784.02.024.06-.007.043-.033-.653-.957-1.383-1.863-2.102-2.77m3.873 2.01a.012.012 0 0 0-.016.016l.513.508a.008.008 0 0 0 .011-.01zM9.38 85.737h5v86.165h-5z"/><path fill="currentColor" d="M11.741 71.667 0 90.88h23.482zm0 106.6 11.741-19.213H0zm598.73-20.194h5v86.165h-5z"/><path fill="currentColor" d="m612.832 144.003-11.741 19.212h23.482zm0 106.6 11.741-19.213h-23.482z"/></svg>