<svg xmlns="http://www.w3.org/2000/svg" data-name="Layer 2" viewBox="0 0 206.479 196.641"><path fill="currentColor" d="m181.852 58.393 15.118-4.138 9.509 12.346zm-8.426 65.127-8.888-28.832 1.815-4.76.723.241-1.651 4.353 8.513 27.476 23.723-17.194 1.214-4.016.724.242-1.332 4.431-.151.111z"/><path fill="currentColor" d="m174.046 122.879-.767-.256 2.441-7.149.755.253zm31.66-54.05-24.568-8.189.824-2.21.469.157-.605 1.63 23.591 7.863.515-1.661.47.157z"/><path fill="currentColor" d="m191.689 98.388 7.523-34.831-4.584-1.528-4.583-1.527-15.269 32.238-8.438-2.817 9.045 27.774 24.193-16.675zm-34.28-43.412a5.586 5.586 0 0 0-6.96-2.374 9.5 9.5 0 0 0-3.962 2.878c.484-1.048.955-2.101 1.454-3.142.938-1.956 1.854-3.924 2.632-5.95.752-1.96 1.329-3.977 1.965-5.974a36 36 0 0 1 2.349-5.861 18.5 18.5 0 0 0 2.263-5.452 6.07 6.07 0 0 0-1.113-4.949 5.98 5.98 0 0 0-3.91-1.952c-3.685-.447-6.749 2.01-9.131 4.524a66 66 0 0 0-6.993 8.612A187 187 0 0 1 145 16.696c2.189-3.956 5.212-8.66 2.975-13.269-1.996-4.11-7.116-4.025-10.721-2.335-4.266 2-7.272 6.079-9.958 9.79q-3.967 5.485-7.901 10.996l.188-.36a31 31 0 0 0 2.006-4.513 16.6 16.6 0 0 0 .667-2.58 8.3 8.3 0 0 0 .675-2.873 8.05 8.05 0 0 0-2.067-5.794 7.1 7.1 0 0 0-5.294-2.398 9.5 9.5 0 0 0-5.826 2.685 74 74 0 0 0-5.413 5.455q-2.738 2.915-5.375 5.92c-3.632 4.12-7.172 8.319-10.698 12.528-3.454 4.124-7.012 8.193-10.235 12.502a54 54 0 0 0-4.218 6.525c-1.268 2.333-2.386 4.742-3.631 7.087A102 102 0 0 1 61.823 68.6c-1.498 2.027-2.99 4.059-4.387 6.156-1.37 2.056-2.577 4.188-3.756 6.357a14 14 0 0 1-4.457 5.405 39 39 0 0 1-6.71 3.203 23.1 23.1 0 0 1-9.625 1.993 12.6 12.6 0 0 1-3.867-5.07c-1.378-2.973-1.709-6.308-2.511-9.452-.823-3.226-2.153-6.3-2.911-9.544a21.5 21.5 0 0 1-.536-4.911 44 44 0 0 0-.167-5.347 42 42 0 0 0-2.721-9.73 34 34 0 0 0-4.33-8.457 16.05 16.05 0 0 0-6.608-5.305c-2.344-.97-6.045-1.663-7.973.474-1.6 1.773-1.381 4.48-.956 6.65.307 1.57.759 3.115 1.125 4.672q.6 2.553 1.132 5.122 1.074 5.196 1.862 10.446a95 95 0 0 1 1.15 10.544 37 37 0 0 1-.17 5.403c-.193 1.785-.508 3.554-.686 5.34a57.5 57.5 0 0 0 .37 10.652l1.875 21.683a104 104 0 0 0 1.07 10.414c.65 3.418 2.226 6.577 3.523 9.78 1.716 4.237 3.225 8.556 4.587 12.92.217 1.195.425 2.39.58 3.593a48 48 0 0 1 .39 7.197c-.052 2.373-.131 4.749-.362 7.112-.245 2.501-.661 4.986-1.03 7.47l-.605 4.065c-.098.662-.217 1.324-.293 1.989a17 17 0 0 0 .028 2.216.174.174 0 0 0 .34.046c.19-.591.46-1.15.6-1.757.15-.645.221-1.31.32-1.964l.575-3.816 1.131-7.5a43 43 0 0 0 .553-7.269 49 49 0 0 0-.396-5.17c.045.163.096.325.14.489.44 1.612.872 3.203 1.388 4.792.034.104.215.094.202-.027a68 68 0 0 0-2.02-9.826q-1.295-4.946-2.95-9.784c-1.072-3.148-2.278-6.237-3.511-9.324a32.4 32.4 0 0 1-1.616-4.926 38 38 0 0 1-.668-4.999Q8.015 109.957 7.1 99.307c-.304-3.525-.649-7.05-.904-10.578q-.048-.677-.078-1.354a.7.7 0 0 0 .15-.112 4 4 0 0 0 .275-.374c.089-.12.19-.231.265-.36a3.1 3.1 0 0 1 .501-.733 5.1 5.1 0 0 1 1.78-1.046.012.012 0 0 0-.007-.023 6.3 6.3 0 0 0-1.588.698c-.247.148-.478.33-.737.457a2.1 2.1 0 0 0-.67.503c-.008-.275-.02-.55-.02-.826a9 9 0 0 1 .609-.779 2.26 2.26 0 0 1 1.13-.654 2.7 2.7 0 0 0 1.008-.256 5.8 5.8 0 0 1 2.103-.635 22 22 0 0 1 2.416-.206.026.026 0 0 0 0-.052 30.4 30.4 0 0 0-4.803.306 1.62 1.62 0 0 0-.85.507 8 8 0 0 1-1.02.74c-.196.13-.397.254-.593.383q.009-.757.061-1.51c.126-1.751.421-3.482.644-5.221.881-6.879-.314-13.904-1.455-20.686a188 188 0 0 0-1.46-7.61l.005.001a4 4 0 0 0 .713.074 2.2 2.2 0 0 0 .707-.08 2 2 0 0 0 .318-.153 1.7 1.7 0 0 0 .273-.159c.043-.034.003-.092-.04-.096-.108-.01-.217.002-.325-.006-.111-.008-.219-.029-.33-.031-.209-.005-.417.012-.626.01a4.4 4.4 0 0 1-.6-.052c-.069-.01-.137-.026-.206-.04-.097-.455-.184-.913-.285-1.368a5 5 0 0 0 1.008-.157 18 18 0 0 1 1.553-.25 5.2 5.2 0 0 0 1.966-.401 1.8 1.8 0 0 0 .917-1.453 4.7 4.7 0 0 0-.382-1.974c-.232-.738-.377-1.5-.62-2.236a8.46 8.46 0 0 0-1.904-3.73c-.624-.574-1.602-.026-2.326.036a3.1 3.1 0 0 1-2.113-.55 3.56 3.56 0 0 1 .655-1.744c.855-1.092 2.367-1.114 3.632-.993a12.28 12.28 0 0 1 7.353 3.834 24.6 24.6 0 0 1 4.86 7.943 52.6 52.6 0 0 1 3.033 9.199 25.2 25.2 0 0 1 .504 5.253 38 38 0 0 0 .18 4.915 3 3 0 0 0-.169 0 3 3 0 0 0-.399.042 4 4 0 0 1-.547.036 12 12 0 0 0-1.885.191c-.006.001-.005.012.002.012a16 16 0 0 1 1.663-.132 3.2 3.2 0 0 1 .856.067c.172.043.348.057.52.089a55 55 0 0 0 2.689 9.17c1.017 3.074 1.385 6.284 2.256 9.392.756 2.696 1.977 5.299 4.326 6.951a11.9 11.9 0 0 1-3.37-1.18 35 35 0 0 1-3.26-1.922c-.053-.037-.123.051-.07.092.95.734 1.846 1.556 2.845 2.218a16.8 16.8 0 0 0 3.13 1.655 12.7 12.7 0 0 0 7.196.407 35 35 0 0 0 7.09-2.408 27.6 27.6 0 0 0 6.31-3.342 16.8 16.8 0 0 0 4.099-5.456c1.157-2.147 2.374-4.242 3.732-6.268 2.725-4.066 5.793-7.888 8.57-11.917a67 67 0 0 0 3.937-6.386c1.234-2.305 2.338-4.678 3.574-6.983a76.2 76.2 0 0 1 8.99-12.566c6.865-8.24 13.675-16.557 20.994-24.403 1.745-1.87 3.492-3.77 5.375-5.504 1.56-1.439 3.464-2.842 5.69-2.77a6.08 6.08 0 0 1 4.749 2.944 6.9 6.9 0 0 1 .984 3.528c-.104-.15-.212-.298-.315-.439a7.4 7.4 0 0 0-1.936-2.02 7.6 7.6 0 0 0-2.735-.93 5.14 5.14 0 0 0-2.829.015c-.008.004-.004.015.003.018a19 19 0 0 0 2.544.428 9 9 0 0 1 2.478.857 5.8 5.8 0 0 1 1.779 1.723 9 9 0 0 1 .93 1.492c-.44.854-.772 1.758-1.202 2.624a15.3 15.3 0 0 1-1.72 2.844A5.56 5.56 0 0 1 116 19.945a2.65 2.65 0 0 1-1.995-.175 13 13 0 0 0-1.341-.587 9.2 9.2 0 0 1-2.845-1.666 4.1 4.1 0 0 1-.974-1.222 1.97 1.97 0 0 1 .23-1.91c.276-.493.507-1.025.822-1.495.306-.458.638-.9.957-1.35l2.278-3.22c.024-.035-.032-.078-.059-.046l-2.263 2.765a30 30 0 0 0-1.994 2.462 3.3 3.3 0 0 0-.269 2.446 3.43 3.43 0 0 0 1.22 1.881c.73.63 1.55 1.156 2.295 1.768a3.9 3.9 0 0 0 1.091.615 3.5 3.5 0 0 0 1.441.101 6.16 6.16 0 0 0 4.684-2.416 15.5 15.5 0 0 0 1.674-2.815l.133-.29q-.17.519-.383 1.02c-.154.233-.312.463-.458.701a2.8 2.8 0 0 0-.396 1.116c-.03.244-.025.49-.043.733-.38.684-.763 1.367-1.13 2.06q-2.23 4.22-4.464 8.438c-2.944 5.55-5.891 11.1-8.888 16.623q-4.523 8.336-9.226 16.574c-1.522 2.654-3.075 5.289-4.61 7.935-1.469 2.533-2.832 5.112-4.206 7.696-2.988 5.622-6.005 11.547-7.18 17.86a.211.211 0 0 0 .406.112 114 114 0 0 1 1.769-5.251 3.6 3.6 0 0 0 .16.541q.182.553.339 1.113a33 33 0 0 1 .793 4.493c.004.033.054.035.053 0a33 33 0 0 0-.395-4.135 20 20 0 0 0-.537-2 2.2 2.2 0 0 1 .09-1.186q.04-.172.073-.343c.203-.515.405-1.03.623-1.54 1.14-2.672 2.44-5.28 3.837-7.826 1.408-2.566 3.003-5.01 4.513-7.515q2.332-3.87 4.594-7.781a707 707 0 0 0 6.357-11.278 22 22 0 0 0 1.356-1.88 56 56 0 0 1 2.135-3.201 35 35 0 0 1 2.34-3 24 24 0 0 1 2.707-2.795c.05-.04-.015-.123-.067-.088-.41.278-.811.546-1.207.818a2 2 0 0 0 .086-.124c.383-.729.722-1.484 1.076-2.229l2.017-4.25q.285-.604.538-1.219c.19-.374.388-.744.575-1.12a99 99 0 0 1 3.446-6.328c2.438-4.122 5.085-8.127 7.811-12.063.767-1.107 1.546-2.204 2.303-3.317.353-.518.69-1.048 1.027-1.577a35.5 35.5 0 0 1 6.014-6.48c2.842-2.262 7.995-4.467 11.029-1.293a5.9 5.9 0 0 1 1.465 4.086 6.7 6.7 0 0 0-1.279-1.142 10.6 10.6 0 0 0-2.425-1.366 8.8 8.8 0 0 0-2.715-.632 1.07 1.07 0 0 0-1.009.338c-.343.386-.64.834-.948 1.248a40 40 0 0 0-3.7 5.785 2.65 2.65 0 0 0-.131 2.468 3.2 3.2 0 0 0 1.918 1.653.059.059 0 0 0 .057-.098 4.2 4.2 0 0 1-1.44-2 3.63 3.63 0 0 1 .774-2.577 57 57 0 0 1 3-4.689c.277-.388.555-.778.85-1.153.18-.229.225-.28.533-.272a5 5 0 0 1 .67.085 10 10 0 0 1 2.27.647 9.4 9.4 0 0 1 2.087 1.218 9 9 0 0 1 .926.785 2.5 2.5 0 0 0 .531.46 9 9 0 0 1-.141 1.015c-.074.353-.17.698-.275 1.039a17 17 0 0 0-.878 1.618 16.8 16.8 0 0 1-1.852 2.966 6.6 6.6 0 0 1-2.568 2.03 2.62 2.62 0 0 1-1.816-.052 22 22 0 0 1-1.893-.726c-.01-.005-.019.009-.009.015.94.56 2.153 1.411 3.313 1.25a5.2 5.2 0 0 0 2.69-1.65 10.6 10.6 0 0 0 1.274-1.597c-.364.657-.738 1.308-1.101 1.959A188.5 188.5 0 0 0 131.184 44.1a48 48 0 0 1-2.88 7.346c-1.245 2.245-2.795 4.302-4.034 6.552a50 50 0 0 0-3.174 7.105 22.6 22.6 0 0 1-3.414 6.732 42 42 0 0 0-4.243 6.2c-1.263 2.325-2.421 4.711-3.545 7.106q-1.67 3.557-3.18 7.187a70 70 0 0 0-2.796 7.394c-.37 1.284-.63 2.598-.913 3.904-.04.184.232.325.321.135.58-1.228 1.204-2.434 1.757-3.675a41 41 0 0 0 .668-1.613 4 4 0 0 0 .088.364 31 31 0 0 1 1.236 4.75c.004.027.048.02.046-.005a23.3 23.3 0 0 0-.694-4.392 6 6 0 0 1-.312-1.636q.24-.623.482-1.242 1.523-3.874 3.22-7.675 1.666-3.72 3.505-7.358a43 43 0 0 1 3.982-6.76c.816-1.07 1.722-2.07 2.48-3.182A17.6 17.6 0 0 0 121.5 68c1.01-2.49 1.82-5.032 3.011-7.45 1.195-2.425 2.689-4.641 4.106-6.936a35 35 0 0 0 3.17-7.17q1.206-3.513 2.557-6.972a.4.4 0 0 0 .2-.157 87 87 0 0 1 7.257-9.613c2.28-2.555 4.993-5.905 8.629-6.353a5.63 5.63 0 0 1 4.215 1.051 4.5 4.5 0 0 1 1.416 4.075 4.3 4.3 0 0 1-1.97-.217 5.8 5.8 0 0 1-2.245-1.298c-.402-.376-.857-1.134-1.517-.909-.291.1-.453.384-.633.617q-.397.514-.787 1.034a20.8 20.8 0 0 0-2.752 4.308c-.634 1.537.271 2.792 1.674 3.44a12.2 12.2 0 0 0 2.736.896 4.6 4.6 0 0 0 2.192-.006 47 47 0 0 0-1.36 3.759c-.626 1.96-1.194 3.939-1.928 5.862-.751 1.967-1.682 3.858-2.591 5.755a222 222 0 0 0-5.146 11.533q-1.234 3.001-2.373 6.04a53 53 0 0 1-2.214 5.768 45.5 45.5 0 0 1-3.48 4.78 40 40 0 0 0-2.928 5.153c-1.916 3.89-3.773 7.81-5.65 11.718-.869 1.812-1.722 3.632-2.478 5.494a26 26 0 0 0-1.795 5.778 15.5 15.5 0 0 0-.114 2.957.165.165 0 0 0 .322.043 73.4 73.4 0 0 1 4.33-11.993c1.894-4.042 3.864-8.05 5.804-12.07a54 54 0 0 1 2.949-5.531c1.1-1.737 2.56-3.206 3.656-4.94a29.7 29.7 0 0 0 2.362-5.705q1.164-3.157 2.43-6.276a196 196 0 0 1 2.199-5.164.3.3 0 0 0 .07-.058c1.621-1.98 3.095-4.372 5.567-5.383 2.297-.94 4.846-.41 6.006 1.912a6.2 6.2 0 0 1 .614 2.477 3.1 3.1 0 0 1-1.3.174 7.3 7.3 0 0 1-1.51-.349 5.3 5.3 0 0 1-2.66-1.523c-.02-.023-.058.007-.042.032a3.7 3.7 0 0 0 .996 1.112 5.8 5.8 0 0 0 1.6.76 4.47 4.47 0 0 0 2.937.237c0 .153-.023.307-.031.46-.34.975-.6 1.98-.974 2.945a24 24 0 0 1-.85 1.946 2.21 2.21 0 0 1-1.383 1.342 3.76 3.76 0 0 1-1.854-.112 9 9 0 0 1-1.77-.649c-.525-.271-1.427-.816-1.242-1.513.184-.697.366-1.404.57-2.097.223-.763.585-1.49.879-2.227q.238-.595.462-1.195c.123-.33.28-.734.665-.816.066-.014.07-.128 0-.138-.462-.067-.7.315-.86.7-.335.817-.563 1.689-.821 2.531a18.6 18.6 0 0 1-1.092 2.65 1.15 1.15 0 0 0 .248 1.661 6.02 6.02 0 0 0 3.725 1.506 2.95 2.95 0 0 0 1.851-.312 3.5 3.5 0 0 0 1.163-1.641 27 27 0 0 0 .95-2.354 31 31 0 0 1-.547 1.984c-.872 2.832-1.578 5.691-2.3 8.564a166 166 0 0 1-5.59 17.24c-2.13 5.736-4.294 11.46-6.448 17.186-1.151 3.062-2.315 6.12-3.583 9.135-.637 1.517-1.326 3.022-1.903 4.563-.145.387-.296.77-.442 1.155l-.02.043c-1.268 2.768-2.41 5.59-3.519 8.424-2.107 5.384-4.095 10.948-7.321 15.789a42.4 42.4 0 0 1-5.889 6.615 78 78 0 0 0-5.88 6.594c-1.857 2.285-3.663 4.613-5.582 6.848a73 73 0 0 1-6.428 6.563c-2.504 2.269-5.05 4.594-7.768 6.603-2.568 1.899-5.863 3.718-9.158 3.34-.15-.017-.168.213-.035.254a10.1 10.1 0 0 0 8.275-1.246c.123-.074.237-.165.36-.242-.149.215-.302.427-.44.647a30 30 0 0 0-2.288 4.84c-1.346 3.387-2.133 6.968-3.961 10.149-.075.13.117.294.216.167a36.2 36.2 0 0 0 4.927-9.313 52 52 0 0 1 2.11-4.834 40 40 0 0 1 1.224-2.23q.318-.544.668-1.07.09-.134.189-.264c1.412-1.13 2.767-2.344 4.12-3.514a91 91 0 0 0 6.89-6.476c2.067-2.202 3.96-4.559 5.847-6.915 1.91-2.384 3.818-4.776 5.9-7.015 2.088-2.246 4.462-4.222 6.363-6.64 3.606-4.59 5.76-10.082 7.872-15.467 1.29-3.286 2.532-6.592 3.852-9.866a158 158 0 0 1 1.595-3.785c.4-.803.77-1.622 1.121-2.442 1.232-2.88 2.37-5.798 3.481-8.726q3.422-9.018 6.799-18.055a166 166 0 0 0 5.867-18.157c.382-1.54.742-3.086 1.151-4.62.401-1.505.903-2.98 1.325-4.479.715-2.543 1.029-5.348-.308-7.75M4.529 38.532c.346-.072.803-.345 1.117-.17a3.9 3.9 0 0 1 1.024 1.05 7.2 7.2 0 0 1 1.151 2.126 13 13 0 0 1 .598 2.39 2.92 2.92 0 0 1-.435 2.425 3.83 3.83 0 0 1-2.127.771c-.52.083-1.035.153-1.56.189a5.4 5.4 0 0 1-.968.046l-.032-.156q-.562-2.5-1.19-4.983a16.8 16.8 0 0 1-.617-3.655c-.004-.134.003-.275.005-.412a4 4 0 0 0 3.033.38m147.598-2.438a7 7 0 0 1-1.36-.118 12.2 12.2 0 0 1-2.366-.718 3.33 3.33 0 0 1-1.933-1.535 2.97 2.97 0 0 1 .394-2.414 14.7 14.7 0 0 1 2.787-3.952q.183-.203.368-.404c.182-.2.439-.46.75-.374.263.071.588.602.79.787a6.3 6.3 0 0 0 1.643 1.082 5.44 5.44 0 0 0 2.782.544c-.012.065-.019.131-.033.196a23 23 0 0 1-2.385 5.37c-.243.483-.466.974-.679 1.47a7 7 0 0 1-.758.066"/><path fill="currentColor" d="M11.039 82.257a9.6 9.6 0 0 0-2.122.098c-.165.009-.356-.079-.496.035-.056.046-.082.1-.147.138a2 2 0 0 1-.267.096 6.3 6.3 0 0 0-.973.474c-.047.027-.006.091.041.07q.482-.208.98-.37a1.5 1.5 0 0 1 .271-.082.7.7 0 0 1 .19.034c.18.028.303-.144.462-.206a6.8 6.8 0 0 1 2.054-.235c.028-.002.038-.046.007-.052m98.739-61.759c-.198-.118-.399-.22-.586-.355-.19-.138-.375-.283-.569-.417l-.56-.394a2 2 0 0 0-.282-.169 1.6 1.6 0 0 1-.315-.162.033.033 0 0 0-.047.047 3 3 0 0 1 .163.289 1.3 1.3 0 0 0 .231.287 3.7 3.7 0 0 0 .587.444 3 3 0 0 0 .647.282 5 5 0 0 0 .711.194.026.026 0 0 0 .02-.046m1.939 1.243c-.037-.021-.073-.045-.112-.064q-.124-.06-.25-.118c-.166-.078-.329-.166-.493-.25a.006.006 0 0 0-.006.01c.158.094.32.184.474.283q.116.075.233.148.056.032.114.06a.3.3 0 0 0 .116.042.024.024 0 0 0 .02-.035.3.3 0 0 0-.096-.076m22.415-6.357c-.01-.015-.038-.006-.03.012a9.5 9.5 0 0 0 1.027 2.029c.01.015.04.006.032-.014a9.5 9.5 0 0 0-1.03-2.027m1.466 1.734q-.127-.24-.258-.48-.271-.482-.55-.96c-.006-.009-.018 0-.014.008q.223.5.457.993.113.239.232.473a1.4 1.4 0 0 0 .281.451c.015.013.044.006.042-.017a1.3 1.3 0 0 0-.19-.468m.503.032q-.215-.374-.454-.736a.007.007 0 0 0-.011.007q.182.385.387.759a6 6 0 0 0 .443.727c.007.01.027.004.021-.01a6 6 0 0 0-.386-.746m.475.091c-.012-.023-.044-.003-.034.02a3 3 0 0 0 .195.36 1.7 1.7 0 0 0 .256.311c.008.008.024-.002.017-.013a5 5 0 0 1-.434-.678m1.16.954-.243-.22c-.019-.017-.046.01-.028.028l.241.229a2 2 0 0 0 .248.21c.01.007.019-.007.012-.015a2 2 0 0 0-.23-.232m.898.363-.006.005.128.128.005-.006zm-4.968-3.197a.013.013 0 0 0-.022.013q.14.277.275.557c.09.186.173.376.266.56a.01.01 0 0 0 .018-.007 5.7 5.7 0 0 0-.537-1.123m12.154 21.478a6 6 0 0 1-.233-.36 8 8 0 0 1-.418-.747c-.004-.007-.016-.002-.013.005a5 5 0 0 0 .348.79q.109.185.23.362a1.2 1.2 0 0 0 .275.313.018.018 0 0 0 .025-.02 1.8 1.8 0 0 0-.214-.343m.953.433q-.18-.215-.35-.44-.321-.428-.622-.872a.008.008 0 0 0-.014.008 7 7 0 0 0 .564.925q.15.206.31.404.086.11.18.213a.6.6 0 0 0 .19.166c.013.006.033-.004.027-.02a1.4 1.4 0 0 0-.285-.384m.896.352q-.168-.168-.328-.344a11 11 0 0 1-.612-.735c-.013-.017-.043 0-.03.018a8 8 0 0 0 .594.748q.158.177.324.347a2.3 2.3 0 0 0 .358.318c.013.008.024-.01.016-.02a4 4 0 0 0-.322-.332m.926.33-.322-.31a34 34 0 0 0-.645-.602.008.008 0 0 0-.011.011q.306.319.619.628l.31.304a2 2 0 0 0 .317.284c.01.006.022-.006.016-.016a2 2 0 0 0-.284-.3m.759.131q-.07-.066-.143-.128-.145-.118-.296-.228c-.016-.011-.037.016-.022.028q.148.118.288.245l.142.122q.07.059.146.113c.007.006.015-.006.01-.012a2 2 0 0 0-.125-.14m.729.213a1 1 0 0 0-.086-.07 1 1 0 0 0-.196-.103c-.006-.002-.01.006-.004.009a1 1 0 0 1 .184.11q.044.032.085.066.041.038.083.074c.005.004.013-.001.01-.007a.5.5 0 0 0-.076-.08m-1.755 27.596a.017.017 0 0 0-.03.016c.046.104.088.208.14.308q.079.149.166.292a2.4 2.4 0 0 0 .191.27 3 3 0 0 0 .223.245.017.017 0 0 0 .026-.02 7 7 0 0 0-.716-1.111m.613.053a.015.015 0 0 0-.027.011 2.34 2.34 0 0 0 .836 1.235c.012.009.029-.009.02-.02a13 13 0 0 1-.83-1.226m1.359 1.181c-.073-.089-.151-.174-.224-.263-.148-.178-.297-.356-.437-.54-.007-.01-.021-.002-.015.008a6 6 0 0 0 .384.578c.07.09.14.182.215.266a1.3 1.3 0 0 0 .25.231c.013.009.028-.008.02-.021a1.7 1.7 0 0 0-.193-.259m.559-.101a8 8 0 0 0-.37-.282c-.006-.005-.013.005-.008.01q.17.167.348.322a2.5 2.5 0 0 0 .368.286c.011.007.021-.008.013-.017a2.5 2.5 0 0 0-.35-.319m1.205.481q-.043-.03-.087-.056l-.174-.107c-.016-.01-.03.015-.014.025l.17.112q.042.03.085.054a.5.5 0 0 0 .088.047c.01.003.016-.01.01-.016a.5.5 0 0 0-.078-.059m.678.108-.087-.022c-.014-.004-.02.019-.006.022l.087.021.086.017a.007.007 0 0 0 .004-.012zm-.468-10.912c-.01-.007-.018.008-.01.015a4.65 4.65 0 0 0 2.053.87c.012.002.014-.017.003-.02a6.7 6.7 0 0 1-2.046-.865M96.465 52.94c-2.094-1.515-4.404-2.762-6.613-4.1-.554-.337-1.111-.67-1.655-1.023-.543-.352-1.05-.782-1.597-1.122-.542-.336-1.157-.603-1.717-.916-.567-.317-1.148-.606-1.719-.915a.017.017 0 0 0-.016.028c1.09.693 2.146 1.482 3.26 2.132.553.324 1.174.564 1.739.88.566.315 1.12.653 1.673.99 2.21 1.345 4.35 2.85 6.627 4.076a.018.018 0 0 0 .018-.03m-6.239-2.136q-.793-.426-1.579-.862a17 17 0 0 0-1.49-.87 38 38 0 0 1-3.603-1.825.006.006 0 0 0-.006.01c1.114.648 2.217 1.267 3.276 2.003a15 15 0 0 0 1.701.89q.798.417 1.598.83 3.363 1.73 6.787 3.336c.018.009.034-.018.016-.027q-3.378-1.687-6.7-3.485m-6.849-3.036c-.016-.012-.031.015-.015.027q2.619 1.941 5.278 3.826c.008.006.016-.008.008-.014q-2.613-1.95-5.27-3.84m10.943.873a25 25 0 0 0-2.885-1.972 79 79 0 0 0-3.108-1.817.009.009 0 0 0-.009.015 96 96 0 0 1 3.002 1.887c.986.64 1.95 1.343 2.975 1.92.02.01.043-.017.025-.032m23.169 10.787c-.411-.349-.836-.68-1.262-1.01-.41-.317-.749-.697-1.147-1.02a8.6 8.6 0 0 0-1.283-.705c-.471-.26-.943-.52-1.42-.769a29 29 0 0 0-2.785-1.274c-.012-.004-.017.015-.005.02a27 27 0 0 1 2.842 1.332c.448.245.886.505 1.31.79a13 13 0 0 0 1.238.91 19.2 19.2 0 0 1 4.738 3.945c.01.01.026-.006.016-.017a20.4 20.4 0 0 0-2.242-2.202m-.81 1.196c-.456-.357-.92-.7-1.385-1.045a13 13 0 0 0-1.474-1.116 70 70 0 0 0-6.684-3.254c-.042-.017-.06.05-.019.068a29.3 29.3 0 0 1 6.472 3.582c.427.325.949.525 1.398.824.503.334.989.69 1.468 1.057 1.01.771 2.01 1.556 2.968 2.39.012.011.03-.006.018-.017a31 31 0 0 0-2.762-2.49m-4.858-1.138c-.011-.007-.02.01-.01.017 1.184.775 2.358 1.573 3.57 2.304.01.006.018-.01.009-.015-1.165-.804-2.375-1.547-3.57-2.306m2.969-4.835c-.013-.008-.024.011-.012.02.952.673 1.912 1.33 2.896 1.954.014.01.026-.012.013-.022a70 70 0 0 0-2.897-1.952m16.501 14.279a15 15 0 0 1-1.244-.918 13 13 0 0 0-1.11-.734 26 26 0 0 1-2.524-1.846c-.01-.009-.025.006-.015.016a34 34 0 0 0 2.125 1.808 12 12 0 0 0 1.189.892c.452.267.923.496 1.372.77 1.778 1.084 3.456 2.332 5.279 3.34a.015.015 0 0 0 .015-.025c-1.629-1.199-3.406-2.18-5.087-3.303m.631 1.47q-1.008-.572-2.014-1.15a9 9 0 0 0-1.005-.575c-.341-.14-.703-.231-1.05-.355-.022-.007-.033.025-.015.036.345.221.667.493 1.03.684.32.17.67.284.997.437.701.33 1.396.672 2.079 1.04a96 96 0 0 1 4.026 2.307.014.014 0 0 0 .014-.024 103 103 0 0 0-4.062-2.4m-2.52.048c-.172-.081-.326-.18-.49-.274a.6.6 0 0 0-.237-.103c-.033 0-.056.016-.088.012a.5.5 0 0 1-.147-.057 4 4 0 0 1-.952-.68 4.6 4.6 0 0 1-.724-.86 4 4 0 0 1-.343-.7c.07.02.14.037.208.065.016.006.027-.017.016-.028-.065-.069-.109-.152-.175-.22-.064-.066-.14-.122-.211-.182-.093-.08-.266-.007-.221.129a3.8 3.8 0 0 0 .594 1.013 5.5 5.5 0 0 0 .8.873 6.5 6.5 0 0 0 .943.668 1 1 0 0 1 .12.078c.041.033.053.077.088.113a.6.6 0 0 0 .234.103 3.6 3.6 0 0 0 .572.097c.025.004.035-.037.013-.047m.794.409c-.012-.005-.02.014-.009.02a14 14 0 0 1 2.444 1.432c.013.01.03-.012.017-.023a8.2 8.2 0 0 0-2.452-1.43m1.938-3.415a13 13 0 0 0-3.081-1.706c-.012-.004-.02.015-.009.02a27 27 0 0 1 3.067 1.715c.017.011.04-.016.023-.029m11.74-17.065c-.27-.172-.547-.33-.809-.514a4 4 0 0 0-.767-.518 26 26 0 0 0-3.552-1.116.004.004 0 0 0-.003.007 15 15 0 0 1 1.714.559 12 12 0 0 1 1.676.88 6 6 0 0 0 .767.296 6 6 0 0 1 .872.469c.51.315 1 .661 1.493 1.002.014.01.03-.012.018-.023a12 12 0 0 0-1.41-1.042m-2.466-2.531a14 14 0 0 0-1.829-.652c-.67-.246-1.34-.493-2.014-.73-.014-.005-.02.017-.006.022.647.242 1.293.486 1.935.741a19 19 0 0 0 1.91.813 37 37 0 0 1 3.827 1.555c.013.005.021-.016.01-.021-1.256-.626-2.596-1.067-3.833-1.728m-.354 2.934a63 63 0 0 0-2.094-1.022.008.008 0 0 0-.008.013 17 17 0 0 0 2.096 1.099c.697.306 1.396.636 2.11.897.007.003.01-.007.005-.01-.704-.327-1.415-.626-2.11-.977m-8.139-19.864a17 17 0 0 0-1.67-1.15 20 20 0 0 0-1.724-1.183c-1.25-.662-2.469-1.379-3.719-2.04-.007-.005-.014.007-.007.01a36 36 0 0 1 3.568 2.167c.551.394 1.162.668 1.733 1.035.6.385 1.164.856 1.785 1.204.027.014.058-.022.034-.043m-1.524.3q-.347-.194-.696-.384c-.465-.255-.924-.52-1.384-.782a22 22 0 0 0-2.794-1.307c-.008-.003-.014.011-.006.015.934.423 1.849.89 2.77 1.344a14 14 0 0 1 1.304.72q.337.213.665.439a1.7 1.7 0 0 0 .607.353c.023.003.047-.02.032-.042a1.34 1.34 0 0 0-.498-.356m-3.229-.198a.013.013 0 0 0-.007.025 4 4 0 0 1 1.162.536c.006.005.012-.005.006-.01a3.5 3.5 0 0 0-1.161-.551m1.919-3.526a.015.015 0 0 0-.008.028 5.3 5.3 0 0 1 1.594.88c.012.01.03-.005.018-.017a3.76 3.76 0 0 0-1.604-.891m-30.641.456a.009.009 0 0 0-.01.015c1.714.997 3.422 2.002 5.166 2.946a.012.012 0 0 0 .011-.02c-1.7-1.02-3.436-1.977-5.167-2.941m4.45.828q-.496-.312-.995-.619-.982-.603-1.976-1.186a.018.018 0 0 0-.018.03q.973.583 1.934 1.184.48.3.958.606a9 9 0 0 0 .964.595c.013.006.028-.01.016-.02a7.5 7.5 0 0 0-.883-.59m2.957 1.783c-.004-.002-.008.004-.004.007.535.357 1.068.718 1.608 1.067.007.004.012-.006.006-.01-.532-.362-1.072-.71-1.61-1.064m-4.659.701c-.018-.012-.034.016-.017.028.674.477 1.344.965 2.055 1.386.016.01.029-.014.014-.025-.656-.502-1.358-.942-2.052-1.39m35.91 59.941a19 19 0 0 1-2.328-1.528l-2.434-1.984c-.008-.007-.02.005-.012.012.765.67 1.526 1.343 2.298 2.004q.506.432 1.028.845a4 4 0 0 0 1.022.7 22.8 22.8 0 0 1 4.843 2.242c.011.007.025-.01.015-.019-1.315-1.071-2.997-1.417-4.432-2.272m-2.511.242c.395.139.775.326 1.16.488q.99.417 1.999.783a23 23 0 0 0 4.386 1.228.013.013 0 0 0 .007-.025c-1.486-.521-3.007-.932-4.485-1.48q-1.131-.419-2.236-.902c-.552-.242-1.293-.737-1.897-.53a.1.1 0 0 0-.068.09 4 4 0 0 1-.066.507.05.05 0 0 0 .023.056 77 77 0 0 0 8.21 3.76c.013.004.023-.018.01-.024-1.455-.633-2.927-1.218-4.361-1.9a96 96 0 0 1-2.057-1.02c-.342-.174-.685-.344-1.026-.52a2.4 2.4 0 0 1-.582-.302c-.128-.135-.07-.297-.005-.448.326.11.659.123.988.239m-1.385 1.325c-.025-.01-.045.024-.021.035.99.46 1.979.924 2.982 1.356.011.005.021-.01.01-.017-.982-.477-1.977-.924-2.972-1.374m7.244-1.805c-.846-.564-1.795-.961-2.678-1.462a.022.022 0 0 0-.022.038 12.3 12.3 0 0 0 2.68 1.47c.029.01.043-.031.02-.047m-85.985 10.262a.014.014 0 0 0-.026.007 26.5 26.5 0 0 0 1.49 4.492c.005.013.028.004.023-.01a42 42 0 0 1-1.487-4.489m3.959 4.257c-.23-.592-.45-1.19-.65-1.794a33 33 0 0 0-1.317-3.518c-.015-.031-.064-.009-.055.024a37 37 0 0 0 1.326 3.653q.351.888.662 1.79a8.4 8.4 0 0 0 .647 1.732.035.035 0 0 0 .064-.028 9.2 9.2 0 0 0-.677-1.859m1.946-1.501c-.56-1.681-1.01-3.415-1.692-5.053-.005-.012-.024-.008-.02.006.442 1.718 1.13 3.373 1.697 5.051.568 1.68 1.03 3.405 1.678 5.057.012.03.058.019.05-.014-.48-1.709-1.152-3.363-1.713-5.047m2.373-.983c-.544-1.459-1.089-2.918-1.684-4.356-.006-.016-.032-.01-.026.007.534 1.493 1.122 2.966 1.709 4.438.564 1.417 1.014 2.897 1.638 4.288.014.031.066.009.055-.023-.479-1.476-1.15-2.9-1.692-4.354m1.066-4.078c-.003-.01-.018-.006-.015.004q.36 1.093.76 2.172c.003.01.018.006.015-.004q-.36-1.094-.76-2.172m2.377 6.597-.16-.398-.33-.828c-.003-.009-.018-.005-.014.004l.304.852.147.418a3 3 0 0 0 .157.408.031.031 0 0 0 .057-.025 3 3 0 0 0-.161-.431m.07-6.866c-.007-.015-.033-.004-.027.011.728 1.771 1.357 3.576 1.986 5.384.004.01.02.006.017-.005a49 49 0 0 0-1.976-5.39m1.914-.381c-.004-.01-.02-.003-.016.007.348.95.71 1.897 1.12 2.823.006.014.03.004.025-.01a46 46 0 0 0-1.129-2.82m18.823 20.24a16 16 0 0 0-.788-1.624c-.007-.012-.024-.002-.018.01.265.57.521 1.143.756 1.725.22.545.373 1.13.63 1.655.009.016.03.004.028-.01a8 8 0 0 0-.608-1.756m1.704-1.394q-.644-1.627-1.301-3.249c-.005-.01-.021-.006-.017.005q.628 1.665 1.272 3.323c.412 1.063.773 2.17 1.264 3.2.013.026.057.007.048-.02-.344-1.107-.84-2.182-1.266-3.26m.553-4.427c-.005-.011-.024-.003-.02.008q1.452 3.604 2.956 7.191c.017.04.085.023.067-.019a474 474 0 0 0-3.003-7.18m3.499 2.494q-.67-1.564-1.347-3.125c-.004-.011-.024-.003-.02.008q.638 1.515 1.28 3.029c.441 1.042.849 2.11 1.333 3.133.013.025.057.007.047-.02-.39-1.022-.861-2.02-1.293-3.025m2.53.455-.405-.935-.811-1.87c-.007-.016-.029-.003-.022.012l.787 1.843.386.904a10 10 0 0 0 .413.931.01.01 0 0 0 .018-.007 9 9 0 0 0-.366-.878m.549-3.688c-.003-.005-.011 0-.008.005a6.6 6.6 0 0 1 .796 1.776.005.005 0 0 0 .01-.003 5.5 5.5 0 0 0-.798-1.778m18.979 6.77c0-.008-.016-.007-.015.002a39 39 0 0 0 1.001 5.728c.006.021.036.012.032-.009-.313-1.91-.708-3.808-1.018-5.72m-.514 4.87a43 43 0 0 0-.82-3.479.013.013 0 0 0-.024.007c.292 1.134.538 2.278.75 3.43.21 1.15.335 2.314.536 3.465.003.018.031.014.03-.004a24 24 0 0 0-.472-3.419m-1.591 1.267q-.38-1.976-.629-3.975c-.002-.016-.027-.016-.025 0a43 43 0 0 0 1.443 7.778.018.018 0 0 0 .034-.009c-.257-1.268-.579-2.522-.823-3.794m-1.276 3.009q-.17-.874-.323-1.752a106 106 0 0 1-.546-3.45c-.001-.01-.02-.008-.019.003q.194 1.675.468 3.338.14.846.301 1.689a13 13 0 0 0 .377 1.74c.006.016.035.015.033-.005-.05-.525-.19-1.046-.291-1.563m-1.899-1.886a.01.01 0 0 0-.02.006 22.4 22.4 0 0 1 .574 3.19c0 .01.016.01.015 0a13.2 13.2 0 0 0-.569-3.196m-1.562 1.279c-.008-.008-.02.004-.013.013a.54.54 0 0 1 .12.503.006.006 0 0 0 .011.003.56.56 0 0 0-.118-.519m12.512 10.089c-.004-.007-.016-.002-.013.005a10.5 10.5 0 0 0 1.02 1.917c.005.007.017 0 .012-.007a14 14 0 0 1-1.02-1.915m2.961-.781a.01.01 0 0 0-.019.01q.309.518.621 1.032a.006.006 0 0 0 .01-.006q-.304-.519-.612-1.036M29.346 99.628c-1.616-1.574-3.337-3.05-5.03-4.54-.015-.012-.037.01-.022.023 1.654 1.532 3.298 3.093 5.028 4.54.016.014.04-.008.024-.023m1.342-.93q-.79-.73-1.604-1.434-1.625-1.413-3.315-2.747c-.013-.01-.033.008-.019.02q1.664 1.36 3.262 2.799.774.7 1.536 1.415c.535.5 1.04 1.057 1.612 1.515a.053.053 0 0 0 .075-.075 18 18 0 0 0-1.547-1.493m1.544-.579q-.674-.595-1.364-1.17-1.329-1.102-2.717-2.127c-.01-.008-.025.01-.014.018q1.378 1.07 2.711 2.198.647.55 1.283 1.111.336.298.668.601a4.5 4.5 0 0 0 .612.523c.014.009.034-.01.024-.024a8 8 0 0 0-1.203-1.13m2.336.251q-.492-.407-1.005-.785a23 23 0 0 0-2.24-1.455.008.008 0 0 0-.008.014 23 23 0 0 1 2.197 1.506q.498.387.974.801a7.5 7.5 0 0 0 .964.831c.027.016.063-.017.044-.044a4.7 4.7 0 0 0-.926-.868m2.149.05c-.43-.263-.864-.52-1.296-.782-.02-.012-.038.02-.018.032q.621.411 1.245.819a12 12 0 0 0 1.275.766c.015.008.035-.013.02-.026a12 12 0 0 0-1.226-.81m2.776-.181a4 4 0 0 0-.738-.269.023.023 0 0 0-.013.045c.244.093.474.209.707.323.23.111.446.246.673.36.018.009.039-.014.023-.03a2.8 2.8 0 0 0-.652-.43m2.271-.176a2.2 2.2 0 0 0-.475-.064c-.039-.001-.038.059 0 .06a2.6 2.6 0 0 1 .904.214c.015.006.024-.018.01-.025a1.6 1.6 0 0 0-.439-.185M20.889 65.064c-.324-.184-.848.01-1.197.032a6 6 0 0 1-1.432-.003 4 4 0 0 1-.551-.114 5 5 0 0 0-.608-.164 5.2 5.2 0 0 0-1.175-.077.006.006 0 0 0 0 .012 4.4 4.4 0 0 1 1.32.219 6 6 0 0 1 .612.253.5.5 0 0 0 .402.027 6 6 0 0 1 1.432-.086c.229.008.452.06.68.068a.95.95 0 0 0 .517-.056.065.065 0 0 0 0-.111m-.242 89.341c-.23-.938-.46-1.874-.702-2.809q-.74-2.861-1.533-5.709c-.258-.93-.54-1.855-.756-2.795a7.3 7.3 0 0 0-.281-1.217c-.213-.509-.368-1.035-.538-1.56a181 181 0 0 0-1.974-5.705c-.007-.018-.036-.01-.03.009.603 1.832 1.17 3.676 1.73 5.522.139.46.297.92.413 1.387a10 10 0 0 0 .442 1.38c.369.934.629 1.914.906 2.878q.8 2.783 1.483 5.598.343 1.407.668 2.818a27 27 0 0 0 .696 2.934c.012.036.075.034.07-.01a20 20 0 0 0-.594-2.721m2.059-1.375c-.38-1.429-.774-2.853-1.148-4.282a22 22 0 0 1-.447-2.157 17 17 0 0 0-.58-2.03c-.42-1.46-.882-2.908-1.32-4.363a.026.026 0 0 0-.05.014c.39 1.383.741 2.776 1.104 4.166.185.709.319 1.456.543 2.15.229.708.505 1.384.695 2.108.364 1.39.686 2.792 1.002 4.193a35 35 0 0 0 1.075 4.3c.008.02.045.02.042-.006a27 27 0 0 0-.916-4.094m1.504-4.582a5 5 0 0 0-.228-.624c-.148-.455-.272-.918-.404-1.377l-.793-2.759a.013.013 0 0 0-.024.007l.75 2.77c.125.462.262.922.367 1.388a5 5 0 0 0 .129.651c.093.242.204.476.291.721a.019.019 0 0 0 .036-.01c-.052-.255-.079-.51-.124-.767m1.126 5.343c-.08-.324-.167-.647-.251-.97q-.249-.951-.488-1.905c-.004-.014-.026-.008-.023.007q.22.959.433 1.92a10 10 0 0 0 .464 1.84c.008.018.04.009.038-.01a5 5 0 0 0-.173-.882m.987-7.563a.013.013 0 0 0-.025.006c.352 1.303.664 2.616.973 3.929.004.016.027.009.024-.007a30 30 0 0 0-.972-3.928m35.497 31.576c-4.702-1.616-9.472-3.007-14.107-4.822-1.123-.44-2.21-.968-3.355-1.346-1.214-.4-2.398-.913-3.59-1.371-2.39-.92-4.77-1.863-7.126-2.868-.017-.007-.032.018-.015.026 2.284.99 4.567 1.981 6.866 2.936 1.112.462 2.236.891 3.35 1.344 1.193.483 2.397.883 3.617 1.297 4.772 1.623 9.489 3.49 14.348 4.848a.022.022 0 0 0 .012-.044m-1.334 1.297c-5.07-1.485-10.007-3.345-14.98-5.123-.011-.004-.015.013-.005.017q3.8 1.383 7.603 2.756a48 48 0 0 0 7.366 2.406.03.03 0 0 0 .016-.057m6.128.303c-.008 0-.01.01-.003.012.74.103 1.478.21 2.218.307.007.001.009-.01.002-.011-.738-.107-1.478-.206-2.217-.308m16.162-.664a48 48 0 0 1-5.79-1.328.006.006 0 0 0-.003.011 47.5 47.5 0 0 0 5.999 1.426 28.5 28.5 0 0 0 5.92.567.019.019 0 0 0 0-.037c-2.043-.247-4.089-.306-6.126-.64m-4.234-2.94a.009.009 0 0 0-.005.017 41.2 41.2 0 0 0 9.001 1.667c.008 0 .007-.011 0-.012a50.4 50.4 0 0 1-8.996-1.672m13.544 1.946q-.157-.007-.316-.01-.292-.01-.585-.038a7 7 0 0 1-1.235-.212.012.012 0 0 0-.006.023 9 9 0 0 0 1.227.29q.298.047.6.063a3 3 0 0 0 .315.006.54.54 0 0 0 .239-.042.025.025 0 0 0 0-.042.6.6 0 0 0-.239-.038m.52-1.942q-1.442-.202-2.876-.455a93 93 0 0 1-5.597-1.158.006.006 0 0 0-.003.01c1.878.484 3.773.912 5.683 1.251q1.38.245 2.768.443a17.5 17.5 0 0 0 2.794.315.016.016 0 0 0 .005-.03c-.897-.217-1.861-.248-2.774-.376m4.806-1.594c-1.571-.307-3.17-.508-4.753-.758-1.586-.25-3.172-.5-4.762-.727-.007-.001-.01.01-.003.011 1.611.281 3.226.539 4.84.796 1.554.247 3.11.544 4.67.736.033.004.04-.052.008-.058m-.975-2.773c-.227-.027-.447-.103-.675-.12-.224-.018-.45.01-.675.003a19 19 0 0 1-1.294-.102q-1.369-.139-2.721-.39c-.013-.002-.018.017-.005.019q1.304.257 2.623.433c.448.06.897.104 1.346.158.224.028.448.083.674.102a7 7 0 0 0 .727-.047.028.028 0 0 0 0-.056m2.968.073q-.261.012-.521.02-.52.018-1.041.029a.006.006 0 0 0 0 .011q.52.012 1.04.029l.522.02a1.2 1.2 0 0 0 .487-.03.025.025 0 0 0 0-.048 1.2 1.2 0 0 0-.487-.03m.833-1.976q-.751-.014-1.502-.04-1.53-.056-3.058-.169v.006q1.527.128 3.058.2.75.036 1.502.057a13 13 0 0 0 1.562.013.019.019 0 0 0 0-.037c-.515-.052-1.045-.021-1.562-.03m3.995-2.664c-.432.007-.868.085-1.3.12q-.625.052-1.253.078-1.28.053-2.56.006c-.013 0-.013.02 0 .02q1.304.066 2.61.031.652-.018 1.304-.062a9 9 0 0 0 1.21-.118.038.038 0 0 0-.01-.075m1.902-2.271a21 21 0 0 0-2.167.148l-2.167.19c-.013.001-.013.02 0 .02l2.21-.142a21 21 0 0 0 2.13-.18c.02-.003.015-.035-.006-.036m-.901-2.147c-.013.003-.007.023.006.02a10 10 0 0 1 1.49-.186c.484-.023.967-.006 1.451-.013.02 0 .026-.033.005-.037a7.4 7.4 0 0 0-2.952.216m4.853-3.06c-.428.073-.849.185-1.27.29-.009.002-.005.017.005.015.425-.086.853-.166 1.27-.284a.01.01 0 0 0-.005-.02"/></svg>