<svg xmlns="http://www.w3.org/2000/svg" data-name="danger" viewBox="0 0 509.554 370.645"><path fill="currentColor" d="m335.61 349.27.235 3.136c1.324-.1 2.55-.148 3.748-.148a50 50 0 0 1 5.386.309l.324-3.129a53 53 0 0 0-5.71-.325c-1.278 0-2.58.05-3.984.156m42.54-257.993c-2.891.778-5.954 1.585-9.134 2.41l.79 3.044c3.188-.827 6.262-1.637 9.16-2.416Zm-18.289 4.752c-3.02.764-6.089 1.532-9.168 2.296l.758 3.053a2363 2363 0 0 0 9.182-2.3Zm-5.488 257.567c3.02.267 6.126.453 9.5.568l.106-3.143a171 171 0 0 1-9.327-.558ZM396.23 86.012c-2.262.764-5.286 1.69-8.988 2.75l.867 3.022c3.748-1.073 6.82-2.012 9.127-2.792Zm-5.928 259.108 1.643 2.682a36.5 36.5 0 0 0 7.632-6.191l-2.298-2.148a33.4 33.4 0 0 1-6.977 5.657m-17.132 5.654.352 3.125a48.5 48.5 0 0 0 9.522-2.032l-.971-2.992a45.5 45.5 0 0 1-8.904 1.9m76.463-226.955 2.722-1.578-.118-.204a6011 6011 0 0 1-4.624-7.978l-2.724 1.573c1.431 2.476 2.982 5.148 4.627 7.983Zm-34.79-39.375.097-3.144a31 31 0 0 0-9.802 1.38l.897 3.014a27.5 27.5 0 0 1 8.808-1.25m83.391 120.593a512 512 0 0 0-4.272-8.47l-2.796 1.44a524 524 0 0 1 4.246 8.418ZM398.832 306.54l-2.007 2.422a25.5 25.5 0 0 1 5.848 6.641l2.716-1.587a28.7 28.7 0 0 0-6.557-7.476m5.505 20.223a29 29 0 0 1-1.984 5.35l2.827 1.379a32 32 0 0 0 2.2-5.932 18 18 0 0 0 .57-3.685l-3.142-.146a14.7 14.7 0 0 1-.47 3.034m-12.164-22.205a80 80 0 0 1 9.223-.71l-.051-3.144a84 84 0 0 0-9.598.738Zm-50.662-203.973a3082 3082 0 0 1-9.186 2.233l.74 3.056c3.002-.725 6.082-1.472 9.194-2.234Zm-27.582 6.628.726 3.06c2.855-.675 5.947-1.41 9.207-2.188l-.731-3.06c-3.258.779-6.348 1.513-9.201 2.188m161.974 156.344 1.753 2.61a312 312 0 0 0 7.816-5.412l-1.833-2.556a313 313 0 0 1-7.736 5.358m-65.745 36.491 1.06 2.961c2.233-.8 5.209-2.074 8.847-3.789l-1.341-2.844c-3.548 1.671-6.43 2.907-8.567 3.672m70.358-128.515q-2.29-4.13-4.618-8.273l-2.743 1.54q2.318 4.127 4.61 8.257Zm1.795 9.802q2.289 4.209 4.473 8.313l2.777-1.475q-2.183-4.109-4.487-8.341Zm26.776 50.268-3.072.678a14.3 14.3 0 0 1 .392 2.945q0 .252-.017.469a9 9 0 0 1-1.925 4.16l2.564 1.82a12 12 0 0 0 2.496-5.72q.028-.344.028-.73a17 17 0 0 0-.466-3.622m-17.931 20.972 1.945 2.471c2.782-2.187 5.245-4.267 7.32-6.179l-2.133-2.312c-2.015 1.857-4.414 3.882-7.132 6.02m11.16-38.958-2.861 1.307c1.455 3.182 2.7 6.08 3.7 8.613l2.927-1.155c-1.021-2.584-2.288-5.533-3.766-8.765m-38.49-65.24q2.321 4.049 4.685 8.207l2.737-1.553q-2.361-4.155-4.692-8.218ZM427.162 292.21l1.436 2.799a431 431 0 0 0 8.4-4.429l-1.498-2.766a422 422 0 0 1-8.338 4.396m5.482-202.59a27 27 0 0 0-7.965-5.974l-1.367 2.833a23.9 23.9 0 0 1 7.034 5.289Zm5.698 7.962-2.749 1.53q.326.584.644 1.192c.847 1.62 2.135 3.947 3.935 7.114l2.734-1.554c-1.78-3.134-3.05-5.43-3.881-7.018q-.34-.645-.683-1.264m5.413 185.669 1.546 2.74a582 582 0 0 0 8.223-4.733l-1.594-2.713a561 561 0 0 1-8.175 4.706m16.268-9.551 1.64 2.685a483 483 0 0 0 8.047-5.02l-1.691-2.652a482 482 0 0 1-7.996 4.988M457.1 130.423 454.38 132c1.53 2.643 3.114 5.379 4.734 8.184l2.724-1.571q-2.43-4.212-4.736-8.19M214.61 215.617a44 44 0 0 1-.628-3.3 30 30 0 0 1-.233-1.885c-.048-.56.028-1.114-.032-1.668-.125-1.158-.32-2.307-.431-3.468a81 81 0 0 1 .011-13.793c.001-.02-.029-.02-.031 0a84.6 84.6 0 0 0-.315 14.033 29 29 0 0 0 .234 3.466c.086.491.266.962.358 1.458.109.589.202 1.18.302 1.77l.587 3.436a11.5 11.5 0 0 0 .76 3.293.07.07 0 0 0 .132-.035 15.4 15.4 0 0 0-.714-3.307m8.309-57.832a86.7 86.7 0 0 0-5.81 15.494.055.055 0 0 0 .106.03 146 146 0 0 1 5.778-15.481c.021-.05-.05-.094-.074-.043m-18.829-1.061a70 70 0 0 0-3.298 9.064 94 94 0 0 0-2.13 9.604c-.538 3.214-.903 6.448-1.2 9.693a47 47 0 0 0-.47 4.806c.019 1.638.419 3.293.588 4.921.377 3.62.871 7.254 1.554 10.829.012.064.124.05.115-.016a60 60 0 0 1-.722-9.555c.049-1.605.098-3.205.292-4.8a20 20 0 0 0 .138-2.41c.003-.805-.159-1.593-.176-2.403a62 62 0 0 1 .686-9.664 97 97 0 0 1 1.8-9.568c.845-3.51 1.779-7.036 2.895-10.47.013-.042-.054-.072-.071-.03m-6.301 9.73a114.4 114.4 0 0 0-2.902 18.933c-.006.081.116.078.125 0 .718-6.334 1.713-12.644 2.83-18.919.005-.034-.045-.049-.053-.014m-6.81 80.025a44 44 0 0 1-4.848-9.598c-.292-.794-.547-1.6-.83-2.397-.15-.418-.306-.833-.45-1.253a2.4 2.4 0 0 1-.203-.616c.002-.236.084-.28.231-.498a3.3 3.3 0 0 0 .548-2.173 25 25 0 0 0-.833-2.787 76 76 0 0 1-1.455-11.584 112 112 0 0 1-.177-11.57 99 99 0 0 1 1.394-13.148c.006-.035-.045-.05-.052-.015a101.7 101.7 0 0 0-2.057 23.528 118 118 0 0 0 1.103 11.888 16.7 16.7 0 0 1 .212 2.874c-.015.399-.012.82-.063 1.215a1.5 1.5 0 0 1-.224.59 60 60 0 0 1-1.455-5.73 82 82 0 0 1-1.477-15.418c-.016-1.464.024-2.929-.008-4.392s-.142-2.907-.084-4.37c.001-.037-.051-.035-.055 0-.13 1.315-.327 2.62-.5 3.931a35 35 0 0 0-.218 3.952 90 90 0 0 0 .202 7.9 65.8 65.8 0 0 0 2.749 15.19c.088.278.187.555.278.833a5 5 0 0 0 .243.925 26 26 0 0 0 1.092 2.692 43 43 0 0 0 3.032 5.395 57 57 0 0 0 3.703 4.792c.093.111.285-.036.202-.156m-14.979-55.987a.04.04 0 0 0-.075-.02 91.5 91.5 0 0 0-4.838 31.283 73 73 0 0 0 .753 8.771c.018.127.228.096.223-.03a134.3 134.3 0 0 1 1.999-31.338q.842-4.357 1.938-8.666m-1.413 21.645c.232-2.454.508-4.903.786-7.352.004-.035-.057-.043-.061-.009-1.208 8.67-2.475 17.482-1.623 26.247a38.3 38.3 0 0 0 1.357 7.149.09.09 0 0 0 .173-.048 80.4 80.4 0 0 1-1.266-13.012 122 122 0 0 1 .634-12.975m1.462 21.642a96 96 0 0 1-.225-12.656c.003-.045-.067-.045-.07 0a87 87 0 0 0 .003 12.896 63 63 0 0 0 2.007 12.527.055.055 0 0 0 .105-.03c-.681-4.243-1.472-8.446-1.82-12.737m2.927 9.021a113 113 0 0 1-1.165-7.559c-.003-.019-.033-.02-.032 0a64 64 0 0 0 .857 7.405 41.7 41.7 0 0 0 1.815 7.448.059.059 0 0 0 .113-.031c-.449-2.436-1.133-4.826-1.588-7.263m2.017-.078c-.006-.024-.043-.014-.038.01a43.7 43.7 0 0 0 3.208 9.707c.015.032.06.004.047-.028a55.4 55.4 0 0 1-3.217-9.689m88.336 109.981c0-.013-.021-.017-.023-.003a16 16 0 0 1-.497 1.955c-.196.676-.372 1.357-.571 2.032-.392 1.324-.896 2.61-1.179 3.962-.022.105.115.21.196.114a9.1 9.1 0 0 0 1.754-3.788 12 12 0 0 0 .344-2.101c.045-.727-.015-1.445-.024-2.17m-83.161-97.194c-.01-.034-.06-.02-.053.015a60.7 60.7 0 0 0 3.16 12.11.059.059 0 0 0 .113-.03c-.848-4.079-2.19-8.06-3.22-12.095m6.654 14.611a86 86 0 0 1-.732-2.163 26.7 26.7 0 0 1-1.206-4.492c-.399-2.855-1.163-5.658-1.734-8.485-.008-.042-.081-.033-.076.01a40.6 40.6 0 0 0 1.648 8.615c.474 1.398.747 2.87 1.101 4.301q.261 1.05.54 2.091a7.7 7.7 0 0 0 .704 2.089c.08.129.32.087.306-.083a7.7 7.7 0 0 0-.551-1.883m2.571 1.545q-.575-1.817-1.09-3.654-1.034-3.668-1.725-7.417c-.007-.04-.066-.022-.06.017a98 98 0 0 0 1.419 7.501 69 69 0 0 0 .967 3.688 12.8 12.8 0 0 0 1.266 3.382c.05.077.2.056.19-.052a17.4 17.4 0 0 0-.967-3.465m.76-5.456c-.01-.04-.067-.022-.06.017a31.8 31.8 0 0 0 3.407 10.456c.034.06.14.02.114-.048a81 81 0 0 1-3.46-10.425m4.899 6.287c-.021-.04-.08-.005-.06.035.815 1.607 1.626 3.217 2.51 4.789.017.03.062.003.047-.028-.785-1.623-1.644-3.208-2.497-4.796"/><path fill="currentColor" d="M379.702 261.125a23.4 23.4 0 0 0-.59-3.812 11 11 0 0 0 .474-1.82c.613-3.84-.29-7.736-1.386-11.405-1.264-4.23-2.656-8.452-4.224-12.606a104 104 0 0 0-1.416-4.34 125 125 0 0 0-5.674-13.472A162 162 0 0 0 356.33 196a56 56 0 0 0-.502-1.455 57 57 0 0 0-2.639-5.425c-.384-.783-.753-1.574-1.13-2.361-.408-1.192-.804-2.39-1.209-3.581-.585-1.725-1.398-3.362-2.135-5.025a355 355 0 0 1-4.173-9.866q-4.092-10.046-8.04-20.147c-2.617-6.657-5.243-13.311-8.014-19.905a45.8 45.8 0 0 0-4.63-9.268 35.6 35.6 0 0 0-5.617-5.965c-2.343-2.038-4.805-3.937-7.14-5.985a40 40 0 0 1-3.234-3.088c-.148-.162-.286-.331-.428-.498-.83-1.983-1.706-3.946-2.694-5.864a51.6 51.6 0 0 0-6.604-10.508 16.55 16.55 0 0 0-10.489-5.593c-4.446-.584-8.892.356-13.143 1.614-4.504 1.334-8.967 2.83-13.429 4.299q-13.383 4.404-26.61 9.248-3.43 1.25-6.82 2.593c-2.137.724-4.237 1.582-6.353 2.368-3.624 1.347-7.268 2.62-10.916 3.897-7.44 2.604-14.809 5.433-22.22 8.123q-22.132 8.033-44.35 15.825c-14.78 5.183-29.57 10.353-44.426 15.316-7.058 2.358-14.643 4.445-21.992 2.123-3.505-1.108-6.793-2.666-10.454-3.25a82 82 0 0 0-10.87-.685c-7.964-.205-15.94-.28-23.906-.336-7.891-.056-15.785-.236-23.676-.154-1.993.02-3.983.008-5.976.058a.055.055 0 0 0 0 .11c7.955.605 15.935.831 23.905 1.164q11.953.498 23.906.934c3.889.141 7.787.18 11.673.385a36.1 36.1 0 0 1 10.926 2.244 32.7 32.7 0 0 0 10.473 2.483 38 38 0 0 0 10.872-1.476c7.492-1.982 14.806-4.798 22.132-7.313q11.189-3.84 22.356-7.74 22.336-7.803 44.585-15.849c14.829-5.362 29.579-10.911 44.333-16.47 1.132-.384 2.261-.773 3.385-1.18 8.675-3.135 17.404-6.123 26.152-9.048q6.592-2.205 13.213-4.319c4.284-1.368 8.647-2.897 13.174-3.141 3.912-.211 7.981.576 11.067 3.123 3.037 2.506 5.017 6.02 6.907 9.41 2.105 3.778 4.184 7.594 6.086 11.479 1.936 3.956 3.49 8.112 5.052 12.226q.571 1.512 1.099 3.04a.145.145 0 0 0 .283-.056q2.701 6.446 5.658 12.778c4.087 8.795 8.414 17.45 13.096 25.945q6.984 12.67 14.714 24.908c5.235 8.288 11.045 16.262 15.735 24.882a116 116 0 0 1 6.092 13.28c.639 1.637 1.257 3.284 1.876 4.93q2.067 5.913 3.958 11.876c1.169 3.686 2.492 7.487 2.596 11.39a13.7 13.7 0 0 1-.251 3.05 18 18 0 0 0-2.176.473 8.4 8.4 0 0 1-3.148.36 3.2 3.2 0 0 0-1.154-.114c-.514.065-1.014.17-1.533.209a39 39 0 0 1-2.977.1 109 109 0 0 1-11.551-.715c-.018-.002-.017.025 0 .027 3.913.516 7.84 1.044 11.79 1.174q1.487.049 2.975.073c.473.007.952.086 1.424.077a4.1 4.1 0 0 0 1.248-.335 15 15 0 0 1 2.998-.32 15 15 0 0 0 1.93-.24 9 9 0 0 1-.492 1.342 10.1 10.1 0 0 1-3.456 3.938 37 37 0 0 1-4.814 2.67q-2.781 1.378-5.48 2.911c-3.725 2.117-7.338 4.422-10.94 6.74a180 180 0 0 1-18.456 10.911c-2.677-.308-5.397-.387-8.08-.6a478 478 0 0 1-7.654-.686l8.717-5.957c5.744-3.926 11.55-7.78 17.096-11.985.43-.327.852-.662 1.276-.995 2.347-1.212 4.554-2.788 5.473-5.154a10.54 10.54 0 0 0 .16-5.826c-.385-1.988-.914-3.957-1.418-5.917q-1.52-5.908-3.352-11.729a233.6 233.6 0 0 0-19.245-44.397 231 231 0 0 0-13.068-20.592c-4.767-6.699-10.009-12.991-15.198-19.36a124 124 0 0 1-7.602-10.16 79 79 0 0 1-5.984-11.114l-.254-.573c0-.004.008-.004.007-.01a25 25 0 0 0-.814-3.375q-.5-1.779-.989-3.56-.978-3.565-1.932-7.135-1.904-7.141-3.762-14.294a.041.041 0 0 0-.08.022q1.603 7.219 3.457 14.378.93 3.577 1.907 7.141.49 1.782.988 3.562c.134.478.266.958.407 1.436a123 123 0 0 0-5.884-12.298c-.024-.062-.052-.127-.073-.187q-.358-1.02-.703-2.045-.73-2.164-1.428-4.337-1.382-4.29-2.593-8.63a.022.022 0 0 0-.042.012 159 159 0 0 0 2.31 8.832q.628 2.13 1.33 4.24l.103.303a40 40 0 0 0-3.494-4.736 34 34 0 0 0-1.225-1.333c-.627-1.963-1.39-3.885-2.074-5.828-.013-.037-.073-.022-.06.017.564 1.773 1.073 3.568 1.667 5.332a26.1 26.1 0 0 0-6.604-4.876 24.85 24.85 0 0 0-11.627-2.39 124 124 0 0 0-12.561.862 56.8 56.8 0 0 0-11.866 2.443 23.5 23.5 0 0 0-5.354 2.582c-.077.05-.03.195.066.157a52 52 0 0 1 11.55-3.235 92 92 0 0 1 12.155-.8c4.173-.066 8.52-.421 12.61.59a21.5 21.5 0 0 1 9.032 4.941c5.724 5.097 9.004 12.097 12.016 18.998 1.68 3.851 3.319 7.732 5.357 11.413a83.5 83.5 0 0 0 6.652 10.007c4.933 6.489 10.374 12.57 15.276 19.086a230.5 230.5 0 0 1 39.981 84.83 15.5 15.5 0 0 1 .714 5.693 4.7 4.7 0 0 1-.447 1.434 13 13 0 0 1-2.239-.351 11.4 11.4 0 0 0-2.886-.234c-1.055.032-2.082.076-3.13.211-1.073.139-2.12.331-3.206.378a54 54 0 0 1-13.128-1.415c-2.439-.504-4.853-1.107-7.26-1.75a.02.02 0 0 0-.01.039 99 99 0 0 0 12.973 3.114 54 54 0 0 0 6.474.569 20.6 20.6 0 0 0 6.487-.392 4.8 4.8 0 0 1 1.814-.273 10.7 10.7 0 0 1 1.804.405 8.5 8.5 0 0 0 1.913.36 8.1 8.1 0 0 1-2.34 2.121 68.3 68.3 0 0 1-11.137 5.61 49 49 0 0 1-5.79 1.945c-.224.058-.126.375.093.339a59.5 59.5 0 0 0 8.954-2.1c-2.64 1.698-5.224 3.482-7.816 5.253l-16.864 11.522a82 82 0 0 1-7.77 4.904 29.7 29.7 0 0 1-8.713 2.996 86 86 0 0 1-9.448.934l-10.043.672c-3.317.222-6.633.476-9.953.652a36.5 36.5 0 0 1-9.792-.495c-5.755-1.269-10.815-4.642-15.3-8.342-8.824-7.281-16.069-16.364-25.834-22.5-4.516-2.839-9.635-5.366-12.773-9.86a17.83 17.83 0 0 1-2.803-12.752 18.3 18.3 0 0 1 3.107-6.68 21.1 21.1 0 0 1 8.75-6.363 51.7 51.7 0 0 0-4.967 11.098c-.008.026.032.037.042.011a77.6 77.6 0 0 1 5.063-11.169c1.614-.697 3.276-1.302 4.926-1.857a39.8 39.8 0 0 0-6.643 14.033.027.027 0 0 0 .053.014 54.8 54.8 0 0 1 6.699-14.083q1.002-.335 1.989-.658a31 31 0 0 1 4.25-1.115 34 34 0 0 0-7.86 13.013c-.01.034.04.047.053.014a40.4 40.4 0 0 1 7.84-13.032c.396-.07.792-.135 1.19-.18.213-.025.428-.032.641-.048.273.07.55.132.836.178 1.953.313 3.93.524 5.906.718a28 28 0 0 1 2.764.594 37 37 0 0 1 5.657 2.038 32.8 32.8 0 0 1 7.371 4.668c-.12.081-.247.154-.365.242a3 3 0 0 0-.421.43 6.2 6.2 0 0 0-.746 1.04 15 15 0 0 0-1.026 2.293c-.014.04.05.066.068.028a12.7 12.7 0 0 1 1.286-2.088q.355-.48.705-.965a6 6 0 0 0 .361-.511c.076-.134.138-.275.213-.409a31 31 0 0 1 2.234 2.082c.14.143.271.294.408.44a8.8 8.8 0 0 0-1.212 1.868c-.419.774-.778 1.578-1.14 2.38a62 62 0 0 0-1.991 4.904 41.8 41.8 0 0 0-2.365 10.479c-.002.026.042.032.046.006a54.3 54.3 0 0 1 2.41-10.346 37.6 37.6 0 0 1 2.171-5.01c.41-.776.866-1.527 1.305-2.286a14 14 0 0 0 .972-1.783c.54.587 1.069 1.184 1.604 1.774.14.153.267.315.397.475a36.4 36.4 0 0 0-4.823 19.704.047.047 0 0 0 .093 0 46.6 46.6 0 0 1 4.834-19.58 5.4 5.4 0 0 1 .573.882l.259.517-.077.216c-.245.705-.463 1.42-.674 2.136q-.6 2.043-1.042 4.124a66 66 0 0 0-1.243 8.65 62 62 0 0 0 1.11 17.38 39 39 0 0 0 1.301 4.747c.523 1.503 1.252 2.94 1.896 4.395.076.172.35.048.3-.127-.387-1.371-.643-2.762-.897-4.162-.254-1.397-.586-2.781-.855-4.176a70 70 0 0 1-1.148-8.433 65 65 0 0 1 1.034-16.934 70 70 0 0 1 1.067-4.58c.212-.793.446-1.58.682-2.366l.198-.64q.842 1.27 1.703 2.528c-.106.62-.163 1.257-.24 1.823q-.212 1.578-.346 3.164a71 71 0 0 0-.244 7.094 60.6 60.6 0 0 0 1.685 13.75c.019.075.125.042.113-.03a93.6 93.6 0 0 1-1.356-13.72q-.05-3.369.199-6.734.126-1.679.32-3.353c.054-.467.146-.97.225-1.477a51 51 0 0 0 2.621 3.48c.152.183.313.356.47.532a37 37 0 0 0 .127 4.194 49 49 0 0 0 .938 6.196c.008.037.063.02.057-.016-.33-2.088-.513-4.19-.642-6.3-.075-1.218-.084-2.44-.11-3.661a20.4 20.4 0 0 0 6.695 4.695c5.658 2.47 11.85 2.773 17.899 3.485.302.036.599.083.9.122a3 3 0 0 0 .88.405c.565.134 1.129.269 1.687.424a27 27 0 0 1 3.176 1.118 30.3 30.3 0 0 1 5.993 3.233c.032.024.07-.028.042-.055a22.4 22.4 0 0 0-5.527-3.99q1.191.286 2.377.63a30.4 30.4 0 0 1 4.41 1.55 18.4 18.4 0 0 1 4.028 2.617c.137.113.397-.04.27-.209a18 18 0 0 0-6.29-5.044 28.3 28.3 0 0 0-8.081-2.253c-5.777-.925-11.721-.981-17.38-2.568a21.3 21.3 0 0 1-8.04-3.982c-2.563-2.157-4.363-5.026-6.226-7.77q-3.112-4.584-6.23-9.163a77 77 0 0 1-5.383-8.7 27.1 27.1 0 0 1-2.925-10.78 30 30 0 0 1 .273-5.566 26 26 0 0 1 1.303-5.524c.01-.025-.032-.042-.042-.018a31.5 31.5 0 0 0-1.73 4.508 24.4 24.4 0 0 0-.786 4.85 28.1 28.1 0 0 0 1.006 9.916 31.8 31.8 0 0 0 2.946 6.656c-1.03-.268-2.054-.553-3.098-.755a60 60 0 0 0-4.537-.719c-3.05-.353-6.106-.663-9.159-.994a21.6 21.6 0 0 1-4.158-.649 6.17 6.17 0 0 1-2.828-1.953 17.5 17.5 0 0 1-3.01-6.522c-3.232-10.936-1.977-22.83.908-33.693.85-3.2 1.853-6.355 2.904-9.495.525-1.57 1.065-3.134 1.605-4.7.538-1.56 1-3.145 1.535-4.708.03-.091-.118-.156-.157-.066-.6 1.353-1.268 2.67-1.837 4.037a201 201 0 0 0-1.745 4.293 143 143 0 0 0-3.013 8.483 89 89 0 0 0-3.791 17.538 49.4 49.4 0 0 0 1.324 17.516c.28 1.078.593 2.177.966 3.255a.15.15 0 0 0-.057.063 6 6 0 0 0-.035 1.888 7.4 7.4 0 0 1-.101 1.11 27 27 0 0 1-.234-.769 87 87 0 0 1-.915-3.472 81 81 0 0 1-1.371-7.16 70.4 70.4 0 0 1-.582-14.706c.185-2.837.506-5.678.92-8.491.005-.034-.045-.05-.053-.015a64.2 64.2 0 0 0-1.488 14.758 73.7 73.7 0 0 0 1.497 14.71q.429 2.041.972 4.056a24 24 0 0 0 .759 2.528 8 8 0 0 1-1.955 2.326 25 25 0 0 1-3.174 2.163 177 177 0 0 0-3.66 2.306c-4.632 3.022-9.489 6.68-11.895 11.819a17.3 17.3 0 0 0-1.525 8.664.133.133 0 0 0 .266 0 16.5 16.5 0 0 1 2.691-7.827 29.5 29.5 0 0 1 2.222-3.167 18.3 18.3 0 0 0-1.292 3.554 18 18 0 0 0-.53 4.726 13 13 0 0 0 .538 3.725c.085.41.178.82.29 1.22a18 18 0 0 0 3.802 7.01 20 20 0 0 0 1.875 1.83l-.082-.05a67 67 0 0 0-6.098-3.28 55 55 0 0 0-3.15-1.467c-1.092-.464-2.213-.809-3.334-1.197a.153.153 0 0 0-.118.279c1.032.505 2.02 1.096 3.034 1.634a91 91 0 0 1 3.03 1.67c1.942 1.13 3.716 2.483 5.54 3.784a20.3 20.3 0 0 0 2.89 1.848 15 15 0 0 0 2.611.877c.879.24 1.755.444 2.601.716 1.623.99 3.253 1.968 4.823 3.04a69.5 69.5 0 0 1 6.993 5.552c4.442 3.958 8.543 8.277 12.941 12.281 4.376 3.985 9.125 7.84 14.594 10.215a27.9 27.9 0 0 0 9.164 2.273c1.4.102 2.803.102 4.206.065a38 38 0 0 1 6.068 2.42 48 48 0 0 1 3.34 1.835c1.148.694 2.224 1.477 3.342 2.213.09.059.188-.073.114-.148a23.5 23.5 0 0 0-6.598-4.447 30 30 0 0 0-5.356-1.892c1.643-.066 3.285-.186 4.924-.295l1.48-.096c1.251.577 2.504 1.148 3.75 1.735.054.026.1-.05.047-.08q-1.589-.93-3.26-1.69c6.19-.4 12.386-.751 18.566-1.264a62 62 0 0 0 5.109-.615c.33.089.663.173.987.261 1.098.298 2.206.548 3.32.782 2.09.44 4.187.853 6.285 1.26a65 65 0 0 1 11.38 3.031 27.8 27.8 0 0 1 9.358 5.989 40.2 40.2 0 0 1 6.395 8.426c1.027 1.743 1.98 3.532 2.964 5.3.485.87.953 1.743 1.496 2.577l.078.116c-.757-.201-1.55-.313-2.263-.439a30 30 0 0 0-4.88-.51 32.7 32.7 0 0 0-9.614 1.363c-.064.02-.056.13.017.123a46 46 0 0 1 8.185-.14c1.794.135 3.59.316 5.368.603a2 2 0 0 0 .013.242c-.023.454.005.93-.014 1.366a80 80 0 0 1-.22 3.5q-.312 3.597-.948 7.152a78 78 0 0 1-.692 3.438c-.26 1.153-.629 2.241-.957 3.372a148 148 0 0 1-2.205 6.894c-.023.066.086.114.114.048a63 63 0 0 0 3.823-13.125 66 66 0 0 0 1.27-12.113 2 2 0 0 0 .185.332.027.027 0 0 0 .047-.028 3 3 0 0 1-.23-.52c.001-.176.008-.352.007-.528.832.138 1.66.293 2.48.493a3.75 3.75 0 0 1 1.449.569 1.86 1.86 0 0 1 .59 1.451 29 29 0 0 1-.235 3.69 55 55 0 0 1-1.134 8.02 21.64 21.64 0 0 1-6.662 11.757 14 14 0 0 1-6.02 2.963c-2.751.656-5.57 1.1-8.37 1.484-3.1.425-6.223.719-9.346.895-1.588.09-3.175.179-4.764.226q-1.222.036-2.445.062c-.36.008-.728-.007-1.086.03a1.6 1.6 0 0 0-.385.11 9 9 0 0 0 .692-.999 32.4 32.4 0 0 0 2.189-5.055l2.12-5.506c1.368-3.55 2.552-7.315 4.6-10.546a57 57 0 0 1 3.767-5.054c1.387-1.729 2.672-3.527 3.999-5.3.054-.072-.062-.157-.123-.095-2.67 2.72-5.351 5.427-7.887 8.276a21.5 21.5 0 0 0-3.025 4.226 48 48 0 0 0-2.168 5.216c-1.363 3.539-2.68 7.1-4.095 10.617a10.35 10.35 0 0 1-2.59 4.066 10.65 10.65 0 0 1-3.98 1.983 51 51 0 0 1-5.284 1.195c-1.045.2-2.089.389-3.147.505-.365.04-.752.048-1.138.068 1.632-1.81 3.158-3.69 4.687-5.589.805-1 1.574-2.026 2.384-3.022a.266.266 0 0 0-.376-.375c-1.861 1.744-3.781 3.421-5.642 5.169-1.889 1.774-3.622 3.714-5.389 5.608a46.5 46.5 0 0 1-5.425 5.27c.849-1.576 1.58-3.233 2.314-4.852q1.638-3.615 3.023-7.338a35 35 0 0 0 1.238-3.768q.505-2.041.947-4.098a.031.031 0 0 0-.06-.017c-.766 2.053-1.661 4.055-2.394 6.118q-1.136 3.194-2.462 6.316-1.28 3.009-2.739 5.939c-.44.88-.876 1.767-1.398 2.602-.06.095-.125.187-.187.28a14 14 0 0 1-2.032.987 4.36 4.36 0 0 1 .383-2.227c.455-1.289 1.096-2.506 1.549-3.8a39 39 0 0 0 1.175-3.866 24.7 24.7 0 0 1 1.018-4.055 88 88 0 0 0 5.138-15.226c.674-3.04 1.057-6.118 1.57-9.187.016-.092-.123-.134-.143-.04-.497 2.314-1.1 4.604-1.689 6.896s-1.204 4.576-1.968 6.817a33.8 33.8 0 0 1-2.918 6.362 9.8 9.8 0 0 0-1.47 3.13c-.21 1.175-.088 2.4-.218 3.584a26 26 0 0 1-1.706 6.922 15 15 0 0 1-.778 1.707 12 12 0 0 0-.759 1.389 3.3 3.3 0 0 0-.21 1.963c-.048.014-.09.035-.138.05a20.8 20.8 0 0 1-11.769-.456 29.4 29.4 0 0 1-5.617-2.395c-2.052-1.134-3.976-2.482-5.961-3.725a38.9 38.9 0 0 0-12.577-5.012c-4.393-.95-8.87-1.406-13.306-2.097-9.525-1.483-18.463-5.084-27.722-7.617-.708-1.03-1.547-1.985-2.284-2.988-.912-1.24-1.75-2.53-2.601-3.811a39 39 0 0 0-2.622-3.636c-.103-.122-.578-.854-.865-.598-.13.116-.047.244.086.294a.04.04 0 0 0 .043-.018l.018-.031.042.074c-2.914.109-5.82.354-8.734.477-2.885.121-5.766.588-8.628.953l-8.751 1.117c-2.858.365-5.719.805-8.59 1.06a15.33 15.33 0 0 1-7.906-1 41 41 0 0 1-6.624-4.226 214 214 0 0 1-12.498-9.756q-3.423-2.882-6.645-5.987c-2.14-2.056-4.328-4.104-6.353-6.274-.06-.064-.147.029-.094.094 1.733 2.113 3.415 4.241 5.27 6.25a168 168 0 0 0 5.604 5.768q2.9 2.855 5.947 5.556l.145.124c-1.099-.578-2.171-1.212-3.278-1.771-2.33-1.178-4.67-2.33-7.01-3.49a121 121 0 0 1-13.566-7.748 106.6 106.6 0 0 1-22.546-20.893c-.59-.712-1.169-1.435-1.75-2.155l-.165-.234c-1.055-1.499-2.097-3.015-3.032-4.592-.898-1.516-1.738-3.08-2.738-4.532a18.8 18.8 0 0 0-3.959-3.904 45 45 0 0 1-3.995-3.568 87 87 0 0 1-7.573-9.443.05.05 0 0 0-.088.051c.85 1.577 1.663 3.17 2.595 4.701a64 64 0 0 0 2.963 4.442 35 35 0 0 0 2.193 2.678c-.56-.155-1.14-.257-1.71-.396q-1.673-.407-3.33-.868-3.202-.89-6.344-1.98c-2.11-.731-4.167-1.596-6.266-2.355a20.5 20.5 0 0 0-6.375-1.135 231 231 0 0 1-26.13-1.832 79 79 0 0 1-14.32-3.23c-.029-.01-.04.035-.012.046a67.5 67.5 0 0 0 12.508 3.778c4.237.822 8.526 1.35 12.82 1.766 4.35.421 8.713.699 13.061 1.144a37 37 0 0 1 6.5.91c2.126.613 4.156 1.55 6.234 2.304q3.57 1.294 7.226 2.332 1.77.502 3.556.942.921.227 1.847.438a8 8 0 0 0 .942.2 3.8 3.8 0 0 0 1.023-.113.6.6 0 0 0 .397-.249c1.22 1.136 2.615 2.078 3.732 3.324a39 39 0 0 1 3.034 4.566 210 210 0 0 0 3.18 4.636 99 99 0 0 0 7.02 8.434 80 80 0 0 0 6.207 6.173 79 79 0 0 0 10.466 9.048 109 109 0 0 0 13.597 8.117 79 79 0 0 0 8.143 3.774q3.527 1.321 7.113 2.494a136 136 0 0 0 4.013 3.066 67 67 0 0 0 6.602 4.523 15.77 15.77 0 0 0 7.8 2.145 64 64 0 0 0 8.57-.846l4.427-.565a132 132 0 0 0 13.75 3.83c4.565 1.097 9.137 2.175 13.688 3.328.089.087.168.184.259.27a.102.102 0 0 0 .16-.124l-.033-.051c.266.068.534.13.8.198 4.853 1.247 9.627 2.713 14.394 4.251a111 111 0 0 0 14.118 3.82c8.893 1.62 18.356 1.761 26.382 6.396 2.093 1.208 4.069 2.604 6.133 3.858a34.3 34.3 0 0 0 5.65 2.773 24.95 24.95 0 0 0 12.247 1.58 17 17 0 0 0 5.825-1.921 22.7 22.7 0 0 0 5.235-4.248 260 260 0 0 0 4.453-4.75 6.3 6.3 0 0 0 1.438.188 20 20 0 0 0 3.134-.123 54 54 0 0 0 5.192-.794 12.9 12.9 0 0 0 6.52-3.11.4.4 0 0 0 .12.128 3 3 0 0 0 .967.456 6 6 0 0 0 .95.062q1.221.055 2.444.067c1.506.014 3.015.012 4.52-.056q4.518-.205 9.007-.778c3.026-.388 6.049-.864 9.03-1.51a16.8 16.8 0 0 0 6.94-3.102c3.86-3.014 6.082-7.704 7.233-12.366a56.6 56.6 0 0 0 1.295-8.416c.128-1.4.3-2.82.321-4.226a3.64 3.64 0 0 0-1.197-3.059 4 4 0 0 0-.511-.334 32 32 0 0 0-1.131-3.356 49 49 0 0 0-2.444-5.051 45.8 45.8 0 0 0-6.466-9.045 29.2 29.2 0 0 0-9.2-6.587 54.3 54.3 0 0 0-11.592-3.498 139 139 0 0 0-7.187-1.291c-.647-.098-1.294-.196-1.941-.285.235-.067.475-.117.709-.19.637-.202 1.26-.44 1.88-.686a.73.73 0 0 0 .597.136c2.031-.414 4.27.106 6.324.144a42 42 0 0 0 6.294-.38 48 48 0 0 0 3.925-.713l.014.017a3.3 3.3 0 0 0 .96.49c.691.273 1.411.482 2.116.715 1.386.46 2.772.92 4.167 1.35a16.2 16.2 0 0 0 8.058.756 51 51 0 0 0 7.696-2.732c2.546-.965 5.111-1.875 7.677-2.783 5.131-1.815 10.268-3.63 15.253-5.825a73 73 0 0 0 7.198-3.571 11.16 11.16 0 0 0 5.08-5.284 16.3 16.3 0 0 0 .972-4.177q.307-2.402.376-4.823a39 39 0 0 0-.13-4.752m-43.23-97.45q-7.107-12.652-13.594-25.667c-2.172-4.37-4.246-8.785-6.331-13.197-1.782-3.77-3.446-7.597-5.2-11.379a95 95 0 0 0-1.35-3.632q-.55-1.387-1.097-2.773l.072.083a62.5 62.5 0 0 0 5.997 5.553 55 55 0 0 1 5.894 5.66 31.4 31.4 0 0 1 4.802 8.288c5.667 13.205 10.628 26.7 16.08 39.993 1.463 3.565 3.004 7.099 4.561 10.624.074.198.144.398.22.596.733 1.91 1.507 3.803 2.3 5.69q.565 1.347 1.135 2.698-7.042-11.086-13.489-22.536M170.108 341.248c-2.162-.503-4.356-1.02-6.553-1.387l1.05-.134a543 543 0 0 0 7.153-.95l.005.007c.387.47.79.928 1.188 1.39.385.45.778.892 1.171 1.334a10 10 0 0 0 .96.92c-1.657-.395-3.314-.793-4.974-1.18m7.507 1.78c-.695-.167-1.39-.328-2.085-.494a20 20 0 0 0-2.17-2.692c-.349-.382-.695-.766-1.048-1.144.757-.11 1.516-.206 2.272-.327.568-.091 1.137-.195 1.705-.296.767.965 1.523 1.94 2.25 2.932.663.905 1.315 1.815 1.978 2.717zm3.42.82a24.4 24.4 0 0 0-4.47-5.82c1.256-.228 2.508-.478 3.758-.738a50 50 0 0 0 3.124 5.05c.585.843 1.178 1.7 1.8 2.533q-2.105-.517-4.211-1.025m5.156 1.255c-.77-1.048-1.572-2.077-2.322-3.132-1.115-1.571-2.206-3.16-3.335-4.722 1.327-.277 2.65-.567 3.966-.86.01-.001.012-.01.02-.014a429 429 0 0 0 3.659 5.84c.668 1.006 1.353 2.009 2.1 2.96.336.43.689.857 1.069 1.256q-2.573-.685-5.157-1.328m131.772-61.52q3.848.464 7.709.812c2.594.231 5.236.525 7.85.552a78 78 0 0 1-3.242 1.483c-.438.187-.88.36-1.323.538-2.507-.097-5.013-.152-7.518-.331a123 123 0 0 1-6.887-.71c1.138-.78 2.273-1.566 3.411-2.344m.411 6.551a42 42 0 0 1-6 .7c-1.781.076-3.532-.072-5.3-.155a52 52 0 0 0 2.616-1.527q.158-.1.314-.203a79 79 0 0 0 4.752.393 58 58 0 0 0 6.869.06 51 51 0 0 1-3.25.732m3.493-.802c-.006-.007-.006-.018-.019-.019-2.324-.07-4.647-.077-6.97-.213-1.504-.089-2.998-.239-4.493-.397 1.36-.87 2.7-1.773 4.033-2.685a85.6 85.6 0 0 0 14.283 1.055 60 60 0 0 1-6.834 2.26m17.72 2.367-.649-.044q-2.359-.16-4.718-.308c-3.096-.198-6.212-.52-9.313-.584-.016 0-.015.022 0 .024 3.206.378 6.465.494 9.685.736q2.294.171 4.588.335a61 61 0 0 1-1.911.694 12.7 12.7 0 0 1-4.353.809 16.4 16.4 0 0 1-4.306-.78c-1.47-.432-2.918-.93-4.378-1.391q-.386-.124-.771-.25a61 61 0 0 0 5.186-1.724c.494-.19.977-.402 1.466-.603.072.002.131.005.158.008q3.565.415 7.135.785 3.192.336 6.386.653c-1.405.535-2.801 1.099-4.205 1.64m38.639-27.04a36.2 36.2 0 0 1-.95 7.904 8.7 8.7 0 0 1-1.437 3.2 9.8 9.8 0 0 1-2.622 2.224 60 60 0 0 1-6.75 3.482c-3.94 1.8-7.997 3.317-12.073 4.777-2.005-.443-4.06-.734-6.077-1.097-2.296-.414-4.595-.81-6.893-1.212-.022-.004-.031.03-.01.034 2.334.433 4.665.873 7 1.295 1.92.347 3.848.767 5.784 1.05q-1.125.404-2.25.803l-2.142.759c-.792-.145-1.6-.245-2.371-.375q-1.937-.324-3.88-.598-3.775-.53-7.57-.865c-.02-.002-.02.029 0 .031q3.958.43 7.9 1.01 1.88.28 3.756.593c.582.098 1.172.229 1.764.346a409 409 0 0 0-4.822 1.734c-.125.046-.249.097-.374.144l-1.144-.125c-1.558-.171-3.116-.33-4.675-.49q-2.275-.234-4.552-.456c-.779-.077-1.558-.157-2.337-.23l-1.107-.1c7.377-3.073 14.172-7.308 20.88-11.626 3.668-2.36 7.326-4.738 11.085-6.95a116 116 0 0 1 5.716-3.166c1.712-.882 3.472-1.677 5.13-2.661a14 14 0 0 0 5-4.787q.027.605.04 1.21a81 81 0 0 1-.02 4.143"/><path fill="currentColor" d="M74.336 269.627c-.004-.034-.057-.036-.055 0a68.4 68.4 0 0 0 1.81 13.488c.02.08.132.045.12-.033-.668-4.48-1.429-8.944-1.875-13.455m6.223 21.045q-.239-1.458-.465-2.917a197 197 0 0 1-.46-3.17c-.077-.56-.17-1.124-.205-1.69-.029-.47.005-.935-.052-1.405-.51-4.186-1.095-8.365-1.62-12.55-.002-.014-.024-.015-.023 0 .26 4.175.678 8.338 1.173 12.49.114.95.403 1.875.534 2.828.14 1.018.288 2.034.43 3.05q.223 1.588.456 3.174a17.5 17.5 0 0 0 .542 3.154.063.063 0 0 0 .123-.017 17.7 17.7 0 0 0-.433-2.947m5.086 4.753c-.178-1.14-.366-2.28-.54-3.421a327 327 0 0 1-1.053-7.35 772 772 0 0 0-1.925-14.015c-.005-.03-.058-.024-.054.007a773 773 0 0 0 1.903 14.019c.353 2.45.66 4.905.956 7.362.139 1.147.263 2.294.397 3.441a23 23 0 0 0 .503 3.476.133.133 0 0 0 .26-.035 23 23 0 0 0-.447-3.484m4.748 4.676c-.259-1.295-.435-2.603-.628-3.909-.388-2.619-.65-5.253-.939-7.884-.56-5.11-1.265-10.208-1.956-15.302-.003-.022-.041-.017-.039.005.572 5.11 1.133 10.225 1.836 15.319.361 2.621.75 5.24 1.012 7.874.131 1.314.28 2.627.344 3.947a13 13 0 0 0 .398 3.77.26.26 0 0 0 .507-.069 13 13 0 0 0-.535-3.75m5.859 7.192c-.124-.647-.266-1.29-.392-1.936a80 80 0 0 1-.668-3.905c-.39-2.704-.733-5.415-1.086-8.124-.676-5.185-1.295-10.377-1.997-15.559-.008-.06-.115-.047-.107.015.651 5.268 1.388 10.525 2.065 15.79.337 2.632.686 5.261.99 7.896.152 1.313.263 2.629.349 3.948.043.658.07 1.316.115 1.974a2 2 0 0 0 .38 1.386.217.217 0 0 0 .337-.044 2 2 0 0 0 .014-1.441m1.33-25.08c-.009-.065-.12-.05-.115.016.219 2.568.46 5.124.874 7.67.007.043.079.033.076-.011-.155-2.575-.484-5.122-.835-7.675m1.255 15.002c-.003-.015-.025-.009-.022.006.633 3.613.8 7.238 1.11 10.884a.04.04 0 0 0 .079 0 45.4 45.4 0 0 0-1.167-10.89m6.035 3.115q-.47-3.287-.881-6.583-.82-6.516-1.404-13.059c-.001-.015-.024-.015-.023 0q.469 6.601 1.174 13.182.35 3.259.768 6.51a45 45 0 0 0 1.037 6.39.07.07 0 0 0 .138-.018 60 60 0 0 0-.81-6.422m4.272-6.361q-1.054-6.368-1.918-12.763c-.001-.008-.016-.006-.015.002q.805 6.35 1.754 12.683c.64 4.287 1.262 8.614 2.238 12.84.01.044.074.024.068-.02-.587-4.263-1.425-8.497-2.127-12.743m5.463 9.339q-.65-4.054-1.001-8.145c-.004-.045-.074-.045-.07 0q.281 4.1.822 8.178a56 56 0 0 0 1.494 7.875c.021.075.124.042.113-.03-.392-2.636-.937-5.247-1.358-7.878m2.447-9.158c-.002-.014-.024-.01-.023.002.737 5.857 1.403 11.74 2.493 17.545.004.021.04.017.038-.005-.576-5.878-1.579-11.713-2.508-17.543m4.089 22.755q-.21-.742-.435-1.48c-.294-.967-.601-1.929-.875-2.901a.008.008 0 0 0-.015.004c.22.988.404 1.983.602 2.975.098.487.204.972.306 1.457a3.65 3.65 0 0 0 .485 1.368.075.075 0 0 0 .138-.037 3.6 3.6 0 0 0-.206-1.386m4.746 1.256q-.672-2.51-1.27-5.039-1.206-5.114-2.07-10.3c-.007-.04-.066-.023-.06.016q.8 5.2 1.932 10.339.56 2.538 1.208 5.055a26.7 26.7 0 0 0 1.451 4.879c.023.047.11.026.102-.028a39 39 0 0 0-1.293-4.923m2.662-.879a.016.016 0 0 0-.03.007 58 58 0 0 0 3.281 10.433c.019.04.085.011.072-.03-1.1-3.48-2.383-6.88-3.323-10.41m5.934 1.363c-.007-.018-.037-.01-.03.008 1.753 4.442 3.599 8.864 5.777 13.116.019.036.07.004.054-.032-1.97-4.35-3.986-8.674-5.8-13.092m6.877 3.627q-1.19-2.814-2.246-5.68c-.009-.024-.046-.014-.038.01q.976 2.843 2.08 5.641a45 45 0 0 0 2.367 5.323c.023.041.096.013.079-.033-.668-1.783-1.5-3.508-2.242-5.262m5.808 12.724q-.401-.779-.797-1.559-.804-1.587-1.514-3.217c-.005-.012-.026-.004-.021.009q.631 1.607 1.332 3.188c.237.534.482 1.065.744 1.588a10 10 0 0 0 .889 1.577c.036.048.131.024.107-.045a13 13 0 0 0-.74-1.541m4.457-2.81-2.327-4.782c-1.532-3.15-3.093-6.285-4.649-9.423-.006-.014-.026-.002-.02.012 1.467 3.14 2.93 6.284 4.42 9.414l2.181 4.581a38 38 0 0 0 2.373 4.755c.035.053.129.021.107-.045a36 36 0 0 0-2.085-4.512m4.192-4.771-3.787-8.103c-.017-.037-.07-.005-.054.031l3.75 8.124c1.25 2.704 2.45 5.442 3.798 8.097.011.023.043.003.033-.02-1.16-2.744-2.479-5.43-3.74-8.13m8.551 6.581-.664-1.312q-.66-1.314-1.304-2.637-1.317-2.7-2.6-5.416-2.54-5.373-4.983-10.792c-.015-.032-.061-.004-.047.028a411 411 0 0 0 4.813 10.75q1.245 2.667 2.523 5.319l1.228 2.54.64 1.325a3.6 3.6 0 0 0 .679 1.177c.03.027.09.011.086-.036a2.6 2.6 0 0 0-.371-.946m1.612-7.706a208 208 0 0 0-4.501-8.221.043.043 0 0 0-.074.043c1.51 2.691 2.96 5.414 4.381 8.152q1.052 2.027 2.066 4.073c.691 1.397 1.317 2.838 2.067 4.203.019.034.08.01.064-.027-1.113-2.818-2.615-5.533-4.003-8.223m5.774 2.572a213 213 0 0 0-2.866-4.79.02.02 0 0 0-.034.02c.883 1.603 1.746 3.217 2.622 4.825a41 41 0 0 0 2.726 4.763c.026.035.097.016.078-.034a33 33 0 0 0-2.526-4.784m4.967.142a11.6 11.6 0 0 0-1.056-1.35c-.024-.027-.07.008-.05.037.337.467.634.956.947 1.438s.61.977.905 1.47c.032.053.104.007.08-.047a10.5 10.5 0 0 0-.826-1.547m21.001 17.77a40 40 0 0 0-2.904-4.505c-.967-1.5-1.927-3.008-2.836-4.546-1.822-3.082-3.702-6.11-5.792-9.02a.055.055 0 0 0-.094.055c1.767 3.163 3.739 6.18 5.78 9.172a127 127 0 0 1 2.911 4.501 38 38 0 0 0 2.794 4.452c.07.083.181-.023.141-.109m6.277 1.438a18 18 0 0 0-1.367-2.313q-.715-1.14-1.416-2.286a256 256 0 0 1-2.812-4.724c-1.827-3.132-3.629-6.275-5.518-9.37a.04.04 0 0 0-.068.04c1.693 3.255 3.534 6.42 5.418 9.57.92 1.537 1.848 3.07 2.765 4.61q.689 1.154 1.376 2.309a17 17 0 0 0 1.463 2.287c.08.096.201-.026.16-.123m5.512 1.148c-.682-1.255-1.445-2.465-2.125-3.723-.681-1.257-1.357-2.517-2.039-3.774a44.4 44.4 0 0 0-4.539-6.99c-.033-.04-.104.014-.073.058a80 80 0 0 1 4.484 7.138c1.394 2.443 2.577 5.038 4.069 7.421a.129.129 0 0 0 .223-.13m5.853 1.428a10 10 0 0 0-.955-1.418c-.279-.412-.523-.848-.777-1.275q-.846-1.42-1.686-2.844a51 51 0 0 0-3.33-5.25c-.021-.027-.068-.002-.047.027 1.191 1.69 2.165 3.54 3.198 5.328l1.6 2.77c.265.462.545.919.783 1.395a10 10 0 0 0 .769 1.527.258.258 0 0 0 .445-.26m7.495 1.311c-.815-1.415-1.847-2.656-2.702-4.046-.85-1.38-1.627-2.8-2.405-4.22-.758-1.385-1.442-2.81-2.195-4.198a43 43 0 0 0-2.672-4.209.055.055 0 0 0-.094.056 43 43 0 0 0 2.236 4.319c.84 1.385 1.747 2.728 2.578 4.118.81 1.355 1.62 2.709 2.355 4.105.78 1.484 1.34 3.045 2.158 4.508a.43.43 0 0 0 .741-.433m.643-6.247c-.054-.064-.164.02-.117.09.718 1.054 1.39 2.139 2.1 3.2a.047.047 0 0 0 .08-.048 13.1 13.1 0 0 0-2.063-3.242m4.933 7.2a1.5 1.5 0 0 0-.163-.357 3.3 3.3 0 0 0-.53-.596 10 10 0 0 1-1.015-1.124c-.014-.017-.043.005-.03.024a10 10 0 0 1 .719 1.351 3.4 3.4 0 0 0 .357.664 1.4 1.4 0 0 0 .288.288.9.9 0 0 0 .309.178.1.1 0 0 0 .123-.094.9.9 0 0 0-.058-.334m2.874-3.444c-.035-.027-.08.032-.047.062a10 10 0 0 1 1.224 1.348c.182.236.37.473.57.693.203.223.403.458.622.665.047.044.146 0 .118-.068a7 7 0 0 0-2.487-2.7m12.37 5.741c-.538-.615-1.101-1.206-1.647-1.813-.035-.038-.086.017-.056.055.502.636.985 1.285 1.495 1.914a13.5 13.5 0 0 0 1.621 1.788c.036.03.094-.008.068-.052a13.4 13.4 0 0 0-1.481-1.892m3.624 1.292c-.325-.41-.67-.813-1.021-1.201-.704-.778-1.461-1.502-2.178-2.267-.015-.016-.044.006-.03.024.609.846 1.172 1.724 1.795 2.562.299.402.613.8.935 1.185a2.86 2.86 0 0 0 1.097.988.086.086 0 0 0 .11-.083 2.7 2.7 0 0 0-.708-1.208m2.497-1.255q-.547-.616-1.083-1.242c-.704-.821-1.418-1.632-2.114-2.46-.02-.023-.062.008-.043.033a54 54 0 0 0 1.963 2.554q.512.617 1.034 1.226a5.3 5.3 0 0 0 1.129 1.151c.046.028.09-.026.07-.07a5.6 5.6 0 0 0-.956-1.192m-.207-5.475c-.11-.111-.217-.231-.337-.332-.129-.108-.256-.219-.387-.323-.02-.015-.054.004-.037.028q.136.197.28.389c.094.13.206.247.311.368.105.12.22.228.332.339a5 5 0 0 0 .384.326c.029.022.08-.007.055-.043a5 5 0 0 0-.601-.752m2.554 3.174a3.5 3.5 0 0 1-.49-.445 2.7 2.7 0 0 1-.428-.63c-.011-.024-.052-.008-.043.017a2.6 2.6 0 0 0 .753 1.077q.06.048.121.093c.042.03.091.08.146.073a.06.06 0 0 0 .057-.065c-.004-.06-.073-.089-.115-.12m.167-4.436a2 2 0 0 0-.126-.13 3 3 0 0 1-.264-.252 4.6 4.6 0 0 1-.466-.548.082.082 0 0 0-.142.083 2.5 2.5 0 0 0 .433.64 3 3 0 0 0 .286.255 1 1 0 0 0 .167.097.6.6 0 0 0 .183.065c.04.005.061-.047.043-.077a1 1 0 0 0-.114-.133m3.295-4.867-.125-.176a2 2 0 0 0-.143-.177l-.147-.156a.075.075 0 0 0-.116.09l.112.182a2 2 0 0 0 .134.185l.136.167a1 1 0 0 0 .165.137.047.047 0 0 0 .074-.056 1 1 0 0 0-.09-.196m29.479-40.626c-.41-.222-.823-.44-1.218-.688a12 12 0 0 1-1.163-.837c-.035-.028-.085.02-.05.05a10 10 0 0 0 2.413 1.518c.025.01.041-.03.018-.043m7.813.373a25.4 25.4 0 0 0-3.864-2.626q-2.073-1.223-4.257-2.241c-.031-.015-.059.032-.027.047q2.127 1.04 4.15 2.277c1.346.825 2.613 1.77 3.956 2.599.033.02.073-.029.042-.056m3.401-1.706c-1.095-.836-2.279-1.555-3.448-2.282l-3.508-2.178c-.03-.018-.057.028-.028.047l3.44 2.295c1.144.763 2.288 1.542 3.5 2.192a.043.043 0 0 0 .044-.075m6.234-.471a12 12 0 0 0-1.803-1.415 51 51 0 0 0-2.023-1.152c-1.39-.759-2.83-1.413-4.241-2.13a.07.07 0 0 0-.07.121c1.317.878 2.592 1.812 3.935 2.651.658.411 1.32.818 1.997 1.198a12 12 0 0 0 2.117.877.09.09 0 0 0 .087-.15m3.849-1.976a25 25 0 0 0-2.464-1.45c-.825-.476-1.652-.951-2.46-1.455-.031-.02-.056.027-.028.047a31 31 0 0 0 2.399 1.652 11.8 11.8 0 0 0 2.514 1.3c.06.018.083-.062.04-.094m3.854.378c-.173-.15-.347-.309-.532-.446-.363-.27-.747-.509-1.116-.771-.044-.031-.096.037-.057.073.326.308.632.635.966.934.161.145.341.274.512.409a3.2 3.2 0 0 0 .579.366c.052.026.135-.033.09-.091a3.3 3.3 0 0 0-.442-.473m-36.536-9.786c-3.343-1.296-6.805-2.298-10.24-3.316-.04-.012-.054.047-.017.06 3.374 1.206 6.762 2.443 10.226 3.37a.059.059 0 0 0 .03-.114m16.144 1.967c-3.363-1.121-6.798-2.038-10.196-3.04a846 846 0 0 1-10.185-3.055c-.005-.002-.007.006-.003.007a316 316 0 0 0 10.111 3.324c3.382 1.042 6.787 2.099 10.245 2.862a.05.05 0 0 0 .027-.098m6.475-2.149a14.3 14.3 0 0 0-2.508-.708l-2.744-.708q-2.683-.693-5.36-1.414c-3.607-.972-7.216-1.936-10.81-2.956a.012.012 0 0 0-.007.023c3.571 1.096 7.15 2.177 10.752 3.173q2.67.738 5.35 1.45 1.309.347 2.622.682a14.3 14.3 0 0 0 2.665.604.079.079 0 0 0 .04-.146m4.691-1.92c-1.114-.769-2.812-.676-4.092-.974-1.461-.341-2.903-.807-4.342-1.229q-4.27-1.253-8.523-2.569c-.02-.006-.027.024-.008.03q4.224 1.413 8.493 2.675c1.404.411 2.826.774 4.22 1.213 1.286.405 2.753 1.387 4.14 1.269a.225.225 0 0 0 .112-.415m5.081-2.323a11.6 11.6 0 0 0-3.137-.74c-1.108-.262-2.204-.572-3.302-.877q-3.291-.915-6.561-1.905a.016.016 0 0 0-.009.03q3.26 1.023 6.543 1.975c1.094.317 2.193.617 3.282.95a11 11 0 0 0 3.09.916.189.189 0 0 0 .094-.35m3.457-2.537c-.393-.482-1.147-.508-1.716-.605-.627-.107-1.252-.212-1.875-.34l-3.87-.793a.04.04 0 0 0-.02.075l3.864 1.087c.633.178 1.258.381 1.884.58a2.47 2.47 0 0 0 1.707.198c.083-.036.072-.145.026-.202m2.449-3.842a11 11 0 0 0-2.925-.564c-.1-.013-.12.153-.024.177a10.7 10.7 0 0 0 2.913.519c.063-.003.105-.102.036-.131m5.418-3.154a3.4 3.4 0 0 0-.476-.047 3 3 0 0 0-.486.052c-.156.028-.307.07-.462.103-.155.034-.313.055-.469.082-.103.018-.08.19.025.184.159-.009.318-.023.476-.026.16-.002.317.004.476-.003a3 3 0 0 0 .484-.061 3 3 0 0 0 .45-.153.067.067 0 0 0-.018-.13m-73.474-146.49c-.037-.053-.122-.006-.088.051a54 54 0 0 0 5.113 7.158c.033.039.1-.012.07-.054-1.658-2.413-3.41-4.76-5.095-7.155m12.516 10.08q-.115-.272-.234-.543c-.015-.04-.083-.039-.08.011l.002.15c-.752-.954-1.577-1.862-2.325-2.82a42 42 0 0 1-2.75-3.759c-.757-1.23-1.692-2.352-2.529-3.534a113 113 0 0 0-2.657-3.606c-.028-.037-.088-.006-.064.037a47 47 0 0 0 2.346 3.788 34 34 0 0 0 2.495 3.484c.961 1.075 1.807 2.258 2.698 3.391.936 1.19 1.822 2.483 2.842 3.6.136.148.323-.041.256-.199m5.498.047c-.723-1.052-1.566-2.024-2.37-3.014q-.655-.804-1.295-1.621c-.249-.317-.513-.634-.742-.967-.208-.305-.33-.65-.53-.959-.685-1.068-1.552-2.051-2.33-3.054-.847-1.091-1.706-2.184-2.643-3.2a.035.035 0 0 0-.055.043c.73 1.125 1.543 2.2 2.353 3.268.791 1.045 1.531 2.174 2.402 3.155.243.274.533.488.768.772.234.281.448.58.662.877q.608.841 1.196 1.697c.745 1.087 1.453 2.21 2.271 3.244.14.176.441-.055.313-.241m-1.024-7.767c-.475-.587-.996-1.132-1.493-1.7-.008-.01-.026.004-.018.015.448.585.869 1.191 1.34 1.76.48.58.972 1.153 1.481 1.71.02.022.062-.008.043-.034a46 46 0 0 0-1.353-1.751m6.254 7.206c-.143-.156-.293-.306-.442-.457-.296-.302-.6-.597-.896-.9a23 23 0 0 1-1.662-1.915c-.016-.021-.052.006-.037.028.506.69 1.026 1.37 1.542 2.052.249.33.5.658.767.971.138.162.275.324.424.476.133.137.277.324.474.361a.125.125 0 0 0 .151-.151 1 1 0 0 0-.32-.465m4.068-1.627c-.393-.476-.806-.94-1.242-1.378-.877-.88-1.829-1.674-2.783-2.468-.023-.019-.056.013-.033.033a27 27 0 0 1 2.534 2.65q.591.686 1.166 1.387a5.6 5.6 0 0 0 1.194 1.306.075.075 0 0 0 .109-.084 4.2 4.2 0 0 0-.945-1.446m3.465-.969c-.044-.024-.084.043-.04.067a2.6 2.6 0 0 1 1.011 1.01c.014.025.05.003.037-.022a2.35 2.35 0 0 0-1.008-1.055m12.006-10.43a172 172 0 0 1-1.634-6.154c-1.025-4.2-1.883-8.449-2.79-12.676-.006-.03-.05-.017-.045.012.78 4.264 1.778 8.464 2.791 12.676.497 2.065.986 4.13 1.491 6.193a33 33 0 0 0 1.75 6.134c.015.034.077.018.072-.02a41.4 41.4 0 0 0-1.635-6.165m3.025-.954c-.725-2.67-1.474-5.333-2.214-8a.008.008 0 0 0-.015.005c.684 2.681 1.358 5.365 2.056 8.043.694 2.658 1.242 5.423 2.165 8.012a.059.059 0 0 0 .113-.031c-.487-2.705-1.386-5.377-2.105-8.029m3.882.18a.016.016 0 0 0-.03.008c.6 2.275 1.172 4.56 1.832 6.82a.016.016 0 0 0 .03-.01c-.562-2.285-1.211-4.549-1.832-6.818m-2.429 121.369a13.1 13.1 0 0 1-5.66.284c-1.981-.229-3.962-.466-5.944-.688-1.037-.117-2.078-.215-3.11-.376-.468-.072-.909-.2-1.367-.297a3.9 3.9 0 0 0-1.308.168 13 13 0 0 1-3.045-.184c-1.021-.105-2.042-.218-3.066-.3-.015 0-.014.022 0 .024 1.02.126 2.044.222 3.066.325a11.4 11.4 0 0 1 3.403.601 2.15 2.15 0 0 0 1.01.252c.535-.015 1.06-.018 1.596.016 1.024.064 2.045.174 3.066.268 1.975.181 3.95.387 5.93.51a13.9 13.9 0 0 0 5.454-.509c.06-.02.035-.113-.025-.094m-8.848-4.957c-2.073 0-4.142-.06-6.212-.133-1.015-.036-2.03-.054-3.045-.093-.489-.018-.974-.125-1.461-.115-.57.011-1.141.164-1.705.225-.042.005-.06.072-.01.08.544.096 1.08.257 1.63.316a11 11 0 0 0 1.302-.039c1.056-.012 2.111.017 3.167 0 2.111-.036 4.223-.12 6.333-.186a.027.027 0 0 0 0-.055m-16.286-.426c-.246-.027-.492-.06-.738-.074a2.1 2.1 0 0 0-.693.032.045.045 0 0 0 0 .087 2.1 2.1 0 0 0 .693.104c.245.013.492.005.738.005q.738 0 1.475.017c.02 0 .02-.03 0-.03a66 66 0 0 1-1.475-.141m12.371-4.426c-2.538-.045-5.076-.093-7.614-.125q-1.872-.02-3.744-.029a19 19 0 0 0-3.636.116.059.059 0 0 0 0 .113 18.3 18.3 0 0 0 3.51.119c1.29-.007 2.58-.013 3.87-.029 2.538-.03 5.076-.078 7.614-.122a.022.022 0 0 0 0-.043m-6.989-3.937c-1.807.128-3.635.11-5.445.096-1.806-.015-3.646-.24-5.447-.086a.055.055 0 0 0-.015.107 20 20 0 0 0 5.355.384 52 52 0 0 0 5.552-.458c.027-.003.028-.045 0-.043m-6.831-4.227a10 10 0 0 1-2.047.254c-.324.012-.65.01-.975.006a10 10 0 0 0-1.047.077.06.06 0 0 0-.016.119 3.3 3.3 0 0 0 .988.238 6 6 0 0 0 1.075-.061 8.5 8.5 0 0 0 2.037-.58.027.027 0 0 0-.015-.053m-5.082-3.333a1.6 1.6 0 0 1-.396.077c-.125.005-.253-.007-.378-.008a4 4 0 0 0-.382.028 4 4 0 0 0-.196.025c-.062.009-.125.005-.185.02a.057.057 0 0 0-.014.104 1 1 0 0 0 .186.066 1 1 0 0 0 .202.048 1.2 1.2 0 0 0 .415.001 1.7 1.7 0 0 0 .368-.12c.062-.029.129-.047.192-.071.072-.028.139-.062.21-.09.048-.02.03-.096-.022-.08m-35.345-12.812q-.383-1.612-.686-3.242a73 73 0 0 1-.944-6.979 66 66 0 0 1 .196-13.704c.001-.013-.022-.016-.024-.003a68.3 68.3 0 0 0-.552 13.825 62 62 0 0 0 .825 6.754q.31 1.749.714 3.48a14.6 14.6 0 0 0 .987 3.193.104.104 0 0 0 .193-.053 25 25 0 0 0-.709-3.27m4.779 3.124a161 161 0 0 1-.49-1.57q-.483-1.57-.88-3.166a43 43 0 0 1-.689-3.21c-.19-1.127-.213-2.227-.316-3.357-.195-2.147-.44-4.282-.518-6.439a61 61 0 0 1 .11-6.567c.002-.025-.036-.025-.039 0a70 70 0 0 0-.328 6.802 43 43 0 0 0 .376 6.376c.165 1.073.446 2.135.632 3.208.188 1.081.369 2.163.584 3.239q.323 1.612.72 3.21.2.797.433 1.585a3.9 3.9 0 0 0 .544 1.372c.07.088.203.01.207-.086a4.3 4.3 0 0 0-.346-1.398m3.59-1.509c-.385-1.509-.563-3.037-.875-4.557a85 85 0 0 1-1.452-9.23c-.002-.022-.037-.023-.036 0a77 77 0 0 0 .996 9.12c.273 1.514.754 2.994 1.137 4.484.39 1.521.656 3.119 1.18 4.6a.213.213 0 0 0 .41-.113c-.403-1.45-.986-2.842-1.36-4.305m4.875 3.292c-.195-.436-.404-.861-.56-1.315-.267-.78-.482-1.582-.701-2.377a92 92 0 0 1-1.22-4.898c-.004-.015-.026-.009-.023.006a70 70 0 0 0 1.16 5.01c.228.825.496 1.641.71 2.47.108.417.167.842.267 1.26a1.8 1.8 0 0 0 .431.871c.046.055.13.007.133-.055a1.94 1.94 0 0 0-.197-.972m2.821-1.118-.747-1.853c-.006-.016-.032-.01-.026.007l.652 1.917a10 10 0 0 0 .72 1.831.033.033 0 0 0 .06-.025 10 10 0 0 0-.659-1.877m4.978 21.477a26.5 26.5 0 0 0-3.117 9.193c-.005.049.073.058.084.012.375-1.546.71-3.109 1.188-4.627a31 31 0 0 1 1.856-4.573c.003-.006-.007-.012-.01-.006m-.024-7.683a15 15 0 0 0-2.478 4.137c-.01.022.028.038.039.017a45 45 0 0 1 2.47-4.13c.011-.02-.017-.041-.031-.024m-3.867 7.694c-.213.605-.425 1.21-.647 1.81l-.322.869a4 4 0 0 0-.264.894c-.005.038.051.048.069.019a4 4 0 0 0 .331-.876q.136-.441.27-.883c.187-.611.384-1.22.581-1.827.004-.012-.014-.017-.018-.006m.08-8.388a41 41 0 0 0-3.974 9.246.022.022 0 0 0 .042.012 65 65 0 0 1 3.96-9.242.016.016 0 0 0-.028-.016m-2.527-2.042c-1.633 1.431-2.538 3.61-3.548 5.492a33.3 33.3 0 0 0-2.694 5.96c-.008.026.035.045.047.019.892-1.996 1.654-4.02 2.718-5.938 1.055-1.903 2.605-3.53 3.513-5.505a.024.024 0 0 0-.036-.028m-3.193-1.161a30.2 30.2 0 0 0-3.73 5.79 27 27 0 0 0-2.402 6.474.027.027 0 0 0 .052.014c.43-1.065.756-2.17 1.18-3.239a36 36 0 0 1 1.48-3.191 52 52 0 0 1 3.46-5.818c.016-.023-.022-.053-.04-.03m-4.08.004a20 20 0 0 0-1.797 2.394 29 29 0 0 0-1.45 2.71c-.011.022.02.041.033.02.513-.87 1.073-1.708 1.628-2.552.552-.841 1.073-1.701 1.62-2.546.012-.02-.019-.045-.035-.026m-4.556 7.852-.734 1.538q-.182.376-.37.75a3.7 3.7 0 0 0-.337.748.041.041 0 0 0 .075.032 4 4 0 0 0 .364-.754q.166-.386.34-.769l.695-1.526c.01-.022-.022-.042-.033-.02m-.01-8.338c-2.062 3.177-4.207 6.333-6.045 9.648a.033.033 0 0 0 .057.033c2.168-3.108 4.061-6.42 6.009-9.67.008-.012-.012-.024-.02-.011m-19.458 6.274a75 75 0 0 1-1.773 4.464c-.006.013.014.025.02.012a52 52 0 0 0 1.787-4.467c.008-.022-.026-.03-.034-.01m55.884 29.621c-.003-.01-.018-.005-.016.005a37 37 0 0 0 1.356 5.616.02.02 0 0 0 .038-.01c-.49-1.867-1.013-3.713-1.379-5.61m2.429-9.883c-.007-.035-.06-.02-.053.015a61.4 61.4 0 0 0 3.65 12.625c.008.02.042.012.034-.01a88 88 0 0 1-3.631-12.63m4.387 2.214c-.003-.007-.013-.001-.01.006a88 88 0 0 1 2.693 7.16c.005.014.027.008.023-.007a72 72 0 0 0-2.706-7.16m5.125 1.013c-.006-.012-.022-.002-.017.01q.693 1.566 1.429 3.111c.006.014.026.002.02-.012q-.691-1.566-1.432-3.11m-64.568-12.233c-.009-.044-.076-.025-.068.02.315 1.707.647 3.409 1.009 5.107.004.022.037.013.034-.01q-.45-2.566-.975-5.116m2.618-.695a.023.023 0 0 0-.045.013c.49 1.991.984 3.98 1.516 5.961a.016.016 0 0 0 .03-.008c-.473-1.996-.985-3.98-1.5-5.966m3.159.017c-.002-.013-.02-.008-.019.005a3.1 3.1 0 0 0 .552 1.35c.006.008.02 0 .014-.008a3.1 3.1 0 0 1-.547-1.347m-27.317-6.405a88 88 0 0 1-1.002-2.704 67 67 0 0 1-1.698-5.634 63 63 0 0 1-1.85-11.816c-.001-.028-.044-.028-.043 0a63 63 0 0 0 1.55 11.79 59 59 0 0 0 1.655 5.766q.484 1.421 1.057 2.808a14 14 0 0 0 1.288 2.62.041.041 0 0 0 .075-.031 24 24 0 0 0-1.032-2.799m1.472-3.602q-.561-1.288-1.047-2.607a50 50 0 0 1-1.526-4.884 52.4 52.4 0 0 1-1.582-10.421c-.002-.035-.055-.036-.055 0a47.7 47.7 0 0 0 1.384 10.373 49 49 0 0 0 1.53 5q.437 1.192.933 2.36l.54 1.255a2.55 2.55 0 0 0 .568 1 .065.065 0 0 0 .11-.046 6.6 6.6 0 0 0-.855-2.03m2.285-2.866c-.304-.716-.656-1.41-.928-2.138a43 43 0 0 1-1.37-4.545 88 88 0 0 1-1.62-9.222c-.003-.02-.036-.015-.035.005a44.4 44.4 0 0 0 1.519 9.255c.391 1.535.87 3.04 1.342 4.552.23.735.407 1.485.663 2.211a4.7 4.7 0 0 0 .927 1.947.11.11 0 0 0 .186-.077 5.1 5.1 0 0 0-.685-1.988m2.584-2.271-.358-.97q-.346-.935-.678-1.874c-.452-1.275-.886-2.568-1.403-3.818a.016.016 0 0 0-.03.008 39 39 0 0 0 1.177 3.957q.333.977.68 1.95a6.1 6.1 0 0 0 .698 1.688c.052.067.171.01.167-.069a3 3 0 0 0-.253-.872m1.722-5.977a4 4 0 0 0-.255-.541 4 4 0 0 0-.354-.494c-.01-.014-.033.004-.024.019.099.165.18.345.265.518q.138.28.25.571a7 7 0 0 1 .324 1.135.024.024 0 0 0 .046-.006 4 4 0 0 0-.252-1.202m143.357 41.418c-1.054-.061-2.126.017-3.184.001q-1.652-.025-3.303-.128c-2.156-.135-4.302-.362-6.447-.62-.01-.001-.013.017-.002.02a53 53 0 0 0 6.327.829q1.588.116 3.18.158a26 26 0 0 0 3.43-.014.123.123 0 0 0 0-.246m1.335-7.122c-.254-.278-.517-.248-.877-.214a13 13 0 0 1-1.624.006 68 68 0 0 1-2.779-.153 116 116 0 0 1-5.756-.584c-.008-.001-.01.014-.002.015 1.881.261 3.766.493 5.651.725.962.118 1.925.233 2.886.359a17 17 0 0 1 1.624.267.87.87 0 0 0 .877-.125.21.21 0 0 0 0-.296m29.982-2.008c-1.019-.075-2.054-.03-3.076-.066-1.02-.036-2.044-.046-3.061-.152-.018-.001-.022.028-.004.031a21 21 0 0 0 3.065.43 12.3 12.3 0 0 0 3.086-.167c.045-.01.031-.074-.01-.077m3.57-.024a1.2 1.2 0 0 0-.385-.007q-.187.008-.375.02c-.256.019-.51.044-.766.048a.03.03 0 0 0 0 .059c.257.004.51.029.766.047.125.01.25.014.375.021a1.2 1.2 0 0 0 .386-.008.094.094 0 0 0 0-.18m-9.183 6.854c-.015-.002-.015.022 0 .023l1.703.16c.012 0 .012-.019 0-.02zm1.522 14.719c-.03-.004-.03.043 0 .047.907.105 1.815.222 2.725.312.013.001.016-.021.003-.023-.908-.126-1.82-.226-2.729-.336m-30.973 7.819c-1.05-.133-2.14-.093-3.198-.138q-1.598-.067-3.195-.166-3.194-.197-6.378-.513c-.005-.001-.005.007 0 .007q3.183.344 6.378.57 1.596.11 3.195.19a27 27 0 0 0 3.198.097.023.023 0 0 0 0-.047m19.406-.387a32 32 0 0 1-5.09-.556.027.027 0 0 0-.014.052 15.8 15.8 0 0 0 5.104.577.037.037 0 0 0 0-.074m-60.701 46.655c-.002-.022-.037-.022-.035 0a58.4 58.4 0 0 1-.188 11.927c-.003.035.055.043.062.008a40.5 40.5 0 0 0 .161-11.935m-1.973-.511c-.002-.032-.052-.033-.05 0a138 138 0 0 1-.398 13.971c-.003.043.07.054.076.01a60.8 60.8 0 0 0 .372-13.981m-2.088 1.877a.025.025 0 0 0-.051 0c.093 5.334-.037 10.668.093 16.001a.037.037 0 0 0 .074 0c.26-5.333.06-10.667-.117-16.001m-1.969 4.427a.01.01 0 0 0-.019 0c.043 4.084.02 8.175.222 12.254a.025.025 0 0 0 .051 0c.044-4.084-.137-8.172-.253-12.254m-1.886 9.021.011 2.554a.01.01 0 0 0 .02 0l.012-2.554a.022.022 0 0 0-.043 0M82.746 154.317a50.2 50.2 0 0 0-18.423-5.906c-.014-.002-.02.02-.006.022a85.8 85.8 0 0 1 18.37 5.986c.068.029.126-.063.06-.102m-3.459 2.653a44.6 44.6 0 0 0-13.256-5.007c-.017-.004-.025.022-.007.026a55 55 0 0 1 13.236 5.028.027.027 0 0 0 .027-.048m-.971 3.508a21.3 21.3 0 0 0-7.541-3.49.03.03 0 0 0-.016.056 26 26 0 0 1 3.934 1.505c1.238.59 2.4 1.292 3.585 1.978.03.017.066-.026.038-.049m-3.612 3.605c-.033-.012-.047.04-.014.053a24.5 24.5 0 0 1 3.234 1.516.016.016 0 0 0 .016-.027 20 20 0 0 0-3.236-1.542M483.618 20.766 450.256 0v16.266H201.73V0l-33.362 20.766 33.362 20.766V25.266h248.526v16.266z"/></svg>