<svg xmlns="http://www.w3.org/2000/svg" data-name="Layer 7" viewBox="0 0 179.414 232.475"><path fill="currentColor" d="M179.336 22.169c-8.593-1.441-17.356-1.851-25.77-4.278-4-1.155-7.886-3.193-12.098-3.446a38 38 0 0 0-6.649.524 24.6 24.6 0 0 1-6.804-.123l-1.614-.256A145.8 145.8 0 0 0 98.139 4.106a96 96 0 0 0-15.671-2.741 108 108 0 0 0-16.291.233c-3.14.204-6.284.33-9.43.398-2.402.052-4.804.05-7.2.17A76 76 0 0 0 45.323.943a19.5 19.5 0 0 0-5.52-.935 11.4 11.4 0 0 0-4.793 1.559 62 62 0 0 0-8.553 5.25c-2.482 1.891-5.124 4.27-6.189 7.293-.683 1.939-.102 3.926-.406 5.916a17.5 17.5 0 0 1-.787 2.975c-.127.371-.276.738-.406 1.107a62 62 0 0 0-1.739 2.034q-2.666 3.282-5.264 6.618a11.7 11.7 0 0 0-1.939 3.128 8.4 8.4 0 0 0-.404 3.427q.027.366.07.733c-.198.42-.391.842-.55 1.283a45 45 0 0 1-.96 2.447c-.65 1.512-1.456 2.95-2.096 4.464a8.4 8.4 0 0 0-.571 4.318c.077.73.227 1.491.343 2.255l-.002.267c-.01.587-.072 1.166-.097 1.752a7 7 0 0 0-.015.808 1.6 1.6 0 0 0 .067.41c.005.017.02.028.026.045-.298.329-.606.65-.897.985a24.4 24.4 0 0 0-3.87 5.48 6.99 6.99 0 0 0 .115 6.6c.516.936 1.109 1.826 1.689 2.723q.363 1.148.643 2.32c.46 1.918.865 3.85 1.3 5.776q.672 2.988 1.384 5.966c.225.948.448 1.896.678 2.843a4.7 4.7 0 0 0 .78 2.066c-.032.197-.07.393-.1.59-.416 2.71-.756 5.432-1.068 8.156-.55 4.797-.87 10.11 1.746 14.408a10.5 10.5 0 0 0 2.02 2.478 28 28 0 0 0 3.175 5.341c1.48 1.993 3.167 4.225 5.501 5.257 2.355 1.041 5.157 1.138 7.696 1.291a30.7 30.7 0 0 0 7.349-.364 18 18 0 0 0 3.837-1.14 5.75 5.75 0 0 0 2.609-2.118c.29.221.576.441.85.637 3.316 2.373 7.308 2.703 11.19 3.462a18.9 18.9 0 0 1 5.63 1.907 35.7 35.7 0 0 1 5.007 3.578 32.6 32.6 0 0 0 4.903 3.604 7 7 0 0 0 .655.305 2.4 2.4 0 0 0-1.006 1.496 23 23 0 0 0-.295 2.514 41 41 0 0 1-.503 3.311 22.2 22.2 0 0 1-1.819 5.57c-.93 1.87-2.102 3.612-3.138 5.424-2.131 3.725-4.045 7.577-6.026 11.382-1.092 2.098-2.19 4.192-3.265 6.3a28 28 0 0 0-2.447 6.147 14 14 0 0 0-1.704 1.064 22.8 22.8 0 0 0-4.069 4.064 44.5 44.5 0 0 0-5.926 10.401c-3.134 7.54-4.435 16.152-2.102 24.103 1.071 3.652 2.955 7.588 6.486 9.429a8.54 8.54 0 0 0 5.353.913 7.03 7.03 0 0 0 4.522-3.034 15.3 15.3 0 0 0 2.147-5.584 26.5 26.5 0 0 1 1.993-6.459c1.893-3.717 4.757-7.004 7.442-10.17a39.8 39.8 0 0 1 9.086-8.321c.85-.528 1.776-.945 2.595-1.52a5.5 5.5 0 0 0 1.85-2.232 58 58 0 0 0 2.347-6.1 31.7 31.7 0 0 0 3.74-3.999c1.373-1.634 2.76-3.256 4.122-4.898 2.482-2.992 4.919-6.04 7.626-8.834a45 45 0 0 1 4.279-3.929c1.453-1.157 2.994-2.199 4.477-3.316a24.9 24.9 0 0 0 6.932-7.614 68.5 68.5 0 0 0 4.065-9.403 51 51 0 0 1 4.58-9.39c3.813-5.943 8.556-11.167 12.953-16.668a108 108 0 0 0 3.564-4.684q.875-1.226 1.696-2.488a6.04 6.04 0 0 1 1.888-2.105 23 23 0 0 1 2.919-1.276c1.085-.447 2.172-.893 3.237-1.385 1.65-.762 3.302-1.529 4.906-2.385a4.1 4.1 0 0 0 2.116-.524c1.005.105 2.036.082 3.04.133q1.794.092 3.577.322c2.347.302 4.69.723 7.01 1.194 2.582.525 5.172 1.205 7.792 1.511a.139.139 0 0 0 .07-.257 45 45 0 0 0-6.47-2.289 48.5 48.5 0 0 0-13.744-2.195c-.541-.014-1.09-.07-1.63-.057a15 15 0 0 1-1.863.036 13.4 13.4 0 0 1-3.17-.793 51.5 51.5 0 0 1-6.833-3.199.036.036 0 0 0-.037.062 41 41 0 0 0 5.542 3.462 23 23 0 0 0 2.943 1.15l.318.1q-.657.06-1.315.094a36 36 0 0 1-5.115-.128 35.2 35.2 0 0 1-10.045-2.434c-.062-.025-.105.078-.045.108a33.7 33.7 0 0 0 15.08 3.767h.181c-2.693.858-5.345 1.875-7.942 2.952a7.7 7.7 0 0 0-2.154 1.23 9.4 9.4 0 0 0-1.632 2.102 75 75 0 0 1-3.044 4.371c-4.26 5.698-9.188 10.879-13.23 16.744a53 53 0 0 0-5.087 9.112c-1.362 3.172-2.427 6.465-3.845 9.613a24.05 24.05 0 0 1-5.99 8.497c-2.803 2.443-6.019 4.35-8.76 6.874a92 92 0 0 0-8.663 9.742c-1.529 1.873-3.038 3.76-4.554 5.644-.999 1.24-2.053 2.476-2.957 3.8q.364-1.18.699-2.368a.171.171 0 0 0-.312-.132q-1.696 3.016-3.156 6.146c-.874 1.87-1.335 4.172-3.21 5.3a45 45 0 0 0-4.85 3.145 39.5 39.5 0 0 0-4.138 3.81 95 95 0 0 0-7.582 9.168 31 31 0 0 0-2.412 3.737 2.5 2.5 0 0 1-.389-.302c-.149-.149-.28-.317-.428-.469a9.8 9.8 0 0 0-2.018-1.582 12.2 12.2 0 0 0-2.358-1.015 7 7 0 0 0-1.447-.52 2.24 2.24 0 0 0-1.193.317 5.3 5.3 0 0 0-1.594 1.898 19 19 0 0 0-1.535 2.735 22 22 0 0 0-1.039 2.756 15.5 15.5 0 0 0-.754 3.024.415.415 0 0 0 .306.4 15 15 0 0 1 5.319 1.603 8.9 8.9 0 0 1 2.026 1.586 17 17 0 0 1 1.08 1.39 5.46 5.46 0 0 1-5.202 3.002c-3.858-.2-6.436-3.513-7.81-6.81-3.032-7.272-2.364-15.575.123-22.894a46 46 0 0 1 5.755-11.465 33 33 0 0 1 4-4.73 17.6 17.6 0 0 1 2.334-2.075 38 38 0 0 1 2.104-1.297 3 3 0 0 0 .673-.177.9.9 0 0 0 .223-.172 1 1 0 0 1 .543-.202 11.6 11.6 0 0 1 1.895-.069 10 10 0 0 0 1.78-.022.026.026 0 0 0 0-.05 11.3 11.3 0 0 0-1.907-.083c-.652-.005-1.304.045-1.955.04-.337-.004-.567-.209-.907-.166a5 5 0 0 0-.957.252 4.4 4.4 0 0 0-1.143.527c1.894-2.895 3.337-6.091 4.93-9.154 1.907-3.669 3.777-7.36 5.744-10.998 1.84-3.402 4.212-6.6 5.446-10.292a30 30 0 0 0 1.22-5.595c.117-.877.204-1.757.28-2.638a3.4 3.4 0 0 1 .212-1.178 1.56 1.56 0 0 1 1.086-.734 22.4 22.4 0 0 1 6.395-.9 25 25 0 0 1 3.482.245 26 26 0 0 1 3.314.513.033.033 0 0 0 .018-.063 30 30 0 0 0-2.904-1.04 20 20 0 0 0-2.885-.454c-.184-.018-.37-.024-.555-.038a42 42 0 0 1 12.816.176c.081.013.118-.103.035-.126a32.5 32.5 0 0 0-6.52-1.178 42.5 42.5 0 0 0-6.945.193c-1.096.11-2.18.285-3.268.453a8.7 8.7 0 0 1-3.3.17 8.1 8.1 0 0 1-2.73-1.512 57 57 0 0 1-2.414-1.87 52 52 0 0 0-4.809-3.616 18.6 18.6 0 0 0-5.558-2.346c-3.787-.923-7.969-.94-11.388-3.01a14.8 14.8 0 0 0-2.853-1.76 32 32 0 0 0-3.482-.76c-2.717-.559-5.454-1.006-8.173-1.558a.02.02 0 0 0-.01.038c2.303.662 4.574 1.438 6.88 2.088.666.188 1.337.375 2.003.577-.066.006-.131.018-.197.023a34 34 0 0 1-3.343.103c-1.108-.02-2.225.002-3.329-.103a25 25 0 0 1-3.496-.627.016.016 0 0 0-.008.032 28.6 28.6 0 0 0 6.713 1.423 25 25 0 0 0 3.463-.02q.834-.06 1.663-.169.114-.013.228-.022a8 8 0 0 1 .855.533 18 18 0 0 0-2.32.82 16.6 16.6 0 0 1-3.174 1.06 27 27 0 0 1-6.752.535 31.6 31.6 0 0 1-6.972-.679c-2.467-.638-4.145-2.451-5.713-4.351a47 47 0 0 1-2.998-4.148 14 14 0 0 0 1.415.57c.12.042.184-.134.084-.197a12.4 12.4 0 0 1-3.892-4.49 16 16 0 0 1-1.803-6.042c-.496-5.07.619-10.22 1.044-15.262.125-1.473.19-2.948.294-4.422q.077-1.037.145-2.073c.05-.79-.034-1.56-.004-2.35a.07.07 0 0 0-.136-.018c-.126.636-.36 1.232-.477 1.866-.135.725-.247 1.455-.367 2.182q-.089.53-.185 1.057-.357-1.466-.724-2.93-.754-3.04-1.54-6.069c-.437-1.672-.862-3.35-1.329-5.015q.736 1.126 1.492 2.241a.108.108 0 0 0 .187-.109q-1.532-3.451-3.194-6.843a10.9 10.9 0 0 1-1.255-3.261 5.97 5.97 0 0 1 .697-3.367 28 28 0 0 1 3.716-5.278c1.316-1.598 2.678-3.156 3.94-4.798a48 48 0 0 0 2.045-2.847 21 21 0 0 0 1.575-3.274c.022-.05-.046-.092-.073-.043a29 29 0 0 1-1.943 2.668 32 32 0 0 1-2.165 2.634c-.862.951-1.744 1.884-2.62 2.821-.003-.037 0-.075-.002-.112-.012-.255-.036-.508-.06-.762a7.5 7.5 0 0 0 .102-2.793 9.44 9.44 0 0 1 .346-4.668c.582-1.543 1.29-3.024 1.82-4.59a44 44 0 0 0 .764-2.493c.008-.028.009-.055.016-.083a21 21 0 0 1 .387 5.373c-.01.096.147.116.167.023.511-2.344.221-4.68.337-7.048a11 11 0 0 1 .667-3.518 13 13 0 0 1 2.068-3.132q2.498-3.187 4.95-6.41c.835-1.103 1.606-2.249 2.381-3.393.777-1.147 1.484-2.319 2.23-3.482a.043.043 0 0 0-.067-.051c-.886.932-1.778 1.847-2.653 2.789.126-.364.247-.728.353-1.098a28 28 0 0 0 .753-5.052c.325-3.284 2.788-5.8 5.221-7.81a51 51 0 0 1 7.846-5.05 17.4 17.4 0 0 1 4.533-2.047c1.824-.408 3.65.144 5.427.534 3.953.867 7.918 1.697 11.857 2.619a.115.115 0 0 0 .061-.222q-2.112-.812-4.241-1.543 1.68.085 3.372.121c2.818.064 5.642.034 8.46-.028 5.483-.121 10.97-.588 16.453-.29 10.592.576 20.913 3.427 30.865 6.96 4.223 1.5 8.443 3.048 12.699 4.468a309 309 0 0 1-3.322-.546c-2.559-.44-5.136-.758-7.686-1.244-.053-.01-.076.07-.022.082 4.478 1.034 8.893 2.37 13.354 3.476a23.5 23.5 0 0 0 6.664.72c2.23-.104 4.425-.559 6.653-.695a17.5 17.5 0 0 1 6.45.886c2.06.653 4.062 1.477 6.125 2.121a77.4 77.4 0 0 0 12.79 2.72 92 92 0 0 0 14.602.703c.117-.003.154-.192.029-.212M50.98 226.075a9.7 9.7 0 0 0-2.048-1.697 14.3 14.3 0 0 0-5.376-1.758 22 22 0 0 1 .286-2.446 14 14 0 0 1 .826-2.495 16 16 0 0 1 1.213-2.333 14 14 0 0 1 .771-1.13 3.2 3.2 0 0 1 .93-.697c1.572-.992 3.427-.409 4.905.465a9.6 9.6 0 0 1 1.968 1.544 3.6 3.6 0 0 1 .7 1.141l.013.02c-.117.235-.241.467-.349.706a31.3 31.3 0 0 0-1.754 6.074 17.4 17.4 0 0 1-1.218 3.679 9 9 0 0 0-.867-1.073"/><path fill="currentColor" d="M13.294 116.957a16 16 0 0 1-1.196-1.233 5 5 0 0 1-.54-.698c-.143-.247-.256-.51-.409-.751-.314-.496-.739-.887-1.076-1.36a.053.053 0 0 0-.09.052 8.2 8.2 0 0 0 .79 1.528 6 6 0 0 0 .596.62 8 8 0 0 1 .555.655c.364.444.732.886 1.12 1.308a4.5 4.5 0 0 0 1.27 1.13c.073.034.172-.039.12-.12a6.6 6.6 0 0 0-1.14-1.131m-1.346-4.326c-.03-.032-.09.012-.062.048a20 20 0 0 0 1.875 2.228c.018.018.052-.006.036-.028a20 20 0 0 0-1.85-2.248m3.936 4.346a3.2 3.2 0 0 0-.532-.564 6 6 0 0 0-.682-.504c-.015-.01-.026.013-.013.023a3.7 3.7 0 0 1 .58.533c.168.192.316.4.465.606.044.06.153.264.256.201.104-.064-.031-.236-.074-.295m1.255-1.053q-.235-.217-.466-.438a26 26 0 0 1-.945-.964 42 42 0 0 1-1.762-1.996c-.019-.023-.06.008-.041.032a29 29 0 0 0 1.695 2.072c.301.334.612.66.922.986q.233.245.471.485a1.6 1.6 0 0 0 .466.4c.078.032.13-.069.1-.13a1.8 1.8 0 0 0-.44-.447m.679-1.826q-.197-.222-.386-.45c-.125-.15-.271-.286-.406-.429-.132-.14-.26-.28-.397-.415q-.217-.211-.425-.43c-.022-.024-.065.007-.046.035q.17.247.35.488a5 5 0 0 0 .388.452 4 4 0 0 0 .42.416q.234.189.475.369c.021.016.044-.018.027-.036m1.246 1.172a.16.16 0 0 0-.04-.094c-.034-.038-.074-.072-.11-.108a3 3 0 0 0-.232-.203l-.487-.383a.013.013 0 0 0-.018.018l.385.485a3 3 0 0 0 .2.223q.052.057.107.11a.14.14 0 0 0 .093.046.3.3 0 0 1 .074.02.04.04 0 0 0 .048-.048.3.3 0 0 1-.02-.065m1.364-1.503a13 13 0 0 0-.992-.91 25 25 0 0 1-.957-.95c-.015-.015-.044.006-.03.024q.197.274.411.535c.145.175.31.336.472.495a4.3 4.3 0 0 0 1.056.858.033.033 0 0 0 .04-.052m.795-2.443c-.158-.15-.326-.288-.493-.426-.064-.053-.153.03-.093.092.15.157.298.314.46.46a2.6 2.6 0 0 0 .505.4c.033.019.076-.018.054-.053a2.6 2.6 0 0 0-.433-.473M6.777 75.043c-.177-.27-.324-.56-.485-.84-.314-.543-.637-1.08-.949-1.624-.301-.528-.57-1.072-.897-1.586a3.4 3.4 0 0 0-1.209-1.324.103.103 0 0 0-.149.114 3.74 3.74 0 0 0 .826 1.521c.363.493.761.96 1.113 1.46.351.498.668 1.017.976 1.542.154.262.316.522.451.794a5 5 0 0 0 .388.83c.128.173.468.08.38-.161a3.6 3.6 0 0 0-.445-.726m1.314-1.876a22 22 0 0 1-.764-1.308c-.236-.45-.46-.901-.683-1.358a3.2 3.2 0 0 0-.836-1.201c-.07-.053-.15.034-.135.103a3.6 3.6 0 0 0 .687 1.265c.306.427.591.86.858 1.313a12 12 0 0 1 .67 1.363 6.3 6.3 0 0 0 .64 1.377c.122.158.357-.017.315-.184a5.4 5.4 0 0 0-.752-1.37m2.403-.411-.415-.666-.802-1.291a19.6 19.6 0 0 0-1.673-2.492c-.013-.015-.04 0-.033.019a19.6 19.6 0 0 0 1.47 2.61l.791 1.298.409.67c.101.166.173.343.366.407a.066.066 0 0 0 .08-.046.75.75 0 0 0-.193-.509m1.143-2.195c-.215-.317-.419-.642-.632-.96a14.4 14.4 0 0 0-1.313-1.784c-.055-.06-.16.02-.114.087.426.611.909 1.179 1.332 1.791.206.297.408.595.587.909a7.5 7.5 0 0 0 .553.956c.054.068.18-.006.148-.086a5 5 0 0 0-.561-.913m1.585-2.275a3.6 3.6 0 0 0-.519-.627c-.05-.052-.124.025-.078.079.17.204.309.425.46.642.149.214.28.441.414.665a.036.036 0 0 0 .066-.028 3.3 3.3 0 0 0-.343-.73m-1.243-26.963a32 32 0 0 0-.258-3.663c-.005-.033-.058-.025-.058.008.03 1.242.009 2.485.033 3.727.024 1.24.08 2.478.132 3.717a.112.112 0 0 0 .223 0c-.016-1.264-.028-2.526-.072-3.79m1.931 2.159a6 6 0 0 1-.062-.786q-.018-.783-.033-1.566a50 50 0 0 0-.168-3.073.033.033 0 0 0-.066 0 49 49 0 0 0 .063 3.131l.082 1.508a6 6 0 0 1-.003.811c-.015.195-.052.344.076.501a.053.053 0 0 0 .082-.01c.117-.169.059-.321.029-.516m1.7-5.329c-.005-.032-.06-.025-.057.008a14.5 14.5 0 0 1 .06 2.05c-.029.684-.098 1.364-.093 2.049a.053.053 0 0 0 .103.014 6.3 6.3 0 0 0 .213-2.063 15 15 0 0 0-.225-2.058m2.189-.011c-.007-.04-.071-.03-.071.01.004.397-.002.795-.004 1.192s.024.797.046 1.193c.002.035.058.048.064.01a6 6 0 0 0 .094-1.203 10 10 0 0 0-.13-1.202m52.351 98.882c-.83-.57-1.721-1.043-2.57-1.583a30 30 0 0 1-2.524-1.798c-.026-.02-.063.015-.037.038a29 29 0 0 0 2.433 1.886 12.8 12.8 0 0 0 2.673 1.517c.037.014.054-.04.025-.06m.455-1.773c-1.486-1.012-3.021-1.948-4.537-2.914-.018-.012-.033.016-.016.028a40 40 0 0 0 4.526 2.931.026.026 0 0 0 .027-.045m3.067 1.274c-.143-.061-.285-.125-.43-.18q-.46-.173-.92-.35c-.034-.013-.058.044-.024.06q.44.219.88.443c.141.072.287.135.432.2a.8.8 0 0 0 .434.13.046.046 0 0 0 .027-.068c-.077-.13-.268-.18-.399-.235m2.865-.649a9.5 9.5 0 0 0-1.807-.86q-.882-.402-1.753-.83-1.771-.867-3.506-1.809a.016.016 0 0 0-.017.028 59 59 0 0 0 3.505 1.945q.893.454 1.8.882a7.2 7.2 0 0 0 1.742.728.046.046 0 0 0 .036-.084m2.683-.414a40 40 0 0 0-4.43-2.098c-.022-.01-.042.022-.02.034a40 40 0 0 0 4.426 2.118c.032.012.051-.037.023-.054m4.075.243a2.8 2.8 0 0 0-.524-.26 9 9 0 0 0-.538-.2c-.37-.127-.758-.216-1.138-.31a.036.036 0 0 0-.019.07c.364.134.721.289 1.085.423q.267.099.536.192a3.4 3.4 0 0 0 .565.163.043.043 0 0 0 .033-.078M69.767 192.04a5.7 5.7 0 0 0-2.496-.822c-.917-.203-1.811-.55-2.708-.83-.02-.007-.028.024-.008.031a19.4 19.4 0 0 1 2.554.994 12 12 0 0 0 2.224 1.233 6 6 0 0 1 1.26.426 12 12 0 0 1 1.06.652c.761.516 1.428 1.143 2.136 1.725.027.022.074-.006.052-.04-.978-1.512-2.691-2.298-4.074-3.37m2.096 4.022a9.8 9.8 0 0 1-3.674-2.327c-.432-.427-.81-1.217-1.479-1.281a3.5 3.5 0 0 1-1.154-.442c-.405-.195-.817-.373-1.23-.552-.056-.024-.107.057-.05.085.405.194.809.387 1.204.597a6 6 0 0 1 .552.316 1.3 1.3 0 0 1 .412.46 1.7 1.7 0 0 0 .832.596 5.3 5.3 0 0 1 1.029.601 8.5 8.5 0 0 0 3.534 2.036.046.046 0 0 0 .024-.089m.112-5.108a10.6 10.6 0 0 0-3.47-1.67c-.04-.013-.056.049-.017.063a28 28 0 0 1 3.447 1.659c.031.016.07-.028.04-.052m-22.05 21.098a.007.007 0 0 0 0 .013h.191a.007.007 0 0 0 0-.013Zm3.79 1.135a8.4 8.4 0 0 0-1.28-.771 8.9 8.9 0 0 0-2.8-.84c-.029-.003-.034.045-.006.052a8.2 8.2 0 0 1 2.63 1.167 8.3 8.3 0 0 1 1.08.88c.292.28.662.76 1.099.768a.13.13 0 0 0 .128-.127c.044-.474-.515-.883-.85-1.13m64.925-88.467c-2.051-.416-4.128-.604-6.208-.822-.036-.004-.045.059-.009.065 2.064.334 4.118.698 6.207.834a.04.04 0 0 0 .01-.077m6.018-1.846a12 12 0 0 0-1.525-.097c-.575-.048-1.143-.158-1.712-.255-1.07-.18-2.145-.318-3.217-.476q-3.229-.478-6.446-1.04c-.02-.003-.03.027-.008.032a71 71 0 0 0 6.494 1.33c1.004.154 2.008.3 3.021.377.54.04 1.08.058 1.619.114a14 14 0 0 0 1.746.22c.114-.002.148-.18.028-.205m2.282-2.509c-1.977-.312-3.999-.377-5.984-.667a90 90 0 0 1-5.936-1.071c-.053-.012-.076.069-.023.082a64 64 0 0 0 6.019 1.204 35 35 0 0 0 5.905.594c.078-.002.103-.129.02-.142m1.227-3.01a11 11 0 0 0-2.07-.042c-.74-.037-1.472-.139-2.205-.236-1.507-.2-3.011-.42-4.513-.648-.017-.003-.024.022-.007.025 1.524.281 3.052.546 4.58.804.713.12 1.427.246 2.144.334a3.8 3.8 0 0 0 2.092-.075.09.09 0 0 0-.021-.162m1.146-2.379a4 4 0 0 0-1.182-.096q-.633-.023-1.265-.048-1.263-.053-2.522-.173c-.014-.001-.018.024-.003.026q1.234.186 2.476.31.631.065 1.265.098a3.7 3.7 0 0 0 1.23-.022.05.05 0 0 0 0-.095m1.52-2.426c-.719-.136-1.46-.109-2.185-.214-.073-.01-.108.096-.032.114a5.2 5.2 0 0 0 2.217.164.033.033 0 0 0 0-.064m2.288-1.245a2 2 0 0 0-.238-.051 2 2 0 0 0-.238-.002c-.163.01-.325.032-.486.048a.04.04 0 0 0 0 .079c.161.016.323.038.486.048a2 2 0 0 0 .238-.002 2 2 0 0 0 .238-.05.036.036 0 0 0 0-.07m15.261-11.043c-.755-.73-1.527-1.431-2.237-2.208a19 19 0 0 1-1.956-2.546.026.026 0 0 0-.046.026 19 19 0 0 0 1.857 2.607 12 12 0 0 0 2.335 2.183c.037.025.079-.031.047-.062m2.277-.517q-.964-1.082-1.874-2.211c-1.242-1.54-2.412-3.14-3.575-4.738-.025-.034-.079-.005-.057.033a40 40 0 0 0 3.31 4.794q.9 1.136 1.856 2.228a9.5 9.5 0 0 0 2.055 2.06.053.053 0 0 0 .072-.071 12.4 12.4 0 0 0-1.788-2.095m.291-4.217c-.66-.927-1.331-1.845-2.077-2.706-.012-.014-.036.004-.026.02.617.97 1.29 1.898 1.95 2.839.662.944 1.322 1.886 2.014 2.809.028.036.087.005.063-.036a41 41 0 0 0-1.925-2.926m4.875 6.326q-.228-.25-.467-.488-.477-.466-.985-.9a.02.02 0 0 0-.028.028q.45.494.894.991c.147.163.298.322.445.484a3 3 0 0 0 .477.438c.028.02.06-.018.044-.045a2.5 2.5 0 0 0-.38-.508m2.716-.972a59 59 0 0 1-1.899-2.622 34 34 0 0 0-3.65-4.747c-.016-.015-.045.006-.031.024a478 478 0 0 1 3.523 5.01 20.8 20.8 0 0 0 3.79 4.62c.028.023.083-.008.056-.044-.566-.771-1.202-1.485-1.79-2.24m2.433-1.302a201 201 0 0 0-2.347-3.151c-.02-.026-.063-.004-.046.026a38 38 0 0 0 2.15 3.336 23.6 23.6 0 0 0 2.434 3.027.05.05 0 0 0 .077-.06c-.682-1.108-1.499-2.13-2.268-3.178m5.398 2.099c-.22-.36-.456-.712-.697-1.06a13.4 13.4 0 0 0-1.545-1.996c-.04-.039-.092.01-.073.056a13.5 13.5 0 0 0 1.3 2.173c.23.34.464.678.711 1.004a8.4 8.4 0 0 0 .796.975c.045.044.143 0 .115-.067a8.4 8.4 0 0 0-.607-1.085m-33.079-78.531a.033.033 0 0 0-.056.033 11.3 11.3 0 0 0 .992 1.568 11 11 0 0 0 1.278 1.39.03.03 0 0 0 .042-.041 19 19 0 0 1-2.256-2.95m7.253 5.736q-.894-.932-1.76-1.889-1.732-1.912-3.382-3.899c-.016-.02-.043.008-.028.028a73 73 0 0 0 3.318 3.962 36 36 0 0 0 3.6 3.702.026.026 0 0 0 .037-.037c-.558-.655-1.189-1.246-1.785-1.867m5.749 1.819a7 7 0 0 0-.926-.749q-.546-.417-1.072-.86-.96-.81-1.85-1.698a42 42 0 0 1-3.336-3.818c-.014-.017-.043.005-.031.024a23 23 0 0 0 3.19 3.971q.906.913 1.89 1.745.49.415 1 .809a5 5 0 0 0 1.04.7.08.08 0 0 0 .095-.124m-.581-3.335c-.201-.199-.395-.397-.61-.582-.22-.19-.443-.377-.662-.569q-.32-.28-.625-.576c-.209-.202-.435-.387-.647-.586-.023-.022-.067.008-.046.036.167.222.333.453.52.658.201.22.417.429.633.634.212.2.428.393.659.572a5 5 0 0 0 .739.464.033.033 0 0 0 .04-.051m2.701 1.919a2 2 0 0 0-.191-.14l-.387-.268c-.125-.086-.263-.153-.395-.226a8 8 0 0 1-.402-.242c-.04-.026-.09.035-.052.067q.175.143.342.297c.115.106.226.22.35.316l.364.278c.113.086.262.24.414.211a.11.11 0 0 0 .081-.107.28.28 0 0 0-.124-.186m1.236-1.861a6 6 0 0 0-2.222-1.41.04.04 0 0 0-.04.069 11.2 11.2 0 0 0 2.205 1.44c.06.024.092-.059.058-.099m2.349-1.5a1.3 1.3 0 0 0-.348-.166q-.175-.06-.352-.115c-.242-.079-.496-.125-.744-.184a.036.036 0 0 0-.02.07c.237.1.472.212.715.292.117.038.234.079.352.114a1.3 1.3 0 0 0 .376.069.043.043 0 0 0 .021-.08M63.005 7.43c-1.378-.91-2.845-1.677-4.295-2.464a.062.062 0 0 0-.063.108c1.417.845 2.825 1.714 4.312 2.435a.046.046 0 0 0 .046-.08m5.054 1.445a22.6 22.6 0 0 0-6.686-4.47c-.045-.02-.085.043-.04.068a52 52 0 0 1 6.656 4.472c.049.038.116-.024.07-.07m.003-2.962a25 25 0 0 0-2.884-1.977c-.025-.015-.056.023-.032.041a25 25 0 0 0 2.876 1.988c.031.018.07-.028.04-.052m3.998 3.013q-.7-.575-1.446-1.088c-.018-.012-.033.016-.017.028q.736.556 1.421 1.174c.447.403.87.827 1.33 1.215a.03.03 0 0 0 .043-.042 9 9 0 0 0-1.33-1.287m6.276 1.678A26.3 26.3 0 0 0 74.4 7.257a42 42 0 0 0-4.449-2.86.043.043 0 0 0-.043.073 64 64 0 0 1 4.31 2.95c1.393 1.037 2.677 2.21 4.062 3.255.044.033.09-.035.056-.072m1.522-1.877a23 23 0 0 0-6.384-4.371c-.045-.019-.076.056-.033.078a48 48 0 0 1 6.385 4.334c.024.018.054-.021.032-.041m3.252 2.914c-.342-.31-.698-.602-1.037-.914q-.509-.468-.98-.976c-.022-.025-.059.012-.036.037q.468.522.976 1.005a9 9 0 0 0 1.048.884c.022.015.047-.018.028-.036m3.49-.246a18.4 18.4 0 0 0-2.083-1.976q-1.108-.976-2.264-1.896a47 47 0 0 0-4.656-3.254c-.044-.027-.081.04-.04.068q2.44 1.647 4.753 3.475 1.094.866 2.147 1.783c.7.61 1.353 1.302 2.091 1.867.041.031.08-.033.052-.067m2.121-2.418q-.86-.847-1.772-1.638a34 34 0 0 0-3.72-2.797c-.04-.025-.075.036-.037.063A42 42 0 0 1 86.92 7.54q.859.757 1.67 1.565a13.6 13.6 0 0 0 1.582 1.58c.03.023.065-.019.049-.049a8.2 8.2 0 0 0-1.501-1.66m2.397-.555c-.868-.792-1.757-1.561-2.645-2.333-.05-.044-.121.025-.074.074.818.842 1.633 1.686 2.47 2.508a16.6 16.6 0 0 0 2.583 2.273c.042.027.103-.029.072-.072a16.7 16.7 0 0 0-2.406-2.45m4.496.421a2.3 2.3 0 0 0-.42-.237q-.224-.09-.453-.163c-.052-.016-.077.056-.035.084a4 4 0 0 1 .37.28c.117.1.247.184.368.279.244.192.508.354.765.528.038.026.087-.025.063-.063a2.3 2.3 0 0 0-.658-.708m3.58.428-.478-.186c-.02-.008-.028.024-.009.032l.476.191c.024.01.034-.029.01-.038M52.797 6.573a56 56 0 0 0-6.582-2.075.023.023 0 0 0-.012.044c2.212.634 4.388 1.384 6.578 2.088.037.012.05-.043.016-.057m-3.528.597c-.027-.012-.05.027-.023.04a8.6 8.6 0 0 0 2.01.66c.02.004.029-.027.008-.032a11 11 0 0 1-1.995-.668m8.232 45.666c-1.23-.237-2.503-.276-3.748-.398a21.3 21.3 0 0 0-3.74-.336 12.2 12.2 0 0 1-4.397-.675c-.046-.013-.063.054-.02.07 1.342.483 2.793.77 4.088 1.365a11.5 11.5 0 0 0 3.81.671 19.2 19.2 0 0 0 4.173-.022 36 36 0 0 1 4.18-.264.01.01 0 0 0 0-.02 27 27 0 0 1-4.346-.391m44.169 2.961c-2.485-.263-4.987-.36-7.477-.566a141 141 0 0 1-3.6-.334 18 18 0 0 1-1.835-.24 3.6 3.6 0 0 0-.935-.192c-.285.019-.532.12-.83.14a30 30 0 0 1-3.6-.11l-3.601-.183c-2.49-.126-4.985-.193-7.477-.297-.022-.001-.021.03 0 .032 2.492.202 4.983.442 7.477.621l3.6.26a20.5 20.5 0 0 1 3.782.366 4 4 0 0 0 .65.207 6 6 0 0 0 .968-.082c.6-.045 1.2-.018 1.8-.01 1.202.017 2.4.06 3.6.108 2.494.1 4.983.31 7.478.352.047.001.045-.067 0-.072M65.78 58.67q-1.105-.009-2.21-.041c-.663-.02-1.283-.164-1.934-.246-.635-.08-1.29.096-1.934.08q-1.105-.028-2.21-.064-.232-.008-.463-.019a26 26 0 0 1 2.425-.138c3.273-.05 6.545.092 9.818.038a.056.056 0 0 0 0-.112c-3.271-.205-6.542-.13-9.818-.153a31 31 0 0 1-2.35-.092 19 19 0 0 0-2.49-.295c-.71.037-1.442.207-2.153.308-.942.133-1.873.26-2.823.332a.036.036 0 0 0 0 .072c1.627.02 3.226.25 4.838.383a4.4 4.4 0 0 0 1.136-.092c.536.026 1.073.043 1.604.065q1.105.045 2.21.084a11 11 0 0 1 1.105.036 5.6 5.6 0 0 0 .967.153c.692-.013 1.37-.163 2.072-.158q1.037.007 2.073.025a26 26 0 0 0 4.013-.034.023.023 0 0 0 0-.044 29 29 0 0 0-3.875-.089m.026-30.245c-.874-.029-1.744-.06-2.612-.106a.22.22 0 0 0-.05-.154c-.214-.263-.639-.322-.935-.452a7 7 0 0 1-.905-.527c-.59-.372-1.169-.761-1.754-1.14-.04-.025-.09.037-.052.068.542.434 1.107.828 1.689 1.208.291.19.602.361.875.577.13.103.264.245.41.367-.403-.027-.807-.044-1.208-.087-.09-.277-.54-.382-.773-.492-.299-.143-.58-.335-.865-.505q-.89-.529-1.788-1.04a.03.03 0 0 0-.03.05q.865.57 1.741 1.123a10 10 0 0 1 .874.568c.074.058.162.139.255.217-.337-.043-.673-.082-1.009-.142-.118-.02-.239-.023-.359-.033l-.86-.58c-.355-.24-.722-.457-1.092-.669a1.4 1.4 0 0 0-.179-.121.2.2 0 0 0-.053-.011l-.278-.159a.02.02 0 0 0-.023.03c-.04-.009-.08-.014-.09.023-.004.015.01.03.01.045a2 2 0 0 0-.35.055 6.6 6.6 0 0 1-1.34.125 1.83 1.83 0 0 1-1.373-.46c-.031-.026-.061.006-.051.038l-.445-.32c-.027-.02-.06.024-.035.047.255.244.521.475.788.705a.03.03 0 0 0 .008.037c.033.023.07.04.102.062a9.3 9.3 0 0 0 1.344.97 5 5 0 0 0 1.609.627 1 1 0 0 0 .267.051l.022.001.077.004.016-.004a10 10 0 0 0 1.652.524 16.6 16.6 0 0 0 2.961.077q1.627.03 3.254.07c4.673.122 9.35.164 14.024.093a.02.02 0 0 0 0-.039q-6.725-.5-13.469-.721m24.073 5.842c-2.9-.57-5.812-.3-8.738-.478a7 7 0 0 0-1.765-.181 18 18 0 0 1-2.388.184 19.6 19.6 0 0 1-4.758-.305c-.008-.001-.012.011-.004.013 1.419.332 2.86.57 4.293.828.688.124 1.38.16 2.073.251.36.047.711.16 1.072.195a3.4 3.4 0 0 0 1.08-.176 24 24 0 0 1 4.567-.194q2.28-.039 4.557-.06c.043 0 .056-.068.01-.077M69.439 81.53c-2.983.747-5.974 1.559-9.01 2.056-1.49.244-2.988.584-4.453.95-1.515.379-2.924 1.096-4.444 1.5a.053.053 0 0 0 .028.102c.84-.18 1.676-.324 2.53-.428a17 17 0 0 0 1.996-.255 46 46 0 0 0 4.503-1.291c2.903-1.012 5.9-1.764 8.857-2.609a.013.013 0 0 0-.007-.025m10.221-5.625c-2.023.19-4.002.7-6.028.88-2.017.178-4.013.563-6.023.814-.947.118-1.891.235-2.836.374a13 13 0 0 1-1.54.193 5.2 5.2 0 0 0-1.513.16c-.925.288-1.866.49-2.804.74-1.03.274-2.021.609-3.068.825-.03.006-.016.049.012.045 2.07-.313 4.197-.38 6.28-.538a5 5 0 0 0 1.213-.343 12 12 0 0 1 1.485-.327c.997-.193 1.987-.408 2.98-.615 1.94-.405 3.915-.669 5.84-1.138 1.978-.483 4.02-.6 6.007-1.038.017-.004.014-.034-.005-.032"/><path fill="currentColor" d="M64.196 27.745c-.116-.078-.243-.143-.363-.213-.26-.15-.5-.327-.749-.496a11 11 0 0 0-1.53-.891.016.016 0 0 0-.017.028c.487.32.984.622 1.472.939a6 6 0 0 1 .717.515c.112.098.215.205.328.301a1 1 0 0 0 .33.221.1.1 0 0 0 .11-.144.9.9 0 0 0-.298-.26m2.431-.19-.048-.039c-.017-.014-.028-.039-.051-.053l-.074-.03-.061-.024-.062-.025-.066-.012-.13-.021a.043.043 0 0 0-.034.078l.11.075.054.036c.023.012.05.02.073.03a1 1 0 0 0 .124.05c.026.006.054-.007.075-.002l.062.004a.04.04 0 0 0 .028-.067m.925 5.294c-.62-.077-1.244-.08-1.87-.099-.287-.009-.576-.016-.862-.045a2.7 2.7 0 0 1-.53-.087c-.156-.05-.295-.143-.455-.186a1.06 1.06 0 0 0-.74.08 3 3 0 0 1-1.008.121q-.934.026-1.869.032a.01.01 0 0 0 0 .02q.935.057 1.87.134a2.7 2.7 0 0 1 1.007.184 1 1 0 0 0 .74.107 5.4 5.4 0 0 1 .985-.213c.287-.015.576-.006.863.001.624.015 1.246.047 1.87.003a.026.026 0 0 0 0-.052m5.051 25.378a8.6 8.6 0 0 0-2.672.126c-.026.005-.02.046.006.045.444-.011.887-.032 1.331-.046.447-.015.89-.02 1.335-.06a.033.033 0 0 0 0-.065m4.854 21.644a24 24 0 0 1-3.81.732c-.024.003-.024.043 0 .04a24 24 0 0 0 3.815-.753.01.01 0 0 0-.005-.019m-66.42 4.306c-.004-.058-.095-.059-.092 0a36 36 0 0 1 .004 4.579c-.002.03.043.029.046 0a27.5 27.5 0 0 0 .042-4.579m1.692.173a17 17 0 0 0-.122-1.398q-.16-1.348-.4-2.684a.023.023 0 0 0-.044.006q.11 1.39.14 2.786.011.645.028 1.29c.015.482.208.918.208 1.4a41 41 0 0 1-.11 2.691c-.06.924-.204 1.865-.18 2.79a.036.036 0 0 0 .07.01 21.7 21.7 0 0 0 .27-5.491c-.007-.482.159-.917.14-1.4m1.489-.443a38 38 0 0 0-.841-5.073c-.006-.025-.042-.014-.038.01.304 1.746.567 3.5.736 5.263.164 1.706.175 3.414.267 5.123a.03.03 0 0 0 .059 0 31.4 31.4 0 0 0-.183-5.323m.821-5.085a.013.013 0 0 0-.025.007c.275 1.227.512 2.468.672 3.716.155 1.208.218 2.423.306 3.638a.023.023 0 0 0 .046 0 24.6 24.6 0 0 0-.998-7.361m1.572.298a.036.036 0 0 0-.07.018c.201.85.35 1.71.502 2.569a.023.023 0 0 0 .045-.006 14.3 14.3 0 0 0-.477-2.582m41.334 49.271c-1.41-.26-2.841-.405-4.257-.628q-2.13-.336-4.248-.76c-.04-.008-.059.053-.017.064 1.422.35 2.85.653 4.295.898a31 31 0 0 0 4.216.51c.047 0 .06-.076.011-.085m3.127-1.554c-1.5-.148-3.01-.162-4.513-.287a51 51 0 0 1-4.637-.618c-.016-.003-.023.022-.007.026a39 39 0 0 0 4.467.804 21.2 21.2 0 0 0 4.69.167.046.046 0 0 0 0-.092m1.342-1.555a30.3 30.3 0 0 1-5.917-.059c-.044-.006-.055.07-.01.078a17.5 17.5 0 0 0 5.934.032.026.026 0 0 0-.007-.051m2.091-1.37c-1.11-.082-2.224.043-3.337.039a.053.053 0 0 0 0 .105 11.1 11.1 0 0 0 3.348-.066c.045-.01.031-.075-.01-.078m2.202-1.686a11 11 0 0 1-1.647.488c-.033.007-.018.056.014.05a5.3 5.3 0 0 0 1.648-.502c.02-.01.006-.043-.015-.036m-8.915 56.613a1.3 1.3 0 0 0-.236-.141.033.033 0 0 0-.045.045c.015.025.032.044.046.067-.787-.03-1.574-.01-2.36.02a7.3 7.3 0 0 0-1.211.142 2 2 0 0 0-1.044.38.046.046 0 0 0 .02.078 2.6 2.6 0 0 0 1.118-.116q.577-.105 1.153-.214a10 10 0 0 1 2.495-.105.092.092 0 0 0 .064-.156m-.502-1.762a1.4 1.4 0 0 0-.724.001l-.814.107q-.394.054-.787.118c-.134.02-.27.036-.403.068a.64.64 0 0 0-.287.11.033.033 0 0 0 .006.051.66.66 0 0 0 .308.035c.135-.003.272-.023.407-.037q.408-.038.814-.089l.814-.103a1.33 1.33 0 0 0 .677-.179.053.053 0 0 0-.01-.082m.064-1.53c-.237.026-.472.066-.71.087a4.3 4.3 0 0 1-.719.002c-.021-.002-.02.03 0 .033a3.1 3.1 0 0 0 1.435-.084c.02-.007.018-.041-.006-.038m.573-1.614a2 2 0 0 0-.288.038l-.292.048c-.045.007-.027.078.02.07l.283-.054a2 2 0 0 0 .282-.063.02.02 0 0 0-.005-.039"/></svg>