<svg xmlns="http://www.w3.org/2000/svg" data-name="Layer 2" viewBox="0 0 84.38 84.4"><g data-name="Layer 1"><g data-name="Layer_1"><g fill="currentColor" data-name="2659646899568"><path d="M16.51 72.74s6.08 1.46 11.14 2.08c6.09.74 10.66.32 15.86-.16 1.78-.16 3.63-.33 5.59-.46.62-.04 1.03.07 1.47.19.41.11.84.23 1.54.19.82-.04 1.88.34 3 .91 1.07.55 2.22 1.27 3.28 1.93 2.66 1.68 6.01 4.51 8.15 6.98-.02-.01-6.54-4.93-8.62-6.23-1.03-.65-2.16-1.36-3.21-1.89-1-.51-1.91-.86-2.56-.82-.84.04-1.35-.1-1.82-.23-.36-.1-.7-.19-1.18-.16-2.02.13-3.83.3-5.57.46-5.25.48-9.87.9-16.05.16-5.12-.62-11.23-2.09-11.24-2.09l.2-.86Z"/><path d="M5.18 66.73s-.97 1.88-.78 2.88c.12.63.47 1.69 1.04 2.62.39.64.88 1.22 1.46 1.54.68.37 2.08.48 3.57.39 1.66-.1 3.41-.43 4.41-.89l.41-.19c1.99-.91 4.88-2.23 6.56-3.71.63-.56.9-1.24.96-1.9.1-1.07-.3-2.14-.57-2.68l.79-.39c.32.64.79 1.88.66 3.16a3.65 3.65 0 0 1-1.26 2.48c-1.78 1.57-4.73 2.92-6.78 3.86l-.41.19c-1.1.5-2.97.87-4.73.97-1.64.1-3.22-.04-4.05-.5-.73-.4-1.33-1.09-1.79-1.85-.63-1.03-1.02-2.21-1.15-2.92-.25-1.29.85-3.43.86-3.43l.79.39Z"/><path d="M4.14 58.87s-1.16 1.36-1.2 2.14c-.03.5 0 1.35.06 2.12.05.58.13 1.1.23 1.32.12.27.68.86 1.27 1.36.46.39.92.71 1.14.72l.2.02c1.32.11 7.47.61 9.87.21 1.19-.2 2.68-.71 4.17-1.37 1.7-.75 3.41-1.68 4.69-2.53 1.15-.77 1.82-1.5 2.18-2.23.34-.71.39-1.45.29-2.24-.08-.64-.42-1.12-.9-1.47-.65-.48-1.53-.74-2.36-.86l.12-.87c.96.13 1.99.45 2.77 1.03.66.49 1.13 1.17 1.25 2.08.12.95.06 1.84-.37 2.73-.42.87-1.19 1.72-2.48 2.58-1.32.88-3.07 1.84-4.82 2.61-1.56.68-3.12 1.22-4.38 1.43-2.51.42-8.74-.09-10.08-.2l-.2-.02c-.42-.03-1.06-.44-1.64-.93-.67-.57-1.33-1.29-1.5-1.67-.14-.31-.24-.93-.3-1.61-.07-.81-.09-1.72-.06-2.24.06-1.07 1.41-2.65 1.41-2.65l.67.57Z"/><path d="M4.98 47.86s-2.85 1.8-3.55 2.5c-.29.29-.44.84-.51 1.52-.07.74-.04 1.61.02 2.46.06.8.22 1.38.46 1.83.23.44.54.76.89 1.03.36.28.8.57 1.66.83.9.27 2.25.51 4.4.68 2.18.16 3.96.28 5.39.28 1.41 0 2.5-.09 3.35-.35s2.3-.98 3.71-1.74c1.43-.77 2.82-1.58 3.56-2.01.66-.38 1.04-.8 1.26-1.26.23-.47.3-.99.34-1.56.07-1.1-.93-2.79-.93-2.8l.76-.44s1.14 1.92 1.05 3.3c-.04.67-.14 1.29-.42 1.89-.29.61-.78 1.16-1.6 1.64-.75.43-2.15 1.25-3.59 2.02-1.46.78-2.96 1.53-3.87 1.8-.93.28-2.1.39-3.6.38-1.48 0-3.27-.12-5.45-.28-2.21-.17-3.63-.42-4.59-.71-1-.3-1.53-.65-1.95-.99-.43-.34-.82-.74-1.12-1.31-.3-.55-.5-1.25-.57-2.18-.06-.88-.09-1.8-.01-2.61.09-.87.31-1.61.76-2.06.78-.78 3.69-2.6 3.69-2.61l.48.74Zm63.41 2.11c-1.02-.44-2.04-.87-3.03-1.28-3.57-1.5-6.64-2.78-8.92-4.37-1.46-1.01-2.56-1.95-3.61-3.29-1.04-1.33-2.02-3.06-3.24-5.68l-.29-.62c-2.23-4.77-3.73-7.97-6-10.24-2.44-2.44-5.98-5.99-7.55-9.24-1.42-2.95-2.47-4.18-3.57-5.48l-.21-.25c-.92-1.09-1.52-3.32-1.99-5.09-.19-.7-.35-1.32-.51-1.75-.24-.68-.55-1.13-.94-1.41-.39-.27-.88-.39-1.5-.39-.57 0-1.24.6-1.86 1.58-.64 1.02-1.18 2.43-1.44 3.99-.27 1.61-.4 2.93-.31 4.14.09 1.19.41 2.29 1.04 3.5 1.3 2.5 2.39 4.01 2.39 4.02l.03.05s3.65 7.08 4.21 9.44c.74 3.12.47 5.16.2 7.17-.19 1.38-.37 2.74-.19 4.43-1.18-2.66-.62-4.1-.45-6.69.09-1.32.03-2.8-.42-4.7-.52-2.18-3.87-8.72-4.12-9.21-.14-.2-1.19-1.71-2.43-4.09-.69-1.32-1.03-2.53-1.14-3.84-.1-1.29.04-2.67.32-4.35s.87-3.2 1.57-4.31C25.2.78 26.15.02 27.04.02c.8 0 1.46.16 2.01.55.54.38.95.98 1.26 1.83.16.46.34 1.1.53 1.82.45 1.69 1.02 3.81 1.81 4.75l.21.25c1.15 1.35 2.22 2.62 3.7 5.67 1.5 3.12 4.99 6.6 7.39 9 2.37 2.37 3.89 5.63 6.17 10.49l.29.62c1.19 2.55 2.14 4.23 3.13 5.51.98 1.26 2.03 2.14 3.42 3.11 2.2 1.52 5.23 2.8 8.76 4.28q1.44.6 3.03 1.29c4.84 2.09 15.61 8.14 15.65 8.15-3.63-.55-11.94-5.59-15.99-7.34ZM29.1 33.54s-2.42 2.26-3.24 6.06c-1.05-1.87 1.19-5.35 2.63-6.71l.6.64Zm-2.4 13.24s2.05 6.06 5.12 8.76c-2.83-1.17-5.01-5.67-5.96-8.48z"/><path d="M52.02 58.94c-.47.77-.83 1.39-1.01 1.87-.42-1.54 2.03-5.41 2.72-7.18 1.35-3.46 1.21-6.29 1.21-6.3 1.26 4.09-.85 8.15-2.92 11.61m-22.89-1.33s-1.82 5.32-1.72 11.06c-1.07-2.95-.59-9.78 1.72-11.06m25.6 2.94s-.91 3.33-.76 6.04c.09 1.55.08 3.66-.05 5.41-.11 1.49-.31 2.74-.63 3.26l-.75-.46c.24-.39.4-1.5.5-2.86.13-1.72.13-3.79.05-5.3-.07-1.33.42-5.21 1.64-6.08ZM25.84 40.4s-.04 2.43.2 3.47l-.79-.24c-.31-1.34-.09-2.73.59-3.23"/><path d="m31.23 32.01-2.3 1.61h-.13s-6.59.34-10.09.66c-.72.07-1.37.12-2.04.17-3.31.26-7.33.58-8.87 1.52-1.26.77-2.5 1.71-3.61 2.54-.62.47-1.2.91-1.71 1.26-.49.34-.74 1.2-.81 2.16-.1 1.34.13 2.84.48 3.59.42.91 1.2 1.08 3.11 1.48.58.12 1.26.27 2.09.47 1.66.4 3.97.76 6.17 1.02 2.52.29 4.87.46 5.9.4 1.06-.06 1.86 0 2.6.06.67.05 1.3.1 2.01.05.61-.04 1.1-.35 1.42-.82.36-.53.53-1.27.48-2.12-.05-.86-.15-1.46-.5-1.97-.37-.54-1.04-1.06-2.24-1.73-2.45-1.38-6.75-1.92-6.76-1.92h-.09l-.08-.06c-.01 0-4.54-2.64-7.5-2.64 2.16-1.22 5.87.7 7.87 1.83.64.09 4.6.67 7 2.02 1.33.75 2.09 1.34 2.54 2 .47.69.59 1.41.65 2.42.06 1.05-.17 1.98-.63 2.66-.47.7-1.19 1.14-2.09 1.21-.78.06-1.43 0-2.13-.05-.72-.06-1.5-.12-2.49-.06-1.08.06-3.49-.1-6.05-.4-2.22-.26-4.57-.62-6.28-1.04-.78-.19-1.47-.34-2.07-.46-2.21-.47-3.12-.67-3.73-1.98-.4-.86-.67-2.55-.56-4.03.09-1.2.45-2.31 1.19-2.82.51-.35 1.08-.78 1.68-1.24 1.12-.85 2.39-1.8 3.68-2.58 1.72-1.05 5.86-1.38 9.26-1.65.77-.06 1.51-.12 2.03-.17 3.25-.3 9.06-.61 10-.65l2.09-1.46.5.72Zm39.71 37.96c-3.51-3.35-14.66-8.72-14.68-8.73 3.03.1 12.91 5.01 14.68 8.73m-4.59-1.21c-2.12-1.36-8.59-4.5-8.6-4.51 3.05.45 6.27 2.45 8.6 4.51M34.93 57.19s4.78 3.72 9.51 3.94c-1.97 1.64-8.44-1.92-9.51-3.94m15.54 17.69-.91-.19c1.12-2.34.98-5.06.98-5.07.78 1.61.59 3.62-.06 5.26Zm3.66-17.51c2.19-2.46 2.75-7.61 2.75-7.62.76 2.36-.23 6.5-2.75 7.62M23.58 70.38s-.45 2.69-.09 3.92l-.74.22c-.24-.82-.02-3.64.83-4.14m13.84-10.09s3.63 2.97 9.12 4.76c-2.19.63-8.6-2.61-9.12-4.76"/><path d="M24.11 35.8c-.47.81-.68 4.12-.68 6.03l-.85-.07c0-1.79.24-4.6 1.53-5.96m-8.2 3.96-.92-.37c.14-2.25-1.37-3.39-1.38-3.4 1.68.04 2.37 2.54 2.29 3.77Zm21.15-11.29c1.21-.43 3.12-.2 4.48.56-.45-.19-3.43-.12-4.06.1-.95.34-2.61 1.19-2.61 1.2.67-.73 1.21-1.51 2.19-1.86m-12.54 29.3s-1.63.92-1.92 1.2c-.09.1-.14.23-.15.37-.02.2.03.41.09.56.08.18.2.48.31.83.09.27.18.58.25.9l.04.18c.1.44.13.53.28.55.13.01.72-.24 1.37-.57.66-.33 1.36-.74 1.74-1.03l.02-.02c.31-.26.37-.83.3-1.41-.07-.61-.29-1.22-.53-1.53l-.03-.03c-.24-.29-.43-.41-.57-.45-.12-.03-.22 0-.31.03-.21.09-.79.38-.91.44Zm-2.23.89c.34-.34 2.01-1.27 2.01-1.28h.02s.69-.35.93-.46c.16-.07.35-.12.6-.05.22.06.49.23.79.6l.03.04c.29.37.55 1.07.63 1.76.09.71-.02 1.43-.46 1.8l-.03.02c-.4.32-1.14.74-1.81 1.08-.72.36-1.4.64-1.62.62-.47-.05-.51-.19-.67-.89l-.04-.18a11 11 0 0 0-.53-1.65c-.09-.2-.16-.49-.13-.77.02-.23.1-.47.28-.64m2.1-9.01s-1.93.91-2.67 1.35a.9.9 0 0 0-.2.18c-.24.33-.25.9-.15 1.49.11.62.35 1.27.62 1.71.13.22.27.39.39.48.08.06.81-.11 1.69-.41.66-.23 1.37-.55 1.92-.94l.25.36c-.59.41-1.34.75-2.03.99-1 .35-1.92.48-2.09.36s-.35-.34-.51-.61c-.29-.49-.56-1.19-.68-1.87-.12-.7-.09-1.39.22-1.83.09-.12.2-.23.33-.31.76-.45 2.7-1.36 2.7-1.37l.19.4Zm-5.84 16.78s.62.97.89 2.09c.14.57.33.63.49.59.06-.02.14-.05.21-.07l.09-.04c.17-.06.68-.32 1.19-.64.34-.21.68-.45.91-.66.21-.19.35-.43.46-.66.17-.37.22-.7.22-.82h.44c0 .15-.06.57-.26 1.01-.12.27-.3.56-.56.8-.25.24-.61.49-.98.71-.53.33-1.08.61-1.26.68l-.08.03c-.08.03-.17.07-.27.09-.38.09-.8.01-1.02-.92-.25-1.04-.83-1.94-.83-1.95l.37-.25ZM29.71 2s-.53.36-.47.93c.04.39.68 2.03 1.38 3.43.48.97.97 1.81 1.28 1.99l-.22.38c-.39-.23-.94-1.14-1.45-2.18-.71-1.44-1.37-3.16-1.42-3.58-.09-.83.65-1.32.65-1.32l.26.35ZM16.13 52.21s-.3 1.23-.21 2.41c.09 1.19.47 2.47.47 2.47-1.15-1.11-1.2-3.58-.26-4.89Zm-.54-9.57s-.68 2.13-.72 3.05c-.04.94.04 1.93.04 1.93-.5-.72-.53-.97-.48-1.95.04-.91.57-2.34 1.16-3.03m1.37 18.83s-.04 1.02.04 1.83c.08.79.41 1.43.41 1.44-1.11-.65-.93-2.26-.45-3.27m-5.94 7.29c-.06.66-.04 1.83.3 2.64.1.24.38 1.1.55 1.29-.88-.98-1.88-2.65-.85-3.94Zm-7.78-23.6c.11-.29.32-.98.41-1.49.12-.76.39-2.57.06-3.22 1.02.87.64 3.83-.47 4.71m-.35 10.35c.32-2.07-.14-4.37-.14-4.37 1.12 1.69.89 3.78.14 4.37m1.72 9.56c-.77-1.42-.42-3.81.15-4.64-.11 1.23-.2 3.24-.15 4.64m31.12-51.01c-.79.84-1.94 1.36-3.07 1.36 1.06-.32 2.75-1.66 2.75-1.66zm-1.25-1.68s-1.44.75-2.46 2.13c.3-1.17 1.2-1.97 2.25-2.52zM24.42 49.12s-.01-3.12-.01-4c0-.1-.05-.19-.14-.27-.1-.09-.26-.16-.47-.19-.44-.07-.97-.11-1.47-.13-.59-.02-1.16-.01-1.57.02s-.8.32-1.11.7c-.36.44-.59 1-.59 1.44 0 .33.22.79.51 1.21.33.48.75.9 1.07 1.04l-.19.4c-.39-.18-.88-.66-1.25-1.19-.34-.49-.59-1.04-.59-1.47 0-.54.27-1.21.69-1.72.38-.47.89-.83 1.43-.87.41-.03 1-.04 1.61-.02.52.02 1.06.06 1.52.13.29.04.53.15.69.29.19.16.29.37.29.61 0 1 .01 3.97.01 4h-.44ZM5.68 69.05s.08.86.3 1.43c.23.59 1.48 2.17 1.48 2.18-.72-.17-1.64-1.37-1.89-2.02s-.21-1.4.11-1.59m49.4 1.47c.71-2.36.38-6.48.38-6.49 1.19 1.07.87 5.24-.38 6.49"/></g></g></g></svg>