<svg xmlns="http://www.w3.org/2000/svg" data-name="get with your buddy" viewBox="0 0 465.535 398.686"><path fill="currentColor" d="M327.539 145.715c-1.116-.9-2.373-1.571-3.448-2.54-.546-.492-.738-1.232-1.375-1.625a18 18 0 0 1-1.89-1.29q-3.385-2.714-6.589-5.64a.161.161 0 0 0-.228.227q3.02 3.18 6.244 6.157a15 15 0 0 1 1.446 1.474c.51.621 1.163.645 1.81 1.056 1.282.817 2.273 1.992 3.505 2.861.397.28.908-.37.525-.68m-1.459 2.484c-.394-.304-.784-.612-1.18-.912q-1.267-.957-2.517-1.936-2.385-1.873-4.763-3.757c-.075-.06-.181.04-.108.108a88 88 0 0 0 4.586 4.058q1.15.945 2.318 1.868c.385.305.779.6 1.173.893a2.3 2.3 0 0 0 1.122.623.128.128 0 0 0 .123-.16 1.9 1.9 0 0 0-.754-.785m-1.996 1.643c-.129-.117-.279-.218-.415-.327q-.392-.31-.78-.625-.82-.666-1.625-1.352c-1.059-.903-2.127-1.795-3.166-2.721-.13-.116-.316.067-.192.192.992.998 1.998 1.985 3.06 2.91q.774.674 1.564 1.33.407.338.817.67c.135.11.267.234.411.332a2.3 2.3 0 0 0 .427.162.137.137 0 0 0 .153-.2 2.2 2.2 0 0 0-.254-.37m-2.331 1.144c-.165-.141-.36-.252-.536-.378q-.551-.392-1.07-.827c-.336-.282-.65-.59-.985-.87q-.53-.444-1.026-.928c-.06-.058-.172.02-.12.092q.388.549.814 1.069a9 9 0 0 0 1.005.998q.514.459 1.062.877a4 4 0 0 0 .563.402.92.92 0 0 0 .596.175.12.12 0 0 0 .083-.147c-.037-.192-.244-.341-.386-.463m-3.451.407a10 10 0 0 0-.941-.7c-.105-.075-.219.085-.134.172a10 10 0 0 0 .834.818 3.9 3.9 0 0 0 .948.665c.071.029.13-.066.096-.125a3.8 3.8 0 0 0-.803-.83m55.282 4.222c-.627-.434-1.285-.8-1.87-1.294-.545-.461-.974-1.018-1.51-1.49q-.838-.74-1.671-1.487c-2.166-1.942-4.322-3.896-6.487-5.84a.102.102 0 0 0-.144.144q2.797 2.903 5.76 5.62a29 29 0 0 0 2.799 2.507 9.6 9.6 0 0 1 1.662 1.399 4.2 4.2 0 0 1 1.039 1.33.46.46 0 0 0 .327.359.43.43 0 0 0 .473-.192c.226-.454.01-.787-.378-1.056m-3.347 1.512q-.507-.48-1.018-.955-1.088-1.001-2.18-1.998a120 120 0 0 0-4.387-3.855c-.041-.034-.098.02-.06.06a119 119 0 0 0 4.139 4.103l2.082 1.98c.338.32.681.634 1.023.95.303.281.618.699 1.04.785a.12.12 0 0 0 .145-.147c-.108-.396-.496-.653-.784-.923m-1.71 1.799c-.106-.128-.236-.242-.352-.36l-.666-.683c-.47-.481-.949-.953-1.425-1.428l-2.818-2.81a.136.136 0 0 0-.192.192l2.742 2.886c.45.475.897.952 1.354 1.42l.666.682c.117.12.232.244.352.361a2 2 0 0 0 .408.267.111.111 0 0 0 .15-.151 2.5 2.5 0 0 0-.219-.376m-2.727.399q-.46-.485-.952-.938a15.4 15.4 0 0 0-2.083-1.568c-.072-.046-.16.066-.093.12.669.537 1.288 1.125 1.905 1.72q.458.44.887.91a5 5 0 0 0 .914.867c.064.041.168-.03.137-.106a3.3 3.3 0 0 0-.716-1.005m-2.562 1.254c-.062-.062-.159.035-.096.096l1.245 1.221a.05.05 0 0 0 .072-.072zm44.304 2.421q-1.412-1.258-2.921-2.4c-.084-.064-.196.08-.114.147q1.461 1.175 2.827 2.461c.909.857 1.737 1.816 2.725 2.583.048.037.134-.01.093-.072a15 15 0 0 0-2.61-2.719m2.625 5.729a13 13 0 0 0-1.263-1.165q-.62-.558-1.242-1.113c-1.701-1.516-3.47-2.957-5.235-4.398-.033-.027-.08.018-.048.049q1.932 1.812 3.836 3.654c.617.597 1.252 1.175 1.878 1.763q.496.467.991.937.22.21.44.417a2.7 2.7 0 0 0 .382.362c-.058-.026-.157.02-.125.096a.278.278 0 0 0 .442.104c.263-.19.108-.51-.056-.706m-1.503 2.06a4 4 0 0 0-.314-.353l-.695-.722q-.716-.744-1.426-1.493l-2.797-2.956c-.03-.032-.076.015-.048.048l2.674 3.08q.659.758 1.311 1.523l.653.764c.102.12.204.24.317.35a2.5 2.5 0 0 0 .418.28c.074.05.153-.046.116-.116a3 3 0 0 0-.21-.405m-1.357 2.365c-.138-.218-.296-.426-.448-.635q-.445-.612-.923-1.2a28 28 0 0 0-2.087-2.284.076.076 0 0 0-.108.108 27 27 0 0 1 1.929 2.382q.426.594.82 1.21c.14.217.267.442.408.658a2.3 2.3 0 0 0 .497.537.103.103 0 0 0 .17-.099 1.9 1.9 0 0 0-.258-.677m-83.363 5.979c.025-.062-.079-.106-.108-.046-2.285 4.604-3.647 9.604-5.265 14.458-.47 1.406-.202 2.45-.17 3.915.032 1.402-.02 2.806-.016 4.209.009 2.719.242 5.413.355 8.126.12 2.848.118 5.7.155 8.55a80 80 0 0 1-.092 9.164 38.8 38.8 0 0 0 .149 8.656c.346 3.08.254 6.183.621 9.266a.093.093 0 0 0 .187 0c.283-2.968.128-5.945.371-8.91a33.5 33.5 0 0 0 .137-8.061 65 65 0 0 1-.461-9.403c-.03-2.762-.103-5.527-.057-8.289.043-2.605.298-5.202.48-7.8.09-1.298.182-2.6.337-3.893.161-1.341.659-2.563.852-3.868a38 38 0 0 0-.11-3.827 33 33 0 0 1 .305-4.28 42 42 0 0 1 2.33-7.967m-10.92 56.205a48 48 0 0 1 .152-6.4c.14-2.271-.732-4.196-.954-6.408-.223-2.216-.3-4.445-.378-6.67a.034.034 0 0 0-.068 0c-.037 2.223-.025 4.448-.102 6.67-.076 2.201-.771 4.183-.391 6.411.169.99.502 1.949.674 2.94.227 1.31.306 2.646.433 3.968.197 2.069.477 4.108.829 6.156.017.104.187.08.183-.025a232 232 0 0 0-.378-6.642m47.644-35.827c.013-.104-.162-.127-.184-.024-.741 3.41-1.373 6.838-2.251 10.216-.782 3.005.273 6.33.318 9.42.099 6.82-.423 13.65.132 20.46a.085.085 0 0 0 .17 0c.303-6.696-.435-13.414.034-20.108a27.6 27.6 0 0 1 .857-5.418 11.2 11.2 0 0 0 .52-4.425 45.8 45.8 0 0 1 .404-10.12m27.548 33.512c.118-2.6.27-5.198.43-7.797.008-.133-.188-.127-.204 0-.326 2.666-.655 5.33-1.03 7.99q-.127.886-.288 1.766c-.129.71-.424 1.3-.616 1.982-.337 1.195.298 2.422.474 3.6.026.17.265.134.311 0 .413-1.195 1.272-2.284 1.081-3.6a12 12 0 0 1-.209-1.991c.009-.651.021-1.3.05-1.95m-1.965 14.129a34.7 34.7 0 0 0-.693 7.42.06.06 0 0 0 .118 0c.324-2.458.387-4.942.675-7.406.006-.057-.09-.07-.1-.014m50.619 78.006c-.155-.981.017-1.943-.111-2.906-.112-.833-.384-1.683-.563-2.506-.77-3.545-1.291-7.307-2.522-10.725a.085.085 0 0 0-.167.023c.073 3.599.927 7.261 1.473 10.813.131.855.189 1.743.364 2.587.204.984.754 1.864.967 2.868.39 1.838.644 3.704.967 5.555.077.442.764.258.677-.187-.36-1.84-.792-3.67-1.085-5.522m-3.474 2.194c-.226-1.163-.29-2.333-.405-3.51a31 31 0 0 0-.464-3.102c-.225-1.127-.575-2.216-.828-3.335-.025-.11-.214-.088-.2.027.135 1.133.172 2.27.334 3.402a31 31 0 0 0 .595 3.085c.267 1.07.59 2.125.76 3.217.189 1.214.109 2.432.268 3.64a.44.44 0 1 0 .867-.117c-.238-1.12-.706-2.175-.927-3.307m-2.381 1.429c-.138-.67-.304-1.336-.456-2.003q-.45-1.968-.86-3.942c-.023-.109-.18-.06-.164.045q.313 2.006.587 4.017c.09.659.17 1.32.27 1.976a3.6 3.6 0 0 0 .494 1.768.177.177 0 0 0 .293-.078 3.6 3.6 0 0 0-.164-1.783m-3.524.359q-.082-.524-.195-1.043-.22-1.016-.435-2.033c-.024-.11-.179-.06-.164.045q.145 1.054.286 2.11.064.49.159.977a2.1 2.1 0 0 0 .263.908c.047.057.131.018.152-.04a2.1 2.1 0 0 0-.066-.924m-11.882-39.62c-.978 2.315-2.048 4.594-3.043 6.903-.983 2.28-1.765 4.624-2.63 6.949-.054.147.173.234.249.105a49 49 0 0 0 3.384-6.631 73 73 0 0 0 2.32-7.208c.045-.162-.21-.281-.28-.118m-3.334-.187c-1.99 4.56-4.447 8.878-6.695 13.31a.085.085 0 0 0 .146.086 65.3 65.3 0 0 0 6.714-13.326c.038-.094-.124-.164-.165-.07m-3.962 1.236a119 119 0 0 1-2.477 4.193q-.64 1.036-1.285 2.07a13.3 13.3 0 0 0-1.179 1.841 14.3 14.3 0 0 1-.96 2.2 55 55 0 0 1-1.304 2.058c-.453.677-.936 1.333-1.411 1.995a3.24 3.24 0 0 0-.884 1.68.143.143 0 0 0 .213.123c.58-.275.851-.98 1.15-1.522.394-.71.77-1.43 1.173-2.135.402-.706.817-1.403 1.235-2.1a17 17 0 0 1 1.484-1.893 12 12 0 0 0 1.023-1.93q.574-1.077 1.13-2.162c.744-1.445 1.474-2.898 2.22-4.343.043-.084-.081-.158-.128-.075m-8.583 8.659q-1.524 1.93-3.055 3.852a19.8 19.8 0 0 0-2.804 3.921.097.097 0 0 0 .151.117 19.7 19.7 0 0 0 2.961-3.8q1.405-2.02 2.827-4.028c.033-.047-.044-.108-.08-.062m-6.757 4.113q-.8.85-1.604 1.699c-.265.28-.52.565-.773.856a2.7 2.7 0 0 0-.646.897.086.086 0 0 0 .125.096 2.8 2.8 0 0 0 .804-.76q.384-.43.75-.877.73-.897 1.465-1.79c.068-.084-.044-.202-.12-.121m-106.375 11.791c-5.516-4.446-11.472-8.31-17.289-12.343-.15-.105-.287.138-.142.244 5.707 4.169 11.296 8.528 17.294 12.277.107.066.239-.096.137-.178m12.365 3.329c-7.545-4.83-15.198-9.48-22.59-14.546-.037-.025-.07.033-.035.059a169 169 0 0 0 22.556 14.604.068.068 0 0 0 .069-.117m6.769-.209a12.5 12.5 0 0 0-2.14-1.26q-1.23-.681-2.453-1.376-2.293-1.302-4.56-2.651a304 304 0 0 1-9.284-5.706c-.043-.027-.082.04-.04.069 3.021 2.02 6.075 3.996 9.187 5.873q2.258 1.361 4.548 2.67 1.22.7 2.448 1.387a11.5 11.5 0 0 0 2.211 1.135c.078.024.148-.085.083-.141m1.07-3.59c-1.006-.404-2.034-.756-3.053-1.125-.03-.01-.051.038-.022.052.962.431 1.919.884 2.896 1.282a27 27 0 0 0 3.047 1.148.051.051 0 0 0 .04-.093 26 26 0 0 0-2.908-1.264m7.987 1.485c-.54-.107-1.08-.207-1.62-.31a.057.057 0 0 0-.03.11c.527.147 1.054.298 1.583.442a13 13 0 0 0 1.62.31.057.057 0 0 0 .03-.109 13 13 0 0 0-1.583-.443m20.453 49.464a16 16 0 0 1-.926-1.543 3.4 3.4 0 0 0-1.022-.847 19 19 0 0 1-2.845-2.12c-1.642-1.455-3.233-2.97-4.825-4.48q-4.776-4.53-9.433-9.184a.045.045 0 0 0-.064.064q4.673 4.765 9.467 9.409c1.576 1.526 3.173 3.03 4.737 4.569a18.3 18.3 0 0 1 2.23 2.578c.695.992 1.61 1.066 2.55 1.723.106.074.204-.081.13-.169m2.377 2.327c-.024-.029-.063.011-.04.04 3.062 3.747 6.078 7.54 9.27 11.18.034.038.086-.017.056-.057-2.992-3.804-6.165-7.466-9.286-11.164m71.344-187.617-1.197-1.417q-1.273-1.505-2.53-3.022-2.486-2.984-5.006-5.938c-.061-.072-.192.026-.133.103q2.318 3.003 4.667 5.98c.793 1.003 1.588 2.006 2.374 3.016l1.143 1.469a4 4 0 0 0 1.314 1.36.172.172 0 0 0 .249-.19 3.35 3.35 0 0 0-.881-1.361m.154 5.113c-.416-.466-.871-.898-1.299-1.354a38 38 0 0 1-2.398-3.334 78 78 0 0 0-5.163-5.892c-.07-.077-.175.034-.112.112 1.62 2.004 3.109 4.109 4.728 6.114a32 32 0 0 1 2.518 3.052c.331.532.61 1.103.914 1.652.263.474.512.98 1.093 1.07a.207.207 0 0 0 .25-.142 1.44 1.44 0 0 0-.531-1.278m-2.034 2.3q-.766-.95-1.555-1.882c-1.055-1.246-2.134-2.456-3.3-3.598-.032-.032-.075.014-.048.048 1.02 1.246 2.063 2.471 3.078 3.722q.763.94 1.504 1.9a11 11 0 0 0 1.53 1.833.091.091 0 0 0 .142-.11 9 9 0 0 0-1.351-1.913m9.93 26.338q-1.698-1.954-3.497-3.817a89 89 0 0 0-7.616-7.022c-.045-.037-.109.024-.064.064a114 114 0 0 1 7.335 7.115q1.728 1.84 3.36 3.767a43 43 0 0 0 3.371 3.916.08.08 0 0 0 .125-.096 22.6 22.6 0 0 0-3.014-3.927m2.442 9.611q-.713-.99-1.441-1.968a62 62 0 0 0-2.923-3.649 34.6 34.6 0 0 0-7.008-6.288c-.043-.028-.082.04-.04.069a34.7 34.7 0 0 1 6.938 6.492 82 82 0 0 1 2.973 3.812q.69.934 1.364 1.88a7 7 0 0 0 1.247 1.577c.044.033.107-.022.091-.07a7.4 7.4 0 0 0-1.201-1.855m-.35 6.574a33 33 0 0 0-2.573-3.29 13 13 0 0 1-.848-1.058 7 7 0 0 1-.512-1.092c-.276-.6-.907-.966-1.34-1.456-1.959-2.223-3.88-4.448-5.992-6.53a.034.034 0 0 0-.048.047 71 71 0 0 1 5.745 6.575 5.4 5.4 0 0 1 .635.99 1.9 1.9 0 0 0 .499.712 8 8 0 0 1 .787.613 7.5 7.5 0 0 1 .78 1.113c.775 1.23 1.437 2.533 2.24 3.742a.37.37 0 0 0 .41.167.23.23 0 0 0 .16-.093.38.38 0 0 0 .057-.44m-.05 6.339c-.474-.59-.902-1.21-1.342-1.825-.84-1.174-1.632-2.38-2.492-3.54a144 144 0 0 0-5.159-6.516c-.042-.051-.111.02-.072.072a325 325 0 0 1 5.139 6.792c.81 1.095 1.66 2.16 2.441 3.276.39.556.793 1.105 1.138 1.69a7 7 0 0 0 1.104 1.597c.075.071.234 0 .19-.11a5.9 5.9 0 0 0-.947-1.436m-.295 5.923a98 98 0 0 1-1.308-1.692 60 60 0 0 1-2.2-3.152q-2.109-3.221-4.29-6.39a.045.045 0 0 0-.078.045 64 64 0 0 0 4.247 6.555 231 231 0 0 1 2.266 3.113 18 18 0 0 0 2.246 2.998.08.08 0 0 0 .125-.096 9 9 0 0 0-1.008-1.38m-8.187-4.243c-.029-.041-.097-.003-.068.04a172 172 0 0 0 3.244 4.659c.025.035.083.003.058-.034a172 172 0 0 0-3.234-4.665m3.71 12.619c-1.017-1.531-2.063-3.04-3.108-4.552-.045-.065-.15-.006-.107.063a294 294 0 0 0 2.985 4.729 40 40 0 0 0 3.063 4.491c.053.062.138-.017.107-.082a40 40 0 0 0-2.94-4.65m1.017 9.311q-.777-1.085-1.522-2.193a151 151 0 0 1-2.918-4.471.057.057 0 0 0-.098.057 68 68 0 0 0 2.77 4.655q.731 1.114 1.495 2.208a11.6 11.6 0 0 0 1.616 2.062.097.097 0 0 0 .15-.117 15.5 15.5 0 0 0-1.493-2.201m-3.757 1.743a.045.045 0 0 0-.063.063 20.4 20.4 0 0 1 2.265 3.415.045.045 0 0 0 .083-.035 8.5 8.5 0 0 0-2.284-3.444m-.033 7.354-.598-.998c-.063-.106-.231-.008-.166.097l.612.99q.309.493.642.971a.045.045 0 0 0 .078-.045 23 23 0 0 0-.568-1.015M295.612 146.914q-.524-1.077-1.052-2.155c-.73-1.484-1.483-2.958-2.225-4.436-.053-.105-.205-.013-.156.091.686 1.478 1.362 2.962 2.06 4.434.342.723.69 1.444 1.035 2.165a7 7 0 0 0 1.104 2.047c.042.04.132.015.125-.052a6.8 6.8 0 0 0-.891-2.094m-14.691 6.412a61 61 0 0 1-1.927-4.576c-.03-.08-.159-.048-.131.036a34.5 34.5 0 0 0 4.144 8.909.045.045 0 0 0 .078-.046c-.7-1.452-1.485-2.86-2.164-4.323m4.901 4.297a93 93 0 0 1-1.537-2.803q-1.52-2.86-2.772-5.85c-.028-.066-.136-.039-.11.03q1.156 2.938 2.563 5.768c.476.953.99 1.888 1.519 2.813q.41.716.836 1.423a5.5 5.5 0 0 0 .832 1.203.063.063 0 0 0 .104-.06 14.4 14.4 0 0 0-1.435-2.524m3.965 2.802q-.324-.487-.637-.98-.606-.957-1.172-1.939a60 60 0 0 1-2.15-4.064c-.028-.06-.114-.008-.088.051a51 51 0 0 0 2.063 4.2q.566 1.023 1.176 2.02.305.5.62.99a2.4 2.4 0 0 0 .579.725c.065.045.14-.029.124-.096a3 3 0 0 0-.515-.907m.733-2.088c-.097-.088-.24.054-.144.144a15 15 0 0 1 1.476 1.597c.459.577.875 1.187 1.304 1.786a.045.045 0 0 0 .079-.046 11.3 11.3 0 0 0-2.715-3.481m-38.162 81.929c-.01-.079-.133-.08-.125 0 .51 4.612 1.027 9.22 1.604 13.825.007.05.085.05.08 0a929 929 0 0 0-1.56-13.825m2.399-.746c-.008-.044-.071-.024-.066.018.626 4.456 1.216 8.923 2.113 13.335.012.061.119.049.11-.015-.526-4.475-1.359-8.906-2.157-13.338m69.108 31.796c-.01-.057-.096-.032-.088.024.663 4.287 1.293 8.58 2.11 12.84.011.059.095.033.087-.023-.59-4.298-1.366-8.567-2.11-12.84M250.485 74.393a7.4 7.4 0 0 0-2.786.414 26 26 0 0 0-2.649 1.474 61 61 0 0 0-6.333 3.188.08.08 0 0 0 .06.145 54 54 0 0 0 5.962-2.178c.978-.398 1.981-.552 2.954-.906.95-.345 1.828-.909 2.759-1.304 2.084-.885 4.846-.108 7.013.18 2.156.288 4.309.583 6.468.842.025.003.031-.04.006-.045a116 116 0 0 0-13.454-1.81m15.415 1.98q-.672-.1-1.348-.155c-.008 0-.007.01 0 .012q.693.089 1.38.224c.442.088.876.207 1.322.273a.034.034 0 0 0 .018-.066 7.6 7.6 0 0 0-1.373-.288"/><path fill="currentColor" d="M264.292 80.176c-1.921.078-3.832.288-5.753.375q-1.444.063-2.888.049a16 16 0 0 0-2.891-.263 3 3 0 0 0-.677.278 3.5 3.5 0 0 1-1.548.143 158 158 0 0 1-3.111-.129c-1.553-.083-3.099-.224-4.647-.347 1.168-.267 2.342-.517 3.513-.768a32 32 0 0 1 5.015-.862c1.46-.075 2.628.233 4.067-.251a10.55 10.55 0 0 1 5.437-.433c.064.011.092-.084.027-.098-1.547-.343-3.125-.417-4.693-.61a6.65 6.65 0 0 0-4.181.662 20.6 20.6 0 0 1-5.051 1.326c-1.758.331-3.52.7-5.29.957a.163.163 0 0 0 0 .311 55 55 0 0 0 5.803.598c.888.052 1.778.103 2.667.114a5.4 5.4 0 0 1 1.992.182 3 3 0 0 0 .677.277 12.7 12.7 0 0 0 2.89-.376c.963-.085 1.926-.162 2.889-.25a45 45 0 0 0 5.766-.785.051.051 0 0 0-.013-.1m-3.182 3.863a55.5 55.5 0 0 1-9.017.521 13 13 0 0 1-2.448-.287c-.39-.101-.71-.345-1.082-.458a4.2 4.2 0 0 0-1.054.058 26.5 26.5 0 0 1-4.627-.876.04.04 0 0 0-.02.077c1.48.582 2.974.916 4.487 1.377.356.108.703.399 1.073.409.322.009.668-.131.997-.146.831-.037 1.676.085 2.506.128a29.3 29.3 0 0 0 9.198-.703c.053-.015.045-.106-.014-.1m-6.169 3.159a.072.072 0 0 0 0 .145.072.072 0 0 0 0-.145m3.715-54.602a13.2 13.2 0 0 0-9.28.244.04.04 0 0 0 .021.076 25 25 0 0 1 9.235-.142c.109.015.11-.144.024-.178"/><path fill="currentColor" d="M465.502 347.9a72 72 0 0 0-6.59-11.952c-2.532-3.792-5.228-7.484-7.857-11.21-2.314-3.28-4.674-6.543-6.846-9.919a124 124 0 0 1-3.178-5.182c-.431-.748-.847-1.668-1.347-2.508-.156-1.194-.288-2.39-.46-3.584a22.8 22.8 0 0 0-2.102-7.688 16.9 16.9 0 0 0-5.033-5.404c-2.193-1.634-4.801-2.738-6.893-4.49-2.419-2.025-3.005-5.526-3.368-8.509-.246-2.024-.346-4.057-.464-6.09a76 76 0 0 0 1.786-5.733 116.5 116.5 0 0 0 3.698-22.646c.963-15.401-2.385-30.144-5.943-45.01-1.884-7.87-3.594-15.78-5.463-23.652.074-1.848.094-3.697.034-5.542-.088-2.68.123-5.766-1.534-8.033-1.57-2.148-4.36-3.77-6.539-5.243a28.5 28.5 0 0 0-7.954-3.94 29.8 29.8 0 0 0-8.993-.818 58.6 58.6 0 0 1-10.097-.32 40 40 0 0 1-4.471-.852c-.67-.178-1.352-.404-2.04-.598-2.149-2.062-4.43-4-6.644-5.913-3.635-3.143-7.543-6.753-12.604-7.023a27.6 27.6 0 0 0-7.477 1.11c-2.479.564-4.958 1.13-7.467 1.544a62 62 0 0 1-7.546.89 20.4 20.4 0 0 1-4.198-.286l-.238-.04a50.7 50.7 0 0 0-6.742-6.948c-3.468-3.011-7.333-7.355-12.343-6.27-5.01 1.087-9.994 3.479-14.691 5.487q-3.74 1.598-7.398 3.372c-1.605.775-3.572 1.656-5.326 1.33a28 28 0 0 1-2.357-5.188c-.117-.357-.225-.72-.334-1.084-.126-1.29-.264-2.576-.403-3.851q-.893-8.17-1.888-16.329c-.66-5.392-1.475-10.783-1.824-16.207a63 63 0 0 1-.06-7.741c.16-2.71.587-5.42.531-8.14-.107-5.26-1.361-10.539-2.318-15.691-.99-5.323-2.015-10.638-2.994-15.963-.936-5.09-1.83-10.19-2.61-15.308-.784-5.15-1.142-10.436-2.327-15.516C262.762 7.38 257.01-.936 247.95.085c-7.687.866-12.98 7.215-15.183 14.224C230.564 7.299 225.272.95 217.585.085c-9.06-1.02-14.812 7.294-16.64 15.127-1.185 5.08-1.543 10.366-2.328 15.516-.78 5.118-1.674 10.217-2.61 15.308-.979 5.325-2.004 10.64-2.993 15.963-.957 5.152-2.211 10.432-2.319 15.692-.055 2.72.37 5.428.531 8.138a63 63 0 0 1-.06 7.742c-.348 5.424-1.163 10.815-1.824 16.207q-1 8.158-1.888 16.329a347 347 0 0 0-.403 3.85c-.108.364-.216.728-.333 1.085a28 28 0 0 1-2.357 5.187c-1.755.327-3.721-.554-5.326-1.33q-3.663-1.768-7.398-3.371c-4.698-2.008-9.68-4.4-14.691-5.486-5.01-1.086-8.875 3.258-12.344 6.269a50.7 50.7 0 0 0-6.742 6.948l-.238.04a20.4 20.4 0 0 1-4.198.286 62 62 0 0 1-7.545-.89c-2.51-.415-4.989-.98-7.468-1.543a27.6 27.6 0 0 0-7.476-1.111c-5.062.27-8.97 3.88-12.605 7.023-2.213 1.913-4.495 3.851-6.643 5.913-.689.194-1.371.42-2.04.598a40 40 0 0 1-4.472.852 58.6 58.6 0 0 1-10.096.32 29.8 29.8 0 0 0-8.994.817 28.5 28.5 0 0 0-7.954 3.941c-2.18 1.472-4.969 3.095-6.539 5.243-1.657 2.267-1.446 5.353-1.533 8.033-.06 1.845-.04 3.694.033 5.542-1.869 7.871-3.579 15.783-5.462 23.652-3.558 14.865-6.907 29.609-5.943 45.01a116.5 116.5 0 0 0 3.698 22.646 76 76 0 0 0 1.785 5.733c-.118 2.033-.218 4.066-.464 6.09-.363 2.983-.949 6.484-3.368 8.51-2.091 1.751-4.7 2.855-6.892 4.489a16.9 16.9 0 0 0-5.033 5.404 22.8 22.8 0 0 0-2.102 7.688c-.172 1.193-.304 2.39-.46 3.584-.5.84-.917 1.76-1.348 2.508a124 124 0 0 1-3.178 5.182c-2.172 3.376-4.532 6.639-6.846 9.92-2.628 3.725-5.324 7.417-7.857 11.21a72 72 0 0 0-6.59 11.95.341.341 0 0 0 .533.412c6.78-6.289 11.788-14.172 17.066-21.731 2.423-3.47 4.839-6.928 6.936-10.61.106-.186.196-.382.3-.57-.617 5.853-.995 11.716-1.246 17.6a.341.341 0 0 0 .666.09c1.62-6.549 3.113-13.102 4.24-19.756.547-3.226 1.033-6.455 1.525-9.69.428-2.807.988-5.624 2.946-7.8 3.51-3.9 10.316-5.127 12.31-10.332 1.019-2.658.857-5.952.868-8.746 0-.078-.005-.154-.005-.231 1.449 3.437 3.079 6.801 4.812 10.175a.341.341 0 0 0 .62-.262c-1.211-4.103-2.186-8.192-3.19-12.348-1.003-4.147-2.207-8.239-3.148-12.402a116.3 116.3 0 0 1-3.013-22.394 118.4 118.4 0 0 1 1.786-22.61c.148-.895.343-1.783.505-2.677 1.192-1.252 2.264-2.648 3.394-3.942q1.9-2.178 3.866-4.296c2.688-2.905 5.48-5.722 8.319-8.478.073-.072-.037-.18-.112-.112-3 2.674-5.86 5.482-8.615 8.409q-2.09 2.221-4.082 4.532c-.884 1.022-1.799 2.068-2.632 3.16.343-1.854.669-3.71 1.048-5.558.47-.549.916-1.12 1.366-1.657.93-1.11 1.874-2.209 2.816-3.31 1.916-2.236 3.793-4.504 5.701-6.747.033-.039-.02-.093-.056-.056-2.105 2.107-4.181 4.243-6.145 6.483q-1.474 1.681-2.915 3.39c-.16.19-.324.39-.489.58.32-1.53.634-3.061.967-4.589l.339-.392q1.189-1.414 2.392-2.815c1.657-1.93 3.26-3.9 4.893-5.849.078-.093-.048-.226-.136-.136-1.797 1.848-3.567 3.694-5.262 5.638q-.976 1.12-1.94 2.25c.364-1.653.714-3.31 1.085-4.96.33-.423.665-.842.986-1.27.58-.773 1.154-1.55 1.71-2.342.552-.786 1.04-1.611 1.57-2.411a.4.4 0 0 0 .196-.315c.286-6.464.638-12.918.921-19.385.12-2.707-.456-6.102 1.807-8.006a48 48 0 0 1 6.72-4.687 19.2 19.2 0 0 1 8.124-2.73c3.131-.256 6.282.105 9.418-.027a26.4 26.4 0 0 0 8.053-1.577c.123-.046.261-.1.388-.146-.586.692-1.189 1.373-1.716 2.107-.121.17.105.323.255.256 5.101-2.287 9.598-5.983 13.999-9.374a56 56 0 0 1 6.058-4.454 10.18 10.18 0 0 1 7.461-1.08c4.943.963 9.767 2.427 14.82 2.747a22.1 22.1 0 0 0 6.79-.822 28 28 0 0 0-1.443 2.49c-.13.267.145.606.43.43 4.76-2.94 8.683-6.759 12.89-10.42 1.933-1.684 3.999-3.817 6.3-4.987 2.481-1.261 5.513.483 7.886 1.358 5.056 1.863 9.959 4.035 14.867 6.24a377 377 0 0 1-2.353 5.164q-.722 1.546-1.457 3.086a13 13 0 0 0-1.383 3.161c-.012.078.078.149.142.083a11.2 11.2 0 0 0 1.642-3.01q.763-1.596 1.478-3.214c.754-1.712 1.436-3.45 2.107-5.193.354.16.71.311 1.064.47.284.128.585.213.876.327-.15.406-.294.817-.445 1.194-.395.984-.785 1.969-1.202 2.944q-.59 1.384-1.224 2.75c-.227.489-.445.981-.67 1.471a5 5 0 0 0-.51 1.341c-.01.073.072.14.133.077a4.8 4.8 0 0 0 .777-1.309c.221-.45.44-.901.646-1.36q.626-1.4 1.21-2.818a76 76 0 0 0 1.179-3.002c.135-.374.288-.77.432-1.167.365.136.722.299 1.095.408-.08.26-.158.52-.245.77q-.402 1.159-.869 2.293c-.277.672-.58 1.333-.89 1.99-.667.68-1.302 1.395-1.999 2.035-.212.195.01.63.298.51.252-.105.467-.264.711-.38-.039.1-.09.195-.124.297-.028.082.095.16.151.088.136-.175.219-.395.34-.583a20.63 20.63 0 0 0 8.189-7.9c.203-.337.367-.695.542-1.047.01-.022.024-.04.033-.063q.05-.1.102-.197a59 59 0 0 0 .026 6.062.418.418 0 0 0 .817.11c1.831-5.59 2.645-11.59 3.461-17.412q1.175-8.383 2.282-16.775c.73-5.608 1.549-11.239 1.743-16.898.198-5.753-1.072-11.505-.49-17.239.503-4.948 1.65-9.884 2.569-14.767.957-5.09 1.931-10.175 2.85-15.271q1.158-6.423 2.138-12.876a.19.19 0 0 0 .162.015 18 18 0 0 1 5.63-2.275 31.4 31.4 0 0 1 5.864-.384c4.184.207 7.805 1.845 11.553 3.563a.028.028 0 0 0 .035-.044 11.5 11.5 0 0 0-2.116-1.985 17.1 17.1 0 0 0 .95-6.873q-.032-3.877-.206-7.75c-.08-1.805-.08-3.598-1.347-5.022a8.96 8.96 0 0 0-4.492-2.41 13.98 13.98 0 0 0-10.255 1.126 12 12 0 0 0-1.273.838 13.4 13.4 0 0 1 5.019-5.387c3.509-2.006 7.585-1.354 10.885.747 7.829 4.984 8.513 14.896 8.352 23.29-.394 20.632-1.162 41.259-1.545 61.893q-.285 15.39-.498 30.783c-.14 10.402-.885 21.079.38 31.42.05.422.73.614.816.11.15-.873.25-1.756.366-2.636.05.29.093.582.143.872q.527 3.082 1.095 6.158c.202 1.095.361 2.224.655 3.3a6 6 0 0 0 .528 1.228 17.3 17.3 0 0 0-.098 4.39 49 49 0 0 0 1.556 7.223 26.5 26.5 0 0 1-.613 3.484c-.598 2.519-1.44 4.969-2.25 7.426a121.5 121.5 0 0 0-3.999 15.536c-.046.246.31.442.435.183a120 120 0 0 0 2.663-5.952 105 105 0 0 0 .865 14.856c.807 7.578 2.027 15.092 2.308 22.72.275 7.49-.108 15.02-2.347 22.223a58.7 58.7 0 0 1-8.168 15.954 63.6 63.6 0 0 0-6.854-7.406c.04-.327.101-.652.135-.98.303-2.902.106-5.798.166-8.706.003-.179-.29-.224-.317-.043-.427 2.859-1.241 5.645-1.719 8.496-.421 2.514-.818 5.027-1.303 7.53-.184.832-.37 1.664-.567 2.493-.747 3.156-1.593 6.292-2.596 9.377a169 169 0 0 1-6.665 17.629 24.4 24.4 0 0 1-4.044 6.6 58.5 58.5 0 0 1-6.184 5.131c-4.31 3.532-8.177 7.587-12.121 11.51-8.226 8.18-16.354 16.458-24.564 24.654-8.064 8.05-15.96 16.25-23.568 24.734-7.461 8.322-15.416 16.855-20.212 27.044a.469.469 0 0 0 .733.566 138 138 0 0 0 13.397-14.145c4.263-4.956 8.539-9.89 12.955-14.71 15.823-17.27 32.489-33.722 48.937-50.388 1.97-1.996 3.892-4.032 6.014-5.872 1.964-1.703 4.151-3.144 6.064-4.905 3.852-3.549 5.833-8.561 7.71-13.33.81-2.058 1.512-4.143 2.168-6.242a8 8 0 0 0 2.313-1.88 171 171 0 0 0 3.738-4.038c2.257-2.54 4.446-5.14 6.517-7.836a70.1 70.1 0 0 0 10.046-17.247 51 51 0 0 0 3.115-13.383c.063.453.121.934.183 1.368a64.3 64.3 0 0 0 3.036 12.12 53.1 53.1 0 0 0 12.441 19.903c.039.173.07.348.11.522a112.6 112.6 0 0 0 4.953 16.712c1.878 4.77 3.859 9.782 7.71 13.33 1.913 1.762 4.1 3.203 6.065 4.906 2.121 1.84 4.043 3.875 6.014 5.872 16.448 16.666 33.114 33.117 48.936 50.388 4.417 4.82 8.692 9.754 12.955 14.71a138 138 0 0 0 13.397 14.145.469.469 0 0 0 .734-.566c-4.796-10.189-12.751-18.722-20.213-27.044-7.607-8.484-15.504-16.685-23.568-24.734-8.21-8.196-16.338-16.474-24.563-24.654-3.945-3.923-7.812-7.978-12.121-11.51a58.5 58.5 0 0 1-6.185-5.131 24.4 24.4 0 0 1-4.043-6.6 169 169 0 0 1-6.665-17.63c-1.004-3.084-1.85-6.22-2.597-9.376q-.292-1.244-.567-2.493c-.485-2.503-.881-5.016-1.303-7.53-.478-2.851-1.292-5.637-1.719-8.496-.027-.181-.32-.135-.316.043.06 2.908-.138 5.804.165 8.706.279 2.676.733 5.349 1.194 7.998.054.308.134.61.19.917.278 1.753.606 3.498.96 5.238a124.4 124.4 0 0 1-8.901-18.787 82 82 0 0 1-2.858-9.691c-1.294-10.121-2.51-20.259-2.078-30.487.257-6.087.89-12.15 1.239-18.233.112-1.941.174-3.881.204-5.823.175.633.33 1.27.51 1.9a.298.298 0 0 0 .584-.078 115 115 0 0 0-1.457-14.107c-.403-2.292-.858-4.582-1.434-6.837a70 70 0 0 1-1.77-7.138c-.667-4.584.984-9.547 1.908-14.01.974-4.7 1.742-9.317 2.357-14.071.036-.28-.384-.3-.467-.064a183 183 0 0 0-2.362 7.302c.36-8.024-.095-16.161-.203-24.138q-.208-15.392-.498-30.783c-.383-20.634-1.15-41.26-1.545-61.893-.16-8.393.524-18.306 8.353-23.29 3.3-2.101 7.375-2.753 10.884-.747a13.4 13.4 0 0 1 5.02 5.387 12 12 0 0 0-1.274-.837 13.98 13.98 0 0 0-10.254-1.128 8.96 8.96 0 0 0-4.492 2.411c-1.267 1.424-1.267 3.217-1.347 5.021q-.172 3.873-.206 7.752a17.1 17.1 0 0 0 .95 6.872 11.5 11.5 0 0 0-2.116 1.985.028.028 0 0 0 .034.044c3.748-1.718 7.369-3.356 11.554-3.563a31.4 31.4 0 0 1 5.864.384 18 18 0 0 1 5.63 2.275.2.2 0 0 0 .161-.015q.977 6.453 2.138 12.876c.919 5.096 1.893 10.182 2.85 15.27.919 4.884 2.067 9.82 2.569 14.768.582 5.735-.688 11.486-.49 17.24.195 5.658 1.014 11.289 1.743 16.897q1.091 8.396 2.282 16.776c.816 5.821 1.63 11.82 3.461 17.412a.418.418 0 0 0 .817-.11 59 59 0 0 0 .026-6.063q.053.099.102.197l.033.063c.175.352.34.71.543 1.047a20.63 20.63 0 0 0 8.188 7.9c.121.188.204.408.34.583.056.072.18-.006.151-.088-.035-.102-.085-.197-.124-.298.245.117.46.276.712.382.287.12.51-.316.297-.511-.697-.64-1.332-1.355-1.998-2.034a43 43 0 0 1-.89-1.991q-.467-1.134-.87-2.292c-.086-.25-.164-.511-.244-.77.372-.11.729-.273 1.095-.409.143.397.296.793.432 1.167.366 1.01.77 2.009 1.179 3.002q.583 1.418 1.21 2.818c.205.459.424.91.645 1.36a4.8 4.8 0 0 0 .777 1.31c.06.061.143-.005.133-.078a5 5 0 0 0-.51-1.34c-.224-.49-.443-.983-.67-1.471q-.632-1.366-1.224-2.75c-.417-.976-.807-1.96-1.201-2.945-.151-.376-.295-.788-.446-1.194.291-.114.592-.198.877-.326.354-.16.709-.312 1.063-.47.671 1.743 1.353 3.48 2.108 5.192q.714 1.62 1.477 3.215a11.2 11.2 0 0 0 1.642 3.009c.064.066.154-.004.142-.083a13 13 0 0 0-1.383-3.16q-.736-1.54-1.457-3.087c-.8-1.713-1.578-3.439-2.353-5.164 4.909-2.205 9.811-4.377 14.867-6.24 2.373-.875 5.405-2.62 7.887-1.358 2.3 1.17 4.367 3.303 6.3 4.986 4.206 3.662 8.13 7.48 12.89 10.421.284.176.56-.163.43-.43a28 28 0 0 0-1.443-2.49 22.1 22.1 0 0 0 6.79.822c5.052-.32 9.877-1.783 14.82-2.747a10.18 10.18 0 0 1 7.46 1.08 56 56 0 0 1 6.059 4.454c4.4 3.391 8.897 7.087 13.998 9.374.15.067.377-.086.255-.256-.527-.734-1.13-1.415-1.715-2.107l.388.146a26.4 26.4 0 0 0 8.052 1.577c3.137.132 6.287-.23 9.419.028a19.2 19.2 0 0 1 8.123 2.729 48 48 0 0 1 6.72 4.687c2.264 1.904 1.688 5.299 1.807 8.006.283 6.467.635 12.921.921 19.385a.4.4 0 0 0 .196.315c.53.8 1.019 1.625 1.57 2.411a90 90 0 0 0 1.71 2.343c.322.427.657.846.986 1.269.372 1.65.721 3.307 1.086 4.96q-.967-1.128-1.94-2.25c-1.696-1.944-3.466-3.79-5.263-5.638-.087-.09-.214.043-.136.136 1.633 1.95 3.236 3.92 4.893 5.85q1.204 1.4 2.393 2.814c.111.132.227.26.338.392.334 1.528.647 3.06.967 4.59-.164-.192-.33-.392-.489-.58q-1.444-1.706-2.914-3.39c-1.964-2.24-4.04-4.377-6.146-6.484-.036-.037-.088.017-.056.056 1.908 2.243 3.786 4.511 5.701 6.748.942 1.1 1.886 2.199 2.816 3.309.45.537.897 1.108 1.366 1.657.38 1.847.705 3.704 1.049 5.557-.834-1.091-1.748-2.137-2.633-3.159q-1.995-2.307-4.082-4.532a137 137 0 0 0-8.614-8.41c-.076-.067-.186.041-.112.113 2.84 2.756 5.63 5.573 8.318 8.478q1.963 2.12 3.866 4.296c1.13 1.294 2.203 2.69 3.394 3.942.162.894.357 1.782.505 2.678a118.4 118.4 0 0 1 1.786 22.609 116.3 116.3 0 0 1-3.012 22.394c-.941 4.163-2.145 8.255-3.148 12.402-1.005 4.156-1.98 8.246-3.191 12.348a.341.341 0 0 0 .62.262c1.733-3.374 3.364-6.738 4.812-10.175 0 .078-.005.153-.005.231.011 2.795-.15 6.088.868 8.746 1.994 5.205 8.8 6.432 12.31 10.332 1.959 2.176 2.518 4.993 2.946 7.8.492 3.235.979 6.464 1.525 9.69 1.128 6.654 2.62 13.207 4.24 19.756a.341.341 0 0 0 .667-.09c-.252-5.884-.63-11.747-1.246-17.6.103.188.193.384.3.57 2.097 3.682 4.513 7.14 6.936 10.61 5.278 7.559 10.285 15.442 17.065 21.732a.341.341 0 0 0 .533-.412M50.938 183.316c.164 1.14.387 2.268.585 3.401q-.072.102-.146.203c-.38.54-.728 1.11-1.072 1.674-.247.404-.455.826-.689 1.234a188 188 0 0 0 1.322-6.512m-2.046 10.51c-.08.105-.155.213-.234.318q.313-1.4.623-2.805a23 23 0 0 0 1.677-2.287c.265-.422.505-.863.743-1.304.098.528.164 1.064.273 1.589a.355.355 0 0 0 .402.29c-1.189 1.384-2.375 2.747-3.484 4.2m132.565-54.87-.667 1.604c-.137.33-.275.67-.414 1.008-.394.44-.832.832-1.238 1.26.13-.321.273-.646.4-.96q.455-1.136.846-2.297c.1-.3.209-.613.31-.927a8 8 0 0 0 .806.209Zm28.44-128.645a12.6 12.6 0 0 1 8.7-.07c1.407.49 2.924 1.348 3.262 2.917a31.4 31.4 0 0 1 .3 5.474c.11 3.45.384 7.044-.498 10.414-.048.032-.057.095-.096.136a20.4 20.4 0 0 0-8.266-2.292 17.2 17.2 0 0 0-6.858.894 14 14 0 0 0-2.185.912 13 13 0 0 1-.267-1.33 12.2 12.2 0 0 1 .096-2.632c.245-2.074.554-4.144.825-6.215.227-1.732.191-3.885 1.192-5.381a8.24 8.24 0 0 1 3.796-2.827m4.915 270.007q-1.256 1.424-2.525 2.837.596-2.32 1.124-4.662l.059-.28c.218.297.421.605.641.9q.404.537.825 1.058c-.042.048-.081.1-.124.147m.451-.536-.81-.994c-.267-.326-.52-.66-.778-.991l.23-.26a6.67 6.67 0 0 1 .357-3.495c.161.229.333.45.497.667.398.526.783 1.061 1.189 1.58q.543.695 1.08 1.393c-.59.698-1.164 1.41-1.765 2.1m2.197-2.615q-.484-.629-.973-1.255c-.401-.512-.83-1.003-1.25-1.498a11 11 0 0 0-.84-.9c.194-1.014.397-2.026.559-3.046.773.878 1.55 1.752 2.319 2.635q.774.89 1.509 1.813.139.174.274.35c-.521.643-1.066 1.266-1.598 1.901m1.968-2.283c-.065-.08-.125-.164-.19-.243q-.764-.939-1.57-1.843a28.5 28.5 0 0 0-2.658-2.597c.048-.22.099-.44.137-.662.158-.907.306-1.819.456-2.73a63 63 0 0 0 2.598 3.48c.82 1.011 1.669 2.012 2.584 2.943a16 16 0 0 1-1.357 1.652m2.452-3.242c-.067.092-.141.177-.209.269-.215.364-.457.694-.693 1.032-.77-.964-1.583-1.894-2.374-2.84-.993-1.189-1.97-2.391-2.952-3.59.2-1.239.361-2.481.517-3.725 2.244 2.485 4.465 4.988 6.59 7.577-.298.422-.574.86-.879 1.277m13.797-92.602c.088.348.191.697.273 1.044.323 1.38.667 2.75 1.002 4.124-.113 1.844-.004 3.735-.08 5.533-.126 3.037-.345 6.076-.6 9.106-.491 5.856-1.09 11.704-1.378 17.576l-.427-3.184c-1.06-7.914-1.692-15.792-2.215-23.73a147 147 0 0 0 1.857-5.236c.57-1.72 1.143-3.461 1.568-5.233m-.294-27.734c-.106.39-.225.768-.329 1.16-.402 1.506-.87 3.036-1.299 4.58q-.63-2.961-1.225-5.93c-.408-2.04-.766-4.09-1.183-6.127-.104-.51-.24-1.005-.385-1.496.181-2.832.284-5.67.38-8.493q.312-9.283.62-18.567.42-13.372.805-26.747.393 13.374.806 26.747.292 9.284.62 18.567a147 147 0 0 0 1.19 16.306m26.162-123.94a13 13 0 0 1-.266 1.33 14 14 0 0 0-2.185-.912 17.2 17.2 0 0 0-6.859-.894 20.4 20.4 0 0 0-8.266 2.292c-.039-.04-.047-.104-.095-.136-.883-3.37-.608-6.964-.499-10.414a31.4 31.4 0 0 1 .3-5.474c.338-1.57 1.855-2.427 3.263-2.918a12.6 12.6 0 0 1 8.699.07 8.24 8.24 0 0 1 3.795 2.828c1.002 1.496.965 3.65 1.192 5.38.272 2.072.58 4.142.826 6.216a12.2 12.2 0 0 1 .095 2.632m24.453 114.502c.125.313.268.639.398.96-.405-.428-.844-.82-1.238-1.26-.139-.337-.276-.677-.414-1.008l-.666-1.605-.043-.102a8 8 0 0 0 .805-.209c.102.314.21.627.31.927q.392 1.16.848 2.297m128.598 41.448c.396 2.18.85 4.348 1.323 6.512-.234-.408-.442-.83-.69-1.234-.344-.564-.69-1.134-1.072-1.674l-.146-.203c.198-1.133.421-2.26.585-3.4m2.047 10.51c-1.11-1.452-2.296-2.815-3.484-4.198a.355.355 0 0 0 .402-.291c.108-.525.175-1.061.273-1.589.237.441.477.882.743 1.304a23 23 0 0 0 1.677 2.287l.623 2.805c-.08-.105-.155-.213-.234-.317"/><path fill="currentColor" d="M137.996 145.715c1.115-.9 2.373-1.571 3.448-2.54.546-.492.738-1.232 1.375-1.625a18 18 0 0 0 1.89-1.29q3.384-2.714 6.588-5.64a.161.161 0 0 1 .228.227q-3.02 3.18-6.243 6.157a15 15 0 0 0-1.447 1.474c-.51.621-1.163.645-1.809 1.056-1.283.817-2.274 1.992-3.505 2.861-.398.28-.908-.37-.525-.68m1.459 2.484c.393-.304.783-.612 1.18-.912q1.267-.957 2.517-1.936 2.385-1.873 4.763-3.757c.075-.06.181.04.108.108a88 88 0 0 1-4.586 4.058q-1.15.945-2.318 1.868c-.386.305-.78.6-1.174.893a2.3 2.3 0 0 1-1.122.623.128.128 0 0 1-.122-.16 1.9 1.9 0 0 1 .754-.785m1.995 1.643c.13-.117.28-.218.416-.327q.391-.31.779-.625.821-.666 1.626-1.352c1.059-.903 2.127-1.795 3.165-2.721.13-.116.316.067.192.192-.991.998-1.998 1.985-3.06 2.91q-.774.674-1.564 1.33-.406.338-.816.67c-.136.11-.267.234-.411.332a2.3 2.3 0 0 1-.427.162.137.137 0 0 1-.154-.2 2.2 2.2 0 0 1 .255-.37m2.331 1.144c.164-.141.359-.252.535-.378q.552-.392 1.07-.827c.336-.282.65-.59.986-.87q.53-.444 1.026-.928c.06-.058.171.02.12.092q-.388.549-.815 1.069a9 9 0 0 1-1.004.998q-.515.459-1.063.877a4 4 0 0 1-.562.402.92.92 0 0 1-.597.175.12.12 0 0 1-.083-.147c.037-.192.244-.341.387-.463m3.45.407a10 10 0 0 1 .942-.7c.105-.075.218.085.134.172a10 10 0 0 1-.834.818 3.9 3.9 0 0 1-.948.665c-.072.029-.131-.066-.096-.125a3.8 3.8 0 0 1 .802-.83m-55.282 4.222c.628-.434 1.286-.8 1.87-1.294.546-.461.975-1.018 1.51-1.49q.839-.74 1.672-1.487c2.166-1.942 4.322-3.896 6.487-5.84a.102.102 0 0 1 .144.144q-2.798 2.903-5.76 5.62a29 29 0 0 1-2.8 2.507 9.6 9.6 0 0 0-1.661 1.399 4.2 4.2 0 0 0-1.04 1.33.46.46 0 0 1-.327.359.43.43 0 0 1-.472-.192c-.227-.454-.01-.787.378-1.056m3.347 1.512q.506-.48 1.018-.955 1.088-1.001 2.18-1.998a120 120 0 0 1 4.386-3.855c.042-.034.099.02.06.06a119 119 0 0 1-4.138 4.103l-2.083 1.98c-.337.32-.68.634-1.022.95-.304.281-.619.699-1.04.785a.12.12 0 0 1-.146-.147c.109-.396.497-.653.785-.923m1.709 1.799c.106-.128.237-.242.353-.36l.665-.683c.47-.481.95-.953 1.426-1.428l2.817-2.81a.136.136 0 0 1 .192.192l-2.741 2.886c-.45.475-.898.952-1.355 1.42l-.665.682c-.118.12-.233.244-.353.361a2 2 0 0 1-.407.267.111.111 0 0 1-.151-.151 2.5 2.5 0 0 1 .22-.376m2.727.399q.46-.485.952-.938a15.4 15.4 0 0 1 2.083-1.568c.071-.046.16.066.092.12-.668.537-1.287 1.125-1.904 1.72q-.458.44-.887.91a5 5 0 0 1-.915.867c-.063.041-.168-.03-.137-.106a3.3 3.3 0 0 1 .716-1.005m2.563 1.254c.061-.062.159.035.096.096l-1.245 1.221a.05.05 0 0 1-.072-.072zm-44.305 2.421q1.412-1.258 2.922-2.4c.084-.064.196.08.113.147q-1.46 1.175-2.827 2.461c-.908.857-1.737 1.816-2.724 2.583-.048.037-.134-.01-.093-.072a15 15 0 0 1 2.61-2.719m-2.626 5.729a13 13 0 0 1 1.263-1.165q.62-.558 1.243-1.113c1.7-1.516 3.47-2.957 5.235-4.398.033-.027.08.018.047.049q-1.932 1.812-3.836 3.654c-.616.597-1.252 1.175-1.877 1.763q-.497.467-.992.937-.218.21-.44.417a2.7 2.7 0 0 1-.38.362c.057-.026.156.02.124.096a.278.278 0 0 1-.443.104c-.263-.19-.108-.51.056-.706m1.504 2.06a4 4 0 0 1 .314-.353l.695-.722q.716-.744 1.425-1.493l2.798-2.956c.03-.032.076.015.048.048l-2.674 3.08q-.659.758-1.312 1.523l-.652.764a5 5 0 0 1-.317.35 2.5 2.5 0 0 1-.418.28c-.075.05-.154-.046-.116-.116a3 3 0 0 1 .209-.405m1.358 2.365c.138-.218.296-.426.448-.635q.445-.612.922-1.2a28 28 0 0 1 2.087-2.284.076.076 0 0 1 .108.108 27 27 0 0 0-1.928 2.382q-.427.594-.82 1.21c-.14.217-.267.442-.408.658a2.3 2.3 0 0 1-.498.537.103.103 0 0 1-.17-.099 1.9 1.9 0 0 1 .259-.677m83.362 5.979c-.024-.062.08-.106.109-.046 2.285 4.604 3.647 9.604 5.265 14.458.469 1.406.202 2.45.17 3.915-.032 1.402.02 2.806.015 4.209-.008 2.719-.241 5.413-.355 8.126-.12 2.848-.118 5.7-.154 8.55a80 80 0 0 0 .091 9.164 38.8 38.8 0 0 1-.148 8.656c-.346 3.08-.255 6.183-.622 9.266a.093.093 0 0 1-.186 0c-.284-2.968-.128-5.945-.371-8.91a33.5 33.5 0 0 1-.137-8.061 65 65 0 0 0 .46-9.403c.03-2.762.103-5.527.058-8.289-.043-2.605-.299-5.202-.48-7.8-.09-1.298-.182-2.6-.338-3.893-.16-1.341-.658-2.563-.852-3.868a38 38 0 0 1 .11-3.827 33 33 0 0 0-.305-4.28 42 42 0 0 0-2.33-7.967m10.92 56.205a48 48 0 0 0-.152-6.4c-.14-2.271.732-4.196.955-6.408.223-2.216.3-4.445.377-6.67a.034.034 0 0 1 .068 0c.038 2.223.026 4.448.102 6.67.076 2.201.772 4.183.392 6.411-.169.99-.502 1.949-.674 2.94-.228 1.31-.307 2.646-.433 3.968a83 83 0 0 1-.829 6.156c-.018.104-.188.08-.183-.025.09-2.219.224-4.427.377-6.642m-47.643-35.827c-.013-.104.161-.127.183-.024.742 3.41 1.373 6.838 2.252 10.216.781 3.005-.274 6.33-.318 9.42-.099 6.82.423 13.65-.133 20.46a.085.085 0 0 1-.17 0c-.302-6.696.436-13.414-.034-20.108a27.6 27.6 0 0 0-.856-5.418 11.2 11.2 0 0 1-.52-4.425 45.8 45.8 0 0 0-.404-10.12m-27.548 33.512c-.118-2.6-.27-5.198-.43-7.797-.008-.133.188-.127.203 0 .327 2.666.655 5.33 1.031 7.99q.127.886.288 1.766c.128.71.424 1.3.616 1.982.336 1.195-.298 2.422-.475 3.6-.025.17-.264.134-.31 0-.413-1.195-1.272-2.284-1.082-3.6a12 12 0 0 0 .21-1.991 63 63 0 0 0-.051-1.95m1.966 14.129a34.7 34.7 0 0 1 .693 7.42.06.06 0 0 1-.119 0c-.323-2.458-.387-4.942-.674-7.406-.007-.057.09-.07.1-.014m-50.62 78.006c.155-.981-.017-1.943.112-2.906.111-.833.384-1.683.563-2.506.77-3.545 1.291-7.307 2.521-10.725a.085.085 0 0 1 .167.023c-.073 3.599-.926 7.261-1.472 10.813-.132.855-.189 1.743-.364 2.587-.205.984-.754 1.864-.968 2.868-.39 1.838-.643 3.704-.967 5.555-.077.442-.763.258-.676-.187.36-1.84.792-3.67 1.084-5.522m3.474 2.194c.226-1.163.291-2.333.406-3.51a31 31 0 0 1 .463-3.102c.226-1.127.576-2.216.829-3.335.025-.11.214-.088.2.027-.135 1.133-.172 2.27-.334 3.402a31 31 0 0 1-.595 3.085c-.267 1.07-.59 2.125-.76 3.217-.19 1.214-.109 2.432-.269 3.64a.44.44 0 1 1-.867-.117c.239-1.12.707-2.175.927-3.307m2.382 1.429c.137-.67.303-1.336.456-2.003q.45-1.968.86-3.942c.023-.109.18-.06.164.045q-.313 2.006-.588 4.017c-.09.659-.17 1.32-.27 1.976a3.6 3.6 0 0 1-.493 1.768.177.177 0 0 1-.293-.078 3.6 3.6 0 0 1 .164-1.783m3.523.359q.082-.524.195-1.043.221-1.016.436-2.033c.023-.11.178-.06.164.045q-.146 1.054-.286 2.11-.066.49-.16.977a2.1 2.1 0 0 1-.263.908c-.046.057-.13.018-.151-.04a2.1 2.1 0 0 1 .065-.924m11.882-39.62c.978 2.315 2.048 4.594 3.043 6.903.984 2.28 1.765 4.624 2.63 6.949.054.147-.172.234-.248.105a49 49 0 0 1-3.384-6.631 73 73 0 0 1-2.32-7.208c-.045-.162.21-.281.28-.118m3.334-.187c1.99 4.56 4.447 8.878 6.695 13.31a.085.085 0 0 1-.147.086 65.3 65.3 0 0 1-6.714-13.326c-.037-.094.125-.164.166-.07m3.961 1.236a119 119 0 0 0 2.478 4.193c.425.692.856 1.38 1.285 2.07a13.3 13.3 0 0 1 1.178 1.841 14.3 14.3 0 0 0 .96 2.2 56 56 0 0 0 1.305 2.058c.453.677.935 1.333 1.41 1.995a3.24 3.24 0 0 1 .885 1.68.143.143 0 0 1-.213.123c-.58-.275-.852-.98-1.151-1.522-.393-.71-.77-1.43-1.172-2.135a104 104 0 0 0-1.235-2.1 17 17 0 0 0-1.485-1.893 12 12 0 0 1-1.023-1.93 178 178 0 0 1-1.13-2.162c-.744-1.445-1.473-2.898-2.219-4.343-.043-.084.08-.158.127-.075m8.584 8.659q1.523 1.93 3.054 3.852a19.8 19.8 0 0 1 2.804 3.921.097.097 0 0 1-.15.117 19.7 19.7 0 0 1-2.962-3.8q-1.405-2.02-2.826-4.028c-.033-.047.044-.108.08-.062m6.756 4.113q.801.85 1.605 1.699.396.42.772.856a2.7 2.7 0 0 1 .647.897.086.086 0 0 1-.125.096 2.8 2.8 0 0 1-.804-.76 28 28 0 0 1-.75-.877q-.731-.897-1.465-1.79c-.068-.084.043-.202.12-.121m106.374 11.791c5.517-4.446 11.472-8.31 17.29-12.343.15-.105.287.138.142.244-5.707 4.169-11.296 8.528-17.295 12.277-.106.066-.238-.096-.137-.178m-12.364 3.329c7.545-4.83 15.197-9.48 22.59-14.546.037-.025.07.033.035.059a169 169 0 0 1-22.557 14.604.068.068 0 0 1-.068-.117m-6.769-.209a12.5 12.5 0 0 1 2.139-1.26q1.23-.681 2.453-1.376 2.294-1.302 4.56-2.651a304 304 0 0 0 9.284-5.706c.043-.027.082.04.04.069-3.02 2.02-6.074 3.996-9.186 5.873q-2.258 1.361-4.548 2.67-1.22.7-2.448 1.387a11.5 11.5 0 0 1-2.212 1.135c-.078.024-.148-.085-.082-.141m-1.071-3.59c1.006-.404 2.034-.756 3.054-1.125.03-.01.051.038.022.052-.963.431-1.92.884-2.896 1.282a27 27 0 0 1-3.047 1.148.051.051 0 0 1-.04-.093 26 26 0 0 1 2.907-1.264m-7.986 1.485c.54-.107 1.08-.207 1.62-.31a.057.057 0 0 1 .03.11c-.528.147-1.055.298-1.583.442a13 13 0 0 1-1.62.31.057.057 0 0 1-.03-.109 13 13 0 0 1 1.583-.443m-20.453 49.464a16 16 0 0 0 .926-1.543 3.4 3.4 0 0 1 1.022-.847 19 19 0 0 0 2.844-2.12c1.643-1.455 3.233-2.97 4.826-4.48q4.776-4.53 9.432-9.184a.045.045 0 0 1 .064.064q-4.672 4.765-9.466 9.409c-1.577 1.526-3.173 3.03-4.737 4.569a18.3 18.3 0 0 0-2.23 2.578c-.695.992-1.61 1.066-2.55 1.723-.107.074-.205-.081-.13-.169m-2.377 2.327c.024-.029.063.011.04.04-3.063 3.747-6.078 7.54-9.27 11.18-.034.038-.087-.017-.056-.057 2.991-3.804 6.165-7.466 9.286-11.164M56.575 180.322l1.197-1.417q1.272-1.505 2.53-3.022 2.486-2.984 5.005-5.938c.062-.072.193.026.133.103q-2.317 3.003-4.666 5.98c-.793 1.003-1.588 2.006-2.374 3.016l-1.144 1.469a4 4 0 0 1-1.313 1.36.172.172 0 0 1-.25-.19 3.35 3.35 0 0 1 .882-1.361m-.155 5.113c.417-.466.872-.898 1.3-1.354a38 38 0 0 0 2.397-3.334 78 78 0 0 1 5.164-5.892c.07-.077.175.034.112.112-1.62 2.004-3.11 4.109-4.728 6.114a32 32 0 0 0-2.518 3.052c-.332.532-.61 1.103-.914 1.652-.263.474-.512.98-1.093 1.07a.207.207 0 0 1-.25-.142 1.44 1.44 0 0 1 .53-1.278m2.035 2.3q.766-.95 1.555-1.882c1.055-1.246 2.133-2.456 3.3-3.598.031-.032.074.014.047.048-1.019 1.246-2.063 2.471-3.077 3.722q-.763.94-1.504 1.9a11 11 0 0 1-1.53 1.833.091.091 0 0 1-.143-.11 9 9 0 0 1 1.352-1.913m-9.93 26.338q1.698-1.954 3.497-3.817a89 89 0 0 1 7.616-7.022c.044-.037.108.024.064.064a114 114 0 0 0-7.335 7.115q-1.728 1.84-3.361 3.767a43 43 0 0 1-3.37 3.916.08.08 0 0 1-.125-.096 22.6 22.6 0 0 1 3.014-3.927m-2.442 9.611q.712-.99 1.44-1.968a62 62 0 0 1 2.924-3.649 34.6 34.6 0 0 1 7.008-6.288c.043-.028.081.04.04.069a34.7 34.7 0 0 0-6.938 6.492 82 82 0 0 0-2.973 3.812q-.69.934-1.365 1.88a7 7 0 0 1-1.246 1.577c-.044.033-.107-.022-.092-.07a7.4 7.4 0 0 1 1.202-1.855m.35 6.574a33 33 0 0 1 2.573-3.29 13 13 0 0 0 .848-1.058 7 7 0 0 0 .512-1.092c.276-.6.907-.966 1.34-1.456 1.959-2.223 3.88-4.448 5.992-6.53a.034.034 0 0 1 .048.047A71 71 0 0 0 52 223.454a5.4 5.4 0 0 0-.635.99 1.9 1.9 0 0 1-.498.712 8 8 0 0 0-.788.613 7.5 7.5 0 0 0-.78 1.113c-.774 1.23-1.436 2.533-2.24 3.742a.37.37 0 0 1-.41.167.23.23 0 0 1-.16-.093.38.38 0 0 1-.056-.44m.05 6.339c.473-.59.902-1.21 1.341-1.825.84-1.174 1.633-2.38 2.492-3.54a144 144 0 0 1 5.16-6.516c.042-.051.111.02.072.072a325 325 0 0 0-5.139 6.792c-.81 1.095-1.66 2.16-2.442 3.276-.39.556-.792 1.105-1.137 1.69a7 7 0 0 1-1.105 1.597c-.075.071-.234 0-.189-.11a5.9 5.9 0 0 1 .947-1.436m.294 5.923c.44-.56.88-1.122 1.309-1.692a60 60 0 0 0 2.2-3.152q2.108-3.221 4.29-6.39a.045.045 0 0 1 .078.045 64 64 0 0 1-4.247 6.555 231 231 0 0 0-2.266 3.113 18 18 0 0 1-2.247 2.998.08.08 0 0 1-.124-.096 9 9 0 0 1 1.007-1.38m8.187-4.243c.03-.041.098-.003.069.04a172 172 0 0 1-3.244 4.659c-.025.035-.083.003-.059-.034a172 172 0 0 1 3.234-4.665m-3.709 12.619c1.017-1.531 2.062-3.04 3.107-4.552.046-.065.151-.006.108.063a287 287 0 0 1-2.986 4.729 40 40 0 0 1-3.062 4.491c-.054.062-.138-.017-.107-.082a40 40 0 0 1 2.94-4.65m-1.018 9.311q.777-1.085 1.522-2.193a151 151 0 0 0 2.919-4.471.057.057 0 0 1 .097.057 68 68 0 0 1-2.769 4.655q-.732 1.114-1.495 2.208a11.6 11.6 0 0 1-1.616 2.062.097.097 0 0 1-.151-.117 15.5 15.5 0 0 1 1.493-2.201m3.757 1.743a.045.045 0 0 1 .064.063 20.4 20.4 0 0 0-2.265 3.415.045.045 0 0 1-.083-.035 8.5 8.5 0 0 1 2.284-3.444m.032 7.354.598-.998c.064-.106.232-.008.166.097l-.611.99q-.309.493-.642.971a.045.045 0 0 1-.078-.045c.183-.343.368-.682.567-1.015m115.897-122.389q.524-1.077 1.052-2.155c.73-1.484 1.483-2.958 2.225-4.436.052-.105.204-.013.156.091-.686 1.478-1.363 2.962-2.06 4.434-.342.723-.69 1.444-1.035 2.165a7 7 0 0 1-1.104 2.047c-.043.04-.132.015-.126-.052a6.8 6.8 0 0 1 .892-2.094m14.69 6.412a61 61 0 0 0 1.928-4.576c.03-.08.158-.048.13.036a34.5 34.5 0 0 1-4.144 8.909.045.045 0 0 1-.078-.046c.7-1.452 1.485-2.86 2.164-4.323m-4.9 4.297a93 93 0 0 0 1.537-2.803q1.52-2.86 2.772-5.85c.027-.066.136-.039.109.03q-1.156 2.938-2.563 5.768a56 56 0 0 1-1.518 2.813q-.41.716-.836 1.423a5.5 5.5 0 0 1-.833 1.203.063.063 0 0 1-.104-.06 14.4 14.4 0 0 1 1.436-2.524m-3.965 2.802q.323-.487.636-.98.607-.957 1.172-1.939a60 60 0 0 0 2.15-4.064c.029-.06.114-.008.088.051a51 51 0 0 1-2.062 4.2q-.566 1.023-1.177 2.02-.305.5-.62.99a2.4 2.4 0 0 1-.578.725c-.065.045-.14-.029-.125-.096a3 3 0 0 1 .516-.907m-.733-2.088c.096-.088.24.054.144.144a15 15 0 0 0-1.477 1.597c-.458.577-.875 1.187-1.304 1.786a.045.045 0 0 1-.078-.046 11.3 11.3 0 0 1 2.715-3.481m38.162 81.929c.009-.079.133-.08.124 0a942 942 0 0 1-1.604 13.825c-.006.05-.084.05-.079 0a942 942 0 0 1 1.559-13.825m-2.398-.746c.008-.044.071-.024.065.018-.625 4.456-1.215 8.923-2.112 13.335-.013.061-.119.049-.111-.015.526-4.475 1.36-8.906 2.158-13.338m-69.108 31.796c.01-.057.096-.032.087.024-.663 4.287-1.292 8.58-2.11 12.84-.01.059-.094.033-.087-.023.59-4.298 1.366-8.567 2.11-12.84M215.05 74.393a7.4 7.4 0 0 1 2.785.414 26 26 0 0 1 2.65 1.474 61 61 0 0 1 6.333 3.188.08.08 0 0 1-.061.145 54 54 0 0 1-5.962-2.178c-.977-.398-1.98-.552-2.954-.906-.95-.345-1.827-.909-2.758-1.304-2.085-.885-4.847-.108-7.014.18-2.155.288-4.308.583-6.468.842-.025.003-.03-.04-.006-.045a116 116 0 0 1 13.455-1.81m-15.414 1.98q.67-.1 1.347-.155c.007 0 .007.01 0 .012q-.694.089-1.38.224c-.442.088-.876.207-1.322.273a.034.034 0 0 1-.018-.066 7.6 7.6 0 0 1 1.373-.288"/><path fill="currentColor" d="M201.243 80.176c1.92.078 3.832.288 5.753.375q1.443.063 2.888.049a16 16 0 0 1 2.89-.263 3 3 0 0 1 .678.278 3.5 3.5 0 0 0 1.547.143c1.037-.035 2.075-.073 3.112-.129 1.552-.083 3.098-.224 4.647-.347-1.169-.267-2.343-.517-3.513-.768a32 32 0 0 0-5.015-.862c-1.46-.075-2.628.233-4.067-.251a10.55 10.55 0 0 0-5.438-.433c-.063.011-.092-.084-.027-.098 1.548-.343 3.125-.417 4.694-.61a6.65 6.65 0 0 1 4.18.662 20.6 20.6 0 0 0 5.052 1.326c1.757.331 3.52.7 5.29.957a.163.163 0 0 1 0 .311 55 55 0 0 1-5.803.598c-.888.052-1.778.103-2.667.114a5.4 5.4 0 0 0-1.992.182 3 3 0 0 1-.677.277 12.7 12.7 0 0 1-2.891-.376c-.963-.085-1.926-.162-2.888-.25a45 45 0 0 1-5.767-.785.051.051 0 0 1 .014-.1m3.182 3.863a55.5 55.5 0 0 0 9.017.521 13 13 0 0 0 2.448-.287c.39-.101.71-.345 1.081-.458a4.2 4.2 0 0 1 1.055.058 26.5 26.5 0 0 0 4.626-.876.04.04 0 0 1 .021.077c-1.481.582-2.975.916-4.488 1.377-.355.108-.702.399-1.072.409-.322.009-.668-.131-.998-.146-.83-.037-1.675.085-2.506.128a29.3 29.3 0 0 1-9.197-.703c-.054-.015-.046-.106.013-.1m6.169 3.159a.072.072 0 0 1 0 .145.072.072 0 0 1 0-.145m-3.714-54.602a13.2 13.2 0 0 1 9.28.244.04.04 0 0 1-.021.076 25 25 0 0 0-9.235-.142c-.11.015-.111-.144-.025-.178m16.961 232.766a2.6 2.6 0 0 0-.409-.381c-.303-.255-.624-.488-.928-.741-.605-.505-1.146-1.076-1.711-1.623a19.8 19.8 0 0 0-3.725-2.744c-.073-.043-.163.065-.093.12 1.2.936 2.357 1.926 3.567 2.847a12.7 12.7 0 0 1 1.792 1.57c.25.279.475.58.706.875a3 3 0 0 0 .405.473 1.1 1.1 0 0 0 .43.156.086.086 0 0 0 .105-.105 1 1 0 0 0-.14-.447m1.056-2.612q-.354-.357-.717-.707-.745-.718-1.523-1.4a34 34 0 0 0-3.19-2.423c-.056-.037-.125.051-.073.093 1.045.84 2.039 1.737 3.027 2.641q.724.662 1.417 1.357.356.356.703.721c.175.184.393.5.672.488a.114.114 0 0 0 .11-.11c.026-.261-.259-.49-.426-.66m1.504-2.782-.59-.443c-.392-.295-.78-.599-1.18-.883-.799-.569-1.603-1.13-2.404-1.693-.031-.023-.07.027-.041.053.728.659 1.453 1.321 2.185 1.977.355.319.726.621 1.09.93l.562.478a.76.76 0 0 0 .608.228.104.104 0 0 0 .098-.129.72.72 0 0 0-.328-.518m.733-4.997c-.52-.306-.965-.699-1.454-1.045a14 14 0 0 0-1.489-.889 8.6 8.6 0 0 0-1.614-.713c-.098-.03-.14.101-.066.155.471.344.972.614 1.475.91.498.294.986.602 1.49.886.243.136.511.238.746.388a8 8 0 0 1 .682.494c.446.356.798.968 1.338 1.177a.308.308 0 0 0 .345-.448c-.32-.457-.988-.64-1.453-.915m1.648-4.089a2.6 2.6 0 0 0-.837-.496c-.274-.135-.547-.285-.829-.403a52 52 0 0 0-1.734-.693c-.122-.046-.185.137-.085.202.527.344 1.055.693 1.603 1.003.265.149.54.282.81.422a2.5 2.5 0 0 0 .904.37c.222.02.292-.264.168-.405m.468-4.671a11 11 0 0 0-.72-.398l-1.475-.735a.093.093 0 0 0-.094.162l1.334.975c.223.163.45.312.686.457a2 2 0 0 0 .743.377.238.238 0 0 0 .204-.356 2 2 0 0 0-.678-.482m.882-3.515a11 11 0 0 0-.32-.24 3.5 3.5 0 0 0-.636-.334 6.5 6.5 0 0 0-1.39-.403.077.077 0 0 0-.06.14c.406.228.774.503 1.159.762.186.126.361.274.554.39q.153.093.303.191a.66.66 0 0 0 .383.157.275.275 0 0 0 .262-.344.6.6 0 0 0-.255-.319m-.467-3.205c-.047-.03-.092-.062-.142-.087-.057-.029-.12-.05-.18-.075l-.616-.257a.143.143 0 0 0-.17.084.145.145 0 0 0 .059.18l.57.34c.05.03.1.063.153.088.055.026.113.046.17.068.054.02.108.045.163.063a.174.174 0 0 0 .223-.089c.068-.162-.12-.245-.23-.315m13.206-56.255a24 24 0 0 0-.526-4.324 23 23 0 0 0-1.71-3.95 94 94 0 0 0-2.304-4.369c-.046-.082-.188-.027-.155.066 1.02 2.922 2.128 5.864 3.414 8.68 1.267 2.776.461 5.979 1.67 8.782.119.277.489.061.45-.19-.25-1.585-.716-3.075-.84-4.695m2.195-6.694a17.4 17.4 0 0 0-.985-2.444c-.033-.07-.146-.02-.124.052.252.83.467 1.67.71 2.502.241.83.45 1.684.763 2.492.029.074.154.072.15-.02a10.7 10.7 0 0 0-.514-2.582m2.257 8.756-.266-1.049c-.086-.338-.203-.663-.32-.992-.12-.34-.209-.692-.308-1.038a.127.127 0 0 0-.246.068c.06.353.131.705.17 1.061.04.355.077.705.148 1.055l.207 1.024a2 2 0 0 0 .354.97.22.22 0 0 0 .364-.096 1.97 1.97 0 0 0-.102-1.003m2.939-2.914c-.13-.44-.278-.876-.423-1.312l-.9-2.718a.085.085 0 0 0-.164.045l.757 2.758c.122.442.239.887.375 1.325a5.4 5.4 0 0 0 .511 1.308.077.077 0 0 0 .143-.039 5.3 5.3 0 0 0-.298-1.367m3.294-.915a6 6 0 0 0-.279-.645l-.325-.587c-.114-.205-.256-.383-.371-.587-.033-.057-.132-.019-.109.046.075.212.111.428.188.639l.234.65a5 5 0 0 0 .289.615 1.7 1.7 0 0 0 .374.557.095.095 0 0 0 .16-.066 1.6 1.6 0 0 0-.161-.622m-23.217-4.989c-.702 2.592-1.642 5.082-2.568 7.6-.453 1.232-.837 2.48-1.26 3.723a18 18 0 0 0-1.25 3.66.351.351 0 0 0 .593.247 13.4 13.4 0 0 0 1.639-3.491 37 37 0 0 0 1.388-3.688c.78-2.599 1.292-5.292 1.835-7.947a.195.195 0 0 0-.377-.104m-4.482 4.458c-.37.679-.772 1.349-1.107 2.046-.337.701-.644 1.419-.965 2.128-.321.711-.624 1.43-.934 2.147l-.465 1.074a4.4 4.4 0 0 0-.395 1.022.333.333 0 0 0 .605.255 4.7 4.7 0 0 0 .494-1.058l.457-1.08c.294-.695.595-1.389.879-2.09.291-.721.596-1.44.872-2.167.275-.722.48-1.475.715-2.211a.085.085 0 0 0-.156-.066m-4.568 2.337a54 54 0 0 0-1.225 2.287 9 9 0 0 0-.488 1.128 2.3 2.3 0 0 0-.149.633c-.004.122.002.355.134.418.306.146.568-.502.654-.693a11 11 0 0 0 .414-1.16c.267-.837.565-1.659.91-2.467.07-.165-.156-.312-.25-.146m-12.83-28.161c-2.706-2.195-5.642-4.084-8.496-6.079-.047-.033-.106.043-.062.08a54.5 54.5 0 0 0 8.456 6.132c.08.045.18-.07.102-.133m5.639-.332a2.5 2.5 0 0 0-.902-.62q-.604-.316-1.199-.651-1.186-.67-2.343-1.396a42 42 0 0 1-4.522-3.271c-.067-.055-.162.036-.096.096a43 43 0 0 0 4.292 3.416q1.122.78 2.303 1.463.626.36 1.264.7a2.56 2.56 0 0 0 1.115.416c.07 0 .136-.089.088-.153m2.616-1.282c-.716-.413-1.47-.745-2.222-1.09q-1.13-.518-2.222-1.112a.085.085 0 0 0-.086.147 17.3 17.3 0 0 0 4.465 2.21.085.085 0 0 0 .065-.156m46.583-7.539c-1.813-1.201-3.8-2.152-5.72-3.168a.051.051 0 0 0-.05.088c1.877 1.093 3.732 2.276 5.71 3.182a.06.06 0 0 0 .06-.102m3.568-.283a29 29 0 0 0-2.915-1.736l-3.036-1.529a.127.127 0 0 0-.129.22l2.933 1.706a29 29 0 0 0 3.053 1.5.093.093 0 0 0 .094-.161"/></svg>