<svg xmlns="http://www.w3.org/2000/svg" data-name="help" viewBox="0 0 777.871 786.69"><path fill="currentColor" d="M682.208 148.338c-2.627.765-5.286 1.435-7.867 2.343q-3.723 1.31-7.41 2.715-7.458 2.861-14.753 6.114-7.36 3.293-14.58 6.893a160 160 0 0 1-14.547 6.833c-5.356 2.027-11.736 3.089-17.312 1.4-.035-.01-.049.043-.015.055a24.8 24.8 0 0 0 14.87.452c5.203-1.348 9.957-3.732 14.734-6.144 9.745-4.92 19.711-9.362 29.8-13.525q4.266-1.76 8.565-3.44c2.875-1.133 5.684-2.41 8.551-3.563.08-.032.051-.159-.036-.133m20.345 13.112a31.8 31.8 0 0 1-9.486 3.23c-1.643.33-3.288.584-4.913 1.005a85 85 0 0 0-4.995 1.486 96 96 0 0 0-10.172 3.73c-3.216 1.466-6.591 2.553-9.79 4.078-11.87 5.66-22.535 13.447-33.955 19.916a75.3 75.3 0 0 1-19.878 8.254c-.042.01-.024.07.017.063a65 65 0 0 0 9.393-2.316c2.955-.997 5.807-2.296 8.65-3.572a137 137 0 0 0 16.895-9.605c2.726-1.726 5.442-3.47 8.182-5.174 2.866-1.783 5.711-3.668 8.698-5.242a87 87 0 0 1 9.973-4.412c1.67-.629 3.385-1.129 5.092-1.653 1.775-.546 3.457-1.348 5.173-2.052 3.621-1.486 7.312-2.616 11.043-3.78 3.445-1.074 7.008-1.977 10.097-3.914a.024.024 0 0 0-.024-.042m2.682 10.604a39.5 39.5 0 0 0-6.757 1.697c-2.13.842-4.102 1.983-6.188 2.901a12.3 12.3 0 0 0-2.628 1.852 64 64 0 0 0-2.62 2.262c-1.731 1.556-3.437 3.122-5.03 4.823a28.4 28.4 0 0 0-4.605 6.12c-.016.03.027.07.05.039 1.766-2.252 3.38-4.604 5.364-6.678a31.4 31.4 0 0 1 6.828-5.497 41 41 0 0 0 3.573-2.138 24 24 0 0 1 3.897-2.079c1.292-.606 2.624-1.116 3.934-1.68a30.6 30.6 0 0 1 4.197-1.567.028.028 0 0 0-.015-.055m-27.281 15.216c-4.284 5.378-6.811 11.778-8.36 18.43a.106.106 0 0 0 .204.056c2.575-6.198 4.347-12.87 8.194-18.456.016-.022-.02-.051-.038-.03m-12.028 85.302a30.6 30.6 0 0 1-5.164-8.486 33.5 33.5 0 0 1-2.053-9.933c-.592-7.574.78-14.974 2.543-22.31a93 93 0 0 1 3.78-12.01c.01-.026-.034-.044-.045-.019a95.2 95.2 0 0 0-6.824 21.976 54.5 54.5 0 0 0-.953 11.703 32.1 32.1 0 0 0 2.286 10.219 21.55 21.55 0 0 0 6.263 9.026.118.118 0 0 0 .167-.166m.477 2.328c-1.216-1.142-2.47-2.229-3.573-3.486a19.2 19.2 0 0 1-2.813-4.212c-.016-.033-.072-.01-.06.025a17 17 0 0 0 2.484 4.487 11.3 11.3 0 0 0 3.854 3.326c.087.042.186-.067.108-.14m-16.775-55.592c-.003-.052-.083-.053-.08 0a87.5 87.5 0 0 1-1.09 17.016c-.404 2.636-1.487 5.337-1.177 8.02a27.5 27.5 0 0 0 .665 3.75 17 17 0 0 1 .756 4.445c-.002.151.209.14.227 0 .36-2.738-.323-5.47-.028-8.195.149-1.375.132-2.728.219-4.105.086-1.377.237-2.742.392-4.112a90 90 0 0 0 .116-16.82m-41.583-116.721c-.067.007-.131-.003-.197.01a1.3 1.3 0 0 0-.206.046c-.138.05-.272.114-.407.17l-.394.165a1 1 0 0 0-.191.095 2 2 0 0 0-.165.133.053.053 0 0 0 .038.09 2 2 0 0 0 .198-.016 1 1 0 0 0 .202-.062l.41-.16c.133-.052.268-.1.399-.156a1.4 1.4 0 0 0 .183-.109 2 2 0 0 0 .159-.137.04.04 0 0 0-.03-.069m9.503-.262c-.994.034-2.012.133-3.005.084-.57-.028-.999-.376-1.562-.364a11 11 0 0 0-1.443.378c-1.022.153-2.093.084-3.124.194a.008.008 0 0 0 0 .016c1.03.054 2.101-.086 3.124.023a11 11 0 0 0 1.443.3c.54-.01.922-.358 1.454-.432a27 27 0 0 1 3.113-.098c1.042-.02 2.083-.073 3.124-.12a.016.016 0 0 0 0-.032c-1.041.01-2.083.015-3.124.05M650.52 84.26a8.9 8.9 0 0 0-3.917-.276c-1.47.06-2.924.237-4.397.207a12.6 12.6 0 0 0-2.12-.011c-.685.1-1.352.397-2.03.56-1.48.354-2.977.627-4.453 1.008-.026.007-.014.043.011.04a38 38 0 0 1 4.52-.475c.653-.016 1.303.096 1.952.073a9.4 9.4 0 0 0 1.902-.402 27.4 27.4 0 0 1 4.289-.627c1.407-.119 2.822.149 4.212.017.053-.005.092-.086.03-.114m3.954.763a1 1 0 0 0-.225-.208 1.4 1.4 0 0 0-.267-.163 4 4 0 0 0-.638-.213 3.3 3.3 0 0 0-.646-.057c-.223-.005-.444-.019-.666-.026-.05-.002-.062.079-.012.088a3.3 3.3 0 0 1 .627.158c.19.072.374.163.566.232.19.068.383.13.575.197a2 2 0 0 0 .293.073 1.3 1.3 0 0 0 .323.04c.055-.002.109-.068.07-.121m-3.116.717a5 5 0 0 0-1.281-.44 8.6 8.6 0 0 0-1.401-.124 13.2 13.2 0 0 0-2.789.295.033.033 0 0 0 .009.064 20 20 0 0 1 2.728.102c.451.05.902.097 1.353.153a13 13 0 0 0 1.35.063c.058.001.087-.088.031-.113m-11.235-39.325-.118.118.006.006.118-.118Zm16.626.017c-2.305-1.399-5.076-1.014-7.649-.979a16 16 0 0 0-2.134.055 4.8 4.8 0 0 0-.996.345 9 9 0 0 1-1.095.206 75 75 0 0 1-4.543.833c-.059.008-.045.107.014.103 1.389-.08 2.769-.155 4.16-.125.424.01.857-.025 1.28-.004.331.017.63.118.96.141a6.7 6.7 0 0 0 1.932-.286 21.4 21.4 0 0 1 8.009-.14.082.082 0 0 0 .062-.149m28.29-10.131a7.8 7.8 0 0 0-3.43-.897c-1.474-.11-2.922-.206-4.39-.393a20.5 20.5 0 0 0-4.644.435c-1.549.157-3.094.307-4.64.502-.044.006-.048.074 0 .073 1.545-.026 3.095-.065 4.64-.045.664.01 1.327.055 1.99.085a12 12 0 0 0 1.991.17 36 36 0 0 1 4.167-.493 15 15 0 0 1 4.282.645.045.045 0 0 0 .034-.082M683.172 78.9a23 23 0 0 0-4.31-.694c-1.567-.124-3.182-.063-4.73-.34a4.9 4.9 0 0 0-1.75-.204c-.506.106-.978.29-1.508.35-.331.037-.666.053-.998.084a35 35 0 0 0-4.314.693.037.037 0 0 0 .01.072q2.315-.156 4.637-.26a6.1 6.1 0 0 1 1.87.098 4.2 4.2 0 0 0 1.898-.103c2.995-.535 6.171.267 9.184.391a.045.045 0 0 0 .011-.087m-.237-.92a10.2 10.2 0 0 0-2.494-.315 21 21 0 0 0-2.588.056.06.06 0 0 0 0 .121c.845.018 1.694.057 2.538.105.844.049 1.683.17 2.529.145a.057.057 0 0 0 .015-.112m27.502-27.237c-2.199-1.118-4.928-1.025-7.325-1.03-.654-.002-1.306-.017-1.959-.016a6.6 6.6 0 0 0-1.788.499c-1.374.403-2.664 1.037-4.014 1.505a.04.04 0 0 0 .021.078c1.208-.28 2.442-.432 3.666-.63.37-.06.753-.165 1.125-.197a8 8 0 0 0 .885.01 7 7 0 0 0 .793-.315c.31-.108.628-.2.946-.283a11.6 11.6 0 0 1 3.757-.295 20.4 20.4 0 0 1 3.84.8c.073.02.124-.09.053-.126m4.11 29.058a19.5 19.5 0 0 0-4.334-.676c-1.45-.173-2.893-.457-4.345-.592-.705-.065-1.453-.177-2.158-.187a6.1 6.1 0 0 0-1.919.563c-.682.192-1.395.282-2.082.462a18 18 0 0 0-2.315.843c-.093.04-.06.187.043.157a15.7 15.7 0 0 1 4.441-.822 10 10 0 0 0 2.019.181c.711-.11 1.405-.218 2.125-.274a23.7 23.7 0 0 1 4.191-.031 31 31 0 0 0 4.317.504.065.065 0 0 0 .017-.128m-3.331 1.124a34 34 0 0 1-6.206.04 10.1 10.1 0 0 0-2.84.054q-1.544.178-3.098.207a.032.032 0 0 0 0 .065c1.988.21 4.073.776 6.052.368 2.003-.413 4.079-.364 6.098-.694.023-.004.017-.04-.006-.04m19.928 109.119a2.3 2.3 0 0 0-.3-.31c-.233-.206-.462-.412-.708-.603q-.727-.564-1.453-1.13c-.052-.04-.124.025-.075.075q.638.654 1.274 1.31c.21.216.433.415.657.617a3 3 0 0 0 .339.272.76.76 0 0 0 .38.174.074.074 0 0 0 .073-.073.7.7 0 0 0-.187-.332m2.846.758c-.183-.2-.376-.39-.57-.581q-.565-.556-1.138-1.105a30 30 0 0 0-2.38-2.103.037.037 0 0 0-.052.052c.711.784 1.469 1.517 2.223 2.26q.55.542 1.093 1.09c.191.193.38.387.578.573a1.6 1.6 0 0 0 .547.396.05.05 0 0 0 .06-.06 1.5 1.5 0 0 0-.36-.522m.526-1.658c-.078-.1-.152-.206-.24-.299q-.254-.269-.51-.536c-.34-.356-.709-.687-1.067-1.026a.024.024 0 0 0-.035.035c.317.38.625.769.961 1.132l.488.528c.087.093.186.174.28.258a3 3 0 0 0 .266.227c.035.023.076-.022.056-.055a3 3 0 0 0-.199-.264m2.985 2.872a1 1 0 0 0-.084-.114 2 2 0 0 0-.194-.223q-.202-.212-.421-.407a7 7 0 0 0-.924-.7c-.058-.036-.108.053-.054.092a7 7 0 0 1 .876.73q.2.195.383.405c.062.072.121.147.187.216l.087.094a.6.6 0 0 0 .119.078.045.045 0 0 0 .065-.05 1 1 0 0 0-.04-.12m1.046-1.327a95 95 0 0 0-2.427-2.348.028.028 0 0 0-.04.04 95 95 0 0 0 2.307 2.468 28 28 0 0 0 2.419 2.356.04.04 0 0 0 .057-.057 28 28 0 0 0-2.316-2.46m3.34 1.721a50 50 0 0 0-1.491-1.62c-.035-.036-.102.013-.07.054.438.573.88 1.138 1.344 1.69a15 15 0 0 0 1.495 1.618c.032.029.09-.009.063-.05a15 15 0 0 0-1.34-1.692m3.931 2.371a4 4 0 0 0-.295-.242c-.111-.077-.22-.157-.333-.23a4.3 4.3 0 0 0-.704-.334c-.026-.01-.048.03-.027.048a5 5 0 0 0 .602.48 5 5 0 0 0 .698.355c.046.02.105-.037.059-.077m-12.548-27.513c-.742-.634-1.55-1.186-2.302-1.81a23 23 0 0 1-2.135-2.015c-.047-.05-.12.024-.075.074a23 23 0 0 0 2.099 2.109 11 11 0 0 0 2.368 1.699c.035.017.078-.029.045-.057m4.831 1.535c-.704-.62-1.486-1.153-2.226-1.73q-1.115-.868-2.2-1.777a85 85 0 0 1-4.213-3.78.02.02 0 0 0-.029.029 52 52 0 0 0 4.146 3.957q1.027.877 2.099 1.699a19.6 19.6 0 0 0 2.374 1.665c.04.022.085-.032.05-.063m3.203.087c-3.12-2.538-6.219-5.07-9.147-7.832a.049.049 0 0 0-.069.07 60 60 0 0 0 9.171 7.82c.034.023.077-.031.045-.057m2.8.049c-.58-.51-1.258-.928-1.872-1.4q-1.053-.806-2.07-1.659-1.915-1.602-3.704-3.346a.032.032 0 0 0-.046.046 60 60 0 0 0 3.711 3.438q.939.795 1.91 1.55a17.5 17.5 0 0 0 1.992 1.473c.063.035.136-.052.08-.102m2.484-.37a8 8 0 0 0-1.336-1.051q-.76-.57-1.486-1.18a40 40 0 0 1-2.66-2.439c-.04-.04-.101.021-.063.064a31 31 0 0 0 2.648 2.588q.693.596 1.416 1.154a5.6 5.6 0 0 0 1.433.946c.05.018.077-.048.048-.081m1.684-.637a6 6 0 0 0-.84-.672q-.47-.334-.942-.666-.952-.665-1.859-1.391c-.044-.035-.106.023-.063.063q.865.786 1.776 1.518a7.5 7.5 0 0 0 1.876 1.236c.052.02.086-.053.052-.088m.836-1.546a6 6 0 0 0-.919-.806q-.504-.349-1.009-.696c-.049-.034-.109.043-.064.083l.92.812a5 5 0 0 0 .476.368 5 5 0 0 0 .527.329.057.057 0 0 0 .069-.09m-51.208-4.334a7 7 0 0 0-1.305-.273c-.416-.063-.832-.131-1.25-.186l-2.642-.351c-.018-.003-.023.028-.005.031q1.31.256 2.623.505a13 13 0 0 0 2.566.37.049.049 0 0 0 .013-.096m3.52-.741c-1.011-.362-2.076-.546-3.115-.812a134 134 0 0 1-3.11-.84c-.066-.018-.09.08-.027.103 1.028.385 2.065.719 3.124 1.009a15.4 15.4 0 0 0 3.114.643c.062.004.067-.084.014-.103m2.16-1.232a3.7 3.7 0 0 0-.69-.1 5 5 0 0 1-.674-.157c-.411-.119-.807-.293-1.214-.429-.843-.281-1.69-.548-2.533-.833-.055-.018-.076.066-.024.086.833.317 1.667.626 2.518.89.41.127.83.209 1.238.339a5.5 5.5 0 0 1 .722.273 2.8 2.8 0 0 0 .569.252.167.167 0 0 0 .088-.32m1.876-1.087a4.5 4.5 0 0 0-1.326-.413c-.464-.114-.933-.197-1.402-.286a.028.028 0 0 0-.015.054c.45.156.899.317 1.357.45a4.5 4.5 0 0 0 1.358.3.057.057 0 0 0 .029-.105m2.459-1.525a1.9 1.9 0 0 0-.713-.151 5 5 0 0 0-.722.052c-.05.007-.037.088.012.088a5 5 0 0 1 .71.044 6 6 0 0 0 .704.04c.044 0 .046-.058.01-.073m-46.702-39.133a29.7 29.7 0 0 0-3.097 4.074 15.7 15.7 0 0 0-1.923 4.748.098.098 0 0 0 .178.075c.419-.723.777-1.489 1.18-2.222q.606-1.111 1.21-2.224a36 36 0 0 1 2.611-4.328c.068-.092-.085-.21-.16-.123m-.352 3.175a27.2 27.2 0 0 0-3.401 7.992c-.015.076.096.136.133.057 1.219-2.623 2.12-5.378 3.374-7.988.033-.07-.066-.13-.106-.061m-.192 3.635a31 31 0 0 0-1.285 3.814 11.1 11.1 0 0 0-.574 3.865.078.078 0 0 0 .151.02 11.6 11.6 0 0 0 .438-1.949c.117-.636.227-1.274.36-1.907.268-1.287.594-2.567.98-3.823.014-.046-.053-.062-.07-.02m.159 7.885a7.7 7.7 0 0 1 .026-1.466c.011-.085-.111-.126-.134-.037a4.7 4.7 0 0 0-.16 1.53 4.7 4.7 0 0 0 .384 1.454c.02.047.094.013.082-.035a8 8 0 0 1-.198-1.446m-31.051-2.634a33 33 0 0 0-3.75 3.649 26 26 0 0 0-1.533 2.004q-.359.517-.698 1.047a4 4 0 0 0-.633 1.172.29.29 0 0 0 .482.28 4.3 4.3 0 0 0 .67-.987q.33-.535.679-1.058a52 52 0 0 1 1.492-2.105 36 36 0 0 1 3.325-3.968c.023-.023-.01-.054-.034-.034m-2.256 4.311c-.895 1.093-1.8 2.183-2.616 3.337a17 17 0 0 0-1.119 1.808 3.8 3.8 0 0 0-.635 1.94.152.152 0 0 0 .256.105 6 6 0 0 0 .924-1.727c.3-.641.635-1.27.982-1.887.685-1.222 1.464-2.385 2.253-3.542.018-.026-.024-.06-.045-.034m1.004 1.053c-.793 1.389-1.57 2.786-2.283 4.218-.35.703-.7 1.408-1.028 2.122a9.3 9.3 0 0 0-.846 2.152.073.073 0 0 0 .133.056 11.4 11.4 0 0 0 1.096-2.172c.318-.69.628-1.385.95-2.074.667-1.429 1.323-2.863 2.013-4.281.011-.023-.022-.044-.035-.02m-4.265 9.083a11 11 0 0 0-.331 1.303q-.06.322-.093.647a.84.84 0 0 0 .057.609.094.094 0 0 0 .132 0c.137-.15.11-.397.121-.585q.022-.318.053-.634a11 11 0 0 1 .21-1.299.077.077 0 0 0-.149-.04m2.36-1.549a12 12 0 0 0-.957 2.33 9 9 0 0 0-.263 1.268 2.8 2.8 0 0 0-.027 1.166.053.053 0 0 0 .101 0 5.2 5.2 0 0 0 .19-1.182c.058-.4.141-.795.228-1.189a12 12 0 0 1 .79-2.356c.02-.042-.04-.08-.062-.037m.477 3.441a6.1 6.1 0 0 0-.08 2.257c.006.033.055.024.056-.007.015-.749-.014-1.498.072-2.244.003-.027-.043-.033-.048-.006m1.64 2.472-.14-.465a.02.02 0 0 0-.04.01l.104.476c.035.157.09.312.136.467a.024.024 0 0 0 .047-.013c-.034-.158-.06-.32-.107-.475M660.543 20.96q-.274-.33-.575-.637a7.7 7.7 0 0 0-1.34-1.057c-.017-.011-.039.016-.022.03a14 14 0 0 1 1.222 1.167q.289.303.551.63c.178.223.375.425.566.636.026.028.067-.008.05-.04a3.8 3.8 0 0 0-.452-.73m2.517 3.096a3 3 0 0 0-.295-.391 8 8 0 0 0-.687-.673.043.043 0 0 0-.06.061 5 5 0 0 1 .555.76q.116.196.24.387a1.1 1.1 0 0 0 .312.346.055.055 0 0 0 .082-.047.83.83 0 0 0-.148-.443m-1.899.858a29 29 0 0 0-1.808-2.11c-.013-.013-.03.006-.02.02a61 61 0 0 1 1.734 2.214c.533.716 1.026 1.46 1.581 2.158.022.028.062-.007.047-.036a16 16 0 0 0-1.534-2.246m.035 3.563a6 6 0 0 0-.526-.597c-.334-.43-.631-.888-.963-1.32a7.7 7.7 0 0 0-2.245-2.076c-.02-.012-.045.018-.026.034a12.3 12.3 0 0 1 2.064 2.25 9.4 9.4 0 0 1 .793 1.261c.117.235.173.482.278.719a1.04 1.04 0 0 0 .589.453.072.072 0 0 0 .106-.06 1.2 1.2 0 0 0-.07-.664m1.451 3.289a6 6 0 0 0-.21-.333q-.222-.325-.44-.653a.022.022 0 0 0-.038.022l.36.7q.089.175.19.345a1.2 1.2 0 0 0 .227.304.04.04 0 0 0 .068-.04 1.2 1.2 0 0 0-.157-.345m-1.349 1.268c-.27-.59-.556-1.172-.872-1.739a12 12 0 0 0-2.234-2.94c-.023-.022-.057.012-.034.034a12.3 12.3 0 0 1 2.177 3.02c.28.527.534 1.067.775 1.613a17 17 0 0 0 .78 1.722.046.046 0 0 0 .084-.035 11 11 0 0 0-.676-1.675m-.855 1.263a19 19 0 0 0-1.799-2.558c-.012-.014-.036.004-.025.02a25 25 0 0 1 1.626 2.653c.49.914.84 1.904 1.364 2.797a.057.057 0 0 0 .104-.044 9.8 9.8 0 0 0-1.27-2.868m-.116 3.377a9 9 0 0 0-1.29-1.83c-.018-.021-.054.006-.038.029a10.7 10.7 0 0 1 1.033 1.949c.277.663.445 1.379.787 2.013a.06.06 0 0 0 .111-.03 4.2 4.2 0 0 0-.603-2.13m.142 5.208c-.042-.12-.097-.237-.148-.355-.103-.239-.231-.469-.349-.7-.024-.05-.11-.015-.089.037.096.243.184.494.294.731.055.119.108.239.171.353a2.3 2.3 0 0 0 .194.332c.02.026.054-.003.05-.029a2.3 2.3 0 0 0-.123-.369M680.352 3.14a.014.014 0 0 0-.007.025 8.8 8.8 0 0 1 2.98 1.618 14.2 14.2 0 0 1 2.25 2.456.035.035 0 0 0 .06-.035 8 8 0 0 0-5.283-4.065m2.829 3.788a8 8 0 0 0-.332-.337q-.331-.322-.69-.613a9.3 9.3 0 0 0-1.533-1.005.022.022 0 0 0-.022.038 12 12 0 0 1 1.487 1.068q.335.282.645.592.159.159.31.324a1.4 1.4 0 0 0 .32.295c.022.012.057-.009.047-.037a1.1 1.1 0 0 0-.232-.325m2.272 2.695a2 2 0 0 0-.156-.21c-.118-.138-.233-.281-.357-.416-.244-.264-.496-.521-.745-.78-.023-.024-.067.008-.047.036.21.29.417.581.633.867.107.14.222.273.334.41a2 2 0 0 0 .18.195.5.5 0 0 0 .197.141.04.04 0 0 0 .052-.04.46.46 0 0 0-.091-.203m-1.716.937a20.5 20.5 0 0 0-2.244-2.205c-.013-.011-.032.007-.019.019a27 27 0 0 1 2.15 2.24c.672.788 1.243 1.65 1.894 2.453.018.023.05-.006.038-.029a13 13 0 0 0-1.819-2.478m.245 3.055a18 18 0 0 0-1.483-1.494c-.029-.025-.07.016-.042.043a18 18 0 0 1 1.404 1.532c.435.534.794 1.14 1.275 1.633.028.028.065-.008.051-.04a6.6 6.6 0 0 0-1.205-1.674m2.378 3.232-.165-.215-.333-.438c-.013-.016-.04-.002-.028.016l.308.463q.076.117.154.23a.8.8 0 0 0 .169.194c.013.01.033-.007.028-.021a.8.8 0 0 0-.134-.23m-.353 2.248-.67-.834c-.44-.546-.898-1.078-1.35-1.614-.005-.007-.017.002-.012.01.412.566.817 1.14 1.24 1.698l.627.826a5 5 0 0 0 .667.78.046.046 0 0 0 .072-.056 4.7 4.7 0 0 0-.574-.81m-1.573 1.35c-.02-.019-.05.011-.03.03a17 17 0 0 1 1.436 1.746.016.016 0 0 0 .028-.016 7 7 0 0 0-1.434-1.76m1.926 5.289c-.04-.06-.087-.116-.13-.174l-.269-.351c-.025-.033-.08-.001-.056.032l.27.36c.043.058.085.119.132.174l.146.17c.014.015.041-.006.03-.024zm-27.373 24.815a5.64 5.64 0 0 0-1.976-2.333c-.013-.009-.031.01-.022.022l1.133 1.624c.187.266.36.542.548.808.198.28.364.583.563.862a.054.054 0 0 0 .099-.042 5 5 0 0 0-.345-.941m.977 4.741c-.184-.26-.433-.463-.62-.72-.368-.508-.682-1.056-1.046-1.567a27 27 0 0 0-2.29-2.802c-.021-.023-.054.01-.034.034a40 40 0 0 1 2.248 2.873c.33.469.671.939.96 1.434a6 6 0 0 1 .359.878 1.5 1.5 0 0 0 .505.644c.054.042.168.023.157-.065a1.4 1.4 0 0 0-.24-.709m-1.216 2.556a39 39 0 0 0-1.013-1.719 14.6 14.6 0 0 0-2.358-3.085c-.023-.022-.067.007-.046.036.751 1.051 1.627 2.007 2.346 3.083.348.522.68 1.055.976 1.609.313.587.572 1.202.89 1.787.013.026.06.008.049-.021a12.4 12.4 0 0 0-.844-1.69m-3.393-1.069c-.015-.02-.047.006-.034.026.622.907 1.256 1.802 1.955 2.652.012.014.036-.005.026-.02-.602-.921-1.267-1.794-1.947-2.658m3.613 5.572a6 6 0 0 0-.525-.703c-.01-.01-.03.004-.021.017a4.4 4.4 0 0 1 .432.738 6 6 0 0 0 .363.772c.02.029.074.02.071-.02a1.8 1.8 0 0 0-.32-.804m-3.534-1.407c-.011-.014-.03.005-.02.019l.705.886c.006.008.018-.004.011-.012Zm2.914 4.665q-.148-.269-.31-.53-.32-.524-.648-1.043a.01.01 0 0 0-.019.01q.302.537.585 1.081.14.274.285.545a2.2 2.2 0 0 0 .305.493.027.027 0 0 0 .046-.027 2 2 0 0 0-.244-.529m-3.466-1.465c-.008-.01-.024.002-.017.012a59 59 0 0 1 3.196 5.473c.013.023.053.008.044-.019a18.8 18.8 0 0 0-3.223-5.467m.644 5.026a.01.01 0 0 0-.019.01c.456.864.894 1.74 1.416 2.565a.016.016 0 0 0 .028-.017c-.424-.88-.934-1.714-1.425-2.558m-26.618-14.782a7 7 0 0 0-1.51-1.31c-.016-.01-.028.013-.014.023a7 7 0 0 1 1.437 1.34 7 7 0 0 1 .564.794c.171.28.314.578.487.858a.027.027 0 0 0 .049-.02 4.75 4.75 0 0 0-1.013-1.685m.371 3.087a11.5 11.5 0 0 0-.884-1.252 12.8 12.8 0 0 0-2.205-2.126c-.019-.015-.045.018-.026.034a12.7 12.7 0 0 1 2.132 2.217 14 14 0 0 1 .822 1.22 12 12 0 0 0 .745 1.28c.022.027.06-.004.055-.032a4.3 4.3 0 0 0-.639-1.341m-2.103-.279a6 6 0 0 0-1.004-.864c-.02-.015-.043.016-.026.034.308.311.598.644.882.978.282.332.577.655.848.996.022.027.062-.008.047-.036a5 5 0 0 0-.747-1.108m2.671 4.001a6 6 0 0 0-.298-.538 6.4 6.4 0 0 0-.726-.956c-.012-.013-.03.006-.02.019a6 6 0 0 1 .655.99q.135.258.246.526a2.5 2.5 0 0 0 .249.52c.019.027.067.021.065-.017a1.4 1.4 0 0 0-.17-.544m-.381 3.404a60 60 0 0 0-.353-.77c-.235-.5-.46-1.002-.72-1.488a8.4 8.4 0 0 0-1.936-2.516c-.024-.02-.057.012-.035.035a12 12 0 0 1 1.895 2.576 15 15 0 0 1 .693 1.4q.164.385.316.774a2.3 2.3 0 0 0 .294.627.041.041 0 0 0 .07-.029 2 2 0 0 0-.224-.609m-1.983-.025c-.011-.013-.03.006-.019.02a7.6 7.6 0 0 1 1.14 2.025c.007.016.032.01.027-.007a6.4 6.4 0 0 0-1.148-2.038m1.592 4.865-.004.004.177.176.004-.003zm-.359 1.639q-.142-.36-.289-.719c-.2-.489-.435-.983-.594-1.485a11 11 0 0 0-.612-1.394 11 11 0 0 0-.82-1.435c-.006-.01-.024-.004-.02.008.17.497.367.972.583 1.45.212.469.397.956.642 1.408a14 14 0 0 1 .662 1.492q.142.36.279.721a3.2 3.2 0 0 0 .31.73c.028.04.111.032.105-.03a3 3 0 0 0-.246-.746m-.55 1.987a32 32 0 0 1-.52-1.266 24 24 0 0 0-.988-2.299.024.024 0 0 0-.045.02 24 24 0 0 0 .927 2.323q.277.627.528 1.264a5 5 0 0 0 .485 1.109.03.03 0 0 0 .054-.023 5 5 0 0 0-.44-1.128m-1.617-.465c-.027-.053-.105-.006-.08.047a11 11 0 0 0 .659 1.305c.014.022.054.008.044-.019a11 11 0 0 0-.623-1.333m1.481 3.83a3 3 0 0 0-.375-.535c-.012-.013-.037.005-.025.02a3 3 0 0 1 .332.544c.09.192.153.395.238.589a.022.022 0 0 0 .04-.01 1.6 1.6 0 0 0-.21-.608m-.991 1.057a.005.005 0 0 0-.01.003l.088.354a.005.005 0 0 0 .01-.003Zm-8.189 23.925a2.5 2.5 0 0 0-.428-.388 5 5 0 0 0-.495-.333 5 5 0 0 0-.51-.273q-.27-.115-.542-.226c-.023-.01-.037.027-.017.04q.247.15.482.319c.157.111.324.21.483.317q.24.162.486.314a4 4 0 0 0 .498.285.035.035 0 0 0 .043-.055m.861-1.122a3 3 0 0 0-.325-.35 4 4 0 0 0-.392-.293 5 5 0 0 0-.86-.456.022.022 0 0 0-.021.037c.268.177.52.376.78.564.127.09.245.192.372.281q.2.138.407.268c.033.021.061-.024.04-.051m1.917 1.369a1 1 0 0 0-.188-.167c-.067-.048-.132-.1-.201-.142-.075-.047-.153-.087-.229-.13a3 3 0 0 1-.233-.157c-.042-.03-.094.038-.055.072a3 3 0 0 1 .181.167l.16.175a2 2 0 0 0 .38.322c.056.037.153.099.22.056.074-.048.006-.15-.035-.196m.343-1.821c-.534-.46-1.088-.89-1.658-1.305-.02-.014-.046.019-.027.034.554.457 1.097.93 1.632 1.41.523.469 1.009.982 1.566 1.412.03.022.055-.023.036-.047a11 11 0 0 0-1.549-1.504m3.071.26q-.564-.613-1.16-1.197a20.4 20.4 0 0 0-2.51-2.132c-.01-.007-.022.009-.013.017.82.724 1.65 1.44 2.445 2.193q.589.559 1.15 1.146c.382.4.726.845 1.125 1.226.015.015.042-.004.03-.022a12 12 0 0 0-1.067-1.231m1.729-.633q-.282-.348-.574-.688-.598-.695-1.213-1.374a18 18 0 0 0-1.262-1.273c-.063-.057-.779-.754-.84-.431a.019.019 0 0 0 .036.01l.167.023.08.093q.068.074.143.145l.262.255q.282.265.56.535c.368.36.75.708 1.102 1.086.342.368.677.742.994 1.132q.265.326.521.659a3.4 3.4 0 0 0 .481.57.027.027 0 0 0 .043-.033 3.2 3.2 0 0 0-.5-.71m-2.444-5.312c-.028-.018-.063.025-.036.047.552.45 1.063.942 1.582 1.43.017.016.05-.006.034-.026a5.5 5.5 0 0 0-1.58-1.451m3.652 3.897-.074-.108-.145-.212c-.022-.032-.073-.002-.052.03l.145.217.07.106a1 1 0 0 0 .085.102c.016.017.039-.005.03-.023a1 1 0 0 0-.06-.112m-.623-4.312a9 9 0 0 0-.42-.465 9 9 0 0 0-.949-.85c-.024-.018-.058.014-.034.035a9 9 0 0 1 .892.882q.207.236.397.486c.127.167.262.323.405.477.026.028.067-.007.05-.04a2.7 2.7 0 0 0-.341-.525m-.57-3.441c-.013-.016-.036.007-.023.023l.436.536c.013.016.036-.007.023-.023zm.61-1.936a.005.005 0 0 0-.008.007l.089.089a.005.005 0 0 0 .007-.008Zm.517 15.04a9 9 0 0 0-.84-1.01c-.027-.028-.069.013-.043.041a9 9 0 0 1 .827 1.024c.244.354.442.735.672 1.098.013.02.049.007.04-.017a5 5 0 0 0-.656-1.136m-.042 3.603a23 23 0 0 0-.884-1.27c-.597-.81-1.199-1.61-1.859-2.37-.023-.027-.06.011-.038.038a24 24 0 0 1 1.796 2.496c.253.413.49.835.729 1.257a4.6 4.6 0 0 0 .808 1.226.052.052 0 0 0 .086-.05 3.6 3.6 0 0 0-.638-1.326m-3.304-1.225a.019.019 0 0 0-.027.027 10.7 10.7 0 0 1 1.51 2.02c.011.018.037.002.028-.017a6.4 6.4 0 0 0-1.511-2.03m3.448 5.042a1.5 1.5 0 0 0-.122-.221 4 4 0 0 0-.287-.417 12 12 0 0 0-.66-.773c-.01-.011-.03.004-.021.016a9 9 0 0 1 .535.85q.12.22.249.431a2 2 0 0 0 .126.206 2 2 0 0 0 .179.185.035.035 0 0 0 .059-.034 1.4 1.4 0 0 0-.058-.243m-2.145.169a43 43 0 0 0-1.777-2.595c-.026-.036-.087-.001-.06.036a54 54 0 0 1 1.744 2.613c.557.887 1.04 1.823 1.615 2.698a.016.016 0 0 0 .028-.017 21 21 0 0 0-1.55-2.735m.272 4.231q-.393-.73-.808-1.449a28 28 0 0 0-1.836-2.828c-.012-.017-.039-.002-.028.016.57.947 1.162 1.88 1.73 2.83q.411.688.803 1.389c.275.493.51 1.03.826 1.498.012.02.048.008.04-.016a11.4 11.4 0 0 0-.727-1.44m-1.995-.081c-.018-.026-.06-.002-.042.024.842 1.257 1.542 2.585 2.296 3.893.01.018.036.002.028-.017a22.4 22.4 0 0 0-2.282-3.9m1.629 5.916-.275-.513-.571-1.062c-.01-.019-.038-.002-.028.016l.535 1.06.263.52a3.3 3.3 0 0 0 .293.527c.014.018.048.009.04-.017a3 3 0 0 0-.257-.53m-.683 2.28a6 6 0 0 0-.421-.509c-.024-.026-.062.013-.039.038a5 5 0 0 1 .424.514c.128.177.24.364.36.547a.016.016 0 0 0 .028-.017 3.4 3.4 0 0 0-.352-.573m.094 2.778a.008.008 0 0 0-.011.011l.176.177a.008.008 0 0 0 .012-.011Zm31.023-37.876c-.407-.463-.858-.881-1.301-1.308-.036-.034-.084.017-.054.054.394.473.748.979 1.116 1.472a17 17 0 0 0 1.179 1.36c.036.04.096-.01.072-.056a7.8 7.8 0 0 0-1.012-1.522m-2.247.911-.513-.592c-.176-.203-.37-.39-.559-.58-.025-.025-.073.009-.05.04.146.202.286.41.446.603l.517.622c.337.406.71.786 1.075 1.168.02.022.061-.008.042-.033-.31-.414-.619-.836-.958-1.228m3.025 3.946q-.068-.103-.138-.204a7 7 0 0 0-.303-.41q-.322-.397-.68-.763c-.02-.02-.047.01-.03.03q.327.399.616.825c.091.136.186.27.275.406.048.072.092.148.14.219a.35.35 0 0 0 .15.144c.026.01.046-.014.048-.037a.36.36 0 0 0-.078-.21m-4.981-2.82c-.029-.035-.092.013-.063.05a56 56 0 0 0 2.298 2.84c.015.019.048-.006.034-.026a56 56 0 0 0-2.269-2.864m4.663 6.481c-.003-.006-.013 0-.009.005l.265.354c.004.006.013 0 .01-.005Zm-2.358.009c-.796-1.011-1.608-2.006-2.48-2.952-.02-.022-.06.007-.043.033a48 48 0 0 0 2.306 2.972c.82.987 1.612 2.008 2.482 2.95.02.023.06-.007.042-.032-.722-1.022-1.533-1.987-2.307-2.97m-2.052.948a.014.014 0 0 0-.019.019c.666.723 1.35 1.43 1.989 2.178q.955 1.12 1.87 2.27c.012.015.036-.004.026-.02a21.7 21.7 0 0 0-3.866-4.447m2.377 5.288a20 20 0 0 0-2.008-1.946c-.013-.01-.032.007-.02.02a31 31 0 0 1 1.922 1.98q.45.512.87 1.048c.288.365.558.746.868 1.091.021.023.057-.007.043-.033a11.8 11.8 0 0 0-1.675-2.16m.744 4.264c-.22-.274-.438-.548-.668-.813q-.687-.795-1.37-1.592c-.014-.016-.043.006-.03.023q.624.843 1.245 1.688c.195.265.398.522.602.78a2.6 2.6 0 0 0 .696.756.044.044 0 0 0 .064-.05 2.4 2.4 0 0 0-.539-.792m-1.364 2.132c-.013-.012-.032.007-.019.019a4 4 0 0 1 .792 1.06c.01.018.036.002.028-.017a3.1 3.1 0 0 0-.8-1.062m.817 4.528-.207-.219a11 11 0 0 0-.43-.422.027.027 0 0 0-.039.038c.129.152.257.302.394.447l.202.212a3 3 0 0 0 .224.202c.02.016.057-.006.039-.03a3 3 0 0 0-.183-.228m31.912-31.534c-.094-.125-.2-.241-.306-.357q-.323-.357-.673-.689-.34-.323-.705-.62a3.7 3.7 0 0 0-.791-.535.024.024 0 0 0-.03.039 8 8 0 0 0 .705.611q.36.302.697.63.328.32.632.663c.104.117.202.239.307.355a1.4 1.4 0 0 0 .328.313.038.038 0 0 0 .056-.043 1.1 1.1 0 0 0-.22-.367m-2.875.722c-.132-.157-.259-.324-.403-.472l-.42-.429a5 5 0 0 0-.48-.395c-.03-.024-.087.008-.059.046a5 5 0 0 0 .369.47l.433.442c.14.142.299.269.449.4q.239.21.476.423a.019.019 0 0 0 .027-.027zm2.644 2.686a.5.5 0 0 0-.081-.098c-.057-.062-.113-.127-.174-.186-.13-.124-.267-.24-.401-.36-.266-.233-.527-.473-.79-.709-.04-.034-.095.02-.058.058.25.25.497.502.73.77.115.131.227.266.343.397.055.064.118.122.177.183a.6.6 0 0 0 .104.095.5.5 0 0 0 .12.037.052.052 0 0 0 .063-.063.4.4 0 0 0-.033-.124m-1.786 1.914c-.317-.29-.645-.569-.96-.862a24 24 0 0 0-1.797-1.708c-.028-.021-.056.023-.036.047a25 25 0 0 0 1.834 1.71c.294.28.575.573.865.857q.23.224.466.445a2.6 2.6 0 0 0 .444.374c.018.011.042-.01.03-.03a5.3 5.3 0 0 0-.845-.833m-2.487.883c-.015-.014-.038.009-.023.023.29.27.578.543.875.805.016.014.039-.008.023-.023-.286-.274-.582-.538-.875-.805m3.944 3.631-.185-.175c-.13-.123-.273-.235-.41-.35q-.405-.346-.802-.7l-.004.004q.374.377.738.763c.12.127.235.26.36.38l.185.175c.057.054.12.143.2.159a.06.06 0 0 0 .073-.074c-.018-.076-.1-.13-.155-.182m-2.942.402a3 3 0 0 0-.234-.216l-.24-.195a3 3 0 0 0-.271-.175c-.03-.018-.06.023-.037.047a3 3 0 0 0 .22.23l.244.204c.08.066.162.124.246.182.09.06.176.128.27.182a.022.022 0 0 0 .026-.034c-.068-.08-.15-.151-.224-.225m2.359 2.637q-.193-.17-.378-.348-.367-.35-.703-.731c-.017-.018-.042.008-.027.027q.325.39.68.753.176.179.358.35a1.6 1.6 0 0 0 .386.31c.018.008.043-.01.03-.03a2 2 0 0 0-.346-.331m-.402 2.878q-.178-.197-.36-.39-.373-.397-.75-.79-.368-.382-.734-.768a4.5 4.5 0 0 0-.777-.705c-.06-.039-.114.045-.072.094a6.5 6.5 0 0 0 .78.72c.27.23.527.471.78.722q.366.365.71.75l.35.4a2 2 0 0 0 .343.377c.024.016.047-.015.037-.037a1.7 1.7 0 0 0-.307-.373m-2.451.895a.014.014 0 0 0-.008.026 1.1 1.1 0 0 1 .605.447c.01.015.033.001.023-.014a1.13 1.13 0 0 0-.62-.46m2.414 2.429q-.063-.064-.13-.123l-.262-.231-.523-.463c-.007-.007-.019.004-.011.011l.497.489.242.237q.063.064.13.122a.7.7 0 0 0 .132.1.02.02 0 0 0 .026-.025.7.7 0 0 0-.101-.117m-2.538 1.043-.13-.067-.268-.138c-.024-.013-.046.024-.021.037l.268.139.13.066a1 1 0 0 0 .135.064c.015.005.03-.017.016-.027a1 1 0 0 0-.13-.074m2.267 2.055q-.276-.192-.564-.366l-.003.004q.277.185.542.385c.177.133.345.276.527.401.013.01.028-.01.017-.02a4 4 0 0 0-.519-.404m-1.78 1.101c-.026-.018-.05.024-.024.042a3.95 3.95 0 0 1 1.147 1.228.014.014 0 0 0 .024-.013 3.5 3.5 0 0 0-1.147-1.257m1.661 1.888c-.005-.004-.013.003-.008.008l.53.442c.01.009.026-.007.015-.015Z"/><path fill="currentColor" d="M662.55 243.317a47 47 0 0 0-1.75 4.438 18.3 18.3 0 0 0-1.133 4.635c-.003.051.07.055.085.011.535-1.485.797-3.077 1.242-4.592a45 45 0 0 1 1.58-4.481c.006-.014-.018-.025-.025-.01m1.667 1.762a63 63 0 0 0-2.344 6.025c-.315 1.025-.632 2.05-.93 3.082a12.4 12.4 0 0 0-.71 3.152.054.054 0 0 0 .107.014c.35-.99.432-2.12.688-3.143a28 28 0 0 1 .964-3.072c.76-2.013 1.497-4.033 2.265-6.042.009-.023-.03-.04-.04-.017m1.75 2.715c-.873 2.309-1.732 4.62-2.445 6.985-.35 1.158-.65 2.327-.954 3.498l-.455 1.75a3.15 3.15 0 0 0-.188 1.458.071.071 0 0 0 .129.016 3.4 3.4 0 0 0 .297-1.312q.129-1.013.347-2.01c.262-1.18.613-2.341.974-3.493.723-2.312 1.544-4.594 2.352-6.877.013-.036-.044-.05-.057-.015m1.213 3.867c-.664 2.073-1.316 4.15-1.853 6.26a.019.019 0 0 0 .037.01c.694-2.064 1.274-4.161 1.842-6.262a.014.014 0 0 0-.026-.008m-2.486 8.612q-.196 1.158-.408 2.315c-.07.377-.152.752-.213 1.132a2.4 2.4 0 0 0-.087 1.058.055.055 0 0 0 .1.013 2.45 2.45 0 0 0 .228-1.05c.052-.377.083-.755.127-1.132q.138-1.166.29-2.33c.003-.022-.033-.027-.037-.006m3.135-2.017q-.556 2.615-.938 5.263-.173 1.21-.308 2.423a12 12 0 0 0-.178 2.716c.004.034.054.047.064.01a14.7 14.7 0 0 0 .257-2.424q.117-1.306.278-2.608.334-2.7.857-5.371c.004-.02-.027-.03-.032-.009m1.407 5.096c.004-.027-.037-.039-.042-.011a33 33 0 0 0-.439 4.3 21 21 0 0 0 .187 4.317c.006.033.06.025.059-.008-.03-1.412-.167-2.81-.134-4.227a35 35 0 0 1 .37-4.37m2.694 8.897a24 24 0 0 1-.38-2.835 25.8 25.8 0 0 1 .135-5.246c.002-.018-.03-.022-.032-.004a24 24 0 0 0-.203 5.448 25 25 0 0 0 .348 2.57 11.3 11.3 0 0 0 .68 2.596c.012.027.048.006.044-.019-.133-.844-.429-1.669-.593-2.51m3.408 1.504a21 21 0 0 1-.603-2.55 32.5 32.5 0 0 1-.417-5.613.024.024 0 0 0-.049 0 23 23 0 0 0 .399 5.528c.182.924.378 1.842.63 2.75a12.3 12.3 0 0 0 .897 2.577.027.027 0 0 0 .05-.021c-.244-.904-.64-1.77-.907-2.671m2.676-2.507c-.002-.014-.023-.014-.022 0a7.1 7.1 0 0 0 .537 2.024c.007.017.036.005.03-.012a8.4 8.4 0 0 1-.545-2.012m2.357 5.773-.383-.707c-.011-.022-.043-.003-.032.019l.334.719a4 4 0 0 0 .372.697c.015.02.053.01.044-.019a4 4 0 0 0-.335-.71m3.456-.382-.379-.722-.19-.361-.015-.027.012.029.187.363.374.725.746 1.452c.008.015.032.002.024-.014zm-.584-1.11a3 3 0 0 0-.123-.235 3 3 0 0 0 .123.235"/><path fill="currentColor" d="M683.024 275.171a.077.077 0 1 0 .05-.02c.014-.09-.118-.014-.05.02m2.776-1.117c-.008-.015-.03-.002-.023.013a18.6 18.6 0 0 0 3.608 4.87.016.016 0 0 0 .023-.024 24.2 24.2 0 0 1-3.607-4.86m5.789 2.977a63 63 0 0 1-1.182-1.233c-.012-.013-.03.006-.019.02.364.45.741.886 1.142 1.305a9.4 9.4 0 0 0 1.235 1.157c.021.015.041-.017.026-.034-.37-.433-.802-.81-1.201-1.216m3.37.107c-.035-.027-.085.021-.05.05.394.315.778.65 1.201.926a.019.019 0 0 0 .023-.03c-.365-.344-.778-.639-1.174-.946m3.759.683a.035.035 0 0 0 0 .069.035.035 0 0 0 0-.07m7.044 13.379a64 64 0 0 1-1.55-1.742 93 93 0 0 1-1.455-1.74 19 19 0 0 0-1.522-1.77c-.063-.06-.184.022-.127.099a19 19 0 0 0 1.467 1.66c.53.568 1.057 1.138 1.573 1.719q.752.847 1.478 1.716c.512.613.99 1.27 1.55 1.839.068.069.16-.031.104-.103-.46-.594-1.009-1.127-1.518-1.678m-5.015-1.238c-.035-.027-.074.03-.046.06.335.353.684.692 1.015 1.05.33.356.658.713.978 1.08.016.018.047-.006.034-.027a9.2 9.2 0 0 0-1.981-2.163m5.244 6.244a5 5 0 0 0-.537-.562c-.018-.016-.045.01-.027.027a5 5 0 0 1 .518.57c.15.197.27.415.423.61.01.013.032-.001.027-.016a2.4 2.4 0 0 0-.404-.629m-.664 5.574c-.012-.008-.022.01-.011.019l.471.354c.011.008.022-.01.011-.019zM645.59 243.89c-.006-.027-.05-.022-.048.006a42 42 0 0 0 .831 5.429c.007.03.056.023.053-.007a42 42 0 0 0-.837-5.429m1.297 9.278a20 20 0 0 1-.307-1.604c-.002-.015-.028-.011-.027.004q.068.827.173 1.652a5.3 5.3 0 0 0 .373 1.534.04.04 0 0 0 .076-.02 9 9 0 0 0-.288-1.566m-2.344-3.149c-.004-.027-.05-.02-.047.007.236 2.167.473 4.359.915 6.496a.038.038 0 0 0 .075-.01c-.175-2.176-.562-4.345-.943-6.493m-20.565 38.832a3.1 3.1 0 0 0-1.21-.698 15 15 0 0 1-1.35-.69 29 29 0 0 1-2.465-1.609 18.7 18.7 0 0 1-4.379-4.26c-.018-.024-.059-.002-.042.025a15.3 15.3 0 0 0 4.131 4.286c.836.607 1.712 1.148 2.591 1.688q.68.416 1.332.87a3.05 3.05 0 0 0 1.271.68c.164.021.2-.192.12-.291m2.572-1.912a1.42 1.42 0 0 0-.84-.453c-.412-.134-.826-.258-1.234-.4a13 13 0 0 1-2.446-1.179 25.6 25.6 0 0 1-4.248-3.219.019.019 0 0 0-.027.027 18.7 18.7 0 0 0 4.128 3.3c.767.452 1.564.859 2.351 1.274.356.187.715.371 1.084.53.355.154.79.401 1.177.255a.093.093 0 0 0 .055-.135m2.322-2.353c-.272-.128-.555-.21-.834-.32-.337-.134-.66-.313-.983-.48q-.905-.468-1.781-.992a49 49 0 0 1-3.351-2.209c-.027-.019-.062.026-.036.047a25.6 25.6 0 0 0 3.305 2.302q.88.516 1.79.977c.295.15.597.283.89.434.305.158.582.346.9.478.134.056.233-.175.1-.237m-.178-4.023-1.873-.971c-.018-.01-.035.018-.016.028l1.857.996c.619.332 1.23.691 1.872.973a.019.019 0 0 0 .019-.033c-.595-.37-1.237-.67-1.86-.993m1.536-3.435c-.023-.01-.033.027-.01.036l.59.23c.017.007.023-.019.008-.025Zm-19.237-78.1a14 14 0 0 1-1.859-.898.027.027 0 0 0-.027.047 14 14 0 0 0 1.8.915 9 9 0 0 0 1.98.62.027.027 0 0 0 .014-.053c-.637-.208-1.282-.385-1.907-.63m5.791-.138a6.4 6.4 0 0 0-1.441-.553q-.774-.275-1.542-.567-1.583-.606-3.146-1.268c-.025-.01-.048.025-.022.038q1.485.722 3.016 1.343.762.31 1.533.598.384.144.773.279a3 3 0 0 0 .803.226c.054.003.065-.07.026-.096m2.655-1.418c-.293-.409-.739-.373-1.192-.464a6.6 6.6 0 0 1-1.434-.547 160 160 0 0 0-2.696-1.223c-.044-.02-.082.041-.038.066a21 21 0 0 0 2.639 1.256 9.4 9.4 0 0 1 1.453.628c.39.236.722.566 1.205.439a.106.106 0 0 0 .063-.155m2.999-1.486c-.227-.32-.71-.286-1.057-.36a6.5 6.5 0 0 1-1.182-.419 39 39 0 0 0-2.218-.883.035.035 0 0 0-.027.064 19 19 0 0 0 2.199.928 8 8 0 0 1 1.16.472c.303.165.668.513 1.04.41a.145.145 0 0 0 .085-.212m1.767-1.983q-.327-.112-.658-.216a20 20 0 0 0-1.337-.365.016.016 0 0 0-.008.032q.652.196 1.298.41.318.104.633.216a5 5 0 0 0 .657.216.027.027 0 0 0 .02-.05 3.5 3.5 0 0 0-.605-.243m2.957-1.635a3 3 0 0 0-.257-.09l-.263-.07a5 5 0 0 0-.538-.09.038.038 0 0 0-.02.073 5 5 0 0 0 .53.16l.267.053a3 3 0 0 0 .271.033c.042.004.044-.056.01-.07m2.659-1.532-.3-.03c-.02-.002-.021.026-.005.032l.291.095a1 1 0 0 0 .302.04c.033.001.034-.042.007-.053a1 1 0 0 0-.295-.084m-17.521-16.944c-.301-.168-.623-.284-.938-.421a19 19 0 0 1-.933-.447 14.4 14.4 0 0 1-1.77-1.06c-.018-.013-.033.015-.017.027a14.4 14.4 0 0 0 1.75 1.16c.3.17.612.318.926.458a4.3 4.3 0 0 0 .959.338c.031.005.054-.037.023-.055m3.926-.849c-.506-.171-1.037-.259-1.539-.446a12 12 0 0 1-1.535-.71 24 24 0 0 1-2.705-1.72c-.022-.016-.05.02-.03.039a13.3 13.3 0 0 0 2.725 1.797c.493.245 1 .47 1.506.687a11 11 0 0 0 1.507.608.133.133 0 0 0 .07-.255m3.395-1.18a10 10 0 0 0-1.263-.505q-.73-.287-1.442-.621a29 29 0 0 1-2.593-1.375c-.022-.012-.04.02-.02.033a23 23 0 0 0 2.592 1.472q.616.296 1.246.558a6.5 6.5 0 0 0 1.451.507c.04.006.07-.047.03-.07m2.836-1.081a5 5 0 0 0-.868-.406q-.485-.196-.968-.396-.979-.403-1.939-.85c-.037-.017-.07.037-.032.057q.928.482 1.876.925.457.213.924.41a4.3 4.3 0 0 0 .975.335.04.04 0 0 0 .032-.075m1.037-2.196a24 24 0 0 1-1.516-.524c-.031-.012-.053.04-.023.055a9.3 9.3 0 0 0 3.075.969c.029.003.032-.04.007-.048-.51-.166-1.03-.294-1.543-.452m2.504-1.153a.035.035 0 0 0-.019.067 11 11 0 0 0 1.406.388.027.027 0 0 0 .014-.052 11 11 0 0 0-1.4-.403m3.281-.65a.01.01 0 0 0 0 .021h.472a.01.01 0 0 0 0-.021Zm3.189-1.052c-.085-.034-.165-.073-.252-.101a2 2 0 0 0-.264-.061 3.3 3.3 0 0 0-.549-.029.065.065 0 0 0-.017.128 3 3 0 0 0 .52.146 2 2 0 0 0 .28.028c.09.002.18-.01.27-.015a.049.049 0 0 0 .012-.096m16.368-44.267a24.9 24.9 0 0 0-9.692 4.357c-.037.026-.003.086.035.06a40.4 40.4 0 0 1 9.678-4.338.04.04 0 0 0-.021-.079m-.585-.69a24 24 0 0 0-2.741.766c-.868.309-1.718.664-2.562 1.033-.022.01-.006.047.017.04 1.773-.58 3.55-1.13 5.311-1.745a.049.049 0 0 0-.025-.094m22.882-3.52a.022.022 0 0 0 0 .044c.826.004 1.65.01 2.476-.006a.016.016 0 0 0 0-.032c-.825-.016-1.65-.01-2.476-.006m36.793 4.119a.01.01 0 0 0-.006.02 18.3 18.3 0 0 1 4.703 2.267c.018.012.032-.015.016-.028a13.8 13.8 0 0 0-4.713-2.259m2.354-.141c-.024-.003-.03.04-.006.043a4.6 4.6 0 0 1 2.471 1.195.016.016 0 0 0 .023-.023 4.26 4.26 0 0 0-2.488-1.215m5.331-35.704a13 13 0 0 0-2.728-1.759c-.034-.017-.063.033-.03.052q.712.388 1.39.835c.45.297.884.618 1.335.915a.027.027 0 0 0 .033-.043m-5.409-.761c-.015-.007-.03.015-.014.023a28.4 28.4 0 0 1 5.573 4.01.03.03 0 0 0 .042-.042 17.8 17.8 0 0 0-5.6-3.991m5.686 6.581a4 4 0 0 0-.689-.503 21 21 0 0 1-.76-.562c-.46-.36-.907-.739-1.373-1.093a31 31 0 0 0-3.013-2.002c-.024-.015-.044.021-.021.037a147 147 0 0 1 2.888 2.109c.485.36.977.714 1.442 1.102.235.196.456.404.674.62a4.6 4.6 0 0 0 .613.602.197.197 0 0 0 .27-.071.205.205 0 0 0-.031-.24m-.381 2.471q-.35-.246-.698-.497a17 17 0 0 1-1.366-1.144 4.93 4.93 0 0 0-2.355-1.524.033.033 0 0 0-.025.06 22 22 0 0 1 2.414 1.661c.418.353.839.699 1.223 1.089.202.205.4.415.601.621a1.6 1.6 0 0 0 .597.446c.114.039.195-.096.147-.19a1.6 1.6 0 0 0-.538-.522m.355 3.84c-.3-.326-.649-.613-.972-.916a15 15 0 0 1-.97-.968c-.295-.332-.567-.695-.883-1.006a8.5 8.5 0 0 0-1.035-.813c-.04-.029-.076.03-.05.063a9 9 0 0 0 .886 1.002c.332.299.7.557 1.035.852a12 12 0 0 1 .92.916c.309.335.595.7.92 1.02a.106.106 0 0 0 .149-.15m-2.302.703c-.093-.088-.193-.166-.292-.247-.095-.076-.187-.16-.288-.228a4 4 0 0 0-.333-.205.024.024 0 0 0-.03.039q.127.143.266.273c.092.087.198.162.298.241.095.076.19.153.29.222a3 3 0 0 0 .329.213.027.027 0 0 0 .033-.042 3 3 0 0 0-.272-.267m2.272 2.235c-.078-.056-.15-.118-.227-.174q-.117-.086-.226-.18a4 4 0 0 1-.402-.406c-.008-.009-.024.003-.017.013a4 4 0 0 0 .37.453q.099.108.207.207a2 2 0 0 0 .24.18c.058.04.11-.053.055-.093m-1.903 1.478a.005.005 0 0 0 0-.011m1.315 3.884c-.008-.011-.027 0-.019.01l.354.472c.008.011.027 0 .018-.01Zm-.187-28.377a8 8 0 0 0-1.298-.834 12 12 0 0 0-1.395-.667c-.035-.014-.057.042-.025.06.448.244.903.479 1.348.73.447.25.879.524 1.337.753.026.013.058-.022.033-.042m-1.94-4.288c-.264-.176-.566-.29-.841-.447a9 9 0 0 1-.809-.504c-.035-.026-.077.03-.046.06a4.5 4.5 0 0 0 .785.593 2.5 2.5 0 0 0 .893.364c.038.005.043-.049.018-.066m2.165 1.289-.128-.072q-.137-.077-.279-.145l-.563-.28a.019.019 0 0 0-.02.033l.534.332q.132.084.27.161l.128.07a.22.22 0 0 0 .138.047.036.036 0 0 0 .03-.053c-.022-.05-.064-.067-.11-.093m-.297-3.379a5.3 5.3 0 0 0-.834-.458q-.411-.208-.819-.423-.829-.437-1.641-.905a.016.016 0 0 0-.017.028q.81.503 1.638.975.414.236.832.464a4.2 4.2 0 0 0 .814.384c.041.012.057-.042.027-.064m-.938-3.542-.384-.206-.78-.42c-.036-.02-.069.036-.032.056l.772.433.379.213a2 2 0 0 0 .383.19.027.027 0 0 0 .027-.045 2 2 0 0 0-.365-.221m-1.254-3.559a3.3 3.3 0 0 1-.628-.35c-.012-.009-.028.011-.016.021a2.5 2.5 0 0 0 1.306.608c.022.003.024-.03.005-.037a9 9 0 0 1-.667-.241m-.321-2.726a3 3 0 0 1-.318-.132 3.4 3.4 0 0 1-.567-.343c-.034-.025-.08.033-.046.06a3.5 3.5 0 0 0 .575.368q.147.073.3.134a.9.9 0 0 0 .334.084.03.03 0 0 0 .015-.055 1.6 1.6 0 0 0-.293-.116m-1.007-3.061-.233-.122c-.034-.018-.064.035-.03.051l.242.116c.08.038.158.078.24.11.018.007.028-.02.013-.03q-.114-.066-.232-.125m-.951-9.179a11.3 11.3 0 0 0-2.2-1.005 15 15 0 0 0-2.396-.666.027.027 0 0 0-.014.052c.78.239 1.563.472 2.327.758.762.285 1.501.624 2.26.915.033.013.05-.037.023-.054m-4.355-4.162a.03.03 0 0 0-.017.057 27 27 0 0 1 2.713.941c.017.007.029-.021.013-.03a11.8 11.8 0 0 0-2.71-.968m4.598 1.753a7 7 0 0 0-.466-.228c-.158-.071-.313-.148-.47-.222-.018-.01-.034.017-.015.028q.226.123.452.251.223.132.455.246a.04.04 0 0 0 .044 0 .04.04 0 0 0 .021-.037.04.04 0 0 0-.021-.038m-1.643-3.7q-.396-.152-.798-.29-.79-.27-1.596-.489a.01.01 0 0 0-.006.02q.789.23 1.561.507.386.14.768.291a4 4 0 0 0 .764.295.016.016 0 0 0 .012-.03 3 3 0 0 0-.705-.304m-.942-2.986c-.047-.034-.092-.072-.14-.105a1 1 0 0 0-.154-.08 3 3 0 0 0-.325-.143 1.6 1.6 0 0 0-.331-.083 2 2 0 0 0-.182-.018c-.058-.002-.11.011-.167.004-.045-.006-.057.06-.022.08.046.028.072.066.116.097a2 2 0 0 0 .146.093 2 2 0 0 0 .338.147 3 3 0 0 0 .344.084 1 1 0 0 0 .18.03h.168a.057.057 0 0 0 .029-.106m1.94.68-.094-.029-.188-.058-.376-.116c-.02-.006-.028.025-.009.032l.372.133.185.066.093.034a.08.08 0 0 0 .07 0 .02.02 0 0 0 .006-.021c-.012-.027-.033-.033-.06-.04m-1.563-3.378-.301-.065-.56-.122c-.388-.085-.779-.153-1.17-.224-.026-.005-.038.034-.01.042.381.104.762.21 1.147.302l.557.131.3.07a.4.4 0 0 0 .242.014.033.033 0 0 0 .014-.055.4.4 0 0 0-.22-.093m-1.48-3.064-.308-.087c-.2-.057-.408-.095-.611-.142a.022.022 0 0 0-.012.042c.198.067.395.142.596.2l.296.083a2 2 0 0 0 .298.058.027.027 0 0 0 .014-.05 2 2 0 0 0-.273-.104m-.517-2.611q-.161-.061-.325-.115l-.664-.226c-.024-.008-.033.028-.01.037l.645.247a4 4 0 0 0 .652.222c.02.004.035-.024.015-.035a3 3 0 0 0-.313-.13m-1.452-3.179c-.025-.012-.047.024-.022.037.236.122.468.253.714.353.02.009.032-.024.014-.034-.226-.136-.469-.242-.706-.356M686.65 39.413a32 32 0 0 1-.858-.816.014.014 0 0 0-.02.02q.41.428.803.87a4.3 4.3 0 0 0 .83.807.027.027 0 0 0 .037-.037 4.3 4.3 0 0 0-.792-.844m.28 4.061q-.217-.238-.435-.474c-.292-.315-.567-.643-.85-.966a31 31 0 0 0-1.761-1.883.022.022 0 0 0-.03.03c.564.634 1.143 1.253 1.697 1.896a16 16 0 0 1 1.18 1.505 1.8 1.8 0 0 0 .375.458.11.11 0 0 0 .159-.122 1.5 1.5 0 0 0-.336-.444m-3.262-.298c-.038-.026-.072.035-.036.061a4.4 4.4 0 0 1 1.376 1.666c.008.017.036.005.03-.012a3.67 3.67 0 0 0-1.37-1.715m2.641 3.333q-.043-.078-.09-.154a3 3 0 0 0-.2-.283 2.8 2.8 0 0 0-.504-.478c-.008-.006-.017.006-.01.012a4 4 0 0 1 .459.509 3 3 0 0 1 .199.283q.045.072.086.146a.3.3 0 0 0 .085.127.022.022 0 0 0 .033-.019.3.3 0 0 0-.058-.143m-3.257-.456c-.016-.013-.039.01-.022.023a2.4 2.4 0 0 1 .706.935c.007.016.033.009.026-.007a2.4 2.4 0 0 0-.71-.951m2.596 4.247a.014.014 0 0 0-.023.015c.155.275.303.557.469.826a.016.016 0 0 0 .028-.016c-.148-.28-.315-.55-.474-.824m-.694 2.708q-.367-.79-.757-1.57c-.014-.028-.056-.004-.042.024q.378.77.734 1.55c.237.518.453 1.048.705 1.56.009.02.042.006.034-.014-.193-.53-.437-1.04-.674-1.55m.263 8.584c-.035-.082-.172-.024-.143.06a9.4 9.4 0 0 0 .633 1.53.038.038 0 0 0 .07-.028 9.4 9.4 0 0 0-.56-1.562"/><path fill="currentColor" d="M771.181 655.76c-5.405-28.098-13.124-55.683-20.966-83.179-7.879-27.624-15.934-55.231-22.037-83.316-6.447-29.672-10.22-59.817-12.374-90.088-2.166-30.425-2.722-60.945-3.63-91.425-.087-2.886-.236-5.77-.359-8.655l-.055-2.488a39.4 39.4 0 0 1 .716-10.073 19.8 19.8 0 0 1 1.477-4.264 18 18 0 0 1 1.205-1.972 31.3 31.3 0 0 0 7.548-5.28c4.055-3.8 7.81-7.965 11.565-12.056q5.677-6.184 11.075-12.611c2.008-2.406 3.937-4.88 5.831-7.375.925-1.218 1.844-2.44 2.77-3.658.419-.55.845-1.11 1.252-1.684 3.716-3.018 6.841-6.75 7.178-11.612.25-3.617-.696-7.181-.942-10.772a68.3 68.3 0 0 1 .541-11.746 89 89 0 0 0 .537-11.835c-.116-3.973-.418-7.942-.37-11.919a55 55 0 0 1 .405-5.881 24.8 24.8 0 0 0 .24-5.732c-.416-3.656-2.555-6.562-4.34-9.664a78.6 78.6 0 0 1-5.192-10.882q-1.106-2.87-1.919-5.837c-.365-1.325-.683-2.668-1.062-3.991a165 165 0 0 0-.884-5.217c-.584-3.094-1.14-6.684-3.585-8.927-2.467-2.263-6.18-2.447-9.175-1.221a19.1 19.1 0 0 0-7.557 6.387 33 33 0 0 0-5.98 13.391 41.4 41.4 0 0 0-1.063-8.31 58.5 58.5 0 0 0 .262-8.295c-.157-3.027-.422-6.047-.676-9.067q-.756-8.994-1.508-17.99c-.962-11.696-1.768-23.421-3.092-35.084-.648-5.703-1.447-11.393-2.559-17.026a89.3 89.3 0 0 0-4.361-15.997c-1.676-4.168-4.44-8.224-9.111-9.208a8.2 8.2 0 0 0-5.864.782 8.05 8.05 0 0 0-3.493 5.066 32 32 0 0 0-.619 7.306 837 837 0 0 0-.145 8.958q-.02 1.983-.032 3.97l-.01-.218c-.295-7.736-.516-15.48-.915-23.212-.197-3.819-.463-7.636-.912-11.435-.368-3.12-.75-6.506-2.752-9.063-3.506-4.482-10.282-4.15-14.476-.913-4.722 3.645-6.416 9.462-7.18 15.142a11.92 11.92 0 0 0-5.466-4.875 12.2 12.2 0 0 0-11.273.862c-3.21 2.052-5.285 5.45-6.622 8.936-1.616 4.214-2.423 8.754-3.424 13.142-1.803 7.912-3.547 15.876-5.023 23.885-.006-.206.004-.412-.005-.619a13.1 13.1 0 0 0-.923-4.575c-.04-.095-.097-.192-.142-.289a7.11 7.11 0 0 0-6.857-4.343c-4.824.314-8.182 4.291-10.033 8.412-1.02 2.268-1.774 4.643-2.619 6.978-.92 2.544-1.884 5.072-2.829 7.607a130 130 0 0 0-4.962 15.397 55 55 0 0 0-1.377 8.674 39 39 0 0 0-.071 4.484 10.6 10.6 0 0 0 .475 3.29 5.8 5.8 0 0 0-.714 1.179 16.5 16.5 0 0 0-1.043 3.747c-.575 3.161-.91 6.376-1.257 9.57-.346 3.177-.647 6.36-.858 9.55-.179 2.693-.176 5.405-.535 8.084a18 18 0 0 1-.777 3.298 41 41 0 0 1-1.674 2.785 6.34 6.34 0 0 0-1.157 2.734c-.051.376-.075.75-.09 1.126a52 52 0 0 0-2.971 11.29 253 253 0 0 0-2.326 27.263q-.335 7.062-.439 14.133c-.067 4.636-.157 9.297.188 13.924.664 8.93 3.766 17.51 6.467 25.986 3.067 9.624 6.226 19.212 10.957 28.167.011.02.032.024.047.037a118 118 0 0 0 1.013 5.51c1.178 5.522 3.223 11.235 7.563 15.074.101.09.206.17.309.255a64 64 0 0 1-1.424 8.773 80 80 0 0 0-1.221 9.079 110 110 0 0 0 .162 17.26c-.053 4.898 0 9.785.094 14.633.309 15.85 1.81 31.603 3.3 47.376a834 834 0 0 1 3.285 95.395c-.645 31.92-2.693 63.791-5.055 95.624-2.258 30.442-5.404 60.92-6.296 91.442-.803 27.5.626 56.07 11.248 81.806q2.025 4.905 4.374 9.665c.08.164.315.02.242-.142-11.573-25.903-14.525-54.927-14.268-83.019.273-29.887 3.427-59.762 5.686-89.544 2.392-31.528 4.59-63.083 5.535-94.693.944-31.537.643-63.14-2.01-94.594-1.316-15.62-3.207-31.192-4.032-46.852-.428-8.121-.544-16.24-.479-24.357a27 27 0 0 0 .858-3.012c.357-1.482.714-2.964 1.06-4.448.223-.955.432-1.913.644-2.87a7.2 7.2 0 0 0 .358 2.522c-.134.317-.263.637-.372.968a14.5 14.5 0 0 0-.624 2.688c-.127.995-.177 1.995-.333 2.987a28 28 0 0 0-.44 2.85.035.035 0 0 0 .068.009c.261-.912.362-1.876.583-2.8a29 29 0 0 1 .917-2.83 21 21 0 0 0 .73-2.77c.077-.381.126-.765.177-1.15a4.17 4.17 0 0 0 .727-2.609c.015-1.3-.013-2.602-.035-3.902q-.067-3.837-.247-7.67a209 209 0 0 0-.516-7.66 119 119 0 0 0-.368-3.74 14.6 14.6 0 0 0-.595-3.181 11.95 11.95 0 0 0 5.621 1.693c.207.01.235-.292.048-.35-4.751-1.49-8.609-5.528-10.78-9.9-2.65-5.335-3.461-11.498-4.83-17.241-.426-1.786-.803-3.583-1.234-5.368-.43-1.783-1.052-3.518-1.47-5.302-.01-.041-.069-.023-.062.017.272 1.715.368 3.462.606 5.184.236 1.712.568 3.413.835 5.12.105.674.215 1.347.321 2.02-2.697-7.686-5.362-15.395-7.814-23.162-1.33-4.211-2.618-8.436-3.912-12.658a84 84 0 0 1-3.188-12.886 94 94 0 0 1-.578-13.56q.042-6.898.306-13.792c.347-9.086.88-18.207 1.936-27.24a71.6 71.6 0 0 1 3.028-14.385 55 55 0 0 1 2.537-6.35c1.015-2.117 2.24-4.112 3.354-6.173a.13.13 0 0 0-.204-.158 24 24 0 0 0-1.86 2.159 43 43 0 0 0 .72-5.115c.62-6.499 1.194-12.984 1.998-19.465.21-1.683.358-3.38.638-5.054a25 25 0 0 1 .413-2.076l.008-.018a.35.35 0 0 0 .16-.19 1 1 0 0 0 .037-.178 8 8 0 0 0 .65-1.07c.058-.132.163-.417.04-.543a.12.12 0 0 0-.083-.03c.044-.074.07-.16.118-.232.108-.16-.12-.295-.249-.192-.092.074-.174.152-.263.226-.005-.394-.02-.79-.033-1.191-.04-1.24-.014-2.48.05-3.717a51 51 0 0 1 .915-7.126 96 96 0 0 1 4.067-13.933c1.647-4.58 3.443-9.104 5.052-13.698 1.405-4.013 2.904-8.383 6.654-10.81a6.77 6.77 0 0 1 6.418-.833 6.27 6.27 0 0 1 2.442 2.043 10 10 0 0 1 .472 1.248 16.2 16.2 0 0 1 .578 4.55c0 1.583-.128 3.161-.154 4.743a30 30 0 0 0 .176 3.404 202 202 0 0 0-2.381 23.547 125 125 0 0 0 .316 15.55q.098 1.105.202 2.221a68 68 0 0 1-.483 7.1 52 52 0 0 1-1.406 7.18 24.5 24.5 0 0 0-.74 3.174 3.95 3.95 0 0 0 .372 2.13q-.088.114-.178.223a24 24 0 0 0-3.146 1.07 55 55 0 0 0-4.17 1.74c-1.426.662-2.85 1.359-4.215 2.142-1.412.81-2.722 1.801-4.073 2.708-.06.04-.005.137.058.098 1.311-.8 2.688-1.438 4.056-2.132 1.409-.714 2.808-1.439 4.249-2.087a85 85 0 0 1 4.43-1.826c.618-.238 1.293-.432 1.958-.653-.43.498-.874.982-1.324 1.472-.728.792-1.338 1.679-2.071 2.47-.045.048.015.138.073.096.84-.604 1.75-1.13 2.546-1.79.902-.749 1.75-1.562 2.65-2.311a20 20 0 0 0 2.223-2.357 14.4 14.4 0 0 0 1.888-2.424c.78-1.44.469-3.052.175-4.618-.286-3.822-.957-7.628-1.217-11.454a170 170 0 0 1-.358-13.373 199 199 0 0 1 2.231-26.493c1.285-8.817 3.057-17.555 4.965-26.256q1.441-6.574 2.946-13.134c.894-3.928 1.85-7.941 4.162-11.312 2.392-3.49 6.23-5.833 10.558-5.393 4.106.417 6.984 3.19 8.662 6.737-.057.548-.104 1.098-.16 1.647-.13-.218-.257-.439-.398-.65a13 13 0 0 0-1.422-1.792 15.3 15.3 0 0 0-3.688-2.756.046.046 0 0 0-.046.08 15 15 0 0 1 3.345 3.065 18 18 0 0 1 1.325 1.806q.302.48.567.98a3 3 0 0 0 .211.358c-1.432 14.245-2.49 28.536-3.79 42.792a155 155 0 0 1-1.436 11.216 37.9 37.9 0 0 0-.379 11.156c.108.85.231 1.694.358 2.54-.015 1.012-.027 2.024-.055 3.036q-.12 4.35-.363 8.7c-.156 2.816-.154 5.717-.588 8.506-.18 1.154-.807 2.317-.232 3.46.28.559.716 1.047 1.039 1.586.178.297.352.586.55.869a2.3 2.3 0 0 0 .285.328 13.3 13.3 0 0 1-.834 2.077c-.059.115.071.285.195.194a4.25 4.25 0 0 0 1.775-2.046 11.8 11.8 0 0 0 .45-2.93c.065-.796.093-1.595.127-2.393a81.8 81.8 0 0 0-.152-17.28 100 100 0 0 1-1.098-10.809c.003-3.64.847-7.203 1.343-10.792 1.008-7.28 1.455-14.647 2.08-21.967.631-7.401 1.28-14.801 1.902-22.203.302-3.596.53-7.208.973-10.79a27.8 27.8 0 0 1 2.621-9.51 13.6 13.6 0 0 1 5.892-6.076 9.22 9.22 0 0 1 7.796-.176c2.86 1.34 3.998 4.156 4.509 7.106a97 97 0 0 1 1.042 10.637c.456 7.43.628 14.881.897 22.32.27 7.466.52 14.932.789 22.398.123 3.391.179 6.77.154 10.162a75 75 0 0 1-.104 3.344l-.208.414c-.037-.048-.114-.067-.125.008-.016.113-.025.228-.041.342a3.7 3.7 0 0 0-.252.688 3.3 3.3 0 0 0 .012 1.28q-.285 2.47-.478 4.955a35 35 0 0 1-1.08 3.65c-.064.174.207.282.296.124.22-.388.396-.794.592-1.192-.189 3.08-.312 6.168-.461 9.243q-.234 4.81-.417 9.62l-.184 4.982a36 36 0 0 0-.075 4.033 12 12 0 0 0 .851 3.614 4.15 4.15 0 0 0 1.864 2.132 5.7 5.7 0 0 1-1.756-.975 12.5 12.5 0 0 0-2.35-1.416c-.023-.01-.052.019-.03.038 1.27 1.082 1.927 2.698 3.476 3.499a3.02 3.02 0 0 0 3.918-.703c2.146-2.618 2.381-6.448 2.253-9.679-.157-3.977-.629-7.958-.966-11.924l-1.06-12.483-.61-7.183c-.097-1.14-.171-2.285-.323-3.42a33 33 0 0 0-.789-3.275l-.094-.798c-.025-.215-.061-.427-.089-.641.024-1.083.046-2.168.023-3.237-.03-1.358-.076-2.716-.12-4.074a80 80 0 0 0 .44-8.5c.067-2.871.189-5.743.243-8.614.107-5.656.145-11.319.345-16.972a13.5 13.5 0 0 1 1.363-6.38 5.68 5.68 0 0 1 5.14-2.774c4.766.076 7.82 4.107 9.409 8.175a92.4 92.4 0 0 1 4.034 15.21c1.112 5.468 1.92 10.994 2.563 16.536 1.293 11.135 2.095 22.332 3.067 33.498q.746 8.566 1.47 17.134c.486 5.707.868 11.428 1.535 17.117q.083.706.17 1.412a26 26 0 0 0-1.783-4.005 20.3 20.3 0 0 0-2.934-3.695c-.024-.027-.073.01-.051.039a18.8 18.8 0 0 1 1.81 3.524 23 23 0 0 1 1.337 3.891 46.5 46.5 0 0 1 1.278 8.026c.228 3.188.207 6.39.314 9.583.107 3.162.56 6.288.708 9.444a17.6 17.6 0 0 1-.658 6.477.57.57 0 0 0-.104.3 6.8 6.8 0 0 1-1.301 2.147c-.142.153.053.447.236.306a9.8 9.8 0 0 0 1.654-1.615 6.18 6.18 0 0 1 1.918 4.029 57 57 0 0 1 .056 6.026 64 64 0 0 0 .326 10.226 16.5 16.5 0 0 0-2.593-2.11 18 18 0 0 0-3.943-1.8 44 44 0 0 0-4.51-1.337.024.024 0 0 0-.013.047c1.385.5 2.808.969 4.141 1.595a29.6 29.6 0 0 1 3.697 2.151 15.2 15.2 0 0 1 2.963 2.533 7 7 0 0 1 .463.594l-.125-.095a24.6 24.6 0 0 0-3.753-2.412 26.3 26.3 0 0 0-8.137-2.669 32.6 32.6 0 0 0-9.225-.022 32.2 32.2 0 0 0-9.291 3.016c-.016.008-.005.036.013.03a33.7 33.7 0 0 1 18.018-1.787 28.4 28.4 0 0 1 7.597 2.632 27 27 0 0 1 3.324 2.053 10.5 10.5 0 0 1 2.855 2.584 1 1 0 0 0 .037.13 1.94 1.94 0 0 0-.911 1.18q-.102.037-.207.064-.067.017-.134.029l-.028.005a1 1 0 0 1-.15.015c-.02.003-.205.048-.077.012a1 1 0 0 1-.241.017l-.103.004a2 2 0 0 0-.18.027c-.003 0 .003-.002-.006-.002h-.056a12.26 12.26 0 0 0-5.158-2.44 15.3 15.3 0 0 0-5.571-.07 25.6 25.6 0 0 0-5.803 2.03c-.054.024-.015.118.041.097a23.6 23.6 0 0 1 5.407-1.169 16.5 16.5 0 0 1 5.38.124 12.1 12.1 0 0 1 4.031 1.655 9.8 9.8 0 0 1 2.224 2.054 3.3 3.3 0 0 0-1.254.664c-.951.825-1.422 2.07-2.44 2.83a10.3 10.3 0 0 1-3.643 1.41 32 32 0 0 0-8.085 3.464 61 61 0 0 0-7.485 5.435c-.04.032.011.096.054.07 4.749-2.89 9.568-5.952 15.048-7.217 2.198-.508 4.651-.903 6.183-2.737.634-.758 1.177-2.036 2.217-2.293a3.22 3.22 0 0 1 2.685.694c.096.09.298.034.284-.118l-.005-.019c.85.595 1.701 1.182 2.5 1.865 1.304 1.116 2.47 2.349 3.699 3.543 1.3 1.263 2.574 2.53 3.756 3.908.018.02.055-.007.038-.03-1.573-2.06-2.92-4.282-4.666-6.205-.912-1.003-1.829-1.996-2.831-2.91-.963-.878-2.09-1.613-3.002-2.54-.705-.717-1.163-2.238.332-2.174a21.6 21.6 0 0 1 3.964.735 42.6 42.6 0 0 1 7.556 2.469 44 44 0 0 1 7.864 4.322c.022.016.05-.02.03-.038a40.6 40.6 0 0 0-7.092-4.976c.627.176 1.255.346 1.881.527.041.012.056-.048.017-.062-1.755-.665-3.496-1.359-5.24-2.044a39 39 0 0 0-3.262-1.239c-.546-.205-1.085-.424-1.635-.62-1.427-.512-3.399-.918-4.427-2.117-.9-1.05-.916-2.62-.912-3.93.006-1.706.049-3.41.062-5.116a38 38 0 0 1 .205-5.066 7.42 7.42 0 0 1 1.82-4.156 5.3 5.3 0 0 1 1.709-1.2 5 5 0 0 1 .545-.193 22.3 22.3 0 0 0 5.554 1.618 32.7 32.7 0 0 0 13.538-.202.061.061 0 0 0-.016-.12 73.6 73.6 0 0 1-11.36-.72c-3.164-.558-6.675-1.2-9.188-3.363-2.46-2.116-3.373-5.424-4.083-8.47a38.4 38.4 0 0 1-.997-8.991 34.27 34.27 0 0 1 4.614-17.286 24.2 24.2 0 0 1 5.988-6.987c2.418-1.817 5.764-2.95 8.672-1.591 2.085.974 3.064 2.95 3.685 5.07a4.1 4.1 0 0 1-.66 1.543 2.38 2.38 0 0 0-.57 1.65 16 16 0 0 0 .519 2.3c.384 1.704.668 3.426 1.124 5.114.228.844.478 1.681.73 2.518a6.3 6.3 0 0 1 .603 2.588.44.44 0 0 0 .2.49c.208.104.414.166.626.269a.074.074 0 0 0 .1-.1 1.1 1.1 0 0 1-.074-.544.43.43 0 0 0-.215-.374c-.7-.33-.85-2.077-.992-2.738-.184-.856-.347-1.716-.513-2.577a48 48 0 0 1-.886-5.394 4.76 4.76 0 0 1 .082-2.482c.116-.22.23-.42.343-.624.155.683.296 1.36.44 2 .727 3.216 1.57 6.395 2.436 9.57.303 1.317.664 2.617 1.017 3.879.026.091.056.181.081.273a1 1 0 0 0-.105-.013q-.058 0-.115.007l-.231.013a.057.057 0 0 0 0 .114l.23.013c.037.003.075.008.112.007a1 1 0 0 0 .128-.015c.01-.001.007-.013.014-.018a57.3 57.3 0 0 0 3.468 9.312 63 63 0 0 0 2.539 4.734 46 46 0 0 1 2.569 4.527c1.573 3.49.85 7.325.61 11.002-.51 7.766.678 15.526.085 23.29-.295 3.867-.857 7.71-1.034 11.586a69 69 0 0 0 .805 10.877 18.5 18.5 0 0 1-.051 5.792 11.46 11.46 0 0 1-2.646 5.078c-1.304 1.549-2.742 2.98-4.14 4.443-1.414 1.48-2.846 2.94-4.398 4.279-.167.144.05.424.236.306a96 96 0 0 0 2.607-1.72c-.349.429-.697.857-1.052 1.265q-2.694 3.096-5.408 6.173c-3.628 4.11-7.21 8.26-10.895 12.32-3.668 4.043-7.4 8.033-11.23 11.924a39.5 39.5 0 0 1-5.878 5.145 28.3 28.3 0 0 1-6.422 3.207 65.2 65.2 0 0 1-16.02 3.35c-.21.018-.217.336 0 .333a76.6 76.6 0 0 0 11.915-.783l.172.166c.21.2.414.406.62.61.4.4.793.805 1.17 1.228q.582.65 1.112 1.345.232.31.468.62a25 25 0 0 0-.57 3.624 6 6 0 0 0-.408-.421q-1.008-1.079-2.023-2.15c-1.343-1.425-2.647-2.933-4.126-4.22a.04.04 0 0 0-.057.058c1.005 1.281 2.183 2.437 3.309 3.611l1.643 1.716.848.882.45.466c.038.04.45.433.307.485a.045.045 0 0 0 .01.088c-.188 2.768-.08 5.548-.018 8.319l.193 8.695c.037 1.648.068 3.296.133 4.944.033.851.047 1.708.108 2.557a6.1 6.1 0 0 0 .569 1.8c-.01 8.325.03 16.649.235 24.98.375 15.244.946 30.485 1.852 45.708 1.794 30.145 4.943 60.258 10.727 89.917 5.496 28.183 13.263 55.856 21.138 83.45 7.862 27.548 15.885 55.087 21.914 83.11 5.964 27.718 10.27 56.324 10.235 84.736a328 328 0 0 1-.156 10.472c-.008.223.33.22.343 0 1.822-28.23-.775-56.184-6.11-83.916M617.81 311.406c.009.568.01 1.137.016 1.705-.09.3-.19.597-.272.9-.4 1.47-.773 2.947-1.14 4.426-.358 1.44-.705 2.88-1.052 4.323l-.04.163c.017-1.163.024-2.326.046-3.489a48 48 0 0 0 1.651-5.878c.275-1.141.524-2.289.758-3.439.01.43.026.86.033 1.289m-.052-2.081q-.504 2.078-1.04 4.148c-.423 1.626-.93 3.24-1.33 4.874q.054-2.49.124-4.981.109-.402.219-.79.427-1.5.834-3.006c.379-1.4.723-2.81 1.058-4.223q.079 1.989.135 3.978m-.18-5.419c.015.326.017.653.03.979q-.652 2.306-1.318 4.61-.363 1.246-.74 2.49.078-2.573.17-5.146c.454-1.248.824-2.536 1.22-3.79q.257-.804.506-1.612c.042.823.095 1.646.132 2.47m-.172-3.223c-.275.798-.573 1.589-.836 2.374-.26.775-.536 1.555-.797 2.34l.074-2.018c.022-.557.053-1.112.078-1.669.33-.92.581-1.877.827-2.803.165-.622.313-1.247.46-1.874.077 1.216.13 2.434.194 3.65m-.424-7.16.146 2.187c-.07.277-.139.556-.216.828-.219.775-.436 1.55-.667 2.322q-.106.345-.22.694l.057-1.204c.026-.14.045-.28.072-.42.276-1.456.599-2.929.828-4.408m14.235-173.087c.03.465.053.93.046 1.397a5.17 5.17 0 0 1-.568 2.87 21 21 0 0 1-2.324 2.766c.108-.458.192-.917.292-1.38.234-1.09.57-2.156.831-3.239a39 39 0 0 0 .92-6.235c.218 1.29.494 2.561.803 3.821m28.687-19.158c.02-.802.02-1.604.027-2.407.005.061.014.121.019.182a93 93 0 0 1 .163 11.342 164 164 0 0 1-.307 5.152l-.07.293a4 4 0 0 0-.172-.521 12 12 0 0 1-.693-1.915 4.7 4.7 0 0 1 .347-2.049 15 15 0 0 0 .25-1.776c.249-2.756.367-5.536.436-8.3m31.838-15.449.963 11.458.948 11.287c.267 3.179.704 6.522-.076 9.662-.34 1.373-1.066 3.84-2.774 3.888l-.002-.006c-1.564-1.663-1.637-4.069-1.646-6.2-.011-2.878.165-5.764.262-8.64.204-6.07.318-12.14.406-18.211q.028-1.926.02-3.84a33.4 33.4 0 0 0 1.357-5.804q.036.383.068.763zm34.568 80.806a10.1 10.1 0 0 0 2.67 2.466l-.03.01a6.57 6.57 0 0 0-2.815 2.247 7 7 0 0 0-.525.848c-.036-2.834-.42-6.06-3.004-7.243a9.8 9.8 0 0 0 1.253-3.646 16.8 16.8 0 0 0 2.45 5.318m-13.498 114.681a17 17 0 0 0-1.065 2.066l-.01.027q-.246-.28-.495-.557a23 23 0 0 0-.72-.76q1.168-.344 2.29-.776m-2.084 5.179a14 14 0 0 0-.482-.656 20 20 0 0 0-1.367-1.576 16 16 0 0 0-1.546-1.406l-.019-.016a32 32 0 0 0 2.587-.562q.093-.027.185-.056l.082.09c.244.28.494.553.74.83.219.245.431.496.651.739a21 21 0 0 0-.831 2.613"/><path fill="currentColor" d="M619.978 321.487c-.285.712-.609 1.407-.904 2.114a6 6 0 0 0-.386 1.166 5.6 5.6 0 0 0-.013 1.05 10.4 10.4 0 0 1-.43 2.369c-.191.757-.496 1.504-.65 2.268-.074.371.505.523.566.155.255-1.548.156-3.247.887-4.69a6 6 0 0 0 .478-.921 7 7 0 0 0 .224-1.12c.111-.787.198-1.575.356-2.356a.066.066 0 0 0-.128-.035m.609 6.448q-.37 1.233-.752 2.462c-.123.394-.255.787-.36 1.186a3 3 0 0 0-.189 1.174.075.075 0 0 0 .124.033 3 3 0 0 0 .43-1.106c.113-.398.197-.803.291-1.205q.293-1.254.599-2.505a.074.074 0 0 0-.143-.04m.196 5.971a11 11 0 0 0-.42 2.577.04.04 0 0 0 .077.01 11 11 0 0 0 .405-2.579c.002-.035-.054-.042-.062-.008m35.136-32.661a3.4 3.4 0 0 0-.107-.756c-.08-.27-.254-.476-.347-.741-.155-.443-.235-.915-.37-1.366a8.6 8.6 0 0 0-1.376-2.413.047.047 0 0 0-.081.048 7.4 7.4 0 0 1 .651 3.384c.005.586-.273 1.054-.297 1.639a11 11 0 0 0 .087 1.683c.299 2.57.387 5.144.638 7.715.508 5.202.414 10.457.488 15.678a.008.008 0 0 0 .015 0c-.023-4.188-.109-8.38.004-12.567.057-2.118.26-4.228.334-6.346.037-1.04.096-2.076.196-3.111a18 18 0 0 0 .165-2.847m6.918-1.792c.135.59.239 1.198.384 1.77.263 1.034.53 2.067.78 3.104.006.02.041.017.039-.005-.108-1.22-.194-2.443-.29-3.664a6.95 6.95 0 0 0-.6-3.07 1.657 1.657 0 0 0-2.075-.771 2.12 2.12 0 0 0-1.004 1.96 20.5 20.5 0 0 0 .507 3.292c.172 1.251.44 2.483.489 3.747.046 1.214.057 2.428.056 3.641-.057.319-.13.636-.176.956-.005.038.049.056.06.016.042-.146.076-.296.116-.443-.004 1.112-.015 2.223-.02 3.336 0 .046.065.044.07 0 .146-1.462.208-2.935.228-4.406.222-.89.435-1.784.663-2.672q.535-2.092 1.186-4.151c.009-.03-.036-.041-.045-.013a61 61 0 0 0-1.8 5.954q.002-.37.002-.741c-.004-.736-.027-1.476-.021-2.213a20 20 0 0 0 .897-3.136q.288-1.244.554-2.491m-1.236-1.522a.35.35 0 0 1 .426-.091c-.203.523-.369 1.06-.522 1.601a6 6 0 0 1-.046-.743c.004-.213-.018-.6.142-.767m-.198 6.241c.067-.968.03-1.936.095-2.902l.029-.402.069-.403c.147-.863.346-1.714.524-2.57a1.4 1.4 0 0 1 .449.606q.121.338.21.696c-.274.885-.532 1.775-.785 2.668-.216.762-.438 1.529-.591 2.307"/><path fill="currentColor" d="M663.58 305.326q-.799 2.196-1.463 4.439a22.5 22.5 0 0 0-1.019 4.4c-.005.055.076.059.092.012.502-1.433.756-2.973 1.141-4.441q.582-2.218 1.31-4.394c.012-.038-.047-.054-.06-.016m.463 4.069-1.187 3.465a31 31 0 0 0-1.1 3.49c-.007.036.048.065.065.027a30 30 0 0 0 1.156-3.412l1.104-3.56c.008-.024-.03-.034-.038-.01m-.318 6.127a9.4 9.4 0 0 0-1.214 3.758c-.003.046.063.05.076.01.426-1.24.681-2.534 1.18-3.75.01-.025-.03-.042-.042-.018m7.89-20.064c0-.03-.049-.039-.054-.007a7.3 7.3 0 0 1-.76 2.11 4.6 4.6 0 0 1-.523.918c-.266.306-.635.384-.833.77a4.6 4.6 0 0 0-.186 2.126c.026.8.228 1.572.322 2.364.39 3.284.53 6.62.681 9.921a.027.027 0 0 0 .055 0c.05-3.234.132-6.478.362-9.705.056-.783.234-1.55.262-2.334.027-.733-.006-1.433.07-2.161.073-.702.407-1.335.522-2.044a11 11 0 0 0 .082-1.958m1.859 6.627c-.004-.027-.045-.019-.046.006a19.4 19.4 0 0 0 .18 4.441c.015.078.125.052.13-.018a19.4 19.4 0 0 0-.264-4.429m83.848-72.723c-1.385 1.302-2.633 2.757-3.96 4.119a241 241 0 0 0-3.933 4.154.055.055 0 0 0 .077.078 56 56 0 0 0 4.186-4.014 47 47 0 0 0 3.722-4.266c.04-.056-.045-.115-.092-.071m-4.433 1.372a7 7 0 0 1-.553.638c-.194.197-.402.381-.593.58-.018.02.005.052.028.038a3.3 3.3 0 0 0 .634-.565 7 7 0 0 0 .532-.663c.02-.03-.027-.055-.048-.028m-2.863 3.246c-.156.2-.31.404-.47.601-.078.097-.16.191-.232.294a.7.7 0 0 0-.176.323.055.055 0 0 0 .069.053.27.27 0 0 0 .129-.105l.111-.153c.077-.104.143-.216.212-.326.135-.216.278-.427.418-.64.024-.037-.034-.083-.061-.048m.33-3.087c-.363.27-.756.494-1.118.764a8 8 0 0 0-.515.42 3 3 0 0 0-.236.246 1.7 1.7 0 0 0-.213.263c-.024.041.017.104.067.086a1.5 1.5 0 0 0 .276-.148 3 3 0 0 0 .284-.184 8 8 0 0 0 .523-.441c.333-.31.628-.658.96-.97.02-.017-.006-.052-.028-.036m-2.02-1.167c-.155.075-.312.144-.466.22a2 2 0 0 0-.212.138.6.6 0 0 0-.195.177.063.063 0 0 0 .054.094.3.3 0 0 0 .066-.005l.06-.026q.06-.023.116-.051a2 2 0 0 0 .228-.126c.141-.099.277-.205.416-.306a.066.066 0 0 0-.067-.115m-43.648 98.867c-.032-.045-.105-.003-.074.043 1.698 2.548 3.301 5.205 5.21 7.604.04.05.117-.014.086-.067-1.55-2.639-3.455-5.085-5.222-7.58m-2.119 4.136c-.015-.02-.05 0-.034.02 2.138 2.946 4.224 5.952 6.522 8.776.025.03.078-.01.056-.043-2.048-3.008-4.334-5.864-6.545-8.753m2.275 8.452q-1.947-2.661-3.925-5.3c-.03-.04-.097-.002-.067.04q1.934 2.728 3.887 5.444c1.265 1.75 2.47 3.576 3.86 5.23.038.044.11-.014.08-.062-1.158-1.856-2.544-3.587-3.835-5.352m.85 7.085c-1.188-1.79-2.396-3.569-3.597-5.35-.009-.013-.029-.001-.02.011 1.16 1.807 2.314 3.617 3.489 5.414 1.172 1.794 2.289 3.648 3.574 5.364.03.04.093.006.067-.039-1.067-1.858-2.33-3.615-3.513-5.4m2.446 8.552-1.629-2.21-3.364-4.566c-.012-.016-.04 0-.027.016l3.362 4.673 1.655 2.3a20.5 20.5 0 0 0 1.645 2.209.035.035 0 0 0 .056-.043 22 22 0 0 0-1.698-2.38m-3.493 3.451c-.017-.019-.044.009-.028.028a54 54 0 0 1 5.62 8.172c.016.026.054.003.041-.024a39 39 0 0 0-5.633-8.176m.514 8.65c-.037-.026-.072.034-.035.06a14.45 14.45 0 0 1 4.619 5.614c.013.028.062.008.05-.02a13.1 13.1 0 0 0-4.634-5.654m9.125-94.307a13 13 0 0 0-1.524-.414l-1.53-.39-3.06-.78a.04.04 0 0 0-.022.075l3.116.807 1.529.396a12 12 0 0 0 1.483.359c.033.004.034-.044.007-.054m4.621-2.113c-.902-.268-1.882-.357-2.804-.55q-1.3-.272-2.588-.599a71 71 0 0 1-5.292-1.55c-.043-.014-.061.053-.019.068a60 60 0 0 0 5.37 1.651q1.337.339 2.688.619a16.5 16.5 0 0 0 2.632.46.051.051 0 0 0 .013-.1m1.506-1.94c-1.244-.358-2.55-.56-3.816-.83l-3.82-.812c-.04-.009-.056.051-.017.06l3.813.84c1.264.279 2.537.635 3.817.825.054.007.078-.068.023-.083m3.065-2.421c-.559-.118-1.133-.173-1.695-.277q-.817-.15-1.621-.357a22.5 22.5 0 0 1-3.303-1.142c-.01-.004-.018.01-.008.014a22.6 22.6 0 0 0 3.23 1.187 13.8 13.8 0 0 0 3.389.636.031.031 0 0 0 .008-.061m3.089-2.784a9.5 9.5 0 0 1-4.568-1.099.016.016 0 0 0-.015.027 8.2 8.2 0 0 0 4.583 1.12.023.023 0 0 0 0-.048m2.041-4.606a6.6 6.6 0 0 0-1.031-.178l-.998-.153-2.034-.313c-.044-.007-.063.06-.019.068l2.071.33 1.036.166a6 6 0 0 0 .968.134.027.027 0 0 0 .007-.054m1.532-3.612c-.34-.025-.682-.011-1.022-.01l-1.021.002a.031.031 0 0 0 0 .062l1.021.002c.34.001.683.015 1.022-.01a.023.023 0 0 0 0-.046m2.042-4.07a.008.008 0 0 0 0 .016l1.021.004a.012.012 0 0 0 0-.024z"/><path fill="none" d="M734.224 251.04a.012.012 0 0 0 0-.024"/><path fill="currentColor" d="m205.34 786.69-.032-3c3.637-.04 6.963-.182 9.884-.422l.245 2.99c-2.991.246-6.388.391-10.096.432m-10.064-.111a345 345 0 0 1-10.039-.456l.178-2.994c3.473.205 6.821.357 9.952.452Zm-20.053-1.17a458 458 0 0 1-9.995-.934l.312-2.984c3.264.34 6.605.653 9.93.928Zm50.348-.71-.766-2.901q.48-.128.934-.263c2.782-.838 5.677-1.716 8.583-2.614l.886 2.866c-2.913.901-5.815 1.781-8.607 2.622q-.503.15-1.03.29m-70.334-1.405a52 52 0 0 1-10.011-2.336l1.002-2.828a49 49 0 0 0 9.427 2.193Zm89.533-4.543-.935-2.85a281 281 0 0 0 9.41-3.247l1.036 2.815c-2.736 1.007-5.847 2.08-9.511 3.282m-108.066-1.605a435 435 0 0 1-10.013-.566l.207-2.992c3.033.209 6.378.398 9.944.562Zm-20.028-1.441a81 81 0 0 1-10.053-1.602l.726-2.91a76 76 0 0 0 9.656 1.53Zm-19.65-2.19a64 64 0 0 1-10.1-1.633l.705-2.916a60.5 60.5 0 0 0 9.622 1.556Zm166.646-1.982-1.367-2.67a15.5 15.5 0 0 0 2.733-1.68l.354-.296.46-.045a55 55 0 0 0 6.194-1.065l.67 2.924a60 60 0 0 1-6.126 1.077 20 20 0 0 1-2.918 1.755m-186.466-2.707q-1.199-.463-2.43-.982a89 89 0 0 0-6.837-2.557l.94-2.85a93 93 0 0 1 7.065 2.643q1.187.502 2.342.947Zm583.653-2-1.473-.001.006-3 1.467.001q4.303 0 8.517-.04l.03 3q-4.227.041-8.547.04m-11.492-.064q-4.97-.055-10.02-.154l.06-3q5.032.098 9.993.154Zm30.058-.134-.067-3a632 632 0 0 0 9.974-.3l.115 2.998c-3.215.123-6.587.225-10.022.302m-50.094-.251q-4.986-.134-10.013-.301l.1-2.998q5.013.167 9.993.3Zm70.136-.526-.172-2.994c3.422-.196 6.767-.426 9.943-.684l.242 2.99c-3.199.26-6.568.491-10.013.688m-90.172-.135q-5.004-.195-10.009-.416l.133-2.997q4.994.22 9.993.415Zm-326.786-.461-1.41-2.649a11.8 11.8 0 0 0 4.934-4.301l.565-1.01 1.12.29c.015.004.894.231 2.398.564l-.65 2.93c-.57-.127-1.055-.24-1.44-.33a15.85 15.85 0 0 1-5.517 4.506m306.781-.42q-5.019-.245-10.001-.509l.158-2.996q4.973.264 9.99.509Zm130.195-.639-.338-2.98c3.474-.395 6.787-.84 9.847-1.325l.469 2.963c-3.104.492-6.46.943-9.978 1.342m-409.952-.343c-3.13-.13-6.53-.454-10.106-.962l.422-2.97c3.478.494 6.778.808 9.81.934Zm259.756-.075q-5.036-.288-9.996-.585l.18-2.994q4.952.297 9.986.584Zm-249.508-.3-.405-2.972a31 31 0 0 0 3.404-.646l.367-.046h6.371v3h-6.187a34 34 0 0 1-3.55.664m21.943-.664h-2.197v-3h2.064c.456-.04 3.257-.285 7.826-.657l.243 2.99c-4.99.407-7.867.661-7.87.661Zm207.576-.236q-5.058-.318-9.992-.64l.195-2.995q4.927.322 9.985.64Zm-490.949-.376c-3.025-1.183-6.083-2.89-7.964-7.338l2.764-1.168c1.371 3.244 3.424 4.59 6.292 5.711Zm301.29-.844-.229-2.991c3.039-.233 6.39-.484 9.993-.745l.217 2.992c-3.599.26-6.946.512-9.98.744m169.677-.084q-5.092-.344-9.989-.683l.207-2.993q4.89.339 9.984.682Zm210.069-.306-.666-2.926a85 85 0 0 0 9.446-2.68l1.006 2.826a88 88 0 0 1-9.786 2.78m-359.785-1.054-.203-2.992c3.213-.22 6.555-.439 9.995-.658l.19 2.995c-3.436.218-6.773.438-9.982.655m129.739-.018-9.985-.703.21-2.992 9.986.703Zm-109.772-1.243-.175-2.994c3.285-.192 6.627-.378 10.003-.556l.159 2.996c-3.371.178-6.708.364-9.987.554m89.801-.16c-3.506-.243-6.84-.472-9.984-.68l.2-2.995c3.146.211 6.483.44 9.992.683Zm-69.827-.89-.139-2.996c3.335-.154 6.68-.299 10.012-.428l.117 2.998c-3.325.13-6.662.273-9.99.426m49.861-.43a582 582 0 0 0-9.973-.528l.127-2.998c2.747.117 6.027.291 10.027.532Zm-29.88-.341-.09-2.998a915 915 0 0 1 10.024-.25l.056 3c-3.278.063-6.616.146-9.99.248m318.961-3.21-1.726-2.453a18 18 0 0 0 1.638-1.295l1.998 2.238a21 21 0 0 1-1.91 1.51m-704.358-7.093-1.707-2.467a10.6 10.6 0 0 1 1.996-1.07 739 739 0 0 0-7.27-1.162l-1.507-.236.466-2.963 1.504.235c2.557.4 5.329.834 8.379 1.348l-.398 2.357a23.4 23.4 0 0 1 6.93-.906q.215 0 .417.004l-.059 3q-.206-.004-.44-.004c-2.103 0-5.966.242-8.311 1.864m-18.404-6.666a59 59 0 0 1-9.824-2.85l1.103-2.79a56 56 0 0 0 9.335 2.705Zm-19.136-7.836c-3.13-3.129-4.855-6.336-5.124-9.532l2.99-.252c.208 2.47 1.64 5.049 4.255 7.663Zm1.308-17.42-2.081-2.162q.342-.328.676-.62c-.73-.17-1.534-.374-2.385-.617l.826-2.885a37 37 0 0 0 5.313 1.15l5.83-.02-5.15 2.831a16.7 16.7 0 0 0-3.029 2.323m-13.342-7.67a16.6 16.6 0 0 1-2.257-1.888l-.184-.187-.11-.236A18.8 18.8 0 0 1 0 696.976l3-.011a15.6 15.6 0 0 0 1.612 6.155 14 14 0 0 0 1.665 1.362Zm2.967-16.245-1.226-2.738a30.7 30.7 0 0 1 10.247-2.177l.216 2.992a27.9 27.9 0 0 0-9.237 1.923m19.236-2.622-.227-2.992 1.1-.084a12.8 12.8 0 0 1-4.73-2.379l1.952-2.28c1.56 1.337 4.443 2.256 8.565 2.73l-.171 1.488c1.103-.087 2.195-.175 3.26-.262l.244 2.99c-3.234.263-6.708.54-9.993.79m19.983-1.62-.01-.116c-1.21.049-2.372.082-3.474.1l-.048-3a161 161 0 0 0 6.627-.256l.216 2.99Zm-21.932-12.945-2.247-1.989c1.755-1.984 4.805-3.848 9.065-5.54l1.107 2.788c-3.818 1.517-6.484 3.112-7.925 4.74m291.997-5.122-.01-3c3.134-.01 6.486-.062 9.962-.155l.08 2.998c-3.5.094-6.875.147-10.032.157m-10.048-.121c-3.664-.108-7.05-.289-10.063-.537l.246-2.99c2.96.244 6.293.422 9.906.529Zm30.1-.4-.134-2.996c3.202-.144 6.553-.322 9.961-.528l.181 2.994c-3.423.207-6.79.386-10.008.53m20.004-1.202-.219-2.992q4.813-.352 9.95-.786l.254 2.989q-5.157.435-9.985.789m-70.26-.286a17.1 17.1 0 0 1-5.913-2.11l-.217-.184c-1.093-1.112-2.082-2.299-2.905-3.314l2.33-1.89c1.054 1.3 1.842 2.204 2.607 2.992a15 15 0 0 0 4.722 1.57Zm-244.5-.559-.74-2.908a128 128 0 0 1 9.933-2.097l.498 2.96c-1.814.305-5.486.977-9.692 2.045m334.719-.838-.282-2.986q4.836-.458 9.936-.987l.31 2.984q-5.113.53-9.964.99m19.917-2.065-.334-2.98q4.851-.545 9.922-1.15l.356 2.979q-5.082.607-9.944 1.15m-335.113-.704-.374-2.977c3.06-.384 6.337-.718 10.023-1.016l.243 2.99c-3.641.296-6.877.624-9.892 1.003m354.992-1.67-.377-2.977q4.859-.615 9.906-1.288l.396 2.975q-5.057.672-9.925 1.29m-334.963-.284-.633-2.932c1.68-.363 4.981-.807 10.092-1.355l.32 2.982c-4.935.531-8.225.97-9.78 1.305m19.729-2.293-.28-2.987c3.406-.319 6.843-.626 9.988-.9l.26 2.988c-3.138.275-6.569.581-9.968.899m335.076-.065-.415-2.97q4.864-.679 9.892-1.408l.431 2.97q-5.037.73-9.908 1.408m-315.12-1.695-.261-2.988 1.682-.15a38 38 0 0 1 8.65.067l-.44 2.966a35.3 35.3 0 0 0-7.939-.044Zm334.927-1.179-.446-2.967q4.865-.732 9.876-1.512l.462 2.965q-5.02.78-9.892 1.514m-315.149-.267-.33-2.983c1.187-.13 2.33-.235 3.32-.314l.16-.744c1.044.224 2.132.4 3.328.535l-.097 2.988c-.03.002-3.072.15-6.38.518m130.145-1.65a126 126 0 0 0-6.82-7.135l2.09-2.153c2.552 2.48 4.836 4.87 6.98 7.305Zm204.78-1.163-.475-2.963q4.865-.779 9.861-1.606l.49 2.959q-5.004.829-9.876 1.61m-342.09-1.926a172 172 0 0 1-4.364-2.283 14.5 14.5 0 0 1-4.31-3.693l2.334-1.885a11.5 11.5 0 0 0 3.395 2.936c1.86.998 3.142 1.669 4.288 2.244Zm361.834-1.34-.502-2.956q4.864-.827 9.848-1.695l.515 2.955q-4.99.87-9.86 1.697m19.832-3.793-.918-2.856q4.822-1.551 9.542-3.03l.897 2.863q-4.709 1.477-9.52 3.023m-258.48-5.61a263 263 0 0 0-7.621-6.374l1.882-2.336a265 265 0 0 1 7.71 6.448Zm277.543-.366-.878-2.87q4.85-1.483 9.585-2.89l.855 2.875q-4.724 1.405-9.562 2.885m-410.285-4.948-3-.041c.061-4.517 2.978-7.389 7.802-7.682l.182 2.994c-3.268.2-4.945 1.79-4.984 4.729m429.432-.746-.834-2.881q4.878-1.414 9.628-2.743l.81 2.888q-4.738 1.329-9.604 2.736m19.232-5.393-.787-2.894q4.91-1.333 9.673-2.583l.762 2.902q-4.752 1.247-9.648 2.575m-433.535-.231-.766-2.9a75 75 0 0 0 9.273-3.169l1.138 2.776a77.5 77.5 0 0 1-9.645 3.293m102.152-.818q-1.174-.892-2.403-1.813l-.234-.217a50 50 0 0 0-4.675-4.887l1.97-2.261a51 51 0 0 1 4.865 5.06q1.17.878 2.292 1.73Zm350.7-4.018-.735-2.908q4.942-1.248 9.718-2.41l.71 2.916q-4.764 1.156-9.694 2.402m-434.016-2.66-1.333-2.688q1.932-.958 3.829-1.936a26 26 0 0 1 5.603-2.218l.712 2.914a23 23 0 0 0-4.943 1.972 302 302 0 0 1-3.868 1.956m453.421-2.053-.68-2.922q4.98-1.159 9.765-2.22l.65 2.928q-4.77 1.06-9.735 2.214m-405.3-.831-1.41-.165c-2.492-.295-5.068-.6-8.41-.686l.076-2.999c3.48.09 6.127.403 8.686.706l1.398.163Zm10.51-.056-.84-2.88a29.4 29.4 0 0 1 8.22-1.321h.027a19 19 0 0 1 2.213.126l-.348 2.98c-.609-.07-1.249-.075-1.89-.106a26.4 26.4 0 0 0-7.382 1.201m-34.62-.265h-.039a49 49 0 0 1-5.775-.338l.35-2.98a49 49 0 0 0 5.461.318c1.329 0 2.752-.057 4.231-.168l.225 2.992a60 60 0 0 1-4.453.176m448.903-3.173-.619-2.936q5.023-1.06 9.812-2.013l.586 2.942q-4.773.95-9.779 2.007m19.579-3.899-.551-2.949q5.073-.948 9.858-1.778l.514 2.955q-4.767.829-9.821 1.772m19.663-3.414-.473-2.963c3.326-.53 6.66-1.039 9.906-1.51l.43 2.97c-3.232.468-6.55.974-9.863 1.503m19.747-2.855-.383-2.975c3.348-.43 6.697-.83 9.956-1.19l.328 2.983a552 552 0 0 0-9.901 1.182m19.82-2.173-.268-2.988c3.431-.307 6.797-.568 10.006-.776l.194 2.994a407 407 0 0 0-9.933.77m19.87-1.262-.097-2.998a204 204 0 0 1 6.613-.117c2.297 0 3.453.052 3.502.055l-.138 2.996c-.012 0-1.146-.051-3.364-.051-1.97 0-4.162.039-6.516.115m-402.412-38.324c-.614-3.049-14.881-75.649-.677-160.655 8.38-50.158 25.028-94.052 49.477-130.465 30.667-45.67 73.666-79.537 127.805-100.66l4.726 12.11c-93.862 36.623-150.785 111.03-169.186 221.156-13.813 82.667.453 155.223.6 155.946Z"/><path fill="currentColor" d="m527.208 164.129-46.845-1.979 12.287 21.619 12.286 21.619zM337.824 584.033l18.521-43.074-24.576 3.789-24.576 3.788z"/></svg>