<svg xmlns="http://www.w3.org/2000/svg" data-name="hold hands - link up" viewBox="0 0 299.122 387.608"><path fill="currentColor" d="M68.927 122.561a.035.035 0 0 0-.07 0 44.6 44.6 0 0 1-1.226 9.067 33.6 33.6 0 0 1-2.959 8.316 30.2 30.2 0 0 1-4.904 6.897 35.4 35.4 0 0 1-6.12 4.958 27.9 27.9 0 0 1-8.272 3.604.063.063 0 0 0 .016.123 19.6 19.6 0 0 0 4.022-.575 25 25 0 0 0 3.874-1.49 22.9 22.9 0 0 0 6.765-4.835 32.2 32.2 0 0 0 8.251-15.7 34 34 0 0 0 .731-4.998 45 45 0 0 0-.108-5.367m-1.304 51.724a35 35 0 0 1-3.245-2.045 13 13 0 0 1-1.614-1.307 12 12 0 0 0-1.31-1.474c-.295-.21-.642-.24-.931-.478a10 10 0 0 1-.685-.672q-.674-.681-1.307-1.403a40 40 0 0 1-2.554-3.202c-.037-.052-.122-.005-.087.052a27 27 0 0 0 2.302 3.218q.652.769 1.351 1.495.366.38.744.747c.273.265.282.548.496.832a5 5 0 0 0 1.526 1.012c.57.351 1.109.742 1.662 1.12a30 30 0 0 0 3.628 2.145c.027.014.05-.025.024-.04m99.711 82.053a27.6 27.6 0 0 0-8.313-1.823 259 259 0 0 0-6.862-.376c.015-.017.04-.024.046-.046.047-.206-.113-.303-.251-.43q-.233-.209-.472-.411a25 25 0 0 0-.969-.797c-.662-.514-1.331-1.016-1.987-1.537-.031-.025-.076.018-.045.044.64.536 1.24 1.105 1.83 1.695.286.287.577.567.868.849l.448.436c.06.057.121.126.188.18l-1.726-.078-1.763-.077a9 9 0 0 0-1.019-.736c-.552-.408-1.115-.803-1.656-1.227a30 30 0 0 1-2.824-2.61c-1.802-1.831-3.506-3.759-5.236-5.657-.01-.012-.026.005-.016.016 1.678 1.993 3.385 3.957 5.214 5.814a57 57 0 0 0 4.632 4.361 107 107 0 0 1-3.763-.223.8.8 0 0 0-.141-.164q-.287-.26-.578-.515c-.41-.36-.831-.707-1.256-1.051q-1.256-1.018-2.482-2.072c-.01-.008-.023.005-.014.014.71.686 1.415 1.378 2.106 2.084.34.347.674.703 1.028 1.037q.265.25.532.499l.111.103a52 52 0 0 1-1.672-.172 31 31 0 0 1-2.201-.379c-.132-.104-.261-.21-.398-.309a16 16 0 0 1-1.563-1.231q-1.383-1.275-2.692-2.626a73 73 0 0 1-4.946-5.658c-.008-.01-.026.004-.018.014a62 62 0 0 0 5.56 6.412c.993.996 2.12 1.895 3.049 2.948.098.111.205.21.307.315a26 26 0 0 0-1.281-.216 9 9 0 0 1-1.093-.228c-1.298-1.053-2.622-2.071-3.865-3.196a62 62 0 0 1-4.599-4.62c-.018-.02-.048.01-.03.031a54 54 0 0 0 4.563 4.775c1.04.96 2.13 1.93 3.276 2.804a26 26 0 0 1-2.26-.902 28.4 28.4 0 0 1-7.862-4.925.027.027 0 0 0-.039.038 29.8 29.8 0 0 0 6.338 5.095 26 26 0 0 0 3.684 1.725 27 27 0 0 0 3.977 1.39 34.4 34.4 0 0 0 8.96.748c1.514-.081 3.028-.177 4.543-.246 1.503-.068 3.02-.194 4.524-.197a44 44 0 0 1 4.904.352 30 30 0 0 1 5.192 1.001c.03.01.04-.034.012-.045m11.54 18.837a105 105 0 0 0-18.566-6.388q-2.516-.645-5.027-1.308a8.6 8.6 0 0 0-1.193-1.042q-.795-.658-1.603-1.3a48 48 0 0 0-3.205-2.344c-.024-.015-.053.022-.03.04 1.04.863 2.09 1.712 3.139 2.566q.776.633 1.54 1.28c.226.19.453.415.693.62-1.024-.273-2.048-.544-3.068-.83a37 37 0 0 0-6.451-3.993.025.025 0 0 0-.026.044c2.077 1.247 4.074 2.62 6.154 3.86-.166-.047-.332-.089-.498-.136-1.57-.45-3.127-.924-4.711-1.321q-1.185-.297-2.366-.612a9 9 0 0 0-2.61-.606 4 4 0 0 1-1.347-.058c-.43-.107-.856-.227-1.286-.333-.895-.22-1.798-.402-2.691-.632a36 36 0 0 1-5.484-2.023c-.037-.016-.069.037-.032.054 1.542.704 3.119 1.322 4.67 2.003 1.444.633 2.855 1.317 4.337 1.86a3.5 3.5 0 0 1 1.134.58 2.7 2.7 0 0 0 1.08.559q1.226.356 2.458.688c1.616.437 3.228.837 4.874 1.141 3.294.608 6.594 1.189 9.868 1.9 3.188.694 6.351 1.485 9.524 2.244a69 69 0 0 1 10.699 3.544c.032.014.056-.042.024-.057m12.98-23.045c-1.06-1.285-2.153-2.544-3.176-3.86a9.7 9.7 0 0 0-1.669-1.61c-.638-.508-1.367-.803-2.008-1.294a45 45 0 0 1-3.748-3.029 36 36 0 0 1-3.046-3.338c-.011-.014-.035.005-.025.019a88 88 0 0 0 6.025 6.988c.574.606.963 1.31 1.537 1.92a9.7 9.7 0 0 0 1.868 1.577c1.406.88 2.769 1.827 4.152 2.745.075.05.14-.056.09-.117m-40.777-56.467c-.386 7.835-1.163 15.653-1.739 23.476-.007.109.177.136.192.026a213 213 0 0 0 1.688-23.502c.003-.09-.136-.09-.14 0m-54.9 99.828c.068-.108-.098-.201-.169-.099a16 16 0 0 0-2.667 6.049 14.2 14.2 0 0 0-.215 3.2 8.5 8.5 0 0 0 .82 3.114.114.114 0 0 0 .21-.057c-.094-1.048-.093-2.106-.145-3.158a17.4 17.4 0 0 1 .13-2.99 14.5 14.5 0 0 1 2.036-6.06m.289 9.179c-.007-.039-.067-.022-.06.017l.28 1.527c.006.03.051.017.046-.013Z"/><path fill="currentColor" d="M298.612 352.315a34.6 34.6 0 0 0-2.447-10.14 36.6 36.6 0 0 0-5.692-8.319 64.4 64.4 0 0 0-13.826-12.222 45 45 0 0 0-4.444-2.649 39 39 0 0 0-2.18-.99c-1.81-1.468-3.637-2.893-5.57-4.213a460 460 0 0 0-7.095-4.725 166 166 0 0 0-14.166-8.735 77.9 77.9 0 0 0-29.1-8.478 45 45 0 0 0-4.12-.148 5 5 0 0 0-1.103-3.465 19 19 0 0 0-3.326-3.473 33 33 0 0 1-3.701-3.641c-.865-1.042-1.643-2.15-2.453-3.234a4 4 0 0 0-.246-.672 11.3 11.3 0 0 1-.7-1.814 14.4 14.4 0 0 1-.538-3.64 13.6 13.6 0 0 1 .481-3.731 9.9 9.9 0 0 0 .46-3.828 17 17 0 0 0-.963-3.396 15 15 0 0 1-.603-2.352c.512-1.248.96-2.528 1.43-3.79.602-1.617 1.287-3.196 1.928-4.797 1.287-3.213 2.403-6.502 3.408-9.814a208 208 0 0 0 4.924-20.527q2.038-10.44 3.733-20.956a198 198 0 0 0 2.447-21.399 138 138 0 0 0 .18-7.76c.878-3.715 1.784-7.422 2.606-11.149q1.471-6.676 2.757-13.384a227 227 0 0 0 3.816-26.825c.622-9.084-.02-18.175-.465-27.253-.447-9.119-.833-18.246-1.417-27.357-.286-4.452-.655-8.896-1.216-13.322A86.6 86.6 0 0 0 219 37.171c-.304-1.059-.639-2.105-.93-3.168a.027.027 0 0 0-.053.014c.499 2.147.785 4.354 1.112 6.534.334 2.226.692 4.447.97 6.682.545 4.372.894 8.768 1.165 13.164.553 8.978.796 17.977 1.16 26.965.37 9.095 1.037 18.233.654 27.336a193 193 0 0 1-3.37 26.703c-1.554 8.453-3.185 16.885-4.426 25.39-.018-.575-.03-1.152-.057-1.728a72.5 72.5 0 0 0-1.62-11.802c-.013-.056-.09-.03-.083.023a112 112 0 0 1 .667 21.46 194 194 0 0 1-2.709 21.341q-1.795 10.453-3.803 20.869c-1.305 6.837-2.757 13.655-4.673 20.35a140 140 0 0 1-3.66 10.992q-.433 1.154-.825 2.326c-.285-.726-.617-1.438-.925-2.148-.46-1.062-.918-2.125-1.385-3.185q-.443-1.007-.909-2.003a15 15 0 0 0-.888-2.727 26 26 0 0 0-.9-1.828 57 57 0 0 0-1.116-4.475 172 172 0 0 1 2.986 5.57c1.33 2.61 2.453 5.327 3.803 7.925.02.037.082.011.068-.029a65 65 0 0 0-3.651-7.887 113 113 0 0 0-3.327-5.974 40 40 0 0 0-.962-2.827q-1.417-3.66-2.902-7.293c-1.869-4.592-3.637-9.28-5.862-13.716a33.6 33.6 0 0 0-3.593-5.755 26.5 26.5 0 0 0-5.037-4.758 63 63 0 0 1-5.692-4.438 44 44 0 0 1-4.686-5.386 93 93 0 0 0-9.795-15.678c-.754-8.127-1.789-16.235-3.19-24.272a62.2 62.2 0 0 0-3.439-13.155 52.6 52.6 0 0 0-6.675-11.193c-1.856-2.492-3.761-4.977-5.77-7.372l1.088.162c1.589.24 3.16.522 4.732.858.787.17 1.56.353 2.333.569a11.4 11.4 0 0 0 2.419.202 47 47 0 0 1 4.849.58 93.2 93.2 0 0 1 18.447 4.701 72 72 0 0 1 9.874 4.678.02.02 0 0 0 .02-.034 76.3 76.3 0 0 0-17.535-7.48c-3.1-.938-6.222-1.788-9.38-2.512-1.6-.367-3.22-.662-4.807-1.079-.704-.184-1.416-.356-2.106-.583a10.8 10.8 0 0 0-2.62-.335c-1.816-.149-3.629-.277-5.438-.49q-1.303-.154-2.607-.301l-.212-.027c-.192-.222-.394-.435-.587-.655l.87.036c1.05.046 2.1.111 3.15.178 2.027.13 4.047.324 6.064.557a103 103 0 0 1 12.18 2.19 108 108 0 0 1 23.27 8.3 118 118 0 0 1 12.05 6.974c.046.03.088-.043.043-.075a112.5 112.5 0 0 0-45.895-18.224q-3.406-.536-6.843-.838-1.736-.155-3.476-.236c-.58-.027-1.16-.055-1.74-.068a4 4 0 0 0-.719.04 61 61 0 0 0-8.365-7.753 43 43 0 0 0-11.127-5.93c-2.18-.798-4.397-1.502-6.614-2.187-2.297-.71-4.6-1.51-6.942-2.056a46 46 0 0 0-3.035-.595 35.5 35.5 0 0 0-7.29-3.895 54.4 54.4 0 0 1 11.263 1.382.021.021 0 0 0 .012-.042 43.3 43.3 0 0 0-11.85-1.571 63 63 0 0 0-3.228-1.168c.01-.112.02-.226.035-.332a19 19 0 0 0 .208-2.256c.012-1.507-.062-3.02-.144-4.524a134 134 0 0 0-.817-9.027c-.739-6.026-1.8-12.007-2.686-18.012a132 132 0 0 1-1.619-18.147 115 115 0 0 1 1.458-18.412c.53-3.442 1.191-6.861 1.887-10.273.696-3.415 1.355-6.84 2.1-10.245a.05.05 0 0 0-.099-.027c-.879 2.989-1.79 5.966-2.522 8.995q-1.1 4.542-1.944 9.138a126.6 126.6 0 0 0-2.105 18.162c-.458 12.265 1.783 24.33 3.293 36.448.423 3.395.807 6.796 1.03 10.21.108 1.665.18 3.332.206 5 .014.88.074 1.745.156 2.622q.009.093.014.187c-.77-.24-1.539-.471-2.298-.69-5.138-1.48-10.628-2.894-15.97-1.672-4.183.957-7.7 3.503-11.075 6.03-3.761 2.815-7.547 5.798-12.112 7.18-2.154.036-4.3.005-6.456-.157-5.325-.4-10.637-1.287-15.992-1.01a25.6 25.6 0 0 0-11.49 3.202 15.54 15.54 0 0 0-7.228 8.717c-1.358 4.413-.7 9.43.593 13.784 2.577 8.687 8.498 15.975 15.845 21.137a53.5 53.5 0 0 0 12.314 6.384 78 78 0 0 0 6.777 2.15q.175.046.352.09c-.72 8.315-1.096 16.672-2.078 24.962-.957 8.08-2.95 16.035-4.787 23.95a185.5 185.5 0 0 0-4.389 23.832c-.384 3.941-.638 7.991.414 11.856a25.6 25.6 0 0 0 4.773 9.053 44.2 44.2 0 0 0 7.823 7.47 123 123 0 0 0 4.802 3.488q.722.503 1.452 1.006c.439.706.897 1.4 1.313 2.126a24 24 0 0 1 1.727 3.759 49.3 49.3 0 0 1 2.088 8.106c1.02 5.61 1.407 11.36 3.2 16.806a25.4 25.4 0 0 0 3.81 7.5 22.7 22.7 0 0 0 6.022 5.39c4.724 2.968 10.177 4.487 15.546 5.805 3.238.795 6.491 1.548 9.665 2.579a41 41 0 0 1 4.659 1.796c1.174.545 2.323 1.06 3.523 1.495a48 48 0 0 0 1.775 2.206 44 44 0 0 0 5.608 5.456c2.166 1.762 4.457 3.362 6.678 5.052a90 90 0 0 1 11.287 10.94c3.45 3.73 7.178 7.653 11.79 9.941a13.54 13.54 0 0 0 6.977 1.49 15.3 15.3 0 0 0 6.396-1.948 16 16 0 0 0 1.888-1.26 20 20 0 0 0 1.841 1.194 48 48 0 0 0 2.676 1.537c1.812.975 3.663 1.884 5.513 2.784 3.833 1.866 7.705 3.651 11.563 5.463a57 57 0 0 0 6.05 2.268c.555.39 1.109.783 1.67 1.167 3.458 2.37 6.98 4.649 10.466 6.978 6.97 4.656 13.858 9.434 20.703 14.273a18 18 0 0 0 5.298 2.864c1.234.352 2.905.491 3.963-.306a6.82 6.82 0 0 0 4.274.293 32.7 32.7 0 0 0 5.478-1.907c3.418-1.44 6.459-3.57 7.665-7.237a17.9 17.9 0 0 0 .705-5.794 63 63 0 0 0-.267-4.847c7.877 8.627 20.172 15.715 32.13 12.053a11.3 11.3 0 0 0 6.881-5.191 13.3 13.3 0 0 0 1.455-6.355 18.6 18.6 0 0 0 5.63 3.003 9.9 9.9 0 0 0 3.84.624 4.7 4.7 0 0 0 1.705-.434 2.4 2.4 0 0 0 .646-.425.95.95 0 0 0 .237-.362 9.17 9.17 0 0 0 4.765-.771 10.2 10.2 0 0 0 5.13-6.765c.894-3.464.43-7.096.001-10.591M196.053 245.482q.614 1.449 1.234 2.896c.367.856.708 1.74 1.122 2.581q-.36 1.088-.698 2.183c-.11-.367-.251-.73-.375-1.081q-.279-.784-.549-1.57-.546-1.616-1.11-3.226c.004-.356.008-.713-.005-1.069a16 16 0 0 0-.24-2.172q.314.728.621 1.458m-.687 5.128a4.8 4.8 0 0 0 .245-1.533 33 33 0 0 0 .067-1.638q.384 1.607.901 3.175c.18.546.361 1.094.559 1.634a12 12 0 0 0 .485 1.173c-.042.14-.09.279-.132.418a34 34 0 0 0-.575 2.167 12.4 12.4 0 0 0-1.853-4.757c.104-.213.214-.424.303-.64m-32.212-61.44c-3.048-4.055-5.89-8.3-9.13-12.21-.075-.896-.17-1.79-.252-2.685a143 143 0 0 1 9.382 14.896m-11.663 159.957c-.656-.323-1.33-.715-2.023-1.027a17 17 0 0 0 1.297-1.28l.12.233q.257.511.527 1.015.406.75.87 1.46c-.264-.133-.526-.27-.791-.4m3.077 1.556q-1.013-.514-2.028-1.025a19 19 0 0 0-.843-1.71c-.19-.346-.39-.686-.59-1.026l-.17-.292a18 18 0 0 0 1.284-1.616q.782 1.784 1.62 3.544c.346.73.7 1.458 1.053 2.186l.06.128c-.128-.064-.258-.124-.386-.189m.892.436q-.1-.197-.195-.391c-.368-.753-.734-1.506-1.108-2.255q-.9-1.805-1.851-3.578a19 19 0 0 0 1.555-2.706q1.048 2.668 2.148 5.313c.675 1.622 1.295 3.305 2.07 4.888-.873-.423-1.751-.837-2.619-1.271m2.843 1.38c-.59-1.726-1.387-3.405-2.094-5.08q-1.127-2.669-2.305-5.313a19.5 19.5 0 0 0 1.104-3.009c.983 2.742 2.052 5.45 3.135 8.153q.795 1.988 1.605 3.971a17.4 17.4 0 0 0 1.172 2.52c-.872-.415-1.747-.822-2.617-1.242m128.943 17.925a4.2 4.2 0 0 1-1.642.278 10.8 10.8 0 0 1-3.546-.782 18.7 18.7 0 0 1-3.52-1.71 24 24 0 0 1-1.616-1.128 15 15 0 0 0-.3-.219q-.026-.495-.076-.984c-.009-.086-.027-.17-.036-.255l.118.067c.816.49 1.64.948 2.496 1.365 1.575.766 3.163 1.524 4.795 2.166a19.3 19.3 0 0 0 3.605 1.059 3 3 0 0 1-.278.143m7.55-3.526a6.74 6.74 0 0 1-4.29 2.161 12.4 12.4 0 0 1-5.167-.79 49 49 0 0 1-5.313-2.287 73 73 0 0 0-2.6-1.187 25 25 0 0 1-1.107-.514 45 45 0 0 0-1.817-7.124 59.1 59.1 0 0 0-14.506-23.281c-4.956-4.88-10.803-8.62-16.603-12.397-6.128-3.991-12.218-8.052-18.486-11.82a164 164 0 0 0-9.53-5.282q-2.447-1.259-4.94-2.424c-1.518-.708-3.066-1.364-4.544-2.155a29.7 29.7 0 0 1-4.287-3.067 32 32 0 0 0-4.068-2.761 36.3 36.3 0 0 0-8.855-3.513 37 37 0 0 0-2.358-.522c-.202-.09-.396-.193-.605-.272-.974-.366-1.978-.66-2.978-.944a63 63 0 0 0-6.08-1.43 67 67 0 0 0-12.176-1.025 66 66 0 0 0-7.047.5c-.024.003-.025.041 0 .04a71.6 71.6 0 0 1 24.198 2.441c.1.027.198.061.298.089a65 65 0 0 0-3.141-.226 76 76 0 0 0-11.354.281 285 285 0 0 0-5.428.63c-.068.009-.073.112 0 .11 3.618-.106 7.243-.172 10.863-.173a62 62 0 0 1 10.633.829c6.167 1.076 12.252 3.247 17.186 7.182a27 27 0 0 0 4.083 2.857c1.471.785 3.015 1.42 4.526 2.123q4.775 2.223 9.36 4.814c6.115 3.475 12.01 7.302 17.895 11.147 5.78 3.776 11.699 7.418 17.13 11.692a58.2 58.2 0 0 1 12.471 13.38 57.2 57.2 0 0 1 7.482 16.154c.32 1.126.628 2.345.87 3.6a.26.26 0 0 0-.09.428l.206.196c.719 4.172.57 8.662-2.714 11.57a14.3 14.3 0 0 1-8.092 3.064 22.6 22.6 0 0 1-4.844-.074c-.821-.716-1.667-1.39-2.418-2.185a17.5 17.5 0 0 1-2.124-2.753.02.02 0 0 0-.034.02 15 15 0 0 0 2.008 2.823 11.2 11.2 0 0 0 2.382 2.07q-.736-.091-1.468-.223a44 44 0 0 1-.867-.719c-.148-.126-.29-.26-.435-.388-.241-.29-.58-.519-.83-.8a10.4 10.4 0 0 1-1.365-2.108c-.868-1.645-1.747-3.308-2.456-5.03a16.2 16.2 0 0 1-1.448-5.165 11.2 11.2 0 0 1 .918-5.417.04.04 0 0 0-.067-.04 9.47 9.47 0 0 0-1.33 5.037 17.3 17.3 0 0 0 .931 5.51 45 45 0 0 0 2.419 5.353 13.3 13.3 0 0 0 1.33 2.216 6.5 6.5 0 0 0 .98 1.004 1.4 1.4 0 0 0 .202.137q-.023-.003-.043-.01a31.3 31.3 0 0 1-4.83-1.734l-.308-.474a17 17 0 0 1-.97-1.746 21.6 21.6 0 0 1-1.413-3.899 23.3 23.3 0 0 1-.557-8.21c.001-.01-.014-.01-.015 0a25.2 25.2 0 0 0 .258 8.401 17.3 17.3 0 0 0 1.281 3.853c.248.528.521 1.119.85 1.67a39.7 39.7 0 0 1-9.48-6.525q-1.642-1.507-3.135-3.165l-.055-.042c-.149-.458-.291-.92-.428-1.367a14.5 14.5 0 0 1-.575-3.2 9 9 0 0 1 1.152-5.605 4.1 4.1 0 0 1 .854-.936 4.8 4.8 0 0 1 1.509-.958 7.24 7.24 0 0 1 3.485.277 51 51 0 0 1 6.74 2.183c.046.019.066-.056.02-.075a51 51 0 0 0-6.079-2.099 15 15 0 0 0-2.645-.526 8.5 8.5 0 0 0-1.348.012 10.5 10.5 0 0 0-1.371.089c-1.493.309-2.481 1.899-2.956 3.222a9 9 0 0 0-.419 1.858 31 31 0 0 0-1.262-3.778 25.4 25.4 0 0 0-6.836-9.48c-3.147-2.783-6.472-5.396-9.768-7.999-3.266-2.579-6.594-5.085-10.06-7.391a93 93 0 0 0-5.236-3.25 47 47 0 0 0-5.557-2.861c-.138-.057-.28-.097-.42-.143a12 12 0 0 0-1.093-.732 11 11 0 0 0-2.251-1.118c-.414-.133-.814-.3-1.228-.431a2.7 2.7 0 0 0-.594-.105 8 8 0 0 0-.58-1.081 16.4 16.4 0 0 0-2.353-2.73 60 60 0 0 0-5.8-4.643l-14.56-10.787c-2.3-1.704-4.602-3.414-7.024-4.945-2.22-1.403-4.7-2.527-6.584-4.395a31 31 0 0 1-2.554-3.043 101 101 0 0 0-2.552-3.131 63 63 0 0 0-5.432-5.624 134 134 0 0 0-13.908-10.68c-.029-.02-.066.026-.038.049 4.061 3.224 8.101 6.53 11.917 10.043a71 71 0 0 1 5.408 5.506 42 42 0 0 1 2.492 3.11c.766 1.066 1.446 2.188 2.25 3.228a19.5 19.5 0 0 0 5.875 4.9 82 82 0 0 1 6.947 4.574c4.779 3.48 9.503 7.034 14.252 10.554 2.373 1.759 4.81 3.46 7.054 5.386a35 35 0 0 1 2.94 2.78 34 34 0 0 1 2.777 3.144c.087.122.306.054.257-.108a23 23 0 0 0-.353-1.053c.2.134.402.265.592.41a23 23 0 0 0 2.149 1.422q.442.264.895.514a8 8 0 0 0 .817.513c.84.45 1.703.853 2.549 1.292a82 82 0 0 1 5.16 2.933c3.323 2.046 6.512 4.302 9.62 6.66 3.15 2.39 6.216 4.891 9.272 7.402 3.006 2.469 6.089 4.898 8.18 8.234a29 29 0 0 1 3.692 9.952 54 54 0 0 1 .966 10.764 13.5 13.5 0 0 1-.976 5.485 9.26 9.26 0 0 1-3.26 3.741 22.3 22.3 0 0 1-4.529 2.28 15.6 15.6 0 0 1-5.55 1.527 4.7 4.7 0 0 1-1.538-.278.16.16 0 0 0-.075-.03 9.7 9.7 0 0 1-3.24-2.31 23.2 23.2 0 0 1-3.37-4.107 23 23 0 0 1-2.384-4.788 31.4 31.4 0 0 1-1.224-5.099 23 23 0 0 1-.351-2.8.047.047 0 0 0-.094 0 19.4 19.4 0 0 0 .29 5.502 30 30 0 0 0 1.752 5.257 21.6 21.6 0 0 0 6.455 8.563 6.2 6.2 0 0 1-2.255-.274 17 17 0 0 1-4.543-2.585q-4.9-3.544-9.873-6.984c-2.445-1.694-4.911-3.36-7.375-5.026-.19-.456-.401-.903-.585-1.362a10.2 10.2 0 0 1-.752-3.059 7 7 0 0 1 .434-3.028 2.66 2.66 0 0 1 2.516-1.915 13 13 0 0 1 3.373.482 35 35 0 0 1 3.22.937c1.11.378 2.2.81 3.274 1.284 1.09.48 2.232.903 3.291 1.444a.02.02 0 0 0 .02-.034 31 31 0 0 0-2.682-1.604 33 33 0 0 0-2.728-1.161 48 48 0 0 0-5.991-1.798c-1.696-.4-3.446-.382-4.602 1.104a6.7 6.7 0 0 0-1.032 5.023 11.7 11.7 0 0 0 .749 2.669c-.409-.276-.812-.558-1.222-.833-3.343-2.24-6.678-4.525-10.118-6.615-1.962-1.192-3.965-2.312-5.93-3.5a51 51 0 0 0-6.061-3.28c-.041-.017-.093.034-.052.068a43 43 0 0 0 3.454 2.62L165.676 356c-1.489-.7-2.973-1.41-4.46-2.117a76 76 0 0 1-3.024-7.024c-1.052-2.614-2.081-5.236-3.16-7.84l-.002-.001c2.91-10.66-2.273-21.156-7.46-30.182q-4.266-7.422-9.231-14.408-2.42-3.408-5.035-6.66a27.8 27.8 0 0 0-5.149-5.209 10.2 10.2 0 0 0-2.401-1.26 4 4 0 0 0-.407-.188 2.78 2.78 0 0 0-.153-2.183c-.426-1.114-.922-2.208-1.423-3.29a69 69 0 0 0-3.54-6.656 70 70 0 0 0-8.963-11.797 76 76 0 0 0-2.628-2.638 7.5 7.5 0 0 1-1.252-1.411 7 7 0 0 1-.684-1.765 26 26 0 0 0-3.416-6.941 73 73 0 0 0-9.242-11.393q-1.738-1.749-3.595-3.378a8.6 8.6 0 0 0-.994-1.604 46 46 0 0 0-1.731-2.238 62 62 0 0 0-3.907-4.25 51.3 51.3 0 0 0-8.787-7.085 56 56 0 0 0-5.78-3.164c-.015-.007-.029.015-.013.024a55.1 55.1 0 0 1 17.49 14.331q.913 1.156 1.778 2.35c-.194-.157-.384-.318-.58-.472a69 69 0 0 0-6.876-4.62c-.035-.021-.063.031-.031.054a85 85 0 0 1 10.963 9.433 75.6 75.6 0 0 1 9.043 11.02 35.7 35.7 0 0 1 3.623 6.364c.454 1.114.687 2.307 1.167 3.408a9.2 9.2 0 0 0 2.273 2.798 68 68 0 0 1 9.254 11.097 69 69 0 0 1 4.03 6.868q.918 1.797 1.73 3.646c.271.616.526 1.239.785 1.86a2.5 2.5 0 0 1 .274 1.745c-.13.338.29.637.59.494l.034.026a7 7 0 0 0 .694.414c.48.27.968.545 1.438.834.265.162.533.319.799.48 2.843 2.44 5.015 5.567 7.23 8.612q4.829 6.636 9.057 13.677a102.6 102.6 0 0 1 7.527 14.262 31.8 31.8 0 0 1 2.617 14.881 17.9 17.9 0 0 1-5.907 12.148 13.17 13.17 0 0 1-11.918 2.929c-.147-.043-.29-.098-.436-.146a8 8 0 0 0-.71-.42 6.3 6.3 0 0 1-1.344-.92 10.4 10.4 0 0 1-2.108-2.709 22.6 22.6 0 0 1-2.294-7.682c-.208-1.475-.285-2.956-.367-4.442a7.9 7.9 0 0 0-.8-3.504 6.14 6.14 0 0 0-2.864-2.25c-1.383-.69-2.758-1.402-4.155-2.065a5.25 5.25 0 0 0-3.875-.66 2.91 2.91 0 0 0-2.016 2.203c-.004.029.038.042.046.012a2.56 2.56 0 0 1 3.05-1.59 12.9 12.9 0 0 1 3.815 1.555c1.26.643 2.573 1.23 3.787 1.958a3.95 3.95 0 0 1 1.904 3.008c.204 1.296.196 2.624.364 3.926a43 43 0 0 0 .725 4.009 24 24 0 0 0 2.354 6.536 10 10 0 0 0 .823 1.236 30 30 0 0 1-2.526-1.83 55 55 0 0 1-5.356-5.004c-3.397-3.552-6.55-7.358-10.288-10.567-4.038-3.466-8.603-6.252-12.467-9.93a58 58 0 0 1-5.051-5.455c-1.567-1.927-2.858-4.012-4.258-6.055-.668-.974-1.248-2.023-1.848-3.04-.026-.045-.103-.016-.086.035a33 33 0 0 0 1.883 4.455q-.719-.652-1.492-1.25a25.8 25.8 0 0 0-6.53-3.48c-2.261-.88-4.647-1.727-6.437-3.434-1.826-1.742-2.953-4.072-4.163-6.25a242 242 0 0 0-17.733-27.748c-1.825-2.434-3.741-4.804-5.632-7.188-1.954-2.463-4.065-4.77-6.167-7.106-.056-.061-.168.022-.117.09 1.656 2.194 3.203 4.47 4.858 6.665 1.662 2.205 3.233 4.463 4.813 6.727 3.163 4.528 6.274 9.1 9.262 13.746q4.456 6.927 8.5 14.108a54 54 0 0 0 3.898 6.544 13.85 13.85 0 0 0 5.824 4.307 65 65 0 0 1 7.538 3.312 36 36 0 0 1 4.995 3.516c.252.414.516.82.783 1.225a28.5 28.5 0 0 0-4.447-1.91 87 87 0 0 0-8.674-2.471c-5.39-1.314-10.883-2.545-15.829-5.153a24.1 24.1 0 0 1-6.433-4.814 21.3 21.3 0 0 1-4.307-7.162c-1.984-5.318-2.436-11.008-3.37-16.562a43 43 0 0 0-2.375-9.069 25.4 25.4 0 0 0-2.018-3.97c-.081-.13-.17-.254-.254-.382q.662.42 1.338.806c.856.488 1.742.922 2.613 1.383a.173.173 0 0 0 .208-.27 33 33 0 0 0-4.293-3.785c-1.559-1.16-3.174-2.245-4.753-3.377a55 55 0 0 1-8.39-7.115 26.7 26.7 0 0 1-5.553-8.549 25.9 25.9 0 0 1-1.163-11.344 159 159 0 0 1 4.054-23.59c1.782-7.778 3.628-15.523 4.686-23.44 1.107-8.294 1.525-16.678 2.141-25.02.06-.8.106-1.602.156-2.404a37.6 37.6 0 0 0 6.13 1.073 15 15 0 0 0 2.04-.002 12 12 0 0 0 1.447.17c.559.03 1.113.047 1.666.042a10.4 10.4 0 0 0 1.723 2.766 35 35 0 0 0 2.325 3.052 57 57 0 0 0 5.393 5.585.023.023 0 0 0 .033-.033 41.7 41.7 0 0 1-4.85-5.867c-.667-1.004-1.31-2.03-1.942-3.057-.458-.746-.782-1.743-1.299-2.519.191-.018.382-.033.573-.06a22.3 22.3 0 0 0 6.077-1.871.7.7 0 0 0 .156.103 4.3 4.3 0 0 0 .759.196 3.2 3.2 0 0 1 1.409.606c.356.295.693.614 1.03.932.491.671.991 1.335 1.535 1.965a62 62 0 0 0 3.795 4.048 51.4 51.4 0 0 0 8.657 6.947c1.81 1.115 3.613 2.245 5.496 3.233a.035.035 0 0 0 .036-.06 47 47 0 0 1-4.619-3.058c-1.451-1.121-2.825-2.346-4.206-3.552a53 53 0 0 1-7.431-7.986q-.896-1.189-1.774-2.393-.456-.623-.906-1.252a7 7 0 0 0-.484-.643c-.016-.044-.036-.086-.05-.13a2 2 0 0 1-.044-.34c.37-.09.74-.179 1.107-.275a82 82 0 0 0 3.198-.92c.14.043.28.09.421.131.52.156 1.045.298 1.57.435a33 33 0 0 0 3.42.68 46 46 0 0 0 6.896.543 50 50 0 0 0 6.862-.57 43 43 0 0 0 6.751-1.7.078.078 0 0 0-.042-.15 57 57 0 0 1-6.255.879 51 51 0 0 1-6.035.296 72 72 0 0 1-11.704-1.13 30.8 30.8 0 0 0 9.07-4.657 23.6 23.6 0 0 0 4.129-4.002.066.066 0 0 0-.094-.093 35.7 35.7 0 0 1-8.513 5.273 99 99 0 0 1-7.21 2.996 1.2 1.2 0 0 0-.42.043c-.176-.02-.353-.036-.529-.065l-.132-.022a28.7 28.7 0 0 0 5.56-6.05 28.1 28.1 0 0 0 3.497-7.063c.04-.126-.14-.191-.207-.087a59.3 59.3 0 0 1-8.19 10.644 25.06 25.06 0 0 1-11.928 6.571 29 29 0 0 1-3.758.655c-.626.05-1.253.05-1.88.076-.283.012-.57.037-.857.06a46 46 0 0 0-1.27-.209c-1.22-.178-2.434-.355-3.642-.608a56 56 0 0 1-2.548-.605.57.57 0 0 0-.642-.167q-1.902-.515-3.772-1.137a61 61 0 0 1-12.176-5.563c-7.45-4.479-13.755-10.814-17.263-18.854a29.7 29.7 0 0 1-2.627-12.725 13.39 13.39 0 0 1 5.223-10.527 22.85 22.85 0 0 1 10.21-4.118c4.77-.744 9.677-.145 14.44.352 2.542.266 5.086.535 7.64.623 2.529.087 5.054-.07 7.581-.072 4.22-.005 8.665.639 11.927 3.562a7.9 7.9 0 0 1 1.768 2.258c.064.124.278.038.228-.096-1.42-3.819-4.992-5.981-8.856-6.746a28.3 28.3 0 0 0-5.814-.427c6.444-2.551 11.269-8.492 17.855-10.885a16 16 0 0 1 2.67-.708 23.2 23.2 0 0 1 5.306 1.633 16.64 16.64 0 0 1 6.603 5.147c.012.016.04-.005.028-.021a17.9 17.9 0 0 0-6.46-5.606 16 16 0 0 0-4.047-1.326l-.068-.01a21 21 0 0 1 3.647-.007c.44.253.88.511 1.306.785.93.596 1.78 1.293 2.72 1.87a29.6 29.6 0 0 1 5.153 4.336c.015.015.035-.007.023-.022a44 44 0 0 0-5-4.69 16.4 16.4 0 0 0-2.749-1.747c-.308-.171-.618-.331-.928-.495a42 42 0 0 1 6.935 1.397c1.773.488 3.547 1.007 5.3 1.584l.04.085a.238.238 0 0 0 .372.051 54 54 0 0 1 6.755 2.728 52 52 0 0 1 6.15 3.691 23 23 0 0 1 5.169 4.957c.123.158.343-.043.263-.204a19.3 19.3 0 0 0-3.994-5.375c3.206 1.277 6.544 2.248 9.82 3.314a49.7 49.7 0 0 1 11.748 5.226c6.715 4.33 11.993 10.537 16.883 16.765a71 71 0 0 1 7.254 10.667 45.8 45.8 0 0 1 4.086 12.491 266 266 0 0 1 3.916 27.803c.428 4.69.717 9.391 1.071 14.087.355 4.693.381 9.416.597 14.116q.078 1.719.17 3.438a.152.152 0 0 0 .304 0 135 135 0 0 0 .302-14.364c-.055-2.167-.087-4.335-.154-6.502.139.276.277.552.441.816.263.423.55.832.84 1.235.578.797 1.195 1.566 1.79 2.35.025.034.08.005.057-.033-.514-.85-1.002-1.716-1.538-2.553a22 22 0 0 0-.812-1.195c-.244-.33-.521-.626-.786-.935l-.008-.297a89 89 0 0 0-.16-2.864c.555.788 1.152 1.554 1.699 2.34a148 148 0 0 1 2.336 3.48 2.4 2.4 0 0 0 .36.457 4.9 4.9 0 0 1 .897 1.099q.544.896 1.074 1.8c.721 1.235 1.364 2.538 2.15 3.733a.02.02 0 0 0 .033-.02 33 33 0 0 0-2.046-3.659q-.541-.897-1.1-1.784a7 7 0 0 1-.666-1.365 3.2 3.2 0 0 0-.32-.62q-1.139-1.76-2.348-3.472c-.678-.958-1.352-1.964-2.12-2.863-.083-1.123-.175-2.246-.265-3.367l-.01-.11c2.294 3.682 4.866 7.22 7.377 10.738a64 64 0 0 0 4.373 5.59 41 41 0 0 0 5.292 4.868 44 44 0 0 1 5.354 4.633 27.8 27.8 0 0 1 3.824 5.475 126 126 0 0 1 5.884 13.327q1.674 4.086 3.284 8.197c.455 1.165.91 2.329 1.408 3.476-.866-1.494-1.688-3.017-2.555-4.51-1.231-2.121-2.532-4.202-3.772-6.318a.047.047 0 0 0-.081.048c1.179 2.394 2.297 4.817 3.487 7.206 1.17 2.35 2.364 4.686 3.529 7.038 1.086 2.193 2.303 4.263 2.668 6.725a19.5 19.5 0 0 1 .135 3.714c-.027.611-.128 1.236-.112 1.847.001.038.009.077.011.115a43.3 43.3 0 0 0-5.154-5.11c-.04-.036-.1.022-.06.061 3.257 3.29 6.52 7.166 6.925 11.964a15.2 15.2 0 0 0 .705 3.673 20 20 0 0 1 1.071 3.571 10.8 10.8 0 0 1-.568 4.016 14 14 0 0 0-.377 3.468 12.7 12.7 0 0 0 .64 3.72 24.9 24.9 0 0 0-8.564-5.758 109 109 0 0 0-11.766-4.145c-4.77-1.412-9.629-2.4-14.507-3.363-.092-.018-.133.122-.04.143 4.146.934 8.181 2.223 12.22 3.535 3.92 1.274 7.816 2.657 11.614 4.264a28.1 28.1 0 0 1 9.434 5.976c2.587 2.683 4.509 5.927 7.325 8.4a52 52 0 0 1 3.908 3.521 8.5 8.5 0 0 1 1.404 1.953 15 15 0 0 1 .61 1.706c-1.135.019-2.268.053-3.396.092-1.432.05-2.854.158-4.278.32-1.39.16-2.78.492-4.163.718-.048.007-.037.089.011.084 2.464-.233 4.968-.174 7.442-.198a69 69 0 0 1 7.574.4 90.6 90.6 0 0 1 14.724 2.543 75.2 75.2 0 0 1 14.056 5.34 139 139 0 0 1 13.776 8.292c2.616 1.713 5.217 3.453 7.869 5.112q1.209.757 2.423 1.5-1.132-.446-2.282-.845c-1.666-.574-3.422-.812-5.121-1.25a.059.059 0 0 0-.031.114 31 31 0 0 1 4.187 1.644c1.32.605 2.705 1.077 4.034 1.668a68 68 0 0 1 7.624 4.272 65.8 65.8 0 0 1 13.579 10.969 56 56 0 0 1 5.684 6.986 23.9 23.9 0 0 1 3.665 9.095c.316 1.656.524 3.328.718 5.001a44 44 0 0 1 .375 5.049c0 2.947-.647 6.06-2.716 8.282"/><path fill="currentColor" d="M150.347 115.291a74 74 0 0 0-9.974-2.28q-2.406-.372-4.829-.618a31 31 0 0 0-5.167-.244c-.032.002-.045.055-.008.061 1.589.262 3.214.334 4.815.498q2.614.267 5.209.684a124 124 0 0 1 9.925 2.005.055.055 0 0 0 .03-.106M6.006 124.145a.098.098 0 0 0-.192.026 34.7 34.7 0 0 0 .885 6.534.07.07 0 0 0 .138-.018 34.7 34.7 0 0 0-.831-6.542m1.9-1.521c-.007-.043-.079-.033-.076.01a43 43 0 0 0 .64 5.627.035.035 0 0 0 .069-.01 43 43 0 0 0-.633-5.627m1.5 10.939c-.063-.347-.121-.695-.19-1.041-.14-.704-.291-1.406-.43-2.11-.008-.038-.075-.03-.07.01.088.71.164 1.422.25 2.134.041.337.093.673.14 1.01.025.18.043.365.076.545a.44.44 0 0 0 .168.329.07.07 0 0 0 .086-.011c.172-.219.016-.618-.03-.866m2.389.188q-.239-1.784-.463-3.57c-.285-2.264-.56-4.53-.892-6.788-.006-.04-.072-.03-.07.01.18 2.348.454 4.688.754 7.025q.207 1.616.427 3.23a21 21 0 0 0 .566 3.547.043.043 0 0 0 .084-.011 22 22 0 0 0-.406-3.443m2.713 4.792c-.093-.696-.196-1.39-.272-2.089-.147-1.35-.262-2.7-.375-4.054-.226-2.707-.484-5.41-.803-8.107-.009-.078-.13-.082-.125 0 .202 2.749.468 5.49.764 8.23.146 1.35.294 2.7.4 4.054.05.654.079 1.31.117 1.966a4.9 4.9 0 0 0 .248 1.757.075.075 0 0 0 .135-.018 4.8 4.8 0 0 0-.089-1.74m1.002-12.207c-.002-.021-.04-.016-.038.006.198 2.822.52 5.62.891 8.425.004.03.05.03.047 0-.226-2.822-.5-5.628-.9-8.43m1.599 14.787c-.063-.584-.118-1.169-.18-1.753-.124-1.195-.223-2.392-.379-3.584-.002-.019-.031-.02-.031 0 .01 1.221.105 2.438.21 3.654.053.608.118 1.216.184 1.824a10 10 0 0 0 .263 1.69.035.035 0 0 0 .069-.01 12 12 0 0 0-.136-1.82m3.571 2.008a37 37 0 0 1-.386-2.29c-.061-.435-.143-.877-.163-1.317a6 6 0 0 0-.049-1.017 34 34 0 0 1-.402-2.509c-.387-3.08-.672-6.176-.918-9.27-.001-.016-.024-.016-.023 0 .186 3.138.478 6.264.802 9.392.08.77.16 1.538.199 2.31.035.704.271 1.38.37 2.084.118.841.233 1.682.322 2.528a4.6 4.6 0 0 0 .331 1.986.101.101 0 0 0 .183-.023 4.3 4.3 0 0 0-.266-1.874m3.047 2.558c-.137-.721-.287-1.44-.416-2.162-.26-1.445-.468-2.902-.668-4.357q-.614-4.487-.964-9.004c-.002-.02-.033-.02-.031 0q.317 4.521.894 9.018c.179 1.383.384 2.761.59 4.14.114.77.213 1.541.336 2.31a8.4 8.4 0 0 0 .46 2.035c.016.038.071.016.073-.02a9 9 0 0 0-.274-1.96m2.813-1.082c-.155-.902-.208-1.808-.331-2.712-.106-.778-.282-1.55-.4-2.328-.522-3.418-.806-6.855-1.143-10.295a.014.014 0 0 0-.027 0 68.5 68.5 0 0 0 .723 10.17 102 102 0 0 0 2.107 10.17c.027.113.202.065.174-.047-.42-1.64-.814-3.29-1.102-4.958m3.549 1.109a18 18 0 0 1-.292-2.236 18 18 0 0 0-.453-1.931c-.59-2.829-.988-5.702-1.293-8.574-.002-.017-.03-.018-.028 0 .234 2.815.599 5.613 1.033 8.404.105.672.128 1.381.296 2.04.176.697.46 1.367.626 2.077.338 1.45.62 2.916 1.002 4.355a.1.1 0 0 0 .192-.053c-.371-1.36-.776-2.706-1.083-4.082m2.682-1.214q-.716-3.57-1.183-7.184c-.002-.014-.025-.015-.023 0 .27 2.336.616 4.663 1.06 6.973a58 58 0 0 0 1.66 7.096.053.053 0 0 0 .1-.028c-.5-2.295-1.152-4.551-1.614-6.857m4.752 6.143c-.213-.734-.414-1.47-.62-2.205-.405-1.443-.795-2.89-1.19-4.336a.004.004 0 0 0-.008.002c.382 1.449.77 2.897 1.143 4.349.183.712.37 1.423.549 2.136a7.6 7.6 0 0 0 .573 2.051.033.033 0 0 0 .062-.016 7.2 7.2 0 0 0-.509-1.981m.354-10.53c-.002-.01-.017-.006-.015.004.433 1.838.868 3.676 1.319 5.51.003.012.022.007.019-.006a590 590 0 0 0-1.323-5.508m3.215 11.837q-.152-.408-.292-.82-.286-.838-.506-1.696c-.004-.017-.03-.01-.026.007.11.592.227 1.183.361 1.769q.1.44.214.875a1.7 1.7 0 0 0 .329.746.071.071 0 0 0 .12-.05 2 2 0 0 0-.2-.831m1.874-3.045q-.585-1.69-1.01-3.43c-.006-.027-.047-.015-.041.012a28.8 28.8 0 0 0 2.285 6.772c.01.019.044.005.036-.016-.415-1.116-.88-2.211-1.27-3.338m3.183-.108a.012.012 0 1 0-.02.008l.378.896c.004.01.022.002.018-.008zm17.634 8.679a75 75 0 0 0-.773-1.916c-.006-.014-.028-.009-.023.006q.336.993.7 1.976c.233.634.461 1.279.75 1.89.012.027.054.008.046-.019-.191-.658-.451-1.3-.7-1.937m1.884 1.011a131 131 0 0 0-1.226-3.065c-.01-.027-.055-.016-.045.013.371 1.055.76 2.1 1.157 3.146.383 1.006.742 2.04 1.208 3.011.01.022.046.007.04-.016-.309-1.05-.74-2.071-1.134-3.09m.771-2.281c-.006-.014-.028-.008-.023.006.402 1.158.792 2.32 1.244 3.458.008.02.041.013.034-.009-.38-1.165-.824-2.308-1.255-3.455m2.679 6.28a6 6 0 0 0-.585-.961c-.015-.02-.048-.001-.034.02a6 6 0 0 1 .538.948c.148.332.234.687.38 1.02a.024.024 0 0 0 .043-.013 3 3 0 0 0-.342-1.014m1.368-1.393q-.85-2.01-1.729-4.007c-.011-.026-.057-.008-.046.02q.81 2.026 1.654 4.038c.54 1.29 1.018 2.644 1.682 3.875a.018.018 0 0 0 .032-.014c-.415-1.336-1.048-2.625-1.593-3.912m3.925 4.185q-.43-.88-.831-1.773a69 69 0 0 1-1.592-3.874c-.004-.011-.023-.007-.019.005q.65 1.892 1.45 3.722.406.93.846 1.844a14 14 0 0 0 .974 1.856c.012.017.045.007.036-.015-.238-.605-.577-1.181-.864-1.765m3.271 1.25c-.013-.015-.04.006-.028.022.332.477.665.95 1.035 1.4.011.013.034-.005.025-.02a22 22 0 0 0-1.032-1.401m-5.356-47.347a.018.018 0 0 0-.034.009c.775 3.137 1.454 6.297 2.153 9.452.008.035.059.02.053-.015-.572-3.183-1.335-6.323-2.172-9.446m-1.794-25.832a37 37 0 0 0-2.601-1.183c-.019-.007-.032.024-.014.033.854.425 1.717.824 2.601 1.182.019.007.031-.023.014-.032m32.972 9.078c-.013-.02-.043-.002-.03.017 1.684 2.682 3.25 5.44 4.774 8.218.019.035.07.004.053-.032a66 66 0 0 0-4.797-8.204m5.334 3.824c-.229-.458-.457-.921-.713-1.365q-.193-.333-.405-.653l-.215-.32a1 1 0 0 0-.123-.16.19.19 0 0 0-.083-.164.16.16 0 0 0-.161 0c-.398.274.152.818.322 1.074.31.468.646.92.948 1.394a27 27 0 0 1 1.618 2.942c.01.022.049.006.04-.017a35 35 0 0 0-1.228-2.731m5.222 4.601q-.86-2.097-1.732-4.189a25 25 0 0 0-.885-1.942 1.6 1.6 0 0 0-.934-.893.126.126 0 0 0-.096.228 3.47 3.47 0 0 1 1.097 1.658c.293.61.607 1.209.91 1.814a68 68 0 0 1 1.879 4.12c1.096 2.614 2.067 5.272 3.055 7.929.006.016.032.01.027-.008-.963-2.956-2.144-5.841-3.322-8.717m4.012 3.042c-.504-1.339-1-2.681-1.506-4.018a20 20 0 0 0-1.824-3.93.063.063 0 0 0-.114.049 26 26 0 0 0 1.546 3.788 73 73 0 0 1 1.81 4.258c1.044 2.718 1.94 5.48 2.877 8.234a.016.016 0 0 0 .03-.008c-.78-2.836-1.782-5.622-2.819-8.373m3.538 2.452q-.692-2.017-1.311-4.057a17.4 17.4 0 0 0-1.548-4 .041.041 0 0 0-.075.032 19 19 0 0 0 1.355 4.042q.828 2.039 1.543 4.12c.935 2.73 1.765 5.502 2.744 8.216.008.02.04.012.034-.01-.788-2.813-1.794-5.58-2.742-8.343m1.007-5.214a.035.035 0 0 0-.065.028c.488 1.753 1.262 3.408 1.881 5.116a.03.03 0 0 0 .057-.015 21 21 0 0 0-1.873-5.129m3.822 11.373c-.008-.019-.038-.011-.03.008a40 40 0 0 1 1.394 4.854c.006.025.049.02.046-.006a17.4 17.4 0 0 0-1.41-4.856m.551-7.929c-.011-.03-.06-.018-.049.013a254 254 0 0 1 4.96 16.221.018.018 0 0 0 .035-.01 127.5 127.5 0 0 0-4.946-16.224m6.957 13.089a54 54 0 0 0-2.497-8.368c-.009-.02-.04-.005-.035.015.659 2.87 1.739 5.64 2.49 8.489.752 2.855 1.256 5.761 1.951 8.628.007.027.045.015.042-.012a80 80 0 0 0-1.951-8.752m3.796 6.109a66 66 0 0 0-2.034-8.865.023.023 0 0 0-.046.012c.666 2.92 1.476 5.797 2.028 8.744.551 2.95.749 5.936 1.224 8.893.005.029.05.022.05-.007a60 60 0 0 0-1.222-8.777m3.644 5.871a81 81 0 0 0-1.928-9.258.023.023 0 0 0-.046.012c.715 2.987 1.416 5.981 1.908 9.014.506 3.12.788 6.246 1.041 9.394.002.023.036.023.035 0a84 84 0 0 0-1.01-9.162m2.269-.54c-.001-.008-.013-.005-.012.003.634 4.116 1.067 8.245 1.557 12.378.001.015.024.015.023 0-.317-4.14-.928-8.28-1.568-12.381m4.087 13.278c-.002-.024-.04-.025-.039 0a5.8 5.8 0 0 0 .422 1.784c.007.018.037.01.03-.009a7.3 7.3 0 0 1-.413-1.775m-70.732.142c-.454-.183-.914-.36-1.36-.563-.438-.199-.85-.449-1.286-.648-.019-.008-.043.016-.024.031a5.7 5.7 0 0 0 1.267.736 6.7 6.7 0 0 0 1.392.486.022.022 0 0 0 .012-.042m2.702-.041c-1.206-.653-2.483-1.162-3.697-1.797a.01.01 0 0 0-.01.017 13.7 13.7 0 0 0 3.681 1.84.033.033 0 0 0 .026-.06m2.048-.248a3.2 3.2 0 0 0-.895-.512c-.306-.15-.612-.304-.92-.45l-1.92-.912c-.01-.006-.02.01-.01.017l1.862 1.011q.45.243.904.478a3.3 3.3 0 0 0 .945.426.036.036 0 0 0 .034-.058m2.175-.284a6 6 0 0 0-.814-.48l-.774-.426c-.535-.293-1.077-.574-1.615-.86a.012.012 0 0 0-.012.02c.537.31 1.07.627 1.61.93l.799.447a6 6 0 0 0 .79.409c.024.01.034-.026.016-.04m2.147-.196a3.8 3.8 0 0 0-.86-.631c-.31-.205-.63-.397-.952-.585a22 22 0 0 0-1.995-1.019c-.009-.004-.016.01-.007.014.656.353 1.296.735 1.929 1.13.316.198.626.405.937.612a5 5 0 0 0 .89.577c.06.023.09-.058.058-.098m1.778-.631a17 17 0 0 0-1.524-.779q-.766-.386-1.514-.805a.012.012 0 0 0-.012.02q.736.466 1.499.888a8.3 8.3 0 0 0 1.53.726.027.027 0 0 0 .021-.05m1.927-.68a3 3 0 0 0-.249-.088l-.254-.067c-.17-.045-.344-.074-.516-.108a.031.031 0 0 0-.017.06c.171.052.342.11.516.15l.256.06a3 3 0 0 0 .258.039c.028.003.029-.038.006-.046m.756-.473a.018.018 0 0 0-.01.034 9 9 0 0 0 .9.233.012.012 0 0 0 .007-.023 9 9 0 0 0-.897-.244m-33.302 11.982-.533-1.398c-.004-.009-.019-.005-.015.005l.509 1.432c.163.46.308.936.516 1.379.009.018.037.005.032-.014-.13-.479-.332-.94-.509-1.404m1.771 1.974a28 28 0 0 1-.846-2.748c-.003-.01-.017-.006-.015.004a23 23 0 0 0 .805 2.81 15 15 0 0 0 1.14 2.593c.009.015.035.005.029-.012-.359-.888-.785-1.745-1.113-2.647m.932-1.599a.016.016 0 0 0-.03.009 37 37 0 0 0 2.258 6.529c.008.018.038.005.032-.014-.722-2.185-1.538-4.338-2.26-6.524m1.925 1.911c-.01-.025-.051-.015-.042.011.71 2.057 1.424 4.138 2.282 6.139.007.016.033.004.028-.012-.652-2.075-1.468-4.117-2.269-6.138m2.59 3.425c-.012-.026-.057-.008-.047.02.451 1.218.892 2.438 1.456 3.61.01.02.042.006.035-.015-.402-1.236-.928-2.423-1.444-3.615m3.075 3.925-.195-.455c-.008-.018-.035-.002-.027.016l.193.446c.064.148.122.301.195.445.006.011.026.003.022-.01-.053-.15-.125-.295-.188-.442m1.726 1.082c-.005-.02-.035-.011-.03.008a.6.6 0 0 0 .134.254.5.5 0 0 0 .24.152c.015.005.02-.017.007-.022a.58.58 0 0 1-.351-.392m1.503 1.027c-.018-.009-.034.018-.016.027l.515.249c.013.006.025-.014.011-.02Zm27.721 80.63c-.696.015-1.371.07-2.063.146a7 7 0 0 0-.888.115 3.4 3.4 0 0 0-.897.46c-2.256 1.265-4.819 2.002-6.682 3.888-.02.02.01.05.03.03a11.5 11.5 0 0 1 3.156-1.954q.929-.42 1.876-.8a10 10 0 0 1 1.83-.663 5 5 0 0 0 .909-.158c.291-.105.565-.258.856-.365a11 11 0 0 1 1.901-.486 26 26 0 0 1 4.286-.183.018.018 0 0 0 0-.035c-1.44-.053-2.874-.027-4.314.005m-5.104-.507a7.2 7.2 0 0 0-1.36-.528c-.486-.132-.978-.215-1.473-.303-.038-.007-.056.051-.016.06.478.112.947.265 1.415.412q.703.217 1.413.409c.03.007.05-.036.021-.05m3.966.014a5 5 0 0 0-1.452-.757q-.792-.33-1.596-.632a69 69 0 0 0-3.364-1.142c-.032-.01-.044.038-.014.05 1.121.424 2.233.882 3.335 1.352q.79.336 1.577.677a5.5 5.5 0 0 0 1.484.526c.037.004.057-.05.03-.074m-4.393-3.118c-.04-.015-.067.05-.029.068.894.396 1.787.775 2.708 1.103.018.007.031-.023.013-.032a39 39 0 0 0-2.692-1.139m5.593 2.518q-.241-.14-.49-.266-.498-.251-1.009-.478c-.009-.004-.017.008-.007.013a8 8 0 0 1 .93.579q.224.159.44.327a.76.76 0 0 0 .452.228.046.046 0 0 0 .044-.057c-.043-.164-.223-.267-.36-.346m2.711.282c-.082-.212-.43-.378-.605-.497a19 19 0 0 0-.897-.569 22 22 0 0 0-3.713-1.784c-.031-.011-.044.037-.014.049a22 22 0 0 1 2.656 1.277 19 19 0 0 1 1.177.733q.308.206.609.423l.3.216c.03.02.176.143.26.214l-.008.005c-.116.19.367.278.235-.067m1.57-.713a10 10 0 0 0-.95-.52l-.99-.452c-.026-.012-.05.026-.023.04l.969.527a10 10 0 0 0 .98.441c.02.009.033-.025.014-.036m9.45 30.636a8.4 8.4 0 0 0-2.229-1.013 12 12 0 0 0-2.395-.493c-.037-.004-.046.06-.009.065a15 15 0 0 1 2.363.576c.772.254 1.5.604 2.252.907.026.01.038-.028.018-.042m3.044-.727a12.8 12.8 0 0 0-2.527-1.027 26 26 0 0 0-2.715-.748.008.008 0 0 0-.004.015c.891.238 1.774.514 2.644.819q.654.228 1.297.486c.426.171.843.374 1.283.508a.03.03 0 0 0 .022-.053m2.959-.568a11.3 11.3 0 0 0-2.17-.805 29 29 0 0 0-2.32-.568.012.012 0 0 0-.005.022c.754.21 1.496.454 2.241.693.742.239 1.471.537 2.232.711.031.007.053-.037.022-.053m1.78-.619a9.8 9.8 0 0 0-2.704-.84c-.015-.003-.021.019-.006.022a23 23 0 0 1 2.695.853.02.02 0 0 0 .015-.035m2.02-.596c-.02-.008-.03.026-.01.034l.382.13c.012.004.017-.015.005-.02Zm19.953 67.741a9.6 9.6 0 0 0-1.261-.82q-.663-.399-1.329-.793c-.021-.013-.04.02-.02.034q.638.419 1.276.833a10 10 0 0 0 1.304.785c.024.011.054-.019.03-.04m2.573-.656a5.1 5.1 0 0 0-1.145-.88q-.661-.427-1.328-.844a43 43 0 0 0-2.667-1.565c-.019-.01-.042.017-.024.031.805.624 1.644 1.21 2.492 1.775.422.281.844.564 1.271.839a5.4 5.4 0 0 0 1.35.732.053.053 0 0 0 .051-.088m1.809-1.93a6 6 0 0 0-1.498-1.073c-.563-.356-1.126-.71-1.684-1.076-.544-.356-1.036-.781-1.599-1.11-.577-.336-1.195-.6-1.793-.897a.033.033 0 0 0-.034.057c.557.332 1.082.711 1.636 1.048.57.347 1.19.606 1.754.963a22 22 0 0 1 1.63 1.15 7.5 7.5 0 0 0 1.497 1.095c.097.04.142-.094.091-.157m-1.977-4.157c-.946-.727-1.954-1.367-2.954-2.015-.017-.011-.032.015-.016.027.966.699 1.927 1.408 2.947 2.028.026.016.046-.023.023-.04m3.785 2.352c-.29-.158-.603-.278-.897-.43a6.3 6.3 0 0 1-.975-.634c-.012-.009-.028.006-.017.017.243.221.497.43.747.644a8 8 0 0 0 .794.606c.116.076.328.239.47.158a.145.145 0 0 0 .076-.186c-.025-.09-.123-.134-.198-.175m2.142-1.898a14 14 0 0 0-1.57-1.225q-.855-.616-1.738-1.19a40 40 0 0 0-3.652-2.106c-.01-.004-.017.009-.008.014q1.823.991 3.56 2.134.855.561 1.683 1.162c.567.412 1.105.871 1.692 1.253a.027.027 0 0 0 .033-.042m.492-3.043a3.3 3.3 0 0 0-.792-.53l-.811-.47-1.738-1.01-3.475-2.018a.01.01 0 0 0-.01.017l3.424 2.107 1.711 1.054.799.491a3.3 3.3 0 0 0 .84.447.053.053 0 0 0 .052-.088m1.361-2.521a9.6 9.6 0 0 0-1.917-1.402 63 63 0 0 0-2.134-1.289 98 98 0 0 0-4.382-2.386c-.037-.02-.07.037-.033.057a61 61 0 0 1 4.222 2.505q1.016.658 2.009 1.348a13.4 13.4 0 0 0 2.093 1.35.118.118 0 0 0 .142-.183m.329-3.4a3.1 3.1 0 0 0-.957-.697q-.58-.332-1.167-.651c-.783-.427-1.53-.915-2.309-1.348a36 36 0 0 0-4.732-2.136c-.035-.013-.06.046-.026.06 1.616.685 3.185 1.464 4.753 2.25a22 22 0 0 1 2.277 1.236q.56.367 1.109.753a3.4 3.4 0 0 0 1.018.592.035.035 0 0 0 .034-.06m-.04-3.793a45.3 45.3 0 0 0-8.73-3.998c-.011-.004-.016.014-.004.019a51 51 0 0 1 8.602 4.205.131.131 0 0 0 .132-.226m-.756-4.102a15 15 0 0 0-1.85-1.026 42 42 0 0 0-1.977-.939 42 42 0 0 0-3.898-1.483c-.007-.002-.01.009-.003.011a37 37 0 0 1 3.95 1.668q.917.45 1.806.952c.612.347 1.198.75 1.822 1.073a.149.149 0 0 0 .15-.256m-1.641-3.604a37.2 37.2 0 0 0-8.613-3.115.016.016 0 0 0-.009.03 46.4 46.4 0 0 1 8.465 3.354c.179.09.337-.176.158-.27m-.924-2.812a10.4 10.4 0 0 0-1.959-.876q-.976-.388-1.968-.739a51 51 0 0 0-4.166-1.294.012.012 0 0 0-.006.022c1.372.405 2.732.863 4.06 1.398.689.278 1.37.581 2.042.897a16 16 0 0 0 1.873.887l.002-.015a.154.154 0 0 0 .122-.28m-1.913-3.502a4.4 4.4 0 0 0-1.15-.63c-.401-.184-.806-.36-1.22-.516a26 26 0 0 0-2.654-.84.016.016 0 0 0-.008.03 26 26 0 0 1 2.6.96c.397.172.794.346 1.186.531a6.5 6.5 0 0 0 1.2.543c.044.01.082-.045.046-.078m-3.088-4.33a7.6 7.6 0 0 0-1.376-.41q-.724-.168-1.444-.343a.021.021 0 0 0-.012.04q.712.211 1.42.431a7.6 7.6 0 0 0 1.396.34.031.031 0 0 0 .016-.058m-2.631-3.791a9 9 0 0 0-.365-.093l-.723-.169a.031.031 0 0 0-.017.06l.717.19q.176.047.354.085a3 3 0 0 0 .35.068c.02.001.03-.032.01-.04a3 3 0 0 0-.326-.1m79.99 74.668c-.022-.021-.055.012-.033.033.472.464.938.935 1.422 1.387a.012.012 0 0 0 .016-.017c-.458-.478-.935-.937-1.405-1.403m1.782-1.975a138 138 0 0 0-2.02-1.873.022.022 0 0 0-.03.03c.643.655 1.286 1.31 1.942 1.951.654.64 1.307 1.3 2.017 1.877a.025.025 0 0 0 .036-.036c-.6-.69-1.283-1.318-1.945-1.949m3.447-.354a37 37 0 0 0-1.366-1.514 41 41 0 0 0-2.955-2.812c-.015-.013-.037.008-.022.022.978.919 1.916 1.88 2.818 2.874q.666.738 1.301 1.502a19 19 0 0 0 1.323 1.546.051.051 0 0 0 .08-.062 10.3 10.3 0 0 0-1.18-1.556m2.88-1.206-.968-1.046-1.892-2.025c-1.26-1.35-2.535-2.686-3.807-4.025-.04-.042-.103.021-.064.064 1.245 1.365 2.49 2.732 3.747 4.086l1.832 1.972q.485.521.974 1.04a5.2 5.2 0 0 0 .909.893c.029.019.06-.017.045-.045a5 5 0 0 0-.776-.914m.703-3.926c-.701-.814-1.384-1.643-2.075-2.466a37 37 0 0 0-4.444-4.632c-.015-.013-.037.008-.022.022a40 40 0 0 1 4.34 4.736c.662.812 1.318 1.63 1.998 2.426a17.7 17.7 0 0 0 2.271 2.393.063.063 0 0 0 .089-.089c-.685-.824-1.457-1.578-2.157-2.39m-5.185-9.824a.03.03 0 0 0-.041.041c1.162 1.224 2.32 2.442 3.557 3.592a.03.03 0 0 0 .041-.042c-1.138-1.247-2.345-2.416-3.557-3.591m7.504 8.392a6 6 0 0 0-.359-.42 9 9 0 0 0-.82-.765c-.028-.023-.07.016-.04.041a8 8 0 0 1 .764.78q.172.203.337.412a3 3 0 0 0 .352.43c.021.02.064.002.052-.03a1.7 1.7 0 0 0-.286-.447m-1.127-6.263-1.803-1.79c-1.185-1.176-2.384-2.339-3.579-3.506a.022.022 0 0 0-.03.03c1.167 1.194 2.33 2.393 3.508 3.577l1.74 1.752a23 23 0 0 0 1.833 1.76.03.03 0 0 0 .042-.041 22 22 0 0 0-1.711-1.782m.082-3.731c-.013-.018-.03-.007-.033.011a47 47 0 0 0-3.951-3.901 66 66 0 0 0-4.439-3.662c-.017-.013-.041.017-.024.03q2.29 1.8 4.429 3.777c1.431 1.318 2.747 2.741 4.13 4.107.049.049.143-.017.099-.077q-.106-.142-.21-.285m-4.971-7.977a57 57 0 0 0-4.936-3.734c-.038-.025-.072.035-.036.061q2.531 1.823 4.892 3.873 1.117.97 2.195 1.985c.757.717 1.471 1.484 2.268 2.157.028.023.082-.009.056-.043a30 30 0 0 0-4.439-4.3m-5.995-7.518c-.027-.013-.05.027-.024.04a46 46 0 0 1 4.691 2.932c1.55 1.09 2.984 2.317 4.445 3.52a.027.027 0 0 0 .039-.039 31.3 31.3 0 0 0-9.151-6.453m1.637-2.629a7.45 7.45 0 0 0-2.707-1.75c-.025-.01-.042.032-.018.044a18 18 0 0 1 2.694 1.746c.024.018.05-.02.03-.04m-64.181-3.707c-.012-.03-.06-.017-.05.014.764 2.099 1.484 4.224 2.348 6.285.01.022.045.014.037-.01-.694-2.124-1.54-4.202-2.335-6.289m4.36 10.602q-.26-.582-.516-1.167c-.006-.014-.03-.004-.025.01q.229.596.455 1.193a8 8 0 0 0 .497 1.139.02.02 0 0 0 .036-.015 8 8 0 0 0-.448-1.16m-13.007-60.158c-.017-.036-.08-.01-.064.027a17 17 0 0 1 .694 2.028c.194.689.357 1.39.58 2.069.01.034.067.03.065-.009a11 11 0 0 0-1.275-4.115m-.398 2.968q-.223-.971-.526-1.922a.023.023 0 0 0-.046.013q.248.948.42 1.913c.112.64.19 1.29.351 1.92a.031.031 0 0 0 .062-.008 8.2 8.2 0 0 0-.261-1.916m-1.691-.64c-.012-.033-.063-.02-.053.014a8.6 8.6 0 0 1 .289 1.6c.05.527.042 1.056.08 1.584.003.037.06.05.07.01a5.96 5.96 0 0 0-.386-3.208m-1.301 2.942c-.109.507-.21 1.013-.293 1.525-.003.02.025.028.03.008.116-.505.214-1.012.305-1.522.005-.027-.036-.039-.042-.011m118.225 77.973-.002.003.764.387.002-.004Zm5.213-.595c-.772-.465-1.593-.857-2.4-1.257l-2.432-1.204c-.034-.017-.063.033-.03.05l2.449 1.27c.788.41 1.579.832 2.398 1.176.021.01.034-.024.016-.035m2.862-1.998a3.6 3.6 0 0 0-.985-.55 49 49 0 0 1-1.157-.577c-.716-.365-1.432-.73-2.156-1.079a103 103 0 0 0-4.565-2.045c-.029-.012-.055.03-.025.044 1.513.692 3.014 1.41 4.513 2.132.725.349 1.453.693 2.174 1.05.36.178.72.36 1.072.55a4.1 4.1 0 0 0 1.095.534.035.035 0 0 0 .034-.06m-4.482-5.747a29 29 0 0 0-3.617-1.44c-.026-.009-.037.032-.011.041 1.22.437 2.42.932 3.615 1.431.018.008.031-.023.013-.032m5.391 2.565a1.6 1.6 0 0 0-.64-.345q-.375-.147-.749-.296c-.508-.203-1.005-.432-1.504-.657-.015-.008-.03.015-.013.023.482.244.967.485 1.439.749l.68.386a1.7 1.7 0 0 0 .72.304.097.097 0 0 0 .067-.164m.193-3.128a15.5 15.5 0 0 0-2.065-1.01q-1.083-.498-2.175-.975a101 101 0 0 0-4.186-1.726c-.017-.006-.029.022-.012.029 1.435.61 2.87 1.223 4.293 1.859q1.05.469 2.095.95a19 19 0 0 0 2.03.92c.028.008.043-.032.02-.047m-.878-3.988a15 15 0 0 0-1.913-1.006q-.91-.439-1.828-.861-1.839-.845-3.708-1.62c-.019-.007-.032.024-.014.032q1.912.841 3.791 1.755.907.441 1.805.9a20 20 0 0 0 1.827.896c.058.023.087-.064.04-.096m-1.891-4.097a8.7 8.7 0 0 0-1.85-1.096 37 37 0 0 0-2.079-.969 61 61 0 0 0-4.164-1.577c-.02-.006-.026.023-.008.03 1.41.573 2.786 1.217 4.156 1.876q.963.463 1.92.94a12 12 0 0 0 1.966.897c.056.016.106-.06.06-.101m-2.21-4.47a4.3 4.3 0 0 0-.982-.581q-.583-.317-1.179-.612a31.6 31.6 0 0 0-4.73-1.837c-.03-.01-.043.038-.013.049a34 34 0 0 1 3.604 1.49c.57.273 1.136.554 1.693.853a10.4 10.4 0 0 1 1.516.872c-.024-.019-.074-.002-.059.034.085.21.378-.041.15-.268m-2.121-4.853a4.8 4.8 0 0 0-1.415-.814 17 17 0 0 0-1.42-.589 20 20 0 0 0-3.216-.85c-.017-.002-.024.023-.007.027a21.4 21.4 0 0 1 3.06 1.01q.78.321 1.536.695a7.6 7.6 0 0 0 1.377.667.089.089 0 0 0 .085-.147m-2.917-4.853a11 11 0 0 0-1.177-.515 14 14 0 0 0-2.58-.658c-.038-.006-.056.052-.016.06a13.5 13.5 0 0 1 2.46.815c.381.163.755.347 1.125.537a4.4 4.4 0 0 0 1.105.54c.056.01.125-.052.083-.11a2.74 2.74 0 0 0-1-.67m-2.335-3.685a2.7 2.7 0 0 0-.805-.366 30 30 0 0 0-.91-.289c-.622-.185-1.247-.355-1.873-.526-.022-.006-.03.025-.009.034.594.239 1.187.48 1.786.705q.432.163.868.312a2.8 2.8 0 0 0 .908.214c.038 0 .07-.056.035-.083m-4.757-4.695a.012.012 0 0 0-.006.023c.423.135.845.273 1.273.393a.012.012 0 0 0 .007-.022c-.422-.143-.848-.267-1.274-.394m34.378 31.034c-2.319-.91-4.7-1.645-7.076-2.39-.032-.01-.044.038-.014.05 2.341.85 4.68 1.712 7.075 2.396.037.01.05-.043.015-.057m-7.594-6.077c-.012-.005-.016.014-.005.019 3.136 1.261 6.268 2.554 9.47 3.645.016.005.028-.022.011-.029-3.109-1.333-6.3-2.472-9.476-3.635m10.772.408a11 11 0 0 0-2.256-1.13l-2.24-.979q-2.281-.998-4.57-1.98c-.014-.005-.026.014-.012.02q2.277 1.095 4.56 2.178l2.284 1.08a10.5 10.5 0 0 0 2.198.896.047.047 0 0 0 .036-.086m1.92-3.368a12.4 12.4 0 0 0-2.55-1.265c-.942-.452-1.87-.934-2.802-1.405a26.2 26.2 0 0 0-5.55-2.184.018.018 0 0 0-.01.034 34 34 0 0 1 5.649 2.561c.894.475 1.784.957 2.69 1.41a6.9 6.9 0 0 0 2.523.97.071.071 0 0 0 .05-.12m.032-4.454a3.8 3.8 0 0 0-1.31-.752q-.782-.369-1.567-.732a185 185 0 0 0-8.925-3.82c-.03-.013-.053.04-.023.053 2.03.912 4.047 1.85 6.065 2.788.975.452 1.946.914 2.918 1.374q.73.345 1.457.692a3.6 3.6 0 0 0 1.338.51.067.067 0 0 0 .047-.113m-2.099-5.586a7.2 7.2 0 0 0-2.113-.858c-.883-.352-1.749-.75-2.617-1.136-1.555-.689-3.114-1.361-4.714-1.94-.014-.006-.024.018-.01.024 1.54.72 3.11 1.367 4.68 2.022.846.353 1.705.698 2.531 1.1a7.8 7.8 0 0 0 2.143 1.029.142.142 0 0 0 .1-.24m-1.6-4.394a1.43 1.43 0 0 0-.647-.353q-.44-.18-.884-.35-.829-.319-1.67-.606a53 53 0 0 0-3.521-1.075.016.016 0 0 0-.008.03 44 44 0 0 1 3.437 1.144q.88.336 1.746.708.408.174.812.357a1.5 1.5 0 0 0 .698.235.054.054 0 0 0 .037-.09m-1.688-4.154a3.1 3.1 0 0 0-1.126-.497q-.685-.235-1.377-.447c-.91-.28-1.824-.522-2.753-.73a.012.012 0 0 0-.006.023q1.341.401 2.666.858.661.229 1.316.478a3.8 3.8 0 0 0 1.246.399.05.05 0 0 0 .034-.084m-3.204-4.464a2.5 2.5 0 0 0-.724-.289q-.363-.115-.728-.224l-1.51-.467c-.03-.01-.041.035-.013.045l1.486.557q.357.137.715.269a2.4 2.4 0 0 0 .747.211.055.055 0 0 0 .027-.102m-4.094-4.588a7.5 7.5 0 0 0-1.285-.503c-.019-.007-.032.024-.014.032a7.5 7.5 0 0 0 1.279.521.027.027 0 0 0 .02-.05m-87.576-40.199a13.5 13.5 0 0 0-3.05-2.077c-.04-.02-.075.038-.035.06a27 27 0 0 1 3.055 2.047c.021.016.052-.011.03-.03m3.29.637a13 13 0 0 0-.478-.418q-.464-.389-.948-.753a23 23 0 0 0-2.106-1.412.014.014 0 0 0-.014.024 23 23 0 0 1 2.07 1.454q.47.371.92.766l.473.422a2.4 2.4 0 0 0 .442.365.026.026 0 0 0 .035-.035 2 2 0 0 0-.394-.413m2.132-.496a21 21 0 0 0-1.3-1.108 28 28 0 0 0-2.698-1.882c-.03-.019-.057.028-.027.047a25 25 0 0 1 2.687 2c.41.35.805.715 1.197 1.084a15 15 0 0 0 1.166 1.069c.028.021.067-.02.048-.048a7 7 0 0 0-1.073-1.162m2.618-.16q-.579-.578-1.206-1.1a19.3 19.3 0 0 0-2.617-1.832.023.023 0 0 0-.024.04 23 23 0 0 1 2.573 1.978q.58.512 1.126 1.061a7.6 7.6 0 0 0 1.113 1.085c.025.016.048-.015.037-.038a4.6 4.6 0 0 0-1.002-1.194m2.609.302q-.487-.544-1.023-1.042a26 26 0 0 0-2.221-1.804c-.025-.019-.058.023-.034.043a23 23 0 0 1 2.103 1.964q.496.512.977 1.038a8 8 0 0 0 .984.982c.028.021.055-.018.043-.043a5 5 0 0 0-.829-1.138m-.155-2.48a.023.023 0 0 0-.033.033c.826.847 1.508 1.802 2.247 2.722.016.02.045-.006.034-.026a11.2 11.2 0 0 0-2.248-2.729m-26.685-23.743a43 43 0 0 0-3.354-2.648c-.021-.016-.049.02-.028.037a43 43 0 0 0 3.344 2.66c.03.02.064-.025.038-.05m2.423.235c-1.092-1.156-2.26-2.236-3.447-3.293-.033-.03-.082.018-.05.05 1.131 1.086 2.204 2.232 3.256 3.394 1.048 1.155 2.013 2.412 3.139 3.492a.033.033 0 0 0 .052-.04 21.5 21.5 0 0 0-2.95-3.603m2.636.66a55 55 0 0 0-3.776-4.088.012.012 0 0 0-.017.017 95 95 0 0 1 3.613 4.14q.892 1.08 1.738 2.196c.54.71 1.046 1.456 1.635 2.128.027.03.074-.009.055-.043a29.6 29.6 0 0 0-3.248-4.35m-.067-2.945c-.027-.027-.067.013-.042.041a61 61 0 0 1 5.82 7.438c.01.016.038.001.027-.016a42.2 42.2 0 0 0-5.805-7.463m6.205 5.077a53 53 0 0 0-2.33-3.342c-.023-.03-.073-.002-.051.03q1.164 1.666 2.245 3.391c.722 1.15 1.372 2.344 2.114 3.48a.025.025 0 0 0 .043-.025 28.5 28.5 0 0 0-2.02-3.534m2.489 1.234q-.256-.376-.515-.748c-.34-.49-.69-.975-1.034-1.462-.01-.014-.033 0-.024.014.338.502.671 1.008 1.014 1.507q.248.363.499.724a8 8 0 0 0 .519.718c.012.013.032-.004.024-.02a8 8 0 0 0-.482-.733m.726-2.332c-.036-.042-.097.02-.061.061.352.415.697.837 1.076 1.228.015.015.044-.006.03-.024-.327-.439-.69-.849-1.045-1.265m2.007-29.405q-2.419-4.548-5.225-8.866c-.013-.018-.043-.001-.03.018q2.657 4.337 5.052 8.831c1.594 2.997 2.951 6.103 4.497 9.12.013.026.057.008.047-.019a78 78 0 0 0-4.34-9.084m-4.849-11.924c-.012-.016-.039 0-.027.016a92 92 0 0 1 5.53 8.763c1.68 3.028 3.11 6.16 4.519 9.321.01.024.052.007.043-.018a73.6 73.6 0 0 0-10.065-18.082m1.702-2.198c-.018-.028-.062-.003-.044.025 1.922 3.077 3.742 6.215 5.634 9.31a.023.023 0 0 0 .04-.024c-1.711-3.198-3.65-6.274-5.63-9.311m9.022 15.817c-.048-.108-.106-.213-.16-.319-.11-.22-.228-.435-.345-.652q-.358-.66-.708-1.324c-.012-.022-.044-.002-.034.02q.313.672.616 1.348c.098.218.194.436.298.65q.077.162.156.322a.54.54 0 0 0 .195.26.038.038 0 0 0 .054-.022.5.5 0 0 0-.071-.283m-6.094-16.197c-.006-.01-.023 0-.017.01a155 155 0 0 1 6.228 10.994c.004.007.014.001.01-.005-1.9-3.76-3.99-7.426-6.22-10.999m3.602-1.291a.02.02 0 0 0-.034.02c1.37 2.46 2.62 4.991 3.811 7.544.009.018.04.005.032-.014a62 62 0 0 0-3.81-7.55m-170.42 10.754a.02.02 0 0 0-.04 0 36 36 0 0 0 1.053 9.849c.007.03.051.017.045-.013a45.3 45.3 0 0 1-1.058-9.836m2.851 9.286a72 72 0 0 1-1.454-9.162c-.001-.012-.02-.013-.02 0a57.8 57.8 0 0 0 3.903 17.882c.013.031.063.02.052-.014-.894-2.887-1.815-5.755-2.481-8.706m2.858 2.3a64 64 0 0 1-1.525-8.141c-.002-.015-.025-.016-.024 0a58 58 0 0 0 1.376 8.068 39.5 39.5 0 0 0 2.56 7.773c.013.026.055.008.047-.02-.813-2.566-1.762-5.066-2.434-7.68m2.075-1.516a.031.031 0 0 0-.06.017 50.2 50.2 0 0 0 3.44 9.836c.013.03.055.004.043-.025a73 73 0 0 1-3.423-9.828m58.741-54.408c-.023-.045-.09-.005-.068.04 2.137 4.23 4.269 8.461 6.483 12.651.014.027.053.004.04-.023-2.098-4.25-4.28-8.457-6.455-12.668m3.329-1.725c-.008-.016-.031-.002-.024.013 3.584 7.164 7.137 14.352 10.914 21.416.013.025.049.003.037-.022-3.501-7.204-7.233-14.3-10.927-21.407m5.181.089c-.014-.03-.057-.004-.044.025 1.902 4.232 3.752 8.51 5.843 12.652.01.021.049.006.04-.016-1.798-4.281-3.852-8.466-5.839-12.661m8.289 18.392c-.003-.01-.018-.005-.015.004a44.4 44.4 0 0 0 3.13 6.673.014.014 0 0 0 .024-.014c-1.122-2.192-2.228-4.371-3.139-6.663m-.801-11.606c-.01-.022-.044-.003-.034.02a382 382 0 0 0 9.51 19.884c.006.012.022.002.017-.01q-4.893-9.88-9.493-19.894m10.288 13.112c-.009-.018-.036-.002-.026.016.491.946.979 1.894 1.478 2.836.008.013.027.002.02-.012-.483-.95-.98-1.894-1.471-2.84m7.48 7.522-.72-1.14a.047.047 0 0 0-.08.048l.675 1.165c.225.39.48.76.738 1.128a.025.025 0 0 0 .044-.026 16 16 0 0 0-.657-1.175m28.418-38.018q-1.907-2.634-3.964-5.155c-.013-.016-.034.006-.022.022a123 123 0 0 1 12.77 19.822q1.516 2.931 2.889 5.935c.014.03.056.004.044-.025a107 107 0 0 0-11.717-20.599m5.418 1.793q-1.82-2.624-3.8-5.13c-.01-.013-.026.004-.017.016a105.2 105.2 0 0 1 11.912 19.293 135 135 0 0 1 2.679 6.026c.01.025.051.015.041-.011a97 97 0 0 0-10.815-20.194m4.543 1.487c-.01-.017-.038-.002-.027.015a96 96 0 0 1 7.886 15.27c.008.02.042.011.034-.01a85.7 85.7 0 0 0-7.893-15.275m37.448-30.969c-.015-.03-.058-.004-.044.026 2.306 4.791 4.425 9.663 6.522 14.548.014.034.074.01.06-.025a148 148 0 0 0-6.538-14.55m4.986 18.054c-.743-1.776-1.484-3.534-2.323-5.268q-2.602-5.384-5.704-10.5a.037.037 0 0 0-.064.038q2.99 5.107 5.554 10.452c.843 1.755 1.708 3.514 2.488 5.298.8 1.825 1.364 3.756 2.205 5.56.03.065.134.02.114-.048a56 56 0 0 0-2.27-5.533m-5.391-3.922a59 59 0 0 0-2.789-5.191.025.025 0 0 0-.044.025q1.437 2.52 2.662 5.154c.817 1.751 1.49 3.564 2.27 5.327.01.025.05.007.043-.018a36 36 0 0 0-2.142-5.297m5.887 12.849q-.34-.82-.695-1.633c-.498-1.143-1.013-2.28-1.513-3.422-.006-.014-.03-.004-.025.01.449 1.165.883 2.335 1.335 3.498q.34.874.694 1.741a9 9 0 0 0 .756 1.597.041.041 0 0 0 .075-.031 9.6 9.6 0 0 0-.627-1.76m-.9 4.778a284 284 0 0 0-1.86-4.65q-1.83-4.473-3.813-8.88c-.02-.043-.083-.005-.064.038q1.979 4.59 3.854 9.226a440 440 0 0 1 1.756 4.427c.577 1.474 1.069 3.014 1.768 4.436.01.02.041.006.035-.015a44 44 0 0 0-1.676-4.582m-.357 6.393c-.493-1.244-.997-2.484-1.495-3.727q-1.51-3.76-3.067-7.5c-.01-.026-.051-.016-.041.01q1.413 3.66 2.873 7.302l1.463 3.644a12.5 12.5 0 0 1 .998 3.615.035.035 0 0 0 .07 0 8.7 8.7 0 0 0-.801-3.344m-3.538-1.014c-.014-.034-.07-.02-.056.016a122 122 0 0 1 2.726 8.577.025.025 0 0 0 .049-.013 62.5 62.5 0 0 0-2.719-8.58m4.857-41.144q-1.318-2.553-2.768-5.036a.018.018 0 0 0-.03.018q1.384 2.465 2.654 4.992c.846 1.682 1.608 3.407 2.47 5.08.015.03.066.01.054-.022a54 54 0 0 0-2.38-5.032m-4.693-13.937c-.023-.028-.075.01-.052.04a72.4 72.4 0 0 1 9.08 16.273c.023.054.11.033.091-.025a51.4 51.4 0 0 0-9.119-16.288m.939-6.162c-.025-.033-.084.012-.058.045a82.3 82.3 0 0 1 9.907 17.344c.01.022.047.007.039-.016a65.7 65.7 0 0 0-9.888-17.373m.342-6.372c-.013-.015-.035.007-.022.022a48 48 0 0 1 4.932 6.958.023.023 0 0 0 .04-.024 36 36 0 0 0-4.95-6.956m9.872 15.461q-.219-.408-.444-.813l-.93-1.675c-.01-.018-.037-.002-.028.015l.868 1.675q.213.411.431.82a7 7 0 0 0 .479.83c.013.018.048.008.04-.017a7 7 0 0 0-.416-.835m-8.495-20.271c-.01-.012-.027.005-.017.016a118 118 0 0 1 9.271 12.757.016.016 0 0 0 .027-.015 85 85 0 0 0-9.281-12.758m9.173 3.196c-.868-1.224-1.568-2.56-2.457-3.764-1.75-2.372-3.643-4.606-5.586-6.82-.019-.021-.047.01-.03.03 1.831 2.368 3.579 4.806 5.352 7.217.85 1.155 1.839 2.188 2.645 3.381.78 1.153 1.326 2.641 2.325 3.619.092.09.283 0 .232-.135-.497-1.303-1.686-2.405-2.482-3.528m2.266-7.471a25 25 0 0 0-1.032-1.617c-.695-1.008-1.463-1.963-2.18-2.955-1.466-2.032-2.928-4.056-4.493-6.014-.016-.02-.052.007-.037.028 1.413 2.025 2.913 3.97 4.423 5.921.77.996 1.528 2.005 2.206 3.067q.486.762.899 1.564a9 9 0 0 0 .795 1.514c.043.054.115-.006.105-.06a4.9 4.9 0 0 0-.686-1.448m-1.913-10.431a72 72 0 0 1-1.568-2.213 52 52 0 0 0-3.181-4.212c-.019-.022-.056.006-.04.03a52 52 0 0 0 3.081 4.29 77 77 0 0 1 1.742 2.28 15.6 15.6 0 0 0 1.525 2.052.027.027 0 0 0 .043-.034 17 17 0 0 0-1.602-2.193m-2.03-11.592a19 19 0 0 0-1.55-1.74c-.012-.013-.031.006-.02.019a20 20 0 0 1 1.45 1.841c.443.624.88 1.253 1.3 1.892a.027.027 0 0 0 .047-.027 11.7 11.7 0 0 0-1.227-1.985m-113.644 5.068c-2.116-.28-4.239-.564-6.368-.72q-1.596-.118-3.195-.18c-.492-.019-.985-.024-1.476-.047a5 5 0 0 0-.738-.04 5 5 0 0 0-.755.231.065.065 0 0 0 0 .125 5 5 0 0 0 .716.224 6 6 0 0 0 .777-.025c.491-.014.984-.001 1.476.004q1.598.019 3.195.089c2.129.092 4.25.202 6.369.444.067.008.065-.096 0-.105m-13.662-.36a2.6 2.6 0 0 1-.501-.065 10 10 0 0 0-.447-.099c-.152-.03-.306-.05-.46-.073a1.6 1.6 0 0 0-.519-.021.19.19 0 0 0-.045.345 1.3 1.3 0 0 0 .506.113 3 3 0 0 0 .506-.003 3 3 0 0 0 .476-.08 5 5 0 0 1 .488-.09c.015-.002.01-.026-.004-.027m11.361-3.467a132 132 0 0 0-4.883-.157q-1.22-.019-2.442-.004a7.2 7.2 0 0 0-2.269.218c-.057.02-.068.114 0 .128a8.5 8.5 0 0 0 2.27-.01q1.22-.079 2.44-.123a69 69 0 0 1 4.884.01c.04.002.04-.06 0-.062m-9.961.075c-.311-.013-.62-.047-.928-.088a3 3 0 0 0-.456-.04.9.9 0 0 0-.438.088.07.07 0 0 0 0 .122.86.86 0 0 0 .42.088 3.4 3.4 0 0 0 .474-.04c.309-.04.617-.075.928-.088a.021.021 0 0 0 0-.042m3.655-3.196q-1.448 0-2.896.013a17 17 0 0 0-2.691.132.069.069 0 0 0 0 .132 15.3 15.3 0 0 0 2.691.088q1.448-.023 2.896-.087 2.896-.13 5.79-.31c.014-.002.015-.025 0-.024q-2.895.057-5.79.056m-.591-2.573c-.508-.008-1.016-.038-1.524-.04a3 3 0 0 0-1.439.198.057.057 0 0 0 .014.103 3 3 0 0 0 1.453.03c.5-.06.997-.144 1.496-.209a.041.041 0 0 0 0-.082m-3.798-3.197a1.4 1.4 0 0 0-.152-.094.6.6 0 0 0-.174-.073.5.5 0 0 0-.195-.008 1 1 0 0 0-.09.03.2.2 0 0 0-.084.05.041.041 0 0 0 .018.07.3.3 0 0 0 .083.004l.041-.001c.014 0 .028.005.042.006.055.002.11-.001.164 0a1 1 0 0 1 .157.01.5.5 0 0 1 .157.063c.038.022.066-.032.033-.057m120.219 217.396c-.022.002-.023.037 0 .035a76.3 76.3 0 0 1 15.326.157c.02.002.024-.032.004-.035a53.5 53.5 0 0 0-15.33-.157m14.18 1.469a23.7 23.7 0 0 0-5.378-.189 44 44 0 0 0-5.35.585c-.019.003-.01.033.01.03a43 43 0 0 1 5.444-.477c1.76-.041 3.512.124 5.266.108.032 0 .041-.05.008-.057m5.768.339a2.4 2.4 0 0 0-.937-.125q-.558-.02-1.115-.022c-.729-.005-1.458.018-2.188.012a.01.01 0 0 0 0 .02c.717.053 1.43.136 2.147.191.358.027.715.055 1.073.07a2.6 2.6 0 0 0 1.007-.04c.042-.016.064-.083.014-.106m4.197 2.44a13.7 13.7 0 0 0-3.716-.616 59 59 0 0 0-4.078-.242 57 57 0 0 0-8.047.374c-.022.003-.023.038 0 .036a57 57 0 0 1 7.927-.186q1.926.09 3.84.325c.74.09 1.48.183 2.217.294a10 10 0 0 0 1.83.207.098.098 0 0 0 .027-.192m5.369 2.242a15.4 15.4 0 0 0-3.992-.718q-2.177-.225-4.366-.345a74 74 0 0 0-8.642.085c-.037.002-.038.06 0 .058a74 74 0 0 1 8.52.112q2.168.144 4.318.44a26.5 26.5 0 0 0 4.144.502.069.069 0 0 0 .018-.134m5.223 3.264a17 17 0 0 0-3.896-1.059c-1.428-.34-2.844-.635-4.301-.834a50.6 50.6 0 0 0-8.409-.434.022.022 0 0 0 0 .043 50.7 50.7 0 0 1 8.494.523c1.328.196 2.653.446 3.97.7 1.399.27 2.701.926 4.114 1.13.038.005.07-.047.029-.068m-10.104-.205c-.02-.002-.024.031-.004.034 2.207.326 4.413.673 6.608 1.074 2.2.403 4.37.925 6.56 1.37a.016.016 0 0 0 .009-.031 81.5 81.5 0 0 0-13.173-2.447m9.833 3.698c-.01 0-.01.015 0 .016a17.5 17.5 0 0 1 3.328.7c.015.004.02-.018.007-.023a12.4 12.4 0 0 0-3.334-.693m9.199 2.777a11.4 11.4 0 0 0-1.92-.648c-.042-.012-.057.05-.018.064l.948.354a5.7 5.7 0 0 0 .967.284c.03.005.055-.038.023-.054m-76.73-18.066c-.012 0-.012.02 0 .02a50 50 0 0 1 6.68.123c2.305.2 4.56.614 6.835 1.021.017.004.024-.021.007-.026a43.3 43.3 0 0 0-13.522-1.138m13.938 2.611a35 35 0 0 0-4.01-.492q-2.088-.177-4.182-.257c-.018 0-.017.026 0 .027q2.054.12 4.102.327c1.362.137 2.718.342 4.084.437a.022.022 0 0 0 .006-.042m6.644 1.5a4 4 0 0 0-1.672-.466c-.596-.07-1.204-.09-1.803-.12-.023 0-.023.034 0 .036a11 11 0 0 1 1.769.336 7.5 7.5 0 0 0 1.672.342.069.069 0 0 0 .034-.128m2.896 2.531a29 29 0 0 0-5.353-1.03q-2.606-.368-5.23-.593c-.032-.002-.031.048 0 .051q2.761.272 5.497.725c1.686.281 3.377.74 5.078.9.033.004.035-.043.008-.053m2.457 2.162a22.8 22.8 0 0 0-8.952-.95c-.017 0-.018.027 0 .026a35.6 35.6 0 0 1 8.94.969.023.023 0 0 0 .012-.045m.619.959c-.015-.002-.02.024-.004.026.856.138 1.706.32 2.55.513a.016.016 0 0 0 .01-.03 17.5 17.5 0 0 0-2.556-.51m-25.393 23.964a16.6 16.6 0 0 0-2.54-.618c-.856-.177-1.717-.33-2.577-.485-.027-.005-.039.034-.011.041.86.222 1.72.446 2.585.645a16 16 0 0 0 2.533.49c.045.003.047-.059.01-.073m3.304-.316a14.5 14.5 0 0 0-3.631-1.152 34 34 0 0 0-3.76-.609c-.018-.002-.018.025 0 .027a33 33 0 0 1 3.784.753q.871.221 1.73.487c.611.19 1.224.424 1.85.558.038.008.064-.045.027-.064m1.935-1.241a6 6 0 0 0-1.114-.248q-.542-.106-1.08-.23a19 19 0 0 1-2.156-.629c-.022-.007-.03.026-.01.034q1.065.427 2.167.745.55.156 1.11.272a4 4 0 0 0 1.072.129.037.037 0 0 0 .01-.073m3.384-.76a2.14 2.14 0 0 0-1.175-.374c-.468-.076-.92-.207-1.377-.327a20 20 0 0 0-2.634-.56c-.05-.006-.06.079-.012.089.874.18 1.76.33 2.625.548a7 7 0 0 1 1.32.435 2.5 2.5 0 0 0 1.162.409.13.13 0 0 0 .09-.22m.582-1.142a2 2 0 0 0-.285-.104 3 3 0 0 0-.284-.076 5 5 0 0 0-.594-.09c-.037-.004-.04.05-.008.061a5 5 0 0 0 .572.181c.094.021.19.045.285.057a2 2 0 0 0 .297.033.033.033 0 0 0 .017-.062m.88-.232c-.017-.005-.024.02-.007.027.215.08.429.16.647.23.014.005.02-.016.006-.022-.213-.084-.43-.159-.646-.235m21.946-3.645c-.03-.003-.03.044 0 .046a21 21 0 0 1 4.48.92c.02.006.028-.023.009-.03a16.7 16.7 0 0 0-4.489-.936m7.3-.195a6.6 6.6 0 0 0-1.394-.514 6 6 0 0 0-.7-.115 2.8 2.8 0 0 0-.737-.015c-.02.003-.017.032 0 .038a6 6 0 0 0 .713.153q.347.073.692.154c.468.108.94.22 1.398.364.038.011.064-.047.028-.065m-81.267-73.117a27 27 0 0 0-.986-1.202 20 20 0 0 0-.519-.571 3 3 0 0 0-.288-.28.33.33 0 0 0-.186-.105c-.192-.003-.164.28-.026.219.03-.014.007-.054-.021-.05.086-.013.116.094.158.16.053.085.114.164.174.245q.153.21.312.417.35.446.717.876c.24.28.484.558.739.825.26.273.513.565.792.819.04.036.107-.01.077-.06-.28-.448-.621-.873-.943-1.293m9.237.829a10.5 10.5 0 0 0-1.7-1.32c-.03-.02-.067.026-.039.049a16 16 0 0 1 1.54 1.469c.237.254.48.503.709.763.239.27.47.553.719.815.037.038.092-.01.07-.055a6.5 6.5 0 0 0-1.299-1.721m8.472 4.604-1.524-1.518c-1.003-.998-2.032-1.969-3.06-2.94a.025.025 0 0 0-.036.036c.99 1.01 1.98 2.02 2.998 3.002l1.504 1.454c.513.496 1.006 1.033 1.559 1.484a.022.022 0 0 0 .03-.03c-.448-.53-.98-.998-1.47-1.488m2.497-1.269a6 6 0 0 0-.987-.741c-.033-.02-.06.03-.03.05a8.5 8.5 0 0 1 1.784 1.652c.014.017.043-.006.03-.024a5.8 5.8 0 0 0-.797-.937m3.981.553c-.009-.004-.017.01-.008.014l.256.128c.009.004.016-.01.007-.014Zm-2.944 15.844a7 7 0 0 0-.739-.667l-.76-.644-1.523-1.29c-.028-.024-.07.017-.041.042l1.528 1.325.753.653a7 7 0 0 0 .756.615c.021.014.042-.016.026-.034m2.793-.25a3 3 0 0 0-.213-.228 6 6 0 0 0-.484-.408c-.337-.249-.696-.464-1.053-.683-.04-.024-.071.034-.035.06a11 11 0 0 1 .953.798c.15.135.305.263.458.395.074.065.154.123.232.183a1.3 1.3 0 0 0 .255.176.043.043 0 0 0 .059-.06 1 1 0 0 0-.172-.233m3.11.343a2.4 2.4 0 0 0-.275-.218c-.09-.068-.188-.128-.282-.19-.195-.127-.402-.238-.604-.355-.027-.015-.047.023-.024.04.187.143.37.293.564.425a3.4 3.4 0 0 0 .587.357c.034.014.057-.036.034-.06m-34.58-9.13a5 5 0 0 0-.62-.614 6 6 0 0 0-.69-.514c-.251-.156-.513-.298-.771-.444-.023-.013-.04.019-.02.034a8 8 0 0 1 .663.577c.21.2.427.393.635.594q.306.296.616.586a7 7 0 0 0 .622.566c.048.036.095-.03.075-.075a3.4 3.4 0 0 0-.51-.71m1.937-.051q-.33-.359-.69-.689a35 35 0 0 0-.707-.634c-.254-.22-.53-.412-.79-.625-.015-.012-.036.007-.022.022.22.23.418.477.63.712.218.242.443.476.661.717q.318.352.653.69a3 3 0 0 0 .712.619c.048.024.128-.018.103-.08a2.6 2.6 0 0 0-.55-.732m1.863.175a4 4 0 0 0-.364-.425 3.8 3.8 0 0 0-.908-.655.035.035 0 0 0-.036.06 8 8 0 0 1 .819.72c.128.121.245.25.362.382.12.137.23.285.354.418.021.023.069-.001.056-.032a2.4 2.4 0 0 0-.283-.468m29.064-62.73-.833-1.402a.016.016 0 0 0-.027.015l.817 1.412c.27.467.52.963.833 1.403a.016.016 0 0 0 .027-.016c-.23-.49-.541-.948-.817-1.412m-1.312 1.154q-.646-1.029-1.33-2.033-1.314-1.923-2.781-3.73c-.017-.02-.053.008-.037.03a76 76 0 0 1 2.77 3.811q.64.947 1.245 1.917a19 19 0 0 0 1.207 1.95.028.028 0 0 0 .045-.026 11.7 11.7 0 0 0-1.12-1.92m-1.588.651c-.009-.016-.031-.002-.024.013q.66 1.427 1.414 2.805c.013.024.049.003.037-.022q-.667-1.423-1.427-2.796m13.884 4.115a.025.025 0 0 0-.036.035 50.5 50.5 0 0 1 5.668 7.477.045.045 0 0 0 .078-.046 28 28 0 0 0-5.71-7.466m-16.137-77.295a1.73 1.73 0 0 0-1.013-.462c-.48-.121-.958-.248-1.44-.36a58 58 0 0 0-3.012-.628 43 43 0 0 0-5.817-.601c-.016 0-.015.022 0 .023a51 51 0 0 1 5.953.882c.934.192 1.862.411 2.78.673.474.136.952.272 1.42.431a1.83 1.83 0 0 0 1.093.18.083.083 0 0 0 .036-.138m8.386 2.326a18.4 18.4 0 0 0-7.414-1.925c-.013-.002-.016.02-.003.023 2.521.41 4.9 1.4 7.375 2.002a.055.055 0 0 0 .042-.1m.042 2.078a20.3 20.3 0 0 0-6.323-2.256c-.026-.005-.038.035-.011.042a39.3 39.3 0 0 1 6.3 2.271c.038.016.072-.035.034-.057m93.532 248.575c-.007-.006-.018.005-.01.011l.825.645c.006.004.014-.004.008-.009zm-53.063-7.009a.031.031 0 0 0-.062 0 14.55 14.55 0 0 0 2.209 7.705.023.023 0 0 0 .04-.024 16.8 16.8 0 0 1-2.187-7.68"/></svg>