<svg xmlns="http://www.w3.org/2000/svg" data-name="Level Off / Hold Depth" viewBox="0 0 461.09 342.643"><path fill="currentColor" d="M296.513 118.176c-2.357.793-4.749 1.483-7.093 2.31-2.35.83-4.716 1.601-7.073 2.41-1.158.396-2.315.813-3.487 1.17a17 17 0 0 1-1.76.481c-.285.054-.573.014-.86.055a6.5 6.5 0 0 0-1.042.315 70 70 0 0 1-7.124 1.874 22 22 0 0 1-3.527.512 23 23 0 0 1-3.585-.287 21.4 21.4 0 0 0-6.423.22 19.5 19.5 0 0 0-5.988 2.157 18.5 18.5 0 0 0-4.67 4.026q-2.225 2.517-4.389 5.089a22 22 0 0 1-5.03 4.688.023.023 0 0 0 .024.04c3.443-1.917 6.058-4.869 8.77-7.658a22.5 22.5 0 0 1 2.207-1.967 31.2 31.2 0 0 1 8.271-4.213 19.1 19.1 0 0 1 6.126-.736c1.17.055 2.327.253 3.497.307a14.8 14.8 0 0 0 3.608-.37c2.36-.473 4.683-1.143 6.998-1.798.582-.165 1.16-.339 1.74-.507.263-.076.535-.133.79-.23.365-.14.631-.417.995-.566 1.132-.465 2.302-.834 3.461-1.227 2.6-.88 5.156-1.85 7.725-2.811 2.652-.994 5.235-2.148 7.858-3.216.04-.017.025-.083-.019-.068m-19.785-28.873c-1.961.653-3.94 1.216-5.933 1.76a15 15 0 0 0-1.515.449 8 8 0 0 0-1.26.756 13.6 13.6 0 0 1-3.097 1.29c-.954.31-1.91.62-2.87.912a21 21 0 0 1-3.086.54 32 32 0 0 0-6.037.986 8 8 0 0 1-.873.372c-.266.062-.543.093-.813.134q-.883.134-1.77.24a19.6 19.6 0 0 1-3.553.126c-.056-.004-.07.091-.013.1a30.7 30.7 0 0 0 6.046.397c.528-.027 1.001.124 1.53.124a7.3 7.3 0 0 0 1.534-.158 15.2 15.2 0 0 0 2.987-.991c.982-.431 1.977-.868 2.969-1.275 1-.41 2.04-.711 3.064-1.053q1.503-.502 3.013-.977c1.043-.325 2.126-.177 3.143-.608 2.218-.942 4.372-2.053 6.561-3.06.036-.017.01-.077-.027-.064"/><path fill="currentColor" d="M453.28 108.42c-2.218 1.346-4.518 2.55-6.736 3.897q-3.274 1.988-6.535 3.996c-4.2 2.587-8.405 5.169-12.574 7.807a223.5 223.5 0 0 0-23.768 16.89c-.207.173-.405.352-.609.527 1.787-2.253 3.604-4.497 5.521-6.64.044-.049-.025-.119-.072-.072-1.868 1.886-3.833 3.673-5.63 5.63a71 71 0 0 0-4.972 6.08c-.8 1.092-1.524 2.234-2.289 3.35a18 18 0 0 0-1.748 3.463 41 41 0 0 0-1.612 5.033c-1.412 3.841-2.414 7.885-3.617 11.687a77.8 77.8 0 0 1-10.746 21.456 129.7 129.7 0 0 1-16.074 18.293c-1.47 1.418-2.973 2.8-4.468 4.192a17.8 17.8 0 0 0-3.967 5.129 34.3 34.3 0 0 1-3.04 5.355 14 14 0 0 1-4.69 3.852c-4.166 2.256-8.497 4.244-12.74 6.35-2.147 1.064-4.309 2.115-6.384 3.314-1.038.599-2.004 1.304-3.056 1.89-1.047.581-2.124 1.11-3.166 1.7-1.052.595-2.077 1.18-3.067 1.872-.078.055-.033.197.07.164a66 66 0 0 0 6.575-2.786c.252-.112.51-.201.766-.301-.603.496-1.2 1-1.776 1.521a30 30 0 0 0-3.146 3.431q-3.01 3.723-5.66 7.719c-1.786 2.701-3.417 5.494-4.945 8.348a91 91 0 0 1-4.954 8.492c-1.59 2.324-3.356 4.518-5.136 6.698a17.3 17.3 0 0 0-.018-3.369q-.074-.59-.155-1.166c-.002-.049.002-.099-.002-.147a20 20 0 0 0-.647-3.761 22 22 0 0 0-1.385-3.742 32 32 0 0 0-1.91-3.337 26.1 26.1 0 0 0-4.967-5.977 7.9 7.9 0 0 0-3.424-2.062 5.66 5.66 0 0 0-4.034.962 18 18 0 0 0-3.63 2.946 9.2 9.2 0 0 0-2.434 3.703.098.098 0 0 0 .163.095c.924-.864 1.662-1.89 2.536-2.804a18 18 0 0 1 2.982-2.508 6.3 6.3 0 0 1 3.744-1.356 6.73 6.73 0 0 1 3.54 1.851 22.7 22.7 0 0 1 4.757 5.263 24.2 24.2 0 0 1 2.682 6.547 31 31 0 0 1 .798 3.96l.106.695c-.02 1.71-.049 3.42-.21 5.122a35.2 35.2 0 0 1-1.767 8.135 26 26 0 0 1-.743 1.904c-2.86-8.264-6.095-16.933-12.817-22.854a21 21 0 0 0-2.698-2.07 27 27 0 0 0-3.224-1.59c-.063-.029-.118.058-.056.094a21 21 0 0 1 2.503 1.857 37 37 0 0 1 2.251 1.945 32.6 32.6 0 0 1 3.957 4.57 53.7 53.7 0 0 1 6.195 11.628c.974 2.427 1.832 4.896 2.723 7.354a.75.75 0 0 0 .486.483 15.5 15.5 0 0 1-2.244 3.253 14.1 14.1 0 0 1-5.084 3.497 14.29 14.29 0 0 1-12.189-.555 23.2 23.2 0 0 1-5.807-4.885 49 49 0 0 1-4.35-5.558 47.74 47.74 0 0 1-8.403-26.35 37.9 37.9 0 0 1 2.511-13.66 44.9 44.9 0 0 1 7.544-12.496 70 70 0 0 1 11.191-10.551c4.394-3.37 8.838-6.708 13.498-9.704 1.119-.719 2.165-1.526 3.21-2.347.146-.115-.04-.307-.184-.24a52 52 0 0 0-3.675 1.905 4.3 4.3 0 0 0-.202-.788c-.146-.49-.256-.981-.358-1.482-.19-.927-.373-1.854-.56-2.782a51 51 0 0 0-1.325-5.737c-.006-.02-.027-.022-.04-.035.949.065 1.897.142 2.84.257.129.016.152-.192.03-.223a39.5 39.5 0 0 0-6.903-1.123c-2.395-.176-4.795-.159-7.194-.21-1.182-.024-2.365-.044-3.547-.073s-2.354-.205-3.537-.216c-2.372-.023-4.751-.098-7.112-.341a39 39 0 0 1-3.872-.588c-.484-.1-.996-.236-1.516-.358a106 106 0 0 1 12.31-2.402 76 76 0 0 1 7.753-.704 78 78 0 0 1 7.882.219c1.28.095 2.562.13 3.842.243.098.008.115-.145.023-.169a41 41 0 0 0-7.584-1.256c-2.633-.19-5.262-.18-7.899-.132a74 74 0 0 0-15.635 2.076c-10.364 2.453-20.292 6.426-30.087 10.546-4.923 2.07-9.83 4.18-14.743 6.276-4.94 2.108-9.897 4.16-15.011 5.814-4.944 1.598-9.966 2.938-14.909 4.539a95.6 95.6 0 0 0-14.366 5.958c-4.673 2.407-9.233 5.018-13.997 7.248-4.897 2.294-9.907 4.33-14.918 6.356a22.4 22.4 0 0 0-3.022 1.492 9.7 9.7 0 0 0 1.186-2.712.189.189 0 0 0-.313-.182 52.4 52.4 0 0 1-6.247 5.64 27.7 27.7 0 0 1-8.528 3.483 84 84 0 0 0-9.476 3.372 75 75 0 0 1-9.496 3.23c-6.4 1.669-13.303 2.684-19.863 1.366-5.361-1.078-10.619-3.885-13.696-8.53a15.16 15.16 0 0 1-2.543-8.403 15.6 15.6 0 0 1 1.59-6.57 2.3 2.3 0 0 0 .446.66.16.16 0 0 0 .225-.01q.072.026.137.056a3.6 3.6 0 0 1 .548.387 8 8 0 0 0 1.185.621 37 37 0 0 1 4.716 2.846 34 34 0 0 1 4.195 3.463 8 8 0 0 0 1.861 1.54 4.5 4.5 0 0 0 2.512.433c3.703-.38 6.775-2.414 9.831-4.375 1.479-.949 3.097-1.717 4.513-2.754a5.7 5.7 0 0 0 2.264-3.5c.455-2.584-1.093-6.346-4.134-6.347a.095.095 0 0 0-.047.174c1.901 1.262 3.44 3.193 3.294 5.595a5.3 5.3 0 0 1-1.8 3.37 24 24 0 0 1-3.526 2.916 21.2 21.2 0 0 1-8.73 3.625 10.5 10.5 0 0 1-2.395.117 3.27 3.27 0 0 1-2.065-.97c-1.121-1.042-2.164-2.164-3.313-3.18a27.6 27.6 0 0 0-4.132-2.91 29 29 0 0 0-2.238-1.213 11 11 0 0 0-1.158-.53c-.356-.124-.72-.196-1.083-.302a1.43 1.43 0 0 1 .19-.876.42.42 0 0 0 .014-.413 7.6 7.6 0 0 1 2.945-2.093l.088.017q.489.104.97.244a14 14 0 0 1 1.91.706 15 15 0 0 1 3.423 2.146c.017.014.041-.01.025-.025a12.8 12.8 0 0 0-4.064-2.592 13 13 0 0 0-2.094-.622c2.209-1.04 4.399-2.115 6.6-3.17a40 40 0 0 1 6.545-2.64 14.6 14.6 0 0 1 3.396-.676 11.2 11.2 0 0 1 3.734.246c.07.02.094-.08.03-.106a16 16 0 0 0-2.875-.911 15.5 15.5 0 0 0-3.03-.114c-.021 0-.041.005-.061.006q.854-.467 1.707-.937c1.416-.782 2.84-1.548 4.263-2.316q4.32-2.331 8.724-4.503 4.35-2.144 8.77-4.144c2.915-1.32 5.908-2.518 8.766-3.958a35 35 0 0 1 4.975-2.031 26 26 0 0 1 5.525-1.373c.078-.007.081-.128 0-.125a33 33 0 0 0-4.64.384 26 26 0 0 0-1.595.35c1.49-.87 2.98-1.74 4.454-2.636q4.561-2.776 9.025-5.707 8.83-5.796 17.242-12.199a333 333 0 0 0 5.48-4.28.53.53 0 0 0 .013.27 2 2 0 0 0 .28.44 8 8 0 0 0 .845.847c.293.3.518.65.824.937a11 11 0 0 1 .904 1.034 31 31 0 0 0 3.965 4.046c.016.012.037-.008.022-.022a21.3 21.3 0 0 1-3.602-4.322 13 13 0 0 0-1.294-2.228 2.8 2.8 0 0 0-.938-.717 3.3 3.3 0 0 1-.503-.217c-.056-.035-.25-.121-.36-.191q1.368-1.086 2.739-2.17c.27-.214.547-.418.825-.62a2.3 2.3 0 0 0 .495.2c.34.091.695.114 1.033.214a7.2 7.2 0 0 1 1.47.711 68 68 0 0 1 4.797 2.978 36 36 0 0 1 4.5 3.667 29 29 0 0 0 4.156 3.827c.021.014.04-.02.02-.034a25.7 25.7 0 0 1-4.127-3.996 44 44 0 0 0-3.98-3.849 30 30 0 0 0-4.302-3.12 6.4 6.4 0 0 0-2.417-1.045c-.336-.037-.664-.008-.982-.014a17 17 0 0 1 2.965-1.637c1.648-.692 3.364-1.213 5.025-1.87 3.355-1.33 6.589-2.933 9.822-4.53 3.425-1.691 6.864-3.362 10.249-5.135q5.613-2.94 11.229-5.877c1.901-1 3.814-1.981 5.708-2.996a48 48 0 0 0 5.577-3.227c.066-.048.03-.173-.06-.142a48 48 0 0 0-5.044 2.215c-1.725.811-3.444 1.635-5.166 2.45-.795.377-1.595.744-2.392 1.117 1.021-.973 1.957-2.077 2.914-3.116a29.6 29.6 0 0 1 4.525-4.068 31 31 0 0 1 5.212-3.188c.045-.02.013-.094-.033-.078a28.3 28.3 0 0 0-5.288 2.243 27.8 27.8 0 0 0-4.785 3.527c-1.322 1.23-2.536 2.61-3.733 3.96a13 13 0 0 1-3.203 2.77l-1.04.486-.02.008-.002.003q-1.27.591-2.537 1.184-5.205 2.423-10.351 4.962c-3.338 1.65-6.656 3.352-10.07 4.842-1.668.728-3.368 1.355-5.08 1.97a23.8 23.8 0 0 0-4.701 2.137 29 29 0 0 0-2.55 1.854c-.872.146-1.743.292-2.621.406a32 32 0 0 0-4.585 1.2l-9.371 2.666q-4.679 1.33-9.355 2.67a22 22 0 0 0-4.018 1.458 37 37 0 0 0-3.754 2.535 50 50 0 0 1-7.76 4.007 1123 1123 0 0 1-8.64 3.854c-5.782 2.54-11.608 4.986-17.54 7.157-5.752 2.105-11.62 3.902-17.275 6.272-5.697 2.388-11.03 5.485-16.463 8.402-9.715 5.216-21.374 10.367-32.502 6.644a18.6 18.6 0 0 1-10.918-8.89 16 16 0 0 1-1.66-6.663 15.7 15.7 0 0 1 1.18-6.702c.062-.139.143-.272.21-.41a12.2 12.2 0 0 1 2.066-2.265 14.82 14.82 0 0 1 9.065 5.257 22 22 0 0 1 1.805 2.406 17 17 0 0 0 1.415 2.235 2.55 2.55 0 0 0 2.254.62 8.2 8.2 0 0 0 2.627-.638 43 43 0 0 0 4.961-2.53c.83-.494 1.626-1.04 2.463-1.523a16 16 0 0 0 2.143-1.348 8.84 8.84 0 0 0 3.422-8.95 8.03 8.03 0 0 0-2.978-4.534 7.5 7.5 0 0 0-2.493-1.268 4.3 4.3 0 0 0-1.248-.19c-.449.011-.883.161-1.33.21a.106.106 0 0 0 0 .21 10 10 0 0 1 2.124.7 9 9 0 0 1 2.093 1.046 6.94 6.94 0 0 1 2.735 3.824 7.46 7.46 0 0 1-.231 4.72 11.65 11.65 0 0 1-2.991 3.909 20.7 20.7 0 0 1-6.427 4.338 10.4 10.4 0 0 1-2.67.638c-.87.115-1.753.25-2.629.288a1.25 1.25 0 0 1-1.05-.297 7 7 0 0 1-.847-1.241 47 47 0 0 0-2.999-4.145c-1.954-2.346-4.894-4.428-8.028-4.682.121-.088.238-.182.36-.267a24.6 24.6 0 0 1 3.321-1.879 9.2 9.2 0 0 1 1.979.745 14 14 0 0 1 1.363.804c.238.16.396.386.627.548a7 7 0 0 0 .753.318c.053.028.114-.043.067-.086-.205-.186-.319-.436-.547-.597-.24-.169-.529-.236-.776-.395a15 15 0 0 0-1.504-.864 7.7 7.7 0 0 0-1.682-.605c1.644-.778 3.336-1.468 4.956-2.27 5.726-2.836 10.247-7.493 15.715-10.74 2.877-1.707 5.916-3.112 8.937-4.54q4.63-2.19 9.222-4.46 9.183-4.537 18.24-9.331 9.044-4.815 17.89-9.982c5.883-3.434 11.637-7.076 17.492-10.555a68 68 0 0 1 9.104-4.664c.33-.134.665-.254.997-.383a11 11 0 0 1 1.88.883 15.5 15.5 0 0 1 2.167 1.698 44 44 0 0 1 3.978 4.127 53 53 0 0 1 3.845 5.051c1.04 1.552 1.975 3.168 3.003 4.726a16 16 0 0 0 3.878 4.333c.035.025.076-.03.045-.058-2.926-2.649-4.853-5.923-6.814-9.298a43 43 0 0 0-3.577-5.134c-.663-.833-1.335-1.66-2.006-2.485a19 19 0 0 0-1.797-2.093 8.3 8.3 0 0 0-3.694-2.1c2.544-.947 5.133-1.769 7.718-2.595q10.039-3.208 20.076-6.421c13.65-4.369 27.309-8.71 40.922-13.194a30.7 30.7 0 0 0 4.639-2.176c.217-.115.052-.392-.154-.364a33.3 33.3 0 0 0-5.47 1.056l-2.391.74.113-.119c.842-.92 1.67-1.896 2.584-2.744.917-.852 1.903-1.635 2.857-2.445.055-.046-.015-.116-.07-.092a17 17 0 0 0-5.931 3.719 34 34 0 0 1-2.387 2.557l-.006.005q-5.171 1.603-10.328 3.253l-20.654 6.593q-10.267 3.277-20.533 6.556c-6.575 2.102-13.215 4.043-19.323 7.325-6.083 3.268-11.85 7.141-17.789 10.66q-8.887 5.268-17.942 10.247-1.65.911-3.306 1.81-1.007.284-1.989.651a.5.5 0 0 0-.252.043q-.683.334-1.383.626c-2.836.9-5.669 1.796-8.551 2.542-1.702.44-3.362 1.103-5.032 1.654q-2.403.794-4.818 1.55c-6.635 2.089-13.278 4.214-19.97 6.117-6.074 1.726-12.545 3.202-18.842 1.853-5.22-1.119-10.188-4.033-12.547-8.991a16.4 16.4 0 0 1-1.416-8.422 18.3 18.3 0 0 1 .517-3.141c.11-.354.213-.71.34-1.058l.059-.159a23 23 0 0 1 1.079-2.322c.081-.129.157-.261.248-.383a4 4 0 0 1 .801-.784c.243.114.502.204.77.313a8.7 8.7 0 0 1 1.857 1.024 10.9 10.9 0 0 1 2.711 3.02 32.4 32.4 0 0 1 2.1 4.173 6.5 6.5 0 0 0 .897 1.716 2.2 2.2 0 0 0 1.805.685 17.9 17.9 0 0 0 8.716-2.815 46 46 0 0 0 3.798-2.644 27 27 0 0 0 3.33-2.669 6.37 6.37 0 0 0 1.954-3.757 3.98 3.98 0 0 0-1.331-3.444c-.034-.03-.098.011-.068.053 1.574 2.16-.071 5.151-1.705 6.733a36 36 0 0 1-6.56 4.956 15.3 15.3 0 0 1-4.052 1.747 18 18 0 0 1-2.124.373 9 9 0 0 1-2.284.144c-.626-.093-.82-.843-1.042-1.345-.302-.68-.6-1.361-.917-2.034a20 20 0 0 0-2.054-3.552 10.6 10.6 0 0 0-2.921-2.722 8 8 0 0 0-1.52-.737q.345-.147.694-.275a60 60 0 0 1 3.026-.99c.223.136.406.256.454.286q.682.428 1.329.909a20 20 0 0 1 2.557 2.25 22.9 22.9 0 0 1 3.768 5.507c.012.025.056.008.046-.02a17.1 17.1 0 0 0-4.179-6.156 18.5 18.5 0 0 0-2.876-2.29c-.096-.06-.476-.31-.898-.55a74 74 0 0 1 10.724-2.312c1.31-.185 2.624-.331 3.931-.53 1.424-.218 2.841-.55 4.274-.682a.14.14 0 0 0 0-.282c-1.288-.084-2.567-.318-3.86-.301a34 34 0 0 0-3.846.247q-1.823.23-3.63.567c10.032-3.36 19.91-7.239 29.785-11.014 11.066-4.23 22.034-8.647 32.72-13.776 5.27-2.529 10.381-5.342 15.56-8.047a76 76 0 0 1 4.785-2.308 3.3 3.3 0 0 0 .483.776c.546.685 1.082 1.395 1.643 2.065a34.6 34.6 0 0 1 2.812 4.791 14.6 14.6 0 0 0 3.557 4.246 66 66 0 0 0 5.555 3.779c.03.018.065-.026.038-.05-1.615-1.337-3.281-2.584-4.975-3.818a11.5 11.5 0 0 1-3.833-4.245c-.77-1.56-1.465-3.159-2.19-4.74a6.5 6.5 0 0 0-1.37-1.958c-.375-.37-.773-.719-1.115-1.113q.966-.409 1.951-.772a9.6 9.6 0 0 1 1.609 1.262c.601.602 1.257 1.133 1.863 1.729.661.651 1.268 1.366 1.88 2.064 2.5 2.854 4.854 5.83 7.109 8.881.02.028.066.003.047-.027a106 106 0 0 0-6.42-8.77c-.565-.693-1.14-1.378-1.707-2.07a24 24 0 0 0-1.633-2.05 9.5 9.5 0 0 0-1.794-1.354 59 59 0 0 1 7.773-1.968c5.93-1.135 11.897-2.081 17.839-3.15q9.005-1.618 17.994-3.324 8.905-1.69 17.793-3.467c2.99-.597 5.972-1.228 8.955-1.863 1.461-.31 2.928-.607 4.379-.968 1.521-.379 2.928-1.01 4.432-1.427 1.44-.4 2.873-.814 4.32-1.19.133-.034.074-.224-.057-.202-1.485.246-2.975.445-4.464.665-1.562.231-3.128.216-4.694.477-.225.038-.45.082-.675.12.489-.275.975-.553 1.464-.81 1.412-.743 2.81-1.49 4.272-2.133.744-.327 1.501-.625 2.24-.963.83-.38 1.639-.828 2.491-1.153a.035.035 0 0 0-.018-.067c-.8.18-1.616.276-2.415.469a23 23 0 0 0-2.336.724c-1.47.526-2.954 1.08-4.374 1.729-1.464.668-2.843 1.504-4.315 2.153a26.5 26.5 0 0 1-4.641 1.527l-.013.01-.67.133c-5.988 1.164-11.967 2.374-17.958 3.525q-17.884 3.434-35.831 6.52c-5.732.987-11.307 2.143-16.63 4.56-5.242 2.38-10.214 5.345-15.351 7.938-4.015 2.026-8.081 3.947-12.17 5.817-6.004.622-12.128 1.07-18.057-.11-5.918-1.176-11.688-4.473-13.706-10.464a10.55 10.55 0 0 1 .177-7.763 9.77 9.77 0 0 1 3.615-4.05 4.85 4.85 0 0 1 1.745 2.276 16.3 16.3 0 0 1 1.216 3.862c.206 1.121.17 2.403 1.297 3.038a4.88 4.88 0 0 0 3.136.16 65 65 0 0 0 4.156-.774 11.4 11.4 0 0 0 3.475-1.254 5.95 5.95 0 0 0 2.23-2.268 5 5 0 0 0 .348-3.428 9.2 9.2 0 0 0-.683-2.011c-.282-.6-.742-1.086-1.04-1.668-.418-.815-1.059-1.941-2.105-1.9a.118.118 0 0 0-.059.218 3.9 3.9 0 0 1 2.08 2.195c.122.454.19.92.319 1.373.176.612.4 1.204.523 1.83a4.544 4.544 0 0 1-2.973 5.12 13 13 0 0 1-3.478.874c-1.204.16-2.398.393-3.603.548a4 4 0 0 1-1.303.017c-.622-.126-.81-.527-.907-1.12a23 23 0 0 0-.702-3.334c-.452-1.414-1.18-3.462-2.515-4.436a15 15 0 0 1 1.268-.6c.16-.066.325-.112.485-.174a20.3 20.3 0 0 1 2.443 4.908.023.023 0 0 0 .045-.013 13.4 13.4 0 0 0-2.457-4.906 44 44 0 0 1 7.806-1.962c3.64-.672 7.248-1.468 10.812-2.473a111 111 0 0 0 10.497-3.537c3.44-1.354 6.822-2.87 10.34-4.019 1.285-.42 2.587-.744 3.895-1.032a6.1 6.1 0 0 1 1.773 1.845 6 6 0 0 0 .32.737c.196.261.46.47.662.736a16 16 0 0 1 1.028 1.482c1.542 2.577 2.609 5.426 4.202 7.97.02.035.083.013.067-.028-1.145-2.914-2.807-5.627-4.097-8.48-.26-.579-.555-1.135-.834-1.703a1.95 1.95 0 0 0-.435-.744c-.243-.197-.497-.348-.73-.57a8.7 8.7 0 0 0-1.744-1.291 66 66 0 0 1 6.925-1.081c3.776-.4 7.549-.79 11.312-1.3 7.654-1.035 15.211-2.505 22.752-4.16a63 63 0 0 1 7.686-1.228q.203.148.435.292a3 3 0 0 1 .922.73 7 7 0 0 1 .513 1.197c.196.45.475.858.671 1.31.236.545.434 1.104.64 1.66q.558 1.507 1.11 3.017c.333.906.666 1.803 1.073 2.679.187.404.708 1.263.193 1.577-.319.195-.136.108-.365-.027a1.7 1.7 0 0 1-.249-.238c-.193-.186-.382-.376-.575-.562a54 54 0 0 1-4.092-4.137 2 2 0 0 1-.575-.977 5 5 0 0 0-.062-.6c-.121-.479-.32-.933-.434-1.419a87 87 0 0 1-.705-3.396c-.009-.043-.082-.034-.077.01.133 1.255.23 2.508.338 3.766a2.9 2.9 0 0 0 .334 1.494c.133.176.354.264.5.442.158.195.282.423.44.621a33.3 33.3 0 0 0 5.414 5.389.06.06 0 0 0 .078 0c.754-.626.064-2.155-.15-2.877-.478-1.614-1.104-3.192-1.66-4.781a23 23 0 0 1-.756-2.348 4.7 4.7 0 0 0-.656-1.908 3.8 3.8 0 0 0-1.242-1.01c.85-.06 1.704-.107 2.565-.12 3.86-.063 7.725.114 11.585.146q11.718.097 23.433-.324c7.876-.286 15.736-.698 23.557-1.707 1.831-.236 3.646-.575 5.46-.915.155-.029.116-.269-.035-.268-1.558.003-3.112.041-4.667.08 3.54-.96 7.011-2.27 10.492-3.361a59 59 0 0 1 9.51-2.132q.232.077.463.15 1.714.542 3.446 1.02a57 57 0 0 0 7.012 1.58c.034.005.05-.043.015-.052-2.245-.565-4.511-1.036-6.75-1.628a96 96 0 0 1-3.845-1.122l.167-.026c1.877-.249 3.765-.461 5.639-.747q1.975.62 3.95 1.237c2.117.665 4.224 1.45 6.364 2.053-.353.069-.706.138-1.062.197-1.962.325-3.895.83-5.88 1.043a22 22 0 0 1-2.87.081c-.092-.002-.528-.025-1.038-.051-2.037-.298-3.984-1.027-6.025-1.296a9 9 0 0 0-2.966-.011c-.515.11-.983.38-1.504.499-.52.12-1.043.238-1.551.404a48 48 0 0 0-5.542 2.48c-.02.01-.006.044.015.036 1.007-.377 2.014-.773 3.049-1.072.96-.279 1.95-.464 2.926-.683a12 12 0 0 1 1.514-.286c.515-.044 1.005.111 1.522.095a18.5 18.5 0 0 1 3.149.163 49 49 0 0 0 6.134.651 5.4 5.4 0 0 0 1.455-.28l.032-.005q.611.022 1.223.019a18 18 0 0 0 2.874-.26 15 15 0 0 0 2.943-.675 43 43 0 0 1 2.373-.833l.152.043a.047.047 0 0 0 .025-.09l-.014-.006c1.35-.431 2.714-.812 4.08-1.192.035.007.07.019.107.026a.1.1 0 0 0 .124-.092c1.784-.497 3.566-.998 5.314-1.61a.018.018 0 0 0-.009-.034c-1.8.457-3.574.977-5.353 1.472a.44.44 0 0 0-.285-.287c-.035-.012-.058.043-.025.061l.098.22c-1.912-.827-3.973-1.378-5.945-2.04l-3.128-1.056q-.263-.088-.527-.184a55 55 0 0 0 5.366-1.995c1.594.562 3.2 1.093 4.8 1.635q1.415.479 2.835.945c.728.24 1.73.765 2.491.46.041-.016.042-.09-.011-.084a3.8 3.8 0 0 1-1.559-.391q-.628-.214-1.261-.415-1.37-.44-2.743-.866c-1.457-.455-2.914-.919-4.377-1.358q1.572-.668 3.129-1.366.834-.37 1.67-.731c1.894.51 3.818.916 5.726 1.359a37 37 0 0 1 3.263.92 11.5 11.5 0 0 0 2.952.767.077.077 0 0 0 .039-.142 10.5 10.5 0 0 0-2.926-.864 56 56 0 0 1-3.295-.8c-1.82-.502-3.656-.993-5.514-1.347a129 129 0 0 1 8.061-3.193c6.69-2.373 13.544-4.241 20.397-6.075 6.591-1.763 13.503-3.234 19.468-6.682 5.283-3.054 9.492-7.673 14.27-11.412a35.2 35.2 0 0 1 7.938-4.823 63 63 0 0 1 9.825-2.929 125 125 0 0 0 19.194-6.162 171 171 0 0 0 17.992-8.941c5.877-3.324 11.743-6.794 17.32-10.602a35 35 0 0 0 3.8-3.08c.196-.18-.01-.582-.275-.471a62 62 0 0 0-8.721 4.796q-4.275 2.662-8.607 5.234a198 198 0 0 1-17.868 9.496 115.5 115.5 0 0 1-18.846 6.872c-6.393 1.683-12.997 2.803-18.698 6.354-5.122 3.192-9.265 7.655-14.123 11.197a39.7 39.7 0 0 1-8.431 4.832 84 84 0 0 1-9.749 3.077c-6.854 1.846-13.734 3.608-20.5 5.763-3.347 1.067-6.665 2.23-9.925 3.542-3.216 1.296-6.335 2.814-9.546 4.119a43.3 43.3 0 0 1-10.017 2.749c-3.519.523-7.072.804-10.544 1.609-6.478 1.502-12.513 4.42-18.94 6.079a67 67 0 0 1-3.345.769c-4.086.192-8.17.43-12.261.614q-12.036.543-24.089.525c-7.893-.009-15.908-.706-23.713.741-3.847.713-7.643 1.685-11.479 2.456q-5.93 1.193-11.915 2.094a254 254 0 0 1-12.08 1.499 66.6 66.6 0 0 0-11.26 1.816 99 99 0 0 0-10.534 3.915c-3.603 1.467-7.263 2.78-10.995 3.88a113 113 0 0 1-11.322 2.698 50 50 0 0 0-8.594 2.077 14.44 14.44 0 0 0-6.734 4.733 10.83 10.83 0 0 0-1.838 7.913 15.23 15.23 0 0 0 3.49 7.714 17.44 17.44 0 0 0 7.6 4.992c6.264 2.238 13.406 2.097 19.973 1.348q-8.607 3.844-17.39 7.278c-11.266 4.405-22.64 8.52-33.826 13.128a182 182 0 0 0-3.914 1.66.3.3 0 0 0-.18.264 1.6 1.6 0 0 0-.248.234 57 57 0 0 0-6.356 2.139 7.1 7.1 0 0 0-2.75 1.7 8.8 8.8 0 0 0-1.557 2.655 18.2 18.2 0 0 0-1.49 4.137 16 16 0 0 0 .235 8.07c1.568 5.559 5.973 9.519 11.295 11.47 5.974 2.189 12.619 1.854 18.737.488 3.518-.785 6.96-1.886 10.405-2.938 3.508-1.072 7.017-2.138 10.52-3.223 3.832-1.187 7.698-2.336 11.459-3.732.969-.36 1.928-.76 2.875-1.186.27-.091.535-.184.787-.268a63 63 0 0 0 1.958-.7q-3.637 1.913-7.305 3.767c-6.159 3.096-12.493 5.873-18.594 9.08a59 59 0 0 0-8.302 5.37 92 92 0 0 1-7.663 5.553c-2.815 1.721-5.941 2.798-8.82 4.394a13.97 13.97 0 0 0-5.92 5.671c-.034.064-.058.13-.09.194a14.55 14.55 0 0 0-1.657 10.264 18 18 0 0 0 8.003 11.644 26.4 26.4 0 0 0 14.415 4.08c6.144-.006 12.089-1.86 17.652-4.342 5.732-2.558 11.105-5.83 16.67-8.718a129 129 0 0 1 17.5-7.173 371 371 0 0 0 35.598-14.64 42 42 0 0 0 4.09-2.138c1.293-.784 2.457-1.744 3.718-2.574 2.571-1.693 5.82-2.261 8.74-3.097q4.893-1.401 9.784-2.81l4.751-1.367c1.297-.373 2.664-.676 3.938-1.153-.94.744-1.877 1.491-2.825 2.225q-8.447 6.535-17.324 12.486-4.911 3.307-9.943 6.428a363 363 0 0 1-5.15 3.15c-.863.515-1.748 1.001-2.581 1.563a12 12 0 0 0-1.71 1.552 50 50 0 0 0-2.995 1.033 106 106 0 0 0-4.58 1.928q-9.133 4.056-17.925 8.825-2.445 1.323-4.849 2.717c-.818.474-1.64.944-2.444 1.444a4.18 4.18 0 0 0-1.923 1.75 22.5 22.5 0 0 0-2.976 1.007c-2.006.825-3.938 1.81-5.883 2.767-.999.491-1.989 1-2.98 1.506a17 17 0 0 0-2.447 1.395 4.97 4.97 0 0 0-1.65 2.15c-4.044 3.804-3.917 10.698-1.8 15.44 2.35 5.266 7.402 8.942 12.75 10.754 6.644 2.25 13.92 1.687 20.677.28a69 69 0 0 0 10.187-2.951c3.318-1.244 6.531-2.768 9.934-3.779 3.594-1.068 7.289-1.755 10.535-3.735a16.1 16.1 0 0 0 4.61-4.062.514.514 0 0 0 .588.325 45.6 45.6 0 0 0 7.48-2.503c2.454-.941 4.913-1.866 7.33-2.902 4.838-2.074 9.485-4.484 14.119-6.975a106 106 0 0 1 14.048-6.546c4.84-1.751 9.806-3.117 14.731-4.601 10.188-3.071 19.862-7.432 29.632-11.602 9.759-4.166 19.537-8.349 29.777-11.207.216-.06.435-.112.652-.171a7.9 7.9 0 0 0 2.893 1.198 33 33 0 0 0 3.493.668 1.2 1.2 0 0 0 .135.388 6.3 6.3 0 0 0 .954 1.183c.747.752 1.558 1.453 2.34 2.167a49 49 0 0 0 4.232 3.677 10 10 0 0 0 2.303 1.25 5.34 5.34 0 0 1 2.28 1.282 32 32 0 0 1 3.174 4.244 23 23 0 0 1 1.47 2.68 9.5 9.5 0 0 0 .633 1.298c.041.061.076.121.116.182a75.7 75.7 0 0 0-11.977 10.432 50.3 50.3 0 0 0-8.649 12.713 39.8 39.8 0 0 0-3.612 14.456 48.5 48.5 0 0 0 7.557 27.997 41.3 41.3 0 0 0 9.984 11.506 16.15 16.15 0 0 0 19.37-.185 16.2 16.2 0 0 0 4.441-5.567 30.8 30.8 0 0 0 2.652-7.966c.222-1.115.378-2.242.499-3.373 4.724-3.94 8.206-9.242 11.095-14.617a110 110 0 0 1 10.348-16.215c1.103-1.398 2.251-2.753 3.32-4.177.922-1.23 1.794-2.49 2.713-3.72.323-.12.648-.235.967-.369a66 66 0 0 0 3.26-1.488c4.355-2.117 8.685-4.286 13.022-6.439a33 33 0 0 0 5.74-3.27 16.3 16.3 0 0 0 3.929-4.676c1.089-1.849 1.826-3.928 3.08-5.675a32.4 32.4 0 0 1 4.443-4.462 143 143 0 0 0 16.689-18.156 77 77 0 0 0 11.636-21.267c.972-2.844 1.749-5.748 2.549-8.644a32 32 0 0 0 1.002-2.443c.898-2.514 1.642-5.084 2.532-7.601a37 37 0 0 1 1.136-2.785.17.17 0 0 0 .093-.103 10.3 10.3 0 0 1 1.613-2.73c.616-.81 1.206-1.642 1.859-2.424a37 37 0 0 1 4.412-4.298c3.562-3.044 7.307-5.86 11.07-8.647 7.737-5.732 15.782-11.03 23.824-16.32q3.514-2.313 7.017-4.641c2.406-1.606 4.717-3.345 7.122-4.95.053-.035.005-.121-.052-.087M236.607 68.935c.147-.04.29-.094.436-.137q.329.119.653.239 1.548.58 3.108 1.127a57 57 0 0 0 5.933 1.931c-1.424.39-2.852.762-4.305 1.056-2.162-.852-4.445-1.477-6.657-2.167q-1.84-.573-3.69-1.108a41 41 0 0 0 4.522-.941m51.141 131.667c-.013.009-.03.004-.04.02l-.215.284a.012.012 0 0 0 .014.019c.322-.178.288.364.323.536.051.25.109.498.164.746l.285 1.278c.213.957.447 1.91.67 2.866.214.92.423 1.841.618 2.766.111.524.214 1.041.272 1.574a3.4 3.4 0 0 0 .165.948c-1.08.614-2.15 1.248-3.223 1.881a.1.1 0 0 0 .026-.044 3.5 3.5 0 0 0-.226-1.518c-.15-.55-.228-1.112-.327-1.672q-.305-1.741-.639-3.477a157 157 0 0 0-.71-3.463c-.207-.955-.339-1.964-.626-2.906q1.735.05 3.469.163m-9.36 14.025a38 38 0 0 0-3.18-4.538 8.5 8.5 0 0 0-1.825-1.934 23 23 0 0 0-2.552-1.165 21.5 21.5 0 0 1-4.4-3.476q-1.362-1.24-2.734-2.467a16 16 0 0 0-.617-.526q2.492.26 5 .312c.484.01.967.001 1.45-.01.329.868.7 1.721 1.088 2.564.015.032.067.009.057-.025a17 17 0 0 0-.953-2.54 73 73 0 0 0 2.66-.134l.201.716c.136.482.27.963.42 1.44.15.478.318.95.482 1.423a10 10 0 0 0 .496 1.317.035.035 0 0 0 .065-.018 10 10 0 0 0-.274-1.378c-.114-.505-.223-1.013-.356-1.513a63 63 0 0 0-.406-1.444c-.048-.165-.088-.37-.142-.571.74-.048 1.48-.096 2.222-.133.168.51.31 1.022.457 1.543.19.676.425 1.337.64 2.006.206.643.362 1.3.523 1.957a18 18 0 0 0 .51 2.041c.008.02.046.02.042-.006a17 17 0 0 0-.481-1.974c-.177-.707-.355-1.413-.481-2.13-.127-.72-.237-1.44-.389-2.156a5.2 5.2 0 0 0-.362-1.301c.71-.032 1.42-.046 2.13-.066q.004.003.012 0l.014-.001a17 17 0 0 0 .542 2.272c.289 1.012.606 2.015.875 3.033q.387 1.47.744 2.948a20.6 20.6 0 0 0 .717 3.076c.01.024.052.024.05-.007a19 19 0 0 0-.72-2.961c-.237-.986-.456-1.976-.671-2.968-.216-.994-.387-1.994-.582-2.992a19 19 0 0 0-.572-2.413q1.372-.035 2.745-.037a6 6 0 0 1 .144.724l.217.967q.215.968.447 1.93c.3 1.244.641 2.476.943 3.719q.452 1.865.874 3.737c.147.647.243 1.3.381 1.948a3 3 0 0 0 .45 1.456.077.077 0 0 0 .127-.034 3.4 3.4 0 0 0-.264-1.636c-.166-.682-.373-1.35-.53-2.036-.32-1.409-.647-2.817-.941-4.232-.286-1.376-.552-2.755-.86-4.126-.155-.684-.318-1.367-.479-2.05-.027-.115-.05-.242-.08-.365.44 0 .882-.002 1.323.006q.756.015 1.516.037c.132.913.41 1.814.593 2.716.236 1.155.46 2.313.682 3.47q.334 1.737.639 3.478a19 19 0 0 1 .282 1.896 3.7 3.7 0 0 0 .263 1.512.13.13 0 0 0 .133.063l-.334.197c-2.256 1.325-4.523 2.611-6.685 4.083a3.3 3.3 0 0 0-.118-.65 12.4 12.4 0 0 0-1.169-2.574"/><path fill="currentColor" d="M183.532 195.142c-3.067-1.898-6.446-3.203-9.19-5.607a27 27 0 0 1-3.817-3.813c-.976-1.273-1.889-2.585-2.923-3.815a12.1 12.1 0 0 0-4.268-3.015c-.04-.018-.076.039-.036.06a7.7 7.7 0 0 1 1.965 1.536c.551.587.955 1.27 1.467 1.885 1.029 1.24 1.956 2.55 3.077 3.712a26 26 0 0 0 3.907 3.41c1.447.988 2.955 1.917 4.455 2.826a46 46 0 0 0 5.312 2.909.05.05 0 0 0 .051-.088m-2.726-15.276a19.2 19.2 0 0 0-3.29-2.6 28 28 0 0 0-3.814-1.971c-.051-.023-.097.048-.045.077 2.441 1.39 4.742 3.032 7.09 4.57.046.031.098-.038.059-.076m-33.244-24.314a32 32 0 0 1-2.586-3.717 60 60 0 0 0-2.492-3.61c-.016-.022-.052-.003-.037.02a42.5 42.5 0 0 1 3.938 6.455 7 7 0 0 1-.98-.597 9.8 9.8 0 0 1-1.58-2.047c-.919-1.438-1.645-2.974-2.414-4.493-.368-.725-.776-1.43-1.134-2.16a6.1 6.1 0 0 0-1.382-2.078 36 36 0 0 0-3.724-2.981c-.057-.036-.126.05-.073.095a25 25 0 0 1 1.867 1.772 10 10 0 0 1 .833.94c.235.312.367.67.587.987.521.753 1.194 1.385 1.705 2.144.474.704.886 1.451 1.303 2.19.832 1.476 1.613 2.992 2.588 4.38a23 23 0 0 1 1.436 1.878 2.4 2.4 0 0 0 .672.87 5.2 5.2 0 0 0 .966.608.42.42 0 0 0 .507-.656m-12.438-2.063a27.8 27.8 0 0 1-3.905-4.334 19 19 0 0 1-1.186-2.256 11 11 0 0 0-.582-1.076c-.224-.358-.563-.594-.808-.944a25.4 25.4 0 0 0-2.999-3.824.02.02 0 0 0-.027.028 12 12 0 0 1 1.63 2.15 9.2 9.2 0 0 1 1.18 2.384c.34 1.509 1.596 2.825 2.598 3.973 1.241 1.421 2.606 2.725 3.957 4.04a115 115 0 0 0 4.386 4.086c.02.019.05-.01.03-.03-1.417-1.406-2.853-2.794-4.274-4.197m-17.314-38.836a.8.8 0 0 0-.176-.372c-.194-.187-.522-.246-.745-.403-.484-.34-.938-.724-1.41-1.08a20 20 0 0 0-2.976-1.874.018.018 0 0 0-.018.03 35 35 0 0 1 2.878 1.994 10.4 10.4 0 0 1 1.266 1.111 2 2 0 0 1 .286.386 2 2 0 0 0 .178.312.6.6 0 0 0 .355.19 1.6 1.6 0 0 1 .44.202.087.087 0 0 0 .118-.117 2 2 0 0 1-.195-.379M122.58 120l-.002.004.128.127.002-.002Zm1.383-1.789a2 2 0 0 0-.126-.247 3 3 0 0 0-.352-.453 10 10 0 0 0-.854-.757c-.027-.021-.065.014-.039.04a4.6 4.6 0 0 1 .696.85c.098.152.202.297.305.445.052.074.105.141.163.21a1.5 1.5 0 0 0 .198.203c.027.021.085.012.08-.033a1 1 0 0 0-.071-.258m-23.91-26.126a5 5 0 0 0-.37-.676 10 10 0 0 0-.926-1.196c-.032-.037-.094.01-.068.052.274.424.51.87.753 1.312.12.219.236.438.363.653a4.3 4.3 0 0 0 .4.616c.037.043.091-.006.085-.05a2.7 2.7 0 0 0-.237-.711m48.229-8.451q-.165-.451-.346-.898c-.127-.312-.29-.607-.416-.918-.015-.036-.072-.023-.06.016.096.33.154.671.25 1.002q.132.461.285.916c.21.617.48 1.2.748 1.792.018.042.082.012.071-.03a19 19 0 0 0-.532-1.88m-81.386 55.311a26 26 0 0 1-.947-1.866 1.8 1.8 0 0 0-.558-.712 4.6 4.6 0 0 1-.776-.936 7.5 7.5 0 0 0-2.394-2.324c-.022-.013-.05.02-.028.037a10.2 10.2 0 0 1 2.242 2.873 7 7 0 0 1 .39 1.006 2.4 2.4 0 0 0 .495.692 19 19 0 0 1 1.386 1.768c1.624 2.27 3.13 4.623 4.706 6.927.017.024.057.002.04-.024-1.512-2.483-3.115-4.915-4.556-7.441m1.372-.397c-.465-.507-.978-.964-1.446-1.468-.017-.018-.043.009-.027.028.43.532.806 1.102 1.239 1.632.211.26.422.519.651.763.236.25.496.476.755.702.038.034.104-.01.074-.056a12 12 0 0 0-1.246-1.6m3.094 40.429c-.134-.3-.211-.616-.354-.91a.43.43 0 0 0-.372-.214q.123.045-.006-.027l-.127-.12-.24-.235q-.208-.208-.424-.41a16 16 0 0 0-.93-.795 23 23 0 0 0-1.97-1.404c-.023-.015-.043.022-.02.037a13 13 0 0 1 1.838 1.578q.41.426.79.877a2.9 2.9 0 0 1 .673.94.36.36 0 0 0 .111.295 3.5 3.5 0 0 0 .417.279 2.2 2.2 0 0 1 .356.304 6 6 0 0 1 .662.782.041.041 0 0 0 .071-.041c-.157-.312-.333-.617-.475-.936m1.668 2.949a.006.006 0 0 0-.01.006l.383.639a.004.004 0 0 0 .007-.004Zm-.112-4.925c-.226-.22-.464-.43-.697-.643-.05-.046-.124.027-.075.074.228.219.451.444.686.656q.352.319.72.621a.021.021 0 0 0 .03-.03q-.325-.345-.664-.678m28.702 47.503c-.32-.263-.649-.513-.975-.767-.226-.177-.466-.354-.677-.55-.166-.155-.264-.36-.42-.517a.6.6 0 0 0-.46-.17 2.6 2.6 0 0 1-.597-.177c-.428-.154-.852-.317-1.287-.453a10.3 10.3 0 0 0-2.7-.49c-.015 0-.019.024-.003.027a17 17 0 0 1 2.516.628 8.4 8.4 0 0 1 1.287.556 2 2 0 0 1 .531.353c.13.15.157.246.377.303a5 5 0 0 1 .642.118 3.7 3.7 0 0 1 .596.301 7 7 0 0 1 1.12.888c.646.611 1.213 1.3 1.8 1.965.024.027.068-.007.05-.037a8 8 0 0 0-1.8-1.978m30.719-3.561a14.3 14.3 0 0 1-1.34-2.2 47 47 0 0 0-1.283-2.04 34 34 0 0 0-2.903-3.67 32 32 0 0 0-1.553-1.63 4.1 4.1 0 0 0-1.628-1.193c-.684-.212-1.298-.682-1.977-.938a14 14 0 0 0-2.248-.627.014.014 0 0 0-.007.027 14.5 14.5 0 0 1 2.116.928 6.1 6.1 0 0 1 1.858 1.142 6 6 0 0 0 1.554 1.093 13.5 13.5 0 0 1 1.809 1.42 20.5 20.5 0 0 1 2.928 3.605q.64.958 1.202 1.961a10.5 10.5 0 0 1 1.065 2.184 2.8 2.8 0 0 0-.987 1.103c-.037.077.027.203.126.164a2.86 2.86 0 0 0 1.301-1.068.22.22 0 0 0-.033-.261"/><path fill="currentColor" d="M128.165 216.779a23 23 0 0 0-1.769-2.104 27 27 0 0 0-2.087-2.072.222.222 0 1 0-.27.35 19 19 0 0 1 2.167 1.809 22 22 0 0 1 1.893 2.224 24.5 24.5 0 0 1 2.747 4.777c.011.027.057.008.046-.02a20.6 20.6 0 0 0-2.727-4.964m.52-4.592a3 3 0 0 0-.29-.324 5.3 5.3 0 0 0-.695-.552 9 9 0 0 0-1.55-.798c-.021-.009-.034.025-.015.036a9 9 0 0 1 1.397 1.017q.32.276.635.557.155.137.318.265a1.5 1.5 0 0 0 .333.233c.05.02.1-.04.087-.086a1.2 1.2 0 0 0-.22-.348m123.077-60.36c-.977-.372-1.998-.618-3.003-.897q-1.509-.42-2.997-.904c-.015-.005-.02.018-.007.023q1.471.545 2.96 1.038a18.3 18.3 0 0 0 3.03.8.031.031 0 0 0 .017-.06m6.2-.597a3.2 3.2 0 0 0-1.041-.518c-.477-.183-.958-.358-1.436-.537-.957-.358-1.92-.698-2.881-1.043-1.922-.69-3.854-1.349-5.774-2.041-.02-.007-.027.023-.009.03 1.871.745 3.728 1.523 5.598 2.271.917.368 1.832.739 2.753 1.096q.715.278 1.432.55a3.7 3.7 0 0 0 1.285.369.105.105 0 0 0 .073-.177m-1.711-3.415a18 18 0 0 0-2.635-1.226c-.935-.33-1.907-.553-2.861-.819a.02.02 0 0 0-.01.038c.929.32 1.82.728 2.73 1.097.905.366 1.826.659 2.747.978a.037.037 0 0 0 .029-.068m5.159 1.975a.73.73 0 0 0-.31-.237q-.183-.099-.37-.192a6 6 0 0 0-.75-.306c-.516-.173-1.049-.3-1.57-.455-.027-.008-.037.032-.012.042a10.6 10.6 0 0 1 1.53.8c.239.141.485.272.73.403.117.063.24.121.351.194.102.066.195.136.318.065a.233.233 0 0 0 .082-.315m3.777-1.513a1.4 1.4 0 0 1-.345-.133l-.01.002c-1.478-.577-2.99-1.078-4.483-1.614-1.612-.578-3.23-1.143-4.846-1.714-.012-.004-.016.014-.005.019 1.594.649 3.186 1.303 4.783 1.944 1.593.64 3.175 1.334 4.79 1.914.262.094.386-.34.116-.418m3.311-2.406.007-.012c-.58-.213-1.209-.33-1.807-.485a142 142 0 0 0-1.814-.46c-1.215-.295-2.445-.511-3.663-.792a.04.04 0 0 0-.02.076c1.196.355 2.372.772 3.573 1.114q.901.253 1.805.493c.597.16 1.202.368 1.812.469a.209.209 0 0 0 .107-.403m1.729-2.036c-.127-.235-.507-.284-.742-.337q-.448-.1-.901-.174c-.62-.102-1.244-.158-1.864-.256a.047.047 0 0 0-.025.09c.598.173 1.182.385 1.782.553q.44.124.888.223c.237.051.615.175.832.016a.086.086 0 0 0 .03-.115m2.117-2.387a3 3 0 0 0-.692-.113 7 7 0 0 1-.7-.007c-.118-.016-.174.153-.05.185a4.6 4.6 0 0 0 .737.175 1.43 1.43 0 0 0 .718-.14.055.055 0 0 0-.013-.1m-38.429-30.56c-1.908-.765-3.917-1.292-5.883-1.884-.033-.01-.047.042-.014.053 1.943.66 3.884 1.4 5.881 1.887a.03.03 0 0 0 .016-.056m5.226-.957a39 39 0 0 0-5.065-1.768c-1.757-.577-3.52-1.135-5.28-1.703-.027-.008-.038.033-.012.042 1.714.608 3.423 1.228 5.14 1.827l2.525.882a20 20 0 0 0 2.649.823c.059.012.105-.073.043-.104m2.2-1.602a10.5 10.5 0 0 0-2.013-.672l-2.014-.591c-1.394-.41-2.793-.802-4.19-1.201a.02.02 0 0 0-.01.038c1.38.455 2.76.917 4.145 1.362l2 .644a10.6 10.6 0 0 0 2.04.573c.083.009.11-.116.042-.153m2.29-1.927a2.3 2.3 0 0 0-.614-.204 8 8 0 0 0-.698-.156c-.462-.086-.925-.163-1.386-.251-.073-.014-.105.094-.03.113.461.115.92.247 1.382.36.222.056.447.109.673.146a2.4 2.4 0 0 0 .662.074c.042-.006.04-.063.011-.082m-25.176-23.388a10.2 10.2 0 0 0-2.639-.786 41 41 0 0 0-2.72-.428c-.012-.001-.014.017-.003.02.906.198 1.81.424 2.705.669a17 17 0 0 0 2.634.608c.044.005.061-.064.023-.083m2.425-1.022a5 5 0 0 0-.98-.326q-.51-.14-1.023-.283a89 89 0 0 1-2.076-.597c-.024-.008-.033.028-.01.037.674.259 1.352.507 2.04.726q.507.162 1.018.303a4.2 4.2 0 0 0 1.014.202.033.033 0 0 0 .017-.061m1.467-1.278q-.276-.04-.554-.07-.584-.059-1.168-.115c-.01-.001-.013.017-.002.02q.578.099 1.157.196.274.045.552.079a2.5 2.5 0 0 0 .584.05.027.027 0 0 0 .007-.054 2.5 2.5 0 0 0-.576-.106m2.361-.806a.01.01 0 0 0 0 .02l.638-.002a.008.008 0 0 0 0-.016zm72.738 50.987c-2.443.755-4.854 1.609-7.268 2.45-.03.01-.018.059.013.049 2.43-.792 4.867-1.572 7.269-2.45.03-.011.018-.059-.014-.05m-5.081 74.272a38 38 0 0 0-1.172-4.13.033.033 0 0 0-.064.019c.345 1.36.714 2.717 1.03 4.086.316 1.366.52 2.764.851 4.123.017.067.13.055.123-.016a30 30 0 0 0-.768-4.082m2.569-.275a17 17 0 0 0-.713-2.438.02.02 0 0 0-.038.01c.14.822.332 1.632.5 2.448.168.813.323 1.627.548 2.427a.035.035 0 0 0 .07-.01 13.7 13.7 0 0 0-.367-2.437m2.803-1.418-.064-.255c-.043-.17-.107-.336-.163-.501a.027.027 0 0 0-.052.014c.035.172.063.347.112.515l.074.253c.025.084.059.165.09.248a.025.025 0 0 0 .05-.014c-.014-.087-.026-.174-.047-.26m-29.398 81.582c-.218-.402-.567-.723-.821-1.1-.562-.835-1.058-1.72-1.559-2.592q-1.479-2.579-2.805-5.243c-.006-.011-.022-.001-.017.01q1.259 2.7 2.707 5.3c.476.852.976 1.69 1.463 2.534a15 15 0 0 0 .672 1.302c.305.425.678.806.995 1.224.028.037.088.005.064-.038-.257-.454-.45-.94-.699-1.397m3.475 5.221a.025.025 0 0 0 0 .05.025.025 0 0 0 0-.05m5.327 3.033a10.2 10.2 0 0 0-1.22-1.772 69 69 0 0 1-1.278-1.744 69 69 0 0 1-2.42-3.714 82 82 0 0 1-4.163-7.688c-.014-.03-.057-.003-.044.026a73 73 0 0 0 4.057 7.881 85 85 0 0 0 2.319 3.641c.42.63.842 1.258 1.28 1.875a8 8 0 0 0 1.321 1.608.094.094 0 0 0 .148-.113m2.514-1.064c-.372-.546-.708-1.112-1.047-1.678q-1.047-1.75-2.111-3.488c-1.404-2.28-2.793-4.568-4.19-6.852a.016.016 0 0 0-.027.016c1.348 2.312 2.705 4.62 4.047 6.935q.992 1.71 2.008 3.406c.337.566.682 1.127.987 1.712a3 3 0 0 0 .924 1.356.063.063 0 0 0 .094-.054 2.7 2.7 0 0 0-.685-1.353m4.228 1.585a28 28 0 0 0-1.682-2.983 42 42 0 0 1-1.656-3.13 21.7 21.7 0 0 0-3.313-5.514c-.034-.037-.102.013-.07.054a20.5 20.5 0 0 1 1.602 2.74c.528.99 1.094 1.953 1.659 2.923.575.987 1.106 2 1.6 3.03a28 28 0 0 0 1.526 3.075.194.194 0 0 0 .334-.195m2.956-1.231c-.242-.414-.513-.81-.765-1.217-.489-.792-.943-1.604-1.407-2.411a19.8 19.8 0 0 0-2.728-4.196c-.013-.013-.031.006-.02.02a24 24 0 0 1 2.562 4.285c.411.739.836 1.472 1.223 2.224a7.8 7.8 0 0 0 1.248 2.11c.037.036.122.025.13-.035a1.2 1.2 0 0 0-.243-.78m2.146-2.01a30 30 0 0 0-.783-1.343 42 42 0 0 0-1.74-2.582c-.013-.018-.043-.002-.03.017a43 43 0 0 1 1.568 2.627q.365.66.713 1.327a4.7 4.7 0 0 0 .746 1.265c.03.028.092.01.087-.036a3.8 3.8 0 0 0-.56-1.275m7.945-32.438a47 47 0 0 1-1.228-1.816 7.6 7.6 0 0 0-1.524-1.427 43 43 0 0 0-3.392-2.715c-.016-.011-.037.015-.02.028a24 24 0 0 1 3.117 2.84 15.5 15.5 0 0 0 1.36 1.63 12 12 0 0 1 1.493 1.482 29.7 29.7 0 0 1 4.364 7.643c.013.03.06.018.05-.013a31 31 0 0 0-4.22-7.653m1.245-.952c-.011-.017-.038-.001-.027.016.624 1.03 1.255 2.055 1.915 3.064.01.014.032.001.023-.014a103 103 0 0 0-1.911-3.066m11.325-10.939q-1.006-1.697-2.165-3.292a11.2 11.2 0 0 0-2.422-2.877c-.044-.03-.091.027-.07.07a7.3 7.3 0 0 0 1.059 1.364c.457.53.905 1.07 1.322 1.631a33.8 33.8 0 0 1 5.18 10.15c-1.01.158-1.529-1.123-1.777-1.904a13.5 13.5 0 0 0-.944-2.382c-.471-.86-1.077-1.631-1.591-2.463a8.5 8.5 0 0 0-1.662-2.283 14.3 14.3 0 0 1-2.1-2.343q-.965-1.205-1.926-2.415-1.955-2.47-3.963-4.893c-.026-.03-.08.01-.056.042q2.047 2.789 4.159 5.525c.702.914 1.404 1.829 2.093 2.753a14 14 0 0 1 .938 1.299 8.3 8.3 0 0 0 .798 1.378c.716.85 1.554 1.568 2.202 2.476a12.4 12.4 0 0 1 1.645 2.944c.393 1.102.838 3.436 2.567 2.61a.21.21 0 0 0 .096-.236 42 42 0 0 0-3.383-7.154m-8.91-5.138a.02.02 0 0 0-.033.02c.925 1.69 1.83 3.393 2.85 5.028a.025.025 0 0 0 .044-.026c-.882-1.713-1.883-3.362-2.86-5.022m34.414-14.79c-.023-.002-.023.033 0 .034 1.58.08 3.158.245 4.726.464.014.002.021-.02.006-.023a39 39 0 0 0-4.732-.476m10.483-1.665c-2.109-.406-4.303-.485-6.433-.759q-3.438-.442-6.851-1.043c-.015-.002-.022.02-.007.023q3.345.655 6.716 1.162a45 45 0 0 0 6.555.763c.081 0 .104-.13.02-.146m-6.51-4.154c-3.103-.55-6.212-.93-9.342-1.28-.02-.002-.024.032-.005.035 3.109.51 6.204.986 9.34 1.296a.026.026 0 0 0 .007-.05m5.094.803c-.108-.016-.217-.024-.325-.036q-.39-.04-.778-.086a49 49 0 0 1-1.575-.228c-.041-.007-.06.056-.018.064.517.095 1.032.191 1.545.303q.37.083.737.17c.132.032.264.068.398.09a1 1 0 0 0 .152.02.4.4 0 0 0 .144-.065.057.057 0 0 0 .011-.089.38.38 0 0 0-.291-.143m-3.952-4.425a18 18 0 0 0-2.113-.2q-1.138-.091-2.276-.178-2.276-.17-4.553-.313c-.028-.002-.027.04 0 .043q2.232.215 4.465.4 1.095.09 2.19.176a20 20 0 0 0 2.276.148c.042-.001.055-.067.01-.076m-2.544-3.814a5 5 0 0 0-1.195-.144c-.425-.02-.85-.032-1.274-.054-.846-.045-1.692-.077-2.535-.17-.03-.003-.037.048-.007.054.827.161 1.655.327 2.493.418a7 7 0 0 0 2.518.028.069.069 0 0 0 0-.132m-.275-2.292c-1.12-.144-2.252-.206-3.38-.257-1.127-.052-2.253-.114-3.381-.094a.037.037 0 0 0 0 .074c1.123.134 2.252.186 3.38.248 1.126.062 2.255.115 3.382.084a.027.027 0 0 0 0-.055m-4.466-2.621a.033.033 0 0 0 0 .066 21 21 0 0 0 2.677.09.022.022 0 0 0 0-.042 21 21 0 0 0-2.677-.114M78.576 254.51c-1.198-.954-2.499-1.786-3.736-2.688q-1.908-1.39-3.788-2.819c-.015-.012-.036.015-.02.028a68 68 0 0 0 3.597 2.87 36 36 0 0 0 3.904 2.664c.033.018.075-.03.043-.055m-3.839-5.989c-.01-.008-.023.006-.013.014a73 73 0 0 0 8.125 6.444c.013.008.03-.012.017-.021-2.707-2.152-5.49-4.198-8.129-6.437m11.157 8.51-.287-.22c-.186-.144-.375-.281-.565-.42-.379-.275-.753-.557-1.128-.838-.014-.01-.033.014-.019.025.366.292.734.582 1.097.879q.263.217.53.427l.287.222a.64.64 0 0 0 .251.16.032.032 0 0 0 .036-.046.6.6 0 0 0-.202-.189m4.284-.079c-.72-.593-1.537-1.085-2.302-1.619q-1.265-.884-2.518-1.785-2.472-1.77-4.901-3.597c-.01-.008-.02.01-.01.017q2.375 1.826 4.796 3.592 1.21.88 2.438 1.739a29 29 0 0 0 2.473 1.684c.019.01.042-.016.024-.03m3.546-.723a5 5 0 0 0-.955-.72q-.515-.364-1.028-.732-1.09-.78-2.16-1.59-2.165-1.641-4.252-3.385c-.008-.007-.019.004-.011.01q2.045 1.796 4.192 3.467 1.005.778 2.03 1.531.54.398 1.089.784a5 5 0 0 0 1.066.685c.03.01.046-.029.029-.05m3.941-.606c-.577-.464-1.239-.835-1.853-1.25q-1.014-.683-2.013-1.388-2.02-1.435-3.972-2.967c-.01-.007-.023.006-.013.014q1.827 1.522 3.744 2.926c.64.465 1.285.924 1.94 1.367a18 18 0 0 0 2.122 1.356c.035.018.08-.03.045-.058m3.523-.618a6.3 6.3 0 0 0-.852-.707q-.464-.363-.93-.724-.857-.664-1.72-1.321a196 196 0 0 0-3.677-2.717c-.03-.023-.059.028-.03.05 1.202.905 2.392 1.825 3.583 2.744q.926.714 1.846 1.437a13.5 13.5 0 0 0 1.716 1.321.053.053 0 0 0 .064-.083m2.458-1.92a9.4 9.4 0 0 1-2.128-1.534c-1.226-1.055-2.503-2.056-3.742-3.095-.019-.016-.046.01-.028.027a33.4 33.4 0 0 0 3.638 3.127 15.6 15.6 0 0 1 1.987 1.532c.288.288.535.606.851.866.232.19.542.462.86.338a.13.13 0 0 0 .09-.119c.011-.615-1.082-.936-1.528-1.142m5.274.009a4.8 4.8 0 0 0-1.469-1.192 10.7 10.7 0 0 1-1.718-1.359 11.6 11.6 0 0 0-3.429-2.156.018.018 0 0 0-.017.03 29 29 0 0 0 3.312 2.3 6.8 6.8 0 0 1 1.643 1.268 6.7 6.7 0 0 0 1.418 1.368c.158.086.368-.093.26-.259m1.187-2.408c-.195-.228-.383-.465-.596-.678a7 7 0 0 0-.676-.586 6 6 0 0 0-.724-.487c-.27-.154-.552-.278-.831-.412-.019-.01-.042.015-.024.03.228.188.443.392.665.587.224.197.459.384.692.57q.339.27.69.527c.245.18.501.343.745.526.047.035.092-.037.059-.077m1.891 1.147a1.3 1.3 0 0 0-.347-.197 1 1 0 0 0-.18-.08c-.062-.016-.107-.062-.175-.064l.053.014a3 3 0 0 1-.355-.197c-.055-.034-.124.05-.071.092a3 3 0 0 1 .3.269l-.027-.046a.2.2 0 0 0 .06.086.4.4 0 0 1 .05.049 2 2 0 0 0 .135.15 1.3 1.3 0 0 0 .295.264.22.22 0 0 0 .279-.056.216.216 0 0 0-.017-.284m1.732-1.914q-.357-.265-.725-.514a14 14 0 0 0-1.5-.903.012.012 0 0 0-.012.02c.461.35.934.682 1.398 1.027q.336.25.67.504a3.2 3.2 0 0 0 .705.464.045.045 0 0 0 .05-.066 2.6 2.6 0 0 0-.586-.532m3.39-1.47a5 5 0 0 0-.493-.268c-.34-.164-.688-.305-1.035-.453a.031.031 0 0 0-.031.054c.308.214.61.434.93.634a5 5 0 0 0 .488.275 1.3 1.3 0 0 0 .496.162.047.047 0 0 0 .04-.07 1.3 1.3 0 0 0-.395-.333m3.713-.831a3.5 3.5 0 0 0-1.564-.5c-.035-.008-.062.044-.026.06a3.5 3.5 0 0 0 1.549.54c.046-.001.083-.065.041-.1m21.432-8.63a1.9 1.9 0 0 0-.579-.288 7 7 0 0 0-.656-.19 10 10 0 0 0-1.341-.242.061.061 0 0 0-.03.113 10 10 0 0 0 1.275.478 7 7 0 0 0 .66.171 2 2 0 0 0 .647.049.055.055 0 0 0 .024-.092m4.238-1.907a18 18 0 0 0-3.141-1.23q-1.649-.541-3.302-1.067c-.042-.013-.056.048-.018.064q1.59.637 3.182 1.265a18.5 18.5 0 0 0 3.236 1.068c.058.01.1-.069.043-.1m3.722-2.092c-.124-.279-.427-.338-.698-.425-.364-.118-.729-.216-1.083-.364-.616-.258-1.225-.534-1.842-.788-1.335-.55-2.715-.953-4.09-1.385-.048-.016-.068.059-.02.075 1.342.457 2.65 1.012 3.98 1.508.64.239 1.282.467 1.91.737a10 10 0 0 1 1.009.54c.249.141.49.324.781.23a.09.09 0 0 0 .053-.128m.347-3.743a15 15 0 0 0-2.224-.898c-.79-.238-1.595-.405-2.403-.57a.045.045 0 0 0-.024.087c.779.217 1.544.484 2.31.738s1.541.476 2.311.715c.042.012.07-.052.03-.072m4.342 1.433c-.407-.136-.822-.248-1.231-.38a5.5 5.5 0 0 1-1.184-.544c-.06-.036-.108.052-.054.09.364.257.738.506 1.12.736a4.4 4.4 0 0 0 1.232.525.222.222 0 0 0 .117-.427m3.629-2.445a29 29 0 0 0-.95-.392 24 24 0 0 0-2.18-.758 19.6 19.6 0 0 0-4.363-.729c-.03-.002-.038.05-.007.054a28 28 0 0 1 3.82.828q.943.27 1.86.618a17 17 0 0 1 1.373.59q.126.06.251.123c.056.059.101.065.141.045l-.007.022c-.007.093.04.135.111.185a.18.18 0 0 0 .179 0l.04-.02a.19.19 0 0 0 .096-.167c-.027-.236-.153-.307-.364-.4m3.371-1.984a5 5 0 0 0-1.858-.716 17 17 0 0 0-1.96-.313c-.025-.003-.028.035-.006.042.637.206 1.257.458 1.896.658a6.5 6.5 0 0 0 1.897.445.063.063 0 0 0 .031-.116m3.18-1.918a1 1 0 0 1-.098.026l-.045.008h-.026a.4.4 0 0 0-.123.018l-.089.017a.85.85 0 0 1-.371.005.055.055 0 0 0-.03.106 1.2 1.2 0 0 0 .335.067.6.6 0 0 0 .179-.012.23.23 0 0 0 .165-.085l-.027.027a2 2 0 0 0 .162-.122.033.033 0 0 0-.032-.055m3.956-1.914c.006-.003.012 0 .018-.003.013-.003.024-.012.038-.012Z"/><path fill="currentColor" d="M169.21 224.39a.23.23 0 0 0-.142.025.6.6 0 0 0-.144.045l-.16.069a3 3 0 0 1-.299.113 1.13 1.13 0 0 1-.678-.007c-.025-.008-.042.03-.018.042a1.75 1.75 0 0 0 .788.172 1 1 0 0 0 .425-.097c.117-.06.264-.158.273-.302a.06.06 0 0 0-.045-.06m-143.64-3.932c-1.036-.985-2.228-1.83-3.347-2.72-1.128-.895-2.266-1.778-3.401-2.664-.012-.01-.029.007-.017.016 1.13.925 2.256 1.852 3.394 2.767 1.1.885 2.173 1.847 3.348 2.632.018.012.04-.016.023-.03m4.932 1.089a5.5 5.5 0 0 0-1.091-.91q-.681-.51-1.36-1.023-1.383-1.048-2.752-2.115c-1.738-1.356-3.484-2.702-5.213-4.069-.018-.014-.043.01-.025.025a144 144 0 0 0 5.237 4.325q1.233.965 2.477 1.914.677.515 1.357 1.026a6 6 0 0 0 1.333.892c.04.016.058-.039.037-.065m4.912.675.009-.007c-.442-.214-.874-.527-1.303-.773a12.4 12.4 0 0 1-1.545-1.12c-.894-.716-1.76-1.465-2.628-2.211a43.6 43.6 0 0 0-5.275-4.038c-.017-.01-.032.016-.015.027a63 63 0 0 1 5.667 4.552c.872.744 1.75 1.482 2.659 2.182.48.371.933.766 1.401 1.151.233.192.67.663.997.548a.17.17 0 0 0 .033-.311m3.634-.495c-.463-.279-.959-.492-1.414-.782a25 25 0 0 1-2.639-2.006 22.2 22.2 0 0 0-4.685-3.511c-.038-.018-.072.035-.034.057a56 56 0 0 1 4.769 3.683c.867.636 1.757 1.24 2.603 1.904.387.303.731.652 1.127.945a2.57 2.57 0 0 0 1.154.631.112.112 0 0 0 .096-.167 2.6 2.6 0 0 0-.977-.754m4.185-.456c-.373-.217-.752-.412-1.11-.653l-2.143-1.44c-1.428-.96-2.86-1.911-4.308-2.84-.041-.027-.076.036-.038.064 1.383.981 2.78 1.94 4.184 2.893l2.07 1.404c.393.266.756.56 1.127.854.236.188.48.43.796.404a.08.08 0 0 0 .077-.101c-.093-.299-.396-.435-.655-.585m4.394-.74c-.541-.293-1.117-.51-1.666-.787a24 24 0 0 1-1.552-.873 45 45 0 0 1-3.032-1.964c-.014-.01-.027.013-.014.023a43 43 0 0 0 2.967 2.076c.502.317 1.014.617 1.52.928a17 17 0 0 0 1.578.937c.226.107.425-.218.199-.34m3.541-.895a6.4 6.4 0 0 0-1.273-.757q-.657-.363-1.32-.715c-.899-.48-1.809-.938-2.72-1.393a.037.037 0 0 0-.038.064c.865.536 1.732 1.069 2.61 1.582q.648.378 1.301.747a6.4 6.4 0 0 0 1.314.688.13.13 0 0 0 .126-.216m2.968-1.8a12.4 12.4 0 0 0-1.957-.957c-.647-.287-1.3-.557-1.955-.824-.037-.015-.063.046-.027.064.65.327 1.3.648 1.958.955a12 12 0 0 0 1.957.82.031.031 0 0 0 .024-.058m2.698-1.935a5.5 5.5 0 0 0-1.045-.347 20 20 0 0 0-1.104-.265.031.031 0 0 0-.016.06c.358.124.715.248 1.08.352a5.5 5.5 0 0 0 1.071.25.028.028 0 0 0 .014-.05m3.711-.932a9.6 9.6 0 0 0-2.05-.149c-.026 0-.033.042-.006.046a9.6 9.6 0 0 0 2.046.177c.04-.003.053-.063.01-.073M30.926 199.91c-.007-.006-.018.005-.01.012a6.9 6.9 0 0 1 1.275 1.787c.008.015.035.004.028-.012a4.8 4.8 0 0 0-1.293-1.786m52.973 37.863-.255-.247c-.172-.163-.353-.317-.525-.48a14 14 0 0 1-.979-1.027l-.005.005q.456.559.936 1.096c.157.176.313.359.485.52q.129.122.262.24a.9.9 0 0 0 .26.186c.03.01.049-.025.037-.049a1 1 0 0 0-.216-.244m-2.047-35.791c-.017-.003-.025.022-.007.026 1.248.288 2.467.68 3.71.986a.018.018 0 0 0 .009-.034 20 20 0 0 0-3.712-.978m10.24-.691a9.8 9.8 0 0 0-2.26-.634 61 61 0 0 0-2.378-.472q-2.348-.42-4.717-.702c-.01 0-.013.018-.002.02q2.39.377 4.754.891 1.138.25 2.272.522a12.6 12.6 0 0 0 2.303.48.057.057 0 0 0 .028-.105m4.957-2.135a17 17 0 0 0-2.502-.527q-1.26-.23-2.521-.447c-1.684-.29-3.375-.54-5.065-.79-.037-.006-.053.05-.015.056 1.715.283 3.424.596 5.135.9q1.26.225 2.518.462a18 18 0 0 0 2.441.41c.04.003.043-.053.009-.064m4.223-1.792a12.5 12.5 0 0 0-2.348-.57q-1.327-.277-2.655-.545c-1.741-.35-3.484-.686-5.227-1.023-.027-.005-.039.036-.012.042 1.728.393 3.456.788 5.187 1.168q1.274.28 2.551.55a13 13 0 0 0 2.485.448c.034 0 .054-.055.019-.07m3.308-1.793a49 49 0 0 0-7.145-1.676c-.014-.002-.02.02-.006.023 2.405.474 4.757 1.132 7.141 1.69a.02.02 0 0 0 .01-.037m3.072-2.325a8.6 8.6 0 0 0-1.923-.47 17 17 0 0 0-1.915-.17c-.023 0-.022.033 0 .035.655.066 1.302.17 1.948.29.625.117 1.243.282 1.872.379a.033.033 0 0 0 .018-.064m3.442-1.57-.125-.068c-.03-.015-.055.03-.026.044l.132.062q.065.031.132.06c.017.006.027-.02.012-.029q-.061-.036-.125-.069m3.441-1.232c-.055 0-.109.014-.163.015a1 1 0 0 1-.162-.007.74.74 0 0 1-.31-.116c-.012-.008-.028.012-.016.022a.8.8 0 0 0 .315.146.6.6 0 0 0 .173.014.4.4 0 0 0 .172-.04.018.018 0 0 0-.01-.034M13.887 173.158c-.534-.631-1.204-1.169-1.792-1.75q-.89-.882-1.73-1.813a48 48 0 0 1-3.24-3.98c-.02-.028-.067-.002-.047.027a44 44 0 0 0 3.128 4.017q.851.965 1.76 1.877a13 13 0 0 0 1.864 1.696c.047.031.089-.036.057-.074m2.069-.285q-1.198-1.235-2.359-2.507a143 143 0 0 1-4.438-5.128c-.008-.01-.026.003-.018.014q2 2.698 4.242 5.197 1.115 1.25 2.278 2.456a16.7 16.7 0 0 0 2.43 2.32c.033.023.08-.023.056-.056a23 23 0 0 0-2.191-2.296m6.298 3.671c-.724-.757-1.526-1.441-2.274-2.174a75 75 0 0 1-2.255-2.316 81 81 0 0 1-4.158-4.829c-.02-.024-.062.008-.043.033a60 60 0 0 0 4.073 4.924c.73.793 1.483 1.563 2.253 2.318a26 26 0 0 0 2.333 2.136c.054.041.115-.046.07-.092m3.12.108a3.5 3.5 0 0 0-.92-.98c-.386-.355-.73-.76-1.087-1.143l-2.088-2.25q-2.088-2.249-4.218-4.456c-.007-.008-.017.003-.01.01q2.033 2.302 4.12 4.555l2.02 2.192c.357.386.73.762 1.062 1.169a3.9 3.9 0 0 0 .963 1.06.116.116 0 0 0 .158-.157m3.571.134A16 16 0 0 0 27.19 175a56 56 0 0 1-1.847-1.958 40 40 0 0 0-3.788-3.72.014.014 0 0 0-.02.02c1.155 1.308 2.405 2.535 3.657 3.749.609.59 1.215 1.186 1.777 1.821a21 21 0 0 0 1.775 2.028c.102.088.29-.03.2-.154m2.647-1.698q-.367-.349-.735-.696-.779-.737-1.563-1.468a59 59 0 0 0-3.185-2.793.02.02 0 0 0-.027.028 59 59 0 0 0 2.96 3.017q.753.72 1.51 1.436l.737.695a2.2 2.2 0 0 0 .76.556.075.075 0 0 0 .09-.092 2 2 0 0 0-.547-.683m3.502-.575q-.281-.278-.567-.552-.603-.577-1.228-1.13a38 38 0 0 0-2.508-2.026c-.033-.025-.077.031-.045.058a80 80 0 0 1 2.439 2.143q.584.533 1.155 1.08.3.29.597.584a1.5 1.5 0 0 0 .534.424.037.037 0 0 0 .046-.046 1.45 1.45 0 0 0-.423-.535m3.107-.886a6.7 6.7 0 0 0-1.47-1.152q-.792-.523-1.579-1.056c-.025-.017-.058.023-.033.043q.754.599 1.501 1.206a6.6 6.6 0 0 0 1.53 1.047c.054.022.081-.053.052-.088m3.225-.979c-.358-.19-.713-.385-1.085-.547-.365-.159-.744-.284-1.117-.425-.037-.014-.062.047-.027.065.356.18.705.375 1.07.535.371.163.753.294 1.135.43.033.011.055-.041.024-.058m18.982-5.129a13 13 0 0 1-3.18-1.195.018.018 0 0 0-.017.03 6.4 6.4 0 0 0 3.19 1.215.026.026 0 0 0 .007-.05m1.416-2.342-2.794-1.189c-.009-.003-.017.01-.008.014l2.83 1.236c.904.396 1.806.86 2.742 1.176a.018.018 0 0 0 .013-.032c-.887-.47-1.86-.813-2.783-1.205m.641-2.447c-.018-.007-.031.024-.013.032 1.726.765 3.462 1.525 5.227 2.197.017.006.028-.021.012-.029-1.714-.791-3.472-1.501-5.226-2.2m9.596.786a.05.05 0 0 0-.084 0 .28.28 0 0 1-.15.147 1.9 1.9 0 0 0-1.034-.4l-.04-.007a6.6 6.6 0 0 0-1.453-.543c-.253-.06-.509-.122-.766-.16-.275-.042-.553-.064-.827-.119a.053.053 0 0 0-.059.035l-.02-.007q-.91-.342-1.824-.67c-.006-.002-.01.008-.004.01 1.05.48 2.114.924 3.171 1.381.483.209.958.054 1.447.15a2.54 2.54 0 0 1 1.222.726.22.22 0 0 0 .26.034.417.417 0 0 0 .161-.577m3.046-1.543a3.8 3.8 0 0 0-.786-.43 5 5 0 0 0-.872-.251.049.049 0 0 0-.026.094 12 12 0 0 1 1.65.645.033.033 0 0 0 .034-.058m-21.07-41.095c-1.226-.946-2.494-1.837-3.75-2.742-.019-.014-.036.017-.018.03 1.244.921 2.478 1.86 3.752 2.739.017.012.032-.015.016-.027m6.112 1.828a14 14 0 0 0-1.695-1.29q-.938-.676-1.865-1.368a107 107 0 0 1-3.69-2.877c-.018-.014-.042.01-.025.025a71 71 0 0 0 3.53 2.98q.841.661 1.703 1.295a12 12 0 0 0 1.985 1.308c.046.021.097-.033.057-.073m5.051.438a9 9 0 0 0-.91-.717 21 21 0 0 1-1.061-.874c-.641-.56-1.256-1.15-1.875-1.734a21 21 0 0 0-3.896-3.064.018.018 0 0 0-.018.03 25.7 25.7 0 0 1 3.982 3.328c.6.571 1.2 1.145 1.827 1.688a7.5 7.5 0 0 0 1.919 1.398c.032.013.054-.034.032-.055m4.488-.047a14 14 0 0 0-1.85-1.51 44 44 0 0 1-1.902-1.561 205 205 0 0 0-3.681-3.153c-.014-.01-.033.007-.02.02a83 83 0 0 0 3.719 3.217 62 62 0 0 1 1.809 1.552 12.6 12.6 0 0 0 1.849 1.533.063.063 0 0 0 .076-.098m4.534-.697a11 11 0 0 0-1.35-1.172l-1.367-1.156c-.912-.77-1.83-1.533-2.748-2.298-.013-.01-.032.008-.019.02.915.792 1.83 1.586 2.75 2.372l1.361 1.161a11 11 0 0 0 1.342 1.114c.026.015.049-.02.031-.04m2.18-1.801a13 13 0 0 0-1.175-.989c-.027-.02-.065.015-.038.04a13 13 0 0 0 1.19.98c.018.013.039-.015.023-.03m2.708-.347c-.146-.05-.293-.095-.44-.143-.022-.007-.03.026-.01.034q.218.08.437.158c.146.05.295.093.442.14.017.005.024-.02.007-.027-.145-.054-.289-.112-.435-.162m320.363 21.208c-2.29-.456-4.567-.884-6.809-1.55a.016.016 0 0 0-.008.03 37 37 0 0 0 6.81 1.562c.025.002.03-.038.007-.042m-8.689-5.769a.027.027 0 0 0-.014.053 103 103 0 0 0 6.303 1.51.012.012 0 0 0 .007-.022 103 103 0 0 0-6.296-1.541m10.106 2.275a.45.45 0 0 0-.252-.113 6 6 0 0 0-.325-.075c-.202-.042-.407-.078-.61-.117a28 28 0 0 1-1.258-.276.018.018 0 0 0-.01.034c.415.114.827.228 1.235.361q.294.098.59.191.16.05.32.09a.46.46 0 0 0 .28.023.072.072 0 0 0 .03-.118m2.85-2.462a10.3 10.3 0 0 0-2.431-.744q-1.373-.366-2.744-.738c-1.794-.49-3.585-.981-5.388-1.435a.018.018 0 0 0-.01.033c1.777.55 3.563 1.062 5.35 1.578q1.314.379 2.626.767a10.7 10.7 0 0 0 2.565.659.065.065 0 0 0 .032-.12m-7.854-6.099a.02.02 0 0 0-.01.038 246 246 0 0 0 5.975 1.636.012.012 0 0 0 .006-.022 246 246 0 0 0-5.971-1.652m11.501 3.431a1.1 1.1 0 0 0-.712-.4c-.316-.084-.635-.159-.948-.25-.618-.183-1.22-.407-1.826-.626-.026-.01-.037.031-.011.041.607.237 1.215.47 1.806.744.284.131.56.28.841.418a1.12 1.12 0 0 0 .808.177.07.07 0 0 0 .042-.104m3.682-2.303a20 20 0 0 0-2.328-.868c-.805-.28-1.61-.559-2.418-.828q-2.47-.821-4.954-1.595c-.015-.005-.02.018-.006.023q2.421.827 4.828 1.698c.772.28 1.544.557 2.315.84a25 25 0 0 0 2.498.887c.09.023.156-.112.066-.157m3.932-2.961a16 16 0 0 0-1.802-.611l-1.797-.578c-1.244-.4-2.494-.78-3.742-1.166-.024-.008-.034.03-.01.037 1.214.414 2.427.836 3.646 1.238l1.794.59a17 17 0 0 0 1.87.586c.055.011.098-.07.04-.096m2.697-2.684a19 19 0 0 0-2.29-.628c-.768-.19-1.54-.363-2.312-.541a.018.018 0 0 0-.01.034c.762.214 1.522.435 2.287.638a20 20 0 0 0 2.31.55.027.027 0 0 0 .015-.053m3.91-2.855c-.08-.013-.157-.034-.235-.049-.085-.016-.177-.016-.263-.027q-.263-.032-.523-.074a7 7 0 0 1-1.008-.242c-.017-.005-.029.021-.012.028a6 6 0 0 0 .987.333 4 4 0 0 0 .5.09q.13.016.263.025a2 2 0 0 0 .282-.02c.034-.002.048-.058.009-.064m3.336-1.943a5 5 0 0 1-.778-.136.018.018 0 0 0-.01.034 5 5 0 0 0 .775.195 2.2 2.2 0 0 0 .76.017.024.024 0 0 0 0-.045c-.245-.04-.5-.043-.747-.065m6.367-3.657a4 4 0 0 1-.58.13 1.7 1.7 0 0 1-.606-.02.037.037 0 0 0-.02.071 1.8 1.8 0 0 0 .633.073 1.3 1.3 0 0 0 .304-.057 1.1 1.1 0 0 0 .292-.144c.026-.017.01-.063-.023-.053m-39.668 27.058a19.7 19.7 0 0 0-3.216-.757.035.035 0 0 0-.019.068 20 20 0 0 0 3.227.746c.035.005.037-.047.008-.057m3.809.885a1.68 1.68 0 0 0-1.074-.279c-.19-.015-.378-.019-.568-.04a12 12 0 0 1-.629-.088c-.019-.003-.028.026-.008.03.187.045.375.088.56.142.192.055.379.126.57.187a1.73 1.73 0 0 0 1.12.162.07.07 0 0 0 .03-.114m-4.312 2.818a25.5 25.5 0 0 0-3.58-.534c-.039-.005-.048.062-.01.069a25.5 25.5 0 0 0 3.583.518.027.027 0 0 0 .007-.053m1.848.557c-.17-.047-.337-.1-.506-.15-.014-.004-.02.018-.006.023.166.062.332.121.496.186.036.015.056-.049.016-.06m-6.96 2.827c-.019-.002-.023.031-.004.034.965.144 1.926.27 2.901.318.022 0 .027-.035.006-.039-.963-.162-1.929-.247-2.902-.313m-2.047 4.28a.037.037 0 0 0 0 .074 37 37 0 0 0 1.702-.018.02.02 0 0 0 0-.039 37 37 0 0 0-1.702-.017M264.007 103.44a25 25 0 0 0-2.508-.852q-1.306-.415-2.61-.836c-.024-.008-.034.03-.01.037l2.546.876a25 25 0 0 0 2.558.833c.033.007.058-.042.024-.057m-2.411-3.171c-.024-.008-.034.03-.01.037 1.192.393 2.381.799 3.59 1.142a.016.016 0 0 0 .008-.03c-1.184-.42-2.388-.779-3.588-1.15m6.672 2.047a.4.4 0 0 0-.137-.099 1 1 0 0 0-.189-.088 2 2 0 0 0-.396-.08 7 7 0 0 1-.823-.146.012.012 0 0 0-.006.023 7 7 0 0 1 .766.3 2 2 0 0 0 .363.136 1 1 0 0 0 .208.033.5.5 0 0 0 .186-.01c.025-.01.048-.042.028-.07m3.898-1.513a8.3 8.3 0 0 0-1.764-.429c-.588-.129-1.177-.253-1.764-.388q-1.825-.423-3.625-.946a.012.012 0 0 0-.007.023q1.781.584 3.59 1.08c.58.157 1.16.31 1.746.445a7 7 0 0 0 1.795.32c.052-.002.083-.08.03-.105m2.72-1.935a8 8 0 0 0-1.343-.34 46 46 0 0 0-1.36-.273 84 84 0 0 0-2.742-.439c-.015-.002-.022.02-.007.023.922.179 1.84.386 2.756.593.45.102.901.2 1.351.304a9 9 0 0 0 1.326.27c.086.007.086-.11.019-.138m2.211-1.512a4 4 0 0 0-.912-.167c-.322-.045-.644-.082-.965-.136a19 19 0 0 1-1.871-.385.02.02 0 0 0-.01.038 19 19 0 0 0 1.905.53c.302.062.606.124.912.163a2.8 2.8 0 0 0 .94.033c.043-.01.033-.063 0-.076m2.714-1.322a9 9 0 0 0-1.253-.27q-.647-.074-1.295-.154c-.04-.005-.048.06-.01.069.428.086.854.178 1.281.267a9 9 0 0 0 1.27.142.027.027 0 0 0 .007-.054m3.579-1.058a4.7 4.7 0 0 0-1.082-.226 5 5 0 0 0-1.133.043c-.026.003-.028.044 0 .043a11.3 11.3 0 0 1 2.2.193.027.027 0 0 0 .015-.053m-18.341-29.103c-.999-.333-2.055-.539-3.073-.814-1.022-.277-2.042-.566-3.062-.851a56 56 0 0 0-6.17-1.54.027.027 0 0 0-.015.053 56 56 0 0 0 6.122 1.716c1.028.257 2.057.511 3.083.776 1.02.264 2.04.609 3.073.814.095.035.14-.122.042-.154m4.261-1.657a10.8 10.8 0 0 0-2.505-.882q-1.26-.391-2.526-.767c-1.75-.522-3.509-1.018-5.261-1.535-.02-.006-.027.024-.008.03 1.737.57 3.468 1.164 5.207 1.73q1.256.407 2.515.805a10.8 10.8 0 0 0 2.557.695.041.041 0 0 0 .02-.076m4.885-1.553c-1.332-.443-2.748-.678-4.102-1.049a73 73 0 0 1-4.052-1.227c-.017-.006-.023.02-.007.026 1.347.507 2.71.972 4.093 1.37a22.4 22.4 0 0 0 4.06.937c.034.003.038-.047.008-.057m1.188-2.382a.004.004 0 0 0-.002.007l1.036.287a.004.004 0 0 0 .002-.007Zm31.524-13.86a5.07 5.07 0 0 0-3.432-.869c-.047.004-.064.078-.012.089 1.153.224 2.258.628 3.402.88a.055.055 0 0 0 .042-.1m5.944 1.694a16 16 0 0 0-2.119-.625l-2.138-.556a.016.016 0 0 0-.009.03l2.113.652a16 16 0 0 0 2.131.582.043.043 0 0 0 .023-.083m6.125-2.168a22 22 0 0 0-2.87-.894q-1.495-.422-3.006-.789a70 70 0 0 0-6.217-1.217c-.03-.004-.043.04-.012.046 2.037.374 4.068.783 6.08 1.275.97.237 1.937.486 2.898.755 1.027.287 2.052.687 3.094.903.045.01.08-.058.033-.079m3.722-1.643a15 15 0 0 0-2.075-.592c-.724-.183-1.449-.363-2.17-.554a163 163 0 0 1-4.24-1.17.04.04 0 0 0-.021.076c1.42.462 2.847.91 4.287 1.31a91 91 0 0 0 2.083.56 12 12 0 0 0 2.127.43c.039.004.038-.048.009-.06m3.063-1.873a22 22 0 0 0-2.617-.678c-.878-.207-1.76-.398-2.641-.592a.018.018 0 0 0-.01.034c.888.237 1.774.479 2.664.705a21 21 0 0 0 2.595.595c.04.005.041-.053.01-.065m2.732-1.404a11 11 0 0 0-1.604-.474l-1.628-.385a.012.012 0 0 0-.006.023l1.598.492a11 11 0 0 0 1.623.404.031.031 0 0 0 .017-.06M134.988 180.85a20 20 0 0 0-2.609-1.28 50 50 0 0 0-2.628-1.034c-.02-.008-.036.027-.015.036.883.394 1.767.787 2.643 1.197.851.399 1.702.812 2.58 1.149.04.015.064-.047.029-.068m-2.968-4.291c-.034-.013-.06.046-.025.06 1.314.58 2.627 1.139 3.983 1.616.016.005.028-.021.012-.029-1.3-.612-2.627-1.136-3.97-1.647m7.578 2.948q-.014-.043-.02-.023a.19.19 0 0 0-.1-.172 6.4 6.4 0 0 0-1.108-.316 5.6 5.6 0 0 1-1.107-.401c-.018-.008-.034.018-.016.027.346.177.693.35 1.024.555a4 4 0 0 0 1.054.5.204.204 0 0 0 .225-.092q-.055.047.01.017a.065.065 0 0 0 .038-.095m5.998-.727a16 16 0 0 0-2.286-.878c-.79-.29-1.577-.588-2.366-.882-1.606-.599-3.21-1.2-4.828-1.764-.05-.017-.07.06-.022.08 1.565.625 3.142 1.214 4.72 1.806l2.277.853a18 18 0 0 0 2.459.896c.064.014.109-.076.046-.11m5.096-1.17c-1.566-.586-3.194-1.026-4.773-1.583a155 155 0 0 1-4.708-1.757c-.01-.004-.013.011-.004.015q2.32.976 4.69 1.825a49 49 0 0 0 4.77 1.59.047.047 0 0 0 .025-.09m1.789-2.339q-.994-.388-2.003-.737-1.983-.685-4.014-1.217a.014.014 0 0 0-.007.026q1.988.546 3.933 1.234.972.346 1.93.728a19 19 0 0 0 1.911.762.018.018 0 0 0 .014-.032 11 11 0 0 0-1.764-.764m6.015-.865a6.4 6.4 0 0 0-1.469-.58 83 83 0 0 0-1.54-.517q-1.576-.507-3.17-.948a.025.025 0 0 0-.013.049q1.568.533 3.135 1.072c.513.176 1.026.348 1.538.526a7 7 0 0 0 1.502.46c.035.004.042-.045.017-.062m3.561-2.464a4.5 4.5 0 0 0-1.536-.724c-.564-.178-1.13-.347-1.69-.54-.043-.016-.074.055-.03.074.537.241 1.064.505 1.596.759a4.5 4.5 0 0 0 1.62.527.057.057 0 0 0 .04-.096m4.435-1.879a7.5 7.5 0 0 0-1.512-.592c-.065-.022-.089.077-.028.102a7.5 7.5 0 0 0 1.52.536.026.026 0 0 0 .02-.046m-97.387-9.904a.016.016 0 0 0-.008.03 22 22 0 0 0 2.535.705.018.018 0 0 0 .009-.034 22 22 0 0 0-2.536-.7m10.369 1.385c-.578-.278-1.182-.503-1.77-.76-.57-.25-1.138-.51-1.714-.747a41 41 0 0 0-3.67-1.339c-.015-.004-.02.017-.006.023 1.165.482 2.34.936 3.507 1.414.609.249 1.222.486 1.826.747.588.255 1.153.556 1.738.814.101.045.192-.102.089-.152m3.291-1.104c-1.007-.486-2.082-.84-3.128-1.233q-1.625-.612-3.263-1.19c-.024-.009-.033.028-.01.038 1.055.433 2.114.85 3.178 1.261 1.056.409 2.11.867 3.2 1.178.032.009.054-.04.023-.054m2.68-1.785a7 7 0 0 0-1.292-.514l-1.343-.5q-1.368-.509-2.74-1.007c-.01-.003-.014.012-.005.016q1.334.53 2.673 1.051l1.289.5a7.7 7.7 0 0 0 1.396.508.03.03 0 0 0 .022-.054m2.42-1.771a19.5 19.5 0 0 0-2.819-1.141c-.018-.007-.032.024-.013.032a19.5 19.5 0 0 0 2.808 1.166.031.031 0 0 0 .024-.057m2.416-2.302c-.017.001-.017.028 0 .027a3.85 3.85 0 0 1 1.532.247c.01.003.017-.014.007-.018a3.05 3.05 0 0 0-1.539-.256M66.224 98.515a.02.02 0 0 0-.033.02c.732 1.458 1.279 3.01 1.893 4.52a.05.05 0 0 0 .097-.026 12.8 12.8 0 0 0-1.957-4.514m11.287-29.217L10.6 18.48l4.684-3.843L82.86 65.37z"/><path fill="currentColor" d="m0 5.86 3.13 22.483 12.217-8.182 12.489-8.364zm87.783 69.532-4.168-25.066-13.935 8.446-13.613 8.251zm358.526 259.826-97.356-63.734 6.099-5.762 98.268 63.552z"/><path fill="currentColor" d="m333.088 255.074 6.499 30.758 16.087-12.485 16.444-12.763zm128.002 87.569-8.183-34.226-18.434 13.017-18.009 12.716z"/></svg>