<svg xmlns="http://www.w3.org/2000/svg" data-name="Layer 3" viewBox="0 0 201.799 280.32"><path fill="#231f20" d="M126.59 71.359c.096-.12.205-.228.308-.34l-6.57-14.745a14.43 14.43 0 0 0-13.175-8.549H94.635a14.45 14.45 0 0 0-13.174 8.55L76.044 68.43a25.5 25.5 0 0 1 .105 3.898l6.849-15.367a12.77 12.77 0 0 1 11.637-7.552h12.518a12.75 12.75 0 0 1 11.637 7.55l6.906 15.499a7.3 7.3 0 0 1 .893-1.1"/><path fill="#231f20" d="M178.494 34.842a14.34 14.34 0 0 0-12.698-10.028c-24.423-1.773-55.858-1.386-64.881-1.226-9.057-.159-40.499-.546-64.912 1.226a14.33 14.33 0 0 0-12.697 10.028c-2.659 8.43-5.756 22.792-5.417 43.343a14.46 14.46 0 0 0 6.224 11.694c5.128 3.535 14.04 8.282 27.364 10.821a14.3 14.3 0 0 0 2.693.258 14 14 0 0 0 1.894-.146 16 16 0 0 1 .237-1.74 12.4 12.4 0 0 1-4.507-.025c-13.039-2.485-21.73-7.112-26.726-10.555a12.77 12.77 0 0 1-5.495-10.334c-.334-20.326 2.718-34.499 5.338-42.81a12.66 12.66 0 0 1 11.215-8.855c15.314-1.112 33.409-1.37 46.985-1.37 8.004 0 14.44.09 17.804.149 9.033-.161 40.406-.546 64.758 1.221a12.66 12.66 0 0 1 11.216 8.856c2.613 8.29 5.661 22.448 5.338 42.808a12.8 12.8 0 0 1-5.51 10.336c-4.977 3.44-13.652 8.063-26.713 10.554a12.61 12.61 0 0 1-13.893-7.352l-1.063-2.387a30 30 0 0 1-.927 2.055l.453 1.018a14.27 14.27 0 0 0 15.746 8.32c13.349-2.546 22.245-7.29 27.353-10.82a14.48 14.48 0 0 0 6.238-11.693v-.003c.327-20.587-2.765-34.933-5.417-43.343"/><path fill="#231f20" d="M201.752 48.594c-.593-4.151-18.515-24.503-20.523-26.77a8.54 8.54 0 0 0-6.547-2.907q-.546.001-1.124.013c-3.709.066-8.336.141-17.364-5.195C144.714 6.943 129.166 0 100.899 0 72.647 0 57.09 6.943 45.594 13.735c-9.017 5.335-13.64 5.259-17.36 5.195a67 67 0 0 0-1.128-.013 8.5 8.5 0 0 0-6.502 2.867C18.56 24.09.638 44.445.047 48.594c-.295 2.065.86 3.122 1.977 4.144 1.54 1.408 3.458 3.16 3.458 8.583a24.73 24.73 0 0 0 4.94 15.407 22.9 22.9 0 0 0 2.75 15.93c4.46 9.022 24.155 15.892 39.909 19.887.054-.624.127-1.237.21-1.817-15.408-3.98-34.564-10.632-38.634-18.86a21.3 21.3 0 0 1-2.504-15.124l.13-.456-.32-.347c-.048-.052-4.796-5.311-4.796-14.62 0-6.165-2.316-8.281-4.005-9.827C2.04 50.47 1.55 49.97 1.713 48.832 2.105 46.087 14.281 31.47 21.9 22.857a6.85 6.85 0 0 1 5.206-2.256q.535.001 1.099.013c3.728.062 8.821.148 18.247-5.43 11.297-6.675 26.6-13.5 54.447-13.5 27.861 0 43.154 6.825 54.437 13.5 9.438 5.578 14.525 5.489 18.25 5.43q.564-.012 1.096-.013a6.86 6.86 0 0 1 5.253 2.299c7.583 8.569 19.76 23.187 20.15 25.932.163 1.137-.326 1.638-1.446 2.663-1.691 1.545-4.007 3.661-4.007 9.826 0 9.269-4.748 14.569-4.796 14.62l-.317.35.128.452a21.43 21.43 0 0 1-2.528 15.168c-6.761 13.651-55.278 23.01-58.841 22.895a5.2 5.2 0 0 1-3.517-1.98q-.233.931-.522 1.844a6.1 6.1 0 0 0 3.982 1.82h.087c4.477 0 52.98-9.01 60.298-23.79a23.04 23.04 0 0 0 2.771-15.972 24.75 24.75 0 0 0 4.94-15.407c0-5.423 1.917-7.175 3.457-8.583 1.118-1.022 2.274-2.078 1.978-4.144"/><path fill="#231f20" d="M100.3 120.12c-2.67.034-14.407-.288-18.712-8.176l-.088-.13a2.2 2.2 0 0 0-1.6-.922c-.982-.012-1.717.73-2.558 1.615a6.27 6.27 0 0 1-3.365 2.244c-.04.608-.1 1.183-.154 1.71a7.44 7.44 0 0 0 4.74-2.794c.412-.436 1.036-1.092 1.272-1.092.067.004.135.042.317.251 4.416 7.978 15.106 8.92 19.13 8.982.325-.572.671-1.13 1.017-1.687"/><path fill="currentColor" d="M90.515 68.62a6.5 6.5 0 0 0-1.27-2.079 6.1 6.1 0 0 1-1.243-2.374 9.56 9.56 0 0 1 .538-5.755 22 22 0 0 1 1.238-2.621c1.029-.984 2.268-2.07 1.349-3.581a.65.65 0 0 0-.884-.232 12.16 12.16 0 0 0-4.763 8.834 15.3 15.3 0 0 0 .832 5.443 3.4 3.4 0 0 1 .11 1.555 3.1 3.1 0 0 1-.723 1.312 4.87 4.87 0 0 0-.87 2.712c-.435 4.755-.742 9.525-1.121 14.285-.153 1.92-.336 3.837-.524 5.754-.032.133-.059.267-.092.4a42.6 42.6 0 0 1-1.96 6.036 23.7 23.7 0 0 1-2.674 4.808 18 18 0 0 1-1.81 2.124c-.332.333-.69.634-1.033.954a3 3 0 0 0-.672 1.054.08.08 0 0 0 .088.115l.076-.011a16 16 0 0 0-.761 1.83.37.37 0 0 0 .26.457 1.2 1.2 0 0 0 .594-.058l.003.002a.51.51 0 0 0-.418.34 1 1 0 0 0-.02.149l.002.048.002.028a2 2 0 0 0-.885 1.045.097.097 0 0 0 .067.117 1.84 1.84 0 0 0 1.288-.549 18 18 0 0 0 1.405-1.181 31 31 0 0 0 2.509-2.77 3.82 3.82 0 0 1 2.982-1.728 3 3 0 0 1 .581.082 18 18 0 0 0 1.533 2.233 20 20 0 0 0 4.61 5.086.773.773 0 0 0 1.152-.661c.243-8.298.387-16.6.626-24.897.118-4.106.224-8.21.22-12.318 0-.981.007-1.964-.006-2.945a10.2 10.2 0 0 0-.336-3.043m2.145 32.99c-.089-1.39-.1-2.772-.09-4.165.02-2.816-.053-5.653.11-8.465.085-1.446.133-2.85.088-4.3a330 330 0 0 0-.172-4.3c-.144-3.223-.23-6.449-.364-9.673a.059.059 0 0 0-.117 0c-.047 2.866-.061 5.734-.16 8.599a83 83 0 0 0-.189 8.465c.192 2.816.136 5.643.104 8.465-.017 1.43.015 2.873-.104 4.299a20.5 20.5 0 0 0-.333 4.3 34 34 0 0 1 .153 4.835c-.012.761-.019 1.524-.059 2.284a7.6 7.6 0 0 0 .048 2.382.373.373 0 0 0 .713 0 6.1 6.1 0 0 0 .157-1.979c-.008-.717.006-1.432.02-2.15.03-1.427.03-2.877.184-4.298.074-.677.224-1.333.23-2.015.008-.778-.17-1.514-.219-2.284m1.98 11.15a7.3 7.3 0 0 1-.225-1.52 8 8 0 0 1 .1-1.966 5 5 0 0 0 .232-1.471c-.067-1.109-.188-2.194-.21-3.31-.024-1.145-.059-2.29-.093-3.436a.038.038 0 0 0-.076 0c-.08 1.188-.159 2.375-.227 3.564-.033.593-.052 1.19-.115 1.782-.058.554-.198 1.097-.228 1.654a15 15 0 0 0 .245 1.655 10.7 10.7 0 0 1-.064 1.948c-.099.773-.5 2.033.191 2.612a.405.405 0 0 0 .667-.176 2.4 2.4 0 0 0-.198-1.335m21.028-43.986c-.074-.577-.165-1.142-.207-1.724-.033-.46.227-.806.202-1.278-.056-1.071-.14-2.163-.22-3.233a31 31 0 0 0-.512-3.2 14 14 0 0 0-.866-2.962 8.3 8.3 0 0 0-3.049-3.859c-.057-.036-.117.046-.07.093a10.1 10.1 0 0 1 2.623 4.558 9.6 9.6 0 0 1 .368 3.067q-.112 1.597-.229 3.194a5.73 5.73 0 0 0 .092 2.951c.187.365.505.563.69.932a7.2 7.2 0 0 1 .572 1.496 35 35 0 0 1 .64 6.421.038.038 0 0 0 .075 0 30.8 30.8 0 0 0-.109-6.456m.516 14.278c-.021-1.103-.062-2.206-.101-3.306.027 1.1.052 2.203.101 3.306m-.162 6.909c.225-.496.467-.982.716-1.466a26 26 0 0 0-.21-1.72 33 33 0 0 1-.344-3.723c.023 1.173.02 2.346-.061 3.514a42 42 0 0 0-.1 3.395m.028-11.152q.013.468.032.937-.01-.47-.024-.937a.004.004 0 0 0-.009 0m-62.582 30.764c.09-.571.191-1.176.31-1.791-.427-.105-.854-.21-1.284-.306a12 12 0 0 0-1.797-.251 10.4 10.4 0 0 1-2.011-.383c-1.197-.317-2.395-.63-3.588-.963a48 48 0 0 1-7.296-2.743c-1.125-.52-2.17-1.118-3.254-1.71a14.4 14.4 0 0 0-3.504-1.173 36 36 0 0 1-4.045-1.437 91 91 0 0 1-4.177-1.747c-.053-.024-.1.049-.047.08 2.206 1.277 4.423 2.55 6.682 3.733 1.164.609 2.178 1.474 3.382 2.01a32 32 0 0 0 3.698 1.035c2.445.749 4.91 1.405 7.312 2.29 1.203.444 2.41.88 3.626 1.287.588.196 1.18.382 1.771.567.643.201 1.211.556 1.83.817a16.5 16.5 0 0 0 2.38.757ZM24.235 23.752a2.32 2.32 0 0 0-1.116 1.1 7 7 0 0 0-.64.716q-.96 1.11-1.936 2.207a368 368 0 0 0-3.858 4.426c-1.16 1.343-2.47 2.616-2.993 4.357a23.5 23.5 0 0 1-1.814 5.073 11 11 0 0 1-1.307 1.923 2.2 2.2 0 0 1-1.057.729 4.4 4.4 0 0 0-1.105.277 5.26 5.26 0 0 0-1.461 1.922 15.5 15.5 0 0 0-1.637 2.674c-.302.83.148 1.437.648 2.056q1.07 1.324 2.212 2.585a.586.586 0 0 0 .968-.255 92.4 92.4 0 0 1 8.572-17.567c.625-.782 1.177-1.634 1.749-2.446q1.698-2.413 3.403-4.82.18-.252.37-.502.547-.683 1.102-1.36c.351-.258.709-.514 1.033-.803a1.98 1.98 0 0 0 .802-1.167c.068-1.01-1.136-1.444-1.935-1.125M16.86 51.576c-1.686 4.038-3.163 8.135-4.622 12.259-.356 1.006-.722 2.01-1.066 3.02a18.6 18.6 0 0 0-.918 2.976 4.15 4.15 0 0 0 .44 2.5 8.8 8.8 0 0 0 .982 1.83c-.208.678-.462 1.341-.713 2.018a13.37 13.37 0 0 0-.219 7.195.17.17 0 0 0 .324 0 46.6 46.6 0 0 1 1.757-7.174 12.4 12.4 0 0 0 .813-3.27c.121-1.255.087-2.522.143-3.78a64 64 0 0 1 .894-7.498 80 80 0 0 1 .886-4.617c.484-1.804.949-3.614 1.371-5.438a.038.038 0 0 0-.073-.02m12.971-28.62a1.1 1.1 0 0 0-.286-.568 1.06 1.06 0 0 0-.724-.302 2 2 0 0 0-.557.087l-1.205.31a.59.59 0 0 0-.409.41c-.143.548-.19 1.374.5 1.562a1.4 1.4 0 0 0 .343.044.4.4 0 0 0 .108.013 10 10 0 0 0 1.15-.161 4 4 0 0 0 .506-.122.84.84 0 0 0 .603-.696 1.9 1.9 0 0 0-.03-.577m1.035-.845c.005-.003.01-.001.015-.004l.128-.056Z"/><path fill="currentColor" d="m31.926 22.395-.122-.159a.8.8 0 0 0-.345-.2l-.208-.029a.8.8 0 0 0-.372.101c-.04.017-.08.031-.118.052q-.022.012-.044.021a.7.7 0 0 0-.239.157.45.45 0 0 0-.125.17 1 1 0 0 0-.08.196.7.7 0 0 0-.003.36c.01.032.027.068.038.093a1 1 0 0 0 .038.09q.028.04.06.077a.5.5 0 0 0 .06.078l.012.012.154.12a.8.8 0 0 0 .628.075 1 1 0 0 0 .385-.145.75.75 0 0 0 .374-.779.6.6 0 0 0-.093-.29"/><path fill="currentColor" d="m30.82 22.13.044-.018-.008.002Zm84.72-17.961a6.2 6.2 0 0 0-2.587-.495q-1.37-.102-2.741-.182-2.746-.16-5.495-.23-2.751-.07-5.503-.041a52 52 0 0 0-5.499.197c-1.826.218-3.657.387-5.483.604-1.768.21-3.48.658-5.241.904-1.808.253-3.603.565-5.402.871-1.785.304-3.63.084-5.412.445a54 54 0 0 0-5.87 1.64c-1.992.644-3.87 1.558-5.808 2.343-.078.032-.05.156.035.13 1.753-.53 3.554-.838 5.332-1.266 1.736-.417 3.468-.844 5.214-1.214a34 34 0 0 0 5.097-1.604 12.4 12.4 0 0 1 2.55-.535q1.528-.233 3.06-.425c.823-.102 1.646-.207 2.474-.25.912-.048 1.818.016 2.728-.03 1.82-.092 3.656-.238 5.478-.188 3.581.1 7.165-.058 10.75.044q3 .087 5.997.288 1.497.1 2.992.226a8.4 8.4 0 0 0 3.17.035.702.702 0 0 0 .165-1.267m22.555 4.762a5.1 5.1 0 0 0-2.12-.992q-1.19-.415-2.399-.777a51 51 0 0 0-5.012-1.254c-1.674-.32-3.372-.47-5.028-.88a47 47 0 0 0-5.258-.817c-1.02-.132-1.27 1.646-.245 1.81a43 43 0 0 0 5.144.694 30.4 30.4 0 0 1 4.97.706c1.607.328 3.203.693 4.781 1.144q1.212.345 2.408.746a6.3 6.3 0 0 0 2.334.647.61.61 0 0 0 .425-1.027m4.116 1.456a7 7 0 0 0-.712-.54 2.9 2.9 0 0 0-.879-.351.74.74 0 0 0-.393 1.427q.195.058.389.122a2 2 0 0 0 .343.062 13 13 0 0 1 .78.137c.485.105.95.271 1.424.416a.076.076 0 0 0 .085-.111 5 5 0 0 0-1.037-1.162m40.521 18.984c-.616-.873-1.215-1.744-1.756-2.666-.25-.425-.507-.844-.723-1.286a9 9 0 0 0-.577-1.26c-.457-.647-1.296-1.575-2.164-1.592a5.36 5.36 0 0 0-2.599.05.034.034 0 0 0 .01.066 2.26 2.26 0 0 1 1.578.604 2.4 2.4 0 0 1 .224.218l.067.074c-.004.007-.002.027.018.078a2 2 0 0 0 .558.65c.375.35.686.774 1.074 1.109a15 15 0 0 1 1.274 1.086 37 37 0 0 1 2.358 2.82c.731.965 1.513 1.874 2.314 2.783.022.025.063-.007.046-.036-.548-.913-1.087-1.827-1.702-2.698m12.897 19.408c-.71-.507-1.644-.476-2.396-.914l-.024-.03q-.65-.87-1.287-1.749-1.348-1.861-2.638-3.764-1.254-1.85-2.444-3.742a12.7 12.7 0 0 0-2.484-3.209.66.66 0 0 0-1.023.132c-.347.712-.031 1.201.403 1.78.553.738 1.086 1.49 1.616 2.245a27.6 27.6 0 0 1 2.894 4.479c.353.802.589 1.665.935 2.477a22 22 0 0 0 1.04 2.124 22.7 22.7 0 0 0 2.893 4.016.666.666 0 0 0 .92 0q.671-.539 1.34-1.082a2.8 2.8 0 0 0 .853-.89 1.54 1.54 0 0 0-.598-1.873m-5.64 21.168a8 8 0 0 0-.75-.842c-.12-.72-.233-1.44-.383-2.157-.37-1.775-.788-3.533-1.205-5.298-.908-3.845-1.992-7.636-2.972-11.462-.037-.143-.246-.082-.219.06.764 3.98 1.42 7.97 2.258 11.935a13.5 13.5 0 0 1 .443 2.759 68 68 0 0 1-.06 2.715 11.8 11.8 0 0 0 .185 2.624 8.9 8.9 0 0 0 1.22 2.486c.287.56 1.017.324 1.211-.159a3.4 3.4 0 0 0 .273-2.66m-1.125-7.232c-.135-.571-.277-1.148-.387-1.725a4.1 4.1 0 0 1-.018-1.316 1.4 1.4 0 0 0 .013-.516 1.5 1.5 0 0 0-.226-.39 3.3 3.3 0 0 1-.401-1.01q-.234-.854-.485-1.702a53 53 0 0 0-1.12-3.363.03.03 0 0 0-.057.016c.307 1.139.614 2.278.909 3.42q.189.735.365 1.473a4.3 4.3 0 0 1 .17 1.33 1.7 1.7 0 0 0-.014.463 1.5 1.5 0 0 0 .21.405 3.3 3.3 0 0 1 .533 1.093c.127.531.228 1.074.317 1.614a16.3 16.3 0 0 0 .625 3.482.055.055 0 0 0 .107-.014 10.9 10.9 0 0 0-.541-3.26M59.924 78.9q.136-.782.278-1.564c-1.3-4.416-2.378-8.9-3.526-13.357q-3.663-14.217-7.315-28.436c-.345-1.342-.694-2.683-1.018-4.03a20.5 20.5 0 0 0-.807-3.48 5.87 5.87 0 0 0-1.988-2.211 3.3 3.3 0 0 0-2.669-.598.118.118 0 0 0 .031.23 3.74 3.74 0 0 1 2.848 1.131 4.3 4.3 0 0 1 .788 1.43c.205.475.467.92.685 1.387a19 19 0 0 1 1.03 3.246c.297 1.123.579 2.25.868 3.376l3.536 13.765q1.751 6.818 3.493 13.638c1.163 4.54 2.449 9.07 3.438 13.653.129.6.225 1.21.328 1.82m17.208-18.642q-.492-1.972-1.008-3.938-1.049-3.995-2.21-7.959c-1.537-5.217-3.274-10.367-4.93-15.547-.812-2.54-1.246-5.905.512-8.198.044-.057-.05-.128-.099-.076a5 5 0 0 0-1.435 2.733 8.3 8.3 0 0 0 .247 3.223c.63 2.672 1.688 5.253 2.521 7.867 1.726 5.413 3.275 10.881 4.723 16.374q.602 2.282 1.172 4.573a42 42 0 0 0 1.235 4.825c.025.065.14.064.132-.018a27.5 27.5 0 0 0-.86-3.86M85.3 34.074c-.351-1.254-.696-2.512-1.091-3.753a21 21 0 0 0-1.152-3.182c-.722-1.423-1.881-2.866-3.603-2.895-.055 0-.07.09-.013.099 1.997.326 2.798 2.409 3.365 4.102.77 2.3 1.565 4.59 2.331 6.89 1.578 4.737 2.833 9.595 4.025 14.44.057.232.414.134.357-.098-1.28-5.236-2.763-10.414-4.218-15.603m7.676 9.369q-.396-1.402-.788-2.805-.833-3-1.615-6.011c-.479-1.858-1-3.713-1.372-5.595a7.56 7.56 0 0 1 .436-4.944.068.068 0 0 0-.106-.082c-1.189.922-1.236 2.681-1.019 4.038a50 50 0 0 0 1.59 5.751q.914 3.183 1.778 6.379c.276 1.022.544 2.047.815 3.072l.405 1.536a5.7 5.7 0 0 0 .492 1.527.05.05 0 0 0 .094-.026 11 11 0 0 0-.71-2.84m55.26 31.181a159 159 0 0 1-.736-3.518c-.223-1.144-.357-2.284-.528-3.432a4.6 4.6 0 0 0-.414-1.504 4 4 0 0 1-.435-.718c-.1-.286-.152-.6-.226-.893-.291-1.15-.58-2.297-.85-3.451-2.13-9.158-4.73-18.199-7.159-27.28-.602-2.25-1.039-4.715-2.265-6.727-.898-1.475-2.51-2.987-4.34-2.941a.042.042 0 0 0-.012.082 7.1 7.1 0 0 1 4.324 3.558 29.4 29.4 0 0 1 2.083 6.087q1.869 6.659 3.7 13.329c1.207 4.366 2.368 8.736 3.385 13.151.256 1.114.503 2.228.723 3.35.1.516.222 1.034.302 1.554.087.564-.1 1.075.011 1.635.215 1.088.625 2.106.893 3.182.277 1.119.56 2.235.812 3.36 1.135 5.056 2.137 10.158 3.533 15.149.02.069.117.039.105-.03-.77-4.684-1.895-9.305-2.906-13.943m14.87 1.607q-1.02-4.368-2.08-8.726c-1.393-5.727-2.75-11.457-4.172-17.176q-1.229-4.938-2.516-9.86a.034.034 0 0 0-.064.018c2.717 11.56 5.52 23.098 8.248 34.656.39 1.65.747 3.31 1.175 4.95.428 1.639.774 3.306 1.26 4.927a.03.03 0 0 0 .056-.015c-.484-2.943-1.23-5.87-1.907-8.774m-26.79 34.909c-.29-.406-.6-.792-.877-1.208-.275-.413-.5-.856-.775-1.268-.245-.368-.56-.67-.823-1.025-.294-.4-.571-.814-.856-1.22a37 37 0 0 0-3.37-4.49c-.02-.02-.048.006-.037.029.106.22.233.432.351.648-.158.39-.316.768-.434 1.15a.9.9 0 0 0-.373-.338.1.1 0 0 0-.027-.014l-.013-.007-.001.004a.11.11 0 0 0-.13.096c-.023.288.228.564.383.794l.03.044a3.2 3.2 0 0 0-.043.847c-.075-.187-.148-.376-.237-.555a.25.25 0 0 0-.316-.103c-.02.008-.03.03-.046.043-.167-.025-.353.087-.28.286a.4.4 0 0 0-.178.273c-.023.122-.035.244-.053.367-.012.005-.021.005-.033.01a1.3 1.3 0 0 0-.51.79q-.23.643-.408 1.304-.161.59-.281 1.19l-.079.379a.96.96 0 0 0-.087.556 3 3 0 0 0-.038.346 1 1 0 0 0 .14.505 1.5 1.5 0 0 1-.398.064.4.4 0 0 0-.493.376l-.01.078a.44.44 0 0 0 .226.396.8.8 0 0 0 .381.092c.114-.004.259-.107.357-.1.218.016.408.416.565.585a2.28 2.28 0 0 0 1.748.606 22.6 22.6 0 0 0 4.714-.485c.528-.116 1.59-.232 1.775-.84l.05.079c.16.327.696.011.486-.284m-4.875-3.64a4.6 4.6 0 0 1-1.56-2.02 3 3 0 0 1-.089-.523l.157.227q.637.916 1.297 1.816l.6.8c-.134-.1-.277-.191-.405-.3m1.925 1.249c-.138-.067-.266-.153-.401-.226l-.058-.072q-.677-.888-1.336-1.789-.64-.875-1.27-1.758l-.526-.745a9 9 0 0 1 .233-1.407c.774 1.384 1.736 2.676 2.629 3.978.263.383.534.763.789 1.152.256.391.442.815.718 1.193l.02.025c-.267-.116-.538-.225-.798-.351m4.371 1.651c-.258-.313-.507-.633-.774-.937a9.3 9.3 0 0 1-1.476-2.074 4.5 4.5 0 0 0-.582-.792q-.382-.491-.762-.984c-.5-.65-1.006-1.294-1.49-1.954-.038-.051-.124-.005-.088.052.412.645.808 1.3 1.22 1.944.394.615.76 1.286 1.203 1.863.116.15.28.254.406.397.149.17.276.362.41.544.226.309.453.616.658.94.376.595.78 1.174 1.145 1.772a.14.14 0 0 0 .154.063l.06-.017a.22.22 0 0 0 .152-.152.76.76 0 0 0-.236-.665m-.801-4.175a5 5 0 0 0-.36-.451 2 2 0 0 0-.452-.367c-.013-.008-.03 0-.045 0a1 1 0 0 0-.106-.07c-.02-.01-.038.011-.03.03a1 1 0 0 0 .055.11.1.1 0 0 0 0 .056 2.7 2.7 0 0 0 .263.484q.159.228.323.454a10 10 0 0 0 .74.83.043.043 0 0 0 .073-.041 3.7 3.7 0 0 0-.46-1.035m3.182 4.279a6.5 6.5 0 0 0-.504-.707c-.163-.219-.32-.444-.495-.652-.358-.428-.795-.776-1.154-1.204-.01-.012-.03.004-.021.017.316.463.527.982.83 1.453.146.228.312.444.468.666a7 7 0 0 0 .516.705.234.234 0 0 0 .278.036.2.2 0 0 0 .047-.036.234.234 0 0 0 .036-.278m2.154-.512c-.29-.357-.65-.638-.945-.986-.308-.364-.575-.761-.848-1.151a15 15 0 0 0-.784-1.025 4.3 4.3 0 0 0-.949-.934.014.014 0 0 0-.02.015 4.3 4.3 0 0 0 .683 1.087c.272.353.55.696.847 1.03.296.331.585.665.855 1.018.295.386.486.84.77 1.237.129.26.66.04.39-.29m1.968-.593a1.8 1.8 0 0 0-.388-.297 2.4 2.4 0 0 1-.379-.398 3 3 0 0 1-.335-.438 4 4 0 0 0-.272-.466 20 20 0 0 0-1.534-1.433c-.027-.028-.064.012-.041.041.224.28.4.595.604.89a5.2 5.2 0 0 0 .637.839c.124.118.27.203.403.31a3 3 0 0 1 .377.372 2.5 2.5 0 0 1 .352.428 2 2 0 0 0 .268.46c.197.207.481-.095.308-.308m1.954-.573c-.062-.064-.121-.132-.187-.191-.133-.12-.28-.224-.42-.336-.28-.221-.547-.46-.811-.7a.02.02 0 0 0-.028.028c.22.282.44.566.64.863.096.145.19.291.295.43.057.073.123.141.185.21a.5.5 0 0 0 .116.11.28.28 0 0 0 .2.022.18.18 0 0 0 .122-.123.31.31 0 0 0-.112-.313m1.696-.355q0-.017-.007.016l.01-.025a.25.25 0 0 0-.02-.133v.062a.2.2 0 0 0-.03-.154q-.023-.04-.05-.077a.6.6 0 0 0-.073-.089 1 1 0 0 0-.094-.071.8.8 0 0 0-.175-.087 1 1 0 0 0-.086-.026.14.14 0 0 0-.115 0l.041-.005-.027-.006a.049.049 0 0 0-.037.089l.023.014-.025-.032c.007.038.035.053.061.075q.033.028.062.058.06.061.114.125l.027.032c.003.003.017.02.003.004l.006.008q.034.043.073.082l.03.035.012.014c.016.02-.012-.016-.002-.002a.22.22 0 0 0 .12.094l-.052-.03c.039.04.067.088.13.09l-.042-.011c-.009-.005.003.005.005.008l.014.016a.2.2 0 0 0 .034.03.047.047 0 0 0 .069-.027.2.2 0 0 0 .003-.056zm-12.904-11.881c-.29-.556-.56-1.122-.847-1.68a29 29 0 0 1-.417-.84 2.3 2.3 0 0 0-.485-.788c-.168-.143-.512-.066-.487.202a5.2 5.2 0 0 0 .64 1.804 8.6 8.6 0 0 0 1.094 1.624c.41.492.858.943 1.28 1.422a13.4 13.4 0 0 0 1.489 1.387c.011.01.027-.006.017-.017a13.5 13.5 0 0 1-2.284-3.114m-4.455 96.961a10 10 0 0 0-.096-.686c-.02-.11-.068-.26-.199-.283-.135-.023-.26.201-.103.238a.024.024 0 0 0 .018-.043q.093-.049.085.04a1 1 0 0 1 .008.113q.007.135.01.272.01.233.027.466.039.505.085 1.009a21 21 0 0 0 .279 1.952c.009.049.084.036.084-.011a28 28 0 0 0-.198-3.067m-.511 6.05q-.093-.886-.198-1.772a28 28 0 0 0-.494-3.404.018.018 0 0 0-.034.004c.044 1.178.264 2.365.391 3.536q.097.886.181 1.773a12 12 0 0 0 .207 1.646.031.031 0 0 0 .061-.008 10.7 10.7 0 0 0-.114-1.775m-1.032.92c-.128-1.323-.35-2.619-.604-3.922-.007-.033-.054-.018-.05.013.195 1.347.326 2.711.447 4.066.117 1.313.125 2.635.276 3.944a.047.047 0 0 0 .093 0 23.6 23.6 0 0 0-.163-4.101m-1.392 3.098c-.055-.86-.118-1.72-.178-2.58-.03-.446-.053-.893-.1-1.338a.82.82 0 0 0-.192-.593.02.02 0 0 0-.02-.002c-.074.048-.058.022-.06.114l.006.008.045.013c.007.002.01-.008.003-.011.149.062.098 1.063.108 1.236l.065 1.146q.07 1.242.146 2.484c.1 1.59.13 3.208.375 4.785.006.036.06.025.062-.008.049-1.747-.149-3.513-.26-5.255m-1.462 3.216c-.077-1.755-.11-3.525-.272-5.275a.016.016 0 0 0-.031 0c-.017 1.756.095 3.52.162 5.275.068 1.757.085 3.525.265 5.275a.023.023 0 0 0 .047 0c.036-1.758-.094-3.52-.17-5.275m-1.342 5.448q-.043-1.618-.094-3.235c-.066-2.158-.128-4.315-.236-6.47a.016.016 0 0 0-.032 0c.011 2.198.07 4.396.123 6.594q.04 1.618.084 3.235a28 28 0 0 0 .14 3.118c.005.03.048.02.05-.007a29 29 0 0 0-.035-3.235m-1.743-2.205c-.072-1.704-.094-3.411-.171-5.116a.016.016 0 0 0-.031 0c-.015 1.74.085 3.48.183 5.217.094 1.658.053 3.377.304 5.02.008.05.089.037.088-.013-.02-1.7-.301-3.406-.373-5.108m-1.373 2.626c-.06-1.788-.146-3.576-.228-5.363-.002-.045-.072-.045-.07 0 .063 1.788.124 3.576.209 5.363.085 1.783.082 3.585.219 5.363a.045.045 0 0 0 .09 0c-.008-1.784-.159-3.579-.22-5.363m-1.438 5.022q-.059-1.314-.068-2.63-.02-2.683.15-5.364c.002-.018-.025-.017-.027 0a68 68 0 0 0-.184 5.47q.01 1.367.072 2.735a19 19 0 0 0 .165 2.529c.007.035.06.025.061-.009.018-.905-.13-1.825-.17-2.73m-1.956.685q.02-2.128.198-4.25c.002-.019-.025-.018-.027 0q-.197 2.161-.233 4.334a26.4 26.4 0 0 0 .112 4.179c.005.031.053.022.054-.008.017-.72-.063-1.448-.083-2.168q-.03-1.043-.02-2.087m-1.635 5.574.003-2.002.008-4.085a.016.016 0 0 0-.031 0l-.049 4.085-.023 2.002a17 17 0 0 0 .004 2.083.027.027 0 0 0 .055 0 17 17 0 0 0 .033-2.083m-1.602-3.184a38.7 38.7 0 0 0-.355 7.312.014.014 0 0 0 .028 0c.068-2.446.093-4.876.362-7.312.002-.023-.033-.022-.035 0m-1.524 4.429c.003-.012-.016-.017-.018-.005a19 19 0 0 0-.316 2.543 11 11 0 0 0 .069 2.562c.004.02.034.014.035-.005.004-.837-.08-1.669-.05-2.508a19 19 0 0 1 .28-2.587m-1.865 4.066-.142 1.535c-.047.511-.106 1.022-.118 1.535 0 .017.028.022.03.004.076-.5.106-1.005.147-1.509l.126-1.565c.003-.028-.04-.027-.043 0m-3.328 4.433c.003.283.002.567.013.85a.01.01 0 0 0 .02 0c.01-.283.01-.567.01-.85a.022.022 0 0 0-.042 0m-.847 2.212.006.34a.012.012 0 0 0 .023 0l.006-.34a.018.018 0 0 0-.035 0m-60.336-66.547c-.393-.034-.643.25-.915.494q-.525.472-1.012.982a21 21 0 0 0-1.726 2.052 17.5 17.5 0 0 0-2.474 4.768c-.005.014.018.024.025.01a25.5 25.5 0 0 1 2.855-4.55 21 21 0 0 1 1.742-1.953q.478-.472.983-.916c.276-.242.557-.418.604-.805.005-.046-.043-.078-.082-.082m2.488-19.065a24.24 24.24 0 0 0-1.842 10.892.04.04 0 0 0 .078 0 33.3 33.3 0 0 1 1.805-10.88c.01-.027-.03-.037-.041-.012m59.946 5.301c-.297-.62-.58-1.25-.828-1.892-.485-1.247-.906-2.516-1.38-3.767a.04.04 0 0 0-.075.021 24 24 0 0 0 1.352 3.714c.27.611.54 1.223.82 1.829a13 13 0 0 0 .932 1.854c.012.017.044.007.036-.015-.23-.6-.58-1.165-.857-1.744m1.148-2.144c-.32-.623-.63-1.251-.94-1.88a27.4 27.4 0 0 1-1.613-3.882.033.033 0 0 0-.064.018 15 15 0 0 0 1.472 3.744c.33.64.672 1.273.998 1.914a19 19 0 0 0 1.027 1.958c.013.02.048.008.04-.016a18 18 0 0 0-.92-1.856m-1.526-7.42c-.017-.034-.067-.005-.05.03.397.85.789 1.703 1.219 2.538.01.018.034.002.027-.016-.376-.862-.789-1.706-1.196-2.552m2.852 5.795-.087-.169-.18-.35q-.179-.344-.36-.685c-.01-.018-.035-.002-.027.016q.165.35.334.7l.166.343.083.171a.7.7 0 0 0 .09.161c.022.025.058-.002.052-.03a.6.6 0 0 0-.07-.157m-1.487-7.667c-.01-.017-.038-.001-.027.016a12.5 12.5 0 0 1 1.199 2.373c.006.016.032.01.026-.007a9.7 9.7 0 0 0-1.198-2.382m1.386-2.39c-.01-.025-.052-.014-.042.012.178.452.348.908.54 1.355.007.014.03.004.025-.011-.161-.456-.346-.905-.523-1.356m-24.716 5.811a6 6 0 0 0-.524-.398q-.273-.197-.547-.392l-1.114-.789c-.015-.01-.028.014-.014.024l1.081.804q.261.194.525.385a6 6 0 0 0 .569.396c.019.01.04-.015.023-.03m.766-1.515-.633-.394-1.245-.775c-.026-.016-.05.024-.024.04l1.217.776.61.388a5 5 0 0 0 .618.37c.017.007.038-.014.022-.028a5 5 0 0 0-.565-.377m.289-1.956q-.591-.266-1.186-.525c-.02-.01-.038.02-.018.03q.596.284 1.193.56a11 11 0 0 0 1.17.518c.019.007.03-.022.013-.032a12 12 0 0 0-1.172-.55m1.296-1.164q-.293-.118-.576-.26a8.4 8.4 0 0 1-1.05-.622c-.02-.015-.04.019-.02.033a8.4 8.4 0 0 0 1.074.66q.27.137.548.256a2 2 0 0 0 .56.194c.023.003.03-.032.01-.044a4 4 0 0 0-.547-.217m1.414-1.968-.24-.094q-.24-.095-.482-.184l-.969-.352c-.036-.013-.05.043-.016.057l.955.402q.24.1.48.193a1 1 0 0 0 .435.132c.025-.004.025-.034.013-.05a.4.4 0 0 0-.176-.104m1.381-2.316-.21-.028-.39-.053c-.261-.036-.527-.052-.79-.076a.016.016 0 0 0-.004.03c.26.047.522.103.785.139l.389.052.195.027a.33.33 0 0 0 .168-.002c.014-.006.026-.027.01-.04a.3.3 0 0 0-.153-.049m.589-2.48c-.144-.032-.292-.05-.438-.073-.027-.004-.039.034-.011.041.142.037.283.081.427.11a2.3 2.3 0 0 0 .428.072c.021 0 .034-.034.011-.044a2.3 2.3 0 0 0-.417-.106"/><path fill="currentColor" d="M136.818 62.786a4.9 4.9 0 0 0-4.545 1.015 26 26 0 0 0-3.724 3.323c-4.72 5.005-7.592 11.414-10.545 17.537-3.373 6.993-6.861 13.931-10.527 20.775q-5.538 10.337-11.68 20.335-3.043 4.922-6.269 9.73-1.647 2.45-3.344 4.867a30 30 0 0 1-3.438 4.34c-2.397 2.333-6.226 3.812-9.074 1.354a8.04 8.04 0 0 1-2.382-3.645 7.8 7.8 0 0 1-.383-1.84l.308-2.86c.394-3.73.882-7.445 1.441-11.154 1.137-7.536 2.45-15.05 3.12-22.648.694-7.874.856-15.782 1.04-23.68q.14-6.068.284-12.136c.086-3.651.54-7.665-.943-11.114-1.094-2.545-3.573-4.777-6.467-4.727-3.224.055-5.477 2.873-6.658 5.594-1.441 3.325-1.94 7.005-2.596 10.542-.724 3.913-1.43 7.83-2.033 11.765-.582 3.793-.969 7.602-1.426 11.41a47 47 0 0 1-.941 5.51c-.457 1.873-1.085 3.699-1.646 5.541a44.7 44.7 0 0 0-1.829 10.883c-.186 3.708-.236 7.42-.461 11.126-.444 7.297-1.397 14.617-3.882 21.527q-.17.473-.344.945c-1.999 2.743-4.081 5.43-6.31 7.98a25.7 25.7 0 0 0-3.995 5.53 14.8 14.8 0 0 0-1.264 6.96c.069 2.5.475 4.981.712 7.467.258 2.7.43 5.407.565 8.116.27 5.439.436 10.884.64 16.326l.349 9.303c.057 1.529.128 3.053.254 4.578.11 1.31.365 2.623.578 3.929a29.2 29.2 0 0 0-.065 6.467 59 59 0 0 0 1.749 7.768c.374 1.4.788 2.79 1.181 4.184.078.276.14.551.204.827.01 1.068-.063 2.135-.122 3.2-.142 2.541-.283 5.082-.509 7.617-.455 5.111-1.234 10.18-1.98 15.255a146 146 0 0 1-1.51 8.527.112.112 0 0 0 .213.055 98 98 0 0 0 3.765-15.252 116.5 116.5 0 0 0 1.385-15.795 32.5 32.5 0 0 0-.168-4.272 9.5 9.5 0 0 0-.627-2.768c-.034-.177-.056-.358-.095-.535-.562-2.559-1.377-5.054-1.856-7.634-1.005-5.414-.379-10.9.019-16.346.23-3.148.378-6.299.58-9.449a.053.053 0 0 0-.104-.013c-.36 2.797-.759 5.583-1.057 8.388q-.165 1.555-.32 3.112c-.008-.23-.011-.46-.02-.69l-.3-8.062c-.203-5.407-.386-10.816-.612-16.222a232 232 0 0 0-.459-8.123c-.196-2.555-.518-5.093-.775-7.642a14.26 14.26 0 0 1 3.866-12.946c1.717-2.086 3.41-4.176 4.939-6.407-.098.343-.197.685-.279 1.033a22 22 0 0 0-.451 5.49c.068 3.892.374 7.788.585 11.675.006.118.018.236.025.354a11 11 0 0 1-.204 1.285c-.204.944-.507 1.87-.79 2.793-.545 1.765-.961 3.548-1.388 5.344a40.2 40.2 0 0 0-1.306 11.048c.003.072.123.07.127-.002a51.4 51.4 0 0 1 2.036-11.3c.52-1.796 1.132-3.562 1.627-5.367.05-.186.09-.373.137-.56q.098 1.143.201 2.284c.021.233.413.236.418-.004.08-3.903.025-7.795-.04-11.698-.064-3.696-.427-7.536.443-11.165a51 51 0 0 1 1.767-5.264c.36-1.005.68-2.022.982-3.046l.06-.13c.006-.015-.005-.025-.014-.035.169-.578.34-1.156.49-1.739a75 75 0 0 0 1.882-10.593c.394-3.586.597-7.19.735-10.795.14-3.621.138-7.264.603-10.863.468-3.628 1.72-7.006 2.7-10.508a66.5 66.5 0 0 0 1.763-10.97c.808-7.558 2.175-15.045 3.567-22.513.561-3.007 1.187-6.281 2.957-8.851-.165.661-.256 1.355-.361 2.027a48 48 0 0 0-.363 2.714c-.121 1.233-.002 3.188 1.637 3.251a.09.09 0 0 0 .045-.172c-1.31-.652-1.001-2.578-.973-3.766.018-.717.041-1.429.116-2.142a6.8 6.8 0 0 1 .383-1.921c.516-1.225 2.162-1.377 3.33-1.334a9.6 9.6 0 0 1 1.936.24 18 18 0 0 0 1.758.594.053.053 0 0 0 .047-.085 4.46 4.46 0 0 0-1.98-.89 7.7 7.7 0 0 0-2.162-.34 8.3 8.3 0 0 0-1.85.078 4.7 4.7 0 0 1 2.615-1.081 5.1 5.1 0 0 1 3.758 1.556c2.558 2.455 2.607 6.273 2.538 9.574-.082 3.87-.184 7.741-.277 11.611-.187 7.753-.294 15.516-.83 23.255-.514 7.431-1.604 14.786-2.748 22.141-.577 3.71-1.149 7.42-1.617 11.146a75 75 0 0 0-.785 10.874c.037 1.778.121 3.553.271 5.326a.132.132 0 0 0 .261-.002c.06-.901.135-1.801.215-2.7a111 111 0 0 0 1.94 3.222 29.5 29.5 0 0 0 2.706 3.966c.017.019.053.001.04-.024-.71-1.366-1.693-2.613-2.533-3.902a186 186 0 0 1-2.144-3.381q.157-1.755.342-3.508c.025.091.043.184.07.275a8.7 8.7 0 0 0 1.946 3.557c2.228 2.334 5.707 2.366 8.422.901 3.152-1.7 5.138-4.909 7.125-7.766q3.238-4.656 6.29-9.439a412 412 0 0 0 21.932-39.4c1.606-3.247 3.157-6.52 4.753-9.773a72 72 0 0 1 4.881-8.718 30.4 30.4 0 0 1 6.609-7.232c1.312-1.003 2.79-1.757 4.348-.78a5.5 5.5 0 0 1 2.203 4.319 27.3 27.3 0 0 1-1.581 10.787c-1.144 3.598-2.604 7.097-3.98 10.61-2.916 7.445-5.873 14.875-9.089 22.196q-4.676 10.645-10.085 20.949c-1.675 3.195-3.45 6.34-5.05 9.574a36 36 0 0 0-3.583 9.668 34 34 0 0 0-.355 2.492c-.082.848-.033 1.698-.09 2.545-.015.221.328.265.343.043a16 16 0 0 1 .502-2.6c.16-.673.346-1.337.547-1.997l.014.034c.209.517.423 1.028.665 1.53a82 82 0 0 0 1.482 2.929.09.09 0 0 0 .164-.073 76 76 0 0 0-.98-3.013q-.255-.73-.556-1.444c-.145-.347-.282-.707-.439-1.054a70 70 0 0 1 1.685-4.584 103 103 0 0 1 4.77-9.581 362 362 0 0 0 4.033-7.685.5.5 0 0 0 .22-.039.15.15 0 0 0 .028-.257.09.09 0 0 1-.043-.105l.006-.011c-.017.113.181.093.26.108.236.045.465.089.697.15a6 6 0 0 1 1.55.641 7.6 7.6 0 0 1 2.213 2.068 11.34 11.34 0 0 1 1.773 7.15c-.093 2.814-.575 5.622-.936 8.41q-.555 4.295-1.1 8.59a92 92 0 0 0-.796 9.876.111.111 0 0 0 .221.027c.27-1.103.504-2.215.725-3.33a8 8 0 0 0 .163.825 36 36 0 0 0 1.572 3.943.059.059 0 0 0 .112-.032 27 27 0 0 0-.869-3.91c-.193-.634-.426-1.27-.568-1.917-.04-.18-.064-.364-.094-.546.92-5.118 1.448-10.32 2.118-15.468a4.95 4.95 0 0 1 4.386 2.81 18.2 18.2 0 0 1 1.227 5.9c.556 4.798 1.14 9.594 1.712 14.391.027.225.059.449.086.674-.255-.593-.563-1.167-.766-1.775-.022-.064-.136-.033-.117.034.166.59.205 1.214.335 1.815.14.645.321 1.28.495 1.915.336 1.234.66 2.471.986 3.708q.096.362.201.727c.085.34.16.68.255 1.017a.14.14 0 0 0 .061.079 14.2 14.2 0 0 1 .802 5.378 13.2 13.2 0 0 1-2.452 5.684 51 51 0 0 0-3.386 5.748 57 57 0 0 0-2.934 7.287.103.103 0 0 0 .19.077 76 76 0 0 1 5.32-9.56q-.095.544-.188 1.09a130 130 0 0 1-.665 3.585 83 83 0 0 1-1.783 7.103 82.34 82.34 0 0 1-22.532 36.588 26 26 0 0 0-2.977 3.178 11.7 11.7 0 0 0-1.162 1.924c-.011-.028-.017-.058-.029-.086a.089.089 0 0 0-.162.002 12 12 0 0 0-.271 1.16c-.093.243-.186.486-.266.734a46 46 0 0 0-.79 2.793c-.207.511-.418 1.021-.609 1.54a14 14 0 0 0-.828 3.194c-.14 1.234-.023 2.48-.163 3.715a8.6 8.6 0 0 1-1.31 3.41 72 72 0 0 0-1.803 3.2 46 46 0 0 0-2.874 6.786 44.6 44.6 0 0 0-1.739 8.167c-.016.118.177.175.209.054a74 74 0 0 1 2.433-7.145 69 69 0 0 1 3.061-6.948 63 63 0 0 1 1.814-3.292 11 11 0 0 0 1.407-3.208 18.2 18.2 0 0 0 .165-3.708c.002-.244.015-.484.031-.725.768-2.134 1.332-4.33 1.949-6.518a13 13 0 0 1 1.555-3.68 18 18 0 0 1 2.559-2.952 98 98 0 0 0 9.82-10.737 83.2 83.2 0 0 0 13.285-25.651 80 80 0 0 0 2.003-7.784c.276-1.35.531-2.707.714-4.073a17.5 17.5 0 0 0 .23-3.393c.245-.375.484-.752.73-1.127a15.4 15.4 0 0 0 2.61-5.687c.42-2.42-.342-4.784-1.096-7.055-.215-.65-.442-1.294-.67-1.939-.132-4.247-.843-8.495-1.348-12.7q-.462-3.845-.93-7.69a15.9 15.9 0 0 0-1.528-6.13 5.72 5.72 0 0 0-5.115-2.95c.697-5.281 1.475-11.894-3.528-15.3a6 6 0 0 0-3.181-1.161 320 320 0 0 0 5.995-12.479c3.373-7.452 6.446-15.034 9.443-22.644 1.458-3.703 2.964-7.395 4.312-11.139a38.7 38.7 0 0 0 2.529-10.84c.18-3.221-.206-7.58-3.811-8.812"/><path fill="currentColor" d="M73.98 244.955c-6.058-3.435-12.415-6.366-18.725-9.302-.021-.01-.033.023-.014.033 6.134 3.282 12.291 6.607 18.674 9.386.068.03.133-.079.065-.117m11.2 1.105a50 50 0 0 0-5.632-1.218 23 23 0 0 1-3.174-.697 22 22 0 0 1-2.486-1.037c-1.604-.807-3.135-1.754-4.742-2.56q-2.548-1.28-5.211-2.304a.026.026 0 0 0-.02.049q2.648 1.06 5.187 2.365c1.668.862 3.216 1.902 4.846 2.825a8 8 0 0 0 1.1.537 5.3 5.3 0 0 0 1.297.237 27 27 0 0 1 2.83.634 54 54 0 0 0 5.956 1.36c.11.014.16-.155.05-.191M68.15 156.796c-.15.78-.144 1.611-.221 2.403a21 21 0 0 1-.374 2.3 2.15 2.15 0 0 0-.06.953 3.7 3.7 0 0 1 .028 1.392c-.09.632-.444 1.508-.14 2.11a.077.077 0 0 0 .13.015c.429-.522.266-1.453.299-2.089a3.5 3.5 0 0 1 .272-1.361 1.8 1.8 0 0 0 .111-.942 29 29 0 0 1-.035-2.523 18 18 0 0 0 .037-2.259c-.002-.027-.041-.024-.046 0m-1.411 1.041c-.091.632-.19 1.26-.266 1.895-.075.632-.139 1.27-.197 1.904-.005.054.077.08.095.025a9.5 9.5 0 0 0 .427-1.889 9.4 9.4 0 0 0 .005-1.936c-.003-.037-.059-.034-.064.001m-.646 5.953c-.16.592-.33 1.19-.437 1.795-.055.305-.105.613-.14.922a1.3 1.3 0 0 0 .046.827.062.062 0 0 0 .097-.002 1.4 1.4 0 0 0 .183-.785c.031-.309.058-.619.09-.928.065-.608.111-1.213.206-1.818.004-.025-.038-.037-.045-.011m-1.674-3.243c-.216 1.436-.44 2.871-.634 4.31l-.285 2.119a7 7 0 0 0-.103 2.07.047.047 0 0 0 .09.01 6.8 6.8 0 0 0 .372-1.953l.224-2.208c.147-1.446.264-2.894.388-4.342a.026.026 0 0 0-.052-.006m-1.862.484c-.18.774-.36 1.55-.515 2.33-.077.388-.138.78-.203 1.172-.027.167-.05.336-.086.502a3 3 0 0 0-.136.537 1.6 1.6 0 0 0 .088.41 2.2 2.2 0 0 1 .018.76q-.059.592-.146 1.18c-.056.391-.12.784-.164 1.177a1.8 1.8 0 0 0 .01.883.053.053 0 0 0 .09.01 1.86 1.86 0 0 0 .159-.861c.025-.396.037-.794.059-1.19q.03-.593.103-1.185a2.1 2.1 0 0 1 .192-.738 1.6 1.6 0 0 0 .18-.374 3 3 0 0 0 0-.552c.008-.17.028-.339.045-.508.04-.394.087-.787.122-1.182.07-.79.134-1.58.213-2.368a.015.015 0 0 0-.029-.003m-2.297 2.91c-.146 1.171-.31 2.339-.47 3.507a28 28 0 0 0-.374 3.52c0 .045.071.074.085.022a22 22 0 0 0 .506-3.447c.12-1.197.207-2.397.294-3.596a.02.02 0 0 0-.04-.005m-2.166 3.206q-.037.834-.152 1.661c-.078.55-.182 1.096-.248 1.648-.003.026.036.038.045.012a11.2 11.2 0 0 0 .436-3.31c.001-.052-.079-.064-.081-.01m-1.887 1.052-.145.734c-.049.244-.084.49-.12.736-.005.03.039.034.046.005.058-.243.118-.484.165-.73l.141-.733c.01-.056-.076-.066-.087-.011m28.443 2.577a32 32 0 0 0-1.042-2.75c-.018-.042-.078-.014-.064.029.293.92.564 1.849.852 2.772.285.912.535 1.852.884 2.742a.045.045 0 0 0 .086-.024 18 18 0 0 0-.716-2.77m2.868 2.693c-.089-.348-.189-.694-.288-1.04-.233-.807-.478-1.612-.699-2.424a14 14 0 0 0-1.333-4.18c-.03-.044-.087-.004-.086.038.031 1.494.836 2.877 1.29 4.27q.374 1.16.664 2.344c.099.396.19.795.285 1.193a2.2 2.2 0 0 0 .276.862.038.038 0 0 0 .066-.018 2.5 2.5 0 0 0-.174-1.045m2.159-.89c-.103-.364-.217-.725-.328-1.087-.251-.823-.5-1.646-.723-2.476-.208-.773-.378-1.55-.552-2.332a6.7 6.7 0 0 0-.755-2.132c-.022-.035-.066-.003-.066.029a7 7 0 0 0 .537 2.185 38 38 0 0 1 .799 2.356c.241.826.448 1.661.643 2.5a6.4 6.4 0 0 0 .585 2.076.045.045 0 0 0 .08-.023 3.1 3.1 0 0 0-.22-1.096m2.042-.737-.018.008a6 6 0 0 0-.096-.537q-.075-.3-.155-.599l-.336-1.28c-.207-.797-.42-1.59-.617-2.39-.184-.75-.365-1.502-.582-2.245a12 12 0 0 0-.379-1.173c-.079-.193-.124-.376-.353-.382-.035-.002-.064.046-.028.07.241.156.288.816.365 1.084q.172.593.36 1.18c.265.834.538 1.663.773 2.506.22.792.414 1.592.595 2.394.09.4.172.804.269 1.203.032.134.035.267.178.313a.064.064 0 0 0 .081-.034c.024-.048.017-.062-.012-.107a.04.04 0 0 0-.045-.01m.814-4.067q-.242-1.071-.504-2.138c-.333-1.35-.699-2.69-1.164-4.002-.008-.024-.05-.013-.044.013.318 1.373.692 2.73 1.048 4.094q.268 1.025.516 2.055.117.475.224.951a4.4 4.4 0 0 0 .25.957c.012.026.058.024.06-.008a8.4 8.4 0 0 0-.386-1.922m.042-6.734a.7.7 0 0 0-.11-.178.3.3 0 0 0-.123-.096l-.014-.008-.01-.018a.043.043 0 0 0-.082.023l.002.02a.2.2 0 0 0-.039.075.8.8 0 0 0-.01.216 2 2 0 0 0 .12.447c.024.066.063.127.093.19a1 1 0 0 0 .112.187c.085.11.131.246.205.364.024.038.075.004.073-.032-.007-.128-.042-.255-.045-.384a2 2 0 0 0-.04-.408 1.8 1.8 0 0 0-.132-.398m1.44 4.818c-.08-.234-.177-.462-.264-.693a45 45 0 0 1-.507-1.458c-.005-.016-.034-.008-.03.009.142.494.281.988.405 1.486.06.24.109.482.175.72.057.203.092.494.265.634a.06.06 0 0 0 .092-.026 1.2 1.2 0 0 0-.136-.672m-.003-4.942c-.088-.218-.19-.428-.289-.64a.012.012 0 0 0-.021.01c.078.22.153.442.244.659q.134.325.285.64a.016.016 0 0 0 .028-.012q-.115-.332-.247-.657m14.057 17.054c-.006-.014-.027-.005-.022.01a22 22 0 0 0 1.641 3.722c.014.023.052.008.04-.018-.563-1.234-1.153-2.455-1.66-3.714m4.032 3.827c-.237-.6-.475-1.2-.677-1.814-.202-.616-.35-1.25-.585-1.855a5.5 5.5 0 0 0-.868-1.67.057.057 0 0 0-.1.043 6.2 6.2 0 0 0 .577 1.798c.24.574.55 1.114.803 1.682a19 19 0 0 1 .656 1.744 12 12 0 0 0 .651 1.9c.046.088.193.058.175-.05a9.4 9.4 0 0 0-.632-1.778m1.295-1.323q-.314-.87-.585-1.754a19.7 19.7 0 0 0-1.128-3.527.043.043 0 0 0-.082.024 18 18 0 0 0 1.1 3.397c.202.583.384 1.174.557 1.766a12 12 0 0 0 .5 1.792.124.124 0 0 0 .235-.068 10.3 10.3 0 0 0-.597-1.63m1.158-2.317q-.19-.624-.404-1.24a21 21 0 0 0-.96-2.367c-.006-.013-.03-.008-.025.008.209.8.459 1.588.709 2.376q.189.6.38 1.198a5.6 5.6 0 0 0 .474 1.207.037.037 0 0 0 .07-.02 4.5 4.5 0 0 0-.244-1.162m.021-4.332c-.021-.052-.094-.017-.078.034a14 14 0 0 0 .815 2.207c.014.028.064.018.056-.016a14 14 0 0 0-.793-2.225m11.31 13.432c-.425-.553-.84-1.117-1.302-1.64-.017-.02-.051-.001-.04.024a11 11 0 0 0 1.117 1.795 11 11 0 0 0 1.408 1.571c.03.027.065-.018.046-.047a30 30 0 0 0-1.229-1.704m1.699-1.476c-.15-.188-.304-.371-.455-.558q-.499-.622-.971-1.264-.956-1.301-1.79-2.684c-.022-.038-.086-.012-.064.028a40 40 0 0 0 1.644 2.692q.444.663.916 1.308c.162.221.324.443.495.657a1.2 1.2 0 0 0 .48.444.06.06 0 0 0 .08-.063 1.23 1.23 0 0 0-.335-.56m.69-2.363c-.195-.234-.395-.465-.588-.701q-.542-.665-1.06-1.35a41 41 0 0 1-2.018-2.906c-.011-.019-.044 0-.033.02a32 32 0 0 0 1.87 3.03q.527.75 1.1 1.464a4 4 0 0 0 1.127 1.18c.04.019.073-.028.06-.063a2.3 2.3 0 0 0-.458-.673m-.589-3.746a8 8 0 0 1-.816-1.104 11.8 11.8 0 0 0-1.461-2.2c-.024-.024-.08-.012-.07.03a6.6 6.6 0 0 0 1.36 2.274c.29.364.57.74.83 1.125a3.8 3.8 0 0 0 .849 1.033c.076.054.192-.027.147-.118a5 5 0 0 0-.839-1.04M71.646 150.82a15 15 0 0 0-.967-1.449c-.021-.027-.069 0-.053.032a16 16 0 0 0 .874 1.455c.313.489.644.967.972 1.446.016.023.057-.001.043-.026a74 74 0 0 0-.869-1.457m4.315 1.161q-.895-1.245-1.734-2.528a82 82 0 0 1-3.355-5.63c-.012-.022-.047-.007-.035.015a61 61 0 0 0 3.144 5.533q.885 1.384 1.836 2.725a20.3 20.3 0 0 0 2.018 2.59.035.035 0 0 0 .055-.044c-.575-.93-1.29-1.775-1.929-2.661m2.989 1.348q-.559-.755-1.124-1.506-1.174-1.553-2.368-3.091c-.021-.028-.063.005-.042.034q1.114 1.558 2.253 3.096c.372.504.75 1.005 1.124 1.507a14 14 0 0 0 1.203 1.53c.02.02.062.002.046-.028a14 14 0 0 0-1.091-1.542m.565-1.79a194 194 0 0 0-1.808-2.33c-.014-.018-.04.003-.028.022.575.799 1.151 1.597 1.738 2.387.584.786 1.139 1.614 1.79 2.346a.041.041 0 0 0 .064-.051c-.522-.83-1.163-1.593-1.756-2.373m2.364.419-.735-.88c-.49-.588-.998-1.16-1.499-1.738a.022.022 0 0 0-.033.027c.472.6.937 1.208 1.42 1.8l.725.888a3.2 3.2 0 0 0 .728.796.024.024 0 0 0 .035-.028 3.2 3.2 0 0 0-.642-.864m1.353-.909-.308-.327-.579-.612a84 84 0 0 0-1.213-1.251c-.019-.02-.052.005-.033.026.383.434.766.869 1.158 1.295l.57.62.303.33a1.5 1.5 0 0 0 .293.281c.033.021.087-.01.065-.051a1.5 1.5 0 0 0-.256-.311m.177-1.916c-.31-.325-.623-.65-.926-.981a.016.016 0 0 0-.025.02 11 11 0 0 0 .855 1.064 6 6 0 0 0 .98.91.025.025 0 0 0 .035-.036c-.281-.35-.61-.653-.92-.977m1.038-1.129q-.288-.303-.604-.578c-.028-.026-.062.021-.035.047q.303.284.578.596c.18.205.348.418.54.612.015.015.05 0 .036-.022a3.5 3.5 0 0 0-.515-.655m29.68-26.993a11.8 11.8 0 0 0-1.997-1.436 10 10 0 0 0-1.173-.391 13 13 0 0 1-1.282-.561 29 29 0 0 0-2.875-1.234c-.017-.006-.035.019-.017.03a26 26 0 0 0 2.516 1.277c.421.2.85.387 1.262.604a13 13 0 0 1 1.1.715c.65.436 1.454.607 2.12 1.032a9.5 9.5 0 0 1 1.913 1.659.02.02 0 0 0 .03-.024 7.1 7.1 0 0 0-1.597-1.671m2.486 2.9c-.01-.016-.032-.002-.032.014l.005.08a10 10 0 0 0-1.174-.727q-.672-.39-1.349-.77-1.337-.755-2.678-1.505l-1.358-.757a10 10 0 0 1-1.44-.856c-.24-.196-.492-.446-.832-.35a.66.66 0 0 0-.326.223c-.055.068-.156.39-.251.381a.161.161 0 0 0-.116.287c1.122.873 2.29 1.681 3.462 2.484a19.3 19.3 0 0 0 3.481 2.184.033.033 0 0 0 .032-.058 15 15 0 0 0-1.767-1.182 41 41 0 0 1-1.707-1.133c-1.036-.727-2.026-1.516-3.01-2.311.032-.013.061-.018.095-.033a1.7 1.7 0 0 1 .346-.18 1.5 1.5 0 0 1 .682.224c.903.435 1.768.98 2.644 1.468q1.283.714 2.57 1.42.68.377 1.366.742a8 8 0 0 0 1.389.682.08.08 0 0 0 .092-.124q-.063-.1-.124-.203m-1.47-4.28a12 12 0 0 0-.567-.398l-.58-.379c-.04-.026-.084.033-.044.06l.577.383c.193.129.39.247.59.365.021.012.044-.016.024-.031m-49.23-12.996c-.918-.13-1.828-.294-2.745-.427a2.2 2.2 0 0 0-.996.038 6.7 6.7 0 0 1-1.591.238c-1.031.052-2.064.067-3.096.091-.01 0-.01.02 0 .02.964-.006 1.928-.025 2.891-.005a7.5 7.5 0 0 1 1.435.082 3 3 0 0 0 1.09.187 11.7 11.7 0 0 1 2.727-.172 12.4 12.4 0 0 1 2.749.678.014.014 0 0 0 .01-.025 8.4 8.4 0 0 0-2.474-.705m4.614 1.555c-.01.002-.008.018.002.015a.148.148 0 0 1 .18.135c0 .013.019.01.019-.003a.165.165 0 0 0-.201-.147m-10.79.287a2.6 2.6 0 0 1 1.069.098 2.6 2.6 0 0 0 .828-.09c.672-.079 1.377-.06 2.053-.084 1.487-.053 2.975-.066 4.463-.081.041 0 .051-.065.008-.066-1.705-.046-3.409-.092-5.111-.193-.418-.025-.837-.041-1.255-.068a2.7 2.7 0 0 0-.996-.066c-.34.106-.679.289-1.015.415a6.7 6.7 0 0 0-1.025.447.057.057 0 0 0-.029.072l.016.257a.174.174 0 0 0 .094.222 6.8 6.8 0 0 0 1.8.238q.933.05 1.867.044a42 42 0 0 0 3.648-.167c.023-.002.018-.036-.005-.035a28.5 28.5 0 0 1-4.232-.074c-.706-.067-1.406-.174-2.11-.256a2.4 2.4 0 0 1-.794-.093c-.368-.232.602-.498.726-.52m7.854-3.032a6.3 6.3 0 0 0-1.828-.616 8 8 0 0 0-1.92-.005.053.053 0 0 0 0 .105 16 16 0 0 1 1.874.265c.618.106 1.241.198 1.852.337.053.012.065-.065.023-.086m2.075-25.923-1.041-.28a4.2 4.2 0 0 0-1.018-.3c-.77.004-1.563.159-2.332.218-.827.064-1.657.104-2.484.151-.035.002-.035.062 0 .062 1.587.002 3.166.036 4.745.137.389.025.735-.157 1.131-.13a6 6 0 0 1 1.13.228c.744.198 1.484.436 2.237.589a.012.012 0 0 0 .006-.022c-.775-.262-1.584-.44-2.374-.653m-.637 1.255a10.8 10.8 0 0 0-3.667-.346.018.018 0 0 0 0 .035 31 31 0 0 1 3.66.369c.038.006.042-.05.007-.059m4.39-23.749c-.046.739-.148 1.47-.204 2.207a52 52 0 0 1-.202 2.218 3.8 3.8 0 0 1-.517 1.9 2.4 2.4 0 0 1-1.568.905c-.052.004-.044.075 0 .085a1.84 1.84 0 0 0 1.711-.372 2.78 2.78 0 0 0 .778-1.823c.104-.84.177-1.688.201-2.533a21 21 0 0 0-.137-2.587.031.031 0 0 0-.062 0m-3.218 8.678a8.6 8.6 0 0 0-3.679-.266c-.028.002-.028.05 0 .05.613.005 1.222.048 1.83.105.612.058 1.218.156 1.832.175.036 0 .055-.05.017-.064m68.629 2.02a2.3 2.3 0 0 0-.996-.44 4.7 4.7 0 0 1-1.488-.665 6.4 6.4 0 0 0-2.514-1.421 1.35 1.35 0 0 0-1.053.162 4 4 0 0 0-.431.65q-.272.392-.535.789a17.7 17.7 0 0 0-1.544 2.77c-.756 1.766-1.147 4.271 1.055 5.124a.045.045 0 0 0 .033-.084 2.45 2.45 0 0 1-1.222-1.979 5.25 5.25 0 0 1 .482-2.55 14.6 14.6 0 0 1 1.258-2.373q.328-.51.675-1.006c.196-.282.451-.854.816-.874a3.3 3.3 0 0 1 1.06.222 4 4 0 0 1 1.228.574 9 9 0 0 0 1.86 1.09c.316.115.735.179.937.472.22.32.091.954.076 1.328a8.5 8.5 0 0 1-.478 2.51 5.94 5.94 0 0 1-1.497 2.327 3.53 3.53 0 0 1-2.763.85.077.077 0 0 0-.055.136 2.22 2.22 0 0 0 2.43-.105 4.8 4.8 0 0 0 1.774-2.108 12.4 12.4 0 0 0 1.044-2.81c.172-.75.51-1.985-.152-2.589m-6.044 9.315c-.386-.215-.653-.61-1.1-.72a4 4 0 0 1-.603-.175c-.198-.083-.39-.182-.581-.279a3.5 3.5 0 0 1-.998-.696c-.017-.018-.053-.001-.04.024.388.735 1.305.943 1.91 1.447a1.4 1.4 0 0 0 .564.308c.224.057.455.064.682.118.47.113.895.37 1.358.506a.014.014 0 0 0 .01-.025c-.394-.184-.82-.296-1.202-.508m-6.113 13.621a2.96 2.96 0 0 0-1.434-.796 6.1 6.1 0 0 1-1.646-.577 38 38 0 0 0-3.278-1.147c-.055-.016-.089.063-.034.083 1.086.4 2.176.788 3.249 1.22a5.3 5.3 0 0 1 1.572.763 3.3 3.3 0 0 0 1.537.538c.048.01.068-.057.034-.084m.717-.623c-.624-.385-1.27-.737-1.908-1.099-.342-.194-.687-.384-1.027-.582-.177-.103-.357-.207-.525-.324a.75.75 0 0 0-.425-.206.036.036 0 0 0-.031.057.55.55 0 0 0 .293.214c.189.08.37.173.553.27.347.184.688.382 1.03.575.633.353 1.27.698 1.892 1.07a8 8 0 0 1 1.54 1.132 5.7 5.7 0 0 1 .878 1.176c-.472-.28-.949-.554-1.416-.843-.021-.013-.044.017-.023.032.57.396 1.121.818 1.69 1.216a.112.112 0 0 0 .168-.133 6.3 6.3 0 0 0-2.688-2.555m-2.345 1.405a7.3 7.3 0 0 0-1.087-.75 7 7 0 0 0-.584-.276 6 6 0 0 0-.654-.211c-.039-.011-.08.042-.038.067.185.112.363.228.552.334l.587.32c.388.208.797.376 1.19.577.036.018.064-.037.034-.061"/></svg>