<svg xmlns="http://www.w3.org/2000/svg" data-name="need weight" viewBox="0 0 308.555 668.971"><path fill="currentColor" d="M178.65 543.118q-.06-1.45-.203-2.893a109 109 0 0 0-.765-5.89 69 69 0 0 0-2.763-11.34 16.4 16.4 0 0 0-2.06-4.508 12.4 12.4 0 0 0-3.307-3.14 8.47 8.47 0 0 0-4.71-1.427 24 24 0 0 0-5.113.778c-2.948.683-6.048 1.894-7.787 4.523-1.076 1.627-1.329 3.675-1.698 5.545-.222 1.122-.357 2.246-.605 3.363q-.37 1.662-.706 3.332a223 223 0 0 0-.64 3.345 8 8 0 0 1-.453 1.775 5.5 5.5 0 0 0-.413 1.502c-.153 1.083-.013 2.183-.088 3.27-.079 1.127-.248 2.252-.363 3.376-.005.052.084.064.092.012q.194-1.32.406-2.637a19.5 19.5 0 0 1 .71-2.663c.003.022.007.046.032.053a28 28 0 0 0 3.16.558q1.479.231 2.963.427c2.12.28 4.247.501 6.375.707.015.002.015-.021 0-.023-2.161-.27-4.316-.584-6.47-.903q-1.528-.226-3.054-.458c-.98-.15-1.968-.367-2.957-.43-.023-.002-.028.018-.038.033l.03-.1a6.5 6.5 0 0 0 .382-2.516 11.2 11.2 0 0 1 .396-3.044 69 69 0 0 1 2.716-10.664 8.47 8.47 0 0 1 5.983-5.902 32 32 0 0 1 3.966-1.025 16.9 16.9 0 0 1 5.167-.478c3.093.34 5.374 2.898 6.836 5.449 1.78 3.104 2.18 6.862 2.652 10.349.493 3.64.863 7.251 1.07 10.92.042.748.247 1.722-.35 2.303a5.4 5.4 0 0 1-2.14.953 40 40 0 0 1-4.93 1.243 41.5 41.5 0 0 1-11.295.489 53.7 53.7 0 0 1-11.262-2.49c-.367-.116-.618.453-.265.628 6.43 3.178 14.144 3.835 21.182 2.869a41 41 0 0 0 5.412-1.116 33 33 0 0 0 2.491-.785 4.1 4.1 0 0 0 1.898-1.186 3.14 3.14 0 0 0 .516-2.184m-10.854-30.73a12 12 0 0 0-3.116-.244c-.595.015-1.185.075-1.778.12-.22.017-.444.044-.665.05a4.7 4.7 0 0 1-1.103-.167 2.2 2.2 0 0 0-1.18.228c-.56.192-1.128.367-1.69.557a28 28 0 0 0-2.908 1.156c-.028.014-.008.061.02.05a22 22 0 0 1 2.974-.894 11.6 11.6 0 0 1 1.689-.25 2.8 2.8 0 0 0 1.183-.164 3.6 3.6 0 0 1 .811-.397 6 6 0 0 1 1.091-.134c.517-.025 1.039-.009 1.556.005 1.037.027 2.068.153 3.104.168a.043.043 0 0 0 .012-.084m4.6 1.349c-.134-.095-.281-.175-.422-.26l-.425-.257a.031.031 0 0 0-.031.054l.426.253c.142.084.281.177.429.25a.023.023 0 0 0 .023-.04m4.408-30.183a29 29 0 0 1-6.116.007c-1.018-.106-2.033-.25-3.056-.312-1.037-.062-2.07 0-3.106-.028-.969-.026-2.019-.51-2.982-.324-.483.093-.924.297-1.415.373a32 32 0 0 1-1.596.194 18.5 18.5 0 0 1-6.18-.195.023.023 0 0 0-.013.046 18 18 0 0 0 5.85.93 28 28 0 0 1 3.123.038c1.06.128 1.908-.53 2.915-.722a22.3 22.3 0 0 1 6.46.2 23 23 0 0 0 6.122-.161c.026-.004.02-.049-.006-.046m-8.678 1.543a40 40 0 0 1-8.502-.279c-.058-.009-.085.08-.025.09a27.8 27.8 0 0 0 8.535.25c.035-.005.027-.064-.008-.061m9.534-.337a16.7 16.7 0 0 0-4.936.743c-.035.01-.02.06.014.053 1.638-.284 3.303-.384 4.935-.704.053-.01.038-.09-.013-.092m-6.637-4.585a50.5 50.5 0 0 0-7.481.441c-.025.003-.026.042 0 .04 2.484-.256 4.985-.362 7.48-.426a.027.027 0 0 0 0-.055m12.485-68.51a14.7 14.7 0 0 0-6.02-.342c-2.073.255-4.173.382-6.232.739-1.073.185-2.144.425-3.223.566-1.049.138-2.116.08-3.151.314-1.05.238-1.995.648-3.026.933a28 28 0 0 1-3.168.6 21.9 21.9 0 0 1-7.297.092c-.034-.006-.05.045-.015.053a29 29 0 0 0 6.083.707 26 26 0 0 0 3.103-.158 57 57 0 0 1 1.554-.148c.562-.045 1.102-.035 1.66-.049a8.9 8.9 0 0 0 3.103-.781 23 23 0 0 1 3.04-.988 47 47 0 0 1 6.428-1.432 32 32 0 0 1 3.527-.094 90 90 0 0 1 3.624.064.04.04 0 0 0 .01-.076m-12.821 13.145a39 39 0 0 1-5.295-.743 21 21 0 0 1-2.478-.827 10.2 10.2 0 0 0-2.435-.321 48 48 0 0 1-5.138-1.105 54 54 0 0 1-4.929-1.473c-.037-.013-.064.048-.027.064q2.371 1.05 4.807 1.948c1.657.615 3.35 1.05 5.035 1.574a8.4 8.4 0 0 0 2.436.659c.885-.002 1.774-.036 2.66-.01 1.792.053 3.569.286 5.364.297.041 0 .04-.059 0-.063m4.936-2.348a14 14 0 0 0-3.394.233 16.6 16.6 0 0 1-4.048-.15 73 73 0 0 1-7.865-1.23.012.012 0 0 0-.006.023 50 50 0 0 0 7.992 1.416c1.432.147 2.86.153 4.272.427a10 10 0 0 0 1.889.183c.483.002 1.048.09 1.421-.271a.374.374 0 0 0-.26-.63m.677-1.173c-1.474-.093-2.95-.11-4.423-.2-.047-.004-.06.076-.011.084a15.7 15.7 0 0 0 4.434.203.043.043 0 0 0 0-.086m7.843-1.275a29 29 0 0 0-4.276.625c-.052.01-.04.097.012.092a29 29 0 0 0 4.276-.625.047.047 0 0 0-.012-.092m-8.719-14.381c-3.685-.902-7.473.068-11.167.35-.887.067-1.778.114-2.66.231a18.5 18.5 0 0 0-2.826.856c-1.884.572-3.782 1.092-5.68 1.612-.035.01-.02.058.014.053 1.873-.31 3.745-.626 5.625-.886.528-.073 1.057-.163 1.587-.213a8.5 8.5 0 0 0 1.254-.129c.9-.22 1.772-.608 2.649-.908a25.5 25.5 0 0 1 11.194-.89c.044.006.052-.066.01-.076m-.311-3.035a7 7 0 0 0-1.291-.08 10 10 0 0 0-1.294.139c-.074.013-.042.126.031.113a11.6 11.6 0 0 1 2.547-.125c.026.001.033-.043.007-.046"/><path fill="currentColor" d="M241.218 294.667c-.413-6.095-2.452-11.892-4.258-17.679q-2.821-9.035-5.269-18.177c-1.62-6.04-3.059-12.125-4.612-18.182l-.114-.452a76 76 0 0 0-3.346-20.983c-2.256-7.15-5.486-13.967-8.51-20.814-3.153-7.141-6.258-14.307-9.516-21.402q-2.274-4.954-4.605-9.876a53 53 0 0 1-.694-5.937c-.142-2.422-.405-4.834-.626-7.249a132 132 0 0 0-2.022-14.461c-.059-.289-.137-.57-.204-.855-.454-5.43-.727-10.878-.938-16.318-.347-8.939-.265-17.882-.02-26.822.493-18.127 1.165-36.25 1.7-54.377q.225-7.63.44-15.26c.147-5.178.157-10.356.195-15.536a.05.05 0 0 0-.102 0c-1.218 18.385-1.913 36.801-2.68 55.21-.749 18.002-1.858 36.058-1.38 54.081.114 4.345.357 8.678.86 12.993-.123-.313-.24-.627-.367-.94-.044-.109-.222-.066-.181.05.296.846.53 1.714.744 2.588l.007.061c.452 3.358.984 6.69 1.629 10.005.055.584.125 1.167.166 1.752.348 4.866.298 9.81 1.279 14.61a62 62 0 0 0 .803 3.41c-.767-1.648-1.521-3.302-2.28-4.954a49 49 0 0 0-3.054-5.96.051.051 0 0 0-.093.04 85 85 0 0 0 4.23 10.737c1.526 3.608 2.968 7.247 4.501 10.852 3.026 7.116 6.134 14.194 9.251 21.27 3.043 6.91 6.31 13.772 8.827 20.896a74 74 0 0 1 4.124 21.312 119 119 0 0 1-.19 12.196c-.232 4.123-.501 8.246-.977 12.348-.024.207.311.246.36.049a99 99 0 0 0 2.138-10.873 67 67 0 0 0 .492-5.903 287 287 0 0 0 1.84 8.01q2.18 8.963 4.763 17.82c1.672 5.742 3.753 11.417 4.99 17.275a38.4 38.4 0 0 1 .82 9.162 89 89 0 0 1-.928 9.254q-2.533 18.49-4.457 37.057c-1.28 12.43-2.22 24.878-3.203 37.334a15.1 15.1 0 0 1-5.532 11.5l-.01-.005c-3.249-.545-6.536-.13-9.805-.136a37 37 0 0 1-4.827-.314 43 43 0 0 1-5.155-.866.025.025 0 0 0-.014.05 19.2 19.2 0 0 0 4.6 1.045c1.637.142 3.292.134 4.934.177a89 89 0 0 1 9.295.817c-.138.103-.267.219-.407.318a23.8 23.8 0 0 1-6.49 3.166q-.18-.02-.366-.035c-.646-.056-1.295-.072-1.943-.11-1.292-.077-2.58-.052-3.873-.11a29.2 29.2 0 0 1-7.67-1.812.03.03 0 0 0-.022.054c2.315 1.212 4.92 1.454 7.424 2.054a24 24 0 0 0 3.684.631c.13.01.263.014.394.024-2.094.539-4.239.94-6.39 1.332a51 51 0 0 1-2.392.361c-.236-.048-.474-.09-.708-.149q-.625-.158-1.235-.373c-.337-.118-.669-.275-1.006-.4.01-4.068-.107-8.14-.236-12.205q-.403-12.693-1.386-25.36c-.029-.368-.065-.736-.096-1.104a.03.03 0 0 0 .042-.014c1.515-2.949 2.723-6.061 4.179-9.043q2.188-4.483 4.7-8.795a.025.025 0 0 0-.043-.026q-2.612 4.316-4.901 8.814a60.5 60.5 0 0 0-3.985 8.972c-.176-2.1-.376-4.202-.582-6.305.705-1.335 1.307-2.743 1.993-4.075q1.392-2.704 2.888-5.353 2.985-5.295 6.353-10.365c.007-.01-.01-.02-.017-.01q-3.493 5.054-6.569 10.375-1.517 2.635-2.924 5.33c-.591 1.132-1.232 2.28-1.786 3.457-.436-4.472-.855-8.949-.966-13.432.902-1.38 1.735-2.813 2.626-4.194q1.927-2.99 3.956-5.914a211 211 0 0 1 8.564-11.483c.015-.02-.012-.047-.028-.028-3.047 3.599-5.968 7.303-8.708 11.142q-2.067 2.897-4.025 5.872c-.805 1.228-1.636 2.466-2.399 3.737a85 85 0 0 1-.01-2.606c.018-1.146.067-2.29.128-3.433a.2.2 0 0 0 .048-.021 2.3 2.3 0 0 0 .274-.348q.271-.349.532-.705c.36-.486.7-.985 1.053-1.477.728-1.014 1.495-2 2.26-2.986.007-.01-.006-.024-.014-.014-.78.954-1.56 1.908-2.371 2.834-.4.456-.812.899-1.206 1.359q-.272.314-.534.635c.123-2.06.296-4.114.499-6.166.735-.936 1.437-1.903 2.19-2.819 1.304-1.588 2.63-3.159 3.947-4.737 2.671-3.2 5.25-6.47 7.87-9.711.016-.02-.01-.047-.027-.028-2.78 3.201-5.59 6.367-8.32 9.612-1.318 1.567-2.647 3.127-3.95 4.708-.54.654-1.1 1.318-1.619 2.009q.198-1.934.41-3.867a4.4 4.4 0 0 0 .887-.583 11.7 11.7 0 0 0 1.51-1.684 39 39 0 0 0 2.516-3.531 45 45 0 0 0 3.957-7.962 77.6 77.6 0 0 0 4.16-18.92c.215-1.907.395-3.816.51-5.732.122-1.993.132-3.987.209-5.982.003-.067-.093-.063-.102 0-.43 3.35-.917 6.694-1.349 10.045a94 94 0 0 1-1.777 10.01 58.7 58.7 0 0 1-6.42 16.632 41 41 0 0 1-2.661 3.921c-.389.503-.795.991-1.193 1.485.217-2.05.423-4.103.584-6.16a32 32 0 0 0 2.595-12.978 116 116 0 0 0-1.052-15.285c-.167-1.476-.328-2.957-.556-4.426a45 45 0 0 0-1.02-4.56c-.018-.065-.132-.054-.124.017.31 2.613.426 5.264.627 7.888.191 2.507.388 5.014.52 7.525a81.5 81.5 0 0 1-.42 14.989q-.132.99-.29 1.98a88 88 0 0 0-.07-8.163 43.5 43.5 0 0 0-1.964-11.415c-.311-.918-.735-1.806-1.093-2.708-.027-.068-.136-.042-.113.031a45 45 0 0 1 1.238 5.67c.34 1.942.592 3.898.739 5.864a77.5 77.5 0 0 1-.174 11.79c-.635 8.2-2.055 16.326-2.473 24.547-.425 8.37.644 16.687 1.32 25.015q1.018 12.534 1.513 25.101.24 6.346.336 12.696c.022 1.529.065 3.057.105 4.585-.005 1.01-.016 2.02-.018 3.029-.005 3.71.039 7.424-.054 11.133a101 101 0 0 1-.995 10.98q-2.981 22.152-5.98 44.303l-1.671 12.378-.138 1.01c.004-.195.012-.392.015-.588.026-1.53.033-3.037-.076-4.565-.018-.25-.42-.345-.468-.063-.498 2.954-.63 5.962-.866 8.947-.234 2.957-.368 5.922-.526 8.884a168 168 0 0 1-1.571 17.764 139 139 0 0 1-4.415 17.308l-2.554 8.626a58 58 0 0 1-2.776 8.359c-3.757 7.973-13.663 11.595-21.835 8.71a19.92 19.92 0 0 1-9.86-7.818 18.8 18.8 0 0 1-2.563-5.854 32.5 32.5 0 0 1-.57-8.223 135 135 0 0 1 1.68-17.732 146 146 0 0 0 2.044-17.382 30 30 0 0 0-.207-4.327.059.059 0 0 0-.117 0c-.307 3.075-.605 6.153-1.045 9.212-.097.68-.22 1.356-.33 2.033.008-.164.03-.328.035-.493.08-2.684.094-5.37.084-8.056-.019-5.333-.13-10.668.007-16 .274-10.67 1.835-21.272 1.172-31.959-.053-.854-.137-1.705-.21-2.557l.39 1.88c.034.167.316.132.3-.04-.354-3.784-.596-7.571-1.086-11.343q-.727-5.605-1.544-11.201c-.55-3.717-1.255-7.449-1.586-11.192-.33-3.713.462-7.31.811-10.987.197-2.072.305-4.161.385-6.24.04-1.064.071-2.131.035-3.194-.037-1.08-.206-2.124-.288-3.198a.023.023 0 0 0-.047 0c-.078.909-.26 1.798-.357 2.706a162 162 0 0 0-.282 2.949c-.036.401-.088.8-.13 1.201l-.133-1.418c-.27-2.881-.481-5.767-.656-8.655-.35-5.783-.567-11.575-.745-17.365-.178-5.832-.372-11.663-.72-17.488-.344-5.765-.976-11.503-1.832-17.215a151 151 0 0 0-1.728-9.516q-.497-2.303-1.067-4.59a46 46 0 0 0-1.549-4.714.035.035 0 0 0-.067.019c.22 1.444.364 2.902.66 4.333q.441 2.135.831 4.28.762 4.17 1.336 8.374c.404 2.978.7 5.965.945 8.957l-.009-.013a25 25 0 0 0-1.994-2.314 85 85 0 0 1-4.422-5.165 82 82 0 0 1-7.493-11.209c-1.226-2.22-2.444-4.495-3.45-6.825-.014-.032-.07-.009-.057.024.794 2.03 1.567 4.04 2.527 6a79 79 0 0 0 3.191 5.887 72 72 0 0 0 7.851 10.7c.785.885 1.618 1.73 2.386 2.629a10.4 10.4 0 0 1 1.103 1.52c.193.335.33.684.536.992.063.848.116 1.697.175 2.546-.187-.172-.378-.34-.558-.51l-1.628-1.53q-1.673-1.575-3.349-3.145c-2.214-2.062-4.473-4.067-6.726-6.085-.015-.014-.036.008-.022.022 2.137 2.136 4.26 4.278 6.438 6.373q1.61 1.549 3.233 3.085l1.619 1.54c.336.32.67.686 1.044.985.065.952.135 1.904.196 2.857.038.59.06 1.182.095 1.774-.547-.445-1.1-.882-1.65-1.324-1.197-.96-2.319-2.023-3.437-3.074-2.213-2.082-4.476-4.096-6.742-6.119-.022-.02-.055.012-.033.034 2.182 2.175 4.391 4.291 6.717 6.315 1.127.982 2.272 1.954 3.34 2.999.55.537 1.095 1.076 1.655 1.6.059.055.122.122.183.185.136 2.375.247 4.752.35 7.129-.19-.2-.393-.39-.571-.58-.506-.537-1.038-1.048-1.565-1.564-1.05-1.029-2.123-2.062-3.094-3.167a21 21 0 0 0-1.398-1.569q-.81-.756-1.626-1.504c-1.118-1.027-2.26-2.024-3.402-3.023-.02-.018-.05.011-.03.03 1.03 1.002 2.036 2.028 3.044 3.052.517.526 1.034 1.053 1.54 1.59.519.548 1.08.993 1.639 1.493a36 36 0 0 1 2.985 3.11c.463.527.908 1.068 1.37 1.595a10.5 10.5 0 0 0 1.145 1.272c.35 8.158.573 16.322 1.029 24.475.182 3.256.407 6.51.7 9.757.143 1.57.278 3.15.556 4.704.16.896.379 1.776.614 2.651q-.174.979-.354 1.962a4 4 0 0 0-1.012.038 11 11 0 0 0-1.51.35c-.987.317-1.976.63-2.96.958-.004.002-.002.009.003.008a17 17 0 0 1 3-.642c.459-.052.913-.125 1.368-.2a7 7 0 0 0 1.066-.26 75 75 0 0 0-.548 3.377 7.5 7.5 0 0 0-1.358.053c-.544.095-1.083.26-1.623.38q-1.628.359-3.272.644a63 63 0 0 1-6.611.774 70 70 0 0 1-6.66.139 26.5 26.5 0 0 1-6.379-.725c-3.738-1.05-6.096-4.19-8.035-7.355a102 102 0 0 1-6.01-11.401c-3.693-8.203-5.974-16.898-8.563-25.486q-3.922-13.008-8.586-25.777c-1.542-4.24-3.176-8.45-4.84-12.643-1.644-4.142-3.263-8.311-5.195-12.328-.487-1.012-.993-2.006-1.442-3.036-.028-.064-.14-.018-.114.048.84 2.123 1.49 4.317 2.286 6.458q.487 1.308.983 2.612-.263-.387-.52-.774c-1.025-1.56-2.095-3.09-3.127-4.646-2.065-3.113-4.199-6.177-6.278-9.28-.017-.024-.057-.002-.04.024 1.975 3.162 3.894 6.357 5.884 9.51.973 1.54 1.908 3.105 2.887 4.642.489.768.957 1.556 1.485 2.298.229.322.48.628.73.935q.21.555.417 1.109 2.418 6.5 4.674 13.057 4.495 13.07 8.513 26.292c.114.375.222.753.334 1.128-1.442 6.246-2.92 12.479-4.038 18.794-.01.059.076.084.09.025 1.561-6.166 2.763-12.404 4-18.64 1.04 3.484 2.042 6.983 3.09 10.466l-.007-.005c-.267-.033-.28.693-.294.785-.261 1.603-.52 3.207-.802 4.807-.568 3.21-1.248 6.398-1.828 9.606a.047.047 0 0 0 .09.025 64 64 0 0 0 1.724-7.492q.31-1.764.542-3.544c.05-.39.305-3.998.58-4.003a.01.01 0 0 0 0 .02l.055.001c.589 1.952 1.19 3.9 1.835 5.833a134 134 0 0 1-1.064 5.751c-.386 1.831-.888 3.676-1.116 5.537a22 22 0 0 1-2.156-.674 28.4 28.4 0 0 1-8.743-5.535 99 99 0 0 1-7.44-7.604 66 66 0 0 1-6.958-8.73c-3.97-6.197-6.537-13.221-9.626-19.872-3.204-6.898-6.588-13.724-10.349-20.336q-3.14-5.521-6.422-10.964a253 253 0 0 0-3.373-5.389c-1.146-1.79-2.458-3.465-3.625-5.239-.021-.033-.075-.003-.054.032 1.021 1.674 1.88 3.442 2.85 5.146.97 1.705 1.962 3.397 2.925 5.105 1.89 3.35 3.766 6.704 5.545 10.116q1.808 3.468 3.567 6.963-.064 3.862-.392 7.715c-.22 2.579-.597 5.138-.909 7.707-.004.035.054.042.062.008a68.6 68.6 0 0 0 1.26-15.387q1.136 2.246 2.26 4.498c-.176 2.198-.299 4.401-.484 6.599-.161 1.921-.374 3.838-.523 5.76a85 85 0 0 1-2.849-1.449c-.852-.456-1.69-.94-2.528-1.424a.63.63 0 0 0 .12-.412c.05-.693.038-1.39.092-2.085.11-1.432.295-2.861.468-4.287.34-2.81.68-5.622 1.055-8.428.001-.009-.014-.01-.015-.002-.386 2.436-.743 4.877-1.017 7.329q-.205 1.834-.38 3.672a84 84 0 0 1-.205 1.962q-.072.602-.165 1.201a3.8 3.8 0 0 1-.148.909.041.041 0 0 0-.01-.08h-.054a.05.05 0 0 0-.048.037l-.002.01a75 75 0 0 1-10.022-6.912c-7.89-6.518-13.767-14.91-18.68-23.81-1.38-2.502-2.686-5.045-3.997-7.583-.671-1.299-1.336-2.601-2.025-3.89l-.125-.236c.414.297.822.6 1.236.897q5.257 3.766 10.657 7.32c.102.067.227-.091.132-.173-2.888-2.48-5.805-4.93-8.788-7.296-2.67-2.12-5.484-4.122-8-6.427a17.6 17.6 0 0 1-2.995-3.416 11.2 11.2 0 0 1-1.592-4.265 31 31 0 0 1-.259-5.088c-.003-1.776-.002-3.553.023-5.329.094-6.908.597-13.89 2.95-20.443 1.226-3.416 2.894-6.65 4.364-9.963a115 115 0 0 0 3.804-9.691q.46-1.356.888-2.723a104 104 0 0 0-.422 4.09c-.082 1.017-.19 2.032-.278 3.048-.014.16.258.2.284.039a230 230 0 0 1 5.593-24.372 184 184 0 0 1 8.466-23.681c3.457-8.01 7.122-15.931 10.675-23.9 3.525-7.907 7.16-15.777 10.544-23.746 3.122-7.351 6.027-15.173 6.083-23.263a25 25 0 0 0-.185-2.97.125.125 0 0 0-.25 0 50.4 50.4 0 0 1-1.816 12.03 58 58 0 0 1-.996 3.142c-.02.028-.046.053-.066.08 1.707-5.945 1.583-12.502 1.39-18.571a98 98 0 0 1 .185-13.369 61.5 61.5 0 0 1 3.641-13.881 70.8 70.8 0 0 0 3.682-14.45 149 149 0 0 0 .893-15.214q.42-15.976.76-31.954.16-7.988.28-15.977c.082-5.264.274-10.565.093-15.827-.047-1.344-.038-2.688-.079-4.032a.066.066 0 0 0-.133 0c-.876 10.518-1.124 21.108-1.474 31.655q-.525 15.827-.957 31.656c-.138 5.138-.188 10.29-.585 15.417a62.5 62.5 0 0 1-2.859 14.765c-1.517 4.62-3.397 9.143-4.34 13.931a62 62 0 0 0-.866 13.22c.088 4.454.272 8.906.336 13.36a37.4 37.4 0 0 1-1.908 12.76q-.245.703-.507 1.396-.317.59-.618 1.187a14.4 14.4 0 0 0-1.22 3.635c-.098.487-.161.98-.222 1.475-3.04 6.867-6.21 13.68-9.305 20.52-3.59 7.934-7.197 15.862-10.7 23.834a198 198 0 0 0-8.859 23.697l-.026.094c.002-.041-.068-.051-.075-.009-.05.29-.115.58-.169.87a132 132 0 0 0-2.727 11.261c-.802 2.93-1.71 5.833-2.746 8.688q-1.833 5.045-4.103 9.919c-1.525 3.275-3.245 6.457-4.629 9.799-2.74 6.615-3.51 13.741-3.695 20.843a204 204 0 0 0-.055 5.334c0 1.732-.035 3.472.092 5.2a14.9 14.9 0 0 0 1.128 4.983 13.3 13.3 0 0 0 2.582 3.775 31.4 31.4 0 0 0 4.01 3.398c.577.431 1.167.846 1.75 1.27.256.691.553 1.37.844 2.045q.808 1.874 1.68 3.72 1.695 3.591 3.564 7.091a109 109 0 0 0 8.42 13.567 68.5 68.5 0 0 0 10.927 11.763 78 78 0 0 0 13.381 8.958 106 106 0 0 0 8.155 3.908 8.4 8.4 0 0 0 3.627 1.008 2.7 2.7 0 0 0 1.055-.26q.517 1.161 1.032 2.323a90 90 0 0 0 4.973 10.007 60 60 0 0 0 6.837 9.023c2.427 2.721 4.894 5.441 7.56 7.93a32.6 32.6 0 0 0 9.85 6.615 21 21 0 0 0 5.786 1.444 14.2 14.2 0 0 0 2.949.013 10 10 0 0 0 1.461-.215 3 3 0 0 0 .434-.167 99 99 0 0 0 3.754 7.057c1.916 3.26 4.074 6.731 7.483 8.61a15.4 15.4 0 0 0 6.135 1.632 59 59 0 0 0 6.726.196 62.5 62.5 0 0 0 13.542-1.82c.499-.124 1.008-.234 1.497-.39a4.5 4.5 0 0 0 .888-.423 24.5 24.5 0 0 0-.122 3.49 54 54 0 0 0 .657 5.598l.841 5.67c.52 3.508 1.086 7.007 1.645 10.508l.006.098q.196 1.967.38 3.936.375 4 .592 8.013a130 130 0 0 1-.2 15.928c-.36 5.26-.9 10.507-1.106 15.776-.208 5.331-.123 10.667-.086 16 .02 2.975.027 5.95-.04 8.926-.034 1.48-.11 2.977-.01 4.455.102 1.52.154 3.05.145 4.572a.165.165 0 0 0 .11.15 138 138 0 0 0-2.347 17.438c-.292 5.412-.494 10.982 1.884 15.99a21.74 21.74 0 0 0 9.19 9.662 19.333 19.333 0 0 0 28.154-11.134c.962-2.892 1.749-5.85 2.611-8.773 1.743-5.906 3.689-11.797 5.055-17.805a106.4 106.4 0 0 0 2.193-18.129c.12-2.322.208-4.647.296-6.971a59 59 0 0 0 2.05-10.301l1.505-11.14 3.01-22.28 3.01-22.28c.492-3.645 1.068-7.304 1.237-10.984.17-3.696-.004-7.403-.1-11.099-.011-.416-.026-.831-.037-1.247.066-1.072.1-2.147.133-3.222l1.535-.349a.3.3 0 0 0 .14-.082c5.626-.593 11.263-1.259 16.442-3.71 4.29-2.03 8.174-5.394 10.048-9.829a25.2 25.2 0 0 0 1.476-8.182q.338-4.806.717-9.608.753-9.524 1.672-19.034 1.845-19.1 4.36-38.127c.825-6.23 2.097-12.58 1.67-18.889M52.61 354.99c.294-1.892.457-3.802.6-5.711.166-2.208.3-4.43.294-6.644.584 1.175 1.178 2.345 1.753 3.524-.11 1.62-.226 3.238-.374 4.856-.146 1.587-.234 3.234-.521 4.818-.587-.276-1.17-.56-1.752-.843m1.934.927a26 26 0 0 0 .579-4.666c.12-1.64.185-3.29.208-4.939.543 1.117 1.088 2.232 1.621 3.353q-.095 1.403-.218 2.804c-.123 1.423-.3 2.865-.36 4.3-.614-.273-1.22-.567-1.83-.852m3.894 1.764c-.588-.236-1.165-.506-1.737-.761a32 32 0 0 0 .313-3.357q.066-1.14.082-2.28.006-.548.005-1.095c0-.055-.006-.141-.012-.236.277.582.56 1.16.834 1.744.283.602.549 1.211.827 1.815-.043.651-.08 1.303-.133 1.953-.06.734-.139 1.476-.18 2.217m1.334.441a9 9 0 0 1-1.077-.342c.103-.746.144-1.507.174-2.25q.035-.84.037-1.676c.672 1.467 1.348 2.933 2.006 4.407a5 5 0 0 1-1.14-.139m38.07 37.373a17 17 0 0 1-2.668-.462 28.8 28.8 0 0 0 1.37-5.697q.463-2.736.72-5.503a122 122 0 0 0 2.248 6.197c-.235 1.839-.53 3.67-.695 5.517q-.487-.01-.975-.052m1.118.053a29 29 0 0 0 .691-5.171c.22.547.43 1.098.659 1.641.49 1.16 1.007 2.307 1.539 3.447-.963.037-1.925.096-2.89.083"/><path fill="currentColor" d="M37.311 298.337c-2.42-3.48-5.466-6.483-7.992-9.885a26.2 26.2 0 0 1-5.18-10.798c-1.045-5.735.85-11.594 2.741-16.944 1.141-3.229 2.286-6.456 3.399-9.695 1.125-3.276 2.109-6.599 3.227-9.877.009-.024-.028-.033-.037-.01-1.14 2.938-2.369 5.84-3.54 8.765-1.139 2.841-2.193 5.718-3.268 8.583-2.057 5.482-4.596 11.2-4.368 17.178a23.3 23.3 0 0 0 4.303 11.983 97 97 0 0 0 8.04 9.967 58 58 0 0 1 4.496 5.425 29 29 0 0 1 3.437 6.305.086.086 0 0 0 .165-.046 32.9 32.9 0 0 0-5.423-10.951m48.011 10.92c-.752-1.325-1.602-2.59-2.3-3.946a35 35 0 0 0-2.2-3.718c-3.19-4.666-7.634-8.299-10.86-12.921-6.832-9.787-3.353-22.467-.559-33.047q1.35-5.108 2.963-10.142c1.07-3.344 2.071-6.728 3.312-10.015.054-.142-.17-.199-.226-.062-1.212 2.976-2.518 5.912-3.596 8.942q-1.592 4.472-2.98 9.014a110 110 0 0 0-4.259 17.543c-.749 5.653-.474 11.532 2.312 16.63 2.714 4.969 7.19 8.694 10.686 13.077 1.038 1.302 2.083 2.6 3.116 3.905 1.057 1.334 2.135 2.614 3.07 4.04 1.883 2.874 3.75 5.759 5.644 8.625a.05.05 0 0 0 .087-.051q-2.013-3.984-4.21-7.874"/><path fill="currentColor" d="M92.617 316.544c-.491-.97-.972-1.941-1.378-2.951a21 21 0 0 0-1.315-2.658c-.56-.966-1.283-1.813-1.849-2.768-.034-.057-.115-.007-.088.051.447.944.727 1.957 1.173 2.906a20 20 0 0 0 1.577 2.799c.583.856 1.091 1.755 1.595 2.66a29 29 0 0 0 1.574 2.8c.035.05.132.022.107-.045a28 28 0 0 0-1.396-2.794m49.772-29.75a86 86 0 0 1-3.126-8.895 13.2 13.2 0 0 1-.56-4.45 36 36 0 0 1 .589-4.718c.531-3.114 1.05-6.22 1.341-9.369a100 100 0 0 0 .331-10.781.035.035 0 0 0-.07 0c-.106 3.24-.438 6.479-.845 9.695a91 91 0 0 1-1.708 9.816c-.375 1.565-.923 3.076-1.212 4.663a12.1 12.1 0 0 0 .062 4.652c.643 3.118 2.614 5.732 4.018 8.54 1.625 3.247 3.242 6.488 5.012 9.66.028.05.097.006.075-.043-1.31-2.92-2.644-5.831-3.907-8.77m9.001 8.786a51 51 0 0 0-5.162-8.017c-.053-.07-.173-.006-.122.071 1.75 2.65 3.325 5.424 5.155 8.02a.074.074 0 0 0 .128-.074M85.74 176.236a174 174 0 0 1-1.116 8.586q-.33 2.08-.689 4.157a12.3 12.3 0 0 1-.421 1.999 10 10 0 0 0-.483 2.066c-.374 2.827-.655 5.661-1.077 8.484-.411 2.754-.973 5.485-1.562 8.206-.673 3.114-1.398 6.218-2.11 9.323a.05.05 0 0 0 .098.027c1.645-5.44 2.877-10.99 4.088-16.54.608-2.787 1.249-5.567 1.849-8.355q.201-.945.331-1.903c.1-.736-.022-1.484.043-2.233.123-1.4.283-2.796.405-4.196q.418-4.805.73-9.621c.003-.056-.08-.054-.087 0m4.458 7.146c-.003-.03-.048-.03-.047 0a27.7 27.7 0 0 1-.322 5.294 48 48 0 0 1-.934 5.03c-.211.79-.495 1.547-.64 2.354a21 21 0 0 0-.258 2.522c-.097 1.746-.243 3.486-.383 5.23-.01.125.183.146.214.03q.665-2.495 1.363-4.976a23 23 0 0 0 .63-2.627c.13-.832.11-1.668.163-2.507.107-1.705.37-3.392.39-5.104a48 48 0 0 0-.176-5.246m-32.794 3.521c-1.212 4.505-2.622 8.943-4.182 13.339q-.565 1.592-1.144 3.18a27 27 0 0 1-1.386 3.427 13.5 13.5 0 0 0-.992 3.147c-.292 1.165-.594 2.324-.895 3.487-.042.162.197.275.278.117a176 176 0 0 0 1.602-3.189 12.3 12.3 0 0 0 1.248-3.039c.44-2.304 1.328-4.561 1.973-6.817 1.292-4.515 2.477-9.064 3.619-13.619a.063.063 0 0 0-.12-.033m81.56 20.162a32 32 0 0 0-.125-2.578c-.086-.863-.393-1.706-.526-2.57q-.836-5.437-1.477-10.892c-.006-.044-.074-.045-.07 0q.448 5.44.69 10.885c.04.9-.083 1.81-.003 2.7.078.873.235 1.745.393 2.607.323 1.758.609 3.531.965 5.283.029.14.245.105.246-.034.005-1.797-.06-3.603-.093-5.4m-43.545 107.54q-.637-1.233-1.247-2.48c-.439-.89-.828-1.8-1.2-2.72a23 23 0 0 0-1.253-2.41c-1.812-3.32-3.738-6.575-5.706-9.806a.016.016 0 0 0-.027.016c1.82 3.272 3.556 6.592 5.27 9.92.43.833.785 1.671 1.291 2.46.5.78.98 1.565 1.413 2.385q.648 1.227 1.238 2.486a24 24 0 0 0 1.262 2.608c.04.065.156.024.129-.054a19 19 0 0 0-1.17-2.405m3.321-3.814c-.363-.717-.77-1.41-1.158-2.113-.837-1.513-1.594-3.07-2.382-4.61-1.561-3.048-3.092-6.104-4.87-9.034a.014.014 0 0 0-.023.014c1.543 3.01 3.224 5.944 4.778 8.948.758 1.466 1.519 2.935 2.19 4.444.344.776.65 1.569 1 2.344a5.7 5.7 0 0 0 1.161 2.131.08.08 0 0 0 .134-.055 5 5 0 0 0-.83-2.07m3.167-4.433c-.339-.552-.679-1.104-1.008-1.662q-1.018-1.728-2-3.475c-1.296-2.293-2.53-4.62-3.955-6.837a.027.027 0 0 0-.047.028c1.253 2.317 2.664 4.54 3.98 6.822a116 116 0 0 1 1.89 3.398q.456.86.89 1.732a5.7 5.7 0 0 0 .928 1.588.069.069 0 0 0 .114-.067 5.2 5.2 0 0 0-.792-1.527m-3.195-13.854c-.008-.012-.028-.002-.02.012 1.565 2.512 3.02 5.08 4.407 7.694.02.037.07.005.054-.031a36.4 36.4 0 0 0-4.44-7.675m3.076-4.729a.01.01 0 0 0-.017.01 15 15 0 0 0 1.32 2.346.031.031 0 0 0 .055-.031 15 15 0 0 0-1.358-2.325m3.175 5.492c-.01-.012-.031.004-.022.016a16 16 0 0 1 1.509 2.57.016.016 0 0 0 .029-.013 8.8 8.8 0 0 0-1.516-2.573m2.026-7.577a61 61 0 0 0-1.188-1.695 3 3 0 0 0-1.099-1.127c-.02-.009-.038.02-.017.03.542.283.843 1.01 1.168 1.501.357.54.713 1.08 1.08 1.614a120 120 0 0 0 2.288 3.225c.03.041.1.004.07-.042a126 126 0 0 0-2.302-3.505m-63.125 17.206a46 46 0 0 1-2.096-3.936 15 15 0 0 0-1.217-1.726c-.408-.621-.808-1.248-1.211-1.873-.807-1.249-1.597-2.511-2.44-3.735a.023.023 0 0 0-.041.024c.702 1.308 1.464 2.586 2.206 3.872.37.643.746 1.284 1.112 1.93a15 15 0 0 0 .956 1.845 48 48 0 0 1 2.572 3.692 39 39 0 0 0 2.316 3.674c.024.03.062-.009.049-.038a39 39 0 0 0-2.206-3.729m3.333-2.037a167 167 0 0 1-1.762-3.41 182 182 0 0 0-3.544-6.665c-.022-.04-.08-.004-.06.036a182 182 0 0 0 3.48 6.702c.592 1.086 1.18 2.175 1.75 3.273a20 20 0 0 1 .845 1.887 4.4 4.4 0 0 0 .754 1.377c.11.121.296-.007.261-.152-.262-1.101-1.193-2.058-1.724-3.048m4.458-1.416c-.4-.777-.816-1.546-1.208-2.328a511 511 0 0 1-2.375-4.827c-.769-1.578-1.488-3.186-2.319-4.732-.178-.33-1.335-2.914-1.88-2.331a.008.008 0 0 0 .01.012c.375-.186 1.121 1.71 1.267 1.98q.541.997 1.111 1.98 1.167 2.017 2.24 4.085a69 69 0 0 1 1.95 4.107c.348.794.652 1.604.976 2.408a4.9 4.9 0 0 0 .912 1.744.067.067 0 0 0 .113-.047 5.2 5.2 0 0 0-.797-2.051m-3.841-15.755a25 25 0 0 0-2.127-3.236.014.014 0 0 0-.023.014c.588 1.154 1.18 2.287 1.854 3.395.671 1.101 1.356 2.19 1.983 3.317.017.032.063.004.047-.027-.57-1.158-1.12-2.328-1.734-3.463m7.3 12.728c-.38-.636-.773-1.26-1.171-1.884-.784-1.226-1.553-2.462-2.332-3.69-.019-.03-.066-.003-.047.027a63 63 0 0 1 2.183 3.777c.334.634.661 1.271.994 1.905a7.2 7.2 0 0 0 1.115 1.772.075.075 0 0 0 .124-.072 6.4 6.4 0 0 0-.866-1.835m.941-6.085c-.956-1.55-1.893-3.111-2.835-4.67-1.885-3.119-3.744-6.249-5.812-9.252-.018-.027-.06-.003-.043.025 1.885 3.117 3.89 6.157 5.78 9.27a141 141 0 0 1 2.7 4.61 36 36 0 0 0 2.658 4.668c.072.093.242-.008.2-.116a30 30 0 0 0-2.648-4.535m-1.008-11.026a89 89 0 0 0-4.265-6.422c-.011-.016-.038 0-.027.016q2.13 3.138 4.083 6.393c1.305 2.168 2.417 4.45 3.736 6.605.013.022.053.007.043-.018a52 52 0 0 0-3.57-6.574m.955-6.176a33 33 0 0 0-.85-1.41q-.892-1.39-1.881-2.71c-.008-.01-.024-.002-.017.009q.92 1.335 1.745 2.73c.27.458.54.917.8 1.381a12 12 0 0 0 .837 1.419c.02.027.073.013.06-.026a8 8 0 0 0-.694-1.392m-2.327-10.275c-.009-.01-.022.004-.014.014.7.872 1.366 1.769 2.083 2.627.02.024.06-.007.043-.033a19.5 19.5 0 0 0-2.112-2.608m-28.699 52.169c-4.35-3.548-8.924-6.775-13.536-9.97-.013-.01-.029.011-.017.021 4.4 3.482 8.816 6.92 13.475 10.05.06.04.135-.055.078-.101m-10.533-11.668c-.019-.015-.047.01-.027.027a51.6 51.6 0 0 0 7.507 5.408c.013.008.025-.011.012-.02-2.58-1.685-5.06-3.524-7.492-5.415m13.392 9.178a18 18 0 0 0-1.304-.932c-.439-.276-.908-.502-1.354-.764-.475-.28-.934-.586-1.404-.872-.028-.017-.053.027-.026.044.449.287.9.574 1.329.892.436.324.825.704 1.249 1.043.404.325.82.634 1.23.952a4 4 0 0 0 1.256.781.067.067 0 0 0 .075-.098 3.5 3.5 0 0 0-1.05-1.046m2.467-1.683c-1.854-1.641-4.018-2.947-5.987-4.447-2.042-1.555-4.055-3.13-6.166-4.595-.016-.011-.037.015-.021.027 1.944 1.557 3.963 2.994 5.973 4.462 2.058 1.504 3.992 3.26 6.158 4.609.033.02.073-.029.043-.056m3.09-2.06a19 19 0 0 0-2.454-1.93l-2.715-2.045q-2.672-2.02-5.375-3.996c-.025-.018-.048.023-.024.04q2.715 2.043 5.397 4.128 1.3 1.011 2.581 2.048a21 21 0 0 0 2.457 1.927.11.11 0 0 0 .133-.172m-5.965-10.114a36 36 0 0 0-3.901-2.893c-.024-.015-.044.022-.022.038q1.971 1.41 3.9 2.886c.017.013.04-.016.023-.03m8.379 6.407a5 5 0 0 0-1.055-.875c-.397-.287-.797-.568-1.19-.86a30 30 0 0 1-2.3-1.875c-.014-.014-.036.008-.021.022a53 53 0 0 0 2.194 2.018c.36.31.722.614 1.1.9a4.2 4.2 0 0 0 1.227.749c.049.015.072-.045.045-.079m-2.453-6.217a24 24 0 0 0-2.518-2.046q-1.343-.983-2.729-1.907c-.01-.007-.02.01-.01.017q1.385.965 2.711 2.007c.837.659 1.653 1.343 2.513 1.972.025.018.055-.022.033-.043m-1.333-4.144a.27.27 0 0 0-.294.033.06.06 0 0 0 0 .083.06.06 0 0 0 .083 0c.002-.002.017-.013.004-.004l.01-.007.013-.007c.003-.002.018-.007.003-.002l.027-.009.012-.002c.013-.003-.01 0 .001 0a.3.3 0 0 1 .058.001h.002l.016.003.027.008.014.005.003.001.026.014.024.015c.002 0 .01.008.005.003l.01.01a.16.16 0 0 1 .051.088c.006.029.049.02.05-.007a.25.25 0 0 0-.145-.226m122.75-1.53c-.763-1.21-1.548-2.421-2.22-3.686a18 18 0 0 0-.951-1.796c-.406-.594-.832-1.173-1.235-1.769-.828-1.222-1.669-2.436-2.508-3.65-.01-.014-.033-.001-.024.014.768 1.21 1.514 2.433 2.25 3.663.368.616.71 1.244 1.061 1.87a21 21 0 0 0 1.242 1.765 36 36 0 0 1 2.146 3.59 22.7 22.7 0 0 0 2.133 3.615c.037.045.117-.003.098-.057a18.6 18.6 0 0 0-1.992-3.56m5.02-.12c-.683-1.031-1.322-2.092-1.966-3.147-1.332-2.183-2.565-4.425-4.031-6.523a.021.021 0 0 0-.037.022c1.212 2.254 2.658 4.364 4.005 6.537.652 1.05 1.31 2.099 1.923 3.173a18 18 0 0 0 1.899 3.227c.089.099.283-.006.232-.135a18.2 18.2 0 0 0-2.025-3.154m1.582-7.507c-.392-.523-.827-1.005-1.255-1.498-.012-.013-.03.006-.02.02a18 18 0 0 1 1.138 1.626c.352.543.733 1.066 1.084 1.61a.027.027 0 0 0 .047-.027 10 10 0 0 0-.994-1.731m3.853 6.041c-.336-.513-.689-1.015-1.022-1.53a.014.014 0 0 0-.024.014c.306.53.592 1.072.896 1.604a10 10 0 0 0 .978 1.494c.021.024.069-.002.056-.032a10 10 0 0 0-.884-1.55m6.503-17.992c-.01-.02-.04-.003-.03.017a154 154 0 0 0 3.594 7.01c.007.013.027.002.02-.012a263 263 0 0 1-3.584-7.015m3.776-4.148c-.171-.38-.403-.742-.605-1.106q-.572-1.029-1.137-2.06a298 298 0 0 1-2.309-4.295c-.019-.035-.072-.004-.054.032a295 295 0 0 1 2.11 4.313q.509 1.065 1.015 2.131c.168.356.328.716.506 1.067a9 9 0 0 0 .73 1.033c.03.046.117.02.096-.04-.127-.354-.2-.734-.352-1.075m3.357 7.129c-.2-.41-.414-.813-.623-1.218q-.651-1.258-1.277-2.53c-.015-.032-.061-.004-.047.028q.58 1.273 1.133 2.558c.182.42.358.844.549 1.26a4 4 0 0 0 .637 1.174c.04.04.127.013.12-.05a4 4 0 0 0-.492-1.222m-6.531-21.682c-.015-.023-.052-.002-.037.021a97 97 0 0 1 5.885 11.31c.017.037.081.01.068-.03a46 46 0 0 0-5.916-11.301m1.213-6.353c-.01-.011-.031.004-.022.017a38.2 38.2 0 0 1 4.285 7.322c.02.042.09.012.075-.032a21.9 21.9 0 0 0-4.338-7.307m-32.841 120.572a4.9 4.9 0 0 0-1.122-1.276c-.46-.425-.92-.849-1.37-1.284-.898-.87-1.764-1.773-2.635-2.671-1.742-1.794-3.416-3.665-5.267-5.348a.02.02 0 0 0-.028.028c1.664 1.868 3.5 3.578 5.242 5.373.847.873 1.697 1.744 2.51 2.65q.626.701 1.23 1.422a5.2 5.2 0 0 0 1.288 1.258.112.112 0 0 0 .152-.152m-8.33-2.939a.027.027 0 0 0-.039.038c1.138 1.162 2.324 2.27 3.513 3.379.011.01.028-.006.017-.017-1.146-1.153-2.293-2.301-3.491-3.4m6.896 6.81-.594-.57q-.593-.571-1.182-1.149a.021.021 0 0 0-.03.03q.582.584 1.158 1.172l.56.574a5 5 0 0 0 .594.546c.017.012.042-.013.03-.03a5 5 0 0 0-.535-.573m-4.719 1.605c-.013-.013-.03.006-.02.02.872 1.038 1.757 2.073 2.71 3.039.02.022.051-.01.032-.033-.855-1.053-1.786-2.045-2.722-3.026m-3.319 34.513a43 43 0 0 1-4.426.396 13 13 0 0 0-2.21.006c-.778.135-1.538.294-2.33.363a21.8 21.8 0 0 1-8.597-.985c-.025-.008-.033.028-.01.037a20.2 20.2 0 0 0 8.484 1.492c.736-.028 1.471-.096 2.208-.104a9 9 0 0 0 2.14-.421 42 42 0 0 1 4.744-.765c.01-.001.008-.02-.003-.019m2.177-2.568c-3.549.18-7.085.586-10.607 1.047-.017.002-.017.03 0 .028 3.53-.4 7.07-.687 10.607-1.028.03-.003.03-.049 0-.047M93.633 373.34c-1.082 5.7-2.546 11.3-3.788 16.963a.043.043 0 0 0 .083.022 108 108 0 0 0 3.731-16.978c.003-.017-.023-.024-.026-.007m-5.008-3.575q-1.113 3.989-2.167 7.994c-.699 2.654-1.51 5.335-1.998 8.038a.078.078 0 0 0 .15.041c.797-2.632 1.33-5.37 1.998-8.038q1.007-4.017 2.077-8.019a.031.031 0 0 0-.06-.016m-3.788 2.403q-.42 1.635-.892 3.255c-.316 1.08-.577 2.174-.88 3.258a.012.012 0 0 0 .022.006c.352-1.074.713-2.131.992-3.227q.415-1.637.791-3.283c.005-.022-.028-.03-.033-.009m-1.764 7.029q-.147.74-.348 1.467c-.064.233-.14.462-.205.695-.062.22-.172.474-.034.685a.08.08 0 0 0 .107.028c.201-.146.197-.39.219-.618.022-.238.034-.477.057-.715q.077-.774.208-1.54ZM82 374.179a24 24 0 0 0-1.296 2.8c-.187.487-.36.979-.504 1.48a3.5 3.5 0 0 0-.276 1.412c.009.052.08.05.104.013a2 2 0 0 0 .222-.655q.092-.38.197-.756c.13-.467.264-.935.414-1.396a22 22 0 0 1 1.176-2.876c.012-.025-.024-.047-.037-.022m-3.77.805-.364 1.072a9 9 0 0 0-.316 1.085c-.006.026.034.048.046.02a9 9 0 0 0 .351-1.06q.158-.554.313-1.109a.016.016 0 0 0-.03-.008m-32.877-32.797a32 32 0 0 0-.594 6.25.02.02 0 0 0 .039 0 57 57 0 0 1 .585-6.242c.003-.02-.027-.028-.03-.008m-3.18-.527c-.29 1.912-.52 3.835-.633 5.765-.002.033.052.041.057.008.299-1.91.483-3.839.607-5.768 0-.017-.028-.022-.03-.004M36.39 222.898a126 126 0 0 1-4.53 13.676c-.41 1.119-.818 2.24-1.213 3.365-.4 1.142-.861 2.263-1.17 3.434-.63 2.384-1.3 4.754-1.87 7.154-.635 2.675-1.24 5.358-1.709 8.068-.006.035.045.05.053.015 1.071-4.773 2.246-9.513 3.787-14.16.757-2.282 1.446-4.584 2.222-6.863.78-2.292 1.574-4.578 2.301-6.888.81-2.572 1.568-5.16 2.148-7.796.003-.012-.016-.017-.019-.005m-6.62 13.338a119 119 0 0 0-3.87 13.389c-.01.044.057.062.068.018 1.148-4.5 2.411-8.978 3.867-13.39.013-.04-.05-.057-.064-.017m47.61-22.73c-2.306 8.845-4.808 17.634-7.328 26.42-.72 2.509-1.477 5.008-2.177 7.523a.06.06 0 0 0 .117.032c3.026-8.607 5.467-17.475 7.626-26.336q.928-3.808 1.785-7.633a.012.012 0 0 0-.023-.006m30.98 31.163c-.025-.028-.066.013-.041.041a55.2 55.2 0 0 1 9.41 15.886c.014.035.07.02.057-.015a47.6 47.6 0 0 0-9.426-15.912m6.185 14.918c-.364-.861-.63-1.742-.943-2.62a12.5 12.5 0 0 0-1.14-2.069 57.3 57.3 0 0 0-5.719-8.095c-.01-.013-.035.005-.024.02a54 54 0 0 1 5.316 8.325 21 21 0 0 0 1.067 2.146 16.6 16.6 0 0 1 1.26 2.15c.706 1.522 1.06 3.175 1.757 4.693.051.111.213.03.19-.08a26.5 26.5 0 0 0-1.764-4.47m-.012 6.52a15 15 0 0 1-.653-1.379c-.393-.91-.807-1.812-1.203-2.722a36 36 0 0 0-2.968-5.256.03.03 0 0 0-.05.03c.982 1.714 1.848 3.51 2.789 5.25.456.843.856 1.714 1.234 2.594a11 11 0 0 1 .58 1.598 1.38 1.38 0 0 0 .453.918.075.075 0 0 0 .11-.045 1.34 1.34 0 0 0-.292-.988m-3.723-1.671c-.01-.02-.044-.006-.036.015a40 40 0 0 0 2.177 4.727c.018.035.08.01.064-.027a40 40 0 0 0-2.205-4.715m112.613 125.761c-.31-.065-.597-.202-.907-.264a3 3 0 0 0-.793-.044c-.297.016-.584.089-.879.12-.312.035-.63.04-.944.055-1.216.058-2.425.171-3.644.2a.016.016 0 0 0 0 .032c1.218.024 2.428.132 3.644.184.28.012.562.018.841.041.33.028.65.11.982.127a3 3 0 0 0 .793-.047c.31-.064.597-.203.907-.269a.07.07 0 0 0 0-.135m-8.712-76.624c-2.712 3.175-5.3 6.449-7.939 9.684-.01.012.007.029.017.017 2.663-3.214 5.373-6.387 7.961-9.662.021-.027-.015-.066-.039-.039m-.176 11.942a97 97 0 0 0-7.921 10.239 34 34 0 0 0-3.253 5.373c-.46 1.082-1.056 2.106-1.603 3.146a20 20 0 0 0-1.39 2.81c-.02.061.068.093.1.043.59-.926.994-2.012 1.499-2.99a22 22 0 0 1 1.655-2.857c1.202-1.653 2.125-3.534 3.228-5.259a96.5 96.5 0 0 1 7.721-10.47c.02-.024-.014-.06-.036-.035m-5.739 27.615a50 50 0 0 0-2.891 6.156c-.006.014.017.02.022.006a69 69 0 0 1 2.886-6.151c.006-.011-.011-.021-.017-.01m-12.63-52.294-2.126-4.23c-.013-.026-.053-.002-.04.025l1.99 4.211a45 45 0 0 0 2.087 4.156c.015.023.057.008.047-.02a45 45 0 0 0-1.958-4.142m.296 10.56a24 24 0 0 0-.688-1.718c-.613-1.36-1.243-2.71-1.793-4.097a35.2 35.2 0 0 0-4.003-7.199.012.012 0 0 0-.02.012c1.356 2.376 2.586 4.836 3.867 7.252a22.5 22.5 0 0 1 1.589 3.942q.297.967.61 1.928c.17.517.244 1.256.664 1.626a.115.115 0 0 0 .19-.05 3.26 3.26 0 0 0-.416-1.696m-2.059 6.633c-.634-1.359-1.247-2.728-1.878-4.089a46.7 46.7 0 0 0-4.246-7.95.04.04 0 0 0-.068.04c1.29 2.63 2.884 5.1 4.147 7.742a43 43 0 0 1 1.75 4.133 16 16 0 0 0 1.562 4.006c.042.057.151.045.146-.04a11.4 11.4 0 0 0-1.413-3.842m-4.946-1.082a10.5 10.5 0 0 0-1.575-2.528.022.022 0 0 0-.036.021 14 14 0 0 0 1.25 2.66c.49.878.983 1.752 1.47 2.632.024.044.101.014.082-.034a39 39 0 0 0-1.191-2.751m4.922 10.336q-.53-1.051-1.1-2.081c-.01-.018-.037-.002-.027.016q.541 1.025 1.023 2.08c.32.7.616 1.415.974 2.097a.022.022 0 0 0 .04-.016 15 15 0 0 0-.91-2.096m-6.096-3.728c-.011-.017-.038-.002-.027.015 2.613 4.183 4.816 8.55 7.099 12.915.022.042.098.012.078-.033a81.4 81.4 0 0 0-7.15-12.897m.953 8.894c-.008-.012-.029 0-.02.012a36 36 0 0 1 3.028 5.26c.006.013.026.001.02-.012a28.4 28.4 0 0 0-3.028-5.26m6.957 12.363c-.244-.404-.475-.815-.707-1.226a26 26 0 0 1-1.273-2.572c-.006-.014-.03-.004-.025.01.345.882.72 1.753 1.14 2.602.215.437.453.862.7 1.283a4.1 4.1 0 0 0 .786 1.136.035.035 0 0 0 .059-.034 5.5 5.5 0 0 0-.68-1.2m-3.098 2.908c-1.387-2.423-2.818-4.821-4.247-7.22a.012.012 0 0 0-.02.013c1.359 2.44 2.692 4.894 4.04 7.339 1.343 2.433 2.576 4.98 4.134 7.284a.05.05 0 0 0 .087-.051 76 76 0 0 0-3.994-7.365m-3.106 2.487a.014.014 0 0 0-.023.013c2.306 3.95 4.428 8.015 6.801 11.924a.033.033 0 0 0 .057-.033 108 108 0 0 0-6.834-11.904m2.458 10.577a.031.031 0 0 0-.054.031c1.119 1.976 2.23 3.954 3.423 5.887a.023.023 0 0 0 .04-.024c-1.086-1.994-2.25-3.942-3.41-5.894m2.882 8.84a.006.006 0 0 0-.01.006c.471.893.947 1.781 1.44 2.662.008.013.028.001.02-.012-.47-.893-.957-1.775-1.45-2.656m-.613 52.208c-.01-.026-.05-.015-.041.011a178 178 0 0 0 1.85 5.13c.007.021.04.013.033-.009q-.88-2.582-1.842-5.132m-3.051 2.54c-.014-.032-.07-.01-.057.024 1.499 3.944 2.868 7.96 4.71 11.762.029.058.124.017.104-.043-1.307-4.019-3.104-7.862-4.757-11.743m1.864 15.119c-.164-.394-.363-.777-.545-1.163q-.569-1.201-1.155-2.394c-.765-1.563-1.552-3.115-2.316-4.678-.016-.035-.065-.005-.05.03.687 1.575 1.35 3.16 2.034 4.736q.513 1.181 1.04 2.356c.175.39.345.785.531 1.17.19.392.459.715.68 1.085.033.056.129.02.107-.045-.124-.363-.179-.74-.327-1.097m2.051 4.313a19 19 0 0 0-.884-1.544.045.045 0 0 0-.078.045 14 14 0 0 1 .72 1.632 5.4 5.4 0 0 0 .668 1.537c.036.044.1.004.104-.043a3.4 3.4 0 0 0-.53-1.627m-7.386-4.74c-.011-.023-.044-.003-.034.02a136 136 0 0 0 6.036 13.067c.025.045.104.015.086-.036a137 137 0 0 0-6.088-13.05m-.884 7.782c-.012-.025-.049-.003-.038.022 1.916 4.29 3.595 8.666 5.382 13.008.012.03.06.019.05-.013a119 119 0 0 0-5.394-13.017m.665 10.582c-.007-.014-.027-.002-.02.012 1.623 3.245 2.991 6.594 4.304 9.974.008.02.04.012.033-.01a68 68 0 0 0-4.317-9.976m.625 8.813a.016.016 0 0 0-.027.016 47 47 0 0 1 2.623 6.149.031.031 0 0 0 .06-.017 24.6 24.6 0 0 0-2.656-6.148m-.874 15.822c-.012-.022-.045-.002-.034.02a113 113 0 0 0 2.16 4.346c.015.027.053.003.04-.024a113 113 0 0 0-2.166-4.342m-1.338 3.093c-.012-.026-.057-.008-.047.02 1.263 3.216 2.532 6.434 3.98 9.573.017.035.08.01.065-.028-1.21-3.237-2.602-6.405-3.998-9.565m-.624 6.383c-.011-.027-.056-.016-.045.013 1.081 2.962 2.152 5.936 3.407 8.83.01.024.051.007.043-.018-1.013-2.985-2.218-5.906-3.405-8.825m-.957 5.771c-.004-.009-.018 0-.013.008 1.305 2.733 2.511 5.511 3.717 8.29.01.024.052.006.043-.018a82 82 0 0 0-3.747-8.28m.423 6.619a.01.01 0 0 0-.017.01 44 44 0 0 1 2.737 6.103c.009.025.05.015.041-.012a28.3 28.3 0 0 0-2.76-6.1m-12.127 35.701a12.5 12.5 0 0 0-1.995.514 8 8 0 0 1-1.327.22c-.332.02-.66-.003-.99.04-1.542.197-3.064.586-4.62.633a.008.008 0 0 0 0 .016 30 30 0 0 0 4.577-.162c.75-.119 1.473-.45 2.217-.622a8 8 0 0 0 2.152-.588.028.028 0 0 0-.014-.051m49.931-299.233q-.145 2.679-.388 5.35c-.17 1.84-.46 3.643-.745 5.465a25 25 0 0 0 .005 2.535c-.05.963-.192 1.921-.326 2.876-.236 1.68-.733 3.371-.806 5.065-.003.055.076.061.092.012a32.5 32.5 0 0 0 .891-5.279c.133-.88.241-1.765.414-2.639a18 18 0 0 0 .587-2.576c.166-3.596.3-7.208.307-10.81a.016.016 0 0 0-.031 0m-4.515 6.284c.007-.06-.099-.076-.108-.015a125 125 0 0 1-.53 3.323 12 12 0 0 1-.265 1.392 4.5 4.5 0 0 0-.338 1.435c.016.5.09.979.063 1.484a16 16 0 0 1-.2 1.733 13 13 0 0 1-.352 1.607 2.43 2.43 0 0 0-.233 1.215.115.115 0 0 0 .207.027 2.3 2.3 0 0 0 .235-1.214c.053-.62.16-1.231.266-1.845q.12-.695.283-1.38c.127-.529.347-1.007.497-1.523a3.5 3.5 0 0 0 .062-1.292 10 10 0 0 1 .081-1.597c.1-1.119.202-2.235.332-3.35m-4.518 3.07c-.13 1.086-.33 2.156-.505 3.234a13 13 0 0 0-.347 3.066c.004.058.094.1.124.033a9.8 9.8 0 0 0 .58-3.05c.107-1.09.138-2.19.195-3.283.001-.03-.044-.029-.047 0m-3.423-1.035c-.099.6-.244 1.193-.349 1.794a8 8 0 0 0-.122 1.798.055.055 0 0 0 .108.015 8 8 0 0 0 .334-1.77c.05-.608.058-1.219.113-1.826.005-.048-.076-.06-.084-.011m-20.484-102.201a59 59 0 0 0-3.864-3.38c-.027-.022-.065.016-.038.039a77 77 0 0 1 3.736 3.412c1.213 1.174 2.322 2.452 3.538 3.62.03.03.09-.01.061-.047a33 33 0 0 0-3.433-3.644m4.648-.82a77.3 77.3 0 0 0-10.278-8.79c-.021-.015-.048.02-.028.037 3.393 2.958 6.682 6.05 10.206 8.852.07.056.163-.031.1-.099m-3.734-8.526a20.7 20.7 0 0 0-2.619-2.212 43 43 0 0 0-2.897-1.973c-.043-.027-.08.04-.04.067a63 63 0 0 1 2.793 2.051c.911.701 1.777 1.463 2.71 2.135.041.029.085-.034.053-.068m-3.979-7.415c-.064-.028-.12.064-.056.095a9.2 9.2 0 0 1 2.583 1.97c.027.028.079-.01.055-.042a6.5 6.5 0 0 0-2.583-2.023m5.375-7.241c-.36-.34-.732-.671-1.1-1.005a110 110 0 0 0-2.306-2.028c-1.532-1.314-3.068-2.624-4.575-3.967-.041-.037-.102.023-.061.06 1.494 1.395 2.955 2.823 4.423 4.245.713.69 1.433 1.375 2.164 2.045.388.355.77.718 1.168 1.06a3.7 3.7 0 0 0 1.055.75c.091.034.149-.076.115-.149a3.8 3.8 0 0 0-.883-1.01m-1.332-7.357a129 129 0 0 1-1.177-.958 121 121 0 0 1-6.816-6.032.012.012 0 0 0-.016.017 88 88 0 0 0 4.373 4.2q1.1.98 2.23 1.927.582.485 1.174.959a5.7 5.7 0 0 0 1.179.853c.042.019.112-.026.074-.075a5.8 5.8 0 0 0-1.021-.891m-1.86-8.455c-.388-.357-.781-.708-1.171-1.062q-1.206-1.093-2.426-2.17c-1.6-1.42-3.22-2.82-4.82-4.24-.019-.017-.046.01-.028.027 1.58 1.485 3.139 2.99 4.718 4.474q1.15 1.083 2.31 2.154c.41.378.817.76 1.232 1.133a4 4 0 0 0 1.068.822c.065.027.11-.057.083-.109a4.1 4.1 0 0 0-.966-1.03m1.823-6.452a8 8 0 0 0-1.153-1.017q-.632-.516-1.26-1.04-1.22-1.016-2.424-2.05-2.412-2.065-4.739-4.228c-.026-.024-.064.014-.038.039q2.29 2.259 4.67 4.425 1.172 1.066 2.376 2.098.584.502 1.172.999a7.4 7.4 0 0 0 1.254.958.118.118 0 0 0 .142-.184m-4.03-11.32a58 58 0 0 0-2.013-1.817c-.687-.59-1.385-1.169-2.08-1.75-.02-.016-.046.01-.028.028.665.612 1.327 1.227 2 1.83.676.607 1.363 1.19 2.066 1.764.038.032.093-.02.055-.055m4.635 4.04a4 4 0 0 0-.481-.389l-.52-.386-1.041-.773c-.045-.033-.087.042-.044.075l1.019.77.5.38a4 4 0 0 0 .53.371.031.031 0 0 0 .038-.049m-3.336-10.915q-.266-.289-.543-.566a16 16 0 0 0-1.203-1.073 18 18 0 0 0-2.6-1.722.023.023 0 0 0-.023.04 22 22 0 0 1 2.52 1.901c.386.333.756.683 1.121 1.038q.267.259.524.528a2.7 2.7 0 0 0 .557.514c.055.033.101-.03.08-.08a2.1 2.1 0 0 0-.433-.58m-1.793-12.568a.016.016 0 0 0 0 .032h.51a.016.016 0 0 0 0-.032ZM56.635 118.523c-.006-.024-.042-.014-.037.01.528 2.946.903 5.928 1.522 8.857a.063.063 0 0 0 .123-.017 44.8 44.8 0 0 0-1.608-8.85m3.393.939q-.548-3.373-1.15-6.735c-.01-.055-.09-.03-.083.023q.463 3.332.978 6.654a55 55 0 0 0 1.127 6.613.047.047 0 0 0 .092-.012 54 54 0 0 0-.964-6.543m1.213-8.124c-.005-.024-.042-.014-.037.01.7 3.763 1.311 7.586 2.28 11.29.011.04.067.023.06-.016-.595-3.785-1.52-7.534-2.303-11.284m2.067-2.355c-.016-.052-.099-.03-.083.023.47 1.528.939 3.055 1.434 4.574a.027.027 0 0 0 .053-.014c-.45-1.533-.927-3.057-1.404-4.583M21.012 332.458l-1.867-.715a94 94 0 0 1 1.515-3.751l1.832.803a95 95 0 0 0-1.48 3.663M50.008 465.4a73 73 0 0 1-6.76-4.006l1.107-1.666a71 71 0 0 0 6.574 3.896Zm-13.084-8.642a82 82 0 0 1-5.866-5.21l1.4-1.427a80 80 0 0 0 5.722 5.08Zm-11.17-11.011a76 76 0 0 1-4.615-6.35l1.674-1.094a73 73 0 0 0 4.493 6.182Zm-8.614-13.081c-1.344-2.469-2.494-4.78-3.557-6.934l1.793-.884c1.054 2.135 2.194 4.425 3.521 6.86Zm-7.078-13.759a10.4 10.4 0 0 0-2.617-3.295 8.6 8.6 0 0 1-2.669-1.807l1.405-1.424a6.6 6.6 0 0 0 2.116 1.42l.158.082a11.5 11.5 0 0 1 3.331 4.01ZM1.05 406.51A39.4 39.4 0 0 1 0 398.635l1.998-.086a37.4 37.4 0 0 0 .992 7.47Zm1.092-15.592-1.994-.147a77 77 0 0 1 .964-7.792l1.97.352a75 75 0 0 0-.94 7.587m2.912-14.922-1.893-.647c.734-2.149 1.668-4.607 2.777-7.305l1.85.76c-1.094 2.66-2.014 5.08-2.734 7.192m5.795-14.286-1.826-.819a592 592 0 0 1 3.081-6.734l.153-.331 1.816.84-.154.332a577 577 0 0 0-3.07 6.712m5.535-14.602-1.943-.472a113 113 0 0 1 2.121-7.525l1.906.606a111 111 0 0 0-2.084 7.391m46.07 125.03a127 127 0 0 1-1.546-3.029 15.2 15.2 0 0 1-3.587-.656l.558-1.92a11.7 11.7 0 0 0 3.607.576l.665-.031.286.602c.006.013.652 1.37 1.786 3.526Zm28.988 33.854a23.8 23.8 0 0 1-6.711-3.833l1.23-1.576a21.9 21.9 0 0 0 6.137 3.52Zm-12.257-9.02a79 79 0 0 1-4.818-5.793l1.594-1.21a77 77 0 0 0 4.694 5.646Zm-9.141-11.931a145 145 0 0 1-3.953-6.365l1.724-1.012a144 144 0 0 0 3.899 6.277Zm33.522 23.458a40 40 0 0 1-1.248-2.942l-3.011.727-.47-1.945 4.79-1.154.284.883a34 34 0 0 0 1.464 3.58Zm20.582 15.301-.025-2a95 95 0 0 0 8.635-.507l.209 1.988c-2.915.306-5.882.48-8.819.519m-8.94-1.793a22.2 22.2 0 0 1-6.937-5.877l1.554-1.26a20.3 20.3 0 0 0 6.303 5.361Zm29.347 2.029-.102-2.733c-.662.169-1.58.387-2.727.627l-.409-1.957c2.408-.503 3.784-.92 3.797-.923l1.242-.38.197 5.294Zm19.689 144.934a26.5 26.5 0 0 1-4.863-.473q-.933-.173-1.803-.4l.506-1.936q.801.21 1.664.37a23.5 23.5 0 0 0 5.817.398l.13 1.996q-.713.045-1.45.046m9.365-2.279-.949-1.76a19.4 19.4 0 0 0 5.692-4.785l1.54 1.276a21.4 21.4 0 0 1-6.283 5.27m-23.43-2.205a17.3 17.3 0 0 1-4.944-6.625l1.834-.799a15.3 15.3 0 0 0 4.37 5.871Zm34.01-9.933-1.803-.866a53 53 0 0 0 2.774-7.214l1.91.59a55 55 0 0 1-2.882 7.49m-40.926-4.596a45 45 0 0 1-.25-4.9c0-.999.027-2.05.08-3.127l1.999.1a60 60 0 0 0-.08 3.027 43 43 0 0 0 .239 4.683Zm45.775-10.622-1.957-.41c.57-2.715 1.006-5.313 1.394-7.715l1.974.318c-.391 2.427-.833 5.052-1.41 7.807m-43.197-5.067-1.983-.261c.325-2.453.7-4.827 1.062-7.122l.11-.694 1.975.313-.11.692c-.36 2.283-.733 4.645-1.054 7.072m45.776-10.557-1.98-.281c.34-2.4.702-5.018 1.077-7.802l1.982.267c-.377 2.788-.738 5.412-1.079 7.816m-43.543-5.09-1.994-.16c.148-1.831.253-4.457.31-7.808l2 .035c-.059 3.392-.165 6.06-.316 7.933m45.661-10.542-1.982-.26c.333-2.534.674-5.15 1.02-7.814l1.983.258-1.02 7.816m-47.285-5.285a870 870 0 0 0-.044-7.874l2-.02c.028 2.768.042 5.413.044 7.892Zm49.319-10.346-1.985-.256 1.013-7.818 1.983.258Zm-49.465-5.404c-.04-2.574-.088-5.21-.142-7.876l2-.041c.054 2.67.102 5.31.142 7.886Zm51.493-10.228-1.983-.26c.348-2.654.693-5.269 1.032-7.816l1.982.264c-.339 2.545-.683 5.16-1.031 7.812m-51.809-5.527a2771 2771 0 0 0-.196-7.877l2-.053c.068 2.61.135 5.247.196 7.883Zm53.883-10.097-1.982-.26q.52-3.987.985-7.805l1.986.242q-.465 3.825-.989 7.823m-54.296-5.656a3563 3563 0 0 0-.233-7.878l2-.06c.078 2.539.156 5.177.233 7.881Zm56.196-10.004-1.989-.219q.446-4.028.812-7.822l1.99.191q-.366 3.808-.813 7.85m-56.677-5.753c-.093-2.861-.182-5.51-.263-7.877l1.998-.068c.081 2.368.17 5.017.263 7.88Zm58.181-9.96-1.994-.156c.214-2.735.39-5.371.52-7.835l1.999.107c-.133 2.48-.31 5.132-.525 7.884m.81-15.749-2-.035q.037-2.06.021-3.972l-.007-1.073 1.07.067a32 32 0 0 0 3.857-.08l.15 1.994c-1.29.096-2.344.108-3.066.112q.002 1.453-.025 2.987m10.914-4.472-.55-1.922a27 27 0 0 0 6.836-2.963l1.055 1.699a29 29 0 0 1-7.341 3.185m13.326-8.602-1.598-1.201a19.8 19.8 0 0 0 3.208-6.591l1.926.54a21.8 21.8 0 0 1-3.536 7.252m4.83-15.036-1.982-.26c.306-2.331.641-4.917.996-7.695l1.984.254c-.354 2.78-.691 5.368-.998 7.7m1.965-15.404-1.984-.246c.307-2.485.62-5.062.935-7.698l1.987.238c-.316 2.638-.63 5.217-.938 7.706m1.84-15.416-1.986-.228c.293-2.555.583-5.133.865-7.708l1.988.219c-.282 2.577-.572 5.159-.867 7.717m1.69-15.438-1.99-.205c.269-2.614.526-5.194.763-7.711l1.99.187a896 896 0 0 1-.764 7.729m1.454-15.467-1.994-.166c.234-2.805.426-5.402.574-7.719l1.996.127c-.149 2.33-.342 4.94-.576 7.758m.954-15.547-2-.056c.029-1.04.044-2.014.044-2.913a39 39 0 0 0-.218-4.677l1.984-.254a41 41 0 0 1 .234 4.93q0 1.378-.044 2.97m-3.853-15.06a132 132 0 0 0-2.298-7.34l1.89-.65c.905 2.632 1.69 5.14 2.334 7.453Zm-4.926-14.496c-.884-2.26-1.486-3.667-1.489-3.675l1.838-.787s.613 1.431 1.515 3.733Zm60.849-128.073h15.426l-20.426-33.916-20.425 33.916h15.425v113.826h-15.425l20.425 33.916 20.426-33.916h-15.426z"/></svg>