<svg xmlns="http://www.w3.org/2000/svg" data-name="Layer 9" viewBox="0 0 175.229 224.559"><path fill="currentColor" d="M115.272 86.698a9.1 9.1 0 0 0-2.902-3.987 20.5 20.5 0 0 0-5.194-2.512c-1.127-.417-2.218-.918-3.337-1.354-1.152-.45-2.322-.853-3.479-1.29-.057-.021-.095.07-.041.099 1.816.942 3.622 1.88 5.466 2.764.924.443 1.806.974 2.735 1.408a19 19 0 0 1 2.419 1.271c3.007 1.968 3.746 5.576 4.474 8.849a25.2 25.2 0 0 0 1.911 5.959.083.083 0 0 0 .15-.064c-1.282-3.603-.755-7.572-2.202-11.143"/><path fill="currentColor" d="M175.19 179.663a23.1 23.1 0 0 1-5.793-4.784c-1.705-1.923-3.192-4.027-4.899-5.95a21.9 21.9 0 0 0-5.642-4.82 19 19 0 0 0-4.098-1.523 12 12 0 0 1-4.368-2.15c-2.527-2.016-4.436-4.787-6.354-7.357-2.097-2.808-4.134-5.672-5.975-8.655a73.5 73.5 0 0 1-4.9-9.269 98 98 0 0 1-3.67-10.335c-1.202-3.91-2.266-7.884-3.723-11.71-.43-1.131-.89-2.25-1.357-3.367-1.4-3.85-1.915-8.008-2.743-12.004a45 45 0 0 0-1.627-6.102 54 54 0 0 0-2.879-6.202c-.12-.233-.225-.472-.33-.71-.118-1.153-.238-2.305-.44-3.448-.303-1.723-.642-3.441-.945-5.165q-.94-5.348-1.722-10.723c-.51-3.498-.855-7.027-1.424-10.515-.547-3.346-2.012-6.407-2.763-9.702a70 70 0 0 1-1.344-10.114c-.132-1.69-.25-3.381-.398-5.07a10.3 10.3 0 0 0-1.084-4.493 4.17 4.17 0 0 0-2.906-2.082 4.86 4.86 0 0 0-3.82 1.481 14.97 14.97 0 0 0-4.19 7.69 32.5 32.5 0 0 0-.202 11.372c.233 1.918.538 3.83.88 5.732.135.75.27 1.504.413 2.257a139 139 0 0 1-2.445-5.654 66 66 0 0 0-3.365-7.705 38.6 38.6 0 0 0-4.687-6.372c-1.731-1.991-3.529-3.924-5.163-5.997a80 80 0 0 1-4.71-6.748c-2.922-4.615-5.632-9.36-8.552-13.976-.71-1.12-1.416-2.254-2.196-3.328A5.1 5.1 0 0 0 63.406.147c-2.13-.705-4.308 1.27-5.488 2.83-2.858 3.78-2.502 8.982-.967 13.202a55 55 0 0 0 3.612 7.453l4.394 8.042 4.393 8.043a64 64 0 0 1 4.147 8.012c.49 1.308.852 2.66 1.294 3.983a81 81 0 0 0 1.525 4.134c1.082 2.728 2.204 5.44 3.303 8.16.35.868.716 1.727 1.087 2.585a166 166 0 0 1-10.17-7.221q-3.262-2.515-6.391-5.198c-1.965-1.684-3.854-3.637-6.291-4.628a20 20 0 0 0-3.919-.99 31 31 0 0 1-3.942-.965 51 51 0 0 1-7.8-3.456 220 220 0 0 1-14.104-8.015 73 73 0 0 1-6.78-4.655q-1.594-1.258-3.114-2.605a39 39 0 0 1-1.412-1.31 8.5 8.5 0 0 0-1.4-1.25c-2.292-1.414-4.246 1.569-4.994 3.342a13.26 13.26 0 0 0-.758 7.172 19.1 19.1 0 0 0 2.805 7.088 30.5 30.5 0 0 0 4.797 5.98 12.6 12.6 0 0 0 2.988 2.159 29 29 0 0 1 3.624 1.589 31 31 0 0 1 3.15 2.763q1.595 1.431 3.243 2.8 3.268 2.714 6.729 5.186a38 38 0 0 0 6.794 4.156 12 12 0 0 0 1.166.43c.126.067.248.13.355.194.532.315 1.105.561 1.657.84.53.268 1.044.565 1.549.878.5.309.948.705 1.447 1.007a.06.06 0 0 0 .077-.017c.42.325.85.64 1.257.976 1.905 1.576 3.704 3.275 5.572 4.894a42.3 42.3 0 0 0 5.713 4.263c1.896 1.15 3.886 2.143 5.748 3.351a21 21 0 0 1 2.845 2.207 17 17 0 0 1 1.287 1.32c.117.135.237.278.355.42-3.999-1.438-8.002-2.827-12.073-4.058a145 145 0 0 0-7.625-2.089c-1.957-.476-3.94-.96-5.939-1.272-.629-.334-1.255-.673-1.89-.997a4.97 4.97 0 0 0-2.846-.635c-2.17.24-3.919 1.78-5.572 3.07-1.983 1.548-3.978 3.082-5.97 4.62q-5.847 4.517-11.666 9.074a9.9 9.9 0 0 0-2.185 2.196 18 18 0 0 0-1.43 2.97 33.4 33.4 0 0 1-3.162 5.651c-.688.993-1.443 1.927-2.218 2.851a25 25 0 0 0-2.154 2.611 4 4 0 0 0-.403 3.923 6.7 6.7 0 0 0-2.694-.388c-1.957.157-4.052 1.617-4.165 3.675a2.1 2.1 0 0 0-.465.523 2.9 2.9 0 0 0-.233 2.128 13.3 13.3 0 0 0 .964 2.46q.582 1.273 1.227 2.516c.447.86.906 1.722 1.417 2.546a24 24 0 0 0 1.42 1.9c.015.23.026.46.045.69.192 2.307.446 4.61.54 6.923.091 2.213-.038 4.41-.098 6.622a14.7 14.7 0 0 0 .455 4.65 7.1 7.1 0 0 0 2.36 5.429c1.7 1.464 3.85 2.359 5.77 3.49a87 87 0 0 1 6.05 3.935c3.96 2.8 7.72 5.864 11.468 8.939 3.698 3.034 7.354 6.206 11.287 8.938a7.85 7.85 0 0 0 3.554 1.495 17 17 0 0 0 4.282-.317q.585-.08 1.168-.162a30 30 0 0 0 3.242.65 41 41 0 0 0 5.168.498 23.3 23.3 0 0 1 5.27.549 28 28 0 0 1 4.806 1.88c3.198 1.51 6.423 2.99 9.73 4.244a36.5 36.5 0 0 0 10.406 2.01c1.686.125 3.373.188 5.06.227.919.252 1.819.569 2.722.87q2.624.875 5.183 1.924c1.73.712 3.44 1.467 5.144 2.239 1.662.752 3.377 1.449 4.959 2.362a25 25 0 0 1 4.218 3.322c1.489 1.352 2.973 2.71 4.468 4.054q4.397 3.956 8.804 7.9 2.426 2.178 4.862 4.343c1.695 1.508 3.505 2.859 5.287 4.259.104.08.245-.048.149-.149-1.386-1.455-2.724-2.955-4.187-4.336-1.461-1.38-2.947-2.736-4.427-4.095q-4.442-4.081-8.882-8.164c-1.48-1.362-2.972-2.71-4.46-4.063a40 40 0 0 0-4.266-3.592 30.3 30.3 0 0 0-4.86-2.465 173 173 0 0 0-5.133-2.204 61 61 0 0 0-5.945-2.113l-.154-.04q1.887.01 3.774.012c.133 0 .172-.22.033-.24-3.613-.515-7.21-1.016-10.846-1.362-3.556-.34-7.056-.524-10.464-1.7-3.365-1.161-6.647-2.662-9.895-4.113a44 44 0 0 0-4.695-1.895 17 17 0 0 0-5.045-.745c-2-.018-3.992.007-5.988-.167a28 28 0 0 1-1.772-.224c1.876-.274 3.747-.573 5.608-.952a.103.103 0 0 0-.027-.2c-2.627.05-5.232.25-7.851.463-.554.045-1.129.116-1.712.183-.045-.003-.09-.01-.135-.012-.02 0-.025.02-.038.03a9.1 9.1 0 0 1-5.3-.513 21 21 0 0 1-2.781-1.92q-1.423-1.081-2.822-2.193a405 405 0 0 1-5.394-4.367c-3.557-2.917-7.11-5.844-10.807-8.583a103 103 0 0 0-11.531-7.342 11.2 11.2 0 0 1-2.902-2.085c-.127-.138-.235-.288-.348-.435.355-1.746.165-3.563.788-5.269a22.4 22.4 0 0 1 3.176-5.137c.009-.012-.011-.028-.02-.016q-1.028 1.29-2.046 2.587a10.5 10.5 0 0 0-1.507 2.36 10.2 10.2 0 0 0-.777 4.907 7.4 7.4 0 0 1-.827-1.975 9.8 9.8 0 0 1-.128-3.45c.13-1.269.264-2.522.488-3.778a.051.051 0 0 0-.098-.028 35 35 0 0 0-.686 2.26c.036-2.526.185-5.055.066-7.582a76 76 0 0 0-.626-6.688c-.307-2.242-.792-4.449-1.156-6.683-.003-.022-.04-.017-.039.006.11 1.883.141 3.767.254 5.649-.177-.389-.347-.78-.537-1.164-.314-.637-.669-1.254-1-1.882q-1.018-1.937-1.88-3.95c-.377-.878-1.083-2.203-.828-3.248.052-.1.103-.202.162-.3.043-.07.093-.135.14-.202.043-.036.08-.079.12-.116.027-.024.049-.039.07-.056a.2.2 0 0 0 .056-.043 2 2 0 0 1 .133-.083 1 1 0 0 1 .134-.065l.085-.03.043-.017a1.5 1.5 0 0 1 .365.38q.302.403.599.809a9.8 9.8 0 0 1 .994 1.715c.017.038.068.01.062-.026a8.3 8.3 0 0 0-.756-2.328c-.246-.472-.7-1.332-1.3-1.383a1 1 0 0 0-.233.029c.396-1.651 2.312-2.604 3.968-2.48 2.43.181 4.59 1.739 6.592 2.994a206 206 0 0 1 6.178 4.037 20.4 20.4 0 0 1 5.174 4.606 18 18 0 0 1 1.811 3.039c.435.923.68 1.941 1.139 2.852l-.016-.002a2.65 2.65 0 0 0-1.204-.779 5.6 5.6 0 0 0-2.198-.363 7.6 7.6 0 0 0-2.45.42 10.3 10.3 0 0 0-2.304 1.258c-.016.01-.002.036.015.026a8.77 8.77 0 0 1 4.616-1.17 6.1 6.1 0 0 1 1.987.353 3 3 0 0 1 .298.143 8 8 0 0 0-1.304.09 5 5 0 0 0-2.427 1.263c-.03.027.01.082.045.058a4.46 4.46 0 0 1 2.553-.732 6.1 6.1 0 0 1 2.596.547 21.7 21.7 0 0 1 4.826 3.09 82 82 0 0 0 10.368 6.537 32.4 32.4 0 0 1 4.237 2.728 12.6 12.6 0 0 0-.752 1.997 22 22 0 0 0-.894 5.173.026.026 0 0 0 .05.007 37 37 0 0 1 1.245-4.236 6.2 6.2 0 0 1 2.086-3.386 7 7 0 0 1 1.76-.751c.701-.23 1.403-.456 2.103-.691a3.99 3.99 0 0 1 3.35.005 9 9 0 0 0-.013 2.01c.01.09.152.129.172.023a19.7 19.7 0 0 1 1.433-3.947 30 30 0 0 1 1.83-3.774c1.393-2.26 3.944-3.42 6.236-4.55a38 38 0 0 0 7.154-4.386c1.957-1.574 4.277-3.198 5.16-5.65 1.026-2.855.677-6.07.351-9.008-.007-.067-.108-.07-.107 0 .021 1.458-.132 2.913-.246 4.365a19 19 0 0 1-.288 2.236c-.09-.42-.215-.836-.291-1.227-.175-.897-.32-1.799-.476-2.699-.155-.897-.313-1.796-.54-2.678a16.4 16.4 0 0 0-.943-2.47c-.005-.012-.024-.004-.02.009a26 26 0 0 1 .597 2.757 60 60 0 0 1 .456 2.604c.136.873.261 1.748.41 2.62.066.387.115.826.21 1.247-.052-.088-.099-.179-.158-.264a8.5 8.5 0 0 0-2.106-1.979 9.2 9.2 0 0 1-2.01-2.214 17 17 0 0 0-2.047-2.387 18.8 18.8 0 0 0-4.826-3.774 10 10 0 0 1-2.791-1.367c-.324-.294-.605-.633-.912-.942a12.2 12.2 0 0 0 2.83-1.3.088.088 0 0 0-.067-.16 17.5 17.5 0 0 1-3.036.502 26 26 0 0 1-3.094.234 22.8 22.8 0 0 1-6.262-1.007 43 43 0 0 1-5.832-2.168 6.9 6.9 0 0 1-3.955-3.712 16.4 16.4 0 0 1-.563-6.044c.002-.029-.046-.036-.05-.007a16 16 0 0 0-.242 5.545 7.7 7.7 0 0 0 .683 1.971.3.3 0 0 0-.055.002 2.26 2.26 0 0 0-.881.593 5 5 0 0 1-.949.625 19 19 0 0 1-2.306.93 28 28 0 0 0-4.847 2.25c-1.572.933-3.176 1.653-5.025 1.075a12.7 12.7 0 0 1-4.723-3.285c-.034-.034-.082.017-.052.052a24 24 0 0 0 2.133 2.44 7.7 7.7 0 0 0 2.261 1.404 5.5 5.5 0 0 0 1.71.38 1.57 1.57 0 0 0-.4.712 6.4 6.4 0 0 1-.657 1.265 11.7 11.7 0 0 1-1.718 1.94 18.3 18.3 0 0 1-4.216 2.98 17 17 0 0 1-4.84 1.647 14 14 0 0 1-2.476.226c-.376-.003-.75-.03-1.123-.055-.46-.283-.915-.574-1.377-.853-.984-.593-2.04-1.262-3.147-1.791-.01-.01-.006-.022-.018-.031a2.31 2.31 0 0 1-.784-2.238 3 3 0 0 1 .3-.907.43.43 0 0 0 .213.374c.333.177.903-.153 1.182-.337a9 9 0 0 0 .96-.764 9 9 0 0 0 1.58-1.933 6.2 6.2 0 0 0 .997-2.462.02.02 0 0 0-.04-.01 11 11 0 0 1-1.133 1.943 13.5 13.5 0 0 1-1.266 1.63 6 6 0 0 1-.729.654 5.4 5.4 0 0 1-.913.484c-.022.01-.15.058-.264.103l.002-.019q.015-.146.039-.29c.026-.155.073-.316.115-.477q.164-.196.334-.381c.665-.715 1.385-1.373 2.02-2.116q.967-1.132 1.835-2.346a32 32 0 0 0 3.036-5.244c.432-.94.781-1.922 1.267-2.837a7.3 7.3 0 0 1 1.854-2.207c1.768-1.474 3.633-2.843 5.45-4.258l5.505-4.288q2.745-2.15 5.486-4.307c1.664-1.306 3.363-2.94 5.35-3.736a3.79 3.79 0 0 1 3.263.112c1.05.525 2.082 1.05 3.173 1.49a31 31 0 0 0 6.944 1.838.105.105 0 0 0 .056-.202 40 40 0 0 1-4.715-1.719c.642.171 1.283.343 1.92.526 2.236.64 4.476 1.267 6.703 1.94 4.422 1.337 8.77 2.884 13.1 4.489a83 83 0 0 0 12.729 3.942 35 35 0 0 0 6.571.687 15.05 15.05 0 0 1 6.166.827c3.655 1.611 6.103 5.33 8.236 8.54a.102.102 0 0 0 .176-.103c-1.583-3.207-3.34-6.511-6.333-8.624a10.24 10.24 0 0 0-5.235-1.813c-2.264-.172-4.523-.018-6.787-.299a40 40 0 0 1-5.024-.986c-.037-.073-.07-.134-.076-.148-.155-.322-.282-.658-.417-.988q-.376-.926-.75-1.854c-.475-1.176-.92-2.371-1.48-3.51-.022-.045-.094-.014-.08.033.508 1.593 1.196 3.134 1.817 4.685l.46 1.152c.066.169.122.36.187.547q-.935-.248-1.862-.526l-.01-.021-.201-.476-.372-.89-.744-1.782c-.483-1.15-.965-2.295-1.503-3.42-.006-.014-.029-.005-.024.01.462 1.344.993 2.66 1.521 3.98l.769 1.916q.115.287.223.578-1.086-.332-2.164-.692-.059-.111-.107-.21-.166-.353-.329-.708c-.227-.493-.46-.982-.662-1.487-.007-.017-.035-.01-.03.008.15.515.298 1.035.489 1.536q.139.367.297.726l.01.023q-.887-.301-1.768-.613a1.2 1.2 0 0 0-.155-.41c-.133-.27-.263-.55-.422-.807a9 9 0 0 1-.566-.874c-.128-.276-.252-.554-.381-.83q-.855-1.83-1.633-3.693c-.006-.013-.028-.008-.022.006q.73 1.82 1.523 3.614c.14.318.294.63.435.949.14.314.192.647.306.97a9 9 0 0 0 .392.88l.004.01-.945-.34-.087-.03a5.9 5.9 0 0 0-1.28-2.419 12.5 12.5 0 0 0-2.352-2.194 52 52 0 0 0-5.9-3.551 40 40 0 0 1-6.075-4.142c-1.958-1.619-3.818-3.351-5.77-4.977a44 44 0 0 0-2.887-2.223c-.16-.135-.317-.272-.482-.4-.406-.312-1.011-.613-1.121-1.162a.26.26 0 0 0-.248-.188c-.38-.008-.763.015-1.145.017a9 9 0 0 0-.678-.326c-.623-.258-1.254-.491-1.87-.77a26.6 26.6 0 0 1-3.378-1.876c-2.276-1.46-4.468-3.064-6.609-4.715q-3.273-2.525-6.356-5.286c-.981-.877-1.914-1.828-2.97-2.616a16.7 16.7 0 0 0-3.616-1.654 15.5 15.5 0 0 1-5.544-4.806 25.4 25.4 0 0 1-3.94-6.411 14.2 14.2 0 0 1-1.006-7.277 10.6 10.6 0 0 1 1.053-3.353c.514-.986 1.41-2.508 2.718-2.384a1.6 1.6 0 0 1 .547.17 2.6 2.6 0 0 1 .105.549 5.8 5.8 0 0 1-.257 1.839c-.158.607-.36 1.2-.55 1.797a1.2 1.2 0 0 0 .114 1.155 17.5 17.5 0 0 0 2.014 2.522 4.65 4.65 0 0 0 2.434 1.687.02.02 0 0 0 .01-.04 5.85 5.85 0 0 1-2.71-2.222 12 12 0 0 1-.837-1.35c-.29-.516-.686-1.102-.447-1.69a9.6 9.6 0 0 0 .807-3.157 4 4 0 0 0-.042-.652q.177.156.346.314.747.69 1.502 1.372 1.469 1.322 3.014 2.556c.42.336.85.66 1.275.99l.003.027a5 5 0 0 1 .022.596 3.8 3.8 0 0 1-.225 1.233 7 7 0 0 1-.485.919 2.2 2.2 0 0 1-.789.798c-.012.007-.004.03.01.024a3.5 3.5 0 0 0 .976-.554 2.4 2.4 0 0 0 .688-.98 4.1 4.1 0 0 0 .292-1.328c.008-.12-.006-.239-.009-.358a100 100 0 0 0 4.408 3.252 136 136 0 0 0 13.611 7.965c2.367 1.255 4.734 2.524 7.21 3.555a31 31 0 0 0 3.883 1.346c1.289.345 2.607.534 3.91.819a13 13 0 0 1 1.957.581 1.5 1.5 0 0 0-.181.174 2.1 2.1 0 0 0-.391.646 2.5 2.5 0 0 0-.149.68.038.038 0 0 0 .07.019c.065-.102.123-.205.194-.303a2 2 0 0 1 .241-.26 3.3 3.3 0 0 1 .521-.417c.024-.016.112-.083.063-.047l.07-.052.12-.088c.032-.023.055-.053.085-.077a9 9 0 0 1 .943.51 15 15 0 0 1 1.31.948c-.139.276-.184.583-.327.859a19 19 0 0 1-1.152 1.738c-.39.584-.812 1.146-1.228 1.711a17 17 0 0 1-.761.967q-.162.19-.327.376c-.175.196-.316.442-.573.195-.028-.027-.062.026-.024.04a1.3 1.3 0 0 1 .264.148l.01-.001c1.036-1.047 1.976-2.172 2.937-3.285a9 9 0 0 0 1.252-1.593 2.3 2.3 0 0 0 .24-.822q.005-.042.006-.082c.473.39.934.798 1.394 1.204q2.952 2.597 6.032 5.045a140 140 0 0 0 26.777 16.74 32 32 0 0 0 3.44 1.388c.069.023.106-.078.048-.114-2.313-1.444-4.748-2.675-7.115-4.03q-3.553-2.036-7.02-4.224c-.758-.477-1.508-.967-2.26-1.454-1.833-5.289-4.157-10.395-5.93-15.702-.43-1.29-.784-2.605-1.245-3.884a28 28 0 0 0-1.737-3.747c-1.386-2.57-2.796-5.128-4.197-7.691-2.8-5.123-5.657-10.22-8.394-15.377-2.308-4.348-4.378-9.243-2.99-14.218a8.92 8.92 0 0 1 3.586-5.214 2.58 2.58 0 0 1 3.074-.07 1.5 1.5 0 0 1-.01.246 3.2 3.2 0 0 1-.41 1.123 9.7 9.7 0 0 1-1.17 1.621c-.374.428-.656.707-.545 1.322a8.2 8.2 0 0 0 .606 1.784 14 14 0 0 0 2.02 3.241c.635.775 1.605 1.684 2.653 1.104.02-.011.008-.037-.011-.04a4.48 4.48 0 0 1-2.88-2.305 12.8 12.8 0 0 1-1.52-3.231 1.9 1.9 0 0 1-.183-.985 2.1 2.1 0 0 1 .44-.681 12 12 0 0 0 .947-1.404 4.8 4.8 0 0 0 .527-1.382 18 18 0 0 1 2.11 2.977 129 129 0 0 1 2.764 4.573 2 2 0 0 0-.15.382c-.034.114-.04.237-.073.353a1.7 1.7 0 0 1-.122.314 3 3 0 0 1-.169.28c-.058.09-.106.185-.173.268a2 2 0 0 1-.237.247 2 2 0 0 1-.278.231.017.017 0 0 0 .013.031 3 3 0 0 0 .326-.1 2 2 0 0 0 .314-.175 3 3 0 0 0 .28-.206 1.5 1.5 0 0 0 .244-.289 6 6 0 0 0 .346-.655c.012-.023.018-.051.03-.076l.407.712-.073.194a2.3 2.3 0 0 1-.291.545c-.023.03.023.056.047.037a2 2 0 0 0 .46-.49l.01-.02c1.44 2.508 2.86 5.028 4.356 7.503a86 86 0 0 0 9.248 12.586c1.524 1.722 3.05 3.45 4.404 5.31-.18.214-.37.421-.544.64a13 13 0 0 1-1.264 1.384 19.4 19.4 0 0 1-3.485 2.136.029.029 0 0 0 .022.052 16.7 16.7 0 0 0 3.656-2.107 7.8 7.8 0 0 0 1.519-1.12 3.5 3.5 0 0 0 .421-.54c.05.071.106.14.155.211a36.7 36.7 0 0 1 3.718 7.343 175 175 0 0 0 6.875 15.182c2.555 4.98 5.4 9.8 8.25 14.614a44 44 0 0 0 2.265 3.437.133.133 0 0 0 .23-.134c-.767-1.727-1.663-3.387-2.576-5.04.146.142.297.283.437.428q.832.863 1.602 1.781c.54.642 1.13 1.228 1.684 1.855.035.039.097-.012.072-.055a16 16 0 0 0-1.181-1.842 26 26 0 0 0-1.493-1.71 30 30 0 0 0-1.569-1.552c-.094-.087-.2-.179-.308-.275q-.357-.64-.709-1.282c-1.387-2.542-2.718-5.11-4.074-7.669q-1.893-3.572-3.644-7.22c-.147-1.417-.39-2.823-.588-4.235q-.349-2.484-.632-4.978a47.2 47.2 0 0 1-.422-10.204 17.04 17.04 0 0 1 2.806-7.993 6.42 6.42 0 0 1 3.297-2.765 2.8 2.8 0 0 1 3.11 1.595 5.3 5.3 0 0 1 .433 1.037 2.02 2.02 0 0 1-1.364 1.723 2.9 2.9 0 0 0-1.204.456c-.382.369-.353 1.066-.389 1.555a10.7 10.7 0 0 0 .07 2.034 6 6 0 0 0 .33 1.597c.352.845 1.168 1.754 2.16 1.346a.067.067 0 0 0-.018-.13c-1.457-.057-1.873-1.423-1.965-2.644a15 15 0 0 1 .018-1.78c.025-.538-.07-1.478.537-1.673a4.4 4.4 0 0 0 1.145-.413 2.5 2.5 0 0 0 .834-.94q.037-.077.07-.156c.145.84.19 1.709.26 2.529.138 1.615.253 3.232.387 4.847a73 73 0 0 0 1.255 9.413 36 36 0 0 0 1.324 4.627 35 35 0 0 1 1.212 3.877c-.232.135-.46.281-.682.405a6.4 6.4 0 0 1-1.482.742 11 11 0 0 1-1.693.257c-.538.051-1.098.035-1.627.139-.04.008-.027.064.009.067a9.7 9.7 0 0 0 1.848-.104c.543-.059 1.073-.163 1.608-.267a7.6 7.6 0 0 0 1.624-.343 5 5 0 0 0 .539-.278v.003c.652 3.291.918 6.672 1.388 9.993q.803 5.672 1.782 11.317c.236 1.36.488 2.717.739 4.074a44 44 0 0 1-.544-1.666.02.02 0 0 0-.038.01c.254 1.163.445 2.339.697 3.501a34 34 0 0 0 .945 3.305 33 33 0 0 0 1.198 3.25c.48 1.073 1.02 2.115 1.45 3.21 1.584 4.028 2.007 8.315 3.1 12.472.046.173.102.342.15.514a26 26 0 0 0-1.208-2.117c-.02-.031-.074-.012-.062.026.584 1.81 1.313 3.545 2.017 5.31.676 1.698 1.277 3.421 1.855 5.154 1.177 3.528 2.267 7.08 3.34 10.641 1.047 3.478 2.118 6.954 3.45 10.336a70.4 70.4 0 0 0 4.69 9.618 108 108 0 0 0 5.745 8.797 69 69 0 0 0 6.255 7.944 15 15 0 0 0 3.59 2.8 31 31 0 0 0 4.785 1.655 16.06 16.06 0 0 1 6.219 4.314c1.994 2.075 3.76 4.358 5.752 6.435 1.927 2.008 4.084 3.952 6.802 4.76a.083.083 0 0 0 .064-.15M17.174 121.092a16.3 16.3 0 0 0 5.34-1.659 18.7 18.7 0 0 0 4.57-3.28 10 10 0 0 0 1.823-2.225 3.9 3.9 0 0 0 .541-1.58l.048-.11a1.5 1.5 0 0 0 .09-.342c.011-.082.01-.164.014-.245a7 7 0 0 0 2.829-.9c.882-.48 1.723-1.026 2.637-1.448a29 29 0 0 1 2.932-1.117 14.7 14.7 0 0 0 2.426-.954c.56-.309 1.388-.82 1.496-1.518a6.25 6.25 0 0 0 2.065 2.016 30.2 30.2 0 0 0 6.127 2.548 26.4 26.4 0 0 0 6.761 1.391 16.4 16.4 0 0 0 3.472-.136 5 5 0 0 0 .783 1.206 5.4 5.4 0 0 0 2.197 1.451 10.4 10.4 0 0 1 2.837 1.626 48 48 0 0 1 2.356 2.061 16 16 0 0 1 2.135 2.362 11.8 11.8 0 0 0 1.843 2.248c.764.647 1.63 1.16 2.374 1.833a8.8 8.8 0 0 1 1.307 1.49 7.7 7.7 0 0 1-2.208 3.04 80 80 0 0 1-3.153 2.654 40 40 0 0 1-7.261 4.302c-2.233 1.106-4.566 2.314-5.989 4.445a21.5 21.5 0 0 0-1.944 3.989 10.5 10.5 0 0 0-.522 1.767c-.586-.77-1.92-.79-2.843-.572-.834.197-1.649.502-2.461.773a14 14 0 0 0-2.225.851 3.5 3.5 0 0 0-1.083.906 7.2 7.2 0 0 0-3.24-2.665c-1.895-1.023-3.781-2.045-5.613-3.178q-2.872-1.775-5.59-3.785a17.2 17.2 0 0 0-5.127-3.01 6.8 6.8 0 0 0-.629-2.988 14.8 14.8 0 0 0-1.64-3.167 20 20 0 0 0-5.488-5.138 168 168 0 0 0-4.453-2.88 14 14 0 0 0 2.466-.062"/><path fill="currentColor" d="M86.973 123.106a.014.014 0 0 0-.028 0c-.056 1.445-.445 2.868-.47 4.315a18 18 0 0 1-.219 2.3 5.9 5.9 0 0 0-.188 1.896c.025.132.195.098.235 0a6.6 6.6 0 0 0 .2-2.03 20 20 0 0 1 .284-2.29 19 19 0 0 0 .193-2.04 10.5 10.5 0 0 0-.007-2.151m-1.48 3.277c-.165 1.195-.301 2.391-.45 3.588-.08.639-.162 1.28-.284 1.912-.057.292-.112.588-.196.873a8 8 0 0 0-.3.998.32.32 0 0 0 .137.339.22.22 0 0 0 .231.03.31.31 0 0 0 .22-.289c.08-.608.002-1.24.052-1.856.055-.666.156-1.33.25-1.992a88 88 0 0 0 .457-3.587c.007-.066-.108-.083-.117-.016m-1.521 2.327a.034.034 0 0 0-.067-.01 7 7 0 0 0-.308.955 6 6 0 0 0-.09.9 14 14 0 0 1-.23 2.053 18 18 0 0 1-.468 1.872c-.122.396-.511 1.262-.124 1.59a.17.17 0 0 0 .192.025c.458-.201.34-1.151.341-1.56a15 15 0 0 1 .117-1.92 13.4 13.4 0 0 1 .42-2.026 5.3 5.3 0 0 0 .214-.98c.028-.3.002-.599.003-.9m-1.9 2.953a39 39 0 0 0-.703 3.15 16 16 0 0 1-.365 1.54 10 10 0 0 1-.248.752 1.75 1.75 0 0 0-.224.748.191.191 0 0 0 .354.096 1.4 1.4 0 0 0 .12-.69c.012-.273.05-.548.088-.818a15 15 0 0 1 .335-1.611 39 39 0 0 0 .703-3.15c.007-.039-.05-.056-.06-.017m-1.985 3.375c-.25.761-.508 1.521-.75 2.285-.117.368-.228.738-.341 1.106l-.184.596a2.2 2.2 0 0 0-.138.553.137.137 0 0 0 .254.07 2.2 2.2 0 0 0 .177-.542l.161-.602c.1-.372.204-.744.3-1.117.2-.776.388-1.555.581-2.333a.031.031 0 0 0-.06-.016m-2.17 3.039a17 17 0 0 1-.577 1.429c-.1.227-.214.449-.307.679-.083.203-.21.44-.107.66a.07.07 0 0 0 .08.032c.234-.068.32-.334.405-.535a7 7 0 0 0 .24-.733c.146-.495.25-1.002.359-1.507a.048.048 0 0 0-.093-.025m-1.88 2.212-.302.58a3 3 0 0 0-.135.288 2 2 0 0 0-.113.309c-.007.03.034.061.057.033a2 2 0 0 0 .163-.26 3 3 0 0 0 .151-.297l.272-.599c.028-.062-.06-.117-.093-.054m17.833-29.363c-.134-.164-.277-.318-.403-.489-.117-.158-.218-.328-.322-.495q-.079-.125-.151-.253a.8.8 0 0 1-.099-.345c-.021-.21-.157-.26-.287-.407a4 4 0 0 1-.353-.526q-.313-.5-.611-1.01c-.02-.034-.07-.004-.053.03q.257.534.526 1.06a5 5 0 0 1 .278.57c.033.09.033.189.064.277a.36.36 0 0 0 .173.18 1.5 1.5 0 0 1 .419.522c.103.168.208.333.303.506s.172.354.26.53a.42.42 0 0 0 .314.266.042.042 0 0 0 .053-.04.41.41 0 0 0-.111-.376m-.103-2.379c-.144-.263-.3-.519-.457-.774-.008-.013-.025-.002-.02.011.118.272.235.545.365.81a7 7 0 0 0 .439.767c.014.022.055.009.045-.019a7 7 0 0 0-.372-.795m2.407 3.47a2 2 0 0 0-.289-.426c-.1-.133-.21-.258-.317-.386q-.331-.389-.652-.786c-.016-.02-.05.006-.035.027q.275.423.542.85c.087.138.17.278.263.411a2 2 0 0 0 .316.41c.07.058.214.007.172-.1m1.453-.191-.328-.457q-.34-.47-.683-.937-.674-.923-1.362-1.836c-.013-.017-.042-.002-.03.017q.629.95 1.27 1.89.315.465.634.926l.32.46c.078.111.15.277.293.302a.034.034 0 0 0 .042-.023c.023-.139-.079-.234-.156-.342m.612-.757c-.303-.38-.608-.757-.895-1.149-.02-.027-.064-.003-.046.027a14 14 0 0 0 .805 1.186 6 6 0 0 0 .955 1.07c.025.019.067-.006.047-.037a13 13 0 0 0-.866-1.097m1.886.447q-.194-.182-.4-.35c-.031-.026-.076.016-.045.045q.192.178.372.369a7 7 0 0 0 .378.363c.017.015.047-.005.033-.026a2.5 2.5 0 0 0-.338-.401m5.095-22.201c-.004-.026-.043-.019-.044.006-.02.525-.035 1.047-.031 1.574a13 13 0 0 0 .07 1.575c.006.042.072.062.082.011a7 7 0 0 0 .099-1.586 10.5 10.5 0 0 0-.176-1.58m1.413 3.652a1.8 1.8 0 0 1 .033-.503c.056-.17.133-.2.153-.374a5 5 0 0 0-.048-.802c-.013-.26-.018-.518-.025-.777-.016-.561-.013-1.123-.016-1.684a.017.017 0 0 0-.034 0c-.032.561-.058 1.123-.103 1.684-.022.28-.04.561-.072.841a3.5 3.5 0 0 0-.077.764c.02.172.112.282.14.464a2 2 0 0 1 0 .387c-.008.301-.032.602-.05.903a6.7 6.7 0 0 0-.043 1.587l.011-.009a.15.15 0 0 0 .294-.032 14 14 0 0 0-.14-1.675 12 12 0 0 1-.023-.774m1.427 3.111a14 14 0 0 1-.043-.849c-.01-.527.008-1.054.02-1.58a30 30 0 0 0-.066-3.29c-.003-.025-.043-.026-.042 0 .04 1.12-.084 2.234-.148 3.35a21 21 0 0 0-.03 1.642q.009.425.044.848a.86.86 0 0 0 .15.524.06.06 0 0 0 .092-.012 1.2 1.2 0 0 0 .022-.633m1.124.757-.05-.654a2.2 2.2 0 0 1 0-.738 1.7 1.7 0 0 0 .023-.57q-.07-1.418-.134-2.835a.02.02 0 0 0-.041 0c.002.963-.004 1.926-.008 2.889a2 2 0 0 0 .001.381c.014.078.065.138.08.218a3.4 3.4 0 0 1-.002.71 7 7 0 0 0-.025 1.39c.022.123.187.075.2-.028a3.7 3.7 0 0 0-.044-.763m1.04-.209c-.017-.294-.041-.587-.062-.881-.003-.04-.065-.042-.064 0 .004.294.005.588.014.881a4.5 4.5 0 0 0 .071.854c.005.02.04.022.044 0a4.4 4.4 0 0 0-.003-.854M74.598 84.176c-.012-.027-.059-.008-.048.02a27 27 0 0 0 1.145 2.737.02.02 0 0 0 .038-.017 27 27 0 0 0-1.135-2.74m9.22 7.007c-.213-.434-.407-.88-.586-1.328q-.504-1.266-1.003-2.533c-.016-.042-.085-.025-.07.019.308.86.645 1.703 1.02 2.536q.299.661.579 1.332a4.4 4.4 0 0 0 .55 1.153c.014.017.038-.002.034-.02a5 5 0 0 0-.524-1.159m1.314-1.186c-.003-.007-.013-.001-.01.005.271.609.496 1.233.75 1.848.005.013.026.008.022-.006a15.5 15.5 0 0 0-.762-1.847m2.4.28c-.024-.047-.106-.014-.087.036a6.7 6.7 0 0 0 .548 1.19.03.03 0 0 0 .055-.024 6.7 6.7 0 0 0-.516-1.202m.801-20.612a86 86 0 0 0-2.128-.941c-.324-.139-.621-.316-.955-.438-.388-.143-.81-.179-1.209-.287a.03.03 0 0 0-.023.056c.339.182.646.421.99.591a8 8 0 0 0 .987.361c.73.254 1.442.578 2.162.863q2.237.886 4.442 1.85c.013.005.025-.014.012-.02q-2.126-1.044-4.278-2.035m-5.474-2.098q-.093-.058-.187-.112a.7.7 0 0 0-.188-.093.021.021 0 0 0-.02.035.7.7 0 0 0 .171.12q.094.056.19.11l.386.203a.013.013 0 0 0 .013-.023Zm6.211.813a4.2 4.2 0 0 0-1.624-.71c-.574-.202-1.132-.437-1.693-.671a20.6 20.6 0 0 0-3.515-1.137.026.026 0 0 0-.014.05c1.165.334 2.318.702 3.45 1.14.605.233 1.197.484 1.782.767a4.05 4.05 0 0 0 1.59.622.036.036 0 0 0 .025-.061m-1.121-2.353a8 8 0 0 0-1.576-.538 30 30 0 0 1-1.66-.587c-.551-.216-1.084-.473-1.635-.689-.333-.13-1.006-.444-1.287-.095a.09.09 0 0 0 0 .123.96.96 0 0 0 .536.188c.256.054.506.132.762.185.558.117 1.11.226 1.659.382a15 15 0 0 1 1.55.545 11 11 0 0 0 1.574.669.1.1 0 0 0 .077-.183m-4.598-3.409a3 3 0 0 0-.772-.369 3 3 0 0 0-.427-.082c-.14-.019-.28-.013-.419-.03-.062-.008-.068.086-.014.104.137.045.265.116.4.168q.195.077.394.139a5 5 0 0 0 .817.147c.044.005.052-.057.02-.077m2.611.642a.55.55 0 0 0-.28-.123 4 4 0 0 0-.314-.065 11 11 0 0 0-.61-.084c-.022-.003-.026.032-.006.037a5 5 0 0 1 .58.178l.28.108a.64.64 0 0 0 .296.079.077.077 0 0 0 .054-.13m-3.038-3.002a2 2 0 0 0-.163-.091c-.062-.031-.112-.075-.178-.102a1.4 1.4 0 0 0-.386-.09 3 3 0 0 0-.379-.012c-.132.005-.263.024-.396.028-.05.002-.067.084-.012.093a3 3 0 0 1 .378.101q.176.051.354.095a2 2 0 0 0 .376.063c.066.003.128-.012.193-.013.064 0 .128.004.193.002a.04.04 0 0 0 .02-.074m-38.782 88.918a2.8 2.8 0 0 0-.525.99c-.135.366-.245.74-.381 1.105-.275.738-.556 1.471-.793 2.223-.003.011.014.016.018.005a18 18 0 0 1 .899-2.176c.166-.327.368-.633.564-.943a3.6 3.6 0 0 0 .53-1.023.188.188 0 0 0-.312-.181m-.688-.404a.16.16 0 0 0-.04-.15.16.16 0 0 0-.151-.04q.017-.009-.022.001a.1.1 0 0 0-.05.014.4.4 0 0 0-.056.025.5.5 0 0 0-.097.087 1.4 1.4 0 0 0-.137.172.9.9 0 0 0-.164.385l.022-.08a2.4 2.4 0 0 0-.106.309c-.027.099-.068.195-.102.292-.015.043.046.062.07.029a2 2 0 0 1 .202-.253c.038-.039.072-.077.113-.112l.055-.051c.022-.022-.013.01.01-.009l.057-.044a1.7 1.7 0 0 0 .215-.228c.044-.05.081-.106.12-.16a.32.32 0 0 0 .058-.257v.088Zm-1.756 2.618a7.9 7.9 0 0 0-1.018 2.403.017.017 0 0 0 .033.009c.15-.402.279-.81.439-1.208a11 11 0 0 1 .57-1.191.013.013 0 0 0-.024-.013m.285-3.791a5.5 5.5 0 0 0-1.135 1.46 5.7 5.7 0 0 0-.71 1.713.042.042 0 0 0 .076.032c.308-.526.554-1.087.855-1.617s.652-1.034.935-1.572a.013.013 0 0 0-.021-.016m-1.099-.625a1 1 0 0 1-.124.077c-.04.021-.084.038-.123.062a1.3 1.3 0 0 0-.246.201 1 1 0 0 0-.103.132.7.7 0 0 0-.067.134c-.04.09-.068.187-.1.281-.01.03.03.066.058.045.073-.055.15-.102.223-.156a1 1 0 0 0 .127-.098 1 1 0 0 0 .1-.111 1 1 0 0 0 .1-.134l.072-.12a2 2 0 0 1 .135-.245c.028-.035-.008-.1-.052-.068m-1.231 1.698a1.14 1.14 0 0 1-.298.432c-.008.007.003.017.01.011a1.16 1.16 0 0 0 .317-.435c.007-.017-.022-.026-.03-.008m6.002 31.587a.011.011 0 0 0-.006.021 15.4 15.4 0 0 0 2.784.726.019.019 0 0 0 .01-.037 26 26 0 0 0-2.788-.71m6.559.391c-.516-.185-1.062-.3-1.59-.449q-.738-.208-1.472-.431c-1.016-.31-2.024-.641-3.037-.958-.04-.013-.055.047-.018.062.991.382 2.003.714 3.02 1.024a25 25 0 0 0 3.07.85.051.051 0 0 0 .027-.098m1.414-.84a13 13 0 0 1-1.558-.494c-1.013-.337-2.031-.699-3.072-.94a.023.023 0 0 0-.012.043c.97.406 1.989.706 2.991 1.02a14 14 0 0 1 1.588.521c.286.131.854.604 1.167.367a.11.11 0 0 0 .047-.118c-.115-.392-.83-.335-1.151-.398m2.55-.401a5.6 5.6 0 0 0-1.512-.667 14 14 0 0 0-1.637-.422.036.036 0 0 0-.02.069c.524.188 1.04.394 1.563.58a9.4 9.4 0 0 0 1.574.515.042.042 0 0 0 .032-.076m10.99-34.636c-.43 1.34-1.089 2.597-1.497 3.944-.018.06.06.083.093.04a9.3 9.3 0 0 0 1.466-3.967.032.032 0 0 0-.062-.017m-1.448.285c-.415.926-.938 1.807-1.394 2.712a13 13 0 0 1-.772 1.322 1.8 1.8 0 0 0-.455 1.228c.009.065.09.065.13.034a2.26 2.26 0 0 0 .56-1.264 3.8 3.8 0 0 1 .804-1.411 4.6 4.6 0 0 0 .743-1.144 13 13 0 0 0 .435-1.455c.009-.03-.038-.052-.051-.022m-3.196 3.31c-.265.421-.549.832-.801 1.262s-.489.867-.728 1.304c-.019.034.03.076.056.044a8 8 0 0 0 1.5-2.599c.007-.016-.018-.025-.027-.011m-18.698-43.646a6 6 0 0 1-.285-.771 9 9 0 0 1-.23-1.531 16.7 16.7 0 0 1-.063-3.027c0-.01-.017-.013-.019-.002a11 11 0 0 0-.087 3.08c.06.493.195.97.286 1.457.049.258.09.517.134.776.03.17.039.36.228.408a.04.04 0 0 0 .04-.01c.104-.127.06-.23-.004-.38m.639-4.222c0-.034-.05-.033-.053 0a8.2 8.2 0 0 0 .084 2.727.023.023 0 0 0 .044-.006c-.029-.906-.103-1.814-.075-2.72m.974 5.218a2.4 2.4 0 0 0-.183-.347 3 3 0 0 1-.191-.341c-.06-.134-.109-.27-.159-.408-.01-.032-.06-.02-.05.014a3.7 3.7 0 0 1 .157.816 2.4 2.4 0 0 0 .062.42.9.9 0 0 0 .173.41.18.18 0 0 0 .197.037.19.19 0 0 0 .111-.165.94.94 0 0 0-.117-.436m1.692 1.253.01.001c-.101-.415-.31-.816-.447-1.223q-.192-.572-.335-1.16a18 18 0 0 1-.431-2.547c-.002-.019-.03-.02-.03 0a14 14 0 0 0 .26 2.555q.123.64.295 1.267a5.5 5.5 0 0 0 .412 1.224c.097.172.305.014.265-.117m1.201-.348a4 4 0 0 1-.396-1.034 18 18 0 0 1-.494-2.074c-.005-.034-.062-.026-.06.008a7 7 0 0 0 .432 2.137c.138.336.3.662.426 1.002.121.331.142.741.413.997a.168.168 0 0 0 .278-.162c-.098-.345-.42-.574-.598-.874m2.377 1.773c-.054-.112-.16-.19-.223-.301q-.1-.182-.19-.368-.213-.42-.404-.852a29 29 0 0 1-.696-1.766.023.023 0 0 0-.044.012 10.5 10.5 0 0 0 .622 1.968q.188.448.408.88c.09.177.233.571.491.516a.06.06 0 0 0 .036-.089m1.406-.105-.215-.354a8 8 0 0 1-.39-.73c-.019-.043-.093-.013-.075.031q.157.384.351.75.099.182.211.357a1.6 1.6 0 0 0 .265.316c.014.013.043 0 .034-.02a2.5 2.5 0 0 0-.18-.35m2.077.569-.078-.094a2 2 0 0 0-.169-.176c-.116-.115-.243-.216-.367-.321a.023.023 0 0 0-.032.032c.105.124.206.252.32.368a2 2 0 0 0 .17.164l.095.078a.6.6 0 0 0 .097.075.025.025 0 0 0 .034-.034.6.6 0 0 0-.07-.092m-25.256.791a13.5 13.5 0 0 1-2.791-1.44c-.016-.01-.036.014-.02.027a6.44 6.44 0 0 0 2.796 1.464.026.026 0 0 0 .015-.051m-.123-1.463c-.408-.194-.824-.374-1.217-.599a8 8 0 0 1-1.143-.792c-.02-.017-.05.011-.03.03a5.64 5.64 0 0 0 2.372 1.402c.024.006.042-.03.018-.041m2.812.711a5 5 0 0 0-.731-.165q-.369-.074-.733-.162a.026.026 0 0 0-.014.051q.36.103.718.216a5 5 0 0 0 .718.212.078.078 0 0 0 .042-.151m1.588-1.107a1.1 1.1 0 0 0-.477-.107q-.283-.036-.564-.09a11 11 0 0 1-1.056-.254 17 17 0 0 1-2.111-.829.017.017 0 0 0-.017.03 7.4 7.4 0 0 0 2.04.976 9 9 0 0 0 1.088.282q.294.058.591.099a.94.94 0 0 0 .492 0 .06.06 0 0 0 .014-.107m1.677-.815a1.5 1.5 0 0 0-.462-.107q-.26-.043-.52-.095-.483-.096-.957-.232a17 17 0 0 1-1.975-.703c-.013-.005-.025.012-.012.02a9.4 9.4 0 0 0 1.903.857q.502.16 1.018.275.257.056.518.099a1.2 1.2 0 0 0 .468.027.078.078 0 0 0 .019-.141m.963-1.061q-.3-.041-.598-.098a9 9 0 0 1-1.207-.325c-.03-.01-.042.036-.013.047a18 18 0 0 0 1.803.591c.14.034.41.119.527.008a.044.044 0 0 0 .007-.053c-.079-.142-.378-.15-.519-.17m2.156-.813a2.5 2.5 0 0 0-.81-.108c-.07-.003-.087.113-.017.123a2.5 2.5 0 0 0 .827.047c.034-.007.026-.052 0-.062m-22.237 14.27c-.576-.112-1.159-.193-1.726-.346a10.4 10.4 0 0 1-1.712-.609c-.03-.014-.057.03-.026.046a7.44 7.44 0 0 0 3.457.965c.03-.001.04-.05.007-.056m3.72-.945a.59.59 0 0 0-.53-.106c-.26.031-.517.082-.78.089a7.8 7.8 0 0 1-1.7-.226 25 25 0 0 1-3.069-.817c-.012-.004-.02.016-.009.021a13 13 0 0 0 3.103.919c.55.087 1.113.107 1.662.204.378.067.998.375 1.323.08a.12.12 0 0 0 0-.165m-1.125-1.531c-.197-.073-.393-.15-.595-.213-.201-.061-.407-.107-.61-.165-.402-.115-.809-.221-1.203-.364a.036.036 0 0 0-.028.065 9 9 0 0 0 1.175.506 5 5 0 0 0 .607.171 4 4 0 0 0 .646.059c.036.001.039-.048.008-.06m4.046.303a3 3 0 0 0-.255.003q-.237.018-.474.022a7 7 0 0 1-.98-.052c-.026-.003-.032.04-.007.045a22 22 0 0 0 1.46.187 2 2 0 0 0 .256 0 .24.24 0 0 0 .183-.069.055.055 0 0 0 0-.074.25.25 0 0 0-.183-.062m1.564-1.296a9.4 9.4 0 0 1-2.7-.107 25 25 0 0 1-2.544-.677.027.027 0 0 0-.02.048 9 9 0 0 0 5.264.872c.086-.008.087-.144 0-.136m1.43-1.216a5 5 0 0 0-.972-.038q-.48-.015-.96-.068a14 14 0 0 1-2.024-.386.015.015 0 0 0-.008.03 10.7 10.7 0 0 0 2.017.467q.486.066.975.092a2.8 2.8 0 0 0 .972-.035.032.032 0 0 0 0-.062m.884-1.552a1 1 0 0 0-.332-.029q-.153-.002-.306-.007-.33-.01-.662-.024c-.44-.02-.879-.035-1.318-.07a.017.017 0 0 0-.005.033c.43.089.862.172 1.298.221q.33.039.661.06.166.011.332.019a.9.9 0 0 0 .332-.014.1.1 0 0 0 0-.19m-.088-.971a.01.01 0 0 0 0 .018l.185-.003a.006.006 0 0 0 0-.012Zm29.759-59.078c-.299.7-.609 1.393-.898 2.097a40 40 0 0 0-.818 2.198c-.005.016.02.027.028.012.322-.69.633-1.38.914-2.088.288-.728.555-1.463.833-2.194.013-.034-.044-.058-.059-.025m2.921-.856a1.25 1.25 0 0 0-.432.264 2 2 0 0 0-.48.369 5.6 5.6 0 0 0-.558 1.01 16 16 0 0 0-.843 2.115.017.017 0 0 0 .031.013 11.2 11.2 0 0 1 1.238-1.88c.235-.288.514-.528.727-.837a3.6 3.6 0 0 0 .23-.53 1.4 1.4 0 0 0 .183-.45c.006-.052-.053-.083-.096-.073m29.378-14.47c-.516.337-.95.804-1.459 1.16a17 17 0 0 1-1.611 1.06 4.3 4.3 0 0 0-.79.478 4 4 0 0 0-.254.3 2.2 2.2 0 0 1-.483.346 20 20 0 0 1-1.622.863.98.98 0 0 1 .312-.716c.013-.012-.004-.035-.018-.024a1.22 1.22 0 0 0-.477.882.083.083 0 0 0 .082.082 4.4 4.4 0 0 0 1.763-.688q.218-.123.44-.237a3 3 0 0 1 .51-.165 2.45 2.45 0 0 0 .83-.563c.495-.437 1.017-.846 1.484-1.315a10 10 0 0 0 1.342-1.414.036.036 0 0 0-.049-.049m.363 1.581a8 8 0 0 0-1.185.644 7 7 0 0 0-.612.348 2 2 0 0 0-.238.188 1.4 1.4 0 0 0-.143.217 2 2 0 0 1-.483.373q-.26.174-.532.325-.269.15-.545.286a5 5 0 0 0-.575.27.036.036 0 0 0 .009.066 2.06 2.06 0 0 0 1.125-.237c.403-.185.763-.437 1.148-.655a5 5 0 0 0 .506-.224 5 5 0 0 0 .545-.489 8.7 8.7 0 0 0 1.046-1.026.06.06 0 0 0-.066-.086m21.897 16.048a7 7 0 0 1-.653.148c-.475.077-.94.25-1.408.368a7.7 7.7 0 0 1-3.306-.055c-.033-.007-.047.043-.014.051a17.5 17.5 0 0 0 3.175.439 2.7 2.7 0 0 0 1.392-.215 3 3 0 0 0 .486-.387 2.3 2.3 0 0 1 .822-.295.03.03 0 0 0 0-.058.7.7 0 0 0-.494.005m-.491 1.719a3 3 0 0 0-.436-.054 3.5 3.5 0 0 0-.48.025 5.6 5.6 0 0 0-.917.191.042.042 0 0 0 .011.082 5.6 5.6 0 0 0 .924.024 4 4 0 0 0 .463-.057 3 3 0 0 0 .436-.134c.033-.013.042-.068 0-.076M57.934 7.882a13.9 13.9 0 0 0-.619 4.293.017.017 0 0 0 .034 0 30 30 0 0 1 .603-4.288.01.01 0 0 0-.018-.005m1.291.078c-.126.69-.264 1.378-.405 2.065-.07.343-.139.687-.223 1.027-.039.158-.27.721.032.77.3.047.268-.484.28-.653.024-.348.067-.695.108-1.042a88 88 0 0 1 .273-2.149c.006-.042-.058-.062-.065-.018m-.708 5.782a25 25 0 0 1-.018-.909.02.02 0 0 0-.042 0q-.038.455-.093.909a8 8 0 0 0-.084.908.124.124 0 0 0 .247 0 8 8 0 0 0-.01-.908m2.178-3.789a.017.017 0 0 0-.033-.01 28 28 0 0 0-.728 3.52 22 22 0 0 0-.318 3.482.143.143 0 0 0 .242.1.284.284 0 0 0 .058-.372c.08-1.06.103-2.122.227-3.181.139-1.187.33-2.366.552-3.54m.815 2.715a43 43 0 0 0-.577 3.434 3 3 0 0 0-.048.397 3 3 0 0 1 .043.464c-.028.288-.064.576-.1.863-.043.346-.124.683-.17 1.028a.87.87 0 0 0 .035.6.067.067 0 0 0 .114 0 1.08 1.08 0 0 0 .108-.698c-.007-.267-.027-.53-.018-.797a8 8 0 0 1 .06-.93c.046-.298.147-.557.178-.861q.173-1.751.398-3.497c.001-.013-.02-.016-.022-.003m1.075 2.554a28.2 28.2 0 0 0-.958 6.068c-.005.125.194.125.195 0a47 47 0 0 1 .8-6.058.019.019 0 0 0-.037-.01m.926 1.897q-.307 1.404-.51 2.824-.091.655-.166 1.312a7.6 7.6 0 0 0-.1 1.458c.005.054.086.073.1.014a10 10 0 0 0 .145-1.31q.066-.702.15-1.401.178-1.447.425-2.885c.005-.028-.038-.04-.044-.012m.571 3.622a31 31 0 0 0-.302 1.932q-.059.503-.1 1.008a5 5 0 0 0-.037 1.01c.005.04.068.058.078.01a7 7 0 0 0 .077-.943q.03-.485.073-.97c.063-.682.133-1.362.23-2.041.001-.012-.017-.017-.019-.005m.481 3.129q-.067.553-.1 1.11a7.5 7.5 0 0 0-.006 1.112.017.017 0 0 0 .034 0c.021-.37.01-.742.023-1.113q.018-.555.072-1.109c.001-.015-.021-.014-.023 0m.927 2.867c-.011-.024-.047-.003-.036.02a1.75 1.75 0 0 1 .166.735.011.011 0 0 0 .022 0 1.5 1.5 0 0 0-.152-.755m1.099 1.88-.04-.1-.081-.205c-.007-.018-.037-.01-.03.008l.085.209.042.103a1 1 0 0 0 .043.101.011.011 0 0 0 .02-.009q-.017-.054-.04-.107M12.463 38.683a.017.017 0 0 0-.032.01 22 22 0 0 0 .627 2.56.019.019 0 0 0 .037-.01 22 22 0 0 0-.632-2.56m1.981 3.126a65 65 0 0 1-.837-3.205c-.005-.018-.036-.015-.034.004a23 23 0 0 0 .697 3.25 17 17 0 0 0 1.156 3.117.02.02 0 0 0 .038-.016c-.313-1.059-.706-2.091-1.02-3.15m.829-2.224a.019.019 0 0 0-.037.01 28 28 0 0 0 1.023 3.31.023.023 0 0 0 .044-.013 28 28 0 0 0-1.03-3.307m2.781 7.445q-.058-.118-.12-.234-.13-.249-.252-.503c-.16-.337-.325-.672-.472-1.016-.006-.014-.03-.004-.024.01.117.353.241.706.391 1.046q.114.258.236.512.06.129.128.25a.44.44 0 0 0 .147.193.03.03 0 0 0 .045-.026.5.5 0 0 0-.08-.232m1.459.231q-.395-.869-.744-1.758a42 42 0 0 1-1.19-3.528.017.017 0 0 0-.032.009 28 28 0 0 0 1.122 3.613 19 19 0 0 0 1.531 3.338c.028.044.113.016.09-.038-.232-.556-.528-1.087-.777-1.636m2.268 1.475q-.351-.665-.677-1.343a47 47 0 0 1-1.28-2.874c-.016-.038-.077-.023-.063.017.347.963.723 1.92 1.151 2.85q.327.706.684 1.398a5.5 5.5 0 0 0 .778 1.295.032.032 0 0 0 .053-.03 7 7 0 0 0-.646-1.313m2.343 1.382a13 13 0 0 1-.573-1.101 9.3 9.3 0 0 0-1.023-2.135c-.013-.015-.037.004-.027.02a16 16 0 0 1 .918 2.235 11 11 0 0 0 .543 1.076 3.5 3.5 0 0 0 .7.947c.016.012.047.001.038-.022a7.5 7.5 0 0 0-.576-1.02m1.345.951-.25-.294c-.021-.026-.059.012-.037.037l.248.288q.124.142.256.279c.009.01.026-.003.018-.014q-.114-.151-.235-.296m2.478 1.441c-.01-.02-.039-.002-.03.017.392.832.761 1.68 1.203 2.486.005.01.021.003.017-.007-.354-.85-.785-1.67-1.19-2.496m3.288 3.815a33 33 0 0 1-.84-1.606 33 33 0 0 1-1.432-3.445c-.012-.032-.061-.02-.051.014a27 27 0 0 0 1.318 3.458q.393.852.844 1.673a10 10 0 0 0 .962 1.558c.051.061.133-.017.104-.08-.255-.544-.613-1.046-.905-1.572m-.368-3.834c-.015-.03-.068-.009-.055.024.366.9.731 1.802 1.146 2.68.012.026.053.008.045-.019a16 16 0 0 0-1.136-2.685m3.434 6.623c-.138-.232-.272-.468-.422-.694-.304-.46-.611-.918-.904-1.385a.02.02 0 0 0-.036.021c.26.486.506.98.755 1.473.122.241.26.475.393.71a2.3 2.3 0 0 0 .476.641.036.036 0 0 0 .06-.035 2.3 2.3 0 0 0-.322-.73m2.151.972-.85-1.52q-.866-1.545-1.746-3.082a.023.023 0 0 0-.04.023q.828 1.533 1.663 3.062l.81 1.474a13 13 0 0 0 .903 1.559c.016.021.06.01.048-.02a12 12 0 0 0-.788-1.496m1.902 1.103a33 33 0 0 1-.942-1.596c-.015-.028-.056-.003-.042.025.278.562.572 1.118.898 1.655a10.7 10.7 0 0 0 1.047 1.502c.014.016.04-.005.03-.023-.31-.534-.665-1.04-.991-1.563m2.776 2.087a.042.042 0 0 0-.059.058c.383.416.718.875 1.077 1.312.014.017.038-.005.03-.023a5.1 5.1 0 0 0-1.048-1.347m22.965 48.747a5 5 0 0 0-.463-.809.032.032 0 0 0-.059.025 7 7 0 0 0 .316.87 2.8 2.8 0 0 0 .423.8.036.036 0 0 0 .062-.026 2.4 2.4 0 0 0-.28-.86m1.087-2.354a.011.011 0 0 0-.023.005 29.6 29.6 0 0 0 1.418 4.804c.015.036.065.009.059-.024a29.5 29.5 0 0 0-1.455-4.786m3.017 4.823c-.164-.5-.329-1-.452-1.512-.119-.493-.2-.993-.34-1.481a35 35 0 0 0-.474-1.505.028.028 0 0 0-.055.015c.11.495.218.988.35 1.479.136.51.326 1 .483 1.502.15.484.262.979.375 1.472a6.4 6.4 0 0 0 .38 1.427.065.065 0 0 0 .12-.032 6 6 0 0 0-.387-1.365m.971-1.702a.038.038 0 0 0-.073.02c.22.851.404 1.71.62 2.563.006.024.04.013.036-.01a22 22 0 0 0-.583-2.573m17.735-13.657c-.009-.041-.08-.033-.074.01a15.6 15.6 0 0 0 1.01 4.213c.014.031.058.007.052-.022-.275-1.413-.693-2.793-.988-4.201m-.931.419a.015.015 0 0 0-.029.008c.2 1.015.347 2.039.576 3.048a.036.036 0 0 0 .07-.01 11.2 11.2 0 0 0-.617-3.046m-70.186 44.581a13.7 13.7 0 0 0-2.881 2.493 14 14 0 0 0-1.063 1.394 17 17 0 0 0-1.179 1.62 6 6 0 0 0-.484 1.6c-.13.697-.298 1.387-.424 2.084-.164.909-.501 2.176.19 2.932a.295.295 0 0 0 .46-.06 32 32 0 0 0 1.073-3.393c.004-.012-.015-.02-.02-.009-.46.959-1.066 1.886-1.464 2.876-.74-.494-.091-2.674.1-3.285.33-1.057 1.09-1.918 1.38-2.98a7.9 7.9 0 0 1 1.826-2.895 15 15 0 0 1 2.526-2.309c.041-.029.004-.096-.04-.068m-2.763 8.421a5.1 5.1 0 0 0-.89 2.356c0 .025.04.037.05.013.35-.76.525-1.588.867-2.354.007-.017-.016-.032-.027-.015m6.148-19.749a12 12 0 0 0-1.498.466c-.027.01-.016.052.012.044a12 12 0 0 1 1.487-.298 11 11 0 0 0 1.478-.268c.02-.006.024-.04 0-.044a3.9 3.9 0 0 0-1.479.1m2.029-.123c-.013.002-.01.023.003.022a20 20 0 0 1 3.392.255c.023.003.022-.03.005-.037a6.3 6.3 0 0 0-3.4-.24m-3.897-1.329c-.024.005-.014.04.01.037 1.044-.162 2.097-.227 3.148-.324a.015.015 0 0 0 0-.03 14 14 0 0 0-3.158.317m6.327-.317a.7.7 0 0 0-.408-.056c-.16.005-.318.005-.477.01a6 6 0 0 1-.93-.032c-.014-.001-.018.023-.003.026.312.063.625.123.94.165a4 4 0 0 0 .47.032.62.62 0 0 0 .416-.083.04.04 0 0 0-.008-.062m-2.789-1.437a8 8 0 0 0-.923-.204 5 5 0 0 0-.917.011 11 11 0 0 0-1.827.38c-.04.009-.022.063.016.058a18 18 0 0 1 1.846-.075c.294-.01.589.004.882-.016.305-.021.61-.09.915-.102.029-.001.038-.045.007-.052m1.613.061q-.158-.014-.314-.023c-.209-.01-.419-.005-.628-.01-.012 0-.016.02-.003.022.208.032.415.075.623.101l.31.034a1 1 0 0 0 .307-.015c.022-.005.017-.034 0-.04a1 1 0 0 0-.295-.07m-2.168-1.673q-.275-.018-.55-.025-.552-.018-1.104-.006a14.5 14.5 0 0 0-2.138.229c-.06.01-.047.11.014.108a34 34 0 0 1 2.124-.032q.512.005 1.024.035.276.017.551.04c.143.013.284.04.385-.08a.104.104 0 0 0 .016-.122c-.073-.126-.187-.137-.322-.147m-2.33-1.347a6 6 0 0 0-.658-.006 4.5 4.5 0 0 0-1.292.267.019.019 0 0 0 .005.037c.436-.006.873.014 1.31.024q.34.01.68.039c.124.01.475.05.46-.155-.014-.19-.37-.197-.505-.206m-1.144-1.3a.23.23 0 0 0-.115-.067l.081.048c-.097-.105-.267-.083-.398-.076-.126.007-.253.012-.377.03a1.7 1.7 0 0 0-.334.08 2 2 0 0 0-.305.151.057.057 0 0 0 .014.104 2.6 2.6 0 0 0 .667.078c.112-.002.223-.012.335-.015.128-.004.306.014.398-.09l-.081.047a.23.23 0 0 0 .116-.068.16.16 0 0 0 0-.222m-1.332-1.25a.3.3 0 0 0-.074-.086.35.35 0 0 0-.162-.04.7.7 0 0 0-.239.02.8.8 0 0 0-.21.08c-.052.035-.138.072-.158.134l.017-.029q.007-.007-.013.003a.057.057 0 0 0 .03.11l.019-.003a1 1 0 0 0 .138.037 2 2 0 0 0 .218.025 1 1 0 0 0 .198-.004.4.4 0 0 0 .15-.034.3.3 0 0 0 .075-.068.087.087 0 0 0 .011-.145"/><path fill="currentColor" d="m15.463 124.243.037-.038c-.006.014-.022.018-.032.029-.003.002-.001.007-.005.009m0-.18c.01.007.008.018.016.026.01.014.027.02.031.036Z"/></svg>