<svg xmlns="http://www.w3.org/2000/svg" data-name="Layer 4" viewBox="0 0 282.011 218.161"><path fill="currentColor" d="m140.373 64.684-.022-.017-.008-.003a.3.3 0 0 0-.03-.05l-.01-.031a.35.35 0 0 0-.09-.142l-.006-.015a.2.2 0 0 0-.04-.06q.02.027.01.001a.1.1 0 0 0-.049-.085 1.7 1.7 0 0 1-.072-.36l-.014-.391a.006.006 0 0 0-.011 0l-.017.39a1.7 1.7 0 0 1-.076.36.1.1 0 0 0-.049.086q-.01.026.009 0a.2.2 0 0 0-.035.049.3.3 0 0 0-.024.06.4.4 0 0 0-.08.191.4.4 0 0 0-.013.07.3.3 0 0 0 .004.102 1 1 0 0 0 .043.11.5.5 0 0 0 .106.152.45.45 0 0 0 .19.115.38.38 0 0 0 .284-.032.28.28 0 0 0 .143-.25.3.3 0 0 0-.143-.25m8.2-7.58q-.611.214-1.227.413a10 10 0 0 0-1.144.392 7.4 7.4 0 0 0-1.939 1.59 15.9 15.9 0 0 0-3.03 3.988.023.023 0 0 0 .04.024 13.6 13.6 0 0 1 3.297-3.708c.63-.468 1.362-.8 1.994-1.274.326-.245.61-.535.943-.774a6 6 0 0 1 1.084-.608c.024-.011.007-.052-.018-.043m.715.612c-.36.314-.725.62-1.083.933a5 5 0 0 1-.575.46 5 5 0 0 0-.61.426 12 12 0 0 0-.884 1.13c-.326.36-.696.684-1.054 1.011-.017.016.006.047.025.032.385-.292.757-.605 1.153-.883a9 9 0 0 0 1.219-.775 3.2 3.2 0 0 0 .438-.55 5 5 0 0 1 .462-.565c.336-.375.653-.766.966-1.16a.041.041 0 0 0-.057-.059m1.25-15.452a4.26 4.26 0 0 0-1.548 1.305 7 7 0 0 1-.592.843 5.4 5.4 0 0 0-.733.68 7.4 7.4 0 0 0-.89 1.707 5.8 5.8 0 0 1-.975 1.82.009.009 0 0 0 .013.012 7 7 0 0 0 1.135-1.414 10 10 0 0 1 1.086-1.625 7 7 0 0 1 .73-.613 1.73 1.73 0 0 0 .574-.815 4 4 0 0 1 .417-1.008 5 5 0 0 1 .806-.853c.016-.015-.001-.048-.023-.04m-2.975-1.976c-.143.089-.284.18-.433.26a1.8 1.8 0 0 0-.44.343 3 3 0 0 0-.344.43c-.095.148-.175.306-.255.462a.065.065 0 0 0 .088.089c.146-.085.293-.17.43-.269a3 3 0 0 0 .421-.373 1.8 1.8 0 0 0 .315-.447q.119-.236.246-.467a.02.02 0 0 0-.028-.028m-2.303 2.674a1.35 1.35 0 0 0-.52.779.015.015 0 0 0 .029.008 1.45 1.45 0 0 1 .514-.746c.024-.018 0-.059-.024-.04M90.437 79.445a12 12 0 0 0-1.814-.738c-.638-.253-1.292-.458-1.943-.674-.69-.228-1.358-.524-2.05-.74a10 10 0 0 0-1.023-.285c-.352-.07-.47.023-.698-.309-.327-.477-.522-1.075-.874-1.524a7 7 0 0 0-.667-.547c-.198-.195-.39-.394-.591-.585l-.226-.375a.035.035 0 0 0-.061.035l.071.141a9.3 9.3 0 0 0-2.674-1.796c-.048-.02-.082.05-.049.083.885.883 1.847 1.67 2.687 2.6a5 5 0 0 1 .605.897 1.4 1.4 0 0 0 .352.376 1.35 1.35 0 0 0 .542.793 2 2 0 0 0 .33.167c.15.207.296.419.426.626a1.97 1.97 0 0 0 1.323.702c.7.193 1.425.284 2.133.442.708.157 1.41.345 2.125.47a13 13 0 0 0 2.05.334.05.05 0 0 0 .026-.093m2.218-1.347c-.135-.227-.4-.277-.64-.354-.289-.093-.584-.146-.877-.22a24 24 0 0 1-1.855-.563c-1.094-.37-2.284-1.303-3.5-1.002a.035.035 0 0 0-.015.059c.907.826 2.334.65 3.44.976a13.4 13.4 0 0 1 1.864.688c.245.114.478.252.726.36.25.107.525.283.799.198a.098.098 0 0 0 .058-.142m1.224-1.653a3.1 3.1 0 0 0-1.108-.438 45 45 0 0 0-1.3-.402q-1.308-.376-2.63-.702a.038.038 0 0 0-.02.073q1.284.373 2.555.788c.416.137.834.268 1.249.406q.323.107.645.217a1.5 1.5 0 0 0 .58.128c.033-.002.057-.045.029-.07m-.289-1.856a4.8 4.8 0 0 0-.938-.289 61 61 0 0 0-.987-.218.03.03 0 0 0-.016.057q.481.154.965.3a4.8 4.8 0 0 0 .958.215.035.035 0 0 0 .018-.065m1.808.447a.6.6 0 0 0-.138-.056.5.5 0 0 0-.295.017.032.032 0 0 0 .017.062.6.6 0 0 1 .258.008.5.5 0 0 1 .12.042 1 1 0 0 0 .118.063.027.027 0 0 0 .03-.04.23.23 0 0 0-.11-.096m-.682-3.212a.006.006 0 0 0 0 .012h.255a.006.006 0 0 0 0-.012Zm2.464-16.63c-1.487-1.532-3.088-2.955-4.61-4.451a.035.035 0 0 0-.05.05 53 53 0 0 0 4.627 4.434c.023.018.055-.011.033-.033m3.334.413a4 4 0 0 0-.777-.755 14 14 0 0 1-.865-.81 31 31 0 0 1-1.647-1.793c-.512-.607-.959-1.262-1.516-1.831-.276-.282-.547-.57-.849-.825a2.6 2.6 0 0 0-.852-.571.041.041 0 0 0-.05.05 2.6 2.6 0 0 0 .549.875c.232.293.495.557.753.826.566.59 1.22 1.071 1.826 1.616q.88.791 1.695 1.652c.274.288.537.578.787.887a4.2 4.2 0 0 0 .774.852c.103.072.24-.07.172-.173m-2.59-6.166a10 10 0 0 0-.447-.539 9 9 0 0 0-.51-.508.07.07 0 0 0-.11.085 9 9 0 0 0 .79 1.178 13 13 0 0 0 .971 1.032.05.05 0 0 0 .079-.06 13 13 0 0 0-.773-1.188m3.503 4.455a1 1 0 0 0-.062-.14 3 3 0 0 0-.164-.267 6 6 0 0 0-.426-.482 9 9 0 0 0-.937-.853c-.014-.012-.035.008-.02.02a5.4 5.4 0 0 1 .802.953c.113.168.207.346.307.523.048.085.107.166.16.25a1 1 0 0 0 .099.136l.041.049c.039.034.065.024.11.046a.063.063 0 0 0 .093-.053c.004-.038.025-.064.02-.104a.4.4 0 0 0-.023-.078m2.152-.401q-.241-.329-.485-.656l-.968-1.311c-.646-.875-1.3-1.744-1.95-2.616-.022-.03-.072-.002-.05.03.608.896 1.213 1.795 1.826 2.688l.919 1.34.46.67a1.16 1.16 0 0 0 .453.468c.031.013.078-.001.075-.043a1.1 1.1 0 0 0-.28-.57m2.247.115q-.23-.292-.455-.587a76 76 0 0 1-.854-1.135q-.827-1.125-1.599-2.29c-.01-.016-.035-.002-.025.015q.727 1.213 1.512 2.39.38.571.776 1.13.212.297.427.59a1.35 1.35 0 0 0 .412.438.065.065 0 0 0 .094-.073 1.3 1.3 0 0 0-.288-.478m1.947-.33c-.098-.129-.194-.257-.299-.38l-.63-.734c-.02-.023-.058.007-.041.032l.553.793q.137.19.285.372a2.2 2.2 0 0 0 .334.358.032.032 0 0 0 .051-.04 2 2 0 0 0-.253-.4m2.278-21.915q-.704-.676-1.424-1.334a71 71 0 0 0-2.919-2.514c-.014-.012-.035.008-.02.02q1.45 1.262 2.848 2.585.69.651 1.365 1.318a9.6 9.6 0 0 0 1.343 1.282.041.041 0 0 0 .056-.056 7.7 7.7 0 0 0-1.249-1.301m-.439 1.766c-.674-.504-1.262-1.12-1.886-1.682-.69-.622-1.377-1.24-2.119-1.798-.013-.01-.03.012-.018.023.596.592 1.222 1.147 1.84 1.716a24 24 0 0 1 1.795 1.706c.117.132.49.764.732.593.233-.164-.241-.48-.344-.558m-1.597.642a2 2 0 0 0-.263-.252q-.292-.251-.6-.482a4.1 4.1 0 0 0-1.301-.718.024.024 0 0 0-.023.04 13 13 0 0 0 1.146.907q.29.223.565.466a4 4 0 0 0 .275.235.57.57 0 0 0 .294.144.06.06 0 0 0 .059-.059.5.5 0 0 0-.152-.28m-2.804-.015-.228-.193a3 3 0 0 0-.524-.319q-.14-.063-.278-.13a.041.041 0 0 0-.041.07q.122.096.242.193a3 3 0 0 0 .5.318l.283.122c.036.015.082-.03.046-.06M67.978 66.33a23.7 23.7 0 0 0-5.006-2.218c-1.844-.718-3.708-1.394-5.535-2.157a11.3 11.3 0 0 0-2.472-1.112 26 26 0 0 1-2.75-.651c-1.862-.502-3.687-1.113-5.52-1.708-.018-.005-.026.022-.008.029 1.836.682 3.661 1.376 5.448 2.182.445.2.9.378 1.344.581.416.19.753.457 1.146.682a13.6 13.6 0 0 0 2.626.754c1.792.589 3.551 1.285 5.313 1.958a27 27 0 0 0 5.34 1.836.097.097 0 0 0 .074-.176m-5.528-5.933a9.3 9.3 0 0 0-2.098-.698 49 49 0 0 1-2.105-.632c-1.446-.476-2.892-.95-4.367-1.33a.023.023 0 0 0-.013.046c1.43.527 2.89.96 4.35 1.39.704.208 1.4.44 2.094.678a9.3 9.3 0 0 0 2.12.617c.038.003.05-.053.019-.071m13.518-16.596a14 14 0 0 0-2.88-.683c-.932-.178-1.864-.351-2.792-.544-.931-.194-1.85-.383-2.759-.666a29 29 0 0 0-2.816-.922c-.946-.193-1.893-.214-2.844-.36q-1.41-.214-2.806-.497c-1.944-.394-3.89-.772-5.855-1.048a.032.032 0 0 0-.018.062c1.894.565 3.816 1.02 5.744 1.451.924.206 1.842.437 2.756.68.96.256 1.866.628 2.842.834a27 27 0 0 0 2.692.236c1.052.112 2.076.31 3.112.518.97.194 1.935.406 2.901.611a12.6 12.6 0 0 0 2.71.432.053.053 0 0 0 .013-.104m-3.692 1.567c-.476-.52-1.55-.336-2.182-.35a10 10 0 0 1-2.633-.623c-1.666-.515-3.34-.863-5.038-1.25a.023.023 0 0 0-.012.046 40 40 0 0 0 5.08 1.45 13 13 0 0 1 2.575.584c.604.253 1.52.809 2.169.465a.207.207 0 0 0 .041-.322m1.893 51.977c-2.247-.533-4.472-1.12-6.658-1.868-.022-.007-.03.026-.01.034a27.2 27.2 0 0 0 6.65 1.896c.04.006.06-.052.018-.062m2.964-.671a8.8 8.8 0 0 0-2.037-.545 63 63 0 0 1-2.135-.447c-1.433-.333-2.86-.823-4.311-1.062-.015-.003-.027.018-.011.026a19 19 0 0 0 4.132 1.422c.727.192 1.46.374 2.196.527a6.8 6.8 0 0 0 2.13.21c.061-.007.107-.098.036-.13m1.307-.925a7.6 7.6 0 0 0-1.845-.158 10 10 0 0 1-2.084-.522c-1.253-.42-2.537-.766-3.803-1.144-.053-.015-.091.069-.038.091a20.4 20.4 0 0 0 3.786 1.252 18 18 0 0 1 1.971.462 6.5 6.5 0 0 0 1.931.618.306.306 0 0 0 .081-.599m.904-1.184q-.405-.054-.81-.117a56 56 0 0 1-1.51-.26 45 45 0 0 1-2.993-.644.03.03 0 0 0-.015.056 28 28 0 0 0 2.972.928q.741.181 1.494.316c.381.07.985.299 1.328.047a.066.066 0 0 0 .013-.1.62.62 0 0 0-.479-.226m1.173-1.251a.6.6 0 0 0-.39-.168c-.162-.028-.326-.05-.488-.079-.326-.057-.65-.12-.975-.18a28 28 0 0 1-1.939-.408c-.037-.01-.064.047-.027.064a15 15 0 0 0 1.865.712c.317.093.636.167.96.231.262.052.727.216.966.049a.144.144 0 0 0 .028-.221m.446-1.461a.5.5 0 0 0-.183-.091 1.4 1.4 0 0 0-.235-.072c-.149-.031-.298-.069-.448-.091-.315-.047-.63-.087-.945-.135-.08-.012-.117.103-.034.124.306.079.61.165.915.243.147.038.299.062.448.092a1.4 1.4 0 0 0 .238.028.6.6 0 0 0 .221-.01.054.054 0 0 0 .023-.088m.622-1.608c-.037.001-.076-.005-.113-.002q-.054.007-.108.01a1.3 1.3 0 0 1-.23-.022.9.9 0 0 1-.425-.183c-.02-.015-.048.01-.03.03a1 1 0 0 0 .427.256.8.8 0 0 0 .25.026 1 1 0 0 0 .123-.012.4.4 0 0 0 .12-.054.027.027 0 0 0-.014-.049m.763-1.316a3 3 0 0 0-.298-.045q-.303-.017-.606-.029a.056.056 0 0 0-.015.11q.296.07.591.137a3 3 0 0 0 .3.037.5.5 0 0 0 .292-.03.047.047 0 0 0 .01-.073.5.5 0 0 0-.274-.107m39.319 3.175a20.7 20.7 0 0 1-1.629 4.137 14 14 0 0 1-1.114 1.676 16 16 0 0 0-1.25 1.451 7.4 7.4 0 0 1-1.13 1.63 16 16 0 0 1-1.648 1.377q-.787.593-1.623 1.117a2.5 2.5 0 0 1-1.035.486 1 1 0 0 1-.367-.033 8.3 8.3 0 0 1 1.202-1.226c.379-.38.735-.785 1.12-1.16.821-.801 1.8-1.455 2.586-2.29.01-.012-.004-.033-.018-.024a31 31 0 0 0-2.522 2.2c-.439.375-.906.718-1.345 1.096q-.35.3-.697.605c-.228.198-.575.616-.886.656-.198.026-.444.17-.413.413l.013.101a.52.52 0 0 0 .36.473c.753.24.95-.497 1.462-.855.618-.431 1.286-.79 1.903-1.227 1.174-.833 2.208-1.833 3.397-2.643a4.7 4.7 0 0 0 1.257-1.545 17.5 17.5 0 0 0 1.134-2.053 13 13 0 0 0 1.289-4.356c.002-.027-.04-.03-.046-.006"/><path fill="currentColor" d="M118.323 96.952a1.2 1.2 0 0 0-.192.143 2 2 0 0 0-.16.18c-.107.13-.218.259-.313.4q-.287.426-.605.83c-.016.02.011.05.03.03q.338-.385.703-.743c.119-.117.223-.245.331-.371a2 2 0 0 0 .155-.199 1.3 1.3 0 0 0 .111-.224c.014-.033-.032-.064-.06-.046m-1.289.004c-.211.214-.429.424-.63.647a.02.02 0 0 0 .029.029c.223-.202.432-.42.646-.63a.032.032 0 0 0-.045-.046m-11.774 10.252a11 11 0 0 1-4.049 3.046 12 12 0 0 0-2.25 1.166c-.7.546-1.39 1.118-2.059 1.702-.02.017.006.051.029.037a13 13 0 0 1 2.52-1.18 3.4 3.4 0 0 0 .618-.275c.193-.125.365-.271.565-.39q.593-.348 1.164-.73a11 11 0 0 0 3.503-3.352c.016-.027-.023-.047-.04-.024m-7.635 3.405a10 10 0 0 1-1.07.789q-.552.36-1.096.732a.047.047 0 0 0 .036.086 3.4 3.4 0 0 0 1.21-.593 5.7 5.7 0 0 0 .97-.965.035.035 0 0 0-.05-.05M30.715 80.645c-.233-.847-.461-1.696-.696-2.543-.489-1.759-.96-3.522-1.479-5.272a.03.03 0 0 0-.056.016c.415 1.778.89 3.54 1.363 5.304.227.849.464 1.695.699 2.542a14.4 14.4 0 0 0 .751 2.54.047.047 0 0 0 .087-.024 15 15 0 0 0-.669-2.563m2.133.406c-.234-.831-.427-1.673-.632-2.512-.427-1.741-.91-3.468-1.41-5.19a.044.044 0 0 0-.084.023c.457 1.734.9 3.471 1.366 5.203.225.833.453 1.666.636 2.51a13.4 13.4 0 0 0 .562 2.565c.052.118.247.057.24-.065a12 12 0 0 0-.678-2.534m2.332 1.257a52 52 0 0 1-.622-2.271 87 87 0 0 0-1.286-4.53.023.023 0 0 0-.045.013c.373 1.525.781 3.04 1.237 4.543.228.75.447 1.505.64 2.265.195.762.316 1.54.522 2.299a.152.152 0 0 0 .294-.081c-.216-.757-.513-1.485-.74-2.238m2.975 2.925c-.265-.842-.508-1.69-.754-2.537q-.75-2.582-1.515-5.16a.03.03 0 0 0-.056.016q.58 2.142 1.179 4.279l.597 2.137q.14.493.268.988l.127.496c.014.057.145.418.181.544a.05.05 0 0 0-.049-.007l-.04.019a.06.06 0 0 0-.028.069l.013.062a.08.08 0 0 0 .055.056c.492.153.056-.851.022-.962m2.7 1.826q-.17-.567-.342-1.133-.317-1.053-.64-2.104a261 261 0 0 0-1.367-4.358.026.026 0 0 0-.051.014c.401 1.468.825 2.929 1.252 4.39q.309 1.055.622 2.108l.337 1.135a3 3 0 0 0 .353.965.038.038 0 0 0 .07-.019 3 3 0 0 0-.234-.998m2.261 1.299q-.321-.84-.615-1.689a69 69 0 0 1-1.099-3.49.023.023 0 0 0-.045.012q.433 1.814 1.008 3.585.287.885.605 1.76a7 7 0 0 0 .668 1.618.07.07 0 0 0 .129-.054 9.6 9.6 0 0 0-.65-1.742m3.006 1.912q-.25-.584-.49-1.175c-.298-.74-.602-1.48-.897-2.221-.011-.027-.054-.017-.046.012.235.776.489 1.54.78 2.297q.211.547.433 1.09a2.8 2.8 0 0 0 .5 1.001.039.039 0 0 0 .066-.027 2.8 2.8 0 0 0-.346-.976m1.7-.867c-.023-.044-.098-.014-.08.034a15 15 0 0 0 1.224 2.715.032.032 0 0 0 .059-.025 15 15 0 0 0-1.203-2.724m3.635 3.268c-.058-.098-.13-.19-.193-.285a5 5 0 0 0-.45-.532c-.033-.035-.087.01-.065.05a5 5 0 0 0 .358.6c.068.091.134.189.208.277a3 3 0 0 0 .246.25.035.035 0 0 0 .055-.042 3 3 0 0 0-.16-.318m2.113 1.415-.191-.196a5 5 0 0 0-.409-.357.02.02 0 0 0-.029.029 5 5 0 0 0 .363.403l.194.184c.066.063.138.12.208.18a.03.03 0 0 0 .042-.042q-.086-.104-.177-.2M194.6 82.387a9 9 0 0 0-.593-.222l-.6-.196c-.018-.006-.025.021-.008.028l.592.228c.198.076.396.14.599.202.026.007.034-.03.01-.04m-4.847-2.354c-.866-.37-1.83.324-2.562.728a8 8 0 0 0-2.131 2.015c-.007.008.003.018.01.011a4.3 4.3 0 0 1 .556-.45c.19-.13.402-.212.6-.326.189-.108.362-.25.559-.341.114-.054.216-.125.323-.188.014 0 .026.013.041.006.188-.088.372-.192.555-.29.192-.102.388-.197.572-.312a8 8 0 0 0 .523-.358q.153-.115.318-.225a6 6 0 0 1 .624-.174c.04-.01.055-.078.012-.096m-5.446-20.02a10 10 0 0 0-1.198-.516c-.04-.016-.07.052-.03.07a10 10 0 0 0 1.207.494.027.027 0 0 0 .02-.048m-73.356 7.911c-.574-1.138-1.167-2.266-1.72-3.415-.022-.046-.087-.006-.068.04.494 1.16.965 2.329 1.477 3.48a16 16 0 0 0 1.75 3.33c.025.032.083.015.07-.03a18.3 18.3 0 0 0-1.51-3.405m4.406 4.166a20 20 0 0 0-1.105-1.75c-.314-.563-.577-1.15-.878-1.721-.62-1.18-1.313-2.317-1.97-3.476-.02-.033-.067-.004-.051.03.582 1.202 1.14 2.412 1.79 3.581.312.563.665 1.1.97 1.668a17 17 0 0 0 .897 1.87.201.201 0 0 0 .347-.203m1.705-.625c-.356-.513-.665-1.066-.973-1.61a31 31 0 0 0-2-3.188.012.012 0 0 0-.02.012c.563 1.124 1.232 2.182 1.901 3.246a18 18 0 0 1 .945 1.627 6.2 6.2 0 0 0 .83 1.603.185.185 0 0 0 .306-.179 6 6 0 0 0-.988-1.51m2.786.97c-.333-.453-.612-.95-.909-1.427q-.88-1.416-1.825-2.788c-.017-.024-.056-.002-.04.024q.842 1.436 1.756 2.828c.298.455.616.904.884 1.378a4.8 4.8 0 0 0 .792 1.415.158.158 0 0 0 .26-.152c-.135-.5-.62-.874-.918-1.278m3.66 2.038a8.3 8.3 0 0 0-.874-1.112q-.48-.612-.909-1.26a24 24 0 0 1-1.471-2.572c-.007-.014-.027-.002-.02.012a24 24 0 0 0 1.433 2.646q.391.629.81 1.239a5.3 5.3 0 0 0 .896 1.152.086.086 0 0 0 .135-.105m2.177-.22q-.21-.24-.415-.486a24 24 0 0 1-.845-1.084 24 24 0 0 1-1.427-2.168.021.021 0 0 0-.037.021 22 22 0 0 0 1.382 2.238q.353.498.735.974.21.265.43.524a1.5 1.5 0 0 0 .432.43c.025.011.062-.008.051-.04a1.3 1.3 0 0 0-.306-.409m2.468.262q-.427-.456-.83-.932a32 32 0 0 1-1.573-2.015c-.007-.01-.024-.001-.017.01a21 21 0 0 0 1.467 2.03q.395.484.813.948a5.5 5.5 0 0 0 .898.877c.022.015.053-.015.038-.038a9 9 0 0 0-.796-.88m2.741.685-.686-.836a91 91 0 0 0-1.392-1.653c-.009-.01-.027.003-.019.014.429.572.86 1.14 1.302 1.702l.67.852a4 4 0 0 0 .695.792c.027.02.05-.016.04-.04a4 4 0 0 0-.61-.83m2.354.713c-.06-.08-.118-.163-.182-.24l-.438-.53c-.287-.348-.593-.68-.89-1.02-.017-.019-.053.008-.036.03.266.352.524.713.8 1.058l.419.521q.101.126.21.246a1.2 1.2 0 0 0 .237.229.03.03 0 0 0 .043-.033 1 1 0 0 0-.163-.261m2.009.504q-.05-.057-.105-.108c-.075-.067-.15-.137-.23-.198-.156-.123-.321-.237-.482-.355-.018-.013-.039.016-.023.031.141.139.279.283.425.417q.11.097.226.188.055.043.113.08a1 1 0 0 0 .135.083c.02.009.046-.01.032-.032a1 1 0 0 0-.09-.106m.582-.021c-.02-.01-.038.02-.018.03.169.088.336.179.51.257.015.008.029-.014.013-.023-.164-.095-.336-.178-.505-.264m6.885-.127c-.444-.526-.898-1.042-1.35-1.56-.037-.043-.095.018-.061.06.426.53.85 1.061 1.283 1.584a15 15 0 0 0 1.34 1.526c.024.022.065-.006.047-.035a15 15 0 0 0-1.26-1.576m4.819 2.915c-.207-.482-.729-.793-1.065-1.182-.39-.452-.733-.952-1.088-1.431-.67-.904-1.337-1.811-1.99-2.727-.012-.016-.038-.002-.027.016a49 49 0 0 0 1.965 2.86c.34.457.707.898 1.032 1.365a4.8 4.8 0 0 0 .94 1.332c.156.11.292-.096.233-.233m-.114-3.228a9 9 0 0 0-.994-.95.014.014 0 0 0-.02.02c.287.353.552.723.845 1.072.29.344.6.67.9 1.006.022.025.063-.008.046-.036a8 8 0 0 0-.777-1.112m2.844 3.642q-.188-.215-.381-.426-.388-.422-.75-.867c-.015-.019-.047.006-.033.026q.327.472.625.963.149.244.304.486a1.6 1.6 0 0 0 .368.439.13.13 0 0 0 .188-.145 1.6 1.6 0 0 0-.32-.476m3.157 1.174q-.24-.31-.477-.622-.443-.585-.864-1.186c-.58-.826-1.14-1.668-1.754-2.468-.02-.025-.061-.003-.044.026.533.872 1.125 1.71 1.694 2.559q.42.627.815 1.27l.405.665a1.6 1.6 0 0 0 .406.514c.098.071.223-.046.196-.15a1.8 1.8 0 0 0-.377-.608m2.978 1.144-.376-.51q-.387-.527-.769-1.058-.746-1.05-1.437-2.137a.023.023 0 0 0-.04.024q.652 1.13 1.362 2.225.343.532.705 1.05.196.275.394.545a1.25 1.25 0 0 0 .38.394.042.042 0 0 0 .06-.046 1.4 1.4 0 0 0-.28-.487m1.76-.349a55 55 0 0 0-1.126-1.336c-.013-.014-.04.005-.027.022q.502.691 1.026 1.365a14 14 0 0 0 1.126 1.336.018.018 0 0 0 .027-.022 14 14 0 0 0-1.026-1.365m3.279 1.839a4 4 0 0 0-.213-.273c-.154-.18-.319-.351-.484-.52-.332-.339-.691-.648-1.045-.962a.016.016 0 0 0-.022.022c.295.372.585.75.907 1.1.154.17.312.34.477.498.089.086.18.163.276.24.086.07.164.154.256.216.032.022.07-.02.051-.05-.057-.096-.137-.18-.203-.27m2.898 1.036c-.027-.031-.047-.067-.077-.096q-.04-.037-.082-.072a2.4 2.4 0 0 0-.372-.278q-.19-.11-.381-.215c-.136-.076-.272-.15-.405-.231-.034-.02-.073.028-.043.055q.168.151.328.309c.053.05.1.104.154.154l.172.156a2.3 2.3 0 0 0 .362.268 1.3 1.3 0 0 0 .209.106.7.7 0 0 0 .196.071.057.057 0 0 0 .055-.071.6.6 0 0 0-.116-.156m2.644 1.019a8 8 0 0 0-.682-.418 4 4 0 0 0-.34-.17 7 7 0 0 1-.387-.17.022.022 0 0 0-.022.036c.112.07.223.138.33.215a4 4 0 0 0 .348.21 8 8 0 0 0 .723.347.03.03 0 0 0 .03-.05m7.235-14.045c-.423.417-.777.89-1.238 1.273-.42.349-.876.535-1.098 1.065-.231.552-.4 1.137-.59 1.705l-.308.914c-.05.146-.104.294-.147.444a5.3 5.3 0 0 1-.27-1.25 6.2 6.2 0 0 1 .024-1.562c.002-.013-.021-.016-.023-.003a7.5 7.5 0 0 0-.078 1.617c.033.572.219 1.11.274 1.675.011.11.166.218.254.105a5.3 5.3 0 0 0 .635-1.605c.193-.581.37-1.17.577-1.745.386-1.07 1.535-1.586 2.077-2.565a.057.057 0 0 0-.089-.068m-2.558-2.421a3 3 0 0 1-.341.34 4 4 0 0 0-.338.366 4.6 4.6 0 0 0-.51.818c-.018.045.043.065.072.042a3 3 0 0 0 .343-.338 3 3 0 0 0 .308-.377 4 4 0 0 0 .253-.411 3.5 3.5 0 0 1 .237-.421c.01-.014-.013-.033-.024-.019m-3.2-16.756a5.2 5.2 0 0 0-1.437 1.583 5.6 5.6 0 0 0-.63 2.046c-.008.058.079.062.096.013a11 11 0 0 1 .894-1.848 12 12 0 0 1 1.143-1.708c.036-.044-.012-.127-.066-.086m-51.617-10.756c-.247-.41-.528-.8-.802-1.192a.016.016 0 0 0-.027.015c.228.42.45.845.706 1.249.257.405.523.8.797 1.195a.02.02 0 0 0 .034-.02q-.34-.63-.708-1.247m8.515 7.16a3.6 3.6 0 0 0-.478-.673q-.25-.33-.488-.667c-.326-.461-.613-.95-.9-1.435-.277-.47-.572-.927-.875-1.38a1.55 1.55 0 0 0-.829-.704c-.017-.005-.028.021-.012.029.414.187.64.67.872 1.036q.428.675.888 1.329c.296.422.587.852.84 1.302.127.225.256.448.378.675a3 3 0 0 0 .389.654c.113.124.271-.034.215-.166m.625-1.402c-.314-.42-.66-.818-1.01-1.208-.026-.028-.064.013-.042.042.327.42.632.853.94 1.287a13 13 0 0 0 .899 1.23c.018.021.06 0 .049-.028a6.5 6.5 0 0 0-.836-1.323m2.45.186a.027.027 0 0 0-.04.038c.252.26.499.525.774.76a.018.018 0 0 0 .025-.025c-.235-.276-.5-.522-.76-.773m-126.499 8.3c-.007-.013-.026-.001-.02.012a40 40 0 0 0 1.848 3.61c.016.026.052.003.04-.024a40 40 0 0 0-1.868-3.598m4.425 4.603c-.302-.656-.61-1.309-.915-1.963q-.915-1.963-1.846-3.917c-.009-.019-.035-.003-.027.016q.855 1.952 1.727 3.897l.855 1.909a14.4 14.4 0 0 0 .951 1.942.024.024 0 0 0 .043-.018 14 14 0 0 0-.788-1.866m-.64-5.287a.035.035 0 0 0-.06.035c.58 1.218 1.154 2.445 1.779 3.64a.024.024 0 0 0 .043-.017 19 19 0 0 0-1.762-3.658m3.823 8.095-.16-.364c-.1-.225-.212-.444-.32-.665a66 66 0 0 1-.658-1.384c-.007-.014-.031-.004-.025.01.186.476.372.951.547 1.43.085.232.166.464.26.692l.143.342c.043.102.073.221.177.273a.07.07 0 0 0 .1-.04.42.42 0 0 0-.064-.294m.644-3.223c-.35-.766-.703-1.53-1.078-2.283-.007-.013-.031-.004-.025.01.31.754.642 1.499.978 2.242.346.766.672 1.546 1.07 2.288.012.022.052.007.042-.019-.288-.762-.648-1.498-.987-2.238m13.66-33.289c-.29.591-.587 1.175-.845 1.782a38 38 0 0 0-.7 1.798c-.016.044.055.073.075.032.294-.59.58-1.18.843-1.784.257-.591.47-1.196.696-1.799.014-.04-.05-.066-.068-.029m199.865 99.183a79 79 0 0 0-3.075-2.712c-.028-.024-.07.015-.041.041a79 79 0 0 0 3.07 2.716c.032.026.077-.017.046-.046m3.29-1.086a7.4 7.4 0 0 0-1.285-.915q-.698-.43-1.387-.878a42 42 0 0 1-2.673-1.885c-.03-.022-.065.026-.04.051a29 29 0 0 0 2.49 2.119c.44.33.887.647 1.35.943a5.4 5.4 0 0 0 1.454.722.094.094 0 0 0 .091-.157m1.177-2.565a1 1 0 0 1-.146-.137.8.8 0 0 0-.141-.155 1.7 1.7 0 0 0-.36-.153c-.259-.094-.516-.184-.772-.285-.507-.2-1.01-.41-1.518-.606-.083-.032-.121.091-.057.136a10 10 0 0 0 1.007.611c-.021.028-.028.066.01.085.253.126.496.274.75.398.126.06.26.114.392.165a2.4 2.4 0 0 0 .405.116c.036.007.05-.02.048-.048.111 0 .23-.024.34-.023a.061.061 0 0 0 .042-.104M164.257 89.33c-1.536-.772-3.147-1.358-4.752-1.975q-2.564-.984-5.14-1.936c-3.385-1.251-6.791-2.545-10.27-3.514-.022-.006-.03.026-.009.034 3.317 1.348 6.73 2.475 10.089 3.712q2.52.928 5.028 1.886c1.67.639 3.319 1.332 5.033 1.842.028.008.048-.035.02-.048m9.56 3.151-.003.005.34.17.003-.004Zm-5.748-.457c-1.718-.718-3.526-1.253-5.294-1.836l-5.316-1.755c-3.538-1.168-7.073-2.397-10.66-3.404-.02-.005-.026.021-.008.028 3.487 1.323 7.063 2.436 10.607 3.6l5.2 1.708c1.804.593 3.612 1.254 5.458 1.705a.023.023 0 0 0 .013-.046m3.903-.996c-1.003-.335-2.041-.582-3.065-.845l-3.08-.794a.018.018 0 0 0-.009.034l3.062.86c1.018.285 2.04.593 3.075.807a.032.032 0 0 0 .017-.062m4.615 3.058a32 32 0 0 0-5.83-1.952.018.018 0 0 0-.009.034c1.96.594 3.874 1.322 5.81 1.988.04.014.068-.052.029-.07m-6.709-.357c-.009-.004-.016.012-.007.015 5.13 2.193 10.452 3.979 15.695 5.875.014.006.02-.017.006-.022-5.218-1.99-10.479-3.871-15.694-5.869m22.507 8.241c-.322-.134-.667-.22-.998-.331q-.5-.166-.994-.345-.988-.358-1.957-.766l-.002.005q.947.415 1.915.783.492.186.989.36a9 9 0 0 0 1.036.334.02.02 0 0 0 .011-.04m4.43-.654a16.5 16.5 0 0 0-2.268-.757q-1.245-.395-2.484-.812-2.475-.839-4.92-1.765c-3.33-1.261-6.602-2.658-9.854-4.106-.034-.015-.064.034-.03.05 3.105 1.504 6.29 2.846 9.509 4.084q2.44.938 4.912 1.79 1.236.425 2.478.833a15.6 15.6 0 0 0 2.62.774c.05.007.093-.064.037-.091"/><path fill="currentColor" d="M281.212 113.605a20.3 20.3 0 0 0-3.284-3.373c-2.43-2.44-4.271-5.472-6.232-8.285l-6.392-9.164a151 151 0 0 1-11.12-18.091q-2.382-4.7-4.344-9.598c-1.2-3.007-2.18-6.092-3.344-9.112a22.1 22.1 0 0 0-4.656-7.876 25.3 25.3 0 0 0-3.93-3.018q-2.075-1.387-4.093-2.859a139 139 0 0 1-15.795-13.63 24 24 0 0 0-7.703-5.616 18.3 18.3 0 0 0-4.08-1.076 12.8 12.8 0 0 1-2.62-1.546 6.2 6.2 0 0 1-1.318-1.17 8 8 0 0 1-.716-1.302c-1.014-2.115-2.195-4.1-3.409-6.105s-2.402-4.026-3.697-5.98c-1.3-1.96-2.71-3.84-4.04-5.779-.04-.058-.134-.005-.096.056 1.325 2.118 2.552 4.298 3.846 6.435 1.274 2.104 2.564 4.202 3.689 6.391.555 1.08 1.018 2.202 1.544 3.296a30 30 0 0 0 1.58 3.258 5.6 5.6 0 0 0 3.03 2.205 39 39 0 0 0-3.28-.072c-1.586.027-3.172.183-4.757.268a.144.144 0 0 0 0 .287c6.27-.087 13.057.305 18.11 4.45 2.49 2.043 4.634 4.496 6.968 6.71a120 120 0 0 0 7.598 6.6q3.903 3.122 8.04 5.934a28 28 0 0 1 3.834 2.964 15.8 15.8 0 0 1 2.668 3.52 49 49 0 0 1 3.377 8.266q1.649 4.71 3.683 9.272a119 119 0 0 0 9.568 17.466c3.96 5.964 8.147 11.78 12.245 17.65a39 39 0 0 0 6.186 7.308 6.4 6.4 0 0 1 2.411 3.293 5.4 5.4 0 0 1-.517 3.491c-2.764 5.625-10.43 4.42-15.308 2.88a33.8 33.8 0 0 1-13.384-8.129 35.3 35.3 0 0 1-8.35-13.05c-.23-.618-.47-1.233-.706-1.848a17 17 0 0 1-.692-1.71 14 14 0 0 1 .035-1.47 10.2 10.2 0 0 1 1.342-4.056 9.84 9.84 0 0 1 6.636-4.558c.023-.004.018-.042-.005-.04a9.8 9.8 0 0 0-3.983 1.005 10.1 10.1 0 0 0-3.17 2.752 9.2 9.2 0 0 0-1.724 3.896.3.3 0 0 0-.12-.012l-.052.007.036-.005-.051.002h-.098c-.005.001 0 .002-.003.002a.1.1 0 0 0-.033-.007.3.3 0 0 0-.063-.007l-.042-.003v-.002q.006 0 0 0a121 121 0 0 0-4.56-11.31c-1.707-3.685-3.693-7.194-5.631-10.757a29.3 29.3 0 0 1-2.744-6.19 9.8 9.8 0 0 1 .536-6.632.018.018 0 0 0-.03-.018 9.27 9.27 0 0 0-1.402 4.577 10.5 10.5 0 0 1-.461-3.132 25 25 0 0 1 .777-6.584c.017-.056-.063-.074-.085-.024a20.2 20.2 0 0 0-1.378 6.495 11.9 11.9 0 0 0 .554 4.113 18 18 0 0 0-1.396-1.567 27.4 27.4 0 0 0-3.316-2.806c-1.256-.887-2.586-1.68-3.88-2.513-.021-.015-.049.02-.028.036a48 48 0 0 1 6.421 5.651 22.3 22.3 0 0 1 2.438 3.154c.3.486.568.987.834 1.488a16 16 0 0 0 .52 1.674 40.6 40.6 0 0 0 2.683 5.38q1.5 2.68 2.876 5.428a118.7 118.7 0 0 1 8.608 23.033c.57 2.195 1.096 4.408 1.52 6.636a21.3 21.3 0 0 1 .327 6.942.183.183 0 0 0 .332.14 6 6 0 0 0 .281-.482c.42 3.527 1.095 7.031 1.803 10.505q1.375 6.743 3.177 13.38a98 98 0 0 1 2.952 13.525c.583 4.586.93 9.205 1.356 13.808l2.593 28.007c.205 2.21.635 4.578.22 6.786a4.94 4.94 0 0 1-2.831 3.915c-1.91.67-4.088-.326-5.643-1.412a17 17 0 0 1-3.892-4.039 48.9 48.9 0 0 1-8.426-22.727c-.12-.96-.274-1.916-.406-2.876a.166.166 0 0 0-.203-.151q-.11-.937-.25-1.868c-.273-1.793-.636-3.576-.957-5.362-.62-3.448-1.186-6.911-1.87-10.347a17.7 17.7 0 0 0-1.559-4.632 18.5 18.5 0 0 1-1.582-4.737c-.733-3.525-1.452-7.052-2.21-10.572-.409-1.893-.935-3.762-1.345-5.65a31 31 0 0 1-.678-6.17.044.044 0 0 0-.088 0 29.3 29.3 0 0 0-.047 5.307c.141 1.747.267 3.464.558 5.196.596 3.539 1.385 7.051 2.099 10.567a30.3 30.3 0 0 0 1.22 4.996 44 44 0 0 1 1.886 4.536c.442 1.663.69 3.38.994 5.07l.964 5.36 1.051 5.846q.262 1.459.623 2.897a26 26 0 0 0 .811 2.507 34.7 34.7 0 0 0 1.512 9.867 47 47 0 0 0 2.091 5.688c-.002 1.7.195 3.403.34 5.097.165 1.931.295 3.869.316 5.807a38 38 0 0 1-.34 5.82c-.21 1.471-.424 3.286-1.569 4.359-1.186 1.111-3.048 1.05-4.5.596a9.25 9.25 0 0 1-4.1-2.85 24.7 24.7 0 0 1-2.914-4.457q-1.353-2.461-2.53-5.015a50.3 50.3 0 0 1-3.78-10.625c-.4-1.91-.536-3.857-.804-5.788a38 38 0 0 0-1.24-5.508 105 105 0 0 1-2.97-11.02c-.342-1.897-.516-3.814-.815-5.717a22.8 22.8 0 0 0-1.545-5.285 58 58 0 0 1-2.26-5.833 57 57 0 0 1-1.403-6.274c-.39-2.177-.745-4.36-1.105-6.543a84 84 0 0 0-.573-3.187q-.075-.751-.156-1.502a3.16 3.16 0 0 0-.682-1.948 5.2 5.2 0 0 0-1.846-1.004c-.695-.3-1.34-.69-2.015-1.027a14.3 14.3 0 0 1-3.662-2.953 70 70 0 0 1-3.199-3.502c-.026-.03-.077.009-.055.042a27.1 27.1 0 0 0 5.628 6.752 12.6 12.6 0 0 0 1.704 1.257c.615.348 1.264.593 1.906.883a1.53 1.53 0 0 1 .777.605 3.4 3.4 0 0 1 .24.591c-.508-.216-1.053-.374-1.559-.572a51 51 0 0 1-2.52-1.059c-1.572-.715-3.105-1.53-4.604-2.385a.027.027 0 0 0-.028.047 51 51 0 0 0 4.693 2.573q1.163.567 2.352 1.077a13 13 0 0 0 1.806.713c.01.024.016.051.027.075l.022.053c.02.648.077 1.298.133 1.948l-.087-.037-1.004-.44c-.694-.302-1.394-.593-2.09-.89-1.323-.565-2.651-1.116-3.976-1.675-.006-.002-.01.008-.005.011 1.347.623 2.69 1.253 4.04 1.869.664.303 1.324.614 1.99.91l1 .446.15.069c.255 2.72.774 5.441 1.227 8.097a53.4 53.4 0 0 0 3.029 11.517 34 34 0 0 1 1.945 5.477c.427 1.912.562 3.877.858 5.81a82 82 0 0 0 2.93 11.53 42 42 0 0 1 1.42 5.798c.312 2.012.421 4.051.823 6.05.135.669.3 1.332.478 1.993.395 3.75 1.135 7.453 1.72 11.18a9.24 9.24 0 0 1-.568 5.925 3.93 3.93 0 0 1-4.149 2.224 8.62 8.62 0 0 1-4.608-3.09 21 21 0 0 1-2.877-4.63c-1.88-3.893-3.447-7.955-5.137-11.933l-5.446-12.817c-1.766-4.158-3.59-8.302-5.07-12.573-1.458-4.205-2.246-8.561-3.472-12.828-1.223-4.253-3.309-8.18-4.256-12.523-.902-4.136-1.197-8.441-2.723-12.421q-.032-.081-.067-.162a4 4 0 0 0-.06-.418.1.1 0 0 0 .077-.13 16.5 16.5 0 0 1-1.075-4.54.65.65 0 0 0-.447-.587c-1.665-.671-3.223-1.534-4.853-2.271a33 33 0 0 1-2.36-1.214 22 22 0 0 1-2.34-1.365c-.056-.041-.13.052-.075.096.717.585 1.362 1.256 2.09 1.825.713.56 1.453 1.112 2.202 1.624a17 17 0 0 0 1.911 1.104c.233.227.467.454.68.698a7.4 7.4 0 0 1 .864 1.258c-.51-.18-1.042-.314-1.538-.487a43 43 0 0 1-2.888-1.132 42.5 42.5 0 0 1-5.224-2.62c-.026-.015-.048.024-.024.041a36.5 36.5 0 0 0 5.208 3.025c.859.394 1.736.747 2.623 1.07a11.5 11.5 0 0 0 2.16.684l.228.434a26 26 0 0 1 1.171 2.479c1.592 4 2.011 8.29 2.845 12.482a39 39 0 0 0 1.92 6.552c.833 2.135 1.737 4.239 2.394 6.437 1.305 4.366 2.077 8.851 3.566 13.168 1.501 4.354 3.362 8.575 5.161 12.81l3.468 8.163a28 28 0 0 0 1.17 5.602 14.5 14.5 0 0 1 .748 5.713 4.7 4.7 0 0 1-2.397 3.679 5.4 5.4 0 0 1-4.596-.348c-2.825-1.41-4.612-4.262-5.95-7.01-1.491-3.063-2.646-6.274-4.185-9.318-3.455-6.833-7.549-13.31-10.28-20.496a61 61 0 0 1-1.803-5.495 27.5 27.5 0 0 0-1.767-5.17c-.881-1.749-1.899-3.389-2.62-5.22-.692-1.757-1.27-3.558-1.878-5.345l-4.416-12.986c-1.246-3.666-2.426-7.413-3.922-11a31 31 0 0 0 2.735 2.017c.118.078.245-.096.15-.194a49.6 49.6 0 0 1-5.527-6.97 31.8 31.8 0 0 1-3.944-8.21c-1.05-3.305-1.82-6.706-2.684-10.063l-2.629-10.215q-.742-2.884-1.5-5.764-.376-1.44-.778-2.875a16 16 0 0 0-.426-1.292q.384-.006.767-.047a23 23 0 0 0 2.409 1.119c2.438.925 4.916 1.744 7.371 2.622 4.918 1.756 9.812 3.683 14.817 5.178 1.858.555 3.748.941 5.568 1.583a25.65 25.65 0 0 0 11.888 5.905 31.4 31.4 0 0 0 5.326.73c.487.174.971.36 1.46.532q1.672.588 3.35 1.163c1.147.392 2.302.863 3.481 1.148a.073.073 0 0 0 .04-.141c-1.12-.472-2.324-.788-3.476-1.175q-1.68-.565-3.355-1.144c-.349-.12-.696-.248-1.045-.37a26 26 0 0 0 4.286-.208c.712.254 1.42.52 2.118.81q.803.331 1.601.674a10 10 0 0 0 1.502.643.133.133 0 0 0 .102-.241 7.5 7.5 0 0 0-1.537-.713 26 26 0 0 0-1.544-.59q-.986-.335-1.987-.623a21 21 0 0 0 2.916-.614l.058.025q.285.117.572.228l.065.027c.007.005.003.016.012.018.056.016.109.037.164.053.341.135.683.271 1.02.417q.301.13.6.267a7 7 0 0 0 .593.28 1.1 1.1 0 0 0 .305.029 1.7 1.7 0 0 1 .335.074 5 5 0 0 1 .724.252.02.02 0 0 0 .02-.033 8 8 0 0 1-.609-.45 3 3 0 0 1-.252-.219 1.7 1.7 0 0 0-.227-.243 3.4 3.4 0 0 0-.556-.26q-.32-.145-.642-.282a22 22 0 0 0-1.22-.48l-.03-.011a17 17 0 0 0 1.78-.752 5.7 5.7 0 0 0 1.466.566 9 9 0 0 1 .962.322 3.5 3.5 0 0 0 .924.351.03.03 0 0 0 .021-.05 3 3 0 0 0-.817-.358 8 8 0 0 1-1-.478 7 7 0 0 0-1.178-.546 10.9 10.9 0 0 0 2.842-2.051 4.4 4.4 0 0 0 .95-1.484c.016.017.03.038.046.054a9 9 0 0 0 .976.905c.395.305.837.545 1.256.816 1.649 1.064 3.213 2.249 4.918 3.227.049.027.108-.043.062-.08-1.4-1.144-2.881-2.203-4.234-3.406a18 18 0 0 0-1.992-1.758 4.4 4.4 0 0 1-.804-.65 4.3 4.3 0 0 0-.784-3.002c-1.317-1.922-3.495-3.085-5.405-4.32l-3.673-2.374c-.266-.518-.563-1.024-.837-1.531-.44-.816-.889-1.628-1.336-2.44-.856-1.554-1.714-3.103-2.625-4.624a37 37 0 0 0 8.262 5.196.1.1 0 0 0 .1-.172c-2.727-1.766-5.35-3.66-7.936-5.625a4.8 4.8 0 0 0 .811-.712 5 5 0 0 0 .467.518c.481.495 1.013.941 1.537 1.388q1.468 1.253 3.022 2.398a62 62 0 0 0 6.68 4.264 112 112 0 0 0 14.365 6.381 70 70 0 0 0 8.61 2.692.07.07 0 0 0 .037-.135 148 148 0 0 1-14.483-5.896 106 106 0 0 1-13.487-7.75q-1.768-1.24-3.449-2.6c-.538-.436-1.06-.89-1.592-1.331a5.8 5.8 0 0 0-1.103-.835 4 4 0 0 0 .174-.423 4.67 4.67 0 0 0 .03-2.579c-.008-.093-.024-.184-.036-.276.156.318.317.634.5.933a.047.047 0 0 0 .086-.036 44 44 0 0 0-1.808-4.849c-.62-1.616-1.22-3.242-1.817-4.867a.023.023 0 0 0-.045.013 72 72 0 0 0 1.603 5.023l.495 1.392a12.5 12.5 0 0 0-2.483-2.285c-.018-.055-.033-.108-.062-.176-.14-.333-.32-.647-.454-.983-.25-.626-.453-1.273-.663-1.913q-.623-1.889-1.2-3.793a.035.035 0 0 0-.068.02 100 100 0 0 0 1.16 3.803c.203.618.42 1.232.613 1.854.085.277.146.557.212.838l-.284-.216a100 100 0 0 0-5.551-3.959c-.292-.573-.61-1.133-.886-1.714-.352-.74-.673-1.495-1-2.246-.013-.03-.06-.009-.05.02a30 30 0 0 0 1.323 3.529q-1.124-.74-2.262-1.457a25 25 0 0 0-1.354-2.185 23 23 0 0 1-1.336-2.893c-.781-1.974-1.439-3.994-2.24-5.96-.01-.024-.05-.015-.041.012A73 73 0 0 0 177.6 50.9c.352.89.744 1.76 1.155 2.623a15 15 0 0 0 .872 1.693c-.822-.51-1.646-1.017-2.477-1.512-.132-.294-.302-.577-.448-.851-.236-.446-.494-.88-.738-1.322a25 25 0 0 1-1.39-3.034 58 58 0 0 1-1.952-6.09.014.014 0 0 0-.026.008 44.4 44.4 0 0 0 1.958 6.311c.392 1.006.802 2.006 1.194 3.012.174.447.354.984.585 1.486-.642-.378-1.279-.762-1.925-1.133a5 5 0 0 0-.491-1.108 61 61 0 0 0-.717-1.396 25.5 25.5 0 0 1-1.424-3.148c-.765-2.072-1.399-4.195-1.97-6.328a.031.031 0 0 0-.06.017 45 45 0 0 0 1.963 6.446c.4 1.046.784 2.097 1.18 3.144q.247.655.54 1.29c.104.223.203.47.32.704q-1.097-.625-2.201-1.238c-.238-.474-.502-.939-.706-1.388q-.725-1.595-1.31-3.247a53 53 0 0 1-1.85-6.492c-.007-.035-.058-.02-.053.015a41.3 41.3 0 0 0 1.672 6.778q.55 1.624 1.214 3.208c.094.226.187.466.284.71l-.629-.348q-.69-.38-1.383-.758a4 4 0 0 0-.148-.37c-.104-.24-.204-.48-.312-.718-.21-.465-.434-.923-.66-1.381a.037.037 0 0 0-.068.028c.167.493.334.984.519 1.47q.137.353.278.703l.029.07c-5.994-3.282-12.03-6.524-18.295-9.255q-3.834-1.672-7.788-3.023c-.001-.218-.005-.436.001-.651.019-.657.054-1.313.095-1.969q.132-2.082.464-4.141c.002-.015-.02-.021-.023-.006a43 43 0 0 0-.588 4.069 34 34 0 0 0-.129 2.047l-.02.584a100 100 0 0 0-2.063-.681c.006-.566-.016-1.136-.005-1.698.015-.741.055-1.481.107-2.22a39 39 0 0 1 .621-4.658c.007-.033-.044-.047-.05-.014a39 39 0 0 0-.692 4.583 34 34 0 0 0-.12 2.309c-.011.539-.038 1.1-.01 1.65-.135-.043-.269-.09-.404-.132-2-.618-4.014-1.186-6.03-1.746a3 3 0 0 0-.385-1.155q-.458-.949-.921-1.895c-.648-1.318-1.323-2.625-1.98-3.939-1.148-2.299-2.312-4.891-4.308-6.58a.035.035 0 0 0-.055.042c.556 1.208 1.217 2.355 1.82 3.54a91 91 0 0 1 1.713 3.615c.577 1.27 1.136 2.55 1.712 3.82.308.678.627 1.352.942 2.027.023.05.046.091.069.139a420 420 0 0 1-3.71-1.042 129 129 0 0 1-12.307-4.195 226 226 0 0 1-6.059-2.545c-1.422-.617-2.86-1.29-4.34-1.79a20 20 0 0 0-2.567-2.478 6.7 6.7 0 0 0-3.645-1.212c-3.003-.22-6.036-.213-9.046-.337q-4.584-.19-9.166-.432-9.164-.486-18.315-1.187-4.574-.35-9.145-.747c-1.48-.129-2.962-.297-4.446-.39-1.565-.097-3.124-.142-4.69-.279q-5.059-.442-10.111-.95-1.377-.138-2.754-.283a7 7 0 0 1-2.152-1.21 7.9 7.9 0 0 0-2.508-1.12 199 199 0 0 1-6.554-2.11c-.027-.01-.036.03-.011.041 2.278.935 4.523 1.963 6.775 2.958a10 10 0 0 1 1.38.682 8 8 0 0 1 .689.514l-.038-.004a43 43 0 0 0-5.17-.325.032.032 0 0 0-.008.063 60 60 0 0 0 8.872 1.44q4.435.567 8.876 1.084 2.22.259 4.442.504c1.53.17 3.032.457 4.567.6q4.507.42 9.02.788Q78.029 20.9 96.13 21.51a20.7 20.7 0 0 1 4.68.333c1.542.42 2.67 1.787 3.798 2.842 2.467 2.307 5 4.514 7.585 6.688a.111.111 0 0 0 .157-.158q-2.346-2.712-4.775-5.34l1.152.56c1.656.809 3.35 1.55 5.043 2.28a109 109 0 0 0 10.303 3.906c6.953 2.2 14.098 3.763 20.924 6.363 1.434.546 2.85 1.134 4.257 1.743-.045.043-.1.074-.143.119a6 6 0 0 0-.534.706c-.181.259-.392.502-.595.745a11.9 11.9 0 0 0-1.873 2.958c-.008.019.023.03.032.014a14.8 14.8 0 0 1 2.044-2.887 4 4 0 0 1 .65-.572c.236-.159.487-.291.72-.456.141-.1.274-.213.409-.323 4.968 2.193 9.785 4.727 14.563 7.301 4.927 2.654 9.837 5.357 14.612 8.282.03.008.06.022.091.031a3 3 0 0 0-.5.152 3 3 0 0 0-.692.486 8 8 0 0 1-.788.58.015.015 0 0 0 .015.026 4.5 4.5 0 0 1 .834-.315c.227-.054.463-.073.693-.12a6.3 6.3 0 0 1 1.412-.226c.123.002.241.021.361.033.228.138.446.278.637.408.736.504 1.426 1.071 2.15 1.591 1.46.968 2.9 1.966 4.305 3.013.257.13.507.275.754.424-.223.009-.436.03-.621.055a4.6 4.6 0 0 0-2.707 1.342 4.9 4.9 0 0 0-1.3 2.249c-.059.236-.065.523-.146.749-.253.704-.831.517-1.315.305a11 11 0 0 1-1.374-.77 12.2 12.2 0 0 1-2.61-1.889 4.15 4.15 0 0 1-1.431-2.594 2.9 2.9 0 0 1 .289-1.606 1.96 1.96 0 0 1 1.345-1.038 6 6 0 0 1 1.45-.308 2.3 2.3 0 0 0 .506-.11 1.46 1.46 0 0 1 .896-.028.023.023 0 0 0 .013-.046c-.351-.136-.647-.306-.98-.463a1.85 1.85 0 0 0-1.15-.003 2.92 2.92 0 0 0-1.823 1.35 4.53 4.53 0 0 0-.24 4.128 3.64 3.64 0 0 0 1.38 1.9 7.7 7.7 0 0 0 2.333 1.263c.439.14.882.248 1.316.405a1.95 1.95 0 0 0 1.121.23.62.62 0 0 0 .384-.373 9.4 9.4 0 0 1 .586-1.275 5.74 5.74 0 0 1 2.433-2.11 5.8 5.8 0 0 1 1.878-.486c.3-.028.617 0 .927-.006a4 4 0 0 1 .267.257 2 2 0 0 1 .14.2l.03.012a6.3 6.3 0 0 1 1.633 1.946 3 3 0 0 1 .178.461 5.1 5.1 0 0 1-.068 3.018 4.14 4.14 0 0 1-2.528 1.867 15.8 15.8 0 0 1-3.927.715 22 22 0 0 1-2.18.065 9 9 0 0 0-.827.008 67 67 0 0 0-3.202-1.906c-4.464-2.467-9.391-3.789-14.042-5.827-4.4-1.928-8.293-4.753-12.466-7.096a35.7 35.7 0 0 0-6.49-2.922 50.5 50.5 0 0 0-7.339-1.635c-2.482-.408-4.977-.756-7.431-1.316a47 47 0 0 1-7.141-2.403c-.283-.114-.555-.249-.833-.371a1.2 1.2 0 0 0-.264-.566c-.194-.307-.405-.602-.615-.898a61 61 0 0 1-1.265-1.854c-.785-1.194-1.561-2.4-2.45-3.52-.012-.016-.037.005-.027.021.742 1.269 1.583 2.478 2.376 3.715q.585.915 1.111 1.865c.177.317.352.633.542.942l.025.042a45 45 0 0 1-2.408-1.2c-.005-.01-.005-.021-.01-.032a3.3 3.3 0 0 0-.271-.456 13 13 0 0 0-.606-.873 9.5 9.5 0 0 1-1.103-1.719c-.007-.014-.03-.004-.025.01a20 20 0 0 0 .83 1.844c.139.287.299.56.465.832q-1.047-.582-2.084-1.185a9 9 0 0 0-.717-1.194c-.315-.523-.6-1.063-.902-1.594q-.891-1.568-1.86-3.09a.025.025 0 0 0-.043.026q.92 1.55 1.77 3.142c.278.522.56 1.044.802 1.584.101.226.187.484.283.737l-1.944-1.138a1.06 1.06 0 0 0-.01-.496 3 3 0 0 0-.291-.55q-.297-.5-.63-.977a10.7 10.7 0 0 0-1.65-1.814 18.2 18.2 0 0 0-3.893-2.84.032.032 0 0 0-.032.056 13.4 13.4 0 0 1 3.663 3.047c.481.612.922 1.29 1.347 1.942q.317.487.596.998.042.076.082.156-1.906-1.118-3.813-2.232c-1.146-.666-2.287-1.319-3.47-1.915q-.138-.083-.277-.162-.091-.05-.19-.09.004-.01.01-.016a.19.19 0 0 1 .18-.012.015.015 0 0 0 .012-.027.6.6 0 0 0-.216-.045 1 1 0 0 0-.105-.01.24.24 0 0 0-.143.074.124.124 0 0 0 0 .174q.1.102.203.202.054.049.112.094a.2.2 0 0 0 .064.096c.086.061.176.117.262.178l.012.009c.019.016.044.027.065.043 2.078 1.444 4.27 2.722 6.427 4.044 2.168 1.329 4.33 2.669 6.52 3.96a48 48 0 0 0 6.345 3.346 37 37 0 0 0 7.038 1.948c4.215.791 8.54 1.213 12.629 2.543-.096.033-.194.056-.29.096a6.1 6.1 0 0 0-2.264 1.834 21.9 21.9 0 0 0-3.36 5.39c-.009.021.018.038.03.018 1.14-1.853 1.949-3.937 3.795-5.235a12.3 12.3 0 0 1 2.534-1.328 9 9 0 0 1 .918-.296l.114.04c4.275 1.666 8.042 4.372 11.974 6.685a50 50 0 0 0 6.292 3.146c2.233.92 4.52 1.7 6.777 2.561q.969.37 1.92.774a4.4 4.4 0 0 0-1.112.802c-.365.374-.723.767-1.066 1.161a6.2 6.2 0 0 0-.88 1.27.012.012 0 0 0 .02.012 5.9 5.9 0 0 1 2.212-2.292c.453-.232.882-.508 1.341-.727a44 44 0 0 1 4.317 2.146c2.207 1.267 4.33 2.68 6.467 4.06l6.774 4.378q-.028.004-.055.01a24.3 24.3 0 0 1 4.553 2.607 63 63 0 0 1 2.702 2.02c.283.176.565.37.85.552a6 6 0 0 0-.782.084 5.7 5.7 0 0 0-2.436 1.064 5.8 5.8 0 0 0-1.656 1.961 6 6 0 0 0-.448 1.135c-.05.182-.079.367-.123.55a.734.734 0 0 1-.766.66 8.3 8.3 0 0 1-2.972-.71 12 12 0 0 1-2.806-1.347c-.81-.581-1.45-1.382-2.2-2.036-1.126-.981-.676-2.373.057-3.448a4.03 4.03 0 0 1 2.663-1.803 10 10 0 0 1 1.401-.083 12 12 0 0 1 1.566-.011.026.026 0 0 0 .02-.048 2.32 2.32 0 0 0-2.432-.536 4.7 4.7 0 0 0-1.11.583 10 10 0 0 0-1.114.706c-1.593 1.268-2.478 3.08-1.575 5.043a5.7 5.7 0 0 0 2.461 2.083A15.6 15.6 0 0 0 191 90.898a10 10 0 0 0 3.155.749 1.43 1.43 0 0 0 1.07-.358 2.9 2.9 0 0 0 .497-1.369 5.14 5.14 0 0 1 2.304-3.023 5.2 5.2 0 0 1 1.85-.654c.502-.08 1.011-.036 1.51-.092l.072.047a.9.9 0 0 1 .326.103 7.4 7.4 0 0 1 1.059.733 1.4 1.4 0 0 1 .32.438 2 2 0 0 1 .081.189 6.7 6.7 0 0 1 .757.904 2.58 2.58 0 0 1 .29 2.675 6.46 6.46 0 0 1-2.386 2.252c-3.71 2.356-8.484 2.7-12.756 2.283a28 28 0 0 1-3.276-.525l-.442-.157c-.037-.013-.048.02-.041.05a30 30 0 0 1-6.735-2.471c-.193-.106-.389-.208-.58-.318a16 16 0 0 1-2.219-1.544 17.4 17.4 0 0 1-3.598-3.946.053.053 0 0 0-.09.053 16 16 0 0 0 1.308 2.236 13.4 13.4 0 0 0-3.127-.967 77 77 0 0 1-7.428-2.346c-5.05-1.757-10.118-3.463-15.17-5.212-1.275-.441-2.559-.848-3.836-1.273-.691-.23-1.357-.548-2.027-.83a20 20 0 0 1-2.018-.908c-.036-.02-.082.033-.047.06.475.373.942.738 1.426 1.08l-.119-.021c-1.12-.205-2.25-.353-3.377-.513a322 322 0 0 1-6.645-1.02c-4.445-.725-8.88-1.534-13.268-2.55-1.208-.28-2.412-.578-3.615-.877a7 7 0 0 0-2.185-.427c-.098-.123-.193-.25-.292-.373q-1.03-1.295-2.08-2.591a1.4 1.4 0 0 0-.117-.644 32 32 0 0 0-.523-1.381 22 22 0 0 0-1.247-2.67 42 42 0 0 0-3.218-4.858c-.026-.034-.083.01-.06.046a30.3 30.3 0 0 1 2.788 5.111c.357.852.735 1.694 1.067 2.556.056.145.105.293.159.439a63 63 0 0 0-6.897-7.265c-.044-.039-.128.014-.088.068 2.461 3.301 5.226 6.362 7.755 9.613a180 180 0 0 1 7.41 10.226 200 200 0 0 1 3.386 5.177 16.4 16.4 0 0 1 2.46 5.414c.774 3.915-1.949 7.642-4.5 10.326a12.3 12.3 0 0 1-5.197 3.477 8.9 8.9 0 0 1-3.122.35 15 15 0 0 1-1.928-.208 4.5 4.5 0 0 0-.684-1.21 20 20 0 0 0-2.068-2.093q-1.19-1.13-2.387-2.252-2.35-2.205-4.734-4.371-2.751-2.489-5.532-4.943l-1.079-.952a2.9 2.9 0 0 0-.483-1.019c-.241-.43-.474-.866-.725-1.29-.243-.412-.478-.827-.73-1.233-.263-.423-.567-.808-.854-1.214-.023-.033-.084-.014-.07.03.158.466.292.93.487 1.384.19.441.4.872.608 1.304.15.313.317.618.48.925a39 39 0 0 0-3.214-2.503c-.064-.044-.124.049-.079.1 2.655 3.038 5.804 5.666 8.723 8.443q4.314 4.103 8.586 8.25c1.016.988 3.372 2.667 2.486 4.327a6.9 6.9 0 0 1-1.532 1.657 32 32 0 0 1-2.178 1.825 33.4 33.4 0 0 1-4.515 2.895 19.6 19.6 0 0 1-5 2.01 7.1 7.1 0 0 1-3.211.01 12.4 12.4 0 0 1-2.881-1.259c-.274-.149-.555-.282-.83-.427a39 39 0 0 0-2.398-1.611c-1.961-1.209-3.93-2.406-5.894-3.61-1.85-1.133-3.696-2.262-5.5-3.47a74 74 0 0 1-2.661-1.856c-.2-.147-.475-.381-.78-.607a9.6 9.6 0 0 0 3.63-.602c.114-.04.106-.237-.03-.224a12.95 12.95 0 0 1-6.555-1.183 11 11 0 0 0-2.998-1.052 23.6 23.6 0 0 1-3.392-.379 18 18 0 0 1-2.978-1.33l-3.22-1.633a665 665 0 0 1-5.96-3.055C41.067 90.52 34.41 86.74 29.286 81.286c.007-.01.019-.018.017-.033a16 16 0 0 0-.686-2.274c-.22-.702-.428-1.408-.64-2.113-.41-1.356-.741-2.74-1.173-4.09a11.7 11.7 0 0 0 1.941-.15.106.106 0 0 0 0-.203c-2.009-.413-4.073-.5-6.095-.836a47 47 0 0 1-2.869-.584 24 24 0 0 0 2.598-.418 25.4 25.4 0 0 0 3.56-1.184.111.111 0 0 0-.06-.215 31.6 31.6 0 0 1-6.187.633c-1.019.016-2.032-.04-3.048-.113a4.5 4.5 0 0 1-1.447-.23 3.1 3.1 0 0 1-.992-.793 18.4 18.4 0 0 0-4.35-3.189 40 40 0 0 1-4.908-3.208 42 42 0 0 1-2.436-2.071C1.703 59.477.79 58.809.039 58.02c-.022-.023-.052.01-.033.033.642.82 1.179 1.69 1.894 2.461a31 31 0 0 0 2.135 2.064A48 48 0 0 0 8.8 66.25a30 30 0 0 1 4.497 3.616 3.97 3.97 0 0 0 2.457 1.248 12 12 0 0 0 2.036.057 11.4 11.4 0 0 0 1.842.557c.176.045.355.08.532.122a.3.3 0 0 0 .04.089c.622.695 1.343 1.299 1.963 2.003a19.4 19.4 0 0 1 1.663 2.291 47 47 0 0 0 3.363 4.711 44.4 44.4 0 0 0 8.737 7.785 98 98 0 0 0 10.174 6.047 501 501 0 0 0 5.867 3.045c2.088 1.073 4.162 2.25 6.326 3.163a9.8 9.8 0 0 0 3.583.739 11.4 11.4 0 0 1 3.669.907 13 13 0 0 0 1.966.556c.202.694 1.207 1.361 1.668 1.719q1.315 1.018 2.678 1.973a121 121 0 0 0 5.448 3.56q2.88 1.79 5.772 3.56c.766.47 1.54.9 2.32 1.314.325.219.65.438.98.645a9.73 9.73 0 0 0 5.534 1.762 14.9 14.9 0 0 0 5.7-1.7 33.5 33.5 0 0 0 4.9-2.881 29 29 0 0 0 4.363-3.665 3.55 3.55 0 0 0 1.106-2.22c.004-.077-.014-.151-.017-.228a4.6 4.6 0 0 0 .828.345 7 7 0 0 0 2.913.14 11.05 11.05 0 0 0 5.263-2.298 21.7 21.7 0 0 0 4.114-4.378 14.1 14.1 0 0 0 2.672-5.44c.882-4.35-1.884-8.178-4.15-11.616a146 146 0 0 0-6.572-9.153c.175.05.33.09.425.12 1.066.344 2.145.642 3.23.921 2.17.557 4.356 1.04 6.553 1.477 4.451.888 8.93 1.637 13.423 2.286 1.268.183 2.537.376 3.813.495.308.029.617.037.926.053.005.063.008.121.018.198.052.38.119.764.195 1.14.18.89.415 1.773.636 2.655q.666 2.648 1.34 5.294l2.712 10.578c1.648 6.423 2.911 13.093 6.557 18.75a23.7 23.7 0 0 0 2.786 3.563 125 125 0 0 0 3.753 12.002c1.368 4.057 2.756 8.106 4.134 12.16a64.7 64.7 0 0 0 4.48 11.227 23.2 23.2 0 0 1 2.167 5.497 65 65 0 0 0 1.78 5.617 91 91 0 0 0 4.925 10.819c1.889 3.575 3.939 7.064 5.76 10.676 1.603 3.18 2.826 6.533 4.44 9.705 1.444 2.841 3.478 5.757 6.469 7.12a7.22 7.22 0 0 0 4.719.606 5.37 5.37 0 0 0 3.532-3.09 9.17 9.17 0 0 0 .492-5.192 19 19 0 0 0-.271-1.376l1.945 4.58c.805 1.893 1.576 3.807 2.496 5.648 1.614 3.23 4.043 6.8 7.694 7.89 3.94 1.175 6.838-2.247 7.212-5.876a23.5 23.5 0 0 0-.73-6.768c-.101-.523-.222-1.044-.333-1.566.388.912.792 1.815 1.2 2.708q1.243 2.714 2.686 5.33a26.3 26.3 0 0 0 3.084 4.644c2.162 2.479 5.784 4.547 9.126 3.24a5.11 5.11 0 0 0 2.966-3.44 23.7 23.7 0 0 0 .836-5.605 49.5 49.5 0 0 0-.58-10.983q.778 1.463 1.658 2.866c2.049 3.25 4.582 6.555 8.299 7.95a5.9 5.9 0 0 0 5.786-.547 7.12 7.12 0 0 0 2.484-4.795 31.7 31.7 0 0 0-.301-6.898l-.688-7.436-1.341-14.499c-.45-4.857-.888-9.716-1.35-14.572a93 93 0 0 0-2.25-14.052c-1.173-4.637-2.512-9.222-3.558-13.892-1.045-4.671-1.795-9.418-2.93-14.067q-.264-1.08-.55-2.149a9.8 9.8 0 0 0 .087-3.211 56 56 0 0 0-1.158-5.943c-.162-.697-.338-1.39-.513-2.084.099.213.187.43.29.64a35.93 35.93 0 0 0 17.273 16.716 32.2 32.2 0 0 0 7.748 2.398c3.08.525 6.41.561 9.238-.947a7.94 7.94 0 0 0 4.123-6.03 5.7 5.7 0 0 0-.765-3.572m-95.466-39.268-1.565-1.014q.436.015.872.009c-.013.08-.035.158-.04.24a.015.015 0 0 0 .028.004c.018-.084.047-.164.07-.246q.27-.006.538-.023l.045.08.457.75q.25.41.526.802zm1.29.834a12 12 0 0 0-.646-1.172l-.446-.712a22 22 0 0 0 1.519-.18c.34.562.695 1.117 1.027 1.683.243.415.47.838.708 1.255.158.276.315.564.487.838zm2.892 1.87a7 7 0 0 0-.493-1.134c-.222-.443-.476-.87-.73-1.294a20 20 0 0 0-1.023-1.542 14 14 0 0 0 1.495-.333 88 88 0 0 0 1.753 3.27c.498.879.972 1.809 1.53 2.669zm2.995 1.935c-.487-1.08-1.142-2.106-1.729-3.123a88 88 0 0 0-1.922-3.147 10 10 0 0 0 1.063-.357q.261-.111.512-.243c.043.036.089.067.131.103.8 1.598 1.654 3.163 2.514 4.73.43.784.859 1.57 1.296 2.351.254.454.5.922.76 1.382ZM24.874 75.51a13.3 13.3 0 0 0-2.661-3.235c.151.027.302.06.453.085q.965.162 1.946.275a4.6 4.6 0 0 0 .16.74l.24.89c.157.58.31 1.16.474 1.736q.116.404.252.8-.435-.64-.864-1.29m3.834 5.18a32 32 0 0 1-2.316-2.952q-.344-.961-.632-1.937c-.166-.557-.321-1.118-.48-1.677l-.251-.888a6 6 0 0 0-.188-.578c.604.065 1.21.105 1.815.112a38 38 0 0 0 1.073 4.252c.214.734.45 1.462.697 2.185a13.4 13.4 0 0 0 .716 1.929c-.142-.152-.295-.292-.433-.447"/><path fill="currentColor" d="M197.458 80.601c-.306-.599-.61-1.2-.923-1.795l-1.941-3.703c-.007-.013-.027-.001-.02.012l1.83 3.684c.3.603.607 1.202.912 1.802a20 20 0 0 0 .986 1.842c.013.021.053.008.043-.018a19 19 0 0 0-.887-1.824m.29-2.997a.026.026 0 0 0-.046.027c.873 1.607 1.718 3.23 2.595 4.835.014.027.052.003.04-.023a36 36 0 0 0-2.59-4.84m4.977 4.07c-.077-.133-.15-.268-.233-.397l-.496-.776c-.046-.072-.163-.005-.116.068l.504.79c.082.129.174.252.263.378.086.123.17.25.263.369.02.024.054-.007.042-.032-.068-.137-.15-.268-.227-.4m29.004-23.056a24.3 24.3 0 0 0-2.047 4.038 11.7 11.7 0 0 0-.601 2.21 5.6 5.6 0 0 0-.229 2.092.041.041 0 0 0 .075.01 11 11 0 0 0 .431-2.025c.162-.723.414-1.418.596-2.135a17 17 0 0 1 1.792-4.18.01.01 0 0 0-.017-.01m1.208 1.701a30.5 30.5 0 0 0-1.615 4.327c-.211.74-.404 1.484-.607 2.225a8.5 8.5 0 0 0-.526 2.265c.001.063.102.103.13.035a11.4 11.4 0 0 0 .444-2.116 23 23 0 0 1 .631-2.304 88 88 0 0 1 1.561-4.425c.004-.01-.013-.017-.018-.007m1.315 2.026a44 44 0 0 0-1.588 4.528c-.215.755-.397 1.519-.606 2.275-.216.783-.478 1.56-.632 2.357-.026.135.175.193.207.057.185-.794.291-1.604.478-2.399.18-.765.416-1.514.65-2.264a94 94 0 0 1 1.529-4.544c.009-.023-.029-.033-.038-.01m1.052 3.243a33.6 33.6 0 0 0-2.415 8.124c-.012.074.102.106.113.032a35.3 35.3 0 0 1 2.335-8.142c.007-.018-.025-.032-.033-.014m1.167 2.715a25.9 25.9 0 0 0-2.312 8.844c-.004.06.088.06.094 0a28.6 28.6 0 0 1 2.226-8.84c.002-.004-.005-.008-.007-.004m1.036 3.412a27 27 0 0 0-1.355 4.152 18.6 18.6 0 0 0-.636 4.17c0 .026.041.034.046.007.246-1.411.379-2.826.71-4.225a32 32 0 0 1 1.266-4.095c.007-.02-.023-.027-.03-.009m.512 4.425a20.9 20.9 0 0 0-1.355 5.782c-.001.024.039.03.042.006a32.7 32.7 0 0 1 1.335-5.782c.005-.015-.017-.02-.022-.006m.584 4.906a7.8 7.8 0 0 0-.288 1.891c0 .013.02.013.02 0a8.6 8.6 0 0 1 .29-1.885.012.012 0 0 0-.022-.006m.072 3.763c-.002-.013-.021-.007-.019.005a2 2 0 0 1-.147 1.19c-.005.01.011.02.017.01a1.87 1.87 0 0 0 .149-1.205m5.799 10.044a19 19 0 0 0-.381 4.765.022.022 0 0 0 .043 0 32.6 32.6 0 0 1 .372-4.755c.004-.022-.03-.032-.034-.01m2.23 1.538c.003-.015-.02-.021-.022-.006a22 22 0 0 0-.03 8.004c.003.018.028.01.026-.007a25.4 25.4 0 0 1 .026-7.991m2.257.339c.002-.02-.03-.02-.031 0a50.5 50.5 0 0 0 .208 11.764c.016.103.198.08.185-.025a56.6 56.6 0 0 1-.362-11.739m2.695 13.607a36 36 0 0 1-.236-1.398 30 30 0 0 1-.256-3.306 107 107 0 0 1-.053-6.177c0-.03-.045-.03-.047 0a43 43 0 0 0 0 6.296c.078 1.027.19 2.052.269 3.08.039.51.075 1.022.117 1.533a3.1 3.1 0 0 0 .213 1.212.071.071 0 0 0 .129-.017 3.4 3.4 0 0 0-.136-1.223m1.336-6.634c-.002-.03-.048-.03-.047 0 .04 1.361.067 2.729.22 4.083.003.027.043.028.043 0 .01-1.363-.11-2.725-.216-4.083m.904 9.741q-.031-.16-.072-.317c-.056-.237-.123-.471-.18-.708a43 43 0 0 1-.313-1.401c-.003-.015-.025-.009-.023.006q.112.72.199 1.44c.028.232.046.464.075.696q.016.15.04.303a.76.76 0 0 0 .092.342.115.115 0 0 0 .207-.027.7.7 0 0 0-.025-.334m2.167.554q-.21-1.142-.389-2.29-.371-2.379-.663-4.77c-.001-.012-.02-.012-.02 0a64 64 0 0 0 .513 4.54q.172 1.15.375 2.294a13.3 13.3 0 0 0 .498 2.358c.01.027.055.026.054-.007a16 16 0 0 0-.368-2.125m2.52 2.597c-.134-.589-.27-1.177-.398-1.767q-.38-1.735-.723-3.478c-.004-.02-.033-.011-.03.008q.256 1.764.598 3.512a67 67 0 0 0 .357 1.71 9.3 9.3 0 0 0 .426 1.636c.022.052.11.025.105-.028a11 11 0 0 0-.335-1.593m2.52 1.587c-.14-.408-.27-.82-.404-1.23q-.408-1.252-.76-2.523a.018.018 0 0 0-.035.01q.288 1.286.65 2.554c.119.414.251.825.386 1.234a4.4 4.4 0 0 0 .463 1.17c.017.023.061.018.059-.016a5.2 5.2 0 0 0-.36-1.199m2.039.364a7.7 7.7 0 0 1-.447-1.231.012.012 0 0 0-.022.006 5.3 5.3 0 0 0 .993 2.407c.02.024.051-.007.04-.03-.176-.39-.383-.764-.564-1.152m2.92 1.633a2 2 0 0 0-.127-.21 7 7 0 0 0-.26-.38l-.573-.765c-.022-.029-.07-.004-.051.03l.478.821q.116.198.247.388a2 2 0 0 0 .137.193.6.6 0 0 0 .158.155.043.043 0 0 0 .065-.037.6.6 0 0 0-.074-.195m1.888.716c-.01-.005-.017.008-.009.014l.511.34c.008.006.016-.008.008-.013Zm-58.225-95.113a26.4 26.4 0 0 0-7.51-1.458 31.5 31.5 0 0 0-7.631.377c-.009.001-.007.016.002.015a37.6 37.6 0 0 1 7.513-.248 50 50 0 0 1 7.613 1.363.025.025 0 0 0 .013-.049m2.31 2.157a2.23 2.23 0 0 0-1.205-.387 43 43 0 0 1-1.891-.278c-1.056-.187-2.052-.496-3.124-.591a64 64 0 0 0-6.971-.195.014.014 0 0 0 0 .027 53 53 0 0 1 6.911.61c1.125.17 2.251.164 3.37.373.555.104 1.09.258 1.633.408a2.4 2.4 0 0 0 1.244.157.075.075 0 0 0 .033-.124m2.561 2.225a1.62 1.62 0 0 0-.989-.44 13 13 0 0 0-1.418-.277c-.953-.13-1.892-.35-2.844-.494a31.6 31.6 0 0 0-5.567-.388.031.031 0 0 0 0 .062c1.906.13 3.819.287 5.706.592a18 18 0 0 1 2.617.547c.46.146.919.277 1.383.405a1.73 1.73 0 0 0 1.076.13.084.084 0 0 0 .036-.137m1.678 2.544c-.32-.481-1.28-.48-1.792-.56a20 20 0 0 1-2.064-.469 19.7 19.7 0 0 0-4.208-.558c-.026-.001-.033.042-.006.046 1.395.192 2.775.475 4.168.676a9.4 9.4 0 0 1 2.056.501c.33.128.656.27.99.39a1.13 1.13 0 0 0 .802.106.09.09 0 0 0 .054-.132m.978 2.173a15.7 15.7 0 0 0-4.6-1.227c-.045-.007-.065.057-.02.067 1.55.342 3.05.87 4.599 1.21.029.006.05-.036.021-.05m2.317 1.582a3 3 0 0 0-.325-.147c-.214-.078-.435-.142-.652-.213-.047-.015-.073.054-.033.079.193.118.385.24.58.355a3 3 0 0 0 .303.143 2 2 0 0 0 .16.055.24.24 0 0 0 .172.011.06.06 0 0 0 .042-.074c-.032-.101-.158-.162-.247-.209m-40.9 93.482c-.418-.407-1.187-.407-1.727-.567-.663-.195-1.314-.456-1.96-.703-1.287-.494-2.586-1.028-3.916-1.397-.013-.004-.022.015-.01.021a31 31 0 0 0 3.757 1.434c.657.219 1.32.426 1.968.67.364.138.713.31 1.066.47a1.4 1.4 0 0 0 .772.192.071.071 0 0 0 .05-.12m.519 1.837a10 10 0 0 0-1.644-.466 56 56 0 0 1-1.576-.58c-1.085-.416-2.192-.759-3.302-1.101-.053-.017-.073.063-.022.083 1.066.405 2.13.812 3.222 1.146.535.163 1.067.329 1.596.509a6 6 0 0 1 .874.363 2.3 2.3 0 0 0 .747.296c.143.022.251-.168.105-.25m-.203 2.209c-.072-.167-.226-.208-.386-.268l-.641-.237c-.443-.164-.884-.33-1.33-.485a137 137 0 0 0-2.63-.893c-.031-.01-.053.04-.023.053.84.375 1.686.733 2.533 1.09.421.179.846.347 1.271.517l.636.253c.187.075.348.167.542.077a.08.08 0 0 0 .028-.107m-.036 2.188a3.5 3.5 0 0 0-.727-.355q-.38-.156-.763-.304c-.52-.2-1.044-.384-1.564-.581-.035-.013-.06.045-.026.06.51.223 1.014.456 1.525.675q.36.155.723.302a3.6 3.6 0 0 0 .805.267.035.035 0 0 0 .027-.064m.011 3.048a10 10 0 0 0-1.038-.656.04.04 0 0 0-.04.068 10 10 0 0 0 1.052.632.025.025 0 0 0 .025-.044m26.033 1.889a7 7 0 0 0-1.344-.6c-.468-.185-.934-.372-1.404-.55q-1.434-.544-2.87-1.084c-.025-.01-.043.032-.018.043q1.41.602 2.822 1.198c.436.185.876.361 1.314.54a7.4 7.4 0 0 0 1.468.528.041.041 0 0 0 .032-.075m-2.568 1.394a4.1 4.1 0 0 0-1.112-.693 5.5 5.5 0 0 0-1.26-.39.018.018 0 0 0-.01.034 10 10 0 0 1 1.221.48c.19.086.371.185.555.28.196.103.381.227.578.326.023.011.048-.018.028-.037m2.315 1.024q-.082-.042-.166-.08-.187-.078-.375-.15-.377-.148-.75-.302c-.008-.004-.014.01-.006.014q.353.188.701.383.172.096.345.188.085.044.172.08a.23.23 0 0 0 .175.037.047.047 0 0 0 .033-.058c-.023-.062-.073-.084-.13-.112m-1.115 2.189a10 10 0 0 0-.937-.594l-.953-.569a.033.033 0 0 0-.033.057l.942.586a10 10 0 0 0 .958.56.023.023 0 0 0 .023-.04m1.078 3.918a1 1 0 0 0-.114-.174q-.062-.072-.13-.14a1.3 1.3 0 0 0-.314-.23 4 4 0 0 0-.353-.164c-.064-.027-.105.077-.046.11a1.7 1.7 0 0 1 .289.21q.065.061.13.125c.043.042.092.078.136.12q.067.06.13.127c.04.045.088.082.131.124a3 3 0 0 1 .231.271c.027.034.086-.002.072-.042a2 2 0 0 0-.162-.337m2.657-15.455a13 13 0 0 0-1.399-.57 28 28 0 0 1-1.488-.635 20 20 0 0 1-2.74-1.525c-.022-.014-.04.02-.02.033a21.5 21.5 0 0 0 2.759 1.691c.452.227.914.442 1.385.628a6 6 0 0 0 1.485.448c.037.004.05-.053.018-.07m2.733-.85a10 10 0 0 0-1.644-.456 31 31 0 0 1-1.633-.464 26 26 0 0 1-3.367-1.32c-.018-.009-.034.017-.016.027a22 22 0 0 0 3.206 1.48c.57.21 1.15.387 1.736.543a5.5 5.5 0 0 0 1.695.278c.041-.003.07-.067.023-.088m1.699-.897a15 15 0 0 0-2.321-.598 18 18 0 0 0-2.29-.401c-.032-.003-.033.043-.006.054a18 18 0 0 0 2.313.623 15 15 0 0 0 2.29.426c.063.004.065-.084.013-.104m1.531-1.153a2 2 0 0 0-.43-.121l-.482-.105c-.316-.067-.638-.116-.956-.173-.034-.006-.05.044-.015.053.313.078.625.164.94.233q.232.05.465.098a2.3 2.3 0 0 0 .463.07c.027 0 .042-.042.014-.055m1.702-1.055c-.022-.007-.031.028-.01.033l.684.163a.01.01 0 0 0 .005-.02Zm-31.851-4.69c-.796-.448-1.632-.818-2.45-1.223-.821-.407-1.626-.848-2.456-1.237-.02-.01-.047.018-.026.034a15 15 0 0 0 2.343 1.442 12.8 12.8 0 0 0 2.561 1.048.035.035 0 0 0 .027-.064m1.051-.589c-.636-.345-1.306-.616-1.97-.901a35 35 0 0 0-1.958-.785.022.022 0 0 0-.016.04c.645.325 1.305.618 1.97.905.646.279 1.285.57 1.955.788a.026.026 0 0 0 .02-.047m1.174.194c-.008.002-.006.017.002.016a2.36 2.36 0 0 1 1.183.174c.013.006.026-.013.012-.02a2.1 2.1 0 0 0-1.197-.17m29.439 38.769c.681-.113 1.364-.29 2.054-.397.828-.127 1.658-.25 2.484-.385a13.5 13.5 0 0 0 7.774-3.546c.02-.02-.01-.05-.03-.03a13.67 13.67 0 0 1-6.93 2.933 38 38 0 0 1-4.102.432 3.8 3.8 0 0 0-1.467.192c-.42.24-.326.58-.481.96-.008.02.012.035.029.037a13.3 13.3 0 0 0 4.417-.185c.015-.003.008-.025-.007-.022a19 19 0 0 1-2.664.241 4.6 4.6 0 0 1-1.282-.047c-.119-.038-.407-.019-.13-.174.074-.041.25.005.335-.009m3.247-1.999a15 15 0 0 0-2.122.208c-.725.1-1.434.242-2.149.4a.018.018 0 0 0 .005.035 27 27 0 0 0 2.122-.2 15 15 0 0 0 2.151-.393.026.026 0 0 0-.007-.05m13.734 20.985a30.4 30.4 0 0 1-5.331 1.66 13 13 0 0 1-2.925.409 2.7 2.7 0 0 0-.605-.035c-.208.04-.22.113-.381.236a3.7 3.7 0 0 1-1.437.394c-.017.004-.014.032.004.03a3.5 3.5 0 0 1 1.551.02c.427.152.702-.05 1.137-.157.907-.222 1.827-.384 2.732-.62a31 31 0 0 0 5.273-1.894c.024-.011.007-.053-.018-.043m-6.423 2.962a48 48 0 0 1-5.272.384.012.012 0 0 0 0 .024 18.8 18.8 0 0 0 5.279-.359c.027-.006.022-.053-.007-.05m-18.381-22.727a14.4 14.4 0 0 1-3.393 1.527 16.7 16.7 0 0 1-3.873.287c-.596.026-1.206.024-1.798.097a5.3 5.3 0 0 0-1.53.549c-1.16.531-2.405.843-3.53 1.458-.02.01-.006.045.015.036a11.4 11.4 0 0 1 3.825-1.165 9 9 0 0 0 1.762-.212 11 11 0 0 1 2.047-.287 11 11 0 0 0 3.398-.42 15 15 0 0 0 3.089-1.85c.012-.008.001-.028-.012-.02m-6.627 3.428a1.35 1.35 0 0 0-.749-.077 6 6 0 0 1-.906.204c-.591.06-1.185.104-1.777.156-1.186.105-2.371.205-3.554.338-.022.003-.023.037 0 .035 1.21-.068 2.415-.17 3.623-.267.592-.048 1.184-.1 1.777-.144a7 7 0 0 1 .888.056 1.4 1.4 0 0 0 .71-.205.053.053 0 0 0-.012-.096m-2.219 2.001a.014.014 0 0 0 .007.026 7.5 7.5 0 0 1 2.204-.192c.015 0 .014-.022 0-.023a6.2 6.2 0 0 0-2.21.189m15.554 18.959a6.7 6.7 0 0 1-3.597 1.468 30 30 0 0 1-2.21.293c-.382.036-.78-.007-1.157.051a2.8 2.8 0 0 0-.99.462.077.077 0 0 0 .019.14 2.6 2.6 0 0 0 1.126.158c.435-.077.862-.228 1.3-.311.755-.145 1.52-.23 2.273-.39a5.24 5.24 0 0 0 3.261-1.852c.011-.014-.012-.031-.024-.019m28.842-34.185a30.5 30.5 0 0 1 4.109-.423.053.053 0 0 0 0-.106 38 38 0 0 0-3.912.18 11.9 11.9 0 0 0-3.526.593 6.6 6.6 0 0 0-1.313.739 5.6 5.6 0 0 1-1.919.69 63 63 0 0 1-3.605.708c-.015.003-.011.029.004.027 1.212-.126 2.434-.172 3.643-.34a17 17 0 0 0-1.981.696c-.03.013-.008.056.02.05.89-.202 1.754-.48 2.637-.705.923-.236 1.866-.29 2.786-.552a38 38 0 0 1 5.639-1.106c.01 0 .01-.016 0-.015-1.89.127-3.79.363-5.663.638-.093.014-.18.038-.27.056a4.8 4.8 0 0 1 1.454-.728c.63-.14 1.266-.26 1.897-.402m.455 22.287a11.2 11.2 0 0 0-4.872 1.754.051.051 0 0 0 .039.092c1.634-.437 3.175-1.135 4.833-1.51a19.6 19.6 0 0 1 5.192-.47c.017 0 .017-.026 0-.028a20 20 0 0 0-5.192.162m-64.948-19.013a24 24 0 0 1-3.593.69c-1.182.155-2.365.164-3.553.215-.069.003-.093.115-.017.126a14.74 14.74 0 0 0 7.169-1.008c.014-.005.008-.027-.007-.023m4.943-1.974a.32.32 0 0 0-.309-.082.5.5 0 0 0-.096.053.4.4 0 0 0-.21.122 2.5 2.5 0 0 1-.607.414 7 7 0 0 1-1.358.535.008.008 0 0 0 .004.015 10 10 0 0 0 1.095-.33 3 3 0 0 1 1.022-.343c.067.09.147.165.222.271.167.239-.154.41-.345.515a15 15 0 0 1-1.835.822 33 33 0 0 1-3.74 1.089c-.025.006-.02.05.006.046a17 17 0 0 0 4.167-1.232q.467-.194.925-.41a3.8 3.8 0 0 0 .769-.414c.355-.286.699-.64.29-1.071m10.751 29.397a4.5 4.5 0 0 0-1.068.38 7 7 0 0 1-1.237.38c-.795.155-1.533.506-2.323.69a22 22 0 0 1-2.51.433c-.813.092-1.64.093-2.448.21-.134.019-.08.2.029.215a10.8 10.8 0 0 0 2.591-.083 23 23 0 0 0 2.439-.408 10.3 10.3 0 0 0 2.391-.656c.4-.2.81-.37 1.222-.544a3.2 3.2 0 0 0 .96-.507c.038-.035.011-.117-.046-.11m-2.751-.208a2.4 2.4 0 0 0-.654.054c-.226.036-.45.092-.671.147a7.4 7.4 0 0 0-1.266.436c-.049.022-.012.092.035.082a35 35 0 0 0 1.315-.305c.214-.053.43-.098.644-.153a3 3 0 0 0 .616-.192c.036-.018.014-.065-.019-.069m37.895-60.974a.7.7 0 0 0-.158-.138l-.068-.052-.041-.02-.036-.027-.069-.052a.4.4 0 0 0-.07-.05.3.3 0 0 1-.074-.057l-.069-.062a.023.023 0 0 0-.033.033l.075.077q.02.019.036.037c.013.016.019.034.031.05l.138.168-.018-.03a.4.4 0 0 0 .096.142.6.6 0 0 0 .118.123.104.104 0 0 0 .143-.142m2.466-.952a3.1 3.1 0 0 0-.904-.409l-1.057-.4c-.703-.267-1.417-.507-2.126-.757-.017-.006-.029.021-.012.028.673.284 1.342.58 2.021.85l1.053.416a3.3 3.3 0 0 0 1.002.33.033.033 0 0 0 .023-.057m2.03-.671a6 6 0 0 0-.928-.44l-.938-.425c-.625-.283-1.256-.555-1.885-.83-.02-.009-.039.02-.018.03.627.305 1.253.61 1.884.906l.93.436a5.7 5.7 0 0 0 .919.409.047.047 0 0 0 .036-.086m.993-.976-.286-.111c-.19-.075-.38-.151-.573-.22l-1.153-.419c-.016-.006-.028.022-.012.029l1.128.476q.27.112.542.217l.286.113a.6.6 0 0 0 .259.073.028.028 0 0 0 .02-.046.5.5 0 0 0-.21-.112m1.778-.994a2 2 0 0 0-.398-.166 3 3 0 0 0-.849-.106c-.033 0-.031.046 0 .05a3.2 3.2 0 0 1 .792.216q.186.073.367.157a2 2 0 0 0 .365.154c.028.007.062-.027.042-.055a.9.9 0 0 0-.319-.25m1.304-1.094a.016.016 0 0 0 .009.03 1.3 1.3 0 0 1 .837.157c.017.01.037-.014.021-.027a.96.96 0 0 0-.867-.16m-84.33-6.494c-.008-.02-.042-.012-.035.01a16.7 16.7 0 0 0 4.72 7.326c.016.015.04-.009.024-.025a19.45 19.45 0 0 1-4.71-7.31m4.621 4.279a23 23 0 0 1-1.524-1.833c-.006-.008-.02 0-.014.008a23 23 0 0 0 1.469 1.804 16 16 0 0 0 1.703 1.671c.013.011.032-.006.02-.019-.559-.538-1.128-1.061-1.655-1.631m-.659-97.981c-.12-.3-.223-.607-.351-.904a5 5 0 0 0-.679-1 18 18 0 0 1-1.213-2.085c-.766-1.415-1.475-2.86-2.185-4.304-.02-.04-.079-.005-.06.036.641 1.484 1.307 2.958 1.94 4.447a18 18 0 0 1 .897 2.295 7.6 7.6 0 0 0 .976 2.058c1.662 2.715 2.972 5.635 4.727 8.29a.064.064 0 0 0 .111-.065c-1.295-2.972-2.975-5.744-4.164-8.768m6.497 3.845c-.7-1.057-.876-2.34-1.836-3.23a11.3 11.3 0 0 1-2.07-3.24q-.891-1.763-1.716-3.56c-.014-.029-.066-.007-.053.023a70 70 0 0 0 1.471 3.307 18.2 18.2 0 0 1 1.614 3.663 4.5 4.5 0 0 0 .626 1.625c.347.526.803.956 1.14 1.49.361.574.523 1.204.844 1.796.241.445.473.98.986 1.132a.465.465 0 0 0 .522-.212c.483-1.064-1.018-2.024-1.528-2.794m1.54-6.852a9 9 0 0 0-.598-.868c-.228-.283-.469-.553-.699-.833-.036-.044-.094.012-.073.057.154.325.294.655.451.979a9 9 0 0 0 .541.927c.39.608.86 1.154 1.298 1.727a.059.059 0 0 0 .101-.06c-.334-.647-.633-1.31-1.021-1.93m-35.436 2.359c-.094 1.106-.194 2.21-.244 3.32-.001.027.038.026.041 0 .112-1.105.175-2.212.244-3.32.001-.027-.04-.026-.041 0m2.601-3.06c-.348 3.513-.646 7.055-.652 10.588a.032.032 0 0 0 .064 0c.23-3.528.356-7.061.617-10.588.002-.019-.027-.018-.029 0m2.404.892q-.217 2.021-.491 4.035-.13.95-.274 1.9a9.5 9.5 0 0 0-.257 1.841.047.047 0 0 0 .092.013 8.5 8.5 0 0 0 .291-1.837q.132-.99.25-1.98.235-1.983.413-3.972c.001-.015-.022-.014-.024 0M133.622 26l-.152 1.594a14 14 0 0 0-.135 1.594c0 .026.04.033.046.007a14 14 0 0 0 .149-1.57l.133-1.626c.003-.026-.038-.026-.04 0m2.856-5.995a97 97 0 0 0-.964 11.357c0 .03.045.03.047 0 .274-3.793.492-7.579.94-11.357.002-.015-.021-.015-.023 0m1.828 6.119q-.265 2.162-.42 4.335a36 36 0 0 0-.157 4.35.018.018 0 0 0 .035 0c.12-1.444.107-2.902.2-4.35q.14-2.172.395-4.335c.004-.034-.05-.034-.053 0m6.949 6.127a20 20 0 0 0-.413 2.684.026.026 0 0 0 .052.007 20 20 0 0 0 .407-2.684c.003-.026-.041-.032-.046-.006m51.494 38.984c-.004-.006-.012-.002-.018-.005-.158-.567-.473-1.113-.67-1.66a4.4 4.4 0 0 1-.278-1.017 2.9 2.9 0 0 0-.21-.908c-.265-.621-.563-1.221-.797-1.857q-.352-.956-.693-1.915c-.015-.04-.078-.024-.064.017.218.668.436 1.336.644 2.007.195.627.317 1.264.484 1.896a2.4 2.4 0 0 0 .33.762 4 4 0 0 1 .46 1.048 15 15 0 0 0 .562 1.915.155.155 0 0 0 .243.032.215.215 0 0 0 .008-.315m2.114-.334c-.34-.742-.626-1.511-.911-2.276a68 68 0 0 0-.834-2.144 5.8 5.8 0 0 0-.863-1.727c-.028-.03-.084.01-.059.045a3.8 3.8 0 0 1 .428.97c.133.36.28.714.42 1.071.266.67.554 1.33.842 1.991.325.748.649 1.503.908 2.276a8.8 8.8 0 0 0 .766 2.028.126.126 0 0 0 .228-.097 10 10 0 0 0-.925-2.137m3.707 3.122a18 18 0 0 1-.553-1.026 17 17 0 0 1-.97-2.552 21.2 21.2 0 0 0-1.645-4.558c-.018-.032-.061-.004-.048.027.677 1.558 1.121 3.19 1.668 4.794.268.789.56 1.569.856 2.348.137.361.272.724.419 1.082a2.2 2.2 0 0 0 .523.932c.066.054.2.027.19-.079a2.5 2.5 0 0 0-.44-.968m2.568.71q-.518-1.122-.969-2.274a16.4 16.4 0 0 0-1.777-4.038c-.02-.027-.067-.002-.047.028a23.6 23.6 0 0 1 1.702 4.285q.404 1.032.866 2.04a12.6 12.6 0 0 0 1.11 2.15c.045.061.163.028.133-.055-.269-.735-.69-1.424-1.019-2.136m2.057.43q-.813-1.895-1.532-3.833c-.016-.042-.082-.024-.068.019a54 54 0 0 0 1.4 3.69 26 26 0 0 0 1.735 3.68c.02.032.08.011.065-.027-.46-1.202-1.092-2.345-1.6-3.529m1.832-.258c-.019-.033-.068-.004-.05.03.736 1.417 1.454 2.858 2.305 4.211a.02.02 0 0 0 .034-.02c-.676-1.449-1.497-2.833-2.289-4.221m4.125 3.765c-.009-.012-.03.004-.021.016.359.492.71.988 1.102 1.455.01.012.03-.004.021-.017-.343-.503-.725-.976-1.102-1.454m3.221 2.224c-.014-.01-.028.014-.013.024l.514.334c.011.007.02-.01.01-.017Zm-31.37-27.327c-.004-.018-.029-.01-.026.007a25.4 25.4 0 0 0 2.065 6.413c.021.046.088.006.068-.04a44 44 0 0 1-2.107-6.38m-1.046 1.995a6.3 6.3 0 0 1-.31-1.19 13 13 0 0 0-.735-1.946 78 78 0 0 1-1.387-4.224.012.012 0 0 0-.023.006q.477 2.213 1.137 4.376a8 8 0 0 0 .693 2.03c.41.634.587 1.373.955 2.03a.027.027 0 0 0 .05-.022c-.1-.363-.245-.709-.38-1.06m-18.253-14.088c-.015-.04-.077-.024-.064.017a34 34 0 0 0 1.704 4.346c.012.024.052.007.043-.018-.55-1.453-1.142-2.89-1.683-4.345m14.255 9.104q-.317-.718-.613-1.444c-.359-.88-.708-1.76-1.087-2.632-.01-.022-.045-.006-.04.017a23 23 0 0 0 .954 2.769q.258.633.532 1.26a6.7 6.7 0 0 0 .686 1.32.031.031 0 0 0 .057-.024 8 8 0 0 0-.49-1.266m-16.046-7.098q-.104-.3-.217-.597c-.155-.414-.33-.819-.5-1.226-.01-.022-.046-.014-.038.01.142.425.28.85.439 1.268q.115.31.24.616c.082.197.153.403.25.594.012.024.05.007.043-.018-.056-.22-.144-.434-.217-.648m48.084 56.167a27.6 27.6 0 0 1-3.035-2.728c-.23-.25-.445-.508-.69-.743-.247-.236-.534-.396-.796-.61-.537-.44-1.033-.95-1.547-1.418-.038-.035-.103.01-.074.057a19 19 0 0 0 1.215 1.664 8 8 0 0 0 .614.82 7.5 7.5 0 0 0 .808.668 32 32 0 0 0 3.458 2.351c.037.021.083-.032.047-.06m-35.933-10.552a38 38 0 0 1-1.11-2.172c-.01-.02-.045-.005-.036.015a21 21 0 0 0 1.048 2.214 15 15 0 0 0 1.307 2.071c.017.022.05-.006.037-.028-.408-.704-.85-1.389-1.246-2.1m1.262-.933q-.228-.501-.469-.997c-.008-.018-.04-.005-.032.013q.203.496.419.987c.148.335.29.677.469.997.01.017.038.006.032-.013-.116-.338-.272-.662-.419-.987m2.106 3.588q-.059-.094-.127-.181l-.296-.367a18 18 0 0 1-.586-.779c-.008-.012-.028-.001-.02.012q.254.414.484.842l.224.422a1.05 1.05 0 0 0 .288.384c.078.051.158-.033.144-.11a.6.6 0 0 0-.11-.223m2.083.66q-.21-.263-.41-.533-.39-.52-.751-1.06a33 33 0 0 1-1.332-2.184c-.008-.013-.027-.001-.02.012a21 21 0 0 0 1.29 2.253q.345.526.717 1.035.19.262.389.52a1.7 1.7 0 0 0 .372.408c.016.01.043-.008.035-.027a1.8 1.8 0 0 0-.29-.423m1.694-.459q-.51-.69-1.037-1.366c-.01-.012-.03.004-.022.017q.502.724 1.017 1.438c.335.463.659.938 1.034 1.37.014.014.038-.005.028-.022-.306-.502-.67-.965-1.02-1.437m2.64 1.182c-.14-.174-.292-.341-.439-.51-.023-.028-.06.01-.038.038.136.175.269.354.411.524q.212.254.438.498c.015.016.044-.006.03-.024q-.194-.268-.402-.526m2.81 1.089q-.119-.047-.235-.098a6 6 0 0 1-.464-.23c-.035-.02-.063.03-.031.054a2.2 2.2 0 0 0 .456.267 2 2 0 0 0 .25.09 1.3 1.3 0 0 0 .252.053.024.024 0 0 0 .011-.043c-.077-.037-.161-.06-.24-.093m-.886-15.228c-.146.031-.29.061-.433.103a6 6 0 0 0-.424.134.027.027 0 0 0 .015.053q.216-.047.43-.112c.143-.041.281-.093.42-.144a.018.018 0 0 0-.008-.034m-8.67-9.596c-.012-.006-.021.01-.01.017.85.482 1.692.984 2.572 1.412a.016.016 0 0 0 .016-.027c-.835-.51-1.713-.948-2.578-1.402m4.946 1.695a11.7 11.7 0 0 0-1.71-1.14 23 23 0 0 0-1.866-.996.006.006 0 0 0-.006.01c.594.357 1.19.712 1.78 1.078.586.364 1.16.769 1.774 1.085.022.012.05-.019.028-.037m1.188-.744q-.466-.312-.946-.602a19 19 0 0 0-1.954-1.03c-.016-.007-.03.016-.014.024q.96.508 1.887 1.077.463.285.913.59a7 7 0 0 0 .907.595.02.02 0 0 0 .024-.03 4.2 4.2 0 0 0-.817-.625m2.136.016q-.175-.122-.354-.239-.341-.232-.687-.46-.702-.462-1.412-.909c-.02-.012-.036.017-.018.03q.666.496 1.343.975.327.23.658.458l.351.243a.9.9 0 0 0 .337.179.034.034 0 0 0 .038-.049.8.8 0 0 0-.256-.228m1.343-.429a1.5 1.5 0 0 0-.37-.221q-.203-.102-.409-.2-.41-.196-.813-.408a.012.012 0 0 0-.012.02q.384.244.776.474.195.115.397.22a1.3 1.3 0 0 0 .403.164c.026.004.052-.026.028-.049m1.291-.472c-.074-.031-.143-.071-.217-.1-.073-.03-.146-.057-.218-.09a4 4 0 0 1-.43-.216c-.033-.02-.074.03-.042.055a2 2 0 0 0 .418.269q.111.05.227.09a1.2 1.2 0 0 0 .249.04c.024.002.035-.038.013-.048"/></svg>