<svg xmlns="http://www.w3.org/2000/svg" data-name="Layer 8" viewBox="0 0 233.323 195.945"><path fill="currentColor" d="M213.405 167.6c-.497-.958-1.101-1.902-1.664-2.825-.57-.935-1.135-1.873-1.706-2.807-1.144-1.873-2.378-3.69-3.565-5.534-2.376-3.695-4.652-7.45-6.891-11.23-.64-1.08-1.278-2.16-1.924-3.235-.216-.359-.437-.768-.674-1.17-.114-.57-.232-1.137-.333-1.71a26.5 26.5 0 0 0-1.114-4.988 11.6 11.6 0 0 0-2.434-3.761c-1.956-2.087-4.494-3.683-6.068-6.113-.876-1.352-1.419-2.888-2.552-4.068-.218-.226-.457-.427-.694-.63a19.5 19.5 0 0 0 .706-3.507c.118-1.392.134-2.8.174-4.196.08-2.84.066-5.681-.011-8.521a138 138 0 0 0-1.228-16.851c.01-.01.021-.016.027-.03a23 23 0 0 0 .984-2.612 14.6 14.6 0 0 0 .429-2.671 24.2 24.2 0 0 0-.334-5.64 8.5 8.5 0 0 1 .623-4.996 19.5 19.5 0 0 0 1.085-2.539c.442-.803.887-1.603 1.298-2.431 1.086-2.193 2.137-4.42 3.36-6.542a7.1 7.1 0 0 1 2.424-2.137 19.7 19.7 0 0 0 2.512-2.13c1.647-1.634 3.106-3.458 4.608-5.223l5.018-5.896c1.41-1.657 2.826-3.313 4.085-5.09 2.575-3.63 4.402-8.002 3.56-12.524a6.68 6.68 0 0 0-3.15-4.91 4.19 4.19 0 0 0-5.055.913c-.681.685-1.236 1.488-1.96 2.132a11.5 11.5 0 0 1-2.594 1.601 25 25 0 0 0-2.78 1.49 15.4 15.4 0 0 0-2.463 2.1c-1.506 1.547-2.859 3.22-4.464 4.672a54 54 0 0 1-5.142 4.023 97 97 0 0 0-10.278 7.694c-3.266 3.03-5.857 7.042-10.043 8.916a8.32 8.32 0 0 1-5.85.456 8.6 8.6 0 0 1-1.184-.47l-.017-.011a5 5 0 0 1-.494-.405c-.041-.039-.078-.081-.12-.12a.15.15 0 0 0-.012-.119 7.92 7.92 0 0 1-.504-5.88 55 55 0 0 1 2.242-6.25 37.3 37.3 0 0 1 2.913-5.938c1.159-1.859 2.581-3.49 3.352-5.57.8-2.162 1.339-4.441 1.979-6.655l2.036-7.048c1.151-3.997 2.19-8.364.32-12.319-1.486-3.139-5.216-5.278-8.621-3.835-1.885.799-3.033 2.757-4.192 4.345q-2.047 2.805-3.923 5.73a122 122 0 0 0-3.538 5.895 28.7 28.7 0 0 1-3.53 5.325c-.71.781-1.532 1.454-2.221 2.255a8.5 8.5 0 0 0-1.52 2.66c-.685 1.864-1.082 3.829-1.73 5.708a33 33 0 0 1-5.329 10.095 22 22 0 0 1-4.096 3.93 11.2 11.2 0 0 1-3.281 1.779c-1.513-3.91.378-8.072 1.488-11.843a60 60 0 0 0 1.49-6.016.113.113 0 0 0 .189-.045c.762-3.1 2.454-5.886 3.56-8.87 1.1-2.963 1.449-5.942.149-8.905-1.196-2.724-3.371-6.41-6.817-6.237a4.46 4.46 0 0 0-3.392 2.146 14.5 14.5 0 0 1-1.35 1.786 15 15 0 0 1-1.99 1.528c-2.74 1.957-4.212 5.11-6.158 7.774q-1.617 2.214-3.432 4.271c-1.164 1.32-2.477 2.523-3.568 3.904-2.06 2.608-2.608 5.998-3.546 9.102a56 56 0 0 1-3.397 8.818 29.9 29.9 0 0 1-6.08 8.482c-.614.58-1.441 1.536-2.329 1.643-.917.11-1.155-.951-1.318-1.637-.076-.32-.145-.641-.22-.962q.114-1.484.236-2.967a35 35 0 0 0 .006-4.016c-.063-2.018-.372-4.064-2.006-5.434-2.848-2.389-7.518-2.093-10.893-1.245a9.56 9.56 0 0 0-5.15 2.985 12.8 12.8 0 0 0-2.35 6.027c-.941 5.239-1.764 10.502-2.644 15.751q-.75 4.482-1.435 8.974c-.227 1.477-.438 2.957-.652 4.436a34 34 0 0 0-.398 3.502 15.4 15.4 0 0 0-1.09 2.053 36 36 0 0 0-1.534 4.508c-1.014 3.457-2.186 6.859-3.39 10.254-1.199 3.383-2.428 6.763-3.451 10.205q-.748 2.516-1.272 5.066a41 41 0 0 0-2.423-4.104 17.7 17.7 0 0 0-3.64-3.759 17.44 17.44 0 0 0-10.288-3.633c-3.66-.056-7.8.989-10.58 3.48a5.8 5.8 0 0 0-2.137 4.234c.025 1.881 1.264 3.35 2.395 4.728a38.75 38.75 0 0 1 8.603 21.163 19.7 19.7 0 0 0 .881 5.7c.76 1.914 2.314 3.341 3.7 4.807 2.988 3.16 5.892 6.465 9.147 9.357 1.575 1.398 3.328 2.585 4.864 4.028.232.219.45.45.671.68q.195.237.385.477c.999 1.282 2.01 2.555 3.01 3.838a32 32 0 0 0 2.8 3.333 13.5 13.5 0 0 0 3.49 2.44 60 60 0 0 0 8.238 3.016 53 53 0 0 0 9.094 2.184 20 20 0 0 0 5.779-.082 12.7 12.7 0 0 0 2.423 1.223c.982.458 2.006.818 2.998 1.254a30.2 30.2 0 0 1 5.678 3.259c3.554 2.608 6.339 6.046 9.362 9.213 1.875 1.965 3.822 3.856 5.658 5.858.08.087.236-.03.165-.128-1.426-1.983-2.813-3.994-4.307-5.928a69 69 0 0 0-4.613-5.329c-3.04-3.198-6.459-6.167-10.6-7.827a33 33 0 0 0-3.584-1.31c-.628-.169-1.316-.374-2.003-.498a28 28 0 0 0 3.098-.83.12.12 0 0 0-.064-.232 27.8 27.8 0 0 1-8.957.006 46.4 46.4 0 0 1-8.718-1.94 81 81 0 0 1-8.317-2.912 13.2 13.2 0 0 1-3.437-2.08 20 20 0 0 1-1.803-1.935c-1.2-1.477-2.31-3.028-3.526-4.492a28.6 28.6 0 0 0-4.172-4.037 48 48 0 0 1-4.504-4.011c-1.416-1.465-2.787-2.976-4.186-4.457-1.443-1.528-2.893-3.048-4.332-4.58a11 11 0 0 1-1.758-2.259 8 8 0 0 1-.803-2.666c-.268-1.836-.285-3.702-.547-5.542a38.4 38.4 0 0 0-2.716-9.732 1 1 0 0 0 .043-.138c.034-.223.053-.448.088-.671.062-.413.168-.816.246-1.226a4.5 4.5 0 0 1 .135-.65 6 6 0 0 1 .253-.593 10 10 0 0 1 .647-1.162c.005-.007-.007-.016-.012-.01a7.7 7.7 0 0 0-.733 1.067c-.115.205-.217.417-.322.627-.105.208-.244.397-.342.608a5.6 5.6 0 0 0-.391 1.262c-.15-.334-.298-.669-.456-1a4 4 0 0 0 .052-.514c.026-.196.077-.387.116-.58a9 9 0 0 1 .165-.65 4 4 0 0 1 .166-.589 3.3 3.3 0 0 1 .869-1.012 4.5 4.5 0 0 1 1.222-.73c.011-.005.007-.024-.005-.02a4.1 4.1 0 0 0-1.188.65 7.5 7.5 0 0 0-.988 1.042c-.137.157-.3.285-.425.455a3 3 0 0 0-.348.63 2.4 2.4 0 0 0-.112.334 40 40 0 0 0-1.546-2.767 41 41 0 0 0-3.184-4.439 8.55 8.55 0 0 1-1.837-2.94 3.4 3.4 0 0 1 .38-.838 3.24 3.24 0 0 1 1.313-1.125 3.99 3.99 0 0 1 4.157.996 14.4 14.4 0 0 1 2.813 3.374 14 14 0 0 1 1.025 2 3.5 3.5 0 0 1 .104 1.273 1.63 1.63 0 0 1-.18.914c-.048.072.044.135.108.107a1.13 1.13 0 0 0 .64-1.49c-.17-.369-.5-.649-.676-1.027a24 24 0 0 0-.69-1.405 15.6 15.6 0 0 0-1.51-2.161 16.5 16.5 0 0 0-1.887-2.1 4.04 4.04 0 0 0-4.17-.936 3.4 3.4 0 0 0-1.482 1.327l-.05.09a3 3 0 0 1 .066-.5 6.07 6.07 0 0 1 3.07-3.466 15.5 15.5 0 0 1 5.145-1.796 16.14 16.14 0 0 1 10.488 1.788 16.4 16.4 0 0 1 3.995 3.144 21 21 0 0 1 1.993 2.656c-.11 2.553-.347 5.097-.464 7.648-.001.028.046.035.05.007a50 50 0 0 0 .472-7.568c.37.55.742 1.101 1.15 1.63l.033.038c-.005.178-.003.356-.01.529q-.021.567-.065 1.134c-.055.724-.17 1.44-.213 2.164a15 15 0 0 0-.734 1.675 25.5 25.5 0 0 0-1.222 5.434c-.012.096.133.103.161.021.594-1.692 1.067-3.405 1.794-5.052a21 21 0 0 1 1.173-2.223c.045-.076.102-.154.153-.23a57 57 0 0 0-.325 2.307 33.3 33.3 0 0 0 .283 11.782.059.059 0 0 0 .115-.016 53.6 53.6 0 0 1 .305-10.48 72.5 72.5 0 0 1 2.428-10.138c2.014-6.73 4.668-13.245 6.726-19.96.532-1.736 1-3.491 1.533-5.226.248-.807.501-1.615.77-2.415.304-.9.742-1.755 1.115-2.629a.103.103 0 0 0-.161-.124c-.158.14-.295.305-.441.46.38-1.622.625-3.296.927-4.9.467-2.484.902-4.974 1.328-7.464.846-4.945 1.664-9.895 2.492-14.843a46 46 0 0 1 1.286-6.522 7.28 7.28 0 0 1 3.667-4.465 14.5 14.5 0 0 1 5.493-1.3 11.1 11.1 0 0 1 5.047.606 4.6 4.6 0 0 1 2.064 1.598 6.25 6.25 0 0 1 .828 3.338c.045 1.16.072 2.316.167 3.47q-.236-.854-.486-1.715c-.006-.022-.042-.019-.04.005.135 1.978.366 3.927.61 5.895.125 1.017.226 2.362 1.056 3.03a4 4 0 0 1-.567.098c-.293.025-.592.017-.886.017a28 28 0 0 1-1.894-.047.018.018 0 0 0-.005.034c.655.15 1.302.334 1.97.422a7.5 7.5 0 0 0 1.907.07 4 4 0 0 0 .76-.184c1.251-.053 2.364-1.174 3.216-1.974a27.4 27.4 0 0 0 3.103-3.495c3.776-5.014 5.871-11.058 7.523-17.047a19.6 19.6 0 0 1 1.815-4.88 24 24 0 0 1 3.293-3.825 62 62 0 0 0 6.53-8.413 17 17 0 0 1 3.022-3.907c.725-.618 1.505-1.119 2.227-1.693.253-.05.506-.097.759-.153a5.8 5.8 0 0 1 1.74-.141 5.1 5.1 0 0 1 1.608.468 13 13 0 0 0 1.413.524.024.024 0 0 0 .023-.039 4.4 4.4 0 0 0-1.377-1.032 5 5 0 0 0-1.607-.433 5.3 5.3 0 0 0-1.8.193c-.03.008-.056.023-.087.031a6.6 6.6 0 0 0 .744-.828c.836-1.122 1.544-2.62 3.119-2.729a3.6 3.6 0 0 1 2.413.787 2.2 2.2 0 0 1 .341.574 3.16 3.16 0 0 1-.282 2.825l.006.005a2.95 2.95 0 0 0 .564-2.856 8.5 8.5 0 0 1 1.01 1.217 13.1 13.1 0 0 1 2.344 5.158 11.05 11.05 0 0 1-.617 5.102c-.67 2.058-1.59 4.02-2.212 6.069l.007-.042c.2-1.138.162-2.284.323-3.419.003-.025-.034-.037-.04-.01-.253 1.172-.733 2.304-1.015 3.478-.283 1.18-.659 2.325-1.01 3.486-.69 2.28-1.322 4.578-2.019 6.856-1.073 3.505-3.092 8.339-.378 11.52a3.66 3.66 0 0 1-1.85-.089 3.35 3.35 0 0 1-2.074-1.839c-.036-.089-.196-.09-.184.025a3.41 3.41 0 0 0 3.137 2.841c1.974.31 3.878-.766 5.432-1.863a24.7 24.7 0 0 0 7.304-8.585 40 40 0 0 0 2.333-5.245c.678-1.85 1.164-3.747 1.73-5.631a8.1 8.1 0 0 1 1.433-2.943c.679-.81 1.504-1.482 2.22-2.258a28 28 0 0 0 3.584-5.277 125 125 0 0 1 6.89-10.888 5.8 5.8 0 0 1 1.237-.666 4.7 4.7 0 0 1 1.978-.145 13.9 13.9 0 0 1 4.02 1.477.012.012 0 0 0 .012-.02 8.75 8.75 0 0 0-4.226-1.982 4.45 4.45 0 0 0-2.162.264c-.05.02-.1.047-.152.07.62-.859 1.237-1.727 1.918-2.535a4.57 4.57 0 0 1 2.332-1.6 5.43 5.43 0 0 1 4.866 1.26c3.302 2.985 2.712 7.958 1.694 11.811-1.235 4.67-2.654 9.304-4.024 13.936a14.4 14.4 0 0 1-1.236 3.125c-.54.943-1.207 1.802-1.823 2.694a33 33 0 0 0-3.136 5.876 98 98 0 0 0-2.332 6.114c-.633 1.819-1.308 4.127-.545 6.012a4.4 4.4 0 0 0 .844 1.326c.002.02 0 .041.003.062.006.033.017.064.024.097a8.3 8.3 0 0 1-1.867-1.813 10.7 10.7 0 0 1-1.402-2.408.047.047 0 0 0-.09.024 8.54 8.54 0 0 0 6.992 6.93c4.21.723 7.95-1.802 10.8-4.631 1.649-1.638 3.137-3.431 4.83-5.026a48 48 0 0 1 5.007-4.038c3.45-2.473 7.07-4.725 10.274-7.525 1.63-1.424 3.02-3.047 4.502-4.616a15.4 15.4 0 0 1 2.488-2.217 22 22 0 0 1 2.688-1.455 15 15 0 0 0 2.545-1.489 4 4 0 0 1 .697-.037 5.6 5.6 0 0 1 1.826.438 9 9 0 0 1 1.629.897c.4.273.857.805 1.373.83.976.046 1.418-1.399 1.686-2.103a5.3 5.3 0 0 0 .38-1.636 9.33 9.33 0 0 1 .987 5.462 15.4 15.4 0 0 1-2.132 6.313 37.3 37.3 0 0 1-3.821 5.27c-1.56 1.867-3.155 3.706-4.734 5.557-1.587 1.859-3.153 3.738-4.767 5.573a24.8 24.8 0 0 1-4.892 4.347 5.8 5.8 0 0 0-2.026 2.224c-.566 1.102-1.03 2.261-1.568 3.378-1.09 2.26-2.225 4.494-3.207 6.802a44 44 0 0 0-.643 1.619l-.04.065a9 9 0 0 0-.953 2.02 6.6 6.6 0 0 0-.108 2.627 44 44 0 0 1 .52 5.58c-.005.887-.075 1.77-.106 2.656-.028.82-.046 1.642-.14 2.458-.351-2.3-.816-4.897-2.52-6.537a.05.05 0 0 0-.079.06c1.157 2.163 1.3 4.481 1.478 6.87.204 2.747.497 5.488.686 8.237.374 5.43.442 10.854.32 16.293q-.052 2.346-.166 4.69a22 22 0 0 0 .193 3.66l-.308-.25a.04.04 0 0 0 .011-.05 23 23 0 0 0-2.774-3.502 13.4 13.4 0 0 0-1.704-1.578c-.568-.774-1.133-1.55-1.718-2.311-1.366-1.777-2.755-3.535-4.088-5.337-.03-.042-.1-.003-.07.041 1.104 1.642 2.157 3.317 3.227 4.981.364.565.741 1.12 1.116 1.678-.028-.013-.053.027-.025.043.034.02.064.046.098.066.66.98 1.324 1.958 1.966 2.951a20.2 20.2 0 0 0 3.18 4.235 12.5 12.5 0 0 1 1.72 1.677 17 17 0 0 1 1.259 2.195c1.418 2.663 3.722 4.433 5.883 6.455a12.9 12.9 0 0 1 2.736 3.357 15.9 15.9 0 0 1 1.307 4.798 30.3 30.3 0 0 0 1.5 5.732 34 34 0 0 0 2.607 5.497c.071.118.28.042.23-.097a40 40 0 0 1-1.664-5.245l-.047-.224c.14.268.267.542.41.808q1.582 2.958 3.285 5.846c2.248 3.81 4.577 7.606 7.183 11.185.72.99 1.504 1.928 2.256 2.893a33 33 0 0 0 2.403 2.837.12.12 0 0 0 .188-.145M54.923 114.246a5.3 5.3 0 0 0-1.254 1.562c-.095.154-.168.32-.254.478a10.6 10.6 0 0 0 .256-1.821q.04-.545.039-1.092c0-.137 0-.281-.002-.424a9.6 9.6 0 0 0 1.227 1.233zM210.29 25.664a5.3 5.3 0 0 1-.977 1.218c-.509.414-.954-.132-1.372-.424a8.9 8.9 0 0 0-2.636-1.322 5.2 5.2 0 0 0-1.333-.2c.528-.501.986-1.064 1.476-1.611a3.52 3.52 0 0 1 2.375-1.437 3.36 3.36 0 0 1 2.542 1.146 5 5 0 0 1 .445.57 2.3 2.3 0 0 1 .023.51 3.3 3.3 0 0 1-.543 1.55m-29.635 90.882a51 51 0 0 1-1.543-1.988q.46.46.897.938c.93 1.02 1.786 2.106 2.7 3.14l-.117-.094a15 15 0 0 1-1.937-1.996"/><path fill="currentColor" d="M55.926 129.864a6.2 6.2 0 0 1-.057-1.882 7 7 0 0 0 .012-1.574 39 39 0 0 1 .638-6.982c.006-.032-.042-.046-.049-.014a43 43 0 0 0-.796 6.877 9 9 0 0 0-.066 1.478 12 12 0 0 1 .178 1.145c.013.317.02.635.033.952q.032.833.1 1.662a3.7 3.7 0 0 0 .26 1.439.04.04 0 0 0 .072-.01 3.7 3.7 0 0 0-.087-1.222 49 49 0 0 1-.238-1.869m1.789 2.574a32 32 0 0 1-.345-3.154 37 37 0 0 1 .026-5.905c.002-.023-.033-.022-.035 0a34 34 0 0 0-.088 6.132c.071.909.22 1.814.36 2.714.14.897.2 1.842.384 2.737-.026.012-.047.035-.035.064a1.7 1.7 0 0 1 .127.363.198.198 0 0 0 .382-.105c-.228-.963-.601-1.863-.776-2.846m2.33 3.15a46 46 0 0 1-.242-.891 19 19 0 0 1-.378-1.97c-.206-1.368-.424-2.737-.604-4.11-.003-.02-.033-.02-.031 0a34 34 0 0 0 .53 3.98c.131.655.28 1.307.395 1.964.062.356.117.713.18 1.069a2.4 2.4 0 0 0 .245.905.051.051 0 0 0 .094-.026 2.6 2.6 0 0 0-.189-.92m1.565 1.195-.148-.685-.275-1.272q-.287-1.319-.592-2.635c-.003-.012-.022-.007-.02.005.161.871.322 1.742.494 2.611l.253 1.278.127.639a1.5 1.5 0 0 0 .166.584c.013.019.048.02.054-.007a1.25 1.25 0 0 0-.06-.518m1.046-1.532c-.005-.02-.034-.012-.03.008a8.6 8.6 0 0 0 .771 2.558.024.024 0 0 0 .043-.018c-.268-.85-.591-1.675-.784-2.548m2.179 2.465q-.17-.352-.346-.702c-.015-.03-.057-.004-.044.025.102.237.201.475.305.711a6 6 0 0 0 .344.688c.012.02.047.008.04-.016a6 6 0 0 0-.299-.706m-13.916-27.483a16.3 16.3 0 0 0-.47 3.68 31 31 0 0 0-.105 3.85.045.045 0 0 0 .09 0c.033-1.262-.022-2.513.087-3.776.108-1.251.372-2.496.425-3.75a.014.014 0 0 0-.027-.004m-1.494-.656a19 19 0 0 0-.374 2.824q-.048.734-.105 1.467a8.4 8.4 0 0 0-.092 1.47c.001.015.023.02.026.004a9 9 0 0 0 .116-1.36q.065-.786.18-1.564c.136-.943.26-1.88.33-2.83a.041.041 0 0 0-.08-.01m-1.254-.889a9 9 0 0 0-.123.586q-.05.286-.089.575c-.002.015.023.018.027.003q.066-.292.121-.586c.037-.19.063-.382.087-.575.002-.013-.02-.015-.023-.003M167.412 3.756a1.4 1.4 0 0 0-.164-.512 1.7 1.7 0 0 0-.412-.406c-.028-.022-.085-.003-.068.04a2.5 2.5 0 0 1 .104.49c.028.17.084.336.111.507a3 3 0 0 1-.04 1.03 6.8 6.8 0 0 1-.868 2.177c-.012.02.017.037.03.018a6.7 6.7 0 0 0 1.27-2.212 3.1 3.1 0 0 0 .037-1.132M121.85 28.894c-.207-.099-.425-.163-.639-.245-.246-.095-.443-.266-.67-.373a3.3 3.3 0 0 0-1.234-.06c-.691-.019-1.381-.005-2.072.004a10.5 10.5 0 0 1-2.095-.067 17 17 0 0 0-1.786-.312 7.36 7.36 0 0 0-3.411.568c-.008.004-.003.017.006.014a4.5 4.5 0 0 1 2.049-.173c.46.08.89.169 1.356.214a25 25 0 0 0 3.528-.146 17 17 0 0 1 1.763-.013 5.2 5.2 0 0 1 1.02.13c.186.048.337.16.51.214a1.2 1.2 0 0 0 .34.03 1.8 1.8 0 0 1 1.014.199 7.5 7.5 0 0 1 1.426.92.027.027 0 0 0 .039-.04 3.4 3.4 0 0 0-1.143-.864m-3.356-1.641a.4.4 0 0 0-.188-.088 1.6 1.6 0 0 0-.471.057 5.6 5.6 0 0 1-1.02-.014c-.678-.03-1.356-.06-2.035-.103-.018 0-.017.025 0 .028.678.089 1.356.173 2.036.24a6 6 0 0 1 1.058.13 1.2 1.2 0 0 0 .432.097.4.4 0 0 0 .163-.069 1.3 1.3 0 0 1 .315-.097.03.03 0 0 0 0-.056 1 1 0 0 1-.29-.125m2.795.347a18 18 0 0 0-.593-.062 35 35 0 0 0-1.242-.09c-.015 0-.015.022 0 .024q.63.056 1.25.173.294.058.586.122a1.3 1.3 0 0 0 .556.056.04.04 0 0 0 .009-.072 1.2 1.2 0 0 0-.565-.15m-6.769 2.387c-.018-.003-.025.023-.008.026.458.067.915.141 1.374.192.011.001.014-.017.003-.02-.454-.078-.913-.135-1.37-.198m38.775-4.207a4.1 4.1 0 0 0-2.235-.317c-.467.088-.898.27-1.377.32-.425.046-.856.062-1.283.082-.856.041-1.713.06-2.568.102a.02.02 0 0 0 0 .04c1.624.084 3.265-.128 4.88.053a12.5 12.5 0 0 0 2.23-.154 5.5 5.5 0 0 1 2.413.755c.007.003.013-.007.006-.01a23 23 0 0 0-2.066-.87m3.226 2.335c-.776-.283-1.536-.6-2.323-.854a3.3 3.3 0 0 0-.563-.195 4 4 0 0 0-.588.067 10 10 0 0 1-1.177-.105 27 27 0 0 0-2.543-.145.014.014 0 0 0 0 .028 21 21 0 0 1 2.525.252 5 5 0 0 1 1.154.268 4 4 0 0 0 .498.275c.196.051.44.04.64.071a14.3 14.3 0 0 1 2.33.51c.75.25 1.482.55 2.225.825.014.006.024-.017.01-.025a14.5 14.5 0 0 0-2.188-.972m-2.766-3.251c-.014-.004-.02.017-.006.023 1.166.422 2.32.871 3.5 1.248.019.006.032-.023.014-.032a27 27 0 0 0-3.508-1.24m36.341 19.012c-.51-.408-.976-.85-1.466-1.278a3.1 3.1 0 0 0-.761-.467c-.284-.13-.594-.173-.885-.287-.625-.245-1.242-.506-1.886-.702-.01-.003-.018.014-.007.018a18 18 0 0 1 1.655.83 13 13 0 0 0 1.562 1.059 7.6 7.6 0 0 1 1.667.894c.541.399 1.037.852 1.56 1.273a.016.016 0 0 0 .022-.022 12 12 0 0 0-1.461-1.318m-.8.903a.46.46 0 0 0-.192-.125c-.053-.019-.114-.012-.163-.028a1.5 1.5 0 0 1-.361-.24 9.3 9.3 0 0 0-1.467-.872c-.004-.003-.008.004-.003.006a8 8 0 0 1 1.37.96 1.4 1.4 0 0 1 .285.293 1 1 0 0 1 .04.13.5.5 0 0 0 .127.208c.207.196.503.272.723.455.03.024.078-.006.056-.042a4.2 4.2 0 0 0-.415-.745m1.889 2.31q-.174-.193-.355-.379-.362-.373-.717-.752c-.017-.018-.044.01-.027.028q.337.397.667.8a3.8 3.8 0 0 0 .698.738c.022.015.046-.014.035-.035a2 2 0 0 0-.301-.4m-2.54-5.367c-.02-.008-.035.026-.015.036.6.282 1.197.558 1.818.792.018.007.031-.023.013-.032a25 25 0 0 0-1.816-.796m-13.068 98.531a.035.035 0 0 0-.06.036c1.083 1.945 2.176 3.878 3.36 5.763a.023.023 0 0 0 .04-.023c-1.05-1.964-2.187-3.871-3.34-5.776m6.436 6.618a21 21 0 0 1-.664-1.038 34 34 0 0 1-1.223-2.17c-.346-.683-.643-1.392-.972-2.083-.18-.378-.356-1.147-.881-1.16a.04.04 0 0 0-.01.077c.377.08.441.716.553 1.007a9 9 0 0 0 .4.894c.312.6.724 1.139 1.067 1.72.367.62.735 1.241 1.075 1.877q.274.512.522 1.038a1.64 1.64 0 0 0 .492.75.055.055 0 0 0 .082-.047 1.8 1.8 0 0 0-.44-.865m-.607-5.028a.035.035 0 0 0-.06.036c.382.731.791 1.451 1.195 2.172.013.024.056.008.046-.02a8.4 8.4 0 0 0-1.181-2.188m3.203 5.43c-.111-.17-.233-.333-.348-.501q-.343-.495-.71-.972c-.014-.019-.047-.001-.033.02a10 10 0 0 1 .605 1.032c.09.176.168.36.246.54.066.152.143.381.33.392a.05.05 0 0 0 .04-.023c.101-.153-.043-.355-.13-.488m2.122-.299-.753-1.292q-.766-1.316-1.546-2.622a.022.022 0 0 0-.037.021q.726 1.339 1.469 2.668l.728 1.307a7 7 0 0 0 .743 1.257.061.061 0 0 0 .1-.059 7 7 0 0 0-.704-1.28m1.538-1.278c-.01-.018-.035-.002-.027.016a10 10 0 0 0 1.642 2.682.027.027 0 0 0 .043-.033c-.536-.9-1.155-1.744-1.658-2.665m3.559.594q-.047-.061-.097-.121a1.7 1.7 0 0 0-.222-.203 2 2 0 0 0-.256-.159q-.136-.075-.276-.14a.043.043 0 0 0-.044.074q.118.087.23.183c.076.065.145.14.223.201.075.058.144.125.22.18l.119.088a.3.3 0 0 0 .121.071.042.042 0 0 0 .05-.05.3.3 0 0 0-.068-.124M89.592 173.02c-3.545-.614-7.111-1.082-10.646-1.759-.015-.003-.021.02-.006.023a70 70 0 0 0 10.645 1.79c.03.002.037-.049.007-.054m-1.792-2.537c-2.195-.465-4.394-.921-6.564-1.497a.018.018 0 0 0-.01.034 41 41 0 0 0 6.57 1.501c.021.003.026-.034.005-.038m7.079.692a10.3 10.3 0 0 0-2.613-.345c-.448-.018-.897 0-1.345-.022-.449-.022-.895-.082-1.34-.14-.016-.002-.02.024-.004.027.442.08.887.148 1.327.24.455.096.9.22 1.36.296a7.5 7.5 0 0 0 2.614.065c.064-.012.055-.104 0-.12m3.636-2.763a38 38 0 0 1-6.16-.183 40 40 0 0 1-5.819-1.279c-.027-.008-.037.032-.011.041a25.2 25.2 0 0 0 5.812 1.365 26.4 26.4 0 0 0 6.178.118c.038-.005.041-.063 0-.062m-3.562-2.453c-.688-.162-1.386-.279-2.072-.453-.686-.175-1.353-.415-2.036-.601a.022.022 0 0 0-.016.04 9.6 9.6 0 0 0 2.01.713 9.7 9.7 0 0 0 2.106.358.03.03 0 0 0 .008-.057m6.815.11a2.9 2.9 0 0 0-.912-.035c-.326.015-.652.02-.978.034q-.977.044-1.955.01c-.038 0-.037.056 0 .06.65.052 1.303.096 1.955.121.326.013.652.007.978 0a2.5 2.5 0 0 0 .912-.118.037.037 0 0 0 0-.072m1.536-2.643a19.6 19.6 0 0 0-3.492-.14 33 33 0 0 1-3.589-.297c-.01-.002-.013.017-.002.019a41 41 0 0 0 3.523.534 9.9 9.9 0 0 0 3.56-.007.057.057 0 0 0 0-.109m1.267-1.997a8 8 0 0 0-1.258-.135c-.433-.026-.868-.033-1.301-.048-.046-.001-.045.066 0 .07.425.044.85.095 1.276.127a8 8 0 0 0 1.277.036c.026-.002.036-.043.006-.05m-3.654 13.266a11.6 11.6 0 0 0-3.166-.823 7.7 7.7 0 0 0-1.53-.237 4.1 4.1 0 0 0-1.57.296c-.025.01-.025.051.006.05.54-.015 1.082-.026 1.622-.021a10.6 10.6 0 0 1 1.616.053c1.022.166 1.973.632 3.005.744.033.003.045-.047.017-.062m.834-1.556a6.8 6.8 0 0 0-2.72-.359.033.033 0 0 0 0 .067 14.6 14.6 0 0 1 2.709.333.022.022 0 0 0 .011-.041m-.486-111.968a3 3 0 0 0-.036-.283 1.6 1.6 0 0 0-.102-.294.7.7 0 0 0-.095-.151l-.046-.057a.4.4 0 0 0-.06-.043.14.14 0 0 0-.145-.027.13.13 0 0 0-.082.121 1 1 0 0 0 .027.163 1 1 0 0 0 .059.15q.066.13.144.254c.048.079.11.15.158.232l.141.249a.033.033 0 0 0 .062-.017 3 3 0 0 0-.025-.297m.931 2.53c-.084-.152-.176-.3-.264-.45a5 5 0 0 1-.446-.963.018.018 0 0 0-.034.009c.078.351.157.704.25 1.051a4 4 0 0 0 .17.49.7.7 0 0 0 .34.426.11.11 0 0 0 .131-.075.77.77 0 0 0-.147-.488m2.206 1.013c-.252-.456-.48-.923-.695-1.398-.429-.949-.757-1.944-1.166-2.901-.017-.042-.083-.012-.071.03a18.7 18.7 0 0 0 1.173 2.848c.222.47.455.937.686 1.404a6.6 6.6 0 0 0 .727 1.335.037.037 0 0 0 .062-.036 10 10 0 0 0-.716-1.282m1.47-.588-.416-.936q-.415-.936-.848-1.863c-.007-.014-.03-.004-.025.01q.372.954.764 1.899l.392.946a4.4 4.4 0 0 0 .427.867.022.022 0 0 0 .04-.016 4.3 4.3 0 0 0-.334-.907m1.537-1.133q-.175-.277-.34-.56a45 45 0 0 1-.658-1.179c-.01-.019-.044-.006-.036.015a12 12 0 0 0 .58 1.206q.164.296.338.586a2 2 0 0 0 .391.537.028.028 0 0 0 .046-.027 2.4 2.4 0 0 0-.321-.578m1.079-1.854c-.007-.008-.018.003-.011.01l.255.319c.005.006.013-.002.009-.008Zm1.588-.378c-.01-.005-.02.011-.01.017l.127.066c.013.007.025-.014.012-.02Zm23.14 2.546c-.017-.04-.083-.025-.068.019a14 14 0 0 0 1.42 3.065.025.025 0 0 0 .043-.025c-.486-1.008-.977-2.02-1.395-3.059m3.197 3.544q-.352-.61-.68-1.235a45 45 0 0 1-1.208-2.493c-.003-.008-.017-.003-.014.006q.509 1.269 1.135 2.485.312.607.648 1.2a6.4 6.4 0 0 0 .724 1.162c.01.011.032 0 .026-.015a9 9 0 0 0-.631-1.11m1.541-.638q-.125-.23-.245-.462-.248-.483-.493-.967a21 21 0 0 0-1.07-1.93.022.022 0 0 0-.037.02c.324.662.689 1.302 1.043 1.947q.26.477.501.963.116.235.224.474a1.8 1.8 0 0 0 .25.469c.02.023.053-.003.048-.029a1.7 1.7 0 0 0-.22-.485m.102-3.357c-.008-.015-.031-.002-.023.014.137.282.27.568.434.836.01.015.03.002.024-.014-.126-.288-.282-.561-.435-.836m1.446 2.694-.103-.175q-.102-.172-.21-.34a.014.014 0 0 0-.023.013c.058.12.113.242.174.361l.09.176a1 1 0 0 0 .099.172.04.04 0 0 0 .036.01.04.04 0 0 0 .016-.01.04.04 0 0 0 .01-.036 1 1 0 0 0-.089-.17m.61-2.54q-.243-.472-.526-.921a.014.014 0 0 0-.023.014q.268.448.499.916c.153.312.285.634.44.945a.014.014 0 0 0 .025-.01 6 6 0 0 0-.415-.944m1.159-.637a6 6 0 0 0-.297-.53c-.007-.01-.026-.004-.022.01l.093.28c.033.098.076.192.116.287a5 5 0 0 0 .286.53c.011.02.047.006.039-.017a6 6 0 0 0-.215-.56m21.502 7.382c-.003-.018-.029-.01-.026.007a14 14 0 0 0 1.29 4.36c.01.019.044.005.037-.016a27 27 0 0 1-1.3-4.351m3.109 5.63-.02-.003c-.019-.002-.026.025-.015.037a.15.15 0 0 0-.02-.16l-.077-.219-.113-.329q-.132-.384-.26-.77a34 34 0 0 1-.44-1.441c-.29-1.003-.594-2.001-.89-3.002a.03.03 0 0 0-.056.015c.276 1.108.58 2.205.928 3.293q.255.801.5 1.605c.08.258.157.517.24.775.04.122.05.272.185.315a.05.05 0 0 0 .045-.011.07.07 0 0 0 .02-.084.03.03 0 0 0-.027-.021m.14-5.314c-.006-.016-.032-.01-.027.008.155.495.311.987.484 1.477.005.014.027.008.022-.007a44 44 0 0 0-.48-1.478m1.487 4.337a2 2 0 0 0-.093-.286 4 4 0 0 0-.259-.541.022.022 0 0 0-.037.022 2.4 2.4 0 0 1 .209.553c.022.095.035.191.053.287l.024.133a.2.2 0 0 0 .059.118.027.027 0 0 0 .043-.006.2.2 0 0 0 .026-.127q-.01-.077-.025-.153m.543-3.502a.006.006 0 0 0-.01.003 8 8 0 0 0 .344 1.034c.004.011.023.007.019-.005-.13-.34-.253-.682-.353-1.032m1.072 3.015c-.032-.101-.078-.198-.117-.296l-.118-.296c-.009-.023-.045-.015-.037.01l.09.304c.03.1.054.204.091.303a.05.05 0 0 0 .04.03l-.014-.006.022.028c.012.015.036.002.036-.016v-.036l-.011.02a.05.05 0 0 0 .018-.045m.477-3.085c-.008-.021-.042-.013-.034.009.176.517.353 1.032.557 1.538.006.014.028.009.023-.006a29 29 0 0 0-.547-1.541m1.215-.32c-.007-.016-.032-.01-.027.007a6.2 6.2 0 0 0 .583 1.37c.013.022.044.002.034-.02-.202-.45-.408-.9-.59-1.357m9.767 43.708a39 39 0 0 0-1.75-2.177 39 39 0 0 0-4.155-4.121c-.015-.013-.037.008-.022.022a63 63 0 0 1 3.999 4.169 62 62 0 0 1 1.824 2.187c.605.765 1.134 1.588 1.74 2.349.022.028.066-.008.048-.038a24 24 0 0 0-1.684-2.39m.028-2.802q-.72-.918-1.467-1.816a34 34 0 0 0-3.234-3.362c-.018-.017-.045.01-.027.028q1.63 1.623 3.162 3.344c.504.564.992 1.14 1.457 1.738.472.606.872 1.307 1.397 1.868.014.015.036-.004.027-.021a12.4 12.4 0 0 0-1.315-1.779m-2.224-5.803a15 15 0 0 0-1.533-1.346c-.016-.012-.036.014-.022.028q.732.705 1.444 1.43c.472.48.913 1.004 1.408 1.462.02.02.056-.005.04-.03a10 10 0 0 0-1.337-1.544m3.329 3.711q-.057-.074-.119-.144c-.082-.097-.176-.185-.264-.277a19 19 0 0 1-.51-.555c-.023-.027-.06.012-.038.039q.237.3.463.61c.072.1.14.203.218.299q.057.073.12.142a.2.2 0 0 0 .146.07.03.03 0 0 0 .03-.03.2.2 0 0 0-.046-.154m-1.005-4.438-.78-.774c-.52-.515-1.051-1.02-1.578-1.529a.03.03 0 0 0-.041.042c.511.524 1.018 1.053 1.536 1.57l.755.756a5.5 5.5 0 0 0 .79.728.022.022 0 0 0 .029-.029 5.3 5.3 0 0 0-.71-.764m-1.361-4.195c-.019-.016-.046.01-.027.028a29 29 0 0 0 2.273 2.194c.025.02.073-.007.05-.038a14.7 14.7 0 0 0-2.296-2.184m1.586-1.38c-.098-.122-.204-.238-.308-.356-.206-.236-.426-.46-.64-.69-.038-.04-.096.02-.06.061.2.235.396.477.603.706.102.113.202.229.309.337a5 5 0 0 0 .333.33c.023.02.061-.004.043-.032a4 4 0 0 0-.28-.356m.975-28.629-.436-1.32a.041.041 0 0 0-.08.022l.347 1.345a6 6 0 0 0 .434 1.276.031.031 0 0 0 .058-.016 6 6 0 0 0-.323-1.307m-1.406-.487a.012.012 0 0 0-.022.006 13.3 13.3 0 0 0 .829 2.71c.014.03.062.008.053-.023-.243-.91-.572-1.796-.86-2.693M56.595 114.408s-.689-1.016-1.655-2.52l1.18-.756a131 131 0 0 0 1.634 2.491Zm-4.824-7.712c-.903-1.577-1.608-2.933-2.097-4.03a93 93 0 0 0-.656-1.428l1.268-.592c.27.575.495 1.066.666 1.45.47 1.055 1.154 2.368 2.034 3.904ZM46.4 95.776c-.846-1.742-1.762-3.616-2.66-5.447l1.256-.617c.9 1.833 1.817 3.71 2.664 5.453Zm-5.338-10.888-2.388-4.824q-.075-.148-.128-.27l-.004.002s-.068-.126-.18-.353l.096-.047a.66.66 0 0 1 .107-.298l.22.137.835-.41c.096.196.154.308.157.313l2.54 5.13Zm-4.637-11.397a10 10 0 0 1-.1-1.392 6.5 6.5 0 0 1 .322-2.116 12 12 0 0 0 .45-2.618l1.394.122a13 13 0 0 1-.52 2.953 5.1 5.1 0 0 0-.246 1.659 9 9 0 0 0 .087 1.203Zm.783-12.094a86 86 0 0 0-.38-5.992l1.392-.139a87 87 0 0 1 .387 6.091Zm26.506-9.255a19 19 0 0 1-1.495-4.383l-.32-1.548 1.37-.283.32 1.545a17.7 17.7 0 0 0 1.386 4.06Zm-27.862-2.577c-.165-.575-.324-1.108-.475-1.617-.442-1.488-.825-2.774-1.125-4.271l1.373-.274c.288 1.434.661 2.69 1.094 4.147.153.512.312 1.05.478 1.628Zm24.737-9.227a48 48 0 0 0-1.792-5.684l1.305-.51a49 49 0 0 1 1.844 5.848Zm-26.976-2.781-.004-.13c-.042-1.3-.174-2.644-.302-3.943-.064-.645-.127-1.287-.18-1.924l1.395-.116c.052.63.115 1.265.178 1.902.13 1.322.265 2.69.308 4.035l.005.129Zm22.616-8.258a44 44 0 0 0-1.503-2.423 18.5 18.5 0 0 0-1.882-2.38l1.023-.956a20 20 0 0 1 2.024 2.56c.552.828 1.074 1.67 1.552 2.5ZM34.7 25.632l-1.365-.31a9.5 9.5 0 0 1 2.86-5.027q.238-.223.493-.424l.866 1.1q-.209.165-.405.348a8.16 8.16 0 0 0-2.449 4.313m13.553-4.658a13.1 13.1 0 0 0-5.482-1.547l.054-1.4a14.5 14.5 0 0 1 6.075 1.706Zm21.339 38.388a16.3 16.3 0 0 1-2.34-2.098l1.019-.96a15 15 0 0 0 2.117 1.906Zm21.626-8.33-.882-1.088c.009-.007.902-.733 2.243-1.934l.934 1.043a67 67 0 0 1-2.295 1.979m6.79-6.296-1.006-.974a63 63 0 0 0 4.052-4.58l1.096.872a65 65 0 0 1-4.142 4.682m7.67-9.9-1.23-.666a17.5 17.5 0 0 0 1.26-2.876 27 27 0 0 0 .732-2.738l1.37.29a29 29 0 0 1-.77 2.88 19 19 0 0 1-1.361 3.11m2.819-12.233-1.399-.074c.134-2.55.358-4.487 2.02-6.183l1 .98c-1.325 1.351-1.496 2.895-1.621 5.277m9.455-7.076a11 11 0 0 0-2.751-.351l-.016-1.4a11.5 11.5 0 0 1 3.18.413Zm49.817 16.09a28 28 0 0 0-2.677-1.154l.473-1.317a29 29 0 0 1 2.833 1.22Zm-2.61 17.407-1.166-.775a140 140 0 0 1 2.988-4.292l1.137.818a137 137 0 0 0-2.959 4.249m5.76-8.813-1.298-.526a9 9 0 0 0 .478-1.495c-.004 0 .096-1.53.096-2.97l-.002-.384 1.4-.02.003.404c0 1.518-.106 3.08-.11 3.145a9.3 9.3 0 0 1-.567 1.846m-9.508 15.813-1.356-.348a14 14 0 0 1 1.212-2.918l1.24.648a13 13 0 0 0-1.096 2.618m31.008 4.438a10 10 0 0 0-1.453-2.358l1.043-.934a11.1 11.1 0 0 1 1.693 2.73Zm-1.855 10.822-1.052-.923a17.8 17.8 0 0 0 3.22-4.67l1.3.521a18.8 18.8 0 0 1-3.468 5.072m-6.032 6.512-1.13-.829a26 26 0 0 1 2.05-2.31l1.01.97a25 25 0 0 0-1.93 2.169m1.433 25.637a29 29 0 0 1-2.456-1.862l.916-1.06a28 28 0 0 0 2.325 1.763Zm7.179 16.717-.238-1.38a18.6 18.6 0 0 0 5.693-1.892l.664 1.233a20 20 0 0 1-6.12 2.04m11.01-6.367-1.167-.771a8.2 8.2 0 0 0 1.23-2.915 2.4 2.4 0 0 0 .046-.461 2 2 0 0 0-.648-1.456l.992-.987a3.38 3.38 0 0 1 1.057 2.443 4 4 0 0 1-.075.733 9.6 9.6 0 0 1-1.434 3.414m-5.902-7.673a43 43 0 0 0-6.132-.528l.027-1.4a44.4 44.4 0 0 1 6.342.548Zm-11.51 14.386a39 39 0 0 1-3.047-.273l.179-1.388a37 37 0 0 0 2.936.263Zm-173.155-8.358C13.034 111.92 0 106.509 0 82.449 0 58.476 12.192 52.206 12.71 51.95l1.324 2.693-.661-1.346.67 1.342C13.932 54.695 3 60.49 3 82.449c0 21.877 11.219 26.707 11.696 26.902Z"/><path fill="currentColor" d="M19.904 47.263 8.373 50.098l3.585 4.104 3.584 4.105zm-1.488 69.692-2.835-11.53-4.104 3.585-4.105 3.584zm201.319-4.816-1.1-2.791c.469-.192 11.688-5.022 11.688-26.899 0-21.958-10.932-27.754-11.042-27.81l1.332-2.689c.518.256 12.71 6.526 12.71 30.5 0 24.06-13.033 29.47-13.588 29.689"/><path fill="currentColor" d="m213.42 47.263 11.53 2.835-3.585 4.104-3.584 4.105zm1.487 69.692 2.835-11.53 4.104 3.585 4.105 3.584z"/></svg>