<svg xmlns="http://www.w3.org/2000/svg" data-name="Safety Stop" viewBox="0 0 479.294 411.654"><path fill="currentColor" d="M479.248 49.722c-.364-3.055-2.974-4.872-5.676-5.819-3.71-1.299-7.825-1.246-11.696-1.565q-7.307-.603-14.6-1.347-14.681-1.5-29.296-3.573-29.035-4.127-57.692-10.496c-9.459-2.103-18.887-4.365-28.25-6.858-8.701-2.316-17.328-5.083-24.87-10.131-3.343-2.238-6.603-4.743-10.474-6.006-4.55-1.484-9.405-.697-14.056-.227-8.844.893-17.696 1.703-26.499 2.917h-.022c-2.068.126-4.136.274-6.201.432-4.143.318-8.277.707-12.425.971q-12.314.786-24.66.86c-8.273.05-16.543-.185-24.81-.48-8.128-.29-16.259-.556-24.373-1.112q-6.858-.47-13.683-1.264a331 331 0 0 1-6.813-.848c-1.228-.168-2.453-.373-3.681-.534a214 214 0 0 0-6.256-2.481 33.7 33.7 0 0 0-6.93-1.948c-4.995-.733-9.905.58-14.77 1.573q-7.603 1.55-15.252 2.86-15.24 2.614-30.624 4.268c-10.237 1.1-20.51 1.873-30.794 2.392q-7.677.388-15.36.576c-5.123.132-10.248.13-15.369.312-1.31.046-2.61.095-3.917.197a.207.207 0 0 0 0 .414 128 128 0 0 0 15.368.71q7.684.043 15.364-.192c10.192-.306 20.366-.996 30.512-2q15.275-1.51 30.44-3.955 7.587-1.222 15.133-2.68 3.772-.728 7.533-1.515a49.5 49.5 0 0 1 7.439-1.191c4.979-.269 9.543 1.611 14.084 3.406 4.86 1.92 9.777 3.639 14.742 5.266q1.82.596 3.637 1.204c.26.087.445-.333.19-.45-2.96-1.36-5.91-2.729-8.878-4.057.828.137 1.656.27 2.487.388 4.054.574 8.133.971 12.214 1.298 8.166.654 16.357.94 24.542 1.235 8.275.298 16.552.586 24.834.592q12.464.01 24.914-.706 6.968-.402 13.92-1.03c2.315-.209 4.614-.542 6.915-.858l.02-.003c1.61-.095 3.22-.203 4.82-.36q7.212-.71 14.424-1.437c4.666-.471 9.348-1.101 14.031-1.366a19.9 19.9 0 0 1 6.921.621 22.8 22.8 0 0 1 5.399 2.594c3.529 2.195 6.808 4.705 10.522 6.604a78 78 0 0 0 11.656 4.699c8.604 2.766 17.475 4.805 26.265 6.886q10.824 2.563 21.72 4.801a2.3 2.3 0 0 0-.59 1.456.06.06 0 0 0 .11.03 5 5 0 0 1 .431-.708 3.7 3.7 0 0 1 .589-.595l.074-.059c.485.1.972.192 1.457.29a5 5 0 0 0-.439.329 2 2 0 0 0-.427.499 3 3 0 0 0-.169.32.7.7 0 0 1-.153.243c-.065.055-.16.072-.23.122a.75.75 0 0 0-.237.292c-7.897-1.767-15.792-3.547-23.661-5.431-9.138-2.189-18.275-4.518-27.2-7.468a89.6 89.6 0 0 1-12.532-5.073c-3.928-1.997-7.65-4.4-11.777-5.986-8.066-3.1-16.764-2.773-25.183-1.594-2.12.297-4.234.623-6.348.955-.113.018-.087.207.027.2 8.33-.554 16.788-1.016 25.034.64a41.5 41.5 0 0 1 11.764 4.522 112 112 0 0 0 11.51 5.703c8.254 3.353 16.954 5.667 25.57 7.88 6.892 1.77 13.824 3.376 20.762 4.954a6.6 6.6 0 0 0-.94.605 10.4 10.4 0 0 0-1.75 2.299 29 29 0 0 0-1.634 2.368 15.6 15.6 0 0 0-1.192 2.65.087.087 0 0 0 .083.109 1.3 1.3 0 0 0 .492-.06 4 4 0 0 1 .452-.222c.23-.055.35.022.55-.132a1.6 1.6 0 0 0 .357-.444c.452-.769.634-1.644 1.161-2.383a9 9 0 0 1 1.76-1.844 9 9 0 0 1 1.157-.777 6 6 0 0 0 1.035-.585.106.106 0 0 0-.074-.18 4.5 4.5 0 0 0-1.949.977 10.3 10.3 0 0 0-1.77 1.58 14.6 14.6 0 0 0-1.375 1.864c-.23.363-.444.736-.692 1.087a1.3 1.3 0 0 0-.24.48c-.057.258-.11.313-.42.406a1.4 1.4 0 0 1-.31.042 13.8 13.8 0 0 1 1.276-2.71 8 8 0 0 1 2.075-2.463c.407-.282.872-.523 1.3-.778a10 10 0 0 0 1.226-.902c.224-.184.56-.409.835-.666l4.429 1.005c17.71 4.017 35.451 7.989 53.414 10.718q3.766.572 7.543 1.06a2.29 2.29 0 0 0-.995 2.158 2.17 2.17 0 0 0 1.365 1.776c.977.284 1.966.59 2.976.783 1.202.231 2.429.37 3.647.483a29 29 0 0 0 3.73.244c1.219-.047 2.176-.874 3.235-1.399a15.4 15.4 0 0 1 3.297-1.125 24.3 24.3 0 0 1 4.047-.537c.45-.029.9-.034 1.35-.042 2.319.479 4.398 1.537 5.008 4.17.745 3.217-.886 6.593-2.916 8.995a18.5 18.5 0 0 1-1.9 1.93h-.157a.71.71 0 0 0-.762.635c-.077.047-.157.09-.233.138q-.715.45-1.414.926a2.7 2.7 0 0 0-.682.594l-.04.052a33.7 33.7 0 0 1-12.77 4.032 59.4 59.4 0 0 1-8.699.42c-.765-.847-1.645-1.61-2.467-2.4l-2.606-2.5q-2.607-2.5-5.228-4.986c-.014-.014-.036.008-.022.022q2.587 2.52 5.183 5.03l2.525 2.437c.825.796 1.626 1.653 2.503 2.395a64 64 0 0 1-5.11-.3c-.572-.5-1.154-.991-1.717-1.495q-1.431-1.282-2.823-2.608-2.51-2.39-4.915-4.888a10.7 10.7 0 0 0 .774-3.486 8.19 8.19 0 0 0-4.897-8.082c-3.464-1.504-7.42-1.13-11.1-1.178-4.442-.058-8.88-.323-13.3-.768a197 197 0 0 1-26.28-4.598c-17.494-4.202-34.53-10.18-51.434-16.283q-2.79-1.007-5.566-2.06c-.436-.359-.888-.7-1.31-1.04a126 126 0 0 0-2.932-2.287 159 159 0 0 0-6.235-4.474c-.012-.008-.024.012-.011.02a134 134 0 0 1 6.079 4.67c.95.771 1.887 1.558 2.82 2.35.098.082.195.171.292.257-1.16-.446-2.322-.888-3.476-1.35q-.548-.456-1.1-.91-1.638-1.334-3.303-2.633-3.193-2.492-6.487-4.849c-.024-.017-.047.023-.023.041q3.29 2.526 6.494 5.163 1.533 1.264 3.044 2.554l.176.151q-1.638-.664-3.263-1.358a50 50 0 0 0-4.786-3.455q-3.246-2.14-6.658-4.003a.016.016 0 0 0-.016.027 87 87 0 0 1 6.47 4.096c1.298.908 2.55 1.882 3.82 2.83a139 139 0 0 1-8.694-4.144 35 35 0 0 0-5.734-2.67 15.9 15.9 0 0 0-6.39-.464 120 120 0 0 0-13.244 2.043 55 55 0 0 0-6.503 1.826.223.223 0 0 0 .119.43c4.399-.736 8.773-1.551 13.214-2.024 2.227-.237 4.47-.413 6.71-.431a16.9 16.9 0 0 1 6.113.702 50 50 0 0 1 5.658 2.79q2.906 1.487 5.883 2.83c3.952 1.793 7.978 3.423 12.034 4.965 8.157 3.1 16.413 5.967 24.674 8.777q7.58 2.577 15.236 4.922c-.436.204-.85.489-1.295.7a2.5 2.5 0 0 0-1.206 1.052c-.264.465-.458.972-.72 1.44-.59 1.057-1.25 2.08-1.905 3.098a8.5 8.5 0 0 0-1.564 3.057.02.02 0 0 0 .037.01 10.7 10.7 0 0 1 1.876-3.03c.68-.855 1.339-1.746 2.095-2.536.671-.702 1.738-1.126 2.166-2.025a5.1 5.1 0 0 1 1.497-1.467c2.846.859 5.698 1.696 8.566 2.48a219 219 0 0 0 32.186 6.433 2.8 2.8 0 0 0-.73.689 3.5 3.5 0 0 0-.523 1.587 2.28 2.28 0 0 0 .998 2.499 2.8 2.8 0 0 0 1.27.28 2.94 2.94 0 0 1 1.348.22c.022.013.05-.018.029-.036a7.5 7.5 0 0 0-1.89-1.066 1.24 1.24 0 0 1-.728-.597 1.95 1.95 0 0 1 .056-1.3 2.35 2.35 0 0 1 .55-1.086 2.8 2.8 0 0 1 .871-.524 4.5 4.5 0 0 0 .887-.431 160 160 0 0 0 16.946.9l.484-.002a11.2 11.2 0 0 0-2.667 1.537c-.526.406-1.06.812-1.571 1.236a7.4 7.4 0 0 1-1.722 1.33c-.045.018-.045.092.013.091a4.8 4.8 0 0 0 1.617-.184 5.6 5.6 0 0 0 1.51-.936 14.2 14.2 0 0 1 3.204-2.06 10.6 10.6 0 0 1 3.56-.826 8.25 8.25 0 0 1 5.123 2.302c2.218 2.367 1.867 6.184.358 8.823a11 11 0 0 1-2.386 2.835c-.076-.08-.247-.123-.219.15.001.009.009.016.01.025a16 16 0 0 1-.93.7c-.418.224-.864.363-1.293.564-.328.153-.647.36-1.005.218a.69.69 0 0 0-.699.184c-.313.402-.672.764-.982 1.168-.028.037-.05.079-.077.117-.25.109-.499.22-.747.321a62 62 0 0 1-11.944 3.442 64.5 64.5 0 0 1-12.86 1.082 100 100 0 0 1-13.274-1.323c-7.975-1.195-16.098-2.758-24.203-2.736a15 15 0 0 0 3.363-1.235c.137-.072.058-.258-.073-.27a30 30 0 0 0-3.21-.057c-1.03.02-2.075.025-3.102.115-2.113.184-4.235.26-6.355.247a98 98 0 0 1-12.74-.982c-4.26-.586-8.488-1.377-12.71-2.189-3.388-.651-6.818-1.265-10.134-2.235a16.9 16.9 0 0 1-4.773-2.056 16.1 16.1 0 0 1-3.74-3.62c-.03-.04-.103-.02-.086.036a8.04 8.04 0 0 0 2.38 3.673 19.3 19.3 0 0 0 3.624 2.523c-.016.017-.031.035-.038.041a2.1 2.1 0 0 1-.503.324c-.236.098-.485.181-.733.266a66 66 0 0 0-7.182.694q-4.46.563-8.956.78a80 80 0 0 1-8.942.045 24.5 24.5 0 0 1-8.189-1.708 20.6 20.6 0 0 1-3.784-2.16 29 29 0 0 1-3.618-2.85c-.04-.04-.095.02-.06.061a26 26 0 0 0 2.733 3.165 24 24 0 0 0 3.083 2.339 18.7 18.7 0 0 0 3.545 1.739 14 14 0 0 0-2.86-.029 14.7 14.7 0 0 0-3.344.87c-2.162.777-4.258 1.73-6.332 2.713a87 87 0 0 1-12.601 5.19c-8.587 2.528-17.587 3.387-26.091 6.223a49 49 0 0 0-6.081 2.47c-2.107 1.035-4.026 2.34-6.02 3.567-4.092 2.517-8.838 3.26-13.552 3.667a74 74 0 0 1-26.087-2.45 90.7 90.7 0 0 1-23.953-10.999c-.909-.572-1.822-1.092-2.69-1.729-.253-.185-.575.23-.337.436a64 64 0 0 0 5.044 4.2c.56.39 1.132.761 1.7 1.139-1.476-.424-3.042-.647-4.517-1.02-1.846-.465-3.723-.881-5.528-1.492a52 52 0 0 1-2.774-1.041c-.955-.386-2.038-.613-2.95-1.086a.027.027 0 0 0-.027.047c.85.522 1.56 1.24 2.436 1.738.827.472 1.674.907 2.533 1.317 1.377.659 2.76 1.296 4.192 1.815a10 10 0 0 1-1.865.212 26 26 0 0 1-2.96-.25c-1.978-.235-3.97-.478-5.958-.634-4.328-.338-8.502.71-12.656 1.794q-12.75 3.325-25.405 7-12.653 3.675-25.202 7.697c-8.363 2.68-16.71 5.436-24.977 8.399-8.251 2.957-16.392 6.195-24.472 9.585l-1.481.623a10 10 0 0 0-1.343.773.114.114 0 0 0 .087.207 11 11 0 0 0 1.559-.341q.811-.284 1.625-.563c1.044-.361 2.096-.699 3.143-1.051 2.058-.693 4.108-1.41 6.16-2.117 4.148-1.429 8.292-2.869 12.446-4.279 8.317-2.823 16.61-5.71 24.967-8.417q12.535-4.062 25.178-7.777 12.642-3.715 25.383-7.081c4.106-1.085 8.307-2.45 12.586-2.551a46 46 0 0 1 6.122.476 16.4 16.4 0 0 0 5.788-.318 7.8 7.8 0 0 0 2.476-.982c1.762.535 3.58.944 5.375 1.352 1.628.37 3.306.548 4.928.956a65.3 65.3 0 0 0 11.348 4.817 76.2 76.2 0 0 0 26.359 3.803 48.4 48.4 0 0 0 13.806-2.036 29.8 29.8 0 0 0 6.491-3.408 40.3 40.3 0 0 1 5.966-3.182q.668-.284 1.344-.546c.01.176.004.353.031.528.12.78.28 1.554.419 2.33l.815 4.537q.805 4.475 1.619 8.948l3.269 18.015c1.076 5.93 2.264 11.853 3.195 17.808a56 56 0 0 1 .533 4.456 29 29 0 0 0 .429 4.176 21.5 21.5 0 0 0 1.537 3.827q.86 1.964 1.638 3.961c.355.91.696 1.825 1.04 2.739.2 1.51.463 3.016.709 4.506l.045.264a19.2 19.2 0 0 0-4.744 2.13 35.6 35.6 0 0 0-5.166 3.661 14.5 14.5 0 0 0-3.98 4.617c-.99 2.118-.794 4.383-.47 6.63 1.409 9.738 2.88 19.466 4.32 29.199.406 2.747.72 5.528 1.257 8.253.264 1.342.514 2.674.91 3.985.134.444.248.896.366 1.347-.138 3.233-.275 6.464-.326 9.701-.054 3.498-.425 7.27.935 10.584a31 31 0 0 0 2.409 4.408l2.976 4.848c.636 1.035 1.268 2.07 1.926 3.087.691 1.849 1.461 3.672 2.23 5.472a230 230 0 0 0 4.573 9.974c3.194 6.584 6.692 13.02 10.212 19.434 3.487 6.354 7.033 12.675 10.499 19.04 3.477 6.389 7.08 12.793 9.53 19.663 1.108 3.112 2.076 6.28 3.46 9.285a14.8 14.8 0 0 0 2.553 4.065 18 18 0 0 0 1.33 1.252l.226.547c.303.732.557 1.447.922 2.156.388.753.786 1.501 1.204 2.238q1.198 2.117 2.525 4.157a75 75 0 0 0 5.707 7.656 61.9 61.9 0 0 0 30.62 19.875c1.182.317 2.378.573 3.579.804a31.3 31.3 0 0 0 7.92 4.504c3.288 1.378 6.66 2.54 9.968 3.87a62 62 0 0 1 9.942 5.098c3.386 2.13 6.72 4.306 10.256 6.186 3.528 1.877 7.153 3.564 10.786 5.225 3.658 1.673 7.34 3.303 11.1 4.735a79.4 79.4 0 0 0 11.518 3.49 82.5 82.5 0 0 0 11.899 1.616 113 113 0 0 0 24.188-1.256c1.04-.156 2.085-.285 3.128-.42.188-.025.202-.314 0-.305-4.017.166-8.031.192-12.05.272-3.98.08-7.962.04-11.94-.095a79.2 79.2 0 0 1-23.449-4.196c-3.713-1.29-7.336-2.818-10.922-4.426-3.64-1.632-7.272-3.297-10.835-5.094-3.083-1.554-6.062-3.268-8.983-5.098a20 20 0 0 1-.367-.395q-.768-.862-1.528-1.732-1.63-1.873-3.186-3.807c-2.095-2.604-4.09-5.287-6.05-7.993-.01-.014-.033-.001-.024.014a95 95 0 0 0 5.755 7.973q1.548 1.941 3.171 3.821.707.82 1.434 1.621c-.18-.115-.364-.225-.544-.34a118 118 0 0 0-4.865-2.991c-1.172-1.564-2.4-3.086-3.616-4.617a383 383 0 0 0-4.5-5.533 76 76 0 0 0 1.822-.31c.218-.04.165-.389-.052-.384a70 70 0 0 1-2.326.01l-.28-.344c-.026-.03-.08.01-.056.042l.232.303c-2.859-.03-5.722-.206-8.572-.393a64 64 0 0 1-10.08-1.28 55.2 55.2 0 0 1-16.416-6.732c-10.589-6.44-18.681-15.984-24.483-26.844l-.021-.037a.2.2 0 0 0-.064-.18c-.036-.032-.067-.07-.103-.104-.377-.658-.793-1.286-1.15-1.959q-.622-1.167-1.192-2.36-1.157-2.413-2.167-4.893c-1.35-3.32-2.464-6.724-3.72-10.079a.04.04 0 0 0-.075.02 45 45 0 0 0 1.05 5.046l-.33-.966a131 131 0 0 0-9.052-19.328c-6.889-12.749-14.095-25.316-20.719-38.208a384 384 0 0 1-5.384-10.855l-.134-.288c.43.557.86 1.116 1.3 1.665.13.164.343-.045.27-.209a89 89 0 0 0-5.116-9.899l-2.909-4.744c-.914-1.492-1.892-2.964-2.68-4.528-1.588-3.147-1.308-6.668-1.26-10.087.05-3.652.012-7.297-.033-10.949a289 289 0 0 0-.124-6.22 47 47 0 0 0-.405-6.242.079.079 0 0 0-.15 0 41.5 41.5 0 0 0-.542 5.495l-.012.216a365 365 0 0 0-.595-4.144l-2.094-14.183-2.076-14.06a33.8 33.8 0 0 1-.744-6.732 7.6 7.6 0 0 1 2.733-4.987 32 32 0 0 1 5.353-4.127c1.565-.968 3.266-1.694 4.87-2.58.321 1.863.652 3.725.977 5.588.428 2.459.872 4.915 1.31 7.371l-.415-.242c-.301-.176-.617-.328-.926-.49a.035.035 0 0 0-.036.06c.293.19.582.39.883.565l.445.26c.026.015.056.023.084.037q.681 3.818 1.358 7.636a117 117 0 0 1 2.025 15.091c.242 5.108.107 10.24.096 15.351l-.003 1.144a3.6 3.6 0 0 1-.168.57c-.226.555-.838.98-1.177 1.48a7.6 7.6 0 0 0-1.12 3.227 29 29 0 0 0-.328 4.158.157.157 0 0 0 .307.041 19.4 19.4 0 0 1 2.44-6.666q.02-.029.04-.054l-.011 4.794a29 29 0 0 0 .175 4.196c.216 1.505.443 2.985.597 4.498a.195.195 0 0 0 .39 0 75 75 0 0 0 .812-7.7l.02-7.7c.012-5.16.117-10.33-.021-15.489a102 102 0 0 0-1.75-15.167c-.907-5.091-1.908-10.166-2.914-15.24-.339-1.71-.699-3.416-1.052-5.123.74 2.232 1.453 4.472 2.107 6.726.05.174.355.15.33-.045a77.2 77.2 0 0 0-4.213-17.47q-.804-2.13-1.693-4.227c-.574-1.36-1.337-2.709-1.772-4.117a19.2 19.2 0 0 1-.526-4.293 61 61 0 0 0-.564-4.74c-.978-6.365-2.258-12.693-3.406-19.03l-3.442-18.997q-.966-5.332-1.943-10.66l-.493-2.696c-.066-.357-.175-.7-.246-1.054l-.019-.09c6.3-2.203 12.964-3.23 19.492-4.63a36 36 0 0 1 3.868 2.08c.998.631 1.94 1.34 2.87 2.065.181.851.36 1.703.547 2.554q.95 4.35 1.97 8.684c1.372 5.816 2.755 11.649 4.575 17.343a83 83 0 0 1 2.33 8.472c.58 2.82 1.116 5.644 1.85 8.43 1.366 5.19 3.149 10.255 4.854 15.34-.674-.345-1.376-.644-2.063-.95q-1.263-.559-2.535-1.093c-.026-.011-.045.034-.02.046q1.284.617 2.578 1.208c.685.312 1.375.64 2.081.912l.167.494q.63 1.884 1.24 3.777c-.418-.246-.844-.48-1.262-.717-.657-.372-1.316-.738-1.974-1.107q-2.046-1.145-4.11-2.256a.023.023 0 0 0-.024.04q2.053 1.213 4.122 2.397 1.017.582 2.036 1.16c.426.24.854.484 1.288.715q.658 2.044 1.265 4.104c-1.052-.68-2.158-1.29-3.249-1.873a52 52 0 0 0-5.2-2.418c-.023-.01-.04.03-.017.039q2.608 1.174 5.118 2.548c1.175.645 2.305 1.366 3.452 2.056l.145.487q.641 2.25 1.155 4.534.117.519.253 1.018l-.386-.284q-.651-.48-1.287-.979c-.029-.022-.07.018-.041.042q.62.506 1.226 1.03l.583.507a14 14 0 0 0 .93 2.415l-.046 2.526c-.086 4.196-.127 8.392-.211 12.588-.082 4.103.033 8.254-.378 12.34a105 105 0 0 1-2.38 12.099q-.139.61-.286 1.223l-.142.244q-.906 1.541-1.704 3.141a48 48 0 0 0-1.44 3.155 9.6 9.6 0 0 0-.869 3.245c-.003.099.118.11.168.046a14.2 14.2 0 0 0 1.617-3.147c.44-1.028.892-2.051 1.366-3.065.095-.202.2-.4.296-.602a40 40 0 0 0-.494 2.505c-.183 1.16-.269 2.34-.347 3.511-.077 1.168-.243 2.328-.37 3.492-.02.188.26.204.315.043.677-1.987 1.438-3.946 2.095-5.94.651-1.977.981-4.09 1.433-6.122.901-4.057 1.96-8.117 2.526-12.238a92 92 0 0 0 .501-12.31c.006-2.223-.01-4.446-.023-6.668q.111-1.054.183-2.11a.17.17 0 0 0 .141-.15 97.2 97.2 0 0 0-.939-19.873c-.228-1.625-.48-3.246-.746-4.866a19.7 19.7 0 0 1-.356-4.859c.134-1.576.615-3.103.895-4.655a32.5 32.5 0 0 0 .46-4.881c.093-3.34.032-6.688.032-10.029q0-5.038-.01-10.077-.027-9.953-.157-19.906-.083-5.66-.245-11.318c-.1-3.58-.24-7.15-.61-10.712.184-.068.37-.125.552-.198 1.07-.436 2.121-.917 3.21-1.309a.16.16 0 0 0 .106-.135 22.4 22.4 0 0 0 3.876.897 52.4 52.4 0 0 0 9.09.272c2.476-.085 4.947-.274 7.413-.517.265.342.557.667.85.983.396.423.808.833 1.222 1.238a19 19 0 0 0 2.254 1.91c.299 1.784.478 3.592.661 5.382q.631 6.181 1.194 12.37l.07.802c-.98-1.064-2.016-2.08-2.996-3.145a45 45 0 0 0-3.345-3.293.04.04 0 0 0-.055.055c1.086 1.13 2.203 2.22 3.33 3.308 1.086 1.046 2.066 2.179 3.084 3.287q1.065 11.746 1.975 23.505.488 6.194.96 12.39c.31 4.03.666 8.06.765 12.102.1 4.113-.23 8.196-.528 12.294a91 91 0 0 0-.147 11.929c.265 4.514.814 9.005 1.242 13.506.214 2.248.386 4.497.502 6.752.114 2.219.522 4.376.832 6.571.027.19.33.174.37 0 .091-.4.167-.803.248-1.205.715.805 1.428 1.611 2.13 2.428q.554.645 1.092 1.304a16 16 0 0 0 1.161 1.37.031.031 0 0 0 .05-.038 10.3 10.3 0 0 0-.999-1.333q-.572-.695-1.163-1.374-1.084-1.247-2.262-2.403c.18-.901.34-1.805.431-2.717a49 49 0 0 0 2.024 3.072q.73 1.01 1.498 1.992a16 16 0 0 0 1.802 2.106c.01.01.022 0 .034.001-.014.065-.023.13-.038.195a.235.235 0 0 0 .452.125 43 43 0 0 0 1.999-5.67 50 50 0 0 0 .902-5.962c.45-4.115.851-8.237 1.274-12.356l2.533-24.679 2.55-24.852c.831-8.114 1.436-16.207 1.627-24.363.109-4.65.2-9.3.298-13.951q.074-3.498.135-6.997c.032-1.837.085-3.68-.022-5.515a123 123 0 0 0 17.956 2.039c.601.017 1.203.005 1.804.008a.167.167 0 0 0 .154.249c1.008.007 2.014.046 3.018.101.153.162.306.324.466.478.377.36.77.702 1.153 1.056.634.587 1.224 1.233 1.908 1.76.11.778.192 1.561.29 2.333.037.294.067.589.103.883l-.68-.671a120 120 0 0 0-2.073-1.994c-1.384-1.294-2.812-2.536-4.236-3.785-.015-.014-.037.008-.022.022 1.359 1.314 2.683 2.665 4.022 3.999.66.658 1.326 1.312 1.987 1.97q.495.494.988.99l.086.085q.247 2.054.458 4.113c-.248-.272-.5-.539-.739-.808q-.944-1.064-1.894-2.124-1.9-2.116-3.826-4.21c-.024-.025-.06.013-.038.04q1.821 2.135 3.668 4.248.91 1.04 1.825 2.075c.348.394.688.813 1.046 1.211.093.914.186 1.827.266 2.742.021.237.036.475.057.712l-.676-.686q-.925-.946-1.855-1.888c-1.226-1.236-2.501-2.419-3.761-3.62a.014.014 0 0 0-.02.02c1.16 1.267 2.302 2.547 3.492 3.785.577.6 1.164 1.193 1.746 1.789.368.377.736.76 1.116 1.13q.133 1.649.248 3.299a11.4 11.4 0 0 0-1.314-1.323c-.473-.454-.939-.916-1.41-1.373q-1.413-1.37-2.791-2.775c-.023-.023-.058.012-.036.036q1.329 1.453 2.7 2.867c.445.457.903.902 1.36 1.348a10 10 0 0 0 1.428 1.297c.03.02.06-.008.066-.04q.449 6.4.607 12.816c.292 11.764-.06 23.535-.643 35.286q-.222 4.463-.484 8.925c-.041-.391-.073-.783-.118-1.174-.17-1.491-.527-2.97-.784-4.448-.006-.035-.062-.026-.062.008.035 1.398-.012 2.796-.009 4.193.003 1.356.111 2.718.148 4.074.037 1.359.042 2.718.031 4.077-.01 1.408-.134 2.798-.107 4.204.108 5.532.129 11.06.017 16.591-.111 5.537-.321 11.07-.562 16.602q-.178 4.086-.37 8.172a48 48 0 0 0 .005 8.042c.182 1.503.48 2.989.642 4.494.161 1.503.202 3.011.232 4.521.031 1.55.029 3.104.018 4.654-.01 1.542.049 3.094-.049 4.632a.16.16 0 0 0 .315.043c.225-.964.462-1.92.689-2.878q.345 2.518.719 5.03c.268 1.813.442 3.669.85 5.456a10.86 10.86 0 0 0 2.324 4.48c1.062 1.308 2.164 2.566 3.142 3.943a45 45 0 0 1 2.573 4.076 57.4 57.4 0 0 1 3.903 8.778 44.5 44.5 0 0 1 2.484 10.926.145.145 0 0 0 .29 0 40.7 40.7 0 0 0-4.085-19.035 45.5 45.5 0 0 0-5.326-8.196c-.574-.707-1.204-1.398-1.771-2.13.319.182.643.354.953.552a30.6 30.6 0 0 1 8.366 8.379c.022.037.088.012.072-.03a17.52 17.52 0 0 0-7.665-9.497q-.393-.246-.797-.475c.003-.01.015-.015.012-.028a5.4 5.4 0 0 0-.916-1.769q-.58-.917-1.18-1.821-.488-.732-1.002-1.451-.072-.477-.15-.943c-.153-.88-.312-1.758-.464-2.637q1.223 1.922 2.469 3.83a94 94 0 0 1 2.013 3.217c.66 1.11 1.22 2.332 1.969 3.381.019.026.072.011.057-.024a29 29 0 0 0-1.79-3.22q-.976-1.696-1.962-3.385-1.353-2.309-2.88-4.506c-.174-.995-.342-1.991-.526-2.985a170 170 0 0 0-.619-3.147 16 16 0 0 0-.275-1.136c.031-.287.079-.569.098-.859a37 37 0 0 0-.45-8.152c-.182-1.16-.349-2.316-.425-3.487.474.4.956.79 1.462 1.162 1.05.77 2.126 1.51 3.189 2.262 2.094 1.483 4.18 2.978 6.22 4.536a94 94 0 0 1 11.519 10.23 24.5 24.5 0 0 1 2.31 2.706 1 1 0 0 0-.207-.017 1.6 1.6 0 0 0-.57.108 2 2 0 0 0-.432.257 2 2 0 0 0-.361.327c-.03.04.02.104.066.087a3 3 0 0 1 .436-.159 3 3 0 0 1 .415-.054c.161-.011.288-.037.446-.042l.224-.01a1 1 0 0 0 .246-.03l.032-.001a9.7 9.7 0 0 1 1.234 3.332c.503 2.703.658 5.505.889 8.242q.723 8.569.809 17.175c.032 3.176.102 6.351.17 9.526a388 388 0 0 1 .081 4.82c.016 1.649-.07 3.294-.052 4.94.002.186.307.243.338.046.221-1.406.324-2.83.487-4.244.049-.417.087-.834.134-1.251.109 1.91.22 3.821.356 5.73.396 5.54 1.056 11.076 1.159 16.633a83.4 83.4 0 0 1-1.707 16.463c-.93 5.146-1.881 10.29-3.026 15.395-1.279 5.7-2.462 11.492-4.593 16.949-.067.172.22.293.3.126a87.4 87.4 0 0 0 5.636-14.66c.166-.607.306-1.22.46-1.83.001.932.003 1.864-.01 2.796-.026 2.083-.073 4.184-.209 6.262a44 44 0 0 1-.724 6.389c-.04.19.25.343.336.141a32 32 0 0 0 1.868-5.982 33 33 0 0 0 .54-6.46 131 131 0 0 0-.082-5.199 26.5 26.5 0 0 1 4.544 1.278q3.011.96 6.078 1.721 1.709.425 3.437.804a.45.45 0 0 0 .312.16c.14.008.285-.007.427-.008a62 62 0 0 0 8.264 1.249 60 60 0 0 0 7.118.003c.183-.008.246-.302.046-.337-.402-.07-.803-.15-1.205-.223a11 11 0 0 0-.795-.752q-.66-.582-1.356-1.12a20 20 0 0 0-2.126-1.434c.401-.301.79-.623 1.177-.967q1.407-1.253 2.853-2.462a50.7 50.7 0 0 1 12.393-7.93c1.257-.533 2.534-1.016 3.792-1.543a22 22 0 0 1 3.995-1.332.18.18 0 0 0-.048-.353 22.3 22.3 0 0 0-7.238.92 35 35 0 0 0-6.708 3.31 62 62 0 0 0-6.108 4.34q-1.48 1.179-2.908 2.42c-.945.82-1.843 1.726-2.851 2.467a11.8 11.8 0 0 1-4.243 1.488c-.75.19-1.557.358-2.35.568a116 116 0 0 1-11.325-2.831c-1.65-.502-3.506-1.148-5.217-.82v-.018a91 91 0 0 0-.167-3.324c.448-2.278.865-4.563 1.28-6.844a100.6 100.6 0 0 0 2.116-16.611 151 151 0 0 0-1.066-16.73c-.31-3.153-.678-6.3-1.044-9.447-.221-1.904-.448-3.812-.745-5.707q.125-2.27.165-4.545c.093-5.847-.217-11.724-.668-17.552-.223-2.89-.479-5.785-.836-8.663a16 16 0 0 0-.844-3.856 12.4 12.4 0 0 0-2.123-3.412 77.5 77.5 0 0 0-11.501-10.764 172 172 0 0 0-7.172-5.353 211 211 0 0 0-3.578-2.477 33 33 0 0 0-3.216-1.88q.003-1.288.06-2.576c.122-2.797.26-5.594.386-8.391.498-11.057.904-22.126.68-33.195a147 147 0 0 0-.069-2.35 17 17 0 0 0-.132-1.458q.247-1.285.499-2.57a34 34 0 0 0 .444-4.52q.266-4.547.504-9.097c.308-5.983.563-11.97.708-17.96a328 328 0 0 0-.886-36.075q-.431-5.014-1.078-10.006a17.2 17.2 0 0 0-.867-4.533c2.037.183 4.084.321 6.11.58 4.658.598 9.314 1.148 13.959 1.847 4.521.68 9.041 1.443 13.597 1.861a66.9 66.9 0 0 0 26.129-2.75 41 41 0 0 0 7.816-3.173 10.4 10.4 0 0 0 1.424.662c1.083.394 2.202.713 3.311 1.024a66 66 0 0 0 6.422 1.456 67 67 0 0 0 13.206.99c7.218-.187 14.907-1.449 20.984-5.609a24 24 0 0 0 1.843-1.404c8.07.807 16.987-.119 23.438-5.41 2.795-2.292 5.897-6.138 5.438-9.99M326.669 376.88a369 369 0 0 0 4.244 5.539c1.114 1.418 2.22 2.844 3.362 4.24a53 53 0 0 0-3.984-2.055c-.802-1.084-1.646-2.137-2.48-3.193q-1.682-2.13-3.436-4.195 1.15-.154 2.294-.336m-2.45.355q1.557 2.176 3.198 4.289c.713.92 1.42 1.848 2.151 2.756q-1.44-.628-2.899-1.208a23 23 0 0 0-.374-.48 86 86 0 0 0-1.01-1.236q-.996-1.202-2.006-2.39-.494-.58-1-1.15-.139-.156-.281-.31c.742-.07 1.48-.173 2.22-.27m-2.445.295c.09.137.167.266.218.333q.306.4.616.797.723.933 1.472 1.848l1.452 1.772.398.49a256 256 0 0 0-3.72-1.418q-.474-.571-.954-1.139A67 67 0 0 0 319 377.7a44 44 0 0 0 2.774-.17m-2.975.172a84 84 0 0 0 2.135 2.742l.513.622-1.477-.553q-.652-.247-1.308-.498c-.36-.372-.72-.744-1.089-1.108-.422-.416-.843-.837-1.285-1.233a35 35 0 0 0 2.511.029m-2.784-.04.203.235q.273.318.558.626.564.607 1.137 1.206c-1.952-.751-3.904-1.54-5.791-2.439 1.293.162 2.59.295 3.893.372M230.595 75.92a13 13 0 0 0 .278 1.79c-.598-.356-1.248-.647-1.863-.948l-.557-.264c.72-.179 1.43-.38 2.141-.578m-1.563 3.245a22.4 22.4 0 0 0-3.862-1.916q1.414-.306 2.817-.64.45.234.9.463a21 21 0 0 0 2.06.967c.112.497.23.992.332 1.48l.317 1.474a22.5 22.5 0 0 0-2.564-1.828m21.597 65.372c-1.738-5.344-3.658-10.631-5.196-16.039-1.582-5.56-2.32-11.316-4.053-16.833-.891-2.84-1.783-5.672-2.545-8.55a395 395 0 0 1-2.168-8.68q-1.185-4.93-2.293-9.878-.552-2.474-1.082-4.953a34 34 0 0 0-.923-4.06.16.16 0 0 0 .047-.155 69 69 0 0 0 8.903-3.415c2.118-.991 4.21-2.037 6.347-2.988a50 50 0 0 1 3.189-1.3c.43-.158.865-.299 1.3-.442-.157 6.342.145 12.7.24 19.043q.153 10.076.191 20.153.037 10.01.016 20.02c-.003 1.63-.02 3.263-.174 4.887a47 47 0 0 1-.887 4.83 16 16 0 0 0-.274 4.83c.167 1.639.48 3.26.732 4.887.339 2.186.637 4.379.924 6.573q-1.018-4.002-2.294-7.93m29.495-76.803a52 52 0 0 1-1.166-1.168c-.272-.281-.545-.567-.826-.844.611-.062 1.225-.105 1.835-.177.353-.042.709-.093 1.063-.138a26 26 0 0 1 1.067 4.243c-.645-.652-1.313-1.278-1.973-1.916m15.997 123.044c-.436-.676-.983-1.285-1.482-1.914q-.876-1.108-1.706-2.251a118 118 0 0 1-2.17-3.084c.05-.555.082-1.113.08-1.676q-.005-.294-.016-.59.133-.008.264-.02.06-.008.12-.02a100 100 0 0 0 2.474 3.515c.91 1.245 1.815 2.501 2.814 3.676a25 25 0 0 1-.378 2.364m.398-2.557c-.833-1.293-1.77-2.52-2.689-3.752a100 100 0 0 0-2.522-3.26l.04-.006a3 3 0 0 0 .406-.042l.03-.008a3.8 3.8 0 0 0 1.307-.146c.59.871 1.18 1.742 1.8 2.596a55 55 0 0 0 1.833 2.4c-.06.738-.124 1.48-.205 2.218m.344-3.853q-.06.65-.111 1.305c-.537-.792-1.117-1.558-1.688-2.322-.602-.806-1.23-1.586-1.857-2.37h.002a9 9 0 0 0 1.714-.76c.455.635.913 1.268 1.361 1.907.24.342.473.689.708 1.034-.044.402-.091.804-.13 1.206m.188-1.755q-.227-.336-.465-.661a19 19 0 0 0-1.524-1.817 8 8 0 0 0 1.423-1.073q.237.414.484.824.17.282.345.565-.136 1.081-.263 2.162m.297-2.444q-.123-.2-.242-.399c-.167-.272-.35-.534-.524-.802a9 9 0 0 0 1.06-1.266c-.086.823-.192 1.645-.294 2.467m8.546-108.775q-.078 3.123-.148 6.247l-.262 12.494c-.085 4.027-.17 8.056-.381 12.08-.217 4.107-.583 8.205-.99 12.297-1.628 16.416-3.359 32.822-5.04 49.233l-1.05 10.248a7.4 7.4 0 0 1-.709 1.406 9.2 9.2 0 0 1-2.052 2.35 8.8 8.8 0 0 1-2.7 1.44 10 10 0 0 0-1.103.448c-.113.001-.226.002-.34-.007l-.117-.012-.032-.003c-.059-.014-.131-.037-.148-.04l-.07-.013a135 135 0 0 0-.294-3.739c-.356-4.022-.841-8.032-1.17-12.056a88.5 88.5 0 0 1-.234-12.126c.228-4.093.684-8.173.727-12.275.042-4.122-.28-8.235-.595-12.342q-.48-6.257-.965-12.514c-.645-8.26-1.315-16.518-2.056-24.77q-.555-6.188-1.17-12.371c-.197-1.963-.377-3.93-.627-5.888a18 18 0 0 0-1.202-5.259 9 9 0 0 0-.573-1.03 41 41 0 0 0 2.118-.368c.163-.014.327-.02.49-.037.9-.096 1.8-.183 2.693-.33a5.7 5.7 0 0 0 2.263-.74 2.3 2.3 0 0 0 .778-.8l.006-.016a39.5 39.5 0 0 0 8.39 2.361c2.268.456 4.542.903 6.823 1.322-.17 1.596-.22 3.201-.26 4.81m26.742-.923a18 18 0 0 0-1.165-.994c-.08-.061-.164-.112-.246-.168.738.045 1.476.092 2.213.154a7.5 7.5 0 0 1 .565 1.62q.102.45.177.907a16.5 16.5 0 0 0-1.544-1.519m6.353 159.532q.576.88 1.135 1.771a8 8 0 0 0 .968 1.418c-.218-.12-.437-.24-.66-.348a8 8 0 0 0-1.208-.504 14.8 14.8 0 0 1-.77-3.15zm50.392 92.37a42 42 0 0 1 2.138 1.541q.667.524 1.3 1.088c.181.161.362.335.547.504-1.237-.225-2.474-.45-3.709-.685q-.371-.238-.741-.48-.447-.293-.886-.6-.233-.159-.468-.315.048.026.088.05c.013.008.023-.012.011-.02-.035-.028-.075-.047-.113-.07a7.5 7.5 0 0 0 1.833-1.014m-2.166 1.115c.06.05.124.097.184.144q.198.156.4.305c.307.223.622.435.938.645l.14.09-3.623-.696a16 16 0 0 0 1.96-.488m18.243-256.61c-.113-.038-.23-.066-.344-.1.248-.175.498-.346.737-.533.134-.105.256-.222.386-.331.144.147.283.298.428.443.462.46.95.893 1.43 1.332a65 65 0 0 1-2.637-.812m3.23.973c-.207-.182-.418-.36-.623-.544a85 85 0 0 1-1.52-1.396l-.144-.137a14 14 0 0 0 1.974-2.117 31 31 0 0 0 2.445 2.722 33 33 0 0 0 1.956 1.76c.363.303.737.62 1.128.912a66 66 0 0 1-5.216-1.2m5.773 1.312c-.49-.415-1.01-.803-1.5-1.208a39 39 0 0 1-1.967-1.75c-.889-.844-1.72-1.746-2.532-2.665a12 12 0 0 0 1.474-2.613 102 102 0 0 0 4.901 5.018q1.391 1.326 2.823 2.608c.47.422.939.859 1.42 1.28q-2.321-.253-4.619-.67m41.652-25.28c.046-.02.083-.046.127-.066 1.579.142 3.157.286 4.737.418 1.78.15 5.148.208 8.37.726-.289.022-.577.034-.864.072-1.047.137-2.066.425-3.11.578a24 24 0 0 0-3.116.628 16.4 16.4 0 0 1-6.578.077c-.429-.055-1.257-.094-1.553-.502-.354-.485.295-1.013.65-1.258a7 7 0 0 1 1.337-.674m-16.283 4.73c-.959.467-1.86 1.024-2.827 1.477a9.2 9.2 0 0 1-3.345.673 17.7 17.7 0 0 1-3.722-.264c-.954-.162-2.102-.27-2.675-1.146-.223-.34-.633-.754-.54-1.19a2.03 2.03 0 0 1 .553-1c.326-.314.748-.474 1.093-.759a1.5 1.5 0 0 0 .214-.22q7.003.873 14.04 1.435a14 14 0 0 0-2.79.994m12.373 14.777a19 19 0 0 0 1.242-1.493c.628.417 1.255.838 1.902 1.228l.425.254c-1.189.023-2.379.022-3.57.01m24.447-10.323c-3.595 7.605-12.655 10.08-20.387 10.303-.296-.157-.593-.31-.884-.486-.617-.372-1.25-.714-1.88-1.06a15 15 0 0 0 1.653-2.745l1.826 1.36c.51.377 1.025.747 1.539 1.12a16 16 0 0 0 1.67 1.144c.025.013.053-.02.032-.04a15 15 0 0 0-1.519-1.168q-.794-.578-1.594-1.15-.958-.676-1.917-1.35c1.29-2.878 1.793-6.586-.04-9.355-2.198-3.32-6.355-3.534-9.95-3.781q-6.97-.48-13.91-1.302c-18.684-2.187-37.129-6.023-55.473-10.122l-2.411-.542a.1.1 0 0 0-.054-.096c-.055-.029-.154-.059-.185-.074l.103.104a.46.46 0 0 0-.4-.229q-.188.024-.097.014.094-.011-.102.014a1 1 0 0 0-.109.03 2 2 0 0 0-.04-.261 1 1 0 0 0-.032-.106.1.1 0 0 1 .008-.067.5.5 0 0 1 .177-.227c.128-.114.267-.208.406-.308.156-.113.291-.256.444-.375.199-.155.403-.302.607-.45q15.468 3.124 31.055 5.614 24.527 3.897 49.274 6.184a2.48 2.48 0 0 0-1.051 1.11c-.553 1.505 1.987 1.643 2.844 1.802 1.958.361 3.948.61 5.925.828a5.9 5.9 0 0 0 2.887-.292 19.6 19.6 0 0 1 2.864-.947 16.7 16.7 0 0 1 3.37-.33c.592-.006 1.182.015 1.772.028h.01c3.305 1.157 5.436 3.258 3.569 7.208"/><path fill="currentColor" d="M247.65 277.792c-.855-1.9-1.345-3.945-2.256-5.818-.45-.924-1.313-1.568-1.772-2.483-.41-.817-.776-1.659-1.17-2.484-.79-1.658-1.512-3.35-2.282-5.017a33.5 33.5 0 0 0-6.263-9.028c-2.268-2.372-5.075-4.555-6.242-7.734-.342-.932-.683-1.88-.93-2.842a16 16 0 0 1-.427-3.055c-.12-2.028-.243-4.042-.555-6.053-.006-.04-.069-.029-.07.01-.025 1.754-.254 3.492-.333 5.242-1.331-1.809-2.702-3.586-3.962-5.45-.023-.035-.08-.003-.057.034a47.6 47.6 0 0 0 4.007 5.628l-.003.04c-.033.927-.068 1.871-.065 2.813-.676-.816-1.37-1.62-2.017-2.45a116 116 0 0 1-3.583-4.864c-.014-.02-.047-.002-.033.02a60 60 0 0 0 3.349 4.941c.727.969 1.48 1.971 2.298 2.903a20 20 0 0 0 .138 2.115 8 8 0 0 0 .17.802 51 51 0 0 1-1.661-1.914c-1.628-1.98-3.146-4.057-4.657-6.126-.011-.016-.038-.002-.027.015 1.415 2.123 2.828 4.238 4.412 6.24q1.009 1.275 2.114 2.468a13.5 13.5 0 0 0 2.825 4.574 87 87 0 0 1-2.348-2.102 103 103 0 0 1-7.502-7.76c-.016-.017-.039.008-.025.026a72 72 0 0 0 7.387 8.031c1.522 1.419 3.1 2.86 4.76 4.179l.151.15a43 43 0 0 1 3.551 3.88c1.146 1.45 2.113 3.017 3.147 4.544 1.029 1.52 2.044 3.026 2.975 4.61.482.82.918 1.662 1.35 2.51a11.4 11.4 0 0 1 1.114 2.696 8.3 8.3 0 0 0 .46 1.644 14 14 0 0 0 .833 1.511c.607.978 1.256 1.93 1.836 2.924.602 1.03 1.122 2.098 1.76 3.11.634 1.008 1.191 2.063 1.77 3.104.023.042.098.013.078-.033-.773-1.84-1.428-3.733-2.245-5.551m3.886-47.207a72 72 0 0 1-.317-8.03c0-.036-.052-.034-.055 0-.527 5.298-.742 10.885.926 16.025.038.116.232.103.223-.03-.18-2.659-.556-5.308-.777-7.965m1.646 2.51c-.33-2.876-.572-5.766-.65-8.66a.031.031 0 0 0-.063 0 54 54 0 0 0 .058 8.78 34 34 0 0 0 1.634 8.46c.04.106.228.102.215-.03-.291-2.864-.866-5.69-1.194-8.55m17.719 33.047q-2.057-5-4.002-10.044c-.593-1.534-1.077-3.105-1.638-4.65a13.9 13.9 0 0 0-2.53-4.116c-.995-1.195-2.099-2.295-3.103-3.482-.968-1.142-1.645-2.49-2.612-3.619a8 8 0 0 1-1.208-2.271 13.7 13.7 0 0 1-.733-2.375 17.4 17.4 0 0 1-.25-5.303c.008-.079-.126-.098-.138-.02a21.05 21.05 0 0 0 .527 8.72c.197.728.398 1.451.593 2.178a7.4 7.4 0 0 0 1.02 2.04 29 29 0 0 0 2.993 3.676 20 20 0 0 1 2.94 3.718c.8 1.456 1.669 2.86 2.401 4.356 1.6 3.27 3.098 6.6 4.56 9.934 1.662 3.793 3.222 7.646 5.071 11.353a.078.078 0 0 0 .143-.06c-1.204-3.4-2.662-6.701-4.034-10.035"/><path fill="currentColor" d="M265.133 246.863q-.545-.523-1.075-1.061-1.118-1.136-2.168-2.338c-1.375-1.574-2.642-3.242-3.972-4.852-.033-.04-.095.011-.07.055a30.6 30.6 0 0 0 3.725 5.114q1.046 1.204 2.163 2.343.558.57 1.133 1.122a3.4 3.4 0 0 0 1.123.828c.068.026.112-.058.086-.112a4.1 4.1 0 0 0-.945-1.1m-4.953-8.505c-.023-.025-.064.007-.047.036a17 17 0 0 0 3.722 4.284.037.037 0 0 0 .052-.052c-1.24-1.425-2.468-2.862-3.728-4.268m8.344 7.949a1 1 0 0 0-.2-.162q-.21-.156-.426-.307c-.284-.202-.579-.387-.863-.588a16 16 0 0 1-1.654-1.372c-.008-.007-.019.004-.012.011.503.505 1.017.998 1.52 1.503.247.249.486.503.75.734q.198.174.403.337a1.3 1.3 0 0 0 .207.157.4.4 0 0 0 .27.003.084.084 0 0 0 .062-.081.44.44 0 0 0-.057-.235m1.04-2.181q-.52-.487-1.038-.977a132 132 0 0 1-1.988-1.937c-1.315-1.303-2.612-2.622-3.944-3.906-.011-.01-.026.005-.017.016 1.211 1.437 2.501 2.799 3.82 4.136.65.66 1.307 1.31 1.964 1.962q.479.476.962.947a3.2 3.2 0 0 0 .975.766c.056.023.092-.05.07-.092a3.2 3.2 0 0 0-.804-.915m2.065-1.581-.746-.722-1.58-1.528c-1.038-1.006-2.098-1.988-3.15-2.979a.027.027 0 0 0-.039.04c1.015 1.028 2.02 2.064 3.05 3.079l1.52 1.5.74.729a4.3 4.3 0 0 0 .793.695.059.059 0 0 0 .08-.08 4 4 0 0 0-.668-.734m-.638-4.448q-.741-.706-1.478-1.416a.023.023 0 0 0-.034.033q.714.733 1.426 1.468a17 17 0 0 0 1.476 1.418.025.025 0 0 0 .036-.036 17 17 0 0 0-1.427-1.467m1.293-2.824a.035.035 0 0 0-.05.05q.408.443.85.852a.021.021 0 0 0 .03-.03q-.396-.455-.83-.872m20.215-10.677a.018.018 0 0 0-.03.017 39 39 0 0 0 7.64 10.238.037.037 0 0 0 .053-.053 68.5 68.5 0 0 1-7.663-10.202m3.086-1.205a.02.02 0 0 0-.033.019 77 77 0 0 0 5.523 8.572c.025.033.08.004.058-.034-1.744-2.92-3.674-5.72-5.548-8.558m11.503 15.081a2.6 2.6 0 0 0-.412-.541q-.225-.26-.452-.518c-.32-.364-.663-.71-1-1.06-.665-.689-1.34-1.37-2.011-2.052-.025-.025-.063.013-.039.039a56 56 0 0 1 1.908 2.156c.305.362.601.732.91 1.09l.45.522a3 3 0 0 0 .496.514c.097.069.193-.06.15-.15m2.217-3.269q-1.685-1.8-3.292-3.67-3.33-3.857-6.346-7.971c-.012-.016-.039-.001-.027.015q2.867 4.094 6.096 7.91a107 107 0 0 0 3.356 3.766 48 48 0 0 0 3.63 3.667.057.057 0 0 0 .08-.08c-1.122-1.25-2.349-2.41-3.497-3.637m4.873.504q-1.275-1.353-2.52-2.733-2.456-2.72-4.813-5.529c-.014-.015-.035.007-.023.023q2.294 2.866 4.723 5.618 1.197 1.356 2.422 2.687a17.2 17.2 0 0 0 2.472 2.505c.027.02.063-.018.045-.045a20.3 20.3 0 0 0-2.306-2.526m5.053.795a12 12 0 0 0-1.546-1.43q-.79-.698-1.559-1.421c-1.023-.963-2.042-1.935-3.008-2.956-.035-.036-.089.018-.055.056.956 1.058 1.919 2.106 2.94 3.103q.755.735 1.533 1.448a9 9 0 0 0 1.602 1.32.077.077 0 0 0 .093-.12m1.744-2.446a6.6 6.6 0 0 0-1.096-.85c-.387-.268-.784-.523-1.177-.781-.015-.01-.033.013-.02.025.36.29.716.584 1.082.865a6.8 6.8 0 0 0 1.166.8.037.037 0 0 0 .045-.059m-84.151 18.59c-.768-.735-1.546-1.46-2.32-2.188-1.53-1.438-3.111-2.816-4.654-4.24-.046-.042-.114.025-.069.07 1.495 1.47 2.947 2.98 4.456 4.436.744.717 1.484 1.44 2.234 2.15a20 20 0 0 0 2.292 1.99c.053.036.131-.038.09-.09a19 19 0 0 0-2.03-2.128m3.245-.912c-.434-.38-.9-.724-1.314-1.125-.397-.383-.795-.764-1.186-1.152-.784-.775-1.516-1.597-2.323-2.35a12.5 12.5 0 0 0-2.513-2.072c-.031-.016-.072.018-.05.051a11 11 0 0 0 1.729 1.839c.66.63 1.343 1.23 2.035 1.825q1.009.869 1.97 1.79c.313.301.605.61.892.937.158.18.322.356.478.539a1 1 0 0 1 .134.203c.031.06-.001.135.047.101a.087.087 0 0 0-.03.118.214.214 0 0 0 .376-.043c.142-.254-.069-.506-.245-.66m.461-3.408c-.524-.485-1.052-.966-1.574-1.455a19 19 0 0 0-3.27-2.596c-.014-.008-.03.01-.017.021 1.06.928 2.212 1.745 3.291 2.65a19 19 0 0 1 1.518 1.432 11 11 0 0 0 1.408 1.485c.053.037.116-.035.086-.086a7.2 7.2 0 0 0-1.442-1.451m-1.141-4.335a.025.025 0 0 0-.026.043 27.4 27.4 0 0 1 3.4 2.718.03.03 0 0 0 .041-.042 12.8 12.8 0 0 0-3.415-2.72m4.239-.479a11 11 0 0 0-1.172-.893c-.048-.034-.111.046-.063.083q.29.226.587.44c.202.145.409.276.62.407.022.014.048-.019.028-.036m-19.873-10.284a29 29 0 0 1-1.122-1.78.012.012 0 0 0-.02.012 19 19 0 0 0 1.079 1.842 12.6 12.6 0 0 0 1.264 1.65c.015.016.044-.005.03-.023-.403-.572-.837-1.122-1.23-1.701m8.553 22.597c-.99-.858-2.111-1.576-3.144-2.382q-1.558-1.217-3.033-2.536a63 63 0 0 1-5.556-5.618c-.03-.035-.078.015-.05.05a58 58 0 0 0 5.54 5.78q1.466 1.325 3.018 2.551a22 22 0 0 0 3.158 2.24c.053.029.116-.043.067-.085m-.599 1.992c-1.396-1.098-2.845-2.125-4.235-3.231a80 80 0 0 1-4.076-3.45c-.016-.015-.04.009-.025.025a48.6 48.6 0 0 0 8.303 6.7c.025.015.058-.024.033-.044m.206 2.502a23 23 0 0 0-1.777-1.453l-1.82-1.41c-.031-.025-.076.018-.044.044l1.81 1.47a22 22 0 0 0 1.803 1.386.024.024 0 0 0 .028-.037m20.099 27.585c-.009-.018-.035-.002-.027.016a155 155 0 0 0 3.89 8.521c.008.016.03.002.023-.014a313 313 0 0 1-3.886-8.523m7.983 13.524q-.535-.971-1.052-1.953-1.033-1.962-1.994-3.962a141 141 0 0 1-3.672-8.311c-.01-.028-.055-.017-.045.012q1.519 4.184 3.41 8.209.945 2.008 1.975 3.973.541 1.034 1.104 2.057a11.4 11.4 0 0 0 1.087 1.82.073.073 0 0 0 .121-.07 13 13 0 0 0-.934-1.775m6.789 12.019c-.017-.011-.033.016-.016.027a1.36 1.36 0 0 1 .516.664c.004.012.023.007.018-.005a1.4 1.4 0 0 0-.518-.686m9.425-35.928c-.009-.023-.046-.014-.038.01.726 2.242 1.299 4.53 1.835 6.824.008.035.058.02.053-.014a36 36 0 0 0-1.85-6.82m2.593 1.202c-.003-.017-.03-.017-.028 0 .397 3.552.916 7.096 1.665 10.591.006.028.046.016.042-.011-.622-3.517-1.219-7.037-1.68-10.58m2.289 6.137c-.001-.01-.017-.007-.016.002.359 2.847.738 5.709 1.311 8.522.005.023.037.012.034-.01-.414-2.842-.916-5.671-1.33-8.514m2.294 6.455c-.003-.021-.04-.016-.038.006a18.3 18.3 0 0 0 1.095 4.448c.008.021.042.013.034-.009a25 25 0 0 1-1.09-4.445m2.644 6.645c-.015-.02-.049 0-.034.02a2.94 2.94 0 0 1 .524 1.353c.002.013.024.01.023-.003a2.74 2.74 0 0 0-.513-1.37m5.127-107.433c-.022-.02-.055.012-.033.033.726.694 1.442 1.399 2.2 2.057.017.014.041-.009.025-.025-.705-.715-1.454-1.385-2.192-2.065m-12.649-53.989c-1.83.283-3.646.647-5.475.935a22 22 0 0 1-3.037.349 12.4 12.4 0 0 0-2.639.14 27 27 0 0 1-5.647.514c-1.878.037-3.779.112-5.655.015-.033-.001-.032.048 0 .051 1.929.166 3.835.364 5.775.366q1.385.002 2.769-.05c.48-.016.961-.036 1.442-.048.49-.012.955.06 1.44.07a10.4 10.4 0 0 0 2.601-.421c.935-.218 1.891-.337 2.836-.502a36.5 36.5 0 0 0 5.605-1.362.03.03 0 0 0-.015-.057m-13.06 4.353c-.303.004-.607-.03-.91-.008-.35.026-.675.128-1.03.135a13 13 0 0 1-2.22-.214c-1.343-.205-2.68-.415-4.033-.548-.021-.002-.027.036-.005.039 1.373.191 2.688.64 4.035.955q1.005.233 2.024.386a6 6 0 0 0 1.92.147c2.788-.424 5.504-1.545 8.357-1.397.016 0 .015-.022 0-.024-2.743-.304-5.409.487-8.138.529m1.75-6.745c-.455.152-.95.231-1.388.422a6.5 6.5 0 0 1-1.818.451c-1.34.185-2.674.391-4.021.53-.017.002-.018.029 0 .028 1.278-.091 2.553-.127 3.833-.166.604-.018 1.207-.061 1.811-.044a1.76 1.76 0 0 0 1.265-.397 7.86 7.86 0 0 1 3.254-1.386 33 33 0 0 1 3.787-.32.014.014 0 0 0 0-.028 21 21 0 0 0-6.723.91m2.649-2.813a10 10 0 0 1-2.386.495c-.012.001-.012.02 0 .02a8.6 8.6 0 0 0 2.392-.492c.014-.005.008-.027-.006-.022m51.969 3.676a37 37 0 0 1-4.956-.577 11.3 11.3 0 0 0-2.228.107c-.783.004-1.57-.033-2.351-.06q-2.412-.086-4.82-.261c-.026-.002-.025.036 0 .04q2.347.244 4.696.483c.824.083 1.653.149 2.475.252a9.7 9.7 0 0 0 2.288.337c3.199-.312 6.398-.088 9.606-.14a.012.012 0 0 0 0-.024c-1.57-.06-3.141-.078-4.71-.157m-11.96 3.193a20.1 20.1 0 0 0 5.776.988c.022.001.022-.033 0-.035a30 30 0 0 1-5.083-.82c-.126-.032-.496-.046-.481-.234q.001-.015.028-.034c-.08.036-.164.066-.245.102-.015.007-.008.028.005.033m14.435-1.352a36.7 36.7 0 0 1-7.873.345c-.602-.058-1.201-.142-1.805-.182-.298-.02-.601-.001-.897-.026a6 6 0 0 0-.775-.116 1.3 1.3 0 0 0-.577.21 8 8 0 0 1-1.07.488c-.293.111-.58.24-.87.362.16-.053.322-.1.364-.113a3.6 3.6 0 0 1 1.384-.24 2.9 2.9 0 0 0 .989.091c.239-.053.217-.157.555-.209a3.6 3.6 0 0 1 .558-.01c1.67.012 3.303.203 4.978.09 1.692-.116 3.373-.363 5.051-.598.052-.007.04-.099-.012-.092m-14.195 1.217.329-.136a1.6 1.6 0 0 0-.329.136m13.372-5.378c-4.129-.346-8.297-.43-12.435-.633-.018 0-.018.027 0 .028 4.137.252 8.291.628 12.435.738.086.002.084-.126 0-.133m-84.846 3.991c-.89.155-1.798.154-2.688.33-.8.157-1.595.331-2.39.51-1.71.385-3.397.852-5.1 1.264a44 44 0 0 1-2.497.538c-.826.15-1.598.579-2.417.793a18.3 18.3 0 0 1-5.257.508c-.039-.001-.05.064-.01.07a17 17 0 0 0 3.331.18c1.147-.06 2.272-.267 3.406-.427a5.8 5.8 0 0 0 1.52-.374 27 27 0 0 1 1.957-.707c1.122-.367 2.27-.66 3.413-.951q1.776-.453 3.567-.84c.559-.122 1.112-.238 1.66-.4.273-.08.543-.17.816-.249.284-.081.726-.267.438.165-1.146 1.715-3.317 2.385-5.162 3.037-1.232.436-2.47.852-3.737 1.178a8 8 0 0 1-1.955.371 3.3 3.3 0 0 0-.92-.013 2.9 2.9 0 0 0-.732.455.123.123 0 0 0 .03.222 2.3 2.3 0 0 0 .83.263 2.3 2.3 0 0 0 .876-.31c.624-.27 1.332-.385 1.98-.59 1.36-.429 2.688-.956 4.009-1.492 1.902-.771 4.082-1.524 5.079-3.471a.041.041 0 0 0-.046-.06m-15.746 6.262a17 17 0 0 1-3.078.607c-.005 0-.005.008 0 .008a17 17 0 0 0 3.08-.608.004.004 0 0 0-.002-.007m8.552.255c-.301-.177-.557-.001-.873.085-.451.122-.909.223-1.366.316a27 27 0 0 1-2.925.426 28.5 28.5 0 0 1-5.596-.056c-.024-.002-.03.038-.006.042a23.5 23.5 0 0 0 5.702.339 25 25 0 0 0 2.733-.332q.69-.125 1.373-.287c.36-.085.803-.061.99-.413a.09.09 0 0 0-.032-.12m-1.401-6.289a2 2 0 0 0-.768.132q-.424.119-.85.229c-.526.137-1.055.26-1.587.378a29 29 0 0 1-3.452.564c-.02.002-.02.032 0 .031a32 32 0 0 0 3.46-.33c.579-.09 1.157-.209 1.727-.346a3.7 3.7 0 0 0 1.526-.522c.059-.05.005-.129-.056-.136m-11.276 24.991a33.8 33.8 0 0 0-6.292 3.625c-.502.324-1.045.6-1.534.94a1.44 1.44 0 0 0-.429.506 3.5 3.5 0 0 1-.592.63 32 32 0 0 0-2.58 2.83c-.03.038.02.092.055.055a41 41 0 0 1 2.565-2.439 3.8 3.8 0 0 1 .86-.675 1.5 1.5 0 0 0 .507-.252c.448-.391.811-.895 1.26-1.295a35 35 0 0 1 6.197-3.886c.02-.012.007-.048-.016-.04m-1.195 2.391a24 24 0 0 0-4.472 2.45 22 22 0 0 0-1.875 1.505 6.1 6.1 0 0 0-1.67 1.872.079.079 0 0 0 .107.107 10.2 10.2 0 0 0 1.78-1.572c.63-.578 1.29-1.126 1.97-1.643a26.4 26.4 0 0 1 4.191-2.665c.037-.018.005-.07-.031-.054m133.388 66.519c.02-.034.051-.086.075-.138-.031.049-.058.104-.075.138m-.116.213-.223.41-.446.821c-.003.005.004.009.007.004l.442-.823.222-.411.11-.206.004-.008-.005.008Zm.215-.433c.007.02-.01.052-.024.082.017-.028.035-.06.054-.065.074-.017-.055-.086-.03-.017m7.613-2.551a20.5 20.5 0 0 0-4.45 1.912 21 21 0 0 0-2.002 1.321 6.3 6.3 0 0 0-.875.79 5 5 0 0 1-.382.414c-.262.227-.352.09-.588-.05-.015-.01-.028.013-.014.023l.426.292a.03.03 0 0 0 .038-.005c.323-.256.705-.444 1.048-.67.314-.207.609-.44.915-.657a21 21 0 0 1 1.848-1.17 22.7 22.7 0 0 1 4.14-1.82c.24-.078.14-.454-.104-.38m-.137 1.657c-.404.134-.798.313-1.187.486-.401.18-.8.36-1.197.551-.033.016-.01.075.026.06a45 45 0 0 0 1.183-.497c.4-.175.81-.348 1.191-.56a.022.022 0 0 0-.016-.04m8.518 93.054a.138.138 0 0 0-.236 0 5.16 5.16 0 0 0-.192 2.53c.028 1.006.087 2.012.115 3.019.026.968.017 1.938 0 2.907-.009.485-.014.97-.033 1.454-.021.518-.13 1.05-.103 1.566a.139.139 0 0 0 .277 0c.044-.512-.046-1.05-.05-1.566-.004-.447.007-.895.014-1.342.016-1.007.039-2.014.1-3.02.06-.97.147-1.937.21-2.907a5.4 5.4 0 0 0-.102-2.641m2.625 9.829c-.017-.452-.038-.903-.05-1.355a75 75 0 0 1-.017-2.613c.008-.87.039-1.74.035-2.611a6.2 6.2 0 0 0-.25-2.372c-.038-.087-.176-.057-.197.026a7.8 7.8 0 0 0 .078 2.54c.08.837.16 1.673.193 2.514.032.838.025 1.68-.023 2.516-.026.452-.071.904-.12 1.355a1.9 1.9 0 0 0 .035 1.026.118.118 0 0 0 .203 0 1.83 1.83 0 0 0 .113-1.026m2.9-6.838a5 5 0 0 0-.093-.662 2 2 0 0 0-.104-.317.6.6 0 0 0-.063-.124c-.035-.046-.14-.076-.16-.122-.015-.032-.06-.008-.054.023.005.025-.065.147-.065.198a1 1 0 0 0 .018.162q.024.142.056.282c.047.21.113.415.154.626.039.2.094.4.128.602.036.22.057.445.077.667a.033.033 0 0 0 .067 0 6 6 0 0 0 .039-1.335m.298 6.119c-.04-.25-.087-.497-.119-.747a8 8 0 0 1-.056-1.482c0-.023-.033-.022-.036 0-.056.501-.11 1.007-.14 1.51-.013.246-.03.495-.023.74a2 2 0 0 0 .03.365.8.8 0 0 0 .184.318.061.061 0 0 0 .11-.015.9.9 0 0 0 .095-.355 3 3 0 0 0-.046-.334m2.688.329c-.007-.024-.048-.021-.046.006l-.035.058a18.3 18.3 0 0 0-.028-3.301 19.6 19.6 0 0 0-.608-3.611c-.012-.045-.076-.026-.068.018a34 34 0 0 1 .48 3.663c.082 1.197-.005 2.377 0 3.572a.097.097 0 0 0 .163.067.405.405 0 0 0 .142-.472m2.715-2.53a13.3 13.3 0 0 0-.789-2.94c-.01-.028-.053-.018-.045.012a22 22 0 0 1 .559 2.874c.132.969.12 1.948.234 2.918.004.041.07.06.08.01a8.8 8.8 0 0 0-.039-2.874m2.341.325c-.115-.693-.25-1.381-.384-2.07-.002-.01-.02-.008-.02.003.08.676.155 1.351.25 2.025a14 14 0 0 0 .363 2.075.031.031 0 0 0 .061-.008 13.4 13.4 0 0 0-.27-2.026m3.317-.033c-.021-.046-.088-.006-.068.04.176.394.347.79.546 1.172.009.018.04.006.032-.013-.153-.407-.334-.802-.51-1.2m13.157-4.495a9.7 9.7 0 0 0-1.345-1.272q-.681-.568-1.388-1.104a20 20 0 0 0-3.097-2.028.012.012 0 0 0-.012.02c.968.743 1.998 1.402 2.966 2.148q.746.573 1.465 1.18a18 18 0 0 0 1.366 1.114c.037.026.07-.028.045-.058m2.414-1.578a1.7 1.7 0 0 0-.335-.216 8 8 0 0 1-.764-.546q-.716-.567-1.417-1.152c-.451-.378-.885-.778-1.354-1.135-.217-.165-.445-.32-.671-.473a5 5 0 0 0-.387-.243 1.1 1.1 0 0 0-.423-.12.08.08 0 0 0-.088.114 3.9 3.9 0 0 0 1.25 1.052c.488.333 1.007.62 1.495.952q.748.51 1.448 1.08a6 6 0 0 1 .672.616c.092.099.172.212.269.305.13.127.179.093.347.132.047.01.109-.034.087-.087-.047-.113-.04-.19-.129-.279m-.112-3.264a13 13 0 0 0-1.342-1.068c-.231-.16-.465-.32-.707-.463-.259-.154-.532-.28-.788-.437-.028-.017-.062.026-.036.046.235.184.445.395.677.581.214.172.438.331.663.49a12 12 0 0 0 1.493.903c.032.017.069-.025.04-.052m2.321 1.602c-.211-.19-.414-.39-.618-.59a.016.016 0 0 0-.022.022c.2.204.4.406.59.618a3.2 3.2 0 0 0 .598.589.032.032 0 0 0 .043-.043 3.2 3.2 0 0 0-.59-.596m2.625-1.443a7.6 7.6 0 0 0-1.145-.86l-1.19-.852q-1.21-.866-2.433-1.708c-.027-.018-.051.025-.026.044q1.168.888 2.351 1.754l1.145.837q.304.223.611.444a4 4 0 0 0 .626.42.051.051 0 0 0 .061-.08m2.025-2.356a16 16 0 0 0-1.995-1.207q-1.046-.593-2.097-1.18a.022.022 0 0 0-.022.038q1.027.627 2.056 1.25a16 16 0 0 0 2.03 1.148c.026.01.05-.032.028-.05m2.919-2.766a5.6 5.6 0 0 0-2.57-1.184c-.045-.009-.064.057-.02.068a8.7 8.7 0 0 1 2.555 1.162c.028.018.061-.024.036-.046m-75.744 58.197c-1.657-.231-3.32-.269-4.99-.339-1.739-.073-3.477-.16-5.215-.245-3.473-.167-6.946-.346-10.413-.624-.035-.003-.034.05 0 .054 3.426.352 6.854.702 10.29.954 1.695.124 3.391.219 5.09.301a41 41 0 0 0 5.217.048c.08-.006.112-.137.02-.15m4.108-1.899a3.3 3.3 0 0 0-1.651-.206c-.743-.02-1.486.012-2.227-.02-1.45-.062-2.882-.3-4.324-.446q-4.274-.434-8.55-.838c-.028-.003-.027.04 0 .043 2.848.362 5.695.729 8.55 1.024 1.397.145 2.802.183 4.2.332.745.08 1.48.22 2.227.289a3.37 3.37 0 0 0 1.775-.036.083.083 0 0 0 0-.141m3.758-2.024a5.7 5.7 0 0 0-1.572-.343q-.912-.143-1.825-.276-1.598-.234-3.2-.436a127 127 0 0 0-7.087-.714c-.023-.001-.022.033 0 .035 2.354.283 4.71.568 7.057.897q1.704.239 3.403.508.85.135 1.699.277a5.6 5.6 0 0 0 1.493.168c.055-.005.094-.087.032-.116m2.671-2.261a6.3 6.3 0 0 0-1.932-.345c-.752-.094-1.503-.191-2.256-.28q-2.341-.274-4.677-.593c-.01-.001-.014.014-.004.015q2.285.376 4.57.755c.747.123 1.497.233 2.247.342a6.4 6.4 0 0 0 2.041.184.043.043 0 0 0 .01-.078m1.193-2.456a4 4 0 0 0-.395-.152 3 3 0 0 0-.428-.078 2.5 2.5 0 0 0-.443-.02c-.149.009-.296.026-.444.04-.047.005-.049.075 0 .074a6 6 0 0 1 .84.074c.28.034.566.072.845.122.033.006.062-.045.025-.06m-1.042 25.163q-1.642-2.044-3.262-4.105-3.275-4.16-6.494-8.366c-.02-.025-.063 0-.044.026 2 2.778 4.036 5.526 6.133 8.231q1.57 2.025 3.17 4.025a48 48 0 0 0 3.43 4.119c.053.053.151-.017.107-.083-.905-1.353-2.021-2.58-3.04-3.847m8.173 4.803c-.62-.686-1.246-1.367-1.862-2.056q-1.924-2.158-3.727-4.416c-2.457-3.067-4.782-6.236-7.034-9.456-.008-.012-.028-.001-.02.012 2.133 3.215 4.432 6.318 6.84 9.332a242 242 0 0 0 3.671 4.471 96 96 0 0 0 1.961 2.283 12.8 12.8 0 0 0 1.932 2.01c.047.034.105-.03.077-.077a15 15 0 0 0-1.838-2.103m6.116 1.889q-.956-1.09-1.909-2.184a192 192 0 0 1-3.726-4.454c-2.45-2.997-4.838-6.044-7.285-9.044-.007-.009-.022.003-.016.012 2.302 3.073 4.721 6.039 7.16 9.004 1.23 1.496 2.472 2.982 3.692 4.486q.917 1.13 1.84 2.254a12 12 0 0 0 1.861 2.083c.049.036.102-.032.078-.078a12 12 0 0 0-1.695-2.08m7 2.34c-.642-.67-1.294-1.332-1.928-2.012-1.267-1.358-2.476-2.778-3.681-4.192-2.411-2.83-4.797-5.685-7.191-8.53-.022-.025-.056.012-.036.037a205 205 0 0 0 7.134 8.585c1.225 1.4 2.47 2.784 3.675 4.2.579.678 1.144 1.368 1.72 2.048a10.3 10.3 0 0 0 1.875 1.918c.055.038.118-.035.088-.088a10.5 10.5 0 0 0-1.656-1.966m2.019-3.102c-.304-.339-.587-.698-.879-1.047q-.854-1.02-1.727-2.024a125 125 0 0 0-3.581-3.933c-.018-.018-.045.01-.028.028q1.798 1.963 3.53 3.985.843.98 1.668 1.975c.318.384.652.764.944 1.168a3.6 3.6 0 0 0 .707.84c.053.041.105-.035.083-.083a3.8 3.8 0 0 0-.717-.909m6.117 6.458q-.301-.313-.605-.622c-.404-.413-.818-.817-1.228-1.224q-1.23-1.222-2.453-2.45c-.008-.007-.018.004-.011.01q1.16 1.259 2.316 2.52c.38.415.756.833 1.14 1.244q.28.299.563.595a2.1 2.1 0 0 0 .633.541c.031.014.081-.01.066-.05a1.8 1.8 0 0 0-.421-.565m6.06 1.408q-.829-.755-1.644-1.525-1.67-1.584-3.29-3.218-3.2-3.225-6.207-6.633c-.01-.011-.027.006-.017.017q2.973 3.437 6.145 6.694 1.567 1.604 3.18 3.162.806.778 1.62 1.55a9.8 9.8 0 0 0 1.611 1.401c.027.016.066-.018.046-.045a10.5 10.5 0 0 0-1.444-1.403m6.36 1.608a24 24 0 0 0-2.206-1.871q-1.104-.938-2.18-1.909-2.15-1.94-4.199-3.99a.014.014 0 0 0-.02.02q2.037 2.118 4.204 4.1 1.07.974 2.17 1.917a16 16 0 0 0 2.198 1.776.027.027 0 0 0 .033-.043m4.805.122a22 22 0 0 0-2.668-2.085 60 60 0 0 0-2.918-1.885c-.02-.012-.037.018-.018.03q1.438.936 2.815 1.959c.914.678 1.808 1.392 2.75 2.033.03.022.066-.026.04-.052m5.119-.219a18.6 18.6 0 0 1-3.077-1.49c-.028-.018-.053.025-.026.043a9.9 9.9 0 0 0 3.093 1.485.02.02 0 0 0 .01-.038m4.937.154a8.4 8.4 0 0 1-2.223-.97c-.021-.014-.04.019-.02.033a5.4 5.4 0 0 0 1.06.649 4.5 4.5 0 0 0 1.17.34.027.027 0 0 0 .014-.052M263.306 322.63c-.002-.013-.02-.007-.018.005a74 74 0 0 0 2.262 10.575.021.021 0 0 0 .041-.011c-.87-3.5-1.687-7.011-2.285-10.57m5.788 14.501q-.738-2.79-1.423-5.592-1.366-5.604-2.529-11.255c-.002-.012-.02-.007-.019.005q1.026 5.685 2.288 11.322.62 2.756 1.296 5.5a30 30 0 0 0 1.57 5.444.069.069 0 0 0 .128-.035 36 36 0 0 0-1.311-5.389m5.188 10.84-.046-.046a.057.057 0 0 0-.097.04c.005-.063-.136-.306-.155-.418-.042-.246-.105-.49-.16-.732a85 85 0 0 0-.317-1.335c-.219-.888-.458-1.77-.678-2.658a58 58 0 0 1-1.204-5.715c-.249-1.748-.72-3.435-1.126-5.152q-.66-2.792-1.31-5.587c-.006-.025-.043-.014-.038.01q.638 3.122 1.26 6.248c.204 1.02.347 2.06.585 3.072.246 1.051.61 2.073.861 3.124.487 2.029.826 4.084 1.214 6.131q.15.8.311 1.596a4.8 4.8 0 0 0 .322 1.38c.113.192.43.4.592.148a.09.09 0 0 0-.014-.105m3.755 2.195a29 29 0 0 1-.73-2.166c-.459-1.54-.836-3.103-1.235-4.659q-1.235-4.815-2.452-9.635a.012.012 0 0 0-.023.007q1.193 4.953 2.383 9.908c.372 1.557.722 3.122 1.161 4.662.21.732.44 1.458.712 2.17a5.5 5.5 0 0 0 .933 1.88.069.069 0 0 0 .114-.067 12.7 12.7 0 0 0-.863-2.1m3.131-.123q-1.203-3.958-2.094-8.001c-.004-.018-.03-.01-.027.007q.863 4.108 2.04 8.14a64 64 0 0 0 2.636 7.733c.03.068.145.02.122-.052-.867-2.619-1.873-5.184-2.677-7.827m5.496 8.272q-.77-2.037-1.447-4.108-1.34-4.08-2.304-8.27c-.005-.02-.034-.012-.03.007a84 84 0 0 0 2.147 8.437q.632 2.022 1.376 4.005a26 26 0 0 0 1.663 3.922.06.06 0 0 0 .111-.047c-.4-1.346-1.02-2.632-1.516-3.946m3.951 3.113q-.883-2.047-1.676-4.131a119 119 0 0 1-2.707-7.94.01.01 0 0 0-.019.004 87 87 0 0 0 2.561 8.103q.723 1.936 1.526 3.841a20 20 0 0 0 1.788 3.753.031.031 0 0 0 .057-.024 29 29 0 0 0-1.53-3.606m3.72.906c-.79-1.71-1.56-3.43-2.297-5.164-.004-.01-.022-.002-.018.008a128 128 0 0 0 2.14 5.034 46 46 0 0 0 2.467 5.087c.017.027.066.01.054-.022-.674-1.685-1.585-3.294-2.346-4.943m3.005.934c-.006-.01-.023 0-.016.01.906 1.451 1.772 2.943 2.764 4.337a.014.014 0 0 0 .024-.013c-.847-1.488-1.836-2.901-2.771-4.334m4.683 3.112c-.018-.022-.047.009-.03.03a56 56 0 0 0 1.83 2.246c.01.011.03-.005.021-.017a57 57 0 0 0-1.821-2.26M235.001 265.39a14 14 0 0 0-1.671-1.234q-.9-.637-1.813-1.258-1.825-1.242-3.705-2.398c-.009-.006-.016.008-.008.013q1.826 1.179 3.619 2.41.882.604 1.753 1.224a19 19 0 0 0 1.8 1.277.022.022 0 0 0 .025-.034m5.077 2.25a4 4 0 0 0-.826-.413q-.466-.213-.937-.418-.923-.41-1.843-.822c-.007-.003-.013.007-.006.01l1.812.874q.444.218.89.43a4.2 4.2 0 0 0 .885.382c.022.004.047-.026.025-.043m2.562 3.55a29 29 0 0 0-3.166-1.457q-1.48-.677-2.945-1.386-3.038-1.461-6.028-3.019c-.007-.003-.013.007-.006.01q3.012 1.634 6.081 3.158 1.51.747 3.032 1.467a21 21 0 0 0 2.983 1.341.063.063 0 0 0 .048-.114m.613 3.655q-1.766-.996-3.547-1.966-3.562-1.94-7.147-3.837c-.011-.006-.021.01-.01.017q3.015 1.692 6.014 3.413c.965.554 1.926 1.116 2.892 1.669l1.45.828c.314.18 1.744.766 1.7 1.198a.053.053 0 0 0 .09.038c.528-.544-1.17-1.206-1.442-1.36m-1.975 2.132q-3.156-1.775-6.322-3.532a.02.02 0 0 0-.02.034q3.134 1.813 6.282 3.6c2.084 1.187 4.149 2.523 6.324 3.532a.018.018 0 0 0 .018-.03c-1.985-1.346-4.193-2.428-6.282-3.604m7.813 6.668c-1.6-.955-3.363-1.7-5.032-2.53q-2.523-1.253-5.051-2.498c-.01-.004-.017.01-.008.014q2.552 1.303 5.11 2.594c1.638.827 3.262 1.776 4.958 2.477.033.014.053-.04.024-.057m.812 2.968c-.983-.622-2.067-1.107-3.087-1.666q-1.538-.844-3.052-1.73a.012.012 0 0 0-.011.02q1.523.928 3.076 1.805a27 27 0 0 0 3.057 1.61c.023.01.036-.026.017-.039m-1.153 2.307-1.537-.842c-.02-.01-.037.02-.018.03l1.531.854c.508.283 1.009.6 1.537.842a.018.018 0 0 0 .018-.03c-.486-.32-1.021-.575-1.53-.854m3.382 3.632c-.012-.003-.018.016-.005.019l.681.166c.013.003.018-.016.006-.019Zm110.842-14.679c-.005-.014-.027-.009-.022.006.792 2.488 1.598 4.97 2.467 7.433.006.018.036.01.03-.009a253 253 0 0 0-2.475-7.43m-.591 4.108a.01.01 0 0 0-.02.006 62 62 0 0 0 2.872 8.156c.006.014.03.004.025-.01-1.076-2.677-2.068-5.382-2.877-8.152m-.111 6.848c-.01-.028-.055-.016-.045.012.489 1.37.973 2.742 1.478 4.105.007.019.037.011.03-.008-.475-1.374-.971-2.74-1.463-4.109M281.53 156.832c-.037-.03-.089.02-.053.053a43 43 0 0 1 3.868 4.053c.015.018.048-.006.033-.026a23.3 23.3 0 0 0-3.849-4.08m-2.049 2.815a.023.023 0 0 0-.032.033c1.431 1.464 2.824 2.963 4.357 4.323a.035.035 0 0 0 .05-.05c-1.378-1.517-2.893-2.892-4.374-4.306m6.778 7.196-.157-.149-.342-.305c-.224-.201-.45-.402-.667-.61a.023.023 0 0 0-.033.033c.209.218.409.442.61.667l.297.332.148.158a.6.6 0 0 0 .177.16.087.087 0 0 0 .118-.118.6.6 0 0 0-.151-.168m-.171 3.58c-.29-.329-.59-.65-.891-.967q-.93-.98-1.9-1.918a53 53 0 0 0-4.067-3.56c-.015-.011-.037.01-.022.023a69 69 0 0 1 3.969 3.656q.93.932 1.813 1.908.463.515.921 1.034a6.3 6.3 0 0 0 .873.91c.055.041.115-.037.088-.089a5.3 5.3 0 0 0-.784-.997m.438 5.486a21 21 0 0 0-1.643-1.673q-.83-.885-1.647-1.782c-.532-.582-1.054-1.172-1.623-1.719-.6-.576-1.237-1.11-1.87-1.65-.013-.011-.032.007-.02.02a314 314 0 0 1 3.414 3.358 27 27 0 0 1 1.602 1.737c.526.626.909 1.353 1.462 1.96.155.17.468-.061.325-.251m.199 4.883a5.7 5.7 0 0 0-.624-.8q-.34-.414-.667-.838a37 37 0 0 0-1.282-1.575 13.5 13.5 0 0 0-1.454-1.474 15 15 0 0 0-1.665-1.184c-.045-.029-.083.04-.041.071.55.407 1.055.87 1.573 1.317.509.44 1.018.887 1.5 1.356a13 13 0 0 1 1.358 1.552 6.5 6.5 0 0 1 .53.827c.164.304.284.634.472.923a.174.174 0 0 0 .3-.175m.07 4.449a21.3 21.3 0 0 0-2.268-3.058 15.4 15.4 0 0 0-2.803-2.558c-.01-.006-.02.008-.012.015a29 29 0 0 1 2.712 2.579 15 15 0 0 1 1.213 1.476c.377.52.682 1.082 1.02 1.627a.08.08 0 0 0 .138-.08m-1.467 3.201c-.4-.586-.818-1.16-1.225-1.74-.016-.023-.052-.003-.037.02.378.613.744 1.231 1.13 1.839a12 12 0 0 0 1.201 1.723c.027.03.067-.008.052-.04a12.4 12.4 0 0 0-1.121-1.802m1.104 5.292-.186-.13q-.197-.125-.395-.248c-.018-.011-.032.015-.016.027q.187.133.377.265.094.062.19.122a2 2 0 0 0 .199.123c.015.007.033-.012.019-.024a2 2 0 0 0-.188-.135m-.596-38.081q-.188-.184-.38-.364c-.268-.257-.534-.517-.806-.769q-.808-.746-1.626-1.48a.02.02 0 0 0-.027.027q.777.798 1.563 1.587c.255.255.517.503.777.754q.198.196.4.387a1.4 1.4 0 0 0 .386.297c.033.014.053-.029.042-.054a1.4 1.4 0 0 0-.329-.385m-1.271-4.659a11 11 0 0 0-1.098-.813l-1.151-.798c-.03-.02-.055.027-.028.047l1.114.819a11 11 0 0 0 1.135.782c.022.012.049-.019.028-.037m.48-3.543a7 7 0 0 0-.602-.551c-.205-.18-.418-.35-.628-.525-.024-.02-.06.014-.035.036.203.186.404.377.612.557a7 7 0 0 0 .624.52c.023.015.046-.018.029-.037m.557-4.66c-.415-.273-.84-.528-1.265-.785a.035.035 0 0 0-.036.06c.426.256.85.514 1.283.755a.018.018 0 0 0 .018-.03M280.72 71.58q-.76-.783-1.525-1.562-1.51-1.534-3.052-3.034a.014.014 0 0 0-.02.02q1.453 1.59 2.935 3.151.732.769 1.468 1.532a11 11 0 0 0 1.48 1.455c.047.032.108-.032.078-.078a11 11 0 0 0-1.364-1.484m.93 6.22c-.254-.312-.512-.62-.76-.938a180 180 0 0 1-1.554-2.022 28 28 0 0 0-3.18-3.528.03.03 0 0 0-.041.041c1.046 1.212 2.099 2.419 3.14 3.634a23 23 0 0 1 1.516 1.967c.216.314.416.64.611.968a2 2 0 0 0 .657.836.085.085 0 0 0 .123-.095 1.8 1.8 0 0 0-.512-.863m-3.222.56c-.647-.675-1.343-1.294-2.005-1.953-.034-.034-.084.017-.052.052.623.698 1.206 1.428 1.846 2.112.637.68 1.348 1.292 2.018 1.94.018.018.044-.009.027-.027-.613-.705-1.187-1.45-1.834-2.125m4.67 5.445a1.7 1.7 0 0 0-.276-.337l-.298-.321q-.318-.342-.628-.69-.614-.684-1.217-1.378l-.003.002q.589.712 1.163 1.433.296.37.585.744a3.5 3.5 0 0 0 .553.667c.076.058.158-.05.12-.12m-3.884 3.089a.016.016 0 0 0-.022.022 118 118 0 0 0 3.857 3.802.014.014 0 0 0 .02-.02 118 118 0 0 0-3.855-3.804m2.697 6.387c-.21-.263-.43-.52-.646-.778-.016-.02-.042.008-.027.028.203.263.405.529.615.787.209.256.41.523.634.767.016.018.048-.006.034-.026-.19-.269-.406-.52-.61-.778m.866 4.615c-.03-.013-.055.03-.025.044a2 2 0 0 1 1.09 1.206.012.012 0 0 0 .023-.006 1.91 1.91 0 0 0-1.088-1.244m52.472-6.412q-.25-.311-.516-.609-.518-.58-1.063-1.135a24 24 0 0 0-2.372-2.078c-.02-.016-.051.012-.03.03a53 53 0 0 1 2.218 2.176q.53.542 1.032 1.109l.527.598a2.3 2.3 0 0 0 .515.51.04.04 0 0 0 .058-.045 1.9 1.9 0 0 0-.37-.556m-1.125 2.543a11 11 0 0 0-1.561-1.498c-.021-.017-.051.012-.03.03a10.5 10.5 0 0 1 1.437 1.551q.31.41.597.835c.197.29.377.598.588.878.023.03.083.015.068-.028a5.7 5.7 0 0 0-1.1-1.768m.125 5.376q-.201-.253-.413-.497c-.029-.034-.089.012-.062.047.13.17.258.339.394.504.137.166.282.324.428.483.014.016.043-.006.03-.024-.123-.173-.245-.346-.377-.513m-1.437 47.468a20 20 0 0 0-1.741-2.044c-.038-.038-.092.019-.058.058a23 23 0 0 1 1.61 2.142c.484.727.941 1.48 1.44 2.196.024.035.093.015.075-.032a10.2 10.2 0 0 0-1.326-2.32m-1.27 3.53q-1.118-1.64-2.257-3.265c-.016-.022-.052-.001-.037.022q1.074 1.665 2.17 3.316c.73 1.1 1.442 2.222 2.25 3.268.022.03.07.005.05-.03-.663-1.14-1.434-2.221-2.176-3.31m-.827 3.87q-1.227-1.907-2.476-3.8c-.018-.027-.061-.003-.044.026q1.194 1.97 2.409 3.927a44 44 0 0 0 2.437 3.744c.022.027.06-.008.046-.036a44 44 0 0 0-2.372-3.86m-3.243 1.05c-.01-.013-.034 0-.024.014 1.429 2.085 2.75 4.238 4.083 6.385a.021.021 0 0 0 .037-.022 47 47 0 0 0-4.096-6.377m.805 6.869c-.016-.025-.057-.002-.04.024.722 1.135 1.442 2.27 2.195 3.385.011.017.038.002.027-.015-.706-1.145-1.444-2.269-2.182-3.394m-95.778-76.579a15 15 0 0 0-1.692-1.447q-.834-.656-1.7-1.27a44 44 0 0 0-3.758-2.4.021.021 0 0 0-.022.037c1.234.79 2.45 1.618 3.638 2.476q.92.666 1.818 1.365c.554.43 1.091.904 1.676 1.291.032.021.065-.025.04-.052m-1.823 1.697q-.61-.518-1.256-.992a20 20 0 0 0-2.81-1.708c-.03-.014-.054.028-.026.044a25 25 0 0 1 2.683 1.749q.661.491 1.284 1.032c.193.167.382.34.572.51a4 4 0 0 0 .594.508.05.05 0 0 0 .067-.067 5.3 5.3 0 0 0-1.108-1.076m3.062 6.001c-.352-.256-.72-.483-1.06-.755-.623-.502-1.225-1.029-1.85-1.53q-1.824-1.461-3.75-2.785c-.02-.013-.037.018-.018.03q1.948 1.393 3.812 2.9c.586.474 1.18.946 1.734 1.456a12 12 0 0 1 .817.877c.196.221.397.497.715.5a.086.086 0 0 0 .086-.086c-.031-.295-.26-.442-.486-.608m-2.504.966c-.164-.14-.358-.255-.533-.382a10 10 0 0 1-.556-.43 10 10 0 0 1-.988-.94c-.02-.023-.05.01-.033.033a7 7 0 0 0 .962 1.017q.251.216.524.405a3 3 0 0 0 .595.346.03.03 0 0 0 .029-.049m3.795 3.335a1 1 0 0 0-.215-.16c-.069-.042-.137-.087-.208-.126-.148-.082-.298-.158-.448-.237-.304-.16-.605-.32-.902-.493a.023.023 0 0 0-.024.04c.29.187.57.383.85.583q.206.149.415.292a1.6 1.6 0 0 0 .447.247.088.088 0 0 0 .085-.146m-4.336.534c-.023-.02-.056.014-.033.033.513.424 1.024.848 1.547 1.26.014.01.033-.008.02-.02a78 78 0 0 0-1.534-1.273m3.842 5.09a.012.012 0 0 0-.017.017l.766.766a.012.012 0 0 0 .017-.017zm14.852 52.034a32 32 0 0 0-6.175-4.29.018.018 0 0 0-.017.03 55 55 0 0 1 6.167 4.285c.017.014.042-.009.025-.025m2.981 6.506a16 16 0 0 0-2.049-1.307l-2.209-1.36q-2.208-1.36-4.428-2.701c-.026-.016-.05.024-.024.04q2.155 1.368 4.32 2.715l2.13 1.325a17 17 0 0 0 2.222 1.337c.03.013.067-.024.038-.049m-3.507 3.194a28 28 0 0 1-2.63-1.936c-.014-.013-.036.008-.021.022a12.4 12.4 0 0 0 2.63 1.95.022.022 0 0 0 .021-.036m1.384 5.871c-.171-.117-.377-.087-.57-.15-.198-.065-.392-.142-.587-.216q-.57-.218-1.129-.461c-.74-.324-1.466-.683-2.2-1.021a.035.035 0 0 0-.035.06 15 15 0 0 0 1.92 1.06c-.031-.004-.062-.012-.094-.015-.022-.003-.022.032 0 .035.075.01.146.028.22.04l.148.074q.546.25 1.102.476c.18.073.365.139.544.214.206.086.359.238.586.254.2.013.237-.254.095-.35M146.177 81.806c-2.632-2.32-5.387-4.502-8.114-6.708-.011-.01-.028.007-.016.017 2.675 2.266 5.333 4.565 8.102 6.718.02.016.047-.01.028-.027m8.673 3.329a29 29 0 0 0-3.605-3.419c-1.283-1.05-2.507-2.174-3.738-3.285q-3.692-3.334-7.41-6.636c-.023-.02-.056.012-.034.033q3.686 3.427 7.401 6.822c1.222 1.117 2.453 2.228 3.617 3.406a28 28 0 0 0 3.683 3.19c.069.049.135-.054.086-.11m6.957.922c-.37.056-.697-.421-.915-.644l-.867-.885c-.61-.617-1.244-1.21-1.876-1.804-1.264-1.19-2.463-2.443-3.665-3.695-1.174-1.222-2.273-2.516-3.437-3.747-1.222-1.293-2.52-2.503-3.82-3.715a.01.01 0 0 0-.014.014c1.304 1.5 2.614 2.983 4.02 4.39 1.403 1.403 2.84 2.767 4.218 4.194 1.382 1.429 2.672 2.933 4.018 4.394.336.364.682.72 1.023 1.079a4 4 0 0 0 .727.704c.278.17.683.218.702-.199a.09.09 0 0 0-.114-.086m5.305-.794c-.605-.599-1.247-1.158-1.861-1.747a109 109 0 0 1-3.503-3.542c-2.324-2.442-4.38-5.094-6.833-7.42-.034-.031-.077.016-.05.05 2.075 2.681 4.548 4.93 6.863 7.39a218 218 0 0 1 3.387 3.658c.543.603 1.058 1.23 1.615 1.822a5.3 5.3 0 0 0 1.66 1.492.085.085 0 0 0 .103-.103 5.1 5.1 0 0 0-1.38-1.6m3.711-1.801c-.948-1.038-1.89-2.081-2.836-3.12-.923-1.011-1.794-2.071-2.737-3.064a37 37 0 0 0-3.193-2.935.021.021 0 0 0-.03.03c.934 1.002 1.861 2.006 2.833 2.971.998.991 2.046 1.93 3.002 2.963a58 58 0 0 1 2.69 3.104 18.8 18.8 0 0 0 2.701 3.238.063.063 0 0 0 .098-.076 13.8 13.8 0 0 0-2.528-3.111m7.134 2.609c-.615-.897-1.384-1.705-2.081-2.538-.738-.881-1.465-1.772-2.2-2.656a169 169 0 0 0-4.506-5.22c-.014-.015-.035.007-.022.023 1.451 1.743 2.906 3.484 4.347 5.236.71.863 1.418 1.727 2.104 2.609.704.904 1.348 1.882 2.116 2.733.116.128.342-.042.242-.187m-3.142-10.444c-.02-.018-.05.011-.03.03a30 30 0 0 1 4.032 4.888.027.027 0 0 0 .047-.027 19.1 19.1 0 0 0-4.049-4.89m7.57 9.191a9 9 0 0 0-.322-.375q-.323-.354-.651-.704a55 55 0 0 1-1.294-1.418c-.008-.01-.021.004-.013.014.406.502.799 1.014 1.188 1.53q.273.362.55.72.144.186.295.364c.081.092.172.244.31.229a.08.08 0 0 0 .072-.055c.036-.122-.062-.216-.135-.305m3.008-2.443q-.812-1.02-1.658-2.014c-1.113-1.305-2.305-2.537-3.51-3.758-.024-.025-.062.013-.038.039 1.16 1.233 2.258 2.523 3.346 3.82q.793.943 1.561 1.907a23 23 0 0 0 1.64 2.02.049.049 0 0 0 .076-.06 14 14 0 0 0-1.417-1.954m4.036-2.548c-.43-.496-.867-.985-1.319-1.46a58 58 0 0 0-2.817-2.75c-.022-.02-.055.012-.033.033a61 61 0 0 1 2.676 2.815q.64.712 1.267 1.438a12 12 0 0 0 1.311 1.46.041.041 0 0 0 .065-.049 8.4 8.4 0 0 0-1.15-1.487m2.688-2.608a28 28 0 0 0-2.474-2.137c-.014-.01-.032.013-.019.025a36 36 0 0 1 2.344 2.261c.747.785 1.44 1.631 2.212 2.39a.037.037 0 0 0 .058-.045 13.8 13.8 0 0 0-2.121-2.494m6.226.649a5 5 0 0 0-.434-.372 5 5 0 0 0-.814-.567 9.3 9.3 0 0 1-1.748-1.438c-1.062-.977-2.116-1.942-3.236-2.854-.03-.025-.073.016-.044.044 1.062 1.01 2.174 1.941 3.289 2.89a9.6 9.6 0 0 1 1.628 1.553 5 5 0 0 0 .665.722c.121.114.245.238.377.339a1.3 1.3 0 0 0 .423.17c.069.028.121-.062.09-.117a1.4 1.4 0 0 0-.196-.37m3.611-1.992a16 16 0 0 1-1.93-1.391c-1.105-.95-2.014-2.134-3.173-3.02-.017-.014-.04.012-.03.029a15.5 15.5 0 0 0 3.215 3.063c.565.473 1.114.963 1.67 1.447a4.5 4.5 0 0 0 1.784 1.194c.06.012.13-.055.088-.115a5.2 5.2 0 0 0-1.624-1.207m7.033-.195c-.441-.4-.949-.721-1.429-1.077q-.81-.602-1.587-1.25a38 38 0 0 1-2.8-2.591c-.026-.027-.066.014-.04.041a35 35 0 0 0 2.79 2.674q.683.583 1.394 1.13a10 10 0 0 0 1.637 1.119c.028.014.061-.022.035-.046m4.585-1.771a8 8 0 0 0-1.057-.875 58 58 0 0 0-1.156-.853c-.779-.556-1.559-1.111-2.33-1.677-.022-.015-.05.02-.03.037.754.59 1.5 1.19 2.245 1.788.358.288.722.567 1.086.845a8 8 0 0 0 1.178.818.053.053 0 0 0 .064-.083m4.119-.815a8.5 8.5 0 0 0-1.544-1.172 18 18 0 0 0-1.773-.896c-.022-.01-.042.023-.02.034a28 28 0 0 1 3.294 2.089c.033.023.071-.028.043-.055m1.522-2.041c-.03-.014-.055.03-.026.044.507.264 1.01.535 1.527.778.018.008.033-.017.016-.027-.497-.281-1.01-.535-1.517-.795m5.104.517q-.896-.387-1.81-.723c-.025-.009-.043.033-.019.043.598.258 1.202.493 1.814.716.02.007.035-.027.015-.036m34.861-10.145c-1.252-.986-2.509-1.963-3.697-3.027s-2.304-2.206-3.393-3.371c-.026-.028-.065.013-.041.041a35 35 0 0 0 3.382 3.473 29 29 0 0 0 3.723 2.918c.02.013.045-.019.026-.034m-3.764-6.908a.01.01 0 0 0-.014.014 51 51 0 0 0 4.893 4.556c.015.012.037-.008.022-.022-1.658-1.491-3.32-2.974-4.901-4.548m9.872 7.556a.9.9 0 0 0-.414-.273q-.233-.113-.468-.224a18 18 0 0 1-.984-.494 13 13 0 0 1-1.85-1.226c-.007-.007-.018.004-.01.01.552.467 1.123.923 1.71 1.347.297.215.597.427.908.623q.231.147.473.278a1 1 0 0 0 .501.191.156.156 0 0 0 .134-.232m4.58-.311c-.672-.561-1.418-1.036-2.133-1.539-.756-.531-1.5-1.078-2.245-1.625q-2.235-1.642-4.466-3.29c-.012-.008-.023.012-.012.021q2.182 1.647 4.362 3.297c.756.572 1.512 1.145 2.256 1.733.686.542 1.352 1.122 2.082 1.606.12.08.269-.108.156-.203m3.975-.645a18 18 0 0 0-1.545-.903q-.793-.47-1.562-.98-1.56-1.032-3.013-2.214c-.008-.007-.019.004-.011.01q1.415 1.189 2.938 2.24.76.523 1.545 1.01a10 10 0 0 0 1.616.911c.047.018.066-.05.032-.075m4.852-.246a13 13 0 0 1-3.04-1.826c-.012-.01-.028.006-.017.016a7.5 7.5 0 0 0 3.036 1.86c.029.008.05-.037.02-.05m.854-40.015c-2.881-1.556-5.832-2.971-8.788-4.378-.045-.02-.085.045-.04.068 2.907 1.508 5.817 3.005 8.797 4.364.036.016.068-.035.031-.054m-2.132 1.72a14.5 14.5 0 0 0-1.797-.82c-.596-.274-1.174-.584-1.758-.884-1.168-.6-2.361-1.153-3.549-1.714-.038-.018-.072.038-.034.057 1.195.6 2.388 1.205 3.603 1.762.597.275 1.2.539 1.783.841a14 14 0 0 0 1.7.88c.074.025.113-.083.052-.122m15.6 36.982c-1.705-1.864-3.632-3.517-5.328-5.391-.022-.025-.057.011-.036.036a31.8 31.8 0 0 0 5.317 5.416c.037.027.076-.03.047-.061m5.421 1.13a70 70 0 0 1-1.186-1.002c-.758-.657-1.466-1.377-2.18-2.081q-2.147-2.117-4.303-4.224a.008.008 0 0 0-.01.01q2.054 2.209 4.247 4.28c.709.672 1.437 1.328 2.126 2.02.363.367.719.74 1.077 1.11a2.56 2.56 0 0 0 .963.813c.046.014.105-.036.085-.085a2.4 2.4 0 0 0-.819-.84m-1.611-5.452c-.01-.011-.027.005-.017.016 1.253 1.384 2.484 2.788 3.798 4.115.013.012.03-.006.02-.02-1.22-1.415-2.521-2.753-3.801-4.111m7.455 7.346a1.6 1.6 0 0 0-.26-.265q-.141-.129-.284-.255c-.193-.167-.386-.332-.565-.513a6.5 6.5 0 0 1-.952-1.224.012.012 0 0 0-.02.012 13 13 0 0 0 .848 1.307c.148.2.296.401.462.588a4 4 0 0 0 .284.283 1.3 1.3 0 0 0 .315.24c.103.047.252-.057.173-.173m2.575-.932-1.476-1.566q-1.454-1.545-2.901-3.095c-.009-.01-.023.004-.014.014q1.437 1.56 2.872 3.124l1.412 1.543c.482.526.947 1.085 1.465 1.576.043.041.1-.019.063-.063-.438-.537-.946-1.028-1.421-1.533m5.777 2.038a5 5 0 0 0-.528-.493l-.537-.485q-.541-.482-1.084-.96l-2.17-1.918c-.01-.01-.027.006-.016.016l2.156 1.992q.53.492 1.063.981a10 10 0 0 0 1.06.94c.046.033.088-.035.056-.073m3.902.172a6.6 6.6 0 0 0-.733-.65c-.261-.213-.52-.43-.786-.638q-.788-.614-1.57-1.237c-.02-.017-.051.012-.03.03q.772.652 1.535 1.315c.247.214.503.418.755.626a7 7 0 0 0 .79.603.031.031 0 0 0 .039-.05m3.303.275a5 5 0 0 0-.434-.395q-.224-.192-.454-.375l-.924-.735c-.011-.009-.028.007-.016.017l.89.793q.22.195.447.382a5 5 0 0 0 .458.356c.027.017.053-.02.033-.043m1.757-.749c-.022-.01-.039.029-.017.039q.624.294 1.265.549c.017.006.028-.021.012-.029a21 21 0 0 0-1.26-.56m24.501 2.333c-.018-.009-.034.018-.016.026 1.355.61 2.706 1.23 4.067 1.828.014.006.026-.014.012-.02-1.349-.623-2.708-1.224-4.063-1.835m11.251 3.029c-2.575-1.548-5.282-2.897-7.937-4.3-.009-.006-.017.008-.008.013 2.622 1.464 5.227 3.001 7.925 4.32a.02.02 0 0 0 .02-.033m8.22 1.445a21 21 0 0 0-2.63-1.472l-2.483-1.324q-2.572-1.372-5.14-2.752c-.028-.016-.054.028-.025.043q2.589 1.443 5.17 2.9l2.538 1.429a20 20 0 0 0 2.503 1.336c.1.039.14-.106.067-.16m7.075.157a17 17 0 0 0-2.988-1.627l-3.014-1.56c-2.082-1.08-4.175-2.134-6.267-3.194-.02-.01-.038.02-.018.03 2.064 1.11 4.124 2.222 6.198 3.312l3.004 1.58a17 17 0 0 0 3.047 1.523c.035.01.07-.04.038-.065m5.867.239c-1.65-1.108-3.472-2.013-5.197-3q-2.605-1.49-5.217-2.967a.012.012 0 0 0-.012.02q2.584 1.526 5.18 3.029c1.72.999 3.415 2.121 5.2 2.995a.045.045 0 0 0 .046-.077m3.388-1.121a16 16 0 0 0-1.757-1.208q-.884-.588-1.77-1.174a377 377 0 0 0-3.666-2.412c-.017-.011-.033.015-.016.027 1.186.817 2.381 1.62 3.577 2.424l1.763 1.186a16 16 0 0 0 1.84 1.194c.023.01.05-.018.029-.037m.713-2.99c-.023-.012-.043.022-.02.034.774.41 1.543.83 2.33 1.217.012.006.024-.013.01-.02-.763-.428-1.545-.825-2.32-1.231m7.683.487a2.3 2.3 0 0 0-.51-.298 23 23 0 0 0-.59-.277l-1.17-.527c-.025-.01-.047.024-.022.037l1.126.603q.276.147.558.287a2.4 2.4 0 0 0 .572.237c.033.006.066-.036.036-.062m29.127-5.891c-.007-.007-.018.004-.012.011 1.575 1.741 3.139 3.493 4.757 5.193.01.011.027-.005.017-.016-1.555-1.76-3.164-3.47-4.763-5.188m7.532 7.335c-.021-.032-.026-.07-.05-.1a1.6 1.6 0 0 0-.195-.194q-.202-.186-.408-.369c-.135-.117-.274-.229-.403-.353l-.407-.39a.016.016 0 0 0-.022.021l.383.394c.129.132.245.273.367.41q.178.198.36.394.094.103.195.194a.5.5 0 0 0 .1.051 1 1 0 0 1 .122.095.031.031 0 0 0 .044-.045c-.028-.035-.061-.07-.086-.108m3.627-.868a12 12 0 0 0-1.411-1.17l-1.473-1.19q-1.453-1.17-2.917-2.327c-.01-.008-.023.006-.013.014q1.451 1.212 2.913 2.411l1.42 1.162a12 12 0 0 0 1.443 1.15.031.031 0 0 0 .038-.05m4.118-1.584a8.5 8.5 0 0 1-2.541-1.537c-.017-.015-.041.01-.025.025a5.9 5.9 0 0 0 2.554 1.553c.028.008.037-.031.012-.041m26.116-7.055q-2.246-1.646-4.335-3.493c-.017-.014-.041.01-.025.025a46 46 0 0 0 8.839 6.517.016.016 0 0 0 .015-.027c-1.507-.997-3.035-1.953-4.494-3.022m6.005 1.023a14 14 0 0 0-1.486-1q-.82-.538-1.623-1.1a76 76 0 0 1-3.202-2.356c-.008-.006-.02.005-.011.011a60 60 0 0 0 3.013 2.334q.772.555 1.563 1.086a11 11 0 0 0 1.716 1.065c.024.01.054-.02.03-.04m2.325-1.837c-.497-.317-1.024-.594-1.54-.88l-1.55-.862a.02.02 0 0 0-.019.033l1.54.879c.512.292 1.022.6 1.551.86a.018.018 0 0 0 .018-.03M173.796 18.863a71 71 0 0 0-8.208-2.174c-.015-.003-.021.02-.006.023 2.755.643 5.488 1.397 8.2 2.2.032.01.044-.038.014-.049m13.531.992c-5.448-1.37-10.923-2.593-16.41-3.79-.013-.003-.018.016-.006.019 5.452 1.348 10.904 2.667 16.396 3.843.046.01.066-.06.02-.072m3.583-1.287c-1.873-.465-3.705-1.147-5.54-1.745-1.84-.6-3.673-1.244-5.53-1.788-.032-.01-.044.038-.013.049 1.817.668 3.674 1.24 5.51 1.854 1.834.612 3.714 1.155 5.5 1.897.161.067.252-.223.074-.267m6.366 1.894a4.4 4.4 0 0 0-1.059-.353q-.602-.145-1.205-.286a113 113 0 0 1-2.358-.595.023.023 0 0 0-.012.045c.779.224 1.557.448 2.331.689l1.14.353a4.5 4.5 0 0 0 1.136.25.055.055 0 0 0 .027-.103m7.661-.572c-2.155-.734-4.44-1.195-6.644-1.765q-3.328-.861-6.662-1.7a.006.006 0 0 0-.003.012q3.315.908 6.639 1.784c2.2.583 4.418 1.3 6.656 1.718a.025.025 0 0 0 .014-.049m-3.884-3.152c-.026-.01-.036.03-.011.041a42 42 0 0 0 8.722 2.68c.022.003.031-.029.01-.034a72 72 0 0 1-8.72-2.687m14.065 2.009c-.939-.206-1.886-.367-2.825-.574q-1.408-.311-2.79-.728c-.02-.006-.028.024-.008.03a26.2 26.2 0 0 0 5.617 1.314c.024.002.029-.037.005-.042m3.321-.525c-.013-.002-.018.017-.006.019 1.104.185 2.207.402 3.317.542.016.002.019-.023.004-.026-1.097-.219-2.211-.362-3.316-.535m10.962-.837a24 24 0 0 1-3.559.313.022.022 0 0 0 0 .043 12.5 12.5 0 0 0 3.572-.31c.03-.008.016-.05-.013-.046m66.895 3.416c-.585-.52-1.228-.974-1.854-1.443-.643-.48-1.3-.939-1.958-1.399-.01-.007-.025.01-.014.019.609.491 1.217.984 1.84 1.457.638.484 1.27.988 1.948 1.416.03.018.065-.026.038-.05m3.264 2.022a2 2 0 0 0-.175-.158 4 4 0 0 0-.402-.277 4.6 4.6 0 0 0-.858-.405.014.014 0 0 0-.01.025 3.7 3.7 0 0 1 .769.53c.113.1.219.212.323.323q.075.082.153.163a.6.6 0 0 0 .201.167c.095.036.175-.07.155-.155a.5.5 0 0 0-.155-.213m-1.719-4.086c-.027-.013-.05.027-.023.04.683.335 1.365.675 2.066.974.016.006.03-.016.014-.024-.672-.356-1.366-.67-2.057-.99M14.184 107.325c-1.295-.932-2.652-1.776-3.96-2.691a81 81 0 0 1-3.946-2.931c-.025-.02-.062.014-.036.036a68 68 0 0 0 3.77 2.967 34 34 0 0 0 4.134 2.683.037.037 0 0 0 .038-.064m-1.786-5.615a39 39 0 0 0-8.379-5.958.021.021 0 0 0-.021.037 72 72 0 0 1 8.367 5.955c.023.018.055-.012.033-.034m5.352 3.538a1 1 0 0 0-.185-.164 10 10 0 0 0-.435-.327 27 27 0 0 0-.885-.608 52 52 0 0 1-1.78-1.2c-.016-.012-.037.015-.021.027.552.457 1.088.928 1.62 1.407a27 27 0 0 0 .792.676q.209.174.427.337a2 2 0 0 0 .209.146c.094.048.17.018.267.043a.077.077 0 0 0 .086-.112c-.043-.077-.038-.153-.094-.225m6.091-2.162a3.7 3.7 0 0 0-.573-.767c-.242-.226-.513-.428-.776-.63-.607-.467-1.252-.868-1.88-1.305-1.229-.857-2.382-1.83-3.58-2.729q-3.656-2.74-7.563-5.102c-.022-.013-.041.02-.02.034q3.736 2.412 7.33 5.044a44 44 0 0 1 3.628 2.831c.54.49 1.031 1.03 1.568 1.522q.425.39.863.765a3.4 3.4 0 0 0 .864.476c.084.04.2-.047.14-.139m5.295-2.038a27 27 0 0 0-3.261-2.552q-1.883-1.413-3.7-2.92c-1.114-.923-2.187-1.895-3.265-2.861a45 45 0 0 0-1.613-1.364 8 8 0 0 0-1.755-1.26c-.086-.038-.216.048-.147.147a7.4 7.4 0 0 0 1.472 1.368c.531.43 1.06.86 1.61 1.266 1.26.93 2.53 1.846 3.754 2.825 1.132.905 2.245 1.838 3.34 2.788a30 30 0 0 0 3.357 2.833c.167.106.342-.132.208-.27m-3.429-8.312c-.35-.331-.752-.612-1.119-.925q-.52-.444-1.068-.855a20 20 0 0 0-2.409-1.558c-.04-.022-.084.031-.05.064a19.6 19.6 0 0 0 2.184 1.784q.578.407 1.178.779c.413.253.805.55 1.23.782.043.024.092-.035.054-.07m7.313 5.744q-.34-.33-.699-.64a35 35 0 0 0-1.435-1.165 51 51 0 0 0-2.922-2.112c-.027-.018-.052.026-.025.044a31 31 0 0 1 2.871 2.283q.645.586 1.264 1.198.32.313.643.624a2.2 2.2 0 0 0 .634.51.124.124 0 0 0 .151-.152 1.9 1.9 0 0 0-.482-.59m6.542-.159a5.5 5.5 0 0 0-1.165-1.134q-.737-.618-1.468-1.244c-.944-.812-1.893-1.62-2.854-2.412-1.877-1.548-3.836-2.973-5.803-4.403-.033-.024-.062.03-.031.054 1.968 1.513 3.874 3.115 5.793 4.69.908.746 1.81 1.499 2.698 2.268q.686.593 1.35 1.212a6.3 6.3 0 0 0 1.339 1.11c.086.045.201-.049.141-.141m3.296-3.749q-1.348-1.117-2.636-2.303a45 45 0 0 0-5.045-4.431c-.056-.038-.11.043-.069.089a45.6 45.6 0 0 0 5.13 4.466 71 71 0 0 1 2.482 2.176 11 11 0 0 0 2.482 2.2c.056.025.129-.03.09-.09a10.4 10.4 0 0 0-2.433-2.107m7.159.137a19 19 0 0 0-2.285-1.802q-1.293-.995-2.55-2.042c-1.534-1.275-3.054-2.585-4.68-3.744-.021-.016-.048.019-.028.036 1.485 1.335 3.095 2.533 4.673 3.754a85 85 0 0 1 2.475 1.986 19 19 0 0 0 2.33 1.898.055.055 0 0 0 .066-.086m4.462-2.15c-.757-.56-1.555-1.061-2.309-1.628q-1.195-.897-2.367-1.824a194 194 0 0 1-4.382-3.588c-.012-.01-.028.007-.017.017a87 87 0 0 0 4.462 3.748q1.048.828 2.117 1.63c.799.6 1.573 1.25 2.395 1.817.107.074.202-.097.101-.172m3.76-3.179a53 53 0 0 0-2.35-2.007 44 44 0 0 0-4.843-3.438c-.013-.007-.024.012-.012.02 1.661 1.167 3.311 2.34 4.884 3.625q1.132.925 2.219 1.902a19.5 19.5 0 0 0 2.092 1.935.035.035 0 0 0 .048-.048 12 12 0 0 0-2.038-1.989m6.517.052c-1.083-1.116-2.264-2.153-3.428-3.183a61 61 0 0 0-3.506-2.905c-.01-.008-.024.01-.014.018 1.157 1.01 2.326 2.007 3.47 3.03 1.147 1.026 2.238 2.108 3.37 3.147a.076.076 0 0 0 .108-.107m5.153-1.328a17 17 0 0 0-1.6-1.415q-.84-.709-1.7-1.393-1.653-1.313-3.387-2.515c-.027-.018-.052.025-.026.044q1.772 1.291 3.481 2.668.806.65 1.594 1.323c.526.449 1.025.952 1.58 1.361.045.033.092-.036.058-.073m2.152-4.035a20 20 0 0 0-2.409-1.62c-.044-.026-.08.04-.04.067.812.55 1.586 1.155 2.352 1.767.751.6 1.445 1.27 2.193 1.874a.04.04 0 0 0 .055-.055 13.6 13.6 0 0 0-2.15-2.033m7.511-.555c-1.235-.604-2.473-1.195-3.65-1.91-.036-.023-.068.034-.033.057a17.2 17.2 0 0 0 3.66 1.906.03.03 0 0 0 .023-.053m10.199-4.307a5 5 0 0 1-1.56-1.238c-.016-.018-.049.007-.035.026a3.7 3.7 0 0 0 .7.75 3.6 3.6 0 0 0 .877.505c.024.01.041-.03.018-.043m57.164-65.566a60 60 0 0 0-9.542-4.844 103 103 0 0 0-9.832-3.667c-.031-.01-.044.038-.013.049a102 102 0 0 1 9.938 3.912c3.183 1.451 6.195 3.22 9.333 4.75a.115.115 0 0 0 .116-.2m-10.158-1.896c-1.271-.715-2.63-1.297-3.955-1.905a247 247 0 0 0-4.022-1.792c-.027-.012-.051.027-.024.04 1.337.657 2.674 1.313 4.024 1.944 1.303.609 2.605 1.263 3.954 1.767.032.012.051-.038.023-.054m4.605 3.08a7.4 7.4 0 0 0-1.337-.68c-.008-.003-.014.01-.006.014a6.4 6.4 0 0 1 1.28.735c.396.293.724.667 1.123.953.026.019.059-.017.043-.042a3.4 3.4 0 0 0-1.103-.98m-2.315 2.339a12 12 0 0 0-1.921-1.16q-.976-.538-1.97-1.041a59 59 0 0 0-4.06-1.86c-.016-.007-.027.02-.011.028q2.064.927 4.066 1.986.985.52 1.952 1.075a17 17 0 0 0 1.887 1.07c.053.022.1-.062.057-.098m-3.897 1.367a10 10 0 0 0-.965-.569c-.338-.189-.681-.368-1.024-.548q-1.012-.53-2.026-1.055c-.024-.013-.046.023-.021.037q1.007.576 2.019 1.145.486.278.981.542a10 10 0 0 0 1.012.505c.035.014.05-.038.024-.057m-4.807 2.473c-.655-.467-1.341-.88-2.03-1.296-.015-.009-.028.014-.014.024.665.451 1.329.902 2.027 1.302.02.011.036-.018.017-.03m258.878 33.724a3.7 3.7 0 0 1-1.403.124c-.005 0-.005.007 0 .008a3.7 3.7 0 0 0 1.407-.117.008.008 0 0 0-.004-.015m-59.211-4.834c.012-.016-.015-.032-.027-.016a1.49 1.49 0 0 0-.181 1.427c.011.028.057.015.045-.012a1.46 1.46 0 0 1 .163-1.399m8.501-8.995a5.8 5.8 0 0 0-1.237.713 9 9 0 0 0-1.015 1.225 54 54 0 0 0-1.846 2.507 43 43 0 0 0-1.624 2.61 9.5 9.5 0 0 0-1.338 2.794c-.007.035.037.07.065.038a16.7 16.7 0 0 0 1.514-2.493 31 31 0 0 1 1.744-2.541 27 27 0 0 1 1.98-2.367c.352-.371.74-.711 1.07-1.102a7 7 0 0 0 .746-1.326.043.043 0 0 0-.059-.059m1.162.806c-.467.61-1.053 1.129-1.565 1.7a5.3 5.3 0 0 0-.693.913 4.3 4.3 0 0 0-.395 1.054.103.103 0 0 0 .15.115c.147-.096.284-.213.424-.32a3 3 0 0 0 .429-.38 5.5 5.5 0 0 0 .661-.982c.374-.672.673-1.395 1.097-2.036.046-.07-.06-.126-.108-.064m22.852-7.329c-.485.368-.997.677-1.514.998a9 9 0 0 0-.704.494 3.6 3.6 0 0 0-.76.616 11 11 0 0 0-.992 1.49c-.14.253-.295.497-.43.752a2.9 2.9 0 0 0-.252.89c-.015.092.096.181.17.1a7 7 0 0 0 .652-.757 5.5 5.5 0 0 1 .665-.794c.246-.246.493-.49.75-.722a2.7 2.7 0 0 0 .62-.716 22 22 0 0 1 1.867-2.259c.045-.045-.017-.133-.071-.092M244.492 17.717c-.632.155-1.271.26-1.9.424a4 4 0 0 1-.93.219 4 4 0 0 0-.615-.02 3 3 0 0 0-.478.114c-.625.195-1.22.486-1.845.683-.645.203-1.292.333-1.95.478-.184.04-.123.29.04.307a17 17 0 0 0 2.093.055 10.2 10.2 0 0 0 2.18-.172 2 2 0 0 0 .5-.186c.17-.093.271-.248.429-.345.246-.151.563-.234.825-.362a9.7 9.7 0 0 0 1.69-1.13c.032-.025-.004-.073-.039-.065M128.857 70.242a43 43 0 0 1-6.117-3.942c-.038-.03-.092.02-.055.055a17.1 17.1 0 0 0 6.124 4.002c.067.024.11-.08.048-.115m1.102-1.695c-1.456-1.076-3.104-1.904-4.612-2.907a82 82 0 0 1-4.43-3.145c-.039-.03-.087.035-.052.068a36 36 0 0 0 4.281 3.42 20.8 20.8 0 0 0 4.774 2.657c.058.02.082-.062.039-.093m-5.989-5.894c-.201-.16-.398-.334-.61-.482q-.315-.217-.632-.43l-1.309-.891c-.046-.031-.087.042-.043.074l1.27.907.623.446c.214.152.449.278.673.413.022.014.05-.02.029-.037m3.767 2.404c-.06-.049-.127-.091-.191-.135a20 20 0 0 0-.38-.258l-.764-.505c-.051-.034-.115.046-.067.086l.713.595q.177.147.356.289a.9.9 0 0 0 .401.246c.088.01.117-.093.09-.157a.5.5 0 0 0-.158-.16m-2.455-3.984a5.5 5.5 0 0 0-.913-.613 4 4 0 0 0-.487-.23 6 6 0 0 0-.543-.167c-.029-.007-.05.037-.02.05q.249.115.492.241c.16.081.324.151.483.234.321.167.642.342.95.534.03.018.066-.027.038-.05M95.502 79.497c-1.55-1.113-3.224-2.07-4.842-3.079-.03-.019-.057.028-.028.047 1.6 1.037 3.177 2.149 4.842 3.079a.027.027 0 0 0 .028-.047m3.062-.622c-.74-.575-1.572-1.057-2.365-1.555-.824-.516-1.65-1.025-2.476-1.538-.022-.014-.04.02-.02.033.798.529 1.594 1.06 2.394 1.585a28 28 0 0 0 2.43 1.524c.029.015.067-.026.037-.05m3.072-1.048a25 25 0 0 0-3.31-1.93c-.022-.011-.042.022-.02.034 1.125.61 2.193 1.308 3.298 1.95.036.02.064-.03.032-.054m3.221-1.334a9 9 0 0 0-1.003-.488c-.35-.14-.705-.266-1.058-.4-.07-.026-.12.09-.05.122.34.159.68.323 1.024.476a9 9 0 0 0 1.051.376.047.047 0 0 0 .036-.086m127.408-5.972a15.7 15.7 0 0 0-2.828-1.698 43 43 0 0 0-3.071-1.473c-.027-.012-.051.025-.024.04.985.557 1.964 1.126 2.956 1.671a23 23 0 0 0 2.914 1.552.055.055 0 0 0 .053-.091m4.377-1.244a9 9 0 0 0-1.615-.667 13 13 0 0 1-1.762-.832c-1.063-.62-2.144-1.2-3.22-1.795a.04.04 0 0 0-.04.067 22.7 22.7 0 0 0 3.269 1.834c.56.251 1.1.545 1.64.838a7.2 7.2 0 0 0 1.628.79.13.13 0 0 0 .1-.235m3.181-1.378a4.3 4.3 0 0 0-.703-.29 10 10 0 0 1-.739-.322q-.703-.336-1.42-.64-1.388-.591-2.823-1.06c-.019-.007-.027.023-.008.03q1.466.51 2.882 1.147.661.298 1.308.628a6 6 0 0 1 .63.359 6 6 0 0 0 .688.465.184.184 0 0 0 .185-.317m2.125-1.969a11 11 0 0 0-1.123-.556l-1.18-.483c-.052-.022-.09.067-.039.092l1.15.556a11 11 0 0 0 1.162.462c.042.015.069-.05.03-.071m2.292-1.423c-.295-.095-.597-.161-.898-.235-.063-.016-.09.083-.027.098.302.07.602.148.908.198a.031.031 0 0 0 .017-.06m86.487 106.552c-.27-.35-.564-.693-.811-1.06a9.5 9.5 0 0 0-.643-1.141c-.295-.33-.63-.613-.912-.957-.311-.382-.598-.786-.892-1.181q-.821-1.109-1.638-2.22c-.023-.032-.077-.003-.054.03 1.024 1.52 2.15 2.975 3.048 4.57a5 5 0 0 0 .848.879c.3.324.556.695.827 1.045a16.5 16.5 0 0 0 1.775 2.21.051.051 0 0 0 .08-.06 19 19 0 0 0-1.628-2.114m-4.995-1.471a.035.035 0 0 0-.061.036 12.05 12.05 0 0 0 3.02 4.002.043.043 0 0 0 .06-.06c-1.057-1.286-2.035-2.637-3.02-3.977m6.165 7.689a2 2 0 0 0-.213-.326c-.154-.193-.318-.379-.477-.568a65 65 0 0 1-.944-1.146c-.023-.029-.066.007-.05.037q.374.651.733 1.31c.119.219.228.448.36.66a2 2 0 0 0 .231.31.7.7 0 0 0 .298.155.087.087 0 0 0 .11-.083c0-.052.012-.104.012-.155a.45.45 0 0 0-.06-.193m-.926 3.803c-.26-.306-.52-.611-.774-.923l-1.618-1.99c-1.063-1.305-2.126-2.603-3.252-3.855-.018-.019-.053.007-.037.029.958 1.337 1.97 2.623 2.993 3.91l1.55 1.95q.41.516.807 1.04a2.2 2.2 0 0 0 .787.783.06.06 0 0 0 .086-.066 2.06 2.06 0 0 0-.542-.878m.594 5.165a10 10 0 0 0-1.31-1.65q-.705-.851-1.414-1.699-1.421-1.692-2.893-3.338c-.037-.042-.095.019-.06.06l2.771 3.369q.681.83 1.355 1.665a11.4 11.4 0 0 0 1.404 1.706.094.094 0 0 0 .147-.113m-.818 2.833-.555-.67-1.179-1.42c-.773-.932-1.55-1.863-2.39-2.735-.015-.015-.044.005-.03.024.685.962 1.436 1.878 2.19 2.787l1.145 1.38.555.668a2.8 2.8 0 0 0 .61.633c.034.022.09-.015.074-.057a2.3 2.3 0 0 0-.42-.61m-3.135.315c-.012-.016-.039 0-.027.016.376.517.742 1.044 1.138 1.546.013.017.043-.006.03-.024-.362-.524-.758-1.028-1.14-1.538m3.896 4.845c-.101-.12-.22-.228-.328-.34-.216-.223-.441-.438-.662-.656-.018-.019-.042.008-.028.027.19.244.374.492.568.732l.281.349c.049.058.105.111.158.166a.55.55 0 0 0 .181.144.055.055 0 0 0 .08-.062 1.1 1.1 0 0 0-.25-.36m-2.597 1.78c-.031-.046-.106-.001-.074.043.251.346.491.703.762 1.033.015.017.043-.005.031-.024-.22-.362-.477-.704-.719-1.052m15.496 34.63c-.589-.929-1.166-1.864-1.772-2.781a68 68 0 0 0-3.763-5.182c-.013-.017-.044.006-.03.024a146 146 0 0 1 3.704 5.21 67 67 0 0 1 1.737 2.686 29 29 0 0 0 1.63 2.751c.027.035.099.017.079-.033a17.4 17.4 0 0 0-1.585-2.675m-.045-3.612c-.023-.033-.077-.001-.054.032l.892 1.278c.017.024.057.001.04-.024zm4.868 35.792a5.4 5.4 0 0 0-.19-1.768c-.22-.61-.467-1.19-.64-1.816-.355-1.275-.657-2.564-1.025-3.836a.023.023 0 0 0-.046.013c.307 1.313.629 2.64.821 3.976.092.64.054 1.25.088 1.89a7.3 7.3 0 0 0 .461 1.732c.753 2.457.648 5.079 1.119 7.588.01.05.082.035.084-.011.112-2.61-.621-5.168-.672-7.768m-1.316 8.384c-.225-1.198-.442-2.36-.59-3.575a52 52 0 0 0-1.087-6.386c-.012-.045-.074-.025-.068.019.324 2.276.723 4.537.973 6.825a24 24 0 0 1 .042 3.445c-.012.366-.185 1.855.529 1.754.716-.1.283-1.647.201-2.082m-2.298 1.916c-.104-.794-.128-1.598-.195-2.395a42 42 0 0 0-.616-4.494c-.007-.039-.073-.03-.069.009.162 1.553.335 3.104.49 4.658a21 21 0 0 1 .161 2.253c-.005.663-.332 1.428.123 2a.13.13 0 0 0 .202-.026c.405-.598-.011-1.363-.096-2.005m-2.651 1.43a22 22 0 0 0-.357-2.697.031.031 0 0 0-.061.008c.054.916.135 1.828.193 2.743.06.917.07 1.842.182 2.755a.04.04 0 0 0 .078 0 15.7 15.7 0 0 0-.035-2.809m-67.263-12.677c-.23-.694-.366-1.437-.622-2.117a4.8 4.8 0 0 0-.554-.862c-.195-.31-.35-.653-.522-.976-.735-1.374-1.441-2.764-2.151-4.15-.024-.047-.104-.015-.086.035.51 1.427 1.027 2.852 1.511 4.288.117.348.25.694.353 1.047a7 7 0 0 0 .253 1.032c.31.685.79 1.32 1.151 1.984 1.454 2.68 2.631 5.478 3.921 8.24.017.035.08.01.064-.027-1.128-2.83-2.36-5.601-3.318-8.494m-24.95 6.69c-.46-1.104-.815-2.25-1.215-3.378-.8-2.262-1.583-4.543-2.507-6.758a.043.043 0 0 0-.083.023 46 46 0 0 0 2.26 6.95c.45 1.116.956 2.209 1.401 3.327a23.4 23.4 0 0 0 1.39 3.212.063.063 0 0 0 .114-.048 35 35 0 0 0-1.36-3.328m.748-96.902c-.009-.004-.017.01-.008.014l.255.128c.01.004.017-.01.008-.014Zm.802 2.997a25.4 25.4 0 0 0-4.624-2.002c-.038-.013-.054.047-.017.06a39 39 0 0 1 4.617 1.983c.027.013.05-.025.024-.04m-1.305 2.609c-.633-.27-1.28-.512-1.921-.763-.02-.007-.027.023-.009.03.636.262 1.268.536 1.912.777.024.009.042-.033.018-.043m.889 3.034a3.8 3.8 0 0 1-1.522-.495c-.044-.026-.083.04-.04.067a3 3 0 0 0 1.562.475c.03 0 .029-.043 0-.047m-29.98-5.109c-.375-.227-.759-.437-1.142-.65a.027.027 0 0 0-.028.048c.38.218.759.438 1.147.642a.023.023 0 0 0 .023-.04m16.744-63.201a17.4 17.4 0 0 0-2.2-1.686 43 43 0 0 0-2.405-1.513.031.031 0 0 0-.031.054c.783.51 1.547 1.047 2.31 1.589.755.537 1.495 1.122 2.284 1.61a.035.035 0 0 0 .042-.054m0 2.683a7 7 0 0 0-.946-.907 20 20 0 0 0-1.001-.785 36 36 0 0 0-2.179-1.46c-.026-.016-.047.023-.024.04.704.535 1.389 1.093 2.075 1.649q.498.4 1 .795a8.5 8.5 0 0 0 1.023.736c.045.025.081-.031.052-.068m-.273 2.442c-.702-.544-1.444-1.033-2.176-1.535-.042-.029-.08.039-.04.067.723.512 1.436 1.037 2.188 1.505.022.014.05-.02.028-.037"/></svg>