<svg xmlns="http://www.w3.org/2000/svg" data-name="Layer 5" viewBox="0 0 203.649 245.958"><path fill="currentColor" d="M151.527 32.747a2.1 2.1 0 0 0-.868.04c-.278.076-.564.126-.847.185-.525.11-1.054.21-1.58.312a.45.45 0 0 0-.367.37.6.6 0 0 0 .014.302.6.6 0 0 0 .056.12 1 1 0 0 0 .082.091.34.34 0 0 0 .296.17 3.3 3.3 0 0 0 .774-.239q.38-.126.769-.221a7 7 0 0 1 .749-.14 4 4 0 0 0 .83-.09.4.4 0 0 0 .151-.115.38.38 0 0 0 .257-.247.412.412 0 0 0-.316-.538m-5.712 1.257a.75.75 0 0 0-.747-.093 1.04 1.04 0 0 0-.653.615.8.8 0 0 0-.023.55 1.68 1.68 0 0 0-1.516.636c-.205.232-.405.47-.609.703a9 9 0 0 0-1.463.81 6.2 6.2 0 0 0-1.277 1.207 63 63 0 0 1-1.435 1.648 12 12 0 0 1-1.546 1.427 4.36 4.36 0 0 0-1.426 1.56c-.56 1.386-1.855 2.345-2.628 3.62a.025.025 0 0 0 .039.03c1.032-1.023 1.745-2.415 2.998-3.185 1.14-.7 1.607-2.13 2.47-3.1a10.3 10.3 0 0 1 1.453-1.47c.496-.368 1.03-.677 1.542-1.02a11.4 11.4 0 0 1 1.624-.942c.325-.148.647-.281.966-.423a1.2 1.2 0 0 0 .345-.1 2.3 2.3 0 0 0 .44-.252 1.6 1.6 0 0 0 .561-.753.25.25 0 0 0-.074-.232q.054-.019.108-.033a1.8 1.8 0 0 0 .44-.187c.288-.168.716-.68.411-1.016"/><path fill="currentColor" d="M146.578 37.327c-4.306-.144-7.692 3.466-9.943 6.74a21.9 21.9 0 0 0-3.073 5.948 19 19 0 0 0-.622 3.53 18 18 0 0 0-.102 3.642 5.1 5.1 0 0 0 .363 1.652c.316.663.855 1.16.883 1.946a1.228 1.228 0 0 1-1.649 1.318 6 6 0 0 0-.276-.695c-.315-.638-.546-1.306-.807-1.966a.31.31 0 0 0-.605.084l-.008-.001a7.5 7.5 0 0 0 .875 3.633c.644 1.086 1.21 2.203 1.954 3.229a56.5 56.5 0 0 0 4.967 5.913c.024.026.072-.009.05-.038a60 60 0 0 1-4.264-6.022 19 19 0 0 1-1.607-3.277c-.086-.259-.158-.506-.238-.75a1.25 1.25 0 0 0 1.342-.212c.648-.631.373-1.515.22-2.274a16.2 16.2 0 0 1-.315-3.945 18.9 18.9 0 0 1 1.68-7.718 29.2 29.2 0 0 1 4.187-6.302 15 15 0 0 1 6.997-4.366.036.036 0 0 0-.01-.07m28.352 10.031a18 18 0 0 0-1.574-2.599 16 16 0 0 0-1.832-2.386 15.6 15.6 0 0 0-2.152-2.193 22.97 22.97 0 0 0-13.131-4.069 40 40 0 0 0-4.357.309 20.4 20.4 0 0 0-4.164.83.018.018 0 0 0 .01.034c1.61-.228 3.25-.495 4.878-.57a34 34 0 0 1 4.358.21 26 26 0 0 1 8.426 2.026 20.7 20.7 0 0 1 3.523 2.013 16 16 0 0 1 2.962 2.399 9.4 9.4 0 0 1 2.045 3.426c.379 1.19 1.02 2.328 1.329 3.529a.054.054 0 0 0 .105-.014 8.1 8.1 0 0 0-.426-2.945"/><path fill="currentColor" d="M175.485 53.266a18.4 18.4 0 0 0-.97-3.197 17.3 17.3 0 0 0-1.234-2.982c-.013-.024-.057-.007-.046.02a26 26 0 0 1 1.051 2.887 19 19 0 0 1 .366 3.25c.103 1.025.12 2.048.123 3.077a16.6 16.6 0 0 1-.139 3.238c-.724 3.876-3.057 7.271-5.644 10.148a.025.025 0 0 0 .035.035c3.22-2.528 5.013-6.309 5.938-10.22a23.5 23.5 0 0 0 .639-3.067 14 14 0 0 0-.119-3.189m-4.769-8.65a6.97 6.97 0 0 0-3.778-2.76 37.93 37.93 0 0 0-20.158-1.073 7.5 7.5 0 0 0-3.141 1.325 8.4 8.4 0 0 0-2.18 1.544 7.44 7.44 0 0 0-2.096 4.42 60.8 60.8 0 0 0-.087 13.147c.286 3.433.6 7.368 3.32 9.832 2.976 2.695 7.212 2.656 10.985 2.649 2.176-.005 4.357-.007 6.533-.08a7.3 7.3 0 0 0 4.943-1.678c2.473-2.29 3.086-6.239 3.836-9.35a124 124 0 0 0 2.424-12.757 7.94 7.94 0 0 0-.6-5.219m-1.077 9.09q-.486 2.814-1.093 5.605-.606 2.79-1.331 5.552a20.8 20.8 0 0 1-1.514 4.408 5.46 5.46 0 0 1-3.31 2.96 23.6 23.6 0 0 1-5.816.327c-1.907.02-3.817.044-5.723-.002a15.4 15.4 0 0 1-5.265-.877 7.28 7.28 0 0 1-3.892-3.268 13.5 13.5 0 0 1-1.326-4.911 73.3 73.3 0 0 1-.35-13.103c.123-2.019.277-4.017 1.586-5.656a12 12 0 0 1 2.607-2.293 14.6 14.6 0 0 1 2.658-.81 35 35 0 0 1 5.715-.812 36.3 36.3 0 0 1 11.157 1.042 15.7 15.7 0 0 1 4.54 1.77 4.68 4.68 0 0 1 2.148 4.39 41 41 0 0 1-.79 5.679"/><path fill="currentColor" d="m143.183 47.864-.015-.026a1.5 1.5 0 0 0-.143-.184 1.3 1.3 0 0 0-.187-.146l-.022-.013a.96.96 0 0 0-.447-.123 1 1 0 0 0-.109-.021 1 1 0 0 0-.227.033q-.104.038-.204.087a.83.83 0 0 0-.307.3 1.3 1.3 0 0 0-.105.234.3.3 0 0 0-.015.056 1.2 1.2 0 0 0-.029.262 1 1 0 0 0 .122.455l.014.025.016.038.01.02.006.008c.02.029.066.085.068.087l.067.086.014.016.004.003c.035.03.132.105.171.132l.01.007.009.005.004.002c.02.01.182.078.203.085a1 1 0 0 0 .131.02 1 1 0 0 0 .135.016l.222-.03a.6.6 0 0 0 .284-.15.4.4 0 0 0 .11-.11l.069-.054a.95.95 0 0 0 .232-.401.7.7 0 0 0 .033-.261.96.96 0 0 0-.124-.458m3.304-1.534-.015-.026a1.5 1.5 0 0 0-.144-.184 1.3 1.3 0 0 0-.187-.146l-.021-.013a.96.96 0 0 0-.447-.122 1 1 0 0 0-.109-.022 1 1 0 0 0-.227.034q-.105.039-.204.086a.83.83 0 0 0-.308.3 1.3 1.3 0 0 0-.104.234.3.3 0 0 0-.015.056 1.2 1.2 0 0 0-.03.262 1 1 0 0 0 .123.455l.013.025.017.039.01.019.006.008c.02.029.066.085.067.087-.002-.004.044.06.067.087l.015.015.004.003c.035.03.132.105.171.132l.009.007.01.005.004.002c.02.01.182.079.202.086a1 1 0 0 0 .132.02 1 1 0 0 0 .135.015l.222-.03a.6.6 0 0 0 .283-.15.4.4 0 0 0 .111-.11l.069-.054a.95.95 0 0 0 .231-.4.7.7 0 0 0 .034-.262.96.96 0 0 0-.124-.458m-.407 4.194-.016-.026a1.5 1.5 0 0 0-.143-.184 1.3 1.3 0 0 0-.187-.146l-.022-.014a.96.96 0 0 0-.447-.122 1 1 0 0 0-.108-.022 1 1 0 0 0-.227.034q-.106.038-.205.087a.83.83 0 0 0-.307.3 1.3 1.3 0 0 0-.105.234.3.3 0 0 0-.015.055 1.2 1.2 0 0 0-.029.263 1 1 0 0 0 .123.454l.013.026.016.038.01.02.006.007c.021.03.066.086.068.087-.003-.003.044.06.067.087l.014.015.004.004c.035.03.133.104.171.132l.01.006.009.006.004.002c.02.01.182.078.203.085a1 1 0 0 0 .131.02 1 1 0 0 0 .135.015l.222-.03a.6.6 0 0 0 .284-.149.4.4 0 0 0 .11-.11l.069-.055a.95.95 0 0 0 .232-.4.7.7 0 0 0 .033-.261.96.96 0 0 0-.124-.458m3.767-1.671-.016-.026a1.5 1.5 0 0 0-.143-.184 1.3 1.3 0 0 0-.187-.147l-.022-.013a.96.96 0 0 0-.446-.122 1 1 0 0 0-.109-.022 1 1 0 0 0-.227.034q-.105.038-.205.087a.83.83 0 0 0-.307.3 1.3 1.3 0 0 0-.104.234.3.3 0 0 0-.015.055 1.2 1.2 0 0 0-.03.262 1 1 0 0 0 .123.455l.013.025v.001l.017.038.01.02.006.007c.02.03.066.085.067.087-.003-.003.044.06.067.087l.015.015.003.003c.036.031.133.105.172.133l.009.006.01.006.004.002c.02.009.182.078.202.085a1 1 0 0 0 .132.02 1 1 0 0 0 .134.015l.222-.03a.6.6 0 0 0 .284-.149.4.4 0 0 0 .11-.11l.07-.055a.95.95 0 0 0 .231-.4.7.7 0 0 0 .034-.261.96.96 0 0 0-.124-.458m3.009-1.978-.015-.026a1.5 1.5 0 0 0-.144-.184 1.3 1.3 0 0 0-.187-.146l-.021-.013a.96.96 0 0 0-.447-.122 1 1 0 0 0-.109-.022 1 1 0 0 0-.227.034q-.105.038-.204.086a.83.83 0 0 0-.308.3 1.3 1.3 0 0 0-.104.234.3.3 0 0 0-.015.056 1.2 1.2 0 0 0-.03.262 1 1 0 0 0 .123.455l.013.025.017.039.01.019.006.008c.02.029.066.085.067.087-.002-.004.045.06.068.087l.014.015.004.003c.035.03.132.105.171.132l.009.007.01.005.004.002c.02.01.182.079.202.086a1 1 0 0 0 .132.02 1 1 0 0 0 .135.015l.222-.03a.6.6 0 0 0 .283-.15.4.4 0 0 0 .111-.11l.069-.054a.95.95 0 0 0 .232-.4.7.7 0 0 0 .033-.262.96.96 0 0 0-.124-.458m.252-3.669-.015-.026a1.5 1.5 0 0 0-.143-.184 1.3 1.3 0 0 0-.187-.146l-.022-.014a.96.96 0 0 0-.446-.122 1 1 0 0 0-.11-.022 1 1 0 0 0-.226.034q-.105.038-.205.087a.83.83 0 0 0-.307.3 1.3 1.3 0 0 0-.105.234.3.3 0 0 0-.015.055 1.2 1.2 0 0 0-.029.263 1 1 0 0 0 .123.454l.013.026.016.038.01.02.006.007c.021.03.066.086.068.087-.003-.003.044.06.067.087l.014.015.004.004c.036.03.133.104.171.132l.01.006.01.006.003.002c.02.01.182.078.203.085a1 1 0 0 0 .131.02 1 1 0 0 0 .135.015l.222-.03a.6.6 0 0 0 .284-.149.4.4 0 0 0 .11-.11l.069-.055a.95.95 0 0 0 .232-.4.7.7 0 0 0 .033-.261.96.96 0 0 0-.124-.458m-3.261 1.864-.016-.026a1.5 1.5 0 0 0-.143-.184 1.3 1.3 0 0 0-.187-.147l-.022-.013a.96.96 0 0 0-.446-.122 1 1 0 0 0-.109-.022 1 1 0 0 0-.227.034q-.105.038-.205.087a.83.83 0 0 0-.307.299 1.3 1.3 0 0 0-.104.235.3.3 0 0 0-.015.055 1.2 1.2 0 0 0-.03.262 1 1 0 0 0 .123.455l.013.025.017.04.01.018.006.008c.02.03.066.085.067.087l.067.087.015.015.003.003c.036.031.133.105.172.133l.009.006.01.006.004.002c.02.009.182.078.202.085a1 1 0 0 0 .132.02 1 1 0 0 0 .134.015l.222-.03a.6.6 0 0 0 .284-.149.4.4 0 0 0 .11-.11l.07-.055a.95.95 0 0 0 .231-.4.7.7 0 0 0 .034-.262.96.96 0 0 0-.124-.457m-2.798-2.097-.015-.026a1.5 1.5 0 0 0-.144-.184 1.3 1.3 0 0 0-.187-.146l-.021-.014a.96.96 0 0 0-.447-.122 1 1 0 0 0-.109-.022 1 1 0 0 0-.227.034 2 2 0 0 0-.204.087.83.83 0 0 0-.308.3 1.3 1.3 0 0 0-.104.234.3.3 0 0 0-.015.055 1.2 1.2 0 0 0-.03.263 1 1 0 0 0 .123.454l.013.026.017.038.01.02.006.007c.02.03.066.086.067.087-.003-.003.044.06.067.087l.015.015.003.004c.036.03.133.104.172.132l.009.006.01.006.004.002c.02.01.182.078.202.085a1 1 0 0 0 .132.02 1 1 0 0 0 .135.015l.222-.03a.6.6 0 0 0 .283-.149.4.4 0 0 0 .111-.11l.068-.055a.95.95 0 0 0 .232-.4.7.7 0 0 0 .034-.261.96.96 0 0 0-.124-.458m9.843-.359-.015-.026a1.5 1.5 0 0 0-.143-.184 1.3 1.3 0 0 0-.187-.147l-.022-.013a.96.96 0 0 0-.447-.122 1 1 0 0 0-.109-.022 1 1 0 0 0-.227.034q-.104.038-.204.087a.83.83 0 0 0-.307.299 1.3 1.3 0 0 0-.105.235.3.3 0 0 0-.015.055 1.2 1.2 0 0 0-.029.262 1 1 0 0 0 .122.455l.014.025.016.04.01.018.006.008c.02.03.066.085.067.087-.002-.003.045.06.068.087l.014.015.004.003c.035.031.132.105.171.133l.01.006.009.006.004.002c.02.009.182.078.203.085a1 1 0 0 0 .131.02 1 1 0 0 0 .135.015l.222-.03a.6.6 0 0 0 .284-.149.4.4 0 0 0 .11-.11l.069-.055a.95.95 0 0 0 .232-.4.7.7 0 0 0 .033-.261.96.96 0 0 0-.124-.458m2.776 1.467-.015-.026a1.5 1.5 0 0 0-.143-.184 1.3 1.3 0 0 0-.187-.146l-.022-.014a.96.96 0 0 0-.446-.122 1 1 0 0 0-.11-.022 1 1 0 0 0-.226.034q-.105.038-.205.087a.83.83 0 0 0-.307.3 1.3 1.3 0 0 0-.105.234.3.3 0 0 0-.015.055 1.2 1.2 0 0 0-.029.263 1 1 0 0 0 .123.454l.013.026.016.038.011.02.006.007c.02.03.065.086.067.087-.003-.003.044.06.067.087l.014.016.004.003c.036.03.133.104.172.132l.009.006.01.006.003.002c.02.01.182.078.203.085a1 1 0 0 0 .131.02 1 1 0 0 0 .135.016l.222-.03a.6.6 0 0 0 .284-.15.4.4 0 0 0 .11-.11l.07-.054a.95.95 0 0 0 .231-.401.7.7 0 0 0 .033-.261.96.96 0 0 0-.124-.458m3.203-1.108-.014-.026a1.5 1.5 0 0 0-.144-.184 1.3 1.3 0 0 0-.187-.146l-.021-.014a.96.96 0 0 0-.447-.122 1 1 0 0 0-.109-.022 1 1 0 0 0-.227.034 2 2 0 0 0-.204.087.83.83 0 0 0-.308.3 1.3 1.3 0 0 0-.104.234.3.3 0 0 0-.015.055 1.2 1.2 0 0 0-.03.263 1 1 0 0 0 .123.454l.013.026.017.038.01.02.006.007c.02.03.066.086.067.087-.003-.003.044.06.067.087l.015.015.004.004c.035.03.132.104.17.132l.01.006.01.006.004.002c.02.01.182.078.202.085a1 1 0 0 0 .132.02 1 1 0 0 0 .135.015l.222-.03a.6.6 0 0 0 .283-.149.4.4 0 0 0 .111-.11l.068-.055a.95.95 0 0 0 .232-.4.7.7 0 0 0 .034-.261.96.96 0 0 0-.124-.458m2.485 4.616-.015-.026a1.5 1.5 0 0 0-.144-.184 1.3 1.3 0 0 0-.187-.147l-.021-.013a.96.96 0 0 0-.447-.122 1 1 0 0 0-.109-.022 1 1 0 0 0-.227.034q-.105.038-.204.087a.83.83 0 0 0-.308.3 1.3 1.3 0 0 0-.104.234.3.3 0 0 0-.015.055 1.2 1.2 0 0 0-.03.263 1 1 0 0 0 .123.454l.013.025v.001l.017.038.01.02.006.007c.02.03.066.085.067.087-.002-.003.045.06.068.087l.014.015.004.004c.035.03.132.104.171.132l.009.006.01.006.004.002c.02.009.182.078.202.085a1 1 0 0 0 .132.02 1 1 0 0 0 .135.015l.222-.03a.6.6 0 0 0 .283-.149.4.4 0 0 0 .111-.11l.069-.055a.95.95 0 0 0 .232-.4.7.7 0 0 0 .033-.261.96.96 0 0 0-.124-.458m-2.982-1.259-.016-.026a1.5 1.5 0 0 0-.143-.184 1.3 1.3 0 0 0-.187-.146l-.021-.013a.96.96 0 0 0-.447-.122 1 1 0 0 0-.109-.022 1 1 0 0 0-.227.034q-.105.039-.205.086a.83.83 0 0 0-.307.3 1.3 1.3 0 0 0-.104.234.3.3 0 0 0-.015.056 1.2 1.2 0 0 0-.03.262 1 1 0 0 0 .123.455l.013.025.017.039.01.019.006.008c.02.029.066.085.067.087-.003-.004.044.06.067.087l.015.015.003.003c.036.03.133.105.172.132l.009.007.01.005.004.002c.02.01.182.079.202.086a1 1 0 0 0 .132.02 1 1 0 0 0 .135.015l.221-.03a.6.6 0 0 0 .284-.15.4.4 0 0 0 .111-.11l.068-.054a.95.95 0 0 0 .232-.4.7.7 0 0 0 .034-.262.96.96 0 0 0-.124-.458m-2.951 1.259-.016-.026a1.5 1.5 0 0 0-.143-.184 1.3 1.3 0 0 0-.187-.147l-.021-.013a.96.96 0 0 0-.447-.122 1 1 0 0 0-.109-.022 1 1 0 0 0-.227.034 2 2 0 0 0-.205.087.83.83 0 0 0-.307.3 1.3 1.3 0 0 0-.104.234.3.3 0 0 0-.015.055 1.2 1.2 0 0 0-.03.263 1 1 0 0 0 .123.454l.013.025v.001l.017.038.01.02.006.007c.02.03.066.085.067.087-.003-.003.044.06.067.087l.015.015.003.004c.036.03.133.104.172.132l.009.006.01.006.004.002c.02.009.182.078.202.085a1 1 0 0 0 .132.02 1 1 0 0 0 .135.015l.221-.03a.6.6 0 0 0 .284-.149.4.4 0 0 0 .111-.11l.068-.055a.95.95 0 0 0 .232-.4.7.7 0 0 0 .034-.261.96.96 0 0 0-.124-.458m5.385 4.481-.015-.026a1.5 1.5 0 0 0-.143-.184 1.3 1.3 0 0 0-.187-.147l-.022-.013a.96.96 0 0 0-.447-.122 1 1 0 0 0-.109-.022 1 1 0 0 0-.227.034q-.104.038-.204.087a.83.83 0 0 0-.307.3 1.3 1.3 0 0 0-.105.234.3.3 0 0 0-.015.055 1.2 1.2 0 0 0-.029.263 1 1 0 0 0 .122.454l.014.025v.001l.016.038.01.02.006.007c.02.03.066.085.067.087-.002-.003.045.06.068.087l.014.015.004.003c.035.031.132.105.171.133l.01.006.009.006.004.002c.02.009.182.078.203.085a1 1 0 0 0 .131.02 1 1 0 0 0 .135.015l.222-.03a.6.6 0 0 0 .284-.149.4.4 0 0 0 .11-.11l.069-.055a.95.95 0 0 0 .232-.4.7.7 0 0 0 .033-.261.96.96 0 0 0-.124-.458m1.937 8.853-.015-.026a1.5 1.5 0 0 0-.143-.184 1.3 1.3 0 0 0-.187-.146l-.022-.014a.96.96 0 0 0-.446-.122 1 1 0 0 0-.11-.022 1 1 0 0 0-.226.034q-.105.038-.205.087a.83.83 0 0 0-.307.3 1.3 1.3 0 0 0-.105.234.3.3 0 0 0-.015.055 1.2 1.2 0 0 0-.029.263 1 1 0 0 0 .123.454l.013.026.016.038.01.02.006.007c.021.03.066.086.068.087-.003-.003.044.06.067.087l.014.016.004.003c.036.03.133.104.171.132l.01.006.01.006.003.002c.02.01.182.078.203.085a1 1 0 0 0 .131.02 1 1 0 0 0 .135.016l.222-.03a.6.6 0 0 0 .284-.15.4.4 0 0 0 .11-.11l.069-.055a.95.95 0 0 0 .232-.4.7.7 0 0 0 .033-.261.96.96 0 0 0-.124-.458m-3.624 4.711-.015-.026a1.5 1.5 0 0 0-.143-.184 1.3 1.3 0 0 0-.187-.146l-.022-.013a.96.96 0 0 0-.446-.122 1 1 0 0 0-.11-.022 1 1 0 0 0-.226.034 2 2 0 0 0-.205.086.83.83 0 0 0-.307.3 1.3 1.3 0 0 0-.105.234.3.3 0 0 0-.015.056 1.2 1.2 0 0 0-.029.262 1 1 0 0 0 .123.455l.013.025.016.039.01.019.006.008c.021.029.066.085.068.087-.003-.004.044.06.067.087l.014.015.004.003c.035.03.133.105.171.132l.01.007.01.005.003.002c.02.01.182.079.203.086a1 1 0 0 0 .131.02 1 1 0 0 0 .135.015l.222-.03a.6.6 0 0 0 .284-.15.4.4 0 0 0 .11-.11l.069-.054a.95.95 0 0 0 .232-.4.7.7 0 0 0 .033-.262.96.96 0 0 0-.124-.458m-.466 3.639-.015-.026a1.5 1.5 0 0 0-.143-.184 1.3 1.3 0 0 0-.187-.146l-.022-.013a.96.96 0 0 0-.446-.123 1 1 0 0 0-.11-.021 1 1 0 0 0-.226.033q-.105.038-.205.087a.83.83 0 0 0-.307.3 1.3 1.3 0 0 0-.105.234.3.3 0 0 0-.015.056 1.2 1.2 0 0 0-.029.262 1 1 0 0 0 .123.455l.013.025.016.038.01.02.006.008c.021.029.066.085.068.087l.067.086.014.016.004.003c.036.03.133.105.171.132l.01.006.01.006.003.002c.02.01.182.078.203.085a1 1 0 0 0 .131.02 1 1 0 0 0 .135.016l.222-.03a.6.6 0 0 0 .284-.15.4.4 0 0 0 .11-.11l.069-.054a.95.95 0 0 0 .232-.401.7.7 0 0 0 .033-.261.96.96 0 0 0-.124-.458m-2.988-1.977-.015-.026a1.5 1.5 0 0 0-.143-.184 1.3 1.3 0 0 0-.187-.147l-.022-.013a.96.96 0 0 0-.446-.122 1 1 0 0 0-.11-.022 1 1 0 0 0-.226.034q-.105.038-.205.087a.83.83 0 0 0-.307.299 1.3 1.3 0 0 0-.105.234.3.3 0 0 0-.015.056 1.2 1.2 0 0 0-.029.262 1 1 0 0 0 .123.455l.013.025.016.039.011.019.006.008c.02.03.065.085.067.087-.003-.003.044.06.067.087l.014.015.004.003c.036.03.133.105.172.133l.009.006.01.005.003.002c.02.01.182.079.203.086a1 1 0 0 0 .131.02 1 1 0 0 0 .135.015l.222-.03a.6.6 0 0 0 .284-.149.4.4 0 0 0 .11-.11l.07-.055a.95.95 0 0 0 .231-.4.7.7 0 0 0 .033-.262.96.96 0 0 0-.124-.457m-2.635-1.662-.015-.026a1.5 1.5 0 0 0-.143-.184 1.3 1.3 0 0 0-.187-.146l-.022-.013a.96.96 0 0 0-.446-.122 1 1 0 0 0-.11-.022 1 1 0 0 0-.226.034q-.105.038-.205.086a.83.83 0 0 0-.307.3 1.3 1.3 0 0 0-.105.234.3.3 0 0 0-.014.056 1.2 1.2 0 0 0-.03.262 1 1 0 0 0 .123.455l.013.025.017.039.01.019.006.008c.02.029.065.085.067.087-.003-.004.044.06.067.087l.015.015.003.003c.036.03.133.105.172.132l.009.007.01.005.004.002c.02.01.181.079.202.086a1 1 0 0 0 .131.02 1 1 0 0 0 .135.015l.222-.03a.6.6 0 0 0 .284-.15.4.4 0 0 0 .11-.11l.07-.054a.95.95 0 0 0 .231-.4.7.7 0 0 0 .034-.262.96.96 0 0 0-.125-.458m-.968 3.163-.015-.026a1.5 1.5 0 0 0-.144-.184 1.3 1.3 0 0 0-.187-.146l-.021-.014a.96.96 0 0 0-.447-.122 1 1 0 0 0-.109-.022 1 1 0 0 0-.227.034 2 2 0 0 0-.204.087.83.83 0 0 0-.308.3 1.3 1.3 0 0 0-.104.234.3.3 0 0 0-.015.055 1.2 1.2 0 0 0-.03.263 1 1 0 0 0 .123.454l.013.026.017.038.01.02.006.007c.02.03.066.086.067.087-.003-.003.044.06.067.087l.015.016.003.003c.036.03.133.104.172.132l.009.006.01.006.004.002c.02.01.182.078.202.085a1 1 0 0 0 .132.02 1 1 0 0 0 .135.016l.222-.03a.6.6 0 0 0 .283-.15.4.4 0 0 0 .111-.11l.068-.055a.95.95 0 0 0 .232-.4.7.7 0 0 0 .034-.261.96.96 0 0 0-.124-.458m-1.988-5.14-.015-.026a1.5 1.5 0 0 0-.144-.184 1.3 1.3 0 0 0-.187-.147l-.021-.013a.96.96 0 0 0-.447-.122 1 1 0 0 0-.109-.022 1 1 0 0 0-.227.034q-.104.038-.204.087a.83.83 0 0 0-.308.299 1.3 1.3 0 0 0-.104.235.3.3 0 0 0-.015.055 1.2 1.2 0 0 0-.03.262 1 1 0 0 0 .123.455l.013.025v.001l.017.038.01.02.006.007c.02.03.066.085.067.087-.002-.003.045.06.068.087l.014.015.004.003c.035.031.132.105.171.133l.01.006.009.006.004.002c.02.009.182.078.203.085a1 1 0 0 0 .131.02 1 1 0 0 0 .135.015l.222-.03a.6.6 0 0 0 .283-.149.4.4 0 0 0 .111-.11l.069-.055a.95.95 0 0 0 .232-.4.7.7 0 0 0 .033-.261.96.96 0 0 0-.124-.458m-2.906-1.305-.015-.026a1.5 1.5 0 0 0-.143-.184 1.3 1.3 0 0 0-.187-.147l-.022-.013a.96.96 0 0 0-.447-.122 1 1 0 0 0-.109-.022 1 1 0 0 0-.227.034 2 2 0 0 0-.204.087.83.83 0 0 0-.307.299 1.3 1.3 0 0 0-.105.235.3.3 0 0 0-.015.055 1.2 1.2 0 0 0-.029.262 1 1 0 0 0 .122.455l.014.025.016.04.01.018.006.008c.02.03.066.085.067.087-.002-.003.045.06.068.087l.014.015.004.003c.035.031.132.105.171.133l.01.006.009.006.004.002c.02.009.182.078.203.085a1 1 0 0 0 .131.02 1 1 0 0 0 .135.015l.222-.03a.6.6 0 0 0 .284-.149.4.4 0 0 0 .11-.11l.069-.055a.95.95 0 0 0 .232-.4.7.7 0 0 0 .033-.262.96.96 0 0 0-.124-.457m1.532 4.468-.016-.027a1.5 1.5 0 0 0-.143-.184 1.3 1.3 0 0 0-.187-.146l-.022-.013a.96.96 0 0 0-.446-.122 1 1 0 0 0-.109-.022 1 1 0 0 0-.227.034q-.105.038-.205.086a.83.83 0 0 0-.307.3 1.3 1.3 0 0 0-.104.234.3.3 0 0 0-.015.056 1.2 1.2 0 0 0-.03.262 1 1 0 0 0 .123.455l.013.025.017.039.01.019.006.008c.02.029.066.085.067.087-.003-.004.044.06.067.087l.015.015.003.003c.036.03.133.105.172.133l.009.006.01.005.004.002c.02.01.182.079.202.086a1 1 0 0 0 .132.02 1 1 0 0 0 .135.015l.221-.03a.6.6 0 0 0 .284-.15.4.4 0 0 0 .11-.11l.07-.054a.95.95 0 0 0 .231-.4.7.7 0 0 0 .034-.262.96.96 0 0 0-.124-.458m-3.108 1.978-.015-.026a1.5 1.5 0 0 0-.143-.184 1.3 1.3 0 0 0-.187-.146l-.022-.014a.96.96 0 0 0-.446-.122 1 1 0 0 0-.11-.022 1 1 0 0 0-.226.034q-.106.038-.205.087a.83.83 0 0 0-.307.3 1.3 1.3 0 0 0-.105.234.3.3 0 0 0-.015.055 1.2 1.2 0 0 0-.029.263 1 1 0 0 0 .123.454l.013.026.016.038.01.02.006.007c.021.03.066.086.068.087-.003-.003.044.06.067.087l.014.016.004.003c.035.03.133.104.171.132l.01.006.01.006.003.002c.02.01.182.078.203.085a1 1 0 0 0 .131.02 1 1 0 0 0 .135.016l.222-.03a.6.6 0 0 0 .284-.15.4.4 0 0 0 .11-.11l.069-.055a.95.95 0 0 0 .232-.4.7.7 0 0 0 .033-.261.96.96 0 0 0-.124-.458m-2.546-2.49-.015-.026a1.5 1.5 0 0 0-.144-.184 1.3 1.3 0 0 0-.187-.147l-.021-.013a.96.96 0 0 0-.447-.122 1 1 0 0 0-.109-.022 1 1 0 0 0-.227.034 2 2 0 0 0-.204.087.83.83 0 0 0-.308.3 1.3 1.3 0 0 0-.104.234.3.3 0 0 0-.015.055 1.2 1.2 0 0 0-.03.262 1 1 0 0 0 .123.455l.013.025v.001l.017.038.01.02.006.007c.02.03.066.085.067.087-.003-.003.044.06.067.087l.015.015.003.003c.036.031.133.105.172.133l.009.006.01.006.004.002c.02.009.182.078.202.085a1 1 0 0 0 .132.02 1 1 0 0 0 .135.015l.222-.03a.6.6 0 0 0 .283-.149.4.4 0 0 0 .111-.11l.068-.055a.95.95 0 0 0 .232-.4.7.7 0 0 0 .034-.261.96.96 0 0 0-.124-.458m5.807 3.675-.015-.026a1.5 1.5 0 0 0-.144-.184 1.3 1.3 0 0 0-.187-.146l-.021-.013a.96.96 0 0 0-.447-.123 1 1 0 0 0-.109-.021 1 1 0 0 0-.227.033 2 2 0 0 0-.204.087.83.83 0 0 0-.308.3 1.3 1.3 0 0 0-.104.234.3.3 0 0 0-.015.056 1.2 1.2 0 0 0-.03.262 1 1 0 0 0 .123.455l.013.025.017.038.01.02.006.008c.02.029.066.085.067.087-.002-.004.045.06.068.087l.014.015.004.003c.035.03.132.105.171.132l.009.007.01.005.004.002c.02.01.182.078.202.085a1 1 0 0 0 .132.02 1 1 0 0 0 .135.016l.222-.03a.6.6 0 0 0 .283-.15.4.4 0 0 0 .111-.11l.069-.054a.95.95 0 0 0 .232-.401.7.7 0 0 0 .033-.261.96.96 0 0 0-.124-.458m-8.703-5.652-.016-.027a1.5 1.5 0 0 0-.143-.184 1.3 1.3 0 0 0-.187-.146l-.021-.013a.96.96 0 0 0-.447-.122 1 1 0 0 0-.109-.022 1 1 0 0 0-.227.034q-.105.039-.205.086a.83.83 0 0 0-.307.3 1.3 1.3 0 0 0-.104.234.3.3 0 0 0-.015.056 1.2 1.2 0 0 0-.03.262 1 1 0 0 0 .123.455l.013.025.017.039.01.019.006.008c.02.029.066.085.067.087-.003-.004.044.06.067.087l.015.015.003.003c.036.03.133.105.172.132l.009.007.01.005.004.002c.02.01.182.079.202.086a1 1 0 0 0 .132.02 1 1 0 0 0 .135.015l.221-.03a.6.6 0 0 0 .284-.15.4.4 0 0 0 .111-.11l.068-.054a.95.95 0 0 0 .232-.4.7.7 0 0 0 .034-.262.96.96 0 0 0-.124-.458m.621-3.406-.015-.026a1.5 1.5 0 0 0-.144-.184 1.3 1.3 0 0 0-.186-.146l-.022-.014a.96.96 0 0 0-.447-.122 1 1 0 0 0-.109-.022 1 1 0 0 0-.227.034q-.104.038-.204.087a.83.83 0 0 0-.308.3 1.3 1.3 0 0 0-.104.234.3.3 0 0 0-.015.055 1.2 1.2 0 0 0-.03.263 1 1 0 0 0 .123.454l.013.026.017.038.01.02.006.007c.02.03.066.086.067.087-.002-.003.045.06.068.087l.014.016.004.003c.035.03.132.104.171.132l.01.006.009.006.004.002c.02.01.182.078.203.085a1 1 0 0 0 .131.02 1 1 0 0 0 .135.016l.222-.03a.6.6 0 0 0 .283-.15.4.4 0 0 0 .111-.11l.069-.055a.95.95 0 0 0 .232-.4.7.7 0 0 0 .033-.261.96.96 0 0 0-.124-.458m2.683 1.977-.016-.025a1.5 1.5 0 0 0-.143-.184 1.3 1.3 0 0 0-.187-.147l-.022-.013a.96.96 0 0 0-.446-.122 1 1 0 0 0-.11-.022 1 1 0 0 0-.226.034q-.105.039-.205.086a.83.83 0 0 0-.307.3 1.3 1.3 0 0 0-.105.234.3.3 0 0 0-.014.056 1.2 1.2 0 0 0-.03.262 1 1 0 0 0 .123.455l.013.025.017.039.01.019.006.008c.02.03.066.085.067.087-.003-.004.044.06.067.087l.015.015.003.003c.036.03.133.105.172.133l.009.006.01.005.004.002c.02.01.181.079.202.086a1 1 0 0 0 .132.02 1 1 0 0 0 .134.015l.222-.03a.6.6 0 0 0 .284-.15.4.4 0 0 0 .11-.11l.07-.054a.95.95 0 0 0 .231-.4.7.7 0 0 0 .034-.262.96.96 0 0 0-.124-.457m-2.683 4.835-.015-.026a1.5 1.5 0 0 0-.144-.184 1.3 1.3 0 0 0-.186-.147l-.022-.013a.96.96 0 0 0-.447-.122 1 1 0 0 0-.109-.022 1 1 0 0 0-.227.034q-.104.038-.204.087a.83.83 0 0 0-.308.299 1.3 1.3 0 0 0-.104.234.3.3 0 0 0-.015.056 1.2 1.2 0 0 0-.03.262 1 1 0 0 0 .123.455l.013.025.017.039.01.019.006.008c.02.03.066.085.067.087-.002-.003.045.06.068.087l.014.015.004.003c.035.03.132.105.171.133l.01.006.009.005.004.002c.02.01.182.079.203.086a1 1 0 0 0 .131.02 1 1 0 0 0 .135.015l.222-.03a.6.6 0 0 0 .283-.149.4.4 0 0 0 .111-.11l.069-.055a.95.95 0 0 0 .232-.4.7.7 0 0 0 .033-.262.96.96 0 0 0-.124-.457m11.149-17.894-.015-.026a1.5 1.5 0 0 0-.143-.184 1.3 1.3 0 0 0-.187-.147l-.022-.013a.96.96 0 0 0-.446-.122 1 1 0 0 0-.11-.022 1 1 0 0 0-.226.034q-.105.038-.205.087a.83.83 0 0 0-.307.299 1.3 1.3 0 0 0-.105.234.3.3 0 0 0-.014.056 1.2 1.2 0 0 0-.03.262 1 1 0 0 0 .123.455l.013.025q.008.021.017.039l.01.019.006.008c.02.03.065.085.067.087-.003-.003.044.06.067.087l.015.015.003.003c.036.03.133.105.172.133l.009.006.01.005.004.002c.02.01.181.079.202.086a1 1 0 0 0 .131.02 1 1 0 0 0 .135.015l.222-.03a.6.6 0 0 0 .284-.149.4.4 0 0 0 .11-.11l.07-.055a.95.95 0 0 0 .231-.4.7.7 0 0 0 .034-.262.96.96 0 0 0-.125-.457m12.618-3.955-.015-.026a1.5 1.5 0 0 0-.144-.184 1.3 1.3 0 0 0-.187-.147l-.021-.013a.96.96 0 0 0-.447-.122 1 1 0 0 0-.109-.022 1 1 0 0 0-.227.034q-.104.038-.204.087a.83.83 0 0 0-.308.299 1.3 1.3 0 0 0-.104.234.3.3 0 0 0-.015.056 1.2 1.2 0 0 0-.03.262 1 1 0 0 0 .123.455l.013.025.017.039.01.019.006.008c.02.03.066.085.067.087-.002-.003.045.06.068.087l.014.015.004.003c.035.03.132.105.171.133l.01.006.009.005.004.002c.02.01.182.079.203.086a1 1 0 0 0 .131.02 1 1 0 0 0 .135.015l.222-.03a.6.6 0 0 0 .283-.149.4.4 0 0 0 .111-.11l.069-.055a.95.95 0 0 0 .232-.4.7.7 0 0 0 .033-.262.96.96 0 0 0-.124-.457m-26.072 5.936-.015-.026a1.5 1.5 0 0 0-.144-.184 1.3 1.3 0 0 0-.186-.146l-.022-.013a.96.96 0 0 0-.447-.122 1 1 0 0 0-.109-.022 1 1 0 0 0-.227.034q-.104.038-.204.086a.83.83 0 0 0-.307.3 1.3 1.3 0 0 0-.105.234.3.3 0 0 0-.015.056 1.2 1.2 0 0 0-.03.262 1 1 0 0 0 .123.455l.014.025.016.039.01.019.006.008c.02.029.066.085.067.087-.002-.004.045.06.068.087l.014.015.004.003c.035.03.132.105.171.132l.01.007.009.005.004.002c.02.01.182.079.203.086a1 1 0 0 0 .131.02 1 1 0 0 0 .135.015l.222-.03a.6.6 0 0 0 .283-.15.4.4 0 0 0 .111-.11l.069-.054a.95.95 0 0 0 .232-.4.7.7 0 0 0 .033-.262.96.96 0 0 0-.124-.458M99.78 44.05q-.336 2.131-.698 4.257c-.07.417-.142.83-.229 1.241a3.5 3.5 0 0 0-1.715-.603c-1.33-.203-2.661-.391-3.993-.574-5.334-.73-10.686-1.328-16.041-1.884a18.6 18.6 0 0 0-4.273-.228c-.62.082-1.383.646-1.985.477a1.66 1.66 0 0 1-.738-.503c-.049-.182-.093-.368-.143-.562a1.8 1.8 0 0 0-.45-.91 2.9 2.9 0 0 0-.939-.485 2.6 2.6 0 0 1-.668-.296 1.9 1.9 0 0 1-.444-.852 10 10 0 0 0-.403-1.006c-.164-.342-.379-.657-.54-1-.04-.085-.148-.019-.138.057.054.394.045.793.099 1.187.054.39.144.767.235 1.15a4.2 4.2 0 0 0 .203 1.061 1 1 0 0 0 .212.24c.163.491.325 1.446-.353 1.491a.627.627 0 0 0-.596.783l.159.572a.65.65 0 0 0 .603.459c1.66.207 3.327.34 4.992.503l.125.013a17 17 0 0 0 2.668.458q1.916.279 3.834.542c2.575.354 5.158.636 7.74.921l1.923.21a3.1 3.1 0 0 0 1.424-.01 1.3 1.3 0 0 0 .687-.696.217.217 0 0 1 .168-.272 1.4 1.4 0 0 1 .566.014 3.5 3.5 0 0 1 .72.233c.718.294 1.406.646 2.093.955l.2.205a.77.77 0 0 0 .603.294 1 1 0 0 0 .155.057c.611.08 1.222.164 1.836.223.335.033.7.098 1.059.125l.23.027a.7.7 0 0 0 .332-.037c.037-.005.076-.002.113-.01a1.1 1.1 0 0 0 .617-.371 1 1 0 0 0 .105-.134 1.2 1.2 0 0 0 .149-.299 6.8 6.8 0 0 0 .43-2.02c.078-.79.04-1.587.056-2.38l.052-2.618c0-.024-.039-.03-.042-.006"/><path fill="currentColor" d="m68.416 42.919-.111-.274a2.7 2.7 0 0 1-.197-.602c-.032-.216-.007-.435-.047-.648a1.3 1.3 0 0 0-.32-.647.35.35 0 0 0-.59.245 1.3 1.3 0 0 0 .22.693c.115.18.287.316.407.494a3 3 0 0 1 .274.586 1.3 1.3 0 0 0 .26.54.108.108 0 0 0 .183-.076.6.6 0 0 0-.08-.311m56.135 4.401c-.39-.007-.776-.01-1.165.01a.014.014 0 0 0 0 .028c.388.043.774.065 1.165.083s.774.013 1.165 0a.025.025 0 0 0 0-.05 15 15 0 0 0-1.165-.071m-21.906 5.102a3 3 0 0 1-.269-.352 3 3 0 0 0-.231-.37l-.137-.164q-.033-.042-.069-.082a1 1 0 0 0-.105-.08.15.15 0 0 0-.184.023.16.16 0 0 0-.024.184 1.6 1.6 0 0 0 .273.346 3 3 0 0 0 .335.285 3 3 0 0 1 .294.309 1.5 1.5 0 0 0 .298.302c.047.03.086-.026.068-.068a1.5 1.5 0 0 0-.25-.333m58.767-22.956-.114-.033a4 4 0 0 0-.262-.062l-.517-.11a.018.018 0 0 0-.01.034l.502.167q.122.042.247.076l.126.032a.6.6 0 0 0 .13.008.029.029 0 0 0 .014-.053.5.5 0 0 0-.116-.059m-1.127-.96a1.06 1.06 0 0 0-.553-.169.025.025 0 0 0 0 .05 1 1 0 0 1 .531.156c.023.015.045-.022.022-.037m-79.956 78.206-.004-.01c-.377-.472-.891-.856-1.313-1.288a13 13 0 0 1-1.172-1.37 17 17 0 0 1-.99-1.501c-.155-.266-.29-.541-.442-.808a2 2 0 0 0-.161-.234.3.3 0 0 1-.02-.144c.027-.159-.074-.381-.273-.358a3.2 3.2 0 0 0-1.325.734c-.446.313-.892.624-1.316.966a17.3 17.3 0 0 0-2.453 2.18 3.24 3.24 0 0 0-.839 2.358 3.14 3.14 0 0 0 1.058 2.096c.02.017.056-.006.04-.03a3.25 3.25 0 0 1-.545-2.282 3.37 3.37 0 0 1 1.18-2.119 23 23 0 0 1 2.233-1.704c.395-.28.78-.575 1.17-.862.193-.141.43-.288.639-.456.021.062.032.127.057.188a9 9 0 0 0 .435.857 12 12 0 0 0 1.046 1.566 14 14 0 0 0 1.223 1.378 6 6 0 0 0 1.412 1.13c-.153.155-.297.324-.444.474a13 13 0 0 1-.942.861 17 17 0 0 1-2.09 1.44 7.1 7.1 0 0 1-2.347 1.026 2.2 2.2 0 0 1-1.528-.13 6.8 6.8 0 0 1-1.114-.83.01.01 0 0 0-.016.015 4.8 4.8 0 0 0 2.198 1.551 4.33 4.33 0 0 0 2.725-.731 11.3 11.3 0 0 0 2.339-1.645q.559-.501 1.07-1.05a2.9 2.9 0 0 0 .787-1.045.197.197 0 0 0-.278-.223m11.858 9.004a25 25 0 0 1-2.848-2.785c-.483-.558-1.002-1.11-1.45-1.694a7.8 7.8 0 0 1-1.017-1.78.22.22 0 0 0-.246-.1 3.7 3.7 0 0 0-1.566.665 5.8 5.8 0 0 0-1.09 1.435c-.008.013.012.024.02.012a4.76 4.76 0 0 1 2.61-1.646c.324.448.629.885.928 1.361.322.513.604 1.05.97 1.533a21 21 0 0 0 2.34 2.579q.333.311.678.61c.17.145.504.333.61.536.294.569-.763 1.35-1.107 1.686a23.5 23.5 0 0 1-2.857 2.375 18 18 0 0 1-3.083 1.827 2.18 2.18 0 0 1-2.212-.037 9 9 0 0 1-1.397-1.264c-1.086-1.116-1.726-2.395-1.049-3.914a21 21 0 0 1 1.848-3.429c.022-.03-.029-.07-.052-.04-1.293 1.64-3.354 3.647-2.45 5.93a7.3 7.3 0 0 0 1.939 2.489 3.08 3.08 0 0 0 2.513 1.133 8.4 8.4 0 0 0 3.036-1.372 23 23 0 0 0 2.712-1.911 19.5 19.5 0 0 0 2.577-2.473c.566-.675.255-1.211-.357-1.726"/><path fill="currentColor" d="M103.774 132.744a11.9 11.9 0 0 0-1.696-8.004c-1.243-1.874-3.627-3.834-6.054-3.353a2.7 2.7 0 0 0-.907.373 12.36 12.36 0 0 0 .512-11.086c-2.064-4.357-7.633-6.595-11.859-3.938l.01-.043a4.3 4.3 0 0 0 .071-.785 2.4 2.4 0 0 0-.074-.534 6.16 6.16 0 0 0-1.406-3.464 9.73 9.73 0 0 0-4.89-3.563 8.05 8.05 0 0 0-6.047 1.43c-2.026 1.28-3.892 2.803-5.916 4.093-3.972 2.533-8.372 4.4-12.17 7.202-2.747 2.027-4.949 4.689-7.521 6.908a4 4 0 0 0 .005-.747q-.048-.963-.141-1.922a42 42 0 0 0-.574-3.93 12 12 0 0 1-.331-1.969 16 16 0 0 1 .287-2.057 5.74 5.74 0 0 0-.518-3.183 13.3 13.3 0 0 0 .772-4.522 19 19 0 0 0-3.582-10.428c-2.036-3.01-4.713-6.373-8.51-7.045a5.9 5.9 0 0 0-4.715 1.019 4.87 4.87 0 0 0-1.585 4.54 40 40 0 0 0 1.73 6.893c.3 1.026.523 2.078.748 3.13-.304 2.118-.874 4.272-.595 6.393a32 32 0 0 1 .725 3.634c.025 1.383-.083 2.775-.143 4.156q-.185 4.214-.45 8.423a16.5 16.5 0 0 1-.538 4.002c-.134.434-.291.89-.401 1.353-.152.46-.29.925-.403 1.402a25 25 0 0 0-.569 4.956c-.024.746-.02 1.494-.01 2.241-.646.883-1.21 1.84-1.78 2.756-.83 1.34-1.647 2.686-2.427 4.055a95 95 0 0 0-4.415 8.628 58.4 58.4 0 0 0-3.142 8.934c-.757 2.918-1.299 5.886-2.03 8.81a64 64 0 0 1-1.432 4.899 21 21 0 0 1-.99 2.459c-.152.315-.32.62-.476.928a26 26 0 0 0-4.305 5.21 37.9 37.9 0 0 0-4.93 13.727 76.3 76.3 0 0 0-1.067 15.406 75 75 0 0 0 .73 8.656 49 49 0 0 0 1.782 7.443c.015.47.04.94.089 1.409a18.5 18.5 0 0 0 .847 4.347 22 22 0 0 0 1.977 3.97c.773 1.286 1.599 2.538 2.347 3.839a32 32 0 0 0 1.935 3.109c1.364 1.838 3.313 3.388 5.74 2.99a13.9 13.9 0 0 0 3.94-1.549 9 9 0 0 0 2.48-.226q1.713-.27 3.408-.637a51 51 0 0 0 6.641-1.943 61.6 61.6 0 0 0 12.283-6.112 33 33 0 0 0 3.12-2.27 10.2 10.2 0 0 0 2.642-2.62c.01-.016-.004-.034-.005-.053a66 66 0 0 0 6.887-4.332 40.6 40.6 0 0 0 8.188-7.936 57 57 0 0 0 5.876-9.7c.914-1.858 1.8-3.747 2.556-5.676.802-2.044 1.474-4.136 2.24-6.194.016-.041-.053-.07-.071-.03-1.526 3.39-3.17 6.748-4.822 10.078a64.3 64.3 0 0 1-5.708 9.54 39.7 39.7 0 0 1-8.052 8.182 75.4 75.4 0 0 1-9.956 6.174c-2.054 1.1-4.139 2.143-6.188 3.253-2.214 1.2-4.282 2.633-6.458 3.896-.162.094-.02.322.144.247 2.116-.976 4.31-1.77 6.404-2.794 1.874-.915 3.72-1.893 5.566-2.865l.652-.35c-.942.66-1.92 1.271-2.876 1.912a61 61 0 0 1-5.732 3.4 64 64 0 0 1-12.622 4.907c-1.236.34-2.475.661-3.728.933-.28.06-.584.108-.895.155a48 48 0 0 0 3.61-2.214.096.096 0 0 0-.098-.166c-1.369.596-2.765 1.12-4.119 1.753a27 27 0 0 1-4.172 1.757 4.86 4.86 0 0 1-3.617-.2 7.1 7.1 0 0 1-2.32-2.229c-1.428-2.011-2.591-4.244-3.895-6.338a22.4 22.4 0 0 1-3.213-7.592 39.7 39.7 0 0 1-.404-9.679c.005-.083-.121-.081-.128 0-.146 1.775-.36 3.561-.457 5.348-.204-1.41-.39-2.823-.57-4.233-.33-2.584-.624-5.166-.752-7.77a76.3 76.3 0 0 1 .805-15.73c1.437-9.025 5.356-18.631 14.093-22.803 2.375-1.134 5.045-1.665 7.197-3.245a8.8 8.8 0 0 0 1.798-1.721c-.034.51-.053 1.023-.079 1.535-.11.414-.201.834-.29 1.251-.161.764-.31 1.53-.427 2.302a21 21 0 0 0-.207 4.708.043.043 0 0 0 .085 0c.091-1.604.296-3.19.538-4.778.074-.486.16-.97.241-1.455-.013.779-.029 1.557-.009 2.335.029 1.09.227 2.166.259 3.25a.043.043 0 0 0 .085 0c.033-.935.22-1.872.287-2.806s.103-1.87.153-2.806c.104-1.916.246-3.833.483-5.737.465-3.736 1.49-7.369 2.062-11.086 1.077-6.991-.15-13.953-.009-20.962.039-1.888.15-3.758.336-5.638a72 72 0 0 1 .281-2.465c.164-.628.342-1.25.535-1.892a18 18 0 0 0 .768-3.897c.21-2.809.325-5.628.444-8.441.057-1.371.183-2.763.119-4.135-.059-1.262-.608-2.378-.753-3.615a15.4 15.4 0 0 1 .096-3.11c.101.354.193.71.315 1.057.01.03.063.038.069 0a15.2 15.2 0 0 0-.422-5.209c-.398-1.9-.981-3.753-1.49-5.624-.456-1.674-1.088-3.646-.606-5.379a3.9 3.9 0 0 1 3.81-2.597c3.77-.11 6.586 3.132 8.57 5.942a20.4 20.4 0 0 1 3.888 9.294 13.54 13.54 0 0 1-2.369 9.195 9 9 0 0 1-1.762 1.27 6.27 6.27 0 0 1-3.438.785c-.01 0-.013.017-.002.019a6.63 6.63 0 0 0 3.575-.482 5.5 5.5 0 0 0 1.017-.602.1.1 0 0 0 .158.044 8.6 8.6 0 0 0 2.574-3.124 6.45 6.45 0 0 1 .04 2.638 8.3 8.3 0 0 0 .15 3.476c.126.637.23 1.277.323 1.919-.499.803-1.058 1.563-1.607 2.333l-.862 1.213c-.295.414-.625.816-.886 1.253-.015.026.022.058.043.034.313-.366.573-.78.855-1.17l.932-1.282c.298-.41.598-.82.89-1.234a6.2 6.2 0 0 0 .643-1.085q.111.767.194 1.538c-.052.08-.11.156-.163.236q-.305.455-.605.915l-.58.888a9 9 0 0 0-.582.929c-.035.07.059.158.115.09a9 9 0 0 0 .558-.843l.585-.926q.283-.45.562-.9.064-.104.131-.207c.01.088.024.176.032.264.029.306.042.612.064.918q-1.36 2.163-2.77 4.292a12.4 12.4 0 0 0-1.788 1.373 9 9 0 0 0-.96 1.09 5.3 5.3 0 0 0-1.376.048 10.3 10.3 0 0 0-2.347.402 24 24 0 0 0-4.197 2.181c-.045.025-.014.102.036.085.762-.26 1.548-.441 2.307-.71.692-.246 1.372-.54 2.076-.75a9.8 9.8 0 0 1 2.289-.335c.181-.01.373-.012.566-.019l-.276.404c-1.27 1.864-2.299 3.95-4.106 5.368-.041.033.013.102.056.073 3.017-2.014 4.571-5.46 7.437-7.616.805-.605 1.697-1.085 2.534-1.644a23 23 0 0 0 2.55-1.998c1.481-1.32 2.833-2.776 4.267-4.147 3.186-3.046 6.989-5.028 10.816-7.135a73 73 0 0 0 5.805-3.541 57 57 0 0 1 5.147-3.518 6.57 6.57 0 0 1 3.742-.87 5.9 5.9 0 0 1 3.054 1.521 10.2 10.2 0 0 1 2.293 2.563 6.2 6.2 0 0 1 .762 2.966c-.082.156-.17.31-.248.469a3 3 0 0 0-.266.622.9.9 0 0 0 .001.364 34 34 0 0 0-1.714 1.623q-1.602 1.619-3.235 3.206-3.27 3.17-6.694 6.174c-4.319 3.768-9.008 7.063-13.37 10.774a41.6 41.6 0 0 0-6.324 6.514 6 6 0 0 0-.797-.085q-.468-.043-.934-.099a40 40 0 0 1-1.92-.27c-.022-.003-.03.028-.01.033.633.145 1.27.275 1.913.366q.438.063.879.11a5.5 5.5 0 0 0 .787.054c-.236.318-.462.646-.69.972a3 3 0 0 0-.884-.117 16 16 0 0 1-1.146-.162 20 20 0 0 1-2.16-.503c-.021-.006-.037.028-.015.037a11.2 11.2 0 0 0 2.155.685c.36.074.722.128 1.087.17a3 3 0 0 0 .848.051q-.328.47-.662.933l-.044-.001q-.21-.015-.42-.019c-.139-.002-.279 0-.417-.01a3 3 0 0 1-.455-.075.012.012 0 0 0-.006.023q.21.06.42.124c.145.046.284.1.43.14a3 3 0 0 0 .316.058 14 14 0 0 1-1.01 1.25 4.36 4.36 0 0 0-2.466-.452 20 20 0 0 0-3.217.56c-.07.015-.055.134.017.126a13.4 13.4 0 0 1 2.928.072c.456.052.916.062 1.37.121a2.7 2.7 0 0 1 .73.201 16 16 0 0 1-1.168.988 3.65 3.65 0 0 1-2.817.59.032.032 0 0 0-.017.062 5.57 5.57 0 0 0 3.195-.203 5.97 5.97 0 0 0 2.763-2.117c.812-.974 1.501-2.042 2.282-3.041a37 37 0 0 1 2.631-2.993c3.685-3.784 8.041-6.811 12.163-10.085a163 163 0 0 0 13.038-11.666c1.836-1.81 3.702-4.292 6.265-5.066a7.12 7.12 0 0 1 6.736 1.65 9.67 9.67 0 0 1 2.859 7.387 15.8 15.8 0 0 1-1.842 6.272c-.294.509-.581 1.02-.895 1.518-.226.356-.485.69-.743 1.025-.894.903-1.79 1.805-2.706 2.687q-3.55 3.42-7.308 6.613-3.864 3.29-7.926 6.337a50.8 50.8 0 0 0-13.948 14.146 24.6 24.6 0 0 1-3.517 3.958c-.142.124-.294.24-.44.362a18 18 0 0 0-2.024-.042 11 11 0 0 0-2.21.344c-.015.004-.012.03.004.028.744-.06 1.504-.066 2.25-.079.534-.009 1.066.02 1.598.063a9.9 9.9 0 0 1-3.568 1.905c-.095.025-.078.188.023.175a9.7 9.7 0 0 0 3.543-1.055 13.2 13.2 0 0 0 3.022-2.44c2.057-2.189 3.59-4.811 5.492-7.127a46 46 0 0 1 6.261-6.27c.11.645.075 1.33.143 1.977a5.9 5.9 0 0 0 .933 1.917 12 12 0 0 0 1.1 1.89c.103.141.211.28.305.428.08.125.125.263.202.389.208.338.602.509.882.776.02.02.064 0 .051-.03a3.7 3.7 0 0 0-.363-.76c-.217-.3-.56-.412-.809-.676a7.2 7.2 0 0 1-1.194-1.965 19 19 0 0 0-.686-2.006 7.5 7.5 0 0 1-.506-1.99l.032-.028c2.436-1.997 5.034-3.794 7.505-5.748q5.656-4.473 10.906-9.429c-.974 1.323-1.507 3.065-.4 4.495.01.014.028-.004.022-.017-.935-1.836.33-3.782 1.629-5.048.69-.673 1.434-1.294 2.158-1.931l1.16-1.021c.18-.16.37-.315.543-.482a3 3 0 0 1 .6-.579 7 7 0 0 0 .231 1.722 7.3 7.3 0 0 0 .873 1.819 9 9 0 0 0 1.286 1.562 8 8 0 0 0 .734.623q.211.161.433.31c.287.19.442.282.218.666a8 8 0 0 1-1.754 1.733 16.5 16.5 0 0 1-2.143 1.522 13 13 0 0 1-2.302 1.235 2.62 2.62 0 0 1-2.542-.31c-.014-.017-.041.005-.03.023a1.79 1.79 0 0 0 1.631 1.033 4.9 4.9 0 0 0 2.342-.78 18.7 18.7 0 0 0 4.722-3.516c.368-.392 1.214-1.063.769-1.65a3.7 3.7 0 0 0-.838-.608 8.3 8.3 0 0 1-1.08-.942 8.8 8.8 0 0 1-1.497-2.107 16 16 0 0 1-.604-1.281 11 11 0 0 1-.079-1.296.185.185 0 0 0-.182-.183 2.03 2.03 0 0 0-1.181.61c-.493.4-.958.84-1.435 1.259l-.305.264c.073-.072.15-.142.223-.215 1.055-1.046 2.038-2.217 3.154-3.196 1.085-.952 2.805-.213 3.828.515a9.27 9.27 0 0 1 3.399 6.68 10.9 10.9 0 0 1-.702 5.155 16.6 16.6 0 0 1-2.717 4.175c-1.85 2.238-3.845 4.378-5.519 6.747-.686.66-1.27 1.452-1.889 2.145a46 46 0 0 1-3.677 3.664 70 70 0 0 1-8.64 6.225c-3.26 2.13-5.256 5.562-8.201 8.059a58 58 0 0 0-4.332 4.179c-1.33 1.384-2.83 2.98-4.797 3.34-.092.016-.063.149.02.154a5.98 5.98 0 0 0 4.008-1.251 26 26 0 0 0 3.306-3.57c1.154-1.243 2.535-2.237 3.758-3.407 1.177-1.127 2.164-2.43 3.24-3.648q.406-.456.841-.87c-.006.043-.02.083-.025.124a3.2 3.2 0 0 0 .099 1.072 2 2 0 0 0 .167.497 2.4 2.4 0 0 0 .329.413 9 9 0 0 1 .647.965.014.014 0 0 0 .025-.015 5 5 0 0 1-.4-.956c-.038-.16-.035-.323-.06-.485a4 4 0 0 0-.138-.504 3.7 3.7 0 0 1-.149-.95c-.007-.173.007-.344.01-.518.001-.03-.005-.057-.007-.086a81 81 0 0 1 6.728-4.68 56 56 0 0 0 4.234-3.35 1.53 1.53 0 0 0 .203 1.582c.034.041.084-.01.067-.051a2.14 2.14 0 0 1-.025-1.34 3.6 3.6 0 0 1 .262-.642 56 56 0 0 0 2.644-2.497c.792-.804 1.54-1.77 2.394-2.558a4.7 4.7 0 0 0 .343 1.84 5 5 0 0 0 .935 1.518 4.6 4.6 0 0 0 .66.601c.359.27.785.428.461.948a13.8 13.8 0 0 1-2.674 3.173c-1.047.887-3.423 2.186-4.47.628-.01-.014-.037-.006-.03.013.524 1.481 2.196 1.26 3.361.709a9.45 9.45 0 0 0 3.3-2.97q.36-.475.707-.959a2 2 0 0 0 .48-.9c.061-.65-.651-.925-1.05-1.29a4.31 4.31 0 0 1-1.353-3.852c.061-.046.116-.102.18-.145 1.591-1.083 3.084.137 4.023 1.472a10.06 10.06 0 0 1 1.207 8.165 19.85 19.85 0 0 1-4.853 8.037 44 44 0 0 1-3.706 3.655c-1.216 1.058-2.602 1.942-3.739 3.088a14.6 14.6 0 0 0-2.713 4.447 39 39 0 0 1-2.726 5.033 174 174 0 0 1-3.254 4.922 31 31 0 0 1-2.176 3.043 3 3 0 0 1 .346-.572.029.029 0 0 0-.04-.04 10.3 10.3 0 0 0-1.392 1.236 10.5 10.5 0 0 0-.82 1.28c-.547.965-.985 1.986-1.626 2.897-1.392 1.978-3.692 2.935-5.457 4.51-.933.832-1.615 1.883-2.47 2.788a13 13 0 0 1-2.832 2.218 22 22 0 0 1-2.374 1.18l.075-.362a.017.017 0 0 0-.032-.009l-.104.398c-.288.126-.572.257-.863.378-.718.3-1.425.626-2.134.945.016-.1-.103-.047-.139.03-.004.01-.005.025-.01.036q-.266.12-.534.237a12 12 0 0 0-2.647.677 9.74 9.74 0 0 1-6.464.611.082.082 0 0 0-.063.15 6.9 6.9 0 0 0 3.21 1.14 7.66 7.66 0 0 0 3.64-.836q.128-.058.255-.118a6 6 0 0 0-.111 1.005c-.026 1.114.157 2.24.215 3.352a25.1 25.1 0 0 1-.59 7.462.025.025 0 0 0 .048.013 24.6 24.6 0 0 0 1.421-6.742 27 27 0 0 0-.124-3.258 16 16 0 0 1-.04-.665q.285.52.554 1.04-.002.023 0 .044c.001.014.014.004.025.003.165.324.304.664.446 1.002-.004.078-.013.157-.015.235 0 .015.026.02.028.004.01-.052.014-.105.023-.157.051.124.118.239.164.367.13.365.239.737.347 1.109.001.078-.01.157-.005.235.001.018.03.024.033.004l.016-.099a19.8 19.8 0 0 1 .746 4.832.025.025 0 0 0 .05 0c.03-.572.032-1.142.015-1.712.238-.907.403-1.84.601-2.755.109-.5.215-.999.328-1.496.114-.501.315-.968.434-1.467.37-1.542.679-3.101 1-4.657l.014-.014a23 23 0 0 0 1.134-.447c-.446 1.924-.901 3.846-1.316 5.777-.421 1.96-.99 3.918-1.32 5.894a.03.03 0 0 0 .06.016c.547-1.926.87-3.94 1.328-5.89.454-1.932.867-3.874 1.289-5.813a15 15 0 0 0 1.52-.732 14.6 14.6 0 0 0 2.816-2.024c.975-.908 1.695-2.038 2.642-2.97 1.696-1.67 4.03-2.569 5.58-4.406a14.2 14.2 0 0 0 1.783-2.937c.22-.443.422-.894.633-1.34a6.7 6.7 0 0 0 2.7-2.752q1.588-2.27 3.224-4.503a38 38 0 0 0 2.893-4.598c.815-1.523 1.401-3.165 2.285-4.651a13.5 13.5 0 0 1 3.642-3.634 39.5 39.5 0 0 0 4.04-3.654 25.2 25.2 0 0 0 5.605-7.959 12.3 12.3 0 0 0 .402-8.735c-.756-2.087-2.717-4.906-5.16-4.641 1.237-1.402 2.411-2.867 3.608-4.298 1.934-2.311 3.589-4.719 3.976-7.78m-77.052 3.67a9 9 0 0 0 .423.977c.03.618.069 1.232.104 1.849q-.52-.978-1.019-1.968l.492-.859m-.93 1.622c.128-.227.263-.458.395-.688a15.6 15.6 0 0 0 1.073 2.095l.079 1.401q-.068-.12-.133-.24a22 22 0 0 0-1.536-2.344q.06-.112.123-.224m-.165.3c.491.757.966 1.526 1.402 2.315.12.215.225.439.336.659l.08 1.441.027.568c-.25-.452-.508-.9-.764-1.348q-.778-1.362-1.596-2.698zm-.547.994q.722 1.374 1.483 2.726.454.811.925 1.614c.026.508.044 1.018.064 1.527q-.467-.915-.974-1.802a32 32 0 0 0-2.003-3.147c.17-.305.335-.613.505-.918m.212 27.267a10 10 0 0 1-.724.996 8.4 8.4 0 0 1-2.646 2.048c-2.136 1.1-4.51 1.647-6.664 2.711a20 20 0 0 0-3.064 1.894q.116-.253.228-.49a27 27 0 0 0 1.553-4.053c.658-2.24 1.138-4.528 1.635-6.81.043-.09.083-.184.13-.274a8 8 0 0 1 1.083-1.576 13.1 13.1 0 0 1 3.206-2.514 21 21 0 0 1 2.568-1.285c1.03 2.133 2.024 4.282 3.04 6.421-.038.25-.084.497-.117.746-.096.727-.159 1.457-.228 2.186m.354-2.995a56 56 0 0 0-3.003-6.377c.23-.096.453-.21.688-.293.473.869.94 1.74 1.387 2.622.406.802.786 1.616 1.181 2.423-.092.54-.171 1.083-.253 1.625m.274-1.745a38 38 0 0 0-2.53-4.946c.094-.032.186-.072.28-.102a8 8 0 0 1 .62-.16c.07.14.137.351.167.413.09.185.19.365.288.546.204.373.412.744.594 1.129.192.405.375.812.533 1.232.09.243.17.49.249.737q-.103.576-.2 1.151m.238-1.354a13 13 0 0 0-.29-.896 12 12 0 0 0-.647-1.461c-.254-.48-.54-.942-.792-1.424-.01-.018-.026-.056-.045-.098a8 8 0 0 1 .887-.148q.008.03.019.06.064.161.133.319.162.361.334.718c.213.444.45.87.699 1.293q-.15.818-.298 1.637m.315-1.73c-.165-.42-.334-.837-.532-1.244q-.166-.345-.341-.683-.088-.17-.182-.335l-.033-.05c.07-.006.137-.023.207-.027a4 4 0 0 1 .659.028q.145.3.306.593c.055.1.118.197.177.296q-.128.711-.261 1.422m.884-5.444c-.033.278-.08.554-.12.83a8.3 8.3 0 0 0-1.768-.098 12.2 12.2 0 0 0-2.838.397 11.5 11.5 0 0 0-2.568 1.047 5.6 5.6 0 0 0-2.174 1.673c-.006.01.005.019.015.015.797-.346 1.47-.974 2.25-1.373a12.4 12.4 0 0 1 2.672-.96 11.7 11.7 0 0 1 2.724-.338c.52-.003 1.075.093 1.617.128-.046.304-.083.61-.131.913a5.8 5.8 0 0 0-1.228-.104 8 8 0 0 0-2.18.353 18.4 18.4 0 0 0-4.18 1.946 12.8 12.8 0 0 0-3.273 2.663 73.6 73.6 0 0 1 6.935-17.513c.47-.878.957-1.747 1.44-2.616.608 1.051 1.25 2.082 1.85 3.137.397.696.78 1.4 1.165 2.103q.027.763.039 1.528c-.164-.28-.335-.555-.493-.83l-.892-1.561c-.613-1.074-1.19-2.184-1.865-3.222a.01.01 0 0 0-.019.011c.55 1.11 1.21 2.172 1.823 3.247l.888 1.562c.187.33.37.67.563 1.005a46 46 0 0 1-.252 6.057m17.228-35.117c-.15.266-.305.528-.455.794-.088.153-.157.313-.232.47-.199.14-.395.284-.601.415q-.44.278-.876.556a31 31 0 0 0 2.467-3.84c.016.255.04.508.052.763l.01.164q-.179.34-.365.678m11.632 90.147c-.1-.168-.192-.34-.291-.51a2.3 2.3 0 0 1-.25-.565q.067-.322.162-.636a4.5 4.5 0 0 1 .595-.206c-.048.365-.087.732-.128 1.095q-.047.41-.088.822m.407.713c-.088-.174-.192-.337-.288-.505l.004-.034q.049-.462.095-.925c.04-.395.083-.792.117-1.19.21-.049.423-.08.635-.115q-.066.366-.127.734c-.124.744-.25 1.5-.338 2.256-.035-.072-.062-.15-.098-.221m.185.418c.067-.53.13-1.062.206-1.59q.098-.684.211-1.365l.042-.247q.477-.074.948-.18c-.19.888-.37 1.779-.55 2.669-.126.618-.278 1.255-.383 1.894a14 14 0 0 0-.474-1.18m.734 1.995c-.04-.153-.097-.3-.144-.452.125-.765.25-1.53.395-2.294.168-.882.336-1.763.494-2.647.069-.016.138-.028.206-.047a4 4 0 0 0 .691-.27 85 85 0 0 1-.75 3.315 18.2 18.2 0 0 0-.621 3.669 15 15 0 0 0-.27-1.274m1.595-2.064c-.105.464-.115.938-.21 1.406-.11.538-.24 1.073-.36 1.61-.185.834-.39 1.673-.543 2.516a18 18 0 0 0-.15-1.74 29.4 29.4 0 0 1 .77-4.31 30 30 0 0 0 .694-3.209 3.5 3.5 0 0 0 .91-.713 139 139 0 0 0-1.11 4.44"/><path fill="currentColor" d="M78.974 165.067c-.007-.014-.027-.002-.02.012l.335.7c.113.233.22.467.349.692.009.017.031.002.024-.014-.2-.475-.455-.93-.688-1.39m.778-.396a10 10 0 0 1-.754-1.364c-.239-.508-.393-1.041-.591-1.564-.01-.025-.055-.025-.052.007a9 9 0 0 0 1.134 2.855c.452.956 1.067 1.829 1.508 2.792a1.07 1.07 0 0 1-.521-.314c-.006-.006-.016.002-.011.008a1.12 1.12 0 0 0 .598.41.038.038 0 0 0 .046-.047 12 12 0 0 0-1.357-2.783m-2.846-1.521c-.005-.013-.025-.004-.021.01a9 9 0 0 0 1.192 2.59.019.019 0 0 0 .032-.02 72 72 0 0 1-1.203-2.58m-4.162-10.852a16 16 0 0 1-1.16-1.814 8.5 8.5 0 0 1-.472-1.06 3 3 0 0 0-.443-.862 3.52 3.52 0 0 1-.484-2.386c.002-.019-.026-.018-.028 0a12 12 0 0 0 .176 2.56 4.6 4.6 0 0 0 1.163 2.022c.434.595.872 1.19 1.323 1.77.395.508.789 1.102 1.5 1.161.032.003.035-.038.015-.053a7.4 7.4 0 0 1-1.59-1.338m.466-5.006a9 9 0 0 0-.921-1.173.014.014 0 0 0-.023.017c.525.853 1.065 1.694 1.611 2.533a.029.029 0 0 0 .05-.029 9 9 0 0 0-.718-1.348m-11.814-13.165a7.4 7.4 0 0 1-.516-1.073 5.3 5.3 0 0 0-.45-1.073 8.2 8.2 0 0 1-.867-2.341c-.006-.023-.045-.02-.042.005a14.6 14.6 0 0 0 .46 2.298 2.9 2.9 0 0 0 .463 1.09c.254.344.459.722.688 1.083a35 35 0 0 0 2.943 4.016c.014.016.043-.005.03-.023a44 44 0 0 1-2.709-3.982m1.388 4.509a32 32 0 0 1-1.217-1.66 35 35 0 0 1-1.962-3.411c-.027-.05-.097-.006-.074.043a30 30 0 0 0 1.948 3.486 30 30 0 0 0 1.09 1.635 4.5 4.5 0 0 0 1.195 1.38.036.036 0 0 0 .052-.04 5.7 5.7 0 0 0-1.032-1.433m1.024-3.811-.717-.983c-.021-.029-.07-.002-.05.03l.667 1.034c.218.338.464.655.712.97.02.024.056-.006.042-.031a13 13 0 0 0-.654-1.02m-9.794-15.465a4.3 4.3 0 0 1-.524-.966 1.96 1.96 0 0 0-.525-.833 4.15 4.15 0 0 1-.967-2.3c-.004-.018-.03-.01-.028.008.071.404.14.81.25 1.207a12 12 0 0 1 .386 1.234 1.47 1.47 0 0 0 .493.842 6 6 0 0 1 .801.948 12.3 12.3 0 0 0 2.956 3.186c.013.009.029-.012.017-.023a18.5 18.5 0 0 1-2.859-3.303m.105 2.1q-.156-.168-.31-.338a2 2 0 0 1-.233-.374 4 4 0 0 0-.447-.572c-.327-.38-.455-.882-.823-1.239-.016-.015-.036.008-.023.024a3.64 3.64 0 0 1 .548 1.518 1.07 1.07 0 0 0 .37.599c.114.087.241.144.35.238q.192.164.38.33c.96.837 1.869 1.734 2.814 2.587a.021.021 0 0 0 .03-.03c-.875-.923-1.795-1.807-2.656-2.744m.897-3.299-.269-.338q-.27-.34-.507-.704c-.012-.018-.04-.002-.029.017q.224.368.48.714a4.3 4.3 0 0 0 .557.634c.011.01.033-.004.022-.017-.08-.106-.17-.204-.254-.307m-11.063-17.878a11 11 0 0 1-.57 1.483q-.155.349-.335.686a4 4 0 0 0-.215.317.6.6 0 0 0-.033.313.045.045 0 0 0 .055.032.55.55 0 0 0 .246-.188.4.4 0 0 0 .07-.169 1 1 0 0 1 .079-.217q.16-.347.296-.705a11 11 0 0 0 .43-1.545.012.012 0 0 0-.023-.007m-2.111 4.657-.43.62q-.215.31-.413.63c-.01.016.014.029.025.014q.222-.305.426-.622l.409-.633c.006-.01-.01-.02-.017-.01m1.421-5.23c-.802 1.74-1.784 3.378-2.648 5.084a.029.029 0 0 0 .05.03 26.2 26.2 0 0 0 2.65-5.092c.013-.03-.039-.052-.052-.022m.334-2.777c-.33.805-.697 1.595-.988 2.416-.01.026.03.04.043.018a9.8 9.8 0 0 0 .99-2.422c.01-.03-.034-.04-.045-.012m-1.446 3.19a18 18 0 0 1-1.166 2.1c-.014.022.02.049.037.028a6.7 6.7 0 0 0 1.147-2.12c.004-.01-.013-.017-.017-.007m.946-4.807a77 77 0 0 0-2.183 4.266c-.009.02.018.036.029.017a77 77 0 0 0 2.175-4.271c.007-.014-.013-.026-.02-.012m-.777-1.087c-.981 1.77-2.003 3.53-2.887 5.351a.019.019 0 0 0 .033.02c1.036-1.74 1.944-3.56 2.883-5.354.01-.019-.018-.036-.029-.017m-.824-1.112c-1.097 2.039-2.222 4.066-3.247 6.142-.008.017.015.03.024.015 1.135-2.019 2.172-4.093 3.235-6.15.005-.008-.008-.015-.012-.007m-.336-1.602c-.416.682-.836 1.364-1.231 2.059-.394.693-.803 1.388-1.135 2.113a.014.014 0 0 0 .024.015c.43-.672.801-1.386 1.193-2.08.392-.697.772-1.401 1.165-2.097a.01.01 0 0 0-.016-.01m-.711-1.094c-.326.547-.657 1.092-.977 1.643a19 19 0 0 0-.924 1.674.021.021 0 0 0 .037.022 18 18 0 0 0 .973-1.646c.313-.555.614-1.117.92-1.677a.017.017 0 0 0-.028-.016m-.884-.716-.697 1.13q-.17.28-.332.563a3.5 3.5 0 0 0-.285.57.024.024 0 0 0 .04.023 3.5 3.5 0 0 0 .346-.534q.163-.284.318-.57.31-.588.622-1.175a.007.007 0 0 0-.012-.007m-.697-.698c-.195.31-.397.616-.585.93a5.7 5.7 0 0 0-.51.936.022.022 0 0 0 .037.021 5.7 5.7 0 0 0 .564-.905c.18-.318.346-.645.519-.967a.014.014 0 0 0-.025-.015m-.84-.535-.172.243c-.059.084-.125.163-.181.249l-.161.248a.9.9 0 0 0-.129.265.026.026 0 0 0 .044.025.9.9 0 0 0 .181-.222l.164-.259c.052-.084.094-.173.143-.259l.152-.265c.016-.027-.023-.049-.04-.024m-.419-1.106-.405.536q-.095.13-.182.268a.64.64 0 0 0-.12.302.04.04 0 0 0 .061.035.65.65 0 0 0 .22-.243q.087-.136.163-.28l.304-.594a.024.024 0 0 0-.04-.024m-.776-.397q-.114.105-.226.212a1 1 0 0 0-.1.13.2.2 0 0 0-.023.035l-.008.04c-.007.025-.02.047-.026.072a.034.034 0 0 0 .049.037.4.4 0 0 0 .058-.041l.032-.016a.1.1 0 0 0 .033-.033 1 1 0 0 0 .101-.134c.05-.092.095-.185.144-.276a.022.022 0 0 0-.034-.026m-.674-.71c-.04.013-.08.023-.118.04a.3.3 0 0 0-.067.048l-.022.018a.1.1 0 0 0-.023.063l.008-.03-.027.045a.036.036 0 0 0 .04.052l.054-.01h-.032a.1.1 0 0 0 .06 0l.032-.018.026-.017a.2.2 0 0 0 .036-.025q.019-.022.036-.045l.038-.05a.044.044 0 0 0 .007-.051.044.044 0 0 0-.048-.02m11.467 51.809a1 1 0 0 0-.179-.034l-.338-.052a34 34 0 0 0-.699-.098l-1.463-.186c-.011-.001-.013.017-.003.019l1.449.3a36 36 0 0 0 1.063.199 1.4 1.4 0 0 0 .362-.009.021.021 0 0 0 .006-.042c-.067-.028-.129-.074-.197-.097m3.485-3.145-.555-.052-1.11-.105c-.02-.002-.02.031 0 .033l1.089.12.533.058a2.6 2.6 0 0 0 .554.044.017.017 0 0 0 .005-.032 2.4 2.4 0 0 0-.516-.066m.792-1.202c-.064 0-.13-.005-.194-.002l-.396.016a.015.015 0 0 0 0 .031l.396.017c.065.003.13-.001.194-.003a.8.8 0 0 0 .19-.015.014.014 0 0 0 0-.028.8.8 0 0 0-.19-.015m-9.372-15.351a16 16 0 0 1-.45.635q-.12.16-.242.317-.056.072-.11.145a1 1 0 0 0-.098.17.016.016 0 0 0 .024.019 1 1 0 0 0 .124-.131q.059-.08.113-.162.11-.163.216-.329.216-.33.427-.662Zm1.724-6.356q-.682.884-1.334 1.792c-.432.603-.871 1.203-1.256 1.838-.01.016.014.035.026.02.47-.564.89-1.169 1.314-1.767q.654-.923 1.273-1.87c.01-.015-.012-.026-.022-.013m-.329-1.489a39 39 0 0 0-1.375 1.958c-.01.014.013.026.023.013.479-.638.932-1.294 1.37-1.96.009-.012-.01-.021-.018-.01m-1.571-2.66a8.6 8.6 0 0 1-2.607 1.907l.003.006a5.24 5.24 0 0 0 2.634-1.89c.013-.018-.015-.038-.03-.023m51.186 11.517c-.007.44-.014.88.007 1.32a.01.01 0 0 0 .021 0c.021-.44.014-.88.007-1.32a.018.018 0 0 0-.035 0m-.734.932c.001-.034-.05-.033-.052 0a13.3 13.3 0 0 0-.117 2.487c.003.03.05.043.058.008a13.3 13.3 0 0 0 .111-2.495m-.873.155a.01.01 0 0 0-.021 0 44 44 0 0 1-.05 1.75c-.032.582-.094 1.161-.122 1.743a.02.02 0 0 0 .04.006 10 10 0 0 0 .186-1.714 14 14 0 0 0-.033-1.785m-.904.703q-.125 1.028-.238 2.058a15 15 0 0 0-.172 2.057.014.014 0 0 0 .028.003 14.5 14.5 0 0 0 .229-2.02q.09-1.049.17-2.098c0-.01-.015-.01-.017 0m-.996.778q-.165 1.099-.301 2.201-.07.573-.131 1.146a6.4 6.4 0 0 0-.072 1.148c.001.018.028.023.032.004a7 7 0 0 0 .125-1.064q.05-.573.106-1.146.114-1.145.262-2.286c.002-.012-.019-.015-.02-.003m-1.257 1.709a23 23 0 0 0-.282 1.777q-.05.446-.084.893a3.2 3.2 0 0 0-.019.901.02.02 0 0 0 .04 0 3.8 3.8 0 0 0 .071-.832q.027-.447.07-.893c.058-.616.127-1.23.22-1.842.001-.01-.014-.015-.016-.005m-1.344 2.248c-.05.33-.107.66-.15.99a9 9 0 0 0-.113 1.028.018.018 0 0 0 .035.005 9 9 0 0 0 .14-.993c.04-.342.067-.686.1-1.029 0-.006-.011-.008-.012-.001m-1.445 2.009q-.04.118-.075.238a2 2 0 0 0-.057.236.01.01 0 0 0 .018.005 2 2 0 0 0 .07-.232q.033-.12.058-.244a.007.007 0 0 0-.014-.003m-11.17-4.941a18 18 0 0 1-.424-1.732c-.002-.007-.013-.004-.012.003a11.3 11.3 0 0 0 .965 3.436.017.017 0 0 0 .03-.013c-.177-.568-.391-1.123-.559-1.694m.753.375a27 27 0 0 1-.532-1.726.023.023 0 0 0-.043.012c.137.598.296 1.19.49 1.771a7.8 7.8 0 0 0 .667 1.651.018.018 0 0 0 .033-.014c-.151-.577-.42-1.128-.615-1.694m.557-.106c-.005-.011-.022-.001-.016.01.398.834.772 1.686 1.21 2.5.007.012.024.002.019-.01-.368-.85-.805-1.67-1.213-2.5m1.909 2.729c-.006-.007-.016.003-.01.01.405.475.805.954 1.232 1.408.008.01.02-.004.013-.013-.395-.483-.817-.942-1.235-1.405m-9.518-17.243c-.01-.026-.05-.016-.04.01a5.9 5.9 0 0 0 1.463 2.497c.023.024.054-.01.035-.035a10.2 10.2 0 0 1-1.458-2.473m32.696 24.391c-.004-.02-.038-.016-.035.004a24 24 0 0 0 .396 2.566.016.016 0 0 0 .03-.004 24 24 0 0 0-.391-2.567m-1.028.466c-.004-.01-.021-.007-.018.005a11 11 0 0 1 .282 1.713.014.014 0 0 0 .028 0 3.6 3.6 0 0 0-.292-1.718m.366 2.722c-.005-.005-.014.002-.01.008a.67.67 0 0 1 .087.465.008.008 0 0 0 .016.004.5.5 0 0 0-.094-.477m-.964.081q-.099-.86-.243-1.714c-.003-.018-.03-.01-.028.007q.129.902.213 1.81c.053.562.076 1.13.153 1.689.002.013.023.01.024-.004a12.5 12.5 0 0 0-.12-1.788m-1.189-.542c-.002-.018-.029-.019-.029 0 .029.934.075 1.866.166 2.795 0 .014.021.014.02 0a42 42 0 0 0-.157-2.795m-.875 2.253a.005.005 0 0 0-.01 0c-.006.774-.044 1.556-.004 2.33a.01.01 0 0 0 .019 0c.04-.774.001-1.556-.005-2.33m-1.186 1.398q-.002.428.007.854a.01.01 0 0 0 .019 0q.007-.428.007-.854a.017.017 0 0 0-.033 0m3.566 15.623q-.098-.707-.24-1.407c-.001-.007-.013-.004-.011.003q.121.717.19 1.44c.042.45.062.902.131 1.349.002.016.027.011.028-.004a7.4 7.4 0 0 0-.097-1.38m-.843 1.459q-.094-1.01-.23-2.015c-.002-.015-.025-.016-.023 0q.081 1.006.123 2.015a13 13 0 0 0 .133 1.95c.004.021.042.022.045 0a8.5 8.5 0 0 0-.048-1.95m-1.347-1.397c-.002-.026-.04-.027-.04 0a39 39 0 0 0 .23 4.66.02.02 0 0 0 .041 0 38 38 0 0 0-.23-4.66m-1.055 5.103q-.033-.685-.047-1.371c-.02-.933-.008-1.866-.007-2.799a.006.006 0 0 0-.012 0 31 31 0 0 0-.06 2.853 17 17 0 0 0 .153 2.746c.004.02.035.014.035-.005.017-.473-.04-.952-.062-1.424m-1.278-2.466c-.002-.01-.016-.01-.018 0a2.7 2.7 0 0 0-.059.587q-.015.317-.017.634c-.002.423.022.846.054 1.268a.008.008 0 0 0 .016 0c.003-.423.017-.845.023-1.268l.01-.634a3.3 3.3 0 0 0-.01-.588m.002 4.155a4 4 0 0 1-.02-.888c.002-.02-.028-.02-.03 0-.025.29-.022.579-.026.868a3 3 0 0 0 .01.447.8.8 0 0 0 .041.194c.011.03.027.077.07.073.138-.014-.03-.605-.044-.694m-1.526-.15q.002-1.146-.006-2.291a.01.01 0 0 0-.021 0q-.018 1.145-.027 2.29c-.007.761-.05 1.532.005 2.291a.01.01 0 0 0 .022 0c.062-.758.026-1.53.027-2.29m-1.349-.739a.006.006 0 0 0-.012 0c-.002.7-.018 1.398-.035 2.097q-.013.514-.033 1.028a7 7 0 0 0-.012 1.068c.004.028.047.04.054.008a5.3 5.3 0 0 0 .067-.994q.013-.534.013-1.069a54 54 0 0 0-.042-2.138m-1.234 2.556a12.3 12.3 0 0 0-.412 2.883c0 .022.03.021.033 0 .11-.965.199-1.925.4-2.877.003-.013-.018-.02-.021-.006m-1.855 3.263a14 14 0 0 0-.28 1.018.01.01 0 0 0 .019.005c.107-.336.19-.676.272-1.02a.006.006 0 0 0-.011-.003m-43.132 7.571a21 21 0 0 1-4.023-3.097c-.02-.02-.047.01-.03.03a9.3 9.3 0 0 0 4.028 3.128c.036.013.056-.041.025-.06m1.849-.661c-.738-.446-1.549-.76-2.311-1.162a39 39 0 0 1-2.26-1.27c-.013-.009-.03.012-.017.022a15 15 0 0 0 2.15 1.465 8.9 8.9 0 0 0 2.405 1.023.043.043 0 0 0 .033-.078m1.11-1.144a3.6 3.6 0 0 0-1.098-.233 5.6 5.6 0 0 1-1.146-.4c-.71-.314-1.437-.597-2.131-.945a.02.02 0 0 0-.02.035 9.7 9.7 0 0 0 2.115.995c.378.114.76.21 1.133.343a2.7 2.7 0 0 0 1.116.318.061.061 0 0 0 .031-.113m-1.145-1.441a9 9 0 0 1-1.067-.352c-.009-.003-.015.011-.006.015q.5.253 1.017.466a2.45 2.45 0 0 0 1.085.262.029.029 0 0 0 .015-.053 4 4 0 0 0-1.044-.338m.96-.91c-.021-.002-.03.029-.01.033.311.062.62.128.936.159.015.001.017-.022.003-.026a9 9 0 0 0-.93-.165m-6.194 3.247c-.443-.558-.955-1.06-1.384-1.63-.032-.043-.105-.004-.074.043a6 6 0 0 0 1.422 1.634c.03.021.055-.022.036-.047m-.617-25.954c-1.119.774-2.259 1.517-3.373 2.3a34 34 0 0 0-2.997 2.08 3.45 3.45 0 0 0-1.132 2.586 18.3 18.3 0 0 1-.136 3.45.007.007 0 0 0 .014.003 12.7 12.7 0 0 0 .386-2.88 4.14 4.14 0 0 1 1.479-2.916c.907-.824 1.897-1.56 2.869-2.305.98-.751 1.93-1.54 2.904-2.3.01-.007-.003-.025-.014-.018m-3.955 11.326a52 52 0 0 1-1.57-.614c-.024-.01-.042.032-.017.043q.741.352 1.503.654a10 10 0 0 0 1.599.537c.02.004.037-.027.015-.037-.495-.226-1.02-.393-1.53-.583m2.729-.215q-.525-.163-1.042-.349a23 23 0 0 1-2.167-.894c-.012-.006-.023.012-.01.019a19 19 0 0 0 2.067.981c.364.146.737.274 1.11.394a4.3 4.3 0 0 0 1.08.245.022.022 0 0 0 .01-.04 7 7 0 0 0-1.048-.356m2.877-.596a4 4 0 0 0-1.195-.306 13 13 0 0 1-1.201-.379 22 22 0 0 0-2.446-.76c-.01-.002-.017.012-.007.017a11.7 11.7 0 0 0 2.366.884c.42.11.84.225 1.255.356a3.5 3.5 0 0 0 1.185.347.086.086 0 0 0 .043-.16m.589-1.004a7 7 0 0 1-.922-.29c-.292-.109-.58-.224-.875-.328-.304-.106-.613-.187-.92-.282-.042-.013-.071.053-.03.072.29.132.57.268.87.373.295.102.593.184.894.262.3.077.602.157.898.25.244.078.596.316.856.228a.04.04 0 0 0 .017-.066c-.176-.192-.552-.164-.788-.219m.065-1.242a.01.01 0 0 0-.006.02 5 5 0 0 0 .855.231.012.012 0 0 0 .006-.023 5 5 0 0 0-.855-.228m7.901 27.185a2 2 0 0 1 .154-.326 7 7 0 0 1 .446-.695c.312-.444.65-.872.992-1.293a.03.03 0 0 0-.042-.042 7.5 7.5 0 0 0-1.196 1.21c-.168.213-.325.435-.487.652-.15.2-.424.415-.489.66-.068.259.163.471.253.703a7 7 0 0 1 .25.99q.102.45.191.903a3.6 3.6 0 0 0 .216.914c.03.06.117.027.12-.033a3 3 0 0 0-.158-.81 22 22 0 0 1-.178-.788c-.064-.301-.134-.602-.186-.905a2 2 0 0 1-.047-.43.9.9 0 0 1 .098-.341c.043-.117.024-.25.063-.37m3.134 4.571c-.41-.108-.824-.19-1.243-.259-.02-.003-.03.028-.008.032q.607.135 1.208.297c.6.162.793.245 1.196.341.019.005.033-.024.014-.032a7.3 7.3 0 0 0-1.167-.38m1.487-.829a19 19 0 0 1-2.271-.563c-.015-.004-.02.018-.007.023a14 14 0 0 0 2.291.656 9 9 0 0 0 2.297.22c.018 0 .025-.03.004-.034-.768-.124-1.546-.16-2.314-.302m2.953-.809a3.8 3.8 0 0 0-1.031-.151c-.396-.046-.792-.097-1.188-.144q-1.232-.146-2.458-.328c-.01-.001-.015.014-.004.016q1.197.229 2.4.423c.394.064.79.118 1.185.172a3.7 3.7 0 0 0 1.085.101.05.05 0 0 0 .011-.089m-1.574-1.01c-.017 0-.016.024 0 .027a15 15 0 0 0 1.784.184c.018 0 .023-.03.004-.033a15 15 0 0 0-1.788-.178m2.252-.612a.007.007 0 0 0 0 .015l.155-.001a.006.006 0 0 0 0-.012Zm-25.74-18.288a8 8 0 0 1-.106-.78c-.042-.5-.073-1.002-.108-1.503 0-.013-.022-.014-.021 0 .017.51.037 1.021.047 1.532q.005.375-.025.751a1.6 1.6 0 0 0-.017.356 3 3 0 0 0 .126.317c.008.029.056.033.062 0a2 2 0 0 0 .095-.355 2 2 0 0 0-.053-.318m.095 5.525c-.044-.667-.15-1.318-.228-1.98-.005-.038-.062-.04-.06 0a17 17 0 0 1-.033 1.838 9 9 0 0 1-.126.99 4.4 4.4 0 0 0 .001.85 15.5 15.5 0 0 1-.425 3.764.018.018 0 0 0 .035.01 38 38 0 0 0 .819-3.716 3.4 3.4 0 0 0 .11-.836c-.021-.307-.072-.613-.092-.92m1.224 2.901c-.065.417-.133.832-.193 1.25-.001.008.012.012.014.003q.103-.623.2-1.247c.002-.014-.019-.02-.02-.006m5.327 2.03c-.227.664-.488 1.318-.745 1.97-.086.22-.165.445-.27.656-.064.13-.16.252-.216.386-.13.314-.104.683-.217 1.013-.475 1.39-1.185 2.692-1.76 4.04-.01.022.02.041.033.02a36 36 0 0 0 1.883-3.994 3 3 0 0 1 .233-.465 1.7 1.7 0 0 0 .28-.423c.104-.328.152-.684.249-1.018.21-.72.379-1.45.553-2.179a.012.012 0 0 0-.023-.006m-15.181 5.492c-.009-.022-.045-.013-.037.01.641 1.91 1.293 3.819 2.052 5.686.01.026.052.016.043-.012-.61-1.921-1.33-3.805-2.058-5.684m4.762 8.125-.451-.988a66 66 0 0 1-.886-2.057q-.818-1.982-1.584-3.984c-.007-.019-.037-.011-.03.008q.741 2.049 1.535 4.079.396 1.013.788 2.028.194.508.392 1.014c.124.315.342.524.488.827.003.006.013.002.011-.004-.122-.318-.121-.612-.263-.923m6.77 7.334c-1.783-1.64-3.602-3.233-5.42-4.834-.01-.009-.024.006-.014.015a65 65 0 0 0 5.4 4.853c.024.018.057-.013.034-.034m23.718 12.585a206 206 0 0 0-.8 3.12.01.01 0 0 0 .017.006c.28-1.037.545-2.078.809-3.119a.013.013 0 0 0-.026-.007M24.498 239.7a3.5 3.5 0 0 0-.993.367q-.633.275-1.269.545c-.836.355-1.673.7-2.523 1.02-1.61.602-3.188 1.337-4.762 2.03-.019.009-.006.039.013.033a43 43 0 0 0 4.884-1.745c.782-.35 1.572-.685 2.36-1.026q.59-.255 1.18-.516a4.3 4.3 0 0 0 1.16-.586.072.072 0 0 0-.05-.122m-.517-1.566a5 5 0 0 0-1.606.68q-.938.43-1.887.836a25 25 0 0 0-3.658 1.73.036.036 0 0 0 .028.064 24 24 0 0 0 3.615-1.54c.6-.284 1.204-.556 1.808-.83a5.9 5.9 0 0 0 1.746-.828.066.066 0 0 0-.046-.112m-.181-1.587a6.2 6.2 0 0 0-1.185.6c-.393.187-.799.35-1.197.526a22 22 0 0 0-2.413 1.215c-.015.009-.002.029.013.023.813-.35 1.611-.747 2.407-1.133.403-.196.806-.401 1.221-.568a7.3 7.3 0 0 0 1.247-.444.12.12 0 0 0-.092-.219m-.278-1.455a2.8 2.8 0 0 0-.888.428c-.289.178-.556.38-.833.576a.01.01 0 0 0 .011.018c.31-.138.62-.266.922-.423a2.8 2.8 0 0 0 .82-.545.032.032 0 0 0-.032-.054m.467-1.949a.3.3 0 0 0-.061.027.3.3 0 0 0-.065.032l-.066.045-.053.046-.051.055-.011.021-.008.01-.02.024-.021.028-.016.027a.4.4 0 0 1-.053.053c-.019.018.007.054.029.037.018-.013.036-.03.056-.042l.034-.014.028-.015q.03-.017.058-.03a.3.3 0 0 0 .066-.043q.032-.024.062-.051c.02-.019.03-.034.047-.052l.026-.032.017-.03a.3.3 0 0 0 .038-.06c.007-.024-.015-.04-.037-.036m-.409-59.788a27.7 27.7 0 0 0-.227 6.679.025.025 0 0 0 .05 0c.045-1.113.01-2.23.03-3.343q.031-1.669.163-3.336c.001-.01-.015-.01-.016 0m-1.103 2.095c0-.02-.028-.02-.03 0a33 33 0 0 0-.236 3.688l-.034 1.81a16 16 0 0 0 0 1.882.03.03 0 0 0 .06 0c.06-.624.022-1.255.03-1.882q.014-.906.06-1.81c.06-1.227.144-2.46.15-3.688m-1.292 5.824c.042-1.318.156-2.636.218-3.954 0-.02-.029-.019-.031 0-.156 1.32-.192 2.628-.225 3.954-.016.66-.03 1.32-.051 1.98a5.9 5.9 0 0 0 .03 1.837.036.036 0 0 0 .069 0 6.8 6.8 0 0 0-.015-1.837c-.021-.66-.016-1.32.005-1.98m-1.169-1.239c-.053 2.193-.184 4.407-.11 6.6a.012.012 0 0 0 .024 0c.147-2.19.09-4.406.112-6.6a.013.013 0 0 0-.026 0m-1.067 3.495c-.101 1.598-.235 3.211-.22 4.813a.015.015 0 0 0 .03 0c.157-1.594.168-3.213.209-4.813 0-.012-.018-.012-.019 0m-1.363 4.73a4.8 4.8 0 0 0-.132 1.715c.001.013.022.014.021 0a6.2 6.2 0 0 1 .124-1.712.007.007 0 0 0-.013-.004m6.808-44.74c-.005-.006-.015 0-.01.006.517.734.983 1.501 1.433 2.278a.007.007 0 0 0 .012-.007 18 18 0 0 0-1.435-2.277m2.574 4.111-.575-.758c-.006-.008-.02 0-.014.009l.54.795a4.7 4.7 0 0 0 .558.755.02.02 0 0 0 .032-.024 4.7 4.7 0 0 0-.54-.777m-2.066-1.057c-.005-.006-.015 0-.01.006q.67.924 1.275 1.895c.404.647.765 1.317 1.155 1.972.008.013.027.002.02-.012a21.2 21.2 0 0 0-2.44-3.861m.867 4.496c-.009-.011-.027 0-.02.01q.23.313.467.622c.005.007.017 0 .012-.007-.15-.21-.306-.418-.46-.625m-3.626 7.363c-.008-.016-.032-.002-.025.015.557 1.234 1.122 2.467 1.745 3.67.007.013.027 0 .02-.013-.537-1.243-1.135-2.46-1.74-3.672m2.889 5.676-.111-.151-.236-.31c-.006-.008-.02 0-.015.008l.22.327q.054.08.112.158a1 1 0 0 0 .118.151.013.013 0 0 0 .02-.015 1 1 0 0 0-.108-.168m-1.592-.306c-.004-.007-.016-.002-.013.006.145.367.29.735.453 1.094.003.008.016.002.013-.005-.139-.37-.296-.732-.453-1.095m24.299 44.426a8.7 8.7 0 0 1-1.64-.996c-.01-.006-.02.008-.012.015a5.8 5.8 0 0 0 1.652 1.098 5.2 5.2 0 0 0 1.872.501.014.014 0 0 0 .004-.028 11 11 0 0 1-1.876-.59m5.837.37c-.587.044-1.147.272-1.737.322a9.3 9.3 0 0 1-1.76-.026c-.007 0-.007.009 0 .01a10 10 0 0 0 1.827.034 4.5 4.5 0 0 0 1.688-.272.037.037 0 0 0-.018-.068m-4.975 1.313c-.008 0-.01.013-.002.014a9 9 0 0 0 1.243.104c.013 0 .017-.021.003-.023a9 9 0 0 0-1.244-.095m4.509-.157a.4.4 0 0 0-.187.025c-.08.02-.157.045-.236.065a7 7 0 0 1-.462.095 4.6 4.6 0 0 1-.985.064c-.007 0-.007.011 0 .012a5 5 0 0 0 .996.003 4 4 0 0 0 .46-.075q.12-.026.237-.06a.36.36 0 0 0 .186-.09.023.023 0 0 0-.01-.039m-.395 1.307a2.6 2.6 0 0 0-.513.006q-.248.014-.494.032c-.337.025-.673.052-1.01.069a.012.012 0 0 0 0 .024c.343.023.685.038 1.03.03a7 7 0 0 0 .514-.032 2 2 0 0 0 .479-.087.022.022 0 0 0-.006-.042m-.154 1.561c-.183-.01-.365 0-.548-.01-.18-.011-.362-.016-.543-.032-.015-.002-.017.02-.003.025a1.9 1.9 0 0 0 1.1.061.023.023 0 0 0-.006-.044m45.451-45.195-.929-.784c.732-.868 1.507-1.81 2.313-2.815l.948.763a155 155 0 0 1-2.332 2.836m4.608-5.709-.958-.748q1.09-1.397 2.235-2.889l.965.74q-1.146 1.494-2.242 2.897m4.459-5.808-.97-.735q1.091-1.437 2.2-2.919l.973.731q-1.11 1.48-2.203 2.923m4.396-5.85-.974-.73 2.186-2.931.977.727Zm4.371-5.863-.976-.727 2.187-2.93.974.728Zm4.38-5.852-.972-.732q1.128-1.497 2.209-2.918l.967.737q-1.077 1.415-2.204 2.913m4.43-5.809-.963-.745a247 247 0 0 1 2.267-2.882l.95.76c-.717.896-1.47 1.856-2.255 2.867m4.562-5.681-.927-.787c.975-1.151 1.787-2.051 2.48-2.752l.864.855c-.66.669-1.474 1.572-2.417 2.684m5.227-4.488-.444-1.134a22 22 0 0 0 3.18-1.576l.62 1.046a23 23 0 0 1-3.356 1.664m6.438-3.745-.732-.972a46 46 0 0 0 2.786-2.287l.806.911a47 47 0 0 1-2.86 2.348m5.544-4.881-.86-.86a75 75 0 0 0 2.498-2.627l.9.817a76 76 0 0 1-2.538 2.67m4.95-5.448-.933-.779a97 97 0 0 0 2.274-2.833l.962.745a100 100 0 0 1-2.302 2.867m-60.369-1.097-.767-.943a31 31 0 0 0 2.6-2.461l.884.837a32 32 0 0 1-2.717 2.567m64.87-4.72-.988-.708a82 82 0 0 0 2.052-2.996l1.02.663a83 83 0 0 1-2.084 3.041m-59.754-.705-.984-.718a16.8 16.8 0 0 0 1.797-3.026l1.112.496a18 18 0 0 1-1.925 3.248m63.648-5.609-1.1-.521a77 77 0 0 1 1.676-3.285l1.072.577a74 74 0 0 0-1.648 3.23M98.936 94.75h-1.217c0-1.057-.004-2.301-.023-3.646l1.217-.017c.019 1.351.023 2.601.023 3.663m64.275-4.968-1.041-.629a32 32 0 0 1 2.074-3.099l.958.75a31 31 0 0 0-1.991 2.977m-65.605-2.317a102 102 0 0 0-.192-3.627l1.214-.088c.087 1.209.148 2.449.195 3.67Zm70.177-3.2-.932-.782a21 21 0 0 0 1.983-2.935l1.057.604a22 22 0 0 1-2.109 3.113m-70.727-4.026a24 24 0 0 0-.693-3.488l1.167-.347a25 25 0 0 1 .73 3.673Zm74.827-2.085-.989-.708c.584-.815 1.307-1.832 2.11-2.98l.997.697a346 346 0 0 1-2.118 2.991m-76.931-4.791a8.8 8.8 0 0 1-.218-2.023 13 13 0 0 1 .137-1.831l1.205.172a12 12 0 0 0-.125 1.66 7.6 7.6 0 0 0 .185 1.744Zm81.132-1.216-1.005-.686c.67-.98 1.356-2 2.034-3.03l1.015.67a229 229 0 0 1-2.044 3.045m-79.13-5.868-1.14-.427a13.5 13.5 0 0 1 1.718-3.294l1.033.65a12.3 12.3 0 0 0-1.611 3.07m83.164-.262-1.03-.648a102 102 0 0 0 1.884-3.109l1.053.61c-.578.997-1.223 2.06-1.907 3.147m-79.672-6.057-1.08-.562a82 82 0 0 0 1.6-3.256l1.103.513a83 83 0 0 1-1.623 3.305m16.14-.165-1.15-.4a22 22 0 0 0 .846-3.447l1.2.207a23.5 23.5 0 0 1-.897 3.64m67.18-.204-1.103-.512a12 12 0 0 0 .635-1.607 11 11 0 0 0 .374-1.698l1.207.159a12.6 12.6 0 0 1-.414 1.883 13 13 0 0 1-.7 1.775m-64.68-1.245-.698-.997 2.999-2.098.696.997Zm57.07-1.099-1.06-.587.206-.46.075.033c.32-.462.947-1.334 1.69-2.238l.94.772a36 36 0 0 0-1.85 2.48m-51.074-3.093-.696-.998 3.006-2.09.693.999Zm52.828-.783-1.11-.5 1.247-2.768.355-.595 1.043.628-.324.535Zm-74.347-.077-1.121-.473a94 94 0 0 0 1.347-3.37l1.138.429a95 95 0 0 1-1.364 3.414m79.514-.462a2.58 2.58 0 0 0-1.847-.678q-.13 0-.256.01a1.25 1.25 0 0 0-.51.203l-.623-1.044a2.4 2.4 0 0 1 1.047-.373q.165-.012.342-.012a3.7 3.7 0 0 1 2.724 1.051Zm-65.125-.347-1.212-.111a79 79 0 0 0 .24-3.617l1.214.055a80 80 0 0 1-.242 3.673m13.138-2.5-.689-1.001a677 677 0 0 1 3.02-2.071l.684 1.005a846 846 0 0 0-3.015 2.067m50.214-3.02-1.056-.604c.55-.96 1.159-2.048 1.773-3.183l1.07.578a155 155 0 0 1-1.787 3.208M106.14 46.4l-1.16-.37a51 51 0 0 0 .986-3.474l1.183.287a52 52 0 0 1-1.009 3.557m30.994-.51-.656-1.023.164-.107a19 19 0 0 0 2.522-2.185l.85.87a19.7 19.7 0 0 1-2.71 2.336Zm-18.826-.745-1.216-.022c.017-.969.028-1.901.039-2.776l.01-.874 1.217.016-.01.873c-.011.876-.022 1.812-.04 2.783m24.283-4.333-.884-.836c.788-.834 1.621-1.735 2.477-2.676l.9.819c-.862.947-1.7 1.854-2.493 2.693m42.199-.318-1.091-.54a54 54 0 0 0 1.512-3.284l1.124.464a56 56 0 0 1-1.545 3.36m-76.96-1.314-1.21-.142a17 17 0 0 0 .124-1.917q0-.499-.04-.957-.032-.336-.054-.656l1.214-.083q.021.307.052.63.044.512.045 1.067a18 18 0 0 1-.131 2.058m9.3-1.278a11.3 11.3 0 0 0-.956-3.316l1.11-.5a12.6 12.6 0 0 1 1.056 3.674Zm30.4-2.509-.91-.808c.806-.908 1.615-1.828 2.411-2.741l.917.8c-.798.915-1.61 1.838-2.419 2.75m39.892-1.941-1.214-.085.006-.154a1 1 0 0 0-.037-.3 2.9 2.9 0 0 0-1.529-1.83l.513-1.103a4.1 4.1 0 0 1 2.171 2.548 2.2 2.2 0 0 1 .099.685q0 .114-.009.239m-8.472-.573-.908-.812q.283-.316.555-.594l-.57-.266 1.132-2.401a8 8 0 0 0 .322-.86l1.157.373a6.4 6.4 0 0 1-.477 1.198l-.43.919a4.7 4.7 0 0 1 1.404-.81l.368 1.159a7.4 7.4 0 0 0-2.553 2.094m-71.093-.996-1.21-.124c.192-1.876.752-3.078 1.714-3.676l.642 1.034c-.612.38-.997 1.31-1.146 2.766m6.504-.285a9.5 9.5 0 0 0-2.488-2.323l.61-1.053a10.7 10.7 0 0 1 2.836 2.625Zm37.985-1.723-.922-.793c.835-.972 1.636-1.906 2.378-2.778l.926.79c-.743.872-1.544 1.809-2.382 2.781m29.122-5.273-1.217-.047.003-.165a3.98 3.98 0 0 0-1.12-2.715l.896-.824a5.18 5.18 0 0 1 1.441 3.54Zm-24.372-.304-.931-.784a485 485 0 0 0 2.277-2.719l.545.298.467.39c-.349.418-1.173 1.408-2.358 2.815m12.899-1.537-.48-.374-.609-.003a3.96 3.96 0 0 0-.945-2.308l.922-.794A5.24 5.24 0 0 1 170.096 22l.31.294a7 7 0 0 0-.412.468m3.15-2.464-.485-1.116a5.9 5.9 0 0 1 2.367-.52 1.2 1.2 0 0 1 .375.013 7 7 0 0 1 1.213.193l-.292 1.18a6 6 0 0 0-1.011-.16c-.098-.007-.175-.004-.285-.01a4.7 4.7 0 0 0-1.882.42m-11.068-1.007-.596-1.06a6 6 0 0 1 3.882-.855l-.175 1.203a4.8 4.8 0 0 0-3.111.712m-39.759 151.901-1.798-3.176c.319-.18 32.039-18.55 46.751-58.862l3.43 1.25c-15.193 41.63-47.034 60.026-48.383 60.788"/><path fill="currentColor" d="m172.894 98.931-11.816 10.101 7.187 2.616 7.187 2.616zm-59.942 75.786 15.537-.496-3.973-6.535-3.974-6.535zM203.245.141a41 41 0 0 0-1.085 5.582 195 195 0 0 1-1.067 5.607c-.753 3.635-1.63 7.232-2.709 10.785a33 33 0 0 1-1.792 5.272 20.8 20.8 0 0 1-3.152 4.295c-2.458 2.79-4.997 5.512-7.5 8.262q-2.22 2.442-4.433 4.891l-2.211 2.45c-.453.502-.925.992-1.352 1.517a20.1 20.1 0 0 0-3.123-6.604c-.143-.255-.297-.5-.45-.747 1.03-1.965.514-4.271-.086-6.304a26.4 26.4 0 0 0-3.067-6.79 8.1 8.1 0 0 0-4.953-3.855c-2.348-.517-4.734.067-7.081.277-5.424.484-10.786-.827-16.198-.871-4.448-.037-9.168.787-12.616 3.803a13.66 13.66 0 0 0-3.82 5.71 12.2 12.2 0 0 0-.725 5.522 10 10 0 0 0 .061 1.202l-4.18-.01a33 33 0 0 0-3.967.086c-.102.013-.198.044-.298.062a.34.34 0 0 0-.269.055 32 32 0 0 1-3.134.846 16 16 0 0 1-1.976.085c-.176-.15-.358-.296-.541-.448q-.093-.078-.185-.158a13.7 13.7 0 0 0-2.16-1.904q-.07-.067-.142-.133a20.4 20.4 0 0 1-2.31-2.57 28.3 28.3 0 0 1-3.438-6.072c-.192-.455-.363-.917-.534-1.378a78 78 0 0 1-2.238-8.251c-.389-1.944-.724-3.901-1.075-5.848-.335-1.857-.704-3.673-1.175-5.464-.1-.53-.205-1.057-.302-1.587l-.485-2.643c-.165-.894-.475-1.714-.692-2.585-.044-.175-.338-.144-.322.044.061.728.021 1.438.118 2.17.105.79.253 1.577.386 2.363.274 1.62.569 3.239.87 4.855q.884 4.756 1.86 9.496c1.102 5.332 2.567 10.786 5.955 15.168.27.349.571.668.86.999a21 21 0 0 0 1.752 1.919 12 12 0 0 0 1.903 1.615c.156.132.306.27.463.4q-.296-.007-.587-.009c-1.343-.002-2.686-.007-4.029-.004-1.319.003-2.661-.056-3.978.058-.389-1.217-2.035-1.165-3.156-1.3-3.906-.466-7.862-.563-11.789-.775l-11.696-.634c-2.176-.117-4.385-.358-6.564-.31a5.18 5.18 0 0 0-3.606 1.22.4.4 0 0 0-.19-.17 1.8 1.8 0 0 0-.5-.068q-.205-.018-.41-.044a37 37 0 0 1-1.65-.236q-.423-.156-.832-.35a18 18 0 0 1-2.83-1.73 32 32 0 0 1-4.467-3.936 35.5 35.5 0 0 1-6.64-9.935 32.5 32.5 0 0 1-2.199-6.54c-.02-.102-.167-.057-.152.041a32.7 32.7 0 0 0 1.398 6.165 31.7 31.7 0 0 0 2.6 5.667 32.4 32.4 0 0 0 8.325 9.33 19.7 19.7 0 0 0 3.204 2.031 12 12 0 0 0 1.835.726q.187.057.384.114a.5.5 0 0 0 .355.142q.08-.001.161-.005c.577.656 1.207 1.65.498 2.257-.365.312-.691-.066-.926-.347a5.6 5.6 0 0 0-.955-1.03 14.2 14.2 0 0 0-3.18-1.212 16.8 16.8 0 0 1-3.146-1.704c-4.195-2.84-6.963-7.264-9.332-11.636a33.5 33.5 0 0 1-1.935-4.075 37 37 0 0 1-.324-1.306c-.246-1.095-.365-2.212-.606-3.305a.406.406 0 0 0-.576-.3.33.33 0 0 0-.454-.032 2.86 2.86 0 0 0-.9 1.14.32.32 0 0 0-.125.231c-.003.037.003.074 0 .111l-.011.032c-.034-.197-.076-.394-.108-.592-.013-.08-.136-.057-.138.019-.245 10.563 6.665 20.429 15.775 25.308a32 32 0 0 0 3.811 1.724q1.037.39 2.1.703a3.7 3.7 0 0 0 1.395.287l-.034.091a2.175 2.175 0 0 0 .493 2.594 3.34 3.34 0 0 0 1.55.396l2.553.294a923 923 0 0 1 19.811 2.54q2.694.372 5.385.767 1.375.2 2.752.395a7.7 7.7 0 0 0 1.644.132 1.33 1.33 0 0 0 1.475-.46 30 30 0 0 0 3.488.481l3.756.459a29.2 29.2 0 0 1 7.092 1.498 17 17 0 0 0 3.012 1.17 11 11 0 0 0 1.807.024c.647.01 1.29.066 1.933.127q1.913.181 3.826.369l1.912.184a2.36 2.36 0 0 0 1.154-.023 23.27 23.27 0 0 0 5.63 13.89 20.4 20.4 0 0 0 9.167 6.124c4.412 1.412 9.174 1.355 13.73.832a24.6 24.6 0 0 0 12.014-4.308 24.96 24.96 0 0 0 7.828-9.54 24.27 24.27 0 0 0 1.808-14.836 35.5 35.5 0 0 0 3.76-3.976q2.02-2.218 4.033-4.444c2.572-2.847 5.176-5.67 7.7-8.56a33 33 0 0 0 3.28-4.164 19 19 0 0 0 1.945-4.931c1.035-3.655 1.884-7.387 2.679-11.1.45-2.1.866-4.208 1.22-6.325a31.4 31.4 0 0 0 .754-6.483.2.2 0 0 0-.392-.054m-76.54 37.193.019-.26a12 12 0 0 1 .436-2.672 13 13 0 0 1 2.886-5.119c2.957-3.202 7.337-4.31 11.557-4.447 4.76-.155 9.455.846 14.202.963a64 64 0 0 0 7.042-.51c2.296-.194 4.463.102 6.128 1.826a19.2 19.2 0 0 1 3.765 6.59c.753 2 1.749 4.663 1.045 6.831-.097-.145-.193-.296-.29-.438a12.1 12.1 0 0 0-3.336-3.243 1.6 1.6 0 0 0 .091-.642 5.1 5.1 0 0 0-1.296-2.642 9.9 9.9 0 0 0-4.324-2.862 2.9 2.9 0 0 0 .244-1.328 3.9 3.9 0 0 0-.288-1.938 2.64 2.64 0 0 0-1.484-1.236 6.8 6.8 0 0 0-2.475-.513 4.52 4.52 0 0 0-2.765 1.281.6.6 0 0 0-.026-.137c-.324-.73-1.63-.71-2.324-.83q-1.37-.237-2.755-.37a37.4 37.4 0 0 0-5.919-.104c-.414.026-.826.089-1.24.13a26.5 26.5 0 0 0-6.783 1.046 11.7 11.7 0 0 0-3.152 1.44c-.733.497-1.93 1.292-1.894 2.289a2.6 2.6 0 0 0 .27.953 5.6 5.6 0 0 0-1.182.312 7 7 0 0 0-1.531.705 4.1 4.1 0 0 0-1.931 2.25 2.93 2.93 0 0 0 .442 1.574q.363.864.755 1.715.399.865.825 1.716c.067.133.135.297.209.465-.592.008-1.184.026-1.765.025l-3.116-.007a18 18 0 0 1-.065-.823 36 36 0 0 1 .024-1.99m32.098-8.206a54 54 0 0 0-1.406-.43c.14-.101.274-.213.41-.32l.78.33a7 7 0 0 0 .987.368.025.025 0 0 0 .019-.045 7 7 0 0 0-.962-.427l-.74-.291c.389-.311.773-.63 1.176-.916a2.83 2.83 0 0 1 1.668-.614 5.7 5.7 0 0 1 2.181.525c1.229.571 1.082 2.011.927 3.135-.119-.036-.234-.086-.353-.12a27 27 0 0 0-3.055-.657c-.169-.058-.34-.11-.506-.167q-.56-.192-1.126-.371m.205.336a55 55 0 0 0-2.448-.252 5 5 0 0 0 .617-.358c.518.177 1.04.344 1.56.518Zm-22.095 4.335a11.8 11.8 0 0 0 1.046 2.959 4 4 0 0 1-.192.168.57.57 0 0 0-.24-.294l-.01-.002a4 4 0 0 1-.252-.693q-.197-.488-.402-.975l-.758-1.808-.7-1.669a5 5 0 0 1-.35-.834c-.072-.408.09-.498.342-.74a10.86 10.86 0 0 1 5.461-2.41c-.086.028-.175.046-.261.076a14 14 0 0 0-2.611 1.202c-.737.44-1.666.962-1.824 1.883-.17.992.464 2.21.75 3.137m-3.157-.06a3.8 3.8 0 0 0 .747 1.262 4.8 4.8 0 0 1 .715 1.195c.183.413.3.855.495 1.264q.156.322.33.636a1.6 1.6 0 0 0 .16.252 25 25 0 0 0-1.998 2.081.39.39 0 0 0-.282-.19 11 11 0 0 0-1.314-.101c-.087-.177-.196-.35-.275-.51q-.367-.736-.712-1.483a32 32 0 0 1-1.288-3 .59.59 0 0 1 .07-.615 3.3 3.3 0 0 1 .382-.53 4.5 4.5 0 0 1 .988-.825 7 7 0 0 1 1.397-.643 9 9 0 0 0 1.22-.39q.02.04.038.082l.888 2.08c.296.694.586 1.39.893 2.078.2.448.35 1 .815 1.193-.158.14-.305.29-.46.432-.032-.052-.06-.102-.099-.158q-.179-.258-.346-.523c-.246-.39-.544-.752-.754-1.165a4.6 4.6 0 0 1-.47-1.338 3.8 3.8 0 0 0-.465-1.368c-.215-.344-.806-.129-.675.284m-24.767 12.977c.047-.689.1-1.377.124-2.068a14 14 0 0 0 .024-2.31 1 1 0 0 0-.034-.102c.262.002.53-.001.79.004.697.012 1.405.055 2.112.078a3 3 0 0 0 .448.216.287.287 0 0 0 .36-.206c.411-.001.82-.012 1.225-.051a26 26 0 0 0 3.16-.819c.148.405.328.803.465 1.207a18 18 0 0 1 .514 1.843 15.2 15.2 0 0 1 .378 4.148 16 16 0 0 1-.71 3.914.4.4 0 0 0-.107-.066l-1.383-.374a.46.46 0 0 0-.557.316c-.135.615-1.372.908-1.439.1-.053-.653.367-1.929 1.19-1.793a.36.36 0 0 0 .437-.248q.106-.504.188-1.02a.7.7 0 0 0 .055-.134 2.2 2.2 0 0 0 .037-.543 16 16 0 0 0-.38-6.339c-.046-.162-.317-.184-.35 0-.138.764-.31 1.535-.414 2.304a2.34 2.34 0 0 1-1.708 2.037.317.317 0 0 0-.215.38 11.3 11.3 0 0 1 .329 3.04c-.017.82-.331 2.235-1.383 2.097-.204-1.617-.434-3.245-.586-4.865a4.5 4.5 0 0 1 .062-1.443 2.8 2.8 0 0 0 .142-1.15 1.06 1.06 0 0 0-.848-.863.612.612 0 0 0-.767.719 19 19 0 0 1 .122 2.495 17.3 17.3 0 0 1-.778 4.437 9 9 0 0 0-1.031-.993 33 33 0 0 0 .528-3.948m-2.45-3.17c-.03-.188-.07-.373-.104-.559a.8.8 0 0 1-.043-.24.46.46 0 0 0 .116-.522c.43.001.856.006 1.286.006a1.7 1.7 0 0 0-.16 1.01c.05.444.188.87.229 1.318a10 10 0 0 1 .018 1.452c-.044.887-.168 1.77-.275 2.651l-.173 1.431c-.038.319-.1.668-.143 1.013a.7.7 0 0 0-.138.167.8.8 0 0 0-.07.267l-.008.003a1 1 0 0 0-.104.011l-.074.033-.01.002-.01.007-.04.017.033-.013a.4.4 0 0 0-.077.05.8.8 0 0 0-.554-.017 1.4 1.4 0 0 0-.699-.035 29.6 29.6 0 0 1 .909-4.613 11.5 11.5 0 0 0 .18-2.357 8 8 0 0 0-.09-1.083m-.858 2.03c.014.186.04.371.046.558a12.3 12.3 0 0 1-.634 5.524.4.4 0 0 0-.066-.1 23.7 23.7 0 0 0 .634-4.36c.03-.54.023-1.081.02-1.622m-1.485-3.394c.249.01.5.011.749.017a.53.53 0 0 0-.054.346c.054.266.198.447.276.708a3.7 3.7 0 0 1 .124.697c.045.443.058.892.07 1.337q.033 1.242-.048 2.484a26 26 0 0 1-.335 2.807 2.9 2.9 0 0 1-.194.916.8.8 0 0 0-.506.162c-.505-.128-.706-.506-.979-.906-.236-.347-.451-.49-.346-.938.094-.403.283-.812.405-1.21.24-.784.385-1.602.648-2.375a6.26 6.26 0 0 0 .19-4.045m-4.094 9.695a2.04 2.04 0 0 1-1.171 1.475 12 12 0 0 0-3.363-.615c-1.492-.202-2.986-.396-4.479-.594q-4.569-.606-9.142-1.181c-2.999-.376-6-.723-9.002-1.083q-2.251-.27-4.504-.53c-.75-.087-1.504-.158-2.253-.258a1.07 1.07 0 0 1-.901-.432 1.4 1.4 0 0 1-.033-1.11 18 18 0 0 0 .615-1.874 6.5 6.5 0 0 0-.01-1.859c-.09-.714-.247-1.418-.335-2.132-.06-.489-.015-.971-.065-1.447a6.5 6.5 0 0 1 1.056-.671 5.9 5.9 0 0 1 2.609-.423c1.59.026 3.184.168 4.771.255l9.897.543c3.336.182 6.672.357 10.007.549 1.6.092 3.2.2 4.792.381q.663.076 1.324.171a2.8 2.8 0 0 1 1.084.218c.53.399.166 1.981.125 2.53q-.207 2.818-.61 5.616c-.119.821-.212 1.665-.412 2.471m16.316 3.94c-.695-.281-1.38-.685-2.04-.92a30.6 30.6 0 0 0-6.757-1.35q-1.866-.221-3.733-.435c-1.019-.119-2.08-.303-3.12-.354.026-.058.057-.118.077-.175a13.3 13.3 0 0 0 .482-2.496q.217-1.45.385-2.908.152-1.323.261-2.65a23 23 0 0 0 .168-2.49c.323.034.65.047.976.07v.002a11.4 11.4 0 0 1 .485 3.073 8.3 8.3 0 0 1 .022 1.786 11 11 0 0 1-.396 1.69q-.13.39-.283.773a3 3 0 0 1-.205.487 3 3 0 0 0-.242.31.56.56 0 0 0-.044.353.338.338 0 0 0-.53.41c.018.025.04.041.058.064l-.005.004.705.75q.166.179.337.352c.135.138.27.322.465.367a.3.3 0 0 0 .109-.002.45.45 0 0 0 .372.232l.271.008a1 1 0 0 0 .334-.051 3 3 0 0 0 .284-.092c1.416.338 2.912.217 4.317.642a1.3 1.3 0 0 0 .849.04.7.7 0 0 0 .342-.273c.054-.08.084-.304.14-.34.268-.167.555.297.655.46.17.277.31.615.679.615l.005-.002.014.008c.902.182 1.81.348 2.71.539a2.22 2.22 0 0 1 1.766 1.078.4.4 0 0 0 .179.197 2 2 0 0 0-.092.227m12.39-6.441a2.6 2.6 0 0 1-1.026.34 20 20 0 0 1-2.416.156 29.5 29.5 0 0 1-4.998-.304.44.44 0 0 0-.531.301 36.6 36.6 0 0 1-1.589 5.028.438.438 0 0 0 .42.551q2.386-.021 4.771.1 1.192.062 2.381.162c.743.063 1.51.2 2.258.201-.01.333-.024.666-.02.998a3.5 3.5 0 0 0-1.123-.175l-1.765-.172-3.825-.372c-.642-.062-1.286-.127-1.932-.139-.623-.012-1.252.103-1.874.064a3 3 0 0 1-.278-.058 6.6 6.6 0 0 0 .528-.963 15.8 15.8 0 0 0 1.696-6.318 17.7 17.7 0 0 0-.25-4.312 11.6 11.6 0 0 0-.975-3.162c1.141-.093 2.308-.036 3.446-.033l4.078.01 4.077.009c1.208.002 2.46.087 3.668-.032a27 27 0 0 0-4.03 7.32.39.39 0 0 0-.3-.17c-.742-.057-1.457.18-2.2.154-.339-.012-.677-.037-1.015-.056a3 3 0 0 1-.508-.035c-.188-.047-.311-.172-.49-.228a3.1 3.1 0 0 0-1.032.002c-.337.007-.678-.015-1.014-.022a16 16 0 0 0-2.198.097c-.06.007-.083.095-.015.112a14 14 0 0 0 2.043.346c.338.032.677.058 1.015.091a5.3 5.3 0 0 0 1.07.141 2.2 2.2 0 0 0 .458-.14 1.7 1.7 0 0 1 .67-.043c.339.012.678.018 1.016.036.712.039 1.38.3 2.091.323a6 6 0 0 1-.282.192m47.578 12.83A22.74 22.74 0 0 1 158.825 77.3c-7.892 1.404-16.811 1.003-22.948-4.742a21.67 21.67 0 0 1-6.41-19.513 26.2 26.2 0 0 1 4.993-11.071 28 28 0 0 1 4.293-4.45c1.6-1.334 3.572-2.458 4.535-4.372.08-.16-.123-.341-.257-.2a13.6 13.6 0 0 1-2.415 1.945c.027-.073.06-.142.086-.216a7 7 0 0 1 .935-2.023 5.5 5.5 0 0 1 1.637-1.328 11 11 0 0 1 1.523-.593 19 19 0 0 1 3.584-.485 53.5 53.5 0 0 1 8.305.09 28.8 28.8 0 0 1 7.933 1.556 9.7 9.7 0 0 1 3.021 1.857c.457.424 1.709 1.746 1.689 2.631-.21-.114-.413-.245-.63-.345a22.2 22.2 0 0 0-6.503-1.637A53 53 0 0 0 154.43 34q-2.134.041-4.255.281a27.4 27.4 0 0 0-4.227.948c-.034.009-.029.066.008.063 1.55-.139 3.106-.17 4.658-.282a56 56 0 0 1 4.698-.15 42 42 0 0 1 9.066 1.052 14.47 14.47 0 0 1 7.106 3.767 18.8 18.8 0 0 1 2.537 3.067c.504.784.917 1.584 1.42 2.346a22.4 22.4 0 0 1 1.72 5.182 22.9 22.9 0 0 1-.776 11.932"/><path fill="currentColor" d="M78.26 40.561a3.9 3.9 0 0 0-1.09-.232l-1.067-.054-2.31-.116a50 50 0 0 0-4.622-.027c-.019 0-.025.031-.005.034a50 50 0 0 0 4.537.477l2.31.14 1.156.068a3.8 3.8 0 0 0 1.09-.114c.093-.02.08-.15 0-.176m18.07 2.492c-.478-.344-1.243-.214-1.813-.245q-1.103-.06-2.204-.154a92 92 0 0 1-2.198-.212 5.9 5.9 0 0 1-2.146-.377c-.493-.283-.639-.905-1.113-1.201a3 3 0 0 0-1.542-.189c-1.505-.008-3.01-.034-4.515-.027a.009.009 0 0 0 0 .018c1.469.09 2.942.122 4.41.223a3.36 3.36 0 0 1 2.051.836c.365.354.62.894 1.097 1.107a6 6 0 0 0 1.636.272q1.098.135 2.198.228 1.1.092 2.203.15c.585.03 1.421.228 1.936-.1a.193.193 0 0 0 0-.329"/></svg>