<svg xmlns="http://www.w3.org/2000/svg" id="Layer_2" data-name="Layer 2" viewBox="0 0 60.23 89.88"><defs><style>.cls-1{fill:currentColor;fill-opacity:.5}</style></defs><g id="Layer_1-2" data-name="Layer 1"><g id="Layer_1-3" data-name="Layer_1"><g id="_2659736254800" data-name="2659736254800"><path fill="currentColor" d="M7.36 33.01c.53-.3.84-.49 1.22-1.02.1 1.19-1.75 1.94-2.75 2.1-.9.14-1.97-.17-1.97-.17 1.43-.06 2.28-.22 3.49-.9Zm30-13.78s.74.22 2.24-.53c-.11.4-1.28 1.05-2.48 1.02l.25-.49Zm18.7 21.92c.95.41 1.16 1.14 1.18 2.03 0 0-.63-1.2-1.39-1.53-.84-.36-4.23-1.21-4.24-1.21 1.3.11 3.35.23 4.45.7ZM42.03 27.13s.89 1.69 2.8 1.98c-1.03.29-2.66-.54-3.1-1.52zm11.59-1.28c-.18.82-.94 1.36-1.68 1.58 1.03-.88 1.14-1.7 1.14-1.7zm.32 2.93c-.5.58-2.34 1.26-3.12.84 1.95-.22 2.7-1.2 2.71-1.2l.42.36Zm-11.8-2.97s1.06 1.41 2.75 1.58c1.79.19 3.09.19 3.1.19-1 .14-1.84.44-3.18.3-1.93-.2-3.09-1.73-3.1-1.73zM6.58 41.3s1.01.02 1.55-.15c.29-.09.65-.24.98-.39 1.38-.64 1.34-.9 2.49-1.7-.26.53-.96 1.39-1.46 1.75-.18.13-.48.29-.81.45-.86.39-1.93.68-2.75.03Zm4.96-2.53c-.28.01-1.1.22-1.69.4-1.24.38-1.92.73-2.86 1.67.66-1.83 3.12-2.44 4.56-2.07Zm-3.28-6.55c-.56.16-1.29.17-1.97.42-.64.24-1.25.72-1.72.97.24-.46.72-.97 1.28-1.3.53-.31 1.43-.46 2.41-.1Zm2.04-.96s2.55-.05 3.63-1.7l.25.47c-.76 1.16-2.43 1.85-3.89 1.24Zm1.65-2.59c.56-.35 1.73-.34 2.31.03 0 0-1.52.13-2.02.44-.54.34-2.29 1.77-2.29 1.77.37-.91 1.16-1.71 2-2.24m-4.33-6.73c1.62-.19 3.14-1.31 3.14-1.32-.19 1.42-2.03 1.46-3.14 1.32m-1-1.04c3.18-.2 4.4-1.9 4.41-1.91-.81 1.62-2.61 2.74-4.41 1.91" class="cls-1"/><path fill="currentColor" d="M11.95 39.65s-1.61-2.45-1.81-2.92c-.08-.19-.31-.9-.59-1.75-.42-1.3-.96-2.94-1.18-3.42-.16-.35-.29-.97-.45-1.73-.25-1.21-.58-2.8-1.19-4.01-.45-.89-.98-1.59-1.54-2.1-.61-.55-1.22-.87-1.75-.95-.36-.06-.77.09-1.15.32-.58.36-1.08.89-1.31 1.25-.12.19-.11 1.07-.04 2.2.11 1.83.42 4.23.61 5.6.3 2.16 1.19 5.45 1.65 7.16l.05.19c.34 1.25 1.24 3.48 2.01 5.39.23.58.46 1.13.64 1.59.44 1.11.84 2.5 1.2 3.77.33 1.14.63 2.19.88 2.79l-.81.35c-.28-.66-.59-1.73-.92-2.9-.36-1.25-.75-2.62-1.17-3.69l-.63-1.58c-.78-1.93-1.69-4.2-2.04-5.49l-.05-.19C1.9 37.81 1 34.49.69 32.27c-.19-1.38-.5-3.8-.62-5.67-.08-1.3-.06-2.36.17-2.73.28-.45.9-1.1 1.6-1.53.26-.16.53-.28.81-.37-.14-.66-.62-2.95-.96-4.42-.13-.54-.4-1.27-.68-2.04-.6-1.59-1.24-3.32-.93-4.33.23-.75.91-1.45 1.72-1.95.84-.51 1.84-.83 2.65-.77.84.06 1.84.5 2.82 1.38.82.73 1.64 1.78 2.36 3.18.89 1.72 1.47 3.67 1.97 5.38.36 1.21.68 2.3 1.05 3.07.92 1.94 1.83 4.87 1.83 4.87l-.55.7s-1.19-3.33-2.08-5.2c-.39-.83-.73-1.95-1.09-3.2-.49-1.67-1.06-3.57-1.91-5.22-.67-1.3-1.42-2.26-2.16-2.93-.83-.74-1.63-1.1-2.29-1.15-.63-.04-1.43.22-2.12.65-.65.4-1.18.93-1.34 1.45-.22.72.37 2.3.9 3.75.29.78.57 1.53.71 2.14.36 1.52.89 4.05.99 4.54h.06c.68.12 1.46.51 2.2 1.18.63.57 1.23 1.35 1.73 2.35.66 1.32 1 2.97 1.27 4.23.15.7.27 1.28.39 1.54.24.52.78 2.19 1.22 3.52.27.83.49 1.52.56 1.68.18.42 1.72 2.77 1.73 2.77l-.73.49Zm7.87-28.91c-.12-.39-.39-.98-.72-1.6-.31-.59-.68-1.2-1.03-1.68-.47-.65-1.34-.99-2.23-1.03-.39-.02-.79.02-1.16.11-.36.09-.69.24-.96.43-.4.29-.67.7-.7 1.22-.02.37.02.82.09 1.34.08.53.19 1.11.32 1.7l.29 1.24c.54 2.34 1.42 6.12 1.49 7.17l-.79.36c-.07-.97-1.03-5.02-1.57-7.33l-.29-1.24c-.14-.63-.26-1.23-.34-1.77-.08-.56-.12-1.07-.1-1.5.04-.82.45-1.45 1.07-1.89.36-.26.8-.45 1.26-.57.45-.11.94-.16 1.42-.14 1.14.06 2.27.51 2.9 1.4.38.53.77 1.17 1.09 1.78.35.67.64 1.31.78 1.75l-.84.27Zm21.47 16.08c.03-2.02-.3-4.06-.6-5.87-.16-.98-.31-1.89-.39-2.73-.11-1.17-.38-2.52-.76-3.84-.37-1.26-.84-2.49-1.37-3.5-.46-.87-1.01-1.42-1.58-1.76-.71-.42-1.47-.52-2.14-.46-.56.05-1.1.4-1.51 1.03s-.7 1.52-.77 2.65l-.88-.06c.09-1.29.43-2.33.92-3.08.57-.86 1.34-1.35 2.17-1.42s1.77.05 2.66.58c.71.42 1.37 1.09 1.91 2.11.56 1.07 1.05 2.35 1.44 3.67.34 1.17.6 2.37.74 3.46.11-.88.52-2.24 1.14-3.67.6-1.39 1.4-2.85 2.33-4.02 1.07-1.34 2.15-2 3.16-2.26 1.02-.27 1.96-.13 2.72.12.82.26 1.34.7 1.66 1.25.31.54.4 1.16.35 1.79-.03.48-.2 1.34-.38 2.27-.26 1.32-.55 2.8-.51 3.45.04.62.21 1.65.48 2.82.23 1 .54 2.09.91 3.13.38 1.08.68 2.15.9 3.11.26 1.12.4 2.11.45 2.81.03.58.41 1.79.96 3.3.57 1.55 1.31 3.41 2.08 5.28.78 1.9 1.36 3.41 1.71 4.95.35 1.55.45 3.11.25 5.09-.19 1.94-.41 3.68-.67 5.26-.26 1.59-.55 3.03-.89 4.34-.49 1.88-.65 4.47-.81 6.94-.06.89-.11 1.77-.18 2.55-.62 7.31.05 10.86.98 15.77.25 1.31.55 3.09.81 4.69l-.91-.24c-.26-1.58-.53-2.98-.77-4.29-.94-4.99-1.62-8.59-.99-16.01.07-.83.12-1.68.18-2.53.16-2.51.33-5.14.84-7.1.33-1.29.62-2.69.87-4.26s.47-3.29.66-5.21c.19-1.88.09-3.35-.23-4.81-.33-1.47-.9-2.94-1.66-4.8-.77-1.88-1.53-3.76-2.1-5.32-.58-1.59-.97-2.88-1.01-3.55-.04-.65-.18-1.59-.43-2.66a25 25 0 0 0-.88-3.01c-.38-1.07-.69-2.2-.93-3.23-.28-1.22-.46-2.3-.5-2.96-.05-.76.25-2.3.52-3.67.18-.91.34-1.74.37-2.16.03-.48-.03-.93-.24-1.3-.21-.36-.57-.66-1.16-.84-.64-.2-1.41-.32-2.24-.11-.84.22-1.76.78-2.69 1.96-.88 1.11-1.64 2.5-2.22 3.82-.69 1.58-1.09 3.04-1.09 3.76 0 .48.05 1.26.11 2.17.11 1.79.26 4.09.15 5.75-.17 2.45.11 5.2.11 5.21l-.91-.2s-.2-1.97-.13-4.15h-.01Z" class="cls-1"/><path fill="currentColor" d="m17.97 45.08.32-.11c1.35-.44 2.45-.8 3.25-2.24.36-.64.61-1.49.78-2.36.26-1.3.33-2.63.33-3.37 0-.65.08-1.58.22-2.57.13-.98.32-2.03.54-2.94.41-1.75.41-2.76.41-2.76v-.06s.96-6.5.96-8.81c0-.92-.38-1.64-.93-2.15-.68-.63-1.62-.95-2.45-.95-.75 0-1.49.28-2.11.75a4.14 4.14 0 0 0-1.4 1.93c-.53 1.55-1.66 6.35-2.18 8.58l-.14.61c-.24 1.03-.75 2.99-1.24 4.85-.33 1.26-.65 2.48-.89 3.43-.15.59-.29 1.22-.44 1.91-.45 2.04-1.01 4.54-1.81 6.53-.56 1.39-1.38 3.37-2.16 5.2-.71 1.66-1.38 3.2-1.78 4.06s-.66 1.56-.76 2.37c-.1.82-.05 1.77.16 3.1.17 1.08.36 1.94.54 2.73.29 1.28.53 2.37.53 3.7 0 3.96 2.91 8.14 5.44 11.78a83 83 0 0 1 2.01 2.98c.84 1.33 1.72 2.99 2.48 4.57.74 1.52 1.38 2.99 1.78 4.04h-.95c-.39-.99-.97-2.3-1.63-3.66-.76-1.56-1.62-3.18-2.44-4.48-.57-.91-1.26-1.91-1.98-2.94-2.61-3.75-5.6-8.06-5.6-12.29 0-1.25-.23-2.29-.51-3.51-.18-.82-.39-1.72-.55-2.79-.22-1.42-.27-2.44-.16-3.34.11-.92.39-1.7.84-2.64.4-.85 1.07-2.38 1.77-4.03.77-1.82 1.59-3.79 2.15-5.18.77-1.93 1.32-4.39 1.77-6.4.16-.74.32-1.42.44-1.93.2-.8.54-2.1.89-3.44.48-1.83.98-3.75 1.23-4.83l.14-.61c.53-2.25 1.66-7.09 2.2-8.67.33-.95.94-1.77 1.7-2.35.77-.58 1.69-.93 2.64-.93 1.03 0 2.2.4 3.05 1.19.72.67 1.21 1.6 1.21 2.8 0 2.27-.88 8.41-.96 8.9 0 .18-.04 1.25-.44 2.94-.21.89-.39 1.91-.52 2.86s-.21 1.83-.21 2.46c0 .78-.08 2.17-.35 3.54-.19.95-.47 1.89-.88 2.62-.97 1.73-2.21 2.14-3.75 2.65l-.32.11c-1.64.54-5.1.74-6.04 1.12 1.99-.84 3.72-1.28 5.76-1.96Z"/><path fill="currentColor" d="M15.79 52.3c1.57.03 3.63-.01 5.31-.18 2.18-.22 5.74-1.84 5.75-1.85l.31.71s-3.68 1.68-5.99 1.91c-1.72.18-3.8.14-5.4.11-.46 0-.87-.02-1.34-.02-1.51 0-4.33.81-4.34.81 1.62-1.2 3.7-1.52 5.69-1.49Zm9.9-41.81c0-.13-.26-.45-.64-.77-.33-.27-.73-.5-1.11-.57-1.25-.21-2.69 1.07-3.95 2.19-.61.54-1.18 1.05-1.72 1.38-.24.15-.46.27-.68.39-.61.34-1.15.64-1.59 1.26-.57.79-.62 2.28-.69 4.09-.05 1.35-.1 2.87-.38 4.45-.13.73-.29 2.65-.31 4.59-.01 1.36.04 2.74.21 3.73l-.87.16c-.19-1.05-.24-2.48-.23-3.89.02-2.01.19-3.98.32-4.74.27-1.54.32-3.02.37-4.33.07-1.95.13-3.56.85-4.57.56-.78 1.18-1.13 1.88-1.52.21-.12.43-.24.64-.37.47-.29 1.02-.78 1.6-1.29 1.41-1.25 3.02-2.68 4.68-2.4.56.09 1.1.4 1.53.76.57.47.96 1.08.96 1.44h-.89Z"/><path fill="currentColor" d="M35.43 40.12s-3.38 1.27-4.02 1.76c-.3.23-.97 1.45-1.67 2.89-.71 1.48-1.43 3.17-1.77 4.32-.26.86-.5 1.9-.71 2.9a70 70 0 0 0-.67 3.72c-.04.27-.13.53-.22.83-.77 2.34.15 4.83 1.13 6.98-1.5-1.31-2.65-5.18-1.97-7.25.08-.26.16-.49.19-.68.06-.44.32-2.05.68-3.78.21-1.03.46-2.09.73-2.97.36-1.19 1.09-2.94 1.82-4.45.75-1.55 1.52-2.89 1.92-3.2.8-.63 3.34-.91 4.56-1.07M24.04 32.7s.6 2.44.77 4.09c.07.65.09 1.38.09 2.03 0 1.02-.06 1.92-.09 2.13-.05.33-.35.53-.74.66-.39.12-.92.18-1.22.2l-.05-.88c.14 0 1.13-.05 1.14-.12.03-.19.08-1.01.08-1.99 0-.64-.02-1.34-.08-1.94-.16-1.57-.75-3.95-.75-3.96l.86-.21Z"/><path fill="currentColor" d="M24.66 40.73s.32.3 1.85.53c.68.1 1.51.13 2.25.12 1.01-.01 1.87-.08 2.07-.15l.28.84c-.27.09-1.25.19-2.34.2-.8 0-1.67-.03-2.39-.13-1.78-.26-2.28-.72-2.28-.72l.56-.68Zm7.4.07s-.54-1.73-.95-2.62c-.16-.34-.6-1.2-1.14-2.25-1.12-2.2-2.67-5.22-2.96-6.01-.13-.36-.4-.86-.72-1.45-.65-1.2-1.48-2.75-1.89-4.46l.86-.2c.38 1.6 1.18 3.09 1.8 4.24.33.62.61 1.14.77 1.56.28.76 1.81 3.74 2.91 5.91.57 1.11 1.03 2.02 1.16 2.28.44.94.99 2.74 1 2.74zm11.16 3.15c1.27.58 3.34 1.93 3.98 3.82-1.18-1.44-3.72-2.91-4.27-3.16-2.55-1.15-5.07-1.56-5.08-1.56 2.16.15 3.14-.1 5.36.91Zm-16.41 9.12s-.4.15-2.41.86c-.89.31-1.74.57-2.56.82-3 .92-5.52 1.69-8.18 4.6 1.68-2.89 4.85-4.5 7.92-5.44.8-.24 1.63-.5 2.53-.81 1.98-.69 2.37-.84 2.38-.84l.33.82Zm1.87 6.44c-.11 2.24.5 4.78 1.71 7.05.64 1.2 2.36 4.03 2.85 4.68-1.22-.92-2.76-2.78-3.36-3.92-1.08-2.04-2.14-5.68-1.19-7.81ZM14.93 73.43c-1.48 2.25-1.39 3.28-1.36 6.01-1.21-1.69-.66-5.22 1.36-6.01m12.97 9.36c-1.6 1.14-3.06 1.79-4.92 2.08 2.67-1.2 5.4-3.21 7.43-5.32 1.96-2.03 2.52-3.09 2.53-3.09-.42 2.86-2.8 4.73-5.04 6.33m11.49 2.54s-1.37-2.83-2.03-4.21c-.63-1.33-2.01-3.47-2.02-3.47 2.03 1.62 4.27 4.98 4.04 7.68Zm-.54-8.58s.6 2.17 1.45 4.24c.87 2.1 3.42 7.06 3.43 7.08-1.76-1.89-5.94-8.58-4.88-11.32m11.37-5.31s-4.06.12-6.88 1.21c-1.86.72-4.68 2.18-6.57 2.26 2.24-.79 4-2.14 6.13-2.96 1.93-.74 5.26-1.09 7.33-.51Z"/><path fill="currentColor" d="M22.65 16.71s.06-3.07 1.31-4.71c.61-.8 1.24-1.4 1.88-1.82.66-.43 1.33-.69 2-.79.72-.11 1.27 0 1.72.27.44.28.74.72.95 1.29.18.48.67 1.71 1.18 2.98.48 1.19.98 2.41 1.25 3.03l.18.43c.42 1.01.75 1.82 2.48 3.65l.38.4c1.71 1.8 1.99 2.1 2.93 4.1.48 1.01 1.22 2.24 2.13 3.52a43 43 0 0 0 3.1 3.87c.61.67 1.11 1.21 1.56 1.69 1.29 1.36 2.1 2.22 2.89 3.71.42.79.7 1.71.88 2.6.29 1.4.33 2.71.33 3.28 0 .52.3 2.99.71 5.63.29 1.87.65 3.82 1 5.22.36 1.44.62 3.29.79 5.14.24 2.58.34 5.16.34 6.69 0 2.47.49 4.96 1.21 7.4.73 2.46 1.69 4.86 2.64 7.14 1.71 4.14 3.41 7.76 3.74 8.45h-.97c-.57-1.21-2.07-4.47-3.58-8.11-.95-2.3-1.93-4.73-2.67-7.22-.75-2.51-1.25-5.09-1.25-7.65 0-1.52-.09-4.08-.33-6.61-.17-1.81-.42-3.6-.77-5.01-.35-1.42-.71-3.4-1.01-5.3-.42-2.69-.72-5.22-.72-5.77s-.04-1.8-.31-3.11c-.16-.81-.42-1.64-.79-2.36-.74-1.38-1.51-2.21-2.75-3.52-.46-.49-.99-1.05-1.58-1.7a45 45 0 0 1-3.17-3.96c-.94-1.32-1.71-2.59-2.21-3.65-.88-1.87-1.15-2.15-2.77-3.87l-.38-.4c-1.84-1.95-2.2-2.82-2.65-3.92l-.17-.42c-.27-.63-.77-1.85-1.25-3.05-.5-1.25-1-2.49-1.19-3.01-.15-.4-.34-.69-.6-.85s-.62-.22-1.12-.14c-.55.08-1.1.29-1.64.65-.56.37-1.12.9-1.67 1.62-1.07 1.41-1.13 4.19-1.13 4.19l-.88-.02Zm6.27 16.11.22.51s-.54.23-1.65.34c-1.1.11-2.76-.19-2.76-.19 1.74-.16 2.54-.11 4.2-.66Zm-1.76-1.79c.37-.04.7-.07.84-.07v.55c-.12 0-.43.02-.77.06-.99.12-1.36.38-2.25.72.44-.4 1.29-1.13 2.18-1.27Zm-11.05 6.03s1.56.57 2.47.6c.38.02.84-.05 1.29-.14.93-.2 2.38-.69 3.01-1.45-.1 1.11-1.57 1.71-2.9 1.99-.49.1-.88.08-1.31.07-.97-.04-1.97-.32-2.57-1.07Z"/><path fill="currentColor" d="M21.95 36.29c-.51-.1-1.63-.03-2.5.02l-.46.03c-.86.05-1.9.31-1.9.31 1.44-1 3.29-1.26 4.85-.36Zm5.31-6.79c.81-1.36 2.72-2.58 4.36-2.66-2.49.91-3.3 1.98-3.89 2.94zm-.68-1.13c.27-.69 1.8-2.02 2.72-2.36-1.23.8-2.2 2.56-2.2 2.56l-.51-.2Zm11.77-3.23c-.71.88-2.53 1.67-3.66 1.54 0 0 1.31-.44 2.01-.79.67-.33 1.22-1.09 1.22-1.09zm-8.46-14.47s-1.08.41-1.59.86c-.19.16-.26.41-.27.7 0 .4.13.87.31 1.33.22.54.67 1.58 1.16 2.49.32.59.64 1.11.91 1.38.61.61 2.34.06 2.34.05l.17.52s-2.05.66-2.9-.19c-.31-.31-.67-.88-1.01-1.51-.5-.92-.96-1.99-1.18-2.54-.21-.53-.36-1.07-.35-1.54 0-.44.13-.83.45-1.11.59-.52 1.75-.96 1.75-.96l.21.51Zm6.89 12.54c-1.62-.08-2.92 1.02-3.61 1.33.57-.95 2.47-1.82 3.56-1.88zm.7 1.31s-1.04.12-2.07.67c.35-.34 1.72-1.22 2.07-1.22zm-5.16 16.02s.64-1.46 1.96-2.14c1.14-.59 1.82-.67 2.97-.67-1.9.42-3.6 1.53-4.35 3.19zM17.98 28.56c.42.42 2.36.61 3.06.57 1.13-.06 2.28-.09 3.22-.8-.32.53-.48.83-1.14 1.07-.27.1-1.18.23-2.06.28-1.52.08-1.97-.18-3.08-1.12"/><path fill="currentColor" d="M30.67 12.19c.91-.16 1.71-.16 2.42.06.73.22 1.35.66 1.89 1.35.49.63.98 1.44 1.4 2.31.42.86.77 1.78.99 2.65.34 1.31.52 2.61.6 3.62.09 1.02.09 1.74.09 1.87h-.88c0-.13 0-.83-.08-1.8-.08-.98-.25-2.23-.57-3.47-.21-.81-.54-1.67-.94-2.49-.39-.81-.85-1.57-1.3-2.15-.43-.55-.91-.88-1.45-1.05-.57-.17-1.23-.17-2.01-.03l-.15-.87Zm15.59 31.14c-3.3-1.71-6.51-1.69-6.52-1.69 2.02-.73 5.49-.4 6.52 1.69M30.78 81.9c1.85-1.33 3.07-3.5 3.07-3.51-.12 2.73-.67 2.46-3.07 3.51M1.97 1.89 7.91 0v.94h6.78V0l5.94 1.89-5.94 1.89v-.94H7.91v.94zm30.64 0L38.55 0v.94h6.79V0l5.94 1.89-5.94 1.89v-.94h-6.79v.94z"/></g></g></g></svg>