<svg xmlns="http://www.w3.org/2000/svg" data-name="Layer 8" viewBox="0 0 127.469 234.324"><path fill="currentColor" d="M127.405 123.643c-.306-2.689-1.879-4.825-3.192-7.106a58 58 0 0 1-3.817-8.003q-.814-2.11-1.411-4.292c-.27-.974-.503-1.962-.782-2.935-.199-1.28-.409-2.56-.65-3.836-.43-2.276-.839-4.916-2.636-6.565a6.44 6.44 0 0 0-6.747-.898 14.03 14.03 0 0 0-5.557 4.697 24.3 24.3 0 0 0-4.398 9.847 30.5 30.5 0 0 0-.782-6.11 43 43 0 0 0 .193-6.1c-.115-2.227-.31-4.447-.497-6.668q-.556-6.614-1.109-13.229c-.707-8.6-1.3-17.223-2.274-25.8-.476-4.193-1.064-8.378-1.881-12.52a65.7 65.7 0 0 0-3.207-11.764c-1.233-3.065-3.265-6.047-6.7-6.77a6.04 6.04 0 0 0-4.312.575 5.92 5.92 0 0 0-2.57 3.725 23.5 23.5 0 0 0-.454 5.372 616 616 0 0 0-.107 6.587q-.014 1.46-.023 2.92l-.007-.16c-.217-5.69-.38-11.384-.673-17.07-.145-2.808-.34-5.615-.67-8.408-.272-2.295-.553-4.785-2.024-6.665-2.58-3.296-7.562-3.051-10.646-.671-3.472 2.68-4.718 6.958-5.28 11.135a8.77 8.77 0 0 0-4.02-3.586 8.97 8.97 0 0 0-8.29.634 13.18 13.18 0 0 0-4.868 6.572 71 71 0 0 0-2.518 9.664c-1.326 5.818-2.609 11.674-3.694 17.564-.004-.151.003-.303-.004-.455a9.6 9.6 0 0 0-.679-3.364c-.03-.07-.07-.142-.104-.213a5.23 5.23 0 0 0-5.042-3.194c-3.548.23-6.017 3.156-7.378 6.186-.75 1.668-1.304 3.414-1.926 5.132-.677 1.87-1.385 3.73-2.08 5.594a96 96 0 0 0-3.65 11.322 40.5 40.5 0 0 0-1.012 6.378 29 29 0 0 0-.052 3.298 7.8 7.8 0 0 0 .349 2.42 4.3 4.3 0 0 0-.525.866 12 12 0 0 0-.767 2.755c-.422 2.325-.669 4.69-.924 7.037a167 167 0 0 0-.631 7.023c-.132 1.98-.13 3.975-.393 5.945a13 13 0 0 1-.572 2.425c-.386.698-.79 1.384-1.231 2.049a4.66 4.66 0 0 0-.85 2.01 9 9 0 0 0-.067.828 38.2 38.2 0 0 0-2.185 8.303 186 186 0 0 0-1.71 20.048q-.247 5.193-.323 10.392c-.05 3.409-.115 6.837.138 10.24.489 6.567 2.77 12.876 4.756 19.109 2.255 7.076 4.578 14.128 8.057 20.712.008.016.024.018.035.028a86 86 0 0 0 .745 4.05c.866 4.062 2.37 8.263 5.561 11.086a10 10 0 0 0 .925.721.25.25 0 0 0-.086.136 9.5 9.5 0 0 0-.034 2.578q.09 1.374.183 2.75c.123 1.834.214 3.67.297 5.507q.125 2.756.17 5.515.022 1.315.025 2.63a6.4 6.4 0 0 0 .312 2.591.15.15 0 0 0 .245.065 2.8 2.8 0 0 0 .76-2.166c.011-.956-.01-1.913-.026-2.87q-.05-2.82-.182-5.64a152 152 0 0 0-.38-5.633 87 87 0 0 0-.27-2.75 10.8 10.8 0 0 0-.437-2.34 8.8 8.8 0 0 0 4.134 1.246c.152.008.172-.215.035-.258a14.1 14.1 0 0 1-7.927-7.279c-1.949-3.923-2.546-8.456-3.553-12.679-.313-1.313-.59-2.635-.907-3.947-.316-1.311-.773-2.587-1.08-3.899-.008-.03-.051-.017-.047.013.2 1.26.272 2.545.446 3.812.174 1.259.418 2.51.614 3.765.077.496.159.99.236 1.486-1.983-5.653-3.943-11.322-5.746-17.033-.977-3.097-1.925-6.204-2.876-9.308a62 62 0 0 1-2.345-9.477 69 69 0 0 1-.425-9.971q.031-5.073.225-10.142c.255-6.681.647-13.389 1.424-20.032a52.6 52.6 0 0 1 2.227-10.578 40 40 0 0 1 1.865-4.67c.746-1.556 1.647-3.023 2.467-4.539a.096.096 0 0 0-.15-.115 18 18 0 0 0-1.368 1.587 32 32 0 0 0 .53-3.761c.455-4.78.877-9.548 1.469-14.314.153-1.238.263-2.486.468-3.717.082-.488.174-1.013.304-1.526l.006-.014a.26.26 0 0 0 .117-.139 1 1 0 0 0 .028-.13 6 6 0 0 0 .478-.788c.043-.097.12-.307.03-.399a.1.1 0 0 0-.061-.022c.032-.054.051-.118.086-.17.08-.119-.087-.218-.183-.142-.068.055-.128.111-.193.167-.004-.29-.015-.582-.024-.877-.03-.911-.01-1.823.037-2.733a37 37 0 0 1 .672-5.24 70.5 70.5 0 0 1 2.99-10.246c1.212-3.368 2.533-6.695 3.716-10.073 1.033-2.951 2.135-6.165 4.893-7.95a4.98 4.98 0 0 1 4.72-.612 4.6 4.6 0 0 1 1.795 1.503 8 8 0 0 1 .348.917 12 12 0 0 1 .424 3.346c.001 1.164-.093 2.325-.113 3.488a22 22 0 0 0 .13 2.503 148 148 0 0 0-1.752 17.316 92 92 0 0 0 .233 11.435q.072.812.149 1.633a50 50 0 0 1-.355 5.221 39 39 0 0 1-1.035 5.28 18 18 0 0 0-.543 2.334 2.9 2.9 0 0 0 .273 1.567l-.13.163a17.5 17.5 0 0 0-2.314.787c-1.04.382-2.061.814-3.066 1.28-1.05.487-2.096.999-3.1 1.574-1.039.596-2.002 1.325-2.995 1.992-.045.03-.005.1.042.073.964-.589 1.977-1.058 2.983-1.568 1.036-.526 2.064-1.058 3.124-1.535a63 63 0 0 1 3.258-1.343c.455-.175.951-.318 1.44-.48-.316.366-.643.722-.974 1.082-.535.583-.984 1.235-1.523 1.817-.033.035.011.1.054.07.618-.444 1.287-.831 1.873-1.317.663-.55 1.286-1.148 1.948-1.699a15 15 0 0 0 1.634-1.733 10.6 10.6 0 0 0 1.389-1.783 5 5 0 0 0 .129-3.395c-.21-2.81-.704-5.61-.896-8.423-.222-3.27-.298-6.557-.262-9.834a146 146 0 0 1 1.64-19.482c.945-6.484 2.248-12.909 3.65-19.307q1.06-4.835 2.167-9.659c.658-2.888 1.361-5.84 3.061-8.318a8.47 8.47 0 0 1 7.764-3.966 8 8 0 0 1 6.37 4.954c-.042.403-.077.808-.118 1.211-.096-.16-.189-.322-.293-.478a9.5 9.5 0 0 0-1.045-1.318 11.2 11.2 0 0 0-2.712-2.026.034.034 0 0 0-.034.058 11 11 0 0 1 2.46 2.254 13 13 0 0 1 .974 1.329q.222.352.417.72a3 3 0 0 0 .155.264c-1.053 10.475-1.83 20.983-2.787 31.467a114 114 0 0 1-1.056 8.248 27.9 27.9 0 0 0-.279 8.204q.121.936.264 1.867c-.011.744-.02 1.489-.04 2.233q-.089 3.2-.268 6.398c-.114 2.07-.113 4.203-.432 6.254-.132.85-.593 1.704-.17 2.545.206.41.526.77.763 1.166.131.218.26.431.405.639a1.7 1.7 0 0 0 .21.241 10 10 0 0 1-.614 1.528c-.043.084.053.21.143.143a3.13 3.13 0 0 0 1.306-1.505 8.7 8.7 0 0 0 .331-2.154c.048-.586.068-1.173.093-1.76a60 60 0 0 0-.111-12.708 73 73 0 0 1-.808-7.948 58 58 0 0 1 .988-7.936c.741-5.353 1.07-10.77 1.529-16.154.464-5.442.942-10.884 1.399-16.327.222-2.644.389-5.3.715-7.934A20.4 20.4 0 0 1 58.305 6.2a10 10 0 0 1 4.332-4.469 6.78 6.78 0 0 1 5.733-.13c2.104.986 2.94 3.057 3.316 5.226a72 72 0 0 1 .766 7.822c.335 5.464.462 10.943.66 16.413.199 5.49.382 10.981.58 16.471.09 2.494.131 4.978.113 7.473a55 55 0 0 1-.076 2.459q-.076.153-.154.304c-.026-.035-.083-.049-.09.006-.013.084-.02.168-.031.252a2.7 2.7 0 0 0-.186.506 2.5 2.5 0 0 0 .01.94q-.21 1.818-.352 3.644a26 26 0 0 1-.795 2.684c-.046.128.153.208.219.092.16-.286.29-.584.434-.877-.138 2.266-.23 4.536-.339 6.797q-.171 3.537-.306 7.075l-.136 3.663a26 26 0 0 0-.055 2.966 8.8 8.8 0 0 0 .627 2.658 3.05 3.05 0 0 0 1.37 1.567 4.2 4.2 0 0 1-1.291-.717 9.2 9.2 0 0 0-1.728-1.041c-.017-.008-.039.014-.022.028.934.795 1.417 1.984 2.555 2.573a2.22 2.22 0 0 0 2.882-.517c1.578-1.925 1.75-4.742 1.657-7.117-.116-2.926-.463-5.853-.71-8.769l-.78-9.18-.45-5.282c-.07-.838-.125-1.68-.236-2.515a24 24 0 0 0-.58-2.408l-.07-.587c-.018-.158-.045-.314-.065-.471.017-.797.034-1.594.017-2.38-.023-1-.056-1.998-.088-2.996a59 59 0 0 0 .323-6.25c.05-2.112.139-4.224.179-6.335.078-4.16.107-8.324.253-12.481a9.9 9.9 0 0 1 1.003-4.692 4.18 4.18 0 0 1 3.78-2.04c3.504.056 5.75 3.02 6.918 6.012a68 68 0 0 1 2.967 11.184c.817 4.022 1.412 8.085 1.885 12.16.95 8.19 1.54 16.423 2.255 24.634q.549 6.3 1.08 12.6c.359 4.196.64 8.404 1.13 12.587q.06.52.124 1.038a19.3 19.3 0 0 0-1.31-2.945 15 15 0 0 0-2.158-2.717c-.018-.02-.054.007-.038.029a14 14 0 0 1 1.332 2.59 17 17 0 0 1 .983 2.862 34 34 0 0 1 .94 5.903c.167 2.344.152 4.698.23 7.046.079 2.326.412 4.625.521 6.945a12.9 12.9 0 0 1-.484 4.763.4.4 0 0 0-.076.22 5 5 0 0 1-.957 1.58c-.105.112.039.328.174.224a7.2 7.2 0 0 0 1.216-1.187 4.54 4.54 0 0 1 1.41 2.963 42 42 0 0 1 .042 4.43 47 47 0 0 0 .239 7.52 12 12 0 0 0-1.906-1.55 13.3 13.3 0 0 0-2.9-1.324 33 33 0 0 0-3.316-.984.018.018 0 0 0-.01.035c1.019.367 2.065.712 3.045 1.173a22 22 0 0 1 2.719 1.582 11.2 11.2 0 0 1 2.178 1.862 5 5 0 0 1 .341.437l-.092-.07a18 18 0 0 0-2.76-1.773 19.4 19.4 0 0 0-5.983-1.963 24 24 0 0 0-6.784-.016 23.7 23.7 0 0 0-6.832 2.217c-.013.006-.004.027.009.022a24.77 24.77 0 0 1 13.25-1.314 21 21 0 0 1 5.586 1.936 20 20 0 0 1 2.444 1.51 7.7 7.7 0 0 1 2.1 1.9.5.5 0 0 0 .028.095 1.42 1.42 0 0 0-.67.868q-.074.028-.152.047-.05.013-.1.021l-.02.004a1 1 0 0 1-.11.012c-.015.002-.15.035-.057.008a1 1 0 0 1-.177.012l-.076.004a1 1 0 0 0-.131.02c-.003 0 .001-.002-.005-.002h-.042a9 9 0 0 0-3.792-1.794 11.2 11.2 0 0 0-4.098-.051 18.8 18.8 0 0 0-4.266 1.492c-.04.017-.012.086.03.071a17.4 17.4 0 0 1 3.976-.86 12.2 12.2 0 0 1 3.955.092 8.9 8.9 0 0 1 2.965 1.217 7.2 7.2 0 0 1 1.636 1.51 2.4 2.4 0 0 0-.923.488c-.7.607-1.045 1.523-1.793 2.082a7.5 7.5 0 0 1-2.68 1.036 23.5 23.5 0 0 0-5.945 2.548 44.6 44.6 0 0 0-5.504 3.996c-.03.024.008.071.04.052 3.491-2.126 7.035-4.377 11.065-5.307 1.617-.374 3.42-.664 4.547-2.013.466-.557.865-1.497 1.63-1.686a2.37 2.37 0 0 1 1.974.51c.071.066.22.025.21-.087l-.004-.013c.625.437 1.25.868 1.838 1.37.959.822 1.816 1.728 2.72 2.606.957.93 1.893 1.861 2.762 2.874.013.016.04-.005.028-.021-1.156-1.516-2.147-3.15-3.431-4.564-.67-.738-1.345-1.467-2.082-2.14-.708-.645-1.536-1.186-2.207-1.867-.52-.528-.856-1.646.243-1.6a16 16 0 0 1 2.915.541 31.3 31.3 0 0 1 5.557 1.816 32.4 32.4 0 0 1 5.783 3.178c.016.012.037-.015.022-.028a30 30 0 0 0-5.215-3.659c.461.13.923.254 1.383.388.03.008.041-.036.013-.046-1.29-.49-2.571-1-3.854-1.504a29 29 0 0 0-2.398-.91c-.402-.15-.798-.312-1.202-.457-1.05-.376-2.5-.674-3.256-1.556a4.38 4.38 0 0 1-.67-2.89c.003-1.254.035-2.508.045-3.762a28 28 0 0 1 .15-3.725 5.46 5.46 0 0 1 1.338-3.057 3.9 3.9 0 0 1 1.257-.882 4 4 0 0 1 .401-.142 16.4 16.4 0 0 0 4.084 1.19 24.1 24.1 0 0 0 9.956-.149.045.045 0 0 0-.012-.088 54 54 0 0 1-8.353-.53c-2.327-.41-4.909-.882-6.757-2.473-1.809-1.556-2.48-3.988-3.003-6.228a28.3 28.3 0 0 1-.733-6.612 25.2 25.2 0 0 1 3.393-12.711 17.8 17.8 0 0 1 4.403-5.138c1.779-1.336 4.24-2.169 6.378-1.17a5.44 5.44 0 0 1 2.71 3.728 3 3 0 0 1-.485 1.135 1.75 1.75 0 0 0-.42 1.214 12 12 0 0 0 .381 1.69c.283 1.253.492 2.52.827 3.761.168.62.352 1.236.537 1.852a4.6 4.6 0 0 1 .444 1.903.33.33 0 0 0 .146.36c.153.077.305.122.46.198a.054.054 0 0 0 .074-.073.8.8 0 0 1-.054-.4.31.31 0 0 0-.158-.275c-.514-.243-.625-1.528-.73-2.014-.135-.63-.255-1.262-.377-1.895a35 35 0 0 1-.651-3.967 3.5 3.5 0 0 1 .06-1.824c.085-.162.169-.31.252-.46.114.503.218 1.001.324 1.471.534 2.365 1.155 4.703 1.791 7.037.223.969.489 1.925.748 2.853l.06.2-.077-.008q-.043 0-.085.004l-.17.01a.042.042 0 0 0 0 .084l.17.01.081.005a1 1 0 0 0 .094-.011c.007-.001.006-.01.01-.014a42 42 0 0 0 2.55 6.848 46 46 0 0 0 1.868 3.481 34 34 0 0 1 1.889 3.329c1.157 2.567.625 5.387.448 8.09-.374 5.712.5 11.418.064 17.128-.218 2.843-.63 5.669-.761 8.52a50.6 50.6 0 0 0 .592 7.998 13.6 13.6 0 0 1-.038 4.259 8.4 8.4 0 0 1-1.945 3.734c-.96 1.139-2.017 2.192-3.044 3.267-1.04 1.089-2.094 2.163-3.235 3.147-.123.106.037.312.174.225.626-.4 1.272-.822 1.917-1.265-.257.315-.513.63-.774.93q-1.98 2.277-3.977 4.54c-2.668 3.022-5.302 6.074-8.011 9.06a297 297 0 0 1-8.26 8.768 29 29 0 0 1-4.321 3.783 20.8 20.8 0 0 1-4.723 2.358 48 48 0 0 1-11.78 2.464c-.154.013-.16.247 0 .245a56 56 0 0 0 8.762-.576l.127.122q.23.221.455.449c.295.294.584.592.86.903q.429.479.819.989c.114.15.227.305.343.456a18 18 0 0 0-.419 2.665 4 4 0 0 0-.3-.31q-.741-.793-1.487-1.581c-.988-1.048-1.947-2.157-3.034-3.103a.03.03 0 0 0-.043.042c.74.943 1.606 1.792 2.434 2.656l1.208 1.261.623.65.331.342c.029.03.332.318.227.357a.033.033 0 0 0 .007.064c-.139 2.036-.059 4.08-.014 6.118l.143 6.394c.027 1.212.05 2.424.097 3.635.025.626.034 1.256.08 1.881a7.7 7.7 0 0 0 .54 1.66.114.114 0 0 0 .22 0 8 8 0 0 0 .468-1.785c.019-.667 0-1.339-.006-2.006-.01-1.338-.046-2.675-.076-4.012-.058-2.584-.12-5.167-.172-7.751a29 29 0 0 1 .527-7.408 14.6 14.6 0 0 1 1.085-3.135 13 13 0 0 1 .886-1.45 23 23 0 0 0 5.551-3.884c2.982-2.793 5.743-5.856 8.504-8.864q4.175-4.548 8.145-9.274a150 150 0 0 0 4.288-5.424c.68-.895 1.356-1.794 2.036-2.69.308-.404.622-.816.921-1.238 2.733-2.219 5.03-4.963 5.279-8.538.184-2.66-.512-5.281-.693-7.922a50 50 0 0 1 .398-8.637 65 65 0 0 0 .395-8.703c-.085-2.922-.308-5.84-.273-8.765a41 41 0 0 1 .298-4.325 18.2 18.2 0 0 0 .177-4.215M30.653 88.564c.021.342.039.684.034 1.027a3.8 3.8 0 0 1-.418 2.11 15.3 15.3 0 0 1-1.709 2.035c.079-.337.141-.675.215-1.015.172-.802.419-1.585.61-2.382a29 29 0 0 0 .677-4.585c.16.948.363 1.884.59 2.81m21.095-14.088c.015-.59.015-1.18.02-1.77q.006.068.014.134a68 68 0 0 1 .12 8.34q-.084 1.896-.226 3.789l-.052.216a3 3 0 0 0-.126-.384 9 9 0 0 1-.51-1.408 3.45 3.45 0 0 1 .255-1.507 11 11 0 0 0 .184-1.306c.183-2.026.27-4.07.321-6.104m23.412-11.36.708 8.425.697 8.3c.197 2.338.518 4.796-.055 7.105-.25 1.01-.784 2.824-2.04 2.86l-.002-.005c-1.15-1.223-1.204-2.992-1.21-4.56-.008-2.116.121-4.238.192-6.353.15-4.463.235-8.927.3-13.392q.02-1.416.013-2.823a24.6 24.6 0 0 0 .999-4.268q.027.281.05.56Zm25.42 59.421a7.4 7.4 0 0 0 1.963 1.814l-.021.007a4.83 4.83 0 0 0-2.07 1.652 5 5 0 0 0-.387.624c-.026-2.084-.308-4.456-2.209-5.327a7.2 7.2 0 0 0 .922-2.68 12.3 12.3 0 0 0 1.802 3.91m-11.458 88.14a10 10 0 0 0-.354-.482 14 14 0 0 0-1.006-1.16 12 12 0 0 0-1.137-1.033l-.013-.011c.636-.115 1.27-.245 1.902-.414l.136-.04.06.066q.271.306.545.61c.16.18.316.364.478.543a15 15 0 0 0-.611 1.921m.75-2.289-.008.02q-.18-.207-.364-.41-.258-.285-.529-.558.859-.254 1.684-.57a12 12 0 0 0-.784 1.518"/><path fill="currentColor" d="M68.15 109.082c-1.932.563-3.888 1.055-5.786 1.723q-2.738.963-5.448 1.997-5.485 2.104-10.85 4.496-5.412 2.42-10.72 5.068a118 118 0 0 1-10.698 5.025c-3.94 1.491-8.63 2.272-12.73 1.03-.026-.008-.037.031-.012.04a18.24 18.24 0 0 0 10.934.333 54.7 54.7 0 0 0 10.836-4.519c7.166-3.617 14.495-6.884 21.914-9.945q3.137-1.294 6.298-2.53c2.114-.833 4.18-1.773 6.288-2.62.06-.024.038-.117-.027-.098m14.961 9.642a23.4 23.4 0 0 1-6.975 2.376c-1.209.243-2.418.429-3.613.739a62 62 0 0 0-3.673 1.092 71 71 0 0 0-7.48 2.743c-2.365 1.078-4.847 1.877-7.2 2.999-8.728 4.162-16.57 9.889-24.968 14.646a55.4 55.4 0 0 1-14.618 6.069c-.03.007-.018.051.012.046a48 48 0 0 0 6.907-1.703c2.173-.733 4.271-1.688 6.362-2.626a100.5 100.5 0 0 0 12.424-7.064c2.004-1.27 4.001-2.551 6.016-3.804 2.108-1.311 4.2-2.697 6.397-3.855a64 64 0 0 1 7.333-3.244c1.229-.463 2.49-.83 3.745-1.216 1.305-.402 2.542-.992 3.803-1.509 2.664-1.093 5.377-1.924 8.121-2.78a31 31 0 0 0 7.426-2.878.018.018 0 0 0-.019-.03m1.973 7.797a29 29 0 0 0-4.97 1.248c-1.566.619-3.016 1.458-4.55 2.133a9 9 0 0 0-1.932 1.362 47 47 0 0 0-1.926 1.663c-1.274 1.145-2.528 2.296-3.7 3.547a21 21 0 0 0-3.386 4.5c-.012.023.02.051.037.029 1.299-1.656 2.485-3.386 3.944-4.91a23 23 0 0 1 5.021-4.043 30 30 0 0 0 2.628-1.572 17.5 17.5 0 0 1 2.866-1.529c.95-.446 1.93-.82 2.893-1.236a22.5 22.5 0 0 1 3.086-1.152.02.02 0 0 0-.011-.04m-20.062 11.19a33.7 33.7 0 0 0-6.147 13.552.078.078 0 0 0 .15.041c1.893-4.558 3.197-9.464 6.025-13.572.012-.016-.015-.037-.028-.021m-8.845 62.727a22.5 22.5 0 0 1-3.797-6.24 24.6 24.6 0 0 1-1.51-7.304c-.435-5.57.574-11.012 1.87-16.406a68.5 68.5 0 0 1 2.78-8.832c.007-.02-.025-.033-.033-.014a70 70 0 0 0-5.018 16.16 40 40 0 0 0-.701 8.606 23.6 23.6 0 0 0 1.68 7.515 15.85 15.85 0 0 0 4.607 6.637.087.087 0 0 0 .122-.122m.351 1.711c-.894-.84-1.816-1.638-2.627-2.562a14.2 14.2 0 0 1-2.069-3.098c-.012-.024-.053-.007-.044.018a12.6 12.6 0 0 0 1.827 3.3 8.3 8.3 0 0 0 2.834 2.446c.063.031.137-.05.08-.103M44.192 161.27c-.003-.037-.062-.038-.06 0a64.4 64.4 0 0 1-.801 12.513c-.297 1.94-1.094 3.925-.866 5.898a20 20 0 0 0 .49 2.757 12.6 12.6 0 0 1 .555 3.27c0 .11.154.103.167 0 .266-2.014-.237-4.022-.02-6.027.11-1.01.097-2.006.16-3.019.064-1.012.175-2.016.289-3.023a66.3 66.3 0 0 0 .086-12.369M13.613 75.438c-.05.005-.097-.003-.145.007a1 1 0 0 0-.152.034c-.1.037-.2.084-.3.125l-.288.122a1 1 0 0 0-.141.07 1 1 0 0 0-.121.097.04.04 0 0 0 .027.066 1 1 0 0 0 .146-.012 1 1 0 0 0 .149-.045l.301-.118c.098-.038.197-.073.293-.115a1 1 0 0 0 .135-.08 1 1 0 0 0 .117-.1.03.03 0 0 0-.021-.051m6.987-.193c-.73.025-1.48.098-2.21.062-.419-.02-.734-.276-1.148-.268a8 8 0 0 0-1.061.278c-.752.113-1.54.062-2.298.143a.006.006 0 0 0 0 .012c.758.04 1.546-.064 2.298.016a8 8 0 0 0 1.06.22c.398-.006.679-.262 1.07-.317a20 20 0 0 1 2.289-.071c.766-.015 1.532-.054 2.298-.088a.012.012 0 0 0 0-.024c-.766.007-1.532.01-2.298.037m24.247-13.283a6.55 6.55 0 0 0-2.88-.203c-1.08.044-2.15.174-3.233.152a9.3 9.3 0 0 0-1.56-.009c-.504.075-.993.293-1.492.412-1.089.261-2.19.462-3.275.742-.019.005-.01.032.008.029a28 28 0 0 1 3.324-.349c.48-.012.958.07 1.436.053a7 7 0 0 0 1.399-.295 20 20 0 0 1 3.153-.46c1.035-.088 2.075.108 3.098.011.038-.003.067-.063.022-.083m2.907.56a.7.7 0 0 0-.165-.153 1 1 0 0 0-.196-.12 3 3 0 0 0-.47-.156 2.5 2.5 0 0 0-.475-.041c-.164-.004-.326-.014-.49-.02-.036-.001-.045.058-.008.065a2.4 2.4 0 0 1 .46.116c.14.053.276.12.417.17s.282.097.423.146a2 2 0 0 0 .215.053 1 1 0 0 0 .238.03c.04-.002.08-.05.051-.09m-2.291.528a3.7 3.7 0 0 0-.942-.323 6.4 6.4 0 0 0-1.03-.092 9.7 9.7 0 0 0-2.051.217.024.024 0 0 0 .006.047 14 14 0 0 1 2.007.075q.497.053.994.113a10 10 0 0 0 .993.046c.043.001.064-.064.023-.083m-8.262-28.918-.086.087.004.004.086-.087Zm12.226.013c-1.695-1.03-3.732-.746-5.624-.72a12 12 0 0 0-1.57.04 3.5 3.5 0 0 0-.732.254 7 7 0 0 1-.806.151 55 55 0 0 1-3.34.612c-.044.007-.034.079.01.076 1.021-.059 2.036-.114 3.059-.091.312.006.63-.02.941-.004.244.013.464.087.706.104a5 5 0 0 0 1.42-.21 15.7 15.7 0 0 1 5.89-.103.06.06 0 0 0 .046-.11m20.803-7.449a5.76 5.76 0 0 0-2.522-.66c-1.084-.082-2.148-.152-3.227-.29a15 15 0 0 0-3.416.32c-1.139.116-2.275.226-3.411.37-.034.004-.036.054 0 .054 1.135-.02 2.275-.048 3.411-.033.488.006.976.04 1.464.062a8.7 8.7 0 0 0 1.464.124 27 27 0 0 1 3.064-.362 11 11 0 0 1 3.148.475.033.033 0 0 0 .026-.06M68.859 58.02a17 17 0 0 0-3.17-.51c-1.152-.091-2.34-.047-3.478-.25a3.6 3.6 0 0 0-1.287-.15c-.372.077-.72.213-1.11.257-.243.028-.489.039-.733.061a26 26 0 0 0-3.172.51.027.027 0 0 0 .007.053q1.702-.115 3.41-.19a4.5 4.5 0 0 1 1.374.072 3.06 3.06 0 0 0 1.397-.077c2.202-.393 4.538.197 6.753.288a.033.033 0 0 0 .009-.064m-.175-.677a7.5 7.5 0 0 0-1.834-.231 15 15 0 0 0-1.903.04.045.045 0 0 0 0 .09q.934.023 1.867.077c.62.036 1.237.126 1.859.107a.042.042 0 0 0 .01-.083m20.225-20.028c-1.617-.823-3.624-.754-5.387-.758-.48-.001-.96-.012-1.44-.012a5 5 0 0 0-1.315.367c-1.01.297-1.959.763-2.952 1.107a.03.03 0 0 0 .016.057c.888-.206 1.796-.317 2.696-.463.271-.044.554-.122.827-.145a6 6 0 0 0 .65.007 5 5 0 0 0 .584-.231q.343-.119.695-.209a8.6 8.6 0 0 1 2.763-.217 15 15 0 0 1 2.824.59c.054.014.091-.067.039-.093m3.022 21.368a14.3 14.3 0 0 0-3.187-.497c-1.065-.128-2.127-.337-3.195-.436-.518-.047-1.068-.13-1.587-.137a4.5 4.5 0 0 0-1.41.413c-.503.142-1.027.208-1.532.34a13 13 0 0 0-1.702.62c-.069.03-.044.138.032.116a11.5 11.5 0 0 1 3.265-.605 7.4 7.4 0 0 0 1.485.134c.523-.081 1.033-.16 1.563-.202a17.4 17.4 0 0 1 3.081-.023 23 23 0 0 0 3.175.37.048.048 0 0 0 .013-.093m-2.45.827a25 25 0 0 1-4.564.028 7.5 7.5 0 0 0-2.088.04q-1.136.13-2.279.152a.024.024 0 0 0 0 .048 14.7 14.7 0 0 0 4.45.271c1.474-.304 3-.268 4.485-.51.017-.003.013-.03-.004-.03m14.654 80.242a1.7 1.7 0 0 0-.22-.228c-.171-.151-.34-.303-.52-.443q-.536-.415-1.07-.831c-.038-.03-.09.018-.055.055q.47.48.937.963c.155.159.319.305.483.454a2 2 0 0 0 .25.2.56.56 0 0 0 .279.128.054.054 0 0 0 .054-.054.5.5 0 0 0-.138-.244m2.094.557a12 12 0 0 0-.42-.427q-.416-.409-.837-.812a22 22 0 0 0-1.75-1.546.027.027 0 0 0-.039.038c.524.576 1.08 1.115 1.635 1.661q.405.399.804.802.209.215.425.421a1.2 1.2 0 0 0 .403.291.036.036 0 0 0 .044-.044 1.1 1.1 0 0 0-.265-.384m.387-1.219c-.058-.074-.113-.152-.177-.22l-.375-.393c-.25-.263-.521-.506-.785-.755a.018.018 0 0 0-.025.025c.233.28.46.566.706.833l.36.388c.063.069.136.128.205.19a2 2 0 0 0 .196.167c.025.017.055-.016.04-.04a2 2 0 0 0-.145-.195m2.194 2.112a1 1 0 0 0-.06-.084 2 2 0 0 0-.144-.163q-.149-.156-.31-.3a5.4 5.4 0 0 0-.68-.514c-.042-.027-.079.039-.038.067a5 5 0 0 1 .644.537q.146.143.281.298.068.081.138.159.031.035.064.069a.5.5 0 0 0 .087.057.033.033 0 0 0 .048-.037.5.5 0 0 0-.03-.089m.77-.975a70 70 0 0 0-1.785-1.726.02.02 0 0 0-.03.03 69 69 0 0 0 1.697 1.814 20 20 0 0 0 1.779 1.732.03.03 0 0 0 .042-.042 20 20 0 0 0-1.703-1.808m2.456 1.265a36 36 0 0 0-1.097-1.191c-.025-.026-.075.01-.051.04.322.42.648.836.989 1.242a11 11 0 0 0 1.098 1.19c.025.021.067-.006.047-.036a11 11 0 0 0-.986-1.245m2.891 1.744a3 3 0 0 0-.217-.178q-.121-.087-.245-.17a3 3 0 0 0-.517-.245c-.02-.008-.035.022-.02.035a3.5 3.5 0 0 0 .442.354 4 4 0 0 0 .514.26c.033.015.077-.027.043-.056m-9.227-20.233c-.546-.466-1.14-.872-1.693-1.33a17 17 0 0 1-1.57-1.482c-.034-.037-.088.017-.055.054a17 17 0 0 0 1.543 1.551 8 8 0 0 0 1.742 1.25c.026.012.057-.022.033-.043m3.553 1.129c-.518-.456-1.093-.848-1.637-1.272q-.82-.638-1.618-1.307a63 63 0 0 1-3.098-2.779.015.015 0 0 0-.021.021 38 38 0 0 0 3.049 2.91q.754.644 1.543 1.249a14.4 14.4 0 0 0 1.746 1.225c.028.016.062-.024.036-.047m2.355.065c-2.293-1.867-4.573-3.729-6.725-5.76a.036.036 0 0 0-.051.05 44 44 0 0 0 6.744 5.752c.025.017.056-.023.032-.042m2.06.036c-.427-.376-.925-.683-1.377-1.029q-.774-.594-1.522-1.22-1.409-1.179-2.724-2.46a.024.024 0 0 0-.033.033 44 44 0 0 0 2.728 2.528q.69.584 1.404 1.14a13 13 0 0 0 1.466 1.083c.046.026.1-.038.058-.075m1.827-.272a6 6 0 0 0-.983-.773q-.558-.419-1.092-.868a30 30 0 0 1-1.956-1.793c-.03-.03-.075.015-.046.047a22 22 0 0 0 1.947 1.903q.51.438 1.041.848a4.1 4.1 0 0 0 1.054.696c.037.013.056-.035.035-.06m1.238-.468a4.3 4.3 0 0 0-.617-.494q-.345-.246-.693-.49-.7-.489-1.367-1.023c-.032-.026-.078.018-.046.047q.635.577 1.305 1.116a5.5 5.5 0 0 0 1.38.909c.038.015.063-.039.038-.065m.615-1.136a4.5 4.5 0 0 0-.675-.593q-.371-.257-.743-.512c-.036-.025-.08.032-.047.06q.338.3.677.598a4 4 0 0 0 .35.27 3 3 0 0 0 .387.242.042.042 0 0 0 .051-.065m-37.656-3.187a5.3 5.3 0 0 0-.96-.202c-.306-.046-.612-.096-.919-.137l-1.943-.258c-.014-.001-.017.021-.003.024.642.123 1.285.25 1.928.37a9.7 9.7 0 0 0 1.887.273.036.036 0 0 0 .01-.07m2.588-.546c-.744-.266-1.526-.4-2.29-.596a99 99 0 0 1-2.287-.618c-.049-.013-.067.058-.02.075.756.283 1.518.529 2.297.742a11.3 11.3 0 0 0 2.29.473c.046.003.049-.062.01-.076m1.589-.905a2.7 2.7 0 0 0-.508-.074 3.5 3.5 0 0 1-.495-.115c-.303-.088-.594-.216-.893-.316-.62-.207-1.244-.403-1.863-.612-.04-.014-.056.048-.017.063.612.233 1.226.46 1.851.654.301.094.61.154.91.25a4 4 0 0 1 .532.2 2 2 0 0 0 .418.185.122.122 0 0 0 .065-.235m1.38-.799a3.3 3.3 0 0 0-.976-.304c-.34-.084-.686-.145-1.031-.21a.02.02 0 0 0-.011.04c.331.114.661.233.998.33a3.3 3.3 0 0 0 .999.222.042.042 0 0 0 .02-.078m1.81-1.121a1.4 1.4 0 0 0-.525-.112 4 4 0 0 0-.53.039c-.038.005-.028.064.008.064a4 4 0 0 1 .522.033 4 4 0 0 0 .518.028c.032.001.033-.042.007-.052M52.715 87.02a22 22 0 0 0-2.277 2.996 11.5 11.5 0 0 0-1.415 3.492.072.072 0 0 0 .131.055c.308-.532.572-1.095.868-1.634q.446-.817.89-1.635a27 27 0 0 1 1.92-3.183c.05-.068-.062-.155-.117-.09m-.259 2.334a20 20 0 0 0-2.502 5.878c-.01.055.071.1.099.041.895-1.928 1.559-3.955 2.48-5.874.025-.05-.048-.095-.077-.045m-.142 2.674a23 23 0 0 0-.945 2.804 8.2 8.2 0 0 0-.422 2.842.057.057 0 0 0 .111.015 8.6 8.6 0 0 0 .322-1.433c.086-.468.168-.937.265-1.403.197-.946.437-1.887.72-2.811.011-.034-.038-.046-.051-.014m.117 5.797a5.6 5.6 0 0 1 .019-1.077c.008-.063-.082-.093-.098-.027a3.5 3.5 0 0 0-.118 1.124 3.4 3.4 0 0 0 .283 1.07c.015.035.068.009.06-.026a6 6 0 0 1-.146-1.064M29.597 95.89a24 24 0 0 0-2.757 2.683c-.401.472-.774.964-1.128 1.474q-.263.38-.513.77a2.9 2.9 0 0 0-.465.862.214.214 0 0 0 .354.206 3.2 3.2 0 0 0 .493-.726q.242-.394.5-.778c.35-.526.72-1.04 1.096-1.548a27 27 0 0 1 2.446-2.918c.016-.017-.008-.04-.026-.026m-1.658 3.171c-.659.804-1.324 1.605-1.924 2.454a12 12 0 0 0-.823 1.33 2.8 2.8 0 0 0-.467 1.425.112.112 0 0 0 .188.078 4.4 4.4 0 0 0 .68-1.27c.22-.471.467-.934.721-1.388.504-.898 1.077-1.754 1.658-2.604.013-.02-.018-.044-.033-.025m.738.775a62 62 0 0 0-1.68 3.1 52 52 0 0 0-.755 1.562 7 7 0 0 0-.622 1.582.054.054 0 0 0 .098.041 8.4 8.4 0 0 0 .806-1.597c.234-.508.461-1.019.698-1.525.49-1.051.973-2.106 1.48-3.148.009-.018-.016-.032-.025-.015m-3.137 6.68a8 8 0 0 0-.243.958 6 6 0 0 0-.069.475.62.62 0 0 0 .042.448.07.07 0 0 0 .098 0c.1-.11.08-.292.089-.43q.015-.234.039-.467a8 8 0 0 1 .154-.954.057.057 0 0 0-.11-.03m1.736-1.139a9 9 0 0 0-.704 1.713 7 7 0 0 0-.193.932 2.1 2.1 0 0 0-.02.858.04.04 0 0 0 .074 0 3.8 3.8 0 0 0 .14-.87c.043-.293.104-.583.168-.873a8.7 8.7 0 0 1 .58-1.733c.015-.03-.029-.058-.045-.027m.351 2.53a4.5 4.5 0 0 0-.059 1.66c.004.024.04.018.041-.005.011-.55-.01-1.102.053-1.65.002-.02-.032-.025-.035-.005m1.205 1.818-.103-.342a.015.015 0 0 0-.028.008l.076.35c.025.115.066.23.1.343a.018.018 0 0 0 .034-.01c-.025-.116-.044-.235-.079-.349m23.386-94.311q-.201-.243-.423-.468a5.7 5.7 0 0 0-.985-.777c-.013-.009-.029.011-.017.022a11 11 0 0 1 .9.858q.211.223.404.463c.131.164.276.313.416.468.02.02.05-.006.038-.03a2.8 2.8 0 0 0-.333-.536m1.85 2.276a2 2 0 0 0-.216-.288 6 6 0 0 0-.505-.494.032.032 0 0 0-.045.045 3.7 3.7 0 0 1 .408.558q.086.145.177.285a.8.8 0 0 0 .23.254.04.04 0 0 0 .06-.034.6.6 0 0 0-.109-.326m-1.396.631q-.627-.808-1.33-1.552c-.01-.009-.022.005-.014.015q.656.799 1.274 1.628c.392.527.755 1.073 1.163 1.587.016.02.046-.005.034-.026a12 12 0 0 0-1.127-1.652m.025 2.62a5 5 0 0 0-.386-.439c-.246-.316-.465-.653-.709-.971a5.6 5.6 0 0 0-1.65-1.526c-.016-.009-.034.013-.02.025a9 9 0 0 1 1.518 1.654 7 7 0 0 1 .583.928c.086.172.127.354.205.528a.77.77 0 0 0 .433.334.053.053 0 0 0 .078-.045.87.87 0 0 0-.052-.488m1.068 2.419a4 4 0 0 0-.155-.245l-.324-.48a.016.016 0 0 0-.027.015l.264.516q.066.129.14.253a.9.9 0 0 0 .167.224.03.03 0 0 0 .05-.03.9.9 0 0 0-.115-.253m-.993.932a18 18 0 0 0-.641-1.279 8.8 8.8 0 0 0-1.643-2.162c-.016-.016-.041.009-.025.025a9 9 0 0 1 1.6 2.221c.207.388.394.785.571 1.187a12 12 0 0 0 .574 1.266.034.034 0 0 0 .061-.026 8 8 0 0 0-.497-1.232m-.628.929a14 14 0 0 0-1.323-1.881c-.009-.01-.027.003-.02.014a19 19 0 0 1 1.197 1.952c.36.672.618 1.4 1.003 2.056a.042.042 0 0 0 .076-.032 7.2 7.2 0 0 0-.933-2.11m-.085 2.484a6.7 6.7 0 0 0-.95-1.346c-.013-.015-.039.005-.027.022a8 8 0 0 1 .76 1.433c.203.488.326 1.014.578 1.48a.044.044 0 0 0 .082-.022 3.1 3.1 0 0 0-.443-1.567m.104 3.831c-.031-.089-.072-.175-.109-.26-.076-.177-.17-.346-.257-.517-.018-.035-.08-.01-.065.028.07.18.135.363.216.538q.058.131.126.26a2 2 0 0 0 .142.244c.016.019.04-.003.037-.022a2 2 0 0 0-.09-.271M66.785 2.309a.01.01 0 0 0-.005.019 6.5 6.5 0 0 1 2.19 1.19 10.5 10.5 0 0 1 1.655 1.805.026.026 0 0 0 .045-.026 5.9 5.9 0 0 0-3.885-2.988m2.08 2.785a6 6 0 0 0-.244-.248q-.244-.237-.508-.45a7 7 0 0 0-1.127-.74.016.016 0 0 0-.016.028 9 9 0 0 1 1.093.786q.246.207.474.435.117.117.23.238A1 1 0 0 0 69 5.36c.017.009.043-.006.036-.027a.8.8 0 0 0-.17-.24m1.67 1.983a2 2 0 0 0-.115-.154c-.087-.102-.172-.208-.263-.307q-.27-.29-.548-.573c-.016-.018-.049.006-.034.026q.23.321.466.637c.078.103.163.202.245.302a2 2 0 0 0 .133.144.4.4 0 0 0 .145.103.03.03 0 0 0 .038-.028.33.33 0 0 0-.067-.15m-1.262.688a15 15 0 0 0-1.65-1.62c-.01-.01-.024.004-.014.013a20 20 0 0 1 1.581 1.647c.494.58.914 1.214 1.392 1.805.014.016.037-.005.028-.022a9.6 9.6 0 0 0-1.337-1.823m.18 2.248a13 13 0 0 0-1.09-1.1c-.022-.018-.052.012-.032.032a13 13 0 0 1 1.033 1.127c.32.393.584.838.938 1.2.02.021.047-.005.037-.029a4.8 4.8 0 0 0-.886-1.23m1.748 2.376-.12-.159-.246-.321c-.009-.012-.03-.001-.02.012l.226.34.114.17a.6.6 0 0 0 .124.142c.01.007.024-.005.02-.016a.6.6 0 0 0-.098-.168m-.26 1.652-.493-.613c-.323-.402-.66-.792-.991-1.187-.005-.005-.014.002-.01.007.303.417.6.838.912 1.249l.461.607a3.6 3.6 0 0 0 .49.574.034.034 0 0 0 .054-.041 3.4 3.4 0 0 0-.423-.596m-1.156.993c-.015-.014-.037.008-.023.023a12.5 12.5 0 0 1 1.057 1.283.012.012 0 0 0 .02-.012 5.1 5.1 0 0 0-1.054-1.294m1.416 3.89q-.046-.066-.096-.128l-.197-.26c-.018-.023-.06 0-.041.025l.197.264q.047.066.098.129l.107.124c.01.012.03-.004.022-.017zM51.073 37.17a4.15 4.15 0 0 0-1.453-1.715c-.01-.007-.023.006-.016.016l.833 1.194c.137.196.265.399.403.594.146.206.267.43.414.634a.04.04 0 0 0 .073-.03 4 4 0 0 0-.254-.693m.718 3.487c-.135-.192-.318-.34-.456-.53-.27-.373-.5-.776-.768-1.152a20 20 0 0 0-1.684-2.06c-.016-.018-.04.007-.026.025.58.679 1.138 1.383 1.653 2.112.243.345.494.69.707 1.055a5 5 0 0 1 .263.645 1.1 1.1 0 0 0 .372.474c.039.031.123.017.115-.048a1 1 0 0 0-.176-.521m-.895 1.879c-.24-.426-.483-.85-.745-1.264a10.7 10.7 0 0 0-1.733-2.268c-.018-.016-.05.005-.035.026.553.773 1.197 1.476 1.725 2.267.257.384.501.776.718 1.183.23.432.421.884.654 1.314.01.02.045.006.037-.015a9 9 0 0 0-.62-1.243m-2.495-.786c-.011-.014-.036.004-.025.02.457.666.923 1.324 1.437 1.95.009.01.026-.004.019-.015a28 28 0 0 0-1.431-1.955m2.657 4.097a4 4 0 0 0-.387-.516c-.007-.008-.022.003-.015.012a3.2 3.2 0 0 1 .317.542 4.4 4.4 0 0 0 .268.568c.014.022.054.016.052-.014a1.34 1.34 0 0 0-.235-.592m-2.599-1.034c-.009-.01-.023.004-.015.014l.518.651c.005.006.013-.002.009-.008Zm2.142 3.431a9 9 0 0 0-.228-.39q-.235-.386-.476-.767a.008.008 0 0 0-.014.008q.221.393.43.794c.07.134.137.268.21.4a1.6 1.6 0 0 0 .224.363.02.02 0 0 0 .033-.02 1.5 1.5 0 0 0-.179-.388m-2.549-1.078c-.005-.007-.017.002-.012.01a43 43 0 0 1 2.35 4.023c.01.018.04.006.033-.013a13.8 13.8 0 0 0-2.37-4.02m.473 3.695a.008.008 0 0 0-.014.008c.335.635.657 1.279 1.041 1.886a.012.012 0 0 0 .02-.012c-.31-.648-.686-1.261-1.047-1.882m-19.574-10.87a5.1 5.1 0 0 0-1.11-.963c-.012-.007-.021.01-.01.017a5.2 5.2 0 0 1 1.056.985 5 5 0 0 1 .415.584c.126.207.23.425.358.631a.02.02 0 0 0 .036-.015 3.5 3.5 0 0 0-.745-1.239m.273 2.269a8.5 8.5 0 0 0-.65-.92 9.4 9.4 0 0 0-1.621-1.563c-.014-.011-.033.013-.02.025a9.3 9.3 0 0 1 1.568 1.63 11 11 0 0 1 .605.898 9 9 0 0 0 .548.94c.016.02.044-.002.04-.023a3.2 3.2 0 0 0-.47-.986m-1.546-.205a4.5 4.5 0 0 0-.739-.636c-.015-.01-.032.013-.02.025.228.23.44.475.65.72.207.244.424.481.624.732.016.02.045-.005.034-.026a3.8 3.8 0 0 0-.55-.815m1.965 2.942a4 4 0 0 0-.22-.395 4.7 4.7 0 0 0-.534-.704c-.008-.01-.022.005-.014.015a4.5 4.5 0 0 1 .482.728q.099.19.18.387a1.8 1.8 0 0 0 .184.382c.013.02.049.015.048-.013a1.1 1.1 0 0 0-.126-.4m-.279 2.503a44 44 0 0 0-.26-.566c-.173-.367-.34-.736-.53-1.094a6.2 6.2 0 0 0-1.424-1.85c-.017-.015-.041.009-.025.025a8.8 8.8 0 0 1 1.393 1.895 11 11 0 0 1 .51 1.03q.12.282.232.568a1.7 1.7 0 0 0 .216.462.03.03 0 0 0 .051-.021 1.5 1.5 0 0 0-.163-.449m-1.459-.018c-.008-.01-.022.004-.014.014a5.6 5.6 0 0 1 .84 1.49c.004.012.022.007.018-.005a4.7 4.7 0 0 0-.844-1.499m1.171 3.577-.003.003.13.13.003-.003zm-.264 1.206q-.104-.265-.212-.529c-.148-.36-.32-.723-.437-1.092a8 8 0 0 0-.45-1.025 8 8 0 0 0-.603-1.055c-.005-.007-.018-.003-.015.006.125.365.27.715.429 1.066.156.345.292.703.472 1.035a10 10 0 0 1 .486 1.098q.105.264.205.53a2.4 2.4 0 0 0 .228.536c.021.03.082.024.078-.021a2.1 2.1 0 0 0-.181-.55m-.405 1.462a23 23 0 0 1-.382-.931 18 18 0 0 0-.727-1.69.018.018 0 0 0-.033.014 18 18 0 0 0 .682 1.708q.204.461.388.93a3.6 3.6 0 0 0 .357.815.022.022 0 0 0 .04-.017 3.6 3.6 0 0 0-.325-.829m-1.188-.342c-.02-.039-.077-.005-.059.034a8 8 0 0 0 .485.96c.01.016.04.006.032-.014a8 8 0 0 0-.458-.98m1.089 2.817a2.2 2.2 0 0 0-.276-.394c-.008-.01-.027.004-.018.015a2.2 2.2 0 0 1 .244.4c.066.141.113.29.175.433a.016.016 0 0 0 .03-.008 1.2 1.2 0 0 0-.155-.446m-.729.777a.004.004 0 0 0-.008.002l.065.26a.004.004 0 0 0 .008-.002Zm-6.022 17.593a2 2 0 0 0-.315-.285 4 4 0 0 0-.363-.245 4 4 0 0 0-.375-.2q-.199-.086-.399-.167c-.017-.007-.027.02-.012.03q.18.11.354.234c.116.082.238.154.355.234q.176.119.357.23a3 3 0 0 0 .367.21.026.026 0 0 0 .031-.04m.634-.826a2.4 2.4 0 0 0-.24-.257 3 3 0 0 0-.287-.215 3.7 3.7 0 0 0-.632-.336.016.016 0 0 0-.016.027c.197.13.382.277.574.415.092.066.18.141.273.207q.147.1.299.197c.024.015.045-.018.029-.038m1.41 1.007a1 1 0 0 0-.139-.123c-.048-.035-.096-.073-.147-.105q-.083-.049-.168-.095a2 2 0 0 1-.171-.115c-.032-.023-.07.027-.041.053a2 2 0 0 1 .133.122l.118.129a1.5 1.5 0 0 0 .278.237c.042.027.114.073.163.04.054-.035.004-.11-.026-.143m.252-1.339a19 19 0 0 0-1.22-.96c-.014-.01-.033.014-.019.025q.611.506 1.2 1.037c.385.345.742.722 1.152 1.038.021.017.04-.017.026-.034a8 8 0 0 0-1.139-1.106m2.258.191q-.415-.451-.852-.88a15 15 0 0 0-1.846-1.568c-.008-.005-.017.007-.01.012.604.533 1.214 1.06 1.798 1.614q.433.41.846.842c.28.294.534.621.827.902.011.01.031-.004.022-.017a9 9 0 0 0-.785-.905m1.272-.466q-.207-.256-.422-.505a52 52 0 0 0-.893-1.01 13 13 0 0 0-.927-.937c-.046-.042-.573-.554-.618-.317a.014.014 0 0 0 .027.007l.122.017.06.069q.05.055.104.106l.193.188q.207.195.411.393c.271.266.552.521.811.799q.38.404.731.832.195.24.383.485a2.5 2.5 0 0 0 .354.419.02.02 0 0 0 .031-.024 2.4 2.4 0 0 0-.367-.522m-1.797-3.907c-.021-.012-.046.019-.027.035.406.332.782.693 1.164 1.052.012.011.036-.004.025-.02a4 4 0 0 0-1.162-1.067m2.685 2.867-.054-.08-.107-.156c-.016-.023-.054-.002-.038.022l.107.16.051.077a1 1 0 0 0 .063.075c.011.013.028-.003.022-.016a1 1 0 0 0-.044-.082m-.459-3.172a6 6 0 0 0-.309-.342 7 7 0 0 0-.697-.624c-.018-.014-.043.01-.025.025a7 7 0 0 1 .656.649q.152.173.292.357.14.183.297.351c.02.02.05-.006.038-.029a2 2 0 0 0-.252-.387m-.419-2.53c-.01-.012-.026.005-.016.017l.32.394c.01.012.026-.005.017-.017Zm.449-1.424-.006.006.065.065.006-.006Zm.38 11.06a6.5 6.5 0 0 0-.618-.743c-.02-.02-.05.01-.031.03a6.4 6.4 0 0 1 .608.753c.18.261.324.541.494.808.01.014.036.005.03-.012a3.8 3.8 0 0 0-.483-.836m-.031 2.65a17 17 0 0 0-.65-.935 28 28 0 0 0-1.367-1.742c-.017-.02-.044.008-.028.028a18 18 0 0 1 1.321 1.835c.186.304.36.614.536.925a3.3 3.3 0 0 0 .594.902.038.038 0 0 0 .063-.037 2.6 2.6 0 0 0-.469-.976m-2.43-.9a.014.014 0 0 0-.02.02 8 8 0 0 1 1.111 1.485c.008.013.027.001.02-.012a4.7 4.7 0 0 0-1.11-1.493m2.535 3.708a1 1 0 0 0-.09-.163 3 3 0 0 0-.21-.307 9 9 0 0 0-.486-.568c-.008-.009-.022.002-.016.012a7 7 0 0 1 .394.625q.09.16.183.317a2 2 0 0 0 .092.151 1 1 0 0 0 .132.136.026.026 0 0 0 .043-.025 1 1 0 0 0-.042-.178m-1.577.123c-.41-.652-.85-1.287-1.307-1.907-.02-.027-.064-.002-.044.026q.669.942 1.282 1.922c.41.652.765 1.34 1.188 1.983a.012.012 0 0 0 .02-.012 15.4 15.4 0 0 0-1.139-2.012m.199 3.112q-.288-.537-.593-1.065a21 21 0 0 0-1.35-2.08c-.01-.013-.029-.002-.021.011.419.697.854 1.384 1.271 2.081q.303.507.591 1.022c.203.362.375.758.608 1.102.009.014.035.006.029-.012a8.4 8.4 0 0 0-.535-1.059m-1.466-.06c-.013-.019-.044-.001-.031.018.619.924 1.133 1.901 1.688 2.863.008.013.027.001.02-.012a16.5 16.5 0 0 0-1.677-2.869m1.198 4.351-.203-.377-.42-.782c-.007-.013-.027-.001-.02.012l.393.78.193.382a2.4 2.4 0 0 0 .216.388c.01.013.035.006.03-.013a2.4 2.4 0 0 0-.19-.39m-.501 1.677a4 4 0 0 0-.31-.374c-.018-.019-.046.01-.029.028a4 4 0 0 1 .312.378c.094.13.177.268.265.402a.012.012 0 0 0 .02-.012 2.5 2.5 0 0 0-.259-.422m.069 2.043a.006.006 0 0 0-.008.008l.13.13a.006.006 0 0 0 .009-.008Zm22.814-27.853c-.3-.34-.632-.648-.957-.962-.027-.025-.062.013-.04.04.29.348.55.72.82 1.082a13 13 0 0 0 .867 1c.027.03.071-.007.054-.04a5.7 5.7 0 0 0-.744-1.12m-1.652.67q-.19-.217-.378-.435c-.13-.15-.272-.286-.41-.427-.02-.018-.055.007-.038.03.107.148.21.302.328.443l.38.457c.248.3.522.579.79.86.016.015.046-.006.032-.025-.229-.304-.455-.615-.705-.903m2.224 2.902q-.049-.075-.101-.15a5 5 0 0 0-.222-.3q-.237-.293-.5-.562c-.015-.015-.035.007-.023.022q.24.293.453.606l.203.299q.05.08.103.16a.26.26 0 0 0 .11.106c.019.007.033-.01.035-.026a.27.27 0 0 0-.058-.155m-3.662-2.074c-.021-.025-.068.01-.047.037.545.713 1.1 1.413 1.69 2.089.012.013.036-.005.025-.02a41 41 0 0 0-1.668-2.106m3.429 4.766c-.003-.004-.01 0-.007.004l.195.26c.003.004.01 0 .007-.004Zm-1.734.007a36 36 0 0 0-1.824-2.17c-.015-.017-.045.005-.031.023a35 35 0 0 0 1.695 2.186c.603.725 1.186 1.476 1.825 2.17.015.016.045-.006.032-.024-.531-.752-1.128-1.462-1.697-2.185m-1.509.698a.01.01 0 0 0-.014.014c.49.531.993 1.05 1.462 1.601q.703.823 1.376 1.67c.008.01.026-.004.019-.015a16 16 0 0 0-2.843-3.27m1.748 3.889a15 15 0 0 0-1.477-1.431c-.01-.009-.024.005-.014.014.49.464.966.95 1.413 1.456q.33.377.64.77c.212.269.41.55.638.803.016.017.042-.005.031-.024a8.7 8.7 0 0 0-1.231-1.588m.547 3.135c-.162-.202-.322-.403-.491-.598q-.505-.584-1.008-1.17c-.01-.012-.031.003-.022.016q.459.62.916 1.242.216.29.443.573a1.9 1.9 0 0 0 .511.556.032.032 0 0 0 .047-.036 1.8 1.8 0 0 0-.396-.583m-1.003 1.568c-.01-.009-.024.005-.014.014a2.9 2.9 0 0 1 .582.779c.007.014.027.001.02-.012a2.3 2.3 0 0 0-.588-.781m.601 3.329-.152-.16a8 8 0 0 0-.316-.311.02.02 0 0 0-.028.028q.139.168.29.328l.147.157a2 2 0 0 0 .166.148c.014.012.04-.004.028-.022a2 2 0 0 0-.134-.168m23.466-23.188q-.107-.137-.225-.263-.237-.263-.494-.507-.251-.237-.52-.456a2.7 2.7 0 0 0-.581-.393.018.018 0 0 0-.022.028 6 6 0 0 0 .519.45q.264.222.512.463.241.235.465.487l.225.262a1 1 0 0 0 .242.23.028.028 0 0 0 .04-.031.8.8 0 0 0-.16-.27m-2.115.53c-.097-.115-.19-.238-.296-.346l-.31-.316a4 4 0 0 0-.352-.291c-.022-.018-.064.006-.043.034a4 4 0 0 0 .27.346l.32.324c.102.105.219.198.33.296l.35.31a.014.014 0 0 0 .02-.02zm1.944 1.975a.4.4 0 0 0-.06-.072q-.06-.07-.127-.136c-.095-.092-.196-.177-.295-.264-.196-.172-.387-.349-.581-.522-.029-.026-.07.015-.043.042.185.184.366.37.537.566l.252.293c.041.046.087.09.13.134a.4.4 0 0 0 .077.07.3.3 0 0 0 .088.027.038.038 0 0 0 .046-.046.3.3 0 0 0-.024-.092M70.005 64.5c-.234-.214-.475-.418-.707-.634a18 18 0 0 0-1.321-1.256c-.021-.015-.042.017-.027.035a18 18 0 0 0 1.349 1.257c.216.207.423.421.636.63q.17.166.343.328a2 2 0 0 0 .326.275c.013.008.03-.008.022-.022a4 4 0 0 0-.621-.613m-1.829.65c-.011-.01-.028.006-.017.016.213.199.425.4.644.593.011.01.028-.007.017-.017-.21-.202-.428-.396-.644-.593m2.9 2.671-.136-.129c-.095-.09-.2-.173-.301-.258q-.299-.253-.59-.514l-.003.003q.275.277.543.56c.087.094.172.191.265.28l.135.129c.042.04.089.105.148.116a.044.044 0 0 0 .054-.053c-.014-.057-.074-.096-.115-.134m-2.163.295a2 2 0 0 0-.172-.158l-.177-.144a2 2 0 0 0-.2-.129c-.02-.013-.043.017-.026.035a2 2 0 0 0 .161.169l.18.15c.058.049.119.09.181.133.065.045.13.095.198.134a.016.016 0 0 0 .02-.025c-.05-.058-.11-.11-.165-.165m1.735 1.939q-.142-.125-.279-.256-.27-.258-.517-.537c-.012-.014-.03.006-.02.02q.24.286.501.553.13.132.263.258a1.2 1.2 0 0 0 .284.227c.013.006.032-.007.022-.021a1.5 1.5 0 0 0-.254-.244m-.296 2.116q-.131-.144-.265-.286-.274-.292-.551-.582l-.54-.564a3.3 3.3 0 0 0-.572-.518c-.044-.029-.083.033-.053.069a5 5 0 0 0 .574.529c.2.17.388.347.573.531q.27.27.523.552.13.146.257.295a1.5 1.5 0 0 0 .252.276c.018.012.035-.011.027-.027a1.3 1.3 0 0 0-.225-.275m-1.802.658a.01.01 0 0 0-.006.02.8.8 0 0 1 .445.329c.007.01.024 0 .017-.01a.83.83 0 0 0-.457-.339m1.776 1.786q-.046-.047-.097-.09l-.192-.17-.384-.34c-.006-.006-.014.002-.008.008l.365.359.178.174q.046.047.096.09a.5.5 0 0 0 .097.074.014.014 0 0 0 .02-.019.5.5 0 0 0-.075-.086m-1.867.767-.095-.049-.197-.102c-.018-.01-.034.018-.016.028l.197.102.095.049a1 1 0 0 0 .1.047c.011.003.022-.013.012-.02a1 1 0 0 0-.096-.055m1.667 1.511q-.203-.14-.414-.269l-.002.003q.203.136.398.283c.13.098.254.204.388.295.01.007.02-.007.012-.015a3 3 0 0 0-.382-.297m-1.308.81c-.02-.013-.037.018-.018.03a2.9 2.9 0 0 1 .844.904.01.01 0 0 0 .017-.01 2.6 2.6 0 0 0-.843-.924m1.221 1.388c-.004-.003-.01.003-.006.006l.39.325c.008.007.019-.005.011-.011Z"/><path fill="currentColor" d="M53.693 178.926a34 34 0 0 0-1.287 3.264 13.4 13.4 0 0 0-.832 3.408c-.002.038.05.04.062.008.393-1.092.586-2.263.914-3.377a33 33 0 0 1 1.161-3.295c.005-.01-.013-.018-.018-.008m1.226 1.296a47 47 0 0 0-1.724 4.43c-.231.755-.465 1.51-.683 2.267a9 9 0 0 0-.522 2.318.04.04 0 0 0 .078.01c.258-.727.317-1.558.506-2.31a21 21 0 0 1 .709-2.26c.558-1.48 1.1-2.965 1.665-4.443.007-.016-.022-.029-.029-.012m1.286 1.996c-.641 1.698-1.273 3.398-1.797 5.137-.257.851-.478 1.711-.702 2.572l-.334 1.288a2.3 2.3 0 0 0-.139 1.07.052.052 0 0 0 .095.013 2.5 2.5 0 0 0 .218-.965q.095-.745.256-1.478c.192-.867.45-1.722.716-2.569.532-1.7 1.136-3.378 1.73-5.056.01-.027-.033-.038-.043-.012m.893 2.844c-.489 1.524-.968 3.051-1.363 4.603a.014.014 0 0 0 .027.007c.51-1.517.937-3.06 1.355-4.605a.01.01 0 0 0-.02-.005m-1.827 6.333q-.145.852-.3 1.702c-.052.278-.112.553-.157.832a1.8 1.8 0 0 0-.064.778.04.04 0 0 0 .073.01 1.8 1.8 0 0 0 .168-.773c.039-.276.061-.554.094-.832q.1-.856.213-1.713c.002-.016-.025-.02-.027-.004m2.305-1.483q-.409 1.923-.69 3.87-.127.889-.226 1.782a9 9 0 0 0-.131 1.997c.003.025.04.035.047.007a11 11 0 0 0 .189-1.783q.086-.96.204-1.917.246-1.986.63-3.95c.003-.015-.02-.021-.023-.006m1.035 3.748c.003-.02-.028-.03-.03-.01a24 24 0 0 0-.324 3.163 15.4 15.4 0 0 0 .138 3.175c.004.024.043.018.043-.006-.022-1.039-.123-2.067-.099-3.108a26 26 0 0 1 .272-3.215m1.981 6.543a18 18 0 0 1-.28-2.085 19 19 0 0 1 .1-3.857c.002-.013-.021-.016-.023-.003a17.5 17.5 0 0 0-.15 4.006 18 18 0 0 0 .256 1.89 8.3 8.3 0 0 0 .5 1.909c.01.02.036.004.033-.014-.098-.62-.316-1.227-.436-1.846m2.506 1.106a16 16 0 0 1-.444-1.875 24 24 0 0 1-.306-4.127.018.018 0 0 0-.036 0 17 17 0 0 0 .293 4.064c.134.68.278 1.355.463 2.023a9 9 0 0 0 .66 1.895.02.02 0 0 0 .037-.016c-.18-.665-.47-1.302-.667-1.964m1.968-1.843c-.002-.01-.017-.01-.016 0a5.2 5.2 0 0 0 .394 1.488c.005.012.027.004.022-.009a6.2 6.2 0 0 1-.4-1.48m1.733 4.246-.282-.52c-.008-.016-.031-.002-.024.014l.246.529a3 3 0 0 0 .274.512c.011.015.039.007.032-.014a3 3 0 0 0-.246-.521m2.542-.281-.28-.532-.139-.265-.012-.02.01.021.137.267.275.534.549 1.067c.006.011.023.001.017-.01zm-.43-.817a2 2 0 0 0-.09-.173 2 2 0 0 0 .09.173"/><path fill="currentColor" d="M68.75 202.35a.057.057 0 1 0 .037-.015c.01-.066-.088-.01-.038.015m2.042-.821c-.006-.012-.023-.002-.017.01a13.7 13.7 0 0 0 2.653 3.58.012.012 0 0 0 .017-.017 17.8 17.8 0 0 1-2.653-3.573m4.259 2.188q-.442-.447-.87-.906c-.01-.01-.022.004-.014.014q.4.497.839.96a7 7 0 0 0 .908.85c.016.012.03-.012.02-.024-.272-.319-.59-.596-.884-.894m2.479.078c-.026-.02-.063.016-.037.037.29.232.572.478.883.681a.014.014 0 0 0 .017-.022c-.268-.253-.572-.47-.863-.696m2.764.502a.026.026 0 0 0 0 .051.026.026 0 0 0 0-.05m5.18 9.837q-.581-.631-1.14-1.28a68 68 0 0 1-1.07-1.28 14 14 0 0 0-1.12-1.302c-.046-.045-.134.016-.093.073a14 14 0 0 0 1.08 1.22q.585.625 1.156 1.264.553.623 1.087 1.263c.376.45.728.933 1.14 1.352.05.05.117-.023.076-.076-.339-.437-.742-.828-1.116-1.234m-3.688-.91c-.026-.02-.055.021-.034.043.246.26.503.51.746.772.243.263.484.525.72.795.011.013.034-.004.024-.02a6.8 6.8 0 0 0-1.456-1.59m3.856 4.592a3.5 3.5 0 0 0-.395-.414c-.013-.012-.033.007-.02.02a3.5 3.5 0 0 1 .381.42c.111.144.2.304.311.448.007.01.024-.001.02-.012a1.8 1.8 0 0 0-.297-.462m-.489 4.099c-.008-.007-.016.007-.008.013l.347.26c.008.006.016-.007.008-.013Zm-43.929-42.569c-.005-.02-.037-.016-.036.005a31 31 0 0 0 .612 3.992c.005.022.04.017.039-.005a31 31 0 0 0-.615-3.992m.953 6.823q-.137-.585-.226-1.18c-.001-.011-.02-.009-.02.003q.05.608.128 1.215a3.9 3.9 0 0 0 .274 1.128.03.03 0 0 0 .056-.016 6.5 6.5 0 0 0-.212-1.15m-1.723-2.316c-.004-.02-.038-.016-.036.005.175 1.594.349 3.205.674 4.777a.028.028 0 0 0 .055-.007c-.13-1.6-.414-3.196-.693-4.775M25.328 212.41a2.3 2.3 0 0 0-.89-.514q-.508-.229-.992-.507a21 21 0 0 1-1.813-1.184 13.7 13.7 0 0 1-3.22-3.132c-.013-.018-.043-.001-.03.018a11.3 11.3 0 0 0 3.037 3.152c.615.446 1.259.844 1.906 1.241q.5.306.979.64a2.24 2.24 0 0 0 .935.5c.12.015.147-.141.088-.214m1.892-1.406a1.04 1.04 0 0 0-.62-.333c-.301-.099-.606-.19-.906-.295a9.7 9.7 0 0 1-1.799-.866 18.8 18.8 0 0 1-3.123-2.367.014.014 0 0 0-.02.02 13.7 13.7 0 0 0 3.035 2.426c.564.333 1.15.632 1.73.937.26.138.525.273.796.39.261.113.581.295.866.187a.068.068 0 0 0 .04-.1m1.707-1.73c-.2-.093-.407-.154-.612-.235-.248-.098-.486-.23-.723-.352q-.666-.345-1.31-.73a36 36 0 0 1-2.464-1.624c-.02-.014-.046.018-.027.034a19 19 0 0 0 2.43 1.693q.648.38 1.317.719c.217.11.44.207.654.319.225.116.428.254.662.351.099.041.171-.129.073-.175m-.13-2.958-1.377-.714c-.014-.007-.026.013-.013.02l1.367.733c.454.244.903.509 1.376.716a.014.014 0 0 0 .014-.024c-.438-.273-.91-.494-1.367-.73m1.128-2.526c-.016-.008-.024.02-.007.026l.434.17c.012.004.017-.015.006-.02ZM15.78 146.358a10 10 0 0 1-1.368-.66.02.02 0 0 0-.02.034 10 10 0 0 0 1.323.673 6.5 6.5 0 0 0 1.456.455.02.02 0 0 0 .01-.038c-.468-.153-.942-.284-1.402-.464m4.259-.101a4.7 4.7 0 0 0-1.06-.407q-.57-.202-1.134-.417-1.164-.446-2.314-.932c-.018-.008-.034.018-.016.027q1.093.532 2.218.989.56.227 1.127.44.284.105.57.204a2.2 2.2 0 0 0 .59.166c.04.003.047-.05.019-.07m1.952-1.043c-.216-.3-.543-.274-.876-.341a4.8 4.8 0 0 1-1.055-.402 117 117 0 0 0-1.983-.9c-.032-.014-.06.03-.028.049a15 15 0 0 0 1.94.923 7 7 0 0 1 1.07.462c.287.174.53.417.886.323a.078.078 0 0 0 .046-.114m2.205-1.092c-.167-.236-.521-.21-.777-.265a5 5 0 0 1-.87-.308 28 28 0 0 0-1.63-.65.026.026 0 0 0-.02.047 14 14 0 0 0 1.617.683 6 6 0 0 1 .853.347c.223.121.492.377.764.3a.106.106 0 0 0 .063-.154m1.3-1.459q-.241-.082-.484-.159-.486-.151-.983-.268a.012.012 0 0 0-.006.023q.48.145.955.302.233.077.465.159a4 4 0 0 0 .483.159.02.02 0 0 0 .015-.037 2.6 2.6 0 0 0-.445-.179m2.174-1.203a2 2 0 0 0-.189-.065l-.193-.052a4 4 0 0 0-.396-.066.028.028 0 0 0-.015.054 4 4 0 0 0 .39.117l.196.04a2 2 0 0 0 .2.023c.031.003.032-.04.007-.05m1.955-1.128-.22-.022c-.014-.001-.016.02-.003.024l.214.07a.8.8 0 0 0 .221.03c.025 0 .025-.032.006-.04a.8.8 0 0 0-.218-.062M16.74 127.874c-.221-.124-.458-.209-.69-.31q-.347-.155-.685-.329a11 11 0 0 1-1.303-.78c-.012-.009-.024.012-.012.02a10.6 10.6 0 0 0 1.287.854c.22.124.45.233.681.337a3.2 3.2 0 0 0 .705.248c.023.004.04-.028.017-.04m2.887-.624c-.372-.127-.762-.19-1.131-.329a9 9 0 0 1-1.13-.522 18 18 0 0 1-1.988-1.264c-.016-.012-.037.015-.022.028a9.8 9.8 0 0 0 2.004 1.321c.362.181.734.346 1.107.505a8 8 0 0 0 1.108.448.098.098 0 0 0 .052-.188m2.497-.868a8 8 0 0 0-.93-.37q-.537-.212-1.06-.458a21 21 0 0 1-1.907-1.01c-.016-.01-.03.014-.014.024a17 17 0 0 0 1.906 1.082q.452.218.916.41a4.8 4.8 0 0 0 1.067.373c.03.005.051-.034.022-.05m2.086-.796a3.5 3.5 0 0 0-.639-.298q-.357-.144-.712-.292-.72-.296-1.425-.624c-.028-.013-.052.026-.024.04q.682.356 1.38.681.336.157.679.301a3.2 3.2 0 0 0 .717.247.03.03 0 0 0 .023-.055m.763-1.615a18 18 0 0 1-1.115-.385c-.023-.009-.039.03-.016.04a6.8 6.8 0 0 0 2.26.713c.022.002.024-.03.005-.036-.375-.122-.757-.216-1.134-.332m1.842-.848a.026.026 0 0 0-.014.05 8 8 0 0 0 1.033.285.02.02 0 0 0 .01-.039 8 8 0 0 0-1.03-.296m2.414-.478a.008.008 0 0 0 0 .016h.347a.008.008 0 0 0 0-.016Zm2.345-.773c-.063-.025-.122-.054-.186-.075a2 2 0 0 0-.193-.045 2.4 2.4 0 0 0-.404-.02.048.048 0 0 0-.013.093 2.4 2.4 0 0 0 .383.108 2 2 0 0 0 .206.02c.066.001.131-.007.197-.01a.036.036 0 0 0 .01-.071M43.608 89.32a18.3 18.3 0 0 0-7.127 3.203c-.027.02-.002.063.026.045a29.7 29.7 0 0 1 7.117-3.191.03.03 0 0 0-.016-.057m-.43-.508a18 18 0 0 0-2.016.563c-.638.227-1.263.488-1.883.76-.017.007-.005.034.012.029 1.304-.426 2.61-.83 3.906-1.283a.036.036 0 0 0-.02-.069m16.828-2.588a.016.016 0 0 0 0 .032c.607.002 1.214.007 1.82-.004a.012.012 0 0 0 0-.024c-.606-.012-1.213-.007-1.82-.004m27.055 3.028a.008.008 0 0 0-.003.016 13.5 13.5 0 0 1 3.458 1.666c.013.009.024-.011.012-.02a10.2 10.2 0 0 0-3.466-1.662m1.731-.103c-.018-.002-.022.029-.005.031a3.4 3.4 0 0 1 1.818.879.012.012 0 0 0 .017-.017 3.13 3.13 0 0 0-1.83-.893m3.92-26.255a9.5 9.5 0 0 0-2.006-1.294c-.025-.013-.047.024-.022.038q.523.286 1.022.614c.33.219.65.455.982.673a.02.02 0 0 0 .024-.031m-3.977-.56c-.012-.006-.022.01-.01.017a21 21 0 0 1 4.098 2.949.022.022 0 0 0 .03-.031 13.1 13.1 0 0 0-4.118-2.935m4.181 4.839a3 3 0 0 0-.506-.37c-.19-.135-.377-.27-.56-.413-.338-.265-.666-.543-1.009-.804a23 23 0 0 0-2.215-1.472c-.018-.01-.033.016-.016.027.716.506 1.42 1.028 2.124 1.551.357.265.718.525 1.06.81q.258.218.496.456a3.4 3.4 0 0 0 .45.443.145.145 0 0 0 .2-.052.15.15 0 0 0-.024-.176m-.28 1.817q-.257-.181-.513-.366a12 12 0 0 1-1.005-.842 3.63 3.63 0 0 0-1.732-1.12.024.024 0 0 0-.018.044 16 16 0 0 1 1.776 1.222c.307.26.616.514.899.8l.442.457a1.2 1.2 0 0 0 .439.328c.084.028.143-.07.108-.14a1.2 1.2 0 0 0-.396-.383m.261 2.823c-.22-.24-.477-.45-.714-.673a11 11 0 0 1-.714-.713c-.217-.243-.417-.51-.649-.739a6 6 0 0 0-.761-.598c-.03-.021-.056.023-.036.047a7 7 0 0 0 .65.736c.244.22.515.41.762.627a9 9 0 0 1 .676.673c.227.247.438.515.677.75a.078.078 0 0 0 .11-.11m-1.693.517c-.069-.065-.142-.122-.215-.181-.07-.056-.138-.118-.212-.168a3 3 0 0 0-.245-.15.018.018 0 0 0-.021.028q.092.104.195.2c.067.065.146.12.219.178.07.056.14.113.214.163a2 2 0 0 0 .24.157.02.02 0 0 0 .025-.031 2 2 0 0 0-.2-.196m1.671 1.643c-.057-.041-.11-.087-.167-.128q-.086-.063-.166-.132a3 3 0 0 1-.296-.299c-.006-.006-.018.003-.012.01a3 3 0 0 0 .271.333q.074.08.153.152a2 2 0 0 0 .177.133c.042.03.08-.04.04-.069m-1.4 1.087a.004.004 0 0 0 0-.008m.968 2.856c-.006-.008-.02 0-.014.008l.26.347c.006.008.02 0 .014-.008Zm-.138-20.868a6 6 0 0 0-.955-.613 9 9 0 0 0-1.025-.49c-.026-.01-.042.03-.019.043.33.18.664.353.992.537s.646.386.983.555c.02.009.043-.017.024-.032m-1.426-3.152c-.195-.13-.417-.214-.62-.33a6 6 0 0 1-.594-.37c-.025-.019-.057.022-.033.044a3.3 3.3 0 0 0 .576.436 1.9 1.9 0 0 0 .657.268c.028.003.032-.036.013-.048m1.592.947-.093-.053a4 4 0 0 0-.205-.107l-.415-.205a.014.014 0 0 0-.014.024l.392.244q.097.061.198.118l.095.052a.16.16 0 0 0 .102.035.026.026 0 0 0 .022-.04c-.017-.036-.048-.049-.082-.068m-.218-2.485a4 4 0 0 0-.613-.337q-.302-.152-.602-.31-.61-.322-1.207-.666a.012.012 0 0 0-.012.02q.595.37 1.204.718.304.173.612.34a3 3 0 0 0 .598.283c.03.009.042-.03.02-.047m-.69-2.605-.282-.151-.573-.309c-.027-.014-.051.026-.024.041l.567.319.28.157a1.5 1.5 0 0 0 .281.14.02.02 0 0 0 .02-.034 1.5 1.5 0 0 0-.269-.163m-.922-2.616a2.4 2.4 0 0 1-.462-.258c-.009-.007-.02.008-.012.016a1.84 1.84 0 0 0 .96.447c.017.001.019-.023.004-.028a6 6 0 0 1-.49-.177m-.236-2.004a2 2 0 0 1-.234-.097 2.5 2.5 0 0 1-.417-.253c-.025-.018-.058.025-.033.044a2.6 2.6 0 0 0 .423.27q.108.055.22.1a.7.7 0 0 0 .246.061.022.022 0 0 0 .01-.04 1.2 1.2 0 0 0-.215-.085m-.74-2.251-.172-.09c-.025-.013-.047.026-.022.038l.178.085q.088.044.177.08c.013.006.02-.014.01-.021q-.085-.05-.171-.092m-.7-6.75a8.3 8.3 0 0 0-1.617-.74 11 11 0 0 0-1.762-.489.02.02 0 0 0-.01.038c.573.176 1.149.347 1.71.557s1.104.46 1.663.674c.023.009.037-.028.016-.04m-3.203-3.061a.022.022 0 0 0-.011.042 20 20 0 0 1 1.994.692c.013.005.022-.015.01-.022a8.7 8.7 0 0 0-1.993-.712m3.381 1.289a5 5 0 0 0-.342-.167q-.173-.081-.345-.164c-.014-.007-.026.013-.012.02q.166.091.332.186.164.096.335.18a.03.03 0 0 0 .032 0 .03.03 0 0 0 .016-.027.03.03 0 0 0-.016-.028m-1.208-2.721q-.291-.111-.587-.213-.58-.199-1.173-.36a.008.008 0 0 0-.005.016q.58.168 1.148.372.284.103.565.214a3 3 0 0 0 .561.217.012.012 0 0 0 .01-.022 2.2 2.2 0 0 0-.519-.224m-.693-2.195q-.05-.04-.103-.077a1 1 0 0 0-.113-.06 2 2 0 0 0-.24-.105 1.2 1.2 0 0 0-.243-.061 1 1 0 0 0-.133-.013c-.042-.002-.08.008-.123.003-.033-.004-.041.044-.016.06.034.02.053.047.085.07a1 1 0 0 0 .108.069 1.3 1.3 0 0 0 .248.108 2 2 0 0 0 .253.061 1 1 0 0 0 .133.022h.123a.042.042 0 0 0 .021-.077m1.427.5-.07-.021-.137-.043-.277-.085c-.015-.005-.02.017-.006.023l.273.097.136.05.069.024a.06.06 0 0 0 .051 0 .012.012 0 0 0 .004-.016c-.009-.019-.024-.023-.043-.03m-1.15-2.482-.222-.049-.411-.09c-.285-.061-.573-.111-.86-.164-.02-.004-.029.025-.009.03.281.077.561.156.845.223l.41.096.22.052a.3.3 0 0 0 .177.01.024.024 0 0 0 .01-.04.3.3 0 0 0-.16-.068M86.43 25.2l-.226-.064c-.148-.042-.3-.07-.45-.104a.016.016 0 0 0-.009.03c.146.05.29.105.438.147l.218.061a1.3 1.3 0 0 0 .22.043.02.02 0 0 0 .01-.037 1.3 1.3 0 0 0-.201-.076m-.38-1.92q-.118-.045-.24-.085l-.488-.166c-.017-.005-.024.021-.007.027l.474.183a3 3 0 0 0 .48.162c.015.003.025-.017.01-.025a2 2 0 0 0-.23-.096m-1.067-2.338c-.018-.009-.034.018-.016.028.173.089.344.186.524.26.015.005.024-.018.011-.026-.166-.1-.345-.178-.519-.262m-13.566 8.041a23 23 0 0 1-.631-.6.01.01 0 0 0-.014.014q.3.315.59.64a3.2 3.2 0 0 0 .61.594.02.02 0 0 0 .028-.027 3.2 3.2 0 0 0-.583-.621m.205 2.986q-.159-.175-.319-.348c-.215-.232-.417-.473-.625-.711a22 22 0 0 0-1.295-1.384.016.016 0 0 0-.023.022c.416.465.841.921 1.249 1.394a12 12 0 0 1 .867 1.107 1.3 1.3 0 0 0 .276.337.08.08 0 0 0 .117-.09 1.1 1.1 0 0 0-.247-.327m-2.399-.219c-.027-.019-.053.026-.026.045a3.24 3.24 0 0 1 1.012 1.225c.005.012.026.004.021-.009a2.7 2.7 0 0 0-1.007-1.26m1.943 2.449q-.032-.057-.067-.112a3 3 0 0 0-.147-.209 2 2 0 0 0-.37-.351c-.006-.004-.013.005-.008.01a3 3 0 0 1 .337.373 2 2 0 0 1 .147.209q.033.052.063.107a.24.24 0 0 0 .063.093.016.016 0 0 0 .024-.014.2.2 0 0 0-.042-.105m-2.395-.335c-.012-.01-.03.007-.017.017a1.76 1.76 0 0 1 .52.687c.004.012.023.007.019-.005a1.8 1.8 0 0 0-.522-.7m1.909 3.125a.01.01 0 0 0-.018.01c.114.202.223.41.345.607a.012.012 0 0 0 .02-.012c-.108-.205-.23-.404-.347-.606m-.511 1.991q-.27-.58-.556-1.154c-.01-.02-.041-.003-.031.018q.277.566.54 1.14c.174.38.333.77.517 1.147.007.014.031.004.026-.01-.143-.39-.321-.765-.496-1.14m.193 6.312c-.025-.06-.126-.017-.105.044a7 7 0 0 0 .466 1.126.028.028 0 0 0 .05-.022 7 7 0 0 0-.41-1.148"/></svg>