<svg xmlns="http://www.w3.org/2000/svg" data-name="Layer 2" viewBox="0 0 84.44 57.02"><g data-name="Layer 1"><g data-name="Layer_1"><g data-name="2660044033968"><path d="M24.18 36.21s-3.88.19-6.5 1.33a8.94 8.94 0 0 0-3.26 2.44c-.79.95-1.27 1.99-1.24 2.87.03.87.21 1.54.49 2 .28.45.65.7 1.06.76.45.06 1.31-.2 2.28-.48.94-.28 1.97-.59 2.94-.69 1.16-.12 3.12.08 4.99.27 1.35.14 2.65.28 3.55.28 1.07 0 1.9.02 2.68.06.77.04 1.47.11 2.28.22.66.09 1.97.4 3.46.76 2.13.51 4.64 1.12 6.05 1.24 1.32.11 2.1-.12 2.95-.38.68-.21 1.4-.43 2.44-.52 1.2-.11 2.79.06 4.64.26 1.86.2 3.99.43 6.24.43 2.68 0 5.17-.35 7.04-.61 1.26-.18 1.6-.31 2.22-.29l.6.88c-.53-.03-1.48.11-2.7.28-1.9.27-4.43.62-7.16.62-2.28 0-4.45-.23-6.34-.43-1.8-.19-3.35-.36-4.47-.26-.95.08-1.63.29-2.26.48-.94.28-1.8.55-3.28.42-1.46-.13-4.01-.74-6.18-1.26-1.46-.35-2.74-.66-3.37-.74-.78-.1-1.46-.17-2.21-.21-.74-.04-1.56-.06-2.64-.06-.92 0-2.26-.14-3.64-.28-1.83-.19-3.74-.39-4.81-.27-.88.09-1.87.39-2.78.66-1.06.32-2.01.6-2.64.51-.67-.09-1.27-.48-1.7-1.17-.36-.58-.58-1.39-.62-2.43-.04-1.11.52-2.35 1.44-3.47a9.96 9.96 0 0 1 3.59-2.69c2.77-1.21 6.43-1.35 6.44-1.35l.41.83Zm-1.85-16.99s-2.4-.05-3.35-.05h-.47c-1.14.03-3.14.08-4.6-.67l-.29-.15c-2.41-1.24-5.18-2.66-5.14-5.68 0-.38.04-.76.12-1.08.07-.33.18-.61.34-.82.3-.4.96-.69 1.81-.84.71-.12 1.58-.16 2.49-.08.14-.22.7-.95 1.87-1 1.61-.07 2.93-.06 4.17-.05 2.29.02 4.31.04 7.56-.51 1.29-.22 2.76-.56 4.22-.96 1.72-.47 3.45-1.03 4.88-1.54 2.96-1.06 11.45-3.14 11.47-3.14l.21.86c-5.57 1.36-9.84 2.4-14.92 4.64-2.05.9-4.07 1.79-6.66 2.35-2.16.46-4.24.64-6.33.65-2.08 0-4.16-.15-6.32-.39-.91-.1-1.79-.07-2.49.05-.63.11-1.1.28-1.26.49-.08.1-.14.27-.18.48-.06.26-.09.58-.1.9-.04 2.47 2.48 3.76 4.66 4.88l.29.15c1.26.65 3.11.6 4.18.58h.49c.9-.01 3.54.04 3.55.04l-.2.88Zm-7.99-9.24c1.84.18 3.61.3 5.37.3 2.03 0 4.05-.19 6.15-.63 1.02-.22 1.95-.49 2.84-.8-.6.13-1.17.25-1.71.34-3.31.55-5.38.53-7.71.52-1.22 0-2.52-.02-4.12.05-.36.02-.63.12-.81.23Z" style="fill:currentColor;fill-opacity:.5"/><path fill="currentColor" d="M3.21 31.7c-3.64 2.93-3.64 9.19 0 12.11l.49-.89.96 2.27-2.18-.06.35-.63c-3.77-3.05-3.77-10.44 0-13.5l-.35-.63 2.18-.06-.96 2.27-.49-.89Zm0-21.32c-3.64 2.93-3.64 9.19 0 12.11l.49-.89.96 2.27-2.18-.06.35-.63c-3.77-3.05-3.77-10.44 0-13.5l-.35-.63 2.18-.06-.96 2.27-.49-.89Z"/><g fill="currentColor"><path d="M57.32 7.9S54.79 5.46 52.61 5c-1.08-.23-2.03-.16-3.09.17-1.1.34-2.34.96-3.96 1.82-1.59.84-3.43 1.68-5.24 2.43-1.95.81-3.87 1.5-5.39 1.95-1.41.42-2.78 1.11-4.07 1.9-1.31.8-2.53 1.71-3.62 2.57-1.25.98-3.08 2.29-4.81 3.4-1.38.88-2.7 1.63-3.62 1.99l-.98.37c-1.96.74-4.46 1.68-5.84 2.41-.4.21-.65.48-.79.79-.18.38-.21.82-.16 1.24.12.99.69 1.65 1.46 2.07 1.08.59 2.55.73 3.76.64 3.06-.23 6.29-1.95 6.3-1.95l.05-.03h.05c.86-.23 2.69-.69 4.42-1.24 1.69-.54 3.31-1.17 3.82-1.73l.12-.13h.17c1.86-.17 3.55-.46 5-.8 1.89-.44 3.35-.97 4.22-1.37l.06-.03h.06c.55-.1 1.69-.5 1.69-.5l.32-.11.19.29s.55.82 2.2.57l.13.87c-1.55.23-2.44-.34-2.83-.7-.37.12-1.06.34-1.5.42-.92.43-2.43.96-4.34 1.41-1.44.34-3.13.63-4.97.79-.72.64-2.37 1.29-4.07 1.84-1.75.56-3.55 1.02-4.43 1.24-.43.22-3.58 1.8-6.59 2.02-1.35.1-3-.06-4.25-.74-1.01-.55-1.76-1.43-1.91-2.75-.07-.56-.02-1.17.24-1.72.22-.46.59-.88 1.17-1.19 1.42-.75 3.96-1.71 5.94-2.46l.97-.37c.87-.33 2.13-1.05 3.46-1.9 1.7-1.09 3.51-2.38 4.74-3.35 1.13-.88 2.38-1.81 3.7-2.63 1.35-.83 2.78-1.55 4.28-1.99 1.5-.45 3.38-1.13 5.3-1.92 1.78-.73 3.59-1.56 5.16-2.4 1.66-.88 2.94-1.52 4.11-1.88 1.21-.37 2.29-.45 3.53-.19 1.88.39 3.53 1.82 4.53 3.76Z"/><path d="M48.84 20.3c-.22.38-.91.75-1.76 1.21-.77.42-1.69.92-2.43 1.49-.57.44-1.02 1.04-1.34 1.64-.48.88-.7 1.73-.7 2.08h-.88c0-.44.25-1.48.81-2.5.38-.69.9-1.4 1.58-1.92.81-.62 1.75-1.14 2.55-1.57.73-.4 1.32-.72 1.42-.88.28-.48 1.08-2.65 1.08-2.65.14.96.18 2.25-.31 3.09Z"/><path d="M46.98 25.65s-2.12.35-4.68 1.48-3.35 1.8-3.35 1.8l-.56-.68s.89-.75 3.56-1.92c1.8-.79 3.39-1.15 5.04-.67Z"/><path d="M44.38 30.09c-.51-.23-1.41-.44-2.39-.62-1.19-.22-2.47-.37-3.3-.4-1.23-.05-2.67-.2-4.08-.38-2.02-.26-4-.59-5.24-.82l-.12-.02c-.63-.12-3.64-.61-6.07-.33l.46-.88c2.57-.29 5.12.21 5.78.34l.12.02c1.23.22 3.19.55 5.19.81 1.39.18 2.8.32 4.01.38 1.78.08 4.57.4 5.65 1.91Zm-29.26-.51c-.17.15-.33.33-.48.52a4.4 4.4 0 0 0-.84 2.16c-.07.72.07 1.41.5 1.89.08.09.17.17.26.24.26.19 1.77.06 3.17-.06.51-.04 1-.09 1.46-.11.87-.05 1.68.06 2.45.24.76.18 1.46.45 2.12.72.3.13.48.2.65.28.89.38 1.56.67 2.68.8.65.07 1.45.21 2.18.35.96.19 1.82.39 2.16.49.77.24 2.03.74 3.44 1.39 1.18.54 2.47 1.18 3.67 1.87 1.27.72 2.22 1.14 3 1.38.77.24 1.39.32 2.02.38.47.04 1.64.08 2.97.11 1.28.03 6.57.12 7.3 1.12 0 0-1.13-.15-1.79-.15-.42 0-3.18-.04-5.53-.09-1.35-.03-2.54-.07-3.03-.12-.68-.06-1.36-.15-2.2-.41s-1.84-.7-3.17-1.46c-1.18-.67-2.45-1.3-3.6-1.83-1.37-.63-2.59-1.11-3.34-1.35-.31-.1-1.14-.29-2.06-.47-.72-.14-1.5-.27-2.12-.34-1.26-.14-1.98-.45-2.94-.87l-.64-.27c-.63-.26-1.29-.51-2-.68a7.6 7.6 0 0 0-2.2-.22c-.39.02-.9.07-1.43.11-1.55.14-3.24.28-3.77-.11q-.225-.165-.39-.36c-.6-.68-.81-1.61-.71-2.56.09-.91.46-1.86 1.01-2.6.18-.24.38-.46.6-.65l.58.66Z"/><path d="M48.72 42.37s3.37 2.33 6.49 2.89c2.06.37 5.21.19 7.59.05 1.27-.07 2.33-.14 2.91-.09.87.06 2.13.51 3.47 1.1 1.32.58 2.72 1.29 3.9 1.89 1.66.84 6.46 4.26 9.52 6.45.73.52 1.36.97 1.82 1.29v1.08c-.46-.32-1.3-.91-2.33-1.65-3.04-2.17-7.81-5.57-9.41-6.38-1.18-.6-2.57-1.3-3.86-1.87-1.26-.55-2.43-.98-3.18-1.03-.53-.04-1.56.02-2.8.09-2.42.14-5.63.33-7.79-.06-3.31-.6-7.06-3.12-7.07-3.13l.73-.63ZM33.8 10.87s4.35-2.64 6.97-4.26c1.04-.64 1.97-1.18 2.88-1.71 1.47-.85 2.88-1.66 4.39-2.7l.04-.03C50.63.42 51.44-.14 53.99.03c1.28.08 2.2.34 2.96.83s1.35 1.19 1.96 2.17c.57.91 1.91 2.54 3.48 4.35 1.59 1.84 3.39 3.82 4.85 5.44 1.45 1.6 3.37 3.72 5.17 5.66 1.76 1.89 3.34 3.55 4.1 4.24.77.69 1.82 1.61 3.22 2.59 1.26.89 2.82 1.83 4.7 2.7v.97c-2.11-.95-3.83-1.98-5.21-2.95a35 35 0 0 1-3.31-2.66c-.78-.71-2.38-2.38-4.16-4.29-1.73-1.86-3.69-4.01-5.18-5.67-1.48-1.64-3.3-3.65-4.86-5.45-1.59-1.84-2.97-3.51-3.56-4.46-.55-.88-1.05-1.49-1.68-1.9-.63-.4-1.42-.61-2.54-.69-2.24-.14-2.99.37-5.34 1.99l-.04.03C47 3.99 45.58 4.81 44.1 5.67c-.93.53-1.88 1.08-2.86 1.69-2.65 1.63-6.82 4.14-6.83 4.15zM20.43 34.52v-.02c.02-.78.08-2.56-.58-2.68-.25-.05-1.38-.07-2.45-.05-.87.01-1.68.05-1.94.12l-.05.02c-.36.13-.55.57-.63 1.08-.09.57-.03 1.22.08 1.65l.04.14-.52.17-.05-.17c-.13-.49-.19-1.22-.1-1.87.11-.7.4-1.32 1.01-1.53l.07-.02c.3-.08 1.17-.12 2.07-.13 1.1-.02 2.28 0 2.56.06 1.12.21 1.06 2.31 1.04 3.24v.02l-.55-.02Zm22.65-15.4c-.23.73-.39 1.52-.34 2.28l-.81.04c-.06-.83.48-2.05.73-2.85.38-1.2.52-3.24.52-3.25.47 1.18.3 2.52-.1 3.78m-11.64 4.89-.59.2c.08-1.45-.89-2.8-.89-2.8.97.53 1.44 1.47 1.48 2.6m-9.37 1.23s.27 1.27.95 1.61l-.25.49c-.72-.36-.86-1.5-.71-2.1Zm29.08-2.46c-.86.66-1.94 1.25-3.52 1.47 0 0 1.93-.91 2.94-1.81.99-.89 2.22-3.86 2.23-3.86-.13 1.47-.53 3.22-1.64 4.2Zm8.84 9.34c-1.1 1.38-2.95 2.23-4.66 2.52.42-.17 1.51-.81 2.49-1.48.77-.53 1.48-1.06 1.74-1.38.6-.75 1.29-2.12 1.29-2.12-.17.97-.19 1.63-.86 2.47ZM30.05 13.49c-.15.71-.21 1.22-.2 1.72.02.5.11 1.01.29 1.73-.52-.25-.8-1.21-.82-1.79-.02-.55.03-1.02.18-1.77l.54.11Zm1.12-.67s.21.58.21 1.19-.17 1.51-.5 1.98c0-1.22.11-1.8-.24-3l.52-.17Zm-10.42 7.23s-.3.61-.27 1.23.33 1.46.33 1.46c-.5-.34-.74-.92-.78-1.64-.04-.77.22-1.27.22-1.27z"/><path d="M58.02 4.28c.32.61 2.39 3.45 2.84 4.02-1.4-1.11-2.47-2.15-3.33-3.76-.6-1.13-1.16-1.41-2.19-2.05 1.3.14 2.11.72 2.68 1.79M16.49 21.76v.03c.1.71.18 1.35-.53 1.79-.4.25-1.09.57-1.78.86-.65.26-1.3.49-1.74.58-1.34.27-1.62-.82-1.62-.82l.53-.14s.15.59.98.42c.41-.08 1.03-.3 1.65-.55.67-.27 1.33-.59 1.7-.81.41-.25.35-.72.28-1.25v-.03l.54-.07Zm44.7-11.04s6.49 7.52 8.74 9.78c2.2 2.2 5.44 4.61 6.27 5.19-2.36-1.35-4.72-2.49-6.89-4.67-1.82-1.82-7.24-7.92-8.12-10.3m5.92 28.88c1.35-.28 3.76.05 5.59.86 0 0-3.59-.56-5.33-.02-1.77.56-4.57 2.47-4.57 2.48 1.21-1.55 2.58-2.77 4.31-3.32M55.92 8.03c.29.39.49.78.83 1.49.35.73.96 1.88 1.64 3.35-1.14-1.28-2.65-3.91-3.06-4.48-.7-.97-3.14-1.72-3.15-1.73 1.37-.1 2.88.18 3.74 1.36ZM32.3 12c.51 1.41.8 3.34-.27 4.56.64-2.32-.19-4.27-.2-4.28l.46-.28Z"/></g></g></g></g></svg>