<svg xmlns="http://www.w3.org/2000/svg" data-name="turn around" viewBox="0 0 250.608 530.934"><path fill="none" d="M154.505 217.028a.004.004 0 0 0 0-.008"/><path fill="currentColor" d="M242.958 327.344c-1.192-3.79-3.262-7.219-4.82-10.858-1.708-3.993-2.953-8.18-4.298-12.304l-4.18-12.81c-1.388-4.229-2.753-8.466-4.183-12.68-1.428-4.213-2.762-8.512-4.506-12.607l-.368-.876c-.415-4.177-.99-8.386-2.877-12.18a15.6 15.6 0 0 0-3.739-4.926 21.4 21.4 0 0 0-6.032-3.331q-3.922-1.587-7.854-3.148a.86.86 0 0 0 .14-.709 58 58 0 0 0-.947-3.775c-.027-.096-.065-.188-.094-.284.01-.666.001-1.328-.007-1.994q-.023-2.025-.069-4.046c-.06-2.76-.055-5.518-.007-8.278.096-5.513.203-11.02.123-16.535-.158-11.048-.706-22.08-1.21-33.117q-.756-16.598-1.514-33.195l-.76-16.678c-.222-4.85-.419-9.708-1.02-14.529-1.122-8.984-3.76-18.432-10.497-24.888a19.2 19.2 0 0 0-11.235-5.527 14.7 14.7 0 0 0-11 3.36c-3.595 3.143-4.549 8.258-5.446 12.718a108.5 108.5 0 0 0-1.88 15.444c-.582 10.596.017 21.206.235 31.803.11 5.307.127 10.62-.144 15.923-.273 5.355-1.055 10.649-1.522 15.986a102 102 0 0 0 .316 16.281c.4 5.544.22 11.083.178 16.634q-.03 3.96.008 7.917a21.9 21.9 0 0 0-6.738-2.926 13 13 0 0 0-1.53-.245 51 51 0 0 0-6.612-6.745 57.5 57.5 0 0 0-9.54-6.547 17.3 17.3 0 0 0-5.519-2.058 11.4 11.4 0 0 0-5.797.664 42 42 0 0 0-9.42 5.198 29.7 29.7 0 0 0-7.314 7.158 19.5 19.5 0 0 0-2.275 4.441 8.5 8.5 0 0 0-.406 5.662c.318.987.728 1.935 1.002 2.937.282 1.032.499 2.08.683 3.132.371 2.119.646 4.256.954 6.384l.338 2.337a21 21 0 0 0-1.869-1.59q-1.681-1.308-3.404-2.562a46 46 0 0 0-6.713-4.147 19.2 19.2 0 0 0-7.54-2.082 17.2 17.2 0 0 0-7.63 1.575 44.6 44.6 0 0 0-6.858 3.948c-2.351 1.56-4.7 3.136-6.94 4.853-1.103.845-2.223 1.695-3.252 2.63a5.16 5.16 0 0 0-1.646 3.501 70 70 0 0 0-.483 8.42 73 73 0 0 0 .611 9.388 29 29 0 0 0 .91 4.561c.234.77.49 1.54.754 2.306a32.6 32.6 0 0 0-3.525-3.682 34 34 0 0 0-6.253-4.438c-2.488-1.357-5.325-2.616-8.227-2.375a13.5 13.5 0 0 0-4.315 1.254c-1.473.648-2.926 1.345-4.387 2.02-2.567 1.187-5.178 2.314-7.66 3.675a21.6 21.6 0 0 0-5.985 4.582 18.04 18.04 0 0 0-3.533 7.338 709 709 0 0 0-2.223 8.221c-.137.337-.261.68-.395 1.022a58 58 0 0 1-.973 2.29c-.623 1.405-1.324 2.775-2.014 4.147a50 50 0 0 0-3.667 8.83c-.901 3.192-1.404 6.479-2.03 9.731-.32 1.667-.672 3.328-1.11 4.968a38 38 0 0 0-1.108 4.737 14.3 14.3 0 0 0 .383 5.425 13.3 13.3 0 0 0 .92 2.546c-1.3 2.528-1.265 5.516-1.168 8.294.111 3.181.332 6.36.587 9.533.514 6.37 1.157 12.736 1.452 19.122.148 3.186.206 6.378.116 9.566-.091 3.212-.403 6.41-.546 9.617a41.2 41.2 0 0 0 .54 9.515 61 61 0 0 0 2.571 8.905c1.192 3.389 2.36 6.805 3.778 10.107a630 630 0 0 0 3.686 8.383c.324 1.37.681 2.732 1.097 4.077a44.7 44.7 0 0 0 3.663 8.577c1.594 2.856 3.515 5.508 5.294 8.247 6.854 10.552 10.772 22.586 15.91 33.988.637 1.417 1.188 3.108 2.444 4.106a11.4 11.4 0 0 0 2.255 1.247l.056.025a23 23 0 0 0 .336 2.668c.252 1.792.52 3.583.774 5.375q.767 5.426 1.366 10.874c.398 3.601.78 7.203 1.175 10.804.396 3.601.76 7.217 1.01 10.83l.85 12.327a.133.133 0 0 0 .265 0c.226-6.984.034-13.965-.309-20.943-.173-3.533-.38-7.046-.749-10.565q-.539-5.153-1.223-10.289-.393-2.942-.829-5.879-.218-1.463-.472-2.92a54 54 0 0 0-.25-1.329l-.02-.092c.187.08.367.171.555.248a22.5 22.5 0 0 0 10.324 1.746.176.176 0 0 0 0-.351c-3.2-.24-6.08-1.557-8.954-2.877-1.399-.642-2.814-1.277-4.18-1.986a3.1 3.1 0 0 1-1.33-1.135 19 19 0 0 1-1.011-2.065c-2.56-5.599-4.79-11.34-7.199-17.004a120 120 0 0 0-8.109-16.25c-1.67-2.706-3.546-5.278-5.213-7.985a50.4 50.4 0 0 1-4.037-8.216 90 90 0 0 1-3.11-9.754q-.653-2.485-1.21-4.993c-.373-1.665-.929-3.29-1.25-4.964-.026-.134-.225-.076-.204.056.247 1.556.307 3.143.499 4.708.125 1.02.294 2.037.47 3.053-.132-.416-.257-.833-.392-1.248a346 346 0 0 0-3.038-8.844c-1.031-2.889-2.08-5.78-2.837-8.756a35.5 35.5 0 0 1-1.072-9.2c.034-3.133.341-6.254.505-9.382.166-3.187.172-6.38.071-9.57-.197-6.268-.797-12.512-1.378-18.754-.327-3.513-.653-7.028-.89-10.548a38.3 38.3 0 0 1 .164-8.664c.242.367.49.73.73 1.098a.243.243 0 0 0 .442-.187c-.334-1.579-.659-3.13-1.069-4.692a14.5 14.5 0 0 1-.591-4.707 24.5 24.5 0 0 1 1.025-4.742 62 62 0 0 0 1.083-4.738c.61-3.183 1.088-6.39 1.856-9.54a51.3 51.3 0 0 1 3.285-8.953q.356-.791.706-1.585c-.45 2.117-.885 4.238-1.378 6.345a.16.16 0 0 0 .309.085c.958-3.018 2.003-6.01 2.993-9.017.99-3.005 1.804-6.065 2.654-9.111.762-2.735 1.329-5.706 2.85-8.144a15.5 15.5 0 0 1 5.085-4.79 59 59 0 0 1 6.573-3.373l4.264-1.96c1.349-.62 2.686-1.302 4.082-1.811a8.5 8.5 0 0 1 4.115-.537 13.8 13.8 0 0 1 4.032 1.317 33 33 0 0 1 6.182 3.832 36.2 36.2 0 0 1 5.83 5.783c1.536 1.918 2.749 4.06 4.158 6.056q.455 1.84.927 3.675c.793 3.06 1.602 6.118 2.51 9.145.931 3.103 1.865 6.203 2.67 9.341 1.6 6.24 2.332 12.732 4.694 18.758 1.209 3.084 2.687 6.054 3.905 9.135 1.216 3.078 2.264 6.219 3.33 9.35 2.097 6.164 4.096 12.426 6.731 18.392.397 3.914 1.209 7.905.248 11.79a11 11 0 0 1-2.277 4.614 9.5 9.5 0 0 1-4.814 2.848 17.3 17.3 0 0 1-11.083-.88 20.7 20.7 0 0 1-8.654-7.554c-2.605-3.706-4.952-7.61-7.398-11.422l-7.693-11.992c-2.516-3.92-5.06-7.825-7.542-11.767a63 63 0 0 1-3.332-5.836 66 66 0 0 1-2.57-6.21c-1.6-4.341-3.072-8.73-4.575-13.105q-2.303-6.703-4.69-13.371c-.393-1.094-.779-2.188-1.186-3.276a.094.094 0 0 0-.18.05c1.728 7.135 3.809 14.184 5.985 21.2-.741-.752-1.475-1.508-2.154-2.327a41 41 0 0 1-2.826-3.898 35.6 35.6 0 0 1-4.086-8.664.023.023 0 0 0-.046.012 35.8 35.8 0 0 0 3.484 9.031 31.5 31.5 0 0 0 2.686 4.018 26.7 26.7 0 0 0 3.293 3.665.64.64 0 0 0 .265.133q.783 2.504 1.573 5.003a66 66 0 0 0 3.578 9.15l-.032.007c-.538.088-1.078.17-1.616.259a49 49 0 0 1-10.31.557 59 59 0 0 1-5.936-.599c-2.024-.307-4.046-.501-6.04-.99a.031.031 0 0 0-.016.061c1.703.558 3.406 1.162 5.147 1.59a40 40 0 0 0 4.977.81c1.33.15 2.673.252 4.019.323.704.206 1.442.336 2.139.547a17 17 0 0 0 1.81.552 4.7 4.7 0 0 0 1.909-.029 7.65 7.65 0 0 1 3.937-.04 8.5 8.5 0 0 1 1.98.907q-.103.04-.204.074c-.595.202-1.18.436-1.777.633-1.115.37-2.261.651-3.4.937a44.6 44.6 0 0 1-7.34 1.349c-.08.006-.081.128 0 .125a61 61 0 0 0 7.453-.625c1.241-.206 2.457-.513 3.681-.8.614-.144 1.22-.282 1.822-.47.201-.064.403-.124.59-.201 2.248 3.655 4.625 7.238 6.942 10.848l1.92 2.993c-.042 1.304-.003 2.614 0 3.917a44 44 0 0 0 .203 4.688c.012.114.184.16.214.03a17 17 0 0 0 .37-4.718 24 24 0 0 0-.365-3.26l5.624 8.761c2.104 3.28 4.155 6.607 6.311 9.856-.056 2.454-.02 4.915.002 7.365 0 .098.155.126.176.024a24 24 0 0 0 .427-6.488c.282.418.557.84.843 1.255 2.369 3.428 5.182 6.524 9 8.34a19.76 19.76 0 0 0 11.674 1.682 12.86 12.86 0 0 0 5.75-2.322 11.26 11.26 0 0 0 3.425-4.435 15 15 0 0 0 1.212-4.838 19.5 19.5 0 0 0 1.956 4.167c-.255 4.21-.387 8.429-.548 12.644-.165 4.318-.487 8.667-.428 12.99a55 55 0 0 0-1.335 3.81c-2.943 9.67-3.412 19.966-2.731 29.999.404 5.963 1.342 11.872 2.325 17.763.021.129.244.1.23-.031-1.135-10.376-2.465-20.897-1.685-31.346a62 62 0 0 1 2.837-14.266 68.6 68.6 0 0 1 5.224-12.358 72 72 0 0 1 4.083-6.489 80 80 0 0 1 2.241-3.021c.383-.494.78-.976 1.171-1.462a6 6 0 0 0 .65-.987 28.7 28.7 0 0 0 14.438-.586 20.8 20.8 0 0 0 7.18-3.873 16.34 16.34 0 0 0 4.76-7.163 33.14 33.14 0 0 0 1.303-16.064c.021-.025.05-.05.068-.075q.154-.204.303-.41c.192-.267.37-.498.582-.753q.316-.378.657-.735.175-.184.357-.36a1.8 1.8 0 0 0 .407-.443.6.6 0 0 0 .035-.12 26 26 0 0 0 11.776.632 27.1 27.1 0 0 0 14.38-6.795 26.67 26.67 0 0 0 6.838-11.724c.142.1.282.205.427.302.017.01.032-.016.016-.027-.142-.106-.288-.205-.433-.306.038-.13.083-.257.12-.386a30 30 0 0 0 .492-2.066c.238.211.467.432.717.63l.675.537c.106.084.21.167.322.242a3 3 0 0 0 .383.244c.037.017.096-.022.064-.064a3.5 3.5 0 0 0-.62-.57l-.696-.555c-.263-.209-.543-.393-.816-.586q.228-1.137.375-2.278l.385.286q.561.424 1.11.864.514.416 1.023.836.309.256.627.493c-.06.065-.126.124-.184.191a16.3 16.3 0 0 0-2.8 4.587c-1.609 3.918-1.798 8.191-1.991 12.367-.004.07.11.087.122.017.638-3.92 1.283-7.977 2.987-11.6a18.4 18.4 0 0 1 2.688-4.228 14 14 0 0 1 1.779-1.73c.302-.242.728-.48 1.082-.767.075.31.141.62.225.93.309 1.136.704 2.235 1.113 3.338a8.2 8.2 0 0 1 .442 1.658 9.5 9.5 0 0 0-.954 1.903 22.4 22.4 0 0 0-1.138 3.305 29.4 29.4 0 0 0-.945 6.973c-.08 5.145.978 10.305 2.103 15.3.026.113.217.09.207-.029a104 104 0 0 1-.634-14.942 38 38 0 0 1 .916-6.62c.106-.443.23-.88.358-1.317a19 19 0 0 0 .717 4.61 64 64 0 0 0 2.537 6.725 143 143 0 0 0 2.82 6.429 50.7 50.7 0 0 0 8.18 12.994c.088.097.26-.031.184-.142a70.7 70.7 0 0 1-6.591-11.731 118 118 0 0 1-4.631-12.765 21.8 21.8 0 0 1-1.318-6.943 27 27 0 0 0 .238-3.69 14.4 14.4 0 0 0-.97-3.277c-1.6-4.43-2.006-9.149-2.279-13.816-.137-2.353-.06-4.99-1.4-7.032a20.5 20.5 0 0 0-2.43-2.784 3.56 3.56 0 0 1-1.155-2.752 10.6 10.6 0 0 0 4.995-.225 23.5 23.5 0 0 0 5.517-2.13 22 22 0 0 0 2.559-1.533 20 20 0 0 0 2.188-1.964.043.043 0 0 0-.052-.067c-.757.458-1.57.828-2.365 1.218-.822.405-1.62.846-2.47 1.195a29 29 0 0 1-4.987 1.488 10.96 10.96 0 0 1-5.327.176 5 5 0 0 1-.438-.159c-.666-.54-1.268-1.185-1.853-1.765-1.091-1.08-2.036-2.297-3.073-3.426a75 75 0 0 0-6.826-6.433c-4.826-4.085-9.957-7.833-14.435-12.315a42.7 42.7 0 0 1-5.84-7.119 47.2 47.2 0 0 1-4.634-9.864 124 124 0 0 1-3.188-10.574 31.3 31.3 0 0 1-1.043-10.95 25.7 25.7 0 0 1 3.307-9.986 32 32 0 0 1 3.095-4.448c.396-.478.814-.935 1.236-1.388a14.8 14.8 0 0 1 3.212-2.082 11.24 11.24 0 0 1 5.968-.924c.083.01.163.029.246.042a14.8 14.8 0 0 0-2.54 2.031 29.5 29.5 0 0 0-4.511 5.242 22 22 0 0 0-1.675 2.926c-.453 1.01-1.131 2.367-.85 3.493a9.7 9.7 0 0 0 1.668 2.926c.617.88 1.235 1.763 1.897 2.611a39 39 0 0 0 4.426 4.602 31.8 31.8 0 0 0 5.164 3.855c.944.565 1.904 1.093 2.846 1.66a7.96 7.96 0 0 0 3.346 1.259 5.38 5.38 0 0 0 3.205-1.362c.958-.737 1.876-1.53 2.813-2.293a37.8 37.8 0 0 0 5.942-5.716 22 22 0 0 0 2.055-3.153 11 11 0 0 0 1.212-2.956 37 37 0 0 0 3.21 1.486c2.04.823 4.338 1.178 6.208 2.375a28 28 0 0 1 4.302 4.064 16.8 16.8 0 0 0 5.514 3.539c4.696 1.967 9.458 3.788 14.186 5.678 4.084 1.632 8.579 2.961 11.229 6.728 2.57 3.652 3.348 8.135 3.81 12.484.266 2.487.56 4.953.971 7.42a75 75 0 0 0 1.747 7.319c.331 1.215.644 2.43 1.03 3.631a.156.156 0 0 0 .302-.083c-.44-2.608-.887-5.2-1.131-7.836-.132-1.427-.25-2.855-.369-4.283q.791 2.748 1.628 5.483c1.295 4.213 2.652 8.405 4.002 12.6q2.007 6.235 4.031 12.464c1.333 4.113 2.6 8.255 4.064 12.323a68 68 0 0 0 2.377 5.81c.828 1.767 1.73 3.5 2.534 5.279a26 26 0 0 1 1.859 5.424 21.5 21.5 0 0 1 .178 6.145 212 212 0 0 1-3.738 25.474c-.38 1.834-.728 3.733-2.07 5.133a50 50 0 0 1-4.744 3.973c-1.704 1.384-3.433 2.762-5.043 4.254q-2.412 2.236-4.771 4.527c-.772.748-1.6 1.44-2.394 2.168-.148.135.05.402.218.282 2.318-1.666 4.668-3.283 6.986-4.946q-.86 1.09-1.707 2.19a437 437 0 0 0-6.354 8.485c-1.988 2.712-3.937 5.454-5.685 8.327-1.494 2.455-2.862 4.982-4.238 7.503-2.709 4.963-5.46 10.006-9.275 14.223a33 33 0 0 1-3.104 3.02 14.1 14.1 0 0 0-3.155 3.118 17 17 0 0 0-1.513 4.363 27.5 27.5 0 0 1-1.504 4 54.4 54.4 0 0 1-5.134 8.48 118 118 0 0 1-6.378 8.13c-.156.182.091.438.265.266 3.698-3.656 7.599-7.223 10.508-11.548-.011.448-.018.896-.039 1.344-.07 1.518-.127 3.033-.273 4.545-.302 3.126-.866 6.22-1.387 9.315a108 108 0 0 0-1.594 18.599c.074 12.494 2.108 24.863 3.773 37.214.47 3.492.912 6.988 1.275 10.493a53 53 0 0 0 .607 5.257c.351 1.69.63 3.397.962 5.092.05.26.407.17.43-.058.161-1.593.233-3.19.302-4.789a32 32 0 0 0-.22-4.546 304 304 0 0 0-1.09-9.324c-.81-6.21-1.742-12.403-2.51-18.618-1.527-12.343-2.298-24.781-.3-37.117.57-3.516 1.235-7.017 1.618-10.56a35 35 0 0 0 .269-5.264 24 24 0 0 0-.256-2.477 7 7 0 0 0-.276-1.195 36 36 0 0 0 3.289-8.33 6.92 6.92 0 0 1 2.114-3.652c1.116-.992 2.294-1.893 3.36-2.944 4.064-4.011 7.033-8.965 9.78-13.928 1.392-2.518 2.74-5.06 4.176-7.554 1.6-2.78 3.355-5.456 5.219-8.066 2.27-3.18 4.639-6.287 6.9-9.474 1.146-1.614 2.303-3.224 3.389-4.879.55-.836 1.111-1.67 1.64-2.523 1.764-1.375 3.487-2.802 5.223-4.212a11.1 11.1 0 0 0 3.713-4.402 32 32 0 0 0 1.406-5.888q.633-3.24 1.17-6.497 1.073-6.523 1.765-13.103c.227-2.165.491-4.347.51-6.525a19.5 19.5 0 0 0-.908-6.022m-148.063 52.25a53 53 0 0 0-1.036 1.764c-.33.597-.639 1.21-.955 1.817.028-.425.059-.85.068-1.275q.038-1.757 0-3.515a.027.027 0 0 0-.055 0c-.007 1.15-.044 2.3-.125 3.447-.04.563-.067 1.126-.109 1.688l-.007.089a69 69 0 0 0-2.826 6.264c.356-4.212.37-8.474.524-12.696.154-4.185.335-8.372.397-12.56.233.36.473.716.742 1.057a12 12 0 0 0 1.519 1.6c-.08 2.555-.126 5.108-.122 7.664a.023.023 0 0 0 .046 0c.101-2.527.152-5.054.171-7.583a16 16 0 0 0 1.692 1.277c.012.508.038 1.016.037 1.494q-.004 1.93.046 3.859a112 112 0 0 1 .052 3.734c-.004.623-.034 1.25-.059 1.876m.249-.423c-.005-.444-.01-.888-.003-1.328.019-1.287.062-2.572.096-3.858q.05-1.866.01-3.734c-.009-.425-.001-.876 0-1.33q.685.42 1.406.78c-.035 1.042-.016 2.09-.017 3.114 0 1.319-.015 2.646.048 3.966q-.795 1.18-1.54 2.39m3.115-6.46c-.023.632-.028 1.265-.041 1.897-.221.297-.457.583-.673.884-.155.219-.294.448-.446.668.086-1.079.121-2.164.14-3.243.016-.959.037-1.948.003-2.93q.537.249 1.086.469c-.03.752-.042 1.505-.07 2.255m1.654-.89-.074.67-.173.21c-.372.459-.714.94-1.07 1.41.043-.466.08-.932.09-1.4a24 24 0 0 0-.035-2.126c.443.168.901.307 1.356.453q-.049.39-.094.783m28.223-14.792a16.4 16.4 0 0 1-3.769 7.679 17.25 17.25 0 0 1-6.18 4.059 27.03 27.03 0 0 1-17.243.513 20 20 0 0 1-3.927-1.596l-.001-.01-.008.002a.103.103 0 0 0-.122-.066 13.5 13.5 0 0 1-2.904-2.131c-2.093-2.052-3.122-4.832-4.036-7.554a91 91 0 0 1-2.928-10.335 218 218 0 0 1-1.043-5.395c-.328-1.8-.859-3.546-1.21-5.338-.008-.042-.081-.033-.076.01.186 1.69.183 3.387.42 5.074.061.443.137.885.202 1.328-.995-3.18-2.088-6.333-3.157-9.479-1.084-3.189-2.138-6.39-3.309-9.549-1.134-3.06-2.486-6.017-3.783-9.008a52.7 52.7 0 0 1-3.011-9.179c-.727-3.153-1.278-6.344-2.02-9.494-1.452-6.168-3.404-12.179-5.442-18.172a129.7 129.7 0 0 1-5.41-20.679c-.016-.091-.166-.07-.162.022a60 60 0 0 0 1.172 9.43c.097.47.214.936.317 1.405-.432-.737-.9-1.45-1.374-2.13-.235-.335-.486-.659-.732-.985-.41-2.294-.642-4.608-.956-6.92a74 74 0 0 1-.7-7.988 60 60 0 0 1 .378-8.11 14.6 14.6 0 0 1 .677-3.763c.437-1.088 1.716-1.848 2.605-2.54 2.1-1.634 4.282-3.163 6.488-4.65a74 74 0 0 1 6.55-4.108 17.7 17.7 0 0 1 7.002-2.242 16.8 16.8 0 0 1 7.03 1.228 36 36 0 0 1 7.222 3.969q1.912 1.277 3.77 2.633a20.6 20.6 0 0 0 3.34 2.17l1.336 9.242 1.905 13.183c.63 4.352 1.284 8.666 2.29 12.948q.156.664.308 1.328a33 33 0 0 0 .075 4.493c.555 5.958 2.72 11.656 4.37 17.366q2.517 8.708 4.43 17.577.943 4.371 1.736 8.773a82 82 0 0 0 1.67 8.603 18.37 18.37 0 0 0 7.71 10.158v.005a10.2 10.2 0 0 0 .361 2.192q.302 1.162.517 2.343a34 34 0 0 1 .508 4.64 32.2 32.2 0 0 1-.886 9.048m42.06-36.326a9 9 0 0 0-.559-.497 33 33 0 0 0-1.073-.839q-.543-.41-1.097-.804c-.187-.133-.376-.274-.572-.404q.102-.836.165-1.672.094.085.189.168c.219.186.453.355.68.531.47.365.951.717 1.422 1.082.457.355.905.722 1.355 1.087q.251.202.51.398-.533.451-1.02.95m1.58-1.419c-.047.037-.09.078-.137.115a11 11 0 0 0-.52-.458c-.466-.382-.947-.75-1.429-1.113a29 29 0 0 0-1.449-1.046c-.24-.16-.48-.325-.731-.465-.118-.065-.234-.132-.357-.187q-.033-.013-.068-.023c.042-.66.072-1.321.078-1.982.922.778 1.901 1.489 2.842 2.244q.92.74 1.834 1.487c.299.245.595.516.904.77a8 8 0 0 0-.967.658m1.603-.918a2 2 0 0 0-.233.08c-.32-.317-.672-.61-.998-.899q-.91-.806-1.861-1.557a28 28 0 0 0-3.12-2.23q.001-1.424-.094-2.847c1.05.877 2.121 1.73 3.151 2.63.644.563 1.289 1.126 1.92 1.703.293.27.578.554.864.836.109.763.22 1.526.371 2.284m-.48-3.009-.457-.408a52 52 0 0 0-1.992-1.735 43 43 0 0 0-3.399-2.583 47 47 0 0 0-.31-2.992c1.04.848 2.081 1.695 3.107 2.56q.862.728 1.71 1.474.447.397.888.8.078.072.157.149.122 1.371.295 2.735m-.544-5.947-.009-.008c-.306-.265-.634-.507-.954-.756a.023.023 0 0 0-.033.033c.27.299.533.607.818.892l.202.203q.085 1.251.192 2.5-.4-.361-.803-.717a74 74 0 0 0-1.817-1.555q-1.565-1.292-3.223-2.458a53 53 0 0 0-.492-2.957 7 7 0 0 0 .76.592q.498.347.976.72c.607.473 1.198.98 1.829 1.421.05.036.095-.038.061-.08a9.7 9.7 0 0 0-1.738-1.594q-.472-.355-.961-.685a4 4 0 0 0-.954-.508q-.251-1.246-.554-2.485c.367.252.736.499 1.099.756q1.01.717 1.99 1.475.93.722 1.823 1.493c.542.467 1.055.985 1.636 1.406zm-.224-3.293c-.322-.31-.666-.599-1.004-.888q-.93-.795-1.902-1.54a36 36 0 0 0-1.968-1.416 20 20 0 0 0-1.802-1.11q-.205-.794-.427-1.584l.062.047q.58.444 1.158.892 1.137.884 2.269 1.776 1.1.866 2.19 1.745c.347.28.688.569 1.046.835l.25.188c.051.35.099.7.128 1.055m-1.881-4.407c.391.335.774.68 1.17 1.01v.001a4 4 0 0 1 .165.4c.076.246.119.495.179.742-.182-.15-.36-.305-.542-.454q-1.118-.91-2.247-1.804-1.075-.851-2.167-1.678-.558-.423-1.118-.842a9 9 0 0 0-1.008-.703q-.212-.708-.435-1.412.458.35.921.69 1.34.984 2.644 2.02a86 86 0 0 1 2.438 2.03m-2.06-3.463a6 6 0 0 0 .68 1.196c-.278-.221-.556-.445-.837-.663a37 37 0 0 0-2.765-1.968 15 15 0 0 0-1.314-.753q-.265-.799-.542-1.592c.734.585 1.494 1.142 2.216 1.724.595.479 1.198.947 1.792 1.427zm-3.206-4.16q.925.832 1.863 1.648l.97.839.1.092a3 3 0 0 0 .002.51l-.084-.068c-.6-.481-1.198-.965-1.813-1.428-.95-.714-1.91-1.486-2.93-2.126q-.35-.972-.715-1.932a67 67 0 0 0 2.607 2.465m-29.907-79.776c-3.406 2.818-5.62 6.975-7.172 11.048-.048.126-.083.25-.128.376a24 24 0 0 0-.963 2.864c-1.968 7.436.316 15.086 2.557 22.196a63 63 0 0 0 4.165 10.412 40.6 40.6 0 0 0 5.706 8.124c-.933.09-1.893.085-2.82.157a33 33 0 0 0-2.878.344 103 103 0 0 1-3.029.462 12 12 0 0 1-1.847.154c-.507-.01-1.012-.151-1.514-.122-.504.028-.895.406-1.354.585a12 12 0 0 1-1.602.412c-.996.24-1.99.493-2.975.778-2.047.592-4.06 1.306-6.053 2.06-.056.02-.033.11.024.09 2.015-.693 4.063-1.269 6.128-1.788.995-.25 1.992-.493 2.995-.71a9 9 0 0 1 1.56-.278 5 5 0 0 0 1.552.02c.49-.173.911-.48 1.41-.651a8.7 8.7 0 0 1 1.49-.345 28 28 0 0 1 3.263-.309c1.023-.038 2.044-.093 3.066-.14a22 22 0 0 1 3.203-.041c4.291 4.634 9.368 8.444 14.228 12.448q2.337 1.926 4.577 3.967c.1.3.207.595.333.88l.017.034a.66.66 0 0 0 .013.425c3.63 10 7.767 20.363 5.984 31.215a27.35 27.35 0 0 1-5.118 12.382 23.3 23.3 0 0 1-12.113 7.851 24.5 24.5 0 0 1-15.829-.359 17.2 17.2 0 0 1-9.433-8.79 33.3 33.3 0 0 1-1.899-7.928q-.726-4.29-1.595-8.555-1.738-8.527-4.047-16.924c-1.526-5.548-3.418-10.999-4.734-16.603a48.4 48.4 0 0 1-1.275-8.613 70 70 0 0 1 .394-8.848c.114-1.468.217-2.937.325-4.405a.094.094 0 0 0-.184-.025 77 77 0 0 0-1.516 9.097l-.004.05a105 105 0 0 0-.695-6.272l-1.83-12.69-1.829-12.692c-.593-4.116-1.043-8.285-1.858-12.365q-.303-1.514-.749-2.992c-.281-.932-.675-1.836-.873-2.792-.343-1.66.424-3.512 1.129-4.993a23.1 23.1 0 0 1 5.93-7.472 43.4 43.4 0 0 1 8.24-5.405 19.5 19.5 0 0 1 5.087-2.041 9.8 9.8 0 0 1 5.51.677 31 31 0 0 1 4.934 2.627 73 73 0 0 1 4.639 3.132 58 58 0 0 1 2.346 1.827c.45 1.978.924 3.96 1.496 5.909a15.1 15.1 0 0 0-4.385 2.545m4.517-2.593c-.443-1.949-.983-3.88-1.544-5.796q1.594 1.296 3.125 2.665c.103.327.205.655.29.988.13.51.237 1.025.335 1.542a14 14 0 0 0-2.206.601m2.402-.634a9.6 9.6 0 0 0-.467-2.183q1.092.988 2.166 2.001a13 13 0 0 0-1.699.182m26.173 19.105a12 12 0 0 1-1.453 2.78 20.9 20.9 0 0 1-4.786 4.744 56 56 0 0 1-5.594 3.495 4.75 4.75 0 0 1-3.148.747 12.2 12.2 0 0 1-3.067-1.067 27.23 27.23 0 0 1-12.173-12.568 7.8 7.8 0 0 1-.966-2.907 7.2 7.2 0 0 1 1.027-3.058 20.9 20.9 0 0 1 4.603-5.348 28 28 0 0 1 2.587-2.273 7 7 0 0 1 1.493-.907 5.8 5.8 0 0 1 1.319-.306 31.2 31.2 0 0 1 8.463 4.905c3.582 2.698 7.019 5.587 10.835 7.96q.742.462 1.502.891c-.235.977-.311 1.949-.642 2.912m25.093 8.71a29.6 29.6 0 0 1-6.523-3.049c-1.661-1.202-2.904-2.893-4.4-4.278a11.8 11.8 0 0 0-2.544-1.858 20 20 0 0 0-3.325-1.244 32.7 32.7 0 0 1-6.305-2.695 90.5 90.5 0 0 1-11.305-7.99c-1.385-1.077-2.816-2.16-4.31-3.143a.53.53 0 0 0 .277-.438c.405-5.407.76-10.824.847-16.247.087-5.344-.406-10.619-.654-15.948a100 100 0 0 1 .992-16.012 153 153 0 0 0 .93-15.493c.118-10.427-.548-20.843-.54-31.27.007-10.143.521-20.634 3.467-30.408a12.7 12.7 0 0 1 3.123-5.633 11.4 11.4 0 0 1 4.813-2.7 14.46 14.46 0 0 1 11.426 1.714c7.77 4.641 11.378 13.882 12.936 22.377a108 108 0 0 1 1.41 13.972c.267 5.243.485 10.49.724 15.734l1.486 32.56c.496 10.885 1.054 21.77 1.432 32.66q.28 8.071.19 16.152c-.066 5.258-.291 10.527-.043 15.784-.173-.5-.356-.995-.574-1.468a34 34 0 0 0-1.867-3.492.027.027 0 0 0-.05.021c.274 1.227.593 2.434.888 3.655.303 1.255.768 2.48 1.112 3.727.337 1.22.533 2.461.818 3.692.261 1.123.501 2.25.74 3.378z"/><path fill="currentColor" d="M84.286 354.417c-.581-1.567-1.19-3.152-1.863-4.682-1.234-2.803-3.19-5.86-6.568-5.975a12.3 12.3 0 0 0-4.926 1.119 28 28 0 0 0-4.69 2.358 8.9 8.9 0 0 0-3.235 3.292 7.73 7.73 0 0 0-.636 4.548 19.9 19.9 0 0 0 1.757 5.402c.425.96.847 1.925 1.324 2.861.518 1.018 1.121 1.99 1.65 3.001a.035.035 0 0 0 .064-.027c-.548-1.627-.993-3.274-1.627-4.872a40 40 0 0 1-1.661-4.522 8.7 8.7 0 0 1-.11-4.506 6.3 6.3 0 0 1 2.435-3.446 22 22 0 0 1 3.976-2.246 18.7 18.7 0 0 1 4.546-1.617 4.92 4.92 0 0 1 4.243 1.098 15 15 0 0 1 2.573 3.526c.432.705.913 1.384 1.31 2.111a23 23 0 0 1 1.18 2.648 52 52 0 0 1 1.581 5.19.133.133 0 0 0 .257-.07 33 33 0 0 0-1.58-5.19"/><path fill="currentColor" d="M85.285 360.714c-1.32-.518-2.885-.09-4.21.213a21 21 0 0 0-4.139 1.435 41 41 0 0 0-3.98 2.014 14 14 0 0 0-3.536 2.62.098.098 0 0 0 .118.154c1.271-.618 2.378-1.54 3.591-2.268a22.3 22.3 0 0 1 3.932-1.954 23 23 0 0 1 3.97-.986c1.393-.223 2.9.025 4.254-.39a.439.439 0 0 0 0-.839m37.057-7.87a.055.055 0 0 0-.1.042 4.6 4.6 0 0 1 .088 1.943c-.05.3-.085.604-.117.907a32.1 32.1 0 0 0-12.078.606 47 47 0 0 0-6.255 1.878 39.3 39.3 0 0 0-5.81 2.92c-.04.023-.014.096.033.078 1.94-.766 3.929-1.441 5.905-2.11a49 49 0 0 1 6.069-1.714 34.5 34.5 0 0 1 12.54-.276.675.675 0 0 0 .835-.636 5.65 5.65 0 0 0-1.11-3.638m-6.208-18.77c-2.593-2.167-6.467-2.097-9.655-1.832a19 19 0 0 0-5.105 1.173 11.7 11.7 0 0 0-4.346 2.408 5.6 5.6 0 0 0-1.184 4.295c.108 1.958.3 3.905.376 5.867.086 2.217.238 4.433.441 6.643.105 1.145.243 2.287.358 3.43a15.2 15.2 0 0 0 .49 3.198.086.086 0 0 0 .17-.023 15 15 0 0 0-.295-2.48 60 60 0 0 1-.374-2.899 95 95 0 0 1-.425-5.406 51 51 0 0 1-.071-5.421c.05-.87.145-1.725.248-2.59a13 13 0 0 1 .367-2.318c.495-1.59 1.88-2.299 3.3-2.956a21.5 21.5 0 0 1 4.68-1.528 20.4 20.4 0 0 1 4.908-.48 10.1 10.1 0 0 1 4.7 1.038c3.178 1.84 4.284 5.874 4.98 9.21.004.016.025.01.023-.005-.466-3.318-.838-7.027-3.586-9.324m38.434-19.919a79 79 0 0 0-1.695-5.52c-.527-1.533-.989-3.104-1.632-4.593a8.4 8.4 0 0 0-2.618-3.572 8.7 8.7 0 0 0-3.946-1.466 21.3 21.3 0 0 0-4.683-.08 17 17 0 0 0-4.798.973 11 11 0 0 0-2.342 1.21 8.2 8.2 0 0 0-1.697 1.753 6.66 6.66 0 0 0-1.344 4.422c.001.025.042.034.046.007.412-2.881 2.915-5.005 5.482-6.064a20.3 20.3 0 0 1 8.727-1.308 8.5 8.5 0 0 1 3.99 1.15 7.23 7.23 0 0 1 2.676 3.271c1.373 3.017 2.02 6.396 2.855 9.588a89 89 0 0 1 2.228 10.626 35.7 35.7 0 0 0-10.256-.954 37.3 37.3 0 0 0-11.05 2.153 33.4 33.4 0 0 0-5.577 2.774c-.027.015-.004.052.023.04a47 47 0 0 1 6.725-2.23 44 44 0 0 1 6.86-1.273 42 42 0 0 1 6.91-.175 53 53 0 0 1 6.896.989.578.578 0 0 0 .702-.702c-.81-3.68-1.52-7.372-2.482-11.019"/><path fill="currentColor" d="M129.774 327.337c-.02-.443-.07-.888-.104-1.331-.062-.825-.119-1.65-.183-2.475-.065-.83-.23-1.65-.33-2.476-.105-.885-.15-1.78-.194-2.67a.012.012 0 0 0-.023 0c-.067 1.59-.222 3.178-.27 4.766-.022.759.03 1.526.063 2.284a13.5 13.5 0 0 0 .187 2.398.44.44 0 0 0 .305.305l.05.056a.14.14 0 0 0 .215-.028c.092-.13.215-.169.272-.333a1.4 1.4 0 0 0 .012-.496m49.965-93.007a2 2 0 0 0-.311-.342c-.125-.099-.259-.186-.39-.275-.03-.02-.063.024-.038.049a3 3 0 0 1 .294.343c.09.12.2.224.294.341.188.236.355.487.527.734.028.041.103.018.085-.036a2.7 2.7 0 0 0-.461-.815m1.731 3.268-.053-.122a3 3 0 0 0-.11-.22c-.08-.15-.155-.302-.233-.453a.02.02 0 0 0-.036.015c.057.163.118.325.17.49a2 2 0 0 0 .088.239l.049.113a.14.14 0 0 0 .084.088c.023.01.045-.011.053-.03a.14.14 0 0 0-.012-.12m-1.431.483q-.3-.513-.627-1.01a16 16 0 0 0-1.392-1.819c-.038-.042-.113.014-.08.062.439.627.868 1.265 1.275 1.913q.298.473.573.96a5.2 5.2 0 0 0 .616.949c.035.04.096-.003.085-.05a3.6 3.6 0 0 0-.45-1.005m-1.505 1.323c-.114-.22-.236-.435-.355-.653-.118-.217-.23-.438-.355-.652-.132-.23-.289-.447-.434-.668-.02-.031-.08-.012-.064.027.097.233.187.47.292.7.106.232.236.457.354.684s.231.459.354.684a3 3 0 0 0 .417.631.051.051 0 0 0 .085-.049 3 3 0 0 0-.294-.704m-1.576 1.504a6 6 0 0 0-.454-.929.055.055 0 0 0-.094.055 10.4 10.4 0 0 1 .685 1.889c.01.033.064.028.061-.008a3.5 3.5 0 0 0-.198-1.007m-10.932-99.23a15.7 15.7 0 0 0-2.642-2.468c-.998-.699-2.05-1.287-3.091-1.916-.063-.038-.14.056-.08.104.944.749 1.832 1.576 2.753 2.354a27 27 0 0 0 2.961 2.055c.081.052.16-.062.1-.129m3.823-.017c-1.113-.816-2.34-1.506-3.51-2.237q-1.762-1.102-3.495-2.25c-.025-.017-.048.023-.024.04 1.131.805 2.273 1.596 3.431 2.36a30.5 30.5 0 0 0 3.563 2.148.035.035 0 0 0 .035-.06m3.45-.359a9.2 9.2 0 0 0-1.879-1.182q-.998-.549-1.978-1.13c-1.326-.788-2.647-1.58-3.935-2.43-.03-.02-.055.027-.028.047 1.235.93 2.493 1.837 3.801 2.66q.965.606 1.95 1.18a7.4 7.4 0 0 0 2.015.947.055.055 0 0 0 .053-.092m-.153-2.651a11.8 11.8 0 0 0-2.02-1.36q-1.094-.608-2.199-1.197a.035.035 0 0 0-.035.061q1.062.627 2.088 1.307a17.4 17.4 0 0 0 2.119 1.25c.037.018.083-.03.047-.06m4.587 2.303a1.8 1.8 0 0 0-.726-.589 5 5 0 0 0-.8-.343c-.258-.083-.52-.132-.781-.202a4.7 4.7 0 0 1-.86-.318.031.031 0 0 0-.032.054 4.7 4.7 0 0 1 .728.545c.198.179.378.37.585.538a5 5 0 0 0 .714.488 1.86 1.86 0 0 0 .899.303.32.32 0 0 0 .273-.476m3.112-.505c-.221-.447-.891-.634-1.31-.831l-1.473-.696c-1.023-.483-2.074-.89-3.11-1.343-.04-.017-.076.039-.035.061 1 .553 1.97 1.145 2.986 1.67l1.496.772c.405.21.917.587 1.394.494a.087.087 0 0 0 .052-.127m2.553-.567a2 2 0 0 0-.626-.427c-.25-.112-.506-.23-.764-.324-.51-.186-1.032-.315-1.551-.47a.055.055 0 0 0-.042.1c.475.26.934.54 1.423.772.24.114.495.205.742.306a2 2 0 0 0 .77.156.067.067 0 0 0 .048-.113m2.545-.647a1 1 0 0 0-.191-.083q-.093-.023-.186-.04c-.13-.025-.258-.066-.389-.084a3.7 3.7 0 0 1-.778-.204c-.068-.026-.106.078-.048.114a4.5 4.5 0 0 0 .747.376 1.7 1.7 0 0 0 .409.084 1.3 1.3 0 0 0 .21.014.8.8 0 0 0 .21-.048c.052-.017.075-.101.016-.129m2.362-.597a.45.45 0 0 0-.33-.318 1 1 0 0 0-.355-.046 1 1 0 0 0-.203.036l-.06.017a.3.3 0 0 0-.077.036l-.04.013q-.048.018-.094.04c-.01.004-.077.024-.033.016.047-.008-.042.003-.05.004a.16.16 0 0 0-.043.315.3.3 0 0 1 .1.048.6.6 0 0 0 .104.066q.029.017-.02-.019a.4.4 0 0 0 .077.062l.055.028a1 1 0 0 0 .184.08 1 1 0 0 0 .345.033.6.6 0 0 0 .2-.041.4.4 0 0 0 .194-.165l.03-.025a.14.14 0 0 0 .016-.18m-19.598 44.269a65 65 0 0 1-5.23-4.473c-.054-.054-.134.027-.083.083a24 24 0 0 0 5.252 4.47c.048.029.107-.043.061-.08m2.795.148a9.8 9.8 0 0 0-1.571-1.32c-.544-.424-1.09-.844-1.626-1.278a93 93 0 0 1-3.166-2.664c-.041-.036-.1.021-.061.06a50 50 0 0 0 3.105 2.893c.506.428 1.015.853 1.54 1.258a7.7 7.7 0 0 0 1.722 1.15c.06.023.09-.06.057-.099m3.293.046a10.3 10.3 0 0 0-1.438-1.046c-.518-.347-1.048-.675-1.565-1.025a131 131 0 0 1-3.065-2.127c-.046-.033-.104.042-.061.08a33 33 0 0 0 2.905 2.314c.51.358 1.021.72 1.552 1.046a7.5 7.5 0 0 0 1.627.836.047.047 0 0 0 .045-.078m3.471.096a10.8 10.8 0 0 0-2.967-2.166c-1.08-.642-2.189-1.22-3.288-1.825a.055.055 0 0 0-.056.094c1.014.752 2.008 1.522 3.046 2.24a10.7 10.7 0 0 0 3.193 1.781.075.075 0 0 0 .072-.124m2.543-.37a10.2 10.2 0 0 0-2.206-1.547c-.804-.454-1.632-.854-2.455-1.269a.047.047 0 0 0-.048.081c.77.507 1.522 1.042 2.293 1.547a12.2 12.2 0 0 0 2.351 1.3c.064.023.11-.068.065-.112m2.953-.18c-1.247-.774-2.67-1.227-3.982-1.877a.027.027 0 0 0-.028.047 10.4 10.4 0 0 0 3.968 1.93.055.055 0 0 0 .042-.1m1.766-.341c-.685-.335-1.381-.65-2.034-1.048-.052-.031-.097.048-.047.081a7.8 7.8 0 0 0 2.06 1.017c.03.009.05-.036.021-.05m1.929-1.129a2 2 0 0 0-.184-.05c-.121-.02-.244-.032-.365-.048-.245-.032-.495-.026-.741-.037-.1-.005-.125.157-.024.176.245.046.49.11.737.136.12.011.238.028.357.035a2 2 0 0 0 .192-.005.3.3 0 0 0 .17-.036.064.064 0 0 0 .012-.098.3.3 0 0 0-.154-.073m2.807-.59a1.3 1.3 0 0 0-.245-.055 1.6 1.6 0 0 0-.27-.012c-.173-.003-.348.019-.52.03a.09.09 0 0 0 0 .18c.172.011.347.033.52.03a1.6 1.6 0 0 0 .27-.012 1.3 1.3 0 0 0 .245-.055.055.055 0 0 0 0-.106m27.21 90.144a28.3 28.3 0 0 1-.658-4.712 4.8 4.8 0 0 0-.072-1.913 8.7 8.7 0 0 1-.488-2.283c-.214-1.495-.45-2.983-.72-4.47-.011-.065-.118-.05-.115.016.077 1.47.206 2.93.388 4.391a8.7 8.7 0 0 1 .198 2.336 4.36 4.36 0 0 0 .454 1.971 35 35 0 0 1 .798 4.343 40 40 0 0 0 .842 4.466c.01.036.073.031.069-.01-.12-1.389-.457-2.762-.696-4.135m-4.014-10.965c-.012-.064-.122-.05-.115.016.197 1.884.452 3.761.74 5.634.006.039.072.03.07-.01a40 40 0 0 0-.695-5.64m2.337 14.031c-.125-.45-.26-.897-.372-1.349-.236-.94-.45-1.886-.674-2.829-.007-.03-.05-.017-.045.013.173.957.358 1.912.519 2.871.077.464.135.931.201 1.396a2.55 2.55 0 0 0 .365 1.302.122.122 0 0 0 .203-.054 2.6 2.6 0 0 0-.197-1.35m-3.08-.35q-.307-1.578-.611-3.156-.633-3.277-1.28-6.551c-.007-.035-.058-.02-.052.014q.525 3.243 1.065 6.483.265 1.589.527 3.179a15.3 15.3 0 0 0 .687 3.262.07.07 0 0 0 .138-.019 14.8 14.8 0 0 0-.474-3.212m-1.754.912q-.253-1.337-.49-2.678c-.311-1.753-.63-3.504-.921-5.26-.005-.03-.058-.024-.054.006.226 1.706.459 3.412.745 5.109q.218 1.294.451 2.585a15 15 0 0 0 .576 2.659c.016.042.086.04.084-.012a15 15 0 0 0-.39-2.408m-2.463-1.544a124 124 0 0 1-.811-4.743c-.004-.03-.057-.023-.054.008.153 1.545.33 3.092.589 4.624a28 28 0 0 0 1.054 4.7c.014.04.083.037.077-.01-.186-1.537-.572-3.057-.855-4.579m-1.681 1.383-.497-2.92c-.002-.015-.025-.009-.022.006l.44 2.876a27 27 0 0 0 .476 2.867.024.024 0 0 0 .046-.007 27 27 0 0 0-.444-2.823m-2.151-2.152c-.002-.014-.025-.015-.023 0 .161 1.617.299 3.239.51 4.85.004.03.05.03.047 0-.136-1.62-.347-3.234-.534-4.85m-1.658 3.24-.184-.83c-.006-.025-.042-.015-.038.01l.151.839c.05.28.113.555.18.831.007.03.05.017.045-.012-.045-.282-.093-.56-.155-.838m-2.666.708a.012.012 0 0 0-.017.016l.128.128a.012.012 0 0 0 .016-.017ZM177.63 302.8a10.6 10.6 0 0 0-1.831-1.368c-.658-.415-1.334-.801-2.004-1.196-.019-.01-.042.017-.024.031.601.465 1.197.939 1.812 1.385a11 11 0 0 0 1.99 1.221c.046.02.097-.033.057-.073m3.06.143a4.2 4.2 0 0 0-1.174-.84c-.421-.25-.858-.477-1.288-.713-.877-.48-1.773-.925-2.655-1.395a.012.012 0 0 0-.012.02c.841.541 1.666 1.107 2.513 1.639.415.26.826.532 1.25.778a4.2 4.2 0 0 0 1.306.616.063.063 0 0 0 .06-.105m2.93-.626a4 4 0 0 0-1.17-.776 42 42 0 0 0-1.24-.628q-1.296-.633-2.588-1.272c-.04-.02-.075.038-.035.061q1.24.727 2.477 1.46.597.354 1.204.69a4.1 4.1 0 0 0 1.299.556.055.055 0 0 0 .053-.091m1.98-1.169c-.389-.176-.778-.35-1.175-.508a77 77 0 0 0-2.462-.932c-.041-.015-.07.053-.03.07q1.181.534 2.332 1.13c.378.195.759.384 1.138.578a2.5 2.5 0 0 0 1.127.432.095.095 0 0 0 .08-.14 2.3 2.3 0 0 0-1.01-.63m3.257-.085a2 2 0 0 0-.352-.215c-.135-.078-.277-.14-.418-.205a12 12 0 0 0-.856-.345c-.585-.219-1.198-.36-1.802-.52-.062-.017-.106.077-.045.107.553.27 1.102.557 1.677.78.291.113.587.22.887.307.15.044.3.09.454.12a2 2 0 0 0 .413.071.06.06 0 0 0 .042-.1m2.705-.586a3.12 3.12 0 0 0-1.823-.684c-.092-.01-.113.144-.022.161a6 6 0 0 1 .917.261c.297.104.582.243.879.347a.051.051 0 0 0 .049-.085M127.824 273.2c-1.806.35-3.591.773-5.38 1.2-.059.015-.034.104.025.091 1.796-.389 3.59-.78 5.368-1.246.029-.008.016-.051-.013-.045m9.702-1.072a6.6 6.6 0 0 0-1.726.033 18 18 0 0 0-1.732.354c-.044.01-.025.077.019.067a12 12 0 0 1 1.736-.249q.853-.058 1.703-.135a.035.035 0 0 0 0-.07m-31.348 26.216c-3.386 1.194-6.629 2.74-9.946 4.108-1.566.646-3.141 1.298-4.761 1.798a17 17 0 0 1-2.36.541c-.703.111-1.564-.036-2.042.544a20.1 20.1 0 0 1-6.736 1.32.031.031 0 0 0 0 .063 32 32 0 0 0 3.422-.173c.6-.062 1.2-.16 1.801-.211a10.4 10.4 0 0 1 1.563-.136 1.9 1.9 0 0 0 1.218-.09c.528-.274 1.061-.54 1.606-.79 1.064-.489 2.165-.892 3.25-1.329 4.366-1.757 8.8-3.48 13.003-5.602a.024.024 0 0 0-.018-.043m.36-.264c-.007-.036-.06-.027-.061.008a.7.7 0 0 1-.024.163c-.015.056-.023.113-.042.168a.74.74 0 0 1-.186.28.024.024 0 0 0 .028.037.7.7 0 0 0 .243-.282.5.5 0 0 0 .058-.185.7.7 0 0 0-.016-.19m-1.672 3.113c-3.93 1.637-7.798 3.488-11.795 4.955-.42.154-1.947.366-1.878 1.033.072.694 1.079.063 1.348-.1a56 56 0 0 1 5.713-2.866q3.305-1.512 6.63-2.979c.024-.01.007-.053-.018-.043m-41.551 17.594a107 107 0 0 1-14.89 4.868c-.065.015-.037.111.026.098a60.8 60.8 0 0 0 14.903-4.873c.051-.025.015-.114-.039-.093m24.605 52.827a102 102 0 0 0-.825 10.22c0 .025.038.025.04 0 .157-3.415.41-6.826.824-10.22.003-.025-.036-.025-.04 0m47.044-32.781c-2.271-1.283-4.607-2.443-6.96-3.569-.04-.019-.075.04-.035.061 2.332 1.168 4.64 2.38 6.971 3.548.027.014.05-.025.024-.04m6.087.345c-.464-.702-1.42-.772-2.17-.947a13 13 0 0 1-2.744-1.262 128 128 0 0 1-4.976-2.654.035.035 0 0 0-.035.06 93 93 0 0 0 5.028 2.748 21 21 0 0 1 2.47 1.253c.696.476 1.371 1.255 2.296 1.123a.22.22 0 0 0 .13-.321m3.34-.614a3.5 3.5 0 0 0-1.005-.638 34 34 0 0 1-1.177-.628c-.726-.412-1.452-.82-2.17-1.243a58 58 0 0 1-2.124-1.322 5.3 5.3 0 0 0-2.137-.99c-.023-.003-.028.026-.017.04a5.5 5.5 0 0 0 1.973 1.259c.784.367 1.554.749 2.312 1.164.732.401 1.449.825 2.165 1.252.36.214.706.444 1.054.676a3.6 3.6 0 0 0 1.042.573.087.087 0 0 0 .084-.143m3.157-1.276a1.2 1.2 0 0 0-.684-.586c-.29-.115-.586-.22-.877-.335a11 11 0 0 1-1.97-1.078 36 36 0 0 0-3.644-2.154.023.023 0 0 0-.024.04 36 36 0 0 0 3.6 2.23 10.7 10.7 0 0 1 1.82 1.205c.256.22.502.451.759.67a1.2 1.2 0 0 0 .838.326.213.213 0 0 0 .182-.318m2.354-1.623-.598-.299c-.412-.206-.816-.428-1.223-.643-.83-.438-1.656-.882-2.503-1.285a.02.02 0 0 0-.02.033c.798.492 1.619.943 2.436 1.4.401.225.806.446 1.203.678l.575.338a1.1 1.1 0 0 0 .567.225.063.063 0 0 0 .054-.094 1.1 1.1 0 0 0-.492-.353m2.698-.807c-.368-.165-.748-.29-1.125-.43q-.593-.22-1.162-.496c-.045-.022-.085.043-.04.067q.552.3 1.13.547a5 5 0 0 0 1.173.369c.031.005.06-.042.024-.057m1.923-1.647a1.6 1.6 0 0 0-.266-.1l-.296-.07a2 2 0 0 0-.3-.032l-.301-.02c-.085-.006-.1.124-.02.145l.282.077a2 2 0 0 0 .296.068l.29.03a1.6 1.6 0 0 0 .29-.004c.044-.003.076-.072.025-.094m-49.155 35.472a18 18 0 0 0-2.735-1.048q-1.439-.456-2.877-.914c-.049-.015-.067.058-.02.076l2.777 1.064a18.4 18.4 0 0 0 2.822.9c.045.01.079-.055.033-.078m5.677.408a1.1 1.1 0 0 0-.646-.4c-.357-.129-.72-.241-1.081-.36l-2.24-.74-4.404-1.454c-.029-.01-.04.034-.012.045l4.26 1.67 2.129.836c.355.14.708.284 1.065.418a1.3 1.3 0 0 0 .86.152.115.115 0 0 0 .069-.167m3.29-.734a11 11 0 0 0-1.64-.719q-.887-.342-1.788-.645-1.802-.605-3.637-1.105a.023.023 0 0 0-.013.045q1.782.569 3.533 1.228.86.325 1.715.658a17 17 0 0 0 1.779.659.067.067 0 0 0 .051-.121m2.268-.958a4.3 4.3 0 0 0-.921-.374q-.478-.177-.96-.346l-1.96-.68c-.023-.008-.033.03-.01.038l1.94.754q.477.183.955.358a4.3 4.3 0 0 0 .94.308c.033.004.038-.043.015-.058m1.535-1.544c-.093-.05-.186-.103-.28-.15-.092-.046-.189-.085-.282-.126l-.575-.256c-.054-.024-.102.056-.047.081l.585.26c.094.042.187.088.283.125.098.039.199.072.298.108.025.01.042-.03.018-.042m2.44-.707a1 1 0 0 0-.127-.035l-.266-.065a.047.047 0 0 0-.025.09l.263.077a1 1 0 0 0 .127.032.4.4 0 0 0 .14.012.032.032 0 0 0 .013-.052.4.4 0 0 0-.125-.059m65.492-13.485c-.04-.078-.147-.01-.114.067a49.2 49.2 0 0 0 5.932 10.3c.038.05.123.006.087-.051-2.083-3.365-4.094-6.796-5.905-10.316m5.914 6.743q-1.382-2.12-2.812-4.204a.02.02 0 0 0-.034.02q1.278 2.227 2.606 4.423a38 38 0 0 0 2.75 4.158c.038.048.103-.013.08-.061a38 38 0 0 0-2.59-4.336m4.977 3.315a5.3 5.3 0 0 0-.655-.544c-.029-.02-.055.026-.027.047a6 6 0 0 1 1.183 1.179c.018.023.058.001.04-.024a4.4 4.4 0 0 0-.541-.657M41.509 344.99c.308-1.912.756-4.16-.19-5.968-.033-.063-.117-.016-.107.045a16 16 0 0 1 .264 3.144c-.036.953-.106 1.905-.164 2.857s-.142 1.9-.136 2.856c.004.467.02.939.07 1.403a6 6 0 0 1 .09 1.653.106.106 0 0 0 .175.103c.645-.671.045-1.616-.106-2.381a10.7 10.7 0 0 1 .104-3.711m-2.833-2.86c-.002-.02-.032-.02-.032 0 .057 1.82.013 3.634-.103 5.45 0 .016.022.015.023 0a31 31 0 0 0 .112-5.45m.077 10.474c-.037-.23-.127-.449-.15-.682-.05-.484-.06-.966-.07-1.452a.027.027 0 0 0-.056 0c-.011.486-.02.968-.07 1.452-.023.234-.113.451-.151.682-.033.203-.049.607.249.607.296 0 .282-.404.248-.607m-3.164-2.24a33 33 0 0 0-.235-3.475c-.003-.024-.04-.025-.04 0a33 33 0 0 1 .04 3.409c-.048 1.134-.208 2.268-.164 3.403a.055.055 0 0 0 .107.014 11.8 11.8 0 0 0 .292-3.35m-3.077.786c-.005.738-.013 1.475.008 2.213a.027.027 0 0 0 .055 0c.02-.738.013-1.475.008-2.213a.035.035 0 0 0-.07 0m21.512 7.83a.035.035 0 0 0-.07 0c-.06 3.795-.436 7.615-.27 11.41.002.062.103.083.114.015a55 55 0 0 0 .226-11.425m-1.883 4.087c-.21 3.3-.656 6.572-.937 9.865a.031.031 0 0 0 .061.008 59 59 0 0 0 .93-9.873c.001-.036-.052-.035-.054 0m-2.996 5.765-.709 3.203a29 29 0 0 0-.579 3.12c-.004.04.058.046.07.01a29 29 0 0 0 .706-3.14l.602-3.168c.011-.059-.077-.085-.09-.025m9.25 12.956.008 1.192a.016.016 0 0 0 .031 0l.008-1.192a.023.023 0 0 0-.047 0m42.55 52.479c-.02-.036-.072-.004-.054.031a49.7 49.7 0 0 0 9.152 12.546.031.031 0 0 0 .044-.044 59.8 59.8 0 0 1-9.142-12.533m8.704 4.58c-.823-1.133-1.7-2.221-2.542-3.337-.012-.016-.039-.001-.027.015.805 1.138 1.573 2.298 2.399 3.422q1.243 1.69 2.526 3.347c.027.035.087.002.06-.036q-1.19-1.72-2.415-3.411m11.389 12.319q-.456-.407-.917-.806a35 35 0 0 1-1.788-1.67 37 37 0 0 1-3.323-3.721c-.036-.047-.116-.003-.081.047a32 32 0 0 0 3.101 3.89 31 31 0 0 0 1.81 1.736c.287.256.579.5.887.73a4.6 4.6 0 0 0 1.033.669.07.07 0 0 0 .079-.103 5.5 5.5 0 0 0-.8-.772m-5.741-12.894c-.927-1.032-1.848-2.06-2.843-3.026-.041-.04-.094.018-.061.06a73 73 0 0 0 5.547 6.19c.047.048.113-.021.072-.071a89 89 0 0 0-2.716-3.153m13.986 13.072a11.5 11.5 0 0 0-1.693-1.511c-.582-.468-1.16-.944-1.75-1.401a409 409 0 0 1-3.746-2.917c-.015-.013-.038.009-.022.022a398 398 0 0 1 3.556 3.053c.573.496 1.162.975 1.745 1.46a11.7 11.7 0 0 0 1.844 1.38.055.055 0 0 0 .066-.086m9.778.74a14 14 0 0 0-2.023-1.438q-1.098-.734-2.154-1.53a51 51 0 0 1-4.145-3.535 103 103 0 0 1-7.356-7.863q-1.984-2.303-3.936-4.632c-.024-.028-.06.011-.04.038 4.445 5.735 9.028 11.381 14.706 15.954q1.094.882 2.238 1.699a10 10 0 0 0 2.585 1.522.13.13 0 0 0 .125-.215m5.937-2.735a10.8 10.8 0 0 0-2.616-1.821 61 61 0 0 1-2.644-1.67 26 26 0 0 1-4.966-4.272c-2.666-3.015-4.974-6.294-8.31-8.637-.042-.03-.097.04-.056.074 3.128 2.65 5.526 6.065 8.422 8.953a53 53 0 0 0 4.8 4.205q1.213.946 2.464 1.843a9.7 9.7 0 0 0 2.736 1.619.177.177 0 0 0 .17-.294m8.875-1.514c-1.548-1.155-3.408-1.89-5.02-2.965a35 35 0 0 1-4.82-3.87c-3.047-2.93-5.85-6.09-9.014-8.901a.031.031 0 0 0-.044.044 77.3 77.3 0 0 0 9.086 9.335 61 61 0 0 0 4.665 3.609 19.2 19.2 0 0 0 5.06 2.955c.131.04.184-.135.087-.207m5.695-2.739c-1.449-1.082-3.08-1.912-4.585-2.913a38 38 0 0 1-4.546-3.49 78 78 0 0 1-3.87-3.808c-.626-.654-1.247-1.312-1.873-1.965a3.2 3.2 0 0 0-1.65-1.115.043.043 0 0 0-.023.083 5.75 5.75 0 0 1 1.947 1.831 40 40 0 0 0 1.856 1.985 52 52 0 0 0 4.005 3.517c1.328 1.076 2.654 2.158 4.027 3.178a23.4 23.4 0 0 0 4.577 2.926.133.133 0 0 0 .134-.23m1.621-5.764a55.2 55.2 0 0 1-10.016-9.624c-.016-.02-.052.007-.036.028a36.1 36.1 0 0 0 10.013 9.663c.043.028.08-.038.04-.067m5.857 3.135a.64.64 0 0 0-.251-.228 6 6 0 0 0-.534-.291 40 40 0 0 0-1.225-.571 34 34 0 0 1-2.373-1.188.035.035 0 0 0-.035.06 34 34 0 0 1 2.199 1.486q.525.392 1.062.763a6 6 0 0 0 .551.348.63.63 0 0 0 .327.106c.086-.004.145-.052.225-.062.073-.009.16-.076.124-.163-.035-.086-.027-.175-.07-.26m4.33-4.085a6.4 6.4 0 0 0-1.333-.903q-.82-.488-1.624-1.001-1.563-.998-3.063-2.09a66 66 0 0 1-5.886-4.805c-.051-.047-.128.028-.077.078a58 58 0 0 0 5.643 4.856q1.487 1.11 3.04 2.129.797.523 1.611 1.02a6 6 0 0 0 1.624.827.067.067 0 0 0 .065-.11m5.84-2.749a19 19 0 0 0-2.672-1.346q-1.349-.66-2.642-1.428a39.5 39.5 0 0 1-5.052-3.509c-.08-.066-.196.046-.116.116a36.4 36.4 0 0 0 4.893 3.683q1.318.811 2.699 1.512a10 10 0 0 0 2.827 1.122.082.082 0 0 0 .063-.15m4.338-4.33c-1.065-.468-2.162-.86-3.222-1.34a43 43 0 0 1-3.135-1.56.043.043 0 0 0-.043.074 28 28 0 0 0 3.12 1.7 18 18 0 0 0 3.244 1.212c.049.012.086-.063.036-.086m2.322-4.426c-.375-.178-.747-.362-1.13-.523l-1.176-.495c-.02-.008-.035.026-.015.036l1.156.543c.375.176.761.33 1.144.489.028.011.049-.037.02-.05m7.655-10.166a85 85 0 0 1-10.394-5.518c-.09-.06-.206.085-.118.153a29.5 29.5 0 0 0 10.446 5.522c.09.023.156-.113.066-.157m3.073-3.089a24 24 0 0 0-2.667-1.074 54 54 0 0 1-3.046-1.247 50 50 0 0 1-5.52-2.82c-.06-.036-.113.056-.055.095a40.5 40.5 0 0 0 5.534 3.196 19.4 19.4 0 0 0 5.72 1.974c.066.008.09-.095.034-.124m3.523-3.699c-1.62-.574-3.265-1.056-4.856-1.714a44 44 0 0 1-4.774-2.312.016.016 0 0 0-.015.027 36 36 0 0 0 4.724 2.438 25 25 0 0 0 4.902 1.63.035.035 0 0 0 .019-.069m2.319-4.17c-1.002-.4-2.036-.712-3.059-1.055q-1.53-.512-3.023-1.127c-.052-.021-.091.07-.039.093a26.7 26.7 0 0 0 6.096 2.18.047.047 0 0 0 .025-.09m2.058-3.909a7.7 7.7 0 0 1-2.797-.504c-.022-.01-.042.022-.02.034a4.77 4.77 0 0 0 2.825.532c.036-.006.026-.06-.008-.062m2.561-3.817a4 4 0 0 0-.502-.142c-.171-.033-.346-.053-.518-.08-.34-.051-.683-.071-1.025-.102-.052-.005-.063.08-.012.092.339.078.677.165 1.02.222.168.028.337.061.506.082a4 4 0 0 0 .518.02.047.047 0 0 0 .013-.092m3.327-2.565a2 2 0 0 0-.379-.145l-.39-.132c-.061-.021-.088.078-.026.098l.39.128.189.061.1.034a1 1 0 0 0 .1.014c.032.005.041-.044.016-.058M51.41 470.496a62.2 62.2 0 0 1-10.282-10.906c-.029-.04-.094-.004-.067.04a36.7 36.7 0 0 0 10.292 10.94c.043.03.098-.04.057-.074m-2.297-7.326a104 104 0 0 1-3.414-4.417c-.02-.028-.067-.002-.047.028a63 63 0 0 0 3.125 4.391 29 29 0 0 0 3.657 4.132c.03.027.089-.009.061-.047-1.036-1.428-2.267-2.72-3.382-4.088m11.972 11.319a66 66 0 0 0-6.14-5.222c-.038-.03-.093.021-.055.056a66 66 0 0 0 6.124 5.258c.056.04.116-.045.071-.092m5.078-2.134c-1.229-1.137-2.589-2.145-3.872-3.22q-1.934-1.622-3.79-3.33-3.713-3.417-7.125-7.14c-.017-.018-.045.01-.028.028a105 105 0 0 0 7.095 7.33q1.843 1.722 3.764 3.356a36 36 0 0 0 3.904 3.044.043.043 0 0 0 .052-.068m5.162-1.347a29 29 0 0 0-3.108-2.626q-1.641-1.313-3.255-2.662-3.185-2.655-6.204-5.5c-.043-.042-.109.023-.066.065q2.97 2.97 6.115 5.755 1.53 1.353 3.115 2.638a21 21 0 0 0 3.337 2.416.055.055 0 0 0 .066-.086m3.628-2.711c-3.03-2.505-6.102-4.966-9.05-7.569-.06-.052-.147.032-.089.089a61.4 61.4 0 0 0 9.083 7.554c.043.029.098-.04.056-.074m4.018-2.76a26 26 0 0 0-2.722-2.233c-.949-.733-1.919-1.438-2.882-2.151-.067-.05-.155.063-.09.116.929.758 1.85 1.526 2.794 2.265a26 26 0 0 0 2.834 2.089.055.055 0 0 0 .066-.086m3.959-3.171a7.4 7.4 0 0 0-.885-.638 10.8 10.8 0 0 0-2-1.041c-.35-.13-.711-.229-1.064-.349-.073-.025-.112.083-.05.122.318.202.623.43.94.636.308.199.633.368.955.541s.659.33.994.475a9 9 0 0 0 1.014.418.098.098 0 0 0 .095-.164m48.591-227.469a.018.018 0 0 0-.035 0 63.7 63.7 0 0 0 .397 11.761c.01.065.11.046.111-.015.125-3.916-.351-7.833-.473-11.746m3.434 16.204c-.15-1.354-.18-2.721-.248-4.081-.132-2.687-.237-5.359-.458-8.04-.004-.047-.075-.048-.074 0 .055 2.688.225 5.355.368 8.04.07 1.317.177 2.638.173 3.958a15.6 15.6 0 0 0 .156 3.876c.037.144.284.162.308 0a15 15 0 0 0-.225-3.753m2.88 8.948a2 2 0 0 0-.01-.693c-.023-2.464-.263-4.93-.296-7.396-.017-1.313 0-2.626.012-3.938a20 20 0 0 0-.21-3.95c-.007-.036-.07-.037-.075 0a19.6 19.6 0 0 0-.053 3.826c.068 1.354.141 2.707.178 4.062.072 2.706-.123 5.422.01 8.123.01.24.382.317.437.06.004-.021 0-.04.004-.06h.004zm2.318-.338c.018-1.27.06-2.54.064-3.812a64 64 0 0 0-.495-7.733c-.003-.027-.045-.028-.043 0 .17 2.531.252 5.074.315 7.61.03 1.23.043 2.46-.002 3.689a21 21 0 0 1-.175 1.966 3.85 3.85 0 0 0-.024 1.748.113.113 0 0 0 .203.026 3.2 3.2 0 0 0 .195-1.529c-.008-.655-.047-1.31-.038-1.965m3.14 3.103a293 293 0 0 1-.027-3.617 259 259 0 0 0-.028-3.618 11 11 0 0 0-.319-3.182.01.01 0 0 0-.019.005 14.7 14.7 0 0 1 .193 3.426q.022 1.81.066 3.618c.026 1.164.05 2.329.06 3.493.012 1.212-.147 2.408-.149 3.618a.233.233 0 0 0 .465 0c-.033-1.253-.223-2.488-.242-3.743m4.157 5.897c-.08-.648-.175-1.283-.202-1.936-.047-1.146-.08-2.292-.13-3.438q-.073-1.72-.165-3.438a10.3 10.3 0 0 0-.482-3.235c-.006-.013-.028-.008-.023.007a13 13 0 0 1 .313 3.474q.064 1.72.143 3.438c.053 1.146.13 2.29.177 3.437.024.577-.025 1.143-.04 1.719a2.3 2.3 0 0 0 .163 1.285.114.114 0 0 0 .195 0 2.3 2.3 0 0 0 .05-1.313m3.435 4.064c-.062-.579-.137-1.155-.181-1.736-.097-1.27-.134-2.547-.191-3.82-.113-2.494-.232-4.989-.415-7.478-.002-.03-.048-.03-.047 0 .096 2.493.22 4.986.338 7.478.06 1.231.135 2.464.159 3.696.012.62-.01 1.24-.02 1.86a2.9 2.9 0 0 0 .176 1.529.083.083 0 0 0 .142 0 2.85 2.85 0 0 0 .04-1.53m3.143 2.967c-.074-.562-.15-1.118-.19-1.683-.077-1.08-.108-2.166-.158-3.248a22.3 22.3 0 0 0-.672-5.995.03.03 0 0 0-.057.016 35 35 0 0 1 .607 6.22c.055 1.041.13 2.084.156 3.127.012.522-.01 1.042-.028 1.563a1.9 1.9 0 0 0 .163 1.242.08.08 0 0 0 .135 0 1.84 1.84 0 0 0 .044-1.242m2.405-6.314c-.003-.02-.032-.012-.03.008.301 2.216.508 4.444.796 6.661.004.032.052.034.05 0a48 48 0 0 0-.816-6.67m1.691 9.714c-.076-.139-.156-.273-.225-.415-.148-.306-.269-.624-.392-.94-.014-.034-.07-.02-.057.016.107.32.22.639.3.966.041.163.068.324.1.488a1.05 1.05 0 0 0 .188.484.154.154 0 0 0 .26-.108 1.1 1.1 0 0 0-.174-.491m2.238-4.071c-.002-.012-.02-.007-.019.005.36 2.33.703 4.672 1.163 6.984.003.018.029.01.026-.007-.316-2.336-.752-4.661-1.17-6.982m4.093 6.726q-.262-.757-.59-1.49c-.015-.031-.07-.008-.058.025.19.504.354 1.017.503 1.535.148.519.312 1.033.455 1.553.01.04.066.022.06-.016a9 9 0 0 0-.37-1.607m3.084 4.329c-.011-.016-.038 0-.027.016.285.397.567.795.855 1.19.009.012.029 0 .02-.012q-.421-.599-.848-1.194m-31.846-80.671c-.009-.026-.05-.015-.042.012a162 162 0 0 0 1.572 4.753c.009.023.046.013.038-.01a162 162 0 0 0-1.568-4.755m-35.518 31.768a45.4 45.4 0 0 0-11.645-6.2c-.025-.01-.043.032-.018.042a60 60 0 0 1 5.916 2.896c1.92 1.071 3.766 2.267 5.683 3.345.05.028.113-.044.064-.083m2.525 4.274a128 128 0 0 0-11.565-6.152c-.029-.014-.055.03-.025.044 3.918 1.935 7.734 4.05 11.564 6.152a.025.025 0 0 0 .026-.044m-4.104.203a45 45 0 0 0-6.661-3.189c-.018-.007-.032.025-.014.032 2.27.96 4.454 2.086 6.657 3.188a.018.018 0 0 0 .018-.03m3.442 1.602a3 3 0 0 0-.206-.098q-.191-.08-.385-.151l-.818-.32c-.012-.005-.02.015-.009.021q.393.2.784.402c.126.064.25.133.38.192a.73.73 0 0 0 .38.116.034.034 0 0 0 .02-.048.3.3 0 0 0-.146-.114m-.211 2.85a8.7 8.7 0 0 0-1.6-1.002q-.843-.476-1.709-.908-1.71-.851-3.49-1.551c-.026-.01-.046.035-.02.046q1.781.754 3.491 1.66.827.44 1.638.907a14 14 0 0 0 1.637.94c.05.02.091-.057.053-.092m-.166 2.716a9.4 9.4 0 0 0-1.398-.871q-.739-.416-1.484-.819-1.515-.823-3.035-1.638a.014.014 0 0 0-.014.024q1.478.886 2.961 1.764.728.433 1.463.854a9.4 9.4 0 0 0 1.467.754.041.041 0 0 0 .04-.068m.037 3.313c-1.306-.848-2.68-1.587-3.967-2.465-.013-.008-.029.012-.016.022a16.6 16.6 0 0 0 3.963 2.489c.028.011.043-.032.02-.046m-2.954 2.316c-.028-.018-.053.026-.026.044.685.448 1.365.902 2.061 1.332.018.011.032-.015.016-.027-.675-.463-1.365-.903-2.051-1.349m1.714 5.432c-.02-.01-.037.02-.017.03.578.322 1.154.647 1.739.955a.012.012 0 0 0 .012-.02c-.573-.331-1.154-.646-1.734-.965m-46.743 6.331a42.5 42.5 0 0 0-8.91-3.115.035.035 0 0 0-.018.068c3.007.92 5.895 2.182 8.89 3.137a.049.049 0 0 0 .038-.09m3.041 3.961a56 56 0 0 0-10.43-3.452.018.018 0 0 0-.01.034 96 96 0 0 1 10.423 3.457c.023.009.04-.029.017-.04m3.385 4.305c-3.161-1.573-6.443-2.916-9.744-4.166-.017-.006-.023.02-.007.027 3.273 1.323 6.492 2.767 9.725 4.183.03.012.056-.03.026-.044m-.335 3.069a18.9 18.9 0 0 0-4.794-2.69c-.021-.007-.03.026-.01.035a23.5 23.5 0 0 1 4.783 2.683c.016.012.037-.015.021-.028m1.54 3.894a8.7 8.7 0 0 0-2.079-1.146c-.045-.018-.077.059-.033.078a18 18 0 0 1 2.09 1.105c.024.015.043-.02.022-.037m-47.302 38.975a41 41 0 0 0-4.348-3.64c-.01-.007-.023.006-.014.015a41 41 0 0 0 4.31 3.693c.04.028.085-.033.052-.068m1.618-.536-1.252-1.288-2.468-2.54c-.025-.025-.063.014-.039.04l2.448 2.56 1.206 1.262a11 11 0 0 0 1.198 1.211c.023.018.056-.016.04-.04a11 11 0 0 0-1.133-1.205m2.561-.135-1.19-1.306-2.348-2.576c-.022-.025-.058.011-.036.036l2.297 2.554 1.115 1.24a13 13 0 0 0 1.202 1.295c.016.013.044-.004.03-.024a12 12 0 0 0-1.07-1.218m1.84-1.265q-1.19-1.28-2.283-2.643c-.017-.022-.047.009-.03.03.718.918 1.468 1.81 2.258 2.668a28 28 0 0 0 2.488 2.453c.017.014.04-.009.025-.025-.82-.828-1.663-1.63-2.458-2.483m3.608.65-1.614-1.452c-.011-.01-.028.006-.017.016l1.581 1.485c.526.494 1.043 1.008 1.609 1.457.017.013.04-.008.025-.025-.494-.526-1.05-.999-1.585-1.481m-5.233 14.759a9 9 0 0 0-.901-.528 25 25 0 0 0-.923-.49c-.63-.314-1.279-.57-1.926-.843-.056-.024-.106.052-.05.084.617.353 1.22.718 1.86 1.031.314.154.634.296.954.438a9 9 0 0 0 .951.39c.052.016.074-.055.035-.082m2.362-.302a11.5 11.5 0 0 0-1.913-1.098c-.662-.325-1.334-.631-2-.947-.054-.026-.1.05-.047.08.649.372 1.293.753 1.948 1.114a11.3 11.3 0 0 0 1.979.93c.05.016.069-.051.033-.079"/><path fill="none" d="m126.254 63.6-6.11 5.51"/><path fill="currentColor" d="M165.06 64.13a102.9 102.9 0 0 1-29.95-5.864l7.328-4.859-30.979-5.983 5.57 22.83 11.08-7.346a127.7 127.7 0 0 0 36.637 7.144c23.496 1.248 44.62-3.359 57.92-11.475l-9.764-4.724c-9.672 7.137-27.6 11.352-47.842 10.278m70.26-40.027C225.974 10.104 199.476 0 168.224 0c-31.95 0-58.95 10.56-67.72 25.05l15.99 6.96c6.86-10.22 27.42-17.64 51.73-17.64 21.445 0 39.967 5.769 48.742 14.147l-14.528 3.493 29.671 14.12 18.499-25.702Z"/></svg>