<svg xmlns="http://www.w3.org/2000/svg" data-name="go to top" viewBox="0 0 243.868 452.937"><path fill="none" d="M154.505 139.03a.004.004 0 0 0 0-.007"/><path fill="currentColor" d="M242.958 249.347c-1.192-3.791-3.262-7.22-4.82-10.858-1.708-3.994-2.953-8.18-4.298-12.304l-4.18-12.81c-1.388-4.23-2.753-8.466-4.183-12.68-1.428-4.213-2.762-8.513-4.506-12.607a98 98 0 0 1-.368-.877c-.415-4.176-.99-8.386-2.877-12.18a15.6 15.6 0 0 0-3.739-4.925 21.4 21.4 0 0 0-6.032-3.331q-3.922-1.587-7.854-3.148a.86.86 0 0 0 .14-.71 58 58 0 0 0-.947-3.775c-.027-.096-.065-.188-.094-.283.01-.666.001-1.328-.007-1.994q-.023-2.025-.069-4.047c-.06-2.76-.055-5.518-.007-8.277.096-5.514.203-11.021.123-16.536-.158-11.048-.706-22.08-1.21-33.116l-1.514-33.196-.76-16.677c-.222-4.85-.419-9.708-1.02-14.53-1.122-8.983-3.76-18.431-10.497-24.888A19.2 19.2 0 0 0 173.004.071a14.7 14.7 0 0 0-11 3.36c-3.595 3.144-4.549 8.258-5.446 12.72a108.5 108.5 0 0 0-1.88 15.443c-.582 10.596.017 21.206.235 31.803.11 5.307.127 10.62-.144 15.922-.273 5.356-1.055 10.65-1.522 15.987a102 102 0 0 0 .316 16.281c.4 5.544.22 11.083.178 16.634q-.03 3.959.008 7.917a21.9 21.9 0 0 0-6.738-2.926 13 13 0 0 0-1.53-.246 51 51 0 0 0-6.612-6.744 57.5 57.5 0 0 0-9.54-6.547 17.3 17.3 0 0 0-5.519-2.059 11.4 11.4 0 0 0-5.797.665 42 42 0 0 0-9.42 5.198 29.7 29.7 0 0 0-7.314 7.158 19.5 19.5 0 0 0-2.275 4.44 8.5 8.5 0 0 0-.406 5.663c.318.986.728 1.935 1.002 2.937.282 1.031.499 2.08.683 3.132.371 2.119.646 4.255.954 6.384l.338 2.337a21 21 0 0 0-1.869-1.59q-1.681-1.309-3.404-2.562a46 46 0 0 0-6.713-4.148 19.2 19.2 0 0 0-7.54-2.081 17.2 17.2 0 0 0-7.63 1.574 44.6 44.6 0 0 0-6.858 3.949c-2.351 1.56-4.7 3.136-6.94 4.852-1.103.846-2.223 1.695-3.252 2.63a5.16 5.16 0 0 0-1.646 3.502 70 70 0 0 0-.483 8.419 73 73 0 0 0 .61 9.389 29 29 0 0 0 .911 4.561c.234.77.49 1.54.754 2.306a32.6 32.6 0 0 0-3.525-3.682 34 34 0 0 0-6.253-4.438c-2.489-1.357-5.325-2.617-8.227-2.375a13.5 13.5 0 0 0-4.315 1.253c-1.473.649-2.926 1.346-4.387 2.021-2.567 1.187-5.178 2.313-7.66 3.675a21.6 21.6 0 0 0-5.985 4.582 18.04 18.04 0 0 0-3.533 7.337 709 709 0 0 0-2.223 8.222c-.137.337-.261.68-.395 1.021a58 58 0 0 1-.973 2.291c-.623 1.405-1.324 2.774-2.014 4.147a50 50 0 0 0-3.667 8.83c-.901 3.192-1.404 6.479-2.03 9.731-.32 1.666-.672 3.328-1.11 4.968A38 38 0 0 0 .11 238.65a14.3 14.3 0 0 0 .383 5.425 13.3 13.3 0 0 0 .92 2.546c-1.3 2.528-1.265 5.516-1.168 8.294.111 3.181.332 6.36.587 9.532.514 6.371 1.157 12.737 1.452 19.123.148 3.186.206 6.377.115 9.566-.09 3.211-.402 6.409-.545 9.617a41.2 41.2 0 0 0 .54 9.515 61 61 0 0 0 2.571 8.905c1.192 3.388 2.36 6.805 3.778 10.107a630 630 0 0 0 3.686 8.383c.324 1.37.681 2.732 1.097 4.077a44.7 44.7 0 0 0 3.663 8.576c1.594 2.856 3.515 5.509 5.294 8.248 6.854 10.552 10.772 22.585 15.909 33.988.638 1.416 1.189 3.108 2.445 4.106a11.4 11.4 0 0 0 2.255 1.246q.027.014.056.025a23 23 0 0 0 .336 2.669c.252 1.792.52 3.582.774 5.375q.767 5.426 1.366 10.874c.398 3.601.78 7.203 1.175 10.804.396 3.6.76 7.216 1.01 10.83l.849 12.327a.133.133 0 0 0 .266 0c.226-6.984.034-13.965-.309-20.944-.173-3.533-.38-7.046-.749-10.564q-.539-5.153-1.224-10.289-.392-2.943-.828-5.88-.218-1.462-.473-2.918a54 54 0 0 0-.25-1.33l-.018-.092c.186.08.366.17.554.248a22.5 22.5 0 0 0 10.324 1.746.176.176 0 0 0 0-.351c-3.2-.24-6.08-1.557-8.954-2.877-1.4-.643-2.814-1.277-4.18-1.987a3.1 3.1 0 0 1-1.33-1.134 19 19 0 0 1-1.012-2.065c-2.56-5.599-4.79-11.34-7.198-17.004a120 120 0 0 0-8.109-16.251c-1.67-2.705-3.546-5.277-5.213-7.985a50.4 50.4 0 0 1-4.037-8.215 90 90 0 0 1-3.11-9.754q-.653-2.485-1.21-4.994c-.373-1.664-.929-3.29-1.25-4.963-.026-.135-.225-.076-.204.056.247 1.555.307 3.143.499 4.708a62 62 0 0 0 .47 3.052c-.132-.415-.257-.833-.392-1.247a346 346 0 0 0-3.038-8.844c-1.031-2.89-2.08-5.781-2.837-8.757a35.5 35.5 0 0 1-1.072-9.2c.034-3.133.341-6.254.505-9.381.166-3.187.172-6.38.071-9.57-.197-6.269-.797-12.513-1.378-18.755-.327-3.513-.653-7.027-.89-10.547a38.3 38.3 0 0 1 .164-8.664c.242.367.49.73.73 1.098a.243.243 0 0 0 .442-.187c-.334-1.579-.659-3.131-1.069-4.693a14.5 14.5 0 0 1-.591-4.706 24.5 24.5 0 0 1 1.025-4.743 62 62 0 0 0 1.083-4.737c.61-3.183 1.088-6.39 1.856-9.541a51.3 51.3 0 0 1 3.285-8.952q.356-.793.706-1.585c-.45 2.117-.885 4.238-1.378 6.345a.16.16 0 0 0 .308.085c.959-3.018 2.004-6.01 2.994-9.017.99-3.005 1.804-6.065 2.653-9.112.763-2.735 1.33-5.705 2.85-8.144a15.5 15.5 0 0 1 5.086-4.789 59 59 0 0 1 6.573-3.373l4.264-1.96c1.349-.62 2.686-1.303 4.082-1.811a8.5 8.5 0 0 1 4.115-.537 13.8 13.8 0 0 1 4.032 1.316 33 33 0 0 1 6.182 3.833 36.2 36.2 0 0 1 5.83 5.783c1.536 1.918 2.749 4.06 4.158 6.056q.454 1.84.927 3.674c.792 3.06 1.602 6.118 2.51 9.146.931 3.102 1.865 6.203 2.67 9.34 1.6 6.241 2.331 12.732 4.694 18.759 1.209 3.084 2.687 6.054 3.905 9.135 1.216 3.078 2.264 6.219 3.33 9.35 2.097 6.163 4.096 12.425 6.731 18.391.397 3.915 1.208 7.905.248 11.791a11 11 0 0 1-2.277 4.613 9.5 9.5 0 0 1-4.814 2.849 17.3 17.3 0 0 1-11.083-.88 20.7 20.7 0 0 1-8.654-7.555c-2.605-3.706-4.952-7.609-7.398-11.42l-7.693-11.993c-2.516-3.921-5.06-7.825-7.542-11.768a63 63 0 0 1-3.332-5.835 66 66 0 0 1-2.57-6.21c-1.6-4.341-3.072-8.73-4.575-13.105q-2.303-6.703-4.69-13.371c-.393-1.094-.779-2.188-1.186-3.276a.094.094 0 0 0-.18.05c1.728 7.134 3.809 14.184 5.985 21.2-.741-.752-1.475-1.508-2.154-2.327a41 41 0 0 1-2.826-3.898 35.6 35.6 0 0 1-4.086-8.664.023.023 0 0 0-.046.012 35.8 35.8 0 0 0 3.484 9.03 31.5 31.5 0 0 0 2.686 4.018 26.7 26.7 0 0 0 3.293 3.666.64.64 0 0 0 .265.133q.783 2.503 1.573 5.003a66 66 0 0 0 3.578 9.15l-.032.007c-.538.087-1.078.17-1.616.258a49 49 0 0 1-10.31.558 59 59 0 0 1-5.936-.599c-2.024-.307-4.046-.502-6.04-.99a.031.031 0 0 0-.016.06c1.703.558 3.405 1.163 5.147 1.59a40 40 0 0 0 4.977.81c1.33.151 2.673.253 4.019.324.704.206 1.442.336 2.139.547a17 17 0 0 0 1.81.552 4.7 4.7 0 0 0 1.909-.029 7.65 7.65 0 0 1 3.937-.04 8.5 8.5 0 0 1 1.98.907l-.204.073c-.595.202-1.18.436-1.777.634-1.115.369-2.261.65-3.4.937a44.6 44.6 0 0 1-7.34 1.348c-.08.007-.081.129 0 .125a61 61 0 0 0 7.453-.624c1.241-.207 2.457-.513 3.681-.8.614-.144 1.22-.282 1.822-.471.201-.063.403-.123.59-.2 2.248 3.655 4.625 7.237 6.941 10.848l1.922 2.993c-.043 1.303-.004 2.614 0 3.916a44 44 0 0 0 .202 4.689c.012.114.184.159.214.03a17 17 0 0 0 .37-4.719 24 24 0 0 0-.365-3.259l5.623 8.761c2.105 3.279 4.155 6.606 6.312 9.856-.056 2.453-.02 4.914.002 7.365 0 .098.155.126.176.024a24 24 0 0 0 .427-6.489c.282.418.557.841.843 1.256 2.369 3.427 5.182 6.524 9 8.34a19.76 19.76 0 0 0 11.674 1.682 12.86 12.86 0 0 0 5.75-2.322 11.26 11.26 0 0 0 3.425-4.436 15 15 0 0 0 1.212-4.838 19.5 19.5 0 0 0 1.956 4.167c-.255 4.211-.388 8.43-.548 12.645-.165 4.318-.487 8.666-.428 12.989a55 55 0 0 0-1.335 3.81c-2.943 9.67-3.412 19.967-2.731 30 .404 5.963 1.342 11.872 2.325 17.763.021.129.244.1.23-.031-1.135-10.376-2.465-20.897-1.685-31.347a62 62 0 0 1 2.837-14.265A68.6 68.6 0 0 1 94.6 305.74a72 72 0 0 1 4.083-6.488 80 80 0 0 1 2.241-3.021c.383-.494.78-.976 1.17-1.462a6 6 0 0 0 .651-.987 28.7 28.7 0 0 0 14.438-.586 20.8 20.8 0 0 0 7.18-3.873 16.34 16.34 0 0 0 4.76-7.163 33.14 33.14 0 0 0 1.302-16.064c.022-.026.05-.051.069-.075q.154-.204.303-.41c.192-.267.37-.498.582-.753q.316-.379.657-.735.175-.184.357-.361a1.8 1.8 0 0 0 .406-.442.6.6 0 0 0 .036-.12 26 26 0 0 0 11.776.631 27.1 27.1 0 0 0 14.38-6.794 26.67 26.67 0 0 0 6.838-11.724c.142.1.282.204.427.301.017.012.031-.015.016-.027-.142-.105-.289-.204-.433-.306.038-.129.083-.256.12-.385a30 30 0 0 0 .492-2.066c.238.21.467.431.717.63l.675.537q.156.128.322.242a3 3 0 0 0 .382.244c.037.016.096-.022.065-.064a3.5 3.5 0 0 0-.62-.571l-.696-.554c-.263-.209-.543-.393-.816-.586q.227-1.137.375-2.278l.385.286q.56.424 1.11.864.514.415 1.023.835.309.257.627.494c-.06.065-.126.124-.185.191a16.3 16.3 0 0 0-2.799 4.586c-1.609 3.918-1.798 8.192-1.992 12.368-.003.069.112.087.123.017.638-3.92 1.283-7.977 2.987-11.6a18.4 18.4 0 0 1 2.688-4.229 14 14 0 0 1 1.779-1.73c.302-.242.728-.48 1.082-.767.075.31.141.621.225.93.309 1.136.704 2.236 1.113 3.338a8.2 8.2 0 0 1 .442 1.66 9.5 9.5 0 0 0-.954 1.901 22.4 22.4 0 0 0-1.138 3.306 29.4 29.4 0 0 0-.945 6.972c-.08 5.146.978 10.305 2.103 15.3.026.114.217.091.207-.028a104 104 0 0 1-.634-14.942 38 38 0 0 1 .916-6.62c.106-.443.23-.88.358-1.317a19 19 0 0 0 .717 4.609 64 64 0 0 0 2.537 6.725c.885 2.164 1.83 4.312 2.82 6.43a50.7 50.7 0 0 0 8.18 12.994c.088.097.26-.032.184-.142a70.7 70.7 0 0 1-6.591-11.732 118 118 0 0 1-4.631-12.764 21.8 21.8 0 0 1-1.319-6.943 27 27 0 0 0 .238-3.69 14.4 14.4 0 0 0-.968-3.277c-1.6-4.43-2.007-9.15-2.28-13.816-.137-2.353-.06-4.991-1.4-7.033a20.5 20.5 0 0 0-2.43-2.784 3.56 3.56 0 0 1-1.155-2.751 10.6 10.6 0 0 0 4.995-.226 23.5 23.5 0 0 0 5.517-2.13 22 22 0 0 0 2.559-1.532 20 20 0 0 0 2.188-1.964.043.043 0 0 0-.052-.068c-.757.459-1.57.828-2.365 1.219-.822.404-1.62.846-2.47 1.195a29 29 0 0 1-4.987 1.488 10.96 10.96 0 0 1-5.327.176 5 5 0 0 1-.438-.16c-.666-.54-1.268-1.185-1.854-1.764-1.09-1.08-2.035-2.297-3.072-3.427a75 75 0 0 0-6.826-6.433c-4.826-4.085-9.957-7.832-14.435-12.314a42.7 42.7 0 0 1-5.84-7.119 47.2 47.2 0 0 1-4.634-9.865 124 124 0 0 1-3.188-10.573 31.3 31.3 0 0 1-1.043-10.951 25.7 25.7 0 0 1 3.307-9.986 32 32 0 0 1 3.095-4.447 31 31 0 0 1 1.236-1.389 14.8 14.8 0 0 1 3.212-2.082 11.24 11.24 0 0 1 5.968-.923c.083.009.163.028.246.041a14.8 14.8 0 0 0-2.54 2.032 29.5 29.5 0 0 0-4.512 5.241 22 22 0 0 0-1.674 2.927c-.453 1.009-1.131 2.367-.85 3.493a9.7 9.7 0 0 0 1.668 2.926c.617.88 1.235 1.763 1.897 2.61a39 39 0 0 0 4.426 4.603 31.8 31.8 0 0 0 5.164 3.855c.944.564 1.904 1.093 2.846 1.66a7.96 7.96 0 0 0 3.346 1.258 5.38 5.38 0 0 0 3.205-1.361c.958-.737 1.875-1.531 2.813-2.294a37.8 37.8 0 0 0 5.942-5.715 22 22 0 0 0 2.055-3.154 11 11 0 0 0 1.212-2.956 37 37 0 0 0 3.21 1.487c2.04.823 4.338 1.178 6.208 2.374a28 28 0 0 1 4.302 4.064 16.8 16.8 0 0 0 5.514 3.54c4.696 1.966 9.458 3.788 14.186 5.678 4.084 1.632 8.578 2.96 11.229 6.728 2.57 3.651 3.348 8.135 3.81 12.483.265 2.487.56 4.953.971 7.422a75 75 0 0 0 1.747 7.318c.331 1.215.644 2.43 1.03 3.63a.156.156 0 0 0 .302-.083c-.441-2.608-.887-5.199-1.131-7.835-.132-1.427-.25-2.855-.37-4.283q.792 2.748 1.629 5.483c1.295 4.212 2.652 8.405 4.002 12.6q2.007 6.235 4.03 12.464c1.333 4.112 2.601 8.254 4.065 12.323a68 68 0 0 0 2.377 5.81c.828 1.767 1.73 3.5 2.534 5.278a26 26 0 0 1 1.858 5.425 21.5 21.5 0 0 1 .178 6.144 212 212 0 0 1-3.738 25.475c-.38 1.833-.727 3.732-2.07 5.133a50 50 0 0 1-4.743 3.972c-1.704 1.385-3.433 2.762-5.044 4.255q-2.411 2.236-4.77 4.527c-.772.748-1.6 1.44-2.394 2.167-.148.136.05.403.218.282 2.318-1.665 4.668-3.282 6.986-4.945q-.86 1.09-1.708 2.19a437 437 0 0 0-6.353 8.485c-1.988 2.711-3.937 5.453-5.686 8.327-1.493 2.454-2.861 4.982-4.237 7.503-2.709 4.962-5.46 10.005-9.275 14.222a33 33 0 0 1-3.104 3.02 14.1 14.1 0 0 0-3.155 3.119 17 17 0 0 0-1.513 4.362 27.5 27.5 0 0 1-1.504 4.001 54.4 54.4 0 0 1-5.135 8.48 118 118 0 0 1-6.377 8.13c-.156.182.09.438.265.266 3.698-3.656 7.599-7.223 10.508-11.548-.011.448-.018.896-.039 1.344-.07 1.517-.128 3.032-.274 4.545-.302 3.126-.865 6.22-1.387 9.314a108 108 0 0 0-1.593 18.6c.074 12.494 2.108 24.862 3.773 37.214.47 3.491.912 6.988 1.275 10.492a53 53 0 0 0 .607 5.257c.351 1.692.63 3.397.962 5.092.05.26.406.17.43-.058.161-1.592.233-3.19.302-4.788a32 32 0 0 0-.22-4.546 304 304 0 0 0-1.09-9.324c-.81-6.21-1.742-12.403-2.51-18.618-1.527-12.343-2.298-24.782-.3-37.118.57-3.515 1.235-7.017 1.618-10.56a35 35 0 0 0 .269-5.263 24 24 0 0 0-.256-2.478 7 7 0 0 0-.277-1.194 36 36 0 0 0 3.29-8.331 6.92 6.92 0 0 1 2.114-3.652c1.115-.992 2.294-1.892 3.36-2.943 4.064-4.012 7.033-8.965 9.78-13.929 1.392-2.518 2.74-5.06 4.176-7.554 1.6-2.779 3.355-5.455 5.219-8.065 2.27-3.18 4.639-6.288 6.9-9.474 1.146-1.614 2.302-3.224 3.389-4.879.55-.837 1.111-1.671 1.64-2.524 1.764-1.374 3.487-2.802 5.223-4.212a11.1 11.1 0 0 0 3.713-4.402 32 32 0 0 0 1.406-5.887q.633-3.24 1.17-6.497 1.073-6.524 1.765-13.104c.227-2.164.491-4.346.51-6.525a19.5 19.5 0 0 0-.908-6.021m-148.063 52.25a53 53 0 0 0-1.036 1.763c-.33.598-.639 1.21-.955 1.818.028-.425.059-.85.068-1.276q.038-1.756 0-3.514a.027.027 0 0 0-.055 0 54 54 0 0 1-.125 3.447c-.04.562-.067 1.125-.109 1.687l-.007.09a69 69 0 0 0-2.826 6.264c.356-4.213.37-8.474.524-12.696.154-4.186.335-8.373.397-12.56.233.36.473.715.742 1.057a12 12 0 0 0 1.519 1.6c-.08 2.554-.126 5.108-.122 7.664a.023.023 0 0 0 .046 0c.101-2.527.152-5.055.171-7.583a16 16 0 0 0 1.692 1.277c.012.508.038 1.015.037 1.494q-.004 1.929.046 3.858a112 112 0 0 1 .052 3.734c-.004.623-.034 1.25-.059 1.876m.249-.423c-.005-.444-.01-.888-.003-1.328.019-1.287.062-2.572.096-3.859q.05-1.865.01-3.734c-.009-.424-.001-.875 0-1.329q.685.42 1.406.78c-.035 1.041-.016 2.09-.017 3.113 0 1.32-.015 2.646.048 3.966q-.795 1.18-1.54 2.39m3.115-6.46c-.023.632-.028 1.264-.041 1.896-.22.298-.457.583-.673.885-.155.218-.294.448-.446.668.086-1.08.121-2.165.14-3.244.016-.958.037-1.947.003-2.93q.537.25 1.086.47c-.03.751-.042 1.504-.07 2.255m1.654-.89-.074.67-.173.21c-.372.459-.714.94-1.07 1.41.043-.466.08-.932.09-1.4.015-.705.014-1.419-.035-2.126.443.168.901.306 1.356.452q-.049.392-.094.784m28.223-14.793a16.4 16.4 0 0 1-3.769 7.68 17.25 17.25 0 0 1-6.18 4.059 27.03 27.03 0 0 1-17.242.512 20 20 0 0 1-3.928-1.595l-.001-.01-.008.002a.103.103 0 0 0-.122-.067 13.5 13.5 0 0 1-2.904-2.13c-2.093-2.052-3.122-4.832-4.036-7.554a91 91 0 0 1-2.928-10.336 218 218 0 0 1-1.043-5.394c-.328-1.8-.859-3.546-1.21-5.338-.008-.043-.081-.034-.076.01.186 1.689.183 3.387.42 5.073.061.444.137.885.202 1.328-.995-3.18-2.088-6.332-3.157-9.478-1.084-3.189-2.138-6.39-3.309-9.55-1.134-3.059-2.486-6.016-3.783-9.008a52.7 52.7 0 0 1-3.011-9.178c-.727-3.154-1.278-6.344-2.02-9.495-1.452-6.168-3.404-12.178-5.442-18.171a129.7 129.7 0 0 1-5.41-20.68c-.016-.09-.166-.069-.162.023a60 60 0 0 0 1.172 9.43c.097.47.214.936.317 1.405-.432-.737-.9-1.45-1.374-2.13-.235-.335-.486-.659-.732-.986-.41-2.293-.642-4.607-.956-6.92a74 74 0 0 1-.7-7.987 60 60 0 0 1 .378-8.11 14.6 14.6 0 0 1 .677-3.763c.437-1.088 1.716-1.848 2.605-2.54 2.1-1.634 4.282-3.164 6.488-4.65a74 74 0 0 1 6.55-4.108 17.7 17.7 0 0 1 7.002-2.242 16.8 16.8 0 0 1 7.03 1.227 36 36 0 0 1 7.222 3.97q1.912 1.276 3.77 2.632a20.6 20.6 0 0 0 3.34 2.17l1.336 9.243 1.905 13.182c.63 4.353 1.284 8.666 2.29 12.949q.156.663.308 1.328a33 33 0 0 0 .075 4.493c.555 5.958 2.72 11.656 4.37 17.366q2.517 8.708 4.43 17.576.943 4.372 1.736 8.774a82 82 0 0 0 1.67 8.603 18.37 18.37 0 0 0 7.71 10.158v.005a10.2 10.2 0 0 0 .361 2.192q.302 1.161.517 2.343a34 34 0 0 1 .508 4.64 32.2 32.2 0 0 1-.886 9.047m42.06-36.325a9 9 0 0 0-.559-.497c-.35-.289-.71-.566-1.073-.84q-.543-.409-1.097-.804c-.187-.133-.376-.273-.572-.404q.102-.835.165-1.672.094.085.189.168c.219.187.453.355.68.532.47.365.951.716 1.422 1.082.457.355.905.721 1.355 1.086q.251.203.51.398-.533.452-1.02.951m1.58-1.419c-.047.036-.09.078-.137.115a11 11 0 0 0-.52-.458c-.466-.383-.947-.75-1.429-1.113a29 29 0 0 0-1.449-1.047c-.24-.159-.48-.324-.731-.464-.118-.066-.234-.133-.357-.187q-.033-.013-.068-.023c.042-.661.072-1.322.078-1.983.922.779 1.901 1.49 2.842 2.245q.92.74 1.834 1.487c.299.244.595.516.904.77a8 8 0 0 0-.967.658m1.603-.919a2 2 0 0 0-.233.08c-.32-.317-.672-.61-.998-.898q-.91-.806-1.861-1.557a28 28 0 0 0-3.12-2.231q.001-1.424-.094-2.847c1.05.878 2.121 1.73 3.151 2.63.644.564 1.289 1.126 1.92 1.704.293.269.578.554.864.836.109.763.22 1.526.371 2.283m-.48-3.008-.457-.409a52 52 0 0 0-1.992-1.734 43 43 0 0 0-3.399-2.583 47 47 0 0 0-.31-2.993c1.04.849 2.081 1.695 3.107 2.561q.862.728 1.71 1.474.446.396.888.799.078.072.157.15.122 1.37.295 2.735m-.544-5.948-.009-.007c-.306-.265-.634-.507-.954-.757a.023.023 0 0 0-.033.033c.27.3.533.608.818.893l.202.203q.085 1.25.192 2.499-.4-.36-.803-.717a74 74 0 0 0-1.817-1.554q-1.565-1.292-3.223-2.459a53 53 0 0 0-.492-2.957 7 7 0 0 0 .76.593q.498.347.976.719c.607.473 1.198.98 1.829 1.422.05.036.095-.038.061-.08a9.7 9.7 0 0 0-1.738-1.595q-.472-.354-.961-.684a4 4 0 0 0-.954-.508q-.251-1.247-.554-2.485c.367.251.736.498 1.099.756q1.01.717 1.99 1.475.93.722 1.823 1.492c.542.467 1.055.985 1.636 1.407q.077 1.155.152 2.311m-.224-3.292c-.322-.31-.666-.6-1.004-.888q-.93-.796-1.902-1.54a36 36 0 0 0-1.968-1.416 20 20 0 0 0-1.802-1.11q-.205-.794-.427-1.584l.062.046q.58.445 1.158.893 1.137.884 2.269 1.776 1.1.865 2.19 1.745c.347.28.688.568 1.046.834l.25.189c.051.349.099.699.128 1.055m-1.881-4.407c.391.335.774.68 1.17 1.01a4 4 0 0 1 .165.4c.076.247.119.495.179.742-.182-.15-.36-.304-.542-.453q-1.118-.91-2.247-1.804-1.075-.851-2.167-1.678-.558-.423-1.118-.842a9 9 0 0 0-1.008-.703q-.212-.708-.435-1.412.457.35.921.69 1.34.984 2.644 2.019a86 86 0 0 1 2.438 2.03m-2.06-3.464a6 6 0 0 0 .68 1.197c-.278-.222-.556-.446-.837-.663a37 37 0 0 0-2.765-1.968 15 15 0 0 0-1.314-.753q-.265-.8-.542-1.593c.733.585 1.494 1.143 2.216 1.725.595.479 1.198.947 1.792 1.427zm-3.206-4.16q.925.832 1.863 1.648l.97.84c.032.027.066.061.1.092a3 3 0 0 0 .002.51l-.084-.068c-.6-.482-1.198-.966-1.813-1.428-.95-.715-1.91-1.487-2.93-2.127q-.35-.971-.716-1.93a67 67 0 0 0 2.608 2.464m-29.907-79.775c-3.406 2.818-5.62 6.974-7.172 11.047-.048.127-.083.251-.128.377a24 24 0 0 0-.963 2.863c-1.968 7.437.316 15.086 2.557 22.196a63 63 0 0 0 4.165 10.413 40.6 40.6 0 0 0 5.706 8.124c-.933.09-1.893.085-2.82.156-.968.075-1.92.186-2.878.345a103 103 0 0 1-3.029.461 12 12 0 0 1-1.847.154c-.507-.01-1.012-.15-1.514-.122-.504.029-.895.407-1.354.586a12 12 0 0 1-1.602.412c-.996.24-1.99.493-2.975.777-2.047.593-4.06 1.306-6.053 2.06-.056.02-.033.11.024.09 2.015-.692 4.063-1.268 6.129-1.788.995-.25 1.99-.493 2.994-.71a9 9 0 0 1 1.56-.278 5 5 0 0 0 1.552.02c.49-.173.911-.48 1.41-.65a8.7 8.7 0 0 1 1.49-.346 28 28 0 0 1 3.263-.308c1.023-.038 2.044-.093 3.066-.14a22 22 0 0 1 3.203-.042c4.291 4.634 9.368 8.445 14.228 12.449q2.337 1.926 4.577 3.967c.1.299.207.595.333.879l.017.035a.66.66 0 0 0 .013.425c3.63 10 7.767 20.363 5.984 31.214a27.35 27.35 0 0 1-5.118 12.382 23.3 23.3 0 0 1-12.113 7.852 24.5 24.5 0 0 1-15.828-.36 17.2 17.2 0 0 1-9.434-8.79 33.3 33.3 0 0 1-1.899-7.928q-.726-4.29-1.595-8.554-1.738-8.528-4.047-16.925c-1.526-5.547-3.418-10.998-4.734-16.602a48.4 48.4 0 0 1-1.275-8.614 70 70 0 0 1 .394-8.848c.114-1.468.217-2.936.325-4.405a.094.094 0 0 0-.184-.025 77 77 0 0 0-1.516 9.098l-.004.05a105 105 0 0 0-.695-6.273l-1.83-12.69-1.829-12.691c-.593-4.116-1.043-8.286-1.858-12.365q-.303-1.515-.749-2.992c-.281-.932-.675-1.836-.873-2.792-.343-1.66.424-3.512 1.129-4.994a23.1 23.1 0 0 1 5.93-7.471 43.4 43.4 0 0 1 8.24-5.405 19.5 19.5 0 0 1 5.087-2.042 9.8 9.8 0 0 1 5.51.677 31 31 0 0 1 4.934 2.627 73 73 0 0 1 4.639 3.132 58 58 0 0 1 2.346 1.827c.45 1.979.924 3.96 1.496 5.91a15.1 15.1 0 0 0-4.385 2.545m4.517-2.593c-.443-1.95-.983-3.88-1.544-5.796q1.594 1.296 3.125 2.664c.103.328.205.655.29.989.13.51.237 1.025.335 1.542a14 14 0 0 0-2.206.6m2.402-.635a9.6 9.6 0 0 0-.467-2.183q1.092.99 2.166 2.002a13 13 0 0 0-1.699.181m26.173 19.105a12 12 0 0 1-1.453 2.781 20.9 20.9 0 0 1-4.786 4.744 56 56 0 0 1-5.594 3.494 4.75 4.75 0 0 1-3.148.748 12.2 12.2 0 0 1-3.067-1.067 27.23 27.23 0 0 1-12.173-12.569 7.8 7.8 0 0 1-.966-2.906 7.2 7.2 0 0 1 1.027-3.059 20.9 20.9 0 0 1 4.603-5.347 28 28 0 0 1 2.587-2.274 7 7 0 0 1 1.493-.907 5.8 5.8 0 0 1 1.319-.305 31.2 31.2 0 0 1 8.463 4.904c3.582 2.699 7.019 5.588 10.835 7.96q.742.462 1.502.892c-.235.977-.311 1.948-.642 2.911m25.093 8.71a29.6 29.6 0 0 1-6.523-3.048c-1.661-1.202-2.904-2.894-4.4-4.278a11.8 11.8 0 0 0-2.544-1.858 20 20 0 0 0-3.325-1.244 32.7 32.7 0 0 1-6.305-2.695 90.5 90.5 0 0 1-11.305-7.99c-1.385-1.077-2.816-2.16-4.31-3.143a.53.53 0 0 0 .277-.438c.405-5.407.76-10.824.847-16.247.087-5.344-.406-10.619-.654-15.949A100 100 0 0 1 156.012 88a153 153 0 0 0 .93-15.492c.118-10.427-.548-20.844-.54-31.27.007-10.144.521-20.634 3.467-30.408a12.7 12.7 0 0 1 3.123-5.634 11.4 11.4 0 0 1 4.813-2.699 14.46 14.46 0 0 1 11.426 1.714c7.77 4.64 11.378 13.881 12.936 22.377a108 108 0 0 1 1.41 13.972c.268 5.243.485 10.49.724 15.734l1.486 32.56c.496 10.885 1.054 21.77 1.432 32.66q.28 8.07.19 16.152c-.066 5.258-.291 10.527-.043 15.784a16 16 0 0 0-.574-1.468 34 34 0 0 0-1.867-3.492.027.027 0 0 0-.05.02c.274 1.228.593 2.434.888 3.655.303 1.256.768 2.48 1.112 3.728.337 1.22.533 2.461.818 3.691.261 1.124.501 2.25.74 3.379z"/><path fill="currentColor" d="M84.285 276.42c-.58-1.567-1.188-3.153-1.862-4.682-1.234-2.803-3.19-5.86-6.568-5.976a12.3 12.3 0 0 0-4.926 1.12 28 28 0 0 0-4.69 2.358 8.9 8.9 0 0 0-3.235 3.292 7.73 7.73 0 0 0-.636 4.548 19.9 19.9 0 0 0 1.757 5.402c.425.96.847 1.925 1.324 2.861.518 1.018 1.121 1.989 1.65 3.001a.035.035 0 0 0 .064-.027c-.548-1.627-.993-3.274-1.627-4.873a40 40 0 0 1-1.661-4.521 8.7 8.7 0 0 1-.11-4.507 6.3 6.3 0 0 1 2.435-3.445 22 22 0 0 1 3.976-2.246 18.7 18.7 0 0 1 4.546-1.617 4.92 4.92 0 0 1 4.243 1.098 15 15 0 0 1 2.573 3.526c.432.705.913 1.384 1.31 2.111a23 23 0 0 1 1.18 2.648 52 52 0 0 1 1.581 5.19.133.133 0 0 0 .257-.071 33 33 0 0 0-1.58-5.19"/><path fill="currentColor" d="M85.285 282.716c-1.32-.517-2.885-.089-4.21.213a21 21 0 0 0-4.139 1.435 41 41 0 0 0-3.98 2.014 14 14 0 0 0-3.536 2.62.098.098 0 0 0 .118.154c1.271-.617 2.378-1.539 3.591-2.267a22.3 22.3 0 0 1 3.932-1.954 23 23 0 0 1 3.97-.987c1.393-.223 2.9.025 4.254-.39a.439.439 0 0 0 0-.838m37.057-7.871a.055.055 0 0 0-.1.043 4.6 4.6 0 0 1 .088 1.942c-.05.301-.085.604-.117.908a32.1 32.1 0 0 0-12.078.605 47 47 0 0 0-6.255 1.878 39.3 39.3 0 0 0-5.81 2.92c-.04.024-.014.097.033.078 1.94-.766 3.929-1.44 5.905-2.11a49 49 0 0 1 6.069-1.713 34.5 34.5 0 0 1 12.54-.276.675.675 0 0 0 .835-.637 5.65 5.65 0 0 0-1.11-3.638m-6.208-18.769c-2.593-2.167-6.467-2.097-9.655-1.833a19 19 0 0 0-5.105 1.174 11.7 11.7 0 0 0-4.346 2.408 5.6 5.6 0 0 0-1.184 4.295c.108 1.957.3 3.905.376 5.866.086 2.218.238 4.434.441 6.643.105 1.146.243 2.287.358 3.432a15.2 15.2 0 0 0 .49 3.197.086.086 0 0 0 .17-.023 15 15 0 0 0-.295-2.48c-.15-.963-.271-1.93-.374-2.899a95 95 0 0 1-.425-5.407 51 51 0 0 1-.071-5.42c.05-.87.145-1.726.248-2.59a13 13 0 0 1 .367-2.319c.495-1.59 1.88-2.298 3.3-2.956a21.5 21.5 0 0 1 4.68-1.528 20.4 20.4 0 0 1 4.908-.48 10.1 10.1 0 0 1 4.7 1.039c3.178 1.84 4.284 5.874 4.98 9.21.004.015.025.009.023-.006-.466-3.318-.838-7.026-3.586-9.323m38.434-19.919a79 79 0 0 0-1.695-5.52c-.527-1.533-.989-3.104-1.632-4.593a8.4 8.4 0 0 0-2.618-3.573 8.7 8.7 0 0 0-3.946-1.465 21.3 21.3 0 0 0-4.683-.08 17 17 0 0 0-4.798.972 11 11 0 0 0-2.342 1.21 8.2 8.2 0 0 0-1.697 1.754 6.66 6.66 0 0 0-1.344 4.422c.001.025.042.034.046.006.412-2.88 2.915-5.004 5.482-6.064a20.3 20.3 0 0 1 8.727-1.307 8.5 8.5 0 0 1 3.99 1.15 7.23 7.23 0 0 1 2.676 3.27c1.373 3.017 2.02 6.397 2.855 9.589a89 89 0 0 1 2.228 10.625 35.7 35.7 0 0 0-10.256-.953 37.3 37.3 0 0 0-11.05 2.153 33.4 33.4 0 0 0-5.577 2.773c-.027.016-.004.053.023.04a47 47 0 0 1 6.725-2.23 44 44 0 0 1 6.86-1.272 42 42 0 0 1 6.91-.175 53 53 0 0 1 6.897.988.578.578 0 0 0 .701-.701c-.81-3.681-1.52-7.373-2.482-11.02"/><path fill="currentColor" d="M129.774 249.34c-.02-.444-.07-.889-.104-1.331-.062-.825-.119-1.65-.183-2.475-.065-.831-.23-1.65-.33-2.477-.105-.884-.15-1.78-.194-2.669a.012.012 0 0 0-.023 0c-.067 1.589-.222 3.178-.27 4.765-.022.76.03 1.526.063 2.285a13.5 13.5 0 0 0 .187 2.398.44.44 0 0 0 .305.305l.05.056a.14.14 0 0 0 .215-.028c.092-.13.214-.17.272-.333a1.4 1.4 0 0 0 .012-.496m49.965-93.008a2 2 0 0 0-.311-.342c-.125-.098-.259-.186-.39-.275-.03-.02-.063.025-.038.05a3 3 0 0 1 .294.343c.09.119.2.224.294.341.188.236.355.487.527.734.028.04.103.017.085-.036a2.7 2.7 0 0 0-.461-.815m1.731 3.268-.053-.123a3 3 0 0 0-.11-.22c-.08-.149-.155-.302-.233-.453a.02.02 0 0 0-.036.016c.057.162.118.324.17.489a2 2 0 0 0 .088.24l.049.113a.14.14 0 0 0 .084.087c.023.01.045-.01.053-.03a.14.14 0 0 0-.012-.12m-1.431.483q-.3-.512-.627-1.008a16 16 0 0 0-1.392-1.82c-.038-.043-.113.014-.08.061a46 46 0 0 1 1.275 1.914q.298.473.573.96a5.2 5.2 0 0 0 .616.948c.035.04.096-.003.085-.05a3.6 3.6 0 0 0-.45-1.005m-1.505 1.324c-.114-.22-.236-.436-.355-.653-.118-.217-.23-.439-.354-.653-.133-.229-.29-.446-.435-.668-.02-.03-.08-.011-.064.028.097.232.187.47.292.7.106.232.236.457.354.684s.231.458.354.684a3 3 0 0 0 .417.631.051.051 0 0 0 .085-.05 3 3 0 0 0-.294-.703m-1.576 1.504a6 6 0 0 0-.454-.93.055.055 0 0 0-.094.056 10.4 10.4 0 0 1 .685 1.888c.01.033.064.028.061-.008a3.5 3.5 0 0 0-.198-1.006m-10.932-99.23a15.7 15.7 0 0 0-2.642-2.468c-.998-.7-2.05-1.287-3.091-1.916-.063-.038-.14.056-.08.104.944.748 1.832 1.576 2.753 2.353a27 27 0 0 0 2.961 2.056c.081.052.16-.062.1-.13m3.823-.016c-1.113-.816-2.34-1.506-3.51-2.237q-1.762-1.103-3.495-2.251c-.025-.017-.048.023-.024.04 1.131.805 2.273 1.596 3.431 2.361a30.5 30.5 0 0 0 3.563 2.147.035.035 0 0 0 .035-.06m3.45-.358a9.2 9.2 0 0 0-1.879-1.182q-.998-.55-1.978-1.13c-1.326-.788-2.647-1.58-3.935-2.43-.03-.02-.055.027-.028.047 1.235.929 2.493 1.836 3.801 2.659q.965.606 1.95 1.181a7.4 7.4 0 0 0 2.015.946.055.055 0 0 0 .053-.091m-.153-2.651a11.8 11.8 0 0 0-2.02-1.36q-1.094-.608-2.199-1.197a.035.035 0 0 0-.035.06q1.062.627 2.088 1.307a17.4 17.4 0 0 0 2.119 1.251c.037.018.083-.03.047-.061m4.587 2.304a1.8 1.8 0 0 0-.726-.59 5 5 0 0 0-.8-.342c-.258-.084-.52-.132-.781-.203a4.7 4.7 0 0 1-.86-.317.031.031 0 0 0-.032.054 4.7 4.7 0 0 1 .728.545c.198.178.378.369.585.538a5 5 0 0 0 .714.487 1.86 1.86 0 0 0 .899.304.32.32 0 0 0 .273-.476m3.112-.505c-.221-.447-.891-.634-1.31-.831q-.736-.349-1.473-.696c-1.023-.483-2.074-.89-3.11-1.343-.04-.018-.076.038-.035.06 1 .554 1.97 1.146 2.986 1.67l1.496.773c.405.209.917.587 1.394.493a.087.087 0 0 0 .052-.126m2.553-.568a2 2 0 0 0-.626-.426c-.25-.113-.506-.23-.764-.324-.51-.186-1.032-.316-1.551-.47a.055.055 0 0 0-.042.1c.475.259.934.54 1.423.772.24.114.495.205.742.305a2 2 0 0 0 .77.157.067.067 0 0 0 .048-.114m2.545-.646a1 1 0 0 0-.191-.084q-.093-.023-.186-.04c-.13-.024-.258-.065-.389-.084a3.7 3.7 0 0 1-.778-.203c-.068-.026-.106.078-.048.114a4.5 4.5 0 0 0 .747.376 1.7 1.7 0 0 0 .409.083 1.3 1.3 0 0 0 .21.015.8.8 0 0 0 .21-.049c.052-.017.075-.1.016-.128m2.362-.597a.45.45 0 0 0-.33-.319 1 1 0 0 0-.355-.045 1 1 0 0 0-.203.036l-.06.017a.3.3 0 0 0-.077.035l-.04.014q-.048.017-.094.039c-.01.004-.077.025-.033.017.047-.008-.042.003-.05.004a.16.16 0 0 0-.043.314.3.3 0 0 1 .1.049.6.6 0 0 0 .104.065q.029.018-.02-.018a.4.4 0 0 0 .077.062l.055.028a1 1 0 0 0 .184.08 1 1 0 0 0 .345.032.6.6 0 0 0 .2-.04.4.4 0 0 0 .194-.165l.03-.026a.14.14 0 0 0 .016-.18m-19.598 44.269a65 65 0 0 1-5.23-4.473c-.054-.053-.134.028-.083.083a24 24 0 0 0 5.252 4.47c.048.03.107-.042.061-.08m2.795.149a9.8 9.8 0 0 0-1.571-1.32c-.544-.424-1.09-.844-1.626-1.279a93 93 0 0 1-3.166-2.663c-.041-.037-.1.021-.061.06a50 50 0 0 0 3.105 2.892c.506.428 1.015.854 1.54 1.259a7.7 7.7 0 0 0 1.722 1.149c.06.024.09-.059.057-.098m3.293.045a10.3 10.3 0 0 0-1.438-1.045c-.518-.348-1.048-.676-1.565-1.025a131 131 0 0 1-3.065-2.127c-.046-.034-.104.042-.061.08a33 33 0 0 0 2.905 2.313c.51.358 1.021.72 1.552 1.047a7.5 7.5 0 0 0 1.627.836.047.047 0 0 0 .045-.079m3.471.097a10.8 10.8 0 0 0-2.967-2.167c-1.08-.641-2.189-1.22-3.288-1.824a.055.055 0 0 0-.056.094c1.014.751 2.008 1.521 3.046 2.239a10.7 10.7 0 0 0 3.193 1.782.075.075 0 0 0 .072-.124m2.543-.371a10.2 10.2 0 0 0-2.206-1.546c-.804-.454-1.632-.854-2.455-1.27a.047.047 0 0 0-.048.082c.77.506 1.522 1.042 2.293 1.547a12.2 12.2 0 0 0 2.351 1.299c.064.024.11-.067.065-.111m2.953-.181c-1.247-.774-2.67-1.226-3.982-1.876a.027.027 0 0 0-.028.047 10.4 10.4 0 0 0 3.968 1.93.055.055 0 0 0 .042-.1m1.766-.341c-.685-.336-1.381-.65-2.034-1.048-.052-.032-.097.048-.047.08a7.8 7.8 0 0 0 2.06 1.018c.03.008.05-.036.021-.05m1.929-1.13a2 2 0 0 0-.184-.049c-.121-.02-.244-.032-.365-.048-.245-.033-.495-.026-.741-.038-.1-.004-.125.158-.024.177.245.046.49.11.737.135.12.012.238.028.357.036a2 2 0 0 0 .192-.006.3.3 0 0 0 .17-.035.064.064 0 0 0 .012-.098.3.3 0 0 0-.154-.073m2.807-.59a1.3 1.3 0 0 0-.245-.055 1.6 1.6 0 0 0-.27-.013c-.173-.002-.348.02-.52.03a.09.09 0 0 0 0 .18c.172.012.347.034.52.031a1.6 1.6 0 0 0 .27-.012 1.3 1.3 0 0 0 .245-.056.055.055 0 0 0 0-.105m27.21 90.144a28.3 28.3 0 0 1-.658-4.712 4.8 4.8 0 0 0-.072-1.913 8.7 8.7 0 0 1-.488-2.283c-.214-1.496-.45-2.984-.72-4.47-.011-.065-.118-.05-.115.015.077 1.47.206 2.93.388 4.392a8.7 8.7 0 0 1 .198 2.336 4.36 4.36 0 0 0 .454 1.971 35 35 0 0 1 .798 4.343 40 40 0 0 0 .842 4.465c.01.037.072.032.069-.01-.12-1.388-.457-2.762-.696-4.134m-4.014-10.965c-.012-.064-.122-.05-.115.015.197 1.884.452 3.762.74 5.634.006.04.072.03.07-.01a40 40 0 0 0-.695-5.64m2.337 14.031c-.125-.448-.26-.896-.372-1.348-.236-.94-.45-1.886-.674-2.83-.007-.029-.05-.016-.045.013.173.957.358 1.913.519 2.872.077.463.135.93.201 1.396a2.55 2.55 0 0 0 .365 1.301.122.122 0 0 0 .203-.053 2.6 2.6 0 0 0-.197-1.35m-3.08-.351q-.307-1.577-.611-3.155-.633-3.278-1.28-6.552c-.007-.035-.058-.02-.052.015q.525 3.242 1.065 6.482.265 1.59.527 3.18a15.3 15.3 0 0 0 .687 3.262.07.07 0 0 0 .138-.019 14.8 14.8 0 0 0-.474-3.213m-1.754.913q-.253-1.337-.49-2.679c-.311-1.753-.63-3.504-.921-5.26-.005-.03-.058-.024-.054.007.226 1.706.459 3.412.745 5.108q.218 1.294.45 2.586a15 15 0 0 0 .577 2.658c.016.043.086.04.084-.011a15 15 0 0 0-.39-2.409m-2.463-1.543a124 124 0 0 1-.811-4.743c-.004-.03-.057-.024-.054.007.153 1.546.33 3.092.589 4.624a28 28 0 0 0 1.054 4.701c.014.039.083.036.077-.01-.186-1.538-.572-3.057-.855-4.58m-1.681 1.383-.497-2.92c-.002-.014-.025-.008-.022.007l.44 2.876a27 27 0 0 0 .476 2.866.024.024 0 0 0 .046-.006 27 27 0 0 0-.444-2.823m-2.151-2.152c-.002-.015-.025-.015-.023 0 .161 1.617.299 3.238.51 4.85.004.029.05.03.047 0-.136-1.62-.347-3.235-.534-4.85m-1.658 3.24-.184-.831c-.006-.025-.042-.014-.038.01l.151.84c.05.28.113.554.18.83.007.03.05.017.045-.012-.045-.281-.093-.56-.155-.838m-2.666.708a.012.012 0 0 0-.017.017l.128.127a.012.012 0 0 0 .016-.016Zm-22.713 26.805a10.6 10.6 0 0 0-1.831-1.367c-.658-.415-1.334-.802-2.004-1.196-.019-.01-.042.017-.024.03.601.466 1.197.94 1.812 1.385a11 11 0 0 0 1.99 1.222c.046.02.097-.033.057-.074m3.06.144a4.2 4.2 0 0 0-1.174-.84c-.421-.25-.858-.478-1.288-.713-.877-.48-1.773-.925-2.655-1.396a.012.012 0 0 0-.012.02c.841.542 1.666 1.108 2.513 1.64.415.26.826.531 1.25.777a4.2 4.2 0 0 0 1.306.616.063.063 0 0 0 .06-.104m2.93-.626a4 4 0 0 0-1.17-.776 42 42 0 0 0-1.24-.628q-1.296-.633-2.588-1.272c-.04-.02-.075.038-.035.06q1.24.728 2.477 1.46.597.356 1.204.69a4.1 4.1 0 0 0 1.299.557.055.055 0 0 0 .053-.091m1.98-1.17a29 29 0 0 0-1.175-.508 77 77 0 0 0-2.462-.932c-.041-.015-.07.053-.03.072q1.181.533 2.331 1.129c.379.195.76.384 1.139.577a2.5 2.5 0 0 0 1.127.433.095.095 0 0 0 .08-.141 2.3 2.3 0 0 0-1.01-.63m3.257-.084a2 2 0 0 0-.352-.215c-.135-.078-.277-.14-.418-.205-.28-.13-.567-.238-.856-.346-.585-.218-1.198-.36-1.802-.52-.062-.016-.106.077-.045.107.553.271 1.102.558 1.677.78.291.114.587.221.887.308.15.043.3.09.454.12a2 2 0 0 0 .413.07.06.06 0 0 0 .042-.1m2.705-.585a3.12 3.12 0 0 0-1.823-.684c-.092-.01-.113.144-.022.16a6 6 0 0 1 .917.262c.297.104.582.243.879.347a.051.051 0 0 0 .049-.085m-63.738-27.278c-1.806.35-3.591.774-5.38 1.201-.059.014-.034.103.025.09 1.796-.388 3.59-.779 5.368-1.246.029-.007.016-.05-.013-.045m9.702-1.072a6.6 6.6 0 0 0-1.726.034 18 18 0 0 0-1.732.353c-.044.011-.025.078.019.068a12 12 0 0 1 1.736-.25q.853-.057 1.703-.134a.035.035 0 0 0 0-.07m-31.348 26.216c-3.386 1.194-6.629 2.739-9.946 4.107-1.566.646-3.141 1.298-4.761 1.798a17 17 0 0 1-2.36.542c-.703.11-1.564-.037-2.042.543a20.1 20.1 0 0 1-6.736 1.32.031.031 0 0 0 0 .063 32 32 0 0 0 3.422-.172c.6-.062 1.2-.16 1.801-.212a10.4 10.4 0 0 1 1.563-.135 1.9 1.9 0 0 0 1.218-.09q.79-.414 1.606-.79c1.064-.49 2.165-.892 3.25-1.33 4.366-1.756 8.8-3.48 13.003-5.601a.024.024 0 0 0-.018-.043m.36-.265c-.007-.035-.06-.026-.061.008a.7.7 0 0 1-.024.164c-.015.055-.023.112-.042.167a.74.74 0 0 1-.186.28.024.024 0 0 0 .028.038.7.7 0 0 0 .243-.282.5.5 0 0 0 .058-.185.7.7 0 0 0-.016-.19m-1.672 3.113c-3.93 1.637-7.798 3.488-11.795 4.954-.42.154-1.947.367-1.878 1.033.072.695 1.079.063 1.348-.1a56 56 0 0 1 5.713-2.865q3.305-1.512 6.63-2.98c.024-.01.007-.052-.018-.042M63.315 240.79a107 107 0 0 1-14.89 4.867c-.065.015-.037.11.026.098a60.8 60.8 0 0 0 14.903-4.873c.051-.025.015-.114-.039-.093m24.605 52.826a102 102 0 0 0-.825 10.22c0 .026.038.026.04 0 .157-3.415.41-6.825.824-10.22.003-.024-.036-.024-.04 0m47.044-32.78c-2.271-1.284-4.607-2.443-6.96-3.569-.04-.02-.075.04-.035.06 2.332 1.169 4.64 2.381 6.971 3.549.027.013.05-.025.024-.04m6.087.345c-.464-.702-1.42-.772-2.17-.947a13 13 0 0 1-2.744-1.262 128 128 0 0 1-4.976-2.655.035.035 0 0 0-.035.061 93 93 0 0 0 5.028 2.748 21 21 0 0 1 2.47 1.252c.696.477 1.371 1.256 2.296 1.123a.22.22 0 0 0 .13-.32m3.34-.615a3.5 3.5 0 0 0-1.005-.638c-.396-.203-.79-.408-1.177-.628-.726-.411-1.452-.82-2.17-1.242a58 58 0 0 1-2.124-1.323 5.3 5.3 0 0 0-2.137-.99c-.023-.002-.028.026-.017.04a5.5 5.5 0 0 0 1.973 1.26 41 41 0 0 1 2.312 1.164c.732.4 1.449.825 2.165 1.252.36.214.706.443 1.054.676a3.6 3.6 0 0 0 1.042.573.087.087 0 0 0 .084-.144m3.157-1.275a1.2 1.2 0 0 0-.684-.586c-.29-.116-.586-.22-.877-.336a11 11 0 0 1-1.97-1.078 36 36 0 0 0-3.644-2.154.023.023 0 0 0-.024.04 36 36 0 0 0 3.6 2.23 10.7 10.7 0 0 1 1.82 1.206c.256.219.502.451.759.67a1.2 1.2 0 0 0 .838.325.213.213 0 0 0 .182-.317m2.354-1.623-.598-.3c-.412-.205-.816-.427-1.223-.642-.83-.438-1.656-.883-2.503-1.286a.02.02 0 0 0-.02.034c.798.491 1.619.942 2.436 1.4.401.225.806.445 1.203.677l.575.339a1.1 1.1 0 0 0 .567.224.063.063 0 0 0 .054-.094 1.1 1.1 0 0 0-.492-.352m2.698-.807c-.368-.165-.748-.29-1.125-.43q-.593-.22-1.162-.497c-.045-.021-.085.044-.04.068q.552.299 1.13.546a5 5 0 0 0 1.173.37c.031.004.06-.042.024-.058m1.923-1.647a1.6 1.6 0 0 0-.266-.1l-.296-.069a2 2 0 0 0-.3-.032l-.301-.02c-.085-.007-.1.123-.02.145l.282.076a2 2 0 0 0 .296.068l.29.031a1.6 1.6 0 0 0 .29-.004c.044-.003.076-.073.025-.095m-49.155 35.473a18 18 0 0 0-2.735-1.048l-2.877-.914c-.049-.015-.067.058-.02.075l2.777 1.064a18.4 18.4 0 0 0 2.822.901c.045.01.079-.055.033-.078m5.677.408a1.1 1.1 0 0 0-.646-.4c-.357-.13-.72-.241-1.081-.36l-2.24-.74-4.404-1.455c-.029-.01-.04.035-.012.045l4.26 1.671 2.129.836c.355.14.708.284 1.065.418a1.3 1.3 0 0 0 .86.151.115.115 0 0 0 .069-.166m3.29-.735a11 11 0 0 0-1.64-.718q-.887-.343-1.788-.646-1.802-.604-3.637-1.104a.023.023 0 0 0-.013.045q1.782.568 3.533 1.228.86.324 1.715.657a17 17 0 0 0 1.779.66.067.067 0 0 0 .05-.122m2.269-.958a4.3 4.3 0 0 0-.921-.374c-.32-.116-.638-.234-.96-.345l-1.96-.68c-.023-.008-.033.03-.01.038l1.94.754q.477.183.955.358a4.3 4.3 0 0 0 .94.308c.033.004.038-.043.015-.059m1.535-1.544c-.093-.05-.186-.103-.28-.15-.092-.045-.189-.084-.282-.126l-.575-.255c-.054-.025-.102.056-.047.08l.585.26c.094.043.187.089.283.126q.148.055.298.108c.025.01.042-.03.018-.043m2.44-.706a1 1 0 0 0-.127-.035l-.266-.065a.047.047 0 0 0-.025.09l.263.076a1 1 0 0 0 .127.033.4.4 0 0 0 .14.012.032.032 0 0 0 .013-.053.4.4 0 0 0-.125-.058m65.492-13.485c-.04-.078-.147-.01-.114.067a49.2 49.2 0 0 0 5.932 10.3c.038.05.123.005.087-.052-2.083-3.364-4.094-6.796-5.905-10.315m5.914 6.743q-1.382-2.12-2.812-4.205a.02.02 0 0 0-.034.02q1.278 2.228 2.606 4.423a38 38 0 0 0 2.75 4.159c.038.048.103-.013.08-.062a38 38 0 0 0-2.59-4.335m4.977 3.315a5.3 5.3 0 0 0-.655-.545c-.029-.02-.055.027-.027.048a6 6 0 0 1 1.183 1.178c.018.024.058.002.04-.023a4.4 4.4 0 0 0-.541-.658M41.509 266.994c.308-1.913.756-4.162-.19-5.97-.033-.063-.117-.015-.107.046a16 16 0 0 1 .264 3.144c-.036.953-.106 1.904-.164 2.856-.059.954-.142 1.9-.136 2.857.004.467.02.938.07 1.403a6 6 0 0 1 .09 1.653.106.106 0 0 0 .175.103c.645-.672.045-1.616-.106-2.382a10.7 10.7 0 0 1 .104-3.71m-2.833-2.86c-.002-.02-.032-.02-.032 0 .057 1.82.013 3.634-.103 5.45-.001.015.022.015.023 0a31 31 0 0 0 .112-5.45m.077 10.474c-.037-.231-.127-.449-.15-.683-.05-.484-.06-.965-.07-1.452a.027.027 0 0 0-.056 0c-.011.487-.02.968-.07 1.452-.023.234-.113.452-.15.683-.034.203-.05.606.248.606.296 0 .282-.403.248-.606m-3.164-2.24a33 33 0 0 0-.235-3.475c-.003-.024-.04-.026-.04 0a33 33 0 0 1 .04 3.408c-.048 1.134-.208 2.268-.164 3.403a.055.055 0 0 0 .107.015 11.8 11.8 0 0 0 .292-3.351m-3.077.786c-.005.739-.013 1.475.008 2.213a.027.027 0 0 0 .055 0c.02-.738.013-1.474.007-2.213a.035.035 0 0 0-.07 0m21.513 7.83a.035.035 0 0 0-.07 0c-.06 3.796-.436 7.615-.27 11.41.002.062.103.084.114.015a55 55 0 0 0 .226-11.425m-1.883 4.087c-.21 3.3-.656 6.573-.937 9.866a.031.031 0 0 0 .061.008 59 59 0 0 0 .93-9.874c.001-.035-.052-.034-.054 0m-2.996 5.765-.709 3.204a29 29 0 0 0-.579 3.12c-.004.04.058.046.07.01a29 29 0 0 0 .706-3.14l.602-3.169c.011-.058-.077-.084-.09-.025m9.25 12.957.008 1.191a.016.016 0 0 0 .031 0l.008-1.191a.023.023 0 0 0-.047 0m42.55 52.478c-.02-.035-.072-.004-.054.032a49.7 49.7 0 0 0 9.152 12.546.031.031 0 0 0 .044-.044 59.8 59.8 0 0 1-9.142-12.534m8.704 4.58c-.823-1.132-1.7-2.22-2.542-3.337-.012-.015-.039 0-.027.016.805 1.137 1.573 2.298 2.399 3.421q1.243 1.69 2.526 3.347c.027.035.087.003.06-.035q-1.19-1.72-2.415-3.412m11.389 12.319q-.456-.405-.917-.805a35 35 0 0 1-1.788-1.67 37 37 0 0 1-3.323-3.721c-.036-.047-.116-.004-.081.047a32 32 0 0 0 3.101 3.89c.576.605 1.186 1.18 1.81 1.735.287.256.579.5.887.73a4.6 4.6 0 0 0 1.033.67.07.07 0 0 0 .079-.104 5.5 5.5 0 0 0-.8-.771m-5.741-12.895c-.927-1.032-1.848-2.06-2.843-3.026-.041-.04-.094.018-.061.06a73 73 0 0 0 5.547 6.191c.047.048.113-.022.072-.071a89 89 0 0 0-2.716-3.154m13.986 13.073a11.5 11.5 0 0 0-1.693-1.512c-.582-.468-1.16-.944-1.75-1.4a410 410 0 0 1-3.746-2.918c-.015-.012-.038.01-.022.022a398 398 0 0 1 3.556 3.054c.573.496 1.162.974 1.745 1.46a11.7 11.7 0 0 0 1.844 1.38.055.055 0 0 0 .066-.086m9.778.739a14 14 0 0 0-2.023-1.437q-1.098-.734-2.154-1.53a51 51 0 0 1-4.145-3.535 103 103 0 0 1-7.356-7.864q-1.984-2.302-3.936-4.632c-.024-.027-.06.012-.04.039 4.445 5.734 9.028 11.38 14.706 15.954q1.094.881 2.238 1.698a10 10 0 0 0 2.585 1.523.13.13 0 0 0 .125-.216m5.937-2.734a10.8 10.8 0 0 0-2.615-1.822 61 61 0 0 1-2.645-1.67 26 26 0 0 1-4.966-4.272c-2.666-3.014-4.974-6.293-8.31-8.636-.042-.03-.097.04-.056.074 3.128 2.65 5.526 6.064 8.422 8.953a53 53 0 0 0 4.8 4.205q1.213.946 2.464 1.842a9.7 9.7 0 0 0 2.736 1.62.177.177 0 0 0 .17-.294m8.875-1.514c-1.548-1.155-3.408-1.89-5.02-2.966a35 35 0 0 1-4.82-3.87c-3.047-2.93-5.85-6.09-9.014-8.9a.031.031 0 0 0-.044.044 77.3 77.3 0 0 0 9.086 9.335 61 61 0 0 0 4.665 3.608 19.2 19.2 0 0 0 5.06 2.955c.131.04.184-.135.087-.207m5.695-2.739c-1.449-1.081-3.08-1.911-4.585-2.912a38 38 0 0 1-4.546-3.49 78 78 0 0 1-3.87-3.808c-.626-.654-1.247-1.313-1.873-1.966a3.2 3.2 0 0 0-1.65-1.114.043.043 0 0 0-.023.083 5.75 5.75 0 0 1 1.947 1.83 40 40 0 0 0 1.856 1.985 52 52 0 0 0 4.005 3.517c1.328 1.077 2.654 2.158 4.027 3.179a23.4 23.4 0 0 0 4.577 2.926.133.133 0 0 0 .134-.23m1.621-5.765a55.2 55.2 0 0 1-10.016-9.623c-.016-.02-.052.006-.036.028a36.1 36.1 0 0 0 10.013 9.663c.043.028.08-.038.04-.068m5.857 3.135a.64.64 0 0 0-.251-.228 6 6 0 0 0-.534-.29 40 40 0 0 0-1.225-.572 34 34 0 0 1-2.373-1.188.035.035 0 0 0-.035.06c.748.471 1.49.959 2.199 1.487q.525.391 1.062.763a6 6 0 0 0 .551.348.63.63 0 0 0 .327.106c.086-.004.145-.052.225-.062.073-.009.16-.077.125-.163s-.028-.176-.071-.26m4.33-4.085a6.4 6.4 0 0 0-1.333-.903q-.82-.488-1.624-1.002-1.563-.998-3.063-2.09a66 66 0 0 1-5.886-4.804c-.051-.048-.128.028-.077.077a58 58 0 0 0 5.643 4.856q1.487 1.11 3.04 2.13.797.522 1.611 1.02a6 6 0 0 0 1.624.827.067.067 0 0 0 .065-.111m5.84-2.748a19 19 0 0 0-2.672-1.346q-1.349-.66-2.642-1.428a39.5 39.5 0 0 1-5.052-3.51c-.08-.066-.196.046-.116.117a36.4 36.4 0 0 0 4.893 3.682q1.318.812 2.699 1.513a10 10 0 0 0 2.827 1.122.082.082 0 0 0 .063-.15m4.338-4.33c-1.065-.469-2.162-.86-3.222-1.34a43 43 0 0 1-3.135-1.56.043.043 0 0 0-.043.073 28 28 0 0 0 3.12 1.7 18 18 0 0 0 3.244 1.213c.049.011.086-.064.036-.086m2.322-4.427c-.375-.177-.747-.361-1.13-.522l-1.176-.495c-.02-.009-.035.026-.015.035l1.156.543c.375.177.761.33 1.144.49.028.011.049-.038.02-.05m7.655-10.166a85 85 0 0 1-10.394-5.519c-.09-.06-.206.085-.118.154a29.5 29.5 0 0 0 10.446 5.522c.09.023.156-.114.066-.157m3.073-3.089a24 24 0 0 0-2.667-1.074c-1.03-.38-2.04-.806-3.046-1.247a50 50 0 0 1-5.52-2.82c-.06-.036-.113.056-.055.095a40.5 40.5 0 0 0 5.534 3.195 19.4 19.4 0 0 0 5.72 1.975c.066.007.09-.095.034-.124m3.523-3.699c-1.62-.575-3.265-1.057-4.856-1.715a44 44 0 0 1-4.774-2.312.016.016 0 0 0-.015.027 36 36 0 0 0 4.724 2.439 25 25 0 0 0 4.902 1.629.035.035 0 0 0 .019-.068m2.319-4.17c-1.002-.4-2.036-.713-3.059-1.055q-1.53-.513-3.023-1.127c-.052-.022-.091.07-.039.093a26.7 26.7 0 0 0 6.096 2.18.047.047 0 0 0 .025-.091m2.058-3.908a7.7 7.7 0 0 1-2.797-.504c-.022-.01-.043.022-.02.033a4.77 4.77 0 0 0 2.825.532c.036-.006.026-.06-.008-.061m2.561-3.817a4 4 0 0 0-.502-.142c-.171-.033-.346-.054-.518-.08-.34-.052-.683-.072-1.025-.102-.052-.005-.063.08-.012.092.339.077.677.165 1.02.222.168.027.337.06.506.081a4 4 0 0 0 .518.02.047.047 0 0 0 .013-.091m3.327-2.565a2 2 0 0 0-.379-.145l-.39-.133c-.061-.02-.088.078-.026.098l.39.128.189.062q.05.018.1.033a1 1 0 0 0 .1.015c.032.004.041-.044.016-.058M51.41 392.498a62.2 62.2 0 0 1-10.282-10.905c-.029-.04-.094-.005-.067.04a36.7 36.7 0 0 0 10.292 10.939c.043.03.098-.04.057-.074m-2.297-7.326a104 104 0 0 1-3.414-4.416c-.02-.028-.067-.003-.047.027a63 63 0 0 0 3.125 4.392 29 29 0 0 0 3.657 4.132c.03.027.089-.01.061-.047-1.036-1.428-2.267-2.72-3.382-4.088m11.972 11.319a66 66 0 0 0-6.14-5.222c-.038-.03-.093.02-.055.055a66 66 0 0 0 6.124 5.26c.056.038.116-.047.071-.093m5.078-2.134c-1.229-1.137-2.589-2.146-3.872-3.221q-1.934-1.621-3.79-3.33-3.713-3.416-7.125-7.139c-.017-.018-.045.009-.028.028a105 105 0 0 0 7.095 7.33q1.843 1.721 3.764 3.356a36 36 0 0 0 3.904 3.044.043.043 0 0 0 .052-.068m5.162-1.347a29 29 0 0 0-3.108-2.626q-1.641-1.313-3.255-2.662-3.185-2.656-6.204-5.501c-.043-.042-.109.023-.066.066q2.97 2.969 6.115 5.755 1.53 1.352 3.115 2.637a21 21 0 0 0 3.337 2.417.055.055 0 0 0 .066-.086m3.628-2.711c-3.03-2.505-6.102-4.966-9.05-7.569-.06-.053-.147.031-.089.088a61.4 61.4 0 0 0 9.083 7.554c.043.03.098-.04.056-.073m4.018-2.761a26 26 0 0 0-2.722-2.233c-.949-.733-1.919-1.437-2.882-2.15-.067-.05-.155.063-.09.116.929.758 1.85 1.525 2.794 2.265a26 26 0 0 0 2.834 2.088.055.055 0 0 0 .066-.086m3.959-3.17a7.4 7.4 0 0 0-.885-.638 10.8 10.8 0 0 0-2-1.042c-.35-.13-.711-.228-1.064-.348-.073-.025-.112.082-.05.121.318.203.623.43.94.636.308.2.633.369.955.542s.659.329.994.475a9 9 0 0 0 1.014.417.098.098 0 0 0 .095-.163m48.591-227.469a.018.018 0 0 0-.035 0 63.7 63.7 0 0 0 .397 11.76c.01.066.11.047.111-.014.125-3.916-.351-7.834-.473-11.746m3.434 16.204c-.15-1.354-.18-2.722-.248-4.082-.132-2.686-.237-5.358-.458-8.04-.004-.046-.075-.048-.074 0 .055 2.689.225 5.356.368 8.04.07 1.317.177 2.639.173 3.958a15.6 15.6 0 0 0 .156 3.877c.037.143.284.162.308 0a15 15 0 0 0-.225-3.753m2.88 8.947a2 2 0 0 0-.01-.692c-.023-2.464-.263-4.93-.296-7.396-.017-1.313 0-2.626.012-3.939a20 20 0 0 0-.21-3.949c-.007-.036-.07-.038-.075 0a19.6 19.6 0 0 0-.053 3.826c.068 1.353.141 2.707.178 4.062.072 2.706-.123 5.421.01 8.123.01.24.382.316.437.06.004-.022 0-.04.004-.06h.004zm2.318-.338c.018-1.27.06-2.54.064-3.811a64 64 0 0 0-.495-7.734c-.003-.027-.045-.028-.043 0 .17 2.532.252 5.074.315 7.61.03 1.23.043 2.46-.002 3.69-.024.66-.09 1.31-.175 1.965a3.85 3.85 0 0 0-.024 1.748.113.113 0 0 0 .203.027 3.2 3.2 0 0 0 .195-1.53c-.008-.655-.047-1.309-.038-1.965m3.14 3.104a293 293 0 0 1-.027-3.618 259 259 0 0 0-.028-3.618 11 11 0 0 0-.319-3.181.01.01 0 0 0-.019.005 14.7 14.7 0 0 1 .193 3.426q.022 1.81.066 3.618c.026 1.164.05 2.328.06 3.493.012 1.211-.147 2.408-.149 3.617a.233.233 0 0 0 .465 0c-.033-1.252-.223-2.487-.242-3.742m4.157 5.897c-.08-.648-.175-1.283-.202-1.937-.047-1.146-.08-2.292-.13-3.437q-.073-1.72-.165-3.438a10.3 10.3 0 0 0-.482-3.235c-.006-.014-.028-.008-.023.006a13 13 0 0 1 .313 3.475q.064 1.719.143 3.437c.053 1.146.13 2.291.177 3.438.024.577-.025 1.142-.04 1.718a2.3 2.3 0 0 0 .163 1.285.114.114 0 0 0 .195 0 2.3 2.3 0 0 0 .05-1.312m3.435 4.063c-.062-.578-.137-1.155-.181-1.735-.097-1.271-.134-2.547-.191-3.82-.113-2.494-.232-4.989-.415-7.479-.002-.03-.048-.03-.047 0 .096 2.494.22 4.986.338 7.479.059 1.231.135 2.463.159 3.696.012.62-.01 1.24-.02 1.86a2.9 2.9 0 0 0 .176 1.528.083.083 0 0 0 .142 0 2.85 2.85 0 0 0 .04-1.529m3.143 2.967c-.074-.562-.15-1.118-.19-1.684-.077-1.08-.108-2.165-.158-3.247a22.3 22.3 0 0 0-.672-5.995.03.03 0 0 0-.057.016 35 35 0 0 1 .607 6.22c.055 1.041.13 2.084.155 3.126.013.523-.01 1.042-.027 1.564a1.9 1.9 0 0 0 .163 1.242.08.08 0 0 0 .135 0 1.84 1.84 0 0 0 .044-1.242m2.405-6.315c-.003-.02-.032-.011-.03.008.301 2.216.508 4.444.796 6.662.004.031.052.034.05 0a48 48 0 0 0-.816-6.67m1.691 9.713c-.076-.138-.156-.272-.225-.415-.148-.305-.269-.623-.392-.939-.014-.034-.07-.02-.057.016.107.32.22.639.3.966.041.162.068.324.1.487a1.05 1.05 0 0 0 .188.484.154.154 0 0 0 .26-.107 1.1 1.1 0 0 0-.174-.492m2.238-4.071c-.002-.012-.02-.006-.019.006.36 2.33.703 4.671 1.163 6.984.003.018.029.01.026-.007-.316-2.337-.752-4.662-1.17-6.982m4.093 6.726q-.262-.758-.59-1.49c-.015-.032-.07-.009-.058.024.19.505.354 1.017.503 1.536.148.518.312 1.033.455 1.553.01.04.066.022.06-.017a9 9 0 0 0-.37-1.606m3.084 4.329c-.011-.016-.038 0-.027.016.285.397.567.795.855 1.19.009.011.029 0 .02-.013q-.421-.599-.848-1.193m-31.846-80.671c-.009-.026-.05-.015-.042.011a162 162 0 0 0 1.572 4.753c.009.024.045.014.038-.01a162 162 0 0 0-1.568-4.754m-35.518 31.767a45.4 45.4 0 0 0-11.645-6.2c-.025-.01-.043.033-.018.043a60 60 0 0 1 5.916 2.895c1.92 1.072 3.766 2.268 5.683 3.345.05.028.113-.044.064-.083m2.525 4.275a128 128 0 0 0-11.565-6.152c-.029-.014-.055.029-.025.043 3.918 1.936 7.734 4.051 11.564 6.153a.025.025 0 0 0 .026-.044m-4.104.203a45 45 0 0 0-6.661-3.19c-.018-.006-.032.025-.014.033 2.27.96 4.454 2.085 6.657 3.187a.018.018 0 0 0 .018-.03m3.442 1.603a3 3 0 0 0-.206-.098q-.192-.079-.385-.152l-.818-.32c-.012-.005-.02.016-.009.022q.393.199.784.401c.126.065.25.134.38.192a.73.73 0 0 0 .38.117.034.034 0 0 0 .02-.049.3.3 0 0 0-.146-.113m-.211 2.85a8.7 8.7 0 0 0-1.6-1.002q-.843-.476-1.71-.909-1.71-.85-3.489-1.55c-.026-.011-.046.035-.02.046q1.781.754 3.491 1.66.827.44 1.638.907a14 14 0 0 0 1.637.94c.05.02.091-.057.053-.092m-.166 2.715a9.4 9.4 0 0 0-1.398-.87q-.739-.416-1.484-.819-1.515-.824-3.035-1.638a.014.014 0 0 0-.014.024q1.478.885 2.961 1.764.729.433 1.463.854a9.4 9.4 0 0 0 1.467.754.041.041 0 0 0 .04-.069m.037 3.313c-1.306-.847-2.68-1.586-3.967-2.464-.013-.009-.029.012-.016.021a16.6 16.6 0 0 0 3.963 2.49c.028.01.043-.032.02-.047m-2.954 2.317c-.028-.018-.053.026-.026.044.685.448 1.365.902 2.061 1.332.018.01.032-.016.016-.027-.675-.464-1.365-.904-2.051-1.35m1.714 5.433c-.02-.011-.037.02-.017.03.578.322 1.154.646 1.739.955a.012.012 0 0 0 .012-.02c-.573-.332-1.154-.647-1.734-.965m-46.743 6.331a42.5 42.5 0 0 0-8.91-3.115.035.035 0 0 0-.018.068c3.007.92 5.895 2.182 8.89 3.136a.049.049 0 0 0 .038-.089m3.041 3.961a56 56 0 0 0-10.43-3.452.018.018 0 0 0-.01.034 96 96 0 0 1 10.423 3.457c.023.008.04-.03.017-.04m3.385 4.304c-3.161-1.572-6.443-2.916-9.744-4.165-.017-.006-.023.02-.007.026 3.273 1.324 6.492 2.767 9.725 4.183.03.013.056-.029.026-.044m-.335 3.07a18.9 18.9 0 0 0-4.794-2.69c-.021-.008-.03.026-.01.034a23.5 23.5 0 0 1 4.783 2.684c.016.011.037-.016.021-.028m1.54 3.894a8.7 8.7 0 0 0-2.079-1.146c-.045-.018-.077.058-.033.078a18 18 0 0 1 2.09 1.105c.024.015.043-.021.022-.037m-47.302 38.975a41 41 0 0 0-4.348-3.64c-.01-.007-.023.006-.014.014a41 41 0 0 0 4.31 3.693c.04.029.085-.033.052-.067m1.618-.537-1.252-1.287-2.468-2.54c-.025-.025-.063.014-.04.039l2.449 2.56 1.206 1.263a11 11 0 0 0 1.198 1.211c.023.018.056-.017.04-.04a11 11 0 0 0-1.133-1.206m2.561-.134q-.596-.653-1.19-1.307l-2.348-2.576c-.022-.024-.058.012-.036.036l2.297 2.555 1.115 1.24a13 13 0 0 0 1.202 1.295c.016.013.044-.004.03-.024a12 12 0 0 0-1.07-1.219m1.84-1.265q-1.19-1.279-2.283-2.643c-.017-.021-.047.01-.03.03a43 43 0 0 0 2.258 2.668 28 28 0 0 0 2.488 2.453c.017.015.04-.008.025-.024-.82-.828-1.663-1.63-2.458-2.484m3.608.651-1.614-1.453c-.011-.01-.028.006-.017.017l1.581 1.485c.526.494 1.043 1.007 1.609 1.456.017.014.04-.008.025-.025-.494-.526-1.05-.998-1.585-1.48m-5.233 14.758a9 9 0 0 0-.901-.528 25 25 0 0 0-.923-.49c-.63-.313-1.279-.57-1.926-.843-.056-.024-.106.052-.05.084.617.353 1.22.719 1.86 1.032.314.154.634.296.954.437a9 9 0 0 0 .951.39c.052.016.074-.054.035-.082m2.362-.301a11.5 11.5 0 0 0-1.913-1.098c-.662-.326-1.334-.632-2-.948-.054-.025-.1.051-.047.081.649.371 1.293.752 1.948 1.114a11.3 11.3 0 0 0 1.979.93c.05.015.069-.052.033-.08"/></svg>