<svg xmlns="http://www.w3.org/2000/svg" data-name="Layer 1" viewBox="0 0 392.727 102.949"><path fill="currentColor" d="M71.61 60.872a.05.05 0 0 0-.045.012l-.024.03a.04.04 0 0 0-.001.043 35 35 0 0 1-2.004-3.625c-.311-.618-.677-1.213-.987-1.835-.31-.62-.635-1.233-.94-1.855-.003-.006-.012-.002-.01.004.32.854.657 1.693 1.046 2.518.197.419.37.858.583 1.268.223.43.505.834.748 1.253.233.401.463.804.7 1.203l.351.6a2.6 2.6 0 0 0 .347.56c.246.237.484-.088.236-.176m3.115 1.371a85 85 0 0 0-.618-1.14c-.446-.813-.891-1.626-1.322-2.447a88 88 0 0 1-1.266-2.49 11 11 0 0 0-1.236-2.297c-.01-.011-.027.001-.023.014a11 11 0 0 0 1.168 2.336c.435.787.85 1.586 1.263 2.385.411.797.807 1.603 1.202 2.41q.284.583.575 1.165a3.7 3.7 0 0 0 .656 1.129c.022.02.068.008.064-.026a3.2 3.2 0 0 0-.463-1.039m4.518 2.973c-.858-1.872-1.867-3.677-2.774-5.526a58 58 0 0 0-2.757-5.535c-.017-.028-.067-.01-.054.023a57 57 0 0 0 2.665 5.47c.93 1.88 1.764 3.816 2.744 5.671.062.118.23.014.176-.103m3.475-.102c-.23-.395-.469-.786-.7-1.18a64 64 0 0 1-1.424-2.574c-.914-1.735-1.736-3.516-2.645-5.254-.015-.03-.056-.003-.043.026.766 1.806 1.693 3.54 2.608 5.275.457.868.919 1.733 1.375 2.602.212.405.422.813.644 1.213a5.7 5.7 0 0 0 .732 1.181.065.065 0 0 0 .108-.062 6.2 6.2 0 0 0-.655-1.227m3.565.644a57 57 0 0 1-1.244-2.234c-.828-1.559-1.59-3.16-2.512-4.666a.012.012 0 0 0-.021.013c.744 1.602 1.653 3.123 2.493 4.676.406.752.8 1.507 1.172 2.276a10.2 10.2 0 0 0 1.225 2.262c.038.043.107-.003.093-.055a10.2 10.2 0 0 0-1.206-2.272m5.054 2.684c-.773-1.414-1.654-2.774-2.437-4.185s-1.536-2.839-2.314-4.253c-.009-.017-.034-.002-.025.015.708 1.45 1.479 2.871 2.258 4.286.775 1.407 1.507 2.869 2.365 4.227a.089.089 0 0 0 .153-.09m3.157-.577a.032.032 0 0 0-.044.045.4.4 0 0 1 .068.216c-.697-1.116-1.455-2.186-2.124-3.323a94 94 0 0 0-2.19-3.528.02.02 0 0 0-.034.02 94 94 0 0 0 2.168 3.541c.752 1.166 1.39 2.391 2.12 3.57a.103.103 0 0 0 .175 0 .42.42 0 0 0-.139-.541m2.174-1.115-.898-1.217q-.913-1.24-1.851-2.46c-.011-.014-.035-.001-.025.014q.901 1.274 1.822 2.533l.924 1.26c.29.394.564.81.889 1.177.024.027.068-.008.05-.039-.269-.443-.604-.85-.91-1.267m1.238-2.161c-.012-.015-.04.006-.027.022.898 1.21 1.781 2.441 2.743 3.603.011.014.035-.004.025-.02-.863-1.236-1.814-2.415-2.74-3.605m4.794 2.443-.3-.328-.595-.645c-.014-.015-.036.007-.023.023l.579.643.281.311a3 3 0 0 0 .308.321c.009.008.025-.002.018-.013a3 3 0 0 0-.268-.312m1.888-.677c-.013-.008-.024.01-.012.02q.476.343.966.664c.01.007.02-.009.01-.016q-.476-.344-.965-.668m4.733-5.368c-.008-.009-.021.005-.013.013a29.5 29.5 0 0 0 5.001 4.443c.012.009.028-.01.016-.02a48 48 0 0 1-5.004-4.436m10.406 5.696c-.519-.404-1.104-.73-1.644-1.105-.6-.418-1.19-.848-1.765-1.3a35 35 0 0 1-3.119-2.777.01.01 0 0 0-.013.013 35 35 0 0 0 3.123 2.854q.77.624 1.579 1.2a12.7 12.7 0 0 0 1.803 1.162c.028.013.065-.025.036-.047m2.41-.924c-.427-.345-.914-.626-1.37-.931q-.727-.49-1.451-.985-1.449-.986-2.88-1.998c-.008-.006-.015.007-.008.012q1.38 1.043 2.793 2.04.695.49 1.398.967a16 16 0 0 0 1.467.962c.04.02.09-.035.05-.066m.01-1.821c-.027-.017-.05.024-.025.041.491.322.981.643 1.488.94.015.01.028-.013.014-.024a36 36 0 0 0-1.477-.958m-1.663-20.304c-.019-.02-.048.01-.03.03a17.1 17.1 0 0 0 4.933 4.026.016.016 0 0 0 .016-.028 27.8 27.8 0 0 1-4.919-4.028m8.226 3.96a6 6 0 0 0-.925-.533 36 36 0 0 1-1.03-.573 16 16 0 0 1-2.026-1.416 28.3 28.3 0 0 1-3.412-3.245c-.009-.01-.023.005-.015.015a21.5 21.5 0 0 0 3.389 3.28c.622.481 1.272.922 1.916 1.374a7.5 7.5 0 0 0 2.05 1.192c.05.014.1-.058.054-.094m3.717-.779a1.9 1.9 0 0 0-.72-.326 11 11 0 0 1-1.105-.442q-.956-.433-1.875-.944a30 30 0 0 1-3.509-2.294c-.01-.008-.025.01-.015.02a23 23 0 0 0 3.465 2.375q.917.512 1.873.948c.327.149.66.287.985.442a2 2 0 0 0 .871.293.042.042 0 0 0 .03-.072m2.259-.636c-.433-.197-.892-.332-1.329-.523-.42-.183-.836-.38-1.25-.579q-1.264-.609-2.49-1.29a.007.007 0 0 0-.007.01 27 27 0 0 0 2.512 1.35c.403.189.812.365 1.224.537.437.183.866.404 1.32.544.028.01.049-.036.02-.05m.309-1.273c-.018-.006-.026.023-.008.029.324.109.648.23.979.318.01.003.014-.012.004-.016-.318-.128-.65-.224-.975-.331m-1.448-17.26a.02.02 0 0 0-.027.028 24 24 0 0 0 3.41 2.944c.014.01.032-.013.019-.024a41 41 0 0 1-3.402-2.948m6.986 3.424c-.161-.122-.282-.258-.452-.37q-.216-.145-.434-.286a22 22 0 0 1-.86-.581 22 22 0 0 1-1.775-1.464 39 39 0 0 1-3.06-3.065c-.007-.007-.017.003-.011.01a24 24 0 0 0 3.087 3.202c.556.477 1.137.924 1.714 1.375.261.205.52.412.786.612q.231.174.47.337a6 6 0 0 0 .515.265.02.02 0 0 0 .02-.034m-3.58-6.017c-.015-.017-.037.007-.024.024a17.2 17.2 0 0 0 2.615 2.593c.01.009.026-.006.015-.016a28 28 0 0 1-2.606-2.601m5.756 4.786a1.5 1.5 0 0 0-.21-.193 4 4 0 0 0-.463-.322c-.16-.095-.328-.172-.492-.26a9 9 0 0 0-.53-.258c-.008-.003-.015.008-.007.012a5 5 0 0 1 .482.277 5 5 0 0 1 .455.348q.21.17.413.345a3 3 0 0 0 .217.176c.079.054.159.093.242.14a.032.032 0 0 0 .043-.043 2 2 0 0 0-.15-.221m2.368-1.338a7 7 0 0 0-.838-.538l-.902-.551q-.902-.552-1.818-1.079a.014.014 0 0 0-.014.025q.868.574 1.753 1.12l.869.537a7 7 0 0 0 .909.54c.031.013.073-.027.04-.054m1.319-1.983c-.011-.021-.044-.002-.032.019a.95.95 0 0 0 .672.47c.01.002.016-.013.005-.015a.97.97 0 0 1-.645-.474m7.144-10.4c-.016-.013-.04.01-.023.024a33 33 0 0 0 4.07 2.938c.014.008.026-.012.013-.02-1.373-.955-2.749-1.901-4.06-2.942m7.514 2.9a3.2 3.2 0 0 0-.739-.533q-.435-.273-.867-.549-.867-.549-1.727-1.109-1.716-1.123-3.39-2.308c-.018-.013-.035.016-.017.029q1.653 1.22 3.342 2.391a91 91 0 0 0 1.702 1.151q.429.282.862.558a3 3 0 0 0 .798.432.037.037 0 0 0 .036-.061m1.805-1.346a11 11 0 0 0-1.366-.71q-.663-.343-1.314-.708-1.322-.742-2.57-1.604c-.014-.01-.025.012-.013.02q1.245.91 2.558 1.722.655.404 1.332.773a6.7 6.7 0 0 0 1.316.642.074.074 0 0 0 .057-.135m1.103-1.563a6 6 0 0 0-.95-.498 19 19 0 0 0-.968-.395c-.007-.003-.011.008-.005.012.31.176.622.354.942.512a6 6 0 0 0 .964.41.023.023 0 0 0 .017-.04m1.964.057-.162-.084c-.01-.005-.018.01-.008.015l.162.082c.054.027.108.057.163.08.007.003.012-.005.006-.01q-.079-.044-.161-.083m13.377 9.871a17.4 17.4 0 0 0-2.05-1.853c-.713-.636-1.424-1.274-2.14-1.905a29 29 0 0 0-4.123-3.15c-.007-.004-.013.007-.006.011a37.5 37.5 0 0 1 4.227 3.359q1.017.904 2.028 1.815a17 17 0 0 0 2.019 1.782c.038.024.07-.028.045-.059m2.163-1.408c-.628-.55-1.385-.957-2.059-1.449a53 53 0 0 1-2.23-1.724c-1.376-1.12-2.757-2.236-4.122-3.372-.018-.015-.044.011-.026.027a82 82 0 0 0 4.056 3.333q1.12.855 2.234 1.72a21 21 0 0 0 2.044 1.598c.08.048.176-.069.103-.133m2.122-.493c-1.112-.95-2.287-1.828-3.42-2.752q-1.701-1.386-3.406-2.768c-.007-.006-.018.005-.01.01q1.68 1.409 3.367 2.806c1.123.933 2.209 1.915 3.353 2.82.081.065.198-.046.116-.115m1.092-1.309q-.583-.49-1.163-.985-1.16-.989-2.318-1.979c-.005-.003-.011.003-.007.007q1.142 1.007 2.282 2.015.553.489 1.104.98a7 7 0 0 0 1.139.954c.017.01.043-.01.03-.029a6.7 6.7 0 0 0-1.067-.963m2.725.098c-.01-.005-.018.01-.009.015l.49.322c.007.004.012-.006.006-.01Zm1.613.673c-.013-.008-.025.013-.012.021 1.191.761 2.372 1.544 3.59 2.263.011.007.021-.01.01-.018-1.173-.789-2.388-1.518-3.588-2.266m7.354 2.897a40 40 0 0 0-3.473-2.73q-1.825-1.353-3.715-2.614c-.009-.006-.017.009-.008.015q1.849 1.264 3.634 2.618c1.187.902 2.307 1.901 3.506 2.785.043.032.095-.037.056-.073m3.239.178a5 5 0 0 0-.803-.715q-.393-.322-.789-.638-.798-.637-1.613-1.25-1.697-1.276-3.46-2.46c-.018-.01-.033.017-.017.028q1.722 1.191 3.383 2.468.848.654 1.683 1.327.42.338.834.682a5 5 0 0 0 .758.589.02.02 0 0 0 .024-.031m1.842-.672-1.269-.883q-1.289-.898-2.582-1.79c-.013-.009-.025.012-.012.021l2.521 1.795 1.222.865a9 9 0 0 0 1.317.9.017.017 0 0 0 .02-.026 8.3 8.3 0 0 0-1.217-.882m2.37-.199-1.477-.875a.017.017 0 0 0-.017.03l1.465.894c.486.296.967.62 1.478.873a.015.015 0 0 0 .015-.026c-.463-.332-.975-.606-1.464-.896m4.111.765q-.135-.062-.272-.122l-.58-.244c-.005-.002-.01.008-.004.01q.285.135.57.266.144.065.29.128a3 3 0 0 0 .273.113.01.01 0 0 0 .007-.017 3 3 0 0 0-.284-.134m2.584.333-.16-.085c-.018-.009-.033.018-.016.026l.167.082c.054.026.107.056.163.078.009.004.014-.01.006-.015q-.077-.046-.16-.086m19.818 1.464q-.938-.637-1.885-1.261c-.013-.008-.023.011-.012.02q.91.648 1.83 1.284c.61.421 1.212.873 1.854 1.244.014.008.031-.013.018-.024-.57-.458-1.2-.852-1.805-1.263m7.04 3.02c-1.053-.988-2.248-1.853-3.39-2.734q-1.771-1.368-3.605-2.653c-.01-.007-.019.01-.009.016 1.222.892 2.435 1.799 3.626 2.732 1.124.88 2.187 1.847 3.324 2.709.04.03.09-.036.054-.07m3.011-.07a14 14 0 0 0-1.662-1.392c-.555-.461-1.08-.956-1.627-1.427-1.095-.944-2.219-1.853-3.33-2.779-.013-.011-.033.008-.02.02 1.109.959 2.202 1.935 3.328 2.874.555.464 1.13.902 1.675 1.379a13.4 13.4 0 0 0 1.598 1.374c.031.02.06-.023.038-.048m1.505-1.485q-.693-.672-1.407-1.323a50 50 0 0 0-2.946-2.5c-.005-.004-.011.003-.007.007a83 83 0 0 1 2.915 2.531q.691.635 1.363 1.291c.473.462.906.97 1.393 1.415a.042.042 0 0 0 .06-.06c-.416-.487-.911-.915-1.37-1.36m4.094.594c-.364-.316-.752-.603-1.12-.915q-.55-.467-1.098-.936-1.1-.936-2.201-1.868c-.007-.005-.016.004-.01.01q1.09.945 2.183 1.886l1.06.913c.374.323.727.672 1.105.99.056.048.136-.031.08-.08m2.504-.561a5 5 0 0 0-.637-.565l-.669-.57-1.32-1.12c-.014-.01-.032.007-.02.018.435.392.865.788 1.299 1.18l.631.57a5 5 0 0 0 .654.568c.053.033.098-.038.062-.08m1.934-1.047-.151-.114q-.171-.127-.347-.247l-.686-.48c-.01-.008-.018.008-.01.015q.337.258.67.52.156.122.315.24l.168.12a.6.6 0 0 0 .158.093.016.016 0 0 0 .018-.023.6.6 0 0 0-.135-.124m2.108-1.269a1.4 1.4 0 0 0-.53-.075.016.016 0 0 0 0 .032 1.7 1.7 0 0 1 .507.098 2.7 2.7 0 0 1 .457.236.015.015 0 0 0 .019-.023 1.1 1.1 0 0 0-.453-.268m2.561-.528a.012.012 0 0 0 0-.024M149.457 49.96c-.132 1.466-.275 2.928-.361 4.398a54 54 0 0 1-.182 2.156 12.7 12.7 0 0 0-.174 2.243c.003.029.046.038.053.007a11.5 11.5 0 0 0 .175-2.077c.043-.748.09-1.497.163-2.242.145-1.494.245-2.988.348-4.485.001-.015-.02-.014-.022 0m1.491 5.532c-.258 1.836-.576 3.68-.721 5.528-.001.014.023.018.025.003.338-1.823.507-3.686.733-5.526.002-.02-.034-.026-.037-.005m.51 7.238a1 1 0 0 1 .132-.567.014.014 0 0 0-.025-.014 1.06 1.06 0 0 0-.177.59.8.8 0 0 0 .205.57c.015.013.034-.004.027-.021a1.6 1.6 0 0 1-.162-.558m5.493-35.39a11 11 0 0 1-.067 1.211c-.047.417-.13.827-.2 1.24a.01.01 0 0 0 .019.006 8.6 8.6 0 0 0 .276-2.457.014.014 0 0 0-.028 0m1.503-.808c-.21.895-.39 1.797-.528 2.706a12 12 0 0 0-.226 2.656c.002.024.04.034.046.006.158-.85.162-1.74.264-2.599q.166-1.393.456-2.765c.002-.009-.01-.012-.012-.004m1.381.959a39 39 0 0 0-.8 8.148.011.011 0 0 0 .023 0 70 70 0 0 1 .804-8.14c.003-.018-.024-.026-.027-.008m1.069 3.271q-.206 1.706-.406 3.413c-.132 1.134-.292 2.272-.336 3.413-.001.014.023.018.025.003.196-1.106.28-2.232.392-3.35.115-1.159.223-2.32.334-3.48 0-.005-.009-.005-.01 0m1.099 4.065a9.7 9.7 0 0 1-.3 2.446.01.01 0 0 0 .017.005 7.7 7.7 0 0 0 .296-2.45.007.007 0 0 0-.013-.001m-.442 5.501q.002-.212-.006-.424l-.03-.846a.005.005 0 0 0-.009 0l-.03.846q-.007.212-.006.424a.9.9 0 0 0 .026.366.017.017 0 0 0 .03 0 .9.9 0 0 0 .026-.366m1.739 1.171.004.488a.006.006 0 0 0 .011 0l.004-.488a.01.01 0 0 0-.019 0M150.8 82.22a16 16 0 0 1-2.024.978 7 7 0 0 0-.846.26c-.336.152-.661.3-1.01.424a29 29 0 0 1-3.947 1.104c-.005 0-.004.01.001.009a19.6 19.6 0 0 0 4.077-.906c.334-.113.673-.215 1.006-.33a5 5 0 0 0 .836-.463c.637-.372 1.319-.613 1.938-1.024a.03.03 0 0 0-.03-.051m15.155-8.415c-.619.213-1.183.553-1.8.773l-.026.01c.028-.017.057-.03.084-.049.025-.017.019-.065-.017-.063a3.2 3.2 0 0 0-1.076.268 8 8 0 0 0-.97.45c-.654.387-1.315.765-1.95 1.182-.012.007.001.014.01.018-.426.205-.85.415-1.28.616-.008.004 0 .017.008.013a279 279 0 0 1 3.662-1.57 15 15 0 0 0 1.602-.766c.57-.322 1.199-.522 1.767-.85.017-.009.005-.038-.014-.032m13.542-5.537a4.6 4.6 0 0 0-1.508.487c-.534.246-1.064.494-1.611.707-1.094.427-2.136.934-3.25 1.313a.019.019 0 0 0 .01.036c.532-.143 1.066-.297 1.607-.4a8 8 0 0 0 .816-.15c.179-.053.355-.12.531-.185a4.65 4.65 0 0 0 2.101-.706l.096-.033a5.5 5.5 0 0 0 1.316-.67c.157-.11.123-.42-.108-.4M27.09 66.579c-.017-.007-.024.02-.007.027 2.06.804 4.06 1.732 6.06 2.675.012.006.023-.012.01-.02a54 54 0 0 0-6.063-2.682m6.052-.547a5 5 0 0 0-.68-.333q-.405-.145-.809-.293-.779-.285-1.555-.579c-1.054-.4-2.106-.803-3.163-1.195-.012-.004-.016.014-.005.018 1.025.424 2.055.838 3.084 1.253q.743.3 1.483.61.443.184.886.373a5 5 0 0 0 .728.22c.043.012.073-.052.031-.074m3.404 1.363a1.9 1.9 0 0 0-.592-.237l-.68-.234q-.68-.24-1.356-.485c-.006-.002-.008.007-.003.01q.66.257 1.32.52.323.13.645.263l.335.137a.9.9 0 0 0 .304.092.039.039 0 0 0 .027-.066m3.271-2.011a4.6 4.6 0 0 0-1.07-.445q-.623-.227-1.249-.448-1.205-.43-2.409-.865c-1.634-.591-3.266-1.19-4.904-1.772-.005-.002-.008.007-.002.01 1.622.631 3.251 1.246 4.877 1.867q1.198.458 2.393.923.62.242 1.241.479a4.6 4.6 0 0 0 1.094.357c.061.007.07-.078.029-.106m2.435-1.666c-1.391-.578-2.831-1.055-4.242-1.583q-2.122-.794-4.24-1.597c-.01-.004-.014.012-.004.016q2.11.832 4.22 1.669c1.402.558 2.793 1.174 4.215 1.682.12.043.164-.14.051-.187m2.904-1.389a.05.05 0 0 0-.045 0l-.042.025a.036.036 0 0 0 .027.064c-.243.044-.718-.265-.964-.372l-.981-.426q-.914-.392-1.83-.782-1.898-.81-3.796-1.625c-.016-.007-.03.016-.014.024q2.464 1.122 4.921 2.26.59.27 1.18.537a11 11 0 0 0 1.254.562c.111.034.285.1.37-.029a.165.165 0 0 0-.08-.238m3.084-1.252a12 12 0 0 0-1.52-.637l-1.586-.61q-1.615-.62-3.231-1.234c-.017-.007-.024.02-.008.027l3.155 1.279q.759.307 1.52.611a13 13 0 0 0 1.65.612.026.026 0 0 0 .02-.048m3.419-1.307c-.386-.157-.803-.251-1.2-.376q-.58-.18-1.153-.376-1.168-.398-2.32-.845c-.016-.007-.023.02-.007.027q1.14.482 2.306.891.573.201 1.15.387a9 9 0 0 0 1.208.352.03.03 0 0 0 .016-.06m.028-2.047a.007.007 0 0 0-.004.015c.75.246 1.495.515 2.263.7a.013.013 0 0 0 .007-.025c-.74-.278-1.507-.473-2.266-.69m4.154-.232q-.281-.13-.566-.253c-.018-.008-.034.018-.016.027q.283.14.57.27c.184.085.37.175.56.246.012.004.019-.014.009-.02-.18-.099-.37-.183-.557-.27M126.685 74.1a4 4 0 0 0-.45.151l-.447.168c-.022.008-.013.044.01.036l.458-.16a4 4 0 0 0 .44-.171c.013-.007.003-.028-.01-.024m1.482-.467a.1.1 0 0 0-.052.003l-.055.016a1 1 0 0 0-.108.033q-.05.024-.102.046l-.108.042c-.02.008-.012.038.01.032q.108-.031.22-.055a1 1 0 0 0 .104-.037.2.2 0 0 0 .1-.048.02.02 0 0 0-.01-.032m-.092 1.462c-.163.039-.327.075-.488.122l-.484.138a.017.017 0 0 0 .009.032l.487-.126c.162-.043.322-.094.482-.144a.011.011 0 0 0-.006-.022M243.819 36.43q-.797 1.944-1.485 3.928c-.23.66-.456 1.323-.721 1.97-.149.363-.312.72-.474 1.076a1.06 1.06 0 0 0-.16.64c.008.048.069.052.1.026a1.3 1.3 0 0 0 .322-.716q.14-.504.301-1.001c.218-.665.476-1.316.729-1.968q.759-1.956 1.413-3.948c.006-.016-.019-.022-.025-.007m.411 2.271a27 27 0 0 0-1.34 3.257q-.294.829-.598 1.653-.153.414-.318.823a1.9 1.9 0 0 0-.263.853c.005.042.056.074.09.037a1.5 1.5 0 0 0 .25-.673 16 16 0 0 1 .257-.905c.18-.558.38-1.11.59-1.656.438-1.134.937-2.238 1.346-3.383a.007.007 0 0 0-.014-.006m.423 2.315q-.626 1.41-1.203 2.84c-.198.494-.387.991-.585 1.484-.2.498-.455.969-.648 1.469-.052.134.13.2.219.127a.22.22 0 0 0 .081-.208c.153-.452.27-.914.438-1.363.18-.48.373-.955.564-1.43q.583-1.453 1.186-2.898c.012-.029-.039-.05-.052-.021m.382 2.265q-.217.389-.44.773a4 4 0 0 0-.22.402c-.054.127-.128.298-.014.405l.005.017c.002.006.011.002.016.007l.006.007-.005-.007c.014.015.031.033.049.02l.057-.007a.15.15 0 0 0 .066-.039.3.3 0 0 0 .086-.114 2 2 0 0 0 .069-.197c.04-.137.066-.28.101-.418a7 7 0 0 1 .275-.827c.012-.03-.036-.05-.051-.022m-.883 2.492q-.25.583-.492 1.169c-.08.195-.16.39-.23.588a1.2 1.2 0 0 0-.12.592.036.036 0 0 0 .06.015 1.2 1.2 0 0 0 .232-.513q.094-.311.182-.625.177-.614.391-1.216c.005-.014-.018-.023-.023-.01m1.552-.565q-.474 1.11-.923 2.231-.227.57-.448 1.14c-.074.19-.154.38-.21.575-.032.11-.048.19.053.258a.074.074 0 0 0 .089-.011c.02-.018.015-.039.017-.057l.004.005a2.3 2.3 0 0 1 .164-.442l.179-.54q.174-.522.353-1.04.367-1.057.756-2.105c.007-.02-.026-.034-.034-.014m.406 2.944a8 8 0 0 0-.462 1.033q-.096.27-.166.547a1.4 1.4 0 0 0-.088.52c.003.018.03.018.038.004a2 2 0 0 0 .145-.518 10 10 0 0 1 .15-.511 9 9 0 0 1 .411-1.058c.01-.019-.018-.036-.029-.017m.821 2.335a2 2 0 0 0-.076.39 2 2 0 0 0 .005.406.015.015 0 0 0 .03 0 6 6 0 0 1 .073-.787.017.017 0 0 0-.032-.009m14.919 10.134a27.3 27.3 0 0 0-4.121 3.636 22 22 0 0 0-1.695 2.088 7.4 7.4 0 0 0-.697 1.12 1.63 1.63 0 0 0-.092 1.099.03.03 0 0 0 .058 0 2 2 0 0 1 .267-.581c.1-.195.163-.406.273-.6.198-.346.433-.67.66-.998a28 28 0 0 1 1.626-2.11 23.8 23.8 0 0 1 3.766-3.577c.045-.034.002-.111-.045-.077m-2.495 4.426c-1.731 1.892-3.591 4.032-4.03 6.642-.013-.007-.02-.016-.036-.024a2 2 0 0 1-.182-.074c-.18-.13-.163-.277-.16-.468a6.8 6.8 0 0 1 .287-1.82c.002-.007-.009-.01-.011-.003a8.7 8.7 0 0 0-.44 1.812c-.022.169-.082.383.029.534.067.092.466.18.472.249.007.096.163.135.182.025.453-2.728 2.184-4.803 3.902-6.86.008-.01-.005-.022-.013-.013m1.203.406a18 18 0 0 0-1.735 1.943 8.3 8.3 0 0 0-1.31 2.243c-.015.044.049.065.072.03.482-.7.891-1.45 1.367-2.156a15.5 15.5 0 0 1 1.635-2.031.02.02 0 0 0-.029-.03m36.501 23.808a13.8 13.8 0 0 0-3.09 3.602 9.7 9.7 0 0 0-.874 2.226 1.5 1.5 0 0 0-.06.592 3 3 0 0 1-.06.84c-.068.419-.142.84-.18 1.263-.007.066.105.082.117.016.07-.415.104-.835.165-1.252a2.4 2.4 0 0 1 .185-.73 2 2 0 0 0 .2-.465 10 10 0 0 1 .838-2.376 13.6 13.6 0 0 1 2.825-3.65c.044-.042-.021-.106-.066-.067m-.453 3.018a6 6 0 0 0-.964 1.216c-.119.206-.265.404-.373.61a2.5 2.5 0 0 0-.211.79 12.5 12.5 0 0 1-.223 1.773 5.9 5.9 0 0 1-.874 1.689.19.19 0 0 0 0 .19l.028.052a.1.1 0 0 0 .084.048l.051-.006a.2.2 0 0 0 .182-.139c.194-.51.401-1.019.573-1.537.183-.556.234-1.132.388-1.693.067-.248.159-.488.244-.73.094-.266.125-.551.24-.805a5.7 5.7 0 0 1 .897-1.416c.025-.029-.015-.07-.042-.042m-.259 4.701-.121.183c-.008.012.01.023.02.012l.127-.18c.011-.015-.015-.03-.026-.015m-.096-22.563c.006-.011-.01-.02-.016-.01a.55.55 0 0 0-.054.374c.002.01.017.006.015-.004a.53.53 0 0 1 .055-.36m1.307-2.157-.182.406a6 6 0 0 0-.159.405c-.005.016.02.027.028.012.067-.13.133-.257.19-.391l.174-.402c.015-.034-.036-.065-.051-.03m14.72-3.566-.007.001c-.003-.04-.054-.064-.076-.023a3.4 3.4 0 0 0-.24.703q-.103.365-.18.737a10 10 0 0 0-.196 1.493.038.038 0 0 0 .074.01c.115-.49.221-.983.328-1.476l.154-.714c.04-.183.087-.37.117-.559.001-.003.006-.002.006-.006a1 1 0 0 1 .019-.154Zm-1.101-1.248a1.6 1.6 0 0 0-.185.447q-.088.263-.17.529-.166.53-.3 1.07-.136.538-.26 1.08a4.8 4.8 0 0 0-.188 1.026.038.038 0 0 0 .073.01 8 8 0 0 0 .228-1.087q.111-.525.25-1.042.142-.517.296-1.03.08-.266.165-.53a1.8 1.8 0 0 0 .122-.464c.001-.018-.022-.021-.03-.009m-1.18-.068a19 19 0 0 0-.803 2.133c-.116.37-.174.75-.27 1.125a7 7 0 0 0-.275 1.092c-.005.048.066.052.08.01.128-.36.159-.758.257-1.128.096-.36.242-.703.347-1.06.215-.725.447-1.446.688-2.162.004-.014-.018-.024-.024-.01m-1.41.551a21 21 0 0 0-.775 2.255q-.16.564-.33 1.124-.085.28-.166.561a.8.8 0 0 0-.067.477.034.034 0 0 0 .056.014.74.74 0 0 0 .143-.411q.056-.288.117-.575.127-.593.309-1.173c.237-.758.497-1.51.756-2.26.01-.028-.033-.038-.043-.012m-1.338.309c-.27.86-.558 1.715-.847 2.57q-.214.628-.439 1.252-.117.324-.236.647a1.9 1.9 0 0 0-.173.568.02.02 0 0 0 .035.014 1.5 1.5 0 0 0 .214-.46q.12-.322.236-.646.233-.648.453-1.3c.293-.87.554-1.749.8-2.633a.022.022 0 0 0-.043-.012m-1.585.914c-.292.76-.586 1.521-.874 2.284q-.208.55-.413 1.102a6.5 6.5 0 0 0-.408 1.196.023.023 0 0 0 .04.018 6 6 0 0 0 .439-1.101l.413-1.149c.28-.78.553-1.562.828-2.343.006-.016-.02-.023-.025-.007m-1.434.374c-.36.808-.706 1.62-1.014 2.45-.154.413-.296.831-.45 1.244a5.5 5.5 0 0 0-.43 1.257c-.002.02.026.024.035.01a5.8 5.8 0 0 0 .405-1.166c.14-.435.31-.861.475-1.286.325-.837.65-1.674.993-2.503.003-.008-.01-.013-.014-.006m-2.139 1.766q-.32.734-.598 1.485a9 9 0 0 0-.487 1.576.019.019 0 0 0 .036.01c.21-.498.344-1.026.52-1.537q.264-.766.573-1.515c.01-.025-.033-.044-.044-.018m-1.913.965-.38.678a6 6 0 0 0-.323.686c-.008.02.023.032.034.015a6 6 0 0 0 .387-.66l.34-.685c.019-.039-.037-.072-.058-.034m-22.414-29.55c-.034-.012-.049.042-.015.054a33 33 0 0 1 4.078 1.718c.014.008.028-.014.013-.022a22 22 0 0 0-4.076-1.75m9.069 3.934c-.265-.106-.528-.216-.794-.319q-.785-.3-1.57-.596c-.009-.003-.014.01-.007.014.51.232 1.018.467 1.529.696q.377.167.758.329a2.4 2.4 0 0 0 .72.243.023.023 0 0 0 .016-.038 2.3 2.3 0 0 0-.652-.329m3.322-.542a11 11 0 0 0-2.442-1.106c-.815-.359-1.626-.727-2.438-1.092a169 169 0 0 0-4.925-2.1c-.025-.01-.044.033-.019.044 1.662.724 3.32 1.457 4.985 2.173q1.23.526 2.448 1.076a11.3 11.3 0 0 0 2.358 1.062c.029.005.062-.034.033-.057m-6.421-5.129c-.016-.006-.022.019-.007.025 1.161.478 2.29 1.027 3.428 1.557.015.007.028-.015.013-.023a25 25 0 0 0-3.434-1.56m6.558 3.012c-.062-.034-.13-.06-.195-.09-.125-.058-.255-.108-.383-.16q-.396-.163-.792-.33c-.027-.01-.046.036-.02.049q.387.187.772.376c.129.063.256.128.388.186.06.026.121.057.184.08a2 2 0 0 0 .207.048.019.019 0 0 0 .014-.034 2 2 0 0 0-.175-.124M289.733 41a16 16 0 0 0-1.111-.64c-.38-.198-.77-.38-1.155-.566-.023-.011-.044.022-.02.036.368.215.735.436 1.11.64q.566.306 1.155.566a.02.02 0 0 0 .02-.036m-.945-12.753c-.026-.04-.09-.003-.064.037a37 37 0 0 0 3.104 4.348c.018.02.053-.006.038-.03-.989-1.477-2.088-2.877-3.078-4.355m6.487 4.993-.706-.945c-.446-.6-.86-1.224-1.313-1.817a29.4 29.4 0 0 1-2.335-3.814c-.005-.009-.018-.001-.013.008a31 31 0 0 0 2.242 3.95c.44.635.95 1.228 1.415 1.845a13 13 0 0 0 1.358 1.759.02.02 0 0 0 .033-.025 7 7 0 0 0-.681-.96m2.507.173q-.336-.49-.664-.986-.613-.931-1.207-1.874-1.227-1.949-2.384-3.942a.03.03 0 0 0-.051.03q1.152 2.038 2.4 4.018.615.974 1.25 1.935a13 13 0 0 0 1.262 1.848c.026.027.064-.007.05-.039a7.6 7.6 0 0 0-.656-.99m1.869-.319q-.55-.902-1.081-1.815-1.067-1.822-2.087-3.672c-.016-.03-.061-.003-.045.026.67 1.24 1.356 2.469 2.068 3.684q.534.91 1.083 1.813c.362.598.693 1.236 1.11 1.797a.037.037 0 0 0 .064-.037c-.326-.62-.748-1.197-1.112-1.796m2.385.462-1.005-1.834q-.988-1.802-1.99-3.597c-.019-.033-.07-.003-.052.03q.973 1.812 1.952 3.62l.965 1.773c.33.606.628 1.257 1.015 1.829a.041.041 0 0 0 .07-.042c-.263-.613-.634-1.195-.955-1.78m.266-2.665c-.009-.014-.032 0-.022.014l.539.8c.006.01.022 0 .016-.01Zm2.486 4.012q-.131-.213-.267-.423a19 19 0 0 0-.576-.839c-.01-.013-.032 0-.023.014q.278.424.539.86.128.215.251.432a2 2 0 0 0 .264.413.02.02 0 0 0 .034-.02 1.8 1.8 0 0 0-.223-.437m2.054-.576q-.42-.684-.854-1.36a63 63 0 0 0-1.828-2.703c-.01-.014-.031-.002-.022.013.582.916 1.16 1.836 1.719 2.767q.413.688.813 1.383l.409.72a1.5 1.5 0 0 0 .39.51.032.032 0 0 0 .048-.028 3.6 3.6 0 0 0-.676-1.302m3.245 1.544a27 27 0 0 1-.468-.667 43 43 0 0 1-.825-1.283c-.556-.892-1.096-1.795-1.637-2.697a.01.01 0 0 0-.016.01 97 97 0 0 0 1.621 2.765q.416.67.845 1.33a7 7 0 0 0 .875 1.262.041.041 0 0 0 .065-.05 5 5 0 0 0-.46-.67m2.751.633q-.198-.288-.394-.577-.405-.596-.815-1.189a62 62 0 0 0-1.667-2.298c-.007-.01-.023 0-.016.01a62 62 0 0 1 1.637 2.365q.385.582.764 1.168.202.312.4.625a1.2 1.2 0 0 0 .306.38c.018.012.04-.009.035-.028a1.3 1.3 0 0 0-.25-.456m1.799-.191q-.23-.288-.47-.566-.483-.554-.993-1.084c-.015-.016-.038.008-.024.024q.488.537.95 1.097.229.275.455.551a7 7 0 0 0 .472.562.017.017 0 0 0 .026-.02 5 5 0 0 0-.416-.564m1.998.49c-.028-.012-.042.035-.013.046a1 1 0 0 1 .244.14 1.4 1.4 0 0 1 .197.196c.01.012.028-.003.02-.015a.9.9 0 0 0-.448-.367m2.136.918a1 1 0 0 0-.243-.125c-.025-.009-.036.031-.011.04a1 1 0 0 1 .426.29c.008.01.025-.003.017-.014a.8.8 0 0 0-.19-.19m39.071 4.757c-.014-.016-.042.005-.03.022a15 15 0 0 0 1.95 2.269c.017.016.04-.008.026-.027-.616-.782-1.28-1.525-1.946-2.264m2.01-.541c-.014-.022-.05-.001-.035.021a7.5 7.5 0 0 0 1.358 1.64.013.013 0 0 0 .019-.018 12.5 12.5 0 0 1-1.342-1.643m2.684 2.926c-.005-.005-.013.003-.008.008.318.372.627.755.961 1.112.01.011.025-.005.016-.016-.308-.38-.644-.738-.969-1.104m.356-2.674c-.007-.01-.023 0-.016.01a14.1 14.1 0 0 0 3.005 3.166c.012.009.027-.01.016-.02a22.7 22.7 0 0 1-3.005-3.156m6.116 3.951c-.758-.696-1.565-1.335-2.312-2.045a32 32 0 0 1-2.127-2.24c-.021-.024-.053.01-.035.035a23.5 23.5 0 0 0 2.096 2.326 14.7 14.7 0 0 0 2.355 1.953.019.019 0 0 0 .023-.029m2.526-.208a6 6 0 0 0-.6-.407q-.352-.24-.684-.51a14 14 0 0 1-1.143-1.046c-.74-.75-1.41-1.564-2.098-2.36-.011-.013-.034.004-.024.017a26 26 0 0 0 2.075 2.443 13 13 0 0 0 1.176 1.066 4.7 4.7 0 0 0 1.277.835.023.023 0 0 0 .021-.038m2.098-.323a9 9 0 0 0-.938-.867q-.489-.44-.962-.896c-.622-.6-1.233-1.21-1.82-1.844-.017-.018-.043.008-.027.026a31 31 0 0 0 1.787 1.927q.457.449.928.88a6.3 6.3 0 0 0 .994.824c.032.02.06-.023.038-.05m1.842-.318a8 8 0 0 0-.766-.649q-.382-.326-.747-.672-.732-.69-1.398-1.443c-.016-.018-.041.008-.026.026a19 19 0 0 0 1.385 1.493q.363.348.743.677a4.6 4.6 0 0 0 .775.612.028.028 0 0 0 .034-.044m1.826-.912a7 7 0 0 0-.774-.692l-.796-.67c-.017-.013-.04.01-.024.025l.782.705a7 7 0 0 0 .787.665c.02.013.04-.016.025-.033m1.35-.64-.14-.062c-.096-.041-.198-.07-.296-.105a.019.019 0 0 0-.015.034c.091.048.18.104.274.145l.14.061.072.026a.2.2 0 0 0 .074.014c.014-.002.028-.017.018-.031a.3.3 0 0 0-.127-.082m2.182-.1a.015.015 0 0 0 0 .03l.244-.006a.01.01 0 0 0 0-.019Zm-56.603-5.018c-.028-.034-.074.014-.047.047a22 22 0 0 0 1.406 1.706c.017.018.05-.006.035-.028a22 22 0 0 0-1.394-1.725m2.265.498a97 97 0 0 0-1.476-1.652c-.01-.01-.025.005-.016.016.458.569.918 1.134 1.388 1.692a21 21 0 0 0 1.45 1.63c.014.013.038-.004.027-.02a21 21 0 0 0-1.373-1.667m2.365.545a88 88 0 0 1-1.64-1.893c-.008-.01-.02.004-.013.013a49 49 0 0 0 1.599 1.934 20 20 0 0 0 1.71 1.83.017.017 0 0 0 .025-.023c-.522-.65-1.128-1.237-1.681-1.861m.688-1.715c-.008-.01-.025.003-.017.013a17.7 17.7 0 0 0 3.56 3.762c.009.007.022-.005.013-.013a28 28 0 0 1-3.556-3.762m4.344 2.818-1.19-1.28c-.014-.017-.038.007-.023.023l1.169 1.301c.39.434.772.874 1.191 1.28.014.014.033-.007.021-.021-.366-.454-.77-.876-1.168-1.303m3.021.723q-.208-.165-.414-.333-.415-.334-.805-.696c-.023-.021-.057.012-.035.034q.385.379.794.73a5 5 0 0 0 .851.624c.015.008.031-.011.019-.023-.128-.12-.272-.226-.41-.335m2.081.486q-.083-.04-.168-.077l-.335-.154c-.026-.012-.05.026-.023.039l.338.163q.082.041.166.08.084.034.171.064c.014.005.023-.016.01-.024-.053-.03-.105-.064-.16-.091m2.234.258a1 1 0 0 1-.308-.02 1.2 1.2 0 0 1-.292-.104.02.02 0 0 0-.02.036.8.8 0 0 0 .302.122.9.9 0 0 0 .321-.008.013.013 0 0 0-.003-.026m-5.581 2.808q-.62 1.356-1.183 2.737a23 23 0 0 0-1.033 2.899c-.006.024.03.041.041.017.386-.894.693-1.825 1.04-2.735q.556-1.46 1.174-2.895c.011-.026-.026-.049-.039-.023m.614 6.109c-.37.894-.74 1.787-1.094 2.687-.004.01.013.017.017.007.376-.892.736-1.79 1.095-2.689.005-.01-.013-.016-.018-.005m-1.457 3.788-.059.156-.028.076-.015.04a.1.1 0 0 0-.008.04.013.013 0 0 0 .025.007.3.3 0 0 0 .03-.078l.022-.077.047-.16c.003-.01-.011-.014-.014-.005m2.058-.256c-.14.328-.286.654-.409.99a.011.011 0 0 0 .021.008c.156-.319.288-.649.427-.975.011-.026-.027-.05-.039-.023m9.457-6.835q-.492 1.128-.976 2.26a20 20 0 0 0-.886 2.212.017.017 0 0 0 .03.013 23 23 0 0 0 .927-2.196q.46-1.14.928-2.278c.006-.014-.018-.024-.023-.01m.152 2.701a20 20 0 0 1-.988 2.188.017.017 0 0 0 .029.017 10.3 10.3 0 0 0 .977-2.2c.004-.012-.014-.017-.018-.006m-69.233 1.041c-.069.279-.154.555-.213.836-.051.248-.087.498-.12.75q-.056.42-.147.834a1.8 1.8 0 0 0-.108.754.036.036 0 0 0 .065.008 1.8 1.8 0 0 0 .154-.731q.058-.413.154-.819c.062-.26.122-.52.167-.783.046-.275.067-.556.106-.832.005-.037-.048-.055-.058-.016m.897.911c-.136.71-.226 1.429-.376 2.136a.011.011 0 0 0 .021.006 9.3 9.3 0 0 0 .377-2.139c0-.012-.02-.015-.022-.003m-.529 3.411a13 13 0 0 1-.294.995c-.031.09-.089.226-.033.316a.05.05 0 0 0 .067.017c.09-.055.1-.194.111-.288q.023-.173.05-.346c.036-.23.083-.457.131-.686.005-.02-.026-.03-.032-.008m1.526-1.949a19 19 0 0 1-.546 3.015l-.318 1.5a12 12 0 0 0-.29 1.396c-.004.04.054.043.066.01a13 13 0 0 0 .325-1.5l.333-1.558a14 14 0 0 0 .467-2.863.019.019 0 0 0-.037 0m.748 2.205q-.328 1.49-.622 2.988-.148.749-.292 1.499a8 8 0 0 1-.17.743c-.037.125-.12.245-.04.364a.08.08 0 0 0 .082.033c.06-.01.09-.045.076-.103a.028.028 0 0 0-.047-.012c.04-.04.03-.14.036-.214.015-.158.04-.315.067-.472.038-.214.084-.428.127-.642q.14-.694.278-1.39.273-1.393.523-2.79c.002-.011-.015-.016-.018-.004m.732 2.128q-.229 1.253-.433 2.51a51 51 0 0 1-.217 1.252 8.5 8.5 0 0 0-.184 1.18.075.075 0 0 0 .147.019 10 10 0 0 0 .147-1.185q.067-.652.165-1.301.183-1.237.39-2.47c0-.01-.014-.014-.015-.005m.328 3.724-.094 1.284-.046.63a3.6 3.6 0 0 0-.038.654c.004.03.047.04.055.008a3.3 3.3 0 0 0 .045-.612l.037-.655.075-1.309c.001-.022-.032-.021-.034 0m.726 2.347q-.006-.653.03-1.306c.001-.014-.02-.014-.022 0q-.06.652-.081 1.306-.009.327-.001.654a2.5 2.5 0 0 0 .045.608c.005.016.033.018.036 0a3 3 0 0 0 .002-.608q-.007-.327-.008-.654m.941 1.287-.083-1.129c-.001-.023-.038-.024-.037 0l.065 1.15a9 9 0 0 0 .087 1.11c.003.015.025.01.026-.003a9 9 0 0 0-.058-1.128m.859-.28c-.001-.01-.019-.008-.018.002.09.878.169 1.763.316 2.633.003.015.027.012.026-.003-.065-.88-.201-1.758-.324-2.632m1.616 2.98a32 32 0 0 0-.235-1.27c-.005-.02-.04-.016-.037.005.05.415.114.827.18 1.24.068.425.132.85.237 1.269.004.018.034.015.033-.004-.035-.417-.108-.828-.178-1.24m1.396 1.442c-.105-.6-.22-1.2-.334-1.798-.004-.02-.032-.011-.03.007.093.593.186 1.185.288 1.775.102.588.185 1.184.329 1.764.004.016.03.013.03-.004-.06-.585-.182-1.165-.283-1.744m1.737 2.412c-.161-1.058-.316-2.117-.5-3.17-.004-.021-.04-.017-.038.004.133 1.024.294 2.043.45 3.063.16 1.055.28 2.128.492 3.173.006.03.058.025.055-.007-.105-1.024-.303-2.045-.459-3.063m.975-1.524c-.003-.014-.027-.011-.026.003a21 21 0 0 0 .32 2.077c.004.016.032.013.03-.004a21 21 0 0 0-.324-2.076m.687 5.09-.078-.546q-.078-.537-.16-1.07c-.006-.034-.063-.026-.06.007q.054.54.111 1.077l.058.529a1.6 1.6 0 0 0 .093.485.036.036 0 0 0 .065-.009 1.5 1.5 0 0 0-.029-.473m1.331.385q-.097-.62-.208-1.239a29 29 0 0 0-.524-2.407c-.006-.019-.033-.01-.03.008.144.795.305 1.586.449 2.38q.108.595.204 1.192a11 11 0 0 0 .205 1.19.02.02 0 0 0 .04-.006 7.6 7.6 0 0 0-.136-1.118m1.222.023a25 25 0 0 0-.626-2.018.01.01 0 0 0-.018.005c.177.668.324 1.345.474 2.02a19 19 0 0 0 .48 2.013.019.019 0 0 0 .036-.005 8.8 8.8 0 0 0-.346-2.015m1.559 1.099c-.105-.29-.22-.577-.334-.865-.01-.026-.051-.016-.043.012.088.295.175.59.272.882a4 4 0 0 0 .325.838c.01.017.044.012.042-.012a4 4 0 0 0-.262-.855m1.474 1.611a1 1 0 0 0-.076-.078l-.151-.154a.032.032 0 0 0-.045.045l.153.152a1 1 0 0 0 .076.074l.086.069a.017.017 0 0 0 .024-.024Zm.676.641-.062-.061-.013-.016-.003-.003-.005-.007-.023-.036-.01-.018-.004-.01c-.006-.012.004.01 0-.002l-.015-.042a.052.052 0 1 0-.1.028.4.4 0 0 0 .101.178.3.3 0 0 0 .082.06.3.3 0 0 0 .1.023c.024.002.028-.03.012-.042q-.031-.025-.06-.052m3.112 1.948c-.004-.006-.012.002-.007.008l.78.985.006-.005zm2.194 1.193a27 27 0 0 0-1.582-1.868c-.025-.027-.063.012-.04.04a31 31 0 0 1 1.542 1.925c.48.645.92 1.318 1.4 1.962a.019.019 0 0 0 .033-.02 14 14 0 0 0-1.353-2.04m1.436-.154a.4.4 0 0 0-.026-.124c-.04-.08-.123-.102-.182-.16-.131-.13-.248-.277-.374-.412q-.378-.403-.792-.768a.013.013 0 0 0-.019.018q.368.394.706.813a5 5 0 0 1 .328.43 1 1 0 0 1 .05.085.4.4 0 0 0 .051.129.26.26 0 0 0 .113.073.5.5 0 0 1 .13.079c.022.017.067.001.054-.031a.5.5 0 0 1-.039-.132m1.467 1.944a6 6 0 0 0-.434-.593q-.267-.327-.556-.635c-.009-.01-.026.003-.018.013.3.395.56.813.828 1.229.036.056.128.245.215.215.097-.034-.006-.182-.035-.23m1.094-.523-.519-.717a80 80 0 0 0-1.077-1.445c-.014-.019-.045-.002-.032.018.333.498.665.996 1.008 1.486l.507.725.262.374a1.8 1.8 0 0 0 .255.327c.034.03.105.001.084-.05a3.8 3.8 0 0 0-.488-.717m1.515-.276c-.34-.413-.694-.812-1.053-1.208-.007-.007-.021.003-.015.012.31.42.622.838.952 1.243a11 11 0 0 0 1.046 1.215.019.019 0 0 0 .03-.023 10.6 10.6 0 0 0-.96-1.239m2.275.894-.288-.322c-.191-.214-.4-.415-.601-.619-.01-.01-.025.005-.016.016.183.223.36.452.554.666l.282.31c.099.11.21.21.316.312.016.016.037-.007.024-.023-.09-.114-.175-.233-.27-.34m2.226.704a7.4 7.4 0 0 0-1.177-.9c-.012-.009-.027.01-.016.02a7.4 7.4 0 0 0 1.163.918.024.024 0 0 0 .03-.038m-19.989 5.249a15.2 15.2 0 0 0-1.15 2.937.01.01 0 0 0 .019.005 19 19 0 0 1 1.147-2.933c.005-.01-.01-.02-.016-.01m-16.682-52.255a5.8 5.8 0 0 0-.317-1.16c-.19-.353-.393-.685-.565-1.051a64 64 0 0 0-1.149-2.31c-.017-.032-.062-.004-.048.029a25 25 0 0 1 .913 2.4c.128.396.177.777.268 1.176a10 10 0 0 0 .465 1.125 45 45 0 0 1 1.34 4.642c.011.044.087.036.081-.01a29 29 0 0 0-.988-4.841m-.602-5.296c-.016-.033-.062-.005-.048.028.35.798.696 1.606 1.124 2.367.011.02.046.006.037-.016-.316-.816-.719-1.6-1.113-2.38m41.085 15.101a17 17 0 0 0-2.518 2.323c-.078.085-.17.144-.25.22a1.4 1.4 0 0 0-.181.318c-.15.25-.322.487-.478.734a10 10 0 0 0-.856 1.503c-.03.072.086.117.123.052.277-.485.501-.993.81-1.461a7 7 0 0 1 .508-.694 3 3 0 0 0 .273-.277c.055-.086.081-.182.145-.27a12 12 0 0 1 2.443-2.416c.019-.014.001-.046-.019-.032m-.352 2.027q-.568.589-1.1 1.212-.26.307-.512.623a5 5 0 0 0-.459.642.01.01 0 0 0 .015.012 7 7 0 0 0 .48-.597q.257-.336.526-.663.512-.625 1.063-1.216c.009-.008-.005-.021-.013-.013m-2.934 3.753-.307.442a2.2 2.2 0 0 0-.279.444c-.006.017.017.027.028.017a2.2 2.2 0 0 0 .303-.43l.288-.454c.013-.02-.02-.038-.033-.018m2.689-1.405a21 21 0 0 0-1.508 1.785q-.356.472-.684.965-.16.24-.31.483a1.7 1.7 0 0 0-.27.516.028.028 0 0 0 .047.027 1.7 1.7 0 0 0 .288-.427q.148-.245.3-.489.315-.5.658-.98a21 21 0 0 1 1.498-1.862c.01-.012-.007-.03-.019-.018m1.669.386c-.43.394-.841.805-1.25 1.22-.203.207-.41.412-.611.622a5 5 0 0 0-.422.683c-.331.461-.704.893-1.04 1.352q-.259.352-.5.718a1.8 1.8 0 0 0-.355.675.052.052 0 0 0 .079.045 1.8 1.8 0 0 0 .38-.553q.221-.376.45-.748a11 11 0 0 1 1.01-1.472c.172-.2.402-.307.558-.52.177-.24.356-.477.547-.706.374-.447.78-.867 1.194-1.276.026-.026-.013-.064-.04-.04m-.174 2.177q-.927.917-1.769 1.914a16 16 0 0 0-1.506 2.049c-.01.016.014.036.026.02.526-.676 1.024-1.371 1.562-2.038q.807-1.003 1.703-1.93a.011.011 0 0 0-.016-.015m-.706 2.741a24 24 0 0 0-2.423 2.864c-.007.01.01.023.017.013.809-.954 1.58-1.933 2.435-2.848.018-.019-.011-.048-.03-.029m-1.512 2.942a22 22 0 0 0-.536.75c-.17.255-.321.52-.47.787-.01.018.015.04.028.023a9 9 0 0 0 .533-.739c.167-.264.318-.533.467-.807a.013.013 0 0 0-.022-.014m-1.017 2.984a1.7 1.7 0 0 0-.205.38 1 1 0 0 0-.053.208.6.6 0 0 0 .026.216.02.02 0 0 0 .04 0 2 2 0 0 0 .058-.199q.015-.097.033-.195a1.6 1.6 0 0 1 .127-.394.015.015 0 0 0-.026-.016m-9.188-17.483c-.001-.012-.019-.007-.017.005a16 16 0 0 0 .535 2.444.011.011 0 0 0 .022-.006c-.193-.812-.395-1.621-.54-2.443m1.587 3.037a2.2 2.2 0 0 0-.132-.496 10 10 0 0 1-.148-.659 13 13 0 0 1-.237-2.67.03.03 0 0 0-.06 0 13 13 0 0 0 .124 2.668q.05.335.119.667c.026.127.028.273.06.396a1.2 1.2 0 0 0 .109.223c.2.404.256.864.494 1.255a.023.023 0 0 0 .04-.017 8.3 8.3 0 0 1-.369-1.368m1.049.513q-.166-.562-.288-1.134c-.086-.406-.134-.819-.186-1.23-.048-.374-.063-.758-.147-1.126-.004-.02-.03-.014-.033.004a8.4 8.4 0 0 0 .279 2.331q.115.596.265 1.185a3.2 3.2 0 0 0 .372 1.072c.012.017.043.013.042-.011a4.8 4.8 0 0 0-.304-1.091m.599-2.172c-.002-.019-.032-.02-.03 0 .044.479.09.957.146 1.435.002.014.024.015.023 0q-.059-.719-.139-1.435m.579 3.684-.075-.265-.156-.551a.006.006 0 0 0-.01.003l.125.559.061.27a.6.6 0 0 0 .08.249.015.015 0 0 0 .025-.007.6.6 0 0 0-.05-.258m.376-2.47c-.005-.027-.043-.015-.039.01.061.422.123.841.223 1.255.004.018.035.015.033-.004-.047-.426-.13-.843-.216-1.261m42.479-21.508a3.6 3.6 0 0 0-.93.54q-.48.324-.93.69c-.304.248-.594.516-.887.777a5 5 0 0 0-.841.857.9.9 0 0 0-.176.49 3.5 3.5 0 0 1-.122.65c-.101.402-.214.798-.276 1.209a9 9 0 0 1-.127 1.226c-.11.355-.514.422-.718.717-.026.04.036.074.063.037.187-.256.53-.312.707-.573a1.74 1.74 0 0 0 .164-.83 7 7 0 0 1 .24-1.258 2.6 2.6 0 0 1 .27-.655c.117-.188.293-.296.42-.467.225-.303.315-.697.52-1.015a4.2 4.2 0 0 1 .788-.89c.321-.283.661-.54 1.006-.792a4.4 4.4 0 0 0 .854-.671c.015-.018.002-.05-.024-.042m.608.801c-.302.306-.622.593-.94.881a4 4 0 0 0-.445.456 2.5 2.5 0 0 0-.362.539c-.02.049.015.128.079.103a2 2 0 0 0 .528-.347 3 3 0 0 0 .458-.508c.26-.353.49-.723.717-1.097a.023.023 0 0 0-.035-.027m-5.175-1.587a2.3 2.3 0 0 0-.814.684 2.65 2.65 0 0 0-.413.984c-.007.035.046.063.062.026a4.6 4.6 0 0 1 .53-.875 6 6 0 0 1 .659-.788.02.02 0 0 0-.024-.03M213.424 8.807a11 11 0 0 1-.342 1.692 1.8 1.8 0 0 1-.415.882 1.4 1.4 0 0 0-.4.61c-.1.248-.161.508-.257.757-.105.27-.24.527-.37.785-.128.252-.553.862-.161 1.075a.06.06 0 0 0 .065-.009 1.7 1.7 0 0 0 .327-.574c.13-.242.263-.482.39-.726a8.4 8.4 0 0 0 .741-1.39c.08-.264-.02-.514.041-.785.062-.265.148-.524.211-.79a6.7 6.7 0 0 0 .193-1.527c0-.015-.02-.014-.023 0m-5.09.227a4.6 4.6 0 0 0-.382.731 3.6 3.6 0 0 0-.195.813.028.028 0 0 0 .054.015c.1-.257.21-.51.305-.768.095-.255.177-.514.28-.766.015-.036-.042-.057-.062-.025m-71.605-.5c-2.268-.326-4.592-.313-6.876-.476-2.408-.171-4.811-.363-7.221-.51a28 28 0 0 1-1.776-.176 5.1 5.1 0 0 0-1.725-.083 15 15 0 0 1-3.595.03 51 51 0 0 0-7.134.349c-.02.002-.022.035 0 .033a51 51 0 0 1 7.017.232q.942.06 1.886.113a10 10 0 0 1 1.757.241 17 17 0 0 0 3.451.052c2.369.045 4.734.105 7.103.131 2.361.026 4.743.27 7.102.14.042-.002.057-.07.01-.076m37.921 63.361c-1.115.362-2.225.735-3.336 1.107a.017.017 0 0 0 .009.032c1.189-.342 2.374-.694 3.563-1.038.478-.139.974-.236 1.443-.405a11 11 0 0 0 1.186-.56l.79-.391a6 6 0 0 1-1.103.419c-.873.226-1.696.559-2.552.836m3.891-1.373q-.117.06-.235.118.118-.057.234-.118"/><path fill="currentColor" d="M389.745 30.422a17.6 17.6 0 0 0-6.03-1.01l-8.16-.527-16.322-1.055a12.7 12.7 0 0 1-3.83-.549c-1.095-.426-2.065-1.118-3.161-1.55-2.283-.898-4.782-.874-7.194-.987a26.7 26.7 0 0 1-7.343-1.459c-1.262-.423-2.511-.884-3.775-1.301-.63-.209-1.267-.398-1.903-.589a7.3 7.3 0 0 1-1.185-.969c-.648-.7-1.419-1.328-2.115-1.987a4.4 4.4 0 0 0-2.394-1.124 60 60 0 0 1-3.133-.669 103 103 0 0 1-11.979-3.892c-3.982-1.501-7.93-3.109-11.97-4.452a17.5 17.5 0 0 0-6.27-.872c-1.058.036-2.117.054-3.176.081a48 48 0 0 0-3.098-.265c-1.508-.07-3.008-.22-4.514-.307q-4.69-.274-9.384-.425c-3.032-.096-6.092-.31-9.124-.13-3.07.18-6.1.85-9.135 1.311q-2.499.38-4.99.803a37 37 0 0 0-5.15 1.102.05.05 0 0 0 .014.1 59 59 0 0 0 8.984-.869c3.07-.404 6.133-.832 9.217-1.113a75 75 0 0 1 9.115.017q1.238.037 2.477.07c-1.187.05-2.372.115-3.556.215a.059.059 0 0 0 0 .117c4.488.353 8.996.23 13.493.296 2.269.034 4.538.047 6.806.109a28.6 28.6 0 0 1 6.416.51 62 62 0 0 1 6.044 2.074c1.94.725 3.871 1.476 5.806 2.216a122 122 0 0 0 11.835 4.005q1.706.462 3.434.825c1.064.222 2.395.233 3.25.972.505.438.966.943 1.49 1.364l-1.042-.348a19 19 0 0 0-2.063-.506c-.072-.015-.123.085-.052.123a33 33 0 0 0 3.502 1.565c1.256.493 2.478 1.06 3.73 1.561a52 52 0 0 0 7.073 2.413 41 41 0 0 0 7.21.728q.335.02.67.05a5.5 5.5 0 0 0-.782.65 8.6 8.6 0 0 0-1.42 2.004 12 12 0 0 0-.947 2.525 7 7 0 0 0-.359 2.753c.005.032.051.027.06 0 .256-.819.224-1.733.397-2.576a8 8 0 0 1 .95-2.5 5.9 5.9 0 0 1 1.544-1.716 11 11 0 0 1 .923-.6c.255-.152.539-.27.802-.412a12 12 0 0 1 1.615.333 20 20 0 0 1 3.25 1.494c2.196 1.07 4.799.932 7.185 1.086l7.924.512 3.986.257a1.7 1.7 0 0 0-.574 1.64c.175.556.8.66 1.302.733 1.05.154 2.135.213 3.192.32 1.055.107 2.115.14 3.17.235a5.7 5.7 0 0 0 1.305.05 2.8 2.8 0 0 0 1.09-.495 8 8 0 0 1 4.794-1.425 5.94 5.94 0 0 1 2.68 1.167c1.77 1.485 1.333 4.106.407 5.946-2.095 4.161-6.728 5.95-10.93 7.193a40.5 40.5 0 0 1-14.208 1.922 23.3 23.3 0 0 1-6.93-1.53 8.24 8.24 0 0 0-3.54-.744c-1.248.052-2.49.112-3.739.105a96 96 0 0 1-15.119-1.516q-4.223-.697-8.47-1.25c-.073-.016-.146-.04-.22-.057-1.76-.387-3.529-.685-5.308-.965q-1.836-.289-3.67-.605l.056.002c.775.008 1.519-.13 2.286-.194a.02.02 0 0 0 0-.04c-1.219-.141-2.432-.357-3.656-.495q-1.881-.212-3.743-.567c-2.379-.452-4.71-1.116-7.031-1.799a24.9 24.9 0 0 0-7.03-1.03 25.6 25.6 0 0 1-6.846-.743 22.7 22.7 0 0 1-6.701-3.127c-.06-.041-.133.052-.078.1a18.9 18.9 0 0 0 5.298 3.294c-.435-.037-.87-.072-1.305-.114-1.102-.107-2.202-.222-3.291-.42a16.3 16.3 0 0 1-5.788-2.657c-.026-.017-.05.025-.024.042a18.3 18.3 0 0 0 5.605 2.943 22 22 0 0 0 3.15.515c.645.076 1.29.152 1.933.24a2.4 2.4 0 0 0 1.242.013 22.6 22.6 0 0 0 5.213 1.024 44 44 0 0 1 7.445.849 74 74 0 0 0 7.234 1.613 9 9 0 0 0 1.351.504 24 24 0 0 0 2.63.775c1.753.407 3.522.71 5.299.992 1.78.282 3.568.528 5.346.826.87.146 1.74.293 2.606.457.367.069.73.152 1.096.224a4.8 4.8 0 0 0 .178 1.425c.161.923.342 1.842.505 2.765.325 1.844.61 3.696.872 5.551.528 3.731.934 7.479 1.331 11.226a18.7 18.7 0 0 1 .127 5.091 6.56 6.56 0 0 1-2.147 3.83 15.2 15.2 0 0 1-3.653 2.278c-1.577.758-3.188 1.45-4.783 2.168q-2.933 1.319-5.861 2.647l-2.818 1.282c-.489.222-1.423.614-1.946.326a.133.133 0 0 0-.198.114c-.003.028.008.051.008.079a17 17 0 0 0-4.786-2.092c-.115-.026-.233-.04-.35-.06-1.437-.457-2.906-.832-4.357-1.222-1.926-.517-4.198-.922-5.795-2.186a12.8 12.8 0 0 1-2.032-2.13 16 16 0 0 1 .325-2.114 14 14 0 0 1 .564-1.72q.473.066.942.155a5.55 5.55 0 0 0-.68 2.23.013.013 0 0 0 .025.003 8.8 8.8 0 0 1 .705-2.225h.004c.34.064.679.143 1.021.191.09.013.184.015.277.024a2.9 2.9 0 0 0-.447 1.102q-.014.014-.026.03a8 8 0 0 0-.484.931c-.04.206-.05.43-.07.64a3.3 3.3 0 0 0 .21 1.213.056.056 0 0 0 .11-.015 2.45 2.45 0 0 1 .38-1.08c.092-.174.235-.298.338-.466a2.4 2.4 0 0 0 .17-.36 1 1 0 0 0 .09-.1 3.3 3.3 0 0 0 .308-.64c.016-.04.038-.08.056-.122a5 5 0 0 0 .47-.412 11.3 11.3 0 0 1 1.482-1.336 23 23 0 0 1 3.678-2.112 19.2 19.2 0 0 1 4.143-1.383 4.3 4.3 0 0 0 1.728-.624 2 2 0 0 0 .307-.28 11.4 11.4 0 0 0 3.04 2.91c.086.067.204-.04.123-.123a10.6 10.6 0 0 1-1.885-2.479 5.23 5.23 0 0 1-.453-3.126 13.4 13.4 0 0 0 .22-3.29 17 17 0 0 0-.71-3.003c-.617-2-1.329-4.064-.318-6.06a12.2 12.2 0 0 1 1.88-2.55c.798-.893 1.482-1.87 2.263-2.77a.048.048 0 0 0-.068-.068c-.747.698-1.58 1.296-2.32 2.008a20 20 0 0 0-1.861 1.984 6.9 6.9 0 0 0-1.237 2.424 4 4 0 0 1-.045-.564 6.5 6.5 0 0 1 .435-2.133 13.1 13.1 0 0 1 1.873-3.642c.013-.017-.015-.038-.03-.022a13 13 0 0 0-2.323 3.756 4.94 4.94 0 0 0-.12 3.634 7 7 0 0 0-.053 1.088c.005.13.02.257.032.385a42 42 0 0 1-3.756-3.666c-1.158-1.29-2.082-2.913-3.424-4.02a5.4 5.4 0 0 0-2.338-1.003 17.5 17.5 0 0 1-2.572-.781 17.8 17.8 0 0 1-4.982-2.983.022.022 0 0 0-.032.032 15.2 15.2 0 0 0 4.183 3.396 18 18 0 0 0 2.465 1.07 7.3 7.3 0 0 1 2.494 1.182 6.7 6.7 0 0 1 .88.936c-.365.074-1.127-.472-1.335-.565a6.5 6.5 0 0 0-1.24-.407 12.6 12.6 0 0 0-2.835-.237c-2.046.022-4.035.73-6.058.966-1.042.12-2.09.06-3.133.146a10.1 10.1 0 0 0-2.89.73 12.2 12.2 0 0 1-5.311 1.242c-.145-.17-.28-.349-.432-.513a4.96 4.96 0 0 1-1.153-2.408c.41.201.833.382 1.25.557q.882.371 1.782.694c.038.013.063-.046.028-.065q-.848-.448-1.73-.82a16 16 0 0 0-1.363-.52q-.073-.343-.14-.702c-.052-.287-.097-.575-.145-.862.156.06.316.162.45.219q.365.154.734.3c.473.183.952.352 1.43.522.512.182 1.022.368 1.52.586a7.7 7.7 0 0 0 1.364.581.064.064 0 0 0 .049-.116 8.6 8.6 0 0 0-1.493-.564 28 28 0 0 1-1.603-.68 34 34 0 0 0-1.422-.614c-.245-.097-.49-.195-.737-.283a2 2 0 0 0-.318-.107q-.158-.951-.322-1.901a39 39 0 0 0 3.86 1.774c.713.28 1.43.549 2.139.84a15 15 0 0 0 2.21.907.054.054 0 0 0 .042-.099 17 17 0 0 0-2.007-.774 47 47 0 0 1-2.319-1.028 90 90 0 0 0-3.944-1.732c-.039-.226-.073-.452-.115-.677-.235-1.268-.518-2.527-.731-3.8-.013-.08-.152-.063-.143.02.26 2.292.417 4.595.681 6.888.063.544.113 1.089.158 1.635a6 6 0 0 1 .05.871 3 3 0 0 0-.05.714c.161.955 1.077 1.654 1.652 2.365a15.2 15.2 0 0 1 2.675 5.136 18 18 0 0 1 .631 2.807 6.7 6.7 0 0 0 .911 2.798 30.3 30.3 0 0 0 4.05 4.327 101 101 0 0 1 3.568 3.9.4.4 0 0 0 .044.05c.259.298.525.589.78.89 1.365 1.605 2.59 3.339 3.992 4.91a8.2 8.2 0 0 0 2.316 1.87 16.4 16.4 0 0 0 2.861 1.055c2.82.845 5.67 1.642 8.484 2.536.303.119.605.237.902.373a21.62 21.62 0 0 1 10.625 10.53 11.6 11.6 0 0 1 1.233 4.62c.019 1.51-.504 3.126-2.113 3.57a5.8 5.8 0 0 1-2.756-.096l-.142-.035a1 1 0 0 1-.035-.085 3 3 0 0 1-.002-1.243 9.3 9.3 0 0 1 1-2.837 11 11 0 0 1 .778-1.22c.166-.23.367-.456.242-.753-.229-.544-1.279-.795-1.79-.949a45 45 0 0 0-3.072-.786 12 12 0 0 0-2.956-.497 2.88 2.88 0 0 0-2.936 2.579c-.001.012.02.015.022.003.33-1.926 2.668-2.28 4.281-2.205a15.7 15.7 0 0 1 2.97.577 6.34 6.34 0 0 1 2.85 1.042c.442.443.02.74-.252 1.136a10 10 0 0 0-.646 1.09 10 10 0 0 0-.83 2.258 4.1 4.1 0 0 0-.105 1.774c-.806-.195-1.607-.408-2.413-.599a65 65 0 0 0-6.259-1.183 1.4 1.4 0 0 1-.117-.153 1.7 1.7 0 0 1-.198-.532 5 5 0 0 1-.138-.571 3.5 3.5 0 0 1 .245-1.238q.182-.584.413-1.149c.006-.015-.019-.022-.025-.007q-.276.658-.495 1.337c-.142.439-.243.892-.383 1.328a1.3 1.3 0 0 0 .149.911 39 39 0 0 0-6.26-.312c-2.23.084-4.455.664-6.683.6a6 6 0 0 1-1.634-.287c.056-.402.105-.804.158-1.205.002-.017-.025-.02-.029-.004l-.217.956c-.013.058-.022.136-.033.21q-.3-.099-.59-.225c-.006-.109-.01-.213-.02-.284a4.8 4.8 0 0 1-.003-1.107 16 16 0 0 1 .861-4.363 22 22 0 0 1 1.9-3.433 31 31 0 0 1 2.433-3.33c.032-.039-.022-.094-.056-.056a26.7 26.7 0 0 0-4.701 6.728 14 14 0 0 0-.586 3.987c-.055.45-.114.892-.211 1.334a2 2 0 0 0-.044.324 14.6 14.6 0 0 1-2.526-1.73 321 321 0 0 1-4.626-3.87c-6.154-5.213-12.277-10.537-19.115-14.852a69 69 0 0 0-5.208-2.99 50 50 0 0 1-4.832-2.512 6.44 6.44 0 0 1-2.895-4.423c-.41-2.179-.757-4.367-1.103-6.556-.18-1.128-.378-2.232-.662-3.338a.076.076 0 0 0-.148.02c-.019 2.373.304 4.734.47 7.1-.125-.29-.248-.578-.357-.859-.484-1.246-.98-2.488-1.497-3.721a76 76 0 0 0-3.405-7.177 49 49 0 0 0-2.056-3.42 29 29 0 0 1-2.117-3.325 13.1 13.1 0 0 1-.957-3.725c-.033-.218-.055-.438-.084-.656a20 20 0 0 0 .552-1.886c.242-.812.517-1.594.81-2.386.571-1.549 1.16-3.089 1.785-4.616.008-.02-.025-.034-.034-.015a53 53 0 0 0-1.823 4.52c-.265.765-.51 1.54-.774 2.307-.18.52-.42 1.09-.57 1.656a53 53 0 0 1-.245-2.415c.34-1.058.609-2.139.988-3.187.226-.624.467-1.241.705-1.861a13 13 0 0 0 .59-1.585 40.5 40.5 0 0 0 5.887-.906 24.5 24.5 0 0 0 10.064-4.737c2.617-2.154 5.53-5.903 3.363-9.359-1.11-1.773-3.029-1.975-4.952-1.982q-3.445-.012-6.885-.234a116 116 0 0 1-13.716-1.751q-3.388-.63-6.733-1.469c-2.229-.558-4.423-1.238-6.643-1.822a66 66 0 0 1-2.301-.655 37 37 0 0 0-3.917-2.836 12 12 0 0 0-5.032-1.65 44 44 0 0 0-5.664.031 186 186 0 0 1-23.8-.89c-2.237-.218-4.47-.467-6.692-.804a117 117 0 0 1-3.215-.54c-.725-.13-1.45-.28-2.18-.372a43 43 0 0 0-4.48-2.67 13.1 13.1 0 0 0-6.069-.682l-27.384 1.119-13.619.556c-4.509.181-9.035.374-13.549.298a92 92 0 0 1-6.821-.367 51 51 0 0 0-6.65-.413c-4.307.168-8.484 1.91-12.547 3.203a90.6 90.6 0 0 1-12.508 3.264c-4.036.673-8.21.851-12.129 2.102a12.6 12.6 0 0 0-2.026.885q-.353-.046-.71-.082a56 56 0 0 0-6.349-.569 11.66 11.66 0 0 0-5.667 1.717c-1.691.959-3.377 1.894-5.154 2.688-7.124 3.183-14.852 4.67-22.26 7.014a55.3 55.3 0 0 0-11.76 5.254.092.092 0 0 0 .094.16 63 63 0 0 1 10.886-4.048c3.671-1.092 7.385-2.026 11.082-3.025a92 92 0 0 0 10.872-3.526 49 49 0 0 0 5.156-2.437c1.768-.974 3.466-2.156 5.513-2.44 2.373-.33 4.752.271 7.118.377a26 26 0 0 0 3.638-.244c1.22-.116 2.427-.357 3.63-.585a.014.014 0 0 0-.004-.027 32 32 0 0 1-3.391.04 18 18 0 0 1-1.928-.17 55.7 55.7 0 0 1 10.738-1.674 65 65 0 0 0 12.41-2.572c2.05-.614 4.087-1.274 6.126-1.924a63 63 0 0 1 6.23-1.792 21.6 21.6 0 0 1 6.575-.214c2.248.222 4.487.467 6.744.582 8.96.454 17.932-.128 26.885-.495l27.125-1.111c2.173-.089 4.38-.297 6.554-.233 2.137.062 3.954 1.15 5.776 2.152a43.8 43.8 0 0 0 11.104 4.407c.984.23 1.983.412 2.978.587.112.02.162-.146.048-.173a45.2 45.2 0 0 1-10.353-3.862c.79.145 1.586.268 2.355.406 1.942.35 3.884.7 5.832 1.012 3.84.614 7.712 1.058 11.59 1.32 3.907.265 7.83.332 11.744.269 1.9-.031 3.796-.14 5.695-.17q.82-.014 1.642.03a20 20 0 0 0-.846 2.448 13.6 13.6 0 0 0-.72 4.075 11 11 0 0 0 .075 1.884c.066.404.17.95.574 1.154.433.218.777-.195.825-.601a1.8 1.8 0 0 0-.146-.795 2.46 2.46 0 0 1-.065-1.431 24 24 0 0 1 1.789-5.282.084.084 0 1 0-.154-.065 44 44 0 0 0-1.624 4.66 11 11 0 0 1-.363 1.279 1.9 1.9 0 0 0-.227.926c.018.16.198.472.142.62-.09.242-.258.156-.425-.01a1.93 1.93 0 0 1-.308-1.22 12.8 12.8 0 0 1 .648-4.563 7.4 7.4 0 0 1 1.102-2.195c.189-.253.389-.53.575-.815a10.4 10.4 0 0 1 2.98.733 38 38 0 0 1 5.137 3.038c1.912 1.203 3.85 2.353 5.772 3.538.105.065.237-.097.136-.176-1.09-.855-2.168-1.721-3.254-2.58 1.073.398 2.152.776 3.252 1.115a98 98 0 0 0 6.435 1.728 108 108 0 0 0 12.963 2.211c.931.102 1.864.186 2.798.265-1.433 1.244-2.678 3.83-.26 4.389a17.6 17.6 0 0 0 5.475.15q.589-.054 1.17-.15a2.35 2.35 0 0 0 1.167-.36.94.94 0 0 0 .272-.551 3.7 3.7 0 0 1 .397-1.139 3.88 3.88 0 0 1 2.146-1.728c.108-.034.3-.056.488-.095a2.8 2.8 0 0 1 1.824 1.096 3.75 3.75 0 0 1 .642 2.218c-.029 1.908-1.37 3.54-2.68 4.795-5.379 5.151-13.47 6.453-20.643 6.328a14.4 14.4 0 0 1-6.249-1.32 24 24 0 0 0-2.673-1.245 11 11 0 0 0-3.017-.52c-4.622-.267-9.265-.333-13.893-.487l-13.879-.463c-4.635-.154-9.334-.527-13.968-.26l-.311.013c.263-.08.523-.174.79-.244a27 27 0 0 1 1.814-.384c.676-.128 1.319-.368 1.99-.497.045-.009.031-.075-.01-.077a13 13 0 0 0-2.176-.065 34 34 0 0 0-2.042.309 20.7 20.7 0 0 0-4.328 1.152c-1.902.775-4.128 1.754-4.56 3.874a106 106 0 0 0-1.841-6.092c.27.246.537.495.812.735q.395.347.792.692a7 7 0 0 0 .83.66c.023.015.042-.015.027-.033a7 7 0 0 0-.764-.72q-.41-.354-.822-.707c-.303-.261-.615-.512-.924-.766-.138-.405-.274-.81-.42-1.212-.279-.766-.582-1.524-.883-2.282q1.308 1.368 2.685 2.668.694.65 1.405 1.282a14 14 0 0 0 1.417 1.209c.043.029.088-.035.054-.07-.429-.46-.952-.846-1.422-1.263q-.711-.632-1.41-1.276-1.396-1.28-2.75-2.606a51 51 0 0 1-.78-2.059 15.8 15.8 0 0 1-.85-4.44 7.3 7.3 0 0 0-1.13-4.17 8.14 8.14 0 0 0-3.428-2.342 27 27 0 0 0-6.175-1.858 6.8 6.8 0 0 0-3.344-.618 23 23 0 0 0-2.794.398c-1.05.246-2.098.488-3.14.765-.057.015-.032.095.024.086a17.5 17.5 0 0 1 5.888-.344c.967.177 1.942.254 2.911.368a35 35 0 0 1 5.038 1.606 12.8 12.8 0 0 1 3.383 1.83 4.56 4.56 0 0 1 1.52 3.381 24 24 0 0 0 .433 3.967 30 30 0 0 0 1.373 3.973 79 79 0 0 1 2.805 8.479c1.582 5.82 2.984 11.694 4.462 17.541l2.237 8.855a23.2 23.2 0 0 1 1.003 8.508 10.5 10.5 0 0 1-.767 2.826 8 8 0 0 1-1.98 1.528 8.8 8.8 0 0 0 1.807-1.137 8 8 0 0 1-.469.846 8.8 8.8 0 0 1-3.038 2.773 13.5 13.5 0 0 1-3.816 1.598 9 9 0 0 1-1.426.204l-.018-.035c-.008-.016-.032-.002-.024.014l.012.022a7 7 0 0 1-.637.006c-.175-.085-.349-.176-.529-.256-.426-.19-.862-.361-1.295-.533-.392-.155-.797-.278-1.187-.44l-.079-.033a6 6 0 0 0 .145-.65 11.8 11.8 0 0 0-.416-4.41c-.717-2.964-1.495-5.916-2.266-8.867-1.562-5.985-3.216-11.95-5.158-17.825q-1.456-4.401-3.148-8.718c-.569-1.449-1.145-2.896-1.62-4.379-.432-1.346-.708-2.72-1.04-4.092a9.1 9.1 0 0 0-1.734-3.832 7.86 7.86 0 0 0-3.17-2.186 25.3 25.3 0 0 0-9.354-1.463c-.04 0-.052.065-.01.071 1.423.222 2.838.524 4.246.826a27 27 0 0 1 3.694.984 10 10 0 0 1 3.03 1.72 6.5 6.5 0 0 1 1.905 3.039c.386 1.212.581 2.474.903 3.704a40 40 0 0 0 1.361 4.102c1.033 2.707 2.093 5.4 3.04 8.139 1.896 5.485 3.515 11.062 5.019 16.667a659 659 0 0 1 2.191 8.431c.347 1.364.706 2.725 1.033 4.093a9.2 9.2 0 0 1 .272 4.307c-.026.105-.073.198-.105.3a.23.23 0 0 0-.067.175l.002.01a5.7 5.7 0 0 1-.777 1.435 6 6 0 0 1-.77.625 11.4 11.4 0 0 1-2.54 1.237 37.7 37.7 0 0 1-6.196 1.972c-.018.003-.014.033.004.031a20.3 20.3 0 0 0 6.51-1.878 23 23 0 0 0 2.329-1.187 19.3 19.3 0 0 1-3.655 2.722c-2.424 1.533-5.294 2.972-8.228 2.163-.13-.785-.377-1.564-.571-2.33-.826-3.263-1.654-6.525-2.537-9.773a241 241 0 0 0-3.116-10.551 12.8 12.8 0 0 0 .368-2.958c.093-1.022.135-2.05.198-3.074.133-2.135.3-4.258.357-6.398.001-.021-.032-.021-.033 0-.102 2.13-.179 4.276-.384 6.398-.1 1.027-.242 2.048-.353 3.074-.086.791-.288 1.677-.296 2.504q-.648-1.997-1.338-3.979a16 16 0 0 0 .146-1.853c.081-.947.168-1.893.24-2.84.143-1.858.273-3.716.419-5.574.001-.018-.026-.017-.028 0-.184 1.824-.383 3.646-.57 5.47-.094.91-.175 1.822-.26 2.734q-.06.63-.117 1.262-.012.127-.028.256c-.39-1.099-.775-2.199-1.19-3.289a.43.43 0 0 0 .099-.228c.004-.045-.058-.044-.072-.01a1 1 0 0 1-.092.06c-.028-.071-.052-.145-.08-.217l.028-.222.07-.56q.072-.608.135-1.217c.082-.78.155-1.561.208-2.344.108-1.597.153-3.196.16-4.796a.01.01 0 0 0-.02 0c-.13 2.896-.384 5.794-.754 8.671-.286-.733-.59-1.46-.87-2.196.156-1.933.176-3.886.293-5.818.001-.025-.037-.025-.04 0-.132 1.735-.35 3.477-.473 5.218a9.8 9.8 0 0 1-.44-2.39 8.5 8.5 0 0 0-1.494-4.504c-2.07-2.8-5.261-4.25-8.458-5.356a.045.045 0 0 0-.035.082c2.556 1.39 5.348 2.8 7.081 5.222a8.35 8.35 0 0 1 1.587 3.686c.094.705.085 1.419.184 2.124a9.6 9.6 0 0 0 .64 2.216 190 190 0 0 1 6.135 18.194c.879 3.09 1.71 6.193 2.522 9.301q.609 2.33 1.207 4.664a5.7 5.7 0 0 1 .421 2.337 2 2 0 0 1-.124.36c-2.671 3.324-7.57 4.342-11.64 4.26-.015 0-.014.021 0 .022a17.7 17.7 0 0 0 7.506-1.06 15.4 15.4 0 0 0 2.355-1.032 13.7 13.7 0 0 1-5.743 2.753 18.5 18.5 0 0 1-4.315.626 9.86 9.86 0 0 1-4.456-1.161c-1.588-.77-3.164-1.568-4.746-2.353a23.3 23.3 0 0 1-4.434-2.411 6.74 6.74 0 0 1-2.046-3.7 21 21 0 0 0-1.158-3.645 33 33 0 0 0-.772-2.48c-.199-.55-.522-1.272-.178-1.827a2.3 2.3 0 0 1 1.227-.77 12 12 0 0 1 1.766-.531 4.6 4.6 0 0 1 1.001-.073q.251.237.515.456l.026.098a6 6 0 0 0-.576.114q-.41.095-.814.21-.809.228-1.593.535c-.006.003-.004.014.003.011q.777-.277 1.577-.481.393-.1.79-.18l.412-.084.224-.039c.044.164.09.322.13.457.018.058.042.112.06.17q-.119.021-.236.045-.55.12-1.086.292a14 14 0 0 0-1.987.809c-.013.006-.001.025.012.02a12.7 12.7 0 0 1 2.037-.743q.491-.13.99-.228.16-.03.32-.057.159.477.35.941l-.196.058q-.457.124-.907.27-.886.288-1.744.656c-.006.002-.001.013.004.01a18 18 0 0 1 1.763-.581q.441-.12.888-.218c.079-.017.17-.031.258-.045.092.218.184.437.287.65.074.156.16.304.238.456-.134.033-.267.074-.398.111q-.432.122-.857.27a16 16 0 0 0-1.639.673c-.013.006-.001.025.012.02a16 16 0 0 1 1.71-.628q.414-.125.836-.227c.134-.032.27-.056.405-.088.254.478.523.948.819 1.402a12 12 0 0 1 1.232 1.937 9.2 9.2 0 0 0 2.138 3.495 11.5 11.5 0 0 0 3.432 2.126.064.064 0 0 0 .065-.11 11.5 11.5 0 0 1-3.007-2.736 7 7 0 0 1-.904-1.61A20 20 0 0 0 131.23 75a10.3 10.3 0 0 0-1.133-1.566 15 15 0 0 1-1.212-1.847c-.25-.443-.475-.9-.69-1.363.317.21.638.414.975.595a11.1 11.1 0 0 0 5.069 1.37.09.09 0 0 0 .024-.175 22.8 22.8 0 0 1-4.945-2.137 16 16 0 0 1-1.797-1.258c.277.096.554.193.838.265a14.3 14.3 0 0 0 4.517.376.146.146 0 0 0 0-.291 19.2 19.2 0 0 1-4.042-.971c-1.102-.388-2.206-1.196-3.424-.946a17 17 0 0 0-1.713.59 14.6 14.6 0 0 1-5.821.638 26.4 26.4 0 0 0-4.15-.487 31 31 0 0 0-3.874.917c-2.705.539-5.519.72-8.26 1.018-5.43.59-11.013 1.084-16.397-.124a33.9 33.9 0 0 1-12.517-5.992 68 68 0 0 1-6.039-5.033c-1.955-1.812-3.802-3.76-5.87-5.444-.013-.01-.038.004-.026.02a49.4 49.4 0 0 0 4.682 5.253c.247.249.505.487.755.734q-.036-.014-.07-.025a30 30 0 0 0-3.206-.736 9.8 9.8 0 0 1-3.173-1.687c-1.186-.843-2.466-1.555-3.646-2.403-.023-.017-.053.021-.03.04a61 61 0 0 0 5.181 4.358c-.485.118-.965.285-1.438.433a92 92 0 0 0-3.1 1.024c-2.088.737-4.15 1.544-6.196 2.392a114 114 0 0 0-11.85 5.759c-2.23 1.24-4.31 2.669-6.457 4.039a.059.059 0 0 0 .06.101c1.872-1.108 3.852-2.033 5.782-3.038q2.946-1.534 5.972-2.908a129 129 0 0 1 12.313-4.851q1.7-.573 3.412-1.112c.588-.185 1.183-.35 1.768-.541a2.7 2.7 0 0 0 1.015-.61 8.4 8.4 0 0 0 2.664.614 8.4 8.4 0 0 1 1.683.104c.144.038.288.087.432.133a68 68 0 0 0 3.417 3.087 36.4 36.4 0 0 0 11.927 6.904c5.264 1.713 10.89 1.57 16.336 1.063 2.778-.259 5.552-.585 8.323-.916a25 25 0 0 0 4.108-.71 16 16 0 0 1 1.936-.525 6.6 6.6 0 0 1 2.141.082 20.6 20.6 0 0 0 4.557.403c.482-.027.963-.086 1.442-.16a2.04 2.04 0 0 0-.379.931 4.9 4.9 0 0 0 .5 2.317q.452 1.23.863 2.472c.262.795.487 1.599.719 2.403q.112.391.221.783a7.7 7.7 0 0 0 1.517 3.552 10.8 10.8 0 0 0 3.763 2.511l4.603 2.273a24 24 0 0 0 4.397 1.918 12 12 0 0 0 4.88.065 17.5 17.5 0 0 0 7.618-2.772 9.7 9.7 0 0 0 2.647-2.758 3.1 3.1 0 0 0 .495-1.84c2.248 1.304 4.89.454 7.066-.73a39 39 0 0 0 3.381-2.086 13 13 0 0 0 2.678-2.295 7.2 7.2 0 0 0 .957-1.461l.07.032c.438.173.893.322 1.344.456.47.139.938.292 1.416.403l.019.004c1.537.769 3.533.21 5.142-.48a11.5 11.5 0 0 0 5.971-4.945 13.75 13.75 0 0 0 1.101-8.26 85 85 0 0 0-2.149-9.333c-1.604-6.337-3.141-12.696-4.827-19.012-.09-.342-.186-.683-.279-1.025a4.46 4.46 0 0 1 2.15-2.086 25 25 0 0 1 3.386-1.532c.344-.14.693-.265 1.04-.396 1.96.215 3.916.445 5.89.543 2.405.12 4.811.196 7.219.278l14.471.495q7.236.248 14.472.482a21.4 21.4 0 0 1 3.34.24 11 11 0 0 1 2.945 1.139 15.5 15.5 0 0 0 6.14 1.722c.797.055 1.604.077 2.413.08-.38 1.699-.043 6.738.014 7.366.224 2.449.435 5.115 1.604 7.323.551 1.042 1.273 1.982 1.92 2.965a49 49 0 0 1 2 3.328 72 72 0 0 1 3.225 6.747c.55 1.306 1.073 2.623 1.585 3.945a14.4 14.4 0 0 0 1.67 3.811.37.37 0 0 0 .22.133 6.9 6.9 0 0 0 .997 2.777 10.6 10.6 0 0 0 4.305 3.318c1.82.907 3.646 1.782 5.413 2.795 7.454 4.274 14.003 9.888 20.528 15.428a481 481 0 0 0 4.869 4.095 14.3 14.3 0 0 0 5.185 3.224c2.284.61 4.635-.073 6.924-.283a35.4 35.4 0 0 1 6.929.096 57 57 0 0 1 6.918 1.213c2 .463 4.158 1.326 6.24 1.082a4.19 4.19 0 0 0 3.6-3.066 8.56 8.56 0 0 0-.242-4.846 21.9 21.9 0 0 0-5.633-8.977 23.4 23.4 0 0 0-2.894-2.392 5.7 5.7 0 0 0 1.358-.464c.247-.108.492-.222.739-.33.902 1.534 2.632 1.995 4.293 2.223a11 11 0 0 0 3.027.14 7.5 7.5 0 0 0 2.83-1.136q.497-.302.99-.604a.46.46 0 0 0 .198.22c3.196 1.773 7.178-.277 10.146-1.603l5.545-2.476a25.6 25.6 0 0 0 4.91-2.502 8.43 8.43 0 0 0 2.83-3.672 11.5 11.5 0 0 0 .436-5.465q-.582-6.095-1.188-12.189-.331-3.374-.686-6.746a7.8 7.8 0 0 0-.637-2.942 59 59 0 0 0 3.687.071 21 21 0 0 1 3.957-.047 32 32 0 0 1 3.491 1.22 23.6 23.6 0 0 0 3.595.797 37.1 37.1 0 0 0 14.484-1.18c4.38-1.13 9.255-2.581 12.278-6.173a9.38 9.38 0 0 0 2.384-5.773 4.8 4.8 0 0 0-2.981-4.572m-5.188.307a9.2 9.2 0 0 0-1.853.95 4.36 4.36 0 0 1-2.459.89 23 23 0 0 1-5.477-.427 3.1 3.1 0 0 1-1.022-.283c-.498-.33-.275-.907.042-1.268a3 3 0 0 1 .812-.608c3.405.216 6.81.43 10.214.66q-.128.04-.257.086m-93.292 39.34q-1.04-1.19-2.117-2.348c-1.395-1.498-2.89-2.894-4.299-4.377a5.6 5.6 0 0 1-1.496-2.418c-.243-.946-.297-1.961-.448-2.927a14.1 14.1 0 0 0-2.042-5.16 16 16 0 0 0-.792-1.142c1.455.48 3.187-.198 4.557-.743a10.2 10.2 0 0 1 3.42-.852 33 33 0 0 0 3.405-.206c2.233-.322 4.483-1.087 6.755-1.046a10.7 10.7 0 0 1 3.15.695c.374.119.925.096 1.12-.19q.245.324.49.64a19.5 19.5 0 0 0 1.925 2.098 18 18 0 0 0 4.42 3.062c.198 1.51.812 2.955 1.135 4.438a7.6 7.6 0 0 1 .116 2.696 9.7 9.7 0 0 0-.22 2.824 4 4 0 0 0 .124.478 4.5 4.5 0 0 0-1.146.291c-.639.18-1.302.259-1.945.426a24 24 0 0 0-7.604 3.778 8 8 0 0 0-.914.822 1.4 1.4 0 0 0-.384-.278 6 6 0 0 0-1.084-.41c-.282-.082-.572-.136-.862-.191a14 14 0 0 0-1.477-.208 12.7 12.7 0 0 0-2.365.032 8 8 0 0 0-1.422.216m.915 1.08a7 7 0 0 1 .654-.109l.046-.002a4 4 0 0 0-.205.696q-.248-.291-.495-.586m.582.688a6 6 0 0 1 .207-.691c.015-.04.037-.076.053-.116.24-.019.48-.026.72-.033a9 9 0 0 0-.459 1.456q-.259-.31-.521-.616m.67.798c.066-.283.132-.565.216-.843.081-.271.175-.537.27-.803q.453-.007.906.012a15 15 0 0 0-.54 1.446c-.1.319-.172.645-.247.971-.2-.264-.4-.53-.606-.783m.727.94c.094-.411.216-.82.324-1.21.127-.46.278-.913.439-1.363h.056c.33.018.659.052.985.094a10.5 10.5 0 0 0-.588 1.64 11 11 0 0 0-.347 1.976q-.439-.567-.869-1.137m-38.531-54.447c-.398.6-.445 1.684-1.123 1.974a6 6 0 0 1-1.32.264 12.8 12.8 0 0 1-4.356-.027c-.727-.118-2.007-.185-2.04-1.133a3.5 3.5 0 0 1 .991-2.066 3.2 3.2 0 0 1 .95-.766c.898.066 1.795.129 2.694.173q1.636.08 3.273.113c.838.017 1.683.004 2.523.034a4.54 4.54 0 0 0-1.592 1.434M239.666 34.19c-.003-.176.006-.415 0-.657.292-.007.585-.03.878-.043q-.257.659-.489 1.327-.196.56-.365 1.126-.01-.876-.024-1.753m.033 2.416c.195-.542.372-1.09.548-1.64q.238-.745.487-1.485c.41-.02.821-.055 1.232-.087a12 12 0 0 0-.705 1.45 29 29 0 0 0-.787 1.882 20 20 0 0 0-.7 2.12q-.058-1.12-.075-2.24m106.337 9.248a91 91 0 0 0-1.16 2.718c-.23.567-.463 1.137-.684 1.711-.064-.615-.121-1.231-.189-1.846l-.031-.282a9 9 0 0 0 .433-1.276q.166-.57.322-1.141c.435.046.873.076 1.309.116m-1.425-.129c-.018.04-.041.077-.056.118-.008.022.022.03.034.015l.025-.042c-.112.333-.225.666-.33 1.002a11 11 0 0 0-.33 1.192 6.3 6.3 0 0 0-.697-2.435c.45.056.902.101 1.354.15m-12.377-.88c-.01-.039-.02-.087-.03-.131.054-.15.106-.298.17-.444q.068-.149.14-.295c.007-.01.012-.013.012-.026.027-.056.05-.112.079-.167.324.063.648.12.972.182a10.2 10.2 0 0 0-1.03 2.33 39 39 0 0 0-.313-1.448m.67 3.325q-.157-.874-.328-1.745c.34-.825.694-1.643 1.083-2.446.344.066.69.126 1.034.191a20.7 20.7 0 0 0-1.786 4.013Zm-7.787 35.1a5.4 5.4 0 0 1-3.132.689c-1.679-.12-3.862-.303-5.252-1.386q2.227-.988 4.45-1.988 2.881-1.29 5.758-2.59a29.3 29.3 0 0 0 4.375-2.257 9.16 9.16 0 0 0 3.149-3.315 10.1 10.1 0 0 0 .857-5.25c-.118-1.99-.388-3.98-.608-5.961a289 289 0 0 0-.744-6.164c-.064-.475-.137-.949-.203-1.424.165-.337.29-.713.424-1.041q.329-.8.637-1.607c.426-1.118.86-2.23 1.243-3.364.006-.018-.023-.026-.029-.008-.376 1.09-.755 2.185-1.199 3.249q-.355.852-.734 1.695c-.114.255-.258.52-.383.789a137 137 0 0 0-.797-5.024c.558-1.4 1.124-2.79 1.809-4.135 2.389.451 4.78.885 7.186 1.222a2.5 2.5 0 0 1 .704 1.399 22 22 0 0 1 .31 2.708c.192 2.1.414 4.2.622 6.299l.625 6.3c.209 2.099.564 4.245.567 6.356.006 3.855-3.305 6.186-6.436 7.71-1.729.84-3.493 1.598-5.206 2.472q-2.66 1.357-5.215 2.91c-.928.566-1.826 1.192-2.778 1.716m23.79-27.976q.55 5.563 1.107 11.126a18.3 18.3 0 0 1 .163 5.347 7.15 7.15 0 0 1-2.125 3.82 14.7 14.7 0 0 1-4.167 2.39l-5.002 2.234c-1.797.802-3.582 1.69-5.452 2.311a8.95 8.95 0 0 1-5.124.315c1.204-.735 2.413-1.463 3.658-2.136 1.918-1.037 3.883-1.967 5.861-2.881 3.364-1.555 7.172-3.731 7.997-7.684a10.5 10.5 0 0 0 .064-3.17c-.116-1.185-.242-2.369-.362-3.553q-.355-3.506-.707-7.013-.295-2.925-.598-5.849c.237-.612.466-1.228.706-1.838q.563-1.431 1.142-2.856c.54.05 1.08.108 1.621.145.685 1.086.588 2.641.698 3.847q.248 2.724.52 5.445"/></svg>