<svg xmlns="http://www.w3.org/2000/svg" data-name="Layer 2" viewBox="0 0 97.34 64.97"><g data-name="Layer 1"><g data-name="Layer_1"><g fill="currentColor" data-name="2659555127040"><path d="m59.1 0 2.43.26-.07.68-1.44-.15-.06.56 1.23.13-.07.64-1.23-.13-.14 1.3-.99-.1zm4.21 3.13-1.11-.12-.22.51-1-.11L62.51.36l1.08.11.85 3.31-1.03-.11zm-.13-.71-.23-1.18-.47 1.11zm1.52.33.94.04q0 .225.09.36c.09.14.23.22.41.24.14.01.25 0 .33-.06s.13-.13.14-.22a.34.34 0 0 0-.08-.23c-.06-.07-.23-.15-.48-.24-.42-.14-.71-.3-.88-.48a.75.75 0 0 1-.21-.64c.02-.16.08-.31.19-.45s.26-.23.46-.3c.2-.06.46-.08.79-.04q.615.06.9.33c.2.17.3.43.3.76l-.93-.04c0-.15-.05-.26-.12-.33a.5.5 0 0 0-.32-.13c-.11-.01-.2 0-.27.04-.06.04-.1.1-.11.17 0 .05.01.1.06.14.04.05.15.1.32.15.42.14.72.26.89.38.18.11.3.25.37.4a.98.98 0 0 1-.15 1.03c-.13.16-.3.27-.51.34s-.47.08-.78.05c-.54-.06-.9-.2-1.09-.43s-.28-.51-.27-.83ZM68.08.96l2.99.32-.08.79-1-.11-.25 2.39-.98-.1.25-2.39-1-.11.08-.79ZM42.24 47.34s1.73-16.29 1.73-16.87c0-.24-.07-1.21-.15-2.28-.12-1.49-.26-3.16-.29-3.35-.04-.3-.15-.51-.31-.66s-.37-.25-.62-.3l-11.91-1.5a1.7 1.7 0 0 0-.59.03q-.24.06-.42.18c-.3.23-.67.53-.97.82-.19.19-.34.37-.39.49-.29.67-7.53 21.2-7.55 21.26-.68-.38-.87-.23-.61-.94 1.23-3.5 7.07-20.03 7.34-20.66.1-.24.32-.51.59-.78.33-.33.73-.66 1.05-.9.23-.17.49-.28.77-.35.3-.07.61-.08.89-.04 3.61.45 8.57.79 11.98 1.51.4.09.77.26 1.06.53.3.28.5.66.57 1.18.03.21.18 1.91.29 3.41.09 1.1.16 2.1.16 2.35 0 .6-1.73 16.92-1.74 16.97l-.89-.09Z"/><path d="M24.93 52.55c-.45-.14-.85-.26-1.25-.38-.75-.22-1.51-.44-2.32-.74-.5-.18-.83-1.08-1.03-2.19-.26-1.43-.38-3.28-.36-4.18.03-.88.74-2.16 1.59-3.2.87-1.07 1.94-1.93 2.65-1.91h.02c.62.02 3.01.26 5.79.55 3.81.4 8.32.9 10.1 1.11.84.1 1.49.89 1.97 1.9.64 1.35 1 3.14 1.03 4 .02.7-.34 1.91-.79 3.02-.51 1.25-1.17 2.42-1.59 2.69-.76.49-4.03.64-4.03.64l-.05-.89s3.06-.15 3.6-.5c.27-.17.8-1.17 1.25-2.28.42-1.01.74-2.09.73-2.66-.02-.78-.35-2.4-.94-3.64-.36-.75-.8-1.34-1.27-1.4-1.82-.22-6.34-.72-10.09-1.11-2.79-.29-5.16-.52-5.74-.54h-.01c-.42 0-1.21.71-1.92 1.59-.75.92-1.37 1.99-1.39 2.66-.02.86.09 2.63.34 4 .15.82.32 1.46.46 1.51.78.28 1.53.5 2.27.72.44.13.88.26 1.27.38l-.27.85Z"/><path d="m29.84 64.91 2.19-9.18.3-.05s2.76-.43 3.19-.86c.27-.27.91-1.51 1.4-2.82.36-.95.63-1.92.61-2.53-.03-.82-.28-1.83-.87-2.61-.44-.57-1.06-1.02-1.93-1.15-1.35-.21-3.57-.48-5.31-.5-1.12-.02-2.01.05-2.28.28-.39.34-.86 1.25-1.23 2.25-.36.98-.61 2.02-.56 2.62.12 1.33.87 4.76.87 4.77l.02.09-1.56 9.69h-.9l1.55-9.67c-.12-.55-.77-3.55-.88-4.8-.06-.74.21-1.92.61-3.01.41-1.12.98-2.17 1.48-2.61.45-.39 1.56-.52 2.87-.5 1.81.03 4.06.3 5.44.51 1.13.17 1.94.75 2.51 1.49.71.94 1.02 2.14 1.05 3.12.03.74-.27 1.83-.66 2.87-.53 1.41-1.26 2.8-1.6 3.14-.51.51-2.6.92-3.39 1.06l-2 8.4z"/><path d="M25.43 55.14c.41-.4.86-.71 1.34-.94.89-.42 1.86-.54 2.77-.39s1.77.57 2.42 1.24c.32.33.59.71.8 1.15l-.81.38c-.16-.35-.38-.65-.63-.9-.52-.53-1.2-.87-1.93-.99a3.8 3.8 0 0 0-2.24.32c-.39.18-.76.44-1.09.76l-.63-.64Z"/><path d="M24.7 49.12s.9-.76 1.7-.82c.34-.03 1.65.04 3.1.14 1.71.12 3.63.28 4.36.37.74.09 1.16.32 1.4.61l1.4-2.99.46.22-1.57 3.36c.03.12.04.24.06.36.06.57.11 3.92.11 3.93v.04s-.06.75-.52 1.21l-.36-.36c.29-.29.36-.81.37-.9 0-.24-.04-2.34-.08-3.37l-2.46 5.25-.46-.22 2.8-5.98a.7.7 0 0 0-.13-.22c-.17-.2-.48-.36-1.08-.44-.73-.09-2.63-.25-4.33-.37-1.43-.1-2.71-.17-3.03-.14-.64.05-1.42.71-1.43.71l-.32-.4Zm21.79 10.23s2.19-1.48 3.61-2.69c1.41-1.2 5.1-5.1 5.11-5.11l.37.35s-3.71 3.93-5.15 5.15c-1.43 1.22-3.65 2.72-3.65 2.72z"/><path d="M25.12 47.66s.77-.79 1.66-.86c.37-.03 1.79.05 3.36.16 1.86.13 3.93.3 4.71.4.8.1 1.25.35 1.51.66.27.32.33.68.36 1.01.06.59.14 4.46.14 4.47h-.51s-.08-3.85-.14-4.42c-.03-.25-.07-.52-.24-.73-.18-.22-.53-.4-1.18-.48-.79-.1-2.84-.27-4.68-.4-1.55-.11-2.94-.18-3.29-.16-.69.05-1.33.71-1.33.71l-.36-.36Zm20.55 2.26s.95.13 1.81.45c.5.18 2.3.95 3.8 1.63 1.07.48 2 .92 2.22 1.09a1.87 1.87 0 0 1 .76 1.26c.02.17.15 1.69.18 3.07.02.76.01 1.49-.06 1.93l-.5-.08c.06-.42.07-1.11.05-1.84-.03-1.36-.16-2.86-.18-3.02a1.2 1.2 0 0 0-.13-.42c-.08-.16-.22-.34-.43-.5-.19-.14-1.08-.56-2.13-1.03-1.49-.67-3.28-1.43-3.77-1.61-.82-.3-1.68-.42-1.68-.42l.05-.51Zm-1.44 1.41c.61.03 1.72.38 2.92.83 1.85.69 3.93 1.65 4.72 2.04.28.14.47.35.6.6.12.24.18.51.21.8.08.77.1 1.62.09 2.48-.01.87-.06 1.74-.11 2.56l-.51-.03c.05-.82.1-1.69.11-2.53.01-.85 0-1.68-.09-2.43-.02-.24-.07-.45-.16-.63a.85.85 0 0 0-.37-.38c-.77-.39-2.84-1.33-4.67-2.02-1.16-.44-2.21-.77-2.76-.8l.02-.51Zm-1.19-27.66.28-1.35c.54-2.62-.34-4.53-1.81-5.65-.66-.5-1.44-.85-2.26-1.04-.83-.19-1.71-.22-2.56-.08-2.05.34-3.94 1.67-4.61 4.09l-.65 2.33-.86-.24.65-2.33c.78-2.8 2.96-4.33 5.33-4.73.96-.16 1.95-.13 2.9.09a6.8 6.8 0 0 1 2.6 1.2c1.73 1.32 2.77 3.53 2.14 6.54l-.28 1.35z"/><path d="M43.54 22.46s2.49-.99 3.27-4.12c.81-3.24-.58-5.72-2.84-7.21-.96-.63-2.08-1.09-3.25-1.35s-2.4-.33-3.59-.19c-2.96.35-5.62 2.04-6.35 5.34-.18.81-.23 1.77-.03 2.73.16.79.49 1.58 1.06 2.29l-.7.56a6.2 6.2 0 0 1-1.23-2.67 7.3 7.3 0 0 1 .04-3.1c.83-3.73 3.81-5.64 7.11-6.03 1.28-.15 2.61-.08 3.89.21 1.27.29 2.49.79 3.54 1.48 2.56 1.68 4.14 4.49 3.22 8.17-.89 3.57-3.8 4.73-3.81 4.73l-.33-.83Z"/><path d="M46.96 17.66c.12-1.17.21-2.21.28-3.1.09-1.12.13-1.93.15-2.37-.18-1.62-1.01-2.95-2.19-3.95-1.17-.99-2.69-1.65-4.29-1.94s-3.27-.2-4.75.31c-1.54.54-2.87 1.54-3.65 3.07-.11.23-.42 1.08-.72 1.97-.34.99-.66 2.03-.73 2.33l-.87-.19c.08-.35.41-1.42.76-2.43.31-.93.64-1.83.77-2.09.9-1.75 2.4-2.9 4.15-3.51 1.62-.56 3.45-.66 5.2-.35s3.42 1.04 4.71 2.13c1.35 1.14 2.3 2.68 2.5 4.56v.06c-.02.48-.06 1.31-.15 2.44-.07.84-.16 1.88-.28 3.12l-.89-.09Zm-2.94 7.58 7.1.16-.02.89-7.1-.16zm.57 5.11 3.47.24 2.2 3.41 1.16.1-.07.88-1.6-.12-2.19-3.41-3.03-.21z"/><path d="M51.66 22.34c-.01 1.34-.11 13.32-.11 13.74 0 .48-.81 1.99-1.22 2.7.15.03.34 0 .57-.17.74-.59 2.28-3.93 2.89-5.25l.03-.07.02-3.2-.04-10.84h-.31l-1.84 3.1Zm-1 13.74c0-.55.11-13.83.11-13.86v-.12l2.21-3.72 1.71-.04.05 11.75-.03 3.4-.11.24c-.63 1.37-2.24 4.85-3.14 5.57-1.15.92-2.04-.04-2.05-.04l-.24-.24.16-.3s1.32-2.29 1.32-2.64Zm-27.25-.97s-1.37-2.82-1.46-3.85c-.08-.94-.16-10.52-.16-10.55v-.07l1.42-4.23 2.02-.04.11 6.99 2.5.2-.07.89-3.31-.27-.11-6.91h-.5l-1.17 3.51c0 .89.08 9.51.16 10.41.07.86 1.37 3.53 1.37 3.53zm3.2-7.29-1.18-.06v2l.48.75-.75.48-.62-.98v-3.18l2.12.1-.04.89Z"/><path d="M54.41 30.84s1.6 1.26 2.08 2.21c.41.83.07 2.04-.21 3.04-.07.27-.14.52-.19.71-.12.54-.27 1.39-.39 2.24-.08.64-.14 1.27-.14 1.78 0 .74-.32 1.31-1.12 1.94-.71.57-1.8 1.19-3.44 2.12-1.08.61-1.86 1.03-2.48 1.36-1.28.68-1.85.98-2.38 1.58-.99 1.11-3.39 1.28-3.39 1.28l-.07-.89s2.05-.15 2.8-.99c.64-.72 1.25-1.04 2.63-1.78.64-.34 1.45-.77 2.46-1.34 1.61-.91 2.68-1.53 3.32-2.04.56-.44.78-.8.78-1.25 0-.53.06-1.21.15-1.89.11-.87.28-1.75.4-2.31.05-.24.12-.49.2-.76.24-.85.53-1.89.27-2.41-.39-.78-1.82-1.9-1.82-1.9l.54-.71Zm-15.7 22.58s-5.91 7.53-7.42 9.35l-.68-.57c1.41-1.69 7.38-9.31 7.4-9.33z"/><path d="M49.81 42.67c-2.13.06-4.66 1.51-4.66 1.51.5-1.53 3.35-2.6 4.66-1.51m-29.2 4.85c-1.06.93-3.29 2.5-5.96 4.37C12.47 53.42 1.37 61.98-.01 62.22c3.06-3.27 9.31-7.66 14.15-11.06 2.64-1.85 5.01-3.6 6.03-4.5zm11.6 17.39 8.71-8.64.39-1.84.07-.08s4.47-5.57 5.42-6.2c.55-.36 2.01-.2 3.57.24 1.57.44 3.31 1.15 4.31 1.83 1.05.72 1.57 2.03 1.82 3.36.24 1.28.24 2.55.24 3.31 0 .68-.63 1.46-1.47 2.17-1.12.95-2.65 1.83-3.35 2.09-.61.23-3.78.3-4.52.32l-4.23 3.44h-1.41l5.32-4.33h.15s3.84-.07 4.38-.27c.64-.23 2.04-1.05 3.08-1.93.65-.56 1.15-1.11 1.15-1.49 0-.72 0-1.96-.22-3.14-.21-1.13-.63-2.23-1.45-2.79-.92-.63-2.55-1.29-4.05-1.71-1.34-.38-2.52-.57-2.84-.36-.77.52-4.6 5.25-5.15 5.93l-.4 1.9-8.26 8.19H32.2Z"/><path d="M41.59 56.14c1.24.23 2.72.88 3.88 1.79.99.79 1.76 1.78 1.96 2.91l-.88.15c-.16-.89-.8-1.71-1.63-2.37-1.04-.83-2.38-1.41-3.5-1.62l.16-.88Zm9.03-11.7s6.83 2.77 8.06 3.47l.4.22c1.05.57 1.39.75 1.57 2.15l.14 1.04c.31 2.36.84 6.34.73 6.98-.21 1.18-1.77 1.28-1.77 1.28h-.1l-3.51-1.4.33-.83 3.31 1.32c.23-.03.79-.14.87-.53.09-.5-.43-4.39-.73-6.7l-.14-1.04c-.12-.94-.36-1.07-1.11-1.48l-.41-.23c-1.19-.67-7.94-3.41-7.96-3.42l.33-.83Z"/><path d="M60.7 58.1s16.36-16.99 16.69-17.38c.14-.17.57-1.14 1-2.23.41-1.04.82-2.17.98-2.82.06-.22.09-.61.11-1.01.02-.41 0-.83-.03-1.09q-.135-.915-.57-1.56c-.29-.42-.67-.76-1.16-1.01-.58-.3-1.91-.86-3.41-1.47-2.68-1.08-5.9-2.31-6.38-2.49-.31-.11-.62-.18-.92-.15-.28.03-.57.14-.87.39-.74.61-9.45 6.84-9.48 6.86l-.52-.73s8.69-6.22 9.43-6.83c.44-.36.9-.54 1.35-.58.44-.04.88.04 1.3.2.47.17 3.71 1.41 6.41 2.5 1.53.62 2.9 1.19 3.49 1.5.62.32 1.11.76 1.48 1.3s.61 1.19.72 1.93c.04.3.06.78.04 1.25-.02.46-.06.92-.13 1.2-.17.67-.59 1.85-1.02 2.93-.46 1.16-.94 2.23-1.14 2.47-.35.41-16.72 17.44-16.77 17.49l-.61-.67Z"/><path d="M79.18 32.08 59.94 49.56l-.6-.66 19.24-17.48zm-6.42 14.51s1.43 2.21 1.57 4.14c.06.78-.01 1.56-.13 2.25-.17.98-.47 1.8-.66 2.19-.19.37-1.16 1.36-2.22 2.31-.96.86-2.01 1.71-2.61 2.04-1.43.79-3.44-.44-3.45-.44l.44-.77s1.61.98 2.57.44c.54-.3 1.53-1.1 2.45-1.93.99-.88 1.88-1.77 2.01-2.04.17-.34.42-1.06.58-1.95.11-.62.17-1.32.12-2.03-.12-1.7-1.44-3.73-1.44-3.74l.76-.47Z"/><path d="M68.84 50.87s.86 1.62.67 3.66c-.08.81-.36 1.5-.71 2.05a5.65 5.65 0 0 1-1.62 1.65c-.25.16-2.48 1.97-4.55 3.7-1.74 1.44-3.36 2.81-3.59 3.05.61-1.44 1.2-2.23 3.02-3.74 2.09-1.73 4.36-3.58 4.64-3.76.27-.17.88-.64 1.34-1.37.29-.45.52-1.01.58-1.66.16-1.77-.57-3.16-.57-3.16l.79-.41Zm4.76 3.48s1.3.09 2.93.77c.59.25 2 .27 3.61.18 2.27-.13 4.88-.49 6.14-.77 2.08-.46 4.03-2.57 4.04-2.58l.03-.04.05-.03s4.17-2.78 5.23-3.59c.36-.28.59-.97.71-1.75.17-1.1.12-2.35-.05-3.04-.25-1.02-2.91-1.39-2.92-1.39l.13-.88s3.25.45 3.65 2.06c.2.79.26 2.18.07 3.4-.15.99-.48 1.89-1.05 2.32-1.01.78-4.77 3.29-5.24 3.6-.29.3-2.29 2.32-4.47 2.81-1.3.29-3.97.66-6.28.8-1.72.1-3.28.06-4.01-.25-1.49-.63-2.65-.7-2.65-.7l.06-.89Zm4.01-13.38s1.83.29 2.38.08c.23-.09.61-.39 1.05-.72.64-.49 1.38-1.07 2.11-1.35.65-.25 1.1-.38 1.61-.39.5 0 1 .1 1.74.32 1.46.43 2.53 1.08 2.54 1.08l-.45.77s-1-.6-2.34-1c-.66-.2-1.09-.29-1.48-.29-.38 0-.75.11-1.3.33-.62.24-1.31.77-1.89 1.23-.49.38-.92.71-1.28.85-.8.31-2.81-.03-2.81-.03z"/><path d="m95.54 29.84-4.21 2.79c-.29 1.33-2.13 9.71-2.45 10.84-.28 1-1.22 2.52-1.62 3.14l.52.62 4.42-3.44c.28-.48 1.79-3.1 2.2-4.27.4-1.15 1.48-7.83 1.74-9.43l-.6-.24Zm-4.85 2.14 4.75-3.15 1.68.69-.05.35s-1.35 8.56-1.83 9.93c-.49 1.39-2.31 4.49-2.31 4.5l-.04.08-5.24 4.07-1.5-1.8.18-.28s1.37-2.03 1.69-3.16c.33-1.18 2.47-10.94 2.47-10.97l.04-.18.15-.1Z"/><path d="m90 35.1-7.71-2.73.3-.84 7.7 2.73z"/><path d="m69.5 26.75 5.56-4.51c2.41-1.96 4.86-1.97 6.82-.97.82.42 1.55 1.01 2.15 1.72.6.7 1.07 1.51 1.38 2.36.75 2.07.53 4.37-1.2 5.94-1.04.94-3.78 3.19-3.78 3.2l-.56-.69s2.73-2.24 3.75-3.16c1.43-1.29 1.6-3.22.96-4.97-.27-.75-.69-1.46-1.22-2.08a6.1 6.1 0 0 0-1.88-1.5c-1.67-.85-3.77-.83-5.85.86l-5.56 4.51-.56-.69Zm-5.4 1.07.27-5.78 3.36-2.09 1.52.46-.36 6.25-.89-.06.32-5.54-.46-.14-2.63 1.63-.24 5.31z"/><path d="M74.94 22.34c.04-1.44.34-2.66.84-3.68.55-1.12 1.34-2 2.28-2.64 2.24-1.52 4.75-1.69 7.06-.99 1.61.49 3.11 1.41 4.35 2.59 1.24 1.19 2.21 2.65 2.74 4.22.75 2.2.64 4.62-.76 6.83-.79 1.25-1.92 2.18-3.26 2.67-1.27.46-2.73.53-4.27.08l.24-.85c1.35.39 2.62.34 3.72-.06 1.15-.42 2.13-1.23 2.81-2.31 1.24-1.96 1.33-4.11.67-6.07-.49-1.44-1.38-2.77-2.51-3.86-1.14-1.09-2.52-1.94-3.99-2.38-2.07-.63-4.32-.48-6.31.87a5.85 5.85 0 0 0-1.98 2.29c-.45.91-.72 2.01-.75 3.31l-.89-.02Z"/><path d="M90.44 28.48s3.13-3.31 3.41-3.76c.05-.08.1-.17.15-.25.91-1.66.85-3.75.16-5.68-.7-1.95-2.04-3.73-3.66-4.75-.11-.07-.22-.13-.33-.19-1.29-.71-2.83-1.16-4.36-1.16-1.31 0-2.61.34-3.73 1.14-.83.59-4.27 3.55-4.28 3.56l-.59-.67s3.49-3 4.34-3.61c1.28-.91 2.76-1.3 4.25-1.3 1.68 0 3.37.49 4.79 1.26.13.07.25.14.37.22 1.8 1.12 3.27 3.07 4.03 5.2.77 2.15.83 4.5-.21 6.41-.05.1-.11.2-.17.29-.32.52-3.51 3.89-3.52 3.9zm-8.2 23.75c-.52-.15-1.86-.32-3.4-.38-1.17-.04-2.44-.02-3.54.13 2.16-1.25 5.02-1.59 6.94.26ZM58.59 6.34l11.83 1.59.12-1.03 9.54 3.17-10 .91.14-1.26-11.88-1.6-.17 1.23-9.46-3.39 10.03-.69z"/></g></g></g></svg>