<svg xmlns="http://www.w3.org/2000/svg" data-name="Layer 2" viewBox="0 0 109.45 78.45"><g data-name="Layer 1"><g data-name="Layer_1"><g fill="currentColor" data-name="2659555152816"><path d="M35.81 67.1h.06s.66-.13.9-1.23c.27-1.26-.79-3.76-.8-3.77l.82-.35s1.19 2.78.85 4.31c-.32 1.47-1.32 1.83-1.56 1.89-9.23 2.99-20.84 10.47-20.87 10.49.82-3.33 17.32-10.28 20.6-11.34"/><path d="M34.65 68.24s.14.85.45 1.04c.11.07.73.01 1.47-.09 1.05-.15 2.27-.42 2.78-.6.42-.15.94-.46 1.43-1.09.51-.66.99-1.68 1.28-3.22.57-3.05-1.16-5.05-1.16-5.06l.68-.57s2 2.33 1.35 5.79c-.32 1.71-.86 2.85-1.45 3.61-.62.79-1.29 1.18-1.83 1.38-.56.2-1.86.49-2.97.65-.93.13-1.76.16-2.07-.04-.65-.41-.85-1.65-.85-1.65l.88-.15Z"/><path d="M42.24 65.43s1.56 0 2.28.46c.28.18.68.52 1.1.88.54.47 1.13.97 1.46 1.13.34.16 3.07.47 5.65.65 1.9.13 3.68.18 4.31.02.9-.22 2.71-1.12 4.3-1.9 1.14-.56 2.16-1.07 2.69-1.24.49-.16.94-.28 1.36-.39.68-.17 1.3-.33 1.7-.58.33-.2 1.04-.9 1.77-1.66.73-.77 1.48-1.61 1.89-2.06.31-.35.44-.76.35-1.23-.09-.51-.42-1.11-1.01-1.79-1-1.16-2.5-.48-3.68.05l-.62.28c-1.68.75-5.69 2.55-7.64 2.75l-.09-.89c1.81-.19 5.73-1.94 7.37-2.68l.62-.28c1.45-.65 3.28-1.48 4.72.18.69.8 1.09 1.54 1.21 2.21.14.76-.06 1.42-.56 1.98-.4.45-1.15 1.29-1.91 2.09-.77.81-1.54 1.56-1.95 1.81-.53.32-1.2.49-1.94.68-.43.11-.89.23-1.3.36-.46.15-1.46.65-2.57 1.2-1.62.8-3.49 1.72-4.47 1.97-.73.18-2.61.14-4.59 0-2.66-.18-5.55-.54-5.96-.73-.43-.2-1.07-.75-1.66-1.26-.39-.34-.76-.66-.99-.81-.5-.32-1.8-.32-1.8-.32v-.89Z"/><path d="M49.24 53.56s1.99 1.39 3.53.6c1.77-.91 4.77-2.62 4.78-2.63l.21-.12.22.11s2.33 1.19 3.74 2.27c.5.38.8.68 1 1.03s.58.91.29 1.28c.16.16-2.57 2.55-2.85 2.81-1.16 1.06-2.26 2.07-2.58 2.43-.58.67-.55.43-1.1 1.32 0 0-.4-.94.43-1.9.34-.4 1.47-1.43 2.65-2.51.84-.77 1.7-1.56 2.33-2.16.3-.29.3-.41.06-.83-.13-.23-.37-.45-.77-.76-1.11-.84-2.8-1.76-3.39-2.07-.72.41-3.1 1.76-4.61 2.53-2.01 1.03-4.43-.65-4.44-.65l.5-.74Z"/><path d="M19.25 66.96c.86.68 1.73 1.35 2.59 2.03.61.49.8.64 1.82.06.99-.56 23.45-14.24 25.03-15.2.25-.42 1.34-2.32 1.52-4.5s-.65-3.56-.82-3.81c-.57-.49-6.66-5.72-8.24-6.92-.21-.16-.38-.23-.55-.24-.19 0-.42.05-.7.15L13.38 51.06h-.05s-.48.13-.45 1.07c.04 1.33.11 4.82.11 4.83l-.89.02s-.07-3.53-.11-4.82c-.05-1.41.79-1.83 1.07-1.93 7.98-3.77 19.24-9.13 26.52-12.53.4-.15.73-.23 1.07-.21.36.02.69.14 1.05.42 1.66 1.27 8.3 6.98 8.32 6.99l.04.03.03.04s1.24 1.71 1.01 4.44c-.22 2.68-1.71 4.98-1.71 4.99l-.06.09-.09.05c-.07.04-24.16 14.71-25.14 15.27-1.54.88-1.85.64-2.82-.14l-2.59-2.03.55-.7Z"/><path d="M13.09 51.05s8.39 8.08 8.81 8.5c.38.38.59.79.71 1.23.11.41.13.84.15 1.31l.19 7.81-.89.02-.19-7.81c0-.41-.03-.77-.12-1.1-.08-.3-.22-.57-.48-.82-.41-.41-8.78-8.47-8.8-8.49l.62-.64Z"/><path d="m21.86 59.72 27.59-14.64.42.79-27.59 14.64z"/><path d="m42.66 38.97 12.06-6.34c1.18-.62 2.41-.53 3.52.03.89.45 1.71 1.2 2.36 2.13.65.92 1.14 2.02 1.39 3.17.45 2.03.15 4.22-1.33 5.9l-.04.05-9.79 6.2-.47-.75 9.68-6.13c1.24-1.44 1.47-3.32 1.09-5.07a8.1 8.1 0 0 0-1.25-2.85c-.57-.82-1.28-1.47-2.03-1.85-.87-.43-1.81-.51-2.71-.03l-12.06 6.34-.41-.79Z"/><path d="M54.57 32.72s1.03-5.67 3.97-6.56c1.78-.53 3.43-.22 4.89.59 1.74.97 3.2 2.64 4.24 4.38 1.35 2.26 2.11 4.91 2.26 7.26.09 1.35-.03 2.6-.35 3.63-.34 1.08-.9 1.93-1.7 2.41-.4.24-.86.38-1.37.42-2.89.18-6.26-.77-6.27-.78l.25-.85s3.23.91 5.96.74c.36-.02.69-.12.97-.29.6-.36 1.04-1.03 1.31-1.91.29-.93.39-2.07.31-3.31-.14-2.22-.86-4.73-2.13-6.86-.97-1.63-2.31-3.18-3.9-4.06-1.26-.7-2.68-.97-4.21-.51-2.42.73-3.35 5.84-3.35 5.86z"/><path d="M67.34 43.72s6.18-3.72 6.72-4.31c.42-.45.7-1.02.86-1.69.41-1.64.11-3.8-.69-5.91-.81-2.13-2.11-4.21-3.69-5.68-.99-.92-2.09-1.6-3.23-1.88-.41-.1-.82-.15-1.24-.14-.43.02-.9.1-1.41.26-1.09.35-6.09 2.7-6.11 2.7l-.38-.81s5.07-2.38 6.22-2.74c.6-.19 1.14-.29 1.66-.31s1.01.04 1.49.16c1.3.32 2.52 1.07 3.62 2.09 1.68 1.56 3.07 3.76 3.92 6.02.86 2.27 1.18 4.62.72 6.44-.2.81-.55 1.51-1.08 2.08-.62.67-6.9 4.45-6.92 4.46l-.46-.76Zm-8.23.53 5.42 3.7-.5.74-5.42-3.71z"/><path d="M66.48 56.94s1.74-2.66 1.99-3.73c.1-.42.18-1.77.25-3.26.07-1.53.13-3.18.15-4.19 0-.35-.04-.23-.22-.16l-3.59 1.57c-.2.09-.3.15-.33.2-.04.07-.05.21-.06.44-.03.73-.09 1.83-.14 2.66-.04.6-.07 1.1-.1 1.3-.05.36-.39 1.47-.75 2.5-.31.91-.65 1.77-.84 2.05l-.74-.5c.15-.22.45-1 .74-1.84.34-.98.66-2.03.71-2.34.02-.17.06-.64.09-1.22.05-.88.1-1.95.14-2.65.02-.37.04-.62.18-.85.14-.24.36-.4.74-.57 1-.44 2.9-1.41 3.83-1.68.43-.12.69-.18.96.05.22.19.27.49.25 1.06-.03 1.03-.08 2.7-.15 4.2-.07 1.54-.17 2.95-.28 3.42-.29 1.24-1.84 3.61-1.84 3.62l-1.02-.08ZM47.54 37.16s-1.55-.6-1.5-1.32c.01-.17.05-.78.09-1.51.07-1.22.15-2.75.18-3.04.01-.1 0-.21-.02-.28s-.07 0-.07 0c-.36.11-1.41.44-2.19.7-.47.16-.86.29-.97.35-.09.05-.17.12-.22.21-.07.11-.11.26-.12.46-.02.23-.04.94-.07 1.72-.03 1.13-.07 2.47-.07 2.72 0 .12 1.78 1.12 1.78 1.13l-.44.77s-2.24-1.24-2.24-1.9c0-.21.03-1.55.07-2.75.03-.83.05-1.57.07-1.77.03-.33.11-.6.24-.83.14-.25.34-.44.6-.56.15-.07.58-.23 1.09-.39.84-.28 1.86-.6 2.21-.71.16-.05.31-.07.45-.05.2.02.37.1.5.23.11.11.19.25.24.41.06.2.07.42.05.63-.03.26-.11 1.79-.18 3l-.09 1.53s.96.43.96.44l-.35.82ZM89.79.05C85.6.38 81.93 2.37 79.4 5.33a15.1 15.1 0 0 0-3.35 6.84l-3.49-.86c.6.94 3.09 5.62 3.93 6.77l7.26-4.02-3.9-.96c.37-1.96 1.26-3.76 2.52-5.24 1.88-2.2 4.61-3.68 7.72-3.93 3.12-.24 6.04.8 8.24 2.69 2.2 1.88 3.68 4.61 3.93 7.72v.17l3.9-.41v-.06c-.33-4.19-2.33-7.86-5.29-10.39A15.18 15.18 0 0 0 89.79.04Zm2.43 34.8c4.19-.33 7.86-2.32 10.39-5.28 1.66-1.93 2.83-4.28 3.35-6.84l3.49.86c-.6-.94-3.09-5.62-3.93-6.77l-7.26 4.02 3.9.96c-.37 1.96-1.26 3.76-2.52 5.24-1.88 2.2-4.61 3.68-7.72 3.93-3.12.24-6.04-.8-8.24-2.69-2.2-1.88-3.68-4.61-3.93-7.72v-.17l-3.9.41v.06c.33 4.19 2.33 7.86 5.29 10.39s6.89 3.94 11.08 3.61Zm-91 37.49 6.36-3.67.24.22S9 70 9.87 69.87c.62-.1 3.17-.67 5.33-1.21 1.49-.37 2.79-.73 3.08-.88h.01c.26-.2.17-1.34-.05-2.6-.25-1.38-.69-2.84-1.05-3.48l-.07-.11c-.14-.22-1.09-1.2-2.1-2.16-.73-.69-1.48-1.35-1.98-1.7-.31-.21-.52-.34-.68-.35-.15-.01-.33.08-.61.29-.63.47-7.13 6.96-7.14 6.97l-.04.04-4.13 2.36-.44-.77 4.01-2.29c.54-.54 6.54-6.52 7.2-7.01.47-.35.83-.49 1.21-.46.37.03.69.21 1.12.51.54.37 1.33 1.07 2.08 1.78 1.06 1 2.06 2.05 2.23 2.31.03.04.06.1.11.18.4.72.88 2.3 1.14 3.76.28 1.57.29 3.07-.33 3.49l-.06.04c-.35.19-1.73.58-3.31.97-2.19.55-4.78 1.13-5.42 1.23-.97.15-2.06-.61-2.54-.99l-5.81 3.35-.44-.77Z"/><path d="M4.28 64.23s1.89 1.79 2.43 2.46c.23.29.4.7.53 1.11.2.66.29 1.37.29 1.53h-.89c0-.13-.07-.71-.25-1.28-.1-.32-.22-.62-.37-.81-.49-.61-2.35-2.37-2.35-2.37l.61-.65Zm5.48-5.05s2.63 2.26 3.79 4.62c1.17 2.38.84 5.81.84 5.82l-.51-.05s.32-3.29-.79-5.54c-1.11-2.26-3.66-4.46-3.67-4.46l.33-.39Z"/><path d="M11.12 57.62s3.3 2.43 4.46 5.01c1.16 2.57.95 6.47.95 6.48l-.51-.02s.2-3.79-.91-6.25-4.29-4.8-4.3-4.81l.3-.41ZM7.11 69.1s-.27-1.63.32-2.22c.52-.52 7.19-4.02 7.21-4.03-.81 1.45-5.4 2.95-6.85 4.39-.41.41-.18 1.77-.18 1.77zm62.79-9.13c-.43-1.43-1.77-2.26-1.77-2.26 1.33.2 1.73 1.05 1.77 2.26m-19.08 5.56s-1.36-.92-2.5-1.22c-1.13-.3-2.01-.14-2.01-.14 1.2-1.59 3.69.3 4.51 1.36m7.11-13.03s-1.51-.67-1.84-1.23c-.22-.38.32-2.77.65-3 0 .11 0 .33-.02.61-.03.62-.08 1.57.03 1.77.19.32 1.59 1.05 1.59 1.05l-.41.79Z"/></g></g></g></svg>