<svg xmlns="http://www.w3.org/2000/svg" data-name="Barracuda" viewBox="0 0 482.163 351.968"><path fill="currentColor" d="M139.033 140.447a50 50 0 0 1-3.457 5.45 27.2 27.2 0 0 1-4.572 4.785 3.3 3.3 0 0 1-.636.475c-.312.149-.506.139-.734.453a7 7 0 0 0-.655 1.414c-.433 1.04-.945 2.048-1.383 3.088a61 61 0 0 0-2.3 6.704c-.017.059.07.08.09.025a48 48 0 0 1 3.087-6.553 13.3 13.3 0 0 1 1.844-2.84c.348-.36.836-.64 1.016-1.122a1.75 1.75 0 0 1 .385-.779c.168-.184.348-.359.524-.535a25.8 25.8 0 0 0 3.948-4.755c1.121-1.837 2.003-3.817 2.965-5.739.04-.08-.077-.15-.122-.07m-7.689 13.769a108.4 108.4 0 0 0-8.023 25.175.082.082 0 0 0 .158.043c1.264-4.221 2.425-8.47 3.755-12.673 1.326-4.19 2.682-8.384 4.167-12.521.012-.033-.043-.056-.057-.024m48.461 110.421a102 102 0 0 0-5.25-9.992c-1.685-2.92-3.243-5.834-5.88-8.018-.035-.029-.084.018-.05.05a15.1 15.1 0 0 1 2.699 4.001c.825 1.564 1.687 3.109 2.544 4.656a99 99 0 0 0 5.728 9.425.121.121 0 0 0 .21-.122m1.104-15.314a12 12 0 0 0-1.367-1.57 17 17 0 0 0-1.584-1.218c-.58-.405-1.22-.712-1.797-1.113-.043-.03-.096.038-.056.073.498.444.913.985 1.388 1.455.492.487.978.98 1.503 1.43a18 18 0 0 0 1.614 1.146 16 16 0 0 1 1.666 1.371.023.023 0 0 0 .033-.033c-.476-.507-.965-.998-1.4-1.541m3.812 6.106a36 36 0 0 0-3.806-3.77c-1.344-1.201-2.8-2.244-4.194-3.383-.015-.012-.037.008-.022.022 1.283 1.286 2.478 2.64 3.82 3.869a36 36 0 0 0 4.107 3.385c.079.053.148-.059.095-.123m.352 2.576a11.2 11.2 0 0 0-1.91-1.864q-1.053-.934-2.116-1.858c-1.424-1.23-2.894-2.404-4.335-3.614-.03-.026-.074.016-.044.044 1.37 1.28 2.707 2.594 4.095 3.855q1.01.918 2.035 1.822a11.6 11.6 0 0 0 2.152 1.738c.074.039.177-.044.123-.123m-1.17.969q-.873-.88-1.785-1.719a35 35 0 0 0-3.734-2.99c-.018-.012-.04.017-.023.031a128 128 0 0 1 3.552 3.253q.85.812 1.665 1.66a8.3 8.3 0 0 0 1.707 1.643c.074.041.136-.038.107-.107a6.4 6.4 0 0 0-1.49-1.771m1.189 3.404c-.42-.492-.844-.985-1.3-1.444a35 35 0 0 0-2.86-2.563c-.039-.03-.092.019-.056.055.89.896 1.74 1.833 2.572 2.782.405.462.822.914 1.221 1.381q.308.36.626.708a3.3 3.3 0 0 0 .67.618.075.075 0 0 0 .109-.084 4.8 4.8 0 0 0-.982-1.453m-2.292-.099c-.022-.015-.047.02-.029.038 1.191 1.194 2.238 2.525 3.339 3.8.043.05.112-.014.086-.067a10.5 10.5 0 0 0-3.396-3.77m2.588 4.764c-.043-.075-.155-.009-.115.067a9.2 9.2 0 0 0 2.236 2.895.047.047 0 0 0 .066-.066 18.3 18.3 0 0 1-2.187-2.896m-17.22-34.378c-1.927-1.702-3.988-3.25-5.92-4.95a125 125 0 0 1-5.658-5.26.031.031 0 0 0-.044.045c1.81 1.877 3.678 3.709 5.632 5.437a54 54 0 0 0 5.942 4.79c.037.024.081-.032.048-.062m-.078-3.49c-2.705-2.53-5.528-4.935-8.385-7.291-.035-.029-.085.02-.05.05 2.85 2.367 5.628 4.818 8.408 7.268.018.017.046-.01.027-.027m4.966 4.243q-.176-.162-.354-.321c-.232-.207-.476-.402-.714-.602q-.713-.6-1.415-1.215c-.06-.052-.148.034-.088.089q.695.638 1.38 1.288c.224.213.444.433.675.64q.168.15.339.299a.6.6 0 0 0 .346.2.06.06 0 0 0 .057-.074.58.58 0 0 0-.226-.303m4.302-.92a29 29 0 0 0-2.958-2.39q-1.522-1.232-2.99-2.528a105 105 0 0 1-5.613-5.31c-.032-.032-.08.017-.05.05a84 84 0 0 0 5.588 5.483q1.425 1.265 2.901 2.47a18.5 18.5 0 0 0 3.065 2.299.047.047 0 0 0 .057-.074m2.824-1.107a45 45 0 0 0-3.896-3.345c-1.324-1.094-2.64-2.197-3.964-3.291-.026-.022-.064.014-.038.039a127 127 0 0 0 3.872 3.49 33.6 33.6 0 0 0 3.97 3.181c.045.029.092-.036.056-.074m1.828-1.688a16 16 0 0 0-.61-.56c-.427-.377-.85-.758-1.286-1.123q-1.294-1.081-2.584-2.166c-.02-.016-.047.01-.028.028q1.216 1.159 2.426 2.323c.399.382.811.75 1.22 1.121q.306.28.623.547a3 3 0 0 0 .653.47c.05.022.112-.026.08-.081a3 3 0 0 0-.494-.559m2.627-.908a30 30 0 0 0-3.393-3.078c-.019-.016-.046.01-.028.028a30 30 0 0 0 3.37 3.117c.04.03.081-.033.051-.067m2.573-1.048a23 23 0 0 0-2.215-1.36.05.05 0 0 0-.051.087 23 23 0 0 0 2.226 1.34.04.04 0 0 0 .04-.068m.86-1.549c-.01-.004-.018.01-.009.014l.34.173c.008.005.016-.009.007-.014Zm-4.546-70.548c-.949-.701-1.946-1.341-2.925-1.999q-1.507-1.012-2.939-2.13c-.03-.024-.075.018-.044.044a28.8 28.8 0 0 0 5.86 4.165.047.047 0 0 0 .048-.08m1.22 3.911a62 62 0 0 0-5.046-4.032c-1.75-1.35-3.519-2.673-5.286-4-.025-.018-.057.024-.033.043 1.718 1.39 3.434 2.783 5.17 4.15a62 62 0 0 0 5.142 3.907.043.043 0 0 0 .053-.068m-2.162 1.515q-.607-.531-1.21-1.065c-.83-.726-1.647-1.466-2.491-2.176a48 48 0 0 0-5.16-3.728c-.021-.014-.04.019-.02.033 1.776 1.253 3.498 2.577 5.202 3.924.82.648 1.633 1.306 2.402 2.013.374.344.742.69 1.098 1.052a6 6 0 0 0 1.12 1.052.063.063 0 0 0 .086-.085 4.9 4.9 0 0 0-1.027-1.02m1.35 4.094a17 17 0 0 0-2.095-1.782q-1.052-.843-2.147-1.631a55 55 0 0 0-4.684-3.032.027.027 0 0 0-.027.047 73 73 0 0 1 4.55 3.1q1.13.834 2.222 1.716c.693.557 1.344 1.218 2.077 1.717.084.058.166-.065.104-.135m-1.102 2.102a19.5 19.5 0 0 0-2.688-1.983 33 33 0 0 0-2.99-1.683c-.03-.015-.058.03-.027.048.985.55 1.936 1.15 2.882 1.763.944.613 1.84 1.295 2.785 1.904a.031.031 0 0 0 .037-.049m.055 1.486a4.3 4.3 0 0 0-.776-.593c-.022-.013-.04.02-.02.034a4.2 4.2 0 0 1 .744.61 5.4 5.4 0 0 1 .608.746.023.023 0 0 0 .04-.024 3.5 3.5 0 0 0-.596-.773m1.783 4.685c-.216-.18-.45-.34-.675-.507l-.694-.516c-.036-.027-.072.034-.036.06l.688.502c.228.166.452.344.689.498.022.014.049-.02.028-.037m-44.048-60.478a1.5 1.5 0 0 0-.222-.16 5 5 0 0 0-.222-.144l-.482-.293-.963-.586c-.048-.03-.09.044-.044.074l.952.607.476.304a2.4 2.4 0 0 0 .467.263.04.04 0 0 0 .038-.065m1.502-.465a3.6 3.6 0 0 0-.666-.47c-.252-.157-.502-.317-.757-.47-.5-.299-1.005-.592-1.508-.888-.018-.01-.032.016-.016.027.485.327.968.657 1.455.981.239.16.483.311.725.466a3.7 3.7 0 0 0 .733.413c.034.012.058-.035.034-.059m2.202-.153c-.188-.084-.368-.167-.563-.235-.187-.066-.37-.144-.553-.22a8 8 0 0 1-1.116-.556c-.044-.026-.079.039-.04.068a6.7 6.7 0 0 0 1.081.666 6 6 0 0 0 .576.23 2.5 2.5 0 0 0 .596.12.04.04 0 0 0 .02-.073m2.219-.654c-.055-.01-.112-.012-.167-.024a1 1 0 0 0-.176-.038 3 3 0 0 1-.322-.034 2.2 2.2 0 0 1-.642-.224c-.12-.064-.226.115-.107.182a2.4 2.4 0 0 0 .688.26 2.5 2.5 0 0 0 .36.049.5.5 0 0 0 .188-.031c.059-.02.12-.027.178-.05.038-.015.051-.08 0-.09m14.827 3.97a4.46 4.46 0 0 0-2.005-.262 5.9 5.9 0 0 0-1.962.498c-.025.011-.006.048.019.043a12 12 0 0 1 1.979-.223c.314-.013.625-.006.94.002.332.009.668.053 1 .052.054 0 .086-.085.03-.11"/><path fill="currentColor" d="M480.807 37.215a7.8 7.8 0 0 0 1.256-3.046 3.71 3.71 0 0 0-.699-3.035 4.5 4.5 0 0 0-3.384-1.286 51.3 51.3 0 0 0-10.488.658c-.503.081-1.004.178-1.504.28a6.88 6.88 0 0 0 2.285-4.785 3.08 3.08 0 0 0-2.597-3.019 16.8 16.8 0 0 0-5.118.417c-7.415 1.056-14.85 2.038-22.238 3.27a119 119 0 0 0-11.949 2.543q-2.5.686-4.935 1.573a7.7 7.7 0 0 0 .238-1.343 5.04 5.04 0 0 0-2.23-4.785c-1.79-1.156-4.049-.97-6.057-.693a107 107 0 0 1-15.183 1.21c-2.505-.012-4.976-.258-7.366.666-2.316.896-4.53 2.049-6.843 2.962q-3.442 1.358-6.99 2.426c-2.335.702-4.704 1.237-7.066 1.835a15.7 15.7 0 0 0-3.359 1.2 13.3 13.3 0 0 0-2.795 2.028c-1.852 1.68-3.563 3.532-5.325 5.305l-11.171 11.24a38 38 0 0 0-4.995 5.49 32 32 0 0 0-2.892 6.222 86 86 0 0 1-8.21 16.704c-1.566 1.15-3.205 2.175-4.828 3.26-1.02.682-2.08 1.289-3.098 1.976q-1.528 1.032-3.1 1.997a117 117 0 0 1-13.14 6.88c-9.565 4.329-19.51 7.803-29.337 11.476-10.76 4.022-21.482 8.187-32.416 11.72a289 289 0 0 1-32.428 8.5 242 242 0 0 1-33.09 4.401 62 62 0 0 0-4.166.37l-.018.006c-.724-1.05-1.446-2.1-2.136-3.173a159 159 0 0 1-8.77-15.515 161 161 0 0 1-7.045-16.478c-2.171-5.98-4.066-12.16-4.472-18.543-.168-2.627.373-5.92-1.656-7.985-1.787-1.817-4.66-1.886-6.872-.902-2.583 1.15-4.471 3.627-6.032 5.895a33.55 33.55 0 0 0-5.714 15.929c-.051.561-.067 1.123-.086 1.685a28 28 0 0 0-3.386-4.456q-2.12-2.442-4.238-4.885l-8.476-9.769c-2.824-3.255-5.677-6.485-8.518-9.726-2.013-2.297-5.435-5.697-8.72-3.552a6.16 6.16 0 0 0-2.398 3.858 20 20 0 0 0-.477 3.719c-.112-.165-.226-.329-.334-.497-.06-.092-.126-.178-.186-.269-.02-.044-.033-.088-.055-.133a11.4 11.4 0 0 0-1.4-2.087c-.865-1.072-1.919-2.166-3.395-2.19-2.659-.04-3.782 3.155-4.05 5.302-.757 6.081-.56 12.61 1.949 18.286a38.8 38.8 0 0 0 4.238 6.548 17 17 0 0 0 .242 1.96c.19 1.172.419 2.335.65 3.5.468 2.358 1.063 4.7 1.645 7.033s1.206 4.657 1.864 6.97a28.6 28.6 0 0 0 2.447 6.394 23 23 0 0 1 1.564 2.946 26 26 0 0 1 .815 2.558 162 162 0 0 0 5.385 28.38c.245.854.512 1.697.789 2.537a9.8 9.8 0 0 0-2.052 1.003q-1.228.668-2.447 1.353-2.386 1.342-4.735 2.748-4.743 2.851-9.322 5.964a187 187 0 0 0-8.872 6.429c-2.65 2.035-5.249 4.146-7.986 6.065a40 40 0 0 1-4.633 2.856q-.676.346-1.37.658-3.761.741-7.524 1.474c-6.441 1.26-12.878 2.593-19.197 4.38a131 131 0 0 0-18.946 7.103c-3.582 1.643-7.15 3.316-10.726 4.975q-2.763 1.283-5.522 2.577c-1.837.866-3.606 1.834-5.389 2.805-.046.025-.014.104.036.086 13.114-4.634 25.43-11.322 38.799-15.289 12.622-3.745 25.672-5.529 38.49-8.419a105 105 0 0 0 20.942-6.676c.174-.08.051-.361-.129-.307-8.825 2.685-17.818 4.674-26.85 6.495.423-.222.85-.436 1.264-.674a79 79 0 0 0 8.166-5.65 219 219 0 0 1 18.197-12.368q2.689-1.631 5.42-3.19 1.317-.75 2.644-1.48.715-.393 1.432-.78a10 10 0 0 0 .869-.489c1.235 3.518 2.666 6.956 4 10.45a135 135 0 0 1 4.473 15.175q1.167 4.612 2.543 9.155-2.183 6.151-4.297 12.327c-.2.58-.414 1.159-.601 1.744-.203.632-.217 1.29-.423 1.92-.382 1.169-.819 2.322-1.244 3.475-.878 2.386-1.77 4.764-2.58 7.175-.012.034.04.046.052.014.946-2.362 1.783-4.76 2.61-7.166.4-1.16.766-2.341 1.214-3.484.245-.626.637-1.165.873-1.796.215-.575.404-1.162.604-1.743q2.076-6.03 3.889-12.143.55 1.799 1.14 3.586a251 251 0 0 0-3.99 13.8c-.029.115.15.202.2.084a56.3 56.3 0 0 0 3.915-13.51c.175.52.34 1.043.52 1.562 1.713 4.916 3.646 9.751 5.698 14.534q3.054 7.12 6.42 14.107a109 109 0 0 0 7.275 13.021 73 73 0 0 0 2.994 4.19c-1.04 2.969-2.03 5.955-3.031 8.938-1.058 3.154-2.143 6.298-3.001 9.514q-2.449 1.57-4.924 3.099c-3.622 2.234-7.27 4.44-10.993 6.503a43 43 0 0 1-5.577 2.676c-1.974.747-4.007 1.326-5.938 2.19-.267.119-.52.263-.78.396a47.8 47.8 0 0 0 7.523-8.244c.043-.064-.046-.116-.098-.076-2.614 2.059-4.992 4.399-7.582 6.493-2.581 2.086-5.26 4.046-7.975 5.955a110 110 0 0 1-18.198 10.108 243 243 0 0 1-40.31 14.05q-5.747 1.453-11.559 2.628c-1.974.399-3.96.741-5.935 1.132a39 39 0 0 0-5.782 1.636.294.294 0 0 0 .078.576 28.7 28.7 0 0 0 5.533-.22c1.764-.252 3.516-.603 5.264-.945q5.246-1.028 10.444-2.286 10.506-2.54 20.76-6.001 10.252-3.462 20.172-7.818a124 124 0 0 0 17.272-8.985c3.51-2.11 7.069-4.173 10.73-6.008a50 50 0 0 1 5.917-2.316 42.4 42.4 0 0 0 5.722-2.522c3.747-1.975 7.377-4.198 10.99-6.406q5.538-3.382 10.952-6.963 2.98-1.971 5.911-4.014a42 42 0 0 0 5.468-4.177 45 45 0 0 1 5.827 3.243 11.2 11.2 0 0 1 2.07 1.835.15.15 0 0 0 .217.002c.496.738.99 1.477 1.513 2.2.974 1.348 1.944 2.699 2.962 4.014.964 1.246 1.946 2.486 3.016 3.644 1.225 1.328 2.552 2.555 3.787 3.874 2.475 2.645 4.104 5.869 5.887 8.988 1.045 1.83 2.053 3.679 3.07 5.524q.56 1.009 1.127 2.015c.15 1.12.297 2.24.459 3.359a450 450 0 0 0 1.316 8.396q2.771 16.883 5.553 33.764c.516 3.12.993 6.249 1.574 9.356.596 3.184 1.508 6.278 2.274 9.42.043.177.339.144.323-.043-.245-2.824-.297-5.675-.693-8.485-.403-2.847-.869-5.683-1.33-8.521q-1.383-8.506-2.776-17.011l-2.767-16.885c-.918-5.604-1.853-11.198-3.045-16.75a86 86 0 0 0-5.745-17.606c-.056-.123-.249-.035-.215.09 1.45 5.337 3.322 10.518 4.323 15.975.171.934.315 1.873.452 2.812a168 168 0 0 0-2.253-4.965 52 52 0 0 0-5.454-9.577c-1.128-1.459-2.414-2.772-3.657-4.13a69 69 0 0 1-3.094-3.64c-1.019-1.282-2.005-2.59-2.995-3.894-.505-.665-1.009-1.33-1.525-1.986-.507-.645-1.078-1.224-1.605-1.855-1.177-1.408-2.372-2.812-3.675-4.106a13.1 13.1 0 0 0-4.105-3.197.138.138 0 0 0-.154.2 36 36 0 0 0 3.178 3.5c.161.182.313.371.471.554a38 38 0 0 0-4.462-2.431 24.3 24.3 0 0 1-5.242-3.35 35.3 35.3 0 0 1-4.76-5.344c-6-7.997-10.146-17.256-14.187-26.346a196 196 0 0 1-10.681-29.316c-1.33-5.02-2.462-10.097-4.071-15.038-1.617-4.961-3.81-9.711-5.564-14.624a148 148 0 0 1-5.396-21.011 32.3 32.3 0 0 0 4.059 9.624 16 16 0 0 1 1.855 3.097c.483 1.196.85 2.447 1.282 3.662.4 1.125.866 2.225 1.35 3.316.055.223.105.448.171.666a9.6 9.6 0 0 0 1.33 2.659c.128.286.26.572.386.86.053.121.182.098.258.022.064.082.122.164.188.247.08.1.211-.028.165-.128a15 15 0 0 1-.505-1.287c-.418-2.05-.776-4.124-1.335-6.137l-.069-.247c-.004-.136-.015-.27-.015-.408a14 14 0 0 1 .615-3.942 12.6 12.6 0 0 1 1.588-3.817c.02-.028-.027-.066-.049-.038a13.8 13.8 0 0 0-2.284 3.43 11.6 11.6 0 0 0-.615 2.164 15.8 15.8 0 0 0-1.497-3.462c-.56-.914-1.23-1.756-1.792-2.671a18.6 18.6 0 0 1-1.465-2.995c-.819-2.108-1.432-4.299-2.08-6.464q-1.023-3.425-1.981-6.868a34 34 0 0 0-2.133-6.443c-.519-1.015-1.162-1.959-1.658-2.987a23 23 0 0 1-1.212-3.22c-.688-2.226-1.288-4.484-1.892-6.734a383 383 0 0 1-2.025-7.818c-.185-.751-.389-1.498-.586-2.246 1.243 2.408 2.262 4.945 3.41 7.39q4.35 9.27 9.492 18.14c1.92 3.314 3.88 6.628 6.025 9.801 1.091 1.614 2.157 3.278 3.35 4.818.577.743 1.251 1.416 1.867 2.126.222.255.454.502.684.75a12 12 0 0 0 .866 3.402 24.4 24.4 0 0 0 3.268 5.038c.084.11.316.05.25-.106-.648-1.54-1.224-3.136-1.76-4.72a18.2 18.2 0 0 1-1.169-4.856 15.5 15.5 0 0 1 .905-5.204c.243-.81.515-1.611.793-2.411.15-.435.307-.865.42-1.312.116-.458.18-1.187.726-1.362.06-.02.053-.12-.016-.115-.612.045-.897.698-1.206 1.145a15.3 15.3 0 0 0-1.383 2.777 22.8 22.8 0 0 0-1.586 4.755l-.075-.018a1.86 1.86 0 0 1-.991-.414c-.712-1.307-1.583-2.538-2.373-3.798-1.73-2.762-3.473-5.517-5.147-8.313q-4.964-8.293-9.242-16.972a270 270 0 0 1-4.103-8.767 46 46 0 0 0-2.228-4.484 43 43 0 0 0-2.754-3.939 25 25 0 0 1-2.79-4.728.04.04 0 0 0 .035-.039 8 8 0 0 0-.184-1.55l-.28-1.644c-.186-1.095-.397-2.185-.604-3.276-.004-.017-.033-.013-.03.004.139 1.066.273 2.132.433 3.195l.25 1.652a11 11 0 0 0 .265 1.4 20.5 20.5 0 0 1-1.055-2.977 32.8 32.8 0 0 1-.94-8.636c.018-1.68.124-3.361.297-5.033a6.77 6.77 0 0 1 1.102-3.304c.86-1.14 1.931-.55 2.765.313.235.243.458.5.678.758a33 33 0 0 0 2.118 3.821c.045.076.148.01.115-.067-.276-.644-.55-1.298-.837-1.946.172.209.348.406.537.595.215.458.417.923.624 1.384a3.2 3.2 0 0 0 .425.696A27.3 27.3 0 0 0 99.1 80.73c1.629 3.494 4.141 6.44 6.155 9.701 2.108 3.413 3.242 7.23 4.745 10.918a51.2 51.2 0 0 0 5.129 9.589 53 53 0 0 0 3.307 4.338 29 29 0 0 0 1.666 1.82c.488 2.342.981 4.687 1.562 7.006.01.04.068.022.06-.017-.44-2.3-.97-4.589-1.503-6.874a17 17 0 0 0 1.3 1.164q.242 1.394.52 2.783l.435 2.169a14.4 14.4 0 0 0 .518 2.145c.022.059.119.055.115-.015a29 29 0 0 0-.8-4.285q-.276-1.324-.582-2.64c.197.15.387.309.594.449q.25.331.498.665a6.2 6.2 0 0 0 .302 1.666c.116.439.246.874.372 1.31a24 24 0 0 1 .332 2.366c.033.414-.09 1.014.177 1.36a4.2 4.2 0 0 0 1.029.678c.384.251.737.544 1.104.814.053.235.096.472.16.706a24 24 0 0 0 1.097 3.147 21.6 21.6 0 0 0 1.792 3.077.115.115 0 0 0 .209-.088 27.1 27.1 0 0 1-.83-10.606 13.2 13.2 0 0 1 1.45-4.545c.723-1.422 1.73-2.654 2.548-4.014a.067.067 0 0 0-.09-.09 9.16 9.16 0 0 0-3.256 3.524 19.6 19.6 0 0 0-1.914 4.759c-.061.218-.094.43-.141.646a13 13 0 0 0-.635-1.49 17.5 17.5 0 0 0-1.85-3.18 11 11 0 0 0-1.122-1.322c-.617-.837-1.237-1.67-1.93-2.455-1.138-1.292-2.286-2.569-3.328-3.942a50 50 0 0 1-5.39-8.88c-1.578-3.339-2.617-6.894-4.137-10.256-1.546-3.42-3.87-6.327-5.904-9.454a26.4 26.4 0 0 1-3.984-9.858 24.8 24.8 0 0 1-.334-5.4 13.6 13.6 0 0 1 .803-4.629 2.64 2.64 0 0 1 2.888-1.844 4.3 4.3 0 0 1 1.256.466 4 4 0 0 1 .084.52 4 4 0 0 0 .072.69c.01.04.027.079.039.118l-.094-.06a.035.035 0 0 0-.042.056c.077.08.144.172.22.255a3.7 3.7 0 0 0 .624.992 3 3 0 0 0 .59.495l.002.001.225.29a20 20 0 0 1 1.537 2.21 5.3 5.3 0 0 0 1.357 1.695 2.2 2.2 0 0 0 .929.393 2.3 2.3 0 0 0 .374.008l.036.027a.4.4 0 0 0 .14.082.6.6 0 0 0 .146.008.047.047 0 0 0 .04-.07l-.02-.033a.55.55 0 0 1 .371.149.25.25 0 0 0 .244.064 6 6 0 0 1 .615-.145c1.09 1.255 2.178 2.513 3.275 3.76 3.007 3.423 6.046 6.819 9.07 10.227l4.62 5.204a26.3 26.3 0 0 0 4.813 4.661 43.4 43.4 0 0 0 .563 6.804c.507 3.27 1.224 6.51 1.917 9.744q1.042 4.858 2.195 9.69c.78 3.262 1.609 6.51 2.438 9.76a66 66 0 0 0 2.695 8.824 27 27 0 0 0 4.085 7.029c.05.203.114.404.176.605-5.186 4.37-7.135 11.566-7.825 18.048-.793 7.448-.052 15.077 1.14 22.442a116 116 0 0 0 2.576 11.898c-.278-.548-.56-1.093-.83-1.645-1.735-3.548-3.312-7.171-4.952-10.764-.968-2.118-1.945-4.237-2.849-6.383-.019-.045-.094-.027-.075.02 1.42 3.719 2.657 7.506 4.215 11.171 1.576 3.71 3.283 7.362 5.196 10.91q.31.58.622 1.172a115 115 0 0 0 2.447 6.984c2.698 6.946 5.889 14.074 11.1 19.527a24.5 24.5 0 0 0 7.47 5.473c.4.412.701.906 1.131 1.291a14 14 0 0 0 1.473 1.054c.973.661 1.956 1.3 2.953 1.926.994.625 1.965 1.29 2.964 1.906 1.073.663 2.21 1.172 3.314 1.774.022.012.049-.019.028-.037-.945-.808-1.817-1.674-2.802-2.437-.9-.698-1.84-1.346-2.75-2.032-.944-.71-1.888-1.413-2.856-2.091q-.16-.114-.32-.231a16.4 16.4 0 0 0 8.198.47 23 23 0 0 0 2.446-.766.094.094 0 0 0-.05-.18 18.9 18.9 0 0 1-10-.776 24.7 24.7 0 0 1-8.666-5.37c-5.209-4.925-8.44-11.624-11.114-18.17a115.5 115.5 0 0 1-6.6-22.457 97.5 97.5 0 0 1-1.81-21.913 38.6 38.6 0 0 1 5.221-18.723c.36-.584.74-1.16 1.12-1.733q.117.34.25.67a9.6 9.6 0 0 0 1.85 2.988 8.33 8.33 0 0 0 5.923 2.487.145.145 0 0 0 .038-.284 11.7 11.7 0 0 1-5.201-3.15 8.6 8.6 0 0 1-1.312-1.992c.48.39.952.79 1.464 1.136a15.2 15.2 0 0 0 3.306 1.648 11.2 11.2 0 0 0 3.527.694.07.07 0 0 0 .019-.138 15.8 15.8 0 0 1-6.512-3.73 25 25 0 0 1-2.43-2.845 21.5 21.5 0 0 1-2.194-3.4 43.4 43.4 0 0 1-3.133-8.101c-.88-2.97-1.66-5.971-2.41-8.977q-2.329-9.343-4.216-18.79a60 60 0 0 1-1.32-9.578 31 31 0 0 1 .804-8.205 31.8 31.8 0 0 1 2.86-7.63 26.6 26.6 0 0 1 4.793-6.651c1.618-1.568 4.064-2.91 6.309-1.796a3.38 3.38 0 0 1 1.76 2.563 3.2 3.2 0 0 0-.74-.189 2.66 2.66 0 0 0-1.729.378 2.3 2.3 0 0 0-.758.717 3.3 3.3 0 0 0-.335.879 5 5 0 0 0-.155 2.097c.003.027.046.02.046-.006a3.07 3.07 0 0 1 .644-2.045c.098-.11.234-.196.341-.302.126-.125.265-.233.395-.353a1.94 1.94 0 0 1 .734-.439 2 2 0 0 1 1.549.186c.052.03.095.068.144.1.086 1.106.018 2.257.076 3.195a56 56 0 0 0 1.763 10.503 3.4 3.4 0 0 0-.457-.013 2.34 2.34 0 0 0-1.247.416 2.4 2.4 0 0 1-.497.352 1.1 1.1 0 0 1-.588.032 2 2 0 0 1-.509-.16 1.3 1.3 0 0 0-.502-.162 2 2 0 0 1-.845-.823 3 3 0 0 1-.36-1.307c0-.017-.028-.022-.03-.004a2.37 2.37 0 0 0 .127 1.397 4.2 4.2 0 0 0 .75 1.19c.09.386.644.591.974.69a2.07 2.07 0 0 0 1.428-.035c.416-.185.692-.504 1.165-.569a3.2 3.2 0 0 1 .684.003c.062.004.116.005.171.004a99 99 0 0 0 1.983 6.339 162 162 0 0 0 6.414 15.702 10 10 0 0 0-1.24-.139 11.5 11.5 0 0 0-4.64.657.16.16 0 0 0-.117.153c.023.96-.762 1.507-1.499 1.964-.796.494-1.6.984-2.42 1.438a.1.1 0 0 0-.035.136 1.46 1.46 0 0 0 1.506.622 2.55 2.55 0 0 0 .937-.566 6.2 6.2 0 0 1 1.286-.805 9.3 9.3 0 0 1 2.904-.825 15 15 0 0 1 2.833.085c.114.008.127-.16.026-.192a8.95 8.95 0 0 0-4.77.13 13 13 0 0 0-2.174.844c-.39.184-.786.363-1.178.544-.377.173-.757.39-1.113.125.94-.59 1.953-1.088 2.856-1.732a2.36 2.36 0 0 0 1.137-1.642 12 12 0 0 1 3.65-.6 12 12 0 0 1 1.875.143c.11.017.232.034.357.054l.03.068a166 166 0 0 0 8.158 15.1q2.258 3.715 4.704 7.31c.806 1.183 1.593 2.4 2.5 3.508.615.752 1.257 1.48 1.899 2.21-.77-.592-1.508-1.223-2.251-1.857-1.324-1.129-2.698-2.204-3.915-3.45-.036-.036-.086.017-.055.055.964 1.185 1.88 2.404 2.917 3.527.983 1.065 2.103 1.979 3.143 2.984a32.5 32.5 0 0 0 3.237 2.853 47 47 0 0 0 3.79 2.508 24.5 24.5 0 0 1 3.473 2.329 9.8 9.8 0 0 1 2.453 3.282 34 34 0 0 1 1.473 4.157q.77 2.362 1.547 4.721a124 124 0 0 0 1.924 5.39c.683 1.782 1.294 3.593 1.99 5.371a.184.184 0 0 0 .354-.097c-.63-2.968-1.355-5.922-2.082-8.869.051.129.098.26.15.388a369 369 0 0 0 3.388 8.125c2.217 5.186 4.58 10.338 6.512 15.64a57 57 0 0 1 2.284 7.872c.564 2.722.918 5.488 1.589 8.187a37 37 0 0 0 2.988 7.585 62 62 0 0 1 3.214 7.352 110.3 110.3 0 0 1 4.35 17.48c.03.171.326.134.307-.042-.377-3.536-.658-7.084-1.185-10.595a42 42 0 0 0 4.262 6.214c2.784 3.393 6.173 6.347 8.093 10.368a40 40 0 0 1 2.203 6.551q.95 3.42 2.011 6.81a267 267 0 0 0 4.586 13.313c3.3 8.859 6.981 17.569 10.703 26.257 3.702 8.645 7.451 17.272 10.91 26.018a329 329 0 0 1 4.917 13.193c.775 2.234 1.473 4.498 2.283 6.72.8 2.192 1.653 4.367 2.448 6.561.405 1.116.79 2.239 1.184 3.359a.18.18 0 0 0 .346-.096c-.4-2.337-.844-4.677-1.356-6.992-.51-2.313-1.17-4.576-1.906-6.828-1.455-4.459-3.082-8.866-4.769-13.242-3.4-8.821-7.132-17.51-10.86-26.195-3.724-8.678-7.447-17.36-10.829-26.177a292 292 0 0 1-4.745-13.26q-1.11-3.373-2.115-6.779c-.666-2.264-1.236-4.56-1.97-6.804a23.6 23.6 0 0 0-2.917-6.11 44.5 44.5 0 0 0-4.268-5.115c-1.547-1.65-3.087-3.303-4.49-5.08-1.417-1.794-2.7-3.686-3.944-5.602l-.405-.616c-.076-.363-.165-.724-.25-1.086a3.9 3.9 0 0 0 1.361-.776q.837-.699 1.676-1.394 1.587-1.314 3.183-2.614 3.146-2.562 6.323-5.086 6.27-4.967 12.696-9.73c5.438-4.05 10.903-8.057 16.24-12.229 3.63-2.157 7.285-4.279 10.876-6.502 3.858-2.389 7.601-4.966 11.378-7.481q11.338-7.55 22.706-15.056 11.37-7.506 22.736-15.016 11.357-7.487 22.733-14.944a243 243 0 0 1 22.595-13.27 29 29 0 0 1 2.848-1.25c.015-.005.025-.016.04-.022.082.006.162.021.245.027a25 25 0 0 0 7.784-.734 51.6 51.6 0 0 0 7.488-2.68q3.595-1.522 7.176-3.08c4.802-2.09 9.582-4.249 14.222-6.682 2.3-1.207 4.567-2.473 6.77-3.851 1.09-.682 2.147-1.424 3.268-2.056a21 21 0 0 1 3.609-1.407 11.2 11.2 0 0 0 5.513-4.11 10 10 0 0 0 .837-1.413 34 34 0 0 0 3.086-1.775c1.034-.707 2.036-1.47 3.034-2.229a21 21 0 0 0 2.568-2.196c.781-.818 1.438-1.742 2.173-2.598a28 28 0 0 1 5.282-4.361c1.985-1.41 3.94-2.877 5.977-4.21a14 14 0 0 1 3.114-1.575c1.065-.367 2.164-.63 3.228-1.001a13.1 13.1 0 0 0 5.38-3.601c1.34-1.454 2.913-3.281 2.817-5.39a3.393 3.393 0 0 0-3.684-3.322 13 13 0 0 0-3.393.8q-1.372.443-2.742.895c.67-.43 1.334-.869 2.004-1.299a11.5 11.5 0 0 1 3.13-1.376 19.5 19.5 0 0 0 5.835-2.81 49 49 0 0 0 5.315-4.158 16.3 16.3 0 0 0 4.303-5.618c.72-1.797.808-4.418-.867-5.688M152.117 252.04a13 13 0 0 0 .25-1.373c.008-.066.003-.128.007-.193q.864.505 1.75.97c-.767.433-1.508.913-2.238 1.41.088-.269.168-.54.232-.814m-.909-2.278c.204.134.416.253.623.38-.053.141-.109.28-.153.431-.123.415-.235.832-.358 1.247-.124.413-.254.828-.356 1.247q-.058.245-.097.49-.543.38-1.087.754c-.494.339-.994.67-1.49 1.006q.241-.575.457-1.161a29 29 0 0 0 .875-2.856 20 20 0 0 0 .492-2.33c.36.272.718.544 1.094.792m-1.411-1.021c-.094.236-.194.48-.213.539-.121.357-.247.713-.363 1.072-.221.693-.444 1.384-.659 2.08-.215.693-.43 1.386-.635 2.083-.12.411-.275.854-.37 1.298-1.034.7-2.065 1.404-3.103 2.097l-.42.275c.218-.576.398-1.17.588-1.729q.578-1.7 1.106-3.416a63 63 0 0 0 1.635-6.501 25 25 0 0 0 2.434 2.202m-2.581-2.36c-.684 2.168-1.35 4.342-2.041 6.507q-.547 1.711-1.143 3.405c-.282.8-.629 1.618-.855 2.452q-2.185 1.444-4.389 2.858c1.245-3.018 2.243-6.123 3.219-9.237.933-2.98 1.83-5.97 2.643-8.985a38 38 0 0 0 2.566 3m-36.81-176.886c-.414-.484-1-.416-1.572-.695a4.4 4.4 0 0 1-1.489-1.759 12.7 12.7 0 0 0-1.624-2.082 7 7 0 0 0-.56-.505c-.064-.104-.121-.212-.194-.31a9.5 9.5 0 0 1-.744-1.302c-.066-.126-.118-.257-.173-.386a12.8 12.8 0 0 1 2.07 1.907 285 285 0 0 1 4.52 5.1q-.117.014-.234.032m318.008-5.257a33 33 0 0 1-.093 3.738c-.007.125.18.145.215.029.348-1.204.586-2.46.828-3.687a11.2 11.2 0 0 0 .27-3.323 7 7 0 0 1 .828-.547 21 21 0 0 0 2.878-1.075q2.21-.913 4.394-1.888a44 44 0 0 0 3.931-1.908 29 29 0 0 0 3.48-2.544 13.7 13.7 0 0 1 4.087-1.869c1.467-.51 2.945-.988 4.416-1.488a76 76 0 0 0 8.303-3.403 23.3 23.3 0 0 1 4.222-1.583c1.436-.37 2.897-.628 4.342-.96a17.6 17.6 0 0 0 7.356-3.335 15.4 15.4 0 0 0 2.242-2.23 6.1 6.1 0 0 1 .497 2.14 5.7 5.7 0 0 1-.72 2.732 17.8 17.8 0 0 1-4.132 4.812 46 46 0 0 1-5.225 3.944 16.6 16.6 0 0 1-2.861 1.558c-.984.395-2.027.603-3.028.95-2.115.732-3.9 2.225-5.83 3.33a45 45 0 0 1-5.992 2.856c-1.035.406-2.11.726-3.117 1.204a19.3 19.3 0 0 0-2.882 1.88l-5.906 4.243c-2.043 1.468-4.165 2.87-6.087 4.497a6.38 6.38 0 0 0-2.653 5.001c.004.136.214.176.245.033.42-1.884 2.156-3.27 3.653-4.352 1.908-1.38 3.851-2.714 5.767-4.082l6.117-4.37a12.8 12.8 0 0 1 2.945-1.72c1.058-.393 2.142-.712 3.195-1.122.258-.1.511-.212.766-.317 1.287-.295 2.562-.656 3.818-1.015 2.23-.638 4.446-1.323 6.675-1.967a5.5 5.5 0 0 1 2.656-.32 1.764 1.764 0 0 1 1.339 1.8c.04 1.877-1.773 3.657-3.022 4.87a12.4 12.4 0 0 1-5.325 2.934 20.6 20.6 0 0 0-5.717 2.716c-1.892 1.284-3.733 2.648-5.594 3.977a34.4 34.4 0 0 0-4.96 3.94c-.81.843-1.485 1.798-2.243 2.685a17.6 17.6 0 0 1-2.687 2.475c-1.013.78-2.044 1.536-3.04 2.337a25 25 0 0 0-2.139 2.012 7.13 7.13 0 0 0 .407-3.913c-.012-.056-.09-.048-.105 0-.32.952-.597 1.942-1.009 2.86a13 13 0 0 1-1.522 2.463 10.3 10.3 0 0 1-4.678 3.508 35 35 0 0 0-3.404 1.205c-1.076.516-2.075 1.184-3.1 1.79a146 146 0 0 1-6.609 3.671c-4.436 2.325-8.988 4.418-13.58 6.415a661 661 0 0 1-6.961 2.967c-2.333.983-4.665 1.987-7.074 2.774a32 32 0 0 1-8.24 1.512 44 44 0 0 1-8.787-.32.16.16 0 0 0-.085.31 38 38 0 0 0 4.438 1.205 18 18 0 0 0-3.051 1.242c-1.976.99-3.953 2.02-5.839 3.174a570 570 0 0 0-11.105 6.996q-11.472 7.391-22.93 14.804-11.474 7.451-22.91 14.966-11.42 7.538-22.812 15.121c-3.814 2.54-7.64 5.064-11.423 7.648a130 130 0 0 0-4.55 3.287 111 111 0 0 0 12.098-11.848.027.027 0 0 0-.038-.04c-3.892 3.31-7.813 6.59-11.817 9.767-3.998 3.173-8.08 6.236-12.163 9.3-8.33 6.253-16.782 12.339-24.974 18.776q-3.57 2.806-7.088 5.678-1.778 1.46-3.543 2.935-.835.7-1.668 1.402c-.306.258-.64.502-.925.782-.032.03-.056.065-.084.097a40 40 0 0 0-1.586-4.47q.204.137.414.266c.35.207.697.423 1.055.616a11 11 0 0 0 2.177 1c.075.02.143-.083.08-.138a11 11 0 0 0-2.02-1.267c-.36-.193-.73-.365-1.097-.544a9 9 0 0 0-.486-.217c-.097-.04-.19-.085-.286-.116q-.368-.852-.77-1.69c-.499-1.036-1.023-2.062-1.53-3.096a40 40 0 0 0 3.39 1.885 17 17 0 0 0 5.294 1.967c.097.012.11-.123.046-.167a34 34 0 0 0-5.172-2.465c-1.293-.59-2.57-1.213-3.853-1.822a31 31 0 0 1-1.523-3.68 60 60 0 0 1-1.77-8.135 53 53 0 0 0-2.105-8.047c-1.848-5.317-4.289-10.426-6.566-15.567-1.328-3-2.636-6.01-4.03-8.98-.705-1.5-1.429-2.99-2.159-4.478q-.518-1.061-1.047-2.115c-.121-.24-.26-.467-.393-.697a39 39 0 0 0-1.321-4.167 13.3 13.3 0 0 0-2.234-3.844 14.4 14.4 0 0 0-3.487-2.752c-1.222-.74-2.47-1.435-3.686-2.185-.926-.572-1.836-1.171-2.756-1.755a41 41 0 0 0-1.208-1.881c-.83-1.2-1.517-2.494-2.34-3.702-.69-1.01-1.392-2.012-2.09-3.015 2.544.076 5.09-.107 7.628-.285q4.232-.296 8.449-.766c5.559-.61 11.1-1.32 16.608-2.3a274 274 0 0 0 32.841-8.065c11.032-3.41 21.816-7.538 32.626-11.58 10.075-3.767 20.25-7.348 30.14-11.584a135 135 0 0 0 13.48-6.586 91 91 0 0 0 6.382-3.965 33.7 33.7 0 0 0 4.504-3.8 44 44 0 0 1-1.92 2.314 18.4 18.4 0 0 1-2.223 2.24c-.052.042.017.131.07.092a34 34 0 0 0 4.606-3.635 37 37 0 0 0 3.836-4.59 58 58 0 0 0 5.727-10.796 221 221 0 0 0 2.294-5.662 20.7 20.7 0 0 1 3.224-5.916c1.526-1.812 3.3-3.434 4.97-5.111l5.373-5.392 5.374-5.392c1.682-1.687 3.306-3.482 5.117-5.033a13.3 13.3 0 0 1 5.993-2.63 97 97 0 0 0 6.884-1.842q3.42-1.062 6.75-2.393c2.155-.863 4.23-1.968 6.407-2.762 2.289-.834 4.73-.505 7.117-.51q3.73-.009 7.45-.327c2.44-.209 4.86-.548 7.28-.928a20 20 0 0 1 1.816-.217 13.3 13.3 0 0 0-1.574 1.664 4.7 4.7 0 0 1-1.023.898 4.1 4.1 0 0 1-1.579.396 10 10 0 0 1-1.346.04 4.3 4.3 0 0 1-1.49-.425c-.032-.013-.047.031-.03.052.504.626 1.622.545 2.338.528a11.3 11.3 0 0 0 2.794-.239c.962-.275 1.348-1.118 1.977-1.806a2.8 2.8 0 0 1 1.292-.798c.201-.062.419-.117.632-.182a3.55 3.55 0 0 1 1.491.696 4.13 4.13 0 0 1 .92 4.377 5 5 0 0 1-.395.904 1.2 1.2 0 0 0-.37.602 13.4 13.4 0 0 1-2.905 2.764q-.614.47-1.248.913a34 34 0 0 1-3.297.912 32 32 0 0 1-7.23.614 8.7 8.7 0 0 0-3.774.676 10 10 0 0 0-2.504 1.796c-.813.753-1.568 1.569-2.42 2.281a20 20 0 0 1-3.087 1.85 15 15 0 0 0-3.17 2.576 11 11 0 0 0-1.173 1.434c-.155.15-.311.296-.463.449a5.64 5.64 0 0 0-1.835 3.436c-.202 1.535-.049 3.128-.142 4.675a42 42 0 0 1-.56 4.802 29.4 29.4 0 0 1-2.645 8.571 27.1 27.1 0 0 1-4.835 6.424c-2.104 2.126-4.354 4.157-6.604 6.128-.12.104.038.312.17.22a53.5 53.5 0 0 0 6.35-4.84 31 31 0 0 0 5.137-6.047 25.7 25.7 0 0 0 3.121-7.893 61 61 0 0 0 1.41-9.19l.01-.01a36 36 0 0 1 .296 4.172 39.6 39.6 0 0 1-1.459 11.427c-.033.114.131.152.173.048a29.9 29.9 0 0 0 2.305-10.446 32 32 0 0 0-.28-5.272c-.05-.365-.11-.73-.17-1.093.213-.329.42-.659.634-.965.557-.803 1.12-1.602 1.67-2.41a12.7 12.7 0 0 0 2.1-4.388l.41-.22a23.6 23.6 0 0 0 3.208-1.798 26 26 0 0 0 2.425-2.172 11.7 11.7 0 0 1 2.447-1.95 7.04 7.04 0 0 1 3.483-.65 31.4 31.4 0 0 0 7.23-.637 14 14 0 0 0 3.578-1.356 13.4 13.4 0 0 0 1.704-1.075c.125-.097.229-.21.342-.314.228-.126.443-.272.661-.414q.32-.103.63-.208a19 19 0 0 0 1.862-.669 2.5 2.5 0 0 0 .736-.512c.241-.25.41-.558.627-.826a9 9 0 0 1 .721-.727 6 6 0 0 0 .231-.236c.696-.221 1.39-.445 2.09-.652a85 85 0 0 1 4.763-1.26c3.207-.755 6.45-1.342 9.702-1.866 6.748-1.087 13.529-1.981 20.291-2.97 1.588-.233 3.209-.59 4.813-.663 1.081-.049 2.248.301 2.082 1.609a6.16 6.16 0 0 1-1.913 3.228 15.7 15.7 0 0 1-3.173 2.57 16.9 16.9 0 0 1-7.936 2.363 16.7 16.7 0 0 0-4.753.932c-1.61.585-3.197 1.244-4.79 1.87-3.537 1.391-7.08 2.771-10.586 4.233a52 52 0 0 0-4.814 2.18 17.8 17.8 0 0 0-3.009 2.146c.026-.095.045-.19.075-.285.321-1.025.383-2.063.626-3.099a.05.05 0 0 0-.098-.027c-.227.541-.538 1.038-.81 1.557-.24.464-.423.949-.644 1.422-.41.882-1.357 1.758-1.386 2.78a3.4 3.4 0 0 0 .416 1.431c.208.49.365.992.524 1.499a16 16 0 0 1 .591 3.327c.012.125.212.178.238.032a18 18 0 0 0-.12-5.995 3.2 3.2 0 0 1 .285-1.405c.028-.108.051-.217.077-.325 1.373-.596 2.786-1.085 4.14-1.732a88 88 0 0 1 4.862-2.157c3.421-1.385 6.883-2.672 10.32-4.017 1.733-.68 3.456-1.426 5.226-2.003a25 25 0 0 1 5.195-.753 17.6 17.6 0 0 0 8.394-3.232c.312-.228.638-.476.966-.74.302-.047.603-.101.904-.15a72 72 0 0 1 2.21-.312 74 74 0 0 1 4.263-.448q2.06-.148 4.127-.154a9.7 9.7 0 0 1 3.698.334c2.248.958.743 3.94-.23 5.275a13.65 13.65 0 0 1-5.423 4.364c-2.372 1.062-4.997 1.393-7.507 1.98a23.5 23.5 0 0 0-3.617 1.115c-1.216.5-2.383 1.102-3.575 1.654a72 72 0 0 1-7.545 2.826c-1.29.429-2.579.86-3.857 1.322a12.7 12.7 0 0 0-3.437 1.657 34 34 0 0 1-3.405 2.513 42 42 0 0 1-3.915 1.92q-2.148.96-4.306 1.9a13.7 13.7 0 0 0-3.828 2.059c-.039.01-.076.024-.115.03a.59.59 0 0 0-.429.43 17 17 0 0 0 .011 3.687m-39.709-13.392a16 16 0 0 0 1.383-1.849c.488-.77.864-1.66 1.356-2.455q.469-.256.939-.503a14 14 0 0 1-2.3 4.288c-.54.747-1.09 1.487-1.635 2.23-.158.215-.33.431-.503.65-.065-.35-.132-.701-.213-1.047q-.024-.098-.05-.194.529-.543 1.023-1.12m-.96.177a6 6 0 0 1 .528-.948c.479-.7 1.016-1.362 1.516-2.048.231-.317.484-.623.714-.942.1-.062.205-.116.307-.177-.329.54-.62 1.109-.954 1.602a17 17 0 0 1-1.492 1.91c-.195.214-.409.407-.62.603"/><path fill="currentColor" d="M415.786 76.318c-.563-1.537-.97-3.117-1.387-4.698a35 35 0 0 1-.544-2.457 6 6 0 0 0-.768-2.36 1.05 1.05 0 0 0-.89-.466 17 17 0 0 1-4.006-6.214c-.904-2.392-1.615-4.902-2.3-7.365-.017-.061-.123-.052-.115.015a31.8 31.8 0 0 0 1.613 7.777 20.3 20.3 0 0 0 1.664 3.476 16 16 0 0 0 1.08 1.546c.394.5.848.952 1.238 1.454a.93.93 0 0 0 .07.738q.309.577.613 1.159a55 55 0 0 0 2.29 9.263.05.05 0 0 0 .097-.027c-.736-2.803-1.342-5.633-1.975-8.458a99 99 0 0 1 3.232 6.784c1.303 3.055 2.434 6.176 3.94 9.141.022.043.098.013.08-.033-1.28-3.103-2.778-6.12-3.932-9.275m-9.583 3.724a57 57 0 0 1-6.254 2.289 13 13 0 0 1-1.447.394c-.52.093-1.019-.059-1.546.04q-1.646.307-3.303.533a64.3 64.3 0 0 0-12.909 2.955.137.137 0 0 0 .073.264c2.284-.312 4.557-.672 6.847-.94 2.225-.262 4.465-.394 6.69-.663a14.8 14.8 0 0 0 3.275-.578c.524-.194.924-.58 1.464-.771q.764-.272 1.512-.586c1.947-.818 3.772-1.887 5.646-2.856.054-.028.006-.104-.048-.08m46.46-46.299a6.4 6.4 0 0 0-1.577-.172 14 14 0 0 0-1.626.028c-.033.003-.045.055-.008.062a14 14 0 0 0 1.603.192 6.5 6.5 0 0 0 1.608-.012c.052-.01.045-.084 0-.098m-.255-.918a6.8 6.8 0 0 0-1.513-.147 10 10 0 0 0-1.56.003c-.025.003-.035.04-.007.046a10 10 0 0 0 1.537.171 7 7 0 0 0 1.543.017c.048-.008.042-.078 0-.09m-1.498-.956-.398.005c-.268.002-.53.03-.797.057a.04.04 0 0 0 0 .078c.267.026.53.054.797.057l.398.004a.7.7 0 0 0 .363-.056.051.051 0 0 0 0-.088.7.7 0 0 0-.363-.056m-.631-.749-.106-.003a1 1 0 0 0-.203.002q-.193.035-.387.065a.02.02 0 0 0 0 .038q.194.03.387.065a1 1 0 0 0 .203.001q.052 0 .106-.003a.2.2 0 0 0 .1-.038.052.052 0 0 0 0-.088.17.17 0 0 0-.1-.039M468.48 41.76a7.7 7.7 0 0 0-1.625.056c-.53.053-1.048.134-1.572.222-.036.006-.027.062.008.062a24 24 0 0 0 1.626-.051 7.5 7.5 0 0 0 1.573-.22.035.035 0 0 0-.01-.069m.256-.888a13 13 0 0 0-2.147.153 52 52 0 0 0-2.07.253c-.021.003-.016.04.006.039a53 53 0 0 0 2.146-.149 13 13 0 0 0 2.07-.25.024.024 0 0 0-.005-.046m-1.398-.702a23 23 0 0 1-3.069.074c-.015 0-.015.022 0 .024a16 16 0 0 0 3.069-.05c.03-.004.03-.05 0-.047m-1.016-.831a2 2 0 0 0-.449-.127 2 2 0 0 0-.463.006 4.7 4.7 0 0 0-.909.197c-.079.021-.044.133.034.12a7 7 0 0 1 .91-.044 4 4 0 0 0 .443-.005c.145-.02.29-.034.434-.057.052-.008.038-.075 0-.09m-22.977 10.807c-.096-.015-.188-.042-.284-.05l-.27-.02a6 6 0 0 0-.584.031c-.398.02-.777.16-1.172.2a.055.055 0 0 0 0 .11 7 7 0 0 0 1.194.106 4 4 0 0 0 .591-.069 3.3 3.3 0 0 0 .54-.2.06.06 0 0 0-.015-.108m-.783-1.374c-.34.021-.674.086-1.015.116a9 9 0 0 1-1.023.03c-.04 0-.04.06 0 .063a9 9 0 0 0 1.043 0 4 4 0 0 0 1.002-.156c.028-.009.025-.056-.007-.053m-1.112-1.297a.75.75 0 0 0-.424-.085 2.5 2.5 0 0 0-.43.048 7 7 0 0 0-.842.23.031.031 0 0 0 .008.06c.286-.003.572.002.857.003a4 4 0 0 0 .423-.02.8.8 0 0 0 .409-.121.067.067 0 0 0 0-.115m-.915-1.352a.8.8 0 0 0-.472-.057 1.4 1.4 0 0 0-.46.156c-.04.022-.004.078.036.06a1.3 1.3 0 0 1 .439-.107c.073-.004.146-.01.219-.008.075.001.149.008.224.007a.028.028 0 0 0 .014-.05m-3.95-7.46a4 4 0 0 0-.77.004l-.814.02-1.627.036a.012.012 0 0 0 0 .024l1.627.035.813.02a4 4 0 0 0 .771.004.075.075 0 0 0 0-.143m-.489-1.255-.257.017q-.288.017-.577.017a10 10 0 0 1-1.13-.072c-.013-.002-.016.02-.003.023a10 10 0 0 0 1.111.121q.278.014.557.011.15.002.299-.01a.5.5 0 0 0 .227-.046c.015-.01.02-.038 0-.047a.5.5 0 0 0-.227-.014m-.661-1.005q-.084-.041-.17-.077a1 1 0 0 0-.198-.046 3 3 0 0 0-.396-.054 4 4 0 0 0-.799.042c-.052.007-.04.094.013.092a5 5 0 0 1 .771.027c.129.014.257.023.385.043.059.01.118.025.178.03.065.007.133.005.199.008a.035.035 0 0 0 .017-.065m-.649-1.269a1.3 1.3 0 0 0-.218-.028l-.228.001-.455.003a.05.05 0 0 0 0 .101l.455.003h.228a1.2 1.2 0 0 0 .218-.027.028.028 0 0 0 0-.053m-42.945 15.197a23 23 0 0 1-1.539 2.809q-.428.665-.9 1.3c-.322.431-.709.832-.99 1.289-.049.078.058.152.122.095a7.2 7.2 0 0 0 .965-1.217q.47-.663.89-1.361a23 23 0 0 0 1.48-2.9c.007-.018-.02-.034-.028-.015m-.634 4.197a8 8 0 0 0-.732.907 5 5 0 0 0-.515 1.044c-.01.025.031.042.043.018.172-.339.373-.66.568-.986a8 8 0 0 1 .658-.96c.012-.015-.008-.037-.022-.022m9.742-16.978c-.233-.025-.466-.072-.7-.081a9 9 0 0 1-.697-.054 12 12 0 0 1-1.406-.236.055.055 0 0 0-.03.105 7.2 7.2 0 0 0 1.41.344q.36.049.723.066a3.4 3.4 0 0 0 .709-.075c.042-.007.027-.065-.01-.07m.519-.742c-.647-.16-1.315-.22-1.971-.33-.66-.11-1.322-.224-1.978-.359a.05.05 0 0 0-.027.098c.658.182 1.318.343 1.99.46a9.5 9.5 0 0 0 1.975.208.04.04 0 0 0 .01-.077m-1.908-1.518a2 2 0 0 0-.293-.128c-.097-.028-.202-.039-.3-.058-.219-.042-.436-.085-.655-.117q-.66-.097-1.32-.198c-.038-.006-.056.05-.016.06q.644.157 1.285.32c.215.055.431.098.648.143.1.02.2.046.3.061a2 2 0 0 0 .33-.003c.038-.001.062-.06.021-.08m-1.801-1.678a3.5 3.5 0 0 1-1.014-.137c-.02-.006-.027.024-.008.03a2.7 2.7 0 0 0 1.022.146.02.02 0 0 0 0-.039m-12.233 14.434a9.5 9.5 0 0 0-3.353.23c-.055.01-.038.089.012.091a9.4 9.4 0 0 0 3.341-.185c.061-.019.072-.123 0-.136m-2.182-1.462a2 2 0 0 0-.522-.008c-.185.009-.37.037-.553.058l-1.105.125c-.043.005-.046.072 0 .07l1.105-.044c.184-.007.37-.007.553-.026a2.2 2.2 0 0 0 .522-.085c.04-.014.05-.08 0-.09m-3.33-1.223a.012.012 0 0 0 0 .024h.766a.012.012 0 0 0 0-.024Zm-.766-1.408a.016.016 0 0 0 0 .031h.51a.016.016 0 0 0 0-.03ZM141.133 243.382c-1.036 2.956-2.136 5.89-3.198 8.837q-.785 2.178-1.604 4.344-.412 1.084-.855 2.154a8.4 8.4 0 0 0-.705 2.086c-.01.073.09.079.123.033a7.5 7.5 0 0 0 .891-1.908c.274-.722.546-1.443.826-2.162q.863-2.216 1.683-4.448c1.075-2.935 1.998-5.928 2.877-8.926.007-.024-.03-.034-.038-.01m-5.624 4.648q-1.684 3.715-3.315 7.452c-.527 1.21-1.041 2.426-1.56 3.64a29 29 0 0 0-1.468 3.708.047.047 0 0 0 .085.036 30 30 0 0 0 1.698-3.702c.51-1.188 1.022-2.374 1.522-3.566q1.577-3.76 3.095-7.544c.013-.033-.043-.056-.057-.024M92.278 85.468c-.153-.765-.31-1.529-.457-2.295q-.432-2.254-.788-4.523c-.002-.015-.024-.008-.022.007q.305 2.236.682 4.462c.127.741.255 1.483.4 2.22a13.4 13.4 0 0 0 .483 2.201c.019.05.103.048.1-.013a15 15 0 0 0-.398-2.059m1.564 1.692c-.127-.855-.222-1.713-.363-2.567l-.84-5.104c-.005-.03-.05-.017-.045.012l.72 5.035c.118.822.278 1.633.408 2.453a18 18 0 0 0 .413 2.554.027.027 0 0 0 .053-.007 16.5 16.5 0 0 0-.346-2.375m.796-3.751c-.004-.025-.05-.02-.046.007.305 2.448.602 4.898.934 7.343.01.078.149.06.138-.018-.32-2.447-.678-4.889-1.026-7.331m2.2 5.619c-.004-.02-.033-.011-.03.009.106.737.192 1.482.328 2.215.004.021.041.016.039-.006-.086-.742-.222-1.48-.337-2.218m8.752-3.888q-.218-.449-.466-.881a12 12 0 0 0-1.102-1.568c-.02-.024-.06.008-.043.033a19 19 0 0 1 .98 1.597q.23.41.433.833.1.212.203.422a2.6 2.6 0 0 0 .217.413c.024.031.094.028.088-.024a2.9 2.9 0 0 0-.31-.825m1.413.142q-.12-.196-.236-.395-.22-.371-.43-.748-.431-.78-.8-1.592c-.008-.02-.043-.006-.035.015q.34.829.744 1.63.205.412.434.812.115.2.234.397a.9.9 0 0 0 .218.299c.038.025.074-.017.069-.053a1.1 1.1 0 0 0-.198-.365m1.071-.524-.188-.274q-.19-.284-.366-.577-.346-.576-.639-1.182c-.013-.028-.053-.004-.04.023q.273.615.601 1.205.162.289.336.57.087.14.178.28a.6.6 0 0 0 .19.217c.019.01.049-.001.046-.027a.55.55 0 0 0-.118-.236m.827-1.333a.77.77 0 0 1-.47-.69.012.012 0 0 0-.023 0 .8.8 0 0 0 .485.72c.018.008.027-.022.008-.03m.865-1.208a.012.012 0 0 0-.016.016l.34.34a.012.012 0 0 0 .017-.016Zm13.104 32.522a2.6 2.6 0 0 0-.37-.256q-.205-.135-.403-.28-.403-.296-.778-.627a11 11 0 0 1-1.334-1.406c-.008-.01-.027.003-.019.014a11 11 0 0 0 1.332 1.448q.348.316.723.603.205.156.418.304a2 2 0 0 0 .404.246c.026.01.045-.028.026-.046m1.736-.392a1.5 1.5 0 0 0-.327-.233l-.397-.25q-.386-.242-.756-.507a16 16 0 0 1-1.45-1.176c-.011-.01-.027.006-.017.016a16 16 0 0 0 1.41 1.234q.345.267.705.515.191.137.393.257a1.4 1.4 0 0 0 .405.203.035.035 0 0 0 .034-.059m1.333-1.178c-.361-.138-.725-.256-1.078-.418a6 6 0 0 1-.976-.57c-.018-.013-.04.016-.024.03a6 6 0 0 0 .965.636 3.5 3.5 0 0 0 1.096.382.031.031 0 0 0 .017-.06m1.848-1.366a1 1 0 0 1-.13.036.4.4 0 0 1-.14-.01.37.37 0 0 1-.223-.159.02.02 0 0 0-.033.02.42.42 0 0 0 .244.184.4.4 0 0 0 .155.016.27.27 0 0 0 .15-.048c.018-.016-.002-.045-.023-.04m-9.263 3.763a.016.016 0 0 0-.03.008c.45 1.827.85 3.682 1.418 5.477a.023.023 0 0 0 .045-.013c-.38-1.843-.936-3.658-1.433-5.472m104.338 91.613a65 65 0 0 0-9.585-4.521c-.032-.014-.056.042-.024.057 3.221 1.445 6.333 3.127 9.57 4.531.045.02.083-.04.04-.067m4.463 1.709.096.096a1.1 1.1 0 0 0-.526-.32 5 5 0 0 0-.487-.142c-.161-.046-.324-.104-.489-.136-.038-.007-.085-.013-.12-.022q-.06-.017-.116-.036l-.271-.084a.258.258 0 0 0-.138.497c.44.162.87.35 1.307.524a1.5 1.5 0 0 0 .718.121c.106-.01.237-.08.24-.201.002-.144-.114-.22-.214-.297m3.831-3.158a25 25 0 0 0-3.406-1.498l-3.54-1.42c-2.397-.96-4.808-1.88-7.217-2.809-.025-.009-.042.033-.018.043 2.308.987 4.612 1.984 6.933 2.94l3.531 1.454a26 26 0 0 0 3.678 1.382.051.051 0 0 0 .04-.092m3.61-3.123a28 28 0 0 0-3.31-1.464c-.972-.424-1.926-.89-2.909-1.287-2.165-.873-4.367-1.61-6.595-2.303-.044-.014-.06.051-.019.067 2.141.834 4.266 1.714 6.397 2.574 1.074.434 2.168.815 3.236 1.265 1.036.436 2.036 1.03 3.104 1.376a.126.126 0 0 0 .096-.228m3.433-2.107a2.1 2.1 0 0 0-.882-.765c-.41-.175-.854-.247-1.27-.406-.983-.377-1.915-.894-2.863-1.351a81 81 0 0 0-5.254-2.332c-.024-.01-.042.031-.018.043 1.746.848 3.503 1.671 5.249 2.521a29 29 0 0 1 2.587 1.338c.39.243.718.557 1.099.812a2.17 2.17 0 0 0 1.224.363.15.15 0 0 0 .128-.223m3.201-3.342c-.286-.087-.59-.108-.881-.173a4.7 4.7 0 0 1-1.01-.4 36 36 0 0 1-1.673-.865c-1.286-.706-2.576-1.373-3.923-1.957a.043.043 0 0 0-.043.074 18.8 18.8 0 0 0 3.294 1.988c.57.268 1.149.52 1.72.787a8.4 8.4 0 0 1 1.686.908c.316.247.932.827 1.332.407.316-.332-.222-.685-.502-.77m.292-3.981c-.224-.108-.446-.223-.673-.323-.215-.093-.437-.17-.655-.256-.46-.178-.93-.323-1.398-.476-.07-.023-.121.09-.052.121.444.194.883.397 1.336.565.227.084.452.178.681.253.238.078.482.14.722.208.054.016.092-.067.039-.092m3.796 1.518a.2.2 0 0 0-.046-.052c-.04-.12-.218-.167-.325-.192l-.4-.094c-.273-.064-.54-.136-.81-.216-.12-.036-.168.147-.051.188q.393.14.778.302l.373.158c.106.044.276.112.38.034a.2.2 0 0 0 .071-.016.083.083 0 0 0 .03-.112m3.507-2.528a47 47 0 0 0-5.426-1.767c-.044-.013-.06.052-.018.068a47 47 0 0 0 5.423 1.775.04.04 0 0 0 .02-.076m3.095-2.609a4.4 4.4 0 0 0-1.034-.303q-.538-.128-1.072-.27c-.725-.193-1.45-.38-2.17-.592-.044-.013-.06.052-.019.068.704.263 1.412.515 2.135.721q.53.152 1.066.29a3.7 3.7 0 0 0 1.066.188.055.055 0 0 0 .027-.102m2.191-2.301a1.5 1.5 0 0 0-.464-.19c-.176-.044-.352-.098-.53-.132-.353-.066-.707-.126-1.06-.189a.047.047 0 0 0-.026.09c.347.111.692.232 1.042.334.168.049.341.083.511.124a1.5 1.5 0 0 0 .516.049c.044-.006.04-.065.011-.086m2.389-2.082a3 3 0 0 0-.348-.153 3 3 0 0 0-.323-.122q-.353-.11-.707-.218c-.054-.016-.073.064-.023.083l.68.264a4 4 0 0 0 .34.11 3 3 0 0 0 .357.093c.032.005.057-.039.024-.057m3.221-2.88a1.4 1.4 0 0 0-.625-.07 1.8 1.8 0 0 0-.603.2c-.05.026-.006.096.043.074a2.2 2.2 0 0 1 1.178-.15c.033.003.035-.045.008-.054M375 110.39a46 46 0 0 0-6.178-3.31.035.035 0 0 0-.036.06 46 46 0 0 0 6.167 3.33.047.047 0 0 0 .048-.08m6.23-.023a6.8 6.8 0 0 0-1.363-.64q-.609-.263-1.213-.532-1.299-.577-2.572-1.206-2.546-1.258-4.998-2.698a.05.05 0 0 0-.052.088 62 62 0 0 0 5.112 2.878q1.27.634 2.565 1.216a10 10 0 0 0 2.502.967c.043.005.046-.053.02-.073m4.293-1.43c-1.517-.743-3.172-1.263-4.736-1.903q-2.516-1.03-5-2.133c-.046-.02-.086.046-.04.067q2.426 1.133 4.883 2.198a44 44 0 0 0 4.812 1.964c.112.033.19-.14.081-.193m3.579-1.041a13 13 0 0 0-1.664-.715l-1.773-.739c-1.181-.492-2.369-.97-3.553-1.452-.029-.012-.05.037-.021.05 1.168.52 2.335 1.047 3.508 1.559l1.76.769a13 13 0 0 0 1.668.706.098.098 0 0 0 .075-.178m2.859-1.136c-.64-.262-1.297-.477-1.942-.726q-.994-.383-1.948-.857c-.04-.02-.076.039-.036.06a15 15 0 0 0 3.91 1.583.031.031 0 0 0 .016-.06m2.063-1.259c-.394-.126-.792-.235-1.19-.345a.016.016 0 0 0-.008.03c.394.124.787.251 1.185.36a.023.023 0 0 0 .013-.045m3.229-.971a1 1 0 0 0-.2-.054l-.22-.044-.435-.086c-.044-.009-.063.058-.018.068l.432.09.213.044a1 1 0 0 0 .214.032c.025 0 .04-.039.014-.05m3.107-1.088a.9.9 0 0 0-.306-.17 1.4 1.4 0 0 0-.38-.09 1.8 1.8 0 0 0-.741.1c-.065.02-.057.126.016.122a2.4 2.4 0 0 1 .34.005c.119.01.235.035.354.044.114.009.224.035.337.048q.081.007.162.02a1 1 0 0 0 .174.028.063.063 0 0 0 .044-.107M361.514 84.4c-1.285-.187-2.582-.262-3.873-.398q-2.078-.218-4.144-.538c-.034-.005-.05.046-.014.053a75 75 0 0 0 3.922.627 29 29 0 0 0 4.097.341c.047 0 .061-.077.012-.084m4.445-2.658a2.5 2.5 0 0 0-1.261-.02 10 10 0 0 1-1.667.007q-1.508-.059-3.015-.158a79 79 0 0 1-6.347-.664c-.039-.006-.056.053-.016.06q3.045.51 6.123.776c1.041.089 2.089.14 3.134.168a16 16 0 0 1 1.776.07 2.4 2.4 0 0 0 1.273-.012.118.118 0 0 0 0-.227m2.561-2.938a2.3 2.3 0 0 0-1.101-.141c-.428-.004-.854.01-1.282.028a27 27 0 0 1-2.886-.048c-.926-.061-1.85-.125-2.779-.122-.97.003-1.921.169-2.885.23a.027.027 0 0 0 0 .055c.926.009 1.85.127 2.778.126.964-.002 1.925-.078 2.886-.124a19 19 0 0 1 2.779.048c.463.044.925.09 1.389.12a2.3 2.3 0 0 0 1.101-.057.067.067 0 0 0 0-.115m-.21-2.8c-.962-.113-1.928-.121-2.894-.172-.963-.051-1.925-.08-2.887-.14-.022-.002-.028.035-.006.038a25 25 0 0 0 5.787.345.035.035 0 0 0 0-.07m3.13-.01a1.4 1.4 0 0 0-.189-.013c-.116-.002-.23.008-.347.017-.24.02-.48.02-.72.028a.07.07 0 0 0 0 .14c.24.008.48.01.72.029.117.01.23.019.347.017a1.3 1.3 0 0 0 .189-.013.26.26 0 0 0 .147-.061.06.06 0 0 0 0-.083.25.25 0 0 0-.147-.061m1.459-2.686c-.75.075-1.492.183-2.247.2a13 13 0 0 1-2.334-.166c-.02-.004-.028.026-.008.03a13 13 0 0 0 2.298.225 8.5 8.5 0 0 0 2.297-.243c.025-.007.021-.049-.006-.046m1.37-2.333c-.625.032-1.248.125-1.87.196-.029.004-.03.05 0 .047.625-.062 1.256-.103 1.875-.205.022-.003.017-.039-.005-.038m1.869-2.379a6 6 0 0 0-.34.086l-.337.098a.02.02 0 0 0 .01.038l.342-.082q.17-.042.337-.095a.023.023 0 0 0-.012-.045M377.7 65.7a.03.03 0 0 0-.04.002l-.095.074a1 1 0 0 0-.093.08l-.174.166a.062.062 0 0 0 .089.088l.167-.178a2 2 0 0 0 .155-.192.03.03 0 0 0-.008-.04m3.39 17.832c-.679-.178-1.361-.341-2.042-.509-.044-.01-.063.057-.019.068.683.161 1.365.327 2.05.479a.02.02 0 0 0 .011-.038m6.975-.321c-2.749-.842-5.567-1.462-8.358-2.147a.023.023 0 0 0-.012.045c2.775.747 5.542 1.565 8.355 2.155a.027.027 0 0 0 .015-.053m5.08-2.282a20 20 0 0 0-2.573-.722c-.862-.226-1.727-.44-2.591-.658l-5.184-1.309a.023.023 0 0 0-.012.045l5.246 1.468c.858.24 1.715.484 2.575.716a19 19 0 0 0 2.516.629c.105.013.103-.136.023-.169m6.829-.427c-1.212-.483-2.502-.813-3.752-1.186q-1.885-.563-3.777-1.102-3.785-1.078-7.607-2.012a.02.02 0 0 0-.01.038q3.794 1.039 7.574 2.132 1.89.547 3.772 1.118c1.25.38 2.496.834 3.767 1.132a.063.063 0 0 0 .033-.12m2.562-1.899c-2.72-.973-5.566-1.668-8.339-2.475a818 818 0 0 0-8.367-2.374.031.031 0 0 0-.016.06c2.774.844 5.549 1.684 8.332 2.498 2.772.81 5.546 1.755 8.361 2.397a.055.055 0 0 0 .03-.106m.532-2.797c-2.368-.883-4.88-1.472-7.305-2.179q-3.659-1.066-7.331-2.082a.016.016 0 0 0-.009.03q3.637 1.142 7.292 2.227c2.42.722 4.85 1.59 7.317 2.132a.066.066 0 0 0 .035-.128m-6.834-4.685a29 29 0 0 1-4.786-1.296c-.019-.007-.027.023-.008.03a25 25 0 0 0 4.782 1.312c.03.004.042-.04.012-.046m4.587 1.047a.016.016 0 0 0 0 .031h.51a.016.016 0 0 0 0-.031Zm-3.549-3.639c-.618-.247-1.248-.458-1.876-.677-.07-.025-.102.089-.03.113.628.212 1.254.432 1.892.616.034.01.046-.04.014-.052m17.351-3.889c-.237-.086-.472-.178-.71-.26-.237-.082-.485-.138-.726-.205a29 29 0 0 0-1.463-.367.035.035 0 0 0-.019.068q.714.248 1.438.458c.24.07.481.152.725.207.246.056.494.102.74.152a.027.027 0 0 0 .015-.053m-.347-1.83a4.3 4.3 0 0 0-.799-.097 8 8 0 0 1-.913-.167 8 8 0 0 1-1.676-.62c-.022-.012-.042.021-.02.033a8 8 0 0 0 1.67.68 8 8 0 0 0 .892.195 2.3 2.3 0 0 0 .846.044.035.035 0 0 0 0-.068m-1.506-1.936a2.8 2.8 0 0 0-.753-.293 19 19 0 0 0-.757-.23l-1.585-.44a.05.05 0 0 0-.027.098l1.559.533q.375.128.755.239a2.7 2.7 0 0 0 .784.18.047.047 0 0 0 .024-.087m-.887-2.024c-.112-.004-.22-.02-.332-.026-.111-.004-.222-.002-.333-.009a4.4 4.4 0 0 1-.652-.093 3.4 3.4 0 0 1-1.219-.525c-.036-.025-.081.033-.047.062a3.6 3.6 0 0 0 1.213.655 3 3 0 0 0 .684.119 2 2 0 0 0 .354-.003 2 2 0 0 0 .345-.088.047.047 0 0 0-.013-.092m-1.286-1.776a7 7 0 0 0-.26-.092l-.49-.16-1.016-.334c-.039-.012-.054.047-.017.06l.985.374.484.184q.12.046.243.087c.07.023.127.06.195.023a.04.04 0 0 0 .018-.044c-.028-.068-.075-.073-.142-.098m-1.161-1.672-.136-.042-.29-.09c-.05-.015-.069.06-.021.076l.288.098.135.046c.034.012.11.048.125-.009.016-.056-.065-.068-.1-.08m-.774-1.638-.507-.184c-.028-.01-.04.035-.012.045l.508.176c.024.009.034-.029.01-.037m9.728 19.917a4.5 4.5 0 0 0-.976-.662c-.343-.205-.712-.371-1.066-.56a.059.059 0 0 0-.059.102c.334.222.655.468 1 .674a4.5 4.5 0 0 0 1.044.544.059.059 0 0 0 .057-.098m-.369.87-.845-.52c-.038-.024-.074.038-.035.06l.857.501a.023.023 0 0 0 .023-.04m11.921-11.25a22 22 0 0 0-.522 2.245 29 29 0 0 0-.304 2.23c-.006.072.105.084.123.017.2-.74.357-1.499.497-2.252a22 22 0 0 0 .275-2.23c.003-.04-.058-.047-.069-.01M117.01 188.825c-3.495 9.185-6.954 18.41-9.897 27.79a247 247 0 0 0-2.35 8.01.074.074 0 0 0 .143.04c3.3-9.262 6.307-18.621 9.501-27.919q1.357-3.947 2.762-7.877c.035-.1-.122-.141-.159-.044m-2.943-3.333c-1.707 3.912-3.401 7.829-5.032 11.772-.404.975-.791 1.957-1.175 2.94a7.3 7.3 0 0 0-.487 1.339c-.036.216.002.435-.035.651a6 6 0 0 1-.283.927c-.7 2.031-1.484 4.034-2.24 6.045-.869 2.316-1.745 4.626-2.393 7.017-.027.1.114.132.151.041 1.59-3.947 2.684-8.074 4.201-12.05a15 15 0 0 1 .676-1.672 11 11 0 0 0 .711-1.21c.39-1.021.763-2.05 1.136-3.077a524 524 0 0 1 2.175-5.92q1.282-3.407 2.645-6.782c.011-.028-.038-.05-.05-.02m-6.685 6.121c-1.21 2.924-2.463 5.83-3.682 8.75a54 54 0 0 0-3.263 8.865.079.079 0 0 0 .142.06 54 54 0 0 0 3.613-8.661c1.105-2.992 2.165-6 3.273-8.991.02-.053-.062-.073-.083-.023m-3.62-.472a109 109 0 0 0-5.325 11.058c-.033.083.1.135.142.06a109 109 0 0 0 5.224-11.094c.011-.027-.026-.052-.04-.024m-4.433 1.016c-1.055 2.084-2.104 4.167-3.093 6.284-.02.045.044.085.068.04 1.078-2.073 2.094-4.172 3.106-6.277.026-.054-.054-.102-.081-.047m13.925 70.128a107 107 0 0 0-3.957 10.603c-.02.07.09.121.122.052a108 108 0 0 0 3.903-10.636c.015-.044-.051-.06-.068-.02m-3.009-3.385c-2.231 5.794-4.925 11.448-6.862 17.35a.094.094 0 0 0 .172.072c2.974-5.448 4.866-11.515 6.735-17.409.01-.03-.035-.04-.045-.012m-5.33 1.175c-1.347 3.96-3.076 7.792-4.351 11.774a.051.051 0 0 0 .093.039 58.3 58.3 0 0 0 4.34-11.79.043.043 0 0 0-.082-.023m-7.06 17.305c-.466.976-.87 1.976-1.34 2.95a5.35 5.35 0 0 0-.795 2.967.134.134 0 0 0 .222.059 6.05 6.05 0 0 0 1.147-2.845c.25-1.043.608-2.038.945-3.055.034-.104-.13-.176-.179-.076m.068-12.822c-1.708 3.53-3.395 7.077-4.952 10.677a81 81 0 0 0-4.026 10.895c-.022.078.098.135.135.057 1.664-3.456 3.011-7.033 4.414-10.6 1.45-3.686 2.904-7.368 4.463-11.01.01-.022-.023-.042-.034-.02m-7.651 6.897q-1.826 4.276-3.714 8.524c-1.228 2.77-2.51 5.531-3.48 8.404a.067.067 0 0 0 .12.051 85 85 0 0 0 3.728-8.3q1.765-4.3 3.517-8.606c.04-.098-.13-.17-.171-.073m-4.963.925c-1.464 3.055-2.98 6.084-4.476 9.122-1.462 2.97-3.05 5.915-4.25 9.002-.027.068.078.106.114.048a89 89 0 0 0 4.507-8.975c1.417-3.042 2.77-6.112 4.139-9.177.01-.022-.023-.042-.034-.02m-6.552 3.373q-1.82 4.667-3.834 9.255c-1.285 2.93-2.64 5.826-3.786 8.815-.032.083.1.137.143.06a81 81 0 0 0 4.012-8.85q1.847-4.6 3.533-9.26c.015-.044-.052-.061-.068-.02m-3.995-1.219c-1.337 3.606-2.717 7.196-4.083 10.79-.157.413-.348.826-.476 1.247-.142.466-.163.95-.319 1.415-.33.99-.74 1.956-1.156 2.912a195 195 0 0 1-1.172 2.648 8.4 8.4 0 0 0-.858 2.347c-.017.13.158.138.218.06a8.8 8.8 0 0 0 1.081-2.482c.32-.913.646-1.823.966-2.735s.65-1.822 1.035-2.708c.197-.455.516-.832.702-1.284.173-.42.32-.855.476-1.282 1.325-3.6 2.52-7.244 3.647-10.911.012-.04-.047-.054-.06-.017m-7.264 7.509q-1.536 4.385-3.423 8.632c-.606 1.366-1.229 2.722-1.852 4.08-.61 1.327-1.288 2.642-1.778 4.02-.022.062.067.09.1.043a27.6 27.6 0 0 0 2.173-4.046 77 77 0 0 0 1.754-4.057q1.706-4.267 3.086-8.656c.013-.038-.047-.054-.06-.016m-6.59 4.944a103 103 0 0 1-3.46 6.679 215 215 0 0 1-1.853 3.209c-.322.55-.649 1.098-.953 1.658a4.2 4.2 0 0 1-.933 1.37c-.062.05.006.15.076.13.949-.276 1.436-1.351 1.896-2.139a66 66 0 0 0 1.92-3.585 153 153 0 0 0 3.408-7.263c.03-.067-.07-.127-.101-.059m-7.144 5.112a49 49 0 0 1-2.61 4.696 113 113 0 0 0-2.724 4.638c-.037.068.056.147.11.085a21 21 0 0 0 3.078-4.453c.829-1.605 1.522-3.27 2.189-4.948.01-.025-.031-.042-.043-.018m-5.997 4.066c-.738 1.044-1.518 2.055-2.258 3.096a14.6 14.6 0 0 0-1.848 3.216c-.03.079.082.134.137.08a14.7 14.7 0 0 0 2.17-3.028c.638-1.1 1.232-2.223 1.873-3.32.028-.049-.043-.088-.074-.044m-5.156 3.033a26 26 0 0 0-2.68 3.943c-.028.057.044.123.092.071a26 26 0 0 0 2.71-3.943c.049-.078-.069-.141-.122-.07M210.354 52.78l-2.128-24.852-9.008 5.605c-10.071-10.277-18.478-14.088-25.595-11.61-12.394 4.31-13.881 26.064-14.01 28.53l5.991.315c.3-5.587 2.679-20.641 9.994-23.18 4.438-1.543 10.74 1.64 18.392 9.199l-8.743 5.44Zm58.34-21.192-2.128-24.851-9.007 5.604C247.487 2.065 239.08-1.747 231.963.731c-12.393 4.31-13.88 26.064-14.01 28.53l5.992.315c.3-5.586 2.678-20.64 9.994-23.18 4.437-1.543 10.74 1.64 18.39 9.199l-8.741 5.44Z"/></svg>