<svg xmlns="http://www.w3.org/2000/svg" data-name="blue spotted ray" viewBox="0 0 350.255 639.884"><path fill="currentColor" d="M142.464 172.151a63.3 63.3 0 0 0-1.657-11.377c-.01-.044-.087-.036-.081.012a91 91 0 0 1 .658 11.365c.004 3.808-.392 7.605-.247 11.408a.177.177 0 0 0 .347.047 33.9 33.9 0 0 0 .98-11.455m-4.067-2.75c-.036-.173-.286-.096-.26.072a42.4 42.4 0 0 1 .273 8.184 50 50 0 0 1-.333 3.894 12.4 12.4 0 0 0-.22 3.754c.03.176.267.171.35.046a8 8 0 0 0 1-3.651 35 35 0 0 0 .224-4.193 40.8 40.8 0 0 0-1.034-8.106m-1.894 5.314c-.007-.071-.115-.075-.114 0a26 26 0 0 1-.89 7.355 10.5 10.5 0 0 1-1.466 2.9 13.8 13.8 0 0 1-2.138 2.306c-.053.05.002.162.076.13a9.8 9.8 0 0 0 2.796-1.615 5.13 5.13 0 0 0 1.324-3.116 27.2 27.2 0 0 0 .412-7.96M58.53 86.582a.063.063 0 0 0-.123.017 62.3 62.3 0 0 0 2.577 13.941.094.094 0 0 0 .18-.05c-.735-4.655-1.665-9.297-2.634-13.908m.004 17.317a10.5 10.5 0 0 0-.831-2.279 6.95 6.95 0 0 1-1.059-2.992c-.125-1.742-.083-3.476-.35-5.208a24 24 0 0 0-.609-2.813 4 4 0 0 0-.992-2.11.122.122 0 0 0-.2.053 4.1 4.1 0 0 0 .14 2.181q.273 1.332.565 2.66c.39 1.761.884 3.495 1.226 5.267.32 1.657.373 3.316.792 4.956a39 39 0 0 0 1.364 5.265c.066.16.339.214.381 0a10.8 10.8 0 0 0-.427-4.98m-2.739 6.901a54 54 0 0 1-.524-2.13 71 71 0 0 1-.802-4.33c-.23-1.451-.442-2.908-.748-4.345-.153-.715-.293-1.436-.481-2.143a2.06 2.06 0 0 0-.685-1.314.283.283 0 0 0-.384.1 2.14 2.14 0 0 0-.046 1.522c.134.72.299 1.434.461 2.148.324 1.426.738 2.83 1.136 4.238.399 1.41.772 2.82 1.083 4.252.155.718.291 1.437.418 2.16a5 5 0 0 0 .52 1.86.2.2 0 0 0 .367-.1 5.1 5.1 0 0 0-.315-1.917m-3.803 1.217a27 27 0 0 1-1.036-3.788 30 30 0 0 1-.55-4.102c-.03-.534.147-2.319-.434-2.788a.2.2 0 0 0-.102-.145.14.14 0 0 0-.138 0c-.855.48-.163 2.05.044 2.758.367 1.251.642 2.532.934 3.803a92 92 0 0 1 .797 3.852c.126.674.25 1.353.345 2.032a2.23 2.23 0 0 0 .438 1.432.17.17 0 0 0 .235 0c.709-.77-.25-2.253-.533-3.054m-3.465.062a186 186 0 0 0-1.221-4.474.104.104 0 0 0-.2.055c.32 1.485.642 2.967.999 4.444a29 29 0 0 0 1.24 4.377c.024.058.129.06.122-.017a28.5 28.5 0 0 0-.94-4.386m-4.094 1.464a.135.135 0 0 0-.26.072q.339 1.222.603 2.464a22 22 0 0 0 .623 2.453.084.084 0 0 0 .164-.023 17.1 17.1 0 0 0-1.13-4.966"/><path fill="currentColor" d="M349.06 551.94a143 143 0 0 0-4.762-15.31c-7.307-20.325-14.959-40.532-22.446-60.791-3.726-10.083-7.492-20.141-11.87-29.964a323 323 0 0 0-6.752-14.15c-1.334-2.64-2.78-5.22-4.2-7.814a18.6 18.6 0 0 0 .244-3.81c-.146-2.138-.344-4.275-.516-6.413-.332-4.12-.714-8.241-.878-12.373-.333-8.393 1.186-16.672 1.141-25.054a119.3 119.3 0 0 0-2.95-24.362c-1.719-7.998-4.065-15.817-6.226-23.7-.34-1.239-.672-2.501-.973-3.775 2.746-6.186 4.31-12.823 6.11-19.336 2.013-7.287 3.91-14.607 5.767-21.936a291 291 0 0 0 2.867-12.432.083.083 0 0 0-.16-.044 258 258 0 0 0-3.645 10.672q-1.69 5.372-3.352 10.753c-2.227 7.224-4.39 14.475-6.428 21.754-.703 2.507-1.313 5.008-1.786 7.54a27 27 0 0 1-.41-6.574c.321-4.354 1.637-8.6.802-12.975-.037-.193-.335-.143-.337.046-.038 4.055-1.227 7.992-1.947 11.956a29.7 29.7 0 0 0 .163 11.795c.882 4.002 2.128 7.922 3.225 11.868 1.102 3.967 2.155 7.95 3.088 11.96a126 126 0 0 1 3.513 24.245 101 101 0 0 1-.421 12.252c-.37 4.191-.778 8.375-.735 12.588.048 4.67.483 9.328.859 13.98l.546 6.76c-.168-.331-.347-.658-.51-.992-1.123-2.285-2.147-4.63-3.134-6.976a.177.177 0 0 0-.341.094c2.226 9.818 7.17 18.867 11.46 27.894 4.494 9.455 8.49 19.11 12.16 28.913 7.468 19.947 14.778 39.955 22.162 59.933 1.798 4.865 3.635 9.719 5.27 14.642a74.3 74.3 0 0 1 3.767 14.716 21.9 21.9 0 0 1-.305 7.633c-.458 1.889-1.258 3.95-2.993 5.013-3.347 2.05-7.893.106-10.824-1.847-6.442-4.295-9.932-11.98-13.035-18.787q-6.52-14.302-13.25-28.506-6.807-14.349-13.838-28.59c-4.115-8.333-8.136-17.088-15.485-23.07.713.262 1.42.543 2.105.87.389.187.768.39 1.162.566a11 11 0 0 0 1.292.381.084.084 0 0 0 .094-.122 5.5 5.5 0 0 0-.877-1.147 11 11 0 0 0-1.153-.848q-.605-.403-1.233-.767a62 62 0 0 0-5.622-4.49c-2.011-1.534-4.056-3.032-6.053-4.584-.087-.067-.211.046-.125.125 1.853 1.698 3.704 3.365 5.674 4.93 1.182.938 2.377 1.887 3.626 2.75a20.7 20.7 0 0 0-4.515-1.462c-.158-.123-.313-.25-.475-.37q-1.127-.825-2.262-1.639a129 129 0 0 0-3.43-2.377 12.2 12.2 0 0 1 2.6-3.568c.436-.404-.135-1.165-.642-.832a11 11 0 0 0-3.999 4.603 21.6 21.6 0 0 0-1.762 6.24c-.737 5.266-.325 10.614-.067 15.903.591 12.076 1.57 24.128 2.538 36.178.977 12.17 1.9 24.348 3.006 36.508a697 697 0 0 0 1.86 18.095c.7 5.954 1.551 11.89 2.235 17.845a109 109 0 0 1 1.08 17.725c-.22 4.394-1.813 9.916-6.493 11.484-4.742 1.589-9.789-1.7-12.988-4.947a31.8 31.8 0 0 1-7.292-12.672c-1.767-5.48-2.533-11.211-3.31-16.897l-2.463-18.014-2.483-18.155a103 103 0 0 0-3.462-17.247c-.854-2.69-1.832-5.342-2.529-8.08a37.3 37.3 0 0 1-1.012-8.466c-.133-6.06-.295-12.11-.597-18.165-.283-5.694-.526-11.401-1.011-17.082a61 61 0 0 0-3.048-15.695 26 26 0 0 0-1.516-3.36c-.63-1.185-1.483-2.253-2.115-3.428-.208-.39-.8-.044-.592.346a21 21 0 0 1 1.346 3.964c.372 1.286.717 2.58 1.057 3.875.328 1.249.594 2.514.829 3.786a8.2 8.2 0 0 0-1.596-1.139 8.8 8.8 0 0 0-6.28-.718 12.1 12.1 0 0 0-4.453 2.115c.043-.118.08-.237.124-.354a66 66 0 0 1 2.823-6.244.27.27 0 0 0-.467-.273 60.5 60.5 0 0 0-6.342 11.555 23 23 0 0 0-.715 1.817c-.066.123-.142.24-.206.363a.24.24 0 0 0 .009.225c-.424 1.279-.79 2.586-1.16 3.856-.632 2.164-1.19 4.345-1.733 6.533-2.352 9.49-4.664 18.99-6.996 28.485l-14.118 57.497c-2.334 9.507-4.66 19.02-6.59 28.618a285 285 0 0 0-2.52 14.28c-.592 3.986-.818 8.106-1.847 12.014-.813 3.085-2.409 6.286-5.704 7.249-3.47 1.014-7.193-.797-9.864-2.92-5.827-4.632-9.312-12.017-11.198-19.055-2.013-7.518-2.442-15.372-2.279-23.122.177-8.358.598-17.25 6.053-24.037.557-.693 1.085-1.403 1.67-2.073a10 10 0 0 1 1.847-2.071.41.41 0 0 0-.414-.709 9 9 0 0 1-1.287.464c.194-1.45.246-2.932.433-4.382q.411-3.172.832-6.343.814-6.168 1.666-12.33.873-6.255 1.833-12.497a87 87 0 0 1 2.454-11.927c.562-1.856 1.315-3.647 1.874-5.503a23 23 0 0 0 .845-5.91 71.4 71.4 0 0 1 1.176-11.61 127 127 0 0 1 6.88-21.781c1.58-4.017 3.224-8.007 4.737-12.05a27.7 27.7 0 0 0 1.825-6.145 12.17 12.17 0 0 0-.93-6.106c-.086-.21-.416-.135-.35.097.556 1.979-.096 3.863-.752 5.734-.646 1.841-1.357 3.666-2.07 5.483-.184.469-.375.936-.56 1.404-.037-.067-.063-.138-.105-.203a3.73 3.73 0 0 0-1.797-1.405c-.075-.03-.152-.036-.227-.061a20 20 0 0 0-2.173-1.43 31 31 0 0 0-2.508-1.288c.174-.232.351-.46.523-.694.2-.274-.22-.552-.45-.347-.261.235-.502.488-.759.727-.128-.056-.252-.12-.381-.175-.076-.032-.128.095-.056.133.102.054.198.119.3.174a106 106 0 0 0-8.977 9.913 207 207 0 0 0-8.925 11.625q-8.852 12.387-17.504 24.922a357 357 0 0 0-30.006 52.073c-3.825 8.177-7.13 16.804-12.64 24.045-2.45 3.22-5.553 6.552-9.584 7.673-3.633 1.01-6.78-.724-8.479-3.954-1.698-3.227-2.041-7.042-2.363-10.612A107 107 0 0 1 65.2 557.5c.3-8.742 1.885-17.589 5.674-25.529a98 98 0 0 1 7.142-11.616 51 51 0 0 0 3.551-6.09 52 52 0 0 0 2.528-6.571c1.443-4.514 2.645-9.08 4.756-13.345a81 81 0 0 1 7.4-11.785l.221-.305q.551-.703 1.047-1.45c.903-1.256 1.79-2.518 2.618-3.841a.92.92 0 0 0 .127-.648c1.055-1.76 2.086-3.535 3.142-5.295 2.524-4.204 5.093-8.37 7.96-12.351a130 130 0 0 1 9.355-11.197 37 37 0 0 0 4.416-5.787 60 60 0 0 0 3.314-6.67c1.187-2.687 2.363-5.379 3.389-8.133 1.067-2.864 1.82-5.827 2.808-8.719a.198.198 0 0 0-.361-.152c-1.31 2.401-2.823 4.688-4.092 7.111-.355.677-.681 1.367-1.017 2.053.155-1.05.339-2.095.578-3.13a90 90 0 0 1 2.765-9.05c2.05-5.945 4.29-11.85 4.986-18.144a22.7 22.7 0 0 0 .09-5.035 10.4 10.4 0 0 0-.95-3.183 42 42 0 0 0 5.979-.641 76 76 0 0 0 9.965-2.563 8 8 0 0 0 2.003.218c1.328-.047 2.663-.201 3.983-.354a68 68 0 0 0 7.787-1.386 83 83 0 0 0 7.682-2.183 45.5 45.5 0 0 0 7.036-3.285.042.042 0 0 0-.032-.076c-2.41.822-4.893 1.439-7.329 2.182a70 70 0 0 1-7.606 1.884c-2.545.472-5.114.798-7.691 1.036l-.208.015q.924-.34 1.841-.684a105.5 105.5 0 0 0 15.442-7.145 73 73 0 0 0 8.03-5.32 59 59 0 0 0 6.922-6.467.192.192 0 0 0-.271-.272 61 61 0 0 1-6.555 5.281 72 72 0 0 1-6.924 4.463 95.5 95.5 0 0 1-15.211 6.823 126 126 0 0 1-16.756 4.843 44.7 44.7 0 0 1-9.28 1.045 26 26 0 0 1-4.59-.413c-1.523-.286-3.004-.75-4.522-1.052-3.52-.7-7.022.085-10.558.229a45.6 45.6 0 0 1-7.228-.242c.383-.273.764-.548 1.161-.809a10.77 10.77 0 0 1 7.093-1.64c.296.034.346-.437.07-.51a12.86 12.86 0 0 0-6.84.21 18 18 0 0 0-3.618 1.177 34 34 0 0 0-3.215 2.06c-2.162 1.48-4.27 3.054-6.559 4.337a49 49 0 0 1-7.812 3.354c-5.448 1.905-10.937 3.586-15.827 6.741-4.844 3.126-9.216 6.9-14.558 9.202-9.986 4.304-21.358 4.043-31.85 2.026a114 114 0 0 1-16.038-4.374c-2.505-.876-5.155-2.035-6.786-4.228a5.67 5.67 0 0 1-.556-6.542c1.226-1.94 3.444-3.126 5.424-4.147 2.637-1.36 5.285-2.68 7.868-4.142 5.324-3.015 10.314-6.615 15.775-9.388 9.428-4.787 19.992-6.374 29.86-9.965a47.8 47.8 0 0 0 13.609-7.3c2.237-1.783 4.232-3.84 6.34-5.768a36 36 0 0 1 3.827-3.048c.677.15 1.355.302 2.033.44a37 37 0 0 1 3.709.824 8.53 8.53 0 0 1 5.042 4.28.205.205 0 0 0 .32.041 2.27 2.27 0 0 0 .336-1.822 3.7 3.7 0 0 0-.648-2.09 5.2 5.2 0 0 0-2.091-1.263 8.7 8.7 0 0 0-2.565-1.04.136.136 0 0 0-.095.232 6 6 0 0 0 1.766.894c.662.293 1.36.55 1.99.906a2.34 2.34 0 0 1 1.153 1.733 3.86 3.86 0 0 1 .005 1.881 10.4 10.4 0 0 0-4.728-4.15 11.4 11.4 0 0 0-5.514-1.343 29 29 0 0 1 2.367-1.398c5.075-2.638 10.609-4.245 15.34-7.543 4.75-3.308 8.742-7.552 12.982-11.458a230.4 230.4 0 0 1 56.746-38.372q1.902-.908 3.797-1.83c1.16-.567 2.247-1.34 3.412-1.89.136 8.457.35 16.913.987 25.348.412 5.455 1.005 10.898 1.855 16.302.832 5.291 1.683 10.825 4.213 15.616 2.132 4.036 5.87 7.653 10.492 8.502 4.57.84 9.007-1.13 12.175-4.386 7.657-7.867 6.075-20.062 6.434-30.098a235.4 235.4 0 0 1 3.897-35.07c1.07-5.689 2.627-11.29 3.593-16.993 1.012-5.98.489-11.888.056-17.892q-1.282-17.773-.97-35.613.154-8.818.698-17.623c.37-5.982 1.098-11.95 1.37-17.934.12-2.63.107-5.258.166-7.888a148 148 0 0 0 4.512-18.685 172.8 172.8 0 0 0 2.483-39.585c.229-.702.459-1.404.668-2.112a68 68 0 0 0 1.908-9.907 93.5 93.5 0 0 0 .881-20.219 96.6 96.6 0 0 0-3.908-19.476q-2.823-9.655-6.162-19.144-1.874-5.319-3.899-10.582c-.678-1.756-1.36-3.51-2.09-5.244-.754-1.793-1.648-3.52-2.385-5.321-.089-.218-.446-.13-.36.1.582 1.554.988 3.158 1.514 4.73q.79 2.36 1.593 4.714 1.601 4.716 3.101 9.466 2.999 9.506 5.582 19.14a133.4 133.4 0 0 1 4.15 19.2 85 85 0 0 1-.285 19.868c-.254 2.118-.621 4.222-.967 6.328-.352-3.473-.796-6.944-1.412-10.377a69.4 69.4 0 0 0-3.625-12.272c-.082-.214-.472-.21-.44.06.454 3.704.835 7.417 1.298 11.121.47 3.759 1.131 7.485 1.527 11.255.468 4.457.73 8.932.84 13.412q-.099.364-.19.736a9.8 9.8 0 0 0 .245 4.231c-.003 1.392 0 2.785-.04 4.177a178 178 0 0 1-7.194 44.413c-1.173 4.057-2.387 8.091-3.803 12.072-1.423 4-3.065 7.922-4.339 11.972-.046.147.158.218.237.1a62.4 62.4 0 0 0 5.286-10.156 171 171 0 0 0 3.024-7.553c-.094.488-.19.976-.274 1.467-.477 2.83-.71 5.701-.955 8.559q-.734 8.608-1.095 17.242-.73 17.444.068 34.907c.27 5.884.831 11.748 1.122 17.628a57 57 0 0 1 .033 5.141c-.539.01-1.09.076-1.595.088-.982.025-1.964-.004-2.946-.02s-1.968-.013-2.947-.074a22 22 0 0 0-3.007-.43 19 19 0 0 0-2.564.8 14.3 14.3 0 0 1-2.997.301 27.5 27.5 0 0 1-6.15-.618c-.13-.027-.186.17-.056.2 1.915.46 3.81 1.065 5.761 1.354a13.6 13.6 0 0 0 2.827.124 11 11 0 0 1 2.898-.049 9.2 9.2 0 0 0 2.728-.387c1.054-.11 2.121-.106 3.18-.13.98-.02 1.964-.063 2.946-.05.583.007 1.234.087 1.865.092a35 35 0 0 1-.228 2.256c-.38 2.79-1.044 5.534-1.68 8.274a243 243 0 0 0-5.405 34.127q-.745 8.708-.848 17.455c-.03 2.538-.02 5.105-.177 7.652-.028-.17-.044-.342-.075-.51a15.2 15.2 0 0 0-.917-3.095 8.6 8.6 0 0 1-.525-1.705 1.76 1.76 0 0 0-.748-1.288 6.8 6.8 0 0 0-3.093-.314c-1.25.02-2.5-.046-3.75.01-1.158.052-2.307.173-3.46.278-1.186.107-2.493-.297-3.617.22-2.023.931-2.215 3.768-2.356 5.68-.184 2.49-.716 4.956-.92 7.45-.1 1.216-.126 2.43-.15 3.648a4.03 4.03 0 0 0 .548 2.81c.261.305.448.614.679.94a2.5 2.5 0 0 0 1.046.676 9.3 9.3 0 0 0 2.872.694 21.6 21.6 0 0 0 7.694-.602 33 33 0 0 0 1.91-.55 13.4 13.4 0 0 1-4.733 3.554c-4.089 1.774-8.419.397-11.468-2.668-3.612-3.63-4.928-8.799-5.873-13.674-1.015-5.239-1.729-10.532-2.245-15.842-1.053-10.818-1.292-21.694-1.455-32.555-.102-6.841-.164-13.682-.44-20.514.022-.003.046-.007.052-.031.908-3.264 1.549-6.603 2.355-9.894q1.21-4.942 2.665-9.818a.073.073 0 0 0-.14-.04q-1.557 4.93-2.871 9.93a81 81 0 0 0-2.073 9.502c-.11-2.636-.246-5.27-.44-7.902.616-2.438 1.14-4.903 1.663-7.357q1.182-5.547 2.28-11.11c.005-.025-.034-.036-.04-.01q-1.412 5.482-2.738 10.983c-.45 1.865-.906 3.735-1.319 5.614-.052-.63-.096-1.26-.155-1.889-.102-1.098-.22-2.194-.335-3.291a.089.089 0 0 0 .171.01 42.5 42.5 0 0 0 1.566-7.38 90 90 0 0 0 .832-6.788c.27.498.544.993.81 1.492.09.168.389.05.314-.132-2.112-5.124-4.158-10.292-6.597-15.272a58 58 0 0 0-3.758-6.784 12 12 0 0 0-3.47-3.587 25.7 25.7 0 0 0 3.408-3.588l.015-.02c.262.137.527.27.783.42a33 33 0 0 1 2.53 1.6q1.18.836 2.318 1.726a27 27 0 0 1 2.269 2.086.177.177 0 0 0 .277-.214 14.9 14.9 0 0 0-3.965-4.683 16 16 0 0 0-2.597-1.634c-.244-.12-.524-.268-.818-.406a30 30 0 0 0 1.171-1.817c1.444-.225 2.887-1.735 3.864-2.726a23.6 23.6 0 0 0 3.007-3.863 58.4 58.4 0 0 0 4.905-10.253c.026-.066-.083-.112-.114-.048-.804 1.658-1.803 3.211-2.755 4.787-.93 1.542-1.876 3.083-2.903 4.562a23.4 23.4 0 0 1-2.999 3.599 12 12 0 0 1-1.585 1.268 49 49 0 0 0 2.136-5.321c.659-1.944 1.16-3.915 1.669-5.902a34.5 34.5 0 0 0 1.109-6.047.152.152 0 0 0-.281-.076c-1.437 3.12-2.349 6.49-3.606 9.691a47.5 47.5 0 0 1-4.689 9.22 25.8 25.8 0 0 1-6.703 7.11c-3.382 2.3-7.324 3.344-11.172 4.572a81 81 0 0 0-11.3 4.795 70 70 0 0 1-11.012 4.734 29 29 0 0 1-10.297 1.05 4 4 0 0 0-.713-.35c-.595-.21-1.197-.4-1.794-.604a117 117 0 0 1-3.802-1.384 55 55 0 0 1-7.533-3.45.057.057 0 0 0-.058.1 68 68 0 0 0 7.223 4.224q.87.425 1.754.805-2.275-.418-4.529-.94a43 43 0 0 1-5.838-1.56 8 8 0 0 1-4.34-4.223 43 43 0 0 1-2.51-6.698 59 59 0 0 1-.838-3.143q-.323-2.159-.726-4.304a285 285 0 0 1-.653-3.62l-.003-.022q-.128-.908-.25-1.817a2.7 2.7 0 0 0-.138-.546 18 18 0 0 0-.329-1.755 33 33 0 0 0 6.212-.186c.002.629.087 1.262.124 1.687a26 26 0 0 0 .803 4.663 31.3 31.3 0 0 0 3.816 8.422c.096.15.38.054.304-.128a50.6 50.6 0 0 1-3.334-14.868 84 84 0 0 0 4.64-.844c2.25-.466 4.481-1.006 6.729-1.475a50.5 50.5 0 0 1 7.13-1.237c.212-.013.281-.336.053-.388a22.7 22.7 0 0 0-5.941-.676 42 42 0 0 0-5.898.668c-3.736.679-7.395 1.65-11.21 1.79a19.56 19.56 0 0 1-9.438-1.655 13.1 13.1 0 0 1-3.915-3.02 45 45 0 0 0-3.989-4.381c-1.65-1.402-3.256-2.842-4.965-4.174q-1.254-.976-2.53-1.924c-.913-.68-1.93-1.215-2.89-1.824-.113-.072-.226.086-.14.18a153 153 0 0 0 4.175 4.316c.356.351.706.712 1.06 1.068a69 69 0 0 0-10.081-4.746 133 133 0 0 0-14.485-3.88 9.36 9.36 0 0 1-5.633-3.245 23.8 23.8 0 0 1-2.978-5.6c-1.69-4.084-2.861-8.362-4.413-12.498a59 59 0 0 0-2.865-6.602 32 32 0 0 0-1.927-3.163 19.3 19.3 0 0 0-2.377-2.64.11.11 0 0 0-.171.132 52 52 0 0 1 2.867 6.063 61 61 0 0 1 2.168 6.288l.09.311a143 143 0 0 0-5.21-8.52c-2.973-4.512-6.63-8.407-10.19-12.44a11.6 11.6 0 0 1-2.053-3.028 10.6 10.6 0 0 1-.751-3.757 78 78 0 0 1 .439-8.44c.41-5.946.593-11.891.848-17.845.142-3.305.305-6.609.463-9.913.08-1.708.159-3.413.2-5.122.041-1.706-.042-3.414.03-5.122.007-.156-.224-.15-.239 0-.31 3.038-.838 6.043-1.132 9.087q-.38 3.957-.763 7.913c-.122-2.13-.225-4.26-.38-6.39-.529-7.332-.97-14.67-1.231-22.016a382 382 0 0 1-.176-21.974c.16-7.28.342-14.565.998-21.821.746-8.266 2.073-16.456 3.5-24.627a.11.11 0 0 0-.21-.058 140 140 0 0 0-4.627 21.638 209 209 0 0 0-2.18 21.852 414 414 0 0 0 1.105 44.294c.287 4.149.565 8.3 1.092 12.426.295 2.3.666 4.583 1.053 6.864-.315 2.995-.612 5.992-.837 8.996-.22 2.919-.532 5.85-.597 8.777a13.73 13.73 0 0 0 1.774 7.768 49 49 0 0 0 5.168 6.017q2.695 3.028 5.306 6.133c3.36 4.01 6.547 8.164 9.515 12.472.912 3.168 1.847 6.323 3.075 9.395 1.654 4.14 3.71 8.46 8.11 10.197A53 53 0 0 0 60 178.686q3.759.904 7.451 2.057c4.95 1.545 9.975 2.92 14.827 4.76.466.504.938 1.002 1.377 1.528 2.41 2.882 4.526 6.222 7.815 8.203a17.5 17.5 0 0 0 6.18 2.232 15 15 0 0 0 .21 3.006c.007.319.026.64.037.938a35 35 0 0 0 .401 3.74 59 59 0 0 0 3.634 13.449 15.8 15.8 0 0 0 3.218 5.511 11.9 11.9 0 0 0 5.25 2.774c2.241.638 4.536 1.14 6.815 1.62a41.5 41.5 0 0 0 14.294.947c8.466-1.18 15.56-6.31 23.38-9.343 4.09-1.586 8.426-2.488 12.38-4.428a22.5 22.5 0 0 0 3.211-1.938 10.93 10.93 0 0 1 3.875 4.18c.407.665.793 1.34 1.185 2.014.942 3.749 1.828 7.512 2.517 11.316a163 163 0 0 1 2.069 16.555c.418 5.435.504 10.877.679 16.322.18 5.597.278 11.197.359 16.796l.092 6.232a.9.9 0 0 0-.601.038c-1.345.582-2.826.878-4.184 1.461a108 108 0 0 0-3.994 1.805q-3.949 1.887-7.824 3.924-7.75 4.072-15.175 8.725a232 232 0 0 0-28.175 20.775c-4.406 3.792-8.538 7.86-12.825 11.78a49 49 0 0 1-6.895 5.428 54 54 0 0 1-7.815 3.842 63 63 0 0 0-7.84 3.73 40 40 0 0 0-6.817 5.418 63 63 0 0 1-6.398 5.61 42 42 0 0 1-6.768 3.897c-9.655 4.48-20.39 5.9-30.221 9.914a83 83 0 0 0-13.076 7.18c-1.102.29-2.192.64-3.27 1.01q-3.721 1.276-7.309 2.897c-2.157.969-4.55 1.962-6.255 3.654a10 10 0 0 0-1.909 2.732q-.221.456-.412.932a9.44 9.44 0 0 0-3.152 4.285 8.25 8.25 0 0 0 1.407 7.291 14.95 14.95 0 0 0 6.7 4.79 78 78 0 0 0 8.032 2.67c10.705 3.097 22.137 4.904 33.23 3.008a42.3 42.3 0 0 0 15.39-5.802c5.054-3.178 9.538-7.123 15.074-9.497 5.344-2.291 11.06-3.611 16.281-6.21a54 54 0 0 0 6.765-4.243c1.091-.764 2.185-1.525 3.311-2.238.24-.152.467-.319.7-.478a23.6 23.6 0 0 0 6.712 1.798 23 23 0 0 0 4.762-.022 39 39 0 0 1 4.835-.388 21.2 21.2 0 0 1 4.659.854 31.5 31.5 0 0 0 4.779.832c.767.07 1.535.103 2.303.11-.083 1.001-.18 2.002-.183 2.999-.006 1.527-.007 3.053-.147 4.575a46.5 46.5 0 0 1-1.872 8.923c-1.759 5.911-4.226 11.59-5.523 17.638a43 43 0 0 0-.796 5.16 15.2 15.2 0 0 0 .1 4.188l-.053.116c-1.995 4.537-4.026 8.918-7.334 12.666-1.668 1.89-3.43 3.692-5.064 5.611a104 104 0 0 0-4.439 5.604c-2.885 3.897-5.511 7.98-7.994 12.143-1.37 2.298-2.704 4.636-3.915 7.022-.358.705-.73 1.418-1.1 2.136a84.5 84.5 0 0 0-7.19 9.904 58.3 58.3 0 0 0-6.142 12.923c-1.51 4.606-2.618 9.381-4.866 13.708-2.175 4.188-5.12 7.903-7.587 11.914a60.8 60.8 0 0 0-8.206 25.648 93 93 0 0 0-.368 13.648 69.5 69.5 0 0 0 1.362 12.656c.811 3.503 2.403 7.152 5.598 9.092 3.724 2.26 8.182 1.26 11.654-.974a18.6 18.6 0 0 0 6.3-5.061 26.6 26.6 0 0 0 3.815-6.435 104 104 0 0 0 5.558-10.667c4.167-9.026 8.34-18.016 13.052-26.777 4.853-9.023 10.078-17.854 15.732-26.398 5.768-8.715 11.878-17.204 17.883-25.754 5.03-7.161 10.01-14.357 15.2-21.4a66 66 0 0 1 5.696-2.726c1.356-.575 3.02-1.437 4.522-.974a2.67 2.67 0 0 1 1.475 1.091c.174.27.303.538.46.786q-1.47 3.662-2.947 7.321a140.5 140.5 0 0 0-7.2 21.562 66 66 0 0 0-1.547 11.22 46 46 0 0 1-.366 6.13 36.5 36.5 0 0 1-1.71 5.483 68 68 0 0 0-2.764 11.822 642 642 0 0 0-1.833 12.26q-.991 6.997-1.905 14.004-.452 3.415-.897 6.83c-.277 2.116-.802 4.43-.257 6.523a11.6 11.6 0 0 0-1.328 1.203 20.1 20.1 0 0 0-3.25 4.966 37.2 37.2 0 0 0-3.185 13.04 105.7 105.7 0 0 0 .577 24.894c1.171 7.727 3.671 15.445 8.393 21.76a24.3 24.3 0 0 0 8.99 7.88c3.457 1.588 7.549 2.022 10.856-.186 3.08-2.057 4.535-5.604 5.287-9.1.907-4.214 1.203-8.569 1.872-12.826 1.553-9.89 3.7-19.677 6.015-29.414 4.706-19.795 9.675-39.529 14.526-59.288l7.304-29.745c1.154-4.7 2.302-9.403 3.514-14.09.564-2.18 1.225-4.325 1.858-6.486q.264-.911.519-1.822c.707-.54 1.451-1.03 2.166-1.56a10.4 10.4 0 0 1 6.151-2.482 7.56 7.56 0 0 1 5.402 2.285c.15.143.302.32.462.496l.153.975c.83 5.405 1.065 10.886 1.364 16.339.337 6.139.659 12.28.833 18.426.085 3.004.056 6.016.214 9.018a37.2 37.2 0 0 0 1.432 8.438c.8 2.762 1.814 5.457 2.619 8.217a77 77 0 0 1 1.948 8.783c1.016 6.013 1.734 12.082 2.56 18.123l2.483 18.178c.808 5.91 1.454 11.877 2.685 17.719 2.058 9.762 6.843 20.598 16.67 24.7a12.46 12.46 0 0 0 7.737.838 10.58 10.58 0 0 0 5.638-3.764c3.458-4.357 3.62-10.03 3.41-15.349-.478-12.147-2.617-24.18-3.914-36.253-1.314-12.23-2.27-24.494-3.253-36.753-.982-12.25-2.027-24.498-2.84-36.76q-.61-9.209-.978-18.431c-.075-1.905-.196-3.849-.215-5.788a8.7 8.7 0 0 1 2.464-2.056 14.5 14.5 0 0 1 2.047-.941 6.8 6.8 0 0 1 2.9-.195q.678.076 1.353.205c.102.108.206.22.305.323.864.882 1.715 1.772 2.598 2.635a71 71 0 0 1 4.925 5.162 63.7 63.7 0 0 1 7.711 12.701q7.144 14.337 14.033 28.8 6.949 14.552 13.664 29.215c3.426 7.48 6.653 15.678 12.824 21.39a19.43 19.43 0 0 0 10.604 5.308 8.98 8.98 0 0 0 6.296-1.383 9.94 9.94 0 0 0 3.475-5.21c1.548-4.862.859-10.14-.296-15.005M208.679 346.558a20.5 20.5 0 0 1-5.708 1.035 16.5 16.5 0 0 1-5.551-.533c-.227-.075-.435-.213-.662-.276-.139-.038-.328.008-.45-.055-.307-.16-.467-.762-.6-1.064a7.7 7.7 0 0 1-.508-3.25 36 36 0 0 1 .586-6.69 15 15 0 0 1 .765-2.877c.42-1.035.782-2.14 1.253-3.15a3.95 3.95 0 0 1 1.92-1.643 13 13 0 0 1 1.16-.607 7.2 7.2 0 0 1 2.32-.552 15 15 0 0 1 6.433.611 6.2 6.2 0 0 1 1.56.734c.424.288 1.017.342 1.392.688.766.708 1.055 2.314 1.275 3.308a12.2 12.2 0 0 1 .258 3.684c-.096 1.173-.518 2.273-.59 3.44a.4.4 0 0 0 .124.3 26 26 0 0 1-.497 1.831 18.6 18.6 0 0 1-1.764 3.915c-.91.386-1.803.848-2.716 1.15m-23.865-110.051q-.714 3.53-1.335 7.078a66 66 0 0 0-1.156 7.169c-.232-2.21-.48-4.417-.766-6.62a57 57 0 0 0 1.506-10.853q.877 1.612 1.751 3.226m-7.106-12.833q.214.375.431.749c1.02 1.74 1.997 3.505 2.974 5.27-.225 2.468-.522 4.95-.578 7.43-.747-4.521-1.659-9.013-2.827-13.45m2.872 13.717c.006-.004.016-.002.017-.011.34-2.51.42-5.065.568-7.595.588 1.062 1.156 2.133 1.736 3.198-.57 3.488-1.03 7.005-1.428 10.516-.271-2.04-.56-4.078-.893-6.108M7.305 389.019a31.7 31.7 0 0 1 6.242-3.127c.645-.276 1.3-.529 1.953-.79-1.143.665-2.29 1.323-3.457 1.948-1.982 1.062-4.056 1.998-6.001 3.139a7.6 7.6 0 0 1 1.263-1.17m157.379 69.48a26.4 26.4 0 0 0-3.912 2.241q.104-.142.21-.283c.74-.986 1.478-1.973 2.222-2.955.034.026.06.061.095.087.34.249.7.458 1.06.673q.188.11.375.216zm.895-.358q-.407-.286-.837-.532c-.367-.208-.726-.418-1.11-.59-.018-.007-.036-.009-.053-.016q.591-.783 1.18-1.569c.83.46 1.663.917 2.462 1.425.434.276.862.567 1.29.854a6.9 6.9 0 0 0-2.932.428m99.784 9.16a16 16 0 0 0-1.178 1.77 23.6 23.6 0 0 1 .69-5.071c.175.147.344.297.522.44.308.25.62.497.941.73a6.2 6.2 0 0 0 1.118.619.07.07 0 0 0 .072-.017 4.8 4.8 0 0 0-2.165 1.53m5.264-1.938a7.6 7.6 0 0 0-3.09.405.053.053 0 0 0-.005-.077 15 15 0 0 0-.898-.775c-.33-.259-.677-.495-1.008-.753-.22-.172-.432-.351-.645-.53.076-.27.141-.541.232-.809a14 14 0 0 1 .56-1.388q1.558 1.409 3.22 2.698c.54.419 1.093.821 1.646 1.223Z"/><path fill="currentColor" d="M162.78 441.388c-.059-.058-.138.027-.089.088a59 59 0 0 0 5.357 5.956c.049.046.143-.018.098-.076a59 59 0 0 0-5.366-5.968m6.751 3.459a85 85 0 0 0-2.028-2.28c-1.381-1.494-2.838-2.904-4.26-4.358-.057-.059-.135.027-.087.088 1.261 1.614 2.474 3.257 3.78 4.836.631.763 1.28 1.506 1.933 2.25a9.8 9.8 0 0 0 2.198 2.023c.103.06.188-.056.149-.15a9.9 9.9 0 0 0-1.685-2.41m3.339.42q-1.38-1.505-2.77-3-2.75-2.94-5.573-5.801c-.053-.054-.128.025-.081.08q2.597 3.088 5.276 6.099 1.318 1.483 2.655 2.95a15.8 15.8 0 0 0 2.762 2.705c.068.045.141-.041.106-.106a15.4 15.4 0 0 0-2.376-2.927m.334-3.731c-.644-.656-1.294-1.308-1.941-1.961-1.294-1.307-2.652-2.556-3.99-3.817a.083.083 0 0 0-.117.117c1.248 1.351 2.483 2.722 3.776 4.03l1.888 1.907a14.3 14.3 0 0 0 2.021 1.796.063.063 0 0 0 .085-.085 14 14 0 0 0-1.722-1.987m1.56-1.731c-.183-.208-.39-.396-.588-.589a54 54 0 0 0-1.242-1.177q-1.247-1.14-2.487-2.286a.057.057 0 0 0-.08.081q1.169 1.218 2.333 2.44.574.602 1.167 1.186c.197.194.388.398.598.579a2 2 0 0 0 .608.431.084.084 0 0 0 .102-.102 1.9 1.9 0 0 0-.41-.563m.056-4.376a7.3 7.3 0 0 0-1.207-.843c-.035-.02-.063.031-.031.054.396.285.763.605 1.133.922.364.31.706.65 1.038.994.036.037.107-.014.074-.056a8 8 0 0 0-1.006-1.07m45.426 22.284a7 7 0 0 0-1.335-.851c-.471-.266-.941-.533-1.421-.783l-2.93-1.525a.052.052 0 0 0-.052.09l2.833 1.69c.464.278.938.537 1.411.8a7 7 0 0 0 1.429.692.068.068 0 0 0 .065-.113m1.987-2.661a26 26 0 0 0-3.138-1.866l-3.208-1.746a.036.036 0 0 0-.036.063l3.126 1.884a26 26 0 0 0 3.198 1.764.057.057 0 0 0 .058-.099m.965-2.78c-1.605-1.293-3.318-2.437-5.013-3.608-.078-.054-.147.07-.073.126 1.648 1.225 3.276 2.478 5.01 3.58.059.037.132-.054.076-.098m56.853 12.873c-3.004-2.626-6.339-4.868-9.58-7.187-.1-.07-.23.096-.132.172 3.15 2.441 6.254 4.995 9.63 7.12.064.041.14-.054.082-.105m-3.702-6.013c-.357-.283-.716-.577-1.097-.826l-1.175-.765c-.051-.033-.095.046-.047.081l1.117.82c.369.27.771.505 1.164.739.029.017.066-.027.037-.05m-3.409-4.781c-.301-.022-.603-.052-.905-.054l-.906-.01a.099.099 0 0 0 0 .198l.906-.008c.302-.003.604-.032.906-.054a.036.036 0 0 0 0-.073M285.88 414.2a49.5 49.5 0 0 0-10.054-2.733 77 77 0 0 0-10.372-.663c-1.816-.042-3.634-.17-5.448-.2a8.7 8.7 0 0 0-2.549.224 11 11 0 0 1-3.088.326l-10.942.117c-1.826.02-3.648.067-5.473.123-1.714.053-3.381.276-5.102.178a38 38 0 0 1-5.185-.792 10 10 0 0 1-2.368-.64 10.6 10.6 0 0 0-2.491-.63c-3.32-.678-6.358-2.36-9.497-3.567a15.2 15.2 0 0 0-4.875-1.184c-1.696-.053-3.376-.107-5.073-.219-8.185-.542-16.392-.709-24.586-1.073-.148-.006-.145.217 0 .229 7.268.602 14.527 1.293 21.798 1.855a53 53 0 0 1 5.379.578 15 15 0 0 1 2.35.731c.777.275 1.581.466 2.367.716 3.173 1.007 6.121 2.598 9.31 3.555 1.578.473 3.414 1.181 5.067 1.009a18 18 0 0 1 2.427.062c.866.03 1.737.023 2.603-.004a49 49 0 0 1 5.093-.02c1.709.125 3.392.216 5.106.23 3.645.031 7.297-.088 10.942-.137l2.653-.036a15 15 0 0 1 2.977.049c.398.076.762.257 1.167.312a10 10 0 0 0 1.327.058c.943 0 1.878-.116 2.818-.183 7.96-.565 15.986-.444 23.683 1.86.085.026.115-.1.036-.13m-37.1-16.202a92 92 0 0 1-10.153-3.736 6.5 6.5 0 0 0-2.45-.334 17.4 17.4 0 0 1-2.991-.58q-2.533-.604-5.071-1.185c-7.04-1.612-14.107-3.08-21.224-4.308-4.017-.692-8.042-1.333-12.064-1.99-.136-.021-.197.185-.058.211 7.029 1.304 14.012 2.87 20.98 4.463 3.542.81 7.088 1.6 10.622 2.442q2.611.622 5.217 1.267c.842.208 1.686.41 2.521.647a18.6 18.6 0 0 1 2.608 1.047 10.4 10.4 0 0 0 3.048.472c.973.13 1.957.25 2.923.418 2.04.353 4.055.774 6.07 1.246a.042.042 0 0 0 .023-.08m17.412-11.034c-4.202-5.407-8.692-10.67-12.462-16.395a21 21 0 0 1-2.284-4.576 7.2 7.2 0 0 0-1.247-1.845 20 20 0 0 1-1.488-2.22 86 86 0 0 1-4.403-9.184 74 74 0 0 1-3.562-10.738c-.03-.126-.21-.07-.19.052a63.1 63.1 0 0 0 6.438 19.252c.364.707.75 1.401 1.116 2.107.435.841.692 1.757 1.088 2.619a8.4 8.4 0 0 0 1.455 1.807 38 38 0 0 1 1.75 2.194c2.034 2.786 3.97 5.635 6.074 8.37a102 102 0 0 0 7.568 8.704c.095.099.226-.045.147-.147m-5.227-118.007a.089.089 0 0 0-.161-.068c-.458.92-.926 1.834-1.392 2.75a23 23 0 0 0-.638-2.694c-.289-1.04-.612-2.067-.926-3.098.151-.637.305-1.273.448-1.911a58 58 0 0 0 1.176-7.47c.01-.102-.144-.114-.173-.023a287 287 0 0 0-2.256 7.478 91 91 0 0 1-1.186 3.81c-.422 1.244-1.175 2.3-1.623 3.523a23.6 23.6 0 0 0-.76 3.757c-.23 1.215-.624 2.406-.951 3.598-.323 1.176-.673 2.343-.966 3.528-.315 1.273-.504 2.56-.847 3.821a.59.59 0 0 0 .155.586c.386.306.763.62 1.159.913a.656.656 0 0 0 .891-.234 116 116 0 0 0 4.45-8.902l.003.004a.142.142 0 0 0 .261-.07 3.4 3.4 0 0 0 .003-.569c.322-.737.612-1.488.917-2.233.016.037.028.075.044.111.032.07.123.015.114-.048-.015-.104-.038-.208-.055-.312.835-2.05 1.628-4.121 2.313-6.247m-8.85 16.993-.257-.174a7.2 7.2 0 0 1 .01-1.666 4 4 0 0 0 .15.465.67.67 0 0 0 .315.345 1.4 1.4 0 0 0 .004.378c.008.044.045.059.074.082-.1.189-.194.382-.295.57m2.472-4.774a28 28 0 0 0-.166-1.724 24 24 0 0 0-.305-1.87q.448-.988.921-1.964c.041.394.077.789.13 1.182q.128.936.302 1.864c.033.173.06.378.092.587-.328.64-.644 1.286-.974 1.925m1.545-3.053q-.137-.72-.272-1.442c-.11-.593-.208-1.188-.331-1.778l-.04-.202c.241-.461.484-.917.703-1.384.05.394.095.789.159 1.18a35 35 0 0 0 .448 2.306c-.224.44-.443.88-.667 1.32m1.163-2.3q-.155-.711-.313-1.422-.215-.966-.441-1.93a6 6 0 0 0 .272-1.002c.12-.703.204-1.4.303-2.096.126.792.236 1.586.393 2.372.165.824.349 1.663.596 2.477-.271.533-.538 1.068-.81 1.6m1.055-2.084c-.169-.696-.358-1.389-.525-2.08a60 60 0 0 1-.61-2.935c.058-.352.124-.704.207-1.058.107-.452.21-.905.318-1.357.18.924.353 1.848.558 2.768a19 19 0 0 0 .862 3.06z"/><path fill="currentColor" d="M258.668 264.14c-.039-.12-.227-.07-.19.052a46 46 0 0 0 1.503 4.57c.022.05.096.012.086-.037a45 45 0 0 0-1.399-4.585m1.619-2.223c-.026-.031-.07.013-.044.044a3 3 0 0 1 .665 1.565c.005.039.065.04.062 0a2.85 2.85 0 0 0-.683-1.61m-5.365-8.043a148 148 0 0 0-2.425 6.783c-.378 1.136-.729 2.282-1.089 3.425a5.7 5.7 0 0 1-.885 1.812 3.04 3.04 0 0 0-.579 1.531c-.047.61.065 1.216-.028 1.835-.086.57-.218 1.132-.308 1.7a61 61 0 0 1-.68 3.686c-.11.495-.252.983-.384 1.472a11 11 0 0 0-.708-2.598q-.472-1.309-1.069-2.568c-.022-.047-.106-.013-.085.036q.535 1.271.95 2.588c.275.875.455 1.796.792 2.647a.074.074 0 0 0 .081.043c-.295 1.076-.611 2.147-.916 3.221a10.6 10.6 0 0 0-.556-2.227q-.392-1.15-.877-2.263c-.034-.08-.174-.023-.142.06q.436 1.118.782 2.268c.229.76.411 1.56.703 2.298.007.018.026.02.043.026-.203.72-.395 1.444-.55 2.178a.073.073 0 0 0 .14.038c.813-2.286 1.282-4.677 2.044-6.98.404-1.219.884-2.413 1.376-3.598.23-.553.416-1.122.65-1.672.245-.58.666-1.038.939-1.59a3.1 3.1 0 0 0 .289-1.628 5.2 5.2 0 0 1 .162-1.82c.29-1.161.59-2.321.862-3.487a151 151 0 0 0 1.508-7.205.02.02 0 0 0-.04-.01m-7.752 11.696c-.55 2.119-1.153 4.224-1.69 6.347-.263 1.042-.533 2.084-.752 3.136-.102.49-.206.986-.277 1.482a8 8 0 0 0 0 1.705c.011.162.246.257.33.089a11 11 0 0 0 .962-2.868c.221-1.098.39-2.209.562-3.316.339-2.182.611-4.373.936-6.557.007-.045-.058-.065-.07-.019"/><path fill="currentColor" d="M249.126 271.93c-.06-.206-.142-.403-.222-.602-.155-.384-.307-.769-.475-1.147l-1.041-2.333c-.022-.049-.103-.014-.086.036l.797 2.386c.131.392.278.777.423 1.163.07.188.14.375.224.558.085.185.264.337.335.52.03.08.162.045.13-.036-.065-.166-.034-.37-.085-.545m.611-4.475a4 4 0 0 0-.227-.743 7 7 0 0 0-.818-1.361.042.042 0 0 0-.071.042 8.7 8.7 0 0 1 .486 1.461c.063.241.138.478.202.72.03.117.068.229.106.344.045.132.114.25.164.38a.089.089 0 0 0 .174-.024 3 3 0 0 0 .035-.407 2.6 2.6 0 0 0-.051-.412m16.053 6.288c-.687 1.278-1.374 2.501-1.95 3.839a42 42 0 0 1-1.861 4.044 2.92 2.92 0 0 0-.568 1.916 9 9 0 0 1-.057 2.013 19.3 19.3 0 0 1-.917 4.012c-.039.111.12.164.18.076a10.1 10.1 0 0 0 1.271-3.335 5.9 5.9 0 0 1 .924-2.048 4 4 0 0 0 .645-.87 4.8 4.8 0 0 0 .227-1.045 36 36 0 0 1 1.165-4.17c.45-1.457.744-2.894 1.065-4.38.016-.071-.086-.122-.123-.052m-.213 12.872a.053.053 0 0 0-.095-.013 2.3 2.3 0 0 0-.17.355 2.6 2.6 0 0 0-.13.418c-.07.262-.147.521-.194.788a9 9 0 0 0-.117.82 2.2 2.2 0 0 0 .04.835.11.11 0 0 0 .2.026 2.2 2.2 0 0 0 .301-.787 9 9 0 0 0 .142-.803c.04-.272.05-.546.066-.82a2.5 2.5 0 0 0 .008-.434 2.3 2.3 0 0 0-.051-.385m-33.371 8.137c-.05-.046-.122.027-.074.073 1.506 1.439 3.003 2.885 4.552 4.277.035.031.085-.018.052-.051-1.479-1.467-3.008-2.878-4.53-4.3m11.122 6.049c-1.488-1.126-3.147-2.032-4.69-3.084a42 42 0 0 1-4.505-3.54c-.094-.084-.232.052-.14.14a49 49 0 0 0 4.365 3.718 19.4 19.4 0 0 0 4.91 2.91c.09.032.124-.095.06-.143m4.775.467a12.7 12.7 0 0 0-2.335-1.932 142 142 0 0 0-2.509-1.78c-1.706-1.19-3.448-2.33-5.17-3.497-.053-.035-.121.05-.07.09 1.634 1.264 3.246 2.556 4.896 3.799.848.638 1.697 1.273 2.557 1.894a12.5 12.5 0 0 0 2.535 1.591c.101.04.152-.098.096-.165m.722-2.86a29 29 0 0 0-3.225-1.924.068.068 0 0 0-.068.116 28 28 0 0 1 3.035 2.142 33 33 0 0 0 2.809 2.228c.072.046.171-.048.12-.12a10.4 10.4 0 0 0-2.671-2.442m8.498 1.331a8 8 0 0 1-1.162-.354 5.2 5.2 0 0 1-1.087-.58c-.088-.062-.172.082-.084.143a5.4 5.4 0 0 0 1.108.59 3.2 3.2 0 0 0 .6.19 6 6 0 0 0 .617.072.031.031 0 0 0 .008-.061m-56.993 23.866c-.254-.105-.527-.159-.78-.27a3 3 0 0 1-.705-.429c-.087-.07-.213.052-.125.125a3.2 3.2 0 0 0 .749.468 1.74 1.74 0 0 0 .85.197.047.047 0 0 0 .011-.091m2.439-.37a1.3 1.3 0 0 0-.56-.395l-.661-.304c-.44-.203-.919-.34-1.375-.5-.068-.025-.109.078-.048.113.423.243.841.518 1.285.722l.66.304a1.26 1.26 0 0 0 .658.16.068.068 0 0 0 .04-.1m2.299-.797a1 1 0 0 0-.112-.162 1 1 0 0 0-.17-.133 1 1 0 0 0-.153-.098 1.9 1.9 0 0 0-.752-.178.115.115 0 0 0-.03.225 2 2 0 0 1 .311.098 3 3 0 0 1 .301.164q.072.038.142.08c.05.03.094.067.143.096.048.03.103.05.152.077a.7.7 0 0 0 .156.081.074.074 0 0 0 .09-.09.5.5 0 0 0-.078-.16m9.009-53.454a15.5 15.5 0 0 0-2.133-.706 17 17 0 0 0-2.409-.011 18 18 0 0 0-4.236.696 6.4 6.4 0 0 1-2.756-.215q-1.099-.213-2.19-.46-2.49-.569-4.945-1.27c-.027-.008-.036.03-.011.04q2.395.897 4.834 1.671 1.217.385 2.441.75a19 19 0 0 0 2.21.65 4 4 0 0 0 1.884-.217 14 14 0 0 1 2.47-.508 16 16 0 0 1 2.407.081c.847.034 1.569-.255 2.407-.297a.104.104 0 0 0 .027-.204m1.897 2.29a20.4 20.4 0 0 0-4.86-.296c-1.675.056-3.347.137-5.02.225a.031.031 0 0 0 0 .062c1.673.141 3.345.274 5.02.383a20.4 20.4 0 0 0 4.86-.144.12.12 0 0 0 0-.23m-1.984-12.101a6 6 0 0 0-.5-.308 3 3 0 0 0-.505-.115 8 8 0 0 0-1.203-.064 21 21 0 0 0-2.3.109c-1.544.155-3.076.408-4.614.622-.11.015-.084.201.026.193a36 36 0 0 1 4.677.05 88 88 0 0 0 2.3.115 9 9 0 0 0 1.149.002 2.7 2.7 0 0 0 .47-.062c.176-.05.292-.174.458-.229.128-.043.183-.246.041-.313M190.29 114.441a241 241 0 0 1-1.952 19.255 44.7 44.7 0 0 1-2.055 8.876c-.24.67-.517 1.327-.765 1.995-.14.38-.255.77-.396 1.15-.144.385-.388.73-.5 1.132-.41 1.474-.032 3.13.1 4.624.328 3.663.32 7.353.573 11.02a.187.187 0 0 0 .374 0c.296-3.228.475-6.47.711-9.704.115-1.569.425-3.077.64-4.627.102-.745-.016-1.482.096-2.21a23 23 0 0 1 .545-2.37 64 64 0 0 0 1.754-8.784c.375-3.136.586-6.295.742-9.45.178-3.632.226-7.27.248-10.907a.057.057 0 0 0-.115 0m-33.556-36.499c-.592 2.834-1.325 5.638-1.913 8.476-.588 2.841-1.188 5.68-1.78 8.52-.292 1.394-.58 2.788-.902 4.174-.162.692-.308 1.39-.518 2.07a6.2 6.2 0 0 0-.584 2.159 38 38 0 0 1-.928 8.825c-.61 3.237-1.286 6.458-1.846 9.704-.014.077.101.112.12.033 1.315-5.64 2.13-11.449 4.044-16.927a12 12 0 0 0 .787-1.975c.115-.717.024-1.468.122-2.198.198-1.47.471-2.932.727-4.392q.754-4.302 1.447-8.613c.525-3.267.875-6.555 1.324-9.828.01-.065-.086-.095-.1-.028m-6.114 5.595c-.572 2.072-1.17 4.138-1.658 6.232a12.2 12.2 0 0 0-.554 2.912 16.8 16.8 0 0 1-.296 3.542c-.376 2.066-.82 4.118-1.246 6.174-.224 1.081-.457 2.16-.671 3.245a11.4 11.4 0 0 0-.444 3.009c.013.145.223.237.3.081a11.2 11.2 0 0 0 .695-2.939c.2-1.089.38-2.182.568-3.273.368-2.127.722-4.256 1.142-6.374a15 15 0 0 1 .96-3.192 12.2 12.2 0 0 0 .6-3.066c.311-2.102.51-4.22.736-6.333.009-.077-.113-.09-.132-.018m-5.05 26.298a9.3 9.3 0 0 0-.342 2.05.042.042 0 0 0 .082.01 9.3 9.3 0 0 0 .363-2.046c.006-.059-.088-.07-.102-.014m-38.732-46.707a126 126 0 0 0-1.463 12.941c-.007.11.178.137.194.026.591-4.305 1.058-8.613 1.503-12.935.014-.133-.213-.165-.234-.032M75.9 177.774c-5.362-1.902-10.923-3.213-16.323-5.01-.109-.036-.152.131-.047.17 5.312 1.963 10.732 4.014 16.329 4.99a.078.078 0 0 0 .041-.15m4.934-1.714a14.3 14.3 0 0 0-4.067-1.45 208 208 0 0 0-4.589-1.215c-3.018-.753-6.037-1.503-9.05-2.276a.057.057 0 0 0-.03.11c2.966.943 5.926 1.908 8.886 2.87 1.453.472 2.919.91 4.38 1.356a14.6 14.6 0 0 0 4.37.972.2.2 0 0 0 .1-.368m2.408-2.493c-1.948-1.053-4.337-1.36-6.487-1.79q-3.413-.684-6.819-1.398a.036.036 0 0 0-.02.07q3.334.976 6.66 1.976c2.1.634 4.36 1.492 6.574 1.481a.183.183 0 0 0 .092-.339m.778-2.636c-2.55-.757-5.215-1.124-7.816-1.67-.117-.024-.168.151-.05.181a49 49 0 0 0 7.849 1.622c.078.007.088-.112.018-.133m1.181-3.03a9.3 9.3 0 0 0-1.68-.388 12 12 0 0 0-1.722-.055.042.042 0 0 0 0 .083c.568.047 1.125.143 1.688.227.56.083 1.122.157 1.68.254a.062.062 0 0 0 .034-.12m32.938 23.525a95 95 0 0 0-15.116-.454.062.062 0 0 0 0 .125c5.044-.057 10.078.237 15.116.433.068.003.064-.096 0-.104m-.177-2.455c-2.593-.326-5.199-.524-7.786-.906-.124-.018-.179.17-.053.19a52 52 0 0 0 7.84.82c.068 0 .064-.096 0-.104m3.059-1.724a111 111 0 0 0-3.734-.205c-.04-.002-.04.06 0 .062 1.245.087 2.487.16 3.734.206.04.001.04-.06 0-.063m36.173 25.685c-1.262-.344-2.56-.57-3.832-.884a42 42 0 0 1-3.775-1.109c-.058-.02-.08.068-.025.09a35 35 0 0 0 3.795 1.306 17.8 17.8 0 0 0 3.822.71.057.057 0 0 0 .015-.113m5.785-2.524a15 15 0 0 0-3.504-.962q-1.768-.393-3.526-.83c-2.433-.606-4.864-1.215-7.273-1.91a.052.052 0 0 0-.028.1c2.374.807 4.761 1.586 7.183 2.238q1.748.47 3.507.898a12.6 12.6 0 0 0 3.605.601c.067-.004.105-.1.036-.135m5.14-3.35c-1.136-.563-2.546-.4-3.772-.606a37 37 0 0 1-4.018-1.03c-2.608-.75-5.264-1.337-7.903-1.97a.068.068 0 0 0-.036.13c2.622.697 5.238 1.441 7.889 2.02 1.302.284 2.608.55 3.88.955 1.221.388 2.435 1.26 3.742 1.305a.434.434 0 0 0 .218-.804m-1.926-4.469a17.6 17.6 0 0 0-3.335-1.39 16.7 16.7 0 0 0-3.619-.342.084.084 0 0 0-.022.164c1.153.272 2.26.72 3.416.992 1.162.273 2.348.416 3.508.7.071.017.123-.09.052-.124m4.936.723a3.7 3.7 0 0 0-1.729-.309c-.56-.03-1.125-.065-1.686-.064a.016.016 0 0 0 0 .031 5 5 0 0 1 1.615.403 12 12 0 0 0 1.448.774.459.459 0 0 0 .352-.835m.696-3.174a4.7 4.7 0 0 0-1.908-.695 14.5 14.5 0 0 0-2.029-.212c-.11-.004-.103.154 0 .166a12.6 12.6 0 0 1 2.006.405 13 13 0 0 0 1.891.48c.085.012.095-.105.04-.144m1.775-4.242a.8.8 0 0 0-.177-.204 1 1 0 0 0-.139-.099c-.033-.02-.065-.053-.114-.083a1.35 1.35 0 0 0-.637-.193 2 2 0 0 0-.594.063c-.091.025-.179.057-.268.086s-.186.044-.278.068c-.181.048-.151.355.046.337a1.2 1.2 0 0 1 .265-.01 2 2 0 0 1 .235.052c.165.043.331.08.497.123a1.3 1.3 0 0 0 .186.034c.013.001.15.02.081.009a2 2 0 0 0 .305.03l.084-.008.015.003a.5.5 0 0 0 .14.014 1 1 0 0 0 .27-.016.142.142 0 0 0 .083-.206m44.115-13.593c-.767 1.259-1.623 2.46-2.359 3.739a68 68 0 0 0-2.062 3.906 46 46 0 0 0-3.188 8.028.151.151 0 0 0 .275.116c1.461-2.478 2.704-5.116 3.955-7.705 1.264-2.615 2.385-5.312 3.693-7.9a.182.182 0 0 0-.314-.184m-6.037 4.96c-1.133 2.208-2.36 4.365-3.45 6.595a43 43 0 0 0-2.85 6.676.115.115 0 0 0 .21.088 42.3 42.3 0 0 0 3.397-6.473c1.019-2.233 1.913-4.518 2.899-6.765.06-.137-.135-.26-.207-.12m-4.7 2.153c-.654 1.226-1.387 2.412-2.118 3.593a20.4 20.4 0 0 0-1.885 3.604c-.032.086.088.144.147.086a12.8 12.8 0 0 0 2.31-3.355c.632-1.25 1.176-2.535 1.725-3.823.051-.12-.115-.226-.18-.105m-2.494-3.514a11 11 0 0 1-1.158 2.539c-.032.052.047.095.081.047a9.2 9.2 0 0 0 1.267-2.534c.04-.12-.153-.174-.19-.052m-25.168 27.7c-.007-.058-.096-.062-.093 0a34 34 0 0 0 .432 4.944c.012.06.102.044.102-.013a34 34 0 0 0-.44-4.931m2.188.807c-.019-.097-.187-.076-.173.023.353 2.66.5 5.342.835 8.003a.068.068 0 0 0 .135 0 33.7 33.7 0 0 0-.797-8.027m2.579 6.027c-.192-1.269-.405-2.534-.618-3.8-.007-.046-.087-.036-.081.011.157 1.232.312 2.465.49 3.694.183 1.265.318 2.556.613 3.802a.047.047 0 0 0 .092-.012c-.077-1.237-.31-2.471-.496-3.695m5.886 32.397a134 134 0 0 0-4.807 18.151c-.013.071.093.103.11.03 1.49-6.074 3.02-12.156 4.827-18.145.026-.084-.103-.118-.13-.036m1.262 11.517c-.527 1.605-1.087 3.2-1.589 4.812l-.725 2.328-.39 1.253c-.055.178-.12.358-.157.54a3.5 3.5 0 0 0-.005.607.089.089 0 0 0 .165.044 3.5 3.5 0 0 0 .334-.515c.07-.173.116-.357.17-.536l.37-1.259.69-2.337c.476-1.618.895-3.254 1.348-4.878a.11.11 0 0 0-.21-.058m-3.786 12.887-1.133 3.373-.546 1.623a6.2 6.2 0 0 0-.464 1.663.058.058 0 0 0 .106.028 6.2 6.2 0 0 0 .605-1.622l.513-1.633 1.07-3.39c.03-.096-.12-.136-.151-.042m3.381-.295c-1.24 2.836-2.402 5.72-3.379 8.659a42.4 42.4 0 0 0-2.327 8.997c-.01.1.133.104.163.022 1.08-2.88 1.683-5.96 2.587-8.902.909-2.953 1.885-5.875 3.004-8.756.01-.027-.036-.047-.048-.02m-.191 11.028q-1.613 3.444-3.027 6.975a43.6 43.6 0 0 0-2.427 7.46c-.015.074.099.136.133.055.986-2.33 1.729-4.768 2.565-7.156q1.295-3.697 2.813-7.31c.013-.032-.042-.056-.057-.024m-1.528 11.723c-.44 1.102-.921 2.188-1.368 3.287a35 35 0 0 0-1.273 3.301.057.057 0 0 0 .104.044 21.6 21.6 0 0 0 1.42-3.209c.431-1.12.792-2.27 1.157-3.412.008-.026-.03-.035-.04-.011m-.473 8.155-.35 1.537c-.059.255-.129.51-.172.77a4 4 0 0 0-.1.738c0 .043.068.069.087.024a4 4 0 0 0 .19-.714c.056-.257.09-.52.134-.78l.261-1.561c.006-.033-.042-.047-.05-.014m.44 3.904c-.069.62-.152 1.24-.182 1.863-.002.04.064.05.071.01.113-.62.172-1.247.246-1.873.01-.085-.126-.085-.135 0m100.296 108.322c-.109-.129-.288.056-.184.184a84 84 0 0 1 5.896 8.57.073.073 0 0 0 .126-.074 42.8 42.8 0 0 0-5.838-8.68m5.338 11.651a26.2 26.2 0 0 0-3.009-4.774 45 45 0 0 0-3.916-4.163.11.11 0 0 0-.154.154c1.25 1.41 2.394 2.925 3.516 4.437 1.11 1.497 2.262 2.963 3.384 4.451a.104.104 0 0 0 .18-.105M263 521.936a6.4 6.4 0 0 0-2.611-1.504 19.4 19.4 0 0 0-3.23-.925c-1.103-.228-2.219-.38-3.335-.528-.551-.073-1.107-.12-1.653-.218-.583-.105-1.139-.357-1.717-.444a2.27 2.27 0 0 0-1.686.338c-.288.223-.261.27-.622.292a7 7 0 0 0-.918.177c-1.232.241-2.459.492-3.674.807a43 43 0 0 0-6.972 2.63c-.116.053-.032.228.084.2 2.297-.549 4.598-1.078 6.896-1.62a33 33 0 0 1 3.685-.713 6 6 0 0 1 1.412-.153c.237.046.483.296.767.343a2.5 2.5 0 0 0 .904-.034c.501-.095.942-.35 1.44-.476a7 7 0 0 1 1.641-.169 14.4 14.4 0 0 1 3.246.334 19.4 19.4 0 0 1 2.947.913 23 23 0 0 0 3.057 1.332.351.351 0 0 0 .339-.582"/><path fill="currentColor" d="M258.533 518.729a10.9 10.9 0 0 0-3.692-1.136 13 13 0 0 0-1.758.024c-.685.025-1.372-.023-2.058-.008a21.6 21.6 0 0 0-7.69 1.456.026.026 0 0 0 .013.05 32 32 0 0 1 7.677-1.113 12 12 0 0 1 1.992.098c.623.106 1.23.298 1.855.403 1.203.203 2.396.293 3.603.439.112.013.157-.166.058-.213m7.919 51.335a22.3 22.3 0 0 0-5.79-2.517c-1.006-.286-2.027-.492-3.014-.841a6.8 6.8 0 0 0-3.126-.12 23.4 23.4 0 0 0-6.104 1.36 13.66 13.66 0 0 0-5.193 3.204.047.047 0 0 0 .056.073c.87-.387 1.671-.917 2.54-1.313.97-.442 1.945-.86 2.953-1.21a18.2 18.2 0 0 1 5.89-1.086 22 22 0 0 0 2.72.063 8.6 8.6 0 0 1 3.181.224 16.3 16.3 0 0 1 4.088 1.628 29.5 29.5 0 0 0-4.735-.849 30 30 0 0 0-3.43-.124 6.6 6.6 0 0 0-2.914.337.226.226 0 0 0 .054.408 10.1 10.1 0 0 0 2.86-.107 30 30 0 0 1 3.274.072 31 31 0 0 1 6.507 1.231.238.238 0 0 0 .183-.433m59.265-70.199a23 23 0 0 0-6.404-.728 18 18 0 0 0-6.624.513 6.7 6.7 0 0 0-2.618.782c-.76.552-1.623.957-2.405 1.494-1.548 1.062-2.57 2.729-4.176 3.69a.068.068 0 0 0 .052.124c1.638-.47 2.624-2.038 4.074-2.847a6.7 6.7 0 0 1 2.663-.976 9.3 9.3 0 0 0 2.697-.722 12.2 12.2 0 0 1 3.1-.779 30 30 0 0 1 3.237-.013 23 23 0 0 0 6.404-.348.1.1 0 0 0 0-.19m10.613 30.838c-2.593-.443-5.195.298-7.664 1.041a15 15 0 0 0-1.538.543 8 8 0 0 0-1.557.729 8.6 8.6 0 0 0-2.15 2.868c-.017.03.026.053.045.026a11.4 11.4 0 0 1 2.533-2.634 6.2 6.2 0 0 1 1.607-.953c.466-.18.944-.33 1.425-.469 2.344-.675 4.833-1.422 7.293-1.1.028.003.035-.046.007-.051"/><path fill="currentColor" d="M327.089 534.394c-1.107.88-2.14 1.854-3.183 2.81-.515.472-1.277 1.246-.839 1.89a7.2 7.2 0 0 0-2.011.682 2.3 2.3 0 0 1 .211-.655.14.14 0 0 0-.242-.142 2.6 2.6 0 0 0-.408 1.1.202.202 0 0 0 .291.225 14 14 0 0 1 1.972-.756 23 23 0 0 0-1.037 2.26 5.04 5.04 0 0 0-.501 2.902.11.11 0 0 0 .182.048 7.4 7.4 0 0 0 1.147-2.46 21 21 0 0 1 1.242-2.74c.457-.848.957-1.657 1.474-2.47a21 21 0 0 1 1.82-2.575.084.084 0 0 0-.118-.119m.713 2.324a188 188 0 0 0-2.972 5.642 34 34 0 0 0-2.555 5.66c-.037.124.13.18.2.083a35 35 0 0 0 2.918-5.673 184 184 0 0 0 2.504-5.672c.023-.055-.067-.091-.095-.04m.362 4.142a49 49 0 0 0-2.656 5.346 37 37 0 0 0-1.04 2.71 13.7 13.7 0 0 0-.74 2.8.068.068 0 0 0 .126.034 28 28 0 0 0 .925-2.646c.312-.907.626-1.814.974-2.708a49 49 0 0 1 2.527-5.468.068.068 0 0 0-.116-.068m.729 4.555a32 32 0 0 0-2.134 4.353q-.451 1.161-.823 2.351a7.5 7.5 0 0 0-.451 2.306.073.073 0 0 0 .136.037 12 12 0 0 0 .755-2.221q.321-1.116.712-2.21a46 46 0 0 1 1.876-4.574c.023-.048-.044-.09-.071-.042m-.31 6.312a53 53 0 0 0-1.144 5.668c-.005.048.07.055.082.011a53 53 0 0 0 1.132-5.66c.008-.045-.06-.066-.07-.02m.98 4.769a.02.02 0 0 0-.042 0c-.035 1.284-.068 2.564-.01 3.848a.031.031 0 0 0 .062 0c.058-1.284.025-2.564-.01-3.848m2.243 5.14a.067.067 0 0 0 0 .133.067.067 0 0 0 0-.133m-25.908-54.751-.81 2.307c-.13.37-.267.739-.389 1.111a6 6 0 0 0-.318 1.143c-.006.049.064.06.087.024a6 6 0 0 0 .451-1.106c.133-.369.25-.744.374-1.116l.776-2.316c.036-.108-.133-.153-.17-.047m3.451-1.344a37 37 0 0 0-2.334 7.685c-.01.052.067.075.08.022a67 67 0 0 1 2.314-7.69c.015-.038-.045-.053-.06-.017m1.83.912a110 110 0 0 0-2.814 12.431c-.01.064.082.094.1.028 1.115-4.095 1.862-8.293 2.875-12.415a.083.083 0 0 0-.16-.044m1.096 4.521c-.698 3.615-1.482 7.226-2.058 10.863-.008.052.069.076.08.022.792-3.596 1.38-7.244 2.049-10.866.008-.045-.062-.065-.07-.019m1.075 5.199-.822 4.955c-.137.826-.277 1.651-.411 2.477a12.5 12.5 0 0 0-.302 2.325.057.057 0 0 0 .112.015 13 13 0 0 0 .443-2.469l.349-2.395.711-4.886c.008-.052-.071-.075-.08-.022m.345 6.365c-.126 1.152-.254 2.304-.357 3.458l-.156 1.729a6 6 0 0 0-.071 1.611c.011.06.092.048.11 0a6 6 0 0 0 .194-1.611l.133-1.729c.089-1.152.153-2.305.22-3.458.002-.047-.068-.046-.073 0m-27.688-52.303a34 34 0 0 0-.248 3.846c.001.045.073.06.081.01a34 34 0 0 0 .301-3.856c.005-.087-.128-.085-.135 0m3.838-6.115c-.478 4.809-1.027 9.656-1.13 14.49 0 .051.085.066.092.013.647-4.797.86-9.674 1.132-14.503.003-.06-.088-.059-.094 0m2.135 11.241a65 65 0 0 1 .837-7.807c.004-.026-.035-.037-.04-.01a54 54 0 0 0-1.026 7.668q-.116 1.928-.105 3.861a18 18 0 0 0 .264 3.872c.014.06.098.042.102-.014.097-1.272-.063-2.582-.085-3.858q-.032-1.856.053-3.712m2.715.533c.004-.048-.067-.046-.073 0a41 41 0 0 0 .014 10.88c.007.046.084.035.082-.012a78 78 0 0 1-.023-10.868m1.744 7.457c-.007-.058-.1-.06-.093 0 .247 2.422.44 4.847.683 7.269.003.032.053.033.052 0-.116-2.432-.366-4.85-.642-7.268m2.893 8.584a.026.026 0 0 0-.05.014l.55 2.07a.016.016 0 0 0 .03-.008zm-67.237-19.253a28 28 0 0 0-1.276 3.437.02.02 0 0 0 .04.01 29 29 0 0 1 1.263-3.431c.008-.018-.019-.034-.027-.016m2.514.926c-1.112 2.8-2.265 5.586-3.25 8.434-.013.038.05.066.067.028 1.178-2.777 2.191-5.62 3.243-8.446.014-.038-.045-.053-.06-.016m.249 5.445q-.753 2.097-1.446 4.214a22.4 22.4 0 0 0-1.119 4.155.052.052 0 0 0 .097.027 32 32 0 0 0 1.29-4.108q.617-2.137 1.308-4.252c.027-.084-.102-.117-.13-.036m-.483 8.821-.766 2.98a.02.02 0 0 0 .04.01l.766-2.979a.02.02 0 0 0-.04-.01m-45.64 24.152a33.7 33.7 0 0 0-11.33-4.786c-2.17-.57-4.356-1.075-6.54-1.584a9.2 9.2 0 0 0-3.14-.52 12.8 12.8 0 0 0-2.641.47 2 2 0 0 1-.012-.283c-.004-.132-.21-.214-.271-.074a2 2 0 0 1-.379.649.473.473 0 0 0 .33.797c1.084-.05 2.132-.264 3.223-.212 1.098.051 2.157-.242 3.272-.168a35 35 0 0 1 6.362 1.26 34.4 34.4 0 0 1 9.656 3.824 47.4 47.4 0 0 0-9.601-2.92 48 48 0 0 0-5.56-.725c-1.005-.071-2.01-.105-3.015-.146a13 13 0 0 1-1.47-.115 13 13 0 0 0-1.546-.289c-.809-.027-.719 1.26.154 1.143a10 10 0 0 0 1.273-.36 7 7 0 0 1 1.589-.152c.952-.018 1.915.028 2.864.1a48 48 0 0 1 5.798.793 49 49 0 0 1 10.834 3.556.15.15 0 0 0 .15-.258m-24.81 50.134a2.8 2.8 0 0 0-.957-.25 23 23 0 0 0-.986-.15 18 18 0 0 0-2.259-.143 16.2 16.2 0 0 0-4.27.622c-.026.007-.015.045.01.04a20.7 20.7 0 0 1 4.26-.29 18 18 0 0 1 2.124.184q.502.075.999.179a4 4 0 0 0 .976.186.204.204 0 0 0 .103-.378m5.558 1.994c-.006-.002-.009.008-.003.01l.681.22c.007.003.01-.007.003-.01Zm-2.463 68.607a48 48 0 0 0-4.486-3.879 245 245 0 0 1-4.54-3.858c-.099-.087-.24.05-.146.147a78 78 0 0 0 4.364 4.154 27.2 27.2 0 0 0 4.694 3.583.094.094 0 0 0 .114-.147m1.019-3.482-1.168-1.162c-.8-.795-1.614-1.577-2.428-2.36a217 217 0 0 0-4.883-4.562.088.088 0 0 0-.125.125c1.54 1.61 3.107 3.188 4.696 4.75.783.77 1.565 1.541 2.36 2.298l1.195 1.135c.285.271.583.734.997.757a.073.073 0 0 0 .073-.072c-.035-.397-.448-.642-.717-.91m1.731-4.599a.56.56 0 0 0-.569.314c-.081-.062-.164-.12-.218-.165-.429-.362-.84-.744-1.255-1.122a45 45 0 0 1-2.441-2.446 128 128 0 0 0-4.789-4.853.078.078 0 0 0-.11.11q1.692 1.872 3.456 3.676c1.18 1.2 2.412 2.346 3.512 3.621a63 63 0 0 1 1.562 1.872.728.728 0 0 0 1.223.014.662.662 0 0 0-.371-1.021m-2.975-7.325a44 44 0 0 0-4.296-3.643c-.028-.021-.063.025-.038.05a44 44 0 0 0 4.284 3.658c.039.028.083-.033.05-.065m3.853 3.358-1.35-.917c-.117-.08-.223.109-.11.189l1.334.943a.126.126 0 0 0 .17-.045.127.127 0 0 0-.044-.17m-.927-7.709a17 17 0 0 1-1.652-1.356 17 17 0 0 0-1.502-1.182c-.575-.404-1.198-.718-1.785-1.102-.126-.082-.23.112-.116.198.533.4 1.017.858 1.551 1.258a19 19 0 0 0 1.693 1.134 14 14 0 0 1 1.727 1.159c.49.403.788 1 1.443 1.167a.137.137 0 0 0 .153-.198c-.333-.59-.989-.718-1.512-1.078m1.679-3.451a1.8 1.8 0 0 0-.322-.347 5.4 5.4 0 0 0-.77-.592 10 10 0 0 0-1.722-.8c-.082-.032-.14.106-.06.143a7.8 7.8 0 0 1 1.51 1.01q.346.277.684.562a3 3 0 0 0 .368.304 1.05 1.05 0 0 0 .379.203c.057.009.13-.024.125-.095a.8.8 0 0 0-.192-.388m1.276-4.15a6 6 0 0 0-.646-.348q-.693-.316-1.388-.629a.068.068 0 0 0-.068.117c.411.297.821.597 1.235.89a6 6 0 0 0 .624.387c.203.11.45.276.682.175a.1.1 0 0 0 .051-.09c-.028-.25-.294-.381-.49-.502m1.052-4.926-.147-.076a2 2 0 0 0-.292-.135c-.096-.034-.192-.073-.29-.103-.104-.031-.214-.043-.32-.073a.042.042 0 0 0-.032.076c.093.058.177.133.272.19.088.051.181.096.271.145a2 2 0 0 0 .296.124l.144.053a.3.3 0 0 0 .091.024l.079-.014a.068.068 0 0 0 .04-.099.27.27 0 0 0-.113-.112m2.056-3.244a.85.85 0 0 0-.205-.393 1.04 1.04 0 0 0-.59-.35.32.32 0 0 0-.231.03.3.3 0 0 0 .066.547l-.018-.007a1 1 0 0 1 .168.098 1.5 1.5 0 0 1 .212.207l.027.039a1 1 0 0 0 .104.12l.024.028.002.002.001.001a.32.32 0 0 0 .17.134l-.122-.094q.025.045.047.09l.013.033a.2.2 0 0 0 .049.067.12.12 0 0 0 .169 0 .45.45 0 0 0 .097-.277.7.7 0 0 0 .017-.275m6.105-34.882a8 8 0 0 0-.497-.62 13 13 0 0 0-1.225-1.172 15.3 15.3 0 0 0-2.766-1.808.047.047 0 0 0-.048.08 22 22 0 0 1 2.534 2.067c.383.357.762.719 1.124 1.097.19.199.392.387.586.582a2.6 2.6 0 0 0 .568.509.079.079 0 0 0 .114-.088 2 2 0 0 0-.39-.647m3-3.857a.253.253 0 0 0-.334.165 1 1 0 0 1-.197-.224l-.265-.337q-.314-.39-.646-.767a18 18 0 0 0-1.453-1.458 23 23 0 0 0-3.192-2.395c-.091-.057-.17.084-.083.144a23 23 0 0 1 4.444 4.067c.324.38.62.777.93 1.168.213.269.557.465.86.2a.32.32 0 0 0-.064-.563m.144-5.259c-.407-.39-.825-.766-1.243-1.144q-1.238-1.116-2.48-2.228a.057.057 0 0 0-.081.081q1.163 1.19 2.33 2.379c.383.39.765.78 1.16 1.16a6.8 6.8 0 0 0 1.245 1.043.094.094 0 0 0 .128-.128 6.6 6.6 0 0 0-1.06-1.163m1.084-4.038a16 16 0 0 0-.754-.611q-.788-.6-1.571-1.205c-.056-.044-.135.028-.08.08q.696.684 1.388 1.372c.225.224.452.44.69.65l.367.322a1.1 1.1 0 0 0 .413.275c.115.026.258-.08.209-.21-.105-.275-.445-.486-.662-.673m1.553-3.515a.5.5 0 0 0-.1-.154 1.4 1.4 0 0 0-.254-.23 7 7 0 0 0-.576-.409q-.566-.359-1.138-.707a.083.083 0 0 0-.101.13q.48.468.97.927a7 7 0 0 0 .524.443 1.5 1.5 0 0 0 .263.183.8.8 0 0 0 .188.072 1 1 0 0 0 .154-.009.095.095 0 0 0 .09-.118c-.009-.042-.008-.087-.02-.128m.141-4.263-.289-.285-.327-.324a.088.088 0 0 0-.125.125l.571.577c.052.052.114.139.197.09a.08.08 0 0 0 .038-.07c.003-.05-.031-.08-.065-.113m.68-5.559a.031.031 0 0 0 0 .063.031.031 0 0 0 0-.063m-98.865-19.381c-.255-.133-.501-.278-.757-.409a7 7 0 0 0-.75-.426 5 5 0 0 0-1.846-.199 21.4 21.4 0 0 0-3.49.667c-.04.009-.022.066.016.06a11 11 0 0 1 3.463.289 11.5 11.5 0 0 0 1.65.242c.275.007.538-.077.81-.085a6 6 0 0 1 .857.035c.093.01.126-.134.047-.174"/><path fill="currentColor" d="M96.204 519.736a11.7 11.7 0 0 0-3.167-2.916 18.7 18.7 0 0 0-4.303-1.962c-.853-.277-1.72-.5-2.586-.736-.472-.13-.948-.245-1.418-.379a4.2 4.2 0 0 0-1.21-.274c-.058 0-.089.088-.031.116a7 7 0 0 0 1.691.366c.68.14 1.356.295 2.024.484a24.5 24.5 0 0 1 3.939 1.439 15.6 15.6 0 0 1 3.026 1.893 12 12 0 0 1 1.304 1.213q.318.345.602.718.158.205.305.42.06.085.117.174.175.189-.074.42c-.015-.037-.075-.02-.06.017a.173.173 0 0 0 .301.071c.27-.26-.322-.876-.46-1.064m18.506-36.847a17.22 17.22 0 0 0-13.832-4.172c-.029.004-.022.052.007.051a21.75 21.75 0 0 1 13.756 4.21c.052.039.117-.046.07-.09m-2.963-4.084c-1.256-.525-2.566-.905-3.866-1.306-.045-.014-.062.054-.02.07 1.275.476 2.545.976 3.861 1.326.06.016.08-.068.025-.09M76.212 581.298a5.3 5.3 0 0 0-.276-.804 11 11 0 0 0-.848-1.638 21 21 0 0 0-2.207-2.748c-.088-.1-.266.034-.187.145a16.4 16.4 0 0 1 1.578 3.08c.219.515.413 1.04.623 1.557.112.275.213.552.342.82a3 3 0 0 0 .49.71c.198.226.5.02.53-.22a2.4 2.4 0 0 0-.045-.902m2.109-3.082q-.467-1.28-1.026-2.523a32 32 0 0 0-2.894-4.941c-.079-.115-.261-.012-.189.11a44 44 0 0 1 2.46 4.986c.375.866.726 1.74 1.039 2.63a8.7 8.7 0 0 0 1.038 2.475.094.094 0 0 0 .174-.047 6.3 6.3 0 0 0-.602-2.69m-1.101-11.65c-.09-.091-.223.045-.14.14a17.3 17.3 0 0 1 2.668 4.312c.023.05.098.014.085-.036a10 10 0 0 0-2.613-4.416m5.128 10.376c-.121-.237-.251-.46-.358-.703-.106-.24-.215-.475-.313-.72l-.298-.749c-.05-.127-.251-.08-.21.058l.235.797c.073.249.13.497.194.747.065.252.102.503.152.758a1.7 1.7 0 0 0 .307.82.326.326 0 0 0 .55-.228 1.64 1.64 0 0 0-.26-.78m1.276-9.578a31.3 31.3 0 0 0-4.153-5.536c-.065-.07-.16.032-.102.103a44.6 44.6 0 0 1 3.962 5.723q.837 1.45 1.538 2.973c.479 1.039.886 2.111 1.43 3.119.04.076.148.021.132-.056a20.9 20.9 0 0 0-2.807-6.326m2.665-4.726a24.7 24.7 0 0 0-3.39-4.454c-.03-.034-.093.012-.065.05a41 41 0 0 1 3.005 4.667c.907 1.615 1.62 3.327 2.45 4.98.053.104.204.029.181-.076a17.8 17.8 0 0 0-2.18-5.167m2.36-4.218a28.6 28.6 0 0 0-2.895-3.56c-.056-.06-.136.027-.088.088a44 44 0 0 1 2.592 3.779c.79 1.262 1.416 2.647 2.317 3.834a.089.089 0 0 0 .161-.068 13.2 13.2 0 0 0-2.087-4.073m3.126-2.804q-.499-.794-1.03-1.567a35 35 0 0 0-2.243-2.84c-.068-.08-.211.028-.147.113.728.968 1.393 1.974 2.072 2.977q.494.73.961 1.479a6.4 6.4 0 0 0 1.035 1.46.073.073 0 0 0 .121-.071 5 5 0 0 0-.77-1.551m-.58-6.912c-.073-.047-.165.068-.094.123a7.1 7.1 0 0 1 1.45 1.557 19 19 0 0 1 1.066 1.827c.039.072.135.02.123-.052a5.46 5.46 0 0 0-2.545-3.455m3.514-3.476c-.26-.341-.548-.66-.829-.985-.026-.031-.08.01-.057.044.246.352.484.709.751 1.045.272.343.543.68.836 1.004.032.034.092-.011.065-.05a20 20 0 0 0-.766-1.058m11.894-30.462c-.09-.09-.225.047-.14.14a21.3 21.3 0 0 1 2.442 3.247c.699 1.128 1.274 2.325 1.875 3.506.03.059.12.018.105-.044a15.8 15.8 0 0 0-4.282-6.849m2.267-4.984c-.092-.098-.233.047-.147.147a30 30 0 0 1 2.86 4.077c.836 1.391 1.51 2.871 2.303 4.286a.084.084 0 0 0 .152-.064c-.777-3.213-2.951-6.069-5.168-8.446m7.503 3.283a9 9 0 0 0-.545-.989 18 18 0 0 0-1.287-1.812 22.4 22.4 0 0 0-3.211-3.164c-.102-.083-.245.052-.147.147a25 25 0 0 1 2.862 3.4c.412.58.817 1.169 1.193 1.774.198.32.394.642.603.955.194.29.428.53.633.8.079.105.271.05.228-.096a7 7 0 0 0-.329-1.015m1.554-5.309a10 10 0 0 0-1.165-1.526 11.5 11.5 0 0 0-2.984-2.264.031.031 0 0 0-.031.054 14.6 14.6 0 0 1 2.567 2.598c.364.459.692.95 1.011 1.44.164.252.319.507.487.756a2 2 0 0 0 .542.635.11.11 0 0 0 .16-.065 2.8 2.8 0 0 0-.588-1.628m2.009-3.51a9 9 0 0 0-.789-1.007 10.5 10.5 0 0 0-1.93-1.602c-.053-.035-.12.049-.069.09a10.4 10.4 0 0 1 1.704 1.73c.247.319.495.632.717.969q.164.25.315.51a1.8 1.8 0 0 0 .357.494c.085.072.263.035.249-.103a2.6 2.6 0 0 0-.554-1.081m2.648-2.954a1.7 1.7 0 0 0-.22-.354 5 5 0 0 0-.529-.67 9.5 9.5 0 0 0-1.25-1.092c-.086-.063-.193.076-.114.147a8.4 8.4 0 0 1 1.098 1.176c.159.209.324.412.48.623a3 3 0 0 0 .242.34c.043.044.095.076.136.122q.074.082.146.166a.084.084 0 0 0 .139-.08c-.046-.126-.084-.254-.128-.378m1.161-3.892a.005.005 0 0 0-.007.006l.226.227a.005.005 0 0 0 .007-.007Zm12.61-16.104c-.209-.236-.409-.485-.63-.71-.436-.443-.886-.875-1.326-1.314-.053-.053-.127.024-.081.08.396.485.783.978 1.183 1.459.196.235.416.452.624.676a5 5 0 0 0 .675.612c.051.038.115-.035.085-.086a5 5 0 0 0-.53-.717m3.522-2.985a2.5 2.5 0 0 0-.39-.303c-.13-.093-.257-.19-.39-.28-.27-.186-.554-.355-.831-.532-.052-.033-.094.046-.047.081.264.198.524.406.795.594q.198.135.398.265a2.5 2.5 0 0 0 .42.254c.046.019.074-.048.045-.079m31.259-22.66a13 13 0 0 0-1.974-1.418c-.691-.455-1.418-.862-2.127-1.287-.065-.039-.116.056-.058.098.673.488 1.335.999 2.027 1.459a13 13 0 0 0 2.072 1.253c.06.025.102-.064.06-.105m1.746-3.091a11 11 0 0 0-1.066-.576c-.368-.172-.748-.322-1.122-.482-.108-.047-.204.107-.094.161.367.18.73.376 1.105.543q.56.248 1.142.44c.051.017.08-.059.036-.086m-40.761-68.831c-3.643-1.376-7.313-2.687-10.886-4.238-.06-.026-.114.06-.052.09a70 70 0 0 0 10.913 4.238c.06.016.08-.07.025-.09m8.938-1.809a66 66 0 0 0-8.23-3.21c-2.843-1.023-5.677-2.066-8.482-3.189-.033-.013-.056.042-.024.057 2.642 1.3 5.307 2.554 8.021 3.695a40.2 40.2 0 0 0 8.607 2.903c.145.025.26-.177.108-.256m7.312-3.678c-1.138-.767-2.801-.924-4.11-1.276-1.463-.394-2.875-.933-4.292-1.464-2.818-1.057-5.546-2.505-8.503-3.151a.026.026 0 0 0-.02.047c2.55 1.559 5.509 2.314 8.294 3.326 1.51.549 3.025 1.065 4.495 1.715a12.7 12.7 0 0 0 3.952 1.481c.384.022.46-.49.183-.678m-1.258-4.11a32 32 0 0 0-3.841-1.664c-1.35-.484-2.743-.834-4.13-1.193a.042.042 0 0 0-.022.08c1.329.483 2.632 1.033 3.96 1.518 1.323.482 2.648.936 3.99 1.364a.057.057 0 0 0 .043-.105m9.062 2.988a4.4 4.4 0 0 0-1.142-.51c-.4-.134-.805-.256-1.21-.376-.813-.24-1.635-.44-2.447-.684-.052-.015-.073.064-.022.08a24 24 0 0 1 2.363.972c.369.168.735.344 1.1.52a5.2 5.2 0 0 0 1.166.453.25.25 0 0 0 .192-.454m5.382-2.201a23 23 0 0 0-2.372-.903q-1.279-.46-2.55-.943-2.54-.964-5.049-2.011c-.037-.016-.066.05-.028.066q2.415 1.04 4.86 2.006 1.266.499 2.54.977a19 19 0 0 0 2.571.875c.039.008.067-.048.028-.067m5.43-3.178a25.5 25.5 0 0 0-3.492-.965l-3.528-.838a.073.073 0 0 0-.038.14l3.566.958a25 25 0 0 0 3.48.797c.056.007.057-.074.012-.092m4.988-2.953a23 23 0 0 1-2.712-.488c-.052-.015-.071.062-.022.08a6.55 6.55 0 0 0 2.724.48c.038-.004.053-.065.01-.072m6.209-2.427a.32.32 0 0 0-.266-.092l-.218.02a3 3 0 0 0-.432.1l-.196.052a2 2 0 0 1-.194.058q-.216.036-.432.075c-.17.03-.133.326.042.306l.435-.048c.063-.006.124.003.187.002q.109-.001.217-.005a3 3 0 0 0 .443-.023q.108-.019.215-.041a.32.32 0 0 0 .23-.16.2.2 0 0 0-.031-.244M66.426 391.706a25.7 25.7 0 0 0-2.899-5.473c-.041-.06-.137-.006-.098.058a25.3 25.3 0 0 1 2.541 5.645c.593 1.926.861 3.928 1.4 5.867a.11.11 0 0 0 .213-.029 13.9 13.9 0 0 0-1.157-6.068m2.164.49a10 10 0 0 0-.41-1.21 16 16 0 0 0-1.198-2.3.094.094 0 0 0-.162.095 16 16 0 0 1 1.073 2.328c.142.387.29.772.423 1.163.135.402.243.821.397 1.216.026.065.138.065.133-.018a6.6 6.6 0 0 0-.256-1.274M23.256 407.68c-2.623-1.876-5.383-3.552-8.111-5.267-.034-.022-.064.031-.031.053 2.67 1.804 5.319 3.653 8.094 5.295.053.03.096-.047.048-.081m10.781 2.416c-5.003-4.048-10.448-7.617-15.758-11.248-.033-.023-.062.03-.031.054 5.138 3.863 10.26 7.877 15.695 11.316.073.046.164-.066.094-.122m5.977-1.293c-4.346-2.89-8.734-5.675-12.919-8.804-.043-.032-.084.04-.042.072a108 108 0 0 0 12.935 8.777.026.026 0 0 0 .026-.045m5.005-1.591a42.2 42.2 0 0 0-9.08-5.44c-.041-.018-.078.04-.036.063a118 118 0 0 1 9.053 5.459c.049.032.11-.045.063-.082m5.602-.839c-1.629-1.033-3.332-1.943-4.956-2.985-.039-.025-.087.035-.05.065a18 18 0 0 0 4.97 3.005c.052.02.08-.058.036-.085m27.631-12.464a16.8 16.8 0 0 0-5.874-2.13.062.062 0 0 0-.033.12c1.946.709 3.854 1.586 5.854 2.133a.068.068 0 0 0 .053-.123m4.102-2.099a8.2 8.2 0 0 0-2.004-.83c-.698-.244-1.394-.49-2.098-.72l-4.293-1.395c-.038-.012-.053.046-.016.06l4.225 1.642c.69.269 1.387.519 2.083.772a8 8 0 0 0 2.063.617c.084.006.097-.106.04-.146m3.153-2.228a14.5 14.5 0 0 0-2.438-.964l-2.54-.908c-.108-.039-.151.13-.047.17l2.477.95a14.7 14.7 0 0 0 2.5.866.063.063 0 0 0 .048-.114m4.053-1.76a15 15 0 0 0-1.872-.761 44 44 0 0 0-1.967-.654c-.044-.014-.076.057-.032.076.62.268 1.24.52 1.871.76a15 15 0 0 0 1.968.655c.044.01.076-.054.032-.076m6.133-2.2a2.2 2.2 0 0 0-.667-.102c-.257-.02-.52-.037-.778-.038l-1.525-.003a.062.062 0 0 0 0 .124l1.497.139c.248.023.499.028.748.036a2.2 2.2 0 0 0 .71-.032c.048-.016.073-.1.015-.124"/></svg>