<svg xmlns="http://www.w3.org/2000/svg" data-name="crab" viewBox="0 0 546.708 418.354"><path fill="currentColor" d="M82.04 344.117q-.28 4.415-.647 8.823-.183 2.172-.373 4.344a19.5 19.5 0 0 0-.252 4.232c.009.062.096.049.113 0a17.4 17.4 0 0 0 .506-4.108q.19-2.232.335-4.468.289-4.409.475-8.823c.004-.1-.15-.1-.157 0m-4.502 19.653a240 240 0 0 1-.63 3.552c-.107.58-.217 1.159-.32 1.74a3.65 3.65 0 0 0-.096 1.652.119.119 0 0 0 .214.028 3.5 3.5 0 0 0 .359-1.548c.068-.608.123-1.218.184-1.826.121-1.196.242-2.391.381-3.585.006-.052-.083-.065-.092-.013m-1.729.264a90 90 0 0 1-.848 4.008q-.231.962-.475 1.921c-.087.345-.178.69-.244 1.039a7 7 0 0 0-.049.96.09.09 0 0 0 .168.045 6 6 0 0 0 .428-.854c.11-.338.187-.687.262-1.034q.218-1.008.375-2.027c.21-1.344.37-2.69.452-4.049a.035.035 0 0 0-.07-.01m-2.155 3.561c-.466 1.798-1.006 3.575-1.503 5.365-.013.045.056.077.078.033A15.6 15.6 0 0 0 73.7 367.6c.003-.027-.04-.031-.046-.006m-11.677-45.946c-.635 2.23-1.443 4.405-2.072 6.635-.017.058.071.099.1.042a26 26 0 0 0 2.07-6.65.05.05 0 0 0-.098-.027m-1.88.483c-.524 1.29-1.084 2.566-1.578 3.868q-.356.936-.698 1.879c-.121.335-.245.678-.339 1.022a5 5 0 0 0-.094.452 3.4 3.4 0 0 0-.014.507c-.005.13.161.152.226.062a3.3 3.3 0 0 0 .347-.496q.086-.175.158-.354c.135-.33.247-.676.357-1.016q.308-.95.595-1.908c.4-1.323.737-2.665 1.107-3.997.013-.045-.05-.06-.067-.019m-2.488.789a26.5 26.5 0 0 1-1.425 3.863q-.42.91-.905 1.788l-.452.822a4 4 0 0 0-.25.475c-.058.15-.05.29-.095.442a.11.11 0 0 0 .183.107 4 4 0 0 0 .338-.3 3 3 0 0 0 .276-.46q.258-.472.479-.96.397-.88.734-1.784a28.4 28.4 0 0 0 1.147-3.985.016.016 0 0 0-.03-.008m-3.365 2.794q-.46 1.326-.988 2.628c-.176.435-.366.863-.543 1.297q-.131.325-.264.649a1.5 1.5 0 0 0-.133.6.067.067 0 0 0 .113.046 1.3 1.3 0 0 0 .311-.463q.133-.324.26-.65c.176-.448.325-.909.475-1.367q.443-1.353.814-2.728a.023.023 0 0 0-.045-.012m-2.815 1.989a9 9 0 0 0-.867 1.239 5.6 5.6 0 0 0-.558 1.403c-.012.045.056.078.078.033.22-.442.454-.88.688-1.315a11 11 0 0 1 .781-1.265c.052-.072-.066-.164-.122-.095m-28.085-9.518a80 80 0 0 0-5.95-5.797c-1.958-1.942-3.945-3.907-5.79-5.957-.053-.058-.159.021-.11.086.817 1.099 1.59 2.215 2.481 3.258q1.387 1.625 2.894 3.137a28.1 28.1 0 0 0 6.4 5.371.063.063 0 0 0 .075-.098m.518-2.947a31 31 0 0 1-1.497-1.073 20.6 20.6 0 0 1-2.767-2.582c-.807-.9-1.626-1.784-2.453-2.665-.846-.901-1.765-1.73-2.596-2.643-.041-.045-.124.016-.086.066.716.953 1.373 1.933 2.182 2.814a27 27 0 0 0 2.759 2.622 58 58 0 0 1 2.813 2.43q.676.63 1.35 1.262a3.2 3.2 0 0 0 1.346.942.107.107 0 0 0 .12-.155 3.3 3.3 0 0 0-1.17-1.018m2.327-1.553c-.32-.26-.642-.516-.96-.777q-1.005-.83-1.975-1.7-1.913-1.716-3.69-3.574c-.018-.018-.044.009-.028.028a60 60 0 0 0 3.58 3.78q.912.88 1.858 1.721c.323.288.648.576.981.852a2.6 2.6 0 0 0 .974.627.087.087 0 0 0 .097-.126 2.9 2.9 0 0 0-.836-.831m3.295-.798a5.3 5.3 0 0 0-1.492-1.032 31 31 0 0 1-1.573-1.053 25 25 0 0 1-2.973-2.452.05.05 0 0 0-.072.072 23 23 0 0 0 2.856 2.711c.496.391 1.012.753 1.545 1.094a3.75 3.75 0 0 0 1.656.786c.072.005.088-.08.053-.126m2.149-1.78c-.344-.215-.705-.382-1.064-.57a15 15 0 0 1-1.073-.636 11 11 0 0 1-1.937-1.578c-.057-.058-.143.03-.088.089a12.6 12.6 0 0 0 1.877 1.674 6.3 6.3 0 0 0 2.237 1.135.063.063 0 0 0 .048-.114m1.255-2.507-1.273-.775a.027.027 0 0 0-.027.048l1.275.767a.023.023 0 0 0 .024-.04m-12.62-85.507a.078.078 0 0 0-.156 0c-.2 4.994-.67 9.99-1.048 14.974a15 15 0 0 1-.178 1.78 14 14 0 0 0-.428 1.928c-.069 1.232.044 2.472-.004 3.707-.098 2.512-.305 5.023-.51 7.528-.228 2.794-.428 5.577-.547 8.378-.004.1.157.124.176.024.917-4.907 1.357-9.859 1.877-14.819.132-1.258.332-2.499.523-3.747a6 6 0 0 0 .13-1.658 13 13 0 0 1-.157-2.008c.075-2.516.24-5.028.276-7.545.041-2.848.005-5.695.046-8.542m66.238-44.196c-1.94-1.387-3.923-2.711-5.893-4.054-.017-.011-.032.016-.016.027 1.956 1.364 3.9 2.748 5.886 4.067.025.017.047-.023.023-.04m6.994 10.351a30.4 30.4 0 0 0-4.23-3.104q-2.221-1.467-4.455-2.916c-3.017-1.945-6.05-3.865-9.072-5.804-.034-.022-.064.03-.032.054 2.917 2.037 5.821 4.093 8.742 6.124q2.138 1.487 4.296 2.946a31.7 31.7 0 0 0 4.643 2.842c.086.039.188-.066.108-.142m9.944 12.085a10.4 10.4 0 0 0-2.243-2.134q-1.316-1.016-2.653-2.006a142 142 0 0 0-17.001-10.845q-3.384-1.827-6.848-3.502c-.027-.013-.05.026-.024.04a194 194 0 0 1 22.636 14.39q1.48 1.085 2.936 2.203a14 14 0 0 0 3.06 2.031c.097.04.195-.095.137-.177m4.506 7.674q-2.546-1.935-5.133-3.813c-.91-.663-1.827-1.318-2.7-2.03a21 21 0 0 0-2.419-1.834c-3.609-2.185-7.1-4.556-10.717-6.73q-3.094-1.86-6.23-3.65a.05.05 0 0 0-.05.087c3.653 2.197 7.242 4.5 10.796 6.853 1.746 1.156 3.497 2.31 5.16 3.583a15 15 0 0 0 2.51 1.731 21 21 0 0 1 2.811 1.79c1.972 1.377 3.906 2.812 5.83 4.256.145.108.284-.135.142-.243m-5.336.433q-1.035-.685-2.081-1.353-2.043-1.305-4.13-2.54-4.224-2.502-8.604-4.727c-.027-.013-.05.027-.024.04q4.289 2.265 8.423 4.804 2.015 1.24 3.99 2.544 1.037.685 2.063 1.386a6.2 6.2 0 0 0 1.922 1.186.063.063 0 0 0 .07-.092 5.1 5.1 0 0 0-1.629-1.248m7.685 5.66a9 9 0 0 0-1.395-1.01q-.735-.486-1.468-.975c-.064-.042-.12.058-.06.101l1.418 1.006a9 9 0 0 0 1.452.946c.042.018.09-.031.052-.068m2.105 5.49c-.746-.614-1.516-1.2-2.28-1.791a216 216 0 0 0-4.701-3.514c-3.243-2.372-6.582-4.62-9.92-6.857-.016-.012-.031.015-.015.027 3.15 2.257 6.227 4.605 9.3 6.966 1.577 1.212 3.143 2.44 4.714 3.661.73.57 1.455 1.146 2.187 1.713a10.7 10.7 0 0 1 1.987 1.599c.063.08.2-.007.17-.099a3.9 3.9 0 0 0-1.442-1.705m3.416 7.65a23 23 0 0 0-3.408-3.076q-1.717-1.386-3.512-2.673a70 70 0 0 0-7.826-4.812.02.02 0 0 0-.02.033 87 87 0 0 1 7.607 4.966q1.891 1.371 3.695 2.857c1.129.929 2.182 1.976 3.388 2.804.063.043.118-.047.076-.098m1.36 5.779a29.6 29.6 0 0 0-5.412-4.3 66 66 0 0 0-6.075-3.656.043.043 0 0 0-.043.074q3.006 1.782 5.863 3.81c1.892 1.344 3.645 2.914 5.601 4.158.054.034.107-.042.066-.086m3.054 6.65a48.4 48.4 0 0 0-8.48-6.324c-.035-.021-.065.032-.032.054 2.932 1.968 5.638 4.222 8.455 6.343.043.032.094-.037.057-.074"/><path fill="currentColor" d="M197.203 5.84c-4.114 5.382-8.018 10.93-11.965 16.434q-5.919 8.25-11.795 16.533-11.762 16.642-23.403 33.368l-23.19 33.3q-2.888 4.15-5.778 8.298a66 66 0 0 1-5.607 7.283c-3.993 4.306-9.447 7.026-12.873 11.886-3.276 4.648-4.966 10.187-6.676 15.545-2.039 6.39-3.988 12.827-5.78 19.29-.31 1.116-.63 2.23-.948 3.343a32.2 32.2 0 0 1-.252-11.248 40.6 40.6 0 0 1 1.773-6.84c.058-.164-.194-.265-.278-.117-4.638 8.17-4.42 18.728-.44 27.094 4.338 9.12 13.373 14.632 18.508 23.192a77.4 77.4 0 0 1 6.203 14.391c1.677 4.777 3.43 9.508 5.571 14.1a117.4 117.4 0 0 0 16.051 25.298 116 116 0 0 0 10.407 10.989c3.92 3.631 7.842 7.1 10.47 11.831 2.613 4.701 4.446 9.82 6.783 14.661q3.544 7.341 7.764 14.33c.25.414.512.822.766 1.234a6 6 0 0 0-1.916-.305 4.67 4.67 0 0 0-2.422.673c-.007.005-.004.014-.008.021a1.97 1.97 0 0 0-1.421-.182 3 3 0 0 0-1.812 1.412c-1.01 1.63-.464 3.882.273 5.51a20.6 20.6 0 0 0 2.96 4.391 17.6 17.6 0 0 0 4.003 3.587c.034.023.064-.031.031-.053a14.7 14.7 0 0 1-5.814-7.053c-.54-1.489-1.223-3.071-.832-4.676a2.94 2.94 0 0 1 1.077-1.692 3.74 3.74 0 0 1 1.629-.845l-.088.088a.023.023 0 0 0 .033.033l.132-.132a1.2 1.2 0 0 1 .294.008.051.051 0 0 0 .039-.093 5 5 0 0 0-.38-.236 12.7 12.7 0 0 1 2.176-.056 7 7 0 0 1 2.193.54 2 2 0 0 0 .54.168 174 174 0 0 0 3.013 4.67c1.082 1.612 2.32 3.178 3.355 4.843a4.85 4.85 0 0 0-3.162.344 6.05 6.05 0 0 0-1.99 1.6 9.1 9.1 0 0 0-1.332 2.39.04.04 0 0 0 .062.048c.568-.518 1.183-.996 1.721-1.545a8 8 0 0 1 1.788-1.407 4.1 4.1 0 0 1 1.857-.538 3.3 3.3 0 0 1 1.816.467c.063.121.14.236.2.359.886 1.807 1.1 4.016-.347 5.591a7.76 7.76 0 0 1-4.603 2.106c-4.225.655-8.733-.82-12.545-2.524a36.9 36.9 0 0 1-12.047-8.637c-3.554-3.84-6.342-8.291-9.412-12.508a77.4 77.4 0 0 0-9.608-10.953 70.6 70.6 0 0 0-24.075-15.136 28 28 0 0 0-2.977-.857 29 29 0 0 1 5.917.607 35 35 0 0 1 7.088 2.115c.058.025.11-.055.051-.088a29 29 0 0 0-5.85-2.584 31.5 31.5 0 0 0-6.262-1.141 35 35 0 0 0-6.443-.075 34 34 0 0 0-6.838 1.562c-8.788 2.787-17.637 6.042-25.62 10.705-2.056 1.201-4.117 2.388-6.23 3.486a29.8 29.8 0 0 1-6.743 2.716.173.173 0 0 0 .045.338 21.1 21.1 0 0 0 7.67-1.726c-1.368 1.345-2.744 2.684-4.09 4.052-1.364 1.387-2.701 2.798-4.046 4.203-1.392 1.455-2.888 2.863-4.205 4.384-.1.116.034.33.175.227 1.573-1.152 3.03-2.52 4.518-3.78q2.276-1.924 4.458-3.962c.886-.827 1.75-1.677 2.605-2.535.063.402.14.802.198 1.203a28 28 0 0 1 .259 3.077c.068 2.058-.045 4.117-.051 6.176a51 51 0 0 0 .424 6.675c.144 1.117.314 2.23.524 3.336.204 1.08.518 2.147.687 3.232.187 1.201-.44 2.013-.959 3.036-.582 1.149-1.058 2.345-1.675 3.48-.104.193.156.417.313.242.8-.888 1.692-1.676 2.523-2.527.08-.082.156-.168.234-.25.119.182.255.357.41.561a12 12 0 0 1 .96 1.53 31 31 0 0 1 1.445 3.325c1.198 3.063 2.437 6.11 3.67 9.159l3.65 9.034c1.208 2.977 2.52 5.933 3.584 8.964a43 43 0 0 1 1.21 4.735 11.4 11.4 0 0 1 .293 2.435 15 15 0 0 1-.336 2.64c-.035.2.238.35.35.147a12.9 12.9 0 0 0 1.258-4.226c.038-.253.05-.504.068-.755.17.19.375.371.535.53.582.578 1.231 1.1 1.856 1.632a117 117 0 0 0 3.473 2.853q3.632 2.86 7.45 5.472 3.716 2.533 7.6 4.806 1.986 1.162 4.012 2.253a14.3 14.3 0 0 1 3.55 2.379 7.8 7.8 0 0 0 1.625 1.422 8 8 0 0 0 2 .706 24 24 0 0 1 4.239 1.526 63 63 0 0 1 7.79 4.633 59 59 0 0 1 7.446 5.5 28.4 28.4 0 0 1 5.321 6.558 27.6 27.6 0 0 1 2.026 4.188c.554 1.459 1.278 3.24.7 4.797a4.65 4.65 0 0 1-2.826 2.533c-.776.28-1.59.432-2.379.672-.147-.02-.292-.048-.44-.07a2.7 2.7 0 0 1 .066-.844 4.5 4.5 0 0 1 .243-.726c.056-.126.098-.259.162-.38a.53.53 0 0 0 .093-.336 3 3 0 0 1 .126-.158c.072-.083-.02-.225-.123-.16q-.099.066-.194.136a.5.5 0 0 0-.383.177c-.054.048-.119.084-.17.134a2 2 0 0 0-.179.225 2.9 2.9 0 0 0-.438.875 3.7 3.7 0 0 0-.161.904l-.288-.046a39 39 0 0 1-5.329-1.395q-4.414-1.42-8.827-2.846a2.7 2.7 0 0 1 .962-1.078 6.5 6.5 0 0 1 1.424-.55 3.8 3.8 0 0 1 1.72-.163c2.452.235 4.896.645 7.322 1.062.03.005.042-.037.013-.045a71 71 0 0 0-8.653-2.137 3.36 3.36 0 0 0-1.854.178 4.1 4.1 0 0 0-1.419.948 3.35 3.35 0 0 0-.792 1.373l-1.216-.392a68 68 0 0 0-11.138-2.916c-2.877-.41-5.828-.316-8.553-1.254.342-.443.638-.91.936-1.384.696-1.107 1.349-2.231 2.012-3.357.666-1.13 1.434-2.184 2.206-3.243a27 27 0 0 1 2.24-2.983 4 4 0 0 1-.363 2.013 13 13 0 0 1-1.251 3.023 25 25 0 0 1-1.86 2.736c-.32.407-.651.8-1.003 1.179a4.9 4.9 0 0 0-.933 1.072.357.357 0 0 0 .557.43 5.1 5.1 0 0 0 .987-1.448c.304-.509.628-1.005.932-1.513.648-1.083 1.274-2.186 1.952-3.249.731-1.145 3.239-3.794 1.197-4.955a.273.273 0 0 0-.372.097 21 21 0 0 1-2.233 3.369 40 40 0 0 1-2.641 3.48 96 96 0 0 0-2.575 3.078 11 11 0 0 0-.876 1.211c-.247-.116-.497-.222-.74-.361-2.864-1.65-5.123-4.155-7.707-6.182a94 94 0 0 0-9.25-6.186q-5.034-3.059-10.07-6.112c-3.264-1.981-6.502-4.02-9.859-5.841-.793-.43-1.61-.82-2.428-1.207.38-.104.75-.218 1.098-.335a9 9 0 0 0 2.305-1.053 17 17 0 0 0 1.826-1.681c.044-.042-.014-.12-.066-.086a6 6 0 0 1-1.149.648c-.348.131-.706.224-1.05.368-.735.309-1.44.671-2.196.93a14 14 0 0 1-2.14.547 34 34 0 0 1-1.516-.786c.073-.094.145-.189.229-.279a1.9 1.9 0 0 1 .794-.585c.25-.08.468.032.724-.028a5.9 5.9 0 0 0 1.688-.99c.55-.364 1.141-.646 1.673-1.044a17.1 17.1 0 0 0 4.305-5.547.05.05 0 0 0-.088-.052 25 25 0 0 1-2.294 3.224 8.36 8.36 0 0 1-3.228 2.231c-.606.243-1.237.385-1.838.639a2.4 2.4 0 0 0-.838.473 2.7 2.7 0 0 0-.27.576c-.277.474-.811.786-1.16 1.205a7.85 7.85 0 0 1-3.086-4.053 121 121 0 0 1-4.051-12.274c-.05-.17-.337-.147-.323.044a44 44 0 0 0 1.165 6.904c-.63-1.274-1.311-2.524-1.975-3.782l-5.479-10.38-11.074-20.982-5.595-10.6c-1.627-3.083-3.142-6.332-5.647-8.82-1.15-1.14-2.439-2.136-3.543-3.325a8.6 8.6 0 0 1-2.176-4.154c-.693-3.28.17-6.722.708-9.959.722-4.338 1.352-8.691 1.999-13.042.33-2.218.666-4.435.968-6.657l.436-3.214c.149-1.094.205-2.19.348-3.285.024-.188-.29-.228-.33-.045-.213.97-.51 1.912-.718 2.88l-.622 2.906a476 476 0 0 0-1.198 5.825c-.78 3.887-1.616 7.77-2.328 11.67-.642 3.514-1.534 7.141-1.461 10.735a11.01 11.01 0 0 0 3.98 8.727 40 40 0 0 1 3.535 3.408 25.5 25.5 0 0 1 2.784 4.39c1.864 3.476 3.684 6.976 5.525 10.464l11.189 21.203 6.293 11.927c1.047 1.984 2.035 4.016 3.189 5.94.876 1.46 1.869 2.844 2.826 4.252a10 10 0 0 0 1.564 3.21 7.5 7.5 0 0 0 2.2 1.822.29.29 0 0 0 .219.193c.053.011.109.014.163.024.58.313 1.185.592 1.786.877a113 113 0 0 1 10.047 5.64l10.53 6.389c3.273 1.987 6.587 3.928 9.71 6.149 2.858 2.032 5.307 4.538 8.11 6.633a15.7 15.7 0 0 0 4.235 2.312c-.484 1.126-1.057 2.21-1.515 3.348-.126.314-.232.635-.38.94-.071.147-.168.286-.254.43q-.628-.245-1.239-.551c-1.554-.78-3.022-1.724-4.516-2.61q-9.652-5.724-19.84-10.469c-3.43-1.596-6.89-3.185-10.448-4.473a45 45 0 0 0-4.907-1.46c-1.455-.345-2.921-.657-4.347-1.112a13 13 0 0 1-2.734-1.204 18.5 18.5 0 0 0 1.946-1.96 75 75 0 0 0 2.586-3.059c.031-.038-.02-.093-.055-.055a38 38 0 0 1-2.755 2.76c-.743.662-1.527 1.296-2.238 1.995-.065-.045-.122-.1-.185-.148a8 8 0 0 1 .315-.712 2.35 2.35 0 0 0 .182-.956 6.45 6.45 0 0 0 2.535-2.532c.985-1.6 1.876-3.27 2.704-4.957a.031.031 0 0 0-.054-.032c-1.01 1.386-1.939 2.821-2.863 4.265-.64.998-1.557 2.41-2.885 2.464a.52.52 0 0 0-.445.255 2.08 2.08 0 0 0-.14 1.366c.029.138.06.264.089.388-.032-.03-.07-.051-.101-.081a10.64 10.64 0 0 1-2.494-4.439c-.69-2.03-1.322-4.083-1.983-6.123a42 42 0 0 0-2.177-6.038.102.102 0 0 0-.19.051 39 39 0 0 0 1.15 5.814q.588 2.508 1.181 5.016c-1.669-4.857-3.674-9.55-5.765-14.258l-7.383-16.621-7.452-16.777c-2.312-5.204-4.412-10.59-7.154-15.588a34.4 34.4 0 0 0-4.52-6.398 29 29 0 0 1-4.61-5.888c-2.512-4.942-.609-11.05.356-16.153 2.224-11.767 4.458-23.58 6.026-35.455l.335-2.522c.01-.014.024-.021.028-.04 1.059-6.577 1.922-13.187 2.663-19.807.147-1.312.28-2.626.414-3.94.391-3.125.745-6.256.973-9.387.1-1.376.227-2.744.31-4.12q.119-1.27.242-2.539c.645-6.52 1.394-13.028 2.448-19.496 1.033-6.336 2.304-12.645 3.68-18.915q1.154-5.262 2.543-10.468c.944-3.541 2.075-7.045 2.815-10.634.015-.073-.091-.13-.128-.054a70 70 0 0 0-3.375 9.009c-.352 1.089-.686 2.184-1.022 3.278a184 184 0 0 0 1.743-13.617c.219-2.467.328-4.952.644-7.409a22.2 22.2 0 0 1 1.997-6.763c1.037-2.18 2.198-4.3 3.24-6.48q1.558-3.264 2.904-6.628a183 183 0 0 0 2.848-7.69 78 78 0 0 0 2.427-7.956c.008-.033-.04-.057-.057-.024-2.19 4.377-3.79 9.052-5.784 13.528a141 141 0 0 1-3.1 6.563c-.223.438-.457.87-.69 1.3.335-1.055.664-2.111 1.007-3.164.72-2.21 1.587-4.369 2.3-6.58q2.178-6.738 4.478-13.444c3.026-8.862 6.335-17.626 9.82-26.318 3.505-8.746 7.194-17.418 10.964-26.053 3.784-8.664 7.647-17.293 11.467-25.941 2.008-4.545 3.957-9.117 5.917-13.683 1.921-4.477 3.863-8.958 5.597-13.512.431-1.132.897-2.249 1.325-3.382.082-.215-.266-.36-.37-.157-4.538 8.747-8.59 17.75-12.696 26.705-3.978 8.677-7.856 17.4-11.696 26.139-3.79 8.625-7.51 17.283-11.064 26.009-3.55 8.714-6.93 17.498-10.037 26.38-1.544 4.416-3.05 8.848-4.375 13.334-1.342 4.541-2.288 9.16-3.363 13.767-.156.669-.299 1.34-.448 2.01-.538.95-1.078 1.9-1.588 2.868a25.8 25.8 0 0 0-2.61 6.71 59 59 0 0 0-.83 7.425c-.405 5.091-.947 10.175-1.482 15.254q-.539 5.102-1.185 10.186a121 121 0 0 0-1.482 6.008q-1.02 4.737-1.85 9.512c-2.266 13.115-3.326 26.408-4.55 39.65-.342 3.7-.56 7.412-.803 11.119l-.014.244q-.745 4.69-1.554 9.37c-2.077 11.886-4.034 23.793-6.236 35.657-.54 2.907-1.122 5.808-1.645 8.718a27 27 0 0 0-.515 8.202 14.1 14.1 0 0 0 2.971 6.915c1.545 2 3.415 3.727 4.932 5.748 3.326 4.431 5.334 9.758 7.566 14.783l7.452 16.777 7.521 16.932c2.475 5.572 4.766 11.28 7.728 16.616.739 1.33 1.486 2.652 2.262 3.96a.2.2 0 0 0 .227.085 10.7 10.7 0 0 0 1.067 2.515 9.1 9.1 0 0 0 3.22 3.108c2.627 1.524 5.702 1.956 8.597 2.71a69 69 0 0 1 10.685 4.067 226 226 0 0 1 20.402 10.412c1.616.93 3.21 1.896 4.814 2.847a23 23 0 0 0 4.851 2.307 25.8 25.8 0 0 0 5.571.837l5.954.476 13.396 1.071 6.698.536c1.156.093 2.314.206 3.473.273a9.6 9.6 0 0 0 3.31-.413.327.327 0 0 0 .092-.579 11 11 0 0 0 2.56-.082 6 6 0 0 0 1.333-.178 7.6 7.6 0 0 0 3.561-2.017 5.5 5.5 0 0 0 1.576-3.822 12.5 12.5 0 0 0-1.123-4.517 30.9 30.9 0 0 0-4.533-7.832 32 32 0 0 0-5.265-5.146c-2.387-5.343-8.416-8.276-12.71-11.895a59.5 59.5 0 0 1-7.714-8.494 128 128 0 0 0-7.859-8.92q-2.353-2.427-4.842-4.714a15.4 15.4 0 0 0-4.465-3.325c-.004-.12.005-.235-.007-.357a11.7 11.7 0 0 0-1.009-3.459 40.5 40.5 0 0 0-3.73-6.423l-9.245-13.856-4.554-6.825c-.748-1.121-1.546-2.225-2.206-3.401a13.4 13.4 0 0 1-1.246-3.695 142 142 0 0 1-2.711-15.885c-.329-3.017-.47-6.046-.745-9.066a10 10 0 0 0-.138-1.134c3.213-1.726 6.425-3.423 9.787-4.87 4.206-1.81 8.525-3.339 12.854-4.823a55 55 0 0 1 11.982-3.015c.662.303 1.316.64 1.952.932 1.115.514 2.22 1.042 3.338 1.546 2.208.995 4.392 2.059 6.535 3.188a74.3 74.3 0 0 1 22.449 18.116c3.33 3.986 6.078 8.402 9.21 12.536a43.7 43.7 0 0 0 10.939 10.543 36.9 36.9 0 0 0 13.581 5.47c3.498.603 7.705.33 10.538-2.038a6.2 6.2 0 0 0 2.213-4.801c-.023-2.548-1.506-4.784-2.916-6.793a177 177 0 0 1-16.422-28.661c-2.213-4.886-4.033-10.068-7.281-14.396-3.164-4.216-7.368-7.479-11.1-11.158a115.2 115.2 0 0 1-18.678-24.104 114 114 0 0 1-6.742-13.568c-2.012-4.847-3.564-9.861-5.444-14.758a51.4 51.4 0 0 0-7.262-13.529c-3.127-3.987-6.93-7.367-10.273-11.162a32.4 32.4 0 0 1-7.208-12.746 39 39 0 0 1-.549-2.262c2.23-6.096 4.476-12.183 6.596-18.319 1.935-5.603 3.494-11.506 6.402-16.709a25.4 25.4 0 0 1 5.16-6.51c2.205-1.988 4.674-3.652 6.911-5.6 4.663-4.056 7.968-9.493 11.468-14.52l23.187-33.302q11.543-16.58 23.001-33.219 11.474-16.71 22.735-33.566c.923-1.38 1.817-2.777 2.703-4.18.13-.206-.178-.368-.317-.186M117.11 415.23a2 2 0 0 0 .112.153l-7.543-.603c-3.925-.314-7.874-.53-11.788-.962a16 16 0 0 1-2.808-.567 4 4 0 0 1 .115-.663c.136-.53.325-1.045.45-1.58.218-.928.418-1.855.664-2.775l.015.006a24 24 0 0 0 5.71.844 49.7 49.7 0 0 1 11.38 2.425c1.426.449 2.849.908 4.272 1.365a1.97 1.97 0 0 0-.801 1.093 1.64 1.64 0 0 0 .222 1.264m10.182.959-5.954-.476-2.896-.232a.37.37 0 0 0-.085-.242.45.45 0 0 0-.154-.11l-.075-.028q.041.019.007.003a1 1 0 0 1-.107-.052l-.029-.017c.054.026.037.01-.039-.04l-.038-.035a1 1 0 0 1-.073-.075c-.015-.017-.063-.087-.025-.03l-.06-.09a1 1 0 0 1-.059-.114q-.018-.039.004.01l-.02-.053a2 2 0 0 1-.055-.218l-.007-.063q-.008-.056-.012-.113a2 2 0 0 1 .004-.212 1.86 1.86 0 0 1 .496-.85c.034-.037.076-.07.112-.107q3.414 1.1 6.826 2.206c.217.106.44.2.653.312a.088.088 0 0 0 .121-.06l.498.16c.62.2 1.245.402 1.872.598zm-3.848-28.022q1.173.87 2.298 1.794a132 132 0 0 0-3.566-2.277 7 7 0 0 0-.107-.52q.691.5 1.375 1.003m-2.508-1.831a.22.22 0 0 0 .063.144.042.042 0 0 0 .067-.049l.187.137q.033.291.075.582-1.121-.681-2.282-1.304-.018-.46-.08-.924l-.01-.06q.981.748 1.98 1.474m-2.528-1.892q.031.283.058.566.024.278.044.554a33 33 0 0 0-1.814-.86 21 21 0 0 0-.075-1.15c-.023-.224-.065-.446-.099-.669a45 45 0 0 0 1.886 1.56m-55.14-83.99c-.06-.44-.129-.878-.226-1.311a10 10 0 0 0-.508-1.686 3.4 3.4 0 0 0-.323-.604c.178-.182.36-.36.538-.543a55 55 0 0 0 1.991-2.134c.105-.12.252-.266.41-.43.2-.104.401-.205.6-.312l.431-.231a114 114 0 0 0-2.19 5.395c-.227.61-.478 1.23-.724 1.857m.178 2.022c.448-1.183.8-2.417 1.193-3.572a116 116 0 0 0 1.795-5.837l.192-.103c-.019.169-.035.307-.036.353-.013.647-.002 1.29.02 1.937.016.439.047.876.068 1.314-.712 1.765-1.452 3.52-2.172 5.281-.327.8-.668 1.591-1.008 2.384a44 44 0 0 0-.034-1.435zm.05 3.688c.153-.33.3-.66.439-.977.425-.966.816-1.948 1.199-2.93a44 44 0 0 0 1.579-5.008c.028.545.046 1.09.083 1.634.029.423.07.845.103 1.268l-2.25 5.86q-.586 1.528-1.155 3.063c-.017-.97-.006-1.94.002-2.91m.369 8.285-.01.029a54 54 0 0 1-.269-3.195c.182-.483.331-.978.484-1.398q.645-1.772 1.216-3.572c.597-1.884 1.139-3.78 1.651-5.687.127 1.548.272 3.095.45 4.638-.642 1.572-1.355 3.117-1.94 4.713q-.537 1.467-1.057 2.941c-.178.51-.363 1.017-.525 1.531m51.811 67.688c.166.155.342.3.51.451q.03.508.064 1.014.033.468.056.934a27 27 0 0 0-2.064-.767 17 17 0 0 0-.105-1.875 19 19 0 0 0-.224-1.55 37 37 0 0 0 1.763 1.793m-2.06-2.097q.117.984.192 1.972c.039.511.06 1.024.09 1.537l.006.116c-.306-.095-.609-.2-.92-.282-.388-.101-.792-.19-1.178-.324a1.5 1.5 0 0 0 .083-.339 10.2 10.2 0 0 0-.126-2.026 165 165 0 0 0-.316-3.18 64 64 0 0 0 2.17 2.526m-2.345-2.74c.048.938.097 1.876.165 2.813.049.678.109 1.357.149 2.036a2.4 2.4 0 0 1-.064.803 2.6 2.6 0 0 1-.511-.285 11 11 0 0 1-1.224-1.175c-.016-.436-.056-.872-.085-1.295q-.092-1.389-.225-2.774c-.09-.93-.212-1.855-.355-2.777.715.886 1.428 1.773 2.15 2.654m-3.198-3.947q.389.476.775.956c.097 1.072.199 2.144.29 3.217q.114 1.334.19 2.67c.017.297.026.601.037.905l-.034-.03a14 14 0 0 0-1.72-1.182c-.04-1.509-.21-3.023-.382-4.509a87 87 0 0 0-.507-3.591c.446.524.913 1.032 1.351 1.564m-1.677-1.94c.12 1.404.229 2.81.34 4.213.104 1.307.184 2.629.323 3.94-.55-.31-1.107-.61-1.663-.914-.146-.08-.289-.168-.435-.248a21 21 0 0 0 .025-2.45 55 55 0 0 0-.152-3.39 54 54 0 0 0-.362-3.326c.644.722 1.293 1.44 1.924 2.174m-2.21-2.498a73 73 0 0 1 .467 7.038c.011.749-.031 1.517-.002 2.274-.774-.43-1.536-.88-2.302-1.324a32 32 0 0 0-.11-6.24 53 53 0 0 0-.653-4.559q1.319 1.388 2.6 2.811m-4.035-4.3c.419.42.824.853 1.234 1.281a86 86 0 0 1 .504 5.007c.13 1.965.137 3.94.29 5.902q-1.045-.607-2.079-1.231c.004-2.064-.134-4.139-.282-6.192a171 171 0 0 0-.5-5.566c.274.27.561.527.833.8m-.946-.908c.136 1.891.271 3.782.379 5.675.115 2.026.184 4.062.34 6.087q-1.174-.708-2.328-1.446a74.7 74.7 0 0 0-.762-12.594c.795.754 1.59 1.51 2.371 2.278M73.464 326.9l4.21 6.306 8.42 12.614a62 62 0 0 1 4.077 6.576 21 21 0 0 1 1.296 3.391 18.7 18.7 0 0 1 .928 3.65.26.26 0 0 0 .507.069 14 14 0 0 0 .417-1.555 23 23 0 0 0 2.619 2.618c.286.264.559.542.842.81.4 4.184.498 8.37.69 12.566l-.19-.118c-.862-.556-1.703-1.145-2.553-1.721-.014-1.505-.147-3.027-.228-4.504q-.177-3.195-.415-6.385c-.006-.085-.138-.086-.133 0q.188 3.252.315 6.507c.053 1.368.05 2.767.12 4.152-.8-.546-1.591-1.104-2.382-1.664.018 0 .037-.004.042-.028a16.6 16.6 0 0 0 .179-4.358 46 46 0 0 0-.4-4.352c-.01-.069-.13-.053-.122.017a45 45 0 0 1 .262 4.335c.017 1.44-.138 2.913-.01 4.346 0 .008.01.009.014.015-.615-.436-1.214-.892-1.821-1.337a20.4 20.4 0 0 0-.093-3.284c-.073-1.106-.166-2.212-.25-3.317-.004-.06-.095-.061-.094 0 .03 1.127.045 2.255.09 3.382a22 22 0 0 0 .224 3.129c-.52-.383-1.05-.754-1.563-1.148-.121-.094-.238-.194-.359-.288a5 5 0 0 0-.036-1.058c-.035-.392-.084-.783-.13-1.173q-.136-1.174-.275-2.347c-.005-.044-.073-.046-.07 0l.166 2.347c.028.39.054.782.093 1.173a6 6 0 0 0 .142.97c-.65-.504-1.283-1.028-1.925-1.541.007-2.51-.193-5.028-.323-7.533-.003-.055-.088-.055-.086 0 .082 2.48.097 4.978.308 7.452-.565-.453-1.139-.894-1.694-1.358q-.365-.304-.727-.612c.11-1.612.088-3.246.13-4.849l.181-6.767c.003-.09-.136-.09-.14 0l-.288 6.644c-.067 1.551-.194 3.13-.21 4.696-.336-.285-.67-.572-1.01-.851a10 10 0 0 0-.99-.756 2 2 0 0 0-1.069-.202 12.6 12.6 0 0 0-.407-2.207 34 34 0 0 0-.842-2.606c.202-1.05.253-2.157.368-3.195.165-1.486.297-2.975.442-4.463.285-2.929.454-5.867.673-8.801.003-.048-.078-.06-.085-.012-.398 2.854-.848 5.702-1.18 8.565-.169 1.446-.35 2.891-.502 4.339-.074.7-.182 1.425-.26 2.151-.308-.784-.633-1.562-.958-2.338.065-.928.064-1.867.108-2.79.067-1.411.14-2.82.263-4.228.246-2.842.58-5.677 1.052-8.49.011-.069-.09-.1-.106-.03a71 71 0 0 0-1.351 8.28 75 75 0 0 0-.307 4.226c-.027.676-.061 1.368-.061 2.059-.284-.675-.568-1.35-.84-2.023l-.932-2.308a226 226 0 0 0 .565-2.686l.6-3.31c.409-2.25.777-4.506 1.17-6.757.01-.06-.077-.085-.09-.025-.623 2.96-1.26 5.918-1.863 8.883-.214 1.056-.483 2.126-.663 3.2l-.801-1.982c.139-.742.214-1.51.319-2.233.145-1.002.297-2.003.429-3.007l.872-6.636c.004-.03-.049-.037-.054-.007q-.585 3.298-1.176 6.595c-.188 1.06-.355 2.123-.53 3.185-.066.399-.144.81-.216 1.221q-.58-1.434-1.162-2.867c.134-.607.167-1.276.246-1.829q.222-1.534.451-3.067c.297-2.009.571-4.028.948-6.024.012-.063-.083-.091-.098-.027-.488 2.004-.996 3.995-1.391 6.02a77 77 0 0 0-.508 2.933c-.038.24-.089.506-.14.778-.39-.963-.792-1.92-1.184-2.883.15-.682.285-1.367.428-2.05.577-2.77 1.017-5.56 1.518-8.342.015-.083-.107-.12-.128-.035-.167.685-1.554 6.11-2.263 9.342q-.575-1.404-1.153-2.806c.166-.539.284-1.102.416-1.625.22-.873.419-1.75.608-2.63.392-1.816.626-3.66.874-5.5.674 1.164 1.47 2.267 2.214 3.382m-2.261-3.463-.007.004c-.473 1.803-1.023 3.586-1.483 5.394-.222.871-.45 1.74-.673 2.612q-.081.315-.176.639c-.147-.357-.29-.715-.44-1.071q-.212-.51-.423-1.025a8.1 8.1 0 0 0 .86-2.428c.26-.962.506-1.928.75-2.894.258-1.02.495-2.043.721-3.068a14 14 0 0 0 .87 1.837m-1.196-2.714c.03.104.078.2.112.302-.368 1.118-.727 2.24-1.058 3.372-.28.956-.559 1.913-.823 2.874a13.5 13.5 0 0 0-.518 2.07 14 14 0 0 0-1.305-2.459v-.001c.255-.648.461-1.326.686-1.966.37-1.053.718-2.113 1.035-3.183.421-1.417.777-2.85 1.113-4.289.21 1.107.447 2.207.758 3.28m-.868-3.868q-.784 2.3-1.612 4.585-.547 1.522-1.1 3.042c-.19.525-.419 1.054-.629 1.589a4.8 4.8 0 0 0-1.064-.968c.005-.005.012-.003.017-.009a10.6 10.6 0 0 0 1.358-2.93 58 58 0 0 0 1.143-3.232c.549-1.682.99-3.39 1.378-5.111.166 1.007.327 2.021.509 3.034m-1.077-6.564q.24 1.552.497 3.101a116 116 0 0 1-1.788 5.162 97 97 0 0 1-1.22 3.09c-.132.321-.27.641-.404.962a8 8 0 0 0-.242-2.216c.237-.601.41-1.244.596-1.775.416-1.188.822-2.379 1.209-3.576a79 79 0 0 0 1.352-4.748m-.12-.796c-.684 1.727-1.362 3.455-1.985 5.21q-.611 1.723-1.216 3.448c-.06.17-.13.35-.202.532a53 53 0 0 1-.427-2.318c-.03-.183-.05-.369-.077-.553a.64.64 0 0 0 .243-.216 8.7 8.7 0 0 0 .659-1.69q.342-.984.672-1.97.642-1.919 1.24-3.85c.225-.728.41-1.47.602-2.21.015.119.025.239.04.358.133 1.09.288 2.175.45 3.26"/><path fill="currentColor" d="M169.708 307.666a3.3 3.3 0 0 0-1.282-.498 4.9 4.9 0 0 0-1.431.061 4.1 4.1 0 0 0-2.43 1.347c-.044.05.012.14.075.099a6.4 6.4 0 0 1 2.402-.987 5 5 0 0 1 1.27-.056 10 10 0 0 1 1.356.127.051.051 0 0 0 .04-.093m-48.478-25.601a.031.031 0 0 0-.054.032c.765 1.665 1.353 3.4 2.039 5.097a.055.055 0 0 0 .105-.03 13.3 13.3 0 0 0-2.09-5.099m4.64 5.328-.794-2.573c-.55-1.783-1.138-3.554-1.712-5.329a.05.05 0 0 0-.098.027c.515 1.792 1.017 3.587 1.556 5.372l.78 2.578a13.3 13.3 0 0 0 .88 2.562c.022.039.092.024.088-.024a13.3 13.3 0 0 0-.7-2.613m2.697 1.305-.84-3.121a588 588 0 0 0-1.69-6.115.05.05 0 0 0-.098.027 589 589 0 0 0 1.547 6.154l.78 3.014a16 16 0 0 0 .854 2.882.051.051 0 0 0 .095-.026 15 15 0 0 0-.648-2.815m2.821 2.601-.836-3.14c-.547-2.053-1.134-4.097-1.706-6.144a.055.055 0 0 0-.105.03c.502 2.065.99 4.136 1.517 6.196l.776 3.03a14.2 14.2 0 0 0 .884 2.888.043.043 0 0 0 .08-.021 13.6 13.6 0 0 0-.61-2.84m2.547 2.712c-.177-.772-.366-1.543-.548-2.314q-.539-2.272-1.095-4.54c-.018-.073-.129-.042-.113.032q.477 2.243.964 4.484.244 1.12.49 2.239a13 13 0 0 0 .588 2.213c.022.052.111.053.107-.015a12.4 12.4 0 0 0-.393-2.098m3.348 3.381a43 43 0 0 0-.52-2.06 39 39 0 0 0-1.383-4.105c-.023-.06-.118-.037-.098.027a91 91 0 0 1 1.173 4.163c.177.687.333 1.377.489 2.068a8.6 8.6 0 0 0 .527 1.988c.029.057.103.023.109-.03a6.8 6.8 0 0 0-.297-2.051m2.13 2.111q-.26-.977-.528-1.951a113 113 0 0 0-1.182-4.03.027.027 0 0 0-.053.015c.345 1.357.701 2.71 1.044 4.067q.248.98.487 1.963a7.5 7.5 0 0 0 .56 1.955.051.051 0 0 0 .095-.026 7 7 0 0 0-.423-1.993m2.407.289q-.167-.944-.374-1.881a39 39 0 0 0-1.073-3.837.043.043 0 0 0-.083.022 61 61 0 0 1 .91 3.806q.195.94.353 1.887a9.8 9.8 0 0 0 .367 1.952.059.059 0 0 0 .115-.016 7 7 0 0 0-.215-1.933m1.701-.265c-.01-.15-.032-.3-.053-.45a9.3 9.3 0 0 0-.965-3.012c-.03-.058-.115-.007-.088.052a9.7 9.7 0 0 1 .666 1.979 9 9 0 0 1 .165 1.012c.017.163.026.326.04.49a.65.65 0 0 0 .096.392.06.06 0 0 0 .092-.012.68.68 0 0 0 .047-.45m1.392-2.309a4.8 4.8 0 0 0-.428-1.124c-.036-.066-.136-.007-.101.06a5.35 5.35 0 0 1 .55 2.262.035.035 0 0 0 .07 0 3.8 3.8 0 0 0-.091-1.198m-2.251 6.303a.02.02 0 0 0-.038.01c.298 1.369.571 2.755.989 4.093a.027.027 0 0 0 .053-.014c-.245-1.381-.64-2.737-1.004-4.09m3.141 6.221-.423-1.85q-.415-1.815-.842-3.627c-.02-.089-.154-.051-.135.037q.371 1.791.748 3.58l.38 1.79a10 10 0 0 0 .46 1.766c.023.052.11.053.108-.015a9 9 0 0 0-.296-1.681m1.721 1.052c-.26-1.084-.59-2.155-.93-3.216a.055.055 0 0 0-.106.029c.292 1.057.537 2.124.786 3.192.248 1.06.393 2.163.722 3.202.02.065.126.057.123-.016a17.3 17.3 0 0 0-.595-3.19m2.094 3.639c-.104-.4-.218-.797-.328-1.194q-.326-1.17-.65-2.342a.043.043 0 0 0-.084.023l.578 2.362c.094.386.185.773.285 1.158a5.5 5.5 0 0 0 .33 1.115.063.063 0 0 0 .116-.032 5.3 5.3 0 0 0-.247-1.09m1.647.692-.598-1.928a.04.04 0 0 0-.076.021l.541 1.943a16 16 0 0 0 .602 1.926.035.035 0 0 0 .068-.018 16 16 0 0 0-.537-1.944m2.205 2.157-.52-1.037c-.032-.063-.123-.008-.094.055l.477 1.04a9 9 0 0 0 .521 1.013c.025.04.095.015.079-.033a9 9 0 0 0-.462-1.038m5.421 4.357q-.111-.13-.227-.258a14 14 0 0 0-.48-.521 52 52 0 0 1-.964-1.009c-.03-.034-.078.016-.05.05q.445.53.874 1.071.209.261.43.512.114.13.229.258a.8.8 0 0 0 .257.223.063.063 0 0 0 .092-.07.7.7 0 0 0-.161-.255m-77.736-47.016a11.1 11.1 0 0 0-3.191-1.186 32 32 0 0 0-3.452-.644c-.116-.017-.17.159-.05.18a33 33 0 0 1 3.34.816q.811.236 1.618.489a13.5 13.5 0 0 0 1.684.466.067.067 0 0 0 .051-.121m6.411-.326a49.3 49.3 0 0 0-13.085-4.18c-.049-.009-.07.065-.02.076a99 99 0 0 1 13.072 4.183c.045.017.076-.057.033-.079m4.53-.882a30.6 30.6 0 0 0-5.996-2.69 51 51 0 0 0-6.527-1.828c-.049-.01-.07.064-.02.075a60 60 0 0 1 6.374 1.951c2.086.765 4.074 1.75 6.139 2.564.042.016.066-.05.03-.072m2.268-1.221a28.9 28.9 0 0 0-7.607-2.936.05.05 0 0 0-.027.098 36 36 0 0 1 3.815 1.23c1.289.497 2.528 1.098 3.787 1.662.036.016.067-.033.032-.054m2.388-1.198c-1.108-.592-2.24-1.137-3.365-1.696-.023-.011-.043.022-.02.034 1.117.573 2.228 1.162 3.361 1.703.027.013.05-.026.024-.04m5.065.596c-.994-.485-2.003-.93-3.015-1.377-.09-.04-.17.095-.078.135 1.017.45 2.031.898 3.065 1.307.037.014.063-.047.028-.065m-24.996 3.779a20 20 0 0 0-3.936-1.049c-1.329-.279-2.678-.474-4.024-.649-.04-.005-.048.062-.01.07 1.353.252 2.694.557 4.036.86 1.295.29 2.583.724 3.9.892a.067.067 0 0 0 .034-.124m-4.615.776a8.5 8.5 0 0 0-3.59-.476c-.026.002-.026.04 0 .039a11.9 11.9 0 0 1 3.578.482.023.023 0 0 0 .012-.045m4.08-20.411c-2.085-.865-4.266-1.518-6.403-2.243-.052-.018-.074.064-.022.082 2.123.762 4.236 1.609 6.406 2.229.045.013.06-.051.019-.068m2.286-1.982a30 30 0 0 0-3.606-1.371q-1.886-.644-3.8-1.201a.04.04 0 0 0-.02.075q1.871.578 3.716 1.235c1.225.438 2.428.97 3.671 1.355.054.017.091-.067.04-.093m1.776-2.014c-1.64-.754-3.371-1.307-5.067-1.916-.024-.009-.033.028-.01.037 1.666.679 3.322 1.425 5.043 1.958.046.014.078-.058.033-.079m-17.336-89.428a32.6 32.6 0 0 0-9.875-7.81.106.106 0 0 0-.107.183 62.4 62.4 0 0 1 9.866 7.743.082.082 0 0 0 .116-.116m4.624.582a46 46 0 0 0-3.773-4.016 52 52 0 0 0-8.732-6.587c-.056-.034-.106.053-.051.088a48 48 0 0 1 8.56 6.87 55 55 0 0 1 3.624 4.017c1.132 1.39 2.175 2.86 3.35 4.212.046.053.119-.015.092-.071a22.2 22.2 0 0 0-3.07-4.513m-4.669-7.41c-.05-.04-.123.03-.072.072a39.3 39.3 0 0 1 5.418 5.352 68 68 0 0 1 4.495 6.354.055.055 0 0 0 .095-.055c-2.144-4.636-5.937-8.625-9.936-11.723m7.472 4.764c-.05-.056-.132.027-.082.083a52 52 0 0 1 5.136 7.113.031.031 0 0 0 .054-.031 37 37 0 0 0-5.107-7.165M186.504 12.475c-.133.924-.383 1.843-.561 2.761q-.249 1.293-.513 2.584c-.37 1.79-.797 3.573-1.152 5.366-.017.085.11.154.15.063a26 26 0 0 0 1.575-5.27q.263-1.332.406-2.68c.1-.943.072-1.879.118-2.821 0-.013-.021-.017-.023-.003m-3.74-1.805c-.59 3.143-1.18 6.285-1.796 9.424-.618 3.153-1.357 6.276-1.905 9.443a.09.09 0 0 0 .174.047 66 66 0 0 0 2.35-9.445 86 86 0 0 0 1.246-9.46.035.035 0 0 0-.07-.01M178.994 8.9c-1.202 4.721-2.36 9.447-3.408 14.205-.52 2.36-1.044 4.719-1.538 7.084a57 57 0 0 0-1.265 7.057c-.009.116.157.123.192.026a57 57 0 0 0 1.785-7.016c.53-2.358 1.03-4.722 1.533-7.085 1.01-4.736 1.906-9.488 2.762-14.254.007-.04-.05-.056-.06-.017m-5.519 2.774q-1.468 7.27-3.066 14.51c-.11.501-.256 1.014-.316 1.523-.046.397-.004.788-.069 1.189-.052.324-.126.65-.194.97-.258 1.21-.548 2.412-.826 3.616q-.418 1.807-.825 3.616a19 19 0 0 0-.674 3.431c-.003.098.154.152.196.053a18.4 18.4 0 0 0 .825-3.389q.382-1.815.738-3.64c.238-1.215.46-2.434.709-3.647a9 9 0 0 1 .547-1.867 8.3 8.3 0 0 0 .38-1.718q1.397-7.299 2.68-14.618c.013-.068-.09-.098-.105-.029m-5.592 6.386q-1.61 7.716-3.277 15.42-.405 1.88-.814 3.76c-.283 1.301-.398 2.625-.67 3.93-.52 2.505-1.449 5-1.642 7.556-.012.149.2.157.245.033a23.3 23.3 0 0 0 .892-3.87c.238-1.306.465-2.612.744-3.91.262-1.216.672-2.386.917-3.605q.392-1.949.78-3.898 1.53-7.68 2.961-15.378c.017-.088-.117-.126-.136-.037m-5.261 6.107c-2.128 9.493-4.153 19.01-6.29 28.5a52 52 0 0 1-2.073 7.355c-.027.07.088.118.122.051 2.06-4.064 2.68-8.729 3.6-13.145 1.008-4.849 2.037-9.694 3.022-14.547l1.665-8.201c.006-.03-.039-.042-.046-.013m-5.78 8.179c-2.17 9.48-4.356 18.957-6.406 28.463-.58 2.685-1.12 5.377-1.64 8.074-.013.064.082.091.098.027 2.335-9.44 4.318-18.97 6.324-28.486l1.7-8.057c.01-.05-.065-.07-.076-.021m-6.188 9.948c-1.802 9.211-3.658 18.415-5.34 27.65q-.718 3.932-1.32 7.882c-.01.068.09.1.105.03 2.027-9.168 3.591-18.436 5.246-27.676l1.407-7.86c.011-.063-.085-.09-.098-.026m-5.782 12.018c-1.525 8.24-3.046 16.484-4.328 24.767-.01.068.092.099.105.029 1.596-8.228 2.954-16.502 4.306-24.774.009-.053-.073-.077-.083-.022m-5.171 12.501c-.861 6.323-1.945 12.612-2.888 18.922-.009.059.078.086.09.025 1.34-6.245 2.195-12.588 2.929-18.93.008-.073-.12-.091-.13-.017m-3.908 12.544c-.275 2.903-.67 5.791-1.048 8.682-.005.039.062.048.07.009a87 87 0 0 0 1.048-8.69c.004-.046-.066-.045-.07 0m-14.782 20.637a69 69 0 0 1-1.507 7.466.043.043 0 0 0 .083.022 41 41 0 0 0 1.592-7.466c.012-.095-.155-.118-.168-.022m-2.753-2.288c-1.036 6.155-2.308 12.267-3.462 18.401-.01.059.075.085.09.025a169 169 0 0 0 3.47-18.4c.009-.063-.087-.092-.098-.026m-3.222 1.295c-1.156 7.297-2.654 14.51-4.256 21.72a.043.043 0 0 0 .083.023 130 130 0 0 0 4.219-21.737c.003-.026-.042-.032-.046-.006m-3.538 2.303q-1.15 5.548-2.309 11.093c-.767 3.696-1.638 7.403-2.15 11.145-.014.101.129.148.158.043 1.018-3.63 1.658-7.385 2.356-11.088q1.05-5.58 1.99-11.18c.006-.03-.038-.042-.045-.013m-4.563 7.411q-1.085 4.614-2.097 9.246a67 67 0 0 0-1.642 9.123c-.007.09.13.103.153.02.87-2.98 1.285-6.12 1.852-9.17q.857-4.609 1.817-9.196c.011-.054-.07-.077-.083-.023m-5.049 9.403a135 135 0 0 0-2.613 13.33c-.008.057.088.07.1.014.933-4.426 1.714-8.883 2.626-13.314.015-.073-.096-.105-.113-.03m-4.636 8.21a61 61 0 0 1-.811 7.912c-.009.053.07.078.083.023a36 36 0 0 0 .853-7.936.063.063 0 0 0-.125 0m5.499 277.003a3.4 3.4 0 0 1-.465 1.109 4 4 0 0 1-.337.483c-.134.158-.279.305-.411.463a.047.047 0 0 0 .057.073 2.33 2.33 0 0 0 .89-.883 3.3 3.3 0 0 0 .417-1.204c.015-.097-.13-.142-.15-.041M56.56 371.598a3.9 3.9 0 0 1-1.205.445c-.205.042-.417.077-.619.127l-.307.077a1 1 0 0 0-.26.112 1 1 0 0 0-.132.053c-.052.027-.091.072-.141.1a.5.5 0 0 0-.2.172.14.14 0 0 0 .02.166.5.5 0 0 0 .3.105 1.2 1.2 0 0 0 .272.045 1.2 1.2 0 0 0 .434-.057 3.6 3.6 0 0 0 .718-.328 7 7 0 0 0 .606-.401c.208-.143.409-.3.612-.448.1-.072.013-.233-.098-.168m-4.635 15.588c-.188.223-.37.45-.577.656q-.317.32-.624.647c-.201.211-.41.414-.595.638-.102.124-.208.245-.298.376a.75.75 0 0 0-.207.479.325.325 0 0 0 .404.308.68.68 0 0 0 .376-.31c.1-.126.189-.257.277-.392.165-.253.303-.52.45-.784.143-.256.286-.51.423-.77.14-.267.306-.518.47-.772.037-.06-.052-.13-.099-.076m-27.14-155.029c-.072-2.178.09-4.36-.005-6.542a140 140 0 0 0-.47-6.661c-.006-.064-.105-.067-.102 0 .1 2.221.06 4.44-.051 6.661a64 64 0 0 1-.449 6.764 6.5 6.5 0 0 0-.236 1.63 4 4 0 0 0 .142.493 4 4 0 0 1 .035.74c.06 1.152.076 2.3.02 3.453-.107 2.221-.349 4.434-.513 6.651-.002.03.043.03.047 0 .263-2.214.448-4.438.721-6.65.139-1.123.334-2.233.552-3.342a5 5 0 0 1 .203-.859 2.1 2.1 0 0 0 .191-.734c.016-.53-.067-1.074-.085-1.604m439.883 111.96q.28 4.415.648 8.823.182 2.172.373 4.344a19.5 19.5 0 0 1 .251 4.232c-.009.062-.096.049-.113 0a17.4 17.4 0 0 1-.506-4.108q-.19-2.232-.335-4.468-.289-4.409-.474-8.823c-.004-.1.15-.1.156 0m4.502 19.653c.199 1.186.415 2.369.631 3.552.106.58.216 1.159.319 1.74a3.65 3.65 0 0 1 .096 1.652.119.119 0 0 1-.214.028 3.5 3.5 0 0 1-.358-1.548c-.069-.608-.123-1.218-.185-1.826a239 239 0 0 0-.38-3.585c-.007-.052.083-.065.091-.013m1.73.264a90 90 0 0 0 .847 4.008q.232.962.475 1.921c.087.345.178.69.245 1.039a7 7 0 0 1 .048.96.09.09 0 0 1-.167.045 6 6 0 0 1-.429-.854c-.11-.338-.187-.687-.262-1.034a35 35 0 0 1-.375-2.027c-.21-1.344-.37-2.69-.452-4.049a.035.035 0 0 1 .07-.01m2.155 3.561c.467 1.798 1.006 3.575 1.504 5.365.012.045-.057.077-.079.033a15.6 15.6 0 0 1-1.47-5.392c-.003-.027.039-.031.045-.006m11.677-45.946c.634 2.23 1.443 4.405 2.072 6.635.016.058-.072.099-.1.042a26 26 0 0 1-2.07-6.65.05.05 0 0 1 .098-.027m1.88.483c.524 1.29 1.083 2.566 1.578 3.868q.356.936.698 1.879c.12.335.245.678.338 1.022a5 5 0 0 1 .095.452 3.4 3.4 0 0 1 .013.507c.005.13-.16.152-.225.062a3.3 3.3 0 0 1-.348-.496 6 6 0 0 1-.157-.354 15 15 0 0 1-.358-1.016q-.307-.95-.595-1.908c-.4-1.323-.736-2.665-1.107-3.997-.012-.045.051-.06.068-.019m2.488.789a26.5 26.5 0 0 0 1.424 3.863q.42.91.906 1.788l.451.822a4 4 0 0 1 .25.475c.058.15.05.29.096.442a.11.11 0 0 1-.183.107 4 4 0 0 1-.338-.3 3 3 0 0 1-.277-.46 14 14 0 0 1-.478-.96q-.398-.88-.734-1.784a28.4 28.4 0 0 1-1.147-3.985.016.016 0 0 1 .03-.008m3.364 2.794q.461 1.326.988 2.628c.176.435.367.863.543 1.297q.131.325.265.649a1.5 1.5 0 0 1 .133.6.067.067 0 0 1-.114.046 1.3 1.3 0 0 1-.31-.463q-.133-.324-.261-.65c-.176-.448-.325-.909-.475-1.367q-.443-1.353-.814-2.728a.023.023 0 0 1 .045-.012m2.816 1.989a9 9 0 0 1 .866 1.239 5.6 5.6 0 0 1 .559 1.403c.011.045-.056.078-.079.033-.22-.442-.453-.88-.687-1.315a11 11 0 0 0-.782-1.265c-.051-.072.067-.164.123-.095m28.085-9.518a80 80 0 0 1 5.95-5.797c1.958-1.942 3.944-3.907 5.79-5.957.052-.058.158.021.11.086-.817 1.099-1.59 2.215-2.482 3.258q-1.386 1.625-2.894 3.137a28.1 28.1 0 0 1-6.399 5.371.063.063 0 0 1-.075-.098m-.519-2.947c.51-.345 1.01-.698 1.497-1.073a20.6 20.6 0 0 0 2.767-2.582c.808-.9 1.626-1.784 2.454-2.665.845-.901 1.765-1.73 2.595-2.643.041-.045.124.016.086.066-.716.953-1.373 1.933-2.182 2.814a27 27 0 0 1-2.758 2.622 58 58 0 0 0-2.813 2.43q-.676.63-1.351 1.262a3.2 3.2 0 0 1-1.346.942.107.107 0 0 1-.119-.155 3.3 3.3 0 0 1 1.17-1.018m-2.328-1.553c.32-.26.642-.516.96-.777q1.005-.83 1.976-1.7 1.912-1.716 3.69-3.574c.017-.018.044.009.027.028a60 60 0 0 1-3.58 3.78q-.911.88-1.857 1.721a37 37 0 0 1-.982.852 2.6 2.6 0 0 1-.974.627.087.087 0 0 1-.097-.126 2.9 2.9 0 0 1 .837-.831m-3.295-.798a5.3 5.3 0 0 1 1.492-1.032 31 31 0 0 0 1.572-1.053 25 25 0 0 0 2.973-2.452.05.05 0 0 1 .072.072 23 23 0 0 1-2.855 2.711c-.497.391-1.013.753-1.545 1.094a3.75 3.75 0 0 1-1.657.786c-.071.005-.087-.08-.052-.126m-2.15-1.78c.345-.215.706-.382 1.064-.57.368-.195.723-.412 1.073-.636a11 11 0 0 0 1.937-1.578c.057-.058.143.03.089.089a12.6 12.6 0 0 1-1.878 1.674 6.3 6.3 0 0 1-2.237 1.135.063.063 0 0 1-.048-.114m-1.253-2.507 1.271-.775a.027.027 0 0 1 .028.048l-1.276.767a.023.023 0 0 1-.024-.04m12.621-85.507a.078.078 0 0 1 .156 0c.2 4.994.67 9.99 1.048 14.974a15 15 0 0 0 .178 1.78 14 14 0 0 1 .427 1.928c.069 1.232-.044 2.472.004 3.707.099 2.512.305 5.023.51 7.528.229 2.794.429 5.577.548 8.378.004.1-.158.124-.177.024-.917-4.907-1.357-9.859-1.876-14.819-.132-1.258-.333-2.499-.523-3.747a6 6 0 0 1-.13-1.658 13 13 0 0 0 .156-2.008c-.074-2.516-.24-5.028-.276-7.545-.04-2.848-.004-5.695-.045-8.542m-66.239-44.196c1.94-1.387 3.923-2.711 5.893-4.054.017-.011.033.016.016.027-1.956 1.364-3.899 2.748-5.885 4.067-.026.017-.048-.023-.024-.04m-6.994 10.351a30.4 30.4 0 0 1 4.23-3.104q2.222-1.467 4.455-2.916c3.018-1.945 6.051-3.865 9.073-5.804.034-.022.064.03.031.054-2.917 2.037-5.82 4.093-8.742 6.124q-2.138 1.487-4.295 2.946a31.7 31.7 0 0 1-4.643 2.842c-.087.039-.189-.066-.109-.142m-9.944 12.085a10.4 10.4 0 0 1 2.243-2.134q1.317-1.016 2.653-2.006a142 142 0 0 1 17.001-10.845q3.385-1.827 6.849-3.502c.026-.013.05.026.023.04a194 194 0 0 0-22.636 14.39q-1.48 1.085-2.935 2.203a14 14 0 0 1-3.061 2.031c-.097.04-.194-.095-.137-.177m-4.505 7.674q2.545-1.935 5.133-3.813c.91-.663 1.826-1.318 2.7-2.03a21 21 0 0 1 2.418-1.834c3.61-2.185 7.101-4.556 10.718-6.73q3.094-1.86 6.229-3.65a.05.05 0 0 1 .05.087c-3.652 2.197-7.241 4.5-10.795 6.853-1.746 1.156-3.497 2.31-5.16 3.583a15 15 0 0 1-2.51 1.731 21 21 0 0 0-2.812 1.79c-1.972 1.377-3.906 2.812-5.83 4.256-.145.108-.284-.135-.141-.243m5.335.433q1.035-.685 2.081-1.353 2.044-1.305 4.13-2.54 4.225-2.502 8.605-4.727c.027-.013.05.027.023.04q-4.288 2.265-8.423 4.804-2.015 1.24-3.99 2.544-1.037.685-2.062 1.386a6.2 6.2 0 0 1-1.923 1.186.063.063 0 0 1-.07-.092 5.1 5.1 0 0 1 1.63-1.248m-7.684 5.66a9 9 0 0 1 1.393-1.01q.736-.486 1.469-.975c.063-.042.12.058.059.101l-1.417 1.006a9 9 0 0 1-1.453.946c-.042.018-.089-.031-.052-.068m-2.104 5.49c.746-.614 1.515-1.2 2.279-1.791a216 216 0 0 1 4.702-3.514c3.243-2.372 6.582-4.62 9.919-6.857.017-.012.032.015.016.027-3.15 2.257-6.227 4.605-9.3 6.966-1.578 1.212-3.144 2.44-4.714 3.661-.731.57-1.456 1.146-2.188 1.713a10.7 10.7 0 0 0-1.987 1.599c-.063.08-.2-.007-.17-.099a3.9 3.9 0 0 1 1.443-1.705m-3.416 7.65a23 23 0 0 1 3.408-3.076q1.717-1.386 3.511-2.673a70 70 0 0 1 7.827-4.812.02.02 0 0 1 .02.033 87 87 0 0 0-7.608 4.966q-1.89 1.371-3.695 2.857c-1.128.929-2.181 1.976-3.388 2.804-.062.043-.118-.047-.075-.098m-1.361 5.779a29.6 29.6 0 0 1 5.413-4.3 66 66 0 0 1 6.075-3.656.043.043 0 0 1 .043.074q-3.007 1.782-5.864 3.81c-1.892 1.344-3.645 2.914-5.6 4.158-.055.034-.107-.042-.067-.086m-3.054 6.65a48.4 48.4 0 0 1 8.48-6.324c.035-.021.065.032.032.054-2.932 1.968-5.637 4.222-8.455 6.343-.043.032-.094-.037-.057-.074"/><path fill="currentColor" d="M349.188 6.025c.887 1.404 1.78 2.801 2.704 4.181q11.268 16.85 22.734 33.566 11.436 16.655 23.002 33.219l23.186 33.302c3.5 5.027 6.806 10.464 11.468 14.52 2.238 1.948 4.707 3.612 6.911 5.6a25.4 25.4 0 0 1 5.16 6.51c2.908 5.203 4.467 11.106 6.403 16.71 2.12 6.135 4.366 12.222 6.595 18.318a39 39 0 0 1-.549 2.262 32.4 32.4 0 0 1-7.207 12.746c-3.343 3.795-7.146 7.175-10.273 11.162a51.4 51.4 0 0 0-7.263 13.53c-1.88 4.896-3.432 9.91-5.443 14.757a114 114 0 0 1-6.743 13.568 115.2 115.2 0 0 1-18.677 24.104c-3.732 3.68-7.937 6.942-11.1 11.158-3.249 4.328-5.069 9.51-7.282 14.396a177 177 0 0 1-16.421 28.661c-1.411 2.01-2.894 4.245-2.917 6.793a6.2 6.2 0 0 0 2.213 4.8c2.834 2.37 7.04 2.642 10.538 2.04a36.9 36.9 0 0 0 13.582-5.471 43.7 43.7 0 0 0 10.938-10.543c3.133-4.134 5.88-8.55 9.21-12.536a74.3 74.3 0 0 1 22.45-18.116 118 118 0 0 1 6.534-3.188c1.12-.504 2.224-1.032 3.338-1.546.636-.293 1.29-.63 1.952-.932a55 55 0 0 1 11.982 3.015c4.33 1.484 8.648 3.013 12.855 4.823 3.361 1.447 6.574 3.144 9.787 4.87a10 10 0 0 0-.138 1.134c-.276 3.02-.417 6.049-.745 9.066a142 142 0 0 1-2.711 15.885 13.4 13.4 0 0 1-1.247 3.695c-.66 1.176-1.458 2.28-2.206 3.4l-4.554 6.825-9.245 13.857a40.5 40.5 0 0 0-3.73 6.423 11.7 11.7 0 0 0-1.008 3.46c-.012.121-.004.237-.008.356a15.4 15.4 0 0 0-4.464 3.325q-2.49 2.286-4.843 4.714a128 128 0 0 0-7.858 8.92 59.5 59.5 0 0 1-7.715 8.494c-4.293 3.619-10.322 6.552-12.71 11.895a32 32 0 0 0-5.265 5.146 30.9 30.9 0 0 0-4.532 7.832 12.5 12.5 0 0 0-1.123 4.517 5.5 5.5 0 0 0 1.575 3.822 7.6 7.6 0 0 0 3.562 2.017 6 6 0 0 0 1.333.178 11 11 0 0 0 2.56.082.327.327 0 0 0 .09.58 9.6 9.6 0 0 0 3.312.412c1.159-.067 2.316-.18 3.473-.273l6.698-.536 13.396-1.071 5.953-.476a25.8 25.8 0 0 0 5.571-.837 23 23 0 0 0 4.851-2.307c1.604-.95 3.199-1.917 4.815-2.847a226 226 0 0 1 20.401-10.412 69 69 0 0 1 10.685-4.068c2.896-.753 5.97-1.185 8.597-2.709a9.1 9.1 0 0 0 3.22-3.108 10.7 10.7 0 0 0 1.067-2.515.2.2 0 0 0 .228-.084 161 161 0 0 0 2.261-3.961c2.963-5.337 5.253-11.044 7.728-16.616l7.521-16.932 7.452-16.777c2.232-5.025 4.24-10.352 7.567-14.783 1.517-2.021 3.387-3.747 4.932-5.748a14.1 14.1 0 0 0 2.97-6.915 27 27 0 0 0-.514-8.202c-.523-2.91-1.105-5.81-1.645-8.718-2.203-11.864-4.16-23.772-6.236-35.657q-.817-4.677-1.554-9.37l-.014-.244c-.244-3.707-.462-7.419-.804-11.118-1.224-13.243-2.283-26.536-4.55-39.651q-.824-4.775-1.849-9.512a121 121 0 0 0-1.482-6.008q-.652-5.085-1.185-10.186c-.536-5.079-1.077-10.163-1.482-15.254a59 59 0 0 0-.83-7.425 25.8 25.8 0 0 0-2.61-6.71c-.51-.968-1.05-1.918-1.589-2.869-.149-.67-.292-1.34-.448-2.009-1.075-4.606-2.021-9.226-3.363-13.767-1.325-4.486-2.83-8.918-4.375-13.333-3.106-8.883-6.487-17.667-10.036-26.381-3.554-8.726-7.275-17.384-11.065-26.01-3.84-8.738-7.717-17.462-11.695-26.138-4.106-8.955-8.158-17.958-12.696-26.705-.105-.203-.452-.058-.371.157.428 1.133.894 2.25 1.325 3.382 1.735 4.554 3.676 9.035 5.598 13.512 1.96 4.566 3.908 9.138 5.916 13.683 3.82 8.648 7.684 17.277 11.467 25.941 3.77 8.635 7.46 17.307 10.965 26.053 3.485 8.692 6.793 17.456 9.82 26.318q2.288 6.702 4.477 13.444c.714 2.211 1.58 4.37 2.3 6.58.344 1.052.673 2.11 1.008 3.164a54 54 0 0 1-.69-1.3 141 141 0 0 1-3.1-6.563c-1.994-4.476-3.594-9.15-5.784-13.528-.017-.033-.065-.01-.058.024a78 78 0 0 0 2.427 7.957c.9 2.58 1.834 5.151 2.849 7.69q1.342 3.358 2.904 6.627c1.041 2.18 2.202 4.3 3.24 6.48a22.2 22.2 0 0 1 1.996 6.763c.316 2.457.425 4.942.644 7.409.405 4.57 1.001 9.106 1.743 13.617-.335-1.094-.67-2.19-1.022-3.278a70 70 0 0 0-3.374-9.01c-.037-.075-.144-.018-.129.055.74 3.589 1.872 7.093 2.815 10.634q1.387 5.205 2.544 10.468c1.376 6.27 2.647 12.58 3.679 18.915 1.054 6.468 1.803 12.976 2.448 19.496q.124 1.27.242 2.539c.083 1.376.21 2.744.31 4.12.228 3.131.582 6.262.973 9.388.134 1.313.267 2.627.414 3.939.741 6.62 1.605 13.23 2.664 19.806.003.02.018.027.027.041l.335 2.522c1.569 11.875 3.803 23.688 6.027 35.455.964 5.102 2.868 11.211.356 16.153a29 29 0 0 1-4.61 5.888 34.4 34.4 0 0 0-4.52 6.398c-2.743 4.997-4.842 10.384-7.154 15.588l-7.452 16.777-7.383 16.621c-2.091 4.709-4.097 9.401-5.766 14.258q.593-2.508 1.182-5.016a39 39 0 0 0 1.149-5.814.102.102 0 0 0-.19-.05 42 42 0 0 0-2.176 6.037c-.662 2.04-1.294 4.092-1.983 6.123a10.64 10.64 0 0 1-2.494 4.439c-.032.03-.07.052-.101.08q.045-.183.089-.387a2.08 2.08 0 0 0-.14-1.366.52.52 0 0 0-.446-.255c-1.327-.054-2.245-1.466-2.884-2.464-.925-1.444-1.853-2.879-2.863-4.265a.031.031 0 0 0-.054.032c.828 1.686 1.718 3.356 2.704 4.957a6.45 6.45 0 0 0 2.535 2.532 2.35 2.35 0 0 0 .181.956 8 8 0 0 1 .316.712c-.064.047-.12.103-.185.148-.711-.7-1.496-1.333-2.239-1.996a38 38 0 0 1-2.755-2.76c-.034-.037-.086.018-.055.056a76 76 0 0 0 2.586 3.06 18.5 18.5 0 0 0 1.946 1.96 13 13 0 0 1-2.734 1.203c-1.425.455-2.891.767-4.346 1.111a45 45 0 0 0-4.908 1.46c-3.558 1.29-7.018 2.878-10.447 4.474q-10.172 4.737-19.84 10.469c-1.495.886-2.963 1.83-4.517 2.61q-.611.307-1.239.55c-.086-.143-.182-.282-.253-.429-.148-.305-.254-.626-.38-.94-.458-1.138-1.032-2.222-1.516-3.348a15.7 15.7 0 0 0 4.236-2.312c2.803-2.095 5.251-4.6 8.11-6.633 3.122-2.221 6.436-4.163 9.71-6.15l10.53-6.389a113 113 0 0 1 10.047-5.639c.6-.285 1.205-.565 1.786-.877.054-.01.11-.013.163-.024a.29.29 0 0 0 .218-.193 7.5 7.5 0 0 0 2.2-1.821 10 10 0 0 0 1.565-3.211c.957-1.408 1.95-2.792 2.826-4.252 1.154-1.924 2.141-3.956 3.188-5.94l6.294-11.927 11.189-21.203c1.84-3.488 3.66-6.988 5.524-10.464a25.5 25.5 0 0 1 2.785-4.39 40 40 0 0 1 3.534-3.408 11.01 11.01 0 0 0 3.98-8.727c.073-3.594-.819-7.22-1.46-10.736-.713-3.9-1.548-7.782-2.328-11.669-.39-1.943-.784-3.886-1.198-5.825l-.623-2.906c-.207-.968-.504-1.91-.717-2.88-.04-.183-.355-.143-.33.045.143 1.095.199 2.19.347 3.285l.437 3.214c.302 2.222.638 4.439.968 6.657.647 4.35 1.277 8.704 1.998 13.042.54 3.237 1.401 6.68.708 9.959a8.6 8.6 0 0 1-2.175 4.154c-1.105 1.189-2.394 2.184-3.544 3.326-2.504 2.487-4.02 5.736-5.646 8.818l-5.595 10.601-11.075 20.982-5.479 10.38c-.663 1.257-1.344 2.507-1.974 3.782a44 44 0 0 0 1.164-6.904c.015-.191-.272-.215-.322-.044a121 121 0 0 1-4.052 12.274 7.85 7.85 0 0 1-3.085 4.053c-.35-.42-.884-.732-1.161-1.205a2.7 2.7 0 0 0-.27-.576 2.4 2.4 0 0 0-.837-.474c-.601-.253-1.232-.395-1.839-.638a8.36 8.36 0 0 1-3.228-2.232 25 25 0 0 1-2.293-3.223.05.05 0 0 0-.088.051 17.1 17.1 0 0 0 4.305 5.548c.531.398 1.122.68 1.672 1.043a5.9 5.9 0 0 0 1.688.99c.257.06.474-.051.724.03a1.9 1.9 0 0 1 .795.584c.083.09.156.184.229.279a34 34 0 0 1-1.517.786 14 14 0 0 1-2.14-.547c-.756-.26-1.46-.622-2.196-.93-.344-.144-.702-.237-1.05-.369a6 6 0 0 1-1.148-.647c-.053-.035-.11.044-.066.086a17 17 0 0 0 1.826 1.68 9 9 0 0 0 2.304 1.053c.349.118.719.232 1.099.335a50 50 0 0 0-2.429 1.208c-3.356 1.821-6.595 3.86-9.858 5.84l-10.07 6.113a94 94 0 0 0-9.25 6.186c-2.585 2.027-4.844 4.532-7.708 6.182-.243.14-.492.245-.74.361a11 11 0 0 0-.875-1.211 96 96 0 0 0-2.575-3.078 40 40 0 0 1-2.642-3.48 21 21 0 0 1-2.233-3.369.273.273 0 0 0-.371-.097c-2.042 1.161.465 3.81 1.196 4.955.678 1.063 1.305 2.166 1.952 3.248.304.509.629 1.005.933 1.514a5.1 5.1 0 0 0 .987 1.448.357.357 0 0 0 .557-.43 4.9 4.9 0 0 0-.933-1.073 19 19 0 0 1-1.003-1.178 25 25 0 0 1-1.86-2.736 13 13 0 0 1-1.252-3.023 4 4 0 0 1-.362-2.014 27 27 0 0 1 2.24 2.984c.771 1.059 1.54 2.113 2.205 3.243.664 1.126 1.316 2.25 2.012 3.357.298.474.595.94.936 1.384-2.724.938-5.676.844-8.553 1.254a67.7 67.7 0 0 0-11.138 2.916l-1.216.392a3.35 3.35 0 0 0-.792-1.373 4.1 4.1 0 0 0-1.419-.949 3.36 3.36 0 0 0-1.854-.177 71 71 0 0 0-8.652 2.137c-.03.007-.017.05.012.045 2.427-.417 4.87-.827 7.322-1.063a3.8 3.8 0 0 1 1.72.164 6.5 6.5 0 0 1 1.424.55 2.7 2.7 0 0 1 .962 1.078q-4.413 1.424-8.827 2.846a39 39 0 0 1-5.328 1.395l-.289.046a3.7 3.7 0 0 0-.16-.904 2.9 2.9 0 0 0-.439-.875 2 2 0 0 0-.179-.225c-.05-.05-.115-.087-.17-.134a.5.5 0 0 0-.383-.177 3 3 0 0 0-.194-.136c-.103-.066-.195.077-.123.16q.065.076.126.157a.53.53 0 0 0 .094.337c.064.121.105.254.162.38a4.5 4.5 0 0 1 .242.726 2.7 2.7 0 0 1 .066.844c-.148.022-.292.05-.44.07-.788-.24-1.603-.392-2.378-.672a4.65 4.65 0 0 1-2.827-2.534c-.578-1.556.146-3.337.7-4.796a27.6 27.6 0 0 1 2.026-4.189 28.4 28.4 0 0 1 5.322-6.557 59 59 0 0 1 7.445-5.5 63 63 0 0 1 7.79-4.633 24 24 0 0 1 4.24-1.526 8 8 0 0 0 2-.706 7.8 7.8 0 0 0 1.625-1.423 14.3 14.3 0 0 1 3.55-2.378q2.024-1.093 4.012-2.253 3.88-2.271 7.599-4.806 3.82-2.604 7.45-5.472a118 118 0 0 0 3.474-2.853c.624-.532 1.273-1.054 1.856-1.632.16-.159.365-.34.534-.53.018.25.03.501.069.755a12.9 12.9 0 0 0 1.257 4.225c.112.203.385.054.35-.147a15 15 0 0 1-.335-2.64 11.4 11.4 0 0 1 .292-2.434 43 43 0 0 1 1.21-4.735c1.065-3.031 2.377-5.988 3.584-8.964q1.83-4.515 3.651-9.035c1.232-3.049 2.472-6.095 3.67-9.158a31 31 0 0 1 1.444-3.325 12 12 0 0 1 .961-1.53c.154-.204.29-.38.41-.562q.115.127.234.25c.83.852 1.722 1.64 2.522 2.528.157.174.418-.05.313-.241-.616-1.137-1.093-2.332-1.675-3.481-.518-1.023-1.145-1.835-.958-3.037.168-1.084.482-2.152.687-3.231.21-1.107.38-2.22.524-3.336a51 51 0 0 0 .424-6.675c-.006-2.059-.119-4.118-.051-6.177a28 28 0 0 1 .258-3.076c.059-.402.135-.802.198-1.203.856.858 1.72 1.708 2.606 2.534q2.179 2.034 4.457 3.964c1.489 1.259 2.946 2.626 4.518 3.78.141.102.275-.113.175-.228-1.317-1.52-2.812-2.93-4.205-4.384-1.345-1.405-2.682-2.817-4.045-4.203-1.346-1.369-2.722-2.707-4.09-4.052a21.1 21.1 0 0 0 7.67 1.725.173.173 0 0 0 .045-.337 29.8 29.8 0 0 1-6.744-2.717c-2.113-1.097-4.174-2.284-6.23-3.485-7.982-4.664-16.832-7.918-25.62-10.705a34 34 0 0 0-6.837-1.562 35 35 0 0 0-6.444.074 31.5 31.5 0 0 0-6.262 1.142 29 29 0 0 0-5.85 2.584c-.058.033-.007.113.052.088a35 35 0 0 1 7.087-2.115 29 29 0 0 1 5.918-.607 28 28 0 0 0-2.978.857 70.6 70.6 0 0 0-24.075 15.136 77.4 77.4 0 0 0-9.608 10.953c-3.07 4.217-5.858 8.667-9.412 12.508a36.9 36.9 0 0 1-12.046 8.637c-3.813 1.704-8.321 3.179-12.546 2.524a7.76 7.76 0 0 1-4.603-2.106c-1.446-1.575-1.233-3.785-.347-5.591.06-.123.137-.238.2-.36a3.3 3.3 0 0 1 1.816-.466 4.1 4.1 0 0 1 1.858.538 8 8 0 0 1 1.787 1.407c.538.55 1.153 1.027 1.722 1.545a.04.04 0 0 0 .061-.047 9.1 9.1 0 0 0-1.332-2.39A6.05 6.05 0 0 0 370.3 321a4.85 4.85 0 0 0-3.162-.344c1.035-1.665 2.273-3.231 3.355-4.843 1.033-1.539 2.03-3.1 3.014-4.67a2 2 0 0 0 .54-.168 7 7 0 0 1 2.193-.54 12.7 12.7 0 0 1 2.176.056c-.124.07-.248.145-.38.236a.051.051 0 0 0 .039.093 1.2 1.2 0 0 1 .293-.008l.132.132a.023.023 0 0 0 .033-.033l-.087-.088a3.74 3.74 0 0 1 1.629.845 2.94 2.94 0 0 1 1.077 1.692c.39 1.604-.292 3.187-.833 4.675a14.7 14.7 0 0 1-5.814 7.053c-.033.023-.002.077.032.054a17.6 17.6 0 0 0 4.002-3.587 20.6 20.6 0 0 0 2.96-4.39c.737-1.63 1.284-3.88.274-5.511a3 3 0 0 0-1.812-1.412 1.97 1.97 0 0 0-1.422.182c-.004-.007 0-.016-.008-.02a4.67 4.67 0 0 0-2.422-.674 6 6 0 0 0-1.915.305c.254-.412.515-.82.766-1.235q4.214-6.978 7.764-14.33c2.337-4.84 4.17-9.96 6.782-14.66 2.628-4.73 6.55-8.2 10.47-11.831a116 116 0 0 0 10.407-10.989 117.4 117.4 0 0 0 16.051-25.298c2.142-4.592 3.894-9.323 5.571-14.1a77.4 77.4 0 0 1 6.203-14.391c5.136-8.56 14.17-14.073 18.509-23.192 3.98-8.366 4.197-18.925-.44-27.094-.084-.148-.336-.047-.279.118a40.6 40.6 0 0 1 1.773 6.84 32.2 32.2 0 0 1-.251 11.247c-.319-1.114-.638-2.227-.948-3.343-1.793-6.463-3.742-12.9-5.781-19.29-1.71-5.358-3.4-10.897-6.676-15.545-3.426-4.86-8.88-7.58-12.872-11.886a66 66 0 0 1-5.608-7.283q-2.89-4.148-5.778-8.298l-23.19-33.3q-11.646-16.724-23.402-33.368-5.86-8.293-11.795-16.534c-3.948-5.504-7.852-11.051-11.966-16.433-.139-.182-.447-.02-.317.185m80.634 407.941a1.97 1.97 0 0 0-.802-1.093c1.424-.457 2.847-.916 4.273-1.365a49.7 49.7 0 0 1 11.38-2.425 24 24 0 0 0 5.71-.844l.014-.006c.246.92.447 1.847.665 2.775.125.535.314 1.05.45 1.58a4 4 0 0 1 .114.663 16 16 0 0 1-2.808.567c-3.914.432-7.862.648-11.787.962l-7.543.603a2 2 0 0 0 .111-.153 1.64 1.64 0 0 0 .223-1.264m-11.31 2.295q.941-.296 1.872-.598l.498-.16a.088.088 0 0 0 .121.06c.214-.112.437-.206.654-.312l6.826-2.206c.035.037.077.07.111.107a1.86 1.86 0 0 1 .496.85 2 2 0 0 1 .004.212l-.011.113-.008.063a2 2 0 0 1-.055.218q-.009.027-.02.053.022-.049.004-.01a1 1 0 0 1-.06.113q-.027.046-.059.09c.039-.056-.01.014-.025.031a1 1 0 0 1-.073.075l-.038.034c-.075.05-.093.067-.039.04l-.029.018a1 1 0 0 1-.107.052q-.034.016.007-.003l-.075.028a.45.45 0 0 0-.153.11.37.37 0 0 0-.085.242l-2.897.232-5.953.476zm6.128-29.096q-.064.256-.107.519c-1.196.742-2.39 1.494-3.566 2.277q1.126-.923 2.299-1.794.684-.505 1.374-1.002m3.114-2.302-.011.059q-.061.464-.08.924-1.16.62-2.282 1.304.043-.291.075-.582l.187-.137a.042.042 0 0 0 .067.05.22.22 0 0 0 .064-.145q.998-.726 1.98-1.473m2.433-1.978c-.034.223-.075.445-.098.67-.04.381-.058.766-.076 1.15-.612.27-1.219.552-1.814.859q.02-.276.044-.554.027-.283.059-.566a45 45 0 0 0 1.885-1.559m52.531-84.287c-.68-1.824-1.42-3.612-2.19-5.395l.431.231c.2.107.4.208.6.312.158.164.305.31.41.43.64.732 1.313 1.438 1.992 2.134l.537.543a3.4 3.4 0 0 0-.322.604 10 10 0 0 0-.509 1.686c-.097.433-.166.872-.225 1.312-.246-.627-.496-1.248-.724-1.857m.527 4.2c-.02.479-.028.957-.033 1.435-.34-.793-.682-1.585-1.008-2.384-.72-1.761-1.461-3.516-2.172-5.28.02-.439.052-.877.067-1.315.023-.647.034-1.29.02-1.937 0-.046-.017-.184-.036-.353l.192.103c.553 1.961 1.14 3.904 1.795 5.837.393 1.155.746 2.389 1.193 3.572zm-.03 6.276q-.572-1.533-1.155-3.063l-2.25-5.86c.034-.423.074-.845.103-1.268.037-.544.055-1.09.084-1.634a44 44 0 0 0 1.579 5.007c.382.983.774 1.965 1.198 2.93.14.319.286.649.44.978.007.97.019 1.94.001 2.91m-.896 3.844q-.517-1.474-1.057-2.94c-.585-1.597-1.298-3.142-1.939-4.714.178-1.543.323-3.09.45-4.638a133 133 0 0 0 1.65 5.687q.57 1.797 1.216 3.572c.153.42.302.915.484 1.398a54 54 0 0 1-.269 3.195l-.01-.028c-.162-.515-.346-1.023-.525-1.532m-49.523 67.427a19 19 0 0 0-.223 1.549 17 17 0 0 0-.106 1.875c-.697.23-1.387.481-2.064.767q.025-.466.056-.934.034-.507.064-1.014c.169-.151.344-.296.51-.451a37 37 0 0 0 1.763-1.792m2.466-2.831c-.113 1.06-.223 2.119-.315 3.18a10.2 10.2 0 0 0-.126 2.026 1.5 1.5 0 0 0 .082.34c-.385.132-.79.222-1.178.323-.31.081-.613.187-.92.282l.007-.116c.03-.513.05-1.026.09-1.537q.073-.987.19-1.972a65 65 0 0 0 2.17-2.526m2.327-2.868a49 49 0 0 0-.356 2.777q-.133 1.385-.225 2.774c-.028.423-.068.86-.085 1.295a11 11 0 0 1-1.223 1.175 2.6 2.6 0 0 1-.511.285 2.4 2.4 0 0 1-.064-.803c.04-.68.1-1.358.149-2.036.067-.937.116-1.875.165-2.813q1.08-1.323 2.15-2.654m2.399-2.857a87 87 0 0 0-.507 3.591c-.172 1.486-.342 3-.382 4.509a14 14 0 0 0-1.72 1.182l-.034.03c.01-.304.02-.608.036-.904q.076-1.337.19-2.671c.092-1.073.194-2.145.29-3.217q.387-.48.775-.956c.438-.532.905-1.04 1.352-1.564m2.25-2.55a54 54 0 0 0-.362 3.325 55 55 0 0 0-.153 3.39 21 21 0 0 0 .025 2.45c-.146.08-.288.168-.435.248-.556.303-1.113.603-1.662.915.138-1.312.219-2.634.323-3.941.11-1.403.219-2.81.34-4.214.63-.734 1.28-1.452 1.924-2.174m2.886-3.135a53 53 0 0 0-.654 4.558 32 32 0 0 0-.11 6.241c-.765.444-1.528.894-2.301 1.324.029-.757-.014-1.525-.002-2.274a73 73 0 0 1 .466-7.038q1.28-1.425 2.6-2.81m2.267-2.288a171 171 0 0 0-.5 5.566c-.148 2.053-.286 4.128-.282 6.192q-1.035.622-2.078 1.231c.152-1.962.159-3.937.29-5.902.111-1.671.293-3.342.503-5.007.41-.428.816-.86 1.234-1.28.272-.273.56-.53.833-.8m2.485-2.387a74.7 74.7 0 0 0-.763 12.594q-1.155.737-2.327 1.446c.156-2.025.225-4.061.34-6.087.107-1.893.243-3.784.378-5.675a170 170 0 0 1 2.372-2.278m25.584-37.913c.247 1.84.481 3.685.873 5.502.19.88.389 1.756.608 2.63.132.522.25 1.085.416 1.624q-.575 1.404-1.152 2.806c-.71-3.233-2.096-8.657-2.264-9.342-.02-.084-.143-.048-.128.035.501 2.783.941 5.573 1.519 8.342.142.683.277 1.368.427 2.05-.392.962-.793 1.92-1.184 2.883-.05-.273-.102-.537-.14-.778a76 76 0 0 0-.507-2.933c-.396-2.026-.903-4.016-1.391-6.02-.016-.064-.11-.036-.098.027.376 1.995.65 4.015.947 6.024.15 1.022.304 2.044.45 3.067.08.553.113 1.221.247 1.829l-1.161 2.867c-.073-.412-.15-.822-.217-1.221-.175-1.062-.342-2.126-.53-3.185q-.586-3.298-1.176-6.595c-.005-.03-.057-.023-.053.007q.438 3.318.872 6.636c.131 1.004.284 2.005.429 3.007.104.724.18 1.49.318 2.233l-.8 1.981c-.18-1.073-.45-2.143-.664-3.2-.603-2.964-1.24-5.922-1.863-8.883-.012-.06-.1-.033-.09.025.393 2.252.761 4.509 1.17 6.758l.6 3.31c.038.206.37 1.775.566 2.686l-.932 2.307c-.273.674-.557 1.349-.84 2.024 0-.691-.034-1.383-.062-2.059a75 75 0 0 0-.307-4.227 71 71 0 0 0-1.35-8.279c-.016-.07-.118-.039-.106.03.472 2.813.805 5.648 1.052 8.49.122 1.408.195 2.817.262 4.228.044.923.043 1.862.108 2.79-.324.776-.65 1.554-.958 2.338-.078-.726-.185-1.45-.26-2.151-.152-1.448-.333-2.893-.501-4.339-.333-2.863-.783-5.71-1.18-8.565-.008-.048-.089-.036-.085.012.218 2.934.387 5.872.672 8.801.145 1.488.277 2.977.442 4.463.116 1.038.166 2.145.368 3.194a34 34 0 0 0-.841 2.607 12.6 12.6 0 0 0-.408 2.207 2 2 0 0 0-1.069.202 10 10 0 0 0-.989.755c-.34.28-.675.567-1.01.852-.016-1.567-.143-3.145-.211-4.696q-.145-3.322-.287-6.644c-.004-.09-.143-.09-.141 0l.181 6.767c.043 1.602.02 3.237.13 4.849q-.362.308-.726.612c-.556.464-1.13.905-1.695 1.358.211-2.474.227-4.972.308-7.452.002-.055-.083-.055-.086 0-.13 2.505-.33 5.023-.323 7.533-.642.513-1.275 1.037-1.924 1.54a6 6 0 0 0 .142-.97c.038-.39.064-.781.092-1.172l.166-2.347c.004-.046-.065-.044-.07 0l-.276 2.347c-.045.39-.093.78-.129 1.173a5 5 0 0 0-.036 1.058c-.121.094-.237.194-.359.288-.512.394-1.042.765-1.563 1.148a22 22 0 0 0 .224-3.129c.045-1.127.06-2.255.09-3.382.002-.061-.09-.06-.094 0-.083 1.105-.177 2.21-.25 3.317a20.4 20.4 0 0 0-.093 3.284c-.607.445-1.206.901-1.82 1.337.004-.006.013-.007.014-.015.127-1.433-.028-2.906-.011-4.346q.026-2.174.263-4.335c.007-.07-.114-.086-.123-.017a46 46 0 0 0-.4 4.352 16.6 16.6 0 0 0 .18 4.358c.005.024.023.028.04.028-.79.56-1.581 1.118-2.381 1.664.07-1.385.068-2.784.12-4.152q.126-3.255.315-6.507c.005-.086-.126-.085-.133 0q-.236 3.19-.414 6.384c-.082 1.478-.215 3-.229 4.505-.85.576-1.69 1.165-2.553 1.721l-.19.118c.192-4.196.29-8.382.69-12.567.283-.267.556-.545.843-.809a23 23 0 0 0 2.618-2.618 14 14 0 0 0 .417 1.555.26.26 0 0 0 .507-.069 18.7 18.7 0 0 1 .928-3.65 21 21 0 0 1 1.296-3.391 62 62 0 0 1 4.077-6.576l8.42-12.614q2.106-3.153 4.21-6.307c.746-1.115 1.542-2.218 2.216-3.383m.916-1.916a109 109 0 0 0 .721 3.068c.244.966.49 1.932.75 2.894a8.1 8.1 0 0 0 .86 2.428q-.21.516-.423 1.025c-.15.356-.292.714-.44 1.07q-.093-.323-.176-.638c-.222-.871-.45-1.74-.672-2.612-.46-1.808-1.01-3.59-1.484-5.394l-.006-.004a14 14 0 0 0 .87-1.837m1.083-4.157a75 75 0 0 0 1.113 4.29c.318 1.069.666 2.13 1.036 3.182.224.64.43 1.318.686 1.966v.001a14 14 0 0 0-1.306 2.458 13.5 13.5 0 0 0-.517-2.069c-.265-.961-.543-1.917-.823-2.874a105 105 0 0 0-1.058-3.372c.033-.102.082-.198.112-.302.31-1.074.548-2.173.757-3.28m.62-3.622c.388 1.722.829 3.43 1.377 5.111a58 58 0 0 0 1.143 3.232 10.6 10.6 0 0 0 1.358 2.93c.005.006.013.004.018.01a4.8 4.8 0 0 0-1.065.967c-.21-.535-.438-1.064-.63-1.59-.369-1.012-.732-2.027-1.099-3.04q-.825-2.286-1.611-4.586c.181-1.013.343-2.027.509-3.034m1.92 1.218q.582 1.795 1.208 3.576c.186.531.36 1.174.597 1.775a8 8 0 0 0-.243 2.216c-.134-.321-.271-.64-.403-.962a97 97 0 0 1-1.22-3.09 116 116 0 0 1-1.788-5.162q.257-1.55.496-3.1a79 79 0 0 0 1.352 4.746m-.781-8.803c.015-.12.025-.24.039-.359.192.74.377 1.483.603 2.212q.597 1.932 1.24 3.849.33.986.672 1.97a8.7 8.7 0 0 0 .659 1.69.64.64 0 0 0 .243.216c-.027.184-.048.37-.078.553a53 53 0 0 1-.427 2.318 15 15 0 0 1-.202-.532q-.607-1.725-1.216-3.448c-.622-1.755-1.3-3.483-1.984-5.21a124 124 0 0 0 .451-3.259"/><path fill="currentColor" d="M377 307.666a3.3 3.3 0 0 1 1.283-.498 4.9 4.9 0 0 1 1.43.061 4.1 4.1 0 0 1 2.431 1.347c.044.05-.013.14-.075.099a6.4 6.4 0 0 0-2.403-.987 5 5 0 0 0-1.27-.056 10 10 0 0 0-1.356.127.051.051 0 0 1-.04-.093m48.478-25.601a.031.031 0 0 1 .054.032c-.764 1.665-1.353 3.4-2.038 5.097a.055.055 0 0 1-.106-.03 13.3 13.3 0 0 1 2.09-5.099m-4.64 5.328.794-2.573c.55-1.783 1.138-3.554 1.713-5.329a.05.05 0 0 1 .098.027c-.515 1.792-1.018 3.587-1.557 5.372l-.78 2.578a13.3 13.3 0 0 1-.88 2.562c-.022.039-.092.024-.088-.024a13.3 13.3 0 0 1 .7-2.613m-2.696 1.305.84-3.121c.55-2.042 1.118-4.079 1.69-6.115a.05.05 0 0 1 .097.027 590 590 0 0 1-1.547 6.154l-.779 3.014a16 16 0 0 1-.855 2.882.051.051 0 0 1-.094-.026 15 15 0 0 1 .648-2.815m-2.822 2.601.836-3.14c.547-2.053 1.134-4.097 1.706-6.144a.055.055 0 0 1 .106.03c-.502 2.065-.99 4.136-1.517 6.196l-.776 3.03a14.2 14.2 0 0 1-.885 2.888.043.043 0 0 1-.08-.021 13.6 13.6 0 0 1 .61-2.84m-2.547 2.712c.178-.772.366-1.543.549-2.314q.538-2.272 1.094-4.54c.018-.073.129-.042.113.032q-.477 2.243-.964 4.484-.243 1.12-.49 2.239a13 13 0 0 1-.588 2.213c-.021.052-.11.053-.107-.015a12.4 12.4 0 0 1 .393-2.098m-3.348 3.381a43 43 0 0 1 .52-2.06 39 39 0 0 1 1.383-4.105c.024-.06.118-.037.098.027a91 91 0 0 0-1.172 4.163c-.177.687-.333 1.377-.49 2.068a8.6 8.6 0 0 1-.526 1.988c-.03.057-.104.023-.11-.03a6.8 6.8 0 0 1 .297-2.051m-2.129 2.111q.259-.977.527-1.951c.373-1.35.76-2.694 1.183-4.03a.027.027 0 0 1 .052.015c-.345 1.357-.7 2.71-1.044 4.067q-.248.98-.486 1.963a7.5 7.5 0 0 1-.56 1.955.051.051 0 0 1-.095-.026 7 7 0 0 1 .423-1.993m-2.408.289q.168-.944.374-1.881a39 39 0 0 1 1.074-3.837.043.043 0 0 1 .082.022 61 61 0 0 0-.909 3.806q-.196.94-.353 1.887a9.8 9.8 0 0 1-.367 1.952.059.059 0 0 1-.115-.016 7 7 0 0 1 .214-1.933m-1.701-.265c.01-.15.032-.3.053-.45a9.3 9.3 0 0 1 .965-3.012c.03-.058.115-.007.088.052a9.7 9.7 0 0 0-.666 1.979 9 9 0 0 0-.164 1.012c-.017.163-.027.326-.041.49a.65.65 0 0 1-.096.392.06.06 0 0 1-.092-.012.68.68 0 0 1-.047-.45m-1.391-2.309a4.8 4.8 0 0 1 .428-1.124c.035-.066.135-.007.1.06a5.35 5.35 0 0 0-.55 2.262.035.035 0 0 1-.07 0 3.8 3.8 0 0 1 .092-1.198m2.251 6.303a.02.02 0 0 1 .038.01c-.298 1.369-.571 2.755-.99 4.093a.027.027 0 0 1-.052-.014c.244-1.381.639-2.737 1.004-4.09m-3.141 6.221.423-1.85q.415-1.815.841-3.627c.02-.089.154-.051.136.037q-.372 1.791-.748 3.58l-.38 1.79a10 10 0 0 1-.461 1.766c-.022.052-.11.053-.108-.015a9 9 0 0 1 .297-1.681m-1.721 1.052c.26-1.084.589-2.155.93-3.216a.055.055 0 0 1 .105.029c-.292 1.057-.536 2.124-.786 3.192-.248 1.06-.393 2.163-.722 3.202-.02.065-.126.057-.123-.016a17.3 17.3 0 0 1 .596-3.19m-2.095 3.639c.104-.4.219-.797.329-1.194l.65-2.342a.043.043 0 0 1 .083.023l-.578 2.362c-.094.386-.184.773-.285 1.158a5.5 5.5 0 0 1-.329 1.115.063.063 0 0 1-.116-.032 5.3 5.3 0 0 1 .246-1.09m-1.647.692.599-1.928a.04.04 0 0 1 .075.021l-.54 1.943a16 16 0 0 1-.603 1.926.035.035 0 0 1-.067-.018 16 16 0 0 1 .536-1.944m-2.205 2.157.52-1.037c.032-.063.124-.008.095.055l-.477 1.04a9 9 0 0 1-.522 1.013c-.025.04-.095.015-.078-.033a9 9 0 0 1 .462-1.038m-5.422 4.357q.112-.13.227-.258c.157-.178.314-.352.48-.521q.489-.499.964-1.009c.031-.034.078.016.05.05q-.444.53-.873 1.071-.21.261-.431.512-.113.13-.228.258a.8.8 0 0 1-.258.223.063.063 0 0 1-.091-.07.7.7 0 0 1 .16-.255m77.736-47.016a11.1 11.1 0 0 1 3.192-1.186 32 32 0 0 1 3.451-.644c.117-.017.17.159.05.18a33 33 0 0 0-3.34.816q-.81.236-1.617.489a13.5 13.5 0 0 1-1.685.466.067.067 0 0 1-.05-.121m-6.412-.326a49.3 49.3 0 0 1 13.085-4.18c.049-.009.07.065.021.076a99 99 0 0 0-13.072 4.183c-.046.017-.077-.057-.034-.079m-4.53-.882a30.6 30.6 0 0 1 5.996-2.69 51 51 0 0 1 6.527-1.828c.049-.01.07.064.02.075a60 60 0 0 0-6.373 1.951c-2.087.765-4.075 1.75-6.14 2.564-.042.016-.066-.05-.03-.072m-2.267-1.221a28.9 28.9 0 0 1 7.607-2.936.05.05 0 0 1 .027.098 36 36 0 0 0-3.816 1.23c-1.288.497-2.528 1.098-3.787 1.662-.036.016-.067-.033-.031-.054m-2.388-1.198c1.107-.592 2.24-1.137 3.365-1.696.022-.011.042.022.02.034-1.118.573-2.228 1.162-3.362 1.703-.027.013-.05-.026-.023-.04m-5.066.596c.994-.485 2.003-.93 3.015-1.377.091-.04.17.095.079.135-1.018.45-2.032.898-3.066 1.307-.037.014-.063-.047-.027-.065m24.996 3.779a20 20 0 0 1 3.935-1.049c1.33-.279 2.678-.474 4.025-.649.039-.005.048.062.009.07-1.353.252-2.693.557-4.036.86-1.295.29-2.583.724-3.9.892a.067.067 0 0 1-.033-.124m4.614.776a8.5 8.5 0 0 1 3.591-.476c.025.002.026.04 0 .039a11.9 11.9 0 0 0-3.578.482.023.023 0 0 1-.013-.045m-4.08-20.411c2.086-.865 4.267-1.518 6.403-2.243.053-.018.074.064.023.082-2.123.762-4.237 1.609-6.407 2.229-.045.013-.06-.051-.019-.068m-2.286-1.982a30 30 0 0 1 3.607-1.371q1.885-.644 3.799-1.201a.04.04 0 0 1 .02.075q-1.87.578-3.716 1.235c-1.225.438-2.428.97-3.67 1.355-.055.017-.092-.067-.04-.093m-1.775-2.014c1.638-.754 3.37-1.307 5.066-1.916.024-.009.033.028.01.037-1.667.679-3.323 1.425-5.044 1.958-.045.014-.078-.058-.033-.079m17.336-89.428a32.6 32.6 0 0 1 9.876-7.81.106.106 0 0 1 .106.183 62.4 62.4 0 0 0-9.866 7.743.082.082 0 0 1-.116-.116m-4.624.582a46 46 0 0 1 3.774-4.016 52 52 0 0 1 8.731-6.587c.057-.034.107.053.052.088a48 48 0 0 0-8.56 6.87 55 55 0 0 0-3.625 4.017c-1.131 1.39-2.174 2.86-3.35 4.212-.046.053-.119-.015-.091-.071a22.2 22.2 0 0 1 3.069-4.513m4.669-7.41c.051-.04.124.03.072.072a39.3 39.3 0 0 0-5.417 5.352 68 68 0 0 0-4.496 6.354.055.055 0 0 1-.094-.055c2.144-4.636 5.937-8.625 9.935-11.723m-7.472 4.764c.05-.056.132.027.083.083a52 52 0 0 0-5.136 7.113.031.031 0 0 1-.054-.031 37 37 0 0 1 5.107-7.165M360.205 12.475c.133.924.383 1.843.56 2.761.168.862.336 1.724.514 2.584.37 1.79.796 3.573 1.151 5.366.017.085-.11.154-.15.063a26 26 0 0 1-1.575-5.27 31 31 0 0 1-.406-2.68c-.1-.943-.072-1.879-.117-2.821-.001-.013.02-.017.023-.003m3.74-1.805c.589 3.143 1.18 6.285 1.796 9.424.618 3.153 1.357 6.276 1.904 9.443a.09.09 0 0 1-.173.047 66 66 0 0 1-2.351-9.445 86 86 0 0 1-1.245-9.46.035.035 0 0 1 .069-.01m3.769-1.769c1.203 4.721 2.36 9.447 3.409 14.205.52 2.36 1.043 4.719 1.538 7.084a57 57 0 0 1 1.264 7.057c.01.116-.156.123-.192.026a57 57 0 0 1-1.785-7.016c-.53-2.358-1.029-4.722-1.532-7.085-1.01-4.736-1.906-9.488-2.762-14.254-.007-.04.05-.056.06-.017m5.518 2.774q1.469 7.27 3.067 14.51c.11.501.256 1.014.315 1.523.047.397.005.788.07 1.189.051.324.125.65.194.97.258 1.21.547 2.412.826 3.616q.418 1.807.825 3.616a19 19 0 0 1 .674 3.431c.003.098-.155.152-.197.053a18.4 18.4 0 0 1-.824-3.389c-.257-1.21-.5-2.424-.738-3.64-.238-1.215-.46-2.434-.71-3.647a9 9 0 0 0-.546-1.867 8.3 8.3 0 0 1-.381-1.718q-1.396-7.299-2.68-14.618c-.012-.068.091-.098.105-.029m5.592 6.386q1.611 7.716 3.278 15.42.405 1.88.814 3.76c.283 1.301.397 2.625.669 3.93.52 2.505 1.45 5 1.643 7.556.011.149-.2.157-.246.033a23.3 23.3 0 0 1-.892-3.87c-.237-1.306-.465-2.612-.744-3.91-.262-1.216-.671-2.386-.917-3.605q-.392-1.949-.78-3.898-1.529-7.68-2.96-15.378c-.017-.088.116-.126.135-.037m5.261 6.107c2.128 9.493 4.154 19.01 6.291 28.5a52 52 0 0 0 2.072 7.355c.027.07-.087.118-.121.051-2.06-4.064-2.68-8.729-3.6-13.145-1.009-4.849-2.038-9.694-3.023-14.547l-1.664-8.201c-.006-.03.038-.042.045-.013m5.781 8.179c2.17 9.48 4.356 18.957 6.406 28.463.58 2.685 1.12 5.377 1.64 8.074.012.064-.082.091-.098.027-2.336-9.44-4.318-18.97-6.325-28.486l-1.699-8.057c-.01-.05.064-.07.076-.021m6.187 9.948c1.803 9.211 3.658 18.415 5.341 27.65q.717 3.932 1.32 7.882c.01.068-.09.1-.106.03-2.026-9.168-3.591-18.436-5.245-27.676l-1.408-7.86c-.011-.063.086-.09.098-.026m5.782 12.018c1.526 8.24 3.047 16.484 4.329 24.767.01.068-.092.099-.106.029-1.596-8.228-2.953-16.502-4.306-24.774-.008-.053.073-.077.083-.022m5.171 12.501c.862 6.323 1.945 12.612 2.888 18.922.009.059-.077.086-.09.025-1.339-6.245-2.195-12.588-2.928-18.93-.009-.073.12-.091.13-.017m3.907 12.544c.276 2.903.671 5.791 1.048 8.682.005.039-.062.048-.069.009a87 87 0 0 1-1.049-8.69c-.004-.046.066-.045.07 0m14.783 20.637a69 69 0 0 0 1.507 7.466.043.043 0 0 1-.083.022 41 41 0 0 1-1.593-7.466c-.012-.095.156-.118.169-.022m2.753-2.288c1.035 6.155 2.308 12.267 3.461 18.401.011.059-.075.085-.09.025a169 169 0 0 1-3.47-18.4c-.008-.063.088-.092.099-.026m3.221 1.295c1.156 7.297 2.654 14.51 4.257 21.72a.043.043 0 0 1-.083.023 130 130 0 0 1-4.22-21.737c-.002-.026.043-.032.047-.006m3.537 2.303q1.151 5.548 2.31 11.093c.766 3.696 1.637 7.403 2.15 11.145.013.101-.13.148-.159.043-1.018-3.63-1.658-7.385-2.355-11.088q-1.051-5.58-1.991-11.18c-.005-.03.039-.042.045-.013m4.563 7.411q1.085 4.614 2.097 9.246a67 67 0 0 1 1.643 9.123c.006.09-.13.103-.154.02-.869-2.98-1.284-6.12-1.852-9.17q-.856-4.609-1.817-9.196c-.01-.054.07-.077.083-.023m5.049 9.403a135 135 0 0 1 2.613 13.33c.008.057-.088.07-.1.014-.932-4.426-1.713-8.883-2.625-13.314-.016-.073.095-.105.113-.03m4.636 8.21a61 61 0 0 0 .81 7.912c.01.053-.07.078-.082.023a36 36 0 0 1-.853-7.936.063.063 0 0 1 .125 0m-5.5 277.003a3.4 3.4 0 0 0 .466 1.109 4 4 0 0 0 .337.483c.133.158.278.305.41.463a.047.047 0 0 1-.056.073 2.33 2.33 0 0 1-.891-.883 3.3 3.3 0 0 1-.417-1.204c-.014-.097.13-.142.151-.041m46.192-31.734a3.9 3.9 0 0 0 1.204.445c.205.042.417.077.62.127l.306.077a1 1 0 0 1 .261.112 1 1 0 0 1 .131.053c.052.027.092.072.142.1a.5.5 0 0 1 .2.172.14.14 0 0 1-.021.166.5.5 0 0 1-.3.105 1.2 1.2 0 0 1-.271.045 1.2 1.2 0 0 1-.434-.057 3.6 3.6 0 0 1-.719-.328 7 7 0 0 1-.606-.401c-.207-.143-.408-.3-.612-.448-.1-.072-.012-.233.099-.168m4.634 15.588c.188.223.37.45.577.656q.316.32.625.647c.2.211.41.414.595.638.102.124.207.245.298.376a.75.75 0 0 1 .207.479.325.325 0 0 1-.404.308.68.68 0 0 1-.377-.31 5 5 0 0 1-.277-.392c-.165-.253-.302-.52-.45-.784-.143-.256-.286-.51-.422-.77-.141-.267-.307-.518-.47-.772-.038-.06.052-.13.098-.076m27.14-155.029c.073-2.178-.09-4.36.006-6.542.097-2.224.267-4.445.47-6.661.006-.064.104-.067.101 0-.1 2.221-.06 4.44.052 6.661a64 64 0 0 0 .448 6.764 6.5 6.5 0 0 1 .237 1.63 4 4 0 0 1-.142.493 4 4 0 0 0-.036.74 35 35 0 0 0-.02 3.453c.107 2.221.35 4.434.514 6.651.002.03-.044.03-.047 0-.263-2.214-.448-4.438-.722-6.65a47 47 0 0 0-.552-3.342 5 5 0 0 0-.203-.859 2.1 2.1 0 0 1-.19-.734c-.017-.53.067-1.074.084-1.604"/></svg>