<svg xmlns="http://www.w3.org/2000/svg" data-name="crocodilefish" viewBox="0 0 502.915 377.58"><path fill="currentColor" d="M458.722 326.905a2.5 2.5 0 0 0-.267-.41 17 17 0 0 0-.635-.764 12 12 0 0 0-1.412-1.347.043.043 0 0 0-.067.052 12 12 0 0 0 1.065 1.629c.2.253.4.504.615.745a3 3 0 0 0 .346.334.96.96 0 0 0 .386.23.083.083 0 0 0 .104-.078.9.9 0 0 0-.135-.391m-1.418.76a12 12 0 0 0-.426-.623c-.291-.405-.657-.747-.973-1.131-.028-.035-.084.01-.061.047.26.42.463.874.751 1.277.142.197.282.394.435.582a3.7 3.7 0 0 0 .503.552c.048.04.144.005.117-.068a3.5 3.5 0 0 0-.346-.636M339.62 267.483a26 26 0 0 0-1.645-2.027c-.074-.083-.195.039-.122.121a25 25 0 0 1 1.647 2.065c.503.705.966 1.432 1.452 2.147a.04.04 0 0 0 .067-.04 15 15 0 0 0-1.398-2.266m-61.244-49.513a80 80 0 0 0-2.585-5.135 78 78 0 0 0-6.255-9.648c-.018-.024-.058-.001-.04.024a96 96 0 0 1 6.044 9.64 91 91 0 0 1 2.543 5.031c.804 1.728 1.414 3.577 2.309 5.257a.043.043 0 0 0 .078-.033 31 31 0 0 0-2.094-5.135m3.701 1.526q-.692-1.516-1.46-2.999a66 66 0 0 0-3.518-5.925c-.033-.05-.114-.004-.081.048q1.833 2.856 3.38 5.877c.509.989 1 1.986 1.464 2.997.476 1.038.864 2.134 1.407 3.139a.04.04 0 0 0 .072-.03 21 21 0 0 0-1.264-3.107m4.552-.506a11 11 0 0 0-.423-.75q-.46-.745-.964-1.462c-.063-.09-.211-.005-.149.087q.484.712.928 1.45.215.357.438.71c.157.25.297.515.465.758.026.037.098.015.079-.033-.104-.261-.245-.51-.375-.76m-67.256 25.876a.055.055 0 0 0-.095.055 132 132 0 0 0 7.479 12.429c.03.044.102.005.074-.044-2.429-4.18-5.031-8.258-7.458-12.44m12.309 11.396q-.656-1.007-1.286-2.031-1.229-2-2.357-4.058a102 102 0 0 1-4.144-8.408c-.038-.088-.194-.024-.157.066a89 89 0 0 0 3.959 8.542q1.105 2.07 2.313 4.084.618 1.03 1.263 2.045a5.15 5.15 0 0 0 1.27 1.715.134.134 0 0 0 .196-.15 5.5 5.5 0 0 0-1.057-1.805m5.668 8.754c-.271-.513-.557-1.018-.837-1.526q-.854-1.552-1.704-3.106c-.049-.09-.18-.01-.135.079q.794 1.586 1.586 3.174c.259.52.512 1.045.78 1.56a3.7 3.7 0 0 0 .848 1.348.063.063 0 0 0 .094-.054 3.8 3.8 0 0 0-.632-1.475m8.295 5.726a6 6 0 0 0-.365-.708q-.406-.731-.84-1.447c-.618-1.024-1.24-2.046-1.855-3.071-1.21-2.016-2.438-4.021-3.619-6.055-2.378-4.096-4.64-8.26-6.653-12.548-.032-.069-.132-.01-.101.059 1.925 4.335 4.072 8.566 6.344 12.729a261 261 0 0 0 3.443 6.158q.902 1.55 1.812 3.096.425.72.878 1.425a6 6 0 0 0 .45.656c.172.204.399.335.574.534a.079.079 0 0 0 .13-.076c-.092-.246-.102-.506-.198-.752m6.208 2.057c-.478-.837-.981-1.66-1.472-2.489-1.042-1.763-2.1-3.517-3.132-5.287-2.043-3.504-4.09-7.002-6.02-10.571-.038-.071-.143-.008-.107.063 1.843 3.615 3.68 7.239 5.642 10.791.97 1.758 1.944 3.517 2.96 5.248.51.866 1.012 1.736 1.547 2.585a9.2 9.2 0 0 0 1.745 2.348.063.063 0 0 0 .104-.06 9.5 9.5 0 0 0-1.267-2.628m4.755 1.432c-.766-1.383-1.511-2.779-2.273-4.164a606 606 0 0 1-4.523-8.333c-.04-.076-.151-.01-.115.067a277 277 0 0 0 4.143 8.414c.706 1.37 1.452 2.72 2.193 4.07a31.5 31.5 0 0 0 2.493 4.038c.036.047.134.023.107-.045a36 36 0 0 0-2.025-4.047m5.802 3.403a130 130 0 0 1-1.68-2.793 118 118 0 0 1-3.11-5.603c-.015-.027-.054-.004-.041.023.918 1.971 1.881 3.926 2.933 5.83a30 30 0 0 0 3.378 5.35c.053.06.134-.017.104-.08a26 26 0 0 0-1.584-2.727m3.232-3.517q-.464-.812-.906-1.635a56 56 0 0 1-1.668-3.417c-.028-.06-.114-.008-.088.051a101 101 0 0 0 1.59 3.463q.403.845.828 1.68a12 12 0 0 0 1.034 1.637.035.035 0 0 0 .06-.036 19 19 0 0 0-.85-1.743m3.651 6.657q-.074-.105-.152-.207a5 5 0 0 1-.286-.405 4.5 4.5 0 0 1-.43-.891c-.06-.17-.328-.1-.271.074a5 5 0 0 0 .43.96 5 5 0 0 0 .28.422 2 2 0 0 0 .178.205.3.3 0 0 0 .115.086c.042.017.083.028.124.046.044.02.113-.014.092-.07a1 1 0 0 0-.08-.22m4.509-.873q-.95-1.533-1.853-3.095a151 151 0 0 1-3.415-6.217c-.01-.018-.036-.002-.027.016A100 100 0 0 0 271.85 277q.868 1.514 1.78 3.002a20 20 0 0 0 1.928 2.927c.038.042.094-.011.073-.057a29 29 0 0 0-1.83-2.97m3.989-.029c-.93-1.62-1.886-3.226-2.834-4.836a.04.04 0 0 0-.067.04c.901 1.637 1.794 3.28 2.713 4.906a56 56 0 0 0 2.834 4.836.04.04 0 0 0 .067-.04c-.76-1.699-1.787-3.292-2.713-4.906m3.963 1.64c-.024-.038-.085-.003-.06.036.81 1.295 1.622 2.588 2.461 3.865.017.025.056.003.04-.023a206 206 0 0 0-2.441-3.878m6.471 4.424-.65-.874c-.023-.032-.078 0-.053.032l.667.883c.216.287.425.581.652.859.014.017.043-.006.031-.024-.204-.3-.43-.585-.647-.876m1.136-11.948c-.024-.065-.128-.038-.105.029a33.7 33.7 0 0 0 5.205 9.928c.036.045.112-.014.08-.062a49.3 49.3 0 0 1-5.18-9.895m6.726 5.056a57 57 0 0 1-3.981-9.145.035.035 0 0 0-.068.019 44.3 44.3 0 0 0 9.235 17.43c.047.053.14-.016.098-.075a88 88 0 0 1-5.284-8.229m11.752 11.47a52 52 0 0 0-2.797-4.656 106 106 0 0 1-2.71-4.585 87 87 0 0 1-4.77-9.848c-.049-.123-.25-.072-.202.056a91 91 0 0 0 4.38 10.007 76 76 0 0 0 2.676 4.736 24.4 24.4 0 0 0 3.233 4.437c.1.102.248-.027.19-.147m4.897 1.467q-.74-1.03-1.455-2.077a137 137 0 0 1-2.859-4.33c-1.824-2.894-3.554-5.842-5.13-8.88-.053-.103-.205-.012-.154.09 1.524 3.105 3.153 6.163 4.959 9.113a99 99 0 0 0 2.745 4.263q.716 1.046 1.455 2.077a7 7 0 0 0 1.548 1.79.067.067 0 0 0 .098-.076 7.7 7.7 0 0 0-1.207-1.97m4.838 1.892a234 234 0 0 1-2.25-3.254c-1.477-2.187-2.933-4.388-4.252-6.674a.09.09 0 0 0-.155.09c1.268 2.357 2.555 4.703 3.992 6.96a29.7 29.7 0 0 0 4.7 6.263.063.063 0 0 0 .097-.076 27 27 0 0 0-2.132-3.309m6.777 5.146a16.5 16.5 0 0 0-1.447-2.275q-.737-1.034-1.493-2.054c-1.047-1.406-2.126-2.788-3.186-4.185-.044-.058-.144-.005-.101.06.991 1.468 1.962 2.95 2.967 4.41q.743 1.08 1.513 2.14a16 16 0 0 0 1.618 2.004.082.082 0 0 0 .129-.1m.972-49.169a33.3 33.3 0 0 0-4.598-4.59 53 53 0 0 0-5.239-3.646c-.095-.06-.174.085-.086.149 1.745 1.262 3.359 2.681 5.002 4.072 1.61 1.364 3.207 2.75 4.8 4.137a.086.086 0 0 0 .12-.122m2.807-2.293c-3.326-3.94-7.693-7.03-12.017-9.77-.06-.038-.113.055-.056.095a77 77 0 0 1 6.206 4.754c1.95 1.642 3.807 3.39 5.745 5.042a.086.086 0 0 0 .122-.121m-21.475-63.491a4 4 0 0 0-.224-.237c-.078-.074-.168-.14-.252-.208l-.505-.415a.165.165 0 0 0-.226 0 .16.16 0 0 0 0 .226l.52.414c.09.072.178.15.272.215a3 3 0 0 0 .284.174.108.108 0 0 0 .13-.17m8.15-16.6a1.3 1.3 0 0 0-.577-.345 4 4 0 0 0-.649-.19 8.6 8.6 0 0 0-1.365-.1c-.09-.001-.115.147-.021.162a5 5 0 0 1 .634.129c.217.061.428.14.643.206.208.065.418.12.627.18a1.7 1.7 0 0 0 .645.112.091.091 0 0 0 .063-.154m1.46-3.096-.217-.007a4 4 0 0 0-.434.02.031.031 0 0 0 0 .063 4 4 0 0 0 .434.02l.217-.007a.8.8 0 0 0 .208-.014.032.032 0 0 0 0-.06.8.8 0 0 0-.208-.015m52.163-7.76.007-.007a18.6 18.6 0 0 1-2.342-2.63 19 19 0 0 1-1.638-3.084c-.48-1.101-.901-2.23-1.323-3.354a37 37 0 0 1-1.506-4.361c-.072-.306-.556-.138-.414.174 1.171 2.578 1.661 5.428 2.764 8.04a13.7 13.7 0 0 0 2.577 4.197 7 7 0 0 0-1.7-.548 22.23 22.23 0 0 1-4.491-15.463c.006-.07-.101-.068-.11 0a22.6 22.6 0 0 0 1.113 10.5 25 25 0 0 0 2.308 4.733 4 4 0 0 0 .612.975c.292.24.713.111 1.053.066a3.6 3.6 0 0 1 1.82.286 5.5 5.5 0 0 0 1.092.708.149.149 0 0 0 .178-.233m7.302-.041a6.2 6.2 0 0 0-1.566-1.2c-.586-.368-1.192-.707-1.789-1.056-1.195-.7-2.41-1.366-3.618-2.043a.027.027 0 0 0-.027.047c1.14.791 2.275 1.593 3.431 2.362.577.383 1.148.78 1.736 1.146a6.1 6.1 0 0 0 1.757.875.079.079 0 0 0 .076-.131m3.183-1.401a.08.08 0 0 0-.083.034l-.014.019a4 4 0 0 0-.307-.221c-.202-.113-.41-.217-.614-.325-.358-.19-.718-.375-1.077-.564q-1.19-.629-2.364-1.285-2.31-1.292-4.548-2.705c-.077-.049-.146.071-.07.121q2.313 1.536 4.69 2.975 1.189.718 2.395 1.406.603.344 1.215.671c.276.148.528.335.842.203a.14.14 0 0 0 .096-.126.186.186 0 0 0-.16-.203m1.756-2.386q-.504-.287-1.011-.567l-2.177-1.198c-1.452-.8-2.92-1.568-4.383-2.347a.027.027 0 0 0-.028.047c1.42.854 2.834 1.716 4.265 2.548l2.147 1.25q.501.291 1.007.575a2 2 0 0 0 .955.406.07.07 0 0 0 .06-.106 1.96 1.96 0 0 0-.835-.608m4.617-1.937a3.5 3.5 0 0 0-1.114-.504 19 19 0 0 1-1.468-.556 38 38 0 0 1-2.43-1.153q-2.465-1.283-4.9-2.624c-.08-.044-.15.077-.072.121a150 150 0 0 0 4.895 2.636q1.191.614 2.358 1.275c.39.22.77.448 1.144.695a4 4 0 0 0 1.25.689c.306.068.629-.347.337-.58m-.396-2.771a32 32 0 0 0-4.232-2.591.047.047 0 0 0-.048.08 32 32 0 0 0 4.232 2.592.047.047 0 0 0 .048-.08m4.307 2.162-.011-.013a.3.3 0 0 0-.024-.102.26.26 0 0 0-.123-.095c-.065-.032-.127-.067-.195-.093a5 5 0 0 1-.35-.148l-.175-.08a2 2 0 0 1-.168-.104q-.168-.108-.327-.228c-.058-.044-.124.049-.076.098q.14.143.29.275c.104.09.203.183.308.27q.162.132.33.255a1 1 0 0 0 .177.097.3.3 0 0 0 .14.047.2.2 0 0 0 .091-.021c.025-.012.033-.03.06-.03a.075.075 0 0 0 .053-.128m1.688-1.829a1.8 1.8 0 0 0-.64-.414l-.763-.38-1.424-.71c-.984-.49-1.974-.966-2.966-1.44-.031-.015-.059.03-.028.047.97.55 1.942 1.096 2.922 1.629l1.445.786a4 4 0 0 0 1.385.649c.092.007.117-.108.069-.167m3.234-2.116a14 14 0 0 0-2.182-.847c-.771-.292-1.544-.565-2.3-.895-.045-.02-.085.044-.04.067.719.366 1.445.741 2.194 1.042a8.2 8.2 0 0 0 2.302.727c.052.005.067-.07.026-.094m2.228-2.183a1.3 1.3 0 0 0-.613-.302c-.255-.088-.51-.178-.768-.255l-1.552-.458c-.045-.013-.06.052-.019.068q.741.3 1.484.596c.242.097.489.182.735.268a4 4 0 0 0 .385.125.65.65 0 0 0 .317.033.05.05 0 0 0 .03-.075m3.061-1.549a1.2 1.2 0 0 0-.442-.192l-.466-.133c-.156-.043-.317-.069-.475-.105l-.509-.12a.074.074 0 0 0-.039.143l.498.16c.154.05.305.111.46.155l.469.128a1.2 1.2 0 0 0 .478.062.06.06 0 0 0 .026-.098m2.877-2.534q-.054-.023-.106-.048c-.027-.014-.037-.028-.07-.048a.7.7 0 0 0-.216-.053 1.4 1.4 0 0 0-.5.022 4 4 0 0 0-.86.313c-.03.015-.007.055.021.05a3.8 3.8 0 0 1 .868-.038 4 4 0 0 0 .423.004 1 1 0 0 0 .228-.024c.029-.008.053-.026.081-.035a1 1 0 0 1 .115-.022.067.067 0 0 0 .016-.12"/><path fill="currentColor" d="M495.412 359.878a49 49 0 0 0-3.096-8.295c1.497-.406 1.838-3.056 1.58-4.36a12.4 12.4 0 0 0-1.389-3.317q-.775-1.451-1.631-2.856a59.9 59.9 0 0 0-18.663-19.153c-4.304-2.782-8.872-5.18-13.411-7.549q-4.033-2.105-8.08-4.18-2-1.022-4.018-2.004c-1.383-.676-2.823-1.255-4.186-1.965a.2.2 0 0 0-.149-.013 125 125 0 0 0-5.974-4.645q-3.435-2.501-7.041-4.756c-2.508-1.567-5.109-2.987-7.568-4.63-4.874-3.256-8.428-7.974-12.526-12.091a134.7 134.7 0 0 0-27.134-21.047c-4.947-2.908-10.122-5.398-15.11-8.233a59.7 59.7 0 0 1-13.59-10.207c-1.63-1.68-3.196-3.42-4.826-5.1a66 66 0 0 1-1.274-2.545 67 67 0 0 0-4.04-7.59 29.3 29.3 0 0 0-5.59-6.598 46.5 46.5 0 0 0-7.645-5.112 155 155 0 0 0-18.057-8.373 453 453 0 0 0-9.356-3.59c-3.104-1.162-6.202-2.354-9.353-3.384q-.824-.27-1.657-.522c.533 0 1.065.004 1.597-.015a51.8 51.8 0 0 0 14.424-2.594 55.7 55.7 0 0 0 13.29-6.45 50.4 50.4 0 0 0 11.023-9.682q.693-.837 1.354-1.71a3.6 3.6 0 0 0 1.807-.092 13.3 13.3 0 0 0 3.013-1.442 16 16 0 0 0 4.108-3.9 56 56 0 0 1 2.966-1.775 56 56 0 0 1 7.277-3.276c5.126-1.947 10.374-3.43 15.664-4.859 10.325-2.787 20.753-6.02 29.5-12.397a40.2 40.2 0 0 0 10.73-11.34c2.988-4.874 4.795-11.14 1.868-16.467a10.1 10.1 0 0 0-5.584-4.823c-2.877-.938-5.883-.162-8.554 1.027-2.837 1.263-5.466 2.959-8.255 4.323a78 78 0 0 1-8.999 3.72c-.899.308-1.806.594-2.712.885a10 10 0 0 0 .39-1.147q.46-.496.914-.998c1.384-1.538 2.537-3.27 3.977-4.76a35.7 35.7 0 0 1 5.132-4.105q2.717-1.931 5.374-3.945 5.677-4.303 11.063-8.97a.1.1 0 0 0 .082.006 28 28 0 0 0 4.172-1.603 21.7 21.7 0 0 0 3.64-2.597 26.4 26.4 0 0 0 2.83-2.743c1.347-.707 2.665-1.46 4.004-2.185 3.084-1.67 6.249-3.186 9.312-4.894a47.5 47.5 0 0 0 8.77-6.193c2.755-2.485 5.354-5.157 8.674-6.9 3.269-1.714 6.809-2.819 10.047-4.609a48 48 0 0 0 7.951-5.55 55 55 0 0 0 12.133-14.996 62.6 62.6 0 0 0 4.064-8.881 37.3 37.3 0 0 0 2.225-9.494c.027-.316.083-.64.098-.96 4.491-7.193 7.982-16.07 6.343-24.66a8.76 8.76 0 0 0-2.935-5.36 5.61 5.61 0 0 0-5.537-.995 6.5 6.5 0 0 0-1.767 1.156 3.3 3.3 0 0 0-2.551.58 21.7 21.7 0 0 0-3.335 3.265q-1.717 1.858-3.365 3.778-.66.77-1.306 1.557a8.2 8.2 0 0 0-1.174-2.666 7.18 7.18 0 0 0-3.98-2.977 6 6 0 0 0-4.824.886 10 10 0 0 0-1.01.776c-.016-.01-.026-.027-.045-.031-1.436-.37-2.816 1.104-3.679 2.04a132 132 0 0 0-3.748 4.215 62 62 0 0 0-3.34 4.273 27 27 0 0 0-1.563 2.403 9 9 0 0 0-.573 1.257c-3.085 2.705-6.356 5.206-9.69 7.59-3.081 2.2-6.22 4.319-9.343 6.46q-2.316 1.589-4.616 3.2c-.303.215-.625.425-.944.64a11.2 11.2 0 0 0-.485-4.557 6.94 6.94 0 0 0-3.204-3.85 5.43 5.43 0 0 0-5.274.226 18.2 18.2 0 0 0-3.113 2.31 8.1 8.1 0 0 0-3.117 2.573 38 38 0 0 0-2.102 2.695c-.192.225-.398.438-.586.666-2.687 3.27-4.8 6.952-7.675 10.075-5.486 5.96-12.428 10.3-19.142 14.723-7.57 4.986-15.104 10.026-22.715 14.949a189 189 0 0 1-21.874 12.388q-1.387.654-2.785 1.283c-1.204.218-2.41.425-3.626.576a35 35 0 0 0-4.506.731 10.6 10.6 0 0 0-3.885 1.835 27.7 27.7 0 0 0-3.164 3.285 26.5 26.5 0 0 1-4.153 3.56 46.6 46.6 0 0 0-8.367 2.037 70.4 70.4 0 0 0-10.332 4.82c-6.764 3.706-13.156 8.036-19.698 12.11a118.2 118.2 0 0 1-21.24 10.841c-8.423 3.13-17.083 5.528-25.118 9.631a105 105 0 0 0-11.234 6.716c-.292.198-.58.403-.871.602a31 31 0 0 0-2.982 1.355c-1.142.532-2.243 1.12-3.411 1.6a20.1 20.1 0 0 1-7.136 1.736 23.6 23.6 0 0 1-7.145-1.096c-2.327-.702-4.584-1.62-6.928-2.27a18.6 18.6 0 0 0-7.2-.687 26.2 26.2 0 0 0-7.018 2.008 123 123 0 0 0-4.029 1.802c-2.45.365-4.928.673-7.392.865-1.263.098-2.536.067-3.8.166-1.378.108-2.752.27-4.128.407-5.24.521-10.49.939-15.737 1.392l-31.968 2.759c-21.501 1.856-43.014 3.612-64.494 5.7-6.006.585-12.003 1.262-18.006 1.87q-4.584.463-9.167.937c-3.066.318-6.106.804-9.167 1.148-.053.006-.056.09 0 .086 2.726-.165 5.457-.197 8.185-.367 2.73-.17 5.457-.379 8.184-.574 5.347-.382 10.696-.716 16.042-1.095 10.813-.767 21.611-1.68 32.411-2.613l64.74-5.593c5.901-.51 11.808-.985 17.705-1.55a63 63 0 0 0 8.75-1.295l.022-.005a26 26 0 0 0 3.573-.303 52 52 0 0 1-5.614 2.14 82 82 0 0 1-8.482 2.096c-1.431.276-2.872.513-4.3.806-1.458.299-2.912.657-4.382.888-.025.004-.02.049.007.046 2.59-.274 5.19-.335 7.777-.68 2.594-.345 5.187-.756 7.749-1.292a65 65 0 0 0 7.633-2.087c2.357-.805 4.591-2.02 6.856-3.048a32.7 32.7 0 0 1 6.851-2.425 16 16 0 0 1 7.153.218c4.703 1.168 9.27 3.785 14.243 3.414a27.4 27.4 0 0 0 7.871-1.71c-1.062.793-2.121 1.59-3.191 2.37-.906.661-1.738 1.404-2.647 2.063-.128.093-.008.308.126.216 1.797-1.236 3.701-2.31 5.52-3.52q2.73-1.816 5.491-3.588c3.708-2.367 7.569-4.531 11.464-6.573a101 101 0 0 1 12.069-5.315c4.229-1.556 8.528-2.911 12.78-4.404a108 108 0 0 0 11.818-4.846c3.427-1.682 6.749-3.57 10.014-5.545 6.578-3.98 12.93-8.327 19.582-12.188q4.893-2.84 10.03-5.202c2.808-1.282 5.663-2.585 8.583-3.632-.233.153-.463.31-.698.461a41 41 0 0 1-4.266 2.443c-1.527.746-3.006 1.604-4.547 2.315-.072.033-.021.154.054.129 1.421-.478 2.883-.81 4.291-1.339 1.363-.511 2.732-1.018 4.063-1.606a26 26 0 0 0 7.454-4.76c1.058-.992 1.952-2.125 2.944-3.178a8.5 8.5 0 0 1 3.612-2.358c2.908-.944 6.076-.96 9.065-1.544a29 29 0 0 0 5.338-1.588c1.753-.714 3.417-1.625 5.13-2.432.135-.064.04-.292-.102-.243a34 34 0 0 1-4.192 1.044c.669-.288 1.339-.573 2-.882a113 113 0 0 0 10.861-6.012c7.393-4.519 14.56-9.413 21.79-14.184 3.694-2.438 7.395-4.865 11.078-7.319 3.29-2.19 6.545-4.441 9.608-6.943a50.5 50.5 0 0 0 8.25-8.36c1.317-1.72 2.487-3.546 3.77-5.29a44 44 0 0 1 3.907-4.593 47 47 0 0 1 4.465-4.05c1.283-1.021 2.905-2.062 4.585-1.37 3.798 1.567 3.098 6.691 2.596 9.893a71 71 0 0 1-.315 1.836c-.441-2.26-1.042-4.5-1.631-6.72a.012.012 0 0 0-.023.006c.478 2.335.953 4.697 1.6 6.995q-.426 2.265-1.036 4.492a43.4 43.4 0 0 0-2.416-9.974.023.023 0 0 0-.046.012c.844 3.312 1.561 6.656 2.377 9.974.011.046.089.037.084-.011a42 42 0 0 1-1.748 5.128 40.3 40.3 0 0 1-6.743 10.378q-8.566 10.074-17.463 19.884c-2.951 3.25-5.956 6.451-9.053 9.563-2.815 2.829-5.672 6.035-9.4 7.655a34.7 34.7 0 0 0-5.512 2.613 33 33 0 0 0-4.614 3.795c-2.96 2.837-5.73 5.865-8.804 8.584a43 43 0 0 1-4.852 3.757c-1.74 1.142-3.568 2.144-5.304 3.294a26.1 26.1 0 0 0-8.12 8.535c-.487.827-.991 1.65-1.471 2.484-.476.827-.922 1.704-1.444 2.502-.21.32.304.618.512.3a46 46 0 0 1 3.758-4.778c1.295-1.496 2.62-2.987 4.054-4.353a29.8 29.8 0 0 1 4.855-3.716c1.797-1.118 3.642-2.157 5.365-3.387 1.225-.874 2.384-1.829 3.519-2.811l.06.057q.247.255.498.505c.34.337.7.647 1.02 1.007a.443.443 0 0 0 .692-.09 36 36 0 0 0 2.193-5.333.4.4 0 0 0-.018-.293q.68-.67 1.353-1.345c2.836-2.854 5.631-5.966 9.222-7.886 1.843-.986 3.89-1.508 5.693-2.578a27 27 0 0 0 4.722-3.757c3.212-3.052 6.294-6.246 9.316-9.486 6.11-6.55 11.95-13.347 17.835-20.099a66 66 0 0 0 7.955-10.298 42.2 42.2 0 0 0 4.361-11.568c.127-.554.235-1.112.343-1.67a11.4 11.4 0 0 0 1.85-4.487c.113-.076.223-.157.333-.234q1.103-.777 2.214-1.544 2.227-1.538 4.47-3.054c2.958-2.01 5.913-4.028 8.812-6.122a94 94 0 0 0 16.125-14.121 65 65 0 0 0 3.273-4.104 16.8 16.8 0 0 1 3.05-3.44 4.2 4.2 0 0 1 3.988-.837 5.54 5.54 0 0 1 3.085 3.079 10.66 10.66 0 0 1 .47 5.499 36 36 0 0 1-1.092 5.087 45.8 45.8 0 0 1-3.624 9.095 47.2 47.2 0 0 1-12.65 15.153 44 44 0 0 1-3.969 2.748c-1.597.984-3.263 1.854-4.826 2.893-3.27 2.174-5.53 5.32-8.069 8.25A152.6 152.6 0 0 1 414 75.224c-2.96 2.513-6.079 4.802-9.12 7.21a20.4 20.4 0 0 0-3.995 4.164 45 45 0 0 1-3.325 4.43c-4.636 5.048-11.005 8.083-15.694 13.078-2.367 2.522-4.257 5.665-7.285 7.478-3.04 1.82-6.847 2.373-9.008 5.438a6.37 6.37 0 0 0-1.145 3.22 8.7 8.7 0 0 0-.446-1.764 8.5 8.5 0 0 0-1.928-3.036.067.067 0 0 0-.105.08 10.43 10.43 0 0 1 .935 6.457 11.8 11.8 0 0 1-.911 3.072 11.2 11.2 0 0 1-1.594 2.929.184.184 0 0 0 .222.288 7.6 7.6 0 0 0 2.744-2.461 8.85 8.85 0 0 0 1.124-3.638c.025-.21.026-.427.03-.643a.27.27 0 0 0 .454-.197c-.078-1.767 1.4-3.25 2.746-4.166a28.6 28.6 0 0 1 5.07-2.508 17.6 17.6 0 0 0 4.892-2.9 35 35 0 0 0 3.744-4.107 44.2 44.2 0 0 1 7.897-7.316 84 84 0 0 0 8.423-6.646 28 28 0 0 0 3.637-4.306 24.2 24.2 0 0 1 3.822-4.64c1.52-1.336 3.2-2.49 4.8-3.728q2.4-1.858 4.728-3.809a152.6 152.6 0 0 0 17.434-17.193c1.316-1.525 2.558-3.117 3.91-4.61a20.6 20.6 0 0 1 4.643-3.775c1.612-.982 3.275-1.875 4.854-2.913a48 48 0 0 0 4.207-3.117 48.8 48.8 0 0 0 12.81-16.4 47.7 47.7 0 0 0 3.502-9.892 26.7 26.7 0 0 0 .806-5.598 4.6 4.6 0 0 0 .975-.618 49 49 0 0 0 1.465-1.354l2.598-2.514q2.642-2.557 5.282-5.117a8.8 8.8 0 0 1 2.318-1.886 3.2 3.2 0 0 1 2.411-.026 5.62 5.62 0 0 1 3.276 4.045 19.2 19.2 0 0 1 .5 5.974 28 28 0 0 1-.498 4.019 18 18 0 0 0-.353-3.682 34 34 0 0 0-1.013-4.221.016.016 0 0 0-.03.008c.293 1.395.53 2.805.728 4.216.197 1.396.24 2.84.557 4.215.002.005.007.002.01.006q-.164.77-.365 1.531a43.7 43.7 0 0 1-5.106 11.522 68.4 68.4 0 0 1-7.512 10.101 45.8 45.8 0 0 1-9.848 8.256 63 63 0 0 0-5.686 3.867c-1.805 1.425-3.492 2.991-5.177 4.555l-10.76 9.986c-3.4 3.156-6.745 6.384-10.227 9.449a38 38 0 0 1-4.78 3.676 25 25 0 0 1-5.28 2.432c-.908.317-1.77.696-2.708.93a.339.339 0 0 0 0 .647 12 12 0 0 0 2.295.244c-1.194 1.148-2.332 2.354-3.483 3.543q-2.279 2.355-4.622 4.646-4.717 4.633-9.707 8.974-4.977 4.33-10.211 8.355-2.645 2.029-5.351 3.977c-1.776 1.277-3.609 2.493-5.263 3.93a26.6 26.6 0 0 0-4.546 5.376q-.022.033-.04.066a9 9 0 0 0-.372-1.743 5.4 5.4 0 0 0-.618-1.312 10 10 0 0 0-1.004-1.072.059.059 0 0 0-.092.071 5.4 5.4 0 0 1 .491 1.328c.129.404.247.815.335 1.23a6.6 6.6 0 0 1 .029 2.59 9 9 0 0 1-.512 1.786c-.449.685-.905 1.36-1.383 2.022-1.285.432-2.561.887-3.807 1.427a35.4 35.4 0 0 0-7.26 4.366 70.6 70.6 0 0 0-12.298 12.087c-.875 1.093-1.727 2.197-2.632 3.265-.065.076.04.185.11.11 1.897-2.038 3.942-3.94 5.906-5.916a79 79 0 0 1 6.233-5.716 46.6 46.6 0 0 1 15.086-7.994c2.958-.967 5.916-1.9 8.8-3.079a82 82 0 0 0 8.419-3.999c2.56-1.404 5.116-3.03 8.018-3.617a7.34 7.34 0 0 1 6.767 1.946c4.02 3.98 3.17 10.067.821 14.68a35.9 35.9 0 0 1-9.95 11.696c-8.152 6.41-18.182 9.802-28.06 12.496-5.156 1.406-10.347 2.723-15.381 4.53-.55.197-1.088.41-1.623.629a30.4 30.4 0 0 0-4.996-2.816c.022-.053.049-.106.07-.16.47-1.157.822-2.356 1.231-3.534.04-.115-.148-.198-.2-.084-.956 2.124-2.12 4.208-3.278 6.23a39 39 0 0 1-3.607 5.418 21 21 0 0 1-4.474 4.162 12.2 12.2 0 0 1-2.701 1.388 39.4 39.4 0 0 0 5.156-10.404.094.094 0 0 0-.171-.073c-1.152 2.101-2.379 4.191-3.702 6.19a54 54 0 0 1-4.44 5.672 59.4 59.4 0 0 1-10.488 9.53 52.44 52.44 0 0 1-25.937 9.494c-1.79-1.252-3.73-2.311-5.575-3.475-.344-.217-.682-.444-1.024-.665q1.21-.967 2.39-1.97.927.592 1.868 1.164a67 67 0 0 0 6.437 3.588.047.047 0 0 0 .048-.081c-2.072-1.316-4.246-2.475-6.357-3.728-.607-.36-1.209-.732-1.814-1.098q1.213-1.034 2.395-2.106c2.906 1.958 5.84 3.907 8.906 5.585a.04.04 0 0 0 .04-.068c-2.88-1.96-5.867-3.769-8.81-5.638l.374-.335c.509-.47.994-.962 1.494-1.44l2.287 1.474q1.39.895 2.79 1.775a20.6 20.6 0 0 0 2.833 1.7c.04.018.092-.031.052-.067a19 19 0 0 0-2.58-1.718q-1.445-.911-2.896-1.813l-2.368-1.465c.86-.824 1.726-1.643 2.568-2.485.243.123.49.238.727.371.89.5 1.739 1.061 2.579 1.64.866.599 1.63 1.351 2.53 1.9.118.072.26-.102.15-.197a23 23 0 0 0-2.484-1.66 95 95 0 0 1-2.605-1.783c-.228-.162-.448-.333-.67-.501q1.157-1.16 2.303-2.335c.319.21.638.419.948.64.066.048.142-.055.085-.11l-.798-.768q.429-.433.857-.868a.074.074 0 0 0-.105-.105c-.3.277-.61.544-.912.819a24 24 0 0 0-1.29-1.154c.63-.582 1.263-1.16 1.89-1.746.75.486 1.517.95 2.284 1.409.715.427 1.443.836 2.145 1.283.34.215.684.428 1.015.655a8 8 0 0 1 .791.647c0 .014-.01.026-.003.04a.57.57 0 0 0 .536.353.233.233 0 0 0 .117-.431c-.42-.2-.848-.35-1.255-.586-.348-.202-.684-.424-1.023-.64-.728-.465-1.428-.975-2.139-1.464a80 80 0 0 0-2.225-1.491q1.074-1.008 2.142-2.022c.504.313 1.002.637 1.501.956l2.263 1.448 1.136.716a6.6 6.6 0 0 0 1.11.646c.115.044.2-.123.117-.202a6.6 6.6 0 0 0-1.063-.724q-.604-.385-1.21-.766-1.214-.761-2.43-1.517c-.398-.248-.803-.508-1.214-.761.601-.574 1.194-1.156 1.791-1.734.572.27 1.145.541 1.712.822.69.34 1.38.676 2.067 1.02.665.334 1.319.747 2.01 1.017.111.043.158-.119.076-.179a17 17 0 0 0-2.083-1.157 54 54 0 0 0-3.568-1.73c.896-.867 1.8-1.726 2.687-2.601q.127.076.258.147.564.31 1.136.608a14.6 14.6 0 0 0 2.332.962c.061.02.09-.066.042-.1a13 13 0 0 0-1.624-.96 40 40 0 0 0-1.726-.784q-.101-.042-.203-.082l.273-.264c2.35-2.329 4.616-4.725 6.855-7.16a.04.04 0 0 0-.055-.056c-2.654 2.344-5.241 4.754-7.817 7.178a.44.44 0 0 0-.369-.026c-.163.088-.07.384.08.279.007-.005.003-.018-.006-.015q-.008-.245.149-.114l.01.005-2.806 2.642a39 39 0 0 0-1.627-.664 140 140 0 0 0 3.233-3.199 160 160 0 0 0 8.766-9.748 101 101 0 0 0 3.909-5.033c1.268-1.752 2.359-3.588 3.47-5.44q.833-1.39 1.621-2.809a.063.063 0 0 0-.108-.063 94.5 94.5 0 0 1-7.662 10.322 120 120 0 0 1-8.755 9.407c-6.233 6.064-12.831 11.744-19.334 17.515-3.536 3.138-7.014 6.362-10.649 9.387a39.4 39.4 0 0 1-11.405 6.766 65 65 0 0 1-12.804 3.178 85.5 85.5 0 0 1-13.266 1.006 104.6 104.6 0 0 1-26.382-3.876c-1.05-.276-2.082-.633-3.122-.946a.192.192 0 0 0-.148.35 53.8 53.8 0 0 0 12.567 4.635 65 65 0 0 0 2.65.527 48 48 0 0 1-6.17.846 58 58 0 0 1-6.935.11 47 47 0 0 1-7.111-1.18c-.132-.042-.228.172-.097.228 1.049.447 2.056.971 3.143 1.324a31 31 0 0 0 3.452.856q.902.18 1.806.316c-5.202.752-9.41 5.097-13.64 7.957a112.4 112.4 0 0 1-18.97 9.776c-14.105 6.031-28.335 11.78-42.624 17.36q-21.557 8.416-43.351 16.205-21.695 7.754-43.607 14.88c-7.335 2.385-14.72 4.627-22.047 7.037-7.265 2.389-14.534 4.798-21.827 7.095-1.85.582-3.653 1.264-5.455 1.98a.082.082 0 0 0 .044.159c3.797-.713 7.513-1.75 11.252-2.716 3.665-.948 7.3-2.026 10.936-3.078 7.345-2.124 14.643-4.384 21.923-6.722q16.494-5.296 32.871-10.95c-5.018 6.221-10.062 12.423-14.983 18.72-.02.026.015.062.036.037 5.097-6.208 10.073-12.515 15.073-18.8q5.339-1.844 10.664-3.724c1.224-.432 2.442-.88 3.663-1.319-6.25 6.836-12.306 13.853-18.043 21.126-.017.022.012.052.03.03 5.918-7.147 11.906-14.237 18.069-21.176q3.41-1.225 6.82-2.455c-5.575 6.355-11.134 12.723-16.607 19.167-.016.019.011.046.028.027 5.625-6.355 11.163-12.787 16.685-19.232q9.59-3.478 19.141-7.058c-.846 1.261-1.775 2.466-2.708 3.669a664 664 0 0 0-4.218 5.513c-2.844 3.746-5.661 7.51-8.39 11.34-.028.039.037.09.068.052 2.923-3.65 5.76-7.367 8.57-11.104 1.415-1.88 2.828-3.76 4.222-5.654.93-1.265 1.846-2.543 2.65-3.889 1.927-.725 3.861-1.43 5.785-2.162-4.726 6.163-9.326 12.428-13.667 18.868-.015.023.021.044.037.022 4.537-6.349 9.091-12.683 13.756-18.938 2.373-.903 4.748-1.803 7.117-2.717q-3.844 4.752-7.672 9.515c-2.624 3.271-5.297 6.52-7.783 9.898-.017.023.022.053.04.03 2.76-3.203 5.346-6.562 7.968-9.877q3.792-4.796 7.56-9.61 20.557-7.934 40.888-16.439-8.04 8.786-16.126 17.526c-.016.017.009.041.025.025q8.315-8.613 16.234-17.606c.541-.226 1.085-.448 1.626-.675 3.09-1.296 6.189-2.59 9.259-3.944-4.33 4.208-8.498 8.576-12.45 13.143-.018.02.012.05.03.03q6.109-6.8 12.594-13.25a163 163 0 0 0 4.898-2.249 85.5 85.5 0 0 0-9.794 10.418c-.021.027.016.066.039.039a137 137 0 0 1 9.808-10.482 107 107 0 0 0 5.17-2.659 71.4 71.4 0 0 0 8.918-5.793c2.443-1.87 4.888-4.042 7.652-5.42a13.6 13.6 0 0 1 4.716-1.479.24.24 0 0 0 .212-.164c.723.033 1.448.046 2.178.016a42 42 0 0 0 3.853-.362 4 4 0 0 1-1.327.53c-1.264.22-2.537.361-3.794.626-1.35.285-2.66.707-3.976 1.108a.025.025 0 0 0 .013.049 51.5 51.5 0 0 1 7.93-1.263 3.5 3.5 0 0 0 1.385-.315 10 10 0 0 0 .86-.535 68 68 0 0 1 7.691-1.025 48.4 48.4 0 0 1 8.304.282 45.2 45.2 0 0 1 15.908 4.81 42.3 42.3 0 0 1 7.22 4.871 59 59 0 0 0 7.792 5.814c2.803 1.637 5.766 3.004 8.697 4.391 2.713 1.283 5.38 2.653 8.078 3.966 6.135 2.99 12.173 6.488 17.18 11.175a.055.055 0 0 0 .078-.077A60.8 60.8 0 0 0 291 229.26c-5.48-3.2-11.336-5.697-16.784-8.956-.296-.176-.577-.368-.868-.55-.17-.388-.354-.771-.524-1.147a47 47 0 0 0-1.247-2.507 76 76 0 0 0-2.95-5.119 49 49 0 0 0-3.263-4.596 31.6 31.6 0 0 0-4.008-4.03q1.383-.336 2.747-.741c.098-.03.194-.066.292-.096a58 58 0 0 1 7.22 9.43 53 53 0 0 1 2.775 5.11q.666 1.405 1.247 2.85a8.6 8.6 0 0 0 1.066 2.366.075.075 0 0 0 .127-.052 7.4 7.4 0 0 0-.856-2.734q-.554-1.35-1.18-2.667a53 53 0 0 0-2.841-5.193 48.8 48.8 0 0 0-7.41-9.16 42.4 42.4 0 0 0 9.507-4.184c.71-.01 1.42-.033 2.127-.022 1.686.024 3.38.114 5.057.292a52 52 0 0 1 9.49 1.998c3.179.96 6.29 2.127 9.4 3.286a647 647 0 0 1 9.04 3.423 170 170 0 0 1 17.819 7.956 61 61 0 0 1 7.81 4.729 26.2 26.2 0 0 1 6.008 6.222c1.513 2.192 2.714 4.573 4.124 6.825q-2.024-1.75-4.189-3.326a64.5 64.5 0 0 0-14.39-7.865c-1.298-.51-2.631-.928-3.967-1.324-.149-.044-.257.193-.108.257a79.4 79.4 0 0 1 14.425 8.017 81.5 81.5 0 0 1 12.644 11.36 78 78 0 0 0 6.297 6.298 58 58 0 0 0 6.806 4.955c4.814 3.03 9.94 5.51 14.926 8.236a133 133 0 0 1 27.56 20.007q3.105 2.934 6.018 6.063c1.992 2.14 3.887 4.386 6.08 6.328a47 47 0 0 0 7.253 5.038c2.446 1.456 4.88 2.923 7.246 4.508a120.4 120.4 0 0 1 24.965 22.36c.432.511.853 1.03 1.282 1.544a9.4 9.4 0 0 0 1.12 1.074l-.012.062a.2.2 0 0 0 .005.07c.006.026.027.043.035.067-.017-.051-.005.055-.002.072.01.069.11.058.128 0 .002-.006.022-.073 0-.039a.3.3 0 0 1 .062-.043q.106.09.208.18a.7.7 0 0 0 .419.18.54.54 0 0 0 .332.109.36.36 0 0 0 .131.108.3.3 0 0 0 .403-.105.46.46 0 0 0 .052-.223.4.4 0 0 0 .02-.136c-.002-.026.007-.065-.012-.011-.026.074.006-.04.008-.053a.7.7 0 0 0-.018-.26c2.09 1.505 4.232 2.933 6.394 4.334 4.986 3.232 10.143 6.2 14.501 10.288a41.5 41.5 0 0 1 9.995 14.446 55 55 0 0 1 2.867 9.532c.592 2.817.848 6.042-.99 8.478-2.013 2.665-5.349 2.091-7.942.68a28 28 0 0 1-4.273-3.01q-1.075-.881-2.103-1.817c-.279-.253-.564-.514-.865-.748a9 9 0 0 0 .226-1.129 14 14 0 0 0 .02-3.348c.19.477.362.96.564 1.433.427.995.879 1.983 1.363 2.952.506 1.012 1.126 1.98 1.543 3.034.015.038.087.039.08-.011a8.5 8.5 0 0 0-1.007-2.606c-.5-1.003-.993-2.01-1.457-3.029-.424-.93-.83-1.868-1.226-2.81a29 29 0 0 0-1.112-4.325 58 58 0 0 0-3.9-9.198 41.3 41.3 0 0 0-12.856-14.857 34 34 0 0 0-4.446-2.541 54 54 0 0 1-5.374-2.739c-3.392-2.13-6.25-5.116-9.186-7.814-3.16-2.902-6.344-5.779-9.464-8.723l-4.725-4.457a42 42 0 0 0-4.173-3.606 17.1 17.1 0 0 0-5.118-2.428 29 29 0 0 1-5.221-1.905c-3.094-1.641-5.641-4.085-8.195-6.44a76 76 0 0 0-4.613-3.911c-.51-1.508-1.088-2.999-1.605-4.502-.633-1.841-1.24-3.691-1.875-5.532a.01.01 0 0 0-.02.006 64 64 0 0 0 1.7 5.69c.476 1.379.96 2.783 1.536 4.136q-1.973-1.535-4.024-2.96l-.023-.062q-.22-.641-.387-1.3c-.011-.044-.077-.025-.068.019q.137.622.32 1.232a89 89 0 0 0-4.872-3.151c-1.016-2.531-2.192-4.995-3.134-7.56-.008-.02-.04-.012-.034.01a51 51 0 0 0 2.852 7.366q-.93-.552-1.874-1.083c-.259-.713-.596-1.406-.89-2.097q-.598-1.411-1.192-2.824c-.82-1.94-1.648-3.883-2.404-5.85-.018-.049-.097-.029-.079.022.694 1.96 1.372 3.922 2.117 5.864.366.953.75 1.9 1.142 2.844.234.564.46 1.15.716 1.715-.4-.22-.797-.447-1.2-.662-.315-.167-.637-.32-.953-.485-.303-.973-.762-1.925-1.138-2.865-.412-1.03-.823-2.06-1.242-3.086-.855-2.095-1.73-4.181-2.599-6.27-.009-.023-.046-.014-.037.01.81 2.148 1.614 4.298 2.439 6.44.413 1.073.834 2.142 1.254 3.211.301.768.564 1.581.901 2.345-.869-.448-1.735-.902-2.614-1.333a43 43 0 0 0-1.83-4.352q-1.15-2.553-2.379-5.068c-.022-.045-.1-.014-.082.034q.98 2.542 2.042 5.05c.58 1.372 1.133 2.812 1.841 4.143-.863-.42-1.726-.84-2.6-1.235a12 12 0 0 0-.975-2.216c-.34-.721-.682-1.44-1.018-2.163-.694-1.493-1.423-2.972-2.073-4.484-.026-.058-.127-.016-.104.044.59 1.525 1.154 3.057 1.81 4.556q.493 1.137 1.026 2.257a15 15 0 0 0 .92 1.814q-1.286-.576-2.587-1.113a7 7 0 0 0-.362-.862q-.254-.56-.5-1.123-.48-1.101-.931-2.215c-.579-1.427-1.116-2.869-1.76-4.269-.012-.027-.052-.007-.046.02a29.6 29.6 0 0 0 1.481 4.592q.417 1.056.87 2.098.227.527.463 1.05c.07.157.138.32.21.48-.7-.284-1.4-.566-2.103-.837-.093-.251-.195-.485-.216-.54q-.239-.608-.476-1.218-.495-1.261-1.017-2.512a50 50 0 0 0-2.2-4.68c-.021-.038-.087-.012-.072.03.664 1.839 1.414 3.64 2.132 5.459.354.897.705 1.795 1.036 2.7.061.168.115.343.17.517-.713-.272-1.426-.543-2.142-.805l-.183-.093a12 12 0 0 0-.549-1.512 20 20 0 0 0-.634-1.462 13.7 13.7 0 0 1-.962-2.487c-.33-1.212-.645-2.917-1.842-3.596-.034-.02-.058.028-.03.05a4.2 4.2 0 0 1 1.122 1.81c.284.706.528 1.425.78 2.142.274.775.573 1.536.777 2.333q.193.749.412 1.492.12.412.255.82c.01.027.025.06.038.091a40 40 0 0 0-2.21-1.042l-.229-.096a65.5 65.5 0 0 0-3.903-9.155c-.028-.054-.108-.007-.081.047a53 53 0 0 1 3.463 8.89c-.641-.274-1.282-.551-1.935-.812-.541-1.65-1.173-3.28-1.827-4.88a14.5 14.5 0 0 0-2.593-4.788c-.009-.01-.022.004-.014.014a8.7 8.7 0 0 1 1.285 2.506q.543 1.376 1.07 2.759c.52 1.376.995 2.767 1.474 4.157a30 30 0 0 0-1.973-.69.56.56 0 0 0-.157-.263c-.095-.088-.126-.385-.173-.51-.078-.212-.174-.419-.255-.63-.164-.42-.31-.847-.467-1.27a25 25 0 0 0-1.033-2.435 18 18 0 0 0-1.345-2.339c-.494-.703-1.075-1.334-1.611-2.003-.04-.049-.12.014-.086.066a24 24 0 0 1 1.243 2.398c.421.853.837 1.707 1.205 2.585a27 27 0 0 1 .934 2.53 10 10 0 0 1 .286 1.322l.031.181c-.127-.029-.252-.071-.38-.098a3.2 3.2 0 0 1-1.395-.464 5 5 0 0 1-.874-1.415 20 20 0 0 0-1.757-2.559 26 26 0 0 0-4.308-4.376 20.4 20.4 0 0 0-6.246-3.154c-.05-.016-.066.056-.021.075a21 21 0 0 1 5.479 3.484 17.8 17.8 0 0 1 4.088 4.75 20.4 20.4 0 0 1 1.307 2.802 3.65 3.65 0 0 0 2.232 2.51 19.6 19.6 0 0 0 3.433.681c.493.079.983.184 1.473.29.46.228.923.451 1.39.657q2.506 1.106 5.002 2.236c3.268 1.482 6.543 2.958 9.78 4.506a92.8 92.8 0 0 1 18.297 11.149c2.73 2.197 5.188 4.697 7.866 6.954a23.9 23.9 0 0 0 9.007 5.043 21.5 21.5 0 0 1 5.176 1.86 25.3 25.3 0 0 1 4.263 3.338 769 769 0 0 1 9.077 8.426l9.138 8.65a54 54 0 0 0 4.297 3.758 28 28 0 0 0 4.92 2.947 42.7 42.7 0 0 1 8.827 5.186 37.4 37.4 0 0 1 6.454 6.836 49 49 0 0 1 4.903 8.372 47.3 47.3 0 0 1 3.206 8.852c.567 2.388.913 5.343-.337 7.583a4.4 4.4 0 0 1-2.928 2.173 6.9 6.9 0 0 1-4.518-.935 23.7 23.7 0 0 1-4.23-2.945q-2.266-1.899-4.557-3.77-4.635-3.779-9.378-7.423-9.423-7.246-19.253-13.942a34 34 0 0 0-2.409-1.493c-.863-.49-1.769-.869-2.676-1.271a.47.47 0 0 0-.416.021 14 14 0 0 0-.699-1.622c0-.005.005-.007.005-.013a28 28 0 0 0-1.162-4.455q-.65-2.318-1.304-4.634c-.879-3.084-1.728-6.189-2.776-9.221a.022.022 0 0 0-.042.011c.678 3.136 1.564 6.23 2.415 9.321q.621 2.262 1.257 4.519l.665 2.377.214.786a35 35 0 0 0-2.887-3.929l-.132-.436c-.53-1.736-1.076-3.468-1.616-5.201q-1.62-5.204-3.34-10.374a.022.022 0 0 0-.041.012q1.304 4.582 2.69 9.14l1.379 4.498q.267.87.537 1.74-1.344-1.6-2.76-3.135c-.254-.943-.573-1.877-.868-2.797q-.652-2.04-1.385-4.052-1.408-3.864-3.156-7.587c-.005-.011-.021-.001-.017.01q1.678 3.869 3.112 7.84.686 1.902 1.3 3.83c.256.805.48 1.627.724 2.442a88 88 0 0 0-5.383-5.335 30 30 0 0 0-4.792-3.775c-1.84-1.082-3.886-1.434-5.864-2.155-3.066-1.12-5.353-3.652-7.441-6.139a151 151 0 0 0-6.3-15.984c-.011-.024-.053-.007-.043.018q1.666 4.085 3.261 8.199c.965 2.484 1.864 4.995 2.836 7.477q-.498-.599-.987-1.18-1.315-1.562-2.654-3.11c-1.019-2.547-2.142-5.057-3.173-7.598q-1.857-4.578-3.642-9.185c-.007-.019-.037-.011-.03.008q1.674 4.707 3.55 9.336c.945 2.339 1.873 4.707 2.921 7.01-1.291-1.473-2.616-2.915-4.025-4.273-.36-.94-.786-1.861-1.171-2.78-.514-1.224-1.027-2.448-1.55-3.667q-1.655-3.864-3.372-7.7c-.013-.028-.062-.008-.05.02q1.633 3.873 3.268 7.745c.528 1.254 1.061 2.506 1.588 3.76.319.759.62 1.537.947 2.3-.357-.337-.7-.688-1.07-1.013a40 40 0 0 0-3.281-2.574c-.126-.246-.261-.49-.385-.734q-.332-.658-.636-1.331a26 26 0 0 1-1.09-2.895.025.025 0 0 0-.05.014 29 29 0 0 0 1.031 2.927q.275.668.59 1.317l.236.481a63 63 0 0 0-3.735-2.397 30 30 0 0 0-1.232-2.99q-.813-1.886-1.637-3.768c-1.08-2.468-2.21-4.913-3.308-7.373-.022-.047-.106-.013-.086.037 1.004 2.425 1.976 4.863 2.999 7.28q.777 1.837 1.562 3.67c.402.935.76 1.939 1.231 2.861a133 133 0 0 0-2.778-1.585l-.55-.304a17.3 17.3 0 0 0-1.393-3.04q-.785-1.67-1.515-3.365c-.986-2.29-1.93-4.599-2.805-6.934-.01-.025-.05-.015-.042.012a91 91 0 0 0 2.553 6.82q.72 1.7 1.497 3.374c.267.576.536 1.151.816 1.721a8.5 8.5 0 0 0 .726 1.322q-1.746-.968-3.496-1.93c-.349-.705-.743-1.398-1.07-2.078q-.907-1.885-1.772-3.79a274 274 0 0 1-3.44-7.876c-.005-.012-.023-.007-.019.005a147 147 0 0 0 3.151 7.638q.857 1.909 1.755 3.799.437.918.883 1.83l.12.254c-1.087-.6-2.174-1.2-3.252-1.814-.355-.919-.848-1.812-1.254-2.69l-1.678-3.616q-1.682-3.612-3.412-7.201c-.006-.014-.026-.002-.02.012q1.596 3.59 3.227 7.165.804 1.756 1.615 3.51c.39.849.741 1.771 1.177 2.625a115 115 0 0 1-3.434-2.036c-.34-.707-.786-1.388-1.151-2.06-.55-1.012-1.1-2.024-1.634-3.045a195 195 0 0 1-3.108-6.167c-.01-.021-.04-.003-.03.017a148 148 0 0 0 2.955 6.257c.52 1.029 1.045 2.055 1.59 3.07.275.51.54 1.06.836 1.585q-1.964-1.236-3.882-2.538c-.646-1.422-1.403-2.797-2.125-4.179-.828-1.585-1.675-3.16-2.512-4.741-.027-.051-.104-.006-.078.045.807 1.598 1.605 3.202 2.42 4.796.67 1.308 1.315 2.638 2.045 3.916q-2.448-1.666-4.832-3.423-.109-.142-.215-.286a66 66 0 0 1-1.212-1.724q-1.163-1.72-2.177-3.531c-.018-.033-.068-.004-.05.03q1 1.852 2.143 3.624.508.786 1.052 1.55a188 188 0 0 1-10.69-8.595 47 47 0 0 0-2.009-1.612l-.058-.11a15 15 0 0 0-.859-1.444c-.31-.454-.611-.92-.95-1.352a3.2 3.2 0 0 0-.538-.603 19 19 0 0 0-.503-3.016 13.8 13.8 0 0 0-2.686-5.138c-.048-.061-.152-.007-.108.063a16.6 16.6 0 0 1 1.875 5.112 12.4 12.4 0 0 1 .311 2.669 18.4 18.4 0 0 1-.326 2.72c-.054.358.086.842.515.908.49.076.648.41.94.781.316.403.624.816.952 1.21q1.02 1.222 2.005 2.47c.06.076.17-.02.128-.1-.605-1.13-1.146-2.301-1.778-3.417a9.6 9.6 0 0 0-1.1-1.876c1.189 1.171 2.307 2.422 3.545 3.543 1.537 1.392 3.056 2.803 4.6 4.188 3.103 2.784 6.36 5.427 9.663 7.97 6.841 5.27 14.752 8.757 22.061 13.277a45 45 0 0 1 9.45 7.82c2.727 2.944 5.135 6.173 7.892 9.086a19.6 19.6 0 0 0 4.405 3.622c1.83 1.047 3.873 1.381 5.825 2.11a16 16 0 0 1 4.725 3.12q2.381 2.07 4.605 4.313 2.193 2.205 4.227 4.562a43 43 0 0 1 3.709 4.761c1.807 2.815 3.044 6.573.63 9.436a3.92 3.92 0 0 1-3.677 1.576 10.5 10.5 0 0 1-2.741-1.22l-3.089-1.64-12.024-6.387-24.047-12.773c-3.901-2.073-7.898-4.032-11.652-6.367-3.627-2.257-6.84-5.107-10.465-7.365a92 92 0 0 0-11.377-5.701 37 37 0 0 0-5.9-2.23 24.5 24.5 0 0 0-6.297-.51 14.4 14.4 0 0 1-6.03-1.18 31 31 0 0 1-2.247-1.125c.123.017.246.04.369.057a.14.14 0 0 0 .075-.27 96 96 0 0 0-2.25-.768c-.499-.269-1-.532-1.51-.776q-6.15-2.95-12.176-6.128a84 84 0 0 0-5.928-2.846.047.047 0 0 0-.048.081c1.912 1.317 3.866 2.511 5.874 3.675q2.908 1.685 5.797 3.404c-.428-.146-.86-.284-1.285-.435-1.888-.672-3.913-1.071-5.845-1.604q-2.922-.805-5.836-1.639-11.654-3.333-23.176-7.111c-7.654-2.51-15.24-5.202-22.809-7.96a113 113 0 0 0-11.217-3.608 54 54 0 0 0-5.766-1.122 30 30 0 0 0-6.03-.365c-2.243.152-4.505.403-6.74.66q-3.32.382-6.605.994c-.817.153-1.635.32-2.452.487a56 56 0 0 0-6.58 1.355c-.63.173-1.254.364-1.877.562 1.602-.9 3.2-1.804 4.756-2.786.729-.46 1.46-.908 2.167-1.404a.156.156 0 0 0-.158-.27 49 49 0 0 1-4.79 1.92c-1.634.555-3.237 1.282-4.816 1.978a22.3 22.3 0 0 0-8.022 5.903 40 40 0 0 1-3.498 4.412 10.3 10.3 0 0 1-4.332 2.176c-3.436.922-7.038.973-10.494 1.82a59 59 0 0 0-11.364 4.32c-3.775 1.813-7.48 3.773-11.215 5.668-7.793 3.954-15.624 7.83-23.444 11.73-3.924 1.959-7.817 3.978-11.744 5.932q-4.269 2.126-8.517 4.297 8.49-5.345 16.933-10.764c4.486-2.888 8.956-5.781 13.307-8.87 4.32-3.067 8.605-6.177 12.942-9.218q1.652-1.159 3.308-2.31c.159-.112.014-.371-.153-.264-8.969 5.74-18.187 11.063-27.128 16.844q-13.366 8.642-26.867 17.071-13.5 8.43-27.11 16.685-13.592 8.28-27.35 16.286c-9.16 5.355-18.33 10.69-27.408 16.184-1.153.698-2.253 1.469-3.354 2.245a.059.059 0 0 0 .059.1c4.901-2.095 9.568-4.746 14.25-7.288 4.682-2.543 9.307-5.19 13.937-7.827 9.22-5.249 18.356-10.653 27.467-16.088q13.67-8.154 27.198-16.535c1.361-.846 2.715-1.705 4.075-2.555a.2.2 0 0 0 .114.008c2.018-.671 3.963-1.56 5.904-2.426q3.04-1.359 6.061-2.757c3.993-1.836 7.957-3.734 11.937-5.598 7.914-3.707 15.71-7.671 23.51-11.613 3.846-1.944 7.676-3.922 11.525-5.863a75 75 0 0 1 11.041-4.748 38 38 0 0 1 5.843-1.374c1.7-.257 3.413-.425 5.108-.719a18 18 0 0 0 4.93-1.496 11.26 11.26 0 0 0 3.995-3.435 31.7 31.7 0 0 1 3.346-4.136 22.3 22.3 0 0 1 4.018-2.939c.198-.116.4-.227.598-.342.716-.1 1.429-.248 2.14-.371 1.199-.208 2.404-.377 3.605-.577a276 276 0 0 0 7.21-1.32c2.4-.467 4.761-1.074 7.178-1.46a112 112 0 0 0 3.979-.722c.39.002.781.006 1.17.024 1.923.092 3.858.287 5.778.446a46 46 0 0 1 5.84.884 90 90 0 0 1 11.276 3.37c7.493 2.672 14.955 5.412 22.506 7.919q11.39 3.782 22.917 7.13 6.402 1.86 12.843 3.584c1.104.296 2.216.448 3.331.687q1.663.356 3.327.704c.256.053.516.096.774.147a52 52 0 0 0 7.475 4.058 15.6 15.6 0 0 0 6.14 1.19 23.3 23.3 0 0 1 6.446.556 43 43 0 0 1 5.941 2.338c1.994.892 3.985 1.792 5.935 2.775a54 54 0 0 1 5.567 3.194c1.805 1.2 3.52 2.527 5.259 3.818a87 87 0 0 0 11.257 6.816l24.6 13.066 12.245 6.503 6.177 3.281c1.724.916 3.53 2.103 5.57 1.864 3.388-.398 5.765-3.845 5.864-7.096a9.4 9.4 0 0 0-.276-2.51c.596.56 1.19 1.116 1.835 1.624.81.637 1.622 1.236 2.474 1.817q2.492 1.7 4.958 3.437 4.982 3.506 9.858 7.16 4.917 3.683 9.72 7.515c3.118 2.487 6.124 5.122 9.263 7.58 2.645 2.072 6.021 4.25 9.547 3.48a6.14 6.14 0 0 0 4.095-3.137l.06.059a41 41 0 0 0 1.917 1.678 40 40 0 0 0 3.848 2.91c2.423 1.564 5.535 2.859 8.428 1.885a7.83 7.83 0 0 0 4.91-6.17c.608-3.375-.333-6.858-1.223-10.1m-78.164-315.73q.167-.916.312-1.837a1.14 1.14 0 0 0 .668-1.293c.103-.08.214-.15.321-.227-.406 1.13-.817 2.258-1.3 3.357M453.051 9.53c-1.078 1.42-2.133 2.846-3.296 4.2a68 68 0 0 1-5.283 5.456c.253-.394.503-.791.77-1.178 1.005-1.458 2.099-2.852 3.236-4.21 1.092-1.305 2.222-2.579 3.35-3.853a21 21 0 0 1 1.587-1.691 5.2 5.2 0 0 1 1.496-.917 23 23 0 0 0-1.86 2.193m23.198-7.226q-1.365 1.351-2.72 2.713-2.683 2.693-5.37 5.381c-.23.23-.45.467-.673.701q.376-.455.76-.904 1.449-1.703 2.948-3.363a146 146 0 0 1 2.925-3.16 4.5 4.5 0 0 1 2.235-1.47q-.052.052-.105.102m.977 34.514a75 75 0 0 0 2.027-2.8l-.147.478a99 99 0 0 1-1.498 4.618c-.163.456-.336.908-.505 1.362a24 24 0 0 0 .123-3.658m-1.774 2.23a74 74 0 0 0 1.606-2.012 134 134 0 0 1-.254 4.247q-.728 1.897-1.558 3.751c.101-.825.178-1.654.211-2.484a30 30 0 0 0-.005-3.503m-.228.285c-.022 1.072-.01 2.147-.061 3.217q-.074 1.54-.187 3.076a56 56 0 0 1-1.103 2.275c-.204.395-.423.782-.636 1.173a41.4 41.4 0 0 0 .395-7.89q.81-.912 1.592-1.851m-3.466 3.822c.292-.295.599-.575.883-.877.284-.3.557-.611.833-.92a80 80 0 0 1-.515 8.23 59 59 0 0 1-1.538 2.58q.14-1.25.235-2.505a57 57 0 0 0 .102-6.508m-.123.122a227 227 0 0 1-.331 6.018c-.08 1.144-.182 2.287-.293 3.429l-.011.112a57 57 0 0 1-1.613 2.346 52 52 0 0 0 .457-10.186q.915-.84 1.791-1.72m-1.99 1.9c-.13 3.5-.342 6.987-.59 10.479a55 55 0 0 1-1.402 1.822 42 42 0 0 0 .51-4.372 44 44 0 0 0-.044-6.633 38 38 0 0 0 1.526-1.297m-1.914 1.626c.102-.08.195-.17.295-.251q.05 3.219-.188 6.433c-.123 1.673-.38 3.328-.592 4.988a54 54 0 0 1-1.906 2.177 90 90 0 0 0 .914-12.248q.75-.53 1.477-1.1m-55.623 47.854q2.68-2.594 5.257-5.29a54 54 0 0 0 4.932-5.701.6.6 0 0 0 .07-.152q.638-.213 1.265-.484a25.4 25.4 0 0 0 5.361-3.255c3.695-2.83 7.007-6.168 10.414-9.33l11.306-10.495c1.784-1.656 3.549-3.337 5.387-4.934a46.5 46.5 0 0 1 5.793-4.265c1.445-.907 2.884-1.808 4.273-2.789-.228 4.165-.68 8.305-1.06 12.456a51 51 0 0 1-2.059 2.088c.308-4.1.617-8.204.846-12.308.002-.023-.032-.022-.035 0-.513 4.099-.78 8.248-.884 12.379-.175.168-.345.34-.524.505a46 46 0 0 1-7.566 5.682 87 87 0 0 1-9.562 4.509 25.2 25.2 0 0 0-4.954 2.868 54 54 0 0 0-4.149 3.562c-1.349 1.25-2.691 2.514-4.143 3.647a45 45 0 0 1-4.283 2.903c-2.997 1.823-6.146 3.367-9.223 5.044-.733.4-1.468.801-2.194 1.217q.132-.25.279-.502a.059.059 0 0 0-.092-.071c-.539.499-1.148.89-1.68 1.406-.078.076-.16.147-.239.223-.168.106-.344.202-.51.312a31 31 0 0 0-3.977 3.29c-.257.239-.496.498-.735.757-.975.714-1.99 1.37-2.945 2.107-.516.399-1.019.805-1.525 1.208a218 218 0 0 0 7.156-6.587m-64.379 67.225q1.315.73 2.612 1.49c.751.44 1.492.896 2.242 1.336q-.908.375-1.798.78-.218-.131-.433-.256a25 25 0 0 0-1.202-.658 23 23 0 0 0-2.183-.973q.4-.852.762-1.72m-1.423 3.096q.318-.65.628-1.308c.719.364 1.44.727 2.148 1.11a67 67 0 0 1 1.471.818c-.654.3-1.31.595-1.954.922-.061-.03-.124-.065-.182-.094a13 13 0 0 0-1.037-.459q-.524-.21-1.057-.397-.136-.046-.274-.088c.084-.168.174-.335.257-.504m-.4.784.295.11q.514.184 1.02.39c.347.142.69.292 1.038.434-.366.189-.733.374-1.098.572a46 46 0 0 0-3.034 1.787 55 55 0 0 0 1.78-3.293m-98.968 38.813c.528-.038 1.055-.099 1.583-.144a1.43 1.43 0 0 0 .876.534c.177.158.375.29.56.438q-1.494-.466-3.02-.828m7.085 2.345a11 11 0 0 0-2.192-1.8c-.115-.07-.239-.138-.359-.207-.345-.23-.7-.444-1.058-.654.106-.012.213-.017.319-.03.341-.039.682-.091 1.023-.134.353.363.733.705 1.078 1.04.705.683 1.416 1.36 2.122 2.042q.155.152.308.305c-.413-.187-.823-.385-1.241-.562m3.658 1.753-.026-.028a43 43 0 0 0-2.091-2.076 35 35 0 0 0-2.231-1.933c-.262-.207-.537-.427-.818-.64.491-.065.982-.145 1.473-.217 1.145 1.38 2.303 2.749 3.442 4.134.291.354.57.718.853 1.078q-.302-.157-.602-.318m2.506 1.457a49 49 0 0 0-2.082-2.625 37 37 0 0 0-3.655-3.794 92 92 0 0 0 1.839-.305c1.322 1.733 2.696 3.427 3.982 5.188.722.99 1.401 2.028 2.106 3.045a45 45 0 0 0-2.19-1.509m5.99 4.495q-1.12-.943-2.27-1.835a30 30 0 0 0-3.104-4.624 38 38 0 0 0-4.299-4.796q1.049-.183 2.091-.396a67 67 0 0 1 5.581 7.122 62 62 0 0 1 2.605 4.23c.249.44.482.897.714 1.357-.442-.348-.885-.694-1.318-1.058m1.952-3.104c1 1.615 1.92 3.274 2.814 4.95.439.822.865 1.651 1.317 2.466q.054.097.106.197a64 64 0 0 1-3.65-2.512c-.401-.873-.892-1.717-1.339-2.52a50 50 0 0 0-2.768-4.383 47 47 0 0 0-5.825-6.785q1.262-.26 2.514-.566a58 58 0 0 1 6.831 9.153m20.054-20.284c-.65-.422-1.302-.841-1.95-1.266q1.206-.973 2.402-1.958.886.586 1.78 1.16-1.122 1.025-2.232 2.064m-.172.16c-.735.686-1.472 1.367-2.201 2.06q-1.156-.665-2.32-1.315a29 29 0 0 0 2.59-2.044c.638.442 1.287.867 1.93 1.3m5.654-5.162q-.29.261-.58.525c-.42-.269-.841-.533-1.258-.805-.067-.045-.129.063-.063.108l1.198.807q-1.198 1.07-2.383 2.155c-.609-.37-1.222-.733-1.828-1.107l.806-.656c1.31-1.083 2.647-2.131 3.965-3.2l1.508.971q-.684.6-1.365 1.202m1.48-1.303-1.53-.946a72 72 0 0 0 2.585-2.188c.544.256 1.089.508 1.63.768zm5.448-4.846a265 265 0 0 1-2.456 2.205c-.448-.344-.893-.691-1.347-1.028.78-.706 1.544-1.43 2.318-2.142l.155.104zm2.956-8.44q.772.374 1.548.738-.884.834-1.77 1.667a8.6 8.6 0 0 0-1.558-.7q.894-.849 1.78-1.704m-1.93 1.846a13 13 0 0 1 1.5.756c-.715.67-1.446 1.322-2.165 1.988a26 26 0 0 0-1.389-.793c-.012-.006-.016.007-.026.007.699-.647 1.387-1.305 2.08-1.958m-2.13 2.004c0 .02-.007.04.013.055.4.31.814.602 1.231.888q-.92.85-1.845 1.696a7 7 0 0 0-.619-.428 1.4 1.4 0 0 0-.777-.285.6.6 0 0 0-.118.04c.712-.648 1.41-1.312 2.116-1.966m-2.326 2.156-.001.001a.14.14 0 0 0 .071.178.03.03 0 0 0 .038-.046l.024.009a.27.27 0 0 1 .153.085 4.5 4.5 0 0 0 .572.509c.112.08.228.152.342.23-.578.526-1.144 1.064-1.726 1.586q-.301.268-.61.532a16 16 0 0 0-.684-.41 8 8 0 0 0-.717-.383q1.274-1.14 2.538-2.29m-10.199 9.111q3.507-3.123 7.02-6.246a4.7 4.7 0 0 0 .824.534c.173.099.351.186.525.282a24 24 0 0 0-1.848 1.712c-.173.183-.361.35-.54.528l-.591-.366c-.048-.03-.09.044-.044.074l.563.362a67 67 0 0 1-2.652 2.455c-.608.54-1.243 1.051-1.865 1.576-.475-.294-.952-.584-1.425-.882Zm-.093.083c.458.309.922.61 1.382.915-.605.509-1.197 1.033-1.81 1.53l-.564.45c-.437-.287-.88-.565-1.315-.854.768-.682 1.541-1.36 2.307-2.041m-2.404 2.126c.42.299.846.59 1.268.885q-.565.456-1.133.908c-.491.388-1.008.754-1.467 1.178-.415-.23-.826-.466-1.242-.694.866-.752 1.717-1.516 2.574-2.277m-4.516 6.028a43 43 0 0 0-2.4-.147c.578-.44 1.14-.901 1.704-1.36q1.102.591 2.212 1.154.6.303 1.206.599c-.907-.084-1.814-.17-2.722-.246m5.214.47q-.73-.062-1.46-.131-1.018-.59-2.06-1.133-.99-.52-1.994-1.028c.696-.573 1.37-1.174 2.052-1.765.406.25.818.492 1.225.74-.096.097-.195.192-.283.298a.079.079 0 0 0 .095.122c.156-.073.302-.173.453-.26 1.943 1.18 3.897 2.343 5.901 3.414q-1.965-.086-3.929-.256m4.479.284a92 92 0 0 0-3.657-2.197q1.231-.925 2.432-1.884c.364.242.72.495 1.088.732a58 58 0 0 0 5.418 3.275c-.11.008-.22.02-.33.027a51 51 0 0 1-4.951.047M492.072 348.7a3.3 3.3 0 0 1-.394 1.255c-.033.065-.057.127-.088.192a43.5 43.5 0 0 0-4.614-7.08 55.2 55.2 0 0 0-13.823-11.71c-2.87-1.815-5.816-3.491-8.744-5.206-1.46-.856-2.918-1.713-4.34-2.634-.382-.248-.76-.504-1.14-.755q-.479-.586-.964-1.165-1.369-1.625-2.794-3.2-2.85-3.152-5.918-6.099a121 121 0 0 0-4.873-4.41c.39.258.776.518 1.175.76 1.1.667 2.188 1.353 3.297 2.006q3.271 1.925 6.555 3.828c4.313 2.492 8.716 4.835 12.995 7.382a60.1 60.1 0 0 1 18.921 17.336 58 58 0 0 1 3.628 5.972 6.83 6.83 0 0 1 1.12 3.527"/><path fill="currentColor" d="M194.61 283.594a13.5 13.5 0 0 0-4.366.355c-1.51.284-3.005.651-4.514.937a.027.027 0 0 0 .007.054c1.53-.134 3.067-.187 4.597-.324a13.5 13.5 0 0 0 4.299-.844.099.099 0 0 0-.024-.178m1.335-3.136a6.7 6.7 0 0 0-1.108.234 9 9 0 0 1-1.2.182c-.41.032-.753-.203-1.158-.121-.375.076-.739.192-1.12.259a43 43 0 0 0-4.593 1.05c-.035.01-.02.058.015.053 1.548-.208 3.093-.427 4.645-.603.39-.044.763-.024 1.149-.05.359-.025.572-.284.913-.366a5.3 5.3 0 0 1 1.214-.096 10 10 0 0 0 1.243.044c.363-.045.387-.6 0-.586m1.975-2.014a1.14 1.14 0 0 0-.779.042 4.7 4.7 0 0 1-1.084.198c-.75.042-1.5.05-2.25.1a29 29 0 0 0-4.315.717c-.025.006-.02.049.007.046a41 41 0 0 0 4.49-.621 6.2 6.2 0 0 1 2.476-.075c.503.104 1.244.367 1.522-.24a.116.116 0 0 0-.067-.167m1.987-1.804a5.3 5.3 0 0 0-2.125-.146q-1.129.021-2.256.086a21 21 0 0 0-4.499.616.02.02 0 0 0 .005.038c1.5.02 2.997-.15 4.494-.23q1.127-.06 2.256-.078a6.2 6.2 0 0 0 2.105-.136c.057-.022.092-.12.02-.15m1.32-1.559a29.3 29.3 0 0 0-5.795.188c-.026.003-.028.044 0 .043 1.932-.128 3.862-.115 5.795-.172a.03.03 0 0 0 0-.059m36.402-65.451a21 21 0 0 0-1.658-2c-.03-.032-.076.015-.047.047a21 21 0 0 1 1.681 2.055c.505.704.93 1.453 1.403 2.177a.016.016 0 0 0 .027-.016 13.4 13.4 0 0 0-1.406-2.262m1.748-1.662c-.027-.03-.07.014-.044.044a27 27 0 0 1 2.444 3.311c.71 1.137 1.317 2.323 1.962 3.496.014.025.056.008.046-.02a21.5 21.5 0 0 0-4.408-6.831m3.597.321c-.022-.025-.056.011-.036.036a36.2 36.2 0 0 1 5.044 8.711c.018.04.079.011.068-.028a21.75 21.75 0 0 0-5.076-8.72m7.221 6.045c-.793-1.383-1.685-2.7-2.601-4.004-.03-.043-.1-.003-.07.041.858 1.308 1.636 2.668 2.397 4.035.758 1.363 1.381 2.817 2.207 4.14.034.055.128.02.107-.045a22 22 0 0 0-2.04-4.167m4.794 3.956q-.51-.996-1.052-1.972a80 80 0 0 0-2.259-3.773.037.037 0 0 0-.064.038 90 90 0 0 1 2.103 3.78q.506.956.995 1.921c.323.637.593 1.326.975 1.93l.007-.006c.06.088.219.042.18-.073a14.4 14.4 0 0 0-.885-1.846m2.633-.625a15.6 15.6 0 0 0-1.847-2.427c-.026-.028-.066.013-.042.041a19 19 0 0 1 1.789 2.497c.515.86.907 1.771 1.356 2.665.015.027.059.008.05-.022a11 11 0 0 0-1.306-2.754m3.212 1.19c-.026-.031-.07.013-.044.044.392.458.783.916 1.185 1.365.014.015.035-.007.022-.022-.38-.469-.772-.928-1.163-1.387m-29.13-20.428a111 111 0 0 1-12.452-5.724.018.018 0 0 0-.018.03 46 46 0 0 0 12.438 5.81c.078.02.102-.087.032-.116m12.364-.576a10.7 10.7 0 0 0-2.36-.841c-.822-.25-1.652-.473-2.47-.738-1.75-.566-3.455-1.237-5.146-1.96a174 174 0 0 1-9.591-4.442c-.018-.009-.034.018-.016.027a97 97 0 0 0 9.58 4.48c1.672.67 3.355 1.314 5.026 1.987.803.324 1.596.668 2.405.976a9.6 9.6 0 0 0 2.505.758c.136.011.174-.184.067-.248m8.433-.379c-.38-.547-1.317-.727-1.91-.969q-1.286-.524-2.58-1.03c-1.8-.701-3.596-1.394-5.362-2.182-1.694-.756-3.342-1.597-5.002-2.424-1.67-.832-3.391-1.527-5.099-2.274-.04-.018-.076.04-.035.06 1.645.865 3.266 1.752 4.977 2.483 1.75.747 3.514 1.459 5.252 2.235 1.692.757 3.355 1.568 5.032 2.355q1.257.59 2.533 1.14c.608.264 1.478.842 2.146.72a.08.08 0 0 0 .047-.114m7.171-1.689a15.5 15.5 0 0 0-2.246-1.043c-.84-.295-1.686-.57-2.527-.86a81 81 0 0 1-4.89-1.836c-3.255-1.362-6.522-2.677-9.792-4.002-.04-.016-.07.053-.03.072 3.152 1.438 6.302 2.8 9.543 4.03a139 139 0 0 1 5.037 2.05c.763.324 1.526.649 2.292.966a14.6 14.6 0 0 0 2.556.759c.079.017.135-.094.057-.136m-2.953-5.306c-1.677-.746-3.407-1.354-5.119-2.016-1.76-.68-3.52-1.368-5.266-2.085-.013-.005-.021.015-.01.021a50.5 50.5 0 0 0 10.373 4.134c.03.007.054-.04.022-.054m7.463 2.953a4 4 0 0 0-.574-.336c-.186-.081-.375-.155-.563-.231q-.622-.252-1.25-.485-1.256-.466-2.499-.966c-.036-.015-.063.048-.027.064q1.233.525 2.45 1.082.61.28 1.226.54.28.122.562.236a4 4 0 0 0 .645.168.04.04 0 0 0 .03-.072m6.589-2.471a8.7 8.7 0 0 0-1.77-.583q-.988-.293-1.974-.596-1.97-.607-3.92-1.28-3.899-1.34-7.739-2.844c-.042-.017-.06.05-.018.068a176 176 0 0 0 7.698 2.992q1.885.68 3.78 1.33.976.336 1.956.662a8.5 8.5 0 0 0 1.906.549.161.161 0 0 0 .08-.298m4.052-2.687a14.5 14.5 0 0 0-2.88-.948q-1.443-.428-2.89-.846-3.003-.872-6.03-1.656a.022.022 0 0 0-.01.042q2.967.994 5.962 1.899 1.441.436 2.884.866a14.6 14.6 0 0 0 2.929.774.07.07 0 0 0 .035-.131m4.706-2.613a41 41 0 0 1-4.048-.411 19.7 19.7 0 0 1-3.778-1.107c-.04-.015-.057.048-.018.064a22 22 0 0 0 3.907 1.185 13.8 13.8 0 0 0 3.937.331.031.031 0 0 0 0-.062m2.213-2.543c-.909-.096-1.818-.104-2.73-.129q-1.364-.038-2.723-.15c-.02-.001-.025.032-.005.035a22.6 22.6 0 0 0 5.458.31.033.033 0 0 0 0-.066m2.55-2.171a4.53 4.53 0 0 0-2.394-.096c-.024.004-.019.045.006.042a11.3 11.3 0 0 1 2.38.115c.037.004.038-.05.008-.061m3.366-2.02a1 1 0 0 0-.302.002 1.4 1.4 0 0 0-.562.206.09.09 0 0 0 .09.155 1.4 1.4 0 0 1 .489-.15 2 2 0 0 1 .257-.007h.136a.2.2 0 0 0 .127-.023.05.05 0 0 0 .018-.07c-.044-.08-.171-.1-.253-.113m39.543-78.694a32 32 0 0 0-3.606-.264 56 56 0 0 1-3.715-.314c-.015-.002-.019.024-.004.027q1.778.336 3.576.547a15.2 15.2 0 0 0 3.736.1c.049-.007.073-.086.013-.096m1.856-2.162a13 13 0 0 1-2.033.1 7 7 0 0 1-1.053-.226 5 5 0 0 0-.933-.041c-1.382-.033-2.765-.058-4.147-.089-.028 0-.027.04 0 .043 1.382.15 2.764.304 4.147.449a5 5 0 0 0 .933.066 10 10 0 0 1 1.053-.12c.683.004 1.353.104 2.033.127.2.007.197-.324 0-.309m.2-1.838a7 7 0 0 0-1.309.002q-.694.016-1.389.005a42 42 0 0 1-2.771-.125c-.02-.002-.025.031-.005.034.903.127 1.812.229 2.723.278q.694.038 1.389.049a5.3 5.3 0 0 0 1.362-.055c.088-.023.097-.172 0-.189m.053-1.38q-.091-.035-.185-.062a1.7 1.7 0 0 0-.353-.063 2.8 2.8 0 0 0-.74.052c-.042.008-.023.07.018.064a2.2 2.2 0 0 1 .717.008q.169.029.335.07.083.02.164.047a.24.24 0 0 0 .15.02.034.034 0 0 0 .02-.049.2.2 0 0 0-.126-.087m21.717 66.319c-.009-.005-.017.008-.008.014.689.44 1.376.884 2.068 1.32.01.008.02-.01.01-.016q-1.033-.663-2.07-1.318m9.911-37.811a18.4 18.4 0 0 1-1.427 3.032c-.54.948-1.154 1.852-1.677 2.808a.06.06 0 0 0 .095.074 12.7 12.7 0 0 0 3.084-5.893c.015-.049-.059-.068-.075-.021m-2.335.677c-.416.777-.906 1.509-1.38 2.251-.233.366-.475.725-.709 1.09a3.7 3.7 0 0 0-.61 1.119c-.01.054.048.111.101.077a3.1 3.1 0 0 0 .767-.948c.242-.375.466-.763.685-1.153.439-.78.808-1.598 1.207-2.4.02-.04-.04-.076-.061-.036m-2.496 1.551q-.48.616-.964 1.228-.232.288-.455.584a3 3 0 0 0-.421.621c-.016.04.037.056.062.037a3.2 3.2 0 0 0 .496-.583q.226-.294.444-.593.455-.62.918-1.233c.034-.045-.045-.107-.08-.061m44.706-58.711a4 4 0 0 0-.876-.436 3.5 3.5 0 0 1-1.003-.457 8 8 0 0 1-1.62-1.386 20 20 0 0 1-2.594-3.964c-.01-.018-.036-.002-.027.016a19 19 0 0 0 2.548 4.164 8.2 8.2 0 0 0 1.608 1.415c.304.201.621.39.934.576a1.8 1.8 0 0 0 1.004.17.053.053 0 0 0 .026-.098m1.363.245a20 20 0 0 0-2.432-2.315c-.41-.359-.83-.705-1.247-1.057q-.321-.271-.64-.546a4 4 0 0 0-.636-.516c-.08-.043-.195.05-.134.134a3.7 3.7 0 0 0 .552.53q.314.279.625.561c.427.388.849.782 1.283 1.161a20 20 0 0 0 2.596 2.091c.028.018.052-.02.033-.043M373.532 96.81c-1.786-1.08-3.612-2.074-5.349-3.24-1.298-.872-3.164-1.952-3.829-3.511a3.63 3.63 0 0 0 2.473.988c.06-.002.094-.092.033-.12a7.9 7.9 0 0 1-2.81-1.865.244.244 0 0 0-.412.17 3.3 3.3 0 0 0 1.233 2.198c.824.685 1.633 1.383 2.49 2.028a27 27 0 0 0 5.687 3.396 6.6 6.6 0 0 1-3.389-.678 2.5 2.5 0 0 0-.682-.197 3.6 3.6 0 0 1-1.092-.388 12 12 0 0 1-1.572-.936 18.5 18.5 0 0 1-4.857-5.34.014.014 0 0 0-.024.013 17.4 17.4 0 0 0 4.762 5.725 12 12 0 0 0 1.646 1.018q.228.116.46.222a3 3 0 0 1 .504.342 2 2 0 0 0 .765.253 20 20 0 0 0 3.902.146.12.12 0 0 0 .06-.224m63.529-46.571c-.684-.533-1.476-.9-2.198-1.382a17 17 0 0 1-2.119-1.683 16.2 16.2 0 0 1-3.313-4.267c-.007-.013-.026-.001-.02.012a15.4 15.4 0 0 0 3.084 4.505 14.7 14.7 0 0 0 2.067 1.716 6.7 6.7 0 0 0 2.43 1.216c.062.012.13-.07.07-.117m.993-.96c-.65-.506-1.43-.813-2.128-1.254a16.1 16.1 0 0 1-5.395-5.668c-.01-.017-.036-.002-.027.016a16.2 16.2 0 0 0 3.161 4.195 16.4 16.4 0 0 0 2.02 1.638 6.5 6.5 0 0 0 2.3 1.19c.061.012.13-.07.069-.117m19.902 1.224a3 3 0 0 0-.554-.42q-.337-.241-.661-.496-.603-.47-1.16-.993a18 18 0 0 1-2.074-2.322c-.013-.018-.043-.002-.03.018a15.6 15.6 0 0 0 1.98 2.426q.552.554 1.155 1.052.298.245.61.475a2.4 2.4 0 0 0 .647.41c.092.03.141-.086.087-.15m-11.778 19.603a9.7 9.7 0 0 1-2.837-3.259c-.015-.03-.058-.004-.044.026a7.1 7.1 0 0 0 2.846 3.28c.028.015.062-.026.035-.047m-49.644 247.601a9.2 9.2 0 0 0-4.084 3.006 27.4 27.4 0 0 0-2.667 4.388 7.5 7.5 0 0 1-.393-1.657 1.5 1.5 0 0 1 .224-1.087c.146-.187.33-.362.484-.545a27 27 0 0 1 2.2-2.246 14.2 14.2 0 0 1 2.552-1.97c.269-.156.688-.313.703-.684a.34.34 0 0 0-.43-.355.128.128 0 0 0-.057.213c.154.145-.943.75-1.072.838-.385.263-.755.55-1.112.85a29 29 0 0 0-2.115 2.023 14 14 0 0 0-.913.99 2.3 2.3 0 0 0-.438 1.06 3.15 3.15 0 0 0-.18 1.253 6.3 6.3 0 0 0 .447 1.55.082.082 0 0 0 .157 0 15.57 15.57 0 0 1 6.709-7.591c.018-.011.006-.043-.015-.036m-23.889-22.637a11.2 11.2 0 0 0-5.774 3.87 24 24 0 0 0-2.096 3.104c-.587 1.026-1.046 2.117-1.6 3.153a1.8 1.8 0 0 1 .03-.693.031.031 0 0 0-.061-.017 2.95 2.95 0 0 0-.239 1.261c.014.213.342.285.392.053a12.7 12.7 0 0 1 1.516-3.511 24 24 0 0 1 2.116-3.16 11.7 11.7 0 0 1 5.736-3.988.037.037 0 0 0-.02-.071m-3.662.049c-.99.887-2.039 1.702-2.95 2.675a19 19 0 0 0-2.365 3.114c-.02.032.031.061.05.03a18 18 0 0 1 2.422-3.103 11.5 11.5 0 0 1 3.087-2.4c.248-.121-.014-.522-.244-.316m41.803 7.84a.166.166 0 0 0-.247.142c.038.535-.635.93-.982 1.233a17 17 0 0 0-1.268 1.23 18 18 0 0 0-2.012 2.603 16.5 16.5 0 0 0-2.344 6.058 1.14 1.14 0 0 1-.296-.922 5 5 0 0 1 .236-.903c.183-.595.384-1.185.59-1.772a28 28 0 0 1 1.51-3.592 15.6 15.6 0 0 1 4.201-5.219c.044-.034-.013-.107-.059-.076a13.2 13.2 0 0 0-4.241 4.88 26 26 0 0 0-1.453 3.271 50 50 0 0 0-.616 1.763c-.22.665-.51 1.315-.708 1.983a.22.22 0 0 0 .056.214c.247.226.524.405.764.64a.09.09 0 0 0 .148-.039 19 19 0 0 1 3.067-6.808 17.3 17.3 0 0 1 2.525-2.795c.323-.288 2.182-1.391 1.129-1.89m39.752 28.172a18.7 18.7 0 0 0-5.6 3.597 17.8 17.8 0 0 0-3.95 5.268 2 2 0 0 0-.229-.042 4 4 0 0 1 .561-1.619 13 13 0 0 1 .65-1.21 16 16 0 0 1 1.804-2.417 20 20 0 0 1 2.024-1.97c.734-.616 1.589-1.093 2.288-1.746a.07.07 0 0 0-.069-.117 7.1 7.1 0 0 0-2.399 1.467 14 14 0 0 0-2.193 2.232 16.3 16.3 0 0 0-1.584 2.476 20 20 0 0 0-.657 1.382 5.3 5.3 0 0 1-.698 1.551.163.163 0 0 0 .033.251 1.8 1.8 0 0 0 .52.24.225.225 0 0 0 .253-.103 18.8 18.8 0 0 1 3.87-5.31 17.3 17.3 0 0 1 2.6-2.063 19.4 19.4 0 0 1 2.941-1.475c.221-.094.062-.481-.165-.392m-58.235-54.211a.014.014 0 0 0-.026.007 25.5 25.5 0 0 0 1.294 4.085c.01.025.05.007.042-.018-.393-1.37-.898-2.709-1.31-4.074m9.419 10.29c-.529-1.451-1.091-2.888-1.648-4.329-.012-.03-.06-.018-.05.014.497 1.488.987 2.976 1.512 4.455.507 1.426.973 2.884 1.619 4.255.014.031.061.01.053-.022-.38-1.49-.96-2.93-1.486-4.373m1.955.04c-.016-.035-.065-.005-.05.03.468 1.086.877 2.198 1.305 3.3.008.022.04.014.034-.008a26.5 26.5 0 0 0-1.289-3.322m3.011 1.671-.082-.075-.168-.155-.332-.306c-.022-.02-.055.013-.033.033l.332.315.16.153.086.081a1 1 0 0 0 .09.064c.015.011.028-.011.018-.024a1 1 0 0 0-.071-.086m-29.108.457q-.209-.416-.411-.836-.377-.785-.742-1.575-.78-1.686-1.468-3.413c-.017-.043-.088-.025-.071.02q.615 1.671 1.314 3.31.355.83.741 1.646.186.394.377.785a2.2 2.2 0 0 0 .457.748c.017.015.052.007.05-.02a1.8 1.8 0 0 0-.247-.664m18.004 19.229q-.561-1.447-1.101-2.9-1.107-2.962-2.139-5.95c-.006-.02-.036-.011-.03.008a199 199 0 0 0 2.103 6.078q.553 1.51 1.133 3.01a28 28 0 0 0 1.13 2.778.031.031 0 0 0 .057-.024c-.305-1.02-.768-2.007-1.153-3m2.295-.115q-.266-.728-.56-1.444-.59-1.438-1.294-2.824c-.015-.03-.058-.003-.044.026q.71 1.462 1.3 2.979.28.721.53 1.454c.16.472.278.973.475 1.432.027.064.136.018.114-.048a11 11 0 0 0-.521-1.575m1.351-2.662q-.448-.991-.846-2.003c-.016-.042-.083-.024-.067.018q.362.98.768 1.942a12 12 0 0 0 .935 1.932c.014.021.052.009.043-.018-.223-.641-.555-1.252-.834-1.87m8.187 8.722c-.011-.026-.048-.004-.037.022.912 2.154 1.793 4.328 2.806 6.439.008.017.04.005.032-.014-.855-2.18-1.846-4.31-2.801-6.447m2.401-1.136c-.004-.01-.021-.003-.018.007 1.326 3.544 2.597 7.113 3.986 10.632.01.025.05.015.042-.012a111 111 0 0 0-4.01-10.627m17.193 22.858q-.378-1.05-.748-2.104c-.243-.697-.498-1.407-.673-2.125-.1-.408-.088-.823-.21-1.225q-.166-.532-.343-1.06-1.415-4.28-2.852-8.553a.016.016 0 0 0-.03.009q1.206 4.272 2.447 8.535c.406 1.404 1.027 2.69 1.423 4.1.2.715.387 1.433.575 2.152q.14.539.284 1.076a5.5 5.5 0 0 0 .226.795c-.023.011-.048.02-.052.051a.25.25 0 0 0 .086.23.15.15 0 0 0 .147.04l.077-.026a.22.22 0 0 0 .155-.204 4.7 4.7 0 0 0-.512-1.69m.265-9.185a.014.014 0 0 0-.026.007c.606 2.5 1.08 5.024 1.598 7.541.006.026.049.02.046-.006a35 35 0 0 0-1.618-7.542m2.911 11.596a6 6 0 0 0-.17-.498c-.066-.163-.104-.336-.162-.501-.062-.18-.107-.362-.155-.545a.098.098 0 0 0-.188.052c.043.185.086.368.115.555.027.174.072.345.087.52.016.176.051.35.084.525a2 2 0 0 0 .07.275.3.3 0 0 0 .068.12 1 1 0 0 0 .14.08.067.067 0 0 0 .09-.023c.026-.05.072-.085.087-.14a.4.4 0 0 0 0-.144 2 2 0 0 0-.066-.275m2.77.823a54 54 0 0 0-.564-2.152 59 59 0 0 0-1.427-4.307c-.004-.009-.018-.005-.015.005a84 84 0 0 1 1.164 4.293q.256 1.041.488 2.088a13.3 13.3 0 0 0 .54 2.241.106.106 0 0 0 .207-.028 9.2 9.2 0 0 0-.393-2.14m10.426 2.376c-.008-.015-.035-.004-.029.012.418 1.024.783 2.076 1.144 3.121.362 1.05.67 2.124 1.082 3.157a.037.037 0 0 0 .072-.02 24 24 0 0 0-2.27-6.27m4.674 5.361q-.967-3.473-2.127-6.884c-.008-.024-.045-.014-.038.01q1.067 3.439 2 6.92c.616 2.315 1.085 4.686 1.774 6.98a.03.03 0 0 0 .057-.016 57 57 0 0 0-1.666-7.01m3.366 2.067a528 528 0 0 0-1.072-3.425 12.7 12.7 0 0 0-1.189-2.88.012.012 0 0 0-.02.012 16 16 0 0 1 1.184 3.388q.472 1.666.954 3.329a55 55 0 0 0 2.076 6.624c.02.047.086.01.078-.034a58 58 0 0 0-2.011-7.014m4.938 6.853a98 98 0 0 0-.902-3.018 78 78 0 0 0-2.227-6.029c-.013-.031-.064-.02-.053.015a251 251 0 0 1 1.912 6.116c.303 1.005.603 2.01.885 3.022a20 20 0 0 0 .898 2.923.09.09 0 0 0 .167-.045 15 15 0 0 0-.68-2.984m2.776 2.764c-.22-.728-.434-1.457-.66-2.183-.466-1.508-.968-3.006-1.431-4.515a.037.037 0 0 0-.072.02c.427 1.518.815 3.048 1.24 4.568.204.732.417 1.461.626 2.191a13 13 0 0 0 .72 2.189c.035.072.166.04.156-.043a13 13 0 0 0-.579-2.227m1.661.243q-.477-1.384-.965-2.765c-.012-.033-.064-.02-.053.015q.46 1.417.932 2.831c.303.91.581 1.833.957 2.716.01.02.041.006.036-.015-.242-.944-.59-1.86-.907-2.782m2.838 3.714a8.6 8.6 0 0 0-.692-1.36.07.07 0 0 0-.121.07 8.3 8.3 0 0 1 .645 1.362c.17.464.286.945.456 1.409.012.035.07.032.069-.01a4.3 4.3 0 0 0-.357-1.47m21.261 7.834c-.018-.018-.04-.001-.043.02-.388-1.069-.89-2.106-1.348-3.143q-.833-1.884-1.654-3.774c-1.105-2.55-2.219-5.098-3.283-7.666-.017-.043-.088-.025-.071.02.979 2.564 1.968 5.12 3.033 7.65q.737 1.75 1.5 3.49a36 36 0 0 0 1.81 3.828.078.078 0 0 0 .14-.019.313.313 0 0 0-.084-.406m2.297-1.134c-.38-.774-.769-1.543-1.158-2.312-.764-1.51-1.59-2.987-2.37-4.489-.01-.018-.036-.002-.028.016.704 1.513 1.363 3.048 2.082 4.555.358.751.717 1.503 1.086 2.25a15 15 0 0 0 1.2 2.184c.042.058.145.026.122-.05a14 14 0 0 0-.934-2.154m1.222-2.409a.01.01 0 0 0-.016.01 38 38 0 0 0 1.958 3.292.018.018 0 0 0 .03-.017 38 38 0 0 0-1.972-3.285M325.83 296.47c-.348-.492-.697-.984-1.015-1.495-.302-.485-.493-1.012-.838-1.468-1.435-1.902-2.765-3.863-4.055-5.866-.018-.027-.061-.002-.044.026 1.245 2.018 2.514 4.02 3.749 6.044a12 12 0 0 0 .954 1.162c.418.528.8 1.082 1.19 1.63a364 364 0 0 0 2.103 2.94c.037.052.122.002.084-.048-.72-.968-1.434-1.94-2.129-2.925m6.867 3.189c-.57-.905-1.303-1.724-1.951-2.575a114 114 0 0 1-1.852-2.519q-1.853-2.579-3.695-5.165c-.019-.026-.062-.002-.044.026q1.794 2.675 3.645 5.31a185 185 0 0 1 1.833 2.647 31 31 0 0 0 1.748 2.52c.146.175.441-.054.316-.244m4.64 1.067c-.022 0-.034.023-.051.039a13 13 0 0 0-.944-1.047 11 11 0 0 1-1.106-1.293 43 43 0 0 1-1.796-2.648c-1.127-1.786-2.193-3.61-3.374-5.362-.011-.016-.038-.001-.027.016 1.233 1.97 2.348 4.013 3.601 5.972a53 53 0 0 0 1.931 2.77c.314.426.599.873.932 1.285.232.287.518.774.935.65a.174.174 0 0 0 .126-.165.21.21 0 0 0-.227-.217m5.566 1.682a13.6 13.6 0 0 0-1.726-2.235 57 57 0 0 1-1.987-2.507 37 37 0 0 1-3.23-4.997.02.02 0 0 0-.037.015 16 16 0 0 0 3.043 4.851c.662.801 1.338 1.595 1.957 2.43.619.837 1.062 1.78 1.65 2.636a.192.192 0 0 0 .33-.193m1.36-1.948a109 109 0 0 0-1.343-1.98c-.007-.01-.023-.001-.017.01q.622 1.02 1.265 2.025c.643 1.005.853 1.35 1.331 1.987.018.023.056.003.04-.024-.388-.694-.838-1.355-1.276-2.019m4.345 3.811a3.3 3.3 0 0 0-.597-.437c-.033-.02-.074.03-.042.055a4 4 0 0 1 .278.237c.086.083.166.171.25.256.17.171.323.358.498.524a.033.033 0 0 0 .052-.04 1.9 1.9 0 0 0-.44-.595m15.765 6.336c-.021-.04-.08-.004-.06.036a31.6 31.6 0 0 0 4.084 6.391c.019.022.057-.007.04-.03a60 60 0 0 1-4.064-6.397m8.455 9.159-.048-.04c-.02-.018-.064-.002-.052.03-.391-1.012-.942-1.982-1.422-2.954-.527-1.067-1.064-2.13-1.596-3.195q-1.57-3.137-3.192-6.248c-.007-.014-.026-.002-.02.012q1.597 3.406 3.24 6.79c.539 1.108 1.076 2.217 1.622 3.321.273.552.541 1.107.824 1.654.131.255.25.668.539.784a.07.07 0 0 0 .075-.03l.037-.067a.05.05 0 0 0-.007-.057m1.722-2.345c-.802-1.399-1.627-2.784-2.449-4.17a.016.016 0 0 0-.027.015c.75 1.428 1.51 2.851 2.305 4.255a47 47 0 0 0 2.471 4.159.031.031 0 0 0 .054-.032c-.674-1.46-1.556-2.833-2.354-4.227m3.614 1.989c-.007-.01-.024 0-.017.01.615.909 1.22 1.827 1.86 2.718.01.012.03 0 .021-.012-.599-.92-1.237-1.815-1.864-2.716m-149.983-59.125c-.012-.015-.04.005-.028.021 1.18 1.702 2.386 3.385 3.675 5.006.018.023.056-.007.04-.03-1.164-1.714-2.414-3.365-3.687-4.997m-11.203-8.181c-.02-.031-.071-.002-.05.03a100.4 100.4 0 0 0 12.393 16.057c.033.033.078-.015.05-.05-4.316-5.22-8.61-10.406-12.393-16.037m8.097 16.127c-1.578-1.474-3.19-2.901-4.697-4.45a57 57 0 0 1-4.34-5.012c-.013-.017-.043 0-.03.018a50 50 0 0 0 4.165 5.08 34 34 0 0 0 4.868 4.408c.026.018.056-.022.034-.043m-12.986-7.949c-.04-.049-.108.02-.069.069.742.913 1.479 1.828 2.26 2.707.014.015.04-.005.028-.021-.711-.942-1.466-1.846-2.219-2.755m7.239 7.28a.7.7 0 0 0-.152-.12l-.296-.208c-.203-.14-.398-.291-.595-.44a6 6 0 0 1-.55-.486 9 9 0 0 1-.529-.55c-.065-.074-.17.034-.108.109.324.388.669.747 1.025 1.106a7 7 0 0 0 .551.497q.149.122.306.234a1 1 0 0 0 .146.093.23.23 0 0 0 .204-.006.06.06 0 0 0 .043-.057.26.26 0 0 0-.045-.172m-4.583.401a11 11 0 0 0-1.245-1.24q-.665-.613-1.332-1.224-1.322-1.201-2.664-2.379c-.041-.036-.1.022-.06.06q1.3 1.258 2.62 2.495.644.6 1.292 1.193a11 11 0 0 0 1.347 1.15c.036.024.065-.026.042-.055m-6.54 1.184a6 6 0 0 0-.727-.678q-.381-.323-.77-.635l-1.563-1.247c-.018-.013-.042.01-.025.025l1.507 1.345q.372.332.755.65a6 6 0 0 0 .78.595c.037.02.068-.026.043-.055M172.3 168.23a22.3 22.3 0 0 0-3.331-1.657c-1.105-.48-2.236-.9-3.372-1.302-.019-.007-.026.023-.008.03 1.163.482 2.31 1 3.454 1.524 1.071.49 2.128 1.053 3.229 1.474.04.015.062-.046.028-.068m4.405-1.021c-2.916-1.636-6.029-2.949-9.065-4.342-.014-.006-.026.013-.012.02 2.984 1.508 5.952 3.123 9.05 4.386.037.015.06-.045.027-.064m4.278-1.257c-1.619-.994-3.421-1.723-5.11-2.591a46 46 0 0 0-5.068-2.234c-.019-.007-.032.024-.014.032 1.719.749 3.438 1.505 5.143 2.286 1.718.787 3.26 1.84 4.917 2.733a.131.131 0 0 0 .132-.226m3.189-1.623a11 11 0 0 0-2.078-1.318q-1.072-.59-2.17-1.127c-1.477-.719-2.992-1.32-4.53-1.894-.033-.013-.046.04-.014.053 1.545.647 3.058 1.391 4.548 2.156a67 67 0 0 1 2.157 1.15 16 16 0 0 0 2.032 1.075c.053.02.096-.058.055-.094m2.224-2.46a39 39 0 0 0-4.743-2.26c-.016-.007-.03.015-.014.023a39.5 39.5 0 0 0 4.729 2.305c.04.015.063-.047.028-.068m-55.939 54.314c-4.64-1.26-9.344-2.299-14.027-3.385-.017-.004-.025.022-.008.026 4.66 1.183 9.316 2.416 14.017 3.423a.033.033 0 0 0 .018-.064m8.07-1.136c-5.494-1.506-11.09-2.62-16.612-4.018a.025.025 0 0 0-.014.05 158 158 0 0 0 16.598 4.07c.066.01.095-.084.028-.102m4.715-2.004c-5.03-1.531-10.118-2.838-15.2-4.182a.03.03 0 0 0-.015.056c5.053 1.449 10.092 2.932 15.196 4.194a.035.035 0 0 0 .019-.068m1.511-3.758c-2.542-.878-5.153-1.49-7.765-2.12a.037.037 0 0 0-.02.072c2.598.674 5.162 1.466 7.773 2.093a.023.023 0 0 0 .012-.045m6.161 1.593a2.6 2.6 0 0 0-.767-.325q-.39-.117-.783-.219-.816-.217-1.628-.449a.12.12 0 0 0-.063.23q.81.238 1.616.491.387.123.779.234a2.6 2.6 0 0 0 .82.135.053.053 0 0 0 .026-.098m4.059-2.13a39.4 39.4 0 0 0-9.82-2.27c-.037-.005-.046.06-.01.065a76 76 0 0 1 9.809 2.28c.05.014.066-.058.02-.075m7.668-1.293c-3.633-1.197-7.382-1.858-11.102-2.705a.023.023 0 0 0-.012.045c3.689.974 7.315 2.125 11.088 2.75a.047.047 0 0 0 .025-.09m3.835-1.048c-2.376-.624-4.783-1.117-7.149-1.78a.037.037 0 0 0-.02.07 44.7 44.7 0 0 0 7.154 1.763c.034.005.05-.043.015-.053m3.939-.94a15 15 0 0 0-3.562-.602c-.013 0-.017.021-.004.023 1.188.187 2.36.464 3.55.636a.03.03 0 0 0 .016-.057m5.121-1.208a4.4 4.4 0 0 0-1.097-.053 6.6 6.6 0 0 0-1.093.166c-.068.015-.038.113.028.102.36-.06.722-.086 1.086-.112.355-.025.713-.017 1.068-.04.033-.003.045-.055.008-.062M26.166 221.015c-5.474-2.756-10.93-5.575-16.193-8.721a.031.031 0 0 0-.032.054 136 136 0 0 0 16.183 8.738c.048.021.09-.046.042-.07m8.057-.446a105.5 105.5 0 0 1-21.062-9.42c-.041-.025-.078.039-.038.064a73.1 73.1 0 0 0 21.075 9.447.047.047 0 0 0 .025-.09m6.158-1.137c-3.168-1.116-6.393-2.02-9.522-3.253a93 93 0 0 1-9.338-4.27c-.058-.03-.109.057-.051.088a90 90 0 0 0 9.117 4.303 55.7 55.7 0 0 0 9.779 3.189.03.03 0 0 0 .015-.057m6.975-1.236c-6.085-2.053-12.13-4.14-18-6.757-.019-.008-.035.018-.017.027a96.2 96.2 0 0 0 17.995 6.809.041.041 0 0 0 .022-.08m6.654-2.232a70.6 70.6 0 0 1-17.375-6.703.043.043 0 0 0-.044.075 57 57 0 0 0 17.406 6.677c.031.006.045-.041.013-.05m8.812-.647c-5.731-1.572-11.512-2.943-17.126-4.916-.069-.024-.098.085-.03.11a95.5 95.5 0 0 0 17.126 4.915c.07.012.102-.09.03-.11m-3.854-4.126c-2.323-.86-4.672-1.641-7.022-2.421-.025-.008-.034.029-.01.037 2.33.837 4.66 1.672 7.02 2.43.028.009.04-.035.012-.046m9.965 2.813a18 18 0 0 0-2.248-.741q-1.179-.33-2.354-.667a.031.031 0 0 0-.017.06q1.145.368 2.285.747a18 18 0 0 0 2.312.651c.029.005.052-.037.022-.05m3.073-2.351a41 41 0 0 0-6.384-1.664c-.039-.008-.056.052-.017.06 2.157.45 4.267 1.06 6.388 1.65a.023.023 0 0 0 .013-.046m5.362-1.156a55 55 0 0 0-3.072-.863.053.053 0 0 0-.028.102c1.026.292 2.047.573 3.088.806a.023.023 0 0 0 .012-.045m99.362 65.365c-1.247 2.144-2.528 4.273-3.69 6.464a.02.02 0 0 0 .033.02c1.304-2.11 2.495-4.29 3.717-6.448a.035.035 0 0 0-.06-.036m-2.098-1.408a100 100 0 0 0-6.311 10.867c-.015.031.03.058.047.027 2.096-3.63 4.064-7.322 6.281-10.884.007-.01-.01-.02-.017-.01m-3.87.994c-2.254 3.622-4.663 7.191-6.69 10.947a.027.027 0 0 0 .047.028c2.415-3.52 4.491-7.292 6.684-10.951a.023.023 0 0 0-.04-.024m-4.162 1.742-3.854 5.86a64 64 0 0 0-3.753 5.92c-.02.038.034.087.064.049a64 64 0 0 0 3.78-5.78q1.897-3.016 3.797-6.03c.013-.02-.02-.04-.034-.02m-3.767 1.06a190 190 0 0 1-4.386 6.456c-1.497 2.12-3.129 4.154-4.574 6.309a.037.037 0 0 0 .058.045 65 65 0 0 0 4.611-6.163 142 142 0 0 0 4.304-6.639c.005-.008-.008-.016-.013-.008m-5.774 3.735c-1.996 3.3-4.253 6.411-6.537 9.515-.02.027.025.061.046.036A65 65 0 0 0 157.09 282a.018.018 0 0 0-.03-.017m-5.286 3.875a53 53 0 0 1-3.248 4.59c-1.137 1.434-2.41 2.75-3.56 4.169a.025.025 0 0 0 .036.036 28.5 28.5 0 0 0 3.636-4.119 53 53 0 0 0 3.19-4.645c.02-.034-.033-.065-.054-.031m-6.482 4.012a54 54 0 0 1-5.794 6.174c-.022.021.008.062.033.043a26.8 26.8 0 0 0 5.788-6.2c.012-.017-.015-.032-.027-.016m-6.801 4.659c-1.191 1.107-2.39 2.205-3.522 3.373-.025.025.012.061.038.039 1.228-1.069 2.389-2.207 3.559-3.337.049-.048-.025-.121-.075-.075m-5.613 3.311a22.4 22.4 0 0 0-4.596 3.84.023.023 0 0 0 .033.033 29.6 29.6 0 0 1 4.626-3.765c.067-.043.005-.152-.063-.108m61.067-75.77a44.2 44.2 0 0 0-6.506 7.046c-.019.025.023.057.042.033a86 86 0 0 1 6.483-7.06c.013-.012-.006-.03-.02-.019m-15.079 5.596c-4.347 4.588-8.708 9.167-12.98 13.826-.013.015.009.037.022.022 4.38-4.557 8.674-9.2 12.978-13.829.012-.012-.007-.032-.02-.019m-11.049 4.787c-5.624 6.284-11.325 12.497-16.979 18.754-.022.025.013.06.036.036 5.842-6.077 11.466-12.38 16.97-18.763.017-.018-.01-.046-.027-.027m-5.762 2.392q-4.178 4.817-8.428 9.57c-2.824 3.171-5.79 6.243-8.514 9.5-.024.029.014.069.041.042 3.007-2.99 5.77-6.262 8.582-9.433q4.233-4.772 8.366-9.632c.027-.033-.019-.08-.047-.047m-5.427 1.988a219 219 0 0 0-16.248 18.973c-.018.025.023.057.043.033 2.662-3.199 5.255-6.454 7.953-9.624q4.05-4.755 8.271-9.363c.012-.013-.007-.032-.02-.019m-5.147 2.004q-4.754 4.991-9.242 10.225c-2.932 3.431-5.864 6.903-8.506 10.564-.016.022.02.049.037.029 2.92-3.495 5.728-7.08 8.679-10.55q4.428-5.209 9.051-10.249c.012-.013-.007-.032-.02-.02m-7.195 2.776c-2.604 3.233-5.221 6.457-7.82 9.695-2.547 3.173-5.203 6.3-7.56 9.618-.022.03.026.068.051.04 2.728-3.066 5.198-6.383 7.74-9.603 2.55-3.23 5.083-6.476 7.628-9.712.022-.027-.016-.066-.039-.038m-5.497 1.878c-5.013 6.46-10.32 12.686-15.342 19.136-.02.025.013.06.036.036 5.482-6.056 10.44-12.616 15.377-19.118.03-.04-.04-.094-.07-.054m-25.085 10.165a148 148 0 0 0-14.992 18.7c-.017.025.023.048.04.024a216 216 0 0 1 14.985-18.691c.02-.022-.013-.055-.033-.033m-6.812 2.623c-5.577 6.673-11.332 13.191-16.99 19.795-.024.028.016.069.042.041 5.928-6.36 11.503-13.057 16.97-19.814.012-.015-.01-.038-.022-.022m-20.217 6.856c-5.331 6.417-10.734 12.793-15.863 19.374-.025.033.019.08.047.047 5.43-6.336 10.604-12.902 15.833-19.404.009-.012-.007-.029-.017-.017m-15.83 6.635c-4.414 5.627-8.922 11.188-13.168 16.944-.019.025.023.058.043.033 4.532-5.533 8.811-11.273 13.177-16.937.023-.03-.028-.07-.052-.04m-5.376.507c-4.505 6.264-9.256 12.337-13.938 18.47-.02.026.025.06.046.035 4.982-5.886 9.528-12.155 13.91-18.496.007-.01-.01-.02-.018-.01m-5.289 2.094c-4.49 5.648-9.068 11.252-13.296 17.1-.025.034.03.078.058.045 4.616-5.548 8.908-11.374 13.265-17.124.012-.015-.015-.037-.027-.021m-8.32 4.988c-3.375 4.217-6.721 8.45-9.968 12.767-.02.027.025.062.046.036 3.4-4.197 6.695-8.47 9.968-12.768.02-.026-.026-.061-.046-.035m-7.343 3.111c-2.813 3.495-5.6 7.056-8.056 10.813-.019.028.024.051.043.026 2.672-3.612 5.27-7.268 8.062-10.79.028-.035-.02-.085-.05-.05m-8.243 5.577a34.7 34.7 0 0 1-5.49 5.972c-.017.015.008.039.025.025a28.5 28.5 0 0 0 5.51-5.971c.018-.027-.026-.052-.045-.026M410.756 42.844a11 11 0 0 0-.347-1.175 10 10 0 0 0-.505-1.096c-.025-.05-.102-.015-.09.037.098.397.173.796.285 1.19.108.379.227.754.34 1.131.232.769.445 1.538.66 2.31.01.036.069.03.065-.008a16 16 0 0 0-.408-2.389m1.969 7.489a1 1 0 0 0-.084-.235l-.106-.255c-.022-.052-.038-.107-.059-.16-.08-.284-.163-.568-.241-.853l-.009-.026a5 5 0 0 1-.061-.518c-.004-.07-.074-.07-.112-.033-.051-.166-.093-.334-.155-.496-.133-.345-.307-.672-.464-1.005-.013-.027-.052-.007-.047.02.074.356.116.717.186 1.074.072.369.162.733.239 1.1.076.362.122.715.167 1.08a4 4 0 0 0 .085.537.4.4 0 0 0 .128.217.26.26 0 0 0 .114.066q.105-.017.048.04a.083.083 0 0 0 .13-.017.3.3 0 0 1 .059-.104l-.108.083c.235-.057.238-.308.196-.55l.048.062a.028.028 0 0 0 .046-.027m-2.383 1.099-.602-2.467c-.402-1.644-.797-3.29-1.277-4.913a.031.031 0 0 0-.06.016c.34 1.66.764 3.3 1.182 4.94l.628 2.46c.208.815.354 1.664.634 2.458a.047.047 0 0 0 .09-.025c-.126-.833-.395-1.65-.595-2.469m-1.808.76a55 55 0 0 0-1.086-4.059.037.037 0 0 0-.071.02 79 79 0 0 1 .956 4.014c.287 1.342.496 2.702.82 4.036a.026.026 0 0 0 .049-.006 27 27 0 0 0-.668-4.005m-1.748.812c-.004-.029-.05-.03-.047 0 .243 1.954.369 3.915.506 5.877a.014.014 0 0 0 .028 0 48 48 0 0 0-.487-5.877m-1.219 6.645v.383h.003v-.383zm-1.664 2.425.002.383a.004.004 0 0 0 .008 0l.002-.383a.006.006 0 0 0-.012 0m-6.435 5.867c0-.012-.02-.012-.02 0 .067.767.118 1.537.205 2.302.001.015.024.016.023 0-.05-.768-.137-1.535-.208-2.302m-2.111-.12c-.003-.025-.042-.025-.039 0a26.7 26.7 0 0 1 .069 5.108c-.002.015.021.015.023 0a22.5 22.5 0 0 0-.053-5.108m-2.059-.511c-.001-.018-.028-.018-.028 0 .107 3.03-.052 6.04-.142 9.069-.001.028.04.027.043 0a54.6 54.6 0 0 0 .127-9.07m-1.9 1.149c-.094 1.809-.21 3.617-.298 5.426a38 38 0 0 0-.058 5.426c.004.044.076.063.084.012a38 38 0 0 0 .283-5.331c.026-1.845.024-3.689.044-5.533a.027.027 0 0 0-.055 0m-2.323 2.424a.016.016 0 0 0-.031 0c-.073 1.81-.16 3.619-.215 5.43a43 43 0 0 0-.058 5.426c.004.048.082.069.092.012a33 33 0 0 0 .284-5.332c.027-1.848-.013-3.69-.072-5.536M386.659 78c.152-1.776.227-3.55.292-5.33 0-.012-.02-.016-.023-.002a29.7 29.7 0 0 0-.46 5.228c.008.89.044 1.781.021 2.67a8.6 8.6 0 0 0-.013 2.585.06.06 0 0 0 .113 0 9.7 9.7 0 0 0-.061-2.481 25 25 0 0 1 .13-2.67m-2.428.286c-.068 1.346-.133 2.691-.205 4.036l-.108 2.018a8.4 8.4 0 0 0-.053 1.872c.006.033.055.03.064 0a8.4 8.4 0 0 0 .108-1.872l.067-2.018q.07-2.017.146-4.036c0-.012-.019-.012-.02 0m-2.007 4.599a32 32 0 0 0-.376 3.96c0 .032.051.04.057.008a33 33 0 0 0 .343-3.968c0-.015-.022-.015-.024 0m-2.528 3.932a24 24 0 0 0-.577 2.441.033.033 0 0 0 .064.018 24 24 0 0 0 .63-2.427.06.06 0 0 0-.117-.032m83.507-75.185c-.018-.05-.094-.03-.079.021a29.6 29.6 0 0 1 .962 6.509.041.041 0 0 0 .082 0 14.4 14.4 0 0 0-.965-6.53M461.46 12a.023.023 0 0 0-.046.013 36.9 36.9 0 0 1 .899 11.762.059.059 0 0 0 .115.016 22.1 22.1 0 0 0-.968-11.79m-1.906 2.554a.057.057 0 0 0-.11.03 51.8 51.8 0 0 1 .84 13.914.05.05 0 0 0 .096.013 31.36 31.36 0 0 0-.826-13.957m-1.756 3.194c-.008-.045-.074-.026-.068.018a58.3 58.3 0 0 1 .202 14.186c-.003.03.048.038.054.008a41.5 41.5 0 0 0-.188-14.212m-2.014 2.571c-.004-.023-.044-.018-.042.007.187 2.51.328 5.024.287 7.542-.02 1.219-.031 2.435-.131 3.65a20 20 0 0 1-.275 2.16 7.5 7.5 0 0 0-.288 1.712.132.132 0 0 0 .257.034 6 6 0 0 0 .2-1.724c.04-.647.104-1.293.162-1.939.115-1.295.247-2.593.277-3.893a42.5 42.5 0 0 0-.447-7.548m-2.046 4.73c-.003-.026-.043-.028-.043 0a88 88 0 0 1-.222 7.014c-.003.03.048.038.053.008a23.7 23.7 0 0 0 .212-7.022m-.296 9.954c-.052.567-.17 1.117-.259 1.678a14 14 0 0 0-.102.801 3 3 0 0 0-.027.408.9.9 0 0 0 .113.351c.025.055.1.042.128 0a.86.86 0 0 0 .175-.357 4 4 0 0 0 .033-.37q.031-.424.037-.848c.007-.557-.014-1.107.031-1.663.007-.083-.121-.082-.129 0m-2.677-4.59a.025.025 0 0 0-.051 0c-.028 1.76-.055 3.521-.152 5.28a41 41 0 0 1-.394 3.997 2.4 2.4 0 0 0-.018 1.093.11.11 0 0 0 .2.026 5.24 5.24 0 0 0 .28-2.279c.041-.912.091-1.824.13-2.736.077-1.793.098-3.588.005-5.381m-2.427 5.617a52 52 0 0 1-.442 3.495q-.133.842-.305 1.678a7.3 7.3 0 0 0-.284 1.596.152.152 0 0 0 .28.076 5.8 5.8 0 0 0 .396-1.7q.127-.802.22-1.609a29 29 0 0 0 .166-3.536.016.016 0 0 0-.031 0m-2.476 4.328c-.16.626-.329 1.25-.49 1.876a8 8 0 0 0-.356 1.85c0 .045.071.07.091.024a8 8 0 0 0 .453-1.823c.117-.638.227-1.277.344-1.915.005-.027-.035-.039-.042-.011m-2.774 3.454a15 15 0 0 1-.305.841c-.107.275-.23.548-.31.832a.027.027 0 0 0 .05.021 3.3 3.3 0 0 0 .374-.805 8 8 0 0 0 .24-.875.025.025 0 0 0-.049-.014m-11.985 7.663a.01.01 0 0 0-.02 0 19.4 19.4 0 0 0 .154 3.45c.003.019.035.014.034-.005-.047-1.15-.15-2.294-.168-3.445m-2.164-.893q-.112 1.915-.198 3.83a32 32 0 0 0-.034 3.831.047.047 0 0 0 .093 0 32 32 0 0 0 .168-3.83q.017-1.915.002-3.83a.016.016 0 0 0-.031 0m-1.732 2.158a42.6 42.6 0 0 0-.667 8.183.037.037 0 0 0 .074 0c.298-2.717.331-5.458.636-8.178.002-.023-.04-.03-.043-.005m-2.129 1.925c-.185 1.51-.369 3.02-.54 4.53a44 44 0 0 0-.392 4.531c0 .03.048.039.054.008a44 44 0 0 0 .518-4.45c.137-1.539.261-3.079.384-4.62.001-.014-.022-.014-.024 0m-2.887 4.475a42.3 42.3 0 0 0-.49 6.89.027.027 0 0 0 .055 0c.242-2.289.264-4.597.482-6.89.003-.03-.043-.029-.047 0m-2.544 3.569c-.065 1.655-.196 3.326-.113 4.982a.025.025 0 0 0 .051 0c.192-1.649.173-3.325.218-4.982.003-.1-.152-.1-.156 0m-2.32 3.192a.014.014 0 0 0-.027 0c-.015.298-.03.595-.028.894q.004.447.022.893a.02.02 0 0 0 .039 0c.01-.298.02-.595.021-.893a16 16 0 0 0-.027-.894m-.525 4.598c-.012-.036-.07-.02-.057.015q.066.191.14.38c.008.02.04.013.033-.01q-.054-.194-.116-.385m65.065-58.744c-.006-.027-.046-.015-.042.012.614 3.56.905 7.134 1.2 10.73a.027.027 0 0 0 .054 0 50 50 0 0 0-1.212-10.742m-1.745 13.256c-.005-.56.005-1.12.011-1.68.012-1.04.011-2.08-.033-3.118a28.7 28.7 0 0 0-.892-6.011.023.023 0 0 0-.045.012 34 34 0 0 1 .834 6.238c.045 1.04.05 2.079.03 3.119q-.013.721-.06 1.44a4.8 4.8 0 0 0-.02 1.454.053.053 0 0 0 .102 0 4.6 4.6 0 0 0 .073-1.454m-2.204 3.873c.006-.662-.13-1.265-.18-1.917-.045-.595-.01-1.2-.006-1.797a38 38 0 0 0-.417-7.046c-.01-.056-.107-.044-.1.013.26 2.092.416 4.208.478 6.315a14.6 14.6 0 0 1-.2 3.303c-.168.847-.125 1.734-.252 2.582a.09.09 0 0 0 .084.111c.69.092.59-1.183.593-1.564m-3.064-6.663c-.01-.05-.097-.04-.092.013.078.844.066 1.703.1 2.55q.054 1.281.09 2.561c.001.038.062.05.07.01a12.3 12.3 0 0 0 .208-2.57 14.5 14.5 0 0 0-.376-2.564m.116 9.085a8 8 0 0 1-.208 1.498c-.055.237-.11.472-.147.712-.034.22-.153.524.005.71a.17.17 0 0 0 .199.025c.204-.113.194-.467.224-.673a5 5 0 0 0 .043-.757c-.004-.505-.006-1.01.005-1.515a.06.06 0 0 0-.121 0m-2.7-4.219a.049.049 0 0 0-.098 0c-.017 1.834-.104 3.67-.148 5.504-.021.898-.05 1.799-.14 2.693-.083.835-.298 1.65-.397 2.484-.013-.002-.025-.009-.038-.01a.08.08 0 0 0-.098.099 1.6 1.6 0 0 0 .132.339.246.246 0 0 0 .445-.059 23 23 0 0 0 .184-2.638c.066-.935.176-1.866.245-2.8a36 36 0 0 0-.088-5.611m-2.641 3.448c-.003-.029-.045-.04-.053-.007a21.8 21.8 0 0 0-.385 5.153 23 23 0 0 1-.157 2.573c-.055.463-.139.921-.191 1.385a1.7 1.7 0 0 0 .064 1.028.077.077 0 0 0 .132 0c.396-.558.17-1.568.167-2.216a22 22 0 0 1 .154-2.671 22.5 22.5 0 0 0 .27-5.245m-3.152 5.486a92 92 0 0 0-.347 3.301q-.074.825-.136 1.65a6 6 0 0 0-.006 1.511.075.075 0 0 0 .136.018 3.2 3.2 0 0 0 .24-1.401q.046-.857.082-1.714c.046-1.121.077-2.243.082-3.365 0-.033-.047-.031-.05 0m-2.635 3.569a17 17 0 0 0-.711 4.232.055.055 0 0 0 .107.014 17 17 0 0 0 .639-4.242c.002-.02-.031-.024-.035-.004m-3.04 15.841c-.205 2.805-.434 5.613-.52 8.425-.001.033.047.032.05 0 .263-2.802.384-5.616.529-8.425.002-.038-.056-.037-.059 0m-2.373 5.493a64 64 0 0 0-.377 3.83c-.002.032.043.03.047 0a65 65 0 0 0 .364-3.83c.002-.023-.032-.022-.035 0m-4.552-9.83a9 9 0 0 0-.205-1.534.018.018 0 0 0-.035.005c.025.51.048 1.019.05 1.529s-.015 1.024.022 1.533c.002.038.06.05.069.01a5.6 5.6 0 0 0 .099-1.543m-2.219-2.046a.031.031 0 0 0-.063 0 52 52 0 0 0-.145 5.361.033.033 0 0 0 .066 0 53 53 0 0 0 .142-5.36m-2.451.255q.013 1.917-.058 3.833c-.048 1.275-.163 2.553-.179 3.828 0 .021.036.028.039.005a33 33 0 0 0 .232-3.758q.05-1.953.009-3.908a.022.022 0 0 0-.043 0m-1.887 1.534c-.147 2.904-.452 5.792-.786 8.68-.003.019.031.024.034.004a77 77 0 0 0 .803-8.684c.001-.033-.05-.033-.05 0m-2.123 3.056c-.28 2.187-.72 4.342-1.067 6.517-.004.024.03.035.037.01a45.4 45.4 0 0 0 1.077-6.527c.003-.03-.044-.03-.047 0m-2.242 3.192a19.7 19.7 0 0 0-.912 5.366c0 .026.042.033.046.006.294-1.789.495-3.59.915-5.358a.025.025 0 0 0-.05-.013m-2.602 4.198c-.279.9-.552 1.799-.785 2.712a.018.018 0 0 0 .034.01c.288-.898.537-1.803.78-2.714a.016.016 0 0 0-.03-.008m46.952 202.784L481.8 126.922l15.852-.951-23.382-34.71-17.951 37.189 15.497-.929 5.503 137.151-15.737.944 23.382 34.71 17.951-37.189z"/></svg>