<svg xmlns="http://www.w3.org/2000/svg" data-name="dolphin" viewBox="0 0 578.598 360.293"><path fill="none" d="M500.405 324.342c-.06-.178-.124-.354-.175-.534l-.069-.13c-.304.12-.623.218-.935.326.229.053.457.104.684.169.168.048.33.112.495.169M228.818 141.126c-.019-1.323.02-2.63.065-3.946a44 44 0 0 0-5.315-1.552 55 55 0 0 0-6.606-.725 22 22 0 0 0-5.274.135 10.8 10.8 0 0 0-2.645.83c-.068.07-.134.14-.21.203-.231.199-.475.38-.721.56-.206.15-.433.302-.64.472l.007.002a26 26 0 0 0 4.164 1.448 9.8 9.8 0 0 0 2.12.416c.498-.001.981-.687 1.358-.995a8.8 8.8 0 0 1 3.03-1.635 7.2 7.2 0 0 1 3.214-.053c.016.003.012.03-.004.029a8.9 8.9 0 0 0-3.913 1.064 6.5 6.5 0 0 0-1.54 1.112c-.422.411-.688.959-1.114 1.357l-.012.007a4.2 4.2 0 0 0-.152.82 12.6 12.6 0 0 0 .263 2.66c.257 1.767.58 3.49.963 5.23a1 1 0 0 1 .086.055 11 11 0 0 1 1.807.345 12.3 12.3 0 0 1 4.063 2.008 19 19 0 0 1 1.61 1.353c.618.587 1.122 1.254 1.688 1.887a.047.047 0 0 1-.066.067c-.59-.5-1.248-.918-1.86-1.391-.601-.465-1.182-.957-1.796-1.404a9 9 0 0 0-3.866-1.696 25.6 25.6 0 0 0-9.15.604.6.6 0 0 1-.296-.022c.968 1.955 1.935 3.912 2.748 5.93a8.15 8.15 0 0 1 .631 4.59 6 6 0 0 1-.439 1.325 3.2 3.2 0 0 0 1.604.459c.801.014 1.61-.067 2.41-.1 1.636-.07 3.272-.134 4.907-.207 2.248-.1 4.892-.242 6.651-1.835 1.747-1.58 2.08-4.108 2.189-6.335.14-2.875.119-5.767.102-8.644-.008-1.476-.04-2.952-.06-4.428m-8.561 5.66c.174.086.346.182.526.255l.255.105c.061.025.17.067.19.14l.044.043a.038.038 0 0 1-.037.063l-.056-.01c-.073.026-.174-.042-.229-.077l-.236-.151c-.162-.104-.339-.19-.507-.282-.057-.03-.007-.114.05-.086m-3.094-6.09c.213-.002.426-.008.638-.002a.018.018 0 0 1 0 .035c-.212.005-.425 0-.638-.003a.015.015 0 0 1 0-.03m-.128 1.913c.239-.013.478-.03.716-.038a3 3 0 0 1 .696.027.03.03 0 0 1 0 .056 3 3 0 0 1-.696.028c-.238-.007-.477-.026-.716-.038a.018.018 0 0 1 0-.035m-.146 1.611a5 5 0 0 1 1.612.032 5 5 0 0 1 .807.178 2 2 0 0 1 .7.314.038.038 0 0 1-.027.065 4 4 0 0 1-.731-.169c-.25-.06-.5-.118-.753-.162a14 14 0 0 0-1.59-.12c-.075-.004-.1-.123-.018-.138m2.44 2.253a4 4 0 0 0-1.164-.194 5.2 5.2 0 0 1-1.163-.084.127.127 0 0 1 0-.243 1.96 1.96 0 0 1 1.223.037 8 8 0 0 1 1.12.446.02.02 0 0 1-.016.038m2.807 3.315c-.443-.287-.852-.613-1.314-.873a8 8 0 0 0-1.506-.693c-.994-.315-2.033-.555-3.052-.772-.046-.01-.033-.08.011-.08a6.7 6.7 0 0 1 3.103.704 10.7 10.7 0 0 1 2.786 1.677.024.024 0 0 1-.028.037m-8.924 4.966c-.659-.671-1.33-1.35-2.044-1.964a23 23 0 0 0-2.306-1.734.012.012 0 0 1 .012-.02 10.47 10.47 0 0 1 4.393 3.675c.022.034-.028.07-.055.043m1.375-.97a1.2 1.2 0 0 1-.401-.408q-.19-.266-.405-.512a4.2 4.2 0 0 0-.97-.846 4.6 4.6 0 0 0-1.181-.483 1.24 1.24 0 0 1-.893-.62.05.05 0 0 1 .024-.059c.376-.209.836.046 1.133.282.33.262.644.547.964.82.337.287.695.552 1.035.837.292.247.703.522.802.907a.074.074 0 0 1-.108.083m1.753-.627a3 3 0 0 1-.317-.424 2.4 2.4 0 0 0-.37-.423 6 6 0 0 0-.848-.657c-.301-.188-.628-.32-.942-.482-.16-.084-.33-.152-.484-.245-.072-.044-.148-.085-.219-.131-.071-.048-.129-.112-.205-.153a.03.03 0 0 1 .023-.054c.105.025.207.016.311.045.082.023.165.044.244.072a3.5 3.5 0 0 1 .493.244 6.4 6.4 0 0 1 .844.619c.29.229.582.46.854.71a6 6 0 0 1 .818.722c.09.12-.103.258-.202.157m1.306-.802a9 9 0 0 0-.958-.757 7 7 0 0 0-1.053-.566c-.015-.007-.004-.031.011-.027a4 4 0 0 1 2.029 1.321.02.02 0 0 1-.029.03m1.305-.789c-.133-.1-.265-.199-.39-.308l-.383-.33c-.026-.022.011-.058.037-.037l.386.316c.13.105.25.218.371.331.015.014-.005.04-.021.028"/><path fill="none" d="M209.802 149.014c-.269-.106-.538-.212-.8-.331l-.186-.087c.018.117.048.232.062.348a.32.32 0 0 1-.077.254q.497-.094 1-.184m2.639-.384c.536-.053 1.072-.08 1.608-.09-.163-.088-.317-.206-.468-.302q-.417-.266-.841-.521-.82-.495-1.661-.955a45 45 0 0 0-2.789-1.388c.031.303.06.606.102.907.016.113.04.225.06.338.522.244 1.05.477 1.566.737l1.328.669q.355.18.706.367a3 3 0 0 1 .389.238"/><path fill="none" d="M214.905 148.538a8.4 8.4 0 0 1-.528-1.532c-.443-.215-.872-.48-1.294-.721q-.823-.472-1.662-.917-1.617-.86-3.275-1.643.056.79.135 1.577c.98.395 1.945.82 2.885 1.31q.905.47 1.78.997.423.256.839.523a2.3 2.3 0 0 1 .528.408c.197 0 .395-.01.592-.002m-4.689.4q.873-.15 1.756-.252c-.239-.115-.47-.255-.679-.363l-1.364-.712c-.49-.254-.964-.534-1.446-.802.089.5.19 1 .282 1.499.109.05.217.104.328.15.33.141.657.287.989.422q.068.028.134.058m290.225 177.055c.23.08.485.154.737.236q-.17-.38-.334-.76c-.501-.15-.998-.325-1.484-.478a92 92 0 0 1-1.55-.5q-.526.175-1.053.348.989.263 1.963.574.865.277 1.721.58m.274-.835c-.06-.146-.126-.291-.183-.439-.239-.068-.478-.134-.716-.206q-.48-.142-.96-.29l-.143-.04c-.203.067-.4.142-.603.209l-.016.005q.663.19 1.322.39c.424.125.864.24 1.3.371"/><path fill="none" d="M505.955 318.46a41 41 0 0 1-1.81 2.403c.68-.03 1.36-.055 2.04-.065q.576-.009 1.15-.009l.531.003a1.4 1.4 0 0 1 .539.052.03.03 0 0 1 0 .056 1.4 1.4 0 0 1-.539.055l-.53.005q-.576.003-1.15-.004a71 71 0 0 1-2.07-.055c-.122.147-.233.301-.358.445a8 8 0 0 1-2.832 2.013c.144.216.291.43.416.66.327.609.617 1.235.914 1.859a6.2 6.2 0 0 0 .89 1.541 2.6 2.6 0 0 0 .86.566 10.67 10.67 0 0 1 7.727-.492c.03.01.026.06-.008.058a18.4 18.4 0 0 0-4.318.142q-.58.096-1.154.227a15.6 15.6 0 0 1 2.852-.042 20.3 20.3 0 0 1 6.448 1.78c.013.006.004.025-.009.022a32.3 32.3 0 0 0-7.002-1.132 12.73 12.73 0 0 0-6.604 1.914 71 71 0 0 0-2.998 1.784q-.65.413-1.276.866a9 9 0 0 1-1.309 1.033 4.5 4.5 0 0 1-1.35.224l-1.939.23-1.697.2c-.295.035-.597.086-.9.126.066.096.128.195.196.29a6.9 6.9 0 0 0 2.097 1.646c.28.178.543.38.818.566a61 61 0 0 1 4.18 1.293 9.5 9.5 0 0 1 4.182 2.426 11.2 11.2 0 0 1 1.587 2.562c.533-.172 1.091-.16 1.64-.347a12.4 12.4 0 0 0 2.078-1.063 96 96 0 0 0 4.07-2.48c2.315-1.485 4.649-2.957 6.932-4.49 2.138-1.437 4.09-3.58 2.77-6.257-1.277-2.588-2.814-5.07-4.253-7.57-.74-1.288-1.494-2.57-2.23-3.862a37 37 0 0 1-1.812-3.354 20.8 20.8 0 0 0-6.769 4.174m1.429.959a2.7 2.7 0 0 1-.634.092c-.215.017-.433-.003-.65-.002-.016 0-.02-.026-.003-.028a4.3 4.3 0 0 1 1.287-.124c.034.004.027.053 0 .062m2.822 5.893c.135.013.33.004.433.106a.044.044 0 0 1-.01.07c-.127.067-.305.009-.441-.007-.16-.018-.317-.048-.476-.069a7 7 0 0 0-.975-.038c-.03 0-.03-.045 0-.047.33-.021.662-.022.993-.026a4 4 0 0 1 .476.011m-7.68-2.777q1.666-.157 3.337-.204.835-.022 1.671-.021a7 7 0 0 1 1.555.06c.043.011.046.083 0 .091a8.7 8.7 0 0 1-1.555-.006q-.835-.014-1.67-.004-1.67.018-3.339.108c-.015 0-.015-.022 0-.024m-.426 1.587c-.042.002-.041-.061 0-.064a58 58 0 0 1 3.86-.13q.966.003 1.93.03a7.4 7.4 0 0 1 1.791.117c.031.009.036.061 0 .067a9 9 0 0 1-1.79-.03q-.965-.029-1.93-.033a110 110 0 0 0-3.861.043m3.495 2.43a6 6 0 0 0-.98.31 2.6 2.6 0 0 1-.503.157.8.8 0 0 1-.464-.017.2.2 0 0 1-.113-.055c-.074-.075-.022-.163.042-.222a.73.73 0 0 1 .429-.238 2 2 0 0 1 .533-.051q.524.023 1.048.059c.032.002.042.05.008.057m.851-1.189c-.556.08-1.113.178-1.675.208-.29.016-.578.029-.868.023-.289-.007-.577-.039-.867-.047-.016 0-.02-.026-.004-.029.56-.08 1.105-.186 1.672-.221.578-.036 1.156-.008 1.735.009.031 0 .041.052.007.057m4.597 1.094a9 9 0 0 1-1.927.007q-.998-.044-1.994-.097a.059.059 0 0 1 0-.117q.998.007 1.994.02a8.8 8.8 0 0 1 1.927.12.035.035 0 0 1 0 .067m-12.78 6.968a1.84 1.84 0 0 1 1.192-.047 3.6 3.6 0 0 1 1.15.496c.038.024.013.09-.032.075a10 10 0 0 0-1.18-.269q-.286-.054-.575-.098a2 2 0 0 1-.555-.137.012.012 0 0 1 0-.02m3.804 3.323c-1.687-.948-3.199-2.387-5.259-2.344-.042 0-.04-.06 0-.065a6.67 6.67 0 0 1 5.312 2.34.044.044 0 0 1-.053.07m.82-1.74a.13.13 0 0 1-.083.034.3.3 0 0 1-.087-.024.4.4 0 0 1-.09-.062l-.03-.024-.016-.012q.008.008-.006-.003c-.042-.021-.081-.05-.121-.074l-.13-.08a.07.07 0 0 1-.028-.084.07.07 0 0 1 .08-.039q.137.056.275.11a1 1 0 0 1 .159.048.4.4 0 0 1 .073.052.13.13 0 0 1 .028.129.1.1 0 0 1-.024.029m.225-1.459c-.477-.18-.947-.375-1.433-.53a8.4 8.4 0 0 0-1.536-.334c-.05-.006-.054-.084 0-.082a5.4 5.4 0 0 1 2.991.893c.025.018.011.066-.022.053m.604-1.104a.8.8 0 0 1-.204-.044c-.076-.02-.15-.047-.223-.072-.149-.05-.3-.092-.45-.137a7 7 0 0 0-.913-.203c-.02-.003-.015-.036.004-.035a6.5 6.5 0 0 1 .942.119 4 4 0 0 1 .453.124 1.05 1.05 0 0 1 .414.193.033.033 0 0 1-.023.055m.781-.942a.2.2 0 0 1-.085.01l-.08-.015-.081-.015-.078-.026a1 1 0 0 1-.157-.068l-.135-.084a.024.024 0 0 1 .012-.044l.157.004a1 1 0 0 1 .168.03l.079.02.084.036q.037.015.073.032a.2.2 0 0 1 .061.051.042.042 0 0 1-.018.069"/><path fill="none" d="m492.121 333.628.945-.114.403-.049c-.407-.087-.814-.175-1.223-.255-1.078-.21-2.155-.415-3.238-.591q.236.396.477.791c.472.026.944.034 1.414.075q.614.054 1.222.143m44.082-30.721a11.4 11.4 0 0 1-1.354-1.705 10.4 10.4 0 0 1-.874-1.686q-.118-.293-.22-.59l-.032-.094c.057.251.107.504.187.752a8.45 8.45 0 0 0 2.187 3.486c.248.236.795.625.548.992l.577-.21-.234-.203a10 10 0 0 1-.785-.742m-24.809 8.964a22 22 0 0 0-1.961 1.986c-.407.454-.794.927-1.17 1.41a20 20 0 0 1 3.337-1.924l-.048-.009c-.402-.068-.806-.13-1.205-.218-.042-.01-.033-.08.01-.075.395.043.787.112 1.18.174.082.013.17.025.255.037.619-.285 1.25-.548 1.888-.799q-.326-.077-.65-.158zm-17.445 21.496.126.025.93-.112a2.1 2.1 0 0 0 .99-.225 7 7 0 0 0 .537-.514 17.5 17.5 0 0 1 2.74-1.918 31 31 0 0 1 3.089-1.686c.166-.075.336-.14.504-.207a3 3 0 0 1-.323-.238 3.4 3.4 0 0 1-.704-.882c-.444-.183-.885-.375-1.33-.55a48 48 0 0 0-2.03-.74 72 72 0 0 0-3.284-1.02c-.13.034-.258.08-.39.111a4.1 4.1 0 0 1-1.666.113 4 4 0 0 0-.74-.128c.074.22.143.44.224.653a10 10 0 0 0 .415.929c.163.32.348.63.525.943.013.023.035.056.055.087.225-.076.455-.14.685-.204a7.4 7.4 0 0 1 1.346-.244 7.8 7.8 0 0 1 2.703.196c.042.011.023.068-.017.062a6.5 6.5 0 0 0-2.48.181 14.7 14.7 0 0 1 5.345.756.02.02 0 0 1-.011.04 16.26 16.26 0 0 0-7.366.422 14.4 14.4 0 0 0-2.91 1.317 11 11 0 0 0-1.198.85c-.323.264-.609.591-.941.846l.166.275c1.101.14 2.203.295 3.292.506q.861.167 1.718.356m7.11-5.238a9 9 0 0 1-1.127-.407l-1.04-.406c-.72-.28-1.436-.572-2.152-.864-.013-.006-.008-.028.007-.023.738.268 1.475.537 2.21.817l1.08.412a8 8 0 0 1 1.04.428.024.024 0 0 1-.018.043m-3.328 2.356a1 1 0 0 1 .193.031.7.7 0 0 1 .194.066c.016.01.01.04-.01.039-.064-.006-.126-.023-.189-.032-.064-.01-.13-.011-.194-.02a1.6 1.6 0 0 0-.39-.002c-.02.002-.024-.03-.005-.034a1.6 1.6 0 0 1 .401-.048m-3.459.367 1.413.174c.231.029.461.058.69.096a2 2 0 0 1 .638.157.044.044 0 0 1-.01.08 2 2 0 0 1-.65-.055q-.344-.061-.687-.134l-1.397-.295c-.013-.003-.01-.025.003-.023m-2.805.17 2.716.42q.69.108 1.379.23l.611.107a.94.94 0 0 1 .515.154.045.045 0 0 1-.02.074 1 1 0 0 1-.546-.04l-.661-.121q-.66-.12-1.32-.253l-2.68-.548c-.015-.003-.008-.025.006-.022m-1.025.934q1.367.126 2.722.345.689.112 1.37.263a6.4 6.4 0 0 1 1.312.347.068.068 0 0 1-.034.125 9 9 0 0 1-1.327-.296q-.653-.15-1.309-.288-1.359-.29-2.736-.479c-.01-.001-.008-.018.002-.017"/><path fill="none" d="M491.76 328.031c.05.064.11.177.155.112.023-.033-.066-.211-.078-.244a4.5 4.5 0 0 0-.421-.846 9 9 0 0 1-.776-.9l-.038.017a13 13 0 0 0 .78 1.287c.125.19.24.395.379.574m-3.852 1.445a1.7 1.7 0 0 1-.295-.34 2 2 0 0 1-.188-.384 6 6 0 0 1-.396-.704.4.4 0 0 1-.02-.076q-.076.062-.151.126a7.5 7.5 0 0 0 .665 1.219 6 6 0 0 0 .42.55q.127.15.263.292c.012.013.035.03.053.046l.023.007-.074-.156a15 15 0 0 0-.3-.58m2.932-.845a1 1 0 0 0 .115.1 1 1 0 0 0-.076-.229l-.265-.663c-.187-.473-.4-.944-.554-1.428q-.281.12-.562.243a11 11 0 0 1 .791 1.363 5.5 5.5 0 0 0 .551.614m10.873-1.241a9 9 0 0 1-.27-.555q-.072-.161-.142-.324l-.18-.07q-.426-.155-.855-.305-.826-.289-1.66-.556c-.698-.225-1.399-.442-2.1-.66-.384.125-.774.229-1.163.336a33 33 0 0 1 3.25.933c1.03.361 2.113.73 3.12 1.2M148.64 133.238c-.114-.586-.212-1.175-.313-1.764l-.053-.33c-.338-.47-.664-.947-.996-1.42.17.732.316 1.47.466 2.197q.232 1.127.445 2.257a9.6 9.6 0 0 1 .248 1.744c.299.149.592.308.898.443a8.3 8.3 0 0 1-.364-1.435c-.116-.562-.22-1.128-.33-1.692m-1.214-1.318c-.179-.926-.387-1.856-.564-2.789-.57-.817-1.13-1.643-1.693-2.466.332 1.234.67 2.467.971 3.709a39 39 0 0 1 1.09 4.89c.3.175.601.35.91.511a15 15 0 0 1-.31-1.674q-.193-1.092-.404-2.181m-4.235-8.104c-.448-.643-.893-1.29-1.37-1.912-.09-.117-.19-.224-.284-.338.647 3.66 1.393 7.32 1.892 11.002.503.425 1.015.838 1.547 1.226-.433-1.769-.697-3.595-1.004-5.384q-.395-2.296-.781-4.594m1.826 2.628c-.435-.635-.874-1.265-1.307-1.903-.127-.187-.265-.364-.393-.549.308 1.49.618 2.98.905 4.474.345 1.797.732 3.62.92 5.447a25 25 0 0 0 1.86 1.223 43 43 0 0 1-1.17-4.786c-.296-1.297-.555-2.601-.815-3.906m123.406 26.032a8.8 8.8 0 0 0-1.722.582 8.7 8.7 0 0 0-2.45 2.309 6.7 6.7 0 0 0 1.07-.728 11 11 0 0 1 1.42-.834 6.6 6.6 0 0 1 3.125-.763c-.213-.301-.447-.582-.677-.866a9 9 0 0 1-.766.3m-116.708-15.947c-.066-.251-.124-.504-.188-.756l-.098-.376-.018-.067q-.072-.091-.142-.183c-.01.005-.021.013-.033.008a.08.08 0 0 1-.043-.106c-.25-.316-.487-.64-.732-.959q.097.398.186.794c.125.551.243 1.103.336 1.661q.043.255.084.52c.289.107.576.22.865.326l-.03-.107c-.065-.25-.122-.504-.187-.755m.428.314q.087.279.158.562c.012.05.016.094.024.139.425.16.851.315 1.27.493.046.02.086.047.131.068a86 86 0 0 1-1.949-2.322q.2.525.366 1.06m57.853 2.853a4 4 0 0 1 .639-.161 19.8 19.8 0 0 1-3.718-1.47 1 1 0 0 1-.084-.068q-.058.186-.113.373a9 9 0 0 1-.309.864q-.206.495-.422.992-.019.254-.04.503a3.1 3.1 0 0 1 1.34.502q.194-.132.394-.26a2.3 2.3 0 0 1 .303-.277 3 3 0 0 1 .804-.4 7 7 0 0 1 1.206-.598m-59.772-4.758c-.119-.54-.247-1.083-.36-1.628-.395-.525-.78-1.057-1.167-1.589.108.471.217.942.315 1.415.12.583.25 1.166.36 1.752a7 7 0 0 1 .211 1.592c.095.04.183.091.278.13.26.103.523.197.785.296q-.039-.19-.079-.371c-.12-.531-.226-1.066-.343-1.597m62.879 5.17a17 17 0 0 1-1.502-.311 7.4 7.4 0 0 0-1.543.563 7 7 0 0 0-1.342.824 5 5 0 0 0-.5.465 5.3 5.3 0 0 0-.078 1.994l.004.051a49 49 0 0 1 3.289 1.53q.844.434 1.675.896c.411.229.84.47 1.236.743-.31-1.3-.416-2.687-.6-3.945a8.4 8.4 0 0 1-.135-2.748 7 7 0 0 1-.504-.062m-2.319 1.735.767.253c.01.003.006.02-.005.017l-.766-.253c-.011-.004-.006-.021.004-.017m3.208 3.19c.036.029-.01.078-.046.06-.384-.189-.739-.452-1.11-.666q-.56-.324-1.138-.617a24 24 0 0 0-2.444-1.073c-.014-.005-.008-.027.006-.022a25 25 0 0 1 2.43 1.022q.602.293 1.187.619a8 8 0 0 1 1.115.677"/><path fill="currentColor" d="M211.692 143.737a25 25 0 0 0-2.43-1.022c-.015-.005-.02.017-.007.022a24 24 0 0 1 2.444 1.073q.577.293 1.138.617c.371.214.726.477 1.11.666.036.018.082-.031.046-.06a8 8 0 0 0-1.115-.677q-.584-.326-1.186-.619m-.14-1.641-.767-.253c-.01-.004-.015.013-.004.017l.766.253c.011.003.016-.014.005-.017m-2.678 8.94a.012.012 0 0 0-.012.02 23 23 0 0 1 2.306 1.734c.713.613 1.385 1.293 2.044 1.964.027.028.077-.009.055-.043a10.47 10.47 0 0 0-4.393-3.675m5.019 1.759c-.34-.285-.698-.55-1.035-.837-.32-.273-.634-.558-.964-.82-.297-.236-.757-.491-1.133-.282a.05.05 0 0 0-.024.06 1.24 1.24 0 0 0 .893.619 4.6 4.6 0 0 1 1.182.483 4.2 4.2 0 0 1 .969.846q.215.246.405.512a1.2 1.2 0 0 0 .401.409.074.074 0 0 0 .108-.083c-.099-.385-.51-.66-.802-.907m1.831-.516a14 14 0 0 0-.854-.711 6.4 6.4 0 0 0-.844-.619 3.5 3.5 0 0 0-.493-.244c-.08-.028-.162-.049-.244-.072-.104-.029-.206-.02-.311-.045a.03.03 0 0 0-.023.054c.076.041.134.105.205.153.07.046.147.087.22.13.154.094.323.162.483.246.314.163.64.294.942.482a6 6 0 0 1 .848.657 2.4 2.4 0 0 1 .37.423 3 3 0 0 0 .317.424c.1.101.292-.036.202-.157a6 6 0 0 0-.818-.721m-.078-1.274c-.015-.004-.026.02-.01.027a7 7 0 0 1 1.052.566 9 9 0 0 1 .958.757.02.02 0 0 0 .029-.029 4 4 0 0 0-2.029-1.32m2.955.201-.386-.316c-.026-.021-.063.015-.037.037l.382.33c.126.11.258.208.39.308.017.012.037-.014.022-.027a7 7 0 0 0-.37-.332m.776-3.133a6.7 6.7 0 0 0-3.103-.704c-.044 0-.057.07-.01.08 1.018.217 2.057.457 3.05.772a8 8 0 0 1 1.507.693c.462.26.871.586 1.314.873a.024.024 0 0 0 .028-.037 10.7 10.7 0 0 0-2.786-1.677m-2.376-2.122a.127.127 0 0 0 0 .243 5.2 5.2 0 0 0 1.163.084 4 4 0 0 1 1.164.194.02.02 0 0 0 .016-.038 8 8 0 0 0-1.12-.446 1.96 1.96 0 0 0-1.223-.037m3.712 1.202.236.15c.055.036.156.104.228.078l.057.01a.038.038 0 0 0 .037-.063l-.044-.043c-.02-.073-.129-.115-.19-.14l-.255-.104c-.18-.074-.352-.17-.526-.256-.057-.028-.107.055-.05.086.168.093.345.178.507.282m-2.217-2.676c.253.044.504.103.753.162a4 4 0 0 0 .732.169.038.038 0 0 0 .026-.065 2 2 0 0 0-.7-.314 5 5 0 0 0-.807-.178 5 5 0 0 0-1.612-.032c-.082.015-.057.134.019.139a14 14 0 0 1 1.59.12m-.051-1.825a.03.03 0 0 0 0-.056 3 3 0 0 0-.696-.027c-.239.007-.477.025-.716.038a.018.018 0 0 0 0 .035c.239.012.478.031.716.038a3 3 0 0 0 .696-.028m-.646-1.96c-.212-.006-.425 0-.638.003a.015.015 0 0 0 0 .029c.213.002.426.008.638.003a.018.018 0 0 0 0-.035m13.24-17.929a.053.053 0 0 0 .078-.06 3.4 3.4 0 0 0-.864-1.138c-.349-.382-.703-.76-1.072-1.122a30 30 0 0 0-2.332-2.055c-.029-.023-.069.014-.041.041a66 66 0 0 1 2.15 2.18c.346.367.693.733 1.032 1.107a4.3 4.3 0 0 0 1.05 1.047m-1.781-.537c-.235-.259-.431-.548-.679-.797a19 19 0 0 0-1.573-1.414c-.049-.04-.118.026-.07.07q.768.707 1.498 1.452c.237.243.497.46.736.702a3 3 0 0 1 .362.446c.075.112.15.25.289.289a.038.038 0 0 0 .048-.037.56.56 0 0 0-.237-.33 5 5 0 0 1-.374-.38m-3.31-1.539a14 14 0 0 1 1.185 1.171c.183.2.374.394.553.599a1.8 1.8 0 0 0 .582.541c.037.015.062-.027.057-.058a1.47 1.47 0 0 0-.44-.683 7 7 0 0 0-.581-.599 12 12 0 0 0-1.331-1.002c-.02-.013-.043.017-.025.032m-1.005.614c-.03-.021-.067.027-.04.051.231.2.456.41.696.599l.36.278a4 4 0 0 0 .374.251.024.024 0 0 0 .029-.037 4 4 0 0 0-.329-.309q-.18-.15-.36-.296c-.237-.187-.488-.358-.73-.537m-12.4-4.324a34 34 0 0 0 2.538 3.337.026.026 0 0 0 .041-.032 34 34 0 0 0-2.565-3.315c-.006-.008-.02.002-.014.01m1.175-.655a18 18 0 0 0 1.505 2.356q.4.522.83 1.02c.157.18.314.362.485.53a1.3 1.3 0 0 0 .46.375.047.047 0 0 0 .059-.058 1.3 1.3 0 0 0-.339-.443c-.15-.17-.307-.335-.46-.504q-.455-.506-.876-1.042a25 25 0 0 1-1.603-2.27.035.035 0 0 0-.06.036m3.235 2.364-1.552-1.877c-.015-.018-.047.006-.032.025l1.482 1.93c.232.302.47.6.705.9a6.5 6.5 0 0 0 .802.94.032.032 0 0 0 .05-.04 6 6 0 0 0-.676-.917c-.26-.32-.517-.643-.78-.961m2.65 1.33a7 7 0 0 0-.49-.585l-.524-.579c-.03-.033-.079.016-.05.05l.507.58a7 7 0 0 0 .525.559c.016.015.047-.005.032-.025m54.518 44.197c.092-.093.187-.183.274-.28l.029-.036.029-.036.064-.078c.04-.05.077-.105.117-.155a3 3 0 0 1 .26-.291c.026-.025-.002-.078-.038-.064a3 3 0 0 0-.362.158 1.4 1.4 0 0 0-.35.25 1.74 1.74 0 0 0-.38.746.062.062 0 0 0 .103.06c.091-.085.166-.186.254-.274m-6.912-12.813a1 1 0 0 0 .262-.075q.13-.045.257-.095c.07-.03.045-.142-.033-.119a1.4 1.4 0 0 1-.255.058c-.086.01-.174.006-.26.019-.083.013-.167.02-.25.03-.084.01-.167.027-.25.039-.05.007-.04.077 0 .09a1.2 1.2 0 0 0 .256.059 1.4 1.4 0 0 0 .273-.006m-18.5-13.94c.172-.132.366-.221.54-.344.18-.125.357-.255.542-.37a6 6 0 0 1 .56-.305q.15-.076.3-.156.068-.036.135-.079a.6.6 0 0 0 .119-.123.112.112 0 0 0-.049-.185.6.6 0 0 0-.166-.03 1 1 0 0 0-.162.027 2 2 0 0 0-.348.114 4 4 0 0 0-.622.338 3.5 3.5 0 0 0-.55.424 2.6 2.6 0 0 0-.36.491q-.095-.074-.184-.154a.05.05 0 0 0-.07.07 3 3 0 0 1 .2.251.085.085 0 0 0 .115.03m-35.109-5.133c-.474-.042-.94-.078-1.417-.078a.018.018 0 0 0-.005.035c.455.1.908.163 1.37.223.227.029.454.06.682.084l.368.038a.4.4 0 0 0 .287-.029.05.05 0 0 0 .01-.078.36.36 0 0 0-.245-.088l-.367-.041c-.228-.026-.455-.045-.683-.066m2.667-.218a.038.038 0 0 0 .018-.063 1.6 1.6 0 0 0-.742-.219l-.914-.164c-.6-.108-1.206-.185-1.81-.268-.017-.003-.026.023-.007.028.587.146 1.174.3 1.767.421l.874.18a1.8 1.8 0 0 0 .815.085m1.139-.495a.065.065 0 0 0 .032-.12 5 5 0 0 0-.892-.24l-.99-.246c-.649-.162-1.302-.304-1.953-.454a.02.02 0 0 0-.011.04c.642.18 1.283.37 1.929.54l.95.251a5 5 0 0 0 .935.229m1.051-.663a3.5 3.5 0 0 0 .978.277.03.03 0 0 0 .015-.055 3.6 3.6 0 0 0-.954-.36q-.482-.157-.963-.304l-2.005-.613c-.015-.004-.02.018-.006.023l1.98.702q.476.169.955.33m-1.168-1.229a20 20 0 0 1 1.932.728q.453.196.894.418a6 6 0 0 0 .866.422.03.03 0 0 0 .028-.049 3.5 3.5 0 0 0-.83-.483q-.45-.221-.913-.415a15 15 0 0 0-1.968-.655.018.018 0 0 0-.01.034m4.728.891a8 8 0 0 0-1.664-.634.009.009 0 0 0-.005.017 8 8 0 0 1 1.654.643c.017.009.032-.017.015-.026m.257-.656a.012.012 0 0 0-.006.023c.168.047.337.098.507.138a.015.015 0 0 0 .008-.028c-.168-.05-.34-.09-.51-.133m2.234.025a.047.047 0 0 0 .088.024.2.2 0 0 0 .02-.14l-.012-.05a.14.14 0 0 0-.033-.061.3.3 0 0 0-.04-.032.3.3 0 0 0-.129-.054.24.24 0 0 0-.105.013.3.3 0 0 0-.07.026.22.22 0 0 0-.107.133.076.076 0 0 0 .139.059l.007-.012v-.001l.007-.007c.003-.003.016-.013.003-.003s0 0 .003-.002l.009-.005.009-.003.008-.002h.01l.017.007a.2.2 0 0 0 .052.01l-.029-.003.037.008.016.005.028.016a.2.2 0 0 0 .053.022h.001l.005.005.002.003.006.012.003.007.003.016v-.001Zm-22.832 36.464c-.407.293-.657.68-1.143.869a2 2 0 0 1-1.49.015c-.025-.01-.04.03-.018.043a3.16 3.16 0 0 0 2.363.187 2.2 2.2 0 0 0 1.16-.544c.382-.338.718-.738 1.078-1.1a15 15 0 0 1 2.677-1.927c.493-.314.971-.65 1.465-.961a7 7 0 0 0 1.308-.874.056.056 0 0 0-.054-.093 6 6 0 0 0-1.198.676c-.445.269-.898.519-1.346.78-.85.495-1.685 1.013-2.545 1.49a23 23 0 0 0-2.257 1.439m3.808-3.436a5 5 0 0 0 .463-.341c.164-.128.332-.248.498-.373a.018.018 0 0 0-.018-.03 3 3 0 0 1-.554.24c-.18.055-.362.089-.543.138a1.7 1.7 0 0 0-1.012.485.09.09 0 0 0 .032.12 1.26 1.26 0 0 0 1.134-.239"/><path fill="currentColor" d="M256.03 156.59a15.8 15.8 0 0 1 2.755 2.114 12.3 12.3 0 0 1 1.712 2.993 25.2 25.2 0 0 0 3.367 5.007 22.8 22.8 0 0 0 9.85 6.787 12.25 12.25 0 0 0 5.676.85c1.834-.3 3.189-1.726 2.447-3.637-.864-2.223-2.56-4.084-3.914-6.015a48 48 0 0 1-3.883-6.607 40.4 40.4 0 0 0-3.299-6.214 41 41 0 0 0-5.16-5.232q-2.705-2.594-5.184-5.411c-1.64-1.865-3.123-3.857-4.74-5.74a18.9 18.9 0 0 0-5.526-4.386c-2.167-1.163-4.348-2.293-6.492-3.5a143 143 0 0 1-12.68-8.136c-.41-.291-.808-.599-1.214-.896-.57-.76-1.149-1.513-1.783-2.219a12.5 12.5 0 0 0-3.512-2.824 21.8 21.8 0 0 0-4.749-1.584c-7.38-1.832-14.465-4.671-21.575-7.328q-10.782-4.029-21.524-8.165-5.429-2.09-10.848-4.205a109 109 0 0 0-10.435-3.736 50 50 0 0 0-11.539-1.58c-.533-.02-1.064-.017-1.596-.017a81 81 0 0 1-7.761-3.934 21.2 21.2 0 0 0-5.608-2 44 44 0 0 0-6.81-.611q-14.353-.632-28.667-1.831-14.385-1.195-28.726-2.862c-9.547-1.11-19.052-2.446-28.548-3.919-2.377-.369-4.753-.747-7.131-1.106-1.18-.177-2.378-.185-3.563-.34-1.215-.16-2.426-.357-3.637-.54-4.714-.713-9.41-1.557-14.11-2.36a28 28 0 0 0-3.385-.352c-.169-.008-.188.235-.038.284a52 52 0 0 0 7.019 1.589q3.547.651 7.1 1.274c2.32.406 4.652.775 6.962 1.235 1.175.234 2.322.59 3.504.783q1.78.294 3.565.56c9.446 1.39 18.923 2.592 28.402 3.728q14.332 1.719 28.714 2.977c9.541.834 19.098 1.508 28.657 2.094 4.53.278 9.15.257 13.443 1.912a187 187 0 0 1 5.48 2.196c.89.376 1.768.755 2.658 1.1q-.879-.08-1.75-.203a31 31 0 0 1-5.72-1.35.053.053 0 0 0-.04.096 18.5 18.5 0 0 0 4.724 1.737c1.642.37 3.31.525 4.963.816 3.428.603 6.932.582 10.35 1.284a63.6 63.6 0 0 1 10.244 3.277c3.584 1.398 7.163 2.81 10.75 4.202q10.733 4.163 21.508 8.214c7.072 2.66 14.133 5.53 21.404 7.61 1.902.543 3.855.929 5.738 1.536a12.1 12.1 0 0 1 4.525 2.595c2.41 2.19 4.249 4.965 7.055 6.711.11.068.237-.092.139-.18a18 18 0 0 1-2.06-2.218c2.462 1.943 4.99 3.797 7.64 5.491 2.023 1.293 4.075 2.544 6.18 3.699 2.058 1.13 4.244 2.09 6.19 3.41a13 13 0 0 1 1.126.888 4.14 4.14 0 0 0-2.09.63 11 11 0 0 0-1.313.772q-.296.204-.579.426a.9.9 0 0 1-.306.196.45.45 0 0 0-.285.2c-.159.217.144.473.352.353a.4.4 0 0 0 .198-.206.14.14 0 0 1 .045-.122q.063-.056.128-.11.276-.233.568-.447a11 11 0 0 1 1.141-.73 11 11 0 0 1 1.268-.605 2.4 2.4 0 0 1 1.04-.225 30.5 30.5 0 0 1 3.523 3.956q2.284 2.878 4.78 5.575 2.474 2.655 5.158 5.1a29 29 0 0 1 2.685 2.75 9 9 0 0 1-.897.327 5.6 5.6 0 0 1-.98.201 1 1 0 0 0-.667.359 41 41 0 0 0-2.572 2.7.116.116 0 0 0 .081.195 2.12 2.12 0 0 0 1.322-.507 12.5 12.5 0 0 1 1.336-1.017 10.5 10.5 0 0 1 3.29-1.084 15 15 0 0 1 .875 1.386c1.121 2.037 1.989 4.203 3.099 6.248a52 52 0 0 0 3.952 6.11c.497.672.984 1.352 1.45 2.046a5.8 5.8 0 0 0-1.181.05 3.25 3.25 0 0 1-1.841-.362 8.8 8.8 0 0 1-1.629-1.45.018.018 0 0 0-.025.025c.449.539.937 1.044 1.377 1.59a2.27 2.27 0 0 0 1.372 1.01c.67.102 1.301-.283 1.976-.181a2 2 0 0 1 .5.151l.04.06c.422.7 1.336 1.944.604 2.713-1.131 1.19-3.564.55-4.91.22a20.8 20.8 0 0 1-9.91-5.933 23.8 23.8 0 0 1-3.513-4.735c-.522-.924-.922-1.907-1.432-2.836a7.7 7.7 0 0 0-2.122-2.393c-1.889-1.456-3.924-2.716-5.808-4.184a79 79 0 0 1-5.571-4.764 35 35 0 0 1-2.58-2.656 11.4 11.4 0 0 0-2.54-2.501c-2.209-1.374-4.536-2.54-6.841-3.737-.416-.216-.84-.411-1.265-.609a4.14 4.14 0 0 0 1.874-.118.11.11 0 0 0 0-.21c-.962-.381-2.048-.435-3.045-.724-1.029-.298-2.008-.715-3.004-1.102a33 33 0 0 0-6.119-1.87 34.4 34.4 0 0 0-6.837-.313 34 34 0 0 0-5.245.35 7.5 7.5 0 0 0-3.214 1.304c-.226.106-.445.224-.663.344.668-.726 1.407-1.407 2.123-2.046 1.122-1.001 2.274-1.965 3.392-2.969.044-.04-.012-.102-.06-.078a22.7 22.7 0 0 0-3.894 2.485 16.8 16.8 0 0 0-3.588 3.151 6.16 6.16 0 0 0-.777 4.072c.043.773.104 1.546.163 2.32a.39.39 0 0 0-.218.35c-.264-.661-.528-1.323-.78-1.987a14 14 0 0 1-.61-2.747 12.8 12.8 0 0 1-.14-3.08c.002-.02-.03-.024-.034-.005a12.6 12.6 0 0 0-.276 4.364 22 22 0 0 0 1.027 4.696c1.131 3.108 2.629 6.105 4.028 9.099 1.21 2.592 2.97 5.544 1.456 8.379-1.251 2.342-3.792 3.976-5.983 5.347a8.6 8.6 0 0 1-4.537 1.626 9 9 0 0 1-2.083-.283q-.306-.251-.616-.498c-.793-.626-1.607-1.217-2.37-1.881-1.549-1.35-3.032-2.783-4.542-4.174q-2.375-2.188-4.61-4.508c-1.546-1.604-3.168-3.131-4.709-4.736-.056-.059-.135.026-.087.087 1.318 1.653 2.592 3.3 4.003 4.875a25 25 0 0 0-2.329-1.967 33.8 33.8 0 0 0-6.877-3.428 48.5 48.5 0 0 1-11.726-7.133 70.6 70.6 0 0 1-9.707-9.746 127 127 0 0 1-8.027-11.128 29 29 0 0 0-4.463-5.742 14 14 0 0 0-1.476-1.015c-.45-.308-.88-.641-1.341-.932a9.7 9.7 0 0 0-3.268-1.27c-.021-.004-.038.027-.016.038.46.222.955.423 1.392.688.443.268.841.601 1.267.895a11 11 0 0 1 1.288 1.017 11 11 0 0 1 .975 1.233c.568.713 1.187 1.38 1.767 2.083.508 3.667 1.01 7.374 1.832 10.986l-.071-.056a45 45 0 0 1-1.657-1.516c-.19-1.698-.514-3.39-.78-5.076-.312-1.97-.646-3.938-.974-5.906-.002-.011-.019-.006-.017.005.282 1.94.557 3.882.855 5.82.256 1.672.462 3.37.79 5.033-1.38-1.327-2.693-2.722-4.004-4.115a23.9 23.9 0 0 0-6.556-5.255c-1.545-.785-3.195-1.32-4.777-2.023a30.5 30.5 0 0 0-4.863-1.932.038.038 0 0 0-.03.07 27.4 27.4 0 0 0 4.055 2.32c.612.316 1.21.653 1.807.991a44 44 0 0 0-8.366-.72 201 201 0 0 0-12.756.292c-8.503.45-16.974 1.35-25.428 2.348-8.511 1.005-17.011 2.109-25.54 2.96q-12.84 1.281-25.742 1.559c-8.655.192-17.32.1-25.972.355-1.084.032-2.165.133-3.246.217a.018.018 0 0 0 0 .035c4.31.454 8.655.54 12.987.64 4.326.099 8.659.152 12.986.093 8.617-.119 17.222-.513 25.806-1.3 16.888-1.547 33.656-4.264 50.584-5.398 4.752-.318 9.514-.51 14.277-.516a100 100 0 0 1 12.56.631q.05.03.103.058a23 23 0 0 1 3.608 2.261 31 31 0 0 1 3.079 2.945c3.625 3.83 7.295 7.907 12.155 10.183 1.302.61 2.666 1.08 4.015 1.57 1.135.412 2.325.75 3.46 1.181a56.2 56.2 0 0 0 16.77 12.639c2.52 1.188 5.257 1.97 7.7 3.308a25 25 0 0 1 3.544 2.523 20.7 20.7 0 0 0 2.826 1.897q1.164 1.257 2.325 2.518a53 53 0 0 0 4.555 4.437 14 14 0 0 0 2.66 1.848 7 7 0 0 0 1.979.814 7.17 7.17 0 0 0 4.395-.59 22 22 0 0 0 3.92-2.374 18.7 18.7 0 0 0 3.244-2.774 10 10 0 0 0 .92-1.235 2.88 2.88 0 0 0 1.921.827 45 45 0 0 0 4.867-.158c2.754-.114 5.77.02 8.344-1.116a7.57 7.57 0 0 0 4.237-5.91 52 52 0 0 0 .374-8.973q.004-2.828-.053-5.657-.027-1.353-.088-2.705a25 25 0 0 0-.202-2.047q1.156.33 2.336.567c2.028 1.436 4.093 2.816 6.237 4.078 1.108.652 2.293 1.217 3.35 1.95a18.3 18.3 0 0 1 2.597 2.82 69.3 69.3 0 0 0 11.635 9.693m10.711-2.785a11 11 0 0 0-1.418.834 6.7 6.7 0 0 1-1.072.728 8.7 8.7 0 0 1 2.451-2.309 8.8 8.8 0 0 1 1.722-.582 9 9 0 0 0 .766-.3c.23.284.464.565.677.866a6.6 6.6 0 0 0-3.126.763m-123.31-21.237c-.5-3.682-1.246-7.342-1.893-11.002.093.114.194.221.284.338.477.623.922 1.269 1.37 1.912q.388 2.298.78 4.594c.308 1.789.572 3.615 1.005 5.384a28 28 0 0 1-1.547-1.226m1.712 1.345c-.188-1.826-.575-3.65-.92-5.447-.287-1.495-.597-2.984-.905-4.474.128.185.266.362.393.549.433.637.872 1.268 1.307 1.903.26 1.305.519 2.61.815 3.906a43 43 0 0 0 1.17 4.786 25 25 0 0 1-1.86-1.223m2.087 1.351a39 39 0 0 0-1.089-4.89c-.3-1.242-.639-2.475-.971-3.709.564.823 1.124 1.649 1.693 2.466.177.933.385 1.862.564 2.789q.211 1.089.403 2.181a15 15 0 0 0 .311 1.674c-.309-.16-.61-.336-.91-.51m1.207.658a9.6 9.6 0 0 0-.248-1.744q-.213-1.13-.445-2.257c-.15-.726-.296-1.465-.466-2.198.332.474.658.952.996 1.421l.053.33c.1.589.2 1.178.314 1.764.11.564.214 1.13.33 1.692a8.3 8.3 0 0 0 .364 1.435c-.306-.135-.599-.294-.898-.443m1.425.687c-.095-.038-.183-.089-.278-.129a7 7 0 0 0-.211-1.592c-.11-.586-.24-1.169-.36-1.752-.098-.473-.207-.944-.315-1.415.386.532.772 1.064 1.168 1.59.112.544.24 1.087.359 1.627.117.531.223 1.066.343 1.597q.041.181.079.37c-.262-.098-.525-.192-.785-.296m1.206.456q-.041-.264-.084-.52a29 29 0 0 0-.336-1.661 42 42 0 0 0-.186-.794c.245.319.482.643.732.959a.08.08 0 0 0 .043.106c.012.005.022-.003.033-.008l.142.183.018.067.098.376c.064.252.122.505.188.756.065.25.122.504.188.755l.03.107c-.29-.106-.577-.22-.866-.326m2.528.972c-.419-.178-.845-.334-1.27-.493-.008-.045-.012-.088-.024-.139q-.07-.284-.158-.562-.166-.536-.366-1.06a86 86 0 0 0 1.95 2.322c-.046-.021-.086-.048-.132-.068m54.391 2.657a2.3 2.3 0 0 0-.303.276q-.2.129-.394.261a3.1 3.1 0 0 0-1.34-.502q.022-.25.04-.503.216-.497.422-.992a9 9 0 0 0 .31-.864c.037-.124.071-.25.112-.373a1 1 0 0 0 .084.067 19.8 19.8 0 0 0 3.718 1.47 4 4 0 0 0-.64.162 7 7 0 0 0-1.205.597 3 3 0 0 0-.804.401m5.755 2.224c.185 1.258.292 2.645.601 3.945a15 15 0 0 0-1.237-.743q-.83-.461-1.674-.896a49 49 0 0 0-3.289-1.53l-.004-.051a5.3 5.3 0 0 1 .079-1.994 5 5 0 0 1 .499-.465 7 7 0 0 1 1.342-.824 7.4 7.4 0 0 1 1.543-.563c.496.123.995.232 1.502.311q.25.04.504.062a8.4 8.4 0 0 0 .134 2.748m-4.926 5.678.185.087c.263.12.532.225.8.331q-.503.089-1 .184a.32.32 0 0 0 .077-.254c-.014-.116-.044-.231-.062-.348m.277-.137q-.166-.072-.328-.151c-.091-.5-.193-.998-.282-1.5.482.269.956.549 1.446.803l1.364.712c.209.108.44.248.679.363q-.883.103-1.756.252l-.134-.058c-.332-.135-.66-.28-.99-.421m2.252-.434-1.328-.67c-.516-.259-1.044-.492-1.567-.736-.019-.113-.043-.225-.059-.338-.042-.301-.07-.604-.102-.907.944.433 1.878.89 2.789 1.388q.84.46 1.66.955.425.255.842.52c.15.097.305.215.468.304-.536.01-1.072.036-1.608.09a3 3 0 0 0-.389-.239 35 35 0 0 0-.706-.367m2.44.107q-.416-.267-.84-.523-.873-.529-1.78-.998a33 33 0 0 0-2.884-1.31 57 57 0 0 1-.135-1.576q1.656.782 3.275 1.643.838.445 1.662.917c.422.242.851.506 1.294.721a8.4 8.4 0 0 0 .528 1.532c-.197-.007-.395.001-.592.002a2.3 2.3 0 0 0-.528-.408m14.991 6.066c-.109 2.227-.441 4.754-2.188 6.335-1.76 1.594-4.403 1.735-6.651 1.835-1.635.074-3.271.138-4.907.207-.8.033-1.609.114-2.41.1a3.2 3.2 0 0 1-1.604-.46 6 6 0 0 0 .44-1.324 8.15 8.15 0 0 0-.632-4.59c-.813-2.018-1.78-3.975-2.748-5.93a.6.6 0 0 0 .296.022 25.6 25.6 0 0 1 9.15-.604 9 9 0 0 1 3.866 1.696c.614.447 1.195.94 1.796 1.404.612.473 1.27.892 1.86 1.39a.047.047 0 0 0 .066-.066c-.566-.633-1.07-1.3-1.687-1.887a19 19 0 0 0-1.61-1.353 12.3 12.3 0 0 0-4.064-2.008 11 11 0 0 0-1.807-.345 1 1 0 0 0-.086-.054 74 74 0 0 1-.963-5.231 12.6 12.6 0 0 1-.263-2.66 4.2 4.2 0 0 1 .152-.82l.012-.007c.426-.398.692-.946 1.114-1.357a6.5 6.5 0 0 1 1.54-1.112 8.9 8.9 0 0 1 3.913-1.064c.016 0 .02-.026.004-.029a7.2 7.2 0 0 0-3.214.053 8.8 8.8 0 0 0-3.03 1.635c-.377.308-.86.994-1.357.995a9.8 9.8 0 0 1-2.121-.416 26 26 0 0 1-4.165-1.448l-.007-.002c.208-.17.435-.322.64-.472.247-.18.49-.361.723-.56.075-.064.141-.134.21-.203a10.8 10.8 0 0 1 2.644-.83 22 22 0 0 1 5.274-.135 55 55 0 0 1 6.606.725 44 44 0 0 1 5.315 1.552 81 81 0 0 0-.065 3.946c.021 1.476.053 2.952.06 4.428.018 2.877.04 5.769-.102 8.644"/><path fill="currentColor" d="M118.69 102.188c.64.893 1.297 1.765 1.988 2.619a21 21 0 0 0 2.242 2.49c.048.043.128-.012.092-.071a21 21 0 0 0-2.002-2.61 57 57 0 0 0-2.255-2.477c-.032-.033-.092.01-.065.05m1.783-1.242a.02.02 0 0 0-.032.025c.537.83 1.028 1.676 1.62 2.471.585.788 1.185 1.56 1.843 2.289a43 43 0 0 1 1.898 2.275c.625.796 1.2 1.672 1.895 2.409a.044.044 0 0 0 .069-.053c-.52-.833-1.2-1.588-1.793-2.37a44 44 0 0 1-1.776-2.487c-.52-.796-1.096-1.547-1.687-2.292-.636-.801-1.35-1.513-2.037-2.267m3.018.66a.02.02 0 0 0-.028.028c.515.85 1.164 1.642 1.755 2.441.606.821 1.24 1.616 1.881 2.41.715.886 1.413 1.78 2.078 2.705a25 25 0 0 0 1.88 2.628c.017.018.043-.004.033-.025a26 26 0 0 0-1.952-2.697 62 62 0 0 1-1.904-2.841c-1.027-1.608-2.097-3.585-3.743-4.65m4.281 1.896a.038.038 0 0 0-.065.038q1.39 2.394 2.975 4.658.77 1.1 1.563 2.181.422.575.85 1.145a3.3 3.3 0 0 0 .726.847.033.033 0 0 0 .047-.036 3.6 3.6 0 0 0-.649-.98q-.397-.54-.789-1.084-.807-1.122-1.589-2.262-1.541-2.249-3.069-4.507m4.055 3.083c-.033-.05-.112-.006-.08.047a54 54 0 0 0 2.428 3.78q.642.903 1.316 1.782a9.5 9.5 0 0 0 1.418 1.66.085.085 0 0 0 .134-.103 12.5 12.5 0 0 0-1.302-1.781q-.673-.88-1.331-1.773a136 136 0 0 1-2.583-3.612m6.133 6.596a6 6 0 0 0 .818.986.038.038 0 0 0 .06-.046 6.4 6.4 0 0 0-.716-1.132l-.765-1.053a53 53 0 0 0-1.577-2.045c-.03-.036-.09.011-.065.05.48.74.968 1.47 1.483 2.184zm2.9 1.323q-.213-.264-.44-.517c-.149-.17-.314-.327-.47-.488-.035-.036-.086.017-.054.054.148.17.29.348.447.51.157.164.313.327.476.483.028.026.065-.013.042-.042m-1.462 13.832c-.319-3.034-.836-6.048-1.227-9.073-.002-.019-.03-.02-.03 0a84 84 0 0 0 1.2 9.08c.006.033.06.026.057-.007m-2.266-4.475a29 29 0 0 0-.863-4.48.032.032 0 0 0-.062.016c.36 1.475.64 2.972.884 4.47.004.022.043.017.04-.006m11.238.506a9 9 0 0 0-.513-1.74l-.608-1.715c-.015-.042-.081-.026-.068.018l.522 1.774a9 9 0 0 0 .603 1.69c.02.039.069.01.064-.027m2.028.084q-.72-2.86-1.47-5.713a.02.02 0 0 0-.04.01q.625 2.83 1.282 5.65c.218.94.446 1.878.672 2.816a23 23 0 0 0 .75 2.795c.015.04.087.038.081-.011a22 22 0 0 0-.56-2.627c-.237-.974-.47-1.948-.715-2.92m2.607 3.255c.007.024.049.021.046-.006a28 28 0 0 0-.713-3.616q-.455-1.854-.977-3.69a.032.032 0 0 0-.062.017q.465 1.816.867 3.647c.267 1.217.496 2.45.839 3.648m1.419 6.011a.047.047 0 0 0 .086-.012 2 2 0 0 0-.078-.783 27 27 0 0 0-.182-.908c-.127-.592-.24-1.187-.357-1.782-.005-.03-.05-.016-.045.013.091.607.184 1.214.263 1.822q.052.42.119.84a2.2 2.2 0 0 0 .194.81m1.761-2.163c-.524-2.15-1.069-4.294-1.613-6.44a.018.018 0 0 0-.034.01c.497 2.157.993 4.315 1.51 6.468l.748 3.109a18.5 18.5 0 0 0 .799 3.102c.012.027.056.013.055-.015a18.5 18.5 0 0 0-.71-3.127zm4.65 9.809c-1.182-3.735-2.41-7.424-3.268-11.253-.005-.022-.039-.013-.034.01a56.6 56.6 0 0 0 3.264 11.259c.01.021.044.006.038-.016m1.136-1.641q-.62-2.04-1.05-4.13c-.003-.018-.031-.01-.028.008q.415 2.132 1.022 4.218.304 1.042.664 2.066a13 13 0 0 0 .74 1.883.02.02 0 0 0 .037-.016c-.189-.692-.499-1.36-.734-2.04a55 55 0 0 1-.65-1.989m1.155-1.588a.015.015 0 0 0-.029.008 35 35 0 0 0 1.252 4.13 18.8 18.8 0 0 0 1.742 3.806c.014.021.052.009.043-.018-.488-1.322-1.157-2.579-1.665-3.896a46 46 0 0 1-1.343-4.03m4.917 7.957a14 14 0 0 0 .954 1.664.047.047 0 0 0 .08-.048c-.257-.583-.6-1.131-.902-1.693q-.438-.816-.853-1.645a118 118 0 0 1-1.629-3.396c-.01-.02-.046-.006-.037.016a46 46 0 0 0 1.513 3.396q.425.86.874 1.706m4.256 3.094a.047.047 0 0 0 .075-.057 10 10 0 0 0-.737-1.15q-.37-.552-.716-1.119a39 39 0 0 1-1.333-2.341c-.017-.034-.065-.005-.05.03a24 24 0 0 0 1.247 2.44q.349.59.725 1.162a5.8 5.8 0 0 0 .79 1.035m2.354.976a.03.03 0 0 0 .046-.035 5 5 0 0 0-.515-.767l-.56-.739c-.365-.48-.747-.947-1.123-1.417-.014-.018-.046.005-.032.024.353.506.702 1.014 1.068 1.51l.55.746a5 5 0 0 0 .566.678m2.184.619c-.262-.291-.522-.583-.798-.861-.277-.279-.566-.54-.858-.802a.035.035 0 0 0-.05.05c.263.291.524.58.802.857.279.276.57.536.862.798a.03.03 0 0 0 .042-.042m8.984-29.533a59.5 59.5 0 0 1 6.418 6.857c.037.043.106-.013.078-.06a26.4 26.4 0 0 0-6.401-6.893c-.067-.053-.162.039-.095.096m2.327-.793c-.013-.01-.03.012-.017.023a40.5 40.5 0 0 1 5.402 5.363 38 38 0 0 1 2.365 3.14c.719 1.07 1.339 2.2 2.05 3.274.022.034.086.013.069-.03a26.2 26.2 0 0 0-4.196-6.394 34.4 34.4 0 0 0-5.673-5.376m8.455 5.966c.016.015.046-.005.032-.025-.153-.23-.348-.44-.521-.655-.19-.236-.391-.463-.59-.693l-1.17-1.356c-.03-.034-.078.015-.05.05l1.136 1.353c.183.219.362.441.553.654.2.222.39.468.61.672m3.223 5.06c.137.243.339.657.623.75a.096.096 0 0 0 .115-.065.8.8 0 0 0-.048-.446 3 3 0 0 0-.228-.509 7 7 0 0 0-.584-.911 20 20 0 0 0-1.423-1.602c-.02-.021-.059.007-.041.032a16 16 0 0 1 1.073 1.832c.162.311.34.614.513.92m-1.938-6.092a.035.035 0 0 0-.05.05 40 40 0 0 1 2.249 2.812q.509.692.971 1.416.238.373.462.754a1.4 1.4 0 0 0 .483.6.053.053 0 0 0 .08-.045 1.2 1.2 0 0 0-.25-.681 21 21 0 0 0-.49-.794 24 24 0 0 0-1.036-1.492 19 19 0 0 0-2.42-2.62m2.594.6c-.022-.022-.052.01-.033.033.486.57.942 1.174 1.371 1.79q.31.445.592.91a8 8 0 0 0 .58.895c.024.03.075-.002.064-.037a7.1 7.1 0 0 0-1.117-1.912 13 13 0 0 0-1.457-1.68m3.529 2.06c.05.076.098.15.154.222a1.2 1.2 0 0 0 .189.222c.022.017.07.01.065-.027a1.3 1.3 0 0 0-.227-.504 6 6 0 0 0-.338-.48 9 9 0 0 0-.81-.865.044.044 0 0 0-.061.062 9 9 0 0 1 .709.908c.105.155.217.305.32.462m1.699-.642a12 12 0 0 0-.895-1.028c-.031-.034-.079.016-.05.05a12 12 0 0 0 .913 1.003c.016.015.046-.005.032-.025M483.63 355.465c-.015-.001-.02.026-.003.028a26 26 0 0 0 3.625.29q.924-.002 1.847-.058a6.3 6.3 0 0 0 1.784-.244.05.05 0 0 0-.013-.098 10 10 0 0 0-1.842.074q-.888.053-1.776.062c-1.208.015-2.415.015-3.621-.054m2.799-.827c-.02-.002-.024.03-.004.034a10.7 10.7 0 0 0 2.63.118c.438-.028.875-.066 1.311-.104a5.2 5.2 0 0 0 1.292-.147c.065-.024.084-.138 0-.153a4.7 4.7 0 0 0-1.194.075c-.452.044-.905.089-1.358.124a19 19 0 0 1-2.677.053m2.05-.999c-.016 0-.022.026-.005.029a9.5 9.5 0 0 0 2.18.036 11 11 0 0 0 1.06-.13 2 2 0 0 1 .298-.068 1.4 1.4 0 0 1 .328.105.52.52 0 0 0 .48-.118.25.25 0 0 0-.11-.416.52.52 0 0 0-.48.113c-.046.036-.08.09-.125.126a.54.54 0 0 1-.353.093c-.366.03-.731.105-1.099.137-.724.062-1.449.07-2.175.093m4.417-1.616-.673.114a7 7 0 0 0-.67.127c-.234.065-.463.145-.698.206a.047.047 0 0 0 .013.092c.24-.012.482-.005.724-.013a7 7 0 0 0 .672-.08l.679-.093c.126-.018.502-.05.473-.251-.029-.203-.397-.123-.52-.102m.686-.982q.05-.03.1-.063a.02.02 0 0 0-.017-.038c-.038.008-.078.012-.116.023a1 1 0 0 0-.108.045l-.213.093c-.036.015-.01.078.027.064l.218-.081a1 1 0 0 0 .11-.043m6.455-23.383-1.082-.412c-.734-.28-1.471-.549-2.21-.817-.014-.005-.02.017-.006.023.716.292 1.432.583 2.152.864l1.04.406a9 9 0 0 0 1.127.407.024.024 0 0 0 .018-.043 8 8 0 0 0-1.04-.428m-5.552 5.082a9 9 0 0 0 1.327.296.068.068 0 0 0 .034-.125 6.4 6.4 0 0 0-1.313-.347q-.681-.15-1.369-.263-1.354-.22-2.722-.345c-.01-.001-.012.016-.002.017q1.376.191 2.736.479.655.14 1.309.288m.975-.894.662.121a1 1 0 0 0 .546.04.045.045 0 0 0 .02-.074.94.94 0 0 0-.515-.154l-.611-.107q-.688-.122-1.38-.23l-2.715-.42c-.014-.002-.021.02-.006.023l2.68.548q.66.133 1.32.253m.893-.542a2 2 0 0 0 .649.055.044.044 0 0 0 .01-.08 2 2 0 0 0-.637-.157c-.23-.038-.46-.067-.691-.096l-1.413-.174c-.013-.002-.016.02-.003.023l1.397.294q.342.074.688.135m1.372-.734c.064.008.129.009.193.019.063.009.125.026.188.032.021.001.027-.029.01-.039a.7.7 0 0 0-.193-.066 1 1 0 0 0-.193-.03 1.6 1.6 0 0 0-.401.046c-.019.005-.015.037.005.035a1.6 1.6 0 0 1 .39.003m6.814-4.134a2 2 0 0 0-.533.051.73.73 0 0 0-.43.238c-.063.059-.115.147-.04.222a.2.2 0 0 0 .112.054.8.8 0 0 0 .464.018 2.6 2.6 0 0 0 .503-.157 6 6 0 0 1 .98-.31c.034-.007.024-.055-.008-.057q-.526-.035-1.048-.06m4.577-.165q-.997-.013-1.994-.02a.059.059 0 0 0 0 .117c.665.034 1.33.069 1.994.097a9 9 0 0 0 1.927-.007.035.035 0 0 0 0-.067 8.8 8.8 0 0 0-1.927-.12m-4.412-.973c-.567.035-1.112.14-1.672.221-.017.003-.012.029.004.03.29.007.578.04.867.046s.578-.007.868-.023c.562-.03 1.119-.127 1.675-.208.034-.005.024-.056-.007-.057-.579-.017-1.157-.045-1.735-.01m4.033.078a7 7 0 0 1 .975.038c.159.02.317.05.476.07.136.015.314.073.442.005a.044.044 0 0 0 .009-.069c-.103-.102-.298-.093-.433-.106a4 4 0 0 0-.476-.011c-.331.004-.662.005-.993.026-.03.002-.03.048 0 .047m-.847-1.261a9 9 0 0 0 1.791.03c.036-.007.031-.06 0-.068a7.4 7.4 0 0 0-1.79-.117q-.965-.027-1.93-.03a58 58 0 0 0-3.861.13c-.041.003-.042.066 0 .064 1.286-.039 2.574-.05 3.86-.043q.966.004 1.93.034m-.356-1.658a8.7 8.7 0 0 0 1.555.006c.046-.008.043-.08 0-.09a7 7 0 0 0-1.555-.061q-.835 0-1.67.021-1.674.045-3.339.204c-.015.002-.015.025 0 .024q1.667-.088 3.338-.108.836-.01 1.671.004m-1.437-2.975c-.017.003-.013.03.004.03.216-.002.434.018.65.001a2.7 2.7 0 0 0 .633-.092c.027-.01.034-.058 0-.062a4.3 4.3 0 0 0-1.287.124m-9.289 14.859c-.04.004-.042.065 0 .064 2.06-.043 3.572 1.396 5.26 2.344a.044.044 0 0 0 .052-.069 6.67 6.67 0 0 0-5.312-2.34m2.585-.659a10 10 0 0 1 1.18.27c.045.014.07-.052.032-.076a3.6 3.6 0 0 0-1.15-.496 1.84 1.84 0 0 0-1.192.047.012.012 0 0 0 0 .02 2 2 0 0 0 .555.137q.288.044.575.098m3.417 1.118a1 1 0 0 0-.16-.047l-.275-.111a.07.07 0 0 0-.079.039.07.07 0 0 0 .028.084l.13.08c.04.025.08.053.121.074q.014.01.006.003l.015.012.03.024a.4.4 0 0 0 .091.062.3.3 0 0 0 .087.024.13.13 0 0 0 .083-.034.1.1 0 0 0 .024-.029.13.13 0 0 0-.028-.13.4.4 0 0 0-.073-.05m-2.667-2.196c-.054-.002-.05.076 0 .082a8.4 8.4 0 0 1 1.536.335c.486.154.956.348 1.433.53.033.012.047-.036.023-.054a5.4 5.4 0 0 0-2.992-.893m2.729-.53a6.5 6.5 0 0 0-.942-.119c-.019-.001-.024.032-.004.035a7 7 0 0 1 .913.203c.15.045.301.086.45.137.074.025.147.052.223.072a.8.8 0 0 0 .204.044.033.033 0 0 0 .023-.055 1.05 1.05 0 0 0-.414-.193 4 4 0 0 0-.453-.124m1.508-.722q-.04-.02-.083-.036l-.08-.02a1 1 0 0 0-.167-.03l-.157-.004a.024.024 0 0 0-.012.044l.135.084a1 1 0 0 0 .157.068l.077.026.081.015.081.014a.2.2 0 0 0 .085-.01.042.042 0 0 0 .018-.068.2.2 0 0 0-.06-.051zm3.696-31.156c-.163-.125-.356-.04-.552-.064a4 4 0 0 1-.582-.106c-.17-.05-.292-.165-.467-.208-.19-.048-.387-.079-.58-.115a11.6 11.6 0 0 0-2.182-.297.012.012 0 0 0-.003.023c.349.1.711.149 1.067.22q.557.113 1.108.249c.177.043.353.092.53.136.188.047.373-.01.555.047a5 5 0 0 1 .516.188c.188.085.292.257.505.241a.17.17 0 0 0 .085-.314m-.684 1.382a.63.63 0 0 0 .388.036.166.166 0 0 0 .072-.274 1.3 1.3 0 0 0-.704-.168q-.414-.049-.826-.107a74 74 0 0 1-1.58-.24c-.033-.005-.048.044-.014.052q.772.185 1.539.389.376.099.75.206Zm-1.296.309c-.14-.01-.28-.024-.42-.026a21 21 0 0 1-.85-.032c-.017-.001-.019.023-.004.028a8 8 0 0 0 .822.234 4 4 0 0 0 .42.06.7.7 0 0 0 .22-.004.5.5 0 0 0 .183-.056.056.056 0 0 0 .011-.087.5.5 0 0 0-.166-.076.7.7 0 0 0-.216-.041m-28.679 20.662c-.01-.002-.015.014-.004.017.726.173 1.445.37 2.161.582a14 14 0 0 0 2.104.522c.035.004.047-.05.018-.066a8.7 8.7 0 0 0-2.07-.643 51 51 0 0 0-2.209-.412m-.179-1.673c1.187.337 2.372.682 3.561 1.01.583.16 1.168.32 1.755.468a6.7 6.7 0 0 0 1.748.306.08.08 0 0 0 .04-.147 6.5 6.5 0 0 0-1.615-.525c-.61-.15-1.227-.283-1.84-.417-1.209-.263-2.42-.509-3.63-.763a.035.035 0 0 0-.019.068m1.971-1.155a.02.02 0 0 0-.01.04c.784.231 1.566.476 2.359.68.397.102.792.208 1.195.284s.812.134 1.213.222a.015.015 0 0 0 .008-.029c-.394-.11-.78-.251-1.171-.374s-.79-.215-1.188-.311c-.796-.194-1.603-.346-2.406-.512m5.811 1.27c-.236-.02-.473-.043-.71-.047v.005a2.7 2.7 0 0 1 .682.15 2 2 0 0 1 .303.138 2 2 0 0 0 .314.17c.177.063.303-.228.13-.305a1.2 1.2 0 0 0-.374-.076c-.116-.01-.23-.025-.346-.035m-2.824-2.049c-.018-.003-.027.024-.008.028q1.705.405 3.417.776l.833.177.441.094a1 1 0 0 0 .277.051c.18-.022.18-.279.01-.215-.015.005-.018.02-.02.035-.233-.078-1.1-.235-1.199-.254q-.615-.12-1.231-.237-1.259-.239-2.52-.455m3.301-.543a13 13 0 0 0 1.6.392 4.3 4.3 0 0 0 1.565.051.035.035 0 0 0 0-.068 10.4 10.4 0 0 0-1.537-.187 15 15 0 0 1-1.614-.24.026.026 0 0 0-.014.052m1.454-.892c-.018-.001-.018.023-.004.028a9 9 0 0 0 1.352.33l.68.149c.104.023.21.043.314.07a3 3 0 0 0 .337.099c.131.015.15-.19.03-.226a4 4 0 0 0-.376-.043l-.317-.059q-.343-.064-.685-.13a9 9 0 0 0-1.33-.218m3.283-.111c.086-.002.404.008.418-.12.015-.127-.296-.18-.375-.197a5 5 0 0 0-.584-.065c-.405-.039-.804.04-1.208.031-.026 0-.033.042-.007.046.396.068.771.216 1.173.258a5 5 0 0 0 .583.047m1.402-1.217a.02.02 0 0 0 0-.04 1 1 0 0 0-.125-.021l-.13-.004a2 2 0 0 0-.26.022.023.023 0 0 0 0 .047 2 2 0 0 0 .26.021q.065 0 .13-.003a1 1 0 0 0 .125-.022"/><path fill="currentColor" d="M578.296 280.419a2.65 2.65 0 0 0-1.809-1.712c-1.295-.312-2.581.459-3.725.956q-8.187 3.559-16.62 6.523c-2.702.952-5.43 1.844-8.211 2.536a64 64 0 0 1-8.592 1.386 28 28 0 0 0-4.244.74c-1.378.373-2.716.872-4.052 1.369a59.4 59.4 0 0 1-8.12 2.425 80 80 0 0 1-8.473 1.312c-2.877.305-5.77.444-8.645.754-1.4.151-2.806.238-4.208.38a.2.2 0 0 0-.125.064c-.223-.011-.445-.024-.67-.03-2.885-.083-5.753.004-8.633.151a145 145 0 0 1-18.22-.306c-6.106-.456-12.187-1.173-18.268-1.878-6.03-.699-12.096-1.26-18.1-2.16-2.072-.31-4.155-.63-6.216-1.041a36 36 0 0 1-5.121-3.016c-1.313-.933-2.431-2.067-3.696-3.051a15 15 0 0 0-4.014-2.161c-3.124-1.163-6.41-1.962-9.6-2.922q-4.959-1.493-9.905-3.027-19.781-6.136-39.35-12.932-19.565-6.795-38.901-14.224c-6.366-2.45-12.87-4.754-18.93-7.907-5.911-3.075-11.229-7.154-17.063-10.369-11.277-6.215-23.473-10.194-35.768-13.845a78 78 0 0 0-4.665-1.25.132.132 0 0 0-.07.255c5.99 2.395 12.216 4.214 18.256 6.491a182 182 0 0 1 17.879 7.656c5.914 2.986 11.291 6.748 16.941 10.177 5.733 3.478 11.98 5.889 18.206 8.32q19.293 7.532 38.832 14.42 19.537 6.875 39.298 13.092 9.878 3.108 19.807 6.05c1.55.46 3.123.877 4.64 1.44a19 19 0 0 1 4.228 2.398 59 59 0 0 0 5.67 3.644 67 67 0 0 1-9.343-3.182c-.024-.01-.045.023-.02.035a63 63 0 0 0 7.786 3.492 59 59 0 0 0 8.24 2.454c2.957.581 5.962.9 8.954 1.247l9.08 1.053c12.133 1.407 24.324 3.013 36.566 2.649 3.294-.098 6.579-.445 9.872-.535a48 48 0 0 1 4.857.156 39 39 0 0 1 4.92.587.17.17 0 0 0 .09-.327 20.6 20.6 0 0 0-4.232-1.233 94.6 94.6 0 0 0 13.508-.853 63 63 0 0 0 8.197-1.68c2.687-.752 5.245-1.855 7.904-2.688a50 50 0 0 1 8.486-1.377 54.4 54.4 0 0 0 8.074-1.774c5.508-1.616 10.9-3.701 16.224-5.84q2.023-.812 4.035-1.654c.851-.356 1.7-.764 2.562-1.123a4 4 0 0 0-.669 2.143c-.386.202-.749.447-1.133.656a10 10 0 0 1-1.42.614c-.446.16-.9.332-1.36.449a2 2 0 0 1-.485.078c-.12-.001-.247-.047-.364-.038-.191.014-.352.19-.497.297-.069.05-.08.192.027.209a1.5 1.5 0 0 0 .546.056c.106-.025.225-.162.299-.21a2 2 0 0 1 .391-.174c.512-.19 1.05-.32 1.568-.497.474-.163.945-.33 1.427-.472a10 10 0 0 0 1.497-.496.32.32 0 0 0 .162-.282 3.02 3.02 0 0 1 .598-2.068 4 4 0 0 1 .788-.767c2.43-.675 2.248 2.429 1.728 3.947-1.495 4.368-5.131 7.605-9.128 9.7a51.3 51.3 0 0 1-10.691 3.814l-.023-.043c.005-.01.02-.014.02-.026-.016-.182-.164-.262-.296-.369-.086-.069-.165-.145-.247-.218a15 15 0 0 1-1.015-1.228 9.5 9.5 0 0 1-.669-1.06c-.155-.34-.29-.689-.415-1.048-.039-.161-.278-.092-.246.068a6 6 0 0 0 .952 2.152c.026.047.048.096.075.142a6.7 6.7 0 0 0 1.141 1.49l-.02-.008c-.058-.018-.08.07-.025.09.043.016.137.037.224.067q.06.053.124.103c-1.463.389-2.926.769-4.372 1.176-5.004 1.408-9.9 3.176-14.78 4.964a1 1 0 0 1-.18-.1 8 8 0 0 1-.753-.604 9.5 9.5 0 0 1-1.224-1.31 10.2 10.2 0 0 1-1.693-3.247c-.008-.024-.05-.021-.046.006a7.35 7.35 0 0 0 2.164 4.578c.237.225 1.127.8.477 1.065-.402.163-.863-.25-1.114-.518-.258-.275-.391-.634-.64-.907-.045-.051-.102-.076-.147-.12a.65.65 0 0 1-.129-.273 1.3 1.3 0 0 1 .01-.713.018.018 0 0 0-.035-.01 4 4 0 0 0-.12.743 2 2 0 0 1-.015.33.73.73 0 0 0-.021.47 1.88 1.88 0 0 0 1.14 1.112 2.1 2.1 0 0 0 .661.107l-.045.017-16.576 6.081c-1.71.628-3.51 1.217-5.27 1.898q-.442-.102-.886-.197l-1.613-.334c.111-.095.22-.194.336-.282.02-.016-.006-.041-.025-.033a20 20 0 0 0-.56.264l-.008-.002a.026.026 0 0 0-.032.02 9.2 9.2 0 0 0-1.906 1.204 18 18 0 0 0-2.094 2.094c-1.337 1.55-2.484 3.258-3.87 4.764a9 9 0 0 1-2.583 2.02 25 25 0 0 1-3.347 1.212 26 26 0 0 1-3.363 1.086c-.543.097-1.082.009-1.625.057a3.35 3.35 0 0 0-1.38.51c-1.095.627-2.367.963-3.414 1.668a4 4 0 0 0-.471.385 13.7 13.7 0 0 1 2.438-2.993c1.021-1.067 2.059-2.157 3.14-3.162.094-.086-.03-.255-.138-.179a46 46 0 0 0-3.78 2.895 12.5 12.5 0 0 0-2.893 3.188 6.5 6.5 0 0 0-.554 4.216 19.4 19.4 0 0 0 1.33 4.533c.048.114.246.058.234-.063a78 78 0 0 1-.316-4.308l-.016-.397c.063.123.122.248.186.37.394.744.82 1.474 1.24 2.203l.147.25c-.053-.001-.107-.008-.16-.009-.032 0-.03.044 0 .047.066.008.133.02.2.028.364.622.738 1.238 1.099 1.862a5.6 5.6 0 0 0 1.371 1.759c1.22.947 2.598 1.694 3.836 2.625a39 39 0 0 1 1.95 1.573 7 7 0 0 0 .818.67 9 9 0 0 0 1.206.524.192.192 0 0 0 .26-.26 7 7 0 0 0-.595-1.135 6 6 0 0 0-1.008-.951c-.279-.235-.573-.452-.858-.68a15.8 15.8 0 0 1 3.69 1.76 8.1 8.1 0 0 1 2.388 3.35 19.7 19.7 0 0 1 1.58 4.274c.287 1.432-.94 2.716-1.805 3.737a21.3 21.3 0 0 1-2.944 2.853c-2.077 1.665-4.708 3.442-7.454 3.477a22.5 22.5 0 0 1-5.161-.796c-.419-.094-.836-.196-1.255-.294l.117-.009a37 37 0 0 0 2.981-.425c1.026-.184 1.986-.551 2.994-.774.06-.013.048-.116-.015-.11-1.012.116-2.054.075-3.076.166a41 41 0 0 1-2.884.157 19.7 19.7 0 0 1-5.764-.713 11.1 11.1 0 0 1-4.766-2.748c-.28-.267-.565-.54-.858-.804q.51.065 1.024.117a.136.136 0 0 0 .068-.251c-1.25-.574-2.472-1.187-3.73-1.74-1.28-.561-2.585-1.066-3.853-1.658a52 52 0 0 1-3.626-1.886 14.2 14.2 0 0 0-3.93-1.687c-1.294-.286-2.625-.378-3.934-.578q-1.795-.274-3.568-.676a52.3 52.3 0 0 1-29.79-19.011c-.97-1.27-1.88-2.587-2.837-3.868a24 24 0 0 0-2.855-3.398 18 18 0 0 0-3.447-2.354 9.5 9.5 0 0 0-3.668-1.218c-.074-.007-.076.098-.016.121a15.5 15.5 0 0 1 3.403 1.778c.205.145.392.304.579.463a35 35 0 0 0-3.705-.9c-1.853-.408-3.691-.765-5.519-1.29-1.851-.532-3.712-1.03-5.561-1.564-.031-.01-.054.04-.023.053 1.604.705 3.163 1.45 4.808 2.061.425.158.854.308 1.282.463-1.499-.297-2.996-.6-4.487-.922-2.706-.583-5.496-.857-8.236-1.243q-8.098-1.142-16.198-2.26l-32.726-4.544c-10.786-1.498-21.579-2.943-32.358-4.484-10.68-1.527-21.334-3.193-31.917-5.302q-7.79-1.553-15.516-3.414c-5.15-1.234-10.213-2.74-15.312-4.163-1.26-.352-2.518-.706-3.771-1.082-.052-.016-.07.06-.022.079a183 183 0 0 0 30.48 8.837c10.556 2.24 21.213 4.056 31.875 5.716 10.74 1.671 21.506 3.163 32.271 4.656l32.727 4.541c10.839 1.504 21.686 3.299 32.593 4.174.985.079 1.97.149 2.954.224.5.165.996.336 1.498.489 1.599.485 3.266.702 4.85 1.242a12 12 0 0 1 2.061.904c.086.049.163.105.245.158 1.76 2.035 3.315 4.184 4.925 6.339a53 53 0 0 0 10.146 10.288 54.2 54.2 0 0 0 26.385 10.795 12.7 12.7 0 0 1 4.58 1.3c1.369.732 2.701 1.52 4.102 2.194a32 32 0 0 0 4.26 1.778 18 18 0 0 0 2.167.521c.633.774 1.147 1.67 1.78 2.438a9.25 9.25 0 0 0 4.989 2.774 13 13 0 0 0 2.053.305 17 17 0 0 0 4.443 1.438 31.4 31.4 0 0 0 5.05 1.025c3.209.239 6.085-1.488 8.56-3.36a22.7 22.7 0 0 0 3.315-3.037 10 10 0 0 0 2.44-3.725c.4-1.573-.498-3.403-1.085-4.828-.086-.208-.178-.419-.267-.628a4.07 4.07 0 0 0 2.382-.497 45 45 0 0 0 4.002-2.24c2.662-1.593 5.275-3.262 7.876-4.952 2.157-1.4 4.622-3.278 4.572-6.14a8.34 8.34 0 0 0-1.605-3.921c-.813-1.39-1.594-2.799-2.39-4.199q-1.346-2.369-2.7-4.735a42 42 0 0 0-2.477-4.09c1.225-.484 2.453-.927 3.629-1.358l17.025-6.243c5.541-2.032 11.06-4.15 16.715-5.85 5.394-1.624 11.029-2.59 16.17-4.963 4.157-1.918 8.09-4.941 10.19-9.099.896-1.776 1.686-4.019.932-5.987m-78.135 43.26.07.129c.05.18.114.356.174.534-.165-.057-.327-.12-.496-.17-.226-.064-.454-.115-.683-.168.312-.108.63-.207.935-.325m-2.051.713c.203-.067.4-.142.603-.21q.072.02.143.042.48.146.96.289c.238.072.477.138.716.206.057.148.123.293.183.44-.435-.131-.875-.247-1.299-.373q-.66-.198-1.322-.389Zm-.3.1c.514.172 1.032.336 1.55.5.486.152.983.327 1.484.477q.165.38.334.76c-.252-.082-.506-.155-.737-.236q-.857-.301-1.721-.58a42 42 0 0 0-1.963-.574q.527-.173 1.052-.348m-1.302.429q1.05.324 2.099.659.833.269 1.66.556.429.15.856.305l.179.07q.07.163.142.324.125.28.27.555c-1.007-.472-2.09-.84-3.12-1.201a33 33 0 0 0-3.25-.933c.389-.107.779-.211 1.164-.335m-5.868 1.233a9 9 0 0 0 .776.9 4.5 4.5 0 0 1 .421.845c.012.033.1.21.078.244-.044.065-.104-.048-.154-.112-.14-.179-.254-.385-.38-.574a13 13 0 0 1-.779-1.287Zm-.579.257c.153.484.367.955.554 1.428l.265.663a1 1 0 0 1 .076.23 1 1 0 0 1-.115-.1 5.5 5.5 0 0 1-.551-.615 11 11 0 0 0-.791-1.363zm-1.801 3.794c-.018-.015-.041-.033-.053-.046q-.136-.142-.263-.291a6 6 0 0 1-.42-.551 7.5 7.5 0 0 1-.665-1.22c.05-.04.099-.085.151-.125a.4.4 0 0 0 .02.076 6 6 0 0 0 .396.704 2 2 0 0 0 .188.384 1.7 1.7 0 0 0 .295.34q.157.286.3.58l.074.156zm.513 2.025c.332-.255.618-.582.941-.846a11 11 0 0 1 1.198-.85 14.4 14.4 0 0 1 2.91-1.317 16.26 16.26 0 0 1 7.366-.422.02.02 0 0 0 .01-.04 14.7 14.7 0 0 0-5.344-.756 6.5 6.5 0 0 1 2.48-.18c.04.005.059-.052.017-.063a7.8 7.8 0 0 0-2.703-.196 7.4 7.4 0 0 0-1.346.244c-.23.065-.46.128-.685.204l-.055-.087c-.177-.313-.362-.622-.525-.943a10 10 0 0 1-.415-.93c-.081-.212-.15-.433-.224-.652a4 4 0 0 1 .74.128 4.1 4.1 0 0 0 1.667-.113c.13-.031.258-.077.389-.112 1.101.318 2.198.651 3.283 1.02q1.024.348 2.03.741c.446.175.887.367 1.33.55a3.4 3.4 0 0 0 .705.882 3 3 0 0 0 .323.238c-.168.067-.338.132-.504.207a31 31 0 0 0-3.09 1.686 17.5 17.5 0 0 0-2.739 1.918 7 7 0 0 1-.537.514 2.1 2.1 0 0 1-.989.225l-.93.112-.127-.025q-.857-.19-1.718-.356a52 52 0 0 0-3.292-.506q-.084-.137-.166-.275m.712 1.18q-.24-.395-.477-.791c1.083.176 2.16.381 3.238.591.409.08.816.168 1.223.255l-.403.049-.945.114a22 22 0 0 0-1.222-.143c-.47-.041-.942-.05-1.414-.075m25.052-15.77c.735 1.291 1.488 2.573 2.23 3.861 1.438 2.5 2.975 4.982 4.252 7.57 1.32 2.676-.632 4.82-2.77 6.257-2.283 1.533-4.617 3.005-6.932 4.49a96 96 0 0 1-4.07 2.48 12.4 12.4 0 0 1-2.078 1.062c-.549.188-1.107.176-1.64.348a11.2 11.2 0 0 0-1.587-2.562 9.5 9.5 0 0 0-4.183-2.426 61 61 0 0 0-4.179-1.293c-.274-.186-.538-.388-.818-.566a6.9 6.9 0 0 1-2.097-1.646c-.068-.095-.13-.194-.197-.29.304-.04.606-.09.9-.125l1.698-.202 1.94-.23a4.5 4.5 0 0 0 1.35-.223 9 9 0 0 0 1.308-1.034q.625-.452 1.277-.865a71 71 0 0 1 2.997-1.784 12.73 12.73 0 0 1 6.604-1.915 32.3 32.3 0 0 1 7.002 1.133c.013.003.022-.016.01-.021a20.3 20.3 0 0 0-6.449-1.78 15.6 15.6 0 0 0-2.852.04q.574-.13 1.154-.226a18.4 18.4 0 0 1 4.318-.142c.034.002.038-.048.008-.058a10.67 10.67 0 0 0-7.728.492 2.6 2.6 0 0 1-.86-.566 6.2 6.2 0 0 1-.889-1.541c-.297-.624-.587-1.25-.914-1.859-.125-.231-.272-.444-.416-.66a8 8 0 0 0 2.832-2.013c.125-.144.236-.298.357-.445.69.026 1.38.049 2.07.055q.576.007 1.15.004l.531-.005a1.4 1.4 0 0 0 .539-.055.03.03 0 0 0 0-.056 1.4 1.4 0 0 0-.539-.052l-.53-.003a71 71 0 0 0-3.19.074 41 41 0 0 0 1.81-2.404 20.8 20.8 0 0 1 6.768-4.174 37 37 0 0 0 1.813 3.354m-2.745-4.388-.256-.037c-.392-.062-.784-.131-1.179-.174-.043-.005-.052.065-.01.074.399.09.803.15 1.205.22l.048.008a20 20 0 0 0-3.337 1.923c.376-.482.763-.955 1.17-1.409a22 22 0 0 1 1.961-1.986l1.636.424q.324.081.65.158-.959.373-1.888.799m24.853-9.19c.247-.367-.3-.756-.548-.992a8.45 8.45 0 0 1-2.187-3.486c-.08-.248-.13-.5-.187-.752l.031.093q.104.299.221.59a10.4 10.4 0 0 0 .874 1.687 11.4 11.4 0 0 0 1.354 1.705 10 10 0 0 0 .785.742q.116.102.234.202z"/><path fill="currentColor" d="M246.654 243.502a73 73 0 0 0 6.016 8.99c.023.028.072-.01.05-.04-2.056-2.957-4.042-5.968-6.036-8.968a.018.018 0 0 0-.03.018m1.425-1.928a.026.026 0 0 0-.038.037 46 46 0 0 1 5.002 6.913 469 469 0 0 0 5.046 7.482c.067.098.227.008.162-.094q-2.499-3.903-5.086-7.745a37.2 37.2 0 0 0-5.086-6.593m13.305 18.721a19 19 0 0 0-1.194-1.7l-1.22-1.683c-.011-.015-.037-.001-.026.015l1.205 1.731a19 19 0 0 0 1.198 1.665c.018.02.05-.005.037-.028m-7.604-16.035c-.04-.054-.13-.003-.092.054q2.677 3.991 5.395 7.954 1.34 1.958 2.689 3.91l1.347 1.953a14 14 0 0 0 1.328 1.83c.027.027.066-.008.05-.04a15 15 0 0 0-1.29-1.986l-1.336-1.96q-1.337-1.96-2.68-3.915-2.69-3.911-5.412-7.8m6.107 4.761c-.027-.033-.086.012-.06.046a377 377 0 0 0 3.952 5.107q1.015 1.281 2.035 2.559a30 30 0 0 0 2.159 2.58.038.038 0 0 0 .06-.047 28 28 0 0 0-1.854-2.467l-2.098-2.64a345 345 0 0 0-4.194-5.138m5.888 4.143a36 36 0 0 1 2.578 3.028c.788 1.03 1.485 2.12 2.221 3.187a.023.023 0 0 0 .04-.024 24.7 24.7 0 0 0-4.797-6.232.03.03 0 0 0-.042.041m4.73 2.251c.553.691 1.1 1.39 1.696 2.045.02.021.06-.008.042-.032-.524-.72-1.102-1.397-1.671-2.08-.04-.046-.104.02-.067.067m-11.786 31.196 2.127 1.931a27 27 0 0 0 2.143 1.808c.033.025.07-.027.042-.055a27 27 0 0 0-2.11-1.888l-2.181-1.817c-.015-.012-.035.008-.021.021m11.439 6.596a.041.041 0 0 0 .058-.058 35 35 0 0 0-3.622-3.703q-1.883-1.779-3.871-3.442c-.037-.032-.091.021-.054.053q1.967 1.684 3.834 3.48c1.24 1.197 2.38 2.514 3.655 3.67m3.764-.197q.55.503 1.109.996a7.6 7.6 0 0 0 1.098.903c.043.025.077-.03.05-.064a9 9 0 0 0-1.088-1.016q-.556-.496-1.11-.995-1.11-.994-2.2-2.012-2.177-2.036-4.266-4.163c-.024-.024-.06.013-.037.038q2.09 2.182 4.271 4.274 1.076 1.031 2.173 2.04m-2.559-6.621c-.025-.023-.063.014-.037.037 2.12 1.852 4.075 3.861 6.053 5.861.016.017.04-.008.025-.025a53 53 0 0 0-6.04-5.874m8.792 8.376c-.441-.346-.857-.717-1.276-1.088-.025-.023-.062.014-.037.037.41.38.819.755 1.205 1.159.186.194.364.404.561.587.101.093.203.192.312.275a1 1 0 0 0 .337.191.05.05 0 0 0 .061-.061 1 1 0 0 0-.196-.289 3 3 0 0 0-.306-.29c-.205-.189-.442-.35-.661-.521m-3.278-6.919c-.011-.01-.028.006-.017.017a315 315 0 0 0 4.938 4.818c.806.774 1.619 1.54 2.429 2.31l1.286 1.223a7.2 7.2 0 0 0 1.199 1.048c.039.023.09-.024.064-.064a6.7 6.7 0 0 0-1.035-1.073l-1.287-1.221c-.835-.792-1.667-1.586-2.505-2.374a316 316 0 0 0-5.072-4.684m6.433 2.251c-.017-.016-.042.008-.026.024a109 109 0 0 0 4.342 4.128q1.101.985 2.222 1.947a16 16 0 0 0 2.256 1.815.077.077 0 0 0 .092-.12 20.5 20.5 0 0 0-2.235-1.927q-1.13-.953-2.241-1.927c-1.482-1.3-2.96-2.605-4.41-3.94m5.124 2.019c-.02-.016-.05.012-.029.03q2.118 1.816 4.256 3.609l2.08 1.734a12 12 0 0 0 2.153 1.675c.035.017.09-.022.06-.06a11.4 11.4 0 0 0-1.979-1.73l-2.17-1.764q-2.171-1.765-4.37-3.494m5.626 1.853c2.098 1.76 4.098 3.637 6.208 5.383.026.02.062-.013.038-.038a60 60 0 0 0-6.217-5.374c-.02-.016-.05.011-.029.029m6.924 3.471c-.814-.666-1.648-1.308-2.474-1.96-.026-.02-.063.014-.037.037.803.698 1.598 1.406 2.412 2.09l1.187.997a8 8 0 0 0 1.25.947.038.038 0 0 0 .046-.06 8 8 0 0 0-1.146-1.038zm1.341-.805c1.488.8 2.827 1.824 4.25 2.726.052.032.106-.04.064-.083a13.5 13.5 0 0 0-4.273-2.714c-.047-.02-.089.046-.041.071m3.279-.93a.032.032 0 0 0-.033.055q2.044 1.333 3.994 2.807c1.285.972 2.5 2.087 3.852 2.964.038.025.073-.029.046-.06a21 21 0 0 0-3.704-3.093 51 51 0 0 0-4.155-2.673m4.405.025c-.047-.033-.09.043-.045.076q2.183 1.653 4.42 3.232 1.118.788 2.256 1.547a13.5 13.5 0 0 0 2.184 1.362c.041.018.072-.045.042-.073a16 16 0 0 0-2.125-1.46q-1.138-.76-2.268-1.53-2.26-1.538-4.465-3.154m4.979.79a.044.044 0 0 0-.044.075c1.504.952 2.988 1.939 4.456 2.945q1.1.755 2.186 1.533a24 24 0 0 0 2.171 1.545.094.094 0 0 0 .114-.147 16 16 0 0 0-2.014-1.532q-1.118-.803-2.263-1.567a83 83 0 0 0-4.606-2.853m5.405 1.091a.032.032 0 0 0-.033.057q2 1.307 3.95 2.692.96.68 1.908 1.376.474.349.942.704a2.8 2.8 0 0 0 .933.595.047.047 0 0 0 .053-.07 2.2 2.2 0 0 0-.669-.634q-.497-.377-1-.748-.976-.718-1.977-1.401a66 66 0 0 0-4.107-2.57m4.807 1.293a.032.032 0 0 0-.032.056c1.196.793 2.372 1.616 3.546 2.44q.867.607 1.73 1.218a11 11 0 0 0 1.812 1.204.08.08 0 0 0 .096-.124 8.7 8.7 0 0 0-1.625-1.295 58 58 0 0 0-1.799-1.234 71 71 0 0 0-3.727-2.265m4.419.692c-.034-.023-.064.032-.032.056.936.698 1.865 1.407 2.81 2.092a25 25 0 0 0 2.906 1.927c.046.024.098-.037.057-.074a25 25 0 0 0-2.78-2.055c-.978-.66-1.973-1.298-2.96-1.946m7.261 2.474q-.668-.587-1.36-1.146a39 39 0 0 0-2.81-2.048c-.041-.028-.076.037-.038.066a60 60 0 0 1 2.755 2.214q.639.543 1.261 1.106a9 9 0 0 1 .654.67 2.6 2.6 0 0 0 .655.407c.031.02.073-.02.052-.052a2.3 2.3 0 0 0-.435-.628c-.25-.194-.495-.379-.734-.589m4.393 3.08a6 6 0 0 1-.501-.28 8 8 0 0 1-.915-.686c-.065-.056-.16.036-.095.096a9 9 0 0 0 .892.728c.156.11.31.225.47.33q.118.078.24.143a.4.4 0 0 0 .135.054 1 1 0 0 0 .146.002.05.05 0 0 0 .043-.075.55.55 0 0 0-.17-.18q-.121-.068-.245-.132m2.849-1.287-2.007-1.34q-2.075-1.385-4.167-2.74c-.042-.027-.079.038-.039.065q2.05 1.425 4.116 2.828l2 1.354 1.066.722a4 4 0 0 0 .977.576c.036.011.055-.034.034-.06a4.2 4.2 0 0 0-.909-.69zm6.559 1.763c.042.02.094-.034.053-.069a22 22 0 0 0-2.637-1.763c-.922-.578-1.86-1.126-2.795-1.683-.03-.018-.054.026-.026.045.886.604 1.765 1.216 2.664 1.8a22 22 0 0 0 2.741 1.67m3.27-.064a26 26 0 0 0-2.75-1.483c-.024-.011-.044.023-.021.036a26 26 0 0 0 2.742 1.497.03.03 0 0 0 .03-.05m3.044.378c-.139-.062-.276-.13-.419-.18l-.438-.16c-.018-.006-.031.025-.013.032l.427.184c.14.06.286.105.43.155.018.007.031-.024.013-.032m3.409.825c-.335-.129-.679-.237-1.019-.351-.039-.014-.056.05-.017.062.341.11.68.227 1.026.323.023.006.03-.026.01-.034m61.559 13.245c-.016-.03-.06-.004-.046.027.478.982.944 1.97 1.437 2.946a32 32 0 0 0 1.532 2.89c.02.032.08.012.065-.027a32 32 0 0 0-1.422-2.9c-.508-.985-1.043-1.958-1.566-2.936m2.267-.466a.012.012 0 0 0-.023.006 29.5 29.5 0 0 0 2.205 5.296c.45.883.916 1.758 1.356 2.645.435.879.787 1.823 1.304 2.654a.07.07 0 0 0 .129-.054 10.6 10.6 0 0 0-1.097-2.582c-.441-.851-.907-1.69-1.365-2.532a32 32 0 0 1-2.51-5.433m2.6 1.865c-.012-.024-.046-.002-.036.021a115 115 0 0 0 2.56 5.62q.668 1.36 1.35 2.713a17 17 0 0 0 1.504 2.748c.037.049.129.025.107-.045a18 18 0 0 0-1.315-2.751q-.686-1.35-1.357-2.707-1.39-2.809-2.813-5.599m3.75 2.722c-.012-.027-.06-.008-.048.02q1.236 2.979 2.63 5.885c.478 1.002.978 1.993 1.452 2.997a13.5 13.5 0 0 0 1.471 2.768c.074.093.23-.007.196-.114a16.3 16.3 0 0 0-1.453-2.78 63 63 0 0 1-1.469-2.859q-1.442-2.932-2.779-5.917m3.56 2.718c-.007-.014-.026-.002-.02.011q1.408 3.194 2.94 6.33c.477.972.99 1.927 1.444 2.91.235.507.46 1.023.703 1.526a1.46 1.46 0 0 0 .786.83.1.1 0 0 0 .126-.095 1.62 1.62 0 0 0-.48-1.069 15 15 0 0 1-1.071-1.472 24 24 0 0 1-1.451-2.785c-.98-2.07-1.947-4.141-2.977-6.186m7.012 8.852a20 20 0 0 1-1.49-2.873q-.682-1.383-1.346-2.774c-.012-.027-.06-.008-.048.02.4.954.806 1.906 1.227 2.851a28 28 0 0 1 1.317 2.974c.135.437.512.661.724 1.066.224.426.42.867.62 1.305.23.503.442 1.012.66 1.52.17.402.286.872.688 1.093a.116.116 0 0 0 .172-.098 2.05 2.05 0 0 0-.533-1.186c-.26-.404-.52-.808-.764-1.222-.277-.471-.559-.946-.794-1.44-.201-.424-.157-.854-.433-1.236m3.139 1.952q-.902-1.954-1.918-3.848c-.018-.033-.067-.004-.05.03q.923 1.904 1.782 3.84c.296.672.58 1.348.864 2.024a14 14 0 0 0 .789 1.869.085.085 0 0 0 .155-.066 11 11 0 0 0-.775-1.955 74 74 0 0 0-.847-1.894m3.07 1.468a82 82 0 0 0-1.817-3.24c-.016-.027-.053-.004-.04.023.52 1.13 1.048 2.25 1.619 3.356l.823 1.595a6.1 6.1 0 0 0 .923 1.55.044.044 0 0 0 .074-.042 6.2 6.2 0 0 0-.747-1.654zm4.026 4.046c-.796-1.53-1.62-3.045-2.44-4.562-.013-.024-.048-.003-.036.02.766 1.549 1.528 3.098 2.319 4.633.054.104.21.013.157-.091m1.977.38c.1.02.228-.033.23-.149 0-.123-.227-.235-.24-.09a1.5 1.5 0 0 1-.193-.29l-.41-.694c-.275-.462-.576-.91-.865-1.362a.026.026 0 0 0-.046.026c.399.759.8 1.512 1.224 2.257.067.118.153.271.3.302m1.634.056c.021.015.05-.01.044-.033a1.6 1.6 0 0 0-.243-.408c-.093-.132-.184-.267-.282-.395l-.596-.788c-.022-.03-.072-.003-.05.03l.547.834c.092.139.191.273.287.41a1.6 1.6 0 0 0 .294.35m2.214.217.115.069a.13.13 0 0 0 .108.029.033.033 0 0 0 .022-.04c-.011-.044-.04-.059-.075-.082l-.114-.073a3 3 0 0 0-.217-.129l-.457-.25a.023.023 0 0 0-.024.04l.43.299q.104.072.212.137m1.21.439a.02.02 0 0 0 .029-.03c-.05-.06-.108-.115-.163-.172l-.168-.177-.333-.348c-.04-.04-.103.023-.062.062l.347.333.172.165c.059.056.115.115.178.167m39.956 1.582a7 7 0 0 1-.17.849 8 8 0 0 1-.302.797c-.024.06.067.11.108.063a3.5 3.5 0 0 0 .75-1.663 3.2 3.2 0 0 0 .032-.905 4.3 4.3 0 0 0-.266-.933.047.047 0 0 0-.09.025 4.5 4.5 0 0 1 .008.898c-.016.29-.027.581-.07.868m55.024-49.999a5 5 0 0 0 .29.517 1.1 1.1 0 0 1 .106.308.7.7 0 0 0 .153.226.87.87 0 0 0 1.005.2.07.07 0 0 0-.018-.139 1.1 1.1 0 0 1-.441-.247 3 3 0 0 0-.422-.282c-.078-.033-.134-.032-.2-.097a1.3 1.3 0 0 1-.171-.25 5 5 0 0 1-.257-.496c-.424-.934-.812-1.883-1.27-2.802-.008-.017-.039-.005-.032.014.203.55.429 1.091.656 1.632.198.472.382.953.601 1.415m-16.153 6.923a1.8 1.8 0 0 0 .46.357.056.056 0 0 0 .076-.076 1.7 1.7 0 0 0-.366-.427 9 9 0 0 0-.432-.389q-.443-.378-.878-.764c-.045-.04-.109.023-.066.066q.408.413.808.834c.13.137.26.27.398.4m-25.54 7.625c.686.226 1.372.457 2.062.671l.998.308a4.4 4.4 0 0 0 1.02.264.038.038 0 0 0 .02-.07 4.4 4.4 0 0 0-.999-.344l-1-.295c-.694-.203-1.392-.39-2.089-.58a.023.023 0 0 0-.012.046m1.19-1.19c.743.259 1.484.526 2.232.771l1.08.355a5.2 5.2 0 0 0 1.1.311c.032.003.041-.045.015-.06a5.2 5.2 0 0 0-1.078-.387l-1.083-.34c-.75-.236-1.506-.45-2.26-.673-.014-.004-.02.018-.006.023m1.682-.974c-.01-.004-.015.013-.005.017l2.207.88q.531.21 1.064.415a5.6 5.6 0 0 0 1.158.406.035.035 0 0 0 .027-.064 5.2 5.2 0 0 0-1.068-.437q-.554-.205-1.113-.406zm4.402.196-1.828-.413a.009.009 0 0 0-.004.017l1.81.48.887.234c.148.04.297.073.446.109a1.6 1.6 0 0 0 .428.08.035.035 0 0 0 .017-.066 1.6 1.6 0 0 0-.414-.128q-.205-.053-.41-.102zm3.624-.228a.018.018 0 0 0 0-.035c-.441-.053-.88-.07-1.316-.161a7 7 0 0 1-1.228-.375c-.013-.005-.022.016-.01.021a7 7 0 0 0 1.249.402 4.7 4.7 0 0 0 1.304.148m2.221-.513c.024-.005.026-.047 0-.05-.256-.037-.516-.04-.77-.088a3 3 0 0 1-.756-.258.015.015 0 0 0-.015.026 3 3 0 0 0 .747.318 1.6 1.6 0 0 0 .794.052m1.184-.915a.372.372 0 0 0 0 .744.372.372 0 0 0 0-.744M91.45.616C85.324.094 81.844.003 81.7 0l-.224 8.997c.033.001 3.387.09 9.208.587ZM421.966 197.89a186 186 0 0 1-17.382-8.043l-4.19 7.965a196 196 0 0 0 18.226 8.433Zm-33.971-17.782c-5.17-3.351-10.481-7.092-15.783-11.12l-5.444 7.168c5.479 4.161 10.974 8.032 16.332 11.505ZM357.14 156.8a452 452 0 0 1-14.495-12.982l-6.138 6.581a459 459 0 0 0 14.781 13.238Zm101.648 51.34a178 178 0 0 1-18.696-4.119l-2.41 8.672a188 188 0 0 0 19.641 4.327Zm-136.533-71.467 6.334-6.394a1014 1014 0 0 1-13.757-13.914l-6.455 6.271c5.013 5.16 9.552 9.751 13.878 14.037m175.049 82.987-.21-8.998a221 221 0 0 1-19.246-.368l-.575 8.983c4.66.298 9.476.45 14.313.45q2.831 0 5.718-.067M169.38 16.344a363 363 0 0 0-19.134-5.507l-2.252 8.714a354 354 0 0 1 18.658 5.369Zm-38.53-9.971a374 374 0 0 0-19.611-3.43l-1.312 8.904a364 364 0 0 1 19.136 3.347Zm75.721 24.276a319 319 0 0 0-18.386-7.719l-3.225 8.403a311 311 0 0 1 17.866 7.5Zm35.072 19.067a274 274 0 0 0-17.209-10.157l-4.291 7.911a265 265 0 0 1 16.642 9.822Zm31.843 24.212a239 239 0 0 0-15.436-12.762l-5.44 7.169a230 230 0 0 1 14.852 12.28Zm27.768 28.292q-6.638-6.98-13.5-14.261l-6.544 6.18q6.882 7.287 13.523 14.283Zm243.228 102.704-31.404-4.851 6.638 29.617z"/></svg>