<svg xmlns="http://www.w3.org/2000/svg" data-name="jellyfish" viewBox="0 0 617.124 363.303"><path fill="currentColor" d="M516.793 71.977a19.6 19.6 0 0 0-7.183.386c-.045.009-.026.076.018.067a24 24 0 0 1 3.628-.4c1.178-.04 2.35.025 3.527.021.041 0 .053-.067.01-.074m4.328-2.132c-1.527-.159-3.059-.175-4.593-.213a105 105 0 0 0-4.592-.028.044.044 0 0 0 0 .088c1.53.109 3.06.17 4.592.213s3.061.107 4.593.028a.044.044 0 0 0 0-.088m3.843-2.447a7.7 7.7 0 0 0-2.231-.24q-1.203-.061-2.406-.094a89 89 0 0 0-4.818.021.03.03 0 0 0 0 .059c1.607.012 3.212.072 4.818.144q1.203.054 2.406.135a8.8 8.8 0 0 0 2.231.07c.053-.01.042-.08 0-.095m4.091-2.11a12.6 12.6 0 0 0-2.526-.079l-2.617.02c-1.78.014-3.56.06-5.339.095a.015.015 0 0 0 0 .03c1.78.035 3.56.081 5.339.095l2.617.02a12.6 12.6 0 0 0 2.526-.08.053.053 0 0 0 0-.1m2.041-2.801a8 8 0 0 0-1.995-.09c-.716.005-1.431.01-2.147.026q-2.148.047-4.296.077a.03.03 0 0 0 0 .059q2.148.027 4.296.077c.716.016 1.431.021 2.147.026a8 8 0 0 0 1.995-.09.044.044 0 0 0 0-.085m2.915-2.802a.068.068 0 0 0-.13 0c-.116.33-.645.297-.924.3-.345.002-.69 0-1.035.007-.747.015-1.494.029-2.24.061-1.495.064-2.988.146-4.483.19a.018.018 0 0 0 0 .035c1.84.033 3.677.14 5.516.16a16 16 0 0 0 2.623-.013c.357-.057.832-.314.673-.74m2.491-2.352a.083.083 0 0 0-.137.036c-.117.44-1.063.268-1.38.27q-.96.006-1.919.038c-1.255.041-2.51.128-3.766.159a.02.02 0 0 0 0 .04c1.588.066 3.172.22 4.761.27.379.01.758.024 1.137.029a2.4 2.4 0 0 0 .913-.08c.294-.116.65-.444.39-.762m2.508-2.115a2.4 2.4 0 0 0-.923.019c-.33.035-.656.081-.984.128-.658.094-1.305.252-1.962.356-.058.01-.045.11.014.104.663-.06 1.33-.066 1.992-.137.317-.033.632-.067.948-.113a2.5 2.5 0 0 0 .934-.213.08.08 0 0 0-.019-.144m2.543-1.14c-.108-.009-.217-.023-.325-.024h-.952a.05.05 0 0 0 0 .1h.952c.108-.001.217-.015.325-.024a.026.026 0 0 0 0-.052m3.064-1.022a3 3 0 0 0-.383-.011l-.383-.003a.041.041 0 0 0 0 .082l.383-.003a3 3 0 0 0 .383-.012.026.026 0 0 0 0-.053"/><path fill="currentColor" d="M616.98 54.763c-3.865.91-7.755 1.718-11.638 2.543-3.88.823-7.737 1.767-11.601 2.658q-11.488 2.65-22.977 5.294c-7.665 1.764-15.324 3.55-22.995 5.286-7.61 1.722-15.266 3.113-22.956 4.42-4.21.715-8.435 1.39-12.622 2.239-2.304.467-4.633.942-6.926 1.536a390 390 0 0 0 10.411-4.926q6.152-3.005 12.299-6.02c.097-.047.027-.219-.074-.176-7.396 3.095-14.788 6.197-22.125 9.43a78 78 0 0 1-10.448 4.091c-3.485.971-7.119 1.295-10.586 2.34a25.6 25.6 0 0 0-5.28 2.365c-1.144.652-2.272 1.294-3.458 1.822.346-.3.688-.605 1.018-.921a34.3 34.3 0 0 0 4.247-5.045c.07-.098-.085-.215-.166-.128a52 52 0 0 1-8.963 7.543 59.6 59.6 0 0 1-10.256 5.494c-8.181 3.453-16.938 5.238-25.591 7.058-1.284.27-2.56.566-3.838.86-1.28.295-2.532.7-3.813.99-1.242.283-2.488.546-3.729.835-1.32.308-2.597.783-3.92 1.067-.066.014-.037.115.029.102 1.178-.231 2.385-.28 3.57-.484.54-.093 1.08-.199 1.619-.301a28 28 0 0 0-3.441 1.757 51.7 51.7 0 0 0-9.058 7.155 95 95 0 0 0-4.063 4.192c-.995 1.086-2.02 2.175-2.916 3.354a.58.58 0 0 0-.04-.47 5 5 0 0 0-.843-1.071c-.403-.383-.862-.714-1.297-1.06-.043-.034-.119.01-.083.064.252.377.496.76.758 1.13.243.344.551.616.82.933.066.076.11.078.067.193a.12.12 0 0 1-.04.082q-.004.033-.015-.019c-.123.013-.41-.299-.507-.373a10 10 0 0 1-1.084-.765 8.7 8.7 0 0 0-3.848-2.601.041.041 0 0 0-.022.08 7 7 0 0 1 2.537 1.502c.392.34.764.704 1.143 1.058.371.346.589.802.931 1.17.264.284.61.771 1.053.648a.7.7 0 0 0 .194-.108c-.201.279-.405.555-.589.846a14.2 14.2 0 0 0-1.845 5.86c-.071.531-.144 1.06-.228 1.585a3.86 3.86 0 0 0-1.01-1.892 4 4 0 0 0-1.413-.757 5.6 5.6 0 0 0-1.612-.364 2.39 2.39 0 0 0-2.443 1.296c-.017.027.022.047.04.024a2.75 2.75 0 0 1 2.6-.638 3.9 3.9 0 0 1 2.281 1.196 4.5 4.5 0 0 1 1.02 2.098 5.6 5.6 0 0 1 .132.983 10.8 10.8 0 0 1-.907 2.356 12 12 0 0 1-1.482 2.146 3.3 3.3 0 0 0-.717-1.157 5.7 5.7 0 0 0-1.466-1.176 5 5 0 0 0-1.768-.567 2.9 2.9 0 0 0-.914.016 2.4 2.4 0 0 0-.414.132 3 3 0 0 0-.4.243.035.035 0 0 0 .018.066 7 7 0 0 1 .796.094c.254.027.509.042.762.075a4.3 4.3 0 0 1 1.478.48 2.99 2.99 0 0 1 1.743 2.538.4.4 0 0 0 .026.134 8.7 8.7 0 0 1-1.552 1.14 3.23 3.23 0 0 1-2.813.352 5.7 5.7 0 0 1-2.268-1.768c-2.699-3.287-2.232-7.904-1.459-11.78a58.4 58.4 0 0 1 3.716-12.606 75.5 75.5 0 0 1 5.503-9.719c2.013-3.13 4.136-6.211 5.847-9.522a40.7 40.7 0 0 0 3.809-10.134c.172-.822.212-1.699.32-2.535.014-.117-.188-.145-.208-.028a27 27 0 0 1-.718 2.695 32 32 0 0 1-.866 2.633c-.225.6-.48 1.178-.745 1.75.234-1.242.441-2.486.584-3.753.231-2.061.398-4.133.59-6.199a17.1 17.1 0 0 0-.295-5.879c-.491-1.956-1.046-3.899-1.556-5.85-.29-1.11-.568-2.223-.875-3.328-.319-1.144-.732-2.263-1.041-3.409a.085.085 0 0 0-.164.046c.27 1.286.425 2.597.694 3.886.269 1.285.56 2.565.84 3.847.306 1.395.66 2.813.94 4.238a23 23 0 0 1-1.196-1.73 16.4 16.4 0 0 1-1.752-4.065c-.434-1.504-.697-3.045-1.017-4.575-.353-1.69-.793-3.359-1.148-5.047-.011-.051-.098-.04-.092.012a77 77 0 0 0 1.34 10.348c.102.412.222.837.36 1.264a3 3 0 0 0-.436.808c-.181.401-.363.804-.556 1.2-.405.831-.861 1.64-1.333 2.435-.244.413-.5.82-.751 1.23-1.22 1.742-2.446 3.481-3.636 5.244-.55.816-1.073 1.652-1.69 2.416a22 22 0 0 1-1.134 1.16 4 4 0 0 1-1.052.672c-.268.11-.538.171-.811.26a1.9 1.9 0 0 0-.599.384 8.5 8.5 0 0 0-2.397-.877 21.7 21.7 0 0 1-4.142-.871c-.03-.013-.057.029-.027.045a16 16 0 0 0 2.827 1.061 8.7 8.7 0 0 1 2.886 1.096 3.84 3.84 0 0 1 1.483 2.23 18.4 18.4 0 0 1 .053 3.4c-.059 4.729-.095 9.46-.176 14.188a20.4 20.4 0 0 1-1.151 6.488c-.053.151.149.319.284.218.108-.08.195-.166.292-.249q-.005.155.006.304c.027.326.09.653.135.977.086.608.144 1.223.173 1.836a15 15 0 0 1-.027 1.85q-.015.213-.02.426a66 66 0 0 0-2.087 7.607c-.303 1.398-.584 2.83-.772 4.267-.006-.01-.005-.02-.013-.028a.5.5 0 0 0-.188-.1q-.043-.016-.083-.034l-.02-.01-.04-.021-.312-.154a.09.09 0 0 0-.092.156l.29.191q.072.047.14.1a.5.5 0 0 0 .17.103.13.13 0 0 0 .126-.04c-.09.722-.163 1.444-.188 2.165a17 17 0 0 0-1.605-.85 70 70 0 0 0-2.293-.997c-.043-.018-.073.054-.032.075 1.343.68 2.614 1.496 3.904 2.27l.01.007a16 16 0 0 0 .137 2.258c-.113-.076-.225-.154-.342-.224a19 19 0 0 0-1.156-.656 28 28 0 0 0-2.334-1.045c-.043-.018-.074.055-.032.075a23 23 0 0 1 2.225 1.212c.355.218.712.434 1.06.663q.261.173.525.341l.123.081a12 12 0 0 0 .854 2.86q.135.3.29.593a6.4 6.4 0 0 1-.417 1.045 2.84 2.84 0 0 1-1.908 1.45c-1.885.339-2.725-1.882-3.402-3.224-.736-1.458-1.468-2.922-2.143-4.41a42 42 0 0 1-.552-1.897c-.523-2.002-1.022-4.009-1.378-6.049a93 93 0 0 1-1.135-12.362c-.166-4.23-.218-8.466-.472-12.693a89 89 0 0 0-1.65-12.539 13.4 13.4 0 0 1-.074-6.76 24 24 0 0 1 2.927-5.562c2.405-3.791 4.624-7.7 6.718-11.67 2.12-4.018 4.081-8.118 5.936-12.264.92-2.056 1.808-4.125 2.699-6.193a15.2 15.2 0 0 1 2.695-4.782c1.547-1.594 3.625-1.446 5.684-1.382 2.365.073 4.729.197 7.09.358 4.748.323 9.477.782 14.218 1.202 1.25.11 2.49.292 3.73.486.038.006.056-.052.016-.06-2.38-.514-4.748-1.127-7.144-1.565a98 98 0 0 0-3.996-.63c1.566-.107 3.132-.232 4.705-.222 4.51.03 8.836 1.684 13.062 3.082 4.458 1.474 9.01 2.61 13.577 3.688q6.968 1.646 13.942 3.272c2.57.597 5.14 1.213 7.75 1.614.254.039.51.07.764.102a26 26 0 0 1-4.345.36 35 35 0 0 1-3.039-.16c-.05-.005-.056.072-.011.086 3.769 1.222 8.046.693 11.838-.194.035-.008.068-.02.103-.027a17 17 0 0 0 2.36-.404.111.111 0 0 0-.014-.217c3.262-.916 6.465-2.042 9.748-2.886 4.039-1.038 8.137-1.77 11.956-3.515 3.735-1.706 7.111-4.087 10.81-5.866 3.926-1.889 8.044-3.38 12.06-5.065q5.985-2.511 11.901-5.182c7.93-3.574 15.762-7.358 23.54-11.249 3.925-1.963 7.812-3.998 11.688-6.056 3.84-2.04 7.71-4.02 11.499-6.152.946-.533 1.893-1.065 2.833-1.608.113-.066.014-.224-.1-.172-3.935 1.783-7.807 3.69-11.673 5.615-3.899 1.94-7.831 3.814-11.745 5.724-7.748 3.78-15.492 7.566-23.33 11.156q-5.93 2.715-11.92 5.296c-3.956 1.698-7.96 3.275-11.929 4.941a62 62 0 0 0-5.686 2.679c-1.761.958-3.472 2.007-5.22 2.99a36.3 36.3 0 0 1-5.594 2.648c-1.973.704-4.011 1.21-6.041 1.72-4.046 1.013-7.986 2.282-11.957 3.549a84 84 0 0 1-3.849 1.14 94 94 0 0 1-10.805-1.988q-6.917-1.641-13.839-3.261c-4.546-1.07-9.095-2.148-13.549-3.563-4.2-1.335-8.354-3.009-12.806-3.23a50 50 0 0 0-7.496.468c-1.24.124-2.484.246-3.73.269l-.384.005c-1.85-.198-3.705-.354-5.564-.458q-1.833-.102-3.67-.164a16 16 0 0 0-3.36.103 6.17 6.17 0 0 0-4.247 3.323 62 62 0 0 0-2.482 5.716c-1.836 4.282-3.769 8.525-5.85 12.694-2.065 4.133-4.28 8.181-6.72 12.105-2.239 3.603-5.368 7.222-5.597 11.647a29.8 29.8 0 0 0 .986 7.037c.404 2.12.683 4.262.883 6.412.402 4.322.498 8.665.63 13.002.236 7.763.51 15.753 3.208 23.1a26 26 0 0 0 1.016 4.17c.415 1.228 1.11 3.616 2.7 3.551a3.445 3.445 0 0 0 4.194 1.411 3.9 3.9 0 0 0 2.027-1.854q.084-.168.17-.36a7.4 7.4 0 0 0 2.531 2.194c1.92.967 3.869.388 5.503-.857a12.56 12.56 0 0 0 3.68-4.485 19.2 19.2 0 0 0 1.482-5.973 12.8 12.8 0 0 1 2.089-5.947 45 45 0 0 1 4.045-4.662 65.7 65.7 0 0 1 8.755-8.017 43.5 43.5 0 0 1 10.273-5.606q.74-.284 1.492-.525c1.04-.162 2.081-.324 3.118-.515a222 222 0 0 0 13.34-2.872c8.193-2.037 16.346-4.802 23.384-9.568a47 47 0 0 0 2.815-2.053c3.16-.49 5.837-2.591 8.83-3.612 3.495-1.192 7.203-1.486 10.783-2.326a44.5 44.5 0 0 0 6.393-2.096c3.4-.509 6.763-1.25 10.148-1.855a867 867 0 0 1 11.445-1.987c7.637-1.261 15.262-2.536 22.824-4.2 7.71-1.695 15.394-3.517 23.086-5.289 7.703-1.773 15.418-3.503 23.103-5.35 4.296-1.033 8.594-2.066 12.86-3.22 4.306-1.164 8.562-2.508 12.833-3.794a.117.117 0 0 0-.062-.226M403.694 96.479c.107-.973.182-1.95.355-2.92.051-.283.117-.563.177-.844q.18 1.168.353 2.337c-.289.479-.58.957-.885 1.427m1.024-1.657c-.093-.86-.23-1.713-.397-2.562q.19-.834.42-1.658c.03.271.058.542.095.814q.112.818.238 1.633c.048.307.093.619.153.927q-.256.422-.51.846m.873-1.44q-.029-.166-.054-.33a89 89 0 0 0-.271-1.624q-.143-.799-.313-1.59c.023-.072.039-.147.062-.22a25 25 0 0 1 .628-1.752c.01.17.015.34.036.514q.11.888.235 1.775c.082.59.156 1.179.245 1.767l.062.431c-.201.348-.425.684-.63 1.03m1.366-2.301c-.077.142-.165.28-.244.422q-.075-.693-.176-1.384a31 31 0 0 0-.307-1.755 8.5 8.5 0 0 0-.321-1.106c.135-.313.262-.63.411-.939.023-.046.053-.086.076-.131.025.213.055.427.08.632.069.534.134 1.068.203 1.601a23 23 0 0 0 .407 2.418zm.498-.934a16 16 0 0 0-.172-1.868 28 28 0 0 0-.27-1.531 9 9 0 0 0-.295-1.121 5 5 0 0 1 .58-.726 3 3 0 0 1 .125-.114l.055.51c.055.547.127 1.092.19 1.637.062.546.117 1.093.19 1.638.027.208.065.42.097.635-.162.313-.334.627-.5.94m1.22-17.463c.083.562.152 1.125.185 1.687a19 19 0 0 1-.114 2.96 28 28 0 0 0-.662-3.208c-.142-.581-.283-1.162-.435-1.741-.046-.175-.102-.343-.154-.513a5.2 5.2 0 0 0 1.18.815m-14.5 35.28a14.2 14.2 0 0 0 .447-3.068c.132-2.475.086-4.967.115-7.445l.09-7.7c.021-1.784.27-3.982-.841-5.487a10.4 10.4 0 0 0 3.234-2.71 37 37 0 0 0 3.188-4.255c1.03-1.566 2.04-3.156 2.969-4.785a26 26 0 0 0 1.298-2.583 11 11 0 0 0 .597-1.496 10.3 10.3 0 0 0 1.44 2.61l-.001.002c-.008.005-.003.019.007.016l.006-.005c.098.123.194.247.3.362.028.318.065.635.12.958.105.614.24 1.221.383 1.827a16.7 16.7 0 0 0 1.138 3.502c.008.017.027.013.043.017l-.048.501-.17 1.796a3 3 0 0 0-.497.596q-.136-.709-.281-1.416-.29-1.415-.617-2.823c-.443-1.911-.95-3.806-1.504-5.688a.056.056 0 0 0-.107.03q.757 2.788 1.39 5.608.307 1.357.582 2.722.147.734.285 1.47.034.19.064.385l-.086.131c-.263.396-.51.773-.74 1.19a18 18 0 0 1-1.495 2.4 8.5 8.5 0 0 1-1.7 1.677 10 10 0 0 1-1.024.637c-.325.18-.603.403-.91.594a9 9 0 0 0-1.314-1.117 10.5 10.5 0 0 0-2.377-1.347 10.8 10.8 0 0 0-2.619-.508c-.036-.004-.043.055-.008.063a11 11 0 0 1 2.477 1.061 10 10 0 0 1 2.135 1.404 5.1 5.1 0 0 1 1.536 2.134 8.3 8.3 0 0 1 .21 2.646 33.4 33.4 0 0 1-.602 5.672c-.18.923-.407 1.834-.632 2.746a12 12 0 0 0-.223 1.192 87 87 0 0 0-5.324 9.103 41 41 0 0 0-.84 1.858 12 12 0 0 0-.236-1.42 5 5 0 0 0-.296-.93 2 2 0 0 0-.255-.436 1 1 0 0 0-.131-.126 4 4 0 0 0 .824-1.565m-9.684 28.537a24 24 0 0 1-.959-2.606l-.066-.207c.147.243.295.486.455.721a35 35 0 0 0 1.376 3.07 2.5 2.5 0 0 1-.806-.978m23.615-52.266v-.006"/><path fill="currentColor" d="M404.252 71.96a.023.023 0 0 0-.045.012c.495 1.893.893 3.805 1.327 5.713.005.022.043.017.04-.006a29.4 29.4 0 0 0-1.322-5.72m2.042 9.095a1.3 1.3 0 0 0-.077-.467c-.049-.154-.09-.311-.143-.464a7 7 0 0 1-.207-.928c-.017-.087-.143-.049-.13.035.049.32.104.64.122.96a2.7 2.7 0 0 0 .123.949.17.17 0 0 0 .144.083c-.03 0 .022.002.028.002.01 0 .054-.024.017-.008a.18.18 0 0 0 .123-.162m-1.046 1.279q-.097-.587-.208-1.171a85 85 0 0 0-.487-2.418 25 25 0 0 0-1.345-4.487c-.01-.025-.049-.007-.043.018.362 1.517.826 3.007 1.19 4.523.178.745.341 1.493.468 2.248q.099.588.183 1.178a2.6 2.6 0 0 0 .22 1 .039.039 0 0 0 .07-.009 2 2 0 0 0-.048-.882m-1.406 1.024q-.292-1.131-.606-2.256-.655-2.34-1.442-4.634c-.015-.043-.08-.025-.068.018q.675 2.33 1.289 4.677.296 1.13.57 2.266a13 13 0 0 0 .603 2.276c.033.073.15.035.148-.04a10.7 10.7 0 0 0-.494-2.307m-1.339.487q-.387-1.138-.767-2.278a.08.08 0 0 0-.152.042q.326 1.155.64 2.313a7.9 7.9 0 0 0 .784 2.19.038.038 0 0 0 .07-.019 7.9 7.9 0 0 0-.575-2.248m-1.343.911a2.7 2.7 0 0 0-.264-.622c-.019-.034-.065-.004-.05.03a6 6 0 0 1 .214.631 6 6 0 0 1 .147.634c.004.024.04.018.04-.005a2.6 2.6 0 0 0-.087-.668m-1.093 5.471a12 12 0 0 0-.895-1.945.018.018 0 0 0-.032.014 12 12 0 0 0 .628 2.096 10.3 10.3 0 0 0 .861 1.964.059.059 0 0 0 .107-.045 10.5 10.5 0 0 0-.669-2.084m.021 3.679c-.19-.41-.38-.819-.556-1.234a50 50 0 0 1-1.06-2.67.059.059 0 0 0-.114.03 23 23 0 0 0 .897 2.757c.174.43.353.862.55 1.282a4.6 4.6 0 0 0 .708 1.167c.033.036.088-.003.078-.046a6.3 6.3 0 0 0-.503-1.286m-.258 3.396a3.2 3.2 0 0 1-.331-.687 29 29 0 0 1-.443-1.196 18.5 18.5 0 0 0-1.015-2.367.044.044 0 0 0-.08.034 18.5 18.5 0 0 0 .906 2.413c.188.41.37.825.537 1.243a3 3 0 0 1 .206.653 1.55 1.55 0 0 0 .143.629.226.226 0 0 0 .41-.173 1.5 1.5 0 0 0-.332-.549m-1.421-.003a4 4 0 0 0-.38-.671c-.035-.049-.116-.003-.082.047a3.7 3.7 0 0 1 .353.657q.07.165.134.332c.044.12.077.243.12.362.008.02.042.02.04-.005a2.2 2.2 0 0 0-.185-.722m1.067 2.664-.088-.176-.172-.347c-.03-.057-.114-.007-.086.05l.163.345.081.172a1 1 0 0 0 .106.158c.018.026.063.011.053-.023a1 1 0 0 0-.057-.179m-3.004 29.688a22 22 0 0 0-1.388 2.764c-.018.044.051.068.075.031a13 13 0 0 0 1.356-2.777c.009-.025-.03-.04-.043-.018m9.554-11.365c-.111-.103-.235-.194-.355-.288q-.374-.292-.773-.553a27 27 0 0 0-1.628-.985.047.047 0 0 0-.047.08 16 16 0 0 1 1.52 1.107q.349.29.697.583c.116.097.229.2.348.294a.9.9 0 0 0 .39.175c.035.007.076-.024.062-.061a.84.84 0 0 0-.214-.352m20.683-17.553a15.1 15.1 0 0 0-5.984-1.781c-.113-.018-.164.145-.049.175 2.009.515 3.917 1.402 5.97 1.756a.082.082 0 0 0 .063-.15m-.377-2.65a19 19 0 0 0-2.136-.862 30 30 0 0 0-2.288-.62.041.041 0 0 0-.022.08c.74.238 1.472.5 2.207.753.733.254 1.473.478 2.212.713.037.012.063-.047.027-.064m6.53 2.138a2 2 0 0 0-.416-.281 4 4 0 0 0-.501-.245 8 8 0 0 0-1.065-.33c-.727-.202-1.447-.402-2.157-.66-.092-.033-.131.114-.04.148.71.265 1.39.58 2.077.898a9 9 0 0 0 .982.426 3.6 3.6 0 0 0 .546.14 2 2 0 0 0 .51.059.092.092 0 0 0 .064-.155m4.951-2.107a3.2 3.2 0 0 0-1.29-.481 17 17 0 0 1-1.493-.41 63 63 0 0 1-2.814-1.019 29 29 0 0 0-5.796-1.817.05.05 0 0 0-.039.09 24 24 0 0 0 5.595 2.182c.99.292 1.98.579 2.963.895a8.9 8.9 0 0 0 2.785.888.177.177 0 0 0 .09-.328m4.717-1.017a10.5 10.5 0 0 0-2.514-.823 37 37 0 0 1-2.69-.846c-1.772-.637-3.464-1.475-5.265-2.036a.047.047 0 0 0-.036.086 38 38 0 0 0 5.18 2.01q1.333.474 2.653.98a9.3 9.3 0 0 0 2.627.798.091.091 0 0 0 .045-.169m4.26-1.032c-.75-.316-1.612-.424-2.39-.668a51 51 0 0 1-2.594-.9c-1.68-.627-3.357-1.266-5.037-1.894-.022-.008-.037.027-.016.037a40 40 0 0 0 4.827 1.968c.837.278 1.68.538 2.52.805a18 18 0 0 0 2.617.823c.094.014.18-.126.073-.171m3.021-1.687a25 25 0 0 0-3.339-1.154 52 52 0 0 0-3.533-.916.038.038 0 0 0-.02.073c1.127.404 2.255.793 3.4 1.141a30 30 0 0 0 3.456.942c.048.009.088-.061.036-.086m2.818-1.346c-1.43-.568-2.947-.937-4.423-1.37a.038.038 0 0 0-.02.073c1.464.469 2.927 1.016 4.43 1.348a.026.026 0 0 0 .013-.05m2.644-1.43a5.4 5.4 0 0 0-1.073-.377c-.377-.1-.764-.16-1.147-.233a.02.02 0 0 0-.01.04c.363.14.725.291 1.098.406a5.5 5.5 0 0 0 1.11.246.044.044 0 0 0 .022-.082m2.271-.742c-.01.005-.001.02.01.016a1 1 0 0 1 .588-.075c.015.002.021-.02.006-.023a1.04 1.04 0 0 0-.604.083m3.86-.961a1 1 0 0 0-.117-.058 1 1 0 0 0-.133-.021 1.4 1.4 0 0 0-.28-.005 2.3 2.3 0 0 0-.539.116.065.065 0 0 0 .035.125 4 4 0 0 1 .513-.03c.084-.002.169.002.253-.003.042-.002.085 0 .127-.003a1 1 0 0 0 .129-.03.05.05 0 0 0 .012-.091m-60.198-32.922c-.016-.063-.11-.036-.096.026a27.4 27.4 0 0 0 2.415 6.924c.022.044.1.013.08-.033a50 50 0 0 1-2.4-6.917m39.925-12.268a41 41 0 0 1-5.662-.56q-1.35-.23-2.687-.533a10 10 0 0 1-2.782-.883 3.4 3.4 0 0 0-1.002-.462c-.455-.093-.901-.16-1.353-.275q-1.391-.356-2.779-.727c-1.764-.469-3.531-.929-5.287-1.43a.053.053 0 0 0-.028.102c1.776.583 3.536 1.212 5.303 1.824.868.3 1.738.598 2.61.885.46.15.898.354 1.352.505a4.3 4.3 0 0 0 1.276.076 16.6 16.6 0 0 1 2.885.574q1.339.293 2.692.51a33 33 0 0 0 5.462.446.026.026 0 0 0 0-.053m-17.508 19.315a95 95 0 0 0-3.122-2.574c-.064-.05-.155.038-.091.092 1.036.86 2.043 1.75 3.037 2.658.993.909 1.971 1.846 3.016 2.695a.038.038 0 0 0 .054-.054 27 27 0 0 0-2.894-2.817m.77 3.782c-.639-.642-1.291-1.27-1.938-1.903-1.293-1.267-2.614-2.506-3.916-3.765a.05.05 0 0 0-.07.07c1.26 1.301 2.501 2.62 3.77 3.91.618.628 1.23 1.261 1.853 1.882a15 15 0 0 0 1.96 1.797.065.065 0 0 0 .089-.088 15 15 0 0 0-1.748-1.903m-.991 2.412q-.639-.723-1.288-1.436a82 82 0 0 0-2.669-2.784.03.03 0 0 0-.041.042c.887.93 1.763 1.872 2.639 2.813q.638.686 1.266 1.38c.442.49.855 1.013 1.314 1.485.032.034.076-.015.05-.05-.392-.505-.848-.97-1.271-1.45m-2.175.382a.023.023 0 0 0-.033.032c.357.38.716.761 1.109 1.105a.02.02 0 0 0 .029-.03c-.344-.392-.725-.75-1.105-1.108m-32.166 65.68-.697-.371-1.419-.755a.009.009 0 0 0-.009.015l1.391.803.684.394a4 4 0 0 0 .686.346c.02.007.036-.021.02-.034a4 4 0 0 0-.656-.398m1.03-1.396c-.176-.133-.363-.254-.548-.375a13 13 0 0 0-1.152-.658 15 15 0 0 0-2.406-.961c-.015-.005-.02.017-.007.022a19 19 0 0 1 2.327 1.163 25 25 0 0 1 1.578 1.011.86.86 0 0 0 .483.224.05.05 0 0 0 .048-.063c-.037-.161-.195-.267-.323-.363m-1.532-8.475a5.5 5.5 0 0 0-1.03-.623 61 61 0 0 0-1.116-.549.038.038 0 0 0-.038.066q.53.32 1.067.631a5.5 5.5 0 0 0 1.089.524c.027.009.051-.03.028-.049m.564-2.178a6 6 0 0 0-.608-.327 8 8 0 0 0-1.257-.454c-.018-.005-.032.023-.013.032.393.192.769.414 1.15.629.187.106.372.218.56.326a1.9 1.9 0 0 0 .582.271.05.05 0 0 0 .056-.073 1.4 1.4 0 0 0-.47-.403m.78-2.334a1.4 1.4 0 0 0-.327-.216c-.122-.067-.249-.124-.376-.182q-.373-.171-.742-.35c-.06-.03-.113.056-.053.09q.354.206.703.417c.115.07.228.141.348.202a1.5 1.5 0 0 0 .377.16.07.07 0 0 0 .07-.019.1.1 0 0 0 .019-.032.07.07 0 0 0-.019-.07m.421-3.48c-.067-.012-.132-.03-.198-.04a2 2 0 0 1-.192-.046 1.7 1.7 0 0 1-.37-.162.032.032 0 0 0-.033.056 1.7 1.7 0 0 0 .376.177 2 2 0 0 0 .197.052 1 1 0 0 0 .213.01c.025-.002.034-.042.007-.047m.819-10.606-.35-.16q-.365-.166-.732-.325l-1.444-.626c-.017-.007-.032.017-.015.025l1.429.707q.345.171.694.335l.348.164a.8.8 0 0 0 .335.109.03.03 0 0 0 .02-.05.8.8 0 0 0-.285-.179m1.072-1.686a19 19 0 0 0-2.282-1.255 33 33 0 0 0-2.683-1.153c-.037-.014-.063.047-.027.064a43 43 0 0 1 4.528 2.652c.166.11.682.527.885.31s-.282-.525-.42-.618m-1.027-2.555c-.422-.251-.857-.48-1.294-.701a25 25 0 0 0-2.638-1.12c-.019-.006-.032.024-.014.033.861.396 1.698.842 2.528 1.299.402.222.797.457 1.194.689a4.2 4.2 0 0 0 1.231.648c.037.007.078-.032.053-.069a3.2 3.2 0 0 0-1.06-.78m.786-1.799c-.13-.3-.571-.475-.846-.613q-.468-.234-.953-.436a38 38 0 0 0-2.061-.784c-.05-.018-.085.063-.036.085q1.005.46 1.971.998c.313.173.625.35.94.517a1.75 1.75 0 0 0 .94.345c.054-.008.062-.073.045-.112m-.352-2.912a1.4 1.4 0 0 0-.554-.337c-.224-.088-.449-.177-.675-.258-.446-.157-.894-.306-1.338-.466-.053-.02-.09.067-.039.09.427.202.849.415 1.274.619.21.1.424.191.636.286a1.45 1.45 0 0 0 .655.166.06.06 0 0 0 .041-.1m-.44-2.707c-.107-.042-.222-.069-.333-.1q-.346-.1-.691-.203c-.053-.016-.091.068-.039.09l.66.281c.106.046.212.098.321.136.096.033.239.093.336.037a.05.05 0 0 0 .023-.056c-.041-.107-.18-.147-.277-.185m.174-2.066c-.019-.02-.036-.044-.057-.063l-.06-.054-.128-.113c-.083-.073-.18-.133-.269-.198-.014-.01-.03.012-.018.023.08.08.155.164.242.235l.129.105q.03.026.062.05.036.026.074.048c.02.012.04-.016.025-.033m.515-2.645-.015-.017a.1.1 0 0 0-.023-.018l-.042-.025-.083-.05a.05.05 0 0 0-.071.023.05.05 0 0 0 0 .039.05.05 0 0 0 .032.028l.089.038.043.018a.1.1 0 0 0 .028.007l.023.002a.03.03 0 0 0 .024-.016.03.03 0 0 0-.005-.029m-275.96 213.778a18.9 18.9 0 0 0-4.085-5.496 23.3 23.3 0 0 0-5.662-3.86.038.038 0 0 0-.038.065 33.7 33.7 0 0 1 5.252 4.355 46 46 0 0 1 2.272 2.422c.745.85 1.419 1.738 2.122 2.62.067.084.178-.022.139-.106m3.97-24.481c-.006-.047-.078-.05-.076 0 .11 3.524.23 7.04.433 10.56a.056.056 0 0 0 .111 0 63.4 63.4 0 0 0-.468-10.56m-1.568 9.163c.063-3.055.031-6.097-.034-9.15a.05.05 0 0 0-.1 0c-.16 2.556-.313 5.105-.38 7.666q-.025.989-.04 1.978c-.01.586.102 1.147.138 1.731a15 15 0 0 1-.033 1.979 6.4 6.4 0 0 0-.091 2.087.089.089 0 0 0-.16-.02l-.029.044a.113.113 0 0 0 .04.153c.753.437.442-1.692.433-1.893a17 17 0 0 1 .025-2.226c.069-.797.215-1.546.231-2.35m-2.005-4.049a.053.053 0 0 0-.105 0c-.092 3.228-.302 6.471-.12 9.7a.064.064 0 0 0 .128 0 61 61 0 0 0 .097-9.7m8.621 53.584a15 15 0 0 0-1.214 6.844c.006.053.092.078.104.014a54 54 0 0 1 1.257-6.818c.03-.094-.113-.13-.147-.04m1.096.704a26 26 0 0 0-.971 4.655 17.4 17.4 0 0 0-.057 4.727c.008.05.076.032.08-.01.164-1.54.152-3.088.31-4.628.163-1.584.406-3.162.711-4.724a.038.038 0 0 0-.073-.02m1.066 2.562a30 30 0 0 0-.61 3.332 18 18 0 0 0-.286 3.477c.002.035.054.046.063.009a32 32 0 0 0 .44-3.355c.145-1.153.305-2.302.421-3.458.002-.017-.024-.02-.028-.004m-.618 9.772-.006-.54c-.004-.355-.026-.708-.042-1.062a.023.023 0 0 0-.047 0c-.017.354-.04.707-.043 1.061l-.006.521-.003.26a.36.36 0 0 0 .04.221.042.042 0 0 0 .07 0 .9.9 0 0 0 .037-.46m1.78-5.014c.004-.036-.059-.045-.064-.009a40 40 0 0 0-.34 3.665 19.7 19.7 0 0 0 .061 3.681c.008.054.09.038.092-.012.042-1.22-.049-2.447-.017-3.669q.049-1.833.268-3.656m1.335 8.382q-.021-.63-.033-1.26c-.018-.84-.058-1.679-.064-2.52a.015.015 0 0 0-.03 0c-.056.838-.115 1.681-.118 2.52q-.001.63.014 1.26a5 5 0 0 0 .108 1.176c.012.048.094.053.102 0a6 6 0 0 0 .02-1.176m1.235-.712c-.004-.045-.073-.047-.07 0a27 27 0 0 0 .218 2.897c.004.026.046.019.046-.007a27 27 0 0 0-.194-2.89M20.741 308.06a.3.3 0 0 0-.012-.09.03.03 0 0 0-.056 0 .3.3 0 0 0-.012.09l-.007.088a.047.047 0 0 0 .047.046.047.047 0 0 0 .047-.046Zm22.565-5.904a14 14 0 0 0-2.14-2.46c-.403-.367-.838-.692-1.268-1.028-.213-.167-.44-.318-.642-.498a4.6 4.6 0 0 0-.628-.502c-.162-.1-.303.148-.148.253.216.147.444.257.672.384a5 5 0 0 1 .669.495 13 13 0 0 1 1.143 1.099 19 19 0 0 1 1.651 2.003 6 6 0 0 1-.784-.288 3.5 3.5 0 0 1-.607-.254 2 2 0 0 1-.539-.573.073.073 0 0 0-.126.074 2.2 2.2 0 0 0 .448.572 4.3 4.3 0 0 0 .566.491 5.5 5.5 0 0 0 1.504.53c.161.041.332-.147.229-.298m-.634-3.099a2.2 2.2 0 0 0-.323-.313 5.4 5.4 0 0 0-.759-.507 7 7 0 0 0-.78-.38c-.284-.117-.574-.202-.865-.3a.041.041 0 0 0-.032.075 10 10 0 0 1 1.448.948c.227.17.448.349.673.522.115.088.229.168.35.246a3 3 0 0 0 .403.188.077.077 0 0 0 .104-.104 2 2 0 0 0-.22-.375m34.583-23.299a2.4 2.4 0 0 0-.696-.326c-.26-.089-.52-.18-.782-.258-.534-.162-1.083-.27-1.62-.42a.059.059 0 0 0-.032.113c.518.188 1.021.414 1.541.595.25.086.504.158.756.236a2.4 2.4 0 0 0 .794.155c.043-.002.08-.062.039-.095m1.897-.968c-.074-.158-.26-.22-.414-.287a5 5 0 0 0-.586-.208 44 44 0 0 0-2.533-.659c-.425-.096-.86-.165-1.28-.276a.023.023 0 0 0-.013.045c.413.145.813.332 1.221.492a44 44 0 0 0 2.472.88 5 5 0 0 0 .635.16.66.66 0 0 0 .464-.015.1.1 0 0 0 .034-.132m.834-1.376a2.44 2.44 0 0 0-.986-.396q-.588-.166-1.17-.35c-.761-.242-1.535-.441-2.302-.664-.046-.013-.079.058-.033.08a17.5 17.5 0 0 0 2.191.944c.373.127.75.24 1.127.352a2.4 2.4 0 0 0 1.133.185.09.09 0 0 0 .04-.151m.475-1.062a8 8 0 0 0-.779-.217q-.388-.112-.772-.24a37 37 0 0 1-1.515-.555c-.04-.015-.068.05-.03.07a13 13 0 0 0 1.502.642q.38.138.767.259a4.6 4.6 0 0 0 .803.22c.11.012.11-.144.024-.18m1.174-1.346a1 1 0 0 0-.107.012q-.056.005-.11.006a.97.97 0 0 1-.616-.179c-.044-.03-.084.04-.042.071a1.06 1.06 0 0 0 .665.195 1 1 0 0 0 .113-.018.3.3 0 0 0 .11-.038.027.027 0 0 0-.013-.049m-57.361 43.274a11.4 11.4 0 0 0-2.209-.64 11 11 0 0 0-2.211-.27c-.02 0-.025.032-.005.035.739.139 1.485.22 2.22.375.738.156 1.463.36 2.194.54a.02.02 0 0 0 .011-.04m3.275-.783a4.6 4.6 0 0 0-1.264-.334l-1.421-.325c-.93-.212-1.867-.4-2.8-.597-.041-.009-.058.052-.018.062.924.233 1.846.477 2.774.695l1.366.321.683.16a2.2 2.2 0 0 0 .654.11.05.05 0 0 0 .026-.092m2.735-1.026a4.6 4.6 0 0 0-1.223-.431q-.69-.187-1.393-.312a13 13 0 0 0-2.71-.208.018.018 0 0 0 0 .035 21 21 0 0 1 2.715.342q.626.127 1.242.302a11 11 0 0 0 1.318.395.068.068 0 0 0 .051-.123m2.569-.799a1 1 0 0 0-.435-.186q-.281-.082-.565-.155-.587-.154-1.185-.26a20 20 0 0 0-2.304-.263c-.046-.002-.044.065 0 .07a20 20 0 0 1 2.287.41q.529.127 1.052.272.282.079.562.166a1.3 1.3 0 0 0 .515.121.104.104 0 0 0 .073-.175m1.641-.974a2 2 0 0 0-.2-.064q-.09-.017-.179-.029a6 6 0 0 0-.377-.047l-.778-.075c-.033-.004-.04.051-.008.057l.769.144q.187.036.376.06.09.014.179.023a2 2 0 0 0 .21-.006.032.032 0 0 0 .008-.063m1.877-.858a1.06 1.06 0 0 0-.604-.163 1.3 1.3 0 0 0-.605.166.035.035 0 0 0 .027.064 2 2 0 0 1 .578-.082 1.5 1.5 0 0 1 .281.02c.1.016.199.039.298.053a.032.032 0 0 0 .025-.058m10.72-3.244a21 21 0 0 0-2.884-.556c-.044-.006-.064.057-.019.068a21 21 0 0 0 2.895.546c.034.003.039-.049.008-.058m4.493-.959a7 7 0 0 0-1.4-.366 81 81 0 0 0-1.549-.345c-1.018-.213-2.035-.429-3.058-.618a.038.038 0 0 0-.02.074c.996.292 1.998.557 3 .825.493.132.986.255 1.48.377a7.3 7.3 0 0 0 1.475.32c.136.004.203-.206.072-.267m2.517-1.2a40 40 0 0 0-3.105-.706 16 16 0 0 0-3.058-.399.032.032 0 0 0-.008.063c1.003.253 2.053.343 3.07.545q1.532.305 3.042.712a.111.111 0 0 0 .06-.215m2.047-.871a11 11 0 0 0-1.63-.297 38 38 0 0 1-1.63-.302c-.01-.002-.015.015-.004.017a40 40 0 0 1 1.593.433 11 11 0 0 0 1.591.437.15.15 0 0 0 .08-.288m1.806-1.155a6.2 6.2 0 0 0-1.417-.25 12 12 0 0 0-1.452-.003.015.015 0 0 0 0 .029c.485.053.963.164 1.444.247.46.079.924.196 1.389.243.16.016.172-.22.036-.267m1.566-.769a2 2 0 0 0-.511-.042l-.52.014a.067.067 0 0 0 0 .135l.52.014a2 2 0 0 0 .511-.042.041.041 0 0 0 0-.079m2.203-.455-.059-.038-.068-.025-.125-.044-.258-.092c-.064-.022-.093.081-.028.102l.261.082.126.04a.4.4 0 0 0 .07.02l.067.004c.028.002.034-.036.014-.049"/><path fill="currentColor" d="M260.889 209.772c-1.51.572-3.035 1.072-4.525 1.702a91 91 0 0 0-4.56 2.104c-2.941 1.441-5.825 2.992-8.718 4.527-5.728 3.038-11.47 6.042-17.475 8.503-11.207 4.593-22.955 7.756-34.02 12.696-2.511 1.122-5.02 2.248-7.45 3.533 2.036-1.718 4.088-3.413 6.231-5.005a131 131 0 0 1 4.915-3.453c1.715-1.156 3.43-2.38 5.207-3.434a.059.059 0 0 0-.06-.101c-1.699.912-3.418 1.749-5.078 2.74a96 96 0 0 0-4.655 2.99c-3.052 2.073-5.975 4.31-8.82 6.657-1.55 1.28-3.091 2.572-4.718 3.755-1.484 1.078-3.009 2.099-4.533 3.12a51.4 51.4 0 0 0-8.284 6.406q-.447.457-.86.935a21.6 21.6 0 0 0-5.668 7.517c-2.02 4.417-3.127 9.194-4.811 13.74-.87 2.35-1.818 4.673-2.793 6.982q-.726 1.721-1.467 3.436a20.6 20.6 0 0 1-1.5 3.062 15 15 0 0 1-2.352 2.52 12.7 12.7 0 0 0-2.002 2.503 29 29 0 0 0-2.542 6.045 73 73 0 0 0-2.202 7.994c-.37 1.782-.72 3.58-.99 5.387.002-.37-.008-.74 0-1.11.048-2.187.171-4.374.203-6.562.016-1.114.083-2.223.094-3.338 0-.102-.166-.13-.184-.024-.727 4.142-.916 8.342-1.247 12.527a96 96 0 0 0-.3 6.45c-.026 2.15.016 4.302.076 6.45a158 158 0 0 0 2.205 24.924 4.46 4.46 0 0 0-1.695-1.16c-.512-.199-.653-.634-.865-1.112a7.3 7.3 0 0 1-.507-1.844 23 23 0 0 1-.133-3.856c0-.023-.032-.022-.035 0a16.6 16.6 0 0 0 .016 3.577c.052.59.117 1.179.156 1.77a6.4 6.4 0 0 0 .123 1.541 1.2 1.2 0 0 0 .856.752 3.6 3.6 0 0 1 1.308.563 3.5 3.5 0 0 1 .915 1.119 3 3 0 0 1 .146.345 4.76 4.76 0 0 1-.373 2.968c-.888 1.554-2.942 1.417-4.331.693a16.2 16.2 0 0 1-4.068-3.403 26.3 26.3 0 0 1-3.213-4.168 20.25 20.25 0 0 1-3.189-9.598 19.7 19.7 0 0 1 .608-5.372 17.4 17.4 0 0 0 .43-5.876c-.44-4.029-1.135-8.055-1.928-12.028a58.4 58.4 0 0 0-3.183-11.462 38 38 0 0 0-1.291-2.711.103.103 0 0 0-.187.079c.68 2.429 1.324 4.875 1.912 7.333a19.6 19.6 0 0 0-3.005-5.192 43.5 43.5 0 0 0-7.012-6.789 54.9 54.9 0 0 0-17.787-9.68 51.2 51.2 0 0 0-11.228-1.84c-.049-.003-.061.079-.012.086 1.65.255 3.274.692 4.893 1.098a38 38 0 0 1 3.962 1.236 23 23 0 0 0-1.868-.075c-3.05.008-5.958 1.088-8.772 2.147a42 42 0 0 1-4.438 1.45c-1.55.395-3.123.685-4.685 1.025a7.6 7.6 0 0 0-3.786 1.768c-.508.476-.952 1.016-1.466 1.486a9 9 0 0 1-1.738 1.204 36 36 0 0 1-4.038 1.756 130 130 0 0 1-4.447 1.702c-2.989 1.069-6.044 1.773-9.11 2.57-5.683 1.476-10.713 4.567-16.267 6.385a23.85 23.85 0 0 1-10.12 1.13c-2.395-.266-5.35-.773-7.188-2.525l-.025-.079a2 2 0 0 0-.211-.488 3.5 3.5 0 0 1-.202-.484l.32-.36c.065-.076.004-.231-.108-.187q-.114.046-.23.09a2 2 0 0 1 .175-.387 2.7 2.7 0 0 1 .725-.748 4 4 0 0 0 .408.02c.218-.006.435-.032.653-.04a4.2 4.2 0 0 1 1.429.194 5 5 0 0 1 1.26.668 1.09 1.09 0 0 0 1.09.158c.241-.12.454-.282.71-.385a7 7 0 0 1 .83-.26c.533-.145 1.088-.26 1.608-.445.544-.192 1.14-.48 1.197-1.118.012-.134-.22-.127-.196.026.086.54-.58.802-.993.898-.474.109-.947.226-1.42.343a6.5 6.5 0 0 1-1.526.273 4.5 4.5 0 0 1-.623-.021 1.7 1.7 0 0 1-.592-.313 4.76 4.76 0 0 0-2.114-.67c-.082-.007-.167-.003-.25-.005a19 19 0 0 1 1.28-.329 43.7 43.7 0 0 0 9.66-3.535 74.5 74.5 0 0 0 9.056-5.443c.99-.683 1.961-1.398 2.965-2.063.106.073.21.15.323.219a5 5 0 0 0 .58.333c.105.045.209.102.316.14.098.034.198.057.296.092a2 2 0 0 0 .289.088c.123.026.23.085.35.117a.065.065 0 0 0 .063-.108c-.095-.1-.202-.187-.297-.289-.083-.088-.182-.162-.27-.244a3.7 3.7 0 0 0-.642-.506l-.403-.23c.27-.17.539-.34.816-.497a25.5 25.5 0 0 1 5.089-1.946c6.324-1.993 11.27-6.41 16.587-10.167 1.33-.94 2.691-1.838 4.11-2.641a46 46 0 0 0 4.707-2.714 22.3 22.3 0 0 0 6.1-7.436c.444-.81.846-1.64 1.252-2.47a3.3 3.3 0 0 1 2.036-1.92c2.065-.704 4.192-1.25 6.273-1.91a429 429 0 0 0 12.668-4.268.085.085 0 0 0-.045-.164q-4.152.99-8.285 2.06c.35-.168.699-.336 1.042-.518a60 60 0 0 0 5.708-3.507c3.708-2.54 7.268-5.287 11.042-7.732 7.534-4.88 15.604-8.864 23.148-13.726a77 77 0 0 0 7.677-5.552 441 441 0 0 0-3.019 4.594 85 85 0 0 0-1.654 2.62c-.066.11.092.238.18.139 2.701-3.082 5.182-6.362 7.684-9.607a37 37 0 0 1 3.582-4.435 22.4 22.4 0 0 1 4.496-2.873c3.33-1.917 6.156-4.65 9.087-7.104q4.573-3.828 9.23-7.554c12.376-9.91 25.173-19.262 38.025-28.54q5.425-3.916 10.856-7.823c1.812-1.301 3.616-2.615 5.423-3.924a64 64 0 0 0 5.148-3.96c.064-.057-.018-.152-.09-.114a111 111 0 0 0-9.995 6.471q-4.94 3.338-9.831 6.751-9.786 6.826-19.384 13.914-9.617 7.108-19.01 14.513-4.676 3.701-9.275 7.499-2.3 1.9-4.576 3.826c-1.479 1.251-2.939 2.533-4.525 3.649-1.491 1.048-3.138 1.814-4.674 2.786a14.5 14.5 0 0 0-3.791 3.657 99 99 0 0 0-2.167 3 179 179 0 0 1-20.354 13c-3.843 2.182-7.695 4.352-11.436 6.706-3.776 2.377-7.342 5.042-10.984 7.615-2.031 1.434-4.098 2.829-6.246 4.083-1.065.623-2.158 1.195-3.246 1.776-.556.298-1.129.567-1.685.865-.485.26-.935.57-1.413.842-1.543.425-3.085.852-4.621 1.304a10 10 0 0 0-2.495.918 4.44 4.44 0 0 0-1.58 1.894 28.3 28.3 0 0 1-5.69 8.439 20.6 20.6 0 0 1-4.59 3.023 47 47 0 0 0-4.483 2.693c-2.102 1.43-4.128 3-6.186 4.517a.16.16 0 0 0-.18-.033c-1.178.562-2.268 1.273-3.429 1.868a23.5 23.5 0 0 1-3.716 1.562c-2.49.775-5.152.837-7.392 2.276-2.177 1.398-4.276 2.891-6.499 4.223q-3.36 2.012-6.908 3.685a81 81 0 0 1-14.58 5.201q-1.898.484-3.819.865a30 30 0 0 0-3.753.787c-1.983.663-3.994 2.673-2.896 4.9a4.6 4.6 0 0 0 2.573 2.04 20.4 20.4 0 0 0 4.247 1.034 21.4 21.4 0 0 0 8.143-.036c.18.057.36.119.54.17a21.8 21.8 0 0 0 9.267.308c5.824-.966 10.927-4.143 16.386-6.19 2.933-1.1 6.002-1.668 9.008-2.516a89 89 0 0 0 9.068-3.26 31 31 0 0 0 3.897-1.745 16.5 16.5 0 0 0 3.22-2.755c1.153-1.121 2.661-1.358 4.18-1.67 1.566-.32 3.14-.62 4.677-1.06 3.325-.955 6.412-2.576 9.85-3.147a26.8 26.8 0 0 1 7.212-.236 69 69 0 0 1 6.457 2.835 53.1 53.1 0 0 1 15.35 11.596 32.7 32.7 0 0 1 5.877 8.968c.006.014.017.019.026.028.083.396.173.791.252 1.188.821 4.144 1.376 8.341 1.968 12.522a17.5 17.5 0 0 1-.04 6.28 26.6 26.6 0 0 0-.832 5.649 21 21 0 0 0 2.792 10.08 26.9 26.9 0 0 0 7.038 8.244 6.5 6.5 0 0 0 4.857 1.574 3.97 3.97 0 0 0 3.334-3.106 9.2 9.2 0 0 0-.041-3.525 1.5 1.5 0 0 0 .283-.534 4.3 4.3 0 0 0-.033-1.558 32 32 0 0 0-.686-3.549c-.315-1.299-.68-2.6-1.007-3.909-.408-3.907-.58-7.825-.74-11.751q-.267-6.55-.241-13.1c.003-1.067-.016-2.133-.031-3.199.525-2.21 1.013-4.425 1.627-6.614a142 142 0 0 1 2.142-6.908 44 44 0 0 1 2.503-6.29 13.7 13.7 0 0 1 1.776-2.695c.7-.806 1.54-1.47 2.27-2.247 1.562-1.666 2.325-3.884 3.209-5.948.958-2.238 1.906-4.48 2.798-6.745a112 112 0 0 0 2.465-6.869c.72-2.243 1.388-4.505 2.186-6.722a52 52 0 0 1 1.731-4.27 18 18 0 0 0-.577 2.075.094.094 0 0 0 .18.05 19.16 19.16 0 0 1 5.282-8.065 54.3 54.3 0 0 1 8.125-6.333c2.659-1.78 5.236-3.612 7.71-5.627q.66-.356 1.322-.705a117 117 0 0 1 8.157-3.9c2.77-1.19 5.614-2.16 8.436-3.214a376 376 0 0 1 8.514-3.04c5.704-1.976 11.436-3.9 17.029-6.177a147 147 0 0 0 17.149-8.472c3.177-1.803 6.348-3.62 9.565-5.352a180 180 0 0 1 4.856-2.51c1.746-.873 3.499-1.81 5.306-2.546.075-.03.044-.154-.034-.124M38.68 295.082a11.6 11.6 0 0 1 1.789-1.112 13 13 0 0 1 2.129-.668c1.338-.375 2.657-.772 3.954-1.276.926-.36 1.887-.737 2.827-1.166a30 30 0 0 1-7.09 3.412 26.6 26.6 0 0 0-5.201 1.993c-.317.178-.625.37-.932.564.847-.57 1.69-1.148 2.524-1.747m-26.356 20.7a38 38 0 0 1-4.074-.338 28.4 28.4 0 0 1-3.906-.848 5.7 5.7 0 0 1-2.605-1.326 1.96 1.96 0 0 1 .235-2.794 5.9 5.9 0 0 1 3.285-1.304c2.388-.425 4.762-.905 7.11-1.514a77.6 77.6 0 0 0 13.718-5.03 76 76 0 0 0 8.86-5.003c-.816.562-1.617 1.145-2.43 1.706a73 73 0 0 1-9.458 5.625 48 48 0 0 1-5.098 2.127c-1.57.552-3.211.905-4.764 1.5a5.24 5.24 0 0 0-3.034 2.29 2.74 2.74 0 0 0-.27 1.243.36.36 0 0 0 .008.296l.017.03a2.93 2.93 0 0 0 1.043 1.871 2.25 2.25 0 0 0 .995.478 10 10 0 0 0 1.726.992c-.453.005-.905.014-1.358-.001"/><path fill="currentColor" d="m251.51 207.864-.021-.023-.044-.046-.087-.092c-.024-.024-.062.014-.037.038l.091.087.046.043.023.022c.008.008.016.018.029.017a.02.02 0 0 0 .017-.018c0-.013-.009-.02-.017-.028m1.1-1.465a15.5 15.5 0 0 0-1.054 1.803 72 72 0 0 0-1.01 1.915 33 33 0 0 0-1.726 3.766c-.03.08.09.122.134.056a34 34 0 0 0 2.018-3.746q.461-.941.891-1.898a15 15 0 0 0 .785-1.88c.008-.024-.024-.034-.037-.016m-1.878-1.201c-1.81 3.4-3.598 6.83-5.294 10.287a.076.076 0 0 0 .131.077 38.6 38.6 0 0 0 5.195-10.35.018.018 0 0 0-.032-.014m-2.636.304c-1.311 2.228-2.595 4.473-3.938 6.683a268 268 0 0 1-1.982 3.199 22.4 22.4 0 0 0-1.855 3.287c-.026.063.065.105.107.063a16.7 16.7 0 0 0 2.206-2.946 79 79 0 0 0 2.003-3.323 75 75 0 0 0 3.55-6.91c.027-.06-.056-.113-.09-.053m-4.47 2.19q-1.911 3.222-3.872 6.413a236 236 0 0 1-1.924 3.073 28 28 0 0 0-1.958 3.33c-.025.056.044.124.092.07a38 38 0 0 0 4.048-6.182q1.946-3.273 3.69-6.66a.044.044 0 0 0-.076-.044m-4.138 1.34a60 60 0 0 1-3.292 5.68c-.02.03.027.067.05.04a16.5 16.5 0 0 0 3.338-5.68.053.053 0 0 0-.097-.04m-5.129 8.83c-.5.821-1.03 1.616-1.557 2.419-.254.389-.52.772-.767 1.165a5 5 0 0 0-.375.633c-.041.096-.03.09-.085.15-.011.013-.053.046-.057.06l-.005.005c-.034-.043-.096-.061-.129-.005-.166.29.264.399.472.34.233-.065.377-.303.492-.496.165-.273.317-.554.467-.836a80 80 0 0 1 1.822-3.272.161.161 0 0 0-.279-.163m-1.441-2.502-2.707 4.4c-.451.733-.909 1.463-1.352 2.2a11.7 11.7 0 0 0-1.16 2.134.068.068 0 0 0 .112.066 11.7 11.7 0 0 0 1.321-2.04c.436-.741.86-1.492 1.288-2.238q1.286-2.24 2.574-4.478a.044.044 0 0 0-.076-.045m-5.818 4.743c-.683.942-1.389 1.868-2.066 2.814a13.5 13.5 0 0 0-1.807 2.85c-.02.053.052.085.088.052a13.5 13.5 0 0 0 1.98-2.75c.624-.975 1.217-1.97 1.835-2.948.013-.02-.017-.036-.03-.018m-5.1 4.113a4.3 4.3 0 0 1-.685 1.238 7 7 0 0 1-.443.512c-.083.085-.163.172-.249.253s-.18.153-.263.236c-.025.024.006.059.035.046a2.5 2.5 0 0 0 .595-.417 3.4 3.4 0 0 0 .48-.533 4.4 4.4 0 0 0 .636-1.306c.021-.07-.083-.096-.107-.03m-3.006 2.039a4.3 4.3 0 0 0-1.213.626 3.9 3.9 0 0 0-.855 1.082c-.03.05.043.11.083.064a9 9 0 0 1 .975-.891 9 9 0 0 1 1.028-.838c.021-.013.008-.052-.018-.043m-13.42-8.48c-1.562 2.843-3.214 5.657-4.52 8.63-.031.072.064.132.106.063 1.695-2.771 3.06-5.736 4.5-8.643.028-.057-.055-.107-.086-.05m-3.648 1.494c-1.738 3.845-3.863 7.49-5.697 11.286a.056.056 0 0 0 .096.056 55 55 0 0 0 5.703-11.3c.023-.058-.076-.1-.102-.042m-3.62 3.039c-2.105 3.702-4.224 7.43-5.962 11.322a.047.047 0 0 0 .081.047c2.232-3.63 4.11-7.486 5.977-11.313.031-.064-.06-.119-.096-.056m-4.513 3.789q-1.338 2.598-2.846 5.103c-1.005 1.667-2.102 3.284-3.042 4.989-.02.036.031.08.06.046a35.3 35.3 0 0 0 3.133-4.837q1.465-2.586 2.766-5.26c.023-.047-.046-.089-.07-.041m-5.134 4.752c-1.364 2.455-2.932 4.777-4.365 7.188-.016.028.025.063.046.036a46 46 0 0 0 4.364-7.197c.016-.03-.029-.056-.045-.027m-5.639 6.301a21 21 0 0 1-1.076 2.391c-.397.753-.826 1.489-1.223 2.241-.017.034.03.076.056.043a14.7 14.7 0 0 0 2.288-4.662c.01-.03-.035-.04-.045-.013m173.489-113.509-31.276.63 6.217 10.624-64.527 35.638 3.385 6.127 64.679-35.722 6.076 10.381z"/></svg>