<svg xmlns="http://www.w3.org/2000/svg" data-name="lionfish" viewBox="0 0 438.882 314.368"><path fill="currentColor" d="M107.307 225.14c-.887 3.82-1.82 7.636-2.585 11.483-.008.04.052.057.062.017.955-3.805 1.742-7.653 2.574-11.485.007-.033-.043-.048-.051-.014m2.993-.725q-1.238 5.152-2.15 10.37a94 94 0 0 0-1.337 10.291c-.003.052.084.065.092.013.548-3.445.954-6.911 1.513-10.356q.84-5.173 1.938-10.302c.008-.037-.048-.053-.057-.016m.199 6.118c-.47 3.639-.82 7.294-1.01 10.958a88 88 0 0 0-.057 10.996.038.038 0 0 0 .076 0c.103-3.666.054-7.332.215-10.996.16-3.66.427-7.315.823-10.958.003-.03-.043-.03-.047 0m1.1 18.655q-.253-4.089-.277-8.19a.023.023 0 0 0-.047 0c-.072 2.772-.05 5.542.08 8.312a51 51 0 0 0 .784 8.05.044.044 0 0 0 .086-.01c-.078-2.722-.458-5.444-.626-8.162m1.862-1.308c-.003-.037-.06-.038-.058 0a60.7 60.7 0 0 0 1.632 10.747c.01.037.063.021.057-.016-.667-3.564-1.303-7.115-1.63-10.731m81.085-110.784c.007-.047-.064-.069-.074-.02a14.6 14.6 0 0 0 .04 6.643c.012.04.08.033.075-.01a23 23 0 0 1-.041-6.613"/><path fill="currentColor" d="M438.742 178.864a44.3 44.3 0 0 1-6.92 5.11c-2.384 1.397-4.709 2.89-7.124 4.233-4.957 2.755-10.133 5.086-15.279 7.459a157 157 0 0 0-15.187 7.726c-5.534 3.321-10.563 7.4-16.491 10.047a42.2 42.2 0 0 1-10.227 3.084 37 37 0 0 0-4.81.957 12.3 12.3 0 0 0-2.189.892 3.46 3.46 0 0 0-1.497 1.42 7 7 0 0 0-.845-.621 4.74 4.74 0 0 0-3.547-.66c-.913.203-2.225.945-2.263 2.02a5.68 5.68 0 0 0-4.392-1.355 5.8 5.8 0 0 0-.967-.73 25 25 0 0 1-3.584-2.09c-2.073-1.72-3.779-3.85-5.805-5.629a48 48 0 0 0-6.927-5.053 28.2 28.2 0 0 1-6.837-5.014c-2.032-2.261-3.724-4.853-5.534-7.29-2.134-2.875-4.254-5.76-6.383-8.637-1.09-1.473-2.177-2.95-3.294-4.403-.66-.86-1.309-1.744-2-2.59q-.479-1.402-.952-2.805-1.276-3.81-2.315-7.695c-.658-2.458-1.096-4.986-1.805-7.427a7.6 7.6 0 0 0-1.531-2.985 10.6 10.6 0 0 0-2.84-2.054 146 146 0 0 1-6.547-3.884 139 139 0 0 1-12.363-8.78q-3.286-2.614-6.41-5.425c-1.743-1.568-3.432-3.187-5.279-4.623l2.053-2.45 9.973-11.901a40 40 0 0 1 4.785-5.15c1.7-1.423 3.561-2.64 5.255-4.074a59.2 59.2 0 0 0 18.66-32.034c.827-4.319.776-9.072-1.85-12.796-2.18-3.09-5.709-5.006-9.53-4.258-3.795.742-6.706 3.808-9.125 6.613a115 115 0 0 1-9.054 9.705 83 83 0 0 1-10.726 8.368 41 41 0 0 0-5.76 4.22c-1.684 1.58-3.145 3.375-4.671 5.103a100.5 100.5 0 0 1-10.104 9.812 202 202 0 0 1-4.394 3.636c.478-.574.961-1.143 1.43-1.724l4.744-5.88 9.274-11.493c6.22-7.71 12.436-15.425 18.493-23.264 2.64-3.415 5.196-7.012 8.582-9.742a36.3 36.3 0 0 1 5.617-3.37 21.3 21.3 0 0 0 5.262-4.16c5.723-6.044 11.21-12.766 14.716-20.368a37.6 37.6 0 0 0 3.398-11.93c.41-4.055-.234-8.614-3.514-11.397a7.95 7.95 0 0 0-5.028-2.012c-.043 0-.085.006-.128.007-.283-1.11-1.558-1.558-2.685-1.52a11.6 11.6 0 0 0-4.651 1.682 59.7 59.7 0 0 0-9.184 6.129c-2.964 2.3-5.847 4.71-8.928 6.854a47 47 0 0 1-4.685 2.904 48 48 0 0 1-5.25 2.285 13.9 13.9 0 0 0-5.027 3.208c-1.44 1.462-2.82 2.978-4.284 4.417a115 115 0 0 1-9.234 8.148 114 114 0 0 1-10.088 7.119c-3.478 2.183-7.076 4.112-10.729 5.982a13.3 13.3 0 0 0-4.63 3.669 46 46 0 0 1-4.39 4.9c-3.379 3.248-6.822 6.424-10.147 9.728-.44.437-.846.9-1.267 1.35-.187-.158-.38-.312-.564-.472a64.5 64.5 0 0 1-6.446-6.514 24.7 24.7 0 0 0-3.191-3.24 20.6 20.6 0 0 0-3.743-2.281c-6.134-3.035-12.352-5.91-18.526-8.86-5.598-2.676-11.235-5.299-16.617-8.394a81 81 0 0 1-7.591-4.903 70 70 0 0 1-6.92-5.947 34.2 34.2 0 0 0-7.188-5.513c-2.63-1.437-5.424-2.537-8.106-3.87a52 52 0 0 1-7.603-4.876 33 33 0 0 0-7.565-4.532 13.67 13.67 0 0 0-8.066-.741 9.35 9.35 0 0 0-5.84 4.446c-2.81 4.865-1.512 10.64 1.159 15.245a47 47 0 0 0 5.358 7.222 63 63 0 0 0 6.518 6.44 39 39 0 0 0 1.911 1.524 9.3 9.3 0 0 0-3.743 3.424c-3.506 5.64-1.198 12.369 1.854 17.626a75.5 75.5 0 0 0 26.175 26.602c1.183.71 2.415 1.33 3.661 1.92a14 14 0 0 0 1.958 2.854 41 41 0 0 0 5.243 4.79c4.254 3.356 8.68 6.52 13.082 9.677q1.226.88 2.462 1.745a2.3 2.3 0 0 0-.321.548l-.17.392c-.833.856-1.55 1.863-2.295 2.756q-1.738 2.079-3.66 3.994a59.3 59.3 0 0 1-8.423 7.001 29.7 29.7 0 0 0-4.194 3.126 10.25 10.25 0 0 0-2.608 4.418 27.6 27.6 0 0 0-.863 5.091 52 52 0 0 1-.86 5.62 65.6 65.6 0 0 1-3.047 9.846c-1.792 2.87-3.588 5.737-5.303 8.654a80 80 0 0 0-4.5 8.516c-1.29 2.96-2.16 6.064-3.24 9.1-2.212 6.216-6.27 11.457-10.014 16.81l-5.837 8.349-2.99 4.276a10.3 10.3 0 0 1-2.835 3.123c-1.359.822-2.95 1.01-4.014 2.3-.075.092-.13.2-.2.295-.853-.02-1.743.06-2.566.115a13 13 0 0 0-3.238.682A29 29 0 0 0 93.167 218a12 12 0 0 0-2.152 1.161c-.07-.019-.136-.038-.209-.056a4.4 4.4 0 0 0-1.606-.094 5.6 5.6 0 0 0-2.403.94 4.3 4.3 0 0 0-1.444-.692 15 15 0 0 0-2.628-.327c-.36-.022-.722-.028-1.084-.047a62.3 62.3 0 0 1-13.937-4.372c-2.409-1.14-4.728-2.477-7.243-3.38a52.5 52.5 0 0 0-8.02-1.86c-11.278-2.145-22.462-4.732-33.593-7.542-6.26-1.58-12.508-3.2-18.776-4.753a.059.059 0 0 0-.03.113c11.007 3.398 22.078 6.585 33.25 9.406 5.542 1.4 11.101 2.708 16.71 3.815 2.76.546 5.566.948 8.282 1.691a42 42 0 0 1 7.537 3.234 33.7 33.7 0 0 0 8.38 2.974 58 58 0 0 0 3.987.635 17 17 0 0 1-1.516.026 109 109 0 0 1-12.416-1.204c-.026-.004-.037.035-.011.04 3.925.763 7.847 1.465 11.82 1.928 1.004.116 1.977.343 2.973.498.995.156 2.012.17 3.016.229.894.052 1.783.128 2.67.251.368.051.736.077 1.103.102a15.6 15.6 0 0 0-3.177 4.88 52.2 52.2 0 0 0-4.318 15.104 45 45 0 0 0-.237 8.963.038.038 0 0 0 .076 0 62 62 0 0 1 .672-7.762 48.5 48.5 0 0 1 1.631-7.453 49 49 0 0 1 2.817-7.182 17.5 17.5 0 0 1 3.636-5.588 4.6 4.6 0 0 1 2.886-1.246l.08-.005a9.4 9.4 0 0 0-.78 1.807q-.589 1.75-1.209 3.492a73 73 0 0 0-2.399 6.979.015.015 0 0 0 .027.011 49 49 0 0 0 2.975-6.201c.458-1.053.924-2.102 1.386-3.153a8.2 8.2 0 0 1 1.405-2.585 9 9 0 0 1 2.612-1.506 28 28 0 0 1 2.97-1.149c.998-.324 2.015-.616 2.995-.99a15 15 0 0 1 1.755-.514 23.4 23.4 0 0 0-1.51 3.576 82 82 0 0 0-1.776 5.226c-.554 1.842-1.17 3.666-1.682 5.52-.043.157.18.21.237.066a172 172 0 0 1 4.01-9.438c.657-1.417 1.232-2.92 2.028-4.265a3.7 3.7 0 0 1 1.278-1.37 16 16 0 0 1 1.926-.84c2.777-1.186 4.321-4.18 5.973-6.542l5.838-8.348c1.94-2.776 3.907-5.536 5.814-8.336a48 48 0 0 0 4.666-8.172c1.265-2.979 2.098-6.111 3.22-9.142a60 60 0 0 1 4.225-8.699c1.855-3.273 3.713-6.54 5.53-9.834q1.374-2.49 2.735-4.988c.95-1.733 1.945-3.462 2.738-5.272a.1.1 0 0 0-.172-.1c-.823 1.091-1.58 2.238-2.32 3.4.239-.7.46-1.404.648-2.116a45 45 0 0 0 1.1-5.585c.232-1.74.336-3.497.656-5.223a10.5 10.5 0 0 1 1.89-4.692 14.2 14.2 0 0 1 3.31-2.82 9.2 9.2 0 0 0-2.235 2.875 14.63 14.63 0 0 0-1.205 7.978 27.2 27.2 0 0 0 4.053 11.163q-.04 1.203-.097 2.406c-.046.995-.128 1.987-.161 2.98a23 23 0 0 0-1.506 3.322q.01-1.72.028-3.44.036-3.798.184-7.594c0-.015-.022-.015-.023 0q-.244 3.795-.38 7.595a171 171 0 0 0-.081 3.737l-.009.503a23.5 23.5 0 0 0-1.048 8.34.145.145 0 0 0 .29 0 31.4 31.4 0 0 1 .907-4.935.05.05 0 0 0 .047-.046l.013-.169a30 30 0 0 1 1.049-3.185 31 31 0 0 1 1.78-3.779c.098-.173.191-.349.287-.523.007.047.003.096.012.143.012.06.098.052.113 0a3 3 0 0 0 .1-.555l.505-.922c.088-.16.184-.321.277-.484q.68.9 1.395 1.756a68.4 68.4 0 0 0 13.406 11.785q-.202 3.168-.38 6.337a52.6 52.6 0 0 0-.227 7.465c.005.053.09.074.1.014a52 52 0 0 0 .41-7.355q.095-3.207.165-6.414 1.02.718 2.05 1.42l.016.012a361 361 0 0 1-.173 5.045c-.041 1.064-.101 2.127-.16 3.19-.036.666-.089 1.35-.065 2.026a10 10 0 0 0-1.472 1.497c-1.478 1.913-2.003 4.276-2.607 6.564a44.7 44.7 0 0 1-2.676 7.283 64 64 0 0 1-4.048 7.535c-.045.07.062.156.116.09a37.4 37.4 0 0 0 4.254-6.169 49 49 0 0 0 2.997-6.969c.804-2.294 1.263-4.85 2.568-6.93a14.2 14.2 0 0 1 4.532-3.933q.562-.37 1.107-.763c.026-.006.057-.004.07-.034l.007-.021a11 11 0 0 0 1.413-1.204 8 8 0 0 0 1.642-2.158c.5.339 1.005.67 1.502 1.013a37.6 37.6 0 0 1 4.425 3.347c1.284 1.2 2.366 2.591 3.533 3.9 2.47 2.768 5.248 5.252 7.952 7.788 1.7 1.594 3.416 3.17 5.129 4.749.241 1.377.458 2.76.617 4.148q.165 1.43.281 2.866c.049.594.056 1.212.128 1.814-.013.046-.03.091-.041.137a2.04 2.04 0 0 0-.103 1.391c-1.955 1.33-3.896 2.682-5.747 4.155-1.87 1.489-3.663 3.072-5.441 4.67-1.989 1.787-3.938 3.61-6.008 5.303a59 59 0 0 1-6.603 4.887.031.031 0 0 0 .032.054 37.6 37.6 0 0 0 6.092-3.473c1.913-1.38 3.747-2.865 5.577-4.351 3.75-3.045 7.404-6.155 11.38-8.908 4.01-2.778 8.167-5.365 11.936-8.474 1.88-1.55 3.578-3.285 5.367-4.934a24.7 24.7 0 0 1 4.889-3.548 6.4 6.4 0 0 0 .152 1.052 18 18 0 0 1 .416 1.866c.198 1.25.253 2.531.556 3.763a6.67 6.67 0 0 0 1.527 3.35 31.5 31.5 0 0 1 3.209 3.71c.013.02.048.015.047-.012-.089-2.103-1.22-4.025-1.86-5.99a7.3 7.3 0 0 1-.546-2.738 5.6 5.6 0 0 0-.315-1.468 7 7 0 0 1-.09-1.753c.008-.139-.219-.172-.245-.033a12 12 0 0 0-.188 2.657 1.5 1.5 0 0 0 .256.881 8 8 0 0 1 .464 1.239c.67 1.802 1.408 3.574 1.972 5.415.132.432.224.872.344 1.306a2 2 0 0 0 .097.294c-.04.018-.345-.4-.342-.397-.175-.222-.34-.453-.509-.68a23 23 0 0 1-1.761-2.71 24 24 0 0 1-1.418-2.545 8.1 8.1 0 0 1-.358-2.83 29 29 0 0 0-.065-2.917 2.5 2.5 0 0 0-.447-1.314 8 8 0 0 0-.34-.446c.107-.055.207-.118.316-.17a29.6 29.6 0 0 1 6.753-2.22c.445-.083.89-.168 1.333-.271 2.407-.449 4.85-.743 7.247-1.051.116-.015.125-.19 0-.188-1.143.026-2.294.059-3.445.116a58 58 0 0 0 8.862-4.158c4.954-2.789 9.632-6.067 14.37-9.2l5.9-3.904c-.067.264-.11.482-.127.603-.107.772-.126 1.558-.19 2.335a7.4 7.4 0 0 0 .061 2.475.02.02 0 0 0 .038-.01 6.4 6.4 0 0 1 .041-2.203 13 13 0 0 1 .407-2.094 15 15 0 0 1 .585-1.645l8.68-5.744a33 33 0 0 1 3.474-2.103 8 8 0 0 0-.483 1.439 11.73 11.73 0 0 0 .45 6.218 25 25 0 0 0 1.181 3.065q.16.347.336.685a3 3 0 0 1 .206.383 1.5 1.5 0 0 1 .001.973c-.098.18-.44.379-.6.513q-.32.268-.649.525a22.2 22.2 0 0 1-6.063 3.274 12.7 12.7 0 0 1-3.913.971 3.3 3.3 0 0 1-1.833-.424c-.23-.14-.415-.348-.644-.484-.4-.24-.675-.377-.816-.881-.006-.02-.04-.018-.039.005a6.2 6.2 0 0 0 .21 1.277 1.9 1.9 0 0 0 1 .938 5 5 0 0 0 3.269.306 18.5 18.5 0 0 0 6.572-2.791 25 25 0 0 0 2.719-2.023c.632-.544 1.516-1.099 1.082-2.022a18.4 18.4 0 0 1-1.555-3.628 15.2 15.2 0 0 1-.297-3.824 11.7 11.7 0 0 1 .518-3.65 5.2 5.2 0 0 1 .76-1.438 8.5 8.5 0 0 1 2.378-.509 7.54 7.54 0 0 1 5.905 2.624c3.55 3.833 3.706 9.643 2.238 14.399-1.586 5.137-5.102 9.412-8.895 13.107a33.3 33.3 0 0 1-6.497 5.153c-2.453 1.414-5.066 2.5-7.405 4.113a73 73 0 0 0-6.5 5.287c-2.035 1.783-4.059 3.579-6.1 5.354a154 154 0 0 1-12.671 10.136 79 79 0 0 1-6.813 4.291q-1.707.951-3.468 1.799a20 20 0 0 0-3.247 1.712 9.6 9.6 0 0 0 .893-2.78.059.059 0 0 0-.107-.045c-1.36 1.876-2.528 3.857-4.065 5.61-1.648 1.879-3.173 3.857-4.71 5.827-1.577 2.021-3.142 4.051-4.729 6.065a45 45 0 0 1-4.169 4.866 15 15 0 0 1-2.593 2.008c-.473.284-.994.5-1.45.813-.204.14-.398.292-.595.443a.04.04 0 0 0-.046.033v.001a8 8 0 0 1-.683.484c-.126.078-.123.315.044.343.186.031.363.05.54.07q-.147 1.278-.282 2.558a43.5 43.5 0 0 1-4.041 7.095 35 35 0 0 1-.814 1.095c.634-3.447.897-6.98 1.277-10.456.004-.034-.056-.043-.061-.008-.557 3.594-1.258 7.216-1.518 10.851a100 100 0 0 1-7.34 7.903c-5.938 6.054-11.748 12.243-17.962 18.02a109.3 109.3 0 0 1-19.31 14.748 64.3 64.3 0 0 1-21.988 8.115 87.6 87.6 0 0 1-13.169.996c-4.365.036-8.773-.1-13.13-.346q-.12-.006-.243-.01a48 48 0 0 0 5.296-1.863c.113-.046.116-.25-.032-.236-1.795.174-3.596.38-5.371.704-1.791.326-3.563.75-5.354 1.082a60 60 0 0 1-10.954 1.12A53.4 53.4 0 0 1 81.9 311.64c-3.556-.741-7.127-1.481-10.636-2.42-3.964-1.06-7.854-2.413-11.83-3.421-.03-.008-.052.038-.022.053a76 76 0 0 0 10.217 3.842c1.216.391 2.437.784 3.66 1.17q-.975-.128-1.947-.283c-2.526-.405-5.076-.658-7.604-1.053-5.09-.795-10.155-1.733-15.249-2.499-5.091-.765-10.223-1.551-15.356-1.972-5.154-.422-10.306-.833-15.472-1.071a398 398 0 0 0-17.487-.424.053.053 0 0 0 0 .105 382 382 0 0 1 30.997 2.576c5.156.645 10.317 1.252 15.46 2.003 5.102.746 10.175 1.656 15.264 2.482 2.783.452 5.603.955 8.42 1.128a53 53 0 0 0 6.319.013c1.221.347 2.447.676 3.683.95a60 60 0 0 0 10.996 1.527 56.6 56.6 0 0 0 11.008-.84 86 86 0 0 0 4.74-.918c1.829.402 3.647.821 5.51 1.056a66 66 0 0 0 6.69.526 100 100 0 0 0 13.41-.548 60 60 0 0 0 12.314-2.63 67.7 67.7 0 0 0 10.897-4.767 104.8 104.8 0 0 0 19.811-14.38c6.395-5.733 12.32-11.962 18.297-18.123 3.041-3.135 6.238-6.204 8.976-9.613a42.5 42.5 0 0 0 6.1-10.288c.352-.843.633-1.716.9-2.589.036-.015.07-.02.105-.038a11.4 11.4 0 0 0 2.564-1.751 33.7 33.7 0 0 0 4.237-4.735q2.525-3.218 5.072-6.418c1.636-2.062 3.372-4.09 4.852-6.267.402-.592.825-1.205 1.238-1.835a22 22 0 0 1 2.647-1.59c.49-.277.994-.525 1.5-.77 4.053 2.755 7.133 6.77 9.868 10.777 3.352 4.91 6.612 9.88 10.006 14.761q5.186 7.459 10.573 14.776a161 161 0 0 0 10.78 13.298 78.6 78.6 0 0 0 26.036 18.914 75.7 75.7 0 0 0 31.21 6.505 76.8 76.8 0 0 0 16.576-1.978q1.986-.459 3.941-1.03c2.26.01 4.53-.113 6.781-.165 2.924-.067 5.847-.147 8.772-.145 5.664.004 11.418.614 17.06-.066 5.66-.682 11.042-2.745 16.41-4.562l16.61-5.624 9.307-3.15c1.57-.532 3.144-1.057 4.712-1.596a26 26 0 0 0 4.387-2.048c.227-.13.06-.422-.165-.391a25 25 0 0 0-4.382.924c-1.34.438-2.67.904-4.005 1.356l-8.365 2.832L401.8 296.8c-5.359 1.814-10.734 3.94-16.323 4.931-5.606.993-11.368.383-17.022.33-3.212-.03-6.431-.008-9.639.158-1.122.058-2.257.128-3.392.212a48.5 48.5 0 0 0 7.226-3.393c1.19-.689 2.401-1.34 3.578-2.053a.111.111 0 0 0-.112-.193 94 94 0 0 1-15.62 5.723 75.2 75.2 0 0 1-16.302 2.75 74.2 74.2 0 0 1-31.37-5.09 75.8 75.8 0 0 1-26.376-17.681c-8.088-8.293-14.744-17.945-21.38-27.4q-5.241-7.47-10.282-15.078a77 77 0 0 0-4.797-6.662 86 86 0 0 0-.923-9.157q1.083-.646 2.143-1.328c.137 2.149.426 4.294.692 6.428.294 2.357.589 4.702 1.015 7.04a.051.051 0 0 0 .1-.014c-.166-2.437-.469-4.85-.77-7.272-.261-2.091-.506-4.197-.896-6.27a126 126 0 0 0 13.162-10.027c2.605-2.22 5.143-4.537 7.727-6.796a13.5 13.5 0 0 0 2.273 2.106c.528.404 1.048.834 1.596 1.21a1.94 1.94 0 0 1 .65.637c.182.272.369.538.571.795a33.8 33.8 0 0 0 5.832 5.737c.09.07.213-.042.128-.128a34 34 0 0 1-4.933-6.527c-.141-.236-.276-.478-.425-.706a3.2 3.2 0 0 0 1.465.514 12.7 12.7 0 0 0 3.314.351.075.075 0 0 0 .02-.146 11 11 0 0 0-2.743-.628c-.449-.052-.9-.078-1.349-.13-.298-.035-.747-.143-.836-.477a.02.02 0 0 0-.037 0 .53.53 0 0 0 .043.337 2 2 0 0 0-.662-.614l-.19-.102c-.032-.92-.167-1.853-.263-2.751a70 70 0 0 0-.368-2.905c.324-.262.64-.536.969-.792a28 28 0 0 1 1.574-1.124c.058 1.165.115 2.33.19 3.494.095 1.493.158 2.992.367 4.474.005.036.062.026.062-.008.009-1.521-.135-3.04-.243-4.556-.082-1.159-.182-2.315-.28-3.473.578-.385 1.17-.744 1.768-1.094.068 1.824.174 3.659.397 5.463.004.034.055.037.054 0-.032-1.832-.175-3.682-.366-5.512a81 81 0 0 1 3.864-2.085 32.2 32.2 0 0 0 6.983-4.853c3.983-3.608 7.736-7.82 9.888-12.8a22.8 22.8 0 0 0 1.545-5.204c.356.902.714 1.803 1.06 2.709.359.938.716 1.877 1.091 2.81a12.7 12.7 0 0 0 1.205 2.544 15.3 15.3 0 0 0 1.953 2.121c.786.768 1.583 1.525 2.362 2.3 1.516 1.507 3.01 3.033 4.52 4.544 1.742 1.743 3.425 3.55 5.19 5.27.069.066.165-.033.104-.104-2.752-3.222-5.651-6.324-8.447-9.508-1.352-1.539-2.75-3.069-3.965-4.72a25 25 0 0 1-1.664-2.38l-.021-.04c.025.018.066.008.057-.032-1.138-5.12-2.44-10.199-3.49-15.338-.014-.07-.118-.04-.106.029a124 124 0 0 0 3.504 15.272c-.44-.789-.805-1.617-1.182-2.437q-.603-1.314-1.192-2.635a24.5 24.5 0 0 0-.55-3.182c-.049-.224-.103-.447-.154-.67a15.1 15.1 0 0 0-1.655-6.932 11.25 11.25 0 0 0-4.733-4.847 8 8 0 0 0-1.432-.545 8.6 8.6 0 0 0-3.445-2.543c-2.003-.947-4.116-1.636-6.095-2.641a38 38 0 0 1-1.514-.818 15 15 0 0 1-1.485-1.083c-.954-.706-1.957-1.34-2.923-2.03-.423-.301-.834-.617-1.247-.93-1.28-4.762-2.79-9.472-4.259-14.178l1.421-1.696a37 37 0 0 0 4.022 4.205q2.763 2.545 5.669 4.93a139 139 0 0 0 12.068 8.892q3.14 2.062 6.39 3.952c1.987 1.156 4.567 2.097 5.58 4.318a16.3 16.3 0 0 1 .909 3.25q.43 1.932.92 3.851.98 3.837 2.192 7.61a87.2 87.2 0 0 0 7.1 16.197c.066.118.277.037.225-.095a247 247 0 0 1-3.451-9.298c.847 1.25 1.72 2.481 2.586 3.718 1.833 2.62 3.69 5.226 5.54 7.835 1.782 2.51 3.515 5.059 5.37 7.516a24.4 24.4 0 0 0 2.848 3.258 22 22 0 0 0 3.324 2.466c2.377 1.483 4.797 2.846 7.026 4.557a56 56 0 0 1 6.101 5.623 20.6 20.6 0 0 0 2.91 2.59c1.081.759 2.415 1.115 3.45 1.928a7.2 7.2 0 0 1 2 3.098 69 69 0 0 1 1.5 4.102 66.1 66.1 0 0 1 3.363 19.85.129.129 0 0 0 .258 0 61 61 0 0 0-1.644-17.852 58 58 0 0 0-1.285-4.367 25 25 0 0 0-1.487-3.747 8 8 0 0 0-.391-.652 4 4 0 0 1 .927.254 7.7 7.7 0 0 1 2.696 2.118c1.81 2.12 2.977 4.83 4.21 7.303a156 156 0 0 1 7.432 17.452c1.196 3.371 2.238 6.791 3.18 10.241a.132.132 0 0 0 .254-.07 122.4 122.4 0 0 0-5.389-18.571 129 129 0 0 0-3.762-8.856 42.6 42.6 0 0 0-4.26-7.753 12 12 0 0 0-1.374-1.53.4.4 0 0 0 .118-.033c.33-.209.554-.533.894-.743a3 3 0 0 1 1.277-.443 3.7 3.7 0 0 1 2.69.984 16.5 16.5 0 0 1 2.327 2.569q1.125 1.426 2.168 2.914a98 98 0 0 1 7.497 12.545c1.266 2.53 2.31 5.138 3.37 7.755.054.133.262.085.221-.06a70 70 0 0 0-2.687-7.603 73 73 0 0 0-3.376-7.236 66 66 0 0 0-4.26-6.856q-1.167-1.624-2.424-3.183a15 15 0 0 0-1.605-1.727c1.377-.302 2.66-.896 4.047-1.211 1.398-.318 2.817-.537 4.231-.766a43.2 43.2 0 0 0 9.05-2.476 52.3 52.3 0 0 0 8.514-4.356c2.84-1.785 5.55-3.766 8.39-5.553 9.632-6.063 20.409-9.93 30.418-15.284a49 49 0 0 0 8.03-4.978 70 70 0 0 0 6.958-6.372.082.082 0 0 0-.117-.116M207.74 253.456q.087-.961.142-1.924a6 6 0 0 0 .67.02 55 55 0 0 1-.812 1.904m32.1-20.278a27 27 0 0 0-4.743-4.525 20 20 0 0 0-2.01-1.265c.352-.166.704-.33 1.053-.502a64 64 0 0 0 2.04-1.05c.013.1.027.204.036.3.04.407.094.812.15 1.217.057.426.115.85.194 1.273a6.4 6.4 0 0 0 .302 1.245.055.055 0 0 0 .107-.015 7 7 0 0 0-.114-1.27c-.053-.407-.12-.81-.185-1.215-.067-.423-.13-.847-.204-1.269-.023-.125-.04-.26-.057-.392q1.266-.685 2.504-1.42a74 74 0 0 0 .927 8.888m23.056-27.793c.448-.389.902-.77 1.354-1.154.029.315.067.629.102.94a14 14 0 0 0 .252 1.523c-.572-.433-1.137-.876-1.708-1.31m3.458.2c.064.782.109 1.596.215 2.393a12 12 0 0 1-1.15-.681c-.227-.157-.444-.327-.664-.492a24 24 0 0 0-.185-1.664c-.048-.354-.087-.712-.134-1.068.57-.482 1.154-.945 1.732-1.415a75 75 0 0 0 .186 2.927M309.133 4.639a9 9 0 0 1 2.825 5.004c.88 4.04-.105 8.5-1.384 12.353-2.6 7.836-7.665 14.621-13.04 20.774-1.392 1.592-2.783 3.21-4.322 4.663a23.5 23.5 0 0 1-5.494 3.608 29.95 29.95 0 0 0-9.374 8.113c-2.94 3.643-5.74 7.405-8.64 11.081q-4.51 5.718-9.085 11.385-9.126 11.34-18.278 22.66-1.069 1.325-2.099 2.678a17 17 0 0 0-1.059 1.508c-.241.4-.464.867-.721 1.284a468 468 0 0 1-5.4 4.128c-.129-.923-.41-1.844-.607-2.738q-.44-2.012-.837-4.034a610 610 0 0 1-1.522-7.962c-.01-.06-.115-.047-.107.015.308 2.66.688 5.311 1.189 7.943q.374 1.965.79 3.921a24 24 0 0 0 .739 3.127c-.302.228-.599.461-.9.688-2.56-1.91-5.23-3.663-7.774-5.6q-4.094-3.117-7.88-6.618c-2.564-2.365-4.894-4.956-7.416-7.361a21.8 21.8 0 0 0-3.97-3.082l-.103-.056a.7.7 0 0 0 .198-.11 50.3 50.3 0 0 0 9.17-9.494c1.245-1.79 2.332-3.684 3.586-5.467a23.5 23.5 0 0 1 3.254-3.717 4.8 4.8 0 0 0 .335 1.785c.244.915.692 1.745.941 2.661a23 23 0 0 0 2.147 5.035 19.2 19.2 0 0 0 2.454 3.727 6.14 6.14 0 0 0 3.367 2.165.345.345 0 0 0 .332-.572 35 35 0 0 1-2.478-2.807 31 31 0 0 1-1.925-3.149 21 21 0 0 1-1.491-3.454c-.378-1.179-.586-2.386-.914-3.574a.34.34 0 0 0-.656.18 19.5 19.5 0 0 0 1.248 3.416 57 57 0 0 0 1.646 3.53 31 31 0 0 0 1.947 3.258c.537.785.99 1.589 1.542 2.342a4.2 4.2 0 0 1-1.216-.458 6.8 6.8 0 0 1-1.517-1.395 23 23 0 0 1-2.402-3.693 19.5 19.5 0 0 1-2.014-4.813c-.214-.85-.159-1.728-.337-2.585-.11-.53-.183-1.527-.667-1.9.26-.233.517-.47.789-.693 1.673-1.381 3.483-2.584 5.261-3.823q2.749-1.916 5.433-3.923 5.396-4.036 10.522-8.419 5.091-4.358 9.886-9.047c3.164-3.094 6.144-6.35 9.197-9.551a41 41 0 0 1 4.106-3.84c.063.37.174.734.247 1.106a17 17 0 0 1 .197 2.215 9.4 9.4 0 0 0 .864 3.376 25 25 0 0 0 1.992 3.324q.582.87 1.182 1.73a2.9 2.9 0 0 0 1.001.981.214.214 0 0 0 .291-.29 1.024 1.024 0 0 1 .477-1.504.16.16 0 0 0 .094-.23 26 26 0 0 0-1.477-2.484 23.3 23.3 0 0 1-2.377-5.587c-.145-.525-.115-1.446-.71-1.669-.105-.04-.156.115-.073.171.395.269.468.9.586 1.322.12.428.254.852.389 1.276a34 34 0 0 0 .952 2.607c.313.767.647 1.523 1.02 2.262a10 10 0 0 0 1.318 2.142 1.49 1.49 0 0 0-.76 1.237 7.5 7.5 0 0 1-.749-1.007c-.356-.52-.708-1.042-1.076-1.554a26 26 0 0 1-2.106-3.079 4.9 4.9 0 0 1-.586-1.965c-.043-.673.147-1.341.164-2.014a4.7 4.7 0 0 0-.517-2.634c.134-.103.262-.213.398-.312a52 52 0 0 1 5.726-3.343c4.042-2.221 7.218-5.467 10.52-8.631l9.129-8.75a10.4 10.4 0 0 0 .696 3.633c.554 1.629 1.666 3.652 3.658 3.528a6.5 6.5 0 0 0 3.172-1.443 27 27 0 0 0 3.007-2.211c.665-.628 1.715-1.522 1.448-2.563a4.1 4.1 0 0 0-.858-1.323 7.6 7.6 0 0 1-.847-1.505 11.5 11.5 0 0 1-.96-3.915 12.5 12.5 0 0 1 .2-2.769 6.8 6.8 0 0 1 2.119-.788 6.12 6.12 0 0 1 4.974 1.563m-93.274 71.335c.067.266.12.54.198.805-.318.467-.62.946-.926 1.421q-.085-.224-.163-.441-.4-1.147-.822-2.286c-.328-.886-.655-1.785-1.019-2.665.423.298.836.607 1.267.894.285.19.573.39.866.58.073.17.158.333.221.506a12 12 0 0 1 .378 1.186m-.16-1.429c.1.058.194.125.295.176.042.021.183.093.331.157-.01.298.303.543.664.604-.08.104-.165.2-.243.306-.151.207-.293.421-.44.632a7 7 0 0 0-.125-.534 8 8 0 0 0-.416-1.218c-.019-.043-.046-.08-.065-.123m85.573-66.67a9.3 9.3 0 0 0 .863 2.73c.45.899 1.146 1.616 1.634 2.478.412.725.026 1.19-.473 1.714-.4.42-.813.823-1.202 1.251a14.2 14.2 0 0 1-2.671 2.315c-1.054.698-2.383 1.4-3.656.868a3.3 3.3 0 0 1-1.75-2.304 12.4 12.4 0 0 1-.43-5.514l.504-.484c1.703-1.632 3.383-3.29 5.115-4.89a18 18 0 0 1 2.11-1.724 10 10 0 0 0-.044 3.56M219.257 61c1.59-1.487 3.217-2.946 4.723-4.52a30 30 0 0 0 2.053-2.388 16.5 16.5 0 0 1 1.956-2.272c.03-.027.066-.047.097-.073a9.4 9.4 0 0 0 .787 1.707c.399.807.84 1.591 1.256 2.39s.855 1.593 1.315 2.37c.462.78.878 1.575 1.32 2.365a.23.23 0 0 0 .204.117 7.4 7.4 0 0 1 2.023-.052c.115.017.258-.103.172-.224a48 48 0 0 1-2.567-4.11 32 32 0 0 1-1.12-2.147 19 19 0 0 0-1.013-2.192.047.047 0 0 0-.086.036 9.4 9.4 0 0 0 .823 2.119q.515 1.146 1.088 2.265a33 33 0 0 0 2.39 3.855 3.6 3.6 0 0 0-1.613-.041 16 16 0 0 1-1.606-2.197 28 28 0 0 1-1.202-2.24 22 22 0 0 1-.97-2.49 11 11 0 0 0-.658-1.945 30 30 0 0 1 4.394-2.432q2.695-1.378 5.313-2.898a114 114 0 0 0 9.951-6.495 117 117 0 0 0 9.292-7.529q2.25-2.023 4.392-4.164c1.396-1.397 2.691-2.907 4.13-4.26.089-.083.182-.156.274-.235a20 20 0 0 0 .701 2.713.047.047 0 0 0 .09-.025c-.168-.98-.266-1.98-.485-2.951a16.7 16.7 0 0 1 4.572-2.306 37 37 0 0 0 4.973-2.309 70 70 0 0 0 8.84-6.154c2.846-2.235 5.643-4.54 8.64-6.576a45 45 0 0 1 4.552-2.742c1.312-.679 2.845-1.618 4.374-1.53a1.56 1.56 0 0 1 .891.262 10.05 10.05 0 0 0-3.76 1.914 65 65 0 0 0-5.014 4.626l-5.394 5.169c-3.584 3.434-7.138 6.905-10.759 10.3a31 31 0 0 1-5.39 4.204c-1.95 1.15-4.02 2.087-5.913 3.335-3.703 2.44-6.57 5.876-9.585 9.075q-4.714 5.001-9.761 9.673a200 200 0 0 1-21.418 17.26 45.4 45.4 0 0 0-8.673 7.147 1 1 0 0 0-.055-.155c-.288-.534-.893-.7-1.375-.996a53.5 53.5 0 0 1-5.966-4.304c3.056-2.502 5.914-5.257 8.797-7.95m-9.96 8.898a60 60 0 0 0 3.444 2.638c.367 1.037.78 2.062 1.151 3.094q.397 1.102.776 2.212c.079.231.152.476.227.72-.594.93-1.185 1.862-1.803 2.776-.076.113-.16.22-.238.333-.336-1.094-.752-2.168-1.12-3.25-.211-.62-.443-1.239-.597-1.877-.136-.565-.133-1.147-.294-1.704-.342-1.179-.793-2.338-1.193-3.498-.156-.45-.308-.902-.466-1.352zM106.92 31.218c-3.113-4.133-6.138-9.21-5.05-14.596a9.24 9.24 0 0 1 3.398-5.726 8.67 8.67 0 0 1 5.283-1.528 4.3 4.3 0 0 1 1.322 1.265 5.57 5.57 0 0 1 .79 3.083 10.8 10.8 0 0 1-1.018 3.775 1.66 1.66 0 0 0 .336 1.99 5.6 5.6 0 0 0 2.347 1.204c1.119.354 2.169.89 3.285 1.245a11 11 0 0 0 1.48.362l-.018.003c-.023.003-.014.036.006.038q.359.035.725.035a4.1 4.1 0 0 0 1.618-.204c.06-.016.121-.026.18-.044a2.87 2.87 0 0 0 1.851-1.748c.744-1.89-.417-3.797-1.605-5.194-.015-.017-.042.005-.03.024a12 12 0 0 1 .684 1.361l-.002.004c.161.509.334 1.061.458 1.62a3.6 3.6 0 0 1-.251 1.867 3.56 3.56 0 0 1-1.48 1.564 5.6 5.6 0 0 1-1.947.642 13 13 0 0 1-3.167-1.233c-.889-.438-1.734-.948-2.614-1.402a2.2 2.2 0 0 1-1.502-2.244 24 24 0 0 1 .784-3.058 6.8 6.8 0 0 0 .17-2.61 4.64 4.64 0 0 0-1.182-2.256q.38.043.754.11c5.594 1.05 9.677 5.282 14.307 8.238 4.722 3.015 10.322 4.467 14.79 7.903 2.295 1.765 4.254 3.923 6.422 5.835a64.5 64.5 0 0 0 6.709 5.142 123 123 0 0 0 14.794 8.242c5.617 2.74 11.274 5.403 16.914 8.098 2.875 1.373 5.768 2.715 8.624 4.127a18.6 18.6 0 0 1 3.695 2.254 26 26 0 0 1 2.94 3.035 64 64 0 0 0 2.285 2.49c.758 2.229 1.514 4.459 2.285 6.683.933 2.69 1.768 5.442 2.844 8.078.013.034.067.021.056-.016-.786-2.734-1.835-5.41-2.768-8.098-.757-2.177-1.528-4.35-2.296-6.523a66 66 0 0 0 4.135 3.938 9 9 0 0 0 .238.88c.17.55.361 1.092.541 1.637.387 1.17.765 2.342 1.171 3.504a15 15 0 0 0 .704 1.363 19 19 0 0 1 .769 2.058c.37 1.106.695 2.238 1.102 3.332a39 39 0 0 1-3.991 4.762c-1.548 1.589-3.184 3.094-4.786 4.629a.53.53 0 0 0-.167.517 34 34 0 0 0-3.652-1.581 101 101 0 0 1-9.88-4.127c-3.164-1.593-6.227-3.38-9.249-5.228-6.003-3.67-12.265-7.276-17.472-12.054-2.575-2.365-4.86-5.042-7.687-7.123-2.795-2.057-6.012-3.42-9.058-5.048a79 79 0 0 1-9.237-5.787c-2.767-2.013-5.327-4.336-8.262-6.11a15.14 15.14 0 0 0-9.29-2.473c-.144.015-.282.044-.423.067-.26-.063-.519-.135-.783-.181-.659-.115-1.323-.199-1.986-.285a75 75 0 0 1-9.943-10.528m47.767 69.461a54 54 0 0 1-5.999-5.061c-.925-.933-1.777-1.939-2.653-2.918-.044-.049-.082-.102-.125-.151a.45.45 0 0 0-.234-.485l-.342-.21a18.4 18.4 0 0 1-1.699-2.364.112.112 0 0 0-.203.086c.152.483.326.955.51 1.421a92.5 92.5 0 0 1-13.196-9.702 76 76 0 0 1-12.071-13.869c-3.311-4.906-7.17-11.013-5.615-17.199a9.3 9.3 0 0 1 3.14-5.08l.056-.017a8 8 0 0 1 1.028-.345 4.8 4.8 0 0 1 1.062-.13 1.6 1.6 0 0 0 .5-.025 1.7 1.7 0 0 0 .465-.265 8.7 8.7 0 0 1 1.286-.792 11 11 0 0 1 2.652.146q.119.06.233.13a4.5 4.5 0 0 1 1.007.873 5.25 5.25 0 0 1 1.166 2.91 10.2 10.2 0 0 1-.124 3.395c-.223.983-.538 2.738-1.53 3.172-.26.114-.22.45-.08.627a14 14 0 0 0 3.947 2.96c.727.428 1.47.832 2.23 1.198a6.6 6.6 0 0 0 2.026.727c2.447.304 5.285-2.062 3.921-4.601a.08.08 0 0 0-.147.04 4.97 4.97 0 0 1-1.105 3.459 3.43 3.43 0 0 1-4.04.478 17.7 17.7 0 0 1-3.362-2.295c-.938-.778-1.797-1.698-2.775-2.428a5.1 5.1 0 0 1 .649-1.77 13 13 0 0 0 .606-1.704 8.7 8.7 0 0 0 .44-3.796 5.7 5.7 0 0 0-1.383-2.938l-.024-.025a15 15 0 0 1 2.174.874c2.98 1.487 5.505 3.7 8.128 5.716a79 79 0 0 0 8.876 5.921c2.958 1.697 6.102 3.058 9.024 4.815a41.5 41.5 0 0 1 7.67 6.55c4.913 4.887 10.747 8.526 16.592 12.178 5.892 3.681 11.875 7.284 18.362 9.833a77 77 0 0 1 7.43 2.982 11.8 11.8 0 0 1-.26 3.926c-.265 1.784-.453 3.597-.774 5.37a51 51 0 0 1-1.296 5.251 53 53 0 0 1-.782 2.466q-.232.666-.476 1.328a12 12 0 0 1-.704 1.433.283.283 0 0 0 .24.419c1.193.128 2.1-.88 2.624-1.835a31.6 31.6 0 0 0 1.796-4.167 29.6 29.6 0 0 0 1.291-4.473q.223-1.108.367-2.23a6.5 6.5 0 0 0 .08-2.226.053.053 0 0 0-.102 0 8.5 8.5 0 0 0-.242 1.785q-.114 1.14-.332 2.263a28.4 28.4 0 0 1-1.071 3.96 20 20 0 0 1-1.761 3.768c-.56.924-1.206 2.186-2.314 2.518a3 3 0 0 1 .037-.267 7 7 0 0 1 .277-.774q.254-.72.493-1.446a104 104 0 0 0 .853-2.69c.56-1.878 1.019-3.782 1.505-5.68.233-.909.508-1.804.673-2.73.17-.954.283-1.923.394-2.886a8.9 8.9 0 0 0 .064-2.775c.41.231.815.474 1.208.74 2.755 1.867 4.907 4.52 7.255 6.847a112 112 0 0 0 15.606 12.884c.973.666 1.97 1.256 2.992 1.815-2.572 1.931-5.148 3.854-7.705 5.794-3.754 2.849-7.772 5.57-10.881 9.151-1.577 1.815-2.905 3.825-4.295 5.78-.12.169-.25.329-.37.496-.118-.51-.306-1.008-.465-1.5q-.347-1.07-.717-2.132-.741-2.128-1.613-4.203c-.011-.027-.056-.016-.045.013q.777 2.106 1.498 4.234.361 1.065.699 2.137c.168.535.306 1.095.517 1.62a69 69 0 0 1-3.694 4.658 18.5 18.5 0 0 0-2.503-2.366 284 284 0 0 1-2.937-2.514q-3-2.615-5.881-5.364-2.884-2.741-5.597-5.655c-1.793-1.933-3.408-4.063-5.299-5.901a42.5 42.5 0 0 0-6.48-4.606q-3.528-2.323-6.972-4.772c-4.509-3.189-8.957-6.47-13.374-9.785m46.673 40.3c.247.185.493.37.747.541a3.8 3.8 0 0 0 .101 1.784l-.006.03q-.247.274-.497.545a2.4 2.4 0 0 1-.223-.38c.008-.213.03-.424.03-.635a10.6 10.6 0 0 0-.152-1.885m-1.5 1.977a20.4 20.4 0 0 0-.215-3.334c.168.136.331.28.501.415q.355.283.709.559c0 .737.018 1.475.006 2.213q-.012.709-.08 1.415l-.07.693c-.282.296-.57.585-.854.88.03-.331.026-.67.025-.983q-.002-.93-.023-1.858m-.45 3.302c-.186.19-.365.385-.554.57a.48.48 0 0 0-.144.492l-.444-.304c0-.3-.003-.6 0-.894q.015-1.521 0-3.043c-.017-1.556-.007-3.18-.182-4.748.492.407.978.819 1.473 1.22a19.7 19.7 0 0 0-.226 3.405q-.02.93-.023 1.858a6.3 6.3 0 0 0 .1 1.444m-19.241-18.765q-.679.591-1.386 1.15c.022-.43.024-.864.035-1.284.025-.976.047-1.953.041-2.93a94 94 0 0 0-.177-5.101l.176.126a17 17 0 0 1 1.414 1.23c.033.978.054 1.956.012 2.934a49 49 0 0 1-.124 1.984 5.3 5.3 0 0 0 .009 1.89m-.63 2.325a31 31 0 0 0 2.899-2.59c.463-.479.914-.972 1.33-1.492a7 7 0 0 0 .491-.636l.143.164q2.653 2.964 5.505 5.742a130 130 0 0 0 6.071 5.546c-.007 1.877.015 3.753.052 5.63q.03 1.53.08 3.059.006.173.008.35a45 45 0 0 0-3.184-1.908c-3.254-1.743-6.716-3.059-10.012-4.716a70 70 0 0 1-8.97-5.351c.262-.137.512-.316.764-.466.572-.34 1.14-.686 1.696-1.051q1.62-1.063 3.128-2.28m1.301-6.2a20.5 20.5 0 0 0-.26-2.64c.67.665 1.304 1.368 1.924 2.085-.048.462-.094.926-.12 1.39a10 10 0 0 0-.05 1.08q-.41.386-.826.765-.496.448-.996.888a5 5 0 0 0 .28-1.507 17 17 0 0 0 .048-2.061m1.96-.21.825.96-.064.033a8 8 0 0 0-.66.609l-.014.013c.006-.202.003-.404-.001-.604a9 9 0 0 0-.086-1.011m13.266 13.22c.192.166.378.339.571.503.415.354.84.696 1.26 1.044-.07 1.664.03 3.361.037 5.017q.006 1.465-.012 2.93-.006.32-.02.644c-.42-.288-.851-.56-1.277-.841q-.021-.347-.038-.684-.067-1.53-.152-3.06a246 246 0 0 0-.37-5.552m-34.844-15.317a58 58 0 0 0 4.197-4.511 15.2 15.2 0 0 0 2.96-4.392q1.759 1.23 3.536 2.433c2.197 1.483 4.53 2.822 6.656 4.408-.01 1.726-.024 3.454-.061 5.18-.021.977-.034 1.954-.063 2.93-.016.52-.048 1.053-.048 1.583q-.677.519-1.376 1.01l-.013-.257c-.019-.4-.034-.8-.055-1.2q-.071-1.35-.139-2.702c-.085-1.77-.21-3.534-.251-5.306a.02.02 0 0 0-.04 0c-.026 1.768-.095 3.539-.074 5.306q.016 1.301.058 2.602c.014.433.038.867.061 1.3.01.177.011.36.035.537-.333.227-.666.457-1.006.673-.533.34-1.073.67-1.624.978a3.7 3.7 0 0 0-1.269.845c-4.876-3.532-10.218-7.55-16.586-6.18a9.3 9.3 0 0 0-2.41.897 61 61 0 0 0 7.512-6.134m-7.338 31.915-.014.593c-.043.052-.093.102-.134.153a14 14 0 0 0-.916 1.268c.055-.7.074-1.402.085-2.108.01-.684-.009-1.37-.04-2.056q.497.791 1.028 1.557-.003.297-.009.593m19.793 23.018a13 13 0 0 0 .082 1.385c-.6.387-1.191.791-1.758 1.223.065-.522.092-1.05.12-1.562.058-1.063.082-2.126.092-3.19.014-1.641-.073-3.28-.192-4.915q.996.674 1.996 1.342a34 34 0 0 0-.306 3.47c-.038.746-.06 1.501-.034 2.247m2.16.038q-.653.434-1.314.854l-.192.124c.028-.289.043-.578.063-.843.06-.774.08-1.556.084-2.333.006-1.102.01-2.195-.06-3.287.487.326.972.656 1.46.982-.026.253-.04.513-.044.767-.009.549-.008 1.098-.01 1.647-.003.55-.027 1.1-.023 1.649 0 .153.023.294.036.44m1.626-2.274c-.02.196-.06.356-.089.593a.93.93 0 0 0 .038.535 5 5 0 0 1-.423.35c-.103.076-.21.145-.315.218.023-.482.016-.967.006-1.45a23 23 0 0 0-.096-1.708l-.026-.31.996.67c-.046.366-.054.734-.091 1.102m25.69 27.686q-.126-1.35-.33-2.69a54 54 0 0 0-.76-3.93c.741.684 1.475 1.377 2.22 2.057l-.012.304a14 14 0 0 0 .066 1.629q.042.498.133.99a13.8 13.8 0 0 0-1.223 2.58c-.03-.318-.064-.633-.093-.94m.996 2.616a19 19 0 0 1 .74-2.29 27 27 0 0 1 1.51-2.95c.78.708 1.57 1.41 2.41 2.044-1.537 1.09-3.1 2.142-4.66 3.196m.451-6.885c.245.223.485.452.73.675l.346.314a10 10 0 0 0-.887 1.126q-.008-.437-.04-.873c-.025-.345-.075-.69-.114-1.034-.008-.07-.023-.139-.035-.208m30.028-11.161q-.979.347-1.973.658a33 33 0 0 0-5.95 1.254 20.8 20.8 0 0 0-6.246 3.15 55 55 0 0 0-4.46 3.955l-.132-.25c-.014-.026-.055-.003-.04.024l.14.257q-.446.422-.896.838c-.223.205-.456.398-.684.597l-.044-.101a85 85 0 0 1-.524-1.345q-.506-1.323-.983-2.658c-.01-.028-.053-.017-.045.013q.409 1.378.848 2.746c.141.44.288.88.432 1.319q.038.119.073.238-.957.822-1.946 1.604c-.19-.383-.402-.76-.563-1.146a36 36 0 0 1-.771-2.045q-.73-2.099-1.333-4.239a.016.016 0 0 0-.03.009q.572 2.23 1.277 4.421c.232.716.477 1.429.695 2.149q.162.54.31 1.082l.022.07c-.526.407-1.048.82-1.584 1.214-.091-.023-.186-.039-.279-.059a3.4 3.4 0 0 1-.476-.153l-.023-.045a.116.116 0 0 0-.167-.031q-.173-.071-.342-.146a4 4 0 0 0-.268-.105 81 81 0 0 0-2.394-2.38q-2.056-1.99-4.129-3.963c-2.732-2.587-5.498-5.138-8.223-7.732-1.293-1.23-2.566-2.482-3.767-3.802-1.183-1.3-2.261-2.696-3.516-3.93a31.4 31.4 0 0 0-4.104-3.234 258 258 0 0 0-4.4-2.993c-10.643-7.113-22.74-14.814-27.072-27.592-1.568-4.626-2.124-11.416 2.426-14.635a9.6 9.6 0 0 1 7.23-1.325 1.75 1.75 0 0 0-.45 1.021c-.087.37-.164.743-.254 1.113a25 25 0 0 1-.576 2.053 24 24 0 0 1-.708 1.86c-.242.438-.48.878-.746 1.311a6 6 0 0 1-.553.826c-.207.24-.543.394-.568.745a5 5 0 0 1-.18.692 1.45 1.45 0 0 0 .056.762l-.005-.005c-.037-.031-.09.02-.054.054a27.8 27.8 0 0 0 5.033 3.992c1.676 1.048 3.676 2.155 5.708 2.127 3.584-.05 5.65-4.06 6.11-7.17a.038.038 0 0 0-.073-.02c-.456 1.48-.933 3.22-2.09 4.324a5.8 5.8 0 0 1-4.376 1.813 12.3 12.3 0 0 1-5.397-1.748 27.8 27.8 0 0 1-4.707-3.246.11.11 0 0 0 .109-.15c-.097-.293-.137-.899.218-1.04.413.047.788-.44.986-.752a9 9 0 0 0 .745-1.637c.147-.388.277-.782.41-1.175.26-.45.507-.906.717-1.372.307-.679.61-1.362.85-2.067a11 11 0 0 0 .322-1.094 1.6 1.6 0 0 0-.004-1.11c.213.046.427.087.637.142 3.18.835 5.933 2.765 8.554 4.677q1.04.758 2.085 1.5a3 3 0 0 1-.29.438c-.193.24-.419.446-.601.696a6.7 6.7 0 0 0-.856 1.648 4.98 4.98 0 0 0-.07 3.478c.005.013.027.008.022-.007a4.45 4.45 0 0 1 .576-3.826 15 15 0 0 1 1.288-1.47 2.2 2.2 0 0 0 .389-.64 72 72 0 0 0 6.143 3.923c3.132 1.755 6.402 3.188 9.665 4.675a56 56 0 0 1 7.07 3.898 4 4 0 0 0 .207.507 2.57 2.57 0 0 0 1.06 1.003c.407.23.475.771.612 1.187.192.583.385 1.168.547 1.76a.059.059 0 0 0 .115-.015c.003-.615.04-1.23.075-1.845a6 6 0 0 0 .018-.839c2.717 1.894 5.413 3.807 8.222 5.567q4.542 2.845 9.316 5.295c1.573.807 3.164 1.573 4.765 2.322a27.7 27.7 0 0 1 4.395 2.401c2.731 1.944 4.561 4.99 6.7 7.516a77 77 0 0 0 7.124 7.345 62 62 0 0 0 3.744 3.119 54.5 54.5 0 0 1-8.124 3.749m9.323-9.056a54 54 0 0 1-.201 2.265 14 14 0 0 0-.191 1.792l-.127.11a.12.12 0 0 0-.067.071 102 102 0 0 1-7.438-7.083c-1.56-1.666-2.994-3.422-4.424-5.186 1.453-1.12 2.89-2.247 4.241-3.488a.47.47 0 0 0 .144.284c1.737 1.611 3.681 3.007 5.317 4.726a17.3 17.3 0 0 1 1.965 2.334 6.7 6.7 0 0 1 .817 1.756 23 23 0 0 1-.036 2.419m27.083-25.2c1 .664 2.11 1.062 3.149 1.644 1.963 1.1 4.008 1.982 6.06 2.896a22 22 0 0 1 3.279 1.818 9.6 9.6 0 0 0-3.72.652 40 40 0 0 0-7.427 4.366q-3.956 2.611-7.91 5.225-2.657 1.757-5.308 3.528c.026-1.06.003-2.12.012-3.182q.016-1.808.13-3.614c.002-.02-.03-.02-.03 0a40 40 0 0 0-.203 6.856q-.823.546-1.647 1.09c.011-.35.009-.704.018-1.051.02-.767.03-1.535.049-2.301q.059-2.3.192-4.598c.004-.076-.111-.074-.117 0q-.194 2.296-.32 4.598a71 71 0 0 0-.099 2.3c-.009.413-.028.832-.02 1.25a450 450 0 0 1-7.757 5.06q-2.25 1.426-4.557 2.785a11 11 0 0 0 .22-1.738 24 24 0 0 0 .122-2.384 23 23 0 0 0-.444-4.67 16.6 16.6 0 0 0-1.266-3.76 10.9 10.9 0 0 0-2.409-3.173c-.052-.052-.122.023-.078.078a16.05 16.05 0 0 1 2.694 6.122 10 10 0 0 0-1.22-1.749 21.5 21.5 0 0 0-2.529-2.346 68 68 0 0 0-3.335-2.612.5.5 0 0 0-.127-.056c.555-.54 1.086-1.102 1.62-1.662l.002.012c.052.331.101.665.173.993a12.3 12.3 0 0 0 .612 1.995.047.047 0 0 0 .09-.025 54 54 0 0 0-.41-2.051c-.071-.327-.152-.651-.222-.979l-.036-.16q1.052-1.114 2.044-2.28c.13.725.27 1.448.453 2.163.01.038.074.031.07-.009-.1-.772-.245-1.534-.401-2.296.155-.184.317-.362.469-.548.496-.606.966-1.232 1.44-1.856.024.256.054.51.076.756.052.576.092 1.155.161 1.73a18.7 18.7 0 0 0 .691 3.425.047.047 0 0 0 .09-.025c-.209-1.193-.335-2.398-.486-3.6-.073-.577-.154-1.154-.23-1.731-.035-.265-.061-.542-.1-.817q.864-1.154 1.671-2.347c.244 1.974.485 3.948.755 5.919a52 52 0 0 0 1.239 7.359.043.043 0 0 0 .084-.012 50 50 0 0 0-.922-7.201c-.333-2.074-.695-4.144-1.055-6.214.168-.248.341-.493.504-.745a58 58 0 0 1 3.696-5.608 20.7 20.7 0 0 1 5.165-4.13 29.8 29.8 0 0 0 4.815-3.693l.222.252a18 18 0 0 0 1.268 1.339c.87.819 1.74 1.64 2.637 2.43.441.388.895.762 1.342 1.144l.052.2c.01.035.058.02.053-.014l-.02-.113a87 87 0 0 0 4.082 3.305q1.421 1.072 2.904 2.06m-10.797-12.287c-.062.042-.04-.07-.004-.052.073.037.092.156.113.226l.207.664c.13.413.255.828.388 1.24l.108.336c-.392-.342-.783-.684-1.195-1.003-.195-.15-.397-.316-.606-.473.299-.311.575-.644.864-.963.028.062.086.102.143.05.013-.012-.004-.035-.018-.025m3.077 4.38c-.642-.558-1.285-1.114-1.921-1.677l-.048-.16c-.195-.652-.402-1.3-.608-1.948-.035-.11-.182-.773-.424-.844q.721-.81 1.426-1.635c.538 2.085 1.044 4.178 1.575 6.264m-1.456-6.4q.738-.863 1.465-1.733a45.3 45.3 0 0 0 2.866 10.574c-.575-.475-1.155-.945-1.72-1.432-.28-.242-.557-.488-.837-.73a69 69 0 0 0-1.774-6.68m6.83 10.826q-1.11-.848-2.194-1.732c-.624-1.699-1.246-3.395-1.748-5.14-.547-1.895-.982-3.822-1.362-5.759l.242-.287.907-1.082c1.335 4.676 2.64 9.378 4.155 14m-3.265-17.352c-.206-.14-.48.14-.343.345l.025.034-3.002 3.583q-.384.458-.767.918l-.016-.05a.03.03 0 0 0-.057.015l.025.093c-1.202 1.44-2.415 2.875-3.753 4.19a31.3 31.3 0 0 1-5.33 3.98 19.3 19.3 0 0 0-4.935 4.147 62 62 0 0 0-3.552 5.39 57 57 0 0 1-8.3 10.159 59 59 0 0 1-4.703 4.23 177 177 0 0 0-1.52-1.85 17.2 17.2 0 0 0-3.803-3.469 36 36 0 0 0-4.45-2.312q-4.953-2.318-9.695-5.055-4.738-2.74-9.225-5.884l-2.715-1.906a.55.55 0 0 0 .324-.13 56.5 56.5 0 0 0 9.23-10.07c1.374-1.907 2.652-3.89 4.173-5.688a36 36 0 0 1 4.965-4.705c3.846-3.095 7.854-6.003 11.787-8.987l2.427-1.84a.477.477 0 0 0 .554-.42c2.849-2.156 5.697-4.314 8.51-6.518 3.644-2.856 7.221-5.804 10.594-8.979a92 92 0 0 0 4.873-4.93c1.536-1.683 2.966-3.462 4.55-5.1 3.188-3.295 7.336-5.418 10.975-8.16a85.4 85.4 0 0 0 9.991-8.811c.268-.277.522-.566.786-.847a2.7 2.7 0 0 0-.038.868 10 10 0 0 0 .337 1.518 9.1 9.1 0 0 0 1.469 2.7 3.1 3.1 0 0 0 1.896 1.425 1.76 1.76 0 0 0 1.773-.7c.008-.013-.012-.024-.02-.012a1.643 1.643 0 0 1-2.15.428 3.8 3.8 0 0 1-1.623-1.855 13.6 13.6 0 0 1-.803-2.446 12 12 0 0 1-.23-1.237 7 7 0 0 0-.277-1.05q1.677-1.808 3.267-3.694a50 50 0 0 1 3.891-4.288 16.6 16.6 0 0 1 2.324-1.852 7.3 7.3 0 0 0-.58 3.163 14.47 14.47 0 0 0 2.358 7.201 22.3 22.3 0 0 1-3.925 3.802.035.035 0 0 0 .035.06 10.46 10.46 0 0 0 4.802-3.592.44.44 0 0 0-.068-.527 11 11 0 0 1-2.422-6.09 8.4 8.4 0 0 1 .153-3.108 3.73 3.73 0 0 1 1.094-1.723 7.3 7.3 0 0 1 5.984-.34c3.687 1.475 5.706 5.462 5.996 9.24.344 4.494-1.048 9.043-2.549 13.229a56.9 56.9 0 0 1-12.638 20.53 50 50 0 0 1-4.477 4.065c-1.743 1.4-3.645 2.603-5.263 4.155a65 65 0 0 0-4.659 5.296l-4.867 5.807z"/><path fill="currentColor" d="M289.467 77.556a.038.038 0 0 0 0 .075.038.038 0 0 0 0-.075m1.786-62.518c-.011-.024-.052-.007-.042.018a26 26 0 0 0 1.507 3.593.032.032 0 0 0 .06-.025 26 26 0 0 0-1.525-3.586m-63.944 65.056c-.372-.674-.68-1.383-1.01-2.078-.682-1.44-1.342-2.897-2.104-4.297-.018-.034-.079-.01-.064.027.573 1.468 1.252 2.895 1.905 4.329.347.76.733 1.517 1.018 2.304.235.652.343 1.426.958 1.842a.107.107 0 0 0 .159-.092c.08-.77-.515-1.404-.862-2.035m-26.589-15.58c-.026-.046-.097-.005-.071.042a20.4 20.4 0 0 1 1.692 4.119.023.023 0 0 0 .045-.013 17.3 17.3 0 0 0-1.667-4.148m28.338-7.822a16 16 0 0 0-.565-.985c-.397-.647-.823-1.273-1.245-1.903a.07.07 0 0 0-.12.07c.354.67.702 1.342 1.082 1.998.19.328.386.652.598.966a6.3 6.3 0 0 0 .63.874.053.053 0 0 0 .089-.051 6.3 6.3 0 0 0-.47-.97m-28.53 42.076c-.255 1.14-.53 2.273-.81 3.408-.137.556-.294 1.105-.421 1.664a2.87 2.87 0 0 0-.106 1.606.113.113 0 0 0 .187.05 2.63 2.63 0 0 0 .475-1.434c.087-.582.148-1.164.22-1.748q.219-1.771.49-3.537c.003-.021-.03-.031-.035-.009m26.667 74.045a7.3 7.3 0 0 0-.694 1.461q-.33.744-.71 1.466a22 22 0 0 1-1.712 2.771 32 32 0 0 1-2.15 2.626c-.689.759-1.468 1.424-2.173 2.162-.838-.583-.163-2.005.342-2.569a22 22 0 0 1 1.717-1.521 9.1 9.1 0 0 0 2.498-3.761c1.217-3.413.788-6.998.447-10.518-.003-.034-.055-.035-.052 0 .24 3.873.246 7.824-1.55 11.358a22 22 0 0 1-1.242 2.108 15 15 0 0 1-1.79 2.087c-.91.956-1.337 2.055-.54 3.22a.225.225 0 0 0 .304.079 14 14 0 0 0 2.443-2.241 21 21 0 0 0 2.114-2.697 29 29 0 0 0 1.749-2.986 8.7 8.7 0 0 0 1.173-2.997c.007-.103-.124-.115-.174-.048"/><path fill="currentColor" d="M222.599 169.258c-.25.946-.53 1.882-.797 2.823a12.2 12.2 0 0 0-.557 2.792c-.003.061.094.092.12.033a12.3 12.3 0 0 0 .753-2.738c.184-.964.353-1.93.554-2.89a.038.038 0 0 0-.073-.02m-26.673-21.462a46 46 0 0 1-1.596 6.935 35 35 0 0 1-1.346 3.428c-.469 1.041-1.043 2.036-1.471 3.094-.019.046.052.086.083.049a19.5 19.5 0 0 0 3.07-6.364 24.6 24.6 0 0 0 1.289-7.138c0-.016-.026-.02-.029-.004m25.939-13.576a1.6 1.6 0 0 0-.382-.822 11.4 11.4 0 0 1-.93-2.05q-.835-2.006-1.61-4.036c-.017-.045-.09-.027-.073.02q.728 2.082 1.517 4.143a13 13 0 0 1 .751 2.068 1.6 1.6 0 0 0 .318.847 7 7 0 0 1 .64 1.007.032.032 0 0 0 .058-.025 6.3 6.3 0 0 1-.289-1.151m7.874 8.803c-.154-.112-.316-.211-.472-.32a10 10 0 0 1-1.058-1.044c-.023-.025-.06.013-.037.038.193.216.383.428.563.645-2.135-1.435-4.415-2.67-6.488-4.201a11.9 11.9 0 0 1-3.097-3.097c-.812-1.305-1.469-2.702-2.187-4.057-.052-.097-.196-.012-.147.086.704 1.402 1.376 2.84 2.139 4.212a10 10 0 0 0 1.12 1.66 9.4 9.4 0 0 0 1.594 1.292c1.236.933 2.454 1.893 3.735 2.764a27.6 27.6 0 0 0 4.085 2.45c.284.127.534-.27.25-.428m-6.182-10.773c-.346-.592-.645-1.217-1.012-1.796a.02.02 0 0 0-.037.016 8.2 8.2 0 0 0 .884 1.877 9.4 9.4 0 0 0 1.201 1.695.038.038 0 0 0 .06-.046c-.343-.594-.75-1.152-1.096-1.746m36.355-32.152c-.219-.597-.46-1.182-.65-1.79a22.6 22.6 0 0 1-.765-3.632c-.01-.07-.12-.05-.12.017a16.6 16.6 0 0 0 .399 3.75 13 13 0 0 0 .494 1.832 7.8 7.8 0 0 0 .986 1.63c.042.06.147.025.124-.052-.179-.58-.26-1.186-.468-1.755m8.066 10.908c-1.089-1.982-2.284-3.894-3.301-5.917q-.75-1.488-1.423-3.014a40 40 0 0 1-.713-1.693 15 15 0 0 0-.57-1.506c-.117-.226-.462-.068-.402.169a10.6 10.6 0 0 0 .61 1.49c.23.545.455 1.093.692 1.636q.666 1.529 1.409 3.022c.76 1.529 1.553 3.078 2.467 4.536q-.928-.974-1.837-1.968c-.016-.017-.04.008-.025.025a99 99 0 0 1 2.85 3.407c.113.142.325-.039.243-.187M103.163 17.51c-.002-.024-.041-.024-.04 0 .097 1.479.206 2.952.345 4.426.002.025.04.026.04 0-.092-1.478-.212-2.95-.345-4.425m2.199 4.984c-.161-1.862-.344-3.722-.487-5.585-.002-.03-.047-.03-.046 0 .063 1.898.128 3.8.262 5.695a41 41 0 0 0 .59 5.478c.01.052.092.04.092-.013.006-1.862-.25-3.722-.411-5.575m2.19 3.195-.158-2.018-.317-4.039c-.003-.034-.056-.035-.055 0l.189 4.039.094 2.019a9 9 0 0 0 .153 1.887c.022.08.161.092.174 0a9 9 0 0 0-.08-1.887m.58 5.1-.065-.383-.127-.751c-.016-.09-.149-.05-.136.037l.107.743.053.37q.012.087.03.171a.5.5 0 0 0 .075.167.036.036 0 0 0 .064-.009.4.4 0 0 0 .022-.18 2 2 0 0 0-.023-.165m1.843-1.989a51 51 0 0 1-.548-5.081.012.012 0 0 0-.023 0 46 46 0 0 0 .262 5.027 18 18 0 0 0 .98 4.787c.024.058.128.06.123-.017-.121-1.582-.55-3.149-.794-4.716m2.72 3.371a77 77 0 0 1-.638-4.367c-.003-.03-.048-.031-.046 0 .08 1.4.188 2.806.39 4.194a18.8 18.8 0 0 0 .916 4.25c.014.037.08.037.076-.011-.102-1.369-.47-2.715-.698-4.066m2.73 5.22a59 59 0 0 1-.412-1.606q-.39-1.641-.624-3.313c-.005-.04-.074-.03-.069.009q.192 1.654.53 3.286c.117.561.245 1.12.399 1.672a6 6 0 0 0 .52 1.52c.012.022.052.014.05-.014a8.7 8.7 0 0 0-.394-1.554m1.97-.823a.02.02 0 0 0-.038.01c.273 1.024.524 2.055.847 3.065a.023.023 0 0 0 .045-.013c-.244-1.031-.56-2.045-.854-3.063m3.2 3.323c-.052-.138-.1-.277-.154-.415a8 8 0 0 1-.283-.875c-.01-.034-.06-.02-.053.015a8 8 0 0 0 .236.904 3 3 0 0 0 .17.407 4 4 0 0 0 .22.42c.013.02.052.007.043-.019-.056-.147-.124-.29-.18-.437M125.507 18c-.016-.034-.064-.01-.057.023a8 8 0 0 1 .14 1.197q.021.291.024.584c.002.201-.022.4-.03.6-.003.075.1.08.123.017a3.05 3.05 0 0 0 .158-1.244 3.2 3.2 0 0 0-.358-1.178m-11.251 33.552c-.003-.024-.04-.026-.039 0a23.5 23.5 0 0 0 .907 5.63.043.043 0 0 0 .083-.023c-.295-1.874-.716-3.723-.95-5.607m3.679 8.027q-.132-.525-.262-1.051c-.167-.676-.349-1.349-.523-2.023-.355-1.373-.728-2.74-1.094-4.11-.005-.02-.033-.012-.03.008.251 1.4.511 2.797.81 4.189.145.682.288 1.364.45 2.042l.254 1.054c.06.249.056.499.301.624a.093.093 0 0 0 .123-.032c.157-.226.033-.452-.029-.7m1.104 4.82a.55.55 0 0 0-.07-.276c-.046-.13-.08-.264-.117-.397-.151-.548-.277-1.103-.437-1.648a.102.102 0 0 0-.195.054c.122.44.223.887.332 1.332.053.215.105.431.169.644a1 1 0 0 0 .102.257.3.3 0 0 0 .058.076.04.04 0 0 0 .044.01c.047.03.097.026.113-.052m2.421 1.198c-.311-1.09-.6-2.187-.896-3.281-.59-2.187-1.13-4.39-1.636-6.598-.005-.02-.034-.011-.03.008q.581 3.421 1.4 6.789a40 40 0 0 0 1.9 6.43c.042.099.182.025.164-.069-.223-1.112-.59-2.189-.902-3.28m3.025 4.377q-.428-1.664-.838-3.333c-.545-2.224-1.115-4.441-1.643-6.67-.005-.02-.034-.01-.03.009.44 2.25.886 4.501 1.407 6.735q.39 1.674.798 3.343a11.8 11.8 0 0 0 .895 3.079.06.06 0 0 0 .11-.03 12.7 12.7 0 0 0-.7-3.133m2.103.594a83 83 0 0 1-1.46-5.842c-.006-.03-.05-.017-.045.012a66 66 0 0 0 1.29 6.003 30 30 0 0 0 1.903 5.617c.022.045.09.013.078-.033-.483-1.947-1.212-3.828-1.766-5.757m3.226 4.053q-.78-2.701-1.334-5.461c-.01-.055-.092-.031-.083.022.34 1.88.756 3.745 1.268 5.587a31.3 31.3 0 0 0 1.785 5.241c.025.053.108.016.093-.039-.51-1.802-1.208-3.548-1.729-5.35m2.389-.859a.016.016 0 0 0-.03.009 35 35 0 0 0 1.192 3.829.027.027 0 0 0 .053-.015 35 35 0 0 0-1.215-3.823m2.765 7.454a26 26 0 0 0-.858-1.775c-.026-.05-.115-.015-.093.039.24.6.446 1.211.655 1.824a8.2 8.2 0 0 0 .716 1.763.06.06 0 0 0 .11-.03 5.4 5.4 0 0 0-.53-1.821m2.243.502c-.58-1.567-1.15-3.14-1.683-4.723a.02.02 0 0 0-.038.01c.445 1.64.927 3.266 1.48 4.873a28 28 0 0 0 1.87 4.57.04.04 0 0 0 .072-.03c-.45-1.604-1.122-3.14-1.7-4.7m2.418.206c-.002-.004-.01-.002-.008.003.51 1.597.994 3.205 1.566 4.782.008.023.045.014.037-.01-.48-1.608-1.052-3.188-1.595-4.775m2.471 1.957c-.01-.028-.054-.016-.045.013.286.861.562 1.723.89 2.57.008.023.045.014.037-.01-.263-.869-.576-1.718-.882-2.572m1.839.339-.306-.765c-.015-.036-.074-.022-.06.017l.28.787c.09.258.194.507.303.758.015.032.068.01.058-.024a12 12 0 0 0-.275-.773m3.982 5.765c-.016-.036-.078-.01-.064.027a28.4 28.4 0 0 0 1.961 4.472c.022.037.087.012.072-.03-.556-1.532-1.299-2.985-1.969-4.469m3.469 2.859c-.587-1.517-1.185-3.03-1.777-4.546-.014-.037-.074-.022-.06.016.566 1.554 1.123 3.111 1.697 4.662.555 1.498 1.09 3.013 1.752 4.468.013.028.059.008.05-.021-.47-1.552-1.078-3.067-1.662-4.579m2.973 1.966q-1.077-2.626-2.149-5.254c-.015-.036-.073-.022-.06.017q.94 2.724 1.995 5.403a43 43 0 0 0 2.202 5.134.055.055 0 0 0 .1-.042c-.55-1.792-1.378-3.524-2.088-5.257m3.384 3.186a218 218 0 0 1-1.85-4.588c-.01-.028-.055-.017-.045.012.555 1.58 1.14 3.149 1.769 4.702a42 42 0 0 0 1.96 4.457c.026.046.104.015.086-.036-.555-1.545-1.291-3.03-1.92-4.547m4.613 4.712a65 65 0 0 0-.872-2.51 76 76 0 0 0-1.903-4.683c-.014-.032-.07-.01-.057.024.6 1.596 1.168 3.207 1.717 4.82.275.81.536 1.623.803 2.434a14.3 14.3 0 0 0 .816 2.258c.025.046.108.027.102-.028a11.4 11.4 0 0 0-.606-2.315m.663-4.572c-.017-.037-.069-.005-.054.031 1.27 2.964 2.421 5.985 3.757 8.918.015.032.068.01.057-.024a75 75 0 0 0-3.76-8.925m5.727 8.23c-.439-.94-.882-1.877-1.286-2.833-.005-.012-.026-.004-.02.009.347.945.711 1.89 1.12 2.81a19.4 19.4 0 0 0 1.419 2.774c.018.028.071.01.057-.024-.382-.932-.866-1.823-1.29-2.736m3.261 3.23-.21-.321q-.212-.32-.422-.641c-.03-.046-.105-.003-.075.043l.421.657.207.323a3 3 0 0 0 .226.305c.02.025.056-.007.043-.033a3 3 0 0 0-.19-.333m1.731 1.085c-.013-.015-.034.007-.022.022l.427.51c.016.02.044-.008.027-.027Zm12.628 8.768c-.004-.014-.027-.008-.022.006.374 1.17.734 2.346 1.14 3.506.007.019.036.011.03-.008-.356-1.177-.758-2.338-1.148-3.504m3.301 1.771a133 133 0 0 1-1.42-4.24.023.023 0 0 0-.044.012 56.4 56.4 0 0 0 2.901 8.46c.017.037.077.011.064-.026-.458-1.415-1.01-2.801-1.5-4.206m3.473 2.265c-.742-2.218-1.43-4.455-2.144-6.681a.023.023 0 0 0-.045.012 71 71 0 0 0 1.925 6.867 46.4 46.4 0 0 0 2.466 6.46c.024.047.1.014.086-.037-.65-2.238-1.548-4.411-2.288-6.621m.803-4.377c-.01-.028-.054-.017-.045.012.586 1.886 1.176 3.768 1.838 5.629.01.028.054.017.045-.013-.563-1.893-1.198-3.76-1.838-5.628m3.972 11.967-.539-1.651c-.006-.02-.036-.011-.03.008l.502 1.662c.167.553.311 1.119.532 1.653a.023.023 0 0 0 .045-.013c-.124-.564-.33-1.11-.51-1.659m1.799-2.431c-.86-2.43-1.74-4.85-2.698-7.244-.009-.023-.046-.013-.038.01.873 2.423 1.768 4.837 2.624 7.265.855 2.429 1.614 4.895 2.494 7.314.02.056.107.034.09-.025-.714-2.468-1.615-4.897-2.472-7.32m4.955 6.63q-.56-1.669-1.14-3.331a109 109 0 0 0-2.47-6.478c-.005-.012-.025-.003-.021.01.737 2.225 1.519 4.435 2.29 6.649q.56 1.605 1.1 3.216a20.6 20.6 0 0 0 1.134 3.224c.024.045.109.028.102-.027a18.3 18.3 0 0 0-.995-3.263m-6.449 17.442a45 45 0 0 0-1.267 4.537.035.035 0 0 0 .067.019 45 45 0 0 0 1.268-4.537.035.035 0 0 0-.068-.019m-3.566-4.252a21 21 0 0 0-.702 2.228 14 14 0 0 0-.432 2.229c-.005.06.091.088.116.031a14 14 0 0 0 .668-2.163 21 21 0 0 0 .433-2.302.043.043 0 0 0-.083-.023m-42.256-6.375q-.44-1.559-.818-3.134c-.007-.03-.05-.017-.045.013q.288 1.598.626 3.187a18 18 0 0 0 .905 3.113.055.055 0 0 0 .106-.03 30 30 0 0 0-.774-3.149m2.617 2.43-.404-1.743c-.264-1.14-.565-2.272-.851-3.406-.008-.03-.051-.017-.045.012.23 1.15.445 2.304.697 3.45l.37 1.683a5.3 5.3 0 0 0 .444 1.605.035.035 0 0 0 .066-.018 5.2 5.2 0 0 0-.276-1.582m1.238 4.96-.447-1.687a.055.055 0 0 0-.105.029l.396 1.701a9 9 0 0 0 .443 1.633c.019.042.09.021.087-.024a9 9 0 0 0-.374-1.652m2.866 1.924c-.286-1.03-.585-2.059-.878-3.088q-.862-3.033-1.767-6.052a.016.016 0 0 0-.03.009 515 515 0 0 0 1.598 6.098c.268.995.533 1.991.805 2.985a19 19 0 0 0 .876 2.854.043.043 0 0 0 .08-.022 18.4 18.4 0 0 0-.684-2.784m3.044 3.655c-.276-.94-.566-1.873-.837-2.813a120 120 0 0 1-1.528-5.896c-.005-.02-.035-.012-.03.008q.63 3.04 1.4 6.048a29 29 0 0 0 1.766 5.725c.019.038.07.01.064-.027a26 26 0 0 0-.835-3.046m2.031-.372c-.553-1.958-1.12-3.911-1.673-5.87a.012.012 0 0 0-.023.007c.484 1.976.975 3.95 1.506 5.915a51 51 0 0 0 1.706 5.86.05.05 0 0 0 .098-.027c-.357-1.99-1.066-3.942-1.614-5.885m1.472-1.953a.016.016 0 0 0-.03.008c.494 2.055.983 4.11 1.491 6.162a.125.125 0 0 0 .241-.066c-.556-2.038-1.132-4.07-1.702-6.104m2.88 9.954-.203-.744-.398-1.461a.04.04 0 0 0-.076.02l.336 1.479.164.725a2.3 2.3 0 0 0 .214.696.051.051 0 0 0 .095-.026 2.2 2.2 0 0 0-.132-.689m2.051.312q-.305-.833-.579-1.677-.557-1.718-.98-3.475c-.009-.035-.06-.02-.053.014q.398 1.796.93 3.557a16.5 16.5 0 0 0 1.226 3.338.031.031 0 0 0 .057-.024 17 17 0 0 0-.601-1.733m2.489.965a25 25 0 0 1-.702-2.463c-.002-.01-.017-.005-.015.005a25 25 0 0 0 .61 2.535 10.5 10.5 0 0 0 .93 2.35.027.027 0 0 0 .05-.022c-.243-.815-.597-1.6-.873-2.405m1.969.237c-.016-.036-.078-.01-.064.027a23 23 0 0 0 .976 2.411.035.035 0 0 0 .064-.027 23 23 0 0 0-.976-2.411m6.675 5.818q-.192-.462-.343-.94a.02.02 0 0 0-.038.01q.104.498.25.985a4.4 4.4 0 0 0 .41.907c.02.033.078.011.064-.027-.11-.313-.216-.628-.343-.934m5.472 3.467c-.015-.027-.052-.003-.04.024.57 1.333 1.06 2.698 1.65 4.023.017.037.074.01.064-.027a19 19 0 0 0-1.674-4.02m3.485 3.848c-.618-1.65-1.243-3.297-1.849-4.951-.017-.047-.091-.027-.075.02a202 202 0 0 0 1.77 5.074 52 52 0 0 0 1.906 4.835c.018.036.076.011.064-.027-.502-1.682-1.201-3.308-1.816-4.951m4.281 5.29-1.271-3.218q-1.23-3.111-2.556-6.18c-.005-.013-.026-.004-.022.008q1.16 3.254 2.417 6.471l1.26 3.221a26 26 0 0 0 1.246 2.99.07.07 0 0 0 .128-.055 28 28 0 0 0-1.202-3.237m2.696-.559q-.149-.393-.303-.783-.3-.761-.621-1.514-.691-1.624-1.473-3.207c-.006-.014-.026-.002-.02.012q.745 1.63 1.398 3.3.304.78.588 1.568.141.394.278.79a2 2 0 0 0 .3.69c.032.038.092.005.093-.04a2.2 2.2 0 0 0-.24-.816m1.841 5.43-.836-2.418c-.005-.014-.027-.009-.023.006l.794 2.48a18 18 0 0 0 .809 2.382c.014.03.056.008.05-.02a19 19 0 0 0-.794-2.43m3.092 1.658q-.522-1.323-1.039-2.65-1.048-2.702-2.022-5.432c-.005-.014-.027-.008-.022.006q.95 2.79 1.974 5.555c.342.922.69 1.84 1.053 2.754a25 25 0 0 0 1.063 2.537.031.031 0 0 0 .057-.024c-.276-.935-.707-1.838-1.064-2.746m1.695-3.17c-.008-.024-.046-.013-.038.01l1.55 4.659a19.8 19.8 0 0 0 1.598 4.143.027.027 0 0 0 .047-.028c-1.259-2.846-2.161-5.837-3.157-8.784m42.63-28.14c-.004-.02-.033-.01-.03.009.274 2.036.427 4.085.676 6.123.003.024.04.026.04 0a35 35 0 0 0-.686-6.132m1.517 12.311a31 31 0 0 1-.215-1.326c-.126-.907-.215-1.818-.312-2.729-.004-.034-.057-.035-.055 0 .059.885.128 1.77.157 2.657.015.435.025.867.02 1.303-.001.217-.008.434-.006.651a1 1 0 0 0 .12.606.21.21 0 0 0 .357 0c.175-.336 0-.81-.066-1.162m1.875 1.329c-.073-.7-.146-1.402-.21-2.104q-.195-2.104-.323-4.215c-.002-.024-.04-.025-.04 0q.063 2.11.19 4.215c.043.702.088 1.404.145 2.104a7.4 7.4 0 0 0 .264 1.953c.015.041.09.055.098 0a8 8 0 0 0-.124-1.953m1.886-1.126-.233-1.873c-.005-.034-.059-.035-.055 0l.197 1.91a14 14 0 0 0 .234 1.841.024.024 0 0 0 .046-.006 14 14 0 0 0-.189-1.872m8.6-2.807a.027.027 0 0 0-.054 0 65 65 0 0 0-.099 1.693c-.012.28-.015.566-.009.847a5 5 0 0 0 .054.795c.01.056.092.05.106 0a4.3 4.3 0 0 0 .114-.795 8 8 0 0 0 .024-.847 16 16 0 0 0-.136-1.693m-4.99-4.001a91 91 0 0 0-.516 5.505 27.6 27.6 0 0 0-.022 5.316.047.047 0 0 0 .09 0 50 50 0 0 0 .245-5.316c.068-1.836.147-3.672.273-5.505.004-.045-.065-.043-.07 0m-1.639-.769a34 34 0 0 0-.323 7.152.043.043 0 0 0 .086 0c.12-2.383.109-4.77.284-7.152.002-.03-.043-.029-.047 0m17.236 45.62.004.256a.008.008 0 0 0 .016 0l.004-.256a.012.012 0 0 0-.024 0m1.411-7.065c0-.01-.016-.01-.015 0 .13 2.357.25 4.714.415 7.069.002.025.04.025.039 0-.12-2.358-.285-4.713-.439-7.07m2.391 3.064c-.002-.016-.025-.016-.024 0 .065.653.114 1.31.198 1.962.002.015.024.016.023 0-.047-.655-.13-1.31-.197-1.963m-30.045 23.38q-.315-2.633-.685-5.258c-.005-.035-.066-.027-.062.008q.345 2.727.634 5.46c.184 1.747.235 3.548.568 5.273.009.044.077.032.077-.01a44 44 0 0 0-.531-5.473m1.468 10.984-.183-1.03-.357-2.022c-.01-.06-.099-.034-.09.025l.28 2.003.14 1.002c.021.154.04.309.067.462a1.3 1.3 0 0 0 .126.461.06.06 0 0 0 .107-.014 2.4 2.4 0 0 0-.09-.887m3.391 1.819a13 13 0 0 1-.293-1.661c-.028-.382.032-.639-.008-.991-.036-.319-.092-.637-.137-.955-.36-2.539-.649-5.077-.797-7.638-.003-.06-.096-.061-.094 0 .084 2.523.242 5.056.559 7.562.15 1.18.492 2.282.67 3.461a20.7 20.7 0 0 0 .728 3.79c.019.054.113.051.107-.014a35 35 0 0 0-.736-3.554m2.171-5.802c-.003-.04-.065-.04-.062 0a98 98 0 0 0 1.722 13.39c.008.038.073.031.069-.009-.478-4.472-1.273-8.904-1.728-13.381m3.121 6.817c-.002-.014-.025-.015-.024 0a83.5 83.5 0 0 0 1.656 10.894c.01.04.066.022.06-.017-.516-3.635-1.244-7.23-1.692-10.877m3.879 10.205c0-.004-.008-.003-.007 0a41 41 0 0 0 .862 4.698c.004.014.026.008.022-.006-.335-1.557-.653-3.114-.877-4.692m11.327 12.93a.031.031 0 0 0-.06.017c.348 1.368.702 2.732 1.084 4.09a.027.027 0 0 0 .053-.014c-.338-1.37-.704-2.731-1.077-4.093m2.263-2.968a.047.047 0 0 0-.09.025c1.523 5.126 3.13 10.234 5.097 15.21.019.045.092.027.076-.021-1.678-5.077-3.466-10.117-5.083-15.214m8.749 13.618q-1.94-4.904-3.68-9.89c-.009-.023-.046-.013-.038.011q1.635 5.078 3.576 10.042c1.263 3.236 2.544 6.498 4.119 9.597.018.035.079.01.064-.027-1.296-3.265-2.749-6.465-4.041-9.733m4.867 1.512q-.6-1.415-1.166-2.845-1.061-2.684-1.996-5.415c-.013-.038-.073-.022-.06.017q.931 2.784 1.99 5.522a38 38 0 0 0 2.223 5.222.02.02 0 0 0 .036-.015c-.279-.85-.677-1.663-1.027-2.486m3.649 8.751q-.594-1.47-1.143-2.958c-.006-.014-.028-.009-.023.006q.532 1.522 1.11 3.027a27 27 0 0 0 1.206 2.877.024.024 0 0 0 .042-.018c-.34-.996-.797-1.958-1.192-2.934m6.552 4.779q-.563-1.136-1.112-2.279-1.122-2.34-2.187-4.707-2.178-4.84-4.145-9.772c-.006-.014-.028-.008-.023.006q1.827 4.804 3.908 9.5 1.051 2.375 2.158 4.724.567 1.202 1.146 2.398a16 16 0 0 0 1.229 2.351c.019.027.069.012.057-.024a17 17 0 0 0-1.031-2.197m5.826 2.585a26.4 26.4 0 0 1-2.397-4.44c-.123-.31-.176-.655-.32-.956-.188-.396-.466-.753-.661-1.149-1.44-2.924-2.752-5.922-4.063-8.906-.007-.016-.035-.004-.028.012 1.218 2.95 2.51 5.864 3.816 8.776.195.434.334.878.509 1.317a6.4 6.4 0 0 0 .521.872 21 21 0 0 1 1.062 2.172 24 24 0 0 1 .97 2.423 4.46 4.46 0 0 0 .962 1.997c.195.173.594.074.566-.235a4.2 4.2 0 0 0-.937-1.883m-.912-10.935a.035.035 0 0 0-.061.035c.689 1.325 1.288 2.706 1.842 4.09.017.042.082.026.068-.018a19.7 19.7 0 0 0-1.85-4.107m7.044 13.356c-.313-.515-.665-1.005-.987-1.513q-.968-1.525-1.9-3.07a.012.012 0 0 0-.02.012q.832 1.606 1.63 3.227c.267.541.502 1.1.777 1.635a3.1 3.1 0 0 0 .968 1.3.095.095 0 0 0 .14-.082 3.14 3.14 0 0 0-.608-1.51m6.396 2.057c-.4-.612-.837-1.192-1.223-1.814-.744-1.203-1.404-2.458-2.073-3.704-.65-1.211-1.29-2.432-1.866-3.68a18.3 18.3 0 0 0-1.874-3.688c-.039-.049-.11.006-.098.057a15.4 15.4 0 0 0 1.738 3.627c.683 1.239 1.33 2.498 1.985 3.751.637 1.22 1.313 2.42 1.92 3.653.324.658.6 1.333.913 1.995a3.1 3.1 0 0 0 1.043 1.422.114.114 0 0 0 .17-.098 2.96 2.96 0 0 0-.635-1.521m5.036-1.121a56 56 0 0 1-1.883-3.322c-.288-.558-.477-1.134-.804-1.67-.342-.56-.654-1.14-.981-1.709q-.982-1.71-1.998-3.397a.023.023 0 0 0-.04.024q.895 1.759 1.822 3.5c.27.507.55 1.01.812 1.522.307.6.69 1.1 1.04 1.675.642 1.05 1.216 2.146 1.77 3.245a24.5 24.5 0 0 0 1.822 3.5c.11.149.41.067.329-.139a23 23 0 0 0-1.89-3.229m6.255 3.258c-.275-.456-.556-.909-.823-1.369-.575-.987-1.1-1.999-1.64-3.005a58 58 0 0 0-3.504-5.88.023.023 0 0 0-.04.024c1.001 2.051 2.189 4.006 3.381 5.951.597.974 1.2 1.94 1.75 2.94.258.467.5.942.747 1.414a7 7 0 0 0 .804 1.397.059.059 0 0 0 .098-.057 6.8 6.8 0 0 0-.773-1.415m4.142-.329q-.605-.912-1.237-1.805a61 61 0 0 0-2.55-3.326c-.01-.01-.027.004-.02.014a96 96 0 0 1 2.485 3.436q.587.845 1.15 1.707a11 11 0 0 0 1.153 1.72.035.035 0 0 0 .059-.035 8.3 8.3 0 0 0-1.04-1.711m3.85-.671c-.62-.716-1.251-1.419-1.89-2.117-.022-.023-.052.01-.034.033a76 76 0 0 0 1.763 2.186 17.4 17.4 0 0 0 1.868 2.082c.025.022.069-.006.049-.038a18 18 0 0 0-1.756-2.146m4.544 1.48q-.147-.177-.296-.353c-.101-.12-.225-.223-.338-.331-.11-.107-.236-.199-.356-.295l-.37-.298a.059.059 0 0 0-.083.083l.322.347c.107.115.21.236.328.341.113.103.223.215.345.306q.192.142.387.28c.05.036.096-.039.061-.08m-40.996-122.479a40 40 0 0 1-1.023-4.453 62 62 0 0 0-2.042-8.106.05.05 0 0 0-.098.027 61 61 0 0 0 1.947 8.228 35 35 0 0 1 1.022 3.971 32 32 0 0 0 1.038 4.225c.016.041.09.04.085-.012a29 29 0 0 0-.929-3.88m-.381-9.398c-.005-.02-.034-.012-.03.008a25 25 0 0 0 1.156 4.35c.012.032.063.02.053-.015-.413-1.443-.85-2.878-1.18-4.343m-33.624 4.354c.008-.049-.064-.071-.075-.021a14 14 0 0 0-.315 2.003 9.2 9.2 0 0 0 .093 2.02c.007.049.086.037.084-.011a21 21 0 0 1 .213-3.991m24.715-9.017a7 7 0 0 0-1.496-.955c-.026-.013-.05.025-.023.04a8.3 8.3 0 0 1 1.42 1.045 11 11 0 0 1 1.201 1.25c.02.025.06-.006.043-.032a5.7 5.7 0 0 0-1.144-1.348m.244 1.948a15.3 15.3 0 0 0-1.973-1.665c-.043-.03-.099.04-.057.074a20 20 0 0 1 1.886 1.735c.596.612 1.101 1.308 1.7 1.916a.031.031 0 0 0 .049-.038 8.7 8.7 0 0 0-1.605-2.022m.015 2.116q-.28-.322-.57-.636a16 16 0 0 0-1.247-1.17.027.027 0 0 0-.039.038c.386.41.747.842 1.125 1.26q.28.309.549.626a4.2 4.2 0 0 0 .6.603.031.031 0 0 0 .05-.037 3.2 3.2 0 0 0-.467-.684m2.225 2.795a1 1 0 0 0-.098-.133l-.207-.27-.407-.534c-.036-.046-.116-.003-.081.047l.382.56.185.272a1 1 0 0 0 .1.142c.032.035.07.082.121.08a.05.05 0 0 0 .041-.031c.017-.044-.015-.095-.036-.133m-1.257.503-.891-1.278c-.023-.033-.077-.002-.054.031l.887 1.28c.296.427.582.863.898 1.275.018.023.057.003.04-.023-.275-.44-.583-.86-.88-1.285m.011 2.007a8 8 0 0 0-.904-1.254c-.026-.03-.077.01-.055.043.28.424.551.86.804 1.301.253.443.47.904.734 1.342a.027.027 0 0 0 .05-.022 5.5 5.5 0 0 0-.63-1.41m-.676 1.246c-.008-.02-.042-.006-.035.015.21.613.35 1.248.518 1.873.008.029.057.024.054-.007a6 6 0 0 0-.537-1.881m-64.685 25.802a2.6 2.6 0 0 1-.33-1.115c.018-.12.111-.205.139-.32a1.04 1.04 0 0 0-.075-.512 43 43 0 0 1-1.007-4.446c-.006-.032-.053-.023-.054.007a17 17 0 0 0 .249 4.663 1 1 0 0 0 .192.471c.147.153.234.11.386.33a6 6 0 0 1 .473 1.097 10.7 10.7 0 0 0 1.055 1.987.027.027 0 0 0 .047-.028c-.373-.707-.768-1.393-1.075-2.134m1.312 23.4c-.004-.059-.096-.06-.094 0 .06 1.507.104 3.012.26 4.512.005.044.071.046.07 0-.008-1.507-.13-3.008-.236-4.511m-1.732 2.639c-.06-1.307-.165-2.61-.253-3.915a.031.031 0 0 0-.062 0c-.025 1.33-.064 2.66-.06 3.991a22 22 0 0 0 .205 3.86c.018.1.15.06.161-.022a22.5 22.5 0 0 0 .009-3.915m-2.556 2.469a328 328 0 0 0-.198-5.192.02.02 0 0 0-.039 0 334 334 0 0 0-.106 5.294 32 32 0 0 0 .15 5.108c.013.086.128.052.138-.019a33 33 0 0 0 .055-5.191m-2.326-4.008a26.2 26.2 0 0 0-.51 6.474c.006.057.097.08.108.015a63 63 0 0 0 .487-6.478c.003-.047-.077-.06-.085-.011m-.626 8.347-.096 2a13 13 0 0 0-.015 2c.004.04.067.057.077.01a13 13 0 0 0 .162-1.97l.083-2.04c.006-.136-.204-.135-.21 0m-2.375-4.935c-.312 4.178-.793 8.401-.723 12.594a.05.05 0 0 0 .102 0c.532-4.16.523-8.407.675-12.594.002-.036-.052-.035-.054 0m-2.706 3.739c-.256 1.896-.474 3.801-.582 5.712a39 39 0 0 0-.053 5.953.04.04 0 0 0 .078 0c.148-1.94.094-3.895.192-5.84.099-1.942.218-3.882.41-5.818.003-.026-.042-.033-.046-.007m-2.442 5.879c-.238 1.31-.461 2.628-.605 3.952a30 30 0 0 0-.262 4.13.047.047 0 0 0 .094 0c.17-1.318.22-2.65.351-3.972.135-1.37.268-2.738.452-4.103.003-.019-.026-.028-.03-.008m-3.377 1.702c-.155 2.973-.388 5.959-.266 8.936a.04.04 0 0 0 .078 0c.31-2.964.27-5.959.305-8.936a.059.059 0 0 0-.117 0m-2.204 6.449-.041-3.385a.016.016 0 0 0-.032 0l-.154 3.384a60 60 0 0 0-.06 1.693 6.6 6.6 0 0 0 .085 1.571.035.035 0 0 0 .068 0 6.6 6.6 0 0 0 .137-1.571c.01-.565.004-1.128-.003-1.693m-1.876-2.457a14.6 14.6 0 0 0-.437 4.52c.005.039.07.057.077.01.117-.741.142-1.484.2-2.23.06-.766.109-1.531.198-2.295.002-.021-.034-.026-.039-.005m-2.255-1.099q-.04.722-.13 1.44l-.09.717a2.2 2.2 0 0 0-.045.67.043.043 0 0 0 .078.01 1.9 1.9 0 0 0 .147-.656q.047-.355.069-.713.043-.733.034-1.468a.031.031 0 0 0-.063 0m-2.034-2.909c-.033.17-.074.34-.09.513l-.05.522c-.003.026.04.032.046.006l.11-.513c.036-.17.048-.344.068-.516.005-.048-.075-.06-.085-.012m6.808 12.608a183 183 0 0 1-1.04 6.809c-.008.049.063.07.076.02a34 34 0 0 0 1.026-6.82c.001-.035-.057-.044-.062-.009m-4.616 2.043a94 94 0 0 0-2.053 11.838.051.051 0 0 0 .1.014c.863-3.904 1.321-7.9 2.006-11.837.006-.035-.046-.05-.053-.015m-2.426-.689a141 141 0 0 0-2.586 14.401c-.005.044.068.054.077.01.977-4.773 1.684-9.605 2.554-14.399.005-.03-.039-.042-.045-.012m-2.674-.755a81 81 0 0 0-2.12 8.312c-.5 2.707-1.588 5.433-1.559 8.21a.09.09 0 0 0 .176.024c.87-2.676.803-5.6 1.497-8.328.696-2.733 1.288-5.49 2.029-8.212a.012.012 0 0 0-.023-.006m-3.969 3.222-1.618 8.708c-.525 2.825-1.096 5.656-1.46 8.507-.005.048.074.058.085.011.654-2.833 1.1-5.722 1.589-8.588l1.472-8.62c.008-.044-.06-.063-.068-.018m-3.659 5.447c-.96 4.608-2.09 9.22-2.779 13.877-.007.048.063.07.076.02 1.145-4.567 1.861-9.262 2.734-13.888.003-.02-.026-.028-.03-.008m-3.824 4.258c-.69 3.922-1.635 7.784-2.508 11.667a.031.031 0 0 0 .06.017 86 86 0 0 0 2.47-11.678c.003-.015-.02-.021-.022-.006m-3.59 1.46a332 332 0 0 0-2.122 8.606c-.325 1.414-.483 2.83-.827 4.237-.175.717-.356 1.433-.522 2.152a7.1 7.1 0 0 0-.303 2.099c.004.046.07.073.095.025a14.7 14.7 0 0 0 .92-4.096c.262-1.463.707-2.858 1.01-4.314.605-2.898 1.188-5.8 1.795-8.697.006-.029-.038-.042-.045-.012m-4.621 5.763c-.671 2.784-1.37 5.561-2.05 8.343-.68 2.775-1.493 5.557-1.937 8.38a.047.047 0 0 0 .09.026 77 77 0 0 0 2.141-8.324 349 349 0 0 0 1.787-8.417c.004-.02-.025-.028-.03-.008m-4.816 4.538c-1.022 4.502-2.11 8.995-2.988 13.528-.006.03.038.042.045.013 1.106-4.484 2.004-9.02 2.966-13.536.003-.014-.02-.02-.023-.006m-4.131 3.904q-.402 1.99-.853 3.97-.218.954-.44 1.906-.121.513-.246 1.025a1.4 1.4 0 0 0-.098.782.055.055 0 0 0 .091.024 1.4 1.4 0 0 0 .258-.737q.113-.515.223-1.03.203-.96.39-1.92.386-2 .72-4.007c.005-.03-.039-.043-.045-.013m-2.104 9.516c-.154.58-.285 1.165-.426 1.748-.067.28-.145.558-.215.837-.066.264-.197.607-.054.86a.163.163 0 0 0 .253.034c.194-.193.172-.519.191-.775.023-.306.045-.613.088-.918a22 22 0 0 1 .337-1.739.09.09 0 0 0-.173-.047m-2.021-3.585q-.715 2.81-1.46 5.61-.358 1.35-.712 2.7c-.127.484-.259.97-.355 1.461a7 7 0 0 1-.216 1.108.094.094 0 0 0 .115.116c.692-.202.752-1.33.873-1.902.208-.982.388-1.972.58-2.958q.594-3.065 1.213-6.125c.005-.024-.031-.035-.038-.01m-3.911 4.02a352 352 0 0 0-1.168 4.79 30.4 30.4 0 0 0-.933 4.673c-.004.057.075.06.092.013a31 31 0 0 0 1.116-4.707c.322-1.585.623-3.172.923-4.761.004-.02-.025-.028-.03-.008m-4.144 5.706c-.618 1.867-1.253 3.726-1.766 5.625a.027.027 0 0 0 .052.014c.66-1.853 1.197-3.742 1.752-5.628a.02.02 0 0 0-.038-.01m-1.807-9.963a473 473 0 0 1-2.676 9.267c-.22.742-.463 1.477-.692 2.215-.123.393-.116.808-.205 1.21-.087.396-.213.787-.337 1.173a45 45 0 0 1-.83 2.303c-.219.577-.659 1.288-.514 1.916a.063.063 0 0 0 .104.027c.485-.426.539-1.267.69-1.866.2-.788.393-1.58.623-2.36.224-.755.58-1.441.837-2.175.265-.758.433-1.577.651-2.353.874-3.095 1.654-6.214 2.394-9.344a.023.023 0 0 0-.045-.013m-6.11 7.665q-.913 3.22-1.905 6.418a59 59 0 0 0-1.824 6.44c-.016.084.11.154.15.063a40.5 40.5 0 0 0 1.99-6.29q.86-3.298 1.635-6.619a.023.023 0 0 0-.046-.012m-5.444 6.717q-.755 1.526-1.464 3.074a12.6 12.6 0 0 0-1.133 3.133.067.067 0 0 0 .121.05 16 16 0 0 0 1.302-3.06q.581-1.6 1.21-3.182c.008-.02-.026-.034-.036-.015m-4.184 2.886a19 19 0 0 1-1.154 2.04 10.4 10.4 0 0 0-1.141 1.992c-.034.092.088.141.15.088a5.7 5.7 0 0 0 1.301-1.943c.334-.703.63-1.424.908-2.15.014-.037-.047-.063-.064-.027m-4.927 2.471a8.4 8.4 0 0 1-.706.93 4 4 0 0 0-.362.49 1.2 1.2 0 0 0-.126.277 1.3 1.3 0 0 0-.03.282.067.067 0 0 0 .084.064 1.2 1.2 0 0 0 .249-.094.9.9 0 0 0 .235-.21 2.5 2.5 0 0 0 .335-.556 12 12 0 0 0 .406-1.147.047.047 0 0 0-.085-.036m67.723-104.122-.5-3.207c-.345-2.217-.724-4.428-1.102-6.64-.016-.09-.173-.07-.161.021.274 2.16.546 4.32.853 6.475l.458 3.218a15 15 0 0 0 .67 3.417.055.055 0 0 0 .107-.015 14 14 0 0 0-.325-3.27m-2.293 1.302c-.173-1.04-.355-2.08-.52-3.12a272 272 0 0 1-.909-6.136c-.003-.026-.048-.02-.046.006.186 2.1.407 4.194.685 6.284.125.945.252 1.89.398 2.832a12.2 12.2 0 0 0 .635 2.99c.026.062.113.024.116-.031a13 13 0 0 0-.36-2.825m-2.432.854c-.267-1.559-.566-3.112-.851-4.667-.004-.02-.033-.011-.03.008.231 1.538.448 3.08.698 4.615a45 45 0 0 0 .82 4.58c.01.033.064.028.062-.008a44 44 0 0 0-.699-4.529m-2.246 1.929a64 64 0 0 0-.683-3.698c-.009-.04-.066-.022-.06.017.18 1.222.348 2.446.521 3.669.173 1.217.292 2.444.54 3.649a.047.047 0 0 0 .091-.013 29 29 0 0 0-.409-3.624m-3.218 2.254a.02.02 0 0 0-.038.01l.284 1.037a.012.012 0 0 0 .022-.006zm-23.603-40.28a107 107 0 0 0-.543 11.49.063.063 0 0 0 .125 0 108 108 0 0 0 .472-11.49c.001-.035-.052-.034-.054 0m-2.311 2.673q-.319 2.249-.564 4.507a20.8 20.8 0 0 0-.19 4.688c.006.048.08.069.092.012a28.5 28.5 0 0 0 .406-4.52q.132-2.34.348-4.674c.005-.052-.084-.065-.092-.013m-2.544 3.58q-.251 1.717-.468 3.44a20.3 20.3 0 0 0-.3 3.577c.004.06.093.078.108.015a26 26 0 0 0 .369-3.455q.153-1.787.345-3.57c.003-.03-.05-.038-.054-.007m-2.621 3.83a20 20 0 0 1-.568 3.457.031.031 0 0 0 .06.016 10 10 0 0 0 .61-3.473.05.05 0 0 0-.102 0m-6.196-1.15c0-.015-.023-.015-.023 0a12 12 0 0 1-.202 2.315 5.4 5.4 0 0 0-.2 1.036c.004.167.092.33.1.493a3.2 3.2 0 0 1-.102.707c-.131.698-.293 1.39-.441 2.085a4.7 4.7 0 0 0-.165 2.059.118.118 0 0 0 .215.028 4.9 4.9 0 0 0 .375-2.116c.034-.707.048-1.419.11-2.124a4 4 0 0 1 .058-.479c.054-.243.202-.444.255-.683a5.4 5.4 0 0 0 .042-.973 22 22 0 0 0-.022-2.348m-2.708 3.317c-.192 1.404-.389 2.807-.556 4.214-.086.716-.18 1.43-.253 2.147a5.7 5.7 0 0 0-.055 2.084.075.075 0 0 0 .136.018 5.2 5.2 0 0 0 .325-1.854c.071-.742.117-1.486.17-2.23.107-1.457.184-2.916.264-4.375 0-.018-.028-.022-.03-.004m-3.026 5.087a34.5 34.5 0 0 0-.952 5.133c-.004.059.084.066.1.013a34.4 34.4 0 0 0 .95-5.12c.009-.062-.083-.092-.098-.026m-3.921 3.835c-.354 1.328-.732 2.65-1.098 3.974-.018.065.074.085.098.027a17 17 0 0 0 1.113-3.97c.011-.072-.093-.105-.113-.03m5.771-38.657c0-.01-.015-.01-.016 0-.308 2.838-.532 5.689-.604 8.543a56 56 0 0 0 .234 8.556.04.04 0 0 0 .078 0c.064-2.85-.105-5.704-.063-8.556s.149-5.7.371-8.543m-2.278 7.013a.035.035 0 0 0-.07 0l-.153 6.639c-.024 1.065-.033 2.13-.046 3.196a24.4 24.4 0 0 0 .07 3.442c.006.05.09.076.1.014a23 23 0 0 0 .128-3.21c.006-1.106.017-2.213.01-3.32zm-1.948 12.564q-.054-1.285-.082-2.57-.058-2.57.058-5.14c0-.02-.03-.02-.032 0q-.224 2.565-.282 5.14-.026 1.285.01 2.57a9.5 9.5 0 0 0 .241 2.382c.011.038.077.044.083 0a12.5 12.5 0 0 0 .004-2.382m-2.105 2.605c.004-.607-.004-1.214-.01-1.822l-.04-3.644a.027.027 0 0 0-.055 0l-.047 3.644c-.008.608-.017 1.215-.015 1.823a13 13 0 0 0 .052 1.69.031.031 0 0 0 .06 0 13 13 0 0 0 .055-1.69m-2.212-1.723c.002-.78-.01-1.562-.001-2.343 0-.026-.036-.024-.04 0a22 22 0 0 0-.202 2.343 9 9 0 0 0 .114 2.267c.009.039.076.043.082 0a17 17 0 0 0 .047-2.267m.062 6.115c-.026-.205-.048-.409-.078-.613a7 7 0 0 1-.067-1.203c.004-.15-.245-.191-.269-.036a10 10 0 0 0-.112 1.256 4 4 0 0 0 .044.639.6.6 0 0 0 .272.516.09.09 0 0 0 .109-.014.54.54 0 0 0 .112-.222.8.8 0 0 0-.011-.323m-2.732-2.838-.144 2.473c-.024.412-.054.824-.067 1.236a5.3 5.3 0 0 0 .017 1.154.047.047 0 0 0 .09 0 5.3 5.3 0 0 0 .095-1.154c.015-.412.013-.824.017-1.236l.023-2.473a.016.016 0 0 0-.03 0m-2.116 2.677c-.137 1.236-.266 2.464-.313 3.707-.002.035.056.044.061.009.166-1.236.251-2.472.33-3.716.002-.051-.074-.05-.079 0m31.018 29.488c-.116.98-.233 1.958-.328 2.94-.003.021.035.026.038.005.142-.98.263-1.962.384-2.945.007-.06-.087-.06-.094 0m-1.807-.395a37 37 0 0 0-.677 8.194c.008.108.172.145.2.027a36.8 36.8 0 0 0 .568-8.209c0-.05-.084-.066-.092-.012m-2.164 1.804a.027.027 0 0 0-.054-.007c-.132.388-.42.693-.526 1.1a4.3 4.3 0 0 0-.08 1.146c.016.753.08 1.49.025 2.244q-.084 1.126-.202 2.248c-.043.404-.094.807-.13 1.211a1.6 1.6 0 0 0 .07.92.107.107 0 0 0 .182 0 1.67 1.67 0 0 0 .163-.92c.01-.346.011-.692.02-1.038q.027-1.17.144-2.335a18 18 0 0 1 .478-2.314 4.3 4.3 0 0 0 .158-1.05c-.01-.42-.216-.796-.248-1.205m-2.679 7.079c.14-1.039.214-2.079.251-3.126.003-.073-.118-.092-.13-.017a31 31 0 0 0-.365 3.023c-.034.52-.06 1.043-.11 1.562a3.6 3.6 0 0 1-.11.811c-.1.286-.265.43-.245.752a.287.287 0 0 0 .56.076 1.3 1.3 0 0 0-.072-.717 2.7 2.7 0 0 1 .026-.802c.052-.522.126-1.042.195-1.562m-2.124-.326c-.216.79-.461 1.568-.627 2.371-.08.387-.153.78-.196 1.173a4 4 0 0 0-.038.624 2 2 0 0 0 .022.237 1.2 1.2 0 0 0 .1.234.095.095 0 0 0 .172.022 1.3 1.3 0 0 0 .139-.215 2 2 0 0 0 .081-.297c.036-.17.047-.344.067-.516.046-.398.072-.8.104-1.2.063-.807.102-1.62.221-2.42.005-.03-.037-.043-.045-.013m-3.722 3.187a15.7 15.7 0 0 0-.65 3.842.055.055 0 0 0 .107.014 15.8 15.8 0 0 0 .634-3.844c.005-.052-.08-.063-.092-.012m32.349-31.775c-.286 2.006-.638 4.009-.99 6.004-.01.059.074.084.09.025a28.6 28.6 0 0 0 .938-6.024c.002-.022-.035-.027-.038-.005m-2.044-.001c-.236 1.735-.512 3.464-.776 5.195-.256 1.673-.586 3.344-.745 5.03-.005.058.086.068.1.014a44 44 0 0 0 .907-5.18c.234-1.678.401-3.367.56-5.053.003-.026-.042-.032-.046-.006m-2.621 2.919a47 47 0 0 0-.864 4.267c-.1.653-.194 1.309-.266 1.966a7.8 7.8 0 0 0-.126 2.12c.02.115.18.093.211 0a9 9 0 0 0 .248-1.96c.076-.695.151-1.39.242-2.084.186-1.431.398-2.862.645-4.284.01-.058-.076-.084-.09-.025m-2.767 3.078c-.216 1.032-.35 2.074-.5 3.117-.075.513-.144 1.029-.244 1.537q-.073.38-.17.757a3.3 3.3 0 0 0-.165.724c-.003.123.16.126.2.027a3.6 3.6 0 0 0 .146-.825q.056-.356.122-.708c.099-.528.212-1.052.308-1.58a19 19 0 0 0 .35-3.043.024.024 0 0 0-.047-.006m-3.261 3.073a16 16 0 0 0-.694 3.189c-.003.047.062.049.076.01a16 16 0 0 0 .655-3.189c.004-.024-.03-.035-.037-.01M82.426 222.61l-.13-.51a.016.016 0 0 0-.031.008l.123.512c.041.17.073.345.128.51a.02.02 0 0 0 .037-.01c-.03-.172-.083-.342-.127-.51m-1.228 1.518c-.148-.559-.328-1.11-.49-1.665a.074.074 0 0 0-.142.04c.104.57.189 1.146.307 1.714a6 6 0 0 0 .495 1.61.06.06 0 0 0 .11-.029 6 6 0 0 0-.28-1.67m-1.251 1.732a36 36 0 0 0-.711-2.486c-.013-.04-.082-.036-.077.01.087.854.196 1.701.344 2.547a8 8 0 0 0 .67 2.467.079.079 0 0 0 .146-.04 8 8 0 0 0-.372-2.499m-1.175 1.973a14.6 14.6 0 0 0-.708-2.28.031.031 0 0 0-.06.016c.155.768.29 1.54.446 2.307a18 18 0 0 0 .482 2.284.063.063 0 0 0 .123-.016 8.2 8.2 0 0 0-.283-2.311m-1.534 1.276a.031.031 0 0 0-.06.016c.18.775.344 1.554.597 2.309a.031.031 0 0 0 .06-.017c-.145-.783-.379-1.543-.597-2.308m-.661 4.225a3.4 3.4 0 0 1-.016-.632c.003-.036-.05-.034-.054 0a3.4 3.4 0 0 0-.02.656 2.3 2.3 0 0 0 .146.627.023.023 0 0 0 .046-.012 6 6 0 0 1-.102-.639m20.021-7.406c-.007-.04-.067-.022-.06.017.09.594.172 1.19.296 1.78.005.025.05.02.046-.007-.069-.6-.18-1.194-.282-1.79m-1.286.003c-.007-.03-.057-.025-.053.006a25.4 25.4 0 0 0 .836 4.745c.018.06.119.053.115-.016a25.3 25.3 0 0 0-.898-4.736m-.187 5.016q-.331-1.619-.688-3.234a.043.043 0 0 0-.084.012 18.6 18.6 0 0 0 1.252 6.402c.021.05.116.053.107-.014-.134-1.067-.372-2.115-.587-3.166m-.669 2.569c-.308-1.166-.595-2.338-.897-3.506-.008-.033-.065-.028-.061.008a30 30 0 0 0 .613 3.593 16 16 0 0 0 1.103 3.472c.032.064.117.015.107-.046a35 35 0 0 0-.865-3.52m-.845 2.685c-.328-1.21-.591-2.44-.971-3.634-.01-.032-.064-.029-.061.008a24.4 24.4 0 0 0 .696 3.718 19 19 0 0 0 1.165 3.599c.029.06.11.015.1-.042-.225-1.234-.6-2.441-.929-3.65m-.483 4.368-.579-1.781c-.4-1.234-.83-2.459-1.25-3.686a.035.035 0 0 0-.069.019c.35 1.247.69 2.497 1.06 3.738l.535 1.793a7.2 7.2 0 0 0 .65 1.779.067.067 0 0 0 .124-.034 7.2 7.2 0 0 0-.471-1.828m-1.949 1.095a32 32 0 0 1-.778-2.597c-.009-.035-.058-.02-.053.015a19 19 0 0 0 .592 2.697 9.6 9.6 0 0 0 1.046 2.473.055.055 0 0 0 .1-.042c-.24-.865-.62-1.696-.907-2.546m-2.306-.43a.023.023 0 0 0-.045.013c.409 1.982.86 3.953 1.409 5.902a.031.031 0 0 0 .06-.017c-.396-1.985-.889-3.946-1.424-5.898m-15.299 63.625c-1.466-1.179-2.95-2.334-4.432-3.492-.012-.01-.029.007-.017.017 1.471 1.172 2.94 2.346 4.427 3.497.016.012.038-.009.022-.022m10.293 3.74c-3.718-3.418-7.72-6.504-11.652-9.665-.031-.025-.074.015-.045.044a81 81 0 0 0 11.611 9.73c.067.045.144-.056.086-.11m4.048-1.066q-.735-.665-1.473-1.329-1.56-1.404-3.106-2.824a77 77 0 0 0-6.08-5.3c-.052-.039-.108.042-.067.085 1.887 1.965 4.013 3.67 6.04 5.486.985.881 1.969 1.765 2.936 2.666q.768.715 1.533 1.433a8 8 0 0 0 1.435 1.233c.071.04.167-.043.117-.117a7.7 7.7 0 0 0-1.335-1.333m4.912.01c-.483-.448-.979-.883-1.46-1.333-.939-.879-1.835-1.8-2.747-2.705a41.7 41.7 0 0 0-5.622-5.142c-.023-.015-.045.018-.029.037 1.68 1.92 3.687 3.472 5.51 5.246.898.873 1.791 1.752 2.616 2.695q.619.711 1.208 1.448c.275.343.635.981 1.133.943a.12.12 0 0 0 .117-.089c.07-.47-.41-.808-.726-1.1m4.209-.068c-.407-.348-.828-.68-1.215-1.05-.818-.78-1.62-1.575-2.416-2.378-1.573-1.587-3.185-3.122-4.896-4.56a.027.027 0 0 0-.039.04c1.52 1.636 3.137 3.165 4.803 4.652.822.732 1.636 1.47 2.439 2.223.39.366.75.76 1.115 1.149a4.7 4.7 0 0 0 1.2 1.086.063.063 0 0 0 .085-.085 4.5 4.5 0 0 0-1.076-1.077m.676-2.886c-.635-.6-1.27-1.2-1.918-1.787-.649-.588-1.317-1.152-1.984-1.72-.038-.032-.092.02-.055.055.639.597 1.275 1.196 1.932 1.773.658.578 1.328 1.142 1.998 1.707.019.015.046-.01.027-.028m3.882 3.48-.828-.747c-.545-.491-1.075-.998-1.607-1.503l-.005.006c.518.518 1.039 1.033 1.544 1.564l.747.785a4 4 0 0 0 .794.712.047.047 0 0 0 .064-.064 3.7 3.7 0 0 0-.709-.753m4.276-1.597c-.326-.261-.73-.386-1.047-.662-.617-.54-1.181-1.154-1.767-1.727a96 96 0 0 0-3.567-3.328.047.047 0 0 0-.066.066 96 96 0 0 0 3.453 3.441c.58.552 1.179 1.09 1.743 1.657a9 9 0 0 1 .696 1 1.44 1.44 0 0 0 .873.527.138.138 0 0 0 .168-.168 1.48 1.48 0 0 0-.486-.806m5.92.218a3.22 3.22 0 0 0-1.5-1.483 11.7 11.7 0 0 1-1.921-1.672 32.5 32.5 0 0 0-3.45-3.226c-.016-.012-.04.011-.028.026a27 27 0 0 0 3.352 3.325 13.6 13.6 0 0 1 1.718 1.723 3.4 3.4 0 0 0 1.657 1.48.142.142 0 0 0 .173-.173m.105-6.173a3.6 3.6 0 0 0-1.212-.933.087.087 0 0 0-.097.127 8 8 0 0 0 1.049 1.065c.355.357.74.683 1.091 1.044a.047.047 0 0 0 .074-.057 6.3 6.3 0 0 0-.905-1.246m4.931 4.744c-.012-.028-.03-.05-.042-.078l.034.125c-.028-.25-.282-.425-.472-.568-.165-.123-.347-.225-.515-.344l-.116-.083c-.046-.035-.091-.05-.12-.075q-.116-.1-.23-.203a4.5 4.5 0 0 1-.435-.452c-.086-.104-.274.038-.19.147.132.171.259.346.391.516.067.086.138.167.204.253.033.044.056.093.09.137l.112.14a3 3 0 0 0 .454.491 2 2 0 0 0 .282.2 1 1 0 0 0 .184.08.35.35 0 0 0 .16.004l-.053.008.086.009a.207.207 0 0 0 .176-.307m2.114-2.006c-.293-.217-.608-.407-.914-.607-.034-.022-.065.032-.032.054.304.202.603.417.919.6.031.019.055-.026.027-.047M9.932 296.727c-1.79-1.379-3.653-2.645-5.544-3.877-.017-.011-.032.015-.016.027 1.845 1.299 3.67 2.625 5.528 3.904.034.023.063-.03.032-.054m9.7 3.597a32 32 0 0 0-3.445-2.897c-1.22-.953-2.434-1.914-3.652-2.87-2.348-1.84-4.692-3.684-7.065-5.492-.025-.019-.056.022-.033.043 2.266 2.044 4.596 4.002 6.965 5.925a259 259 0 0 0 3.54 2.81 28 28 0 0 0 3.62 2.573.059.059 0 0 0 .07-.092m4.972-.635c-.627-.546-1.238-1.11-1.86-1.662-1.243-1.103-2.475-2.218-3.73-3.308-2.46-2.138-4.897-4.26-7.539-6.175-.028-.02-.065.026-.038.05 2.497 2.134 5.089 4.151 7.582 6.287a140 140 0 0 1 3.658 3.213c.582.535 1.17 1.067 1.736 1.618a10.6 10.6 0 0 0 1.751 1.63c.058.035.137-.036.097-.096a9 9 0 0 0-1.657-1.557m6.376.606c-.57-.523-1.128-1.058-1.69-1.588-1.155-1.088-2.3-2.186-3.451-3.277-2.305-2.185-4.615-4.358-7.035-6.416-.022-.019-.055.012-.033.034 2.275 2.212 4.628 4.338 6.959 6.49 1.135 1.05 2.27 2.1 3.387 3.168.588.563 1.18 1.122 1.756 1.695a9.2 9.2 0 0 0 1.614 1.508.047.047 0 0 0 .065-.064 9 9 0 0 0-1.573-1.55m6.742 1.383q-.8-.733-1.596-1.47c-1.035-.954-2.038-1.942-3.041-2.93q-3.009-2.96-6.053-5.886c-.022-.02-.055.012-.034.033q3.029 2.942 6.022 5.918a95 95 0 0 1 2.866 2.943q.736.798 1.464 1.603c.375.416.765.995 1.326 1.151a.083.083 0 0 0 .101-.1c-.141-.535-.662-.902-1.055-1.262m6.743 1.832a11.8 11.8 0 0 0-2.22-2.507q-1.28-1.263-2.562-2.525-2.529-2.49-5.096-4.937a.031.031 0 0 0-.045.044q2.372 2.644 4.795 5.239l2.384 2.562a12.1 12.1 0 0 0 2.508 2.358.173.173 0 0 0 .236-.235m5.767.024a3.3 3.3 0 0 0-.784-1.05q-.566-.603-1.137-1.203a116 116 0 0 0-2.25-2.31c-1.525-1.516-3.116-2.964-4.717-4.4a.05.05 0 0 0-.072.071c1.466 1.534 2.9 3.097 4.36 4.636.72.759 1.444 1.513 2.164 2.272q.54.568 1.077 1.14a4.1 4.1 0 0 0 1.13 1.02c.11.052.283-.036.23-.176m4.179-.283q-.488-.491-.978-.98a124 124 0 0 1-1.93-1.985 122 122 0 0 0-3.926-3.908.07.07 0 0 0-.1.1 122 122 0 0 0 3.864 3.969q.965.938 1.91 1.898l.969.989a7.4 7.4 0 0 0 .958.912c.048.033.113-.033.08-.08a7 7 0 0 0-.847-.915m3.529-.816q-.646-.665-1.295-1.327-1.296-1.327-2.578-2.666c-.014-.015-.035.007-.022.022q1.236 1.387 2.462 2.783.594.68 1.189 1.358a8.7 8.7 0 0 0 1.296 1.274c.051.038.117-.035.086-.086a8.5 8.5 0 0 0-1.137-1.358m5.116.558a37 37 0 0 1-1.47-1.581 35 35 0 0 0-2.964-3.056.027.027 0 0 0-.039.04 46 46 0 0 0 2.915 3.104c.498.487.975 1.007 1.436 1.53a9.6 9.6 0 0 0 1.403 1.49c.03.021.065-.02.048-.048a8.7 8.7 0 0 0-1.33-1.48m4.046.287a19.5 19.5 0 0 1-2.536-2.684c-.024-.032-.078-.001-.054.031a14.4 14.4 0 0 0 2.557 2.687c.023.018.056-.013.033-.034m6.174-60.439c-.324-.552-.679-1.082-1.02-1.623a.05.05 0 0 0-.088.051c.285.574.555 1.153.859 1.717a18 18 0 0 0 1.036 1.613.031.031 0 0 0 .054-.031 18 18 0 0 0-.841-1.727m2.214 3.921-.127-.2-.251-.395a.11.11 0 0 0-.15-.039.11.11 0 0 0-.04.15l.264.387.13.19a.5.5 0 0 0 .077.097l.09.08c.04.037.117.002.097-.056a1 1 0 0 0-.09-.214m-.112 3.614c-.287-.608-.68-1.165-1.01-1.75-.319-.569-.635-1.138-.957-1.704a62 62 0 0 0-2.063-3.398.059.059 0 0 0-.101.059 152 152 0 0 0 1.986 3.443c.33.561.662 1.122.984 1.688.334.584.602 1.21.965 1.776a.113.113 0 0 0 .196-.114m-1.575 1.763q-.591-1.038-1.18-2.077a47 47 0 0 0-2.549-4.242.02.02 0 0 0-.034.02 47 47 0 0 0 2.411 4.322l1.213 2.058c.429.729.799 1.524 1.292 2.21a.07.07 0 0 0 .121-.07c-.35-.77-.856-1.487-1.274-2.22m.304 5.454c-.772-1.486-1.691-2.902-2.498-4.371-.81-1.473-1.612-2.945-2.525-4.356a.04.04 0 0 0-.068.039c.75 1.505 1.606 2.946 2.461 4.393.853 1.443 1.603 2.956 2.488 4.378a.082.082 0 0 0 .142-.083m-1.62 1.081q-.614-.953-1.187-1.933a71 71 0 0 1-2.187-4.054c-.021-.041-.08-.005-.061.035a45 45 0 0 0 2.151 4.16q.59 1.012 1.225 1.996a13 13 0 0 0 1.272 1.804c.028.03.073-.008.055-.042-.362-.687-.848-1.312-1.268-1.966m-3.04.036c-.021-.041-.08-.005-.061.035a21 21 0 0 0 1.982 3.48c.026.037.084.005.06-.035-.678-1.15-1.375-2.29-1.981-3.48m70.715-67.772c-.365 1.096-.716 2.204-.985 3.328-.132.552-.228 1.114-.357 1.668a10 10 0 0 1-.24.85.77.77 0 0 0-.034.616.14.14 0 0 0 .215.027.8.8 0 0 0 .232-.587 9 9 0 0 1 .199-.934c.133-.53.3-1.053.428-1.584.267-1.106.459-2.234.633-3.36a.047.047 0 0 0-.09-.024m-3.013 3.206c-.077.221-.193.426-.286.64a5 5 0 0 0-.21.669 6 6 0 0 0-.119.676q-.059.351-.14.698a.023.023 0 0 0 .045.012c.084-.224.17-.446.269-.665a6 6 0 0 0 .272-.631 5 5 0 0 0 .188-.657c.04-.236.056-.474.116-.705a.07.07 0 0 0-.136-.037m-.894 3.438a3.5 3.5 0 0 0-.378.666 2.4 2.4 0 0 0-.206.726c-.009.095.156.119.17.023a5 5 0 0 1 .132-.721 2.8 2.8 0 0 1 .309-.678c.01-.018-.015-.032-.027-.016m38.355-75.689c-.005-.059-.095-.06-.094 0a44 44 0 0 1-.03 2.236c-.023.745-.088 1.485-.075 2.231a.027.027 0 0 0 .054.007 15.2 15.2 0 0 0 .145-4.474m.005 7.805a7 7 0 0 1 .108-1.125c.034-.205-.276-.296-.316-.087-.073.387-.113.776-.152 1.167q-.028.288-.039.577a1.4 1.4 0 0 0 .072.598.166.166 0 0 0 .318 0 1.8 1.8 0 0 0 .026-.576q-.017-.277-.017-.554m-2.21-5.893q-.272 1.488-.412 2.995a12 12 0 0 0-.009 3.017c.007.043.065.026.07-.01.116-.976.082-1.966.125-2.948q.065-1.526.271-3.041c.004-.03-.04-.043-.045-.013m-3.36 2.034c-.158.514-.33 1.026-.458 1.548a.027.027 0 0 0 .053.014c.183-.505.325-1.026.48-1.541a.04.04 0 0 0-.075-.02m67.257-25.156c-.015-.06-.101-.034-.09.025a37 37 0 0 0 1.116 5.24c.015.048.097.044.092-.012a37 37 0 0 0-1.118-5.253m-1.835 4.961q-.565-2.682-1.206-5.348c-.007-.03-.05-.016-.045.013q.49 2.655.91 5.322a31.3 31.3 0 0 0 .992 5.285.07.07 0 0 0 .138-.019 23.7 23.7 0 0 0-.79-5.253m-5.281 4.396c-.123-.858-.269-1.711-.413-2.565-.281-1.67-.614-3.331-.933-4.994-.004-.022-.04-.017-.038.005.182 1.63.388 3.257.662 4.875.14.82.289 1.64.47 2.45.188.836.32 1.708.565 2.527.007.024.049.021.046-.006-.072-.765-.25-1.53-.359-2.292m29.291-36.274c.002-.018-.028-.022-.03-.004a22 22 0 0 0-.203 2.687 12.4 12.4 0 0 0 .304 2.686c.009.042.08.033.076-.01a36 36 0 0 1-.147-5.36m-2.446 5.105c-.08-1.617-.208-3.235-.312-4.852a.02.02 0 0 0-.04 0c-.028 1.649-.084 3.3-.08 4.948a30 30 0 0 0 .251 4.78c.017.099.152.061.162-.022a30 30 0 0 0 .019-4.853m-2.402-2.426a.02.02 0 0 0-.04 0 47.3 47.3 0 0 0 .205 10.353c.008.05.084.035.085-.011.077-3.444-.205-6.897-.25-10.342m-2.568 8.368q-.207-2.842-.338-5.689a.02.02 0 0 0-.039 0q.055 2.901.185 5.8a44 44 0 0 0 .47 5.577c.006.04.068.03.068-.009.009-1.893-.209-3.792-.346-5.68m-2.462-2.112a.031.031 0 0 0-.062 0c.014 3.098-.093 6.228.12 9.32a.031.031 0 0 0 .062 0c.134-3.097-.054-6.222-.12-9.32m-2.355 4.723a.035.035 0 0 0-.07 0c.018 2.002.029 4 .149 6a.04.04 0 0 0 .078 0c.018-2.003-.073-4-.157-6m-2.656 5.095c-.09.606-.19 1.21-.27 1.817-.075.59-.131 1.182-.197 1.772-.003.03.05.038.054.008.092-.587.194-1.174.274-1.762.083-.607.144-1.217.216-1.825.005-.043-.07-.053-.077-.01m65.568-70.747-.034-1.331q-.019-.667-.046-1.332c-.009-.23-.012-.462-.03-.691a3 3 0 0 0-.044-.316c.185-.113-.05-.351-.232-.216-.178.133-.139.385-.139.581 0 .313.016.625.025.938q.027.912.067 1.825l.039.937a1.6 1.6 0 0 0 .168.825.07.07 0 0 0 .12 0 2.4 2.4 0 0 0 .106-1.22m-2.188 3.411a60 60 0 0 1-.004-2.115 16 16 0 0 0-.178-4.069c-.004-.014-.022-.009-.023.003a27 27 0 0 0 .092 4.147c.019.677.018 1.358-.015 2.034-.035.703-.18 1.412-.17 2.115a.178.178 0 0 0 .356 0 19 19 0 0 0-.058-2.115m-1.97 5.469c-.014-.988-.1-1.97-.096-2.96.004-.958.022-1.914.034-2.871.007-.478.002-.957 0-1.435a3.7 3.7 0 0 0-.125-1.352.022.022 0 0 0-.041 0 6.1 6.1 0 0 0-.128 2.159c-.001.778.026 1.555.03 2.332.003.777.02 1.556.001 2.333q-.012.54-.052 1.076c-.013.18-.028.359-.035.539q-.008.18-.009.359a.2.2 0 0 0-.017.07.06.06 0 0 0-.064.034l-.026.051a.11.11 0 0 0 0 .109.266.266 0 0 0 .334.127c.223-.088.196-.38.194-.57m-2.771-.662c.017-.912.086-1.82.151-2.73.03-.42.06-.84.072-1.26.002-.081-.082-1.11-.065-1.123-.014.01-.007.034.012.029l.033-.01a.02.02 0 0 0 .017-.02c.001-.071.003-.064-.053-.106a.04.04 0 0 0-.041 0 .76.76 0 0 0-.24.555 9 9 0 0 0-.085 1.305c-.02.98.026 1.96.03 2.94q.01 1.47-.007 2.941c-.01.882-.11 1.792-.052 2.676-.043-.013-.087-.022-.13-.038-.065-.024-.103.064-.063.108a2 2 0 0 1 .234.293.196.196 0 0 0 .362-.098c.037-.906-.125-1.824-.16-2.73a47 47 0 0 1-.015-2.732m-2.526 5.93a30 30 0 0 1 .024-2.409c.066-1.575.47-3.263.136-4.82-.003-.016-.025-.014-.03 0-.504 1.513-.23 3.25-.221 4.82.004.804.01 1.606-.02 2.41a29 29 0 0 1-.07 1.297 1.4 1.4 0 0 0 .077.968.08.08 0 0 0 .138 0 1.42 1.42 0 0 0 .05-.968 20 20 0 0 1-.083-1.297m-2.406-3.391a.031.031 0 0 0-.063 0c-.138 1.55-.161 3.11-.22 4.663-.03.748-.045 1.498-.102 2.245-.03.403-.077.806-.115 1.209a.9.9 0 0 0 .116.744.077.077 0 0 0 .108 0 .93.93 0 0 0 .163-.744c-.01-.403-.03-.806-.033-1.209-.007-.748.03-1.497.051-2.245.045-1.552.128-3.11.095-4.663m-2.775 3.26c-.002-.025-.04-.035-.045-.007a28.6 28.6 0 0 0-.309 4.226c-.029.731-.048 1.464-.095 2.194-.04.623-.18 1.275-.183 1.905q-.03-.01-.057-.022c-.061-.028-.147.033-.102.101q.09.127.167.263c.064.158.343.215.38 0a14 14 0 0 0 .029-2.078c.012-.732.07-1.464.11-2.194a30 30 0 0 0 .106-4.389m-2.575 4.908c-.136 1.069-.242 2.14-.351 3.213q-.082.787-.167 1.576-.042.394-.077.788a1.1 1.1 0 0 1-.058.39 1 1 0 0 0-.074.08c-.014.016-.009.016-.013.023-.005.005-.014.001-.018.007a.172.172 0 0 0 .067.25c.14.076.293-.032.373-.143a1.54 1.54 0 0 0 .122-.789c.023-.363.034-.727.048-1.091.059-1.435.14-2.869.168-4.304 0-.013-.018-.012-.02 0m-2.798 3.563c-.163.76-.345 1.515-.536 2.269-.094.37-.181.74-.272 1.111a4 4 0 0 0-.177 1.115.08.08 0 0 0 .149.04 3.7 3.7 0 0 0 .307-1.032q.116-.584.214-1.173c.126-.771.242-1.544.364-2.316.005-.031-.042-.046-.05-.013m-2.929 3.444q-.211.627-.425 1.252-.104.306-.19.619a1.5 1.5 0 0 0-.105.591.043.043 0 0 0 .071.019 1.5 1.5 0 0 0 .229-.556q.094-.31.171-.625.154-.642.313-1.282a.033.033 0 0 0-.064-.018m-21.028-7.47a17 17 0 0 1-.555-1.973.03.03 0 0 0-.057.008 7.8 7.8 0 0 0 .41 2.056 6.1 6.1 0 0 0 .925 1.827c.021.027.072-.002.059-.034-.255-.632-.549-1.243-.782-1.884m38.451 30.955c-.002-.012-.024-.01-.023.004.287 2.4.477 4.793.99 7.16a.041.041 0 0 0 .081-.01c-.168-2.417-.653-4.768-1.048-7.153m-1.632 6.191c-.352-1.906-.799-3.787-1.209-5.68-.006-.028-.045-.015-.041.011.276 1.89.512 3.783.845 5.665a36 36 0 0 0 1.156 5.58.055.055 0 0 0 .107-.015 36 36 0 0 0-.858-5.56m-1.834 5.949a43 43 0 0 1-.52-2.864c-.285-1.926-.62-3.827-1.092-5.716-.012-.046-.091-.037-.085.012.236 1.899.594 3.765 1.018 5.632.215.944.404 1.898.556 2.855a11.2 11.2 0 0 0 .48 2.785c.042.094.173.038.178-.048a10.5 10.5 0 0 0-.535-2.656m-1.995 5.101a39 39 0 0 1-.639-3.222 48 48 0 0 0-1.22-6.335c-.009-.029-.057-.025-.054.007a45 45 0 0 0 1.092 6.126c.228 1.03.42 2.071.567 3.116.073.527.128 1.055.2 1.582a3 3 0 0 0 .38 1.425.073.073 0 0 0 .133-.018c.236-.805-.266-1.894-.458-2.681m-2.414 4.211a44 44 0 0 1-.616-3.178c-.341-2.088-.599-4.193-1-6.271a.035.035 0 0 0-.07.01 50 50 0 0 0 .876 6.19c.193 1.022.397 2.042.572 3.067a13.2 13.2 0 0 0 .624 3.094c.056.127.259.059.255-.07a14.2 14.2 0 0 0-.64-2.842m-2.284 4.808q-.135-.624-.25-1.25-.258-1.417-.477-2.84a114 114 0 0 0-.983-5.559c-.006-.028-.046-.015-.042.012.255 1.835.555 3.651.9 5.472q.257 1.361.48 2.728.119.728.21 1.46a2.8 2.8 0 0 0 .225 1.071.043.043 0 0 0 .079-.01 2.8 2.8 0 0 0-.142-1.084M291.2 99.22q-.226-.816-.406-1.643a41 41 0 0 1-.58-3.384c-.004-.024-.041-.025-.04 0a24 24 0 0 0 .451 3.366q.178.86.406 1.707a9 9 0 0 0 .51 1.563c.027.057.107.015.096-.04-.101-.532-.293-1.048-.438-1.57m-2.759-1.199a.014.014 0 0 0-.028 0 13.7 13.7 0 0 0 .76 4.862.027.027 0 0 0 .052-.014 27.6 27.6 0 0 1-.785-4.848m-1.389 5.462q-.08-.369-.172-.735c-.124-.478-.26-.952-.383-1.43-.008-.032-.055-.019-.049.013.098.486.182.974.279 1.46.047.237.103.473.158.71a2.6 2.6 0 0 0 .203.678.04.04 0 0 0 .072-.02 2.5 2.5 0 0 0-.108-.676m-2.359 1.944a4.2 4.2 0 0 0-.302-1.04c-.013-.03-.065-.008-.053.023a3.6 3.6 0 0 1 .229 1.034c.012.173.02.346.015.52a2.5 2.5 0 0 0-.008.49.037.037 0 0 0 .067.01 1.2 1.2 0 0 0 .082-.5 3 3 0 0 0-.03-.537m-3.109 2.276c-.014-.02-.048 0-.033.02a1.6 1.6 0 0 1 .23 1.268.016.016 0 0 0 .03.008 1.47 1.47 0 0 0-.227-1.296m-13.82 10.745c-.004-.011-.023-.006-.018.005a8.7 8.7 0 0 1 .526 3.057.014.014 0 0 0 .028 0 7.3 7.3 0 0 0-.536-3.062m-3.005.498c-.004-.022-.037-.012-.034.01.3 2.134.61 4.265.967 6.391.005.028.045.016.042-.011-.29-2.136-.628-4.263-.975-6.39m-2.887.015c-.006-.028-.047-.016-.042.01.672 3.546.991 7.122 1.363 10.707a.03.03 0 0 0 .059 0 47.7 47.7 0 0 0-1.38-10.718m-2.453 2.282c-.002-.008-.017-.007-.016.002.481 3.923.996 7.874 1.74 11.756.004.026.048.02.045-.006-.423-3.93-1.084-7.86-1.77-11.752m-2.768 2.798c-.002-.007-.013-.004-.011.003.733 4.07 1.192 8.165 1.578 12.281.002.025.04.025.039 0a77 77 0 0 0-1.606-12.284m-1.872 9.431c-.332-2.203-.689-4.402-1.037-6.603-.001-.01-.02-.008-.019.003.274 2.136.537 4.274.827 6.409.298 2.204.53 4.438.996 6.614a.049.049 0 0 0 .096-.013c-.156-2.146-.543-4.282-.863-6.41m-3.758-3.3c-.007-.043-.081-.033-.076.01.187 1.717.435 3.419.719 5.122.004.023.045.018.042-.006a91 91 0 0 0-.685-5.126m1.452 10.748c-.064-.255-.15-.504-.222-.757-.15-.526-.3-1.05-.44-1.58a.063.063 0 0 0-.12.033c.135.53.258 1.062.381 1.596.06.256.105.517.173.771a1.7 1.7 0 0 0 .264.706.045.045 0 0 0 .075-.02 1.75 1.75 0 0 0-.111-.749m-3.646-2.83a20 20 0 0 0-.904-3.325c-.005-.014-.027-.008-.023.006a26 26 0 0 1 .734 3.307c.176 1.115.193 2.243.356 3.357.008.052.08.032.085-.012a12 12 0 0 0-.248-3.333m.624 5.708a1.5 1.5 0 0 0-.338-.387.123.123 0 0 0-.174.174q.065.066.123.134l.029.035c.016.02.006.007.003.003l.01.015q.03.037.054.077l.041.075.01.02v.001l.015.045.01.04.004.015.003.028v.01l.002.048-.001.014-.005.02-.002.006-.01.018-.024.051-.02.02c-.012.01-.02.016-.003.003l-.03.023s.02-.013.008-.007q-.024.016-.05.03c-.005.003-.035.015-.009.006l-.021.007-.029.008c-.005.002-.034.007-.01.003a.2.2 0 0 0-.044.007l-.01.003c-.007.003.013.002-.001 0 .014.002-.01-.001-.014-.003-.004 0-.023-.007-.014-.004a.11.11 0 0 1-.063-.068c-.016-.042-.088-.04-.085.012a.23.23 0 0 0 .045.126.3.3 0 0 0 .111.08c-.012-.007.007.007.01.01a.1.1 0 0 0 .044.015l.082.007a.5.5 0 0 0 .152-.026.4.4 0 0 0 .078-.035l.028-.02a.2.2 0 0 0 .032-.024c.003-.004-.005.001-.008.002a.3.3 0 0 0 .135-.17.56.56 0 0 0-.064-.447m-4.696.456q-.162-1.043-.338-2.083c-.003-.015-.029-.012-.027.004q.108 1.05.231 2.097a16 16 0 0 0 .311 2.025.033.033 0 0 0 .065-.01 16 16 0 0 0-.242-2.033m-2.862 2.14a8 8 0 0 0-.13-.383c-.017-.046-.09-.028-.075.02q.06.198.129.391a4 4 0 0 0 .144.377c.012.026.047.007.043-.018a4 4 0 0 0-.112-.387m-5.269 5.503c-.006-.056-.092-.06-.09 0 .052 1.361.148 2.73.33 4.08.004.037.059.04.058 0a43 43 0 0 0-.298-4.08m-3.204-.776c0-.012-.02-.013-.02 0 .146 3.495.352 6.99.652 10.475.003.027.044.028.043 0a236 236 0 0 0-.675-10.475m-2.436 7.278q-.26-2.884-.678-5.75c-.002-.018-.032-.014-.03.004q.341 2.923.524 5.862c.12 1.957.106 3.938.339 5.886a.033.033 0 0 0 .066 0 35.7 35.7 0 0 0-.221-6.002m-3.028-1.144c-.002-.02-.033-.02-.03 0 .246 2.208.392 4.455.79 6.641.005.028.051.022.05-.006-.133-2.217-.525-4.433-.81-6.635m39.905-18.67c-.013-.032-.065-.018-.053.015 1.294 3.546 2.318 7.167 3.463 10.76a.027.027 0 0 0 .053-.014 74 74 0 0 0-3.463-10.76m4.067 5.626c-.009-.026-.05-.016-.042.011.39 1.284.752 2.59 1.24 3.842a.02.02 0 0 0 .038-.01c-.334-1.301-.803-2.573-1.236-3.843M375.41 299.468a8.8 8.8 0 0 0-2.357-1.33 36 36 0 0 0-2.645-.99c-.044-.014-.06.052-.019.068a27 27 0 0 1 2.554 1.184 20 20 0 0 0 2.398 1.185.07.07 0 0 0 .069-.117m2.805-2.259a22.1 22.1 0 0 0-5.73-3.056c-.085-.034-.148.113-.063.15 1.984.86 3.845 1.95 5.755 2.955.03.015.067-.026.038-.05m4.489 2.39a3 3 0 0 0-.298-.263 5 5 0 0 0-.728-.41c-.49-.243-.97-.511-1.452-.77a.246.246 0 0 0-.249.424c.463.295.93.582 1.382.892a5 5 0 0 0 .69.422 3 3 0 0 0 .399.144.7.7 0 0 0 .379.02.116.116 0 0 0 .079-.14.7.7 0 0 0-.202-.32m6.166-.828a5 5 0 0 0-1.222-.84 43 43 0 0 0-1.45-.832c-.943-.522-1.878-1.062-2.83-1.57-.95-.508-1.907-1.008-2.872-1.487a13.5 13.5 0 0 0-2.92-1.198.051.051 0 0 0-.04.092 22.5 22.5 0 0 0 3.013 1.428 52 52 0 0 1 2.826 1.36c.926.482 1.848.976 2.736 1.526.474.293.943.594 1.414.891a5.7 5.7 0 0 0 1.28.74.067.067 0 0 0 .064-.11m4.521-1.713a5.7 5.7 0 0 0-2.204-1.402 73 73 0 0 1-2.635-1.372 27.7 27.7 0 0 0-5.183-2.303c-.033-.01-.057.042-.024.058 1.713.79 3.469 1.484 5.154 2.335a18 18 0 0 1 2.384 1.446 8 8 0 0 0 2.287 1.525c.152.04.327-.143.221-.287m-1.388-4.435c-.458-.267-.91-.536-1.389-.763a11 11 0 0 0-1.457-.556.043.043 0 0 0-.033.078 12 12 0 0 0 1.394.752c.477.213.968.376 1.46.546.035.012.055-.04.025-.057m5.553 2.805c-.042-.07-.031-.155-.071-.23a.7.7 0 0 0-.172-.203 2.4 2.4 0 0 0-.49-.237 7 7 0 0 0-.946-.329 7 7 0 0 1-.962-.316q-.485-.216-.97-.436c-.107-.049-.203.105-.094.162l.939.488a7 7 0 0 1 .885.581 7 7 0 0 0 .895.563 1.4 1.4 0 0 0 .51.214.55.55 0 0 0 .29-.047.3.3 0 0 0 .088-.06q-.055.037.032.01a.11.11 0 0 0 .066-.16m4.799-1.285c-.257-.664-1.17-.79-1.77-.993a20 20 0 0 1-2.144-.912q-1.008-.475-2.034-.91a18 18 0 0 0-2.143-.713c-.024-.007-.042.032-.018.043.64.294 1.258.611 1.914.874q1.122.451 2.227.946a12 12 0 0 1 1.954 1.063c.517.361 1.135 1.072 1.828.93a.267.267 0 0 0 .186-.328m3.997-1.058a4.3 4.3 0 0 0-1.601-.72 16 16 0 0 1-1.89-.88c-1.174-.6-2.324-1.244-3.506-1.827a.023.023 0 0 0-.024.04 26 26 0 0 0 3.502 1.967c.593.285 1.203.54 1.782.853a3.96 3.96 0 0 0 1.682.7.079.079 0 0 0 .055-.133m4.736-1.331c-.87-.379-1.792-.624-2.685-.945a54 54 0 0 1-2.733-1.052c-.064-.027-.111.084-.048.115.857.413 1.728.801 2.62 1.132a13.8 13.8 0 0 0 2.813.828c.043.006.082-.057.033-.078m2.046-1.923a9 9 0 0 0-1.096-.296l-1.108-.251a.016.016 0 0 0-.008.03l1.092.307a9 9 0 0 0 1.105.263.027.027 0 0 0 .015-.053m4.958-.682a2 2 0 0 0-.41-.211 2.3 2.3 0 0 0-.442-.073c-.293-.023-.586-.053-.88-.055-.03 0-.045.045-.016.058.272.122.555.22.835.324a2.2 2.2 0 0 0 .435.117.8.8 0 0 0 .253 0l.057-.014a1 1 0 0 1 .13-.007.075.075 0 0 0 .038-.139m3.396-2.112c-.292-.093-.588-.157-.886-.225a4 4 0 0 0-.433-.053l-.235-.024a.34.34 0 0 0-.193.007.05.05 0 0 0-.01.08.35.35 0 0 0 .182.068l.23.055a4 4 0 0 0 .429.09c.302.034.601.07.905.078a.04.04 0 0 0 .01-.076m-53.42-58.493c-.061-.205-.062-.43-.13-.631a3.1 3.1 0 0 0-.764-.952c-.597-.638-1.155-1.313-1.74-1.962a30 30 0 0 0-3.875-3.575c-.023-.018-.056.013-.033.033a33 33 0 0 1 3.568 3.69 14 14 0 0 1 1.493 2.099 5 5 0 0 0 .624 1.09c.152.154.382.247.548.388a3.5 3.5 0 0 1 .523.58.043.043 0 0 0 .074-.043 5 5 0 0 1-.288-.717m1.304 2.083c-.011-.016-.038 0-.026.016a52 52 0 0 1 4.272 7.305c.011.023.045.003.034-.02a44 44 0 0 0-4.28-7.3m-8.827-3.096c-.737-.452-1.488-.884-2.234-1.325a.016.016 0 0 0-.016.027c.741.448 1.478.905 2.227 1.34a.023.023 0 0 0 .023-.041m1.358 2.909a9.6 9.6 0 0 0-1.351-1.132c-.495-.345-1.013-.632-1.538-.928a.027.027 0 0 0-.027.048c.495.322.967.686 1.443 1.035.475.349.95.693 1.435 1.026.03.02.063-.025.038-.05m1.57 2.678a14 14 0 0 0-1.478-1.16c-.526-.361-1.065-.703-1.596-1.056-.03-.02-.066.027-.038.05.498.394.99.799 1.493 1.188a14 14 0 0 0 1.562 1.052c.045.026.098-.037.057-.074m.985 2.255a18 18 0 0 0-2.727-2.216c-.03-.02-.055.026-.028.047.935.698 1.825 1.457 2.722 2.202.022.02.054-.01.033-.033m.867 2.197a5 5 0 0 0-.663-.59l-.692-.56c-.453-.365-.922-.709-1.386-1.06-.042-.031-.097.04-.057.074.45.385.896.776 1.359 1.147l.674.54a5 5 0 0 0 .713.516.043.043 0 0 0 .052-.067m.155 1.768c-.213-.203-.438-.392-.662-.583-.434-.37-.893-.706-1.348-1.05-.036-.028-.077.03-.047.06.4.408.794.82 1.217 1.204.206.186.409.375.625.549a4.5 4.5 0 0 0 .692.505c.05.027.124-.032.085-.086a4.3 4.3 0 0 0-.562-.599m.916 2.589c-.063-.07-.138-.133-.206-.198a6 6 0 0 0-.445-.387q-.46-.362-.92-.721c-.03-.024-.073.014-.044.044q.403.418.807.833.2.205.418.391c.073.062.143.127.218.186a2 2 0 0 0 .253.147c.045.025.108-.027.075-.074a2 2 0 0 0-.156-.22m.322 1.745-.135-.208-.27-.416c-.025-.038-.086-.003-.061.035l.27.416q.066.106.135.208.072.102.149.2c.014.02.046.003.033-.02q-.058-.108-.121-.215m.624 1.532a.05.05 0 0 0 0 .1.05.05 0 0 0 0-.1m-26.669-26.899c-.064-.071-.167.034-.105.105.955 1.088 1.898 2.183 2.917 3.211.036.037.086-.017.055-.055-.91-1.128-1.892-2.19-2.867-3.26m-.165 2.376a.059.059 0 0 0-.083.083c.99 1.055 1.918 2.167 2.871 3.254.035.04.102-.012.074-.057a14.9 14.9 0 0 0-2.862-3.28m2.631 5.278a17 17 0 0 0-.756-.988 20 20 0 0 0-1.759-1.853.035.035 0 0 0-.05.05 40 40 0 0 1 1.594 1.969q.366.48.723.967a7 7 0 0 0 .77.964c.037.035.11 0 .09-.054a4.6 4.6 0 0 0-.612-1.055m-2.17.39a.02.02 0 0 0-.028.027 23.7 23.7 0 0 1 2.22 3.396.035.035 0 0 0 .065-.027 8.1 8.1 0 0 0-2.257-3.396m1.805 5.09a6 6 0 0 0-.359-.682 5.7 5.7 0 0 0-.972-1.139.031.031 0 0 0-.044.044 7.2 7.2 0 0 1 .831 1.203 6 6 0 0 1 .324.63c.048.108.106.21.159.315.055.11.098.228.16.334.022.038.091.024.087-.024a2.4 2.4 0 0 0-.186-.68m-.502 1.706c-.083-.17-.187-.332-.28-.496-.01-.018-.036-.002-.028.016.082.17.157.349.25.515l.277.498c.013.022.045.002.034-.02zm-.237 2.033a.023.023 0 0 0-.04.023l.495.86a.016.016 0 0 0 .027-.016Z"/></svg>