<svg xmlns="http://www.w3.org/2000/svg" data-name="Manta Ray" viewBox="0 0 415.407 388.197"><path fill="currentColor" d="M370.989 300.812c.01.021.002.02-.002.023q.004.025.002-.023"/><path fill="currentColor" d="M372.491 333.636c2.038-2.284 4.106-4.542 6.07-6.891a81 81 0 0 0 2.796-3.53c.852-1.143 1.6-2.633 2.827-3.418a19 19 0 0 1 2.026-.967 12.4 12.4 0 0 0 1.967-1.201 20.5 20.5 0 0 0 3.14-2.92c2.056-2.33 3.842-4.867 6.011-7.1 4.555-4.687 10.233-8.308 14.197-13.558a19.17 19.17 0 0 0 3.764-8.95 7.55 7.55 0 0 0-.57-4.657 4.21 4.21 0 0 0-3.42-2.27 3.93 3.93 0 0 0-2.007.524c.05-.217.102-.435.14-.642a12.5 12.5 0 0 0 .145-3.759 4.5 4.5 0 0 0-1.28-3.033 3.8 3.8 0 0 0-2.845-.83 5.8 5.8 0 0 0-3.405 1.754 3.1 3.1 0 0 0-1.026-.75 3.52 3.52 0 0 0-2.826-.012 6.9 6.9 0 0 0-2.55 2.143c-.805.993-1.579 2.012-2.38 3.01a203 203 0 0 1-10.255 11.774q-1.503 1.602-3.047 3.165c-.685.694-1.384 1.367-2.015 2.101-.1.067-.198.138-.299.204-2.12 1.394-4.335 2.64-6.44 4.056a42.7 42.7 0 0 0-5.85 5q-2.862 2.786-5.884 5.4c-4.045 3.509-8.253 6.823-12.494 10.09q-6.524 5.028-13.119 9.967c-4.209 3.162-8.512 6.188-13.017 8.916a134 134 0 0 1-13.429 7.124 141 141 0 0 1-6.984 3.002c-2.36.935-4.76 1.771-7.118 2.71q-.682.272-1.351.554c-.48-.135-.96-.27-1.445-.382a7.2 7.2 0 0 0-2.675-.289c-.242-.101-.493-.184-.745-.271-1.814-.628-3.704-1.044-5.552-1.557-.382-.106-.754-.242-1.133-.36-16.54-7.105-33.576-13.08-50.415-19.433-18.919-7.137-37.934-14.063-56.751-21.465a180 180 0 0 1-26.105-12.404c-7.684-4.557-15.026-9.675-22.809-14.07a89 89 0 0 0-25.095-9.736c-9.158-1.977-18.507-2.806-27.732-4.385a124.5 124.5 0 0 1-26.734-7.759c-8.7-3.613-16.836-8.297-25.112-12.76-2.025-1.093-4.03-2.226-6.037-3.35a.086.086 0 0 0-.087.148c15.458 9.764 31.607 19.765 49.588 24.04 9.203 2.19 18.644 3.064 27.968 4.566 9.247 1.489 18.193 3.8 26.62 7.963 8.005 3.955 15.418 8.967 22.966 13.707a174.6 174.6 0 0 0 24.874 13.03c9.042 3.828 18.289 7.17 27.474 10.635l28.8 10.864 28.8 10.863 14.215 5.362c4.736 1.786 9.453 3.684 14.307 5.128.767.228 1.53.467 2.296.7 1.542.63 3.1 1.221 4.653 1.824a12 12 0 0 0 1.354.498c.477.12.941.08 1.42.233a20.4 20.4 0 0 1 2.754 1.176 41.6 41.6 0 0 1 5.156 3.019c.066.045.144-.057.085-.11a33.4 33.4 0 0 0-4.69-3.629c-.28-.174-.57-.325-.857-.485.13-.023.262-.038.391-.063q1.247.388 2.473.838c2.206.815 4.375 1.731 6.552 2.616.122.05.228-.14.13-.222a22.4 22.4 0 0 0-6.657-3.76l-.11-.036a56 56 0 0 0 3.113-.964 110 110 0 0 0 6.893-2.623 131 131 0 0 0 13.38-6.486c9.06-5.044 17.303-11.298 25.451-17.677 4.154-3.252 8.39-6.396 12.498-9.707 4.029-3.247 7.914-6.648 11.62-10.258a48 48 0 0 1 3.045-2.743 1.1 1.1 0 0 0 .296.285c.045.039.093.074.124.105a.4.4 0 0 0 .114.065 5 5 0 0 1 .565.486c.042.044.103-.012.08-.062a5 5 0 0 1-.208-.601c-.016-.052-.01-.097-.023-.152-.012-.05-.05-.096-.06-.147.007.004 0-.01.001-.012l-.011-.098a1 1 0 0 0-.058-.142 1.6 1.6 0 0 0-.146-.26 29 29 0 0 1 2.155-1.55c2.062-1.326 4.166-2.58 6.198-3.952a121 121 0 0 0 11.513-8.865 117 117 0 0 0 8.593-8.287 1.7 1.7 0 0 0 .221.343 1.77 1.77 0 0 0 1.066.596 1.74 1.74 0 0 0 1.427-.366 3 3 0 0 0 .351-.479 4 4 0 0 1 .463-.495.035.035 0 0 0-.042-.055 3 3 0 0 1-.476.251 1.4 1.4 0 0 1-.495.06 2.7 2.7 0 0 0-.545.08 2 2 0 0 1-.44.049q-.047 0-.092-.006l-.024-.005a2 2 0 0 1-.197-.06l-.05-.025a2 2 0 0 1-.194-.119c-.01-.007-.01-.006-.012-.006l-.017-.016a2 2 0 0 1-.145-.15l-.014-.02q-.035-.056-.071-.107l-.044-.071a.4.4 0 0 0-.032-.063l-.006-.015c.355-.384.717-.762 1.068-1.15a17 17 0 0 1 3.072-3.142 2.8 2.8 0 0 0 .096.673 2.4 2.4 0 0 0 .692 1.134c.037.035.086-.017.055-.055a3 3 0 0 1-.548-1.134 2.6 2.6 0 0 1-.075-.609q0-.073.005-.145a3.1 3.1 0 0 1 1.83-.434c1.05.093 1.517.806 1.696 1.782a11.8 11.8 0 0 1 .057 3.577c-.076.589-.206 1.161-.326 1.742a5 5 0 0 0-.088.833 90 90 0 0 0-3.524 3.175c-2.367 2.239-4.644 4.57-6.99 6.83a72 72 0 0 1-7.361 6.366c-2.678 1.961-5.6 3.547-8.343 5.41a33 33 0 0 0-3.845 3.007c-1.238 1.139-2.384 2.372-3.598 3.535a61.3 61.3 0 0 1-8.184 6.226c-5.699 3.868-11.469 7.7-17.887 10.28-1.494.601-2.998 1.177-4.45 1.876a12.3 12.3 0 0 0-2.097 1.188c-.626.472-1.229.977-1.836 1.474-2.568 2.104-4.718 4.742-7.524 6.55a30.5 30.5 0 0 1-4.161 2.235c-.045.02-.013.095.033.078a27 27 0 0 0 4.132-1.879 29.6 29.6 0 0 0 3.887-2.477c1.279-1.008 2.43-2.167 3.678-3.213a19.2 19.2 0 0 1 4.236-2.493c2.968-1.406 6.107-2.402 9.061-3.85a86 86 0 0 0 8.763-5.045 235 235 0 0 0 8.38-5.644 50 50 0 0 0 3.95-3.063c1.239-1.08 2.375-2.267 3.543-3.421.473-.468.965-.903 1.46-1.334a8.4 8.4 0 0 0 .807.862c.144.131.316.22.463.348a6 6 0 0 1 .409.4q.41.435.784.902c.474.593.881 1.236 1.357 1.826.36.449.894.85 1.47.511a.06.06 0 0 0-.03-.109c-.635-.02-1.09-.802-1.405-1.265a30 30 0 0 0-1.248-1.693 34 34 0 0 1-.646-.835 9 9 0 0 0-.632-.9 8 8 0 0 0-.65-.625 50 50 0 0 1 5.6-3.936 71.5 71.5 0 0 0 7.916-5.481c4.921-4.045 9.167-8.82 13.89-13.081q.846-.763 1.713-1.5l.039-.033a3 3 0 0 0-.044.246 3.8 3.8 0 0 0 .024 1.214 5.8 5.8 0 0 0 .492 1.07c.229.563-.303.801-.708 1.03-.445.253-.883.52-1.33.767a2.5 2.5 0 0 1-.68.287c-.171.033-.349.01-.524.044a3 3 0 0 1-.447.07c-.074.001-.15-.005-.223-.002-.09.003-.265.06-.35.023a.147.147 0 0 0-.212.163.86.86 0 0 0 .242.55.94.94 0 0 0 .621.188 1.54 1.54 0 0 0 1.113-.5c.75-.72 1.76-1.089 2.523-1.79a1.11 1.11 0 0 0 .44-1.026c-.046-.423-.056-.845-.101-1.269a4.2 4.2 0 0 1 .053-1.235 6 6 0 0 1 .186-.666 4 4 0 0 1 .762-.414 2.4 2.4 0 0 1 3.007 1.603 8.2 8.2 0 0 1-.075 4.772 17 17 0 0 1-1.766 4.513 29 29 0 0 1-5.939 6.953c-2.411 2.19-4.952 4.233-7.345 6.444a68 68 0 0 0-6.472 7c-1.778 2.173-3.655 4.422-6.176 5.757-1.373.727-2.734 1.153-3.772 2.386-.97 1.153-1.772 2.452-2.692 3.647-1.819 2.36-3.795 4.596-5.78 6.816-3.915 4.381-8.101 8.74-10.913 13.944a14 14 0 0 0-.527 1.099c0-.126-.01-.25-.005-.376a9.3 9.3 0 0 1 .344-1.993 13.4 13.4 0 0 1 .58-2.2.055.055 0 0 0-.094-.054 12 12 0 0 0-1.279 1.92 18 18 0 0 0-.701 2.099 12 12 0 0 0-.448 2.25 7 7 0 0 0 .019 1.157 2 2 0 0 0 .393 1.16q-1.366.384-2.736.74c-.485.125-.972.236-1.457.353a7.8 7.8 0 0 0-2.096-.501 31 31 0 0 0-3.544-.33 17 17 0 0 0-3.386.155 31 31 0 0 0-3.506.881.02.02 0 0 0 .01.038 21 21 0 0 1 3.711-.197c1.136.013 2.274.001 3.405.127a22 22 0 0 1 2.581.473c-2.26.487-4.53.923-6.81 1.344-1.845.341-3.693.676-5.545.98-.185.031-.137.324.043.323a91.2 91.2 0 0 0 22.068-3.22c7.328-1.873 14.126-5.208 21.184-7.838a92 92 0 0 1 10.703-3.23q2.72-.652 5.471-1.153a28 28 0 0 1 4.441-.567c2.154-.045 5.007.304 5.883 2.637a4.05 4.05 0 0 1-.943 4.213c-.007-.016-.004-.033-.013-.05a.33.33 0 0 0-.26-.164 2 2 0 0 1-.42-.256 5 5 0 0 1-.509-.4 6 6 0 0 1-.754-.857 4.2 4.2 0 0 1-.935-2.186.043.043 0 0 0-.086 0 4.58 4.58 0 0 0 .574 2.941 5.1 5.1 0 0 0 1.134 1.187 2 2 0 0 0 .667.421 15.6 15.6 0 0 1-3.242 2.27l-.475.256a.9.9 0 0 0-.326-.033 2.4 2.4 0 0 1-.515-.002c-.192-.027-.373-.076-.568-.087a2 2 0 0 1-.547-.073 1.43 1.43 0 0 1-.857-1.005 1.1 1.1 0 0 1-.014-.716 2.3 2.3 0 0 0 .202-.6c.027-.197.086-.391.103-.59a1.8 1.8 0 0 1 .07-.726 3.5 3.5 0 0 1 .909-1.093 24 24 0 0 1 2.341-1.69.066.066 0 0 0-.067-.114 8.1 8.1 0 0 0-2.768 1.805 14 14 0 0 1-1.026 1.295 1.51 1.51 0 0 0-.433 1.433c.079.253.227.49.325.736a3 3 0 0 0 .282.545c.238.368.56.683.831 1.024a1.8 1.8 0 0 0 .735.603c-6.276 3.39-12.63 6.646-18.962 9.927q-10.356 5.365-20.749 10.66c-6.865 3.503-13.686 7.134-20.644 10.452a73.2 73.2 0 0 1-20.557 6.377 70.3 70.3 0 0 1-21.48-.063 94 94 0 0 1-11.077-2.509c-1.762-.503-3.5-1.095-5.262-1.591-1.847-.52-3.712-.975-5.558-1.502a146 146 0 0 0-5.304-1.409c-.17-.041-.293.212-.124.293 1.765.846 3.539 1.644 5.346 2.395.666.277 1.333.563 2 .846-4.902-.799-9.812-1.556-14.75-2.114q-11.119-1.258-22.236-2.527-22.125-2.527-44.244-5.103-22.12-2.575-44.233-5.199c-14.276-1.694-28.557-3.387-42.76-5.623-7.02-1.106-14.02-2.343-20.982-3.777-7.03-1.448-13.975-3.236-20.978-4.796-.367-.082-.733-.152-1.1-.23q.621-.093 1.24-.188c6.962-1.08 13.844-2.667 20.753-4.034.2-.04.158-.384-.049-.36-6.17.703-12.372 1.23-18.521 2.096-3.056.431-6.099.988-9.18 1.206a35.8 35.8 0 0 1-8.791-.479c-2.98-.527-5.902-1.324-8.815-2.134q-4.487-1.247-8.974-2.49c-6.002-1.654-12.039-3.163-18.08-4.662-6.805-1.688-13.641-3.286-20.41-5.11a.086.086 0 0 0-.046.166c6.06 1.74 12.073 3.674 18.097 5.537 5.986 1.852 11.965 3.738 17.997 5.431q4.494 1.26 8.99 2.512c2.934.815 5.865 1.66 8.845 2.292A40.8 40.8 0 0 0 63 353.32a46 46 0 0 0 5.074-.39 120.4 120.4 0 0 0 18.789 5.33c7.004 1.559 14.055 2.9 21.13 4.09 14.125 2.373 28.341 4.146 42.56 5.844q22.021 2.63 44.051 5.19 22.229 2.595 44.463 5.14c14.795 1.694 29.598 3.721 44.474 4.507q.897.05 1.793.11c.085.03.17.064.255.094a98 98 0 0 0 11.079 3.098 74.7 74.7 0 0 0 22.328 1.63 72.9 72.9 0 0 0 21.486-5.083c3.643-1.483 7.146-3.27 10.65-5.052l10.634-5.416c14.338-7.309 28.657-14.657 42.876-22.195 3.029-1.605 6.697-3.157 8.148-6.51a5.287 5.287 0 0 0-2.478-7.164 13.93 13.93 0 0 0-7.977-.589 103 103 0 0 0-11.178 2.434 113 113 0 0 0-11.18 3.692c-3.609 1.42-7.179 2.935-10.843 4.208a147 147 0 0 1-7.008 2.235 1 1 0 0 0 .067-.329c0-.157-.046-.344-.063-.504q-.029-.297-.05-.595c1.493-2.182 3.009-4.354 4.585-6.475 1.809-2.434 3.808-4.722 5.826-6.984m27.564-59.278q-2.454 2.797-5.098 5.417a110 110 0 0 1-11.23 9.762c-.308.232-.624.452-.934.68a135 135 0 0 0 4.87-4.892c3.251-3.458 6.25-7.096 9.269-10.751a4.2 4.2 0 0 1 2.463-1.801 1.84 1.84 0 0 1 1.2.288 1.8 1.8 0 0 1 .324.307c-.292.332-.58.666-.864.99"/><path fill="currentColor" d="m404.596 275.555-.34.17c-.005.003-.001.01.003.007l.34-.17c.005-.002.001-.01-.003-.007m-20.303 80.371c-.2-.541-.395-1.084-.603-1.621l-.674-1.735c-.116-.3-.241-.595-.365-.892a2.7 2.7 0 0 0-.38-.766.15.15 0 0 0-.253.105 3 3 0 0 0 .256.897q.147.423.303.844l.633 1.679c.227.6.47 1.195.706 1.791.104.26.22.52.31.786.15.45-.263.197-.448.026a1.4 1.4 0 0 1-.452-.674 2.4 2.4 0 0 0-.214-.662 4 4 0 0 0-.525-.56 2.6 2.6 0 0 1-.381-.744 7 7 0 0 0-1.061-2.455c-.039-.041-.095.019-.061.061a6.8 6.8 0 0 1 .805 2.64c.058.214.138.42.199.633.06.21.038.447.116.652.184.487.6.607.99.88a5 5 0 0 1 .543.487 1.3 1.3 0 0 0 .387.318.39.39 0 0 0 .554-.4 3.7 3.7 0 0 0-.385-1.29m1.438-.416a1.2 1.2 0 0 0-.095-.31 8 8 0 0 0-.267-.583c-.199-.385-.443-.743-.658-1.118a.04.04 0 0 0-.071.03c.126.413.22.834.365 1.241.073.206.159.403.247.603a1.2 1.2 0 0 0 .155.271c.068.084.109.157.217.192a.09.09 0 0 0 .097-.04.45.45 0 0 0 .01-.286m-30.814-7.202a21 21 0 0 0-2.545-.454l-2.569-.37c-.02-.003-.028.026-.008.03l2.588.49a21 21 0 0 0 2.523.388.043.043 0 0 0 .011-.084m1.904-.524a4.3 4.3 0 0 0-1.305-.476q-.736-.208-1.485-.367a24 24 0 0 0-2.881-.423c-.035-.003-.034.051 0 .055a23 23 0 0 1 2.944.535q.691.173 1.37.388a6.3 6.3 0 0 0 1.327.397c.064.005.073-.079.03-.11m-.039-1.585a2.6 2.6 0 0 0-.797-.178l-.87-.122-1.743-.244c-.034-.005-.05.046-.015.052l1.755.325.861.16a2.6 2.6 0 0 0 .8.079.04.04 0 0 0 .009-.072m1.355-1.55a7 7 0 0 0-1.346-.191l-1.39-.14c-.076-.007-.074.109 0 .118l1.363.17a7 7 0 0 0 1.364.112.035.035 0 0 0 .009-.07m-1.025-1.569c-.035-.004-.035.05 0 .055l1.53.17c.02.002.02-.029 0-.031Zm27.095-33.755c-.386-.434-.896-.753-1.317-1.154a13.5 13.5 0 0 1-1.225-1.315 10 10 0 0 1-.546-.753 2.14 2.14 0 0 1-.448-.948c.004-.388-.597-.088-.326.136a2.6 2.6 0 0 1 .461.741c.136.243.27.486.42.72a9.3 9.3 0 0 0 1.005 1.332 10 10 0 0 0 1.22 1.083c.394.303 1.035.741.848 1.32-.043.133.167.225.229.096a1.125 1.125 0 0 0-.32-1.258m-4.356-.886c-.339-.44-.705-.854-1.08-1.265a.059.059 0 0 0-.092.071c.296.466.596.926.93 1.366a6.3 6.3 0 0 0 1.064 1.244c.039.03.123.004.097-.057a6.3 6.3 0 0 0-.92-1.359m-5.848-4.177a1 1 0 0 0-.108-.17c-.043-.045-.092-.085-.138-.127l-.297-.27c-.204-.186-.418-.359-.633-.533a60 60 0 0 1-1.253-1.045c-.023-.019-.055.012-.033.034q.57.58 1.122 1.176c.181.196.361.392.554.578l.29.277c.044.043.088.089.135.13a1 1 0 0 0 .195.116.122.122 0 0 0 .166-.166m-1.053-2.442q-.372-.408-.725-.833-.176-.213-.346-.43a2.5 2.5 0 0 0-.373-.441c-.018-.015-.056-.002-.045.026a3.5 3.5 0 0 0 .614.872q.364.454.763.877a12 12 0 0 0 1.688 1.518c.008.006.016-.006.01-.012-.536-.518-1.082-1.027-1.585-1.577m-2.46 1.189-.09-.118a2.4 2.4 0 0 0-.225-.228q-.053-.054-.109-.107-.06-.05-.125-.093l-.247-.18c-.021-.016-.053.016-.037.037l.178.238q.044.063.093.124c.035.04.076.076.114.114a3 3 0 0 0 .221.215l.122.092a1 1 0 0 0 .128.09.047.047 0 0 0 .064-.064 1 1 0 0 0-.087-.12m24.783-15.572c-.362-.398-.789-.73-1.17-1.111a10.4 10.4 0 0 1-1.077-1.236.02.02 0 0 0-.033.02 6.2 6.2 0 0 0 .92 1.407 3.6 3.6 0 0 0 1.307 1.012c.054.022.086-.055.053-.092m-.958-2.165q-.062-.067-.128-.132l-.255-.262c-.171-.173-.362-.33-.543-.493a.04.04 0 0 0-.055.055c.163.18.32.371.493.542l.255.249.132.127a1.3 1.3 0 0 0 .148.113c.034.024.083-.025.058-.06a1.4 1.4 0 0 0-.105-.14m4.531 7.174a1.2 1.2 0 0 0-.245-.165 2 2 0 0 0-.274-.126c-.075-.03-.123.09-.055.128a2 2 0 0 1 .228.145c.075.055.142.12.216.176.068.052.13.112.193.17.069.06.13.129.198.19.035.03.105.001.085-.05a1.3 1.3 0 0 0-.346-.468m-3.658-238.721c-.525-1.988-2.684-3.282-4.44-4.043-5.105-2.216-10.21-4.38-15.2-6.85-5.06-2.503-10.063-5.158-14.88-8.101-2.404-1.468-4.688-3.096-7.02-4.669a37.6 37.6 0 0 0-7.368-3.748c-5.46-2.152-10.974-4.164-16.452-6.269-5.462-2.098-10.955-4.107-16.458-6.095-.483-.174-.964-.34-1.446-.507-4.929-3.233-11.116-4.645-16.828-5.527-9.788-1.51-19.645-2.587-29.508-3.473-9.934-.893-19.887-1.578-29.84-2.218-10-.643-20-1.298-30.002-1.889-4.806-.284-9.742-.766-14.457.484a29.1 29.1 0 0 0-11.244 5.926 43 43 0 0 0-1.87 1.677c-2.597 1.374-5.154 2.807-7.652 4.358-5.674 3.526-11.187 7.32-16.614 11.212-10.974 7.87-21.56 16.26-32.158 24.626-10.676 8.427-21.373 16.84-32.498 24.672-11.57 8.145-23.658 15.503-35.714 22.898-6.061 3.719-12.115 7.452-18.088 11.313-2.958 1.912-5.933 3.83-8.767 5.924-2.842 2.1-5.603 4.265-8.355 6.482-1.366 1.1-2.692 2.247-4.047 3.36-.157.128.051.401.217.282 2.903-2.077 5.942-3.934 8.938-5.868 2.958-1.91 5.895-3.849 8.843-5.772q8.933-5.827 18.015-11.415c12.065-7.436 24.24-14.712 35.941-22.717 11.115-7.602 21.773-15.845 32.352-24.17 10.644-8.375 21.216-16.85 32.133-24.87 5.388-3.959 10.86-7.806 16.454-11.468 5.628-3.683 11.288-7.364 17.05-10.836 1.44-.868 2.867-1.71 4.26-2.654.13-.088.053-.334-.114-.271a74 74 0 0 0-8.05 3.776 32.7 32.7 0 0 1 8.595-4.616c4.431-1.396 9.282-1.157 13.858-.859q14.713.959 29.428 1.905c9.773.632 19.546 1.287 29.304 2.133 9.762.846 19.514 1.87 29.218 3.233 4.107.577 8.225 1.147 12.26 2.125a34.7 34.7 0 0 1 10.687 4.41 22.5 22.5 0 0 1 2.455 1.822.129.129 0 0 0 .182-.182 19.5 19.5 0 0 0-1.815-1.837q1.162.484 2.323.963 3.981 1.652 7.97 3.284c5.236 2.148 10.507 4.21 15.745 6.348 2.566 1.048 5.196 1.96 7.714 3.12.49.226.963.477 1.435.731a8 8 0 0 0-.422 1.536q-.093.458-.148.92c-.04.317-.136.622-.169.94-.008.074.106.1.138.038.15-.285.237-.596.38-.883q.21-.419.383-.854a9 9 0 0 0 .464-1.354c1.629.925 3.177 1.98 4.732 3.037a147 147 0 0 0 14.096 8.316q7.208 3.808 14.674 7.098 1.903.839 3.82 1.643c1.088.457 2.212.856 3.25 1.417 1.203.65 3.566 2.249 2.367 3.878a3.66 3.66 0 0 1-2.31 1.131 20.6 20.6 0 0 1-3.482.267 39 39 0 0 1-7.44-.55 41 41 0 0 1-7.314-1.971 46.5 46.5 0 0 1-6.7-3.247 10.1 10.1 0 0 0-3.426-1.306c-1.263-.196-2.54-.166-3.81-.285a30.6 30.6 0 0 1-7.64-2.063c-2.636-.975-5.253-2.004-7.878-3.012q-.557-.216-1.113-.436c-1.33-.548-2.66-1.1-4.006-1.613-2.153-.82-4.328-1.578-6.487-2.38-2.068-.768-4.25-1.237-6.352-1.911a91 91 0 0 1-2.935-1.006c-.762-.712-1.602-1.348-2.414-2-.425-.342-.858-.674-1.29-1.009q-.356-.278-.718-.551a15.4 15.4 0 0 0 2.559-1.008c.138-.07.08-.327-.083-.305a30 30 0 0 1-5.164.294 18 18 0 0 0-2.378-.071 4.74 4.74 0 0 0-2.153.848 9.7 9.7 0 0 1-4.768 1.026 32 32 0 0 1-4.918-.192c-.03-.003-.037.047-.007.054a28 28 0 0 0 4.813.93 17.8 17.8 0 0 0 4.874-.43 16 16 0 0 1 2.265-.428q.38-.021.757-.038c1.4.748 2.802 1.489 4.258 2.14.52.233 1.047.45 1.57.674 3.448 3.462 6.821 6.997 10.26 10.467.022.022.053-.01.033-.033-3.217-3.609-6.65-7.027-10.141-10.37 1.413.601 2.834 1.185 4.255 1.767l.669.278c-.001.01-.01.02-.002.03q2.389 2.727 4.903 5.339c.815.846 1.639 1.685 2.479 2.507.88.861 1.747 1.78 2.7 2.56.06.05.146-.032.087-.086-.822-.878-1.746-1.675-2.603-2.52-.86-.847-1.718-1.698-2.563-2.562q-2.493-2.547-4.862-5.21c1.815.754 3.634 1.532 5.494 2.153 1.755.586 3.55 1.084 5.343 1.569 1.132.504 2.28.981 3.449 1.445l8.167 3.237a74 74 0 0 0 7.83 2.903 22 22 0 0 0 3.938.705 33 33 0 0 1 3.497.284.16.16 0 0 0 .044.091 16.2 16.2 0 0 0 3.312 2.293c1.202.731 2.42 1.436 3.634 2.15 2.356 1.384 4.752 2.699 7.14 4.028q1.845 1.027 3.691 2.051a7.7 7.7 0 0 1 2.533 1.902 1.353 1.353 0 0 1-.128 2.033 4.95 4.95 0 0 1-2.593.665 32.57 32.57 0 0 1-19.809-5.132 30 30 0 0 1-2.753-1.995 21.5 21.5 0 0 0-2.98-2.28 22.7 22.7 0 0 0-4.03-1.542q-2.25-.744-4.503-1.481l-4.506-1.469a17 17 0 0 0-2.14-.674 6 6 0 0 0-1.07-.08 8 8 0 0 0-.542-.275c-1.64-.75-3.388-1.299-5.09-1.892-3.422-1.194-6.865-2.333-10.249-3.636a65 65 0 0 1-9.74-4.587c-3.093-1.827-5.868-4.204-9.128-5.746-3.287-1.555-6.989-1.991-10.201-3.719-3.048-1.639-5.555-4.021-8.164-6.253a72 72 0 0 0-1.493-1.232 7.5 7.5 0 0 0-.711-1.205 21 21 0 0 0-1.403-1.57c-1.023-1.086-2.124-2.107-3.241-3.096a41 41 0 0 0-7.095-5.038c-.052-.03-.117.046-.067.086a95 95 0 0 1 6.509 5.605c.903.85 1.757 1.743 2.606 2.645a44.9 44.9 0 0 0-12.967-6.525 107 107 0 0 0-4.968-1.335.031.031 0 0 0-.017.06 48.8 48.8 0 0 1 9.63 3.992 50 50 0 0 1 8.593 5.723c2.578 2.124 4.883 4.551 7.446 6.692a25.1 25.1 0 0 0 8.847 4.897 52 52 0 0 1 5.128 1.656 27 27 0 0 1 4.481 2.553 76 76 0 0 0 8.933 5.448c6.388 3.123 13.233 5.118 19.891 7.56l.031.012-.103.043a5.1 5.1 0 0 0-1.543.894c-.881.821-.8 2.214-1.413 3.209-.144.233-.394.646-.71.65a4 4 0 0 1-.913-.249 15 15 0 0 1-1.785-.597 3.4 3.4 0 0 1-.898-.458c-.207-.175-.249-.429-.427-.622-.41-.443-.977-.683-1.382-1.126-.06-.064-.153.005-.138.08a2.57 2.57 0 0 0 .76 1.596 1.44 1.44 0 0 0 .724.307 4.4 4.4 0 0 1 .913.422 10.4 10.4 0 0 0 1.826.675c.403.11 1.12.425 1.52.281.449-.162.78-.889.962-1.281a6 6 0 0 1 .932-1.677 5.5 5.5 0 0 1 1.756-1.219c.339-.157.716-.302 1.051-.499a4.73 4.73 0 0 1 2.505 1.905 4 4 0 0 1 .03 3.399c-1.137 2.888-4.28 3.832-7.126 3.992a43.2 43.2 0 0 1-10.707-.892 53.2 53.2 0 0 1-10.41-3.55 52 52 0 0 0-5.078-1.935 29.3 29.3 0 0 0-5.513-1.083c-3.799-.405-7.63-.237-11.432-.57-3.776-.332-7.441-1.393-11.21-1.782a47 47 0 0 0-11.402.612c-7.761 1.093-15.573 1.852-23.41 1.2a53 53 0 0 1-19.863-5.427 26 26 0 0 1-4.243-2.71c-.144-.115-.35.088-.204.204a46 46 0 0 0 8.726 5.656 40 40 0 0 0 6.026 2.288q3.481 2.498 6.926 5.045 1.985 1.465 3.953 2.952c1.14.858 2.254 1.778 3.418 2.61a84 84 0 0 1-9.424-1.882 141 141 0 0 1-15.761-5.213c-2.614-1.014-5.198-2.1-7.78-3.195-1.228-.521-2.46-1.04-3.707-1.512a20.6 20.6 0 0 0-3.991-.953 14.3 14.3 0 0 0-3.816-.142.098.098 0 0 0 0 .196 20 20 0 0 1 4.221 1.037c.07.025.132.06.2.088a13.9 13.9 0 0 0-6.925 1.547 38.2 38.2 0 0 0-8.306 6.005c-5.836 5.211-11.345 10.838-16.887 16.358q-16.95 16.88-33.138 34.504c-10.133 11.031-19.825 22.457-29.968 33.477-9.683 10.521-19.988 20.638-31.899 28.637-2.594 1.743-5.28 3.322-7.986 4.869a.056.056 0 0 0-.035-.068 9.8 9.8 0 0 0-2.114-.21l-2.273-.127c-1.324-.074-2.648-.117-3.973-.163q.917-1.054 1.85-2.093 2.274.236 4.549.461c.822.082 1.645.151 2.469.219a7.5 7.5 0 0 0 2.297.066c.074-.018.059-.111 0-.136a7.6 7.6 0 0 0-2.297-.282c-.823-.058-1.645-.115-2.47-.16q-2.244-.12-4.49-.23c.442-.492.884-.981 1.336-1.46a.031.031 0 0 0-.044-.045c-.568.491-1.126.988-1.687 1.484l-.051-.003c-.03-.002-.03.044 0 .047-1.132 1.002-2.25 2.017-3.313 3.104-1.567 1.602-3.058 3.283-4.504 4.996-2.946 3.49-5.668 7.148-8.362 10.833a127 127 0 0 1-8.447 10.712 107 107 0 0 1-9.535 9.129c-1.858 1.593-3.6 3.3-5.419 4.93q-2.804 2.513-5.653 4.978c-.153.132.05.399.218.282 3.637-2.52 7.405-4.907 10.87-7.664a96 96 0 0 0 9.713-8.955 74 74 0 0 0 6.999-8.569.179.179 0 0 0 .326.032c3.137-5.336 7.928-9.113 13.077-12.397 5.283-3.37 10.893-6.186 16.225-9.474 11.992-7.397 22.447-16.993 32.122-27.17 10.066-10.589 19.464-21.797 29.278-32.617q15.863-17.49 32.484-34.272 8.334-8.415 16.847-16.653c4.833-4.675 9.88-10.545 16.632-12.36a15.4 15.4 0 0 1 4.528-.611c.554.236 1.123.45 1.673.693 2.542 1.128 5.06 2.304 7.62 3.393a139 139 0 0 0 16.188 5.855 85 85 0 0 0 16.607 3.113 62 62 0 0 0 8.391.106c2.887-.164 5.72-.712 8.595-.966a16.8 16.8 0 0 1 8.065 1.128 34.3 34.3 0 0 1 6.784 4.05c4.209 3.027 8.112 6.45 12.114 9.738a85.3 85.3 0 0 0 12.525 8.905c2.241 1.246 4.814 2.73 7.465 2.611 2.26-.102 4.646-1.696 4.786-4.123.15-2.574-2.437-4.403-4.095-5.967l-6.703-6.324c-4.41-4.16-8.862-8.27-13.303-12.396-.547-.508-1.085-1.03-1.643-1.525a5.6 5.6 0 0 0-.813-.585c.225.046.45.096.675.139 1.23.235 2.446.561 3.685.736 2.653.374 5.343.558 8.009.825 2.817.283 5.631.532 8.46.649 1.552.064 3.114.117 4.665.054.828-.033 1.667-.033 2.504-.05a.38.38 0 0 0 .267.12 9.3 9.3 0 0 0 1.548-.11q.807-.095 1.617-.154.78-.057 1.562-.081a4 4 0 0 0 .79-.072c.05-.012.104-.032.159-.046.328.02.656.052.984.068a21 21 0 0 0 6.52-.494 19 19 0 0 0 2.08.296c.962.1 2.2-.03 2.861.792.569.708 1.045 1.493 1.61 2.206a27 27 0 0 0 1.865 2.12 28.6 28.6 0 0 0 9.09 6.267 26.6 26.6 0 0 0 5.465 1.75c1.923.371 4.076.396 5.664-.918a3.786 3.786 0 0 0 1.178-4.579 10.7 10.7 0 0 0-2.1-2.435l-2.517-2.563q-2.777-2.829-5.577-5.636c-.932-.939-1.908-1.83-2.879-2.727-.315-.292-.631-.59-.952-.881a17.5 17.5 0 0 1 2.412.916 17.7 17.7 0 0 1 3.214 2.372 33.3 33.3 0 0 0 9.56 5.433 33.4 33.4 0 0 0 14.405 2.035c1.942-.168 4.468-.986 4.363-3.39-.104-2.372-2.747-3.657-4.54-4.637-2.604-1.424-5.203-2.864-7.827-4.253a41 41 0 0 0 4.777 1.428 42 42 0 0 0 7.618 1.037 41 41 0 0 0 3.956-.012 14 14 0 0 0 3.26-.439c1.958-.581 3.623-2.271 3.047-4.457M319.09 36.005c-1.53-.58-3.072-1.142-4.606-1.722.323-.022.644-.043.97-.09a17 17 0 0 0 2.308-.497q.394.339.798.669c.434.356.866.714 1.306 1.063.71.562 1.417 1.14 2.157 1.667q-1.47-.533-2.933-1.09M52.968 192.583q1.161-1.764 2.385-3.486a4.7 4.7 0 0 0 1.658-.307 39 39 0 0 0-4.043 3.793m4.348-4.04a11.5 11.5 0 0 1-1.744.256l.019-.026.22-.064c.388-.112.763-.26 1.151-.37a.016.016 0 0 0-.008-.03c-.394.091-.794.144-1.189.233l-.006.002q.518-.718 1.045-1.428c.263-.018.525-.04.787-.05q.69-.03 1.38-.04c.11-.001.221.006.332.006-.673.49-1.34.99-1.987 1.511m2.31-1.743q-.329.008-.655.02a20 20 0 0 0-2.056.144c.06-.079.115-.16.175-.239.423-.55.865-1.085 1.3-1.627 1.303-.083 2.608-.093 3.913-.101a63 63 0 0 0-2.676 1.803m3.923-2.594c-.31.188-.612.39-.919.583a32 32 0 0 0-4.103.137c.608-.756 1.243-1.489 1.866-2.232.827.058 1.654.106 2.482.153l1.691.096c.325.018.668.052 1.006.057q-1.016.595-2.023 1.206m2.32-1.379a12 12 0 0 0-1.303-.081l-1.69-.076q-1.191-.056-2.382-.097c.475-.567.938-1.144 1.423-1.702q1.825.115 3.651.226c.672.041 1.344.07 2.017.103.304.015.644.06.982.08-.901.513-1.803 1.024-2.699 1.547m3.188-1.828a12 12 0 0 0-1.473-.047c-.672-.025-1.344-.054-2.016-.07l-3.588-.086.011-.014q.924-1.055 1.846-2.117c1.347.119 2.693.24 4.043.332l2.273.153a10.3 10.3 0 0 0 2.063.052q-1.578.902-3.16 1.797M248.19 65.434c-1.151-1.014-2.432-1.907-3.655-2.83q-2.063-1.559-4.16-3.07a237 237 0 0 0-6.731-4.67c1.102.313 2.212.6 3.336.83.22.046.443.075.664.117.004.012.001.027.016.033 2.783 1.079 5.096 3.083 7.442 4.874q1.882 1.437 3.775 2.859l1.892 1.422c.343.258.685.533 1.036.795a69 69 0 0 1-3.615-.36m6.106.51c-.59-.02-1.178-.068-1.767-.106q-.23-.235-.464-.466a.04.04 0 0 0-.065.038c-.909-.738-1.923-1.392-2.836-2.08q-1.99-1.498-3.99-2.981a30.1 30.1 0 0 0-7.228-4.485 56 56 0 0 0 5.43.721c2.146 1.535 4.276 3.089 6.415 4.632 1.092.789 2.19 1.571 3.278 2.365 1.107.807 2.188 1.677 3.351 2.401q-1.062-.001-2.124-.038m2.306.037a.13.13 0 0 0 .01-.189l.007-.007c-.986-.872-2.094-1.619-3.158-2.391a277 277 0 0 0-3.382-2.429c-2.136-1.503-4.316-2.94-6.508-4.362a67 67 0 0 0 4.365.209 375 375 0 0 0 5.958 4.524c2.037 1.507 4.042 3.095 6.132 4.534-1.14.066-2.281.109-3.424.11m5.868-.291c-.656.065-1.314.103-1.971.146-2.02-1.614-4.172-3.084-6.253-4.612a385 385 0 0 0-6.16-4.412 80 80 0 0 0 3.642-.041 33 33 0 0 0 3.184 2.644c1.408 1.066 2.77 2.19 4.182 3.251 1.082.815 2.145 1.653 3.218 2.48l.64.49q-.24.028-.482.054m1.087-.12c-.294-.232-.628-.436-.775-.549-1.012-.778-2.01-1.575-3.036-2.336-1.425-1.056-2.81-2.17-4.264-3.187a39 39 0 0 1-3.62-2.733c.89-.03 1.778-.092 2.666-.146 2 1.398 3.964 2.857 5.87 4.38 1.732 1.385 3.342 2.915 5.045 4.33-.629.082-1.257.166-1.886.241m2.218-.28a52 52 0 0 0-5.38-4.587 76 76 0 0 0-5.795-4.088q1.661-.103 3.316-.25a.047.047 0 0 0 .002.069c1.948 1.702 3.89 3.412 5.842 5.111 1.34 1.168 2.67 2.363 4.03 3.517q-1.009.097-2.015.227m33.98-3.688c-2.498-.221-4.994-.157-7.482-.535a30.5 30.5 0 0 1-8.26-2.209c-.08-.038-.152.078-.071.121a33 33 0 0 0 3.202 1.604 27 27 0 0 0 3.568 1.156c.513.131 1.03.25 1.547.367a.27.27 0 0 0 .04.185 11 11 0 0 0 1.227 1.705c.52.534 1.079 1.035 1.616 1.551 1.078 1.035 2.163 2.062 3.232 3.106q3.163 3.088 6.373 6.124l6.426 6.072 3.259 3.078c1.004.95 2.062 1.866 2.998 2.884a2.88 2.88 0 0 1 .99 2.832 3.14 3.14 0 0 1-2.115 1.792c-2.434.69-5.161-1.02-7.205-2.15a82 82 0 0 1-12.243-8.684c-3.903-3.213-7.716-6.541-11.786-9.546-3.444-2.542-7.232-4.971-11.457-5.816-.619-.56-1.256-1.103-1.884-1.646l-2.958-2.556c-1.944-1.68-3.916-3.327-5.88-4.984-.057-.048-.14.032-.083.083 1.939 1.737 3.87 3.484 5.828 5.199l2.854 2.497c.482.422.958.858 1.445 1.281a16 16 0 0 0-1.898-.183c-.134-.005-.267.001-.4 0q-.415-.324-.818-.65c-1.047-.852-2.102-1.695-3.153-2.542a665 665 0 0 0-6.255-4.965c-.024-.018-.057.014-.033.033q3.097 2.602 6.218 5.175c1.012.829 2.02 1.663 3.036 2.487q.278.227.555.462c-.619.006-1.237.029-1.854.079-1.423-1.26-2.901-2.468-4.35-3.689a686 686 0 0 0-5.977-4.964c.77-.069 1.54-.139 2.306-.226 3.973-.454 7.915-1.227 11.901-1.556a29 29 0 0 1 6.032.084c1.92.242 3.81.676 5.708 1.054.567.113 1.135.191 1.702.282 1.8 1.108 3.6 2.219 5.443 3.255a.023.023 0 0 0 .023-.04c-1.728-1.108-3.5-2.145-5.272-3.183 1.49.23 2.98.388 4.475.508a36 36 0 0 0 2.656 2.025q.846.58 1.724 1.11a17 17 0 0 0 1.9 1.055.035.035 0 0 0 .036-.06c-.58-.358-1.199-.658-1.786-1.006q-.881-.523-1.732-1.097a36 36 0 0 1-2.68-2.016c1.207.094 2.42.157 3.638.21 2.241 1.645 4.45 3.337 6.722 4.937zm1.245.107a59 59 0 0 0-6.692-4.945c.453.019.905.041 1.361.056q.986.033 1.959.095c2.126 1.683 4.255 3.377 6.474 4.928.025.017.057-.023.033-.043-2.05-1.706-4.21-3.292-6.362-4.875q1.541.1 3.056.302a85 85 0 0 1 4.727 3.816q.667.581 1.32 1.179l.004.004c-1.959-.18-3.92-.348-5.88-.517m6.796.598-.689-.061c-.096-.101-.178-.19-.233-.24q-.486-.438-.978-.868-.986-.86-2.001-1.686a66 66 0 0 0-2.907-2.204q1.302.183 2.586.47 1.61 1.336 3.233 2.655c.874.707 1.747 1.416 2.64 2.099-.55-.054-1.1-.113-1.651-.166m14.379 1.752c-.74-.097-1.483-.186-2.215-.295a236 236 0 0 0-3.947-.559c-2.123-.28-4.25-.504-6.38-.715-.908-.775-1.844-1.518-2.777-2.263q-1.565-1.251-3.147-2.48a27 27 0 0 1 3.211.934q.541.198 1.076.41l1.686 1.273c.922.696 1.834 1.414 2.799 2.05.025.018.057-.022.033-.042-.877-.733-1.813-1.393-2.733-2.07l-1.498-1.1c2.997 1.191 5.904 2.613 9.006 3.53a41 41 0 0 0 5.412 1.181 5 5 0 0 0-.526.145m15.72-1.294c.143-.095.293-.173.431-.277a7 7 0 0 0 1.088-1.048c.368.638.735 1.276 1.12 1.903a5.7 5.7 0 0 0-2.639-.578m14.835-1.35c1.486 1.606 3.037 3.154 4.564 4.721 1.557 1.597 3.127 3.181 4.69 4.771.612.622 1.57 1.343 1.723 2.26a2.27 2.27 0 0 1-.67 1.846c-1.33 1.428-3.537 1.123-5.245.726a25.6 25.6 0 0 1-4.958-1.698 27.6 27.6 0 0 1-6.566-4.267.03.03 0 0 0 .021-.045c-.576-1.283-1.34-2.488-2.034-3.708a250 250 0 0 0-2.132-3.65.031.031 0 0 0-.054.03 256 256 0 0 0 2.03 3.71c.674 1.198 1.303 2.444 2.081 3.578a27 27 0 0 1-1.754-1.684 25 25 0 0 1-1.883-2.22 18 18 0 0 0-1.506-2.017q-.743-1.23-1.53-2.436a6.62 6.62 0 0 0 1.401-6.32 5 5 0 0 0-.374-.776q.18.055.356.112l4.259 1.43q1.93.648 3.862 1.289a14 14 0 0 0 1.48 1.856c.745.832 1.48 1.672 2.239 2.492"/><path fill="currentColor" d="M215.845 36.735c-.07-.066-.172.037-.105.105 2.676 2.675 5.305 5.442 8.183 7.902a.05.05 0 0 0 .072-.072c-2.547-2.8-5.393-5.343-8.15-7.935m16.387 11.638.014-.01c-2.154-2.25-4.55-4.302-6.848-6.403a410 410 0 0 0-7.009-6.24c-.038-.033-.091.019-.055.055q3.333 3.294 6.73 6.52c2.265 2.137 4.49 4.374 6.892 6.357a.196.196 0 0 0 .276-.28m5.685.793a19 19 0 0 0-3.026-2.51q-1.545-1.23-3.061-2.497a142 142 0 0 1-5.928-5.227.074.074 0 0 0-.105.105c1.906 1.924 3.862 3.792 5.915 5.558q1.497 1.287 3.043 2.514a14 14 0 0 0 3.093 2.175c.073.03.107-.07.069-.118m4.654 1.475a13 13 0 0 0-1.947-1.95q-1.091-1.01-2.223-1.974a66 66 0 0 0-4.533-3.497c-.05-.036-.095.045-.048.08a86 86 0 0 1 4.52 3.703q1.06.924 2.085 1.888a19.5 19.5 0 0 0 2.013 1.884.098.098 0 0 0 .133-.133m2.969.087a24 24 0 0 0-2.718-2.273q-1.401-1.094-2.797-2.194c-.047-.036-.113.028-.067.067q1.38 1.154 2.755 2.313a23.5 23.5 0 0 0 2.761 2.173.055.055 0 0 0 .067-.086m3.136-.35a89 89 0 0 0-2.49-1.389.016.016 0 0 0-.016.027c.824.475 1.647.948 2.486 1.396a.02.02 0 0 0 .02-.034m-16.583 8.4c-2.17-1.59-4.439-3.05-6.67-4.553-.071-.048-.137.067-.067.115 2.226 1.508 4.425 3.067 6.71 4.485.03.02.055-.026.027-.047m8.158 3.349a28 28 0 0 0-2.878-2.179 118 118 0 0 0-3.15-2.178 163 163 0 0 0-6.46-4.115c-.047-.029-.09.044-.043.074a337 337 0 0 1 6.275 4.192c1.022.697 2.033 1.41 3.054 2.11 1.041.713 2.059 1.535 3.164 2.145.03.017.064-.024.038-.049m38.86 4.533c-1.98-1.635-4.1-3.1-6.098-4.718a146 146 0 0 1-5.887-5c-.052-.047-.129.029-.077.077 1.904 1.782 3.854 3.521 5.878 5.166a59 59 0 0 0 6.108 4.573c.06.037.132-.052.076-.098m1.505-1.756a16 16 0 0 0-1.81-1.445l-1.952-1.48c-1.3-.987-2.62-1.946-3.932-2.916-.017-.013-.04.017-.023.03 1.248.982 2.487 1.976 3.746 2.942l1.945 1.493a17 17 0 0 0 1.974 1.443.043.043 0 0 0 .052-.067m2.543-.999a6 6 0 0 0-.923-.552l-.942-.499-1.953-1.033c-.057-.03-.108.056-.051.087l1.93 1.071.932.517a6 6 0 0 0 .97.474c.035.012.068-.04.037-.065m43.915-10.989a1.76 1.76 0 0 0-.682.498 2 2 0 0 0-.26.332q-.114.185-.212.38a.02.02 0 0 0 .034.02 2.4 2.4 0 0 1 .255-.329c.094-.1.187-.204.286-.301.194-.192.419-.35.613-.541.024-.024 0-.07-.034-.059m23.52-20.694a.086.086 0 0 0-.169.023 3.75 3.75 0 0 1-.657 1.746 3.5 3.5 0 0 1-.571.677c-.128.118-.238.188-.373.302q-.071.063-.144.123a.43.43 0 0 0-.18.332 2 2 0 0 1-.484.233c-.052.015-.046.106.014.1.191-.02.382-.057.57-.094a.4.4 0 0 0 .42.058c.09-.037.18-.073.264-.117a2.2 2.2 0 0 0 .462-.354 3.2 3.2 0 0 0 .69-.898 2.72 2.72 0 0 0 .158-2.13m-27.329 3.179-2.562-2.417c-.051-.048-.128.028-.077.077l2.51 2.47a33 33 0 0 0 2.567 2.411.047.047 0 0 0 .067-.066 33 33 0 0 0-2.505-2.475m6.09 2.986a3.6 3.6 0 0 0-.57-.47q-.374-.28-.739-.572-.655-.523-1.282-1.08a33 33 0 0 1-2.387-2.352c-.041-.045-.107.022-.066.066a33 33 0 0 0 2.4 2.404q.622.56 1.273 1.089.288.234.582.461a3.6 3.6 0 0 0 .746.509.035.035 0 0 0 .043-.055m4.148 1.194c-.86-.841-1.854-1.563-2.785-2.323-.938-.766-1.888-1.517-2.836-2.271-.016-.012-.038.009-.022.022.935.794 1.868 1.59 2.814 2.372.916.757 1.806 1.582 2.786 2.255.033.023.071-.028.043-.055m1.232-.979c-.017-.01-.033.018-.016.027l2.3 1.274c.017.01.033-.017.015-.027zm5.888 2.529c-.017-.011-.033.016-.016.027l1.273.773c.012.007.024-.013.011-.02zm-43.171-9.918c-3.085-1.566-6.303-2.898-9.46-4.31-.028-.012-.052.028-.024.04 3.14 1.458 6.258 3.011 9.466 4.313.025.01.042-.031.018-.043m4.869.474a55 55 0 0 0-5.075-2.606l-5.122-2.527c-.076-.037-.143.076-.067.115l5.184 2.621a55 55 0 0 0 5.056 2.454c.035.013.053-.039.024-.057m5.052.365a13 13 0 0 0-2.03-1.077l-2.127-1.072-4.182-2.105c-.058-.03-.11.058-.052.088l4.236 2.176 2.045 1.05a13 13 0 0 0 2.08 1.011c.045.014.063-.046.03-.071m2.795-.492a11 11 0 0 0-1.672-1.049q-.884-.497-1.793-.948-1.792-.891-3.666-1.6c-.033-.013-.047.04-.015.052q1.881.746 3.682 1.675.872.45 1.72.944c.562.326 1.108.713 1.696.987.037.018.084-.03.048-.06m1.792-1.015c-.566-.314-1.17-.559-1.76-.822l-1.776-.794c-.023-.01-.043.023-.02.034l1.787.844c.577.272 1.149.566 1.748.788.03.011.048-.035.021-.05m-5.524 4.957a.016.016 0 0 0-.022.022 90 90 0 0 0 4.819 4.63c.03.026.072-.016.044-.045a90 90 0 0 0-4.84-4.607m8.91 6.384q-.964-1.072-1.957-2.118a87 87 0 0 0-4.123-4.033c-.033-.03-.082.018-.05.05a142 142 0 0 1 3.972 4.074q.962 1.022 1.897 2.068a20 20 0 0 0 1.954 2.116c.026.021.068-.006.049-.038a14 14 0 0 0-1.742-2.12m6.827 4.049a37 37 0 0 1-.686-.954.046.046 0 0 0-.08.044c-1.3-1.52-2.7-2.973-4.056-4.432q-2.437-2.622-4.887-5.231c-.045-.048-.115.023-.072.072q2.39 2.67 4.767 5.35c1.576 1.78 3.118 3.636 4.797 5.318.107.107.313-.038.217-.167m4.275 1.349q-.122-.144-.245-.286c-.049-.052-.088-.117-.14-.164-3.199-3.782-6.562-7.434-9.882-11.109-.02-.022-.052.011-.033.034 3.108 3.6 6.193 7.237 9.406 10.746-.026-.01-.048.025-.022.04a2 2 0 0 1 .19.144c.21.23.416.464.628.692a.07.07 0 0 0 .109-.084Zm7.567-.922q-2.24-2.423-4.556-4.773c-.032-.032-.081.017-.05.05q2.3 2.367 4.525 4.805c1.48 1.623 2.889 3.322 4.402 4.913.028.03.068-.013.044-.044-1.348-1.73-2.877-3.341-4.365-4.95m5.279 3.698-2.033-2.237-4.007-4.412c-.037-.04-.097.02-.06.061l3.926 4.37 1.905 2.121a26 26 0 0 0 2.054 2.215c.022.02.062-.006.043-.033a23 23 0 0 0-1.828-2.085m-.521-3.232c-.026-.024-.064.015-.039.04a75 75 0 0 1 5.198 5.528c.022.027.06-.012.038-.038a75 75 0 0 0-5.197-5.53m4.093 2.289c-.032-.032-.082.018-.05.05 1.367 1.352 2.705 2.747 4.118 4.052a.023.023 0 0 0 .033-.034c-1.322-1.397-2.732-2.717-4.101-4.068m2.113 15.775c-.022-.033-.075-.003-.054.032 1.14 1.816 2.233 3.676 3.473 5.426.023.033.074.004.054-.031-1.07-1.86-2.301-3.631-3.473-5.427"/><path fill="none" d="M350.3 70.286a.004.004 0 0 0 0-.008"/><path fill="currentColor" d="M353.12 71.539c-.012-.009-.024.012-.011.02l.77.503c.009.006.017-.008.008-.013zm-38.066-8.885a4 4 0 0 0-.602-.384l-.647-.393-1.293-.786c-.035-.021-.066.033-.032.054l1.288.796.643.398a4 4 0 0 0 .616.361c.026.01.046-.028.027-.046m-32.06 5.332c-.075-.166-.164-.327-.247-.49-.16-.317-.332-.627-.502-.94q-.528-.967-1.06-1.933c-.028-.049-.099-.006-.075.044q.467.981.937 1.962c.154.32.305.642.469.958.082.158.16.318.245.473a5 5 0 0 0 .328.469c.026.037.096.016.079-.033-.058-.168-.1-.35-.174-.51m1.394-.436a91 91 0 0 0-1.446-2.401.023.023 0 0 0-.04.024c.43.83.862 1.658 1.318 2.475.455.817.895 1.64 1.426 2.412a.047.047 0 0 0 .081-.047c-.39-.852-.87-1.653-1.339-2.464m2.887 2.707-.756-1.346q-.77-1.368-1.538-2.737c-.01-.018-.037-.002-.027.015l1.467 2.718.709 1.311a12 12 0 0 0 .786 1.39c.022.029.08.012.065-.028a12 12 0 0 0-.706-1.323m3.288 2.33c-.12-.16-.246-.317-.367-.476q-.387-.509-.753-1.033-.72-1.033-1.356-2.121a.09.09 0 0 0-.155.09q.636 1.109 1.358 2.164.35.51.722 1.008c.117.157.234.317.358.47a2 2 0 0 0 .422.444c.041.026.105-.018.086-.067a2 2 0 0 0-.315-.479m2.512.886-.317-.394-.636-.788c-.034-.043-.095.018-.06.06l.625.777.308.382a2.7 2.7 0 0 0 .326.386.031.031 0 0 0 .05-.038 2.5 2.5 0 0 0-.296-.385m3.865 1.651a.63.63 0 0 1-.452-.112.58.58 0 0 1-.245-.392.043.043 0 1 0-.084.011.674.674 0 0 0 .788.539c.025-.007.02-.05-.006-.046M194.813 5.795a38.2 38.2 0 0 0-9.5 1.226c-.068.017-.039.122.03.106a53.4 53.4 0 0 1 9.47-1.262.035.035 0 0 0 0-.07m2.551-1.665a134 134 0 0 0-4.086-.019.043.043 0 0 0 0 .086c1.363.008 2.723.014 4.086-.02a.023.023 0 0 0 0-.046m104.901 283.607-36.286-164.525 11.151-2.654-21.231-24.662-7.124 31.409 10.393-2.473 36.311 164.641-11.069 2.833 21.647 24.299 6.59-31.526zM78.396 175.059a15 15 0 0 0-2.663-.307q-1.428-.1-2.858-.178c-1.904-.106-3.81-.174-5.717-.249-.025 0-.024.037 0 .04 1.869.193 3.736.395 5.607.557q1.374.122 2.749.224a16.3 16.3 0 0 0 2.858.09c.094-.01.13-.15.024-.177m3.052-3.249a22 22 0 0 0-2.93-.017q-1.408.017-2.817-.006c-1.915-.033-3.828-.09-5.74-.215-.055-.004-.053.08 0 .086 1.946.192 3.898.343 5.853.397q1.464.04 2.93.035a14.3 14.3 0 0 0 2.722-.15c.08-.015.05-.122-.018-.13m2.058-2.62a9.5 9.5 0 0 0-2.3-.154c-.824-.007-1.648-.003-2.472-.005q-2.472-.004-4.944-.025a.027.027 0 0 0 0 .054q2.473.094 4.944.203c.824.037 1.648.079 2.472.11a9.6 9.6 0 0 0 2.3-.048.07.07 0 0 0 0-.136m3.078-3.134a7.4 7.4 0 0 0-2.247-.02c-.804.044-1.608.08-2.41.143q-2.408.19-4.817.372c-.02.001-.02.031 0 .03q2.408-.038 4.818-.06c.803-.008 1.606-.045 2.409-.074a7.4 7.4 0 0 0 2.247-.218.09.09 0 0 0 0-.173m3.04-2.805a18 18 0 0 0-3.578.111q-1.788.143-3.578.259c-.09.005-.091.144 0 .14q1.824-.068 3.648-.113a17.6 17.6 0 0 0 3.527-.259c.084-.02.054-.129-.019-.138m1.542-2.897a6 6 0 0 0-1.92-.008 11 11 0 0 0-1.945.504.05.05 0 0 0 .027.098 26 26 0 0 1 3.823-.487c.056-.005.08-.096.015-.107m2.543-2.074a1.5 1.5 0 0 0-.432.02c-.153.02-.31.032-.46.065l-.913.193c-.03.007-.024.057.007.054l.928-.078c.148-.012.296-.044.442-.068a1.6 1.6 0 0 0 .438-.107.043.043 0 0 0-.01-.079m3.307-2.537a1.5 1.5 0 0 0-.375.043q-.195.038-.388.078l-.775.155c-.06.012-.034.1.025.09l.78-.135q.196-.033.39-.068a1.5 1.5 0 0 0 .361-.097c.034-.016.014-.063-.018-.066m3.577-4.016a6 6 0 0 1-1.794.982.035.035 0 0 0 .019.068 3.5 3.5 0 0 0 .991-.358 3.4 3.4 0 0 0 .829-.648c.028-.03-.014-.069-.045-.044m-11.47 194.166a83 83 0 0 0-11.259 1.055q-5.503.709-10.96 1.689c-.02.003-.012.033.007.03q5.645-.843 11.32-1.496c3.624-.41 7.31-.555 10.908-1.155.071-.012.052-.122-.016-.123m.257-2.587a16.3 16.3 0 0 0-3.202.307l-3.325.412q-3.263.405-6.528.791c-.049.006-.05.084 0 .078q3.325-.36 6.651-.709l3.202-.332a16.4 16.4 0 0 0 3.22-.424.063.063 0 0 0-.017-.123m-.014-2.394c-1.6.087-3.192.366-4.778.586-1.644.228-3.284.482-4.925.736-.017.002-.013.032.004.03a304 304 0 0 0 4.945-.592c1.587-.207 3.196-.359 4.762-.698a.031.031 0 0 0-.008-.062m-.757-2.221c-1.284.076-2.562.288-3.837.454-.043.006-.045.075 0 .07 1.28-.141 2.575-.24 3.843-.47.03-.006.024-.056-.007-.054m20.276-27.779q-4.964-5.497-9.72-11.181c-.016-.02-.042.008-.027.027q4.633 5.796 9.546 11.355c3.278 3.692 6.604 7.368 10.201 10.754a.059.059 0 0 0 .083-.083c-3.32-3.661-6.77-7.203-10.083-10.872m11.097 14.205c-1.163-1.32-2.599-2.446-3.863-3.672q-1.914-1.856-3.753-3.787a144 144 0 0 1-7.072-7.973c-.032-.039-.086.017-.055.055 2.247 2.805 4.595 5.533 7.075 8.134q1.84 1.93 3.756 3.784a34 34 0 0 0 3.865 3.52c.038.027.075-.03.047-.061m-.129 2.417a32 32 0 0 0-2.459-2.383l-2.565-2.42-5.056-4.77c-.04-.037-.101.023-.061.061l5.097 4.872 2.475 2.367a32 32 0 0 0 2.517 2.34c.041.032.082-.033.052-.067m-1.011 1.167q-.698-.744-1.425-1.46a45 45 0 0 0-3.006-2.688c-.027-.022-.065.015-.038.039.99.88 1.947 1.798 2.884 2.735q.685.684 1.344 1.393c.46.495.9 1.028 1.403 1.48.035.03.096-.01.068-.052a12 12 0 0 0-1.23-1.447m2.696 4.814-1.786-1.534c-.023-.02-.056.014-.033.034l1.791 1.527c.019.017.047-.01.028-.027m177.968 49.258c-2.68-1.222-5.43-2.271-8.171-3.349-.053-.02-.092.07-.04.093 2.712 1.152 5.409 2.33 8.178 3.335.045.016.078-.059.033-.079m8.138 1.107c-1.682-.756-3.452-1.33-5.171-1.995q-2.766-1.071-5.493-2.235c-.064-.027-.12.066-.056.095q2.59 1.132 5.213 2.185a50 50 0 0 0 5.483 2.007c.033.009.058-.042.024-.057m6.102-.193a21 21 0 0 0-3.003-1.217c-1.119-.432-2.236-.867-3.357-1.295-2.2-.84-4.407-1.664-6.61-2.496-.038-.015-.053.045-.017.06 2.156.852 4.309 1.71 6.466 2.556 1.078.423 2.16.837 3.24 1.255a22.5 22.5 0 0 0 3.254 1.201.035.035 0 0 0 .027-.064m4.62-.323a4.7 4.7 0 0 0-1.07-.501q-.627-.26-1.257-.511l-2.517-1.012-5.034-2.025c-.042-.017-.06.051-.019.068l5.014 2.098 2.507 1.048q.626.262 1.255.52a4.6 4.6 0 0 0 1.102.387c.043.006.046-.053.02-.072m4.336-.379c-.235-.247-.477-.487-.716-.73-.03-.03-.088.011-.061.048l.357.48q-3.438-1.614-6.89-3.2c-.044-.02-.084.046-.039.068 2.404 1.173 4.805 2.35 7.217 3.506a.11.11 0 0 0 .132-.172m4.122-.944a10.3 10.3 0 0 0-1.615-.614q-.892-.32-1.774-.665-1.788-.7-3.532-1.507c-.058-.027-.11.058-.051.087q1.699.84 3.444 1.58.796.338 1.601.654a9 9 0 0 0 1.855.636c.098.015.172-.114.072-.17m3.058-1.069c-.725-.212-1.458-.39-2.174-.634a21 21 0 0 1-2.167-.877c-.027-.013-.051.027-.024.04a21 21 0 0 0 2.095.882 13.5 13.5 0 0 0 2.255.642.027.027 0 0 0 .015-.053m4.585-.477a15.3 15.3 0 0 1-3.049-.553c-.02-.006-.027.024-.008.03a10.7 10.7 0 0 0 3.057.578c.036 0 .035-.052 0-.055m1.279-1.293a.016.016 0 0 0 0 .032l.51-.004a.012.012 0 0 0 0-.024zm4.09-1.006a7 7 0 0 0-.886-.178l-.91-.103c-.047-.006-.058.075-.01.084l.898.181a7 7 0 0 0 .896.1.043.043 0 0 0 .012-.084"/></svg>