<svg xmlns="http://www.w3.org/2000/svg" data-name="moray eel" viewBox="0 0 314.537 510.251"><path fill="currentColor" d="M311.385 1.682a5.32 5.32 0 0 0-4.957-1.528c-1.917.536-3.166 2.302-4.413 3.723q-4.547 5.18-9.347 10.135c-3.6 3.71-7.392 7.23-10.957 10.97-.028.03-.031.072-.05.107-1.672 1.283-3.342 2.567-5.03 3.829-5.544 4.148-11.181 8.185-16.976 11.98-1.44.692-2.861 1.426-4.307 2.105-1.873.88-3.733 1.897-5.67 2.627-1.988.75-3.941 1.667-5.875 2.549-3.695 1.685-7.375 3.433-11.173 4.879-3.852 1.466-7.827 2.145-11.816 3.1a31.9 31.9 0 0 0-10.286 4.715c-3.055 2.039-5.924 4.344-8.976 6.389a71 71 0 0 1-10.456 5.624 258 258 0 0 1-11.622 4.868c-4.366 1.714-8.78 3.294-13.202 4.853-2.214.78-4.427 1.556-6.66 2.278q-.867.278-1.737.549c-.764.07-1.526.162-2.295.21-5.351.33-10.804.382-15.33 3.658a71.5 71.5 0 0 0-9.113 8.393c-4.756 2.76-9.414 5.681-14.08 8.594q-8.1 5.056-16.182 10.143-16.165 10.173-32.308 20.381c-5.049 3.204-10.188 6.35-14.529 10.504-4.228 4.047-7.703 8.8-11.259 13.426l-11.655 15.16c-1.88 2.445-3.786 4.87-5.631 7.34a25.4 25.4 0 0 0-4.125 7.516 40 40 0 0 0-1.387 8.473q-.42 4.767-.763 9.539c-.46 6.332-.552 12.678-.936 19.012q-.026.443-.048.887a190 190 0 0 0-1.252 8.921c-1.256 10.94-1.44 22.011-1.584 33.012-.151 11.452-.237 22.904-.352 34.356L14.7 339.71c-.103 10.325-.202 20.645.235 30.96-.121.545-.249 1.089-.369 1.634-2.354 10.694-4.492 21.413-6.292 32.216-1.796 10.782-3.318 21.615-4.468 32.486-1.156 10.923-1.863 21.873-2.187 32.85-.16 5.448-.28 10.898-.547 16.342-.131 2.69-.275 5.37-.353 8.062-.078 2.736-.08 5.459-.354 8.184-.135 1.33-.22 2.663-.363 3.992-.028.27.409.323.47.064.615-2.61 1.065-5.24 1.58-7.869a68 68 0 0 0 1.187-8.076c.39-5.433.526-10.885.678-16.328.307-10.924.816-21.819 1.859-32.7 1.038-10.829 2.489-21.61 4.184-32.354 1.626-10.306 3.477-20.582 5.33-30.85l.02.461a.201.201 0 0 0 .402 0q.121-2.083.26-4.165c1.856-10.063 3.95-20.09 5.65-30.178.226-1.343.441-2.685.632-4.034.012-.088-.112-.13-.139-.038-1.523 5.252-2.713 10.593-3.938 15.92-.514 2.238-1.007 4.48-1.515 6.72.022-.505.052-1.009.07-1.514.2-5.76.275-11.525.334-17.29l.354-34.578.354-34.586c.12-10.965.324-21.929 1.07-32.872.371-5.436.75-10.873 1.421-16.282.677-5.46 1.683-10.878 2.832-16.255.287-1.34.522-2.685.842-4.019a.1.1 0 0 0-.193-.053 127 127 0 0 0-3.289 11.536c.147-1.152.295-2.305.432-3.458q.556-4.709 1.021-9.43c.287-2.926.432-5.878.867-8.787a21 21 0 0 1 2.703-7.944 80 80 0 0 1 5.199-7.088l11.483-14.91c3.609-4.684 7.097-9.514 11.087-13.888a67.8 67.8 0 0 1 13.37-10.793q15.75-10.304 31.497-20.615 7.926-5.204 15.841-10.422c5.187-3.433 10.423-6.802 15.517-10.37-.69.698-1.383 1.39-2.091 2.063-2.213 2.103-4.399 4.181-6.462 6.432-.248.27.117.606.392.392 2.47-1.915 4.774-3.971 7.106-6.05 2.232-1.991 4.656-3.75 6.866-5.765a61.5 61.5 0 0 1 6.453-5.562 16.4 16.4 0 0 1 7.175-2.608c2.608-.358 5.253-.361 7.875-.564a86 86 0 0 0 8.57-1.114 119 119 0 0 0 16.181-4.22c5.443-1.796 10.789-3.87 16.107-6.005 5.045-2.025 10.43-3.83 14.88-7.028 2.12-1.523 3.952-3.397 6.05-4.951a31.4 31.4 0 0 1 7.339-3.84c4.91-1.927 9.769-3.908 14.503-6.242 19.346-9.535 36.46-22.872 53.405-36.059q.91-.707 1.818-1.415a4.2 4.2 0 0 0-.252 1.494 4.07 4.07 0 0 0 .784 2.653c.077.07.289.17.335.271.083.183-.044.507-.105.678a4 4 0 0 1-.829 1.295 10.5 10.5 0 0 1-2.088 1.71c-1.41.928-3.691 2.705-5.434 1.65a.212.212 0 0 0-.31.126 1.07 1.07 0 0 0 1.126 1.294c1 .024 1.673-.797 2.47-1.278 1.627-.983 3.495-2.005 4.624-3.587.46-.645.53-1.501 1.04-2.07a1.3 1.3 0 0 0 .406-1.31c-.092-.514-.266-1.005-.316-1.527a4.28 4.28 0 0 1 1.357-3.507 6.5 6.5 0 0 1 2.136-.977c2.147-.474 4.291.802 5.566 2.464 3.237 4.22 1.182 10.614-.47 15.059a43.8 43.8 0 0 1-7.302 12.636 51.4 51.4 0 0 1-11.499 9.983c-4.342 2.865-8.902 5.388-13.195 8.329a63 63 0 0 0-11.84 10.621 117.5 117.5 0 0 1-10.784 11.364 71.5 71.5 0 0 1-12.687 8.848c-1.07.587-2.163 1.128-3.253 1.676l-.278.113a24 24 0 0 0-3.765 1.787 33 33 0 0 0-3.435 2.587c-2.227 1.901-4.285 3.994-6.476 5.936q-3.348 2.966-6.904 5.688c-4.76 3.646-9.74 6.995-14.821 10.173q-3.816 2.387-7.7 4.664c-2.62 1.543-5.185 2.919-7.121 5.329-2.224 2.768-4.38 5.597-6.544 8.411a19 19 0 0 0-1.38 2.052l.08-.45c.293-1.642.662-3.277.825-4.938.235-2.398 1.27-5.812 3.843-6.607a.105.105 0 0 0-.056-.203c-2.523.36-3.866 2.437-4.717 4.646a68.5 68.5 0 0 0-2.722 9.904c-.8 3.621-1.459 7.275-2.095 10.929a269 269 0 0 0-.912 5.646 25.5 25.5 0 0 0-.427 4.464 11.1 11.1 0 0 0 .826 4.321q.073.159.157.32c-.949-1.13-2.062-2.099-3.11-3.137l.001-.005c.121-.29.227-.588.347-.879.246-.594.46-1.192.747-1.769a.067.067 0 0 0-.116-.068c-.334.544-.7 1.083-.99 1.652q-.176.348-.34.704c-.262-.27-.526-.538-.773-.824-.13-.15-.247-.31-.372-.464.081-.147.16-.293.238-.43.383-.665.73-1.351 1.065-2.042a40 40 0 0 0 1.705-4.165c.025-.07-.09-.12-.123-.051-.646 1.36-1.357 2.686-2.085 4.005-.359.65-.736 1.291-1.107 1.935q-.061.103-.127.208a24 24 0 0 1-1.158-1.686c.261-.418.477-.875.695-1.296.377-.73.752-1.46 1.091-2.207a131 131 0 0 0 1.891-4.4c.031-.075-.097-.13-.13-.056q-1.011 2.194-2.16 4.317c-.375.697-.732 1.405-1.107 2.103-.188.35-.406.709-.597 1.078a24 24 0 0 1-1.233-2.285c-.022-.048-.04-.097-.063-.145.341-.508.621-1.075.902-1.592q.662-1.208 1.298-2.429l2.583-4.976a.034.034 0 0 0-.058-.034l-2.858 4.815q-.7 1.185-1.376 2.384c-.235.414-.499.845-.726 1.288a36 36 0 0 1-2.019-6.166 60 60 0 0 1-1.414-7.54c-.008-.071-.119-.074-.115 0a63 63 0 0 0 .616 7.646 32.3 32.3 0 0 0 2.185 7.36 26.2 26.2 0 0 0 3.066 5.285 2 2 0 0 0-.043.213.092.092 0 0 0 .137.078c.029-.015.05-.042.077-.06.067.088.127.18.195.266a17.6 17.6 0 0 0 1.746 1.925 39 39 0 0 1-1.498-.818 35.6 35.6 0 0 1-6.374-4.632 23 23 0 0 1-2.563-2.8c-.079-.103-.255.032-.18.139a29.4 29.4 0 0 0 4.898 5.53 36.5 36.5 0 0 0 6.122 4.146c.543.296 1.096.571 1.645.855.584.301 1.097.715 1.67 1.034a27 27 0 0 0 3.879 1.618 64 64 0 0 0 8.596 2.34 295 295 0 0 0 17.724 3.254c3.07.464 6.153.849 9.25 1.078 2.71.201 5.478.247 8.061 1.187a15.8 15.8 0 0 1 6.025 4.573 69 69 0 0 1 5.116 6.402 78.5 78.5 0 0 1 8.021 14.336c1.987 4.618 3.65 9.925 2.782 15-.396 2.315-1.362 5.014-3.335 6.455-2.09 1.526-4.805.671-6.841-.506-.361-.209-.7-.446-1.044-.676a9.04 9.04 0 0 1-.252-4.977 9.3 9.3 0 0 1 1.036-2.723 5.3 5.3 0 0 1 .798-1.115c.232-.238.82-1.028 1.11-1.124a.14.14 0 0 0 .06-.23 41 41 0 0 0-4.363-3.877 21.6 21.6 0 0 0-5.23-2.648 7.45 7.45 0 0 0-5.554.23 3.86 3.86 0 0 0-1.638 2.406c-.095.324-.205.7-.288 1.087a28 28 0 0 0-10.018-4.384 10.6 10.6 0 0 0-2.076-.196 28 28 0 0 0-2.056-.636c.046-.243.084-.489.132-.74a10 10 0 0 1 .632-1.772 22 22 0 0 1 2.224-3.669 13.5 13.5 0 0 0 1.672-3.92 27 27 0 0 0 .464-2.255c.064-.385.112-.773.184-1.157.047-.253.303-.764.605-.841a8.7 8.7 0 0 0-.096 1.956c-.005.115.14.13.196.053.463-.627 1.883-1.813 1.122-2.696a1.136 1.136 0 0 0-1.707.077 6.2 6.2 0 0 0-.636 2.517 22 22 0 0 1-.78 3.286 16 16 0 0 1-3.328 5.465 10.1 10.1 0 0 0-2.398 3.263q-2.972-.722-5.975-1.306c-4.95-.955-9.946-1.65-14.947-2.276-4.93-.618-9.985-1.44-14.922-.443-2.426.49-4.636 1.597-6.985 2.333a29 29 0 0 1-7.09 1.213 43.4 43.4 0 0 1-8.386-.289c-1.369-.194-2.729-.444-4.096-.653-1.414-.216-2.857-.252-4.257-.549a.038.038 0 0 0-.02.074c1.19.316 2.314.824 3.486 1.204a36 36 0 0 0 3.587.903q.422.09.846.177a60 60 0 0 0-3.038.371 34.6 34.6 0 0 0-6.06 1.445c-1.963.67-3.864 1.502-5.8 2.244-4.005 1.536-8.169 2.71-12.291 3.888-2.075.594-4.17 1.079-6.256 1.624-.945.247-1.862.562-2.824.733-1.077.19-2.152.38-3.24.492a23.03 23.03 0 0 1-13.009-2.156.077.077 0 0 0-.077.132 23.74 23.74 0 0 0 10.84 3.388 39 39 0 0 0 5.234-.015 7.9 7.9 0 0 1-2.655 1.114 27 27 0 0 1-2.946.697 18 18 0 0 1-6.897-.763c-4.604-1.247-9.157-2.827-13.618-4.507a59 59 0 0 1-7.648-3.384.053.053 0 0 0-.053.09 69.7 69.7 0 0 0 13.623 6.802c2.439.94 4.884 1.904 7.37 2.71a24 24 0 0 0 3.549.882l-.228.184a3 3 0 0 1-2.703.983c-2.69-.443-5.364-.983-8.037-1.514a79 79 0 0 1-15.622-5.096 72 72 0 0 1-8.311-4.108.12.12 0 0 0-.12.207c2.41 1.533 4.835 3.048 7.357 4.394a73 73 0 0 0 7.695 3.475 92 92 0 0 0 10.382 3.497 116 116 0 0 1 4.365 3.826 73 73 0 0 1 2.577 2.541 19 19 0 0 0 2.617 2.538.1.1 0 0 0 .05.013c1.868 15.33 4.304 30.611 6.499 45.888 2.635 18.34 5.248 36.683 7.958 55.012 2.707 18.306 5.79 36.605 7.916 54.99A208 208 0 0 1 119 418.082c-.14 9.258-.909 18.491-1.787 27.703q-1.45 15.218-3.234 30.4c-1.208 10.286-2.454 20.53-3.051 30.875a.298.298 0 0 0 .582.079 304 304 0 0 0 5.014-31.107c.108 2.118.225 4.236.331 6.355.298 5.928.653 11.88 1.186 17.791.303 3.348 1.014 6.62 1.541 9.935.035.218.374.159.376-.05.027-2.993.241-5.98.102-8.973-.14-2.993-.427-5.985-.676-8.971a1119 1119 0 0 0-1.645-17.792 195 195 0 0 0-.51-4.583c.62-5.777 1.184-11.558 1.76-17.32 1.83-18.271 3.292-36.487 1.61-54.83-1.671-18.238-4.868-36.365-7.547-54.474q-4.066-27.474-8.272-54.926l-4.725-31.057c-1.58-10.302-3.075-20.635-5.03-30.874.023-.025.048-.045.072-.07A16 16 0 0 0 96.4 224.3a12.7 12.7 0 0 0 2.49-.032 7.5 7.5 0 0 0 3.491-1.073 8.6 8.6 0 0 0 2.334-2.542.15.15 0 0 0-.012-.163 40 40 0 0 0 6.95-1.108c4.207-1.07 8.42-2.331 12.506-3.804 4.024-1.45 7.837-3.437 12.031-4.386a44 44 0 0 1 6.893-.926c1.188-.076 2.38-.094 3.566-.179a9.7 9.7 0 0 0 2.336-.549 26.5 26.5 0 0 0 5.461-.35 38 38 0 0 0 6.827-2.143c4.797-1.776 9.748-1.339 14.723-.718 4.994.622 9.995 1.228 14.959 2.058 2.766.462 5.519.999 8.246 1.655 1.363.328 2.722.655 4.09.96a25 25 0 0 0 2.867.39c1.069.403 2.1.874 3.139 1.365a32.7 32.7 0 0 1 6.79 4.142c4.218 3.44 7.434 7.939 11.81 11.204 2.115 1.579 4.68 2.948 7.393 2.883a7.6 7.6 0 0 0 6.289-4.113c2.792-4.738 2.319-10.463.893-15.56a65 65 0 0 0-6.788-15.38 66.4 66.4 0 0 0-10.067-13.342 15.86 15.86 0 0 0-6.878-4.228 46.3 46.3 0 0 0-8.584-1.02 183 183 0 0 1-18.643-2.837 152 152 0 0 1-17.62-4.209c-.138-.043-.277-.079-.415-.119a6.2 6.2 0 0 1-.597-1.515 11.7 11.7 0 0 1-.198-3.56c.265-2.956.855-5.874 1.35-8.798.569-3.364 1.222-6.71 1.824-10.068l.144-.817a30.7 30.7 0 0 1 3.453-4.596c2.002-2.446 4.059-4.847 6.076-7.281a17.8 17.8 0 0 1 3.071-3.18c1.177-.855 2.483-1.54 3.737-2.273q3.823-2.24 7.596-4.565c5.017-3.108 9.941-6.376 14.656-9.928a139 139 0 0 0 6.918-5.547c2.205-1.893 4.288-3.91 6.432-5.87a44 44 0 0 1 5.764-4.51 14 14 0 0 0 2.358-.733c1.195-.55 2.363-1.17 3.517-1.8a73 73 0 0 0 6.713-4.162 74 74 0 0 0 11.936-10.357c3.792-4.085 7.176-8.567 11.355-12.282 4.013-3.567 8.645-6.324 13.205-9.12a83 83 0 0 0 12.898-9.151 46.1 46.1 0 0 0 9.33-11.947 39.3 39.3 0 0 0 4.888-14.586 22.3 22.3 0 0 0 2.467-4.305 23.4 23.4 0 0 0 1.954-6.165c.583-3.857.09-8.571-2.939-11.378m-77.058 53.294c-2.539 1.137-5.114 2.178-7.71 3.175a43.3 43.3 0 0 0-7.444 3.422c-2.303 1.433-4.288 3.307-6.44 4.946a37 37 0 0 1-7.085 4.24c-5.246 2.4-10.701 4.445-16.096 6.488a142 142 0 0 1-24.14 7.14c3.958-1.23 7.861-2.628 11.737-4.097q5.847-2.215 11.595-4.682a97 97 0 0 0 10.966-5.322c6.451-3.783 11.881-9.28 19.204-11.432 3.864-1.136 7.887-1.606 11.728-2.828a88 88 0 0 0 9.64-3.89 152 152 0 0 1-5.955 2.84M94.168 226.933c.094.88.2 1.759.299 2.638l-.018-.021q-.65-.715-1.35-1.382a28 28 0 0 0-.825-.755 3.85 3.85 0 0 0 1.894-.48m.896 7.686a13.2 13.2 0 0 0-2.104-2.59 46 46 0 0 0-2.677-2.576 38 38 0 0 0-3.921-3.07 48 48 0 0 0 4.769.93c.498.464 1.012.911 1.495 1.39q.639.634 1.234 1.309c.208.236.417.47.635.696q.053.055.113.113c.145 1.266.302 2.532.456 3.798m133.093-9.981c.036.25.08.533.136.828-3.25-2.591-5.892-5.968-8.923-8.776a35 35 0 0 0-2.042-1.734c.135-.475.2-.981.343-1.459a3.12 3.12 0 0 1 1.3-2.031 5.5 5.5 0 0 1 2.396-.719 10.7 10.7 0 0 1 2.597-.02 11.75 11.75 0 0 1 4.566 2.312 33 33 0 0 1 3.677 3.387 4.5 4.5 0 0 0-.627-.007 1.8 1.8 0 0 0-.691.321 5.5 5.5 0 0 0-1.205 1.153 7.8 7.8 0 0 0-1.372 3.11 9.8 9.8 0 0 0-.155 3.635M312.74 11.79a22.4 22.4 0 0 1-1.7 6.42c-.344.847-.74 1.688-1.127 2.534-.386-4.064-2.528-8.055-6.825-9.04-2.547-.585-4.788.441-6.787 1.96a228 228 0 0 0-3.705 2.892 211 211 0 0 0 8.031-8.39c1.141-1.262 2.251-2.553 3.38-3.826-.15 1.139.448 2.217.516 3.351a.6.6 0 0 0 .302.526c.264.113.054.819-.004 1.035a5.3 5.3 0 0 1-.315.865 15 15 0 0 1-.884 1.417c-.019.032.02.075.053.053a3.5 3.5 0 0 0 1.09-1.488 5.6 5.6 0 0 0 .305-.855c.074-.274.071-.893.369-1.027a.6.6 0 0 0 .301-.526 5.4 5.4 0 0 0-.23-1.485 4.7 4.7 0 0 1-.393-1.67 3 3 0 0 1 .49-1.264c.183-.309.334-.636.502-.952a2.76 2.76 0 0 1 2.881-.165c3.341 1.683 4.039 6.3 3.75 9.635"/><path fill="currentColor" d="M217.194 208.04a.3.3 0 0 1-.113.015.7.7 0 0 0-.191-.035 2 2 0 0 0-.345.043 1.6 1.6 0 0 0-.674.345 2 2 0 0 0-.452.516 2.5 2.5 0 0 0-.141.326 1.2 1.2 0 0 0-.113.292l.01.07q-.007-.08-.032.012a1 1 0 0 0-.076.143c-.05.086-.096.175-.152.257-.121.178-.236.366-.365.537a3.3 3.3 0 0 0-.415.487.8.8 0 0 0-.106.341c.005.102.045.205.055.308a.097.097 0 0 0 .163.067c.069-.074.157-.121.228-.19a.8.8 0 0 0 .137-.247 2.6 2.6 0 0 0 .114-.543 2 2 0 0 1 .288-.545 1.16 1.16 0 0 1 .447-.44 4.7 4.7 0 0 0 1.103-.621 2.1 2.1 0 0 0 .449-.469q.076-.11.144-.223c.062-.104.055-.178.145-.263a.11.11 0 0 0-.108-.184m-10.767-7.673a55 55 0 0 1-1.413 3.406q-.376.816-.772 1.622-.198.403-.402.803c-.058.115-.113.231-.175.343q-.061.113-.132.22a.1.1 0 0 0-.033.078.1.1 0 0 0-.063-.017c-.362.08-.033.728.367.429.265-.198.355-.65.487-.938q.266-.586.522-1.178 1.002-2.32 1.881-4.694c.062-.168-.204-.239-.267-.074m-5.247.052q-.356.394-.726.774c-.252.259-.531.5-.767.772a11 11 0 0 0-.7.854 2.2 2.2 0 0 0-.28.494 1.4 1.4 0 0 0-.133.563.296.296 0 0 0 .438.251.8.8 0 0 0 .213-.158q.047-.041.091-.087c.005-.006.088-.127.04-.07.049-.058.11-.095.157-.159l.093-.133a4 4 0 0 0 .137-.221c.176-.31.328-.636.49-.954.156-.309.283-.63.447-.937a10 10 0 0 1 .568-.937c.027-.04-.035-.089-.068-.052m85.43-173.876a.061.061 0 0 0 0 .123.061.061 0 0 0 0-.123m19.544-4.104-.328 2.712a20.5 20.5 0 0 0-.217 2.713.053.053 0 0 0 .103.014 20 20 0 0 0 .344-2.673l.242-2.766c.008-.093-.133-.09-.144 0m-2.091 1.44c-.125.891-.263 1.783-.362 2.677-.102.922-.124 1.84-.146 2.767 0 .032.051.04.057.008.157-.89.307-1.77.394-2.668.089-.92.125-1.845.18-2.767.003-.069-.113-.087-.123-.017m-.53 6.882c.017-.126-.204-.157-.225-.03a9 9 0 0 1-.301 1.117 4 4 0 0 0-.125.566.6.6 0 0 0 .05.362.3.3 0 0 0 .057.098q.073.054.011.012l.036.046a.1.1 0 0 0 .122.016l.048-.035q-.067.025.017-.009a.3.3 0 0 0 .083-.08.57.57 0 0 0 .147-.333 4 4 0 0 0 .045-.577 9 9 0 0 1 .035-1.152m-1.656-3.979c-.368 1.83-.48 3.714-.695 5.567-.113.976-.214 1.958-.363 2.93-.075.492-.176.98-.256 1.472a1.4 1.4 0 0 0 .023.96.096.096 0 0 0 .15.02 1.4 1.4 0 0 0 .29-.917c.06-.495.096-.992.154-1.487.106-.923.245-1.843.36-2.765a42 42 0 0 0 .506-5.757c-.001-.094-.15-.12-.169-.023m-2.383 4.186c-.28 1.797-.567 3.592-.825 5.391l-.38 2.651a6.7 6.7 0 0 0-.196 2.417.063.063 0 0 0 .113.015 6.4 6.4 0 0 0 .43-2.28l.339-2.762c.22-1.804.413-3.612.613-5.419.006-.053-.086-.066-.094-.013m-2.989 4.985a59 59 0 0 0-.999 4.213 21.6 21.6 0 0 0-.56 4.16.067.067 0 0 0 .132.018c.353-1.369.472-2.792.717-4.183.246-1.399.502-2.794.811-4.18a.053.053 0 0 0-.101-.028M293.4 41.17q-.397 1.531-.789 3.065a14.2 14.2 0 0 0-.597 3.011c-.002.059.09.09.116.032a14.2 14.2 0 0 0 .76-2.966q.31-1.557.612-3.115c.013-.065-.084-.094-.101-.027m-3.083 4.806a10 10 0 0 1-.402 1.505 11 11 0 0 1-.278.735 3.4 3.4 0 0 0-.292.71.043.043 0 0 0 .072.043 1.9 1.9 0 0 0 .35-.64 8 8 0 0 0 .288-.782 8.3 8.3 0 0 0 .3-1.566c.001-.02-.035-.026-.038-.005m-2.268 4.173-.199.628c-.011.035.044.05.056.015l.217-.623c.016-.046-.059-.067-.074-.02m-12.352 4.361c-.227.702-.498 1.39-.738 2.088-.24.695-.43 1.405-.646 2.107a.062.062 0 0 0 .113.048 13 13 0 0 0 .865-2.022 19 19 0 0 0 .499-2.196.048.048 0 0 0-.093-.026m-4.096 6.478-.208.208a.005.005 0 0 0 .007.007l.208-.209a.005.005 0 0 0-.007-.006m1.572-6.067c-.433 1.06-.742 2.164-1.099 3.252a347 347 0 0 0-1.046 3.26c-.019.06.079.104.105.043a33 33 0 0 0 1.211-3.164 21 21 0 0 0 .875-3.379.024.024 0 0 0-.046-.013m-2.04.427c-1.045 2.987-2.1 5.969-3.033 8.993-.012.042.05.058.065.018 1.083-2.973 2.042-5.987 3.014-8.998.01-.03-.036-.042-.046-.013m-3.16 1.864c-.735 2.084-1.475 4.166-2.19 6.256-.714 2.087-1.482 4.163-2.059 6.293-.015.055.063.073.083.023.829-2.047 1.474-4.168 2.167-6.263.694-2.095 1.363-4.197 2.036-6.299.007-.023-.029-.033-.037-.01m-3.419 3.376a241 241 0 0 0-1.984 5.908l-.948 2.906a22 22 0 0 0-.888 3.044c-.01.059.074.107.105.044a22 22 0 0 0 1.014-2.903l.913-2.915c.632-2.019 1.263-4.035 1.843-6.07.01-.035-.043-.049-.055-.014M260.356 66l-1.734 4.458q-.418 1.074-.828 2.15a14.4 14.4 0 0 0-.822 2.333.053.053 0 0 0 .097.04 13.5 13.5 0 0 0 .879-2.148q.42-1.119.835-2.239l1.684-4.564c.026-.07-.084-.099-.11-.03m-4.584 6.872q-.53 1.574-1.184 3.102c-.425.986-.915 1.941-1.354 2.92-.015.034.03.062.05.03a22.4 22.4 0 0 0 1.396-2.912q.639-1.537 1.147-3.124c.011-.036-.044-.05-.055-.016m-3.619 4.558-.517 1.254c-.172.418-.323.84-.475 1.266-.011.03.04.052.052.022.177-.41.354-.82.511-1.238l.484-1.29c.013-.034-.041-.048-.055-.014m-25.061 16.02c-.146.28-.333.533-.466.82-.123.263-.227.538-.34.805-.24.57-.46 1.143-.674 1.724a39 39 0 0 0-1.137 3.577c-.027.1.126.174.174.073a38 38 0 0 0 1.423-3.382c.213-.578.422-1.154.607-1.742.096-.303.204-.605.287-.911.085-.31.108-.629.179-.941.007-.03-.037-.052-.053-.022m-2.822.237a122 122 0 0 0-5.299 11.657c-.039.107.13.176.184.077a121 121 0 0 0 5.264-11.648c.042-.099-.1-.188-.149-.086m-4.125 1.692c-1.2 2.508-2.391 5.02-3.531 7.557-1.105 2.457-2.282 4.905-3.152 7.458a.077.077 0 0 0 .14.059c1.34-2.434 2.391-5.033 3.489-7.582a388 388 0 0 0 3.107-7.47c.012-.03-.039-.05-.053-.022m-5.072 4.343c-1.058 2.315-2.133 4.622-3.172 6.945a52 52 0 0 0-2.862 6.83.062.062 0 0 0 .113.048 52.5 52.5 0 0 0 3.158-6.953c.961-2.273 1.9-4.556 2.85-6.833.02-.05-.065-.086-.087-.037m-3.485.868q-1.802 4.271-3.85 8.435-.964 1.95-1.994 3.868a32 32 0 0 0-1.97 3.914c-.025.07.082.134.129.074a22.4 22.4 0 0 0 2.185-3.787q1.045-2.077 2.024-4.187 1.9-4.092 3.522-8.304c.011-.03-.035-.04-.046-.013m-4.303 3.159a412 412 0 0 0-3.812 7.473c-1.206 2.407-2.552 4.798-3.548 7.301-.018.047.055.074.079.033 1.414-2.341 2.52-4.9 3.726-7.354 1.215-2.47 2.424-4.94 3.588-7.434.01-.022-.021-.041-.033-.02m-6.763 7.247a67.4 67.4 0 0 0-5.05 11.036c-.014.046.059.078.08.033 1.697-3.674 3.188-7.423 5.036-11.03.022-.044-.043-.083-.066-.039m-4.591 3.34q-.927 2.652-1.975 5.259c-.698 1.733-1.503 3.429-2.155 5.18-.013.035.044.058.061.025a46 46 0 0 0 2.197-5.073q1.038-2.661 1.946-5.37c.015-.048-.058-.067-.074-.021m-4.254 5.388c-.657 1.57-1.42 3.1-2.167 4.629a.053.053 0 0 0 .091.053 25.2 25.2 0 0 0 2.196-4.649c.028-.076-.09-.105-.12-.033"/><path fill="none" d="M187.41 125.183a.005.005 0 0 0 0-.01"/><path fill="currentColor" d="M160.35 93.654c-.81 2.09-1.632 4.18-2.314 6.317-.017.055.072.095.096.04.898-2.065 1.66-4.184 2.43-6.299.05-.134-.161-.188-.212-.058m-2.747-.569c-1.711 4.592-3.755 9.032-5.622 13.559-.027.067.079.106.114.048a56 56 0 0 0 5.6-13.582c.017-.06-.07-.082-.092-.025m-3.074 1.262a272 272 0 0 1-4.164 8.57 53 53 0 0 0-3.876 8.497c-.032.11.122.21.2.116a33 33 0 0 0 4.542-8.275 118 118 0 0 0 3.368-8.879c.013-.04-.052-.069-.07-.03m-5.072 4.559c-1.43 2.144-2.72 4.366-3.934 6.64-.586 1.099-1.121 2.222-1.7 3.323-.29.55-.575 1.103-.887 1.64a17 17 0 0 1-1.343 1.522c-.553.454.487 1.383.828.643.302-.653.252-1.322.581-1.972.3-.593.653-1.161.99-1.733.633-1.07 1.305-2.115 1.93-3.189 1.299-2.231 2.51-4.5 3.584-6.845a.029.029 0 0 0-.05-.029m-4.838 3.315c-.266.499-.636.943-.937 1.422-.294.467-.544.96-.809 1.444-.536.983-1.084 1.969-1.562 2.982a.086.086 0 0 0 .135.104 12.3 12.3 0 0 0 2.045-2.725 10 10 0 0 0 .734-1.52c.2-.55.283-1.125.455-1.681a.034.034 0 0 0-.06-.026m-4.842 8.095-.46.755c-.064.103-.145.184-.215.283a3 3 0 0 1-.262.35 6 6 0 0 0-.596.65 1.8 1.8 0 0 0-.411.913.46.46 0 0 0 .687.394 2.7 2.7 0 0 0 .756-1.703 3 3 0 0 1 .14-.408c.046-.118.069-.237.12-.35l.373-.806a.077.077 0 0 0-.132-.078m-.814-2.702c-.728 1.006-1.518 1.964-2.27 2.952-.376.492-.768.974-1.128 1.477a3.26 3.26 0 0 0-.711 1.517c-.01.091.1.126.165.095a3.24 3.24 0 0 0 1.226-1.214c.35-.505.665-1.037.987-1.56.647-1.048 1.225-2.137 1.847-3.2.044-.076-.066-.136-.116-.067m-4.6 2.253c-.202.242-.396.496-.617.72-.213.217-.428.432-.634.654a15 15 0 0 0-1.26 1.46c-.15.21-.409.58-.232.84.175.261.556-.003.705-.164a9 9 0 0 0 1.057-1.575q.269-.454.524-.916c.177-.319.383-.617.585-.92.05-.076-.068-.17-.128-.099m-5.543 3.196-.225.203a1 1 0 0 0-.11.102l-.047.058c-.015.018-.04.04-.044.064a.03.03 0 0 0 .035.036c.023-.004.043-.028.06-.042l.059-.048a1 1 0 0 0 .104-.113l.202-.226a.024.024 0 0 0-.034-.034m39.324 33.735c-.878 1.409-1.755 2.824-2.566 4.272q-.61 1.086-1.198 2.184a11.4 11.4 0 0 0-.977 2.137c-.021.073.074.1.114.048a14.3 14.3 0 0 0 1.236-2.16q.55-1.072 1.116-2.135c.767-1.444 1.517-2.895 2.308-4.326a.02.02 0 0 0-.033-.02m-1.464-1.461-1.821 2.956a21 21 0 0 0-1.641 2.94c-.016.038.046.074.072.041a21 21 0 0 0 1.752-2.873l1.68-3.04a.024.024 0 0 0-.042-.024m-1.402-1.426-.992 1.567-.496.784a2.5 2.5 0 0 0-.407.778.048.048 0 0 0 .08.046 2.5 2.5 0 0 0 .498-.724l.461-.804.922-1.608a.038.038 0 0 0-.066-.039m.178-4.813a22 22 0 0 0-1.393 2.127c-.022.04.036.092.068.052a23 23 0 0 0 1.4-2.136c.03-.047-.043-.088-.075-.043m-67.012 77.986c-2.269-1.238-4.82-1.951-7.183-2.993a71 71 0 0 1-6.987-3.505.053.053 0 0 0-.054.09 63 63 0 0 0 7.005 3.992 24.7 24.7 0 0 0 7.171 2.595c.097.012.126-.136.048-.179m3.429-3.263a16 16 0 0 0-2.213-.639 22.8 22.8 0 0 1-4.359-1.888 290 290 0 0 1-8.148-4.182.057.057 0 0 0-.058.099 100 100 0 0 0 8.223 4.343 32 32 0 0 1 4.165 2.048 13 13 0 0 0 1.986 1.176 1.6 1.6 0 0 0 1.439.17.2.2 0 0 0 .092-.227c-.17-.527-.644-.702-1.127-.9m7.159-.261a2.15 2.15 0 0 0-1.326-.73c-.689-.202-1.382-.387-2.069-.596a27.5 27.5 0 0 1-3.991-1.608c-1.221-.593-2.34-1.342-3.5-2.04-1.247-.748-2.578-1.3-3.852-1.987a.043.043 0 0 0-.044.075 27 27 0 0 0 3.635 2.358c1.262.616 2.582 1.107 3.856 1.698 1.264.586 2.53 1.172 3.766 1.813.633.33 1.27.655 1.915.96a2.1 2.1 0 0 0 1.504.317.18.18 0 0 0 .106-.26m-.792-3.385a29 29 0 0 0-3.318-1.68c-1.163-.479-2.366-.862-3.543-1.306-.04-.015-.068.05-.03.07 1.125.567 2.224 1.195 3.366 1.727a29 29 0 0 0 3.477 1.303.062.062 0 0 0 .048-.114m5.31 1.574a2.1 2.1 0 0 0-.789-.194c-.245-.03-.49-.06-.734-.1-.252-.04-.5-.076-.749-.137l-.736-.183a.1.1 0 0 0-.054.194l.724.23c.245.078.475.177.711.274.23.094.455.2.68.303a2.1 2.1 0 0 0 .776.244.341.341 0 0 0 .17-.631m3.435-.508a7 7 0 0 0-1.683-.895c-.618-.245-1.233-.503-1.858-.73-1.247-.453-2.501-.886-3.752-1.329-.03-.01-.051.039-.022.053 1.2.563 2.396 1.136 3.6 1.69.604.277 1.222.525 1.834.785a7 7 0 0 0 1.83.549.067.067 0 0 0 .051-.123m3.376-.886a3.1 3.1 0 0 0-.93-.496 15 15 0 0 0-1.097-.384q-1.107-.347-2.209-.708c-.066-.022-.113.086-.048.113q1.064.453 2.12.919c.347.152.69.3 1.047.425a3.2 3.2 0 0 0 1.066.254.073.073 0 0 0 .05-.123m3.085-.791a12 12 0 0 0-.615-.324l-.628-.303a.103.103 0 0 0-.137.036.1.1 0 0 0 .036.138l.656.279q.324.136.655.253c.046.016.075-.055.033-.079m32.08-4.408c-1.458-.028-2.916.016-4.374.012-1.457-.003-2.915-.045-4.372-.074-.047-.001-.06.077-.011.084a29.2 29.2 0 0 0 8.769.062c.05-.007.035-.083-.012-.084m2.948-2.285a13.7 13.7 0 0 0-2.488.042q-1.33.03-2.659.02a145 145 0 0 1-5.311-.15c-.044-.002-.042.063 0 .067a63 63 0 0 0 5.311.349q1.33.032 2.659.023a10.7 10.7 0 0 0 2.488-.101c.116-.03.129-.227 0-.25m1.036-2.273a11.6 11.6 0 0 0-1.938-.133l-2.071-.054c-1.38-.035-2.762-.025-4.143-.031a.057.057 0 0 0 0 .115c1.354.078 2.708.174 4.063.223l1.992.073a12.5 12.5 0 0 0 2.072-.005c.096-.013.142-.165.025-.188m-1.168-3.287a1.5 1.5 0 0 0-.518-.063 9 9 0 0 0-1.07.13c-.754.125-1.506.243-2.266.33-.06.006-.063.096 0 .095a44 44 0 0 1 2.25.026 10 10 0 0 0 1.086-.009 1.5 1.5 0 0 0 .518-.124c.09-.039.212-.079.208-.203-.004-.117-.117-.154-.208-.183m.12-3.625a1.6 1.6 0 0 0-.494-.113 3 3 0 0 0-.494.003 3.3 3.3 0 0 0-.957.283c-.095.04-.027.196.07.166a3.5 3.5 0 0 1 .464-.113c.152-.025.304-.028.457-.045a4 4 0 0 1 .46-.025c.16 0 .315-.009.475-.015a.072.072 0 0 0 .019-.14m1.444-3.707a1 1 0 0 0-.215.097l-.21.103a3 3 0 0 0-.396.26.034.034 0 0 0 .034.057 3 3 0 0 0 .431-.2l.198-.122a1 1 0 0 0 .195-.131.039.039 0 0 0-.037-.064m61.317-7.128a10.54 10.54 0 0 0-4.616-1.124 20.4 20.4 0 0 0-4.825.246c-.033.005-.025.057.007.057a31 31 0 0 1 4.73.3c1.553.197 3.076.708 4.637.77a.135.135 0 0 0 .067-.249m1.853 2.717a19.7 19.7 0 0 0-4.601-1.604 25.5 25.5 0 0 0-4.817-.745c-.021-.002-.027.033-.005.037 1.586.289 3.183.585 4.744.99 1.568.407 3.086.972 4.646 1.4a.043.043 0 0 0 .033-.078m2.089 3.329c-2.527-1.91-5.89-2.653-8.999-2.878-.106-.008-.1.15 0 .162a23.6 23.6 0 0 1 4.653 1.104c1.465.498 2.867 1.144 4.298 1.726.071.029.099-.075.048-.114m2.325 3.071a18 18 0 0 0-3.901-1.925 25 25 0 0 0-4.316-1.166c-.024-.004-.035.032-.01.037a30 30 0 0 1 4.13 1.292c1.386.539 2.689 1.237 4.024 1.886a.072.072 0 0 0 .073-.124m.376 2.588a11.3 11.3 0 0 0-3.562-2.086c-.058-.022-.082.07-.025.093a13.5 13.5 0 0 1 1.863.917c.582.345 1.126.746 1.677 1.136.036.025.079-.03.047-.06m2.101 3.101c-.468-.376-.972-.71-1.46-1.06-.07-.05-.139.067-.067.116.492.334.976.689 1.487.997.031.019.07-.029.04-.053M88.312 232.384q-3.827-3.79-7.93-7.272c-.024-.02-.058.013-.035.034q3.937 3.555 7.687 7.316c2.499 2.503 4.794 5.215 7.328 7.677.045.044.131-.015.09-.07a75.5 75.5 0 0 0-7.14-7.685m-3.919 1.846q-1.946-1.913-4.034-3.67c-.065-.056-.16.037-.094.094q2.033 1.761 3.932 3.67c1.264 1.273 2.46 2.61 3.715 3.891.03.03.087-.011.06-.046a37 37 0 0 0-3.58-3.94m9.351 9.015a14 14 0 0 0-1.26-1.119c-.876-.693-1.737-1.4-2.601-2.108-.108-.088-.262.058-.156.155a26 26 0 0 1 2.327 2.376c.354.415.727.825 1.11 1.212a3.4 3.4 0 0 0 1.285.953.15.15 0 0 0 .183-.182 3.03 3.03 0 0 0-.888-1.287m-2.428 5.865q-1.599-1.948-3.29-3.818a102 102 0 0 0-7.033-7.03c-.032-.028-.08.019-.048.048q3.598 3.34 6.88 6.995 1.598 1.775 3.114 3.621c1.064 1.296 2.035 2.677 3.141 3.935.032.037.094-.011.068-.052a38 38 0 0 0-2.832-3.7m-9.095-4.358c-.031-.03-.077.016-.048.048 2.695 2.94 5.23 6.015 7.833 9.033.021.025.064-.008.045-.034a72 72 0 0 0-7.83-9.046m12.24 13.772a4 4 0 0 0-.348-.484c-.25-.327-.537-.62-.81-.93a70 70 0 0 1-1.582-1.845c-.15-.18-.403.077-.257.257.508.627 1 1.262 1.485 1.906.233.309.447.634.702.925a5 5 0 0 0 .403.442c.128.113.259.263.443.253a.1.1 0 0 0 .097-.074.6.6 0 0 0-.134-.45m1.538 7.282c-.416-.461-.928-.83-1.385-1.252a24 24 0 0 1-1.376-1.406c-1.01-1.1-2.001-2.218-2.992-3.336-1.984-2.238-3.945-4.484-6.14-6.518-.027-.024-.077.009-.053.04 1.831 2.432 3.902 4.647 5.96 6.886a256 256 0 0 1 3.095 3.41c.775.873 1.568 2.085 2.742 2.432a.154.154 0 0 0 .15-.256m1.723 7.068a3.6 3.6 0 0 0-1.004-1.054c-.515-.404-1.032-.8-1.51-1.249a26 26 0 0 1-2.375-2.645c-1.493-1.839-3.095-3.575-4.627-5.38-.098-.114-.3.04-.21.163a40 40 0 0 0 4.507 5.412c.85.824 1.721 1.624 2.53 2.49.394.422.763.868 1.129 1.314a4.04 4.04 0 0 0 1.305 1.204.188.188 0 0 0 .255-.255m-1.126 4.443c-.79-.805-1.614-1.578-2.418-2.368-1.587-1.559-3.152-3.143-4.722-4.718-.079-.08-.195.04-.122.121 1.483 1.663 2.975 3.322 4.44 5 .723.828 1.429 1.673 2.163 2.49a6.2 6.2 0 0 0 2.331 2.005.116.116 0 0 0 .141-.141 6.1 6.1 0 0 0-1.813-2.39m-1.515 3.015c-1.083-1.1-2.222-2.15-3.34-3.215a.077.077 0 0 0-.108.108c1.004 1.148 1.99 2.318 3.03 3.433a28.6 28.6 0 0 0 3.293 3.168c.062.048.175-.014.12-.092a28 28 0 0 0-2.996-3.402m.105 4.39c-.095-.117-.296.037-.21.162a20 20 0 0 0 2.392 3.081.062.062 0 0 0 .098-.075 20 20 0 0 0-2.28-3.168M69.418 487.55q-2.394 2.927-4.718 5.904c-.03.038.021.092.054.054q2.44-2.88 4.799-5.823c.076-.094-.057-.23-.135-.135m2.49-8.548c-4.69 5.253-9.344 10.556-13.739 16.06-.045.057.03.137.082.082 4.756-5.195 9.271-10.618 13.732-16.067.042-.052-.029-.126-.075-.075m4.53-11.512q-6.37 7.065-12.784 14.089c-4.277 4.697-8.576 9.377-12.48 14.392-.092.118.056.28.169.169 4.495-4.482 8.607-9.319 12.74-14.133q6.205-7.229 12.436-14.435c.048-.056-.032-.137-.081-.082m4.092-10.078c-8.007 7.722-15.762 15.693-23.517 23.666q-3.32 3.414-6.407 7.046a.153.153 0 0 0 .217.216c4.233-3.654 8.136-7.661 12.02-11.681 3.846-3.982 7.712-7.952 11.44-12.046a396 396 0 0 0 6.308-7.14.043.043 0 0 0-.06-.06m.837-5.21c-1.122 1.008-2.395 1.835-3.536 2.822a40 40 0 0 0-3.235 3.122c-2.07 2.243-4.21 4.404-6.363 6.566q-3.174 3.184-6.33 6.387c-1.053 1.066-2.099 2.14-3.154 3.204q-.792.798-1.582 1.597c-.396.402-.869.754-.884 1.35a.116.116 0 0 0 .115.114c.594-.036.924-.51 1.314-.92q.722-.76 1.447-1.519c1.035-1.084 2.084-2.154 3.132-3.226q3.195-3.27 6.44-6.488c2.132-2.118 4.276-4.2 6.525-6.193a44 44 0 0 0 3.213-3.145c1.05-1.144 1.95-2.422 3.033-3.536a.096.096 0 0 0-.135-.135m-5.008-.408c-.594.67-1.348 1.192-1.959 1.857a89 89 0 0 0-1.911 2.135q-1.918 2.227-4.018 4.284a84 84 0 0 1-4.445 4.046q-1.205 1.024-2.397 2.062c-.625.544-1.618 1.127-1.812 1.977a.262.262 0 0 0 .318.318c.854-.15 1.502-1.127 2.073-1.717q1.096-1.133 2.179-2.279a86 86 0 0 1 4.38-4.323c1.445-1.326 2.977-2.543 4.461-3.821a15.6 15.6 0 0 0 1.903-1.952 13 13 0 0 0 1.378-2.47c.048-.093-.074-.202-.15-.117m-3.072-2.05c-1.46 1.396-2.954 2.752-4.409 4.15a27.2 27.2 0 0 0-4.008 4.348.096.096 0 0 0 .13.13 27.2 27.2 0 0 0 4.31-4.045c1.386-1.468 2.73-2.976 4.112-4.447a.096.096 0 0 0-.135-.136m-1.396-3.685c-1.189 1.031-2.393 2.046-3.503 3.165-.037.037.014.109.058.075 1.255-.964 2.421-2.033 3.6-3.085.107-.095-.049-.248-.155-.156m36.163 47.474c-.973 1.323-1.957 2.637-2.905 3.977a34 34 0 0 0-2.723 4.084c-.028.056.044.118.09.07a34 34 0 0 0 2.918-3.896c.96-1.358 1.884-2.742 2.818-4.119.084-.124-.112-.233-.198-.116m2.559-7.528a537 537 0 0 0-5.261 6.192 355 355 0 0 0-2.514 3.04 19.3 19.3 0 0 0-2.366 3.23.12.12 0 0 0 .188.144 19.6 19.6 0 0 0 2.683-3.044c.804-1.02 1.608-2.039 2.402-3.067 1.653-2.142 3.3-4.288 4.92-6.455.023-.03-.027-.069-.052-.04m1.453-7.68c-1.971 2.432-3.865 4.928-5.806 7.384a85 85 0 0 0-5.628 7.251c-.05.08.061.159.128.099a53.7 53.7 0 0 0 6.063-7.182c1.872-2.42 3.713-4.88 5.386-7.441.056-.085-.077-.192-.143-.11m.375-5.496c-1.506 1.865-3.078 3.68-4.634 5.502a51 51 0 0 0-4.463 5.468c-.073.114.081.204.172.133a30.2 30.2 0 0 0 4.868-5.319c1.46-1.852 2.797-3.784 4.11-5.743.02-.03-.03-.07-.053-.04m-.176-6.184a94 94 0 0 0-5.973 7.997c-.038.058.05.128.097.075a94 94 0 0 0 6.011-7.967c.056-.08-.074-.182-.135-.105m-.954-2.848-1.582 1.857c-.529.621-1.022 1.271-1.525 1.914-.036.047.026.115.068.068.541-.606 1.09-1.205 1.605-1.834l1.549-1.89c.065-.08-.047-.196-.115-.115m.572-6.686c-.907 1.366-1.895 2.674-2.818 4.029-.021.03.028.07.053.04a32.5 32.5 0 0 0 2.814-4.04c.02-.032-.03-.06-.05-.03m.634-3.801a8.4 8.4 0 0 0-1.276 1.153 7 7 0 0 0-.97 1.434c-.023.046.04.103.076.058q.535-.656 1.09-1.295c.374-.43.742-.864 1.144-1.267.04-.04-.015-.12-.064-.083m1.195-6.311a.18.18 0 0 0-.242.063c-.345.452-.707.895-1.035 1.359-.326.462-.638.936-.943 1.413a.058.058 0 0 0 .09.07c.388-.424.773-.854 1.138-1.297.364-.444.704-.912 1.055-1.367a.18.18 0 0 0-.063-.242m3.416-7.389a46 46 0 0 0-3.618 3.467 23.6 23.6 0 0 0-3.029 3.867.072.072 0 0 0 .113.087c1.193-1.131 2.26-2.388 3.349-3.619 1.092-1.236 2.185-2.474 3.293-3.695a.077.077 0 0 0-.108-.108m-.523-4.479c-1.28 1.328-2.602 2.613-3.883 3.94-.622.644-1.254 1.28-1.864 1.935-.323.345-.659.686-.964 1.047a5 5 0 0 0-.774 1.05.101.101 0 0 0 .137.138 9 9 0 0 0 1.93-1.795c.638-.665 1.252-1.356 1.876-2.035 1.248-1.36 2.454-2.758 3.704-4.117.1-.108-.059-.27-.162-.162m.353-6.323a125 125 0 0 0-8.554 9.161.057.057 0 0 0 .081.082 124 124 0 0 0 8.568-9.148c.056-.064-.033-.156-.095-.095m.782-5.888a49 49 0 0 0-4.581 4.408 36 36 0 0 0-3.885 4.85.053.053 0 0 0 .083.063c1.416-1.533 2.735-3.153 4.13-4.705 1.398-1.554 2.853-3.06 4.3-4.569.03-.031-.015-.074-.047-.047m-1.88-2.71c-1.21 1.078-2.405 2.174-3.54 3.33-.558.569-1.132 1.129-1.666 1.72a8 8 0 0 0-1.466 1.856.092.092 0 0 0 .124.124 7.7 7.7 0 0 0 1.741-1.484c.587-.573 1.14-1.183 1.702-1.781 1.112-1.183 2.162-2.423 3.193-3.676a.062.062 0 0 0-.088-.088m-.638-3.345a29 29 0 0 0-5.01 5.441c-.049.077.052.19.13.13a29.2 29.2 0 0 0 4.975-5.476c.052-.067-.03-.156-.095-.095m.228-4.988c-.716.802-1.432 1.601-2.125 2.424a14 14 0 0 0-1.835 2.61.1.1 0 0 0 .158.122 14 14 0 0 0 2.11-2.398c.637-.866 1.245-1.748 1.857-2.631.068-.098-.086-.216-.165-.127m-.823-3.321a29 29 0 0 0-2.882 3.385c-.034.051.04.102.083.063a29 29 0 0 0 2.894-3.353c.053-.066-.035-.16-.095-.095m-.831-4.19a6 6 0 0 0-.533.374 3.2 3.2 0 0 0-.482.44 6 6 0 0 0-.387.524 2 2 0 0 0-.144.284 1.3 1.3 0 0 0-.116.316.053.053 0 0 0 .088.05 2 2 0 0 0 .178-.241c.064-.086.133-.167.192-.257a5 5 0 0 1 .382-.507c.134-.158.255-.326.396-.48a5 5 0 0 1 .466-.45c.03-.025-.008-.073-.04-.053m.611-5.782-.204.627c-.011.035.044.05.056.015l.203-.627c.011-.035-.044-.05-.055-.015M33.918 269.804c-.007-.054-.092-.055-.086 0a47 47 0 0 0 2.22 10.444.034.034 0 0 0 .065-.018 67 67 0 0 1-2.2-10.426m-3.021.592c-.015-.09-.171-.07-.16.022a97 97 0 0 0 4.221 19.639.077.077 0 0 0 .148-.041c-1.532-6.509-3.136-13.016-4.21-19.62m.513 17.189q-.295-1.462-.613-2.917l-1.248-5.714c-.02-.091-.156-.052-.138.038l1.087 5.644q.272 1.41.563 2.816a18 18 0 0 0 .694 2.78c.014.038.076.037.075-.01a16.4 16.4 0 0 0-.42-2.637m1.968 8.388c-.118-.365-.23-.733-.359-1.093q-.388-1.085-.758-2.176a.077.077 0 0 0-.147.04q.283 1.116.547 2.234c.088.373.194.742.294 1.111.072.266.152.749.42.89a.097.097 0 0 0 .13-.034c.15-.268-.041-.705-.127-.972m-2.978.119q-.94-3.646-1.619-7.351c-.012-.067-.112-.038-.101.027a69.8 69.8 0 0 0 3.617 14.614.038.038 0 0 0 .074-.02c-.603-2.436-1.345-4.838-1.971-7.27m-.736 6.4c-.462-2.01-.923-4.017-1.306-6.044-.024-.129-.21-.07-.194.054.288 2.086.613 4.174 1.066 6.23a32 32 0 0 0 1.672 5.862c.04.092.16.02.148-.062-.312-2.04-.924-4.032-1.386-6.04m-1.723 1.25c-.02-.085-.144-.048-.13.036a64.5 64.5 0 0 0 1.925 9.41c.02.058.118.052.113-.016a65 65 0 0 0-1.908-9.43m.301 10.862a23 23 0 0 0-.197-1.444q-.264-1.478-.641-2.932c-.02-.078-.136-.045-.12.033q.299 1.487.486 2.993c.06.488.133.974.187 1.463a8.3 8.3 0 0 0 .22 1.371.058.058 0 0 0 .113-.015 6.3 6.3 0 0 0-.049-1.469m-.892 2.931v.417a.01.01 0 0 0 .02 0v-.417a.01.01 0 0 0-.02 0m24.06-154.24c-.016-.066-.116-.038-.101.028.297 1.332.593 2.661.944 3.981a.034.034 0 0 0 .065-.018c-.267-1.34-.587-2.663-.908-3.991m2.498-1.65c-.004-.043-.07-.044-.067 0a36 36 0 0 0 1.142 6.905.029.029 0 0 0 .056-.015c-.427-2.291-.884-4.57-1.13-6.89m2.516 1.855c-.018-.078-.138-.045-.12.033.251 1.117.503 2.233.78 3.345.01.036.063.02.056-.016a154 154 0 0 0-.716-3.362m-13.183 17.938c-.038-.11-.21-.065-.176.048a68.4 68.4 0 0 0 4.845 12.51c.04.076.17.024.14-.058-1.535-4.194-3.352-8.277-4.81-12.5m9.596 16.579q-1.385-2.575-2.588-5.243a89 89 0 0 1-4.197-11.158.077.077 0 0 0-.148.04 80.6 80.6 0 0 0 3.817 11.106q1.164 2.685 2.515 5.285a24 24 0 0 0 3.092 4.987c.043.048.137-.003.112-.065a50 50 0 0 0-2.603-4.952m-.444-6.582c-.017-.04-.086-.01-.07.03a66.7 66.7 0 0 0 7.047 13.167c.031.045.102.006.074-.043a147 147 0 0 1-7.05-13.154m7.39 9.118c-.05-.093-.184-.011-.14.082a18.7 18.7 0 0 0 3.07 4.846.062.062 0 0 0 .097-.075c-.999-1.625-2.111-3.176-3.027-4.853"/></svg>