<svg xmlns="http://www.w3.org/2000/svg" id="bc783a58-c08b-44f8-96fb-e421c2614ca3" version="1.1" viewBox="0 0 341.8 621.8"><defs><style>.st0{fill:currentColor}</style></defs><path fill="currentColor" d="M-393.2 125.6c-.3 0-.5.2-.5.5s.2.5.5.5.5-.2.5-.5-.2-.5-.5-.5m680.4 10.7c-1.7-2.6-3.5-5.1-5.5-7.4-2-2.7-4.1-5.3-6.1-8-1.9-2.4-3.7-5-6.3-6.6-1.2-.7-2.6-1.2-4.1-1.3-.6 0-1.1-.1-1.7-.2-.8-.6-1.6-1.2-2.5-1.7-2.9-1.9-6.3-3-9.9-3.2-1.8 0-3.6.4-5.2 1.2-.8.4-1.5.9-2.2 1.5l-.3.3s-.2.1-.3.2l-.3.3v-4.2c-.1-4.3-.4-8.6-.8-12.9-.2-2.1-.5-4.2-.8-6.3 0-.9-.3-1.9-.7-2.7.5-3.1.5-6.1-.9-8.9-1-1.9-2.8-3.3-4.9-3.9-2.4-.5-4.8-.7-7.2-.7-5.2-.2-10.5-.4-15.7-.4-10.4 0-20.8.5-31.2 1.6-5.2.5-10.4 1.2-15.6 2q-7.5.9-14.7 3s-.1 0-.2-.1h.2c-.1 0-.3 0-.4.1-4.8 1.5-9.1 4-13.7 5.8-4.4 1.6-8.9 2.7-13.2 4.6-8 1.5-15.8 3.8-23.4 6.8-.6.2-1.1.5-1.7.8-.7.1-1.4.2-2.2.4-1.7-.1-3.4-.2-5.2-.2-2.8 0-5.4.9-7.7 2.5-2 1.6-3.7 3.5-5.2 5.7-3.2 4.3-6.4 8.8-8.3 13.9-1.9 4.9-1.9 10.3 0 15.2q.6 1.5 1.5 3c.6 3.3.8 6.6.8 9.9v83.2c0 4.5-.2 9 0 13.4.1 2.2.4 4.4 1 6.6.1 1.2.4 2.3.8 3.5.6 1.6 1.4 3 2.4 4.3q1.8 1.95 2.7 4.5c.2.8.4 1.5.4 2.3-.4 6.6-4.3 12.2-8.1 17.5-2.1 2.7-4 5.5-5.7 8.5-1.6 3.1-2.7 6.3-3.4 9.7-1.4 7-1.4 14.1-3 21-1.7 7.2-4.5 14.2-7.2 21.1l-17 43.7-17.1 43.9c-2.9 7.3-5.8 14.6-8.5 21.9s-5.3 14.7-8 22.1c-.7 1.8-1.3 3.7-1.9 5.5 0 .2.2.3.3.1 3.1-7.2 6.2-14.4 9.2-21.6 3-7.3 5.8-14.6 8.7-21.9 5.8-14.8 11.5-29.5 17.3-44.3l17.2-44.1c2.8-7.1 5.7-14.1 7.9-21.4 1.1-3.5 1.8-7 2.4-10.6.5-3.5.8-7 1.2-10.4.4-3.5 1.2-7 2.3-10.4 1.3-3.3 3.1-6.3 5.2-9.1 3.7-5.1 7.8-10.4 8.9-16.8.2 2 .5 3.9.7 5.9.3 2.3.5 4.6.9 7 0 .2.3.2.3 0 0-4.1-.2-8.3-.3-12.4 0-2-.2-3.9-.4-5.9-.1-.8-.4-1.6-.7-2.4.6.4 1.1.7 1.7 1 .7.3 1.5.6 2.2.8-1.9-.7-3.6-1.9-4.9-3.4-.2-.3-.3-.5-.5-.8-.7-.9-1.4-1.8-2.1-2.8-1.9-3.4-2.4-7.4-2.7-11.3-.3-4.4-.1-8.8-.1-13.2v-82.6c0-2.8 0-5.5-.5-8.2.1.2.3.5.4.7.7 1.2 1.5 2.4 2.2 3.7.4.6.7 1.3 1 2s.8 1.3 1.1 1.9c.1.2.5 0 .4-.2-.2-.6-.3-1.2-.5-1.7-.2-.6-.5-1.1-.7-1.7-.5-1.1-1.1-2.3-1.7-3.4-1.1-2.2-2.3-4.3-3.2-6.6-1-2.2-1.7-4.6-2.1-7-.3-2.5 0-4.9.6-7.3 1.4-5 4.4-9.4 7.4-13.5 1.4-2 2.9-4 4.6-5.8s4-2.9 6.5-3.3c3.2-.3 6.5-.4 9.7-.3 3.5 0 6.9-.1 10.4-.2 0 0 .2 0 .2-.2 0 0 0-.2-.2-.2l-8.1-.6c1.4-.2 2.9-.3 4.3-.4 4.6-.3 9.2-.3 13.7-.1 9.2.3 18.3.8 27.5 1.3 4.6.2 9.2.4 13.8.7 4.1.2 8.2.4 12.2.7 7.7.7 15.6 2.2 22.3 6.2.8.4 1.5 1 2.2 1.6.6.7 1 1.6 1.1 2.5.2 2.1.3 4.2.1 6.3 0 4.3-.6 8.5-1.7 12.6-.3 1-.5 2.1-.9 3.1 0 .2.3.4.4.2.7-1.4 1.3-2.9 1.8-4.4-.4 3.1-.8 6.2-1.3 9.3-1 6.7-2.2 13.4-3.7 20-1.4 6.5-3.4 12.9-5.9 19.1-.5 1.4-1.3 2.6-2.3 3.6-.7.6-1.5 1.1-2.3 1.5 0-.4-.3-.7-.7-.9-.5-.2-.9-.3-1.4-.3-.6-.1-1.3-.3-1.9-.4-1.2-.3-2.3-.8-3.4-1.3-2.4-1.1-4.7-2.5-6.8-4.1 2.6 2.4 5.7 4.3 9 5.5.8.3 1.7.6 2.5.9.4.2.9.3 1.3.4h.9l-.1.4c-.3.1-.5.3-.8.4h-.6c-.6 0-1.2 0-1.7-.1-1-.2-1.9-.4-2.8-.7-1.1-.3-2.2-.7-3.2-1.2-.2 0-2.7-1-3.4-1.4v-.2c-.4-.2-.5.2-.2.4.5.3 1 .5 1.5.7.6.2 1.1.5 1.7.7 2.3 1 4.6 2.3 7.2 2.4h.2c-2.8 1.4-5.6 2.8-8.5 4.1-3.1 1.6-6.6 2.4-10.1 2.3-.3 0-.7 0-1-.1-3.2-2.4-6.5-4.8-9.6-7.5-2.7-2.3-5.4-4.7-8-7.2 0-.2 0-.5-.1-.7-.1-1.1-.2-2.3-.4-3.4-.3-1.7-.6-3.4-1.1-5 .3-.2.7-.4.9-.6.6-.4 1.1-.7 1.7-1 1.2-.7 2.5-1.2 3.8-1.5.3 0 .7-.2 1-.2s.6 0 .9-.1c.7 0 1.3-.1 2-.2h3c.4.4.9.8 1.4 1.1 3.5 2.7 6.8 5.9 8.6 10 0 .1.2 0 .2 0-.5-1.7-1.3-3.4-2.3-4.9-1.1-1.5-2.4-2.9-3.6-4.3-.6-.7-1.3-1.4-1.9-2.1-.7-.6-1.3-1.3-1.8-2-.4-.7 0-1.8.3-2.6.2-.9.5-1.8.8-2.7 1.1-3.4 2.6-6.7 4.4-9.8 1.8-3.2 3.9-6.2 6.2-9 1.3-1.5 2.8-3 4.3-4.3 1.5-1.4 3.2-2.6 4.7-4v-.1c-1.7.7-3.2 1.7-4.6 2.9-1.5 1.2-2.9 2.4-4.2 3.7a59.4 59.4 0 0 0-7.2 8.7c-1.5 2.2-2.7 4.6-3.7 7.1-3.1-2-6.2-3.9-9.4-5.8 3.1 2 6.2 4 9.4 5.8-.2.4-.4.9-.5 1.3-.2-.2-.4-.3-.7-.4-.8-.3-1.7-.2-2.5-.5-1-.4-1.8-1.1-2.4-1.9-.8-.9-1.6-1.8-2.3-2.8-1.5-2-2.8-4.2-4.2-6.3-1.4-2.2-2.8-4.4-4.2-6.5-1.6-2.5-3.3-4.9-5-7.4 2.6 4.5 5.1 9 7.8 13.5 1.3 2.2 2.6 4.4 3.9 6.5 1.2 2 2.3 4.1 4.1 5.6-.1.2-.2.4-.1.6.1.4.3.7.4 1.1s.2.8.2 1.2c.1 1.5-.4 2.9-1.5 4-.4.4-.9.7-1.4 1.1-.6-.3-1.2-.7-1.8-1.1-1.6-1.1-3-2.5-4.2-4.1-3.1-3.8-6.1-7.7-9.3-11.4-1.8-2.1-3.5-4.2-5.3-6.4h-.1c3.1 4 6.1 8.2 9.2 12.2 1.3 1.7 2.6 3.3 3.9 5v.1c.2.2.5.4.7.7 0 0 .1.2.2.3 0 .1.2.2.3.3.3.4.5.7.7 1.1.6.9 1 1.8 1.2 2.9.3 1 .1 2.1-.4 3 0 0-.1.2-.2.2l-.6.3c-.5.2-1.1.3-1.6.2h-.3c-.6-1.4-1.2-2.7-1.9-4-2.1-3.9-5-7.5-8.3-10.4-5.4-4.6-11.8-7.9-18.7-9.8-2.5-.6-5-1-7.5-1.3 4.5.8 8.8 2.1 13 4 4.1 1.8 7.9 4.3 11.2 7.3 6.5 5.8 11 13.5 12.6 22.1.3 1.9.4 3.9.8 5.8.2.6.4 1.2.6 1.7.7 1.2 1.5 2.4 2.4 3.5-1-.8-2-1.6-3.1-2.3-2.6-1.8-5.3-3.4-8.2-4.7-1.4-.6-2.8-1.2-4.2-1.6-1.5-.5-3.1-.8-4.7-1.2 2.6.8 5.2 1.9 7.6 3.2s4.7 2.7 6.9 4.3c4.5 3.4 8.7 7.3 12.4 11.6 3.9 4.4 7.5 9.2 11 13.9 3.4 4.5 6.4 9.2 9 14.2 1.4 2.7 2.6 5.6 3.6 8.5.5 1.5.9 2.9 1.2 4.4.3 1.6.4 3.2.4 4.8 0 0 0 .2.2.2 0 0 .2 0 .2-.2.5-5.6-.5-11.3-2.7-16.4-1.5-3.3-3.2-6.5-5.2-9.5-1-3.2-2.2-6.2-3.4-9.3-1.3-3.3-2.7-6.5-4.1-9.7h1.4c2.1 4.4 4.1 8.9 5.9 13.4 2 4.7 3.8 9.5 5.7 14.2h.1q-3.9-11.4-9-22.2c-.8-1.8-1.7-3.6-2.6-5.5 2.1 0 4.2-.4 6.3-1.1 2.8-1 5.6-2.2 8.2-3.6.3.2.7.3 1 .5 2.4 3.7 4.6 7.5 6.7 11.4 2.3 4.2 4.3 8.6 6.4 12.9-2-4.4-4.2-8.7-6.4-13-1.9-3.9-4.1-7.6-6.5-11.2.5.1 1 .2 1.5.2h3.2c1.2 0 2.4 0 3.6-.2 1.7 3.5 3.5 6.9 5.6 10.1 1.1 1.7 2.2 3.4 3.1 5.1.5.9 1 1.8 1.5 2.8.2.4.4.8.7 1.2.2.5.4.9.7 1.3h.2c.3-.8-.3-1.6-.7-2.2-.6-.9-1.2-1.7-1.8-2.5-1.2-1.8-2.3-3.6-3.3-5.5-1.9-3.5-3.9-6.9-5.8-10.3.9 0 1.7-.1 2.6-.2 2.7-.2 5.5-.5 8.2-.9.6 0 1.3 0 1.9.2 1.4.2 2.8.3 4.2.4 2.7.2 5.4.2 8-.1 5.3-.6 10.5-1.9 15.4-4.1 1.4-.6 2.7-1.3 4-2.1l1.8-1.2.2-.2c1.7-.5 3.2-1.3 4.6-2.2.3 0 .6-.1.9-.2.4-.1.8-.3 1.1-.6.2-.1.4-.3.5-.5 0-.1.2-.2.3-.3.2 0 .3.1.5.2l.1.1c.4.5.9 1.1 1.3 1.6.9 1.1 1.8 2.2 2.6 3.3 1.8 2.2 3.4 4.5 5.1 6.8h.2v-.2c-1.3-2.6-2.8-5.2-4.4-7.7-.8-1.2-1.6-2.4-2.5-3.5-.4-.6-.9-1.1-1.4-1.7q-.45-.6-1.2-1.2c.9-1.7 1.4-3.5 1.4-5.4 0 .1.2.2.3.3.3.2.7.5 1 .7.7.5 1.4.9 2.1 1.4 1.4 1 2.7 2 4 3.2 1.3 1.1 2.5 2.4 3.7 3.6s2.6 2.3 3.8 3.5c-1-1.1-1.9-2.3-2.9-3.5.9 1 1.8 1.9 2.8 2.9-1.2-1.7-2.4-3.5-3.7-5.2-.6-.7-1.1-1.5-1.7-2.2-.5-.7-1.2-1.3-1.9-1.8-.2-.5-.5-1-.7-1.5l-1.5-3.6c-.9-2.2-1.8-4.5-2.5-6.8.6 2.4 1.4 4.7 2.2 7 .4 1.1.8 2.1 1.3 3.1.2.5.4.9.6 1.4q-2.25-1.05-3.9-3c-.4-.5-.7-1-1-1.5-1.1-2.5-2-5.2-2.7-7.8-.2-.7-.3-1.4-.5-2.1v-1.5q0-4.2.6-8.4c.5 2.5 1.7 4.8 3.3 6.8 3.4 3.9 8.9 5.5 14 5.5 3.4-.2 6.8-.7 10.2-1.6.1 0 .1-.2 0-.2-5.4.6-11.1.7-16.3-1h-.1c-.6-1.3-1.4-2.5-2.1-3.7-.7-1.3-1.4-2.6-2-3.9-1.3-2.7-2.5-5.4-3.6-8.2 1 2.8 2.1 5.5 3.4 8.2.7 1.3 1.3 2.7 2.1 4 .6 1.2 1.3 2.4 2.1 3.5-1.4-.5-2.7-1.2-3.9-2-.7-1.1-1.4-2.2-2-3.4-.8-1.5-1.6-3-2.3-4.5-.7-1.6-1.4-3.2-2-4.8.3-3.1.5-6.2.7-9.3.3-5.5.4-10.9.4-16.4.3-.5.5-.9.9-1.4.2-.3.4-.6.7-.9 1.7-1.3 3.8-2 6-1.9 3.3.2 6.4 1.2 9.2 2.9 7.5 4.7 12.9 12 15.2 20.5 0 .2.3.1.3 0q-.45-4.5-2.1-8.7c-1.2-2.8-2.9-5.3-4.9-7.5-.9-1-2-2-3-2.9.8.1 1.5.4 2.2.7 2.1 1.4 4 3.1 5.4 5.2 2 2.6 3.9 5.1 5.9 7.7 1.9 2.4 3.8 4.8 5.6 7.3 1.7 2.3 3.2 4.9 3.6 7.8.3 3.1-.5 6.1-1.5 9-.5 1.4-1 2.8-1.6 4.2-.6 1.3-1.5 2.4-2.5 3.4s-2.1 1.9-3.1 2.9c-1 1.1-2 2.4-3 3.6-2.3 2.9-4.5 5.7-6.6 8.7-1.1 1.5-2.1 3-3.2 4.5.1-.3.2-.6.4-1 1-2.5 2-5.1 2.9-7.6.5-1.3.9-2.5 1.3-3.8v-.1c-1.3 2.4-2.3 4.9-3.4 7.4s-2.1 5-3.3 7.4c-1.3 2.4-2.3 4.9-3.3 7.5-1 2.5-2.1 5-3.1 7.6-3.9 9.5-7.7 18.9-11.9 28.3-4.1 9.3-8.7 18.4-13.7 27.2-5.1 8.9-10.9 17.3-17.3 25.3q-2.1 2.7-4.8 4.8c-1.9 1.3-4 2.4-6.2 3.2-1.9.7-3.7 1.6-5.3 2.8h-.1l-.2.2c-.1.1-.3.2-.4.3-1.5 1.5-2.7 3.3-3.4 5.2-.4.9-.6 1.8-.8 2.8-.6 2.1-1 4.1-1.3 6.3-.4 2.9-1 5.8-1.8 8.6-1.1 3.3-2.3 6.6-3.8 9.8-5.4 12.6-10.1 25.5-14.5 38.5-4.4 13.1-8.4 26.3-12.3 39.6-3.9 13.2-7.7 26.5-11.6 39.7-1.9 6.6-3.9 13.3-5.9 19.9s-3.8 13.3-6 19.8c-.5 1.6-1.1 3.3-1.6 4.9 0 .2.2.2.3 0 4.8-12.9 9.4-25.8 13.4-38.9 4-13.2 7.8-26.4 11.7-39.6 3.9-13.1 7.8-26.3 12.1-39.3 4.3-13.1 8.9-26 14.1-38.7 2.5-6.2 5.6-12.2 6.9-18.8 1.1-5.4 1.2-11.1 3.3-16.2 1.7-1.9 3.8-3.4 6.2-4.4 2.1-1 4.3-1.7 6.4-2.9 2-1.2 3.8-2.7 5.4-4.4 3.3-3.7 6.4-7.7 9.2-11.8 3-4.2 5.8-8.4 8.4-12.8 5.2-8.8 9.9-17.8 14-27.1 2.7-5.8 5.2-11.7 7.7-17.6 1.9 2.2 3.7 4.4 5.6 6.6 1 1.2 2.1 2.5 3.1 3.8 1.1 1.3 2 2.7 3.2 3.8 0 0 .2 0 .2-.1-.9-1.3-1.9-2.5-3-3.7-1.1-1.3-2.1-2.6-3.2-3.8-1.9-2.2-3.9-4.5-5.8-6.6 1.4-3.4 2.9-6.9 4.2-10.3 2-5 4.1-10 6.1-15.1.5-1.4 1-2.8 1.5-4.1.4-.5.8-1 1.3-1.5 1.1-1.3 2.2-2.5 3.4-3.8 2.2-2.5 4.3-5 6.3-7.6q2.85-3.9 6.3-7.2c1.1-.9 2.1-2 2.9-3.2.7-1.3 1.3-2.6 1.7-4 1.2-3 1.9-6.1 2.2-9.3 0-3-.8-5.9-2.4-8.4Zm-143.5 39.9c-.4-.8-.8-1.7-1-2.6 2.6 2.5 5.3 5 8.1 7.3 3 2.5 6 5 9.2 7.2-1-.2-1.9-.4-2.9-.7-.4-.1-.8-.3-1.2-.5-2.4-2.1-5.1-3.8-7.5-5.9l-3.9-3.3c-.2-.5-.5-1-.7-1.5Zm2.5 5.2c-.4-.9-.8-1.9-1.3-2.8 1 1 2.1 1.9 3.2 2.8 1.5 1.3 3.1 2.6 4.7 3.8v.2c-.6-.3-1.1-.6-1.7-1-1.7-1-3.3-2.1-5.1-3Zm7.5 8.1c-1-1.2-2.1-2.4-3.2-3.6.9.6 1.8 1.2 2.8 1.7.4 1 .9 2 1.3 2.9-.3-.3-.6-.7-.9-1.1Zm2.5 3c-.3-.7-.5-1.4-.8-2-.3-.8-.7-1.6-1.1-2.4.5.1.9.2 1.4.2v.3c.2.5.4 1 .5 1.5.4 1 .8 2 1.2 2.9.4 1 .9 2.1 1.4 3.1-.9-1.2-1.8-2.4-2.8-3.6Zm4.2 5.5c-.8-2.3-1.7-4.6-2.8-6.8-.3-.7-.7-1.5-1-2.3.6.3 1.1.6 1.7.7l1.2 3c.5 1.3 1.1 2.7 1.7 4 .9 2 1.7 4.2 2.8 6.2-1.2-1.6-2.3-3.2-3.5-4.8Zm4.1 2.1c1 2.5 1.9 5.1 3 7.6-.8-1.2-1.7-2.4-2.5-3.6-.9-2.7-1.9-5.3-3.2-7.8-1-2.2-2-4.5-3.2-6.7.3 0 .6.1.8.2.4 0 .9.1 1.3.2 1.2 3.4 2.5 6.7 3.8 10.1m-11.9-121c.9.5 1.7.9 2.6 1.4 1.3.7 2.6 1.6 4 2.3-.5 0-.9 0-1.4.1-.8 0-1.6.2-2.3.3-1.1-.6-2.2-1.1-3.3-1.6s-2.1-1-3.2-1.5c1.2-.4 2.4-.7 3.7-1Zm-6 1.9c.7-.3 1.5-.6 2.2-.8 1.1.6 2.2 1.1 3.3 1.7 1 .5 1.9 1 2.9 1.4-1.3.2-2.6.3-3.9.5-.4-.2-.9-.4-1.4-.6-.6-.3-1.2-.5-1.8-.8-.8-.3-1.6-.7-2.4-1 .3-.1.6-.3 1-.4Zm-1.1.4c.8.4 1.6.7 2.4 1.1.6.3 1.2.5 1.8.8.4.2.7.4 1.1.5-1.4.2-2.8.4-4.1.6-.6-.2-1.2-.5-1.9-.7-.8-.3-1.6-.6-2.5-.9 1.1-.5 2.1-.9 3.2-1.4m-5.6 2.4c.8-.3 1.6-.7 2.3-1 .8.3 1.6.7 2.5 1 .5.2 1.1.4 1.6.6l-3.9.6c-.5-.2-1.1-.4-1.7-.5l-1.2-.4h-.1c.2 0 .3-.1.5-.2Zm-6.7 2.4c2-.6 4-1.3 5.9-2.1.1 0 .3 0 .4.1l1.2.4c.4.1.9.3 1.3.4-3.6.5-7.2 1.1-10.9 1.8zm-30.4 9c1.5-.5 3.1-1 4.6-1.4.1 0 .2.1.3.2.4.2.8.4 1.2.5-2 .2-4.1.4-6.1.7m8.2-.8h-.2c-.4-.2-.8-.3-1.2-.4s-.8-.3-1.2-.4c.6-.2 1.2-.4 1.8-.5l1.2-.3c.9.6 1.9 1.1 2.9 1.5.1 0 .2.1.4.2H111Zm4.8-.1c-.4-.2-.9-.4-1.3-.6l-2.7-1.2c1.1-.3 2.2-.5 3.3-.8 1.4.7 2.8 1.3 4.2 1.9.5.2.9.4 1.4.7h-4.8Zm7.3.2h-1.9c-.6-.3-1.3-.6-1.9-.9-1.3-.6-2.7-1.2-4-1.7 1.2-.3 2.4-.5 3.5-.8 1.5.6 2.9 1.2 4.3 1.9 1 .5 1.9 1.1 2.9 1.7-.9 0-1.9 0-2.8-.1Zm3.3.1c-1.1-.7-2.2-1.4-3.4-1.9-1.3-.7-2.7-1.3-4.1-1.7 1.3-.3 2.7-.5 4.1-.8 1.5.9 3 1.7 4.5 2.6.7.4 1.5.9 2.2 1.3.4.3.9.5 1.3.8-1.5 0-3.1-.1-4.6-.2Zm76.2 87.6c-1.7.4-3.4.6-5.2.8-2.3.3-4.6.5-6.9.8-2.3.2-4.6.4-6.9.5h-4.8c1.4-.7 2.9-1.4 4.3-2.1 1.5-.7 2.8-1.7 3.9-2.9.9-1.2 1.6-2.6 2.2-4 .7-1.6 1.3-3.3 1.8-4.9 1.1-3.3 2.1-6.6 3-10 1.7-6.8 3-13.8 3.9-20.7.5-3.9 1-7.8 1.3-11.8.2-1.9.3-3.9.5-5.8 0-1.2.2-2.4.3-3.7.3-2 .4-4.1.4-6.1s0-4.3-1.1-6-2.9-2.7-4.6-3.7c-1.8-1-3.6-1.8-5.5-2.5-3.8-1.3-7.7-2.3-11.7-2.8-4.1-.6-8.1-.8-12.2-1l-13.8-.6-20.1-.9c-.6-.4-1.2-.7-1.7-1-.7-.4-1.4-.8-2.2-1.2-1.5-.8-2.9-1.7-4.4-2.5.4 0 .7-.1 1.1-.2 9.6-1.7 19.3-3.2 29-4.5 10-1.3 20-2.1 30.1-2.6 5-.2 10-.3 15-.5l7.6-.2c2.2-.2 4.4 0 6.5.3 3.7.9 5.8 4.1 6.6 7.7.9 4.3 0 8.7-.4 13-.1 1.2-.3 2.3-.3 3.5 0 .2.3.2.3 0 .2-1.5.6-2.9 1-4.3v4.6c-.1 4-.3 8-.5 12-.5 8.1-1.4 16.2-2.4 24.2-1.1 8-2.4 16.1-3.8 24.1-.3 1.9-.7 3.8-1.1 5.7-.3 1.6-.8 3.1-1.6 4.6-1.6 2.7-4.5 3.9-7.5 4.6Zm38.2-54.4c-.1 2.4-.3 4.8-.4 7.2v-.2c0 .1 0 .2.1.4 0 1.3-.2 2.6-.3 3.8-.3 3.7-.9 7.4-1.1 11.2q-.15 2.7 0 5.4c.2 1.8.6 3.7.9 5.5.5 3.1.8 6.5-.5 9.4-1.4 3.1-4.5 4.7-7.6 5.7-3.5 1.1-7.3 1.9-10.5 3.9-.2.1 0 .4.2.4 1.7-.5 3.5-.9 5.2-1.2.3 0 .6 0 .9-.1-.2.1-.4.2-.7.3-2.4 1.1-4.9 1.9-7.4 2.6s-5.1 1.2-7.7 1.5c-2.5.2-4.9.3-7.4.3 1.9-.5 3.7-1.4 5.3-2.6 2.7-2.3 3.6-5.8 4.2-9.1 1.5-8.2 2.9-16.4 4.1-24.6s2.1-16.5 2.6-24.8c.3-4.2.5-8.3.5-12.5.1-4.2 0-8.3-.4-12.5.4-1.6.5-3.2.5-4.9-.1-3.7-1.4-7.6-4.3-10-3.6-3-8.5-2.5-12.9-2.4-5.1.1-10.2.3-15.3.4-8.7.3-17.3.9-25.9 1.8-2.1-1.5-4.4-2.8-6.9-3.8q2.25.9 4.2 2.1c.8.5 1.7 1.1 2.5 1.6-1.1.1-2.1.2-3.2.3-1.3-.9-2.8-1.6-4.2-2.4-.8-.4-1.6-.9-2.5-1.3 2.7-.7 5.4-1.1 8.2-1.6 5-.8 10.1-1.5 15.2-2.1 10.1-1.2 20.2-1.8 30.3-2h15.2c2.5 0 5.1.2 7.6.3 2.1.1 4.6 0 6.5 1.1 4.2 2.3 3.3 8 2.6 11.9-.8 5-1.6 10.1-2.2 15.1-.2 1.3-.4 2.7-.6 4 0 .2.3.3.3 0 1.2-5.1 2.5-10.3 3.6-15.5.1-.6.3-1.3.4-1.9v.2c.1 1.9.2 3.8.4 5.7l.6 11.1q.45 11.1 0 22.2Zm2.9 16.6c.7 1.6 1.5 3.1 2.4 4.6.5 1 1.1 1.9 1.7 2.8-.3-.2-.6-.5-.9-.8-1.8-1.6-3.1-3.7-3.8-6-.5-1.6-.9-3.2-1.1-4.8v-.2c.5 1.5 1.1 2.9 1.8 4.3Z" class="st0"/><path fill="currentColor" d="M121.8 131.1c-1.2-1.3-2.7-2.4-4.2-3.2-1.6-.9-3.2-1.8-4.8-2.6 1.6.9 3.1 1.8 4.6 2.8 1.4 1.1 2.9 2.1 4.4 3m-1.3-3.5c-.9-1.1-2-1.9-3.3-2.5-1.2-.7-2.5-1.2-3.9-1.6 1.3.5 2.5 1.2 3.7 1.9.6.4 1.1.7 1.7 1.1.5.4 1.1.8 1.7 1.2 0 0 .2 0 .1-.1m55.6 85.8c-.8-1.9-1.6-3.8-2.3-5.7-1.5-3.8-3.1-7.6-4.7-11.3-.9-2.2-1.9-4.4-2.9-6.6 3.2 7.7 6.5 15.3 9.7 23 .9 2.1 1.7 4.3 2.6 6.4-.7-2-1.6-3.9-2.4-5.8m-6.1-22.3c3 6.8 5.8 13.7 8.7 20.5-2.8-6.9-5.7-13.7-8.7-20.5m2.6-1.7c4.4 9.3 8.6 18.6 12.4 28.1 0 0 .1 0 0 0-3.8-9.5-7.9-18.9-12.5-28.1Zm14.4 21.2-1.5-3.3c-1-2.2-2-4.4-3.1-6.6-2.2-4.4-4.5-8.7-7.1-12.9 2.3 4.3 4.6 8.6 6.8 12.9 1.1 2.1 2.2 4.3 3.2 6.4.5 1.1 1 2.2 1.5 3.2.5 1.2 1 2.4 1.6 3.5-.4-1.1-.9-2.2-1.4-3.3Zm4.8-8.1c-.9-1.8-1.8-3.5-2.8-5.3-1.9-3.5-3.9-6.9-6.1-10.3 2.1 3.3 4 6.8 5.9 10.2.9 1.7 1.9 3.4 2.8 5.2s1.7 3.6 2.8 5.3c-.7-1.8-1.7-3.4-2.6-5.1m9.7.6c-.4-.8-.9-1.6-1.4-2.3s-.9-1.5-1.4-2.2c-.9-1.5-1.8-3.1-2.7-4.6-.8-1.5-1.6-3.1-2.5-4.6-.4-.7-.9-1.4-1.4-2.1-.3-.5-.8-.9-1.4-1.1.5.5.8 1.1 1.1 1.8.4.8.8 1.5 1.3 2.3.9 1.5 1.9 2.8 2.8 4.3.9 1.4 1.8 2.8 2.6 4.2.4.8.9 1.5 1.3 2.3s.8 1.5 1.3 2.3c0 0 .2.1.2 0 0 0 .1-.1 0-.2Zm-3.2-12.7c-.9-1.3-1.9-2.5-3-3.7 1 1.2 1.9 2.5 2.8 3.8s1.6 2.6 2.4 4c-.6-1.5-1.3-2.8-2.2-4.1m5.4 9.2c.3.3.5.7.8 1-.3-.3-.5-.7-.8-1M201 187s-.1 0 0 0c1.4 2.2 2.8 4.4 4.4 6.5-1.4-2.2-2.9-4.4-4.4-6.5m.4-6.2c-2.1.2-4.3.1-6.4-.3-1-.2-2-.3-3-.5-.5 0-1.1-.1-1.6-.3-.4 0-.7-.3-1.1 0-.1 0-.2.2 0 .3.3.3.7.2 1.1.2.5 0 1.1.1 1.6.2 1.1.1 2.2.2 3.3.4 2 .3 4.1.3 6.2 0 0 0 0-.1 0 0Zm-7.4 1.3c-1.5-.3-3.1-.4-4.6-.6-.1 0-.1.2 0 .2 1.5.2 3.1.4 4.6.5Zm34.5-7.9c-.3 0-.7-.2-1-.3h-3.2c-1.4 0-2.9-.2-4.3-.3l4.2.3c.7 0 1.5.1 2.2.3.3 0 .6.2.9.2.4 0 .8 0 1.2-.1 0 0 .1-.1 0-.2Zm5.6.3c-.2 0-.3 0-.5-.1h-1.5v.1h.5c.2 0 .3.1.5.1h1zm.8-78.5v-.6c.5-3.1.9-6.3 1.4-9.4-.6 3.1-1.2 6.3-1.8 9.4v.3c-.3-.2-.6-.3-1-.5.3.2.7.4 1 .5-.2.9-.3 1.7-.5 2.6-.4-.4-.8-.7-1.2-1 .3-2.2.7-4.4 1-6.6-.4 2.1-.8 4.2-1.2 6.4-.2-.2-.5-.3-.8-.5 0 0-.1 0 0 .1.3.2.5.4.8.6 0 .3-.1.6-.2.9 0 .5-.2 1.1-.3 1.6-.4-.3-.9-.6-1.3-.9.2-1.5.4-3 .6-4.6-.3 1.5-.5 3-.8 4.4l-.9-.6c.3.2.6.5.9.7l-.2 1.1c0 .4-.1.8-.2 1.2-.4-.2-.7-.5-1.1-.7.1-.8.3-1.6.4-2.4-.2.8-.3 1.5-.5 2.3-.4-.3-.8-.5-1.3-.8s-1-.6-1.6-.9c.5.4 1 .7 1.5 1.1-.1.7-.3 1.5-.4 2.3-.5-.3-1-.7-1.6-1 .5.4 1 .8 1.6 1.2v1.1c0-.3.1-.6.2-.9.2.2.5.4.7.6l.2.2v.1c-.2.5-.2 1.1-.2 1.6h.1c.2-.5.3-1 .4-1.5.3.3.7.5 1 .8v1.2s0 .1.1 0c.1-.3.2-.7.3-1 .2.2.5.3.7.5 0 0 .1 0 0 0-.2-.2-.5-.4-.7-.6 0-.5.1-.9.2-1.4 0-.3.1-.7.2-1l1.2.9c-.2.9-.3 1.8-.3 2.8 0 0 .1.1.1 0 .3-.8.5-1.6.6-2.5.4.3.9.6 1.4.9v.3h.1v-.2l-.1-.1c.2-.5.2-1.1.3-1.7 0-.2.1-.4.2-.6.2.1.3.2.5.4l-.5-.5c.1-.5.3-1 .3-1.5 0-.3 0-.7.1-1 .1-1 .3-1.9.4-2.9 0 0 .2 0 .2.1 0 0-.2-.1-.3-.2Zm-6.8 7.1-.9-.6c.1-.8.2-1.6.2-2.3.4.3.8.6 1.2.8 0 .3-.1.6-.2.9 0 .4-.2.9-.3 1.3Zm1.5-.1c0 .4-.1.8-.2 1.1-.3-.3-.7-.5-1-.8 0-.5.2-1 .3-1.5 0-.2 0-.5.1-.7.3.2.6.4.9.7 0 0 .1 0 .2.1 0 .4-.1.8-.2 1.1Zm1.9-1v.4l-1.2-.9c0-.4.1-.9.2-1.3v-1c.6.3 1 .6 1.4 1l-.3 1.8Zm1.9.2c0 .5-.2 1-.3 1.5-.4-.4-.8-.7-1.2-1v-.6c0-.6.2-1.1.3-1.7.3.3.7.5 1 .8 0 0 .2.1.3.2v.8Zm.2-2.2c0 .4 0 .7-.1 1.1l-1.2-.9c.1-.6.2-1.3.3-1.9 0-.2 0-.5.1-.7.4.3.8.6 1.2 1 0 .5-.2.9-.3 1.4m-16-4.8c-.4 1.6-.7 3.2-1.1 4.8-.2.8-.4 1.5-.5 2.3-.3.7-.4 1.5-.3 2.2h.1q.45-1.05.6-2.1c.1-.8.3-1.6.4-2.4.3-1.6.6-3.2.8-4.7Zm-2.3 13v-.2c0-.4.1-.9.2-1.3 0-.2-.2-.2-.3 0 0 .4-.2.9-.3 1.3s0 0-.1 0c0 0-.1 0-.2-.1 0 0-.1 0-.2-.1 0 0-.1 0-.2-.1l-.2-.2s-.2 0-.1.1l.2.2.2.2c.1.1.2.3.4.4 0 0 .2.1.2.2v.9c0 .1.1.2.3.1.1-.2.2-.4.2-.6h.3c0-.2-.1-.3-.3-.4Z" class="st0"/><path fill="currentColor" d="M215.7 105.3c-.4-.3-.7-.6-1.1-.9-.3-.2-.6-.5-.9-.7l.9-4.2c-.4 1.3-.7 2.7-1 4-.1.6-.3 1.1-.4 1.6-.2.9-.4 1.9-.6 2.8 0 .3-.1.7-.2 1-.3-.3-.7-.6-1.1-.9.1-.5.2-.9.3-1.4 0-.4.1-.7.2-1.1.2.1.3.2.5.3l-.5-.5c.3-1.3.5-2.6.8-3.9-.3 1.2-.7 2.4-1 3.7l-.5-.5c-.4-.4-.9-.7-1.3-1.1.4.4.8.9 1.2 1.3.2.2.4.4.6.5l-.3 1.2-.3 1.2c-.3-.3-.7-.5-1-.8l-.2-.2c.1-.6.3-1.2.4-1.7-.2.5-.4 1.1-.5 1.6-.9-.7-1.9-1.4-2.8-2 .9.8 1.8 1.6 2.7 2.3-.1.3-.2.7-.3 1-.1.5-.3 1-.5 1.5-.4-.3-.9-.7-1.3-1 .1-.4.2-.9.3-1.3-.1.4-.3.8-.4 1.3-.6-.4-1.2-.9-1.8-1.3l1.8 1.5c0 .3-.2.7-.3 1l.3-.9c.4.4.9.7 1.3 1-.1.4-.2.8-.2 1.2.2-.3.3-.7.4-1 .3.2.5.4.8.5-.3-.2-.5-.5-.8-.7.2-.6.3-1.1.4-1.7 0-.3.2-.6.2-.9.4.3.7.6 1.1.9 0 .3-.1.5-.2.8-.3.8-.4 1.6-.5 2.5 0 0 0 .1.1 0 .3-.7.5-1.5.7-2.3 0-.2.1-.5.2-.7.4.3.7.5 1.1.8-.1.5-.1 1-.1 1.4 0 .1.2.2.2 0 .2-.4.3-.8.4-1.2h.1s-.1 0-.1-.2c0-.4.1-.8.2-1.2.2-1 .4-2 .5-2.9 0-.5.2-1 .3-1.5l.8.7c.4.3.7.6 1.1.9Zm-32.1 19.6c-.8-.9-1.7-1.8-2.5-2.7.8.9 1.7 1.8 2.5 2.7s1.6 1.9 2.5 2.7c-.8-1-1.6-1.8-2.5-2.7m4.9 1.2c-.6-.8-1.3-1.5-1.9-2.3-1.3-1.5-2.8-2.9-4.3-4.2 1.4 1.4 2.7 2.8 4 4.3.6.7 1.2 1.4 1.8 2.2s1.2 1.6 1.9 2.3h.1c-.4-.8-.9-1.6-1.5-2.2Zm2.9-.3c-.2-.3-.5-.7-.7-1-.5-.7-1.1-1.4-1.7-2.1-1.1-1.4-2.4-2.7-3.7-3.9 1.2 1.3 2.3 2.7 3.4 4 .6.7 1.1 1.4 1.7 2.1.3.4.5.7.8 1.1.1.2.2.3.4.5.1.2.3.3.5.4-.2-.4-.4-.8-.7-1.2Zm1.7-1.3-.6-.9c-.4-.5-.8-1.1-1.2-1.6-.9-1.1-1.8-2.1-2.8-3.1.9 1 1.7 2.1 2.6 3.2.4.5.8 1.1 1.2 1.7.2.3.4.6.6.8.2.3.4.5.6.8 0 0 .2 0 .2-.1-.1-.3-.3-.5-.5-.8Zm.6-3c-.3-.4-.5-.8-.8-1.1-.6-.8-1.3-1.5-1.9-2.2.6.8 1.2 1.5 1.8 2.3.3.4.5.8.8 1.2.2.4.5.8.8 1.1 0 0 .1 0 0 0-.1-.4-.4-.9-.7-1.2Zm.7-3c-.4-.4-.8-.8-1.3-1.2 0 0-.1 0 0 0 .4.4.9.8 1.2 1.2.4.4.7.9 1 1.4 0 0 .1 0 0 0q-.3-.75-.9-1.5Zm50 43c-.7-2-1.3-4-1.9-6.1.5 2.1 1.1 4.2 1.7 6.2s1.3 4 2.3 5.8h.1c-.7-2-1.6-3.9-2.3-5.9Zm7.5 8.5c-.3-.7-.6-1.3-.9-2-1.2-2.7-2.4-5.3-3.5-8 0 0-.1 0 0 0 .7 2 1.4 4.1 2.2 6.1l1.2 2.7c.2.5.4.9.6 1.4.1.3.2.5.4.8 0 .2.2.3.2.5-.2.3.4.4.4 0s-.4-1.1-.5-1.5Zm1.7-.6c-.3-.7-.6-1.3-.9-2l-1.8-3.9h-.1c.5 1.3 1 2.7 1.5 4 .2.6.5 1.3.8 1.9.2.7.6 1.3 1 1.8h.1c0-.6-.3-1.2-.5-1.8Zm2.7 2.1-.4-.8c-.2-.5-.5-1-.8-1.5-.5-1-1.1-2.1-1.6-3.1 0 0-.1 0 0 0 .5 1.1.9 2.2 1.4 3.2.2.5.4 1 .7 1.5.1.3.2.5.4.8 0 .3.2.5.4.7.1 0 .3 0 .3-.2 0-.3 0-.5-.2-.7Zm2 .6c0-.2-.1-.3-.2-.5-.2-.4-.3-.7-.5-1-.4-.7-.8-1.3-1.3-1.9 0 0-.1 0 0 0 .4.6.8 1.3 1.1 2 .2.3.3.7.5 1 0 .2.1.3.2.5 0 .2.1.3.3.4h.1v-.5Zm.5-1.9c.7.8 1.3 1.6 1.8 2.5 0 0 .1 0 0 0-.4-1-1-1.9-1.9-2.5Zm3.1 1.3h.3zm-8.6-22c-2.7-5.7-5.3-11.3-7.7-17.1 2.4 5.8 4.9 11.5 7.5 17.2 0 .2.3 0 .2-.1m1 2.6c.3.7.6 1.4 1 2.1-.3-.7-.6-1.4-1-2.1m.5-6.5c-1.2-2.8-2.4-5.5-3.6-8.3 0 0-.1 0 0 0 1.1 2.8 2.2 5.5 3.3 8.3 1.1 2.7 2.1 5.5 3.4 8 0 .2.4 0 .4-.2-1-2.7-2.3-5.3-3.5-7.9Zm7.2 9c-1-2.6-2.3-5.1-3.4-7.6-1.2-2.6-2.4-5.2-3.6-7.7 1.1 2.6 2.1 5.1 3.2 7.7s2.1 5.3 3.4 7.8c.1.3.5 0 .4-.2m1.5-3.2c-.4-1-.9-2-1.3-2.9-.9-2-1.9-3.9-2.9-5.8 0 0-.1 0 0 0 .9 2 1.7 3.9 2.6 5.9.4 1 .8 1.9 1.2 2.9.3 1 .8 1.9 1.4 2.8h.1c-.2-1-.5-1.9-1-2.8Zm3.2.9c-.2-.4-.4-.8-.5-1.2-.4-.9-.8-1.7-1.1-2.5-.8-1.7-1.7-3.4-2.5-5.1.8 1.7 1.6 3.4 2.3 5.1.4.8.7 1.6 1.1 2.5.2.5.4.9.6 1.4.1.4.3.7.6 1.1 0-.4-.2-.8-.4-1.1Zm2.3-1.7-1.2-2.4c-.8-1.6-1.5-3.2-2.3-4.7 0 0-.1 0 0 0l2.1 4.8c.4.8.7 1.6 1.1 2.4.3.8.7 1.6 1.2 2.3-.2-.8-.5-1.5-.9-2.3Zm2.6-1.4c-.2-.4-.4-.9-.6-1.3-.4-.9-.7-1.8-1.1-2.7l-2.4-5.4s-.1 0 0 0c.8 1.8 1.5 3.5 2.3 5.3.4.9.8 1.7 1.2 2.6.2.5.5 1 .7 1.5.1.4.3.8.5 1.2-.1-.4-.3-.8-.5-1.2Zm1.3-4c-.2-.7-.5-1.4-.7-2-.5-1.3-1.1-2.6-1.7-3.9 0 0-.1 0 0 0 .6 1.3 1.1 2.7 1.6 4.1.2.7.5 1.3.7 2s.4 1.3.6 1.9h.1c-.1-.7-.3-1.4-.6-2Zm2.1-2.5c0-.2-.2-.4-.2-.5 0-.2-.2-.4-.2-.6q0-.3-.3-.6c-.1-.1-.2-.3-.3-.4 0-.1 0-.3-.2-.4q-.3-.6-.9-1.2c.2.2.3.5.5.7-.2-.2-.4-.5-.6-.7.2.3.4.7.6 1s.4.7.5 1.1c0 .2.1.4.3.5.1.2.2.3.3.5 0 .2.2.3.3.5 0 .2.1.3.3.4h.1v-.5Zm-22.8 56.4s-.1 0 0 0c.2 1.2.4 2.4.6 3.5l-.6-3.6Zm-3.5-2.6c.7 4 1.2 8 1.7 12-.4-4-1-8-1.7-12m-1.1 11c-.3-2.4-.6-4.8-1-7.2h-.1c.3 2.5.6 4.9.8 7.4.2 2.4.4 4.8.8 7.2 0-2.5-.2-5-.6-7.4Zm-2.4 6.3c-.3-2.7-.6-5.4-.8-8.1.1 2.7.2 5.5.5 8.2.1 2.7.4 5.3.9 7.9h.1c0-2.7-.3-5.4-.7-8m-3.2 5.8v-1.5c-.2-1.1-.3-2.2-.4-3.3-.2-2.2-.4-4.3-.6-6.5 0 2.2.2 4.4.3 6.6 0 1.1.1 2.1.2 3.2v1.7c0 .4 0 .7.2 1.1h.2c.2-.4.2-.9 0-1.3Zm.2 5.1c0-.7-.2-1.4-.4-2.1 0-.1-.2 0-.2 0 .1.7.2 1.4.2 2.1v1.5c0 .1 0 .3.1.4 0 0 .1.1.2 0 0-.1.1-.2.2-.4v-1.7Zm-2.2 7.7c0-.7-.1-1.5-.2-2.2-.1-1.5-.3-3-.4-4.5l-.9-8.9c.2 3 .4 6 .7 9.1l.3 4.5c0 1.5.2 2.9.5 4.4h.1v-2.2Zm-2.4-1.3-.9-7.8c.3 2.7.5 5.4.7 8s.3 5.2.7 7.8h.1c0-2.7-.2-5.4-.5-8.1Zm-1.9 8.8c0-1-.1-2.1-.2-3.1-.2-2-.4-4-.7-6 .2 2.1.4 4.2.6 6.2 0 1 .1 2.1.2 3.1 0 1 0 1.9.2 2.9h.1v-3.1Zm-2.3 1.4c0-1.9-.2-3.8-.5-5.7.2 1.9.3 3.8.4 5.7v5.8c.2-1.9.2-3.8.1-5.8m-2.8 3.4c-.2-2.4-.2-4.9-.4-7.3.1 2.4.2 4.9 0 7.3 0 .6-.2 1.2-.2 1.9 0 .6.2 1.1.3 1.7 0 1.2 0 2.5-.2 3.7 0 .2.3.2.3 0 0-1.2 0-2.5.1-3.7 0-.6.3-1.1.3-1.7s0-1.2-.2-1.9m-3.9 8.9c0-1.2.2-2.5.1-3.7s0-2.5 0-3.7v-3.7 7.4c-.1 1.2.1 2.5.1 3.7v1.7c0 .6-.1 1.2 0 1.8 0 0 .1.1.2.1l.1-.1v-3.5Zm-2.2 4.2c-.2 0-.4 0-.5-.1-.3 0-.5 0-.8-.1v-8.5c0 1.7-.2 3.3-.2 5 0 .8 0 1.6-.1 2.4v1.2c0 .5 0 .9.1 1.4 0-.5.1-.9.2-1.3.3 0 .5.1.8.2.2 0 .4 0 .5.1.2 0 .4.1.5 0 0-.1-.3-.2-.5-.2Zm-1.6 3.3s0-.1-.1 0q-1.05-.45-2.1-.6c-.2 0-.4 0-.6-.1 0-1.8.2-3.6.3-5.4-.2 1.8-.4 3.5-.5 5.3-.5-.1-1-.2-1.6-.3.5.1 1 .3 1.6.5v1c0 1-.2 2.1-.2 3.1-.5-.2-1-.4-1.6-.6-.1 0-.3 0-.5-.1v-.5.5c-1.1-.3-2.1-.6-3.1-.8 1 .3 2 .6 3 1l-.6 3.3c-.7-.4-1.4-.7-2.2-1-1.6-.7-3.1-1.2-4.8-1.6q2.4.75 4.8 1.8c.7.3 1.4.7 2.1 1.1v.5c-.2.8-.4 1.6-.5 2.5 0 .2 0 .4-.1.5h-.3c0-.1-.1 0 0 0l.2.2v.1c0 .4-.1.9-.2 1.3.1-.4.2-.8.3-1.1.1 0 .3.1.4 0h.1v-.1c0-.2-.2-.3-.3-.3h-.1c0-.2 0-.5.1-.7.1-.8.3-1.6.4-2.4v-.4c.4.2.7.4 1 .5.3.2.6.3.9.4-.2-.3-.5-.5-.8-.6-.4-.2-.7-.4-1.1-.6l.5-3.3c.1 0 .2 0 .4.1.5.2 1.1.4 1.6.6-.1.9-.1 1.8 0 2.8 0 .1.2 0 .2 0 .2-.8.2-1.7.2-2.6.4.2.8.3 1.2.4 0 0 .1 0 .1-.1-.4-.3-.8-.5-1.3-.6 0-1.1.1-2.2.2-3.3v-.9c.2 0 .3.1.5.2.7.2 1.4.4 2.2.5v2.2s0 .1.1.1c0 0 .1 0 .1-.1v-2.3Zm-7.4 14.4c-.4-.4-.9-.7-1.4-.8-.4-.2-.9-.4-1.3-.6.3-.9.5-1.9.7-2.9-.2 1-.4 1.9-.7 2.9-.4-.2-.9-.4-1.3-.5-2.8-1.1-5.5-2.7-8.5-3.1 2.9.5 5.6 2.2 8.3 3.3.5.2.9.4 1.4.6-.2.5-.3 1-.5 1.5l.6-1.5c.5.2.9.5 1.3.7.3.2.9.8 1.4.7 0 0 .1 0 .1-.1ZM179.1 243h-.1c.8 8.7.6 17.4.8 26.1.9-8.6.2-17.5-.8-26.1Zm3.6 22.6c0-2.1 0-4.2-.1-6.4-.2-4.2-.5-8.4-1.1-12.6q-.45-3.6-1.2-7.2c1.4 8.3 2 16.8 1.9 25.2v3.5c0 1.2-.2 2.5-.2 3.7 0 .4.6.5.7 0 .2-2.1.3-4.2.2-6.3Zm1.6 8.3c0 .8.2 1.5.3 2.3 0-.8-.2-1.5-.3-2.3m-75.8-33.7c-1.7-1.7-3.5-3.3-5.3-4.8s-3.6-2.9-5.5-4.3c1.8 1.5 3.6 3.1 5.4 4.6s3.5 3.1 5.3 4.5c0 0 .1 0 0 0Zm6.7 1.9c-1-1.1-2.1-2.2-3.3-3.1-1.1-1-2.3-2-3.4-3l-6.8-6c2.3 2.1 4.5 4.2 6.8 6.3 1.1 1 2.2 2.1 3.4 3.1 1.1 1 2.2 2 3.4 2.9 0 0 .1 0 0-.1Zm4.6.3c-.9-.9-1.8-1.7-2.8-2.5-1-.9-1.9-1.7-2.8-2.6-1.8-1.8-3.6-3.6-5.2-5.5 1.6 2 3.3 3.9 5.1 5.8.9.9 1.8 1.7 2.7 2.6s1.9 1.7 2.9 2.4h.1v-.1Zm-.2-3.5c-1.3-1.4-2.6-2.7-4-4.1 0 0-.1 0 0 0l3.9 4.1c1.3 1.4 2.5 2.8 4 4.1-1.2-1.5-2.6-2.8-3.9-4.1m7.8 4.3c-2.2-2.2-4.6-4.3-6.9-6.3q3.3 3.3 6.9 6.3m2-1.8c-.6-.5-1.2-.9-1.8-1.3.6.4 1.2.8 1.7 1.3l1.5 1.5c-.5-.6-1-1.1-1.5-1.6Zm6.1 3.9c-.1-.1-.3-.2-.4-.3l-.4-.3c-.3-.2-.6-.3-.9-.5l.9.5.4.3c.1 0 .3.2.5.2Zm6.2 3.3c-.5-.5-1.1-.9-1.7-1.3s-1.2-.7-1.9-1c1.2.7 2.4 1.5 3.5 2.3Zm-21.5-45.7c1.5 1.2 3.1 2.4 4.6 3.6-1.5-1.2-3.1-2.4-4.6-3.6m9.4 3.7c-1-1-2-1.9-3-2.8-2-1.8-4.1-3.4-6.4-5q3.3 2.4 6.3 5.1c1 .9 1.9 1.8 2.9 2.7l1.4 1.4c.5.5.9 1 1.4 1.5 0 0 .1 0 0 0-.8-1-1.7-2-2.7-2.9Zm2.6-.6c-1.2-1.4-2.5-2.8-3.7-4.2 1.2 1.4 2.4 2.9 3.6 4.3s2.4 2.8 3.7 4.2c-1.1-1.5-2.4-2.9-3.6-4.3m2.8 0c1.3 1.3 2.5 2.6 3.8 3.8-1.2-1.3-2.5-2.6-3.8-3.8m6.4 4.3c.5.5 1 1 1.6 1.5l-1.5-1.5Zm-23.5 58c-3.9-2.6-7.8-5-11.7-7.4 3.9 2.5 7.8 5 11.7 7.4m8.3 1.1c-2.3-1.4-4.8-2.6-7.1-3.9-2.4-1.3-4.7-2.7-7-4.1 2.3 1.4 4.6 2.9 7 4.2 2.3 1.4 4.7 2.7 7.2 3.8Zm6 .6c-3.6-2.2-7.3-4.2-11-6.3 3.7 2.1 7.3 4.3 11 6.3m6.2.5c-2.3-1.4-4.8-2.7-7.2-4 0 0-.1 0 0 0 2.4 1.3 4.8 2.7 7.2 3.9Zm3.8.3c-1.1-.7-2.3-1.3-3.6-1.7 1.3.4 2.5 1 3.6 1.7m6.1 0c-1.2-.1-2.4-.5-3.5-1.1 1.1.7 2.3 1.1 3.5 1.2Zm3.8-1.6c-.3 0-.5-.2-.8-.3l.8.2ZM89.4 138.3c1.6 3.3 3.5 6.5 5.2 9.8h.1c-1.4-3.4-3.2-6.7-5.2-9.8Zm7.1 7.1-3.3-6.9c1 2.3 2 4.6 3.1 6.8 1 2.3 2 4.6 3.2 6.7-.9-2.3-1.9-4.5-3-6.7Zm.6-4c1.5 4 3.3 7.9 5.4 11.6-1.9-3.8-3.8-7.6-5.4-11.6m4 4.8c1.1 2.7 2.5 5.3 4.1 7.7-1.5-2.5-2.9-5-4.1-7.7m4.1 4.1c1.2 1.7 2.4 3.5 3.8 5.2-1.2-1.8-2.5-3.5-3.8-5.2m8.4 6.9c-1.4-1.3-2.8-2.7-4.1-4.1 1.2 1.5 2.6 2.9 4.1 4.1m-25.7-2.4s-.1 0 0 0c2.8 3.4 5.7 6.7 8.8 9.8-2.9-3.3-5.9-6.5-8.8-9.8m17.9 15.8c-2.6-2.5-5.2-4.8-7.6-7.5-2.5-2.7-4.7-5.5-6.9-8.4 2 3 4.2 5.8 6.6 8.5s5 5.2 7.9 7.4m3.7.7c-.9-1-1.9-1.9-2.9-2.8s-1.9-1.9-2.8-2.8c-1.9-1.9-3.7-3.9-5.4-5.9q2.55 3 5.4 6c.9.9 1.8 1.9 2.8 2.8 1 1 2 1.9 3 2.8Zm3.6.5c-.6-.6-1.2-1.2-1.9-1.8s-1.3-1.2-2-1.8c-1.3-1.2-2.6-2.5-3.8-3.7 1.2 1.3 2.5 2.6 3.8 3.9.6.6 1.3 1.2 1.9 1.8s1.3 1.2 2 1.7Zm3.2.3c-.9-.7-1.9-1.4-2.7-2.1-.9-.7-1.8-1.5-2.6-2.3 1.5 1.8 3.3 3.3 5.3 4.4m.3-1.8c1 .4 1.9 1.1 2.7 1.9-.7-.8-1.7-1.4-2.7-1.9m-26.8-52.1c-2.3-1.3-4.8-2.2-7.4-2.8 2.5.7 5 1.7 7.4 2.8m3.4-.9c-2.6-1-5.3-1.9-7.9-2.8 2.6 1 5.2 2 7.9 2.8m.5-2.3c-.6 0-1.2-.2-1.7-.4-.6-.2-1.1-.5-1.6-.8.5.3 1 .6 1.6.8q.9.3 1.8.3Zm62.8 30.2c-.8-.7-1.7-1.2-2.6-1.8s-1.9-1.2-2.8-1.9c-1.9-1.3-3.7-2.5-5.5-3.8l5.4 3.9 2.7 1.8c.9.7 1.9 1.2 2.8 1.8m.5-2.3c-1.2-1-2.5-1.9-3.8-2.8s-2.6-1.9-3.9-2.8c-2.7-1.9-5.3-3.8-8-5.7 0 0-.1 0 0 .1l7.8 5.7c1.3.9 2.6 1.8 3.8 2.8 1.3 1 2.7 2 4.1 2.8Zm1.5-1.5c-1.4-1.2-2.9-2.3-4.4-3.5-1.6-1.2-3.2-2.4-4.8-3.5-3.2-2.3-6.4-4.6-9.6-6.7 3.2 2.2 6.3 4.5 9.4 6.8 1.6 1.1 3.1 2.3 4.7 3.5 1.5 1.2 3 2.4 4.6 3.5Zm-3.4-5.6c-3.6-2.6-7.3-5.2-10.9-7.7 3.6 2.6 7.3 5.2 10.9 7.7m24.3 40.8c-1.1-.4-2.2-.8-3.3-1.3s-2.1-1.1-3-1.7c1.9 1.5 4.1 2.5 6.4 3.1Zm-17.3 10.8c-.8-.7-1.6-1.3-2.5-1.9l-2.7-2.1c-1.8-1.4-3.6-2.7-5.3-4.1 1.8 1.4 3.5 2.8 5.3 4.1.9.7 1.7 1.4 2.6 2 .8.7 1.7 1.4 2.6 2m.8-1.6-.7-.6c-.5-.4-1-.8-1.5-1.3l-3-2.5c1 .8 1.9 1.7 2.9 2.5.5.4 1 .8 1.4 1.2l.7.6c.2.2.5.4.7.6l-.6-.6Zm4.2.3c-.7-.5-1.5-.9-2.3-1.4s-1.5-1-2.3-1.5c.7.5 1.5 1 2.2 1.5s1.5 1 2.3 1.4Zm-38-95.5c1.4.7 2.7 1.5 4.1 2.2-1.4-.7-2.7-1.5-4.1-2.2m31.7-12c1.3 1 2.7 1.9 4.1 2.8-1.4-.8-2.8-1.7-4.1-2.7Zm-25.3 63.3c-.5-.8-1.1-1.5-1.6-2.2-1.1-1.4-2.2-2.8-3.4-4.2 1.2 1.4 2.4 2.9 3.5 4.4.5.7 1.1 1.5 1.6 2.2s.9 1.5 1.5 2.2c-.5-.8-1-1.6-1.5-2.3Zm6.4 7.2s-.2-.2-.3-.2c0 0-.2-.2-.3-.2-.2-.2-.4-.3-.5-.5-.3-.4-.6-.7-.9-1.1l.9 1.2c.2.2.3.4.5.5 0 0 .2.1.3.2 0 0 .2.2.3.2Zm68 128.6c-2.6-1.6-5.3-2.9-8.2-3.8 2.8 1 5.6 2.3 8.2 3.8m2.7-7.6c-1.8-.9-3.7-1.7-5.6-2.5 1.9.9 3.7 1.8 5.6 2.5m13.6-17.5h-.5c-.2 0-.3 0-.5-.1h-.1v.1l.5.2h.6v-.1Zm2.8-3.3c0-.1-.2 0-.3 0s-.2 0-.3.1l-.6.3s-.1.2 0 .3c0 0 .2.1.3 0l.6-.3s.2-.1.3-.2c0 0 .2-.1.2-.2Zm-41.3 46.6c-.5-2.4-1.1-4.7-1.7-7 .7.7 1.4 1.5 2.2 2.2-.7-.8-1.4-1.5-2.2-2.3h-.1c-.3-1.1-.5-2.1-.8-3.1.2.9.4 1.8.7 2.7-.6-.6-1.2-1.3-1.9-1.9 0 0-.1 0 0 0 .7.7 1.3 1.4 2 2.1.6 2.4 1.1 4.8 1.6 7.3.7 3.4 1.1 6.9 2 10.3-.3-3.5-.9-6.9-1.8-10.3m-4.7-6.7 3.3 3.3zm-20.2 10.4c-.4-.9-1.2-1.6-2.1-2l.2.2v5.8c-.4 1.3-.8 2.6-1.3 3.9 0-3.1.1-6.1 0-9.2-.1 3.1 0 6.3 0 9.4-.3.9-.6 1.8-.9 2.6-1.7 4.7-3.5 9.4-5.2 14.1-1 2.7-2 5.3-2.9 8 0 0 .1.1.1 0 2.1-4.9 4.1-9.8 6.1-14.7 1-2.5 2.1-5.1 3.1-7.6 1-2.4 2.3-4.7 3.2-7.2.5-1.2.5-2.5 0-3.6Zm-1.3.6c0 .5-.2 1-.2 1.4v-1.7c0-.6-.2-1.3-.2-1.9.2.3.4.6.5.9.1.4.2.8 0 1.3Zm13.9 1.5c0-.3-.3-.4-.6-.4-2.2 1-4 2.6-5.3 4.6-.8 1-1.5 2.1-1.9 3.3-.2.6-.3 1.1-.5 1.7s-.5 1.2-.7 1.8c-1.1 3.1-2.2 6.1-3.3 9.2-1.2 3.1-2.4 6.3-3.7 9.4-1.4 3.5-2.8 6.9-4.1 10.4 2.5-5.9 4.7-11.9 7.1-17.8 1.3-3 2.5-6.1 3.9-9.1.5-1 .9-2.1 1.4-3.1 0 1.7-.2 3.4-.3 5.2 0 1.2-.1 2.5-.2 3.7 0 1.2-.1 2.5 0 3.7.1-1.2.2-2.3.2-3.5l.2-3.8c0-1.8.1-3.6.2-5.5 0-.1 0-.2.1-.3.3-.5.6-1 1-1.5.3-.4.5-.9.7-1.4-.2 1.9-.3 3.7-.3 5.6-.1 2.6-.2 5.2 0 7.8-.2.6-.4 1.3-.6 1.9 0 .1.1.2.2 0 2.4-5.9 4.3-11.8 6.1-17.9l-.3.9c.3-1.4.4-2.7.3-4.1.3.3.5.7.8 1-.1-.6-.2-1.3-.3-1.9Zm-4.1 8.9v5.1c-.7 1.9-1.3 3.8-1.9 5.8 0-2.5 0-5 .2-7.5 0-2 .2-4 .3-6 .4-.9 1-1.7 1.5-2.5v5.1Zm1.5.5c-.5 1.2-.9 2.4-1.3 3.7.2-3.2.3-6.4 0-9.6.1-.2.3-.3.4-.5.3-.4.7-.7 1.1-1 0 2.5-.2 5-.3 7.5Zm1.6-4.1c-.4 1.1-.8 2.2-1.2 3.2.3-2.2.3-4.5.1-6.8.4-.4.9-.7 1.4-1 0 1.5-.2 3-.3 4.5Zm-7.3 19.8v2z" class="st0"/><path fill="currentColor" d="M165.7 317.7c-.2 2.2-.4 4.5-.5 6.7s-.1 4.5 0 6.7v-6.7c0-2.2.2-4.5.4-6.7Zm-2 4.1c-.3 2.3-.4 4.6-.6 6.9-.1 2.3-.2 4.6 0 6.9.2-2.3.2-4.6.3-6.9s.2-4.6.4-6.9Zm-2.1 7.2c-.5 3.6-.7 7.1-.8 10.7.2-3.6.4-7.2.8-10.7m-2.7 9.7c-.2.7-.3 1.4-.5 2.1.2-.7.3-1.4.5-2.1m-1.3-37.6c-.3 3.2-.4 6.5-.2 9.7 0-3.2 0-6.5.2-9.7m-2.3 5.9c-.3 2.8-.5 5.7-.8 8.5.3-2.8.6-5.7.8-8.5h-.1Zm-74.1-13.1c-.4 5.1-.5 10.2-.1 15.3-.2-5.1-.1-10.2.1-15.3m-4 12.6v-6.2c0-2.1 0-4.3.2-6.4-.2 2.1-.3 4.2-.5 6.3-.1 2.1-.4 4.2-.4 6.3 0 .5.1 1 .2 1.5v7.9c0 1 0 2 .2 3h.1q.3-1.5 0-3v-7.8c0-.6.2-1.1.2-1.6m-3.7 12.8c0-.8-.1-1.6-.2-2.5V301v15.7c0 .9 0 1.7-.2 2.6-.2.8-.1 1.7 0 2.5 0 .1.2.2.3.2 0 0 .1 0 .2-.2.2-.8.2-1.7 0-2.5Zm-4.3.4v-3c0-2 0-4 .2-6-.2 2-.3 4.1-.3 6.1v3c-.1.9 0 1.8 0 2.7h.2c.2-.9-.2-1.9-.3-2.8Zm-3.2-1.8v3.9zm124.4-31.5c.4 2.5.9 5 1.6 7.5-.5-2.5-1.1-5-1.6-7.5m-.6 7.2c-.5-2.5-1.1-5.1-1.6-7.6.5 2.5.9 5 1.4 7.5s.8 5 1.4 7.5c0 0 .1 0 0 0-.3-2.5-.7-5-1.2-7.4m-3.8 9.2-2.1-9.6c.6 3.2 1.2 6.4 1.9 9.6.5 3.2 1.2 6.4 2.1 9.5-.4-3.2-1.1-6.3-1.8-9.4Zm-1.4 8.2c-.5-2.3-.9-4.7-1.2-7.1.1 2.4.4 4.7.9 7 .4 2.3 1 4.6 1.9 6.8h.1c-.4-2.3-1.2-4.5-1.7-6.8Zm-2.5.9c.6 3.1 1.1 6.2 1.9 9.2-.5-3.1-1.2-6.1-1.9-9.2m-1.6 7c.5 2.2.9 4.3 1.6 6.5-.4-2.2-1-4.3-1.6-6.5m-2.2 5.8c-.2-.7-.5-1.4-.8-2.1l.6 2.1.6 2.1c0-.7-.2-1.5-.4-2.2Zm1.1 5c-.2-.4-.3-.9-.5-1.3h-.1c.1.4.3.9.4 1.3s.3.9.5 1.2c0-.4-.2-.9-.4-1.3Zm-3.4-4c.3 1.6.7 3.3 1.1 4.9s.7 3.3 1.2 4.8h.1c-.4-3.3-1.2-6.6-2.4-9.7m-.7 9.1-1.8-6.9 1.5 6.9c.5 2.3 1.1 4.6 1.9 6.9-.3-2.3-1.1-4.6-1.6-6.9m-4.2-2.6c1.3 5.1 2.3 10.3 3.7 15.4h.1c-.8-5.2-2.1-10.3-3.8-15.4m-.1 11.5c-.6-2.8-1.3-5.7-2-8.5.5 2.9 1.1 5.7 1.7 8.6.6 2.8 1.2 5.7 2.1 8.5-.5-2.9-1.2-5.7-1.9-8.5Zm-2.6 6.5c-.6-3.1-1.2-6.2-1.8-9.4h-.1c.5 3.2 1 6.3 1.6 9.4.5 3.1 1.2 6.2 2.2 9.3-.5-3.1-1.3-6.2-2-9.3Zm-2.8 6.8c-.7-3.5-1.4-6.9-2.2-10.3.6 3.5 1.3 6.9 1.9 10.4s1.2 6.9 2 10.4h.1c-.5-3.5-1.2-7-1.9-10.4Zm-1.6 13.9c-.2-1-.3-2-.5-2.9-.4-2.1-.8-4.2-1-6.3 0-.5 0-1-.1-1.5 0-.4-.1-.9-.3-1.3-.3-1-.4-2.1-.6-3.2-.4-2-.8-4-1.3-6.1.3 2 .5 4 .9 5.9.2 1 .4 2.1.5 3.2 0 .5 0 1 .2 1.5s.3.9.4 1.4c.5 2 .8 4.1 1.1 6.1.2 1 .3 2 .5 2.9.1 1.1.3 2.1.5 3.2h.1v-.1c0-1-.3-2-.5-3Zm-1.1 11.5c-.1-.6-.2-1.1-.3-1.7-.2-1.1-.4-2.3-.7-3.4-.2-.6-.4-1.1-.6-1.6-.2-.6-.3-1.1-.4-1.7l-.6-3.3c-.9-4.5-1.5-9.1-2.6-13.6 0 0-.1 0 0 0 .7 4.6 1.7 9.1 2.5 13.6l.6 3.3c.1.6.2 1.3.3 1.9v1.7c.1 1.1.4 2.2.6 3.3.1.6.2 1.1.3 1.7 0 .4.1.7.5.8h.2c.3-.3.2-.6.1-1Zm-5.2 3.4c-.2-1.2-.4-2.4-.7-3.6-.4-2.3-.9-4.7-1.2-7.1-.2-1.3-.3-2.6-.2-3.9 0-1.1-.2-2.2-.4-3.3-.4-2.4-.8-4.8-1.3-7.3.1 2.5.4 4.9.6 7.4 0 .6 0 1.1.1 1.7 0 .5.2 1.1.3 1.6.4 1.2.6 2.4.8 3.6.4 2.4.7 4.7 1 7.1.2 1.2.4 2.4.6 3.7 0 .6.2 1.1.3 1.7 0 .7.2 1.3.4 1.9 0 0 .1.1.2.1 0 0 .1 0 .1-.2 0-1.2-.3-2.3-.6-3.5Zm-1.5 10.7c0-.6-.2-1.1-.3-1.7-.2-1.1-.5-2.3-.8-3.4-.6-2.3-1.1-4.5-1.6-6.8l-1.2-6.9c-.2-2.2-.7-4.5-1.5-6.6 0 1.1.1 2.2.4 3.3.2 1.1.5 2.3.7 3.4.5 2.2 1 4.4 1.5 6.7.4 2.3.8 4.5 1.1 6.8.2 1.2.3 2.3.5 3.5.1.6.2 1.2.3 1.7 0 .4.2.8.5 1h.2c.2-.3.3-.6.2-.9Zm-8-14.8h-.1v.1c.5 2.2 1.2 4.4 1.7 6.7-.3-2.3-.9-4.5-1.6-6.7Zm5.7 22c-.2-.8-.5-1.7-.8-2.5-.5-1.7-1-3.3-1.5-5 .4 1.6.7 3.2 1.1 4.8.1.8.3 1.6.5 2.3s.4 1.5.4 2.3c.3-.6.4-1.3.2-1.9Zm-6.1-4.7c-.2-.9-.5-1.7-.7-2.6-.5-1.8-1-3.5-1.6-5.3.5 1.7 1 3.5 1.4 5.3.2.9.3 1.8.4 2.7.2.9.4 1.8.7 2.6 0-.9 0-1.8-.2-2.7m2.3 10.9c-.3-1.2-.6-2.5-.9-3.7 0-.2-.3 0-.2 0 .3 1.2.5 2.4.8 3.7q.3 1.8.9 3.6s.1 0 0 0c-.1-1.2-.4-2.4-.7-3.6Zm-3.4 8.5c-.6-2.2-1.1-4.4-1.7-6.6-1.1-4.5-2.2-8.9-3.4-13.3 1 4.5 2.1 8.9 3.1 13.3.5 2.2 1.1 4.3 1.6 6.5.5 2.3 1.1 4.5 1.8 6.7h.1q-.6-3.3-1.5-6.6m-4.6 3.9c-1.2-4-2.3-8.1-3.3-12.2.8 4.2 1.8 8.3 2.9 12.4 1 4.1 2.2 8.1 3.8 11.9 0 .1.2 0 .2 0-1-4.1-2.4-8.1-3.6-12.1m-.6 20c-.2-.6-.3-1.1-.5-1.7-.4-1.2-.8-2.4-1.1-3.5-.8-2.4-1.4-4.8-1.8-7.3q-.3-1.65-.9-3.3c-.3-1.2-.6-2.4-1-3.6-.6-2.4-1.3-4.8-1.9-7.2.5 2.4 1.1 4.8 1.7 7.2l.9 3.6c.2 1.1.4 2.2.8 3.3.9 2.3 1.5 4.7 2 7.2.3 1.2.5 2.4.8 3.6.1.6.2 1.1.4 1.7 0 .5.3 1.1.6 1.5.1.1.3.1.4 0v-.1c0-.5 0-1.1-.3-1.6Zm-3.9 7c-.3-1.2-.7-2.3-1-3.5-.7-2.2-1.3-4.5-1.9-6.7s-1.2-4.5-1.9-6.7c-.3-1.2-.7-2.3-1-3.5-.3-1.1-.7-2.2-1.3-3.2h-.2q.3 1.65.9 3.3c.4 1.2.8 2.3 1.2 3.4.8 2.2 1.5 4.4 2.1 6.7.6 2.2 1.2 4.5 1.7 6.8.3 1.2.5 2.4.7 3.6q.15 1.8.9 3.3c0 .1.2.2.3 0 0 0 .1-.1.1-.2 0-1.2-.2-2.3-.7-3.4Zm-10.8-16c1.3 3.8 2.5 7.5 3.8 11.3-1-3.8-2.3-7.6-3.9-11.3Zm9.3 26.5c-.3-1.1-.8-2.2-1.2-3.3-.8-2.2-1.5-4.4-2.3-6.6h-.1c.5 1.9 1.1 3.7 1.6 5.6.3.9.5 1.8.8 2.7 0 .2.8 2.6.8 2.6v.2c.7 0 .4-.9.3-1.2Zm-4.6 2.6c-.6-2-1.3-4-2-5.9-1.4-3.9-2.8-7.9-4.3-11.8l3.9 12c.6 2 1.2 4 1.9 6 .6 2 1.3 3.9 2.1 5.8h.1c-.4-2.1-.9-4.1-1.6-6Zm-2.6 12.2c-.3-.9-.6-1.9-.9-2.8-.6-1.9-1.3-3.8-2-5.8-1.3-3.9-2.7-7.7-4.2-11.5 1.3 3.8 2.6 7.7 3.8 11.6.6 1.9 1.1 3.9 1.7 5.9.3.9.6 1.9.8 2.8.2 1 .6 1.9 1.1 2.8 0 0 .2.1.2 0v-.1c0-1-.2-2-.6-2.9Zm-10.3-10.8c.7 2.5 1.5 4.9 2.6 7.2-.9-2.4-1.9-4.7-2.6-7.2m4.5 12.2c-.2-.5-.4-1-.5-1.5 0-.1-.3 0-.2 0 .2.5.3 1 .5 1.6.1.5.4 1 .6 1.5-.1-.5-.3-1-.5-1.5ZM196 117.5l-.6-.6c-.4-.3-.8-.6-1.3-.9 0 0-.1 0 0 0 .4.3.8.7 1.1 1 .2.2.3.4.5.6s.4.4.6.5c0-.3-.2-.5-.4-.7Zm0-2.4c-.1-.1-.2-.2-.4-.3-.1 0-.3-.2-.4-.3-.1 0-.3-.2-.4-.2.1 0 .2.2.3.3l.3.3.3.3.2.2s.1 0 .2.1c0-.1-.1-.3-.3-.4Zm.3-1.8c-.1 0-.2-.2-.4-.2-.1 0-.3-.1-.4-.2l.4.2c.1 0 .3.1.4.2m79.2 25c-.2-.3-.3-.5-.5-.8zc.2.3.3.5.5.8-.2-.3-.3-.6-.5-.8m423.8 715.6c.2-.3.3-.6.5-.9.2-.5.4-1.1.5-1.6v-.7c-.3 1.1-.7 2.2-1 3.3Zm-5.1 8.6.2-.2h.1l1.2-.9c.5-1.2 1.1-2.4 1.7-3.6-.8.6-1.5 1.3-2 2.1s-.9 1.7-1.3 2.5v.2h.2Zm-2.5 2.5s.1 0 .2-.1c-.2 1.1-.5 2.2-.7 3.3l.6-1.5c0-.1.1-.2.2-.3 0-.5.2-1.1.3-1.6 0 0 .2-.1.3-.2l.2-.2s.2-.1.2-.2c0 0 .2-.1.3-.2 0 0 0-.1 0 0 0 0-.2.1-.3.2 0 0-.2 0-.3.1 0 0-.2 0-.2.1.2-1.4.4-2.9.6-4.3l-.9 4.5s-.2.1-.3.2zc-.2.1-.3.3-.5.4v.1c.2 0 .4-.2.6-.3Zm289.8-.1c0 .5.2.9.3 1.4 0 .1.1.2.2.3l.6 1.5c-.3-1.1-.5-2.2-.7-3.3h-.3Zm-2.7-11.9c.7 2.7 1.7 5.4 2.8 8-1.2-2.6-2.1-5.2-2.7-8Zm16.5 21.4c1 3.4 2.1 6.8 3.2 10.2s2.4 6.7 3.4 10.1c0 0 0 .1-.1 0-1.4-3.2-2.5-6.6-3.5-9.9-1.1-3.4-2.1-6.9-3.1-10.3Zm-952-539.3s-.1 0 0 0c1.7 2.9 3.7 5.5 6 7.9.7.7 1.5 1.4 2.2 2.1.1-.3.3-.7.4-1-.4-.3-.8-.6-1.1-1-2.8-2.4-5.3-5.1-7.4-8.1Z" class="st0"/><path fill="currentColor" d="M46.1 354.3c.4.3.8.7 1.2 1 .8-1.9 1.6-3.7 2.3-5.6.3-.7.6-1.5.9-2.2-.3-.3-.7-.5-1-.8-.3-.2-.6-.4-.9-.7-.5-.4-.9-.9-1.4-1.3-2.3-2-4.4-4.2-6.4-6.6-1-1.3-1.8-2.6-2.7-4-.8-1.3-1.6-2.7-2.3-4.1-.4-.7-.7-1.5-1-2.2-.1-.3-.3-.7-.4-1-.1-.4-.1-.9-.3-1.3-.6-1.4-1.4-2.8-2.1-4.2-2.9-6.1-5.4-12.6-7.7-19-1.3-3.6-2.6-7.3-3.8-11-1-3.2-1.9-6.5-3.1-9.6-.6-2.7-1.2-5.4-1.6-8.1-.7-4.4-.9-8.9-.5-13.3.2-2.2.6-4.4 1.2-6.5.3-1.3.6-2.5 1-3.7 1.3-2.4 2.9-4.7 4.8-6.7 2.2-2.3 4.9-4 7.9-5.1 3.1-1 6.2-1.6 9.4-2 3.6-.4 7.2-.8 10.8-1.1 7.2-.6 14.5-1 21.8-1 0-.5 0-1 .1-1.4v-.8c-4.2 0-8.3 0-12.5.3-7.4.4-14.9 1-22.3 2q-4.95.6-9.6 2.4c-3 1.3-5.7 3.2-7.9 5.7-8.8 9.9-11.2 24.3-9.9 37.1.8 7.2 2.5 14.3 4.9 21.1 2.4 6.9 5.2 13.7 8.2 20.4 5.5 12.3 12.4 24.5 22.7 33.4Zm-16.6-25.9c1.7 3.1 3.4 6.2 5.2 9.3-1.9-3-3.7-6.1-5.3-9.2Zm10.3 13.9c-.6-.6-1.1-1.3-1.6-2-.6-.9-1.2-1.7-1.8-2.6-1.1-1.7-2.1-3.5-3.1-5.2-1.9-3.6-3.7-7.2-5.2-11q-1.35-2.7-1.5-5.7c0-.9.1-1.7.1-2.6.9 2.4 1.9 4.8 2.9 7.1.6 1.5 1.2 3 1.9 4.5.3.8.6 1.5 1.1 2.1s1 1.3 1.4 2.1c1.7 2.8 3.2 5.6 5 8.3 1.2 1.7 2.2 3.4 3.4 5.1h-.3c-.9.1-1.7.6-2.5 0Z" class="st0"/><path fill="currentColor" d="M72.4 236.4c-1 0-2 0-3 .1-4.1.2-8.1.4-12.2.4-1.2 0-2.4 0-3.5-.1s-2.2 0-3.3-.3c-1.2-.1-2.3 0-3.5.2-.5 0-1 .2-1.5.4s-1.1.3-1.6.4c-4.5.7-9 1.7-13.4 3.1 3.9-.9 7.9-1.6 11.9-2 1-.2 2-.3 3-.2.9.2 1.9.2 2.9 0 .5 0 1.1 0 1.6-.2.4 0 .8-.3 1.3-.4.9-.2 1.9-.4 2.9-.6 4-.7 8.1-.5 12.1-.4 2 0 4 .2 6 .3h.3v-1Zm232.9 5.9c-2.2-2.5-4.9-4.4-7.9-5.7q-4.65-1.8-9.6-2.4c-7.4-1-14.9-1.6-22.3-2-7.2-.4-14.3-.4-21.5 0-.3.8-.7 1.5-1.1 2.3q16.05-.9 32.1.6c3.6.3 7.2.7 10.8 1.1 3.2.3 6.4 1 9.4 2s5.7 2.8 7.9 5.1c1.9 2 3.5 4.3 4.8 6.7.4 1.2.7 2.5 1 3.7.5 2.2.9 4.3 1.2 6.5.3 3.7.2 7.5-.2 11.2-.6-.1-1.1-.2-1.7-.2-.8 0-1.5.2-2.3.4-1.5.4-3 1.1-4.4 1.9-2.7 1.8-5 4.1-7 6.6-4.5 5.4-8.5 11.2-12.2 17.1-3.9 6.1-7.7 12.3-11.4 18.5-1.8 3.1-3.7 6.3-5.5 9.4s-3.7 6.2-5.5 9.4c-1 1.7-2 3.5-3 5.2-1 1.8-1.8 3.8-2.7 5.7-.9 1.8-1.8 3.6-2.7 5.3-.5 1.1-1.2 2.1-1.7 3.2h-1.5c-1.7 0-3.4-.2-5-.6-1.5-.4-3.1-.6-4.6-1.2-.3-.3-.6-.5-.9-.8-8.7-7.9-15.2-18-20.9-28.2-3.2-5.6-6.2-11.4-9.3-17.1-1.1-2-2.1-4-3.2-6 .2-.3.5-.5.7-.8s.4-.6.5-.9c.3-.6.6-1.3.8-2s.4-1.4.7-2.1l.9-2.1c-.7 1.3-1.4 2.6-2.2 3.8-.4.6-.8 1.3-1.1 2-.2.3-.3.6-.4 1 0 .3 0 .7-.2 1-1.9-3.7-3.8-7.4-5.7-11.2-.3.5-.7.8-1.1 1.2l-.5.5 3 6c3.3 6.5 6.8 13 10.3 19.5 2.9 5.4 5.8 10.7 9 15.9 6.3 10.2 13.9 20.1 24.1 26.8 2.6 1.8 5.5 3.3 8.4 4.5 3.3 1.4 6.9 1.7 10.4.9 3.3-.9 6.5-2.3 9.4-4.1 2.8-1.7 5.4-3.5 7.8-5.7 10.4-8.9 17.2-21.1 22.7-33.4 3-6.7 5.8-13.5 8.2-20.4 2.4-6.8 4.1-13.9 4.9-21.1 1.3-12.8-1.1-27.2-9.9-37.1ZM252 359.7c-2-.4-3.8-1.2-5.6-2.2.8.2 1.6.3 2.3.4 1.8.1 3.6 0 5.4 0 1.1 0 2.2.5 3 1.2-1.3 1.3-3.7.9-5.3.5Zm14-1.9c-.2 0-.4.2-.6.2-.3 0-.7.1-1 .2-.8.2-1.6-.3-1.8-1.1 0-.2-.1-.5-.1-.7.9-.2 1.7-.5 2.5-.8 2.7-1 5.3-2.3 7.7-3.8.1.5.4.9.7 1.2-2.2 2-4.7 3.6-7.4 4.7Zm8.1-5.8c-.2-.3-.3-.6-.2-.9.7-.5 1.3-1 2-1.5-.7.7-1.2 1.5-1.8 2.3Zm16.6-14.5c1.8-3 3.6-6.1 5.2-9.3-1.6 3.1-3.4 6.2-5.3 9.2Zm6.5-16c-1.5 3.8-3.2 7.4-5.2 11-1 1.8-2 3.5-3.1 5.2-.6.9-1.2 1.8-1.8 2.6-.4.7-.9 1.4-1.6 2-.8.6-1.6.2-2.5 0h-.3c1.2-1.7 2.3-3.4 3.4-5.1 1.8-2.7 3.4-5.5 5-8.3.4-.7.9-1.4 1.4-2.1.5-.6.8-1.3 1.1-2.1.6-1.5 1.2-3 1.9-4.5 1-2.4 2-4.7 2.9-7.1 0 .9 0 1.7.1 2.6 0 2-.6 3.9-1.5 5.7Zm12.3-48c-.4 2.7-1 5.4-1.6 8.1-1.2 3.1-2.1 6.4-3.1 9.6-1.2 3.7-2.4 7.3-3.8 11-2.3 6.4-4.8 12.8-7.7 19-.7 1.4-1.5 2.8-2.1 4.2-.2.4-.2.9-.3 1.3-.1.3-.3.7-.4 1-.3.8-.6 1.5-1 2.2-.7 1.4-1.5 2.8-2.3 4.1-.8 1.4-1.7 2.7-2.7 4-2 2.4-4.1 4.6-6.4 6.6-.5.4-.9.9-1.4 1.3-.3.2-.6.5-.9.7-.7.5-1.3 1-1.9 1.6-.8.6-1.7 1.3-2.6 1.8-2.4 1.6-5 2.8-7.8 3.8-.7.2-1.4.4-2.2.6l-.2-.2c-.4-.3-.9-.5-1.4-.5 3-1.1 5.9-2.6 8.6-4.3 2.8-1.8 5.5-3.9 7.8-6.3s4.3-5.1 6-7.9c0 0 0-.1 0 0-2.2 3-4.6 5.7-7.4 8.1-4.9 4.2-10.6 7.4-16.7 9.3-2.4.7-4.8 1.3-7.3 1.5.3-.8.7-1.5 1-2.3.8-1.5 1.6-3.1 2.4-4.6.9-1.6 1.8-3.2 2.7-4.7s1.7-3.1 2.5-4.7c1.6-3.1 3.2-6.3 4.9-9.4s3.5-6.3 5.3-9.3c3.6-6.1 7.2-12.2 11-18.2 3.7-6 7.6-11.8 11.9-17.4 2.2-3 4.8-5.7 7.8-7.9 1.5-1.1 3.1-2 4.8-2.6.8-.3 1.6-.5 2.5-.7.7-.2 1.4-.4 2.2-.5 0 .6-.2 1.2-.2 1.8Z" class="st0"/><path fill="currentColor" d="M218.5 273.7c-.2.3-.5.6-.8.8-1.1 1.9-2.2 3.7-3.3 5.5-.9 1.6-1.9 3-3 4.5-.7.7-1.2 1.4-1.7 2.2-.4.8-.7 1.6-1.1 2.4v.2h.2c.8-.6 1.6-1.3 2.3-2.1.5-.8 1-1.6 1.4-2.5 1-1.7 2.1-3.4 3.2-5.1 2-3.3 3.8-6.7 5.7-10-.8 1.4-1.8 2.8-2.8 4Zm76.5-33.1c-4.4-1.3-8.8-2.4-13.4-3.1-.6 0-1.1-.2-1.6-.4s-1-.3-1.5-.4c-1.1-.3-2.3-.3-3.5-.2-1.1.2-2.2.2-3.3.3-1.2.1-2.3.1-3.5.1-4.1 0-8.1-.2-12.2-.4-2-.1-4-.1-6-.2-1.9-.2-3.8-.2-5.8 0-1.7.4-3.2 1.4-4.2 2.9l-.9 1.2c-.9 1.5-1.7 3-2.6 4.5.6-.7 1.2-1.4 1.8-2.2 1.1-1.3 2.5-2.4 4-3.3s3.2-1.4 5-1.7c1.9-.2 3.9-.3 5.8-.3 2 0 4-.3 6-.3 4 0 8.1-.3 12.1.4 1 .2 1.9.3 2.9.6.4 0 .8.3 1.3.4.5 0 1.1.2 1.6.2h2.9c1 0 2 0 3 .2 4 .4 8 1 11.9 2Zm-72.1 306.9c-2.1-4.7-5-9-8.5-12.8-2-2.1-4.2-4-6.3-6s-4.4-3.7-6.9-5c-2.6-1.2-5.2-2.1-8-2.7-.8-.2-1.6-.4-2.5-.6-1.9-.4-3.9-.8-5.9-1.1-4.7-.7-9.4-1.2-14.2-1.5-9.5-.5-19.1-.2-28.5 1-2.5.3-5 .7-7.4 1.3-1.1.3-2.3.6-3.4 1.1-2.4.6-4.8 1.4-7 2.5-1.2.6-2.4 1.4-3.5 2.2-.2.7-.5 1.4-.7 2.2l-.6 1.8c.8-.7 1.7-1.4 2.6-2.1 4.3-3.3 10-4.6 15.2-5.6.6-.1 1.2-.2 1.9-.3 3.3-.4 6.5-.5 9.8-.6 1.7 0 3.5.1 5.2.2 1.7 0 3.5-.2 5.2-.6s3.5-.5 5.2-.4c.7 0 1.5.2 2.2.3 0 .2.2.3.3.3h1.1c.5 0 1.1.2 1.6.2q2.85.45 5.7-.3h.1c1.4 0 2.8 0 4.2.1 2.8.2 5.6.6 8.3 1.1 5.2 1 10.9 2.3 15.2 5.6 2.2 1.7 4.2 3.6 6.2 5.4s3.8 3.7 5.5 5.8c3.1 3.9 5.5 8.2 7.1 12.9 3.4 9.6 3.7 20 .7 29.7-2.9 9.8-8.9 19.3-17.8 24.7-4.7 2.8-9.7 4.8-15 6.2-2.7.8-5.4 1.3-8.2 1.8-1.2.2-2.4.3-3.6.5-.7-.3-1.4-.7-2.1-1.1h-.2c.4 0 .7 0 1.1-.1 3-.4 5.9-1.1 8.8-2.1 2.8-1 5.5-2.3 8.2-3.5-2.4.9-5 1.5-7.5 1.9-2.6.4-5.1.9-7.7 1.3-2.6.3-5.1.7-7.7.9q-3.9.3-7.8.3c-5.2 0-10.5-.3-15.7-.8-5.4-.4-10.8-1.3-16-2.6-5.3-1.5-10.7-4-14.5-8.1 3.2 3.7 7.2 6.5 11.8 8.3 5.2 2 10.7 3.3 16.2 4 3 .4 6 .8 8.9 1-.2.1-.4.3-.7.4-.7.3-1.5.4-2.2.3-3.6-.2-7.2-.6-10.8-1.1-1.1-.2-2.2-.3-3.3-.5-.6-.1-1.1-.3-1.7-.5-5.3-1.3-10.3-3.4-15-6.2-8.9-5.4-14.8-14.9-17.8-24.7 0-.2-.1-.5-.2-.7-.4 1.1-.9 2.2-1.3 3.2 1.1 3.2 2.5 6.4 4.2 9.3 2.7 4.7 6.2 8.9 10.4 12.4 4.5 3.3 9.5 5.9 14.8 7.6l3 .9s0 .1.2.2c1.8.7 3.7 1.3 5.6 1.7q3 .75 6 1.2c2 .3 4 .5 6 .7.5 0 1.1 0 1.7.1h.2c1.3.3 2.7.5 4 .6 1.2 0 2.4-.4 3.4-1 1-.5 2.2-.8 3.4-.8 1.8 0 3.6.5 5.5.7 1.4.8 3.4.4 5 .3 2-.1 4-.4 6-.7q3-.45 6-1.2c1.9-.4 3.8-1 5.6-1.7l.2-.2 3-.9c5.3-1.7 10.3-4.2 14.8-7.6 4.2-3.4 7.8-7.6 10.4-12.4 2.7-4.7 4.7-9.8 5.8-15.1 2.3-10.4 1.1-21.2-3.2-30.9ZM73 226.5c0-.5 0-1.1-.1-1.6-9.4.2-18.9.8-28.3 1.3-2.5.1-4.9.3-7.4.4-2.4 0-4.8.4-7.1 1-4.1 1.3-8 3.4-11.4 6-.8.6-1.6 1.4-2.4 2.1.9-.5 1.9-1 2.8-1.5.9-.6 1.9-1.2 2.8-1.8 1.8-1.2 3.8-2.1 5.8-2.8 4.5-1.5 9.4-1.3 14.1-1.5 9.7-.5 19.4-1.1 29.1-1.4h1.9v-.2Zm236.2 9.2c-.8-.7-1.5-1.5-2.4-2.1-3.4-2.7-7.3-4.7-11.4-6-2.3-.6-4.7-.9-7.1-1-2.5-.1-4.9-.3-7.4-.4-6.2-.3-12.4-.7-18.6-1-1.8-2.1-3.7-4.1-5.5-6.1-1.8-2.1-3.7-4.1-5.8-6 1.9 2 3.7 4.2 5.5 6.2 1.7 1.8 3.3 3.7 5 5.5 0 0 .1.2.2.2-.9 0-1.7 0-2.6-.1-.6-.7-1.2-1.4-1.9-2-.8-.8-1.6-1.6-2.3-2.4-1.5-1.6-2.9-3.3-4.4-4.9 1.2 1.8 2.6 3.5 4 5.2.7.8 1.5 1.6 2.2 2.4.6.6 1.2 1.2 1.9 1.8-1.1 0-2.3 0-3.4-.1 0 0-.2-.2-.3-.2l-.8-.8-1.6-1.6c-1-1.1-2-2.2-2.9-3.4.8 1.2 1.8 2.4 2.8 3.5.5.6 1 1.1 1.6 1.6.3.3.6.5.8.8h-3.2c-.1-.2-.3-.4-.4-.5-.3-.3-.5-.6-.8-.8l-.8-.8c-.2-.3-.5-.5-.8-.7q.15.45.6.9c.2.3.5.6.8.9.2.3.5.6.8.8 0 0 .2.2.3.2h-5.1c-.3.6-.6 1.3-.9 1.9h9.3c9.7.3 19.4.9 29.1 1.4 4.6.2 9.6 0 14.1 1.5 2 .7 4 1.6 5.8 2.8 1 .6 1.9 1.2 2.8 1.8s1.9 1 2.8 1.5M69.5 122.2c.4-1.1.8-2.2 1.4-3.2-4.5 3.5-8.6 7.5-12.2 11.9-4.1 5.1-8.6 9.8-13.4 14.2-.2.1 0 .4.2.3q6.75-5.1 12.6-11.1c3.7-3.6 7.2-7.5 11.1-10.9 0-.4.2-.8.3-1.1Zm75.8-56.8c.3.2.6.5.9.7 1.1.8 2.4 1.4 3.6 2 1.7 1 3.4 2 5 3.1 2.3 1.4 4.4 3 6.5 4.7.8 0 1.5 0 2.3.2.8 0 1.5-.2 2.3-.2-3.3-2.9-7-5.3-10.8-7.4-.8-.6-1.7-1.2-2.6-1.8-3.8-2.5-7.8-4.8-11.9-6.6-8.7-4-18.1-6.4-27.7-6.8-9.4-.3-18.7 1.1-27.5 4.2-8.4 2.9-16.3 7.1-23.5 12.4-3.5 2.5-6.9 5.3-10.1 8.3s-6.1 6.2-8.9 9.6c-.7.8-1.4 1.7-2.1 2.6 2.9-3.2 5.9-6.2 9-9.1 3.2-2.9 6.5-5.7 9.9-8.3 6.9-5.2 14.5-9.4 22.6-12.5 8.6-3.3 17.7-5.1 26.9-5.3 9.3 0 18.5 1.7 27.1 5.2 2.3.9 4.5 1.9 6.7 2.9-.7-.3-1.4-.5-2.2-.7-1.5-.7-3-1.3-4.5-1.9-4.2-1.5-8.6-2.7-13-3.4-8.8-1.5-17.9-1.5-26.7.2-2.5.5-5 1-7.4 1.7-1.2.3-2.4.7-3.5 1.1-1.2.4-2.3 1.1-3.4 1.6 0 0 0 .1 0 0 1.1-.3 2.2-.5 3.2-.8 1-.2 2.1-.6 3.1-.9 2.1-.6 4.2-1 6.4-1.4 13-2.1 26.3-1.2 39 2.6 2.3.7 4.7 1.5 6.9 2.4 1.5.6 2.9 1.2 4.4 1.8Zm10.6-.4c3.8 1.7 7.5 3.6 10.9 5.9 2 1.3 3.9 2.8 5.8 4.3h1.7c-1.7-1.5-3.5-2.8-5.4-4.1-4.1-2.6-8.4-4.7-13-6.2Z" class="st0"/><path fill="currentColor" d="M182.4 71.8c.2.5.5.9.7 1.4.6 0 1.2-.1 1.8-.2-4.9-10.5-12.6-19.6-22.2-26.1-10.2-7-21.9-11.5-34.1-13.4-12.2-1.8-24.7-1.1-36.6 2.2-5.9 1.6-11.6 3.8-17.1 6.5-5.4 2.8-10.5 6.1-15.2 10-1.1.9-2.3 1.9-3.4 2.9 4.6-3.9 9.7-7.3 15.1-10.1 5.3-2.8 10.9-5.1 16.7-6.9 11.5-3.4 23.6-4.5 35.5-3.4 12 1.2 23.6 4.9 34 11.1s19.3 15 24.8 25.8Zm19.2-3c.8 1.2 1.6 2.5 2.3 3.7.4 0 .8-.1 1.2-.2-3.2-5.5-7.3-10.6-12-14.9-4.7-4.1-9.7-7.9-15-11.2 4.5 3.2 8.8 6.7 12.8 10.4 4 3.6 7.6 7.7 10.7 12.1Zm-16.4-9.2c2.7 3.3 5 6.9 6.7 10.8.4.9.7 1.7 1.1 2.6h1.5c0-.2-.2-.4-.3-.7.2.2.3.4.5.7h.2c-.3-.3-.5-.7-.8-1-1.8-4.2-4.1-8.2-7-11.8-1.5-1.9-3.2-3.8-5.1-5.4-1.8-1.6-3.8-3-5.9-4.2 3.4 2.6 6.4 5.6 9.2 8.9Zm41 13h1.1c-1-4.8-2.6-9.4-4.8-13.7-3-5.7-6.9-10.8-11.5-15.3-5.1-5-11-9.2-17.4-12.4 11.3 5.7 20.6 14.7 26.8 25.7 2.7 4.9 4.6 10.1 5.8 15.6Zm15.8-20c-2.7-7.3-6.7-14-11.8-19.8C225 27 218.8 22 212 18.1c-.8-.5-1.7-1-2.5-1.4 6.7 3.9 12.8 8.7 18 14.4 5.2 5.6 9.4 12 12.4 19 2.8 6.7 4.2 14 3.9 21.3-.3 5.7-1.5 11.3-3.8 16.5 0 .4 0 .8.1 1.2v1.2c5.7-11.9 6.3-25.5 1.9-37.9Z" class="st0"/><path fill="currentColor" d="M251.4 50.8q-1.95-5.25-4.8-10.2c-1.9-3.4-4.2-6.6-6.8-9.4 3.6 5.7 7.1 11.4 9.5 17.7 2.4 6 3.8 12.4 4.2 18.9.4 6.1-.5 12.2-2.5 18-1.9 5.1-4.8 9.8-8.6 13.8l-.9.9c0 .7.1 1.3.2 2 .1-.1.3-.2.4-.4 4.1-3.8 7.3-8.5 9.5-13.6 5.2-12 4.3-25.7-.1-37.7Zm5.5-6.3" class="st0"/><path fill="currentColor" d="M262 66c-.6-6.3-2.4-12.4-5.4-18.1 2.2 5.1 3.6 10.5 4.2 16.1.6 5.4.3 10.9-.9 16.3-2.3 9.5-7.9 17.9-15.8 23.7-.7.5-1.5 1-2.3 1.5v1.3c.5-.3.9-.5 1.4-.8 4.1-2.6 7.7-5.9 10.6-9.8 6.4-8.7 9.3-19.5 8.3-30.2Z" class="st0"/><path fill="currentColor" d="M266.5 63.2c1.5 7.8 1.1 15.9-1.1 23.6-1.9 6.5-5.2 12.9-10.3 17.5-2.7 2.4-5.9 4.3-9.4 5.4 0 0-.1.1 0 .2 0 0 0 .1.2 0 1.7-.2 3.3-.7 4.9-1.3 1.5-.7 2.9-1.6 4.1-2.6 2.6-2.1 4.8-4.7 6.6-7.5 6.6-10.5 8.5-23.3 5.2-35.3Z" class="st0"/><path fill="currentColor" d="M341.7 144.1c-.6-2-1-4-1.1-6.1 0-.7 0-1.5-.1-2.3-.1-1-.3-2-.4-3-.1-.5-.3-1-.4-1.5 0 0 .2.2.3.2v-.4c-.1 0-.3-.2-.4-.3-.1-.4-.3-.9-.5-1.3-.3-.7-.5-1.3-.8-1.9-.2-.4-.4-.8-.6-1.1 0-4.9-.9-9.9-2.4-14.5-.9-2.7-2.1-5.4-3.5-7.9-.7-1.2-1.4-2.4-2.3-3.6-.4-.6-.9-1.2-1.3-1.8l-.1-.1c.2-4.4-.6-8.9-2.3-13-2.3-5.6-5.9-10.7-10.4-14.8-4.3-4-9.7-7.2-15.5-8.2q-2.4-.45-4.8-.3c.1-1.5-.4-3-1.4-4.2-1.5-1.5-3.6-2.4-5.7-2.5-2.2-.2-4.4 0-6.6.5-1 .3-2.1.6-3.1 1-.5.2-1 .5-1.4.8 0-1.4-.2-2.9-.4-4.3-.7-5.2-2.3-10.2-4.8-14.8-2.4-4.2-5.4-8-8.9-11.2-7.3-6.8-16.2-11.6-25.3-15.4-10.3-4.3-21.1-7.3-32.1-8.9-5.5-.8-11.1-1.3-16.7-1.5-5.6-.3-11.2 0-16.7 1-.3 0-.6.1-.9.2-4.9-1.2-9.9-2.1-14.9-2.5-10.1-.8-20.4 0-30.2 2.4-10.2 2.5-20.1 6.4-29.3 11.5-4.6 2.6-9 5.4-13.2 8.5-2.1 1.6-4.1 3.2-6.1 4.9-1 .8-1.9 1.6-2.7 2.6-16.3 7.3-29.8 19.6-38.5 35.1-2.9 5.3-5.4 10.8-7.6 16.4-.2-.1-.3-.2-.5-.4l-1.2-.9c-.8-.6-1.6-1.2-2.4-1.7.7.6 1.5 1.3 2.2 1.9.4.3.7.6 1.1.9.2.2.4.3.6.5-.8 2-1.6 4.1-2.4 6.1-3 7.9-5.6 15.8-7.9 23.9-1.1 4-2.1 8.1-3 12.2-.5 2.1-.9 4.1-1.3 6.2s-.7 4.2-1 6.2c-.2.9-.3 1.8-.4 2.7-1.3 3.6-3 7.4-6.4 9.4-.5.3-.6.9-.3 1.3.1.2.3.3.5.4 3.6 1.2 7.2 1.9 11 2.2-.3.3-.6.7-.8 1-.8 1.1-1.5 2.2-2.1 3.4-.4.8-.8 1.6-1.3 2.3 0 0-.1 0-.2-.1 0 0 0 .2-.1.3l.1.1c-.5 1-1.1 1.9-1.6 2.9 0 0-.1.2-.2.3-.1.3-.3.5-.4.8-.2.4-.3.7-.5 1.1-.7 1.8-1.3 4-2.7 5.3-.5 1-.9 2.1-1.2 3.1-.8 2.9-.8 5.9 0 8.7.7 2.6 1.8 5.1 3.2 7.4-.5 3.3-.7 6.7-.5 10 .2 2.3.6 4.5 1.2 6.7.5 1.6 1 3.1 1.7 4.6v.4c0 1.4.2 2.7.4 4.1.2 1 .6 1.9 1 2.8-.3 1.4-.4 2.9-.5 4.3v2.4c0 .8 0 1.6.3 2.3-.1.2-.2.3-.3.5-3.6 5.4-6.8 11-9.5 16.9q-1.95 4.5-2.7 9.3c-.4 3.4-.5 6.9-.2 10.3.6 6.7 1.6 13.3 3 19.9 2.7 13 6.7 25.7 11.9 37.9 4.9 11.5 10.8 22.8 18.6 32.7 1.1 1.5 2.4 2.9 3.6 4.2v1.8c0 .7.1 1.5.2 2.2.1 1.4.4 2.8.5 4.3l.9 7.5c.2-.6.5-1.1.7-1.7.3-.6.5-1.1.6-1.3.1-.3.2-.6.3-.8-.4-3-.9-5.9-1.6-8.9-.1-.5-.2-1-.4-1.6q2.25 2.4 4.8 4.5c.3-.8.6-1.5.8-2.2-1.4-1.2-2.8-2.5-4-3.8-8.3-8.6-14.4-19.2-19.6-29.9C15 317.1 10.5 305 7.4 292.5q-2.4-9.3-3.9-18.9c-1-6.5-2-13.3-1-19.9 1-6.4 4-12.1 7.3-17.6 3.1-5.3 6.2-10.8 10.4-15.3 7.8-8.3 19.2-11.3 30.2-12.4 2.3-.2 4.7-.4 7-.5.7 1.2 1.5 2.3 2.4 3.4 1.1 1.4 2.3 2.7 3.4 4.1 1.1 1.3 2.2 2.6 3.3 4 .6.7 1.1 1.5 1.7 2.3.5.7 1 1.4 1.6 2h.2v-.2c-.5-.7-1-1.4-1.6-2-.5-.6-1.1-1.3-1.6-1.9-1.2-1.5-2.3-2.9-3.3-4.4-1-1.4-2-2.7-3-4.1-.8-1.1-1.7-2.2-2.7-3.2 1.1 0 2.2 0 3.3-.1 1.5 2.3 3.1 4.6 4.9 6.7 1.1 1.4 2.1 2.7 3.2 4.1 1 1.3 2 2.6 3.2 3.8-.8-1.5-1.8-2.9-2.8-4.3s-2-2.7-3-4.1c-1.5-2.2-3.2-4.2-4.9-6.2h2.7c.4.5.9 1 1.3 1.4.7.8 1.4 1.7 2.1 2.5s1.3 1.7 2 2.6l.9 1.2c.2.2.3.4.5.6l.6.6s.2 0 .2-.1c-.1-.3-.2-.5-.3-.8-.1-.2-.2-.5-.4-.7-.3-.4-.6-.9-.9-1.3-.6-.9-1.3-1.7-1.9-2.5-.7-.8-1.3-1.6-2-2.4-.3-.4-.6-.7-1-1.1H68c.2.3.5.6.7.8.4.4.7.9 1.1 1.3.3.4.7.9 1 1.3q.45.75 1.2 1.2c.1 0 .3 0 .4-.1v-.2c-.2-.5-.5-1-.8-1.4-.4-.4-.7-.9-1.1-1.3s-.7-.9-1.1-1.3c0 0-.2-.2-.2-.3h2.9c.1-.8.3-1.5.5-2.3-5 0-9.9 0-14.8.2-9.3.4-19.1 1.5-27.7 5.4.1-.5.3-1 .4-1.5 1.1-3.7 3-7.1 5.4-10.1 1.4-1.7 2.9-3.2 4.6-4.6s3.5-2.7 5.5-3.7q-2.55 1.05-5.1 2.4c-1.6 1-3.1 2.2-4.5 3.5-.9.9-1.8 1.9-2.6 2.9 2.6-3.9 5.8-7.4 9.5-10.2 6.7-5.3 14.7-8.7 22.9-11 .8 1.4 1.7 2.8 2.6 4.1.9 1.5 1.8 3 2.8 4.5-.7-1.6-1.5-3.2-2.5-4.7-.8-1.4-1.7-2.6-2.8-3.9.7-.2 1.3-.4 2-.6.1.3.3.6.5.9.3.6.7 1.2 1 1.8.7 1.2 1.5 2.3 2.2 3.5h.2c-.4-1.3-1-2.6-1.7-3.9-.4-.9-1-1.7-1.6-2.4.3 0 .7-.2 1-.3h.2s0 .1.1.2l.6.9c.4.6.9 1.2 1.5 1.5 0 0 .2 0 .2-.1-.1-.7-.5-1.3-.9-1.9l-.6-.9c.5-.1 1-.3 1.4-.4v-1.8c-8.2 1.9-16 4.9-23.4 8.9.6-1.1 1.1-2.2 1.6-3.2 1-2.1 1.9-4.2 2.8-6.3 1.8-4.3 3.1-8.8 4.2-13.4.3-1.3.5-2.5.7-3.8.2-1 .3-1.9.3-2.9 2.3-4.7 4.3-9.4 6.1-14.3.7-1.8 1.2-3.6 1.8-5.3.3-.9.6-1.9.9-2.8.1-.4.2-.8.3-1.1.5-.6 1.1-1.1 1.6-1.7-.3-.6-.4-1.2-.6-1.8-2.9 2.8-5.5 5.9-7.9 9.1-2.9 3.8-5.5 7.7-7.9 11.8-2.7 4.6-5.1 9.3-7.1 14.2 0 .2.2.3.3.1 4.4-8.1 9.4-15.9 14.8-23.3 1.7-2.3 3.4-4.5 5.3-6.7-.1.3-.3.7-.4 1-.6 1.6-1.2 3.1-1.8 4.7-1.3 3.1-2.6 6.3-4 9.4-2.8 6.1-6 12-9.2 17.9-1.8 3.3-3.6 6.7-5.5 10-.1.2.2.4.3.2 2.1-2.7 4.2-5.5 6.1-8.4 1.8-2.8 3.4-5.7 5-8.7l.3-.6c-.2.6-.3 1.2-.5 1.9-.6 2.2-1.2 4.5-2 6.7-1.4 4.3-3.1 8.6-5 12.7-.6 1.2-1.1 2.3-1.7 3.5-.3.6-.6 1.1-.9 1.7q-.3.45-.3.9v.3c-7.2 4.6-13.3 10.8-16.8 19.2-.8 2-1.4 4.2-1.8 6.4v.7c-1.1.6-2.3 1.2-3.3 2-4.1 2.8-7.7 6.4-10.5 10.6v-4.1c.5-6.9 3.2-13.6 6.4-19.7 1.8-3.5 3.9-6.9 5.9-10.3 2-3.5 3.9-7.1 5.6-10.8 0 0 0-.1 0 0-1.7 3.2-3.7 6.2-5.7 9.2-1.9 3-3.8 6-5.6 9-3.2 5.2-5.6 10.8-7.3 16.6-.1-.9-.2-1.9-.3-2.8-.1-2.5 0-4.9.3-7.4.8-4.8 2.3-9.5 4.4-13.9s4.5-8.6 7.1-12.7c2.7-4.4 5.4-8.8 8.3-13.1l4.8-7.2c1.6-2.5 3.2-4.9 4.8-7.3-3.2 4.2-6.5 8.3-9.5 12.6s-6 8.7-8.8 13.1c-5.4 8.3-10.7 17.1-12.5 26.9-.3 1.7-.5 3.3-.6 5 0-.5-.2-.9-.2-1.4-.3-1.9-.4-3.8-.6-5.7-.3-3.9-.2-7.7.4-11.6 1.2-7.7 3.7-15.2 7.4-22.1 1-2 2.1-3.9 3.2-5.8s2.1-3.9 3.2-5.8c0 0 0-.1 0 0-1.2 1.6-2.5 3.1-3.6 4.7-1.1 1.7-2.2 3.4-3.2 5.2-2 3.4-3.7 7-5.2 10.6-1.7 4.1-2.9 8.3-3.7 12.6-.7-1.9-1.3-3.9-1.7-6-.7-2.8-.7-5.7 0-8.5.9-2.6 2.1-5.2 3.5-7.7 1.3-2.6 2.7-5.2 4-7.7.7-1.3 1.3-2.6 2.1-3.8.4-.6.8-1.2 1.2-1.7.1-.1.2-.3.3-.4 3.3 0 6.5-.7 9.4-2 .6-.3 1.2-.6 1.7-.9 2.4.3 4.9-.2 7-1.3 2.6-1.5 4.8-3.6 6.5-6 1.8-2.6 3.4-5.4 4.8-8.2 1.4-2.6 2.9-5.2 4.5-7.7 6.3-9.3 14.6-17.1 24.3-22.8 1.3-.8 2.6-1.5 4-2.2.6-.7 1.2-1.4 1.9-2.1-1.4.6-2.8 1.3-4.2 2-5 2.5-9.6 5.5-13.9 9.1s-8.1 7.6-11.5 12.1c-1.7 2.2-3.3 4.6-4.7 7-1.6 2.7-3 5.5-4.6 8.2-1.6 3-3.8 5.6-6.4 7.7-2 1.5-4.2 2.7-6.6 3.3 1.9-1.4 3.5-3.1 4.7-5.1 1.1-1.7 2-3.6 3-5.3l3-5.4c1.2-2.1 2.3-4.1 3.5-6.2 1.2-2.2 2.2-4.4 3.4-6.5-1.1 1.7-2.4 3.4-3.5 5.1s-2.1 3.3-3.2 5c-2.1 3.4-4.3 6.9-6.5 10.2-.9 1.6-2 3.1-3.2 4.5-1.1 1.1-2.3 2.1-3.6 2.9-2.9 1.6-6 2.5-9.3 2.6-2.9 0-5.8-.2-8.6-.8 4.6-1.4 8.5-5.3 11.4-9 4.8-6 8.6-12.7 12.7-19.2 3.9-6.5 8.5-12.7 13.7-18.3q6.75-7.2 15-12.6c22.5-14.6 50.4-18.3 75.9-9.9 1 .3 1.9.7 2.9 1.1.3-.5.8-.8 1.4-.9.3 0 .6-.1.8-.2-12.1-5.1-25.2-7.1-38.3-6a95.3 95.3 0 0 0-37.5 11.5c-5.7 3.2-11.1 7-16 11.3-5.2 4.8-9.9 10.2-13.9 16-2.3 3.2-4.5 6.5-6.6 9.8-2.2 3.3-4.4 6.6-6.7 9.8-3.9 5.8-8.3 12.3-15 15.1-.7.3-1.5.6-2.3.7 2.1-1.9 3.7-4.3 4.7-6.9 1.7-4 3-8.2 4.3-12.4.8-2.6 1.5-5.1 2.3-7.7 0-.2-.3-.3-.3-.1-1.5 3.5-3 6.9-4.4 10.4.1-.6.3-1.2.4-1.8.9-4 2-7.9 3.1-11.9 2.2-8 4.6-15.9 7.3-23.6 2.7-7.8 5.8-15.4 9.3-22.9 3.1-6.7 7.1-13 11.9-18.6C54.1 45 63.3 38 73.7 33.1c.2.4.6.6 1 .5 0 0 .1 0 0-.2-.2 0-.4-.3-.3-.5 2.2-1 4.5-2 6.9-2.8 14.8-5.1 30.8-5.9 46.1-2.1 15.2 3.8 29.1 11.3 42.8 18.7 1.7.9 3.4 1.9 5.1 2.9h.2v-.2c-12.8-8-25.5-16.3-39.9-21.2.4 0 .8 0 1.3.1 2.7.3 5.3.6 8 1 5.3.7 10.5 1.6 15.6 2.8 9.3 2.1 18.1 5.8 26.1 10.9 7.3 4.7 13.6 10.7 18.7 17.7 2.7 3.7 5.1 7.8 7 12 .6 0 1.3.1 1.9.2-1.5-3.5-3.2-6.8-5.2-10-4.8-7.5-11-14-18.2-19.2-7.7-5.6-16.3-9.7-25.5-12.2-10.4-2.9-21.2-4.3-32-5-1.3-.1-2.7-.2-4.1-.1-14.1-3.7-28.9-3.7-42.9 0-.5.1-.9.3-1.4.4 1-.5 2.1-1.1 3.1-1.6 3.2-1.6 6.4-3 9.8-4.3 19.8-7.8 41.2-10.6 62.4-8.3 4.1.4 8.1 1.1 12.1 2.1 2 .5 4 1.1 5.9 1.7 2.1.6 4.2 1.4 6.2 2.2h.1c-3.2-2-6.8-3.5-10.4-4.5-3.6-.9-7.2-1.7-10.9-2.2-7.1-1.1-14.3-1.6-21.4-1.5-14.4.3-28.7 3-42.2 8.1q-5.7 2.1-11.1 4.8c-1.8.9-3.6 1.8-5.4 2.8-.3.2-.6.4-.9.5.7-.5 1.5-1.1 2.2-1.6 4.1-2.9 8.3-5.6 12.7-8 8.7-4.9 18.1-8.7 27.8-11.2 9.4-2.4 19.2-3.4 28.9-2.8 9.4.6 18.6 2.7 27.4 6.2 8.7 3.4 16.9 8.3 24 14.4.9.8 1.7 1.5 2.5 2.3h.3v-.3c-6.5-7.4-14.5-13.3-23.4-17.3-3.2-1.4-6.4-2.7-9.7-3.7h1.1c2.7 0 5.5-.1 8.2-.1 5.5 0 10.9.3 16.3 1 10.8 1.3 21.5 3.9 31.7 7.7 9.2 3.4 18.2 7.8 25.9 14 3.6 2.9 6.8 6.3 9.5 10.1 2.8 4.1 4.8 8.7 6 13.6.9 3.6 1.3 7.3 1.4 11-1.1-3.7-2.7-7.2-4.6-10.6-2.8-5.1-6.3-9.7-10.4-13.7-.1-.1-.3 0-.2.2 2.9 4 5.7 8.2 8.2 12.5 2.4 4.3 4.3 8.9 5.5 13.7 1.2 4.7 1.4 9.6.7 14.5-.9 4.9-2.6 9.7-5 14-2.6 5.1-5.6 10.1-8.6 14.9-.1.2.2.4.3.2q5.1-6 9.3-12.6c2.7-4.4 4.7-9.3 5.8-14.4.8-3.7 1-7.5.6-11.3q.45-4.5.3-9h.6c.4-.1.8-.3 1.3-.5q1.35-.6 2.7-.9c1.8-.5 3.7-.7 5.5-.6 3 .2 6.2 1.7 7.2 4.7-1.4 0-2.7.3-4 .6-3 .8-6.3 2.1-8.5 4.4-.1.1-.1.3 0 .4 0 0 .2.1.4 0 2.4-1.4 5-2.5 7.7-3.2 2.7-.5 5.4-.6 8.1-.2 5.5.8 10.7 3.2 14.9 6.9 4.4 3.7 7.9 8.3 10.4 13.5 2.5 5.3 3.5 11.3 2.8 17.1-.7 7.2-3.7 13.8-6.4 20.4 0 .2.3.4.4.2 3.1-5.8 6-12 7.5-18.4.2-1 .4-1.9.5-2.9.6 1 1.2 1.9 1.7 2.9 1.2 2.2 2.2 4.4 3 6.7 1.7 4.6 2.6 9.4 2.9 14.3.2 4.8-.3 9.6-1.5 14.3-1.3 4.5-3.1 8.8-5.4 12.8-2.6 4.6-6 8.8-10.1 12.2-.1.1 0 .3.2.2 3.8-2.8 7.3-6.2 10.2-10 2.9-3.9 5.2-8.3 6.7-13 1.2-3.7 1.9-7.6 2.2-11.4l.6 2.4q.75 3.6 1.2 7.2c.5 4.9.5 9.8-.1 14.7-.2 1.5-.5 2.9-1 4.4 0-.3-.3-.2-.3 0v1.4c-.8 2.4-2 4.6-3.4 6.7-2.4 3.4-5.3 6.4-8.5 9-3.6 3.1-7.5 5.9-11.3 8.8 0 0-.1.2 0 .3 0 0 .2.1.3 0 4.2-2 8.1-4.5 11.9-7.2 3.2-2.4 6.1-5.3 8.6-8.5 0 .2-.1.4-.2.6-.5 1.5-1.2 2.9-1.9 4.3-1.5 2.6-3.3 5.1-5.5 7.2-4.2 4.3-9.2 8.1-15.3 9.2q-2.55.45-5.1.3c-.9 0-1.8-.2-2.7-.3-.9 0-1.7-.3-2.6-.5.7.3 1.2.8 1.9 1.1.8.3 1.7.6 2.5.8 1.6.3 3.1.4 4.7.2 3.2-.3 6.4-1.3 9.2-2.9 5.5-3.3 10.1-8 13.2-13.7.9-1.5 1.7-3.1 2.3-4.8.4-1.1.7-2.3.8-3.5 0-.1.2-.2.2-.4-.3 1.7-.6 3.4-1 5.1-.6 2.2-1.2 4.4-2 6.5v-.2h-.2c0 .5-.2 1-.4 1.5-.2.6-.4 1.1-.7 1.7-.7 1.3-1.6 2.5-2.6 3.6-1.7 1.8-3.5 3.5-5.4 5-3.8 3.3-8.5 5.3-13.5 5.7-1.4 0-2.9 0-4.3-.2-1.4-.3-2.7-.8-4.1-1h-.1v.1c1.9 1.8 4.9 2.2 7.3 2.4 2.8.1 5.5-.3 8.1-1.3 4-1.6 7.6-4 10.5-7.1-.3.4-.6.9-.9 1.3-.8 1.1-1.7 2.2-2.5 3.2h-.1c-.2.2-.3.4-.5.7-.3.4-.7.8-1 1.2l-1.2 1.5c-.3.3-.6.6-1 .9-1.5 1.3-3.2 2.3-5 2.9-4.5 1.5-9 .5-13.4-.7h-.1v.1c4.2 2.6 9.3 3.2 14 1.7 1.1-.3 2.1-.8 3.1-1.3 0 .1-.2.3-.2.4-.3.8-.6 1.6-.8 2.4-.4.3-.8.7-1.2 1-1.2.8-2.5 1.4-4 1.8-1.5.3-3.1.4-4.6 0-1.6-.3-3.2-.8-4.6-1.5.6.6 1.2 1.1 1.9 1.5q1.05.6 2.4.9c3.3.8 6.7.1 9.5-1.8 0 0 .1 0 .2-.1-.2.9-.4 1.9-.6 2.8-1.2 4.7-4.1 8.6-7.1 12.3-.1.1-.1.3 0 .4 0 0 .2.1.3 0 4-1.9 6.7-5.7 8.2-9.8.9-2.3 1.1-4.7 1.8-7 .7-2.2 1.8-4.3 3.3-6 1.5-1.8 3-3.5 4.4-5.4v1.2c-.3 3.3-.8 6.6-1.6 9.8-1.6 6.4-4.4 12.4-8.1 17.8-1 1.5-2.1 2.9-3.3 4.3-.6.7-1.2 1.4-1.8 2-.2.2-.4.5-.5.8-.1-.2-.2-.3-.3-.5-3.3-5.2-7.2-9.9-12.4-13.4-.9-.6-1.7-1.1-2.6-1.6 0-.7-.2-1.5-.6-2.1-.1-.2-.2-.5-.4-.7q-.45-2.4-1.5-4.8c-5.3-12.8-16.6-20.5-29.1-25.4-.2.5-.5.9-.7 1.4 5.9 2.1 11.5 5.1 16.5 8.9 5.5 4.2 9.8 9.7 12.6 16-.9-1.4-1.9-2.8-3-4.1-3-3.5-6.5-6.5-10.5-8.8-2.2-1.2-4.5-2.3-7-3 0 0-.1 0 0 .1 2 1 3.9 2.1 5.8 3.3s3.6 2.5 5.3 4c3.3 3 6.1 6.4 8.5 10.2.6 1 1.2 2.1 1.8 3.2.1.2.2.4.3.7-8.7-4.1-18.7-5.2-28.1-5.6-4.4-.2-8.9-.3-13.3-.2-.3.8-.6 1.6-.9 2.3h4.2c5.8 0 11.6.2 17.4.7 11 1.1 22.4 4.1 30.2 12.4 4.2 4.5 7.3 10 10.4 15.3 3.2 5.5 6.3 11.2 7.3 17.6 1 6.6 0 13.4-1 19.9-1 6.4-2.3 12.6-3.9 18.9-3.2 12.5-7.6 24.6-13.2 36.2-5.2 10.7-11.3 21.3-19.6 29.9-8.1 8.3-18.6 14.6-30.3 15.6-5.7.6-11.4-.3-16.6-2.5-5-2.3-9.5-5.5-13.4-9.5s-7.6-8.4-10.9-12.9c-2-2.7-4-5.4-6-8-1-1.3-2-2.5-3-3.7 0-.1-.1-.2-.2-.4-1.7-3-3.4-6-4.9-9.1-2.7-5.6-5-11.3-7.3-17-.3-.7-.6-1.5-.9-2.2 0 1.3-.2 2.7-.6 3.9.3.8.7 1.6 1 2.4 2.3 5.6 4.7 11.2 7.4 16.6q1.95 4.05 4.5 7.8c.8 1.1 1.7 2.2 2.6 3.2 3.5 5 7.2 9.9 11.1 14.5 3.6 4.5 7.7 8.6 12.3 12.1s10 5.8 15.7 6.7c3.8.6 7.6.6 11.3 0l-3.3 2.4c-2.4 1.8-4.8 3.6-7.3 5.4-4.2 3-8.6 5.7-13.5 7.1-5.6 1.6-11.5 1.2-17.2 1-5.9-.2-11.9-.3-17.8-.5-3 0-6-.2-9-.2h-4.5c-.7-.2-1.5-.2-2.2-.1h-1.6c-.1 0-.3 0-.4-.1 0 0-.1 0-.2-.1l.8-.8c.6-.3 1.3-.5 1.9-.8 1.9-.8 3.9-1.4 6-1.9 2-.6 4-1.1 6-1.7 2-.4 3.8-1.3 5.4-2.5 1.3-1.3 2-3.2 1.7-5-.2-2.1-.7-4.2-1.1-6.3-.8-4.4-1.7-8.8-2.6-13.2-1.8-8.9-3.6-17.8-5.5-26.6-1.1-5.1-2.2-10.1-3.4-15.1-.1.2-.2.4-.3.7-.3 1-.6 2-1 2.9 3 13.4 5.8 26.9 8.4 40.4l2.4 12.9c.3 1.8 1 3.9.7 5.8-.3 1.8-1.8 2.5-3.3 3.1-3.4 1.2-6.9 2-10.4 3-.5.2-1 .3-1.5.5l1.8-2.1q1.05-1.35 1.8-3c.1-.2-.1-.5-.4-.4-.8.5-1.5 1-2.3 1.6s-1.5 1.3-2.2 2l-4.2 4.2-.3.3q-1.2.9-2.1 2.1-.75.75-1.5 1.2c-1.5 1-3.3 1-5.1 1.1-2.3.1-4.7.3-7.1.3-.2.8-.3 1.5-.5 2.3 2.2 0 4.4-.2 6.5-.3 1.9 0 3.9-.2 5.7-.7q2.25-.9 3.9-2.7c.3.3.6.5 1 .6.7.2 1.3.3 2 .3h.3c.3 0 .5.2.8.2h2.5c1.7 0 3.4 0 5.1.1 3.4 0 6.9.2 10.3.3 6 .2 12 .3 18.1.5 5.8.1 11.6.1 17.1-1.9 4.9-2 9.4-4.6 13.5-7.9 2.2-1.7 4.4-3.4 6.5-5.2 1.5-1.3 3.2-2.5 4.6-3.9 1-.2 1.9-.4 2.8-.7 5.7-1.7 11.1-4.4 15.9-8 .9 1.8 2 3.6 2.9 5.4.5 1 1 2.1 1.5 3.1.2.5.4 1 .7 1.5-.2 1.4-.4 2.8-.6 4.1-.2-.4-.4-.8-.6-1.3-.6-1.3-1.3-2.5-1.9-3.8-1.3-2.5-2.8-4.9-4.4-7.2h-.1c1.5 2.3 2.9 4.8 4.2 7.2.6 1.2 1.3 2.4 1.9 3.6.3.7.6 1.4.9 2-.6 4.2-1.5 8.3-2.8 12.3-3.3 9.8-8.7 18.7-14.2 27.4-5.3 8.5-11.1 16.7-17.3 24.6s-12.7 15.4-19.6 22.6c-3.4 3.6-7 7.1-10.6 10.5-1.8 1.7-3.7 3.4-5.5 5.1-1.3 1.1-2.5 2.2-3.7 3.4l.3-6v-.9c.3 0 .7-.2 1-.4.4-.3.8-.7 1.2-1.1l2.7-2.4c1.8-1.4 3.4-3 5-4.8 2.3-2.9 3-6.6 3.1-10.2v-4.9c0-.7-.3-1.4-.6-2 .1 0 .1-.2 0-.4l-.2-.2v-.3h-.1c-1.2-1.3-2.5-2.4-3.8-3.6-1.4-1.3-3-2.5-4.5-3.7-.3-.2-.7-.5-1-.7 0-.2 0-.4.1-.5 0-.3 0-.5.1-.8.4-.5.7-1 1-1.6l1.2-2.1c.8-1.4 1.5-2.9 2.2-4.4.6-1.4 1.2-2.9 1.7-4.3.2-.7.4-1.4.5-2.2.1-.4 0-.9-.2-1.3.2.4-.2.9-.3 1.2-.1.2-.2.5-.3.8-.3.7-.5 1.3-.8 2-.6 1.4-1.2 2.8-1.8 4.1s-1.3 2.5-2.1 3.7c-.1.2-.3.4-.4.7.3-1.7.5-3.5.7-5.2.2-2.1.5-4.2.5-6.4 0-.5 0-1-.3-1.5.7-.2 1.4-.6 2.1-.9 1.2-.6 2.7-1.5 3.4-2.7 0 0 0-.2-.1-.2-.7.1-1.4.4-2 .8-.8.4-1.6.8-2.4 1.1-1.5.6-3.2.7-4.9.3-1.5-.4-3-.9-4.6-1.3-1.5-.4-3.1-.7-4.7-1q-4.8-.9-9.6-1.2c-4.1-.3-8.1-.3-12.2-.2.4-.2.7-.3 1.1-.5.1 0 .1-.3 0-.3-1.4 0-2.8 0-4.3.2-1.3.1-2.7.3-4 .3-2.8.1-5.5.6-8.3.7s-5.5.1-8.3 0h-.7c-.2.7-.3 1.4-.5 2.2h1c2.9.1 5.7.1 8.6 0 1.3 0 2.7-.1 4.1-.2.7.1 1.5.2 2.2.2.9 0 1.8 0 2.7-.2.5 0 .9 0 1.3-.2h.1c3-.1 6.1-.2 9.1-.3 6.6-.2 13.1.3 19.6 1.5 1.6.3 3.1.7 4.6 1.2 1.5.6 3.1.9 4.7.9h.2v.5c0 .9-.2 1.7-.3 2.6l-.6 5.4c-.2 1.8-.5 3.6-.8 5.4-.1.7-.2 1.4-.4 2.1-2.2-1.4-4.5-2.7-6.9-3.7-7.9-3.4-16.6-3.5-25.1-3.7-8.9-.3-17.7-.1-26.6.1h-1.7c-.3.8-.6 1.5-.9 2.3 8.6-.2 17.2-.5 25.8-.4 4.4 0 8.8.2 13.1.6 2 .1 3.9.3 5.9.6.2 0 .3.1.5.2.9.4 1.8.7 2.8 1.1.4.4.8.7 1.2 1-.1.2-.2.5-.3.7-.1.5-.2.9-.2 1.4v2.9c0-.5.1-1 .3-1.4s.4-.8.6-1.1c.2-.4.4-.7.6-1.1l.3-.6v-.3c1.4.6 2.8 1.2 4.1 1.9.5.3 1.1.7 1.7.9v.3c0 .8-.1 1.7-.3 2.5l.9-2.4v-.1c.3.2.6.3 1 .5.2.1.4.3.7.4v.6c0 .8-.1 1.6-.1 2.3 0 .9-.2 1.7-.4 2.5 0 .4-.2.8-.4 1.2-.1.2-.2.4-.3.7-.6-.5-1.1-1-1.7-1.5v-1.4c0-.5.1-1 .2-1.5 0 0-.1-.1-.1 0 0 .3-.1.7-.2 1 0 .3-.2.6-.3.9 0 .3-.2.5-.2.8-1.9-1.5-4.1-2.6-6.5-3.3-2.3-.6-4.6-1-7-1.3-1.5-.2-3.1-.4-4.6-.6-5-.5-10.1-.6-15.1-.8-5.1-.1-10.2-.2-15.2-.1-3.3 0-6.6.1-9.8.3-.3.7-.6 1.5-.9 2.2l8.7-.3h15c5 .1 10 .4 14.9.6 1.8 0 3.6.2 5.4.2 2.7.3 5.4.9 8 1.7 3.2 1.1 6.1 3 8.5 5.5 2.7 2.6 5.3 5.4 7.9 8.2 1.2 1.1 2.1 2.4 2.6 3.9.1.7.2 1.4.2 2v.7l-.2.2c-1.4 1.4-2.8 2.7-4.1 4.1-.7.7-1.5 1.4-2.2 2.1l-.4.4c0-1.8.2-3.6.2-5.3v-.6q.45-1.5.6-3c.2-2-.1-4.1-1-5.9-.9-1.7-2-3.4-3.3-4.9-1.1-1.4-2.3-2.7-3.7-3.8-3.2-2.5-7.1-3.3-11.1-3.6-4.3-.3-8.6-.4-12.9-.5-8.9-.2-17.9-.2-26.8 0-2.3 0-4.7.1-7 .2-.3.7-.5 1.4-.7 2.1 1.7 0 3.5-.1 5.2-.2 8.4-.3 16.8-.3 25.1-.2 4.2 0 8.5.2 12.7.4 3.7.2 7.7.1 11.2 1.6 3.6 1.5 6.2 4.8 8.4 7.9.6.9 1.2 1.8 1.7 2.8.3.6.5 1.2.6 1.9v.1c-.1.7-.2 1.3-.3 2-.2-.4-.5-.7-.7-1l-1.2-1.8c-.8-1.2-1.6-2.5-2.5-3.7.8 1.2 1.6 2.5 2.4 3.7.4.6.8 1.2 1.1 1.8.3.4.5.9.8 1.3-.1 1.4-.3 2.7-.4 4.1-.8-1.6-1.7-3.2-2.6-4.7-1.9-3.2-4.2-6.2-6.8-8.8 1.8 2.7 3.6 5.3 5.3 8 .8 1.3 1.6 2.7 2.4 4.1.4.7.8 1.4 1.1 2.1 0 .2.3.5.5.8-.1 1.5-.3 3.1-.4 4.7 0-.1-.1-.3-.2-.4l-1.2-2.4c-.8-1.6-1.7-3.1-2.6-4.6-1.6-2.9-3.4-5.6-5.4-8.3 0-.3.1-.6.2-.9.2-.6.2-1.2.2-1.9 0-.6-.2-1.2-.4-1.8s-.5-1.1-1-1.5h-.4q.15 0 0 0v.4c0 .3.2.6.3.9.2.6.4 1.3.5 1.9 0 .7.1 1.4.2 2v.2c0 .6 0 1.2.2 1.8h.2v-.9c1.6 2.7 3.3 5.4 4.9 8.2.9 1.5 1.7 3 2.5 4.5.4.8.8 1.6 1.2 2.3.2.4.5 1 .8 1.4l-.3 5.1c-.1-.3-.3-.6-.4-.8-.4-.8-.7-1.5-1.1-2.3-.8-1.5-1.5-3.1-2.4-4.6-1.5-2.8-3.3-5.5-5.1-8.1q0-.15 0 0c-.1-.1-.2-.3-.4-.5 0 0-.1 0 0 0 .1.2.3.5.4.7-.3 3.7-.5 7.4-.7 11.1 0 0-.1-.2-.2-.2 0 .1.1.2.2.4 0 1.5-.2 2.9-.3 4.4v1.1-.1s0 .1.1.2c-.1 1.9-.3 3.7-.4 5.6-.1-.2-.3-.4-.4-.7.2.3.3.5.5.8v1c0 1.3-.1 2.6-.2 4 0 .6-.1 1.3-.1 1.9-1-.3-2.1-.6-3.1-.8-.2 0-.4 0-.5-.1-2.2-.6-4.4-1.1-6.7-1.3-4.6-.6-9.3-.9-14-1h-14c-4.7 0-9.3 0-14 .4-2.6.2-5.2.4-7.7.7-1.3.2-2.6.3-3.9.6-.7.1-1.4.3-2.1.5v-3c-.7 2.2-1.4 4.3-2.1 6.5 3.3-1.1 6.6-1.9 10-2.3 3.6-.5 7.2-.5 10.8-.7l5.4-.3h1.5c4.9 0 9.7-.1 14.5 0 0 0 .2.1.3.1 1.8 0 3.6.2 5.4.3 3.6.2 7.2.3 10.8.7 3.4.4 6.8 1.2 10 2.3 5.7 2.1 11 5.1 15.7 8.9 4.8 3.9 9.1 8.2 13 13 2.2 2.5 4.1 5.3 5.7 8.3 1.5 3.1 2.5 6.5 2.9 9.9 1 6.3 1.2 12.7.8 19.1-.4 6.3-1.6 12.5-3.7 18.4s-5.2 11.3-9.3 16c-4.1 4.6-8.9 8.6-14.3 11.7-5.8 3.3-12 5.8-18.5 7.5-3.4.9-6.9 1.6-10.4 2.2-2.1.3-4.3.6-6.4.9h-3.7c-2.3.2-4.6.3-6.8.3h-7.5c-2.8-.4-5.6-.7-8.4-1.1-3.5-.5-7-1.3-10.4-2.2-6.5-1.7-12.7-4.2-18.5-7.5-5.4-3.1-10.2-7-14.3-11.7-1.8-2.1-3.4-4.3-4.9-6.7-.4.8-.8 1.6-1.1 2.4.4.6.8 1.2 1.3 1.9 3.7 5.2 8.4 9.7 13.7 13.3 11.5 8 25.6 12 39.4 13.4q2.7.3 5.4.3c1.7.2 3.3.2 5 .2q3.15 0 6.3-.3h.4c1.8 0 3.6-.2 5.4-.3 13.8-1.4 27.9-5.4 39.4-13.4 10.8-7.2 18.5-18.1 21.7-30.7 1.7-6.3 2.6-12.8 2.6-19.3 0-3.3-.1-6.6-.4-9.8-.3-3.1-.7-6.1-1.4-9.1q-.45-1.05-.6-2.1c-.2-.5-.4-1.1-.5-1.6-2.2-5.6-6.1-10.3-10-14.7-3.2-3.6-6.7-6.9-10.4-9.9 0-.1.1-.3.2-.4.1-.5.2-1.1.2-1.6.1-1.2.3-2.4.3-3.6.1-2 .2-4 .1-6q-.45-1.65-.3-3.3v-.5c-.2-1.1-.9-2-1.9-2.5-.8-.4-1.6-.6-2.5-.7h-1.1v-1.2c.8-.5 1.6-1.1 2.4-1.7 7.6-6.6 14.9-13.6 21.7-21q10.35-11.1 19.5-23.1c6.1-8 11.8-16.3 17-24.8 5.4-8.9 10.8-18.1 13.5-28.2 1.5-5.4 2-11 2.7-16.6.3-2.2.6-4.5.8-6.7h.1c0-.2 0-.3-.1-.4 0-.4 0-.7.1-1.1.2-1.4.4-2.8.5-4.3 0-.7.1-1.5.2-2.2v-1.8c1.2-1.4 2.5-2.8 3.6-4.2 7.8-9.8 13.6-21.2 18.6-32.7 5.2-12.2 9.2-24.9 11.9-37.9 1.4-6.6 2.4-13.2 3-19.9.3-3.4.3-6.9-.2-10.3q-.45-3.15-1.5-6.3c.2-.9.3-1.8.2-2.7v-11c.2-4.6.3-9.2.8-13.8.1-1.3.3-2.5.5-3.7.1-.6.2-1.2.4-1.8.1-.4.2-.8.2-1.2 2.1-4.6 3.6-9.5 4.4-14.6.2-1.3.3-2.5.4-3.8 0 .2.2.5.3.7v-.7l-.3-.6v-3.9c0-.6.2-1.2.6-1.6h-.2c.5-.8 1-1.5 1.4-2.3 2.2-4 3.9-8.3 5-12.7.6-2.5 1-5 1.1-7.6v-2.6c1.4-3 2.3-6.1 2.7-9.4.4-3.4.6-6.8.4-10.2Zm-20.2 90.3c-.2 2.1-.3 4.2-.5 6.2v.7c-.9-1.7-1.8-3.5-2.8-5.1 1-2.6-.2-5.2 0-7.9q.3-1.95 1.5-3.6c.3-.5.5-1 .7-1.5.2.6.4 1.2.7 1.7v.3c0 .3.1.5.2.8 0 0-.2 0 0 .2 0 0 .1.2.2.3 0 .6.2 1.2.2 1.7.1 2 0 4.1-.2 6.1ZM210.3 458.5c-.8-.8-1.6-1.7-2.5-2.5v-.1q.15-.6 0-1.2v-1.2c0-.9.3-1.7.6-2.5.3-.7.6-1.5.8-2.3 0 0 .1 0 .2.1.8.9 1.3 2 1.4 3.1.5 2.2.3 4.6-.6 6.7Zm8.2 1.2c.2-1 .3-1.9.5-2.9 0-.3.1-.7.2-1 .2.2.5.4.7.7.5.6.8 1.4.8 2.2v4.9c0 1.7-.4 3.3-.9 4.9-.2.4-.3.8-.6 1.2-.3-1.5-1-2.9-2-4 .6-2 1.1-4 1.4-6Zm-20.6 41.7v-5.7l2.7 4.5c.6 1 1.3 2.1 2 3.1-1.5-.7-3.1-1.3-4.6-1.9Zm8.6 2c0 .6-.1 1.2-.1 1.8-1.1-.6-2.2-1.2-3.3-1.7 0 0 0-.1-.1-.2-.7-1.1-1.5-2.3-2.2-3.4-1-1.5-1.9-3-2.9-4.5v-6.3l4.5 6.9 2.4 3.9c.6 1 1.2 2.1 1.9 3.1v.5Zm.3-4.1c0 1.1-.1 2.1-.2 3.2-.5-.9-1.1-1.8-1.6-2.7-.8-1.3-1.6-2.7-2.5-4-1.5-2.3-3-4.6-4.7-6.9V483l4.5 7.5 2.4 3.9 1.2 2.1c.3.5.5 1 .8 1.5v1.4Zm.4-8v.6c-.4-1-1-2-1.5-3-.7-1.4-1.5-2.8-2.3-4.2-1.6-2.6-3.7-4.9-4.9-7.8h-.1c.9 2.9 2.9 5.2 4.5 7.7.8 1.3 1.6 2.6 2.4 4 .7 1.3 1.3 2.6 1.9 3.8 0 1.7-.2 3.3-.3 5l-.6-.9c-.4-.7-.8-1.4-1.2-2-.8-1.4-1.6-2.7-2.4-4.1-1.5-2.5-3.1-5-4.7-7.5.1-3.8.4-7.5.6-11.3 1.6 2.6 3.2 5.2 4.7 7.9.8 1.5 1.6 2.9 2.4 4.4.4.7.7 1.5 1.1 2.2.2.6.5 1.2.8 1.7 0 1.1-.2 2.3-.2 3.4Zm2.3 2.4c.9 0 1.7.3 2.6.6.8.5 1.2 1.3 1.2 2.2.1 2.5.1 5.1 0 7.6 0 1.3-.2 2.6-.3 3.9 0 .4-.1.9-.2 1.3l-2.1-1.5c-.7-.5-1.4-.9-2.1-1.3.3-1.1.4-2.3.3-3.5 0-1.5.2-3 .3-4.5 0-1.6.2-3.2.3-4.8h.2Zm74.7-117.5c0-.2-.1-.3-.2-.4-.5-1.1-1.1-2.2-1.7-3.3-.9-1.8-2-3.6-3.2-5.3l2.4-1.8c.5 1.2 1.1 2.3 1.8 3.4.5.9 1 1.8 1.6 2.6-.2 1.6-.4 3.3-.6 4.9Zm.7-5.4c-.4-.8-.8-1.5-1.3-2.3q-.9-1.65-2.1-3.3c.8-.6 1.5-1.3 2.2-1.9.1.4.3.7.5 1l.9 1.5c.1.2.3.4.4.6-.3 1.4-.5 2.9-.7 4.3Zm1.6-8.9c-.3 1.2-.5 2.4-.7 3.6-.3-.5-.6-1-1-1.4-.2-.3-.5-.7-.8-.9 1-.9 1.9-1.8 2.8-2.8-.1.5-.2 1.1-.4 1.6Z" class="st0"/><path fill="currentColor" d="M213.3 426.2c-4.7-5.2-11.8-7.3-18.4-8.9-3.7-.9-7.6-1.8-11.5-1.4s-7.6 2-11.4 3c-3.8 1.2-7.8 1.7-11.8 1.6q-2.25-.15-4.5-.6c0 .6-.2 1.2-.3 1.7.5 0 1 .1 1.5.2 3.8.4 7.5.3 11.3-.4 3.9-.7 7.7-2.1 11.5-3.1 1.8-.5 3.7-.7 5.6-.6 2 .1 4 .4 6 .8 3.9.8 7.7 1.8 11.4 3.1 3.6 1.3 7.1 3 10.4 5 .2.1.4-.1.2-.3Zm72.8-331.3c-1.6 2.2-3.4 4.2-5.3 6.1-1.9 1.8-3.9 3.4-6.1 4.8-4.3 2.6-9 4.5-13.8 5.8.3.2.5.3.8.5.1 0 .3.2.4.3 1.9-.5 3.9-1.1 5.7-1.8 5-1.7 9.6-4.4 13.5-8 2.2-2.1 4-4.7 5.1-7.6 0-.1-.1-.2-.2-.1Z" class="st0"/><path fill="currentColor" d="M300.5 82.6h-.2c.3 6.5-1.8 12.8-6 17.8-4.4 5.3-10.6 8.7-17.1 10.7-3.5 1-7 1.8-10.5 2.5.1 0 .3.2.4.2 6.9-.3 13.6-2.2 19.6-5.5 5.8-3.3 10.9-8.6 13.1-15 1.3-3.5 1.5-7.3.6-10.9Z" class="st0"/><path fill="currentColor" d="M309.9 78.2h-.1c.9 8.4-1.3 16.9-6.2 23.8-4.9 6.8-12.1 11.7-20.2 13.6-3.9 1-8 1.4-12 1.1.3.3.6.5 1 .8 3.2.5 6.5.6 9.7 0 4.3-.7 8.5-2.2 12.3-4.5 7.5-4.6 12.9-12 15.1-20.5 1.2-4.7 1.4-9.5.6-14.3Zm2.6 32c-3 4.4-7.4 7.8-12.5 9.5-2.8 1-5.7 1.6-8.7 2-2.9.4-5.8.6-8.8.6-1.6 0-3.2-.2-4.9-.4-.3 0-.7 0-1-.1l.3.3c.2.2.4.4.5.6 1.2.3 2.5.4 3.7.5 3.1.2 6.3.1 9.4-.3 5.9-.7 12-2.1 16.7-5.8 2.4-1.7 4.3-4.2 5.3-7 0-.1-.1-.2-.2 0Zm-.3 12.1c-1.6 1.3-3.3 2.3-5.2 3s-3.8 1.2-5.8 1.5c-4.5.7-9.1.7-13.6 0-1.2-.2-2.5-.4-3.7-.8-1.4-.3-2.8-.7-4.1-1.1 0 0-.1 0 0 0 1.1.6 2.1 1.2 3.2 1.7 1.1.4 2.3.8 3.5 1 2.4.5 4.9.8 7.3.8 4.4 0 9.3-.2 13.4-2 1.1-.4 2.1-1 3-1.7s1.7-1.6 2.3-2.6c0-.1 0-.2-.2-.1Z" class="st0"/><path fill="currentColor" d="M332.1 119.6c-.7 1.6-1.6 3.2-2.6 4.6-.9 1.4-2 2.6-3.2 3.8-2.5 2.2-5.3 4.1-8.3 5.4-6.9 3.2-14.8 3.2-22.1 1.6-2.2-.5-4.4-1.1-6.6-1.9l-3.3-1.2c-1-.4-2-.7-3.1-1 0 .1.1.3.2.4.6.5 1.3 1 2 1.4.9.5 1.9.9 2.9 1.4 2 .9 4 1.6 6 2.2 4.1 1.2 8.4 1.8 12.7 1.6 7.3-.3 14.7-2.9 19.8-8.3q1.95-2.1 3.6-4.5 1.5-2.55 2.1-5.4Z" class="st0"/><path fill="currentColor" d="M327.6 136.7c-2 1.7-4.2 3.1-6.7 4.1-2.4 1-4.9 1.7-7.5 2-5.7.6-11.5-.1-16.9-2.1-1.6-.5-3.2-1.2-4.8-1.8q-2.25-1.05-4.8-1.8s-.1 0 0 .1c2.5 1.8 5.2 3.3 8.1 4.3 2.9 1.2 6 2 9.1 2.6 5.5 1 11.2.4 16.4-1.8 1.4-.6 2.7-1.4 4-2.3 1.2-.9 2.2-2 3.2-3.1Zm-15.9 15c-4-.3-7.9-1-11.7-2.3-3.8-1.4-7-3.6-10.4-5.8 0 0-.1 0 0 .1 2.5 3.2 6.4 5.3 10.2 6.7 3.8 1.5 7.9 2.1 12 1.6.1 0 0-.2 0-.2Zm-9.8 1.4q-2.7-.6-5.4-1.5c-1.8-.7-3.5-1.6-5-2.7 2.8 2.5 6.6 4.5 10.4 4.3Zm3.7 2.2c-2.4.2-4.8 0-7.1-.5-1.1-.3-2.2-.7-3.3-1.3s-2.1-1.2-3.1-1.8c-.1 0-.3 0-.2.2.3.5.7 1 1.2 1.4s.9.7 1.5 1q1.65.9 3.6 1.5c2.5.7 5.1.6 7.5-.3.1 0 .1-.2 0-.2Zm7.2 5.6q-2.7.9-5.4 1.2c-1.9.1-3.8-.1-5.5-.7-1.8-.6-3.5-1.3-5.1-2.3-1.7-.9-3.2-2-4.8-3.1 1.3 1.5 2.8 2.8 4.4 4 1.7 1.1 3.5 1.9 5.4 2.5 3.6 1 8.1 1.2 11.1-1.3.1 0 0-.3-.1-.2Z" class="st0"/><path fill="currentColor" d="M322.7 163.5c-2.2.9-4.4 2.1-6.7 2.8-1.2.4-2.4.7-3.6.8-1.4 0-2.9 0-4.3-.2q-3.15-.3-6.3-1.2c-1-.3-1.9-.6-2.8-1.1-.4-.2-.8-.5-1.2-.8-.5-.3-1-.6-1.4-1 .3.8.8 1.5 1.3 2.1.6.5 1.3 1 2 1.4 1.6.8 3.3 1.4 5.1 1.7 4.1.7 8.3 1.3 12.2-.5 2.1-1 4.1-2.3 5.9-3.9v-.1Zm-6 9.3c-3.2 1.6-6.9 2.2-10.4 1.6-1.6-.3-3.2-.9-4.6-1.7q-1.05-.6-2.1-1.5c-.6-.5-1.2-.9-1.9-1.3 0 0-.1 0-.1.1q.6 1.2 1.5 2.1t2.1 1.5c1.5.9 3.3 1.6 5 1.9 3.7.7 7.6-.2 10.5-2.6.1 0 0-.3-.2-.2Zm-4.4 7.2c-2.4.8-5 .8-7.5.3-2.5-.7-4.7-2-6.5-3.8 2.4 4.9 9.6 6.6 14.2 3.7v-.2h-.1Zm-2.3 6c-1.5 0-3.1 0-4.6-.4s-3-.9-4.3-1.6h-.2v.2c2.4 2.3 5.9 3.1 9.1 2 .1 0 0-.2 0-.2m5.7 23.5c-1.6.8-3.4 1.3-5.2 1.3-.9 0-1.8-.2-2.6-.4-.9-.2-1.8-.7-2.6-1.2 0 0-.1 0 0 0 .6.8 1.4 1.4 2.3 1.8s1.9.7 2.9.7c2 .2 4.1-.6 5.4-2.1v-.2h-.1Zm-4.6 4.4c-.5.2-1 .3-1.5.4H308c-1.1 0-2.1-.5-3-1.1.7.9 1.8 1.5 3 1.7.6 0 1.2 0 1.7-.1.6-.1 1.1-.4 1.5-.8v-.1ZM152.8 77.4c-5.5-3.7-11.5-6.5-17.8-8.5-8.2-2.5-16.7-3.7-25.2-3.8-8.8-.3-17.7.9-26.1 3.5-4.5 1.4-8.8 3.2-13 5.4s-8.3 4.7-12.2 7.3c3.5-2.2 7.2-4.1 11-5.9 3.7-1.7 7.5-3.4 11.3-4.8 8.2-2.8 16.8-4.2 25.5-4.2 15.6 0 31.6 3.1 44.7 11.7.6-.3 1.1-.6 1.7-.8Zm25.5-51.7c-3.4-1.4-6.9-2.6-10.4-3.6-3.6-.9-7.2-1.7-10.8-2.2-7.3-1.2-14.7-1.6-22-1.2-4.1.3-8.1.7-12.2 1.5 7.2-.8 14.5-1 21.8-.6s14.6 1.4 21.7 3.1c4 .9 8 1.9 12 3.1.1 0 .1-.1 0-.2Zm44.6 16.6c-2.1-2.4-4.4-4.6-7-6.6 0 0-.1 0 0 0 8.5 7.5 14.4 17.5 16.8 28.6.7 3.1 1.1 6.3 1.1 9.5.4-11.5-3.5-22.8-11-31.6Zm-45.8 329.6c0-.6-.3-1.1-.3-1.7s0-1.2-.1-1.8v-7.2c0-.6 0-1.1.1-1.7v-.8c0-.4.2-.8.3-1.2 0-1.2 0-2.3-.3-3.5-.1-1-.2-1.9-.3-2.9-.4.9-.8 1.9-1.2 2.8v3.6c0 .3.2.5.3.8 0 .3.1.6.2 1 .2 1.2.3 2.4.4 3.7.2 2.4.3 4.8.2 7.2 0 .7-.2 1.3-.2 2s-.1 1.4-.2 2.1c-.2 1.3-.3 2.6-.3 4v4.1c-.1 1.3.1 2.6.7 3.7.1.2.4.3.6.1 0 0 .1 0 .1-.1.5-1 .8-2.1.7-3.2v-3.7c0-2.4-.3-4.8-.7-7.2Zm-2.1 10.3c0-.3 0-.7-.1-1 0-.4-.3-.7-.4-1 0 0 0-.1-.1-.1 0 0-.1 0-.1.1 0 .3-.2.7-.3 1 0 .3 0 .7-.1 1 0 .6-.2 1.2-.4 1.8-.1.6-.2 1.3-.2 2 0 .3.1.7.2 1 0 .3 0 .5.1.8 0 .2.3.2.3 0 .1-.2.3-.5.4-.7.2-.3.4-.6.5-.9.2-.7.3-1.3.3-2s-.1-1.3-.2-2Zm15.2-49.7c-.9-1.5-1.9-2.9-3.1-4.2-.6-.7-1.1-1.3-1.7-2v.1c.5.6 1.1 1.3 1.6 2 .9 1.5 2 2.9 3.1 4.2h.2v-.1Zm-.6 5.9c-.9-1.3-1.8-2.5-2.9-3.7-.9-1-1.8-2.1-2.7-3.1v.1c.8.9 1.6 1.8 2.3 2.7 1.1 1.4 1.9 2.9 3 4.2.1.2.4 0 .3-.2m-.9 5.6c-.7-1.2-1.7-2.2-2.5-3.4-.8-1.1-1.6-2.3-2.4-3.4-.3-.4-.7-.8-1-1.3v.2c.4.5.8 1 1.2 1.6.8 1.1 1.5 2.1 2.3 3.2.7 1.1 1.4 2.2 2.3 3.2h.1zm42.7 18.7c0-.5-.4-1-.8-1.4-.5-.4-.9-.7-1.4-1.1-.9-.7-1.8-1.5-2.7-2.2-1.7-1.4-3.5-3-5.1-4.5-1.7-1.7-3.2-3.5-4.6-5.4-1.5-2-2.9-4-4.2-6.2-1.4-2.2-2.6-4.5-3.9-6.7-.3-.5-.6-1.1-.8-1.7s-.4-1.3-.8-1.8c-.7-1.1-1.4-2.1-2.1-3.2-1.2-2.1-2.2-4.3-3.1-6.5-1-2.3-2.2-4.6-3.4-6.9-1.9-3.5-3.7-7.1-5.6-10.6 0 .1 0 .2-.1.3 1.5 3 2.9 6 4.3 9 1.1 2.4 2.2 4.8 3.2 7.2 1 2.3 1.8 4.7 2.7 7 .5 1.1.9 2.3 1.4 3.4l.9 1.5c.4.5.8 1 1.4 1.5.9 1 1.7 2.1 2.3 3.3.8 1.1 1.5 2.1 2.3 3.2q3.75 6.3 8.1 12c1.7 2 3.2 4.1 5 6 .9.9 1.9 1.8 2.9 2.7.5.4 1 .8 1.4 1.2.3.2.5.4.9.6.3 0 .7.1 1 0 .4 0 .6-.3.6-.6v-.1Zm7.2 4.8c-.2-.2-.5-.3-.8-.3-.1 0-.3 0-.4.1-.1 0-.2 0-.3-.1-.2-.1-.4-.2-.6-.4l-.6-.6s-.1-.2 0-.1c0 0-.2-.2 0-.1-.1-.1-.2-.3-.3-.4l-.1-.1-.1-.2c0-.1-.2-.2-.3-.3-.2-.2-.5-.4-.7-.6s-.5-.3-.8-.5c-.2 0-.4-.1-.6-.2h-.5c-.4 0-.8.4-.8.8 0 .2 0 .4.2.5 0 .1.1.2.2.3s.3.2.5.3.5.3.7.4c.5.3.9.6 1.4.9.5.2.9.5 1.4.8.2.1.4.3.7.4h.4c.1.2.3.3.5.4h.9c.4-.1.6-.5.5-.9 0-.2-.2-.3-.3-.4Zm3.6 1.9c-.2 0-.4-.1-.6-.1h-1.2.1s.1 0 .2.1c0 0 0 .2.2.2.1.1.2.2.4.2.2.1.4.2.6.2.1 0 .2 0 .3-.1 0 0 .2-.2.2-.3v-.3c0-.1-.1-.2-.2-.3ZM288 242.7c-.5-1.5-1.5-2.8-2.9-3.6-.1 0-.3.1-.2.2 2.5 2.2 3.3 5.8 3 9q-.45 2.85-1.5 5.4c-.7 1.8-1.4 3.6-2.2 5.3-3.1 6.6-6.9 12.9-10.5 19.2-7.5 13.1-14.9 26.2-22.6 39.1-2.2 3.6-4.4 7.2-6.6 10.7-1.1 1.8-2.3 3.6-3.4 5.4-1.2 1.8-2.1 3.7-3.2 5.6 1.2-1.6 2.5-3.1 3.5-4.7 1.1-1.6 2.1-3.3 3.2-4.9 2.1-3.2 4.1-6.5 6.1-9.7 4-6.6 7.9-13.2 11.8-19.9 3.8-6.7 7.6-13.4 11.3-20.2 3.6-6.6 7.4-13.3 10.5-20.2 1.7-3.7 3.1-7.5 3.9-11.5.4-1.7.3-3.6-.3-5.2Zm28 3.2c-.7-1.4-1.4-2.8-2.3-4.1-.4-.6-.9-1.2-1.3-1.8-.5-.6-1.2-1.2-1.8-1.7h-.1c.4.6.7 1.3 1.1 2 .4.6.8 1.3 1.2 1.9.8 1.3 1.5 2.6 2.2 4 1.3 2.8 2.3 5.7 3.3 8.6 0 .1.3.1.3 0-.3-3.1-1.1-6.1-2.5-8.9ZM204.6 386.4c-.5-.5-1.1-1-1.6-1.5.5.5 1 1.1 1.5 1.6s1 1 1.6 1.5c-.4-.6-.9-1.1-1.5-1.6m6.7.6c-.8-.6-1.7-1.3-2.5-1.9-1.5-1.2-3-2.4-4.6-3.6q2.1 2.1 4.5 3.9c.8.6 1.5 1.2 2.3 1.8.7.6 1.4 1.2 2.3 1.5-.6-.7-1.3-1.3-2-1.7m6.6-.6c-1.2-.9-2.3-1.8-3.4-2.8-2.1-1.7-4.1-3.5-6.3-5.1 2 1.9 4.2 3.6 6.3 5.4 1 .9 2.1 1.7 3.1 2.6.8.7 1.6 2.4 2.9 2.3.1 0 .2 0 .2-.2-.2-1.2-1.9-1.7-2.7-2.3Zm7.4.4c-.9-.5-1.8-1.1-2.6-1.8-1.5-1.2-3.1-2.3-4.7-3.4 0 0-.1 0 0 0 1.5 1.2 3.1 2.3 4.7 3.4.9.6 1.7 1.2 2.4 1.9.6.5 1.2 1.5 2.1 1.5 0 0 .2 0 .2-.2-.3-.8-1.3-1.1-2-1.5Zm5-.6c-.5-.3-1-.6-1.4-.8-1-.6-1.9-1.2-2.9-1.7l2.7 1.9c.4.3.9.6 1.3.9s.9.8 1.4.7v-.1c-.2-.5-.7-.7-1.1-.9m3.3-1.3c-.2-.1-.5-.2-.8-.3-.3 0-.6 0-.9-.1.5.2 1 .5 1.5.7.2.1.5.3.7.4s.5.2.7.3h.1c-.3-.4-.8-.8-1.3-1m7.6-2.2c-.5-.5-1-1-1.7-1.4s-1.3-.9-2-1.3c-1.3-.9-2.7-1.7-4.1-2.5-2.8-1.6-5.5-3.2-8.2-4.9 2.6 1.8 5.3 3.6 7.9 5.5 1.3.9 2.6 1.7 3.9 2.6s2.7 1.7 4.1 2.3c.2 0 .3-.2.2-.3Zm3.6-3c-.3-.3-.7-.5-1.2-.7s-.9-.4-1.4-.7c-.9-.4-1.8-.9-2.7-1.4-1.8-1-3.5-2.1-5.2-3.2 1.6 1.2 3.4 2.4 5.1 3.4.9.5 1.8 1 2.6 1.5.4.2.9.5 1.3.7s.8.4 1.2.5c0 0 .1 0 .1-.1Zm3-1.9c-.3-.3-.7-.5-1.1-.6l-1.2-.3c.4.1.8.2 1.2.4s.8.3 1.1.5m27.9-2.6h-.1c1.9 2.7 3.4 5.6 5.1 8.4q-2.1-4.5-5.1-8.4Zm-62.3 165.2c3.6 5.5 6.2 11.5 7.8 17.9 0 .1.2 0 .2 0-1.1-6.5-3.9-12.7-7.9-17.9Zm-14.6-83.5s-.2 0-.1.1c1 1.2 2.2 2.4 3.3 3.5-1-1.2-2.1-2.4-3.3-3.5Zm-7.9-.1c-.3 3.9-.7 7.7-1.4 11.6.7-3.8 1.2-7.7 1.4-11.6h-.1Zm12.2 50c-.4.5-.8 1-1.1 1.5s-.5 1-.7 1.6c-.5 1.1-.9 2.2-1.3 3.4 0 .1 0 .2-.1.4.2-.8.3-1.6.4-2.4.2-1.3.1-2.5 0-3.8 0-.6-.3-1.2-.5-1.8-.4-.5-.8-1-1.2-1.4h-.1c.2.5.2 1 .4 1.5s.6 1 .9 1.5c.7 1.3.8 2.9.3 4.3-.4 1.2-.9 2.4-1.4 3.6-.2.6-.4 1.3-.7 1.9s-.6 1.2-1.1 1.8c-.3.5-.1 1.2.4 1.5.2.1.6.2.7.4.2.3.6.4 1 .2.1 0 .3-.2.3-.4.5-2.4 1.1-4.7 1.9-7l1.2-3.3c.2-.6.5-1.1.7-1.7s.2-1.2.3-1.8Zm2.3 1.9s-.1-.1-.2 0c-.9.2-1 1.9-1.2 2.6-.3 1.1-.6 2.2-1.1 3.2l-1.5 3.3c-.3.5-.5 1-.8 1.6-.2.4-.5.7-.2 1.1 0 0 .1.1.2 0 .5 0 .5-.5.7-.9.2-.6.4-1.1.6-1.7.4-1.1.7-2.2 1.2-3.2q.6-1.65 1.5-3.3c.4-.6 1.4-2 .9-2.7Zm-74.4 6.4c-.5-1.2-1-2.4-1.3-3.6-.4-1.3-.6-2.6-.7-3.9 0-1.1.3-2.4-.3-3.3 0 0-.2-.1-.3 0-1.1.5-.4 1.9 0 2.7.4 1.3.8 2.6 1 4 .5 2.5 1.3 5 2.2 7.4 0 0 0 .1.2 0v-.1c0-1.1-.3-2.2-.8-3.2m-3.5-4.1c.3 1.8.8 3.6 1.5 5.3-.5-1.8-1.1-3.5-1.6-5.2Zm5.8-20.2c-.1-.7-.2-1.4-.1-2.2v-.9l-.3 1.2c0 .6 0 1.2-.2 1.9-.2.5-.5 1-.7 1.5-.2.6-.3 1.3-.1 2 .1.4.4.7.8.8h.6c.4-.1.7-.4.8-.8.2-.7.1-1.4-.1-2-.2-.5-.5-1-.7-1.5m.7 6.4v-.2s0-.2-.1-.2-.3 0-.3.2v.3c0 .2 0 .3.1.3l.1.1h.2v-.3ZM269.4 224c-1-1.4-2.2-2.6-3.3-3.9-1.1-1.4-2.2-2.8-3.4-4.1-2.3-2.7-4.8-5.2-7.4-7.6 2.4 2.5 4.7 5 7 7.6l3.3 3.9c.6.7 1.1 1.4 1.7 2.2.5.8 1 1.6 1.5 2.3.2.4.9 0 .6-.4m1.1-2.7c-.4-.5-.9-1-1.4-1.5l-2.7-3.3c-.9-1.1-1.8-2.2-2.6-3.4-.4-.5-.7-1.1-1.1-1.6-.2-.3-.4-.5-.7-.8-.2-.1-.5-.1-.7-.3.1.2 0 .5 0 .7.1.2.3.5.5.7.4.5.9 1 1.4 1.5 1 1 1.9 2.1 2.8 3.2s1.9 2.2 2.7 3.4c.4.6.8 1.1 1.2 1.7.3.4.5.9 1 .9 0-.5-.3-.8-.6-1.1Zm-2.9-8.7c0-.2-.1-.3-.2-.5-.2-.3-.3-.6-.6-.8-.2-.3-.5-.5-.7-.7-.1-.1-.3-.2-.5-.2h-.4v.2c0 .2.1.3.3.5s.4.5.6.7.4.4.7.6c.1.1.2.2.4.3.1.1.2.2.4.3h.2c0-.1-.1-.3-.2-.4m5.5 5.8c-.1-.3-.3-.5-.5-.7l-.3-.3c0-.1-.2-.2-.3-.3-.5-.4-.9-.9-1.3-1.3-.2-.2-.5.1-.3.3.4.4.8.8 1.1 1.2 0 0 .1.2.2.3 0 .1.1.2.2.3.1.3.3.5.4.7s.4.5.7.4.1-.5 0-.7Zm2-2.4c-.3-.2-.6-.4-.9-.7-.5-.4-1-.9-1.4-1.4s-.8-1.1-1.3-1.6c-.2-.2-.5-.5-.8-.7-.1 0-.2-.2-.4-.2h-.4c0 .1 0 .3.1.4 0 .1.2.3.3.4.2.3.4.5.7.7.5.4 1.1.8 1.7 1.2.5.4 1 .9 1.4 1.4l.6.9c.1.3.4.5.7.6.1 0 .3-.1.3-.3 0-.3-.3-.6-.5-.7Zm3.8.2c-.1-.2-.3-.4-.6-.5l-.6-.6c-.4-.4-.8-.8-1.2-1.3-.3-.5-.7-.9-1.1-1.3-.2-.2-.4-.4-.6-.5-.2-.2-.5-.3-.8-.4.1.2.2.5.4.7s.3.4.5.6c.4.4.8.8 1.3 1.1s.9.7 1.3 1.1l.6.6q.15.3.6.6h.2v-.2Zm2.3-1.8c-.2-.2-.4-.4-.7-.6-.2-.2-.4-.4-.7-.5-.2-.2-.5-.3-.8-.4 0 0-.1 0 0 0l.6.6.6.6c.2.2.4.4.6.5.2.2.5.3.7.5-.2-.2-.3-.4-.5-.6Zm4.2 0s-.2-.1-.3-.2c0 0-.2-.1-.3-.2-.2-.1-.3-.3-.5-.5 0 0-.2 0 0 0 .1.2.3.3.5.5 0 0 .2.1.3.2 0 0 .2.1.3.1Zm-223.5 5c-1-1.2-1.9-2.4-2.8-3.6-.4-.6-3.9-6-4.6-5.4-.3.3.1.8.3 1l1.2 1.5c.9 1.1 2 2.1 2.9 3.2.9 1 1.8 2.1 2.7 3.2.5.6.9 1.2 1.4 1.8.4.6.8 1.1 1.3 1.6h.1c-.8-1.2-1.6-2.2-2.6-3.2Zm-3.5.7c-.4-.5-.8-.9-1.2-1.4-.9-1-1.7-2-2.5-3.1l-2.1-3c-.3-.5-.7-1-1-1.4-.3-.3-.6-.7-1-.7-.1.4.2.8.4 1.1.4.5.8.9 1.2 1.4.9.9 1.7 1.8 2.5 2.7.8 1 1.6 2 2.3 3 .4.5.7 1 1 1.5.2.4.4.9.9.9 0 0 .1 0 .1-.1 0-.4-.3-.7-.6-1Zm-10.3-7.3c-.2-.4-.5-.7-.8-1h-.2v.2s0 .2.2.3c0 0 .1.2.2.3.1.2.3.3.4.5.3.3.6.6.8 1 0 0 .1 0 0 0-.2-.4-.4-.7-.7-1.1Zm5.3 6.5s-.1-.2-.2-.3l-.5-.5c-.4-.3-.7-.7-1.1-1.1-.1-.1-.3 0-.2.2.3.4.7.7 1 1.1.2.2.3.4.5.5l.3.3s.2.1.3.2c0 0 .1 0 0 0 0-.1 0-.2-.1-.3Zm11.3-38.6s-.1 0 0 0c2 2.7 3.8 5.6 5.8 8.3-1.6-3-3.6-5.8-5.8-8.4Zm-1.7 2.5c.9 1.2 1.9 2.3 2.9 3.4-.9-1.2-1.9-2.3-2.9-3.4" class="st0"/></svg>