<svg xmlns="http://www.w3.org/2000/svg" data-name="nudibranch" viewBox="0 0 261.826 482.71"><path fill="currentColor" d="M260.45 79.105a9.26 9.26 0 0 0-2.692-3.544 47 47 0 0 0-4.521-2.653 34.6 34.6 0 0 1-4.026-3.503 11.6 11.6 0 0 0-4.409-2.442c-7.225-2.068-13.93 2.354-20.675 4.107a21.5 21.5 0 0 1-5.586.67 28 28 0 0 0-5.972.307 10.96 10.96 0 0 0-7.164 5.516c-3.347 6.032-.947 13.274 3.835 17.768a25.25 25.25 0 0 0 9.182 5.278 39.5 39.5 0 0 0 7.654 1.804c-1.143 1.799-1.187 4.206-.98 6.302.158 1.595.457 3.173.523 4.777a8.9 8.9 0 0 1-.936 4.575c-.663 1.289-1.24 2.703-.626 4.115a7.5 7.5 0 0 0-3.52 1.216c-2.522 1.663-3.67 4.626-5.215 7.098-3.144 5.03-7.074 9.491-10.503 14.318-.949 1.335-1.853 2.688-2.668 4.11-.422.739-.853 1.484-1.208 2.258-.132.288-.303.602-.42.923a3.8 3.8 0 0 0-3.413.268 12.6 12.6 0 0 1-3.354 1.045 15.8 15.8 0 0 1-7.105-.436 13.2 13.2 0 0 1-3.653-1.718c-.441-.3-.857-.628-1.265-.964a18 18 0 0 1-1.12-3.245 37.2 37.2 0 0 1-.623-8.087l-.1-8.873-.391-35.014-.197-17.586c-.064-5.748-.264-11.52.061-17.263.328-5.777 1.584-11.458 1.753-17.247a123 123 0 0 0-1.023-17.466c-.549-4.828-.886-9.847-2.288-14.523-1.24-4.137-3.562-8.194-7.668-10.027a10.18 10.18 0 0 0-6.84-.642 12.04 12.04 0 0 0-5.52 3.552c-3.191 3.476-5.215 8.086-6.77 12.486-3.379 9.568-4.111 19.85-4.437 29.916-.364 11.269-.572 22.54-1.023 33.806q-.696 17.402-1.78 34.784-.543 8.73-1.175 17.454c-.422 5.81-1.001 11.617-1.185 17.44-.01.331-.029.663-.04.995-.547.926-1.11 1.84-1.689 2.756a32.6 32.6 0 0 0-2.125 4.484l-4.02 9.246c-2.642 6.075-5.222 12.176-7.791 18.282-.734 1.745-1.472 3.487-2.19 5.239a60 60 0 0 0-.963 2.526 5.8 5.8 0 0 0-.583 2.131c-2.862 2.525-5.893 4.86-8.767 7.383a164 164 0 0 0-7.278 6.812 147 147 0 0 0-3.389 3.496c-.815.864-1.698 1.667-2.475 2.561a72 72 0 0 0-8.646 4.739c-2.816 2.008-5.103 4.715-5.706 8.213-.727 4.22.56 8.6 1.506 12.687.393 1.7.81 3.394 1.232 5.087-.167.93-.338 1.86-.441 2.798-.16 1.45-.27 2.905-.378 4.36-.217 2.9-.265 5.815-.355 8.722a901 901 0 0 0-.392 17.572c-.065 5.733-.244 11.53.172 17.254a48.1 48.1 0 0 0 3.869 15.573 69 69 0 0 0 2.287 4.761c.219 2.708.51 5.416.523 8.135a23.3 23.3 0 0 1-1.338 8.143 36.7 36.7 0 0 1-3.542 6.875c-1.465 2.342-3.014 4.634-4.546 6.933q-9.167 13.754-18.874 27.138-9.78 13.485-20.093 26.573-10.272 13.032-21.056 25.649-5.37 6.283-10.862 12.458c-3.692 4.164-7.236 8.462-10.767 12.762-.87 1.06-1.78 2.086-2.645 3.15a.176.176 0 0 0 .248.248 257 257 0 0 0 11.874-11.842c3.832-4.071 7.479-8.325 11.13-12.558q10.963-12.711 21.41-25.855 10.443-13.139 20.36-26.685 9.913-13.545 19.277-27.481 2.32-3.454 4.607-6.93a63 63 0 0 0 4.043-6.793 23.9 23.9 0 0 0 2.391-7.72 29.5 29.5 0 0 0-.372-8.617c-.031-.175-.07-.348-.103-.523a56.6 56.6 0 0 0 4.728 7.334c.113.143.383-.012.313-.183-.968-2.373-2.244-4.602-3.405-6.884-1.17-2.3-2.31-4.603-3.344-6.968a48.7 48.7 0 0 1-4.118-15.006c-.516-5.655-.342-11.4-.292-17.072.05-5.775.18-11.55.35-17.323.094-3.198.237-6.395.292-9.594.027-1.593-.01-3.184-.044-4.776l.612 2.428a17.7 17.7 0 0 0 1.117 3.594c.111.223.436.102.444-.12a15 15 0 0 0-.374-3.162c-.196-1.097-.389-2.196-.591-3.292-.406-2.192-.788-4.388-1.21-6.577-.415-2.151-.891-4.29-1.33-6.436a24.6 24.6 0 0 1-.65-5.935 10.73 10.73 0 0 1 4.626-8.253 56 56 0 0 1 8.38-4.685 41 41 0 0 0 5.828-3.495 36.6 36.6 0 0 0 4.987-4.586c.131-.14-.038-.388-.213-.276-1.745 1.131-3.56 2.15-5.343 3.221-.84.504-1.678 1.011-2.522 1.509.95-.877 1.928-1.723 2.876-2.602q3.135-2.907 6.332-5.75a190 190 0 0 1 6.577-5.552c2.189-1.774 4.387-3.546 6.4-5.52 3.816-3.743 6.921-8.346 11.523-11.21a13.74 13.74 0 0 1 7.122-2.29c2.828-.01 5.492 1.162 8.063 2.213l9.44 3.857c1.53.625 3.09 1.177 4.646 1.733 1.328.475 2.7.82 4.053 1.227l.008.013a1.7 1.7 0 0 0-.196.738 10 10 0 0 0 .084 1.237 22 22 0 0 1-.03 2.576c-.107 1.733-.455 3.433-.673 5.153-.004.026.04.032.046.006a61 61 0 0 1 1.46-6.185 14 14 0 0 1 .545-1.49 4.2 4.2 0 0 0 .536-1.477 1.1 1.1 0 0 0-.062-.433c1.13.404 2.26.81 3.394 1.202 2.461.85 4.89 1.773 7.366 2.576q3.706 1.201 7.444 2.297 6.228 1.822 12.54 3.319c.187.181.378.357.595.534.078.063.246.006.195-.114-.04-.098-.086-.175-.127-.265.568.133 1.134.271 1.703.4a47 47 0 0 1 5.312 1.435 29.5 29.5 0 0 0-4.856-.56c-1.808-.104-3.66-.382-5.446-.668a9.9 9.9 0 0 0-4.865-.014 5.13 5.13 0 0 0-2.738 2.59 20 20 0 0 0-1.387 3.87 10.8 10.8 0 0 0-.447 4.274 4.9 4.9 0 0 0 1.856 3.296 7.95 7.95 0 0 0 3.12 1.474 22.5 22.5 0 0 0 4.404.362c1.037.047 2.047.261 3.072.41a29 29 0 0 0 3.005.24.44.44 0 0 0 .422-.554 9 9 0 0 1-.27-4.188 18.3 18.3 0 0 1 1.252-4.058c.92-2.153 2.524-5.157 5.082-5.557a11.8 11.8 0 0 1 3.694 2.816 12.77 12.77 0 0 1 2.479 10.824 17.52 17.52 0 0 1-6.582 9.863 28.86 28.86 0 0 1-12.45 5.162 62.4 62.4 0 0 1-15.07.792 112 112 0 0 1-15.368-2.076c-1.649-.327-3.292-.678-4.937-1.02-1.609-1.792-3.222-3.578-4.778-5.418-.04-.048-.12.014-.085.066a33 33 0 0 0 4.401 5.26c-.743-.154-1.484-.312-2.23-.451-.66-.124-1.335-.255-2.016-.376-.257-.25-.52-.494-.781-.741q-.478-.453-.953-.909c-.233-.223-.482-.429-.725-.64a18 18 0 0 0 1.413-1.327c.4-.418.759-.863 1.116-1.317.46-.584.882-1.199 1.362-1.762.045-.053-.028-.129-.077-.077a31 31 0 0 1-2.578 2.25 16 16 0 0 1-2.843 1.97c-2.066 1.072-4.457 1.176-6.56 2.172-3.58 1.697-6.05 5.13-8.334 8.227a53 53 0 0 1-3.704 4.668 27.7 27.7 0 0 1-4.596 3.948 37.9 37.9 0 0 1-11.255 5.073 76.3 76.3 0 0 1-14.209 2.446.152.152 0 0 0 0 .304c8.49.129 17.33-.94 24.835-5.183a27.9 27.9 0 0 0 6.563-5.215 39 39 0 0 1-1.36 2.285 32.4 32.4 0 0 1-4.06 5.057 36.4 36.4 0 0 1-10.592 7.348 32 32 0 0 1-6.988 2.228.141.141 0 0 0 .037.277c8.944-.648 17.19-6.086 22.07-13.479a27 27 0 0 0 1.877-3.329 9.4 9.4 0 0 0 .952-2.61q.362-.445.713-.902c.46-.606.915-1.23 1.372-1.857 1.263 2.38 2.665 4.673 3.85 7.097 1.29 2.642 2.536 5.307 3.813 7.956 2.469 5.12 5.126 10.219 6.812 15.666a39.2 39.2 0 0 1 1.287 16.78 84.5 84.5 0 0 1-4.456 16.74c-2.15 6.193-4.426 12.337-6.336 18.61-.063.205.242.28.316.086 2.136-5.578 4.84-10.912 7.124-16.429.07-.167.134-.337.203-.505q.12.608.27 1.22a26 26 0 0 0 .96 3.088c.032.083.182.082.17-.022a26 26 0 0 0-.589-3.153 22 22 0 0 0-.531-1.83 92 92 0 0 0 2.052-5.646q.42 1.93.955 3.833a36.5 36.5 0 0 0 1.73 5.024c.026.058.114.016.1-.042-.412-1.751-.972-3.458-1.494-5.179-.4-1.318-.785-2.64-1.188-3.956q.787-2.452 1.405-4.952c.46 1.63.916 3.262 1.394 4.888.349 1.188.714 2.37 1.076 3.554a23 23 0 0 0 1.204 3.41c.036.073.13.016.121-.052a24 24 0 0 0-.948-3.59c-.365-1.183-.728-2.367-1.106-3.546-.54-1.682-1.1-3.355-1.658-5.03.35-1.46.659-2.928.902-4.41.037-.223.063-.449.097-.673 1.932 5.054 3.52 10.209 5.22 15.345a.059.059 0 0 0 .113-.03 98 98 0 0 0-5.276-15.71 41.6 41.6 0 0 0-.649-16.369c-1.445-5.604-4.063-10.82-6.567-16.007-1.468-3.04-2.905-6.1-4.435-9.11-1.425-2.802-2.896-5.822-5.216-7.998l-.02-.013a23.3 23.3 0 0 1 5.813-6.006 14.5 14.5 0 0 1 2.123-1.107 30 30 0 0 1 3.46.466c1.263.231 2.55.31 3.82.49.323.047.644.104.967.155q.682.442 1.346.91a26 26 0 0 1 2.72 2.194.047.047 0 0 0 .066-.066 22 22 0 0 0-2.623-2.419c-.225-.176-.468-.327-.703-.49 1.617.28 3.225.615 4.831.955 2.096 1.839 4.192 3.676 6.235 5.575a.066.066 0 0 0 .094-.094 54 54 0 0 0-5.527-5.313l.484.101c.847.179 1.697.343 2.546.511 2.339 1.88 4.474 3.98 6.65 6.04.045.043.104-.02.067-.066a35.8 35.8 0 0 0-6.467-5.924q1.53.3 3.065.573c.914.86 1.822 1.727 2.738 2.585a43 43 0 0 0 3.227 2.896c.041.032.081-.033.052-.067a31.5 31.5 0 0 0-3.135-3.062c-.88-.794-1.79-1.555-2.697-2.318q1.099.194 2.201.368 1.497 1.296 2.92 2.674.852.825 1.667 1.688a11 11 0 0 0 1.675 1.611c.048.033.097-.03.074-.075a8 8 0 0 0-1.47-1.815q-.849-.873-1.738-1.706a41 41 0 0 0-2.738-2.314c.717.112 1.436.205 2.155.304a6.7 6.7 0 0 1 1.41 1.236c.547.6 1.076 1.217 1.627 1.814l1.65 1.792a11.6 11.6 0 0 0 1.705 1.662c.043.03.094-.028.07-.069a11.6 11.6 0 0 0-1.534-1.834l-1.748-1.88q-.82-.884-1.672-1.742a7.3 7.3 0 0 0-1.083-.919q1.121.151 2.245.284 1.27 1.335 2.535 2.675c.57.601 1.12 1.221 1.687 1.826q.249.266.496.534c-.127.162-.262.32-.388.484-1.234 1.603-2.375 3.275-3.468 4.977a6.6 6.6 0 0 0-2.253-1.201c-1.058-.465-2.118-.932-3.196-1.35a31 31 0 0 0-3.326-1.048c-.52-.137-1.048-.297-1.579-.393a6 6 0 0 0-.716-.024 7 7 0 0 1-.942-.184c-2.366-.447-4.763-.67-7.124-1.171a49 49 0 0 1-6.708-2.037c-2.538-.93-5.073-1.897-7.558-2.96-.058-.025-.11.057-.05.087 2.074 1.055 4.098 2.21 6.224 3.161a51 51 0 0 0 6.32 2.372c2.295.68 4.656 1.085 6.953 1.74.54.154 1.08.28 1.626.408.587.137 1.11.381 1.684.54 1.12.308 2.242.608 3.36.93 1.263.364 2.54.676 3.787 1.096.586.197 1.165.41 1.743.63a5.4 5.4 0 0 0 1.146.36c-.222.36-.464.706-.68 1.07l-.353.594c-1.327-.213-2.674-.308-4-.55q-2.25-.41-4.499-.829c-3.009-.56-6.05-.893-9.061-1.442-.049-.009-.07.064-.02.075 2.9.675 5.754 1.53 8.666 2.159-.015.07-.026.141-.047.21a.024.024 0 0 0 .042.018c.037-.065.084-.123.127-.184a15.6 15.6 0 0 0 1.245 2.294 57 57 0 0 0 1.655 2.565 32.4 32.4 0 0 0 2.957 3.757c.093 2.48 1.58 4.533 3.133 6.433a39.4 39.4 0 0 0 4.064 4.269 8.8 8.8 0 0 0-1.813.39 9.7 9.7 0 0 0-3.47 2.082c-.093.087.025.23.132.172a18 18 0 0 1 1.783-.875 14 14 0 0 1 1.844-.556 20 20 0 0 1 1.898-.382c.163-.025.337-.043.513-.063a40.3 40.3 0 0 0 6.958 4.79l.166.085c-.6.913-1.2 1.824-1.782 2.749q-.34.539-.663 1.092a27 27 0 0 0-2.27 1.282 41.4 41.4 0 0 0 2.694-5.417c.036-.085-.087-.162-.129-.075-.94 1.99-2.028 3.913-3.1 5.838a31.6 31.6 0 0 0-3.926 3.03 49.5 49.5 0 0 0-10.89 15.356c-1.622 3.375-3.01 6.857-4.394 10.335-.033.082.106.14.143.06 2.874-6.325 5.924-12.813 10.243-18.302a36.2 36.2 0 0 1 13.007-10.593.126.126 0 0 0 .184.097 5 5 0 0 0 .499-.399c.268-.115.53-.247.801-.354 1.594-.627 3.249-.989 4.884-1.477a2.65 2.65 0 0 0 1.047-.529q.508.14 1.02.25a11.1 11.1 0 0 0 4.294.128 10.4 10.4 0 0 0 3.755-1.612c.318-.209.618-.448.926-.673-.029.391-.067.784-.08 1.176a11 11 0 0 0 .022 1.3 5.7 5.7 0 0 0 .187 1.338.142.142 0 0 0 .257.034 5.6 5.6 0 0 0 .351-1.264 12 12 0 0 0 .19-1.308c.047-.432.059-.868.083-1.3a7 7 0 0 0 .032-.701l-.004-.039a56 56 0 0 0 1.666-1.38c.193-.165.371-.343.56-.511a37 37 0 0 0-.95 5.029 27.7 27.7 0 0 0-.434 6.247.11.11 0 0 0 .215.029 49 49 0 0 0 1.018-6.236c.248-1.841.637-3.721.718-5.588a19 19 0 0 0 1.771-1.882 14.1 14.1 0 0 0 2.098-3.44 4.8 4.8 0 0 0 .319-1.952q.265-.152.529-.308a12.7 12.7 0 0 0 1.56 2.813 24.6 24.6 0 0 0 3.038 3.47c2.522 2.427 5.304 4.603 8.04 6.781a.16.16 0 0 0 .226-.226q-3.412-3.776-6.992-7.39a36 36 0 0 1-2.918-3.215c-.112-.144-.21-.294-.316-.44.12.096.238.194.364.284a9.4 9.4 0 0 0 2.675 1.311c.736.227 1.633.164 2.2.672.045.1.082.206.132.304.024.046.085.011.078-.034l-.007-.035.025.03a44.3 44.3 0 0 0 9.435 10.223.121.121 0 0 0 .17-.171 69 69 0 0 1-4.316-5.443c-1.24-1.77-2.268-3.673-3.478-5.458q-.305-1.289-.628-2.573-.684-2.745-1.483-5.455c1.698-1.004 3.4-2.003 5.075-3.046a1 1 0 0 0 .195.019 2.9 2.9 0 0 0 1.088-.36 34 34 0 0 0 1.964-.995c1.329-.717 2.637-1.466 3.891-2.308a43.3 43.3 0 0 0 6.834-5.776c.327-.334-.186-.849-.513-.513a34 34 0 0 1-6.96 5.403c-.15.088-.307.168-.457.255a23.4 23.4 0 0 0 2.85-2.83 24.6 24.6 0 0 0 2.607-3.902 9.7 9.7 0 0 0 1.423-4.231.114.114 0 0 0-.21-.058c-.693 1.196-1.218 2.476-1.96 3.644a17.5 17.5 0 0 1-2.659 3.102 47 47 0 0 1-6.618 5.245c-4.436 2.987-9.144 5.55-13.72 8.319a1 1 0 0 1-.12-.064.098.098 0 0 0-.143.058c-.015.068-.024.125-.036.186-.407.247-.82.486-1.224.738a.11.11 0 0 0-.116.074q-.933.579-1.853 1.177c-1.737 1.135-3.483 2.257-5.225 3.384-.907.587-1.801 1.192-2.7 1.79-.415.277-.83.554-1.237.842-.483.34-.873.79-1.344 1.15a.102.102 0 0 0 .102.176c.466-.208.958-.325 1.427-.517.456-.186.896-.45 1.331-.68.881-.464 1.766-.922 2.645-1.391 1.683-.899 3.356-1.818 5.03-2.73.212-.116.418-.24.629-.356-.033.066-.07.128-.103.196a11.8 11.8 0 0 1-1.718 2.633 34.4 34.4 0 0 1-5.145 4.722c-2.056 1.59-4.21 2.686-6.876 2.382a21.6 21.6 0 0 1-7.034-2.472 38.7 38.7 0 0 1-11.314-8.647c-1.496-1.663-3.458-3.702-3.745-6.02a5.6 5.6 0 0 1-.013-1.13 42 42 0 0 0 2.713 3.587c.691.825 1.418 1.617 2.133 2.42a10 10 0 0 0 .966 1.126 1.9 1.9 0 0 0 .962.343 2.3 2.3 0 0 1 1.247.864c.37.368.773.678 1.177 1.008.771.63 1.52 1.288 2.283 1.93a55 55 0 0 0 2.162 1.742c.41.311.831.608 1.248.91a5 5 0 0 0 1.105.767c.073.027.12-.075.072-.124a7 7 0 0 0-1.12-.74 27 27 0 0 1-1.239-.912 31 31 0 0 1-2.355-1.985 16.4 16.4 0 0 1-1.935-2.122 6.8 6.8 0 0 0-1.737-2.005 6.5 6.5 0 0 0-1.227-.292 3.4 3.4 0 0 1-1.225-.894c-.704-.704-1.367-1.456-2.02-2.208-1.088-1.254-2.123-2.557-3.156-3.859a16.8 16.8 0 0 1 2.408-5.566 70 70 0 0 1 4.778-7.257c.889-1.183 1.816-2.335 2.734-3.496.46-.584.96-1.148 1.403-1.744a9.6 9.6 0 0 0 .952-1.43 64 64 0 0 0 7.675-.578 34.05 34.05 0 0 0 13.714-4.625 21.05 21.05 0 0 0 8.268-9.554 15.63 15.63 0 0 0 1.04-7.924 1.05 1.05 0 0 0 .493.298 2.33 2.33 0 0 0 1.37-.315c.614-.277 1.222-.558 1.85-.806a19.4 19.4 0 0 1 3.62-1.083 10.23 10.23 0 0 1 6.683.85 11 11 0 0 1 1.367.863c.042.087.078.176.122.262.024.045.088.012.079-.033l-.02-.083a17 17 0 0 1 2.936 2.904 40 40 0 0 1 3.504 5.384c1.348 2.37 2.677 4.752 4.016 7.128l2.11 3.744a24 24 0 0 1 1.721 3.479 8.4 8.4 0 0 1 .54 3.685 15.2 15.2 0 0 1-.997 3.77c-1.102 3.022-2.31 6.006-3.396 9.035-.531 1.484-.91 3.008-1.363 4.515a102 102 0 0 0-1.319 4.785c-.053.216.262.367.372.156a123 123 0 0 0 2.007-4.084q-.339 1.913-.654 3.832c-.7 4.287-1.4 8.674-3.383 12.592a21 21 0 0 1-1.697 2.807c-.71.99-1.528 1.9-2.221 2.904a27 27 0 0 0-2.857 6.773q-2.46 7.163-5.354 14.167a247 247 0 0 1-13.256 27.191 119 119 0 0 1-7.43 11.965 31.5 31.5 0 0 1-9.534 8.978c-2.04 1.164-4.24 2.037-6.208 3.328a50 50 0 0 0-5.37 4.695 32.3 32.3 0 0 1-5.97 4.005c-1.064.58-2.136 1.142-3.198 1.722a28 28 0 0 1-3.031 1.592 4.03 4.03 0 0 1-3.246.102c-.185-.085-.422.155-.237.307a5.14 5.14 0 0 0 4.516.705 148 148 0 0 0 1.511 16.105 36 36 0 0 1-1.912 4.527 33.5 33.5 0 0 0-.317-4.61l-.503-4.722c-.336-3.154-.738-6.298-1.13-9.445-.01-.083-.14-.087-.132 0 .265 3.191.52 6.382.84 9.569l.476 4.722a32 32 0 0 0 .651 4.614c.005.017.021.015.034.022a33 33 0 0 1-2.244 3.767 28 28 0 0 1-4.06 4.65c-1.706 1.568-3.576 2.85-4.928 4.772a63 63 0 0 0-3.601 6.35q-1.812 3.354-3.594 6.722-3.537 6.684-6.96 13.428-6.846 13.486-13.23 27.2c-2.128 4.57-4.242 9.148-6.267 13.765-1.003 2.288-1.909 4.611-2.82 6.937-.922 2.351-1.71 4.754-2.6 7.116-.44 1.164-.886 2.326-1.304 3.498a.192.192 0 0 0 .35.147q1.633-3.357 3.257-6.714c1.088-2.238 2.269-4.433 3.309-6.694 2.106-4.579 4.155-9.183 6.263-13.76q6.302-13.682 13.065-27.145 6.734-13.407 13.918-26.582a18.4 18.4 0 0 1 4.044-5.518 43 43 0 0 0 4.743-4.43 34.8 34.8 0 0 0 6.28-10.872 70 70 0 0 0 2.669-11.698c.642-3.528 1.483-7.26 3.51-10.279q.015-.018.028-.037a30.7 30.7 0 0 0 4.27-3.403c.869-.834 1.714-1.695 2.639-2.47a17.5 17.5 0 0 1 2.958-1.935 69 69 0 0 0 6.18-3.366 30.6 30.6 0 0 0 5.075-4.374 63.6 63.6 0 0 0 7.946-11.08 248 248 0 0 0 14-27.074q3.089-6.992 5.756-14.162 1.328-3.577 2.546-7.194a26 26 0 0 1 1.368-3.531 18.4 18.4 0 0 1 2.078-3.006c5.639-7.123 6.168-16.472 6.674-25.194 1.035-2.35 1.873-4.794 2.779-7.194.913-2.42 2.037-4.877 2.204-7.494a13.2 13.2 0 0 0-2.055-7.052c-1.278-2.346-2.617-4.66-3.927-6.987-1.196-2.125-2.361-4.272-3.619-6.36a28.7 28.7 0 0 0-4.758-6.22.4.4 0 0 0 .102-.076 15.3 15.3 0 0 0 2.123-2.996c.6-1.063 1.159-2.152 1.727-3.233q1.735-3.299 3.426-6.621 3.38-6.644 6.604-13.367a52 52 0 0 0 2.877-6.415 9.27 9.27 0 0 0-.271-6.49 25.5 25.5 0 0 0-3.378-5.435c-1.339-1.791-2.688-3.579-4.164-5.259a29.8 29.8 0 0 0-5.143-4.705l5.498-9.305 6.354-10.755 3.24-5.484a24.2 24.2 0 0 0 2.67-5.152 23 23 0 0 0 .63-5.856q.106-3.114.197-6.23.185-6.293.307-12.587c.082-4.173.152-8.347.184-12.521.024-3.106-.106-6.315-1.375-9.2m-51.423 123.928a12.9 12.9 0 0 0-2.669 4.023 13.65 13.65 0 0 0-.875 8.926c-2.765-.044-5.53.392-8.277-.106a10.9 10.9 0 0 1-3.429-1.054 4.42 4.42 0 0 1-2.054-2.961 8.26 8.26 0 0 1 .261-3.933 23 23 0 0 1 1.22-3.591 5 5 0 0 1 2.103-2.608c1.333-.665 3.131-.284 4.563-.246a31 31 0 0 1 5.34.545c1.343.274 2.672.608 4.024.825q-.107.089-.207.18m-55.105 24.6h-.002a11.4 11.4 0 0 0 1.694-.86 14 14 0 0 0 1.39-1.015 7 7 0 0 0 .508.789 13 13 0 0 0 .907 1.049q.097.099.198.196a16.2 16.2 0 0 0-4.695-.16m68.883 29.433q.403-.24.808-.478c.364 1.84.745 3.674 1.172 5.5q.178.776.346 1.576a3.5 3.5 0 0 0-1.783-.823c-.18-.542-.363-1.081-.526-1.616-.36-1.18-.727-2.357-1.084-3.538.355-.207.713-.41 1.067-.62m-1.16.675c.3 1.215.607 2.428.954 3.63.132.456.258.923.389 1.39a7.7 7.7 0 0 1-2.454-.902c-.092-.054-.175-.125-.266-.182a88 88 0 0 0-.886-2.619q1.133-.654 2.263-1.317m-2.413 1.405c.198.758.41 1.514.645 2.263a12.6 12.6 0 0 1-1.455-1.186q-.193-.19-.383-.383zm-26.203 13.226c.038-.098.063-.2.096-.3.257.12.51.246.77.362q-.14.285-.308.558c-.074.02-.15.031-.223.051-.246.066-.484.158-.728.232q.213-.442.393-.903m-.527-.592-.141.257q-.393.744-.814 1.472l-.083.139q-1.04.374-2.05.827l.252-.458c.519-.964 1.017-1.939 1.517-2.913.434.23.872.458 1.32.676m-16.65-17.965c-.007.078.001.151-.004.228a163 163 0 0 0-2.436-3.525 174 174 0 0 1-1.643-2.364c-.453-.666-.887-1.378-1.396-2.013q1.843.392 3.688.778a1.7 1.7 0 0 0 .278.517c.14.199.288.392.434.586.283.377.587.742.89 1.103.294.35.616.676.919 1.017.067.076.142.145.21.22a11.7 11.7 0 0 0-.94 3.453m1.13-3.89-.016-.025c-.28-.395-.537-.806-.83-1.19-.286-.376-.57-.759-.874-1.12-.124-.146-.252-.32-.39-.483 1.054.246 2.098.55 3.149.803a27 27 0 0 0-1.038 2.015m7.634-11.82c-.133-.151-.26-.307-.393-.458a46 46 0 0 0-1.76-1.848 40 40 0 0 0-2.45-2.25 80 80 0 0 0 1.927.197c.07.006.139.008.208.014q.204.252.416.498c.362.416.735.817 1.115 1.215.37.386.75.76 1.13 1.136a7 7 0 0 0 .602.536q-.404.475-.795.96m1.145-1.367a7 7 0 0 0-.483-.534c-.39-.386-.78-.773-1.181-1.148a36 36 0 0 0-1.195-1.071q-.115-.096-.233-.19c.583.045 1.168.075 1.752.11.323.324.645.65.973.968.29.282.575.57.864.852q.113.107.228.21-.368.395-.725.803m.967-1.066q-.09-.096-.182-.188c-.298-.29-.608-.567-.915-.848-.269-.246-.555-.473-.833-.708q.967.053 1.935.086.383.426.791.828c-.27.272-.535.554-.796.83m1.393-1.387c-.123.1-.235.218-.352.328q-.325-.303-.665-.59c.433.012.866.025 1.299.028q-.145.122-.282.234M179.81 376.5a39 39 0 0 1-.663 2.293 147 147 0 0 0-1.536-15.37c.36-.093.716-.198 1.054-.321.224-.082.445-.176.668-.266-.026.793.065 1.614.089 2.386q.055 1.722.175 3.44c.14 2.056.31 4.113.585 6.156a35 35 0 0 1-.372 1.682m.553-2.637a104 104 0 0 0-.215-5.324 94 94 0 0 0-.27-3.317c-.08-.81-.097-1.684-.245-2.506q.678-.281 1.346-.596c-.002.162-.014.305-.015.33q-.023.458-.016.914.013 1.03.053 2.058a24 24 0 0 0 .282 3.054c-.334 1.816-.602 3.641-.92 5.387m1.458-7.93q-.03-.871-.092-1.73c-.032-.432-.05-.866-.099-1.296a5 5 0 0 0-.165-1.02c.777-.382 1.545-.79 2.297-1.212a20.8 20.8 0 0 0-1.94 5.258m.766-174.026a49 49 0 0 0-2.566-.705c-2.593-.624-5.14-1.537-7.68-2.35-2.562-.82-5.146-1.58-7.721-2.36l-1.94-.587c-2.77-1.19-5.583-2.287-8.373-3.427-2.666-1.088-5.359-2.387-8.225-2.84a13.67 13.67 0 0 0-7.705 1.102c-5.046 2.21-8.503 6.632-12.131 10.584a51 51 0 0 1-2.885 2.877l.025-.042c.425-.748.843-1.506 1.219-2.28q1.077-2.224 2.1-4.471c1.388-3.042 2.78-6.082 4.129-9.142q4.014-9.11 7.984-18.24l1.192-2.738a20 20 0 0 0 1.023-2.539q.104-.375.204-.748l-.062 1.558a14.3 14.3 0 0 0-.3 2.362 13 13 0 0 1 .035 1.473c-.076.57-.115 1.142-.185 1.714-.163 1.327-.54 2.625-.827 3.93a.02.02 0 0 0 .038.01 17 17 0 0 1 1.309-3.8 12 12 0 0 0 .867-1.523c.204-.58-.096-.852-.24-1.378-.014-.054-.013-.113-.022-.168.76-5.681 1.573-11.34 2.03-17.055q.684-8.562 1.275-17.132 1.182-17.138 1.957-34.3.788-17.161 1.2-34.336c.242-10.059.27-20.23 2.303-30.127a56.6 56.6 0 0 1 4.602-13.837c1.873-3.767 4.527-8.276 8.905-9.407 4.68-1.21 8.878 2.199 10.875 6.15 2.03 4.015 2.452 8.738 2.871 13.149.54 5.692 1.076 11.415 1.263 17.13a65.5 65.5 0 0 1-.246 8.64c-.278 2.796-.724 5.57-1.06 8.36a130 130 0 0 0-.546 17.01l.195 17.27.389 34.538c.064 5.708.064 11.421.2 17.128a25.6 25.6 0 0 0 1.098 7.754 16.5 16.5 0 0 0 3.843 5.935c1.623 1.7 3.465 3.124 5.177 4.723.253.237.635-.143.381-.38a31.7 31.7 0 0 1-5.804-7.088 18 18 0 0 0 1.902 1.218 15.5 15.5 0 0 0 7.134 1.978 13.8 13.8 0 0 0 3.824-.485 13 13 0 0 0 1.626-.551 21 21 0 0 1 1.937-.883c.67-.196 1.234.445 1.7.842.59.504 1.21.972 1.81 1.465 1.12.92 2.268 1.81 3.467 2.626a32 32 0 0 0 7.646 3.776l-.906.632a226 226 0 0 0-6.104 4.444 2.8 2.8 0 0 0-.577-.475c-.05-.033-.1.039-.062.08.159.172.294.362.444.541-.406.304-.815.604-1.22.91q-.154-.196-.31-.391c-.762-.932-1.556-1.836-2.329-2.758-.034-.04-.104.013-.074.057.558.784 1.089 1.588 1.656 2.364q.36.492.723.98c-.446.338-.897.669-1.342 1.01l-.565-.85q-.632-.95-1.274-1.893a196 196 0 0 0-2.588-3.678c-.032-.044-.103-.004-.074.044a191 191 0 0 0 2.325 3.746q.594.93 1.201 1.85l.566.861.1.153c-.412.318-.833.625-1.245.945a.67.67 0 0 0-.106-.343c-.253-.453-.587-.878-.885-1.303l-1.758-2.504q-1.76-2.506-3.553-4.987c-.017-.024-.057-.003-.04.023q1.498 2.39 3.019 4.765l1.502 2.333c.25.388.498.779.754 1.164q.204.31.414.614c.062.09.22.242.288.36l-.001.02a.11.11 0 0 0 .055.095c-.108.084-.218.163-.325.247-3.712 2.903-7.375 5.888-10.899 9.018-2.983 2.65-6.488 5.5-7.706 9.464a7.2 7.2 0 0 0-.321 2.079m49.308 15.483a9 9 0 0 0 .72-.658l.305.833q-.509-.11-1.025-.175m1.425.271c-.032-.093-.05-.19-.087-.282a9 9 0 0 0-.402-.88 27 27 0 0 0 1.352-1.588q.327 1.374.735 2.729.095.317.194.636a11.4 11.4 0 0 0-1.792-.615m4.872 2.56a13.2 13.2 0 0 0-2.606-1.728q-.17-.513-.334-1.024c-.296-.926-.588-1.854-.895-2.776.548-.683 1.072-1.385 1.597-2.085a15 15 0 0 1 .417 1.442q.346 1.224.697 2.447.353 1.222.726 2.439c.126.414.248.853.4 1.276Zm1.218-3.188a16.4 16.4 0 0 0-.953 2.356l-.235-.76c-.255-.84-.508-1.682-.774-2.52-.267-.836-.52-1.68-.802-2.511a5.7 5.7 0 0 0-.516-1.22q.75-1.007 1.469-2.037l1.067 3.487q.356 1.157.687 2.322.089.317.173.656zm.382-.743-.074-.24q-.342-1.162-.71-2.317a54 54 0 0 0-1.292-3.563c.282-.404.566-.808.839-1.218.215-.325.416-.66.628-.988a125 125 0 0 1 1.72 6.17c-.369.719-.747 1.434-1.111 2.156m4.8-46.268a45 45 0 0 1 4.183 4.777c1.277 1.647 2.576 3.308 3.7 5.066a9.87 9.87 0 0 1 1.896 5.59c-.084 2.177-1.256 4.217-2.171 6.138q-3.074 6.455-6.293 12.839c-1.62 3.213-3.3 6.396-4.948 9.594a44 44 0 0 0-1.698-6.185 117 117 0 0 0 6.385-11.386c.578-1.169 1.156-2.347 1.647-3.555.518-1.274.951-2.579 1.463-3.855.034-.085-.11-.147-.15-.063-.973 2.088-2.17 4.098-3.266 6.125-1.123 2.075-2.289 4.125-3.562 6.111a138 138 0 0 1-8.142 11.302 29 29 0 0 1-2.379 2.72 18 18 0 0 0-2.126 2.142c-.388.043-.775.098-1.163.178a19.3 19.3 0 0 0-3.9 1.311c-.612.272-1.21.577-1.797.898-.282.154-.551.35-.843.483a.84.84 0 0 0-.503-.09.7.7 0 0 0-.281.122 15 15 0 0 0-.989-3.149c-1.814-4.106-5.55-6.466-9.707-7.756-2.21-.686-4.487-1.13-6.738-1.66-.67-.157-1.333-.336-2-.501-.894-.772-1.762-1.574-2.665-2.334a26 26 0 0 0-6.14-3.832c-.068-.03-.128.068-.06.101a33 33 0 0 1 6.055 3.876 16 16 0 0 1 2.126 2.017c-.938-.236-1.878-.46-2.813-.705a.47.47 0 0 0-.111-.604.41.41 0 0 0-.512-.024c-.02-.007-.037-.014-.063-.022a3 3 0 0 0-.357-.306q-.395-.335-.8-.658-.742-.594-1.513-1.151a33 33 0 0 0-3.413-2.168 22 22 0 0 0-3.507-1.558c-.233-.08-.796-.329-.92.05a.224.224 0 0 0 .22.31.075.075 0 0 0 .02-.146 3 3 0 0 1 .508.193q.247.135.492.272.49.277.983.549c.605.33 1.2.681 1.793 1.032a41 41 0 0 1 3.686 2.445c.55.411 1.082.844 1.606 1.286l-.395-.104q-3.874-1.06-7.716-2.228c-1.2-.364-2.4-.757-3.603-1.137.221-3.75 3.093-6.484 5.755-8.828a295 295 0 0 1 10.375-8.746c7-5.614 14.311-10.789 21.824-15.689 3.565-2.325 7.3-4.806 11.745-4.516 4.146.27 7.87 2.602 10.781 5.429m15.125-62.065c-.138 7.933-.224 15.892-.639 23.816a11.36 11.36 0 0 1-1.314 5.093c-.945 1.705-1.977 3.365-2.969 5.044l-6.226 10.539-6.1 10.324-1.393 2.358a18.4 18.4 0 0 0-3.832-1.7 14.3 14.3 0 0 0-6.41-.487 19.4 19.4 0 0 0-6.286 2.385 122 122 0 0 0-10.394 6.717 47.5 47.5 0 0 1-6.45-3.68 33 33 0 0 1-3.039-2.315c.646.348 1.284.71 1.927 1.062 1.836 1.007 3.722 1.97 5.64 2.807a.145.145 0 0 0 .147-.25 59 59 0 0 0-5.57-3.562 18.4 18.4 0 0 0-4.192-2.03l-.024-.027q-.134-.153-.267-.308c.012-.015.02-.032.033-.048.028-.034.003-.104-.05-.084-.026.01-.053.013-.079.022a11 11 0 0 0-.913-.972c.132-.17.256-.355.39-.54.42-.576.811-1.172 1.221-1.756.82-1.167 1.683-2.307 2.536-3.45 1.705-2.284 3.511-4.488 5.27-6.729 1.727-2.198 3.445-4.409 5.014-6.723a56 56 0 0 0 2.27-3.62 21.7 21.7 0 0 1 2.281-3.637 7.67 7.67 0 0 1 3.322-2.164 15 15 0 0 1 1.857-.522 11.6 11.6 0 0 0 2.456.52 35.8 35.8 0 0 1 8.839 2.767 51.6 51.6 0 0 1 9.189 5.11c.14.102.308-.122.184-.24a36.2 36.2 0 0 0-6.902-5.342 38.5 38.5 0 0 0-7.956-3.354 40 40 0 0 0-4.29-1.082c-.49-.09-1.037-.12-1.197-.665a2.58 2.58 0 0 1 .38-1.797 15 15 0 0 0 .898-2.004 9.4 9.4 0 0 0 .373-2.178 21 21 0 0 0-.313-4.686c-.388-2.721-.643-5.441.377-7.998.733.066 1.467.116 2.198.134a29.7 29.7 0 0 0 10.368-1.597c.306-.104.597-.239.898-.353a12 12 0 0 0 1.66.015 15.5 15.5 0 0 0 2.464-.32 13.7 13.7 0 0 0 4.636-1.86.126.126 0 0 0-.096-.228c-1.55.466-3.094.924-4.672 1.29-.776.18-1.553.32-2.336.463l-.103.016a31.2 31.2 0 0 0 6.345-3.872 26.4 26.4 0 0 0 3.57-3.403.156.156 0 0 0-.22-.221 31.7 31.7 0 0 1-17.671 7.995 34.4 34.4 0 0 1-10.838-.632 31.3 31.3 0 0 1-9.707-3.553c-5.186-3.092-9.568-9.18-7.865-15.477a9.95 9.95 0 0 1 5.003-6.365 9.2 9.2 0 0 1 3.05-.85c.533.05 1.065.111 1.59.203a19.7 19.7 0 0 1 7.99 3.328 17 17 0 0 1 1.693 1.363 2.8 2.8 0 0 0 1.709.95.177.177 0 0 0 .176-.176 2.21 2.21 0 0 0-.958-1.701 20 20 0 0 0-1.81-1.436 19.2 19.2 0 0 0-4.184-2.214q-.582-.224-1.18-.404a19 19 0 0 0 2.54-.134 21 21 0 0 0 1.698-.307c.456.025.913.01 1.38.01a12.6 12.6 0 0 1 2.375.223 13.2 13.2 0 0 1 4.547 1.78 7.7 7.7 0 0 1 1.856 1.487c.53.637.831 1.86-.191 2.214a8.7 8.7 0 0 1-2.642.175c-.461.004-.924.004-1.384.031-.544.032-1.076.245-1.612.259-.021 0-.028.034-.005.038.558.104 1.041.377 1.617.454a13 13 0 0 0 1.845.077 5.4 5.4 0 0 0 3.002-.476 2 2 0 0 0 .722-1.934 3.74 3.74 0 0 0-1.556-2.252 13.8 13.8 0 0 0-5.198-2.575 14 14 0 0 0-1.805-.327c5.032-1.656 9.833-4.308 15.246-4.052a10.36 10.36 0 0 1 4.565 1.219 20.6 20.6 0 0 1 3.8 3.194 18.4 18.4 0 0 0 4.176 2.834 9.7 9.7 0 0 1 3.614 2.727c1.677 2.316 1.952 5.365 2.02 8.135.093 3.824-.053 7.667-.12 11.491"/><path fill="currentColor" d="M243.652 241.848q-.064.066-.124.135-.03.038-.057.08l-.052.074a.031.031 0 0 0 .043.043l.073-.05a1 1 0 0 0 .081-.059q.068-.06.135-.124a.07.07 0 1 0-.1-.1m-56.339 18.142a.02.02 0 0 0-.027.027c1.922 1.907 3.83 3.83 5.772 5.718a.02.02 0 0 0 .028-.028c-1.906-1.924-3.848-3.813-5.773-5.718m-7.632-103.665c-.011-.016-.038-.001-.027.016a92 92 0 0 0 5.493 7.25c.016.02.044-.008.028-.027a113 113 0 0 1-5.494-7.24m33.198 112.645q-.489 3.894-.926 7.792c-.141 1.275-.262 2.553-.404 3.828a9.7 9.7 0 0 0-.12 3.738.15.15 0 0 0 .27.035 8.85 8.85 0 0 0 .682-3.527c.126-1.315.247-2.632.337-3.95.18-2.638.24-5.273.215-7.916 0-.036-.05-.034-.054 0m1.327 7.653a.098.098 0 0 0-.196 0 55 55 0 0 1-.404 5.774 54 54 0 0 0-.64 5.719.11.11 0 0 0 .215.029 18.8 18.8 0 0 0 .99-5.638 58 58 0 0 0 .035-5.883m1.39 6.639a69 69 0 0 0-.693 8.178c-.001.06.098.077.107.015a69 69 0 0 0 .625-8.194c0-.026-.036-.024-.04 0M144.839 324.3c-1.256 1.617-2.649 3.13-3.97 4.694a42 42 0 0 0-3.741 4.755c-.059.094.064.234.16.16a25 25 0 0 0 4.193-4.43c1.281-1.61 2.396-3.327 3.572-5.013.088-.126-.119-.289-.214-.166m4.311-2.036a34.5 34.5 0 0 0-2.42 3.717q-1.25 2.03-2.55 4.031a151 151 0 0 1-2.596 3.863c-.444.635-.902 1.261-1.324 1.91a4.8 4.8 0 0 0-.928 1.834c-.019.14.152.189.252.145a4.7 4.7 0 0 0 1.498-1.49c.459-.58.881-1.19 1.3-1.798a92 92 0 0 0 2.609-3.99q1.219-1.983 2.327-4.027a22.5 22.5 0 0 0 1.91-4.15c.013-.042-.047-.083-.078-.045m6.864 36.261a11.4 11.4 0 0 0-1.981-2.211q-1.085-1.121-2.11-2.297a59 59 0 0 1-3.84-4.905 33 33 0 0 1-3.168-5.366 24 24 0 0 1-.955-2.844c-.08-.265-.198-.34-.131-.614a4.6 4.6 0 0 1 .353-.799c.244-.518.504-1.028.757-1.542 1.193-2.426 2.33-4.88 3.491-7.321a.031.031 0 0 0-.054-.032c-1.273 2.14-2.577 4.263-3.823 6.418l-.919 1.59a10.7 10.7 0 0 1-1 1.627 1.5 1.5 0 0 0-.47 1.31 3.14 3.14 0 0 0 .687 1.545c1.336 1.788 2.513 3.673 3.767 5.518a61 61 0 0 0 3.84 5.058q1.215 1.438 2.518 2.798a10.3 10.3 0 0 0 2.707 2.398.244.244 0 0 0 .331-.331m-12.882-11.194c-.045-.065-.152-.005-.108.063a92 92 0 0 0 8.496 11.198c.038.042.095-.018.061-.06-2.896-3.666-5.765-7.376-8.449-11.2m-9.502-1.01a16.1 16.1 0 0 1-2.728 6.245q-.932 1.509-1.842 3.03a18 18 0 0 1-2.032 3.118 5.1 5.1 0 0 0-.712 1.643c-.23.558-.45 1.118-.691 1.67-.472 1.078-.946 2.16-1.383 3.252-.889 2.217-1.886 4.395-2.814 6.597-.03.068.089.118.121.05 1.07-2.22 2.186-4.418 3.412-6.555.634-1.105 1.253-2.216 1.929-3.295.336-.537.674-1.09 1.055-1.597a3 3 0 0 0 .547-.786c.068-.197.06-.416.128-.617a24.4 24.4 0 0 1 1.624-3.341c.56-1.07 1.134-2.131 1.695-3.2a13.1 13.1 0 0 0 1.878-6.214c0-.124-.173-.116-.187 0m5.681 10.258q-.641-.507-1.276-1.02a.41.41 0 0 0-.366-.253h-.094a.4.4 0 0 0-.1.034.6.6 0 0 0-.184-.019c-.98.078-1.605.887-2.242 1.559a20 20 0 0 0-2.01 2.445c-.58.846-1.037 1.747-1.58 2.609a23 23 0 0 0-1.643 2.727c-1.876 4.09-4.288 7.93-6.563 11.812-1.368 2.333-2.748 4.66-4.09 7.008a.02.02 0 0 0 .033.02c2.4-3.946 4.729-7.936 7.1-11.9a53 53 0 0 1 3.535-5.614c.347-.441.71-.867 1.065-1.3.022 1.658.165 3.312.285 4.965.084 1.145.162 2.293.298 3.434-.258.424-.523.845-.778 1.272l-.065.107-.037-.321c-.091-.823-.207-1.644-.313-2.465a259 259 0 0 0-.694-4.938c-.005-.034-.065-.026-.062.009.146 1.645.297 3.287.475 4.93.088.82.167 1.644.27 2.464q.049.38.093.76c-.462.755-.917 1.52-1.322 2.306-.075-1.128-.2-2.257-.3-3.379a127 127 0 0 0-.538-5.043c-.003-.019-.033-.02-.032 0 .079 1.717.203 3.43.35 5.142.106 1.216.177 2.444.322 3.659-.038.078-.086.153-.121.232l.021.005a.487.487 0 0 0 .23.675c.02.128.034.257.057.384.007.044.076.033.076-.01 0-.11-.007-.22-.01-.331a.46.46 0 0 0 .475-.227c.717-1.062 1.274-2.25 1.892-3.371l.221-.402.001.004c.01.053.091.039.092-.012l-.002-.156q.806-1.463 1.615-2.925c1.266-2.29 2.464-4.625 3.808-6.868.063-.105-.096-.196-.162-.095-.745 1.158-1.514 2.3-2.28 3.443-.012-.43-.064-.86-.113-1.281-.092-.799-.196-1.598-.301-2.395-.151-1.142-.3-2.285-.46-3.426q.469-.533.941-1.063c.096.768.223 1.536.328 2.29.09.647.188 1.292.28 1.938a7 7 0 0 0 .422 1.879.067.067 0 0 0 .122-.016 6.4 6.4 0 0 0-.065-1.85 67 67 0 0 0-.276-1.97c-.135-.876-.268-1.78-.466-2.661l.681-.769.096-.107.314 2.18a27 27 0 0 0 .543 3.348.4.4 0 0 0 .782-.106 12 12 0 0 0-.106-1.236.45.45 0 0 0 .34-.434c.002-.163-.012-.326-.013-.49a.64.64 0 0 0 .473-.377c.03-.079.041-.163.068-.243a.592.592 0 0 0 .891-.316l.014-.054a6.4 6.4 0 0 0 .844-2.997 1.56 1.56 0 0 0-.789-1.2m-6.594 14.48c-.335.534-.658 1.077-.987 1.615-.061-1.074-.165-2.147-.263-3.218-.149-1.613-.276-3.23-.523-4.832a13 13 0 0 0 .772-1.016c.164-.25.315-.506.473-.759.044 1.328.182 2.661.27 3.981.057.826.1 1.652.157 2.478.037.55.05 1.134.14 1.692zm1.36-4.367a8.6 8.6 0 0 0 .354 1.747q-.674 1.01-1.33 2.034c0-.392-.026-.786-.041-1.166a65 65 0 0 0-.17-2.572 39 39 0 0 0-.494-4.187c.047-.065.085-.135.136-.197.343-.415.729-.804 1.083-1.212l.086-.097c.012 1.133.053 2.264.141 3.395.06.752.137 1.507.234 2.255m56.607-165.75a21.4 21.4 0 0 0-2.174 3.24 24 24 0 0 0-1.424 3.541.082.082 0 0 0 .15.063c.599-1.123 1.25-2.217 1.856-3.337.61-1.128 1.129-2.297 1.72-3.432a.074.074 0 0 0-.128-.075m-37.699-4.953-.204-.327q-.41-.65-.83-1.295-.826-1.27-1.657-2.536c-.035-.054-.121-.005-.087.052q.781 1.295 1.57 2.586.35.573.706 1.143a21 21 0 0 0-.539-.375c-.144-.097-.303-.182-.45-.277a5.4 5.4 0 0 0-.538-.855q-.471-.633-.947-1.264a19.4 19.4 0 0 0-1.999-2.305.012.012 0 0 0-.018.015 19.6 19.6 0 0 0 1.64 2.62c.283.388.563.778.849 1.164-.337-.204-.66-.422-1.002-.618l-.1-.116a7 7 0 0 0-.578-.509q-.28-.247-.544-.513c-.256-.26-.482-.524-.703-.787l-.159-.802a.53.53 0 0 0-.502-.383 38 38 0 0 1-5.728-.613 2.7 2.7 0 0 0-.995-.177.46.46 0 0 0-.388.23 2.7 2.7 0 0 1-.46-.283.02.02 0 0 0-.027.027c.144.157.271.326.402.492a.43.43 0 0 0 .343.493l.172.033a.3.3 0 0 0 .155.156l.068.026c.108.089.208.186.32.27a8.5 8.5 0 0 0 1.23.744 2 2 0 0 1-.265.127c-.533.207-1.084.357-1.613.572a29.8 29.8 0 0 0-5.693 3.469c-.029.02-.003.066.027.047a22.8 22.8 0 0 1 5.688-2.628 6.7 6.7 0 0 1 1.538-.306 2.6 2.6 0 0 1 .63.03 2.7 2.7 0 0 0 .637.235 26 26 0 0 1 2.957.276 15.2 15.2 0 0 1 5.42 2.096 25.5 25.5 0 0 1 4.264 3.65c.088.087.273 0 .222-.13a8.36 8.36 0 0 0-2.812-3.454m.851-1.038a28 28 0 0 0-1.766-2.603c-.02-.027-.067-.002-.047.028a36 36 0 0 1 1.573 2.658c.49.904.899 1.86 1.445 2.73a.063.063 0 0 0 .114-.049 12 12 0 0 0-1.319-2.764m3.421 2.426c-.127-.187-.251-.376-.38-.56-.244-.349-.501-.688-.752-1.031q-.776-1.064-1.542-2.135c-.009-.012-.029-.001-.02.012q.7 1.108 1.39 2.224c.221.36.438.724.667 1.08q.185.282.376.563a2 2 0 0 0 .39.488c.073.058.2.007.17-.1a2 2 0 0 0-.299-.54m1.107-1.222-.928-1.258c-.017-.024-.057-.002-.04.023l.854 1.33c.278.434.596.842.912 1.247.022.029.067-.008.049-.038-.268-.443-.54-.887-.847-1.304m91.194-24.006a7 7 0 0 0-.407-.694 25 25 0 0 0-.937-1.373 104 104 0 0 0-1.964-2.624.37.37 0 0 0-.338-.157l-.025-.043a19 19 0 0 0-1.537-2.125 31 31 0 0 0-1.69-1.967q-.252-.274-.507-.544a4 4 0 0 1-.18-.414c-.178-.51-.52-.594-.947-.844a10 10 0 0 1-1.082-.84q-.52-.41-1.055-.8a12.3 12.3 0 0 0-4.593-2.445.063.063 0 0 0-.06.105 34 34 0 0 0 4.032 2.982 18 18 0 0 1 1.958 1.576c.314.31.45.786.893.94.046.017.094.026.141.037.215.295.445.58.676.862.548.671 1.11 1.324 1.695 1.963.564.617 1.099 1.267 1.703 1.846.264.253.519.504.757.779a55 55 0 0 1 1.525 2.12c.301.446.597.893.906 1.333.162.23.313.468.495.682a2.6 2.6 0 0 0 .582.503c.095.063.186-.04.173-.132a2.4 2.4 0 0 0-.214-.726M172.204 55.794c-1.778-.008-3.558.005-5.335-.07a12 12 0 0 0-2.374.2 4 4 0 0 0-1.138.324 1.7 1.7 0 0 1-.546.251 3 3 0 0 1-.723-.05c-1.78-.226-3.552-.514-5.33-.75-.872-.116-1.744-.217-2.618-.32a7.3 7.3 0 0 1-2.608-.651c-.06-.033-.132.05-.076.098a4.8 4.8 0 0 0 1.877 1.037 24 24 0 0 0 2.579.52q2.887.484 5.782.927c.395.061.784.107 1.183.131a3.3 3.3 0 0 0 1.115.042 3.1 3.1 0 0 0 .943-.496 3.6 3.6 0 0 1 1.346-.59 38.4 38.4 0 0 1 5.923-.556.023.023 0 0 0 0-.047"/><path fill="currentColor" d="M174.51 55.755a49 49 0 0 1-9.155 1.994 36 36 0 0 1-4.489.28 48 48 0 0 1-2.308-.073 23 23 0 0 0-2.418-.145.38.38 0 0 0-.1.745 11.2 11.2 0 0 0 2.287.202c.807.033 1.617.023 2.424-.003a47 47 0 0 0 4.647-.368 35.6 35.6 0 0 0 9.145-2.512c.072-.03.046-.146-.033-.12m.27 47.269c-2.208-.231-4.416-.449-6.63-.6-2.122-.145-4.251-.184-6.372-.344-1.017-.077-2.022-.228-3.034-.316-1.025-.089-1.995.264-3.028.196-1.038-.069-2.067-.257-3.101-.366-1.134-.12-2.266-.214-3.396-.36-.035-.004-.043.054-.009.062 2.133.504 4.229 1.164 6.38 1.59a4.87 4.87 0 0 0 2.743-.074 6 6 0 0 1 1.807-.626 8 8 0 0 1 1.521.031c2.168.198 4.323.546 6.489.775 1.606.17 3.215.3 4.825.42a63 63 0 0 1-8.867 1.206 57 57 0 0 1-5.27.122 34 34 0 0 1-2.515-.143 20 20 0 0 0-2.747-.286.204.204 0 0 0-.054.4 12 12 0 0 0 2.562.18c.918.026 1.835.067 2.753.087 1.798.037 3.594.039 5.391-.05a70 70 0 0 0 10.62-1.392c.31-.064.202-.483-.069-.512m-9.381-2.004a6.1 6.1 0 0 0-2.396-.192 93 93 0 0 1-2.837-.057q-2.78-.103-5.56-.214c-.03-.002-.037.049-.006.053 1.78.25 3.562.443 5.356.567q1.366.095 2.732.181.683.043 1.366.064a3 3 0 0 0 1.305-.103c.114-.047.183-.234.04-.3m6.77 94.411a10 10 0 0 1-.458 2.687c-.01.033.042.057.057.024a6 6 0 0 0 .479-2.711.04.04 0 0 0-.078 0m-71.914 47.697a.126.126 0 0 0 .055-.21 4 4 0 0 0-2.335-.702l-.032-.004-.002-.004q-.47-1.318-.894-2.65a106 106 0 0 1-1.601-5.468c-.01-.039-.069-.022-.06.017a71 71 0 0 0 1.396 5.63c.241.814.5 1.622.767 2.428a37 37 0 0 1-2.177-.298c-.087-.015-.126.112-.037.136.813.215 1.607.482 2.406.745a12 12 0 0 0 .773 1.91l-.032-.012a27 27 0 0 0-1.002-.298c-.73-.197-1.457-.397-2.19-.582l-.086-.023c-.223-.679-.453-1.356-.663-2.04q-1.019-3.325-1.884-6.693a.035.035 0 0 0-.067.018q.774 3.391 1.698 6.745c.173.625.353 1.248.53 1.872q-1.457-.369-2.913-.746a7 7 0 0 0-.085-.9c-.101-.524-.327-.553-.585-.965a6.5 6.5 0 0 1-.516-1.583.023.023 0 0 0-.045.012 6.3 6.3 0 0 1 .355 1.627c-.019.471-.198.638-.03 1.135a5 5 0 0 0 .21.496l-.308-.079a.055.055 0 0 0-.029.106l.412.132c.061.126.124.252.179.38a14 14 0 0 1 .55 1.538c.123.418.23.84.332 1.263q-.841-.217-1.68-.428a.059.059 0 0 0-.03.113q.885.3 1.779.597c.313 1.335.57 2.684.948 4.001a.027.027 0 0 0 .053-.014c-.207-1.33-.558-2.637-.88-3.948 1.114.369 2.238.72 3.371 1.02a4.4 4.4 0 0 0 .407.805c.072.108.272.078.262-.07a4 4 0 0 0-.1-.597c.47.116.94.231 1.414.323a.04.04 0 0 0 .02-.075 30 30 0 0 0-1.5-.545c-.201-.74-.537-1.48-.774-2.173-.1-.292-.189-.588-.286-.88l.42.135c.803.252 1.608.507 2.422.723.442.117 1.122.414 1.465-.032.036-.048-.024-.1-.071-.092a1.64 1.64 0 0 1-.824-.176 13 13 0 0 0-.568-1.85 3.34 3.34 0 0 0 2.062.23m-4.476 3.907a62 62 0 0 0-3.315-.944 37 37 0 0 1-.3-1.335 14 14 0 0 1-.238-1.517l-.01-.155 3.02.972c.095.334.186.669.283 1.002.18.619.338 1.319.56 1.977m3.098-9.516a34 34 0 0 1-.85-3.432c-.013-.07-.115-.038-.106.03a26 26 0 0 0 .709 3.535 12.2 12.2 0 0 0 1.251 3.266.059.059 0 0 0 .107-.045c-.273-1.142-.776-2.227-1.111-3.354m1.344-4.213a.063.063 0 0 0-.12.033 28 28 0 0 0 1.083 3.595.047.047 0 0 0 .09-.025 28 28 0 0 0-1.053-3.603m68.643-5.788q-.854-.894-1.686-1.81-1.66-1.828-3.31-3.666c-.023-.026-.07.009-.05.037a54 54 0 0 0 3.096 3.796q.827.92 1.677 1.819a13 13 0 0 0 1.767 1.65c.037.028.091-.026.064-.063a17 17 0 0 0-1.558-1.763m-1.836-6.858c-.045-.054-.122.023-.077.077q.933 1.133 1.95 2.194a27 27 0 0 0 2.167 1.983c.012.01.028-.007.017-.017a49 49 0 0 1-4.057-4.237m7.984 7.781c-.278-.326-.587-.625-.894-.924a23 23 0 0 0-1.922-1.681c-.008-.006-.02.004-.011.011a12.5 12.5 0 0 1 1.755 1.804c.259.328.487.676.722 1.02.118.174.225.354.353.52a.94.94 0 0 0 .436.39.123.123 0 0 0 .153-.117c.037-.378-.368-.76-.592-1.023m5.579 1.46a10.3 10.3 0 0 0-1.764-2.068 64 64 0 0 0-1.992-2.027c-1.422-1.394-2.866-2.765-4.305-4.14a.059.059 0 0 0-.083.082q2.08 2.09 4.167 4.17a67 67 0 0 1 1.926 1.986c.313.339.618.682.908 1.042a8.5 8.5 0 0 0 .94 1.112.13.13 0 0 0 .202-.156m4.481-.931a9.5 9.5 0 0 0-1.3-1.069 12.8 12.8 0 0 1-2.628-2.653 14 14 0 0 0-2.27-2.573c-.127-.102-.586-.536-.77-.272a.153.153 0 0 0 .103.246c.012 0 .013-.014.021-.02a3.5 3.5 0 0 0 .245.446c.116.16.249.306.378.455a12 12 0 0 0 .923.952c.65.603 1.368 1.125 2.011 1.736a11.6 11.6 0 0 1 1.722 2.047 11 11 0 0 0 .73 1.021 3.4 3.4 0 0 0 .826.812.33.33 0 0 0 .39-.05c.41-.358-.137-.825-.38-1.077m4.29-.016a4.4 4.4 0 0 0-.71-.643 7 7 0 0 1-.811-.606c-.234-.228-.448-.475-.669-.716a198 198 0 0 0-2.668-2.873c-.042-.044-.105.021-.066.067q1.255 1.475 2.541 2.922c.205.23.417.457.612.696a5.6 5.6 0 0 1 .538.887 4 4 0 0 0 .522.747 1.3 1.3 0 0 0 .354.328.7.7 0 0 0 .42.038.144.144 0 0 0 .136-.103.74.74 0 0 0-.199-.744m2.892-.329c-.235-.304-.501-.585-.764-.865a18 18 0 0 0-1.724-1.503.05.05 0 0 0-.072.072c.504.564.934 1.186 1.416 1.767.234.282.452.577.688.857a2.6 2.6 0 0 0 .824.748.1.1 0 0 0 .144-.11 2.2 2.2 0 0 0-.512-.966m4.002.206a6 6 0 0 0-.554-.475q-.3-.218-.613-.417a.047.047 0 0 0-.056.074q.258.258.501.53c.159.178.328.345.488.522.324.358.665.694 1.022 1.018a.067.067 0 0 0 .105-.08 4.4 4.4 0 0 0-.893-1.172m-23.384 27.058c-.328-.524-.681-1.035-1.022-1.551q-.958-1.454-1.935-2.896a59 59 0 0 0-4.144-5.64c-.018-.02-.048.006-.036.029a63 63 0 0 0 3.696 6.162q.95 1.459 1.91 2.912c.34.514.66 1.051 1.024 1.549a16 16 0 0 0 1.168 1.215c.05.056.126-.015.098-.075a14 14 0 0 0-.759-1.705m4.959 7.592q-.83-1.216-1.581-2.482a.09.09 0 0 0-.156.09q.749 1.294 1.577 2.538a17 17 0 0 0 1.751 2.33.051.051 0 0 0 .08-.062c-.512-.834-1.12-1.606-1.672-2.414m-6.166-1.269c-.296-.5-.601-.998-.886-1.506-.289-.515-.465-1.076-.74-1.59-.27-.506-.715-.94-1.024-1.426-.313-.491-.61-.993-.91-1.492-2.406-3.993-4.81-7.983-7.303-11.922a.023.023 0 0 0-.04.023c2.303 4.052 4.692 8.05 7.083 12.05.299.5.601.999.888 1.506.284.505.456 1.093.773 1.572.323.487.738.909 1.058 1.405.316.489.61.994.912 1.49 1.213 1.99 2.372 4.014 3.654 5.96a.043.043 0 0 0 .074-.043c-1.114-2.046-2.354-4.02-3.539-6.027m-5.649.971c-1.114-1.75-2.098-3.584-3.14-5.38a161 161 0 0 1-5.812-11.013c-.037-.078-.15-.01-.115.067q2.593 5.738 5.747 11.186c1.041 1.802 2.215 3.513 3.34 5.263a60 60 0 0 0 3.384 5.108c.045.056.135-.016.099-.075-1.084-1.77-2.387-3.404-3.503-5.156m-5.443-1.714q-2.196-3.865-4.357-7.75c-.032-.057-.117-.006-.087.052a309 309 0 0 0 4.197 7.841c1.438 2.586 2.842 5.217 4.509 7.664a.059.059 0 0 0 .1-.06c-1.331-2.645-2.9-5.173-4.362-7.748m81.932-82.891c-.28 3.295-1.032 6.544-1.237 9.844-.006.099.142.113.169.023a41.7 41.7 0 0 0 1.161-9.867c.003-.06-.088-.06-.093 0m-3.003.002c-.264 2.735-.666 5.45-1.149 8.154-.457 2.56-1.143 5.103-1.479 7.681-.014.108.143.11.177.024a36.5 36.5 0 0 0 1.783-7.943 78 78 0 0 0 .708-7.915c0-.026-.037-.025-.04 0m-3.57 2.937q-.389 4.02-1.035 8.009c-.207 1.271-.442 2.538-.673 3.806a9.8 9.8 0 0 0-.457 3.529.051.051 0 0 0 .093.012 3.8 3.8 0 0 0 .543-1.616q.185-1.013.352-2.029c.207-1.252.37-2.513.522-3.773q.48-3.957.703-7.938c.001-.03-.044-.03-.047 0m-2.627 17.342-.242 1.216c-.08.405-.173.81-.235 1.218-.008.049.062.071.075.021.104-.399.179-.807.265-1.21l.257-1.211c.017-.08-.104-.112-.12-.034m-1.384-10.962q-.56 4.433-1.387 8.827-.393 2.08-.83 4.152c-.308 1.458-.71 2.91-.92 4.386a.035.035 0 0 0 .069.018 35 35 0 0 0 1.074-4.343q.466-2.19.847-4.397.743-4.302 1.226-8.643c.005-.05-.072-.05-.079 0m-4.162 7.395a65 65 0 0 1-.993 5.817c-.405 1.86-.99 3.677-1.368 5.54-.01.048.063.088.086.036a26.5 26.5 0 0 0 1.56-5.61 47 47 0 0 0 .754-5.783c.002-.026-.036-.024-.04 0m16-26.828a9 9 0 0 0-.574-1.12c-.209-.32-.46-.612-.697-.911a77 77 0 0 0-1.597-1.965 15.3 15.3 0 0 0-3.18-3.148c-.032-.02-.073.03-.042.056a7.5 7.5 0 0 1 1.445 1.647c.448.651.895 1.304 1.364 1.94q.694.945 1.414 1.868c.244.313.476.643.748.933a9 9 0 0 0 .954.828.106.106 0 0 0 .165-.128m-6.066-37.875a27.5 27.5 0 0 0-12.408-5.32c-.53-.071-.785.69-.23.831 2.16.545 4.286 1.068 6.386 1.824a49 49 0 0 1 6.201 2.753.05.05 0 0 0 .051-.088m-2.582 1.85c-1.22-.689-2.522-1.234-3.792-1.825-1.209-.563-2.41-1.145-3.633-1.679a22 22 0 0 0-3.414-1.25c-.822-.207-2.558-.676-3.193.112a.04.04 0 0 0 0 .056 1.83 1.83 0 0 0 1.172.377c.645.06 1.288.12 1.928.221a19.5 19.5 0 0 1 3.672.986c2.459.904 4.76 2.203 7.23 3.074.042.015.068-.05.03-.071m-4.367 1.607a26.6 26.6 0 0 0-5.23-2.62c-.852-.376-1.669-.817-2.516-1.2-.773-.348-1.845-.895-2.697-.562a.355.355 0 0 0-.155.585 4.3 4.3 0 0 0 2.513.782 16.6 16.6 0 0 1 2.775.584 49 49 0 0 1 5.271 2.498.04.04 0 0 0 .04-.067m-9.831-.94a7 7 0 0 1-.765-.373 5 5 0 0 0-.787-.378 7 7 0 0 0-.82-.23 1.5 1.5 0 0 0-.48-.054 1 1 0 0 0-.204.038.6.6 0 0 0-.117.043 1 1 0 0 1-.104.06.106.106 0 0 0-.054.197l.046.03a1.03 1.03 0 0 0 .621.505 6 6 0 0 0 .853.235 3 3 0 0 0 .481.046c.143.002.284.02.428.014.287-.012.572.01.859.027.081.004.122-.126.043-.16m5.978 2.408a3.4 3.4 0 0 0-1.202-.67 9.4 9.4 0 0 0-1.366-.403.09.09 0 0 0-.047.173 10 10 0 0 1 1.316.461 10 10 0 0 0 1.246.53.055.055 0 0 0 .053-.091m-7.003.414a8 8 0 0 1-.718-.391 3 3 0 0 0-.368-.223c-.133-.06-.264-.123-.402-.179a4 4 0 0 0-.8-.22 2 2 0 0 0-.466-.04.66.66 0 0 0-.404.2.07.07 0 0 0-.018.069c.088.336.36.471.663.59a4 4 0 0 0 .796.232c.148.025.293.04.44.057a4 4 0 0 0 .431 0c.265 0 .542.018.809.044a.075.075 0 0 0 .037-.138m6.034 2.26a2.6 2.6 0 0 0-.778-.54c-.288-.133-.59-.24-.884-.358-.58-.232-1.162-.453-1.73-.709a.3.3 0 0 0-.396.104.29.29 0 0 0 .103.395c.583.262 1.148.558 1.719.844.293.148.584.31.888.436a3 3 0 0 0 .446.166 2.5 2.5 0 0 0 .47.054.232.232 0 0 0 .162-.392m-3.434 3.421a9.5 9.5 0 0 0-1.625-.9q-.87-.433-1.767-.805a19.4 19.4 0 0 0-3.858-1.169.04.04 0 0 0-.02.075c1.244.377 2.485.778 3.702 1.238q.949.359 1.87.786c.558.258 1.098.606 1.672.82.025.01.048-.028.026-.045m-2.535 1.64a5.7 5.7 0 0 0-1.508-.846c-.495-.235-.998-.447-1.502-.662-1.066-.456-2.097-1.323-3.317-1.283-.518.017-.42.516-.172.708l-.021.006c.041.023.085.04.127.06.988.5 2.165.4 3.2.745a17 17 0 0 1 1.666.684 8.5 8.5 0 0 0 1.482.666.047.047 0 0 0 .045-.078m-3.68 2.761c-.218.091-.445-.09-.627-.193a6 6 0 0 1-.532-.346q-.525-.376-1.066-.731c-.628-.411-1.561-1.061-2.327-.59a.134.134 0 0 0-.026.209 2.4 2.4 0 0 0 1.256.416 4.3 4.3 0 0 1 1.393.335 3.3 3.3 0 0 1 .567.344 5 5 0 0 1 .53.519c.238.24.623.4.893.116.043-.044-.01-.1-.061-.08m20.793-25.146a41 41 0 0 0-4.772-1.297 11.4 11.4 0 0 0-4.723-.54.374.374 0 0 0 0 .714 36 36 0 0 0 4.673.193 25.6 25.6 0 0 1 4.808.982.027.027 0 0 0 .014-.052m-3.307-3.483c-.817-.163-1.64-.341-2.467-.45a6.6 6.6 0 0 0-1.25-.06 1.74 1.74 0 0 0-1.142.317.173.173 0 0 0 0 .243 1.84 1.84 0 0 0 1.141.26 10 10 0 0 0 1.205-.042c.835-.071 1.658-.15 2.498-.153.064 0 .082-.101.015-.115m9.182 2.204c-1.05-.301-2.126-.529-3.187-.787-.04-.01-.056.05-.017.06 1.061.261 2.12.555 3.19.772a.023.023 0 0 0 .013-.045m1.026-2.316a26.5 26.5 0 0 0-3.808-.983 132 132 0 0 0-3.952-.837 31 31 0 0 0-3.738-.546 7.5 7.5 0 0 0-3.6.227.051.051 0 0 0 0 .088 9.2 9.2 0 0 0 3.362.464c1.304.088 2.61.125 3.915.218a35 35 0 0 1 3.974.526c1.29.243 2.542.678 3.83.903a.031.031 0 0 0 .017-.06m-7.901-4.398a23 23 0 0 0-3.149-.76 10.6 10.6 0 0 0-1.583-.102c-.566.005-1.11.13-1.67.179a.102.102 0 0 0 0 .203c.537.019 1.071.143 1.608.191q.772.067 1.544.114c1.08.07 2.153.099 3.223.273a.05.05 0 0 0 .027-.098m5.59 1.382a.012.012 0 0 0-.006.023l.899.235a.012.012 0 0 0 .006-.022zm-8.037-4.183c-.721-.059-1.446-.128-2.17-.138-.725-.01-1.446.009-2.17.03a.027.027 0 0 0 0 .054c.723.06 1.444.119 2.17.15.722.03 1.448 0 2.17-.018a.04.04 0 0 0 0-.078m-26.216-25.399c-.047-.057-.149.02-.104.08 2.204 2.965 4.177 6.175 6.712 8.873a.07.07 0 0 0 .11-.085c-1.821-3.222-4.39-6.01-6.718-8.868m10.73 9.015c-.856-1.153-1.71-2.309-2.515-3.5-1.61-2.385-3.299-4.715-4.966-7.061-.043-.06-.142-.006-.101.06 1.518 2.406 3.095 4.777 4.837 7.029.925 1.195 1.822 2.412 2.74 3.614a42 42 0 0 0 2.563 3.334.04.04 0 0 0 .062-.048c-.774-1.202-1.768-2.28-2.62-3.428m5.493 1.106c-.745-1.06-1.404-2.18-2.106-3.27a78 78 0 0 0-4.323-6.05c-.02-.023-.06.009-.043.034q2.146 3.094 4.238 6.228c.695 1.045 1.403 2.09 1.994 3.198a12.6 12.6 0 0 0 1.736 3.159.272.272 0 0 0 .45-.263 10.7 10.7 0 0 0-1.946-3.036m6.876 3.474c-.45-.96-1.168-1.779-1.709-2.69-.558-.94-1.098-1.89-1.677-2.82-.56-.899-1.104-1.806-1.722-2.666a22.5 22.5 0 0 0-2.022-2.374c-.05-.053-.15.02-.104.08 1.26 1.682 2.515 3.418 3.644 5.191a67 67 0 0 1 1.608 2.637c.546.95.88 2.018 1.49 2.93l.002-.005c.146.237.679.121.49-.283m.13-6.486a7 7 0 0 0-.57-.828 10 10 0 0 0-1.392-1.385.02.02 0 0 0-.028.028c.434.478.799 1.021 1.195 1.53.398.514.795 1.038 1.158 1.577a.05.05 0 0 0 .087-.051q-.21-.443-.45-.87m3.597 5.644q-.238-.281-.46-.575c-.148-.198-.272-.418-.406-.626-.144-.225-.291-.445-.427-.675a.09.09 0 0 0-.156.09c.133.233.252.47.375.706.115.22.245.436.343.663q.144.339.272.684a2.6 2.6 0 0 0 .39.75.318.318 0 0 0 .527-.308 2.6 2.6 0 0 0-.458-.709m3.065-1.412q-.456-.793-.947-1.566a23.6 23.6 0 0 0-2.171-2.853c-.047-.054-.136.016-.098.075.633.997 1.233 2.015 1.851 3.022q.45.734.87 1.486c.249.444.47 1.112.956 1.351.036.018.096.006.103-.042.08-.521-.319-1.045-.564-1.473m2.508-1.378a11.8 11.8 0 0 0-1.639-1.795.102.102 0 0 0-.143.144c.496.615.938 1.27 1.386 1.922a10.2 10.2 0 0 0 1.343 1.87c.033.03.107.013.1-.042a4.8 4.8 0 0 0-1.047-2.099m3.33-.292a3.6 3.6 0 0 0-.324-.447 5 5 0 0 0-.356-.379l-.375-.383a.075.075 0 0 0-.116.09l.27.444a5 5 0 0 0 .287.451 3.5 3.5 0 0 0 .341.414c.13.124.269.236.407.351a.063.063 0 0 0 .098-.076c-.075-.157-.146-.315-.232-.465m-72.142-40.546a23.8 23.8 0 0 0-5.738-3.37c-.108-.047-.204.107-.095.162 1.983.993 3.844 2.192 5.757 3.306.06.035.132-.052.076-.098m3.84-2.176c-2.321-2.261-5.469-3.62-8.464-4.726-.034-.013-.055.04-.025.057 1.412.772 2.788 1.61 4.165 2.441a45 45 0 0 0 4.215 2.369c.087.04.186-.066.109-.141m2.282-3.534c-.751-.406-1.429-.918-2.17-1.337-.857-.485-1.76-.882-2.631-1.34a53 53 0 0 0-5.57-2.42c-.029-.012-.048.035-.02.05a53 53 0 0 0 5.499 2.586 15.3 15.3 0 0 1 2.75 1.255 9.2 9.2 0 0 0 2.06 1.399.106.106 0 0 0 .081-.193m.979-4.801c-.327-.14-.672-.185-1.006-.295a10 10 0 0 1-1.2-.522c-.697-.338-1.389-.686-2.088-1.017-1.404-.665-2.825-1.29-4.243-1.922-.086-.038-.162.086-.075.128 1.398.67 2.792 1.348 4.205 1.986.708.32 1.424.624 2.136.937a12 12 0 0 1 1.047.504c.338.19.623.46.971.633.292.145.543-.307.252-.432m-1.391-4.013a15 15 0 0 0-2.788-1.49c-.932-.43-1.89-.804-2.851-1.164-.05-.018-.085.064-.036.086.963.425 1.91.883 2.858 1.34a29 29 0 0 0 2.778 1.321c.059.021.081-.06.04-.093m-1.019-4.987a30 30 0 0 0-3.458-1.529c-.036-.015-.063.048-.027.065a30 30 0 0 0 3.461 1.521.031.031 0 0 0 .024-.057m-.499-3.824a4 4 0 0 0-.557-.43c-.193-.122-.4-.224-.603-.329a14 14 0 0 0-1.27-.557c-.028-.011-.047.035-.02.05.405.228.797.476 1.199.71.197.114.388.242.59.35.201.106.405.196.615.284.044.018.08-.049.046-.078m-.6-5.535a1.1 1.1 0 0 0-.334-.222 1.2 1.2 0 0 0-.39-.112 1.5 1.5 0 0 0-.394.019c-.092.016-.069.162.022.16a1.3 1.3 0 0 1 .333.04 2 2 0 0 1 .327.104 3 3 0 0 1 .3.171 2 2 0 0 1 .279.21.047.047 0 0 0 .073-.056 1.1 1.1 0 0 0-.216-.314m-7.957 74.073a15 15 0 0 0-2.516-1.169q-1.316-.53-2.637-1.049c-.024-.01-.042.032-.018.043q1.277.621 2.56 1.231a15 15 0 0 0 2.563 1.059.063.063 0 0 0 .048-.115m6.176.852a33 33 0 0 0-4.883-3.55c-1.725-1.14-3.497-2.209-5.281-3.253a.035.035 0 0 0-.036.061c1.713 1.106 3.395 2.257 5.078 3.409a58 58 0 0 0 5.046 3.43.063.063 0 0 0 .076-.097m2.103-2.977a17.3 17.3 0 0 0-2.415-1.794l-2.518-1.79c-1.706-1.211-3.427-2.4-5.145-3.594-.041-.029-.08.039-.04.068 1.665 1.217 3.325 2.441 5.002 3.641l2.433 1.741a18.4 18.4 0 0 0 2.627 1.802.047.047 0 0 0 .056-.074m.404-3.989a90 90 0 0 0-7.904-5.65c-.042-.028-.08.039-.04.067 2.671 1.828 5.242 3.796 7.902 5.638.032.022.073-.03.042-.055m-.099-4.255a8.8 8.8 0 0 0-1.659-1.257c-.62-.429-1.251-.843-1.874-1.27a271 271 0 0 1-3.658-2.535c-.036-.025-.082.034-.048.062a80 80 0 0 0 3.497 2.697c.593.429 1.186.862 1.795 1.267a8.2 8.2 0 0 0 1.905 1.108c.044.014.069-.042.042-.072m-1.898-6.182q-.606-.445-1.22-.878l-2.413-1.71c-.075-.054-.14.067-.07.121l2.318 1.783q.578.446 1.164.883a3.8 3.8 0 0 0 1.158.742.06.06 0 0 0 .066-.086 3.6 3.6 0 0 0-1.003-.855m.346-3.873a9.5 9.5 0 0 0-1.182-.791l-1.241-.765c-.052-.032-.097.048-.047.081l1.198.79a9.6 9.6 0 0 0 1.224.746c.037.017.084-.03.048-.061m-1.099-4.821a4 4 0 0 0-.825-.443c-.024-.01-.042.032-.018.043a6.5 6.5 0 0 1 1.504 1.068.023.023 0 0 0 .033-.033 4 4 0 0 0-.694-.635m-1.603 79.261a65 65 0 0 0-6.871-3.87c-.08-.04-.152.08-.071.122 2.333 1.215 4.586 2.57 6.902 3.815a.04.04 0 0 0 .04-.067m4.193-2.503a85 85 0 0 0-12.212-7.751.031.031 0 0 0-.031.054c4.114 2.509 8.071 5.262 12.176 7.783.052.031.116-.047.067-.086m.147-6.02a10.7 10.7 0 0 1-1.845-.764 35 35 0 0 1-3.142-2.345 32.2 32.2 0 0 0-6.24-3.891.035.035 0 0 0-.036.06c2.137 1.318 4.082 2.919 6.166 4.314 1.01.677 2.057 1.295 3.067 1.97.55.368 1.006.819 1.517 1.231a1.42 1.42 0 0 0 1.373.447.16.16 0 0 0 .112-.197 1.35 1.35 0 0 0-.972-.825m1.512-4.723a10.7 10.7 0 0 0-2.585-1.716c-.966-.621-1.887-1.327-2.787-2.04-.798-.63-1.574-1.286-2.397-1.885a15 15 0 0 0-1.254-.814 2.3 2.3 0 0 0-1.288-.451.272.272 0 0 0-.212.385 2.8 2.8 0 0 0 .98.772c.425.262.834.545 1.249.823.898.601 1.821 1.162 2.733 1.742.922.587 1.841 1.2 2.7 1.874a10.8 10.8 0 0 0 2.52 1.895.35.35 0 0 0 .341-.09.4.4 0 0 0 .09-.155.35.35 0 0 0-.09-.34m-.744-5.518c-.638-.528-1.423-.868-2.103-1.342a25 25 0 0 1-2.175-1.724 17 17 0 0 0-1.943-1.582 6.2 6.2 0 0 0-2.29-1.085c-.066-.01-.145.06-.097.127a6.7 6.7 0 0 0 1.77 1.547c.737.512 1.514.902 2.294 1.338a18 18 0 0 1 2.145 1.423c.718.551 1.272 1.284 1.987 1.831.304.233.71-.288.412-.533m-4.8-7.679c-.089-.122-.19-.227-.283-.344a4 4 0 0 0-.731-.676 5.5 5.5 0 0 0-.803-.482 5 5 0 0 0-.879-.348.09.09 0 0 0-.111.085 2 2 0 0 1 .016.403c-.002.03.049.038.054.008a2 2 0 0 1 .066-.247c.176.172.355.344.545.5.245.204.482.425.739.613a6 6 0 0 0 .746.513c.132.07.254.157.385.23.136.076.262.182.403.246a.095.095 0 0 0 .128-.129 3 3 0 0 0-.276-.372m4.539 3.183a.64.64 0 0 0-.288-.232l-.062-.023-.041-.015-.056-.007-.132-.056-.081-.034a.2.2 0 0 0-.059-.003l-.018-.01-.094-.044-.176-.085a.6.6 0 0 0-.102-.044.2.2 0 0 1-.071-.025l-.177-.108a.129.129 0 1 0-.13.223l.152.105c.046.032.075.08.128.126l.138.117.069.058.034.03.017.016a.5.5 0 0 0 .091.114l.066.062.042.043a1 1 0 0 0 .116.133.6.6 0 0 0 .262.143.34.34 0 0 0 .347-.118.325.325 0 0 0 .025-.366m-1.146-5.398q-.267-.216-.54-.424-.62-.464-1.249-.916c-.826-.593-1.692-1.12-2.566-1.639-.053-.031-.094.046-.047.081.8.612 1.584 1.245 2.392 1.848q.6.448 1.194.909.291.223.585.442a1.7 1.7 0 0 0 .608.35.099.099 0 0 0 .11-.143 1.7 1.7 0 0 0-.487-.507m-.444-5.236a4.7 4.7 0 0 0-.957-.577 10.3 10.3 0 0 0-2.037-.681c-.029-.007-.05.036-.021.05a7.7 7.7 0 0 1 1.728 1.104c.26.218.51.445.768.664.25.212.572.515.925.481a.166.166 0 0 0 .16-.16c.033-.366-.306-.673-.566-.88m.702-3.878a1.6 1.6 0 0 0-.6-.572 3.6 3.6 0 0 0-.653-.353 3 3 0 0 0-.374-.142c-.114-.033-.234-.034-.349-.064-.239-.062-.473-.119-.708-.194-.095-.03-.164.122-.07.164a3 3 0 0 1 .595.36c.09.067.155.161.24.234q.144.121.292.236c.169.131.38.312.572.454l.068.05.02.017.128.102a1.2 1.2 0 0 0 .431.24.36.36 0 0 0 .38-.13.37.37 0 0 0 .028-.402m-1.934-6.324c-.009 0-.007.011-.015.013l.047-.012Zm-.016.014.001-.001z"/><path fill="currentColor" d="M174.209 110.005a.3.3 0 0 0 .045-.128.6.6 0 0 0-.018-.195v.166a.64.64 0 0 0-.13-.517 1.5 1.5 0 0 0-.163-.196 1 1 0 0 0-.2-.137.8.8 0 0 0-.212-.094 1.4 1.4 0 0 0-.213-.025h-.08a.4.4 0 0 0-.068.01l-.01.004c-.002 0 .007-.001.003-.001a.36.36 0 0 0-.202.045.076.076 0 0 0-.024.139l-.01-.009.018.022c.005.003.002.01.007.011l.005.002a1 1 0 0 0 .098.087l.01.01q-.023-.027-.011-.01c.006-.001.032.043.046.058l.048.056.016.023a1 1 0 0 0 .087.118q.061.063.115.132l-.054-.071q.096.125.194.248l-.058-.075a3 3 0 0 0 .162.206c.02.021.084.104.011.008a1 1 0 0 0 .088.09.4.4 0 0 0 .048.064.35.35 0 0 0 .139.08l.003.001a1 1 0 0 0 .067.094.102.102 0 0 0 .16-.02.4.4 0 0 0 .044-.134l.022-.04Zm21.794 59.872c-1.64-3.01-3.885-5.645-5.802-8.474a.113.113 0 0 0-.195.114c1.699 2.972 3.38 6.055 5.844 8.478a.098.098 0 0 0 .153-.118m1.524-2.142-1.707-2.66a60 60 0 0 0-3.39-5.05c-.025-.032-.08.01-.056.042 1.202 1.657 2.192 3.489 3.273 5.226l1.616 2.597a14.6 14.6 0 0 0 1.719 2.555c.044.045.135-.001.111-.065a14.7 14.7 0 0 0-1.566-2.645m-52.94.975c-.022-.048-.105-.014-.085.035a32.6 32.6 0 0 0 4.834 8.712c.034.042.1-.012.074-.057-1.691-2.852-3.419-5.682-4.823-8.69m8.843 10.656q-1.134-1.509-2.161-3.094a59 59 0 0 1-3.712-6.558c-.026-.055-.105-.007-.08.047a52 52 0 0 0 3.61 6.874q1.007 1.593 2.122 3.115a11.8 11.8 0 0 0 2.355 2.733c.062.045.124-.039.096-.096a20.3 20.3 0 0 0-2.23-3.021m3.534 1.542a71 71 0 0 1-2.145-2.822 72 72 0 0 1-3.73-5.673.023.023 0 0 0-.041.024 50 50 0 0 0 3.574 5.995 53 53 0 0 0 1.946 2.591 14 14 0 0 0 2.297 2.508c.052.04.116-.035.086-.086a24 24 0 0 0-1.987-2.537m-1.033-3.912c-.024-.031-.077.01-.055.042a39.5 39.5 0 0 0 5.277 6.594c.043.041.124-.014.086-.066-1.664-2.27-3.55-4.373-5.308-6.57m9.376 6.707c-1.271-1.126-2.589-2.183-3.921-3.235-.035-.027-.085.02-.05.05.652.558 1.292 1.134 1.958 1.675a84 84 0 0 0 1.98 1.553c.024.019.056-.023.033-.043m72.541 50.019c-.355 1.6-.79 3.185-1.227 4.766a41 41 0 0 0-1.15 4.8c-.015.101.12.18.179.075 1.601-2.894 2.044-6.377 2.344-9.622.008-.083-.128-.1-.146-.02m-3.01.007a21 21 0 0 1-.56 2.604c-.188.845-.379 1.69-.65 2.513a.043.043 0 0 0 .078.033 11.6 11.6 0 0 0 1.006-2.476 13.5 13.5 0 0 0 .259-2.674c.004-.086-.125-.084-.133 0m-2.278 8.033c-.068.271-.126.547-.206.815-.075.25-.171.495-.26.741q-.133.37-.252.744a2 2 0 0 1-.08.238.5.5 0 0 1-.117.174.146.146 0 0 0 0 .25.405.405 0 0 0 .56-.208 2.2 2.2 0 0 0 .176-.827c.033-.31.047-.625.09-.935.046-.324.12-.644.186-.965.013-.063-.082-.09-.097-.027m-1.18-5.241q-.826 2.94-1.699 5.87c-.287.957-.581 1.914-.894 2.864a9 9 0 0 0-.817 2.803c.002.098.142.179.213.088a7.5 7.5 0 0 0 .93-2.57c.29-.996.584-1.99.86-2.99a90 90 0 0 0 1.452-6.053.023.023 0 0 0-.045-.013m-3.86 2.288c-.407 1.086-.813 2.15-1.139 3.264a76 76 0 0 0-.818 3.115 22 22 0 0 1-.974 3.31c-.146.343-1.02 1.787-.27 1.987.747.2.742-1.44.8-1.841a22 22 0 0 1 .887-3.334 57 57 0 0 0 1.641-6.466.066.066 0 0 0-.128-.035m-3.735 3.311c-.575 1.664-1.077 3.35-1.618 5.027a38 38 0 0 1-.862 2.442 7.4 7.4 0 0 1-.67 1.34 3.2 3.2 0 0 0-.595 1.08.36.36 0 0 0 .654.276 3 3 0 0 0 .345-1.186 9 9 0 0 1 .363-1.286c.297-.845.633-1.677.943-2.518a34 34 0 0 0 1.508-5.157.035.035 0 0 0-.068-.018m-4.542 4.227c-.405 1.361-.839 2.718-1.372 4.035-.267.661-.563 1.31-.828 1.973a5 5 0 0 0-.618 1.925.21.21 0 0 0 .353.146 4.26 4.26 0 0 0 .838-1.756c.248-.689.439-1.4.632-2.106.38-1.392.767-2.783 1.093-4.19a.05.05 0 0 0-.098-.027m-3.757 3.298a35 35 0 0 1-1.516 3.294c-.27.514-.56 1.015-.846 1.52a3.06 3.06 0 0 0-.652 1.523.15.15 0 0 0 .223.128c.51-.245.747-.92.979-1.397.255-.524.482-1.063.703-1.603a34 34 0 0 0 1.192-3.442c.016-.055-.063-.073-.083-.023m-4.022 3.687a24 24 0 0 0-1.527 1.985 10 10 0 0 0-.63 1.065 2.1 2.1 0 0 0-.348 1.214c.012.088.108.18.2.114a2.23 2.23 0 0 0 .659-.94c.19-.382.357-.776.544-1.16a24 24 0 0 1 1.157-2.234c.02-.034-.03-.075-.055-.043m-4.556 3.601c-.22.262-.454.517-.653.795l-.304.423a2 2 0 0 0-.126.226 2 2 0 0 0-.103.215c-.01.03.03.065.058.044a2 2 0 0 0 .169-.163 2 2 0 0 0 .171-.186l.305-.422c.201-.28.37-.585.55-.88.025-.04-.035-.09-.067-.052m31.574-40.012a22.2 22.2 0 0 0-5.309-6.757c-.058-.046-.14.032-.083.083 2.15 1.906 3.47 4.66 4.827 7.14q2.221 4.065 4.258 8.234a.094.094 0 0 0 .171-.072 57 57 0 0 0-3.864-8.628m-10.309 46.098a55 55 0 0 0-1.584-5.963.043.043 0 0 0-.083.023c.504 1.956.957 3.923 1.533 5.859.576 1.939.725 3.985 1.318 5.91.02.065.131.057.123-.016-.208-1.963-.936-3.874-1.307-5.813m4.509 7.852a12 12 0 0 1-.457-1.47c-.263-.99-.509-1.986-.77-2.978-.52-1.984-1.069-3.96-1.673-5.92a.023.023 0 0 0-.045.012c.498 1.99 1.02 3.973 1.534 5.96.257.991.521 1.983.758 2.98a12 12 0 0 1 .299 1.68c.03.317.028.568.34.71a.086.086 0 0 0 .112-.03c.244-.316.038-.612-.098-.945m3.079 2.962.003.001a10 10 0 0 0-.47-1.338 10.5 10.5 0 0 1-.353-1.37c-.173-.864-.306-1.733-.44-2.604a20.5 20.5 0 0 0-1.27-4.974c-.014-.035-.063-.009-.057.024.334 1.718.599 3.437 1.049 5.131.225.848.45 1.693.634 2.55a10.5 10.5 0 0 1 .217 1.473 8 8 0 0 0 .1 1.27c.094.41.708.173.587-.163m1.395-2.703a32 32 0 0 0-.669-2.566.023.023 0 0 0-.045.013c.182.852.33 1.71.474 2.569a19 19 0 0 0 .456 2.559.059.059 0 0 0 .115-.016 10 10 0 0 0-.33-2.559m-3.719 12.258a291 291 0 0 0-.2 3.832c-.001.025.037.025.039 0 .085-1.277.155-2.554.223-3.832.002-.04-.06-.04-.062 0m-16.212 3.065a.055.055 0 0 0-.11 0c-.068.878-.181 1.75-.262 2.627-.08.868-.229 1.734-.295 2.603-.005.068.096.076.115.015a15 15 0 0 0 .473-2.568 18 18 0 0 0 .08-2.677m4.041 19.792a100 100 0 0 0-.545 5.231c-.002.03.044.03.047 0 .214-1.742.4-3.48.521-5.231.002-.016-.021-.015-.023 0m-2.977-1.025c-.469 5.154-1.101 10.293-1.506 15.453-.004.052.084.065.092.013.78-5.122 1.138-10.298 1.46-15.466.003-.03-.043-.03-.046 0m-3.185 2.802q-.364 4.48-.81 8.95c-.298 2.975-.627 5.947-.7 8.937-.002.073.117.092.13.017a79 79 0 0 0 .963-8.83q.307-4.535.527-9.073c.003-.071-.104-.07-.11 0m-3.101 1.414a28.3 28.3 0 0 0-.866 5.648q-.313 3.006-.571 6.018a454 454 0 0 0-.48 5.904q-.107 1.477-.201 2.955a13 13 0 0 0-.083 2.862c.019.112.183.097.211 0a13.2 13.2 0 0 0 .25-2.74q.096-1.477.204-2.954c.146-1.97.302-3.939.49-5.905q.284-2.95.623-5.894a35 35 0 0 0 .5-5.883.04.04 0 0 0-.077-.01m-3.845 4.831c-.008-.033-.05-.027-.06 0a17 17 0 0 0-.575 5.474c-.043 1.865-.16 3.726-.297 5.586a213 213 0 0 1-.478 5.584 50 50 0 0 1-.362 2.914 10.5 10.5 0 0 0-.354 2.79.334.334 0 0 0 .652.089 9.6 9.6 0 0 0 .162-2.692c.016-.953.077-1.902.14-2.853.126-1.904.289-3.806.448-5.707.16-1.907.325-3.812.554-5.711a16.3 16.3 0 0 0 .17-5.474m-5.121 17.643c.209-3.198.41-6.394.578-9.594.004-.086-.127-.084-.133 0a732 732 0 0 0-.635 9.47c-.096 1.558-.173 3.118-.289 4.674-.114 1.533-.699 3.06-.692 4.593a.395.395 0 0 0 .772.104c.469-1.388.03-3.017.09-4.45.067-1.6.204-3.2.309-4.797m-2.938-4.901c-.04-.33-.174-.65-.192-.985a.02.02 0 0 0-.039 0c-.039.338-.202.656-.273.986-.06.278-.089.56-.125.841a22 22 0 0 0-.17 1.753q-.091 1.778-.19 3.557a.082.082 0 0 0 .162.021 28 28 0 0 0 .747-3.55 12.5 12.5 0 0 0 .115-1.78 7 7 0 0 0-.035-.843m-1.103 11.401a.16.16 0 0 0-.32 0 28 28 0 0 1-.11 3.139c-.048.522-.113 1.042-.166 1.564a4.2 4.2 0 0 0 .002 1.46.083.083 0 0 0 .15.02 3.3 3.3 0 0 0 .363-1.36c.061-.54.088-1.081.105-1.624a44 44 0 0 0-.024-3.199m-3.417-3.454-.546 6.123a185 185 0 0 1-.302 3.061 10.5 10.5 0 0 0-.216 2.89c.047.248.389.203.46 0a10.5 10.5 0 0 0 .197-2.89q.061-1.53.148-3.061l.353-6.123c.003-.06-.089-.06-.094 0m-3.494-.503a.063.063 0 0 0-.123-.016 43 43 0 0 0-.75 7.601c-.054 1.308-.116 2.62-.218 3.924a18 18 0 0 1-.331 2.119 3.1 3.1 0 0 0 .018 1.636.272.272 0 0 0 .52 0 3.14 3.14 0 0 0 .12-1.636 13 13 0 0 1-.136-2.119 54 54 0 0 1 .246-3.801c.257-2.556.65-5.135.654-7.708m-4.844 7.147c-.196 1.837-.384 3.675-.607 5.509-.11.902-.231 1.802-.351 2.702q-.09.675-.155 1.351a1.74 1.74 0 0 0 .1 1.095.11.11 0 0 0 .172.022 1.5 1.5 0 0 0 .289-.909q.067-.726.1-1.455c.043-.9.083-1.802.136-2.702.11-1.873.255-3.742.394-5.613.004-.05-.073-.05-.078 0m-3.942 5.101c-.128 1.29-.328 2.568-.5 3.852-.088.664-.17 1.328-.257 1.992a4.1 4.1 0 0 0 .001 1.73.103.103 0 0 0 .186.025 4 4 0 0 0 .398-1.676 61 61 0 0 0 .16-1.997c.086-1.307.108-2.618.177-3.926.005-.107-.154-.103-.164 0m-3.536-5.991q-.283 4.085-.582 8.169c-.197 2.715-.418 5.446-.36 8.17a.07.07 0 0 0 .14 0c.357-2.705.442-5.446.546-8.17q.157-4.085.326-8.17c.002-.045-.067-.045-.07 0m-2.959-1.414c-.481 5.778-1.06 11.572-1.16 17.371-.001.067.094.063.102 0 .654-5.762.837-11.58 1.113-17.37.001-.036-.052-.036-.055 0m-2.882-2.029c-.427 3.54-.816 7.087-1.101 10.641q-.209 2.601-.352 5.206a24.4 24.4 0 0 0 .017 5.237c.017.104.18.097.203 0a27.6 27.6 0 0 0 .44-5.113q.112-2.665.241-5.33c.172-3.549.355-7.097.607-10.641.002-.036-.05-.034-.055 0m-3.055-2.571c-.556 3.901-1.065 7.814-1.4 11.742a93 93 0 0 0-.45 12.016.094.094 0 0 0 .187 0c.476-3.954.645-7.92.901-11.893.255-3.954.483-7.91.8-11.86.002-.022-.035-.027-.038-.005m-3.089-.138a107 107 0 0 0-2.09 23.128.055.055 0 0 0 .11 0c.315-3.82.487-7.65.799-11.472.317-3.887.735-7.767 1.279-11.629.009-.063-.086-.092-.098-.027m-3.635-2.646a135 135 0 0 0-1.796 11.705 88 88 0 0 0-.67 12.02.074.074 0 0 0 .15 0c.41-3.958.628-7.935 1-11.897.369-3.949.845-7.89 1.37-11.82.004-.031-.048-.038-.054-.008m-2.825-3.831a51 51 0 0 0-1.016 5.317 139 139 0 0 0-.722 5.052 95 95 0 0 0-.827 10.682c0 .067.094.063.102 0 .414-3.515.686-7.045 1.108-10.56.214-1.78.43-3.559.68-5.334.243-1.711.557-3.43.713-5.151.002-.023-.033-.026-.039-.006m-2.797-2.831a174 174 0 0 0-1.79 9.951 72 72 0 0 0-1.094 9.84c0 .047.076.06.084.011.599-3.264.804-6.617 1.274-9.903a236 236 0 0 1 1.609-9.876c.01-.054-.072-.077-.083-.023m-3.18-1.528a128 128 0 0 0-2.271 14.056c-.006.056.09.07.1.013.804-4.677 1.514-9.364 2.208-14.059.004-.024-.032-.035-.037-.01m-9.049-17.488a74 74 0 0 0-1.687 11.111c-.003.048.077.06.084.012.547-3.708.963-7.42 1.678-11.102.01-.049-.064-.07-.075-.02m-3.125-2.437q-.833 4.455-1.514 8.937a67.5 67.5 0 0 0-.9 8.824c0 .077.125.098.139.018.49-2.867.748-5.786 1.082-8.675q.526-4.558 1.254-9.087c.006-.04-.053-.057-.06-.017m-4.155 3.838-1.02 9.39c-.34 3.122-.698 6.254-.86 9.39-.002.056.092.07.1.014.942-6.217 1.34-12.536 1.929-18.794.009-.095-.138-.093-.149 0m-3.622 3.436a92 92 0 0 0-1.825 19.549.063.063 0 0 0 .125 0 195 195 0 0 1 1.85-19.507c.017-.098-.132-.141-.15-.042m-3.162-2.313c-.341 1.968-.734 3.924-.972 5.908q-.177 1.475-.327 2.953c-.028.275-.396 1.92.113 1.966.507.046.43-1.505.453-1.755q.13-1.478.286-2.953c.215-2.031.348-4.072.601-6.098.01-.087-.138-.108-.153-.021m-1.875 14.325c-.107 1.155-.267 2.3-.413 3.45-.073.575-.166 1.148-.224 1.725-.027.265-.058.53-.077.796a4 4 0 0 0-.01.398 1 1 0 0 0 .01.188c-.19.26.255.489.495.27.231-.21.226-.634.25-.922.033-.398.068-.796.077-1.195.036-1.57.105-3.144.228-4.71.017-.217-.316-.213-.336 0m-3.256-6.889a.078.078 0 0 0-.156 0c-.02 1.092-.194 2.213-.318 3.298q-.186 1.618-.38 3.235c-.14 1.174-.3 2.345-.46 3.517-.145 1.06-.382 2.079-.594 3.118a.14.14 0 0 0-.06.066.45.45 0 0 0 .037.449c.145.317.575.121.599-.162.047-.571.022-1.144.079-1.717.064-.643.16-1.282.252-1.922.163-1.143.327-2.285.51-3.424.168-1.052.36-2.102.485-3.16a15 15 0 0 0 .006-3.298m-4.015.253a48 48 0 0 0-1.082 6.428 84 84 0 0 1-.524 3.155q-.15.784-.344 1.555a2.33 2.33 0 0 0-.143 1.296.127.127 0 0 0 .229.03 2.33 2.33 0 0 0 .273-1.277q.056-.731.152-1.458c.158-1.17.36-2.335.565-3.498a46 46 0 0 0 .981-6.216.055.055 0 0 0-.107-.015m-4.858 1.535c-.002-.025-.04-.025-.039 0a7.8 7.8 0 0 1-.122 1.91c-.005.029.039.041.046.012a6 6 0 0 0 .115-1.922m-1.542 7.532c-.114.355-.224.707-.31 1.07s-.148.728-.208 1.098a.035.035 0 0 0 .068.019c.113-.356.22-.708.306-1.072s.146-.729.204-1.099a.031.031 0 0 0-.06-.017m-3.156-15.084c-.486 2.897-.982 5.788-1.351 8.702-.005.044.069.054.077.01.544-2.881.96-5.78 1.387-8.68.01-.074-.1-.107-.113-.032m-2.927-5.743a94.5 94.5 0 0 0-2.87 18.66c-.002.05.072.048.078 0 .37-3.161.67-6.328 1.137-9.477q.684-4.615 1.7-9.17c.007-.03-.038-.042-.045-.013m-2.636-5.097q-1.597 5.038-2.759 10.202a47 47 0 0 0-1.593 10.262.11.11 0 0 0 .215.03 92 92 0 0 0 2.074-10.226c.642-3.43 1.363-6.846 2.108-10.255a.023.023 0 0 0-.045-.012m-2.424-6.511a103 103 0 0 0-3.486 12.06 74.7 74.7 0 0 0-1.887 12.207c-.004.07.11.086.123.016.772-4.067 1.407-8.157 2.265-12.208.858-4.054 1.89-8.08 3.015-12.067.006-.02-.023-.027-.03-.008m-3.431-1.317a89.3 89.3 0 0 0-5.15 19.475c-.008.061.095.074.108.015a180 180 0 0 1 5.08-19.48c.008-.024-.029-.033-.038-.01m-3.105-1.372a89.4 89.4 0 0 0-4.106 16.745c-.007.053.071.079.083.023 1.238-5.615 2.522-11.215 4.076-16.753a.027.027 0 0 0-.053-.015m-2.724-2.305a513 513 0 0 0-1.656 6.556c-.532 2.186-1.14 4.378-1.502 6.6a.05.05 0 0 0 .098.027c.677-2.145 1.121-4.375 1.63-6.564.511-2.198.994-4.402 1.476-6.607.006-.03-.038-.042-.046-.012m-2.106-3.433c-.874 3.133-1.784 6.256-2.405 9.452a.066.066 0 0 0 .128.035c1-3.098 1.71-6.272 2.458-9.438a.094.094 0 0 0-.18-.05m70.593 3.478c-1.058-2.91-2.133-5.815-3.2-8.723-.037-.103-.202-.06-.165.046 1.042 2.957 2.075 5.918 3.129 8.87 1.028 2.88 1.989 5.802 3.19 8.614.027.062.126.018.108-.045-.873-2.963-2.006-5.86-3.062-8.762m3.438 1.555c-.359-.994-.716-1.99-1.093-2.976a328 328 0 0 0-2.425-6.132c-.013-.031-.065-.018-.053.015.773 2.094 1.52 4.197 2.262 6.302.365 1.034.74 2.065 1.103 3.1a17 17 0 0 0 1.144 2.98c.036.062.115.017.107-.045a16.7 16.7 0 0 0-1.045-3.244m.204-7.325c-.027-.07-.14-.04-.113.031.786 2.09 1.494 4.236 2.43 6.265.015.033.068.01.057-.024-.657-2.13-1.563-4.196-2.374-6.272m32.524-53.101a4 4 0 0 0-.611-.522 7 7 0 0 1-.547-.523c-.379-.378-.712-.798-1.077-1.189a30 30 0 0 0-2.294-2.173.063.063 0 0 0-.089.088 30 30 0 0 0 2.18 2.289c.38.354.792.675 1.16 1.042.178.178.368.348.527.542a4.5 4.5 0 0 0 .552.645.14.14 0 0 0 .199-.2m3.08-.794a10 10 0 0 1-1.674-1.065c-.524-.402-1.062-.779-1.598-1.164-.048-.035-.1.04-.061.08a7 7 0 0 0 1.532 1.244c.577.34 1.177.646 1.773.952.032.016.06-.031.028-.047m2.415-1.526c-.292-.102-.591-.185-.887-.276-.034-.01-.048.043-.015.053.296.09.59.19.89.268a.023.023 0 0 0 .012-.045m-85.919 17.769c-2.393-.645-4.793-1.291-7.142-2.081-.073-.025-.1.086-.032.113a37.2 37.2 0 0 0 7.153 2.044c.048.008.07-.062.02-.076m8.571-1.481c-1.881-.486-3.807-.803-5.708-1.208q-2.859-.609-5.663-1.432a.035.035 0 0 0-.019.068 94 94 0 0 0 5.713 1.667 32 32 0 0 0 5.66 1.036c.075.005.089-.112.017-.13m4.011-2.909c-.674-.454-1.776-.176-2.548-.21a21 21 0 0 1-2.957-.437 53 53 0 0 1-5.541-1.368c-.034-.01-.048.042-.015.053a43 43 0 0 0 5.726 1.475c.952.174 1.918.275 2.864.47.735.152 1.742.605 2.471.253a.138.138 0 0 0 0-.236m2.624-2.144c-.663-.117-1.355-.108-2.024-.204q-.934-.133-1.859-.325a35 35 0 0 1-3.788-.998c-.029-.01-.04.035-.013.045a28 28 0 0 0 3.84 1.086q.96.194 1.932.327a12 12 0 0 0 1.892.215c.08-.002.106-.13.02-.146m2.17-2.697a24 24 0 0 0-2.482-.212 32 32 0 0 1-2.618-.348.043.043 0 0 0-.023.083 16.5 16.5 0 0 0 2.542.541 7.9 7.9 0 0 0 2.581.049.059.059 0 0 0 0-.113m1.397-2.414a2.1 2.1 0 0 0-.717-.06 4 4 0 0 0-.712.155.059.059 0 0 0 .031.113 3.6 3.6 0 0 1 .694-.104c.232-.011.463-.037.695-.043a.031.031 0 0 0 .009-.061m2.766-2.363.007.005-.009-.011a.2.2 0 0 0-.019-.054c-.035-.055-.057-.067-.089-.11a.6.6 0 0 0-.204-.182.082.082 0 0 0-.112.11q-.044.004-.087.01l-.178.022-.116.014a.36.36 0 0 0-.197.092l.119-.07a1.4 1.4 0 0 1-.284.066l-.139.023a.27.27 0 0 0-.164.078.146.146 0 0 0 0 .204.23.23 0 0 0 .1.067c.03.007.061.008.091.012l.145.02c.047.006.098.008.144.019-.045-.01.015.006.024.009l.083.023-.12-.07a.4.4 0 0 0 .16.086 1 1 0 0 0 .131.015l.167.015a.8.8 0 0 0 .22 0 .6.6 0 0 0 .196-.06.3.3 0 0 0 .132-.333M127.62 377.875c-.061-.631-.144-1.261-.224-1.89a70 70 0 0 0-.572-3.632c-.006-.03-.058-.023-.054.008.154 1.255.29 2.512.425 3.77.068.629.122 1.26.191 1.89a13 13 0 0 0 .241 1.76.043.043 0 0 0 .085-.012 11 11 0 0 0-.093-1.894m-2.632-.403c-.001-.015-.025-.015-.024 0 .05.936.092 1.872.159 2.807.001.015.024.015.023 0-.039-.936-.102-1.871-.158-2.807m18.223-10.399a78 78 0 0 1-.32-2.877c-.007-.069-.113-.07-.11 0 .038.982.108 1.958.228 2.932a12.7 12.7 0 0 0 .51 2.81.035.035 0 0 0 .069-.01 26 26 0 0 0-.377-2.855m-.862 3.746a51 51 0 0 0-.237-2.129 45 45 0 0 0-.704-4.004c-.012-.05-.084-.028-.076.02.223 1.401.42 2.81.578 4.22.077.683.136 1.367.197 2.05a14 14 0 0 0 .213 1.911c.012.056.086.037.092-.012a10.4 10.4 0 0 0-.063-2.056m-2.026-4.205c-.005-.03-.056-.024-.053.007.243 2.763.338 5.539.614 8.298a.059.059 0 0 0 .117 0 39 39 0 0 0-.678-8.305m34.005 18.203a41 41 0 0 1-.214-1.962c-.106-1.263-.144-2.532-.214-3.798a62 62 0 0 0-.804-7.46c-.006-.035-.063-.028-.061.007.154 2.573.424 5.132.66 7.698.116 1.263.232 2.53.24 3.798a40 40 0 0 1-.047 1.962 3.4 3.4 0 0 0 .152 1.551c.06.136.244.074.285-.037a3.7 3.7 0 0 0 .003-1.76m-2.569 2.207a18 18 0 0 1-.064-1.428c-.009-1.071.011-2.142.014-3.214a35 35 0 0 0-.499-6.064c-.004-.026-.046-.02-.046.006.027 2.065.144 4.118.295 6.177.075 1.03.135 2.062.139 3.095a13 13 0 0 1-.066 1.428 4 4 0 0 0-.058 1.47.158.158 0 0 0 .301 0 3.7 3.7 0 0 0-.016-1.47m-2.831 2.466q.01-1.238 0-2.475c-.013-1.65-.077-3.3-.157-4.949a.05.05 0 0 0-.101 0c.013 1.65-.003 3.3-.02 4.949q-.012 1.237-.043 2.474a12 12 0 0 0 .01 2.311.102.102 0 0 0 .196 0 10.5 10.5 0 0 0 .115-2.31m-3.115-2.185-.187 3a15.6 15.6 0 0 0-.027 3c.007.052.087.076.1.014a15.3 15.3 0 0 0 .208-2.955l.047-3.06a.07.07 0 0 0-.141 0m-3.71 4.337a.05.05 0 0 0-.102 0c.024 1.104.002 2.223.124 3.32a.035.035 0 0 0 .07 0c.05-1.103-.044-2.218-.092-3.32m-56.749-56.991a310 310 0 0 0-2.81-4.048c-.018-.024-.058-.002-.041.024a313 313 0 0 0 2.684 4.215c.878 1.351 1.743 2.745 2.748 4.007.04.05.115-.014.086-.066-.783-1.432-1.75-2.784-2.667-4.132m4.054.957q-1.601-2.096-3.28-4.131c-.036-.043-.095.018-.062.06q1.684 2.163 3.283 4.39c1.009 1.405 1.972 2.848 3.07 4.186.032.038.091-.011.068-.052a39 39 0 0 0-3.079-4.453m1.206-1.471c-.071-.072-.179.037-.11.11 1.743 1.876 3.47 3.758 5.35 5.5a.047.047 0 0 0 .066-.067c-1.674-1.94-3.493-3.734-5.306-5.543m8.277 5.127a37 37 0 0 0-4.336-3.853c-.044-.033-.092.036-.057.074a37 37 0 0 0 4.289 3.884c.073.057.173-.034.105-.105"/></svg>