<svg xmlns="http://www.w3.org/2000/svg" data-name="octopus" viewBox="0 0 350.817 496.932"><path fill="currentColor" d="M208.405 79.77c-3.864.725-6.205 3.788-9.057 6.185a27 27 0 0 1-2.607 1.748l-.322.21.094-.104q1.023-1.096 2.029-2.206c1.326-1.46 2.62-2.949 3.927-4.425a.023.023 0 0 0-.033-.034c-1.42 1.365-2.853 2.715-4.255 4.098q-1.037 1.022-2.061 2.056a10 10 0 0 0-1.671 1.902l-.323.211a34 34 0 0 1-5.573 2.926c-2.21.929-4.482 1.703-6.749 2.48a.027.027 0 0 0 .015.052 104 104 0 0 0 11.832-3.856 18 18 0 0 0 2.814-1.311 16 16 0 0 0 2.421-1.913c1.417-1.314 2.768-2.69 4.16-4.03a17 17 0 0 1 5.384-3.898.047.047 0 0 0-.025-.09m-4.097-30.278c-2.792 2.208-5.672 4.32-8.542 6.426-1.35.991-2.697 1.988-4.062 2.957-.372.264-.744.532-1.128.776a6.3 6.3 0 0 1-1.064.48 9.4 9.4 0 0 0-2.211 1.539 157 157 0 0 1-17.149 11.914c-3.314 2.038-6.725 3.903-10.122 5.8-.026.014-.003.053.024.04 6.245-3.193 12.262-6.83 18.27-10.44 3.002-1.801 5.943-3.71 8.962-5.48.72-.424 1.447-.844 2.126-1.331a6 6 0 0 0 .88-.704 9 9 0 0 1 .91-1.006c1.367-1.092 2.78-2.126 4.156-3.206 3.116-2.445 6.09-5.039 9.066-7.65.08-.07-.036-.18-.116-.115M183.19 69.711a95 95 0 0 1-11.134 6.72 25 25 0 0 0-2.913 1.597 25 25 0 0 1-2.782 1.825c-1.92 1.038-3.87 2.019-5.801 3.034-2.194 1.154-4.356 2.348-6.44 3.692a.047.047 0 0 0 .047.081c3.882-2.066 7.728-4.211 11.655-6.192a24 24 0 0 1 3.168-1.411 10.5 10.5 0 0 0 1.393-.515c.503-.257.977-.632 1.474-.916 1.887-1.076 3.76-2.188 5.553-3.415 2.018-1.38 3.943-2.882 5.832-4.432.037-.03-.013-.097-.052-.068m21.545-43.984a59 59 0 0 0-4.17 4.903 40 40 0 0 0-1.808 2.63 15 15 0 0 0-1.51 2.85.138.138 0 0 0 .228.133 23 23 0 0 0 1.792-2.462c.624-.9 1.224-1.817 1.844-2.72 1.212-1.768 2.407-3.566 3.71-5.267.038-.05-.044-.112-.086-.067m-4.823 4.042a41 41 0 0 0-4.328 5.07q-.976 1.371-1.837 2.816a9.2 9.2 0 0 0-1.411 2.985.102.102 0 0 0 .17.099 12.8 12.8 0 0 0 1.643-2.626q.845-1.452 1.775-2.853a58 58 0 0 1 4.038-5.442c.029-.034-.018-.082-.05-.05m-5.45 4.081a47 47 0 0 0-3.205 4.414 35 35 0 0 0-1.36 2.355q-.332.617-.642 1.245a3.6 3.6 0 0 0-.445 1.138c-.012.099.13.147.193.08a4 4 0 0 0 .573-1.03c.204-.42.41-.84.626-1.255a63 63 0 0 1 1.317-2.38 45 45 0 0 1 2.98-4.539c.015-.021-.02-.05-.037-.028m-5.395 4.461c-.625.951-1.254 1.901-1.868 2.86-.307.48-.617.958-.921 1.44q-.212.336-.418.678a4 4 0 0 0-.41.729.157.157 0 0 0 .261.152 4 4 0 0 0 .456-.702q.207-.34.41-.683l.85-1.48c.567-.987 1.119-1.982 1.674-2.975a.02.02 0 0 0-.034-.02m-3.409 2.57c-1.576 1.228-3.146 2.457-4.68 3.739q-1.145.957-2.311 1.889a37 37 0 0 1-1.35 1.031c-.389.282-.818.476-1.18.793-.74.65-1.405 1.38-2.16 2.02q-1.16.987-2.361 1.922c-1.627 1.262-3.309 2.444-4.976 3.651-.064.046-.007.15.063.108 1.775-1.041 3.492-2.188 5.2-3.334q1.234-.825 2.465-1.654c.838-.565 1.74-1.055 2.563-1.638a12 12 0 0 0 1.058-.996q.594-.537 1.197-1.061 1.123-.976 2.223-1.978a49 49 0 0 0 4.282-4.46.023.023 0 0 0-.033-.032m19.063 91.146a47.5 47.5 0 0 0-7.566-5.644c-2.714-1.732-5.542-3.204-8.409-4.661a.113.113 0 0 0-.114.196c2.7 1.652 5.318 3.449 7.968 5.182 2.645 1.73 5.208 3.583 7.975 5.117a.122.122 0 0 0 .146-.19m3.269-3.216a22 22 0 0 0-2.135-1.174c-1.562-.79-3.05-1.719-4.541-2.633-1.528-.938-3-1.95-4.478-2.96a42 42 0 0 0-2.32-1.466 10 10 0 0 0-1.106-.577 11 11 0 0 0-1.245-.36.043.043 0 0 0-.042.071 10 10 0 0 0 .933.948 11 11 0 0 0 1.012.685c.712.43 1.429.849 2.166 1.236 1.584.831 3.18 1.63 4.727 2.533 1.485.866 2.993 1.714 4.41 2.692a29 29 0 0 1 1.962 1.498c.45.37 1.03 1.047 1.652 1.027a.193.193 0 0 0 .192-.192c-.044-.616-.711-1.017-1.187-1.328m5.069-.505c-.238-.483-.79-.626-1.26-.823a28 28 0 0 1-2.031-.931c-1.217-.628-2.387-1.358-3.539-2.097-1.124-.721-2.179-1.543-3.283-2.294a31 31 0 0 0-3.7-2.056c-.13-.065-.293.11-.166.215a24 24 0 0 0 3.167 2.318c1.224.707 2.512 1.293 3.749 1.976 1.199.661 2.413 1.311 3.572 2.04.583.365 1.15.75 1.711 1.148.476.336.99.87 1.608.804a.202.202 0 0 0 .172-.3m3.787-.78a11.4 11.4 0 0 0-2.63-1.495c-.965-.468-1.926-.941-2.878-1.437-1.9-.988-3.787-2.01-5.587-3.172-.043-.028-.078.038-.04.068a53 53 0 0 0 5.391 3.706 40 40 0 0 0 2.831 1.519 8.4 8.4 0 0 0 2.84.984.103.103 0 0 0 .073-.173m1.501-2.034a36 36 0 0 0-5.638-2.855c-.085-.039-.16.081-.074.128a36 36 0 0 0 5.654 2.862c.084.029.123-.09.058-.136m2.031-8.147a36.4 36.4 0 0 0-6.343-3.172c-.045-.018-.077.058-.033.079 2.147.984 4.218 2.12 6.337 3.16a.04.04 0 0 0 .04-.067m4.891-1.101c-3.913-2.25-8.046-4.113-12.016-6.26a.137.137 0 0 0-.138.236 76.4 76.4 0 0 0 12.1 6.153c.076.028.122-.09.054-.129m3.592-1.354a3.3 3.3 0 0 0-1.185-.77c-.485-.236-.976-.454-1.468-.673q-1.38-.613-2.754-1.237-2.841-1.298-5.645-2.672c-.04-.02-.076.04-.035.06q2.813 1.458 5.624 2.92c.921.478 1.84.959 2.763 1.433a6.6 6.6 0 0 0 2.647 1.066.075.075 0 0 0 .053-.127m2.078-2.687a9 9 0 0 1-2.811-1.136c-.84-.473-1.645-.997-2.503-1.436-.89-.456-1.822-.824-2.713-1.276a.121.121 0 0 0-.122.21c.83.556 1.624 1.152 2.507 1.626a21 21 0 0 0 2.631 1.111 13 13 0 0 1 2.834 1.317c.55.376 1.609 1.229 2.295.758a.18.18 0 0 0 .08-.198c-.217-.802-1.529-.859-2.199-.977m3.447-1.396a2.8 2.8 0 0 0-1.252-.665c-.49-.174-.987-.33-1.483-.488-.992-.315-2-.574-2.99-.892-.089-.028-.12.103-.038.136.974.39 1.925.834 2.898 1.226.485.196.969.393 1.46.572a2.74 2.74 0 0 0 1.363.268.095.095 0 0 0 .042-.157m1.684-2.323a3.5 3.5 0 0 0-1.264-.902 7 7 0 0 0-1.526-.414c-.065-.013-.117.083-.049.114.466.215.89.506 1.35.734a8 8 0 0 0 1.416.591.075.075 0 0 0 .072-.124"/><path fill="currentColor" d="M348.076 364.683q-2.656-5.231-5.408-10.414-2.693-5.096-5.457-10.154a62 62 0 0 1-4.638-9.63c-.612-1.8-.975-3.66-1.42-5.505a28 28 0 0 0-1.752-5.077c-1.535-3.359-3.562-6.487-5.315-9.734-7.051-13.054-12.459-26.907-18.037-40.63a107 107 0 0 0-1.376-3.207 24.7 24.7 0 0 0-1.42-6.092 33 33 0 0 0-.657-1.55c-.535-2.184-.938-4.395-1.35-6.612-.266-1.439-.44-2.896-.628-4.346-.188-1.46-.436-2.911-.612-4.373-.732-6.05-1.064-12.14-1.517-18.214-.937-12.57-2.34-25.1-4.505-37.521-.3-1.728-.643-3.448-.973-5.171a11.8 11.8 0 0 1-.073-4.67 27 27 0 0 0 .619-3.45c.007-.067.024-.13.028-.198a6.95 6.95 0 0 0 3.133-.71 20.3 20.3 0 0 0 4.133-2.923 49 49 0 0 0 3.557-3.537 15.6 15.6 0 0 0 3.246-4.388 17.8 17.8 0 0 0 .998-5.555q.246-3.148.432-6.301.365-6.183.476-12.375c.04-2.351-.01-4.709-.106-7.059-.035-.841-.048-1.711-.09-2.583.196-.65.402-1.297.582-1.951.554-2.017.778-4.306-.56-6.068a6 6 0 0 0-.8-.843c.07-.01.14-.012.21-.025a3.06 3.06 0 0 0 1.389-.772 7.7 7.7 0 0 0 1.804-2.371 34 34 0 0 0 2.319-6.515q1.115-3.86 1.943-7.794c.527-2.509 1.16-5.168.589-7.725a10 10 0 0 0-3.817-5.42 52 52 0 0 0-1.653-1.266c.327-.744.651-1.489.92-2.257a20 20 0 0 0 .68-3.538c.372-2.412.671-4.84.827-7.277a10.53 10.53 0 0 0-1.278-6.51 13.7 13.7 0 0 0-3.07-3.22 5 5 0 0 0 .19-.69c.187-.964.294-1.95.427-2.924q.384-2.816.708-5.64c.402-3.53.869-7.117.945-10.672a9.46 9.46 0 0 0-.843-4.526 7.74 7.74 0 0 0-3.337-3.098c-3.164-1.737-6.46-3.267-9.688-4.882-13.435-6.722-26.896-13.398-40.433-19.914a444 444 0 0 0-11.46-5.343c-1.863-.832-3.721-1.679-5.602-2.468-1.454-.61-2.907-1.3-4.4-1.834q-.587-.494-1.172-.975a41 41 0 0 0-3.714-2.768 20.1 20.1 0 0 0-8.551-3.316 17.16 17.16 0 0 0-8.422 1.26c-5.634 2.287-10.16 6.549-14.618 10.555-5.143 4.622-10.505 8.998-16.013 13.176-11.003 8.346-22.554 15.933-34.188 23.362q-18.559 11.852-37.185 23.6c-6.311 4.002-12.623 8.005-18.9 12.058-1.37.884-2.718 1.808-4.065 2.731a.13.13 0 0 0-.143-.004c-4.738 2.597-10.283 3.23-15.586 3.625-2.724.203-5.43.415-8.135.815a58 58 0 0 0-8.66 2.042c-6 1.864-11.937 3.948-17.926 5.855a603 603 0 0 1-18.05 5.459c-3.391.964-6.816 1.819-10.232 2.69-3.455.882-6.865 1.929-10.337 2.742-.103.024-.06.18.043.158 3.103-.644 6.238-1.126 9.331-1.818 3.126-.7 6.237-1.47 9.342-2.257 6.173-1.565 12.346-3.1 18.467-4.861 6.057-1.742 12.034-3.707 18.024-5.663a66 66 0 0 1 8.837-2.355c2.665-.477 5.365-.697 8.046-1.057 1.935-.26 3.88-.514 5.806-.865-.7.663-1.4 1.324-2.086 2.002-.513.509-1.044 1.012-1.544 1.54a25 25 0 0 1-2.83.76l.12-.116q.563-.553 1.116-1.117l2.215-2.252a.059.059 0 0 0-.083-.083l-2.296 2.17q-.56.528-1.108 1.064-.221.216-.438.437c-.06.01-.116.028-.177.038-.097.016-.084.127-.017.17a5 5 0 0 0-.418.496c-.032.044.03.105.075.075a6 6 0 0 0 .714-.597c.853-.118 1.718-.25 2.573-.42-.11.132-.223.26-.326.397-.023.03.023.077.053.053q.32-.248.622-.522a19 19 0 0 0 1.564-.394c.422-.13.834-.286 1.25-.432-.14.178-.291.348-.426.53-.034.046.036.09.074.057.277-.236.538-.491.803-.742q1.345-.492 2.664-1.049a81 81 0 0 0 8.762-4.542c6.295-3.647 12.408-7.593 18.56-11.476q18.568-11.719 37.082-23.524c11.522-7.314 23.026-14.676 34.086-22.681 5.477-3.964 10.846-8.085 16.036-12.42a266 266 0 0 0 7.489-6.525 78 78 0 0 1 7.033-5.826c4.825-3.411 10.484-5.643 16.348-3.636a26.1 26.1 0 0 1 7.942 4.8c1.249 1.03 2.411 2.179 3.687 3.174.66.515 1.36.955 1.98 1.52.64.586 1.26 1.186 1.917 1.753a222 222 0 0 1 3.908 3.431c.114.103.332-.038.227-.175-2.096-2.738-4.395-5.25-6.688-7.812-.092-.102-.193-.197-.288-.298q.555.29 1.102.586c1.591.866 3.203 1.695 4.814 2.525 3.224 1.662 6.453 3.315 9.713 4.906q9.904 4.831 19.8 9.677 9.891 4.86 19.752 9.78 4.93 2.46 9.854 4.935a37.5 37.5 0 0 1 4.396 2.333 4.83 4.83 0 0 1 2.094 3.38 22.4 22.4 0 0 1-.129 5.244q-.253 3.069-.586 6.13-.33 3.053-.74 6.097c-.132.977-.274 1.952-.408 2.928-.009.062-.009.12-.015.18-3.91-2.902-7.89-5.708-11.898-8.472a11 11 0 0 0-.516-1.26q-.412-.926-.85-1.84-.895-1.883-1.84-3.743-1.865-3.668-3.917-7.235a.05.05 0 0 0-.088.05q1.959 3.625 3.733 7.343.873 1.834 1.7 3.689l.822 1.856q.151.346.305.693c-1.365-.937-2.718-1.89-4.093-2.813a5.8 5.8 0 0 0-.537-1.29q-.426-.881-.872-1.752a69 69 0 0 0-1.986-3.637 75 75 0 0 0-4.543-6.803c-.032-.043-.105-.004-.074.043q2.2 3.368 4.153 6.898c.63 1.142 1.253 2.29 1.847 3.452q.471.923.92 1.857c.11.228.213.474.324.715q-2.821-1.884-5.67-3.726-2.353-1.521-4.73-3.004a2.9 2.9 0 0 0-.378-1.173q-.43-.912-.89-1.809-.922-1.795-1.962-3.526a53 53 0 0 0-4.574-6.408c-.047-.058-.149.02-.104.08a72 72 0 0 1 4.257 6.575q.953 1.65 1.8 3.36.45.904.867 1.824c.091.2.178.42.28.63q-2.819-1.76-5.661-3.48a9 9 0 0 0-.594-1.188 76 76 0 0 0-.724-1.38 79 79 0 0 0-1.715-2.997c-1.168-1.95-2.49-3.79-3.771-5.664-.05-.074-.17-.007-.122.07 1.195 1.923 2.23 3.947 3.295 5.944q.787 1.476 1.54 2.969.357.702.71 1.407-5.983-3.592-12.076-6.997c-.9-.502-1.808-.991-2.712-1.487-1.111-1.902-2.453-3.707-3.741-5.49-1.287-1.782-2.627-3.517-4.077-5.17-.011-.013-.035.005-.024.02 1.288 1.801 2.6 3.588 3.868 5.404 1.097 1.57 2.104 3.2 3.164 4.792-.892-.487-1.781-.98-2.675-1.466a43 43 0 0 1-5.57-3.443c-3.345-2.553-5.331-6.253-8.135-9.308a17.5 17.5 0 0 0-2.409-2.18 19 19 0 0 0-1.225-1.345q-1.104-1.126-2.294-2.164a37 37 0 0 0-5.06-3.673c-.06-.037-.112.055-.055.094a45 45 0 0 1 4.92 3.888q1.11 1.003 2.143 2.086.086.091.171.184a15 15 0 0 0-1.105-.605 15.7 15.7 0 0 0-3.866-1.238c-.2-.14-.394-.286-.596-.423q-1.438-.98-2.907-1.912c-.03-.019-.055.027-.028.048q1.404 1.05 2.775 2.143a26 26 0 0 0-1.445-.187 25.4 25.4 0 0 0-6.498.29 30.5 30.5 0 0 0-7.05 1.689 35 35 0 0 1-3.4 1.14.05.05 0 0 0 .026.099c2.318-.608 4.676-1 7.032-1.439a30.7 30.7 0 0 1 6.91-.516 19.2 19.2 0 0 1 5.934 1.138 15.9 15.9 0 0 1 5.212 2.883c2.996 2.65 4.86 6.297 7.694 9.097 3.139 3.101 7.22 5.017 11.043 7.113q12.204 6.688 23.973 14.133 11.81 7.472 23.135 15.677c1.552 1.124 3.139 2.225 4.638 3.423.02.101.035.2.058.303a.354.354 0 0 0 .545.193c.033.079.067.158.09.232.18.585.059 1.178.197 1.77a7.6 7.6 0 0 1 .172 1.94 16.4 16.4 0 0 1-.76 3.945c-.19.69-.375 1.383-.517 2.085-.142.703-.165 1.408-.276 2.114-.032.2.274.218.26.035a12.4 12.4 0 0 1 .847-4.265c.384-1.27.832-2.532 1.15-3.82a7 7 0 0 0 .298-2.651 7 7 0 0 1 1.772 3.423 24.3 24.3 0 0 1-.255 6.825q-.192 1.784-.458 3.56a32 32 0 0 0-.494 3.458c-.023.588-.021 1.173-.023 1.758-1.188-.853-2.395-1.682-3.586-2.522q-6.575-4.636-13.258-9.118-13.314-8.93-27.035-17.234c-.925-.56-1.858-1.105-2.787-1.659a.043.043 0 0 0-.007-.064c-.08-.062-.102-.292-.144-.386-.054-.118-.125-.23-.188-.344l-.406-.734-.76-1.37a102 102 0 0 0-1.638-2.8.043.043 0 0 0-.074.043c.539 1.024 1.066 2.054 1.613 3.074q.396.74.79 1.482c.14.26.263.541.423.79.028.042.065.09.1.136-1.267-.755-2.531-1.516-3.804-2.264a14 14 0 0 0-.68-1.34c-.359-.701-.712-1.404-1.074-2.102q-1.103-2.126-2.18-4.266c-.016-.032-.07-.01-.057.024q.838 2.184 1.775 4.324c.318.722.652 1.436.994 2.147.1.209.201.442.306.676-.973-.57-1.945-1.144-2.92-1.71a6.6 6.6 0 0 0-.883-2.16c-.385-.77-.764-1.544-1.155-2.312-.81-1.589-1.657-3.157-2.492-4.733-.017-.032-.06-.004-.047.028.691 1.623 1.372 3.25 2.085 4.864.349.79.714 1.575 1.071 2.362a16 16 0 0 0 .71 1.538c-.812-.47-1.619-.948-2.433-1.415l-.087-.05a12.8 12.8 0 0 0-1.16-2.374c-.503-.975-.995-1.956-1.496-2.932-1.017-1.983-2.073-3.946-3.096-5.926-.037-.073-.139-.009-.108.063.875 2.022 1.753 4.036 2.711 6.02.461.954.942 1.9 1.42 2.845q.359.71.721 1.417l.226.444c-1.197-.679-2.398-1.35-3.59-2.037-.035-.15-.045-.316-.092-.454a5 5 0 0 0-.207-.468l-.56-1.207q-.528-1.124-1.021-2.263c-.682-1.567-1.387-3.123-2.086-4.682-.014-.033-.068-.01-.057.024.57 1.706 1.142 3.415 1.817 5.084.32.788.644 1.575.99 2.351.18.403.359.817.571 1.203l.035.06a69 69 0 0 1-1.84-1.114c-.284-.178-.55-.373-.824-.561l-.01-.019c-.242-.495-.48-.993-.728-1.486-.51-1.02-1.078-2.009-1.653-2.993-.039-.067-.158-.023-.128.054.409 1.06.828 2.117 1.303 3.15q.152.329.308.653a46 46 0 0 1-3.952-3.392q-.743-.702-1.51-1.388c.119.066.233.139.354.201.052.027.114-.043.066-.086-1.152-1.023-2.309-2.037-3.461-3.057a48 48 0 0 0-.957-2.099 82 82 0 0 0-2.31-4.46c-.018-.03-.071-.01-.058.024q.904 2.337 1.878 4.643.201.477.405.955c-.704-.63-1.411-1.254-2.105-1.896a33 33 0 0 0-6.922-5.177.031.031 0 0 0-.031.054 31 31 0 0 1 4.706 3.651q.43.917.85 1.84c.144.318.281.64.436.954.058.116.117.253.184.386a17 17 0 0 0-1.734-.389c-.288-.24-.591-.465-.863-.685-.669-.541-1.36-1.057-2.044-1.578-1.386-1.056-2.818-2.052-4.215-3.094-.092-.068-.213.087-.123.16 1.362 1.09 2.67 2.243 4.01 3.36.66.551 1.312 1.113 1.98 1.654l.052.044c-.264-.023-.527-.062-.791-.072a29 29 0 0 0-2.922.053 15 15 0 0 0-1.984-1.462 34 34 0 0 0-2.91-1.668.04.04 0 0 0-.04.067c.94.58 1.843 1.216 2.741 1.858.563.403 1.107.835 1.673 1.232a39.7 39.7 0 0 0-10.232 2.338c-1.126.409-2.242.846-3.355 1.289-.068.027-.044.133.031.113a181 181 0 0 1 6.8-1.645 32.3 32.3 0 0 1 6.741-.91 20.4 20.4 0 0 1 6.556.998 16.8 16.8 0 0 1 5.597 3.27c1.772 1.508 3.364 3.218 5.177 4.681a46 46 0 0 0 6.31 4.078q6.736 3.817 13.39 7.778 13.31 7.932 26.256 16.458 6.47 4.261 12.844 8.667 3.187 2.203 6.349 4.441a52 52 0 0 1 5.65 4.229c.11.102.213.21.317.316a3 3 0 0 0-.052.394 9 9 0 0 0 .051 1.15 12.5 12.5 0 0 1 .018 2.337 2.8 2.8 0 0 1-.185.916 3 3 0 0 0-.236.38 2 2 0 0 0-.08.503 6.6 6.6 0 0 1-.515 2.056c-.037.083.063.18.135.104a11 11 0 0 0 1.366-1.682 1.6 1.6 0 0 0 .327-.95 9 9 0 0 1 .088-1.115 9.6 9.6 0 0 0-.07-2.33 11 11 0 0 0-.186-1.034 7.2 7.2 0 0 1 .846 1.295 6.74 6.74 0 0 1 .601 3.256 38.4 38.4 0 0 1-1.368 7.538q-.903 3.791-2.078 7.51a14.7 14.7 0 0 1-2.459 5.17c-.287.345-.634.603-.943.921-.257.266-.482.534-.757.774a29 29 0 0 0-3.005-1.507l-26.653-12.509q-3.638-1.707-7.274-3.416a2 2 0 0 0-.023-.265 2.7 2.7 0 0 0-.173-.502c-.135-.339-.307-.663-.475-.987-.334-.642-.668-1.277-.955-1.943-.038-.088-.194-.024-.157.066.277.67.499 1.353.726 2.04.11.334.217.673.36.994.05.115.101.233.16.345-1.26-.592-2.523-1.179-3.782-1.776a9 9 0 0 0-.53-1.086q-.485-.995-.941-2.002-.886-1.969-1.746-3.947a137 137 0 0 0-3.702-7.78c-.033-.063-.122-.007-.095.056q1.695 3.905 3.525 7.741a184 184 0 0 1 1.768 3.792q.475 1.055.912 2.125c.109.268.198.577.316.868l-.816-.384q-1.89-.902-3.76-1.857a.13.13 0 0 0 .107-.138 3.9 3.9 0 0 0-.7-1.546c-.341-.567-.685-1.13-.975-1.726-.616-1.267-1.206-2.547-1.82-3.815a50 50 0 0 0-3.785-7.16c-.017-.024-.057-.002-.04.024.667 1.11 1.17 2.314 1.733 3.479q.892 1.846 1.806 3.68c.592 1.184 1.21 2.355 1.801 3.54.347.695.645 1.403.93 2.127a4.4 4.4 0 0 0 .724 1.424 70 70 0 0 1-4.37-2.438 13.3 13.3 0 0 0-1.186-2.275q-.872-1.6-1.749-3.195c-1.163-2.128-2.395-4.22-3.552-6.35-.037-.068-.132-.008-.101.059 1.013 2.218 1.991 4.44 3.1 6.615q.826 1.624 1.691 3.228c.182.336.362.726.562 1.11-.475-.308-.958-.604-1.422-.93a32 32 0 0 1-2.33-1.81c-.566-1.026-1.195-2.024-1.777-3.01-1.115-1.894-2.302-3.748-3.484-5.6a.035.035 0 0 0-.06.035c1.061 1.926 2.081 3.874 3.129 5.807.265.488.521.988.779 1.49a47.6 47.6 0 0 1-4.788-5.365c-2.391-3.08-4.737-6.257-7.945-8.546a19.1 19.1 0 0 0-4.903-2.473c-.028-.731-.718-1.457-1.06-2.042l-.001-.004a34 34 0 0 0 3.798 1.578l.081.226a1 1 0 0 0 .036.1l.035.096.002-.003a1 1 0 0 0 .04.103c.236.391.935.137.766-.323-.45-1.216-.934-2.42-1.42-3.623a16.7 16.7 0 0 0 2.872 1.328l.032.12c.118.443.141.945.572 1.181a.24.24 0 0 0 .32-.084c.256-.424.022-.87-.11-1.313a44 44 0 0 0-.487-1.504c-.22-.65-.47-1.292-.708-1.937a9.8 9.8 0 0 0 2.35 1.183.2.2 0 0 0 .15-.018 1.3 1.3 0 0 0 .442.598.19.19 0 0 0 .256-.067c.292-.63-.191-1.591-.384-2.202a82 82 0 0 0-.697-2.134 11.5 11.5 0 0 0 1.64.614c.056.015.11-.064.06-.105a11 11 0 0 0-1.97-1.235c-.503-1.36-1.073-2.687-1.65-4.017-.033-.074-.152-.021-.13.054.37 1.198.7 2.408 1.041 3.615-1.023-.452-2.091-.823-3.126-1.212a85 85 0 0 0-1.196-2.546c-.038-.078-.148-.01-.115.067.333.772.636 1.556.94 2.338l-.09-.034c-.069-.027-.118.09-.05.122.074.034.146.074.22.11a73 73 0 0 1 1.248 3.486c-.488-.248-.972-.506-1.467-.741a87 87 0 0 0-2.037-.926c-.44-1.108-.887-2.214-1.352-3.313-.024-.058-.116-.017-.1.042a97 97 0 0 0 .916 3.028q-1.392-.606-2.807-1.16c-.053-.02-.09.068-.04.093q1.516.757 3.009 1.56.437 1.35.9 2.695.162.466.319.936c-.554-.294-1.105-.593-1.661-.882q-1.24-.647-2.492-1.275l-.068-.168a6.2 6.2 0 0 0-1.304-2.086.031.031 0 0 0-.052.03c.166.61.37 1.21.588 1.802a72 72 0 0 0-3.123-1.462.027.027 0 0 0-.027.047 74 74 0 0 0 3.39 2.06c.341.857.722 1.7 1.122 2.53.178.37.372.749.557 1.132-.987-.482-1.977-.955-2.95-1.435q-.73-.361-1.466-.718a38 38 0 0 0-1.686-3.035.035.035 0 0 0-.06.036c.462.945.931 1.887 1.399 2.83a65 65 0 0 0-2.295-1.062 9.6 9.6 0 0 0-3.968-1.034.043.043 0 0 0-.011.084 52 52 0 0 1 6.89 3.258l.063.126c.357.724.732 1.452 1.037 2.2a3 3 0 0 1 .141.49c-.537-.26-1.148-.446-1.616-.635a75 75 0 0 0-2.963-1.108c-.116-.198-.228-.399-.353-.59-.254-.391-.53-.771-.774-1.168-.018-.029-.069-.01-.057.024.148.437.27.878.431 1.312.024.065.054.128.08.193a93 93 0 0 0-6.068-1.855.027.027 0 0 0-.014.053 186 186 0 0 1 6.193 2.433l.204.086.145.31c.191.408.4.816.63 1.204a6 6 0 0 0 .42.652c-1.192.03-2.382.077-3.576.189a59 59 0 0 0-5.897.93c-.964.19-1.927.385-2.892.572-.1.02-.055.164.042.15a81 81 0 0 1 6.073-.6 58 58 0 0 1 5.85-.217 28 28 0 0 1 5.725.948 22.2 22.2 0 0 1 5.217 1.84c3.404 1.816 5.897 4.765 8.23 7.764a51.4 51.4 0 0 0 7.814 8.63 56.4 56.4 0 0 0 10.316 6.466c3.949 1.995 7.987 3.816 11.991 5.695l25.979 12.187c2.134 1 4.28 1.981 6.402 3.006 1.525.735 3.174 1.662 3.288 3.547a11 11 0 0 1-.44 2.998c-.257 1.164-.509 2.33-.767 3.494-.508 2.297-1.04 4.607-1.423 6.928a78 78 0 0 1-.688 3.535.172.172 0 0 0 .331.091c.75-2.34 1.569-4.663 2.362-6.993l-.097 2.644c-.152 4.003-.247 8.006-.452 12.007q-.153 2.968-.36 5.934a56 56 0 0 1-.497 5.629 8.94 8.94 0 0 1-2.311 4.592 67 67 0 0 1-3.37 3.542 23 23 0 0 1-4.14 3.3c-.714.428-1.49.761-2.189 1.21-.28.18-.564.345-.848.508a5 5 0 0 0-.193-.83 24 24 0 0 0-2.807-5.098c-2.336-3.655-4.638-7.333-7.012-10.963-.655-1-1.316-1.996-2.04-2.947.09.034.178.071.28.099.536.148 1.08.274 1.624.395q1.69.376 3.408.615a27 27 0 0 0 3.324.266c1.197.017 2.386-.115 3.579-.19a.066.066 0 0 0 0-.133 60 60 0 0 1-6.899-.852 43 43 0 0 1-2.578-.498 15 15 0 0 0 2.122-.272 15 15 0 0 0 3.436-1.253.185.185 0 0 0-.093-.342 43 43 0 0 1-6.466.072 39 39 0 0 1-6.507-.916 94 94 0 0 1-12.645-4.278 59.2 59.2 0 0 0-12.778-3.753c-4.44-.633-8.921-.63-13.21-2.097-4.553-1.559-8.608-4.178-12.7-6.653-.063-.038-.14.056-.08.104a60 60 0 0 0 10.659 7.14 30 30 0 0 0 5.928 2.3 18 18 0 0 0 1.513.31c-4.026.822-8.06 1.629-12.136 2.158-1.259.163-2.52.32-3.782.457a19 19 0 0 0-3.508.582 28 28 0 0 0-6.23 3.094q-13.527 8.17-27.407 15.744a140 140 0 0 1-21.28 9.79.76.76 0 0 0-.694.132 2 2 0 0 0-.132.148 76 76 0 0 1-4.684 1.407c-10.063 2.626-20.498 2.341-30.782 1.474-5.263-.444-10.507-1.098-15.731-1.87-5.272-.78-10.512-1.805-15.791-2.521q-.554-.077-1.111-.143.635-.397 1.255-.81c1.32-.873 2.643-1.744 3.945-2.644 2.95-2.039 5.876-4.116 8.83-6.15a.133.133 0 0 0-.133-.229c-2.768 1.526-5.617 2.914-8.342 4.516-1.36.8-2.755 1.55-4.127 2.332a33 33 0 0 1-3.793 2.067 15 15 0 0 1-4.06.808c-1.545.174-3.086.38-4.625.595-1.205.169-2.407.38-3.606.611-2.567.314-5.1.827-7.634 1.369a32 32 0 0 0-4.564 1.2 19 19 0 0 0-2.13.952c-.385.117-.768.236-1.155.348a.055.055 0 0 0 .029.105c.136-.025.274-.042.411-.065q-.615.341-1.22.71c-5.256 3.226-10.493 6.47-15.837 9.55-10.776 6.215-21.821 11.968-32.972 17.478-3.082 1.523-6.178 3.016-9.273 4.512-1.546.747-3.105 1.467-4.648 2.22-1.606.783-3.174 1.678-4.805 2.397-.144.063-.04.316.108.257 1.44-.58 2.94-1.02 4.395-1.57 1.458-.55 2.9-1.144 4.342-1.736q4.21-1.727 8.361-3.582c5.654-2.52 11.248-5.172 16.745-8.016q16.476-8.523 32.238-18.34c1.42-.883 2.82-1.802 4.298-2.588a30 30 0 0 1 4.722-1.865 118 118 0 0 1 2.67-.845c3.015-.397 6.038-.728 9.058-1.09 1.536-.184 3.068-.392 4.606-.567a22.3 22.3 0 0 0 4.461-.716c.166-.055.322-.13.483-.194a2.7 2.7 0 0 0 .881.502c.698.201 1.425.34 2.135.49 1.29.275 2.592.488 3.891.713 2.65.457 5.3.905 7.956 1.322 5.25.823 10.516 1.554 15.803 2.1 10.347 1.069 21.062 1.756 31.334-.278a70 70 0 0 0 6.882-1.746 56 56 0 0 0-.763 2.295 112 112 0 0 0-1.461 5.173c-.921 3.55-1.696 7.135-2.575 10.695a111 111 0 0 0-2.492 11.187 55.8 55.8 0 0 0 .038 11.847c.578 7.95 1.458 15.875 2.206 23.81a197 197 0 0 1 1.242 23.016c-.093 4.057-.36 8.12-.176 12.18a46.6 46.6 0 0 0 1.396 9.357l.036.394c.081.851.16 1.702.247 2.553-.194 1.717-.346 3.437-.614 5.148a15.4 15.4 0 0 1-1.68 5.645 17.3 17.3 0 0 1-3.85 4.027 243 243 0 0 1-4.56 3.795 60.7 60.7 0 0 1-9.643 6.56c-1.69.891-3.452 1.554-5.206 2.3a7.86 7.86 0 0 0-4.07 3.373 9.04 9.04 0 0 0 1.048 9.602c4.393 5.892 12.576 7.808 19.538 6.757a25.8 25.8 0 0 0 9.82-3.75 31.5 31.5 0 0 0 4.282-3.255 22.4 22.4 0 0 0 3.578-3.89l.002-.002a54 54 0 0 1 .915 11.7c-.215 4.175-1.044 8.315-1.593 12.455q-.828 6.25-1.386 12.534-.557 6.28-.843 12.582-.142 3.15-.217 6.301a46 46 0 0 0 .183 4.784c-.496 3.969-.788 7.95-.932 11.95-.326 9.003-.054 18.018.125 27.021q.277 13.951.557 27.902c.15 7.485-.28 16.978 7.027 21.451a8.9 8.9 0 0 0 9.584.113c2.76-1.819 4.35-4.902 5.42-7.935a74 74 0 0 0 2.88-12.26c.745-4.4 1.263-8.836 1.69-13.276.879-9.16 1.557-18.335 2.474-27.491.923-9.209 1.765-18.436 2.89-27.623q1.65-13.482 4.58-26.768c.931-4.232 1.893-8.481 3.091-12.647a21.2 21.2 0 0 1 4.124-8.395 11.4 11.4 0 0 1 1.557-1.388 6.6 6.6 0 0 1 1.775-1.12 3 3 0 0 1 .535.31 7.9 7.9 0 0 1 2.214 2.84 20 20 0 0 1 1.696 7.051c.302 2.95.506 5.911.658 8.872q.468 9.068.1 18.154-.183 4.54-.575 9.066a54 54 0 0 0-.291 9.095c.24 2.899.875 5.746 1.377 8.606.525 2.988.97 5.99 1.371 8.996.801 6.006 1.482 12.03 2.203 18.046q1.085 9.059 2.173 18.117c.709 5.904 1.202 11.892 2.724 17.658 1.523 5.769 3.573 11.415 5.428 17.083 1.434 4.382 2.655 10.083 7.45 11.974 4.325 1.706 9.208-.467 11.885-3.985 3.206-4.213 3.664-9.715 3.707-14.822.026-3.002.033-5.982.29-8.976a36 36 0 0 0-.077-8.793c-.45-2.874-1.19-5.694-1.652-8.568-.47-2.933-.769-5.892-.958-8.856-.761-11.883.252-23.785-.098-35.676-.348-11.797-2.15-23.487-2.829-35.262a114.6 114.6 0 0 1 .15-17.325 43.7 43.7 0 0 1 2.237-11.599 1 1 0 0 0 .125-.046c.842-.522 1.822.506 2.28 1.134a16.5 16.5 0 0 1 1.55 2.814 36.3 36.3 0 0 1 2.082 6.369c1.209 4.818 2.515 9.714 2.821 14.69.153 2.48.038 4.97.226 7.45a36.3 36.3 0 0 0 1.385 7.14c1.369 4.826 2.798 9.628 4.042 14.49 2.469 9.657 4.375 19.415 6.131 29.223 1.671 9.335 3.424 18.72 6.67 27.66.805 2.219 1.696 4.42 2.717 6.548a18.7 18.7 0 0 0 3.553 5.291c2.808 2.779 7.488 4.047 10.806 1.384 3.164-2.54 3.549-7.318 4.038-11.034a90.6 90.6 0 0 0 .712-15.225c-.38-10.11-2.703-19.966-4.644-29.856-1.978-10.077-3.673-20.207-5.323-30.343-1.642-10.093-3.464-20.183-4.81-30.32-.677-5.094-1.092-10.215-1.31-15.348-.11-2.54-.175-5.085-.244-7.627a59 59 0 0 1 .089-6.976l.032-.294a.7.7 0 0 0 .257-.144c.404-.349 1.261-.02 1.709.164a8.6 8.6 0 0 1 1.847 1.164 29 29 0 0 1 3.285 2.953 42.3 42.3 0 0 1 5.308 6.935c3.251 5.139 5.857 10.667 9.324 15.673 4.047 5.843 9.088 10.944 12.889 16.964 3.602 5.707 6.383 12.293 12.344 16.01 2.65 1.653 6.227 2.845 9.291 1.672a7.73 7.73 0 0 0 4.572-6.606c.382-3.43-1.171-6.729-2.682-9.703M75.528 94.485l-.63.214c.384-.39.758-.792 1.136-1.182.698-.72 1.378-1.456 2.06-2.191a44 44 0 0 0 2.383-.501c-.919.897-1.836 1.807-2.69 2.769-.74.32-1.49.624-2.26.89m3.084-1.257c.75-.806 1.47-1.64 2.18-2.476.108-.027.218-.046.325-.075a27.5 27.5 0 0 0 5.282-1.982 58 58 0 0 1-7.787 4.533m155.994-51.865a14.5 14.5 0 0 0-2.44-.988 4 4 0 0 0-.326-.699c-.155-.311-.33-.614-.496-.92q-.361-.667-.715-1.34.887.82 1.76 1.652c.902.855 1.81 1.76 2.758 2.618l.001.004c-.182-.107-.354-.229-.542-.327m.794 25.2c.838.414 1.662.85 2.495 1.277q.352.18.702.356c.045.155.086.311.132.466.232.78.467 1.557.687 2.34.067.234.123.535.2.837a11 11 0 0 0-2.246-1.42c-.15-.08-.305-.151-.455-.23-.04-.104-.074-.21-.115-.315a75 75 0 0 0-1.4-3.31m-2.445 2.194c.538.292 1.078.58 1.61.884q.986.564 1.967 1.139c.268.855.531 1.713.769 2.578q.137.502.268 1.006a20.4 20.4 0 0 0-2.6-1.565c-.176-.097-.355-.188-.533-.284-.222-.553-.448-1.105-.662-1.66q-.406-1.052-.819-2.098m-2.599 3.619a37 37 0 0 0-.643-1.751c.632.358 1.261.72 1.896 1.071.75.418 1.506.826 2.262 1.233q.57 1.689 1.186 3.358a41 41 0 0 0-4.174-2.315c-.19-.532-.352-1.078-.527-1.596m-3.972 4.006-1.936.04a4 4 0 0 0-.45-.965c-.151-.277-.314-.55-.475-.822l2.072.876c.458.194.911.398 1.372.584.253.102.517.223.787.307q-.677-.033-1.37-.02m2.256.098c-.016-.032-.025-.069-.042-.1a.12.12 0 0 0-.017-.112 1.7 1.7 0 0 0-.21-.235 7.7 7.7 0 0 1-.724-1.077c-.326-.68-.616-1.377-.932-2.062.281.145.56.294.844.435 1.15.57 2.303 1.17 3.47 1.74.038.118.083.235.113.354.113.449.157 1.057.33 1.571a17 17 0 0 0-2.832-.514m-7.319 77.197a17 17 0 0 1 3.295-1.422c.153-.044.308-.074.462-.11q-2.69 1.105-5.295 2.4.764-.445 1.538-.868m36.906 186.684q-.062.195-.122.398a3 3 0 0 0-.318-.046c.188-.375.37-.752.584-1.114.081-.136.176-.277.27-.416q-.224.582-.414 1.178m.68.658.13-.435c.131-.437.267-.873.4-1.31.133-.436.268-.87.395-1.308l.081-.285a5.6 5.6 0 0 1 1.45-1.002 23 23 0 0 0-1.022 2.242 11.4 11.4 0 0 0-.748 2.51 4.5 4.5 0 0 0-.687-.412m1.878 1.554a6 6 0 0 0-.713-.76 18 18 0 0 0 .863-2.664c.25-.867.493-1.737.746-2.603a3.3 3.3 0 0 1 .925-.183 12 12 0 0 0-.399 1.124c-.223.704-.426 1.414-.633 2.123-.2.684-.41 1.365-.6 2.052a5 5 0 0 0-.189.911m29.414-24.68c.046-.207.108-.407.166-.61l.025-.045c.132-.23.297-.437.446-.655v.064c.02.3.056.594.096.892.008.055.026.108.034.164a2.6 2.6 0 0 0-.767.19m1.346-.193c-.015-.084-.017-.17-.035-.252-.061-.28-.124-.556-.205-.832-.047-.161-.112-.315-.172-.47a9.3 9.3 0 0 1 1.094-1.21c.03.257.042.52.07.768a32 32 0 0 0 .343 2.286 4.2 4.2 0 0 0-1.095-.29m1.569.48-.061-.024c-.057-.467-.139-.932-.22-1.398-.075-.429-.17-.853-.262-1.278a2.7 2.7 0 0 0-.206-.671 7.5 7.5 0 0 1 1.114-.796 29 29 0 0 1 .313 3.24c.03.466.07.924.138 1.377a9 9 0 0 0-.816-.45m1.229.715c-.074-.646-.138-1.292-.2-1.937a11.3 11.3 0 0 0-.597-2.988 7.3 7.3 0 0 1 1.393-.62c.043-.014.087-.022.13-.035.059 1.09.134 2.18.244 3.267a23 23 0 0 0 .528 3.432 20 20 0 0 0-1.498-1.12Zm53.145 58.832c-1.944 2.591-5.539 2.12-8.149.898-6.113-2.861-8.998-9.475-12.26-14.953-3.632-6.103-8.55-11.238-12.724-16.95-3.612-4.942-6.294-10.447-9.456-15.67a65 65 0 0 0-2.662-4.06 4.7 4.7 0 0 0-.006-1.324c-.055-.53-.141-1.058-.214-1.587-.158-1.14-.317-2.281-.454-3.425-.003-.024-.04-.025-.039 0 .068 1.135.113 2.27.16 3.406.023.556.03 1.116.075 1.67.02.244.041.48.079.712a43 43 0 0 0-1.942-2.481c-.038-.51-.114-1.02-.17-1.513-.118-1.023-.247-2.045-.37-3.068-.234-1.94-.516-3.87-.826-5.8-.004-.025-.048-.02-.046.007.109 1.972.247 3.94.434 5.907.094.985.182 1.97.28 2.954.028.272.051.554.076.837-.429-.47-.855-.944-1.31-1.39-.135-1.22-.341-2.43-.517-3.646-.241-1.664-.483-3.329-.687-4.998-.012-.096-.159-.103-.156 0a38.3 38.3 0 0 0 .897 8.215c-.28-.26-.547-.533-.839-.78-.2-.17-.412-.339-.62-.509-.083-1.185-.315-2.38-.483-3.55a80 80 0 0 1-.401-3.337c.426-.121.86-.21 1.293-.304a6 6 0 0 1 1.6-.247.043.043 0 0 0 .012-.084 8 8 0 0 0-1.639-.405 4.4 4.4 0 0 0-1.357.159l-.002-.013c-.002-.03-.048-.03-.046 0v.023c-.056.014-.115.022-.171.037a8.5 8.5 0 0 0-3.045 1.577l-.09.08a.25.25 0 0 0-.154.046 6.6 6.6 0 0 0-1.892 2.36l-.057.088a5.9 5.9 0 0 0-.682 1.54 9.4 9.4 0 0 0-.185 1.368 48 48 0 0 0-.442 5.709 120 120 0 0 0 .128 15.247c.74 10.164 2.605 20.212 4.23 30.261 1.641 10.144 3.258 20.292 5.076 30.406q1.353 7.524 2.883 15.013c1.006 4.942 2.021 9.888 2.714 14.885a92 92 0 0 1 .86 15.104q-.1 3.776-.514 7.536a52 52 0 0 1-1.073 6.785 8.37 8.37 0 0 1-2.53 4.695 5.49 5.49 0 0 1-5.378.523c-4.085-1.539-5.933-6.348-7.427-10.075-3.539-8.828-5.488-18.168-7.191-27.494-1.78-9.744-3.536-19.47-5.901-29.094q-1.808-7.356-3.953-14.622a68 68 0 0 1-1.852-7.056 45.4 45.4 0 0 1-.455-7.417 64.3 64.3 0 0 0-2.284-14.792 46.7 46.7 0 0 0-3.27-9.992l.1-.357q.178-.633.36-1.263.34-1.172.7-2.338c.497-1.613 1.016-3.218 1.48-4.841.025-.085-.096-.113-.127-.036-.697 1.714-1.268 3.47-1.807 5.239q-.397 1.301-.77 2.61l-.155.556a17 17 0 0 0-.933-1.53 10.6 10.6 0 0 0 .513-1.547l.535-1.991c.179-.664.362-1.327.525-1.994a9 9 0 0 0 .27-1.377.32.32 0 0 0 .008-.44c-.003-.058.003-.116-.003-.174a.028.028 0 0 0-.05-.014c-.029.037-.049.079-.075.117a.3.3 0 0 0-.077-.017 31 31 0 0 0-.945-.01c-.004-.027-.038-.042-.053-.015l-.008.016a5 5 0 0 0-1.696.27 6.6 6.6 0 0 0-2.324 1.505 12.86 12.86 0 0 0-3.129 5.475 46.5 46.5 0 0 0-1.539 7.825 88 88 0 0 0-.716 8.667c-.407 11.822 1.241 23.58 2.275 35.33.522 5.943.829 11.889.82 17.857-.01 6.009-.231 12.016-.264 18.025a138 138 0 0 0 .848 17.742c.362 2.91.893 5.777 1.501 8.644a32.4 32.4 0 0 1 .84 8.702c-.176 3.05-.487 6.065-.499 9.124a57 57 0 0 1-.394 8.74c-.73 4.572-2.933 9.538-7.744 10.943a7.02 7.02 0 0 1-6.085-.798c-1.895-1.366-2.84-3.688-3.577-5.82-1.945-5.62-3.764-11.302-5.548-16.975a71 71 0 0 1-2.203-8.553c-.538-2.95-.862-5.932-1.219-8.907l-2.192-18.274c-.722-6.026-1.427-12.054-2.178-18.077-.748-5.992-1.745-11.917-2.768-17.865a38 38 0 0 1-.462-8.931c.193-3.084.513-6.158.69-9.244q.523-9.065.212-18.153-.155-4.538-.52-9.065a48 48 0 0 0-1.018-7.764 12.05 12.05 0 0 0-3.483-6.31 4.65 4.65 0 0 0-3.227-1.232 8.3 8.3 0 0 0-3.589 1.464 33 33 0 0 0-6.212 4.525c-.28.268.126.642.414.415a28 28 0 0 1 7.124-4.264l.08-.029a10 10 0 0 0-.87.625 11.8 11.8 0 0 0-2.926 3.54 40 40 0 0 0-3.326 9.664q-3.286 12.968-5.367 26.203c-1.401 8.915-2.272 17.89-3.192 26.865-.933 9.103-1.876 18.205-2.634 27.324-.731 8.806-1.364 17.646-3.035 26.336a51 51 0 0 1-3.078 11.33c-1.232 2.727-3.157 5.442-6.274 6.06-3.28.652-6.57-1.575-8.34-4.182-2.18-3.21-2.58-7.273-2.722-11.046-.34-9.047-.379-18.114-.562-27.166-.18-8.947-.466-17.901-.398-26.852.033-4.355.167-8.711.49-13.055.33-4.421.67-8.878 1.319-13.265a129 129 0 0 1 1.103-6.303.305.305 0 0 0-.587-.162 74 74 0 0 0-1.263 4.462c.147-3.588.347-7.173.627-10.753q.49-6.287 1.254-12.548c.502-4.123 1.205-8.219 1.7-12.342a47 47 0 0 0-.176-11.867c-.518-3.878-1.321-7.707-1.953-11.566a50.4 50.4 0 0 1-.792-11.5c.272-4.04 1.547-7.91 2.098-11.907a85 85 0 0 0 .432-12.437c-.042-4.211-.086-8.433-.31-12.638a95 95 0 0 0-.21-3.098.113.113 0 0 0-.226 0c-.337 4.889-.422 9.794-.604 14.693a99 99 0 0 1-.705-5.074c-.508-4.71-.796-9.454-.931-14.19q-.115-4.006-.047-8.014c0-.02-.03-.02-.032 0a119 119 0 0 0-.473 14.33c.141 4.726.594 9.45 1.155 14.144q.234 1.953.574 3.892c.045.259.106.51.166.76-.1 1.534-.214 3.067-.372 4.598a57 57 0 0 1-.959 6.054c-.423 1.988-.9 3.967-1.206 5.977a41.4 41.4 0 0 0 .036 11.507c.401 3.142 1.015 6.27 1.575 9.405a9 9 0 0 0-1.037.857c-.61.601-1.155 1.268-1.744 1.89a30.5 30.5 0 0 1-3.697 3.344 25.6 25.6 0 0 1-9.096 4.49c-6.457 1.646-14.338.415-18.993-4.693-2.047-2.247-3.172-5.643-1.547-8.453a4.5 4.5 0 0 1 .734-.944c.053-.003.104-.012.157-.012a4.05 4.05 0 0 1 1.846.456 13.3 13.3 0 0 0 3.326 1.56.61.61 0 0 0 .675-.274 3 3 0 0 1 .496-.216.09.09 0 0 0-.021-.164 3 3 0 0 1-.28-.064c-.093-.027-.145-.088-.134-.016a.58.58 0 0 0-.418-.418c-1.306-.245-2.4-1.112-3.657-1.517a6 6 0 0 0-.852-.2 14 14 0 0 1 2.12-.98 43 43 0 0 0 5.157-2.38 48 48 0 0 0 3.386-2.081.8.8 0 0 0 .212.016c.13-.01.253-.057.382-.073a2 2 0 0 1 .665.033 1.88 1.88 0 0 1 1.18.787 2.29 2.29 0 0 1-.376 2.83 9 9 0 0 1-1.56.944q-.908.497-1.812 1c-.602.334-1.213.657-1.808 1.003-.597.347-1.158.752-1.732 1.133a.04.04 0 0 0 .039.068c.783-.344 1.565-.67 2.32-1.075l2.243-1.204a10.3 10.3 0 0 0 3.504-2.381 2.66 2.66 0 0 0-.444-3.324 2.9 2.9 0 0 0-1.402-.703 89 89 0 0 0 4.492-3.411c.377-.303.742-.62 1.115-.926a4.8 4.8 0 0 0 1.193-.38 3.51 3.51 0 0 1 3.084-.235c.985.44 2.02.758 3.005 1.204 1.145.52 2.24 1.157 3.333 1.78a.02.02 0 0 0 .02-.034 38 38 0 0 1-3.227-2.287 6.5 6.5 0 0 0-2.788-1.736 5.7 5.7 0 0 0-2.624.03c.427-.36.86-.709 1.286-1.069l.27-.232c.801.221 1.613.436 2.387.731a18.5 18.5 0 0 1 2.623 1.306c1.418.82 3.083 1.897 3.188 3.713.001.02.034.028.038.005.294-1.696-1.207-3.07-2.512-3.897a24 24 0 0 0-2.773-1.5c-.653-.302-1.296-.602-1.951-.88a3.5 3.5 0 0 1 1.705.035 10 10 0 0 1 1.386.47 2.9 2.9 0 0 0 1.369.279.155.155 0 0 0 .131-.23c-.486-.953-1.969-1.369-2.94-1.53a5 5 0 0 0-.884-.07 16 16 0 0 0 1.84-2.05 12.9 12.9 0 0 0 2.124-5.25c.404-2.035.66-4.106.862-6.17a60 60 0 0 0-.277-12.59 23 23 0 0 0-.504-2.97.157.157 0 0 0-.307.04c-.122 2.196-.036 4.4-.11 6.6a63 63 0 0 1-.207 3.25c-.077-.672-.15-1.345-.235-2.016-.05-.39-.102-.797-.163-1.206q-.025-1.836.04-3.679c.128-3.61.2-7.224.31-10.835.11-3.578.139-7.143-.054-10.718a332 332 0 0 0-.877-11.833c-.706-7.861-1.589-15.705-2.228-23.572q-.24-2.942-.426-5.889a49 49 0 0 1-.148-5.916 61 61 0 0 1 2.15-11.343c.811-3.191 1.552-6.4 2.32-9.602q2.092-1.59 4.174-3.195c.012-.009 0-.03-.012-.02q-2.071 1.555-4.137 3.116c.176-.734.346-1.469.528-2.201a124 124 0 0 1 1.586-5.853 95 95 0 0 1 .87-2.708c.136-.407.303-.842.434-1.284a94 94 0 0 0 4.33-1.592c-2.543 4.18-5.083 8.356-7.331 12.71a.063.063 0 0 0 .108.063 88 88 0 0 0 4.51-7.123c1.09-1.903 2.089-3.84 3.074-5.79a144 144 0 0 0 13.49-6.309c9.266-4.857 18.345-10.099 27.332-15.452q.879-.526 1.753-1.06c3.228-1.611 6.513-3.106 9.815-4.558.583-.076 1.17-.13 1.758-.198a70 70 0 0 0 7.62-1.332 56 56 0 0 0 7.46-2.146 53 53 0 0 0 1.922-.789c1.264.135 2.537.218 3.786.345 9.2.933 17.248 5.71 26.097 7.973a39 39 0 0 0 4.344.862 4.4 4.4 0 0 0 .283.674c.281.598.61 1.174.939 1.747a82 82 0 0 0 1.939 3.17l3.989 6.274c1.292 2.034 2.657 4.038 3.871 6.119a14.6 14.6 0 0 1 1.283 2.835 8.6 8.6 0 0 1 .373 1.508v.017c-.275.982-.672 1.956-.885 2.837-.707 2.92.198 5.996.67 8.89 1.005 6.18 1.969 12.364 2.73 18.58.758 6.2 1.342 12.417 1.817 18.645.459 6.02.786 12.057 1.45 18.06a68.5 68.5 0 0 0 1.693 9.854c.144.547.307 1.086.467 1.627-.173-.343-.348-.686-.515-1.03q-1.083-2.24-2.154-4.483c-.358-.747-.705-1.5-1.09-2.233-.406-.772-.932-1.463-1.33-2.237-.023-.043-.096-.013-.08.033.243.66.34 1.358.577 2.018.267.74.549 1.47.84 2.201.523 1.308 1.05 2.613 1.568 3.922 1.052 2.661 1.994 5.371 3.087 8.016a26.5 26.5 0 0 1 1.904 7.943c.252 2.858.549 5.71.863 8.562.366 3.316.839 6.62 1.234 9.933.02.16.26.17.258 0a701 701 0 0 1-.074-8.94 150 150 0 0 0-.121-6.416c1.737 5.061 3.686 10.057 5.65 15.025a249 249 0 0 0 9.026 20.189q2.422 4.823 5.107 9.507a38.2 38.2 0 0 1 4.413 9.81c.446 1.81.789 3.642 1.369 5.416a39 39 0 0 0 2.05 4.956c1.615 3.324 3.48 6.53 5.232 9.783q2.674 4.967 5.28 9.97 1.36 2.61 2.702 5.23a41 41 0 0 1 2.211 4.75c.972 2.708 1.284 5.91-.546 8.35"/><path fill="currentColor" d="M242.083 67.31c.061.01.117-.06.065-.111a2.7 2.7 0 0 0-.547-.39c-.06-.035-.126-.063-.188-.096q-.25-.659-.536-1.303c-.227-.506-.511-.973-.768-1.463a.055.055 0 0 0-.1.043c.142.517.234 1.047.375 1.566l.208.761c-.319-.14-.637-.28-.952-.43-.135-.063-.254.132-.119.203q.599.315 1.186.65l.102.373a10.8 10.8 0 0 0 1.122 2.95.098.098 0 0 0 .182-.05 7.3 7.3 0 0 0-.536-2.856 2.3 2.3 0 0 0 .506.153M238.45 39.7c-.206-.195-.417-.382-.624-.575-.106-.238-.204-.479-.312-.715-.945-2.06-1.998-4.067-3.094-6.05l.155.149a16 16 0 0 0 1.853 1.606c.047.032.09-.036.057-.074a16 16 0 0 0-1.794-1.7l-1.878-1.614c-.034-.03-.083.018-.05.05q.713.683 1.429 1.365a217 217 0 0 1 2.753 6.171c-.473-.435-.94-.877-1.419-1.306a129 129 0 0 0-6.09-5.118c-.092-.074-.225.054-.132.132q3.036 2.558 5.97 5.239c.683.622 1.355 1.258 2.027 1.893.407.95.814 1.899 1.2 2.858a17 17 0 0 0 1.367 3.112.145.145 0 0 0 .264-.111 14.5 14.5 0 0 0-1.204-3.365c-.23-.549-.477-1.091-.715-1.637a26 26 0 0 0 2.75 2.513c.061.045.151-.044.106-.107a20.4 20.4 0 0 0-2.619-2.717m5.417-2.713-1.545-1.217q-1.544-1.218-3.087-2.438c-.03-.025-.075.018-.044.044q1.067.89 2.132 1.782c.361 1.016.71 2.037 1.087 3.047.185.493.367 1.001.572 1.5a8 8 0 0 0-.531-.58 12 12 0 0 0-1.522-1.202c-.04-.028-.088.035-.052.067a17 17 0 0 1 1.33 1.378c.212.236.41.483.621.718.106.116.207.237.319.347a1.2 1.2 0 0 0 .29.244c.095.183.19.365.298.538a.07.07 0 0 0 .129-.054 16.4 16.4 0 0 0-1.144-3.086c-.413-.947-.852-1.882-1.282-2.821l.763.637 1.458 1.221a7.3 7.3 0 0 0 1.527 1.174c.05.023.127-.029.086-.085a7 7 0 0 0-1.405-1.214m.783-2.554a4 4 0 0 0-.448-.374 7 7 0 0 0-1.034-.6c-.045-.021-.084.043-.04.067a6.7 6.7 0 0 1 .99.643c.148.117.3.23.444.352.147.122.28.269.432.383.032.023.075-.023.054-.054a2.7 2.7 0 0 0-.398-.417m19.59 56.872a.059.059 0 0 0-.106.045 56 56 0 0 0 3.056 7.24.059.059 0 0 0 .107-.045 56 56 0 0 0-3.056-7.24m8.197 10.139a161 161 0 0 0-2.805-5.86c-.02-.038-.087-.01-.072.03a169 169 0 0 0 2.381 6.04 42 42 0 0 0 2.686 5.742.102.102 0 0 0 .186-.078 43 43 0 0 0-2.376-5.874m4.539 4.457-.857-2.069c-.555-1.339-1.173-2.65-1.8-3.955-.014-.028-.06-.009-.05.02.473 1.41.96 2.813 1.51 4.193l.828 2.077a5.1 5.1 0 0 0 .884 1.77.075.075 0 0 0 .127-.053 5.4 5.4 0 0 0-.642-1.983m3.992 2.754a6 6 0 0 0-.258-.663q-.284-.671-.62-1.318a29 29 0 0 0-1.523-2.54.027.027 0 0 0-.047.028c.46.86.857 1.753 1.245 2.648q.288.668.565 1.342c.09.22.174.44.28.654a1.14 1.14 0 0 0 .33.499.083.083 0 0 0 .12-.049 1.1 1.1 0 0 0-.092-.601m2.368-.786c-.017-.02-.052.006-.037.028.495.698.98 1.398 1.541 2.045.027.03.078-.01.056-.043-.474-.713-1.02-1.367-1.56-2.03m-47.482 31.325c-1.564-3.066-3.5-5.907-5.17-8.913-.071-.128-.26-.015-.196.114a50 50 0 0 0 5.243 8.894c.058.072.161-.02.123-.095m6.735 3.65a7.7 7.7 0 0 1-1.181-1.712c-.406-.64-.804-1.284-1.208-1.925q-1.242-1.974-2.43-3.981c-1.56-2.637-3.172-5.258-4.602-7.968-.047-.09-.178-.011-.135.079 1.391 2.879 2.745 5.762 4.312 8.552a145 145 0 0 0 2.34 4.034c.409.676.816 1.36 1.256 2.015a3.2 3.2 0 0 0 1.388 1.243c.206.099.456-.166.26-.337m-.825-11.013q-.523-1.004-1.114-1.97c-.428-.695-.925-1.329-1.38-2.003-.055-.082-.215-.032-.172.072.299.713.537 1.443.866 2.144.321.685.658 1.362 1.026 2.023.764 1.37 1.628 2.67 2.517 3.96.042.061.16.025.129-.054-.575-1.413-1.166-2.818-1.872-4.171m6.127 11.074q-.238-.404-.487-.8c-.325-.522-.635-1.052-.95-1.58a.106.106 0 0 0-.183.107c.29.542.586 1.081.866 1.628q.206.405.423.803c.114.211.266.55.511.633a.07.07 0 0 0 .087-.05c.054-.244-.149-.54-.267-.741m6.024.818q-.613-.893-1.202-1.801a91 91 0 0 1-2.316-3.793c-1.467-2.524-2.715-5.171-4.244-7.657a.047.047 0 0 0-.085.036 37 37 0 0 0 3.565 7.936 73 73 0 0 0 2.23 3.71q.614.96 1.255 1.903c.313.46.633 1.15 1.236 1.25a.163.163 0 0 0 .197-.113c.102-.577-.328-1.023-.636-1.471m6.504 2.075q-.635-.941-1.262-1.887-1.219-1.844-2.389-3.72c-1.56-2.502-3.084-5.025-4.705-7.488a.023.023 0 0 0-.04.023 70 70 0 0 0 4.123 7.828q1.106 1.843 2.26 3.658.606.959 1.23 1.906c.31.469.592 1.096 1.184 1.23a.16.16 0 0 0 .192-.11c.088-.572-.287-.986-.592-1.44m1.829-3.32a8 8 0 0 0-.384-.858c-.303-.616-.65-1.216-.99-1.814-.668-1.177-1.363-2.337-2.01-3.527-.044-.08-.159-.01-.121.071.574 1.236 1.096 2.493 1.648 3.74.269.608.533 1.227.838 1.819a6.8 6.8 0 0 0 1.119 1.594c.051.056.13-.004.117-.068a6.5 6.5 0 0 0-.216-.957m2.969 4.458c-.171-.246-.37-.46-.563-.69-.18-.212-.373-.41-.546-.628-.188-.236-.36-.478-.533-.727-.144-.21-.484-.017-.344.2.164.256.32.51.465.774.137.249.248.507.377.76.13.252.242.51.393.75.143.228.333.589.62.667a.308.308 0 0 0 .475-.322 1.28 1.28 0 0 0-.343-.784m6.117 2.565a24 24 0 0 0-2-2.887q-.942-1.352-1.84-2.736c-1.232-1.902-2.471-3.812-3.6-5.778-.05-.088-.179-.01-.135.079 1.017 2.077 2.054 4.128 3.246 6.113q.875 1.458 1.8 2.885a16 16 0 0 0 1.96 2.763.36.36 0 0 0 .353.093.3.3 0 0 0 .16-.093.38.38 0 0 0 .056-.439m4.917 1.809a55 55 0 0 1-3.058-4.7 54 54 0 0 0-3.374-5.464c-.022-.028-.081-.013-.065.027a47.6 47.6 0 0 0 5.165 9.806 11 11 0 0 0 .788.995c.182.197.521.622.833.594.666-.06-.149-1.062-.289-1.257m4.465 1.309c-.26-.355-.536-.702-.813-1.045-.57-.705-1.144-1.406-1.696-2.125-1.09-1.418-2.11-2.884-3.17-4.322a.04.04 0 0 0-.067.039 27.6 27.6 0 0 0 2.635 4.723c.49.723 1.01 1.425 1.55 2.112.266.338.547.669.845.98a2.1 2.1 0 0 0 .997.712.14.14 0 0 0 .173-.131 1.83 1.83 0 0 0-.454-.943m3.424.699a16 16 0 0 0-.54-.626c-.359-.396-.714-.796-1.084-1.182a115 115 0 0 0-2.26-2.274c-.036-.036-.106.013-.073.057a113 113 0 0 0 1.934 2.486c.327.406.668.8 1.006 1.197.178.21.357.418.546.619a1.3 1.3 0 0 0 .577.433c.083.022.2-.043.188-.143a1.13 1.13 0 0 0-.294-.567m2.541-.226a1.3 1.3 0 0 0-.122-.252 2.2 2.2 0 0 0-.376-.419 2.2 2.2 0 0 0-.47-.308 3.6 3.6 0 0 0-.521-.185.047.047 0 0 0-.036.085 3 3 0 0 1 .4.323c.125.118.256.229.379.35.12.12.244.234.359.36.059.063.133.115.197.175a1 1 0 0 0 .185.17.06.06 0 0 0 .088-.05.7.7 0 0 0-.083-.249m-168.949 26.376c-3.613-1.8-7.336-3.354-10.903-5.252a.066.066 0 0 0-.067.115 58 58 0 0 0 10.922 5.251.063.063 0 0 0 .048-.114m10.05.832c-6.023-2.85-11.974-5.76-17.717-9.15-.062-.036-.112.055-.055.095a69.7 69.7 0 0 0 17.721 9.177c.07.023.12-.09.051-.122m9.526-.277a11 11 0 0 0-2.482-.889c-.893-.29-1.766-.648-2.632-1.009a75 75 0 0 1-5.187-2.425 111 111 0 0 1-9.7-5.545c-.102-.066-.192.094-.094.162a73.5 73.5 0 0 0 9.839 5.753c1.639.788 3.303 1.515 4.981 2.216.928.388 1.864.754 2.786 1.155a8.8 8.8 0 0 0 2.41.873c.164.018.2-.215.08-.29m-2.034-6.011c-1.29-.87-2.577-1.736-3.908-2.54s-2.711-1.512-4.063-2.276a.086.086 0 0 0-.087.149c1.314.829 2.593 1.71 3.931 2.5 1.34.79 2.711 1.512 4.087 2.234a.04.04 0 0 0 .04-.067m11.081 4.219a18 18 0 0 0-4.624-1.91c-.81-.255-1.642-.433-2.452-.686a27 27 0 0 1-2.539-.99c-.032-.013-.06.032-.028.048.82.397 1.657.765 2.46 1.195.745.399 1.47.836 2.241 1.187a12.9 12.9 0 0 0 4.874 1.404.134.134 0 0 0 .067-.248m10.971-1.023a5.76 5.76 0 0 0-2.43-1.24c-.491-.186-.985-.406-1.492-.549-.469-.132-.955-.195-1.427-.323a33.4 33.4 0 0 1-5.73-2.412c-1.794-.874-3.571-1.786-5.39-2.609a59 59 0 0 0-2.567-1.106c-.98-.389-2.002-.647-2.988-1.015-.037-.014-.061.045-.027.064.891.492 1.728 1.073 2.634 1.541.906.47 1.842.884 2.777 1.291 1.784.777 3.62 1.44 5.441 2.119a38 38 0 0 1 5.73 2.41 25 25 0 0 0 2.576 1.372 5.96 5.96 0 0 0 2.733.843.23.23 0 0 0 .16-.387m6.882-2.144c-2.54-1.782-5.787-2.264-8.616-3.453-2.91-1.224-5.791-2.501-8.732-3.65-.12-.048-.2.148-.087.206 2.797 1.43 5.679 2.64 8.592 3.814 2.87 1.157 5.64 3.036 8.764 3.374.17.018.192-.213.08-.291m-.853-5.825c-1.438-.688-2.874-1.404-4.353-2a27 27 0 0 0-2.2-.77c-.777-.24-1.557-.37-2.348-.543-.037-.008-.065.046-.028.065.686.34 1.34.717 2.048 1.019.74.316 1.492.616 2.251.885 1.51.534 3.058.964 4.58 1.458.067.022.114-.083.05-.114m8.78 3.083a1.6 1.6 0 0 0-.852-.25c-.286-.029-.573-.082-.856-.121a7 7 0 0 1-.824-.2 7 7 0 0 1-.822-.308c-.114-.046-.198.152-.084.2.532.227 1.066.442 1.601.66.132.053.257.122.392.175l.398.151a1.54 1.54 0 0 0 .92.168.286.286 0 0 0 .126-.475m6.386-2.439a12.8 12.8 0 0 0-3.43-1.306c-1.153-.36-2.31-.71-3.462-1.072-2.38-.75-4.764-1.472-7.116-2.308-.062-.022-.086.074-.027.098 2.317.953 4.63 1.929 6.986 2.78 1.139.41 2.28.812 3.433 1.18a11.2 11.2 0 0 0 3.563.825.106.106 0 0 0 .053-.197m4.095-2.539a4 4 0 0 0-1.823-.812 58 58 0 0 0-2.175-.62c-1.458-.389-2.924-.75-4.39-1.107a.066.066 0 0 0-.035.128c1.453.412 2.89.87 4.32 1.36.714.244 1.427.493 2.142.738a4.2 4.2 0 0 0 1.928.437c.058-.008.067-.087.033-.124m4.717-1.696c-2.28-.768-4.678-1.152-6.986-1.83-.102-.03-.142.123-.044.158a27.3 27.3 0 0 0 7.014 1.795c.073.005.08-.102.016-.123m3.566-1.965c-.63-.2-1.26-.373-1.907-.511-.657-.14-1.34-.108-1.995-.24a.04.04 0 0 0-.02.075c.325.136.634.314.96.455a4.6 4.6 0 0 0 .93.302 7 7 0 0 0 2.007.104.094.094 0 0 0 .025-.185m5.109-2.206a1.2 1.2 0 0 0-.307-.099 1.4 1.4 0 0 0-.329-.007 1.5 1.5 0 0 0-.63.213c-.082.047-.027.195.066.157a2.5 2.5 0 0 1 .584-.147 3 3 0 0 1 .283-.022c.103-.004.206-.01.31-.008.043.001.066-.068.023-.087m-74.877-12.456a23.3 23.3 0 0 0-4.381-1.57c-1.535-.45-3.102-.786-4.646-1.204a.055.055 0 0 0-.029.106c1.515.53 3 1.14 4.526 1.636a23.4 23.4 0 0 0 4.49 1.177c.078.01.105-.11.04-.145m7.295-2.446a11.5 11.5 0 0 0-2.961-1.114c-1.12-.314-2.242-.615-3.362-.924-2.203-.607-4.4-1.206-6.563-1.949-.09-.031-.127.11-.039.143 2.145.8 4.274 1.651 6.439 2.398 1.063.366 2.127.718 3.207 1.032a10.5 10.5 0 0 0 3.232.589.095.095 0 0 0 .047-.175m6.29-1.214a16 16 0 0 0-3.778-1.65q-2.092-.74-4.2-1.44c-2.768-.917-5.553-1.78-8.326-2.681-.073-.024-.1.086-.032.113 2.733 1.052 5.452 2.14 8.19 3.177a243 243 0 0 0 4.06 1.487 16 16 0 0 0 4.05 1.125c.076.005.088-.095.036-.131m4.25-1.862a5.7 5.7 0 0 1-.914-.459q-.502-.218-1.005-.429-.858-.364-1.72-.72a140 140 0 0 0-3.834-1.525q-3.86-1.462-7.791-2.7c-.034-.01-.047.041-.015.053q3.994 1.463 7.95 3.036c1.278.51 2.556 1.02 3.828 1.546q1.102.456 2.198.927c.353.151.92.516 1.304.4.058-.018.067-.116 0-.129m3.614-2.256a2.35 2.35 0 0 0-1.017-.56 51 51 0 0 0-1.437-.515 99 99 0 0 0-3.011-.961q-2.973-.911-5.982-1.693a.02.02 0 0 0-.01.037q2.922.9 5.804 1.927 1.44.517 2.87 1.066c.475.182.954.356 1.432.535a2.8 2.8 0 0 0 1.29.31.087.087 0 0 0 .061-.146m-.861-3.276a19 19 0 0 0-3.042-1.149c-1.08-.29-2.172-.513-3.262-.757a.04.04 0 0 0-.02.075c1.024.403 2.04.816 3.079 1.185a18.3 18.3 0 0 0 3.194.768c.068.01.126-.087.051-.122m5.4 1.495a1.75 1.75 0 0 0-.665-.37c-.196-.079-.396-.139-.599-.2-.099-.031-.197-.042-.297-.065a2 2 0 0 0-.341-.06 2.4 2.4 0 0 1-.615-.162.133.133 0 0 0-.102.243 2.4 2.4 0 0 1 .544.337 2 2 0 0 0 .277.204c.085.057.163.122.252.172.184.104.366.208.559.296a1.75 1.75 0 0 0 .73.225.367.367 0 0 0 .257-.62m.503-2.904q-.978-.397-1.987-.707a29 29 0 0 0-4.27-.943c-.121-.018-.176.166-.051.188a22 22 0 0 1 4.068 1.144c.682.262 1.346.56 2.004.877a4.24 4.24 0 0 0 1.798.681.134.134 0 0 0 .115-.2 3.4 3.4 0 0 0-1.677-1.04m4.138-1.823a5 5 0 0 0-.734-.418 5.5 5.5 0 0 0-.745-.261 7 7 0 0 0-1.608-.216.055.055 0 0 0-.015.107c.51.152 1.007.341 1.516.497.254.078.506.16.763.23.255.072.514.123.772.182a.067.067 0 0 0 .051-.121m-77.448 44.262a110 110 0 0 0-11.904-5.345c-.065-.027-.112.084-.048.115a111 111 0 0 0 11.886 5.388c.093.032.15-.11.066-.158m5.641-1.068a57 57 0 0 0-6.92-3.492c-2.346-1.106-4.707-2.177-7.017-3.358-.089-.045-.167.087-.079.135 2.3 1.265 4.578 2.574 6.912 3.779a40 40 0 0 0 7.02 3.137.11.11 0 0 0 .084-.2m5.039-1.58c-2.092-1.242-4.278-2.33-6.424-3.476q-3.226-1.72-6.43-3.481a.055.055 0 0 0-.056.094 102 102 0 0 0 12.883 6.928c.038.015.06-.045.027-.065m5.269-.672a58 58 0 0 0-5.623-3.286c-1.907-1.041-3.83-2.053-5.747-3.075a.023.023 0 0 0-.023.04c1.863 1.114 3.72 2.239 5.595 3.334a58 58 0 0 0 5.72 3.122.078.078 0 0 0 .078-.135m2.824-2.071a15.4 15.4 0 0 1-2.75-2.057 34.5 34.5 0 0 0-5.444-3.154.05.05 0 0 0-.052.088c1.728 1.196 3.338 2.606 5.182 3.627a20.4 20.4 0 0 1 2.604 1.59c.618.474 1.355 1.907 2.295 1.597a.18.18 0 0 0 .126-.166c.014-.895-1.305-1.217-1.96-1.525m1.919-3.205a4.4 4.4 0 0 0-.934-.87 5 5 0 0 0-1.037-.572 5.8 5.8 0 0 0-1.153-.282c-.025-.004-.05.027-.027.046.279.237.52.513.798.75q.452.381.922.74c.305.236.613.473.938.68.32.205.659.373.974.587.07.048.15-.044.112-.112a8 8 0 0 0-.593-.967m3.891 2.535a.92.92 0 0 0-.53-.21 6 6 0 0 1-.421-.094 1 1 0 0 1-.155-.049l-.21-.1c-.031-.015-.077-.022-.107-.04-.022-.012-.05-.04-.073-.055a3 3 0 0 1-.167-.129.205.205 0 0 0-.281 0 .2.2 0 0 0 0 .282q.096.082.198.16c.03.023.064.045.093.07.024.02.038.045.062.068a4 4 0 0 0 .357.28 4 4 0 0 0 .414.296.86.86 0 0 0 .651.161.388.388 0 0 0 .169-.64m2.442-2.432.078.134a1.75 1.75 0 0 0-.766-.707 7 7 0 0 0-.856-.469c-.297-.13-.597-.25-.898-.372-.297-.121-.599-.262-.906-.354a.028.028 0 0 0-.027.046c.274.294.602.544.895.82a9.5 9.5 0 0 0 1.005.808c.164.117.333.23.508.33a2.2 2.2 0 0 0 .605.273c.15.03.377.102.5-.028.15-.157-.025-.367-.138-.48m3.682-1.697a1.3 1.3 0 0 0-.475-.237 2.4 2.4 0 0 0-.986-.043.063.063 0 0 0 0 .125 1.7 1.7 0 0 1 .442.098c.141.052.278.118.417.177.137.058.267.137.407.188.066.023.133.038.196.068a.8.8 0 0 0 .204.078c.051.01.12-.035.096-.096a1.1 1.1 0 0 0-.301-.358m-85.327 32.43c-2.035-1.034-4.112-1.98-6.137-3.034a.027.027 0 0 0-.027.048 38.5 38.5 0 0 0 6.137 3.05c.037.013.063-.047.027-.065m9.659-.392a24 24 0 0 0-3.505-1.76c-1.239-.552-2.483-1.09-3.726-1.634-2.45-1.071-4.913-2.11-7.343-3.228-.058-.027-.11.058-.05.087 2.419 1.205 4.82 2.448 7.257 3.617 1.183.568 2.367 1.13 3.564 1.668a22 22 0 0 0 3.722 1.443.106.106 0 0 0 .081-.193m5.515-2.885a29 29 0 0 0-3.535-1.59q-2.018-.847-4.011-1.75c-2.513-1.141-5.011-2.303-7.46-3.575-.072-.037-.135.069-.064.108 2.445 1.344 4.911 2.664 7.435 3.856q1.84.868 3.704 1.684a22 22 0 0 0 3.853 1.452.102.102 0 0 0 .078-.185m6.243-1.523a5.2 5.2 0 0 0-1.895-1.104q-1.058-.462-2.108-.937-2.158-.97-4.288-1.996-4.26-2.05-8.482-4.18c-.027-.013-.05.027-.024.041q4.184 2.318 8.45 4.473 2.106 1.065 4.213 2.125 1.08.543 2.162 1.082a4.7 4.7 0 0 0 1.908.65.09.09 0 0 0 .064-.154m-3.863-7.132a36 36 0 0 0-3.021-2.093c-1.065-.623-2.2-1.068-3.305-1.606a.094.094 0 0 0-.094.162c1.037.65 2.005 1.396 3.07 2.008 1.062.609 2.184 1.104 3.283 1.644a.066.066 0 0 0 .067-.115m8.352 3.767a1.2 1.2 0 0 0-.76-.31 7 7 0 0 1-.812-.22 7.8 7.8 0 0 1-1.576-.736c-.035-.02-.064.031-.032.054a12 12 0 0 0 1.536.921c.256.13.519.246.782.36a1 1 0 0 0 .84.103.11.11 0 0 0 .022-.172m4.942-2.444a20.5 20.5 0 0 0-3.296-1.672c-1.068-.53-2.13-1.068-3.197-1.6q-3.254-1.625-6.515-3.235c-.054-.026-.101.053-.048.081l6.558 3.407c1.094.565 2.195 1.118 3.285 1.693a18.5 18.5 0 0 0 3.108 1.577c.16.048.221-.163.105-.25m-1.186-5.741a21 21 0 0 0-3.149-2.452 18 18 0 0 0-3.593-1.697c-.063-.022-.09.066-.043.1a59 59 0 0 0 3.287 2.195c1.12.686 2.266 1.325 3.412 1.965.068.038.146-.055.086-.11m6.02 3.02a1.54 1.54 0 0 0-.736-.481q-.366-.15-.735-.29a18 18 0 0 1-1.549-.66c-.062-.03-.117.059-.055.094.486.277.946.576 1.403.897q.33.232.665.455a1.55 1.55 0 0 0 .803.341.24.24 0 0 0 .205-.356m3.144-3.151c-.588-.306-1.194-.58-1.792-.865-1.159-.554-2.279-1.174-3.402-1.796-2.278-1.261-4.555-2.526-6.85-3.756a.086.086 0 0 0-.087.148c2.248 1.314 4.515 2.593 6.781 3.875 1.116.632 2.23 1.262 3.306 1.96.555.36 1.104.733 1.67 1.073.373.223.704.487 1.126.29a.14.14 0 0 0 .071-.125c-.054-.466-.426-.597-.823-.804m3.731-1.677a16 16 0 0 1-1.614-.808 98 98 0 0 1-3.066-1.859c-2.062-1.294-4.198-2.435-6.358-3.556a.043.043 0 0 0-.044.074c2.027 1.196 4.035 2.413 6.107 3.529a90 90 0 0 1 3.015 1.716A28 28 0 0 0 63 183.97a.079.079 0 0 0 .106-.108 1.4 1.4 0 0 0-.85-.778m3.107-2.269c-.926-.575-1.826-1.192-2.75-1.771a58 58 0 0 0-5.69-3.057c-.023-.01-.042.021-.02.034 1.842 1.036 3.63 2.206 5.395 3.369.891.587 1.789 1.177 2.618 1.849.41.331.81.673 1.227.995a1.96 1.96 0 0 0 1.155.548.154.154 0 0 0 .147-.192c-.264-.853-1.374-1.335-2.082-1.775m4.551.203a46 46 0 0 0-6.035-3.982c-.03-.019-.056.027-.028.047a46 46 0 0 0 6.025 3.984c.03.015.066-.025.038-.05m-19.599-23.171a60 60 0 0 0-7.175-1.947c-.063-.014-.09.082-.027.098 2.408.58 4.797 1.255 7.179 1.932a.043.043 0 0 0 .023-.083m6.287-2.516a38 38 0 0 0-4.594-1.204c-.079-.015-.112.105-.033.12 1.553.304 3.095.687 4.614 1.129a.023.023 0 0 0 .013-.046M251.512 32.14a11.4 11.4 0 0 0-1.486-2.058q-.853-1.074-1.712-2.145c-1.124-1.406-2.27-2.794-3.413-4.185-.039-.047-.123.016-.086.066 1.073 1.445 2.142 2.893 3.235 4.323l1.616 2.114a11.7 11.7 0 0 0 1.687 2.007.102.102 0 0 0 .16-.123m10.497 4.809c-.296-.446-.595-.887-.884-1.337a109 109 0 0 0-1.82-2.749A75 75 0 0 0 255.5 27.8c-.047-.057-.15.02-.104.08q1.911 2.56 3.685 5.224c.575.86 1.137 1.73 1.678 2.613.28.457.544.916.797 1.388.187.35.34.845.748.963a.115.115 0 0 0 .14-.08c.089-.387-.227-.728-.434-1.04m-1.474-6.879c-.038-.049-.12.015-.086.066a52 52 0 0 0 3.385 4.624c.026.03.076-.01.055-.043a52 52 0 0 0-3.354-4.647m6.947 10.325c-.1-.183-.213-.36-.32-.54l-.66-1.094a.082.082 0 0 0-.142.082l.612 1.123c.1.184.197.37.304.55a1.7 1.7 0 0 0 .366.504.055.055 0 0 0 .092-.053 1.7 1.7 0 0 0-.252-.572m17.728 10.649q-.434-.84-.898-1.664c-.616-1.1-1.264-2.183-1.919-3.26q-1.968-3.24-4.152-6.333c-.049-.069-.16-.007-.115.067q1.95 3.17 3.765 6.422a151 151 0 0 1 1.74 3.228c.293.558.592 1.113.885 1.672a2.43 2.43 0 0 0 .888 1.189.12.12 0 0 0 .172-.07 2.04 2.04 0 0 0-.366-1.251m9.369-2.064c-.013-.027-.054-.003-.04.024l.842 1.705c.009.018.035.003.027-.015Zm5.687 12.445c-.119-.284-.244-.567-.366-.85a41 41 0 0 0-.714-1.569q-.772-1.607-1.525-3.223c-.007-.016-.035-.005-.028.012q.626 1.67 1.235 3.345.293.81.62 1.609l.328.799a.94.94 0 0 0 .428.568.07.07 0 0 0 .104-.042.86.86 0 0 0-.082-.649m.573-6.654q-.909-1.795-1.816-3.592c-.043-.086-.168-.01-.128.075q.835 1.798 1.668 3.597a22.5 22.5 0 0 0 1.797 3.521c.036.052.127.023.107-.045a22 22 0 0 0-1.628-3.556m-58.969-13.459q-.585-1.41-1.192-2.81c-.833-1.915-1.712-3.808-2.567-5.714-.027-.06-.13-.017-.107.045.732 1.958 1.438 3.924 2.19 5.873q.557 1.44 1.14 2.867a7.7 7.7 0 0 0 1.255 2.555.118.118 0 0 0 .2-.083 7.7 7.7 0 0 0-.919-2.733m24.461 19.23a53 53 0 0 0-1.166-1.88.035.035 0 0 0-.06.036q.468 1.004.979 1.988a9 9 0 0 0 1.121 1.835.055.055 0 0 0 .092-.053 9 9 0 0 0-.966-1.926m4.741 3.592a8.8 8.8 0 0 1-1.674-2.052c-.016-.031-.07-.01-.057.024a3.65 3.65 0 0 0 1.683 2.09.04.04 0 0 0 .048-.062m39.739 11.423a.051.051 0 0 0-.1-.013 16 16 0 0 0-.366 1.95 17 17 0 0 1-.51 1.994 15.6 15.6 0 0 1-1.825 3.739c-.011.017.015.032.027.016a18.6 18.6 0 0 0 1.88-3.664 17 17 0 0 0 .639-2.026 5.8 5.8 0 0 0 .255-1.996m.508 23.635c-1.03 3.353-2.597 6.504-3.542 9.89a.102.102 0 0 0 .186.078c1.879-3.07 2.657-6.47 3.574-9.908a.113.113 0 0 0-.218-.06m-5.868 27.935a36 36 0 0 1-1.225 4.156 15 15 0 0 1-.86 1.975 5.6 5.6 0 0 0-.483.9 5 5 0 0 0-.055 1.095.13.13 0 0 0 .22.091 4 4 0 0 0 .776-.789 4.4 4.4 0 0 0 .286-.983c.189-.722.394-1.439.585-2.16a31 31 0 0 0 .81-4.278c.003-.03-.047-.037-.054-.007m-4.553 13.72c-.667 1.085-1.354 2.161-1.995 3.262a.035.035 0 0 0 .061.036c.715-1.056 1.386-2.143 2.075-3.215.058-.09-.086-.173-.141-.083M194.988 337.65a164 164 0 0 1-2.308-2.54 41 41 0 0 1-4.12-5.012c-.271-.425-.549-.846-.823-1.269-.11-.168-.21-.343-.318-.512a4 4 0 0 0-.58-.636 5.27 5.27 0 0 1-1.056-2.876c-.42-2.37-.793-4.744-1.097-7.132-.013-.107-.183-.111-.172 0 .249 2.407.41 4.813.558 7.228.066 1.075.234 2.133.372 3.2a3.4 3.4 0 0 0 .504 1.541 7.6 7.6 0 0 0 .96 1.224c1.553 1.6 3.391 2.957 5.048 4.448q1.367 1.23 2.701 2.494c.911.864 1.783 1.821 2.762 2.607a.047.047 0 0 0 .066-.066c-.75-.955-1.67-1.809-2.497-2.698"/><path fill="currentColor" d="M191.756 330.414a22 22 0 0 0-1.294-1.633 11 11 0 0 0-.734-.771c-.276-.26-.585-.478-.861-.734-.068-.063-.196.022-.135.104.208.28.373.59.575.877.194.275.403.538.61.804.437.56.898 1.104 1.361 1.643.947 1.1 1.883 2.209 2.766 3.363.03.039.094.005.067-.04-.746-1.227-1.515-2.447-2.355-3.613m5.97 7.909q-.22-.37-.467-.723a11.4 11.4 0 0 0-1.074-1.308c-.066-.07-.17.035-.105.105a11 11 0 0 1 1.059 1.329q.227.336.43.689a4 4 0 0 0 .43.704c.033.037.085-.004.078-.046a2.4 2.4 0 0 0-.351-.75m2.484-.804a4.4 4.4 0 0 0-.782-1.174q-.5-.62-.996-1.24c-.705-.877-1.414-1.751-2.112-2.633-1.37-1.733-2.795-3.422-4.196-5.13-.017-.02-.051.006-.037.028 1.213 1.85 2.447 3.685 3.786 5.446q.956 1.257 1.927 2.502.492.625.993 1.242a5 5 0 0 0 1.125 1.184c.139.087.355-.06.293-.225m.847-2.643q-.455-.575-.905-1.153c-.57-.738-1.143-1.473-1.703-2.218a147 147 0 0 1-3.229-4.43c-.017-.025-.056-.003-.04.023a90 90 0 0 0 3.08 4.708 75 75 0 0 0 1.61 2.206q.394.515.792 1.025a2.3 2.3 0 0 0 .85.827c.053.021.09-.038.083-.082a2.15 2.15 0 0 0-.538-.906m1.958-1.301.019-.006c-.082-.122-.18-.235-.27-.353l-.16-.255c-.01-.017-.028-.008-.043-.014-.29-.36-.588-.715-.87-1.074-.492-.628-.995-1.248-1.482-1.88q-1.39-1.809-2.71-3.672c-.028-.04-.094-.004-.067.04a76 76 0 0 0 2.491 3.88c.422.612.846 1.226 1.293 1.821a18 18 0 0 0 1.422 1.812c.21.216.506-.068.377-.3m1.542-2.779c-.217-.259-.454-.5-.685-.747-.46-.493-.932-.976-1.402-1.46-.94-.971-1.948-1.87-2.901-2.825-.058-.058-.141.028-.089.088.878 1.007 1.698 2.062 2.59 3.057.438.49.874.98 1.322 1.461.218.233.43.471.654.698a1.64 1.64 0 0 0 .745.53c.066.012.159-.032.149-.113a1.4 1.4 0 0 0-.383-.69m-.151-4.372-.591-.657c-.387-.43-.816-.828-1.224-1.238-.033-.033-.078.015-.05.05.367.451.72.921 1.108 1.353l.574.639a3.4 3.4 0 0 0 .613.584c.049.031.099-.03.075-.075a3.3 3.3 0 0 0-.505-.656m.698-2.628c-.018-.01-.034.018-.016.027l.513.252c.013.006.025-.014.011-.02Zm31.764 6.076a16.4 16.4 0 0 0-2.192-2.844q-1.246-1.488-2.469-2.995c-1.603-1.975-3.225-3.934-4.828-5.909-.061-.075-.191.025-.135.105 1.451 2.072 2.94 4.112 4.514 6.093q1.173 1.476 2.368 2.934a15.5 15.5 0 0 0 2.56 2.798c.116.084.236-.075.182-.182m-.54-5.407q-.488-.719-.985-1.432a90 90 0 0 0-2.183-2.983c-1.437-1.891-2.978-3.681-4.516-5.49-.05-.06-.159.022-.11.086 1.458 1.92 2.821 3.926 4.192 5.908.679.981 1.347 1.969 2.016 2.956q.487.719.965 1.444a4.4 4.4 0 0 0 1.062 1.267c.178.126.376-.081.339-.26a4.3 4.3 0 0 0-.78-1.496m2.791 4.573a4 4 0 0 0-.219-.374 4.7 4.7 0 0 0-.576-.69 8 8 0 0 0-.611-.589c-.23-.18-.447-.374-.682-.547-.04-.03-.086.034-.052.067a6.5 6.5 0 0 1 1.076 1.304l.422.702c.074.124.157.243.231.366.082.136.156.277.33.287a.18.18 0 0 0 .155-.089c.088-.149-.001-.302-.075-.437m2.599-1.47a10.7 10.7 0 0 0-1.564-2.1c-.59-.752-1.153-1.52-1.722-2.287a62 62 0 0 1-3.095-4.545.094.094 0 0 0-.162.095c.958 1.622 1.945 3.234 3.021 4.78a55 55 0 0 0 1.601 2.16 8.6 8.6 0 0 0 1.787 2.03c.09.06.169-.052.134-.133m1.069-2.706c-.176-.24-.352-.482-.538-.716l-1.208-1.523c-.793-.998-1.61-1.978-2.41-2.97-.024-.031-.077.01-.055.042.72 1.055 1.421 2.123 2.148 3.172l1.075 1.552c.18.26.37.51.56.763a2.2 2.2 0 0 0 .593.647.194.194 0 0 0 .281-.216 2.2 2.2 0 0 0-.446-.75m1.78-2.776a9 9 0 0 0-.636-.872 14 14 0 0 0-1.527-1.52c-.067-.06-.164.034-.1.1a13 13 0 0 1 1.365 1.622c.202.28.408.557.6.845a4 4 0 0 0 .628.817.063.063 0 0 0 .104-.06 2.6 2.6 0 0 0-.434-.932m1.146-3.651c-.018-.024-.059 0-.04.023l.769 1.02c.015.02.048 0 .033-.02q-.38-.512-.762-1.023m18.731-5.874a76 76 0 0 0-2.234-2.682c-1.5-1.737-3.082-3.406-4.682-5.05-.032-.033-.079.016-.05.05 1.496 1.714 2.919 3.483 4.326 5.27.706.897 1.393 1.81 2.09 2.715.332.432.654.872.991 1.3a4.8 4.8 0 0 0 1.082 1.148.15.15 0 0 0 .218-.168 8.6 8.6 0 0 0-1.741-2.582m5.079 2.252c-.191-.232-.408-.446-.615-.665-.392-.413-.798-.814-1.2-1.22a238 238 0 0 0-2.56-2.56c-1.702-1.666-3.422-3.312-5.124-4.977a.059.059 0 0 0-.083.082c1.617 1.751 3.214 3.52 4.832 5.27a234 234 0 0 0 2.416 2.563c.394.412.782.83 1.183 1.236.212.213.421.435.642.638a3 3 0 0 0 .73.446.106.106 0 0 0 .145-.144 3 3 0 0 0-.366-.669m1.1-2.305c-.247-.231-.51-.447-.764-.67-.496-.433-.988-.871-1.49-1.298q-1.505-1.283-2.977-2.602c-.049-.044-.119.025-.072.072q1.395 1.395 2.805 2.774c.458.446.93.877 1.402 1.307.25.227.495.462.753.68q.173.147.352.285a1.8 1.8 0 0 0 .441.22c.06.027.136-.03.097-.096a3 3 0 0 0-.547-.672m3.15-1.166c-.93-.746-1.834-1.529-2.76-2.279-1.01-.816-2.038-1.611-3.058-2.415-.026-.02-.064.014-.038.04a407 407 0 0 0 3.94 3.686q.475.438.963.86c.236.206.594.669.942.622.557-.074.226-.648.011-.514m2.092-1.875c-.108-.111-.24-.211-.358-.311-.242-.205-.49-.403-.733-.606-.5-.42-.99-.85-1.48-1.278q-1.454-1.266-2.851-2.6a.04.04 0 0 0-.055.056c.87.971 1.773 1.907 2.719 2.806.459.436.934.855 1.412 1.27.253.219.504.44.765.65q.161.13.329.254a1.8 1.8 0 0 0 .399.178c.053.022.106-.052.075-.098a2.4 2.4 0 0 0-.222-.321m2.798-1.797a4 4 0 0 0-.399-.494c-.32-.374-.656-.737-.988-1.1-.667-.729-1.35-1.441-2.032-2.155a93 93 0 0 0-4.237-4.151c-.052-.048-.128.027-.078.077q2.093 2.053 4.011 4.268c.633.73 1.238 1.482 1.833 2.244q.455.583.9 1.175a5 5 0 0 0 .442.559c.154.149.303.135.472.234a.134.134 0 0 0 .195-.15c-.06-.194-.004-.315-.12-.506m2.255-2.419.007-.003a43.4 43.4 0 0 0-5.525-6.335 58 58 0 0 0-6.337-5.417c-.036-.026-.082.033-.048.061a69 69 0 0 1 5.999 5.742c1.898 2.046 3.524 4.276 5.276 6.44.299.369.852-.119.628-.488m-1.207-5.584c-.162-.255-.349-.496-.53-.738a31 31 0 0 0-1.08-1.373 31 31 0 0 0-2.443-2.57 35 35 0 0 0-5.637-4.233c-.065-.04-.121.06-.06.101a32.7 32.7 0 0 1 5.35 4.596 36 36 0 0 1 2.22 2.56c.373.472.74.947 1.09 1.436.147.206.287.417.44.619a3 3 0 0 0 .307.382c.096.088.227.115.332.196.143.11.327-.07.287-.22a2.1 2.1 0 0 0-.277-.756m-1.906-6.71a17 17 0 0 0-1.991-1.865 22.2 22.2 0 0 0-4.554-2.837c-.036-.017-.068.034-.032.054a19.6 19.6 0 0 1 4.253 3.116 24 24 0 0 1 1.728 1.86c.29.345.568.699.847 1.054a2.56 2.56 0 0 0 .871.842.154.154 0 0 0 .23-.132c-.044-.79-.854-1.538-1.352-2.092m-4.008-6.967a.059.059 0 0 0-.06.101 20.8 20.8 0 0 1 4.097 3.278c.043.044.105-.02.067-.066a14.2 14.2 0 0 0-4.104-3.313m21.438 5.205a7.4 7.4 0 0 0-1.769-2.11c-.694-.73-1.377-1.468-2.061-2.206q-2.05-2.213-3.98-4.532c-.04-.047-.124.017-.087.067q1.783 2.353 3.663 4.632a84 84 0 0 0 1.92 2.227c.335.377.668.757 1.015 1.121a3.6 3.6 0 0 0 1.126.934c.082.034.213-.025.173-.133m1.989-2.376a33 33 0 0 1-1.243-1.289c-.788-.858-1.488-1.793-2.245-2.68-1.509-1.768-3.167-3.399-4.818-5.032-.076-.075-.185.037-.116.116 1.532 1.748 3.041 3.52 4.678 5.173.792.8 1.638 1.554 2.391 2.392.402.447.793.895 1.167 1.364a4.9 4.9 0 0 0 1.098 1.17c.046.03.091-.026.07-.069a4.5 4.5 0 0 0-.982-1.145m-.866-5.997c-1.217-1.328-2.478-2.619-3.715-3.929-.059-.063-.15.03-.094.094 1.173 1.337 2.327 2.695 3.517 4.016a41 41 0 0 0 3.679 3.855c.034.03.097-.01.067-.052a41 41 0 0 0-3.454-3.984m3.349-1.157q-.345-.4-.702-.787c-.475-.517-.969-1.016-1.46-1.518-.017-.018-.043.009-.027.028.436.541.868 1.085 1.32 1.613.223.259.446.516.677.768.238.26.49.5.748.74.03.03.089-.01.061-.047-.2-.272-.397-.541-.617-.797m-96.309-13.321a13.6 13.6 0 0 0-1.833-3.842 15 15 0 0 0-3.507-2.955 17.5 17.5 0 0 1-3.402-3.041 35 35 0 0 1-2.889-4.039c-1.858-2.857-3.622-5.776-5.464-8.645a8.26 8.26 0 0 0-3.115-3.264 15.5 15.5 0 0 0-4.158-1.635c-.073-.01-.106.1-.03.113a5.12 5.12 0 0 1 3.499 2.21 23.7 23.7 0 0 0 2.509 3.1 65 65 0 0 1 6.183 7.952 88 88 0 0 0 5.224 7.355 36 36 0 0 0 3.104 3.274 12.2 12.2 0 0 1 2.716 3.266c1.389 2.827 1.824 6.017 3.562 8.691a.055.055 0 0 0 .094-.055c-1.304-2.678-1.505-5.7-2.493-8.485m17.309-.861a8.2 8.2 0 0 0-2.607-.668c-.96-.025-1.92.1-2.88.086a4.65 4.65 0 0 1-2.703-.78 12 12 0 0 0-2.427-1.053 6.4 6.4 0 0 0-2.464-.539 2.5 2.5 0 0 0-1.994.664c-.518.711-.096 1.292-.068 2.04.016.421-.085.827-.04 1.253a13 13 0 0 0 .27 1.457 12.66 12.66 0 0 0 2.57 5.505.031.031 0 0 0 .053-.03 50 50 0 0 1-1.88-6.02c-.103-.498-.154-1.014-.295-1.503a2.4 2.4 0 0 1-.193-1.128 4 4 0 0 1 .11-.479c.08-.32.114-.568.502-.634a1.7 1.7 0 0 1 .613.054 8 8 0 0 1 1.38.468c.9.377 1.695.956 2.597 1.318a8.8 8.8 0 0 0 2.872.325 29 29 0 0 0 3.093-.115 14 14 0 0 1 3.464-.123.05.05 0 0 0 .027-.098m2.035-6.471a10 10 0 0 1-1.297.77 3.96 3.96 0 0 1-1.872.347c-.514.006-1.008-.102-1.528-.112-.591-.011-1.172-.09-1.76-.138-1.223-.103-2.397-.383-3.607-.57-1.3-.201-2.621-.233-3.925-.376-.616-.068-1.24-.004-1.859-.03a54 54 0 0 0-1.842-.04 10.9 10.9 0 0 1-3.397-.382 5.76 5.76 0 0 1-2.831-2.648c-.785-1.181-1.113-2.6-1.953-3.752a15.5 15.5 0 0 0-1.628-1.622 26 26 0 0 1-1.577-1.738c-1.078-1.305-2.066-2.694-3.09-4.042-.042-.055-.136-.004-.095.055.879 1.26 1.777 2.51 2.637 3.784a32 32 0 0 1 2.13 3.935c.684 1.399 2.128 2.13 3.093 3.282a11 11 0 0 0 2.517 2.738c2.142 1.288 4.738.334 6.994 1.107a21 21 0 0 1 1.979.609c.652.3 1.34.565 2.014.812a16.2 16.2 0 0 0 4.05.8 8.8 8.8 0 0 0 1.992-.09 6.5 6.5 0 0 0 1.819-.6c.545-.24 1.032-.61 1.565-.881a5.4 5.4 0 0 0 1.529-1.144c.034-.038-.011-.106-.057-.074m32.721-35.368c-2.218.982-2.112 3.76-2.111 5.8a17 17 0 0 1-.234 2.105 5 5 0 0 1-.75 2.275 10 10 0 0 1-1.326 1.434 15 15 0 0 1-1.883 1.615 13.5 13.5 0 0 1-3.963 2.024 9.8 9.8 0 0 1-2.193.21 18 18 0 0 0-2.47.253 10.4 10.4 0 0 0-6.52 4.353 18.2 18.2 0 0 0-2.14 4.243c-.589 1.6-.88 3.332-1.362 4.97-.018.064.077.09.098.028a32.6 32.6 0 0 1 1.827-4.278 18 18 0 0 1 2.238-3.726 10.75 10.75 0 0 1 6.516-4.058c2.791-.473 5.479-1.109 7.73-2.928.559-.45 1.099-.922 1.659-1.37.554-.443 1.154-.817 1.682-1.294a5.16 5.16 0 0 0 1.727-3.34 10.4 10.4 0 0 0-.215-2.305 13 13 0 0 1-.114-2.125 4.6 4.6 0 0 1 1.843-3.818.04.04 0 0 0-.039-.068m12.988 12.214c-1.735.177-3.307-1.02-5.058-.892a20 20 0 0 0-2.365.427 1.7 1.7 0 0 1-1.208-.135 10 10 0 0 1-1.07-.408 3.56 3.56 0 0 1-1.277-1.719 14.5 14.5 0 0 1-.965-2.628c-.42-2.026.291-4.654 2.25-5.63.036-.017.011-.078-.026-.063a4.61 4.61 0 0 0-2.707 3.488c-.203 1.011-.231 2.057-.362 3.078a5.2 5.2 0 0 0 .257 2.994 5 5 0 0 0 1.7 2.063 3.8 3.8 0 0 0 1.187.552 2.16 2.16 0 0 0 1.403-.172c.913-.318 1.788-.73 2.694-1.063a4.34 4.34 0 0 1 2.978.205 6.4 6.4 0 0 0 2.847.484c.823-.104 1.963-.497 2.715-.008a.229.229 0 0 0 .332-.256c-.476-1.557-2.32-.42-3.326-.317m2.523 3.531a44 44 0 0 0-4.595-.589c-1.5-.06-2.87-.842-4.332-.1a4.38 4.38 0 0 0-2.157 2.988 3 3 0 0 0 .206 2.1c.376.656.754 1.287 1.087 1.972.02.04.082.011.072-.03a3.6 3.6 0 0 1-.064-1.868c.162-.572.243-1.133.357-1.717a2.86 2.86 0 0 1 1.618-2.17 8.3 8.3 0 0 1 3.711-.422c1.367.078 2.722-.055 4.087-.096.038-.001.05-.063.01-.069"/><path fill="currentColor" d="M257.114 241.72c-.7-.762-1.73-1.439-2.767-.918-1.257.632-2.328 1.614-3.535 2.335a49 49 0 0 1-3.757 2.003 11.7 11.7 0 0 1-4.37 1.125 9.36 9.36 0 0 0-4.113.77 11 11 0 0 0-3.204 2.648 7.6 7.6 0 0 0-.997 1.937c-.298.738-.51 1.507-.82 2.25a16.4 16.4 0 0 0-1.295 4.515 15.4 15.4 0 0 1-1.162 5.144.031.031 0 0 0 .054.031 7.64 7.64 0 0 0 1.302-3.465 24.5 24.5 0 0 1 1.179-3.974q.344-.955.777-1.874a8.8 8.8 0 0 1 1.206-1.79c.408-.509.849-.97 1.214-1.514.384-.571.679-1.194 1.036-1.781a4.76 4.76 0 0 1 3.31-2.367c1.392-.205 2.8-.123 4.194-.277a17.2 17.2 0 0 0 3.701-.737 12.9 12.9 0 0 0 3.39-1.849 9.2 9.2 0 0 0 1.591-1.408c.503-.591.85-1.176 1.729-1.147a1.33 1.33 0 0 1 .987.5 1.97 1.97 0 0 1 .345 1.07c.137.753.232 1.51.429 2.25a.047.047 0 0 0 .085.012 3.27 3.27 0 0 0 .407-1.744 2.8 2.8 0 0 0-.916-1.745m27.833-67.889c-.36-.639-.74-1.266-1.104-1.903q-1.227-2.147-2.457-4.29-2.458-4.295-5.033-8.511a.047.047 0 0 0-.08.047q2.252 4.268 4.621 8.465l2.31 4.09a13.7 13.7 0 0 1 1.081 2.146c.11.31.173.63.266.943a1.44 1.44 0 0 0 .512.724.138.138 0 0 0 .229-.06 1.78 1.78 0 0 0-.345-1.65m2.628 5.812q-.155-.319-.314-.636-.32-.647-.642-1.293c-.085-.173-.334-.022-.256.15l.59 1.295.286.624a1.26 1.26 0 0 0 .394.548.075.075 0 0 0 .111-.064 1.25 1.25 0 0 0-.169-.624m-.175 6.492-1.516-2.559a272 272 0 0 0-3.16-5.185q-3.211-5.156-6.364-10.346a.086.086 0 0 0-.149.087q3.007 5.277 5.931 10.598a267 267 0 0 0 2.925 5.18l1.496 2.57a12.4 12.4 0 0 0 1.721 2.51.244.244 0 0 0 .405-.235 12 12 0 0 0-1.29-2.62m1.521 9.178-1.401-2.353c-.998-1.674-2-3.35-3.031-5.003-2.043-3.277-4.19-6.488-6.223-9.77a.074.074 0 0 0-.128.075c1.918 3.348 3.72 6.763 5.628 10.117a287 287 0 0 0 2.894 4.94l1.465 2.459a12.2 12.2 0 0 0 1.695 2.224.15.15 0 0 0 .248-.144 12.2 12.2 0 0 0-1.147-2.545m.562 7.624a42 42 0 0 1-3.703-5.32c-1.071-1.823-1.995-3.727-2.963-5.605a24 24 0 0 0-1.43-2.623 10.7 10.7 0 0 0-1.868-2.042c-.102-.087-.246.051-.15.15 1.28 1.302 1.966 3.164 2.781 4.771.889 1.751 1.935 3.4 2.97 5.068 1.01 1.63 2.081 3.225 3.073 4.868.516.853 1.016 1.71 1.605 2.516.253.347.54.68.759 1.05.19.322.264.687.422 1.022a.16.16 0 0 0 .177.072c1.616-.414-1.257-3.417-1.673-3.927m2.483 10.089c-.72-1.644-2.262-2.877-3.37-4.274a40 40 0 0 1-3.177-4.748c-.93-1.605-1.625-3.307-2.44-4.967a3.5 3.5 0 0 0-1.198-1.71c-.402-.216-.842-.15-.967.319a.098.098 0 0 0 .12.12c.568-.205 1.035 1.183 1.202 1.503a25 25 0 0 0 1.284 2.118q1.366 2.072 2.713 4.156c.898 1.385 1.849 2.735 2.756 4.114a11.5 11.5 0 0 0 2.88 3.566c.133.088.25-.078.197-.197m-1.849 3.711a26.5 26.5 0 0 1-2.772-3.382c-1.585-2.257-2.728-4.778-4.361-7.008-.055-.075-.201-.035-.164.07.943 2.628 2.65 4.726 4.28 6.95.801 1.093 1.619 2.173 2.411 3.271a16 16 0 0 0 2.492 3.265.138.138 0 0 0 .228-.133c-.2-1.294-1.238-2.143-2.114-3.033m1.865 8.983a21 21 0 0 0-1.65-2.579q-.913-1.192-1.867-2.35a54 54 0 0 0-1.947-2.271c-.718-.78-1.52-1.46-2.278-2.2-.027-.028-.08.009-.055.042.604.818 1.13 1.687 1.75 2.494.61.792 1.239 1.565 1.868 2.342q.939 1.166 1.883 2.327a27 27 0 0 0 2.15 2.309.094.094 0 0 0 .146-.114m-2.321 2.257a14 14 0 0 0-.86-1.278 25 25 0 0 0-1.985-2.227c-.014-.015-.034.006-.022.022.602.777 1.14 1.624 1.673 2.45.255.395.52.781.774 1.176.273.428.599.801.898 1.208.037.052.143.023.114-.048a9 9 0 0 0-.593-1.303m-.176 5.122q-.157-.258-.327-.506-.353-.513-.7-1.031c-.089-.132-.3-.013-.216.126q.322.532.638 1.068.153.26.32.51a1.3 1.3 0 0 0 .407.454.075.075 0 0 0 .112-.064 1.3 1.3 0 0 0-.234-.557m-44.278-74.412a88 88 0 0 0-16.904 7.28c-.022.012-.002.045.02.033a94 94 0 0 1 16.897-7.268c.028-.01.016-.054-.013-.045m1.091-3.418c-1.738.532-3.43 1.255-5.118 1.928q-2.542 1.016-5.073 2.062-4.976 2.057-9.896 4.248c-6.679 2.966-13.293 6.08-19.8 9.405q-5.511 2.817-10.872 5.925c-.079.045-.01.162.07.121 12.972-6.574 25.954-13.075 39.313-18.833q2.936-1.265 5.889-2.488c1.836-.76 3.719-1.453 5.508-2.318.028-.014.008-.06-.021-.05"/><path fill="currentColor" d="M245.161 152.93q-13.476 5.11-26.59 11.104-13.206 6.008-25.965 12.944-6.83 3.727-13.483 7.779c.53-.897 1.052-1.8 1.59-2.693 6.504-3.932 13.055-7.782 19.718-11.44q13.456-7.388 27.425-13.785 7.933-3.657 16.021-6.964c.041-.017.024-.084-.018-.068q-14.274 5.559-28.08 12.218-13.872 6.714-27.15 14.585-5.825 3.45-11.48 7.196l.136-.228q1.031-1.677 2.067-3.35a348 348 0 0 1 16.025-9.746q12.777-7.283 26.165-13.393 7.65-3.509 15.45-6.687c.032-.013.019-.066-.015-.053a268 268 0 0 0-26.988 11.73 288 288 0 0 0-25.803 14.55q-2.188 1.391-4.348 2.827a215 215 0 0 1 1.822-2.88c.044-.069-.063-.129-.108-.063q-1.144 1.648-2.263 3.314-1.907 1.273-3.796 2.572a319 319 0 0 1 2.888-4.832c.029-.048-.044-.09-.074-.044a394 394 0 0 0-3.635 5.443q-2.141 1.491-4.255 3.021c-.06.044-.004.145.059.102 1.27-.867 2.555-1.713 3.836-2.565a141 141 0 0 0-9.46 16.533.082.082 0 0 0 .141.083c1.602-2.554 3.14-5.147 4.665-7.749.89-.516 1.765-1.06 2.647-1.59a204 204 0 0 0-5.996 10.695 148 148 0 0 0-3.595 7.455c-.033.072.068.136.108.064 3.451-6.31 6.9-12.622 10.52-18.836 1.208-.733 2.4-1.491 3.6-2.236q-5.61 9.178-10.655 18.688a79 79 0 0 0-3.482 7.149c-.024.058.07.093.1.042 2.47-4.062 4.516-8.392 6.793-12.564q3.422-6.272 7.027-12.443c.226-.39.46-.775.687-1.164 1.157-.72 2.322-1.426 3.472-2.157a.023.023 0 0 0-.024-.04c-1.12.662-2.227 1.346-3.342 2.018.458-.784.925-1.564 1.386-2.346 8.292-4.604 16.637-9.11 25.1-13.392 8.557-4.329 17.212-8.46 25.993-12.316q7.544-3.312 15.191-6.39c.06-.023.035-.12-.027-.097m-72.704 37.62c-.905.565-1.818 1.117-2.714 1.696 1.81-3.092 3.602-6.197 5.415-9.288a392 392 0 0 1 3.612-2.35q-1.254 1.874-2.474 3.771c-.78.521-1.56 1.04-2.334 1.57-.098.067-.01.226.095.162.615-.379 1.234-.752 1.85-1.13q-1.764 2.76-3.45 5.57m1.047-.654q1.596-2.732 3.25-5.43 1.901-1.163 3.81-2.31c-.589.92-1.16 1.852-1.74 2.779-.103.062-.208.12-.31.184a.096.096 0 0 0 .088.17c-.512.82-1.035 1.634-1.54 2.459-1.186.716-2.379 1.42-3.558 2.148"/><path fill="currentColor" d="M223.673 167.43a333 333 0 0 0-37.817 21.147c-3.393 2.202-6.766 4.456-10.046 6.824.909-1.58 1.817-3.16 2.748-4.726a.04.04 0 0 0-.068-.04q-6.826 11.125-12.766 22.753c-1.128 2.2-2.27 4.409-3.234 6.687-.017.04.038.076.061.035 2.102-3.802 3.947-7.75 5.978-11.592 2.034-3.846 4.15-7.644 6.299-11.427.305-.537.624-1.067.932-1.603.009.028.031.049.063.028 6.063-4.004 12.134-7.977 18.345-11.748q9.212-5.592 18.723-10.68c3.58-1.915 7.18-3.793 10.813-5.605.037-.018.005-.07-.031-.054"/><path fill="currentColor" d="M206.362 179.787a195 195 0 0 0-17.637 11.203c-.044.032-.003.105.043.074 5.794-3.87 11.619-7.687 17.625-11.223a.031.031 0 0 0-.031-.054m-53.633 159.695a13.8 13.8 0 0 0-2.754-1.232l-2.973-1.206c-1.98-.804-3.972-1.576-5.96-2.357-.09-.035-.157.119-.067.157 1.907.817 3.81 1.644 5.725 2.44l2.965 1.233a14.7 14.7 0 0 0 2.995 1.129.09.09 0 0 0 .069-.164m2.866-.905a15 15 0 0 0-2.633-1.224q-1.335-.583-2.676-1.152-2.593-1.1-5.197-2.176c-.032-.013-.056.043-.024.058q2.63 1.235 5.268 2.446 1.322.607 2.65 1.196a14 14 0 0 0 2.528 1.052.11.11 0 0 0 .084-.2m2.555-1.043a7.2 7.2 0 0 0-1.722-.724l-1.791-.687c-1.216-.467-2.44-.909-3.662-1.357-.019-.007-.026.023-.008.03 1.206.503 2.41 1.011 3.623 1.496l1.785.712a7 7 0 0 0 1.748.632c.06.006.066-.074.028-.102m2.537-.946a3.2 3.2 0 0 0-1.114-.542c-.447-.184-.892-.37-1.344-.543q-1.328-.505-2.653-1.02c-.057-.022-.099.075-.042.1q1.304.564 2.603 1.14c.406.18.818.346 1.229.515l.647.266a1.55 1.55 0 0 0 .635.177.055.055 0 0 0 .04-.093m2.606-1.885a3.3 3.3 0 0 0-.963-.141 14 14 0 0 1-1.096-.175 10.6 10.6 0 0 1-2.082-.648c-.035-.015-.067.034-.031.054a10.8 10.8 0 0 0 2.003.853 8 8 0 0 0 1.085.26 2.4 2.4 0 0 0 1.05.061c.106-.035.155-.208.034-.264m2.125-1.321a1.2 1.2 0 0 0-.66-.407 2.7 2.7 0 0 0-.692-.131 5 5 0 0 0-1.368.103c-.059.011-.04.097.014.1a4 4 0 0 1 .642.09 6 6 0 0 1 .624.19c.202.069.395.156.597.225.1.034.197.078.298.108a.9.9 0 0 0 .347.068.233.233 0 0 0 .198-.346m1.634-1.962a.4.4 0 0 0-.107 0q-.053.012-.103.027a2 2 0 0 0-.188.064l-.384.15c-.074.03-.046.143.033.121l.403-.111a2 2 0 0 0 .195-.065q.053-.02.104-.042a.4.4 0 0 0 .08-.064c.033-.029.005-.077-.033-.08m26.226 70.723c-1.857-.674-3.703-1.37-5.555-2.055a55 55 0 0 0-2.712-.948 5.4 5.4 0 0 0-1.258-.279 1.16 1.16 0 0 0-1.13.456 18 18 0 0 1-2.382.446 6.5 6.5 0 0 1-2.143-.346 14 14 0 0 1-4.06-2.175c-.021-.016-.048.02-.028.037a18 18 0 0 0 3.974 2.925 6.1 6.1 0 0 0 2.157.543 12.5 12.5 0 0 0 2.608-.354c.644.515 1.481.215 2.298.214a14 14 0 0 1 2.792.42c1.816.364 3.606.804 5.41 1.221a.055.055 0 0 0 .03-.105m-.199.222a44 44 0 0 1-7.24.026 21.5 21.5 0 0 1-3.593-.533 3.4 3.4 0 0 0-1.409-.101 4 4 0 0 0-1.34.631.141.141 0 0 0 .108.257c.59-.097 1.18.024 1.778-.029a16 16 0 0 1 1.664-.16c1.091.02 2.182.209 3.274.262a36 36 0 0 0 6.763-.315c.022-.003.017-.04-.005-.038m-16.6.08.003.256a.016.016 0 0 0 .032 0l.004-.256a.02.02 0 0 0-.04 0m10.511 1.786c-.318-.066-.613-.233-.937-.271a7 7 0 0 0-.912.008 16 16 0 0 1-2.042-.114 27 27 0 0 1-4.074-.812.023.023 0 0 0-.012.045 32 32 0 0 0 4.049 1.042c.668.125 1.339.239 2.009.355a4.6 4.6 0 0 0 .982.133 9 9 0 0 0 .937-.213.09.09 0 0 0 0-.173m63.316-.593a17 17 0 0 0-2.628-.229c-.916-.057-1.828-.14-2.742-.223a76 76 0 0 1-2.868-.32 3.6 3.6 0 0 0-1.24.187 9 9 0 0 1-1.455.02 59 59 0 0 1-11.074-.597c-.034-.006-.049.045-.014.053a56 56 0 0 0 10.846 1.414c.444.018.89.026 1.334.05.48.026.872.271 1.354.264.5-.007.994-.142 1.496-.169.499-.026.998-.047 1.496-.076.914-.054 1.827-.117 2.743-.147a18 18 0 0 0 2.752-.159.035.035 0 0 0 0-.068m-1.617.352a33.8 33.8 0 0 1-7.28.996q-1.766.048-3.53-.075c-.59-.042-1.175-.118-1.762-.188a2.33 2.33 0 0 0-1.48.128.153.153 0 0 0-.03.24c.787.702 2.164.507 3.154.526a38 38 0 0 0 3.765-.107 40.3 40.3 0 0 0 7.232-1.27.129.129 0 0 0-.069-.25m-3.483-2.84a13 13 0 0 0-2.547-.069c-.911.01-1.822.002-2.734.001-1.82-.002-3.643-.001-5.464-.03-.05 0-.049.073 0 .079a67 67 0 0 0 5.464.379c.911.022 1.823.015 2.734.003a10.7 10.7 0 0 0 2.547-.189.09.09 0 0 0 0-.173m46.897-21.222c-.12-.138-.387-.021-.522.004q-1.03.194-2.06.385c-1.293.241-2.585.498-3.885.703-1.313.206-2.638.28-3.952.47a11.4 11.4 0 0 0-2.183.413c-.706.25-1.356.568-2.085.77-1.466.407-2.946.74-4.373 1.276-.075.028-.073.165.021.154 1.074-.131 2.126-.35 3.184-.572.563-.118 1.126-.245 1.694-.339.617-.102 1.22-.077 1.835-.147a15.5 15.5 0 0 0 3.234-.907 36 36 0 0 1 3.293-1.006 115 115 0 0 1 3.36-.76 9 9 0 0 1 1.686-.352c.258 0 .18-.148.37.139.192.29.044.222-.226.307-.314.1-.63.189-.945.288-2.198.696-4.393 1.398-6.6 2.068-.63.19-1.258.387-1.89.574a13 13 0 0 1-1.983.37c-1.191.166-2.333.547-3.5.805a.09.09 0 0 0 0 .173 5.53 5.53 0 0 0 3.391-.049c.608-.188 1.157-.539 1.75-.77.607-.236 1.23-.436 1.846-.65 2.53-.878 5.084-1.69 7.612-2.575.169-.059 1.277-.372.928-.772m-7.324-.089a4.5 4.5 0 0 0-1.688.095l-1.955.282a65 65 0 0 0-3.807.664.04.04 0 0 0 .01.077c1.29-.075 2.569-.19 3.851-.343l1.89-.224a4.7 4.7 0 0 0 1.725-.352.11.11 0 0 0-.026-.2m7.545 45.2a3.1 3.1 0 0 1-1.255.465 2.4 2.4 0 0 0-1.07.096 9 9 0 0 1-2.208.694c-1.853.346-3.74.417-5.611.606a.05.05 0 0 0 0 .102 30.7 30.7 0 0 0 5.986-.16c.384-.033.768-.063 1.152-.103a5.2 5.2 0 0 0 1.283-.138 3.2 3.2 0 0 0 .808-.657c.327-.28.68-.505.99-.807a.063.063 0 0 0-.075-.098m3.922-.384a2.7 2.7 0 0 1 .725-.268 1.07 1.07 0 0 0-.736.257c-.008.006.003.017.01.011m.726-.268a1 1 0 0 1 .174.02.26.26 0 0 0-.174-.02m.393.076a1.3 1.3 0 0 0-.219-.056c.04.024.062.064.03.144-.047.114-.593.28-.71.334l-1.254.562c-.947.422-1.9.836-2.865 1.21q-1.366.53-2.761.975c-.897.287-1.847.453-2.714.82-.411.174-.113.815.298.707a18.6 18.6 0 0 0 2.598-1.096q1.249-.547 2.492-1.11a127 127 0 0 0 5.11-2.457.018.018 0 0 0-.005-.033m-48.852 28.943a19 19 0 0 1-1.866-.515 2.66 2.66 0 0 0-1.557-.178 9 9 0 0 1-2.008.335 56 56 0 0 1-1.922-.016 25 25 0 0 1-3.847-.329 17 17 0 0 1-1.728-.398c-.677-.194-1.693-.346-1.943-1.112a.008.008 0 0 0-.015.004c.254.937 1.501 1.263 2.31 1.5a18.6 18.6 0 0 0 4.1.626 48 48 0 0 0 2.14.072 8.4 8.4 0 0 1 2.34.182 3.05 3.05 0 0 0 1.87.176 8 8 0 0 1 2.113-.248.051.051 0 0 0 .013-.1m1.516.809-5.356.231a53 53 0 0 1-5.356.13c-.474-.027-.427.773.091.676a54 54 0 0 1 5.37-.552l5.251-.446c.025-.002.026-.04 0-.039m-63.977-9.499a4.4 4.4 0 0 0-1.538-.051c-.478.005-.952-.019-1.43-.048q-1.605-.1-3.204-.296c-2.16-.264-4.286-.703-6.426-1.09a.02.02 0 0 0-.01.038 36.7 36.7 0 0 0 6.37 1.545q1.51.25 3.033.416c.556.06 1.113.104 1.667.179a3.7 3.7 0 0 0 1.538.075.402.402 0 0 0 0-.768m.861 18.935c-.055-.097-.195-.011-.148.087.731 1.546.261 3.516-.005 5.122a33 33 0 0 0-.546 4.34l-.199-.152a8.3 8.3 0 0 0-1.55-.89 9.5 9.5 0 0 0-3.24-.832 8.02 8.02 0 0 0-6.225 2.232c-.02.019.005.05.028.037a11.17 11.17 0 0 1 6.197-1.328 9 9 0 0 1 3.011.839 11 11 0 0 1 1.302.758c.305.204.647.48 1.03.363.006-.002.007-.007.013-.008a.455.455 0 0 0 .59-.453 49 49 0 0 1 .191-5.409c.095-1.518.339-3.326-.449-4.705m2.09-1.994a3.63 3.63 0 0 1-3.03.495c-1.064-.238-2.14-.385-3.205-.62a12.7 12.7 0 0 0-3.44-.35 2.266 2.266 0 0 1-2.517-1.4c-.015-.044-.086-.04-.084.011a2.66 2.66 0 0 0 .75 1.809 1.9 1.9 0 0 0-.748.818 7.4 7.4 0 0 0-.186 1.795c-.103.635-.263 1.265-.4 1.894-.267 1.227-.656 2.417-.89 3.653-.185.975-.617 2.35-.2 3.303.042.094.163.046.194-.026a7.3 7.3 0 0 0 .279-1.38q.145-.705.3-1.405a34 34 0 0 0 .504-2.934 26 26 0 0 1 .59-3.113 4.9 4.9 0 0 1 .634-1.338 2.4 2.4 0 0 1 .908-.732 11 11 0 0 0 3.666.537 35 35 0 0 0 4.155-.089 5.04 5.04 0 0 0 2.748-.89c.02-.018-.007-.054-.028-.038m65.826 24.527c-.016-.04-.09-.056-.098 0-.061.394-.243.646-.653.545-.283-.07-.563-.252-.843-.344a6 6 0 0 0-1.826-.283 11.4 11.4 0 0 0-3.96.81c-1.65.603-3.911 1.384-4.692 3.104a2 2 0 0 0-.262-.097 63 63 0 0 1-1.322-7.164c-.25-2.04-.643-5.362 1.744-6.34.018-.008.012-.036-.008-.03a3.72 3.72 0 0 0-2.232 1.72 6.1 6.1 0 0 0-.533 3.717 48.4 48.4 0 0 0 1.535 8.58.45.45 0 0 0 .316.317 3 3 0 0 0 .535.065c-.004.027-.017.048-.021.075-.005.031.041.06.057.024.017-.038.045-.065.063-.102a1.2 1.2 0 0 0 .321-.06.31.31 0 0 0 .222-.29 1.3 1.3 0 0 1 .313-.781 5.8 5.8 0 0 1 2.034-1.194 31 31 0 0 1 4.043-1.202 7 7 0 0 1 4.145.354 1.014 1.014 0 0 0 1.247-.224c.243-.35.015-.851-.125-1.2m-.94-7.164c-.124-.592-.238-1.187-.375-1.776a3.7 3.7 0 0 0-.462-1.26 2.1 2.1 0 0 0-1.038-.753 8.5 8.5 0 0 0-1.712-.48c-1-.15-2.148-.412-3.02.239-.043.031-.035.113.029.11.48-.03.96-.056 1.44-.087a4.1 4.1 0 0 1 1.548.27c.479.157.963.294 1.444.445a2.08 2.08 0 0 1 1.275.795 4.2 4.2 0 0 1 .42 1.357l.36 1.638c.241 1.091.508 2.177.765 3.264.01.044.076.025.068-.019-.243-1.249-.48-2.499-.742-3.744m47.705-23.513a21.5 21.5 0 0 0-.185-3.25c-.253-1.755-.903-4.092-2.41-5.2-1.854-1.36-4.428-.492-6.252.467-.02.01-.006.044.015.036a6.45 6.45 0 0 1 2.908-.533 5 5 0 0 1 2.915.643 5.2 5.2 0 0 1 1.478 2.358 25 25 0 0 1 .914 2.939 13.2 13.2 0 0 1 .386 3.11 11 11 0 0 1-.11 1.556 1.5 1.5 0 0 1-.292.782c-.265.36-.336.237-.687.159a11.7 11.7 0 0 0-5.47-.392 6.3 6.3 0 0 0-2.41 1.156 3.8 3.8 0 0 0-1.03 1.36c-.209-.831-.525-1.653-.718-2.484a28 28 0 0 1-.519-2.96 32.4 32.4 0 0 1-.219-6.012.051.051 0 0 0-.1-.013 22 22 0 0 0-.507 6.247 24 24 0 0 0 .419 2.993 11.7 11.7 0 0 0 .908 3.115c.265.496.946.134.857-.362-.008-.048-.023-.095-.033-.143a8.8 8.8 0 0 1 2.026-1.424 6.64 6.64 0 0 1 3.263-.755 8 8 0 0 1 1.698.202 9 9 0 0 0 1.456.326 1.6 1.6 0 0 0 1.427-.992 8.3 8.3 0 0 0 .272-2.929m-10.247-10.014c-.026-.038-.059-.073-.088-.109a1.4 1.4 0 0 0-.175-.196c-.149-.126-.308-.237-.464-.355-.29-.22-.6-.41-.87-.658a.078.078 0 0 0-.11.11c.242.284.457.596.724.856a4 4 0 0 0 .428.377 1.2 1.2 0 0 0 .245.13c.047.02.095.045.144.06a.2.2 0 0 0 .133-.006.09.09 0 0 0 .063-.083.2.2 0 0 0-.03-.126m1.405-.634c-.107.043-.292-.077-.381-.13q-.275-.162-.545-.332a9 9 0 0 1-1.06-.726.059.059 0 0 0-.083.083c.173.186.346.374.528.552a6 6 0 0 0 .581.473c.098.072.203.135.307.198a1.3 1.3 0 0 0 .305.158c.18.05.403-.01.422-.22a.06.06 0 0 0-.074-.056m1.151-.345a2 2 0 0 0-.26-.177q-.124-.083-.25-.156l-.609-.34a.082.082 0 0 0-.083.143l.487.359c.165.122.338.23.512.34.068.043.19.106.265.05.087-.062-.01-.17-.062-.219m1.468-.393a.5.5 0 0 0-.102-.09l-.09-.06c-.029-.02-.058-.043-.09-.06q-.051-.027-.104-.048l-.413-.19c-.055-.026-.126.046-.071.092l.347.287.081.067a1 1 0 0 0 .12.075l.092.054a.5.5 0 0 0 .127.05.11.11 0 0 0 .12-.048.11.11 0 0 0-.017-.129m1.493.175q-.063-.067-.129-.131a1 1 0 0 0-.15-.12l-.304-.212c-.057-.04-.132.054-.076.098l.293.227a1 1 0 0 0 .158.11q.082.043.165.084a.035.035 0 0 0 .043-.056m50.427-72.233a.56.56 0 0 0-.297-.255 2.3 2.3 0 0 0-.842-.248 4.7 4.7 0 0 0-1.426.09 6.7 6.7 0 0 0-2.48 1.094 7.03 7.03 0 0 0-2.626 2.847c-.016.017-.039.03-.053.048a2.2 2.2 0 0 0-.199.552c-.81-.332-1.167-1.62-1.604-2.28a13.5 13.5 0 0 1-1.567-3.247 24 24 0 0 1-.91-3.288 3.23 3.23 0 0 1 .099-2.018 4.18 4.18 0 0 1 3.803-2.103 2.54 2.54 0 0 1 1.875.25 5.5 5.5 0 0 1 1.117 1.02 32.6 32.6 0 0 1 4.068 5.603c.023.04.081.004.061-.036a27.6 27.6 0 0 0-3.592-5.47 5.8 5.8 0 0 0-2.037-1.746 5.1 5.1 0 0 0-2.858-.337 3.57 3.57 0 0 0-2.431 1.02c-.59.722-.382 1.767-.33 2.614a28 28 0 0 0 1.562 6.268c.19.62.302 1.25.473 1.872a11 11 0 0 0 .688 1.697c.321.68 1.123 1.51 1.857.934a.306.306 0 0 0 .317-.285c.115-1.445 1.679-2.474 2.792-3.177a6.6 6.6 0 0 1 2.034-.88 4.5 4.5 0 0 1 1.172-.11c.194.006.388 0 .581.01a1.24 1.24 0 0 0 .581-.016.294.294 0 0 0 .172-.423m-9.767-11.422a7 7 0 0 0-1.27.475c-.414.188-.814.408-1.228.598-.044.02-.013.092.033.079a7.5 7.5 0 0 0 2.522-1.055c.05-.038-.006-.11-.057-.098m-7.381-22.119c-1.1.439-2.17.965-3.247 1.457a11.4 11.4 0 0 1-2.006.803 8.2 8.2 0 0 0-1.754.394c-.246.122-.431.344-.666.49a9 9 0 0 1-.813.399c-.584.282-1.174.553-1.777.79a20 20 0 0 1-3.408 1.144c-.027.005-.019.044.006.046a8.6 8.6 0 0 0 3.39-.384c1.098-.361 2.156-1.026 3.275-1.287a3.4 3.4 0 0 0 1.429-.766 10 10 0 0 1 1.78-1.162c1.125-.556 2.303-1.03 3.404-1.633.501-.275.012.06-.105.165-.214.193-.429.387-.65.572q-.736.618-1.524 1.171c-.944.661-1.938 1.233-2.932 1.812-1.002.584-2.05 1.069-2.993 1.743-.466.334-.92.716-1.403 1.024-.485.31-1.052.47-1.535.784a.031.031 0 0 0 .024.057c.564-.126 1.06-.436 1.608-.612.575-.186 1.155-.324 1.724-.536a12.7 12.7 0 0 0 2.968-1.786 66 66 0 0 0 5.246-4.615c.03-.027-.002-.086-.041-.07m-2.525 5.16c-.215.05-.434.048-.644.112a2.8 2.8 0 0 0-.639.315 2.8 2.8 0 0 0-.511.458 2 2 0 0 1-.645.396c-.841.355-1.7.655-2.518 1.066-.031.016-.009.071.024.057.444-.18.897-.33 1.35-.484.465-.159.93-.337 1.4-.476a2.6 2.6 0 0 1 .681-.124 1.65 1.65 0 0 0 .732-.176 1.8 1.8 0 0 0 .575-.43 3 3 0 0 0 .31-.564.103.103 0 0 0-.115-.15m-26.156-26.505a16 16 0 0 0-.471-2.32c-.011-.04-.081-.034-.077.01.078.777.125 1.557.192 2.334.068.787.193 1.568.278 2.353a.035.035 0 0 0 .07 0 12 12 0 0 0 .008-2.377m2.901 9.66c-.072-.811-.135-1.622-.208-2.433a125 125 0 0 0-.539-4.854c-.003-.024-.041-.025-.039 0q.24 2.424.406 4.854c.056.81.108 1.62.136 2.433a9.2 9.2 0 0 0 .153 2.272.095.095 0 0 0 .18 0 8.2 8.2 0 0 0-.089-2.272m2.059 1.003a37 37 0 0 0-.465-3.025.02.02 0 0 0-.038.005c.072 1.026.15 2.052.194 3.08a11.6 11.6 0 0 0 .258 2.99.06.06 0 0 0 .113 0 8.5 8.5 0 0 0-.062-3.05m1.727 3.487a6.5 6.5 0 0 0-.27-1.321.031.031 0 0 0-.06.016 8.5 8.5 0 0 1 .185 1.33 12 12 0 0 1 .024 1.307c-.002.034.056.043.061.008a5.5 5.5 0 0 0 .06-1.34m-41.18 7.065a103 103 0 0 0-1.859 4.453 28 28 0 0 0-.796 2.329 5.4 5.4 0 0 0-.333 2.22c.007.052.085.055.107.015a9 9 0 0 0 .676-2.111c.214-.79.454-1.575.703-2.354.487-1.522 1.036-3.022 1.531-4.54.005-.017-.021-.029-.029-.013m1.1 3.281a42 42 0 0 0-1.612 4.065c-.233.717-.43 1.436-.595 2.172-.162.729-.466 1.443-.587 2.176a.031.031 0 0 0 .06.017c.291-.69.426-1.444.708-2.143a41 41 0 0 0 .764-2.043c.477-1.394.896-2.806 1.34-4.211.015-.045-.058-.078-.078-.033m.826 4.598a60 60 0 0 0-.928 2.525 11.7 11.7 0 0 0-.68 2.508.04.04 0 0 0 .073.02 8 8 0 0 0 .423-1.211c.124-.422.258-.84.385-1.261.259-.857.524-1.71.81-2.558.018-.054-.063-.074-.083-.023m1.167 3.482q-.408 1.064-.796 2.137a9.6 9.6 0 0 0-.56 2.133c-.005.05.073.07.095.026a11.6 11.6 0 0 0 .733-2.085q.303-1.095.633-2.183c.02-.068-.08-.093-.105-.029m-.796 6.689a.05.05 0 0 0 0 .1.05.05 0 0 0 0-.1m-53.001-20.275c-.058-.018-.08.07-.025.09a12.8 12.8 0 0 1 5.905 4.694.059.059 0 0 0 .1-.059 9.88 9.88 0 0 0-5.98-4.725m1.252-.431c-.03-.008-.04.035-.012.045a15.7 15.7 0 0 1 5.893 4.206.055.055 0 0 0 .086-.066 10.4 10.4 0 0 0-5.967-4.185m7.399 2.018a4.7 4.7 0 0 0-.6-.672 8.8 8.8 0 0 0-1.452-1.088 13.7 13.7 0 0 0-3.29-1.41c-.05-.014-.066.057-.021.075a12 12 0 0 1 3 1.811c.437.354.849.731 1.262 1.112.202.186.402.372.613.548.118.098.244.185.363.282a1.6 1.6 0 0 0 .357.188.087.087 0 0 0 .126-.097 2.1 2.1 0 0 0-.358-.75m-.162-2.299a9 9 0 0 0-.954-.585 13.6 13.6 0 0 0-2.018-.87c-.05-.018-.085.063-.037.085a13.4 13.4 0 0 1 1.872 1.035c.293.195.58.402.867.607.14.1.275.201.42.292a1.5 1.5 0 0 0 .473.225c.04.007.09-.026.072-.072a1.84 1.84 0 0 0-.695-.717m1.498-1.16a4.4 4.4 0 0 0-.588-.446 9 9 0 0 0-1.29-.669c-.089-.038-.17.086-.078.135a7 7 0 0 1 1.177.782c.179.147.361.29.54.438a5 5 0 0 0 .584.392.059.059 0 0 0 .08-.08 2.2 2.2 0 0 0-.425-.551M200.097 80.084a185 185 0 0 0-5.146 5.147 203 203 0 0 0-2.432 2.568 16 16 0 0 0-2.227 2.801c-.037.064.041.153.107.107a15.6 15.6 0 0 0 2.543-2.338c.823-.894 1.643-1.789 2.45-2.697a187 187 0 0 0 4.76-5.533c.032-.038-.018-.09-.055-.055m-4.738 1.64c-3.071 3.264-6.558 6.215-9.248 9.817-.065.086.063.214.15.15 3.613-2.69 6.389-6.38 9.258-9.807.092-.11-.059-.268-.16-.16m-5.519 2.656c-1.536 1.443-3.146 2.804-4.677 4.256a31 31 0 0 0-4.18 4.548c-.068.098.069.235.167.166a31 31 0 0 0 4.546-4.181c1.451-1.531 2.812-3.142 4.254-4.679a.078.078 0 0 0-.11-.11m-6.99 3.734c-1.935 2.06-3.975 4.023-5.927 6.068-.056.058.02.169.09.116a29.7 29.7 0 0 0 5.91-6.128c.032-.043-.037-.095-.073-.056m-7.708 4.546-1.93 1.771c-.642.59-1.247 1.225-1.855 1.85-.05.05.025.123.078.077.655-.576 1.322-1.147 1.945-1.758q.935-.917 1.867-1.836c.069-.067-.035-.169-.105-.105m63.296-76.329q-1.101-1.21-2.298-2.325a42 42 0 0 0-4.952-3.932c-.043-.03-.1.04-.057.074a56 56 0 0 1 4.714 4.154q1.11 1.088 2.16 2.237a23 23 0 0 0 2.18 2.315.078.078 0 0 0 .124-.094 11.5 11.5 0 0 0-1.87-2.43m-2.034-4.569c-.032-.024-.073.029-.043.055a34 34 0 0 1 4.688 5.012c.031.04.092-.01.068-.052a16.9 16.9 0 0 0-4.713-5.016M71.144 93.726c-.622.564-1.257 1.117-1.865 1.696l-.898.857a6 6 0 0 0-.823.898c-.025.035.024.081.059.059a6 6 0 0 0 .899-.772l.91-.896c.597-.589 1.169-1.205 1.751-1.809a.023.023 0 0 0-.033-.033m-3.194.892L66.524 96c-.477.461-.916.957-1.348 1.46a.047.047 0 0 0 .066.067 22 22 0 0 0 1.44-1.368l1.362-1.447a.066.066 0 0 0-.094-.094m155.78 96.145a7.5 7.5 0 0 0-1.966-3.707 11.3 11.3 0 0 0-3.336-2.34c-.065-.025-.113.086-.048.114a5.53 5.53 0 0 1 2.92 2.934c.553 1.224 1.254 2.414 1.88 3.604a27.5 27.5 0 0 1 2.586 10.155c.002.02.032.02.03 0a57 57 0 0 0-2.067-10.76m6.755 11.919a13 13 0 0 0-.728-1.191c-.245-.381-.433-.807-.704-1.17a5 5 0 0 1-.562-.739 6.4 6.4 0 0 1-.444-1.397 22 22 0 0 1-.444-2.593c-.173-1.603-.126-3.241-.389-4.831a4.9 4.9 0 0 0-.703-2.152c-.514-.65-.982-1.337-1.494-1.99-.046-.06-.146.018-.104.08a5.1 5.1 0 0 1 .66 1.275 10 10 0 0 1 .183 1.174c.158.804.47 1.614.692 2.407a45 45 0 0 1 1.041 4.822 23 23 0 0 0 .52 2.404 7.3 7.3 0 0 1 .312 1.268 3.3 3.3 0 0 0 .186 1.021 5.1 5.1 0 0 0 1.522 2.097c.803.622 1.496 1.362 2.269 2.021a.055.055 0 0 0 .077-.077 12.5 12.5 0 0 1-1.89-2.429m-1.597 3.004a2.5 2.5 0 0 0-.96.14 2.13 2.13 0 0 0-.962.805 4.5 4.5 0 0 0-.726 2.358c-.041.493-.038.987-.073 1.477-.038.537-.08 1.071-.117 1.609-.009.13.187.148.223.03.256-.833.531-1.657.784-2.49a17 17 0 0 1 .636-1.937 1.7 1.7 0 0 1 1.005-1.011 3.7 3.7 0 0 1 .687-.1.59.59 0 0 1 .634.303.078.078 0 0 0 .143-.06 1.475 1.475 0 0 0-1.274-1.124m-56.677 1.98q-2.498 4.21-4.796 8.533a85 85 0 0 0-4.214 8.585c-.018.046.055.075.078.034 1.582-2.8 2.89-5.765 4.381-8.616q2.242-4.284 4.62-8.497a.04.04 0 0 0-.068-.04m-1.779 8.637a90 90 0 0 0-3.778 7.006q-.836 1.741-1.605 3.514a22 22 0 0 0-1.4 3.628.051.051 0 0 0 .092.04 38 38 0 0 0 1.52-3.544q.78-1.833 1.633-3.633c1.12-2.365 2.306-4.7 3.578-6.987a.023.023 0 0 0-.04-.024m-3.258 10.896c-.92 2.435-1.86 4.862-2.65 7.344-.015.044.05.059.067.018.989-2.41 1.829-4.875 2.688-7.333.024-.067-.08-.094-.105-.03m.014 6.473a51 51 0 0 0-.743 2.026c-.228.678-.401 1.38-.575 2.073a.059.059 0 0 0 .113.031c.257-.67.518-1.344.721-2.032.203-.69.379-1.383.552-2.08a.035.035 0 0 0-.068-.019"/></svg>