<svg xmlns="http://www.w3.org/2000/svg" data-name="pufferfish" viewBox="0 0 511.586 379.337"><path fill="currentColor" d="M122.604 180.851c-.285-.293-.522-.629-.802-.92a7.7 7.7 0 0 0-1.12-.811c-.72-.512-1.425-1.043-2.135-1.568-1.49-1.102-2.967-2.205-4.407-3.373-.046-.037-.112.026-.066.067a76 76 0 0 1 3.866 3.698c.625.636 1.255 1.269 1.863 1.922.301.324.581.69.903.99.3.281.703.467 1.034.72 2.88 2.193 5.66 4.529 8.378 6.918.03.026.073-.016.044-.045-2.535-2.516-5.07-5.036-7.558-7.598m1.734-1.964a13.5 13.5 0 0 0-2.001-1.355c-.062-.036-.112.055-.055.095.66.467 1.274.998 1.9 1.51a31 31 0 0 1 1.796 1.58c.051.05.121-.024.077-.078a14.3 14.3 0 0 0-1.717-1.752m30.317 53.143a53 53 0 0 1-6.649-1.712 31 31 0 0 1-3.098-1.278c-.431-.198-.876-.377-1.29-.61a3.2 3.2 0 0 0-.586-.34 1.76 1.76 0 0 1-.878-.376 7.7 7.7 0 0 1-1.438-2.895 41 41 0 0 0-.983-2.652c-.34-.817-.718-1.994-1.564-2.419a7.8 7.8 0 0 1-1.916-1.91 37.5 37.5 0 0 0-4.825-4.43c-.056-.043-.128.052-.075.099a35 35 0 0 1 4.154 4.344 6.9 6.9 0 0 1 1.631 2.492 5.4 5.4 0 0 0 1.573 2.419 24 24 0 0 1 1.909 2.428 15 15 0 0 1 1.344 2.855 3.9 3.9 0 0 0 .414 1.167 3.45 3.45 0 0 0 1.254.782 12 12 0 0 0 3.026.633c2.68.347 5.326.973 7.987 1.44.025.005.035-.032.01-.037m18.043-23.145c-3.087-.887-6.333-1.862-8.85-3.95-.615-.509-.96-1.196-1.527-1.74-.259-.25-.581-.43-.832-.689a6.3 6.3 0 0 1-.809-1.202 21.2 21.2 0 0 0-2.857-4.113c-.067-.069-.17.034-.105.105 1.3 1.424 1.62 3.317 2.454 5.003a8.8 8.8 0 0 0 1.224 2.2 10.2 10.2 0 0 0 1.967 1.356c2.78 1.762 6.127 2.47 9.31 3.12a.047.047 0 0 0 .025-.09m181.803 95.465a21.6 21.6 0 0 0-7.695-2.27c-.026-.003-.032.042-.006.046a35.4 35.4 0 0 1 7.668 2.303c.045.018.076-.056.033-.079m-66.216 14.798c.09.006.181.027.272.043a3 3 0 0 1-.259-.09.025.025 0 1 0-.013.047m1.901.544c.472.159.936.337 1.4.518-.33-.128-.654-.266-.986-.382-.137-.048-.276-.09-.414-.136"/><path fill="currentColor" d="M288.557 319.19c.322.114.668.193.987.291.215.066.428.14.642.211l-.02-.007a11.4 11.4 0 0 0-1.61-.494m3.029 1.019q.234.088.466.18l-.107-.047c-.118-.048-.24-.086-.359-.133m.466.18q.735.305 1.452.647c-.337-.158-.669-.33-1.012-.476-.145-.062-.294-.11-.44-.17m1.749.786-.297-.14z"/><path fill="currentColor" d="M432.2 166.123a40 40 0 0 0-8.193-9.76 28 28 0 0 0-11.412-6.075c-1.741-.458-3.511-.819-5.283-1.152-.197-.363-.382-.733-.576-1.099a8.2 8.2 0 0 0-1.129-1.63c-.815-.925-1.666-1.823-2.513-2.718a68 68 0 0 0-5.445-5.141 53.5 53.5 0 0 0-6.088-4.448c-.516-.324-1.028-.656-1.546-.976-.563-.346-1.168-.525-1.727-.884-.187-.12-.36-.256-.542-.381a41 41 0 0 1-2.971-7.883c-1.084-3.6-2.004-7.253-3.406-10.75a93.4 93.4 0 0 0-8.409-15.464.175.175 0 0 0 .12-.26 34.4 34.4 0 0 1-3.633-7.304c-.949-2.56-1.85-5.15-2.629-7.766-1.67-5.615-2.894-11.363-4.321-17.043-3.099-12.33-6.631-24.576-10.423-36.71q-1.606-5.139-3.275-10.258c-1.088-3.339-2.217-6.69-3.583-9.925-.016-.038-.073-.01-.064.027.716 3.131 1.615 6.239 2.53 9.318q1.374 4.63 2.686 9.28 2.604 9.177 5.062 18.395 2.442 9.224 4.717 18.491c1.425 5.842 2.734 11.732 4.35 17.524a58 58 0 0 0 2.05 6.245c-.868-1.365-1.732-2.732-2.61-4.09-1.405-2.167-2.971-4.208-4.434-6.332-.028-.041-.094-.005-.068.04 1.155 1.969 2.167 4.019 3.34 5.98q1.76 2.938 3.501 5.887 3.481 5.91 6.673 11.973c1.024 1.959 2.2 3.84 3.256 5.783 1.044 1.924 2.043 3.876 2.907 5.889 1.515 3.53 2.427 7.268 3.7 10.884a32.6 32.6 0 0 0 2.445 5.647c.203.348.423.684.644 1.02-.213-.179-.433-.347-.64-.532-1.044-.93-2.028-1.924-2.999-2.928-.966-1-2.005-1.953-2.929-2.991-.038-.043-.115.015-.08.061.72.956 1.33 1.99 2.064 2.94a46 46 0 0 0 2.412 2.892 37 37 0 0 0 2.575 2.556c.47.422.959.82 1.452 1.216a19 19 0 0 0 1.471 1.253 72 72 0 0 1 6.164 4.311c1.971 1.599 3.804 3.342 5.617 5.114.989.966 1.972 1.938 2.935 2.929a9 9 0 0 0 1.561 1.405l.298.18c-1.024-.17-2.05-.164-3.069-.365a27 27 0 0 1-3.078-.774 22 22 0 0 1-3.05-1.25c-.03-.014-.065.025-.037.05a15.2 15.2 0 0 0 5.025 2.908q.65.243 1.31.458c.515.168.984.428 1.491.616a20 20 0 0 0 3.075.67c4.207.82 8.309 1.817 11.953 4.167a36.2 36.2 0 0 1 8.565 8.116c2.444 3.092 4.565 6.713 5.084 10.683a11.55 11.55 0 0 1-2.775 9.542c-2.767 2.829-7.066 3.32-10.81 3.63-8.34.688-17.003-.538-24.173-5.074-.085-.053-.166-.112-.25-.166a.4.4 0 0 0-.173-.115 26.6 26.6 0 0 1-7.596-7.415 41.4 41.4 0 0 1-4.963-11.484c-.286-.985-.586-1.965-.876-2.948-.05-.168-.325-.144-.314.042a33.2 33.2 0 0 0 3.128 12.7 23 23 0 0 0 1.292 2.286c-.177-.086-.356-.164-.529-.26a16.3 16.3 0 0 1-3.86-3.003 24.8 24.8 0 0 1-3.172-4.322c-.467-.767-.9-1.553-1.347-2.331-.468-.813-1.003-1.574-1.492-2.372-.06-.098-.236-.035-.193.081.326.863.59 1.733.972 2.578.4.888.845 1.756 1.315 2.609a28 28 0 0 0 3.183 4.63 18 18 0 0 0 2.383 2.318 13.7 13.7 0 0 0-4.307.138c-2.126.424-3.75 1.77-5.706 2.597a24.8 24.8 0 0 1-6.213 1.547 38.4 38.4 0 0 1-6.268.356 36.83 36.83 0 0 1-22.25-8.052 36.4 36.4 0 0 1-4.458-4.312 41 41 0 0 1-3.997-5.155.05.05 0 0 0-.088.051 34 34 0 0 0 2.957 4.983 33 33 0 0 0 3.755 4.177 37.3 37.3 0 0 0 8.39 6.003c-.496-.14-.993-.278-1.485-.436a52 52 0 0 1-3.88-1.443 40.4 40.4 0 0 1-7.463-3.859c-.034-.023-.063.03-.032.054a42 42 0 0 0 7.18 4.552 35 35 0 0 0 3.748 1.5c.688.234 1.383.455 2.084.645a5.6 5.6 0 0 0 2.03.141.12.12 0 0 0 .082-.049 37.28 37.28 0 0 0 24.069 1.952 18.5 18.5 0 0 0 3.542-1.315c1.076-.538 2.08-1.203 3.173-1.71 2.007-.928 4.203-1.053 6.337-1.488.094.061.183.13.278.19a8.1 8.1 0 0 0 2.855 1.22 28 28 0 0 0 2.173 2.402c.456.6.916 1.196 1.367 1.8q1.064 1.426 2.078 2.89c.338.488.67.98 1.008 1.469a9 9 0 0 0 .632.869q.028.386.053.77.075 1.268.125 2.537a66 66 0 0 0-4.451-6.529 69 69 0 0 0-6.192-7.367c-.034-.035-.08.016-.052.052 2.015 2.558 4.067 5.1 5.996 7.726 1.639 2.23 3.1 4.594 4.721 6.835.024.716.046 1.431.055 2.147.02 1.758-.003 3.516-.052 5.274a98.3 98.3 0 0 0-10.288-15.422c-.01-.012-.03.004-.022.017 3.658 5.082 6.92 10.425 10.302 15.69a269 269 0 0 1-.216 5.272c-.353 7.18-.773 14.36-.904 21.549a238 238 0 0 0 .011 7.737 125 125 0 0 0-.76-5.174 33.5 33.5 0 0 0-1.851-7.505c-.06-.141-.29-.067-.284.077.102 2.26.575 4.508.862 6.751.29 2.27.53 4.545.731 6.824.201 2.273.452 4.57.445 6.852-.006 2.312.36 4.663.565 6.964a21.5 21.5 0 0 1 .096 6.441c-.458 2.088-1.964 3.6-3.177 5.28a67 67 0 0 0-6.265 11.323c-.303.656-.596 1.317-.893 1.975q.356-1.232.716-2.463c.497-1.69.982-3.342 1.32-5.07.035-.173-.221-.313-.306-.13-1.4 3.042-2.397 6.27-3.536 9.42-1.147 3.175-2.229 6.373-3.356 9.554-2.265 6.394-4.28 12.878-6.368 19.332a55 55 0 0 1-3.186 8.76 33.4 33.4 0 0 1-5.519 6.942c-3.894 4.178-7.96 8.211-11.545 12.665a58 58 0 0 0-4.95 7.065c-1.48 2.532-2.393 5.471-4.676 7.423-1.188 1.015-2.502 1.894-3.76 2.817l-4.02 2.947-8.242 6.041c-2.666 1.955-5.323 3.925-8.002 5.863a23.4 23.4 0 0 1-7.66 4.108 8.98 8.98 0 0 1-6.872-.812 6.82 6.82 0 0 1-2.936-6.108 24.5 24.5 0 0 1 1.729-7.767 49 49 0 0 1 3.558-8.097c2.684-4.741 6.578-8.873 11.722-10.901 1.224-.483 2.411-1.062 3.647-1.514a.295.295 0 0 0-.078-.576 13 13 0 0 0-1.676-.055 44 44 0 0 0 2.01-2.337c1.887-2.346 3.703-4.753 5.524-7.152q2.775-3.656 5.543-7.318c1.758-2.333 3.425-4.794 5.362-6.983a13 13 0 0 1 3.55-2.855c.636-.347 1.347-.594 1.957-.985a3.7 3.7 0 0 0 .768-.701c.048-.053.107-.095.16-.143a5 5 0 0 0 1.709-.053 10 10 0 0 1 2.434.057 16 16 0 0 1 4.934 1.069.066.066 0 0 0 .067-.115 14.7 14.7 0 0 0-4.832-1.962c-.828-.215-1.658-.455-2.495-.634a2.88 2.88 0 0 0-2.175.144 7.7 7.7 0 0 0-1.886.612c-.069.035-.127.084-.192.122a3 3 0 0 1-.064-.49 11 11 0 0 1 .415-2.647q.248-1.076.489-2.153c2.929 1.649 5.843 3.335 8.838 4.862a.018.018 0 0 0 .018-.03c-2.896-1.715-5.884-3.277-8.847-4.872.351-1.557.7-3.116 1.073-4.669a137 137 0 0 1 3.849-13.375c.416-1.187.836-2.371 1.294-3.543.3-.768.632-1.548.907-2.34.547-.824 1.095-1.64 1.612-2.459a40.6 40.6 0 0 1 7.393-.183c1.27.09 2.531.242 3.797.368 1.402.14 2.824.23 4.211.485a.04.04 0 0 0 .02-.075c-1.223-.356-2.427-.751-3.666-1.058a29 29 0 0 0-3.41-.577c-1.886-.23-3.78-.355-5.676-.44a17 17 0 0 1 2.542-.453 84 84 0 0 1 10.168-.073.043.043 0 0 0 .011-.084 34.2 34.2 0 0 0-8.121-.573c-1.41.041-2.824.083-4.23.166a12 12 0 0 1-1.951-.012 7.3 7.3 0 0 0-2.144.112 1.44 1.44 0 0 1-1.333-.356c-.43-.301-.88-.58-1.325-.855a7.4 7.4 0 0 1-2.098-2.322 16.4 16.4 0 0 1-2.24-5.759 13.74 13.74 0 0 1 .48-7.094c.012-.034-.04-.046-.052-.014a15.22 15.22 0 0 0 .5 12.5 19 19 0 0 0 1.78 2.858 10.6 10.6 0 0 0 2.117 2.486 3.03 3.03 0 0 0 1.488.543l-.065.115a30 30 0 0 0-1.636 3.098 18.4 18.4 0 0 0-1.302 4.11 34 34 0 0 1-1.266-3.017c-.016-.042-.083-.024-.068.019a27 27 0 0 0 1.322 3.065c-.055.29-.114.58-.157.876-.326.775-.62 1.563-.916 2.351-.252-.793-.543-1.579-.811-2.355a142 142 0 0 0-1.382-3.799c-.006-.016-.032-.01-.027.007a275 275 0 0 1 1.318 3.894c.276.828.52 1.68.801 2.513a89 89 0 0 0-1.33 3.828c-1.521 4.75-2.832 9.594-3.968 14.45a8.8 8.8 0 0 0-.268 3.239 3 3 0 0 0 .197.758 14.2 14.2 0 0 0-2.532 1.828 48 48 0 0 0-5.486 6.79c-3.73 4.947-7.496 9.875-11.13 14.893q-1.352 1.865-2.719 3.717c-.335.456-.693.894-1.05 1.333-.091.03-.185.044-.275.077a20.7 20.7 0 0 0-3.751 1.816 24 24 0 0 0-5.995 5.31c-1.685-.687-3.1-1.896-4.808-2.558a13.3 13.3 0 0 0-5.503-.85c-.01 0-.01.015 0 .015a13.8 13.8 0 0 1 5.715 1.062 16 16 0 0 1 2.471 1.347 8.5 8.5 0 0 0 2.073 1.045c-.081.1-.173.194-.253.296a36.7 36.7 0 0 0-4.624 7.824 55 55 0 0 0-3.015 8.376 16.3 16.3 0 0 0-.525 7.033c-1.604 1.13-3.09 2.41-4.575 3.694l-4.84 4.188c-2.626 2.286-5.382 5.213-8.925 5.953a7.556 7.556 0 0 1-8.184-4.368c-1.664-3.512-.267-7.252 1.162-10.578a64.1 64.1 0 0 1 11.94-18.354c2.454-2.636 5.14-5.26 8.444-6.797 1.663-.773 3.46-1.227 5.049-2.163.04-.025.077-.056.117-.08q.4.033.793.091a2 2 0 0 1 .559.322c.013.01.032-.007.02-.02a2.2 2.2 0 0 0-.346-.258 13.2 13.2 0 0 1 5.628 2.47c.027.02.06-.024.036-.046a10.82 10.82 0 0 0-6.446-2.726 28.5 28.5 0 0 0 4.148-3.62l9.128-8.82a52 52 0 0 1 4.456-4.145 16.1 16.1 0 0 1 4.937-2.42 18 18 0 0 1 2.66-.59c.127-.02.117-.222 0-.25a9.7 9.7 0 0 0-4.222.002q-.026-.112-.048-.224l-.002-.016-.009-.086q-.006-.07-.009-.14c-.002-.04.002-.079.001-.118a15 15 0 0 0 .854-3.03q.5-2.11.994-4.22c.644-2.73 1.233-5.48 2.063-8.161 1.508-4.873 4.112-9.285 5.95-14.026a23.5 23.5 0 0 0 1.27-4.002 12 12 0 0 0 .208-1.632l.948-2.498q.258-.688.505-1.381a4.4 4.4 0 0 1 .448-1.169c.208-.26.683-.327.992-.42.384-.115.772-.233 1.163-.322a11 11 0 0 1 2.599-.205 16 16 0 0 1 2.508.25c.87.15 1.763.241 2.627.408a.07.07 0 0 0 .054-.129 8.3 8.3 0 0 0-2.45-1.116 13 13 0 0 0-1.357-.254 21 21 0 0 1 5.791.318c.03.006.042-.037.013-.045a32 32 0 0 0-6.338-.706 23 23 0 0 0-3.273.1c-.491.043-.975.046-1.467.1a2.1 2.1 0 0 1-.891.014 3.4 3.4 0 0 1-.651-.374 29 29 0 0 1-2.26-1.596c-.374-.287-.746-.576-1.132-.848a5.4 5.4 0 0 0-1.167-.78 6 6 0 0 1-.654-.197 3.3 3.3 0 0 1-.495-.316 14 14 0 0 1-1.192-.985 29 29 0 0 1-1.879-1.922 20.4 20.4 0 0 0-3.841-4.93c-.036-.056-.076-.11-.111-.167-.016-.025-.048-.004-.04.022a32 32 0 0 0-1.686-1.492 52 52 0 0 0-3.845-2.86q-.699-.825-1.42-1.62-.636-.705-1.282-1.4a33 33 0 0 0-.772-.811.3.3 0 0 0 .042-.095 13 13 0 0 0 2.754.425c1.225 1.481 2.45 2.963 3.697 4.426.013.015.034-.007.022-.023-1.217-1.48-2.456-2.94-3.694-4.402.186.007.372.018.56.016a11.73 11.73 0 0 0 7.69-2.947 8.97 8.97 0 0 0 3.033-7.145 13.55 13.55 0 0 0-3.371-7.55 47.6 47.6 0 0 0-6.518-6.218q-3.811-3.225-7.685-6.376c-.896-.728-1.8-1.449-2.703-2.17a4 4 0 0 0-.018-.607c-.072-.691-.191-1.374-.301-2.06q-.31-1.934-.61-3.87-.58-3.746-.95-7.519a121 121 0 0 1-.55-15.395 94 94 0 0 1 1.678-15.309q.74-3.755 1.828-7.43c.742-2.498 1.684-4.925 2.496-7.399a23.9 23.9 0 0 0 1.4-8.127 13 13 0 0 0-.642-3.744 10 10 0 0 0-.581-1.383 13.6 13.6 0 0 1 2.772 3.376c.082.154.345.048.286-.12a19.8 19.8 0 0 0-2.744-4.992 24 24 0 0 1-3.221-4.886 24 24 0 0 1-.954-3.588 27 27 0 0 0-.995-3.366 45 45 0 0 0-2.994-6.326c-2.445-4.386-5.068-8.68-7.627-13q-3.97-6.698-7.97-13.378c-1.334-2.234-2.595-4.54-4.073-6.684a14.7 14.7 0 0 0-2.2-2.565q-.32-.288-.661-.548c.79-.431 1.56-.898 2.32-1.38a18.3 18.3 0 0 0 .215 3.543c.003.02.037.015.035-.004a28 28 0 0 1-.183-3.582c.554-.353 1.082-.746 1.62-1.125a47.6 47.6 0 0 0 .407 7.947c.005.03.056.024.054-.007-.185-2.666-.331-5.329-.378-7.998.72-.51 1.421-1.046 2.108-1.599-.049 1.862-.113 3.723-.119 5.586a29.3 29.3 0 0 0 .66 7.457c.008.03.05.016.045-.013a53 53 0 0 1-.573-7.683c.005-1.804.063-3.608.073-5.411q.927-.752 1.81-1.555a96.3 96.3 0 0 0 1.048 17.694c.004.024.046.019.043-.005a133 133 0 0 1-1.043-17.734 39.8 39.8 0 0 0 10.781-16.13c1.59-4.535 2.16-10.121-1.38-13.915a8.37 8.37 0 0 0-5.544-2.733c-2.315-.128-4.17 1.135-5.91 2.5a61 61 0 0 1-13.142 7.914 59 59 0 0 1-14.459 4.21c-5.252.827-10.597.678-15.855 1.457a29.6 29.6 0 0 0-7.75 2.19 70 70 0 0 0-7.093 3.92 84 84 0 0 1-14.481 6.81 101 101 0 0 1-15.43 4.148c-5.266.99-10.744 1.161-15.39 4.118-4.349 2.768-7.92 6.711-11.83 10.037a156 156 0 0 1-13.126 10.08c-4.456 3.04-9.219 5.623-14.63 6.387a55 55 0 0 1-7.722.36c-1.522-.614-3.093-1.12-4.635-1.666a24.3 24.3 0 0 1-7.224-4.105 54.6 54.6 0 0 1-5.91-5.84c-2.07-2.3-4.13-4.61-6.11-6.986a88.7 88.7 0 0 1-9.829-14.696 606 606 0 0 1-3.542-6.668 99 99 0 0 1-.71-2.476c-.745-2.746-1.417-5.51-2.139-8.26q-2.2-8.385-4.368-16.779a331 331 0 0 0-4.792-16.695 153 153 0 0 0-5.914-15.942A73.3 73.3 0 0 0 68.22.015c-.033-.042-.1.012-.073.057a129 129 0 0 1 7.88 15.062 142 142 0 0 1 5.74 16.085c1.986 6.664 3.584 13.434 5.256 20.183a30.4 30.4 0 0 0-8.841-3.785.02.02 0 0 0-.01.038 52 52 0 0 1 8.887 3.893c.266 1.074.53 2.15.802 3.223a24.4 24.4 0 0 0-3.02-1.828 27 27 0 0 0-4.465-1.825c-.014-.005-.02.017-.006.022a34 34 0 0 1 4.456 1.977c1.073.57 2.083 1.229 3.096 1.89q.354 1.392.718 2.783a40 40 0 0 0-1.929-1.211 42 42 0 0 0-3.193-1.683q-1.234-1.736-2.58-3.408c-.08-.1-.25.03-.178.137 1.629 2.425 3.094 4.994 4.528 7.538a133 133 0 0 1 3.97 7.643c2.532 5.26 4.75 10.673 7.442 15.852a91 91 0 0 0 9.587 14.959c2.01 2.51 4.146 4.915 6.283 7.317q1.421 1.599 2.892 3.155.09 1.678.206 3.353.079 1.185.166 2.372c.043.567.122 1.154.13 1.734-.267-.026-.535-.046-.801-.075-.07-.008-.085.107-.017.122.272.06.544.112.816.17a5 5 0 0 1-.037.527c-.007.052.064.095.093.04a1.9 1.9 0 0 0 .171-.52c.67.143 1.341.288 2.013.42-.005.09-.02.147-.052.14a.043.043 0 0 0-.042.071c.157.19.274.029.342-.162 1.7.33 3.405.622 5.13.833 2.816.346 5.642.77 8.47 1a50 50 0 0 0 3.458.159c.225.082.45.157.671.25a.183.183 0 0 0 .247-.245 30.2 30.2 0 0 0 11.6-2.201c4.747-2 8.978-5.053 13.089-8.113q6.63-4.935 12.761-10.494a53 53 0 0 1 7.758-6.338 4.7 4.7 0 0 0-.582.946c-.61 1.412 0 2.798.232 4.222.506 3.105.524 6.363 1.71 9.319a.211.211 0 0 0 .412-.056 1.17 1.17 0 0 1 .752-1.067.24.24 0 0 0 .163-.287 23.8 23.8 0 0 1-.942-7.071 23 23 0 0 1 .345-3.53q.157-.889.384-1.764c.153-.588.42-1.13.578-1.713.101-.373-.422-.49-.561-.155a13 13 0 0 0-.47 1.743q-.242.929-.406 1.875a24 24 0 0 0-.347 3.544 23.2 23.2 0 0 0 .924 7.022 1.56 1.56 0 0 0-.69.753 16 16 0 0 1-1.059-3.812 74 74 0 0 1-.656-4.82 18 18 0 0 1-.094-2.252 4.34 4.34 0 0 1 .41-2.199c.255-.445.554-.837.816-1.242a16.5 16.5 0 0 1 3.55-1.427c2.654-.708 5.414-.952 8.115-1.41q3.863-.658 7.673-1.588a95.6 95.6 0 0 0 15.074-5.035q3.59-1.548 7.024-3.426c2.28-1.251 4.468-2.66 6.744-3.92a30.2 30.2 0 0 1 5.518-2.41 13 13 0 0 0-.87 1.656 6.6 6.6 0 0 0-.562 1.903 10.5 10.5 0 0 0 .16 2.354c.207 1.603.35 3.213.547 4.817.202 1.64.51 3.275.655 4.92a.103.103 0 0 0 .19.051 5.9 5.9 0 0 1 2.018-2.226.194.194 0 0 0 .07-.264 8 8 0 0 1-1.405-2.894 10.7 10.7 0 0 1-.033-3.778c.185-1.276.49-2.535.767-3.794l.41-1.86a2.54 2.54 0 0 0 .12-1.439 51 51 0 0 1 7.882-.992 89.6 89.6 0 0 0 15.073-1.842 61 61 0 0 0 11.322-3.944c-.061.18-.118.365-.169.534a6.1 6.1 0 0 0-.255 2.723.055.055 0 0 0 .105 0c.138-.7.24-1.408.379-2.11q.101-.521.241-1.035l.079-.284c.237-.11.48-.209.716-.323a6 6 0 0 0-.558 1.624 3.6 3.6 0 0 0-.042 1.053 4.6 4.6 0 0 0 .412 1.099c.18.432.625 1.254 1.234 1.047a2 2 0 0 0 .414-.296 6 6 0 0 1 .755-.405q.689-.342 1.36-.718a55 55 0 0 0 5.017-3.337c.36-.256.795-.416 1.132-.701a1.64 1.64 0 0 0 .504-1c.174-.937.222-1.877.469-2.805a14 14 0 0 1 1.16-2.969c.045-.086.098-.167.147-.251a9.3 9.3 0 0 1 1.919-1.188 5.44 5.44 0 0 1 5.713 1.236 8.23 8.23 0 0 1 2.624 6.126c.11 4.73-2.183 9.562-4.63 13.497a39.2 39.2 0 0 1-19.86 16.1c-4.93 1.759-10.166 2.083-15.209 3.377a79.2 79.2 0 0 0-15.13 6.1c-2.653 1.307-5.298 2.635-7.944 3.958-.003-.005-.002-.012-.007-.015a3 3 0 0 0-1.107-.251q-.557-.09-1.113-.193l-2.403-.446c-1.605-.297-3.21-.58-4.821-.839-.042-.007-.06.055-.018.064 1.626.337 3.256.646 4.89.942l2.406.437q.6.11 1.198.236a3 3 0 0 0 .847.13c-1.186.593-2.376 1.176-3.56 1.773-1.059-.182-2.104-.582-3.129-.84a34 34 0 0 0-3.915-.714c-.016-.002-.02.024-.004.027 1.396.27 2.777.612 4.146.994a22 22 0 0 0 2.544.713c-.939.474-1.881.942-2.818 1.419-.665-.146-1.336-.267-2-.404-1.048-.216-2.099-.42-3.148-.634l.247-.361c.06-.091-.068-.169-.141-.11-.158.129-.308.267-.461.4l-.014-.003c-.012-.003-.006.01-.005.019a31.4 31.4 0 0 0-5.6 6.867 47 47 0 0 0-3.159 5.833c-.268.496-.531.997-.798 1.5a.29.29 0 0 0 .014.306c-.127.308-.264.612-.386.923a44.5 44.5 0 0 0-2.509 9.159 37.7 37.7 0 0 0-.537 9.411c.02.21.051.422.077.632a36 36 0 0 1-.458-2.443c-.238-1.6-.429-3.206-.772-4.789a16.7 16.7 0 0 0-1.512-4.136.031.031 0 0 0-.057.024c1.637 6.002.634 12.516 3.338 18.245a25.5 25.5 0 0 0 5.195 6.89c2.224 2.236 4.63 4.295 7.001 6.37 5.1 4.464 10.285 8.85 15.617 13.034a39.7 39.7 0 0 0 7.991 5.145c2.821 1.278 5.738 2.223 8.07 4.35 1.104 1.008 2.098 2.127 3.154 3.185a35 35 0 0 0 3.493 3.036 79 79 0 0 0 7.768 5.047q8.446 5.009 16.538 10.571a391 391 0 0 1 30.986 24.011 36.7 36.7 0 0 1 6.09 6.06c1.53 2.096 2.765 4.684 2.226 7.341a7.91 7.91 0 0 1-4.554 5.408c-2.575 1.235-5.595 1.09-8.339.603-.334-.06-.661-.152-.992-.226a22 22 0 0 0-1.167-.68c-.263-.146-.534-.276-.798-.419a.03.03 0 0 0-.007-.03 15.2 15.2 0 0 1-4.562-4.71 2.575 2.575 0 0 1 .474-2.892 31 31 0 0 1 2.366-2.76c1.298-1.405 2.698-3.043 4.613-3.593 2.106-.604 3.98.96 5.434 2.278a20.7 20.7 0 0 1 2.342 2.503c.705.892 1.249 1.9 1.97 2.776.069.083.212-.006.18-.105a10.2 10.2 0 0 0-1.714-2.876 21 21 0 0 0-2.327-2.601c-1.493-1.413-3.433-3.174-5.65-2.827-2.176.342-3.612 2.28-4.88 3.907-.824 1.057-1.67 2.125-2.59 3.101a3.27 3.27 0 0 0-1.254 2.603c.17 1.25 1.22 1.983 2.11 2.74a28 28 0 0 0 3.223 2.344c-.854-.457-1.706-.916-2.572-1.348q-3.744-1.866-7.63-3.423-3.816-1.534-7.747-2.755c-2.742-.851-5.548-1.505-8.257-2.464-5.162-1.827-9.512-5.278-14.09-8.182-4.803-3.047-9.788-5.79-14.856-8.37-2.854-1.452-5.766-2.793-8.7-4.075-1.41-.615-2.83-1.245-4.262-1.842a32 32 0 0 0 3.802-.073.16.16 0 0 0 0-.32 23.6 23.6 0 0 1-6.248-.98 60 60 0 0 1-5.874-2.204 80 80 0 0 1-11.215-5.857c-3.669-2.22-7.309-4.44-10.834-6.887q-5.298-3.678-10.352-7.7-2.783-2.214-5.499-4.512c-1.865-1.588-3.794-3.109-5.643-4.71a.059.059 0 0 0-.083.083c1.49 1.598 2.93 3.212 4.526 4.712.484.455.975.903 1.463 1.353-.133-.086-.262-.178-.4-.26-1.263-.74-2.574-1.434-3.864-2.13-2.597-1.404-5.242-2.688-7.925-3.918-.045-.02-.083.041-.04.067a507 507 0 0 1 7.44 4.512c1.222.75 2.44 1.496 3.634 2.29a26 26 0 0 0 3.924 1.93c.203.179.403.362.607.539.11.095.226.184.336.279 1.87 4.538 3.774 9.079 5.881 13.51.016.034.075.01.06-.026-1.788-4.517-3.79-8.963-5.817-13.38q2.175 1.866 4.41 3.656 3.067 7.691 6.181 15.364c.013.032.065.02.053-.015a203 203 0 0 0-6.07-15.214q1.92 1.54 3.887 3.02a141 141 0 0 0 5.98 15.019c.017.036.08.01.065-.027q-2.874-7.436-5.843-14.838c.348.261.69.528 1.04.787q1.142.843 2.296 1.675 1.346 3.638 2.705 7.27c1.002 2.691 1.922 5.418 3.013 8.073.017.04.08.027.068-.018-.773-2.8-1.808-5.531-2.83-8.248q-1.331-3.539-2.85-7a182 182 0 0 0 8.445 5.771 78 78 0 0 0 11.364 6.167 28.4 28.4 0 0 0 7.144 1.963c.052.03.106.056.158.086a.45.45 0 0 0 .144.302 18 18 0 0 0 2.126 1.951q1.2.863 2.405 1.722c1.535 1.097 3.1 2.154 4.654 3.224 2.916 2.009 5.83 4.022 8.774 5.99a133 133 0 0 0 18.358 10.606c6.64 3.044 13.683 4.867 20.558 7.265a87.3 87.3 0 0 1 18.906 9.256c4.83 3.146 10.544 7.196 11.732 13.249a10.45 10.45 0 0 1-1.014 6.962 7.11 7.11 0 0 1-6.487 3.665c-.299 0-.595-.024-.89-.044a8.6 8.6 0 0 0 3.996-3.417 9.4 9.4 0 0 0 1.204-2.691 7.4 7.4 0 0 0 .273-2.985c-.045-.282-.453-.19-.472.064a12 12 0 0 1-.388 2.759 9.7 9.7 0 0 1-1.2 2.513 9.6 9.6 0 0 1-1.805 2.03 15.7 15.7 0 0 1-2.398 1.524.2.2 0 0 0-.098.12 33 33 0 0 1-3.333-.627c-1.782-.41-3.564-.811-5.359-1.162l-.144-.027a9.8 9.8 0 0 1-2.023-1.43 3.18 3.18 0 0 1-.604-2.645 11.36 11.36 0 0 1 1.594-5.178 9.2 9.2 0 0 1 3.965-3.839 4.48 4.48 0 0 1 3.202.23 22 22 0 0 1 2.833 1.223 28 28 0 0 1 5.518 3.76.012.012 0 0 0 .016-.017 20 20 0 0 0-5.308-4.13 24 24 0 0 0-2.928-1.313 5.6 5.6 0 0 0-3.297-.558c-1.895.485-3.508 2.308-4.526 3.89a12.03 12.03 0 0 0-1.905 5.836 3.8 3.8 0 0 0 .69 2.97 5.5 5.5 0 0 0 1.433.954q-4.743-.87-9.54-1.399c-3.754-.41-7.517-.625-11.29-.747a57.4 57.4 0 0 1-10.774-1.019 43.6 43.6 0 0 1-9.893-3.97q-5.223-2.622-10.451-5.233c-6.833-3.413-13.685-6.769-20.63-9.947l-3.28-1.502q.614-.015 1.235-.024a14.74 14.74 0 0 1 7.263 1.282.149.149 0 0 0 .15-.256c-3.651-2.312-8.134-2.188-12.274-2.704a32.5 32.5 0 0 1-12.358-4.55c-4.113-2.413-8.007-5.21-12.004-7.805-4.294-2.789-8.568-5.606-12.851-8.409q-3.657-2.393-7.323-4.77-1.779-1.157-3.565-2.302c-1.259-.806-2.594-1.497-3.893-2.237-.066-.038-.15.06-.085.11 1.978 1.573 3.955 3.104 6.023 4.559l.5.351c-.29-.138-.58-.275-.876-.4-.622-.261-1.277-.43-1.92-.628-1.356-.417-2.713-.825-4.054-1.288-1.3-.45-2.589-.936-3.891-1.382-1.445-.494-2.892-.943-4.296-1.548-.05-.022-.094.049-.044.074 1.299.646 2.556 1.375 3.862 2.005 1.273.613 2.585 1.142 3.906 1.642 1.328.503 2.66 1.005 4.012 1.438a15.5 15.5 0 0 0 2.163.606c.685.114 1.373.157 2.063.228a.12.12 0 0 0 .093-.031l4.829 3.395q6.346 4.461 12.711 8.895c4.017 2.81 7.99 5.695 12.146 8.298 3.737 2.34 7.87 4.561 12.28 5.239a26 26 0 0 0 4.21.242c6.78 3.711 13.563 7.396 20.467 10.876l10.658 5.37c3.35 1.68 6.667 3.484 10.146 4.886 7.068 2.848 14.763 2.264 22.214 2.797.574.041 1.146.094 1.718.143.817.243 1.63.497 2.424.8a26.5 26.5 0 0 1 5.077 2.586 21.94 21.94 0 0 1 7.633 8.32c1.581 3.146 2.043 7.94-1.397 10.114a6.13 6.13 0 0 1-3.56.837c.078-.057.16-.112.231-.171a5.36 5.36 0 0 0 1.358-1.962 24 24 0 0 0 .883-2.248 5.85 5.85 0 0 0 .39-2.456.02.02 0 0 0-.04 0 10 10 0 0 1-.173 1.18 7 7 0 0 1-.407 1.11c-.295.68-.66 1.333-1.022 1.98a7.6 7.6 0 0 1-1.256 1.722 3.9 3.9 0 0 1-1.131.735q-.54-.074-1.063-.183c-2.205-.461-4.362-1.175-6.534-1.768q-1.395-.378-2.794-.739a4.6 4.6 0 0 1-1.047-1.73 6.2 6.2 0 0 1-.38-1.807 7.42 7.42 0 0 1 4.288-6.25 7.7 7.7 0 0 1 3.493.09 13.8 13.8 0 0 1 2.927.96 14.7 14.7 0 0 1 5.185 3.765l.003-.003a15.2 15.2 0 0 0-9.834-5.608 4.27 4.27 0 0 0-4.343 1.966 14.3 14.3 0 0 0-2.04 5.48 3.6 3.6 0 0 0 .506 2.73c.029.044.063.071.092.113-3.257-.822-6.536-1.557-9.849-2.12a89 89 0 0 0-7.14-.931c-2.357-.206-4.717-.228-7.08-.341a28 28 0 0 1-6.915-1.226c-2.313-.703-4.608-1.473-6.91-2.214-4.436-1.43-8.874-2.854-13.3-4.314-4.23-1.396-8.443-2.869-12.584-4.514-3.643-1.446-7.17-3.105-10.689-4.81a13 13 0 0 1 5.919 1.924c.156.106.35-.14.204-.264-2.965-2.483-6.685-3.123-10.368-3.821l-.223-.12a.34.34 0 0 0-.361.007 25.3 25.3 0 0 1-5.251-1.425 27.7 27.7 0 0 1-5.532-3.342c-1.812-1.348-3.544-2.802-5.321-4.195q-2.766-2.167-5.522-4.347c-3.732-2.959-7.441-5.948-11.085-9.015q-3.048-2.566-6.03-5.21c-2.019-1.796-4.083-3.53-6.131-5.29a.063.063 0 0 0-.089.087 114 114 0 0 0 4.98 5.27c-.827-.406-1.657-.81-2.48-1.226-2.066-1.045-4.182-2-6.228-3.081a.035.035 0 0 0-.035.06 67 67 0 0 0 5.922 3.832 65 65 0 0 0 3.067 1.609 12.4 12.4 0 0 0 1.625.627c4.481 4.304 9.23 8.351 13.948 12.362 3.571 3.036 7.144 6.077 10.817 8.988 3.377 2.676 6.917 4.997 11.208 5.842a36 36 0 0 0 4.221.482c7.116 4.662 15.135 7.853 23.134 10.65 4.521 1.581 9.09 3.023 13.649 4.491l7.323 2.358a55 55 0 0 0 3.283.954 8 8 0 0 1 .403 2.177 8 8 0 0 1-.06 1.048c-.116.376-.24.75-.373 1.106a7.6 7.6 0 0 1-1.301 2.213 10.48 10.48 0 0 1-5.643 3.505c.125-.102.248-.206.37-.302q.515-.411 1.01-.846a11.4 11.4 0 0 0 1.766-1.878 7.53 7.53 0 0 0 1.394-4.561.037.037 0 0 0-.074 0 8.2 8.2 0 0 1-1.836 4.407 10.6 10.6 0 0 1-1.811 1.643c-.316.236-.64.462-.955.701a4.1 4.1 0 0 0-.977.842.26.26 0 0 0-.03.218 13 13 0 0 1-1.99.099c-.317-.114-.636-.22-.944-.355a17 17 0 0 1-2.522-1.36 15.7 15.7 0 0 1-2.25-1.772c-.71-.678-1.628-1.873-1.094-2.873a.025.025 0 0 0-.044-.026 2.86 2.86 0 0 0-.357 1.295 2.33 2.33 0 0 0 .585 1.299 11 11 0 0 0 2.351 2.078 17.3 17.3 0 0 0 2.792 1.615 27.8 27.8 0 0 1-7.332-2.115c-4.634-1.93-9.162-4.123-13.782-6.091a354 354 0 0 0-14.301-5.75c-4.723-1.774-9.502-3.352-14.286-4.946a31 31 0 0 1-6.552-2.87 38 38 0 0 1-5.5-4.334 319 319 0 0 0-11.461-9.886 94 94 0 0 0-11.714-8.709c-2.114-1.249-4.328-2.316-6.475-3.505a39 39 0 0 1-5.81-3.92c-1.734-1.418-3.43-2.914-5.017-4.497-1.623-1.619-3.1-3.376-4.558-5.143a43 43 0 0 0-2.28-2.545.224.224 0 0 0-.35.27 46 46 0 0 0 2.916 4.209c-2.281-1.68-4.78-3.038-7.126-4.626a82 82 0 0 1-13.91-12.209c-8.598-9.243-15.5-19.856-23.78-29.36a43 43 0 0 0-3.656-3.78c-1.3-1.172-2.57-2.376-3.872-3.547a40.6 40.6 0 0 0-8.407-6.204c-.11-.056-.24.088-.138.178 2.347 2.058 4.802 3.99 7.062 6.15a59 59 0 0 1 2.15 2.18c-5.656-3.938-11.379-7.777-17.086-11.643a42 42 0 0 1-4.755-3.537 21.3 21.3 0 0 1-3.73-4.634c-1.112-1.79-2.149-3.624-3.275-5.405-1.199-1.894-2.4-3.787-3.587-5.688-1.32-2.112-2.627-4.231-3.944-6.345-1.343-2.154-2.84-4.2-4.195-6.342a.059.059 0 0 0-.1.059c1.064 1.976 1.993 4.02 3.055 5.999.353.658.714 1.312 1.073 1.967-5.484-7.965-11.256-15.745-17.378-23.226-7.243-8.852-14.7-17.534-22.079-26.273q-3.12-3.696-6.264-7.37C4.506 99.82 2.32 97.452.232 95c-.119-.14-.309.06-.199.2 1.78 2.246 3.458 4.573 5.24 6.82l5.335 6.726q5.332 6.723 10.72 13.402c3.555 4.434 7.081 8.89 10.674 13.295q2.64 3.236 5.29 6.463c1.758 2.143 3.654 4.181 5.441 6.302a364 364 0 0 1 5.886 7.192c1.772 2.215 3.561 4.414 5.296 6.658q.31.56.618 1.122c2.145 3.926 4.219 7.889 6.478 11.752a27.3 27.3 0 0 0 3.513 4.916 25 25 0 0 0 4.616 3.783c3.69 2.408 7.523 4.612 11.262 6.944 3.358 2.095 6.77 4.1 10.192 6.088.78.94 1.525 1.91 2.334 2.827 4.15 4.71 7.951 9.708 11.766 14.688 7.561 9.87 15.38 19.773 25.453 27.22 2.699 1.996 5.573 3.73 8.431 5.483a46.6 46.6 0 0 1 5.788 3.877 47 47 0 0 0 1.853 2.114 32 32 0 0 0 5.316 4.488 69 69 0 0 0 6.556 3.737 75.4 75.4 0 0 1 12.362 8.458c4.051 3.31 8.1 6.63 11.963 10.16a72 72 0 0 0 5.466 4.683 27 27 0 0 0 6.478 3.497c2.331.897 4.735 1.6 7.103 2.39q3.764 1.26 7.491 2.628 7.455 2.733 14.769 5.833c4.792 2.02 9.496 4.235 14.274 6.283 4.33 1.855 9.25 3.562 13.997 2.392 3.636-.897 7.438-3.641 8.25-7.493.018-.084.021-.162.035-.245a.4.4 0 0 0 .041-.157l.006-.18c.011-.124.012-.246.012-.367a10.8 10.8 0 0 0-.205-2.84c-.025-.112-.058-.222-.088-.333a24 24 0 0 0 2.536.402c2.475.24 4.969.187 7.449.355 2.458.166 4.906.459 7.338.853a141 141 0 0 1 14.502 3.27c1.42.388 2.837.825 4.264 1.212a8 8 0 0 0-.334 1.03 19 19 0 0 1-.823 2.32 17.7 17.7 0 0 1-2.453 4.064 69 69 0 0 1-7.264 7.233 61.5 61.5 0 0 0-12.155 15.535 17.5 17.5 0 0 0-2.027 4.82 4.17 4.17 0 0 0 .537 3.606 71 71 0 0 0-7.802 11.334c-1.537 2.782-3.07 6.468-1.016 9.421 1.62 2.329 5.166 2.98 7.819 1.98-1.147 2.89-1.946 5.947-1.092 9.024a9.59 9.59 0 0 0 7.645 6.97c3.883.593 7.17-1.505 10.018-3.896 3.348-2.81 6.63-5.72 9.874-8.647a37 37 0 0 0 1.689-1.634 8.25 8.25 0 0 0 5.168 4.859c5.85 1.956 11.278-1.72 15.782-5.02l16.886-12.376 4.222-3.093a17.8 17.8 0 0 0 3.605-3.146 24 24 0 0 0 2.322-4.117 45 45 0 0 1 2.193-3.819 93 93 0 0 1 11.27-13.561c2.045-2.154 4.104-4.294 6.085-6.507a29.6 29.6 0 0 0 2.955-3.742 23 23 0 0 0 2.072-4.337c1.19-3.188 2.146-6.475 3.193-9.712q1.614-4.988 3.218-9.98c1.14-3.538 2.197-7.103 3.233-10.675q1.861-3.39 3.695-6.798a114 114 0 0 1 6.509-11.54c1.237-1.773 2.834-3.374 3.65-5.404a13.9 13.9 0 0 0 .527-6.425c-.204-2.356-.4-4.715-.63-7.069-.184-1.885-.46-3.765-.708-5.647.777-7.057 1.435-14.104 1.78-21.2.348-7.177.82-14.376.745-21.564-.02-2.05-.081-4.104-.267-6.146-.086-.95-.17-1.905-.324-2.847a11 11 0 0 0-.118-.594 40.04 40.04 0 0 0 20.449 4.684 53 53 0 0 0 6.852-.586 18.1 18.1 0 0 0 5.887-1.801 12 12 0 0 0 5.938-9.14 18.13 18.13 0 0 0-2.739-11.633m-38.101 19.485a55 55 0 0 0-1.001-1.472q-.996-1.428-2.044-2.82c.28.235.557.472.844.695.776.603 1.58 1.159 2.4 1.68-.013.415-.023.83-.004 1.245q.026.534.066 1.067-.134-.2-.261-.395M83.593 54.997q1.5.827 2.97 1.71c.722.432 1.432.886 2.146 1.334q.45 1.704.92 3.402c-.467-.396-.947-.78-1.431-1.154a40 40 0 0 0-2.112-1.509 66 66 0 0 0-2.493-3.783m2.852 4.361c-.076-.128-.157-.25-.234-.377.662.484 1.324.968 1.97 1.473.512.4 1.013.815 1.516 1.226.262.932.52 1.865.795 2.793l.035.111a20 20 0 0 0-1.536-1.353c-.194-.155-.396-.299-.596-.447a127 127 0 0 0-1.95-3.426m4.678 8.479q-1.245-2.37-2.535-4.714c.124.1.25.196.374.296.544.443 1.074.903 1.62 1.342a145 145 0 0 0 1.732 5.351zm25.086 47.734a8.5 8.5 0 0 0-.063-1.378q-.103-1.233-.216-2.466-.16-1.756-.34-3.51a57 57 0 0 0 2.134 2.155c.04.64.08 1.28.133 1.918.056.68.108 1.362.173 2.041q.044.49.094.98c.005.055.03.242.052.445q-.984-.091-1.967-.185m3.876.364c-.527-.045-1.054-.102-1.58-.148-.028-.811-.15-1.632-.242-2.435-.107-.935-.227-1.867-.35-2.8.168.156.33.319.5.472.408.368.836.716 1.264 1.064q.116 1 .252 1.996c.054.404.12.806.172 1.21a1.6 1.6 0 0 1-.016.641m.303.026a1.1 1.1 0 0 0 .067-.503c-.048-.591-.17-1.187-.265-1.772q-.112-.68-.228-1.359c.624.494 1.262.969 1.923 1.41.024.151.042.303.067.454.066.396.134.792.213 1.185a5 5 0 0 0 .176.75zm3.192.269-.906-.076a4.3 4.3 0 0 0-.14-.88 34 34 0 0 0-.262-1.171l-.034-.135a21 21 0 0 0 2.192 1.252q-.001.066.002.13a1.6 1.6 0 0 0 .058.297c.048.189.106.374.162.56l.03.095c-.368-.024-.734-.04-1.102-.072m1.56.102a12 12 0 0 0-.384-.864 2 2 0 0 0-.08-.133 17 17 0 0 0 1.581.65 20 20 0 0 0 1.547.455 77 77 0 0 1-2.663-.108m112.45-43.997-.458 1.971a33 33 0 0 0-.792 4.124c-.206 2.016.06 4.792 1.689 6.256a13 13 0 0 0-1.698 2.064 44 44 0 0 1-.662-4.407c-.183-1.522-.347-3.049-.421-4.58a11.2 11.2 0 0 1 .643-4.29 15.7 15.7 0 0 1 1.146-2.32c.325-.092.646-.195.978-.273l.07-.015a3.44 3.44 0 0 0-.494 1.47m46.386-14.406a13.8 13.8 0 0 0-.766 2.974 3.2 3.2 0 0 1-.549 1.516 7.2 7.2 0 0 1-1.119 1.3 24.5 24.5 0 0 1-5.614 3.767c-.613.314-1.303.732-1.837.09a2.1 2.1 0 0 1-.407-1.488 6.4 6.4 0 0 1 .77-2.924c.278-.14.558-.275.835-.419a60 60 0 0 0 6.312-3.795 62 62 0 0 0 2.822-2.075 17 17 0 0 0-.447 1.054m-62.85 49.623a36 36 0 0 0 4.694 1.226l-.053.027c-.711.363-1.43.735-2.146 1.117a23 23 0 0 0-1.701-.326c-.674-.11-1.348-.18-2.025-.24q.618-.9 1.23-1.804m-1.309 1.917c.707.152 1.412.309 2.124.442.42.079.842.165 1.266.238a63 63 0 0 0-1.968 1.099 20 20 0 0 0-2.357-.26l-.1-.002q.515-.76 1.035-1.517m-1.238 1.821q.149.029.298.05.509.074 1.019.132c.284.033.569.052.853.069a32 32 0 0 0-4.24 2.978 63 63 0 0 1 2.07-3.229m72.494 98.432c-5.374-3.92-10.864-7.68-16.49-11.229-2.765-1.743-5.577-3.403-8.379-5.085a53.5 53.5 0 0 1-7.75-5.376c-2.376-2.073-4.284-4.68-6.958-6.405-2.634-1.699-5.73-2.504-8.45-4.05a60 60 0 0 1-7.94-5.754q-4.05-3.278-8.026-6.646t-7.89-6.809a63 63 0 0 1-6.196-6.019.9.9 0 0 0 .077-.32 1.4 1.4 0 0 0-.162-.559c-.14-.317-.297-.627-.453-.937q-.236-.47-.476-.94c-.006-.013-.003-.028-.014-.04l-.019-.025-.028-.056c-.17-.333-.38-.634-.563-.96-.339-.604-.655-1.224-.985-1.834a17.3 17.3 0 0 1-.734-5.05 51 51 0 0 1 4.628-22.783c.733-.697 1.509-1.349 2.249-1.982a39 39 0 0 1 5.79-3.943c4.559-2.666 9.392-4.897 14.116-7.25a162 162 0 0 1 15.262-7.108 50 50 0 0 1 8.137-2.291c2.858-.548 5.75-.926 8.577-1.624a39 39 0 0 0 8.147-3.032 11 11 0 0 1 .871.776 15.5 15.5 0 0 1 1.873 2.368c1.266 1.878 2.337 3.894 3.469 5.853q3.803 6.579 7.623 13.148c2.535 4.345 5.115 8.666 7.626 13.025a52 52 0 0 1 3.13 6.134 28 28 0 0 1 1.1 3.19c.316 1.153.516 2.335.829 3.49a13.5 13.5 0 0 0 3.379 5.835l.029.03a.2.2 0 0 0-.009.15c.355 1.06.846 2.054 1.133 3.142a14 14 0 0 1 .418 3.338 22.7 22.7 0 0 1-1.377 7.259c-.794 2.446-1.758 4.833-2.547 7.281q-1.174 3.644-1.993 7.389a101.4 101.4 0 0 0-1.68 30.454c.245 2.845.585 5.68 1 8.505.212 1.444.445 2.882.726 4.313.066.333.128.666.196.999q-5.555-4.387-11.266-8.572m8.809 38.205c-6.838-3.04-14.074-4.867-21.078-7.446a106 106 0 0 1-19.313-9.822c-4.961-3.092-9.735-6.458-14.56-9.75l3.607 1.877c5.014 2.606 10.003 5.235 14.822 8.193 4.63 2.842 8.975 6.326 13.963 8.539a59 59 0 0 0 7.999 2.631q4.021 1.135 7.942 2.587 4.324 1.608 8.483 3.616 2.057.993 4.068 2.078c.704.38 1.396.784 2.117 1.129.043.02.087.033.13.052a6 6 0 0 0 .382.681l.032.044a90 90 0 0 0-8.594-4.41m11.139 5.928c-.017-.04-.033-.083-.05-.116-.12-.239-.26-.47-.39-.704l-.513-.925.134.02a.37.37 0 0 0 .244-.06c.212.239.432.473.646.706q.661.718 1.312 1.446.54.606 1.077 1.218a84 84 0 0 0-2.46-1.585m18.364 20.943a11.2 11.2 0 0 1 .138 2.776c-1.065-2.147-2.222-4.255-3.41-6.326a4.63 4.63 0 0 1 3.272 3.55m-4.198-3.781a.8.8 0 0 0 .331.116 4 4 0 0 1 .5.097c.74 1.442 1.49 2.878 2.235 4.316.421.812.834 1.628 1.253 2.441l-.016.37c-.01.266-.058.596-.082.93-.09.315-.174.632-.268.946q-.146.49-.289.98c-.593-1.332-1.245-2.64-1.882-3.949a264 264 0 0 0-1.901-3.813 13 13 0 0 0 .12-2.434m-.167 2.851c.02-.109.021-.216.037-.325a258 258 0 0 0 1.752 3.707c.66 1.358 1.304 2.73 2.012 4.066a38 38 0 0 1-.717 2.251c-.456-.97-.946-1.93-1.405-2.885q-1.13-2.35-2.275-4.693a11.4 11.4 0 0 0 .596-2.121m-.622 2.185q1.054 2.313 2.129 4.615c.489 1.05.958 2.133 1.468 3.19a48 48 0 0 1-.916 2.25c-.37-.895-.765-1.78-1.156-2.66q-1.037-2.34-2.175-4.631c-.012-.025-.048-.003-.037.021q1.069 2.28 2.077 4.587c.415.949.81 1.907 1.214 2.862q-.481 1.099-.987 2.187a29.5 29.5 0 0 0-1.438-3.896 35 35 0 0 0-2.621-4.875 10.1 10.1 0 0 0 2.442-3.65m-3.192 4.31a9 9 0 0 0 .72-.634 41 41 0 0 1 2.426 4.767c.594 1.391 1.056 2.82 1.537 4.246q-.378.813-.76 1.625a64 64 0 0 0-1.61-3.767 60 60 0 0 0-3.052-5.771 8 8 0 0 0 .739-.467m-11.206.909a5 5 0 0 0-.017.57c.01.464.021.925.022 1.386a39 39 0 0 0-.897-1.198c-.306-.39-.625-.773-.947-1.152q.918.2 1.84.394m-2.192-.47c.37.45.74.898 1.1 1.354.372.47.731.95 1.091 1.429-.003.159.002.317-.008.477-.026.451-.059.9-.09 1.35a33 33 0 0 0-1.61-2.326 33 33 0 0 0-1.604-1.968 48 48 0 0 0-.612-.685c.578.124 1.156.244 1.733.37m-2.023-.43c.265.285.533.57.785.862.59.687 1.15 1.398 1.689 2.126.58.786 1.104 1.604 1.617 2.43q-.067.915-.131 1.828l-.197-.27a71 71 0 0 0-2.307-2.996q-1.209-1.496-2.498-2.923a41 41 0 0 0-1.318-1.4l-.185-.183q1.275.254 2.545.525m-2.827-.577c1.37 1.626 2.793 3.206 4.123 4.867.793.99 1.558 2.003 2.311 3.024q.161.22.32.446c-.039.56-.067 1.12-.095 1.68q-1.904-2.451-3.872-4.852a316 316 0 0 0-4.56-5.488q.89.152 1.773.323m-30.03 56.999a21.3 21.3 0 0 1 1.914-4.073 59 59 0 0 1 5.397-8.077 65 65 0 0 1 6.027-6.495c.165.004.33-.001.496.004a7 7 0 0 1 .778.081 13 13 0 0 1 1.386.293 14.3 14.3 0 0 1 2.724 1.047c.036.018.067-.035.031-.053a16.3 16.3 0 0 0-2.729-1.09 18 18 0 0 0-1.469-.37c-.297-.063-.605-.141-.913-.203.14-.131.274-.266.414-.396a52.7 52.7 0 0 0 6.88-7.115 21 21 0 0 0 2.566-4.486 11.2 11.2 0 0 0 .716-2.561 5 5 0 0 0 .068-1.12c.501.124 1.003.241 1.508.339a10.06 10.06 0 0 0 6.49-.526c3.832-1.918 4.756-6.794 3.62-10.582a21 21 0 0 0-7.144-9.914 24 24 0 0 0-3.618-2.368 1 1 0 0 0-.044-.11.3.3 0 0 0-.034-.042q1.394.193 2.78.42c.084.013.166.031.25.045a301 301 0 0 0 4.367 5.527q2.076 2.582 4.213 5.117c-.04.882-.067 1.765-.055 2.654q.031 2.441.284 4.869a22 22 0 0 0 .343 2.509 3 3 0 0 0 .092.33 13.3 13.3 0 0 0-3.26 3.72c-1.615 2.568-2.996 5.272-4.64 7.826a91 91 0 0 1-5.72 7.928c-.491.607-.983 1.224-1.489 1.83q-.374-.348-.754-.692c-.011-.01-.028.006-.017.017.238.224.531.445.757.692l-.049.057q-.037-.024-.07-.042-.26-.139-.521-.276c-.23-.119-.47-.218-.703-.33.431.21.855.438 1.276.67a16.65 16.65 0 0 1-5.303 4.547c-.088.042-.18.077-.268.119a26 26 0 0 0-4.477-.635c-.028-.002-.028.04 0 .043 1.466.135 2.91.385 4.355.646-.845.388-1.71.73-2.568 1.091l-.844-.07-1.275-.104c-.018-.002-.018.025 0 .027l1.275.104.794.064c-.396.167-.79.34-1.176.528a23 23 0 0 0-4.096 2.665 65.5 65.5 0 0 0-6.841 6.251 71 71 0 0 0-2.03 2.225c-.003-.107-.002-.215-.007-.321a6.6 6.6 0 0 1 .314-2.234m-9.013 23.057c-1.246-2.635.454-5.545 1.743-7.8a70 70 0 0 1 10.459-13.916 66 66 0 0 1 6.45-5.875 22 22 0 0 1 3.72-2.427c1.329-.666 2.741-1.143 4.088-1.767 2.784-1.29 4.735-3.513 6.666-5.827q2.988-3.58 5.618-7.442c1.85-2.718 3.473-5.553 5.114-8.398a28.5 28.5 0 0 1 3.614-5.174.55.55 0 0 0 .39-.403 14 14 0 0 1 1.358-1.21.236.236 0 0 0-.181-.43 7 7 0 0 0-1.267.449c-.022-.351-.06-.702-.092-1.052a72 72 0 0 1-.306-6.693c.002-.52.018-1.042.033-1.563.082.1.161.204.247.302.042.047.107-.013.083-.064-.097-.203-.211-.399-.323-.595a61 61 0 0 1 .129-2.464c.105-1.42.304-2.837.328-4.262a9.3 9.3 0 0 0-.1-1.62l.005.002c2.915.57 6.128.748 8.754-.78q1.548 2.814 2.89 5.733c.61 1.331 1.138 2.692 1.674 4.05q-.483 1.03-.95 2.066c-.087-.17-.176-.331-.24-.47-.54-1.157-1.092-2.31-1.643-3.461q-1.655-3.456-3.412-6.859c-.009-.018-.035-.002-.027.016.937 1.988 1.87 3.978 2.82 5.96q.699 1.458 1.39 2.92.356.758.715 1.517c.077.163.197.363.309.576a68 68 0 0 0-.966 2.254c-1.697-3.813-3.548-7.562-5.254-11.371-.012-.025-.048-.003-.037.022 1.66 3.849 3.323 7.741 5.244 11.476-.286.713-.56 1.43-.805 2.157a82 82 0 0 0-2.137 8.1l-1.095 4.833c-.183.805-.37 1.613-.513 2.426a4.6 4.6 0 0 0-.04 2.292.5.5 0 0 0 .155.22 14.9 14.9 0 0 0-4.912 3.35c-3.202 3.043-6.36 6.135-9.539 9.203-1.555 1.5-3.074 3.055-4.689 4.493a10.7 10.7 0 0 1-2.48 1.702 30 30 0 0 1-2.833 1.082 25.16 25.16 0 0 0-9.357 6.456 65.5 65.5 0 0 0-12.998 19.083q-.278.62-.55 1.252c-2.52.325-6.008.557-7.25-2.07"/><path fill="currentColor" d="M334.446 271.137a2.9 2.9 0 0 0-.688-.493q-.402-.25-.803-.503-.8-.506-1.59-1.029-1.58-1.044-3.117-2.149c-.02-.015-.04.019-.02.034q1.513 1.145 3.069 2.232.778.543 1.566 1.07.394.264.79.524a2.7 2.7 0 0 0 .74.406.055.055 0 0 0 .053-.092m2.919-.22a2 2 0 0 0-.739-.425q-.46-.218-.913-.45-.878-.452-1.725-.962a29 29 0 0 1-3.32-2.33c-.019-.015-.046.012-.027.029a31 31 0 0 0 3.213 2.412q.852.555 1.741 1.052.444.248.896.48a1.85 1.85 0 0 0 .824.314.071.071 0 0 0 .05-.12m2.662-.187a1.3 1.3 0 0 0-.508-.343q-.347-.174-.69-.356-.708-.373-1.4-.776a54 54 0 0 1-2.688-1.644c-.022-.014-.04.019-.02.033a31 31 0 0 0 2.6 1.795q.663.404 1.342.78.34.189.682.37a1.4 1.4 0 0 0 .628.236c.044 0 .084-.055.054-.094m1.375-.777a8 8 0 0 0-.591-.37c-.21-.118-.416-.242-.625-.36q-.615-.349-1.194-.757c-.015-.01-.033.013-.02.025q.544.465 1.13.877c.196.138.403.26.611.38a4 4 0 0 0 .653.291c.052.019.078-.057.036-.086m12.603-2.027a11 11 0 0 0-1.324-1.065c-.479-.355-.957-.711-1.44-1.059q-1.452-1.04-2.902-2.082c-.018-.013-.041.017-.024.03l2.81 2.201q.673.523 1.353 1.036a11 11 0 0 0 1.46 1.025.055.055 0 0 0 .067-.086m2.071-2.026a55 55 0 0 0-1.847-1.406 73 73 0 0 0-3.998-2.673c-.027-.016-.047.023-.024.04a225 225 0 0 1 3.84 2.984c.612.484 1.23.958 1.842 1.442a7.4 7.4 0 0 0 1.79 1.246c.051.02.098-.048.07-.092a7 7 0 0 0-1.673-1.54m5.955 1.486a9 9 0 0 0-1-.827c-.318-.257-.621-.52-.92-.8a22 22 0 0 0-1.9-1.608c-1.366-1.02-2.781-1.958-4.201-2.898-.086-.057-.158.076-.08.135 1.379 1.023 2.718 2.102 4.068 3.162.615.482 1.25.93 1.898 1.366.396.267.77.55 1.139.854a9 9 0 0 0 .901.739c.078.048.154-.06.095-.123m2.167-1.487c-.225-.19-.463-.367-.694-.55q-.646-.511-1.301-1.01c-.91-.693-1.831-1.368-2.757-2.039-.018-.013-.04.016-.024.03.873.74 1.749 1.474 2.639 2.193q.649.524 1.307 1.035c.224.174.443.354.672.521a2.7 2.7 0 0 0 .635.401.047.047 0 0 0 .053-.069 2.6 2.6 0 0 0-.53-.512m3.124-1.617a9 9 0 0 0-1.031-.733l-1.095-.69c-.073-.047-.137.066-.067.114l1.058.712a9 9 0 0 0 1.092.653c.033.016.075-.028.043-.056m1.946-38.749c-3.468.055-6.937.056-10.39.43-3.361.362-6.684 1.01-10.048 1.32a39.5 39.5 0 0 0-4.97.924l-1.228.279a3.3 3.3 0 0 0-1.068.304 3 3 0 0 1-.655.32q-.17-.066-.358-.135-.681-.254-1.363-.505-1.477-.543-2.96-1.07-2.909-1.035-5.848-1.977c-3.956-1.275-7.987-2.299-12.01-3.339a.02.02 0 0 0-.01.038c3.927 1.262 7.792 2.698 11.687 4.054q2.86.996 5.709 2.028.792.289 1.583.58c-2.898-.579-5.77-1.357-8.651-1.997-3.817-.847-7.613-1.613-11.489-2.126-.076-.01-.086.11-.018.13 3.408 1.03 6.836 1.849 10.32 2.576 3.438.718 6.895 1.347 10.325 2.097.796.174 1.584.415 2.386.56a8 8 0 0 1 1.087.213 2.16 2.16 0 0 0 1.29.167c1.614-.31 3.208-.831 4.804-1.231 1.685-.423 3.306-1.029 5.02-1.346q2.56-.473 5.138-.836c3.884-.546 7.797-1.12 11.717-1.318a.07.07 0 0 0 0-.14M336.39 211.08a185 185 0 0 0-.562-3.34 15.6 15.6 0 0 1-.381-3.428 3.2 3.2 0 0 0-.037-1.596 7 7 0 0 1-.539-1.676q-.368-1.686-.74-3.372c-.484-2.197-.958-4.397-1.482-6.585a69 69 0 0 0-2.114-7.227c-.012-.033-.064-.02-.053.014a82.6 82.6 0 0 1 2.786 12.887c.18 1.1.357 2.2.54 3.299l.262 1.588a3.8 3.8 0 0 1 .096 1 2 2 0 0 0 .04.877c.159.51.489.97.686 1.471a10 10 0 0 1 .45 1.631q.344 1.656.634 3.324a75 75 0 0 1 1.006 7.638c.004.05.08.05.078 0a61 61 0 0 0-.67-6.506m151.663 11.733 23.533-23.508-25.676-7.225.679 9.741-46.895 11.997-.503-8.547-15.108 15.782 16.551 8.757-.541-9.196 47.242-8.1zM201.518 118.344c-.02-.05-.103-.03-.083.022 1.094 2.723 2.094 5.515 3.352 8.167.013.028.06.008.05-.021-.957-2.77-2.196-5.462-3.319-8.168m3.663 3.999q-.546-1.3-1.103-2.596a146 146 0 0 0-2.455-5.415c-.015-.032-.069-.01-.057.024a146 146 0 0 0 2.154 5.541q.539 1.305 1.086 2.604a15 15 0 0 0 1.26 2.688.084.084 0 0 0 .154-.065 15 15 0 0 0-1.039-2.78m2.47.13c-.864-2.042-1.886-4.01-2.711-6.071a19.7 19.7 0 0 0-2.452-5.16c-.013-.015-.037.005-.028.022a28 28 0 0 1 1.072 2.611c.431.98.95 1.92 1.412 2.886.913 1.91 1.644 3.896 2.528 5.816.057.122.23.016.18-.104m-.282-6.192c-.36-.709-.698-1.43-1.031-2.15-.678-1.466-1.346-2.934-2.03-4.396-.012-.024-.053-.007-.044.018a46 46 0 0 0 1.902 4.383c.365.735.744 1.464 1.119 2.194a13 13 0 0 0 1.097 2.027c.013.017.043-.001.036-.02a17 17 0 0 0-1.05-2.056m.493-4.64a79 79 0 0 0-1.346-2.762c-.011-.022-.049-.007-.04.016.368.926.739 1.85 1.142 2.762a23 23 0 0 0 1.33 2.772.04.04 0 0 0 .071-.03 22 22 0 0 0-1.157-2.758m.82-3.783c-.013-.024-.05-.003-.037.022.39.785.795 1.56 1.225 2.324.011.02.04.003.03-.017a51 51 0 0 0-1.218-2.329m31.364-37.133a33 33 0 0 0-1.02 3.563c-.13.592-.235 1.19-.329 1.789a4.2 4.2 0 0 0-.08 1.687.089.089 0 0 0 .161.02 5.4 5.4 0 0 0 .359-1.725c.08-.58.18-1.156.276-1.734.2-1.2.428-2.396.705-3.58a.037.037 0 0 0-.072-.02m-6.366 7.731c-.048-.574-.093-1.149-.151-1.722-.06-.602-.194-1.192-.262-1.792a.014.014 0 0 0-.028 0c-.009.598-.076 1.192-.064 1.792.012.598.049 1.194.088 1.79a15.6 15.6 0 0 0 .45 3.457.065.065 0 0 0 .126-.017 20 20 0 0 0-.159-3.508m25.511 13.246a27.5 27.5 0 0 0-3.584-1.692c-1.219-.529-2.447-1.036-3.66-1.577-.014-.006-.026.013-.013.02 1.196.616 2.387 1.241 3.601 1.82a21.4 21.4 0 0 0 3.628 1.497.037.037 0 0 0 .028-.068m4.847-.743a11.6 11.6 0 0 0-2.316-1.07c-.856-.344-1.686-.77-2.512-1.179a40 40 0 0 0-4.75-1.984c-.04-.013-.068.051-.03.068 1.625.709 3.258 1.391 4.887 2.089a19 19 0 0 1 2.343 1.151 15.6 15.6 0 0 0 2.233 1.268c.209.083.309-.23.145-.342m3.329-1.237c-.332-.536-1.307-.723-1.863-.92-.883-.315-1.734-.706-2.584-1.097-1.58-.725-3.139-1.48-4.738-2.161-.045-.02-.086.045-.04.068 1.587.78 3.205 1.48 4.812 2.214.774.354 1.548.708 2.292 1.123.37.207.735.424 1.114.616a1.55 1.55 0 0 0 .958.278.083.083 0 0 0 .05-.12m3.899-1.686-.022-.01a.08.08 0 0 0-.072.01c-.008-.01-.006-.024-.025-.033a2 2 0 0 0-.21-.1c-.16-.068-.328-.118-.494-.171-.388-.125-.789-.2-1.176-.325-.831-.27-1.642-.614-2.446-.954-.733-.31-1.458-.638-2.206-.912-.804-.294-1.62-.475-2.44-.705-.025-.007-.033.03-.01.038.877.343 1.723.74 2.619 1.043.857.289 1.727.538 2.581.834a17 17 0 0 1 2.621 1.171c.248.136 1.197.805 1.36.255a.12.12 0 0 0-.08-.141m2.663-1.237a.82.82 0 0 0-.472-.312c-.269-.108-.542-.204-.814-.302q-.847-.303-1.69-.61c-1.107-.403-2.215-.802-3.321-1.206-.02-.007-.026.022-.008.03l3.216 1.351q.844.355 1.686.713c.241.103.481.209.726.304a.96.96 0 0 0 .64.124.063.063 0 0 0 .037-.092m2.69-1.594a2.7 2.7 0 0 0-1.23-.463c-.478-.13-.953-.27-1.43-.403-.953-.265-1.906-.53-2.862-.784-.013-.003-.022.016-.01.021a26 26 0 0 0 2.727 1.089c.47.158.946.297 1.422.433a2.67 2.67 0 0 0 1.352.225.07.07 0 0 0 .031-.118m2.676-1.36a.97.97 0 0 0-.464-.24c-.208-.07-.422-.125-.633-.182a35 35 0 0 0-1.189-.292c-.826-.19-1.656-.364-2.48-.562a.041.041 0 0 0-.022.08c.81.25 1.612.524 2.42.782q.583.188 1.17.354c.212.06.424.12.638.166a.97.97 0 0 0 .523.03.083.083 0 0 0 .037-.136m1.754-2.162a5.8 5.8 0 0 0-1.427-.465 24 24 0 0 0-1.512-.331.018.018 0 0 0-.01.034c.482.187.974.344 1.467.5a5.8 5.8 0 0 0 1.46.338.041.041 0 0 0 .021-.076m2.049-1.874a1.3 1.3 0 0 0-.21-.041c-.136-.017-.274-.024-.412-.032-.131-.007-.263-.009-.393-.017a2 2 0 0 1-.408-.083c-.068-.019-.118.089-.05.118.129.055.26.1.39.153a2.3 2.3 0 0 0 .406.134 1.7 1.7 0 0 0 .44.04 1 1 0 0 0 .206-.03.4.4 0 0 0 .182-.089.065.065 0 0 0 0-.09.4.4 0 0 0-.15-.063m1.836-1.219c-.151 0-.304.017-.455.027a.023.023 0 0 0 0 .047c.15.009.304.027.455.027a2 2 0 0 0 .445-.026.026.026 0 0 0 0-.05 2 2 0 0 0-.445-.025m2.255-.549-.016.002Zm-51.452 25.299a1.85 1.85 0 0 0-.976-.368c-.458-.096-.919-.175-1.377-.27a55 55 0 0 1-2.623-.634c-1.787-.465-3.545-.884-5.37-1.176-.016-.003-.024.022-.007.026 1.777.467 3.558.848 5.349 1.254.876.199 1.752.413 2.61.682.445.14.884.297 1.328.443a1.9 1.9 0 0 0 1.03.176.08.08 0 0 0 .036-.133m2.102-1.816a1.05 1.05 0 0 0-.727-.367c-.422-.103-.853-.166-1.278-.259-.846-.184-1.68-.445-2.506-.705-1.664-.524-3.288-1.09-4.988-1.492a.035.035 0 0 0-.019.068c1.612.59 3.247 1.011 4.898 1.472.805.225 1.611.463 2.396.75.41.15.808.33 1.216.487a1.3 1.3 0 0 0 .961.161.08.08 0 0 0 .047-.115m3.168-1.977a2.7 2.7 0 0 0-.855-.321l-1.004-.287-1.865-.536q-1.937-.558-3.882-1.08a.012.012 0 0 0-.006.022q1.917.628 3.842 1.225l1.854.574.998.31a2.7 2.7 0 0 0 .89.199.057.057 0 0 0 .028-.106m2.628-1.484a10.2 10.2 0 0 0-2.12-.51c-.74-.14-1.485-.265-2.227-.401-.02-.004-.028.025-.009.03.73.178 1.458.368 2.19.543a10.2 10.2 0 0 0 2.148.403c.033 0 .051-.05.018-.065m2.802-.906a3 3 0 0 0-.366-.13 4 4 0 0 0-.373-.081q-.39-.052-.78-.107c-.041-.006-.06.052-.018.064q.38.103.76.212a4 4 0 0 0 .382.075 3 3 0 0 0 .387.025c.035.001.037-.047.008-.058m2.558-1.043a8 8 0 0 0-.82-.127c-.28-.029-.563-.032-.844-.056-.07-.006-.07.102 0 .11.277.027.552.076.829.1a8 8 0 0 0 .828.027c.03 0 .039-.047.007-.054M193.06 137.37a.05.05 0 0 0-.097.027c.858 3.213 1.787 6.415 2.941 9.535.015.04.077.024.064-.018-.982-3.178-2.005-6.342-2.907-9.544m3.667 5.738q-1.161-3.67-2.067-7.415c-.008-.034-.06-.02-.052.015a90 90 0 0 0 1.919 7.578 50 50 0 0 0 2.617 7.13c.016.034.072.01.06-.025-.783-2.442-1.703-4.837-2.477-7.283m4 5.664a73 73 0 0 1-1.482-3.77 67 67 0 0 1-2.156-7.266c-.003-.015-.025-.009-.022.006a68 68 0 0 0 2.033 7.42 61 61 0 0 0 1.292 3.498 18.7 18.7 0 0 0 1.588 3.408c.044.065.158.027.132-.055-.346-1.116-.93-2.168-1.385-3.241m2.004-.195a62 62 0 0 1-1.592-4.068c-.004-.012-.022-.007-.019.005.42 1.372.888 2.73 1.427 4.061a23.7 23.7 0 0 0 1.8 3.776c.02.032.08.011.064-.028-.505-1.27-1.14-2.49-1.68-3.746m34.862 60.522c-.025-.04-.099-.028-.094.025a.43.43 0 0 1-.108.367c-.083.088-.184.154-.268.24a1.43 1.43 0 0 1-.768.377c-.324.074-.654.134-.98.2-.356.073-.709.141-1.068.194-.03.004-.023.056.007.054.428-.032.852-.041 1.28-.038a6.3 6.3 0 0 0 1.167-.072 1.21 1.21 0 0 0 .877-.504.95.95 0 0 0-.045-.843m12.258-13.585a.204.204 0 0 0-.377-.102c-.2.306-.313.65-.518.955-.203.3-.44.585-.658.874q-.687.91-1.385 1.81a95 95 0 0 1-2.681 3.312 43 43 0 0 1-6.058 5.918c-.064.05.022.163.088.113a38.5 38.5 0 0 0 6.118-5.883 67 67 0 0 0 2.538-3.18q.657-.874 1.3-1.759.321-.441.64-.885a5 5 0 0 1 .545-.614 7.6 7.6 0 0 1-.67 2.108c-.334.754-.661 1.51-.997 2.264q-.954 2.137-2.037 4.213a27.3 27.3 0 0 1-5.243 7.544 1.54 1.54 0 0 0-.864-.362c.491-.8.946-1.617 1.397-2.449.024-.045-.038-.098-.074-.057-.82.93-1.632 1.84-2.361 2.845-.222.306.198.636.485.485a.92.92 0 0 1 1.174.259.348.348 0 0 0 .54-.07 72 72 0 0 0 5.488-8.255c.81-1.454 1.572-2.934 2.357-4.401a7.9 7.9 0 0 0 1.253-4.683m-3.266.079c-1.155 1.375-2.438 2.673-3.69 3.96a20 20 0 0 1-1.936 1.848 3.4 3.4 0 0 0-.519.428c-.132.154-.237.336-.352.502-.284.411-.588.799-.897 1.192-.048.062.014.173.093.12.38-.26.747-.534 1.136-.78a3.3 3.3 0 0 0 .954-.806c.572-.757 1.244-1.442 1.87-2.155 1.206-1.374 2.278-2.824 3.381-4.278.017-.023-.021-.053-.04-.031m71.955 48.088a.13.13 0 0 0-.215-.057 5 5 0 0 0-.533 1.02 7 7 0 0 1-.703 1.132 19 19 0 0 1-1.806 2.028 4.5 4.5 0 0 1-2.329 1.309c-.44.098-.888.163-1.323.285a4.1 4.1 0 0 0-1.105.565c-.026.017-.01.066.023.053a7 7 0 0 1 1.381-.256c.468-.076.94-.14 1.401-.247a4.85 4.85 0 0 0 2.373-1.382 20 20 0 0 0 1.855-2.08c.462-.613 1.157-1.551.981-2.37m-24.664-23.893c-1.186 1.455-2.182 3.077-3.314 4.577q-1.827 2.422-3.812 4.72a44 44 0 0 1-4.102 4.184c-.341.301-.706.568-1.064.85a6 6 0 0 0-1.003 1.107 4.34 4.34 0 0 1-2.374 1.609c-.047.01-.037.088.011.084a4.5 4.5 0 0 0 2.268-.834c.394-.258.789-.488 1.17-.773a5.3 5.3 0 0 0 .975-1.103c1.234-1.606 2.64-3.11 3.953-4.653a115 115 0 0 0 3.713-4.568 40 40 0 0 0 3.622-5.167c.014-.026-.023-.058-.043-.033m.312 2.302c.013-.021-.02-.04-.034-.02-1.618 2.37-3.422 4.642-5.233 6.866a96 96 0 0 1-5.62 6.291.27.27 0 0 0 .053.418.418.418 0 0 0 .664-.413 86 86 0 0 0 5.358-6.162 81 81 0 0 0 4.812-6.98m-57.427 30.297a10.2 10.2 0 0 0-2.69-.548q-1.632-.214-3.27-.353c-2.144-.182-4.3-.25-6.45-.303a.055.055 0 0 0 0 .11c2.078.081 4.14.281 6.206.516q1.61.184 3.216.41a14 14 0 0 0 2.95.31c.067-.005.115-.11.038-.142m.362-2.377a16 16 0 0 0-2.253-.29 44 44 0 0 0-2.564-.182 56 56 0 0 0-5.146.025.027.027 0 0 0 0 .055 58 58 0 0 1 7.217.426c.639.076 1.277.152 1.913.243.27.039.829.241 1.07.022.241-.22-.057-.524-.237-.3m.89-1.449a13.1 13.1 0 0 0-4.249-.64 29.5 29.5 0 0 0-4.435.239c-.012.001-.013.02 0 .02a37 37 0 0 1 4.352.08c1.435.094 2.885.384 4.323.37a.035.035 0 0 0 .009-.069m-1.017-2.145a26.4 26.4 0 0 0-3.964-.064.035.035 0 0 0 0 .07 26 26 0 0 0 3.956.051c.03-.003.044-.053.008-.057m-.514-2.473a4.7 4.7 0 0 0-1.548.22.04.04 0 0 0 .01.077 4.7 4.7 0 0 0 1.55-.208.045.045 0 0 0-.012-.089m46.312 12.477a.155.155 0 0 0-.286.077 9.8 9.8 0 0 1-.934 2.777q-.526 1.323-1.135 2.61a43 43 0 0 1-2.615 4.723 28.4 28.4 0 0 1-3.2 4.23 12.5 12.5 0 0 1-1.865 1.612c-.31.223-.559.511-.852.756a5.1 5.1 0 0 1-1.349.779.04.04 0 0 0 .02.075 8 8 0 0 0 2.313-.812 7.5 7.5 0 0 0 1.771-1.813 47 47 0 0 0 3.07-4.37 48 48 0 0 0 2.785-5.007q.578-1.2 1.084-2.434.293-.714.561-1.438c.136-.367.242-.774.397-1.147a12.1 12.1 0 0 1-.809 4.125c-.49 1.527-1.104 3.021-1.74 4.492-.595 1.374-1.211 2.748-1.909 4.073-.736 1.396-1.608 2.711-2.353 4.099-.131.245.242.463.373.218a50 50 0 0 0 2.286-4.538 98 98 0 0 0 2.027-4.412c.631-1.493 1.21-3.007 1.823-4.508.526-1.29 1.39-2.81.537-4.167m-.243 10.261a15.4 15.4 0 0 1-1.133 2.71 14 14 0 0 1-.714 1.209c-.084.13-.73 1.186-.872 1.015-.052-.061-.13.008-.12.07a.257.257 0 0 0 .312.204.78.78 0 0 0 .486-.314 8 8 0 0 0 .991-1.494 10.3 10.3 0 0 0 1.084-3.39.018.018 0 0 0-.034-.01M177.48 203.576c-.155-.85-.143-1.695-.34-2.54-.384-1.65-.772-3.298-1.137-4.953-.003-.015-.025-.008-.023.006.257 1.653.49 3.31.727 4.965a11 11 0 0 0 .347 1.462l-.701-.173c-.012-.003-.018.016-.005.019l.71.168c.084.295.165.591.227.897a10 10 0 0 1 .18 1.3c-.209-.049-.42-.09-.626-.137q-.442-.098-.882-.21c-.13-.034-.256-.082-.386-.118l-.095-.617a24.5 24.5 0 0 0-.925-4.275.01.01 0 0 0-.019.005c.165.725.243 1.478.374 2.21.125.704.273 1.402.421 2.1q.057.27.117.539c-.42-.119-.84-.235-1.252-.38-.019-.006-.027.024-.008.03.419.161.848.292 1.276.425a14 14 0 0 1 .294 1.685c.01.102.008.204.01.306l-.069-.019c-.603-.174-1.205-.353-1.809-.524l-.071-.02c-.023-.12-.05-.237-.07-.36a19 19 0 0 0-.66-3.163c-.015-.041-.084-.038-.081.011a18.5 18.5 0 0 0 .567 3.077l.085.391q-.83-.232-1.66-.46a64 64 0 0 0-.344-1.607.027.027 0 0 0-.053.007c.027.507.07 1.013.11 1.52q-.797-.22-1.592-.442a.008.008 0 0 0-.004.015l1.6.5c.02.253.03.506.055.758.023.232.053.463.081.693q-.762-.232-1.523-.467a1 1 0 0 0 .008-.2 2.8 2.8 0 0 0-.119-.57 4.7 4.7 0 0 0-.497-1.046.014.014 0 0 0-.025.01c.097.361.164.73.226 1.097.032.184.063.37.104.552q.01.037.024.072l-2.602-.798c-.022-.007-.03.026-.01.034q1.33.45 2.658.903.01.026.017.052c.03.087.05.179.085.263.016.04.078.05.09 0a2 2 0 0 0 .03-.24q.74.253 1.482.504l.074.026.032.27.078.599q.01.085.023.173c-.009.008-.024.01-.026.023-.03.157.113.237.21.263a.213.213 0 0 0 .266-.203 4.2 4.2 0 0 0-.124-.97q.775.267 1.553.527c.006.047.004.093.012.14a.86.86 0 0 0 .275.585.083.083 0 0 0 .129-.016.74.74 0 0 0 .06-.548 10.5 10.5 0 0 0 1.831.497c.036.006.066-.044.028-.064a11.5 11.5 0 0 0-1.938-.718 4 4 0 0 0-.137-.47 6 6 0 0 1-.298-1.066l.004.002c.6.183 1.203.36 1.804.541l.118.038a6 6 0 0 0 .037.683 2.3 2.3 0 0 0 .136.62c-.001.01-.013.015-.01.026.023.118.093.15.208.163a.21.21 0 0 0 .2-.152 2.23 2.23 0 0 0-.203-1.221 5.6 5.6 0 0 0 1.342.33.031.031 0 0 0 .016-.057 6.2 6.2 0 0 0-1.44-.486 5 5 0 0 1-.195-.567 15 15 0 0 1-.279-1.46c.13.039.255.09.385.127a10 10 0 0 0 1.504.342 6 6 0 0 0 .1.822.06.06 0 0 0-.022.066 2 2 0 0 0 .117.308c.082.182.36.082.36-.097a13.4 13.4 0 0 0-.548-2.333m-3.619 3.71q-.783-.244-1.57-.482-.078-.505-.171-1.007c-.03-.163-.072-.324-.105-.487q.837.264 1.673.523a5.2 5.2 0 0 1 .142 1.083c0 .125.02.247.031.37m5.534-11.704c-.003-.015-.025-.008-.023.006.307 1.963.63 3.927 1.065 5.866.006.027.045.015.042-.012-.28-1.966-.674-3.917-1.084-5.86m-1.601-.904c-.002-.01-.017-.005-.015.005.449 2.701.945 5.395 1.601 8.054.005.02.034.011.03-.008-.55-2.681-1.125-5.358-1.616-8.05m-20.204 28.204q-.294-1.454-.534-2.92c-.001-.01-.02-.008-.019.003.094.955.214 1.904.372 2.85a16 16 0 0 0 .661 2.899c.012.032.07.03.065-.01-.111-.947-.357-1.887-.545-2.822m-1.923-.557c-.32-1.727-.629-3.456-.936-5.185-.003-.015-.028-.012-.027.003q.257 2.54.645 5.064a32 32 0 0 0 1.04 5.173c.02.064.128.057.122-.017a49 49 0 0 0-.844-5.038m-1.367 5.176-.207-1.303q-.232-1.465-.468-2.93-.466-2.874-.952-5.744c-.003-.022-.04-.017-.038.005q.361 2.943.745 5.883.185 1.416.377 2.832l.204 1.525a1.7 1.7 0 0 0 .26.928c.043.053.114.014.134-.035a2.16 2.16 0 0 0-.055-1.16m-.717.637-.475-.394q-.505-.418-1.013-.831l-.267-.213c-.108-.806-.175-1.616-.254-2.436-.13-1.353-.284-2.702-.433-4.053-.003-.022-.037-.023-.035 0 .091 1.38.194 2.76.335 4.135.076.75.167 1.488.23 2.228q-.795-.642-1.597-1.274c-.01-.008-.023.005-.013.014q.805.707 1.62 1.403a15 15 0 0 1 .054 1.76.21.21 0 0 0 .105.183l.086.048a.08.08 0 0 0 .093-.012l.077-.07a.21.21 0 0 0 .055-.206 14 14 0 0 1-.299-1.555l.185.16q.484.411.971.819l.503.42a1.7 1.7 0 0 0 .457.321c.025.01.046-.022.033-.043a1.7 1.7 0 0 0-.418-.405"/><path fill="currentColor" d="M150.465 227.968c-.106-.087-.217-.167-.324-.253a44 44 0 0 0-.72-4.946c-.001-.01-.02-.009-.019.002q.18 1.401.27 2.811c.04.606.054 1.212.067 1.82-.2-.156-.397-.317-.6-.468-.49-.366-.996-.707-1.509-1.037-.045-.319-.08-.64-.13-.959-.003-.019-.036-.015-.034.005.025.292.035.585.041.878q-.627-.398-1.266-.78c-.022-.013-.04.02-.02.034.437.32.866.651 1.292.985q.004.473-.014.944l-.046.926q-.26-.177-.516-.354c-.471-.33-.95-.647-1.428-.967l-.05-.271c-.007-.045-.075-.033-.076.01l-.005.172q-.336-.226-.67-.454c-.022-.014-.04.02-.02.034l.687.526a9 9 0 0 0-.003.782 3 3 0 0 0 .161 1.004c.017.039.076.025.086-.01a1.8 1.8 0 0 0 .045-.493c-.004-.182-.021-.36-.038-.54a7 7 0 0 0-.093-.622c.422.326.842.655 1.27.972q.315.235.631.476c-.023.235-.046.503.146.643a.08.08 0 0 0 .078 0 .42.42 0 0 0 .181-.34 8.4 8.4 0 0 0 1.15.723.04.04 0 0 0 .047-.061 9 9 0 0 0-1.188-.957c-.003-.065-.007-.13-.008-.184-.003-.352-.03-.703-.065-1.052-.026-.264-.072-.524-.106-.786l1.311 1.04c.26.207.514.42.77.63q.005.28.014.559a.21.21 0 0 0 .107.185l.058.08c.026.06.107.033.125-.016l.033-.064a.21.21 0 0 0 .107-.185c-.004-.07-.012-.14-.016-.209l.106.087a4.3 4.3 0 0 0 1.281.925c.05.016.08-.04.062-.08a3.9 3.9 0 0 0-1.162-1.165m5.721-.346a19 19 0 0 0-1.924-1.402c-.02-.014-.039.02-.02.034a19 19 0 0 0 1.915 1.405c.023.013.049-.019.029-.037m-6.987 6.118a.023.023 0 0 0-.045.012c.317 1.368.637 2.733 1.005 4.089a.02.02 0 0 0 .037-.01c-.3-1.373-.647-2.732-.997-4.092m-54.764-40.727c-.005-.014-.027-.008-.022.006.338.937.674 1.876 1.021 2.81.004.009.018.005.015-.005-.33-.94-.674-1.875-1.014-2.81m1.984-2.023a.025.025 0 0 0-.05.013 97 97 0 0 0 3.945 11.199c.01.022.047.006.039-.017-1.399-3.7-2.756-7.419-3.934-11.195m6.681 12.13-.535-1.6-.991-2.97-2.056-6.167c-.003-.01-.018-.006-.015.004l1.968 6.317.965 3.101.5 1.609a3.3 3.3 0 0 0 .449 1.152c.032.042.095.004.097-.04a4.1 4.1 0 0 0-.383-1.407m1.916 5.163q-.04-.116-.085-.23l-.175-.46-.348-.921c-.027-.07-.14-.04-.113.03l.348.94.171.46q.043.117.088.23c.025.061.038.13.099.16a.034.034 0 0 0 .048-.02c.026-.063-.011-.127-.033-.19m2.343.828c-.5-1.363-.979-2.732-1.455-4.102q-1.409-4.055-2.669-8.16a.008.008 0 0 0-.015.004q1.17 4.192 2.55 8.318c.448 1.337.92 2.666 1.403 3.99a27.4 27.4 0 0 0 1.563 3.947.027.027 0 0 0 .05-.02 37 37 0 0 0-1.427-3.977m2.775.961q-1.447-3.875-2.877-7.756c-.01-.026-.05-.015-.042.011q1.267 3.994 2.68 7.938a66 66 0 0 0 2.973 7.6c.023.047.096.015.082-.034-.734-2.64-1.858-5.193-2.816-7.759m4.366 4.636c-.195-.428-.343-.884-.505-1.325l-.847-2.294-1.737-4.669c-.007-.018-.037-.01-.03.009l1.656 4.784q.415 1.196.835 2.39c.14.398.293.793.402 1.2a1.75 1.75 0 0 0 .395.85.043.043 0 0 0 .073-.031 1.8 1.8 0 0 0-.242-.914m3.225 8.787c-.2-.53-.411-1.055-.618-1.582a279 279 0 0 1-1.25-3.226c-.025-.065-.13-.037-.106.03.394 1.08.774 2.165 1.154 3.251.187.533.368 1.068.563 1.598a6 6 0 0 0 .658 1.518c.023.032.087.027.083-.022a6 6 0 0 0-.484-1.567m3.045 2.071c-.55-1.478-1.113-2.95-1.67-4.426q-1.672-4.425-3.336-8.852c-.006-.017-.032-.01-.026.007q1.597 4.51 3.168 9.027c.52 1.486 1.032 2.974 1.56 4.456a29 29 0 0 0 1.654 4.33c.062.111.219.032.196-.083a29.5 29.5 0 0 0-1.546-4.46m4.339 4.917q-.705-1.883-1.376-3.779-1.322-3.732-2.504-7.512a.018.018 0 0 0-.034.01q1.142 3.851 2.426 7.66.623 1.845 1.283 3.677a34 34 0 0 0 1.425 3.65c.032.063.133.018.114-.049-.353-1.244-.88-2.447-1.334-3.657m2.702.805q-1.07-2.656-2-5.367c-.011-.036-.067-.021-.056.015q.887 2.775 1.948 5.488a43 43 0 0 0 2.284 5.151c.011.02.048.007.04-.016-.685-1.778-1.503-3.504-2.215-5.27m3.431 1.909c-.02-.038-.076-.005-.057.033.753 1.515 1.47 3.06 2.33 4.517.02.034.065.004.05-.03-.687-1.547-1.527-3.027-2.323-4.52m-49.504-51.738c-.301-.153-.614-.285-.92-.43-.127-.679-.256-1.358-.37-2.038-.34-1.999-.66-3.999-.904-6.011-.005-.04-.067-.04-.063 0 .185 1.92.375 3.841.64 5.752q.145 1.054.304 2.114-.926-.426-1.857-.84c-.06-.375-.15-.752-.21-1.12-.069-.406-.118-.815-.18-1.223.177.09.35.185.528.275.013.006.025-.013.011-.02-.18-.098-.363-.19-.543-.286-.093-.612-.189-1.224-.268-1.837.133.047.264.103.4.14.016.005.028-.02.012-.028q-.21-.092-.422-.178-.234-1.817-.407-3.642c0-.012-.02-.013-.02 0q.108 1.787.262 3.572c-.349-.144-.698-.288-1.04-.45-.271-.129-.528-.285-.792-.428q-.086-.825-.16-1.649c-.004-.044-.073-.045-.07 0 .034.532.084 1.063.127 1.594-.22-.122-.45-.228-.664-.36-.024-.014-.046.023-.022.038.223.14.462.254.691.384.046.558.088 1.116.143 1.673l-.916-.482c-.02-.01-.038.02-.018.03q.469.246.939.49.12 1.208.272 2.413c-.706-.335-1.404-.686-2.106-1.03a56 56 0 0 1-.47-4.898.01.01 0 0 0-.02 0c.022 1.603.128 3.202.282 4.797-.47-.232-.946-.452-1.413-.69-.018-.01-.034.017-.016.026.474.248.956.478 1.433.719.032.327.05.655.088.982.05.442.121.882.182 1.323l-1.916-1a73 73 0 0 1-.516-4.114c-.002-.028-.044-.028-.043 0 .08 1.214.164 2.428.276 3.64l.034.344-1.345-.703c-.02-.01-.037.02-.017.03q.684.37 1.369.738.066.703.14 1.404c.01.095.034.512.078.91-.622-.342-1.25-.67-1.874-1.01q0-.139-.009-.276-.023-.33-.058-.66c-.048-.477-.108-.954-.162-1.43q-.16-1.431-.317-2.862c-.002-.022-.036-.023-.035 0q.07 1.43.133 2.861c.021.477.037.954.063 1.43q.019.332.046.661l.01.1q-.759-.41-1.52-.818c-.06-1.09-.216-2.182-.281-3.268q-.116-1.947-.138-3.898a.01.01 0 0 0-.02 0 54 54 0 0 0 .052 3.974c.052 1.02.08 2.083.23 3.107-.378-.204-.754-.412-1.135-.611a.014.014 0 0 0-.014.023c.385.23.776.451 1.165.676.032.208.06.418.105.623a.033.033 0 0 0 .066-.01c-.003-.175-.016-.352-.025-.529l1.533.89v.004a3 3 0 0 0 .133.413.059.059 0 0 0 .115-.016 2 2 0 0 1 .055-.226c.64.368 1.274.746 1.915 1.11a2 2 0 0 0 .103.461c-.153.138.07.367.249.181a.45.45 0 0 0 .074-.394c.215.122.426.25.641.371q.652.369 1.303.743a2.05 2.05 0 0 0 .348 1.007.098.098 0 0 0 .163-.043 1.4 1.4 0 0 0-.027-.688c.636.363 1.273.725 1.916 1.077a4.4 4.4 0 0 1 .102.702c-.004-.085-.129-.133-.171-.046-.19.383.402.556.567.16a1.03 1.03 0 0 0 .014-.538c.664.354 1.333.697 2.016 1.007a.037.037 0 0 0 .037-.064 36 36 0 0 0-2.133-1.316c-.057-.204-.119-.4-.15-.544-.15-.673-.3-1.345-.431-2.022.613.334 1.225.67 1.842.997.073.442.15.883.204 1.328a3.8 3.8 0 0 0 .252 1.233c.023.05.091.02.094-.026a5 5 0 0 0-.268-1.464c-.078-.338-.13-.681-.19-1.023.697.367 1.397.727 2.11 1.055a.025.025 0 0 0 .026-.044c-.708-.427-1.44-.82-2.172-1.209-.027-.157-.064-.311-.087-.468-.087-.576-.047-1.12-.08-1.692-.004-.08-.026-.16-.036-.24.614.29 1.232.577 1.858.84a23 23 0 0 0 .801 3.616c.016.05.1.045.096-.013a34 34 0 0 0-.505-3.446c.294.119.588.237.885.342a.016.016 0 0 0 .013-.029m-5.832-6.613c.26.144.511.303.778.433q.515.25 1.055.457c.05.585.11 1.17.166 1.755q-.902-.478-1.807-.95a96 96 0 0 1-.192-1.695m.197 1.734q.901.473 1.804.941c.046.47.085.94.134 1.409.029.28.044.575.068.868-.34-.154-.682-.304-1.02-.462-.22-.102-.434-.216-.653-.32q-.186-1.215-.333-2.436m-1.98 1.361c.702.353 1.401.713 2.108 1.057.01.08.016.16.027.239.093.716.197 1.43.301 2.145l-.724-.378-1.32-.69c-.096-.508-.203-1.015-.284-1.527-.045-.28-.069-.564-.108-.846m-.655 4.109c-.27-.15-.547-.292-.819-.441q-.103-.654-.212-1.307c-.06-.362-.107-.727-.161-1.09l1.919 1.034c.058.416.104.833.171 1.248.063.39.138.779.214 1.167q-.558-.304-1.112-.611m3.492 1.92c-.637-.36-1.28-.707-1.922-1.057l-.015-.058q-.138-.623-.269-1.248c-.082-.39-.143-.785-.218-1.178l1.244.67.8.433.077.546q.103.704.208 1.406c.025.16.06.323.095.487m1.685-1.873c.024.135.04.27.062.405-.613-.325-1.228-.642-1.843-.961a68 68 0 0 1-.415-2.433c.228.11.45.23.678.34l1 .479a4 4 0 0 0 .074.52c.14.557.343 1.076.444 1.65m3.096-2.218c-.006-.025-.04-.013-.037.01.206 1.374.452 2.734.787 4.082.007.03.049.017.045-.012a44 44 0 0 0-.795-4.08m-15.152-4.785-.105-1.723-.21-3.448c0-.013-.02-.013-.02 0l.12 3.448.06 1.723a6.6 6.6 0 0 0 .098 1.607c.016.05.098.057.11 0a6.5 6.5 0 0 0-.053-1.607m-2.187-4.663q-.096-1.278-.198-2.556c-.002-.024-.04-.025-.039 0 .036.869.07 1.738.111 2.606a24 24 0 0 0 .191 2.512c.004.03.049.02.05-.007a24 24 0 0 0-.115-2.555m-3.033-6.001c-.003-.03-.05-.03-.047 0 .08.724.154 1.45.243 2.172.002.017.029.018.027 0-.066-.725-.147-1.448-.223-2.172m52.317-53.493c-.108-1.704-.254-3.406-.396-5.108-.003-.04-.064-.04-.062 0 .084 1.736.146 3.472.222 5.208a40 40 0 0 0 .323 5.021c.008.046.073.03.077-.01a34 34 0 0 0-.164-5.111m-3.133-8.037a.012.012 0 0 0-.023 0 89 89 0 0 0 .443 13.019c.007.05.084.054.082 0-.108-4.342-.422-8.675-.502-13.02m-2.795 3.704c-.061-2.383-.05-4.766-.06-7.15a.012.012 0 0 0-.024 0c-.12 2.38-.121 4.768-.086 7.15a65 65 0 0 0 .358 7.144c.004.034.055.037.055 0-.002-2.38-.182-4.764-.243-7.144m-2.973-10.089a.014.014 0 0 0-.028 0 115 115 0 0 0 .228 15.065c.002.028.044.028.043 0-.125-5.024-.193-10.04-.243-15.065m-2.355-.508a.041.041 0 0 0-.082 0c.03 4.042.014 8.089.166 12.128a.02.02 0 0 0 .04 0c.055-4.042-.058-8.087-.124-12.128m-2.308-2.936a.027.027 0 0 0-.054 0c-.029 3.659-.087 7.32-.013 10.978a.02.02 0 0 0 .04 0c.087-3.658.042-7.32.027-10.978m-1.805-4.086c-.13 3.403-.276 6.806-.297 10.212a.027.027 0 0 0 .054 0c.18-3.401.237-6.807.31-10.212a.033.033 0 0 0-.067 0m-2.404-4.212a239 239 0 0 0-.29 5.488c0 .028.042.027.044 0 .125-1.828.213-3.657.297-5.488.001-.032-.05-.032-.051 0M9.428 96.885a.018.018 0 0 0-.034.009c.346 1.454.672 2.918 1.07 4.36a.016.016 0 0 0 .03-.009c-.314-1.462-.701-2.91-1.066-4.36m1.94-1.66c-.004-.023-.037-.013-.034.01a72 72 0 0 0 3.335 14.194c.012.035.067.021.056-.015a119 119 0 0 1-3.357-14.19m4.607 9.926q-.999-3.776-1.678-7.627c-.003-.017-.03-.01-.026.007a86 86 0 0 0 1.598 7.65 57 57 0 0 0 2.338 7.455c.012.03.058.019.049-.013-.758-2.494-1.614-4.95-2.281-7.471m3.341 3.706q-1.126-4.344-1.861-8.776c-.005-.024-.042-.014-.038.01a84 84 0 0 0 4.424 17.374c.011.027.055.017.046-.013-.89-2.86-1.82-5.694-2.571-8.595m1.588-2.139c-.007-.03-.052-.017-.046.013a74 74 0 0 0 4.409 14.453c.012.028.06.008.05-.021a100.4 100.4 0 0 1-4.413-14.445m3.836 7.527c-.006-.014-.028-.008-.023.006a97 97 0 0 0 3.484 9.231c.008.018.04.005.032-.014-1.234-3.048-2.428-6.11-3.494-9.223m5.233 7.27c-.004-.01-.018-.001-.014.008.465 1.023.929 2.046 1.4 3.066.004.009.018.001.014-.008-.462-1.024-.932-2.045-1.4-3.066m56.031-73.951a22.3 22.3 0 0 0-8.338-3.093c-.02-.004-.029.025-.009.03a34.5 34.5 0 0 1 8.319 3.11.027.027 0 0 0 .028-.047m-1.051-4.16a17.3 17.3 0 0 0-3.482-1.548 32 32 0 0 0-3.785-1.055.014.014 0 0 0-.008.026 38 38 0 0 1 3.684 1.171c1.204.45 2.366 1.008 3.57 1.456.03.011.047-.034.021-.05m-1.768-3.87a12.5 12.5 0 0 0-2.575-1.092 22 22 0 0 0-2.798-.7c-.03-.006-.042.038-.013.045a27 27 0 0 1 2.721.792c.893.307 1.754.695 2.644 1.005.03.01.047-.034.021-.05m-3.975-4.637-1.545-.399a.01.01 0 0 0-.005.019l1.528.459a11.4 11.4 0 0 0 1.543.408.02.02 0 0 0 .01-.037 11.4 11.4 0 0 0-1.531-.45m-1.289-3.855c-.012-.005-.017.014-.005.018.432.153.862.31 1.297.452.012.004.017-.015.005-.019-.429-.16-.864-.303-1.297-.451m107.775 59.857a16.2 16.2 0 0 0-.5 3.317 12.3 12.3 0 0 0 .303 3.335.057.057 0 0 0 .111-.015c.04-2.206-.045-4.428.15-6.628.004-.038-.056-.045-.064-.01m7.737 102.719c-.008-.018-.035-.002-.027.016a304 304 0 0 0 2.693 6.051c.007.017.03.003.023-.013a304 304 0 0 0-2.69-6.054m21.539 19.266q-1.333-3.838-2.743-7.646c-.008-.02-.041-.012-.034.01q1.257 3.987 2.603 7.943c.44 1.3.881 2.602 1.335 3.898a15 15 0 0 0 1.494 3.314.031.031 0 0 0 .054-.032 71 71 0 0 1-2.71-7.487m2.651 1.645a111 111 0 0 0-2.613-6.609c-.008-.018-.038-.005-.032.014.793 2.308 1.62 4.604 2.425 6.908.777 2.228 1.435 4.535 2.384 6.696.023.053.1.014.09-.037a54 54 0 0 0-2.253-6.972m3.029 1.976q-1.25-3.195-2.493-6.392c-.01-.025-.05-.015-.041.011q1.144 3.29 2.355 6.556c.783 2.1 1.544 4.24 2.525 6.256.018.036.077.011.065-.027-.68-2.172-1.583-4.285-2.412-6.404m3.361 2.137a32.7 32.7 0 0 0-2.371-5.654c-.011-.02-.04-.003-.03.018a45 45 0 0 1 2.351 6.075 22 22 0 0 0 2.439 5.617.025.025 0 0 0 .044-.026 65 65 0 0 1-2.432-6.03m3.251 1.972q-1.051-2.442-2.107-4.882c-.009-.02-.044-.005-.036.015a141 141 0 0 0 1.941 4.77c.697 1.622 1.348 3.294 2.189 4.848.013.025.056.008.046-.02-.59-1.607-1.356-3.158-2.033-4.73m1.081-2.073c-.008-.018-.04-.005-.032.014a41.5 41.5 0 0 0 3.114 6.428.02.02 0 0 0 .034-.02c-1.029-2.147-2.143-4.247-3.116-6.422m3.799 3.973a.012.012 0 0 0-.02.012c.411.69.828 1.375 1.26 2.052a.014.014 0 0 0 .024-.013 81 81 0 0 0-1.264-2.051m4.541.984c-.018-.037-.07-.005-.054.031a61 61 0 0 0 3.116 6.038.022.022 0 0 0 .037-.022c-.995-2.034-2.1-4.014-3.099-6.047m7.851 9.734c-.004-.007-.007.003-.013.005l-.023-.086a4 4 0 0 0-.185-.371c-.157-.308-.31-.618-.467-.926a104 104 0 0 0-1.774-3.303c-1.298-2.332-2.371-4.805-3.795-7.063a.012.012 0 0 0-.02.012c1.326 2.321 2.38 4.792 3.672 7.134.597 1.083 1.186 2.17 1.78 3.256a7.6 7.6 0 0 0 .825 1.433.022.022 0 0 0 .038-.016c0-.025-.028-.058-.038-.075m1.18-2.897q-1.786-3.32-3.66-6.59a.027.027 0 0 0-.048.027q1.783 3.324 3.547 6.656c1.168 2.216 2.246 4.51 3.54 6.655.02.03.061.004.048-.028-.977-2.306-2.242-4.516-3.427-6.72m5.24 5.157a133 133 0 0 0-1.854-3.374c-1.273-2.232-2.6-4.426-4.031-6.56a.016.016 0 0 0-.027.015c1.268 2.184 2.551 4.361 3.794 6.56a282 282 0 0 1 1.818 3.256c.612 1.115 1.16 2.306 1.873 3.36.011.017.044.007.035-.015a27.5 27.5 0 0 0-1.608-3.242m1.423-1.522a19.8 19.8 0 0 0-2.969-4.468c-.02-.02-.048.01-.03.03a24 24 0 0 1 2.89 4.615c.937 1.754 1.792 3.608 2.89 5.267.015.022.058.008.047-.02-.787-1.869-1.872-3.639-2.828-5.425m5.039 4.524q-.7-1.14-1.386-2.29-1.368-2.301-2.683-4.633a.018.018 0 0 0-.03.017q1.294 2.396 2.68 4.739.68 1.152 1.385 2.29a26 26 0 0 0 1.408 2.177c.008.011.024-.003.018-.014-.407-.788-.929-1.53-1.392-2.286m2.648.408-1.99-3.12c-.015-.024-.052-.003-.037.02l1.972 3.132c.654 1.038 1.262 2.134 1.985 3.124a.027.027 0 0 0 .047-.027c-.587-1.077-1.318-2.094-1.977-3.129m4.193 2.539a20 20 0 0 0-.833-1.18 44 44 0 0 0-1.776-2.19c-.025-.029-.065.013-.041.042q.9 1.12 1.697 2.316.377.564.752 1.13a8.5 8.5 0 0 0 .802 1.114.033.033 0 0 0 .055-.032 6 6 0 0 0-.656-1.2m2.436-.052c-.36-.342-.728-.677-1.092-1.015a.012.012 0 0 0-.017.016c.346.357.688.717 1.037 1.07a12 12 0 0 0 1.086 1.02.02.02 0 0 0 .028-.027 12 12 0 0 0-1.042-1.064m3.889 1.079a20 20 0 0 0-1.636-1.242c-.018-.013-.04.016-.024.03.522.446 1.018.922 1.519 1.392a12.3 12.3 0 0 0 1.499 1.362c.041.027.091-.027.067-.067a6.7 6.7 0 0 0-1.425-1.476m17.17 46.405a6.7 6.7 0 0 0-1.42 4.239.05.05 0 0 0 .095.013 18.6 18.6 0 0 1 1.417-4.198.053.053 0 0 0-.092-.054m-75.83-19.834c-.397.437-.748.913-1.163 1.335-.208.21-.42.417-.644.61s-.494.342-.706.546a3 3 0 0 0-.182.27 1.6 1.6 0 0 1-.354.236 5 5 0 0 1-.801.398 4.4 4.4 0 0 1-1.74.325.016.016 0 0 0-.004.03 3.3 3.3 0 0 0 1.7.014 4.3 4.3 0 0 0 .835-.316q.213-.104.415-.227a2 2 0 0 1 .183-.116 1 1 0 0 1 .18-.037c.284-.083.516-.404.701-.617q.294-.338.558-.699a17 17 0 0 0 1.101-1.69c.027-.05-.04-.106-.08-.062m5.154-8.632a.025.025 0 0 0 0 .05.025.025 0 0 0 0-.05m.427.293a32.3 32.3 0 0 1-2.73 6.388 23.5 23.5 0 0 1-4.03 5.603.35.35 0 0 0-.054.422.3.3 0 0 0 .125.125.36.36 0 0 0 .478-.125 51.5 51.5 0 0 0 3.854-5.93 32.4 32.4 0 0 0 2.429-6.463.037.037 0 0 0-.072-.02m48.852 20.092c-1.2 2.137-2.373 4.289-3.575 6.425a33 33 0 0 1-1.683 2.905 7 7 0 0 1-1.072 1.11 1.7 1.7 0 0 1-.872.526 3.4 3.4 0 0 1-.633.123.026.026 0 0 0 .031-.04l-.03-.034a.03.03 0 0 0-.032-.009c-.129.035-.14.136-.07.247.215.34 1.01.112 1.282.01a5.5 5.5 0 0 0 .832-.313 2.4 2.4 0 0 0 .646-.639 9 9 0 0 0 .952-1.64c1.403-2.893 2.834-5.771 4.24-8.662.006-.01-.01-.02-.016-.01"/><path fill="currentColor" d="M266.528 280.211c-.014-.036-.073-.021-.06.017a3.04 3.04 0 0 1 .065 1.845c-.122.414-.365.819-.53 1.226-.459 1.128-.988 2.232-1.492 3.34-.962 2.115-1.937 4.225-2.979 6.301-.144.287.286.541.433.253 1.085-2.329 2.189-4.648 3.243-6.99.811-1.8 2.113-3.968 1.32-5.992m-.547 8.329c-.112.34-.263.677-.403 1.007s-.285.654-.45.973a8 8 0 0 1-.542.888c-.068.097-.514.818-.634.742a.075.075 0 0 0-.11.083c.113.37.575.123.742-.055a5.4 5.4 0 0 0 .764-1.104 6.5 6.5 0 0 0 .517-1.234 4.7 4.7 0 0 0 .17-1.293.027.027 0 0 0-.054-.007m-13.313 7.349c-1.405-.319-2.817-.67-4.238-.91a5.63 5.63 0 0 0-3.205.211 9.3 9.3 0 0 0-2.628 2.374.02.02 0 0 0 .028.027 14.5 14.5 0 0 1 2.693-1.662 5.1 5.1 0 0 1 1.712-.64 6.1 6.1 0 0 1 1.738.165c1.205.24 2.407.506 3.61.762a6.3 6.3 0 0 1 2.97 1.134.03.03 0 0 0 .041-.041 4.73 4.73 0 0 0-2.721-1.42m-48.01-18.708a.367.367 0 0 0-.444-.252c-.502.109-.496.587-.746.956-.283.42-.65.796-.97 1.188a26 26 0 0 1-2.086 2.337c-.337.326-.686.643-1.054.934-.177.139-.364.263-.543.4-.182.14-.255.335-.423.488a8.9 8.9 0 0 1-2.4 1.449c-.101.045-.027.2.075.175a7.2 7.2 0 0 0 2.266-1.043 5.8 5.8 0 0 0 1.019-.663c.31-.323.602-.672.886-1.02.574-.705 1.103-1.448 1.645-2.178.333-.45.682-.889 1.03-1.326.25-.313.643-.93 1.1-1.005a1.96 1.96 0 0 1 .08.973 5.8 5.8 0 0 1-.525 1.228 12 12 0 0 1-1.268 2.001 17 17 0 0 1-1.466 1.604c-.276.271-.555.538-.847.793a1.7 1.7 0 0 0-.628.72c-.036.112.074.186.17.172a1.62 1.62 0 0 0 .847-.599c.289-.29.57-.59.83-.906a19 19 0 0 0 1.393-1.981 21 21 0 0 0 1.185-2.15c.177-.374.338-.755.53-1.121a1.7 1.7 0 0 0 .344-1.174m-3.275-.916a13 13 0 0 1-.743 1.082c-.26.372-.519.744-.807 1.095a10 10 0 0 1-.897.95 8 8 0 0 1-.483.418q-.127.101-.257.198-.054.044-.113.083c-.01.007-.11.046-.055.029a.426.426 0 0 0 .227.821 1.07 1.07 0 0 0 .532-.395q.248-.279.488-.565c.311-.37.605-.759.883-1.155a11 11 0 0 0 .746-1.201 7 7 0 0 0 .304-.663c.087-.223.134-.456.218-.679.01-.025-.03-.04-.043-.018m-38.376-16.522a17.4 17.4 0 0 0-2.6-1.522c-.88-.466-1.76-.933-2.646-1.389-1.837-.944-3.69-1.856-5.53-2.798-.02-.01-.037.02-.017.03 1.795 1.015 3.574 2.058 5.371 3.07.868.487 1.742.965 2.616 1.442a17.4 17.4 0 0 0 2.707 1.336c.092.031.18-.106.1-.17m.915-1.57a4 4 0 0 0-1.174-.698 36 36 0 0 1-1.356-.716q-1.256-.695-2.53-1.359a53 53 0 0 0-5.225-2.4c-.014-.006-.025.018-.01.025 1.766.813 3.537 1.623 5.271 2.502q1.282.65 2.531 1.358.625.355 1.22.759a4.4 4.4 0 0 0 1.173.703.104.104 0 0 0 .1-.174m.954-1.562a1.9 1.9 0 0 0-.574-.372q-.295-.159-.592-.311a57 57 0 0 0-1.243-.614q-1.27-.615-2.557-1.192c-.018-.008-.034.018-.016.027q1.26.626 2.497 1.295c.406.22.808.445 1.212.666l.586.32a2 2 0 0 0 .627.285.063.063 0 0 0 .06-.104m.373-3.449c-.549-.27-1.12-.492-1.659-.784a.033.033 0 0 0-.033.057 3.6 3.6 0 0 0 1.672.774c.025.003.048-.033.02-.047m9.077-42.35c-2.346-.47-4.698-.942-7.026-1.493a.023.023 0 0 0-.012.045 41 41 0 0 0 7.03 1.51c.034.004.042-.055.008-.062m13.174-34.261c-6.135-2.493-12.48-4.446-18.698-6.717-.024-.009-.034.029-.01.038 6.162 2.408 12.306 4.973 18.676 6.795.077.022.103-.088.032-.117m.513-2.002c-1.765-.795-3.667-1.353-5.486-2.016q-2.84-1.035-5.667-2.103c-.026-.01-.036.031-.011.041q2.76 1.103 5.536 2.164a58 58 0 0 0 5.585 2.017c.06.016.104-.076.043-.103m3.965-1.326a22.6 22.6 0 0 0-3.43-1.158 219 219 0 0 1-3.426-1.117q-3.53-1.177-7.005-2.511c-.016-.006-.023.02-.007.026a143 143 0 0 0 6.948 2.718c1.13.406 2.271.79 3.414 1.16a17.7 17.7 0 0 0 3.486.955.04.04 0 0 0 .02-.073m1.795-2.271a13.3 13.3 0 0 0-2.916-1.023q-1.515-.48-3.022-.982-3.07-1.022-6.108-2.133c-.021-.008-.03.026-.009.034a280 280 0 0 0 6.058 2.313q1.494.549 2.995 1.078a12 12 0 0 0 2.952.895c.101.008.128-.134.05-.182m.75-2.44a3.4 3.4 0 0 0-1.078-.371q-.638-.16-1.273-.332-1.27-.343-2.53-.716-2.52-.751-4.978-1.684c-.026-.01-.036.031-.011.041q2.433 1.009 4.933 1.844 1.248.419 2.514.776a7.1 7.1 0 0 0 2.402.522.043.043 0 0 0 .021-.08m-.006-1.962a4.6 4.6 0 0 0-1.515-.606q-.86-.264-1.73-.498a116 116 0 0 0-3.563-.874.016.016 0 0 0-.008.03c1.15.344 2.294.714 3.436 1.084q.826.266 1.653.527a5.2 5.2 0 0 0 1.695.414c.035-.002.065-.051.032-.077m-3.488-3.113c-.019-.003-.028.027-.008.03.643.108 1.285.219 1.933.29.013.002.016-.02.003-.022-.639-.125-1.283-.21-1.927-.298m-10.714 12.872a5.6 5.6 0 0 0-.718-.414c-.24-.103-.49-.18-.738-.263a54 54 0 0 0-1.5-.475c-1.043-.314-2.1-.573-3.155-.844a.016.016 0 0 0-.008.03c1.014.415 2.022.842 3.053 1.213q.74.267 1.49.515a7 7 0 0 0 .81.243 7 7 0 0 0 .745.075c.044.004.055-.06.021-.08m3.096 1.023a.5.5 0 0 0-.134-.124l.043.043c-.066-.106-.217-.149-.327-.2a5 5 0 0 0-.373-.148l-.731-.26a.16.16 0 0 0-.195.11.16.16 0 0 0 .11.195l.78.309a4 4 0 0 0 .396.13.7.7 0 0 0 .394.037.063.063 0 0 0 .037-.092m-19.183-10.983a31.6 31.6 0 0 1-6.341-7.051.03.03 0 0 0-.05.03 21.45 21.45 0 0 0 6.345 7.08c.035.023.077-.032.045-.06m-35.714-16.279c-1.708-1.046-3.527-1.884-5.251-2.901a.018.018 0 0 0-.018.03 40 40 0 0 0 5.245 2.928c.034.014.053-.04.024-.057m4.036 1.365a24 24 0 0 0-2.457-2.082c-.825-.646-1.646-1.309-2.52-1.887-.013-.009-.027.01-.016.021.77.746 1.613 1.419 2.44 2.1a23.5 23.5 0 0 0 2.508 1.907.037.037 0 0 0 .045-.059m.649-1.299a98 98 0 0 0-2.406-2.06c-.017-.015-.042.009-.025.024.787.702 1.565 1.413 2.347 2.12.781.706 1.535 1.455 2.358 2.113a.027.027 0 0 0 .039-.039c-.713-.773-1.528-1.46-2.313-2.158m4.869 2.538c-1.51-1.434-3.124-2.756-4.738-4.07-.013-.01-.033.008-.02.02 1.537 1.403 3.082 2.804 4.722 4.086.025.02.06-.013.036-.036m3.299.536a17.2 17.2 0 0 0-4.067-2.714c-.022-.011-.042.021-.02.034a33 33 0 0 1 2.072 1.298c.675.456 1.318.955 1.989 1.415.02.014.043-.017.026-.033m243.697 12.575c-.006-.014-.03-.004-.025.01a79 79 0 0 0 6.034 12.225.04.04 0 0 0 .068-.04c-2.009-4.077-4.202-8.05-6.077-12.195m7.793 10.211q-.9-1.8-1.823-3.587a198 198 0 0 0-3.764-6.972c-.008-.013-.027-.001-.02.012 1.177 2.322 2.374 4.633 3.554 6.954q.884 1.739 1.758 3.483c.58 1.16 1.109 2.36 1.79 3.464.022.036.087.013.07-.03a35 35 0 0 0-1.565-3.324m6.906 6.09c-.382-.59-.887-1.1-1.31-1.661a20 20 0 0 1-1.17-1.755c-.708-1.177-1.323-2.417-1.923-3.653-1.223-2.521-2.36-5.085-3.696-7.55-.017-.032-.063-.004-.047.027 1.298 2.528 2.382 5.158 3.644 7.704q.919 1.851 1.99 3.614a15.8 15.8 0 0 0 2.356 3.395c.08.075.22-.022.156-.12m3.21-.343q-.506-.661-.995-1.335-1.008-1.39-1.942-2.832a74 74 0 0 1-3.412-5.835c-.01-.02-.04-.003-.03.017a60 60 0 0 0 3.367 5.982q.898 1.401 1.87 2.753.516.719 1.051 1.423a7.2 7.2 0 0 0 1.007 1.216.045.045 0 0 0 .07-.055 9.5 9.5 0 0 0-.986-1.334m5.141 1.978c-.04-.03-.076.031-.05.064a.34.34 0 0 1 .032.139c-.976-1.503-2.099-2.927-3.147-4.378-1.112-1.541-2.25-3.064-3.36-4.607-.014-.02-.047-.002-.033.02 1.043 1.616 2.082 3.237 3.17 4.823 1.057 1.542 2.085 3.147 3.277 4.59a.166.166 0 0 0 .259-.034.464.464 0 0 0-.148-.617m-.49-5.645a19 19 0 0 0-1.703-1.894c-.037-.039-.09.018-.058.058.525.654.936 1.395 1.416 2.081.473.677.967 1.344 1.467 2.001.024.032.09.015.072-.03a10.4 10.4 0 0 0-1.194-2.216m5.64 7.322.004-.046a.35.35 0 0 0-.044-.18 2 2 0 0 0-.22-.28c-.402-.485-.829-.955-1.244-1.43a10 10 0 0 0-1.211-1.185c-.098-.08-.24.057-.14.14a6 6 0 0 1 .88.97c.258.345.478.718.744 1.057.252.32.534.617.79.935.022.027.147.172.18.148l-.024-.024c.1.076.212.099.279-.067l.012-.03c-.003.006-.007.01-.006-.008m.006.007c.005-.007.007-.013 0 0m3.752-.591a14 14 0 0 0-.931-.94 24 24 0 0 1-1.85-1.89c-.578-.642-1.091-1.335-1.62-2.017a13.3 13.3 0 0 0-1.925-1.92c-.022-.018-.062.007-.043.034a14.5 14.5 0 0 0 1.553 1.99c.632.65 1.321 1.24 1.926 1.918a24 24 0 0 1 1.75 2.139 12 12 0 0 0 .77.951c.198.228.387.598.725.534a.1.1 0 0 0 .066-.065c.096-.308-.231-.528-.42-.734m3.811.518a7 7 0 0 0-1.15-1.36 19 19 0 0 1-1.258-1.462c-.373-.475-.714-.975-1.12-1.424a12 12 0 0 0-1.422-1.253.068.068 0 0 0-.096.097c.398.476.754.968 1.187 1.415.427.441.897.836 1.321 1.279a10 10 0 0 1 1.17 1.452 10 10 0 0 0 1.04 1.51.21.21 0 0 0 .328-.253m2.468-1.225a1.2 1.2 0 0 0-.15-.288 3 3 0 0 0-.407-.474 5 5 0 0 0-1.01-.698.057.057 0 0 0-.056.098 3.7 3.7 0 0 1 .836.811q.17.218.327.444a3 3 0 0 0 .189.25.6.6 0 0 0 .208.185.073.073 0 0 0 .106-.043.3.3 0 0 0 .005-.15c-.012-.045-.033-.09-.048-.135m3.187-.612c-.04-.012-.076-.03-.114-.044q-.058-.02-.118-.037a1.4 1.4 0 0 1-.226-.09.95.95 0 0 1-.37-.317.055.055 0 0 0-.095.056 1.1 1.1 0 0 0 .378.41.8.8 0 0 0 .26.109.4.4 0 0 0 .145.015 1 1 0 0 0 .14-.03.037.037 0 0 0 0-.072m-88.093-16.492a55 55 0 0 1-3.261-4.608.022.022 0 0 0-.038.022 37 37 0 0 0 6.743 8.908.055.055 0 0 0 .078-.078c-1.156-1.43-2.39-2.795-3.522-4.244m10.275 6.969c-.506-.518-1.105-.93-1.647-1.409a19 19 0 0 1-1.52-1.537c-.527-.585-.947-1.23-1.424-1.853-.429-.559-.946-1.033-1.387-1.579a51.5 51.5 0 0 1-4.93-7.449c-.01-.02-.04-.002-.03.018a53 53 0 0 0 4.756 7.588c.397.536.733 1.104 1.178 1.605.498.562 1.086 1.051 1.604 1.598.495.523.999 1.04 1.482 1.574a16 16 0 0 0 1.625 1.737l.012-.016c.187.159.474-.08.28-.277m6.147 2.272a5.9 5.9 0 0 0-1.26-1.255c-.494-.43-.99-.858-1.474-1.3a41 41 0 0 1-2.754-2.792 67 67 0 0 1-5.012-6.286c-.017-.025-.057-.002-.04.023a62 62 0 0 0 4.836 6.188c.869.977 1.773 1.924 2.668 2.878a56 56 0 0 0 1.436 1.484 5.4 5.4 0 0 0 1.464 1.196c.084.038.194-.044.136-.136m3.126-.92q-.55-.484-1.094-.976a60 60 0 0 1-2.127-2.016q-2.07-2.07-3.999-4.276c-.01-.011-.026.005-.016.017q1.91 2.274 3.958 4.425a189 189 0 0 0 2.031 2.111q.512.523 1.034 1.037a2.9 2.9 0 0 0 1.021.783c.08.028.13-.067.1-.13a3.2 3.2 0 0 0-.908-.975m5.277 1.05a4 4 0 0 0-.709-.775l-.82-.799c-.546-.532-1.105-1.052-1.659-1.577-1.108-1.049-2.205-2.11-3.307-3.166a.014.014 0 0 0-.02.02c1.06 1.097 2.126 2.19 3.179 3.294.512.537 1.02 1.079 1.539 1.608l.801.817a4.4 4.4 0 0 0 .822.752.128.128 0 0 0 .174-.174m3.694-.505a12.2 12.2 0 0 0-3.215-2.589c-.024-.015-.044.021-.022.037 1.116.808 2.077 1.803 3.194 2.607.036.026.065-.027.043-.055m3.584-.366a27 27 0 0 0-1.688-.878c-.036-.017-.067.035-.032.054.56.303 1.12.594 1.7.858.022.01.042-.021.02-.034m18.744 10.508a83 83 0 0 0-6.281-7.8c-.014-.015-.034.007-.022.022 2.121 2.645 4.136 5.395 6.07 8.179 1.903 2.735 3.526 5.655 5.438 8.379a.072.072 0 0 0 .125-.073 53.3 53.3 0 0 0-5.33-8.707m-4.365.982c-.01-.012-.03.004-.021.016a138 138 0 0 1 8.558 14.084c.019.035.08.01.065-.027a55.5 55.5 0 0 0-8.602-14.073m5.084 11.248c-1.3-2.178-2.714-4.28-4.186-6.344-.026-.036-.086-.003-.06.035a132 132 0 0 1 3.899 6.376c1.245 2.154 2.35 4.402 3.67 6.511.024.04.096.015.078-.033a43.6 43.6 0 0 0-3.401-6.546m-2.547-.629c-.03-.043-.1-.003-.07.04a67 67 0 0 1 4.953 9.098c.019.04.086.012.071-.03a36.2 36.2 0 0 0-4.954-9.109m2.715 7.348c-.014-.034-.07-.02-.057.015.578 1.547 1.096 3.14 1.824 4.625.019.038.08.011.068-.029-.485-1.578-1.198-3.09-1.835-4.611m-51.145 19.78c-.018-.007-.027.023-.008.03 1.529.575 3.053 1.163 4.592 1.711.015.005.02-.017.006-.023-1.52-.595-3.058-1.15-4.59-1.718m12.45 2.173a31 31 0 0 0-3.219-1.201c-1.11-.398-2.222-.793-3.33-1.203a261 261 0 0 1-6.719-2.575c-.018-.007-.032.025-.013.033a176 176 0 0 0 6.451 2.648c1.103.423 2.208.841 3.319 1.24a25.4 25.4 0 0 0 3.48 1.13c.041.007.073-.052.03-.072m5.462-.89c-3.091-1.34-6.25-2.529-9.361-3.82q-4.879-2.023-9.695-4.195c-.014-.006-.026.013-.012.02a263 263 0 0 0 9.516 4.314c3.13 1.34 6.288 2.683 9.522 3.752.041.013.071-.054.03-.072m-4.688-4.634q-4.67-2.114-9.285-4.351c-.018-.009-.034.018-.015.027q4.644 2.307 9.362 4.46c3.07 1.393 6.149 2.833 9.31 4.012.018.007.03-.024.013-.032-3.1-1.432-6.274-2.707-9.385-4.116m13.834 3.392c-1.757-.823-3.618-1.44-5.403-2.201q-2.688-1.147-5.307-2.445c-.018-.009-.033.018-.015.027q2.642 1.355 5.356 2.56a40 40 0 0 0 5.346 2.112c.031.009.053-.039.023-.053m4.25-.001c-1.549-.627-3.145-1.114-4.737-1.616-.015-.004-.02.018-.006.023 1.565.582 3.124 1.178 4.731 1.634.028.008.037-.031.012-.041m-50.044-49.556c-.026-.024-.065.015-.038.038a68 68 0 0 1 4.324 4.183c.012.013.031-.006.02-.019a58 58 0 0 0-4.306-4.202m-1.804 1.288a.018.018 0 0 0-.025.025c3.589 3.626 6.968 7.434 10.452 11.158.025.026.06-.012.039-.04a118 118 0 0 0-10.466-11.143m9.539 13.568q-1.371-1.621-2.81-3.184a89 89 0 0 0-6.021-5.988c-.027-.024-.064.013-.04.038 1.987 1.962 3.947 3.957 5.833 6.016q1.396 1.523 2.74 3.093c.916 1.066 1.753 2.238 2.743 3.235a.043.043 0 0 0 .067-.052 29 29 0 0 0-2.512-3.158m-3.991-.049c-.012-.01-.028.006-.017.017a65 65 0 0 1 4.626 4.905c.016.02.043-.009.027-.028a40.7 40.7 0 0 0-4.636-4.894m5.828 10.508a8.6 8.6 0 0 1-2.388-3.051c-.012-.026-.057-.008-.046.02a6.6 6.6 0 0 0 2.408 3.065c.02.013.045-.019.026-.034m-15.41-77.665a58 58 0 0 1-1.272-2.699 16 16 0 0 1-.62-1.628 3.8 3.8 0 0 0-.473-1.18c-1.136-1.613-1.976-3.455-2.946-5.176-.976-1.732-2.017-3.425-3.057-5.118a.022.022 0 0 0-.037.022c.948 1.748 1.854 3.519 2.78 5.279a45 45 0 0 1 2.625 5.388 4.5 4.5 0 0 0 .7 1.084 15 15 0 0 1 .83 1.307c.474.826.893 1.685 1.3 2.546.848 1.797 1.62 3.63 2.525 5.4.013.027.061.008.05-.022-.7-1.779-1.56-3.489-2.405-5.202m-2.76-14.802a15 15 0 0 0-.713-1.827c-.015-.032-.07-.009-.057.024.226.608.394 1.235.563 1.86.169.624.29 1.267.49 1.882a.037.037 0 0 0 .074-.01 7.2 7.2 0 0 0-.356-1.929m2.233 4.044c-.126-.605-.263-1.208-.395-1.812-.26-1.184-.532-2.366-.806-3.547-.005-.023-.038-.013-.034.009.223 1.171.446 2.342.682 3.51.119.584.234 1.169.356 1.752a10 10 0 0 0 .423 1.733c.012.03.062.03.061-.009a9.3 9.3 0 0 0-.287-1.636m1.481.615a176 176 0 0 1-.837-5.116c-.004-.026-.05-.02-.046.006.199 1.658.418 3.314.686 4.962a33 33 0 0 0 1.013 5.087c.012.035.073.032.07-.01-.15-1.65-.6-3.298-.886-4.93m1.981 2.97c-.29-1.79-.588-3.58-.882-5.37-.002-.015-.025-.009-.022.006l.748 5.3c.25 1.756.456 3.54.852 5.27.006.028.052.022.05-.007-.137-1.741-.467-3.475-.746-5.199m2.111 3.003q-.35-2.9-.611-5.81c-.002-.024-.041-.024-.04 0q.233 2.966.553 5.924a46 46 0 0 0 .766 5.683.027.027 0 0 0 .054-.007c-.099-1.932-.49-3.87-.722-5.79m1.461.84c0-.01-.016-.01-.016 0a50 50 0 0 0 1.009 7.159c.005.022.037.012.033-.01-.394-2.38-.803-4.744-1.026-7.15m1.747 5.441c-.002-.01-.016-.006-.015.004.215 1.194.425 2.389.656 3.58.002.012.021.006.019-.006-.208-1.195-.436-2.386-.66-3.578m4.072-6.292c-.004-.03-.05-.03-.047 0 .156 1.76.266 3.532.541 5.279.003.02.036.015.035-.005-.081-1.764-.33-3.52-.53-5.274m2.366 3.91-.29-2.893c-.002-.015-.025-.015-.024 0l.236 2.95c.077.942.117 1.91.279 2.841.004.022.038.017.038-.005-.007-.961-.143-1.937-.239-2.893m1.292-.018c-.008-.037-.065-.022-.056.015.16.683.323 1.365.497 2.045.004.015.026.008.022-.006q-.221-1.029-.463-2.055m43.667-1.523a28.7 28.7 0 0 0-8.87-3.509c-.014-.003-.02.02-.006.023a35.2 35.2 0 0 1 8.855 3.523.021.021 0 0 0 .021-.037m4.445-.014a31.24 31.24 0 0 0-14.499-7.096c-.032-.006-.045.042-.013.05a37.5 37.5 0 0 1 14.463 7.095c.034.027.084-.018.05-.05m.396-3.585a37.6 37.6 0 0 0-7.62-4.788 29 29 0 0 0-8.47-2.764c-.013-.002-.019.016-.006.018a31.2 31.2 0 0 1 8.446 3.015c2.643 1.36 5.033 3.105 7.61 4.571.03.018.07-.027.04-.052m-2.613-5.77a28.94 28.94 0 0 0-12.783-5.616c-.037-.007-.053.048-.016.057a42.3 42.3 0 0 1 12.747 5.626c.04.026.09-.036.052-.067m-1.85-4.627a15.8 15.8 0 0 0-4.593-2.722 23 23 0 0 0-5.156-1.46c-.034-.005-.05.047-.015.054a24.3 24.3 0 0 1 5.129 1.642 51 51 0 0 1 4.59 2.544c.036.02.077-.03.045-.058m-3.46-6.387a16.5 16.5 0 0 0-5.765-1.79c-.015-.003-.021.019-.006.022a48 48 0 0 1 5.746 1.83c.036.011.057-.043.025-.062m-16.479-30.859a34 34 0 0 0-8.706-5.25c-.012-.005-.021.016-.01.021a44.5 44.5 0 0 1 8.683 5.272c.024.018.057-.024.033-.043m-.202-3.539a35.25 35.25 0 0 0-12.715-7.794c-.052-.02-.073.063-.022.083a44.2 44.2 0 0 1 12.684 7.763c.036.031.087-.018.053-.052m-2.787-6.434c-1.359-.816-2.634-1.772-3.964-2.634a41.3 41.3 0 0 0-8.2-4.281c-.043-.016-.06.051-.019.067a46 46 0 0 1 7.143 3.587 69 69 0 0 1 3.235 2.093 26 26 0 0 1 1.732 1.263c.28.226 1.506 1.008 1.407 1.391a.106.106 0 0 0 .13.13c1.025-.337-1.297-1.515-1.464-1.615m-7.692-9.348a27 27 0 0 0-3.344-1.958 36 36 0 0 0-3.52-1.367c-.022-.008-.039.03-.016.04 1.165.494 2.285 1.092 3.419 1.654 1.14.565 2.297 1.103 3.42 1.702a.041.041 0 0 0 .04-.07m5.519 3.386c-.157-.087-.323-.162-.486-.237a14 14 0 0 0-.986-.403c-.088-.032-.125.107-.039.14a8 8 0 0 1 .943.436c.149.08.292.168.437.254a1.5 1.5 0 0 0 .46.214c.049.009.108-.044.072-.094a1.2 1.2 0 0 0-.401-.31m-4.378-7.726a41.3 41.3 0 0 0-8.157-4.623c-.025-.012-.047.024-.022.037q2.094 1.053 4.124 2.23c1.354.781 2.666 1.633 4.03 2.4.029.016.05-.025.025-.044m-4.76-7.839a11.7 11.7 0 0 0-4.107-1.83.014.014 0 0 0-.008.027 33 33 0 0 1 4.081 1.86.033.033 0 0 0 .034-.057m-26.91 101.989a58 58 0 0 0-.241 6.125.031.031 0 0 0 .062 0 58 58 0 0 0 .223-6.125.022.022 0 0 0-.043 0m-2.116-4.258c-.057 1.505-.123 3.008-.172 4.513a42 42 0 0 0-.02 4.512.035.035 0 0 0 .07 0 42 42 0 0 0 .16-4.512c.011-1.504.006-3.008.01-4.513a.023.023 0 0 0-.048 0m-1.747-3.736a117 117 0 0 0-.608 6.965 15 15 0 0 0-.03 2.388c.002.03.05.043.057.008a17 17 0 0 0 .158-2.212c.04-.796.074-1.591.12-2.386.09-1.59.197-3.178.33-4.764.001-.017-.025-.017-.027 0m-2.42-2.897c-.243 2.437-.515 4.876-.652 7.322-.002.026.036.024.039 0 .292-2.432.452-4.88.64-7.322.002-.018-.025-.017-.027 0m-19.135-34.459q-.286-5.236-.377-10.48a.014.014 0 0 0-.027 0c.019 3.495.108 6.989.288 10.48.18 3.486.366 6.994.815 10.457.004.027.045.029.043 0-.213-3.488-.552-6.967-.742-10.457m2.36-4.694a.004.004 0 0 0-.008 0c.066 5.057.28 10.113.728 15.152.001.017.029.018.027 0-.368-5.045-.647-10.095-.747-15.152m2.93 11.068c0-.007-.012-.007-.012 0l.325 4.257c.001.007.013.007.012 0zm48.755 198.744c-.031-.016-.059.03-.028.047a36.5 36.5 0 0 0 4.538 2.181c.015.006.025-.018.01-.025-1.51-.732-3.04-1.41-4.52-2.203m12.269 1.874a63.4 63.4 0 0 0-9.727-6.11c-.017-.01-.033.017-.015.026a113 113 0 0 1 9.718 6.115c.018.012.041-.017.024-.03m-5.971-6.976c-.017-.01-.032.017-.016.028 2.319 1.487 4.627 2.991 6.974 4.433.015.01.029-.014.014-.024-2.3-1.514-4.642-2.967-6.972-4.436m10.536 3.612a32.5 32.5 0 0 0-5.09-3.661 57 57 0 0 0-5.66-3.109c-.016-.007-.03.016-.014.024q2.842 1.43 5.528 3.141c1.792 1.138 3.436 2.482 5.208 3.642a.024.024 0 0 0 .028-.037m-.524-4.063a8.5 8.5 0 0 0-1.578-1.127q-.863-.558-1.748-1.08a47 47 0 0 0-3.64-1.912c-.025-.011-.047.025-.022.037a54 54 0 0 1 3.537 1.961q.853.514 1.688 1.057a13 13 0 0 0 1.723 1.116.033.033 0 0 0 .04-.052m.201-2.954a17.9 17.9 0 0 0-4.633-2.323c-.015-.005-.02.017-.007.023a25 25 0 0 1 2.383 1.108c.751.399 1.479.84 2.231 1.236a.025.025 0 0 0 .026-.044m-2.414-4.752c-.013-.002-.016.02-.003.023.454.061.908.135 1.364.175.014.001.017-.02.004-.023-.452-.077-.91-.12-1.365-.175m-22.767 50.546a20.1 20.1 0 0 0-10.756-5.092c-.08-.012-.116.111-.034.124a22.9 22.9 0 0 1 10.76 4.999c.02.017.05-.01.03-.03"/><path fill="currentColor" d="M322.478 330.94c-.268-.021-.274.425 0 .422a11.5 11.5 0 0 1 3.098.304 13.5 13.5 0 0 1 2.92 1.144 14.1 14.1 0 0 1 4.736 4.066c.006.008.02 0 .014-.007a14.73 14.73 0 0 0-10.768-5.929m29.624-21.882c-.351-.702-.724-1.395-1.067-2.1-.013-.026-.048-.004-.037.02.31.728.614 1.452.97 2.159.354.702.747 1.385 1.145 2.063a.025.025 0 0 0 .044-.026c-.36-.7-.702-1.411-1.055-2.116m-4.356-2.503a.012.012 0 0 0-.02.012 61 61 0 0 1 3.921 8.41c.01.025.05.016.042-.011a37.2 37.2 0 0 0-3.943-8.41m-.71 3.594c-.009-.015-.032-.001-.024.014a116 116 0 0 1 3.121 6.853c.01.025.052.015.042-.011a55 55 0 0 0-3.14-6.855m-.692 3.757c-.007-.018-.037-.01-.03.008.62 1.646 1.222 3.307 1.94 4.914.008.016.035.005.029-.012-.573-1.663-1.268-3.285-1.939-4.91m-.368 4.266c-.007-.018-.037-.01-.03.009.218.57.429 1.145.664 1.708.007.016.033.01.027-.007-.206-.575-.437-1.141-.66-1.71m-36.25 46.958a24.7 24.7 0 0 0-7.681-2.29c-.03-.004-.042.04-.012.045a45.6 45.6 0 0 1 7.676 2.284c.023.009.038-.028.017-.039m4.087-1.363a22.3 22.3 0 0 0-4.732-2.048 37 37 0 0 0-5.159-1.307c-.015-.002-.021.02-.006.023a41 41 0 0 1 5.034 1.42c1.65.573 3.211 1.346 4.839 1.969.034.013.053-.04.024-.057m3.393-1.514a24.3 24.3 0 0 0-10.39-3.56c-.024-.004-.03.038-.006.042a29.6 29.6 0 0 1 5.258 1.308 50 50 0 0 1 5.116 2.247.021.021 0 0 0 .022-.037m-4.598-4.252c-.007-.002-.01.01-.003.011a26.5 26.5 0 0 1 6.455 2.4.014.014 0 0 0 .014-.023 19.1 19.1 0 0 0-6.466-2.388m5.955.009c-.027-.013-.05.027-.023.04a6 6 0 0 0 2.24.631c.014.001.018-.024.003-.027a8.4 8.4 0 0 1-2.22-.644m4.357-.902q-.13-.002-.26.001-.26.01-.52.017a.025.025 0 0 0 0 .051q.26.007.52.017.13.005.26 0a.7.7 0 0 0 .247-.018.026.026 0 0 0 0-.049.7.7 0 0 0-.247-.018m2.959-1.536a1 1 0 0 0-.207.027q-.11.021-.22.045l-.43.106c-.036.01-.02.063.016.057l.436-.08q.106-.022.212-.048l.105-.024a.5.5 0 0 0 .1-.04c.022-.01.01-.042-.012-.043m-45.277 19.128a35.6 35.6 0 0 0-7.805-2.65.02.02 0 0 0-.01.037 68 68 0 0 1 7.799 2.652c.022.009.038-.029.016-.04m4.163-1.857a20.8 20.8 0 0 0-6.065-2.355 31.7 31.7 0 0 0-6.431-.954c-.015 0-.015.022 0 .024a34.7 34.7 0 0 1 6.484 1.167q1.538.43 3.032.998c.99.375 1.946.852 2.945 1.202.05.018.075-.055.035-.082m2.188-2.344a29.8 29.8 0 0 0-10.093-2.782c-.012-.001-.012.018 0 .02a36.4 36.4 0 0 1 10.073 2.796c.023.01.043-.023.02-.034m-1.066-3.281a22 22 0 0 0-3.748-.857c-.027-.003-.039.038-.011.042a22 22 0 0 1 3.614.855 38 38 0 0 1 3.54 1.48.018.018 0 0 0 .017-.03 15.5 15.5 0 0 0-3.412-1.49m3.193-1.05q-1.167-.438-2.348-.84c-.007-.002-.01.01-.003.012q1.156.408 2.299.85c.76.294 1.507.634 2.277.901.014.005.024-.018.01-.025-.72-.35-1.487-.617-2.235-.898m2.077-1.437-1.869-.603c-.02-.007-.027.023-.008.03l1.86.635c.617.21 1.238.435 1.87.6a.012.012 0 0 0 .006-.023c-.605-.246-1.237-.438-1.859-.64m2.556-1.282a.014.014 0 0 0-.007.027 28 28 0 0 0 1.702.513.014.014 0 0 0 .007-.026 29 29 0 0 0-1.702-.513m32.014-46.32a4.3 4.3 0 0 0-1.425-.528 4.6 4.6 0 0 0-1.49.013c-.042.007-.033.077.01.073a5.95 5.95 0 0 1 2.88.486c.028.013.054-.027.025-.044m16.047-39.315c-.002-.007-.014-.004-.011.003.64 2.073 1.31 4.144 2.096 6.167.005.012.023.007.019-.005-.713-2.052-1.444-4.095-2.104-6.165m-.06 5.125c-.005-.016-.031-.01-.026.007.447 1.421.889 2.844 1.35 4.26.003.012.022.007.018-.005-.436-1.424-.891-2.842-1.342-4.262m-1.174 4.238a.025.025 0 0 0-.036.035l.17.17a.025.025 0 0 0 .036-.035Zm40.188-27.581c-.014-.02-.048-.001-.033.02 1.213 1.725 2.387 3.495 3.734 5.12.017.021.051-.006.037-.028-1.137-1.777-2.465-3.432-3.738-5.112m3.566-.477a58 58 0 0 0-2.744-3.42c-.008-.01-.022.004-.014.013a76 76 0 0 1 2.73 3.58c.852 1.183 1.608 2.44 2.482 3.606a.03.03 0 0 0 .05-.03 30 30 0 0 0-2.504-3.749m1.252-2.111a75 75 0 0 0-2.767-3.384c-.01-.011-.026.005-.017.017q1.43 1.769 2.794 3.592c.86 1.145 1.656 2.347 2.552 3.464.017.02.05-.006.037-.029a36 36 0 0 0-2.6-3.66m1.658-1.687a18 18 0 0 0-1.586-1.818c-.016-.017-.04.008-.025.025a24 24 0 0 1 1.555 1.905c.48.644.895 1.329 1.351 1.988a.022.022 0 0 0 .038-.022 12.6 12.6 0 0 0-1.333-2.078m2.687-.643a.008.008 0 0 0-.012.011l.681.681a.008.008 0 0 0 .011-.011zM271.097 361.03a15.5 15.5 0 0 0-7.168-2.046c-.013-.001-.012.018 0 .02a24.2 24.2 0 0 1 7.14 2.073c.032.014.059-.028.028-.047m.841-1.853a12 12 0 0 0-2.784-1.118 23 23 0 0 0-3.022-.69c-.01-.002-.014.013-.004.014a23 23 0 0 1 2.95.75c.474.156.945.32 1.41.503.478.187.945.42 1.432.584.025.009.04-.03.018-.043m-.023-1.99a9.5 9.5 0 0 0-1.91-.688 16 16 0 0 0-1.991-.392c-.011-.002-.014.017-.003.019a16 16 0 0 1 1.973.446c.649.192 1.274.439 1.915.654a.022.022 0 0 0 .016-.04m-1.507-2.466a.006.006 0 0 0-.003.01l1.356.364a.008.008 0 0 0 .004-.015zm16.839-30.281c-.015-.001-.015.022 0 .023a14.6 14.6 0 0 1 3.914.864c.014.005.02-.018.006-.023a13.2 13.2 0 0 0-3.92-.864m29.401-37.906c-.013-.027-.053-.003-.04.024 1.736 3.776 3.365 7.633 5.27 11.327.008.013.032.004.026-.01-1.594-3.842-3.49-7.576-5.256-11.34m-.799 3.211c-.006-.012-.027-.004-.022.009 1.212 2.991 2.462 5.969 3.828 8.894.01.02.044.005.036-.015-1.248-2.977-2.554-5.929-3.842-8.888m-.259 5.065c-.015-.033-.066-.004-.05.03.483 1.034.966 2.068 1.467 3.093.01.018.035.002.027-.016-.47-1.04-.956-2.073-1.443-3.106m.929 9.239c-.01-.028-.055-.016-.045.013.657 1.768 1.3 3.542 2 5.294.005.013.027.008.022-.007-.626-1.778-1.308-3.537-1.977-5.3m-1.289 1.507c-.01-.033-.063-.019-.052.015.812 2.51 1.6 5.027 2.473 7.516.006.017.031.01.026-.007-.767-2.523-1.619-5.02-2.447-7.524m-.623 4.859-1.14-2.967c-.007-.016-.033-.009-.027.008l1.14 3.027c.367.973.706 1.963 1.12 2.917.007.016.034.004.028-.012-.33-1.005-.742-1.986-1.121-2.973m-2.692 1.129c-.004-.006-.014 0-.01.006l.516.677c.003.004.01 0 .007-.004Zm26.904-11.581v-.004m-9.722 15.714c-.106-.088-.153-.23-.248-.324a2 2 0 0 0-.392-.253 8 8 0 0 0-.893-.436 9 9 0 0 0-2.123-.59 11 11 0 0 0-4.147.203c-.014.003-.008.025.007.022a10.8 10.8 0 0 1 4.064.053 10 10 0 0 1 1.843.57 9 9 0 0 1 .883.43c.147.082.29.17.437.252.13.073.377.08.478.164.063.052.155-.039.091-.091m-.967-2.164a7.6 7.6 0 0 0-3.609-.794.02.02 0 0 0 0 .04 9.2 9.2 0 0 1 3.591.785c.02.008.039-.02.018-.03"/></svg>