<svg xmlns="http://www.w3.org/2000/svg" data-name="Scorpionfish" viewBox="0 0 484.292 358.743"><path fill="currentColor" d="M261.38 158.427a.02.02 0 0 0-.01.018l-.008.121c0 .024.035.023.037 0a.83.83 0 0 1-.027.88q-.066.151-.13.303-.181.432-.358.867c-.277.674-.557 1.347-.831 2.022q-.823 2.022-1.608 4.06a204 204 0 0 0-2.983 8.186c-.02.058.076.1.1.043 1.402-3.252 2.691-6.552 3.926-9.871q.922-2.479 1.804-4.971c.031-.088.898-2.056.088-1.658m1.677 2.508a497 497 0 0 0-3.674 9.88 89 89 0 0 0-3.298 9.983c-.028.12.152.21.209.088a89 89 0 0 0 3.544-9.783 500 500 0 0 0 3.255-10.158c.007-.023-.028-.031-.036-.01m-1.968 53.269a88 88 0 0 0-2.503 9.218c-.011.055.07.079.085.023.812-3.08 1.625-6.157 2.603-9.19.037-.118-.147-.168-.185-.051m9.704-11.756a152.3 152.3 0 0 0-10.686 31.891c-.012.055.07.08.085.024a202.6 202.6 0 0 1 10.678-31.87c.022-.052-.053-.097-.077-.045m-2.24 16.737a122.6 122.6 0 0 0-8.064 26.27c-.008.042.054.06.064.018a162 162 0 0 1 8.067-26.26c.016-.037-.051-.066-.067-.028m1.887 3.84a97 97 0 0 0-8.56 30.346c-.005.05.08.061.087.012a116.3 116.3 0 0 1 8.51-30.336c.012-.025-.026-.048-.038-.022m3.518-.191c-3.557 9.61-7.14 19.292-8.895 29.425a59 59 0 0 0-.928 8.402c-.001.039.055.038.059 0a102 102 0 0 1 2.474-15.165c1.218-4.913 2.748-9.741 4.402-14.523.941-2.721 1.92-5.428 2.902-8.135.003-.009-.011-.013-.014-.004m-2.047 15.789a131 131 0 0 0-4.103 13.597 55 55 0 0 0-1.089 6.61 23.9 23.9 0 0 0-.015 6.806c.009.046.077.033.08-.011.118-2.268-.04-4.524.178-6.796a56 56 0 0 1 1.16-6.986c1.014-4.477 2.418-8.846 3.847-13.205.011-.036-.045-.05-.057-.015m.327 9.844a.018.018 0 0 0-.035-.01 86 86 0 0 0-2.504 10.067 37 37 0 0 0-.497 4.702 16.2 16.2 0 0 0 .362 4.98.048.048 0 0 0 .094-.012c.002-1.608-.18-3.206-.132-4.818a40 40 0 0 1 .533-5.223c.532-3.266 1.361-6.482 2.18-9.686m1.281 7.095a.015.015 0 0 0-.028-.008 37.5 37.5 0 0 0-1.292 7.88 23.7 23.7 0 0 0 .566 7.962.067.067 0 0 0 .13-.017c-.071-2.61-.475-5.174-.402-7.798a41 41 0 0 1 1.027-8.02m1.803 13.701a44 44 0 0 1-.149-6.244c.002-.038-.055-.037-.059 0a36 36 0 0 0-.128 6.362 21 21 0 0 0 1.096 6.065c.027.07.153.07.144-.02-.21-2.065-.717-4.089-.904-6.163m3.269 5.421c-.192-.746-.355-1.5-.5-2.257a33 33 0 0 1-.554-4.919.015.015 0 0 0-.03 0 27.3 27.3 0 0 0 .263 4.916 25 25 0 0 0 .487 2.445 5.7 5.7 0 0 0 .76 2.133c.04.05.118.006.12-.05a9 9 0 0 0-.546-2.268m2.842 2.187q-.234-.82-.391-1.66a21 21 0 0 1-.358-3.637.015.015 0 0 0-.03 0 16.8 16.8 0 0 0 .192 3.623 18 18 0 0 0 .392 1.797 6 6 0 0 0 .63 1.674.044.044 0 0 0 .08-.034 16 16 0 0 0-.515-1.762m3.083 1.632a9 9 0 0 0-.34-.775 10 10 0 0 0-.925-1.467c-.025-.033-.082-.002-.057.034a11 11 0 0 1 .827 1.462c.121.26.244.519.35.786.1.251.186.51.31.752.014.027.066.016.062-.017a3.4 3.4 0 0 0-.227-.775m1.544.502c-.043-.05-.118.024-.073.073l1.528 1.683c.026.028.066-.013.042-.041zm-7.697-76.324a117 117 0 0 0-1.438 17.539.063.063 0 0 0 .125 0c.424-5.848.704-11.705 1.35-17.534.002-.02-.034-.025-.037-.005m2.902 13.941q.23-5.801.895-11.571c.008-.067-.094-.065-.103 0q-.765 5.764-1.127 11.571a131 131 0 0 0-.206 5.728q-.024 1.394-.023 2.789a9.9 9.9 0 0 0 .128 2.817.111.111 0 0 0 .213 0 10.3 10.3 0 0 0 .058-2.663q-.011-1.394.002-2.788c.02-1.962.085-3.922.163-5.883m3.632 14.688a17.4 17.4 0 0 1-.404-2.987c-.078-1.892-.045-3.79.015-5.682.118-3.745.434-7.478.63-11.219.001-.024-.034-.023-.037 0-.436 3.776-.752 7.572-.832 11.373a83 83 0 0 0 .078 5.528c.044.97.04 1.94.007 2.91a3.96 3.96 0 0 0 .354 2.384.19.19 0 0 0 .344-.045 4.25 4.25 0 0 0-.155-2.261m3.627 4.842q-.225-2.602-.326-5.213c-.133-3.426-.117-6.862.044-10.287.001-.033-.05-.033-.052 0a104 104 0 0 0-.157 10.44q.093 2.534.303 5.06a29 29 0 0 0 .447 5.092.2.2 0 0 0 .39-.053c.005-1.679-.504-3.367-.649-5.039m3.606 6.971q-.312-1.847-.494-3.714a55 55 0 0 1-.225-6.992c.001-.028-.043-.028-.044 0a55 55 0 0 0 .16 7.26q.145 1.62.388 3.228a13.8 13.8 0 0 0 .706 3.434c.017.038.076.018.075-.02a23 23 0 0 0-.566-3.196m4.147 5.675q-.144-.424-.272-.854a29 29 0 0 1-.452-1.667 25 25 0 0 1-.565-3.59c-.003-.027-.046-.028-.045 0a25 25 0 0 0 .48 3.494c.124.584.265 1.165.436 1.737a6.3 6.3 0 0 0 .587 1.636c.016.024.066.019.062-.017a4 4 0 0 0-.231-.74m2.661 1.626a9 9 0 0 1-.289-1.533c0-.014-.023-.014-.022 0a8 8 0 0 0 .832 3.009c.012.021.041.003.032-.019a11.5 11.5 0 0 1-.554-1.457m1.631 1.881c-.012-.014-.037 0-.026.015a5.3 5.3 0 0 1 .852 1.925c.005.024.039.014.035-.01a4.4 4.4 0 0 0-.862-1.93m16.863 4.571c-1.405-.89-3.01-1.493-4.493-2.243-1.498-.758-2.99-1.522-4.454-2.343a.048.048 0 0 0-.049.082c1.453.89 2.926 1.756 4.439 2.54a24.4 24.4 0 0 0 4.52 2.052.048.048 0 0 0 .037-.088m5.256.037a8.7 8.7 0 0 0-2.504-1.212 143 143 0 0 0-2.7-1.117q-2.804-1.12-5.598-2.264c-.034-.014-.06.045-.025.06q2.746 1.257 5.481 2.538c.897.42 1.8.824 2.705 1.225a8.5 8.5 0 0 0 2.555.978.123.123 0 0 0 .086-.208m2.687-1.113a1.5 1.5 0 0 0-.674-.36q-.472-.175-.943-.354c-.65-.247-1.297-.506-1.946-.757a120 120 0 0 1-3.924-1.588c-.03-.013-.056.03-.026.044 1.278.604 2.562 1.199 3.859 1.761.604.263 1.217.509 1.829.755q.468.188.938.373a1.74 1.74 0 0 0 .863.218c.044-.006.048-.065.024-.093m2.625-1.663a1.2 1.2 0 0 0-.516-.236c-.236-.073-.477-.132-.715-.196a70 70 0 0 0-1.386-.356 91 91 0 0 1-2.813-.754.018.018 0 0 0-.01.035q1.374.492 2.76.949.68.227 1.368.42c.238.066.475.138.717.191a1.2 1.2 0 0 0 .568.051.063.063 0 0 0 .028-.104m2.941-.946c-.09-.04-.177-.093-.267-.129-.087-.034-.181-.053-.27-.08a8 8 0 0 0-.616-.15c-.406-.087-.81-.181-1.214-.273a.026.026 0 0 0-.014.05q.594.185 1.185.38c.194.064.386.128.584.177.096.025.197.06.296.074.096.015.198.014.296.026a.04.04 0 0 0 .02-.076m2.163-2.339-.108-.028a.3.3 0 0 0-.095-.06.5.5 0 0 0-.156-.004 2 2 0 0 0-.284.028l-.496.093a.148.148 0 0 0 .039.29h.55a2 2 0 0 0 .306-.039.24.24 0 0 0 .149-.076c.034-.037.012-.027.042-.037l.07-.033a.074.074 0 0 0-.017-.134m-36.135-96.861c-.205-1.36-.09-2.682-.334-4.032-.474-2.61-.982-5.222-1.38-7.845-.006-.037-.069-.029-.065.009.242 2.697.441 5.393.748 8.085.145 1.272.647 2.406.856 3.672.227 1.37.395 2.748.625 4.116.031.182.31.106.277-.076-.236-1.313-.526-2.61-.726-3.93m-2.408-.615c-.133-.944-.279-1.885-.421-2.827q-.427-2.824-.896-5.64c-.004-.02-.039-.015-.036.005q.324 2.837.68 5.669c.113.886.222 1.773.343 2.657a14.5 14.5 0 0 0 .488 2.81.06.06 0 0 0 .116-.017 13.6 13.6 0 0 0-.274-2.657m-2.597-4.381c-.202-1.508-.434-3.01-.661-4.514-.005-.032-.061-.025-.058.008.153 1.563.302 3.126.481 4.686a31 31 0 0 0 .627 4.523.067.067 0 0 0 .13-.017 32 32 0 0 0-.52-4.686m-2.117-1.295a66 66 0 0 1-.41-3.433c-.004-.046-.076-.047-.074 0 .066 1.097.153 2.196.3 3.285a23 23 0 0 0 .623 3.348c.009.03.062.026.058-.008-.127-1.07-.346-2.126-.497-3.192m-2.15-2.784c-.005-.009-.017-.001-.013.007l.217.426c.005.009.017.002.013-.007zM212.42 39.205a39 39 0 0 0-3.703 1.958c-.252.156-.503.312-.767.448-.26.135-.494.309-.759.432a2.62 2.62 0 0 1-1.766.208c-.043-.013-.085.05-.046.08a2.13 2.13 0 0 0 1.568.489 4.4 4.4 0 0 0 1.908-.603 12.7 12.7 0 0 0 1.777-1.296c.627-.53 1.265-1.056 1.878-1.6.066-.06-.018-.15-.09-.116m4.779-3.913a24.4 24.4 0 0 1-3.855 5.284 19 19 0 0 1-2.433 2.121q-.644.474-1.32.905l-.648.405q-.195.121-.392.24l-.132.077a.3.3 0 0 0-.122.07.4.4 0 0 0-.402.027.36.36 0 0 0-.18.315c.085 1.34 2.05-.374 2.424-.673a26 26 0 0 0 2.793-2.6 25.5 25.5 0 0 0 4.305-6.15c.012-.024-.025-.047-.038-.021m92.156 19.936a18.6 18.6 0 0 1-2.642-2.766c-.39-.505-.764-1.02-1.106-1.56a4.2 4.2 0 0 1-.5-.883c-.097-.3-.047-.501-.355-.657a.078.078 0 0 0-.113.046c-.053.304.07.403.274.618a5 5 0 0 1 .557.9 17 17 0 0 0 1.103 1.63 18.7 18.7 0 0 0 2.662 2.792c.083.07.203-.049.12-.12m-8.586-4.47a.015.015 0 0 0-.025.015 24 24 0 0 1 1.325 3.19.03.03 0 0 0 .057-.016 11.7 11.7 0 0 0-1.357-3.19m-.059-14.754c-.242-.851-.38-1.72-.59-2.578a.03.03 0 0 0-.057.007 11.8 11.8 0 0 0 .469 2.62 17.6 17.6 0 0 0 .901 2.51c.032.072.158.02.128-.053a23 23 0 0 1-.851-2.506m-23.374 74.061q-.992-1.66-1.848-3.398-.88-1.786-1.612-3.641-.341-.869-.65-1.75c-.22-.632-.275-1.312-.517-1.93a.218.218 0 0 0-.42.116 15 15 0 0 0 .702 1.741c.219.584.434 1.168.668 1.745q.655 1.617 1.424 3.184.824 1.676 1.776 3.285c.372.63.86 1.105.583 1.84a4.5 4.5 0 0 1-.535 1.001c-.25.049-.382-.309-.522-.504a24.6 24.6 0 0 1-3.458-6.772 18 18 0 0 1-.917-3.743 9 9 0 0 0-.07-.925 2.3 2.3 0 0 0-.307-.676 2.35 2.35 0 0 1-.283-1.174.72.72 0 0 1 .265-.634l.48.215c.008.004.016-.008.007-.013q-.339-.196-.677-.394a.05.05 0 0 0-.074.03c-.2.66-.283 1.36-.515 2.01a1.6 1.6 0 0 0-.205.813 4 4 0 0 0 .303 1.027 32 32 0 0 0 1.656 3.748 53.5 53.5 0 0 0 4.184 7.33c.034.044.117.063.146 0q.237-.52.47-1.04c.065-.145.386-.61.362-.775a2.6 2.6 0 0 0-.416-.716m-4.062-12.054c-.032-.077-.16-.044-.128.036.464 1.16.924 2.32 1.431 3.463.016.034.074.01.061-.025-.425-1.17-.896-2.32-1.364-3.474m-4.388 6.687c-.153-.36-.3-.72-.477-1.07a.015.015 0 0 0-.027.012c.124.36.275.706.424 1.056.152.36.304.719.47 1.073.01.022.05.006.04-.017a30 30 0 0 0-.43-1.054m-41.937 51.683a56 56 0 0 1-8.176-.8c-.079-.015-.113.104-.033.122a28.7 28.7 0 0 0 8.209.752.037.037 0 0 0 0-.074m3.551-2.554a21.2 21.2 0 0 0-5.055-.21c-1.746.025-3.492.04-5.238.102a.03.03 0 0 0 0 .059c1.745.112 3.491.178 5.238.254a21.2 21.2 0 0 0 5.055-.063.074.074 0 0 0 0-.142m1.966-2.511a.87.87 0 0 0-.883-.16 6 6 0 0 1-1.223.219c-.82.037-1.683-.126-2.508-.162-1.637-.072-3.275-.084-4.91-.193-.054-.003-.067.086-.014.094a43 43 0 0 0 4.831.502c.814.024 1.607-.074 2.416-.083a6 6 0 0 1 1.408.192.88.88 0 0 0 .883-.2.124.124 0 0 0 0-.21m.91-2.167c-.004.008.002.017 0 .026a5.5 5.5 0 0 0-.735-.015l-.995-.005-1.915-.012a58 58 0 0 0-3.906.108.04.04 0 0 0 0 .08c1.89.159 3.772.194 5.667.226q.69.01 1.379.022c.237.004.655.09.826-.134.207-.27-.177-.568-.32-.296m1.496-2.157a2.7 2.7 0 0 0-1.374-.024q-.807.065-1.614.12-1.583.104-3.17.106a.052.052 0 0 0 0 .103c1.054.091 2.111.148 3.17.161q.778.01 1.554-.024a2.7 2.7 0 0 0 1.434-.232.123.123 0 0 0 0-.21m-.05-2.468a1.5 1.5 0 0 0-.458.059c-.163.033-.324.072-.488.104a9 9 0 0 1-.99.132.04.04 0 0 0 0 .08 8 8 0 0 0 1.013-.047 5 5 0 0 0 .481-.072 1.2 1.2 0 0 0 .466-.167.048.048 0 0 0-.024-.09m1.594-1.759-.477.173c-.022.008-.013.043.01.036l.479-.167c.027-.01.015-.052-.012-.042m10.611 39.848a5.1 5.1 0 0 0-1.72-.08c-.613.02-1.227.033-1.84.064-1.226.063-2.453.134-3.68.193a.033.033 0 0 0 0 .067c1.227.013 2.454.038 3.68.054.614.008 1.227-.002 1.84-.005a5.2 5.2 0 0 0 1.72-.144.078.078 0 0 0 0-.149m1.259-2.48c-2.664.285-5.345.37-8.019.51a.022.022 0 0 0 0 .044c2.678.073 5.349-.108 8.019-.288.171-.012.168-.283 0-.265m.257-2.505a.61.61 0 0 0-.692-.086c-.256.092-.429.307-.695.371a7.7 7.7 0 0 1-1.852.018c-1.151-.015-2.287.198-3.433.26a.059.059 0 0 0 0 .118 15.6 15.6 0 0 0 3.429.07c.583-.084 1.158-.275 1.747-.309.525-.03 1.14.483 1.543-.082a.3.3 0 0 0-.047-.36m-.048-2.489a.72.72 0 0 0-.48-.043 7 7 0 0 0-.593.096q-.577.112-1.158.2c-.823.125-1.639.29-2.467.373a.055.055 0 0 0 0 .11 17 17 0 0 0 2.524-.061q.612-.078 1.22-.188c.295-.053.809-.103.982-.382a.08.08 0 0 0-.028-.105m-.356-2.383a2 2 0 0 0-.633.059c-.224.048-.448.093-.669.154l-1.297.363c-.083.024-.047.142.035.128l1.335-.226c.218-.036.432-.088.647-.139a2 2 0 0 0 .614-.222.063.063 0 0 0-.031-.117m-.328-2.787a.2.2 0 0 0-.104.018.4.4 0 0 0-.087.069 1 1 0 0 0-.13.127l-.234.275a.081.081 0 0 0 .114.115l.275-.235a1 1 0 0 0 .123-.127 1 1 0 0 0 .067-.078.2.2 0 0 0 .023-.117.06.06 0 0 0-.047-.047m-4.341 30.166q-1.004-4.322-2.132-8.61c-.014-.051-.088-.03-.078.021a322 322 0 0 0 1.775 8.547c.63 2.825 1.16 5.714 2.058 8.47.027.08.172.073.16-.022-.38-2.833-1.136-5.626-1.783-8.406m-1.778 8.597-1.137-4.559c-.784-3.14-1.605-6.271-2.423-9.403a.063.063 0 0 0-.12.034c.708 3.107 1.413 6.214 2.156 9.313l1.096 4.57a33 33 0 0 0 1.292 4.68c.023.056.123.057.116-.016a32 32 0 0 0-.98-4.619m-1.938 8.631c-.29-.884-.589-1.764-.848-2.658q-.8-2.752-1.515-5.527-1.402-5.48-2.974-10.91a.03.03 0 0 0-.057.016c.791 3.69 1.715 7.343 2.797 10.958q.799 2.672 1.576 5.35c.26.893.491 1.793.73 2.69a10 10 0 0 0 .835 2.515.052.052 0 0 0 .096-.026 9.8 9.8 0 0 0-.64-2.408m-3.53 3.24a84 84 0 0 1-.762-2.53 32 32 0 0 1-1.203-5.389 26.6 26.6 0 0 0-1.33-4.712q-.77-2.61-1.566-5.21a.022.022 0 0 0-.043.011q.626 2.569 1.228 5.143c.2.859.409 1.719.549 2.59a11.4 11.4 0 0 0 .699 2.547 29.6 29.6 0 0 1 1.34 4.95c.178.867.336 1.733.478 2.607a4.46 4.46 0 0 0 .607 2.215.248.248 0 0 0 .412-.109 4.1 4.1 0 0 0-.409-2.113m-2.216 5.751c-.265-.776-.577-1.53-.813-2.317-.467-1.562-.838-3.16-1.24-4.74a239 239 0 0 1-1.152-4.765 24.3 24.3 0 0 0-1.303-4.431c-.036-.081-.183-.043-.171.046a27 27 0 0 0 1.147 4.475c.48 1.562.936 3.13 1.35 4.71.412 1.578.844 3.164 1.157 4.764.172.878.231 1.767.373 2.649.083.516.143 1.008.608 1.297a.124.124 0 0 0 .166-.044c.323-.526.064-1.1-.122-1.644m-1.936 7.815c-.324-.72-.68-1.425-.97-2.161a38 38 0 0 1-1.33-4.2c-.737-2.8-1.427-5.588-2.345-8.335a.055.055 0 0 0-.107.03 55.5 55.5 0 0 0 2.31 8.501c.454 1.341.91 2.69 1.278 4.057.184.685.32 1.38.482 2.07a2.3 2.3 0 0 0 .72 1.48.148.148 0 0 0 .217-.087 1.98 1.98 0 0 0-.255-1.355m-2.451 6.261c-.166-.618-.41-1.223-.618-1.829-.392-1.136-.799-2.268-1.2-3.401-.83-2.349-1.655-4.7-2.509-7.04-.01-.026-.05-.016-.042.012.661 2.262 1.35 4.516 2.034 6.77q.5 1.663 1.007 3.322a23 23 0 0 0 .995 3.001.134.134 0 0 0 .208.027c.287-.236.215-.524.125-.862m-5.233-.798a12 12 0 0 0-.267-1.325 15 15 0 0 0-.972-2.489c-.015-.032-.06-.007-.054.023.161.89.267 1.785.486 2.667q.157.63.34 1.253a6.3 6.3 0 0 0 .428 1.249c.04.073.135.03.144-.04a5.2 5.2 0 0 0-.106-1.337m2.13 9.566a6 6 0 0 0-.03-.76 10.6 10.6 0 0 0-.496-1.557c-.05-.147-.085-.3-.132-.449a2.96 2.96 0 0 0-.473-1.79l-.007-.002-.008-.033a1.4 1.4 0 0 0-.193-.61c-.026-.03-.068-.008-.08.021a1.4 1.4 0 0 0 .01.68q.046.39.096.777c.067.532.127 1.066.193 1.598a7.5 7.5 0 0 0 .272 1.532 4 4 0 0 0 .36.671c.138.235.252.489.414.709a.063.063 0 0 0 .116-.032c.008-.251-.032-.503-.042-.755m-5.029-2.981q-1.05-3.662-2.096-7.324a.03.03 0 0 0-.057.016l1.825 7.25a51 51 0 0 0 2.024 7.194c.024.057.134.06.123-.017a50.5 50.5 0 0 0-1.82-7.119m-1.522 9.616c-.397-1.57-.942-3.102-1.347-4.674-.798-3.09-1.586-6.181-2.456-9.251a.015.015 0 0 0-.028.007c.64 3.13 1.363 6.243 2.076 9.357.352 1.535.561 3.1.92 4.63a16.7 16.7 0 0 0 1.374 4.372.119.119 0 0 0 .22-.06 16.2 16.2 0 0 0-.759-4.38m-3.9 4.002c-.349-1.096-.593-2.22-.848-3.34-.5-2.198-1.102-4.373-1.697-6.547a.037.037 0 0 0-.07.02c.518 2.193 1.031 4.39 1.645 6.56.3 1.064.62 2.127.83 3.213a12.3 12.3 0 0 0 .645 3.191.226.226 0 0 0 .418-.113 11.7 11.7 0 0 0-.923-2.984m-2.595 5.678q-.097-.444-.21-.883c-.167-.66-.341-1.317-.512-1.975a234 234 0 0 1-.982-3.883c-.011-.047-.08-.027-.07.02.268 1.311.518 2.626.765 3.942l.363 1.938q.09.484.2.963a3 3 0 0 0 .36.86.07.07 0 0 0 .13-.035 3 3 0 0 0-.044-.947m-4.829.338a.018.018 0 0 0-.036.01 34 34 0 0 1 .524 3.839.022.022 0 0 0 .044 0 14.8 14.8 0 0 0-.532-3.849m40.067-18.326a59 59 0 0 0-1.155-3.2c-.017-.044-.087-.026-.072.02.367 1.072.672 2.159.932 3.261a18.6 18.6 0 0 0 .845 3.182c.03.07.136.03.137-.037a10.1 10.1 0 0 0-.688-3.226m-1.762 5.256c-.51-1.395-1.02-2.79-1.496-4.195a67 67 0 0 1-2.396-8.585c-.003-.014-.024-.008-.021.006a80 80 0 0 0 2.171 8.646c.417 1.421.81 2.849 1.2 4.277a17 17 0 0 0 1.385 4.155c.108.185.446.12.425-.115a17 17 0 0 0-1.268-4.189m-3.652 1.828c-.707-2.078-1.386-4.161-1.96-6.28a.074.074 0 0 0-.141.04c.505 2.172 1.026 4.345 1.655 6.486a27.4 27.4 0 0 0 2.296 6.073.096.096 0 0 0 .175-.074 55 55 0 0 0-2.025-6.245m-2.987 4.607a117 117 0 0 1-1.51-5.316c-.92-3.515-1.88-7.019-2.807-10.532a.022.022 0 0 0-.043.012c.858 3.533 1.76 7.05 2.793 10.536a270 270 0 0 1 1.486 5.163 27 27 0 0 0 1.474 5.018c.018.034.08.02.076-.02a29 29 0 0 0-1.47-4.86m-14.312 8.875a.033.033 0 0 0-.064.018 70.4 70.4 0 0 0 3.205 10.915c.023.056.111.035.093-.025-1.12-3.625-2.298-7.23-3.234-10.908m-3.289 2.066a.015.015 0 0 0-.028.008c.853 3.291 1.74 6.58 2.79 9.816a.022.022 0 0 0 .042-.012c-.944-3.269-1.922-6.526-2.804-9.812m-19.729 28.865a3 3 0 0 0-.699-.681 16 16 0 0 1-.799-.692q-.777-.714-1.57-1.408-.772-.676-1.56-1.332a10.4 10.4 0 0 0-1.656-1.234.011.011 0 0 0-.013.017 13.4 13.4 0 0 0 1.522 1.364q.807.679 1.597 1.377.768.68 1.52 1.377c.243.226.48.458.702.705a3.4 3.4 0 0 0 .75.713.152.152 0 0 0 .206-.206m2.489-4.128c-.758-.45-1.473-.964-2.186-1.484a46 46 0 0 0-4.296-2.951c-.028-.016-.063.024-.036.046 1.336 1.085 2.786 1.995 4.203 2.968a23 23 0 0 1 2.155 1.629c.536.469 1.155 1.236 1.907 1.313.068.007.091-.072.07-.122-.293-.683-1.215-1.042-1.817-1.399m5.807-1.678c-.293-.17-.585-.343-.88-.51-.631-.357-1.268-.707-1.902-1.06-1.268-.708-2.566-1.364-3.841-2.06a.063.063 0 0 0-.064.108c1.229.776 2.434 1.59 3.67 2.354.617.382 1.232.768 1.852 1.147q.436.262.873.52a1.5 1.5 0 0 0 .897.313.124.124 0 0 0 .105-.183 1.5 1.5 0 0 0-.71-.63m2.837-2.801a10 10 0 0 0-1.17-.54l-1.232-.457c-.031-.011-.053.04-.023.054l1.19.557a10 10 0 0 0 1.207.453.037.037 0 0 0 .028-.067m4.17-2.812a9 9 0 0 0-.885.061l-.892.126c-.065.009-.05.121.016.115l.897-.08a9 9 0 0 0 .874-.143.04.04 0 0 0-.01-.08M20.259 342.548c-2.261-.765-4.532-1.502-6.76-2.362-.026-.01-.037.032-.011.042a55 55 0 0 0 6.757 2.37.026.026 0 0 0 .014-.05m3.228-5.328c-3.704-1.65-7.472-3.155-11.233-4.67-.023-.009-.04.031-.017.04 3.724 1.603 7.447 3.219 11.228 4.685.03.012.053-.04.022-.054m8.407 3.265c-.441-.197-.901-.352-1.351-.526q-1.3-.5-2.57-1.073c-.38-.17-.715.378-.332.566q1.248.615 2.525 1.17c.443.192.886.388 1.343.545a2.3 2.3 0 0 0 .609.135c.153.009.384.048.468-.123.156-.314-.478-.599-.692-.694m9.35-1.778c-1.363-1.224-3.433-1.758-5.146-2.293a51 51 0 0 1-6.118-2.466c-3.693-1.709-7.366-3.417-11.124-4.981-.034-.015-.059.044-.025.06 3.694 1.84 7.456 3.45 11.257 5.05a58 58 0 0 1 5.706 2.667c1.61.897 3.468 2.076 5.348 2.208a.145.145 0 0 0 .102-.245m7.262-2.756a14.8 14.8 0 0 0-4.461-2.412 99 99 0 0 1-5.31-2.276 148 148 0 0 1-4.817-2.377 17.7 17.7 0 0 0-5.049-2.08.26.26 0 0 0-.198.47 19.5 19.5 0 0 0 4.743 2.042c1.819.654 3.61 1.353 5.367 2.161a47 47 0 0 1 4.753 2.511 17.3 17.3 0 0 0 4.772 2.306c.19.043.361-.2.2-.345m-2.047-7.915a26 26 0 0 0-3.219-1.94c-1.107-.542-2.245-.968-3.394-1.411-.093-.036-.158.117-.068.162 1.102.54 2.175 1.146 3.267 1.706 1.099.564 2.235 1.063 3.354 1.584a.059.059 0 0 0 .06-.101m10.214 5.416a6.84 6.84 0 0 0-2.851-1.76q-1.58-.708-3.184-1.368c-.226-.094-.389.291-.167.397a52 52 0 0 1 3.057 1.584 8.2 8.2 0 0 0 3.02 1.363.144.144 0 0 0 .125-.216m10.622-2.471a12 12 0 0 0-2.212-1.44 29 29 0 0 0-2.077-.88 44 44 0 0 1-5.035-2.315c-1.502-.809-2.951-1.71-4.44-2.544a52 52 0 0 0-4.8-2.232c-.115-.05-.215.105-.101.172a51 51 0 0 0 4.611 2.557c1.606.738 3.249 1.396 4.838 2.17a43 43 0 0 1 4.47 2.493c.737.478 1.479.95 2.256 1.363a12 12 0 0 0 2.39.892c.152.044.208-.153.1-.236m2.215-5.722c-2.936-1.58-5.887-3.082-8.94-4.42-.106-.047-.2.1-.093.158 2.934 1.588 5.936 2.992 8.987 4.338.051.023.096-.048.045-.076m9.405 4.388a2.7 2.7 0 0 0-1-.511q-.559-.221-1.096-.489a15 15 0 0 1-2.034-1.227c-.23-.162-.443.213-.22.376a16 16 0 0 0 2.086 1.286q.527.274 1.073.508a2.16 2.16 0 0 0 1.134.272.13.13 0 0 0 .057-.215m8.102-2.324a27.5 27.5 0 0 0-4.294-2.325 203 203 0 0 0-4.422-2.093 225 225 0 0 0-8.716-3.774c-.042-.018-.073.055-.031.074a333 333 0 0 1 8.809 4.198c1.46.72 2.911 1.458 4.364 2.193a32 32 0 0 0 4.176 1.996c.17.057.239-.177.114-.27m10.079-1.203a6.7 6.7 0 0 0-2.062-1.242c-.766-.365-1.537-.722-2.295-1.102-1.602-.803-3.198-1.616-4.804-2.41a72.5 72.5 0 0 0-9.553-3.936c-.031-.01-.054.04-.023.054 3.179 1.421 6.377 2.795 9.564 4.197a85 85 0 0 1 4.593 2.18c.796.41 1.573.86 2.344 1.314a7.3 7.3 0 0 0 2.171 1.055.067.067 0 0 0 .065-.11m7.499-2.257a8.2 8.2 0 0 0-2.397-1.184c-.965-.37-1.94-.716-2.905-1.083a131 131 0 0 1-5.831-2.36c-.043-.018-.08.043-.037.064 1.85.92 3.704 1.835 5.579 2.707.866.403 1.732.808 2.61 1.186a8.4 8.4 0 0 0 2.887.896.134.134 0 0 0 .094-.226m10.317-1.639c-.25-.507-.818-.606-1.32-.8l-2.17-.837c-1.351-.521-2.698-1.054-4.055-1.558-2.807-1.042-5.639-2.007-8.462-3-.047-.017-.08.06-.034.08 2.675 1.154 5.339 2.33 8.03 3.446 1.34.556 2.692 1.08 4.04 1.614l2.02.802c.577.229 1.253.69 1.87.453a.14.14 0 0 0 .081-.2m8.381-1.331a14 14 0 0 0-2.862-1.17q-1.498-.537-3.005-1.049c-2.045-.696-4.116-1.317-6.19-1.921a.037.037 0 0 0-.02.07c2.018.665 4.02 1.375 6.025 2.079q1.447.508 2.886 1.038a17.6 17.6 0 0 0 3.12 1.06.06.06 0 0 0 .046-.107m4.486-2.257c-1.798-.598-3.632-1.08-5.429-1.685-.036-.012-.05.043-.015.057a25.4 25.4 0 0 0 5.428 1.685.03.03 0 0 0 .016-.057m5.626-1.49a18.5 18.5 0 0 0-2.415-.33c-.032-.003-.04.052-.008.058a18.5 18.5 0 0 0 2.414.337.033.033 0 0 0 .009-.065m5.273-.626-.641.164a.026.026 0 0 0 .013.05l.638-.178a.018.018 0 0 0-.01-.036m28.908-10.247a41 41 0 0 0-4.248-.966c-1.428-.288-2.853-.6-4.256-.993a.052.052 0 0 0-.027.1c1.397.502 2.802.979 4.237 1.36a16.6 16.6 0 0 0 4.272.666.085.085 0 0 0 .022-.167m7.547-3.223c-2.09-.288-4.208-.288-6.298-.598-2.108-.313-4.158-.829-6.227-1.33-.027-.006-.048.035-.02.047a25.5 25.5 0 0 0 6.239 1.753 19.4 19.4 0 0 0 6.306.248c.06-.01.061-.112 0-.12m2.728-2.721a32 32 0 0 0-3.888-.546c-1.33-.133-2.661-.268-3.987-.438-.021-.003-.025.031-.005.036a24.6 24.6 0 0 0 7.86 1.1c.082-.007.11-.132.02-.152m3.05-2.891a5.7 5.7 0 0 0-1.054-.047c-.39-.004-.781-.002-1.171-.004a18 18 0 0 1-2.283-.156c-.062-.009-.075.094-.015.108a16 16 0 0 0 2.254.361 9 9 0 0 0 1.128.027 3.7 3.7 0 0 0 1.142-.175c.048-.02.063-.1 0-.114m3.189-1.79a7 7 0 0 0-1.121.06l-1.122.102c-.089.008-.09.147 0 .14l1.144-.094a7 7 0 0 0 1.11-.135.037.037 0 0 0-.01-.073m120.89-15.888c-.047-.054-.12.024-.078.078 1.824 2.304 3.532 4.697 5.288 7.052.036.048.116.006.083-.048a55 55 0 0 0-5.293-7.082m8.847 4.435c-1.735-2.526-3.444-5.078-5.066-7.678a.044.044 0 0 0-.076.044c1.54 2.706 3.12 5.381 4.81 7.997a51.6 51.6 0 0 0 5.362 7.324.067.067 0 0 0 .104-.08c-1.525-2.646-3.405-5.092-5.134-7.607m10.808 7.575c-1.093-1.418-2.121-2.88-3.199-4.31a55 55 0 0 1-5.937-8.874c-.023-.048-.09-.006-.07.04a41 41 0 0 0 5.601 8.816c1.14 1.433 2.365 2.782 3.404 4.295q.777 1.129 1.479 2.306a11.2 11.2 0 0 0 1.38 2.086.067.067 0 0 0 .11-.065c-.416-1.589-1.785-3.02-2.768-4.294m7.388 2.96-3.138-4.636c-2.095-3.095-4.246-6.145-6.405-9.196-.046-.064-.152-.006-.109.064 2.001 3.147 4.005 6.286 6.072 9.39l3.016 4.529a23.5 23.5 0 0 0 3.203 4.446c.065.06.195.002.16-.093a22.7 22.7 0 0 0-2.8-4.503m8.284 4.454c-.456-.751-.93-1.49-1.397-2.234-.915-1.456-1.825-2.917-2.756-4.363a53 53 0 0 0-5.747-7.613c-.02-.021-.05.01-.031.031a62 62 0 0 1 5.602 8.015c.847 1.386 1.676 2.783 2.51 4.177.424.709.843 1.42 1.277 2.124a8.3 8.3 0 0 0 1.483 2.022.063.063 0 0 0 .105-.06 7.8 7.8 0 0 0-1.046-2.1m3.25-2.81c-1.413-2.032-2.948-3.974-4.543-5.865-.014-.016-.042.005-.03.022 1.477 2.014 2.892 4.073 4.289 6.142 1.4 2.075 2.692 4.228 4.142 6.27a.074.074 0 0 0 .127-.075 48.6 48.6 0 0 0-3.985-6.494m12.15 10.196c-1.404-2.79-3.441-5.234-4.943-7.973a48.4 48.4 0 0 0-5.487-7.293c-.035-.042-.108.014-.075.058 1.758 2.411 3.252 5.077 5.18 7.353 2.062 2.434 3.381 5.333 5.166 7.948a.092.092 0 0 0 .16-.093m-3.208-11.735c-.02-.025-.065.009-.046.036a156 156 0 0 1 4.922 7.262.037.037 0 0 0 .064-.037 45.3 45.3 0 0 0-4.94-7.26m9.113 13.635q-.477-.863-.922-1.743c-.033-.064-.125-.008-.096.056q.412.898.857 1.781a8 8 0 0 0 .971 1.655.044.044 0 0 0 .074-.043 11 11 0 0 0-.884-1.706m4.995.407-2.3-3.442q-2.3-3.444-4.626-6.87c-.007-.012-.026-.001-.019.011q2.29 3.53 4.599 7.045l2.274 3.458c.73 1.11 1.405 2.302 2.244 3.333.043.054.122-.015.092-.071a41 41 0 0 0-2.264-3.464m7.127 3.661q-.95-1.341-1.902-2.681l-3.93-5.54c-.012-.016-.037-.001-.026.014l3.93 5.668c1.262 1.818 2.437 3.768 3.856 5.469.027.032.078-.01.058-.045-.587-1.006-1.313-1.936-1.986-2.885m8.204 4.845c-.92-.979-1.924-1.876-2.848-2.853a60 60 0 0 1-2.683-3.004c-.018-.022-.048.01-.031.031a44 44 0 0 0 2.645 3.119 25 25 0 0 0 2.881 2.753c.028.021.058-.023.036-.046m6.908 1.753c-.713-.732-1.46-1.427-2.19-2.14a.022.022 0 0 0-.032.03c.687.758 1.354 1.532 2.059 2.273.705.74 1.426 1.46 2.172 2.159a.048.048 0 0 0 .068-.068 54 54 0 0 0-2.077-2.254M358.264 250.4a20.5 20.5 0 0 0-2.856-2.438c-1.02-.759-2.057-1.488-3.086-2.235-.033-.024-.076.03-.044.058.96.835 1.904 1.685 2.874 2.508a20.5 20.5 0 0 0 3.014 2.233.081.081 0 0 0 .098-.127m4.625.514c-1.16-1.115-2.481-2.06-3.709-3.1a107 107 0 0 1-3.639-3.2.026.026 0 0 0-.036.036 65 65 0 0 0 3.546 3.391 26.4 26.4 0 0 0 3.77 2.96.055.055 0 0 0 .068-.087m3.987-.923a16 16 0 0 0-1.876-1.366q-1.015-.685-2.009-1.4c-1.359-.978-2.71-1.961-4.025-3-.065-.051-.16.038-.093.094 1.231 1.045 2.484 2.077 3.789 3.03q.988.724 1.998 1.418a12.5 12.5 0 0 0 2.158 1.3c.046.02.102-.035.058-.075m2.41-.978c-1.499-.858-3.028-1.661-4.478-2.602-.032-.021-.06.029-.03.05a21.8 21.8 0 0 0 4.482 2.612c.036.015.058-.042.026-.06m1.406-1.607-1.06-.529c-.043-.021-.08.042-.038.064l1.05.547c.351.183.708.35 1.068.516.025.011.047-.024.022-.039a25 25 0 0 0-1.042-.56m53.393 78.234c-.037-.043-.098.02-.062.062 1.479 1.782 2.947 3.57 4.499 5.29.029.032.073-.014.047-.047-1.443-1.813-2.968-3.554-4.484-5.305m9.36 3.963q-3.706-4.26-7.152-8.733c-.015-.019-.046 0-.032.018a154 154 0 0 0 6.863 8.622 95 95 0 0 0 7.715 8.256.037.037 0 0 0 .052-.053c-2.45-2.733-5.034-5.34-7.446-8.11m9.604 4.098q-2.433-2.664-4.651-5.512c-.023-.029-.075.01-.052.04q2.162 2.836 4.531 5.503a46 46 0 0 0 5.13 5.212.04.04 0 0 0 .057-.057c-1.611-1.783-3.393-3.41-5.015-5.187"/><path fill="currentColor" d="M484.19 264.101c-5.781-1.386-11.79-1.094-17.684-.765-5.932.331-11.844 1.16-17.79 1.046a63 63 0 0 1-4.945-.289 54 54 0 0 1-2.675-.317 10 10 0 0 0-1.51-.18c-1.497-.489-2.994-.978-4.496-1.451-7.854-2.472-15.648-5.132-23.406-7.887-7.715-2.74-15.395-5.573-23.072-8.416a22.7 22.7 0 0 1-5.175-2.227c-1.442-1.002-2.507-2.46-3.904-3.526a18.54 18.54 0 0 0-9.415-3.269c-4.355-.47-8.81-.025-13.109-1.003a13.3 13.3 0 0 1-8.733-5.836.5.5 0 0 0-.39-.237c-.027-.104-.049-.21-.076-.313a10.8 10.8 0 0 0-2.093-4.722c-.546-.609-1.197-1.108-1.774-1.684a9.1 9.1 0 0 1-1.632-2.324c-.804-1.563-1.346-3.257-2-4.885q-.994-2.473-2.092-4.903a149 149 0 0 0-4.764-9.577c-3.404-6.299-7.18-12.389-11.047-18.411q-5.859-9.125-11.74-18.236c-3.85-5.994-7.351-12.17-10.85-18.365a281 281 0 0 0-1.092-6.092 7.9 7.9 0 0 0-1.402-3.858 20.7 20.7 0 0 0-3.218-2.534 41.3 41.3 0 0 1-5.895-5.754c-1.936-2.244-3.734-4.595-5.585-6.907.131-.1.256-.206.397-.297 1.987-1.28 4.137-2.326 6.163-3.55a123.7 123.7 0 0 0 22.733-17.657 39 39 0 0 1 5.066-4.691c1.976-1.351 4.306-1.926 6.447-2.942 4.116-1.954 7.121-5.75 9.538-9.5 2.39-3.707 4.152-8.064 3.287-12.534-.716-3.695-3.803-7.986-8.022-7.664-2.438.186-4.456 1.936-6.381 3.274l-6.514 4.524c-4.29 2.98-8.568 5.98-12.88 8.931a239 239 0 0 1-5.82 3.872c.403-.337.812-.666 1.21-1.008 3.827-3.282 7.481-6.756 11.259-10.094a104.6 104.6 0 0 1 12.065-9.315c4.5-2.936 9.188-5.59 13.522-8.777a41.4 41.4 0 0 0 10.1-10.12 23.2 23.2 0 0 0 4.284-12.713c-.027-3.49-1.622-7.925-5.3-9.028-2.24-.672-4.46.288-6.253 1.605-2.085 1.532-4.016 3.288-6.035 4.907l-.144.113a24.7 24.7 0 0 0 4.768-6.89 17.8 17.8 0 0 0 1.66-9.56 9.32 9.32 0 0 0-3.934-6.623 5.28 5.28 0 0 0-3.634-.72 9.04 9.04 0 0 0-4.123 2.25c-2.61 2.15-4.995 4.56-7.378 6.955-2.38 2.39-4.763 4.787-7.37 6.931-2.702 2.223-5.754 3.823-8.641 5.77a30 30 0 0 0-7.187 7.398c-2.176 2.941-4.405 5.812-6.838 8.547-4.867 5.47-10.18 10.557-15.509 15.573a49.7 49.7 0 0 1-8.395 6.659c-3.025 1.81-6.252 3.276-8.929 5.615-.43.376-.834.782-1.239 1.187q-.061-.044-.127-.083l-.006-.003a7 7 0 0 0-.575-.592 12 12 0 0 0-.787-.643q-.043-.03-.088-.058l-.594-1.184-1.266-2.522-2.533-5.044a33.2 33.2 0 0 0-5.466-8.447c-2.294-2.377-5.039-4.262-7.339-6.635a66 66 0 0 1-6.271-7.968A224.6 224.6 0 0 0 203.063 7.32q-1.84-1.794-3.723-3.545a23 23 0 0 0-3.517-2.97 5.785 5.785 0 0 0-7.658 1.705c-1.744 2.286-2.08 5.39-1.975 8.228-2.277.77-2.448 4.191-2.494 6.241a43 43 0 0 0 1.377 10.817 149 149 0 0 0 2.735 9.96 44.4 44.4 0 0 0 3.616 8.783 25 25 0 0 0 2.597 3.748c1.074 1.28 2.332 2.375 3.507 3.558 2.452 2.468 3.967 5.676 5.758 8.621a171 171 0 0 0 12.27 17.603 44 44 0 0 1 3.425 4.752 40 40 0 0 1 2.595 5.455c.786 1.937 1.56 3.879 2.34 5.818.375.934.744 1.869 1.143 2.792a15 15 0 0 0 .7 1.523q.155.262.317.519c-.099.089-.193.18-.292.27a300 300 0 0 1-5.439 4.754c-3.287-3.067-6.708-5.962-9.72-9.315-2.706-3.01-4.97-6.621-8.417-8.865-1.805-1.176-3.893-1.815-5.692-3.01a59 59 0 0 1-5.317-4.346q-5.343-4.538-10.934-8.772a200 200 0 0 0-5.79-4.261c-1.48-1.04-3.17-1.355-4.608-.052a7.4 7.4 0 0 0-1.987 4.97 23.3 23.3 0 0 0 .53 6.81c1.639 7.905 5.177 15.902 10.934 21.668a53 53 0 0 0 5.614 4.641 73 73 0 0 1 5.962 5.07c1.813 1.711 3.551 3.499 5.251 5.32a43.5 43.5 0 0 0 5.146 5.278c-1.194.756-2.375 1.529-3.506 2.362a8.2 8.2 0 0 0-2.35 2.537 19 19 0 0 0-1.359 3.424q-1.284 3.838-2.563 7.678c-3.418 10.243-6.833 20.488-10.559 30.625-3.743 10.183-7.793 20.261-12.428 30.074a324 324 0 0 1-15.767 28.931c-2.59 4.29-5.093 8.679-7.952 12.798-2.425 3.494-5.313 6.855-9.163 8.81a17 17 0 0 1-2.794 1.133 38 38 0 0 1-2.038-.185 44 44 0 0 0-7.167-.79 33.3 33.3 0 0 0-7.023 1.52 47 47 0 0 1-7.16 1.253c-4.907.514-9.85.74-14.772 1.088q-30.27 2.138-60.59 2.914c-5.625.15-11.253.229-16.878.398-1.466.044-2.915.232-4.377.27l-1.21.032a362 362 0 0 1-9.377.014.054.054 0 0 0 0 .108c1.166.04 2.331.068 3.497.094-1.909.1-3.816.213-5.728.288a.055.055 0 0 0 0 .11c2.607.068 5.21.237 7.816.261 1.25.012 2.501.012 3.752.01 1.26-.002 2.494.091 3.751.138 2.596.097 5.219-.042 7.815-.087 2.5-.043 5.001-.104 7.502-.167 10.21-.256 20.416-.63 30.621-1.056 10.096-.421 20.195-.84 30.286-1.376 5.064-.268 10.13-.546 15.187-.94a72 72 0 0 0 7.424-.902c2.338-.431 4.554-1.2 6.846-1.802a20.8 20.8 0 0 1 8.05-.161 37.1 37.1 0 0 0 14.45-1.036l.04.001c.012 0 .014-.012.023-.017a38 38 0 0 0 4.412-1.51c.056.011.111.026.167.035.06.01.111-.078.045-.107l-.021-.008a41 41 0 0 0 1.935-.87c.068.01.136.033.204.04a.055.055 0 0 0 .028-.102c-.018-.01-.04-.014-.058-.023.298-.145.598-.284.892-.439.158-.083.019-.305-.138-.235-.4.176-.806.334-1.211.495a20 20 0 0 0-1.35-.434c-.624-.183-1.252-.356-1.879-.531q-1.951-.548-3.93-1a.01.01 0 0 0-.006.02q1.915.67 3.863 1.246c.624.184 1.247.373 1.874.55.355.1.714.203 1.076.293a40 40 0 0 1-2.003.712c-.945-.348-1.932-.604-2.895-.88a112 112 0 0 0-3.264-.87c4.057-3.71 7.039-8.994 9.76-13.413 5.817-9.444 11.558-18.952 16.503-28.89 4.832-9.71 9.046-19.718 12.907-29.85 3.88-10.182 7.401-20.495 10.854-30.827q1.284-3.84 2.556-7.685l1.296-3.91c.412-1.242.764-2.532 1.298-3.728 1.058-2.368 3.412-3.673 5.45-5.107q3.521-2.48 6.992-5.027a79 79 0 0 0 3.263-2.542.14.14 0 0 0 .047-.144 172 172 0 0 0 14.714-12.052l.01.028c-.509 1.846-.82 3.769-1.223 5.639-.352 1.637-.798 3.278-1.053 4.938l-1.117.979c.068-.317.123-.639.181-.956.151-.822.307-1.644.45-2.467.298-1.713.599-3.424.882-5.139.003-.022-.03-.032-.034-.01-.351 1.666-.685 3.334-1.021 5.001-.165.819-.32 1.64-.476 2.46-.085.446-.158.899-.25 1.346a275 275 0 0 1-5.276 4.54 50 50 0 0 1-6.575 4.737 35.8 35.8 0 0 0-6.236 4.13c-3.405 3.127-4.962 7.622-6.263 11.93-.488 1.617-.946 3.241-1.46 4.849-.107.24-.21.483-.318.722-1.384 3.046-2.855 6.06-4.347 9.055-.791 1.588-1.67 3.121-2.499 4.689-.262.497-.502 1.01-.747 1.52l-.025.04c-.004.006 0 .011-.003.016-.492 1.028-.97 2.065-1.444 3.095-1.422 3.083-2.738 6.24-4 9.39-1.427 3.566-2.85 7.17-4.018 10.83-.041.13.167.222.222.094 2.724-6.314 5.898-12.39 8.981-18.536.773-1.54 1.468-3.123 2.19-4.689.748-1.623 1.313-3.325 2.024-4.966.145-.333.296-.663.443-.995a59 59 0 0 0 3.43-6.99 84 84 0 0 0 2.477-6.84 57 57 0 0 1 2.34-6.473 17.7 17.7 0 0 1 3.638-5.43 31 31 0 0 1 6.215-4.145c4.584-2.691 8.512-6.313 12.493-9.798l10.948-9.584c.047.048.08.11.13.157.017.016.042.007.065.01 1.273 2.464 2.58 4.912 3.609 7.487.127.318.24.64.358.962-.464 1.411-.924 2.824-1.412 4.227-.433 1.244-.926 2.492-1.315 3.76-.625.45-1.259.89-1.89 1.334a102 102 0 0 0 3.353-10.577.031.031 0 0 0-.06-.016c-1.07 3.603-2.365 7.134-3.477 10.723-.292.203-.579.414-.872.615a5.6 5.6 0 0 1-.89-.137c.266-.728.53-1.456.775-2.19.118.019.234.043.353.058a8 8 0 0 0 .818.06.03.03 0 0 0 .008-.058 8 8 0 0 0-.806-.152c-.11-.015-.221-.02-.332-.031.195-.587.393-1.173.586-1.761.637-1.936 1.282-3.878 1.83-5.84.006-.02-.022-.027-.03-.01-.746 1.902-1.405 3.844-2.065 5.777q-.307.902-.61 1.806l-.186-.018a.048.048 0 0 0-.013.094l.164.027c-.245.727-.47 1.46-.695 2.192l-.324-.072a10 10 0 0 0-1.08-.179c.754-2.326 1.371-4.702 1.956-7.068a.01.01 0 0 0-.019-.005c-.675 2.364-1.45 4.699-2.187 7.044a14 14 0 0 0-1.658-.057.03.03 0 0 0-.007.057 14 14 0 0 0 1.552.36c-.16.51-.31 1.021-.463 1.532q-.315-.032-.63-.074c-.334-.045-.664-.107-.996-.164.188-.601.364-1.206.535-1.806q.455-1.588.87-3.185a.016.016 0 0 0-.03-.009q-.44 1.592-.917 3.172c-.182.604-.373 1.207-.558 1.812-.144-.024-.287-.051-.431-.07-.415-.05-.828-.078-1.243-.108q.337-1.05.625-2.117a.014.014 0 0 0-.027-.008 94 94 0 0 1-.677 2.118c-.128-.008-.255-.026-.383-.033-.049-.003-.061.079-.012.087.12.019.241.031.361.05q-.301.904-.599 1.81c-.006.02.023.027.03.008.238-.596.446-1.2.644-1.808.386.057.77.115 1.159.159.171.02.343.03.515.043-.123.405-.247.81-.352 1.22a.018.018 0 0 0 .034.01c.154-.4.285-.811.415-1.222.343.024.687.047 1.03.088.207.025.412.058.618.091l-.24.81c-.493.301-.99.598-1.495.876l-.073.036a15 15 0 0 1-1.512-.112l-3.727-.365c-.034-.003-.033.048 0 .051l3.727.46c.38.046.76.091 1.137.151a30 30 0 0 1-3.389 1.498c-.597-.078-1.193-.169-1.795-.219-.996-.082-1.999-.099-2.997-.142-.053-.002-.05.075 0 .082 1.444.186 2.875.362 4.32.453-.744.266-1.495.521-2.262.762a10.6 10.6 0 0 0-5.395 3.24 21 21 0 0 0-2.825 5.891c-.3.781-.618 1.556-.93 2.332.007-1.008.015-2.016.05-3.025q.026-.774.08-1.546l.052-.741c.022-.289.007-.576.023-.863 0-.013-.02-.016-.023-.003-.046.253-.12.485-.151.743q-.047.37-.083.74c-.05.535-.08 1.072-.102 1.608a23 23 0 0 0 .089 3.222c0 .005.006.004.008.007-.682 1.691-1.372 3.38-2.023 5.082-.948 2.482-1.791 4.991-2.789 7.456-.015.038.05.067.068.028 1.077-2.43 2.293-4.782 3.417-7.19 1.102-2.363 2.105-4.771 3.203-7.136a21.2 21.2 0 0 1 3.363-5.7c1.568-1.67 3.677-2.22 5.802-2.855 4.521-1.35 8.41-3.934 12.225-6.638q6.41-4.546 12.812-9.105l12.99-9.24a21.4 21.4 0 0 0 5.254-4.57 27 27 0 0 1 2.052-2.772 12 12 0 0 1 2.286-1.868c3.591-2.285 7.904-3.298 11.777-5.007a99 99 0 0 0 12.68-6.88 253 253 0 0 0 5.725-3.727 4.5 4.5 0 0 0-.207.796c-.163 1.033.757 2.044 1.384 2.76.892 1.018 1.708 2.076 2.51 3.166.465.632.994 1.746 1.895 1.79a.094.094 0 0 0 .08-.142 29.4 29.4 0 0 1-3.32-7.006c-.054-.17-.327-.096-.27.075a30.4 30.4 0 0 0 3.308 6.83c-.5-.136-.82-.64-1.107-1.044q-.424-.598-.845-1.199a36 36 0 0 1-1.702-2.633 13 13 0 0 0-.801-1.224c-.142-.19-.3-.363-.448-.548a1.04 1.04 0 0 1-.306-1.072 9 9 0 0 1 .24-.816c4.917-3.293 9.75-6.724 14.59-10.127a5 5 0 0 0-.146.963A4.12 4.12 0 0 0 318.6 76c1.432.856 3.056-.056 4.374-.732a26 26 0 0 0 2.413-1.444 12.3 12.3 0 0 0 2.163-1.652.544.544 0 0 0 .085-.651c-1.639-2.136-1.43-4.666-.494-7.021.1-.038.197-.087.3-.12 2.053-.636 4.104.625 5.336 2.218 2.556 3.304 2.164 7.82.555 11.437a31.6 31.6 0 0 1-3.494 5.782 25 25 0 0 1-4.544 4.891 25.6 25.6 0 0 1-6.05 3.166 18.4 18.4 0 0 0-5.539 3.644c-1.69 1.6-3.287 3.295-4.985 4.89q-2.583 2.426-5.305 4.7a121 121 0 0 1-11.324 8.386q-2.966 1.94-6.041 3.708c-1.882 1.081-4.055 1.98-5.596 3.55-1.633 1.665-2.708 3.948-3.944 5.907q-2.063 3.271-4.217 6.483-2.113 3.149-4.311 6.238c-1.393 1.957-2.775 3.94-4.354 5.755a25.7 25.7 0 0 1-5.166 4.4 7.27 7.27 0 0 0-3.352 4.735c-.016.076-.024.158-.037.236a22.7 22.7 0 0 0-1.588 4.48 34.8 34.8 0 0 0-.561 7.382c0 4.814.313 9.987-1.88 14.43a19 19 0 0 1-1.796 2.858 10 10 0 0 1-2.582 2.622.144.144 0 0 0 .145.248c.358-.15.692-.322 1.025-.495a5 5 0 0 0 .026.624 23 23 0 0 0 .41 3.293c-.083.69-.156 1.38-.221 2.061q-.209 2.178-.447 4.348a77 77 0 0 0-1.409-9.621.011.011 0 0 0-.022.003 77 77 0 0 0 1.316 10.67c-.213 1.818-.46 3.632-.765 5.441-.029.17-.069.337-.098.506a133 133 0 0 0-2.36-13.571c-.006-.028-.054-.023-.05.007a133 133 0 0 0 2.31 13.64c.01.042.055.038.083.013a136 136 0 0 1-5.38 20.566c-2.379 6.957-5.192 13.762-8.232 20.455-2.88 6.338-5.608 12.88-9.69 18.565-4.641 6.465-11.222 10.997-17.846 15.226a.155.155 0 0 0 .156.267c6.072-3.407 12.306-6.792 16.916-12.142 4.601-5.341 7.7-11.783 10.725-18.095a209 209 0 0 0 9.171-22.133c.672 2.574 1.39 5.134 2.104 7.697.355 1.273.754 2.545 1.03 3.838a11.7 11.7 0 0 0 .423 1.892c.254.643.61 1.252.884 1.889.036.082.147.018.135-.057-.115-.705-.134-1.445-.285-2.14a13 13 0 0 0-.648-1.724c-.481-1.287-.844-2.625-1.247-3.937-.775-2.524-1.544-5.049-2.36-7.56a168 168 0 0 0 1.79-5.48c.903 4.236 2.294 8.358 3.434 12.532.599 2.19 1.192 4.383 1.717 6.593.538 2.265 1.042 4.525 1.774 6.737a.081.081 0 0 0 .156-.043c-.406-2.244-1.038-4.416-1.663-6.607-.638-2.233-1.224-4.48-1.816-6.726-1.12-4.252-2.046-8.584-3.527-12.732a148 148 0 0 0 1.773-6.275 113 113 0 0 0 3.409 13.665c.652 2.264 1.32 4.522 1.967 6.786.534 1.866.925 3.865 1.652 5.688q-.385 1.85-.83 3.688c-1.714 7.041-3.794 14.201-7.776 20.327-1.197 1.842-2.536 3.579-3.866 5.323-.251.244-.482.511-.721.769a12 12 0 0 0-.856-4.262c-.506-1.787-1.037-3.567-1.558-5.35q-1.562-5.348-3.094-10.705a.037.037 0 0 0-.071.02q1.346 5.248 2.653 10.505c.425 1.703.846 3.406 1.275 5.107.422 1.669.973 3.325 1.355 5-.064.073-.138.136-.2.213-.823 1.012-1.524 2.128-2.263 3.204-.242-1.436-.67-2.864-1.043-4.257q-.745-2.777-1.492-5.553c-.982-3.653-2.038-7.284-3.099-10.914a.063.063 0 0 0-.12.033c.895 3.676 1.794 7.35 2.769 11.005l1.441 5.406a44 44 0 0 0 1.346 4.568q-1.796 2.613-3.595 5.225c-.765-3.365-1.69-6.692-2.486-10.05q-1.21-5.104-2.319-10.23c-.014-.066-.11-.038-.1.027q.92 5.171 2.135 10.28c.802 3.385 1.606 6.783 2.69 10.09-.263.38-.522.763-.786 1.142a24.2 24.2 0 0 1-5.147 5.555c-2.036 1.56-4.191 2.987-6.321 4.416a71.4 71.4 0 0 1-13.43 7.234 66 66 0 0 1-7.72 2.505c-.271-.229-.53-.476-.792-.715-.561-.512-1.102-1.046-1.644-1.578-.527-.518-1.051-1.035-1.6-1.528a18 18 0 0 0-1.494-1.25c.682-.584 1.361-1.17 2.045-1.75.098-.083-.033-.256-.138-.179-10.279 7.486-20.698 15.22-32.168 20.806-12.29 5.984-26.008 8.233-39.288 10.971-13.452 2.774-26.932 5.408-40.376 8.22-13.36 2.793-26.7 5.731-39.885 9.271a345 345 0 0 0-38.891 12.575 63 63 0 0 0-4.42 1.955c-.105.052-.03.22.08.188 3.289-.93 6.504-2.092 9.75-3.16a514 514 0 0 1 9.78-3.082q9.807-3.011 19.731-5.63c13.255-3.497 26.626-6.558 40.033-9.405 13.436-2.854 26.915-5.496 40.372-8.245 6.74-1.376 13.481-2.761 20.197-4.253a113.3 113.3 0 0 0 19.642-5.88 99.6 99.6 0 0 0 18.272-10.323c-.007.018-.018.033-.024.052-.049.147.134.213.233.136a13.6 13.6 0 0 1 2.766-1.785 18 18 0 0 1 3.561-1.074c2.557-.546 5.174-.728 7.757-1.102a65.4 65.4 0 0 0 14.323-3.783 71.3 71.3 0 0 0 13.403-7.002c4.16-2.743 8.668-5.456 11.732-9.463 1.81-2.364 3.427-4.887 5.113-7.34.526-.766 1.061-1.528 1.59-2.293 1.879-2.269 3.712-4.577 5.407-6.987a45.7 45.7 0 0 0 5.02-9.18 91 91 0 0 0 3.453-10.724c.374-1.403.716-2.816 1.04-4.232a72 72 0 0 0 2.56 10.356 75.7 75.7 0 0 0 6.832 15.376 35 35 0 0 0 10.639 11.683 55 55 0 0 0 7.505 4.008c2.7 1.238 5.44 2.39 8.228 3.412a106.3 106.3 0 0 0 19.508 4.915c.01.002.017-.006.027-.006 4.775 2.482 9.772 4.523 14.728 6.613l34.592 14.591 34.75 14.657 34.59 14.59 17.455 7.362c5.76 2.43 11.472 4.912 17.412 6.873 1.463.484 2.906 1.026 4.352 1.558.25.092.423-.315.182-.43-2.78-1.33-5.502-2.774-8.283-4.103-2.816-1.346-5.69-2.541-8.566-3.754l-17.295-7.296-34.59-14.592-34.432-14.525-34.592-14.592c-5.39-2.274-10.804-4.5-16.129-6.921a129 129 0 0 1-14.978-7.556c-1.17-.73-2.353-1.436-3.53-2.155-.134-.081-.289.112-.17.22a64.4 64.4 0 0 0 13.071 8.715c-5.092-1.364-10.077-3.034-15.012-4.899a110.5 110.5 0 0 1-15.713-6.964 31.96 31.96 0 0 1-11.177-10.784 73.3 73.3 0 0 1-7.032-14.719q-1.608-4.462-2.809-9.046c-.52-1.978-.96-3.976-1.4-5.974a104.4 104.4 0 0 0 1.885-14.924 89 89 0 0 0-.01-9.222c1.055-2.46 1.947-4.994 2.846-7.512l3.14-8.803q2.793-7.826 5.56-15.66c.403 2.595.76 5.197 1.098 7.8a200 200 0 0 0-3.395 8.31 97 97 0 0 0-3.213 9.327.022.022 0 0 0 .043.012c1.184-3.016 2.16-6.113 3.288-9.15q1.577-4.24 3.285-8.43c.193 1.485.386 2.97.562 4.454.926 7.816 1.512 15.703 2.978 23.444a58.6 58.6 0 0 0 7.873 20.774c4.366 6.869 10.232 12.618 16.164 18.123a.158.158 0 0 0 .224-.224c-4.637-5.468-9.444-10.848-13.45-16.811a57.5 57.5 0 0 1-5.22-9.314 59 59 0 0 1-3.337-10.799c-1.62-7.484-2.21-15.15-3.083-22.743-.918-7.99-1.975-15.973-3.527-23.867a63 63 0 0 0-3.473-12.49c-.826-1.95-1.917-3.778-2.724-5.734a19.9 19.9 0 0 1-1.282-6.284c3.54-2.682 6.08-6.502 8.614-10.092q4.504-6.38 8.64-13.011a27 27 0 0 1 3.075-4.59 63.5 63.5 0 0 0 9.78 11.963 34 34 0 0 0 3.095 2.523 6.3 6.3 0 0 1 1.45 1.231 5 5 0 0 1 .716 2.03c.605 3.017 1.152 6.047 1.855 9.044.797 3.4 1.613 6.811 2.555 10.175.054.193.385.164.362-.049-.341-3.179-.77-6.35-1.263-9.512a152 152 0 0 0 7.31 13.697c3.622 6.204 7.599 12.189 11.492 18.224 3.909 6.057 7.777 12.146 11.306 18.434a151 151 0 0 1 9.152 19.332 15.8 15.8 0 0 0 2.7 4.933c.656.74 1.471 1.319 2.128 2.058a7.55 7.55 0 0 1 1.421 2.697c.707 2.12 1.282 4.282 2.01 6.396a248 248 0 0 0 2.435 6.806.151.151 0 0 0 .291-.08c-.56-3.02-1.224-6.017-1.935-9.004 3.548 4.741 10.873 5.278 16.39 5.485 3.664.138 7.477.289 10.887 1.793a13.7 13.7 0 0 1 4.2 3.001 13.4 13.4 0 0 0 4.258 3.105c3.746 1.598 7.66 2.872 11.48 4.277q5.87 2.16 11.755 4.279c7.846 2.816 15.723 5.549 23.658 8.103a276 276 0 0 0 27.296 7.046.129.129 0 0 0 .069-.248c-4.336-1.262-8.628-2.661-12.916-4.075.437.051.874.109 1.311.146q2.199.189 4.405.196c1.522.007 3.06.08 4.578.005 6.018-.296 11.987-1.16 18-1.493 3.372-.186 6.783-.208 10.155-.073a.144.144 0 0 0 .038-.282m-346.674-14.607c-.666.037-1.332.05-1.999.052a16 16 0 0 0 1.51-.663c.237.107.504.183.714.258.288.102.583.184.878.267-.367.03-.734.066-1.103.086m2.346-.211c-.292-.064-.584-.127-.872-.203a29 29 0 0 1-1.14-.334q-.179-.055-.355-.115a17 17 0 0 0 1.215-.727 22 22 0 0 0 2.156.82c.276.098.556.184.835.273-.612.101-1.223.213-1.84.286m4.615-2.341c.851.265 1.712.554 2.584.778-.64.199-1.285.388-1.935.556-.65-.262-1.353-.432-2.01-.638a44 44 0 0 0-2.804-.794c-.016-.004-.028.02-.012.028a26 26 0 0 0 2.676 1.076c.48.165.974.35 1.476.501-.663.159-1.33.306-2 .431l-.112-.03c-.448-.132-.895-.271-1.344-.403-.703-.206-1.406-.47-2.12-.658a21 21 0 0 0 2.415-1.906c1.059.363 2.117.726 3.186 1.059m34.13-174.227a241 241 0 0 1 6.752 5.298c-.009.561.061 1.268-.717 1.316a4.3 4.3 0 0 1-1.379-.12 12 12 0 0 1-2.878-1.522q-1.319-.82-2.571-1.739-.631-.465-1.244-.954l-.127-.101a6 6 0 0 1-.378-.723 8 8 0 0 1-.28-2.197 7 7 0 0 0-.42-1.673 290 290 0 0 1 3.242 2.415M209.5 115.35c-.826.746-1.673 1.465-2.52 2.186q-.749.465-1.494.934c.007-.017.007-.034.015-.05a5 5 0 0 1 .422-.663q.223-.314.47-.61a2.1 2.1 0 0 0 .361-.65l.042-.104a3.4 3.4 0 0 0 .445-.558 9 9 0 0 0 .545-1.014c.321-.643.61-1.304.911-1.956.626-1.357 1.143-2.763 1.777-4.118.026-.055-.053-.103-.083-.048-.705 1.307-1.506 2.557-2.23 3.852-.35.624-.7 1.252-1.024 1.89-.162.321-.327.64-.465.973a5 5 0 0 0-.195.537c-.08.146-.157.295-.248.434a2.8 2.8 0 0 0-.292.723 3.8 3.8 0 0 1-.372.799 5.4 5.4 0 0 0-.515.835l-.382.238c-.742.475-1.492.943-2.244 1.413l-.007-.023a28.5 28.5 0 0 0-4.15-5.028 140 140 0 0 0-4.382-4.567 108 108 0 0 0-9.894-8.41 33.2 33.2 0 0 1-7.91-8.727 45.2 45.2 0 0 1-4.71-10.571 40 40 0 0 1-1.498-6.34 14.85 14.85 0 0 1 .178-6.158 4.05 4.05 0 0 1 1.133-1.92c.683-.571 1.346-.336 2.036.127.26.174.51.366.767.545a6.8 6.8 0 0 1 .818 2 6 6 0 0 1 .13 1.231c0 .394-.13.747-.146 1.132a1.15 1.15 0 0 0 .298.858l.001.009a5.1 5.1 0 0 0 1.346 1.361q.755.63 1.544 1.217c1.104.825 2.275 1.542 3.418 2.31.846.57 2.282 1.33 3.249.563a3.45 3.45 0 0 0 .837-1.209.95.95 0 0 0 .096-.601c1.21.982 2.422 1.96 3.613 2.964 1.614 1.362 3.177 2.793 4.841 4.094a29.5 29.5 0 0 0 5.544 3.202 13.7 13.7 0 0 1 2.464 1.568 4 4 0 0 1 .092 1.054 4.7 4.7 0 0 1-.483 1.46 2.7 2.7 0 0 0-.09 1.419c.147 1.21.383 2.395.482 3.615.049.604.06 1.212.081 1.817.013.345-.02.626.265.841a.154.154 0 0 0 .188-.024 5.24 5.24 0 0 0 1.18-2.365c.01-.042-.054-.076-.074-.031a10 10 0 0 1-.924 1.65c-.18.262-.255.602-.374.043-.031-.147-.038-.305-.056-.455-.041-.34-.087-.68-.124-1.021a26.6 26.6 0 0 1-.135-4.262 6.1 6.1 0 0 1 .66-1.68 3.6 3.6 0 0 0 .187-1.326c2.236 1.998 4.015 4.517 6.023 6.773a47 47 0 0 0 10.486 9.213c-3.33 2.846-6.676 5.674-9.924 8.609m22.477 10.353c-.05.007-.102.009-.153.018a3.7 3.7 0 0 1-.85.079c-.035-.002-.07-.01-.105-.012.186-.504.373-1.006.542-1.516a10 10 0 0 0 1.155.114l.292.013c-.09.298-.183.595-.268.896-.205.135-.406.276-.613.408m.797-.531c.098-.254.19-.51.284-.765.254.013.509.031.76.07-.346.235-.696.463-1.044.695m26.631-55.133c2.892-1.895 6.052-3.324 8.858-5.361a76 76 0 0 0 7.819-6.802c2.545-2.443 5.091-4.887 7.582-7.387 2.492-2.5 4.929-5.058 7.242-7.726 2.221-2.563 4.258-5.251 6.259-7.985a5 5 0 0 0-.031.358 9 9 0 0 0-.03 1.047 3.3 3.3 0 0 0 .323.96c.285.689.602 1.352.853 2.056.246.692.47 1.394.758 2.071.008.02.04.006.035-.015a39 39 0 0 1-1.155-3.983c-.049-.33-.048-.658-.083-.988-.036-.34-.165-.655-.198-.998a10 10 0 0 1-.03-1.096 48 48 0 0 1 1.217-1.588c.079.81.171 1.62.254 2.427.037.352.087.706.1 1.061.004.139 0 .282.013.42.005.045.015.09.02.134a.5.5 0 0 0-.004.094.59.59 0 0 0 .501.492.5.5 0 0 0 .09.003.2.2 0 0 0 .038.043.26.26 0 0 0 .283-.015.28.28 0 0 0 .103-.23c0-.01.005-.015.002-.024l.004-.043a.9.9 0 0 0-.105-.265 5 5 0 0 0-.134-.25c-.09-.154-.164-.317-.246-.476l-.105-.198c-.092-.514-.151-1.036-.225-1.551-.095-.66-.186-1.321-.287-1.981.49-.589.991-1.167 1.535-1.709a22.7 22.7 0 0 1 4.09-3.136 70 70 0 0 0 8.244-5.63c4.989-4.185 9.17-9.235 14.182-13.394l-.057.13a8.9 8.9 0 0 0-.607 4.302c-1.225.897-2.338 1.92-3.502 2.897a7.3 7.3 0 0 1-2.028 1.405 1.86 1.86 0 0 1-2.075-.654.048.048 0 0 0-.087.037c.38 1.402 2.187.894 3.09.361.88-.52 1.717-1.13 2.578-1.684.918-.591 1.834-1.11 2.704-1.778a.475.475 0 0 0 .204-.501 7.63 7.63 0 0 1 .527-4.106 8 8 0 0 1 .916-1.636 4.27 4.27 0 0 1 2.399-.707A4.18 4.18 0 0 1 334.087 8c1.89 2.13 2.224 5.132 1.855 7.847a18 18 0 0 1-.397 1.982 47 47 0 0 1-.345-6.698c.001-.023-.033-.022-.035 0a24 24 0 0 0 .311 6.982 20 20 0 0 1-.921 2.634c-.162-1.284-.413-2.555-.55-3.844a33 33 0 0 1-.193-4.237c0-.028-.041-.027-.043 0a30.4 30.4 0 0 0-.002 4.318 16.4 16.4 0 0 0 .696 3.98c-1.965 4.504-5.451 8.445-9.014 11.63-.646.577-1.282 1.154-1.908 1.742-1.722 1.185-3.47 2.334-5.273 3.395-4.672 2.75-9.728 4.728-14.455 7.367-4.671 2.609-8.559 6.178-12.488 9.761a162 162 0 0 1-12.638 10.433c-4.085 3.032-8.321 5.848-12.668 8.488a28.4 28.4 0 0 0-5.347-1.212c-.022-.004-.032.03-.01.034q1.373.267 2.73.6c.853.211 1.7.445 2.562.618-.308.187-.61.38-.919.565-.154.092-.304.19-.458.282-1.096-.319-2.245-.526-3.341-.753a90 90 0 0 0-4.9-.86c-.02-.002-.03.027-.01.031 1.626.305 3.244.655 4.855 1.026 1.013.234 2.032.53 3.056.766-.642.392-1.285.781-1.918 1.185-.334-.086-.671-.158-1-.232q-1.037-.231-2.076-.449a90 90 0 0 0-3.722-.704c-.172-.257-.349-.513-.519-.772a24.4 24.4 0 0 1 4.403-3.866m-.436 8.315-.14.105a2 2 0 0 0-.21.115q-.055.04-.107.084-.14.11.137-.067a1.1 1.1 0 0 0-.351.214l-.002.001c-.46-.677-.911-1.36-1.37-2.038.486.115.97.236 1.458.346.408.092.818.175 1.228.26.181.037.365.077.549.11q-.043.027-.085.056c-.02.011-.04.017-.06.03a5 5 0 0 0-.429.319l-.061.05c-.187.137-.379.267-.563.408Zm.741-1.157c-.427-.08-.854-.165-1.282-.243q-.787-.144-1.573-.292-.624-.925-1.245-1.852c1.19.267 2.384.52 3.573.787q.998.222 1.993.453c.28.065.564.139.85.205-.553.356-1.107.71-1.648 1.084q-.331-.08-.668-.142m-74.464-61.873a5.5 5.5 0 0 1 1.028-3.306c.048.587.136 1.168.22 1.75-.408 2.45-.795 4.9-1.034 7.37a32 32 0 0 1-.214-5.814m.357 6.754c.455-2.517.737-5.053.98-7.598a36 36 0 0 0 .83 3.69c-.426 2.588-.827 5.188-1.05 7.799a51 51 0 0 1-.76-3.891m2.111 9.064a116 116 0 0 1-1.154-4.324 73 73 0 0 0 1.02-8.093c.264.902.562 1.793.877 2.677a58.4 58.4 0 0 0-.743 9.74m1.499 5.114c.04-1.64 0-3.283.034-4.922.043-2.158.103-4.315.227-6.47.002-.023-.034-.023-.037 0-.217 2.152-.396 4.309-.474 6.47-.047 1.286-.089 2.582-.07 3.875q-.303-1.016-.595-2.021c-.113-.387-.22-.776-.332-1.163.168-1.974.255-3.954.349-5.931.067-1.424.172-2.845.284-4.266a109 109 0 0 0 2.3 5.808 64.4 64.4 0 0 0-.615 11.89 79 79 0 0 1-1.071-3.27m3.335 8.522c.003-.785-.079-1.58-.118-2.347-.066-1.273-.14-2.545-.185-3.82-.093-2.548-.15-5.091-.08-7.642.001-.053-.078-.052-.08 0-.165 2.541-.296 5.095-.28 7.643a72 72 0 0 0 .108 3.82c.023.397.044.811.071 1.227q-.735-1.54-1.337-3.15c-.02-1.844-.073-3.689-.064-5.534a84 84 0 0 1 .358-7.243 53 53 0 0 0 3.2 6.277 99 99 0 0 0-.177 6.735q.02 1.952.138 3.9a10.7 10.7 0 0 0 .423 3.283 25 25 0 0 1-1.977-3.15m3.785 5.282c-.105-.108-.217-.208-.32-.317a20 20 0 0 1-1.363-1.647h.001a12 12 0 0 0-.132-3.601c-.098-1.3-.182-2.6-.241-3.901a99 99 0 0 1-.066-6.468 36 36 0 0 0 2.177 3.145c-.12 2.284-.196 4.57-.187 6.857.007 1.936-.053 3.965.131 5.932m.513.508c-.02-2.194-.28-4.414-.343-6.595a149 149 0 0 1-.032-6.602c.422.546.837 1.098 1.298 1.611.222.249.471.47.705.706a63 63 0 0 0-.085 6.343c.03 1.132.096 2.263.135 3.394.032.955.032 1.929.097 2.888-.586-.587-1.183-1.163-1.775-1.745m27.907 42.665-.43-1.07a50.8 50.8 0 0 0-4.42-9.358c-1.88-2.833-4.152-5.398-6.182-8.123q-3.155-4.237-6.021-8.68c-1.88-2.9-3.637-5.87-5.394-8.846a23 23 0 0 0-2.892-4.037c-.223-.24-.459-.468-.69-.7.017-.995-.06-2.005-.084-2.994-.027-1.131-.03-2.263-.06-3.394q-.08-3.141-.047-6.284a68 68 0 0 0 1.79 1.715c.028.934.06 1.868.082 2.802a14.4 14.4 0 0 0 .124 2.99 10 10 0 0 1 .14 1.715c.035.588.069 1.175.09 1.763a15.4 15.4 0 0 0 .194 3.054c.036.146.225.095.241-.032a17 17 0 0 0-.173-3.274 17.4 17.4 0 0 1-.124-3.24 14.5 14.5 0 0 0-.237-2.976c-.081-.899-.152-1.798-.227-2.698q.503.466 1 .94a21.7 21.7 0 0 1 3.169 3.828 96 96 0 0 1 4.73 8.754A92.3 92.3 0 0 0 220.11 72.17c2.21 2.649 4.314 5.23 5.586 8.477.675 1.726 1.248 3.494 1.8 5.27-.4 1.519-.795 3.038-1.2 4.556-.342 1.282-.707 2.566-1.014 3.86-.173-.369-.341-.74-.529-1.1m.576 1.2c.409-1.294.745-2.618 1.08-3.928q.578-2.268 1.099-4.548c.342 1.102.678 2.206 1.02 3.306-.391 1.257-.745 2.527-1.11 3.79-.353 1.223-.765 2.454-1.071 3.698q-.482-1.173-1.018-2.318m1.133 2.6c.462-1.28.795-2.624 1.156-3.925.34-1.223.67-2.454.958-3.693l.143.465a14.6 14.6 0 0 0 .604 2.4c-.693 2.296-1.374 4.6-1.984 6.919q-.436-1.08-.877-2.166m2.974-4.427c.265.754.566 1.498.881 2.228-.357 1.114-.626 2.268-.937 3.384-.207.744-.406 1.49-.611 2.235-.114.413-.26.85-.364 1.29-.276-.65-.554-1.3-.825-1.952l-.067-.165a42.5 42.5 0 0 0 1.923-7.02m-4.386 20.365c.48-1.565.774-3.202 1.102-4.793a53 53 0 0 0 .932-5.277c.225.666.452 1.33.694 1.992.035.096.078.186.114.28a138 138 0 0 1-1.49 6.608zm3.138-2.767q-.66.585-1.323 1.168.051-.185.098-.368c.19-.751.352-1.508.503-2.268.217-1.094.386-2.197.532-3.303.24.619.485 1.234.748 1.838-.12.518-.213 1.045-.311 1.56-.088.457-.174.914-.247 1.373m.406-.359a38 38 0 0 0 .41-1.98q.255.58.508 1.17zm.832-5.629a80 80 0 0 0-.781-1.898 12 12 0 0 0 .525-1.754c.21-.774.423-1.547.621-2.325.246-.965.519-1.947.73-2.935.22.504.442 1.002.653 1.49-.345 1.141-.564 2.341-.827 3.49-.163.715-.334 1.427-.5 2.14-.084.357-.171.713-.252 1.07-.014.062-.107.428-.17.722m.189.51c.303-.245.388-1.013.453-1.276.21-.848.403-1.7.592-2.554.259-1.168.57-2.382.74-3.592.28.64.567 1.276.852 1.914-.344 1.182-.63 2.384-.934 3.573q-.3 1.174-.61 2.346c-.133.497-.302 1.02-.414 1.544a52 52 0 0 0-.68-1.956m1.87 2.573-.448.39-.321.283-.226-.692a12.5 12.5 0 0 0 .61-2.035c.211-.812.42-1.625.618-2.44a59 59 0 0 0 .706-3.202c.253.563.495 1.132.753 1.693q-.106.365-.217.719c-.209.656-.4 1.32-.593 1.98q-.291.992-.563 1.99c-.118.432-.238.87-.32 1.314m.485-.423q.119-.392.23-.782.282-.994.541-1.995c.175-.667.353-1.333.512-2.004q.048-.199.101-.402c.252.558.499 1.143.769 1.722-.067.233-.131.467-.207.698-.167.504-.373 1.012-.529 1.528zm1.89-1.646c.122-.349.22-.706.308-1.047.038-.15.067-.302.102-.452q.194.4.415.779zm3.572 16.694c.437-1.063.792-2.17 1.132-3.25.445-1.41.835-2.832 1.182-4.268.247.683.48 1.37.675 2.07l.085.335c-.151.581-.294 1.165-.457 1.737a73 73 0 0 0-.501 1.84q-1.056.769-2.116 1.537m2.497-1.812q.235-.736.413-1.484c.1-.419.205-.848.3-1.28q.092.374.19.748a2.4 2.4 0 0 0 .427 1.051c-.443.318-.887.643-1.33.965m28.956-22.89a15 15 0 0 0-2.158 2.515 14.4 14.4 0 0 1-2.264 2.773 35 35 0 0 1-3.037 2.273l-6.62 4.714-6.258 4.455c.073-.481.079-.992.129-1.45.084-.78.135-1.554.25-2.33a40 40 0 0 0 .527-4.251.016.016 0 0 0-.03-.004c-.35 1.431-.5 2.91-.74 4.363-.121.73-.304 1.438-.463 2.16a9.5 9.5 0 0 0-.401 2.031l-5.437 3.872a16.5 16.5 0 0 0-.816-3.915c-1.399-4.395-3.694-8.412-5.798-12.492-1.27-2.46-2.603-4.874-3.774-7.385-.147-.314-.276-.637-.419-.953-.814-2.913-1.615-5.828-2.51-8.72a45 45 0 0 0-2.72-7.252 5 5 0 0 0 .196-.573l.004-.016.001-.003.048-.093.057-.09.028-.036.014-.013a2.6 2.6 0 0 0 .632.157c1.395.158 2.647-1.26 3.624-2.064a49 49 0 0 1 4.187-3.024l2.13-1.405a5.3 5.3 0 0 0 .82-.637 2 2 0 0 0 .13.945 24 24 0 0 0-3.25 1.986c-1.145.783-2.24 1.65-3.326 2.512-1.05.832-2.192 1.631-3.155 2.562a4.5 4.5 0 0 0-1.07 1.2c-.21.508.059.858.364 1.256a.108.108 0 0 0 .166.021q1.287-1.358 2.585-2.704c.83-.86 1.716-1.697 2.485-2.614q1.253-.879 2.522-1.733c1.06-.717 2.208-1.315 3.246-2.057a.327.327 0 0 0 .065-.502 1.77 1.77 0 0 1-.351-1.417c.033-.151-.182-.26-.261-.11a3.9 3.9 0 0 1-1.424 1.273q-.847.57-1.693 1.142a75 75 0 0 1-3.216 2.07c-.887.534-1.818 1.012-2.746 1.48a5 5 0 0 0-.607-.142c-.153-.038-.314-.08-.476-.115.064-.047.131-.092.192-.139a14.5 14.5 0 0 0 1.664-1.685c.575-.612 1.12-1.25 1.691-1.865a.025.025 0 0 0-.036-.036c-.591.531-1.215 1.016-1.843 1.503-.59.457-1.246.836-1.804 1.328a3.25 3.25 0 0 1-1.92.985c-.386.033-.774.047-1.16.085-.026.002-.05.011-.076.015-1.862-2.635-4.108-4.979-5.991-7.601a86 86 0 0 1-5.387-8.674c-1.66-3.011-3.186-6.09-4.767-9.142a31.7 31.7 0 0 0-5.477-8.065c-1.21-1.208-2.544-2.283-3.715-3.53a27 27 0 0 1-2.952-3.82 57 57 0 0 1-4.383-8.621 57 57 0 0 1-3.404-9.897c-.712-3.189-1.103-6.82-.112-9.995a5.68 5.68 0 0 1 2.673-3.47 3.69 3.69 0 0 1 4.029.433 36 36 0 0 1 3.661 3.281q1.924 1.81 3.803 3.668 7.314 7.225 13.932 15.113c4.442 5.296 8.514 10.84 12.542 16.452a50 50 0 0 0 6.455 7.68c2.41 2.235 5.154 4.133 7.255 6.688a23 23 0 0 1 1.409 1.937 5.8 5.8 0 0 1-.608 1.105 9 9 0 0 0-.728 1.157 2.45 2.45 0 0 0-.166 1.275c.003.05.08.067.092.013a1.5 1.5 0 0 1 .313-.663 5 5 0 0 0 .361-.605c.251-.416.535-.811.761-1.242a4 4 0 0 0 .25-.616c1.355 2.131 2.464 4.446 3.625 6.658l2.623 4.992c.432.823.82 1.705 1.33 2.484a2.1 2.1 0 0 0 .576.597q1.763 3.123 3.643 6.178c2.584 4.204 5.403 8.252 8.34 12.215.802 1.082 1.61 2.16 2.44 3.221.42.539.842 1.074 1.282 1.596a4.7 4.7 0 0 0 .654.788l.022.031a.9.9 0 0 0-.279.529M232.68 75.226c-.779.727-1.51 1.519-2.253 2.278q-1.22 1.245-2.45 2.479a3 3 0 0 1 .21-.492 5 5 0 0 0 .113-.63c.14-.544.806-.99 1.225-1.317a93 93 0 0 1 3.046-2.243l.11-.075m58.25 9.94q-1.442 1.067-2.936 2.061c-.902.6-1.651 1.466-2.547 2.074a98 98 0 0 1-8.5 3.585 33 33 0 0 0-5.756 2.584c-.205.124-.389.267-.584.4-.179-.28-.397-.54-.59-.802-.406-.55-.811-1.098-1.224-1.641l-.464-.616c1.583.313 3.152.704 4.747.95a.031.031 0 0 0 .016-.06 24.7 24.7 0 0 0-4.864-1.024 282 282 0 0 1-4.333-5.836q-2.424-3.375-4.774-6.807c.035-.044.076-.082.11-.129l.008-.012.033-.04c.033-.041.097-.115.155-.192l.003.001.068.015a4.4 4.4 0 0 1 .774.526 3.4 3.4 0 0 1 .881 1.347 18 18 0 0 0 1.532 2.837 38 38 0 0 0 1.892 2.645c.182.232.377.421.688.346a1.8 1.8 0 0 1 .797-.157 2.2 2.2 0 0 1 .939.424c.098.077.285.01.235-.137a7.8 7.8 0 0 0-.91-1.629l-1.08-1.68-1.08-1.68a7.3 7.3 0 0 0-1.07-1.562.23.23 0 0 0-.381.222 7.2 7.2 0 0 0 .981 1.613l1.093 1.674 1.094 1.672c.221.339.445.676.689.996a1.7 1.7 0 0 0-.672-.178 1.25 1.25 0 0 0-.51.096.435.435 0 0 1-.547-.083 3.3 3.3 0 0 1-.321-.427c-.678-.909-1.349-1.825-1.944-2.791a21 21 0 0 1-1.487-2.996 3.9 3.9 0 0 0-.6-1.3 2 2 0 0 0-.204-.184 50 50 0 0 1 4.098-2.73c2.242-1.354 4.488-2.698 6.688-4.123q6.686-4.333 12.925-9.308c4.118-3.279 7.958-6.847 11.889-10.342a52 52 0 0 1 6.158-4.826 8 8 0 0 0 .1.91 2.4 2.4 0 0 0 .132.654c.104.23.258.437.382.656a22 22 0 0 0 1.207 2.445 17 17 0 0 0 1.82 1.888c.738.722 1.513 1.403 2.239 2.14a.056.056 0 0 0 .088-.012 10 10 0 0 0 .5-.917.022.022 0 0 0-.037-.022 5 5 0 0 1-.43.657c-.196.181-.323-.052-.492-.212-.363-.345-.704-.714-1.051-1.075-.694-.724-1.446-1.395-2.121-2.136a4.23 4.23 0 0 1-1.166-2.82 3.3 3.3 0 0 0-.186-1.363c-.096-.216-.153-.447-.245-.664a2.5 2.5 0 0 0-.242-.44 66 66 0 0 1 6.509-3.502 114.5 114.5 0 0 0 13.882-7.516c2.393-1.586 4.708-3.285 6.98-5.04a6 6 0 0 0-.064 1.147c.009.196.032.392.05.587a3 3 0 0 0-.05.477 5 5 0 0 0 .378 1.625c.022.092.04.185.069.275a2 2 0 0 0 .184.417 4 4 0 0 0 .286.375 1.9 1.9 0 0 0 1.98.946 6.7 6.7 0 0 0 1.594-.712c.562-.27 1.12-.54 1.657-.86a17.5 17.5 0 0 0 2.904-2.144c.011-.01-.005-.024-.015-.015a11.9 11.9 0 0 1-5.606 2.81c-.471.068-.982.268-1.39-.078a3 3 0 0 1-.73-1.25 10 10 0 0 1-.385-1.514c-.079-.397-.165-.792-.243-1.188a5.2 5.2 0 0 1 .038-1.085 3 3 0 0 1 .116-.418q2.364-1.849 4.679-3.756a38 38 0 0 1 3.581-2.885q-.023.113-.042.219a9.3 9.3 0 0 0 .006 3.632 14 14 0 0 0 .668 1.68 10.3 10.3 0 0 0 .703 1.677.04.04 0 0 0 .074-.03 8.9 8.9 0 0 1-.611-2.473q-.03-1.216-.055-2.437a9.3 9.3 0 0 1 .195-2.334 4 4 0 0 1 .163-.526 5.8 5.8 0 0 1 1.543-.472 4.53 4.53 0 0 1 4.437 2.353c2.254 3.58 1.568 8.168.147 11.92-.06.157-.134.308-.197.463.127-1.344.186-2.69.247-4.038.002-.057-.085-.056-.089 0-.096 1.392-.196 2.781-.217 4.177a25 25 0 0 1-1.953 3.724 29 29 0 0 0 .653-6.295c0-.019-.028-.018-.03 0-.202 2.213-.555 4.406-.82 6.61a31 31 0 0 1-1.657 2.282 34.8 34.8 0 0 0 .32-6.964.022.022 0 0 0-.045 0c-.08 2.448-.38 4.875-.558 7.313a37.4 37.4 0 0 1-3.618 3.868 77.6 77.6 0 0 1-12.382 8.806 126 126 0 0 0-12.708 8.58c-7.643 6.08-14.329 13.292-22.19 19.104m35.574-13.423a18.4 18.4 0 0 1-2.804 2.975c-1.134.84-3.208 2.017-4.572 1.064a4.28 4.28 0 0 1-1.307-3.555 6.3 6.3 0 0 1 .419-1.821c.964-.676 1.927-1.354 2.893-2.025l3.32-2.307c.542-.376 1.096-.764 1.678-1.096a6.41 6.41 0 0 0 .373 6.765m-141.968 231.85q-.072.026-.146.05c.884-.68 1.75-1.382 2.622-2.078l.03.03c.125.106.248.204.38.298q.389.278.78.55.14.1.283.21a30 30 0 0 0-3.949.94m4.796-1.088a6.4 6.4 0 0 0-.82-.593 6 6 0 0 0-.866-.456 3 3 0 0 0-.351-.116c.676-.541 1.33-1.106 2-1.654a18 18 0 0 0 1.978 1.892c.216.18.436.354.653.532-.865.128-1.73.254-2.594.395m3.869-.59-.48.074q-.536-.463-1.085-.913a18 18 0 0 0-2.154-1.545c.687-.563 1.369-1.133 2.054-1.699.131-.002.518.452.57.503.238.23.493.446.74.666.483.429.982.838 1.476 1.253.48.402.958.802 1.446 1.192-.854.166-1.707.337-2.567.47m3.319-.607q-.332-.301-.672-.594c-.579-.498-1.178-.973-1.768-1.458-.575-.472-1.154-.957-1.769-1.377a2 2 0 0 0-.48-.291c.31-.258.626-.508.931-.77l1.42-1.215a17 17 0 0 0 1.4 1.37c.564.513 1.15.997 1.737 1.485.569.473 1.138.946 1.69 1.44.244.218.494.432.733.657a69 69 0 0 1-3.222.753m56.589-121.516c-.002.856.01 1.711-.02 2.567-.05 1.39-.152 2.78-.244 4.17a115 115 0 0 0-.788-4.548 16.4 16.4 0 0 0 1.052-2.19m-2.44 4.171a9 9 0 0 0 .722-.922c.065.803.116 1.607.17 2.412a.25.25 0 0 0 .249.233q.2 1.268.403 2.535c.227 1.437.512 2.868.777 4.3-.018.904-.013 1.809.004 2.713q-.298-1.485-.615-2.967c-.323-1.519-.64-3.04-.97-4.557-.153-.708-.316-1.414-.475-2.12-.1-.44-.188-.908-.335-1.348.025-.093.043-.186.07-.279m-.475 2.131q.152.773.308 1.545c.31 1.521.641 3.04.963 4.559.544 2.572 1.088 5.146 1.842 7.664a99 99 0 0 0 .587 4.13c-.315-1.256-.637-2.51-.952-3.763a285 285 0 0 0-1.71-6.56c-.302-1.09-.598-2.18-.934-3.26a21 21 0 0 0-.467-1.32c.085-1.004.19-2.004.363-2.995m-.71 8.28c.078-1.074.134-2.147.196-3.216.252 1.02.555 2.03.812 3.034.55 2.14 1.118 4.273 1.657 6.415.918 3.653 1.688 7.355 2.785 10.957.121 1.248.207 2.5.273 3.752-.164-.57-.332-1.139-.494-1.708q-1.004-3.52-1.978-7.047c-1.067-3.863-2.09-7.737-3.308-11.553.017-.211.041-.422.057-.633m-1.258-7.962c-.007-.043-.069-.384-.09-.53l.043-.026a.06.06 0 0 0 .035-.022 12 12 0 0 0 1.09-.687 18.4 18.4 0 0 0-.819 3.276c-.01-.094-.013-.19-.023-.283a32 32 0 0 0-.15-1.16c-.03-.189-.055-.379-.086-.568m5.721 49.464a.27.27 0 0 0-.077.197c0 .065.006.13.008.194-.18 1.04-.382 2.075-.59 3.11-.404-1.623-1.025-3.221-1.49-4.803-.677-2.31-1.286-4.638-1.892-6.966-1.19-4.576-2.198-9.266-3.755-13.732q.67-2.638 1.238-5.298c.844 4.081 2.13 8.105 3.226 12.108 1.177 4.298 2.192 8.708 3.66 12.922-.108.756-.2 1.514-.328 2.268m.501-3.464c-.892-4-2.144-7.952-3.231-11.892-1.164-4.219-2.183-8.554-3.667-12.686.087-.423.193-.842.275-1.265.233-1.196.421-2.4.613-3.604.261 1.135.565 2.26.861 3.385q.937 3.551 1.897 7.097c.311 1.156.615 2.316.935 3.47.324 1.172.865 2.239 1.212 3.395.36 1.197.598 2.433.856 3.655a10.9 10.9 0 0 0 .838 2.99c-.143 1.824-.35 3.642-.588 5.455m.72-7.132c-.128-.396-.266-.785-.384-1.15-.35-1.092-.72-2.178-1.023-3.285-.306-1.12-.357-2.268-.624-3.394-.277-1.166-.607-2.32-.916-3.477-.592-2.214-1.18-4.43-1.785-6.64-.302-1.106-.593-2.215-.906-3.317-.157-.55-.312-1.105-.49-1.648-.033-.1-.207-.458-.361-.814q.372-2.55.62-5.115c.761 3.474 1.7 6.907 2.644 10.339q.97 3.529 1.97 7.05c.442 1.556.87 3.125 1.408 4.652.016.995.02 1.989.002 2.983a92 92 0 0 1-.156 3.816m13.437-42.185q-2.908 7.78-5.793 15.568l-3.194 8.627c-.894 2.415-1.808 4.837-2.575 7.3-.028-.476-.05-.953-.086-1.428a86 86 0 0 0-.646-5.615c.37-.874.68-1.783 1.009-2.657.55-1.465 1.076-2.94 1.609-4.412q1.625-4.488 3.23-8.982c1.8-5.036 3.555-10.086 5.302-15.14.423 2.239.793 4.487 1.144 6.74m-2.162-11.796c.352 1.591.66 3.191.965 4.793a1539 1539 0 0 0-5.691 15.12q-1.626 4.406-3.236 8.819c-.535 1.47-1.082 2.938-1.6 4.414-.235.67-.494 1.346-.732 2.029-.236-1.567-.487-3.132-.734-4.7-.105-.67-.181-1.339-.267-2.008.051.079.18.11.225.004 2.244-5.187 3.893-10.646 5.786-15.97l4.942-13.89c.112.463.239.923.342 1.389m-3.705-11.21a40 40 0 0 1 1.917 4.744c-1.591 4.043-3.153 8.098-4.631 12.184-.804 2.222-1.614 4.444-2.383 6.678-.764 2.223-1.6 4.457-2.143 6.748-.017.07.088.122.12.05.932-2.064 1.628-4.246 2.383-6.38.807-2.275 1.588-4.558 2.391-6.835 1.446-4.097 2.872-8.2 4.315-12.298.512 1.525.936 3.079 1.323 4.645-1.863 4.599-3.684 9.214-5.4 13.87a162 162 0 0 0-5.496 16.16 77.6 77.6 0 0 1-.578-11.094c.038-2.208.078-4.416.1-6.625a38 38 0 0 0-.244-6.47c-.009-.055-.094-.05-.106 0-.033.131-.052.267-.081.4a.09.09 0 0 0-.082.032 36 36 0 0 0 .434-4.835 47.4 47.4 0 0 1 2.152-8.438c.494-1.365 1.219-2.625.873-4.112-.182-.78-.415-1.526-.526-2.325-.1-.72-.126-1.444-.242-2.16a6 6 0 0 1 1.138-1.826 13 13 0 0 1 2.426-1.815c-.688 3.311.922 6.794 2.34 9.702"/><path fill="currentColor" d="M237.017 121.563a.9.9 0 0 0-.311-.129 1.5 1.5 0 0 0-.343-.013c-.065.006-.067.105 0 .104a1.3 1.3 0 0 1 .316.028c.105.022.211.033.315.064a.03.03 0 0 0 .023-.054m-6.181-42.135a108 108 0 0 1-.87 5.462c-.007.042.054.06.065.018a32.4 32.4 0 0 0 .894-5.48c.004-.058-.082-.055-.089 0m3.28-.962a86 86 0 0 0-2.165 9.96c-.01.077.11.086.13.018a85 85 0 0 0 2.106-9.959c.008-.046-.06-.066-.071-.02m2.176 1.182c-.45 2.462-.906 4.923-1.26 7.402-.177 1.242-.36 2.48-.61 3.71a20 20 0 0 0-.612 3.425.037.037 0 0 0 .073.01 20.7 20.7 0 0 0 .674-3.696c.197-1.236.454-2.459.693-3.687.461-2.371.798-4.761 1.107-7.156.005-.036-.058-.045-.065-.008m1.858 6.313q-.554 3.813-1.262 7.602c-.233 1.244-.436 2.493-.68 3.736a13 13 0 0 0-.418 1.605q.007.109.024.216a.16.16 0 0 0 .062.142.3.3 0 0 0-.027.106.28.28 0 0 0 .352.268l.091-.02a.35.35 0 0 0 .257-.337 13.3 13.3 0 0 1 .342-3.146q.31-1.743.55-3.498.452-3.326.752-6.668c.002-.024-.04-.03-.044-.006m2.122 6.415a.052.052 0 0 0-.103 0 52 52 0 0 1-.683 5.759 18 18 0 0 1-.556 2.953c-.194.648-.793 1.681-.281 2.29a.15.15 0 0 0 .178.022c.663-.41.416-1.609.428-2.268a18 18 0 0 1 .398-3.084 20.2 20.2 0 0 0 .62-5.672m2.872 5.358c-.012-.028-.053-.007-.047.02a6.7 6.7 0 0 1-.28 2.69c-.18.9-.315 1.807-.44 2.715-.116.843-.227 1.69-.359 2.53a19 19 0 0 0-.493 2.655c-.006.52.732.49.789 0 .11-.95-.103-1.891-.028-2.838a30 30 0 0 1 .404-2.995c.169-.926.367-1.847.55-2.77a3.22 3.22 0 0 0-.096-2.007m3.096 4.865a98 98 0 0 0-.974 5.075 52 52 0 0 1-.458 2.493 8 8 0 0 0-.13 1.096 14 14 0 0 1-.27 1.518.338.338 0 1 0 .668.076l.012.016.013-.146a1.85 1.85 0 0 0 .287-.945 7 7 0 0 0-.012-.904 5 5 0 0 0 .092-.622c.062-.842.18-1.678.29-2.516.225-1.713.412-3.41.548-5.132a.033.033 0 0 0-.066-.009m-18.025-34.512a20 20 0 0 0-.718 2.078 13.5 13.5 0 0 0-.365 2.102c-.005.05.075.058.087.011.186-.693.391-1.38.55-2.08s.307-1.404.474-2.103a.015.015 0 0 0-.028-.008m-1.672-6.755a50 50 0 0 0-1.573 10.076.052.052 0 0 0 .1.014c.717-3.315.956-6.731 1.537-10.072.007-.041-.055-.06-.064-.018m-2.463-2.784a46.2 46.2 0 0 0-1.834 10.073.063.063 0 0 0 .122.017c.817-3.303 1.139-6.728 1.804-10.064.012-.06-.077-.086-.092-.026m-2.667-1.389c-.34 1.273-.698 2.54-1.003 3.822a16.4 16.4 0 0 0-.605 3.796.096.096 0 0 0 .188.026 21 21 0 0 0 .84-3.783c.22-1.28.42-2.562.672-3.836.012-.06-.076-.085-.092-.025m-2.711-3.212a.04.04 0 0 0-.079 0 10 10 0 0 1-.282 1.91 5.2 5.2 0 0 1-.623 1.77 1.02 1.02 0 0 0-.275.828 3.7 3.7 0 0 1-.043.967 14 14 0 0 0-.199 1.73.044.044 0 0 0 .087.012c.186-.585.353-1.178.564-1.755a4 4 0 0 1 .469-.84c.206-.315.093-.6.088-.944a16 16 0 0 1 .225-1.793 12 12 0 0 0 .068-1.885M174.44 81.137c-.01-.033-.056-.019-.05.014.456 2.743.682 5.629 1.681 8.247.033.087.18.084.174-.023-.147-2.805-1.11-5.54-1.806-8.238m4.709 11.252c-.256-1.136-.47-2.281-.716-3.42-.51-2.361-.99-4.729-1.514-7.087-.01-.043-.07-.024-.064.017.368 2.395.823 4.772 1.293 7.149.227 1.142.495 2.275.731 3.415.198.956.101 2.421.729 3.213a.144.144 0 0 0 .24-.063c.234-.998-.48-2.25-.7-3.224m2.607 2.514c-.28-1.002-.45-2.035-.651-3.055-.404-2.044-.81-4.087-1.262-6.121-.006-.028-.047-.016-.043.012a266 266 0 0 0 1.163 6.148c.207 1.05.46 2.104.568 3.17a28 28 0 0 0 .33 3.051.39.39 0 0 0 .278.28.38.38 0 0 0 .308-.041.41.41 0 0 0 .184-.451c-.186-1.036-.592-1.986-.875-2.993m2.067-2.433a20 20 0 0 0-.503-1.943c-.018-.065-.131-.055-.123.017a19 19 0 0 0 .268 1.944c.143.653.33 1.295.522 1.936.013.046.092.04.087-.011-.068-.65-.136-1.3-.251-1.944m1.652 7.135c-.058-.26-.133-.517-.201-.775-.139-.526-.255-1.059-.38-1.588-.065-.277-.463-.155-.419.115.088.54.186 1.08.261 1.621.037.266.064.536.113.8a1.7 1.7 0 0 0 .257.8.277.277 0 0 0 .459-.122 1.8 1.8 0 0 0-.09-.851m3.047 3.322a11 11 0 0 0-.41-1.09c-.099-.314-.167-.643-.236-.966q-.225-1.055-.466-2.107a46 46 0 0 0-1.14-4.162.022.022 0 0 0-.044.012c.289 1.41.621 2.812.941 4.217q.242 1.051.461 2.109a7.4 7.4 0 0 1 .166 1.104 8 8 0 0 0 .039 1.073c.081.449.78.261.689-.19m1.532-.631-.55-2.11a.015.015 0 0 0-.029.008l.432 2.1a12.7 12.7 0 0 0 .523 2.075c.012.032.069.032.065-.008a12.5 12.5 0 0 0-.44-2.065m2.734 1.975a11.7 11.7 0 0 0-.625-2.063c-.013-.03-.069-.032-.065.009a21 21 0 0 0 .297 2.078 11 11 0 0 0 .518 2.086.059.059 0 0 0 .115-.015 8 8 0 0 0-.24-2.095m11.649-10.513a.05.05 0 0 0-.066-.017.16.16 0 0 0-.062.05.3.3 0 0 0-.024.071 2 2 0 0 0-.035.14l-.059.277a.103.103 0 1 0 .2.055l.052-.279q.014-.074.023-.152l.006-.068a.13.13 0 0 0-.035-.077m-3.592 2.701a12 12 0 0 0-.305-1.581 3.4 3.4 0 0 1-.261-.792 6 6 0 0 1 .055-.796 5.7 5.7 0 0 1 .35-1.653c.022-.054-.067-.09-.094-.04a5.6 5.6 0 0 0-.575 1.533 2.7 2.7 0 0 0-.043.74 4 4 0 0 1-.045.848 6.6 6.6 0 0 0 .167 1.692 4.6 4.6 0 0 0 .428 1.738.242.242 0 0 0 .438-.057 4.2 4.2 0 0 0-.115-1.632m1.908-52.23c-.002-.022-.035-.023-.034 0 .085 2.106.156 4.216.334 6.318a.032.032 0 0 0 .064 0 45 45 0 0 0-.364-6.318m.9 11.923q-.08-.558-.15-1.118a16 16 0 0 1-.145-2.134.052.052 0 0 0-.103 0c-.018.738-.046 1.475-.013 2.214q.024.543.093 1.081a1.6 1.6 0 0 0 .265.91.05.05 0 0 0 .083-.021 1.83 1.83 0 0 0-.03-.932m2.483 2.712a232 232 0 0 1-.272-3.224q-.262-3.29-.353-6.592a.02.02 0 0 0-.04 0c-.046 2.241-.027 4.482.074 6.721a28 28 0 0 0 .7 6.453.05.05 0 0 0 .096-.013 23.4 23.4 0 0 0-.205-3.345m2.326 1.207q-.22-2.836-.402-5.675c-.001-.015-.025-.016-.025 0 .039 1.93.102 3.858.202 5.786a41 41 0 0 0 .509 5.563c.007.036.062.027.063-.008.026-1.885-.202-3.788-.347-5.666m2.082 4.477c-.005-.035-.056-.02-.052.014.143 1.04.275 2.08.448 3.114.003.022.04.017.038-.005-.121-1.044-.283-2.083-.434-3.123m1.908 3.957a.02.02 0 0 0-.038.01 10 10 0 0 0 .686 1.847c.008.014.028.002.022-.012a15 15 0 0 1-.67-1.845M191.09 9.357c-.008 1.605-.017 3.21.002 4.814a.017.017 0 0 0 .034 0c.02-1.605.01-3.21.003-4.814a.02.02 0 0 0-.04 0m1.891.421c.001-.02-.028-.019-.03 0a72 72 0 0 0-.482 7.253 34 34 0 0 0 .374 6.99c.012.062.105.045.106-.014.062-2.366-.208-4.747-.218-7.116-.01-2.374.065-4.746.25-7.113m1.908 10.339a88 88 0 0 1-.02-8.086c.002-.019-.027-.018-.029 0-.429 5.313-.69 10.919.41 16.17a.071.071 0 0 0 .14-.02c-.093-2.69-.377-5.373-.5-8.064m1.87 5.208a76 76 0 0 1-.01-8.583c.002-.035-.05-.034-.054 0a71 71 0 0 0-.257 8.737 36 36 0 0 0 .984 8.401.062.062 0 0 0 .12-.016c-.133-2.852-.622-5.684-.783-8.539m1.717 3.344a57 57 0 0 1-.108-8.073c.001-.026-.037-.025-.04 0a52 52 0 0 0-.19 8.222 28.7 28.7 0 0 0 1.274 7.857c.024.067.143.063.135-.019-.264-2.674-.838-5.304-1.07-7.987m3.154 10.058c-.017-.016-.053-.006-.05.021-.049-.457-.233-1.014-.326-1.484a67 67 0 0 1-.269-1.408q-.287-1.634-.481-3.283a53 53 0 0 1-.362-6.205.015.015 0 0 0-.029 0 50 50 0 0 0 .46 8.369q.145 1.006.33 2.006c.065.353.131.705.21 1.055a3.4 3.4 0 0 0 .257.972c.146.223.417.107.26-.043m.973-3.259a41 41 0 0 1-.447-4.822.017.017 0 0 0-.034 0 35 35 0 0 0 .285 4.69 18.8 18.8 0 0 0 1.038 4.745.037.037 0 0 0 .07-.02c-.215-1.542-.678-3.049-.912-4.593m2.022 2.227c-.22-.995-.432-1.993-.626-2.993-.003-.016-.031-.013-.03.004.128.998.279 1.991.471 2.98a19 19 0 0 0 .75 3.028.044.044 0 0 0 .085-.024c-.15-1.01-.43-1.998-.65-2.995m2.011 1.867c-.066-.26-.13-.519-.202-.776l-.425-1.515a.022.022 0 0 0-.043.012l.338 1.539c.055.251.118.5.18.75a3.4 3.4 0 0 0 .23.713.025.025 0 0 0 .047-.012 3.2 3.2 0 0 0-.125-.711m1.316-.088a4.2 4.2 0 0 0-.463-.709c-.012-.015-.038.005-.027.02a7 7 0 0 1 .422.713c.134.252.229.515.339.777a.02.02 0 0 0 .037-.01 3.6 3.6 0 0 0-.308-.791m8.95 12.358c-.35 1.1-.71 2.21-.95 3.341-.12.558-.175 1.124-.334 1.675-.134.461-.46 1.06-.325 1.543a.125.125 0 0 0 .225.03 1.27 1.27 0 0 0 .182-.683c.026-.29.048-.58.084-.868a15 15 0 0 1 .402-1.698c.27-1.105.489-2.222.763-3.327a.025.025 0 0 0-.047-.013m-2.12-.879a18 18 0 0 0-.538 2.09 11 11 0 0 0-.172 2.102.035.035 0 0 0 .067.01 36 36 0 0 0 .415-2.069c.117-.7.216-1.403.342-2.102a.059.059 0 0 0-.114-.031m-1.693-2.132a10 10 0 0 0-.236 1.06l-.073.546a4 4 0 0 0-.013.546.054.054 0 0 0 .106.014 4 4 0 0 0 .14-.529l.08-.545a10 10 0 0 0 .063-1.083.035.035 0 0 0-.067-.009m31.7 11.768c-.392.717-.792 1.425-1.252 2.1q-.348.51-.729.996-.173.222-.344.446l-.003.004v-.004c.011-.17-.243-.164-.26 0a1.2 1.2 0 0 1-.072.476c-.004.006-.001.012-.004.018l-.014.025.009-.002a.177.177 0 0 0 .254.204 1.5 1.5 0 0 0 .384-.423q.189-.246.359-.506.347-.536.656-1.095a16 16 0 0 0 1.042-2.228c.006-.016-.019-.026-.027-.011m84.227-25.049q-.07-.491-.146-.98c-.055-.343-.146-.683-.185-1.026a.04.04 0 0 0-.079 0c-.03.36-.094.711-.1 1.075a8 8 0 0 0 .042.994 7 7 0 0 0 .5 1.929c.029.069.139.032.137-.037a18 18 0 0 0-.17-1.956m11.18 9.011a16 16 0 0 1 .037-1.844c.072-1.203.172-2.404.234-3.608 0-.01-.018-.014-.02-.003a25 25 0 0 0-.324 3.543c-.016.591-.014 1.185-.052 1.775-.02.319-.05.637-.067.956a1.4 1.4 0 0 0 .063.723.08.08 0 0 0 .135 0 1.5 1.5 0 0 0 .047-.723q-.029-.41-.053-.82m-1.563-3.41a.042.042 0 0 0-.082-.011 19.4 19.4 0 0 0-.353 3.273c-.023.544-.04 1.096-.102 1.637-.038.331-.131.636-.187.961a.8.8 0 0 0 .095.59.074.074 0 0 0 .127 0 .85.85 0 0 0 .116-.668 8 8 0 0 1-.086-.757 12 12 0 0 1 .108-1.7c.132-1.11.299-2.209.364-3.325m-2.265 3.838q-.194.99-.326 1.99a10 10 0 0 0-.118 2.08c.003.03.052.043.058.008.103-.65.117-1.313.168-1.969q.083-1.056.232-2.105c.002-.009-.012-.013-.014-.004m-1.918 2.247a7.6 7.6 0 0 0-.549 3.107c.002.026.044.036.048.007.085-.517.131-1.04.22-1.556a21 21 0 0 1 .319-1.548.02.02 0 0 0-.038-.01m-1.776.25c-.303.858-.5 1.749-.737 2.626q-.09.33-.183.658a3.6 3.6 0 0 1-.197.655 1.4 1.4 0 0 0-.177.528 6 6 0 0 0-.02.649.06.06 0 0 0 .109.03 4 4 0 0 0 .384-.55 1.4 1.4 0 0 0 .147-.535 5 5 0 0 1 .182-.658q.094-.355.176-.712a10.6 10.6 0 0 0 .335-2.688.01.01 0 0 0-.019-.003m-1.954 4.246-.181.316c-.03.051-.053.108-.077.162a1 1 0 0 0-.067.167c-.005.017.02.035.033.019a1 1 0 0 0 .09-.146c.029-.054.061-.108.086-.164l.146-.337c.008-.02-.019-.038-.03-.018m-22.185 10.594a.02.02 0 0 0-.04 0 22 22 0 0 0 .07 4.184c.008.053.083.034.087-.012a22 22 0 0 0-.117-4.172m-2.073-.534a.032.032 0 0 0-.063 0c-.02 1.387-.165 2.766-.237 4.15q-.054 1.038-.12 2.074a4.55 4.55 0 0 0 .052 1.935.09.09 0 0 0 .161.021 3.9 3.9 0 0 0 .322-1.796q.059-1.077.073-2.154c.022-1.41-.112-2.822-.188-4.23m-2.466 1.499c-.006-.038-.055-.027-.066 0-.601 1.482-.425 3.175-.495 4.741-.035.791-.065 1.582-.103 2.373q-.032.641-.11 1.279a1.27 1.27 0 0 0 .086.954.083.083 0 0 0 .14 0 1.3 1.3 0 0 0 .114-.954 13 13 0 0 1-.042-1.28c.016-.79.064-1.583.127-2.372.124-1.565.595-3.17.35-4.74m-3.479 5.599c-.028-.655-.07-1.308-.11-1.963a.022.022 0 0 0-.044 0c-.045.618-.093 1.236-.126 1.854-.016.303-.021.605-.025.909-.001.13-.01.262-.003.393a2.2 2.2 0 0 1 .014.485.03.03 0 0 0 .054.023 1.25 1.25 0 0 0 .25-.764 19 19 0 0 0-.01-.937m-.202 4.636-.02-1.037a.064.064 0 0 0-.127 0l-.019 1.037a4 4 0 0 0 .05 1.005.035.035 0 0 0 .066 0 4 4 0 0 0 .05-1.005m-2.463-3.704c0-.01-.014-.01-.015 0a113 113 0 0 0-.342 3.56q-.07.859-.133 1.718c-.023.308-.053.617-.06.926-.004.21-.042.428.133.57a.06.06 0 0 0 .071.01c.16-.124.147-.25.157-.448.015-.308-.001-.618-.006-.926q-.013-.892.007-1.784c.027-1.21.095-2.419.188-3.627m-2.457 3.309c-.115.965-.247 1.928-.36 2.893-.055.481-.103.964-.154 1.446a3.9 3.9 0 0 0-.03 1.352.067.067 0 0 0 .12.016 3.7 3.7 0 0 0 .204-1.257q.057-.75.102-1.502c.061-.982.098-1.965.153-2.948 0-.022-.032-.021-.035 0m-2.629 6.135c.022-.171.048-.343.07-.514.106-.872.197-1.745.283-2.619.002-.016-.026-.02-.029-.004-.165.864-.325 1.726-.47 2.594-.03.18-.054.362-.083.544h-.068c-.218 0-.434.02-.651.039a.012.012 0 0 0 0 .023c.217.018.433.04.65.04h.053a14 14 0 0 0-.196 1.9.037.037 0 0 0 .073.01 14 14 0 0 0 .354-1.91 2 2 0 0 0 .349-.029.024.024 0 0 0 0-.045 2 2 0 0 0-.335-.029m-.774 1.837a8.5 8.5 0 0 0-1.422-.264q.057-.695.072-1.394c0-.019-.027-.018-.03 0-.053.46-.136.917-.227 1.372l-.697-.068c-.033-.003-.04.05-.008.057q.339.075.678.144c-.02.095-.036.191-.057.286-.06.277-.113.555-.175.832l-.028.134a23 23 0 0 0-2.612-.532.025.025 0 0 0-.014.049 11 11 0 0 0 2.6.605 1.5 1.5 0 0 0-.04.56.052.052 0 0 0 .086.023 1.4 1.4 0 0 0 .226-.562l.024.002a.031.031 0 0 0 .008-.061l-.017-.005c.01-.047.024-.095.033-.14.057-.29.11-.58.143-.874.01-.092.014-.185.023-.278a8.5 8.5 0 0 0 1.426.176.031.031 0 0 0 .008-.061m-3.37 1.216c-.058.217-.13.43-.175.649-.045.216-.075.43-.103.65-.003.024.037.028.043.005.062-.212.121-.422.166-.639s.065-.438.098-.657c.002-.019-.024-.027-.029-.008m-1.645 2.163c.017-.018-.01-.046-.028-.027a.48.48 0 0 0-.1.447.015.015 0 0 0 .029-.008.44.44 0 0 1 .1-.412m19.121 15.093c-.01-.329-.044-.654-.063-.982a.027.027 0 0 0-.054 0c-.019.328-.053.653-.063.982a3.5 3.5 0 0 0 .057.953.035.035 0 0 0 .066 0 3.5 3.5 0 0 0 .057-.953m-1.82-1.838a.012.012 0 0 0-.025 0c-.033.876-.102 1.748-.149 2.623a19 19 0 0 0-.045 2.62c.003.044.072.06.082.011a13.6 13.6 0 0 0 .193-2.58c.009-.89-.03-1.783-.056-2.674m-2.116 1.179-.265 2.944c-.044.49-.093.98-.134 1.472a4.4 4.4 0 0 0-.003 1.377.07.07 0 0 0 .133 0 4.5 4.5 0 0 0 .171-1.377l.055-1.472.112-2.944c.002-.044-.065-.043-.069 0m-2.726 1.286a31 31 0 0 0-.379 3.3c-.036.573-.057 1.146-.103 1.718a10 10 0 0 0-.116 1.72c.005.045.077.064.087.011a10.4 10.4 0 0 0 .076-1.599c.022-.575.09-1.147.153-1.718.125-1.14.24-2.283.325-3.426.002-.025-.04-.03-.043-.006m-2.853 3.099c-.077.945-.155 1.89-.218 2.836l-.096 1.418a4.2 4.2 0 0 0-.035 1.32.042.042 0 0 0 .08 0 2 2 0 0 0 .088-.666l.034-.654.074-1.418c.05-.945.086-1.89.122-2.836.002-.032-.046-.031-.049 0m-2.189 1.182a46 46 0 0 0-.455 3.04c-.057.516-.1 1.036-.138 1.555a6 6 0 0 0 .015 1.509.04.04 0 0 0 .076 0 7.5 7.5 0 0 0 .14-1.45q.035-.778.091-1.555c.073-1.035.157-2.067.286-3.097 0-.008-.013-.01-.015-.002m-3.011 3.209c-.14.595-.26 1.196-.35 1.8a5.2 5.2 0 0 0-.053 1.733.032.032 0 0 0 .061 0 10.3 10.3 0 0 0 .16-1.71 17 17 0 0 1 .206-1.817c.002-.015-.02-.022-.024-.006m-2.977 3.192a12 12 0 0 0-.194 1.507.02.02 0 0 0 .039.006 12 12 0 0 0 .213-1.505c.004-.033-.052-.04-.058-.008m-3.514 1.914-.3.548a.012.012 0 0 0 .022.012l.316-.538c.014-.024-.025-.047-.038-.022m-8.891 6.764a.025.025 0 0 0-.049 0 38 38 0 0 0-.164 4.279.044.044 0 0 0 .089 0 38 38 0 0 0 .124-4.278m-2.292-.643a.015.015 0 0 0-.03 0c-.003 1.695-.04 3.389-.076 5.084-.036 1.687-.183 3.395-.09 5.082.002.033.057.046.063.008a38 38 0 0 0 .21-4.99c.014-1.728-.025-3.457-.078-5.184m-2.535 1.927c-.086 1.944-.173 3.887-.247 5.83l-.108 2.859a18.6 18.6 0 0 0 0 2.972c.004.037.064.054.072.01a17 17 0 0 0 .17-2.754l.063-2.972c.042-1.982.07-3.963.099-5.945a.025.025 0 0 0-.05 0m-2.983 9.319c.133-2.253.31-4.503.516-6.751.002-.02-.031-.024-.034-.005q-.449 3.3-.634 6.626c-.062 1.128-.086 2.256-.126 3.385q-.031.848-.064 1.694a5.2 5.2 0 0 0 .042 1.573.035.035 0 0 0 .066 0 5.7 5.7 0 0 0 .066-1.573 51 51 0 0 1 .005-1.563c.024-1.13.095-2.258.162-3.386m-2.646 4.811c.041-2.32.251-4.637.357-6.955.001-.025-.037-.024-.04 0a91 91 0 0 0-.33 5.608c-.023.898-.034 1.796-.055 2.694q-.014.674-.037 1.346a13 13 0 0 0-.09 1.45.09.09 0 0 0-.121.031l-.037.05a.15.15 0 0 0 .022.178.282.282 0 0 0 .416.051c.277-.226.068-.812.037-1.086a25 25 0 0 1-.122-3.367m-2.683 2.467c.055-2.036.131-4.072.113-6.11a.015.015 0 0 0-.03 0c-.123 1.853-.165 3.71-.223 5.565-.028.909-.047 1.819-.084 2.727q-.025.656-.1 1.31c-.026.218-.06.435-.081.654l-.028.436a.22.22 0 0 0 .035.245c-.007.001-.012-.005-.019-.002l-.05.023a.1.1 0 0 0-.05.087.26.26 0 0 0 .077.213.18.18 0 0 0 .221.028c.23-.154.225-.328.231-.594.011-.51-.053-1.017-.07-1.527-.031-1.016.031-2.039.058-3.055m-2.664-.592a.258.258 0 0 0-.44 0 .94.94 0 0 0-.07.566c.022.178.029.358.05.537.044.357.067.717.09 1.076.004.05.083.068.092.013.059-.354.113-.711.196-1.059.042-.171.067-.345.101-.517a1.05 1.05 0 0 0-.019-.616m-.259 8.788c-.045-.314-.099-.625-.135-.94a18 18 0 0 1-.075-1.918.032.032 0 0 0-.064 0c-.003.576-.03 1.148-.06 1.723a8 8 0 0 1-.107.855c-.022.137-.046.274-.06.412.001-.007-.032.14-.005.09l-.02.036-.013.023a.13.13 0 0 0-.03.055l.015-.012c-.009.023-.026.045-.023.069v.002a.243.243 0 0 0 .238.238c.358-.004.377-.365.339-.633m-2.854-5.719a.043.043 0 0 0-.06 0c-.41.345-.264 1.343-.257 1.822.01.734.02 1.466.004 2.2-.015.728-.05 1.456-.068 2.184a5.8 5.8 0 0 0 .109 2.114c.014.039.08.049.09 0a11.5 11.5 0 0 0-.03-2.114c-.003-.727.031-1.46.085-2.185.054-.735.134-1.466.213-2.2.054-.49.3-1.433-.086-1.821m-2.822 10.001q-.028-.824-.072-1.647a62 62 0 0 0-.246-3.357.017.017 0 0 0-.034 0 57 57 0 0 0-.033 3.113 21 21 0 0 1-.015 2.983.072.072 0 0 0 .12.07c.34-.299.295-.744.28-1.161m-2.666-1.476a.047.047 0 0 0-.093 0c-.021.536-.063 1.071-.095 1.606a8.5 8.5 0 0 0-.024 1.602.05.05 0 0 0 .096.013 4.6 4.6 0 0 0 .23-1.583 11 11 0 0 0-.114-1.638m80.975-73.39a.027.027 0 0 0-.054 0 18 18 0 0 1-.208 1.791c-.088.583-.175 1.163-.306 1.739a.044.044 0 0 0 .085.023 8.3 8.3 0 0 0 .455-1.73 9 9 0 0 0 .028-1.823m-1.435 1.605a26 26 0 0 1-.408 2.76 118 118 0 0 0-.456 2.69.061.061 0 0 0 .118.032 11 11 0 0 0 .7-2.673 22 22 0 0 0 .115-2.81.034.034 0 0 0-.069 0m-1.741 2.889a59 59 0 0 1-.581 3.853c-.007.034.043.049.052.015a21.4 21.4 0 0 0 .622-3.868c.005-.06-.086-.058-.093 0m1.154-30.956q-.393 1.36-.779 2.72c-.124.439-.208.884-.319 1.325-.06.24-.138.468-.215.702a.9.9 0 0 0-.084.546.05.05 0 0 0 .082.022.9.9 0 0 0 .191-.516c.047-.241.09-.48.153-.718.117-.44.26-.87.364-1.313q.322-1.379.641-2.758a.018.018 0 0 0-.034-.01m-2.313 2.039q-.29 1.26-.602 2.515a11 11 0 0 1-.358 1.218c-.116.305-.377.76-.19 1.079a.08.08 0 0 0 .108.028c.3-.187.287-.67.32-.982a13 13 0 0 1 .226-1.314q.266-1.268.511-2.54c.002-.01-.012-.014-.015-.004m-2.483 2.87-.494 1.657c-.081.27-.17.54-.257.809-.043.134-.088.268-.123.405a1 1 0 0 0-.04.17c-.007.068.014.148-.038.203-.03.032-.012.103.04.097.245-.03.31-.238.358-.45.073-.318.122-.642.187-.962.128-.64.272-1.279.408-1.917a.022.022 0 0 0-.041-.012m-2.47 2.224c-.158.368-.325.731-.482 1.1a3 3 0 0 0-.305 1.126c0 .033.047.058.07.029a3 3 0 0 0 .461-1.06c.11-.39.203-.782.31-1.172.008-.031-.041-.054-.054-.023m-2.941 1.698a12.5 12.5 0 0 0-.44 1.805.035.035 0 0 0 .067.019 12.4 12.4 0 0 0 .479-1.795.055.055 0 0 0-.106-.03m11.985-38.903a29.6 29.6 0 0 1-.34-4.648c0-.026-.038-.025-.04 0a22 22 0 0 0 .087 4.773 14 14 0 0 0 1.147 4.338c.02.04.075.01.068-.029-.27-1.486-.698-2.937-.922-4.434m-1.623 4.438a11.6 11.6 0 0 1-.368-2.116c-.13-1.366-.218-2.74-.32-4.109-.003-.05-.078-.05-.077 0a26.6 26.6 0 0 0 .316 4.195c.12.683.268 1.361.417 2.038a5.2 5.2 0 0 0 .65 1.981.031.031 0 0 0 .058-.024 17 17 0 0 0-.676-1.965m-1.288 2.568a33 33 0 0 1-.384-1.78 32 32 0 0 1-.452-3.67c0-.01-.016-.01-.016 0a28 28 0 0 0 .304 3.507 16.2 16.2 0 0 0 .813 3.474c.008.021.043.02.042-.005a8.7 8.7 0 0 0-.307-1.526m-1.781.315a66 66 0 0 1-.455-3.038c-.002-.015-.024-.016-.023 0a26 26 0 0 0 .244 2.925 14 14 0 0 0 .668 2.951c.01.029.062.028.058-.007-.11-.953-.33-1.887-.492-2.832m-1.766 2.48c-.128-.82-.277-1.637-.42-2.455-.003-.017-.033-.014-.031.004.094.799.18 1.6.29 2.396a21 21 0 0 0 .41 2.458.026.026 0 0 0 .049-.007 20 20 0 0 0-.298-2.396m-2.577-.369-.097-1.064c-.002-.024-.04-.025-.039 0l.05 1.086a7 7 0 0 0 .101 1.048c.004.018.03.012.031-.004a7 7 0 0 0-.046-1.065m.236 3.086a4 4 0 0 0-.165-.674c-.021-.061-.117-.036-.098.027a3 3 0 0 1 .13.653c.008.108.008.216.012.324a.6.6 0 0 0 .04.307.037.037 0 0 0 .057.007.5.5 0 0 0 .057-.314 2 2 0 0 0-.033-.33m-1.952.915c-.041-.526-.11-1.052-.166-1.576-.003-.03-.048-.031-.047 0 .017.535.021 1.072.052 1.607a10 10 0 0 0 .163 1.551c.007.03.048.02.05-.007a10 10 0 0 0-.052-1.575m-2.043 1.994a11 11 0 0 0-.271-1.364c-.005-.02-.041-.017-.038.005.054.46.073.923.086 1.385.006.228.009.458.024.685a3.2 3.2 0 0 0 .083.669.035.035 0 0 0 .068 0 3.2 3.2 0 0 0 .048-1.38m-2.668 1.184c-.012-.026-.055-.007-.047.02a1.8 1.8 0 0 1 .056.513 1.6 1.6 0 0 1-.021.254l-.019.125c-.008.04-.02.08-.024.122-.002.028.034.03.047.012a.7.7 0 0 0 .107-.257 1.4 1.4 0 0 0 .03-.265 1.25 1.25 0 0 0-.13-.524m-2.417 1.798-.085.256c-.002.004.006.006.007.002l.09-.255c.002-.007-.01-.01-.012-.003m-17.085 2.972a6 6 0 0 0-.13-.423c-.098-.29-.223-.573-.333-.86-.026-.066-.13-.041-.11.03.081.295.149.595.241.886q.066.212.147.417a2 2 0 0 0 .2.414.037.037 0 0 0 .068-.02 2 2 0 0 0-.083-.445M263.66 71.763c-.022-.004-.032.03-.01.034.707.16 1.41.323 2.126.437.021.003.031-.028.009-.034-.702-.178-1.413-.305-2.125-.437m12.156 20.313a24 24 0 0 0-4.527-1.177 57 57 0 0 0-4.483-.614c-.015-.002-.019.024-.004.027 1.507.245 3.006.547 4.496.88 1.495.334 2.979.736 4.49.986a.053.053 0 0 0 .028-.102m2.489-1.441a32 32 0 0 0-4.401-.994c-1.482-.275-2.974-.507-4.462-.75-.02-.002-.028.027-.008.031 1.501.303 2.995.642 4.493.963a43 43 0 0 0 4.365.845c.057.007.062-.079.013-.096m1.938-.947a30 30 0 0 0-3.623-1.034 97 97 0 0 0-3.677-.83c-.02-.004-.028.025-.009.03 1.219.303 2.432.626 3.645.95 1.211.322 2.414.715 3.646.951a.035.035 0 0 0 .018-.067m2.037-1.816a6.6 6.6 0 0 0-1.535-.324c-.491-.123-.974-.282-1.457-.431a97 97 0 0 0-3.034-.869.025.025 0 0 0-.014.05c.996.347 1.993.677 3.008.962.488.136.98.262 1.462.417a6.3 6.3 0 0 0 1.48.527.18.18 0 0 0 .09-.332m2.306-1.151a3.5 3.5 0 0 0-1.506-.336 9 9 0 0 1-1.45-.385c-.472-.165-.939-.35-1.419-.494-.516-.155-1.044-.262-1.572-.374a.03.03 0 0 0-.015.056c.506.188 1.01.38 1.53.524.483.135.975.227 1.462.34a9 9 0 0 1 1.52.49 3.16 3.16 0 0 0 1.369.48.164.164 0 0 0 .081-.302m2.013-1.629a3.3 3.3 0 0 0-1.043-.321q-.514-.128-1.027-.258-1.068-.27-2.146-.484a.025.025 0 0 0-.014.049q1.057.302 2.11.616.507.152 1.009.323a3.5 3.5 0 0 0 1.047.31.128.128 0 0 0 .064-.236m2.276-1.149a1.84 1.84 0 0 0-.822-.332q-.5-.134-1.003-.261a28 28 0 0 1-1.949-.575c-.016-.005-.028.021-.012.029q.914.429 1.858.784.47.177.952.313a1.8 1.8 0 0 0 .956.12.047.047 0 0 0 .02-.079M226.304 83a186 186 0 0 1-1.366 5.181.018.018 0 0 0 .034.01 60 60 0 0 0 1.35-5.185c.003-.013-.015-.018-.018-.006m-19.714 28.052a63 63 0 0 0-1.737 3.43c-.271.576-.578 1.138-.828 1.725-.108.253-.206.51-.306.768-.062.158-.132.317-.184.48-.008.024-.06.284-.063.294a.2.2 0 0 0-.015.117.15.15 0 0 0 .143.109c.178.001.256-.131.328-.28.146-.303.235-.647.352-.963.23-.62.415-1.255.65-1.871.493-1.293 1.073-2.554 1.683-3.795.007-.016-.015-.03-.024-.014m-2.505.221c-.17.403-.432.76-.593 1.167a6 6 0 0 0-.197.596c-.057.208-.16.402-.212.61-.008.034.038.067.062.037a6 6 0 0 0 .338-.544 4 4 0 0 0 .314-.569 8 8 0 0 0 .322-1.287.018.018 0 0 0-.034-.01m-1.447 3.581a7 7 0 0 1-.355.757c-.063.113-.136.22-.199.333a.57.57 0 0 0-.11.43.14.14 0 0 0 .204.083.54.54 0 0 0 .198-.39c.025-.135.04-.27.065-.405a7 7 0 0 1 .212-.803c.003-.01-.011-.014-.015-.005m-.912-3.969c-.231.436-.455.875-.657 1.325a3.1 3.1 0 0 0-.4 1.364.041.041 0 0 0 .076.02 4.4 4.4 0 0 0 .511-1.332c.146-.462.307-.92.495-1.367.006-.014-.018-.024-.025-.01m-7.031-6.757c-.005-.025-.041-.014-.037.01.042.28.086.564.15.84a8 8 0 0 0 .239.817.02.02 0 0 0 .037-.01c-.129-.552-.27-1.103-.389-1.657m28.413 5.106c-.455 2.092-.967 4.173-1.462 6.255a.027.027 0 0 0 .053.015 48 48 0 0 0 1.431-6.264c.003-.014-.019-.021-.022-.006m-1.837 2.938-.256 1.213c-.002.013.016.018.019.006l.274-1.209c.006-.024-.032-.034-.037-.01m-10.334 25.008c-.002-.028-.044-.029-.043 0 .08 2.724.16 5.45.387 8.167.002.03.047.03.047 0-.032-2.726-.212-5.448-.39-8.168m-1.743 1.874c0-.013-.02-.013-.02 0 .07 2.893.148 5.793.393 8.678.003.03.047.03.047 0-.025-2.896-.22-5.79-.42-8.678m-1.256 3.231c0-.02-.03-.02-.032 0a34.8 34.8 0 0 0 .152 6.977c.004.03.049.031.047 0-.121-2.326-.207-4.647-.167-6.977m-1.884 4.254a.023.023 0 0 0-.047 0c-.01 1.306-.021 2.61.008 3.915a.016.016 0 0 0 .031 0c.03-1.305.019-2.61.008-3.915m-8.511 11.065c-.003-.052-.083-.053-.082 0 .027 1.131-.026 2.275-.043 3.407-.017 1.135-.03 2.268-.091 3.402-.003.04.057.038.062 0 .137-1.13.254-2.265.285-3.402.032-1.147-.054-2.266-.131-3.407m-1.885 1.701a.01.01 0 0 0-.02 0c-.065 2.609-.122 5.222-.014 7.83a.023.023 0 0 0 .047 0c.109-2.608.052-5.221-.013-7.83m-1.698 2.213a.014.014 0 0 0-.028 0c-.065 2.487-.193 5.005-.02 7.49a.033.033 0 0 0 .067 0c.173-2.485.045-5.003-.02-7.49m-1.531 3.747a38 38 0 0 0-.194 6.125.018.018 0 0 0 .035 0 60 60 0 0 1 .183-6.125c.001-.015-.022-.014-.024 0m-1.37 3.743a.006.006 0 0 0-.012 0c-.003 1.02-.012 2.042-.004 3.063a.01.01 0 0 0 .02 0c.009-1.02-.001-2.042-.004-3.063m-39.14 76.999a7.3 7.3 0 0 0-1.673-.498l-1.89-.492c-1.237-.323-2.481-.619-3.722-.926a.027.027 0 0 0-.015.052c1.231.344 2.46.7 3.694 1.03l1.817.485a7.6 7.6 0 0 0 1.772.411.033.033 0 0 0 .017-.062m.375-1.282a30 30 0 0 0-2.93-.783l-2.95-.713a.022.022 0 0 0-.012.041l2.93.787a30 30 0 0 0 2.949.717.025.025 0 0 0 .013-.049m-1.427-2.077q-.593-.12-1.185-.236c-.792-.153-1.585-.297-2.378-.446-.007-.001-.01.01-.003.011.801.176 1.601.357 2.403.527l1.183.246a8 8 0 0 0 1.15.203c.022 0 .023-.029.006-.035a8 8 0 0 0-1.176-.27m-2.283-2.097c-.014-.002-.021.02-.006.023.978.176 1.956.377 2.944.49.02.003.024-.03.004-.034-.97-.209-1.96-.331-2.942-.478m3.32-1.564c-.294-.004-.588.007-.881-.008a6 6 0 0 1-.9-.12c-.03-.006-.043.039-.013.046a4.5 4.5 0 0 0 1.798.112c.018-.003.013-.03-.004-.03m-.255-1.775a.008.008 0 0 0 0 .015h.51a.008.008 0 0 0 0-.015Zm-30.368 23.703c-1.64-.625-3.284-1.23-4.892-1.934-.007-.003-.013.006-.006.01a40 40 0 0 0 4.89 1.958c.021.006.03-.026.009-.034m6.111.571c-1.355-.674-2.84-1.137-4.252-1.675-1.473-.561-2.953-1.104-4.43-1.652-.015-.006-.02.017-.007.022 1.44.573 2.88 1.152 4.325 1.713 1.431.556 2.867 1.218 4.347 1.631.023.007.04-.028.017-.039m1.353-1.664q-3.067-1.076-6.073-2.317c-.019-.007-.032.025-.014.032a80 80 0 0 0 12.27 4.311.018.018 0 0 0 .009-.034c-2.06-.679-4.144-1.273-6.192-1.992m.182-1.802c-.01-.003-.014.012-.005.015 1.568.568 3.128 1.175 4.722 1.666.02.006.027-.023.008-.03-1.55-.613-3.147-1.114-4.725-1.651m8.472 2.729q-.195-.063-.39-.121a5.5 5.5 0 0 1-.802-.308c-.056-.026-.105.055-.049.085.258.133.522.256.785.38a3 3 0 0 0 .403.156.7.7 0 0 0 .401.054.044.044 0 0 0 .02-.072.8.8 0 0 0-.368-.174m1.996-.946a27 27 0 0 0-2.613-.845q-1.316-.39-2.633-.775a.016.016 0 0 0-.008.03l2.612.851a27 27 0 0 0 2.631.78.022.022 0 0 0 .011-.04m1.148-1.653a21 21 0 0 0-2.417-.672.02.02 0 0 0-.01.038 21 21 0 0 0 2.416.672.02.02 0 0 0 .01-.038"/></svg>