<svg xmlns="http://www.w3.org/2000/svg" data-name="seahorse" viewBox="0 0 550.884 306.245"><path fill="currentColor" d="M476.117 109.862a.05.05 0 0 0-.098.027c.336 1.13.681 2.255 1.051 3.375a.023.023 0 0 0 .045-.013c-.313-1.136-.65-2.263-.998-3.389m-17.451-.366a.031.031 0 0 0-.063 0c-.031 1.044-.1 2.085-.12 3.129-.001.046.064.043.07 0a19 19 0 0 0 .113-3.129m2.774-1.15a.02.02 0 0 0-.039 0 86 86 0 0 1-.259 4.391c-.126 1.454-.352 2.9-.469 4.354-.005.072.104.083.123.017a20.4 20.4 0 0 0 .682-4.287 28 28 0 0 0-.038-4.475m2.51.943c-.124-.156-.35-.045-.405.107a5.4 5.4 0 0 0 .053 2.24 15.4 15.4 0 0 1-.005 2.356c-.117 1.664-.42 3.304-.696 4.947-.004.024.032.035.038.01a47 47 0 0 0 .803-4.957 42 42 0 0 1 .412-2.646 2.47 2.47 0 0 0-.2-2.057m2.445 1.988a.55.55 0 0 0-.165-.222l-.07-.05c-.035-.02-.031-.018-.048-.059-.009-.023-.047-.022-.046.006a.2.2 0 0 1-.056.131.6.6 0 0 0-.1.26 2 2 0 0 0 .025.497q.031.209.057.425.014.114.02.229a1 1 0 0 0 .02.216.08.08 0 0 0 .142.018 1 1 0 0 0 .102-.23q.04-.108.074-.217a2.7 2.7 0 0 0 .098-.494 1.1 1.1 0 0 0-.053-.51m-.555 5.094q-.166.902-.288 1.81a6.8 6.8 0 0 0-.122 1.785c.008.057.09.079.108.014a10 10 0 0 0 .204-1.738q.09-.92.225-1.836c.013-.082-.112-.12-.128-.035m2.729-2.851a211 211 0 0 1-.396 3.866c-.072.63-.131 1.26-.205 1.89a9 9 0 0 0-.115 1.96.063.063 0 0 0 .123.016 7.2 7.2 0 0 0 .35-1.826c.069-.653.138-1.309.182-1.965q.133-1.968.123-3.94a.031.031 0 0 0-.062 0m2.432 3.954a.066.066 0 0 0-.132 0c-.079 1.471-.354 2.928-.365 4.402a.051.051 0 0 0 .1.013 12.7 12.7 0 0 0 .397-4.415m43.849 23.275c-1.498-.874-3.062-1.63-4.557-2.514a43 43 0 0 1-4.309-2.913c-.08-.061-.188.077-.109.141a44 44 0 0 0 4.259 3.045 22.8 22.8 0 0 0 4.665 2.362c.072.024.115-.084.05-.122m-5.201-93.137a.098.098 0 0 0-.17.099c1.73 2.876 3.187 5.886 4.794 8.828.023.042.097.013.079-.033a54.7 54.7 0 0 0-4.703-8.894m8.852 11.464c-.21-.54-.469-1.057-.722-1.578-.527-1.083-.996-2.194-1.518-3.28a73 73 0 0 0-3.543-6.44.086.086 0 0 0-.148.087c1.115 2.141 2.15 4.337 3.148 6.535.502 1.106 1.02 2.22 1.427 3.365.209.585.396 1.177.638 1.75.16.377.303.734.712.868a.115.115 0 0 0 .128-.052c.238-.417.039-.84-.122-1.255m.811-3.266c-.037-.219-.093-.436-.148-.65a9 9 0 0 0-.491-1.323 18 18 0 0 0-1.311-2.498.043.043 0 0 0-.079.033 18 18 0 0 0 .76 2.731 9 9 0 0 0 .55 1.297c.107.192.215.385.337.569a4 4 0 0 0 .36.565.087.087 0 0 0 .147-.06 4.4 4.4 0 0 0-.125-.664m2.072 4.372a.6.6 0 0 0-.101-.151l-.122-.216c-.078-.143-.17-.275-.245-.418-.074-.14-.165-.276-.226-.42l-.204-.487a.174.174 0 0 0-.206-.117.17.17 0 0 0-.118.207l.192.49c.061.156.095.323.142.484.047.163.076.327.12.49l.066.253a1.5 1.5 0 0 0 .125.285.324.324 0 0 0 .405.133.33.33 0 0 0 .188-.383q-.004.19.012.023a.1.1 0 0 0 .003-.034.4.4 0 0 0-.03-.14m1.127-3.569c-.276-.58-.617-1.13-.936-1.686-.03-.052-.122-.017-.1.042.22.597.426 1.2.682 1.783a14 14 0 0 0 .914 1.688c.043.07.163.026.136-.057a15 15 0 0 0-.696-1.77m18.895-.067q-.288-.646-.578-1.29-.606-1.334-1.217-2.664a193 193 0 0 0-2.481-5.183c-.025-.051-.115-.015-.093.039a189 189 0 0 0 2.17 5.147l1.148 2.588q.287.645.58 1.29a2.8 2.8 0 0 0 .663 1.146.071.071 0 0 0 .12-.05 2.16 2.16 0 0 0-.312-1.023m-.397-3.842c-.02-.039-.087-.012-.071.03a11.4 11.4 0 0 0 1.946 3.479c.03.034.082-.01.061-.048-.644-1.154-1.338-2.283-1.936-3.461m-3.988 95.337c-.924-.599-1.924-1.09-2.892-1.616-.967-.526-1.943-1.066-2.872-1.658-.042-.027-.083.032-.052.068a9.45 9.45 0 0 0 5.776 3.352c.083.008.099-.107.04-.146m-73.938 2.872a33.5 33.5 0 0 0-7.631 8.376c-.548.783-1.083 1.576-1.632 2.358a6.5 6.5 0 0 1-.874 1.11c-.362.328-.841.456-1.195.805a4.3 4.3 0 0 0-1.098 2.134 1.55 1.55 0 0 0-.009.944c.103.317.53.694.47 1.032-.076.417.425.801.761.443 1.814-1.93 3.513-3.98 5.192-6.027.844-1.028 1.666-2.074 2.501-3.109a25 25 0 0 0 2.325-2.954c.033-.058-.04-.103-.086-.067a27 27 0 0 0-2.756 2.854c-.882.93-1.772 1.852-2.64 2.794-1.591 1.727-3.176 3.47-4.678 5.277-.175-.24-.402-.46-.589-.712-.802-1.088 1.38-1.357 1.897-1.883a12 12 0 0 0 .84-1.17q.348-.453.664-.928c.527-.793 1.024-1.607 1.537-2.409a39.6 39.6 0 0 1 7.03-8.831c.02-.018-.007-.053-.029-.037m-2.087 7.979a90 90 0 0 1-3.124 3.255c-.525.523-1.055 1.045-1.566 1.583a3.97 3.97 0 0 0-1.234 1.75.15.15 0 0 0 .183.183 3.7 3.7 0 0 0 1.627-1.358c.488-.568.953-1.161 1.41-1.754.926-1.201 1.832-2.417 2.746-3.626.02-.024-.022-.056-.042-.033m-39.68-43.729a26.3 26.3 0 0 0-4.957-3.822c-1.768-1.189-3.582-2.3-5.416-3.385-.03-.018-.066.026-.038.049 1.64 1.283 3.276 2.567 4.948 3.806a31 31 0 0 0 5.307 3.555.13.13 0 0 0 .156-.203m1.495-2.692c-.46-.25-.933-.448-1.366-.744-.877-.598-1.68-1.278-2.512-1.935a23.5 23.5 0 0 0-5.084-3.061c-.08-.035-.187.068-.104.135a34.6 34.6 0 0 0 4.896 3.305 26 26 0 0 1 2.52 1.497 11.4 11.4 0 0 1 1.29 1.122 1.5 1.5 0 0 0 .98.54.11.11 0 0 0 .106-.139 1.35 1.35 0 0 0-.727-.72m2.465-2.686c-.117-.087-.274-.178-.286-.185l-.409-.248-.876-.531c-.545-.33-1.098-.648-1.649-.969-1.14-.665-2.3-1.298-3.45-1.948a.04.04 0 0 0-.039.067c1.605 1.089 3.192 2.204 4.829 3.244l1.211.77c.246.155.618.48.925.283.376-.244-.055-.724-.256-.483m1.137-2.642a28 28 0 0 0-.988-.578c-.687-.39-1.374-.775-2.05-1.184-.112-.068-.21.104-.102.175.663.433 1.31.887 1.958 1.34.315.219.628.436.951.642a2.7 2.7 0 0 0 1.02.485.114.114 0 0 0 .098-.17 2.7 2.7 0 0 0-.887-.71m3.241-1.012a4 4 0 0 0-.581-.508 4.3 4.3 0 0 0-.674-.42 6.3 6.3 0 0 0-1.493-.506.102.102 0 0 0-.054.196 10 10 0 0 1 1.4.609c.226.113.445.238.67.355.222.117.43.263.652.38a.067.067 0 0 0 .08-.105m39.77-45.086a33 33 0 0 0-1.468 7.043.059.059 0 0 0 .115.016c.496-2.34.912-4.698 1.504-7.017a.078.078 0 0 0-.15-.042m-2.636-.825a109 109 0 0 0-3.544 18.235.063.063 0 0 0 .122.017c1.243-6.063 2.163-12.186 3.467-18.239a.023.023 0 0 0-.045-.012m-2.422.505c-.832 3.592-1.586 7.199-2.337 10.808-.736 3.542-1.481 7.097-1.886 10.694-.01.08.117.093.138.019.98-3.511 1.621-7.113 2.27-10.698.651-3.598 1.298-7.196 1.868-10.808.005-.034-.045-.05-.053-.015m-3.215 3.916c-.814 3.1-1.581 6.21-2.322 9.328-.74 3.115-1.58 6.238-2.02 9.412a.086.086 0 0 0 .167.046c.985-3.045 1.586-6.219 2.274-9.342.69-3.135 1.354-6.274 1.97-9.425.008-.044-.056-.063-.068-.019m-3.011 4.778a88.4 88.4 0 0 0-3.615 15.498c-.009.075.111.089.13.018 1.343-5.126 2.22-10.366 3.545-15.5a.031.031 0 0 0-.06-.016m-3.94 6.632c-.66 3.082-1.413 6.144-2.103 9.22a.043.043 0 0 0 .083.022c.877-3.032 1.537-6.112 2.14-9.21.015-.077-.104-.111-.12-.032m-4.3-18.905c-.713 2.802-1.523 5.58-2.266 8.373a.05.05 0 0 0 .098.027 56 56 0 0 0 2.32-8.358c.02-.098-.127-.14-.152-.042m-2.705 1.028c-.46 1.773-.972 3.529-1.47 5.29-.014.05.057.067.075.021a29.4 29.4 0 0 0 1.462-5.292c.008-.044-.056-.063-.067-.019m32.66 61.053a12.1 12.1 0 0 0-1.848 3.804 18.6 18.6 0 0 0-.791 4.278.07.07 0 0 0 .138.018 38 38 0 0 1 1.133-4.087c.44-1.338 1.027-2.626 1.44-3.97.012-.04-.045-.077-.072-.043m2.311-1.187c-.633.285-1.021 1.215-1.287 1.81a14 14 0 0 0-.738 2.263 29 29 0 0 0-.493 2.291c-.068.393-.117.787-.166 1.181a3.8 3.8 0 0 0-.063 1.078c.023.14.229.121.264 0a6 6 0 0 0 .106-1.057 13 13 0 0 1 .203-1.258 11.5 11.5 0 0 1 .668-2.172c.283-.67.639-1.306.975-1.948a5 5 0 0 0 .866-1.996.226.226 0 0 0-.335-.192m2.268-.086c-.983.705-1.245 2.048-1.497 3.15a18 18 0 0 1-.495 1.823 13 13 0 0 0-.666 1.84c-.095.526.642.47.63.094.095-.607.052-1.228.154-1.836a7 7 0 0 1 .61-1.822c.493-1.02 1.27-2.062 1.281-3.24a.012.012 0 0 0-.017-.01m1.89-.069a15.4 15.4 0 0 0-.867 2.182 7.4 7.4 0 0 0-.445 2.3.059.059 0 0 0 .115.015 21 21 0 0 0 .636-2.231c.208-.743.435-1.485.682-2.215.024-.07-.089-.12-.121-.051m2.414.179a6.7 6.7 0 0 0-.632 1.348 3 3 0 0 0-.196 1.44c.01.061.096.05.113 0 .153-.444.202-.92.32-1.374a6.6 6.6 0 0 1 .517-1.343.07.07 0 0 0-.122-.071m1.972.898c-.016-.048-.093-.026-.076.02a1 1 0 0 1-.08.853c-.013.022.02.04.034.02a1.01 1.01 0 0 0 .122-.893m44.416 30.13a14 14 0 0 0-1.467-1.209q-.768-.612-1.538-1.223-1.52-1.202-3.01-2.443c-.01-.01-.027.007-.016.017q1.47 1.3 2.97 2.563.73.61 1.478 1.202a12 12 0 0 0 1.54 1.149.035.035 0 0 0 .043-.056m-157.381-64.67a26 26 0 0 0-.624 2.662 24 24 0 0 0-.419 2.624c-.005.063.09.071.107.014a25 25 0 0 0 .605-2.667 25 25 0 0 0 .4-2.624c.004-.04-.057-.046-.069-.01m-2.173 2.187a21.5 21.5 0 0 0-.957 3.76.047.047 0 0 0 .09.025 21.5 21.5 0 0 0 .942-3.764.04.04 0 0 0-.075-.021m120.008 5.699q-.314-.471-.65-.929c-.447-.614-.933-1.199-1.394-1.804-.085-.112-.273-.014-.195.115.389.645.75 1.308 1.153 1.945q.302.479.623.944c.166.239.41.667.724.72a.1.1 0 0 0 .12-.068c.067-.311-.218-.679-.38-.923m1.975.73a7 7 0 0 0-.936-1.018 7.5 7.5 0 0 0-1.262-.88c-.026-.015-.057.022-.033.043a16 16 0 0 1 1.855 2.02 2 2 0 0 0 .216.23c.07.063.15.157.254.115.189-.075-.023-.414-.094-.51m2.644.556a5.7 5.7 0 0 0-.79-.703c-.274-.218-.573-.408-.86-.608-.046-.033-.103.041-.06.08.26.235.515.484.79.703a5.6 5.6 0 0 0 .858.608.051.051 0 0 0 .062-.08m-6.958-5.192a26 26 0 0 0-4.149-2.738c-.026-.015-.058.023-.033.043a26 26 0 0 0 4.106 2.794c.06.03.132-.05.076-.099m3.146-.853c-2.847-1.84-5.746-3.597-8.598-5.43-.048-.03-.105.042-.062.08a31 31 0 0 0 8.6 5.493c.085.035.13-.097.06-.143m-5.102-5.984a11 11 0 0 0-1.82-1.502 9 9 0 0 0-1.04-.568c-.353-.163-.74-.275-1.106-.404a.059.059 0 0 0-.045.108c.342.175.652.39.984.582q.514.294 1.02.6c.661.407 1.328.793 1.955 1.252.04.029.086-.034.052-.068m5.971 3.599c-.69-.437-1.421-.812-2.138-1.206-.057-.032-.108.056-.051.088.717.394 1.425.81 2.165 1.158a.023.023 0 0 0 .024-.04m-2.341-4.521a51.5 51.5 0 0 0-8.34-5.258.047.047 0 0 0-.046.08c2.838 1.658 5.543 3.515 8.338 5.24.037.022.083-.033.048-.062m-2.442-4.742a13 13 0 0 0-2.87-1.938c-1.047-.563-2.126-1.05-3.21-1.54-.044-.02-.084.043-.039.068 1.014.57 1.998 1.196 2.984 1.813a22.6 22.6 0 0 0 3.035 1.726c.08.034.173-.059.1-.129m1.663-2.166a2.9 2.9 0 0 0-.884-.55q-.454-.227-.903-.462c-.663-.346-1.302-.738-1.942-1.125a12.3 12.3 0 0 1-1.82-1.315 8 8 0 0 0-1.775-1.278c-.4-.195-.886.324-.506.656a7 7 0 0 0 1.909 1.125 17 17 0 0 1 1.991 1.013c.624.367 1.26.713 1.882 1.084l.993.595a2.8 2.8 0 0 0 .948.44.11.11 0 0 0 .107-.183m-4.534-5.541c-.202-.235-.423-.46-.642-.678a4.6 4.6 0 0 0-.757-.637 3.3 3.3 0 0 0-1.769-.589.044.044 0 0 0-.03.074 4 4 0 0 0 .624.607 6.5 6.5 0 0 0 .814.525 8 8 0 0 0 .834.388c.29.126.572.263.86.396a.055.055 0 0 0 .066-.086m2.701 1.341c-.122-.07-.242-.15-.367-.214-.127-.064-.261-.116-.391-.174a.08.08 0 0 0-.107.028.08.08 0 0 0 .028.107c.134.06.266.125.403.179.132.052.274.088.41.131a.031.031 0 0 0 .024-.057m-2.559-3.937a8.7 8.7 0 0 0-2.306-1.282c-.032-.011-.061.037-.034.059a8.7 8.7 0 0 0 2.304 1.308c.054.022.074-.056.036-.085m47.633 13.726c-.332-.63-.67-1.259-.996-1.894a200 200 0 0 1-1.948-3.888c-.01-.02-.045-.005-.036.015a71 71 0 0 0 1.766 3.915c.326.663.654 1.326 1 1.978a12.3 12.3 0 0 0 1.06 1.788c.028.036.093-.004.077-.046a16 16 0 0 0-.923-1.868m-2.053.613c-.025-.06-.123-.034-.098.027a16 16 0 0 0 1.568 2.933c.02.029.065.003.047-.028a22 22 0 0 1-1.517-2.932m-67.77-68.972a4.8 4.8 0 0 0-1.092-1.01c-.421-.223-.87-.405-1.306-.6q-1.388-.62-2.8-1.184a105 105 0 0 0-5.83-2.157c-.043-.014-.06.052-.018.068a58 58 0 0 1 5.665 2.521q1.313.68 2.599 1.41c.413.235.817.495 1.236.718a5.5 5.5 0 0 0 1.462.377.087.087 0 0 0 .084-.143m8.437 5.723a13 13 0 0 0-1.125-1.192 16 16 0 0 0-1.289-.991c-.898-.628-1.834-1.206-2.767-1.781-.266-.164-.51.254-.244.418a33 33 0 0 1 2.667 1.856c.423.322.85.644 1.283.951.442.314.927.566 1.385.856.074.047.144-.056.09-.117M362.496 211.7l-1.814-3.673a55 55 0 0 0-3.899-7.044c-.026-.038-.094-.016-.079.033a53 53 0 0 0 3.105 7.234l1.74 3.573a9.9 9.9 0 0 0 1.978 3.334.154.154 0 0 0 .26-.107 9 9 0 0 0-1.291-3.35m-4.27-15.531a.066.066 0 0 0-.114.067c1.177 2.29 2.213 4.676 3.222 7.045 1.008 2.365 1.924 4.75 3.098 7.039.05.099.192.028.171-.072-1.067-5.054-3.756-9.686-6.377-14.08m8.598 17.516a4 4 0 0 0-.18-.455 5 5 0 0 0-.42-.735 4.4 4.4 0 0 0-.55-.642c-.1-.098-.225-.171-.322-.272-.103-.107-.215-.205-.322-.308-.019-.018-.052.005-.037.028a2.5 2.5 0 0 1 .264.49q.081.231.174.459a2.2 2.2 0 0 0 .149.465c.066.175.123.353.184.53.06.178.117.358.18.536.087.247.136.547.431.62l.002-.006a.34.34 0 0 0 .377-.094.55.55 0 0 0 .07-.616m1.942-2.722q-.632-1.31-1.284-2.608c-.898-1.793-1.917-3.52-2.819-5.31-.032-.064-.122-.008-.094.055.808 1.853 1.495 3.756 2.308 5.608.392.89.785 1.78 1.192 2.663a5.27 5.27 0 0 0 1.422 2.371.15.15 0 0 0 .224-.128 5.5 5.5 0 0 0-.95-2.65m2.771-2.876c-.621-1.201-1.345-2.356-2.054-3.506a.078.078 0 0 0-.135.079c.615 1.193 1.138 2.42 1.68 3.646a21 21 0 0 0 1.763 3.571.094.094 0 0 0 .171-.072 12.3 12.3 0 0 0-1.425-3.718m8.414-7.863c-.106-.2-.227-.394-.346-.587a34 34 0 0 0-.814-1.269q-.84-1.228-1.713-2.433a.043.043 0 0 0-.075.044c.466.891.94 1.776 1.432 2.654.237.424.49.839.747 1.252a8 8 0 0 0 .43.65 1 1 0 0 0 .42.395c.065.025.119-.037.124-.094a1.13 1.13 0 0 0-.205-.612m2.557-3.291c-.232-.47-.473-.935-.713-1.4q-.749-1.446-1.54-2.866a107 107 0 0 0-3.416-5.675.031.031 0 0 0-.054.032c.98 1.984 1.953 3.971 2.936 5.954q.723 1.46 1.45 2.92.348.705.698 1.409a5.5 5.5 0 0 0 .828 1.41c.202.21.48-.015.444-.258a5.5 5.5 0 0 0-.633-1.526m3.829-1.337a18 18 0 0 0-1.572-3.133 206 206 0 0 0-1.726-3.09 201 201 0 0 0-3.648-6.21.04.04 0 0 0-.067.04c1.064 2.111 2.14 4.217 3.199 6.33.511 1.021 1.014 2.046 1.522 3.068a21 21 0 0 0 1.7 3.245c.203.273.71.13.592-.25m1.574-4.936c-.175-.305-.372-.599-.561-.896-.355-.558-.734-1.101-1.105-1.649-.766-1.133-1.553-2.252-2.314-3.39a.027.027 0 0 0-.047.028c.676 1.186 1.323 2.388 1.993 3.577.324.575.64 1.156.98 1.722.182.301.356.609.551.902.148.22.291.485.56.558a.15.15 0 0 0 .182-.104 1.1 1.1 0 0 0-.24-.748m-79.882 11.059a114 114 0 0 0-1.348-3.683c-.456-1.167-1.024-2.252-1.581-3.37-.015-.029-.057-.008-.05.02.304 1.275.577 2.532.972 3.785.393 1.244.816 2.478 1.227 3.716a69 69 0 0 0 2.713 7.147c.059.127.238.031.214-.09a53 53 0 0 0-2.147-7.525m6.15 7.371q-.367-1.17-.739-2.34-.761-2.396-1.54-4.787a123 123 0 0 0-3.45-9.34.027.027 0 0 0-.053.014c.818 3.209 1.735 6.38 2.724 9.541q.733 2.34 1.449 4.685.358 1.173.712 2.347a8.2 8.2 0 0 0 .835 2.27.323.323 0 0 0 .597-.16 7.6 7.6 0 0 0-.535-2.23m3.575 1.819c-.237-.707-.539-1.385-.799-2.083a42 42 0 0 1-1.118-4.169c-.66-2.534-1.278-5.3-2.773-7.49a.035.035 0 0 0-.06.035c1.078 2.539 1.488 5.355 2.35 7.972a32 32 0 0 1 1.188 4.022c.13.69.234 1.381.403 2.064a2.2 2.2 0 0 0 .738 1.464c.105.078.231-.012.27-.11a2.37 2.37 0 0 0-.2-1.705m2.947.676c-.214-.83-.422-1.663-.653-2.488-.47-1.682-.986-3.354-1.609-4.985-.031-.083-.183-.081-.169.023.221 1.654.54 3.298.91 4.925.197.865.414 1.726.63 2.587.086.345.257 1.698.836 1.58.583-.118.135-1.33.055-1.642m3.149-.893a5 5 0 0 0-.356-.872 10 10 0 0 0-.558-.852.035.035 0 0 0-.06.036 6.4 6.4 0 0 1 .308.947c.074.288.163.571.226.863.127.593.221 1.208.39 1.791a.09.09 0 0 0 .174 0 3.6 3.6 0 0 0-.124-1.913m-8.836 64.341a13.7 13.7 0 0 0-3.736-1.474c-.695-.177-1.416-.247-2.092-.487-.728-.259-1.443-.571-2.151-.877a92 92 0 0 1-7.635-3.735.05.05 0 0 0-.051.088 43.5 43.5 0 0 0 7.514 4.055c.662.277 1.33.536 1.998.796.718.28 1.358.691 2.064.996a9.5 9.5 0 0 0 4.028.864.122.122 0 0 0 .061-.226m-1.824-3.772a18 18 0 0 0-1.981-.74c-.686-.235-1.386-.43-2.081-.64-.063-.02-.087.076-.027.098.67.25 1.335.513 2.013.737a18 18 0 0 0 2.045.617c.041.008.073-.052.03-.072m75.88 6.966c-.702-.494-2.027-.027-2.791.137a12.7 12.7 0 0 1-3.305.168c-2.16-.098-4.332-.215-6.482-.433-.074-.007-.091.116-.018.13a29.2 29.2 0 0 0 6.5.632 30 30 0 0 1 3.373.004c.78.07 2.175.281 2.756-.38a.167.167 0 0 0-.033-.258m-42.101 15.125a9.6 9.6 0 0 0-1.88-.836q-1.022-.396-2.05-.783c-.674-.252-1.352-.494-2.015-.774-.33-.139-.66-.348-1-.457s-.719-.095-1.07-.17a31 31 0 0 1-8.436-3.186.05.05 0 0 0-.051.088 32 32 0 0 0 7.803 3.91 9 9 0 0 1 .994.396 2.9 2.9 0 0 0 1.019.22 17.6 17.6 0 0 1 4.25 1.139c.725.3 1.349.77 2.045 1.121a.387.387 0 0 0 .39-.668M335.55 258.23a72 72 0 0 1-4.874 5.826q-1.23 1.321-2.525 2.581a18.7 18.7 0 0 0-2.529 2.631c-.084.124.079.266.198.198a12.7 12.7 0 0 0 2.719-2.441q1.312-1.386 2.549-2.84a78 78 0 0 0 4.55-5.903c.038-.054-.049-.102-.087-.051m-6.321 12.784a6.7 6.7 0 0 0-1.523 1.307 3.23 3.23 0 0 0-.865 1.78c-.005.085.105.097.146.04.368-.512.614-1.104.968-1.627a5.9 5.9 0 0 1 1.317-1.426c.042-.032.004-.105-.044-.074m80.733-95.952-2.758 7.511c-.917 2.5-1.877 4.99-2.609 7.553-.015.053.07.093.093.039 1.033-2.42 1.85-4.924 2.703-7.41l2.631-7.676c.013-.039-.046-.054-.06-.017m-1.962-.832c-1.274 3.155-2.551 6.308-3.8 9.473-1.244 3.153-2.56 6.297-3.567 9.537-.018.058.074.099.1.042 1.417-3.05 2.546-6.233 3.732-9.378 1.212-3.214 2.395-6.438 3.58-9.661.011-.03-.033-.04-.044-.013m-3.903 2.872c-1.302 3.054-2.693 6.063-3.95 9.138-.624 1.53-1.228 3.067-1.834 4.604a24.7 24.7 0 0 0-1.601 4.924.145.145 0 0 0 .264.111 23.3 23.3 0 0 0 2.048-4.456c.606-1.578 1.216-3.155 1.8-4.74 1.17-3.169 2.195-6.379 3.316-9.562.008-.025-.033-.043-.043-.019m-3.607 1.015a238 238 0 0 1-4.047 9.748q-1.03 2.345-2.106 4.67c-.368.794-.752 1.58-1.114 2.377a3.86 3.86 0 0 0-.59 1.972.138.138 0 0 0 .2.082 4 4 0 0 0 1.248-1.828c.388-.784.743-1.586 1.1-2.384q1.047-2.335 1.99-4.711c1.285-3.25 2.39-6.559 3.372-9.912.01-.034-.04-.047-.053-.014m-4.718-2.59a21.7 21.7 0 0 1-1.91 4.386.047.047 0 0 0 .082.048 14.1 14.1 0 0 0 2.01-4.384.094.094 0 0 0-.182-.05m-9.346 53.635a100 100 0 0 0-11.73 14.064c-.031.047.044.107.08.062 3.833-4.753 7.6-9.546 11.71-14.066.038-.04-.021-.1-.06-.06m-3.545 7.683a108 108 0 0 0-9.211 11.738c-.027.04.036.09.067.052 3.105-3.883 6.027-7.904 9.193-11.74.029-.035-.02-.084-.05-.05m-4.613 11.734a23.6 23.6 0 0 0-2.78 2.7 14.7 14.7 0 0 0-2.189 3.1c-.02.04.035.093.068.052.792-.996 1.488-2.06 2.308-3.036a30 30 0 0 1 2.626-2.782c.022-.02-.01-.052-.033-.033m-3.375 6.797a8.2 8.2 0 0 0-1.312 1.05 6 6 0 0 0-.538.63 3.5 3.5 0 0 0-.436.706c-.023.055.06.097.098.057.184-.195.345-.419.519-.623.172-.202.357-.393.54-.586a8 8 0 0 1 1.232-1.059c.106-.074.008-.247-.103-.175m40.612-61.459q-1.378 2.468-2.738 4.946c-.9 1.649-1.88 3.281-2.66 4.991a.035.035 0 0 0 .06.036c1.007-1.586 1.84-3.297 2.731-4.95q1.342-2.49 2.654-4.995c.016-.031-.03-.059-.047-.028m-3.872 10.978-.45 1.55a.023.023 0 0 0 .046.013l.464-1.546a.031.031 0 0 0-.06-.017m-.749 5.323a5.5 5.5 0 0 0-1.237 2.354.035.035 0 0 0 .068.019c.17-.404.336-.804.543-1.19a6.6 6.6 0 0 1 .726-1.084c.057-.07-.041-.17-.1-.1m-44.794-55.985c-2.093-1.325-4.36-2.312-6.566-3.434a23 23 0 0 1-3.145-1.835 8 8 0 0 0-1.454-.918 42 42 0 0 1-1.848-.893q-6.554-3.344-13.061-6.783-3.712-1.957-7.386-3.982a.055.055 0 0 0-.056.095c4.26 2.505 8.516 5.018 12.808 7.468 2.18 1.245 4.386 2.446 6.59 3.65 1.018.557 2.027 1.274 3.093 1.725.575.243 1.19.387 1.766.625.588.241 1.157.536 1.727.817 2.486 1.227 4.85 2.68 7.445 3.672.124.047.192-.142.087-.207m-35.4 11.908a9.4 9.4 0 0 0-2.921-1.895q-1.63-.861-3.248-1.74a48 48 0 0 1-6.386-3.958 6 6 0 0 0-1.528-.71 15 15 0 0 1-1.768-.907q-1.6-.911-3.19-1.841a366 366 0 0 1-6.332-3.763 194 194 0 0 1-7.089-4.57c-.147-.098-.282.138-.138.237 4.123 2.818 8.248 5.645 12.455 8.336q1.552.993 3.116 1.969c.504.314 1.017.617 1.515.94.556.361 1.028.802 1.547 1.206a7.5 7.5 0 0 0 1.574.756c.614.282 1.212.595 1.814.901 1.095.557 2.163 1.165 3.244 1.75 1.22.658 2.429 1.338 3.648 1.998a10 10 0 0 0 3.588 1.531c.133.012.17-.156.1-.24m-6.518-5.702c-2.622-1.397-5.281-2.712-7.951-4.014-.036-.017-.068.035-.032.054 2.63 1.38 5.266 2.742 7.944 4.027.045.022.084-.043.04-.067m-34.038-27.708c-5.037-3.555-10.233-6.863-15.517-10.038a.035.035 0 0 0-.036.06c5.246 3.23 10.396 6.618 15.513 10.046.043.028.08-.039.04-.068M283.8 124.5c-.026-.023-.065.015-.039.039 2.9 2.716 5.666 5.567 8.437 8.412.039.04.096-.019.06-.06a88 88 0 0 0-8.458-8.39m10.435 7.607c-1.607-1.847-3.304-3.62-5.038-5.348a.047.047 0 0 0-.066.067c1.679 1.74 3.29 3.54 4.87 5.37 1.577 1.828 3.05 3.742 4.63 5.565.027.03.078-.009.056-.042a57 57 0 0 0-4.452-5.612m-.154-2.824c-.055-.066-.147.028-.094.094 3.057 3.739 6.016 7.594 9.251 11.18.023.027.07-.008.049-.037-2.902-3.867-6.12-7.516-9.206-11.237m6.066 4.65c-.035-.043-.095.018-.06.06 2.286 2.777 4.353 5.702 6.47 8.606.018.024.058.002.041-.024a79 79 0 0 0-6.45-8.642m8.122 6.714a48 48 0 0 0-3.242-3.676c-.039-.04-.098.02-.06.061a64 64 0 0 1 3.058 3.662c1.002 1.284 1.905 2.64 2.899 3.931a.035.035 0 0 0 .06-.035 28 28 0 0 0-2.715-3.943m3.651 1.686c-.05-.05-.126.026-.077.077a25 25 0 0 1 2.865 3.78.031.031 0 0 0 .054-.032 14.9 14.9 0 0 0-2.842-3.825m4.845 2.064c-.06-.092-.208-.007-.148.086.667 1.033 1.33 2.065 2.06 3.055.027.036.085.005.061-.035-.614-1.064-1.294-2.083-1.973-3.106m59.66-101.364c-.892 2.936-1.612 5.947-2.224 8.954a.055.055 0 0 0 .106.03c.863-2.945 1.632-5.944 2.216-8.957a.05.05 0 0 0-.098-.027m.052-9.485c-1.584 7.8-3.796 15.433-6.088 23.05-.027.088.103.119.136.037a109.4 109.4 0 0 0 6.087-23.05c.014-.088-.117-.127-.135-.037m-3.12.803c-1.125 4.207-2.289 8.404-3.401 12.614-1.11 4.204-2.385 8.4-3.18 12.678a.066.066 0 0 0 .128.035 126 126 0 0 0 3.566-12.571c1.074-4.225 2.033-8.476 2.97-12.733a.043.043 0 0 0-.083-.023m-4.615 6.123c-1.031 3.699-2.075 7.394-3.1 11.095-1.025 3.699-2.064 7.408-2.845 11.167a.074.074 0 0 0 .143.04c1.247-3.631 2.217-7.361 3.162-11.08.945-3.725 1.84-7.46 2.716-11.201a.04.04 0 0 0-.076-.021m-4.569 4.093q-1.387 5.395-2.736 10.799c-.437 1.762-.85 3.53-1.271 5.297-.21.884-.416 1.77-.602 2.659a14.7 14.7 0 0 0-.443 2.723c0 .074.112.112.146.04a14.4 14.4 0 0 0 .771-2.504c.23-.878.436-1.764.638-2.648.414-1.812.83-3.623 1.226-5.44q1.186-5.45 2.316-10.914c.006-.03-.038-.042-.045-.012m-4.391 6.112c-.762 2.723-1.567 5.442-2.175 8.204a.035.035 0 0 0 .068.019c.858-2.695 1.523-5.451 2.227-8.19a.063.063 0 0 0-.12-.033m-3.599 14.294-.469 1.963-.23.963a4 4 0 0 0-.162.954.043.043 0 0 0 .08.021 3.7 3.7 0 0 0 .264-.886l.223-1.004.437-1.972c.02-.093-.12-.132-.143-.04m-1.5-7.138c-1.013 4.135-2.227 8.214-3.35 12.32a.035.035 0 0 0 .068.018 105 105 0 0 0 3.32-12.328c.005-.025-.032-.035-.038-.01m-4.491 4.364c-.323 1.015-.567 2.053-.862 3.076a87 87 0 0 1-.93 3.055c-.018.053.063.074.082.023a28.7 28.7 0 0 0 1.755-6.142.023.023 0 0 0-.045-.012m25.362 83.376a22.2 22.2 0 0 0-4.02-2.581 19.3 19.3 0 0 0-4.487-1.691c-.049-.01-.086.06-.036.086 1.407.713 2.88 1.29 4.28 2.02 1.405.734 2.81 1.474 4.177 2.276.067.04.15-.06.086-.11m1.205-1.765c-.752-.258-1.516-.459-2.255-.758a12 12 0 0 1-2.15-1.138c-.034-.022-.064.031-.032.054a12 12 0 0 0 2.15 1.26 7.3 7.3 0 0 0 2.275.673c.055.005.06-.076.012-.092m-191.673 6.867a32 32 0 0 0-3.847-2.613c-1.376-.861-2.783-1.67-4.187-2.484-2.814-1.634-5.725-3.063-8.573-4.627a.066.066 0 0 0-.067.115c2.755 1.723 5.423 3.568 8.222 5.227 1.36.806 2.716 1.621 4.102 2.383a33 33 0 0 0 4.267 2.143.087.087 0 0 0 .083-.144m6.804-.946a35 35 0 0 0-4.49-2.857c-1.613-.953-3.236-1.89-4.857-2.829a179 179 0 0 0-4.787-2.7c-1.645-.887-3.28-1.838-4.982-2.612a.031.031 0 0 0-.032.053c1.468 1.092 3.054 2.045 4.592 3.035a184 184 0 0 0 4.782 2.956c1.57.944 3.137 1.891 4.715 2.822a36 36 0 0 0 4.778 2.615c.265.106.5-.305.281-.483m4.009-.432a15.3 15.3 0 0 0-3.627-2.542 180 180 0 0 0-3.979-2.34c-2.668-1.534-5.401-2.96-8.133-4.377a.035.035 0 0 0-.036.061c2.622 1.615 5.209 3.283 7.822 4.91 1.273.792 2.538 1.595 3.811 2.385a16.8 16.8 0 0 0 3.975 2.19.173.173 0 0 0 .167-.287m3.457-1.371a12.5 12.5 0 0 0-2.942-2.14q-1.692-1.022-3.423-1.975c-2.28-1.25-4.617-2.382-6.96-3.51-.102-.05-.193.1-.09.155 2.282 1.23 4.51 2.565 6.73 3.902q1.642.988 3.278 1.987a15 15 0 0 0 3.3 1.763.11.11 0 0 0 .107-.182m.985-3.443c-.78-.439-1.58-.85-2.388-1.238-1.645-.79-3.31-1.538-4.971-2.296-.09-.04-.17.09-.079.135 1.604.8 3.152 1.688 4.676 2.63q1.106.682 2.216 1.36c.393.24.79.48 1.191.709a1.76 1.76 0 0 0 1.088.34c.08-.007.172-.085.135-.178-.29-.728-1.22-1.098-1.868-1.462m2.546-1.559a4 4 0 0 0-.647-.439 9.6 9.6 0 0 0-1.44-.641 13.4 13.4 0 0 0-3.029-.635c-.07-.008-.084.107-.016.123a13.7 13.7 0 0 1 2.853 1.087c.445.218.882.46 1.313.703a7 7 0 0 0 .66.34.72.72 0 0 0 .582.095.14.14 0 0 0 .072-.125c.008-.214-.196-.379-.348-.508m2.564-1.849a4.3 4.3 0 0 0-1.663-1.144 9 9 0 0 0-.942-.325c-.167-.048-.336-.075-.503-.12a3 3 0 0 0-.459-.103c-.067-.006-.078.085-.031.116a5 5 0 0 0 .453.24c.132.072.255.157.386.23.292.164.58.332.872.495a7 7 0 0 0 1.803.755.087.087 0 0 0 .084-.144m2.817-2.856a.9.9 0 0 0-.33-.13c-.128-.022-.254-.02-.382-.03a.8.8 0 0 0-.381.07 1.8 1.8 0 0 0-.357.187.247.247 0 0 0-.087.33.245.245 0 0 0 .332.088 1.5 1.5 0 0 1 .285-.166c-.049.021.031-.012.04-.015q.039-.014.079-.026a1 1 0 0 0 .175-.075q.02-.008-.003 0l.04-.01.08-.019a1 1 0 0 1 .137-.019c.108-.008.218-.017.326-.017a.09.09 0 0 0 .046-.168m12.376 47.679-1.589-3.75c-.019-.045-.096-.013-.078.033l1.477 3.797a29 29 0 0 0 1.546 3.635.04.04 0 0 0 .072-.03 29 29 0 0 0-1.428-3.685m4.805 1.755c-.614-2.412-1.072-4.886-1.781-7.27-.007-.024-.05-.02-.046.007a63 63 0 0 0 1.501 7.353 44 44 0 0 0 2.052 7.219c.028.066.117.015.107-.045-.388-2.45-1.222-4.862-1.833-7.264m7.656 15.144q-.994-3.023-1.827-6.093c-1.111-4.096-2.205-8.202-3.202-12.327-.017-.069-.119-.039-.106.03.804 4.22 1.514 8.453 2.589 12.617.53 2.052 1.097 4.098 1.754 6.114a20.9 20.9 0 0 0 2.462 5.805.134.134 0 0 0 .243-.102 41.4 41.4 0 0 0-1.913-6.044m6.469 7.046c-.327-.912-.676-1.815-1.015-2.723a85 85 0 0 1-1.937-5.736c-1.17-3.967-2.311-7.936-3.603-11.865a.027.027 0 0 0-.053.014c.871 4.077 1.791 8.163 2.941 12.172.546 1.903 1.186 3.773 1.868 5.631.362.986.721 1.973 1.1 2.953a6.8 6.8 0 0 0 1.25 2.5.119.119 0 0 0 .2-.083 7.2 7.2 0 0 0-.75-2.863m5.365 7.095-.003-.008a21 21 0 0 0-.787-2.504q-.494-1.44-.98-2.884-.958-2.828-1.859-5.674c-1.22-3.832-2.534-7.639-3.679-11.495a.066.066 0 0 0-.128.035c.957 3.95 1.892 7.898 3.088 11.785q.896 2.91 1.856 5.8.462 1.388.945 2.767a14 14 0 0 0 1.139 2.783c.153.249.584.091.486-.205Zm3.089-.996q-.355-1.285-.723-2.567c-.48-1.67-.964-3.34-1.49-4.996a140 140 0 0 0-1.657-4.947c-.604-1.68-1.325-3.314-1.95-4.986-.037-.097-.192-.058-.159.044.542 1.69.956 3.42 1.458 5.122.491 1.666 1 3.327 1.49 4.993.493 1.666.997 3.329 1.475 5q.366 1.282.721 2.567c.185.671.311 1.64.88 2.101a.16.16 0 0 0 .262-.069 3.96 3.96 0 0 0-.306-2.262m4.227 3.519a15 15 0 0 0-.482-1.733q-.35-1.171-.71-2.34a172 172 0 0 0-1.484-4.531c-1.036-3.058-2.195-6.062-3.361-9.072-.01-.027-.055-.017-.045.013.982 3.058 1.878 6.148 2.801 9.225.457 1.522.895 3.048 1.346 4.57q.347 1.172.685 2.346a10 10 0 0 0 .726 2.165.315.315 0 0 0 .583-.158 1 1 0 0 0-.06-.485M254.81 217c-.253-.664-.504-1.328-.771-1.986a31 31 0 0 1-1.368-4.278 21.6 21.6 0 0 0-2.95-7.44.02.02 0 0 0-.033.019 21 21 0 0 1 1.23 3.637 44 44 0 0 0 1.476 4.119 29 29 0 0 1 1.331 4.03c.172.685.362 1.365.55 2.046a6.8 6.8 0 0 0 .716 1.925c.1.156.384.108.371-.1a6.8 6.8 0 0 0-.553-1.972m4.643 2.019c-.417-1.061-.99-2.028-1.388-3.1-.377-1.016-.716-2.045-1.09-3.062-.741-2.013-1.595-3.966-2.44-5.936-.017-.04-.085-.011-.071.03.685 2.057 1.336 4.115 2.116 6.14.376.976.775 1.942 1.139 2.923.394 1.063.581 2.159.947 3.227a.41.41 0 0 0 .787-.222m4.205-.391a9.5 9.5 0 0 0-.637-1.15 17 17 0 0 1-1.2-2.765 36 36 0 0 0-2.378-5.02c-.03-.053-.104-.006-.08.047.745 1.725 1.539 3.426 2.311 5.138a11.7 11.7 0 0 1 .985 2.752 11 11 0 0 0 .26 1.31 2.1 2.1 0 0 0 .24.63 1.5 1.5 0 0 0 .388.295.154.154 0 0 0 .224-.091 1.4 1.4 0 0 0-.113-1.146m3.523.349a62 62 0 0 1-.881-2.037q-.792-1.941-1.633-3.86c-.017-.04-.085-.012-.071.03q.68 2.046 1.414 4.072c.24.663.46 1.333.675 2.004a9 9 0 0 0 .708 2.003.334.334 0 0 0 .607-.256 9.2 9.2 0 0 0-.82-1.956m4.076 1.513c-.042-.15-.097-.298-.149-.445-.103-.295-.2-.594-.312-.886-.222-.587-.452-1.171-.675-1.758-.033-.087-.172-.053-.143.04.186.608.36 1.22.553 1.826.094.298.199.593.298.89.05.148.098.297.159.442.047.111.068.22.195.255a.08.08 0 0 0 .084-.034c.076-.103.021-.217-.01-.33m1.848-.018c-.035-.027-.086.022-.05.05a2.93 2.93 0 0 1 1.023 1.768c.005.025.049.02.046-.007a2.66 2.66 0 0 0-1.02-1.81m14.358 9.881a21 21 0 0 0-2.361-1.872q-1.158-.915-2.245-1.916a43 43 0 0 1-4.11-4.325c-.017-.02-.053.008-.037.029a37.6 37.6 0 0 0 4.015 4.535q1.095 1.042 2.268 1.998a10.3 10.3 0 0 0 2.405 1.662c.065.027.106-.067.064-.11m4.561-.204a17 17 0 0 0-2.217-1.614 45 45 0 0 1-2.438-1.847 45 45 0 0 1-4.259-3.962c-.042-.045-.105.02-.066.066a37 37 0 0 0 4.218 4.221c.722.61 1.464 1.2 2.23 1.755a9.8 9.8 0 0 0 2.466 1.492.067.067 0 0 0 .065-.11m3.55-.658a7.1 7.1 0 0 0-1.797-1.351q-1.014-.687-2-1.416a42 42 0 0 1-3.83-3.22.043.043 0 0 0-.062.06 41 41 0 0 0 3.606 3.42q.91.765 1.873 1.459a5.9 5.9 0 0 0 2.086 1.209c.082.015.187-.077.124-.16m3.322-1.565a2.1 2.1 0 0 0-.572-.364q-.406-.175-.81-.355a21 21 0 0 1-1.475-.738 14.5 14.5 0 0 1-2.743-1.935c-.045-.04-.11.024-.066.067a17.3 17.3 0 0 0 2.595 2.141 13 13 0 0 0 1.47.84 3.4 3.4 0 0 0 1.546.477c.063-.002.11-.088.055-.134m2.73-1.234a3 3 0 0 0-.518-.148c-.366-.094-.737-.172-1.104-.265a15 15 0 0 1-2.145-.712c-.033-.014-.055.041-.024.057a21 21 0 0 0 2.024.913 10 10 0 0 0 1.081.35 3.4 3.4 0 0 0 .56.107c.09.006.22.009.253-.1.03-.096-.048-.165-.127-.202m1.906-1.311c-.203-.022-.404-.045-.608-.055-.414-.019-.827-.037-1.24-.063-.039-.002-.049.063-.01.07.409.062.815.132 1.222.201.196.034.393.055.591.076.155.017.405.085.535-.025a.055.055 0 0 0 .008-.066c-.102-.132-.344-.122-.498-.138m2.184-1.971a1.5 1.5 0 0 0-.46.004 2.1 2.1 0 0 0-.811.322c-.049.032-.019.125.042.1a2.3 2.3 0 0 1 .79-.174q.198-.009.396-.003c.108.003.299.059.384-.03a.06.06 0 0 0 .016-.06c-.04-.13-.244-.144-.357-.159m-25.226 8.588a19.54 19.54 0 0 0-12.769 1.277c-.044.02-.012.095.034.079a26.8 26.8 0 0 1 6.376-1.4 35.5 35.5 0 0 1 6.344.152c.063.005.073-.092.015-.108m3.094 2.575a7.6 7.6 0 0 0-2.803-.307c-1.038-.063-2.075-.168-3.112-.249a28 28 0 0 0-6.131.223c-.066.01-.05.117.015.116q3.06-.09 6.116-.124a22.5 22.5 0 0 1 2.997.135 11 11 0 0 0 2.894.392.103.103 0 0 0 .024-.186m.497 2.714a16 16 0 0 0-2.384-.407q-1.125-.154-2.253-.28a63 63 0 0 0-4.827-.352c-.066-.003-.064.096 0 .101 1.58.136 3.16.29 4.735.477q1.232.146 2.46.329a22 22 0 0 0 2.245.316.094.094 0 0 0 .024-.184m-2.062 2.07a4.2 4.2 0 0 1-2.284-.503.027.027 0 0 0-.028.047 3.23 3.23 0 0 0 2.318.503c.026-.005.02-.048-.006-.046m57.53-22.711c-.006-.034-.065-.026-.061.009a33 33 0 0 0 .528 3.836.035.035 0 0 0 .069-.01 33 33 0 0 0-.536-3.834M336 219.195c-.01-.05-.083-.028-.075.02.477 3.003.983 5.998 1.695 8.955.015.06.099.033.09-.025-.423-3.011-1.05-5.983-1.71-8.95m-2.05 1.79c-.009-.05-.082-.028-.075.021.554 3.834 1.054 7.686 1.83 11.483.008.042.081.033.076-.01-.443-3.854-1.165-7.674-1.83-11.494m-1.062 8.374c-.327-2.125-.723-4.24-1.12-6.354-.014-.07-.117-.039-.106.03.328 2.092.61 4.19.906 6.286.295 2.087.51 4.193.945 6.257a.059.059 0 0 0 .115-.016 55 55 0 0 0-.74-6.203m-1.863 4.038a206 206 0 0 0-.924-6.535c-.007-.048-.089-.037-.084.011.201 2.262.456 4.516.73 6.77.265 2.18.463 4.385.924 6.535a.043.043 0 0 0 .085-.011c-.082-2.267-.445-4.522-.731-6.77m-1.658 4.109a88 88 0 0 0-1.492-7.854c-.008-.034-.059-.02-.053.015q.717 3.88 1.271 7.79c.37 2.596.552 5.219.944 7.81.007.045.077.033.077-.01a56 56 0 0 0-.747-7.75m-2.809-.441c-.007-.034-.06-.02-.053.015.661 3.388 1.045 6.799 1.488 10.22.004.028.049.03.047 0a70.5 70.5 0 0 0-1.482-10.235m-31.504.275a.04.04 0 0 0-.075.021 37 37 0 0 0 1.202 4.87.059.059 0 0 0 .113-.03 37 37 0 0 0-1.24-4.86m3.043 6.302-.411-1.785-.809-3.504c-.008-.035-.06-.02-.053.014l.7 3.534.345 1.734a7 7 0 0 0 .421 1.654c.021.044.087.02.088-.024a6.7 6.7 0 0 0-.281-1.623m1.696.28a17 17 0 0 0-1.071-2.803c-.026-.055-.122-.015-.1.043a26 26 0 0 1 .848 2.795q.182.709.313 1.43a7.6 7.6 0 0 0 .322 1.419c.019.05.11.068.12 0a7.6 7.6 0 0 0-.432-2.884m2.191 1.323a.043.043 0 0 0-.083.023c.179.679.347 1.36.559 2.03a.02.02 0 0 0 .037-.011c-.145-.687-.334-1.363-.513-2.042m-193.844-72.372a48.7 48.7 0 0 0-10.974.957c-.043.007-.033.082.01.076 3.645-.447 7.317-.488 10.964-.884a.074.074 0 0 0 0-.149m4.856-3.235c-4.681.336-9.348.727-14.04.893a.027.027 0 0 0 0 .055 39.6 39.6 0 0 0 14.059-.81c.075-.018.062-.143-.019-.137m-1.477-2.176a17 17 0 0 0-4.44.01c-1.53.114-3.039.326-4.56.505a.043.043 0 0 0 0 .086c1.522.06 3.035.155 4.56.151.76-.002 1.519-.036 2.279-.066a9.5 9.5 0 0 0 2.162-.264.22.22 0 0 0 0-.422m5.082-.635a1.86 1.86 0 0 0-.884-.092 8 8 0 0 0-.896.078 7.4 7.4 0 0 0-1.855.5c-.04.018-.024.085.019.069a6.8 6.8 0 0 1 1.82-.449 6 6 0 0 1 .912-.014c.153.008.305.024.457.038a1.2 1.2 0 0 0 .41.005.075.075 0 0 0 .017-.135m5.337-2.712a27 27 0 0 0-3.948.225c-1.234.092-2.47.167-3.705.248-1.236.08-2.472.157-3.709.22a28 28 0 0 0-3.716.293c-.024.005-.015.036.005.039a24 24 0 0 0 3.959-.006c1.236-.053 2.473-.11 3.708-.188s2.471-.178 3.705-.281a21 21 0 0 0 3.715-.443.055.055 0 0 0-.015-.107m8.161-3.5a36 36 0 0 0-4.723.078q-2.424.091-4.848.19c-3.195.126-6.38.326-9.571.518a.047.047 0 0 0 0 .094c3.234-.04 6.462-.075 9.695-.183l4.724-.158a36 36 0 0 0 4.76-.27c.162-.028.105-.255-.037-.269m5.381-1.68c-1.7-.26-3.478-.186-5.195-.31-1.807-.13-3.612-.27-5.421-.368-3.613-.197-7.235-.238-10.852-.215a.043.043 0 0 0 0 .086c3.576.13 7.152.298 10.729.417 1.766.059 3.533.11 5.298.182.905.037 1.807.087 2.71.166.899.08 1.803.225 2.707.218.097 0 .127-.16.024-.176m4.066-3.883c-1.48-.117-2.988-.052-4.471-.076q-2.235-.036-4.47-.08-4.47-.084-8.938-.196c-.08-.002-.08.12 0 .125q4.468.262 8.938.371 2.172.055 4.346.074c1.522.014 3.076.104 4.595-.007a.106.106 0 0 0 0-.21m1.53-3.055c-1.423-.057-2.847-.002-4.27-.066a49 49 0 0 1-4.402-.378c-.077-.01-.113.107-.033.12a27.5 27.5 0 0 0 8.718.416c.054-.008.038-.09-.013-.092m4.597-2.267a19 19 0 0 0-2.553-.024.063.063 0 0 0 0 .125 19 19 0 0 0 2.553-.023.04.04 0 0 0 0-.078m6.136-2.503a4.2 4.2 0 0 1-1.004.22 3.7 3.7 0 0 1-1.035-.023c-.034-.006-.05.045-.015.053a3.3 3.3 0 0 0 1.068.093 3.1 3.1 0 0 0 1.008-.293c.028-.013.008-.06-.021-.05m45.939 25.026c-1.879-1.188-3.765-2.344-5.574-3.638-.008-.006-.016.007-.008.013a54 54 0 0 0 5.562 3.659.02.02 0 0 0 .02-.034m3.584 2.235a.043.043 0 0 0 0 .086 1.2 1.2 0 0 1 .557.13 1.5 1.5 0 0 1 .437.365c.018.02.05-.006.037-.028a1.2 1.2 0 0 0-1.031-.553m-.246-4.311c-.02-.014-.04.02-.02.034l1.537 1.015c.012.008.024-.012.011-.02zM53.775 187.308a113 113 0 0 0-12.27-.582c-.06-.002-.06.09 0 .094a112 112 0 0 0 12.25.626c.076-.003.102-.127.02-.138m6.373-2.215c-5.786-.513-11.596-.724-17.384-1.227-.05-.004-.05.073 0 .078 5.771.6 11.577 1.212 17.384 1.235a.043.043 0 0 0 0-.086m5.168-3.607a16.7 16.7 0 0 0-5.391-.546c-1.886.027-3.767.065-5.653.01a71 71 0 0 1-11.74-1.32c-.087-.018-.125.116-.037.135a75.6 75.6 0 0 0 11.41 1.537c3.799.214 7.595-.013 11.388.352.1.01.111-.14.023-.168m4.024-3.289c-1.714-.22-3.459-.284-5.182-.42q-2.652-.21-5.301-.443-5.236-.462-10.467-.974c-.045-.004-.044.065 0 .07q5.227.625 10.467 1.104 2.588.238 5.178.453c1.76.146 3.538.353 5.305.382.114.002.106-.158 0-.172m2.553-3.112a37 37 0 0 0-6.014-.513c-2.082-.11-4.167-.164-6.251-.197a.043.043 0 0 0 0 .086c2.045.087 4.088.21 6.131.342a57 57 0 0 0 6.12.382c.055-.002.072-.087.014-.1m1.549-3.496a20.4 20.4 0 0 0-5.383-.136c-.06.004-.06.097 0 .093q1.343-.08 2.69-.037c.895.03 1.787.117 2.682.156.044.002.054-.068.01-.076m3.568-2.724a1 1 0 0 0-.2-.038c-.058-.009-.117-.02-.176-.023a4 4 0 0 0-.39-.003l-.781.03a.09.09 0 0 0 0 .18l.78.03q.195.01.391-.002c.06-.003.118-.014.176-.023a1 1 0 0 0 .2-.038.06.06 0 0 0 0-.113m7.403-3.536c-.108.016-.214.03-.32.052a1.3 1.3 0 0 0-.459.083c-.084.02-.162.022-.247.05q-.13.043-.26.081a4 4 0 0 1-1.024.156.242.242 0 0 0 0 .485 6 6 0 0 0 1.16-.066q.136-.021.27-.05a.6.6 0 0 0 .175-.059c.105-.061.027-.034.108-.059a.83.83 0 0 0 .438-.285 2 2 0 0 0 .25-.232.095.095 0 0 0-.09-.156M102.3 200.19c-3.939-1.083-8.01-1.68-12.027-2.406-.088-.016-.127.116-.037.136 3.996.864 7.99 1.865 12.051 2.37.058.008.067-.085.014-.1m6.339-1.256a22 22 0 0 0-3.314-.712q-1.734-.314-3.462-.663a92 92 0 0 1-6.73-1.617.02.02 0 0 0-.01.038c2.241.691 4.5 1.336 6.777 1.9q1.65.409 3.315.74a15.8 15.8 0 0 0 3.404.452.07.07 0 0 0 .02-.138m5.12-2.163a42 42 0 0 0-5.837-1.155c-1.964-.327-3.933-.624-5.897-.943-.059-.01-.085.078-.025.09 1.984.39 3.964.806 5.95 1.185a42 42 0 0 0 5.795.93c.064.004.072-.088.015-.107m4.339-2.099c-2.059-.217-4.118-.342-6.164-.674a56 56 0 0 1-5.85-1.289.023.023 0 0 0-.012.046 46 46 0 0 0 6.047 1.433 32 32 0 0 0 5.979.554.035.035 0 0 0 0-.07m4.335-1.19c-1.288-.327-2.639-.464-3.95-.67l-3.964-.622c-.015-.002-.021.02-.006.023l4.024.694c1.287.222 2.587.519 3.89.62.026.003.03-.039.006-.045m2.315-1.642-3.573-.518c-.035-.005-.05.048-.015.053l3.575.51c.03.005.043-.04.013-.045m5.884-1.735a1.7 1.7 0 0 0-.687-.15c-.269-.034-.539-.055-.809-.08l-1.587-.141c-.112-.01-.107.158 0 .172l1.557.2c.26.033.519.07.78.095a1.75 1.75 0 0 0 .733.004.056.056 0 0 0 .013-.1m4.329-1.825a3 3 0 0 0-.673-.061c-.239-.007-.477-.016-.716-.007-.478.017-.954.066-1.432.09a.023.023 0 0 0 0 .047c.478.024.954.073 1.432.09.24.01.477 0 .716-.006a3 3 0 0 0 .673-.062.047.047 0 0 0 0-.09m6.92-2.566a1 1 0 0 0-.475-.16 1.7 1.7 0 0 0-.5.01 2.8 2.8 0 0 0-.923.334c-.108.062-.035.258.087.207a2.6 2.6 0 0 1 .882-.2c.151-.007.303-.018.454-.016.073 0 .145-.01.218-.01a1 1 0 0 0 .237-.015c.077-.016.07-.11.02-.15M39.96 211.1c-2.98-.959-5.986-1.768-8.904-2.92-.032-.012-.056.044-.024.058a43.7 43.7 0 0 0 8.91 2.929.035.035 0 0 0 .018-.068m10.252-.396c-5.644-2.104-11.445-3.805-17.135-5.787-.052-.018-.074.064-.023.083 5.642 2.07 11.322 4.244 17.137 5.78a.04.04 0 0 0 .021-.076m7.379-.649a32 32 0 0 0-3.857-1.519c-1.401-.517-2.805-1.028-4.202-1.555q-4.136-1.562-8.226-3.238c-.065-.026-.113.087-.048.115q3.97 1.688 7.98 3.28 2.03.806 4.069 1.585a28 28 0 0 0 4.24 1.439c.061.012.106-.075.044-.107m5.357-1.552c-2.553-.977-5.202-1.719-7.77-2.664q-3.959-1.458-7.81-3.188c-.04-.018-.076.042-.035.06q3.736 1.724 7.579 3.2a58 58 0 0 0 8.018 2.66.035.035 0 0 0 .018-.068m4.61-.263a34 34 0 0 0-3.42-1.468 233 233 0 0 0-3.439-1.35q-3.565-1.362-7.156-2.653c-.023-.008-.033.029-.01.038q3.511 1.352 6.996 2.77c1.142.464 2.286.925 3.427 1.394 1.174.482 2.333 1.023 3.548 1.397a.07.07 0 0 0 .054-.129m6.076-.872a15.3 15.3 0 0 0-3.234-1.273 145 145 0 0 0-3.38-1.152q-3.452-1.125-6.897-2.27c-.048-.016-.067.058-.02.075q3.415 1.255 6.829 2.516c1.117.416 2.24.812 3.367 1.2a15.3 15.3 0 0 0 3.308 1.006c.057.005.069-.075.027-.102m4.682-1.762a22.7 22.7 0 0 0-5.504-1.74q-2.892-.736-5.78-1.482a.055.055 0 0 0-.03.106q2.846.905 5.687 1.823a22.7 22.7 0 0 0 5.584 1.453.087.087 0 0 0 .043-.16m4.588-.994a10.7 10.7 0 0 0-2.318-.7c-.777-.192-1.56-.362-2.338-.553a160 160 0 0 1-4.82-1.277.02.02 0 0 0-.01.037 90 90 0 0 0 4.742 1.559c.766.23 1.533.465 2.308.661a9.2 9.2 0 0 0 2.394.426.083.083 0 0 0 .042-.153m3.319-1.315a15 15 0 0 0-2.76-.78c-.96-.236-1.92-.47-2.876-.724a.035.035 0 0 0-.018.068c.935.32 1.874.633 2.824.911.457.134.914.262 1.377.374a7 7 0 0 0 1.427.245c.048.002.072-.073.026-.094m5.103-.489a24 24 0 0 0-2.354-.89c-.82-.263-1.66-.475-2.488-.715-.108-.031-.149.129-.046.166.799.286 1.592.598 2.397.866a23 23 0 0 0 2.452.666c.053.011.095-.068.04-.093m4.836-1.708a10.6 10.6 0 0 0-2.014-.567 21 21 0 0 0-2.076-.303c-.032-.003-.035.045-.007.054a20 20 0 0 0 2.025.61 10.7 10.7 0 0 0 2.037.337c.065.001.1-.102.035-.131m110.285-21.068a.5.5 0 0 0 .017-.09q-.01.043-.017.09"/><path fill="currentColor" d="M547.93 60.142a26.5 26.5 0 0 1 .833-4.864c.793-3.04 1.887-6.042 2.094-9.201a10.42 10.42 0 0 0-2.636-7.899 15.5 15.5 0 0 0-6.698-3.825 85 85 0 0 0-8.916-2.077c-3.583-.746-7.163-1.509-10.752-2.224-3.01-.6-6.01-1.259-9.02-1.87a336 336 0 0 1-33.272-15.626 182 182 0 0 0-16.334-8.203A54.7 54.7 0 0 0 445.1.195c-6.796-.368-13.647-.108-20.45-.074l-20.655.104-10.2.053c-3.055.015-6.216-.097-9.186.74-5.578 1.574-9.49 6.507-13.39 10.472q-13.78 14.006-27.985 27.582c-18.872 18.063-38.407 35.353-58.04 52.575q-3.591 3.15-7.171 6.312c-8.091-1.874-16.455-2.688-24.695-3.577-8.57-.924-17.196-1.419-25.803-1.877-2.284-.519-4.58-.98-6.883-1.405a135.6 135.6 0 0 0-22.81-2.42c-8.02-.102-16.027.57-24.025 1.073q-11.86.746-23.728 1.317c-31.977 1.548-63.989 2.232-95.999 2.604-8.894.104-17.788.19-26.681.338-9.053.151-18.135.138-27.165.845a.242.242 0 0 0 0 .484c8.07.531 16.17.463 24.254.477q11.886.02 23.771-.095 23.769-.253 47.534-.776 24.001-.562 47.988-1.607 11.87-.535 23.732-1.23c7.863-.463 15.724-1.121 23.597-1.38a131.6 131.6 0 0 1 26.217 1.778c4.356.732 8.666 1.687 13.002 2.527 4.35.843 8.723 1.56 13.073 2.41a.188.188 0 0 0 .1-.363c-3.637-1.093-7.252-2.283-10.91-3.305 4.615.458 9.227.934 13.835 1.48 8.665 1.03 17.398 1.84 25.999 3.34 8.327 1.453 16.132 4.53 24.047 7.39 7.868 2.843 15.838 5.397 23.853 7.791 15.924 4.756 32.028 8.879 48.014 13.416 8.044 2.282 16.059 4.67 23.998 7.294 7.77 2.568 15.562 5.27 23.074 8.53 3.055 1.326 6.291 2.959 8.243 5.768 2.192 3.153 2.175 7.14 1.88 10.815-.348 4.318-.87 8.623-1.271 12.937-.41 4.418-.624 8.854-.894 13.283-.133 2.178-.213 4.36-.34 6.539-.01.19.31.239.338.046l.921-6.31c-.113 3.087-.232 6.175-.373 9.261-.336 7.361-.702 14.719-1.2 22.07-.504 7.433-1.066 14.859-1.772 22.275q-.53 5.56-1.147 11.113c-.33 2.957-.355 6.507-2.24 8.98a8 8 0 0 1-2.563 2.134c-.305.082-.606.177-.914.246a31 31 0 0 1-4.276.623c-2.791.225-5.595.134-8.386.346-.085.006-.12.147-.021.16a42 42 0 0 0 8.635.3c.132-.008.263-.026.395-.036q-.44.11-.867.214c-1.996.481-3.996.942-5.994 1.412a20 20 0 0 0-2.963.853c-.804.326-1.595.689-2.387 1.046q1.634-8.787 3.221-17.582c2.352-13.153 4.536-26.339 6.29-39.587.468-3.535.88-7.076 1.274-10.618 1.328-2.108 2.433-4.376 3.596-6.573q1.9-3.586 3.758-7.192c.018-.035-.034-.067-.054-.031q-1.982 3.537-3.93 7.091c-1.121 2.053-2.32 4.099-3.317 6.223q.378-3.413.745-6.827a31 31 0 0 0 1.7-3.25q.903-1.786 1.823-3.562c1.21-2.335 2.397-4.68 3.584-7.026a.04.04 0 0 0-.068-.039c-1.35 2.3-2.655 4.622-3.895 6.983q-.9 1.717-1.786 3.443c-.407.794-.87 1.6-1.249 2.428l.09-.844c.18-1.687.381-3.373.628-5.051a1.2 1.2 0 0 0 .194-.156 4 4 0 0 0 .49-.852q.408-.759.802-1.524c.565-1.094 1.134-2.186 1.684-3.287 1.102-2.206 2.17-4.426 3.247-6.644a.035.035 0 0 0-.061-.036c-.454.762-.901 1.526-1.354 2.287.064-.193.14-.38.197-.577a.023.023 0 0 0-.046-.013c-.098.304-.217.6-.334.898-.743 1.249-1.491 2.494-2.221 3.75-.617 1.064-1.216 2.137-1.819 3.209q-.219.393-.435.788.214-1.213.475-2.417c.673-3.083 1.68-6.08 2.368-9.158a21.1 21.1 0 0 0 .416-8.904 13 13 0 0 0-4.04-6.879 36.4 36.4 0 0 0-6.51-4.585 54 54 0 0 0-7.858-4.057 17 17 0 0 0-4.027-1.004c-.037-.005-.04.05-.009.061a39.6 39.6 0 0 1 8.04 3.99c2.26 1.422 4.554 2.857 6.665 4.496a17.1 17.1 0 0 1 4.827 5.576 13.7 13.7 0 0 1 1.059 8.227 71 71 0 0 1-2.11 8.739 71 71 0 0 0-1.77 9.067c-.844 6.32-1.349 12.686-2.132 19.015-1.586 12.816-3.623 25.572-5.845 38.292q-1.656 9.477-3.421 18.934-.887 4.795-1.783 9.59c-.49 2.624-.935 5.349-3.003 7.232a9 9 0 0 1-1.332.994q-.734.046-1.466.118c-1.07.109-2.137.21-3.201.366-1.22.18-2.44.321-3.672.402a15 15 0 0 0-1.622.131 13 13 0 0 1-1.389.313 29 29 0 0 1-6.656-.385 33.4 33.4 0 0 1-6.377-1.542c-.033-.013-.056.041-.024.057a27.2 27.2 0 0 0 6.177 2.296 28.4 28.4 0 0 0 6.54.588 8 8 0 0 1 1.507.087 4.7 4.7 0 0 0 1.553-.15c1.174-.225 2.327-.545 3.497-.788 1.168-.241 2.35-.505 3.533-.661a25.5 25.5 0 0 1-3.375 1.135 84 84 0 0 1-7.646 1.744 39.2 39.2 0 0 1-7.866.677 26.7 26.7 0 0 1-7.309-1.3c-.89-.28-1.762-.542-2.617-.887 2.916-6.846 5.3-13.936 7.74-20.946q4.188-12.032 8.08-24.165c1.82-1.947 3.532-4.01 5.221-6.062a182 182 0 0 0 6.213-8.034c.015-.022-.02-.05-.037-.029a356 356 0 0 1-6.473 7.934c-1.538 1.839-3.13 3.634-4.687 5.459.475-1.473.967-2.94 1.436-4.415.402-.563.8-1.128 1.203-1.672 1.113-1.504 2.223-3.01 3.346-4.506q3.395-4.522 6.952-8.922c.03-.038-.022-.094-.056-.055q-3.715 4.2-7.18 8.607a170 170 0 0 0-3.21 4.24q-.278.376-.563.758c.406-1.3.805-2.603 1.208-3.905q.199-.28.399-.557c1.156-1.588 2.334-3.16 3.504-4.737 2.355-3.179 4.727-6.348 7.194-9.441.036-.047-.027-.113-.067-.067-2.537 2.993-5.057 5.998-7.483 9.082a191 191 0 0 0-3.001 3.954c.4-1.302.812-2.6 1.207-3.902 1.364-1.903 2.685-3.839 4.071-5.718a299 299 0 0 1 7.283-9.505c.028-.034-.02-.084-.05-.05-2.593 2.917-5.095 5.911-7.46 9.016-1.1 1.444-2.217 2.902-3.284 4.394.298-.993.604-1.984.897-2.98.192-.652.374-1.308.561-1.963 1.39-1.793 2.67-3.687 4.002-5.496a472 472 0 0 1 6.428-8.49c.027-.034-.032-.079-.062-.046a157 157 0 0 0-6.919 8.11c-.916 1.148-1.862 2.31-2.765 3.503q.456-1.646.902-3.295.187-.691.378-1.382c.587-.8 1.168-1.603 1.752-2.4 1.653-2.255 3.275-4.532 4.944-6.776.024-.031-.029-.072-.055-.042-1.817 2.125-3.631 4.257-5.358 6.455l-.81 1.034c.3-1.101.589-2.206.843-3.315q2.045-3.793 3.981-7.643a4 4 0 0 0-.128.495.338.338 0 0 0 .614.26 7.3 7.3 0 0 0 .704-2.018c.172-.703.383-1.39.61-2.077a43 43 0 0 1 1.735-4.485c.62-1.35 1.26-2.687 1.84-4.054.573-1.347 1.057-2.726 1.61-4.08.028-.07-.09-.119-.122-.051-.64 1.343-1.323 2.654-1.905 4.026-.572 1.347-1.06 2.727-1.549 4.106a55 55 0 0 1-1.326 3.326 16.3 16.3 0 0 0 1.191-8.937c-.774-4.19-3.436-7.89-6.249-10.98a38.4 38.4 0 0 0-5.188-4.776 32 32 0 0 0-3.441-2.24 50 50 0 0 0-5.579-2.999c-1.512-.7-3.037-1.369-4.56-2.042-1.525-.673-3.023-1.431-4.572-2.045a96 96 0 0 1-11.162-5.641c-4.293-2.383-8.638-4.64-12.982-6.926a.031.031 0 0 0-.031.054c3.634 2.264 7.24 4.558 10.919 6.75 3.565 2.125 7.167 4.191 10.706 6.359 5.714 3.499 12.233 5.439 18.061 8.728a32.4 32.4 0 0 1 5.497 3.848c.141.153.287.302.426.456 2.72 3.02 5.133 6.516 6.095 10.515 1.043 4.329-.467 8.415-2.35 12.273-2.022 4.145-4.181 8.227-6.421 12.259-1.277 2.298-2.714 4.534-3.887 6.886-.57 1.142-1.178 2.283-1.703 3.445-.561 1.242-1.213 2.434-1.797 3.666-.09.188.16.43.313.241 1.506-1.853 2.864-3.822 4.292-5.735a47 47 0 0 0 3.262-5.317l-.426 1.328c-.44.665-.861 1.341-1.24 2.043-.048.087.068.185.14.109.224-.238.43-.49.645-.735l-.247.772c-1.552 4.871-3.072 9.753-4.602 14.632q-4.587 14.632-9.55 29.144-2.492 7.29-5.081 14.546c-1.649 4.615-3.341 9.222-5.315 13.71a102 102 0 0 1-3.16 6.575c-.973 1.842-1.973 3.962-3.99 4.847-1.988.87-4.461.713-6.56.46a29.5 29.5 0 0 1-6.89-1.797 34.7 34.7 0 0 1-10.412-6.047 22.9 22.9 0 0 1-6.41-9.077c-.32-.815-.654-1.63-.958-2.451a20 20 0 0 0 2.766-4.757q.968-2.19 1.93-4.38a.16.16 0 0 0 .145-.018 23.4 23.4 0 0 0 2.582-2.55 201 201 0 0 0 2.456-2.675c.812-.896 1.612-1.805 2.435-2.691.803-.865 1.718-1.573 2.474-2.484 3.038-3.66 5.828-7.515 8.488-11.455a207 207 0 0 0 4.45-6.84c.023-.038-.037-.073-.061-.035-2.66 4.025-5.484 7.933-8.523 11.68a344 344 0 0 1-4.558 5.487c-.342.405-.7.798-1.028 1.214-.414.525-.696 1.125-1.11 1.648-.743.943-1.555 1.83-2.363 2.719a124 124 0 0 1-2.804 2.967c-.766.79-1.587 1.555-2.303 2.397q1.252-2.85 2.51-5.696c1.418-1.543 2.656-3.25 3.943-4.908q2.29-2.95 4.572-5.906c3.094-4.013 6.244-7.99 9.254-12.067 1.722-2.332 3.386-4.705 5.083-7.056.01-.014-.013-.032-.025-.019-3.242 3.888-6.48 7.766-9.598 11.756q-4.683 5.993-9.358 11.994c-.832 1.071-1.698 2.128-2.531 3.208a418 418 0 0 1 2.95-6.446q.502-.624.993-1.258c.725-.935 1.449-1.87 2.164-2.813q2.227-2.934 4.44-5.88c2.952-3.926 5.917-7.842 8.809-11.814q2.455-3.373 4.86-6.78c.014-.022-.021-.05-.038-.03-6.051 7.733-12.015 15.535-18.102 23.24q-.749.949-1.493 1.902 1.79-3.747 3.63-7.471c.8-.883 1.545-1.822 2.285-2.741q1.894-2.353 3.746-4.738 3.681-4.764 7.14-9.687 2.013-2.856 3.98-5.744c.014-.021-.019-.04-.034-.02-4.92 6.496-10.006 12.875-15.128 19.214q-.163.201-.33.402.991-1.957 2.002-3.905c.828-1.064 1.612-2.168 2.394-3.245q2.085-2.87 4.202-5.72c2.833-3.822 5.688-7.628 8.493-11.47.023-.033-.03-.073-.056-.043-3.149 3.512-6.129 7.166-8.999 10.909-1.016 1.326-2.005 2.673-2.998 4.017.109-.183.205-.373.316-.556q.642-1.01 1.292-2.018a36 36 0 0 1 2.38-3.194c2.177-2.567 4.555-4.976 6.131-7.985a23.7 23.7 0 0 0 1.886-4.876q.013.038.028.075c.382.856.835 1.688 1.288 2.508a20.6 20.6 0 0 0 3.154 4.607c.072.074.223-.002.183-.107a37 37 0 0 0-2.518-4.874c-.445-.791-.879-1.59-1.33-2.378-.17-.299-.363-.578-.553-.86a27.1 27.1 0 0 0-.286-12.688 39.4 39.4 0 0 0-9.615-16.662 53 53 0 0 0-3.462-3.335.098.098 0 0 0-.138.139c4.19 4.677 8.078 9.812 10.262 15.758a28.9 28.9 0 0 1 .911 17.928 22.2 22.2 0 0 1-4.432 8.014 75 75 0 0 0-6.261 7.902c-1.857 2.923-3.41 6.031-4.982 9.113q-2.475 4.853-4.856 9.754-4.76 9.8-9.138 19.78c-1.308 2.982-2.437 6.1-3.984 8.968-1.347 2.498-3.25 4.57-6.239 4.8-.097.008-.193.002-.29.007a.9.9 0 0 0-.273-.124c-.206-.057-.424-.084-.633-.127q-.737-.154-1.469-.33a36 36 0 0 1-2.696-.74 18 18 0 0 1-2.743-1.118c-.408-.213-.774-.5-1.182-.712a6.7 6.7 0 0 0-1.45-.446 24.5 24.5 0 0 1-5.361-2.34c-1.693-.92-3.403-1.847-5.021-2.895-.07-.045-.154.062-.09.117a38 38 0 0 0 4.671 3.53c1.703 1.056 3.505 1.94 5.208 2.995a5.6 5.6 0 0 0 1.337.713c.478.142.99.177 1.474.292.807.193 1.607.412 2.408.628a94 94 0 0 1-4.287-.79 70 70 0 0 1-9.995-2.737 17.4 17.4 0 0 1-7.636-5.28 67 67 0 0 1-5.359-8.488c-1.852-3.139-3.687-6.288-5.559-9.414a41.2 41.2 0 0 0-5.75-7.892c-1.895-1.925-4.752-3.435-5.47-6.22a7.68 7.68 0 0 1 1.343-6.198 8 8 0 0 1 1.028-1.162 9.4 9.4 0 0 1 2.462-1.377 6.9 6.9 0 0 1 3.07-.419c.297.031.594.075.891.12q.222.175.44.352l-.174.004a8.7 8.7 0 0 0-3.075.68 9.9 9.9 0 0 0-4.69 3.85c-.016.027.023.048.04.025a9.16 9.16 0 0 1 4.927-3.435 11.5 11.5 0 0 1 2.872-.413 8 8 0 0 1 1.102.088 39 39 0 0 0 1.993 1.486c-.144-.002-.288-.007-.433-.006a13 13 0 0 0-3.404.492 15.5 15.5 0 0 0-6.008 3.075c-.027.023.009.07.038.049a14.8 14.8 0 0 1 5.977-2.724 19 19 0 0 1 3.298-.298c.52-.003 1.035.04 1.55.08.45.282.908.555 1.384.805a26.6 26.6 0 0 0 9.128 2.85l.67.464q.418.291.813.614c.145.12.283.253.432.367a9.55 9.55 0 0 0-.228 4.512 21 21 0 0 0 1.096 4.881 23.2 23.2 0 0 0 2.071 4.569.137.137 0 0 0 .25-.105c-.401-1.322-.842-2.601-1.153-3.952a38 38 0 0 1-.675-4.252 25 25 0 0 1-.252-4.02 4 4 0 0 1 .074-.595 12.6 12.6 0 0 0 .863 3.088 27.6 27.6 0 0 0 2.806 5.244 23.5 23.5 0 0 0 3.886 4.43 27.4 27.4 0 0 0 4.684 3.55c.147.081.316-.12.185-.24a40 40 0 0 1-3.835-3.778 35 35 0 0 1-3.19-4.51 37 37 0 0 1-2.442-4.757 9.24 9.24 0 0 1-.952-5.044.4.4 0 0 0 .028-.18c.011-.06.015-.118.028-.178a23 23 0 0 0 9.534-2.645 15 15 0 0 0 2.348-1.627c.093-.078-.007-.255-.122-.21a35 35 0 0 1-11.548 2.772 27.9 27.9 0 0 1-11.612-2.062 24 24 0 0 1-5.07-2.887c-1.747-1.296-3.294-2.878-5.322-3.747-2.34-1.003-4.82-.6-7.282-.54a34.6 34.6 0 0 1-6.724-.487 41.34 41.34 0 0 1-23.066-12.857 51 51 0 0 1-7.469-10.498c-1.083-2.006-1.923-4.135-3.54-5.793a49 49 0 0 1-4.622-4.659 23.4 23.4 0 0 1-4.335-11.634c-.493-5.086.445-10.021 1.427-14.984q.377-1.904.77-3.804a.098.098 0 0 0-.188-.052c-2.077 5.883-3.651 12.427-3.336 18.78a71 71 0 0 1-.909-3.075 54 54 0 0 1-1.077-5.11 98 98 0 0 1-.388-2.641c-.129-.938-.366-1.853-.476-2.791a.074.074 0 0 0-.148 0c-.048.937-.187 1.849-.172 2.79.015.889.074 1.78.149 2.665.151 1.797.396 3.581.684 5.36.224 1.382.511 2.758.854 4.117-.076-.032-.15-.06-.227-.098a4 4 0 0 0-.996-.4c-.807-.156-1.647-.22-2.462-.328l-4.663-.621c-1.14-.152-2.287-.315-3.436-.46a30 30 0 0 0-2.861-1.915l-3.235-2.039q-3.182-2.006-6.382-3.985c-.055-.034-.105.053-.05.088q3.104 2.017 6.216 4.022l3.117 1.997c.966.619 1.925 1.278 2.949 1.8a36 36 0 0 0-4.81-.322 20 20 0 0 0-2.478-1.454c-.872-.49-1.75-.971-2.625-1.456q-2.67-1.48-5.347-2.948a.04.04 0 0 0-.04.068q2.635 1.54 5.274 3.075c.865.502 1.727 1.008 2.595 1.505.707.404 1.42.875 2.165 1.221-.128.005-.256.003-.385.01a23.4 23.4 0 0 0-3.935.594c-1.474-.876-3.08-1.573-4.625-2.305a323 323 0 0 0-4.434-2.052 93 93 0 0 0 9.623-7.34 82 82 0 0 0 3.155-2.888c.13-.126-.047-.373-.199-.258a158 158 0 0 1-14.413 9.472q-7.452 4.475-15.231 8.347a348 348 0 0 1-33.458 14.634A294 294 0 0 1 93.82 204.61c-12.193 2.873-24.52 5.137-36.865 7.256-12.537 2.152-25.082 4.395-37.554 6.897-1.563.313-3.106.679-4.677.954-.239.041-.136.399.1.361 3.221-.509 6.473-.832 9.703-1.303 3.224-.47 6.448-.937 9.67-1.424 6.29-.953 12.586-1.886 18.871-2.878 12.426-1.96 24.827-4.239 37.102-6.992a303 303 0 0 0 35.903-10.245 310 310 0 0 0 14.488-5.619c.38.478.77.949 1.185 1.4a7.3 7.3 0 0 0 .786 1.444c.665 1.02 1.323 2.045 1.984 3.067q1.985 3.068 3.915 6.171c2.33 3.745 4.57 7.542 6.833 11.326 2.038 3.406 4.114 6.792 6.374 10.057a65 65 0 0 0 7.393 9.17 38.4 38.4 0 0 0 6.538 5.187 44.34 44.34 0 0 0 15.624 12.408c4.173 1.928 8.608 3.18 12.619 5.469a60 60 0 0 1 5.6 3.699 31.6 31.6 0 0 0 5.154 3.278 12.1 12.1 0 0 0 5.83 1.228 14.75 14.75 0 0 0 5.644-1.603c3.598-1.773 6.633-4.511 9.758-6.985l.005.003a3.6 3.6 0 0 0 1.513.031c.59-.055 1.178-.143 1.765-.23q1.777-.261 3.536-.615c2.337-.473 4.661-1.008 6.988-1.53 2.272-.508 4.55-1.003 6.777-1.687a68 68 0 0 0 6.48-2.477l3.599-1.52c.641-.271 1.255-.56 1.87-.885a2.2 2.2 0 0 0 .78-.496 1.2 1.2 0 0 0 .191-.45c.334.262.665.529 1.003.787a7 7 0 0 0 .944.683 1.5 1.5 0 0 0 .304.116c1.18 1.85 2.271 3.76 3.381 5.642 1.948 3.3 3.881 6.61 5.844 9.901a25.6 25.6 0 0 0 6.285 7.71 27.4 27.4 0 0 0 9.125 4.02 94 94 0 0 0 10.83 2.395c3.356.536 7.166 1.279 10.268-.559a8.7 8.7 0 0 0 1.605-1.24 9 9 0 0 0 .085 1.802 11.4 11.4 0 0 0 .899 2.872 17.8 17.8 0 0 0 1.903 3.25c.18 1.189.436 2.368.702 3.542.392 1.732.753 3.477 1.223 5.19a20 20 0 0 0 4.217 8.386 15.66 15.66 0 0 0 8.907 4.342 14.6 14.6 0 0 0 5.723.078 9.55 9.55 0 0 0 3.914-1.933 9.8 9.8 0 0 0 2.915-3.916 7.4 7.4 0 0 0 .655-3.206 7.7 7.7 0 0 0 3.08-1.357c1.839-1.404 2.876-3.634 3.91-5.643a113 113 0 0 0 3.198-6.791 12 12 0 0 0 2.209 1.593 12.8 12.8 0 0 0 3.567 1.254 28.7 28.7 0 0 0 8.1.389 59 59 0 0 0 8.175-1.326 46 46 0 0 0 7.458-2.12 11.15 11.15 0 0 0 5.776-4.673c1.49-2.703 1.755-6.046 2.312-9.032l.263-1.419a30.3 30.3 0 0 0 5.404-.573c1.86-.416 3.713-.873 5.568-1.31 2.824-.663 5.811-1.352 8.182-3.115 2.643-1.965 3.645-4.878 4.075-8.035.493-3.613.833-7.253 1.2-10.88q2.293-22.605 3.027-45.319c.13-4.217.177-8.438.18-12.657q.003-3.23-.1-6.455-.036-1.175-.08-2.348c.502-3.768.973-7.54 1.36-11.33.408-4.008 1.102-8.14.57-12.168a13.22 13.22 0 0 0-5-8.88c-2.765-2.177-6.077-3.478-9.312-4.78q-5.904-2.377-11.904-4.506c-7.994-2.848-16.088-5.407-24.226-7.811l-1.307-.38.022-.042q.088-.052.174-.108a7.7 7.7 0 0 0 1.57-1.497c.972-1.187 1.93-2.383 2.895-3.575l5.633-6.956 11.344-14.01c1.043-1.288 2.094-2.57 3.121-3.872.474-.6.896-1.227 1.347-1.843.182-.248.43-.446.6-.705.021-.03.032-.067.05-.1.196.358.398.715.577 1.08a17 17 0 0 1 .67 1.603l.006.055a9 9 0 0 0 .728 2.57 8.4 8.4 0 0 0 1.417 2.203l.01.009c1.066 3.839 2.264 7.873 5.294 10.599 1.563 1.406 3.382 2.487 4.958 3.875a21.9 21.9 0 0 1 3.939 4.759c2.41 3.798 4.328 7.928 6.472 11.88q6.956 12.818 14.64 25.222 1.905 3.074 3.853 6.12a29.7 29.7 0 0 0 3.95 5.246c3.116 3.079 7.462 4.405 11.335 6.237a91 91 0 0 1 11.898 6.728c3.667 2.468 6.972 5.497 10.796 7.726a16.18 16.18 0 0 0 11.28 2.343 9.77 9.77 0 0 0 7.6-7.277c.945-3.69.256-7.621-.919-11.173a38.4 38.4 0 0 0-5.197-10.167 56.4 56.4 0 0 0-17.178-15.367c-.44-.263-.891-.504-1.338-.754a13 13 0 0 0 1.512.008 53 53 0 0 0 5.548-.625 15 15 0 0 0 2.469-.649c.307-.008.614-.009.921-.028a42 42 0 0 0 4.023-.457c1.872-.298 3.75-.551 5.632-.772a.57.57 0 0 0 .368.26c3.359.792 6.727 1.534 10.06 2.432 3.348.902 6.673 1.897 10.047 2.702 5.812 1.387 11.873 2.12 17.79.938a22.4 22.4 0 0 0 7.832-3.094c2.419-1.572 4.731-3.724 5.597-6.559a15 15 0 0 0 .352-5.158q-.136-2.741-.264-5.483-.252-5.484-.457-10.97-.824-22.006-.897-44.031-.019-5.552.01-11.104c.01-1.782-.003-3.567.121-5.345M289.855 233.679h.059a2.7 2.7 0 0 0-.51.459l-.059-.052c-.188-.157-.386-.302-.58-.45.363.02.726.04 1.09.043m-79.002-54.476q.24.826.512 1.646-.331-.242-.664-.482-.69-.494-1.397-.961a7 7 0 0 0 1.549-.203m-3.24.026.315.234c.734.528 1.472 1.05 2.203 1.582.674.491 1.332 1.003 1.994 1.51a4 4 0 0 0 .272.367c.249.277.579.412.82.687.008.009.019.009.027.015.184.582.393 1.158.617 1.73-1.607-1.395-3.282-2.71-4.978-4.003q-1.203-.918-2.422-1.812c-.003-.026 0-.051-.006-.077a1.5 1.5 0 0 0-.145-.406zm-27.857-7.181c1.49.773 2.98 1.543 4.482 2.29 1.423.709 2.853 1.478 4.334 2.077-1.116.262-2.225.56-3.339.833-.455-.24-.926-.457-1.383-.679a67 67 0 0 0-2.417-1.107 79 79 0 0 0-4.314-1.719 90 90 0 0 0 2.637-1.695m-4.292 2.716c.544-.316 1.067-.66 1.602-.988q2.267.959 4.496 2.007 1.16.545 2.311 1.11c.305.148.61.306.918.461q-.395.096-.792.184c-1.092.24-2.193.44-3.297.62a32 32 0 0 0-3.382-1.738 36 36 0 0 0-2.787-1.134c.31-.177.624-.343.931-.522m-1.153.646a68 68 0 0 1 3.029 1.3c1.017.473 2.011.991 3.007 1.507-1.545.24-3.1.43-4.658.553a28 28 0 0 0-4.526-1.595c1.057-.574 2.102-1.17 3.148-1.765m-3.465 1.934 4.187 1.482-.205.017c-1.782.115-3.567.137-5.35.211-.695.03-1.39.077-2.083.124q1.733-.902 3.45-1.834m-26.501 16.34a39 39 0 0 0-.454-.667q-.042-.266-.086-.53c-.12-.682-.229-1.387-.392-2.073.585-.25 1.162-.517 1.745-.769.014.421.03.842.073 1.263.087.874.194 1.745.304 2.616.107.85.218 1.692.364 2.526-.516-.79-1.03-1.581-1.554-2.366m2.28 3.472c-.062-1.246-.234-2.476-.421-3.722a92 92 0 0 0-.42-2.6c-.08-.45-.188-.892-.299-1.333.712-.308 1.416-.632 2.126-.944.174 3.904.489 7.827.977 11.71-.655-1.037-1.298-2.08-1.962-3.111m4.283 6.789c-.65-1.054-1.322-2.094-1.982-3.142-.188-4.117-.578-8.25-1.117-12.334.767-.338 1.529-.688 2.295-1.029a196 196 0 0 0 .99 13.46c.156 1.415.28 2.87.563 4.275-.25-.41-.497-.822-.75-1.23m1.03 1.692c0-1.618-.232-3.254-.386-4.86-.16-1.68-.33-3.36-.486-5.04q-.389-4.191-.77-8.383c.733-.328 1.463-.663 2.195-.994-.035 4.084.092 8.15.425 12.225.174 2.132.374 4.264.641 6.387.186 1.471.357 2.962.635 4.427q-1.12-1.885-2.254-3.762m88.454 49.119-.022.026c-.408.113-.817.221-1.222.346-.564.173-1.13.345-1.688.538a82 82 0 0 1 4.856-3.379c-.051.078-.097.159-.15.236-.352.52-.744 1.008-1.14 1.495-.205.252-.425.49-.634.738m.992-.252.07-.087a12.3 12.3 0 0 0 1.062-1.69c.141-.263.252-.542.38-.812a90 90 0 0 1 2.818-1.728c-.344.492-.682.989-1.03 1.479-.13.183-1.16 1.612-1.627 2.413q-.837.209-1.673.425m5.397-1.547-.15.29q-1.406.314-2.805.652c.105-.175.219-.345.322-.52.671-1.137 1.314-2.291 1.973-3.436a87 87 0 0 1 3.358-1.847q-.724 1.286-1.455 2.568c-.287.503-.561 1.014-.837 1.524q-.208.382-.406.77m2.61-.32q-1.09.243-2.18.482.27-.517.53-1.039c.679-1.358 1.317-2.735 1.975-4.104.882-.455 1.76-.916 2.658-1.34-.547 1.056-1.098 2.11-1.62 3.179q-.495 1.012-.974 2.032c-.119.253-.257.52-.39.79m2.609-.601q-1.01.242-2.023.47.11-.262.222-.507.473-1.026.93-2.058c.497-1.123.962-2.26 1.433-3.395q1.259-.591 2.539-1.139c-.617 1.317-1.251 2.624-1.87 3.94-.346.737-.68 1.48-1.02 2.219zm2.533-.654c-.632.178-1.27.333-1.907.492l.216-.515c.828-2.003 1.614-4.022 2.432-6.028q1.43-.606 2.884-1.157c-.758 1.273-1.488 2.566-2.137 3.898q-.54 1.109-1.036 2.237c-.15.34-.298.682-.433 1.028Zm2.744-.86c-.207.072-.412.151-.62.22q-.841.277-1.69.522.155-.371.308-.743.496-1.196 1.042-2.371a84 84 0 0 1 1.992-4.036l.03-.012c.761-.285 1.533-.543 2.304-.803q-.964 2.065-1.933 4.128-.56 1.197-1.1 2.402c-.102.225-.217.457-.333.692m2.999-1.138q-1.205.492-2.428.934c.038-.094.076-.191.116-.282q.52-1.191 1.025-2.39.921-2.208 1.85-4.415c.194-.064.385-.138.58-.202a.164.164 0 0 0-.087-.316c-.105.027-.209.06-.314.09l.046-.11c.027-.065-.084-.113-.114-.049l-.096.205a81.2 81.2 0 0 0-17.045 6.769c.057-.176.13-.346.181-.523a.063.063 0 0 0-.12-.033c-.072.219-.155.432-.237.646q-2.74 1.472-5.373 3.155c-3.433 2.193-6.434 4.947-9.766 7.274-3.025 2.112-6.667 4.034-10.475 3.262-4.018-.815-7.175-3.92-10.493-6.115a43.5 43.5 0 0 0-5.76-3.247c-2.079-.959-4.234-1.736-6.367-2.563a43.8 43.8 0 0 1-10.255-5.523 50.5 50.5 0 0 1-7.981-7.496 73.3 73.3 0 0 1-11.678-18.921 39 39 0 0 0-1.169-2.482c-.043-.081-.16-.023-.143.06a34 34 0 0 0 1.743 5.452q1.027 2.623 2.249 5.163a62 62 0 0 0 4.081 7.167c-.34-.352-.686-.699-1.022-1.056a83 83 0 0 1-7.313-8.944c-3.33-4.713-6.268-9.684-9.214-14.647-.136-1.763-.419-3.52-.622-5.275a225 225 0 0 1-.679-6.51 262 262 0 0 1-.763-12.166 318 318 0 0 0 7.302-3.392q2.756-1.33 5.484-2.72a5 5 0 0 0 1.003.143c.77.063 1.538.127 2.309.179 1.612.109 3.237.14 4.854.118a56 56 0 0 0 9.163-.85c2.986-.536 5.9-1.577 8.91-1.951a36.2 36.2 0 0 1 9.19.508l3.387.45q.312.229.617.463c1.21.942 2.41 1.898 3.615 2.847 1.898 1.497 3.817 2.96 5.826 4.296a18.5 18.5 0 0 0 3.566 5.187c.823.84 1.745 1.573 2.599 2.381a10.6 10.6 0 0 1 2.092 2.726c1.09 2.024 2.075 4.082 3.292 6.037a54 54 0 0 0 3.88 5.44 44.42 44.42 0 0 0 22.556 15.111 39 39 0 0 0 6.949 1.235 36 36 0 0 0 3.559.127c1.263-.019 2.523-.153 3.786-.16a8 8 0 0 1 2.675.391 8 8 0 0 0-1.833.57 8.8 8.8 0 0 0-2.573 1.82 6 6 0 0 0-1.266.939 8.43 8.43 0 0 0-2.266 7.654 4 4 0 0 0-.046.481 10 10 0 0 0 .075 1.254 8.8 8.8 0 0 0 .42 2.145 6.4 6.4 0 0 0 1.603 2.213 43 43 0 0 1-1.68 4.55 42 42 0 0 1-1.125 2.385q-.133.255-.28.51m.651-.268.086-.179c.369-.753.717-1.518 1.026-2.297a32 32 0 0 0 1.417-4.61c.395.38.808.74 1.194 1.098.047.044.098.085.145.129-.637 1.678-1.317 3.345-1.912 5.039q-.977.412-1.956.82m2.458-1.031a35 35 0 0 0 1.55-4.704q.95.866 1.926 1.701c-.045.13-.096.259-.144.388l-.03.038.005.006.013-.015c-.075.2-.148.402-.236.6-.13.295-.288.58-.435.87Zm4.602-1.814a15 15 0 0 0-1.596.557 7.7 7.7 0 0 0 .674-1.575c.386.326.77.655 1.161.974a2 2 0 0 0-.24.044m1.187-.758q-1.77-1.43-3.462-2.952a11.6 11.6 0 0 1-2.95-3.142 4.4 4.4 0 0 1-.318-.992 20.2 20.2 0 0 0 3.504 3.448 25 25 0 0 1 3.381 3.578c.105.135.197.279.3.415-.151-.12-.306-.235-.455-.355m78.708 53.49a9.5 9.5 0 0 1-2.15 3.076c-2.231 2.15-5.19 2.47-8.143 1.97-2.982-.507-5.995-1.503-8.135-3.737-1.98-2.067-2.961-4.78-3.846-7.443-.581-1.75-1.13-3.51-1.696-5.265l-.302-.924a32.2 32.2 0 0 0 9.099 6.667 32.7 32.7 0 0 0 13.881 3.871 19 19 0 0 0 1.84-.05 13 13 0 0 1-.548 1.836m49.59-201.184q-.127.163-.256.324l-2.38 2.937a145 145 0 0 0 2.368-14.982l.113.158q.833 1.15 1.632 2.327c-.253 1.607-.528 3.212-.778 4.817-.227 1.453-.55 2.936-.699 4.419m3.236-4.36c-.05.304-.13.599-.203.896a9 9 0 0 0-.492.447 19 19 0 0 0-1.461 1.65c.15-.944.25-1.898.36-2.83.181-1.528.275-3.051.345-4.58a44 44 0 0 1 1.55 2.505c0 .185.004.37 0 .556a10 10 0 0 1-.1 1.357m91.358 50.835a37 37 0 0 0-4.203.863c-.515.141-1.02.309-1.524.482-.62.026-1.24.06-1.86.137-1.809.223-3.625.476-5.427.745a12 12 0 0 1-.962.106 5 5 0 0 0-.464-.408 7 7 0 0 1-.71-.669 7.7 7.7 0 0 1-1.147-1.594c-.023-.041-.097-.012-.078.034a13 13 0 0 0 .896 1.782c.17.282.357.556.548.826l.04.055a10.4 10.4 0 0 1-1.848-.19 13.2 13.2 0 0 1-2.504-6.733.016.016 0 0 0-.031 0 13.7 13.7 0 0 0 .266 3.827 10.4 10.4 0 0 0 .974 2.575l-.06-.016q-.268-.09-.535-.184l-.06-.033a12.2 12.2 0 0 1-4.475-4.226 30.7 30.7 0 0 0-3.401-5.335c-1.468-1.586-3.284-2.79-4.688-4.444a27 27 0 0 1-3.435-5.469 40 40 0 0 1-2.41-6.008c-.4-1.288-.736-2.6-1.018-3.922a15 15 0 0 1 .533-2.092c.396-1.186.733-2.386 1.196-3.543a10.6 10.6 0 0 1 1.568-1.67c1.613-1.328 3.932-1.266 5.875-.915a14.2 14.2 0 0 1 5.808 2.304 16.1 16.1 0 0 1 3.794 4.459 26 26 0 0 0 1.919 2.642 7.8 7.8 0 0 0 1.728 1.593c-.08.148-.164.295-.234.45a47 47 0 0 0-1.845 5.302c-.229.494-.471.985-.676 1.485-.719 1.76-.459 3.683-.322 5.535a36 36 0 0 0 .923 5.693.106.106 0 0 0 .207-.028c-.08-1.606-.125-3.211-.186-4.818a37 37 0 0 1-.033-4.814 10 10 0 0 1 1.134-3.29c.795-1.216 1.6-2.424 2.29-3.71a6.55 6.55 0 0 1 1.5-2.161 9.5 9.5 0 0 1 2.567-1.26 60 60 0 0 1 6.15-1.988 13.4 13.4 0 0 1 2.736-.518 6 6 0 0 1 1.34.072c.058.01.109.022.163.034.083.126.181.242.27.365a17 17 0 0 0 .73 2.27 22.2 22.2 0 0 0 7.197 9.549c.12.09.253-.1.156-.203a36.4 36.4 0 0 1-4.845-6.243 37 37 0 0 1-1.807-3.398c-.052-.111-.098-.226-.148-.339l.201.244a42 42 0 0 0 2.365 2.646 19.7 19.7 0 0 0 6.41 4.43c.13.056.244-.12.114-.195a19.6 19.6 0 0 1-4.995-4.619 60 60 0 0 1-3.986-5.56 4.53 4.53 0 0 1-.637-3.432 28.5 28.5 0 0 0 .403-3.89 47.5 47.5 0 0 0-.926-8.107l-.783-4.683a14 14 0 0 0-.439-2.184 11 11 0 0 0-.383-.97 10.1 10.1 0 0 1 2.915 2.134.165.165 0 0 0 .274-.16 7.54 7.54 0 0 0-1.972-3.143c-.895-.856-2.313-1.191-2.882-2.332a44 44 0 0 1-1.677-4.462q-.82-2.22-1.658-4.433c-.55-1.46-1.159-2.91-1.658-4.39a11.5 11.5 0 0 1-.603-4.54 26.4 26.4 0 0 1 2.04-8.139 34 34 0 0 1 2.129-4.188 39 39 0 0 1 2.49-3.853c.051-.068-.059-.147-.117-.09a25.1 25.1 0 0 0-4.98 6.793 31 31 0 0 0-2.229 5.904 60 60 0 0 1-.044-4.075 56 56 0 0 1 .385-5.184c.102-.858.234-1.712.34-2.57.117-.948.147-1.926.291-2.865a.102.102 0 0 0-.196-.054c-.284.866-.64 1.686-.862 2.579-.218.878-.373 1.77-.507 2.664a52 52 0 0 0-.516 5.312 50 50 0 0 0 .047 5.438c.052.836.122 1.668.247 2.497.013.08.034.162.049.243a12.6 12.6 0 0 0 .012 2.898 21.6 21.6 0 0 0 1.222 4.497c.408 1.128.825 2.252 1.236 3.38q-.063.014-.124.03a9.8 9.8 0 0 0-2.047.962 28 28 0 0 0-4.216 2.827 18.3 18.3 0 0 0-2.933 3.184l.051-.1a63 63 0 0 0 2.15-5.023c.681-1.793 1.212-3.615 1.767-5.447.018-.058-.074-.1-.1-.043-.71 1.544-1.449 3.07-2.153 4.618-.708 1.556-1.426 3.108-2.212 4.627a37.5 37.5 0 0 1-5.563 8.245c-2.349 2.555-5.226 4.417-7.99 6.474a22.2 22.2 0 0 0-6.809 7.364 16.6 16.6 0 0 0-1.422 3.54 29.5 29.5 0 0 1-.548-4.553q-.03-1.574.072-3.146c.068-1.076.049-2.152.105-3.232a.086.086 0 0 0-.169-.023 19.4 19.4 0 0 0-.718 3.038 45 45 0 0 0-.278 3.254 54 54 0 0 0-.07 6.394 30.7 30.7 0 0 0 1.269 6.318 43.5 43.5 0 0 0 2.247 6.039 34 34 0 0 0 3.138 5.574 27.2 27.2 0 0 0 4.501 4.68 13.2 13.2 0 0 1 2.112 2.2 26 26 0 0 1 1.604 2.7 14.9 14.9 0 0 0 3.776 4.828 39 39 0 0 0 5.333 3.216q2.478 1.372 4.838 2.942a57.6 57.6 0 0 1 8.75 7.114c5.197 5.185 9.483 11.735 10.894 19.034.644 3.33.594 7.399-1.812 10.061-2.126 2.353-5.433 2.911-8.46 2.438.073-.408.08-.838.152-1.237a9.7 9.7 0 0 1 .46-1.674 12.5 12.5 0 0 1 1.666-2.983c.345-.471.707-.9 1.096-1.334.351-.394.798-.688 1.128-1.105a1.8 1.8 0 0 0 .056-2.245 23 23 0 0 0-2.429-2.79 25 25 0 0 0-2.86-2.604c-1.81-1.418-4.126-3.426-6.628-2.772a8 8 0 0 0-1.837.907 14.5 14.5 0 0 0-1.602.99 7.3 7.3 0 0 0-2.228 2.735c-.01.023.022.043.034.02a4.63 4.63 0 0 1 2.507-2.041 12 12 0 0 1 2.982-1.216c2.379-.389 4.416.86 6.282 2.192.993.709 1.97 1.455 2.928 2.21a15 15 0 0 1 2.55 2.336 1.55 1.55 0 0 1 .253 1.862 3.5 3.5 0 0 1-1.322 1.14 7.1 7.1 0 0 0-2.191 1.816 8.9 8.9 0 0 0-1.566 2.956 7.5 7.5 0 0 0-.465 2.629c-.053-.013-.11-.02-.162-.033-4.072-1.026-7.45-3.816-10.713-6.32-.405-.31-.82-.606-1.23-.91-.056-.096-.12-.187-.172-.287a7 7 0 0 1-.74-1.656 6.2 6.2 0 0 1 .045-2.286c.007-.049-.064-.071-.076-.02a13 13 0 0 0-.384 2.183 6 6 0 0 0 .037 1.112 87 87 0 0 0-8.552-5.418q-2.92-1.616-5.948-3.023c-1.977-.922-4.012-1.721-5.969-2.685a16.4 16.4 0 0 1-5.053-3.63 38.7 38.7 0 0 1-3.754-5.334q-7.664-12.052-14.64-24.524-3.483-6.224-6.789-12.544c-1.902-3.627-3.897-7.362-6.996-10.124-1.519-1.354-3.27-2.41-4.805-3.741a12.3 12.3 0 0 1-3.44-5.06c-.81-2.12-1.417-4.32-2.165-6.465-.801-2.301-1.685-4.572-2.545-6.852q-.612-1.623-1.198-3.254c-.415-1.162-.94-2.303-1.308-3.48-.063-.2-.38-.115-.317.087.367 1.17.588 2.404.91 3.59.18.665.347 1.333.519 1.999a33.3 33.3 0 0 0-2.966-5c-2.543-3.675-5.44-7.148-7.466-11.155-2.438-4.825-3.63-10.259-4.742-15.514a169 169 0 0 1-2.685-16.951q-.51-4.74-.767-9.502-.136-2.441-.259-4.883c-.08-1.629-.225-3.255-.272-4.885a.066.066 0 0 0-.133 0c-.073 1.467-.21 2.928-.239 4.397q-.042 2.137-.002 4.273c.05 2.846.209 5.693.418 8.532a189 189 0 0 0 2.041 17.018 110 110 0 0 0 2.323 11.546c-.424-.738-.852-1.475-1.269-2.222a62 62 0 0 1-3.28-6.817 68 68 0 0 1-4.21-14.438 72 72 0 0 1-1.038-8.678.059.059 0 0 0-.117 0 54 54 0 0 0 .164 7.728c.289 2.539.755 5.052 1.289 7.549a55.7 55.7 0 0 0 5.412 14.326 25.8 25.8 0 0 0 4.237 6.237 5.17 5.17 0 0 0-3.494 1.043c-1.404 1.069-2.304 2.623-3.518 3.88-2.288 2.37-5.09 4.144-7.507 6.37a22.7 22.7 0 0 0-3.511 4.142c-.046.068.06.126.108.063a21.5 21.5 0 0 1 4.446-4.12c1.42-1.062 2.868-2.088 4.287-3.151-.165.866-.294 1.74-.476 2.604a63 63 0 0 0-.287 1.468 8 8 0 0 1-.15.673 6 6 0 0 1-.33.832c-.072.16.181.238.206.087.045-.27.066-.532.136-.796a15 15 0 0 1 .231-.77 14 14 0 0 0 .38-1.442 20 20 0 0 0 .41-2.745c.13-.098.263-.192.392-.29q.93-.71 1.817-1.465c-.212.924-.412 1.85-.616 2.776-.157.708-.28 1.424-.397 2.14-.12.742-.371 1.466-.472 2.207a.035.035 0 0 0 .067.02c.277-.719.404-1.513.632-2.25.214-.692.403-1.39.55-2.099q.313-1.515.518-3.04a34 34 0 0 0 1.643-1.508q-.258 1.141-.483 2.29a85 85 0 0 0-.448 2.56 4.3 4.3 0 0 0-.112 2.215.086.086 0 0 0 .135.017 4.8 4.8 0 0 0 .557-2.271c.126-.826.264-1.65.394-2.476.147-.945.302-1.889.453-2.833.061-.064.126-.123.187-.188a9 9 0 0 1 1.06-.966c-.196.908-.355 1.826-.52 2.727-.143.776-.277 1.553-.414 2.33-.104.59-.409 1.581-.059 2.122a.1.1 0 0 0 .154.02 1.5 1.5 0 0 0 .436-.82.12.12 0 0 0 .13.01c.155-.102.304-.218.455-.33l.008.27a.122.122 0 0 0 .226.061 4.4 4.4 0 0 0 .532-.867l.021-.06.291-.228c.54-.418 1.097-.812 1.643-1.222a18 18 0 0 0 1.534-1.295 8 8 0 0 0 .677-.682c.035-.043.08-.083.111-.128l.042-.05a.7.7 0 0 0 .198-.088l.009-.01a53 53 0 0 0 2.107 3.344c-1.63.101-2.878 1.249-3.975 2.448-1.403 1.533-2.725 3.139-4.133 4.669a.07.07 0 0 0 .1.1c1.44-1.306 2.895-2.599 4.407-3.822a47 47 0 0 1 4.198-2.511c.783 1.129 1.594 2.245 2.405 3.365q-1.43 7.632-2.424 15.347l-3.055 3.771c1.001-5.394 1.622-10.87 2.329-16.308.014-.108-.176-.135-.192-.026-.843 5.5-1.783 11.012-2.315 16.553l-.01.013-11.581 14.296-3.287 4.056a14.5 14.5 0 0 0-1.347 1.824 5 5 0 0 0-.296.257 4.5 4.5 0 0 0-.603.777 3 3 0 0 0-.168.312c-15.366-4.47-30.868-8.456-46.247-12.878-8.165-2.348-16.296-4.821-24.34-7.556-8.085-2.749-16.006-6.098-24.312-8.143l-.327-.074c9.983-7.765 19.558-16.014 29.104-24.305q14.559-12.645 28.607-25.864Q350.617 34.9 364.186 21.37c4.46-4.446 8.79-9.03 13.298-13.425a19.15 19.15 0 0 1 6.986-4.812c2.988-1.006 6.217-.86 9.325-.875q20.145-.099 40.29-.201c6.501-.033 13.09-.213 19.473 1.231a72.6 72.6 0 0 1 17.25 6.827c5.463 2.837 10.83 5.852 16.332 8.617q8.577 4.308 17.392 8.12 8.704 3.765 17.607 7.047c4.981 1.833 10.395 3.754 11.282 9.716.446 3-.031 6.12-.26 9.118q-.376 4.93-.641 9.868-.537 10-.616 20.019-.154 19.849 1.49 39.658c-.55-1.826-1.111-3.648-1.668-5.473a.106.106 0 0 0-.203.056c.431 2.525.836 5.047 1.303 7.568a46 46 0 0 1 .926 6.908 11.8 11.8 0 0 1-1.282 6.189 10.34 10.34 0 0 1-3.843 3.763c-.108.064-.218.118-.327.177a14 14 0 0 1-1.402-.521 23 23 0 0 1-2.775-1.518c-1.81-1.115-3.582-2.29-5.387-3.412-.097-.06-.174.084-.087.149 1.762 1.308 3.516 2.635 5.385 3.79a36 36 0 0 0 2.715 1.5c.27.137.55.257.825.384a15.5 15.5 0 0 1-2.281.86 14.7 14.7 0 0 1-3.863-1.556 14 14 0 0 1-2.01-1.38c-.28-.238-.524-.524-.81-.753a4.3 4.3 0 0 0-.951-.463c-1.356-.635-2.685-1.325-4.051-1.94a35 35 0 0 1-4.176-2.173c-.047-.03-.087.043-.043.074a77 77 0 0 0 3.918 2.613c1.324.832 2.783 1.478 4.08 2.345a3.1 3.1 0 0 0 .916.5 11 11 0 0 1 1.064.328 15 15 0 0 1 2.128 1.184 16 16 0 0 0 2.963 1.44 30 30 0 0 1-8.6.503c-2.513-.144-5.018-.393-7.535-.447a73 73 0 0 0-7.71.265c-2.86.24-5.71.616-8.547 1.055M463.4 102.092a5.4 5.4 0 0 1 1.025-.586c.496 1.01.9 2.069 1.33 3.1.372.891.737 1.786 1.112 2.677l.127.302a17 17 0 0 0-1.46-.557q-.103-.306-.226-.608a27 27 0 0 0-.833-1.874 18 18 0 0 0-1.02-1.817c-.124-.191-.259-.374-.39-.559l.377-.29c-.032.053-.075.093-.106.148-.02.038.025.094.064.064m8.17 3.586c-.075-.285-.173-.567-.263-.847q-.292-.906-.629-1.796a25 25 0 0 0-.778-1.89 13 13 0 0 1 1.81.58 113 113 0 0 1 1.843 6.248c.556 2.12.952 4.302 1.623 6.388.017.052.105.046.1-.013a32.7 32.7 0 0 0-1.342-6.356q-.89-3.146-2.054-6.195a18.3 18.3 0 0 1 3.547 1.93 47.5 47.5 0 0 1 5.32 4.532 31.2 31.2 0 0 0 5.44 4.456 8 8 0 0 0 2.15.9q-.207.03-.411.065a39.6 39.6 0 0 0-6.867 2.113 12.2 12.2 0 0 0-2.972 1.44 5.7 5.7 0 0 0-.858.807c-.038-.092-.082-.18-.116-.276a.035.035 0 0 0-.069.009c-.006.141-.028.278-.046.417-.09-.09-.181-.178-.264-.272a22 22 0 0 1-1.049-1.273c-.635-.846-1.188-1.746-1.758-2.636q-.382-.597-.782-1.172c-.096-.46-.214-.917-.31-1.367l-.576-2.701c-.022-.103-.18-.06-.158.044l.543 2.656c.062.302.117.611.174.921a16.3 16.3 0 0 0-2.225-2.536 35.5 35.5 0 0 0-1.586-5.423 25 25 0 0 0-1.312-3.083 4.4 4.4 0 0 0 1.689-.208c.25.706.535 1.404.778 2.103q.3.868.565 1.747c.086.283.16.57.247.852a2.8 2.8 0 0 0 .452.68.06.06 0 0 0 .11-.03 2.5 2.5 0 0 0 .035-.814m13.887-10.884a30 30 0 0 1-.747-2.83c.094.272.188.544.3.807a32 32 0 0 1 .863 3.2c-.144-.39-.29-.78-.416-1.177m.73 6.114-.363-.115c-.076-.12-.14-.232-.184-.303a27 27 0 0 1-1.263-2.342 8 8 0 0 0 .06-.94 28 28 0 0 0 1.751 3.7m-1.916-18.462c.272-.188.526-.403.798-.588l.063-.04.26.71a6 6 0 0 0-1.121-.082m1.886 22.292q.739 1.76 1.363 3.566c.393 1.148.71 2.32 1.106 3.465q-.113-.033-.225-.07a6.5 6.5 0 0 1-.815-.339 18.2 18.2 0 0 0-1.512-3.83 39 39 0 0 0-1.93-3.379q1.013.272 2.013.587m5.38 2.04c-.003 1.7-.49 3.471-.467 5.177-.302.01-.603.037-.905.05a4 4 0 0 1-1.036-.104 20 20 0 0 0-1.155-3.81 33 33 0 0 0-1.51-3.251 47 47 0 0 1 5.073 1.937m-3.467-8.218c.29.783.56 1.575.799 2.376a.77.77 0 0 0-.289.552c-.14-.22-.247-.404-.297-.488a13 13 0 0 0-.085-1.361c-.033-.36-.084-.719-.128-1.079m1.555-6.75a30 30 0 0 0-.466-1.489c-.042-.118-.092-.234-.134-.352.122.078.258.138.385.21.086.22.176.439.247.657l.022.082a7 7 0 0 0-.055.86zm-4.004 15.892c.501 1.104.921 2.272 1.447 3.374a18 18 0 0 1-1.612-1.073 20.7 20.7 0 0 0-1.542-3.68 27 27 0 0 0-1.55-2.627c.48.11.955.242 1.432.366a51 51 0 0 1 1.825 3.64m-3.216-9.255c-.19.663-.499 1.046-1.052.413a5 5 0 0 1-.368-.489 8.6 8.6 0 0 0 .413-2.606c.302.865.653 1.712 1.032 2.547-.011.045-.013.091-.026.135m-.6 5.127q.794 1.48 1.531 2.988c.45.923.856 1.872 1.286 2.807-.55-.418-1.097-.84-1.63-1.28l-.147-.365a22 22 0 0 0-1.18-2.448q-.571-1.025-1.213-2c.454.086.902.2 1.353.298m-.815 2.096q.317.637.63 1.275l-1.488-1.266a17 17 0 0 0-1.846-2.764c.47.066.937.143 1.404.223.442.84.881 1.681 1.3 2.532m-1.952-.906c-.895-.734-1.806-1.446-2.756-2.088.45.044.9.103 1.349.16.2.27.406.538.6.812.265.375.54.743.806 1.116m-10.775.212c.478 1.385.935 2.764 1.443 4.127l-.02-.016a13 13 0 0 0-1.873-1.128c-.136-.343-.283-.68-.422-1.002q-.595-1.375-1.2-2.745a20 20 0 0 0-1.46-2.836 7.6 7.6 0 0 1 1.796-.44 39 39 0 0 1 1.736 4.04m-4.455-.118q.423.938.806 1.892l.002.003a18 18 0 0 0-1.305-.309c-.184-.034-.372-.061-.56-.09-.084-.193-.165-.388-.26-.578a17 17 0 0 0-1.015-1.788c-.077-.116-.164-.224-.243-.339q.7-.604 1.436-1.176l.022-.017c.39.797.759 1.606 1.117 2.402m-2.407.293c.18.363.343.733.508 1.103a12.4 12.4 0 0 0-1.824-.035.4.4 0 0 0-.002-.101 4 4 0 0 0-.177-.478c-.071-.187-.154-.37-.234-.555.37-.369.76-.72 1.152-1.069q.292.566.577 1.135M391.47 77.419a1.92 1.92 0 0 0-1.23.676 5.9 5.9 0 0 0 .704-1.695q.256.513.526 1.019m-2.356-1.964q-.028.49-.013.978c-.04.281-.067.564-.13.842a11 11 0 0 1-.39 1.329 7 7 0 0 1-.184.44q-.059-.225-.115-.45a15.5 15.5 0 0 0 .254-3.01c.19-.046.385-.086.578-.13m-1.148.303c-.221 1.015-.366 2.05-.572 3.068-.135.67-.287 1.336-.445 2-.085.359-.181.716-.236 1.08-.006.034-.003.068-.006.101q-.28.323-.537.658c.062-.363.09-.733.132-1.008.118-.782.245-1.563.353-2.346.143-1.023.306-2.06.41-3.098a5.7 5.7 0 0 1 .902-.455m114.865 69.299a82 82 0 0 1 1.788-.078 2 2 0 0 0 .18.222c.014.014.035-.007.021-.023a2 2 0 0 1-.14-.201l.317-.014q.726.49 1.492.923a79 79 0 0 0-3.658-.83m5.054 1.186c-.804-.43-1.605-.869-2.414-1.291.705-.017 1.41-.027 2.116-.02.503.004 1.006.023 1.508.042 1.253.756 2.504 1.513 3.77 2.247l1.207.705c-2.072-.562-4.136-1.147-6.187-1.683m8.232 2.225c-.982-.594-2.014-1.12-3.02-1.645-1.197-.626-2.406-1.23-3.614-1.838 1.37.06 2.74.157 4.11.254q1.717 1.044 3.416 2.12a162 162 0 0 1 2.988 1.955l.18.123a97 97 0 0 1-4.06-.969m5.193 1.2c-1.287-.942-2.676-1.78-4-2.598a64 64 0 0 0-3.093-1.789q.637.046 1.276.087 1.135.067 2.277.091c1.126.775 2.258 1.541 3.369 2.336q1.345.961 2.684 1.933.303.221.608.447a54 54 0 0 1-3.12-.508m4.102.637c-.382-.31-.776-.606-1.164-.898a64 64 0 0 0-2.776-1.978 79 79 0 0 0-3.069-1.96q1.081.006 2.158-.052c1.181.882 2.367 1.759 3.57 2.613q1.328.943 2.657 1.884c.254.18.51.372.766.566a39 39 0 0 1-2.142-.175m2.986.215c-.413-.28-.835-.55-1.23-.826l-2.758-1.928a178 178 0 0 0-3.487-2.367q1.147-.072 2.278-.242 2.01 1.258 3.946 2.628c1.224.866 2.38 1.826 3.576 2.727q-1.162.045-2.325.008m2.741-.026a40 40 0 0 0-3.793-2.881 57 57 0 0 0-3.937-2.49 20 20 0 0 0 2.716-.626c1.202.957 2.402 1.917 3.615 2.86l2.136 1.66c.516.4 1.036.873 1.596 1.245-.777.106-1.555.19-2.333.232M547.798 51.4a42.7 42.7 0 0 0-1.886 9.462c-.177 3.528-.096 7.08-.099 10.612q-.019 21.46.684 42.913.35 10.724.88 21.441a21.5 21.5 0 0 1-.022 5.084 7 7 0 0 1-.664 1.885 7.3 7.3 0 0 0-1.38-.546c-.542-.193-1.132-.227-1.682-.413a76 76 0 0 1-3.26-1.207c-.052-.02-.091.07-.038.093 1.06.462 2.12.934 3.159 1.445.52.255.96.648 1.48.893a10 10 0 0 0 1.226.56 9 9 0 0 1-.78 1.001c-.133.147-.277.284-.416.425a12.4 12.4 0 0 0-3.275-1.246 21 21 0 0 1-2.603-.944c-.88-.394-1.684-.941-2.56-1.332-.382-.17-.865.308-.488.632a13.8 13.8 0 0 0 4.672 2.272c.788.253 1.6.42 2.406.602a8.3 8.3 0 0 1 1.433.423 15 15 0 0 1-1.166.972 5.8 5.8 0 0 1-1.356-.54 2.5 2.5 0 0 0-1.188-.255 4 4 0 0 0-.649.176 2.2 2.2 0 0 1-.983-.01 24.7 24.7 0 0 1-6.874-2.257c-.04-.02-.075.038-.036.061a35 35 0 0 0 3.54 1.8 18.3 18.3 0 0 0 3.56 1.3 5.7 5.7 0 0 0 1.512-.112c.562-.025 1.067.29 1.652.232.114-.011.23-.03.344-.044a18.7 18.7 0 0 1-4.321 2.232 25 25 0 0 1-4.803 1.197 19 19 0 0 0-1.716-1.343l-2.219-1.69c-1.2-.916-2.412-1.814-3.623-2.714a16.5 16.5 0 0 0 2.802-1.158 13.1 13.1 0 0 0 4.095-3.366 4.1 4.1 0 0 0 2.156 1.243.46.46 0 0 0 .476-.162.47.47 0 0 0 .035-.502c-.238-.56-.471-1.124-.714-1.682q-.176-.405-.354-.808c-.054-.123-.103-.253-.165-.373a10.26 10.26 0 0 0 1.001-4.489c-.003-.437-.041-.866-.071-1.298a.26.26 0 0 0 .058-.14c.057-6.857-.582-13.629-.976-20.468q-.591-10.252-.701-20.524c-.078-7.233.072-14.462.372-21.687a87 87 0 0 0 1.797 4.161 49 49 0 0 0 3.066 5.835.04.04 0 0 0 .067-.04c-.888-1.972-1.932-3.871-2.87-5.82q-1.055-2.19-2.048-4.41c.05-1.18.093-2.36.151-3.539a91 91 0 0 0 4.251 9.375c.02.038.089.012.072-.03-1.36-3.322-2.868-6.58-4.296-9.873.06-1.196.11-2.394.18-3.59.207.62.423 1.237.664 1.851a51 51 0 0 0 2.216 4.759c.036.07.158.02.128-.054-.638-1.64-1.24-3.293-1.896-4.926-.342-.854-.701-1.701-1.06-2.548.064-1.078.114-2.156.185-3.232a50 50 0 0 0 1.398 3.596c.025.056.12.016.1-.043-.47-1.425-.924-2.871-1.45-4.283.074-1.098.13-2.196.212-3.293.692 1.57 1.412 3.126 2.222 4.642a.063.063 0 0 0 .115-.048 27.5 27.5 0 0 0-2.28-5.355c.05-.658.096-1.317.15-1.975q.068-.853.112-1.707a103 103 0 0 0 1.95 4.695q.612 1.364 1.242 2.72a13.5 13.5 0 0 0 1.394 2.662c.06.076.17-.008.15-.087a14 14 0 0 0-1.113-2.58q-.663-1.398-1.308-2.806c-.759-1.658-1.531-3.31-2.296-4.964.2-4.662-.397-9.213-4.482-12.268a26.1 26.1 0 0 0-6.703-3.29q-2.513-.93-5.02-1.875c2.363.58 4.723 1.17 7.088 1.738l10.346 2.485a29.5 29.5 0 0 1 7.203 2.444 9.02 9.02 0 0 1 4.695 5.388c.79 2.852-.033 5.878-.807 8.64"/><path fill="currentColor" d="M198.912 250.386c-3.468-2.183-6.948-4.353-10.209-6.842a82 82 0 0 1-9.31-8.259c-.08-.084-.205.042-.127.127a74 74 0 0 0 9.151 8.503 55 55 0 0 0 10.424 6.592.07.07 0 0 0 .071-.121m4.732-.262c-1.697-1.15-3.598-1.99-5.367-3.023a66 66 0 0 1-5.18-3.34 66.5 66.5 0 0 1-9.466-8.105c-.066-.07-.168.034-.105.105a57 57 0 0 0 14.385 11.967 24 24 0 0 0 5.615 2.674.153.153 0 0 0 .118-.278m1.714-3.259c-.897-.363-1.827-.62-2.731-.965a28 28 0 0 1-5.206-2.792 47.7 47.7 0 0 1-8.553-7.089c-.052-.055-.133.027-.083.083a37.9 37.9 0 0 0 8.367 7.029c1.655 1.01 3.398 1.852 5.077 2.818.845.486 1.636 1.058 2.495 1.519q.621.33 1.26.618c.369.168.742.39 1.14.226a.235.235 0 0 0 .161-.283c-.23-.683-1.312-.916-1.927-1.164m6.57-.98a16 16 0 0 0-2.119-.755q-1.107-.393-2.193-.843a46 46 0 0 1-4.323-2.076 57.5 57.5 0 0 1-8.074-5.129c-.046-.036-.11.024-.066.067a44 44 0 0 0 3.57 3.147 35 35 0 0 0 4.12 2.685 45 45 0 0 0 4.42 2.143q1.04.439 2.099.828a10.8 10.8 0 0 0 2.353.72l-.003-.02c.382-.022.633-.549.216-.767m3.908-2.795c-.736-.216-1.479-.365-2.226-.534a18.7 18.7 0 0 1-4.342-1.598c-1.322-.677-2.632-1.369-3.97-2.015-1.377-.666-2.81-1.237-4.16-1.95a.05.05 0 0 0-.052.087c1.174.802 2.294 1.638 3.537 2.338a24 24 0 0 0 3.825 1.733c1.382.484 2.773.976 4.117 1.559.62.269 1.226.57 1.849.835q.472.2.96.358c.146.046.292.088.438.135a1.5 1.5 0 0 1 .273.09.2.2 0 0 0 .027.047.42.42 0 0 0 .542.055.39.39 0 0 0 .191-.334c-.025-.58-.535-.666-1.01-.806m2.576-2.876c-1.103-.398-2.177-.875-3.259-1.327a147 147 0 0 0-6.658-2.6.04.04 0 0 0-.03.072 147 147 0 0 0 6.486 3.008c1.074.469 2.163.914 3.214 1.435.506.25 1.004.516 1.52.745a1.33 1.33 0 0 0 1.175.152.145.145 0 0 0 .067-.163c-.267-.817-1.805-1.065-2.515-1.322m6.034-1.239a3.05 3.05 0 0 0-1.624-.88c-.715-.25-1.428-.513-2.152-.74-1.42-.444-2.852-.852-4.282-1.265-.041-.012-.071.054-.03.072 1.33.588 2.656 1.182 3.998 1.741.679.283 1.369.536 2.056.796a3.4 3.4 0 0 0 1.969.437.11.11 0 0 0 .065-.161m3.455-3.046a1.5 1.5 0 0 0-.408-.148 6 6 0 0 0-.38-.1c-.278-.061-.555-.123-.836-.171a98 98 0 0 1-1.681-.307.055.055 0 0 0-.03.106 97 97 0 0 1 1.624.515c.27.09.543.165.817.24q.19.052.383.09a1.5 1.5 0 0 0 .433.064.157.157 0 0 0 .078-.29m4.087-2.216a6.3 6.3 0 0 0-1.54-.269c-.04-.004-.047.06-.01.07a6.3 6.3 0 0 0 1.54.275.04.04 0 0 0 .01-.076m5.117-1.508c-.103.008-.2.033-.301.05a1 1 0 0 0-.163.018c-.065.011-.13.015-.194.023a2 2 0 0 1-.356.011 1.6 1.6 0 0 1-.705-.218c-.133-.078-.238.115-.119.202a1.93 1.93 0 0 0 .95.35 1.5 1.5 0 0 0 .502-.033.9.9 0 0 0 .447-.256c.044-.051.019-.153-.061-.147m-24.479-44.19c-1.982-1.708-4.175-3.183-6.297-4.71-2.173-1.564-4.38-3.096-6.515-4.712-.07-.054-.163.066-.094.122 2.03 1.667 4.035 3.348 6.135 4.928a52 52 0 0 0 6.671 4.501c.079.042.173-.065.1-.129m-5.089-.798a40 40 0 0 0-3.53-2.528l-3.723-2.452c-.047-.031-.088.042-.043.074l3.567 2.575a40 40 0 0 0 3.653 2.43c.06.033.132-.052.076-.099m-51.407 13.649a207 207 0 0 1-.454-12.794.035.035 0 0 0-.07 0 129 129 0 0 0 .096 12.916 89 89 0 0 0 1.453 12.626c.016.076.145.06.138-.019-.36-4.246-.878-8.476-1.163-12.73m2.759 7.207c-.205-1.55-.381-3.102-.548-4.655q-.494-4.601-.72-9.225c-.002-.045-.072-.045-.07 0q.165 4.681.598 9.347c.142 1.514.319 3.025.512 4.533a38 38 0 0 0 .718 4.53c.014.054.104.044.1-.014-.1-1.512-.39-3.015-.59-4.516m1.512-6.757c-.01-.073-.14-.057-.13.018.514 4.001.83 8.041 1.477 12.023.007.044.078.033.076-.01a111 111 0 0 0-1.423-12.03m3.451 8.827-.518-2.168c-.013-.054-.095-.031-.083.023l.483 2.177c.16.72.306 1.462.534 2.164a.027.027 0 0 0 .052-.015c-.102-.731-.296-1.464-.468-2.181m97.442 22.088c-.653 2.167-1.424 4.292-2.131 6.442-.01.03.034.04.045.013a62 62 0 0 0 2.124-6.445.02.02 0 0 0-.038-.01m-1.706-.744c-1.717 3.82-3.549 7.614-5.063 11.521-.016.041.052.07.072.03 1.86-3.75 3.42-7.658 5.079-11.5.025-.059-.061-.11-.088-.05m-4.611 4.848c-1.398 2.612-2.898 5.198-4.101 7.908-.026.058.053.108.088.051 1.537-2.534 2.802-5.241 4.148-7.88.045-.09-.087-.168-.135-.08m-24.278 16.076a36 36 0 0 1-1.456 3.651 12.4 12.4 0 0 0-1.368 3.428c-.014.124.15.161.227.094a7.6 7.6 0 0 0 1.734-3.342 36 36 0 0 0 1.006-3.79.074.074 0 0 0-.143-.04m-2.583 1.005a255 255 0 0 0-1.526 3.191 9.2 9.2 0 0 0-1.098 3.21.103.103 0 0 0 .173.071 9.2 9.2 0 0 0 1.415-3.074c.374-1.121.735-2.247 1.093-3.374.011-.033-.041-.056-.057-.024m-3.253 3.347c-.259.565-.577 1.099-.864 1.65-.138.264-.289.526-.408.8a4 4 0 0 0-.177.413.85.85 0 0 0-.048.454.13.13 0 0 0 .19.077.8.8 0 0 0 .275-.32 3 3 0 0 0 .197-.442c.116-.275.202-.563.299-.845.202-.586.37-1.183.6-1.76.015-.036-.047-.063-.064-.027m28.573-135.356a56.8 56.8 0 0 0-13.559-5.036.04.04 0 0 0-.02.075 95.4 95.4 0 0 1 13.532 5.042c.054.024.101-.051.047-.081m.069-1.682a25 25 0 0 0-8.508-2.436c-.043-.005-.053.069-.01.077a48 48 0 0 1 8.47 2.474c.066.025.111-.082.048-.115m137.083-25.607c-.733 4.317-1.518 8.653-1.846 13.023a.043.043 0 0 0 .085.011c.889-4.29 1.33-8.675 1.814-13.027.004-.03-.048-.037-.053-.007m-2.787 5.83c-.28 1.39-.57 2.78-.833 4.174-.255 1.35-.54 2.695-.673 4.063-.006.058.085.068.1.014.37-1.343.585-2.72.833-4.09.248-1.373.47-2.75.701-4.126.014-.083-.11-.12-.128-.035m-3.338 4.625c-.152 1.812-.54 3.575-.87 5.359a.047.047 0 0 0 .09.025 20 20 0 0 0 .928-5.384c.006-.096-.14-.094-.148 0m16.908-28.37c-.74 2.56-1.507 5.114-2.156 7.7a.035.035 0 0 0 .068.019c.816-2.539 1.514-5.112 2.24-7.677a.078.078 0 0 0-.151-.042m.725-9.881a83 83 0 0 0-5.068 15.501.035.035 0 0 0 .068.02c1.535-5.232 3.036-10.436 5.075-15.5.019-.047-.056-.067-.075-.021m.024-6.888a96.8 96.8 0 0 0-6.99 19.362.047.047 0 0 0 .09.025 167 167 0 0 1 6.968-19.348c.02-.045-.046-.085-.068-.039m-1.374-3.872a86 86 0 0 0-7.966 19.646.055.055 0 0 0 .106.029c1.186-3.292 2.298-6.611 3.587-9.865 1.313-3.315 2.75-6.58 4.334-9.774.02-.04-.04-.076-.06-.036m-1.851-5.138a131 131 0 0 0-7.443 18.64c-.022.073.086.1.113.03 2.385-6.25 4.65-12.525 7.397-18.63.02-.046-.045-.086-.067-.04m-.828-5.399a74.7 74.7 0 0 0-7.707 18.985.047.047 0 0 0 .09.025 97.6 97.6 0 0 1 7.752-18.932.078.078 0 0 0-.135-.078m-1.348-3.219a93 93 0 0 0-7.859 18.053c-.023.079.092.106.121.033a191 191 0 0 1 7.825-18.035c.03-.058-.056-.109-.088-.051m-.678-4.686c-1.478 2.644-2.877 5.342-4.122 8.104a62 62 0 0 0-3.224 8.28c-.012.042.053.072.071.03 1.189-2.742 2.218-5.55 3.433-8.282a128 128 0 0 1 3.916-8.089c.026-.048-.047-.091-.074-.043m-.968-3.544q-1.847 3.643-3.647 7.309-.874 1.778-1.736 3.562a25 25 0 0 0-1.635 3.634c-.015.049.052.071.079.033a25 25 0 0 0 1.817-3.515q.89-1.84 1.765-3.688 1.729-3.641 3.41-7.303c.017-.036-.035-.068-.053-.032m-2.566-.776a67 67 0 0 0-2.595 5.071q-.56 1.226-1.072 2.473a14.3 14.3 0 0 0-.927 2.689c-.011.062.074.107.108.045a22 22 0 0 0 1.027-2.48q.53-1.355 1.12-2.686 1.136-2.566 2.467-5.037c.045-.084-.081-.158-.128-.074m-1.492-1.509q-1.131 1.93-2.145 3.926a64 64 0 0 0-.981 2.01 8.3 8.3 0 0 0-.805 1.947.047.047 0 0 0 .086.036 5.6 5.6 0 0 0 .514-1.072q.211-.478.427-.954.442-.988.912-1.964.957-1.983 2.032-3.905a.023.023 0 0 0-.04-.024m-1.305-1.297a20 20 0 0 0-1.548 2.474 12 12 0 0 0-1.078 2.626c-.008.032.042.057.057.024.39-.873.73-1.767 1.156-2.624a20 20 0 0 1 1.46-2.472c.02-.03-.027-.056-.048-.028m-.997-1.522a10 10 0 0 0-1.108 1.58 7 7 0 0 0-.4.837 3 3 0 0 0-.277.932.047.047 0 0 0 .087.024 6 6 0 0 0 .336-.826q.191-.46.408-.91a10 10 0 0 1 .978-1.618c.01-.015-.013-.033-.024-.02"/></svg>