<svg xmlns="http://www.w3.org/2000/svg" data-name="seal" viewBox="0 0 408.255 323.862"><path fill="currentColor" d="M407.724 209.828c-.868-2.973-1.992-5.89-2.963-8.834q-1.492-4.521-2.9-9.067-5.522-17.82-10.016-35.933-1.267-5.108-2.4-10.244c-.275-1.24-.542-2.481-.82-3.72a38 38 0 0 0-.615-2.582c-.333-1.306-.68-2.609-.956-3.93a.03.03 0 0 0-.037-.02 37 37 0 0 0 .237-5.439 46.8 46.8 0 0 0-2.566-13.153 37 37 0 0 1-1.757-6.74c-.303-2.318-.258-4.661-.355-6.992a108 108 0 0 0-1.638-13.962c-1.651-9.505-3.804-18.938-5.785-28.383q-2.993-14.27-5.99-28.538-1.51-7.13-3.032-14.26c-1.021-4.744-1.956-9.518-3.162-14.224-.296-1.154-.546-2.315-.854-3.466-.028-.101-.174-.055-.16.042.693 4.768 1.653 9.5 2.58 14.231q1.39 7.088 2.801 14.173 2.822 14.164 5.691 28.32c1.894 9.4 3.863 18.788 5.686 28.2a141 141 0 0 1 2.142 14.234c.407 4.56.12 9.25 1.277 13.72.564 2.176 1.364 4.287 2.023 6.436a40.3 40.3 0 0 1 1.46 6.68 52 52 0 0 1-.221 13.265 31 31 0 0 1-.613 3.419.187.187 0 0 0 .36.095 38 38 0 0 0 1.716-6.411q.42 1.662.783 3.338l.01.076c.247 1.531.537 3.057.838 4.58a694 694 0 0 0 1.878 9.114c1.269 5.987 2.631 11.963 4.137 17.9 3.045 12.007 6.747 23.876 10.78 35.611a23.8 23.8 0 0 1 1.391 4.854 14.7 14.7 0 0 1-.546 4.986c-.398 1.731-.82 3.466-1.121 5.216-.05.29-.092.58-.139.87l-.001.003a13 13 0 0 0-.35-2.175 63 63 0 0 0-1.035-3.755 54 54 0 0 0-2.62-7.18c-.055-.115-.212-.024-.197.08.37 2.513.982 4.956 1.576 7.428.285 1.185.599 2.362.898 3.544a8.2 8.2 0 0 1 .303 3.612 10.7 10.7 0 0 1-1.38 3.04 42 42 0 0 0-1.586 3.115c-.464 1.02-.939 2.036-1.363 3.073a23 23 0 0 0-.648 1.74c-.188.597-.235 1.21-.365 1.82-.01.043.057.077.078.032.238-.507.567-.969.798-1.478.259-.568.493-1.145.746-1.715a43 43 0 0 1 .845-1.8 57 57 0 0 0-.585 2.721 59 59 0 0 0-.805 7.104 129 129 0 0 0-.005 14.616c.119 2.46.28 4.917.452 7.374.1 1.423.218 2.849.292 4.276-.065.128-.126.258-.202.38a4.4 4.4 0 0 1-.86 1.002c-.693.603-1.526 1.022-2.245 1.589a9 9 0 0 0-.78.942c-.31.322-.631.634-.943.955a8.2 8.2 0 0 0-1.631 1.967.096.096 0 0 0 .11.138 10.8 10.8 0 0 0 2.704-.86 9 9 0 0 0 1.213-.704q.27-.186.527-.39c.076-.06.533-.53.625-.5a.265.265 0 0 0 .286-.11 1.15 1.15 0 0 0 .207-.47c.014-.054-.04-.126-.105-.1a1.8 1.8 0 0 0-.5.275.23.23 0 0 0-.065.236c.073.182-.935.838-1.058.923a9 9 0 0 1-1.152.682 8.4 8.4 0 0 1-2.479.795 24 24 0 0 1 1.58-2.002 4.9 4.9 0 0 1 1.235-.99 5 5 0 0 0 .579-.242c.223-.145.427-.326.646-.478a10.5 10.5 0 0 0 2.174-1.755c.066-.08.12-.167.182-.25.022.679.031 1.357.015 2.036-.061 2.506-.529 4.976-.81 7.463a53 53 0 0 0-.314 7.481 55 55 0 0 0 .72 7.394c.241 1.468.488 2.913.636 4.37a1.3 1.3 0 0 1-.34.175 9 9 0 0 0-.916.295 2.26 2.26 0 0 0-.9.644c-.092.13-.174.265-.268.395a9 9 0 0 0-.309.443c-.029.045.032.11.08.076a5 5 0 0 1 .46-.297 2 2 0 0 1 .241-.123c.092-.035.188-.057.277-.099a4 4 0 0 0 .474-.308c.156-.105.318-.205.47-.315a6.4 6.4 0 0 0 .73-.614c.009-.009.014-.02.023-.03a20 20 0 0 1 .095 2.797 68 68 0 0 0-.253 7.422 26 26 0 0 0 .314 2.604c-.048-.016-.097-.039-.144-.053a3.18 3.18 0 0 0-1.945.052 4 4 0 0 0-.874.508 3.2 3.2 0 0 0-.742.708 2.06 2.06 0 0 0-.317.918 2.7 2.7 0 0 0-.037.942h.006a1.96 1.96 0 0 1 .151-.976 3.8 3.8 0 0 1 .545-.726 2.5 2.5 0 0 1 .676-.554 3.7 3.7 0 0 1 2.345-.204 2.3 2.3 0 0 1 .477.234c.238 1.286.523 2.563.785 3.86a11 11 0 0 1 .2 1.455 5.4 5.4 0 0 0-1.428.242 5.2 5.2 0 0 0-1.122.497 6 6 0 0 0-.49.33 1.5 1.5 0 0 1-.307.195l-.03.011a2.3 2.3 0 0 1-.52-.344 2.9 2.9 0 0 1-.528-.822c-.007-.016-.033-.005-.028.011a5 5 0 0 0 .356.85c.158.302.183.634.45.875a.34.34 0 0 0 .516-.064 1.14 1.14 0 0 1 .392-.47q.208-.139.43-.257a5.4 5.4 0 0 1 1.08-.427 5.7 5.7 0 0 1 1.103-.194c.045-.003.09 0 .136-.002a4.2 4.2 0 0 1-1.552 3.73c-1.747 1.213-4.123.301-5.46-1.036a14.65 14.65 0 0 1-3.045-5.675 51 51 0 0 1-1.814-6.987c-.947-4.82-1.689-9.68-2.533-14.518-.85-4.874-1.66-9.754-2.497-14.63l.46 1.006c.055.117.248.034.213-.085-.488-1.67-.764-3.394-1.115-5.095a160 160 0 0 1-.959-5.126c-.59-3.419-.986-6.863-1.413-10.304-.423-3.406-.874-6.816-1.59-10.179a54 54 0 0 0-1.322-5.05c-.526-1.66-1.167-3.285-1.705-4.942a19.5 19.5 0 0 1-1.171-5.53 11.1 11.1 0 0 1 1.338-5.269.088.088 0 0 0-.14-.103 6.44 6.44 0 0 0-1.724 3 10 10 0 0 1 .16-.991 19.7 19.7 0 0 1 1.91-4.815c.007-.014-.012-.024-.021-.012a13.4 13.4 0 0 0-2.546 4.924 9.3 9.3 0 0 0-.26 2.674 8 8 0 0 0 .189 1.29 1.7 1.7 0 0 0 .191.47c.01.239.017.477.036.71-2.15-4.36-4.89-8.434-6.387-13.075-.773-2.4-1.356-4.84-2.332-7.176-.975-2.333-2.056-4.626-3.046-6.954-.569-1.34-1.24-2.631-1.748-3.994-.252-.678-.492-1.36-.774-2.028-.299-.705-.68-1.389-.932-2.11-.021-.06-.12-.035-.1.027.376 1.263.547 2.577.931 3.846.166.548.311 1.102.457 1.654a33 33 0 0 1-2.09-3.933 651 651 0 0 0-3.953-8.548l-3.99-8.51a41 41 0 0 1-3.156-8.39 56.3 56.3 0 0 1-.72-17.785 66 66 0 0 1 1.524-8.878c.674-2.778 1.87-5.56 1.786-8.45-.099-3.375-1.3-6.575-2.25-9.795-.259-.875-.513-1.762-.795-2.64 1.459 2.227 2.871 4.48 4.146 6.814.514.942 1.04 1.876 1.525 2.834.04.079.179.023.149-.06-2.92-8.222-8.337-15.347-12.797-22.83a128 128 0 0 1-6.362-12.598c-1.99-4.366-4.069-8.68-6.34-12.921-4.647-8.68-9.523-17.251-14.303-25.864-4.811-8.67-9.547-17.384-14.492-25.985-4.964-8.634-9.68-17.408-14.907-25.902q-.958-1.557-1.897-3.125a.028.028 0 0 0-.05.027c2.277 4.41 4.457 8.86 6.836 13.222 2.374 4.354 4.775 8.695 7.113 13.067 4.676 8.742 9.512 17.404 14.323 26.079 4.792 8.64 9.62 17.264 14.368 25.926 2.323 4.237 4.564 8.511 6.592 12.885 1.994 4.3 3.865 8.658 6.128 12.838 2.204 4.07 4.813 7.904 7.407 11.747l.41.985-.01.05a.06.06 0 0 0 .056.061l.017.04c.257.609.505 1.22.769 1.823.146.686.292 1.369.466 2.05.376 1.473.768 2.94 1.159 4.408.73 2.74 1.81 5.645 1.445 8.503a29.5 29.5 0 0 1-1.045 4.198q-.598 2.125-1.062 4.282a68 68 0 0 0-1.255 8.513 58 58 0 0 0 .847 17.167 38.4 38.4 0 0 0 2.898 7.993q1.93 4.128 3.874 8.25c1.455 3.097 2.905 6.194 4.41 9.269.97 1.984 1.955 4.104 3.836 5.36a72 72 0 0 0 2.954 7.095 68 68 0 0 1 2.429 7.262 34 34 0 0 0 3.011 6.863 42 42 0 0 0 4.842 6.78.1.1 0 0 0 .112.028q.061.574.152 1.114a33 33 0 0 0 1.499 5.24 58 58 0 0 1 1.574 5.263c1.69 6.95 2.11 14.093 3.239 21.13a53 53 0 0 0 1.238 5.752c.091.329.21.646.318.967.331 3.806.813 7.581.907 11.406.096 3.936 0 7.873-.026 11.81a106 106 0 0 0 .427 11.514 54 54 0 0 0 .873 5.73 11.9 11.9 0 0 0 1.625 4.537 4.1 4.1 0 0 0 3.964 1.834 3.04 3.04 0 0 0 2.002-1.037 7.07 7.07 0 0 0 3.5 2.338 4.975 4.975 0 0 0 5.35-1.581c1.361-1.773 1.286-4.061.87-6.119-.254-1.253-.6-2.485-.822-3.745a29 29 0 0 1-.414-3.933c-.1-2.567.287-5.105.313-7.667a47 47 0 0 0-.948-7.51 54.7 54.7 0 0 1-.028-15.509q.168-1.238.307-2.47l.078 1.01a.123.123 0 0 0 .245 0c.18-1.8.395-3.6.72-5.381.309-1.687.947-3.282 1.304-4.955a21.5 21.5 0 0 0 .19-5.26q-.09-2.711-.118-5.424c-.075-7.243.27-14.46.768-21.684l.418-6.139.032-.448c.856-2.685 1.772-5.34 2.495-8.068a30 30 0 0 0 .972-4.541 11.4 11.4 0 0 0-.482-4.4m-16.052 110.918a2.54 2.54 0 0 1-1.633.315c-1.377-.187-2.18-1.544-2.604-2.682a27.3 27.3 0 0 1-1.116-4.585 58 58 0 0 1-.726-5.41c-.541-6.07-.346-12.166-.492-18.25l.07.468q1.228 7.633 2.57 15.25c.81 4.654 1.69 9.605 4.07 13.802q.2.351.426.691a5 5 0 0 1-.565.401m11.645-89.779c-.466 3.673-.694 7.378-.871 11.072q-.267 5.544-.268 11.096 0 2.836.069 5.672a54 54 0 0 1 .074 5.405 36 36 0 0 1-.989 4.769c-.103-2.212-.3-4.42-.448-6.63-.337-5.07-.588-10.15-.493-15.233a94 94 0 0 1 .42-7.449c.246-2.483.503-5.005.942-7.464q.208-1.152.409-2.3.627-1.01 1.258-2.019.226-.364.436-.744-.297 1.91-.54 3.825"/><path fill="currentColor" d="M397.508 203.418a11 11 0 0 1-.417-1.594 2.9 2.9 0 0 0-.23-1.168 11 11 0 0 1-.765-1.48c-.178-.493-.321-.998-.47-1.5-.293-.986-.571-1.976-.851-2.965-1.226-4.327-2.569-8.619-3.852-12.93a.04.04 0 0 0-.076.02c1.111 4.442 2.162 8.895 3.333 13.322.261.987.52 1.974.796 2.957.142.504.298 1.004.423 1.512.128.517.11 1.048.23 1.561a5.5 5.5 0 0 0 .756 1.29c.248.462.487.909.768 1.354.561.89 1.002 1.83 1.625 2.687a.027.027 0 0 0 .048-.026 17 17 0 0 1-1.318-3.04m-5.91-9.199a19 19 0 0 0-.617-2.904 52 52 0 0 1-1.683-5.57c-.005-.018-.033-.01-.03.008.362 1.933.787 3.853 1.092 5.795a14 14 0 0 0 .924 2.64c.341.93.631 1.878.965 2.812.012.035.069.021.059-.016-.241-.92-.509-1.836-.71-2.765m-7.024-59.27c.002-.876-.04-1.754-.07-2.629a.034.034 0 0 0-.067 0c-.177 1.689-.532 3.367-.67 5.058-.034.408.188.745.156 1.163a10 10 0 0 1-.27 1.507 5.1 5.1 0 0 0-.27 2.192.113.113 0 0 0 .202.025 4.6 4.6 0 0 0 .386-2.176c.018-.452.032-.904.09-1.354a2.15 2.15 0 0 1 .305-.919 1 1 0 0 0 .117-.341 17.4 17.4 0 0 0 .09-2.526m-2.027-.913c-.162 1.051-.373 2.095-.563 3.142q-.138.763-.226 1.533a10.4 10.4 0 0 0-.022 1.592.068.068 0 0 0 .132.018 9.3 9.3 0 0 0 .414-1.542q.12-.766.174-1.54c.074-1.064.103-2.13.163-3.194.003-.039-.066-.049-.072-.01m-1.29.507a25 25 0 0 0-.757 4.605.05.05 0 0 0 .096.012 25 25 0 0 0 .758-4.604c.006-.053-.086-.064-.097-.013m-1.649-.314c-.2 1-.396 1.996-.524 3.008-.003.023.037.027.042.005.228-.993.387-1.992.541-2.998.006-.036-.051-.053-.059-.015M289.91 11.427c-.002-.02-.037-.03-.042-.005a13 13 0 0 0-.176 2.383 24 24 0 0 0 .125 2.474.05.05 0 0 0 .098 0c.056-.809.082-1.616.093-2.426a17 17 0 0 0-.098-2.426m2.153-.893a.015.015 0 0 0-.031 0c-.152 1.3-.209 2.596-.23 3.904-.011.65-.03 1.303-.013 1.953a8 8 0 0 0 .142 1.808.022.022 0 0 0 .042 0 9 9 0 0 0 .111-1.808c.014-.65.001-1.302.006-1.953.01-1.303.022-2.602-.027-3.904m.021 10.593-.039-.488-.078-.977c-.003-.045-.074-.046-.073 0l.032.995.016.489a1 1 0 0 0 .062.451.041.041 0 0 0 .073-.009 1 1 0 0 0 .007-.46m1.969-2.457c-.022-2.33-.043-4.66-.009-6.99 0-.03-.046-.03-.049 0-.183 2.37-.3 4.737-.29 7.113a49 49 0 0 0 .367 6.875c.006.044.077.032.078-.01.067-2.328-.075-4.66-.097-6.988m2.172-4.434c-.002-.045-.074-.046-.074 0 .007 4.772-.118 9.604.328 14.361a.05.05 0 0 0 .098 0c.221-4.771-.133-9.593-.352-14.361m2.61 14.231a15.4 15.4 0 0 1 .063-4.086 12.2 12.2 0 0 0-.058-3.324c-.083-1.319-.221-2.633-.325-3.95-.002-.027-.043-.027-.043 0 .01 1.317-.034 2.633-.047 3.95a13.4 13.4 0 0 0 .068 3.324 13.7 13.7 0 0 1 .096 4.086c-.036.66-.08 1.318-.108 1.977a4.8 4.8 0 0 0 .094 1.752.094.094 0 0 0 .177 0 4.6 4.6 0 0 0 .154-1.752c-.011-.66-.042-1.318-.071-1.977m2.205 4.814c-.038-1.2-.063-2.401-.1-3.602-.073-2.36-.147-4.72-.204-7.082a.022.022 0 0 0-.043 0c-.069 2.36-.116 4.72-.12 7.082-.003 1.16.016 2.32.032 3.478a10.5 10.5 0 0 0 .254 3.368.056.056 0 0 0 .106 0 10.5 10.5 0 0 0 .076-3.244m1.469-5.26c-.002-.015-.026-.015-.025 0 .125 3.787.199 7.578.377 11.363a.028.028 0 0 0 .055 0c.026-3.787-.163-7.584-.408-11.363m2.638 12.883a3.5 3.5 0 0 1 .163-.932 5.8 5.8 0 0 0-.006-1.425 378 378 0 0 0-.342-6.822.015.015 0 0 0-.03 0c-.04 2.274-.088 4.547-.115 6.822a6 6 0 0 0 .03 1.425 3.6 3.6 0 0 1 .186.932c.002.248-.005.496-.012.744a15.4 15.4 0 0 0-.003 3.254.116.116 0 0 0 .218 0 15 15 0 0 0-.061-3.254q-.021-.372-.029-.744m2.597 2.265c-.049-1.985-.111-3.968-.114-5.954 0-.057-.089-.056-.092 0-.122 1.983-.246 3.969-.294 5.954a19.9 19.9 0 0 0 .268 5.743.072.072 0 0 0 .136 0 24.6 24.6 0 0 0 .096-5.743m1.837 1.003a.04.04 0 0 0-.08 0 67 67 0 0 0-.172 8.745.052.052 0 0 0 .105 0 67 67 0 0 0 .147-8.745m2.302 3.062c0-.065-.099-.064-.104 0a44 44 0 0 0-.33 4.849c.01.377.097.738.079 1.119-.02.435-.08.872-.12 1.305l-.103 1.12a3.1 3.1 0 0 0-.008 1.143.1.1 0 0 0 .19 0 3.1 3.1 0 0 0 .095-1.144v-1.119c0-.404-.007-.808 0-1.212.008-.418.14-.802.184-1.212.172-1.599.098-3.244.117-4.85m2.142 3.896c0-.027-.04-.026-.043 0q-.249 2.355-.363 4.716a71 71 0 0 0-.065 2.36 8.3 8.3 0 0 0 .127 2.195.063.063 0 0 0 .118 0 9.6 9.6 0 0 0 .116-2.195c-.001-.787.01-1.573.016-2.36q.017-2.358.094-4.716m1.691 6.385c.001-.015-.023-.014-.024 0a29.3 29.3 0 0 0-.104 6.125c.003.03.05.031.05 0-.017-2.044-.072-4.082.078-6.125m1.438 4.338a.018.018 0 0 0-.037 0c-.062 1.446-.17 2.894-.096 4.34a.034.034 0 0 0 .068 0c.128-1.443.074-2.893.065-4.34m3.097 3.753q.071-2.261.257-4.518c.002-.026-.04-.026-.043 0q-.25 2.255-.39 4.518c-.045.757-.047 1.507-.054 2.264-.003.348-.004.697-.027 1.045a2.3 2.3 0 0 0 .027 1.057.05.05 0 0 0 .095 0 2.4 2.4 0 0 0 .034-1.057c-.015-.348-.006-.697.004-1.045.023-.755.073-1.509.097-2.264m2.263-.561c-.058 1.49-.118 2.978-.153 4.468a42 42 0 0 0-.003 4.468.043.043 0 0 0 .086 0 42 42 0 0 0 .16-4.468c.018-1.49.013-2.978.008-4.468a.05.05 0 0 0-.098 0m1.811 5.617a54 54 0 0 0-.14 7.596.03.03 0 0 0 .062 0c.136-2.527.037-5.066.12-7.596.002-.027-.04-.026-.042 0m1.756 5.235c-.1 1.34-.19 2.677-.216 4.02 0 .031.046.03.049 0 .12-1.339.175-2.677.222-4.02.001-.034-.053-.033-.055 0m2.5-.127c-.156 1.684-.365 3.362-.541 5.044a33 33 0 0 0-.306 5.037.056.056 0 0 0 .108.014 26.3 26.3 0 0 0 .638-4.952c.11-1.713.154-3.429.218-5.143.003-.073-.11-.07-.116 0m1.999 4.342q-.248 2.103-.455 4.21a28.4 28.4 0 0 0-.213 4.209c.002.053.09.07.102.013a28 28 0 0 0 .42-4.14q.111-2.145.183-4.292c.001-.023-.034-.022-.036 0m1.664 4.978a58 58 0 0 0-.417 6.89c0 .047.068.044.074 0a58 58 0 0 0 .368-6.89c0-.016-.023-.015-.025 0m1.516 5.614a31 31 0 0 0-.37 4.085c0 .027.04.026.043 0 .134-1.36.206-2.723.351-4.082.001-.013-.022-.016-.024-.003m1.141 4.276-.048.766c-.016.255-.04.512-.045.767 0 .016.023.015.025 0 .029-.254.037-.512.054-.767l.05-.767c.002-.022-.035-.022-.036 0m3.01-.063a62 62 0 0 0-.595 7.916c0 .05.076.049.08 0 .217-2.637.377-5.277.57-7.916.002-.035-.05-.033-.055 0m1.591 3.26c-.131 1.394-.269 2.787-.401 4.181a30 30 0 0 0-.201 4.177c.002.05.083.066.096.012a23.4 23.4 0 0 0 .476-4.107c.07-1.42.106-2.84.122-4.263 0-.058-.086-.056-.092 0m1.417 3.891c-.06 1.351-.128 2.702-.175 4.053a38 38 0 0 0-.056 4.052.04.04 0 0 0 .08 0 35 35 0 0 0 .182-4.052c.025-1.351.02-2.702.019-4.053a.025.025 0 0 0-.05 0m2.79 4.993q.036-1.443.092-2.888c.003-.069-.103-.066-.11 0q-.148 1.444-.282 2.889-.067.722-.131 1.445a6 6 0 0 0-.129.942q.11.247.196.503l-.02.413q-.019.31-.047.62l-.124 1.446c-.04.482-.084.964-.108 1.446-.017.328-.078.604.14.868a.064.064 0 0 0 .087 0c.235-.252.186-.54.19-.868.005-.482-.006-.964-.01-1.446s-.01-.964-.01-1.446q0-.31.008-.62l.018-.413a1 1 0 0 1 .215-.437 3.8 3.8 0 0 0-.004-1.008q.011-.723.03-1.445m2.236 10.29-.035-1.119q-.034-1.212-.04-2.425c-.01-1.615.015-3.231.05-4.846 0-.02-.03-.019-.031 0a80 80 0 0 0-.309 4.846q-.042 1.212-.058 2.425a6 6 0 0 0 .116 2.27.125.125 0 0 0 .236 0 3.1 3.1 0 0 0 .071-1.15m2.391-2.39c0-.015-.023-.014-.025 0a22 22 0 0 0-.203 5.881c.007.05.08.031.084-.01.206-1.948.067-3.916.144-5.87m1.842 5.358c-.002-.018-.03-.02-.03 0-.032 1.191-.175 2.38-.123 3.573.002.044.073.057.084.01a10 10 0 0 0 .07-3.583m4.436 25.581a24.4 24.4 0 0 0-4.973 7.634c-.024.064.077.101.112.045a76 76 0 0 1 4.934-7.625c.03-.04-.039-.091-.073-.054m2.286 2.188a50 50 0 0 0-2.673 3.434q-.628.883-1.211 1.794a8.7 8.7 0 0 0-1.06 1.887.021.021 0 0 0 .036.02 11 11 0 0 0 1.142-1.686q.603-.937 1.23-1.862a80 80 0 0 1 2.565-3.567c.012-.016-.016-.036-.029-.02m-5.552 8.29q-.704 1.2-1.362 2.425-.327.612-.637 1.232a4.1 4.1 0 0 0-.509 1.16c-.018.132.17.15.235.056l.007.007a2.3 2.3 0 0 0 .27-.576q.13-.32.265-.638.264-.627.549-1.246.56-1.224 1.209-2.405a.015.015 0 0 0-.027-.015m6.152-4.144a51 51 0 0 0-4.984 7.376 67 67 0 0 0-2.062 3.92 13.7 13.7 0 0 0-1.578 3.934c-.01.075.1.086.137.035a8.7 8.7 0 0 0 .841-1.772c.3-.719.605-1.434.93-2.143a56 56 0 0 1 1.995-3.957 81 81 0 0 1 4.76-7.365c.015-.021-.022-.049-.04-.028m-.105 6.087a50 50 0 0 0-2.9 4.248q-.662 1.074-1.279 2.174c-.21.377-.396.772-.618 1.143-.094.157-.232.29-.31.452a2.6 2.6 0 0 0-.1.632c-.008.036.042.074.071.04.113-.135.278-.22.382-.357a3 3 0 0 0 .239-.61c.18-.392.394-.773.595-1.156q.584-1.116 1.213-2.21c.853-1.48 1.783-2.916 2.728-4.344.008-.013-.012-.024-.021-.012m-5.9 10.218c-.445.885-.91 1.764-1.306 2.67a13 13 0 0 0-.525 1.395c-.116.373-.347.952-.093 1.315a.09.09 0 0 0 .117.03c.372-.209.458-.778.556-1.14q.185-.694.375-1.384a16.4 16.4 0 0 1 1.008-2.812c.041-.085-.089-.16-.132-.074m6.746-4.488a46 46 0 0 0-4.335 7.486c-.255.567-.529 1.14-.737 1.725-.238.67-.367 1.383-.588 2.061a36 36 0 0 1-.727 2.03 5 5 0 0 0-.63 1.98.156.156 0 0 0 .286.075 5.1 5.1 0 0 0 .48-1.785 16 16 0 0 1 .611-2.06c.262-.708.629-1.347.957-2.023.312-.645.56-1.327.848-1.983a64 64 0 0 1 3.866-7.489c.012-.02-.018-.036-.031-.017m-.015 7.65a44.5 44.5 0 0 0-2.989 6.217 25.2 25.2 0 0 0-1.837 6.623c-.012.154.225.17.27.035.368-1.079.571-2.207.881-3.303.3-1.061.624-2.115.99-3.157a52 52 0 0 1 2.707-6.404c.006-.013-.014-.025-.022-.011m.882 5.942a28 28 0 0 0-2.387 5.42 16.5 16.5 0 0 0-.985 5.814c.004.085.142.112.162.02.416-1.877.629-3.786 1.124-5.65a30.4 30.4 0 0 1 2.107-5.592c.006-.013-.014-.025-.022-.012m2.465 3.252a38 38 0 0 0-2.551 6.83c-.168.624-.185 1.201-.297 1.83-.107.603-.262 1.198-.4 1.796-.135.595-.275 1.192-.373 1.795a3.55 3.55 0 0 0-.078 1.563.107.107 0 0 0 .19.023 3.7 3.7 0 0 0 .255-1.423c.056-.607.098-1.216.165-1.822a12 12 0 0 1 .338-2.026c.162-.56.385-1.08.528-1.65a54 54 0 0 1 2.262-6.9c.01-.022-.028-.038-.039-.016m.849 7.273a43 43 0 0 0-1.314 4.797 18 18 0 0 0-.553 4.778c.004.05.083.066.097.012.404-1.566.512-3.207.792-4.797a58 58 0 0 1 1.032-4.776c.008-.033-.043-.046-.054-.014m2.141 5.682a46 46 0 0 0-1.867 8.626c-.004.056.09.067.103.013.71-2.853 1.108-5.771 1.788-8.632a.012.012 0 0 0-.024-.007m.88 4.088q-.654 2.207-1.117 4.455a19 19 0 0 0-.553 4.409.059.059 0 0 0 .114.015c.376-1.45.494-2.962.731-4.436q.358-2.228.849-4.436a.012.012 0 0 0-.024-.007m.751 4.472c-.31 1.123-.605 2.255-.826 3.397a16 16 0 0 0-.426 3.358.04.04 0 0 0 .078.01c.299-1.103.399-2.249.591-3.372.194-1.13.385-2.26.624-3.382a.021.021 0 0 0-.041-.011m.707 2.481c-.196.99-.402 1.977-.579 2.97a25 25 0 0 0-.422 2.901c-.003.047.071.055.084.011a25 25 0 0 0 .56-2.974c.151-.965.272-1.934.405-2.902.003-.026-.043-.032-.048-.006m.822 2.164c-.17.837-.338 1.673-.486 2.514a13.6 13.6 0 0 0-.285 2.478.05.05 0 0 0 .096.013 13.7 13.7 0 0 0 .45-2.457c.103-.847.186-1.694.267-2.542.002-.023-.038-.028-.042-.006m1.936-.13c-.399 1.407-.793 2.821-1.108 4.248-.033.15-.08.306-.1.46-.025.21.014.427-.02.642a10 10 0 0 1-.248 1.066c-.098.351-.2.702-.292 1.054-.061.237-.14.397.054.578a.1.1 0 0 0 .112.014c.24-.112.222-.308.24-.539q.042-.54.095-1.08a6.4 6.4 0 0 1 .2-1.213c.047-.156.135-.282.19-.436a4 4 0 0 0 .107-.538c.28-1.413.548-2.825.87-4.23a.052.052 0 0 0-.1-.026m1.251 3.586a41 41 0 0 0-1.282 3.895q-.26.95-.469 1.911-.115.525-.214 1.053a4.2 4.2 0 0 0-.135.888.17.17 0 0 0 .088.148l.06.029a.15.15 0 0 0 .196-.05.14.14 0 0 0 .001-.134c.043-.027.062-.08.037-.18l.038-.228q.045-.267.094-.532.083-.453.178-.903c.141-.667.305-1.328.471-1.99.326-1.299.691-2.588.985-3.894a.024.024 0 0 0-.048-.013m.791 3.446a40 40 0 0 0-1.147 4.197c-.146.697-.283 1.395-.454 2.086-.089.357-.194.71-.287 1.067a1.65 1.65 0 0 0-.099.85.123.123 0 0 0 .219.027 1.75 1.75 0 0 0 .216-.833c.053-.406.101-.813.173-1.216.12-.675.278-1.34.444-2.007.345-1.384.649-2.772.959-4.165a.012.012 0 0 0-.024-.006m.458 4.211a38 38 0 0 0-.874 3.375q-.17.821-.312 1.648c-.05.295-.086.596-.155.888a2.4 2.4 0 0 0-.131.789.109.109 0 0 0 .21.027 2.6 2.6 0 0 0 .09-.794c.019-.293.075-.584.123-.874q.141-.86.314-1.714c.227-1.118.478-2.233.765-3.338a.015.015 0 0 0-.03-.008m.529 3.254q-.316 1.291-.606 2.587l-.292 1.296a5.5 5.5 0 0 0-.194 1.23c0 .06.08.063.102.013a6 6 0 0 0 .325-1.287l.237-1.258q.242-1.284.463-2.571c.004-.022-.03-.032-.035-.01m28.347 5.484a33 33 0 0 0-2.52 4.235c-.326.69-.548 1.423-.839 2.129q-.241.587-.484 1.173c-.111.27-.33.563-.15.835a.09.09 0 0 0 .096.038c.29-.086.325-.36.423-.613.134-.345.268-.69.414-1.03.339-.787.772-1.518 1.129-2.294.678-1.475 1.275-2.985 1.962-4.456a.018.018 0 0 0-.031-.017m-2.505.882a36 36 0 0 0-1.163 2.604 11 11 0 0 1-.62 1.376c-.117.21-.255.41-.392.609a1.7 1.7 0 0 0-.289.622.037.037 0 0 0 .061.035 1.5 1.5 0 0 0 .418-.55c.113-.232.221-.466.343-.692.228-.424.477-.835.71-1.256a10 10 0 0 0 .593-1.252 9 9 0 0 0 .384-1.478c.005-.025-.033-.044-.045-.018m-1.586-.383a87 87 0 0 0-.933 1.943 33 33 0 0 1-.697 1.41c-.097.182-.244.319-.351.491-.116.187.195.36.303.17.1-.176.145-.372.25-.548q.133-.225.263-.453.266-.473.505-.96a10.5 10.5 0 0 0 .738-2.022c.011-.043-.057-.075-.078-.031m-1.273-.565c-.173.403-.375.792-.562 1.19-.184.389-.364.78-.559 1.165a.033.033 0 0 0 .058.033 9 9 0 0 0 .686-1.146 9 9 0 0 0 .465-1.219c.018-.055-.066-.074-.088-.023m-.658-3.445a66 66 0 0 1-1.316 3c-.011.023.023.044.037.02a18.3 18.3 0 0 0 1.332-3.006c.012-.033-.04-.045-.053-.014m-.022-3.498c-.918 1.835-1.913 3.653-2.722 5.535-.01.024.032.04.045.018.992-1.798 1.814-3.693 2.698-5.541.007-.014-.014-.025-.02-.012m-.206-2.556q-.83 1.41-1.634 2.833a18 18 0 0 0-1.394 2.846c-.017.05.056.074.084.034a24 24 0 0 0 1.539-2.817q.717-1.438 1.463-2.863a.033.033 0 0 0-.059-.033m-.093-2.056c-1.06 1.767-2.245 3.478-3.205 5.297-.021.04.036.071.064.035a41 41 0 0 0 3.188-5.305.027.027 0 0 0-.047-.027m-.376-1.454c-.53.755-1.055 1.51-1.565 2.277a14.6 14.6 0 0 0-1.334 2.315c-.017.04.048.075.077.042a14.7 14.7 0 0 0 1.5-2.221c.464-.792.91-1.592 1.354-2.395.011-.02-.019-.037-.032-.018m-.715-1.06a15 15 0 0 0-1.843 2.706.04.04 0 0 0 .07.039c.615-.898 1.21-1.809 1.821-2.71.019-.027-.026-.061-.048-.035m-15.164 17.715a14.2 14.2 0 0 0-1.404 5.053c-.002.05.077.059.09.012.492-1.674.8-3.39 1.353-5.05.007-.021-.03-.037-.039-.015m1.816.388a31 31 0 0 0-1.54 3.862 17.4 17.4 0 0 0-.872 4.048c-.003.048.07.054.084.011.437-1.305.728-2.654 1.113-3.973.385-1.32.786-2.636 1.254-3.932.008-.022-.03-.037-.04-.016m1.197 1.025a36.4 36.4 0 0 0-2.6 9.57c-.006.064.097.074.114.015.956-3.163 1.551-6.411 2.557-9.566.014-.044-.054-.06-.07-.019m.907 3.311a70 70 0 0 0-1.46 4.549 22.6 22.6 0 0 0-.945 4.516c-.006.081.121.093.144.019.46-1.493.712-3.036 1.08-4.551q.552-2.276 1.28-4.506c.021-.062-.078-.087-.1-.027m.398 4.977q-.602 1.747-1.07 3.532-.229.875-.423 1.758a7.4 7.4 0 0 0-.261 1.735.028.028 0 0 0 .054.007 11.5 11.5 0 0 0 .408-1.827q.168-.855.368-1.704.416-1.762.966-3.49c.008-.026-.033-.036-.042-.011m.031 5.242a15.3 15.3 0 0 0-.926 4.017c-.002.036.057.043.066.008.176-.662.286-1.34.417-2.011q.198-1.011.467-2.007c.004-.015-.019-.021-.024-.007m-.554 6.062-.102-.958c-.003-.025-.044-.026-.043 0l.038.958c.013.32.059.64.103.957.003.025.043.027.042 0-.003-.319-.004-.64-.038-.957m16.404 17.145a10 10 0 0 1-1.44.833c-.245.12-.493.232-.732.363a2.3 2.3 0 0 0-.357.231 3 3 0 0 0-.288.3.059.059 0 0 0 .043.1 3 3 0 0 0 .388-.035 1.7 1.7 0 0 0 .426-.155 4 4 0 0 0 .72-.478 17 17 0 0 0 1.266-1.127c.016-.016-.006-.047-.026-.032m.438 32.2a3 3 0 0 1-.97.71q-.664.35-1.33.698-.653.342-1.301.69a4.6 4.6 0 0 1-.642.307 2 2 0 0 1-.322.09c-.114.023-.41.043-.185-.13.005-.005-.002-.013-.008-.01a.3.3 0 0 0-.148.18.02.02 0 0 0 .015.024 1.9 1.9 0 0 0 1.129-.225c.495-.23.98-.483 1.466-.73q.716-.362 1.43-.726a3.2 3.2 0 0 0 1.022-.728c.089-.106-.069-.256-.156-.15m-.225-3.281c-.442.27-.906.504-1.35.77a5 5 0 0 0-.66.45 2 2 0 0 0-.264.259c-.073.087-.152.167-.216.26a.085.085 0 0 0 .076.128 4.24 4.24 0 0 0 2.48-1.784c.038-.043-.01-.117-.066-.083m-2.519 17.382c0-.015-.023-.014-.024 0a2.6 2.6 0 0 0 .323 1.546.03.03 0 0 0 .052-.03 2.9 2.9 0 0 1-.35-1.516M72.96 232.427a12.4 12.4 0 0 0-2.471.517c-.2.063-.44.081-.63.154a2.6 2.6 0 0 0-.5.33 5 5 0 0 0-.655.513 2.7 2.7 0 0 1-.144-.675c-.02-.376.223-.38.544-.481.574-.18 1.143-.373 1.73-.511 1.146-.27 2.307-.302 3.466-.472.054-.008.052-.097 0-.107a7.8 7.8 0 0 0-2.961.152 9.9 9.9 0 0 0-2.931 1.037.065.065 0 0 0-.029.071 5.4 5.4 0 0 1 .157 1.188.114.114 0 0 0 .113.113 7 7 0 0 0 1.044-.24 3 3 0 0 0 .507-.106c.217-.085.412-.223.64-.3a14 14 0 0 1 2.205-.552 14.6 14.6 0 0 1 4.91 0 .013.013 0 0 0 .008-.025 11.6 11.6 0 0 0-5.003-.606m-21.634-43.402a.065.065 0 0 0-.13 0 25.6 25.6 0 0 1-2.389 10.152 19.67 19.67 0 0 1-6.384 8.07c-.718.477-1.54.778-2.225 1.303a10.8 10.8 0 0 0-1.81 2.001c-1.213 1.542-2.393 3.11-3.582 4.672-2.348 3.082-4.927 6.013-7.156 9.183a23.3 23.3 0 0 0-2.702 5.103 27.4 27.4 0 0 1-2.554 5.174c-.081.126.096.245.199.154 2.565-2.27 3.376-5.838 5.113-8.68a48 48 0 0 1 3.525-4.743c1.246-1.563 2.488-3.131 3.768-4.665q2.006-2.404 4.002-4.815a23 23 0 0 1 1.71-2.038 19 19 0 0 1 2.377-1.507c2.78-1.969 4.71-5.125 6.124-8.172a22.8 22.8 0 0 0 2.114-11.192m1.432-3.495a.049.049 0 0 0-.098 0 109 109 0 0 1-1.303 12.454c-.016.108.138.158.169.046a40.1 40.1 0 0 0 1.232-12.5m8.622-45.36a43.7 43.7 0 0 1-2.846 7.472 16 16 0 0 1-.737 1.631 4.5 4.5 0 0 0-.465 1.884 90 90 0 0 0-.452 3.65c-.006.06.088.07.101.015a22.7 22.7 0 0 1 1.187-3.703 8 8 0 0 0 .475-.945 4 4 0 0 0 .051-.657 10.4 10.4 0 0 1 .532-2.008 73 73 0 0 0 2.228-7.32c.01-.048-.063-.069-.075-.02m-5.516 17.992-.278 1.158q-.068.285-.131.57a3 3 0 0 0-.116.565.052.052 0 0 0 .097.026 3 3 0 0 0 .152-.531q.078-.293.151-.588l.287-1.155c.026-.106-.137-.15-.162-.045m6.847-13.026a97 97 0 0 1-1.382 3.04 9.4 9.4 0 0 0-1.16 2.974 16.4 16.4 0 0 1-.738 3.426 16.5 16.5 0 0 0-.822 3.151.036.036 0 0 0 .067.019 22 22 0 0 0 .865-3.015 12.5 12.5 0 0 1 1.312-3.28 10.9 10.9 0 0 0 .963-3.07 34 34 0 0 1 1.002-3.2c.023-.062-.08-.106-.107-.045m-1.108 6.675c-.366 1.045-.762 2.078-1.12 3.125a11.8 11.8 0 0 0-.834 3.091.055.055 0 0 0 .103.028 11.8 11.8 0 0 0 1.045-3.032c.291-1.065.542-2.14.824-3.206a.01.01 0 0 0-.018-.005m-.301 4.953c-.068.235-.144.47-.197.708a5 5 0 0 0-.145.701c-.002.032.041.032.051.007a5 5 0 0 0 .188-.696c.06-.233.095-.474.14-.71a.02.02 0 0 0-.037-.01m-6.97 1.261a5.5 5.5 0 0 0-.418 2.281.032.032 0 0 0 .065 0 11.2 11.2 0 0 1 .44-2.256c.02-.057-.066-.079-.087-.025m-15.009 7.438a.046.046 0 0 0-.046.08 49 49 0 0 1 7.294 6.001c.041.038.118-.013.082-.063a22.45 22.45 0 0 0-7.33-6.018"/><path fill="currentColor" d="M51.526 176.078c-.099-.276-1.124-2.594-1.361-3.092l.005-.001.032-.021a.38.38 0 0 0 .132-.506l-.027-.055a.31.31 0 0 0-.24-.158c-.297-.239-.656-.37-.962-.635-.343-.299-.656-.635-.987-.947q-.994-.938-2.044-1.816a42 42 0 0 0-4.216-3.09c-.018-.012-.033.016-.016.028a52 52 0 0 1 4.32 3.325q.942.81 1.84 1.67a13 13 0 0 1 .965.968c.314.376.414.833.755 1.179.017.016.044.018.064.031a4 4 0 0 1 .578.753c.337.666.646 1.35.927 2.043a31 31 0 0 1 1.163 3.843c.007.03.048.016.043-.012a19.3 19.3 0 0 0-.971-3.507m7.244-2.207a9.8 9.8 0 0 0-2.766-.58 8 8 0 0 0-1.383.04c-.473.06-.931.183-1.401.25-.084.011-.063.148.02.146a12 12 0 0 1 1.381.113c.46.045.922.067 1.383.097.912.06 1.829.072 2.742.113.107.005.117-.146.024-.179M140.034 6.79c-.05-.438-.08-.88-.122-1.32l-.345-.024.032 1.465c.023 1.053.359 2.065.405 3.127a21 21 0 0 0 .137 2.935c.042.221.39.167.386-.052-.013-1.043-.324-2.087-.438-3.123-.11-1.011.06-2.003-.055-3.007m-2.046-1.14c-.003-.041-.066-.042-.065 0 .124 3.804.123 7.646.503 11.434a.028.028 0 0 0 .056 0c.05-3.807-.287-7.634-.494-11.434m-2.181 13.517c-.048-.995.115-1.977.076-2.962-.078-1.975-.179-3.948-.241-5.923a.024.024 0 0 0-.048 0c.003 1.975-.033 3.948-.046 5.923-.006.987.187 1.965.175 2.962a10.3 10.3 0 0 0 .026 2.75.063.063 0 0 0 .121 0 10.2 10.2 0 0 0-.063-2.75m-2.463 2.733c-.07-1.827-.167-3.653-.252-5.48a.01.01 0 0 0-.021 0c.03 1.827.047 3.654.09 5.48.043 1.824.016 3.667.23 5.48a.032.032 0 0 0 .065 0c.101-1.822-.04-3.659-.112-5.48m-2.298 7.517c-.025-.642-.059-1.283-.07-1.925-.022-1.293.105-2.56.043-3.85q-.184-3.851-.546-7.69c-.003-.036-.058-.037-.056 0q.17 3.843.213 7.69c.014 1.292.192 2.555.194 3.85.001.641-.026 1.283-.052 1.925a4.1 4.1 0 0 0 .084 1.662.048.048 0 0 0 .092 0 4 4 0 0 0 .098-1.662m-2.087 3.156q-.073-2.008-.154-4.014c-.11-2.724-.223-5.447-.393-8.167a.013.013 0 0 0-.026 0c.014 2.446.075 4.89.144 7.336q.047 1.8.104 3.599l.058 1.8c.016.471.235 1.445-.12 1.806-.029.03.008.07.043.054.724-.326.365-1.827.344-2.414m-2.54-.473q-.074-3.78-.26-7.553a.013.013 0 0 0-.026 0q.028 3.776.026 7.553c0 1.233-.058 2.478-.012 3.709.025.645.098 1.275.073 1.923a4.1 4.1 0 0 0 .031 1.66.044.044 0 0 0 .083 0 4.1 4.1 0 0 0 .053-1.66c-.02-.648.056-1.278.08-1.923.045-1.23-.024-2.479-.048-3.709m-2.717-3.396a.022.022 0 0 0-.043 0c.03 4.785-.243 9.58-.097 14.362a.058.058 0 0 0 .116 0 130 130 0 0 0 .024-14.362m-2.122 4.963q0-2.577.068-5.153c0-.025-.038-.024-.039 0q-.134 2.575-.196 5.153-.03 1.288-.041 2.577a9.7 9.7 0 0 0 .102 2.388.037.037 0 0 0 .07 0 10.7 10.7 0 0 0 .057-2.388q-.02-1.289-.02-2.577m-.152 10.248q-.018-1.37-.058-2.74a.03.03 0 0 0-.06 0c.006.913.004 1.826-.018 2.74s-.077 1.827-.01 2.74a.03.03 0 0 0 .06 0 19 19 0 0 0 .086-2.74m-2.353-8.693a115.4 115.4 0 0 0-.281 16.627.037.037 0 0 0 .073 0c.133-5.543.011-11.084.233-16.627.001-.017-.024-.016-.025 0m-2.375 5.197a.024.024 0 0 0-.047 0c-.036 4.5-.153 9.01.023 13.51a.032.032 0 0 0 .065 0c.155-4.5.016-9.01-.04-13.51m-2 13.667c-.052-1.562-.122-3.133-.06-4.696.059-1.502-.1-3.046-.144-4.558l-.137-4.696a.022.022 0 0 0-.043 0l.03 4.558c.01 1.556-.097 3.154.02 4.696.113 1.514.102 3.041.105 4.558a20.7 20.7 0 0 0 .125 4.439.07.07 0 0 0 .133 0 20 20 0 0 0-.029-4.3m-2.552.744q-.165-3.615-.213-7.233a.026.026 0 0 0-.052 0q.006 3.685.128 7.369a67 67 0 0 0 .431 7.097c.006.039.068.028.068-.01-.002-2.406-.254-4.82-.363-7.223m-2.499-.997a.004.004 0 0 0-.008 0 79 79 0 0 0 .74 11.911c.003.017.032.013.03-.004-.416-3.962-.74-7.921-.762-11.907m-2.007 12.919a42 42 0 0 1-.21-2.18 21 21 0 0 1-.065-2.18 22 22 0 0 0-.143-2.183c-.203-2.91-.372-5.824-.478-8.74a.013.013 0 0 0-.026 0c.017 2.96.068 5.919.191 8.876a15 15 0 0 0 .084 1.963 23 23 0 0 1 .272 2.4q.08 1.09.121 2.18a4.8 4.8 0 0 0 .226 1.807.072.072 0 0 0 .13-.017 5.3 5.3 0 0 0-.102-1.926m-2.559.356a294 294 0 0 1-.313-6.853.015.015 0 0 0-.03 0q.038 3.497.223 6.988a67 67 0 0 0 .514 6.714c.005.032.055.024.055-.007-.044-2.281-.315-4.563-.45-6.841m-2.222-.4c-.04-.843-.085-1.685-.12-2.528q-.104-2.528-.147-5.058a.024.024 0 0 0-.047 0q-.03 2.529 0 5.058c.01.843.02 1.686.044 2.528a7.7 7.7 0 0 0 .204 2.342.035.035 0 0 0 .066 0 8.2 8.2 0 0 0 0-2.342m.409 7.194q-.092-.968-.176-1.937c-.003-.035-.058-.036-.056 0q.055.988.104 1.975a13 13 0 0 0 .176 1.906c.006.03.05.021.051-.007a13 13 0 0 0-.1-1.937m-2.69-4.011c-.003-.03-.05-.03-.048 0 .184 3.465.29 6.961.765 10.401.006.047.081.035.08-.01-.042-3.47-.462-6.94-.797-10.39m-1.876 15.149c-.059-.82-.128-1.64-.19-2.46-.067-.864-.137-1.73-.201-2.594-.03-.41-.06-.82-.078-1.23-.017-.395.09-.76.062-1.148-.245-3.481-.575-6.974-.881-10.454-.002-.014-.023-.014-.022 0q.143 2.524.28 5.05c.096 1.718.278 3.465.225 5.187a8.5 8.5 0 0 0 .178 1.229c.043.406.05.82.066 1.229.034.865.057 1.73.083 2.595.024.82.04 1.64.061 2.46a10 10 0 0 0 .197 2.493c.033.116.226.132.25 0a9.4 9.4 0 0 0-.03-2.357m-2.631 2.001q-.147-1.842-.273-3.686-.259-3.755-.448-7.514c-.001-.023-.036-.023-.035 0q.122 3.827.33 7.651.105 1.912.233 3.822a21.5 21.5 0 0 0 .335 3.56c.015.06.098.043.102-.014a26 26 0 0 0-.244-3.819m-2.527 1.325q-.24-3.188-.349-6.384a.028.028 0 0 0-.056 0q.054 3.257.237 6.509a42 42 0 0 0 .6 6.25.03.03 0 0 0 .06-.009c-.004-2.122-.333-4.25-.492-6.366m-2.367-1.187a.017.017 0 0 0-.035 0 65 65 0 0 0 .624 10.307c.007.042.073.031.072-.01-.076-3.434-.49-6.865-.661-10.297m-1.711 5.007c-.002-.024-.04-.025-.039 0 .124 2.55.169 5.103.264 7.653a.028.028 0 0 0 .056 0 58 58 0 0 0-.28-7.653m-1.548 7.932a11 11 0 0 1-.055-1.933 12 12 0 0 0 .121-1.795c-.068-2.44-.166-4.88-.213-7.32a.015.015 0 0 0-.03 0c-.082 2.438-.162 4.879-.154 7.32a11.5 11.5 0 0 0 .188 1.795 11.5 11.5 0 0 1 .041 1.795 15 15 0 0 0 .107 3.466c.011.049.096.053.104 0a16 16 0 0 0-.11-3.328m-1.555 4.208c-.047-1.37-.1-2.74-.149-4.11a.032.032 0 0 0-.065 0c.01 1.37.017 2.74.029 4.11a40 40 0 0 0 .149 4.11.032.032 0 0 0 .065 0 39 39 0 0 0-.029-4.11m-2.094 1.465a.015.015 0 0 0-.03 0c-.075 1.695-.134 3.408-.061 5.103a.035.035 0 0 0 .069 0 23.4 23.4 0 0 0 .021-5.103m-.857 6.519q-.004.497-.04.993c-.025.328-.075.66-.08.989a.015.015 0 0 0 .03.004 5 5 0 0 0 .101-.974q.02-.506.006-1.012a.009.009 0 0 0-.017 0m-14.666 22.019a171 171 0 0 0-2.952 7.922c-.005.016.02.023.025.007.978-2.643 1.949-5.29 2.96-7.92.008-.02-.025-.03-.033-.009m-1.952 18.595c-.004-.019-.033-.01-.029.008a24 24 0 0 0 .785 3.04.013.013 0 0 0 .025-.007c-.246-1.017-.548-2.02-.78-3.04m.602-.893a18 18 0 0 0-.656-1.777c-.009-.02-.042-.006-.036.015.184.6.36 1.203.538 1.805.177.602.333 1.213.54 1.806.008.024.05.022.047-.006a11 11 0 0 0-.433-1.843m.277-1.858a55 55 0 0 0-.52-1.593.01.01 0 0 0-.02.006c.14.552.283 1.1.44 1.647a14 14 0 0 0 .5 1.572c.011.026.048.006.044-.019a14 14 0 0 0-.444-1.613m-.034-2.931a.024.024 0 0 0-.041.024 8 8 0 0 1 .716 1.803c.007.025.042.014.037-.01a5 5 0 0 0-.712-1.817m-40.788 2.101c-.248 3.777-.805 7.552-.897 11.335-.001.04.064.051.072.01a66.4 66.4 0 0 0 .851-11.345c0-.017-.025-.016-.026 0m1.866-.752a76 76 0 0 0-.291 5.199c-.022.866-.06 1.735-.125 2.599-.031.4-.07.8-.104 1.2a3.2 3.2 0 0 0-.003 1.208c.008.026.05.038.063.008a2.6 2.6 0 0 0 .125-1.017c.011-.4.013-.8.022-1.199.02-.9.075-1.8.135-2.7.118-1.77.209-3.52.2-5.298a.01.01 0 0 0-.022 0m1.489-.761a.028.028 0 0 0-.056 0q-.05 1.492-.164 2.982-.056.73-.121 1.458c-.021.233-.051.466-.061.7-.012.273.032.54.034.813a.024.024 0 0 0 .047.006c.066-.263.165-.51.211-.78.035-.206.048-.414.066-.622q.064-.758.09-1.517a34 34 0 0 0-.046-3.04m-.215 8.109a2.5 2.5 0 0 0-.012-.378c-.029-.245-.036-.493-.054-.739-.006-.094-.152-.095-.147 0a3.3 3.3 0 0 1-.02.724c-.02.12-.03.244-.044.365-.012.099-.03.27.076.324l-.039-.05a.2.2 0 0 0 .035.083.046.046 0 0 0 .07.01.2.2 0 0 0 .05-.073l-.05.039c.119-.036.131-.2.135-.305m1.757-8.486c-.054 1.04-.112 2.081-.186 3.12a25 25 0 0 0-.145 3.115c.002.04.062.052.072.01a16 16 0 0 0 .27-3.064q.048-1.59.01-3.181a.01.01 0 0 0-.021 0m1.591 1.504c-.017-.69-.045-1.38-.068-2.071a.024.024 0 0 0-.048 0c-.023.69-.052 1.38-.068 2.071q-.011.517-.007 1.036a5 5 0 0 0 .064.965.037.037 0 0 0 .07 0 5 5 0 0 0 .064-.965q.003-.518-.007-1.036m1.212-3.207c-.004-.052-.085-.054-.082 0 .037.728.08 1.45.17 2.175.003.027.043.029.043 0a32 32 0 0 0-.13-2.175m17.007 55.543c-.003-.016-.032-.013-.03.004.184 1.62.361 3.235.676 4.836.007.033.063.026.06-.008-.146-1.625-.43-3.225-.706-4.832m2.113 2.315c-.268-1.835-.522-3.673-.686-5.52-.001-.02-.03-.02-.03 0 .062 1.825.153 3.649.364 5.463a25.8 25.8 0 0 0 .992 5.222c.014.042.084.038.08-.011-.119-1.73-.47-3.44-.72-5.154m1.837 1.418a73 73 0 0 1-.812-7.883c0-.02-.03-.02-.03 0a67 67 0 0 0 .65 7.664 41.5 41.5 0 0 0 1.676 7.757.026.026 0 0 0 .05-.014c-.476-2.517-1.132-4.99-1.533-7.524m3.349 6.663q-.366-1.934-.684-3.878-.642-3.948-1.092-7.926c-.002-.02-.032-.02-.03 0q.335 3.8.877 7.574.272 1.885.593 3.762a23.5 23.5 0 0 0 .821 3.989c.026.07.145.066.14-.02a28 28 0 0 0-.625-3.5m1.067-4.621c-.198-1.514-.406-3.026-.61-4.54-.002-.014-.027-.01-.025.004.183 1.573.362 3.146.551 4.718.182 1.515.326 3.04.6 4.543a.024.024 0 0 0 .047-.007c-.109-1.579-.358-3.149-.563-4.718m1.25 8.428q-.07-.33-.151-.658-.171-.68-.336-1.361c-.006-.025-.042-.014-.038.01q.12.681.231 1.364.057.333.123.666a1.7 1.7 0 0 0 .184.632c.016.024.06.025.067-.009a1.6 1.6 0 0 0-.08-.644m1.413-2.207c-.28-1.702-.558-3.403-.861-5.1-.003-.015-.023-.008-.021.005.236 1.678.497 3.352.757 5.027.259 1.665.437 3.37.79 5.017.016.073.14.058.132-.018-.174-1.648-.529-3.295-.797-4.931m2.483 5.349-.22-1.37-.44-2.742c-.001-.005-.01-.003-.009.002l.385 2.702.189 1.324a9.6 9.6 0 0 0 .222 1.37.026.026 0 0 0 .05-.007 9 9 0 0 0-.177-1.28m1.764 1.041a5 5 0 0 0-.22-.817.024.024 0 0 0-.045.012c.046.27.078.543.118.814.02.134.032.27.05.404a2 2 0 0 0 .084.396.028.028 0 0 0 .054 0 1.4 1.4 0 0 0 .016-.407c-.01-.134-.035-.27-.057-.402m.576 11.193c-.019-.001-.024.03-.004.034a24 24 0 0 1 3.391.832c.018.006.031-.024.013-.032a10.5 10.5 0 0 0-3.4-.834m5.929.309a14.4 14.4 0 0 0-2.87-1.04q-1.515-.44-3.053-.791a.015.015 0 0 0-.008.029q1.498.395 2.968.886c.975.326 1.935.742 2.938.975.034.008.058-.04.025-.06m2.738-.031a28.5 28.5 0 0 0-3.948-1.79 49 49 0 0 0-4.244-1.422.015.015 0 0 0-.008.03q2.107.644 4.153 1.464c1.364.543 2.677 1.193 4.03 1.758.023.01.037-.028.017-.04m2.756-.334a13 13 0 0 0-1.803-.97q-.854-.432-1.714-.851a147 147 0 0 0-3.579-1.7l-.002.004a103 103 0 0 1 3.623 1.76q.88.452 1.752.92a15 15 0 0 0 1.702.89c.032.011.045-.035.021-.053m.254-1.837a45 45 0 0 0-4.005-2.178 26 26 0 0 0-4.08-1.64c-.016-.005-.023.02-.007.025a29 29 0 0 1 4.175 1.76c1.285.649 2.5 1.426 3.773 2.09q-.027.02-.055.037a.024.024 0 0 0 .018.044q.083-.018.166-.029c.054-.008.054-.084.015-.109m-.463-2.453a5.6 5.6 0 0 0-1.084-.623q-.6-.296-1.218-.557a24 24 0 0 0-2.509-.9c-.032-.009-.046.04-.014.05a24 24 0 0 1 2.516.963q.587.263 1.158.559a10 10 0 0 0 1.12.563.033.033 0 0 0 .031-.055m-3.107-3.144c-.02-.007-.026.022-.009.03a16 16 0 0 0 1.7.65c.022.006.038-.03.016-.04a16 16 0 0 0-1.708-.64m4.903 32.021a16.8 16.8 0 0 0-4.453-1.324c-.013-.002-.02.017-.006.021 1.502.386 2.965.875 4.44 1.347.026.008.043-.032.019-.044m1.528-1.264a6.2 6.2 0 0 0-1.295-.626q-.68-.284-1.382-.503a18.6 18.6 0 0 0-2.918-.658c-.027-.004-.04.037-.012.042a18.6 18.6 0 0 1 2.849.72q.672.23 1.33.505c.46.192.91.469 1.386.62.062.02.088-.066.041-.1m1.11-1.473a6.3 6.3 0 0 0-1.243-.572q-.629-.25-1.267-.477-1.324-.466-2.686-.808a.007.007 0 0 0-.004.013q1.33.37 2.623.856.675.252 1.333.54a10 10 0 0 0 1.214.519.04.04 0 0 0 .03-.072m-.052-1.889a4.3 4.3 0 0 0-1.033-.37c-.38-.14-.757-.29-1.14-.425a13.4 13.4 0 0 0-2.32-.545c-.016-.002-.023.022-.007.025.762.173 1.509.397 2.262.603.376.104.752.206 1.118.341a8 8 0 0 0 1.077.475.057.057 0 0 0 .043-.103m-.459-1.858q-.147-.068-.296-.131a9 9 0 0 0-.746-.28 9 9 0 0 0-1.484-.326c-.022-.003-.027.034-.006.038a11.5 11.5 0 0 1 1.46.4q.352.121.697.263.182.077.361.161a.74.74 0 0 0 .307.107.024.024 0 0 0 .017-.04.75.75 0 0 0-.31-.192m-.164-1.729q-.295-.112-.596-.202a7.5 7.5 0 0 0-1.199-.24c-.022-.002-.026.035-.005.039a12 12 0 0 1 1.172.317q.28.088.555.194a2.3 2.3 0 0 0 .558.186.022.022 0 0 0 .016-.037 1.5 1.5 0 0 0-.502-.257m-.73-1.947q-.34-.104-.684-.2c-.016-.005-.022.019-.007.024q.329.125.658.244a4 4 0 0 0 .67.203c.02.003.035-.025.014-.036a4 4 0 0 0-.651-.235m.163-2.271c-.124-.028-.249-.043-.375-.06q-.38-.05-.758-.112c-.011-.002-.016.013-.005.016q.363.096.724.2c.124.036.247.074.375.099.055.01.235.074.258-.019.023-.095-.163-.11-.219-.124m-.626-2.527a1.5 1.5 0 0 0-.265-.058 3 3 0 0 0-.52-.016c-.039.002-.053.066-.01.073a3 3 0 0 1 .49.12l.233.074a.6.6 0 0 0 .12.025.17.17 0 0 0 .13-.013.05.05 0 0 0 .022-.053c-.018-.08-.129-.13-.2-.152m-1.076-2.921a.4.4 0 0 0-.049-.034.5.5 0 0 0-.104-.045.3.3 0 0 0-.058-.013.3.3 0 0 0-.057.006.5.5 0 0 0-.107.027.028.028 0 0 0 .015.054.3.3 0 0 1 .09-.004l.044.01.05.007a.4.4 0 0 1 .128.049l.045.02c.022.011.05-.01.035-.035a.2.2 0 0 0-.032-.042"/><path fill="currentColor" d="M145.32 5.8a208 208 0 0 1-3.004 7.129c-2.454 5.499-5.156 10.88-7.975 16.2-5.848 11.032-12.151 21.82-18.262 32.706q-9.542 16.997-19.046 34.015-9.56 17.08-19.034 34.205c-2.895 5.213-5.776 10.493-7.573 16.207a68.6 68.6 0 0 0-2.772 15.324q-.029-.278-.061-.555c-.155-1.288-.435-2.548-.603-3.833-.013-.1-.17-.106-.162 0 .075 1.094.034 2.19.097 3.285s.11 2.193.158 3.29c.045 1.005.08 2.011.087 3.018.008 1.155-.184 2.264-.242 3.41a15.2 15.2 0 0 0 .547 5.849c.67 1.945 1.59 3.811 2.36 5.717q2.34 5.784 4.23 11.737.924 2.911 1.75 5.853a26.2 26.2 0 0 0 1.908 5.358 20 20 0 0 0 1.762 2.385c.705.957.536 2.155.518 3.275-.04 2.46.135 4.914.141 7.373a.113.113 0 0 0 .227 0c.014-.189.034-.378.05-.567q.21 1.977.37 3.957c.24 3.02.326 6.032.341 9.058a13 13 0 0 0 .667 4.053 38 38 0 0 1 1.18 4.125 66 66 0 0 1 1.265 8.859 28 28 0 0 1-.028 4.508 10.2 10.2 0 0 1-.904 3.767 2.506 2.506 0 0 1-2.944 1.388 10.6 10.6 0 0 1-3.588-1.492c-2.355-1.488-3.788-3.741-5.1-6.139a38 38 0 0 1-3.535-7.812 13.8 13.8 0 0 1-.532-4.693c.056-.795.199-1.583.219-2.38a11.4 11.4 0 0 0-.246-2.4c-.306-1.624-.663-3.24-.997-4.857a24 24 0 0 0-1.041-4.094 6 6 0 0 0 1.414-.176c1.297-.289 2.56-.766 3.859-1.068.045-.011.025-.076-.02-.07a33 33 0 0 1-4.27.443c-1.428.028-1.861-.959-2.486-2.031A6.1 6.1 0 0 0 61.542 218a21.4 21.4 0 0 1-2.894-1.969 30.2 30.2 0 0 1-4.953-5.094c-.731-.955-1.382-1.965-2.077-2.945-.695-.981-1.385-1.955-1.98-3.001-.013-.022-.045-.003-.034.02a44 44 0 0 0 2.71 5.31 34.5 34.5 0 0 0 3.595 4.7c.223.242.459.472.693.704a17.4 17.4 0 0 1-3.078-1.856 20.3 20.3 0 0 1-5.06-5.748c-.04-.07-.138-.009-.106.062a17.6 17.6 0 0 0 4.739 6.363 15.1 15.1 0 0 0 4.658 2.897c.034 1.046.071 2.094.087 3.14.014.902 0 1.808.017 2.711-.257.18-.514.362-.785.524-.114.069-.236.119-.352.181a26 26 0 0 0 .104-2.913 40 40 0 0 0-.206-4.096.028.028 0 0 0-.056 0c-.02 1.34-.016 2.679-.045 4.017-.022 1.037-.078 2.085-.057 3.126q-.538.269-1.083.527a40.7 40.7 0 0 0-.135-7.106c-.002-.027-.044-.028-.043 0q.1 1.888.119 3.78c.01 1.121-.028 2.243-.019 3.364-.21.101-.42.2-.629.307a5.7 5.7 0 0 0-1.843 1.869c-.626.849-1.247 1.7-1.88 2.544-.633.842-1.278 1.673-1.881 2.536-.068.096-.126.2-.192.297a7.7 7.7 0 0 0 .236-2.372c-.002-.028-.044-.037-.05-.007a17 17 0 0 1-1.314 3.288 15 15 0 0 0-1.294 3.084c-.49 2.327.026 4.736-.082 7.088a21.6 21.6 0 0 1-1.317 6.38 27.2 27.2 0 0 1-2.856 6.142c-.071.103.088.225.173.134.515-.56.998-1.124 1.462-1.696-1.245 3.34-1.301 7.14-1.531 10.641a40.5 40.5 0 0 1-.792 6.309c-.23 1.01-.573 1.99-.798 3.001a15 15 0 0 0-.258 3.266 57 57 0 0 1-.386 6.653 54 54 0 0 0-.82 6.838c.018 2.184.526 4.338.729 6.507a35.5 35.5 0 0 1 .098 5.781 22.9 22.9 0 0 1-1.328 6.4 17 17 0 0 1-1.47 3.008 3.7 3.7 0 0 1-1.015 1.24c-.322.209-1.137.306-1.154-.278a.5.5 0 0 0-.545-.507 42 42 0 0 0 .324-5.662 35 35 0 0 0-.885-8.749 40 40 0 0 1-1.008-4.461 20.2 20.2 0 0 1 .104-4.57c.283-3.028.758-6.04.882-9.08.062-1.509-.025-3.008-.06-4.515a19 19 0 0 1 .495-4.506c.63-2.96 1.405-5.86 1.83-8.864.234-1.658.419-3.326.52-4.999a6.9 6.9 0 0 1 .351-2.347 9.3 9.3 0 0 1 1.124-1.788 15.6 15.6 0 0 0 2.1-3.787 14.3 14.3 0 0 0 .724-4.215c.005-.072-.102-.069-.11 0a13.3 13.3 0 0 1-1.222 3.833 12.1 12.1 0 0 1-2.038 3.17c-.85.936-1.809 1.571-2.155 2.856a23 23 0 0 0-.4 3.882 62 62 0 0 1-1.373 8.527 30.4 30.4 0 0 0-1.134 8.238 60 60 0 0 1-.165 8.522c-.28 2.832-.699 5.658-.746 8.507a15.4 15.4 0 0 0 .471 4.059c.337 1.357.731 2.692.956 4.075a44 44 0 0 1 .362 8.336c-.088 2.886-.391 5.986-1.842 8.545-.635 1.12-1.672 1.969-2.956 1.24-1.236-.702-1.733-2.244-2.17-3.509a.52.52 0 0 0-.215-.275 30 30 0 0 0 .644-10.18 44.4 44.4 0 0 0-1.385-7.359 64 64 0 0 0-1.124-3.626 15.6 15.6 0 0 0-1.139-2.762c.028-.046.063-.082.089-.131a5.9 5.9 0 0 0 .502-2.038c.185-1.718.132-3.48.166-5.206.076-3.901.097-7.808-.064-11.707-.035-.862-.108-1.724-.125-2.586a12 12 0 0 1 .37-2.787c.423-1.958.817-3.924 1.193-5.891.229-1.2.428-2.404.635-3.608a67 67 0 0 1 2.514 4.904c.009.02.042.006.035-.015a22.8 22.8 0 0 0-2.524-5.03c.107-.625.23-1.249.33-1.875.961 1.55 1.825 3.156 2.68 4.768.01.02.044.006.036-.015a23.7 23.7 0 0 0-2.7-4.856q.138-.87.267-1.742c.765 1.438 1.53 2.88 2.404 4.253a.022.022 0 0 0 .037-.022 45 45 0 0 0-2.429-4.31c.047-.312.1-.624.144-.937a20 20 0 0 1 .426-2.653 4 4 0 0 1 .295-.738 1.5 1.5 0 0 0 .54-.039 20 20 0 0 0 2.228-.645 7.3 7.3 0 0 0 1.177-.526 8 8 0 0 0 1.036-.763c.013-.01-.001-.035-.017-.029-.702.291-1.435.537-2.155.779a7.5 7.5 0 0 1-2.307.465c.234-.298.492-.584.771-.88a15 15 0 0 0 1.578-1.993 8.87 8.87 0 0 0 1.605-4.766c.001-.047-.06-.049-.076-.01a21.2 21.2 0 0 1-2.15 4.284 10.2 10.2 0 0 1-1.544 1.735 8.6 8.6 0 0 0-1.682 1.723c-.864 1.399-.899 3.346-1.146 4.929q-.44 2.833-.964 5.653a158 158 0 0 1-1.112 5.485 21.4 21.4 0 0 0-.91 5.152c.054 1.86.24 3.717.3 5.578.061 1.905.055 3.813.038 5.719a450 450 0 0 1-.112 6.264 13.7 13.7 0 0 1-.191 2.552 10 10 0 0 1-.338 1.103 7 7 0 0 1-.364 1.112c-.072.139.052.359.224.292q.222-.087.426-.188c.326 1.563.972 3.088 1.406 4.608a55 55 0 0 1 1.39 5.979 30.4 30.4 0 0 1-.209 11.97 18.2 18.2 0 0 1-1.937 5.16c-.757 1.258-2.153 2.806-3.79 2.167-1.685-.657-2.17-2.71-2.57-4.279-.543-2.138-1.106-4.27-1.656-6.407-1.18-4.576-2.178-9.238-3.562-13.758q.295-.601.55-1.203c1.665-3.956 2.286-8.429 2.805-12.667a20.9 20.9 0 0 0-.121-6.925 20 20 0 0 1-.78-3.34 18.6 18.6 0 0 1 .492-3.588 114 114 0 0 0 1.535-14.38 14 14 0 0 0-.143-2.338 12 12 0 0 1 .166-1.53 11.2 11.2 0 0 1 .976-2.705 15.2 15.2 0 0 0 1.215-4.699c.012-.106.029-.21.041-.315a5 5 0 0 0 .44-.203 6.7 6.7 0 0 0 1.029-.667 4.3 4.3 0 0 0 .836-.85 5 5 0 0 0 .494-1.093c.01-.026-.03-.04-.043-.019a5.6 5.6 0 0 1-.8.84 8 8 0 0 1-.815.738 4.8 4.8 0 0 1-.938.555c-.038.016-.078.027-.117.042a12 12 0 0 1 .282-1.438 12.7 12.7 0 0 1 .838-2.518.108.108 0 0 0-.168-.13 5 5 0 0 0-1.357 1.802 23 23 0 0 0-.702 2.469 29.7 29.7 0 0 1-1.435 5.063 10 10 0 0 0-.926 2.552 16 16 0 0 0 .097 2.944c.007.22-.008.44-.004.66-.125 1.353-.179 2.712-.264 4.08-.144 2.291-.358 4.58-.654 6.856-.306 2.35-.759 4.653-1.225 6.973a5.86 5.86 0 0 0 .166 2.973 16.4 16.4 0 0 1 .698 3.37 29 29 0 0 1-.45 6.725c-.316 2.02-.636 4.047-1.1 6.04a22.5 22.5 0 0 1-2.075 5.766c-.773 1.41-2.167 3.623-4.047 3.492-1.773-.124-1.935-2.458-1.984-3.801-.085-2.305-.154-4.609-.269-6.912-.232-4.68-.588-9.353-1.096-14.012-.494-4.53-1.531-9.1-.952-13.668.287-2.264.687-4.508.917-6.78.236-2.336.383-4.68.504-7.023.119-2.296.255-4.595.28-6.894.025-2.29-.292-4.526-.398-6.805a13.6 13.6 0 0 1 1.674-6.43c.961-2.098 1.945-4.187 2.89-6.293.456-1.016.889-2.004 1.255-3.055.04-.117-.127-.173-.19-.08a55 55 0 0 0-2.886 4.993c.07-.3.149-.599.21-.903.512-2.552.835-5.139 1.121-7.724a117 117 0 0 1 2.334-15.24c2.451-9.959 6.696-19.337 10.24-28.926a94 94 0 0 0 3.623-11.704c-.074 2.103-.138 4.206-.25 6.309-.008.137.19.128.207 0 .464-3.62 1.085-7.217 1.52-10.841.414-3.434.458-7.062 1.863-10.279 1.311-3.003 3.332-5.656 4.82-8.573a55.4 55.4 0 0 0 3.656-9.215 57 57 0 0 0 1.338-5.277 52 52 0 0 0 .665-5.448.023.023 0 0 0-.045-.006c-.302 1.665-.761 3.277-1.193 4.91-.423 1.597-.862 3.184-1.39 4.75a56 56 0 0 1-.897 2.456c2.041-8.806 3.617-17.709 5.852-26.476 1.165-4.572 2.478-9.102 3.857-13.614 1.385-4.534 2.81-9.062 3.87-13.688 1.056-4.607 1.79-9.278 2.587-13.935.788-4.6 1.693-9.175 2.747-13.72 2.108-9.09 4.788-18.029 7.691-26.89 2.234-6.818 4.736-13.54 7.12-20.305-.236-.042-.474-.08-.71-.124-2.202 5.543-4.278 11.139-6.292 16.748-3.153 8.781-6.01 17.674-8.33 26.716a201 201 0 0 0-3.04 13.724c-.86 4.692-1.556 9.414-2.489 14.094-1.849 9.282-4.955 18.256-7.335 27.405a323 323 0 0 0-3.313 13.911 106 106 0 0 0-2.423 13.937c-.088 1.156-.24 2.307-.328 3.464-.001.012.007.018.01.028a70 70 0 0 1-2.6 5.544q-1.148 2.19-2.452 4.287a41 41 0 0 0-2.45 4.244c-1.415 3.04-1.728 6.399-1.965 9.706-.084 1.174-.144 2.35-.196 3.525-.551 1.718-1.1 3.438-1.671 5.148-.804 2.405-1.75 4.755-2.655 7.123-1.826 4.778-3.793 9.501-5.655 14.266A141 141 0 0 0 8.54 198.2a96 96 0 0 0-2.634 15.14c-.306 2.878-.6 5.76-1.105 8.61-.253 1.424-.583 2.83-.897 4.242-.209.937-.398 1.878-.593 2.818l-.005.009a17 17 0 0 0-1.463 3.024c-.72 2.292-.19 4.654-.042 6.985a66 66 0 0 1-.078 7.294 136 136 0 0 1-1.264 14.457 27.3 27.3 0 0 0-.355 7.115c.253 2.424.689 4.83.992 7.249.612 4.876.997 9.778 1.258 14.685.128 2.409.224 4.819.3 7.23.05 1.594.142 3.512 1.377 4.689 1.397 1.33 3.345.897 4.738-.184a9.2 9.2 0 0 0 2.25-2.736c.762 4.321 1.87 8.605 2.848 12.876.531 2.317 1.048 4.637 1.616 6.946.437 1.776 1.054 3.62 2.67 4.654a3.8 3.8 0 0 0 4.577-.492 10.8 10.8 0 0 0 2.847-4.708c.1-.27.18-.546.27-.819.603 1.908 1.734 3.836 4.004 3.736 2.527-.111 3.65-3.27 4.21-5.301.105-.385.171-.778.252-1.168a1.68 1.68 0 0 0 .94.707 2.25 2.25 0 0 0 2.204-.761 14.1 14.1 0 0 0 2.75-5.342 29.9 29.9 0 0 0 .893-12.337 37 37 0 0 1-.606-7.171c.207-2.46.764-4.879.977-7.343q.155-1.794.19-3.596a24 24 0 0 1 .153-3.773c.198-1.101.594-2.159.847-3.248a31 31 0 0 0 .547-3.187c.316-2.536.378-5.093.57-7.64a44 44 0 0 1 1.233-7.567.34.34 0 0 0-.167-.37 13.6 13.6 0 0 0 1.332-2.423 21.5 21.5 0 0 0 1.494-6.474c.195-2.472-.346-4.982.04-7.435a18 18 0 0 1 .552-2.318c.58-.528 1.158-1.06 1.69-1.634.776-.837 1.489-1.73 2.203-2.62.698-.87 1.395-1.742 2.068-2.631a3.8 3.8 0 0 1 .99-1.042 13 13 0 0 1 1.244-.578 14.6 14.6 0 0 0 4.475-3.305 8.6 8.6 0 0 0 1.532-2.192l.029-.061a2.6 2.6 0 0 1 .286.323 7.8 7.8 0 0 0 1.346 2.028 2 2 0 0 0 .649.35 20 20 0 0 0 .603 4.125c.329 1.589.663 3.176.986 4.766a12 12 0 0 1 .306 2.313c.006.798-.13 1.587-.2 2.38a14.2 14.2 0 0 0 .313 4.316 32 32 0 0 0 3.418 8.171c1.348 2.488 2.71 4.962 4.986 6.72a13 13 0 0 0 3.454 1.904 5.46 5.46 0 0 0 3.843.311c2.335-.93 2.791-3.998 3.03-6.176a36.6 36.6 0 0 0-.505-9.474c-.235-1.549-.468-3.103-.8-4.634-.322-1.485-.859-2.879-1.306-4.325a18.4 18.4 0 0 1-.535-5.078q-.07-2.732-.286-5.457a112 112 0 0 0-.584-5.577 38 38 0 0 0-.669-4.053c.065-.649.125-1.298.167-1.949a18.6 18.6 0 0 0 .09-2.883 5.1 5.1 0 0 0-1.02-2.448 14 14 0 0 1-1.356-2.267 18 18 0 0 1-.874-2.745q-.794-3.01-1.731-5.983-1.868-5.958-4.19-11.76-1.118-2.788-2.334-5.536a20 20 0 0 1-1.037-2.711 11.6 11.6 0 0 1-.34-3.234c.018-1.915-.072-3.834-.189-5.75q.446-3.229.976-6.444c.498-2.984.939-5.974 1.646-8.919a66.8 66.8 0 0 1 6.958-16.809c6.26-11.278 12.695-22.46 18.998-33.715q9.525-17.006 19.048-34.013c6.107-10.935 12.277-21.842 18.108-32.93 2.806-5.336 5.49-10.74 7.96-16.242 1.613-3.597 3.183-7.248 4.562-10.96-.317-.012-.633-.031-.95-.046M58.048 223.167a25 25 0 0 0 .034-2.585 29 29 0 0 0-.258-3.116 7 7 0 0 0 1.104.277l.11.077c.027.714.077 1.428.102 2.142.028.769.028 1.539.033 2.309a14 14 0 0 1-1.125.896m1.233-.998c.05-.753.07-1.509.05-2.264a20 20 0 0 0-.15-1.984c.38.28.762.558 1.16.813.045.029.096.055.142.083l.007.105q.031.464.046.93c.011.336.015.673.024 1.01-.41.451-.826.894-1.28 1.307m1.787-1.864-.327.358a18 18 0 0 0-.067-1.63q-.006-.054-.01-.109c.339.2.691.395 1.029.612-.244.279-.461.59-.625.769"/><path fill="currentColor" d="m21.84 319.183-.511-.274-1.059-.568c-.027-.015-.05.026-.024.04l1.047.589.506.284a2.2 2.2 0 0 0 .524.26.017.017 0 0 0 .017-.029 2.1 2.1 0 0 0-.5-.302m1.08-1.034a2.3 2.3 0 0 0-.629-.442 8 8 0 0 0-.733-.389 11 11 0 0 0-1.486-.57c-.008-.002-.011.01-.003.013a11 11 0 0 1 1.48.672q.341.188.672.395a3.6 3.6 0 0 0 .653.4c.05.018.073-.046.046-.08m.36-2.016a10 10 0 0 0-.901-.51 14 14 0 0 0-1.835-.773c-.043-.014-.06.051-.018.067a13 13 0 0 1 1.801.854c.282.162.557.335.83.51q.205.134.406.27a1.2 1.2 0 0 0 .384.206.042.042 0 0 0 .046-.06 2.04 2.04 0 0 0-.714-.564m.546-1.942a13 13 0 0 0-.516-.338c-.35-.216-.715-.411-1.084-.593a14.5 14.5 0 0 0-2.24-.879c-.024-.007-.034.03-.01.038a14.4 14.4 0 0 1 2.204.993c.339.188.668.393.992.606q.244.158.48.327a.9.9 0 0 0 .441.215.037.037 0 0 0 .035-.047.73.73 0 0 0-.302-.322m.045-2.433a10 10 0 0 1-.682-.317q-.625-.32-1.248-.642a16 16 0 0 0-2.623-1.037c-.02-.006-.036.027-.015.036.871.377 1.733.775 2.606 1.148q.648.276 1.267.61a6 6 0 0 1 .597.37c.162.114.33.281.539.255a.064.064 0 0 0 .054-.094c-.084-.194-.313-.252-.495-.329m-2.629-3.829a9.6 9.6 0 0 0-1.346-.469c-.012-.003-.02.015-.009.02.433.199.857.416 1.293.605.441.192.887.371 1.326.568a.015.015 0 0 0 .015-.026 12 12 0 0 0-1.279-.698m3.234 1.594a1 1 0 0 0-.119-.085 2 2 0 0 0-.258-.141 6 6 0 0 0-.538-.221c-.04-.014-.055.047-.017.063a3 3 0 0 1 .516.258q.115.079.232.153a1 1 0 0 0 .123.078.2.2 0 0 0 .115.03c.015-.002.02-.019.018-.031a.2.2 0 0 0-.072-.104m-.67-3.326a.9.9 0 0 0-.297-.173q-.173-.08-.346-.156c-.231-.1-.463-.195-.695-.293q-.729-.31-1.454-.624c-.035-.015-.066.034-.03.052q.701.348 1.4.7.338.173.675.343.17.083.342.163a.9.9 0 0 0 .348.125.081.081 0 0 0 .057-.137m-.712-3.13c-.093-.046-.191-.083-.287-.124-.191-.08-.382-.16-.577-.232l-1.203-.449c-.013-.005-.023.017-.01.024l1.155.563q.28.135.566.258c.089.038.177.08.267.115a.45.45 0 0 0 .28.058.042.042 0 0 0 .025-.06c-.04-.082-.138-.115-.216-.153m-1.433-4.171a4 4 0 0 0-.208-.07l-.435-.131c-.014-.005-.019.016-.006.02l.419.16q.102.038.207.071a2 2 0 0 0 .217.066c.02.004.036-.025.015-.036a2 2 0 0 0-.21-.08m-.278-2.964-.038.005-.038.012-.07.022-.144.046c-.034.011-.019.067.015.055l.143-.05a.7.7 0 0 0 .14-.057c.014-.009.01-.034-.008-.033m9.711 19.922c-.105-.081-.217-.154-.327-.227a8 8 0 0 0-.729-.422 12 12 0 0 0-1.488-.641c-.012-.004-.02.015-.009.02a10 10 0 0 1 1.426.743c.224.141.443.291.663.44q.158.11.315.222a.6.6 0 0 0 .32.155.04.04 0 0 0 .038-.05.5.5 0 0 0-.21-.24m.607-2.049a6 6 0 0 0-.322-.277 7 7 0 0 0-.652-.462 8 8 0 0 0-1.444-.721c-.025-.01-.043.033-.018.043a8 8 0 0 1 1.389.76c.223.153.436.32.644.492q.147.12.288.248a.9.9 0 0 0 .286.208.028.028 0 0 0 .034-.034.7.7 0 0 0-.205-.257m.074-2.633a5 5 0 0 0-.619-.384 8 8 0 0 0-1.295-.55c-.022-.008-.03.025-.01.033a6.7 6.7 0 0 1 1.225.654c.186.125.363.262.543.395a3 3 0 0 0 .564.386c.043.018.095-.022.068-.069a1.6 1.6 0 0 0-.476-.465m.372-1.93a4.2 4.2 0 0 0-.88-.466q-.456-.193-.916-.382c-.025-.01-.042.03-.018.043.295.158.589.32.887.473a4.3 4.3 0 0 0 .907.38.026.026 0 0 0 .02-.048m-.413-3.062q-.134-.075-.272-.14l-.55-.269a.01.01 0 0 0-.01.02l.513.33q.128.083.261.158a.53.53 0 0 0 .26.108.03.03 0 0 0 .024-.042c-.042-.082-.15-.122-.226-.165m.068-2.149a1 1 0 0 0-.192-.119 2 2 0 0 0-.42-.132.015.015 0 0 0-.009.029 2 2 0 0 1 .384.194c.058.037.118.07.174.11q.044.031.09.058a1 1 0 0 0 .092.05c.023.009.038-.018.03-.037a.5.5 0 0 0-.149-.153m-.171-2.439-.064-.029q-.062-.024-.125-.044l-.256-.09c-.028-.01-.047.036-.02.048l.247.111q.06.029.12.054l.062.022a.07.07 0 0 0 .067 0 .024.024 0 0 0 .01-.028.07.07 0 0 0-.041-.044m4.915 9.59c-.005-.006-.016 0-.011.007a1.7 1.7 0 0 0 .763.563c.008.003.01-.01.003-.013a1.7 1.7 0 0 1-.755-.557m.977-1.248-.36-.289c-.232-.187-.472-.366-.71-.548-.011-.009-.026.01-.015.02.232.2.461.402.698.596l.344.283a2.3 2.3 0 0 0 .364.269.017.017 0 0 0 .02-.027 2.3 2.3 0 0 0-.342-.304m.879-1.748c-.267-.16-.54-.308-.811-.458-.315-.175-.634-.343-.95-.514a.01.01 0 0 0-.012.019c.527.34 1.048.693 1.59 1.008q.095.059.192.113c.038.02.093.054.132.015.079-.078-.095-.156-.141-.183m.117-1.963a9 9 0 0 0-.343-.216q-.34-.205-.684-.407c-.012-.008-.022.01-.01.018q.324.233.652.462.16.113.326.219a1.5 1.5 0 0 0 .335.188.024.024 0 0 0 .024-.04 1.4 1.4 0 0 0-.3-.224m-.175-2.238c-.024-.015-.045.023-.022.038.192.12.38.246.58.355a.015.015 0 0 0 .014-.027c-.184-.13-.38-.246-.572-.366m.281-2.738c-.012-.007-.023.012-.01.019l.559.293c.012.007.023-.012.01-.018Zm-30.927-4.484q-.455-.484-.954-.922a.022.022 0 0 0-.03.03c.604.632 1.108 1.347 1.705 1.984.022.024.058-.006.044-.034a4.8 4.8 0 0 0-.765-1.058m.403-3.185a5 5 0 0 0-.33-.357 5 5 0 0 0-.77-.575c-.022-.014-.049.02-.028.038.24.206.446.443.667.67q.162.164.314.338a2 2 0 0 0 .339.323.033.033 0 0 0 .048-.037 1.3 1.3 0 0 0-.24-.4m1.248 1.763-.167-.209q-.17-.214-.331-.433a.03.03 0 0 0-.052.03c.085.16.172.32.252.483q.059.123.121.244a.3.3 0 0 0 .093.125.3.3 0 0 0 .108.037.04.04 0 0 0 .038-.021.1.1 0 0 0 .011-.05l.003-.058a.3.3 0 0 0-.076-.148m1.222-2.906q-.17-.2-.343-.395-.355-.401-.728-.787a12 12 0 0 0-.757-.722c-.274-.237-.572-.436-.856-.659-.028-.021-.066.014-.04.04.245.247.464.522.7.778q.356.382.715.762.349.372.682.757.17.198.337.4a1.7 1.7 0 0 0 .354.366l.002.002.011.01.003-.008c.09.045.235-.017.19-.141a1.4 1.4 0 0 0-.27-.403m.734-3.094a8 8 0 0 0-.4-.542 13 13 0 0 0-.913-1.028 14 14 0 0 0-2.103-1.696c-.016-.011-.036.014-.02.027a18 18 0 0 1 1.89 1.903q.44.5.844 1.03l.417.549a.96.96 0 0 0 .42.38.072.072 0 0 0 .09-.069.94.94 0 0 0-.225-.554m.67-3.485a9 9 0 0 0-.794-.91 15 15 0 0 0-.875-.849 23 23 0 0 0-1.88-1.485c-.03-.023-.07.03-.041.055a23 23 0 0 1 1.697 1.655c.266.28.522.57.78.856.272.3.52.628.801.92a.2.2 0 0 0 .24.031.1.1 0 0 0 .041-.031.21.21 0 0 0 .031-.242m.174-3.789c-.152-.143-.292-.298-.44-.446a20 20 0 0 0-.908-.862 18 18 0 0 0-1.941-1.494c-.02-.013-.046.019-.026.034a33 33 0 0 1 2.767 2.431c.14.14.284.277.413.426a1.8 1.8 0 0 0 .427.434.063.063 0 0 0 .086-.086 1.5 1.5 0 0 0-.378-.437m-.323-3.906a7 7 0 0 0-.514-.447 10 10 0 0 0-1.108-.754c-.024-.014-.044.022-.022.038a8.6 8.6 0 0 1 1.023.848q.232.224.454.458a1.8 1.8 0 0 0 .473.437.064.064 0 0 0 .092-.071 1.3 1.3 0 0 0-.398-.509m-.902-4.959-.054-.067c-.048-.067-.016.013.001-.009a.04.04 0 0 0-.038-.065.4.4 0 0 0-.072.026 8 8 0 0 0-.664-.416 9 9 0 0 0-.925-.467 9 9 0 0 0-1.903-.58c-.014-.002-.02.018-.006.021a7.7 7.7 0 0 1 1.84.677 8 8 0 0 1 .809.486c.277.191.515.422.775.633.164.134.399-.086.238-.239m.549-.201a3.8 3.8 0 0 0-.768-.697 7 7 0 0 0-1.86-1.012c-.006-.002-.008.006-.003.008a6.3 6.3 0 0 1 1.396.723 7 7 0 0 1 .613.486q.146.132.286.271l.125.123.077.078c.056.058.046.048.059.156a.028.028 0 0 0-.057 0c-.004.128.285.07.131-.136m-1.662-23.867c-.03-.007-.043.038-.013.046a10 10 0 0 1 2.47 1.057c.02.012.036-.017.018-.03a6.6 6.6 0 0 0-2.475-1.073m12.226 20.062a.98.98 0 0 1-.476-.574 1.2 1.2 0 0 0-.2-.446 1.3 1.3 0 0 0-.447-.242 7 7 0 0 0-.729-.256 13.4 13.4 0 0 0-2.934-.413c-.015 0-.018.024-.004.026a21 21 0 0 1 2.819.648c.233.066.467.125.702.187a1.6 1.6 0 0 1 .347.098c.137.076.167.218.217.352a1.2 1.2 0 0 0 .537.57c-.705-.225-1.432-.39-2.151-.568l-1.14-.28c-.394-.097-.781-.227-1.177-.318-.154-.035-.22.2-.066.239.395.1.799.16 1.196.253l1.142.269c.777.182 1.555.388 2.343.505.028.004.051-.035.021-.05m8.974 3.159q-.534-.215-1.086-.38a14 14 0 0 0-2.231-.47c-.034-.003-.042.055-.008.06a12 12 0 0 1 2.153.58q.545.203 1.068.456.235.114.467.23a.83.83 0 0 0 .471.144.066.066 0 0 0 .056-.098c-.15-.29-.604-.407-.89-.522m-1.245.482a.007.007 0 0 0-.003.013c.654.208 1.307.413 1.978.56a.015.015 0 0 0 .008-.028c-.65-.221-1.316-.383-1.983-.545m7.538.917a5.4 5.4 0 0 0-2.55-.183c-.02.004-.014.034.005.034q.638.017 1.276.06c.424.028.84.102 1.262.144.033.004.035-.045.007-.055m-7.504 19.235a7.1 7.1 0 0 0-2.757-1.086c-.043-.009-.062.056-.019.067a11 11 0 0 1 1.384.46c.462.187.91.402 1.368.6a.024.024 0 0 0 .024-.04m-12.268-2.403c-.019-.012-.036.018-.017.03.44.282.874.575 1.326.836.015.008.027-.013.013-.023-.428-.298-.88-.566-1.322-.843m2.66 1.065-.21-.147a19 19 0 0 0-.4-.27l-.83-.547c-.013-.008-.023.01-.012.018l.81.585q.195.14.395.276l.212.145a.8.8 0 0 0 .198.115c.018.005.027-.017.017-.03a1 1 0 0 0-.18-.145m.452-.695c-.015-.01-.028.013-.014.022l.284.187c.011.008.022-.01.01-.018Zm6.989-37.8c-.018-.024-.058-.002-.041.024.458.68.87 1.39 1.288 2.096.014.024.048.003.037-.022a11.4 11.4 0 0 0-1.284-2.098m-1.819 7.294a.009.009 0 0 0-.015.008c.626 1.118 1.185 2.27 1.767 3.411.01.02.038.003.03-.017a28 28 0 0 0-1.782-3.402m.58 3.674c-.005-.01-.02 0-.014.008l.47.663c.004.007.015 0 .01-.007zm27.303-45.622a.028.028 0 0 0-.056 0q-.036 1.441-.044 2.882c-.005.96-.05 1.924.024 2.882a.024.024 0 0 0 .047 0 23 23 0 0 0 .111-2.882q.005-1.442-.082-2.882m-1.265.188a.009.009 0 0 0-.017 0 47 47 0 0 0-.153 2.457 22 22 0 0 0-.009 2.457.022.022 0 0 0 .043 0 22 22 0 0 0 .14-2.457c.014-.82.025-1.637-.004-2.457m-1.208-.093c-.045.674-.097 1.347-.124 2.022-.014.337-.032.674-.04 1.011a4.5 4.5 0 0 0 .03.94.024.024 0 0 0 .045 0 4.5 4.5 0 0 0 .092-.94c.014-.337.018-.674.026-1.01.017-.675.01-1.349.01-2.023a.02.02 0 0 0-.04 0m-1.122-.189c-.002-.013-.022-.014-.022 0 .01.459-.014.914-.03 1.372q-.013.336-.037.672a4 4 0 0 0-.022.696.026.026 0 0 0 .05.007 4.6 4.6 0 0 0 .142-1.348 11 11 0 0 0-.081-1.399m-1.026-.094c-.002-.025-.04-.026-.039 0q.021.53 0 1.062c-.006.177-.01.354-.021.531a2.3 2.3 0 0 0-.014.494c.003.021.031.016.037 0a1.8 1.8 0 0 0 .063-.494c.01-.177.02-.354.02-.531q-.001-.533-.046-1.062m-.765-1.042c.005-.016-.02-.023-.025-.007a1.7 1.7 0 0 0-.07.86c.001.015.022.009.02-.005a1.7 1.7 0 0 1 .075-.848m-8.278 13.383c.018-.24-.197-.44-.342-.63-.21-.277-.43-.541-.65-.81-.5-.606-.956-1.247-1.412-1.886q-1.31-1.837-2.631-3.664c-.015-.02-.048-.002-.034.02q1.271 1.899 2.547 3.795c.42.62.84 1.241 1.217 1.89.178.305.353.609.54.909a5.3 5.3 0 0 1-1.116-.7 7 7 0 0 0-.596-.51c-.27-.186-.376-.085-.611-.286-1.809-1.55-3.042-3.658-5.079-4.967-.014-.009-.026.013-.013.023a13 13 0 0 1 2.635 2.774 46 46 0 0 0 2.152 2.589c.18.204.187.419.401.606a3 3 0 0 0 .621.408 11.3 11.3 0 0 0 1.687.692 7.6 7.6 0 0 1 2.065.892 14 14 0 0 1 1.658 1.484c.019.017.044-.009.028-.028a9.7 9.7 0 0 0-3.067-2.6m6.393-3.129a29 29 0 0 0-3.202-2.407q-1.66-1.182-3.403-2.239c-.01-.005-.018.01-.01.015a40 40 0 0 1 3.303 2.367c1.032.826 1.924 1.797 2.926 2.652.263.228.644-.143.386-.388m2.498-40.782c-.01-.026-.05-.016-.042.011.352 1.312.643 2.646.885 3.983a.037.037 0 0 0 .072-.01 13.6 13.6 0 0 0-.915-3.984m-2.839-2.451c-.01-.027-.05-.016-.042.011.965 3.208 1.71 6.466 2.433 9.735.007.034.054.019.05-.013a58.6 58.6 0 0 0-2.441-9.733m-.221 7.138-.493-1.709-.967-3.354a.02.02 0 0 0-.038.01l.881 3.379.433 1.657a9 9 0 0 0 .478 1.59.048.048 0 0 0 .088-.025 8.7 8.7 0 0 0-.382-1.548m1.122 4.908c-.048-.211-.11-.42-.168-.63q-.181-.653-.353-1.308c-.013-.047-.08-.027-.071.02q.133.666.258 1.334c.04.214.076.43.127.642a1.26 1.26 0 0 0 .21.588.041.041 0 0 0 .069-.018 1.3 1.3 0 0 0-.072-.627m-1.898 1.632q-.279-1.438-.574-2.872a200 200 0 0 0-1.248-5.611c-.006-.025-.043-.015-.038.01q.603 2.756 1.158 5.524.28 1.382.544 2.768a27 27 0 0 0 .547 2.765c.01.031.062.027.06-.008a21 21 0 0 0-.45-2.576m-2.049-.186a142 142 0 0 0-.979-5.371c-.003-.016-.028-.01-.025.007q.478 2.638.893 5.288c.279 1.762.463 3.545.798 5.296a.015.015 0 0 0 .03-.004c-.12-1.746-.439-3.49-.717-5.216m-1.236 4.943q-.139-1.093-.305-2.181a77 77 0 0 0-.85-4.544c-.007-.033-.056-.02-.05.014a100 100 0 0 1 .753 4.48q.175 1.2.32 2.404a15 15 0 0 0 .284 2.089.022.022 0 0 0 .042-.006 12 12 0 0 0-.194-2.256m-2.5-3.412c-.004-.022-.041-.017-.039.005.255 2.295.359 4.605.612 6.899a.028.028 0 0 0 .057 0 35.3 35.3 0 0 0-.63-6.904m-1.661 2.647c-.002-.013-.023-.014-.022 0 .088 1.953.092 3.911.22 5.861a.026.026 0 0 0 .052 0 32.7 32.7 0 0 0-.25-5.86m-1.462 3.121a.01.01 0 0 0-.022 0c.001 1.764-.133 3.533-.306 5.288a.024.024 0 0 0 .047.007 22.5 22.5 0 0 0 .28-5.295m-3.31 6.869c-.037-.796-.013-1.587.007-2.384.042-1.589.057-3.178.068-4.768a.026.026 0 0 0-.052 0 249 249 0 0 0-.12 4.768c-.01.797-.018 1.59-.086 2.384a6.2 6.2 0 0 0-.047 2.228.1.1 0 0 0 .191 0 6.2 6.2 0 0 0 .04-2.228m-2.131 2.814a19 19 0 0 1-.043-2q.035-1.999.058-3.997c0-.014-.02-.014-.021 0a38 38 0 0 0-.115 3.998c.017.666.044 1.333.024 2a6.7 6.7 0 0 0 .046 1.865c.018.074.146.084.158 0a8.2 8.2 0 0 0-.107-1.866m-1.983 3.426c-.013-.553.016-1.108.028-1.661.025-1.108.022-2.215.015-3.323a.01.01 0 0 0-.021 0 117 117 0 0 0-.06 3.323c0 .553.016 1.109-.01 1.661a4.2 4.2 0 0 0-.029 1.544.037.037 0 0 0 .071 0 4.2 4.2 0 0 0 .007-1.544m-1.817-.732a19 19 0 0 0-.216 2.454c0 .02.034.027.038.005a19 19 0 0 0 .225-2.459c.001-.031-.044-.03-.047 0m-.329 4.884-.037-.214c-.025-.142-.065-.282-.099-.422a.015.015 0 0 0-.03.004c.008.144.009.29.025.432l.024.216a.6.6 0 0 0 .044.206.048.048 0 0 0 .088-.011.6.6 0 0 0-.015-.211m-2.101.496c-.003-.02-.036-.015-.034.005a3.4 3.4 0 0 1 .009.607c-.016.208-.056.412-.085.618a.017.017 0 0 0 .033.01 2 2 0 0 0 .108-.617 3.4 3.4 0 0 0-.031-.623M4.108 236.287c-.144-.957-.318-1.91-.468-2.866-.004-.024-.043-.018-.042.006.035.99.087 1.974.212 2.956a10 10 0 0 0 .552 2.745c.02.045.082.018.084-.023a14 14 0 0 0-.338-2.818m1.6 1.474-.134-.63q-.125-.583-.231-1.171c-.147-.812-.294-1.623-.405-2.441-.002-.015-.027-.011-.026.003.055.816.125 1.632.25 2.44q.096.614.213 1.225.06.315.132.63a.8.8 0 0 0 .178.445.035.035 0 0 0 .058-.015.85.85 0 0 0-.035-.486m.96-1.341a4 4 0 0 1-.093-.492c-.05-.318-.096-.636-.154-.953-.117-.644-.233-1.287-.37-1.927-.005-.022-.037-.012-.033.01.091.636.203 1.269.314 1.902.053.303.116.605.177.906.03.152.061.302.082.455a1 1 0 0 1-.001.355.8.8 0 0 0-.027.245c.024.237.378.184.319-.044-.044-.167-.167-.288-.214-.458m1.027-2.715c-.05-.287-.135-.567-.21-.849-.006-.02-.04-.017-.038.006.02.285.028.574.074.856a7 7 0 0 0 .195.853.035.035 0 0 0 .068-.01 7 7 0 0 0-.09-.856"/></svg>