<svg xmlns="http://www.w3.org/2000/svg" data-name="shark" viewBox="0 0 245.708 511.811"><path fill="currentColor" d="M243.433 235.412c-1.775-2.872-4.478-5.167-6.991-7.373a41 41 0 0 0-6.636-5.163c-.153-.286-.316-.567-.464-.857-1.338-2.612-2.503-5.634-5.248-7.084-2.593-1.37-5.655-1.095-8.423-.503-3.351.716-6.648 1.765-9.951 2.673l-5.394 1.483a36 36 0 0 0-4.672 1.537 13.2 13.2 0 0 0-6.247 5.504c-2.44 4.147-3.032 9.224-2.908 14.036a17 17 0 0 1-.542.935c-.412.656-.86 1.295-1.312 1.924-.715.993-1.595 2.537-2.859 2.878-1.326.359-2.496-.853-3.283-1.75-.523-.597-.955-1.276-1.507-1.846a7.4 7.4 0 0 0-.876-.747q-.163-1.072-.33-2.146c-.015-1.586-.033-3.165-.172-4.75a64.7 64.7 0 0 0-1.485-10.716c-.872-3.344-2.283-6.504-2.895-9.92-.292-1.626-.437-3.267-.594-4.91-.167-1.734-.354-3.466-.506-5.202l-.144-1.665a31 31 0 0 0-.091-3.293q-.555-6.353-1.312-12.686-1.505-12.598-3.786-25.088a310 310 0 0 0-1.373-6.968 23 23 0 0 0-.937-3.418 14 14 0 0 0-.591-1.307 10 10 0 0 0 .569-1.259 10.3 10.3 0 0 0 .381-3.14 60 60 0 0 0-.153-6.019c-.275-3.955-.756-7.895-1.1-11.845q-1.073-12.277-1.4-24.607c-.062-2.303-.29-4.561-.475-6.855l-.016-.178q.03-.284.057-.572a51 51 0 0 0 .125-6.076 81 81 0 0 0-1.533-12.373 168 168 0 0 0-2.617-11.356 40.4 40.4 0 0 0-3.437-9.004 18.5 18.5 0 0 0-3.078-4.155 10.5 10.5 0 0 0-2.554-1.904 68 68 0 0 0-.153-1.83 212 212 0 0 0-2.013-14.883c-1.584-9.236-4.193-18.642-9.88-26.256-2.63-3.523-6.324-7.279-11.132-6.597a7.04 7.04 0 0 0-4.87 2.875 5 5 0 0 0-.704 1.619 3.3 3.3 0 0 0-.568.52 6.4 6.4 0 0 0-1.082 1.975 11 11 0 0 0-.511 2.497l-.034.318a7.37 7.37 0 0 0-4.582-.013c-1.725.679-2.32 2.147-2.676 3.755a9 9 0 0 0-1.029 1.189 11.6 11.6 0 0 0-1.62 2.799 17.7 17.7 0 0 0-.908 7.282 120 120 0 0 0 1.39 15.883c.2 1.203.443 2.392.706 3.575.166 4.875.36 9.75.347 14.628a148 148 0 0 1-1.013 16.569c-.551 4.786-1.202 9.75-.478 14.551q-1.65 10.062-3.324 20.12c-.786 4.672-1.635 9.34-2.799 13.935-1.151 4.548-2.84 8.934-4.006 13.476a33.6 33.6 0 0 0-1.08 6.768 27.8 27.8 0 0 0 .73 7.054c.97 4.616 2.543 9.101 3.721 13.667.157.604.302 1.211.452 1.817.673 11.841 1.866 23.791-.159 35.513a48 48 0 0 1-2.735 9.826c-1.286 3.178-3.099 6.116-4.287 9.337a40 40 0 0 0-1.99 10.289c-.335 3.708-.607 7.42-1.017 11.121-1.681 15.182-4.396 30.263-6.906 45.325-2.482 14.895-5.114 29.77-8.287 44.535-1.591 7.405-3.388 14.755-5.203 22.108-.835 3.382-1.613 6.77-2.165 10.184-.91 2.226-1.507 4.552-2.373 6.8a206 206 0 0 1-2.686 6.594 73 73 0 0 1-6.892 12.563 70 70 0 0 1-9.236 10.924c-3.593 3.46-7.556 6.58-10.465 10.682-2.965 4.181-4.396 9.188-5.585 14.11-1.27 5.261-2.569 10.502-4.118 15.69a327 327 0 0 1-11.176 31.019 603 603 0 0 1-6.481 15.076c-1.125 2.53-2.3 5.042-3.334 7.612-1.028 2.557-1.92 5.167-2.976 7.712-.511 1.232-.98 2.48-1.473 3.718-.082.206.255.345.357.151 2.562-4.901 5.322-9.716 7.59-14.763q3.387-7.538 6.617-15.145c4.29-10.172 8.275-20.483 11.601-31.014a236 236 0 0 0 4.432-15.876c1.186-4.935 2.186-10.038 4.581-14.564 2.392-4.52 6.251-7.853 9.964-11.259a76.5 76.5 0 0 0 9.72-10.697 72 72 0 0 0 7.368-12.29 60 60 0 0 0 2.685-6.724 44 44 0 0 0 1.22-4.734 42.3 42.3 0 0 0 .624 11.445c.038.216.397.168.383-.051-.485-7.506 1.055-15.115 2.719-22.4 1.684-7.375 3.637-14.683 5.28-22.069 3.281-14.74 5.984-29.603 8.498-44.491 2.523-14.94 5.151-29.898 7.074-44.929a278 278 0 0 0 1.234-11.371 91 91 0 0 1 1.219-10.824 42.4 42.4 0 0 1 3.901-9.928 47.2 47.2 0 0 0 3.425-9.318 73.5 73.5 0 0 0 1.75-20.347c-.11-3.159-.26-6.344-.477-9.527q1.628 8.33 2.581 16.78c.255 2.263.498 4.512.821 6.766.058.407.691.293.698-.094a103 103 0 0 0-.96-13.956q-.82-6.915-2.104-13.764-1.293-6.896-3.085-13.685c-1.163-4.42-2.575-8.763-2.554-13.384.02-4.368 1.367-8.601 2.693-12.72a128 128 0 0 0 3.581-13.278c1.92-9.257 3.244-18.65 4.78-27.977 1.508-9.16 2.688-18.489 5.38-27.398a76.6 76.6 0 0 1 4.917-12.295 44 44 0 0 1 3.065-5.418c.899-1.29 2.198-2.649 3.9-2.567 1.731.083 3.149 1.513 4.165 2.785a28.4 28.4 0 0 1 2.989 4.864 40 40 0 0 1 3.644 11.01 40.4 40.4 0 0 1-2.64 22.727 49 49 0 0 0-2.239 6.068 25 25 0 0 0-.695 6.755c.073 4.747.366 9.499.56 14.242.178 4.38.493 8.778.475 13.162a27.5 27.5 0 0 1-1.69 9.792 11 11 0 0 1-.65 1.397c-.152.164-.297.336-.459.488-1.244 1.17-2.725 2.032-4.035 3.123-2.824 2.351-5.729 4.815-9.338 5.848-.105.03-.058.172.043.158 3.88-.522 7.343-2.563 10.449-4.862a18.4 18.4 0 0 0 2.049-1.78c.62-.449 1.319-.766 1.93-1.246 3.019 4.25 3.45 9.718 4.363 14.748 1.262 6.944 2.407 13.938 3.879 20.84a22.1 22.1 0 0 0 3.772 8.744c1.815 2.45 3.941 4.648 5.768 7.09a64.6 64.6 0 0 1 8.64 16.024 88 88 0 0 1 3.112 9.79 58.6 58.6 0 0 1 1.573 10.27.237.237 0 0 0 .475 0 60.3 60.3 0 0 0-1.975-18.493 57.1 57.1 0 0 0-8.122-16.874c-1.623-2.367-3.455-4.546-5.292-6.74-.093-.175-.18-.353-.275-.526a100 100 0 0 0-2.267-3.921q-1.07-1.767-2.229-3.48-.18-.555-.328-1.132a57 57 0 0 1-.482-2.102q1.664 2.41 3.275 4.853c1.988 3.03 3.884 6.118 5.852 9.16a.049.049 0 0 0 .084-.05 110 110 0 0 0-9.339-14.538c-.526-2.55-.926-5.136-1.398-7.689-.675-3.65-1.341-7.304-2.03-10.952a83 83 0 0 0-2.24-10.599c-.69-2.1-1.895-4.34-3.923-5.267a13 13 0 0 0 .952-1.158 12.05 12.05 0 0 0 1.876-4.898 51 51 0 0 0 .35-11.357l-.596-14.668c-.192-4.739-.842-9.715.568-14.324 1.247-4.073 3.268-7.824 4.248-11.994a42.07 42.07 0 0 0-1.3-23.585 33 33 0 0 0-.303-5.043c-.36-2.449-.859-4.869-1.413-7.28q-1.621-7.046-3.831-13.94c-2.223-6.91-5.553-14.397-12.086-18.013a9 9 0 0 0 .562-4.12c-.019-1.814.38-3.3 2.087-4.186 3.71-1.925 7.291 1.18 9.57 3.953a31 31 0 0 0-1.783-1.111 32.5 32.5 0 0 0-4.86-2.213c-.029-.01-.05.037-.021.05a42 42 0 0 1 4.615 2.46q1.09.657 2.137 1.377c.262.181.52.374.781.566.41.549.797 1.111 1.174 1.68q-.271-.197-.535-.386a36 36 0 0 0-2.257-1.494 33.4 33.4 0 0 0-4.715-2.357c-.037-.015-.062.046-.027.064a56 56 0 0 1 4.549 2.623 49 49 0 0 1 2.113 1.427c.494.355.985.749 1.5 1.092 3.993 6.43 6.073 13.933 7.43 21.333.837 4.556 1.438 9.159 1.974 13.759a59.5 59.5 0 0 1 .5 8.132c-.057 2.698-.481 5.365-.725 8.05-.486 5.363.08 10.789.393 16.148l.954 16.313c.287 4.912.733 9.847.66 14.771a37 37 0 0 1-.583 6.437 50 50 0 0 1-1.7 6.1 28 28 0 0 1-1.238 2.973.373.373 0 0 0 .583.45 11.6 11.6 0 0 0 1.844-1.883 10 10 0 0 0 .187 1.172c.268 1.336.609 2.657.911 3.986a129 129 0 0 1 1.495 7.724c.885 5.388 1.592 10.807 2.358 16.213l2.32 16.373 1.171 8.267a30.6 30.6 0 0 0 1.61 7.419c2.326 5.682 6.02 10.549 9.073 15.824.154.265.517.032.4-.234-1.095-2.512-2.042-5.082-3.028-7.638-.975-2.528-2.154-4.908-3.339-7.342a18 18 0 0 1-.902-2.277c.54.606 1.083 1.21 1.614 1.823 1.612 1.865 3.2 3.756 4.792 5.638.045.053.13-.016.095-.074a40 40 0 0 0-4.335-5.973c-.802-.917-1.618-1.833-2.506-2.67l-.06-.057a32 32 0 0 1-.681-3.521q-.576-4.046-1.147-8.092c-1.528-10.782-2.948-21.585-4.609-32.347-.456-2.956-.966-5.905-1.61-8.827a42 42 0 0 0-1.12-4.253c-.326-.976-.683-2.2-1.599-2.73a21.5 21.5 0 0 0 2.402-8.526 90.6 90.6 0 0 0-.194-14.485l-1.003-17.128c-.33-5.64-.933-11.347-.755-17 .09-2.807.542-5.578.767-8.373a40 40 0 0 0 .087-4.556c.267.323.529.65.8.972a21 21 0 0 1 2.407 3.667 40 40 0 0 1 3.066 8.32 109 109 0 0 1 4.166 22.496 53 53 0 0 1-.015 6.55 24.2 24.2 0 0 0 .04 6.44.33.33 0 0 0 .337.272l-.001.037c.058 4.079.214 8.16.426 12.235.423 8.113 1.272 16.171 1.959 24.262.183 2.162.313 4.33.298 6.5-.007 1.1-.153 2.215-.115 3.312a12 12 0 0 0 .306 2.014l-.007.028a10 10 0 0 0-.03 1.58 18.5 18.5 0 0 0 .39 3.183q.599 3.01 1.15 6.03c.766 4.182 1.503 8.369 2.157 12.57q1.946 12.512 3.088 25.13c.21 2.309.562 4.555.999 6.829a88 88 0 0 1 .716 4.462 38 38 0 0 0 .432 4.356 32.6 32.6 0 0 0 1.112 4.874c.505 1.622 1.104 3.213 1.597 4.839a51 51 0 0 1 1.675 10.466 74 74 0 0 0 .395 3.505c.218 2.598.402 5.195.697 7.786.3 2.646.626 5.29.945 7.933.322 2.679.876 5.305 1.32 7.961.5 2.978.96 5.968 1.471 8.944.023.133.245.103.236-.032-.182-2.684-.47-5.36-.633-8.045-.164-2.68-.202-5.375-.518-8.046-.314-2.644-.615-5.29-.946-7.933-.048-.384-.108-.764-.16-1.147.335.427.682.844 1.05 1.23a5.06 5.06 0 0 0 4.272 1.862l.028.031c.185.185.381.357.577.53q.554.492 1.104.988c.776.702 1.54 1.415 2.309 2.125 1.118 1.033 2.219 2.088 3.372 3.083.033.115.055.234.092.348a12.3 12.3 0 0 0 2.192 3.94 19 19 0 0 0 2.437 2.51c.032.03.06.065.094.095.012.01.026.008.039.015a20 20 0 0 0 4.604 2.922 24.8 24.8 0 0 0 10.435 2.11c.423-.003.848-.02 1.274-.04a21.3 21.3 0 0 1 7.445 4.94 71.5 71.5 0 0 1 7.277 9.443.12.12 0 0 0 .207-.122 57 57 0 0 0-3.889-6.671 26 26 0 0 0-1.928-4.438 26 26 0 0 0-1.491-2.41c-.158-.225-.36-.579-.601-.882q.44.038.872.071c.455.037.91.052 1.367.07.107.224.205.45.304.66.277.581.568 1.157.856 1.733.595 1.187 1.213 2.363 1.817 3.545 1.184 2.317 2.304 4.699 3.654 6.925.043.07.169.025.139-.059a60 60 0 0 0-3.526-7.58 87 87 0 0 0-2.033-3.698q-.447-.764-.925-1.51a32 32 0 0 0 2.437-.001h.008c.35.627.69 1.261 1.035 1.89q.852 1.559 1.749 3.09a.044.044 0 0 0 .08-.035 16.7 16.7 0 0 0-1.425-3.224 19 19 0 0 0-1.159-1.743 25.8 25.8 0 0 0 7.68-1.506 17.58 17.58 0 0 0 10.511-9.89 14 14 0 0 0 .89-3.764 12 12 0 0 0 .036-1.986 10 10 0 0 0-.377-1.867.106.106 0 0 0-.209.029 15.7 15.7 0 0 1-.306 3.376 14 14 0 0 1-.995 3.084 18.3 18.3 0 0 1-3.846 5.378 20.2 20.2 0 0 1-12.993 5.336 32 32 0 0 1-3.697.01c.101-.04.205-.073.306-.114a20 20 0 0 0 4.7-2.563 15 15 0 0 0 1.992-1.76 13.6 13.6 0 0 0 1.457-2.153c.047-.076-.065-.134-.116-.068a11.2 11.2 0 0 1-1.705 1.61 14.6 14.6 0 0 1-1.827 1.332 20 20 0 0 1-4.146 1.86 36.8 36.8 0 0 1-9.59 1.869c-6.194.318-12.47-1.45-16.784-6.08a22.6 22.6 0 0 1-2.047-2.594c-.365-.847-.717-1.7-1.029-2.566a39.4 39.4 0 0 1-1.983-8.458 43.5 43.5 0 0 1-.208-8.601 23.7 23.7 0 0 1 1.673-7.473 12.02 12.02 0 0 1 4.75-5.723c2.708-1.62 5.985-2.232 8.994-3.06 3.364-.925 6.725-1.86 10.091-2.776 2.526-.687 5.343-1.4 7.949-.73a6.15 6.15 0 0 1 3.568 2.542c.913 1.32 1.513 2.819 2.316 4.203a29.3 29.3 0 0 0 6.702 7.88.156.156 0 0 0 .22-.22 53 53 0 0 1-2.626-3.708c.842.686 1.69 1.364 2.499 2.07a52 52 0 0 1 6.329 6.143c3.643 4.493 3.405 10.62 2.328 15.995a39.4 39.4 0 0 1-6.643 15.257c-1.675 2.324-3.548 4.494-4.328 7.316-.795 2.874-.578 5.898-.497 8.842a99 99 0 0 1-.439 10.378 92 92 0 0 1-.56 5.085 54 54 0 0 1-.428 2.642 97 97 0 0 0-1.33-12.758 27 27 0 0 0-.836-3.602.098.098 0 0 0-.192.026c.02 2.504.32 4.999.452 7.5.134 2.509.157 5.033.12 7.544-.072 5.045-.23 10.073-.786 15.091a113.8 113.8 0 0 1-7.18 29.008 110.6 110.6 0 0 1-13.72 24.865 113.8 113.8 0 0 1-18.464 19.724 112 112 0 0 1-10.79 8.04c-1.9 1.246-3.833 2.432-5.716 3.704-1.882 1.27-3.82 2.446-5.77 3.608-.956.569-1.964 1.063-2.95 1.579-.188.099-.056.43.148.35 2.098-.83 4.229-1.67 6.26-2.65 2.08-1.004 4.216-1.883 6.193-3.089a103 103 0 0 0 2.518-1.595c-.19.228-.368.467-.561.693-1.507 1.755-3.109 3.417-4.718 5.078-3.213 3.316-6.543 6.505-9.617 9.954a186 186 0 0 0-16.332 21.355 239 239 0 0 0-13.474 23.288c-4.118 8.088-7.838 16.373-11.286 24.767q-2.567 6.248-4.94 12.573c-.797 2.125-1.46 4.277-2.143 6.44-.68 2.154-1.223 4.348-1.89 6.503-.33 1.06-.606 2.136-.912 3.202-.063.219.25.291.332.092 1.714-4.22 3.56-8.38 5.31-12.586 1.729-4.154 3.212-8.417 4.89-12.594 3.345-8.333 6.96-16.562 10.948-24.609a248 248 0 0 1 13.186-23.474 192 192 0 0 1 15.862-21.469c5.853-6.84 12.389-13.15 17.457-20.63q3.444-2.356 6.72-4.945a115 115 0 0 0 19.272-19.433 112.5 112.5 0 0 0 14.58-24.535 115.3 115.3 0 0 0 8.266-29.255 103 103 0 0 0 1.166-15.326c0-.123-.01-.246-.01-.37.436-1.272.783-2.569 1.21-3.845a34 34 0 0 0 1.147-4.675 53 53 0 0 0 .823-9.41c.014-2.996-.37-6.056.075-9.033a11.6 11.6 0 0 1 1.399-4.104 36 36 0 0 1 2.495-3.563 41.1 41.1 0 0 0 7.23-15.623c1.216-5.44 1.75-11.85-1.313-16.803M106.828 29.678c-.022.863-.027 1.725-.035 2.588a150 150 0 0 1-.366-5.548 26 26 0 0 1 .322-7.493 12.2 12.2 0 0 1 1.285-3.118 102 102 0 0 0-1.206 13.571m36.556 150.087c.393.653.761 1.32 1.14 1.981a21.4 21.4 0 0 1-2.276-3.805c.379.608.767 1.21 1.136 1.824M116.782 10.1a13.4 13.4 0 0 1 .424-2.46 6.3 6.3 0 0 1 .496-1.184c-.008.821.059 1.653.102 2.464q.019.354.006.686l-.002-.001a.172.172 0 0 0-.29.12 3.3 3.3 0 0 1-.055.757c-.23-.091-.457-.185-.69-.271zm5.337 6.541a49 49 0 0 0-.68-.388q-1.177-.665-2.414-1.218a24.4 24.4 0 0 0-4.95-1.57.02.02 0 0 0-.01.037 36.6 36.6 0 0 1 4.934 1.901q1.15.538 2.25 1.176c.577.335 1.14.737 1.744 1.035a22 22 0 0 1 1.38 1.844q-.53-.339-1.08-.639c-.882-.48-1.79-.916-2.71-1.318a35 35 0 0 0-5.48-1.852.027.027 0 0 0-.014.053 39.4 39.4 0 0 1 5.413 2.299c.837.431 1.653.899 2.458 1.39.415.252.824.517 1.242.765a3.1 3.1 0 0 0 .882.415 39.7 39.7 0 0 1 3.376 7.54c1.657 4.802 3.017 9.72 4.191 14.66.494 2.078.938 4.166 1.393 6.252a27.6 27.6 0 0 0-2.833-4.19 8.75 8.75 0 0 0-4.7-3.17 6.02 6.02 0 0 0-5.092 1.405 16.6 16.6 0 0 0-3.494 4.682q-1.73 3.011-3.183 6.17a89.6 89.6 0 0 0-6.159 20.275c.435-3.469.816-6.938.981-10.44.439-9.338-.178-18.704-.256-28.044a134 134 0 0 1 .51-13.933c.22-2.306.533-4.601.958-6.879a4.8 4.8 0 0 1 .714-2.31 2.58 2.58 0 0 1 2.089-.55c3.248.181 6.311 2.29 8.54 4.602m93.371 248.541a2.1 2.1 0 0 0 .745.343c.25.054.508.082.766.113.115.185.21.386.321.585l.651 1.164c.422.75.837 1.507 1.236 2.27.416.794.823 1.591 1.235 2.386a26 26 0 0 0-1.999-2.28 23 23 0 0 0-1.434-1.319c-.183-.343-.363-.689-.565-1.02a26 26 0 0 0-.924-1.405c-.17-.242-.342-.498-.524-.744.163-.032.329-.058.492-.093m-1.177.222c.22.354.47.696.7 1.034q.32.475.642.947a17 17 0 0 0-3.02-1.736q.842-.1 1.678-.245M185.7 243.7q.496-.845.91-1.734l.008.138c.09 1.26.253 2.51.455 3.753q-.195-.243-.395-.478a14 14 0 0 0-1.188-1.325zm-.516.85c.139.203.29.4.444.592a14 14 0 0 0 1.626 1.812q.244 1.267.577 2.513a32 32 0 0 0-1.63-1.78c-.471-.484-.937-.971-1.418-1.444q-.246-.239-.498-.473a9.5 9.5 0 0 0 .899-1.22m3.502 7.626q.141.376.29.752c-1.17-1.252-2.428-2.426-3.695-3.572-.88-.797-1.759-1.616-2.685-2.363a4 4 0 0 0 1.297-.824c.392.458.803.9 1.22 1.334a32 32 0 0 0 2.981 2.875c.181.604.373 1.205.592 1.798"/><path fill="currentColor" d="M223.6 238.885a44.4 44.4 0 0 0-3.299-5.614c-2.28-3.456-4.721-7.207-8.542-9.118a11.4 11.4 0 0 0-3.133-1.065 5.5 5.5 0 0 0-2.42-.038 7.5 7.5 0 0 0-1.939-.62 3.6 3.6 0 0 0-1.514.042 3 3 0 0 0-1.166.847.035.035 0 0 0 .042.055 4.1 4.1 0 0 1 3.006-.011 7 7 0 0 1 .734.269.17.17 0 0 0 .117.122c.09.029.18.038.27.06a16 16 0 0 1 1.559.872 24 24 0 0 1 4.65 3.977 94 94 0 0 1 7.727 9.998l.138.192a14 14 0 0 1 1.047 2.224c.351.985.545 2.007.85 3.005.314 1.027.798 1.99 1.087 3.024a.128.128 0 0 0 .25-.034 11 11 0 0 0-.008-3.356 7.5 7.5 0 0 0-.36-1.146c.303.276.603.555.888.861q.758.817 1.487 1.659c.14.161.362-.016.33-.192a24.5 24.5 0 0 0-1.8-6.013m-.137 2.392a6.3 6.3 0 0 0-1.07-1.536c-.442-.535-.832-1.122-1.243-1.682-1.389-1.893-2.761-3.802-4.196-5.662a32.5 32.5 0 0 0-8.865-8.338c.057.007.113.008.17.018a10.2 10.2 0 0 1 2.718.855 15.2 15.2 0 0 1 4.663 3.552 43 43 0 0 1 3.713 4.889c1.117 1.629 2.222 3.27 3.216 4.977a17.5 17.5 0 0 1 2.344 5.716 24 24 0 0 1-1.45-2.789m-31.096 12.005q-1.346-2.605-2.485-5.309c-.008-.02-.042-.012-.034.01q1.016 2.663 2.23 5.245a28.8 28.8 0 0 0 2.874 5.123.042.042 0 0 0 .073-.042c-.78-1.719-1.79-3.35-2.658-5.027m6.006 6.088c-.662-1.35-1.515-2.582-2.238-3.898a14 14 0 0 1-1.06-2.217 8.7 8.7 0 0 0-.72-2.08c-.408-.64-.826-1.238-1.18-1.915-.347-.665-.678-1.34-1.016-2.01l-2.08-4.12c-.009-.017-.033-.002-.025.014l1.905 4.093c.318.683.642 1.362.953 2.047.352.776.564 1.585.88 2.37a12 12 0 0 0 1.174 1.767 15 15 0 0 1 .99 2.025c.607 1.432 1.068 2.916 1.74 4.32.218.454.9.057.677-.396m3.31-1.026c-.317-.566-.68-1.108-1.022-1.659a102 102 0 0 1-2.081-3.55c-1.335-2.358-2.704-4.695-4.167-6.976a.018.018 0 0 0-.03.018c1.336 2.356 2.687 4.704 3.987 7.08a54 54 0 0 1 1.81 3.583c.27.595.514 1.204.793 1.794a3.9 3.9 0 0 0 1.001 1.56.25.25 0 0 0 .372-.213 3.7 3.7 0 0 0-.663-1.637m4.676 2.343a10 10 0 0 0-.724-1.51 31 31 0 0 1-1.682-3.02 43.6 43.6 0 0 0-3.4-5.925.046.046 0 0 0-.08.046c1.078 1.964 2.227 3.9 3.244 5.896a16.4 16.4 0 0 1 1.285 3.27 14 14 0 0 0 .591 1.566 1.74 1.74 0 0 0 .726.988.146.146 0 0 0 .213-.086 1.7 1.7 0 0 0-.173-1.225m3.934 1.182a8.5 8.5 0 0 0-1.253-2.195 22 22 0 0 1-1.175-2.35c-.359-.807-.657-1.637-1.027-2.438s-.82-1.54-1.233-2.317c-.028-.052-.12-.015-.097.041.314.767.57 1.544.926 2.295.376.793.81 1.55 1.206 2.332a21 21 0 0 1 1.126 2.553 8.5 8.5 0 0 0 .872 2.355.36.36 0 0 0 .655-.276m3.316-.512c.006-.1-.032-.197-.1-.218-.11-.177-.274-.341-.383-.502-.18-.266-.353-.54-.521-.813-.372-.607-.729-1.224-1.093-1.836-.716-1.204-1.442-2.402-2.165-3.602a.042.042 0 0 0-.073.042c.65 1.19 1.299 2.38 1.956 3.566l.969 1.748q.233.423.45.855a6 6 0 0 0 .445.895.278.278 0 0 0 .428.055.27.27 0 0 0 .086-.186l.003.002Zm2.505-1.419c-.24-.347-.493-.683-.747-1.02a101 101 0 0 0-1.512-1.94c-.012-.016-.038.004-.028.021.436.716.873 1.43 1.326 2.136.227.354.456.703.697 1.047.193.275.395.69.72.822a.075.075 0 0 0 .094-.071c-.01-.36-.354-.713-.55-.995m2.381-1.145c-.314-.302-.64-.592-.964-.883a.035.035 0 0 0-.05.05c.303.313.605.626.919.928s.639.592.969.878a.028.028 0 0 0 .04-.04c-.299-.318-.6-.63-.914-.933m2.49.284c-.07-.066-.152-.122-.228-.182l-.23-.18c-.153-.119-.314-.224-.474-.332-.026-.018-.059.023-.034.044.148.123.294.248.451.36l.238.172c.078.056.156.118.239.168a.032.032 0 0 0 .038-.05m-52.106 39.677c-.569-8.246-1.261-16.515-2.327-24.713-.529-4.06-1.262-8.095-1.849-12.147q-.89-6.154-1.88-12.292c-.164-1.004-.296-2.012-.438-3.02-.01-.065-.126-.05-.118.017.472 4.079.826 8.17 1.245 12.255.414 4.047.803 8.09 1.087 12.148.287 4.103.77 8.19 1.175 12.284q.607 6.143 1.08 12.3c.62 8.162 1.029 16.342 1.12 24.528.088 7.97.074 16.008-2.36 23.679-1.235 3.89-2.843 7.654-4.026 11.559-1.201 3.96-2.436 7.938-3.79 11.848a73 73 0 0 0-.958 2.928c-.056.186.242.322.323.136.81-1.87 1.522-3.783 2.293-5.67.782-1.914 1.583-3.82 2.377-5.728q2.407-5.786 4.52-11.678a54.4 54.4 0 0 0 2.865-11.576 97 97 0 0 0 .57-12.076c-.001-8.268-.34-16.534-.909-24.782m3.962 58.714c-.318 2.26-.752 4.502-1.14 6.751a162 162 0 0 1-1.287 6.749 69 69 0 0 1-4.028 13.049c-3.18 7.28-8.25 13.965-15.275 17.894a39 39 0 0 1-5.846 2.477 25.3 25.3 0 0 1-6.317 1.42c-.2.018-.286.346-.052.384a19.8 19.8 0 0 0 5.754.089 19.1 19.1 0 0 0 5.736-1.773 32.5 32.5 0 0 0 9.681-7.205c6.162-6.576 9.22-15.298 10.936-23.995.51-2.579.917-5.178 1.247-7.785.337-2.67.525-5.35.837-8.022.016-.139-.226-.173-.246-.033m-30.006-238.867a9.5 9.5 0 0 1-.768 1.937c-.304.607-.602 1.215-.96 1.793a12 12 0 0 1-1.178 1.584c-.406.46-1.13 1.045-.886 1.74.138.393.819.495.904 0a1.45 1.45 0 0 1 .446-.7 10 10 0 0 0 .62-.791 12.3 12.3 0 0 0 1.041-1.753 8.7 8.7 0 0 0 .676-1.843 19 19 0 0 0 .289-1.942c.013-.105-.16-.126-.184-.025m-2.794 2.543c-.504.698-1.067 1.351-1.604 2.025a13 13 0 0 0-.733 1.044l-.341.532a1.02 1.02 0 0 0-.251.645.36.36 0 0 0 .448.342c.422-.143.635-.697.854-1.055a12 12 0 0 0 .617-1.102c.378-.787.724-1.588 1.138-2.356a.074.074 0 0 0-.128-.075m-2.462 1.182a4.2 4.2 0 0 0 .425-1.454c.006-.043-.056-.063-.068-.018a3.8 3.8 0 0 1-.696 1.282 4.6 4.6 0 0 1-1.019 1.013.23.23 0 0 0-.08.307.227.227 0 0 0 .307.08 4.4 4.4 0 0 0 .639-.547l.018-.014c.062-.056.117-.12.175-.18l.344-.356a.067.067 0 0 0-.044-.113m-3.296-43.872a67 67 0 0 1-2.501 6.274 104 104 0 0 1-1.38 2.997c-.223.462-.457.92-.687 1.379a1.54 1.54 0 0 0-.24 1.24.13.13 0 0 0 .16.09 1.42 1.42 0 0 0 .86-.875 45 45 0 0 0 .758-1.592 44 44 0 0 0 1.231-2.942 58 58 0 0 0 1.911-6.54.059.059 0 0 0-.112-.03m-2.743 1.866a53 53 0 0 1-2.563 5.822 10 10 0 0 0-.659 1.36 4 4 0 0 0-.085.464 2.8 2.8 0 0 1-.4.995c-.278.459-.59.899-.9 1.336a3.3 3.3 0 0 0-.733 1.253c-.022.137.114.28.253.194a2.5 2.5 0 0 0 .77-1.044c.254-.473.489-.956.734-1.433a4.4 4.4 0 0 1 .49-.83c.166-.196.383-.342.544-.543a6.7 6.7 0 0 0 .733-1.432 36 36 0 0 0 1.989-6.094.09.09 0 0 0-.173-.048m-3.88 4.265a39 39 0 0 1-2.107 4.22q-.544.972-1.11 1.933c-.2.342-.41.679-.613 1.02a2.4 2.4 0 0 0-.423.97.32.32 0 0 0 .476.273 2.2 2.2 0 0 0 .683-.813c.211-.336.405-.682.597-1.03.386-.697.73-1.409 1.045-2.142a38 38 0 0 0 1.512-4.415c.012-.04-.045-.052-.06-.016m-3.968 3.558a20.3 20.3 0 0 1-1.69 3.22c-.313.488-.638.963-.988 1.425a5.6 5.6 0 0 0-.892 1.486c-.027.077.065.126.126.097a3.45 3.45 0 0 0 1.28-1.16 12 12 0 0 0 1-1.602 14.3 14.3 0 0 0 1.254-3.441.047.047 0 0 0-.09-.025m32.516 4.111a35 35 0 0 1-.375 3.767 18.3 18.3 0 0 0-.41 3.564c.003.067.105.109.138.037a10.2 10.2 0 0 0 .695-3.544c.096-1.272.128-2.548.14-3.824a.094.094 0 0 0-.188 0m-1.588 1.703c-.006-.044-.071-.047-.07 0a12.2 12.2 0 0 1-.35 3.088c-.121.495-.283.977-.443 1.46a3.6 3.6 0 0 0-.284 1.424.13.13 0 0 0 .22.09 4.3 4.3 0 0 0 .975-2.856 13.6 13.6 0 0 0-.048-3.206m-2.302 3.389a5 5 0 0 1-.258.832c-.11.258-.243.503-.37.753-.13.253-.27.5-.402.75a2.5 2.5 0 0 0-.192.402.6.6 0 0 0-.028.228c-.002-.067-.013.1-.014.116a.134.134 0 0 0 .2.114 1 1 0 0 0 .33-.232 2 2 0 0 0 .251-.4 4.2 4.2 0 0 0 .324-.838 9.5 9.5 0 0 0 .26-1.712c.004-.057-.088-.069-.1-.013m-2.192 1.364a6 6 0 0 1-.323.953c-.12.308-.281.6-.384.914-.021.065.06.096.104.06a2.39 2.39 0 0 0 .702-1.914c0-.055-.087-.07-.1-.013M124.85 22.509a1.2 1.2 0 0 0-.791-.55 6.7 6.7 0 0 1-1.237-.452c-.705-.362-1.32-.852-1.986-1.28a13.6 13.6 0 0 0-2.086-1.096 12.7 12.7 0 0 0-2.271-.632.043.043 0 0 0-.033.078 21 21 0 0 0 2.08 1.238q.998.48 2.033.876a14 14 0 0 1 2.197.93 5.4 5.4 0 0 1 1.015.833 1.24 1.24 0 0 0 .864.431.252.252 0 0 0 .216-.376m-2.736 2.451a11.3 11.3 0 0 0-2.177-1.411 11 11 0 0 0-1.198-.454c-.412-.126-.832-.217-1.248-.328-.091-.025-.157.114-.067.157.763.356 1.495.786 2.25 1.162.77.384 1.596.626 2.385.969a.055.055 0 0 0 .055-.095m2.932 1.782a.3.3 0 0 0-.041-.15.8.8 0 0 0-.247-.228 2 2 0 0 0-.185-.1l-.108-.054q-.046-.02-.093-.038-.046-.01-.019-.01a8 8 0 0 1-.801-.476.193.193 0 0 0-.262.068.195.195 0 0 0 .068.262c.23.158.439.34.653.517.106.088.201.192.303.285a1.3 1.3 0 0 0 .213.15.5.5 0 0 0 .14.062.3.3 0 0 0 .16 0c.016-.01.02-.01.03-.015h-.097a.3.3 0 0 0 .128-.016h.005a.3.3 0 0 0 .063-.008.12.12 0 0 0 .103-.162.2.2 0 0 0 0-.077q-.038-.1-.013-.01"/><path fill="currentColor" d="M125.06 26.824v.076Zm-.202.191h.025q.02-.018.011-.017l-.005.001zm.136-.029c-.011.007-.025 0-.037.005-.014.003-.02.013-.035.015Zm5.902 25.154-1.24-1.344c-.816-.884-1.644-1.756-2.466-2.632-.04-.042-.102.02-.064.064.794.88 1.584 1.764 2.385 2.638l1.167 1.27a14 14 0 0 0 1.277 1.309c.02.017.058-.006.04-.03a13 13 0 0 0-1.099-1.275m-.782 1.01a37 37 0 0 0-2.745-2.61c-.011-.01-.027.006-.017.016a95 95 0 0 1 2.59 2.693c.838.912 1.6 1.921 2.5 2.772a.033.033 0 0 0 .052-.04 18 18 0 0 0-2.38-2.832m1.396 3.52a21 21 0 0 0-1.615-1.677.014.014 0 0 0-.02.019c.509.575.982 1.187 1.46 1.788.475.597.964 1.184 1.432 1.787.026.034.08-.01.058-.045a15.5 15.5 0 0 0-1.314-1.872m3.128-44.368a10 10 0 0 0-.777-.64 17 17 0 0 0-1.78-1.205 19 19 0 0 0-3.859-1.656c-.029-.01-.04.035-.012.045a22 22 0 0 1 3.734 1.964q.859.546 1.666 1.164c.288.219.566.45.854.67a2.8 2.8 0 0 0 .736.493c.06.02.095-.05.075-.098a2.5 2.5 0 0 0-.637-.737m.041 2.086c-.176-.17-.37-.322-.56-.474a14 14 0 0 0-1.17-.82 17 17 0 0 0-2.56-1.296c-.038-.016-.066.05-.028.068a18.6 18.6 0 0 1 2.448 1.469c.393.273.772.561 1.148.855.182.143.358.292.543.431a2.1 2.1 0 0 0 .55.356c.048.017.076-.04.06-.077a1.8 1.8 0 0 0-.43-.512m.415 2.656a4 4 0 0 0-.42-.439 4 4 0 0 0-1.005-.634.022.022 0 0 0-.022.037 7 7 0 0 1 .906.718 6 6 0 0 1 .4.398c.064.07.13.136.192.207a3 3 0 0 0 .197.218c.023.021.073 0 .059-.034a2 2 0 0 0-.307-.471m1.732 2.394a2 2 0 0 0-.168-.265 2.5 2.5 0 0 0-.45-.45c-.019-.015-.046.01-.027.028a2.5 2.5 0 0 1 .405.467 6 6 0 0 1 .314.525.02.02 0 0 0 .035-.015 1.4 1.4 0 0 0-.11-.29m-6.167 124.175a7 7 0 0 0-.818-.77 7.4 7.4 0 0 0-.9-.608 10 10 0 0 0-1.05-.49.035.035 0 0 0-.036.06c.304.2.595.439.885.66.294.224.577.462.864.695q.415.338.819.69c.27.235.53.5.816.713.05.038.104-.033.08-.08a4.4 4.4 0 0 0-.66-.87m-.51 2.556a11.8 11.8 0 0 0-3.593-2.282c-.046-.016-.063.047-.03.072 1.134.864 2.324 1.639 3.397 2.585a38 38 0 0 1 2.948 2.987c.04.043.108-.012.08-.061a13.1 13.1 0 0 0-2.803-3.3m1.701 5.721a17 17 0 0 0-1.908-2.017 13.5 13.5 0 0 0-4.418-2.901c-.04-.015-.057.042-.027.064.692.518 1.436.97 2.132 1.486a23 23 0 0 1 2.05 1.702 25 25 0 0 1 1.743 1.833c.572.658 1.077 1.4 1.688 2.021.037.039.115 0 .094-.055a8.6 8.6 0 0 0-1.353-2.134m.646 3.954a32 32 0 0 0-2.11-2.062 28.3 28.3 0 0 0-4.677-3.402c-.038-.022-.066.032-.033.058a56 56 0 0 1 4.46 3.698q1.03.953 1.995 1.97a24 24 0 0 0 2.012 2.047.055.055 0 0 0 .086-.067 10.8 10.8 0 0 0-1.733-2.242m-1.365 2.289a21 21 0 0 0-4.068-2.809.02.02 0 0 0-.02.034 33.6 33.6 0 0 1 3.892 3.058c1.191 1.102 2.228 2.34 3.375 3.481a.037.037 0 0 0 .059-.045 14.8 14.8 0 0 0-3.238-3.719m1.21 4.804a13.3 13.3 0 0 0-2.086-1.758c-.028-.019-.062.025-.036.046a24 24 0 0 1 1.988 1.846c.628.655 1.184 1.363 1.767 2.055.019.023.053-.006.04-.03a10.8 10.8 0 0 0-1.673-2.159m.27 4.402c-.024-.032-.078-.001-.054.032.738 1.023 1.467 2.054 2.246 3.046.01.014.034-.004.024-.019-.708-1.041-1.467-2.047-2.216-3.059m27.03-22.503c-.347.938-.719 1.866-1.054 2.808q-.241.68-.468 1.363a3.4 3.4 0 0 0-.312 1.429c.008.064.087.116.14.058a3.2 3.2 0 0 0 .554-1.267q.218-.715.421-1.433c.276-.977.512-1.963.775-2.943a.03.03 0 0 0-.056-.015m-1.231.813a19 19 0 0 0-1.381 2.386 18 18 0 0 0-.53 1.233c-.11.287-.223.581-.318.879.007-.045-.054-.079-.079-.033a.65.65 0 0 0-.025.614.2.2 0 0 0 .34 0c.193-.402.31-.841.466-1.259q.234-.624.482-1.243a51 51 0 0 1 1.079-2.557.02.02 0 0 0-.034-.02m-2.373 1.369c-.372.62-.805 1.2-1.169 1.825q-.273.467-.532.942c-.08.148-.17.293-.236.447a.74.74 0 0 0-.058.444c.007.05.07.061.107.044.314-.15.436-.488.592-.782.164-.309.319-.621.473-.935.316-.642.555-1.315.863-1.96a.023.023 0 0 0-.04-.025m-1.8 1.226a8 8 0 0 0-.786.957 4 4 0 0 0-.31.526.96.96 0 0 0-.151.587.065.065 0 0 0 .094.038 1.1 1.1 0 0 0 .32-.47c.091-.183.174-.37.266-.553a8.5 8.5 0 0 1 .6-1.06c.015-.02-.017-.043-.033-.025m3.34 65.902a.012.012 0 0 0-.022.007 62 62 0 0 1 .583 19.725c-.007.06.09.071.103.014a40.7 40.7 0 0 0-.664-19.746m-1.163 4.574c-.002-.032-.052-.033-.05 0a64 64 0 0 1-2.393 17.559.049.049 0 0 0 .094.026 41.85 41.85 0 0 0 2.35-17.585m-2.471 6.646a44.5 44.5 0 0 1-1.567 6.15 45 45 0 0 1-1.054 2.884 30 30 0 0 0-1.235 3.03c-.03.105.106.145.164.069a11.8 11.8 0 0 0 1.397-2.783q.617-1.525 1.086-3.102a36 36 0 0 0 1.228-6.245c.001-.011-.017-.014-.02-.003m-3.614 5.947c-.556 1.134-1.16 2.244-1.729 3.372a19.4 19.4 0 0 0-1.45 3.397.051.051 0 0 0 .093.039 19.5 19.5 0 0 0 1.7-3.313c.498-1.145.963-2.304 1.475-3.444.026-.058-.059-.11-.088-.05m30.296 59.887c-.226-3.976-.61-7.928-.986-11.892-.008-.081-.135-.084-.129 0 .479 7.045.702 14.138.82 21.198.118 7.076.024 14.152-.224 21.225-.14 3.965-.237 7.934-.426 11.897-.005.107.154.103.164 0a269 269 0 0 0 .781-42.427m1.956-2.024c-.005-.032-.06-.025-.057.008a158.5 158.5 0 0 1 .4 22.984c-.005.108.152.102.165 0a79.4 79.4 0 0 0-.508-22.992m45.712-12.873c-.287-.484-.592-.957-.891-1.433a100 100 0 0 1-1.71-2.847.02.02 0 0 0-.036.02c.514.984 1.02 1.97 1.5 2.97q.352.74.715 1.474c.18.361.416 1.012.835 1.147a.074.074 0 0 0 .09-.051c.107-.416-.302-.941-.503-1.28m-2.501-10.293a.02.02 0 0 0-.036.021 51 51 0 0 0 4.023 6.675c.018.024.056.003.04-.024-1.288-2.253-2.666-4.461-4.027-6.672m4.889 2.413a.026.026 0 1 0-.042.032l.521.671c.012.016.04-.005.028-.021zm-.681-8.333a7 7 0 0 0-.704-.421c-.235-.123-.47-.245-.713-.355-.252-.114-.519-.192-.767-.313a.038.038 0 0 0-.039.066c.22.154.41.344.624.506.22.166.448.317.677.47a7 7 0 0 0 .685.401 1.9 1.9 0 0 0 .723.264.086.086 0 0 0 .073-.127 1.8 1.8 0 0 0-.559-.49m2.293-1.292c-.182-.118-.37-.227-.555-.34q-.555-.341-1.095-.705a44 44 0 0 1-2.116-1.51c-.05-.038-.115.046-.068.087a25 25 0 0 0 2.04 1.593q.535.373 1.084.724a2.8 2.8 0 0 0 1.08.551.044.044 0 0 0 .038-.066 1.4 1.4 0 0 0-.408-.333m1.204-2.539q-.62-.495-1.268-.953c-.883-.62-1.816-1.152-2.744-1.701-.063-.037-.114.056-.056.096.876.606 1.7 1.287 2.532 1.952q.595.475 1.187.955a3.55 3.55 0 0 0 1.248.843c.069.016.156-.048.126-.126a3.04 3.04 0 0 0-1.025-1.066m2.479-1.137a4.6 4.6 0 0 0-1.084-.721q-.578-.336-1.16-.662l-2.374-1.323a.047.047 0 0 0-.048.081l2.318 1.419q.57.347 1.147.685a4.6 4.6 0 0 0 1.16.59.041.041 0 0 0 .04-.069m.892-2.063a9 9 0 0 0-.857-.426 12 12 0 0 0-1.75-.596.032.032 0 0 0-.017.062 13 13 0 0 1 1.676.746q.384.202.76.422l.4.234a1.2 1.2 0 0 0 .387.179c.061.01.125-.051.086-.112a1.9 1.9 0 0 0-.685-.509m.287-2.034a2.3 2.3 0 0 0-.688-.325.026.026 0 0 0-.014.05 2.3 2.3 0 0 1 .665.318 3 3 0 0 1 .535.507c.015.018.044-.005.032-.025a1.9 1.9 0 0 0-.53-.525m-7.613-22.635c-1.335-1.824-2.877-3.49-4.246-5.287-.044-.058-.142-.006-.1.06a24 24 0 0 0 4.227 5.319c.06.053.174-.019.12-.092m-38.89 29.157a61 61 0 0 0-6.33-6.192c-2.223-1.962-4.542-3.793-6.863-5.635-.072-.057-.176.04-.104.104 2.222 1.936 4.371 3.962 6.548 5.95 2.18 1.99 4.31 4.06 6.625 5.898a.088.088 0 0 0 .124-.125m35.173 39.923a64 64 0 0 0-1.263-4.472 85 85 0 0 0-3.03-8.43c-.012-.027-.057-.007-.048.021.91 2.878 1.894 5.725 2.629 8.656.357 1.426.7 2.856 1.04 4.287a25.7 25.7 0 0 0 1.188 4.263c.036.084.163.036.164-.044a17 17 0 0 0-.68-4.28m-.623 12.076c-.263-.888-.529-1.775-.767-2.67a57 57 0 0 1-.64-2.581c-.198-.917-.17-1.873-.41-2.771-.95-3.544-2.197-7.012-3.424-10.466-.012-.032-.061-.02-.051.014 1.069 3.512 1.91 7.077 2.823 10.631.222.863.681 1.64.927 2.504.253.891.446 1.801.623 2.71.18.933.317 1.872.442 2.813.082.615.048 1.613.59 2.001a.125.125 0 0 0 .168-.044c.354-.571-.107-1.555-.281-2.141m-1.152 8.302c-.223-.951-.534-1.879-.773-2.826-.47-1.856-.874-3.733-1.3-5.6a110 110 0 0 0-2.88-11.26.026.026 0 0 0-.05.014c.777 3.802 1.917 7.508 2.799 11.283.435 1.865.862 3.744 1.18 5.632.163.972.246 1.955.407 2.927a5.54 5.54 0 0 0 .634 2.462.207.207 0 0 0 .343-.09 5.54 5.54 0 0 0-.36-2.542m-1.255 10.66c-.1-.569-.214-1.135-.328-1.7-.212-1.053-.422-2.095-.724-3.126a65 65 0 0 1-1.365-6.401c-.4-2.157-.687-4.328-1.03-6.494a36 36 0 0 0-.608-3.096c-.274-1.1-.696-2.151-1.07-3.22a.015.015 0 0 0-.029.008c.552 2.106.751 4.312 1.223 6.442.463 2.09.98 4.165 1.387 6.267a66 66 0 0 1 1.09 6.549c.092 1.012.26 2.004.438 3.005q.151.853.313 1.704c.076.396.07.782.446.995a.13.13 0 0 0 .16-.02c.243-.305.163-.543.097-.913m-2.586 5.586c-.177-1.091-.479-2.158-.658-3.25-.346-2.113-.612-4.24-.909-6.36-.294-2.104-.565-4.21-.857-6.314a24.7 24.7 0 0 0-1.42-6.17.023.023 0 0 0-.046.012 114 114 0 0 1 2.146 12.393c.303 2.194.641 4.388.89 6.589.12 1.059.119 2.126.241 3.183a7.4 7.4 0 0 0 .6 2.877.122.122 0 0 0 .22-.03 7.4 7.4 0 0 0-.207-2.93m-2.876 5.935c-.086-.9-.277-1.783-.378-2.68-.206-1.822-.358-3.649-.573-5.47a117 117 0 0 0-1.714-10.524c-.009-.04-.068-.022-.062.018.527 3.616 1.037 7.242 1.473 10.87.213 1.775.453 3.564.55 5.35.045.851 0 1.705.052 2.558a5.9 5.9 0 0 0 .305 2.424.217.217 0 0 0 .39-.05 5.8 5.8 0 0 0-.043-2.496m-3.032 2.742c-.226-2.428-.47-4.854-.69-7.283-.002-.019-.03-.02-.03 0a90 90 0 0 1 .064 14.312c-.01.101.137.107.167.023a10.5 10.5 0 0 0 .656-3.332 30 30 0 0 0-.167-3.72m-2.45-.99c-.006-.055-.092-.057-.088 0a57 57 0 0 1-.04 6.393c-.108 2.124-.367 4.244-.398 6.37a.082.082 0 0 0 .161.022c1.127-4.113.766-8.596.365-12.785m-2.536 9.519q-.317 2.005-.723 3.994c-.261 1.279-.593 2.558-.76 3.853-.008.052.07.056.085.012a25 25 0 0 0 .883-3.966q.329-1.936.572-3.886c.004-.032-.052-.04-.057-.007m-4.081 7.821a49 49 0 0 0-1.581 4.806c-.01.04.052.07.07.03a50 50 0 0 0 1.585-4.815c.014-.048-.058-.067-.074-.02m-42.563-61.956a.044.044 0 0 0-.085.023c.566 2.585 1.135 5.162 1.942 7.685a.047.047 0 0 0 .09-.025c-.49-2.603-1.215-5.14-1.947-7.684m.257 10.417a172 172 0 0 0-2.24-7.713.047.047 0 0 0-.09.025 235 235 0 0 1 2.08 7.757c.655 2.591 1.157 5.234 1.907 7.799.023.078.13.043.119-.033a69 69 0 0 0-1.776-7.835m.7 16.588c-.216-.878-.451-1.75-.688-2.623a53 53 0 0 1-1.128-5.443c-.543-3.331-1.055-6.61-2.715-9.603-.028-.05-.098-.006-.076.045a25.4 25.4 0 0 1 1.448 4.914c.362 1.658.768 3.3 1.177 4.946a51 51 0 0 1 1.047 5.21c.126.901.254 1.803.403 2.701a4.3 4.3 0 0 0 .634 2.184.112.112 0 0 0 .186-.05 4.4 4.4 0 0 0-.288-2.28m-.747 10.288c-.195-.861-.4-1.72-.583-2.583-.36-1.692-.706-3.386-1.095-5.072a94 94 0 0 0-2.872-10.094.032.032 0 0 0-.063.018c.904 3.337 1.823 6.673 2.633 10.035.395 1.642.765 3.29 1.086 4.949.168.871.296 1.75.416 2.63a5.55 5.55 0 0 0 .53 2.373.11.11 0 0 0 .198-.026 4.7 4.7 0 0 0-.25-2.23m-2.025 6.533c-.204-.753-.43-1.5-.625-2.256q-.572-2.208-1.02-4.447a140 140 0 0 0-2.065-8.887c-.016-.06-.101-.034-.09.025a137 137 0 0 0 1.922 8.67q.533 2.092.968 4.206a37 37 0 0 0 .833 4.22.065.065 0 0 0 .125 0 2.28 2.28 0 0 0-.048-1.531m-1.822 8.041c-.237-.694-.517-1.378-.722-2.083-.203-.697.555-1.224.48-1.95a12.7 12.7 0 0 0-.558-2.07c-.855-2.999-1.663-6.012-2.503-9.016a.041.041 0 0 0-.08.022c.703 3.041 1.44 6.075 2.128 9.12a8.4 8.4 0 0 1 .402 2.319 5 5 0 0 0 .041 1.498c.167.704.358 1.407.539 2.108a7 7 0 0 0 .677 2.147.095.095 0 0 0 .174-.047 6.6 6.6 0 0 0-.578-2.048m-4.173-2.685c-.018-.053-.1-.032-.085.023 1.009 3.54 1.625 7.132 2.276 10.748.01.053.094.04.092-.012a37.2 37.2 0 0 0-2.283-10.76m-1.232 8.016c-.013-.052-.09-.03-.079.021a34 34 0 0 1 .542 3.526c.117 1.147.168 2.3.285 3.447a.05.05 0 0 0 .1 0 22.2 22.2 0 0 0-.848-6.994m-2.931 5.804c-.003-.064-.101-.064-.1 0 .058 1.93.118 3.858.25 5.785a.032.032 0 0 0 .065 0c-.023-1.931-.118-3.856-.215-5.785m-29.069 40.887a70 70 0 0 1-8.072-4.458c-.082-.054-.157.077-.077.132a37.4 37.4 0 0 0 8.118 4.401c.043.016.073-.054.031-.075m12.569.777c-1.741-.794-3.575-1.355-5.364-2.032a74 74 0 0 1-5.56-2.39 66.3 66.3 0 0 1-10.202-5.952c-.04-.029-.077.037-.039.066a66 66 0 0 0 10.147 6.48 59 59 0 0 0 5.277 2.346 24.7 24.7 0 0 0 5.692 1.663c.094.012.133-.142.05-.18m6.979-.706a29 29 0 0 0-3.744-1.531c-1.327-.485-2.645-.99-3.961-1.503-2.692-1.05-5.354-2.172-7.934-3.476-.073-.037-.138.072-.065.112 2.549 1.381 5.123 2.722 7.779 3.886a69 69 0 0 0 3.79 1.514 18.7 18.7 0 0 0 4.098 1.135c.073.01.097-.104.037-.136m4.39-1.287c-1.283-.434-2.61-.717-3.904-1.117a32 32 0 0 1-3.912-1.472c-.064-.03-.12.063-.056.096a30 30 0 0 0 3.813 1.668 14.1 14.1 0 0 0 4.047.911c.052.002.057-.07.012-.086m1.71-1.74a.04.04 0 1 0-.011.08c.453.058.905.12 1.36.16a.018.018 0 0 0 .005-.035c-.45-.082-.902-.142-1.354-.205m-6.402 17.269q-2.244 3.316-4.561 6.578c-.773 1.088-1.521 2.196-2.316 3.268a18 18 0 0 1-1.389 1.589 8.4 8.4 0 0 0-1.03 1.5c-2.67 4.497-5.325 8.997-8.092 13.435-.048.078.07.144.122.071 2.995-4.315 6.09-8.551 9.178-12.8a7.6 7.6 0 0 0 .954-1.547 15 15 0 0 1 .909-1.867c.674-1.147 1.387-2.27 2.078-3.407q2.076-3.412 4.228-6.773c.033-.05-.047-.097-.08-.047m5.036 1.027c-.856 1.138-1.791 2.216-2.645 3.358-.864 1.155-1.698 2.332-2.56 3.488-.39.52-.773 1.044-1.166 1.561a10 10 0 0 0-1.236 1.653 26 26 0 0 0-1.419 3.686c-.037.126.135.187.204.086.376-.555.732-1.116 1.145-1.645.418-.534.875-1.04 1.28-1.583a18 18 0 0 0 .91-1.68c.347-.589.72-1.162 1.092-1.736.737-1.14 1.508-2.26 2.25-3.398.795-1.217 1.494-2.491 2.281-3.71.057-.088-.077-.16-.136-.08m1.141 3.492a54 54 0 0 0-.833 1.71c-.01.02.02.038.03.018.289-.566.56-1.138.828-1.714.008-.016-.017-.031-.025-.014m-86.374-11.235c-.312 1.235-.622 2.459-.839 3.717a119 119 0 0 0-.578 3.79c-.01.079.106.117.125.034.287-1.265.564-2.53.81-3.803.24-1.24.38-2.481.523-3.733.002-.023-.035-.027-.04-.005m-3.257 1.185c-.984 5.959-2.135 11.9-2.698 17.92-.007.068.106.084.12.016 1.238-5.912 1.89-11.922 2.708-17.9.011-.084-.116-.122-.13-.036m-3.559 3.255c-.746 6.33-2.397 12.495-3.536 18.754a.076.076 0 0 0 .147.04c2.146-6.037 2.844-12.453 3.482-18.794.006-.06-.086-.059-.093 0m-3.987 4.426a175 175 0 0 1-1.748 8.628c-.633 2.783-1.47 5.582-1.829 8.417a.086.086 0 0 0 .159.043 39 39 0 0 0 2.237-8.429c.535-2.868.941-5.75 1.25-8.65.005-.039-.061-.048-.068-.009m-4.645 5.268c-.372 1.957-.857 3.88-1.36 5.808-.243.928-.507 1.85-.762 2.774a10.1 10.1 0 0 0-.609 2.84.086.086 0 0 0 .159.042 8.5 8.5 0 0 0 .992-2.733c.245-.928.453-1.866.652-2.804.414-1.952.714-3.932 1.008-5.905.007-.051-.07-.074-.08-.022m-4.088 5.784c-.389 1.957-.903 3.892-1.425 5.818a.041.041 0 0 0 .08.022 35 35 0 0 0 1.475-5.804c.015-.085-.113-.122-.13-.036m29.632-60.777c-.015-.042-.08-.026-.068.018a48.6 48.6 0 0 0 4.487 11.118c.032.055.133.018.107-.045-1.539-3.69-3.17-7.328-4.526-11.091m6.163 1.561a68 68 0 0 1-2.851-10.557c-.01-.052-.088-.03-.08.022a64.3 64.3 0 0 0 2.766 10.814 51.4 51.4 0 0 0 4.597 9.95.053.053 0 0 0 .091-.053 93 93 0 0 1-4.523-10.176m1.281-12.349a303 303 0 0 1-1.849-7.424c-.012-.051-.09-.03-.079.022 1.98 8.877 4.016 17.937 8.506 25.942a36 36 0 0 0 4.303 6.094c.05.056.153-.02.106-.082-5.562-7.242-8.661-15.811-10.987-24.552m10.951 14.602a128 128 0 0 1-5.56-12.47q-1.362-3.54-2.498-7.16a.018.018 0 0 0-.033.01 116 116 0 0 0 10.525 24.745 64 64 0 0 0 4.135 6.49c.03.042.098.006.07-.041-2.246-3.845-4.603-7.61-6.64-11.574m6.426 3.641a54 54 0 0 1-4.54-8.336c-.018-.042-.092-.01-.074.032a54 54 0 0 0 4.49 8.502 39.8 39.8 0 0 0 6.03 7.501.062.062 0 0 0 .086-.087 85 85 0 0 1-5.992-7.612m5.981 2.178c-.058-.054-.144.032-.087.087 2.141 2.06 4.14 4.255 6.232 6.364.041.041.098-.019.063-.062a64 64 0 0 0-6.208-6.389m-5.174-152.086c-.037-.056-.127-.005-.091.053 1.36 2.21 2.541 4.513 3.788 6.785.025.045.107.014.086-.036a41.7 41.7 0 0 0-3.783-6.802m4.711 1.882q-1.259-1.77-2.615-3.463c-.015-.018-.046.006-.033.025a142 142 0 0 1 2.509 3.679 41 41 0 0 0 2.432 3.595c.04.047.1-.013.079-.06a23 23 0 0 0-2.372-3.776m2.887-.185c-.261-.357-.518-.718-.786-1.07-.554-.729-1.115-1.454-1.67-2.183-.044-.058-.144-.004-.1.06.526.761 1.045 1.528 1.573 2.29.26.375.532.742.798 1.112a7 7 0 0 0 .86 1.042.053.053 0 0 0 .083-.064 7.5 7.5 0 0 0-.758-1.187m2.042-1.7q-.165-.201-.335-.398l-.712-.8c-.466-.524-.96-1.026-1.441-1.536-.019-.02-.045.009-.029.029.441.55.873 1.11 1.33 1.647l.675.793c.112.132.23.258.347.387a1 1 0 0 0 .34.3c.04.016.073-.028.065-.064a.9.9 0 0 0-.24-.358m.947-3.126-.523-.616-1.031-1.212c-.025-.03-.066.012-.042.041l.999 1.212.484.587a6 6 0 0 0 .534.605c.021.02.058-.005.041-.032a5 5 0 0 0-.462-.585"/></svg>