<svg xmlns="http://www.w3.org/2000/svg" data-name="small creature" viewBox="0 0 534.369 447.69"><path fill="currentColor" d="M149.38 225.415a72 72 0 0 0-5.13-6.534c-1.792-2.256-3.641-4.483-5.32-6.826-.097-.136-.324-.01-.229.134 1.548 2.356 3.066 4.719 4.792 6.952a36 36 0 0 0 5.704 6.416c.097.076.26-.02.184-.142m5.875 2.321a25 25 0 0 0-2.799-4.238q-1.47-2.005-2.969-3.99a88 88 0 0 0-6.344-7.586c-.027-.029-.078.009-.056.042 1.841 2.795 3.813 5.483 5.813 8.166q1.485 1.993 2.942 4.007a28 28 0 0 0 3.039 3.888.24.24 0 0 0 .374-.289m3.984-.033c-.392-.475-.79-.946-1.182-1.421q-1.249-1.516-2.484-3.042c-1.657-2.046-3.436-4.02-5.027-6.117-.062-.082-.203-.005-.141.083 1.522 2.174 2.929 4.403 4.552 6.509q1.161 1.506 2.365 2.976.62.762 1.252 1.514a3.05 3.05 0 0 0 1.302 1.074c.11.035.183-.073.169-.169a3.06 3.06 0 0 0-.806-1.407m4.182.323c-.559-.624-1.11-1.258-1.687-1.864-1.14-1.196-2.299-2.37-3.436-3.567-.07-.075-.171.034-.11.11 1.034 1.302 2.043 2.623 3.076 3.926.507.64 1.044 1.257 1.569 1.881.471.56.974 1.313 1.698 1.538a.13.13 0 0 0 .159-.159 4.26 4.26 0 0 0-1.27-1.865m6.45 2.377c-1.309-1.194-2.744-2.242-4.143-3.326-.07-.054-.17.042-.1.1 1.378 1.12 2.728 2.285 4.191 3.293.04.028.088-.035.052-.067m4.331-.244-1.702-.681c-.028-.011-.04.034-.013.045l1.703.681c.028.011.04-.034.012-.045m64.669-8.323a4.4 4.4 0 0 0-1.463-1.125c-.644-.376-1.305-.721-1.959-1.081a216 216 0 0 1-3.895-2.206c-2.58-1.491-5.184-2.95-7.71-4.53-.044-.028-.079.037-.04.067 2.389 1.81 4.793 3.581 7.342 5.16a98 98 0 0 0 3.757 2.21c.65.366 1.3.735 1.969 1.065a4.5 4.5 0 0 0 1.885.64.134.134 0 0 0 .114-.2m5.856-2.156.01-.01a19 19 0 0 0-2.043-.919 8.4 8.4 0 0 1-2.059-1.286 22.4 22.4 0 0 0-3.704-2.345c-2.624-1.48-5.294-2.878-7.917-4.36a.066.066 0 0 0-.067.115c2.569 1.576 5.086 3.234 7.653 4.811a20.4 20.4 0 0 0 3.734 2.062 8.2 8.2 0 0 1 2.135 1.142 22 22 0 0 0 1.895 1.418c.425.247.745-.387.363-.627m4.089-2.461a3.2 3.2 0 0 0-1.23-.759q-.737-.338-1.47-.684a100 100 0 0 1-2.723-1.354c-1.86-.95-3.71-1.952-5.491-3.04-.066-.04-.12.058-.06.1 1.749 1.226 3.516 2.39 5.372 3.448.908.518 1.837 1 2.772 1.468q.724.362 1.46.7a2.7 2.7 0 0 0 1.27.361.143.143 0 0 0 .1-.24m2.721-2.086a4.7 4.7 0 0 0-1.238-.69c-.46-.21-.927-.395-1.397-.581-.95-.377-1.916-.708-2.862-1.094-.053-.022-.091.069-.04.093.928.43 1.83.915 2.752 1.355.44.21.878.418 1.328.607a4.8 4.8 0 0 0 1.396.457.087.087 0 0 0 .06-.147m3.384-1.724c-.276-.142-.559-.266-.842-.391-.279-.123-.573-.212-.86-.312a.031.031 0 0 0-.025.057c.273.134.543.281.826.393.29.113.576.228.871.324a.04.04 0 0 0 .03-.071m77.64-74.595a68 68 0 0 0-6.87-3.085q-3.574-1.475-7.146-2.952c-.069-.028-.12.09-.051.122q3.527 1.584 7.052 3.171a68 68 0 0 0 6.958 2.88.075.075 0 0 0 .058-.136m8.545-2.485a55 55 0 0 0-6.616-2.44c-2.311-.81-4.602-1.68-6.876-2.588a139 139 0 0 1-13.425-6.11c-.102-.054-.193.1-.09.155 4.32 2.383 8.71 4.64 13.25 6.58q3.318 1.419 6.714 2.635a32.4 32.4 0 0 0 6.978 2.009c.128.015.175-.185.065-.24m.579-4.083a20.4 20.4 0 0 0-3.782-1.333c-1.38-.418-2.747-.874-4.11-1.344a87 87 0 0 1-8.09-3.245c-.089-.042-.168.087-.078.135a74 74 0 0 0 7.782 3.633 64 64 0 0 0 4.083 1.44 14.3 14.3 0 0 0 4.146.896.098.098 0 0 0 .05-.182m1.387-3.528a7.4 7.4 0 0 0-1.64-.694 31 31 0 0 0-1.662-.524c-1.157-.34-2.325-.638-3.49-.949a.047.047 0 0 0-.024.09c1.129.439 2.253.89 3.393 1.3.547.196 1.094.39 1.652.558a7.3 7.3 0 0 0 1.722.4.098.098 0 0 0 .05-.181m-65.418 65.667a56 56 0 0 0-.105-1.42l-.254-2.788c-.009-.094-.151-.097-.149 0l.068 2.788c.011.456.033.912.056 1.368.002.046.002.101.003.153a38 38 0 0 0-3.061-3.802 44 44 0 0 1-.031-3.182c.001-.036-.051-.034-.055 0a45 45 0 0 0-.21 2.841c-.905-1.047-1.783-2.117-2.663-3.186-.002-1.16-.001-2.322.014-3.483 0-.03-.05-.038-.054-.007a69 69 0 0 0-.378 2.99c-.219-.268-.448-.526-.665-.795-.864-1.072-1.735-2.147-2.6-3.226.005-1.44.023-2.882.079-4.322.003-.092-.133-.09-.14 0-.107 1.284-.215 2.567-.315 3.852a175 175 0 0 1-2.62-3.348c.012-1.362.037-2.723.092-4.082.004-.101-.146-.098-.156 0q-.176 1.79-.31 3.576a99 99 0 0 1-1.437-1.946c-.112-.157-.373-.012-.263.153q.824 1.239 1.65 2.469a98 98 0 0 0-.275 6.471c-.011 1.769.03 3.535.081 5.302a2.7 2.7 0 0 0 .134.93 4 4 0 0 1 .328 1.041c.024.242.03.495.034.739a7.2 7.2 0 0 0 .127 2.495c.046.11.222.141.256 0a8 8 0 0 0-.232-2.495 3.6 3.6 0 0 1 .065-1.608 2.4 2.4 0 0 0 .137-1.102 129 129 0 0 1-.189-5.302 254 254 0 0 1-.05-5.861q1.248 1.841 2.548 3.644a100 100 0 0 0-.23 4.37q-.063 2.296-.069 4.592c-.002.744.013 1.489.028 2.233.01.506-.12 1.293.381 1.593a.12.12 0 0 0 .122 0c.46-.312.322-.982.312-1.469-.015-.744-.022-1.489-.037-2.233q-.048-2.357-.049-4.715c.001-1.256-.004-2.512-.005-3.769.604.823 1.206 1.646 1.844 2.45.429.539.88 1.06 1.315 1.594-.055.695-.1 1.392-.123 2.09a82 82 0 0 0-.026 3.157c.007.899-.177 2.19.335 2.972a.118.118 0 0 0 .202 0 5.8 5.8 0 0 0 .166-2.729 109 109 0 0 1-.027-3.278v-1.573c.67.816 1.328 1.642 2.015 2.445l.604.699c-.001.089-.009.178-.01.267a29 29 0 0 0 .078 2.215 7 7 0 0 0 .367 2.067.114.114 0 0 0 .223-.03 11 11 0 0 0-.096-2.207 81 81 0 0 1-.147-1.836 21 21 0 0 0 3.012 2.892 1.1 1.1 0 0 0 .167.541.075.075 0 0 0 .128 0 2.3 2.3 0 0 0 .06-1.195"/><path fill="currentColor" d="M281.34 192.717c-.663-.796-1.345-1.576-2.018-2.362l-4.123-4.81c-2.749-3.208-5.527-6.367-8.515-9.354-.027-.027-.079.01-.055.043 2.45 3.37 5.091 6.567 7.79 9.74l4.027 4.731 1.359 1.597a26 26 0 0 0 .517 3.129.063.063 0 0 0 .123-.017 7.5 7.5 0 0 0-.307-2.72l.402.472a8.4 8.4 0 0 0 2.184 2.072c.104.055.256-.038.212-.164a8 8 0 0 0-1.596-2.357m5.815 1.817a.36.36 0 0 0-.418-.133c-.177-.233-.48-.574-.546-.659-.255-.327-.522-.647-.784-.97l-1.648-2.038c-1.098-1.358-2.207-2.706-3.314-4.056-2.211-2.695-4.512-5.31-6.834-7.909-.023-.026-.07.01-.049.038q4.21 5.775 8.676 11.342c.728.91 1.462 1.814 2.193 2.721.392.485.774.98 1.176 1.457.254.3.576.738.997.812.35.062.825-.232.55-.605m12.934-3.069c-.084-.076-.172-.146-.257-.221-.01-.065-.014-.13-.026-.195a9 9 0 0 0-.258-.881.055.055 0 0 0-.105 0c-.047.202-.105.406-.151.611-.264-.228-.521-.463-.794-.682-.539-.433-1.095-.843-1.647-1.26-.094-.07-.22.09-.127.166l.296.241a85 85 0 0 1-.205 3.124l-.047.467c-.242-.309-.506-.597-.769-.887q-.759-.837-1.536-1.653a46 46 0 0 0-.215-3.433.047.047 0 0 0-.094 0 51 51 0 0 0-.177 2.93c-.973-1-1.965-1.977-2.95-2.965-.087-.547-.182-1.092-.263-1.64-.01-.072-.121-.052-.123.016-.022.899-.123 1.797-.139 2.698-.007.408-.004.816-.005 1.224-.112-.133-.22-.27-.333-.404-.837-.989-1.7-1.955-2.568-2.915-.085-.925-.17-1.85-.246-2.775-.006-.074-.118-.076-.117 0 .01.795.01 1.59.01 2.384q-.858-.944-1.712-1.894c-.115-.13-.294.057-.188.187.648.791 1.277 1.596 1.904 2.404.001 1.078.003 2.156.02 3.233.002.155.008.31.01.465q-1.009-1.229-2.026-2.45c-1.72-2.058-3.514-4.052-5.273-6.076-.072-.082-.22.03-.153.119 1.61 2.125 3.184 4.28 4.836 6.374q1.25 1.586 2.515 3.159l.132.163c.01.468.014.936.032 1.403a8.9 8.9 0 0 0 .385 2.955.154.154 0 0 0 .293 0 8.8 8.8 0 0 0 .111-2.955c-.007-.14-.02-.28-.03-.42l.305.377a8.4 8.4 0 0 0 1.277 1.448l.02.017q.028.025.058.049l.002-.007a.33.33 0 0 0 .447-.442 6.8 6.8 0 0 0-1.074-1.45L288 190.687c-.033-.447-.06-.896-.095-1.343-.071-.897-.154-1.794-.236-2.691.641.83 1.278 1.664 1.923 2.493l.898 1.155-.001.3c-.002.9.01 1.8 0 2.701a7 7 0 0 0 .136 2.566c.075.192.392.303.5.066a6.4 6.4 0 0 0 .242-2.632c.002-.632-.01-1.265-.02-1.898l.328.421c.706.902 1.359 1.88 2.136 2.72-.128.647 1.01.636.824-.037a4.2 4.2 0 0 1-.247-.973 12 12 0 0 1 .004-.931c.015-.455.045-.909.064-1.364.332.383.662.769 1 1.147.268.3.53.604.82.883.124.119.259.265.407.384l-.026.259a3.4 3.4 0 0 0-.06 1.293.33.33 0 0 0 .093.208c.008.012.008.029.018.04l.013-.012a.34.34 0 0 0 .46.013c.361-.314.232-1.104.23-1.542q-.001-.804-.04-1.606a32 32 0 0 0-.283-3.007c.42.347.836.695 1.266 1.028.292.226.596.432.895.646l-.01.047a9 9 0 0 0-.077.946 4.6 4.6 0 0 0 .083.93 3 3 0 0 0 .116.426c.048.15.074.311.13.459a.11.11 0 0 0 .21 0c.047-.148.065-.308.102-.459a4 4 0 0 0 .088-.41 4.6 4.6 0 0 0 .036-.946c-.014-.188-.047-.373-.074-.558l.177.128c.044.03.096-.038.057-.073m-6.037 2.027c-.196-.272-.397-.543-.573-.829a.09.09 0 0 0-.103-.037c-.332-.409-.672-.811-.995-1.216-.346-.435-.708-.859-1.062-1.288a41 41 0 0 0-.141-2.22c-.025-.257-.07-.51-.107-.763.916 1.128 1.818 2.266 2.755 3.378l.124.142v.006c0 .621.063 1.241.09 1.862.014.308.026.623.018.931 0 .013-.005.022-.006.034m26.912-38.546c-.01-.039-.07-.022-.06.017 1.018 4.685-1.365 9.186-3.962 12.911a19.7 19.7 0 0 1-1.979 2.714 9.7 9.7 0 0 0-1.708 2.472c-.965 1.858-1.45 3.91-2.325 5.814a21 21 0 0 1-1.678 3.003 18.6 18.6 0 0 1-2.326 2.817.421.421 0 0 0 .295.712 4.474 4.474 0 0 0 4.164-4.606c-.002-.097-.16-.127-.176-.024a4.66 4.66 0 0 1-2.88 3.456c.997-1.339 1.89-2.752 2.801-4.152.591-.908 1.167-1.825 1.772-2.724a29 29 0 0 0 1.763-2.742 15.3 15.3 0 0 0 1.284-3.002 8.5 8.5 0 0 1 .548-1.607c.27-.55.559-1.09.842-1.633a54 54 0 0 0 3.01-6.18 12.26 12.26 0 0 0 .615-7.246m41.996-57.656c-.068-.137-.262-.017-.203.118.423.96-.096 2.319-.355 3.284a35 35 0 0 1-.844 2.743 38 38 0 0 1-2.396 5.325 19.4 19.4 0 0 1-3.25 4.87c-1.436 1.379-1.946 3.329-3.082 4.923-1.295 1.817-2.89 3.397-4.212 5.195-.057.076.064.163.128.1 1.485-1.482 2.74-3.163 4.097-4.757 1.311-1.54 3.255-2.649 4.088-4.545.836-1.9 2.076-3.594 3.02-5.444a33 33 0 0 0 2.247-5.49 25.5 25.5 0 0 0 .783-3.4 5 5 0 0 0-.021-2.922m19.032-85.526c-1.743 1.656-3.653 3.19-5.246 4.997a4 4 0 0 0-.697 1.072 10 10 0 0 1-.568 1.609 58 58 0 0 0-1.499 2.572 38.5 38.5 0 0 0-2.606 5.553 25 25 0 0 0-.842 2.918c-.185.825-.54 2-1.623 1.672a6.6 6.6 0 0 1-1.83-1.263 6.4 6.4 0 0 1-.95-.695 1.4 1.4 0 0 0-.287-.252c.146-.717.244-1.448.406-2.163q.287-1.273.685-2.517a31 31 0 0 1 1.99-4.812 27 27 0 0 1 2.832-4.368q.81-1.021 1.706-1.97A8.1 8.1 0 0 0 375 12.18c.066-.13-.048-.35-.216-.28-1.532.637-2.602 2.214-3.586 3.503a34.5 34.5 0 0 0-2.965 4.648 30.6 30.6 0 0 0-2.1 4.89 20.3 20.3 0 0 0-1.197 5.292.428.428 0 0 0 .533.406c.42-.062.713-.21 1.111.047a5.4 5.4 0 0 1 .836.764 4.3 4.3 0 0 0 1.382 1.103c1.658.634 2.033-1.597 2.3-2.674a16.5 16.5 0 0 1 2.743-6.151 15 15 0 0 1 2.222-2.31 2.9 2.9 0 0 0 .899-1.137 3.9 3.9 0 0 0 .056-1.721 2.3 2.3 0 0 1 .876-1.66q.71-.77 1.414-1.548c.997-1.098 1.928-2.249 2.913-3.358a.164.164 0 0 0-.232-.232m5.234 3.905a59 59 0 0 1-1.612 2.341c-.567.794-1.077 1.644-1.67 2.417-.287.375-.616.483-.918.862a4.3 4.3 0 0 0-.605 1.297c-.31.893-.595 1.787-.954 2.664-.04.097.111.181.177.103.59-.708 1.225-1.366 1.852-2.038a4.5 4.5 0 0 0 .91-1.194q.08-.179.145-.364a.8.8 0 0 0 0-.41q.076.138.074-.136a1 1 0 0 1 .119-.316c.394-.855.885-1.676 1.306-2.52.437-.876.872-1.75 1.351-2.603a.102.102 0 0 0-.175-.103m-7.754 12.981-.68 1.361c-.003.005.004.009.006.004l.68-1.361c.003-.005-.004-.009-.006-.004m65.444 5.87a27.5 27.5 0 0 0-3.481 2.929 37 37 0 0 0-3.009 3.517 32 32 0 0 0-2.518 3.882 22 22 0 0 0-1.932 4.266.133.133 0 0 0 .243.102c.802-1.27 1.486-2.621 2.282-3.9q1.198-1.92 2.54-3.749 1.336-1.826 2.83-3.532c1.015-1.16 2.02-2.35 3.088-3.46.026-.028-.01-.08-.043-.055m-1.121 1.929a57 57 0 0 0-3.693 4.847 22.5 22.5 0 0 0-2.75 5.424c-.044.138.146.202.22.094.557-.811 1.043-1.693 1.55-2.537q.79-1.315 1.57-2.637a59 59 0 0 1 3.262-5.068c.068-.092-.086-.212-.16-.123M199.46 70.11c-1.007-1.164-2.178-2.211-3.284-3.278a192 192 0 0 0-2.757-2.592l.149-.53c.034-.116-.141-.162-.18-.049l-.147.411c-.15-.138-.295-.28-.445-.419q-3.419-3.138-6.985-6.11c-.042-.035-.103.025-.061.061q3.54 2.999 6.934 6.16c.168.157.33.319.498.476-.494 1.396-.995 2.784-1.453 4.185-.463-.436-.922-.874-1.39-1.303-.264-.241-.536-.473-.8-.712.407-1.466.797-2.935 1.16-4.415a.027.027 0 0 0-.054-.015q-.818 1.996-1.576 4.011c-.752-.678-1.51-1.348-2.269-2.02q.514-1.851.982-3.718a.04.04 0 0 0-.075-.02l-1.31 3.379c-.222-.194-.437-.395-.66-.587-.64-.553-1.297-1.087-1.944-1.633q.425-1.286.854-2.571c.03-.09-.118-.156-.157-.066q-.506 1.186-1.019 2.367c-.831-.7-1.67-1.39-2.509-2.08q.324-1.063.632-2.13c.019-.065-.074-.086-.098-.027-.267.646-.527 1.295-.793 1.941-.897-.737-1.807-1.459-2.711-2.187.038-.152.085-.302.12-.454a.043.043 0 0 0-.08-.033c-.07.116-.132.24-.2.358-.602-.485-1.197-.979-1.805-1.457-.07-.055-.17.042-.1.1.614.496 1.207 1.017 1.812 1.523-.68 1.216-1.23 2.528-1.782 3.798l-.365.851c-.836-.73-1.682-1.45-2.528-2.17q.857-2.216 1.706-4.436c.02-.054-.069-.092-.093-.04q-.967 2.103-1.93 4.205c-.976-.829-1.966-1.643-2.954-2.458.248-.74.503-1.478.745-2.22.008-.025-.032-.042-.043-.018-.303.69-.595 1.386-.893 2.079-.353-.291-.7-.59-1.056-.879-.06-.05-.15.035-.088.088.361.317.71.647 1.069.968q-1.195 2.783-2.337 5.588-1.287-1.199-2.566-2.405a280 280 0 0 1 2.332-5.888c.025-.06-.08-.105-.107-.045a253 253 0 0 0-2.551 5.627l-.531-.498a.098.098 0 0 0-.138.138l.568.594a91 91 0 0 0-2.159 5.423c-.347-.237-.695-.473-1.032-.724-.124-.092-.282.113-.166.215.358.312.696.645 1.033.98a62 62 0 0 0-.918 2.807c-.024.082.107.142.143.06.376-.849.729-1.707 1.084-2.563q.226.227.457.449c.606.573 1.225 1.135 1.843 1.695l.271.25a12.3 12.3 0 0 0-1.121 3.683c-.013.168.203.183.283.077a11.3 11.3 0 0 0 1.49-3.158 20 20 0 0 0 2.2 1.85l-.071.17a6.9 6.9 0 0 0-.699 2.38.118.118 0 0 0 .2.084 6.5 6.5 0 0 0 1.165-2.05q.032-.073.062-.147l.01.007a.122.122 0 0 0 .167-.165c-.02-.034-.048-.063-.069-.096q.402-.923.787-1.854c.405-.98.802-1.965 1.201-2.949q1.13 1.148 2.277 2.279l-.359.848a21.2 21.2 0 0 0-1.649 4.637.141.141 0 0 0 .257.108 19.2 19.2 0 0 0 2.084-4.172c.108-.256.211-.514.318-.77l.242.242c.696.68 1.399 1.402 2.15 2.053l-.213.529c-.15.374-.297.748-.426 1.13-.05.148-.173.917-.327.937a.09.09 0 0 0-.078.135c.602.943 1.577-1.73 1.753-2.166.197.147.39.3.598.429a.114.114 0 0 0 .155-.155 9 9 0 0 0-.557-.762 170 170 0 0 0 1.715-4.386c.215-.57.42-1.142.626-1.714.676.653 1.353 1.303 2.025 1.958-.477 1.201-.94 2.408-1.409 3.612a12.6 12.6 0 0 0-1.225 4.065.154.154 0 0 0 .26.107 11.8 11.8 0 0 0 1.693-3.587q.671-1.782 1.328-3.57.266.255.53.511c.62.608 1.228 1.236 1.847 1.854a38 38 0 0 0-1.813 5.922.137.137 0 0 0 .25.105 30 30 0 0 0 2.257-5.355 21 21 0 0 0 1.932 1.67c.13.097.317-.094.224-.224a19 19 0 0 0-1.893-2.22l.528-1.608a92 92 0 0 0 1.207-3.959c.738.681 1.479 1.36 2.213 2.046-.222.597-.452 1.19-.663 1.792a83 83 0 0 0-1.053 3.14c-.311 1.013-.471 2.089-.839 3.078a.13.13 0 0 0 .216.126 7.7 7.7 0 0 0 1.248-2.522c.394-1.12.75-2.25 1.09-3.385.177-.587.336-1.177.502-1.765.19.18.386.353.576.533q.796.753 1.59 1.508c-.359 1.138-.692 2.285-.94 3.464-.016.077.1.139.136.057.45-1.042.821-2.105 1.17-3.175l.278.264a18 18 0 0 0 2.347 2.052c.105.07.25-.07.176-.176a15.4 15.4 0 0 0-2.04-2.191c-.189-.18-.383-.355-.572-.535.45-1.44.857-2.895 1.269-4.355.867.817 1.733 1.635 2.585 2.468 1.13 1.106 2.202 2.295 3.379 3.35a.09.09 0 0 0 .127-.127m-34.368-2.791-.013.032-.08-.07q-.938-.816-1.928-1.57c-.218-.167-.445-.32-.67-.476a294 294 0 0 0 2.12-5.342q1.243 1.295 2.481 2.594l-.18.438c-.587 1.46-1.157 2.928-1.73 4.394m3.34 1.304c-.201.471-.396.945-.593 1.417a17 17 0 0 0-2.133-2.142l.05-.14c.562-1.51 1.13-3.02 1.679-4.536l.073-.208c.769.807 1.537 1.615 2.315 2.414-.465 1.064-.932 2.128-1.39 3.195m1.676-3.85c-.801-.763-1.61-1.517-2.419-2.272q1.05-2.927 2.037-5.876c.96.86 1.921 1.72 2.867 2.595q-1.084 2.376-2.142 4.765zm2.836 2.756c-.744-.734-1.486-1.47-2.239-2.194l-.06-.057c.138-.345.281-.688.42-1.034q.946-2.353 1.857-4.718 1.232 1.143 2.459 2.292-.664 1.54-1.324 3.084zm5.058-2.091c-.56 1.386-1.108 2.778-1.675 4.161l-.38.94c-.581-.634-1.207-1.236-1.8-1.833-.182-.183-.37-.36-.553-.542.407-.98.816-1.96 1.216-2.945.387-.954.76-1.913 1.136-2.87.572.538 1.148 1.073 1.718 1.614.227.214.449.435.674.651zm.591-1.449c-.165-.153-.326-.31-.492-.463-.637-.582-1.299-1.136-1.946-1.707.126-.323.259-.643.383-.967a41 41 0 0 0 1.4-4.009c.887.745 1.784 1.48 2.66 2.238q-1.007 2.452-2.005 4.908m2.628 2.47q-1.025-.97-2.057-1.933.914-2.582 1.714-5.201c.818.71 1.638 1.416 2.448 2.135a231 231 0 0 0-2.105 5m3.5 1.631c-.15.423-.309.846-.465 1.269-.514-.504-1.034-1.001-1.544-1.499-.28-.272-.573-.532-.855-.803a212 212 0 0 0 1.812-5.294c.587.523 1.185 1.035 1.767 1.563.265.24.525.487.789.73a184 184 0 0 0-1.504 4.034m18.537-1.108a20 20 0 0 0-2.167-2.088q-1.116-1.01-2.237-2.018l-4.473-4.036c-.03-.027-.074.016-.045.044l4.46 4.175c.733.686 1.463 1.374 2.199 2.056a20 20 0 0 0 2.21 1.935c.044.029.082-.033.053-.068m1.913-4.272a33 33 0 0 0-3.391-2.429c-.095-.061-.173.084-.087.149a33 33 0 0 0 3.426 2.347c.04.023.09-.035.052-.068m-27.85 50.977a9 9 0 0 0-1.128-.733q-.592-.346-1.192-.679c-.415-.228-.835-.447-1.253-.67q-.005-.862-.023-1.723a.04.04 0 0 0-.078 0c-.043.532-.093 1.063-.14 1.595q-.486-.258-.97-.518a.102.102 0 0 0-.103.175l1.048.621a465 465 0 0 0-.298 3.338c-.26-.191-.527-.372-.762-.542q-.946-.686-1.91-1.35c.135-1.999.27-3.997.464-5.99.01-.105-.166-.13-.184-.025a100 100 0 0 0-.837 5.628c-1.14-.78-2.299-1.532-3.457-2.285.326-2.129.682-4.253 1.1-6.366a.078.078 0 0 0-.15-.042 66 66 0 0 0-1.538 6.019l-.219-.145c-.072-.047-.137.067-.067.115.086.058.17.121.256.18a64 64 0 0 0-.616 3.446l-.5-.419c-.618-.517-1.245-1.025-1.869-1.536.377-2.634.819-5.258 1.422-7.864a.07.07 0 0 0-.135-.037c-.691 2.44-1.332 4.927-1.847 7.44q-1.334-1.087-2.671-2.17.453-2.509 1.022-4.992a.063.063 0 0 0-.12-.033q-.674 2.373-1.208 4.776l-.781-.635c-.035-.029-.085.02-.05.05l.804.701a87 87 0 0 0-.811 4.18c-1-.86-2.018-1.702-3.023-2.557a97 97 0 0 1 1.36-6.992.035.035 0 0 0-.068-.019 73 73 0 0 0-1.777 6.6q-1.288-1.091-2.579-2.18c.322-1.721.666-3.438 1.059-5.146a.05.05 0 0 0-.098-.027q-.714 2.413-1.34 4.852c-.389-.328-.773-.661-1.165-.986-.023-.018-.055.013-.033.034.385.362.78.716 1.168 1.075a93 93 0 0 0-.966 4.178l-.154.757c-.969-.793-1.947-1.575-2.92-2.363a101 101 0 0 1 1.823-9.464.04.04 0 0 0-.075-.02c-.884 2.999-1.644 6.026-2.226 9.098q-1.176-.95-2.351-1.902a239 239 0 0 1 1.17-7.949c.009-.058-.077-.085-.091-.025a120 120 0 0 0-1.534 7.606l-1.291-1.044c-.02-.015-.047.01-.028.028q.646.574 1.296 1.146c-.11.642-.237 1.28-.336 1.924q-.28 1.83-.508 3.669a57 57 0 0 0-2.301-1.465c-.026-.016-.049.024-.024.04a81 81 0 0 1 2.303 1.598c-.034.277-.073.553-.104.83a22.4 22.4 0 0 0-.273 4.973.165.165 0 0 0 .323.043 28.4 28.4 0 0 0 .614-4.653c.025-.243.055-.485.08-.728.281.205.566.406.845.614.45.336.888.687 1.328 1.035a25 25 0 0 0-.08 4.203c.005.074.12.101.137.019.256-1.228.43-2.473.587-3.722.555.44 1.112.879 1.685 1.295.04.029.086-.034.052-.068a20 20 0 0 0-1.702-1.5c.213-1.742.39-3.491.633-5.224.955.844 1.903 1.694 2.862 2.532a33.6 33.6 0 0 0-.864 7.922.11.11 0 0 0 .215.03 63 63 0 0 0 1.301-7.382c.42.365.835.737 1.258 1.1q.653.561 1.308 1.121c-.067.535-.138 1.069-.188 1.605a17 17 0 0 0-.034 4.718.126.126 0 0 0 .241 0 27.4 27.4 0 0 0 .57-4.598c.035-.375.076-.749.113-1.124q1.358 1.166 2.718 2.33l.29.245a24 24 0 0 0-.091 4.522c.01.097.164.137.184.025.243-1.34.352-2.714.465-4.077.939.798 1.886 1.588 2.89 2.301.002.499-.005.997.017 1.495.004.1.169.135.184.025q.087-.633.169-1.268c.214.146.423.3.643.437.078.05.151-.058.094-.123-.219-.246-.453-.478-.684-.714.209-1.592.405-3.186.6-4.778l.921.82c.513.456 1.029.938 1.552 1.414a38 38 0 0 0 .037 4.951.086.086 0 0 0 .172 0c.175-1.45.32-2.903.465-4.356a14 14 0 0 0 1.936 1.45c.13.079.234-.091.152-.196a15.6 15.6 0 0 0-2.009-2.04c.148-1.49.302-2.978.484-4.464l1.764 1.497c.633.537 1.257 1.116 1.917 1.637a40 40 0 0 0 .07 3.539.09.09 0 0 0 .18 0c.12-1.043.214-2.088.303-3.133.19.132.38.266.58.38a.063.063 0 0 0 .075-.098 9 9 0 0 0-.619-.661c.114-1.395.21-2.79.303-4.186q.786.61 1.563 1.234.497.4 1.005.787l.087.066a62 62 0 0 0-.206 3.963.067.067 0 0 0 .13.018 30 30 0 0 0 .532-3.659 1.7 1.7 0 0 0 .517.218.091.091 0 0 0 .102-.132 2.4 2.4 0 0 0-.575-.709c.082-1.18.114-2.366.113-3.55.362.215.723.433 1.088.643q.595.341 1.199.668a9 9 0 0 0 1.214.586c.067.025.13-.078.072-.124m-29.894-3.256c-.306 1.658-.6 3.361-.777 5.07q-.595-.452-1.198-.89c-.321-.235-.653-.453-.98-.679.136-1.305.27-2.61.43-3.913.07-.573.156-1.146.23-1.72q1.157 1.022 2.312 2.045zm7.028 2.647q-.195 1.166-.358 2.339l-1.09-.91c-.486-.405-.98-.8-1.47-1.203.06-.406.116-.814.182-1.218.215-1.297.447-2.591.687-3.884q1.268 1.166 2.535 2.334-.272 1.266-.486 2.542m3.345 5.434-.105-.088-2.907-2.429a85 85 0 0 1 .655-4.997c.996.912 1.979 1.838 2.98 2.743l-.035.203a80 80 0 0 0-.588 4.568m3.367 2.945c-.897-.872-1.857-1.68-2.818-2.483.14-1.607.329-3.208.536-4.808l.135.125c.82.739 1.648 1.47 2.473 2.204a46 46 0 0 0-.326 4.962m.404-5.617q-1.139-1-2.283-1.993l-.32-.27q.292-2.15.673-4.29 1.32 1.154 2.642 2.306a63 63 0 0 0-.712 4.247m3.624-1.675a63 63 0 0 0-.468 4.407c-.44-.373-.88-.742-1.3-1.112l-1.148-1.002q.27-2.19.574-4.373c.592.513 1.181 1.029 1.778 1.535l.573.487zm4.413 3.18c-.584-.506-1.2-.98-1.784-1.468l-1.872-1.566.005-.042c.15-1.19.335-2.376.515-3.561q1.748 1.222 3.438 2.524a54 54 0 0 0-.302 4.113m-63.626 40.535c-.078-.116-.265-.01-.189.11 1.541 2.419 3.066 4.84 4.748 7.164.038.052.122.007.088-.051-1.45-2.473-3.053-4.841-4.647-7.223m6.258 2.074c-1.318-2.263-2.696-4.49-4.076-6.715a.035.035 0 0 0-.06.036c1.242 2.305 2.486 4.61 3.791 6.88 1.301 2.264 2.552 4.589 4.053 6.728a.063.063 0 0 0 .108-.063c-1.108-2.367-2.501-4.61-3.816-6.866m10.865 9.316a34.5 34.5 0 0 0-2.704-4.57q-1.422-2.245-2.832-4.499c-1.876-3.006-3.74-6.02-5.525-9.082a.094.094 0 0 0-.162.095c1.717 3.146 3.454 6.28 5.286 9.362q1.358 2.284 2.774 4.532a28 28 0 0 0 3.003 4.285c.085.09.202-.025.16-.123m4.4-1.467q-.823-1.472-1.662-2.936-1.676-2.928-3.427-5.812-3.497-5.78-7.323-11.341c-.014-.02-.047-.002-.034.02q3.523 5.68 6.939 11.427 1.69 2.849 3.334 5.726.84 1.463 1.664 2.935a25 25 0 0 0 1.736 2.891c.067.09.247.043.2-.084a21 21 0 0 0-1.427-2.826m7.149 3.315a25 25 0 0 0-1.616-2.782l-1.546-2.537q-1.61-2.643-3.238-5.275-3.251-5.27-6.605-10.474a.027.027 0 0 0-.048.028q3.089 5.434 6.278 10.809 1.58 2.66 3.173 5.313l1.595 2.651a24 24 0 0 0 1.627 2.56c.184.233.482-.064.38-.293m-1.305-8.337c-.064-.095-.217-.008-.154.09a89 89 0 0 0 4.957 7.383c.042.053.123-.015.092-.071a88 88 0 0 0-4.894-7.403m7.366 5.089a11.7 11.7 0 0 0-1.562-1.71.05.05 0 0 0-.072.072 25.7 25.7 0 0 1 2.742 3.714.05.05 0 0 0 .088-.05 13 13 0 0 0-1.196-2.026m263.04-4.775a32 32 0 0 1-.624-3.935 64 64 0 0 1-.149-7.943 140 140 0 0 1 .15-4.246c.04-.709.204-1.414.21-2.123a20 20 0 0 0-.459-2.248c-.302-2.816-.292-5.7-.386-8.53a82 82 0 0 1 .03-9.498c.008-.097-.136-.093-.148 0a69 69 0 0 0-.616 8.521c-.016 2.876.144 5.759.084 8.633a8 8 0 0 1-.232 2.159 4.7 4.7 0 0 0 .079 2.293 41 41 0 0 1 .434 4.29c.204 2.709.345 5.427.599 8.131.258 2.752.575 5.857 1.989 8.292a.059.059 0 0 0 .107-.045c-.345-1.255-.779-2.479-1.068-3.75m-5.017-10.522c-.05-1.015.146-2.074.03-3.077-.065-.56-.253-1.067-.283-1.638q-.045-.855-.063-1.71c-.051-2.324.037-4.64.179-6.96q.237-3.897.598-7.787c.004-.052-.084-.065-.092-.013a97.6 97.6 0 0 0-1.502 14.027 33 33 0 0 1-.041 3.568 8.8 8.8 0 0 0 .49 3.016c.479 2.129.911 4.279 1.542 6.369a24.3 24.3 0 0 0 2.865 6.501.043.043 0 0 0 .074-.043c-1.886-3.843-3.588-7.916-3.797-12.253m8.588-10.22c.013-.097-.135-.141-.15-.041a22.6 22.6 0 0 0 .168 8.223c.015.07.116.04.105-.029a28.6 28.6 0 0 1-.123-8.153m13.684 41.538c-1.687-1.662-3.545-3.155-5.333-4.707-1.797-1.56-3.625-3.084-5.429-4.636-.053-.046-.127.026-.077.077 1.675 1.73 3.39 3.422 5.2 5.01a51 51 0 0 0 5.525 4.403c.09.06.19-.073.114-.147m7.966-1.295-2.243-1.798c-1.529-1.226-3.071-2.434-4.61-3.647q-4.621-3.64-9.269-7.245c-.035-.027-.085.02-.05.05q4.537 3.808 9.084 7.605c1.504 1.25 3.004 2.502 4.519 3.739l2.32 1.895a7.7 7.7 0 0 0 2.141 1.433.087.087 0 0 0 .097-.126 8.2 8.2 0 0 0-1.99-1.906m5.671-2.297q-1.952-1.625-3.916-3.238-3.983-3.261-7.994-6.487c-.03-.024-.075.018-.044.045q3.87 3.372 7.763 6.718 1.926 1.652 3.868 3.285a23 23 0 0 0 3.923 3.081c.056.03.143-.036.096-.096a23 23 0 0 0-3.696-3.308m10.125.993c-.376-.379-.81-.714-1.211-1.066-.84-.738-1.699-1.455-2.55-2.18l-10.21-8.708c-.024-.02-.057.012-.034.033l6.993 6.32 3.404 3.078c.583.527 1.162 1.057 1.748 1.58.309.276.622.546.934.818.064.057.548.534.734.744-.302.107.405.968.565.13.056-.293-.19-.563-.373-.749m6.821-1.251q-.886-.716-1.78-1.422-1.76-1.39-3.555-2.735a177 177 0 0 0-7.527-5.318c-.047-.031-.088.042-.044.074a284 284 0 0 1 7.448 5.6q1.751 1.358 3.48 2.745.886.714 1.77 1.433a6.8 6.8 0 0 0 1.615 1.13c.054.022.105-.052.075-.097a6.6 6.6 0 0 0-1.482-1.41m6.274-.989q-.776-.586-1.561-1.16a108 108 0 0 0-3.08-2.182c-2.081-1.412-4.23-2.73-6.4-4a.027.027 0 0 0-.028.048 143 143 0 0 1 6.176 4.157c.997.705 1.993 1.411 2.974 2.139q.736.545 1.464 1.1a5.3 5.3 0 0 0 1.435.952.063.063 0 0 0 .07-.092 4 4 0 0 0-1.05-.962m7.085-.969a12 12 0 0 0-2.271-1.593c-.816-.534-1.635-1.063-2.45-1.598q-2.441-1.604-4.822-3.297c-.022-.016-.05.02-.029.037q2.282 1.774 4.625 3.467a82 82 0 0 0 2.402 1.679 11 11 0 0 0 2.45 1.469.098.098 0 0 0 .095-.164m4.099-2.022q-.48-.352-.974-.684c-.636-.43-1.277-.85-1.92-1.27-1.303-.853-2.625-1.68-3.94-2.516-.042-.028-.079.038-.039.067 1.25.898 2.495 1.803 3.753 2.689q.911.643 1.834 1.27c.328.222.656.443.992.653a3.4 3.4 0 0 0 .93.498c.052.013.111-.047.076-.097a3 3 0 0 0-.712-.61m5.102-1.316a11 11 0 0 0-1.33-.738 26 26 0 0 0-2.772-1.105c-.098-.033-.132.113-.042.15a19.4 19.4 0 0 1 2.628 1.364c.407.249.807.507 1.214.754a4.4 4.4 0 0 0 1.246.656.11.11 0 0 0 .124-.16 3.2 3.2 0 0 0-1.068-.921m6.843-.392a3 3 0 0 0-.375-.293 4.6 4.6 0 0 0-.874-.436 8.3 8.3 0 0 0-1.886-.444c-.117-.014-.144.185-.028.207a7 7 0 0 1 1.766.589q.418.2.828.416c.14.073.278.135.42.201a4 4 0 0 0 .38.189.079.079 0 0 0 .09-.115 1.8 1.8 0 0 0-.321-.314m8.789-1.072c-.44-.082-.894-.072-1.34-.12a8.5 8.5 0 0 1-1.373-.261.074.074 0 0 0-.04.143 8 8 0 0 0 1.383.344 3.5 3.5 0 0 0 1.37.006.059.059 0 0 0 0-.113m-131.392 33.439a4.5 4.5 0 0 0-1.242-.735c-.472-.232-.956-.441-1.432-.666a40 40 0 0 1-2.758-1.42.035.035 0 0 0-.036.061 76 76 0 0 0 2.666 1.679c.436.258.873.518 1.328.743a4 4 0 0 0 1.4.518.107.107 0 0 0 .074-.18m9.576-2.561a38 38 0 0 0-4.2-1.834 245 245 0 0 1-4.683-1.958c-2.967-1.281-5.915-2.595-8.804-4.047-.089-.045-.168.088-.078.135 2.89 1.51 5.797 2.998 8.767 4.346a127 127 0 0 0 4.221 1.833 28.7 28.7 0 0 0 4.716 1.668.079.079 0 0 0 .06-.143m5.33-4.433a24 24 0 0 0-2.814-1.142 283 283 0 0 1-3.023-1.154q-3.154-1.231-6.238-2.629a135 135 0 0 1-11.636-5.932.035.035 0 0 0-.036.06 124 124 0 0 0 11.605 6.214q2.851 1.328 5.766 2.513c.999.407 2.002.807 3.016 1.174a20 20 0 0 0 3.302 1.031c.078.014.137-.093.058-.135m5.835-4.22a46 46 0 0 0-5.466-2.036q-2.848-1.007-5.67-2.082a279 279 0 0 1-11.412-4.595c-.037-.016-.069.037-.032.054a243 243 0 0 0 11.012 4.748c1.871.75 3.758 1.463 5.649 2.16a35.7 35.7 0 0 0 5.856 1.901c.085.015.152-.105.063-.15m7.19-3.2a88 88 0 0 0-8.564-2.915l-8.83-2.82c-.034-.01-.048.042-.014.053l8.658 2.977a89 89 0 0 0 8.704 2.812c.062.014.11-.08.046-.107m6.761-2.244c-2.11-.541-4.262-.896-6.369-1.465q-3.156-.852-6.215-2.017c-.043-.016-.06.052-.019.068a66 66 0 0 0 6.308 2.13 35.7 35.7 0 0 0 6.285 1.353c.04.003.047-.06.01-.07m3.44-2.49a12 12 0 0 0-2.282-.934 49 49 0 0 0-2.51-.79 59 59 0 0 0-5.118-1.233c-.073-.015-.105.096-.03.113q2.523.557 4.998 1.312c.81.247 1.612.516 2.412.792a21 21 0 0 0 2.494.825.047.047 0 0 0 .036-.085m1.7-3.012a4.3 4.3 0 0 0-1.263-.38c-.474-.111-.95-.209-1.426-.313q-1.398-.306-2.793-.627a.066.066 0 0 0-.036.128q1.384.36 2.764.735c.452.122.902.248 1.354.368a4.4 4.4 0 0 0 1.353.263.095.095 0 0 0 .047-.174m3.775-2.853a13 13 0 0 0-2.772-.923c-.045-.012-.059.05-.019.068a13 13 0 0 0 2.745.962c.061.01.108-.073.046-.107m17.026-46.61c-2.742-1.844-5.662-3.435-8.514-5.102a.082.082 0 0 0-.083.142c2.829 1.707 5.622 3.51 8.554 5.034a.043.043 0 0 0 .043-.074m11.596 1.666a177 177 0 0 0-20.853-11.078c-.05-.023-.093.05-.043.075 7.094 3.434 13.947 7.286 20.857 11.07a.04.04 0 0 0 .04-.068m5.337-1.505a73 73 0 0 0-10.496-6.543 120 120 0 0 0-11.195-5.273c-.053-.021-.092.07-.04.093 3.783 1.634 7.464 3.471 11.075 5.454 3.615 1.985 7.038 4.27 10.594 6.349.048.028.108-.043.061-.08m1.769-4.207a114 114 0 0 0-19.051-10.248c-.082-.035-.154.084-.071.122a180 180 0 0 1 19.07 10.214c.057.034.105-.052.052-.088m4.417-1.348a93 93 0 0 0-8.656-5.288c-2.95-1.654-5.97-3.184-9.025-4.638-.027-.013-.05.027-.023.04a197 197 0 0 1 8.937 4.787c2.944 1.667 5.784 3.502 8.711 5.193.062.036.112-.054.056-.094m3.359-2.306c-4.603-2.87-9.458-5.37-14.199-8.005a.059.059 0 0 0-.059.101c4.715 2.682 9.375 5.53 14.219 7.972a.04.04 0 0 0 .04-.068m2.031-2.363c-1.506-.981-3.134-1.79-4.711-2.65l-4.75-2.585c-.04-.022-.074.038-.035.06l4.714 2.646c1.567.88 3.119 1.828 4.75 2.583a.031.031 0 0 0 .032-.054m3.416-2.06c-2.202-1.256-4.496-2.36-6.748-3.521-.031-.016-.059.03-.028.047 2.24 1.184 4.46 2.433 6.748 3.52.032.015.059-.03.028-.047m5.458-.358c-.547-.477-1.115-.927-1.682-1.381-.066-.053-.16.04-.094.094.573.454 1.143.911 1.734 1.342.032.024.072-.029.042-.055M438.353 75.29c-.06-.07-.155.03-.1.1 2.252 2.85 4.488 5.719 6.965 8.378.036.038.106-.013.074-.057-2.153-2.934-4.557-5.672-6.94-8.42m13.515 9.648a26 26 0 0 0-2.958-3.696q-1.6-1.883-3.22-3.748-3.233-3.734-6.515-7.424c-.023-.027-.06.011-.038.038q3.082 3.797 6.2 7.563 1.543 1.855 3.096 3.7a27 27 0 0 0 3.294 3.676c.075.061.194-.015.14-.11m-6.209-15.566c-.055-.06-.138.028-.088.089 1.721 2.125 3.478 4.213 5.348 6.21.035.037.085-.017.055-.056-1.686-2.155-3.479-4.214-5.315-6.243"/><path fill="currentColor" d="M457.83 83.518c-.622-1.379-2.103-2.212-3.167-3.23a5.4 5.4 0 0 1-.971-1.077c-.204-.35-.22-.802-.447-1.14a5 5 0 0 0-.757-.676c-.298-.283-.572-.594-.852-.895-2.163-2.328-4.335-4.627-6.675-6.779-.056-.05-.161.019-.11.085 1.912 2.51 3.98 4.87 6.081 7.223.248.277.501.549.74.833a7 7 0 0 0 .717.96c.32.262.77.335 1.103.575a4.7 4.7 0 0 1 .84.872c.98 1.202 1.704 2.87 3.092 3.655a.3.3 0 0 0 .406-.406m8.67 1.572c-.22-.296-.47-.573-.705-.857a32 32 0 0 0-1.752-1.918 43 43 0 0 1-3.495-3.993 190 190 0 0 0-6.24-7.766c-.068-.08-.213.03-.148.114a183 183 0 0 0 6.274 7.74 40.5 40.5 0 0 1 3.095 4.147c.453.684.901 1.364 1.408 2.01.256.325.505.659.768.978a2 2 0 0 0 .954.67.143.143 0 0 0 .207-.159 1.9 1.9 0 0 0-.366-.966m8.522 3.019c-1.846-2.527-3.935-4.868-5.997-7.217a130 130 0 0 0-6.554-6.904.055.055 0 0 0-.077.078 168 168 0 0 1 6.128 6.997c2.013 2.422 3.836 4.986 5.75 7.484l.005-.005c.023.03.04.063.064.093.302.382.972-.128.68-.526m5.279.619a6 6 0 0 0-.899-1.186c-.74-.917-1.485-1.828-2.244-2.73-1.495-1.773-3.036-3.508-4.514-5.295-.048-.057-.15.02-.105.08 1.293 1.724 2.521 3.495 3.798 5.23.62.844 1.241 1.684 1.879 2.514.33.43.655.863.99 1.29a2.6 2.6 0 0 0 .444.533c.057.04.52.166.459.274a.122.122 0 0 0 .19.146c.244-.197.11-.606.003-.856m4.676 1.388a15 15 0 0 0-.511-.936 21 21 0 0 0-1.206-1.764 20 20 0 0 0-2.925-3.035.04.04 0 0 0-.055.055 27.6 27.6 0 0 1 2.482 3.336q.552.846 1.029 1.738c.159.297.325.59.48.889.143.275.266.66.563.8a.278.278 0 0 0 .402-.164 1.36 1.36 0 0 0-.259-.919m4.54.774c-.064-.07-.122-.157-.162-.207a23 23 0 0 0-.457-.557c-.31-.368-.62-.731-.944-1.086-.314-.343-.622-.69-.948-1.022-.346-.352-.713-.677-1.054-1.035-.066-.07-.19.022-.135.104.441.65.831 1.327 1.287 1.97.453.639.92 1.262 1.398 1.882.206.265.44.641.777.752a.57.57 0 0 0 .76-.349.406.406 0 0 0-.522-.452m4.29.585c-.024-.033-.057-.064-.078-.099q-.032-.035-.001-.007l-.025-.058a2 2 0 0 0-.344-.382c-.235-.238-.486-.46-.737-.682a17 17 0 0 1-1.445-1.388c-.053-.06-.155.018-.11.085.343.512.681 1.025 1.068 1.505a7 7 0 0 0 .603.675q.173.166.359.317a.78.78 0 0 0 .435.236l-.106-.029a.85.85 0 0 0 .346.142c.07.01.145-.042.12-.12a.6.6 0 0 0-.085-.195m4.224.39a.7.7 0 0 0-.173-.164 4 4 0 0 0-.202-.13 5 5 0 0 0-.444-.256 33 33 0 0 1-.926-.45.059.059 0 0 0-.06.102q.436.274.861.56a5 5 0 0 0 .45.249q.105.056.215.105a.7.7 0 0 0 .232.066.055.055 0 0 0 .047-.082m3.671-.191a.8.8 0 0 0-.19-.115l.041.04a.6.6 0 0 0-.287-.151 5 5 0 0 0-.3-.104l-.607-.187c-.197-.06-.283.25-.085.309l.684.203c.11.033.223.056.335.081l.09.02a1 1 0 0 0 .098.003 1 1 0 0 0 .177.007c.048-.006.09-.066.044-.106M374.141 66.115c-.776-.867-1.55-1.735-2.34-2.59-1.578-1.71-3.171-3.405-4.764-5.102-.038-.04-.096.02-.06.061 1.484 1.755 2.966 3.51 4.466 5.253a225 225 0 0 0 2.239 2.548 21.5 21.5 0 0 0 2.438 2.493c.055.045.148-.012.105-.08a20.4 20.4 0 0 0-2.084-2.583m3.713-2.485c-2.046-2.04-4.107-4.064-6.162-6.094a.07.07 0 0 0-.1.1c2.031 2.054 4.055 4.116 6.094 6.161 2.032 2.038 3.997 4.198 6.165 6.091a.066.066 0 0 0 .094-.094c-1.894-2.168-4.053-4.132-6.09-6.164m7.543.286q-3.225-3.243-6.474-6.462a.055.055 0 0 0-.077.078q3.192 3.275 6.393 6.542c2.13 2.162 4.182 4.471 6.48 6.456a.047.047 0 0 0 .066-.066c-1.961-2.318-4.248-4.395-6.388-6.548m13.182 6.654c-.74-1.147-2.235-1.791-3.27-2.64-1.117-.916-2.143-1.938-3.165-2.957q-3.067-3.058-5.878-6.357c-.02-.023-.052.01-.033.033q2.799 3.306 5.853 6.381c.992.997 2.014 1.963 3.001 2.964.52.527.995 1.098 1.485 1.651a5.05 5.05 0 0 0 1.58 1.353c.26.115.614-.14.428-.428m8.229 1.564a8.3 8.3 0 0 0-1.54-1.265 43 43 0 0 1-1.846-1.475c-1.11-.927-2.16-1.927-3.194-2.937-2.072-2.022-4.19-3.99-6.319-5.95a.043.043 0 0 0-.06.06c2.038 2.117 4.13 4.16 6.333 6.107 1.084.957 2.165 1.92 3.2 2.931a53 53 0 0 1 1.526 1.538 8.4 8.4 0 0 0 1.536 1.464c.306.195.571-.224.365-.473m5.251.219c-.338-.285-.68-.565-1.018-.85q-1.04-.882-2.053-1.793-1.999-1.796-3.923-3.676a.031.031 0 0 0-.044.044q1.857 1.997 3.85 3.853.97.902 1.966 1.776c.35.307.7.617 1.058.913a3.1 3.1 0 0 0 .943.662.071.071 0 0 0 .079-.103 3.4 3.4 0 0 0-.858-.826m5.68.379a4.7 4.7 0 0 0-.809-.695 24 24 0 0 0-.893-.652q-.909-.625-1.81-1.262c-.057-.04-.131.054-.075.098q.863.685 1.722 1.376c.278.226.563.44.852.653a4.8 4.8 0 0 0 .923.599.075.075 0 0 0 .09-.117m6.007 2.879a3 3 0 0 1-.198-.171 1 1 0 0 0-.185-.127 9 9 0 0 0-.433-.258l-.885-.486a.055.055 0 0 0-.056.094l.845.555q.212.136.432.261a1 1 0 0 0 .199.103q.123.042.243.094c.036.016.067-.04.038-.065M306.66 57.516c-.994-.608-2.013-1.177-2.967-1.848a22.6 22.6 0 0 1-2.745-2.282.078.078 0 0 0-.11.11 23 23 0 0 0 2.711 2.32 14.6 14.6 0 0 0 3.072 1.792c.055.023.086-.063.04-.092m35.531 14.193c-1.132-1.324-2.484-2.464-3.726-3.683q-1.869-1.835-3.692-3.717-3.64-3.766-6.999-7.788c-.03-.035-.077.015-.05.05q3.305 4.147 6.901 8.05 1.778 1.927 3.64 3.77a33 33 0 0 0 3.807 3.471c.096.068.186-.074.119-.153m-6.622-11.753c-.02-.015-.047.011-.027.028a70 70 0 0 1 6.818 6.802c.026.03.08-.01.055-.043a38 38 0 0 0-6.846-6.787m12.526 11.224a15 15 0 0 0-.952-.76 19 19 0 0 0-2.015-1.324c-.176-.098-.334.172-.158.27a10.8 10.8 0 0 1 1.915 1.355 10 10 0 0 1 .805.822c.24.27.507.636.877.72a.142.142 0 0 0 .178-.135 1.57 1.57 0 0 0-.65-.947m6.381.603a16.5 16.5 0 0 0-2.36-2.315q-1.298-1.193-2.646-2.329c-1.735-1.458-3.547-2.817-5.38-4.15-.057-.04-.132.055-.076.099 1.788 1.413 3.505 2.917 5.195 4.447q1.234 1.118 2.442 2.265.62.59 1.23 1.192a11 11 0 0 0 1.227 1.16c.216.153.523-.153.368-.37m3.159-2.23a19 19 0 0 0-1.385-1.164c-.943-.729-1.945-1.38-2.948-2.022-.051-.033-.096.046-.047.08 1.912 1.366 3.513 3.1 5.403 4.487.052.038.13-.038.09-.091a9 9 0 0 0-1.113-1.29m5.151-.707a13 13 0 0 0-1.32-.892c-.46-.293-.934-.557-1.407-.826a.031.031 0 0 0-.031.054c.438.31.872.624 1.325.912a13 13 0 0 0 1.376.825c.045.022.101-.037.057-.073M229.7 33.282c-.657-.635-1.335-1.249-2.006-1.869-1.312-1.212-2.621-2.428-3.94-3.632q-4.009-3.657-8.07-7.253c-.033-.03-.082.018-.05.05q3.898 3.766 7.852 7.47c1.303 1.222 2.617 2.432 3.928 3.645.67.621 1.335 1.25 2.02 1.855a16 16 0 0 0 1.93 1.617c.053.033.13-.037.09-.091a16 16 0 0 0-1.754-1.792m7.512 1.458a31 31 0 0 0-3.277-3.28q-1.69-1.59-3.396-3.159a268 268 0 0 0-6.957-6.144c-.038-.032-.093.021-.055.056 2.313 2.109 4.6 4.247 6.891 6.381q1.697 1.58 3.376 3.18a36 36 0 0 0 3.347 3.058c.058.043.108-.044.07-.092m-3.096-8.816c-.034-.03-.083.018-.05.05 2.02 1.947 4.016 3.94 6.15 5.762.035.029.082-.017.05-.05-1.957-2.012-4.075-3.874-6.15-5.762"/><path fill="currentColor" d="M534.338 69.225c-.172-3.345-.906-7.543-3.62-9.803a21.6 21.6 0 0 0-5.633-2.867l-6.424-2.712q-12.966-5.475-25.934-10.947c-4.274-1.804-8.535-3.64-12.828-5.398a59.2 59.2 0 0 0-12.836-3.908c-4.454-.73-8.978-.922-13.426-1.69a79.6 79.6 0 0 1-12.808-3.757 180 180 0 0 0-26.42-6.753q-.835-.158-1.672-.313c-3.675-1.924-7.37-3.808-11.119-5.58-3.502-1.657-6.972-3.456-10.571-4.894a26.8 26.8 0 0 0-11.424-1.577c-16.184.707-32.36 1.036-48.556.538-16.25-.5-32.48-1.727-48.605-3.813-8.096-1.047-16.148-2.356-24.179-3.812-7.56-1.371-15.31-2.682-22.981-1.444a31.06 31.06 0 0 0-17.96 9.682 94 94 0 0 0-7.539 10.298l-.103-.096a.023.023 0 0 0-.034.033q.054.054.106.109a81 81 0 0 1-2.16 3.022l-.027-.029c-.05-.052-.12.024-.078.078l.037.043a46 46 0 0 1-1.8 2.242 27 27 0 0 1-3.069 3.033 51 51 0 0 0-2.187-.406c-7.28-1.153-14.965-1.508-22.115.562a28.5 28.5 0 0 0-8.824 4.191 24.5 24.5 0 0 0-6.58 7.204c-3.395 5.612-4.815 12.127-6.693 18.335a117 117 0 0 1-4.319 11.783c-1.384 3.263-2.766 6.524-4.191 9.768-1.215.698-2.419 1.415-3.578 2.21a21.3 21.3 0 0 0-7.171 7.448 30.5 30.5 0 0 0-2.276 7.008l-1.935 8-1.905 7.88-.967 4c-.321 1.327-.724 2.66-.968 4.001a1.22 1.22 0 0 0 .196.932c-2.427 1.982-4.858 3.959-7.268 5.963-3.079 2.56-6.217 5.063-9.213 7.719a32.7 32.7 0 0 0-7.092 8.384c-3.551 6.36-4.555 13.868-4.978 21.034a94 94 0 0 0 .503 16.574 56.7 56.7 0 0 0-1.36 15.82 67 67 0 0 0 1.192 9.587c.626 3.172 1.486 6.295 2.03 9.483a52 52 0 0 1 .534 9.847c-.066 3.308-.166 6.615-.25 9.922l-.232 9.092-.012.018c-.111.22-.184.469-.275.697a14 14 0 0 0-.464 1.335c-.265.934-.47 1.883-.678 2.83a20.6 20.6 0 0 1-1.657 5.443.145.145 0 0 0 .195.197 25.3 25.3 0 0 1-3.498 4.652c-3.433 3.638-7.628 6.263-11.753 9.028-4.1 2.747-8.141 5.717-11.009 9.801-3.046 4.34-4.481 9.522-6.86 14.211-2.605 5.14-6.532 9.493-10.108 13.965q-5.652 7.068-11.212 14.208-11.124 14.271-21.982 28.747c-3.626 4.818-7.26 9.627-10.717 14.568-3.451 4.93-6.928 9.843-10.371 14.778q-1.292 1.85-2.593 3.695c-.14.2.19.46.344.265 7.5-9.576 15.11-19.064 22.411-28.793q10.99-14.641 22.186-29.126 5.59-7.201 11.262-14.338 2.838-3.567 5.7-7.114a77 77 0 0 0 5.05-6.8c2.922-4.583 4.392-9.85 6.969-14.605 2.435-4.492 6.152-7.764 10.302-10.64 4.075-2.825 8.48-5.322 12.047-8.81 3.213-3.14 5.937-7.171 6.557-11.702l-.116 4.51a128 128 0 0 0 .562 19.694 68 68 0 0 0 4.296 16.45 83.5 83.5 0 0 0 14.644 23.648 28 28 0 0 0 2.395 4.967 52 52 0 0 0 3.737 5.612 48.5 48.5 0 0 0 9.322 9.41 42.5 42.5 0 0 0 6.49 3.996.129.129 0 0 0 .13-.223 66.7 66.7 0 0 1-18.497-18.566 70 70 0 0 1-1.855-3.056q-.137-.24-.272-.484c.87.957 1.755 1.9 2.663 2.821a105.1 105.1 0 0 0 28.148 20.426q1.918.948 3.842 1.884a.195.195 0 0 0 .197-.337c-4.94-2.96-9.653-6.248-14.335-9.594a132 132 0 0 1-13.407-10.804 87 87 0 0 1-19.876-26.923 68.2 68.2 0 0 1-5.092-15.8 93.5 93.5 0 0 1-1.202-18.948c.105-6.568.32-13.135.489-19.702l.256-9.984c.082-3.194.227-6.397.08-9.59-.294-6.41-2.443-12.5-3.295-18.829a79 79 0 0 1-.683-9.564c-.027-2.3.104-4.587.257-6.876.09.541.173 1.083.271 1.622a70 70 0 0 0 2.828 10.958 94 94 0 0 0 4.49 10.294c.415.835.83 1.669 1.261 2.496.104.2.385.024.297-.174a75 75 0 0 1-3.791-10.682c-.987-3.596-1.915-7.235-2.682-10.886a93 93 0 0 1-1.935-22.25c.234-7.007.96-14.48 4.036-20.881 3.296-6.861 9.733-11.355 15.436-16.095l5.363-4.459a48 48 0 0 0 4.367-3.939 35 35 0 0 0 3.46-4.277 17 17 0 0 0 1.36-2.36 17 17 0 0 0 .787-2.497c.05-.176-.211-.244-.271-.075a13 13 0 0 1-1.218 2.274 17 17 0 0 1-1.43 2.063 23 23 0 0 1-3.175 3.119c.012-.06.024-.126.037-.183l.528-2.182 1.905-7.88 1.905-7.88c.623-2.576 1.176-5.183 1.91-7.731a16 16 0 0 1 2.606-5.422 20.5 20.5 0 0 1 3.577-3.508c2.727-2.152 5.812-3.85 8.677-5.81a27.9 27.9 0 0 0 7.535-6.928 17.4 17.4 0 0 0 1.182-2.181c.12-.246-.236-.462-.371-.217-1.653 2.997-4.593 5.275-7.473 7.006-1.3.782-2.627 1.515-3.949 2.255a54 54 0 0 0 3.722-6.462 92 92 0 0 0 4.086-10.24c2.108-6.207 3.339-12.784 6.2-18.716a24.8 24.8 0 0 1 5.483-7.633 24.3 24.3 0 0 1 8.05-4.776c6.73-2.463 13.947-2.366 20.975-1.561 4.442.508 8.87 1.053 13.295 1.696l5.164.75a3.5 3.5 0 0 0 .433.306c.082.045.202-.052.139-.14-.024-.032-.056-.062-.081-.095l1.004.146a55 55 0 0 0 5.829.688 8.3 8.3 0 0 0 1.19.858.063.063 0 0 0 .076-.098 7.4 7.4 0 0 0-.703-.737c.041 0 .083.005.124.006a.16.16 0 0 0 .043-.315c-.249-.083-.502-.147-.753-.22q-.31-.267-.609-.534c-.62-.559-1.247-1.108-1.872-1.66-1.282-1.13-2.547-2.278-3.815-3.423-2.092-1.89-4.153-3.816-6.224-5.73 1.425-1.86 2.785-3.78 4.169-5.672 4.04-5.525 9.051-10.062 15.632-12.293 7.494-2.541 15.541-1.735 23.195-.449 7.827 1.316 15.617 2.773 23.48 3.874 15.761 2.206 31.63 3.594 47.53 4.262 16.039.673 32.104.623 48.143-.027 3.962-.161 8.036-.65 11.992-.22 3.819.415 7.276 2.257 10.696 3.875 4.04 1.911 8.111 3.73 12.198 5.513l-.062-.005c-.134-.01-.144.183-.03.223.867.307 1.726.615 2.604.872q3.814 1.649 7.64 3.282c1.77.756 3.536 1.518 5.308 2.266.151.064.255-.189.111-.264q-3.543-1.866-7.08-3.749c1.416.36 2.833.717 4.247 1.083 4.3 1.112 8.545 2.35 12.79 3.653 4.142 1.27 8.182 2.83 12.305 4.158a64 64 0 0 0 12.826 2.58 76.5 76.5 0 0 1 12.94 2.08 109 109 0 0 1 12.172 4.632q9.59 4.043 19.18 8.091a12.6 12.6 0 0 0-5.94.806 15.2 15.2 0 0 0-6.306 5.24 21 21 0 0 0-2.083 3.676 17 17 0 0 0-1.4 4.197 3.04 3.04 0 0 0 1.626 3.417 51.8 51.8 0 0 0 14.612 5.246c1.7.335 3.408.56 5.119.827 1.431.225 3.288.572 4.633-.166a3.3 3.3 0 0 0 1.425-1.906c.306-.835.556-1.684.905-2.503a16.3 16.3 0 0 1 2.928-4.677 10.41 10.41 0 0 1 9.585-3.435c.02.004.03-.009.048-.008a6.65 6.65 0 0 1 3.077 3.535c2.252 5.934 1.124 12.885-1.998 18.282a22.2 22.2 0 0 1-6.103 6.872 26.3 26.3 0 0 1-10.548 4.204c-8.68 1.698-17.673 1.345-26.4.211-8.84-1.148-17.555-3.134-26.269-4.978-4.3-.91-8.637-1.717-12.904-2.773-3.633-.898-7.308-2.174-10.056-4.82a8.96 8.96 0 0 1-2.669-4.37c-.041-.207-.358-.12-.316.087a11.8 11.8 0 0 0 1.893 4.773 13 13 0 0 0 1.316 1.526 7 7 0 0 1-.789.113 3.5 3.5 0 0 0-.467-.303 9 9 0 0 0-1.83-.616q-1.867-.504-3.74-.985-3.748-.962-7.519-1.828-7.482-1.72-15.045-3.06-7.63-1.353-15.323-2.32-3.778-.477-7.568-.86c-2.493-.25-5.003-.395-7.489-.71a15.05 15.05 0 0 1-6.859-2.378 12.4 12.4 0 0 1-4.101-5.448.133.133 0 0 0-.256.07 11.87 11.87 0 0 0 6.777 8.646 7 7 0 0 1-.85-.03 5.2 5.2 0 0 0-1.66-.03c-1.133.229-2.259.486-3.395.7a82 82 0 0 1-6.657.984 72 72 0 0 1-13.148.3 44 44 0 0 1-3.048-.357 176 176 0 0 0-9.471-5.063.124.124 0 0 0 .029-.176 59 59 0 0 0-4.43-4.343l-4.418-4.178q-4.464-4.222-9.027-8.34c-.03-.027-.073.015-.044.044q4.389 4.383 8.88 8.664l4.489 4.282c1.386 1.321 2.73 2.713 4.233 3.9-4.033-2-8.134-3.861-12.306-5.549-2.176-1.741-4.473-3.34-6.688-5.028q-4.271-3.254-8.405-6.69c-.057-.046-.139.031-.083.084q3.89 3.65 8.056 6.975c1.65 1.32 3.334 2.64 5.082 3.857a177 177 0 0 0-5.173-1.937 176 176 0 0 0-18.079-5.328c-3.232-.77-6.479-1.484-9.688-2.35a85 85 0 0 1-9.394-3.216c-.256-.102-.506-.216-.76-.321a9.4 9.4 0 0 0-.916-1.08 38 38 0 0 0-2.346-2.496 48.1 48.1 0 0 0-17.798-11.034 49 49 0 0 0-7.533-1.796c-.181-.032-.26.242-.077.28a43.4 43.4 0 0 1 6.539 2.005 52 52 0 0 1 6.318 2.828 48.7 48.7 0 0 1 11.04 8.09 47 47 0 0 1 1.814 1.903c-1.823-.838-3.634-1.707-5.472-2.51a112 112 0 0 0-9.188-3.55 99 99 0 0 0-19.131-4.424c-1.592-.2-3.19-.337-4.79-.441-.074-.005-.092.118-.018.13a134.5 134.5 0 0 1 18.787 4.345 122 122 0 0 1 17.962 7.43 86 86 0 0 0 8.927 4.044 88 88 0 0 0 9.444 2.724c6.108 1.468 12.201 2.89 18.195 4.788a174.3 174.3 0 0 1 48.846 24.465 27.4 27.4 0 0 1 6.41 5.703 13.34 13.34 0 0 1 2.493 7.655c.13 5.73-2.338 11.246-5.092 16.139l-.076.128a.245.245 0 0 0-.293.119c-.204.438-.389.887-.565 1.342a79 79 0 0 1-3.866 5.78c-1.733 2.373-3.521 4.71-5.448 6.928-.96 1.105-1.982 2.167-2.993 3.227-.14.147.049.425.228.295a50 50 0 0 0 9.99-9.668c-.206.697-.42 1.392-.624 2.09-.996 3.42-1.963 6.847-2.931 10.275-1.91 6.76-3.655 13.57-5.605 20.319a55.4 55.4 0 0 1-3.364 9.098 51 51 0 0 1-4.57 7.504 89.5 89.5 0 0 1-12.04 13.003q-3.672 3.37-7.475 6.602c-1.097.93-2.424 2.003-3.926 2.084a8.3 8.3 0 0 1-1.888-.242 2.04 2.04 0 0 1-.859-.351 65.6 65.6 0 0 0 3.084-9.23c.4-1.589.754-3.187 1.03-4.802l.009-.05c1.09-2.306 2.148-4.63 3.056-7.015 2.21-5.803 3.442-12.283.927-18.2a26.6 26.6 0 0 0-4.94-7.303c-1.93-2.135-4.013-4.139-6.125-6.09a132 132 0 0 0-28.696-20.164q-5.667-2.944-11.607-5.326c-.575-1.263-1.243-2.483-1.918-3.694q-1.269-2.272-2.683-4.45a.055.055 0 0 0-.094.055q1.301 2.198 2.54 4.435c.651 1.179 1.27 2.376 1.92 3.555q-2.176-.87-4.38-1.666l-.017-.006a39 39 0 0 0-2.343-4.82 82 82 0 0 0-2.847-4.888.027.027 0 0 0-.047.028c.95 1.593 1.85 3.215 2.72 4.854.837 1.576 1.542 3.235 2.412 4.79a118 118 0 0 0-4.547-1.512q-.085-.338-.172-.674a.043.043 0 0 0-.084.011l.02.308c-1.134-2.111-2.463-4.147-3.742-6.167a161 161 0 0 0-4.328-6.446c-.018-.024-.058-.001-.04.024a231 231 0 0 1 4.19 6.525c1.29 2.073 2.465 4.219 3.748 6.294-4.398-1.364-8.844-2.58-13.164-4.178a71 71 0 0 1-8.08-3.643 237 237 0 0 1-3.854-2.063c-.584-.318-1.166-.649-1.751-.971a1 1 0 0 0-.064-.357 2.8 2.8 0 0 0-.326-.583c-.295-.429-.626-.838-.942-1.252q-.946-1.236-1.944-2.43a83 83 0 0 0-4.093-4.589q-2.14-2.216-4.445-4.26-1.174-1.042-2.382-2.046c-.81-.672-1.686-1.254-2.506-1.914-.185-.148-.45.104-.266.265.786.69 1.48 1.465 2.232 2.189q1.047 1.009 2.064 2.048 2.153 2.202 4.192 4.513a118 118 0 0 1 3.9 4.626c.633.793 1.25 1.6 1.863 2.407l.035.047c-2.43-1.108-4.808-2.318-7.29-3.319a41.5 41.5 0 0 0-8.033-2.435 30 30 0 0 0-4.003-.408c-.077-.004-.098.126-.018.138 5.499.833 10.68 3.137 15.514 5.806 1.24.685 2.471 1.38 3.653 2.162 1.151.762 2.412 1.386 3.62 2.056 2.481 1.378 4.985 2.72 7.561 3.91 5.72 2.645 11.8 4.224 17.795 6.095a128 128 0 0 1 15.937 6.154 130.4 130.4 0 0 1 28.816 18.33q3.26 2.74 6.337 5.692a66 66 0 0 1 5.875 6.2 19 19 0 0 1 3.877 7.572 19.9 19.9 0 0 1-.181 8.716 47 47 0 0 1-3.004 8.678c-1.22 2.766-2.501 5.525-3.92 8.195a30.6 30.6 0 0 1-4.86 7.035 22.4 22.4 0 0 1-6.554 4.692 11.5 11.5 0 0 1-3.949.976.184.184 0 0 0 0 .367 13.6 13.6 0 0 0 7.935-1.54 19.8 19.8 0 0 0 6.295-5.907 35 35 0 0 0 1.948-3.044 114 114 0 0 1-1.776 4.758 103 103 0 0 1-7.554 15.162 122 122 0 0 1-9.911 13.939 124 124 0 0 1-11.688 12.675 19.4 19.4 0 0 1-2.643 2.055q-.134-.18-.27-.356a16 16 0 0 0-.558-.679q-.629-.732-1.295-1.43a33 33 0 0 0-2.886-2.711 34 34 0 0 0-5.508-3.688 17 17 0 0 0 .15-3.292 145 145 0 0 1 5.211 4.152q1.742 1.461 3.423 2.995a30 30 0 0 0 3.36 2.96.134.134 0 0 0 .181-.182 19 19 0 0 0-3.18-3.299q-1.725-1.573-3.542-3.036a67 67 0 0 0-5.473-3.97 22 22 0 0 0-.355-2.617q2.853 1.643 5.578 3.49 1.551 1.05 3.05 2.177c1.016.764 1.982 1.664 3.059 2.342.134.084.27-.104.165-.215a21 21 0 0 0-2.854-2.315q-1.546-1.153-3.15-2.227c-1.895-1.27-3.877-2.412-5.889-3.488a56 56 0 0 0-2.647-8.308c-1.905-5.096-3.678-10.285-5.977-15.22l-.206-.45a38.5 38.5 0 0 0-.488-6.294c-.04-.582-.09-1.163-.116-1.746a91 91 0 0 1-.083-3.191 27 27 0 0 0-.04-3.351.596.596 0 0 0-.575-.437 8.3 8.3 0 0 1-2.694-.709 86 86 0 0 0-.993-.366 16 16 0 0 0-1.75-1.643c-3.132-2.503-6.85-4.14-10.433-5.879q-12.353-5.992-24.89-11.594a764 764 0 0 0-12.419-5.394q-.403-.807-.84-1.599 3.87 1.638 7.736 3.288c3.483 1.486 6.954 2.986 10.487 4.349.066.025.112-.084.048-.114-6.117-2.884-12.391-5.441-18.6-8.122-.617-1.095-1.26-2.176-1.88-3.256q-1.955-3.41-4.044-6.737a.023.023 0 0 0-.04.024q1.973 3.396 3.897 6.822c.546.967 1.07 1.954 1.599 2.937a62 62 0 0 1-4.196-2.01l-.398-.205-1.438-2.592q-1.94-3.498-3.92-6.973c-.015-.027-.055-.003-.04.023q1.886 3.53 3.8 7.044l1.276 2.332-.269-.139a9 9 0 0 0-1.01-.529c-.39-.131-.801-.166-1.193-.312q-.695-.26-1.389-.527c-.398-.152-.793-.316-1.19-.472-.51-.884-1.03-1.762-1.538-2.644-1.105-1.913-2.24-3.81-3.366-5.71a.027.027 0 0 0-.047.027c1.076 1.93 2.143 3.866 3.24 5.784.457.8.908 1.604 1.364 2.405-1.94-.766-3.87-1.561-5.795-2.366l-.618-1.023-3.143-5.23a.07.07 0 0 0-.121.07l3 5.315.367.654q-.788-.33-1.577-.657a55 55 0 0 1-9.546-4.68c-.055-.037-.105.05-.052.087a48.7 48.7 0 0 0 8.183 4.34q1.651.734 3.303 1.464.537.953 1.1 1.892c-2.763-1.109-5.527-2.21-8.285-3.33-1.877-.763-3.701-1.638-5.567-2.422-.974-.41-1.991-.696-2.951-1.141a31 31 0 0 1-2.662-1.425c-.863-.507-1.675-1.096-2.532-1.616-.055-.034-.106.04-.066.086a25.6 25.6 0 0 0 4.55 3.742c.827.587 1.63 1.201 2.472 1.767a18.4 18.4 0 0 0 2.698 1.388c3.827 1.737 7.77 3.216 11.666 4.79q12.555 5.07 24.947 10.532 12.397 5.464 24.621 11.31c3.765 1.8 7.629 3.505 11.246 5.593a16.9 16.9 0 0 1 7.289 7.354 15 15 0 0 1-1.06 2.215 34 34 0 0 1-3.77 5.329 4.3 4.3 0 0 0-.621 1.408 22 22 0 0 1-.705 1.573c-.493.99-1.063 1.933-1.615 2.89a194 194 0 0 0-3.275 5.893c-.052.097.096.184.148.086a149 149 0 0 1 3.473-6.187 29 29 0 0 1 1.816-2.774 10.7 10.7 0 0 1 1.402-1.534 3 3 0 0 0 .711-1.232 22 22 0 0 1 1.825-3.04 30 30 0 0 0 1.502-2.644 13 13 0 0 0 .51-1.205 24 24 0 0 1 1.457 7.317c-.004.034-.023.062-.016.1l.031.14c.062 1.082.088 2.164.093 3.235a124 124 0 0 1-.382 13.484c-.117 1.122-.198 2.247-.325 3.369-.026.23.345.272.399.054a80 80 0 0 0 2.155-13.41l.205.61c.833 2.468 1.756 4.904 2.662 7.347.895 2.413 1.81 4.82 2.685 7.24a32.6 32.6 0 0 1 1.724 6.254l-.014-.009c-.044-.026-.08.039-.04.068l.07.053c.035.243.086.484.11.73a16.5 16.5 0 0 1-.525 5.712l-.013-.01c-.029-.02-.065.027-.038.05l.033.029a32 32 0 0 1-3.054 7.257 40.3 40.3 0 0 1-7.082 9.397 31 31 0 0 1-9.558 6.48 33 33 0 0 1-13.269 2.14 257 257 0 0 1-14.504-.557 94 94 0 0 1-14.177-1.873 54.6 54.6 0 0 1-8.944-2.717c-1.184-2.238-2.427-4.438-3.462-6.755-1.258-2.818-2.207-5.746-3.222-8.656.82-.31 1.632-.638 2.427-1.005a.6.6 0 0 0 .198-.141c.137.032.275.056.411.087a44.5 44.5 0 0 0 2.397 8.694 37.7 37.7 0 0 0 4.818 8.998c.032.043.102.006.074-.043a72 72 0 0 1-4.61-9.258 56 56 0 0 1-2.504-8.354c1.06.24 2.126.44 3.195.618.09.32.177.643.278.96.197.621.424 1.23.642 1.844.446 1.256.95 2.49 1.39 3.747a.063.063 0 0 0 .12-.034 37 37 0 0 0-1.064-3.91 21 21 0 0 0-.709-1.807c-.118-.258-.25-.507-.383-.756.394.063.787.136 1.182.189q1.048.14 2.1.237a44.5 44.5 0 0 0 6.292 13.583.047.047 0 0 0 .08-.047 89.4 89.4 0 0 1-6.148-13.52c.588.052 1.177.099 1.768.129q1.028.053 2.057.062a6.3 6.3 0 0 1 2.34.212c1.22.501 1.668 2.125 2.177 3.213a26 26 0 0 0 2.043 3.585 24.02 24.02 0 0 0 15.225 10.174c.1.018.185-.132.076-.179-1.254-.531-2.45-1.186-3.646-1.835a22.7 22.7 0 0 1-3.465-2.259 34.4 34.4 0 0 1-5.716-5.831 26 26 0 0 1-2.221-3.477 32 32 0 0 0-1.85-3.65 4.62 4.62 0 0 0-3.934-1.927c-1.405-.04-2.803-.035-4.205-.14a51.2 51.2 0 0 1-15.83-3.853 56 56 0 0 1-14.118-8.28 51 51 0 0 1-6.498-6.432 64 64 0 0 1-5.58-7.605.059.059 0 0 0-.102.059 39.4 39.4 0 0 0 4.286 7.212 51.5 51.5 0 0 0 5.416 6.077 58 58 0 0 0 3.488 3.077 60 60 0 0 1-8.069-5.936 37.2 37.2 0 0 1-6.653-7.803.063.063 0 0 0-.108.063 34.1 34.1 0 0 0 6.261 8.38 25.4 25.4 0 0 0 8.65 5.632c.107.039.169-.077.136-.162a56.5 56.5 0 0 0 9.78 6.374 47 47 0 0 0 8.416 3.288 45 45 0 0 0-4.268 1.447c-1.974.738-3.934 1.511-5.902 2.262a78 78 0 0 1-11.995 3.627 55.5 55.5 0 0 1-11.886 1.04c-.311-.106-.618-.223-.93-.327-.02-.007-.035.027-.015.035l.687.29a92 92 0 0 1-13.608-1.331c-4.895-.814-9.718-2.022-14.618-2.78-.684-.106-1.474.772-.777 1.335.61.491 1.325.907 1.982 1.338a9 9 0 0 0 2.202 1.046 8 8 0 0 0 2.298.371 8.5 8.5 0 0 0 2.343-.383.075.075 0 0 0 .043-.121q2.281.455 4.569.86a105 105 0 0 0 13.28 1.577 67 67 0 0 0 6.766-.02c4.419 1.843 8.853 3.65 13.254 5.534a832 832 0 0 1 18.202 8.023c3.366 1.537 6.691 3.175 10.15 4.493.143.055.229-.168.102-.243-2.855-1.683-5.87-3.06-8.876-4.451q-4.569-2.115-9.178-4.14c-6.028-2.638-12.094-5.197-18.23-7.571q-2.259-.874-4.528-1.715a57 57 0 0 0 5.413-.61c.776-.13 1.541-.29 2.301-.464 7.686 3.416 15.414 6.74 23.067 10.232a66 66 0 0 0 7.252 3.105c.134.043.206-.15.093-.221a51 51 0 0 0-6.327-3.179q-3.172-1.45-6.359-2.868c-4.235-1.886-8.487-3.744-12.782-5.49a246 246 0 0 0-4.352-1.714 58 58 0 0 0 4.991-1.478 16 16 0 0 0 2.657 1.12c1.093.425 2.186.849 3.27 1.297 1.875.777 3.735 1.681 5.648 2.384a14 14 0 0 0 1.52 1.756c3.346 3.264 8.069 5.067 12.457 6.43a69.5 69.5 0 0 0 11.038 2.396c2.326 1.004 4.61 2.095 6.931 3.117.045.02.084-.042.04-.068a46 46 0 0 0-6.401-2.974 180 180 0 0 0 17.95 1.206c2.944.095 5.922.19 8.869-.007.014.225.034.448.05.654.047.657.14 1.313.233 1.966a37 37 0 0 0 .805 4.112 40.6 40.6 0 0 0 2.766 7.713.122.122 0 0 0 .222-.094 76 76 0 0 1-2.176-7.843 90 90 0 0 1-.727-3.894c-.111-.69-.195-1.382-.3-2.072-.029-.19-.052-.391-.078-.595a30.3 30.3 0 0 0 5.582-.97 30.8 30.8 0 0 0 10.851-5.703 39.6 39.6 0 0 0 8.224-9.14l.025.004a19 19 0 0 1 1.892.334 13 13 0 0 1 3.275 1.373 60 60 0 0 1 5.63 4.064c.112.084.209-.086.137-.178a20.6 20.6 0 0 0-2.98-3.076c.064.002.127-.041.106-.111-.025-.082-.031-.168-.056-.249-.023-.073-.06-.14-.084-.213a3.4 3.4 0 0 0-.207-.494c-.16-.32-.33-.634-.493-.952-.039-.075-.069-.154-.105-.23.497.008.995-.013 1.492-.035a21 21 0 0 0 .892 2.498 11.9 11.9 0 0 0 1.726 3.069c.06.07.159-.007.143-.084a14.4 14.4 0 0 0-1.25-3.275 31 31 0 0 0-1.159-2.216c.048-.003.096 0 .144-.003a16.16 16.16 0 0 0 8.482-2.847 48 48 0 0 0 6.65-6.21q2.999-3.145 5.82-6.452a114.8 114.8 0 0 0 18.238-28.599 3.3 3.3 0 0 0 1.047 1.057 4.74 4.74 0 0 0 3.964.084 13.8 13.8 0 0 0 3.985-2.68q1.726-1.491 3.44-2.997a120 120 0 0 0 13.242-13.162 53.1 53.1 0 0 0 9.411-16.085c1.208-3.396 2.1-6.897 3.042-10.374.975-3.597 1.975-7.188 2.917-10.794.881-3.37 1.77-6.739 2.637-10.113 10.449.663 21.181 1.072 31.438-1.421 9.188-2.233 17.396-7.07 26.029-10.75a55.4 55.4 0 0 1 13.132-4.007c5.373-.835 10.86-.33 16.218.356a172 172 0 0 1 30.631 6.841c9.66 3.1 19.309 6.88 27.944 12.262 3.987 2.486 7.97 5.314 10.95 8.99a16.52 16.52 0 0 1 3.74 11.922c-.761 9.13-7.76 15.892-15.676 19.562-9.31 4.315-19.742 4.917-29.701 6.731-10.247 1.866-20.063 5.842-30.436 7.042-10.046 1.163-20.152-1.277-30.174.202-.33.049-.656.133-.983.204a25.7 25.7 0 0 0 4.054-3.906c.084-.103-.022-.277-.151-.196-4.03 2.518-8.115 4.907-12.358 7.051-4.307 2.177-8.733 4.1-13.069 6.215a147.4 147.4 0 0 0-25.993 16.14c-1.905 1.481-4.04 3.087-6.497 3.436a13 13 0 0 1-3.232-.152 4.8 4.8 0 0 1-1.246-.242 21 21 0 0 0-1.739-3.026 42.6 42.6 0 0 1-4.1-7.467c-1.132-2.792-2.07-5.662-2.932-8.548q-1.5-5.023-2.876-10.088c-.012-.045-.074-.025-.068.018a107 107 0 0 0 3.82 16.712 56 56 0 0 0 2.802 7.532c1.052 2.232 2.898 4.107 3.616 6.494a4.15 4.15 0 0 1-.137 3.008 4.9 4.9 0 0 1-.807 1.188c-.121.134-.253.286-.391.433a20 20 0 0 0-.606-1.376c-1.348-2.82-2.854-5.574-4.258-8.368l-2.33-4.638c-.818-1.624-1.695-3.192-2.593-4.77-.075-.131-.305-.043-.25.105 1 2.706 2.107 5.348 3.247 8 1.161 2.703 2.334 5.402 3.46 8.12.542 1.309 1.221 2.61 1.647 3.96a4.55 4.55 0 0 1-.255 3.374 14.5 14.5 0 0 1-2.016 3.024 15.7 15.7 0 0 1-2.546 2.7 11.3 11.3 0 0 1-4.07 1.579 11 11 0 0 0-2.177.743c-.364.186-.738.373-1.098.582a10.2 10.2 0 0 0-1.243-3.126c-1.12-1.87-2.443-3.62-3.62-5.456-1.282-2.005-2.541-4.028-3.852-6.014-.634-.96-1.279-1.911-1.892-2.885a.274.274 0 0 0-.473.276 490 490 0 0 1 6.827 11.83 21.1 21.1 0 0 1 2.331 5.572 10 10 0 0 1-.7 5.8 28.5 28.5 0 0 1-3.007 5.385q-1.492 2.234-3.115 4.376a90 90 0 0 1-7.026 8.17 93 93 0 0 1-16.625 13.608 91.5 91.5 0 0 1-19.302 9.411q-2.537.882-5.125 1.612a20.2 20.2 0 0 0-5.853 2.266 25.4 25.4 0 0 1-4.944 3.056 20.5 20.5 0 0 1-5.254 1.075c-.685-.74-1.592-1.385-2.257-2.001a38 38 0 0 1-4.382-4.68 60.5 60.5 0 0 1-6.56-11.195c-2.1-4.471-3.91-9.116-5.645-13.74-.097-.258-.506-.156-.421.117 2.422 7.846 4.915 15.686 9.285 22.712a41.6 41.6 0 0 0 6.991 8.74l-.026-.003c-.16-.02-.215.23-.081.299q.451.23.925.43c.568.443 1.486 1.01 1.029 1.751a5 5 0 0 1-1.04 1.046q-.743.64-1.488 1.277c-1.827 1.573-3.623 3.193-5.505 4.7a13.47 13.47 0 0 1-6.291 3.167 10 10 0 0 1-2.948-.093 17 17 0 0 1-1.071-.202 5.6 5.6 0 0 0 .035-1.762 21 21 0 0 0-1.085-3.7c-1.66-4.92-3.154-9.9-4.433-14.932-1.288-5.068-2.343-10.182-3.41-15.3-.26-1.255-.537-2.508-.798-3.763-.01-.043-.081-.034-.077.01a192 192 0 0 0 5.742 29.797c.636 2.446 1.442 4.869 1.992 7.334a5.4 5.4 0 0 1 .123 1.603c-.025-.014-.05-.023-.074-.037a.189.189 0 0 0-.257.256c.074.135.16.25.24.373a5 5 0 0 1-.419 1.245c-.445.9-.945 1.777-1.444 2.647a77 77 0 0 1-6.642 9.772 81.6 81.6 0 0 1-17.375 16.176 80.8 80.8 0 0 1-21.196 10.457 75 75 0 0 1-11.872 2.783 64 64 0 0 1-7.002.635 29.3 29.3 0 0 1-6.884-.546 19.7 19.7 0 0 1-3.224-.945c-.203-.078-.338.25-.148.35a26.9 26.9 0 0 0 13.562 2.806 57 57 0 0 0 12.927-2.24c.528-.144 1.051-.3 1.574-.46a8.7 8.7 0 0 0-.356 2.14 85 85 0 0 0-.148 2.516c-.019.385-.06.776-.044 1.16a2 2 0 0 0 .072.534c.092.263.188.287.194.628.013.863-.465 1.648-.38 2.515.04.396.666.56.754.102a17 17 0 0 0-.148-2.424c.023-.454.315-.84.375-1.296.053-.402.052-.814.07-1.219.035-.839.07-1.676.08-2.515a8.2 8.2 0 0 0-.185-2.226q.85-.264 1.693-.544c-.076.382-.119.774-.168 1.147a28 28 0 0 0-.216 2.452c-.033.786-.026 1.584.015 2.37.02.392.053.785.11 1.174a2 2 0 0 0 .13.546c.091.195.217.251.357.399a.253.253 0 0 0 .393-.05c.11-.179.229-.263.275-.483a2.3 2.3 0 0 0 .023-.487c-.002-.37-.024-.74-.041-1.11q.025.086.056.17a.513.513 0 0 0 .98 0c.015-.056.022-.114.036-.171a.61.61 0 0 0 .65-.16c1.624-1.867 3.25-3.734 4.841-5.63.752-.895 1.522-1.778 2.25-2.693q.387-.487.737-.997c.125-.135.257-.264.376-.404a9 9 0 0 0 .555-.723 83.4 83.4 0 0 0 25.827-20.093 81 81 0 0 0 7.314-9.911 53 53 0 0 0 3.043-5.354c.074-.155.128-.311.192-.467a6.96 6.96 0 0 0 4.855.734 80 80 0 0 0-9.757 8.816c-3.853 4.035-7.511 8.258-11.052 12.569-7.3 8.885-14.119 18.16-20.927 27.422q-10.86 14.774-21.514 29.698-10.801 15.067-21.564 30.163c-3.572 5-7.277 9.931-10.677 15.05-3.396 5.113-6.835 10.198-10.248 15.3-.853 1.275-1.694 2.558-2.539 3.839-.145.22.192.397.344.2q5.66-7.329 11.248-14.715c3.712-4.919 7.314-9.908 10.897-14.922q10.705-14.979 21.413-29.956 10.632-14.85 21.388-29.612c6.85-9.363 13.69-18.751 20.933-27.815 3.459-4.33 7.022-8.576 10.75-12.676 3.75-4.122 7.651-8.106 11.456-12.177.497-.532 1.002-1.054 1.505-1.577a13.5 13.5 0 0 0 2.811-1.255 42 42 0 0 0 5.73-4.47l3.063-2.64a9.1 9.1 0 0 0 2.5-2.58 2.38 2.38 0 0 0 .21-1.645 9 9 0 0 0 1.433.054 12.7 12.7 0 0 0 5.616-1.767c1.81-1.05 3.311-2.562 5.298-3.31 1.871-.703 3.85-1.125 5.758-1.721a93.3 93.3 0 0 0 20.393-9.206 95.3 95.3 0 0 0 17.588-13.68 92 92 0 0 0 7.436-8.277 65 65 0 0 0 6.59-9.57 16.6 16.6 0 0 0 2.015-6.039 9.5 9.5 0 0 0 0-1.932c.335-.004.671-.025 1.018-.021a9 9 0 0 0 2.385-.374 17.3 17.3 0 0 0 4.082-1.387 11.2 11.2 0 0 0 2.98-2.653 27 27 0 0 0 2.447-3.224 8 8 0 0 0 1.279-3.736 5.4 5.4 0 0 0-.115-1.365 2.5 2.5 0 0 0 1.65-.732 5.05 5.05 0 0 0 1.402-2.81 6.2 6.2 0 0 0-.089-2.394 4.8 4.8 0 0 0 2.207.764 10.4 10.4 0 0 0 6.34-1.699 73 73 0 0 0 5.995-4.42q3.205-2.389 6.56-4.568a149 149 0 0 1 13.765-7.91c4.512-2.296 9.158-4.309 13.704-6.534 1.999-.978 4.006-2.031 5.927-3.217.64-.084 1.285-.14 1.875-.244 1.212-.213 2.442-.367 3.662-.52a53 53 0 0 1 7.69-.324c5.136.104 10.257.652 15.397.623 10.643-.06 20.636-3.68 30.857-6.17 10.327-2.516 21.156-2.836 31.269-6.243 8.618-2.904 16.689-8.233 20.17-16.964a20 20 0 0 0 .907-12.643c-1.234-4.441-4.298-8.075-7.759-11-7.775-6.571-17.252-10.93-26.686-14.545a173.4 173.4 0 0 0-30.761-8.633 137 137 0 0 0-16.024-2.13 45.5 45.5 0 0 0-15.339 1.515c-9.165 2.586-17.357 7.622-26.174 11.095a59.4 59.4 0 0 1-14.681 3.76 110 110 0 0 1-16.18.521c-2.471-.067-4.94-.172-7.411-.262l.02-.078q.76-3.013 1.496-6.031.197-.808.393-1.628c3.238-4.9 6.177-10.39 7.31-16.204a20 20 0 0 0-.02-8.588 15.4 15.4 0 0 0-4.35-7.315 55.5 55.5 0 0 0-7.201-5.55q-3.805-2.641-7.746-5.076c-.694-.429-1.4-.84-2.099-1.258a47 47 0 0 0 6.207.665 69.7 69.7 0 0 0 13.687-.973 80 80 0 0 0 3.766-.693 4.7 4.7 0 0 0 1.843-.726 16 16 0 0 1 1.695-.94 31.5 31.5 0 0 0 7.225 1.105q3.974.35 7.938.805a303 303 0 0 1 31.081 5.226q4.308.957 8.588 2.037 2.11.533 4.212 1.096.296.08.591.163a11 11 0 0 0 1.001.345 6.96 6.96 0 0 0 4.003.1 1 1 0 0 0 .294-.16c.305.226.616.444.941.647 3.66 2.28 7.959 2.977 12.112 3.857 9.024 1.91 18.033 3.975 27.122 5.55 8.99 1.56 18.167 2.565 27.29 1.773a45.4 45.4 0 0 0 12.982-2.684 23.15 23.15 0 0 0 8.469-5.799 25.27 25.27 0 0 0 6.666-18.113M206.285 29.648c-.814-.153-1.625-.325-2.436-.496a28 28 0 0 0 1.912-1.62c.07.08.17.107.219-.011.014-.035-.039-.052-.057-.024-.017.024-.06-.007-.076-.047l.07-.067a1 1 0 0 1 .184.127c.111.095.205.215.308.319q.294.294.605.57l1.324 1.172q.332.29.667.574c-.907-.165-1.815-.327-2.72-.497m6.1 1.115-2.47-.452q-.278-.257-.558-.512c-.656-.593-1.335-1.161-2.003-1.74a10 10 0 0 0-.98-.772 1 1 0 0 0-.239-.114 38 38 0 0 0 2.337-2.441 66 66 0 0 0 3.423 3.787c.76.774 1.544 1.524 2.335 2.264q.216.199.435.395Zm4.65-3.058a186 186 0 0 0 3.808 3.43q.904.797 1.83 1.568c-1.458-.362-2.947-.602-4.426-.871l-2.804-.512c-.294-.257-.59-.51-.863-.765a122 122 0 0 1-2.4-2.32 171 171 0 0 1-3.573-3.652 59 59 0 0 0 2.326-2.87q2.967 3.08 6.102 5.992m302.978 32.848a15.35 15.35 0 0 0-5.516 6.766q-.458 1.016-.825 2.07c-.231.664-.386 1.574-1.035 1.96a4.5 4.5 0 0 1-1.98.315c-.885.053-1.782.143-2.667.136a33.7 33.7 0 0 1-9.773-1.536 37 37 0 0 1-4.733-1.797 20.3 20.3 0 0 1-4.48-2.564c-1.348-1.123-.767-2.794-.26-4.198a22.5 22.5 0 0 1 1.73-3.701 15.6 15.6 0 0 1 5.473-5.778c2.79-1.6 6.106-1.462 9.164-.902a59 59 0 0 1 5.823 1.386l10.744 4.536c.76.32 1.526.632 2.292.946.521.254 1.046.499 1.577.745a.12.12 0 0 0 .135-.026l.206.087a10.1 10.1 0 0 0-5.875 1.555M195.49 149.037c-1.16-.476-2.326-.94-3.49-1.408q-.517-.939-1.07-1.86 2.743 1.216 5.478 2.45l.484.228q.464.795.95 1.576c-.785-.325-1.565-.663-2.352-.986m2.568 1.076q-.396-.757-.814-1.502c.432.202.866.401 1.297.607a8 8 0 0 1 1.185.636 4.1 4.1 0 0 0 1.16.506l1.557.536.743 1.376c-1.71-.719-3.415-1.45-5.128-2.159m5.483 2.309c-.263-.477-.533-.95-.797-1.422a50 50 0 0 1 3.087 1.155l1.189.506c.297.545.597 1.09.907 1.626-1.462-.622-2.921-1.25-4.386-1.865m-68.106 85.409c.26.002.52.01.78.009.337-.002.674-.014 1.012-.024.23.048.46.1.69.146a8 8 0 0 1-2.482-.131m46.687-2.082a12 12 0 0 0 .944.814q-.826-.276-1.657-.537.357-.137.712-.277m1.15 3.65a56 56 0 0 0-3.292-1.216 17 17 0 0 0-2.482-.726c1.031-.36 2.059-.742 3.087-1.128 1.488.634 3.053 1.114 4.587 1.594a.326.326 0 0 0 .25-.594c-.232-.132-.452-.28-.672-.428a2.3 2.3 0 0 0 .633-.28c.109.054.22.1.327.158.51.248.96-.504.449-.767l-.016-.008.014-.013a.476.476 0 0 0-.095-.736 2.35 2.35 0 0 0-1.338-.454 3 3 0 0 1 .377-.158 6.5 6.5 0 0 0 2.068-.863l.247-.097a7.48 7.48 0 0 0-.705 4.899 9.4 9.4 0 0 0 1.167 2.949 37 37 0 0 0-4.606-2.133m11.632 5.98a18 18 0 0 1-3.04-2.152c-.645-1.435-1.293-2.877-1.836-4.35a41 41 0 0 1-1.46-5.07q.257.271.507.55c.012.013.035-.005.025-.019a28 28 0 0 1-.607-.834c-.04-.057-.147-.043-.142.039a20.9 20.9 0 0 0 2.436 8.604 11 11 0 0 1-.679-.81 11.46 11.46 0 0 1-2.043-5.578 8.2 8.2 0 0 1 .142-2.38q.816-.306 1.638-.6a35 35 0 0 0 1.995 6.643 31 31 0 0 0 1.777 3.57 17 17 0 0 0 1.85 2.686c-.187-.1-.378-.195-.563-.3m1.076.573c-.53-1.129-1.222-2.184-1.825-3.274a50 50 0 0 1-1.78-3.524 43.5 43.5 0 0 1-2.364-6.435 135 135 0 0 0 2.192-.802 38.3 38.3 0 0 0 2.79 8.787 39.5 39.5 0 0 0 3.355 6.36 36 36 0 0 1-2.368-1.112m75.79-6.777c-.272-.15-.562-.267-.845-.398q.172.073.348.137a.087.087 0 0 0 .084-.143c-.087-.076-.19-.136-.283-.205.48.06.964.097 1.448.124.102.236.2.475.32.703a5.4 5.4 0 0 0 .537.817 16 16 0 0 0-1.61-1.035m.14-2.515q-.376-.258-.745-.523-.556-.4-1.114-.798c-.384-.274-.836-.45-1.193-.755a.059.059 0 0 0-.083.083c.31.349.508.774.836 1.114a11 11 0 0 0 .88.792 22 22 0 0 0-3.024.053 44 44 0 0 0 1.986-3.69c.126-.266.241-.54.363-.81.797.91 1.675 1.757 2.51 2.629.454.472.902.949 1.354 1.422q.272.287.558.56a31 31 0 0 1-2.329-.077m4.636-.062c-.48.058-.96.09-1.443.112a6 6 0 0 0-.193-.276 9 9 0 0 0-.658-.754c-.476-.5-.97-.98-1.477-1.448a22 22 0 0 0-2.863-2.32 32 32 0 0 0 1.253-3.26 73 73 0 0 1 2.888 2.784c.724.74 1.415 1.507 2.107 2.275q.53.592 1.045 1.198.23.271.473.535a8 8 0 0 0 .68.548.122.122 0 0 0 .191-.146 7 7 0 0 0-.344-.71 9 9 0 0 0-.439-.564 35 35 0 0 0-1.046-1.197 40 40 0 0 0-2.292-2.314 40 40 0 0 0-3.185-2.676 20 20 0 0 0 .627-2.579l.01-.072a42.6 42.6 0 0 1 7.205 5.718q.901.894 1.74 1.848c.269.305.527.619.79.929.12.141.243.308.374.468a13.65 13.65 0 0 1-5.443 1.901M196.94 347.634l-.055.607q-.095.257-.186.516-.036.026-.07.053c-.006-.308-.02-.616-.021-.925q-.006-1.143.043-2.284c.024-.533.094-1.086.08-1.627l.295-.098a15.3 15.3 0 0 0-.086 3.758m1.603.29c.113-.393.208-.787.302-1.182a.52.52 0 0 0 .553.225q-.427.479-.855.956"/><path fill="currentColor" d="M255.787 197.096a24 24 0 0 1-1.849 2.626 24 24 0 0 0-1.866 2.496c-.043.073.048.178.123.123a9.1 9.1 0 0 0 2.099-2.345c.608-.903 1.132-1.852 1.649-2.81a.09.09 0 0 0-.156-.09m12.585 26.544a79 79 0 0 1-6.87 8.99c-2.457 2.796-5.159 5.357-7.607 8.156-.06.07.02.195.104.135a40.6 40.6 0 0 0 8.02-7.929 82 82 0 0 0 6.454-9.293c.04-.065-.06-.122-.1-.06m-49.027 5.432c-.018-.04-.085-.011-.072.03a59 59 0 0 0 3.147 8.285c.035.068.141.02.122-.051a59 59 0 0 0-3.197-8.264m6.214 7.645a77 77 0 0 1-1.563-6.554c-.005-.024-.042-.014-.038.01a64 64 0 0 0 1.419 6.717 33 33 0 0 0 2.148 6.282c.024.048.1.014.086-.036-.583-2.166-1.438-4.259-2.052-6.42m4.855 6.302q-.593-1.545-1.12-3.115-1.053-3.137-1.838-6.355c-.02-.079-.14-.045-.121.033q.768 3.28 1.807 6.486.512 1.573 1.09 3.123a20 20 0 0 0 1.244 2.964.07.07 0 0 0 .128-.054c-.305-1.048-.8-2.063-1.19-3.082m2.935 1.031q-.636-1.44-1.197-2.913a69 69 0 0 1-1.966-5.887.043.043 0 0 0-.083.023 43 43 0 0 0 1.702 6.181q.518 1.438 1.136 2.835a9.3 9.3 0 0 0 1.44 2.635c.05.055.13-.004.117-.068a14.2 14.2 0 0 0-1.149-2.806m3.352 1.534c-.417-.73-.813-1.47-1.216-2.208q-1.186-2.173-2.255-4.41c-.022-.047-.105-.013-.085.036a68 68 0 0 0 2.008 4.474c.36.729.751 1.444 1.145 2.155a9.2 9.2 0 0 0 1.342 2.062.067.067 0 0 0 .11-.064 11 11 0 0 0-1.05-2.045m3.295 1.477c-.236-.364-.483-.72-.728-1.077l-1.466-2.147c-.017-.025-.057-.002-.04.024l1.407 2.231c.23.366.459.734.698 1.094a10 10 0 0 0 .727 1.044c.042.05.11-.014.085-.067a10 10 0 0 0-.683-1.102m3.674.797c-.771-.704-1.61-1.332-2.427-1.982-.066-.053-.161.04-.094.094.817.658 1.618 1.342 2.478 1.943.033.023.072-.028.043-.055m-38.386-1.739q-1.391-2.366-2.786-4.73a.121.121 0 0 0-.21.123q1.345 2.393 2.693 4.784a.176.176 0 0 0 .303-.177m2.994-8.131c-.035-.078-.15-.01-.115.067.574 1.244 1.136 2.494 1.74 3.723.018.037.07.005.054-.031-.535-1.264-1.113-2.509-1.68-3.76m-35.117-27.954a110 110 0 0 1-3.898-7.846c-.025-.056-.123-.015-.1.043a69.5 69.5 0 0 0 8.309 15.44c.038.05.121.007.088-.052-1.45-2.538-3.003-5.015-4.4-7.585m11.095 11.737c-.776-1.682-1.878-3.248-2.786-4.863q-1.372-2.443-2.657-4.934-2.576-4.969-4.808-10.111c-.016-.036-.08-.01-.064.027q2.089 5.217 4.605 10.24 1.26 2.504 2.635 4.947a37 37 0 0 0 2.904 4.827c.082.104.22-.029.171-.133m5.74 2.002c-.95-1.597-2.1-3.06-3.051-4.658-.93-1.559-1.706-3.21-2.475-4.852-1.588-3.39-3.108-6.804-4.445-10.302-.02-.051-.102-.03-.083.023a96 96 0 0 0 4.276 10.159c.827 1.658 1.737 3.275 2.557 4.937.837 1.697 1.55 3.475 2.546 5.088a.39.39 0 0 0 .675-.394m4.961.052c-.442-.71-.898-1.412-1.329-2.13-.86-1.433-1.632-2.92-2.398-4.405q-2.293-4.454-4.38-9.015c-.028-.06-.132-.016-.108.045q1.737 4.346 3.814 8.535c.691 1.392 1.427 2.76 2.132 4.145.363.71.717 1.426 1.076 2.138.179.356.37.708.542 1.067a1.5 1.5 0 0 1 .134.489l-.029.07.007-.041a.134.134 0 0 0-.226.094c.026.29.232.358.484.456a.38.38 0 0 0 .383-.102c.375-.44.172-.906-.102-1.346m4.233.732q-.365-.67-.725-1.342-.77-1.442-1.51-2.9a459 459 0 0 1-2.923-5.837c-.023-.047-.106-.013-.086.036a98 98 0 0 0 2.66 5.88q.727 1.464 1.483 2.914.379.725.764 1.446a2.85 2.85 0 0 0 .758 1.113.075.075 0 0 0 .112-.064 3 3 0 0 0-.533-1.246m4.743 1.088-.408-.684q-.437-.733-.887-1.458l-1.792-2.907a.05.05 0 0 0-.088.051l1.673 2.977q.417.745.845 1.483l.4.689a2.4 2.4 0 0 0 .461.683.102.102 0 0 0 .17-.099 2.4 2.4 0 0 0-.374-.735m3.305.094a.027.027 0 0 0-.038.038l.343.338a.023.023 0 0 0 .033-.033Zm1.599-77.212c-.026-.048-.1-.005-.074.043 1.064 1.906 2.12 3.816 3.209 5.707a.023.023 0 0 0 .04-.024c-1.038-1.92-2.11-3.82-3.175-5.726m8.303 2.307c-.014-.021-.048-.002-.034.02l1.35 2.05c.016.025.056.002.04-.024zm-45.642 141.607c-5.515-2.816-11.116-5.452-16.726-8.074-.068-.032-.127.067-.06.101 5.546 2.757 11.097 5.498 16.735 8.06.059.027.11-.057.051-.087m8.907-1.469c-3.86-2.19-7.81-4.21-11.77-6.212-3.925-1.985-7.85-3.976-11.808-5.899q-3.418-1.66-6.833-3.33c-.05-.024-.093.048-.043.074 7.812 4.126 15.626 8.244 23.529 12.193q3.402 1.7 6.866 3.274c.067.03.126-.063.059-.1m3.725-3.354a57 57 0 0 0-6.737-3.774q-3.48-1.822-6.974-3.614-6.876-3.541-13.797-6.994c-2.642-1.319-5.285-2.636-7.915-3.978-.04-.02-.076.04-.036.06 9.192 4.92 18.304 9.984 27.549 14.807a64 64 0 0 0 7.778 3.807c.195.07.28-.209.132-.314m-7.922-10.383q-13.588-7.038-27.178-14.072c-.035-.019-.066.033-.031.053q13.295 7.585 27.162 14.1c.054.025.101-.053.047-.081m13.145 6.372a6.7 6.7 0 0 0-1.013-.554 70 70 0 0 1-1.074-.53c-.7-.355-1.4-.706-2.09-1.08-.178-.095-.336.175-.158.27.7.38 1.388.782 2.079 1.18q.499.29.993.588a7 7 0 0 0 1.076.57c.255.097.441-.337.187-.444m5.699-3.855a8 8 0 0 0-1.748-.987l-2.259-1.066-4.065-1.918q-4.179-1.972-8.364-3.932-8.367-3.928-16.748-7.825-4.76-2.209-9.515-4.427c-.081-.038-.153.082-.071.121 11.117 5.302 22.217 10.638 33.356 15.894q2.371 1.12 4.743 2.238l2.258 1.066a10.2 10.2 0 0 0 2.348.948c.058.01.12-.065.064-.111m1.384-5.876a24.3 24.3 0 0 0-4.44-2.217l-4.407-2.031q-4.464-2.057-8.93-4.106-8.882-4.071-17.773-8.118-5.047-2.284-10.09-4.576c-.119-.053-.222.12-.103.176q17.805 8.315 35.643 16.558l4.974 2.288 2.6 1.196a12.5 12.5 0 0 0 2.47.966.075.075 0 0 0 .056-.136m5.164-3.518c-6.899-3.691-14.09-6.859-21.22-10.071q-10.52-4.74-21.156-9.212c-4.057-1.708-8.144-3.348-12.224-4.998-.08-.032-.113.095-.036.128q21.522 9.074 42.716 18.931c3.929 1.824 7.855 3.663 11.845 5.35.085.036.161-.082.075-.128m1.651-6a51 51 0 0 0-4.71-2.452c-1.59-.78-3.193-1.54-4.796-2.297q-4.698-2.222-9.434-4.365c-6.331-2.865-12.71-5.642-19.165-8.22a916 916 0 0 0-11.02-4.304c-.113-.044-.16.136-.05.18 12.998 5.181 25.839 10.84 38.485 16.826 1.748.827 3.489 1.669 5.232 2.506 1.755.844 3.495 1.772 5.32 2.455.197.073.304-.224.138-.329m2.948-6.991a.05.05 0 0 0 0 .1.05.05 0 0 0 0-.1m11.277 4.731a115 115 0 0 0-10.951-4.656c-.025-.01-.042.032-.018.043a115 115 0 0 0 10.93 4.706.051.051 0 0 0 .039-.093m2.982-2.2a27.7 27.7 0 0 0-4.13-2.1 234 234 0 0 0-4.365-1.932c-2.818-1.222-5.663-2.38-8.502-3.552-.093-.039-.163.123-.07.164 2.87 1.262 5.713 2.582 8.564 3.884 1.408.644 2.813 1.294 4.224 1.932a30 30 0 0 0 4.222 1.74.075.075 0 0 0 .057-.136m29.324 41.259a3.5 3.5 0 0 0-1.363-.621 13 13 0 0 0-1.492-.355 22 22 0 0 0-1.5-.231c-.433-.05-1.076-.213-1.436.086a.04.04 0 0 0-.006.047c.251.363.844.395 1.25.484l1.55.339c.5.11.998.225 1.503.314a3.9 3.9 0 0 0 1.446.12.11.11 0 0 0 .048-.183m-1.287-3.306a1.2 1.2 0 0 0-.551-.258c-.241-.071-.487-.13-.73-.194-.453-.12-.904-.243-1.36-.346q-1.424-.323-2.85-.63a.05.05 0 0 0-.028.098q1.386.456 2.778.892c.446.14.898.262 1.35.386.242.067.484.14.728.2a1.2 1.2 0 0 0 .61.055.122.122 0 0 0 .053-.203m-1.427-3.169a5 5 0 0 0-1.109-.32c-.35-.076-.708-.123-1.062-.166a19 19 0 0 0-2.27-.104c-.067 0-.063.093 0 .101.75.092 1.478.247 2.215.41.357.078.712.171 1.07.25a9 9 0 0 0 1.05.22.211.211 0 0 0 .106-.39m-1.63-2.698a.46.46 0 0 0-.323-.136l-.42-.051a19 19 0 0 0-2.404-.111.051.051 0 0 0-.014.1c.524.125 1.055.222 1.587.302.257.039.512.076.77.1l.421.04a.48.48 0 0 0 .36-.06.12.12 0 0 0 .023-.184m-1.672-3.37a4.5 4.5 0 0 0-.826-.242 5.7 5.7 0 0 0-1.678-.034.04.04 0 0 0 0 .078 8.5 8.5 0 0 1 1.572.343q.374.109.74.239a3 3 0 0 0 .368.122 1.1 1.1 0 0 0 .378.066.1.1 0 0 0 .084-.147 1.24 1.24 0 0 0-.638-.425m-1.123-2.971a1.37 1.37 0 0 0-.696-.24 1.6 1.6 0 0 0-.732.108.082.082 0 0 0 .044.158 2.4 2.4 0 0 1 .676-.052 3.5 3.5 0 0 1 .665.126.055.055 0 0 0 .042-.1m30.697-1.282a3.7 3.7 0 0 0-1.275-.318c-.47-.07-.942-.118-1.413-.171-.95-.108-1.9-.117-2.852-.167a.063.063 0 0 0-.017.122c.935.184 1.857.407 2.802.535.452.062.904.13 1.358.176a3.9 3.9 0 0 0 1.373.009.103.103 0 0 0 .024-.186m-.745-3.743a4.4 4.4 0 0 0-1.517-.302l-1.719-.24a135 135 0 0 0-3.268-.409c-.04-.004-.048.062-.01.07 1.115.203 2.227.398 3.345.574l1.648.26a4.4 4.4 0 0 0 1.508.147.055.055 0 0 0 .013-.1m-2.697-3.861a2 2 0 0 0-.464-.218l-.474-.11c-.355-.08-.716-.143-1.074-.212-.705-.136-1.414-.24-2.118-.38-.059-.012-.084.075-.025.09.692.18 1.372.396 2.063.58.338.091.676.19 1.017.268l.513.118a2 2 0 0 0 .522.01.079.079 0 0 0 .04-.146m-1.384-4.083c-.126-.02-.251-.058-.377-.073a3 3 0 0 0-.36-.008q-.39 0-.781.021l-1.562.081a.04.04 0 0 0 0 .078l1.562.081q.39.02.78.02a3 3 0 0 0 .361-.007c.126-.015.25-.052.377-.073a.063.063 0 0 0 0-.12m-2.076-4.304c-.891-.285-1.79-.543-2.69-.804a.086.086 0 0 0-.045.166c.905.24 1.808.482 2.719.697a.031.031 0 0 0 .016-.06m75.119-42.959a20.7 20.7 0 0 1-1.045 4.26c-.468 1.331-1.168 2.59-1.56 3.944a.118.118 0 0 0 .195.114 8.37 8.37 0 0 0 1.967-3.891 15.6 15.6 0 0 0 .49-4.427.023.023 0 0 0-.047 0m-3.335-1.37q-.525 2.274-1.201 4.508c-.22.732-.465 1.457-.691 2.188a7.2 7.2 0 0 0-.531 2.175c.002.095.137.173.207.086a5.8 5.8 0 0 0 .795-1.956c.23-.758.406-1.533.582-2.305.353-1.55.638-3.115.876-4.685.004-.025-.032-.036-.037-.01m-2.153-2.753c-.344 1.386-.741 2.76-1.105 4.14a54 54 0 0 0-.497 2.044 7.3 7.3 0 0 0-.274 2.052.114.114 0 0 0 .211.058 7 7 0 0 0 .607-1.876c.164-.71.307-1.428.44-2.143.26-1.41.488-2.828.768-4.234.02-.097-.126-.14-.15-.041m-1.99-2.37a38 38 0 0 1-.86 3.292q-.244.8-.48 1.602a5.2 5.2 0 0 0-.31 1.609c.002.066.096.123.146.06a4.3 4.3 0 0 0 .624-1.413q.243-.834.42-1.684a90 90 0 0 0 .626-3.42c.018-.108-.143-.156-.166-.046m-2.304-2.352c-.113 1.004-.3 1.99-.496 2.98a17.4 17.4 0 0 0-.455 2.835.087.087 0 0 0 .16.043 8.7 8.7 0 0 0 .728-2.82 29 29 0 0 0 .196-3.038c.002-.087-.123-.083-.133 0m-1.999-2.73c-.005-.035-.063-.027-.06.008a10 10 0 0 1-.226 2.64c-.09.428-.218.84-.34 1.258a4 4 0 0 0-.172.601 7 7 0 0 1-.09.675.067.067 0 0 0 .121.051c.137-.203.319-.383.435-.6a3 3 0 0 0 .208-.589 7.6 7.6 0 0 0 .239-1.341 10.3 10.3 0 0 0-.115-2.703m-2.138-2.038a.031.031 0 0 0-.063 0 12.5 12.5 0 0 1-.317 2.14c-.078.337-.174.669-.267 1.002-.048.173-.105.343-.157.515a4 4 0 0 0-.053.462.067.067 0 0 0 .121.051 2.4 2.4 0 0 0 .252-.385 8 8 0 0 0 .174-.55 8 8 0 0 0 .218-1.056 11.5 11.5 0 0 0 .092-2.179m-1.889-2.4c-.032-.118-.203-.068-.181.05a4.3 4.3 0 0 1-.096 1.977 7 7 0 0 1-.323.873 3 3 0 0 0-.195.479.87.87 0 0 0-.055.444.153.153 0 0 0 .183.103c.148-.026.251-.181.318-.249a1.5 1.5 0 0 0 .275-.47 3.5 3.5 0 0 0 .25-1.088 6 6 0 0 0-.176-2.12m-2.808-2.035a17 17 0 0 1-.487 1.553c-.093.256-.17.517-.251.776a6 6 0 0 0-.15.801.075.075 0 0 0 .135.057 3.3 3.3 0 0 0 .439-.74 5 5 0 0 0 .236-.78 12 12 0 0 0 .201-1.65.063.063 0 0 0-.123-.017m-1.724-2.115a1.21 1.21 0 0 0-.683 1.105.066.066 0 0 0 .133 0 1.22 1.22 0 0 1 .628-.97c.09-.047.011-.178-.078-.135m-38.712 17.391a9.4 9.4 0 0 0-1.578-1.065c-.575-.348-1.163-.677-1.745-1.014-1.164-.675-2.347-1.318-3.52-1.98a.023.023 0 0 0-.023.041c1.136.723 2.262 1.464 3.406 2.173.572.354 1.14.718 1.718 1.061a9.4 9.4 0 0 0 1.681.889.063.063 0 0 0 .061-.105M175.24 342.843c-2.049-.974-4.206-1.72-6.313-2.556a105 105 0 0 1-6.34-2.778 91.4 91.4 0 0 1-11.953-6.807c-.08-.053-.152.075-.074.129a103 103 0 0 0 11.886 7.14 89 89 0 0 0 6.112 2.814 34 34 0 0 0 6.627 2.186c.073.014.13-.092.054-.128m9.847-1.671c-3.803-1.237-7.62-2.427-11.353-3.869a123 123 0 0 1-11.13-4.935q-3.058-1.546-6.021-3.272a.078.078 0 0 0-.08.135 114.5 114.5 0 0 0 21.85 10.17 65 65 0 0 0 6.693 1.922.078.078 0 0 0 .041-.15m5.793-2.714a82.4 82.4 0 0 1-21.764-8.236.035.035 0 0 0-.036.061 59.1 59.1 0 0 0 21.756 8.333c.102.015.149-.132.044-.158m5.433-2.312c-2.13-.474-4.266-.888-6.37-1.472a65 65 0 0 1-6.21-2.046c-.032-.013-.046.04-.014.052a48 48 0 0 0 12.584 3.543c.043.005.053-.067.01-.077m3.412-1.777c-.904-.24-1.815-.455-2.724-.68-.044-.01-.062.058-.018.068.908.224 1.815.457 2.727.665a.027.027 0 0 0 .015-.053m6.81-1.767c-.23 0-.46.026-.69.022a9 9 0 0 1-.669-.033 5.3 5.3 0 0 1-1.354-.314c-.042-.015-.071.054-.03.071a5.3 5.3 0 0 0 1.35.378 3.4 3.4 0 0 0 1.403-.055.035.035 0 0 0-.01-.07m8.046-3.009a3.5 3.5 0 0 0-.835-.313c-.346-.052-.697-.077-1.041-.146a2.94 2.94 0 0 0-2.044.074l-.056.007q-.094.01-.187.01a12 12 0 0 1-.437.006c-.29 0-.58-.016-.87-.022a6.5 6.5 0 0 1-1.866-.182c-.014-.004-.028.016-.016.026a4.9 4.9 0 0 0 1.425.826 5.8 5.8 0 0 0 1.32.225c.016.027.011.063.034.084a.39.39 0 0 0 .536 0l.007-.006c.138.043.23.13.388.173a2 2 0 0 0 .466.031 6 6 0 0 0 1.167-.06c.323-.054.645-.093.971-.13a3 3 0 0 0 .53-.092c.188-.055.33-.157.507-.225a.15.15 0 0 0 0-.286m26.911-227.911q-1.222-1.876-2.458-3.742-2.436-3.682-4.87-7.365c-.017-.025-.058-.001-.041.024l4.848 7.522q1.179 1.829 2.368 3.65a38 38 0 0 0 2.433 3.62c.024.03.064-.007.05-.037a38 38 0 0 0-2.33-3.672m3.825-2.204c-1.675-2.74-3.374-5.466-5.065-8.196a.043.043 0 0 0-.074.043c1.653 2.753 3.298 5.51 4.968 8.253 1.666 2.737 3.243 5.562 5.075 8.191a.031.031 0 0 0 .054-.031c-1.5-2.832-3.288-5.526-4.958-8.26m11.235 10.548a38 38 0 0 0-1.942-3.485l-1.923-3.352-3.909-6.81a.043.043 0 0 0-.074.043l3.834 6.854 1.888 3.373a38 38 0 0 0 1.991 3.456.078.078 0 0 0 .135-.079m19.444 4.73c-.037-.026-.072.036-.035.06a2.7 2.7 0 0 1 1.03 1.327c.01.028.055.016.045-.013a2.8 2.8 0 0 0-1.04-1.374m3.47.597c-.046-.035-.104.041-.062.08a12.7 12.7 0 0 1 2.902 3.84c.02.043.096.012.078-.033a9.2 9.2 0 0 0-2.918-3.887m80.981 49.744a18 18 0 0 0-1.99-1.205l-1.89-1.066c-1.307-.736-2.627-1.447-3.942-2.168a.063.063 0 0 0-.063.108c1.315.772 2.624 1.554 3.948 2.31a34 34 0 0 0 3.89 2.135c.07.03.099-.075.047-.114m8.837-2.696c-2.734-1.704-5.598-3.204-8.44-4.719-2.847-1.517-5.69-3.04-8.579-4.48a.05.05 0 0 0-.051.089c2.78 1.632 5.605 3.182 8.427 4.739 2.823 1.556 5.646 3.137 8.568 4.5a.074.074 0 0 0 .075-.129m8.141-1.309c-3.682-2.391-7.596-4.42-11.448-6.519-3.858-2.102-7.742-4.156-11.603-6.253-.115-.062-.217.111-.103.176 3.825 2.158 7.625 4.359 11.452 6.511s7.624 4.394 11.607 6.247a.094.094 0 0 0 .095-.162m4.837-2.515c-4.225-2.614-8.686-4.874-13.052-7.24-4.378-2.37-8.788-4.681-13.196-6.994-.04-.02-.075.039-.036.06 4.338 2.437 8.675 4.876 13.045 7.254 4.365 2.375 8.692 4.886 13.188 7.008a.05.05 0 0 0 .051-.088m2.357-1.995c-4.226-2.581-8.586-4.948-12.897-7.385-4.314-2.438-8.643-4.848-12.967-7.267a.035.035 0 0 0-.036.061c4.298 2.465 8.59 4.94 12.898 7.385s8.58 4.968 12.967 7.267a.035.035 0 0 0 .035-.06m4.063-2.003a35 35 0 0 0-3.003-1.857q-1.518-.899-3.042-1.79-2.942-1.718-5.91-3.392-6.038-3.416-12.15-6.699c-.062-.033-.117.061-.055.095q6.094 3.313 12.115 6.757 2.958 1.693 5.899 3.414 1.471.858 2.939 1.724c1.043.616 2.071 1.297 3.168 1.815a.04.04 0 0 0 .039-.068m2.613-2.546a249 249 0 0 0-24.288-13.673c-.05-.025-.093.049-.044.074q6.21 3.166 12.28 6.596c4.045 2.289 8.013 4.705 12.017 7.064a.035.035 0 0 0 .035-.061m-.551-4.637c-4.583-2.72-9.312-5.218-13.964-7.817a.035.035 0 0 0-.036.06c4.645 2.614 9.243 5.345 13.953 7.837a.047.047 0 0 0 .047-.08m-.02-4.39a11 11 0 0 0-1.857-.962l-1.881-.92-3.762-1.842c-.027-.013-.051.027-.024.04l3.799 1.927 1.866.947a11 11 0 0 0 1.832.875c.041.011.057-.042.027-.065m.34-3.403c-.9-.578-1.835-1.103-2.759-1.643a.04.04 0 0 0-.04.068c.921.545 1.833 1.108 2.775 1.615a.023.023 0 0 0 .024-.04m-176.33 187.923c-.095-.042-.16-.1-.255-.14a1.4 1.4 0 0 0-.364-.088l-.691-.104c-.228-.034-.458-.041-.688-.053-.25-.012-.496.007-.745-.003a.024.024 0 0 0-.006.046c.224.061.438.15.663.209.224.059.447.125.676.163l.69.11a.88.88 0 0 0 .553-.008l.136-.015c.053-.006.095-.089.031-.117m1.578.201a.5.5 0 0 0-.187-.04c-.046-.004-.089.002-.133.002a1 1 0 0 1-.14-.019l-.138-.02-.298-.04a.09.09 0 0 0-.105.06.087.087 0 0 0 .06.106l.287.078c.089.024.18.044.268.073a1 1 0 0 0 .306.095c.083 0 .219-.005.247-.103s-.097-.16-.167-.192m1.835-2.79a1.2 1.2 0 0 0-.239-.038 2 2 0 0 0-.282-.021 2.6 2.6 0 0 0-.525.083 3.6 3.6 0 0 1-1.029.138.047.047 0 0 0-.012.092c.176.038.346.085.52.129a4 4 0 0 0 .562.087 1.5 1.5 0 0 0 .57-.041 1 1 0 0 0 .258-.12 1 1 0 0 0 .218-.153.095.095 0 0 0-.041-.156m-26.69 23.455a9 9 0 0 0-.252-1.117.047.047 0 0 0-.09 0 11 11 0 0 0-.284 1.117c-.058.427-.081.858-.103 1.288q-.065 1.241-.153 2.481-.087 1.24-.212 2.477c-.046.451-.105.9-.167 1.35a.76.76 0 0 0 .237.767.15.15 0 0 0 .18.023.75.75 0 0 0 .417-.677c.044-.426.078-.854.12-1.28.081-.856.159-1.71.218-2.568q.088-1.286.117-2.573a11 11 0 0 0-.028-1.288m-3.365 2.131a.055.055 0 0 0-.11 0c-.13 1.54-.361 3.075-.538 4.61-.089.766-.172 1.533-.262 2.299a5.4 5.4 0 0 0-.064 2.177.233.233 0 0 0 .421.055 4.7 4.7 0 0 0 .437-2.056c.074-.795.137-1.589.17-2.387.067-1.57-.006-3.128-.054-4.698m-2.218 4.581c-.011-.065-.104-.054-.12 0a16 16 0 0 0-.39 1.988 99 99 0 0 0-.325 1.87c-.205 1.27-.415 2.53-.53 3.813-.005.06.092.088.117.031a16 16 0 0 0 1.06-3.817 19 19 0 0 0 .203-1.972 9 9 0 0 0-.015-1.913m-3.026 5.46a.031.031 0 0 0-.063 0c-.1.843-.266 1.677-.373 2.52-.108.853-.17 1.714-.295 2.565a.07.07 0 0 0 .135.037 13.4 13.4 0 0 0 .613-2.504 12.7 12.7 0 0 0-.017-2.618m-81.055-83.247c-.581 3.4-1.123 6.8-1.52 10.227-.008.065.103.08.114.016.6-3.398 1.052-6.81 1.468-10.235.004-.034-.056-.043-.062-.008m-3.681-.203c-1.404 5.977-3.064 11.946-3.397 18.104a.094.094 0 0 0 .184.025c1.554-5.934 2.199-12.06 3.491-18.052.04-.18-.236-.258-.279-.077m-3.312 1.519c-.798 3.316-1.692 6.603-2.42 9.938a78 78 0 0 0-1.78 9.88c-.01.106.145.114.176.023a78.5 78.5 0 0 0 2.398-9.814c.682-3.314 1.194-6.652 1.807-9.977.021-.117-.153-.168-.181-.05m-3.534 4.304c-.812 2.701-1.628 5.404-2.385 8.122a83 83 0 0 0-2.01 8.225.05.05 0 0 0 .097.027c.917-2.668 1.573-5.422 2.277-8.151.704-2.733 1.384-5.472 2.097-8.203a.04.04 0 0 0-.076-.02m-4.806 4.924q-.493 2.88-1.175 5.72c-.458 1.895-1.02 3.777-1.302 5.707-.009.062.084.12.115.048a26.8 26.8 0 0 0 1.543-5.542q.579-2.928.985-5.887c.014-.107-.147-.156-.166-.046m-2.774 2.371q-.62 2.121-1.253 4.238a24.7 24.7 0 0 0-.969 4.162c-.009.076.098.074.123.016a25 25 0 0 0 1.214-4.162q.485-2.116.976-4.23a.047.047 0 0 0-.09-.024m-2.783 1.562c-.22.984-.489 1.955-.751 2.928a20 20 0 0 0-.678 2.853c-.006.05.073.068.095.026a11 11 0 0 0 .896-2.85c.21-.976.344-1.964.47-2.953.001-.017-.028-.021-.032-.004m-2.578 1.864c-.323 1.023-.691 2.045-.936 3.09a.023.023 0 0 0 .045.012c.37-1.008.622-2.063.914-3.095a.012.012 0 0 0-.023-.007m-3.349 2.012a75 75 0 0 0-.765 2.747.086.086 0 0 0 .166.046c.323-.897.61-1.802.9-2.71.061-.192-.245-.277-.301-.083m100.845 62.806c-1.562 2.525-3.267 4.954-5.022 7.347-.879 1.2-1.81 2.304-2.799 3.41a8.7 8.7 0 0 0-.975 1.935c-.36.69-.749 1.347-1.174 2a.078.078 0 0 0 .123.095c.501-.542 1.024-1.047 1.545-1.569a10 10 0 0 0 1.58-1.468c.412-.653.737-1.369 1.134-2.033.38-.633.788-1.25 1.178-1.877 1.581-2.549 3.032-5.174 4.464-7.809a.031.031 0 0 0-.054-.031m-12.503 18.099c-2.096 3.256-4.237 6.487-6.225 9.81-.026.044.04.081.067.04 2.164-3.212 4.181-6.522 6.239-9.803.032-.05-.049-.097-.081-.047m7.24-.582a33 33 0 0 0-2.934 3.794c-.443.67-.85 1.365-1.23 2.073a12 12 0 0 0-.996 2.163.13.13 0 0 0 .216.125 15.5 15.5 0 0 0 1.336-1.875 59 59 0 0 0 1.3-2.033q1.251-2.06 2.419-4.162c.037-.067-.056-.146-.11-.085m42.565-106.046a18 18 0 0 0-3.546-2.413 37 37 0 0 0-3.89-1.798c-.045-.018-.075.056-.033.079 1.256.66 2.476 1.386 3.693 2.113 1.212.724 2.416 1.515 3.677 2.148.079.04.171-.062.1-.129m4.599-2.72a48.5 48.5 0 0 0-9.594-5.323c-.073-.031-.137.073-.063.108 3.313 1.568 6.446 3.453 9.602 5.309.062.037.11-.053.055-.094m14.724-.833c-.007-.104-.17-.106-.164 0a83.6 83.6 0 0 0 1.814 13.164c.014.065.11.037.098-.027a113 113 0 0 1-1.748-13.137m46.573-24.301c-.47-1.197-.992-2.372-1.487-3.559-.038-.09-.18-.058-.151.042.362 1.251.737 2.493 1.21 3.707a16.2 16.2 0 0 0 1.61 3.453.055.055 0 0 0 .1-.042 22.4 22.4 0 0 0-1.282-3.6m3.045 2.652a11 11 0 0 0-.31-.894c-.241-.597-.544-1.161-.841-1.732a.027.027 0 0 0-.05.021 17 17 0 0 0 .56 1.864q.171.434.372.854a10 10 0 0 0 .441.88.055.055 0 0 0 .1-.041 10 10 0 0 0-.272-.952m-54.8-87.025q-1.387-2.513-2.624-5.104c-.024-.05-.097-.006-.075.043a56.4 56.4 0 0 0 5.444 10.11.04.04 0 0 0 .067-.04c-.897-1.69-1.887-3.332-2.812-5.009m6.936 5.351c-.618-1.043-1.21-2.1-1.802-3.156a145 145 0 0 1-3.34-6.311c-.014-.028-.063-.008-.05.02a87 87 0 0 0 2.99 6.389 81 81 0 0 0 1.706 3.076 17 17 0 0 0 1.968 2.941c.04.045.128-.002.104-.06a22.6 22.6 0 0 0-1.576-2.9m.137-6.623c-.03-.054-.105-.006-.081.047a53.2 53.2 0 0 0 6.619 11.515c.037.047.106-.013.08-.061-2.103-3.89-4.498-7.618-6.618-11.5m8.535 9.099a364 364 0 0 1-2.637-4.519c-.043-.075-.15-.01-.115.067a93 93 0 0 0 2.399 4.76 28 28 0 0 0 2.773 4.359c.048.06.124-.017.098-.076a46 46 0 0 0-2.518-4.591m5.103 2.437q-1.011-1.712-1.935-3.473c-.021-.04-.081-.004-.061.036q.89 1.779 1.866 3.513a31 31 0 0 0 2.111 3.37.031.031 0 0 0 .054-.032c-.637-1.161-1.361-2.274-2.035-3.414m3.89-1.221a.102.102 0 0 0-.175.103c.798 1.456 1.603 2.899 2.481 4.308a.04.04 0 0 0 .068-.04c-.742-1.486-1.55-2.928-2.374-4.37M143.65 97.723a96 96 0 0 0-2.33 10.195 43 43 0 0 0-.728 10.267c.006.09.153.125.168.023.506-3.35.707-6.731 1.15-10.089a89 89 0 0 1 1.943-10.34.106.106 0 0 0-.204-.056"/></svg>