<svg xmlns="http://www.w3.org/2000/svg" data-name="stingray" viewBox="0 0 939.029 241.877"><path fill="currentColor" d="M903.378 235.857c.556-1.98-.65-4.19-1.777-5.735-3.278-4.498-6.581-8.95-9.632-13.61-3.092-4.722-6.058-9.547-8.72-14.527-1.327-2.483-2.47-5.044-3.684-7.583a37.6 37.6 0 0 0-4.45-6.965c-3.617-4.623-7.35-9.152-11.005-13.743-3.644-4.578-7.36-9.094-11.096-13.597-.328-.395-.659-.782-.99-1.17-2.61-5.286-7.227-9.64-11.704-13.295-7.672-6.264-15.623-12.188-23.675-17.951-8.111-5.806-16.343-11.442-24.599-17.039q-12.44-8.434-24.903-16.836c-3.999-2.68-8.01-5.599-12.707-6.911a29.1 29.1 0 0 0-12.696-.592c-.832.145-1.648.306-2.463.498-2.935-.132-5.866-.194-8.805-.122-6.678.163-13.353.639-20.005 1.243-13.449 1.221-26.828 3.087-40.203 4.926-13.474 1.852-26.96 3.682-40.52 4.793-14.102 1.156-28.252 1.371-42.392 1.635-7.11.132-14.221.282-21.326.582-3.52.15-7.057.294-10.56.663-3.516.37-6.993.836-10.489 1.352-1.735.256-3.46.572-5.192.844a.18.18 0 0 0 .045.354c3.554-.32 7.116-.38 10.679-.528 3.517-.146 7.032-.33 10.549-.493q10.654-.495 21.315-.707c14.169-.294 28.351-.395 42.496-1.363 13.435-.92 26.8-2.622 40.139-4.435 13.421-1.824 26.83-3.77 40.306-5.15 6.651-.68 13.318-1.224 19.996-1.544 6.72-.322 13.463-.626 20.19-.698 1.682-.018 3.339-.021 5.018-.128.157-.01.215-.261.04-.292a74 74 0 0 0-8.854-.826 32.7 32.7 0 0 1 9.748.379c4.528 1.043 8.589 3.708 12.381 6.284q12.197 8.285 24.402 16.56c8.104 5.498 16.196 11.017 24.179 16.692 7.986 5.678 15.872 11.505 23.547 17.599 3.248 2.579 6.508 5.158 9.49 8.046a34.7 34.7 0 0 1 6.978 9.218 22.5 22.5 0 0 1 1.192 2.816.129.129 0 0 0 .25-.065 19.5 19.5 0 0 0-.635-2.504q.757 1.006 1.515 2.008 2.594 3.443 5.206 6.872c3.424 4.505 6.922 8.953 10.354 13.453 1.681 2.203 3.485 4.322 5.068 6.6.307.442.588.899.866 1.357a8 8 0 0 0-1.143 1.11q-.31.347-.593.718c-.195.252-.433.467-.623.725-.044.06.04.14.1.102.274-.17.507-.394.776-.568q.393-.255.763-.542a9 9 0 0 0 1.086-.933c.935 1.624 1.735 3.318 2.539 5.017a147 147 0 0 0 7.935 14.314q4.284 6.936 9.052 13.557 1.215 1.688 2.46 3.353c.705.944 1.472 1.858 2.083 2.869.707 1.17 1.934 3.746.075 4.542a3.66 3.66 0 0 1-2.565-.196 20.6 20.6 0 0 1-3.137-1.535 39 39 0 0 1-6.134-4.246 41 41 0 0 1-5.306-5.407 46.5 46.5 0 0 1-4.129-6.194 10.1 10.1 0 0 0-2.29-2.862c-.99-.81-2.107-1.43-3.141-2.178a30.6 30.6 0 0 1-5.54-5.65c-1.777-2.177-3.512-4.391-5.263-6.59q-.371-.468-.739-.94c-.869-1.147-1.735-2.296-2.636-3.42-1.44-1.8-2.93-3.555-4.385-5.34-1.394-1.711-3.036-3.221-4.506-4.868-.69-.773-1.36-1.56-2.021-2.355-.296-1-.697-1.975-1.066-2.948-.193-.51-.399-1.016-.601-1.523q-.166-.42-.34-.84a15.4 15.4 0 0 0 2.716.43c.155.009.236-.242.084-.306a30 30 0 0 1-4.6-2.364 18 18 0 0 0-2.015-1.267 4.74 4.74 0 0 0-2.285-.36 9.7 9.7 0 0 1-4.63-1.533 32 32 0 0 1-4.142-2.658c-.025-.019-.055.021-.034.043a28 28 0 0 0 3.678 3.24 17.8 17.8 0 0 0 4.42 2.101 16 16 0 0 1 2.169.78c.227.115.448.233.671.35.828 1.355 1.661 2.704 2.586 4.003.33.465.674.919 1.013 1.377 1.216 4.732 2.332 9.49 3.537 14.224a.023.023 0 0 0 .046-.012c-.945-4.742-2.171-9.428-3.486-14.08a356 356 0 0 0 2.772 3.68l.436.579c-.006.009-.02.012-.017.026q.677 3.56 1.52 7.086c.274 1.143.559 2.283.866 3.418.322 1.189.604 2.42 1.03 3.576.027.073.142.046.119-.03-.264-1.174-.656-2.33-.967-3.492-.312-1.167-.62-2.335-.91-3.507q-.858-3.46-1.55-6.957c1.182 1.57 2.356 3.163 3.644 4.641 1.216 1.395 2.511 2.734 3.81 4.061a90 90 0 0 0 2.241 2.994l5.4 6.93a74 74 0 0 0 5.277 6.472 22 22 0 0 0 3.037 2.604 33 33 0 0 1 2.87 2.017.16.16 0 0 0-.008.1 16.2 16.2 0 0 0 1.692 3.656c.666 1.24 1.36 2.466 2.044 3.695 1.329 2.388 2.727 4.736 4.112 7.092l2.142 3.64a7.7 7.7 0 0 1 1.22 2.923 1.353 1.353 0 0 1-1.14 1.687 4.95 4.95 0 0 1-2.574-.74 32.57 32.57 0 0 1-14.473-14.465 30 30 0 0 1-1.362-3.116 21.5 21.5 0 0 0-1.413-3.477 22.7 22.7 0 0 0-2.692-3.371q-1.563-1.782-3.13-3.56l-3.14-3.55a17 17 0 0 0-1.504-1.666 6 6 0 0 0-.88-.61q-.155-.26-.33-.512c-1.033-1.48-2.261-2.838-3.427-4.212-2.346-2.764-4.736-5.491-6.992-8.33a65 65 0 0 1-6.07-8.89c-1.741-3.143-2.928-6.599-4.956-9.58-2.046-3.007-5.015-5.26-6.909-8.378-1.796-2.957-2.75-6.282-3.867-9.528a78 78 0 0 0-.662-1.819 7.5 7.5 0 0 0-.003-1.4 21 21 0 0 0-.414-2.063c-.33-1.455-.762-2.894-1.224-4.312a41 41 0 0 0-3.562-7.94c-.03-.051-.124-.019-.1.04a95 95 0 0 1 2.769 8.131c.347 1.191.63 2.394.905 3.602a44.9 44.9 0 0 0-7.87-12.198 107 107 0 0 0-3.605-3.67c-.03-.027-.073.016-.045.044a48.8 48.8 0 0 1 6.277 8.324 50 50 0 0 1 4.506 9.288c1.145 3.137 1.902 6.399 3.026 9.543a25.05 25.05 0 0 0 5.144 8.706 52 52 0 0 1 3.58 4.027 27 27 0 0 1 2.57 4.472 76 76 0 0 0 4.938 9.224c3.923 5.93 8.812 11.12 13.313 16.6l.021.025-.11-.015a5.1 5.1 0 0 0-1.784-.011c-1.175.261-1.81 1.503-2.844 2.05-.242.128-.667.357-.94.2a4 4 0 0 1-.662-.677 15 15 0 0 1-1.237-1.42 3.4 3.4 0 0 1-.542-.85c-.09-.256.003-.495-.053-.752-.128-.59-.495-1.084-.62-1.671a.083.083 0 0 0-.159 0 2.57 2.57 0 0 0-.155 1.76 1.44 1.44 0 0 0 .469.631 4.4 4.4 0 0 1 .573.827 10.4 10.4 0 0 0 1.233 1.507c.29.3.75.935 1.167 1.013.47.088 1.123-.37 1.479-.617a6 6 0 0 1 1.653-.973 5.5 5.5 0 0 1 2.132-.16c.372.036.77.102 1.159.103a4.74 4.74 0 0 1 1.194 2.911 4 4 0 0 1-1.697 2.946c-2.445 1.912-5.633 1.132-8.167-.172a43.2 43.2 0 0 1-8.777-6.196 53.2 53.2 0 0 1-7.174-8.338 52 52 0 0 0-3.396-4.242 29.3 29.3 0 0 0-4.204-3.727c-3.069-2.275-6.456-4.072-9.565-6.288-3.086-2.2-5.708-4.972-8.76-7.217a47 47 0 0 0-10.138-5.252c-7.245-2.993-14.363-6.298-20.788-10.833a53 53 0 0 1-14.371-14.746 26 26 0 0 1-2.283-4.488c-.066-.172-.347-.101-.28.073a46 46 0 0 0 4.654 9.299 40 40 0 0 0 4.035 5.026q1.735 3.918 3.413 7.86c.646 1.513 1.279 3.03 1.91 4.548.55 1.318 1.043 2.675 1.624 3.983a84 84 0 0 1-7.17-6.4 141 141 0 0 1-10.942-12.483c-1.74-2.2-3.417-4.445-5.087-6.697a102 102 0 0 0-2.43-3.183 20.6 20.6 0 0 0-2.957-2.844 14.3 14.3 0 0 0-3.217-2.057.098.098 0 0 0-.099.168 20 20 0 0 1 3.113 3.034c.047.057.082.12.127.177a13.9 13.9 0 0 0-6.753-2.176 38.2 38.2 0 0 0-10.204.966c-7.672 1.533-15.273 3.591-22.849 5.54q-23.167 5.959-46.055 12.944c-14.326 4.373-28.473 9.308-42.802 13.666-13.68 4.16-27.692 7.658-42.014 8.516-3.119.187-6.235.186-9.351.148a.056.056 0 0 0 .004-.076 9.8 9.8 0 0 0-1.715-1.253l-1.896-1.261c-1.103-.735-2.224-1.444-3.342-2.155q1.325-.443 2.656-.866 1.84 1.356 3.687 2.703c.668.487 1.341.964 2.017 1.44a7.5 7.5 0 0 0 1.947 1.222c.073.022.107-.066.069-.117a7.6 7.6 0 0 0-1.838-1.408 144 144 0 0 0-2.047-1.389q-1.873-1.242-3.753-2.476c.63-.199 1.259-.397 1.892-.581a.031.031 0 0 0-.016-.06c-.739.135-1.472.28-2.207.423l-.042-.028c-.026-.017-.048.023-.024.04-1.484.29-2.963.599-4.43.997-2.162.587-4.3 1.28-6.414 2.023-4.309 1.515-8.51 3.288-12.7 5.1a127 127 0 0 1-12.71 4.951 107 107 0 0 1-12.848 3.036c-2.408.431-4.775 1.02-7.17 1.503q-3.691.745-7.396 1.425a.18.18 0 0 0 .044.353c4.414-.328 8.871-.476 13.255-1.095a96 96 0 0 0 12.913-2.796 74 74 0 0 0 10.376-3.838.179.179 0 0 0 .265.192c5.41-3.01 11.454-3.836 17.557-4.057 6.262-.228 12.526.19 18.788.058 14.087-.297 27.963-3.27 41.461-7.137 14.046-4.025 27.828-8.923 41.772-13.275q22.54-7.035 45.374-13.076 11.45-3.029 22.964-5.815c6.536-1.58 13.862-4.082 20.602-2.224a15.4 15.4 0 0 1 4.213 1.77c.358.484.74.956 1.09 1.445 1.62 2.261 3.195 4.551 4.85 6.787a139 139 0 0 0 10.985 13.254 85 85 0 0 0 12.738 11.1 62 62 0 0 0 7.18 4.346c2.57 1.322 5.29 2.285 7.898 3.524a16.8 16.8 0 0 1 6.38 5.06 34.3 34.3 0 0 1 3.794 6.93c2.094 4.744 3.724 9.672 5.507 14.535a85.3 85.3 0 0 0 6.282 14.026c1.3 2.21 2.766 4.794 5.11 6.034 2 1.058 4.866.893 6.217-1.127 1.433-2.143.131-5.032-.505-7.22l-2.573-8.849c-1.692-5.82-3.446-11.62-5.183-17.429-.214-.715-.413-1.437-.643-2.147a5.6 5.6 0 0 0-.405-.916c.172.153.34.31.512.461.94.826 1.824 1.724 2.803 2.502 2.097 1.668 4.323 3.19 6.486 4.772 2.285 1.672 4.584 3.313 6.964 4.848 1.305.841 2.624 1.68 3.993 2.411.73.39 1.454.816 2.184 1.227a.38.38 0 0 0 .169.238 9.3 9.3 0 0 0 1.39.69q.744.327 1.472.687.702.346 1.388.722a4 4 0 0 0 .716.338c.051.016.107.025.161.04.273.184.54.379.814.558a21 21 0 0 0 5.87 2.88 19 19 0 0 0 1.643 1.31c.78.573 1.913 1.089 2.066 2.133.131.898.144 1.816.269 2.717a27 27 0 0 0 .533 2.772 28.6 28.6 0 0 0 4.66 10.011 26.6 26.6 0 0 0 3.822 4.28c1.47 1.293 3.314 2.406 5.349 2.078a3.786 3.786 0 0 0 3.335-3.35 10.7 10.7 0 0 0-.574-3.163l-.87-3.485q-.961-3.847-1.951-7.686c-.328-1.281-.718-2.544-1.1-3.81-.124-.411-.246-.827-.374-1.242a17.5 17.5 0 0 1 1.615 2.012 17.7 17.7 0 0 1 1.568 3.675 33.3 33.3 0 0 0 5.485 9.529 33.4 33.4 0 0 0 11.387 9.056c1.759.84 4.351 1.415 5.48-.71 1.112-2.098-.515-4.545-1.563-6.299-1.524-2.548-3.034-5.106-4.592-7.634a41 41 0 0 0 3.394 3.652 42 42 0 0 0 6.041 4.757 42 42 0 0 0 3.416 1.995 14 14 0 0 0 3.033 1.273c1.982.492 4.275-.12 4.886-2.297m-56.615-53.846c-1.026-1.276-2.07-2.542-3.097-3.82.288.145.576.29.88.415a17 17 0 0 0 2.242.74c.11.33.23.655.35.982.193.527.384 1.055.586 1.578.326.845.643 1.702 1.014 2.53q-.997-1.204-1.975-2.425m-308.77.069q1.896-.933 3.824-1.796a4.7 4.7 0 0 0 1.585.575 39 39 0 0 0-5.408 1.22m5.797-1.278a11.5 11.5 0 0 1-1.634-.664l.03-.013.222.057c.392.1.79.162 1.18.264a.016.016 0 0 0 .008-.03c-.386-.121-.757-.278-1.143-.402l-.006-.002q.81-.356 1.625-.7c.235.117.472.232.704.355q.61.323 1.21.666c.095.054.187.116.282.173a51 51 0 0 0-2.478.296m2.875-.332-.575-.315a20 20 0 0 0-1.845-.918c.09-.038.18-.08.271-.117.644-.26 1.296-.497 1.945-.744 1.166.59 2.296 1.242 3.425 1.896-1.074.042-2.149.1-3.22.198m4.696-.248c-.362.006-.725.025-1.088.037a32 32 0 0 0-3.606-1.962c.907-.344 1.827-.653 2.74-.978q1.026.702 2.062 1.39l1.41.94c.27.18.549.384.838.559q-1.178-.002-2.356.014m2.698-.013a12 12 0 0 0-1.08-.73l-1.42-.923a198 198 0 0 0-2.003-1.29c.696-.248 1.388-.51 2.088-.746q1.516 1.024 3.033 2.046c.559.376 1.124.742 1.686 1.11.255.168.525.38.807.567-1.037-.014-2.074-.03-3.11-.034m3.675.04a12 12 0 0 0-1.245-.786c-.567-.362-1.131-.728-1.703-1.083l-3.049-1.893.017-.006q1.33-.442 2.664-.89c1.101.786 2.2 1.574 3.317 2.336l1.882 1.285a10.3 10.3 0 0 0 1.751 1.09q-1.817-.023-3.634-.052m212.994-8.81c-.478-1.46-1.13-2.878-1.716-4.294q-.988-2.39-2.03-4.755a237 237 0 0 0-3.435-7.437 46 46 0 0 0 2.456 2.407c.167.15.344.289.513.437-.004.012-.013.024-.003.036 1.852 2.34 2.83 5.241 3.944 7.974q.894 2.193 1.805 4.378l.91 2.184c.165.397.32.808.49 1.211a69 69 0 0 1-2.934-2.142m5.005 3.534c-.498-.318-.981-.657-1.47-.988q-.079-.32-.163-.637a.04.04 0 0 0-.075 0c-.41-1.097-.953-2.174-1.391-3.23q-.955-2.3-1.927-4.593a30.1 30.1 0 0 0-3.958-7.53 56 56 0 0 0 4.315 3.375c1.072 2.41 2.12 4.83 3.181 7.244.543 1.234 1.091 2.464 1.628 3.7.544 1.257 1.035 2.555 1.671 3.77q-.914-.54-1.811-1.11m1.97 1.2a.13.13 0 0 0 .103-.158l.01-.002c-.408-1.251-.984-2.457-1.51-3.662a277 277 0 0 0-1.684-3.808c-1.08-2.378-2.23-4.723-3.399-7.059q1.786 1.258 3.657 2.392c.93 2.314 1.867 4.626 2.843 6.92.991 2.332 1.915 4.717 2.987 7.018a62 62 0 0 1-3.008-1.64m5.205 2.724c-.598-.277-1.185-.578-1.773-.874-.924-2.414-2.033-4.773-3.053-7.145a385 385 0 0 0-3.074-6.925 80 80 0 0 0 3.162 1.81 33 33 0 0 0 1.404 3.893c.673 1.633 1.278 3.292 1.956 4.923.52 1.25 1.012 2.512 1.518 3.768q.15.375.303.749zm.998.448c-.136-.35-.32-.695-.39-.866-.478-1.185-.933-2.377-1.433-3.553-.693-1.633-1.322-3.295-2.06-4.909a39 39 0 0 1-1.735-4.19c.782.425 1.58.82 2.372 1.224a114 114 0 0 1 2.839 6.752c.791 2.072 1.404 4.207 2.154 6.29q-.876-.37-1.747-.748m2.054.882a52 52 0 0 0-2.313-6.681 76 76 0 0 0-2.923-6.462q1.484.755 2.986 1.466c-.024.01-.045.029-.034.06.816 2.456 1.623 4.914 2.444 7.368.564 1.686 1.104 3.39 1.692 5.074q-.919-.427-1.852-.825m31.16 14.046c-2.042-1.457-4.226-2.667-6.179-4.254a30.5 30.5 0 0 1-6-6.091c-.05-.073-.17-.01-.123.069a33 33 0 0 0 1.948 3.005 27 27 0 0 0 2.49 2.805c.375.373.76.738 1.146 1.1a.27.27 0 0 0-.058.18 11 11 0 0 0 .193 2.092c.177.724.405 1.44.607 2.157.404 1.438.819 2.874 1.211 4.315q1.161 4.266 2.39 8.51l2.46 8.491 1.249 4.305c.385 1.328.832 2.654 1.123 4.006a2.88 2.88 0 0 1-.583 2.943 3.14 3.14 0 0 1-2.73.473c-2.448-.64-3.933-3.495-5.122-5.506a82 82 0 0 1-6.151-13.692c-1.736-4.748-3.335-9.55-5.32-14.202-1.68-3.938-3.714-7.952-6.929-10.822-.249-.797-.523-1.587-.79-2.373l-1.253-3.703c-.824-2.434-1.69-4.853-2.542-7.277-.025-.07-.137-.043-.114.03.79 2.48 1.57 4.964 2.389 7.435l1.193 3.6c.202.608.392 1.225.597 1.836a16 16 0 0 0-1.543-1.12c-.113-.072-.231-.134-.345-.203a58 58 0 0 1-.376-.974c-.47-1.266-.952-2.527-1.429-3.79a666 666 0 0 0-2.875-7.45c-.011-.028-.056-.018-.046.011a671 671 0 0 0 2.737 7.612c.452 1.228.899 2.458 1.357 3.684q.124.336.244.68a26 26 0 0 0-1.638-.872c-.588-1.808-1.25-3.599-1.88-5.385a686 686 0 0 0-2.636-7.31c.698.332 1.398.661 2.103.974 3.654 1.624 7.444 2.955 11.047 4.692a29 29 0 0 1 5.157 3.13c1.533 1.182 2.942 2.515 4.385 3.802.433.386.882.74 1.325 1.106.99 1.868 1.978 3.738 3.042 5.565a.023.023 0 0 0 .04-.023c-.928-1.83-1.93-3.623-2.93-5.416a61 61 0 0 0 3.599 2.706c.377 1.048.79 2.084 1.263 3.093q.435.928.923 1.83a17 17 0 0 0 1.104 1.873.035.035 0 0 0 .061-.034c-.319-.603-.7-1.174-1.03-1.772q-.494-.898-.937-1.823a36 36 0 0 1-1.288-3.098c.993.694 2.007 1.363 3.03 2.026 1.098 2.554 2.144 5.133 3.291 7.663zm1.019.724a59 59 0 0 0-3.263-7.656c.382.247.76.495 1.146.74q.832.526 1.64 1.074c.98 2.528 1.956 5.068 3.082 7.53.013.027.061.008.05-.021-.902-2.51-1.96-4.972-3.012-7.427q1.278.868 2.481 1.81c.777 1.87 1.5 3.764 2.141 5.685q.28.84.54 1.685l.001.006q-2.397-1.722-4.806-3.426m5.555 3.96-.563-.402c-.032-.135-.058-.254-.08-.325q-.196-.624-.403-1.244-.414-1.241-.87-2.467c-.427-1.139-.9-2.26-1.389-3.374q1.03.817 1.992 1.717.71 1.967 1.44 3.926c.395 1.053.788 2.107 1.213 3.149-.447-.326-.892-.656-1.34-.98m11.506 8.799c-.589-.459-1.184-.912-1.76-1.377a236 236 0 0 0-3.118-2.483 199 199 0 0 0-5.138-3.85c-.39-1.128-.82-2.243-1.246-3.358q-.715-1.872-1.456-3.734a27 27 0 0 1 2.295 2.433q.365.446.72.9l.807 1.951c.442 1.068.865 2.148 1.373 3.187.013.027.06.009.05-.02-.384-1.076-.856-2.12-1.306-3.17l-.734-1.708c1.98 2.547 3.765 5.246 5.974 7.608a41 41 0 0 0 4.067 3.762 5 5 0 0 0-.528-.141m14.207 6.853c.17-.009.34 0 .512-.02a7 7 0 0 0 1.469-.352c-.006.737-.014 1.473 0 2.208a5.7 5.7 0 0 0-1.981-1.836m13.472 6.357c.466 2.137 1.02 4.258 1.541 6.383.532 2.166 1.082 4.327 1.624 6.49.212.846.673 1.953.34 2.822a2.27 2.27 0 0 1-1.513 1.251c-1.871.557-3.619-.824-4.89-2.033a25.6 25.6 0 0 1-3.413-3.977 27.6 27.6 0 0 1-3.496-7.007.03.03 0 0 0 .04-.028c.154-1.398.107-2.823.127-4.227.02-1.41.016-2.818.013-4.228a.031.031 0 0 0-.063 0 251 251 0 0 0-.13 4.227c-.027 1.374-.116 2.766-.02 4.139a27 27 0 0 1-.659-2.341 25 25 0 0 1-.498-2.868 18 18 0 0 0-.276-2.502q-.017-1.438-.084-2.876a6.62 6.62 0 0 0 4.412-4.737 5 5 0 0 0 .072-.859c.083.092.17.185.25.277l2.945 3.392q1.335 1.537 2.676 3.068a14 14 0 0 0 .336 2.35c.22 1.096.428 2.192.666 3.283"/><path fill="currentColor" d="M757.395 130.303a.074.074 0 0 0-.144.037c.95 3.663 1.814 7.38 3.048 10.96a.05.05 0 0 0 .099-.025c-.776-3.706-1.94-7.34-3.003-10.972m8.226 18.339.017-.002c-.716-3.032-1.74-6.014-2.658-8.99a410 410 0 0 0-2.878-8.933.04.04 0 0 0-.075.02 409 409 0 0 0 2.497 9.031c.868 2.992 1.652 6.047 2.717 8.975a.196.196 0 0 0 .38-.101m4.499 3.564a19 19 0 0 0-1.336-3.698 152 152 0 0 1-1.374-3.703c-.88-2.483-1.718-4.983-2.459-7.51a.074.074 0 0 0-.144.036c.668 2.625 1.406 5.227 2.281 7.79q.638 1.868 1.35 3.709a14 14 0 0 0 1.563 3.443c.047.062.128-.007.118-.067m3.265 3.632a13 13 0 0 0-.69-2.669q-.429-1.423-.916-2.829a66 66 0 0 0-2.134-5.312c-.025-.056-.105-.009-.082.046a86 86 0 0 1 2.02 5.483q.445 1.333.839 2.683a19.5 19.5 0 0 0 .78 2.645.098.098 0 0 0 .183-.047m2.515 1.58a24 24 0 0 0-1.191-3.337q-.653-1.653-1.3-3.31c-.02-.054-.11-.033-.09.024q.604 1.694 1.202 3.39a23.5 23.5 0 0 0 1.278 3.273.055.055 0 0 0 .101-.04m2.881 1.288a88 88 0 0 0-1.443-2.46.016.016 0 0 0-.027.016c.47.827.94 1.652 1.436 2.463a.02.02 0 0 0 .034-.019m-18.552-1.165c-1.065-2.47-2.28-4.88-3.442-7.306-.037-.077-.153-.011-.116.065 1.154 2.428 2.26 4.888 3.51 7.268.017.032.061.005.048-.027m5.334 7.022a28 28 0 0 0-1.376-3.337 118 118 0 0 0-1.612-3.475 163 163 0 0 0-3.482-6.82c-.026-.05-.1-.008-.075.041a338 338 0 0 1 3.284 6.794c.528 1.12 1.039 2.246 1.564 3.367.535 1.143.996 2.367 1.64 3.453a.031.031 0 0 0 .057-.023m31.199 23.607c-.878-2.414-1.963-4.752-2.865-7.16a146 146 0 0 1-2.54-7.293c-.02-.067-.125-.04-.105.027.738 2.501 1.537 4.99 2.449 7.433a59 59 0 0 0 2.946 7.039c.033.06.14.021.115-.047m2.189-.751a16 16 0 0 0-.829-2.162l-.932-2.267c-.62-1.508-1.273-3.004-1.911-4.506-.009-.02-.044-.006-.036.015.578 1.478 1.142 2.963 1.738 4.434l.92 2.273a17 17 0 0 0 .97 2.245.043.043 0 0 0 .08-.032m2.697.428a6 6 0 0 0-.516-.943l-.56-.908-1.158-1.88c-.034-.056-.122-.008-.089.049l1.122 1.902.54.918a6 6 0 0 0 .595.9c.025.027.08 0 .066-.038m43.425 12.789a1.76 1.76 0 0 0-.84.083 2 2 0 0 0-.392.155 5 5 0 0 0-.375.22.02.02 0 0 0 .019.034 2.4 2.4 0 0 1 .386-.154q.198-.062.399-.115c.265-.067.538-.088.803-.155a.035.035 0 0 0 0-.068m30.764-5.915a.086.086 0 0 0-.157-.067 3.75 3.75 0 0 1-1.45 1.172 3.5 3.5 0 0 1-.837.295c-.17.036-.3.04-.474.071-.062.01-.124.024-.187.032a.43.43 0 0 0-.323.196 2 2 0 0 1-.535-.045c-.053-.013-.093.068-.039.093.176.08.358.145.54.208a.4.4 0 0 0 .333.263c.094.014.19.028.286.033a2.2 2.2 0 0 0 .577-.07 3.2 3.2 0 0 0 1.05-.425 2.72 2.72 0 0 0 1.216-1.757m-25.168-11.112-.984-3.382a.055.055 0 0 0-.106.027l.912 3.4a33 33 0 0 0 .99 3.381.047.047 0 0 0 .092-.023 33 33 0 0 0-.904-3.403m3.735 5.66a3.6 3.6 0 0 0-.254-.694q-.18-.43-.346-.866-.3-.783-.558-1.581a33 33 0 0 1-.865-3.238c-.013-.06-.103-.035-.09.023a33 33 0 0 0 .849 3.289q.252.799.546 1.584.13.348.268.693a3.6 3.6 0 0 0 .385.816.035.035 0 0 0 .065-.026m2.97 3.133c-.314-1.16-.806-2.287-1.223-3.414-.42-1.136-.858-2.265-1.293-3.396-.007-.018-.037-.011-.03.008.403 1.159.804 2.318 1.223 3.471.406 1.117.755 2.28 1.259 3.357.017.036.075.012.064-.026m1.559-.22c-.01-.017-.038-.001-.028.016l1.336 2.264c.01.017.038.002.028-.015zm3.793 5.165c-.01-.018-.036-.003-.027.015l.705 1.311a.012.012 0 0 0 .02-.011zm-32.185-30.433c-1.866-2.914-3.965-5.693-5.971-8.51-.017-.025-.058-.003-.041.022 1.968 2.848 3.869 5.768 5.974 8.516.016.02.052-.006.038-.028m3.957 2.877a55 55 0 0 0-3.054-4.82l-3.135-4.774c-.046-.07-.162-.007-.115.065l3.14 4.888a55 55 0 0 0 3.114 4.678c.023.028.065-.007.05-.037m4.169 2.875a13 13 0 0 0-1.203-1.957l-1.291-2.002-2.538-3.935c-.036-.055-.124-.006-.089.05l2.548 4.022 1.23 1.942a13 13 0 0 0 1.28 1.926c.033.035.079-.008.063-.046m2.658.993a11 11 0 0 0-.909-1.752q-.51-.876-1.065-1.726-1.093-1.677-2.349-3.238c-.022-.028-.06.01-.039.038q1.243 1.597 2.325 3.31.523.83 1.004 1.686c.319.566.593 1.175.961 1.71.023.034.088.017.072-.028m2.059.034c-.329-.557-.724-1.074-1.1-1.6l-1.129-1.585c-.014-.02-.048-.002-.034.019l1.113 1.633c.36.528.703 1.07 1.107 1.566.02.024.059-.006.043-.033m-7.274 1.473a.016.016 0 0 0-.03.008 90 90 0 0 0 1.807 6.433.031.031 0 0 0 .06-.016 90 90 0 0 0-1.837-6.425m4.445 10.02q-.287-1.413-.613-2.818a87 87 0 0 0-1.51-5.566.035.035 0 0 0-.068.017 141 141 0 0 1 1.358 5.526q.312 1.368.587 2.744a20 20 0 0 0 .612 2.814.031.031 0 0 0 .061-.008 14 14 0 0 0-.427-2.709m3.833 6.95c-.04-.39-.079-.779-.107-1.17a.046.046 0 0 0-.092-.002c-.35-1.969-.82-3.932-1.25-5.877q-.771-3.495-1.56-6.986c-.015-.065-.112-.039-.099.025q.707 3.513 1.396 7.029c.457 2.332.846 4.714 1.44 7.015.038.147.29.126.272-.034m3 3.33c-.02-.124-.045-.248-.066-.371-.015-.07-.016-.145-.038-.212-.84-4.881-1.888-9.735-2.887-14.585-.006-.03-.05-.017-.045.012.854 4.68 1.67 9.377 2.66 14.031-.017-.022-.054-.003-.04.023a2 2 0 0 1 .091.22c.066.306.125.612.192.916a.07.07 0 0 0 .135-.017Zm6.991 3.041q-.702-3.224-1.508-6.424a.035.035 0 0 0-.068.018q.783 3.206 1.465 6.435c.453 2.15.806 4.328 1.304 6.467.009.04.065.023.06-.015-.285-2.175-.787-4.34-1.253-6.48m2.675 5.864-.618-2.96-1.217-5.833c-.012-.054-.094-.032-.083.022l1.168 5.757.568 2.793a26 26 0 0 0 .648 2.952c.009.027.056.026.054-.007a23 23 0 0 0-.52-2.724m1.189-3.05a.027.027 0 0 0-.053.013 75 75 0 0 1 1.678 7.401c.006.035.059.021.053-.014a75 75 0 0 0-1.678-7.4m2.368 4.047a.035.035 0 0 0-.067.018c.492 1.859.938 3.739 1.495 5.58a.023.023 0 0 0 .045-.012c-.43-1.874-.977-3.727-1.472-5.586m-6.175 14.67c-.002-.04-.064-.041-.063 0 .062 2.143.061 4.3.243 6.438a.031.031 0 0 0 .062 0c.02-2.145-.143-4.297-.242-6.438"/><path fill="none" d="M856.287 227.38a.004.004 0 0 0 .004-.006"/><path fill="currentColor" d="M858.084 229.89c-.007-.013-.027-.002-.02.012l.408.824c.005.01.018.002.014-.008zm-28.31-26.955a4 4 0 0 0-.324-.636l-.358-.667-.717-1.333c-.02-.036-.073-.005-.055.03l.707 1.34.353.67a4 4 0 0 0 .347.622c.017.022.055 0 .047-.026m-30.338-11.655c.019-.181.024-.365.035-.548.022-.354.032-.709.043-1.064q.035-1.103.066-2.204c.002-.056-.081-.055-.086 0q-.096 1.083-.187 2.166c-.03.354-.063.708-.082 1.064-.01.177-.023.354-.028.532a5 5 0 0 0 .045.57c.004.045.075.062.085.011.035-.173.09-.352.109-.527m1.423.33a91 91 0 0 0-.03-2.802.023.023 0 0 0-.047 0c-.05.934-.097 1.866-.119 2.802s-.06 1.868.007 2.802a.047.047 0 0 0 .094 0c.096-.931.087-1.866.095-2.802m1.116 3.796.03-1.543.062-3.139a.016.016 0 0 0-.03 0l-.113 3.086-.055 1.49a12 12 0 0 0-.026 1.596c.004.036.063.052.07.01a12 12 0 0 0 .062-1.5m1.654 3.676c-.022-.2-.052-.398-.076-.597q-.075-.634-.125-1.272-.098-1.255-.094-2.516a.09.09 0 0 0-.18 0q-.013 1.278.074 2.553.044.619.112 1.235c.021.196.04.392.07.587a2 2 0 0 0 .14.596.06.06 0 0 0 .107-.013 2 2 0 0 0-.028-.573m1.716 2.038-.074-.501-.149-1.002c-.008-.054-.09-.032-.083.022l.146.986.072.486a2.7 2.7 0 0 0 .085.497.031.031 0 0 0 .062-.008 2.5 2.5 0 0 0-.06-.48m2.496 3.382a.63.63 0 0 1-.334-.327.58.58 0 0 1-.012-.462.043.043 0 1 0-.078-.033.674.674 0 0 0 .406.864c.025.007.043-.032.018-.042M754.95 92.971a38.2 38.2 0 0 0-8.81-3.758c-.068-.02-.097.085-.03.106a53.4 53.4 0 0 1 8.804 3.713.035.035 0 0 0 .036-.06m3.041-.142a134 134 0 0 0-3.511-2.088.043.043 0 0 0-.044.074c1.17.698 2.34 1.392 3.532 2.054a.023.023 0 0 0 .023-.04m-189.195 87.033a15 15 0 0 0-2.14-1.614q-1.18-.81-2.373-1.602c-1.588-1.057-3.197-2.081-4.802-3.112-.021-.014-.04.019-.02.033 1.513 1.114 3.02 2.235 4.55 3.323q1.124.801 2.256 1.586a16.3 16.3 0 0 0 2.419 1.526c.086.04.187-.064.11-.14m4.278-1.253a22 22 0 0 0-2.517-1.5q-1.223-.699-2.426-1.433a118 118 0 0 1-4.838-3.095c-.046-.031-.087.042-.043.074 1.579 1.152 3.185 2.272 4.843 3.309q1.242.777 2.508 1.516a14.3 14.3 0 0 0 2.422 1.25c.076.027.105-.08.05-.121m3.103-1.216a9.5 9.5 0 0 0-1.905-1.298c-.707-.423-1.419-.838-2.128-1.257q-2.129-1.257-4.248-2.528a.027.027 0 0 0-.028.047q2.083 1.334 4.158 2.68c.692.45 1.38.904 2.075 1.349a9.6 9.6 0 0 0 2.008 1.124.07.07 0 0 0 .068-.117m4.242-1.141a7.4 7.4 0 0 0-1.927-1.156c-.715-.37-1.426-.747-2.149-1.099q-2.173-1.056-4.341-2.122c-.018-.008-.034.017-.016.027q2.096 1.188 4.183 2.39c.697.4 1.408.775 2.114 1.158a7.4 7.4 0 0 0 2.049.95.09.09 0 0 0 .087-.148m4.042-.877a18 18 0 0 0-3.14-1.718q-1.614-.784-3.215-1.591c-.08-.04-.152.078-.072.121q1.607.866 3.203 1.752a17.6 17.6 0 0 0 3.17 1.565c.083.025.113-.084.055-.129m2.797-1.716a6 6 0 0 0-1.65-.98 11 11 0 0 0-1.933-.551.05.05 0 0 0-.026.098 26 26 0 0 1 3.542 1.518c.05.024.118-.042.067-.085m3.243-.499a1.5 1.5 0 0 0-.382-.2c-.142-.061-.283-.13-.43-.179l-.885-.295c-.028-.01-.049.036-.02.05l.839.403c.134.065.277.112.416.165a1.6 1.6 0 0 0 .431.13.043.043 0 0 0 .031-.074m4.137-.509a1.5 1.5 0 0 0-.345-.154l-.373-.13-.748-.259c-.057-.02-.08.07-.024.09l.742.28.37.139a1.5 1.5 0 0 0 .36.099c.038.004.045-.048.018-.065m5.12-1.649a6 6 0 0 1-2.045-.063.035.035 0 0 0-.018.068 3.5 3.5 0 0 0 1.036.194 3.4 3.4 0 0 0 1.043-.139.031.031 0 0 0-.016-.06"/><path fill="none" stroke="#2b2b2b" stroke-miterlimit="10" stroke-width="2" d="M793.797 76.931c.01-.007.862-.805 2.18-2.058"/><path fill="none" stroke="#2b2b2b" stroke-dasharray="6.08505 6.08505" stroke-miterlimit="10" stroke-width="2" d="M800.367 70.652c4.202-4.092 9.066-8.996 10.18-10.805 2.042-3.319 9.632-6.838 14.832-10.517 4.911-3.476 36.296-27.1 39.752-29.701a4 4 0 0 1 .683-.417c2.436-1.173 16.274-7.479 26.785-4.657a4.1 4.1 0 0 0 1.598.14c7.584-.973 10.124-5.106 10.86-8.687a4.155 4.155 0 0 0-4.438-4.954c-6.9.58-10.82-1.492-19.524 2.316-10.387 4.544-38.974 21.328-51.32 31.541-10.22 8.454-55.15 38.536-70.317 48.643"/><path fill="none" stroke="#2b2b2b" stroke-miterlimit="10" stroke-width="2" d="m756.932 85.236-2.496 1.659m138.947-72.11s1.194.117 2.977.363"/><path fill="none" stroke="#2b2b2b" stroke-dasharray="6.04542 6.04542" stroke-miterlimit="10" stroke-width="2" d="M902.317 16.17c4.528.954 9.165 2.432 9.591 4.522.787 3.863-5.568 14.055-28.747 11.927"/><path fill="none" stroke="#2b2b2b" stroke-miterlimit="10" stroke-width="2" d="M880.151 32.284q-1.445-.188-2.97-.437s-.744.847-2.02 2.216"/><path fill="none" stroke="#2b2b2b" stroke-dasharray="6.01962 6.01962" stroke-miterlimit="10" stroke-width="2" d="M870.983 38.394c-5.107 5.11-12.49 11.839-18.689 14.9 0 0-21.466 24.315-23.11 29.787a20 20 0 0 0-1.091 7.335"/><path fill="none" stroke="#2b2b2b" stroke-miterlimit="10" stroke-width="2" d="M829.107 93.211a4.3 4.3 0 0 0 2.525 1.508m-22.716 4.397 2.943-.57"/><path fill="none" stroke="#2b2b2b" stroke-dasharray="6.13986 6.13986" stroke-miterlimit="10" stroke-width="2" d="M817.884 97.373c6.48-1.263 15.413-3.014 23.132-4.559 0 0 30.222-14.43 42.302-12.174 12.08 2.254 4.858 12.682-4.942 16.224s-44.5 21.192-50.194 25.746a78 78 0 0 1-5.321 3.897"/><path fill="none" stroke="#2b2b2b" stroke-miterlimit="10" stroke-width="2" d="M820.274 128.163c-1.61.984-2.598 1.496-2.598 1.496"/><path fill="currentColor" d="M44.012 238.154a14 14 0 0 0 3.033-1.273 42 42 0 0 0 3.416-1.995 42 42 0 0 0 6.04-4.757 41 41 0 0 0 3.395-3.652c-1.558 2.528-3.068 5.087-4.592 7.635-1.048 1.753-2.675 4.2-1.562 6.298 1.128 2.125 3.72 1.55 5.48.71a33.4 33.4 0 0 0 11.386-9.056 34.3 34.3 0 0 0 4.043-6.22 34 34 0 0 0 1.442-3.31 17.7 17.7 0 0 1 1.568-3.674 17.5 17.5 0 0 1 1.615-2.012q-.19.624-.374 1.242c-.382 1.266-.772 2.529-1.1 3.81q-.982 3.841-1.95 7.686-.436 1.742-.87 3.485a10.7 10.7 0 0 0-.575 3.164 3.786 3.786 0 0 0 3.336 3.35c2.034.327 3.878-.786 5.348-2.08a26.6 26.6 0 0 0 3.823-4.279 28.6 28.6 0 0 0 4.659-10.011 27 27 0 0 0 .533-2.772c.125-.901.138-1.82.27-2.717.152-1.044 1.286-1.56 2.065-2.134a19 19 0 0 0 1.642-1.31 21 21 0 0 0 5.871-2.879c.275-.18.541-.373.814-.557.054-.016.11-.025.16-.041a4 4 0 0 0 .717-.338q.686-.376 1.388-.722.728-.36 1.471-.687a9.3 9.3 0 0 0 1.391-.69.38.38 0 0 0 .17-.238c.73-.41 1.452-.836 2.183-1.226 1.37-.733 2.688-1.57 3.993-2.412 2.38-1.535 4.68-3.176 6.965-4.848 2.162-1.581 4.388-3.104 6.485-4.771.98-.779 1.862-1.677 2.803-2.503.172-.151.34-.308.512-.461a5.6 5.6 0 0 0-.405.916c-.23.71-.428 1.432-.642 2.148-1.738 5.807-3.492 11.607-5.184 17.428l-2.573 8.849c-.636 2.188-1.938 5.077-.505 7.22 1.35 2.02 4.216 2.185 6.216 1.127 2.346-1.24 3.81-3.824 5.111-6.034a85.3 85.3 0 0 0 6.282-14.026c1.783-4.863 3.413-9.791 5.507-14.534a34.3 34.3 0 0 1 3.794-6.93 16.8 16.8 0 0 1 6.38-5.061c2.608-1.238 5.327-2.202 7.899-3.524a62 62 0 0 0 7.179-4.345 85 85 0 0 0 12.738-11.101 139 139 0 0 0 10.985-13.254c1.655-2.236 3.23-4.526 4.85-6.787.35-.489.732-.96 1.09-1.446a15.4 15.4 0 0 1 4.213-1.769c6.74-1.857 14.066.644 20.602 2.224q11.513 2.783 22.964 5.815 22.827 6.039 45.374 13.076c13.944 4.352 27.727 9.25 41.772 13.275 13.498 3.868 27.374 6.84 41.461 7.137 6.263.132 12.526-.286 18.789-.058 6.102.221 12.147 1.047 17.556 4.057a.179.179 0 0 0 .265-.192 74 74 0 0 0 10.377 3.838 96 96 0 0 0 12.912 2.796c4.384.62 8.841.767 13.255 1.096a.18.18 0 0 0 .044-.354q-3.704-.68-7.396-1.425c-2.395-.483-4.762-1.072-7.17-1.503a107 107 0 0 1-12.847-3.036 127 127 0 0 1-12.711-4.951c-4.19-1.812-8.39-3.585-12.7-5.1-2.114-.743-4.251-1.436-6.415-2.023-1.466-.398-2.945-.707-4.43-.996h.001c.024-.018.002-.058-.024-.041l-.042.028c-.735-.143-1.468-.288-2.207-.424a.031.031 0 0 0-.015.06c.632.185 1.262.383 1.891.582q-1.879 1.234-3.753 2.476-1.03.685-2.047 1.389a7.6 7.6 0 0 0-1.838 1.408c-.038.05-.004.139.07.117a7.5 7.5 0 0 0 1.946-1.222q1.015-.711 2.017-1.44 1.847-1.347 3.687-2.703 1.331.422 2.656.866c-1.118.712-2.238 1.42-3.342 2.155l-1.895 1.261a9.8 9.8 0 0 0-1.716 1.253.056.056 0 0 0 .004.076c-3.116.038-6.232.039-9.351-.148-14.322-.858-28.333-4.355-42.014-8.516-14.33-4.358-28.476-9.293-42.802-13.666q-22.88-6.983-46.055-12.944c-7.575-1.949-15.177-4.007-22.849-5.54a38.2 38.2 0 0 0-10.204-.966 13.9 13.9 0 0 0-6.753 2.176c.045-.058.08-.12.127-.177a20 20 0 0 1 3.113-3.034.098.098 0 0 0-.099-.168 14.3 14.3 0 0 0-3.217 2.057 20.6 20.6 0 0 0-2.958 2.844 102 102 0 0 0-2.43 3.183c-1.67 2.252-3.346 4.498-5.085 6.697a141 141 0 0 1-10.944 12.484 84 84 0 0 1-7.169 6.399c.581-1.308 1.075-2.665 1.623-3.983a561 561 0 0 1 1.91-4.548q1.682-3.94 3.414-7.86a40 40 0 0 0 4.035-5.026 46 46 0 0 0 4.654-9.3c.067-.173-.214-.244-.28-.072a26 26 0 0 1-2.283 4.488 53 53 0 0 1-14.37 14.746c-6.426 4.535-13.544 7.84-20.789 10.833a47 47 0 0 0-10.138 5.252c-3.052 2.245-5.674 5.018-8.76 7.217-3.109 2.216-6.496 4.013-9.565 6.288a29.3 29.3 0 0 0-4.203 3.728 52 52 0 0 0-3.397 4.242 53.2 53.2 0 0 1-7.173 8.337 43.2 43.2 0 0 1-8.778 6.196c-2.534 1.304-5.722 2.084-8.167.172a4 4 0 0 1-1.697-2.946 4.74 4.74 0 0 1 1.195-2.911c.388 0 .787-.067 1.159-.103a5.5 5.5 0 0 1 2.13.16 6 6 0 0 1 1.654.973c.356.247 1.01.705 1.48.617.416-.078.876-.713 1.167-1.013a10.4 10.4 0 0 0 1.232-1.507 4.4 4.4 0 0 1 .573-.827 1.44 1.44 0 0 0 .469-.631 2.57 2.57 0 0 0-.155-1.76.083.083 0 0 0-.159 0c-.125.587-.491 1.082-.62 1.671-.056.257.037.496-.053.752a3.4 3.4 0 0 1-.542.85 15 15 0 0 1-1.236 1.42 4 4 0 0 1-.662.677c-.274.157-.698-.072-.94-.2-1.034-.547-1.67-1.789-2.845-2.05a5.1 5.1 0 0 0-1.784.012l-.11.015.02-.026c4.502-5.48 9.392-10.67 13.314-16.6a76 76 0 0 0 4.939-9.224 27 27 0 0 1 2.568-4.472 52 52 0 0 1 3.582-4.027 25.1 25.1 0 0 0 5.143-8.706c1.124-3.144 1.88-6.406 3.026-9.543a50 50 0 0 1 4.506-9.288 48.8 48.8 0 0 1 6.277-8.324c.028-.028-.016-.071-.045-.043a107 107 0 0 0-3.605 3.67 44.9 44.9 0 0 0-7.87 12.197c.274-1.208.558-2.41.906-3.601a95 95 0 0 1 2.769-8.131c.023-.06-.071-.092-.101-.04a41 41 0 0 0-3.562 7.939c-.461 1.418-.894 2.857-1.224 4.312a21 21 0 0 0-.414 2.064 7.5 7.5 0 0 0-.003 1.4 72 72 0 0 0-.662 1.818c-1.117 3.246-2.071 6.571-3.867 9.528-1.894 3.118-4.863 5.37-6.909 8.378-2.027 2.981-3.215 6.437-4.955 9.58a65 65 0 0 1-6.071 8.89c-2.256 2.839-4.646 5.566-6.992 8.33-1.166 1.375-2.394 2.733-3.427 4.212q-.176.25-.33.511a6 6 0 0 0-.88.61 17 17 0 0 0-1.503 1.667l-3.14 3.55q-1.57 1.776-3.131 3.56a22.7 22.7 0 0 0-2.692 3.371 21.5 21.5 0 0 0-1.413 3.478 30 30 0 0 1-1.362 3.115 32.3 32.3 0 0 1-3.731 5.794 32.6 32.6 0 0 1-10.742 8.67 4.95 4.95 0 0 1-2.573.742 1.353 1.353 0 0 1-1.14-1.688 7.7 7.7 0 0 1 1.219-2.923l2.142-3.64c1.385-2.356 2.783-4.704 4.112-7.092.684-1.23 1.378-2.455 2.044-3.694a16.2 16.2 0 0 0 1.692-3.656.16.16 0 0 0-.008-.1 33 33 0 0 1 2.87-2.018 22 22 0 0 0 3.037-2.604 74 74 0 0 0 5.278-6.471l5.4-6.931a90 90 0 0 0 2.24-2.994c1.299-1.327 2.594-2.666 3.81-4.06 1.288-1.479 2.462-3.071 3.644-4.642q-.695 3.496-1.55 6.957c-.29 1.172-.598 2.34-.91 3.507-.311 1.163-.703 2.318-.966 3.492-.024.076.091.103.118.03.426-1.156.708-2.387 1.03-3.576.307-1.134.592-2.275.866-3.418q.845-3.524 1.52-7.086c.003-.014-.01-.017-.017-.026q.217-.29.436-.578a365 365 0 0 0 2.772-3.68c-1.315 4.651-2.541 9.337-3.485 14.079a.023.023 0 0 0 .045.012c1.205-4.735 2.322-9.492 3.538-14.224.338-.458.682-.912 1.012-1.377.925-1.3 1.758-2.648 2.586-4.003q.332-.176.671-.35a16 16 0 0 1 2.17-.78 17.8 17.8 0 0 0 4.419-2.1 28 28 0 0 0 3.678-3.241c.021-.022-.01-.062-.034-.043a32 32 0 0 1-4.142 2.658 9.7 9.7 0 0 1-4.63 1.532 4.74 4.74 0 0 0-2.286.36 18 18 0 0 0-2.013 1.268 30 30 0 0 1-4.601 2.364c-.152.064-.071.315.083.305a15.4 15.4 0 0 0 2.716-.428q-.172.417-.34.839c-.201.507-.407 1.012-.6 1.523-.369.973-.77 1.948-1.066 2.948a91 91 0 0 1-2.02 2.354c-1.47 1.647-3.113 3.158-4.507 4.868-1.455 1.786-2.945 3.542-4.385 5.34-.901 1.125-1.767 2.274-2.636 3.42q-.367.474-.739.94c-1.751 2.2-3.486 4.414-5.263 6.591a30.6 30.6 0 0 1-5.54 5.65c-1.034.747-2.15 1.369-3.14 2.178a10.1 10.1 0 0 0-2.291 2.862 46.5 46.5 0 0 1-4.129 6.194 41 41 0 0 1-5.306 5.407 39 39 0 0 1-6.134 4.246 20.6 20.6 0 0 1-3.137 1.535 3.66 3.66 0 0 1-2.565.196c-1.859-.796-.632-3.373.075-4.542.61-1.01 1.378-1.925 2.083-2.87q1.244-1.666 2.46-3.352 4.765-6.615 9.052-13.557a147 147 0 0 0 7.935-14.314c.804-1.7 1.604-3.393 2.539-5.017a9 9 0 0 0 1.086.932q.37.288.763.543c.27.174.502.398.775.568.06.037.145-.043.1-.102-.189-.258-.427-.473-.622-.725-.19-.247-.385-.488-.594-.719a8 8 0 0 0-1.142-1.11c.278-.457.559-.914.866-1.356 1.583-2.278 3.387-4.397 5.068-6.6 3.432-4.5 6.93-8.948 10.354-13.454q2.608-3.432 5.206-6.87l1.515-2.009a19.5 19.5 0 0 0-.634 2.504.129.129 0 0 0 .25.065 22.5 22.5 0 0 1 1.19-2.816 34.7 34.7 0 0 1 6.978-9.219c2.983-2.888 6.243-5.466 9.491-8.045 7.675-6.094 15.561-11.92 23.547-17.599 7.983-5.676 16.075-11.194 24.18-16.693q12.201-8.278 24.4-16.56c3.793-2.575 7.854-5.24 12.382-6.283a32.7 32.7 0 0 1 9.748-.379 74 74 0 0 0-8.853.826c-.176.03-.118.282.039.292 1.68.107 3.336.11 5.018.128 6.727.072 13.47.376 20.19.698 6.678.32 13.345.864 19.996 1.545 13.476 1.38 26.885 3.325 40.306 5.15 13.339 1.812 26.704 3.515 40.139 4.434 14.145.968 28.327 1.07 42.497 1.363q10.663.221 21.314.707c3.517.164 7.032.347 10.55.493 3.562.149 7.124.209 10.678.528a.18.18 0 0 0 .045-.354c-1.733-.272-3.457-.588-5.192-.844-3.496-.516-6.973-.982-10.488-1.352-3.504-.369-7.041-.514-10.56-.663-7.106-.3-14.217-.45-21.327-.582-14.14-.264-28.29-.479-42.392-1.635-13.56-1.111-27.046-2.94-40.52-4.793-13.375-1.84-26.754-3.705-40.203-4.926-6.652-.604-13.327-1.08-20.005-1.243-2.94-.072-5.87-.01-8.804.122a43 43 0 0 0-2.464-.498 29.1 29.1 0 0 0-12.696.592c-4.697 1.312-8.708 4.23-12.707 6.911q-12.484 8.37-24.903 16.836c-8.256 5.597-16.488 11.233-24.599 17.039-8.052 5.763-16.003 11.687-23.675 17.951-4.477 3.656-9.094 8.01-11.704 13.295-.33.388-.662.775-.99 1.17-3.735 4.503-7.452 9.019-11.096 13.597-3.655 4.591-7.388 9.12-11.005 13.743a37.6 37.6 0 0 0-4.45 6.965c-1.213 2.539-2.357 5.1-3.684 7.583-2.662 4.98-5.628 9.805-8.72 14.527-3.05 4.66-6.354 9.112-9.632 13.61-1.127 1.546-2.333 3.755-1.777 5.735.611 2.176 2.904 2.789 4.886 2.297m49.754-53.718c.37-.828.688-1.685 1.014-2.53.202-.523.393-1.051.587-1.578q.181-.49.349-.981a17 17 0 0 0 2.242-.741c.304-.125.592-.27.88-.415-1.028 1.278-2.071 2.544-3.097 3.82q-.98 1.22-1.975 2.425m305.336-3.577a4.7 4.7 0 0 0 1.585-.575q1.927.866 3.823 1.796a39 39 0 0 0-5.408-1.22m-2.866-.353c.095-.057.187-.119.283-.173q.6-.343 1.209-.666c.232-.123.469-.238.704-.356q.816.344 1.625.701l-.006.002c-.386.124-.757.28-1.143.402a.016.016 0 0 0 .008.03c.39-.102.788-.165 1.18-.264l.222-.057.03.013a11.5 11.5 0 0 1-1.634.664 51 51 0 0 0-2.478-.296m-3.618-.234c1.13-.654 2.259-1.307 3.425-1.896.649.247 1.301.485 1.945.744.091.036.18.079.271.117a20 20 0 0 0-1.845.918q-.286.154-.575.315a63 63 0 0 0-3.221-.198m-3.83-.064c.288-.175.568-.379.838-.56l1.409-.939q1.036-.688 2.062-1.39c.914.325 1.833.634 2.74.978a32 32 0 0 0-3.606 1.962c-.363-.012-.726-.031-1.088-.037q-1.178-.018-2.355-.014m-3.454.035c.282-.187.552-.4.807-.566.562-.37 1.127-.735 1.686-1.111q1.517-1.022 3.033-2.046c.7.235 1.392.498 2.089.746q-1.006.639-2.004 1.29l-1.419.923a12 12 0 0 0-1.081.73c-1.037.003-2.074.02-3.11.034m-4.198.06a10.3 10.3 0 0 0 1.751-1.091l1.882-1.285c1.117-.762 2.216-1.55 3.317-2.335q1.333.447 2.664.889l.017.006q-1.526.945-3.05 1.893c-.57.355-1.135.72-1.702 1.083a12 12 0 0 0-1.245.787zm-212.294-6.723c.17-.403.325-.814.49-1.21l.91-2.185q.911-2.186 1.805-4.378c1.115-2.733 2.092-5.633 3.944-7.974.01-.012 0-.024-.003-.036.17-.149.346-.286.513-.437a46 46 0 0 0 2.456-2.407 237 237 0 0 0-3.435 7.437q-1.038 2.368-2.03 4.755c-.586 1.416-1.238 2.835-1.716 4.293a69 69 0 0 1-2.934 2.142m-3.882 2.503c.636-1.214 1.127-2.512 1.671-3.769.537-1.236 1.085-2.466 1.628-3.7 1.06-2.414 2.11-4.834 3.18-7.244a56 56 0 0 0 4.316-3.374 30.1 30.1 0 0 0-3.958 7.53q-.972 2.292-1.927 4.592c-.438 1.056-.981 2.133-1.39 3.23a.04.04 0 0 0-.076 0q-.085.318-.163.637c-.489.331-.972.67-1.47.988q-.896.572-1.811 1.11m-3.166 1.73c1.072-2.3 1.996-4.685 2.987-7.016a375 375 0 0 0 2.843-6.92q1.866-1.14 3.657-2.393c-1.17 2.336-2.32 4.68-3.399 7.06a277 277 0 0 0-1.684 3.807c-.526 1.205-1.102 2.41-1.51 3.662l.01.002a.13.13 0 0 0 .104.158 62 62 0 0 1-3.008 1.64m-2.64 1.283q.15-.375.302-.749c.506-1.256.998-2.517 1.518-3.768.678-1.63 1.283-3.29 1.956-4.923a33 33 0 0 0 1.404-3.892 80 80 0 0 0 3.162-1.811 384 384 0 0 0-3.074 6.925c-1.02 2.372-2.13 4.73-3.053 7.145-.588.297-1.174.597-1.773.874zm-2.303.997c.75-2.083 1.363-4.218 2.154-6.29.87-2.28 1.824-4.533 2.839-6.752.793-.403 1.59-.799 2.372-1.224a39 39 0 0 1-1.735 4.19c-.738 1.614-1.367 3.276-2.06 4.91-.5 1.175-.955 2.367-1.433 3.551-.07.172-.254.518-.39.866-.58.254-1.164.5-1.747.75m-2.16.96c.589-1.685 1.129-3.39 1.693-5.075.82-2.454 1.628-4.912 2.444-7.367.01-.032-.01-.051-.034-.06q1.5-.715 2.986-1.467a76 76 0 0 0-2.923 6.462 52 52 0 0 0-2.313 6.68q-.933.4-1.852.826m-30.164 13.829c1.147-2.53 2.193-5.11 3.291-7.664a103 103 0 0 0 3.03-2.025 36 36 0 0 1-1.288 3.097q-.442.925-.937 1.823c-.33.598-.711 1.17-1.03 1.773a.035.035 0 0 0 .061.034 17 17 0 0 0 1.104-1.873q.488-.902.923-1.83a36 36 0 0 0 1.263-3.093 61 61 0 0 0 3.6-2.706c-1.001 1.793-2.003 3.585-2.931 5.416a.023.023 0 0 0 .04.023c1.064-1.827 2.051-3.697 3.042-5.565.443-.366.892-.72 1.325-1.106 1.443-1.287 2.852-2.62 4.385-3.802a29 29 0 0 1 5.157-3.13c3.603-1.737 7.393-3.069 11.047-4.692a92 92 0 0 0 2.103-.974 686 686 0 0 0-2.636 7.31c-.63 1.786-1.292 3.577-1.88 5.384q-.835.407-1.638.872.12-.343.244-.68c.458-1.225.905-2.455 1.357-3.683a671 671 0 0 0 2.737-7.612c.01-.029-.035-.04-.045-.012a666 666 0 0 0-2.876 7.45c-.477 1.264-.959 2.525-1.43 3.79q-.182.485-.375.975c-.114.069-.232.13-.345.202a16 16 0 0 0-1.543 1.121c.205-.611.395-1.229.597-1.837l1.193-3.6c.82-2.47 1.598-4.955 2.389-7.435.023-.073-.09-.1-.114-.03-.852 2.425-1.718 4.844-2.542 7.278l-1.254 3.702c-.266.787-.54 1.577-.79 2.374-3.214 2.87-5.247 6.884-6.927 10.822-1.986 4.653-3.585 9.454-5.321 14.202a82 82 0 0 1-6.151 13.692c-1.189 2.01-2.674 4.866-5.121 5.506a3.14 3.14 0 0 1-2.731-.473 2.88 2.88 0 0 1-.583-2.943c.29-1.352.738-2.678 1.123-4.006l1.248-4.305 2.461-8.491q1.231-4.246 2.39-8.51c.392-1.441.807-2.877 1.211-4.315.202-.718.43-1.433.607-2.157a11 11 0 0 0 .193-2.091.27.27 0 0 0-.058-.18 55 55 0 0 0 1.147-1.101 27 27 0 0 0 2.49-2.805 33 33 0 0 0 1.947-3.005c.047-.079-.073-.143-.123-.07a30.5 30.5 0 0 1-6 6.092c-1.953 1.587-4.137 2.797-6.179 4.254zm-4.968 3.541.002-.006q.26-.846.54-1.685a85 85 0 0 1 2.14-5.685q1.203-.945 2.481-1.81c-1.052 2.455-2.11 4.918-3.013 7.427-.01.03.038.048.05.02 1.127-2.461 2.104-5.001 3.083-7.529.54-.364 1.084-.724 1.64-1.075.386-.244.764-.493 1.146-.739a59 59 0 0 0-3.263 7.656q-2.406 1.71-4.806 3.426m-2.089 1.513c.425-1.04.818-2.095 1.213-3.148q.734-1.958 1.44-3.926.964-.898 1.992-1.717a66 66 0 0 0-1.389 3.374q-.459 1.224-.87 2.467-.207.62-.403 1.244c-.022.071-.048.19-.08.325l-.563.401c-.448.325-.893.655-1.34.98m-10.693 7.961a41 41 0 0 0 4.066-3.762c2.209-2.362 3.994-5.061 5.974-7.608l-.734 1.709c-.45 1.049-.922 2.093-1.306 3.168-.01.03.037.048.05.02.508-1.038.93-2.118 1.373-3.186l.807-1.952q.356-.453.72-.899a27 27 0 0 1 2.295-2.433q-.737 1.864-1.456 3.734c-.426 1.115-.856 2.23-1.246 3.358a199 199 0 0 0-5.137 3.85 236 236 0 0 0-3.12 2.483c-.575.465-1.17.918-1.759 1.377a5 5 0 0 0-.527.141m-15.661 8.548c.014-.735.006-1.471 0-2.208a7 7 0 0 0 1.47.352c.171.02.34.011.511.02a5.7 5.7 0 0 0-1.981 1.836m-10.825 1.238a14 14 0 0 0 .336-2.351q1.34-1.532 2.676-3.068l2.945-3.392c.08-.092.167-.185.25-.277a5 5 0 0 0 .072.86 6.62 6.62 0 0 0 4.412 4.736 83 83 0 0 0-.084 2.876 18 18 0 0 0-.276 2.502 25 25 0 0 1-.498 2.868 27 27 0 0 1-.658 2.341c.095-1.373.006-2.765-.021-4.139a251 251 0 0 0-.13-4.227.031.031 0 0 0-.063 0c-.003 1.41-.007 2.818.013 4.228.02 1.404-.026 2.83.126 4.227a.03.03 0 0 0 .041.028 27.6 27.6 0 0 1-3.496 7.007 25.6 25.6 0 0 1-3.413 3.977c-1.271 1.208-3.019 2.59-4.89 2.033a2.27 2.27 0 0 1-1.513-1.251c-.333-.869.128-1.976.34-2.822.542-2.163 1.092-4.325 1.624-6.49.522-2.125 1.075-4.246 1.541-6.384.238-1.09.447-2.187.666-3.282"/><path fill="currentColor" d="M185.109 130.303a.074.074 0 0 1 .144.037c-.95 3.663-1.814 7.38-3.048 10.96a.05.05 0 0 1-.098-.025c.775-3.706 1.94-7.34 3.002-10.972m-8.226 18.339-.017-.002c.716-3.032 1.74-6.014 2.658-8.99.92-2.99 1.888-5.964 2.878-8.933a.04.04 0 0 1 .075.02 409 409 0 0 1-2.497 9.031c-.868 2.992-1.651 6.047-2.717 8.975a.196.196 0 0 1-.38-.101m-4.498 3.564a19 19 0 0 1 1.335-3.698c.472-1.229.934-2.462 1.374-3.703.88-2.483 1.718-4.983 2.459-7.51a.074.074 0 0 1 .144.036c-.668 2.625-1.406 5.227-2.281 7.79q-.638 1.868-1.35 3.709a14 14 0 0 1-1.563 3.443c-.047.062-.128-.007-.118-.067m-3.265 3.632a13 13 0 0 1 .69-2.669q.43-1.423.916-2.829a66 66 0 0 1 2.134-5.312c.025-.056.105-.009.082.046a86 86 0 0 0-2.02 5.483q-.445 1.333-.839 2.683a19.5 19.5 0 0 1-.78 2.645.098.098 0 0 1-.183-.047m-2.515 1.58a24 24 0 0 1 1.192-3.337q.653-1.653 1.299-3.31c.021-.054.11-.033.09.024q-.604 1.694-1.202 3.39a23.5 23.5 0 0 1-1.278 3.273.055.055 0 0 1-.101-.04m-2.881 1.288c.464-.83.952-1.644 1.443-2.46a.016.016 0 0 1 .027.016c-.47.827-.94 1.652-1.436 2.463a.02.02 0 0 1-.034-.019m18.552-1.165c1.065-2.47 2.28-4.88 3.442-7.306.037-.077.153-.011.116.065-1.154 2.428-2.26 4.888-3.51 7.268-.017.032-.061.005-.048-.027m-5.334 7.022a28 28 0 0 1 1.376-3.337 118 118 0 0 1 1.612-3.475 163 163 0 0 1 3.482-6.82c.026-.05.1-.008.075.041a338 338 0 0 0-3.284 6.794c-.528 1.12-1.038 2.246-1.563 3.367-.536 1.143-.997 2.367-1.64 3.453a.031.031 0 0 1-.058-.023m-31.199 23.607c.878-2.414 1.963-4.752 2.865-7.16a146 146 0 0 0 2.54-7.293c.02-.067.125-.04.105.027-.738 2.501-1.537 4.99-2.448 7.433a59 59 0 0 1-2.947 7.039c-.033.06-.14.021-.115-.047m-2.188-.751a16 16 0 0 1 .828-2.162l.932-2.267c.62-1.508 1.273-3.004 1.911-4.506.009-.02.044-.006.036.015-.578 1.478-1.142 2.963-1.738 4.434l-.92 2.273a17 17 0 0 1-.97 2.245.043.043 0 0 1-.08-.032m-2.697.428a6 6 0 0 1 .516-.943l.56-.908 1.158-1.88c.034-.056.122-.008.089.049l-1.122 1.902-.54.918a6 6 0 0 1-.595.9c-.025.027-.08 0-.066-.038m-43.425 12.789a1.76 1.76 0 0 1 .84.083 2 2 0 0 1 .392.155q.193.102.376.22a.02.02 0 0 1-.02.034 2.4 2.4 0 0 0-.386-.154q-.198-.062-.399-.115c-.265-.067-.538-.088-.803-.155a.035.035 0 0 1 0-.068m-30.764-5.915a.086.086 0 0 1 .157-.067 3.75 3.75 0 0 0 1.45 1.172 3.5 3.5 0 0 0 .837.295c.17.036.3.04.474.071.063.01.124.024.187.032a.43.43 0 0 1 .323.196 2 2 0 0 0 .535-.045c.053-.013.093.068.039.093-.176.08-.358.145-.54.208a.4.4 0 0 1-.332.263 3 3 0 0 1-.287.033 2.2 2.2 0 0 1-.577-.07 3.2 3.2 0 0 1-1.05-.425 2.72 2.72 0 0 1-1.216-1.757m25.168-11.112.984-3.382a.055.055 0 0 1 .106.027l-.911 3.4a33 33 0 0 1-.992 3.381.047.047 0 0 1-.09-.023 33 33 0 0 1 .903-3.403m-3.735 5.66a3.6 3.6 0 0 1 .254-.694q.18-.43.346-.866.3-.783.558-1.581a33 33 0 0 0 .865-3.238c.013-.06.103-.035.09.023a33 33 0 0 1-.849 3.289q-.252.799-.546 1.584-.13.348-.268.693a3.6 3.6 0 0 1-.385.816.035.035 0 0 1-.065-.026M85.13 192.4c.315-1.16.807-2.287 1.224-3.414.42-1.136.858-2.265 1.293-3.396.007-.018.037-.011.03.008-.403 1.159-.804 2.318-1.223 3.471-.406 1.117-.755 2.28-1.259 3.357-.017.036-.075.012-.064-.026m-1.559-.22c.01-.017.038-.001.028.016l-1.336 2.264c-.01.017-.038.002-.028-.015zm-3.793 5.165c.01-.018.036-.003.027.015l-.705 1.311a.012.012 0 0 1-.02-.011zm32.185-30.433c1.866-2.914 3.965-5.693 5.971-8.51.017-.025.058-.003.041.022-1.968 2.848-3.869 5.768-5.974 8.516-.016.02-.052-.006-.038-.028m-3.956 2.877a55 55 0 0 1 3.054-4.82l3.134-4.774c.046-.07.162-.007.115.065l-3.14 4.888a55 55 0 0 1-3.114 4.678c-.023.028-.065-.007-.05-.037m-4.169 2.875a13 13 0 0 1 1.203-1.957l1.292-2.002 2.537-3.935c.036-.055.124-.006.089.05l-2.548 4.022-1.23 1.942a13 13 0 0 1-1.28 1.926c-.033.035-.078-.008-.063-.046m-2.658.993a11 11 0 0 1 .91-1.752q.51-.876 1.064-1.726 1.093-1.677 2.349-3.238c.022-.028.06.01.039.038q-1.243 1.597-2.325 3.31-.523.83-1.004 1.686c-.319.566-.593 1.175-.961 1.71-.023.034-.088.017-.072-.028m-2.06.034c.33-.557.725-1.074 1.1-1.6l1.13-1.585c.014-.02.048-.002.034.019l-1.113 1.633c-.359.528-.703 1.07-1.107 1.566-.02.024-.059-.006-.043-.033m7.274 1.473a.016.016 0 0 1 .03.008 90 90 0 0 1-1.807 6.433.031.031 0 0 1-.06-.016 90 90 0 0 1 1.837-6.425m-4.445 10.02q.287-1.413.613-2.818a87 87 0 0 1 1.51-5.566.035.035 0 0 1 .068.017 141 141 0 0 0-1.358 5.526q-.312 1.368-.587 2.744a20 20 0 0 1-.612 2.814.031.031 0 0 1-.061-.008 14 14 0 0 1 .427-2.709m-3.833 6.95c.04-.39.079-.779.108-1.17a.046.046 0 0 1 .091-.002c.35-1.969.82-3.932 1.25-5.877q.771-3.495 1.56-6.986c.015-.065.112-.039.099.025q-.707 3.513-1.396 7.029c-.457 2.332-.846 4.714-1.44 7.015-.038.147-.29.126-.272-.034m-3 3.33h-.001c.02-.124.045-.248.066-.371.015-.07.016-.145.038-.212.84-4.881 1.888-9.735 2.887-14.585.006-.03.05-.017.045.012-.854 4.68-1.67 9.377-2.66 14.031.017-.022.054-.003.04.023a2 2 0 0 0-.091.22c-.066.306-.125.612-.192.916a.07.07 0 0 1-.135-.017Zm-6.991 3.041q.702-3.224 1.508-6.424a.035.035 0 0 1 .068.018q-.783 3.206-1.465 6.435c-.453 2.15-.806 4.328-1.304 6.467-.009.04-.065.023-.06-.015.285-2.175.787-4.34 1.253-6.48m-2.676 5.864.619-2.96 1.217-5.833c.012-.054.094-.032.083.022l-1.168 5.757-.568 2.793a26 26 0 0 1-.648 2.952c-.009.027-.056.026-.053-.007a23 23 0 0 1 .519-2.724m-1.189-3.05a.027.027 0 0 1 .053.013 75 75 0 0 0-1.678 7.401c-.006.035-.059.021-.053-.014a75 75 0 0 1 1.678-7.4m-2.369 4.047a.035.035 0 0 1 .068.018c-.492 1.859-.938 3.739-1.495 5.58a.023.023 0 0 1-.045-.012c.43-1.874.977-3.727 1.472-5.586m6.175 14.67c.002-.04.064-.041.063 0-.062 2.143-.061 4.3-.243 6.438a.031.031 0 0 1-.062 0c-.02-2.145.143-4.297.242-6.438"/><path fill="none" d="M86.217 227.38a.004.004 0 0 1-.004-.006"/><path fill="currentColor" d="M84.42 229.89c.007-.013.028-.002.02.012l-.408.824c-.005.01-.018.002-.014-.008zm28.31-26.955a4 4 0 0 1 .324-.636l.358-.667.717-1.333c.02-.036.073-.005.055.03l-.706 1.34-.354.67a4 4 0 0 1-.347.622c-.017.022-.055 0-.046-.026m30.337-11.655c-.019-.181-.024-.365-.035-.548-.022-.354-.031-.709-.043-1.064q-.035-1.103-.066-2.204c-.002-.056.081-.055.086 0q.096 1.083.187 2.166c.03.354.063.708.082 1.064.009.177.023.354.028.532a5 5 0 0 1-.045.57c-.004.045-.075.062-.085.011-.035-.173-.09-.352-.109-.527m-1.423.33a91 91 0 0 1 .03-2.802.023.023 0 0 1 .047 0c.05.934.097 1.866.119 2.802s.06 1.868-.007 2.802a.047.047 0 0 1-.094 0c-.096-.931-.087-1.866-.095-2.802m-1.115 3.796-.031-1.543-.062-3.139a.016.016 0 0 1 .031 0l.112 3.086.055 1.49a12 12 0 0 1 .026 1.596c-.004.036-.063.052-.07.01a12 12 0 0 1-.062-1.5m-1.653 3.676c.021-.2.051-.398.075-.597q.075-.634.125-1.272.098-1.255.094-2.516a.09.09 0 0 1 .18 0q.013 1.278-.074 2.553-.044.619-.112 1.235c-.021.196-.04.392-.07.587a2 2 0 0 1-.14.596.06.06 0 0 1-.107-.013 2 2 0 0 1 .029-.573m-1.716 2.038.073-.501.149-1.002c.008-.054.09-.032.083.022l-.146.986-.072.486a2.7 2.7 0 0 1-.085.497.031.031 0 0 1-.062-.008 2.5 2.5 0 0 1 .06-.48m-2.496 3.382a.63.63 0 0 0 .334-.327.58.58 0 0 0 .012-.462.043.043 0 1 1 .078-.033.674.674 0 0 1-.406.864c-.025.007-.043-.032-.018-.042m52.891-111.531a38.2 38.2 0 0 1 8.81-3.758c.067-.02.096.085.028.106a53.4 53.4 0 0 0-8.803 3.713.035.035 0 0 1-.035-.06m-3.042-.142c1.157-.72 2.333-1.404 3.511-2.088a.043.043 0 0 1 .044.074c-1.17.698-2.34 1.392-3.531 2.054a.023.023 0 0 1-.024-.04m189.195 87.033a15 15 0 0 1 2.14-1.614q1.18-.81 2.373-1.602c1.588-1.057 3.197-2.081 4.802-3.112.022-.014.04.019.02.033-1.513 1.114-3.02 2.235-4.55 3.323q-1.124.801-2.256 1.586a16.3 16.3 0 0 1-2.419 1.526c-.086.04-.187-.064-.11-.14m-4.278-1.253a22 22 0 0 1 2.517-1.5q1.223-.699 2.426-1.433a118 118 0 0 0 4.838-3.095c.046-.031.087.042.043.074-1.579 1.152-3.185 2.272-4.843 3.309q-1.242.777-2.508 1.516a14.3 14.3 0 0 1-2.422 1.25c-.076.027-.105-.08-.05-.121m-3.103-1.216a9.5 9.5 0 0 1 1.905-1.298c.707-.423 1.419-.838 2.128-1.257q2.129-1.257 4.249-2.528a.027.027 0 0 1 .027.047q-2.083 1.334-4.158 2.68c-.692.45-1.38.904-2.075 1.349a9.6 9.6 0 0 1-2.007 1.124.07.07 0 0 1-.07-.117m-4.241-1.141a7.4 7.4 0 0 1 1.927-1.156c.715-.37 1.426-.747 2.149-1.099q2.173-1.056 4.342-2.122c.017-.008.033.017.015.027q-2.096 1.188-4.183 2.39c-.697.4-1.408.775-2.114 1.158a7.4 7.4 0 0 1-2.049.95.09.09 0 0 1-.087-.148m-4.043-.877a18 18 0 0 1 3.141-1.718q1.614-.784 3.215-1.591c.08-.04.152.078.072.121q-1.607.866-3.202 1.752a17.6 17.6 0 0 1-3.172 1.565c-.082.025-.112-.084-.054-.129m-2.797-1.716a6 6 0 0 1 1.65-.98 11 11 0 0 1 1.933-.551.05.05 0 0 1 .026.098 26 26 0 0 0-3.542 1.518c-.05.024-.118-.042-.067-.085m-3.243-.499a1.5 1.5 0 0 1 .382-.2c.142-.061.284-.13.43-.179l.885-.295c.028-.01.049.036.02.05l-.839.403c-.134.065-.277.112-.416.165a1.6 1.6 0 0 1-.431.13.043.043 0 0 1-.031-.074m-4.137-.509a1.5 1.5 0 0 1 .345-.154l.374-.13.747-.259c.057-.02.08.07.024.09l-.742.28-.37.139a1.5 1.5 0 0 1-.36.099c-.038.004-.045-.048-.018-.065m-5.12-1.649a6 6 0 0 0 2.045-.063.035.035 0 0 1 .018.068 3.5 3.5 0 0 1-1.036.194 3.4 3.4 0 0 1-1.043-.139.031.031 0 0 1 .016-.06"/><path fill="none" stroke="#2b2b2b" stroke-miterlimit="10" stroke-width="2" d="M148.708 76.931c-.01-.007-.863-.805-2.182-2.058"/><path fill="none" stroke="#2b2b2b" stroke-dasharray="6.08505 6.08505" stroke-miterlimit="10" stroke-width="2" d="M142.137 70.652c-4.202-4.092-9.066-8.996-10.18-10.805-2.042-3.319-9.632-6.838-14.832-10.517-4.911-3.476-36.296-27.1-39.752-29.701a4 4 0 0 0-.683-.417c-2.435-1.173-16.274-7.479-26.785-4.657a4.1 4.1 0 0 1-1.598.14c-7.584-.973-10.124-5.106-10.86-8.687a4.155 4.155 0 0 1 4.438-4.954c6.9.58 10.82-1.492 19.524 2.316 10.387 4.544 38.974 21.328 51.32 31.541 10.22 8.454 55.15 38.536 70.317 48.643"/><path fill="none" stroke="#2b2b2b" stroke-miterlimit="10" stroke-width="2" d="m185.572 85.236 2.496 1.659M49.121 14.785s-1.194.117-2.977.363"/><path fill="none" stroke="#2b2b2b" stroke-dasharray="6.04542 6.04542" stroke-miterlimit="10" stroke-width="2" d="M40.187 16.17c-4.528.954-9.165 2.432-9.59 4.522-.788 3.863 5.567 14.055 28.746 11.927"/><path fill="none" stroke="#2b2b2b" stroke-miterlimit="10" stroke-width="2" d="M62.353 32.284q1.445-.188 2.97-.437s.744.847 2.02 2.216"/><path fill="none" stroke="#2b2b2b" stroke-dasharray="6.01962 6.01962" stroke-miterlimit="10" stroke-width="2" d="M71.521 38.394c5.107 5.11 12.49 11.839 18.689 14.9 0 0 21.466 24.315 23.11 29.787a20 20 0 0 1 1.091 7.335"/><path fill="none" stroke="#2b2b2b" stroke-miterlimit="10" stroke-width="2" d="M113.397 93.211a4.3 4.3 0 0 1-2.525 1.508m22.716 4.397-2.943-.57"/><path fill="none" stroke="#2b2b2b" stroke-dasharray="6.13986 6.13986" stroke-miterlimit="10" stroke-width="2" d="M124.62 97.373a5103 5103 0 0 1-23.132-4.559S71.266 78.384 59.187 80.64s-4.858 12.682 4.941 16.224 44.5 21.192 50.194 25.746a78 78 0 0 0 5.321 3.897"/><path fill="none" stroke="#2b2b2b" stroke-miterlimit="10" stroke-width="2" d="M122.23 128.163a47 47 0 0 0 2.598 1.496"/><path fill="currentColor" d="M391.995 131.738c-5.446-5.603-12.608-9.456-19.767-12.414-.06-.025-.106.08-.045.107a76.4 76.4 0 0 1 10.214 5.663c3.258 2.127 6.348 4.49 9.484 6.791.088.065.186-.073.114-.147m11.288 2.762a20.3 20.3 0 0 0-5.072-3.774c-1.993-1.226-3.986-2.447-5.924-3.759-1.948-1.317-3.866-2.667-5.852-3.927-2.015-1.279-4.088-2.464-6.124-3.708-.065-.04-.122.06-.06.1 1.924 1.278 3.81 2.61 5.743 3.872 1.966 1.284 3.992 2.46 5.995 3.684 1.97 1.204 3.884 2.485 5.792 3.784 1.83 1.244 3.53 2.596 5.259 3.97a.172.172 0 0 0 .243-.242m5.001-1.019a8 8 0 0 0-.532-.406h-.001c-1.172-.887-2.459-1.655-3.674-2.47q-2.146-1.437-4.27-2.908c-2.862-1.981-5.728-3.956-8.56-5.98-.042-.03-.098.04-.056.073 2.697 2.095 5.418 4.16 8.208 6.13q2.111 1.492 4.245 2.95a41.5 41.5 0 0 0 4.432 2.88c.164.083.364-.136.208-.269m4.779-.818a35 35 0 0 0-3.147-2.195l-3.373-2.263c-2.248-1.508-4.516-2.985-6.776-4.476-.05-.034-.096.047-.047.08 2.2 1.512 4.39 3.037 6.602 4.531l3.264 2.206a37 37 0 0 0 3.401 2.216c.06.03.133-.05.076-.099m1.323-2.887c-.766-.6-1.553-1.172-2.336-1.75-.037-.027-.071.034-.036.061.775.584 1.544 1.175 2.334 1.738.03.02.066-.027.038-.05m143.018 2.958c-3.505-1.766-7.147-3.275-10.766-4.788-.053-.022-.092.07-.04.093 3.61 1.543 7.161 3.218 10.775 4.748.036.016.068-.035.031-.053m11.362.065a17.4 17.4 0 0 0-2.503-1.064c-.911-.361-1.827-.711-2.742-1.065-1.865-.721-3.728-1.452-5.592-2.178q-5.53-2.152-11.043-4.349c-.02-.008-.035.027-.015.036q5.35 2.319 10.75 4.515 2.726 1.103 5.47 2.16c.914.354 1.827.712 2.746 1.05a19 19 0 0 0 2.893.98.047.047 0 0 0 .036-.085m9.934-.486a13 13 0 0 0-2.897-1.086 23 23 0 0 1-3.052-1.048c-2.009-.835-3.928-1.863-5.938-2.696-3.992-1.657-8.01-3.247-12.028-4.84-.045-.019-.078.058-.033.078 3.946 1.762 7.89 3.528 11.865 5.228 2 .855 4.076 1.511 6.077 2.366a23 23 0 0 1 2.881 1.452 13 13 0 0 0 2.8 1.314.41.41 0 0 0 .41-.108.44.44 0 0 0 .122-.297.41.41 0 0 0-.208-.363m7.348-2.127c-.78-.753-1.899-.844-2.882-1.209-1.03-.382-2.034-.831-3.05-1.248-2.106-.865-4.229-1.682-6.395-2.386-.024-.008-.033.029-.01.038 2.085.816 4.18 1.603 6.262 2.43 1.085.43 2.188.847 3.234 1.37a7.6 7.6 0 0 0 2.741 1.246.142.142 0 0 0 .1-.24m3.459-3.438c-.672-.202-1.352-.373-2.031-.552a.035.035 0 0 0-.019.068c.678.182 1.354.371 2.038.53a.023.023 0 0 0 .012-.046m64.597 29.888c-2.602-.597-5.262-.962-7.893-1.404-.03-.005-.043.04-.013.046 2.624.498 5.248 1.077 7.897 1.42.035.004.043-.054.009-.062m6.123-3.06a59.7 59.7 0 0 0-10.714-1.86c-.02-.002-.02.029 0 .032 3.598.48 7.13 1.237 10.696 1.896a.035.035 0 0 0 .018-.068m6.879-1.204a30 30 0 0 0-3.9-.956q-1.968-.411-3.943-.788a191 191 0 0 0-7.938-1.317c-.044-.007-.064.06-.019.068 2.678.461 5.345.98 8.01 1.515q1.97.395 3.932.824a39 39 0 0 0 3.842.769c.07.008.074-.095.016-.115m5.12-2.359a54 54 0 0 0-7.202-1.635q-3.64-.686-7.304-1.184c-.053-.007-.078.073-.023.083 2.46.445 4.921.905 7.372 1.4 2.37.478 4.747 1.117 7.143 1.435.06.008.065-.082.014-.1m6.153-2.579a11.5 11.5 0 0 0-2.927-.607l-3.189-.53c-2.129-.353-4.265-.663-6.398-.988-.044-.007-.063.059-.018.067 2.112.403 4.223.821 6.34 1.196l3.18.562a11.7 11.7 0 0 0 2.982.41c.052-.005.088-.083.03-.11m5.344-1.996a19.6 19.6 0 0 0-3.76-.54q-1.95-.19-3.897-.391c-.096-.01-.092.136 0 .148q1.967.263 3.933.538a19.3 19.3 0 0 0 3.71.345.051.051 0 0 0 .014-.1m5.873-1.587a42 42 0 0 0-4.3-.948c-.097-.02-.14.128-.041.15a42 42 0 0 0 4.33.875c.046.005.052-.065.011-.077m37.012-10.302a15.2 15.2 0 0 0-3.18.582 32 32 0 0 1-3.562.567c-1.04.102-2.081.09-3.121.21a9 9 0 0 0-1.577.274c-.554.164-1.023.512-1.575.683-1.033.32-2.162.441-3.22.66q-1.611.33-3.218.681-3.333.728-6.634 1.58a.043.043 0 0 0 .022.083q3.21-.724 6.43-1.408 1.668-.357 3.34-.693a28 28 0 0 1 3.334-.624c.556-.043 1.104.094 1.66.06a9 9 0 0 0 1.574-.287c1.062-.258 2.089-.641 3.151-.888a27 27 0 0 1 3.442-.55 17.3 17.3 0 0 0 3.21-.362.29.29 0 0 0-.076-.568m-500.708.662c-3.098-.818-6.256-1.417-9.379-2.131q-2.284-.522-4.566-1.05c-.793-.182-1.592-.347-2.38-.55-.75-.193-1.468-.63-2.216-.768a.98.98 0 0 0-1.019.378 10 10 0 0 0-2.618.473 15 15 0 0 0-2.558 1.29.043.043 0 0 0 .033.078 16.2 16.2 0 0 1 5.095-.838l.002.004a.93.93 0 0 0 .814.468c.396-.001.774-.11 1.168-.14a5.2 5.2 0 0 1 1.096.055c.786.104 1.569.258 2.351.39l4.763.8c3.132.527 6.25 1.174 9.397 1.601.039.005.057-.05.017-.06m-10.387-4.965a10 10 0 0 0-1.941-1.355 12 12 0 0 0-1.076-.52c-.363-.155-.745-.247-1.117-.374-.02-.007-.035.027-.015.036.357.167.69.386 1.039.57q.51.271 1.015.551c.684.379 1.349.791 2.029 1.178.052.03.113-.043.066-.086m3.79.293a55 55 0 0 0-4.848-2.813.07.07 0 0 0-.071.122 55 55 0 0 0 4.88 2.758.04.04 0 0 0 .04-.067m1.847-.326a3.7 3.7 0 0 0-.815-.598l-.925-.59c-.606-.388-1.232-.746-1.846-1.12-.069-.043-.129.063-.063.108.598.403 1.185.824 1.79 1.215l.893.576a3.8 3.8 0 0 0 .909.507.06.06 0 0 0 .057-.098m2.225.108a8 8 0 0 0-.721-.4 9 9 0 0 1-.707-.429 10 10 0 0 1-1.326-1.033.05.05 0 0 0-.072.072 7.4 7.4 0 0 0 2.013 1.548 3 3 0 0 0 .78.32.043.043 0 0 0 .033-.078m1.537-.293a.012.012 0 0 0 0 .023h.256a.012.012 0 0 0 0-.023Zm5.363 1.023-1.273-.524c-.051-.02-.075.064-.023.083l1.284.487c.028.01.04-.034.012-.045m-22.741-6.441c-1.11.239-2.216.499-3.322.754-.044.01-.026.078.018.068 1.107-.256 2.214-.507 3.316-.778.03-.007.017-.051-.012-.045m-17.341-23.676c-1.611-.246-3.228-.422-4.848-.598-.035-.004-.044.057-.009.061 1.615.22 3.227.44 4.85.59.03.003.037-.048.007-.053m3.315-3.118a30 30 0 0 1-4.32-.283c-.05-.009-.071.063-.022.075a11.3 11.3 0 0 0 4.354.3c.054-.008.039-.09-.012-.092M42.243 161.898c1.533-13.144-4.111-26.017-16.777-38.26C12.054 110.673 5.896 98.386 7.164 87.12c1.088-9.667 7.555-16.487 11.562-19.851l5.888 7.897 9.703-24.51-25.788 2.936 5.998 8.044c-4.89 4.006-12.892 12.31-14.31 24.62-1.561 13.56 5.297 27.831 20.384 42.415 11.005 10.638 15.948 21.535 14.692 32.39-1.342 11.593-9.459 21.257-16.391 27.549l-5.622-7.071-9.777 25.071 25.928-4.755-6.142-7.726c7.879-7.062 17.32-18.236 18.954-32.23m854.543-.001c-1.534-13.144 4.111-26.017 16.777-38.26 13.412-12.965 19.57-25.252 18.302-36.518-1.088-9.667-7.555-16.487-11.563-19.851l-5.888 7.897-9.702-24.51 25.788 2.936-5.998 8.044c4.889 4.006 12.892 12.31 14.31 24.62 1.561 13.56-5.297 27.831-20.384 42.415-11.005 10.638-15.949 21.535-14.692 32.39 1.342 11.593 9.459 21.257 16.391 27.549l5.622-7.071 9.777 25.071-25.928-4.755 6.142-7.726c-7.879-7.062-17.321-18.236-18.954-32.23"/></svg>