<svg xmlns="http://www.w3.org/2000/svg" data-name="stonefish" viewBox="0 0 512.279 364.364"><path fill="currentColor" d="M153.797 122.582c-.309 2.388-.62 4.773-.885 7.165-.002.022.036.027.039.006.33-2.387.614-4.778.9-7.17.005-.036-.05-.035-.054 0m-8.008-38.605a7.5 7.5 0 0 1-2.38.544 15 15 0 0 0-2.35.488c-1.632.36-3.316.47-4.968.713a49.3 49.3 0 0 0-10.324 2.941c-.087.034-.051.175.04.143a49.4 49.4 0 0 1 10.872-2.225c1.652-.178 3.314-.23 4.968-.39a5.24 5.24 0 0 0 2.34-.66 17 17 0 0 0 1.954-1.293.157.157 0 0 0-.152-.261"/><path fill="currentColor" d="M512.11 209.39c-4.994-.253-10.012-.019-15.003.196-5.004.215-9.999.601-14.992.985q-14.987 1.152-29.947 2.615t-29.886 3.237q-7.463.887-14.916 1.852c-4.88.631-9.756 1.4-14.657 1.86a64 64 0 0 1-3.39.223c-2.507-2.313-5.092-4.546-7.592-6.866-2.808-2.606-5.575-5.257-8.336-7.912a.012.012 0 0 0-.016.017 223 223 0 0 0 8.184 8.063c2.417 2.271 4.851 4.575 7.397 6.714a44 44 0 0 1-4.554-.063c-2.04-1.912-4.205-3.694-6.23-5.627a137 137 0 0 1-6.52-6.68c-.012-.013-.03.006-.019.02a81 81 0 0 0 6.374 6.987 57 57 0 0 0 6.022 5.279 31 31 0 0 1-5.191-.844c-1.34-1.298-2.775-2.515-4.143-3.766a340 340 0 0 0-5.13-4.577 164 164 0 0 0 2.998-6.542 127 127 0 0 0 5.629-15.537 73.5 73.5 0 0 0 1.745-9.23c.004-.03-.04-.043-.045-.013a77 77 0 0 1-2.193 7.923c-.816 2.624-1.676 5.225-2.666 7.79-1.982 5.133-4.407 10.082-6.826 15.02a59 59 0 0 0-.877 1.883c.222-.64.447-1.28.644-1.928a108 108 0 0 0 2.593-11.415c.773-4.124 1.547-8.252 2.183-12.399.153-.997.291-1.988.39-2.992.018-.174-.241-.19-.29-.04-1.302 3.964-2.171 8.08-3.151 12.132-.927 3.83-1.76 7.68-2.807 11.479a50 50 0 0 1-4.094 10.708 55 55 0 0 1-6.602 9.234c-5.27 6.178-10.84 12.12-16.48 17.962a410 410 0 0 1-8.602 8.687 70 70 0 0 1-8.945 7.588c-3.148 2.178-6.418 4.163-9.1 6.934a50 50 0 0 0-5.39 6.751 61 61 0 0 1 1.319-3.195c.073-.162-.149-.302-.243-.142a71.6 71.6 0 0 0-4.837 9.317 67 67 0 0 0-3.163 9.857 29 29 0 0 1-1.221 4.775 5 5 0 0 1-.273.498c-.072-.173-.15-.343-.221-.507a5.4 5.4 0 0 0-.673-1.133c-.574-.747-1.098-1.526-1.72-2.236a36.6 36.6 0 0 0-4.805-4.129c-.034-.028-.084.02-.05.05a38 38 0 0 1 4.493 4.028 8 8 0 0 1 1.496 2.386c.156.43.28.87.44 1.3a8.4 8.4 0 0 0 .411 1.15 9.3 9.3 0 0 1-1.876 1.65 39 39 0 0 0-3.692 2.616 16 16 0 0 0-3.736 4.917c.016-.209.036-.416.05-.624.128-1.806.2-3.609.37-5.411a.24.24 0 0 0-.468-.064c-.644 3.48-1.55 6.904-2.115 10.4-.569 3.511-1.02 7.043-1.502 10.568-.948 6.931-1.723 13.915-2.971 20.8a58.5 58.5 0 0 1-2.517 9.723 20.7 20.7 0 0 1-4.493 7.577 11.04 11.04 0 0 1-7.566 3.432 10 10 0 0 1-7.12-3.43 32 32 0 0 1-4.885-7.116 59.6 59.6 0 0 1-3.716-8.331 76.2 76.2 0 0 1-3.936-17.788 103 103 0 0 1-.213-18.838 60.2 60.2 0 0 1 4.709-19.016c.136-.319.283-.633.423-.95.027-.03.059-.058.085-.09a28 28 0 0 1 2.013-2.227 11.15 11.15 0 0 1 5.241-3.074c1.062-.237 2.15-.343 3.212-.57a11.2 11.2 0 0 1 3.404.12 58 58 0 0 1 6.618 1.216 23.3 23.3 0 0 1 7.061 2.692c.07.043.128-.062.063-.108-3.875-2.707-8.446-3.923-13.07-4.606a26 26 0 0 0-3.445-.307c-.554-.007-1.092-.156-1.647-.138a7.5 7.5 0 0 0-1.788.306 14.1 14.1 0 0 0-5.462 3.118c-.375.34-.73.702-1.08 1.07a135 135 0 0 1 7.55-13.275c1.82-2.872 3.71-5.697 5.542-8.56 1.859-2.902 3.678-5.829 5.567-8.712a110 110 0 0 0 2.659-4.28c.044-.074-.062-.161-.123-.094-1.913 2.122-3.645 4.38-5.383 6.64a17.9 17.9 0 0 0-.334-8.103 29.5 29.5 0 0 0-3.645-8.063 69 69 0 0 0-5.218-7.307 52.6 52.6 0 0 0-7.474-7.38c-.05-.04-.118.025-.071.072 2.032 2.074 3.948 4.302 5.775 6.558a62 62 0 0 1 5.197 7.205 32.1 32.1 0 0 1 3.578 8.264 37 37 0 0 0-2.521-2.64.2.2 0 0 0-.07-.064c-.958-.904-1.941-1.78-2.907-2.643a384 384 0 0 0-6.592-5.783 69 69 0 0 0-6.404-5.07 26 26 0 0 0-1.638-1.007 8 8 0 0 0-2.005-.696c-1.25-.332-2.461-.82-3.712-1.16a65 65 0 0 0-8.798-1.45c-.03-.003-.037.048-.007.054a88 88 0 0 1 7.6 1.975 22 22 0 0 1 3.717 1.445 13 13 0 0 1 1.55 1.097c.032.023.068.04.1.062a125 125 0 0 0 2.048 6.233q.573 1.58 1.196 3.14c.301.756.587 1.55.949 2.292l-3.24-.177c-.275-.914-.646-1.807-.977-2.697q-.595-1.603-1.18-3.21c-.807-2.22-1.628-4.437-2.411-6.666-.014-.038-.073-.022-.06.016.724 2.288 1.449 4.575 2.242 6.84a273 273 0 0 0 1.186 3.334c.287.788.556 1.595.895 2.367l-1.115-.061c-6.627-.363-13.265-.863-19.902-1.006a73 73 0 0 0-9.81.379c-2.177.248-4.326.556-6.495.604a.2.2 0 0 0 .014-.092c.001-.003.002 0 .004-.01l.008-.057a.1.1 0 0 0-.003-.065l-.008-.02-.001-.017a.6.6 0 0 0-.022-.16c-.008-.072-.025-.142-.036-.214a1 1 0 0 0-.058-.218.02.02 0 0 0-.038.01 1 1 0 0 1 .032.21.6.6 0 0 1-.038.199.3.3 0 0 0-.03.05.4.4 0 0 1-.036.061l-.001.002h-.002a.16.16 0 0 0-.058.059l-.014.021a.2.2 0 0 0-.09.165.2.2 0 0 0 .026.085 21 21 0 0 1-2.49-.119c-.3-.034-.6-.086-.9-.126a2.7 2.7 0 0 0 .665-.675 7.2 7.2 0 0 0 .57-2.023c.39-1.632.777-3.264 1.22-4.882.433-1.578.9-3.146 1.364-4.715a14.3 14.3 0 0 0 .871-4.492.016.016 0 0 0-.03 0 17.6 17.6 0 0 1-1.006 4.828c-.45 1.53-.9 3.062-1.386 4.582-.487 1.522-1.022 3.027-1.554 4.535a6.6 6.6 0 0 1-.94 2.136 3.5 3.5 0 0 0-.466.609c-2.775-.412-5.533-1.033-8.292-1.505q-4.887-.837-9.8-1.521a321 321 0 0 0-39.205-3.047q-4.958-.079-9.916-.003c-2.515.038-5.034.139-7.55.107q.226-.605.432-1.219c.291-.862.427-1.754.698-2.621.529-1.693 1.088-3.371 1.537-5.088a47 47 0 0 0 1.63-10.319c.001-.017-.026-.017-.027 0a42.7 42.7 0 0 1-1.952 10.346c-.507 1.653-1.032 3.317-1.655 4.932-.302.783-.73 1.502-1.037 2.284q-.237.605-.46 1.216a1.8 1.8 0 0 0-.115.443c-.372-.01-.744-.012-1.116-.03-.23-.012-.457-.042-.685-.062.02-.348.524-.63.689-.899a3.05 3.05 0 0 0 .275-1.387c.094-1.181.148-2.366.234-3.549.002-.028-.044-.035-.05-.006-.218 1.216-.426 2.44-.679 3.65a1.3 1.3 0 0 1-.353.726l-.004.004a6 6 0 0 0 .24-.532 4.2 4.2 0 0 0 .298-1.463.047.047 0 0 0-.092-.013 6 6 0 0 1-.636 1.4q-.207.32-.442.616c-.158.198-.285.43-.46.61a5.3 5.3 0 0 1-.828.678c-5.687-.74-11.071-2.925-16.469-4.827-9.38-3.305-18.755-6.606-28.194-9.726a29 29 0 0 0-3.413-1.254c-.747-.219-1.5-.405-2.257-.576-.508-.163-1.014-.329-1.522-.49a.223.223 0 0 0-.233-.195l-.43-.02c-.625-.197-1.245-.406-1.87-.602a65 65 0 0 0-4.744-1.315c-.09-.021-.158.112-.066.157a82 82 0 0 0 3.463 1.57 121 121 0 0 0-5.277-.47 160 160 0 0 1-3.29-.274 82 82 0 0 1-5.13-.83 83.2 83.2 0 0 1-16.838-5.12c-2.78-1.194-5.505-2.508-8.235-3.81-2.664-1.272-5.36-2.493-7.995-3.826-2.153-1.088-4.098-2.563-4.097-5.192a9.82 9.82 0 0 1 2.977-6.456c3.233-3.457 7.908-5.19 12.423-6.219a62.7 62.7 0 0 1 16.556-1.4 66 66 0 0 1 16.698 2.891c2.761.855 5.383 2.015 8.086 3.02a16.7 16.7 0 0 0 4.151.994c1.488.152 2.989.11 4.482.118a188.3 188.3 0 0 1 36.182 4.012c1.167.234 2.33.455 3.5.652.144.18.279.363.436.536a18.94 18.94 0 0 0 7.822 4.728 40.8 40.8 0 0 0 11.78 2.335 18 18 0 0 0 3.463-.144q5.524 2.072 11.06 4.113c.286.15.573.302.863.44a29.4 29.4 0 0 0 5.955 2.06q5.716 2.088 11.436 4.163 4.567 1.649 9.142 3.277c.033.012.047-.04.014-.053q-9.535-3.58-19.104-7.071 1.796.34 3.622.517c1.24.118 2.488.168 3.737.189a382 382 0 0 0 11.973 4.453c4.484 1.594 8.988 3.18 13.571 4.466.042.012.058-.05.018-.064-4.475-1.638-9.017-3.094-13.522-4.647-3.971-1.37-7.922-2.797-11.88-4.207a60 60 0 0 0 7.546-.382 367 367 0 0 0 10.762 4.097c4.467 1.611 8.947 3.217 13.51 4.539.048.014.066-.058.02-.076-4.458-1.652-8.976-3.14-13.454-4.739q-5.305-1.895-10.59-3.849a16.4 16.4 0 0 0 4.464-1.05c8 3.396 16.123 6.587 24.391 9.259.054.017.074-.064.023-.083-8.117-3.056-16.254-6.045-24.328-9.214a9 9 0 0 0 .963-.477 8 8 0 0 0 1.94-1.573c3.13 1.586 6.355 3.006 9.575 4.387q5.436 2.331 10.985 4.389c1.81.67 3.628 1.343 5.464 1.947a1.28 1.28 0 0 0 .96.321.08.08 0 0 0 .022-.157q-.578-.218-1.157-.432l-.015-.015a.02.02 0 0 0-.028-.002c-4.328-1.62-8.675-3.169-12.955-4.924-4.307-1.767-8.53-3.71-12.785-5.588a5.6 5.6 0 0 0 1.017-1.637l.18-.186q3.967 1.837 7.962 3.623a23.75 23.75 0 0 0 10.487 4.61c.83.358 1.654.73 2.484 1.083.027.012.052-.027.024-.04-.71-.33-1.427-.644-2.137-.97.194.035.392.054.587.087 2.015.77 4.043 1.509 6.068 2.253 2.459.904 4.921 1.833 7.427 2.6.03.01.039-.033.012-.044-2.421-1.013-4.912-1.876-7.384-2.756-1.866-.663-3.73-1.331-5.604-1.976a44 44 0 0 0 7.26.439c1.235.354 2.471.7 3.701 1.069 1.084.324 2.168.647 3.25.98 1.11.342 2.23.766 3.368 1 .032.007.058-.041.024-.057a29 29 0 0 0-3.23-1.073 220 220 0 0 0-3.253-.972q-1.712-.493-3.434-.955c.183-.004.367-.002.55-.009 2.276-.086 4.546-.286 6.814-.503 2.452.955 4.913 1.893 7.401 2.736.034.011.047-.04.015-.053-2.341-.965-4.72-1.848-7.106-2.711a35.5 35.5 0 0 0 4.523-.595q4.486 1.387 8.922 2.928c.031.01.043-.038.013-.05a112 112 0 0 0-8.731-2.933c.37-.089.74-.178 1.1-.3a9.5 9.5 0 0 0 2.675-1.435c3.78 1.306 7.55 2.638 11.336 3.924.032.01.044-.038.014-.05-3.72-1.445-7.51-2.72-11.325-3.894a10.2 10.2 0 0 0 2.125-2.206c5.845 2.315 11.796 4.51 17.845 6.231a.025.025 0 0 0 .013-.049c-5.979-1.995-11.95-3.958-17.84-6.208a10.3 10.3 0 0 0 1.328-2.594c3.75 1.34 7.548 2.555 11.32 3.83 4.192 1.418 8.368 2.881 12.553 4.318.024.008.034-.03.01-.038-4.141-1.568-8.32-3.042-12.506-4.487-3.756-1.297-7.525-2.6-11.341-3.717a10 10 0 0 0 .29-1.056c.076-.188.161-.373.22-.565.118-.389.215-.787.302-1.188q3.048.967 6.1 1.923a10.5 10.5 0 0 0 1.68.53q8.015 2.516 16.044 4.989c2.467.757 4.933 1.522 7.427 2.185a.027.027 0 0 0 .015-.052c-4.241-1.494-8.567-2.757-12.864-4.076q-4.585-1.408-9.173-2.802a26.3 26.3 0 0 0 6.195-.24q.95-.12 1.901-.236c6.445 1.154 12.515 4.03 19.064 4.666.034.003.043-.056.008-.062-6.35-1.095-12.412-3.61-18.763-4.643 2.51-.308 5.026-.605 7.533-.949 5.084 1.381 10.183 2.728 15.303 3.957a.018.018 0 0 0 .01-.034c-5.008-1.405-10.056-2.693-15.105-3.95a146 146 0 0 0 3.165-.468 18 18 0 0 0 3.63-.932q2.325.625 4.636 1.298c3.106.904 6.168 1.934 9.257 2.89.02.006.027-.023.009-.03-4.503-1.646-9.145-2.99-13.804-4.193a10.3 10.3 0 0 0 1.501-.72 8.3 8.3 0 0 0 1.696-1.382c4.547 1.533 9.09 3.079 13.655 4.559.017.005.024-.02.008-.026-4.533-1.559-9.089-3.052-13.64-4.557a12 12 0 0 0 1.827-2.51c7.23 2.107 14.461 4.232 21.736 6.177a.014.014 0 0 0 .007-.026c-7.204-2.177-14.465-4.179-21.716-6.195.03-.053.067-.1.096-.155a63 63 0 0 0 1.57-3.153.148.148 0 0 0 .237-.022 56.4 56.4 0 0 0 3.998-8.714 46 46 0 0 0 1.645-6.95 19 19 0 0 0 .582 3.1 28.4 28.4 0 0 0 3.53 7.658 31.37 31.37 0 0 0 12.233 11.131c5.103 2.542 12.162 3.753 16.498-.896 4.59-4.92 3.483-12.055 2.38-18.056a88 88 0 0 1-1.296-11.653c-.197-4 .553-7.952 1.158-11.88a.374.374 0 0 0-.275-.393q.606-1.196 1.209-2.394c1.54-3.072 2.93-6.234 4.312-9.38a17.4 17.4 0 0 0 1.467-4.484 10 10 0 0 0-.321-4.296 15.8 15.8 0 0 0-4.679-6.965c.56.069 1.117.132 1.659.205 1.642.221 3.286.428 4.925.667a74 74 0 0 1 9.758 1.922 31.3 31.3 0 0 1 8.718 3.886c1.423.943 2.64 2.176 4.085 3.08a28.3 28.3 0 0 0 5.35 2.263c2.09.764 4.18 1.534 6.28 2.265 2.177.758 4.388 1.414 6.556 2.196.123.045.212-.16.09-.214-1.99-.884-3.96-1.811-5.931-2.735q-1.39-.698-2.818-1.307c-.816-.374-1.634-.746-2.456-1.107-.99-.435-2.012-.838-3.016-1.275 1.404-.038 2.809-.116 4.207-.167l.047-.002c1.936 1.046 3.87 2.094 5.818 3.119 2.727 1.435 5.435 2.935 8.239 4.218.038.017.07-.035.033-.058-2.65-1.569-5.426-2.935-8.158-4.354-1.912-.993-3.836-1.962-5.759-2.934a161 161 0 0 0 3.804-.197c4.149 2.2 8.288 4.453 12.516 6.491.027.013.05-.025.024-.04-4.085-2.27-8.295-4.344-12.466-6.456 1.225-.077 2.45-.163 3.675-.25l15.697-1.104c5.113-.36 10.264-.59 15.324-1.454a86 86 0 0 0 14.637-4.374l29.823-10.769c9.943-3.59 19.925-7.088 29.791-10.885 4.94-1.9 9.87-3.835 14.833-5.671 4.96-1.836 9.937-3.632 14.863-5.56 1.165-.456 2.299-.993 3.435-1.516.127-.058.036-.256-.093-.221-5.1 1.363-10.046 3.233-15.022 4.984-4.932 1.736-9.884 3.407-14.835 5.087-10.005 3.398-19.938 6.986-29.877 10.572l-29.68 10.709c-4.786 1.726-9.554 3.632-14.488 4.9a85 85 0 0 1-15.206 1.973c-10.423.738-20.844 1.413-31.242 2.451a41 41 0 0 0-2.366.309c-1.545-.908-2.842-2.179-4.303-3.208-5.44-3.83-12.062-5.274-18.556-6.07a96 96 0 0 0-5.667-.501c-1.257-.08-2.567-.224-3.854-.215-2-1.585-4.141-2.988-6.115-4.607a78 78 0 0 1-6.958-6.782l-7.273-7.675q-1.84-1.941-3.682-3.88a40 40 0 0 1-3.189-3.587c-2.082-2.796-2.94-6.238-4.643-9.247a23.4 23.4 0 0 0-2.935-4.05 13 13 0 0 0-3.05-2.64 17.8 17.8 0 0 0-.653-9.18c-1.42-3.544-4.475-5.81-7.346-8.142-1.738-1.413-3.5-2.812-5.322-4.116a48 48 0 0 0-1.777-1.204c-.426-.304-.846-.616-1.279-.912a22 22 0 0 0-2.674-1.577l-.206-.13a.036.036 0 0 0-.053.014 12 12 0 0 0-2.209-.812 17 17 0 0 0-6.023-.18c-1.996.227-3.976.574-5.944.975-3.914.797-7.789 1.803-11.736 2.429a47 47 0 0 1-6.504.67 29 29 0 0 1-6.626-.729.35.35 0 0 0-.338.124 41 41 0 0 0-2.05-.887 2.6 2.6 0 0 0-.626-1.308 27 27 0 0 0-1.045-1.382l-.07-.082a26 26 0 0 1 .156-3.475c.217-1.685.619-3.395.997-5.052.799-3.498 1.797-6.947 2.67-10.426 1.774-7.065 3.283-14.209 4.399-21.408q.456-2.944.846-5.898c.138-1.04.264-2.08.367-3.123.103-1.04.088-2.088.19-3.129.016-.156-.251-.194-.276-.037-.284 1.826-.74 3.627-1.044 5.453q-.458 2.748-.973 5.486a324 324 0 0 1-2.216 10.809q-1.206 5.388-2.62 10.725c-.935 3.51-2.1 6.963-2.99 10.482a24 24 0 0 0-.819 5.888 19 19 0 0 0 .12 2.304c-.238-.278-.471-.56-.71-.836a25.6 25.6 0 0 0-8.984-11.42c-.07-.051-.133.063-.067.114a27 27 0 0 1 8.258 10.458c-.552-.592-1.101-1.186-1.683-1.748a28 28 0 0 0-2.57-2.049c-.08-.061-.166.067-.103.135.73.797 1.374 1.685 2.087 2.5q1.08 1.237 2.07 2.55.943 1.259 1.764 2.6l.624 1.025c-.071-.025-.141-.054-.212-.079a48.3 48.3 0 0 0-10.651-2.557 10.87 10.87 0 0 0-5.618.825c-1.618.716-3.088 1.734-4.623 2.605a69 69 0 0 1-9.711 4.554c-1.888.711-3.77 1.408-5.695 2.01-1.402.44-2.879.742-4.288 1.195a58 58 0 0 1-4.023-.755 34 34 0 0 0-4.37-.873 12.68 12.68 0 0 0-7.845 2.178 73 73 0 0 0-6.917 5.089q-1.941 1.525-3.82 3.127a25 25 0 0 0-1.9 1.751c-.592.62-1.123 1.325-1.737 1.919-.052.05.024.122.077.077 1.114-.935 2.41-1.683 3.555-2.59 1.169-.926 2.326-1.863 3.514-2.763a76 76 0 0 1 6.923-4.746 13.75 13.75 0 0 1 7.453-2.31 30 30 0 0 1 4.163.628c1.462.267 2.936.473 4.414.63q2.48.265 4.974.318a51 51 0 0 0 5.116-.053c.15-.013.209-.25.038-.284-1.449-.291-2.958-.413-4.424-.618q-1.284-.178-2.57-.347l1.108-.238a62 62 0 0 0 5.186-1.35 56.4 56.4 0 0 0 9.65-4.055c1.581-.827 3.1-1.75 4.638-2.65a10.45 10.45 0 0 1 4.83-1.689 22.5 22.5 0 0 1 5.586.72c1.771.375 3.527.815 5.26 1.339 1.875.566 3.72 1.231 5.549 1.93 1.936.74 3.898 1.4 5.806 2.214a.172.172 0 0 0 .174-.297 59 59 0 0 0-2.907-1.858 23 23 0 0 0 3.03.554 27.6 27.6 0 0 0 5.822.117 98 98 0 0 0 11.61-2.143c1.935-.426 3.874-.838 5.829-1.162a28.2 28.2 0 0 1 6.06-.51c3.932.209 7.193 2.89 10.29 5.06 2.872 2.014 5.648 4.157 8.457 6.253a15.3 15.3 0 0 1 2.616 3.714c1.54 3.212 1.302 7.01.703 10.42-.682 3.889-1.613 7.738-2.387 11.61-.466 2.326-.845 4.67-1.31 6.995-.464 2.323-.92 4.66-1.31 6.996a.164.164 0 0 0 .316.087c1.207-4.18 2.274-8.415 3.362-12.625.416-1.612.842-3.226 1.256-4.844q-.012.92.005 1.84.043 2.495.17 4.989l.51 10.226q.518 10.29 1.094 20.577l1.135 20.452c.369 6.659.98 13.367.39 20.03a73 73 0 0 1-1.791 10.428c-.204.858-.404 1.72-.609 2.58a65 65 0 0 0-1.518 2.555c-1.028 1.847-1.978 3.734-2.902 5.634a15.1 15.1 0 0 1-2.75 4.425 9.17 9.17 0 0 1-4.416 2.138c-.323.076-.65.137-.977.2-.396-.098-.793-.201-1.19-.297-.01-.002-.014.013-.004.015.38.094.756.198 1.135.293-1.45.273-2.922.44-4.38.637l-6.415.865c-3.683.497-7.908 1.508-11.429-.179a11.9 11.9 0 0 1-3.965-3.02 13.8 13.8 0 0 1-1.893-3.305c-.026-2.037-.164-4.078-.24-6.102q-.378-10.093-.542-20.192-.091-5.157-.142-10.315c1.43-2.768 2.814-5.56 4.277-8.311q2.664-5.012 5.6-9.871c.009-.015-.015-.029-.024-.014q-2.996 4.819-5.757 9.78c-1.437 2.59-2.844 5.212-4.101 7.9q-.04-3.724-.069-7.446c1.72-3.07 3.3-6.227 4.972-9.32q2.951-5.463 6.058-10.842a.016.016 0 0 0-.027-.016q-3.216 5.313-6.254 10.728c-1.637 2.923-3.296 5.873-4.754 8.902l-.012-1.375q-.016-2.377-.026-4.754c1.52-2.781 2.913-5.64 4.406-8.43 1.911-3.572 3.862-7.12 5.915-10.613a.014.014 0 0 0-.024-.014c-2.118 3.497-4.208 7.014-6.197 10.587-1.405 2.523-2.84 5.068-4.104 7.68l-.025-4.682q-.006-.838-.02-1.677c1.52-2.675 2.884-5.443 4.36-8.14q2.405-4.396 4.955-8.708a.012.012 0 0 0-.02-.012q-2.715 4.281-5.207 8.698c-1.44 2.562-2.885 5.158-4.091 7.846-.037-2.505-.088-5.023.086-7.514.343-.532.646-1.097.958-1.631q.835-1.433 1.661-2.871 1.65-2.879 3.312-5.75a.016.016 0 0 0-.027-.015q-1.74 2.826-3.5 5.638-.88 1.408-1.746 2.823c-.19.308-.39.62-.586.934a32.5 32.5 0 0 1 2.443-8.81 31 31 0 0 0 1.553-4.356 16 16 0 0 0 .363-4.392.055.055 0 0 0-.11 0c-.043 2.73-1.4 5.463-2.588 7.867-.616 1.247-1.27 2.475-1.86 3.734a17.6 17.6 0 0 0-1.466 3.89 47.8 47.8 0 0 0-.466 9.703q.023 4.988.051 9.976c.082 13.383.235 26.768.689 40.145.12 3.563.342 7.129.365 10.695a36 36 0 0 1-.135 4.2l-.315-.094c-.036-.011-.051.045-.015.056l.323.103c-.018.153-.028.308-.05.46q-.09.617-.184 1.234c-.9 2.285-2.057 4.45-4.308 5.707a14.2 14.2 0 0 1-5.607 1.366c-1.685.166-3.372.318-5.061.443l-.2-.072c-.013-.004-.017.014-.006.019l.147.058c-.472.034-.943.078-1.415.106-7.593.452-15.838-.239-21.722-5.61a15.4 15.4 0 0 1-3.066-3.81 16.7 16.7 0 0 1-1.834-5.586c-.344-2.143-.453-4.326-.613-6.489q-.253-3.418-.475-6.84c-.591-9.12-1-18.25-1.28-27.385-.137-4.488-.197-8.977-.03-13.466.058-1.576.066-3.15.123-4.724 1.992-3.507 4.08-6.993 6.362-10.32.01-.015-.013-.027-.024-.014a57.4 57.4 0 0 0-6.332 10.15q.03-.794.081-1.587a24.4 24.4 0 0 1 1.787-4.312c.67-1.504 1.327-3.028 1.864-4.585.567-1.645.863-3.334 1.329-5.003a.031.031 0 0 0-.06-.016c-.574 1.676-1.425 3.285-2.117 4.916-.674 1.592-1.342 3.18-2.093 4.738-.123.255-.258.51-.397.766.116-1.106.238-2.212.346-3.32a62 62 0 0 1 .425-3.452c.018-.12-.162-.177-.189-.051l-.394 1.844.007-.039c.333-1.97.561-3.927.72-5.917.002-.037-.052-.04-.062-.009a60 60 0 0 0-1.573 5.92c-.4 1.961-.86 3.966-1.117 5.95a35.7 35.7 0 0 0-.18 6.046q.043 1.129.078 2.265a68 68 0 0 0-.261 4.526 180 180 0 0 0 .018 7.118c.188 9.537.64 19.074 1.235 28.593.29 4.659.465 9.374 1.064 14.005.054.411.12.82.19 1.227-.017.137-.03.27-.057.418-.078.41-.132.826-.206 1.239a9 9 0 0 1-.86 2.39c-.174.354-.366.698-.555 1.044a5 5 0 0 0-.129-.436c-.077-.209-.457-.278-.497 0a6.9 6.9 0 0 1-2.358 4.13 9.77 9.77 0 0 1-4.985 1.851 54.7 54.7 0 0 1-11.128.308 31.9 31.9 0 0 1-10.634-2.415 18.7 18.7 0 0 1-4.55-2.672 7.65 7.65 0 0 1-2.642-4.443c-.434-2.018-.635-4.102-.918-6.145q-.442-3.177-.864-6.357-.845-6.364-1.626-12.736c-.527-4.25-1.077-8.503-1.316-12.78a115 115 0 0 1 .134-12.608c.45-8.265 1.267-16.674.108-24.913a45 45 0 0 0-.556-3.062c-.013-.06-.113-.047-.108.015a97 97 0 0 1 .125 13.092c-.221 4.358-.742 8.702-1.078 13.053a120 120 0 0 0-.44 13.189c.148 4.444.677 8.865 1.193 13.278q.774 6.62 1.656 13.228.447 3.367.913 6.732c.279 2.015.492 4.062.883 6.06a1.6 1.6 0 0 0-.278.224l-.508.482c-.098.094-.188.2-.283.302a12.3 12.3 0 0 1-6.943 1.255 44.5 44.5 0 0 1-10.313-2.037 19.14 19.14 0 0 1-7.507-4.061 9.6 9.6 0 0 1-1.132-1.337 62 62 0 0 0 9.568 3.278c.424.117.793.326 1.195.475a5.3 5.3 0 0 0 1.105.154c.84.104 1.68.194 2.52.294 1.728.205 3.463.384 5.2.488.01.001.01-.015 0-.015a45 45 0 0 1-5.178-.636 31 31 0 0 1-2.368-.56 9 9 0 0 0-1.158-.317c-.462-.06-.904-.018-1.373-.113a55 55 0 0 1-9.49-3.107c-.03-.012-.049.033-.026.052a17.7 17.7 0 0 1-2.595-7.06q-3.152-16.188-5.605-32.512c.031-.011.055-.037.032-.071l-.054-.077q-.81-5.333-1.564-10.673c-.287-2.03-.544-4.073-.902-6.092-.356-2.013-.776-4.015-1.07-6.039-.594-4.092-1.16-8.177-1.969-12.233a.027.027 0 0 0-.053.007c.11 3.856.474 7.677.89 11.51.066.612.123 1.224.183 1.836a223 223 0 0 0-1.273-4.993c-.914-3.394-2.123-6.817-2.264-10.358a25.2 25.2 0 0 1 1.89-9.756 69 69 0 0 1 4.028-8.8 46 46 0 0 1 2.811-4.542 44 44 0 0 1 1.604-2.134c.583-.725 1.118-1.497 1.724-2.2a.086.086 0 0 0-.121-.12 21 21 0 0 0-1.804 1.516q-.894.91-1.702 1.902a43 43 0 0 0-2.824 3.906c-.148.23-.285.467-.429.7-.054.042-.112.079-.165.123a30 30 0 0 0 3.303-6.21 81 81 0 0 0 2.364-8.64 39.9 39.9 0 0 1 7.564-14.648c.97-1.222 1.99-2.408 3.007-3.59 1.018-1.184 1.97-2.42 3.048-3.55a.055.055 0 0 0-.078-.078c-1.04.963-2.163 1.83-3.181 2.815-.969.937-1.9 1.9-2.797 2.907a62 62 0 0 0-2.376 2.848c-.477-.33-.968-.638-1.457-.95q-.753-.475-1.514-.939a46 46 0 0 0-1.212-6.34q-.151-.647-.282-1.299a92 92 0 0 0 4.145 2.225q1.064.532 2.141 1.041a17 17 0 0 0 2.117.924.024.024 0 0 0 .018-.043c-.7-.414-1.485-.712-2.221-1.057q-1.042-.489-2.072-1a128 128 0 0 1-4.137-2.139 11.7 11.7 0 0 1 .1-6.175c.782-2.292 2.314-4.257 3.364-6.425 2.288-4.726 3.305-9.952 4.486-15.031a343 343 0 0 0 3.347-16.032 156 156 0 0 0 2.573-18.22.067.067 0 0 0-.13-.018c-1.223 5.303-2.11 10.676-3.205 16.006q-1.647 8.012-3.614 15.954c-.667 2.673-1.418 5.32-2.129 7.981a58 58 0 0 1-2.35 7.316c-.934 2.251-2.335 4.245-3.354 6.45a12.25 12.25 0 0 0-.94 7.235c.447 2.893 1.542 5.64 2.024 8.53a27.4 27.4 0 0 1 .123 8.321 32 32 0 0 0-1.98 4.621c-.964 2.897-1.52 5.904-2.394 8.826-.477 1.592-.923 3.231-1.513 4.783q-.915 2.405-1.95 4.765c-.045.103.058.225.152.193a3.3 3.3 0 0 0-.255.888l-.012.11a62 62 0 0 0-2.798 5.651 28.7 28.7 0 0 0-2.617 10.037c-.153 3.566.846 6.991 1.933 10.346 1.123 3.464 2.38 6.882 3.652 10.294.168 1.829.347 3.658.583 5.484.056.44.121.88.18 1.321-.034-.01-.07-.023-.102-.03a14 14 0 0 0-1.989-.235c-1.286-.12-2.57-.241-3.858-.343-2.493-.197-4.986-.393-7.483-.521-2.535-.13-5.072-.203-7.61-.112-2.38.085-4.727.402-7.096.614-1.243.111-2.518.08-3.751.271a4.4 4.4 0 0 1-.774.04c-1.064-.448-2.103-.97-3.117-1.4a25.2 25.2 0 0 0-7.561-1.878c-5.184-.486-10.412.36-15.525 1.14-8.777 1.337-18.174 3.249-25.038 9.293-1.9 1.672-3.908 3.749-4.171 6.392a4.65 4.65 0 0 0 .833 3.037 3 3 0 0 0 .625.627 76 76 0 0 0-10.437 2.077 42 42 0 0 0-10.016 3.91 14 14 0 0 0-6.31 6.894 9.51 9.51 0 0 0 .61 8.323 8.44 8.44 0 0 0 4.743 3.321c.063.08.122.154.167.208a5.2 5.2 0 0 0 1.793 1.378 18.8 18.8 0 0 0 5.58 1.27 83 83 0 0 0 6.148.6c1.264.081 2.544.185 3.815.146-.246.177-.494.35-.73.543-3.632 2.972-7.194 8.814-3.632 13.176 1.704 2.086 4.538 3.07 6.895 4.193 2.814 1.341 5.622 2.694 8.445 4.017a89.4 89.4 0 0 0 17.142 6.284 71 71 0 0 0 8.91 1.533c2.091.224 4.218.396 6.336.43 1.42.25 2.844.485 4.266.693 1.958.286 3.944.545 5.92.864 2.754 1.027 5.521 2.017 8.247 3.062 6.271 2.403 12.615 4.612 18.943 6.866l9.486 3.378a69 69 0 0 0 9.262 2.833c6.368 1.304 13.006.602 19.456.589a319 319 0 0 1 39.57 2.385q9.905 1.219 19.718 3.07a35.5 35.5 0 0 0 9.597.862c3.206-.273 6.356-.883 9.579-1.014 6.598-.267 13.225.316 19.81.674 5.583.303 11.18.72 16.774.891-.005.038.016.08.059.064a.4.4 0 0 0 .091-.06c1.036.03 2.072.07 3.108.08 1.117.01 2.184-.024 3.264-.118a37 37 0 0 0 4.371 3.01 19.1 19.1 0 0 1 .349 6.518 38 38 0 0 1-.745 4.038c-.059.245-.142.479-.222.715-1.685 2.272-3.274 4.62-4.818 6.986a155 155 0 0 0-10.052 17.197 63.8 63.8 0 0 0-5.994 18.905 96.5 96.5 0 0 0-.516 20.084 82.2 82.2 0 0 0 3.377 18.527 55.4 55.4 0 0 0 8.104 16.758 15.85 15.85 0 0 0 6.42 5.425 10.7 10.7 0 0 0 8.534-.362c5.818-2.646 8.52-9.028 10.135-14.814 1.923-6.892 2.667-14.08 3.67-21.146.719-5.055 1.514-10.106 2.104-15.178a16.47 16.47 0 0 1 5.446-9.344 36 36 0 0 1 3.584-2.453 9.4 9.4 0 0 0 3.13-3.157 16.3 16.3 0 0 0 1.37-4.397 104 104 0 0 1 2.717-9.982q.622-1.894 1.265-3.797c2.088-2.549 4.022-5.218 6.278-7.636a35.5 35.5 0 0 1 4.076-3.784c1.544-1.206 3.2-2.27 4.837-3.344a67.7 67.7 0 0 0 9.3-7.336c2.94-2.766 5.766-5.658 8.584-8.548q8.651-8.874 16.85-18.18a73 73 0 0 0 7.058-9.128c.142-.226.265-.462.401-.69a.5.5 0 0 0 .125-.047 10.16 10.16 0 0 1 5.868-1.102 28.6 28.6 0 0 1 6.502 1.535 39.6 39.6 0 0 0 14.15 1.555c4.834-.291 9.636-1.076 14.435-1.706q7.378-.97 14.766-1.864 14.85-1.796 29.733-3.284 14.81-1.48 29.648-2.657c9.955-.788 19.923-1.412 29.843-2.588a78 78 0 0 0 3.43-.477c.199-.032.138-.328-.046-.337M280.622 94.928c.326-1.38.635-2.762.894-4.153.035-.19.065-.382.098-.572q.517.606 1.045 1.205c-.562 1.677-1.131 3.352-1.697 5.028a17 17 0 0 0-.34-1.508m.367 1.679q.912-2.557 1.71-5.152c.225.257.453.51.67.774.177.212.328.442.495.661q-.9 2.527-1.71 5.083-.368 1.15-.722 2.309c-.114-1.225-.23-2.46-.443-3.675m.88 9.718c-.11-1.784-.218-3.571-.376-5.353.298-.979.583-1.962.879-2.939.511-1.693 1.028-3.386 1.539-5.08.51.672.979 1.372 1.423 2.088a367 367 0 0 0-1.705 5.917c-.587 2.09-1.218 4.18-1.704 6.298zm.072 1.206c.71-2.144 1.26-4.349 1.855-6.527a371 371 0 0 0 1.569-5.912c.156.253.321.5.467.76.211.375.405.757.592 1.142-1.38 4.708-2.82 9.395-4.268 14.082zm.623 10.268q-.182-3.09-.375-6.178c1.6-4.812 3.003-9.698 4.244-14.607.495 1.022.918 2.076 1.344 3.129-1.787 6.152-3.562 12.313-5.164 18.515zm.81 7.274c1.55-6.63 3.099-13.253 4.906-19.82a.008.008 0 0 0-.015-.004c-1.87 6.541-3.603 13.15-4.939 19.824a3 3 0 0 1-.173-.012l-.074-.009-.1-.013-.354-6.18c1.847-6.183 3.519-12.42 5.176-18.656a37 37 0 0 0 1.724 3.817c1.561 2.869 4.018 5.163 6.241 7.511q3.506 3.705 7.018 7.403c2.26 2.384 4.48 4.821 6.86 7.087a75 75 0 0 0 7.338 5.839 21.2 21.2 0 0 1 6.028 6.1 9.9 9.9 0 0 1 1.346 3.804 7.6 7.6 0 0 1-.056 1.985c-.157-.095-.326-.18-.522-.28a9 9 0 0 1-1.02-.708 45 45 0 0 0-2.257-1.508 27 27 0 0 0-4.765-2.387c-.951-.35-1.89-.668-2.813-1.082a2.5 2.5 0 0 0-1.324-.295 3.8 3.8 0 0 1-.852.124q-.412-.03-.825-.058c-2.07-.14-4.122-.49-6.177-.764-.056-.008-.07.09-.013.1a41 41 0 0 1 5.888 1.138 5.1 5.1 0 0 1 1.441.53c.201.154.287.314.538.415a2.8 2.8 0 0 0 .672.131c.5.066.994.048 1.491.152.485.1.962.238 1.435.38a29 29 0 0 1 5.02 1.893 14 14 0 0 1 2.35 1.48 4.5 4.5 0 0 1 .989.956 4 4 0 0 0 .567.676 14 14 0 0 1-.442 1.48c-.623 1.709-1.385 3.367-2.074 5.05-.717 1.75-1.433 3.5-2.117 5.263-1.395 3.595-2.629 7.246-4.034 10.837-.067.172.22.294.3.127.848-1.78 1.73-3.544 2.618-5.304a34.3 34.3 0 0 0-1.471 7.93 54 54 0 0 0-.164 5.4 13.9 13.9 0 0 0-4.189-3.432 20.5 20.5 0 0 0-6.465-2.306 5.4 5.4 0 0 0-5.425 2.115 7.4 7.4 0 0 0-1.26 3.205 9.7 9.7 0 0 0-.038 2.073 8 8 0 0 0 .263 1.987.028.028 0 0 0 .052 0c.283-1.004.213-2.13.4-3.16a9.5 9.5 0 0 1 .857-2.88 4.9 4.9 0 0 1 1.798-1.942 4.18 4.18 0 0 1 2.943-.328 21.8 21.8 0 0 1 5.665 2.065 13 13 0 0 1 4.535 3.583 13 13 0 0 1 .976 1.482c.052.718.112 1.438.198 2.16.277 2.32.826 4.753 1.231 7.202a17 17 0 0 0-2.926-3.494 16.5 16.5 0 0 0-4.214-2.853 20 20 0 0 0-5.13-1.445 14.9 14.9 0 0 0-5.806.326.035.035 0 0 0 .01.069 18 18 0 0 1 3.157.15 25 25 0 0 1 3.224.503 17.8 17.8 0 0 1 5.784 2.797 17.2 17.2 0 0 1 4.145 4.088c.567.793 1.078 1.627 1.613 2.441l.575.87a15.1 15.1 0 0 1-1.225 7.845 8.4 8.4 0 0 1-5.801 4.73 14.34 14.34 0 0 1-8.094-.983 28.1 28.1 0 0 1-12.22-9.626 32.8 32.8 0 0 1-4.168-7.712 41 41 0 0 1-2.246-7.366 104.6 104.6 0 0 0 .029-16.9c1.429-3.55 2.918-7.074 4.597-10.512.01-.02-.02-.038-.03-.018a92 92 0 0 0-4.577 10.358l-.087-1.565-.164-2.957c.561-1.465 1.103-2.939 1.719-4.376q1.684-3.935 3.699-7.713c.006-.011-.011-.021-.017-.01a96 96 0 0 0-3.946 7.703c-.51 1.12-1.03 2.266-1.509 3.43l-.14-2.528c.696-1.62 1.312-3.284 2.008-4.889q1.558-3.589 3.276-7.105c.014-.027-.026-.05-.04-.024a135 135 0 0 0-3.536 7.093c-.513 1.115-1.053 2.252-1.548 3.406.031-1.217-.004-2.434-.032-3.652 1.253-3.234 2.754-6.384 4.145-9.549.007-.016-.016-.03-.024-.014-1.137 2.329-2.316 4.64-3.394 6.996a58 58 0 0 0-.739 1.677c-.002-.216-.008-.432-.007-.648a23 23 0 0 1 .662-5.49 24.4 24.4 0 0 1 1.949-5.222 25 25 0 0 1 1.45-2.47c.556-.836 1.003-1.742 1.641-2.52a.02.02 0 0 0-.028-.028 17 17 0 0 0-2.274 2.04 21 21 0 0 0-1.72 2.434 22.2 22.2 0 0 0-2.344 5.4q-.061.217-.12.44l-.125-2.178c.071-.408.142-.816.181-1.23.095-.988.134-1.98.249-2.968a28.5 28.5 0 0 1 1.261-5.658 32 32 0 0 1 2.342-5.337 46 46 0 0 1 3.093-5.056c.02-.026-.02-.054-.043-.033a22.3 22.3 0 0 0-3.826 4.636q-.338.568-.647 1.153c-.115.113-.227.228-.346.336a4.2 4.2 0 0 1-1.125.746 3.6 3.6 0 0 1-.59.191 3 3 0 0 1-.599.092 4 4 0 0 1-.307.003m-43.382 77.171c.021-.278.02-.558.033-.836q.21.466.453.904a11.5 11.5 0 0 0 3.169 3.671 9 9 0 0 0 1.042.667q-2.547-.771-5.098-1.528a22 22 0 0 0 .4-2.878m-48.054 4.224a10 10 0 0 0 1.578-2.52q.223-.459.412-.94.252.75.573 1.48a15.7 15.7 0 0 0 3.02 4.401c.435.457.892.877 1.36 1.281a752 752 0 0 0-7.408-3.221q.235-.24.465-.48m-39.85-3.81c.15-.12.3-.24.444-.369l.309-.276a9.1 9.1 0 0 0 2.455 4.261 15 15 0 0 0 2.787 2.057c-1.203-.434-2.402-.878-3.606-1.31q-3.156-1.13-6.317-2.25a5.65 5.65 0 0 0 3.928-2.114m-28.344-132c.485.312.968.628 1.464.92a52 52 0 0 0-1.474 1.94l-.088-.056q-.257-.164-.517-.324l-.814-.504c.031-.555.05-1.11.04-1.667a18 18 0 0 0-.071-1.272q.726.488 1.46.963m-1.439 2.103.761.484q.248.16.5.315l.098.061c-.352.497-.699.998-1.03 1.509-.296.455-.572.923-.845 1.393a26 26 0 0 0 .516-3.762m-3.154 104.492a42 42 0 0 0-3.935-3.498 44 44 0 0 0-3.909-2.827c.858.125 1.716.249 2.568.404.115.02.23.048.346.07a65 65 0 0 1 2.431 1.726c.593.443 1.169.906 1.742 1.374q.162.133.322.274c.142.826.291 1.651.435 2.477m-.515-2.934-.032-.027a30 30 0 0 0-1.695-1.356 27 27 0 0 0-2.123-1.42 14 14 0 0 1 1.81.48c.439.155.864.345 1.304.495a2.3 2.3 0 0 0 .433.095c.099.578.203 1.155.303 1.733m-5.307-27.377a5 5 0 0 0 .955-.07c.135.982.29 1.961.431 2.942l-.113-.126a19 19 0 0 0-1.648-1.61 21 21 0 0 0-1.636-1.282c.67.058 1.34.126 2.011.146m-2.633-.201q.15.121.303.239.88.679 1.712 1.42c.532.474 1.042.97 1.544 1.476q.279.28.552.565c.143.987.297 1.973.444 2.96-1.117-1.219-2.334-2.36-3.507-3.478a39.5 39.5 0 0 0-3.782-3.427c.911.084 1.822.169 2.734.245m-82.879 10.903c.67-1.946 2.491-3.49 4.041-4.748a33.3 33.3 0 0 1 11.085-5.664 84 84 0 0 1 12.544-2.696c4.795-.73 9.678-1.499 14.541-1.163a27 27 0 0 1 7.945 1.907c2.463.951 4.927 1.661 7.563.987.02-.005.026-.022.041-.03 1.99-.12 3.971-.37 5.962-.476a103 103 0 0 1 15.212.626l.795.071q.596.487 1.15 1.03 1.464 1.433 2.923 2.872c1.284 1.264 2.51 2.589 3.76 3.89q.919 6.135 1.918 12.256c.227 1.383.473 2.762.706 4.144l-.018-.012a9.5 9.5 0 0 0-2.349-.943 42 42 0 0 0-5.482-.904q-6.307-.888-12.635-1.618-6.317-.728-12.652-1.292c-2.047-.182-4.099-.35-6.155-.365a37.6 37.6 0 0 0-5.798.468c-1.725.254-3.462.485-5.203.566a8 8 0 0 1-2.473-.212 5.5 5.5 0 0 1-.765-.279 8 8 0 0 0-.688-.642 14.4 14.4 0 0 0-3.894-2.104 32.1 32.1 0 0 0-9.029-1.816c-3.628-.292-7.291-.343-10.93-.299a108 108 0 0 0-10.794.647l-.028-.033c-.15-.14-.355-.205-.509-.347a3.8 3.8 0 0 1-.735-1.127 3.6 3.6 0 0 1-.049-2.694m-13.673 31.133a23.7 23.7 0 0 1-5.545-.95 5.3 5.3 0 0 1-1.647-.972c1.028.274 2.083.482 3.11.678 2.023.387 4.044.785 6.07 1.156.898.164 1.799.345 2.7.52-1.565-.113-3.129-.25-4.688-.432m8.66-.659c-.958-.242-1.93-.419-2.898-.61a743 743 0 0 0-5.818-1.14c-1.787-.34-3.58-.659-5.361-1.025a12.2 12.2 0 0 1-4.46-1.617c-2.197-1.489-2.835-4.346-2.35-6.835A10.9 10.9 0 0 1 6.98 170a34.6 34.6 0 0 1 9.016-3.846 73 73 0 0 1 10.607-2.33 114 114 0 0 1 21.997-.784 37.7 37.7 0 0 1 9.49 1.451 18.3 18.3 0 0 1 4.103 1.867 21.3 21.3 0 0 1 3.784 2.743.228.228 0 0 0 .356-.275 13 13 0 0 0-.625-1.144q.18.062.356.116a11.8 11.8 0 0 0 4.586.36c1.687-.165 3.359-.464 5.05-.587a45 45 0 0 1 6.273.046c8.424.566 16.846 1.602 25.21 2.74 1.264.171 2.533.34 3.8.52 1.444 1.001 2.867 2.032 4.234 3.14 1.396 1.13 2.675 2.38 3.996 3.588.158.904.322 1.807.482 2.71a62 62 0 0 0-5.311-4.7 76 76 0 0 0-6.648-4.781c-.022-.014-.04.02-.02.034q3.491 2.33 6.754 4.98c1.824 1.484 3.526 3.091 5.261 4.67.504 2.84 1.017 5.678 1.563 8.51a22.4 22.4 0 0 0 2.114 6.603c-2.23-.633-4.513-1.116-6.783-1.547q-4.639-.883-9.32-1.511a174 174 0 0 0-18.688-1.445q-2.36-.062-4.722-.06a23.3 23.3 0 0 1-4.728-.3c-2.851-.59-5.498-2.024-8.234-2.985a67.57 67.57 0 0 0-34.68-2.626 32.8 32.8 0 0 0-11.27 4.031 2.8 2.8 0 0 0-.766-.64 8.3 8.3 0 0 0-1.414-.431m228.237 55.285c-.285-.812-.66-1.602-.981-2.392q-.656-1.614-1.277-3.243a138 138 0 0 1-2.127-5.96c.486.32 1.011.592 1.5.905q.706.454 1.384.945.98 2.502 2.013 4.982.628 1.503 1.268 3c.226.53.45 1.06.685 1.586a6 6 0 0 0 .158.32q-1.311-.074-2.623-.143m4.828.272c-.605-.04-1.21-.07-1.816-.106q-.241-.614-.502-1.22-.727-1.701-1.468-3.397-1.13-2.575-2.315-5.123c1.235.907 2.416 1.888 3.585 2.879.56 1.235 1.15 2.46 1.75 3.673.416.841.828 1.685 1.253 2.522q.214.42.43.837c-.306-.02-.611-.045-.917-.065m1.348.095q-.608-1.258-1.25-2.5a179 179 0 0 0-2.244-4.249q.356.303.713.604c1.02.863 2.062 1.698 3.093 2.547l.05.095c.255.497.52.988.784 1.48s.54.977.811 1.464l.405.726c-.786-.065-1.574-.114-2.362-.167m2.869.213c-.148-.3-.329-.59-.492-.878q-.62-1.093-1.254-2.175l-.108-.18c.934.766 1.858 1.546 2.799 2.306.492.396.986.8 1.484 1.202-.806-.117-1.617-.2-2.43-.275m105.668-26.209c.615-.983 1.24-1.962 1.838-2.955.781.543 1.565 1.082 2.34 1.635.452.322.897.654 1.344.985a10.6 10.6 0 0 0-5.522.335m6.016-.248a44 44 0 0 0-1.675-1.23 40 40 0 0 0-2.441-1.583 35 35 0 0 0 1.44-2.616c.147-.302.286-.608.433-.911a345 345 0 0 0 5.048 4.776c1.176 1.085 2.335 2.218 3.536 3.296-2.11-.594-4.179-1.345-6.34-1.732"/><path fill="currentColor" d="M162.913 108.117a43 43 0 0 1-3.654-4.893 10 10 0 0 0-.747-1.178c-.323-.361-.71-.65-1.027-1.025q-.94-1.11-1.846-2.248c-1.274-1.6-2.452-3.285-3.58-4.99a.043.043 0 0 0-.075.044c1.016 1.753 2.083 3.473 3.152 5.194q.769 1.24 1.572 2.458c.287.435.487.935.778 1.359a9 9 0 0 0 .963 1.011c1.359 1.447 2.763 2.842 4.099 4.314a45 45 0 0 0 4.25 4.35.055.055 0 0 0 .078-.078c-1.257-1.494-2.667-2.857-3.963-4.318m15.981-2.738c1.406-2.332 2.676-4.747 3.94-7.163.01-.02-.02-.038-.03-.018a131 131 0 0 1-2.692 4.482 14 14 0 0 0-1.18-1.872l.092-.161a40 40 0 0 0 2.074-4.103c.007-.02-.022-.03-.033-.013-.852 1.285-1.575 2.67-2.351 4.004a16 16 0 0 0-1.287-1.459c-.036-.036-.088.018-.055.055a26 26 0 0 1 1.244 1.57c-.527.9-1.068 1.792-1.608 2.684l-.067-.07c-.5-.529-1.014-1.042-1.521-1.562a337 337 0 0 0 2.832-5.061.04.04 0 0 0-.067-.04 174 174 0 0 1-2.957 4.903c-.468-.477-.928-.96-1.399-1.435-.028-.03-.07.014-.044.044.448.514.905 1.02 1.356 1.53-.472.758-.94 1.517-1.421 2.27-.57.89-1.152 1.775-1.733 2.66-.557-.571-1.122-1.134-1.686-1.697q.85-1.432 1.665-2.883c.507.576 1.023 1.143 1.54 1.71a.031.031 0 0 0 .049-.038 16.4 16.4 0 0 0-1.45-1.916q1.185-2.119 2.331-4.244a.012.012 0 0 0-.02-.012c-.839 1.346-1.663 2.7-2.49 4.053a10 10 0 0 0-.667-.707q-.46-.428-.934-.84a.04.04 0 0 0-.055.055q.405.46.796.93c.227.275.475.534.713.8-.43.703-.866 1.4-1.292 2.105q-.221.364-.444.727c-.17-.169-.335-.34-.505-.509-.043-.043-.106.022-.066.066q.25.278.503.555-.561.918-1.119 1.84a62 62 0 0 0-1.948-1.94c.905-1.44 1.77-2.906 2.651-4.357.015-.024-.021-.044-.037-.021-.954 1.373-1.931 2.737-2.869 4.125-.076-.072-.147-.151-.224-.223a.043.043 0 0 0-.06.06c.079.08.151.166.23.247a63 63 0 0 0-1.353 2.09 93 93 0 0 1-1.107-1.29q-.313-.373-.628-.745.889-1.364 1.74-2.754c.018-.03-.028-.057-.047-.028q-.905 1.336-1.768 2.694c-1.649-1.957-3.309-3.905-4.905-5.906-.014-.017-.043.005-.03.024a69 69 0 0 0 4.76 6.163c-.287.456-.579.908-.854 1.373-.017.029.025.052.044.026.303-.435.589-.879.88-1.32.174.198.342.402.52.598.42.46.854.907 1.282 1.36a41 41 0 0 0-1.115 1.923c-.023.042.038.096.07.054a41 41 0 0 0 1.265-1.742c.503.532 1 1.071 1.506 1.6.168.176.328.37.491.554q-.346.605-.676 1.218a.049.049 0 0 0 .084.049c.255-.36.489-.737.737-1.103.53.607 1.051 1.23 1.611 1.806l-.01.015c-.031.054.049.12.09.069l.003-.005a10 10 0 0 0 .75.691.203.203 0 0 0 .287-.287 11 11 0 0 0-.75-.783q.661-.855 1.29-1.738.768.917 1.52 1.851-.448.707-.892 1.415c-.037.059.051.105.091.053.324-.423.636-.854.95-1.284l.256.316c.09.113.29-.039.202-.156-.096-.128-.2-.25-.298-.377q.673-.929 1.318-1.878.213.228.428.455a3 3 0 0 0 .712.654.095.095 0 0 0 .128-.128 2.8 2.8 0 0 0-.579-.704q-.254-.269-.512-.533.898-1.332 1.744-2.697.306.366.594.75c.204.27.402.543.607.811l.004.005a96 96 0 0 0-1.357 2.294c-.036.063.053.11.095.055.514-.675 1-1.368 1.475-2.068a1.8 1.8 0 0 0 .511.489.213.213 0 0 0 .31-.238 1.9 1.9 0 0 0-.48-.756q.578-.877 1.127-1.773l.187.206a2.7 2.7 0 0 0 .767.68c.049.023.128-.018.103-.08a2.4 2.4 0 0 0-.547-.745q-.167-.178-.336-.354m-11.438 3.614c-.134-.13-.279-.253-.407-.389a68 68 0 0 1-1.576-1.74q.709-1.03 1.374-2.09a74 74 0 0 1 1.9 2.024q-.658 1.09-1.29 2.195m1.902 1.752c-.57-.536-1.164-1.052-1.733-1.59.462-.687.927-1.371 1.369-2.074.52.586 1.04 1.172 1.545 1.77q-.602.94-1.18 1.894m1.33-2.124a58 58 0 0 0-1.58-1.728q.568-.912 1.117-1.84c.538.598 1.075 1.196 1.62 1.786q-.583.888-1.157 1.782m1.746 2.11a51 51 0 0 0-1.508-1.843q.61-.863 1.194-1.747.062.07.125.138l1.37 1.46.045.047zm3.176-5.063q-.259-.211-.515-.427c-.02-.015-.046.01-.028.028.168.162.32.337.474.51q-.855 1.374-1.715 2.745l-1.384-1.442-.17-.172a102 102 0 0 0 3.058-5c.458.517.91 1.04 1.375 1.552l.155.17c-.18.294-.35.594-.532.887-.237.385-.48.766-.718 1.15m1.72 1.508a12 12 0 0 0-.606-.586c-.255-.226-.524-.437-.789-.653.271-.436.544-.872.807-1.312.136-.227.26-.461.395-.69l1.008 1.107.3.328q-.562.9-1.115 1.806m1.29-2.088-.124-.13-1.21-1.28a124 124 0 0 0 1.545-2.695q.636.882 1.222 1.792c-.479.77-.954 1.543-1.434 2.313m10.769-46.732a101.6 101.6 0 0 0-19.082-.933c-3.134.103-6.27.207-9.39.553-.745.083-1.493.153-2.233.276-.379.062-.76.122-1.135.2a12 12 0 0 0-1.3.467c-.724.237-1.497.358-2.235.55-.817.21-1.628.444-2.438.683q-5.195 1.535-10.239 3.549c-.022.01-.013.046.01.038a83 83 0 0 1 9.058-2.636c1.575-.359 3.16-.673 4.747-.972.374-.07.756-.168 1.135-.207.394-.041.79.009 1.184-.027a19 19 0 0 0 2.377-.44 76.6 76.6 0 0 1 18.864-1.865c3.567.094 7.125.404 10.667.833.04.005.049-.063.01-.07m.027-1.484c-4.449-.714-8.977-.701-13.464-.968-1.146-.068-2.29-.313-3.434-.346a10 10 0 0 0-1.54.158c-.628.082-1.262.102-1.894.122q-3.433.105-6.859.375c-2.534.2-5.056.512-7.57.881-.026.004-.02.049.006.046 4.503-.488 9.037-.82 13.565-.949a22.6 22.6 0 0 1 3.31.088 18.7 18.7 0 0 0 3.435-.171 50 50 0 0 1 6.74.167c2.569.184 5.127.487 7.696.666.039.003.049-.062.01-.069m-62.453 65.336c-1.79-1.833-3.863-3.368-5.434-5.416-.75-.977-1.456-1.977-2.229-2.936-.835-1.037-1.717-2.036-2.522-3.097-.094-.124-.303-.014-.216.126.682 1.099 1.352 2.202 2.135 3.233a24 24 0 0 0 2.634 2.845c1.845 1.769 3.468 3.845 5.547 5.356.066.048.14-.055.085-.11m2.433-1.649c-2.291-1.968-4.628-3.871-6.827-5.947a.04.04 0 0 0-.055.056 40.5 40.5 0 0 0 6.844 5.94c.03.02.065-.025.038-.049m2.563 1.734c-.036-.01-.071-.023-.109-.028a.9.9 0 0 1-.325-.12.85.85 0 0 1-.311-.337c-.028-.053-.108-.006-.081.048a.94.94 0 0 0 .342.373 1 1 0 0 0 .23.106 1 1 0 0 0 .124.028.4.4 0 0 0 .13-.01.031.031 0 0 0 0-.06m77.531-24.569c.678-.87 1.348-1.745 2.04-2.599.03-.038-.022-.093-.056-.055-.731.82-1.472 1.646-2.19 2.49-.843-.673-1.681-1.35-2.532-2.014-.043-.033-.104.026-.061.061.844.675 1.7 1.334 2.552 1.999a31 31 0 0 0-2.475 3.263c-.52-.524-1.056-1.033-1.589-1.543.256-.262.518-.518.75-.802.338-.412.657-.836.97-1.267.016-.021-.019-.048-.036-.028-.352.402-.709.799-1.061 1.2-.238.271-.46.555-.685.837q-1.448-1.387-2.918-2.751c-.044-.041-.11.024-.067.066q1.45 1.395 2.913 2.773c-.086.108-.177.213-.264.322-.02.025.012.06.036.036.1-.097.188-.206.286-.305.54.506 1.079 1.015 1.632 1.507h.001l-.012.018a.035.035 0 0 0 .055.043c.947-1.017 1.818-2.105 2.675-3.204.463.36.92.73 1.387 1.086.021.016.049-.02.028-.037-.454-.372-.92-.73-1.379-1.096"/><path fill="currentColor" d="M228.829 89.328a8.8 8.8 0 0 0-2.026-1.67 191 191 0 0 0-2.43-1.77c-1.604-1.144-3.223-2.266-4.83-3.406-.025-.018-.057.023-.033.043 1.547 1.217 3.08 2.452 4.63 3.666.732.574 1.471 1.137 2.212 1.7.334.253.681.553 1.041.831a70 70 0 0 1-1.628 3.252l-.729-.559-1.327-1.016c.199-.376.405-.748.598-1.128.014-.026-.025-.05-.04-.023-.205.368-.419.732-.628 1.098l-.746-.571c-1.467-1.137-2.905-2.313-4.357-3.47-.023-.019-.056.013-.033.033 1.392 1.193 2.798 2.371 4.176 3.58q.4.355.798.712c-.566.983-1.143 1.96-1.741 2.924-.388-.337-.77-.682-1.16-1.016-.188-.162-.38-.32-.57-.482q.45-.712.888-1.426c.015-.026-.024-.05-.04-.024-.304.466-.617.923-.93 1.38-1.277-1.093-2.563-2.174-3.932-3.15-.03-.021-.065.025-.038.049 1.255 1.126 2.56 2.193 3.85 3.279q-.99 1.439-2.037 2.83l-1.93-1.66c.1-.142.205-.282.305-.425.01-.015-.013-.033-.024-.02-.108.136-.223.267-.331.403l-1.591-1.368c-.02-.016-.047.01-.028.027q.774.714 1.55 1.425c-.756.94-1.528 1.865-2.3 2.792-.83-.673-1.666-1.338-2.518-1.985-.021-.016-.048.019-.029.037.79.721 1.595 1.424 2.407 2.119-.383.46-.756.927-1.141 1.385q-.995 1.184-2.006 2.355a11.7 11.7 0 0 0-1.884 2.376c-.024.051.027.117.083.082a10 10 0 0 0 2.092-2.168q1.03-1.217 2.023-2.465c.36-.453.703-.918 1.053-1.378q.928.792 1.863 1.576c-1.831 2.29-3.726 4.533-5.611 6.797a.047.047 0 0 0 .066.067 52.5 52.5 0 0 0 5.863-6.596l.428.36c.451.377.907.75 1.355 1.13q-.983 1.324-2.001 2.62c-.196-.168-.386-.345-.577-.518a.027.027 0 0 0-.039.04c.182.187.368.373.547.566q-1.22 1.553-2.46 3.091a23 23 0 0 0-1.826-1.462c-.036-.026-.082.033-.047.061a16 16 0 0 1 1.713 1.601l-.406.507c-.034.042.021.101.06.06.15-.152.288-.316.435-.47q.359.392.711.789c.133.147.26.3.396.445a1.8 1.8 0 0 0 .437.381.063.063 0 0 0 .092-.07 1.5 1.5 0 0 0-.264-.479 6 6 0 0 0-.389-.465 11 11 0 0 0-.802-.798q1.332-1.426 2.554-2.947c.09.106.186.207.267.32.069.097.142.192.202.296s.111.21.176.311a1.9 1.9 0 0 0 .563.646.4.4 0 0 0 .382.004q-.137.179-.263.365c-.037.055.043.111.089.068.313-.294.588-.637.876-.956q.435-.48.83-.995c.27-.347.544-.711.785-1.093l.383.378c.325.316.687.709 1.173.679.076-.005.168-.069.157-.157a1.35 1.35 0 0 0-.662-.9c-.244-.183-.5-.353-.751-.527a4 4 0 0 0 .22-.507c.008-.023-.023-.037-.04-.023a5 5 0 0 0-.38.39q-.256-.178-.511-.36c-.425-.295-.83-.615-1.232-.937.35-.49.701-.978 1.042-1.473.282-.41.55-.827.824-1.241.31.296.63.583.932.887q.436.44.87.886c-.158.178-.302.37-.475.536a.04.04 0 0 0 .028.066 1.2 1.2 0 0 0 .786-.257c.127.128.25.26.38.385a.1.1 0 0 0 .024.074 3 3 0 0 0 .595.504c.378.254.811-.317.484-.627a13 13 0 0 0-1.015-.84c.141-.198.27-.409.392-.61.403-.66.772-1.34 1.15-2.014a1.62 1.62 0 0 0 .843.504.205.205 0 0 0 .25-.25 1.93 1.93 0 0 0-.711-.925c.095-.173.2-.34.293-.514.406-.753.775-1.525 1.148-2.294a2.54 2.54 0 0 0 1.024.649.135.135 0 0 0 .15-.196 2.5 2.5 0 0 0-.808-.86l-.117-.09q.787-1.655 1.51-3.34a4.6 4.6 0 0 0 1.242.72.114.114 0 0 0 .128-.166m-13.302 8.569q-.942-.78-1.891-1.551 1.091-1.443 2.136-2.92l1.877 1.725q-1.043 1.387-2.122 2.746m3.152 3.065.575.57c-.294.376-.567.773-.84 1.152q-.367.511-.728 1.027c-.101.145-.21.286-.317.428a.36.36 0 0 0-.025-.295 1.7 1.7 0 0 0-.643-.534c-.22-.12-.436-.232-.646-.37-.121-.08-.23-.176-.344-.266a69 69 0 0 0 1.973-2.613c.338.293.677.586.995.901m.118-2.943c-.382.545-.777 1.08-1.172 1.616-.47-.383-.933-.775-1.4-1.163l-.381-.314a76 76 0 0 0 2.01-2.819l.687.632c.34.31.666.636 1 .953-.248.365-.491.734-.744 1.095m-.089-2.216-.737-.634q.988-1.452 1.922-2.93.3.25.6.503c.38.325.764.647 1.142.978a97 97 0 0 1-1.906 2.928c-.339-.283-.686-.556-1.02-.845m3.233 2.606c-.302-.225-.607-.448-.902-.677-.383-.297-.746-.616-1.118-.925a81 81 0 0 0 1.856-2.953c.298.265.595.533.871.82.352.364.668.757.99 1.148a20 20 0 0 1-1.696 2.587m2.57-4.137c-.176.311-.352.629-.529.946-.324-.22-.67-.415-.956-.623a18 18 0 0 1-1.146-.922 80 80 0 0 0 1.67-2.977l1.148 1.023c.27.24.54.484.811.723-.33.611-.654 1.226-.997 1.83m4.079-9.846a9.3 9.3 0 0 0-2.175-1.535q-1.145-.708-2.31-1.383-2.366-1.377-4.788-2.659c-.062-.033-.117.06-.055.095q2.396 1.333 4.681 2.841 1.126.744 2.229 1.523a11 11 0 0 0 2.224 1.45c.202.078.311-.197.194-.332m-4.663-5.312a22.7 22.7 0 0 0-5.93-3.502c-.023-.01-.043.023-.02.034q1.543.763 3.006 1.675c.972.607 1.92 1.257 2.898 1.855.037.023.081-.032.047-.062m34.897 20.787a57.5 57.5 0 0 0-6.365-5.145c-.032-.024-.073.029-.043.055a57.5 57.5 0 0 0 6.342 5.176c.052.035.11-.043.066-.086m4.915-.618c-1.453-1.11-3.018-2.07-4.496-3.149a97 97 0 0 1-4.464-3.435c-.03-.025-.074.017-.044.044a70 70 0 0 0 4.259 3.49 36 36 0 0 0 4.682 3.158.063.063 0 0 0 .063-.108m1.993-2.46q-.212-.186-.426-.367c-.137-.114-.285-.217-.427-.324-.295-.222-.618-.412-.926-.616-.04-.027-.09.037-.052.067.284.23.559.477.856.688.148.106.294.218.447.317.158.102.32.197.48.296.037.023.082-.032.048-.061m105.306 70.126a74.8 74.8 0 0 0-10.615-12.775 35.7 35.7 0 0 0-6.406-5.402 13.3 13.3 0 0 0-4.048-1.174c-1.36-.284-2.72-.52-4.103-.67-3.456-.377-6.952-.494-10.424-.663-.066-.003-.064.096 0 .102 3.05.286 6.06.747 9.085 1.214 1.367.211 2.737.423 4.082.75a11.6 11.6 0 0 1 1.841.582 17 17 0 0 1 1.808 1.121 63 63 0 0 1 2.755 1.701 32.9 32.9 0 0 0-13.246-2.63.037.037 0 0 0 0 .074c4.935.02 9.66 1.485 14.247 3.224a41 41 0 0 1 2.909 2.179 73 73 0 0 1 5.915 5.49 79 79 0 0 1 6.065 6.955c.06.078.192.007.135-.078m-10.62-15.449c-.043-.035-.103.023-.061.06a89.5 89.5 0 0 1 11.022 11.682c.032.041.105-.014.073-.057a61.8 61.8 0 0 0-11.034-11.686m-73.362-28.894a.012.012 0 0 0 0-.024m33.652 22.636a6 6 0 0 0-.7-.449 8 8 0 0 1 .7.45"/><path fill="currentColor" d="M321.723 146.069a12 12 0 0 0-1.01-.852 3.3 3.3 0 0 1 .811.844c-.253.025-.509.056-.762.06-.314.005-.379-.087-.635-.263a6.4 6.4 0 0 0-1.401-.705c-.54-.2-1.096-.355-1.646-.522-.457-.14-1.105-.495-1.574-.341a.138.138 0 0 0-.081.2c.285.39.886.456 1.327.607.606.209 1.215.409 1.81.645a14 14 0 0 1 1.628.871c.404.224 1.098-.256 1.499-.416a.078.078 0 0 0 .034-.128m-4.703-2.687a5.5 5.5 0 0 1-.776-.35c-.23-.14-.388-.37-.615-.507a3.3 3.3 0 0 0-1.303-.184c-1.044-.11-2.084-.232-3.131-.308-.03-.003-.038.048-.008.053a16 16 0 0 1 2.793.695 10 10 0 0 0 1.25.546 1.8 1.8 0 0 0 .568-.054 2.4 2.4 0 0 1 .915.11 14.7 14.7 0 0 1 2.717 1.082q.29.143.582.303c-.094-.055-.174-.123-.272-.174-.88-.463-1.802-.833-2.72-1.212m3.311-4.942a2.4 2.4 0 0 0-.848-.524q-.443-.213-.892-.413-.942-.42-1.908-.78a33 33 0 0 0-4.093-1.227.023.023 0 0 0-.013.045 34 34 0 0 1 3.992 1.331q1.028.416 2.026.9a6.1 6.1 0 0 0 1.692.774c.059.008.075-.07.044-.107m-53.443 140.103a17.9 17.9 0 0 0-6.397 1.147.047.047 0 0 0 .025.09 44 44 0 0 1 6.372-1.182.027.027 0 0 0 0-.055m30.189 8.823c-.047-.062-.154-.004-.108.063a15 15 0 0 0 1.316 1.774c.027.03.074-.008.055-.042a15 15 0 0 0-1.263-1.795m-123.911-80.432a2.4 2.4 0 0 0-1.105-.059 5 5 0 0 1-1.25.268 18 18 0 0 1-2.374-.034 42 42 0 0 1-5.048-.72c-.039-.008-.056.05-.016.06 1.62.383 3.262.67 4.912.9.817.114 1.635.234 2.446.39a7.7 7.7 0 0 0 2.107.482c3.35-.269 6.694-.51 10.05-.682a.02.02 0 0 0 0-.04 64.5 64.5 0 0 1-9.722-.565m-29.095-8.257a6.6 6.6 0 0 0-1.6-.213c-.699-.051-1.399-.097-2.096-.17-1.486-.159-2.964-.334-4.433-.615-.68-.13-1.357-.28-2.032-.433-.76-.173-1.475-.455-2.224-.658-.203-.055-.29.274-.086.313 1.326.256 2.65.447 3.968.755q2.016.472 4.034.93c1.2.271 2.416.444 3.63.633 1.112.173 2.189.167 3.084.977l.005-.005a5 5 0 0 0-2.25-1.514m40.154 6.599a17 17 0 0 0-2.739.035 5.7 5.7 0 0 1-1.866-.14 1.64 1.64 0 0 0-.817-.163 47 47 0 0 1-6.226.028q-5.938-.117-11.852-.641c-.01-.001-.01.014 0 .015 3.942.416 7.895.753 11.852.985 2.068.12 4.177.056 6.226.325a1.63 1.63 0 0 0 .817-.157 6 6 0 0 1 1.742-.142 15.7 15.7 0 0 0 2.863-.028c.056-.01.058-.109 0-.117m50.341 3.309a80 80 0 0 1-14.97 1.096c-.65-.028-1.297-.083-1.946-.111-.592-.026-1.118.139-1.703.16-1.21.044-2.437-.036-3.646-.087-2.51-.104-5.01-.215-7.512-.464-.026-.002-.032.043-.006.046 2.413.332 4.844.652 7.275.807 1.295.083 2.597.088 3.89.186a14 14 0 0 0 1.945.186c.609-.032 1.217-.083 1.825-.125 2.509-.176 5.022-.246 7.53-.456 2.262-.189 4.517-.457 6.763-.78a9.54 9.54 0 0 1-4.622 1.469c-2.22.293-4.447.538-6.68.713q-1.645.13-3.292.182a37 37 0 0 0-3.297.247 62 62 0 0 1-6.72.125.035.035 0 0 0 0 .07c1.217.096 2.447.051 3.666.058 1.146.007 2.279.079 3.42.162a43.6 43.6 0 0 0 6.954-.347c2.217-.198 4.435-.443 6.634-.793a7.76 7.76 0 0 0 4.678-2.024.193.193 0 0 0-.186-.32m-11.033-.989c-1.95-.11-3.922.093-5.872.17q-2.939.117-5.878.205a.023.023 0 0 0 0 .047q2.996.082 5.993.013a38 38 0 0 0 5.766-.37c.039-.006.027-.063-.009-.065m49.184-7.681c-4.704-.111-9.178 1.625-13.836 1.984a15 15 0 0 1-1.784.056 5.3 5.3 0 0 0-1.544.014 14.2 14.2 0 0 1-3.706.199 49 49 0 0 1-7.335-.671c-.063-.011-.091.085-.027.098a51 51 0 0 0 6.884.968c1.19.076 2.396.012 3.581.112.323.028.632.162.955.172a4 4 0 0 0 .826-.11q.868-.16 1.746-.28c2.361-.322 4.692-.687 7.017-1.22a31.3 31.3 0 0 1 7.223-1.212.055.055 0 0 0 0-.11m-8.15-.581a3.3 3.3 0 0 0-1.212-.048 15 15 0 0 1-1.523.281c-.983.118-1.967.227-2.95.336q-2.952.329-5.912.578c-.017.002-.018.029 0 .028q2.958-.173 5.911-.414 1.477-.119 2.95-.267a13 13 0 0 1 1.361-.084 3.14 3.14 0 0 0 1.374-.304c.043-.018.06-.096 0-.106m3.382-.541a3.4 3.4 0 0 0-.76.088c-.255.051-.51.104-.768.146-.015.002-.011.029.004.027.258-.033.518-.056.777-.08a3.4 3.4 0 0 0 .754-.131.026.026 0 0 0-.007-.05m-66.921-67.027a112 112 0 0 0-7.9 13.238.049.049 0 0 0 .085.05c2.766-4.328 5.153-8.895 7.848-13.269.014-.021-.02-.04-.033-.02m1.839 3.046c-3.08 5.212-6.3 10.34-9.124 15.699a.037.037 0 0 0 .064.037c3.26-5.104 6.125-10.44 9.13-15.694a.041.041 0 0 0-.07-.042m-.063 5.506q-2.047 3.831-4.228 7.59c-1.45 2.505-3.01 4.952-4.413 7.484a.04.04 0 0 0 .067.04c1.663-2.367 3.095-4.91 4.515-7.426q2.135-3.787 4.083-7.674c.008-.016-.016-.03-.024-.014m-.892 7.299c-2.64 4.409-5.443 8.803-7.67 13.44a.047.047 0 0 0 .082.047c2.75-4.353 5.075-8.993 7.609-13.475a.012.012 0 0 0-.02-.012m-1.417 8.138a81 81 0 0 0-5.527 10.09c-.018.043.04.08.064.037.963-1.656 1.803-3.384 2.713-5.071.91-1.689 1.824-3.375 2.777-5.04a.016.016 0 0 0-.027-.016m-1.855 8.353c-1.008 2.106-2.025 4.207-2.988 6.334-.007.016.016.03.024.014 1.034-2.092 2.014-4.21 3.004-6.325.013-.027-.027-.05-.04-.023m-1.7 7.659a6.5 6.5 0 0 0-.851 2.4c-.002.017.027.021.03.004a7.6 7.6 0 0 1 .858-2.383.022.022 0 0 0-.037-.021m-.651 5.298a.004.004 0 0 0-.008.002.73.73 0 0 1-.155.68l.002.002a.74.74 0 0 0 .16-.684m-40.042-49.221a277 277 0 0 0-3.21 5.632.018.018 0 0 0 .031.017 277 277 0 0 0 3.196-5.639.01.01 0 0 0-.017-.01m4.301.368a132 132 0 0 0-8.994 14.481c-.01.02.02.038.03.018 2.771-4.964 5.743-9.815 8.98-14.49.008-.01-.01-.02-.016-.01m.512 5.108a162 162 0 0 0-9.419 15.627c-.012.025.024.046.037.022 3.002-5.296 6.05-10.552 9.395-15.641.006-.009-.008-.017-.013-.008m1.553 4.27q-2.953 4.3-5.698 8.734c-1.825 2.953-3.635 5.939-5.172 9.053a.031.031 0 0 0 .054.032c1.811-2.966 3.49-6.01 5.282-8.989q2.686-4.465 5.551-8.82c.007-.01-.01-.02-.017-.01m-1.202 7.994a113 113 0 0 0-5.539 8.34 68 68 0 0 0-4.6 8.639c-.02.045.055.075.078.033 1.62-2.873 3.069-5.833 4.747-8.675q2.515-4.259 5.354-8.313c.017-.025-.023-.048-.04-.024m-2.748 9.345a63 63 0 0 0-6.665 12.08c-.014.035.043.058.06.025 2.103-4.1 4.156-8.194 6.656-12.075.02-.032-.03-.06-.05-.03m-1.846 7.674c-1.58 2.866-3.187 5.724-4.615 8.67-.015.03.03.058.047.027 1.642-2.833 3.109-5.766 4.599-8.68.01-.02-.02-.038-.03-.018m-.574 6.777c-.551 1.042-1.11 2.081-1.651 3.129-.541 1.046-1.119 2.084-1.6 3.159-.01.02.018.038.03.018.596-1.015 1.106-2.087 1.644-3.134.54-1.05 1.063-2.108 1.594-3.163.005-.01-.011-.02-.017-.01m-.978 7.515-.512 1.53c-.003.01.012.015.015.005l.509-1.532c.002-.008-.01-.01-.012-.004m.3 4.744c-.219.516-.439 1.032-.649 1.551-.005.013.016.021.022.01.233-.508.456-1.019.681-1.53.016-.036-.038-.068-.054-.031m-18.246-64.851a4 4 0 0 0-.249-.148c-.07-.039-.146-.07-.219-.105 1.035-2.741 1.935-5.545 2.826-8.318.003-.008-.009-.01-.011-.003-.945 2.763-2.001 5.487-3.01 8.227l-.167-.08a28 28 0 0 1-1.149-.537c-.044-.022-.083.042-.04.067.368.209.725.429 1.082.654.063.04.129.075.193.114q-.522 1.421-1.015 2.852c-.68-.443-1.399-.837-2.098-1.245a100 100 0 0 0 2.337-5.746 12 12 0 0 0 1.588.763c.055.02.079-.06.037-.09a12 12 0 0 0-1.532-.918q.675-1.814 1.3-3.64a3.8 3.8 0 0 0 .875.385c.02.006.035-.025.015-.035-.287-.146-.578-.282-.858-.442.093-.272.193-.543.285-.815.004-.012-.015-.017-.019-.006-.095.27-.202.533-.299.8a6 6 0 0 1-.812-.557c-.039-.031-.094.023-.055.055a6.6 6.6 0 0 0 .832.596q-.66 1.813-1.373 3.602-.406-.212-.807-.418c-.84-.425-1.688-.833-2.524-1.265-.026-.014-.05.025-.023.04.832.47 1.65.963 2.478 1.44q.386.222.779.443-1.152 2.874-2.386 5.714-1.135-.668-2.254-1.364.673-1.407 1.326-2.823l.113.072c.02.012.036-.018.017-.03q-.056-.04-.113-.078l.073-.156c.014-.03-.03-.055-.044-.026l-.074.152a62 62 0 0 0-3.117-2.042c-.015-.01-.028.014-.014.024a62 62 0 0 0 3.113 2.054q-.69 1.397-1.368 2.8-.054-.034-.11-.066-2.547-1.585-5.024-3.282c-.01-.007-.02.01-.01.017q2.478 1.785 5.05 3.429l.038.023c-.382.796-.76 1.594-1.121 2.401-.013.027.026.051.04.024.402-.785.786-1.578 1.166-2.372q1.117.707 2.25 1.39-.802 1.85-1.616 3.698c-.01.025.025.047.037.022a75 75 0 0 0 1.74-3.621l.021.013c.684.41 1.376.847 2.099 1.199l-.152.43c-.01.028.034.047.046.02.061-.137.113-.28.174-.419.127.061.254.126.384.18.035.015.05-.038.024-.057-.116-.083-.245-.15-.364-.23q.597-1.376 1.134-2.782c.052.03.1.063.153.09q.138.073.28.135c.08.035.16.08.241.031a.07.07 0 0 0 .033-.057c-.004-.096-.078-.135-.151-.183m.767-10.88a22 22 0 0 0-.762-.379c-.251-.12-.51-.223-.766-.33-.041-.017-.07.052-.03.071.254.126.508.253.768.367q.383.166.77.317c.027.01.045-.033.02-.046m-20.305 27.063c-.388 1.534-.784 3.067-1.12 4.613a.02.02 0 0 0 .037.01c.418-1.526.777-3.067 1.143-4.606a.031.031 0 0 0-.06-.017m3.672-.308a112 112 0 0 0-4.205 13.579.03.03 0 0 0 .057.015c1.323-4.552 2.634-9.102 4.174-13.587.006-.017-.02-.024-.026-.007m1.395 5.627c-1.716 4.924-3.408 9.889-4.672 14.951a.027.027 0 0 0 .053.015c1.599-4.97 3.018-9.997 4.642-14.96.005-.015-.017-.02-.022-.006m1.309 5.089a185 185 0 0 0-2.913 7.297c-.94 2.52-1.88 5.069-2.568 7.67a.022.022 0 0 0 .042.011c.926-2.49 1.717-5.03 2.615-7.531.897-2.5 1.837-4.981 2.838-7.44.003-.009-.011-.015-.015-.007m.704 7.161a69 69 0 0 0-4.667 12.396.021.021 0 0 0 .041.012 124 124 0 0 1 4.642-12.398c.006-.011-.011-.021-.016-.01m-.841 8.114c-.858 2.645-1.703 5.305-2.349 8.012a.025.025 0 0 0 .05.013c.817-2.66 1.54-5.349 2.348-8.012.01-.031-.039-.044-.049-.013m-.13 8.527c-.152.633-.31 1.266-.453 1.902a15 15 0 0 0-.384 1.85c-.002.024.031.025.038.006a15 15 0 0 0 .441-1.868c.137-.626.26-1.255.388-1.882.004-.02-.025-.028-.03-.008m-.248 7.851c.005-.027-.037-.038-.041-.011a3 3 0 0 0 .147 1.547c.005.013.027.008.022-.007a3.15 3.15 0 0 1-.128-1.529m125.145-23.629c-1.776 3.28-3.587 6.545-5.303 9.858-.007.013.013.025.02.011 1.814-3.26 3.535-6.573 5.29-9.865.002-.005-.005-.009-.007-.004m-6.916 13.22-.69 1.472-.342.722-.17.361a1.6 1.6 0 0 0-.15.35c-.006.031.035.065.059.035a1.4 1.4 0 0 0 .157-.313l.163-.366.337-.757.666-1.487c.01-.02-.02-.038-.03-.017m4.648-1.165c-1.735 3.28-3.67 6.447-5.43 9.714a.027.027 0 0 0 .048.027 101 101 0 0 0 5.403-9.73c.007-.013-.013-.025-.02-.011m-3.41 16.508q-.345.933-.679 1.873c-.005.014.018.02.023.006q.344-.935.675-1.874c.004-.012-.015-.017-.019-.006m48.821 12.281c-.015-.01-.028.014-.014.024 4.262 2.767 8.497 5.585 12.82 8.256.018.01.033-.016.016-.027-4.22-2.83-8.539-5.519-12.822-8.253m17.417 8.426c-5.535-3.902-11.408-7.383-17.237-10.822a.018.018 0 0 0-.018.03q4.349 2.643 8.652 5.36c2.87 1.808 5.69 3.696 8.58 5.47.024.014.044-.022.022-.038m3.411-.519a84 84 0 0 0-7.204-4.782q-3.678-2.276-7.486-4.327c-.013-.007-.025.013-.012.02q3.774 2.108 7.445 4.398c2.446 1.525 4.792 3.204 7.232 4.735.028.018.05-.025.026-.044m2.049-1.193a41 41 0 0 0-4.377-2.876 97 97 0 0 0-4.694-2.673c-.02-.01-.038.02-.018.03 1.543.872 3.066 1.779 4.575 2.707 1.505.926 2.95 1.976 4.49 2.843.019.01.042-.017.024-.031m-3.79-4.537c-.013-.007-.025.013-.011.02a38 38 0 0 1 4.08 2.559c.013.008.029-.012.017-.022a22.7 22.7 0 0 0-4.086-2.557m3.086-.552c-.013-.007-.025.013-.012.02l1.01.533c.011.005.021-.011.01-.017zm-25.254-36.732c-.917 2.377-1.895 4.74-2.712 7.154-.005.014.017.02.022.006.987-2.349 1.821-4.767 2.71-7.154.004-.012-.015-.017-.02-.006m-.266 6.494-.171.51.004.001.17-.51Zm.197-53.145c-.76 3.072-1.524 6.143-2.238 9.226-.005.022.029.032.034.01.771-3.07 1.492-6.151 2.216-9.233.001-.007-.01-.01-.012-.003M120.72 87.183c-.02 0-.02.032 0 .031 1.703-.082 3.407-.162 5.11-.268.017-.001.017-.028 0-.028-1.705.072-3.407.17-5.11.265m13.623-1.887a48.2 48.2 0 0 0-13.456-.353c-.01.001-.01.017 0 .016a68 68 0 0 1 13.448.395c.032.004.04-.052.008-.058m-13.109-2.317c-.013.002-.01.024.003.023a63 63 0 0 1 7.642-.371 61 61 0 0 1 7.846.772c.015.003.022-.019.007-.022a43 43 0 0 0-15.498-.402m1.523-2.272c-.02.003-.015.035.005.034 1.82-.03 3.633-.222 5.44-.423.022-.002.023-.036 0-.035-1.818.08-3.64.173-5.445.424m11.309-.063q-.27-.027-.54-.049l-1.06-.084c-.01 0-.009.014 0 .016l1.04.132q.26.032.52.06a1.6 1.6 0 0 0 .484.029.02.02 0 0 0 .005-.036 1.5 1.5 0 0 0-.45-.068m-4.848-2.661a31 31 0 0 0-4.584.361c-.013.002-.01.025.003.023a57 57 0 0 1 4.673-.335c1.574-.044 3.116.09 4.682.199.023.002.022-.032 0-.035a35 35 0 0 0-4.774-.213m4.968-1.982a18 18 0 0 0-3.93-.258 26 26 0 0 0-3.921.38c-.02.003-.011.033.008.03a29 29 0 0 1 3.988-.318c1.293-.014 2.562.135 3.85.209a.022.022 0 0 0 .005-.043m-5.466-3.29a.01.01 0 0 0 0 .02c1.186.026 2.39.095 3.574.007a.018.018 0 0 0 0-.035c-1.184-.088-2.388-.018-3.574.008m-1.567-3.825a11.5 11.5 0 0 0-1.324-.671 71 71 0 0 1-1.324-.679q-1.316-.691-2.59-1.459c-.014-.008-.025.012-.012.02q1.278.807 2.602 1.537.652.359 1.317.69a8 8 0 0 0 1.314.601.022.022 0 0 0 .017-.039m1.902-6.161a73 73 0 0 1-2.492-1.159q-2.472-1.203-4.833-2.614a.008.008 0 0 0-.008.013q2.379 1.465 4.874 2.725 1.228.616 2.485 1.171a17 17 0 0 0 2.476.988.016.016 0 0 0 .012-.029c-.801-.43-1.682-.728-2.514-1.095m3.726-1.513a10.2 10.2 0 0 0-2.065-.966c-.698-.307-1.398-.61-2.095-.92-1.395-.62-2.79-1.24-4.178-1.874-.027-.013-.051.027-.024.04a162 162 0 0 0 6.277 2.948 9.3 9.3 0 0 0 2.062.825.03.03 0 0 0 .023-.053m1.556-2.432a10 10 0 0 0-1.59-.677c-.55-.219-1.1-.44-1.652-.653l-3.373-1.306c-.03-.012-.043.037-.013.05l3.287 1.368q.791.328 1.586.648a10.7 10.7 0 0 0 1.72.653.045.045 0 0 0 .035-.082m.186-2.908a2.9 2.9 0 0 0-1.164-.52 36 36 0 0 0-1.429-.468 63 63 0 0 0-2.852-.78.016.016 0 0 0-.009.03q1.396.41 2.765.903c.456.165.913.328 1.367.498l.681.255a1.4 1.4 0 0 0 .613.149.04.04 0 0 0 .028-.067m.833-2.371a15.4 15.4 0 0 0-2.37-.644q-1.195-.285-2.378-.615a.022.022 0 0 0-.012.041q1.19.389 2.39.749a11 11 0 0 0 2.36.542c.046.003.045-.059.01-.073m-.165-2.742a7.4 7.4 0 0 0-1.43-.321c-.485-.082-.971-.154-1.456-.23-.032-.005-.046.041-.014.049.486.11.97.23 1.458.332a7.6 7.6 0 0 0 1.434.231.031.031 0 0 0 .008-.061m-.102-2.975q-.103-.022-.207-.037a8 8 0 0 0-.4-.05c-.273-.027-.548-.043-.822-.071-.047-.005-.059.075-.011.084.271.049.54.11.81.158q.199.037.398.063.105.015.21.022a.18.18 0 0 0 .15-.037.05.05 0 0 0 .008-.055.18.18 0 0 0-.136-.077m-.05-3.002a.5.5 0 0 0-.201-.072 2 2 0 0 0-.223-.038l-.44-.066c-.05-.008-.074.064-.021.079l.425.12a2 2 0 0 0 .209.055.6.6 0 0 0 .225.023.06.06 0 0 0 .026-.101M59.953 166c-.016-.007-.03.016-.014.024a25.4 25.4 0 0 1 3.352 2.044c1.088.785 2.093 1.673 3.117 2.538a.033.033 0 0 0 .047-.046 18.9 18.9 0 0 0-6.502-4.56m6.879 6.767a6.8 6.8 0 0 0-1.306-1.676 16 16 0 0 0-1.64-1.47 16.6 16.6 0 0 0-3.726-2.17c-.02-.01-.038.02-.018.03a16.2 16.2 0 0 1 3.62 2.34 17 17 0 0 1 1.506 1.453c.484.524.893 1.119 1.408 1.613a.1.1 0 0 0 .156-.12m-.706.871a17 17 0 0 0-1.536-1.445 17.8 17.8 0 0 0-3.46-2.25c-.016-.008-.03.015-.014.024a17 17 0 0 1 3.369 2.402 17 17 0 0 1 1.399 1.44 9.2 9.2 0 0 0 1.294 1.484c.053.04.128-.025.109-.083a4.7 4.7 0 0 0-1.16-1.572m.059 2.138a10.7 10.7 0 0 0-1.202-1.366 12.2 12.2 0 0 0-3.003-2.085c-.013-.007-.025.013-.012.02a11.2 11.2 0 0 1 2.862 2.219 13 13 0 0 1 1.131 1.388 13 13 0 0 0 .997 1.453c.035.038.09-.003.081-.048a4.2 4.2 0 0 0-.854-1.581m-1.331 1.139c-.01-.014-.033 0-.023.014.404.62.818 1.232 1.256 1.828.01.014.033.002.023-.014-.4-.622-.822-1.228-1.256-1.828m2.265 3.88c-.02-.032-.071-.001-.05.03.116.169.227.342.351.504.01.014.033.003.024-.013-.1-.178-.215-.348-.324-.52m12.709 14.655a25 25 0 0 0-6.44-4.03 42.4 42.4 0 0 0-7.131-2.644.033.033 0 0 0-.018.064 41 41 0 0 1 7.125 2.837c2.23 1.141 4.237 2.61 6.397 3.86a.055.055 0 0 0 .067-.087m.232 2.863a22.6 22.6 0 0 0-3.661-2.757 47 47 0 0 0-4.23-2.457 48 48 0 0 0-8.81-3.456.035.035 0 0 0-.02.067 50 50 0 0 1 8.821 3.62 50 50 0 0 1 3.937 2.313c1.334.866 2.574 1.883 3.92 2.725a.035.035 0 0 0 .043-.055m-.782 2.475a19.6 19.6 0 0 0-2.606-1.955q-1.464-.998-2.993-1.897a52 52 0 0 0-6.073-3.017c-.013-.005-.022.016-.01.021a55 55 0 0 1 5.99 3.156q1.427.866 2.8 1.815c.938.651 1.82 1.407 2.786 2.015a.088.088 0 0 0 .107-.138m-1.078 1.933a7 7 0 0 0-1.382-1.11 33 33 0 0 0-1.545-1.056q-1.578-1.007-3.24-1.871c-.023-.012-.042.021-.02.033q1.613.895 3.14 1.93c.502.34 1 .684 1.49 1.04a11 11 0 0 0 1.517 1.087.033.033 0 0 0 .04-.053m-3.799.77c-.027-.009-.038.032-.012.041a5.96 5.96 0 0 1 2.243 1.443c.015.014.036-.008.022-.022a5.25 5.25 0 0 0-2.253-1.462m2.231 3.696-.003.002.17.17.003-.002Zm31.334-34.238a.018.018 0 0 0-.018.03 75 75 0 0 1 8.54 6.09c.01.01.027-.007.016-.016a70 70 0 0 0-8.538-6.105m.669 2.577a27 27 0 0 0-5.469-4.052.014.014 0 0 0-.014.024 44 44 0 0 1 5.45 4.062c.022.02.055-.012.033-.034m-8.517-4.08c-.009-.009-.023.005-.014.014a4.5 4.5 0 0 0 1.55 1c.01.004.014-.011.005-.015a4.5 4.5 0 0 1-1.54-.999m9.958-18.796a82 82 0 0 1-2.157-2.142c-.685-.71-1.375-1.417-2.036-2.148a16 16 0 0 0-1.082-1.066 2.96 2.96 0 0 0-1.086-.765c-.04-.012-.092.03-.074.074a2.8 2.8 0 0 0 .791.946c.374.343.747.688 1.142 1.006q1.187.959 2.308 1.99a38 38 0 0 1 2.099 2.088 17.5 17.5 0 0 0 2.058 2.139c.029.021.067-.02.048-.048a14 14 0 0 0-2.01-2.074m-3.799.498a14 14 0 0 0-1.062-.948c-.354-.315-.714-.625-1.062-.947a94 94 0 0 1-2.054-1.96c-.322-.318-.635-.646-.982-.937-.355-.299-.757-.522-1.126-.8-.018-.013-.039.016-.023.032a17 17 0 0 0 1.436 1.403c.595.463 1.184.932 1.76 1.418a32 32 0 0 1 1.552 1.417q.378.363.752.733l.35.348.218.22c.13.127.096.11.153.303-.008-.026-.053-.023-.05.007a.121.121 0 0 0 .193.089c.17-.091.028-.287-.055-.378m-9.047-4.863a.016.016 0 0 0-.015.027 18.2 18.2 0 0 1 3.382 2.906c.021.023.052-.01.033-.033a11.7 11.7 0 0 0-3.4-2.9m-1.18 1.008c-.01-.008-.02.01-.01.017l.679.513c.008.006.015-.008.007-.014zm-13.239-1.263a22.2 22.2 0 0 0-10.948-3.323c-.013 0-.012.018 0 .02a32.7 32.7 0 0 1 10.913 3.364.035.035 0 0 0 .035-.06m-.706 2.109a8.5 8.5 0 0 0-2.252-1.274 27 27 0 0 0-2.518-.994 29 29 0 0 0-5.473-1.26c-.015-.003-.022.02-.007.022a31.4 31.4 0 0 1 5.242 1.408c.886.319 1.753.684 2.607 1.078a18.4 18.4 0 0 0 2.357 1.095.045.045 0 0 0 .044-.075m.217 2.485a7.7 7.7 0 0 0-1.896-1.174 20 20 0 0 0-2.071-.87 21 21 0 0 0-4.46-1.025c-.011-.001-.014.017-.003.02a21 21 0 0 1 4.336 1.187 22 22 0 0 1 2.124.96c.637.328 1.249.73 1.913 1 .056.022.098-.06.057-.098m-1.081 1.767a14.4 14.4 0 0 0-2.468-.977 25 25 0 0 0-2.656-.681c-.022-.005-.032.028-.01.033q1.314.303 2.593.73c.853.284 1.676.64 2.524.935a.022.022 0 0 0 .017-.04m-.171 1.706c-.029-.016-.054.028-.026.044a4.1 4.1 0 0 0 1.711.525c.02.001.02-.029 0-.031a4.7 4.7 0 0 1-1.685-.538m-57.178 41.135c-.284-.37-.572-.735-.877-1.088q-.231-.269-.48-.523a.74.74 0 0 0-.367-.233.36.36 0 0 0-.177-.001.2.2 0 0 0-.056.037c-.021.016-.037.032-.009.013-.074.05-.123.064-.125.167a.026.026 0 0 0 .05.007c.004-.02.032-.087.053-.094.037-.013-.004-.003.028.014.034.02.074.056.11.08a1 1 0 0 1 .256.264q.355.456.748.88.385.416.786.817c.275.272.546.552.829.816.03.028.087-.01.06-.048-.263-.377-.55-.742-.83-1.108m1.603-3.193a2 2 0 0 0-.136-.205c-.104-.136-.198-.275-.315-.4a2.3 2.3 0 0 0-.382-.34 1 1 0 0 0-.229-.124c-.038-.014-.079-.038-.119-.049-.025-.007-.046.007-.068.012-.052-.02-.105-.027-.156-.046a2 2 0 0 1-.182-.077.037.037 0 0 0-.037.064 1 1 0 0 1 .152.111c.04.034.074.079.112.117a.4.4 0 0 0 .09.138 2 2 0 0 0 .177.168c.13.109.27.207.406.308.122.092.25.177.363.28l.18.154a1.3 1.3 0 0 0 .18.151.05.05 0 0 0 .072-.055 1 1 0 0 0-.108-.207m2.981 3.344q-.616-.618-1.229-1.24c-.007-.006-.018.005-.01.012q.595.639 1.187 1.28a16 16 0 0 0 1.221 1.248.02.02 0 0 0 .028-.027 16 16 0 0 0-1.196-1.273m3.459-1.64a15 15 0 0 0-1.086-1.294c-.37-.435-.75-.861-1.151-1.269-.4-.407-.798-.817-1.21-1.213a4.8 4.8 0 0 0-1.344-1.022.05.05 0 0 0-.06.077 8 8 0 0 0 1.28 1.07 13 13 0 0 1 1.263 1.1q.575.577 1.102 1.2c.39.458.68.972 1.04 1.448.073.095.236.007.166-.097m.138-5.261a3 3 0 0 0-.562-.362 3 3 0 0 0-.295-.127 3 3 0 0 0-.345-.085c-.046-.01-.078.054-.034.078.096.052.184.112.275.172.09.06.189.107.28.166.178.115.36.226.529.355a6.2 6.2 0 0 1 .953.864c.028.032.08-.01.059-.045a3.5 3.5 0 0 0-.86-1.016m4.055-1.864a8 8 0 0 0-.409-.284c-.14-.09-.286-.165-.433-.242a.037.037 0 0 0-.038.064c.138.094.273.187.418.27s.293.153.442.226a.02.02 0 0 0 .02-.034M11.108 174.31q-.618-.51-1.26-.993c-.434-.327-.87-.648-1.317-.956a9 9 0 0 0-.724-.457 3 3 0 0 1-.317-.178.4.4 0 0 1-.112-.106.3.3 0 0 1-.02-.082q-.024-.084.107-.01c.01.021.044.01.044-.012-.005-.14-.127-.143-.242-.154-.263-.024-.382.175-.288.426.1.264.415.396.643.522.328.182.664.351.99.536a16.5 16.5 0 0 1 1.85 1.194c.305.23.602.473.893.72a6.6 6.6 0 0 0 .844.702c.044.026.103-.028.072-.072a6 6 0 0 0-1.163-1.08m2.215-3.382a6 6 0 0 0-1.084-.84 3.6 3.6 0 0 0-.615-.302 2 2 0 0 0-.347-.095.3.3 0 0 0-.285.071l-.023-.003a.041.041 0 0 0-.022.079l.023.007a.28.28 0 0 0 .188.19c.098.045.202.08.304.114.213.072.428.136.639.215a5.6 5.6 0 0 1 1.191.604c.024.016.052-.02.03-.04m3.14 1.638a1.1 1.1 0 0 0-.402-.284q-.198-.108-.398-.214a12 12 0 0 1-.8-.484c-.057-.037-.108.053-.052.091.256.177.507.355.75.55q.17.142.346.282l.176.138a.6.6 0 0 0 .224.124c.11.02.226-.093.156-.203m2.591-3.1a4 4 0 0 0-.396-.299 8 8 0 0 0-.939-.546 7 7 0 0 0-.963-.395 4 4 0 0 0-.481-.12c-.178-.032-.353-.03-.53-.07a.022.022 0 0 0-.01.042 3 3 0 0 1 .444.216q.226.112.458.217c.31.14.62.286.92.445.294.156.584.317.865.495q.215.139.433.273c.113.069.254.192.392.146a.075.075 0 0 0 .053-.07c.01-.143-.148-.25-.246-.334m3.136-1.267a4.1 4.1 0 0 0-1.149-.576c-.418-.153-.84-.294-1.257-.45-.05-.018-.084.063-.036.086.402.191.797.397 1.197.591a4.1 4.1 0 0 0 1.213.426.045.045 0 0 0 .032-.077m3.221-1.531a4.3 4.3 0 0 0-.888-.473 6 6 0 0 0-.986-.231.047.047 0 0 0-.024.09c.314.116.603.294.918.407q.233.086.47.155c.158.044.314.1.473.138a.047.047 0 0 0 .036-.086m109.066 50.214c-.506 1.89-.977 3.768-1.635 5.616a46 46 0 0 1-2.4 5.548c-.01.02.02.038.031.018a40.2 40.2 0 0 0 4.071-11.163c.008-.044-.056-.063-.067-.019m-7.082 9.174c-.167.837-.436 1.669-.686 2.485a12.2 12.2 0 0 1-.96 2.596 4 4 0 0 0-.494 1.1 8.3 8.3 0 0 1-.444 1.326c-.355.821-.855 1.562-1.233 2.37-.02.041.033.092.067.052a14.3 14.3 0 0 0 1.418-2.175q.348-.593.73-1.164a3.3 3.3 0 0 0 .529-1.268c.197-.894.55-1.751.756-2.646a26 26 0 0 0 .405-2.664c.006-.05-.079-.061-.088-.012m84.039.194c-.002-.01-.017-.006-.015.004a22.2 22.2 0 0 1-.057 7.58 26 26 0 0 1-.915 3.397c-.19.573-.389 1.144-.577 1.718a3.9 3.9 0 0 0-.348 1.717c.005.054.08.106.123.051a2.5 2.5 0 0 0 .347-.454 6 6 0 0 0 .24-.958c.178-.662.344-1.328.51-1.993.312-1.254.612-2.513.798-3.793a23 23 0 0 0-.106-7.269m30.638 12.067c-.257-.835-.462-1.685-.683-2.53a49 49 0 0 0-1.554-5.205c-.01-.026-.05-.015-.041.011.648 1.762 1.075 3.588 1.56 5.398a29 29 0 0 0 1.727 5.143c.037.075.146.01.112-.065a23 23 0 0 1-1.121-2.752m-3.094-1.267c-.308-1.052-.633-2.098-.95-3.146a.027.027 0 0 0-.053.015c.288 1.056.567 2.115.864 3.169a33 33 0 0 0 .95 3.145.027.027 0 0 0 .053-.015 32 32 0 0 0-.864-3.169m-2.993-.933c-.01-.023-.046-.014-.038.01.26.747.51 1.497.81 2.228.009.02.041.013.034-.01-.238-.753-.527-1.489-.806-2.228m-89.742-4.565c-.033-.017-.063.033-.03.05a26.5 26.5 0 0 1 3.117 1.956c.014.01.033-.013.019-.024a18.5 18.5 0 0 0-3.106-1.982m8.155 2.403a17 17 0 0 0-1.42-1.077l-1.481-1.073c-1.004-.726-2.014-1.442-3.022-2.162-.017-.012-.032.015-.016.027.979.73 1.955 1.464 2.939 2.188l1.427 1.05a18 18 0 0 0 1.542 1.087c.024.014.053-.02.03-.04m4.048.052c-1.077-.913-2.233-1.73-3.31-2.644q-1.618-1.372-3.153-2.838a.012.012 0 0 0-.017.016q1.496 1.547 3.132 2.944a27.4 27.4 0 0 0 3.322 2.556c.02.012.045-.018.026-.034m4.982 1.29c-1.143-1.15-2.42-2.186-3.631-3.264q-1.826-1.624-3.667-3.229c-.015-.013-.037.009-.022.022q1.806 1.642 3.622 3.274c1.209 1.081 2.384 2.232 3.657 3.238.028.023.068-.014.041-.041m-1.653-4.314c-.016-.012-.038.01-.022.022a299 299 0 0 0 5.62 4.427c.014.011.033-.013.019-.024a298 298 0 0 0-5.617-4.425m7.632 3.434c-.011-.005-.021.011-.01.017q.629.279 1.23.614c.4.224.784.475 1.173.718.01.007.02-.01.01-.016a12.2 12.2 0 0 0-2.403-1.333m4.941 1.695a20 20 0 0 0-2.23-1.16c-.028-.014-.053.026-.025.043a21 21 0 0 0 2.229 1.161.025.025 0 0 0 .026-.044m100.338 8.136-1.419-1.519c-.053-.057-.138.029-.086.086l1.385 1.511a19 19 0 0 0 1.424 1.472c.02.018.058-.006.04-.03a19 19 0 0 0-1.344-1.52m.079-5.057c-1.107-1.163-2.23-2.309-3.346-3.462-.037-.038-.094.02-.058.058 1.084 1.185 2.16 2.377 3.253 3.554 1.09 1.174 2.16 2.382 3.35 3.457a.035.035 0 0 0 .05-.05c-1.002-1.254-2.143-2.396-3.25-3.558m2.833-.864q-1.56-1.633-3.137-3.25-3.123-3.18-6.345-6.258a.025.025 0 0 0-.036.036q3.08 3.222 6.15 6.454l3.033 3.18c.505.531 1.004 1.067 1.515 1.593a9.8 9.8 0 0 0 1.523 1.425c.037.024.08-.023.06-.059a18 18 0 0 0-2.763-3.12m-8.241-12.11c-.033-.035-.084.017-.053.052 1.951 2.188 3.888 4.389 5.931 6.492.023.023.057-.012.036-.036-1.905-2.23-3.916-4.362-5.914-6.508m11.588 11.67a8 8 0 0 0-.339-.392q-.345-.367-.709-.718-.736-.71-1.531-1.359c-.029-.023-.07.016-.041.042a19 19 0 0 1 1.446 1.407q.334.362.65.74.168.199.337.394a1.2 1.2 0 0 0 .345.333.06.06 0 0 0 .086-.066 1 1 0 0 0-.244-.381m.591-3.251a23.5 23.5 0 0 0-2.409-2.359q-1.233-1.15-2.46-2.307-2.456-2.311-4.917-4.617c-.013-.012-.032.007-.02.019q2.455 2.381 4.912 4.759 1.212 1.172 2.42 2.348a23 23 0 0 0 2.412 2.237c.05.037.094-.039.062-.08m-.472-4.464c-1.147-1.094-2.372-2.108-3.537-3.184q-1.75-1.614-3.452-3.278a.01.01 0 0 0-.014.014 110 110 0 0 0 3.402 3.328c1.156 1.08 2.311 2.189 3.561 3.159.027.02.065-.014.04-.039m-2.097-5.995q-.45-.408-.921-.789a28 28 0 0 0-1.911-1.405c-.042-.029-.08.038-.04.067a21 21 0 0 1 1.883 1.498q.427.381.838.78a3.9 3.9 0 0 0 .871.763.04.04 0 0 0 .054-.053 3 3 0 0 0-.774-.861m-1.463-6.619a.021.021 0 0 0-.03.03c.283.284.56.575.855.847a.016.016 0 0 0 .022-.022c-.273-.294-.563-.572-.847-.855m-14.818 136.005a.022.022 0 0 0-.022.037 38 38 0 0 1 4.566 3.26c.013.011.033-.008.019-.02a32.6 32.6 0 0 0-4.563-3.277m5.845-.067a38.7 38.7 0 0 0-6.023-3.832c-.024-.013-.046.024-.022.037a41.6 41.6 0 0 1 5.996 3.979c1.847 1.47 3.426 3.18 5.151 4.779.022.02.062-.007.043-.033a26.2 26.2 0 0 0-5.145-4.93m2.956-2.992a54 54 0 0 0-6.434-4.231.02.02 0 0 0-.02.034 58 58 0 0 1 6.368 4.309c1.98 1.541 3.776 3.264 5.636 4.942a.022.022 0 0 0 .03-.03 38.5 38.5 0 0 0-5.58-5.024m6.477.9a45.5 45.5 0 0 0-4.416-3.737q-2.22-1.735-4.53-3.348c-.037-.026-.072.035-.035.061q2.384 1.702 4.673 3.533c1.441 1.155 2.812 2.406 4.276 3.53.024.018.05-.02.031-.04m-.49-5.332q-1.005-.862-2.08-1.638a31 31 0 0 0-4.705-2.787c-.02-.01-.038.02-.018.03a34 34 0 0 1 4.52 2.809q1.111.813 2.149 1.72c.64.557 1.232 1.2 1.91 1.708.029.022.072-.022.05-.05a11.5 11.5 0 0 0-1.826-1.792m1.943-3.473a10 10 0 0 0-1.724-1.047c-.583-.331-1.16-.672-1.737-1.01q-1.791-1.05-3.53-2.184c-.039-.025-.073.035-.036.06q1.709 1.183 3.47 2.286c.569.355 1.147.694 1.726 1.03a8 8 0 0 0 1.799.92.033.033 0 0 0 .032-.055m.305-3.014c-.804-.606-1.678-1.121-2.53-1.655l-2.562-1.603c-.028-.017-.053.026-.025.044l2.53 1.655c.841.55 1.674 1.128 2.561 1.603a.025.025 0 0 0 .026-.044m-.495-4.09a6.3 6.3 0 0 0-1.668-1.336 16 16 0 0 0-1.943-1.001c-.031-.014-.06.03-.028.047a15.4 15.4 0 0 1 1.847 1.102q.436.304.862.62a11 11 0 0 0 .886.626c.038.023.07-.027.044-.058m.96-3.394q-.149-.102-.3-.199-.282-.179-.568-.358-.588-.37-1.174-.742c-.028-.017-.053.026-.026.044l1.128.776.555.383q.138.095.28.185a.8.8 0 0 0 .287.15c.028.004.057-.024.04-.052a.7.7 0 0 0-.222-.187m-.314-4.647a.248.248 0 0 0 0 .496.248.248 0 0 0 0-.496m.186-10.504c-.032-.023-.074.031-.043.056 1.115.865 2.135 1.834 3.203 2.754a.031.031 0 0 0 .044-.044 19 19 0 0 0-3.204-2.766m3.696-4.862a22 22 0 0 0-1.92-1.574q-.977-.77-1.955-1.538c-.037-.03-.09.022-.052.052l1.956 1.591a22 22 0 0 0 1.938 1.512.027.027 0 0 0 .033-.043m2.102-3.307a14 14 0 0 0-1.636-1.598q-.873-.792-1.76-1.567a129 129 0 0 0-3.562-2.989c-.025-.02-.061.015-.036.036a224 224 0 0 1 3.53 3.115q.852.764 1.694 1.539a16.4 16.4 0 0 0 1.73 1.516c.034.023.061-.025.04-.052m-1.156-5.256c-.562-.56-1.13-1.114-1.695-1.672-1.13-1.114-2.275-2.212-3.41-3.321a.041.041 0 0 0-.058.058c1.105 1.139 2.199 2.288 3.31 3.422q.808.828 1.618 1.653a12 12 0 0 0 1.692 1.607.07.07 0 0 0 .096-.096 12 12 0 0 0-1.553-1.651m-4.26-7.226c-.027-.019-.051.025-.026.044a65.5 65.5 0 0 1 6.39 5.7c.024.024.056-.01.036-.035a32.3 32.3 0 0 0-6.4-5.709m4.263.273-2.929-2.773c-.01-.009-.023.005-.014.014l2.853 2.849a37 37 0 0 0 2.918 2.784.025.025 0 0 0 .036-.036 37 37 0 0 0-2.864-2.838m1.103-2.4a13.5 13.5 0 0 0-2.164-1.576.012.012 0 0 0-.012.02 14 14 0 0 1 2.102 1.677q.459.45.883.934c.296.337.568.695.882 1.017a.033.033 0 0 0 .052-.04 7.6 7.6 0 0 0-1.743-2.032m.88-2.566c-.017-.011-.032.016-.016.027a4 4 0 0 1 1.201 1.518c.008.018.04.005.032-.013a3.2 3.2 0 0 0-1.217-1.532m75.529-89.182c-.168 3.177-.337 6.354-.465 9.534 0 .015.023.015.024 0 .186-3.177.33-6.355.476-9.534.001-.023-.034-.023-.035 0m-3.856-3.065c-.219 6.905-.91 13.77-1.809 20.617-.005.039.062.048.07.01a109.3 109.3 0 0 0 1.81-20.627.035.035 0 0 0-.071 0m-4.092 2.215a106 106 0 0 1-.884 12.774c-.564 4.306-1.462 8.555-2.367 12.8a.043.043 0 0 0 .083.022 76.5 76.5 0 0 0 2.475-12.582 103 103 0 0 0 .756-13.014.031.031 0 0 0-.063 0m-4.313 5.105a91 91 0 0 1-1.706 13.401 127 127 0 0 1-3.47 12.836c-.013.039.045.052.06.016a75.6 75.6 0 0 0 5.148-26.253c0-.02-.03-.02-.031 0m-4.589 5.275a104 104 0 0 1-2.514 13.427c-1.099 4.349-2.557 8.587-4.002 12.83-.025.073.092.124.125.053a70.3 70.3 0 0 0 4.258-12.9 95 95 0 0 0 2.156-13.41c.002-.015-.021-.015-.023 0m-4.452 5.434a232 232 0 0 1-8.277 26.3c-.014.04.052.068.068.03a154.7 154.7 0 0 0 8.236-26.322c.004-.018-.023-.025-.027-.008m-6.213 6.959a149 149 0 0 1-3.747 12.883q-1.058 3.123-2.225 6.205c-.805 2.124-1.713 4.21-2.506 6.339-.014.04.05.066.068.028a86 86 0 0 0 4.89-12.387c1.405-4.29 2.57-8.654 3.546-13.06.004-.018-.022-.025-.026-.008m-6.193 7.512c-2.173 7.372-4.733 14.616-7.337 21.845-.013.036.043.05.057.015a192 192 0 0 0 7.295-21.856.008.008 0 0 0-.015-.004m-8.982 14.313c-1.334 3.336-2.703 6.66-3.916 10.042-.012.035.046.06.061.025 1.407-3.31 2.66-6.683 3.946-10.041.022-.057-.069-.08-.09-.025m75.72-26.687c-2.942-2.533-5.944-4.993-8.88-7.534a594 594 0 0 1-8.726-7.726c-.011-.01-.028.006-.017.017a212 212 0 0 0 17.595 15.28c.02.016.048-.02.028-.037m4.131-1.758c-2.1-2.034-4.423-3.862-6.6-5.816q-3.274-2.94-6.482-5.955c-.03-.03-.077.017-.047.047q3.206 3.102 6.512 6.095c2.139 1.927 4.26 3.969 6.577 5.682.03.022.067-.027.04-.053m1.066-3.299q-1.227-1.148-2.456-2.293l-4.859-4.504c-.015-.014-.037.008-.022.022l4.812 4.551q1.185 1.122 2.378 2.235c.815.764 1.606 1.573 2.475 2.275a.023.023 0 0 0 .033-.033c-.735-.798-1.568-1.513-2.36-2.253m-.579-4.68c-.014-.01-.027.013-.013.024q1.782 1.346 3.482 2.797c1.102.943 2.17 1.926 3.28 2.86a.025.025 0 0 0 .035-.036 46.6 46.6 0 0 0-6.784-5.645m11.09 4.4c-.741-.617-1.538-1.164-2.33-1.711l-2.446-1.688c-.013-.01-.024.011-.012.02l2.357 1.746c.784.58 1.566 1.166 2.4 1.673.024.014.053-.021.03-.04m4.769-1.377c-.481-.225-.967-.437-1.45-.655a11.5 11.5 0 0 1-1.432-.729c-.08-.05-.148.072-.073.125a9.7 9.7 0 0 0 1.381.866 5 5 0 0 0 1.54.47c.043.007.082-.055.033-.078m4.761-.334a25 25 0 0 0-2.904-1.19c-.043-.015-.074.057-.031.076a25 25 0 0 0 2.917 1.157.024.024 0 0 0 .018-.043m-60.208-56.45a54 54 0 0 0-19.301-4.758c-.02-.001-.02.03 0 .031a63.7 63.7 0 0 1 19.288 4.759c.018.007.031-.024.013-.032m3.523 5.055a50.8 50.8 0 0 0-9.458-4.36 60 60 0 0 0-10.287-2.658c-.022-.003-.032.03-.01.034a64.4 64.4 0 0 1 10.045 2.69 80 80 0 0 1 9.665 4.372.045.045 0 0 0 .045-.078m-4.555.192a29 29 0 0 0-6.694-2.54.012.012 0 0 0-.007.023 30 30 0 0 1 6.657 2.593 29 29 0 0 1 2.879 1.757c1.042.72 1.985 1.553 2.985 2.326.015.012.036-.007.022-.022a23.1 23.1 0 0 0-5.842-4.137m.298 3.386a.018.018 0 0 0-.018.03 46 46 0 0 1 6.833 5.418.025.025 0 0 0 .036-.036 31.2 31.2 0 0 0-6.851-5.412m47.172-18.75c-3.93.396-7.836 1.145-11.734 1.777a60 60 0 0 1-6.195.849c-.442.025-.87.061-1.308.128-.513.079-.989.254-1.494.355-1.022.202-2.066.317-3.101.422a70 70 0 0 1-6.886.379.027.027 0 0 0 0 .055 41 41 0 0 0 6.057.11c.987-.054 1.972-.138 2.957-.217.988-.08 1.982-.047 2.962-.2.971-.15 1.928-.464 2.89-.676 1.01-.222 2.03-.406 3.043-.614 1.992-.41 3.975-.86 5.973-1.242 2.27-.435 4.551-.781 6.84-1.099.015-.002.012-.028-.004-.027m-18.685 9.952c-1.146-.468-2.343-.816-3.525-1.183s-2.37-.714-3.557-1.065c-.025-.007-.034.03-.01.038 1.172.403 2.342.812 3.52 1.199 1.174.386 2.35.797 3.553 1.08a.035.035 0 0 0 .02-.068m4.096-.257a31.5 31.5 0 0 0-4.12-1.339 265 265 0 0 0-4.314-1.221.027.027 0 0 0-.014.052c1.392.467 2.787.928 4.187 1.37a32 32 0 0 0 4.231 1.21c.04.006.074-.052.03-.072m3.343-.64c-2.538-.727-5.113-1.32-7.65-2.05a.014.014 0 0 0-.007.026 45 45 0 0 0 7.64 2.088.033.033 0 0 0 .017-.064m3.581-.464a7.7 7.7 0 0 0-1.744-.532 60 60 0 0 0-1.76-.419q-1.833-.41-3.676-.773c-.022-.004-.032.03-.01.034q1.828.423 3.64.912c.581.156 1.161.317 1.743.473a8.7 8.7 0 0 0 1.776.419.061.061 0 0 0 .031-.113m3.046-.761a12 12 0 0 0-2.04-.515c-.687-.147-1.377-.28-2.065-.421-.039-.008-.056.05-.017.06.693.175 1.384.358 2.079.527a12 12 0 0 0 2.034.415c.04.003.04-.052.009-.065m.248-1.028c-.024-.002-.023.032 0 .035 1.015.133 2.031.284 3.055.328.022 0 .028-.035.006-.038-1.012-.174-2.039-.24-3.062-.325m8.428-1.447a77 77 0 0 0-3.344.64c-.032.007-.018.055.014.05a77 77 0 0 0 3.34-.656c.022-.005.012-.038-.01-.034m-31.137 8.832a.01.01 0 0 0-.006.019c1.099.287 2.198.57 3.306.82a.012.012 0 0 0 .006-.022 99 99 0 0 0-3.307-.817m4.847-1.134a5.83 5.83 0 0 1-3.582-.594.01.01 0 0 0-.01.017 5.04 5.04 0 0 0 3.6.607c.02-.004.012-.033-.008-.03m-5.068-9.868c-1.992-1.31-4.206-2.354-6.294-3.503q-3.157-1.736-6.32-3.458c-.016-.009-.03.015-.014.023q3.141 1.761 6.29 3.51c2.084 1.157 4.147 2.476 6.316 3.465a.022.022 0 0 0 .022-.037m.829-2.002-2.527-1.374q-2.484-1.352-4.976-2.688c-.011-.006-.02.01-.01.016q2.474 1.368 4.95 2.732l2.436 1.335c.833.457 1.663.984 2.536 1.36a.018.018 0 0 0 .018-.03c-.761-.514-1.621-.912-2.427-1.35m2.979-.651-2.053-.873c-.009-.004-.017.01-.008.014l2.079.908c.668.292 1.33.615 2.015.866.017.006.028-.02.012-.029-.663-.33-1.364-.595-2.045-.886m4.313.457c-.018.004-.01.03.007.027a5.5 5.5 0 0 1 2.312.146.014.014 0 0 0 .007-.026 4.4 4.4 0 0 0-2.326-.147m-54.391-10.701c-.005 0-.007.007-.002.008 2.39.473 4.777.967 7.171 1.419.005 0 .007-.007.002-.008-2.386-.494-4.781-.946-7.171-1.419m1.784 1.55c-.022-.004-.031.03-.009.034 1.702.34 3.404.687 5.11 1.009.014.002.02-.02.006-.023-1.7-.354-3.404-.683-5.107-1.02m-90.754-57.138c-.123-.113-.253-.22-.377-.331a76 76 0 0 0-.805-2.466c-.012-.035-.067-.02-.056.016q.38 1.203.795 2.391-1.64-1.479-3.32-2.915-.28-1.304-.513-2.63c-.008-.045-.074-.025-.068.019.113.797.226 1.61.36 2.424q-1.153-.985-2.313-1.963a58 58 0 0 1-.56-2.894c-.004-.021-.041-.016-.038.006.11.903.245 1.816.407 2.728-.636-.533-1.269-1.07-1.907-1.602a52 52 0 0 1-.33-2.66c-.003-.035-.057-.036-.054 0q.092 1.262.231 2.532l-1.84-1.533a86 86 0 0 1-.347-2.593c-.004-.03-.05-.03-.047 0q.105 1.23.243 2.467l-.478-.4c-.017-.014-.042.01-.025.026l.512.448q.142 1.256.338 2.506-1.124-.927-2.277-1.814c-.12-.884-.245-1.769-.355-2.654-.004-.027-.045-.028-.043 0 .065.858.16 1.711.276 2.561-.489-.374-.972-.758-1.466-1.12-.01-.007-.021.008-.012.015.509.4 1 .82 1.5 1.231.095.683.2 1.365.335 2.044.006.027.045.015.042-.012-.09-.644-.171-1.29-.26-1.934q1.17.967 2.306 1.969c.17 1.047.363 2.09.616 3.113.007.03.05.017.045-.012-.143-.973-.297-1.943-.451-2.913.62.548 1.225 1.114 1.835 1.673a33 33 0 0 0 .895 3.865.025.025 0 0 0 .05-.013c-.24-1.213-.478-2.422-.703-3.631.743.684 1.469 1.389 2.203 2.083a26 26 0 0 0 1.14 3.227c.01.023.046.007.04-.016-.279-.973-.575-1.94-.861-2.91.59.56 1.189 1.108 1.772 1.677.033.032.08-.016.05-.05a48 48 0 0 0-1.946-2.066c-.133-.465-.275-.929-.392-1.4-.138-.555-.259-1.114-.382-1.673q1.145.997 2.301 1.98a15.3 15.3 0 0 0 1.784 5.367c.02.033.065.004.05-.03a28.3 28.3 0 0 1-1.592-5.129q1.628 1.389 3.291 2.733c.026.074.047.148.074.221.009.026.049.016.041-.011l-.051-.157c.1.082.198.168.299.248.026.022.065-.014.038-.038m-9.984-6.251q-.202-1.271-.391-2.544l1.85 1.62q.14 1.243.346 2.477-.89-.791-1.805-1.553m4.196 3.807q-1.05-1.04-2.15-2.031-.233-1.276-.427-2.559c.639.56 1.283 1.114 1.924 1.672.18.98.394 1.956.653 2.919m5.661-.217c-1.75-1.575-3.551-3.09-5.355-4.604-.028-.024-.07.017-.041.042 1.769 1.554 3.539 3.105 5.36 4.598.025.02.06-.014.036-.036M146.027 206.75c-.012-.004-.017.015-.005.018q7.212 2.366 14.23 5.288c.015.005.026-.02.011-.025q-6.991-2.981-14.236-5.281m133.466-8.981a.018.018 0 0 0-.009.034c6.565 1.995 13.116 4.061 19.72 5.928a.014.014 0 0 0 .007-.026c-6.538-2.086-13.141-3.978-19.718-5.936m1.567-2.159a.01.01 0 0 0-.005.018c4.541 1.354 9.054 2.794 13.56 4.26.016.005.023-.021.007-.027-4.485-1.527-9.014-2.923-13.561-4.251m3.052-2.265c-.005-.001-.007.006-.002.008l6.642 2.287c.007.003.01-.008.003-.01q-3.321-1.144-6.643-2.285m-1.259-2.62c-.005-.001-.007.006-.002.007a15.7 15.7 0 0 1 4.375 1.485c.005.003.009-.004.004-.006a15.7 15.7 0 0 0-4.377-1.486m.776-2.311c-.015-.005-.02.018-.007.023l1.527.527c.014.004.02-.018.006-.023zm-54.939-98.701a129 129 0 0 1-6.01 12.752.059.059 0 0 0 .102.06 50.6 50.6 0 0 0 5.961-12.797c.011-.034-.04-.047-.053-.015m-44.665 10.469c-.973 1.918-2.023 3.798-3.07 5.677a.027.027 0 0 0 .046.027 54 54 0 0 0 3.05-5.689c.01-.018-.017-.033-.026-.015m4.295-16.715c-1.529 3.588-3.332 7.028-5.1 10.501a.03.03 0 0 0 .05.03 70 70 0 0 0 5.072-10.522c.005-.013-.016-.022-.022-.01m-1.068-2.502c-.828 2.11-1.683 4.206-2.664 6.25-.955 1.988-2.026 3.907-3.102 5.83a.055.055 0 0 0 .095.055 38.4 38.4 0 0 0 5.71-12.125c.006-.024-.03-.033-.039-.01m-1.773-.32a121 121 0 0 1-3.513 7.337.035.035 0 0 0 .06.035 43 43 0 0 0 3.49-7.357c.007-.02-.027-.036-.036-.015M210.07 45.94c-.019-.016-.046.01-.028.027a38 38 0 0 1 6.571 8.671c.027.048.092.006.071-.041a23.8 23.8 0 0 0-6.614-8.657m1.62-2.126c-.02-.016-.047.01-.028.028a32 32 0 0 1 2.995 3.186c.954 1.148 1.797 2.375 2.675 3.58a.035.035 0 0 0 .06-.036 23 23 0 0 0-5.702-6.758m1.69-1.705c-.015-.012-.036.014-.02.027a28 28 0 0 1 2.38 2.387c.755.83 1.444 1.717 2.206 2.54.036.038.094-.01.07-.055a16.3 16.3 0 0 0-4.636-4.9m3.448.165a42 42 0 0 0-2.108-2.001c-.02-.019-.05.01-.03.03.68.671 1.335 1.366 1.993 2.06.656.693 1.27 1.433 1.97 2.082.021.02.06-.007.042-.034a17 17 0 0 0-1.867-2.137m-.344-3.573c-.017-.014-.041.009-.025.025.73.74 1.427 1.51 2.163 2.243.02.02.058-.007.04-.031a15 15 0 0 0-2.178-2.237m4.352.049a16 16 0 0 0-2.117-1.533c-.048-.03-.087.042-.043.074.705.507 1.406 1.017 2.129 1.499.024.015.053-.021.03-.04M140.1 112.238a32.5 32.5 0 0 0-1.677 4.79.022.022 0 0 0 .041.012 107 107 0 0 1 1.697-4.776c.013-.035-.045-.06-.06-.026m-24.845.239c-.045-.057-.145.02-.101.078a47.5 47.5 0 0 0 5.154 6.237c.046.044.134-.016.092-.071-1.636-2.145-3.487-4.117-5.145-6.244"/></svg>