<svg xmlns="http://www.w3.org/2000/svg" data-name="triggerfish" viewBox="0 0 602.386 143.627"><path fill="currentColor" d="M350.623 25.684c-.098-.104-.25.028-.19.147a14 14 0 0 1 1.566 8.795 16.4 16.4 0 0 1-1.33 4.063 17.2 17.2 0 0 1-2.517 3.787c-.093.11.031.314.165.215a12.18 12.18 0 0 0 4.795-7.966 11.05 11.05 0 0 0-2.489-9.041"/><path fill="currentColor" d="M487.238 36.23a13.5 13.5 0 0 0-3.593-3.028c-1.572-.99-3.189-1.917-4.8-2.843a88 88 0 0 0-10.512-5.272c-7.202-2.948-14.917-4.015-22.607-4.803-7.808-.8-15.569-1.49-23.178-3.517-3.879-1.033-7.722-2.222-11.664-3a52.2 52.2 0 0 0-11.984-.805c-4.125.146-8.24.475-12.367.61q-6.326.206-12.658.152c-8.385-.06-16.772-.397-25.145-.837-8.378-.44-16.742-1.116-25.117-1.581-.332-.019-.664-.023-.995-.037-2.05-.444-4.1-.883-6.149-1.332-3.086-.677-6.171-1.359-9.263-2.01l-2.09-.442c-.231-.087-.466-.166-.697-.255a181 181 0 0 1-4.656-1.866 25.7 25.7 0 0 0-4.902-1.785h-.003l-2.443-1.009a40.4 40.4 0 0 0-6.002-2.116 16 16 0 0 0-6.053-.29 26.8 26.8 0 0 0-5.77 1.669c-1.865.722-3.706 1.506-5.6 2.155a72 72 0 0 1-5.938 1.737c-7.97 1.987-16.167 2.89-24.12 4.953-7.972 2.068-15.382 5.63-22.952 8.791-3.746 1.565-7.537 2.9-11.413 4.1-3.757 1.163-7.73 1.901-11.251 3.716-.693.357-1.383.715-2.063 1.095-.633-.009-1.27.004-1.912.031-2.856.122-5.705.343-8.565.34-6.02-.005-12.047-.587-18.05-.986-12.184-.81-24.372-1.566-36.559-2.34-12.132-.772-24.278-1.43-36.397-2.38-6.049-.474-12.073-1.132-18.07-2.063-5.83-.906-11.62-2.039-17.415-3.147-11.496-2.2-23.01-4.544-34.666-5.696a438 438 0 0 0-4.348-.402c-.106-.01-.103.152 0 .164 5.878.698 11.721 1.859 17.534 2.968 5.79 1.105 11.555 2.34 17.306 3.63a281 281 0 0 0 34.68 5.79c12.014 1.147 24.088 1.767 36.128 2.596 12.125.834 24.25 1.702 36.378 2.502 5.997.395 11.994.849 17.996 1.169a73 73 0 0 0 9.017.07c2.79-.199 5.54-.743 8.342-.819a24 24 0 0 1 4.289.218c.246.038.457-.313.187-.442a12 12 0 0 0-3.658-1.048 84 84 0 0 1 8.982-2.56 96 96 0 0 0 11.365-3.611c7.525-2.935 14.803-6.541 22.544-8.903 7.758-2.367 15.838-3.333 23.75-5.031a76 76 0 0 0 11.655-3.364c3.614-1.407 7.316-3.234 11.29-3.112a19.8 19.8 0 0 1 5.852 1.301c2.02.706 4.03 1.44 6.046 2.155.909.323 1.821.635 2.731.954a.13.13 0 0 0 .067.099 15.7 15.7 0 0 0 3.565 1.19 106 106 0 0 0 6.346 2.329 73 73 0 0 0 7.798 2.158 61 61 0 0 0 7.284 1.121c2.23.542 4.474 1.026 6.742 1.373a63 63 0 0 0 8.065.62 49 49 0 0 1 7.806.567c3.999.745 8.16 2.716 9.872 6.639 1.1 2.525 1.297 5.465 1.778 8.152.275 1.533.673 3.032 1.054 4.539s.688 3.027 1.063 4.535a.18.18 0 0 0 .353-.047c-.064-1.107-.142-2.212-.22-3.318.397 1.763.752 3.537 1.053 5.317a80 80 0 0 0 2.926 12.856 51.5 51.5 0 0 0 4.635 9.464 2.6 2.6 0 0 0-.852-.117 5.5 5.5 0 0 0-2.526 1.058 17 17 0 0 0-2.09 1.482 6.52 6.52 0 0 0-2.36 4.384c-.152 1.774.714 3.54 1.497 5.08.2.393.413.778.628 1.162-.24-.454-.466-.912-.658-1.38-.75-1.821-1.111-4.244-.182-6.078.822-1.622 2.557-2.597 4.09-3.442.78-.43 1.522-.928 2.403-.486a7.3 7.3 0 0 1 1.908 1.391 58.6 58.6 0 0 1 4.514 8.15 3.23 3.23 0 0 1-.4 2.587 7.2 7.2 0 0 1-1.912 2.05 9.7 9.7 0 0 1-2.477 1.376 3.3 3.3 0 0 1-1.316.317 1.17 1.17 0 0 0-.746.187 4.4 4.4 0 0 0-1.058.33c-.093-.068-.186-.135-.272-.212a6 6 0 0 1-.44-.462l-.814-.908c-.465-.52-.974-.997-1.462-1.495-.412-.63-.81-1.268-1.178-1.925.342.646.732 1.271 1.14 1.886-.081-.083-.166-.162-.244-.247-.008-.008-.022.003-.016.012.483.645.9 1.335 1.395 1.97l.754.969c.13.165.262.329.377.505.126.195.202.41.327.607a.43.43 0 0 0 .479.195c.28-.102.56-.192.84-.284a1.1 1.1 0 0 0 .401.177 1.38 1.38 0 0 0 .917-.235c.471-.236 1.028-.344 1.52-.555a10.8 10.8 0 0 0 2.854-1.8 7.4 7.4 0 0 0 2.09-2.888c.1.334.207.668.288 1.008a10 10 0 0 1-.133 5.877 7.18 7.18 0 0 1-3.44 3.732c-3.225 1.713-7.225 1.573-10.718.966a37.86 37.86 0 0 1-21.555-12.56 47.5 47.5 0 0 1-4.244-5.638c-.495-2.87-1.29-5.698-1.891-8.546-.634-3.007-1.177-6.034-1.819-9.039-.005-.025-.049-.02-.046.006.319 3.025.875 6.034 1.485 9.012a78 78 0 0 0 1.88 7.938 56 56 0 0 1-2.552-4.47c-.35-.69-.667-1.395-.987-2.098a112 112 0 0 0-.996-5.152c-.205-.948-.407-1.897-.626-2.843a9.5 9.5 0 0 0-.833-2.537q2.441-.165 4.87-.372a.082.082 0 0 0 0-.164c-1-.1-1.991-.25-2.99-.36-.992-.108-1.995-.114-2.989-.22-1.945-.204-3.903-.29-5.852-.46-3.922-.342-7.891-.33-11.824-.516-3.616-.17-7.381-.134-10.911-1.02a20.2 20.2 0 0 1-7.955-4.509c-2.592-2.181-5.008-4.587-7.727-6.615-.136-.101-.3.12-.18.234 2.307 2.17 4.125 4.747 6.274 7.059a20.6 20.6 0 0 0 5.707 4.488 13 13 0 0 1-3.24-.638 22.3 22.3 0 0 1-5.915-2.96 40.6 40.6 0 0 1-5.326-4.642q-2.655-2.61-5.448-5.072a.047.047 0 0 0-.066.067c2.79 2.984 5.253 6.22 8.324 8.941a23.5 23.5 0 0 0 8.635 5.329c-1.205.558-2.391 1.126-3.545 1.792a40 40 0 0 0-3.638 2.446 67 67 0 0 0-6.658 5.582c-2.137 2.047-4.13 4.24-6.295 6.257a37.2 37.2 0 0 1-6.966 5.113 81 81 0 0 1-15.944 6.52 109.4 109.4 0 0 1-17.536 3.892 84 84 0 0 1-10.044.797c-1.705.032-3.41 0-5.115-.04-1.694-.039-3.418-.022-5.1-.22-.07-.009-.086.112-.017.122 1.48.213 2.933.53 4.42.703 1.506.175 3.019.277 4.533.33a88 88 0 0 0 9.184-.179 82 82 0 0 0 2.647-.232c1.513.658 3.016 1.336 4.52 2.014q1.19.536 2.372 1.087a12.7 12.7 0 0 0 2.32 1.015c.027.006.057-.032.03-.052a12 12 0 0 0-2.338-1.167q-1.188-.542-2.382-1.07a151 151 0 0 0-4.402-1.84 97.4 97.4 0 0 0 15.118-2.853 87 87 0 0 0 16.604-5.974c.379-.19.748-.396 1.12-.596a17.6 17.6 0 0 0-1.463 4.325c-.253.28-.529.543-.786.814-.538.566-1.052 1.153-1.598 1.712a34 34 0 0 1-3.323 3.001c-2.63 2.07-5.743 3.29-8.62 4.947-1.513.87-2.957 1.864-4.435 2.795-1.41.888-2.84 1.738-4.291 2.561a92 92 0 0 1-9.143 4.485c-1.77.76-3.567 1.458-5.357 2.172-1.83.731-3.646 1.486-5.523 2.092a.043.043 0 0 0 .023.083 83 83 0 0 0 9.893-3c3.197-1.263 6.309-2.708 9.38-4.25q2.343-1.177 4.688-2.35c1.558-.783 3.177-1.494 4.703-2.334a57.3 57.3 0 0 0 8.386-5.701 40 40 0 0 0 3.945-3.572 24 24 0 0 0 1.602-1.853c.074-.097.14-.207.21-.312a99 99 0 0 0-.517 3.585c-.202.3-.39.608-.604.899a38 38 0 0 1-3.15 3.698c-2.34 2.457-4.76 4.828-7.033 7.346-.11.12.037.346.185.24a51.8 51.8 0 0 0 7.815-6.92 33 33 0 0 0 2.513-3.106q-.095.772-.195 1.543c-.162 1.234-.344 2.467-.478 3.704a7.54 7.54 0 0 0 .304 3.56 8.34 8.34 0 0 0 3.99 4.013 16 16 0 0 0-1.727 4.348 19 19 0 0 0-.483 4.733 12.22 12.22 0 0 0 3.725 8.552 48 48 0 0 0 4.183 3.366q2.216 1.694 4.44 3.378c2.97 2.24 5.96 4.452 9.008 6.585 1.232.862 2.48 1.699 3.732 2.532-2.577-.01-5.25.816-7.743 1.137-3.983.512-8.026.538-12.035.667-8.18.263-16.375.448-24.552-.007a110.3 110.3 0 0 1-22.41-3.367 76 76 0 0 1-10.655-3.669 96 96 0 0 1-9.953-5.245c-1.876-1.092-3.765-2.174-5.734-3.092a31 31 0 0 0-5.77-2.211 57 57 0 0 0-6.229-1.051 55 55 0 0 0-6.352-.198.035.035 0 0 0 0 .07 26 26 0 0 1 3.647.53c-2.185.2-4.387.612-6.439.734a50.5 50.5 0 0 1-9.175-.66 139 139 0 0 0-9.288-.812c-6.217-.346-12.445-.357-18.67-.37a2986 2986 0 0 0-19.111-.002q-19.004.08-37.995.812c-12.644.487-25.338.945-37.946 2.042-12.638 1.1-25.298 1.97-37.917 3.275-1.57.163-3.14.32-4.714.454-.064.005-.066.105 0 .101 6.283-.353 12.576-.527 18.86-.889 6.286-.362 12.576-.644 18.865-.947 12.584-.606 25.165-1.312 37.753-1.848q18.889-.804 37.796-.992c12.546-.104 25.128-.251 37.671.11 3.482.101 6.962.275 10.432.584 3.42.304 6.827.93 10.26 1.056a45.5 45.5 0 0 0 9.124-1.057 21 21 0 0 1 5.824-.27q1.13.361 2.252.794c1.697.657 3.423 1.238 5.087 1.978 1.764.785 3.472 1.69 5.151 2.641 3.284 1.862 6.494 3.836 9.92 5.433a76.5 76.5 0 0 0 10.381 3.931c15.021 4.496 30.872 4.663 46.414 4.226 4.514-.127 9.06-.165 13.56-.566 4.064-.362 8.03-1.469 12.094-1.762 1.122.719 2.24 1.442 3.382 2.128a77 77 0 0 0 9.703 5.136 22.5 22.5 0 0 0 10.27 2.098 16.36 16.36 0 0 0 9.242-4.04 41 41 0 0 0 4.114-3.948 10.57 10.57 0 0 0 2.846-5.115 37.7 37.7 0 0 0 .362-6.649 31.7 31.7 0 0 0-.23-6.34c.239-.539.48-1.076.75-1.6a25 25 0 0 1 1.873-2.97 32.3 32.3 0 0 0 3.494-5.84 41.1 41.1 0 0 0 2.785-13.197q.111-1.454.209-2.907c.143-.045.288-.08.43-.13 2.61-.905 5.355-2.646 6.526-5.256a37.3 37.3 0 0 0 11.014 4.751c3.866.95 8.104 1.405 11.986.286a10.96 10.96 0 0 0 4.818-2.726 9.16 9.16 0 0 0 2.513-5.499c.483-4.454-1.704-8.787-3.841-12.536-2.313-4.056-4.997-7.904-7.03-12.117a46.4 46.4 0 0 1-3.26-10.118 2.3 2.3 0 0 0 1.307.272q1.106-.037 2.213-.063 2.09-.048 4.181-.074c2.748-.035 5.497-.027 8.244.009 5.542.072 11.081.259 16.62.445 5.537.187 11.074.373 16.614.44 5.526.068 11.072.089 16.584-.353a152 152 0 0 0 5.844-.598c1.233.345 2.464.693 3.702 1.017 2.006.524 4.083.805 6.125 1.154l12.473 2.127c7.41 1.264 15.335 2.852 22.517-.246a15.8 15.8 0 0 0 7.21-5.93c1.847-2.935 2.388-6.726.155-9.604M328.785 52.977c.223.866.47 1.715.642 2.596q.29 1.487.585 2.972.435 2.163.951 4.308-.692-1.57-1.313-3.174a10 10 0 0 0-1.55-2.904 11 11 0 0 0-.795-.848q-.084-.265-.166-.532c-.165-.552-.332-1.103-.489-1.657q-.086-.308-.175-.614c.77-.04 1.54-.095 2.31-.147m-2.577.163q.081.369.174.736c.14.538.287 1.073.45 1.604a15 15 0 0 0-1.316-1.048 22 22 0 0 0-1.932-1.195q1.312-.031 2.624-.097m1.73 79.638c-.637-1.258-1.344-2.485-1.99-3.738a189 189 0 0 1-2.477-4.965c-.006-.011-.027-.003-.022.01a78 78 0 0 0 2.253 4.99c.657 1.32 1.32 2.663 2.097 3.925-.02.028-.033.058-.054.086a17 17 0 0 1-1.119 1.326c-.52-1.194-1.142-2.36-1.69-3.522q-1.198-2.54-2.427-5.065c-.02-.038-.075-.005-.058.034q1.135 2.52 2.293 5.029c.567 1.221 1.081 2.508 1.697 3.723a37 37 0 0 1-1.084 1.096c-.446-.94-.968-1.853-1.419-2.788q-.885-1.838-1.66-3.729c-.005-.013-.028-.008-.022.006a51 51 0 0 0 1.478 3.61 28 28 0 0 0 1.514 3.006 104 104 0 0 1-.826.793 18.6 18.6 0 0 1-6.786 4.446q.107-.25.207-.494c.318-.761.584-1.542.889-2.309a29 29 0 0 0 1.506-4.631c.35-1.634.588-3.295.82-4.949.007-.043-.059-.063-.067-.018a42 42 0 0 1-2.452 7.556 24.3 24.3 0 0 1-1.75 3.542 8.7 8.7 0 0 1-.962 1.544c-.175.185-.256.154-.484.224a.5.5 0 0 0-.094.053c-.134.016-.27.016-.404.027a.15.15 0 0 0-.15.01 19.5 19.5 0 0 1-7.922-1.367 59 59 0 0 1-9.202-4.594 150 150 0 0 1-8.92-5.643c-5.831-3.963-11.435-8.249-17.032-12.535a16.9 16.9 0 0 1-3.99-3.81 10 10 0 0 1-1.555-4.264 15.8 15.8 0 0 1 .214-4.968 62 62 0 0 1 1.092-4.645c1.873.983 3.785 1.9 5.674 2.845l6.995 3.5c8.965 4.486 17.908 9.052 27.2 12.837 2.33.95 4.682 1.848 7.058 2.677a39 39 0 0 0 6.384 1.861 12.1 12.1 0 0 0 4.245.047c.595 1.324 1.229 2.63 1.862 3.935.379.782.769 1.56 1.154 2.339.243.49.493.981.762 1.462a7.7 7.7 0 0 1-.775 1.495m.905-1.805c-.176-.383-.366-.76-.553-1.135-.402-.805-.8-1.612-1.21-2.413a152 152 0 0 0-2.034-3.895 8 8 0 0 0 1.43-.429c.394.906.861 1.788 1.307 2.659.485.948.987 1.89 1.52 2.814a10 10 0 0 1-.46 2.399m.49-2.824a68 68 0 0 0-1.18-2.433c-.46-.903-.913-1.833-1.433-2.715a6.2 6.2 0 0 0 1.438-.924c.163.398.344.789.523 1.174a16 16 0 0 0 .836 1.552c-.058 1.116-.115 2.231-.184 3.346m.298-5.437q-.045.785-.086 1.571-.262-.561-.537-1.116c-.207-.422-.405-.853-.612-1.279a8.6 8.6 0 0 0 1.341-1.596c-.041.81-.062 1.62-.106 2.42m7.039-19.68c-.046.154-.1.303-.148.456-.443-1.473-1-2.923-1.56-4.343a80 80 0 0 0-2.347-5.348c-.009-.018-.036-.002-.027.016q1.272 2.735 2.341 5.556c.546 1.431 1.022 2.885 1.525 4.33-.183.57-.386 1.13-.6 1.687-.437-1.182-.9-2.356-1.357-3.528q-.982-2.512-1.988-5.015c-.008-.018-.037-.01-.03.009q.953 2.571 1.931 5.133c.453 1.185.904 2.375 1.383 3.553a25 25 0 0 1-.814 1.844c-.363-1.031-.786-2.05-1.169-3.053q-.909-2.38-1.865-4.742c-.01-.023-.047-.013-.038.01q.935 2.416 1.82 4.85c.381 1.05.72 2.137 1.113 3.195-.202.4-.403.801-.634 1.188-.147.247-.31.483-.466.723-.726-2.087-1.54-4.149-2.313-6.218-.006-.016-.032-.009-.026.008.758 2.095 1.479 4.212 2.287 6.29-.37.564-.76 1.115-1.15 1.666-.802-1.826-1.577-3.66-2.245-5.54-.004-.013-.023-.008-.019.004a51 51 0 0 0 2.246 5.563c-.672.95-1.346 1.898-1.927 2.908-.968 1.68-1.523 3.584-2.62 5.193a5.43 5.43 0 0 1-4.359 2.32 16.2 16.2 0 0 1-5.602-.947 121 121 0 0 1-6.506-2.275 275 275 0 0 1-25.548-11.652q-6.565-3.282-13.126-6.569c-2.017-1.01-4.11-1.935-6.05-3.091-1.58-.942-2.906-2.18-2.96-4.133a22.4 22.4 0 0 1 .335-3.491l.476-3.636c.286-2.185.506-4.396.985-6.549.766-3.437 2.776-7.342 6.668-7.867a5.7 5.7 0 0 1 2.458.177 8.3 8.3 0 0 0 1.326 1.875c1.893 2.022 4.558 3.183 7.06 4.249 2.986 1.27 6.043 2.362 9.138 3.332 6.324 1.982 12.766 3.593 19.164 5.312l9.899 2.66a86 86 0 0 0 9.622 2.29q1.161.173 2.335.251c.754 1.78 1.523 3.554 2.244 5.347.552 1.377 1.05 2.784 1.613 4.158-.149.617-.294 1.236-.475 1.845m.553-2.148c-.471-1.42-1.059-2.813-1.63-4.185a76 76 0 0 0-2.274-5.014c.697.045 1.395.065 2.09.048a69 69 0 0 1 1.325 3.135c.389.998.737 2.01 1.092 3.021a50 50 0 0 1-.603 2.995m.688-3.503a40 40 0 0 0-1.022-2.737 42 42 0 0 0-1.342-2.918c.455-.013.91-.037 1.364-.081.223.494.455.985.68 1.477.23.504.475 1.001.71 1.503-.11.921-.244 1.84-.39 2.756m.412-2.922c-.192-.432-.374-.868-.571-1.298-.234-.51-.462-1.025-.698-1.537.535-.056 1.07-.12 1.598-.226-.1 1.02-.207 2.04-.33 3.06m-5.224-4.744a50 50 0 0 1-8.83-1.828l-9.173-2.468c-6.034-1.623-12.087-3.189-18.095-4.907-2.925-.836-5.835-1.73-8.699-2.758a55 55 0 0 1-7.764-3.298c-2.094-1.143-4.457-2.882-4.863-5.407a6 6 0 0 1 .097-2.293l2.11-2.146c.449-.454.906-.897 1.363-1.34a33 33 0 0 0-1.232 3.544 28 28 0 0 0-.55 2.356 6.8 6.8 0 0 0-.232 2.202c.01.064.095.047.113 0a12 12 0 0 0 .427-2.29c.14-.766.298-1.531.484-2.288a32 32 0 0 1 1.18-3.711c1.868-1.8 3.805-3.521 5.78-5.207 1.223-1.044 2.505-2.024 3.768-3.02 1.297-1.024 2.538-2.11 3.831-3.137.071.018.14.044.21.06 1.616.376 3.473.604 4.923-.197 3.328.978 6.906 1.02 10.342 1.193q3.242.163 6.487.294c.421.085.902.089 1.145.125 1.064.156 2.121.329 3.17.57q1.572.362 3.103.88.764.258 1.518.545l.122.047c.154.193.299.392.462.578.774.882 1.813 1.539 2.506 2.493a13.8 13.8 0 0 1 1.403 3.084q.632 1.58 1.341 3.13a55.5 55.5 0 0 0 6.116 10.248c-.368 1.376-.756 2.747-1.122 4.124-.232.873-.467 1.748-.688 2.624a5 5 0 0 0-.351 2.485.15.15 0 0 0 .248.066 4.73 4.73 0 0 0 .886-2.335c.214-.879.4-1.768.573-2.656.262-1.345.456-2.7.643-4.055.242.316.467.644.715.955a45 45 0 0 0 1.743 2.024 17 17 0 0 0-.426 1.764q-.226 1.317-.504 2.624c-.178.84-.381 1.673-.582 2.507a12.5 12.5 0 0 1-.908 2.535l-.199-.164a.09.09 0 0 0-.121 0 8.4 8.4 0 0 1-1.073.748c.43-1.708.851-3.419 1.242-5.137q.299-1.314.588-2.63c.199-.907.477-1.816.652-2.723.049-.254-.334-.365-.392-.108-.206.907-.32 1.846-.517 2.76q-.284 1.318-.578 2.633c-.4 1.79-.8 3.579-1.21 5.366a.087.087 0 0 0 .125.096c.277-.161.55-.33.811-.517.255-.182.371-.345.636-.06a.116.116 0 0 0 .19-.05 47 47 0 0 0 2.03-5.064 19 19 0 0 0 .458-2.095 80 80 0 0 1 .84 3.966c.273 1.494.437 3.024.8 4.499a17.3 17.3 0 0 1-7.072.764m7.625-.958c-.13.05-.264.091-.396.138a26.3 26.3 0 0 0-.73-4.41 79 79 0 0 0-1.043-4.134c.02-.128.048-.254.067-.382a7.3 7.3 0 0 0 .051-1.544q.662.71 1.357 1.39.394 1.688.79 3.374c.206.878.4 1.76.594 2.64a23 23 0 0 0 .563 2.35 13 13 0 0 1-1.253.578m1.477-.695a19 19 0 0 0-.43-2.224c-.196-.88-.412-1.755-.63-2.63a79 79 0 0 0-.861-3.146q.73.707 1.49 1.384c.191.693.391 1.384.573 2.078a34 34 0 0 0 1.068 3.808 14 14 0 0 1-1.21.73m1.597-.994c-.084.062-.176.119-.263.18a19.5 19.5 0 0 0-.893-3.73 57 57 0 0 0-.596-1.83c.708.618 1.43 1.221 2.177 1.792l.1.36a11.3 11.3 0 0 0 .648 1.996.033.033 0 0 0 .062-.017 11.3 11.3 0 0 0-.524-2.03l-.04-.13c.519.391 1.04.78 1.576 1.146a13.4 13.4 0 0 1-2.247 2.263m138.997-39.34c-5.634 4.676-13.505 4.219-20.283 3.156-3.99-.627-7.968-1.344-11.95-2.022-3.615-.616-7.255-1.387-10.91-1.768a12.8 12.8 0 0 0 5.92-2.31c.06-.048-.006-.16-.077-.131a24.5 24.5 0 0 1-7.043 1.525c-2.67.22-5.336.314-8.013.346-5.487.067-10.97.232-16.459.178-10.958-.108-21.905-.689-32.862-.872q-3.218-.053-6.437-.046c-1.05-.904-2.16-1.733-3.265-2.57-.014-.01-.033.014-.019.025 1.05.869 2.098 1.741 3.2 2.545-.903.001-1.806-.002-2.709.007-1.558.016-3.116.047-4.673.101q-.905.032-1.809.072c.395-.22.795-.432 1.194-.645a24 24 0 0 0 2.154-1.233 11.4 11.4 0 0 0 1.87-1.697c.026-.028-.009-.077-.043-.055a18 18 0 0 1-2.283 1.107c-.777.358-1.555.714-2.336 1.06a69 69 0 0 0-2.263 1.048c-.177.086-.405.187-.64.303-.296-1.386-.585-2.774-.892-4.156.138.128.273.26.415.383a10 10 0 0 0 1.954 1.412.047.047 0 0 0 .056-.074 18 18 0 0 0-1.84-1.558q-.332-.264-.667-.526c-.433-1.922-.927-3.826-1.534-5.695.714.757 1.422 1.519 2.146 2.267 1.26 1.304 2.478 2.706 3.853 3.89a.033.033 0 0 0 .047-.046c-1.144-1.41-2.51-2.67-3.775-3.97-.772-.792-1.56-1.57-2.341-2.351a35 35 0 0 0-1.441-3.73l-.132-.274-.015-.2c-.099-1.375-.304-2.762-.513-4.124a30 30 0 0 0-.73-3.657 11.83 11.83 0 0 0-3.57-5.788 16.15 16.15 0 0 0-5.646-3.09c-.347-.113-.7-.193-1.05-.285 6.123.457 12.249.836 18.39 1.024q12.235.374 24.472-.115c3.987-.166 7.974-.49 11.967-.425a51.3 51.3 0 0 1 11.59 1.664c3.744.934 7.428 2.093 11.184 2.978a99 99 0 0 0 11.072 1.848c7.51.885 15.104 1.269 22.509 2.894a55.4 55.4 0 0 1 10.738 3.493 103 103 0 0 1 10.041 5.304c2.57 1.506 6.421 3.148 7.254 6.318.843 3.212-1.456 6.514-3.806 8.464"/><path fill="currentColor" d="M281.838 48.08c-2.188-1.899-4.498-3.64-6.706-5.516a95 95 0 0 1-6.39-5.927c-.087-.088-.21.041-.133.133a62 62 0 0 0 6.099 6.376 35.6 35.6 0 0 0 6.993 5.112c.108.058.238-.09.137-.178M177.719 77.357a60 60 0 0 0-7.238-.5 60 60 0 0 1-7.632-.673 11.3 11.3 0 0 0-3.68-.463 27 27 0 0 1-3.737.256c-2.529.06-5.063.028-7.59.14-2.822.127-5.64.26-8.463.345a.043.043 0 0 0 0 .086c4.977-.005 9.962.245 14.933.469 1.248.056 2.492.138 3.733.275.59.066 1.15.25 1.742.305a4 4 0 0 0 .848-.027c.598.394 1.194.793 1.797 1.18l1.593 1.023a9 9 0 0 0 1.493.839c-.344-.081-.689-.163-1.038-.231a3.7 3.7 0 0 0-1.276.085 8 8 0 0 1-1.091.033c0-.012.01-.024-.003-.035a17.3 17.3 0 0 0-2.68-1.677 36 36 0 0 0-2.924-1.434c-.031-.014-.06.03-.027.047.945.491 1.872 1.017 2.8 1.54.897.505 1.759 1.1 2.68 1.557l-.238-.002c-3.79.027-7.578.01-11.367.013a.031.031 0 0 0 0 .063c3.791.204 7.58.416 11.367.703a13 13 0 0 1 1.416.132 4.3 4.3 0 0 0 1.225.183c1.022-.08 2.01-.348 3.042-.381.375-.012.75-.002 1.125.01.06.03.12.069.183.095.067.028.107-.036.102-.093 1.425.057 2.85.216 4.272.154a.055.055 0 0 0 0-.11 16 16 0 0 0-.952-.087 1.3 1.3 0 0 0-.395-.467 31 31 0 0 0-.588-.498l-1.227-1.006a71 71 0 0 0-2.415-1.88c-.043-.031-.095.038-.057.074.753.698 1.51 1.385 2.292 2.05l1.139.967q.294.25.594.49a3 3 0 0 0 .352.25c-1.043-.057-2.093-.048-3.138-.094a9.5 9.5 0 0 0-1.539-1.181q-.893-.637-1.799-1.256a56 56 0 0 0-2.168-1.4 30 30 0 0 1 2.03-.11c.858.683 1.696 1.387 2.564 2.055.443.34.884.682 1.332 1.016a4.9 4.9 0 0 0 1.366.884.06.06 0 0 0 .066-.086 4.5 4.5 0 0 0-1.138-.992q-.69-.517-1.387-1.024c-.873-.636-1.769-1.236-2.653-1.856a56 56 0 0 1 3.873.067c2.818.136 5.624.487 8.449.415.13-.004.172-.216.032-.238m-12.501 1.501q.898.633 1.784 1.282c.382.28.768.616 1.18.883-.329-.021-.66-.038-.987-.08a15 15 0 0 1-1.594-.312c.028-.01.047-.045.022-.068a8.6 8.6 0 0 0-1.467-1.012l-1.62-.979c-.574-.347-1.154-.681-1.732-1.022.305-.045.608-.106.921-.156.402-.064.809-.099 1.214-.14q1.139.803 2.279 1.604"/><path fill="currentColor" d="M172.822 80.364c-.3-.302-.62-.585-.944-.86a16 16 0 0 0-2.042-1.457c-.027-.016-.047.023-.024.04.668.516 1.31 1.073 1.93 1.644.298.273.584.558.871.842a3.2 3.2 0 0 0 .877.784c.042.018.083-.033.072-.072a2.5 2.5 0 0 0-.74-.92m1.808.258c-.128-.135-.273-.257-.41-.382-.264-.24-.529-.488-.812-.706a19 19 0 0 0-1.79-1.217c-.016-.009-.033.013-.02.025.537.469 1.059.956 1.578 1.444.257.242.53.47.788.71.13.12.255.247.386.365a1.2 1.2 0 0 0 .194.157 1.2 1.2 0 0 0 .237.077.06.06 0 0 0 .073-.072.9.9 0 0 0-.224-.401m1.235-.202a4 4 0 0 0-.285-.238q-.278-.213-.56-.42-.58-.426-1.144-.869c-.023-.018-.055.012-.033.033q.504.496.995 1.006.237.249.479.493.128.13.267.248c.094.079.184.187.315.183a.157.157 0 0 0 .157-.156c-.015-.135-.097-.194-.191-.28m1.471-.54a5 5 0 0 0-.382-.24q-.404-.235-.795-.49c-.06-.039-.11.054-.055.095.25.184.495.37.735.568.117.096.234.187.36.272a1.3 1.3 0 0 0 .396.237c.078.018.16-.07.11-.144a1.3 1.3 0 0 0-.369-.298m.594-.439a.004.004 0 0 0 0-.008m-10.18-6.666a5.3 5.3 0 0 0-1.031-.616c-.398-.195-.797-.394-1.2-.578-.796-.362-1.6-.71-2.402-1.058-.036-.015-.068.034-.032.054.763.419 1.525.839 2.294 1.244.379.199.766.382 1.15.573a5.5 5.5 0 0 0 1.173.466c.045.01.09-.05.049-.085m3.25.358a6.8 6.8 0 0 0-1.456-1.037c-.506-.304-1.016-.6-1.537-.877q-1.617-.86-3.295-1.598c-.027-.012-.051.027-.024.04q1.632.821 3.202 1.758c.506.303 1.012.606 1.512.919a9.3 9.3 0 0 0 1.549.88c.05.02.082-.05.049-.085m2.176-.442a1.9 1.9 0 0 0-.544-.386l-.548-.328q-.588-.352-1.186-.684l-2.392-1.335a.016.016 0 0 0-.016.027l2.295 1.5q.574.376 1.157.734l.545.333a1.9 1.9 0 0 0 .594.302.099.099 0 0 0 .095-.163m1.466-.71a5 5 0 0 0-.755-.4l-.78-.356c-.059-.027-.11.057-.052.087l.775.397a5 5 0 0 0 .782.344c.044.013.065-.048.03-.072m1.281-.237a.6.6 0 0 0-.09-.08l-.088-.06-.196-.135-.386-.265c-.075-.05-.148.073-.071.121l.395.25a2.4 2.4 0 0 0 .398.234c.038.015.064-.04.038-.065m-3.104 16.685c-.261-.114-.543-.193-.811-.29a9 9 0 0 1-.898-.383 10.4 10.4 0 0 1-1.579-.948c-.025-.018-.057.023-.033.043a8.3 8.3 0 0 0 1.573 1.028 5.4 5.4 0 0 0 1.732.608.031.031 0 0 0 .016-.058m3.373-.62a7.4 7.4 0 0 0-1.37-.796l-1.384-.743c-.957-.513-1.93-.996-2.898-1.49-.027-.013-.05.026-.024.041.941.539 1.877 1.088 2.829 1.607l1.38.753a7.4 7.4 0 0 0 1.417.713c.047.013.089-.051.05-.085m1.454-1.13a7 7 0 0 0-.725-.307c-.249-.102-.502-.191-.754-.285l-1.537-.571c-.019-.008-.026.022-.008.03l1.495.613c.24.099.478.202.72.294a8 8 0 0 0 .785.283.031.031 0 0 0 .024-.057m.539-1.65a.023.023 0 0 0 0 .047 1.86 1.86 0 0 1 1.256.517c.022.02.055-.013.033-.034a1.9 1.9 0 0 0-1.29-.53m270.184-56.679a.027.027 0 0 0-.047.027 6.8 6.8 0 0 1 .658 4.023 36 36 0 0 1-.64 4.255c-.562 2.764-1.544 5.399-2.256 8.12a.13.13 0 0 0 .236.1 21.3 21.3 0 0 0 2.733-8.54c.34-2.547.8-5.702-.684-7.985M408.15 24.26c-.005-.026-.05-.02-.047.006a27.4 27.4 0 0 1 .065 6.584 21 21 0 0 1-.638 3.37 15 15 0 0 1-.624 1.573 4.3 4.3 0 0 0-.17 1.486c-.003.14.169.159.24.065a3.4 3.4 0 0 0 .747-1.386c.105-.574.141-1.162.24-1.738.187-1.078.35-2.165.443-3.255a27.5 27.5 0 0 0-.257-6.706"/><path fill="currentColor" d="M409.831 22.961a.02.02 0 0 0-.037.01 21.6 21.6 0 0 1-.608 9.977 17 17 0 0 0-.523 2.202 19 19 0 0 1-.17 2.045 10.1 10.1 0 0 1-1.92 3.84c-.032.044.037.09.074.056a8.16 8.16 0 0 0 1.937-3.454c.264-.732.6-1.427.893-2.144a10.8 10.8 0 0 0 .454-2.463c.485-3.342.847-6.774-.1-10.069m-70.158 25.702c-3.285.8-6.657 1.124-9.973 1.764-.09.017-.064.15.02.153a28.7 28.7 0 0 0 9.974-1.841.04.04 0 0 0-.021-.076M596.4 59.777c-23.49-18.67-63.15-21.62-63.15-21.62s.03.01.1.04c3.42 1.13 95.91 32.19-2.87 39.85-.1.01-.19.01-.29.02h-.005V64.204L493.76 83.267l36.425 16.851V87.543c19.807-.416 93.496-3.587 66.215-27.766"/><path fill="currentColor" d="M533.35 38.197c-.07-.03-.1-.04-.1-.04M268.976 76.938q-.828 2.516-1.68 5.023c-.273.804-.516 1.626-.837 2.411a8 8 0 0 0-.603 1.256c-.083.405.026.821-.018 1.236-.009.079.11.104.145.04a9 9 0 0 0 .69-1.05 9 9 0 0 0 .213-1.364c.175-.828.447-1.641.678-2.455q.722-2.544 1.464-5.082a.027.027 0 0 0-.052-.015m.56 4.612q-.686 2.246-1.382 4.489l-.683 2.202c-.05.163-.096.329-.157.488a8 8 0 0 1-.416.664c-.143.296.02.562.048.858a.11.11 0 0 0 .204.056c.187-.245.46-.373.497-.711.022-.21-.049-.417-.02-.633a5 5 0 0 1 .153-.637l.6-2.225q.61-2.266 1.232-4.53a.04.04 0 0 0-.076-.02m-2.952 11.079-.011-.171a.047.047 0 1 0-.094 0l-.012.17-.005.084a.2.2 0 0 0 0 .05l.007.045a.06.06 0 0 0 .114 0l.006-.041a.2.2 0 0 0 .001-.054Zm2.41 8.15c-.839 3.498-1.58 7.014-2.105 10.574-.007.048.063.07.075.02.875-3.49 1.53-7.024 2.09-10.577.006-.039-.05-.057-.06-.017m59.866 6.103c-1.559 3.909-3.178 7.824-4.45 11.838a.75.75 0 0 1-.296-.49 5 5 0 0 1 .178-1.5 19 19 0 0 1 .747-2.578 8.6 8.6 0 0 1 1.278-2.563 6.5 6.5 0 0 0 .89-2.304 77 77 0 0 0 2.036-11.043c.004-.03-.04-.042-.045-.012a46.3 46.3 0 0 1-2.755 10.67 7.2 7.2 0 0 0-.873 2.276 7.9 7.9 0 0 1-.502 2.403c-.575 1.647-.956 3.39-1.63 4.997a.35.35 0 0 0 .092.35q.404.319.81.637a.37.37 0 0 0 .606-.16c1.325-4.178 2.515-8.374 4.05-12.484.032-.085-.102-.12-.135-.037m-2.169-6.108q-.818 2.64-1.654 5.273c-.277.872-.561 1.742-.826 2.617a10.5 10.5 0 0 0-.65 2.228c-.004.064.073.08.114.047a3.6 3.6 0 0 0 .95-1.976c.261-.903.486-1.818.725-2.727q.714-2.72 1.446-5.433a.055.055 0 0 0-.105-.03m-3.906 11.918-.173.78a7 7 0 0 0-.147.775c-.008.073.102.08.123.016a7 7 0 0 0 .193-.76l.17-.765c.024-.108-.142-.154-.166-.046m-35.12-98.459c-2.654-1.055-5.35-1.994-8.04-2.95-.014-.006-.02.016-.006.022 2.666 1.022 5.327 2.063 8.03 2.988.038.013.053-.046.016-.06m.976-2.247c-1.92-.665-3.818-1.366-5.762-1.957-.046-.014-.078.058-.033.079a33.4 33.4 0 0 0 5.785 1.915.02.02 0 0 0 .01-.037m3.676 1.005a1.3 1.3 0 0 0-.694-.28c-.246-.053-.5-.082-.749-.122-.52-.083-1.03-.174-1.542-.295a.004.004 0 0 0-.002.007 21 21 0 0 1 1.487.497c.235.087.47.186.71.26a1.3 1.3 0 0 0 .747.096.1.1 0 0 0 .043-.163m2.672-1.565c-.201-.148-.204-.216-.445-.257a3 3 0 0 0-.373-.022 6 6 0 0 1-1.187-.181q-.982-.247-1.961-.509c-1.356-.36-2.704-.747-4.064-1.095a.035.035 0 0 0-.018.068c1.346.484 2.72.878 4.103 1.243.678.179 1.36.347 2.041.513a7 7 0 0 1 1.122.397 1.03 1.03 0 0 0 .754.05c.106-.02.098-.155.027-.207m1.531-1.336c-.083-.079-.09-.122-.198-.168a2 2 0 0 0-.245-.076c-.199-.058-.402-.101-.603-.15-.376-.092-.749-.195-1.123-.294a23 23 0 0 1-2.285-.722c-.05-.02-.085.063-.036.085.724.327 1.456.64 2.2.92.376.141.759.262 1.143.378.185.056.37.113.559.155a2 2 0 0 0 .294.057c.122.01.148-.026.262-.06a.075.075 0 0 0 .032-.125m.996-1.383a11.5 11.5 0 0 0-1.858-.589.043.043 0 0 0-.023.083 11.4 11.4 0 0 0 1.851.577c.04.007.073-.052.03-.071m-80.511 71.308a76 76 0 0 1-7.159-4.07c-.01-.006-.02.01-.01.017a43.4 43.4 0 0 0 7.147 4.09c.025.01.047-.024.022-.037m7.24.009c-1.07-.682-2.283-1.086-3.408-1.66-1.054-.539-2.07-1.145-3.085-1.75q-3.146-1.879-6.21-3.894c-.012-.009-.024.012-.011.02q3.047 2.04 6.207 3.897c1.019.599 2.053 1.173 3.062 1.788a26 26 0 0 0 3.244 1.942c.217.138.416-.205.2-.343m6.582-1.034.012-.012a23 23 0 0 0-3.535-1.817 116 116 0 0 1-3.515-1.853c-2.222-1.216-4.346-2.883-6.768-3.683-.037-.012-.072.043-.04.069 2.022 1.621 4.619 2.505 6.88 3.738 1.161.633 2.32 1.272 3.46 1.943a22.3 22.3 0 0 0 3.38 1.932c.202.075.283-.209.126-.317m7.399-.47a12.9 12.9 0 0 0-3.28-1.74 55 55 0 0 1-3.59-1.872c-2.173-1.239-4.226-2.712-6.672-3.356-.012-.003-.016.015-.005.02 1.197.493 2.292 1.236 3.444 1.824 1.13.578 2.286 1.104 3.412 1.69q1.684.877 3.309 1.867a12.9 12.9 0 0 0 3.25 1.796.138.138 0 0 0 .132-.229m5.109-1.782c-.552-.261-1.13-.476-1.695-.704a40 40 0 0 1-3.954-1.867c-2.452-1.315-4.847-2.76-7.218-4.217-.022-.013-.04.02-.02.034a52 52 0 0 0 6.817 4.214c1.167.608 2.355 1.175 3.515 1.796q.867.466 1.76.882c.533.247 1.01.596 1.533.842a.12.12 0 0 0 .175-.134c-.115-.443-.52-.66-.913-.846m4.661-1.802a1.9 1.9 0 0 0-1.03-.55c-.527-.195-1.056-.384-1.582-.583a23 23 0 0 1-3.135-1.49c-1.944-1.101-3.823-2.303-5.788-3.367a.037.037 0 0 0-.038.064 59 59 0 0 0 5.867 3.443q1.503.783 2.992 1.593c.494.27.992.53 1.505.762a1.82 1.82 0 0 0 1.137.306.122.122 0 0 0 .072-.178m5.999-.83a14.3 14.3 0 0 0-2.677-1.13 68 68 0 0 1-3.063-1.302 47 47 0 0 1-5.531-2.917c-.013-.008-.024.012-.012.02a52 52 0 0 0 5.54 3.306c.901.455 1.824.865 2.758 1.245a9.7 9.7 0 0 0 2.945.923c.082.006.1-.106.04-.145m4.605-1.964c-.256-.317-.729-.38-1.1-.513q-.629-.224-1.253-.46a78 78 0 0 1-2.63-1.056c-1.75-.737-3.522-1.466-5.228-2.304-.027-.014-.05.025-.023.04a55 55 0 0 0 5.156 2.666q1.25.544 2.521 1.034.667.259 1.34.504a2.1 2.1 0 0 0 1.168.275.113.113 0 0 0 .049-.186m4.567-2.213a15 15 0 0 0-2.285-.688c-.837-.275-1.647-.613-2.466-.937-1.65-.652-3.339-1.238-4.96-1.958-.012-.005-.022.01-.01.017a43 43 0 0 0 4.716 2.183c.822.303 1.666.544 2.5.812a11.3 11.3 0 0 0 2.453.764.104.104 0 0 0 .052-.193m2.579-2.494a6.3 6.3 0 0 0-1.609-.39c-.573-.122-1.141-.262-1.71-.402-1.132-.278-2.276-.562-3.378-.942-.027-.01-.036.031-.012.041a32 32 0 0 0 3.358 1.253c.561.165 1.132.3 1.703.425a4.7 4.7 0 0 0 1.62.222.114.114 0 0 0 .028-.207m2.835-2.592a12.5 12.5 0 0 0-1.766-.156c-.603-.014-1.214.018-1.815-.05-.045-.004-.056.073-.01.081.597.115 1.182.273 1.79.329a5.6 5.6 0 0 0 1.802-.117c.04-.01.044-.08 0-.087m2.209-1.815c-.114.017-.23.045-.343.067-.107.02-.214.031-.322.045a2.5 2.5 0 0 1-.693-.006c-.041-.007-.06.052-.018.064a2.5 2.5 0 0 0 .717.083 1.4 1.4 0 0 0 .684-.196.031.031 0 0 0-.024-.057m3.915-1.754c-.125-.017-.249-.042-.374-.058a2 2 0 0 0-.387-.008c-.26.012-.52.04-.78.059a.043.043 0 0 0 0 .086c.26.019.52.047.78.06a2.4 2.4 0 0 0 .387-.009c.126-.015.249-.04.374-.058a.037.037 0 0 0 0-.072m2.364-1.682-.134.07-.071.036-.07.032-.256.167a.064.064 0 0 0-.022.086.063.063 0 0 0 .085.022l.258-.176a.2.2 0 0 0 .037-.033l.025-.024.053-.044.121-.102c.02-.017-.005-.045-.026-.034m-78.64-30.737c-.022-.004-.031.029-.009.034a15.5 15.5 0 0 1 6.8 3.684.027.027 0 0 0 .038-.039 12.37 12.37 0 0 0-6.829-3.679m9.557 2.655a16.4 16.4 0 0 0-6.807-3.616.014.014 0 0 0-.007.027 23.9 23.9 0 0 1 6.776 3.639c.029.02.063-.026.038-.05m1.377-2.232a9.2 9.2 0 0 0-4.443-2.058.01.01 0 0 0-.005.019 14 14 0 0 1 2.293.927c.719.363 1.402.791 2.115 1.164.032.017.068-.025.04-.052m1.493-1.815c-.36-.144-.72-.282-1.09-.398-.367-.117-.739-.216-1.111-.317-.018-.004-.024.02-.008.027.361.14.72.281 1.088.406a15 15 0 0 0 1.11.324.022.022 0 0 0 .01-.042m86.393 18.332a227 227 0 0 1-2.049-1.631 125 125 0 0 1-3.968-3.306c-.022-.02-.055.013-.033.034a115 115 0 0 0 3.85 3.529 78 78 0 0 0 1.943 1.63 8.2 8.2 0 0 0 1.992 1.413.071.071 0 0 0 .08-.103 9 9 0 0 0-1.815-1.566m5.704.863a14 14 0 0 1-1.392-1.008c-.835-.722-1.645-1.471-2.465-2.21q-2.434-2.196-4.845-4.416c-.015-.014-.037.007-.022.022 1.581 1.551 3.173 3.09 4.828 4.563.804.714 1.63 1.4 2.446 2.098a14 14 0 0 1 1.173 1.162 2.47 2.47 0 0 0 1.157.839.075.075 0 0 0 .084-.11 2.44 2.44 0 0 0-.964-.94m-2.325-6.173a.027.027 0 0 0-.039.04c.93.997 1.864 1.995 2.862 2.924a.023.023 0 0 0 .033-.034c-.905-1.02-1.88-1.977-2.856-2.93m7.617 6.91a1.4 1.4 0 0 0-.278-.285 9 9 0 0 0-.596-.475c-.413-.308-.834-.605-1.215-.953-.01-.01-.027.006-.016.017a16 16 0 0 1 1.037 1.152c.166.193.333.387.517.563a1.4 1.4 0 0 0 .29.248 3 3 0 0 0 .347.148c.06.022.096-.05.075-.098a3 3 0 0 0-.161-.317m4.76.074c-.266-.174-.544-.332-.813-.502a26 26 0 0 1-1.62-1.119q-1.604-1.194-3.14-2.474c-.01-.008-.023.006-.014.014q1.486 1.299 3.038 2.518a97 97 0 0 1 1.495 1.19c.26.212.516.43.78.637a1.06 1.06 0 0 0 .688.323.07.07 0 0 0 .066-.087 1 1 0 0 0-.48-.5m4.569.419c-.605-.457-1.249-.855-1.87-1.289a55 55 0 0 1-1.839-1.32c-.024-.02-.056.022-.033.042.574.48 1.158.953 1.767 1.387a14.5 14.5 0 0 0 1.945 1.23.03.03 0 0 0 .03-.05m1.226-.908a.02.02 0 0 0-.02.034c.618.352 1.235.704 1.863 1.039a.014.014 0 0 0 .013-.024c-.613-.36-1.235-.704-1.857-1.048m6.28 1.709a2 2 0 0 1-.366-.01 2 2 0 0 1-.356-.098 1.4 1.4 0 0 1-.592-.426c-.054-.066-.149.029-.094.094a1.5 1.5 0 0 0 .644.447 1.27 1.27 0 0 0 .77.038.024.024 0 0 0-.006-.046m15.488-5.899a39.2 39.2 0 0 1-7.167-3.586c-.027-.019-.05.025-.025.044a18.5 18.5 0 0 0 7.163 3.61c.039.008.07-.05.029-.068m3.617-.962a12.6 12.6 0 0 0-2.685-1.112q-1.444-.58-2.847-1.263a48 48 0 0 1-5.257-2.961c-.017-.011-.032.015-.016.027a36 36 0 0 0 5.273 3.314q1.303.664 2.656 1.22a8.3 8.3 0 0 0 2.84.906.07.07 0 0 0 .036-.131m.869-2.012c-.339-.12-.679-.237-1.016-.361a51 51 0 0 1-1.943-.76 35 35 0 0 1-3.92-1.876.018.018 0 0 0-.019.03 38 38 0 0 0 3.745 2.133 28 28 0 0 0 2.91 1.21c.24.083.503.222.737.074a.08.08 0 0 0 .037-.09c-.093-.236-.303-.28-.53-.36m2.558-1.349c-.11-.185-.286-.214-.485-.26l-.661-.155a29 29 0 0 1-1.403-.385 19 19 0 0 1-2.799-1.02c-.047-.022-.088.046-.041.07a22 22 0 0 0 2.652 1.268c.455.171.918.315 1.387.442.25.068.5.132.754.183a.66.66 0 0 0 .569-.038.08.08 0 0 0 .027-.105m1.32-1.677a2.5 2.5 0 0 0-.732-.235q-.383-.088-.77-.155-.79-.137-1.561-.352c-.019-.005-.033.024-.014.032q.74.319 1.504.577a6 6 0 0 0 .787.201 2 2 0 0 0 .772.04.06.06 0 0 0 .014-.108M336.14 64.734q-1.176-4.586-2.128-9.227c-.002-.01-.017-.006-.015.004q.807 4.675 1.885 9.294a60 60 0 0 0 2.601 9.113.045.045 0 0 0 .087-.024c-.624-3.085-1.649-6.11-2.43-9.16m5.748 11.04c-.27-.718-.519-1.445-.771-2.17a251 251 0 0 1-1.433-4.248q-1.4-4.259-2.623-8.575a.008.008 0 0 0-.015.004q1.138 4.4 2.49 8.737c.445 1.426.917 2.844 1.4 4.258a24.5 24.5 0 0 0 1.518 4.112.075.075 0 0 0 .136-.057 13 13 0 0 0-.702-2.061m4.277 5.186q-.008-.022-.018-.042v-.003c-.015-.025-.022-.054-.036-.08-.193-.483-.441-.942-.67-1.41a20 20 0 0 1-.8-1.958q-.607-1.67-1.164-3.36-1.157-3.486-2.067-7.05a.012.012 0 0 0-.023.006q.87 3.633 2.029 7.184a83 83 0 0 0 1.23 3.464c.42 1.112.69 2.311 1.185 3.39.09.194.363.049.32-.14Zm.913-2.487q-.907-2.44-1.676-4.928a.006.006 0 0 0-.01.003 67 67 0 0 0 3.527 9.795c.023.047.105.013.086-.037-.625-1.618-1.322-3.206-1.927-4.833m3.867 3.105q-.495-1.2-.917-2.427c-.006-.017-.032-.01-.026.007q.393 1.258.87 2.487a16.4 16.4 0 0 0 1.052 2.329c.01.018.043.006.035-.015-.303-.807-.685-1.584-1.014-2.381m3.252 1.002a.012.012 0 0 0-.02.012c.226.397.445.8.682 1.19a.012.012 0 0 0 .02-.011c-.218-.402-.454-.795-.682-1.191m18.148-6.026c-.467.358-.888.767-1.368 1.112a14 14 0 0 1-1.496.934 13.7 13.7 0 0 1-3.377 1.28c-.02.005-.012.035.008.03a13.8 13.8 0 0 0 3.367-1.21 13 13 0 0 0 1.552-.941 8 8 0 0 0 1.378-1.122c.037-.041-.014-.12-.064-.083m-11.011-15.072a4.74 4.74 0 0 0-1.913 1.501c-.01.014.014.033.025.02a5.34 5.34 0 0 1 1.9-1.5c.014-.007.002-.027-.012-.02m-82.491 7.278c-.01-.014-.033 0-.023.014a33.6 33.6 0 0 0 3.326 4.655c.017.02.043-.008.028-.027-1.17-1.506-2.313-3.027-3.33-4.642m.359-2.738c-.007-.01-.024 0-.017.01a67.6 67.6 0 0 0 6.042 8.234c.017.02.053-.007.036-.028-2.068-2.708-4.154-5.39-6.061-8.216m7.755 7.534a99 99 0 0 1-1.82-2.365q-1.69-2.27-3.224-4.649c-.012-.019-.042-.001-.03.018q1.533 2.426 3.223 4.747a36 36 0 0 0 3.478 4.36c.015.015.044-.005.03-.023-.51-.726-1.106-1.393-1.657-2.088m1.548-1.533-3.094-4.068c-.012-.016-.039 0-.027.016l3.081 4.168c.994 1.345 1.956 2.74 3.042 4.012.018.02.052-.006.037-.029-.928-1.418-2.013-2.75-3.039-4.1m2.016-.156c-.006-.008-.02 0-.014.008 1.37 1.92 2.704 3.876 4.142 5.746.009.011.03 0 .02-.012-1.321-1.955-2.757-3.836-4.148-5.742m4.261 3.909-.006.006 1.513 1.72.005-.006zm3.929 2.193c-.008-.006-.016.007-.008.013l.679.513c.006.005.012-.005.006-.01zm-29.965 14.655c-.01-.018-.036-.002-.027.016a31 31 0 0 0 2.894 4.601c.01.014.034-.004.024-.019-1.016-1.506-2.023-2.999-2.89-4.598m.699-3.244a.016.016 0 0 0-.027.015 91 91 0 0 0 7.258 11.28c.008.01.026-.003.019-.014-2.504-3.716-5.022-7.388-7.25-11.282m6.993 6.834q-1.94-2.865-3.68-5.858a.014.014 0 0 0-.023.014 87 87 0 0 0 3.688 5.976 57 57 0 0 0 4.057 5.48c.014.016.043-.006.03-.024-1.347-1.872-2.776-3.677-4.071-5.588m6.865 5.931q-1.084-1.525-2.139-3.072-2.103-3.096-4.036-6.303a.008.008 0 0 0-.014.008q1.92 3.28 4.012 6.452 1.032 1.561 2.11 3.089a29 29 0 0 0 2.185 2.908.03.03 0 0 0 .046-.035c-.64-1.062-1.446-2.036-2.164-3.047m-.744-5.112c-.007-.01-.024 0-.017.01 2.017 3.223 4.017 6.48 6.202 9.593.02.028.065.003.047-.028-1.952-3.265-4.11-6.418-6.232-9.575m5.108 4.255c-.012-.017-.039-.001-.028.016a52 52 0 0 0 4.579 6.314c.018.022.057-.007.04-.03-1.541-2.097-3.147-4.133-4.592-6.3m4.708 3.955-.006.006 1.383 1.685c.006.008.017-.003.01-.01zm-24.109 3.876c-.019-.036-.072-.005-.054.031a342 342 0 0 0 2.875 5.626c.009.018.035.002.027-.016a344 344 0 0 0-2.848-5.641m1.36-1.7c-.01-.02-.04-.003-.03.018a116 116 0 0 0 5.605 10.557.018.018 0 0 0 .03-.017c-1.965-3.47-3.873-6.966-5.605-10.558m3.691 3.602c-.003-.004-.01 0-.007.005a99 99 0 0 0 6.874 11.19c.01.014.034.001.024-.014-2.408-3.668-4.78-7.33-6.891-11.18m4.793 4.921c-.01-.015-.033-.001-.024.013 1.792 2.733 3.512 5.534 5.405 8.198.012.016.038.002.027-.016-1.703-2.789-3.601-5.472-5.408-8.195m4.971 4.4c-.012-.016-.04 0-.027.016 1.426 1.944 2.73 3.964 4.028 5.996a.012.012 0 0 0 .02-.012 64 64 0 0 0-4.021-6m4.744 4.101c-.008-.01-.025 0-.017.01.853 1.19 1.702 2.383 2.567 3.564.009.012.029 0 .02-.012-.847-1.194-1.71-2.377-2.57-3.562m4.408 5.287c-.019-.017-.047.011-.027.027a8.4 8.4 0 0 1 1.407 1.49c.009.013.03.001.02-.011a8.5 8.5 0 0 0-1.4-1.506m37.441-20.932-.002.003.17.17.002-.003Zm-8.108 22.788c-.01-.027-.055-.016-.045.013a34.6 34.6 0 0 0 2.356 5.462c.017.029.057.003.044-.026-.782-1.82-1.643-3.598-2.355-5.449m-.522 3.743c-.005-.01-.018-.002-.014.008.277.627.544 1.259.832 1.88.007.015.026.003.02-.011-.268-.63-.558-1.252-.838-1.877m38.09-105.182c-.018-.018-.045.01-.028.028 3.197 3.432 6.347 6.933 9.663 10.25.04.04.097-.02.06-.06-3.126-3.496-6.447-6.836-9.695-10.218m10.369 7.034c-.217-.24-.443-.474-.667-.708q-.654-.683-1.32-1.355c-.885-.898-1.788-1.778-2.682-2.667-.014-.014-.035.007-.022.022.842.942 1.674 1.892 2.524 2.825q.618.682 1.246 1.352c.222.237.442.476.67.705a2.8 2.8 0 0 0 .674.57.057.057 0 0 0 .078-.078 2.6 2.6 0 0 0-.5-.666m-1.372-4.467a24 24 0 0 0-1.498-1.225c-.01-.006-.02.009-.012.016q.743.614 1.435 1.284c.462.447.9.923 1.376 1.353.025.022.072-.008.049-.038a10 10 0 0 0-1.35-1.39m7.693 10.615-2.699-2.33c-.015-.012-.037.01-.022.023l2.67 2.358c.888.786 1.762 1.598 2.697 2.33.016.011.037-.008.022-.023-.848-.828-1.771-1.584-2.668-2.358m5.081.539q-.507-.496-1.016-.991l-2.031-1.982a270 270 0 0 0-4.097-3.929.01.01 0 0 0-.014.014 270 270 0 0 0 4.01 4.015l1.967 1.936q.505.498 1.012.995a6.6 6.6 0 0 0 1 .903.026.026 0 0 0 .035-.035 6.2 6.2 0 0 0-.866-.926m5.152.899c-2.994-2.91-6.073-5.737-9.102-8.61-.026-.023-.064.015-.039.04l4.508 4.348c.73.704 1.462 1.405 2.188 2.112q.577.562 1.152 1.126l.512.5c.119.116.474.39.489.5a.035.035 0 0 0-.07 0 .203.203 0 0 0 .362.122.1.1 0 0 0 0-.138m3.782.031.01-.007c-.638-.735-1.4-1.378-2.09-2.065q-1.039-1.036-2.052-2.098-2.025-2.124-3.94-4.35c-.01-.01-.026.006-.016.017q1.864 2.272 3.838 4.451.959 1.058 1.943 2.093a25 25 0 0 0 2.125 2.143.13.13 0 0 0 .182-.184m3.869.16a15 15 0 0 0-1.718-2.011q-.963-1.047-1.961-2.06a74 74 0 0 0-4.101-3.84c-.013-.011-.032.007-.02.02q1.984 1.933 3.893 3.94.931.975 1.842 1.97a23 23 0 0 0 1.933 2.083c.07.059.187-.016.132-.102m-3.781-7.987c-.013-.011-.032.007-.02.02.866.785 1.651 1.643 2.438 2.504.01.012.031-.004.022-.016a15.5 15.5 0 0 0-2.44-2.508m6.448 7.14-.279-.29a12 12 0 0 0-.581-.579 13 13 0 0 1-1.126-1.2c-.025-.029-.065.013-.041.041a12.5 12.5 0 0 1 1.003 1.303c.14.217.299.424.454.63l.241.32c.082.108.169.255.313.277a.17.17 0 0 0 .21-.16.5.5 0 0 0-.194-.342m2.606-1.212.01-.005a14 14 0 0 0-1.21-1.518q-.644-.77-1.307-1.525a81 81 0 0 0-2.74-2.94c-.016-.016-.04.008-.025.025.878.99 1.723 2.014 2.555 3.044q.638.79 1.257 1.596c.39.508.745 1.074 1.183 1.54.15.16.378-.06.277-.217m1.443-2.445a2 2 0 0 0-.144-.262 6 6 0 0 0-.358-.491q-.398-.505-.829-.983a30 30 0 0 0-1.79-1.804.01.01 0 0 0-.014.014 27 27 0 0 1 1.602 1.99q.361.489.708.988c.116.166.232.333.357.491a3 3 0 0 0 .203.236 2 2 0 0 0 .241.17c.046.035.109-.024.095-.073a2 2 0 0 0-.071-.276m1.331-3.164a3 3 0 0 0-.23-.368 5 5 0 0 0-.548-.64 8 8 0 0 0-1.34-1.027c-.015-.01-.027.013-.014.023a7 7 0 0 1 1.186 1.173q.26.315.502.642.116.156.235.309a1.1 1.1 0 0 0 .27.289.045.045 0 0 0 .068-.039.9.9 0 0 0-.13-.362m10.158 7.14a19.2 19.2 0 0 0-3.745-2.572.023.023 0 0 0-.023.04 45 45 0 0 1 3.737 2.572c.023.017.052-.021.03-.04m6.281.858a.031.031 0 0 0-.016.058 14.4 14.4 0 0 1-2.263-1.624l-2.122-1.57q-2.192-1.623-4.381-3.25c-.023-.017-.054.022-.03.04q2.852 2.206 5.699 4.42c.884.687 1.751 1.43 2.682 2.05.109.073.47.33.558.067a.135.135 0 0 0-.127-.191m4.623-.354a29 29 0 0 0-2.527-2.217q-1.329-1.112-2.684-2.192a125 125 0 0 0-5.313-3.99c-.02-.014-.04.02-.02.034a177 177 0 0 1 5.442 4.264q1.266 1.03 2.51 2.088c.83.706 1.627 1.482 2.505 2.127.068.05.142-.056.087-.114m3.791-.812a89 89 0 0 0-1.034-.863l-2.217-1.814c-1.454-1.192-2.89-2.405-4.33-3.613-.015-.013-.037.008-.022.022 1.428 1.26 2.86 2.513 4.272 3.79q1.028.928 2.054 1.857.53.479 1.069.947a3.4 3.4 0 0 0 1.001.728c.086.03.151-.076.113-.147a3.5 3.5 0 0 0-.906-.907m5.193.71a6.4 6.4 0 0 0-1.815-1.618 37 37 0 0 1-2.17-1.81c-1.338-1.194-2.674-2.39-4.028-3.567-.017-.015-.042.01-.025.025 1.348 1.223 2.713 2.425 4.078 3.63a35 35 0 0 1 1.95 1.846 6.5 6.5 0 0 0 1.882 1.66c.097.04.171-.088.128-.166m2.992-1.018c-.305-.214-.59-.46-.874-.702-.529-.45-1.017-.943-1.53-1.41a20.5 20.5 0 0 0-3.281-2.396c-.011-.006-.02.01-.01.017 1.117.818 2.202 1.681 3.294 2.53a13 13 0 0 1 1.489 1.297 7 7 0 0 1 .719.858c.165.241.296.456.596.519a.083.083 0 0 0 .1-.1c-.05-.305-.262-.445-.503-.613m3.45-.259-1.171-.98c-.771-.646-1.564-1.262-2.348-1.891-.023-.019-.056.012-.034.033.75.665 1.487 1.34 2.25 1.99l1.127.96a6 6 0 0 0 1.148.893c.033.016.082-.02.056-.056a5.8 5.8 0 0 0-1.028-.949m2.283-.653c-.191-.173-.381-.349-.576-.519l-1.152-1.006c-.015-.013-.037.008-.022.022l1.1 1.059q.272.26.55.513a3.4 3.4 0 0 0 .566.477c.024.014.057-.015.04-.04a3.3 3.3 0 0 0-.506-.506m1.659-.852a.025.025 0 0 0 0 .05.025.025 0 0 0 0-.05m1.848.082q-.521-.48-1.063-.935-1.042-.879-2.139-1.69c-.017-.012-.041.018-.023.031q1.085.846 2.115 1.76.5.445.99.9a12 12 0 0 0 1.003.9c.02.014.05-.015.035-.035a7.6 7.6 0 0 0-.918-.93m1.742-1.713q-.252-.254-.515-.499-.536-.506-1.08-1.005-1.07-.985-2.124-1.988a.016.016 0 0 0-.022.022q1.014 1.042 2.013 2.1.491.523.99 1.038.247.26.504.51a1.6 1.6 0 0 0 .508.39.077.077 0 0 0 .094-.093 1.5 1.5 0 0 0-.368-.474m-1.536-4.322a.03.03 0 0 0-.03.05 5.4 5.4 0 0 1 1.375 1.167c.01.014.035-.004.024-.018a4.2 4.2 0 0 0-1.37-1.2m5.768 10.588a3.4 3.4 0 0 0-.552-.456 8 8 0 0 0-.628-.406 5.3 5.3 0 0 0-1.341-.579.01.01 0 0 0-.008.018c.423.233.865.428 1.282.674.202.12.403.24.598.372.205.137.404.295.616.42a.027.027 0 0 0 .033-.043m6.124 1.381a37 37 0 0 0-3.589-2.557c-1.25-.847-2.508-1.682-3.763-2.521-.023-.016-.044.02-.022.037 1.207.873 2.41 1.75 3.623 2.616a37 37 0 0 0 3.687 2.508c.05.027.11-.042.064-.083m5.365.561a14.5 14.5 0 0 0-2.55-2.142 125 125 0 0 0-2.52-1.921 105 105 0 0 0-5.495-3.777c-.01-.007-.02.01-.01.017q2.672 1.925 5.294 3.92c.905.687 1.809 1.373 2.702 2.075a16.4 16.4 0 0 0 2.518 1.908.051.051 0 0 0 .061-.08m3.29-.438q-.54-.48-1.09-.95-1.163-.995-2.355-1.957a102 102 0 0 0-4.694-3.54c-.017-.013-.032.014-.016.026a113 113 0 0 1 4.702 3.761q1.106.929 2.187 1.887.54.48 1.076.963a5 5 0 0 0 1.082.855.041.041 0 0 0 .056-.056 4.5 4.5 0 0 0-.948-.988m-4.216-5.605c-.011-.009-.028.007-.016.017 1.51 1.274 3.006 2.574 4.583 3.766.014.01.032-.013.019-.025-1.476-1.313-3.042-2.526-4.586-3.758m7.983 6.902a1.7 1.7 0 0 0-.253-.249c-.176-.154-.358-.304-.537-.455q-.535-.457-1.062-.925c-.017-.015-.041.009-.025.025q.5.493.99.997.235.247.473.491a2 2 0 0 0 .254.238c.098.067.199.124.299.188.03.019.073-.02.05-.05q-.094-.132-.189-.26m1.441-1.528q-.781-.757-1.609-1.463a31 31 0 0 0-3.415-2.513c-.011-.006-.02.01-.01.017a37 37 0 0 1 3.377 2.626q.775.677 1.507 1.401c.498.493.936 1.07 1.478 1.515.047.039.131-.012.092-.071a9.7 9.7 0 0 0-1.42-1.512m3.054-.23q-.539-.499-1.084-.99-1.094-.978-2.182-1.964c-.015-.013-.036.008-.022.022q1.05 1.023 2.095 2.051.509.499 1.024.99a8 8 0 0 0 1.077.958c.048.032.12-.034.083-.082a8 8 0 0 0-.991-.986m2.662-.432a19 19 0 0 0-.873-.854 22 22 0 0 0-1.834-1.49c-.02-.014-.045.018-.026.034.6.519 1.173 1.066 1.74 1.62q.413.406.819.821a5.2 5.2 0 0 0 .846.807c.035.022.069-.02.053-.054a3.8 3.8 0 0 0-.724-.884m3.232.069a36 36 0 0 0-3.048-2.573c-.017-.014-.042.01-.025.024a37 37 0 0 0 3.035 2.598c.03.021.062-.024.038-.049m1.829-1.263a6 6 0 0 0-.272-.215q-.306-.23-.617-.453c-.408-.293-.826-.57-1.24-.853-.024-.016-.054.022-.031.04.382.31.76.627 1.15.928q.293.228.593.45c.1.074.198.147.302.215a1 1 0 0 0 .31.173.036.036 0 0 0 .04-.052 1 1 0 0 0-.235-.233m.767-1.867c-.027-.019-.053.025-.026.043.339.23.676.46 1.024.676.013.008.023-.011.012-.02-.33-.243-.67-.47-1.01-.7"/><path fill="currentColor" d="m355.12 83.348-.587-1.066c-.386-.7-.776-1.4-1.186-2.086a.016.016 0 0 0-.027.016c.362.702.711 1.41 1.026 2.134q.244.561.458 1.135c.12.32.187.729.483.934a.135.135 0 0 0 .198-.08 1.7 1.7 0 0 0-.366-.987m1.076 2.147-.084-.125-.173-.26a.06.06 0 0 0-.08-.02.06.06 0 0 0-.021.08l.173.259.084.125a.5.5 0 0 0 .1.13.05.05 0 0 0 .081-.047.5.5 0 0 0-.08-.142m2.021.425q-.151-.197-.31-.391l-.626-.757c-.015-.018-.048.006-.034.026l.578.794q.14.189.284.373c.103.132.215.251.328.374a.027.027 0 0 0 .043-.033c-.086-.131-.166-.262-.263-.385M201.86 118.998c-.019-.017-.046.01-.028.028 1.783 1.734 3.551 3.49 5.409 5.146.017.015.04-.009.025-.025-1.746-1.774-3.586-3.454-5.407-5.15m7.875 3.612q-2.179-2.29-4.31-4.622c-.009-.01-.022.004-.014.013q2.078 2.385 4.218 4.714a63 63 0 0 0 4.405 4.535.027.027 0 0 0 .038-.039c-1.363-1.6-2.888-3.079-4.337-4.601m6.979 2.848c-.936-.926-1.781-1.94-2.672-2.91q-2.671-2.903-5.184-5.949c-.024-.03-.064.012-.041.042a120 120 0 0 0 5.12 6.014c.863.945 1.798 1.818 2.676 2.748a40 40 0 0 0 2.841 2.897.066.066 0 0 0 .094-.094c-.894-.964-1.9-1.824-2.834-2.748m3.784-.677q-2.504-2.646-4.773-5.502c-.01-.014-.03.006-.019.02q2.244 2.873 4.724 5.55a51 51 0 0 0 5.23 5.074c.016.012.037-.008.023-.023-1.718-1.72-3.513-3.35-5.185-5.118m10.723 6.234c-1.727-1.743-3.594-3.336-5.29-5.114a77 77 0 0 1-4.82-5.554c-.009-.012-.03.005-.02.017a68 68 0 0 0 4.723 5.654 40.3 40.3 0 0 0 5.366 5.05c.031.022.066-.027.04-.053m1.518-2.619q-.983-1.097-1.972-2.188c-1.296-1.438-2.607-2.862-3.907-4.296-.014-.015-.035.007-.022.022 1.262 1.433 2.512 2.876 3.778 4.305l1.843 2.08a23 23 0 0 0 1.998 2.163c.023.02.066-.006.046-.035a21 21 0 0 0-1.764-2.051m7.075 2.864c-1.37-1.302-2.772-2.562-4.083-3.925a54 54 0 0 1-3.711-4.274c-.007-.008-.022.003-.015.012a40.4 40.4 0 0 0 7.771 8.236c.029.022.063-.025.038-.049m4.429-.176q-3.766-3.384-7.412-6.884a.006.006 0 0 0-.008.008 74 74 0 0 0 7.395 6.9c.018.015.042-.009.025-.024m4.404.364c-2.366-2.398-4.95-4.595-7.467-6.832-.017-.015-.042.009-.025.025 2.447 2.313 4.86 4.696 7.454 6.846.026.022.064-.013.038-.039m6.07-.108c-.71-.613-1.538-1.082-2.282-1.654a14 14 0 0 1-1.26-1.075 5 5 0 0 1-.524-.64 3.5 3.5 0 0 0-.493-.48c-1.47-1.327-2.966-2.679-4.309-4.135-.043-.046-.11.022-.069.07a56 56 0 0 0 4.126 4.43c.368.343.783.539 1.178.845.399.31.781.64 1.159.975a20.5 20.5 0 0 0 2.264 1.936c.163.107.361-.143.21-.273m6.111.181a5.2 5.2 0 0 0-1.005-.851q-.627-.47-1.246-.948c-.785-.608-1.559-1.23-2.33-1.853a110 110 0 0 1-4.48-3.798c-.037-.034-.092.02-.056.055a100 100 0 0 0 4.437 4.08c.751.646 1.52 1.271 2.295 1.889a10 10 0 0 0 2.264 1.635c.13.052.189-.124.121-.209m4.828.473a11.4 11.4 0 0 0-1.868-1.448q-1.045-.776-2.069-1.582a82 82 0 0 1-3.832-3.183c-.043-.038-.106.024-.064.064a76 76 0 0 0 3.85 3.371q.922.747 1.87 1.46a9.5 9.5 0 0 0 2.067 1.396c.048.018.073-.047.046-.078m3.756-.188a3.5 3.5 0 0 0-.77-.592q-.482-.326-.958-.658-.925-.647-1.834-1.316-1.869-1.367-3.686-2.808c-.027-.021-.066.015-.038.039q1.716 1.48 3.525 2.84a70 70 0 0 0 1.828 1.325q.475.334.955.662a3.7 3.7 0 0 0 .947.56c.032.01.049-.03.03-.052m3.929.151a6.8 6.8 0 0 0-1.275-1.102l-1.42-1.044a61 61 0 0 0-2.905-1.98c-.03-.02-.065.026-.038.049a61 61 0 0 0 2.726 2.192q.707.529 1.415 1.056a7 7 0 0 0 1.448.913c.052.022.077-.05.05-.084m3.225-.493a6 6 0 0 0-.675-.491c-.24-.167-.49-.318-.734-.48-.487-.321-.982-.627-1.46-.962-.043-.03-.099.04-.057.073.456.358.912.724 1.393 1.048.241.163.482.332.734.478a5 5 0 0 0 .764.392.035.035 0 0 0 .035-.058m3.746-.852a17 17 0 0 0-2.18-.796c-.051-.017-.07.06-.022.079a17 17 0 0 0 2.182.763c.027.007.046-.033.02-.046m-58.884-29.131c-1.233-.553-2.549-.939-3.81-1.423q-2.028-.777-4.023-1.64c-.034-.014-.064.035-.03.05a85 85 0 0 0 3.81 1.63 30 30 0 0 0 4.03 1.436c.031.007.055-.04.023-.054m2.21-1.015a17 17 0 0 0-1.945-.76q-1.049-.39-2.092-.794c-1.39-.536-2.78-1.076-4.161-1.633-.019-.007-.032.025-.014.033 1.323.573 2.651 1.134 3.993 1.662q1.041.41 2.088.807a15 15 0 0 0 2.11.735c.029.006.05-.035.02-.05m-.182-1.764a60 60 0 0 1-2.033-.629c-.027-.009-.037.032-.012.042.668.242 1.34.476 2.017.688a13 13 0 0 0 2.06.544.02.02 0 0 0 .01-.038c-.658-.254-1.366-.41-2.042-.607m4.773-.434c-.726-.183-1.46-.296-2.2-.409-.017-.002-.025.023-.008.027.732.165 1.458.327 2.203.42.022.004.026-.032.005-.038M218.5 87.595c-.01-.003-.014.012-.005.015 4.023 1.46 7.995 3.044 11.988 4.578.013.005.021-.016.01-.021-3.932-1.684-7.96-3.152-11.994-4.572m16.763 3.875c-2.415-1.03-4.891-1.918-7.308-2.948q-3.631-1.548-7.181-3.277c-.018-.01-.034.017-.016.027a128 128 0 0 0 7.232 3.424 69 69 0 0 0 7.25 2.828c.032.01.054-.04.023-.054m2.694-.766c-4.25-1.834-8.5-3.617-12.612-5.75-.014-.008-.025.012-.012.02a80 80 0 0 0 12.599 5.79c.035.013.06-.045.025-.06m2.181-.939a16 16 0 0 0-2.597-1.145c-.905-.386-1.808-.775-2.705-1.176q-2.647-1.183-5.237-2.487c-.03-.015-.055.028-.026.044q2.608 1.37 5.277 2.62a95 95 0 0 0 2.592 1.167 13 13 0 0 0 2.669 1.041.035.035 0 0 0 .027-.064m3.049-2.349c-1.06-.538-2.207-.927-3.3-1.395a123 123 0 0 1-3.288-1.45c-.016-.007-.03.016-.014.024 1.088.54 2.184 1.07 3.298 1.556a25 25 0 0 0 3.287 1.305c.023.006.039-.028.017-.04m1.378-1.396a43 43 0 0 0-4.227-1.462c-.017-.006-.023.02-.007.026a43 43 0 0 0 4.213 1.486c.029.007.05-.037.02-.05m.517-1.768c-.046.002-.046.072 0 .07a7.8 7.8 0 0 1 2.03.179.016.016 0 0 0 .01-.03 6.3 6.3 0 0 0-2.04-.22m-228.397 31.14a40.3 40.3 0 0 0-7.674-4.235c-.028-.012-.052.028-.024.04a61 61 0 0 1 7.675 4.235c.026.017.047-.023.023-.04m8.217.417c-4.175-2.42-8.435-4.694-12.628-7.085a.03.03 0 0 0-.03.051c4.138 2.476 8.315 4.93 12.636 7.07.025.013.046-.022.022-.036m6.763-.423c-1.186-.85-2.49-1.554-3.74-2.304q-1.934-1.16-3.855-2.345-3.787-2.337-7.545-4.721c-.013-.008-.024.012-.012.02q3.672 2.524 7.448 4.888 1.86 1.168 3.734 2.312a42 42 0 0 0 3.909 2.255.06.06 0 0 0 .061-.105m7.919-.531c-2.599-1.781-5.45-3.22-8.134-4.87q-4.036-2.478-7.938-5.167c-.015-.01-.028.013-.014.023q3.846 2.885 7.884 5.49a54.3 54.3 0 0 0 8.15 4.646c.074.03.11-.082.052-.122m4.093-2.714q-.893-.643-1.782-1.29c-1.186-.859-2.458-1.585-3.64-2.448-2.356-1.719-4.393-3.995-7.004-5.343a.041.041 0 0 0-.05.064c1.909 2.134 4.566 3.475 6.83 5.178 1.15.864 2.199 1.847 3.343 2.715.585.444 1.182.873 1.774 1.306a7 7 0 0 0 1.779 1.101c.064.023.14-.065.094-.123a6 6 0 0 0-1.344-1.16m-1.833-7.616a14 14 0 0 0-1.137-.795 12 12 0 0 0-1.35-.658.047.047 0 0 0-.047.081c.39.269.75.589 1.132.869.382.279.768.552 1.145.837.764.577 1.55 1.127 2.264 1.767a.043.043 0 0 0 .061-.061 15.6 15.6 0 0 0-2.068-2.04m10.174 8.048a6 6 0 0 0-.538-.381c-.382-.245-.78-.47-1.168-.705-.79-.479-1.554-1.005-2.323-1.518-.017-.011-.032.016-.016.027.762.542 1.534 1.076 2.272 1.65.332.26.66.527.996.781a6 6 0 0 0 .582.399 2.3 2.3 0 0 0 .572.276c.053.012.11-.047.075-.098a2.2 2.2 0 0 0-.452-.43m6.44-.633a28 28 0 0 0-3.18-2.314c-1.128-.79-2.27-1.561-3.372-2.385a42 42 0 0 0-6.91-4.538c-.014-.007-.033.013-.018.025 2.111 1.666 4.437 2.994 6.688 4.457 1.183.77 2.305 1.632 3.414 2.504 1.058.832 2.028 1.802 3.156 2.54a.184.184 0 0 0 .222-.288m6.13-.167c-1.953-1.615-4.112-2.972-6.097-4.55-.972-.774-1.89-1.608-2.848-2.398-.946-.78-1.964-1.42-2.96-2.13-.014-.01-.032.013-.018.025.888.785 1.714 1.605 2.661 2.325 1.019.774 2.08 1.488 3.094 2.27 2.007 1.545 3.861 3.304 5.92 4.78.187.134.427-.174.248-.322m-.575-5.227a30 30 0 0 0-2.314-2.099c-.803-.637-1.65-1.197-2.496-1.774-.049-.033-.092.044-.046.077.836.61 1.623 1.29 2.432 1.935.794.634 1.597 1.256 2.375 1.91.034.03.082-.017.05-.05m6.767 5.969a4 4 0 0 0-.416-.38 22 22 0 0 0-.884-.71q-.895-.694-1.76-1.425c-.102-.087-.25.059-.148.149q.846.746 1.657 1.528c.261.254.524.507.8.747.138.12.273.249.423.356a3.6 3.6 0 0 0 .527.263c.054.027.132-.032.09-.091a4 4 0 0 0-.29-.437m6.072-.552a5.1 5.1 0 0 0-1.258-1.164l-1.419-1.12c-1-.794-1.975-1.62-2.954-2.44-1.93-1.616-3.857-3.234-5.823-4.807-.029-.023-.07.016-.041.042 1.91 1.69 3.86 3.333 5.808 4.98.945.799 1.894 1.593 2.818 2.417q.712.636 1.422 1.275a4.9 4.9 0 0 0 1.313.992c.098.04.186-.093.135-.175m-6.197-9.699c-.015-.009-.028.014-.014.024a47 47 0 0 1 5.045 4.16.025.025 0 0 0 .036-.035 23 23 0 0 0-5.067-4.149m11.742 9.392c-.046-.053-.074-.119-.12-.172a1 1 0 0 0-.152-.125 4 4 0 0 0-.322-.223 22 22 0 0 1-.691-.451 9 9 0 0 1-1.284-1.059.023.023 0 0 0-.033.033c.393.399.798.788 1.2 1.176.198.19.406.373.616.55a3 3 0 0 0 .33.242.8.8 0 0 0 .176.097c.07.022.143.025.214.047.07.021.108-.066.066-.115m5.516.096c-.802-.82-1.726-1.537-2.598-2.281q-1.355-1.156-2.712-2.31a24.8 24.8 0 0 0-5.15-3.891c-.047-.022-.089.046-.041.07a12.8 12.8 0 0 1 2.632 1.959c.855.762 1.706 1.529 2.564 2.287l2.516 2.22c.847.746 1.675 1.542 2.586 2.21.157.115.333-.132.203-.264m4.758-.34a13.5 13.5 0 0 0-1.881-1.69q-.979-.807-1.965-1.606-1.969-1.601-3.93-3.211c-.02-.016-.047.01-.028.028q1.942 1.682 3.867 3.383.95.835 1.905 1.666a13 13 0 0 0 1.945 1.543.073.073 0 0 0 .087-.113m-1.372-7.34a16.7 16.7 0 0 0-2.815-1.738.023.023 0 0 0-.024.04 24.5 24.5 0 0 1 2.706 1.894c.846.678 1.62 1.427 2.427 2.149.031.027.09-.01.062-.048a12.3 12.3 0 0 0-2.356-2.297m8.224 6.926a11 11 0 0 0-1.353-1.02c-.264-.178-.506-.387-.759-.58-.255-.194-.496-.419-.762-.598-.02-.014-.042.017-.026.034.196.2.43.364.636.555s.42.376.627.565c.424.384.808.81 1.248 1.178q.144.12.3.227c.081.056.194.157.298.09.189-.124-.12-.369-.209-.45m5.401-.927q-.577-.481-1.165-.947-1.156-.912-2.343-1.785-2.453-1.801-5.034-3.412c-.015-.009-.029.014-.014.024q2.546 1.73 4.983 3.616 1.148.893 2.267 1.823.576.48 1.15.961a3.6 3.6 0 0 0 1.04.734c.04.014.068-.034.05-.066a3.5 3.5 0 0 0-.934-.948m6.051.748c-1.622-1.398-3.397-2.627-5.083-3.946-.017-.014-.042.01-.025.024a41 41 0 0 0 5.07 3.97c.03.019.065-.025.038-.049m3.264-2.514a72 72 0 0 0-2.237-2.06 65 65 0 0 0-4.555-3.67c-.023-.016-.053.023-.03.04 1.533 1.238 3.058 2.49 4.535 3.796a109 109 0 0 1 2.138 1.927c.74.69 1.434 1.443 2.207 2.094a.02.02 0 0 0 .028-.027 25 25 0 0 0-2.086-2.1m2.686-2.595a35 35 0 0 0-2.868-2.416c-.028-.021-.066.027-.038.05.975.775 1.91 1.6 2.812 2.46.905.86 1.727 1.796 2.606 2.681.025.026.075-.01.052-.04a22.5 22.5 0 0 0-2.564-2.735m5.112 4.793a3 3 0 0 0-.197-.154l-.439-.32-.867-.626c-.058-.041-.11.053-.055.095l.837.645.42.32c.07.053.14.107.214.153a.8.8 0 0 0 .213.108.034.034 0 0 0 .037-.049.8.8 0 0 0-.163-.172m5.114.137c-1.226-1.162-2.578-2.202-3.888-3.267-.011-.009-.028.007-.016.017 1.272 1.111 2.527 2.269 3.88 3.281.018.014.04-.015.024-.03m2.352-2.006a.012.012 0 0 0-.012.02 15.3 15.3 0 0 1 2.386 1.859.023.023 0 0 0 .033-.034 7.7 7.7 0 0 0-2.407-1.845m5.791 1.693a20 20 0 0 0-1.367-.84.01.01 0 0 0-.01.016c.446.299.891.592 1.36.855a.018.018 0 0 0 .017-.03m3.063-.193a.025.025 0 0 0 0 .05.025.025 0 0 0 0-.05m55.348-47.644c-.007-.018-.037-.01-.03.009a32.3 32.3 0 0 0 7.849 12.58.037.037 0 0 0 .053-.053 41.4 41.4 0 0 1-7.872-12.536m1.546 14.442c-.009-.01-.027.004-.019.014 1.446 1.883 2.959 3.727 4.57 5.47.014.016.035-.006.022-.021-1.53-1.817-3.07-3.623-4.574-5.463m-2.226-1.004c-.017-.024-.058 0-.04.024a66 66 0 0 0 5.31 6.955c.012.013.03-.006.02-.02-1.864-2.243-3.655-4.541-5.29-6.958m2.197 5.717a215 215 0 0 1-2.865-3.856c-.008-.01-.025 0-.017.01.93 1.33 1.872 2.653 2.846 3.951.944 1.257 1.87 2.556 2.925 3.723.015.016.043-.005.03-.023-.918-1.306-1.955-2.533-2.92-3.805m-2.379.079c-.024-.034-.081-.002-.057.034 1.23 1.769 2.42 3.584 3.753 5.28.016.02.05-.007.036-.03-1.154-1.817-2.472-3.538-3.731-5.284m.373 3.209c-.013-.018-.043 0-.03.018.587.877 1.165 1.76 1.795 2.606.017.022.053.002.038-.021-.57-.89-1.19-1.743-1.803-2.603"/></svg>