<svg xmlns="http://www.w3.org/2000/svg" data-name="trumpetfish" viewBox="0 0 397.413 391.331"><path fill="currentColor" d="M358.061 249.738c-.573-.99-1.18-1.958-1.781-2.931a.063.063 0 0 0-.108.063c.506 1.006 1.003 2.015 1.537 3.007a21 21 0 0 0 1.75 2.883c.04.054.15.026.12-.05a21 21 0 0 0-1.518-2.972m3.256 1.124q-.823-1.471-1.663-2.935-1.71-2.974-3.466-5.92a.035.035 0 0 0-.06.036q1.59 3.043 3.223 6.062c.535.989 1.08 1.972 1.625 2.955a19 19 0 0 0 1.683 2.819c.067.082.21-.006.177-.103a19 19 0 0 0-1.52-2.914m2.633-1.609c-.699-1.26-1.416-2.508-2.128-3.76-1.424-2.506-2.97-4.935-4.439-7.413a.082.082 0 0 0-.142.083c1.327 2.562 2.57 5.164 3.943 7.703.666 1.23 1.325 2.465 2.004 3.689a16 16 0 0 0 2.246 3.607.2.2 0 0 0 .333-.194 15.4 15.4 0 0 0-1.817-3.715m-1.439-8.627c-.052-.093-.189-.011-.142.083 1.338 2.697 2.634 5.412 4.225 7.973a.05.05 0 0 0 .088-.05c-1.208-2.765-2.709-5.373-4.172-8.006m7.689 2.73c-.287-.474-.616-.926-.926-1.385-.052-.079-.178-.008-.128.074.288.473.56.96.871 1.418q.467.691.956 1.367a.04.04 0 0 0 .068-.04q-.409-.724-.84-1.434m-194.259 24.21a58.5 58.5 0 0 0-5.758-6.362c-2.052-2.09-4.15-4.135-6.217-6.21-.036-.036-.089.018-.055.055 1.928 2.156 3.826 4.34 5.77 6.482a59 59 0 0 0 6.076 6.177c.094.077.269-.025.184-.142m7.441 1.498c-.643-.602-1.353-1.127-1.977-1.75-1.304-1.3-2.516-2.713-3.72-4.105-1.211-1.399-2.329-2.877-3.519-4.293-1.21-1.44-2.443-2.86-3.662-4.292-.049-.057-.149.019-.104.08a81 81 0 0 0 6.83 8.294q1.85 1.978 3.682 3.976a19 19 0 0 1 1.728 2.138c.483.705 1.034 1.32 1.544 2.003a.114.114 0 0 0 .207-.088 3.47 3.47 0 0 0-1.009-1.963m16.286-204.995a60 60 0 0 1-4.46 6.642c-.836 1.092-1.674 2.194-2.6 3.213a13 13 0 0 1-1.488 1.143 10 10 0 0 0-1.383 1.552 87.4 87.4 0 0 1-11.095 11.563c-2.28 2.013-4.636 3.932-6.94 5.915-.02.017.007.053.028.037 4.282-3.284 8.481-6.723 12.602-10.207 1.042-.882 2.029-1.825 3.058-2.722 1.027-.895 2.068-1.76 3.052-2.704.452-.433.908-.853 1.323-1.323a6.4 6.4 0 0 0 1.15-1.848 8.4 8.4 0 0 1 1.11-1.616q.624-.824 1.223-1.667a50 50 0 0 0 4.528-7.915c.033-.072-.067-.134-.108-.063m11.987 10.125c-.424.163-.865.228-1.282.404q-.705.294-1.395.622a25 25 0 0 0-2.941 1.207c-1.712 1.098-2.957 2.72-4.661 3.824-1.7 1.102-3.495 2.034-5.168 3.184-1.591 1.095-3.119 2.273-4.62 3.487-1.874 1.515-3.738 3.042-5.616 4.553-.024.019.01.051.033.033q2.524-1.959 5.06-3.901c1.588-1.21 3.14-2.5 4.835-3.56a47 47 0 0 1 5.286-2.534c.9-.42 1.75-.928 2.603-1.432.818-.483 1.672-.915 2.459-1.448.48-.325 1.003-.631 1.452-1 .412-.337.704-.78 1.124-1.118.476-.382 1.01-.707 1.518-1.045.501-.334.907-.736 1.394-1.084.09-.063.039-.239-.081-.192m-30.696-16.596c-3.537 3.344-7.087 6.672-10.54 10.102q-2.567 2.55-5.077 5.157a15.7 15.7 0 0 1-2.664 2.535c-.227.142-.485.243-.7.404a2.3 2.3 0 0 0-.588.75 18 18 0 0 1-1.124 1.635c-1.67 2.183-3.452 4.271-5.17 6.415-.077.096.047.23.138.138 1.694-1.714 3.34-3.474 5.12-5.102.445-.409.89-.814 1.349-1.208a12 12 0 0 0 1.52-1.21c.343-.423.488-.992.819-1.436a20 20 0 0 1 1.32-1.538c3.286-3.59 6.627-7.13 9.956-10.682q2.806-2.993 5.69-5.91a.035.035 0 0 0-.05-.05m29.025 45.642c-3.715 2.693-7.442 5.36-11.114 8.112-1.852 1.389-3.704 2.78-5.588 4.126a139 139 0 0 1-2.598 1.822 12.8 12.8 0 0 0-2.122 2.225c-1.51 1.662-3.067 3.29-4.414 5.092-.035.046.043.106.08.061a21.1 21.1 0 0 1 4.525-4.194 16 16 0 0 1 1.202-.747 8 8 0 0 0 1.337-.752c.797-.654 1.538-1.391 2.325-2.06 3.465-2.95 7.035-5.773 10.557-8.652 1.982-1.62 3.903-3.316 5.867-4.96.04-.033-.014-.104-.057-.073m-6.518 11.064c-3.756 2.814-7.759 5.263-11.283 8.388-.092.081.026.22.128.165 4.182-2.25 7.635-5.413 11.188-8.51.023-.02-.008-.062-.033-.043m12.323-49.213a47 47 0 0 1-2.642 4.204 10 10 0 0 0-.682 1.015 8 8 0 0 1-.59 1.065c-.26.365-.55.706-.843 1.045a7 7 0 0 0-.634.748.275.275 0 0 0-.127.324.187.187 0 0 0 .31.081 3.8 3.8 0 0 0 .66-.896c.234-.363.458-.73.706-1.084a10 10 0 0 1 .857-1.022 6.5 6.5 0 0 0 .663-1c.882-1.436 1.645-2.928 2.426-4.418.036-.07-.067-.13-.104-.062m-4.816 2.377a15 15 0 0 1-1.713 2.237c-.303.34-.61.678-.932 1.003a6.3 6.3 0 0 0-.878 1.035c-.044.07.04.134.105.104a5.9 5.9 0 0 0 2.003-1.912 18 18 0 0 0 1.466-2.437.03.03 0 0 0-.05-.03m25.363-5.035c.476-1.267.917-2.547 1.383-3.824.035-.095-.114-.133-.15-.041-.508 1.27-1.037 2.525-1.53 3.795a70 70 0 0 0-2.704-.604c.28-.685.524-1.383.77-2.08l.22.044a9.7 9.7 0 0 0 2.545.365c.067-.005.104-.1.036-.135a9 9 0 0 0-2.564-.67l-.085-.016q.31-.916.584-1.849c.07.01.14.014.209.025a6 6 0 0 1 1.118.273c.272.094.498.196.757.038a.117.117 0 0 0 .024-.181c-.204-.227-.451-.19-.737-.18a7 7 0 0 1-1.297-.083l-.042-.007c.122-.422.244-.843.35-1.27a.012.012 0 0 0-.022-.007c-.158.418-.33.83-.494 1.246-.637-.1-1.27-.218-1.903-.346a29 29 0 0 0-2.12-.352c-.749-.095-1.508-.115-2.253-.246a.022.022 0 0 0-.011.042 21.4 21.4 0 0 0 4.269.798q.987.095 1.968.229c-.239.605-.47 1.213-.719 1.815q-1.097-.203-2.198-.383c-.247-.04-.497-.066-.745-.102l.019-.056c.01-.029-.035-.04-.045-.012l-.024.061c-1.2-.173-2.404-.316-3.61-.452l.275-.81c.006-.016-.021-.028-.028-.012-.119.269-.227.542-.343.811l-.761-.087c-.017-.002-.022.028-.004.031.244.04.487.093.73.137-.307.718-.617 1.436-.913 2.16-.531-.092-1.063-.18-1.594-.277-.078-.014-.112.104-.033.12.52.106 1.039.22 1.558.33q-.535 1.315-1.05 2.636c-.784-.108-1.567-.217-2.354-.312-.047-.006-.06.078-.011.085.77.113 1.54.243 2.308.371-.213.551-.437 1.1-.645 1.652q-.256.68-.516 1.364-.738-.063-1.476-.123c-.01 0-.013.018-.002.02.478.068.955.148 1.433.224a95 95 0 0 0-.758 2.06q-1.346-.156-2.69-.328c.144-.401.293-.802.435-1.204.88-2.485 1.762-4.97 2.612-7.465.004-.012-.016-.02-.021-.009-1.016 2.362-2.003 4.735-2.99 7.108-.208.498-.409.999-.615 1.497-.297-.039-.594-.07-.89-.112-.015-.002-.022.02-.007.022l.87.158c-.288.696-.58 1.39-.857 2.09-.827-.175-1.657-.34-2.486-.506.112-.272.234-.54.344-.814q1.261-3.142 2.575-6.262c.005-.012-.016-.02-.022-.009q-1.502 2.985-3.045 5.948c-.173.332-.331.672-.501 1.007-.657-.131-1.311-.268-1.969-.397a.02.02 0 0 0-.01.038 78 78 0 0 0 1.897.523c-.323.637-.653 1.27-.956 1.917a15 15 0 0 0-.68 1.468c-.074.22-.122.534.145.654.272.122.477-.142.595-.342a16 16 0 0 0 .716-1.576c.289-.643.553-1.297.823-1.948q1.224.313 2.457.58a9 9 0 0 0-1.012 3.298.11.11 0 0 0 .187.078 9.8 9.8 0 0 0 1.495-3.225l.006-.016q1.373.282 2.763.498a20 20 0 0 0-.394 1.863c-.011.072.09.131.128.054.304-.596.574-1.209.825-1.83.262.038.522.087.786.121.046.006.055-.07.01-.08-.247-.06-.497-.109-.746-.167a42 42 0 0 0 .816-2.277c.362.061.723.128 1.085.186q.994.16 1.999.305c-.18.497-.367.99-.538 1.49-.02.058.073.098.1.042.237-.492.443-1 .664-1.5a32 32 0 0 0 1.811.207c-.045.099-.095.195-.137.295-.028.067.053.152.11.085.096-.11.174-.241.266-.357q.725.054 1.45.05a.067.067 0 0 0 .018-.13 21 21 0 0 0-1.221-.251 18 18 0 0 0 1.152-1.765c1.095.166 2.192.319 3.295.432.051.006.06-.075.012-.088a36 36 0 0 0-3.107-.7c.475-.842.9-1.71 1.31-2.576q1.495.298 2.988.599c-.027.09-.06.179-.086.27-.014.05.062.085.085.036.046-.093.082-.188.126-.281l.187.037a.037.037 0 0 0 .02-.071c-.057-.016-.115-.027-.173-.043a37 37 0 0 0 1.106-2.663c.372.053.74.121 1.114.166.053.006.062-.079.013-.092-.35-.095-.706-.166-1.058-.253m-13.976 8.72c-.9-.206-1.802-.41-2.705-.603.263-.708.515-1.42.77-2.131q1.32.238 2.643.467a32 32 0 0 0-.708 2.267m9.378-11.937q1.015.194 2.03.398c-.288.688-.575 1.377-.875 2.06-.907-.176-1.815-.35-2.726-.507.24-.707.484-1.413.72-2.12q.425.086.851.17m-4.432-.86c1.175.214 2.347.446 3.519.679-.264.703-.536 1.404-.806 2.107l-3.456-.597zm-.805 2.375 3.398.724c-.313.814-.616 1.632-.934 2.444a98 98 0 0 0-3.358-.534zm-1.608 4.74.661-1.95q1.665.284 3.326.598c-.358.914-.717 1.828-1.068 2.745a92 92 0 0 0-3.26-.343c.114-.35.225-.704.341-1.05m2.083 3.615-1.986-.227q-.576-.068-1.152-.133.335-1.024.663-2.046 1.592.258 3.182.527c-.238.626-.477 1.25-.707 1.879m2.06.282c-.597-.1-1.197-.18-1.8-.251.266-.613.512-1.236.759-1.857.663.111 1.327.214 1.99.318-.328.59-.655 1.183-.95 1.79m1.49-2.77q-.167.309-.34.616a52 52 0 0 0-2.045-.31c.354-.904.674-1.822 1.001-2.737q1.185.227 2.37.463c-.326.658-.639 1.322-.986 1.968m1.089-2.173a79 79 0 0 0-2.391-.48c.29-.817.555-1.637.833-2.456.892.19 1.787.365 2.683.536-.18.404-.345.816-.532 1.216-.186.4-.399.788-.593 1.184m3.414.817q-1.455-.391-2.92-.718c.18-.387.367-.776.539-1.157.188-.416.361-.836.537-1.256.922.172 1.848.32 2.777.456a37 37 0 0 0-.933 2.675m4.493-43.18q-.718 2.364-1.586 4.68a19 19 0 0 1-1.054 2.357q-.286.531-.547 1.075a1.8 1.8 0 0 0-.29.977c.007.055.065.107.12.07.537-.36.75-1.353.938-1.937.257-.797.523-1.583.825-2.364a68 68 0 0 0 1.659-4.84.033.033 0 0 0-.064-.018m-2.856 2.028a30.5 30.5 0 0 1-1.994 4.313q-.553 1.02-1.168 2.002c-.206.328-.42.649-.63.974a1.9 1.9 0 0 0-.386.826c-.007.068.073.094.123.07a1.8 1.8 0 0 0 .646-.673c.236-.335.454-.685.666-1.036.412-.68.8-1.382 1.144-2.1a32 32 0 0 0 1.652-4.361c.01-.034-.04-.048-.053-.015m-3.408 1.669a41 41 0 0 1-1.976 3.553q-.526.854-1.095 1.681a10.3 10.3 0 0 0-1.095 1.743c-.022.05.03.132.088.088a6 6 0 0 0 1.267-1.461q.6-.881 1.129-1.807a25 25 0 0 0 1.714-3.783.018.018 0 0 0-.032-.013m-3.606 2.667a29 29 0 0 1-2.177 3.026q-.557.71-1.148 1.392a4.2 4.2 0 0 0-1.036 1.35.077.077 0 0 0 .094.094c.518-.169.906-.74 1.247-1.139q.606-.705 1.154-1.458a28 28 0 0 0 1.923-3.232.033.033 0 0 0-.057-.033m-4.481 2.919c-.556.608-1.153 1.173-1.746 1.742q-.442.422-.895.831a6 6 0 0 0-.448.436 2.6 2.6 0 0 0-.369.44.05.05 0 0 0 .055.073 2.2 2.2 0 0 0 .495-.28 4 4 0 0 0 .475-.373c.321-.283.623-.586.916-.897a17 17 0 0 0 1.54-1.953c.01-.015-.012-.032-.024-.019m-4.967 3.073a6.3 6.3 0 0 1-1.133 1.032c-.016.011-.002.037.016.027a4.9 4.9 0 0 0 1.15-1.027c.02-.023-.013-.056-.033-.033m-3.579 1.281a1.1 1.1 0 0 1-.325.326 1.4 1.4 0 0 1-.196.105c-.074.032-.151.047-.226.075a.02.02 0 0 0 .006.038.6.6 0 0 0 .234-.047 1 1 0 0 0 .223-.112 1.1 1.1 0 0 0 .335-.355c.02-.032-.03-.06-.05-.03m-13.339-.347c-.358.586-.753 1.146-1.099 1.742q-.482.83-.948 1.67a35 35 0 0 0-1.706 3.47c-.026.063.07.094.104.044a36 36 0 0 0 2.003-3.359q.45-.85.886-1.706c.302-.596.548-1.215.837-1.816a.045.045 0 0 0-.077-.045m-2.55-2.746c-2.11 4.462-4.638 8.708-6.903 13.089a.05.05 0 0 0 .088.05 67 67 0 0 0 6.927-13.074c.031-.075-.076-.142-.112-.065m-3.567 1.66c-1.411 2.291-2.818 4.584-4.17 6.91a49 49 0 0 0-3.689 6.928c-.03.078.083.11.125.053a31 31 0 0 0 2.015-3.354q.98-1.763 1.945-3.536c1.269-2.328 2.517-4.667 3.794-6.99a.012.012 0 0 0-.02-.011m-5.382 4.2c-.988 1.628-2.014 3.232-3.011 4.854a30.4 30.4 0 0 0-2.713 4.822.045.045 0 0 0 .075.044 30.4 30.4 0 0 0 2.917-4.703c.94-1.655 1.85-3.327 2.8-4.977a.04.04 0 0 0-.068-.04m-4.527 2.722c-.66 1.128-1.36 2.233-2.015 3.364a18.3 18.3 0 0 0-1.707 3.408c-.025.076.077.103.118.05a20.4 20.4 0 0 0 1.905-3.35c.578-1.15 1.133-2.312 1.736-3.45a.022.022 0 0 0-.037-.022M251.2 99.022a98 98 0 0 0-3.076 11.103.041.041 0 0 0 .079.022 98 98 0 0 0 3.042-11.112.023.023 0 0 0-.045-.013m-1.088-1.257a204 204 0 0 0-3.05 8.121c-.961 2.717-1.947 5.435-2.735 8.208-.016.056.073.097.097.04 1.112-2.627 2.042-5.333 2.986-8.024a205 205 0 0 0 2.747-8.332c.01-.03-.034-.04-.045-.013m-3.115 2.152c-1.418 3.458-2.633 6.995-3.94 10.495-1.298 3.48-2.824 6.923-3.863 10.49a.063.063 0 0 0 .114.049 90 90 0 0 0 4.132-10.308c1.295-3.537 2.595-7.081 3.59-10.716.007-.023-.025-.03-.033-.01m-3.392 2.243.007-.044-.01.003a.185.185 0 0 0-.272-.165c-1.203.551-1.471 2.28-1.836 3.427a181 181 0 0 1-1.547 4.667c-1.077 3.086-2.39 6.136-3.272 9.283-.014.051.065.089.09.037 1.335-2.864 2.294-5.923 3.45-8.865a158 158 0 0 1 1.818-4.464c.314-.732.626-1.463.967-2.183a5 5 0 0 0 .6-1.674l.005-.016Zm-3.568 1.25c-.198-.375-.605.33-.67.464a11 11 0 0 0-.589 1.593c-.339 1.097-.671 2.196-1.024 3.29-.015.045.058.078.078.033q.592-1.331 1.21-2.649c.11-.236 1.053-2.23.9-2.561l.057-.026a.11.11 0 0 0 .038-.143m-3.629 8.246a109 109 0 0 0-1.45 3.041 86 86 0 0 0-.676 1.505 3.05 3.05 0 0 0-.437 1.48.07.07 0 0 0 .117.049 3.35 3.35 0 0 0 .621-1.402 38 38 0 0 1 .526-1.506 36 36 0 0 1 1.357-3.134c.018-.038-.038-.072-.058-.033m-1.494-2.855q-1.32 2.42-2.489 4.918a23 23 0 0 0-1.944 4.997.057.057 0 0 0 .104.043 42 42 0 0 0 2.077-4.84q1.08-2.575 2.3-5.09c.015-.031-.03-.059-.048-.028m-4.383 4.642c-.37.799-.81 1.57-1.21 2.355-.402.788-.81 1.584-1.164 2.396a.047.047 0 0 0 .081.047 14 14 0 0 0 1.367-2.33c.378-.8.66-1.623.962-2.453.008-.02-.026-.035-.036-.015m-28.489 19.9c-1.464 2.346-2.937 4.692-4.23 7.138a.041.041 0 0 0 .07.042c1.518-2.314 2.863-4.737 4.21-7.15a.03.03 0 0 0-.05-.03m48.978 8.86q-1.917 2.793-3.655 5.694c-.022.037.034.069.057.034q1.91-2.798 3.648-5.698c.02-.033-.03-.06-.05-.03m-3.775.209c-2.709 3.6-5.557 7.093-7.985 10.896-.034.053.047.118.089.068 2.886-3.472 5.35-7.25 7.957-10.928.027-.038-.034-.071-.06-.036m-4.47.844c-3.36 5.047-6.963 9.922-10.442 14.884-.048.069.061.153.116.09a90 90 0 0 0 10.346-14.962.012.012 0 0 0-.02-.012m-5.221 2.096c-1.915 2.452-3.518 5.16-5.262 7.734-1.787 2.638-3.704 5.2-5.368 7.918-.046.075.064.164.122.095a81 81 0 0 0 5.497-7.59 69 69 0 0 0 5.03-8.142c.005-.011-.01-.026-.019-.015m-5.243 1.914a374 374 0 0 1-6.28 9.427q-1.583 2.31-3.22 4.584c-.555.774-1.122 1.54-1.683 2.31a9.6 9.6 0 0 0-1.432 2.2.063.063 0 0 0 .092.07 8.4 8.4 0 0 0 1.595-1.846c.577-.758 1.132-1.534 1.69-2.307q1.673-2.32 3.276-4.687c2.145-3.16 4.136-6.395 6.046-9.701a.049.049 0 0 0-.084-.05m-5.742 3.193q-3.272 4.764-6.485 9.562c-2.124 3.183-4.45 6.313-6.286 9.672-.037.067.058.15.11.086a110 110 0 0 0 6.49-9.432q3.205-4.876 6.249-9.842c.03-.05-.045-.092-.078-.045m-6.97 3.529c-2.037 3.285-4.12 6.537-6.119 9.847l-2.963 4.907a23.6 23.6 0 0 1-2.927 4.385c-.05.051.015.143.078.101a10.66 10.66 0 0 0 2.921-3.722q1.544-2.562 3.078-5.129c2.053-3.42 4.017-6.89 6.029-10.332a.057.057 0 0 0-.098-.058m-4.913 2.719a303 303 0 0 0-5.956 9.124q-1.451 2.304-2.899 4.61a31.5 31.5 0 0 0-2.616 4.505c-.023.056.063.102.101.058a31.4 31.4 0 0 0 2.917-4.329l2.882-4.618a302 302 0 0 0 5.605-9.33.02.02 0 0 0-.034-.02m-4.609 2.035c-3.78 5.91-7.646 11.769-11.051 17.907a.057.057 0 0 0 .097.057c3.954-5.8 7.454-11.884 11.035-17.916a.047.047 0 0 0-.08-.048m-4.955.271c-1.925 3.08-3.763 6.2-5.594 9.338a16 16 0 0 0-1.217 2.21 15 15 0 0 1-1.38 2.576c-.465.732-.976 1.433-1.43 2.172a8.7 8.7 0 0 0-1.213 2.322.073.073 0 0 0 .12.07 8.1 8.1 0 0 0 1.392-2.073c.447-.791.833-1.614 1.264-2.413a15.4 15.4 0 0 1 1.566-2.468 16 16 0 0 0 1.316-2.152c1.812-3.155 3.563-6.32 5.203-9.566a.016.016 0 0 0-.027-.016m-6.453 3.096c-1.876 3.19-3.86 6.33-5.84 9.456q-1.47 2.322-2.988 4.612a49 49 0 0 0-3.046 4.709c-.04.077.06.166.126.097a33.4 33.4 0 0 0 3.173-4.381q1.555-2.338 3.05-4.715c1.995-3.18 3.807-6.439 5.576-9.748a.03.03 0 0 0-.05-.03m-6.181 3.542a401 401 0 0 0-6.479 8.827q-1.583 2.227-3.159 4.46a41 41 0 0 0-3.017 4.543c-.038.074.058.159.12.093a39 39 0 0 0 3.15-4.201q1.61-2.284 3.213-4.573a402 402 0 0 0 6.191-9.137c.009-.013-.011-.024-.02-.012m-7.292 3.694c-2.207 2.902-4.34 5.85-6.458 8.817q-1.586 2.22-3.165 4.446c-.502.708-1.008 1.414-1.503 2.126a10.5 10.5 0 0 0-1.37 2.223c-.025.067.063.1.107.063a10.2 10.2 0 0 0 1.584-1.955c.533-.737 1.054-1.482 1.58-2.224q1.577-2.226 3.144-4.459c2.09-2.974 4.158-5.956 6.158-8.992.033-.049-.043-.09-.077-.045m-7.942 5.603c-1.577 2.374-3.273 4.671-4.937 6.986a253 253 0 0 1-2.46 3.348q-.637.856-1.284 1.706c-.395.519-.948 1.629-1.625 1.739a.083.083 0 0 0-.02.15.8.8 0 0 0 .926-.273 15 15 0 0 0 1.337-1.665q1.472-1.935 2.883-3.916c1.86-2.61 3.56-5.313 5.265-8.026.033-.054-.05-.101-.085-.05m-6.903 4.459c-1.478 1.937-3.035 3.825-4.549 5.734-1.4 1.765-2.787 3.534-4.317 5.187-.045.049-.001.154.072.124a6.1 6.1 0 0 0 2.181-1.98q1.214-1.487 2.394-3.001c1.517-1.955 2.916-3.971 4.333-5.997.05-.07-.064-.133-.114-.067m-7.745 4.877c-.86 1.15-1.808 2.23-2.746 3.317q-.667.772-1.356 1.524c-.43.47-.956.853-1.378 1.325a.08.08 0 0 0 .078.134 3 3 0 0 0 1.499-1.038c.503-.531.97-1.103 1.43-1.673.913-1.134 1.717-2.348 2.517-3.563.018-.028-.025-.052-.044-.026m-5.982 3.07a14.5 14.5 0 0 1-1.785 1.689 21 21 0 0 0-1.88 1.565c-.036.037-.001.111.053.091a5.9 5.9 0 0 0 2.015-1.424 18 18 0 0 0 1.625-1.9c.012-.015-.015-.036-.028-.02m116.694-51.275c-.007-.002-.01.009-.003.011a35 35 0 0 0 3.587 1.113.01.01 0 0 0 .005-.019c-1.211-.32-2.41-.68-3.59-1.105m8.296.147c-.98-.477-2.029-.831-3.05-1.212-1.058-.395-2.122-.774-3.183-1.16-.022-.008-.03.025-.01.034 1.033.413 2.063.833 3.099 1.24 1.027.404 2.06.846 3.123 1.148.03.008.05-.036.021-.05m3.592-.938a52 52 0 0 0-7.765-3.02c-.034-.01-.047.04-.014.053 2.589 1 5.125 2.129 7.75 3.035a.037.037 0 0 0 .029-.068m2.703-.692c-.685-.299-1.367-.605-2.06-.883-.712-.286-1.44-.53-2.163-.786-.082-.03-.111.096-.035.128.698.293 1.39.598 2.098.865.705.264 1.42.498 2.133.74.037.013.063-.048.027-.064m19.656-2.214a3 3 0 0 0-.36-.643 1.9 1.9 0 0 1-.26-.814 18.6 18.6 0 0 1-.215-3.294.037.037 0 0 0-.074 0 17 17 0 0 0 .095 3.379 2.5 2.5 0 0 1 0 .849 2.3 2.3 0 0 0-.05.756c.052.5.168 1.181.71 1.363a.25.25 0 0 0 .278-.113c.315-.423.047-1.05-.124-1.484m31.081-8.876c-.009-.018-.039-.006-.032.013a21.4 21.4 0 0 0 1.415 3.25.027.027 0 0 0 .05-.022 21.4 21.4 0 0 0-1.433-3.241m18.177-10.543-.384.124c-.01.004-.006.019.004.016l.384-.125c.01-.003.005-.018-.004-.015M343.03 41.462v-.004m2.55 6.257a16 16 0 0 1-1.675-2.055 27 27 0 0 1-2.126-4.004 10 10 0 0 1-.242-.764.37.37 0 0 0-.234-.248l-.05-.106a.061.061 0 0 0-.113.03l.005.05a.4.4 0 0 0-.084.003 10.5 10.5 0 0 0-1.742.687 23 23 0 0 0-1.743.822 11.8 11.8 0 0 0-2.998 2.193 7.4 7.4 0 0 0-1.679 2.94 5.3 5.3 0 0 0-.273 1.548 5.3 5.3 0 0 0 .35 1.645.01.01 0 0 0 .018-.005 5.9 5.9 0 0 1 .466-3.266 8.2 8.2 0 0 1 1.92-2.58 12.2 12.2 0 0 1 2.825-1.874 26 26 0 0 1 1.53-.71c.433-.186.897-.347 1.327-.554q.12.135.24.279a12.7 12.7 0 0 0 1.64 3.886 17 17 0 0 0 1.5 2.067q.462.546.967 1.053c.388.39.979.859.6 1.46a7.1 7.1 0 0 1-2.42 1.906 17 17 0 0 1-2.824 1.264c-1.65.616-3.509 1.202-5.214.388a.087.087 0 0 0-.117.118c.627 1.365 2.151 1.095 3.34.725a21.3 21.3 0 0 0 4.596-2.225c.77-.462 1.493-1.018 2.275-1.457.53-.297 1.358-.727 1.276-1.451-.086-.748-.86-1.263-1.342-1.765m-20.214-37.072a7.9 7.9 0 0 0-1.355-2.315 12.4 12.4 0 0 0-2.348-2.15 16 16 0 0 0-2.386-1.383 1.2 1.2 0 0 0-.702-.331l-.207-.097a.043.043 0 0 0-.043.074l.014.01a5.8 5.8 0 0 0-2.375.905 42 42 0 0 0-4.646 2.995 10.65 10.65 0 0 0-3.512 3.454 1.58 1.58 0 0 0 .16 1.874c.312.391.58.812.884 1.21.354.462.753.877 1.089 1.357.002.004.009 0 .006-.004-.396-.67-.682-1.388-1.08-2.058a1.94 1.94 0 0 1-.196-2.31 11.6 11.6 0 0 1 3.136-2.895 42 42 0 0 1 3.565-2.363 60 60 0 0 1 1.91-1.076c.615-.334 1.587-.843 2.188-.208a.06.06 0 0 0 .1-.009c.522.365 1.045.726 1.556 1.103a11 11 0 0 1 2.447 2.368 6.6 6.6 0 0 1 1.237 2.844 4.5 4.5 0 0 0 .092.807c.064.183.197.32.266.504a2.44 2.44 0 0 1-.446 1.867 7.4 7.4 0 0 1-2.372 2.355c-.89.627-1.8 1.239-2.726 1.813a12.6 12.6 0 0 1-3.145 1.482 2.6 2.6 0 0 1-.772.137 7 7 0 0 1-.85-.172c-.651-.088-1.31.057-1.743-.589a.02.02 0 0 0-.034.02c.35.632.789 1.353 1.56 1.507a2.4 2.4 0 0 0 1.144-.2 14 14 0 0 0 1.46-.484 26 26 0 0 0 5.303-3.178 8.5 8.5 0 0 0 1.886-1.81 4 4 0 0 0 .59-1.079c.163-.477.166-.99.32-1.464.15-.458.422-.636.37-1.139a5.8 5.8 0 0 0-.345-1.372m-16.502 5.867a14 14 0 0 0-1.04-1.208 6 6 0 0 0-.633-.577c-.21-.167-.45-.284-.669-.435-.044-.03-.088.035-.054.07.174.19.312.412.481.607q.267.307.546.604c.36.385.699.79 1.027 1.204a31 31 0 0 1 1.83 2.623c.029.045.11.017.09-.037a10.8 10.8 0 0 0-1.578-2.85m-25.196 20.291a9.5 9.5 0 0 1-.774-1.257c-.421-.804-.853-1.606-1.345-2.369a51 51 0 0 1-1.414-2.33 16 16 0 0 1-1.382-2.456 1.96 1.96 0 0 1-.007-1.361 2.5 2.5 0 0 0 .18-1.1 5 5 0 0 0-1.219-2.106 18.5 18.5 0 0 0-3.596-3.655c-.012-.009-.028.006-.017.017a19.8 19.8 0 0 1 3.39 4.145 2.73 2.73 0 0 1 .471 1.452 3.4 3.4 0 0 1-.222 1.176 2.05 2.05 0 0 0 .48 1.98 28.6 28.6 0 0 1 3.023 4.422c.406.814.832 1.617 1.223 2.44a6.5 6.5 0 0 1 .471 1.309 1.27 1.27 0 0 0 .533.931v-.027a.353.353 0 0 0 .548-.288 1.18 1.18 0 0 0-.343-.923m-.655-6.557c-.142-.378-.242-.776-.413-1.142-.069-.147-.297-.363-.324-.508-.023-.12.057-.29.041-.424a3.7 3.7 0 0 0-.42-1.018 30 30 0 0 0-.607-1.287c-.443-.873-.972-1.685-1.48-2.52a.043.043 0 0 0-.074.043 29 29 0 0 1 1.197 2.627 9 9 0 0 1 .52 1.324c.117.481-.15.823-.153 1.29a1.42 1.42 0 0 0 .486.902 6.4 6.4 0 0 1 .74 1.004c.474.834.908 1.677 1.421 2.49.035.055.133.02.11-.047-.308-.932-.7-1.817-1.044-2.734m-8.25-1.966c-.196-.397-.38-.8-.564-1.202a6.3 6.3 0 0 0-.622-1.208c-.042-.056-.15-.045-.146.04a4.2 4.2 0 0 0 .348 1.297c.166.432.354.856.552 1.274a10.8 10.8 0 0 0 1.485 2.332c.056.066.14-.018.11-.085a60 60 0 0 0-1.163-2.448m-65.735-6.775a25 25 0 0 0-2.396-1.642c-.834-.491-1.697-.925-2.556-1.37-.078-.04-.147.075-.07.118.843.472 1.66.992 2.482 1.498s1.666.977 2.498 1.466c.047.028.083-.04.042-.07m-.822 2.187a17.3 17.3 0 0 0-3.4-2.239.074.074 0 0 0-.075.129c1.17.68 2.265 1.479 3.425 2.174.04.024.085-.032.05-.064m90.674 49.515a27 27 0 0 0-1.22-3.933 54 54 0 0 0-1.581-3.563q-.427-.883-.86-1.763c-.257-.52-.347-1.174-.922-1.407a.26.26 0 0 0-.32.182c-.102.532.247.815.505 1.255.31.528.571 1.094.835 1.645.518 1.082.97 2.197 1.396 3.318.408 1.076.747 2.188 1.181 3.252.367.899 1.006 2.078.546 3.048-.3-.582-.534-1.2-.826-1.785a26 26 0 0 0-1.07-1.891c-.37-.611-.667-1.254-1.015-1.877a21 21 0 0 1-1.194-1.894c-.495-1.174-.625-2.465-1.19-3.62a4.14 4.14 0 0 0-2.246-2.132c-.053-.02-.092.069-.04.092a4.5 4.5 0 0 1 2.166 2.878 33 33 0 0 1 .946 3.843c.238 1.207 1.53 1.806 2.231 2.701a11.6 11.6 0 0 1 2.142 3.946.102.102 0 0 0 .168.044 2.28 2.28 0 0 0 .368-2.339m-7.926-6.272c-.016-.047-.091-.027-.075.02a14 14 0 0 1 .534 2.125c.003.017.033.013.03-.004a9.3 9.3 0 0 0-.489-2.14m1.811 5.351a1.5 1.5 0 0 0-.146-.286c-.037-.052-.074-.096-.101-.132a.4.4 0 0 0-.104-.082 4 4 0 0 1-.455-.685c-.014-.03-.063-.009-.054.023a2.5 2.5 0 0 1 .08.51c.008.081.021.16.022.242.001.075-.022.147-.017.224a1.7 1.7 0 0 0 .12.53 1.4 1.4 0 0 0 .133.285 1 1 0 0 0 .097.123.33.33 0 0 0 .188.086.25.25 0 0 0 .264-.077c.194-.216.072-.527-.027-.761"/><path fill="currentColor" d="m292.865 72.92-.074.127a.5.5 0 0 0 .074-.127m-.075.13.001-.003zm27.004-11.881a6 6 0 0 0-.778-1.382 5.7 5.7 0 0 1-.663-1.848 10.3 10.3 0 0 0-3.297-5.433c-.049-.038-.118.028-.07.07 1.735 1.468 2.53 3.805 3.072 5.94.143.565.173 1.108.264 1.675.086.536.535.836.89 1.194a14.8 14.8 0 0 1 2.129 3.47c.013.024.056.007.046-.02-.462-1.256-1.077-2.434-1.593-3.666m.95-1.114a6 6 0 0 0-.293-.569c-.22-.373-.484-.72-.718-1.084a.043.043 0 0 0-.074.043c.183.395.334.805.532 1.194a6 6 0 0 0 .321.55 2.7 2.7 0 0 0 .375.511.053.053 0 0 0 .088-.051 2.8 2.8 0 0 0-.231-.594m-58.09 38.531c-.029-.01-.04.035-.013.045a32 32 0 0 0 4.336 1.38.014.014 0 0 0 .007-.027c-1.443-.471-2.902-.88-4.33-1.398m6.977-.251a38 38 0 0 0-4.02-1.147 351 351 0 0 1-4.051-1.03.03.03 0 0 0-.016.057c1.341.378 2.678.77 4.015 1.164a38 38 0 0 0 4.047 1.047.047.047 0 0 0 .025-.09m3.269-1.97a.065.065 0 0 0-.118.015c-.024.071-4.314-1.182-4.726-1.282a26 26 0 0 0-4.639-.718c-.008 0-.007.011 0 .012a37 37 0 0 1 5.821 1.422c.905.271 1.807.57 2.725.794.146.036 1.204.264.937-.243m1.848-2.024a15 15 0 0 0-3.636-1.014c-1.28-.27-2.576-.461-3.862-.703-.022-.004-.032.029-.01.034 1.262.33 2.507.717 3.77 1.037a16 16 0 0 0 3.716.726.043.043 0 0 0 .022-.08m3.002-1.173a5.3 5.3 0 0 0-1.61-.635 27 27 0 0 0-1.792-.414c-1.17-.226-2.35-.364-3.534-.479-.02-.002-.024.031-.005.035 1.181.208 2.35.492 3.51.795.571.15 1.143.3 1.71.46a7 7 0 0 0 1.691.347.06.06 0 0 0 .03-.11m2.175-1.276a10.84 10.84 0 0 0-4.765-1.399c-.02-.002-.024.03-.005.035 1.63.318 3.155.966 4.744 1.425a.033.033 0 0 0 .026-.06m1.895-1.46a2.85 2.85 0 0 0-1.517-.638 6 6 0 0 0-1.671.068c-.064.008-.049.114.015.11a6 6 0 0 1 1.579.204c.51.114 1.02.281 1.537.354.053.008.105-.053.057-.098m2.028-1.571a1 1 0 0 1-.193.008 1 1 0 0 1-.198-.06c-.15-.051-.303-.09-.455-.13a1.32 1.32 0 0 0-.916.065c-.057.026-.016.115.042.1a.73.73 0 0 1 .441.073c.07.028.135.065.205.094.08.033.165.06.247.087a.95.95 0 0 0 .497.047.65.65 0 0 0 .372-.21.05.05 0 0 0-.042-.074m2.18-.943-.005-.009a.16.16 0 0 0-.048-.093.3.3 0 0 0-.09-.056 1 1 0 0 0-.097-.038 1 1 0 0 0-.112-.016.6.6 0 0 0-.178.018.34.34 0 0 0-.176.075l.058-.034c-.04.016-.084.037-.12.052-.033.015-.08.032-.116.05a.1.1 0 0 0 .077.183 1 1 0 0 1 .096-.028 1 1 0 0 1 .098 0l-.066-.017a.25.25 0 0 0 .11.028c.02.002-.026-.005.003 0l.036.007q.064.017.129.03.03.005.062.013l.068.01c.044.004-.042-.009.002 0a.5.5 0 0 0 .096.012.18.18 0 0 0 .157-.086l-.11.063a.4.4 0 0 0 .063-.01.107.107 0 0 0 .063-.154m3.087-1.006a4.3 4.3 0 0 0-1.117.148.025.025 0 0 0 .007.05 4.3 4.3 0 0 0 1.117-.144.027.027 0 0 0-.007-.054m-52.821-31.667a11.6 11.6 0 0 0-3.377-.623c-1.213-.133-2.42-.125-3.636-.177-.071-.003-.068.102 0 .11 1.17.125 2.33.355 3.5.497a15.8 15.8 0 0 0 3.482.31c.053-.006.095-.089.031-.117m-.602-2.879a27.3 27.3 0 0 0-5.898-.825.018.018 0 0 0-.004.034 27.3 27.3 0 0 0 5.888.894.053.053 0 0 0 .014-.103m57.795 83.04a31.2 31.2 0 0 0-7.254-3.65c-.058-.022-.099.074-.043.1 2.452 1.137 4.807 2.475 7.252 3.627a.045.045 0 0 0 .045-.077m1.183-1.331a8.9 8.9 0 0 0-3.259-1.94c-.034-.014-.06.045-.025.06a11.4 11.4 0 0 1 1.675.878c.531.338 1.04.712 1.573 1.048.028.018.058-.022.035-.046m3.151 1.871q-.033-.044-.07-.085a1 1 0 0 0-.146-.146 2.5 2.5 0 0 0-.372-.246c-.254-.139-.522-.251-.787-.366-.042-.018-.08.041-.037.064a4.2 4.2 0 0 1 .698.485q.157.132.319.26a2 2 0 0 0 .188.126q.04.025.082.048a.2.2 0 0 0 .103.021.056.056 0 0 0 .053-.07.2.2 0 0 0-.032-.09m2.305-.538c-.823-.608-1.714-1.117-2.56-1.691-.042-.029-.078.038-.039.067a15.3 15.3 0 0 0 2.565 1.68.033.033 0 0 0 .034-.056m-26.599-20.758c-.765-.83-1.55-1.645-2.321-2.471-.043-.046-.11.022-.07.07.742.832 1.472 1.676 2.217 2.506a31 31 0 0 0 2.296 2.427c.03.026.085-.01.059-.045a32 32 0 0 0-2.18-2.487m5.076 2.301c-.592-.609-1.197-1.205-1.801-1.802-1.21-1.193-2.442-2.362-3.651-3.555a.043.043 0 0 0-.06.06c1.17 1.231 2.317 2.486 3.489 3.717.57.598 1.14 1.195 1.72 1.783a14 14 0 0 0 1.835 1.687c.043.03.101-.03.072-.072a14 14 0 0 0-1.604-1.818m4.048 1.367c-.248-.268-.505-.529-.76-.79q-.743-.767-1.507-1.513a93 93 0 0 0-3.135-2.904c-.04-.037-.1.022-.06.06 1.03.982 2.043 1.983 3.054 2.985q.738.731 1.47 1.468.385.392.77.78a5.3 5.3 0 0 0 .727.673c.028.02.062-.018.046-.045a4.7 4.7 0 0 0-.605-.714m2.523-.634a32 32 0 0 0-1.317-1.287c-.888-.828-1.83-1.596-2.784-2.347-.017-.014-.041.008-.025.025.875.835 1.72 1.701 2.574 2.558.421.423.836.853 1.26 1.275a9 9 0 0 0 1.305 1.179c.047.031.101-.03.075-.075a7 7 0 0 0-1.088-1.328m-.178-2.704c-.045-.038-.11.024-.066.066 1.18 1.118 2.238 2.362 3.473 3.423.031.027.089-.01.061-.048a19.7 19.7 0 0 0-3.468-3.44m6.185 3.007a4.4 4.4 0 0 0-.55-.54 31 31 0 0 0-.605-.518l-1.203-1.01c-.046-.039-.112.025-.067.066l1.188 1.06q.288.257.581.508a4.5 4.5 0 0 0 .624.477c.028.016.051-.02.033-.043m.089-2.15a.023.023 0 0 0-.024.04c.675.486 1.273 1.067 1.931 1.573.028.022.067-.02.048-.048a4.7 4.7 0 0 0-1.955-1.565m3.346.337a2 2 0 0 0-.73-.153c-.069-.002-.088.113-.017.123a2 2 0 0 1 .65.215 6 6 0 0 1 .598.342.035.035 0 0 0 .048-.048 1.25 1.25 0 0 0-.549-.479m-98.93 17.133c-.73 1.876-1.495 3.738-2.106 5.657-.013.04.05.067.068.028.795-1.853 1.439-3.765 2.117-5.663.018-.05-.06-.07-.079-.021m-1.425-2.251q-1.638 3.83-3.12 7.715c-.011.029.037.05.05.021q1.639-3.828 3.13-7.71c.014-.034-.045-.06-.06-.025m-1.526-.948c-1.806 4.092-3.757 8.125-5.495 12.245-.014.035.044.059.061.026a133 133 0 0 0 5.476-12.253c.01-.024-.032-.042-.042-.018m-2.082.325c-1.934 4.457-4.127 8.766-6.311 13.102a.023.023 0 0 0 .04.023 83 83 0 0 0 6.303-13.112c.007-.018-.024-.032-.032-.013m-2.613 1.504c-2.017 4.18-4.249 8.267-6.175 12.488-.018.038.035.071.057.034a114 114 0 0 0 6.158-12.498c.012-.027-.027-.051-.04-.024m-4.12 2.787c-.798 1.635-1.62 3.26-2.416 4.895-.768 1.58-1.597 3.153-2.224 4.796-.013.033.04.054.057.024.9-1.539 1.621-3.195 2.379-4.807.761-1.62 1.504-3.25 2.267-4.87.02-.044-.043-.081-.064-.038m-2.026.436a74 74 0 0 0-3.765 7.905c-.008.02.027.035.036.015 1.222-2.648 2.432-5.306 3.745-7.91.006-.011-.01-.021-.016-.01m-3.023 2.404c-.848 1.933-1.723 3.855-2.495 5.82-.008.02.026.034.036.014.897-1.907 1.693-3.86 2.516-5.8.017-.04-.04-.074-.057-.034m-2.51 2.066a23 23 0 0 1-1.005 2.556c-.376.807-.81 1.584-1.226 2.37a.022.022 0 0 0 .037.022 18.6 18.6 0 0 0 2.258-4.93c.013-.042-.05-.059-.064-.018m-2.629 2.015a18 18 0 0 1-.91 1.958c-.333.618-.725 1.198-1.08 1.802-.013.02.017.045.033.026a11 11 0 0 0 1.138-1.814 18 18 0 0 0 .883-1.954c.016-.04-.048-.056-.064-.017m-3.698 2.904c-.332.516-.671 1.027-.995 1.548-.007.011.01.02.017.01.345-.507.675-1.025 1.012-1.538.014-.021-.02-.041-.034-.02m-2.723 1.532c-.344.736-.694 1.47-1.025 2.212-.007.016.016.03.024.014.357-.73.696-1.467 1.041-2.203.013-.027-.028-.05-.04-.023m-1.474-40.317a46 46 0 0 0-2.922 9.52.041.041 0 0 0 .079.022c.892-3.2 1.813-6.381 2.868-9.531.005-.015-.019-.025-.025-.01m-2.752.953q-1.131 3.073-2.252 6.15c-.74 2.043-1.559 4.086-2.103 6.191-.01.037.047.065.064.027.877-1.953 1.508-4.022 2.197-6.047q1.074-3.152 2.124-6.313c.007-.019-.023-.027-.03-.008m-3.476 1.225c-1.646 4.111-3.415 8.213-4.673 12.463-.015.05.063.085.085.036 1.828-4.041 3.174-8.302 4.618-12.49.007-.02-.023-.027-.03-.009m-4.448 4.931c-1.055 3.116-2.282 6.166-3.375 9.267-.007.02.027.035.036.015a97 97 0 0 0 3.388-9.268c.01-.032-.039-.045-.05-.014m-3 1.553c-.89 2.807-1.912 5.566-2.867 8.35-.008.025.033.043.043.019a71 71 0 0 0 2.858-8.36.018.018 0 0 0-.034-.01M148.558 118c-.63 1.973-1.444 3.862-2.207 5.786-.01.026.033.044.046.02a33 33 0 0 0 2.217-5.791c.011-.037-.045-.052-.056-.016m-3.608 3.228a16.7 16.7 0 0 1-1.924 4.471c-.015.025.02.044.037.022a12.3 12.3 0 0 0 1.936-4.48c.007-.031-.04-.045-.049-.013m-4.604 3.895c-.427.978-.851 1.955-1.263 2.94-.005.012.016.02.022.008.43-.976.846-1.957 1.26-2.94.003-.01-.014-.018-.019-.008m-17.522 69.296q-1.132 4.077-2.147 8.188a.05.05 0 0 0 .098.027 42.6 42.6 0 0 0 2.162-8.184c.011-.073-.093-.106-.113-.031m-1.449-5.815c-1.845 6.086-4.219 11.99-6.404 17.956a.049.049 0 0 0 .089.038 109 109 0 0 0 6.39-17.973.04.04 0 0 0-.075-.02m-4.785 3.094c-2.992 7.045-6.145 14.072-8.624 21.318-.022.064.082.11.111.047 3.261-6.93 5.89-14.169 8.642-21.31.029-.074-.097-.128-.128-.055m-5.171 2.942a29.6 29.6 0 0 0-2.245 4.943c-.697 1.697-1.4 3.395-2 5.13-.599 1.733-1.196 3.468-1.906 5.16-.373.891-.803 1.757-1.183 2.645-.288.674-.635 1.372-.86 2.083a.11.11 0 0 0-.178.11 2.6 2.6 0 0 1 .03.45.268.268 0 0 0 .496.135 15 15 0 0 0 .915-2.476c.297-.887.547-1.79.85-2.674.619-1.805 1.392-3.554 2.172-5.292.727-1.619 1.375-3.27 2.04-4.915a34 34 0 0 0 1.965-5.26.053.053 0 0 0-.096-.04m-5.607 3.246c-.868 1.86-1.806 3.686-2.645 5.561-.41.92-.814 1.843-1.222 2.764a19 19 0 0 0-1.101 2.75 46 46 0 0 1-2.146 5.646c-.41.971-.838 1.934-1.245 2.905a8.9 8.9 0 0 0-.978 2.765.122.122 0 0 0 .207.086 8.6 8.6 0 0 0 1.036-2.528c.32-.91.62-1.83.95-2.737a36.7 36.7 0 0 1 2.47-5.884 19 19 0 0 0 1.15-2.596c.372-.936.764-1.864 1.151-2.794.82-1.963 1.574-3.959 2.427-5.906.016-.036-.036-.068-.054-.032m-5.787 5.629a101 101 0 0 0-4.777 10.103q-1.08 2.637-2.084 5.305-.485 1.28-.965 2.56a10 10 0 0 0-.819 2.663c-.005.064.078.071.11.03a9.8 9.8 0 0 0 1.102-2.46l.963-2.562c.656-1.74 1.307-3.48 1.988-5.21 1.384-3.52 2.817-7.027 4.522-10.405.014-.027-.026-.05-.04-.024m-6.366 6.604a75 75 0 0 0-4.17 8.65 69 69 0 0 0-1.652 4.562c-.234.73-.448 1.467-.692 2.194-.27.8-.633 1.54-.971 2.311-.016.038.028.082.061.047a9.34 9.34 0 0 0 1.684-3.811q.73-2.372 1.603-4.698a75 75 0 0 1 4.192-9.224c.019-.035-.034-.066-.054-.031m-5.327 4.496c-1.438 3.11-2.779 6.261-4.088 9.428l-1.958 4.735a43 43 0 0 0-1.865 5.017.051.051 0 0 0 .093.04 42 42 0 0 0 2.081-4.586c.668-1.616 1.322-3.238 1.982-4.857 1.32-3.233 2.608-6.476 3.794-9.76.009-.023-.029-.039-.039-.017m-3.379-.087a987 987 0 0 0-5.823 11.594 24 24 0 0 0-1.311 2.725 22 22 0 0 1-1.423 3.108c-.495.949-.997 1.895-1.485 2.848a12 12 0 0 0-1.268 2.85c-.01.05.055.1.095.055a11.4 11.4 0 0 0 1.439-2.607c.462-.969.91-1.946 1.36-2.92a19 19 0 0 1 1.44-2.875 22 22 0 0 0 1.536-2.96 464 464 0 0 0 5.467-11.803c.008-.018-.018-.034-.027-.015m-7.047 5.923c-1.786 4.028-3.6 8.043-5.365 12.08q-1.3 2.974-2.594 5.95c-.862 1.994-1.766 3.981-2.463 6.04a.047.047 0 0 0 .085.035c1.017-1.903 1.843-3.907 2.7-5.887q1.317-3.036 2.616-6.08c1.724-4.02 3.398-8.062 5.102-12.092.023-.054-.057-.102-.081-.047m-4.498 3.284c-2.081 4.04-4.054 8.142-5.862 12.312a108 108 0 0 0-4.743 12.58c-.017.056.065.075.087.023 1.702-4.139 3.239-8.342 4.957-12.476a215 215 0 0 1 5.605-12.413c.015-.03-.028-.055-.043-.026m-5.426 3.008q-2.516 6.415-4.993 12.844c-1.637 4.27-3.419 8.532-4.724 12.918-.015.05.063.085.085.036 1.9-4.132 3.368-8.48 4.946-12.741q2.409-6.508 4.757-13.037c.017-.046-.054-.064-.071-.02m-4.722 4.102q-2.408 6.08-4.827 12.156c-1.606 4.038-3.343 8.058-4.678 12.196-.018.058.074.1.1.043 1.805-3.922 3.238-8.025 4.778-12.056q2.353-6.159 4.71-12.316c.02-.052-.063-.074-.083-.023m-5.078 5.105c-1.597 3.69-3.17 7.389-4.665 11.12-1.52 3.794-3.06 7.596-4.237 11.514-.023.074.085.098.113.03 1.574-3.736 2.91-7.569 4.365-11.353a415 415 0 0 1 4.502-11.277c.019-.045-.06-.078-.078-.034m-6.097 5.787c-3.814 7.028-5.785 14.874-8.763 22.261-.026.064.079.107.11.047 3.702-7.095 5.074-15.147 8.683-22.29.01-.02-.02-.038-.03-.018m-6.973 6.432c-2.384 6.416-5.107 12.765-7.008 19.347-.012.041.053.071.072.03 2.755-6.277 4.734-12.898 7.015-19.355.018-.05-.061-.071-.08-.022m-6.837 8.217c-.943 2.512-1.973 4.991-3 7.47a339 339 0 0 1-1.616 3.822q-.342.794-.68 1.589c-.267.637-.473 1.561-1.13 1.907-.05.026-.015.102.038.09a1.33 1.33 0 0 0 .85-.674 16 16 0 0 0 .924-1.945c.57-1.296 1.114-2.603 1.644-3.916 1.107-2.742 2.088-5.526 3.049-8.321.017-.05-.061-.071-.08-.022m-7.06 7.974c-1.394 3.774-2.93 7.5-4.26 11.297-.013.035.044.06.06.026a106 106 0 0 0 4.242-11.311c.009-.027-.032-.037-.042-.012m153.717 1.064c-.339-.358-.649-.744-.963-1.123a122 122 0 0 1-1.974-2.446c-1.311-1.665-2.592-3.356-3.782-5.11-.018-.027-.061-.002-.044.025 1.121 1.77 2.263 3.528 3.494 5.225q.858 1.182 1.764 2.327c.35.445.717.878 1.06 1.33a4.5 4.5 0 0 0 .437.563c.203.192.462.32.682.493.06.048.157-.011.113-.087a5.5 5.5 0 0 0-.787-1.197m5.685 6.743c-.02.001-.03.02-.043.035l-.038-.025a3 3 0 0 1-.19-.24c-.144-.183-.294-.361-.441-.54l-.859-1.048a113 113 0 0 1-1.697-2.115c-.007-.008-.022.003-.015.012.722 1 1.418 2.018 2.115 3.036l.511.745c.124.18.263.464.477.55.37.148.464-.428.18-.41m4.196-.635q-.568-.789-1.142-1.574a183 183 0 0 0-2.487-3.306q-2.41-3.143-4.925-6.202c-.015-.019-.049.006-.034.026q2.467 3.228 4.846 6.522c.782 1.082 1.554 2.172 2.326 3.26q.563.792 1.12 1.588a4.5 4.5 0 0 0 1.126 1.348.075.075 0 0 0 .109-.084 4.6 4.6 0 0 0-.939-1.577m5.596 1.153-1.012-1.206c-.673-.805-1.34-1.615-2.01-2.422a210 210 0 0 1-3.958-4.88c-.025-.032-.08.01-.056.042 1.215 1.647 2.427 3.295 3.678 4.915q.936 1.211 1.901 2.398.496.613.997 1.22a3.4 3.4 0 0 0 1.055 1.06.075.075 0 0 0 .11-.084 2.8 2.8 0 0 0-.705-1.043m4.085-.553c-.59-.683-1.18-1.368-1.777-2.045-1.178-1.335-2.398-2.621-3.626-3.91-.012-.012-.03.007-.02.02 1.084 1.392 2.166 2.776 3.302 4.125q.825.976 1.66 1.943a8.1 8.1 0 0 0 1.787 1.844c.05.03.13-.02.106-.082a7.5 7.5 0 0 0-1.432-1.895m6.442 2.441c-.26-.25-.526-.493-.791-.739-.53-.491-1.06-.981-1.582-1.481a67 67 0 0 1-3.044-3.08c-.041-.045-.106.02-.067.066a77 77 0 0 0 2.914 3.211 50 50 0 0 0 1.497 1.485c.263.248.528.494.802.73a4 4 0 0 0 .843.632c.062.03.144-.034.101-.101a4.2 4.2 0 0 0-.673-.723m3.285-.824c-.351-.306-.705-.608-1.054-.917-.688-.61-1.379-1.214-2.05-1.842-.05-.047-.123.026-.074.074.651.645 1.303 1.294 1.979 1.913q.498.46 1.007.91a5.2 5.2 0 0 0 1.064.809c.03.014.074-.018.05-.051a5.6 5.6 0 0 0-.922-.896m3.118-1.112c-.48-.386-.981-.744-1.463-1.129-.057-.046-.138.03-.083.083.44.425.855.872 1.297 1.295a5.6 5.6 0 0 0 1.436 1.098c.045.02.103-.024.073-.072a5.5 5.5 0 0 0-1.26-1.275m4.793.96a12 12 0 0 0-2.332-1.284.018.018 0 0 0-.017.03 12 12 0 0 0 2.323 1.315c.039.014.053-.04.026-.06m7.669.498c-.595-.3-1.234-.514-1.855-.753-.073-.028-.105.09-.033.117.617.239 1.23.506 1.868.682.028.008.046-.033.02-.046m-113.494-51.093q-.889-4-1.803-7.994c-.008-.035-.06-.02-.053.014q.858 4.01 1.735 8.014c.585 2.657 1.056 5.377 1.812 7.992a.02.02 0 0 0 .037-.01c-.418-2.691-1.137-5.358-1.728-8.016m4.306 14.483a44 44 0 0 0-1.608-4.078c-.008-.018-.04-.005-.032.014a41 41 0 0 1 1.44 4.119c.405 1.392.657 2.853 1.147 4.216.014.04.08.037.077-.01a16.7 16.7 0 0 0-1.024-4.261m4.268 1.905q-.884-2.711-1.71-5.441-1.671-5.515-3.136-11.093a.027.027 0 0 0-.053.015q1.383 5.66 3.009 11.254.816 2.795 1.69 5.573a41 41 0 0 0 1.86 5.28c.02.044.084.012.075-.032-.416-1.885-1.135-3.713-1.735-5.555m5.838 4.786c-.49-1.5-.973-3-1.47-4.498q-1.47-4.436-3.011-8.847c-.011-.033-.063-.02-.053.015a627 627 0 0 0 2.78 9.04c.466 1.463.94 2.923 1.41 4.385a38 38 0 0 0 1.532 4.37c.035.074.14.018.125-.053a38 38 0 0 0-1.314-4.412m3.815.181c-.89-2.018-1.798-4.028-2.671-6.053-.011-.026-.057-.007-.047.02.797 2.056 1.59 4.114 2.439 6.15a59 59 0 0 0 2.667 5.849c.03.055.125.017.103-.044-.712-2.022-1.627-3.962-2.491-5.922m3.381-.236c-.015-.034-.065-.004-.05.03.928 2.166 1.79 4.379 2.832 6.494.012.025.056.007.046-.02-.84-2.205-1.873-4.346-2.828-6.504m4.098 5.098a.068.068 0 0 0-.118.069 32 32 0 0 0 2.208 3.747.043.043 0 0 0 .075-.043 32 32 0 0 0-2.165-3.773m72.141-11.385a17 17 0 0 0-2.134-1.152l-2.137-1.145c-1.386-.744-2.764-1.504-4.163-2.222-.676-.347-1.366-.667-2.046-1.005-.338-.169-.635-.404-.967-.574a2.8 2.8 0 0 0-.84-.157c-.74-.13-1.458-.379-2.201-.509-.68-.118-1.367-.176-2.055-.227-.01 0-.01.015 0 .016a11.2 11.2 0 0 1 4.592 1.176 1.8 1.8 0 0 0 .593.19 6.3 6.3 0 0 1 1.43.487c.66.293 1.304.627 1.945.961 1.333.696 2.655 1.415 3.98 2.125q1.016.543 2.029 1.09a15 15 0 0 0 1.938 1.031c.054.02.075-.056.036-.085m6.106-.366a12 12 0 0 0-1.987-1.21q-1.16-.657-2.314-1.323-2.256-1.302-4.496-2.631a400 400 0 0 1-9-5.484c-.043-.027-.082.04-.04.067a332 332 0 0 0 8.928 5.608q2.23 1.345 4.483 2.655 1.152.669 2.31 1.33a11.6 11.6 0 0 0 2.063 1.08.055.055 0 0 0 .053-.092m8.291.397a6 6 0 0 0-1.933-1.1 77 77 0 0 1-2.196-1.074 39 39 0 0 1-2.039-1.102c-.699-.414-1.326-.96-2.029-1.359-.662-.375-1.445-.595-2.138-.928a139 139 0 0 0-2.21-1.044c-1.483-.68-2.97-1.351-4.45-2.033-.037-.016-.068.036-.032.054 1.45.733 2.885 1.493 4.315 2.264q1.02.547 2.043 1.09c.713.378 1.382.884 2.1 1.234.695.34 1.483.519 2.194.835.744.331 1.462.717 2.177 1.107.714.389 1.413.804 2.109 1.223a6.2 6.2 0 0 0 1.979 1.022.114.114 0 0 0 .11-.189m5.954-.312c-.093-.379-.803-.57-1.119-.733-.63-.325-1.275-.614-1.921-.906a47 47 0 0 1-3.883-1.992q-3.741-2.126-7.592-4.031c-.013-.007-.025.012-.012.02a144 144 0 0 0 7.117 3.858 60 60 0 0 1 3.508 1.892c.572.338 1.13.7 1.693 1.05.282.176.572.338.862.499a3.6 3.6 0 0 0 .85.404c-.025.111.029.21.176.27a.21.21 0 0 0 .204-.054l.057-.047a.23.23 0 0 0 .06-.23m-.042-3.882a4.8 4.8 0 0 0-1.67-1.117q-.978-.507-1.979-.97c-1.279-.59-2.6-1.075-3.921-1.564-.074-.028-.102.087-.032.116 1.322.554 2.601 1.208 3.879 1.857q.916.467 1.819.961a5.7 5.7 0 0 0 1.835.835.071.071 0 0 0 .069-.118m4.872 2.513a8 8 0 0 0-.894-.5c-.597-.282-1.215-.524-1.828-.766-.032-.013-.056.042-.024.057a11.5 11.5 0 0 1 1.684.997q.397.276.797.548c.217.148.516.45.803.368a.09.09 0 0 0 .063-.083c-.01-.3-.383-.48-.601-.621m4.572-1.019a5.3 5.3 0 0 0-1.65-1.307 37 37 0 0 0-1.96-1.218 42 42 0 0 0-4.172-2.007c-.034-.015-.064.034-.03.051a45 45 0 0 1 3.936 2.271q.952.59 1.88 1.219.465.313.92.638a2.9 2.9 0 0 0 .935.537.126.126 0 0 0 .14-.184m2.087-3.02a8 8 0 0 0-.918-.568 11.5 11.5 0 0 0-1.985-.779c-.1-.031-.137.119-.043.155a11.3 11.3 0 0 1 1.865.964q.435.265.854.556a3.5 3.5 0 0 0 .864.502.077.077 0 0 0 .086-.111 2.3 2.3 0 0 0-.723-.719m6.956 39.911c-2.938-1.464-5.995-2.671-9.029-3.918-.03-.013-.052.04-.022.053 2.982 1.366 5.951 2.776 9.026 3.923.034.012.056-.042.025-.058m7.556.723a22 22 0 0 0-2.998-1.403c-.98-.424-1.963-.84-2.944-1.26-2.001-.855-4.014-1.682-6.011-2.546-.055-.024-.103.056-.048.08 2.012.91 4.007 1.855 6.015 2.773 1.005.46 2.008.922 3.015 1.374a20.5 20.5 0 0 0 2.881 1.196.118.118 0 0 0 .09-.215m4.095-.599a11 11 0 0 0-1.255-.498c-.47-.186-.931-.395-1.388-.611-.898-.425-1.773-.897-2.654-1.357a28 28 0 0 0-5.214-2.261.037.037 0 0 0-.02.072 26 26 0 0 1 5.39 2.618 38 38 0 0 0 2.537 1.378 8.1 8.1 0 0 0 2.528.938c.151.016.2-.212.076-.28m-5.135-4.647c-.036-.018-.067.036-.031.054 1.508.775 3.001 1.61 4.55 2.303.02.009.038-.019.018-.03-1.47-.846-3.023-1.562-4.537-2.327m7.491 3.407a1 1 0 0 0-.19-.133 2.5 2.5 0 0 0-.41-.189c-.27-.096-.55-.153-.826-.227a.022.022 0 0 0-.012.041 2.4 2.4 0 0 1 .709.41q.154.122.307.247a2 2 0 0 0 .17.138.3.3 0 0 0 .253.069.15.15 0 0 0 .105-.106.28.28 0 0 0-.106-.25m2.624-1.364q-.39-.214-.785-.418a27 27 0 0 0-1.56-.737c-1.046-.46-2.136-.798-3.22-1.152-.037-.012-.05.044-.016.057 1.081.415 2.115.944 3.152 1.458.498.246.988.506 1.478.768q.367.196.73.402c.2.113.381.262.617.174a.095.095 0 0 0 .064-.113c-.042-.246-.261-.329-.46-.439m3.043-.901a3.3 3.3 0 0 0-1.071-.651c-.378-.169-.762-.33-1.15-.47-.816-.293-1.647-.536-2.475-.79-.061-.018-.085.073-.026.094.823.297 1.613.665 2.405 1.036q.559.262 1.118.521a3.9 3.9 0 0 0 1.14.404c.076.01.105-.096.06-.144m1.145-1.631a5 5 0 0 0-.932-.585c-.375-.2-.767-.375-1.135-.587a.072.072 0 0 0-.073.125 18 18 0 0 0 1.835 1.266c.08.04.159.072.24.105.068.028.157.059.218-.001.115-.114-.075-.255-.153-.323m3.021-.873a1.1 1.1 0 0 0-.351-.101 2 2 0 0 0-.404-.03c-.264.003-.527.023-.79.013-.042-.001-.04.058 0 .063.26.034.516.097.775.144a2 2 0 0 0 .388.038 1.1 1.1 0 0 0 .37-.041.048.048 0 0 0 .011-.086m6.137-3.289a4.2 4.2 0 0 0-1.13-.508c-.436-.16-.877-.306-1.317-.452q-1.322-.438-2.65-.854c-.027-.008-.036.031-.011.042q1.27.53 2.547 1.036c.418.166.835.332 1.257.487a4.3 4.3 0 0 0 1.257.363c.054.002.094-.078.047-.114m3.733-1.348a6 6 0 0 0-1.781-.851q-1.089-.407-2.192-.776c-1.444-.483-2.906-.911-4.366-1.345-.06-.018-.085.074-.026.094 1.423.477 2.827 1.01 4.229 1.544q1.05.4 2.1.806a6.9 6.9 0 0 0 1.997.621.055.055 0 0 0 .039-.093m3.787-1.632a13.5 13.5 0 0 0-2.341-.93q-1.205-.447-2.411-.887c-1.638-.595-3.298-1.123-4.938-1.71-.08-.028-.11.095-.035.124 1.6.624 3.179 1.304 4.782 1.922.77.297 1.543.586 2.314.879a14.3 14.3 0 0 0 2.51.884.155.155 0 0 0 .12-.282m2.747-1.959a9 9 0 0 0-2.116-1.029q-1.075-.437-2.173-.81a42 42 0 0 0-4.628-1.286.014.014 0 0 0-.007.026c1.508.46 3.003.96 4.48 1.512q1.087.407 2.162.847a13.5 13.5 0 0 0 2.233.858.065.065 0 0 0 .05-.118m2.685-2.145a6 6 0 0 0-1.61-.7 35 35 0 0 0-1.778-.559c-1.196-.347-2.413-.606-3.635-.845-.036-.007-.052.047-.015.056 1.202.315 2.39.689 3.575 1.063.593.187 1.182.387 1.771.584a7.6 7.6 0 0 0 1.671.477c.045.005.05-.055.02-.076m1.874-2.006a2.3 2.3 0 0 0-.806-.34c-.303-.088-.61-.16-.917-.236-.625-.155-1.25-.304-1.871-.47a.03.03 0 0 0-.016.057c.602.196 1.197.407 1.795.614.288.1.575.201.865.293a2.4 2.4 0 0 0 .912.172c.04-.003.077-.058.038-.09m.862-1.501a.8.8 0 0 0-.258-.081 1 1 0 0 0-.483.073.043.043 0 0 0 .023.083.96.96 0 0 1 .434.031c.07.022.142.039.21.066a.4.4 0 0 0 .212.055.05.05 0 0 0 .035-.06c-.013-.085-.103-.133-.173-.168m2.08-3.199c-.133-.086-.308.015-.42.097a2 2 0 0 0-.141.112.2.2 0 0 0-.06.088s.004-.01-.001-.003q-.014.014-.026.029a2.5 2.5 0 0 0-.316.501.027.027 0 0 0 .047.028.9.9 0 0 1 .21-.223l.059-.036c.022-.013.04-.03.063-.043a1 1 0 0 1 .11-.05.2.2 0 0 0 .051-.005l.038-.016q-.025.01-.009.004l.03-.012q.057-.02.115-.038l.119-.033a1 1 0 0 0 .1-.037l-.026.01.05-.02a.2.2 0 0 0 .078-.083.204.204 0 0 0-.071-.27m18.84-20.428a.025.025 0 0 0-.05-.014 28.27 28.27 0 0 0-1.346 14.307c.007.048.087.037.084-.011a46.7 46.7 0 0 1 1.312-14.282m-1.776-1.725a42.2 42.2 0 0 0-2.92 18.395.049.049 0 0 0 .099 0 68 68 0 0 1 2.847-18.388c.005-.017-.02-.023-.026-.007m-3.117.835c-2.161 6.214-3.418 13.028-2.527 19.609.01.078.134.057.135-.018a82 82 0 0 1 .423-9.796 54.5 54.5 0 0 1 2.06-9.77c.018-.058-.071-.081-.091-.025m-3.261 2.72c-1.633 5.819-2.583 12.052-1.766 18.088.011.078.134.057.135-.018.013-2.996-.009-5.993.265-8.98a60 60 0 0 1 1.48-9.06.059.059 0 0 0-.114-.03m-3.113 4.798a.035.035 0 0 0-.068-.018 30.5 30.5 0 0 0-.961 13.981.04.04 0 0 0 .077-.01 47.5 47.5 0 0 1 .952-13.953m-3.088 5.443a.047.047 0 0 0-.09-.025 17.3 17.3 0 0 0-.38 7.18c.007.036.07.028.066-.01a23.8 23.8 0 0 1 .404-7.145"/><path fill="currentColor" d="M395.73 377.348a77 77 0 0 1-1.522-8.667 80 80 0 0 1-.078-17.751c.625-5.8 2.556-11.7 1.59-17.56-.479-2.9-1.96-5.44-3.155-8.083a72 72 0 0 1-3.074-8.07 92 92 0 0 1-3.582-16.73c-.145-1.214-.325-2.42-.504-3.63.33-5.408.642-10.818.906-16.231.025-.5.042-.995.064-1.491 1.076-5.264 2.272-10.504 3.469-15.74.497-2.177 1.082-4.356 1.418-6.564a9.98 9.98 0 0 0-3.933-10.69 52 52 0 0 0-2.05-1.617c-.084-.256-.206-.506-.307-.746l-.961-2.295c-.578-1.38-1.154-2.761-1.739-4.14-1.096-2.582-2.23-5.152-3.513-7.649a49.5 49.5 0 0 0-4.358-7.1 35 35 0 0 0-2.662-3.16 18 18 0 0 0-1.812-1.621 70 70 0 0 0-4.13-5.39 42.2 42.2 0 0 0-6.77-6.23 31.7 31.7 0 0 0-7.979-4.445 30.5 30.5 0 0 0-10.138-1.711c-3.761-.067-7.53.236-11.283.448-3.822.216-7.643.436-11.467.631-7.52.384-15.05.67-22.583.628a188 188 0 0 1-22.77-1.386 154 154 0 0 1-22.108-4.707c-13.156-3.692-26.636-7.864-40.427-5.478a38 38 0 0 0-8.843 2.656c-.112-.126-.234-.246-.351-.367l-.478-.495c-.066-.086-.123-.18-.192-.263a15 15 0 0 0-.465-.52c-.23-.322-.497-.627-.726-.916a38 38 0 0 0-2.567-2.926 36 36 0 0 0-2.794-2.584 43 43 0 0 0-1.537-1.216c7.704-3.54 15.128-7.697 22.514-11.844 9.154-5.14 18.16-10.525 27.101-16.026a62 62 0 0 1 6.768-3.71c2.36-1.074 4.788-2 7.19-2.976 4.915-1.997 9.938-3.867 14.683-6.25 1.188-.597 2.408-1.105 3.59-1.714a.38.38 0 0 0 .185-.207c3.301-.592 6.62-1.096 9.958-1.425a82.6 82.6 0 0 1 12.215-.356c4.077.203 8.157.657 12.13-.563 3.633-1.116 6.93-3.097 10.515-4.35a76 76 0 0 1 10.922-2.758c3.749-.714 7.521-1.31 11.252-2.117a73 73 0 0 0 10.927-3.302c1.834-.708 3.667-1.428 5.549-2.001 1.846-.563 3.74-.896 5.617-1.33 3.32-.766 6.785-2.197 8.412-5.413 3.693-7.3-6.542-11.746-12.036-12.795-7.626-1.456-15.281.212-22.675 2.09-3.905.993-7.806 1.979-11.763 2.742q-6.009 1.159-12.102 1.785a141.4 141.4 0 0 1-24.251.391c-3.634-.254-7.51-.394-10.979-1.604-2.775-.967-5.296-3.127-5.706-6.18a5.3 5.3 0 0 1 .315-2.608c1.374-.97 2.828-1.838 4.251-2.73q2.472-1.55 4.96-3.073 10.055-6.16 20.313-11.978c3.356-1.916 6.714-3.833 10.121-5.657 3.449-1.847 6.985-3.496 10.509-5.19a76.5 76.5 0 0 0 9.776-5.507c3.114-2.106 6.07-4.436 8.972-6.821 2.718-2.234 5.678-4.403 7.963-7.099 2.184-2.577 3.696-5.92 3.015-9.354a8.97 8.97 0 0 0-5.837-6.305c-3.19-1.252-6.731-.845-9.938.128a89 89 0 0 0-10.775 4.391q-5.224 2.372-10.303 5.046c-3.236 1.704-6.42 3.513-9.746 5.038a43 43 0 0 1-5.262 2.038 52 52 0 0 1-5.511 1.282 34.2 34.2 0 0 0-10.503 3.513c-3.41 1.72-6.682 3.72-9.989 5.628l-10.43 6.015c-1.686.972-3.346 2.005-5.04 2.975a5.35 5.35 0 0 1-3.095-1.377 4.8 4.8 0 0 1-.824-.848.074.074 0 0 0-.075-.102 5.1 5.1 0 0 1-.925-2.03 6.8 6.8 0 0 1 .578-3.959 12 12 0 0 1 .699-1.332 57 57 0 0 1 4.697-3.86 109 109 0 0 1 9.96-6.68 34 34 0 0 1 5.719-2.683c2.042-.717 4.14-1.263 6.188-1.965a26.5 26.5 0 0 0 5.7-2.679c1.743-1.111 3.36-2.402 5.003-3.65a60.4 60.4 0 0 1 9.954-6.054c6.835-3.363 14.134-6.01 20.253-10.654a23.8 23.8 0 0 0 7.177-8.252c1.514-3.064 2.26-6.718 1.014-10.009-2.532-6.69-10.66-8.277-16.907-6.62-4.023 1.067-7.665 3.176-11.292 5.153a69.6 69.6 0 0 1-11.685 5.137 73 73 0 0 1-12.71 2.814 43 43 0 0 0-6.551 1.271 33 33 0 0 0-5.755 2.434c-3.656 1.926-7.072 4.272-10.7 6.252a118 118 0 0 1-11.493 5.437c-.332.136-.666.265-.999.4a17.2 17.2 0 0 0 1.324-3.322 18.3 18.3 0 0 0 .817-6.073 17.72 17.72 0 0 0-4.224-10.829 17.1 17.1 0 0 0-10.502-5.886 14.3 14.3 0 0 0-6.871 1.172c-2.406.901-4.806 1.814-7.209 2.722-2.637.996-5.323 1.911-7.915 3.019-1.317.563-2.69 1.081-3.965 1.73-.792.404-1.562.843-2.335 1.275a59 59 0 0 0-3.593.137q-3.504.252-6.997.618a47 47 0 0 0-6.343.929 13.5 13.5 0 0 0-5.434 2.668 26.7 26.7 0 0 0-4.004 4.475c-2.884 3.753-5.825 7.472-8.629 11.285-.09.123-.176.25-.266.373l-.274.258c-1.697 1.626-3.434 3.214-5.117 4.854q-5.094 4.964-10.286 9.828c-3.46 3.241-6.916 6.49-10.396 9.71a96 96 0 0 1-9.79 8.426 30 30 0 0 1-5.38 3.069 43 43 0 0 1-6.126 1.91 41 41 0 0 0-6.293 2.043 24.8 24.8 0 0 0-5.327 3.326 89 89 0 0 0-9.168 9.016q-4.81 5.104-9.494 10.325c-3.12 3.477-6.278 6.946-9.204 10.588-2.8 3.483-5.452 7.073-8.13 10.648-1.443 1.164-2.892 2.322-4.331 3.493a26 26 0 0 1-3.808 2.639c-1.392.77-2.871 1.363-4.309 2.04a41 41 0 0 0-7.778 5.197c-10.031 7.918-21.222 14.131-32.275 20.479-3.296 1.893-6.658 3.706-9.894 5.702-1.62 1-3.223 2.05-4.757 3.176-1.535 1.128-3.168 2.128-4.753 3.184a.192.192 0 0 0 .193.33c1.59-.778 3.157-1.662 4.787-2.35a67 67 0 0 0 4.412-2.082c3.017-1.542 5.92-3.33 8.858-5.016 5.658-3.249 11.342-6.456 16.933-9.82a170 170 0 0 0 15.886-10.63 70 70 0 0 1 7.544-5.505c2.748-1.578 5.756-2.548 8.346-4.416a91 91 0 0 0 8.272-7.16q2.04-1.88 4.066-3.771a56 56 0 0 0 4.11-4.076c.08-.092-.022-.25-.137-.178a87 87 0 0 0-7.828 5.912 273 273 0 0 0 3.748-4.078c3.115-3.483 6.191-6.997 9.292-10.493q4.615-5.201 9.355-10.29c3.027-3.248 6.02-6.582 9.287-9.593a29.7 29.7 0 0 1 4.836-3.708 24.4 24.4 0 0 1 5.925-2.439c2.082-.592 4.2-1.062 6.258-1.737a28.4 28.4 0 0 0 5.731-2.62 61.7 61.7 0 0 0 9.878-7.854c3.475-3.203 6.939-6.424 10.318-9.727 4.233-4.136 8.448-8.297 12.574-12.542-1.509 2.22-3.003 4.452-4.54 6.654-.103.148.134.334.251.195 2.964-3.517 6.078-6.907 8.98-10.476 2.916-3.587 5.69-7.287 8.506-10.953 2.413-3.142 4.734-6.722 8.679-8.027a28.6 28.6 0 0 1 5.82-1.074q3.43-.387 6.87-.671c2.549-.207 5.086-.43 7.628-.706 1.27-.138 2.546-.297 3.818-.401a23 23 0 0 0 3.713-.485.059.059 0 0 0 0-.113 17 17 0 0 0-3.343-.347c-1.152-.034-2.297-.112-3.45-.13l-.384-.005c.868-.248 1.725-.533 2.588-.808 2.293-.732 4.533-1.598 6.786-2.446l6.642-2.501a35 35 0 0 1 6.58-2.198c3.79-.608 7.78 1.433 10.486 3.957a17.38 17.38 0 0 1 5.264 9.269 16.6 16.6 0 0 1-.034 6.505 17.4 17.4 0 0 1-1.032 3.258c-.25.58-.545 1.134-.821 1.696-.337.132-.678.254-1.016.385a21 21 0 0 0 .804-2.133 16.8 16.8 0 0 0 .81-5.107c0-.038-.061-.05-.068-.01a27 27 0 0 1-1.267 4.886 19.5 19.5 0 0 1-1.06 2.346c-.072.135-.15.266-.225.4q-3.771 1.435-7.574 2.785c-4.029 1.44-8.085 2.824-12.18 4.06q-1.467.444-2.932.89c-1.02.31-1.989.732-2.977 1.133a.117.117 0 0 0 .062.226c1.052-.172 2.098-.315 3.13-.582q1.537-.398 3.07-.81c2.01-.54 4.039-1.017 6.044-1.567 4.082-1.12 8.142-2.297 12.15-3.657a114 114 0 0 0 22.649-10.56c3.436-2.095 6.872-4.322 10.71-5.616 4.167-1.405 8.639-1.549 12.924-2.438a66 66 0 0 0 12.099-3.756c3.845-1.612 7.416-3.698 11.108-5.615 3.313-1.721 6.899-3.292 10.69-3.373a12.26 12.26 0 0 1 8.444 2.71c5.572 5.015 1.564 13.049-2.89 17.254-5.45 5.147-12.738 7.97-19.433 11.077a77 77 0 0 0-9.939 5.317c-3.38 2.222-6.348 5.077-9.963 6.937-3.783 1.947-8.079 2.607-11.966 4.314a65 65 0 0 0-10.666 6.437c-5.613 3.885-11.937 8.313-14.37 14.983a18 18 0 0 0-.665 2.222c-.191.855-.248 1.707-.39 2.567-.04.236.322.338.361.1a11.6 11.6 0 0 1 .854-2.512 15.4 15.4 0 0 1 1.156-2.234c.25-.395.527-.774.792-1.16a32.3 32.3 0 0 0-2.374 7.112.049.049 0 0 0 .095.026c1.084-2.652 1.936-5.395 2.926-8.086a28 28 0 0 1 1.644-2.037c.2-.225.415-.434.62-.655a7.5 7.5 0 0 0-.329 1.92c-.935 2.782-1.906 5.553-2.766 8.355a.061.061 0 0 0 .101.06 5.46 5.46 0 0 0 1.103-2.29q.533-1.559 1.012-3.137c.208-.688.394-1.38.584-2.071.02.183.035.368.073.55a5.9 5.9 0 0 0 .595 1.59c-.123.482-.244.966-.374 1.447a60 60 0 0 1-.555 1.908 4.1 4.1 0 0 0-.4 1.698.085.085 0 0 0 .14.037 3.7 3.7 0 0 0 .68-1.62c.203-.655.38-1.318.544-1.984q.129-.518.238-1.043a6.7 6.7 0 0 0 .888 1.115q-.247.865-.486 1.733a7 7 0 0 0-.352 1.46 12.3 12.3 0 0 1-4.41.661c-.155-.006-.174.217-.036.261 3.492 1.117 7.04-.089 10.186-1.652 3.477-1.728 6.8-3.778 10.161-5.718l10.323-5.955a64.3 64.3 0 0 1 9.697-4.936c3.563-1.315 7.357-1.63 10.991-2.677a55.4 55.4 0 0 0 10.063-4.24c3.342-1.733 6.63-3.566 10-5.245q5.188-2.585 10.523-4.86c3.383-1.443 6.946-3.064 10.68-3.205a9.33 9.33 0 0 1 7.633 3.042c2.042 2.51 1.423 5.967-.179 8.53-1.848 2.96-4.848 5.112-7.492 7.313-2.82 2.348-5.669 4.665-8.663 6.79a72 72 0 0 1-9.68 5.77c-3.459 1.715-6.985 3.287-10.41 5.072-3.422 1.783-6.78 3.688-10.134 5.594q-10.146 5.766-20.135 11.802-4.966 3.018-9.873 6.135c-2.488 1.59-5.25 3.744-4.987 7.046a3.77 3.77 0 0 0 1.79 3.145c.227.18.55-.14.32-.32-1.107-.877-.992-2.78-.55-3.946a5.8 5.8 0 0 1 1.576-2.162 7.78 7.78 0 0 0 .694 4.778c1.451 3.025 4.733 4.517 7.853 5.218a70 70 0 0 0 11.373 1.232q6.062.34 12.138.16a143 143 0 0 0 24.12-2.786c7.754-1.571 15.36-4.304 23.28-4.948a31.6 31.6 0 0 1 10.548.764 21.4 21.4 0 0 1 4.907 1.922 11.2 11.2 0 0 1 3.722 2.958 4.33 4.33 0 0 1 .671 4.186 6.9 6.9 0 0 1-2.89 3.281c-.124.076-.258.13-.385.2a3 3 0 0 1-.634-.643 5.7 5.7 0 0 1-.65-1.575 21.4 21.4 0 0 1-.828-3.832.52.52 0 0 0-.363-.476 5.5 5.5 0 0 0-1.159-.172c-.4-.046-.804-.053-1.206-.087a7.9 7.9 0 0 0-2.323.134c-.017.004-.014.033.004.031a8.2 8.2 0 0 1 2.291.042 4.1 4.1 0 0 1 1.098.382 6 6 0 0 1 .711.442 21 21 0 0 0 1.05 4.466 3.66 3.66 0 0 0 1.064 1.726c.012.01.027.012.04.021a21.4 21.4 0 0 1-3.894 1.137c-1.853.403-3.702.775-5.51 1.355-.493.158-.978.339-1.465.51-.342-.357-.707-.696-1.023-1.092a6.7 6.7 0 0 1-1.342-2.812 5.15 5.15 0 0 1 .127-2.735 4.93 4.93 0 0 1 1.758-2.351.035.035 0 0 0-.035-.06 3.95 3.95 0 0 0-2.079 2.035 5.93 5.93 0 0 0-.575 3.079 6.7 6.7 0 0 0 1.32 3.183 9 9 0 0 0 .905 1.082c-2.833 1.038-5.617 2.208-8.522 3.048-2.153.623-4.338 1.116-6.534 1.56-.169-.32-.35-.631-.49-.972a34 34 0 0 1-.487-1.233 47 47 0 0 1-.761-2.335c-.114-.37-.332-.705-.47-1.072q-.23-.606-.413-1.228a39 39 0 0 1-.644-2.505c-.005-.02-.034-.011-.03.008.138.856.257 1.715.425 2.565.084.424.175.846.282 1.265a8 8 0 0 0 .286 1.11c.323.777.765 1.513 1.112 2.281.205.452.393.913.578 1.372a7 7 0 0 1 .251.815q-2.076.413-4.16.786c-3.711.668-7.434 1.301-11.094 2.218a59.7 59.7 0 0 0-10.65 3.842 37 37 0 0 1-5.207 2.09 16.4 16.4 0 0 1-2.449.488 9.6 9.6 0 0 1-1.098-1.003 11.2 11.2 0 0 0-.7-3.281 12.2 12.2 0 0 1-.17-3.771c.09-1.243.25-2.48.408-3.715.093-.719.203-1.436.306-2.153.074-.512.132-1.042.239-1.553q.149.177.293.366c-.08.503-.012 1.02-.046 1.531-.037.555-.079 1.11-.106 1.665a32 32 0 0 0 .03 3.701 37 37 0 0 0 .383 3.371 21 21 0 0 0 .734 3.517l.002-.002c.073.287.596.225.507-.139-.274-1.126-.66-2.21-.868-3.356a25 25 0 0 1-.39-3.51 30 30 0 0 1 .048-3.343 17 17 0 0 1 .21-1.83 17 17 0 0 0 .432-1.728.458.458 0 0 0-.576-.438c-.246.072-.473-.187-.624-.337a.17.17 0 0 0-.287.12 26.6 26.6 0 0 1-.41 3.875c-.169 1.35-.387 2.69-.586 4.035a12.7 12.7 0 0 0-.092 3.54 19.6 19.6 0 0 1 .308 3.615.47.47 0 0 0 .234.408c.299.162.607.34.92.515a26 26 0 0 1-2.607.085c-2.02-.037-4.034-.23-6.053-.31a77 77 0 0 0-6.176.013 108 108 0 0 0-12.193 1.263 83.6 83.6 0 0 0-12.011 2.549c-1.897.59-3.782 1.211-5.68 1.796a.196.196 0 0 0 .103.376c3.12-.44 6.239-.799 9.345-1.288-3.492 1.222-6.942 2.583-10.367 3.958-4.755 1.908-9.677 3.625-14.18 6.09-4.546 2.489-8.882 5.39-13.326 8.057q-6.787 4.073-13.665 7.992c-9.05 5.157-18.16 10.397-27.683 14.64a162.7 162.7 0 0 1-28.105 9.308c-4.866 1.174-9.771 2.122-14.684 3.075-4.852.94-9.664 2.107-14.53 2.965-1.223.215-2.439.478-3.661.703-.193.036-.151.364.046.345 4.643-.434 9.285-.852 13.912-1.43a72 72 0 0 0-4.592 1.701 195 195 0 0 0-7.517 3.277 119 119 0 0 0-14.378 7.982c-9.11 5.875-17.9 12.251-26.501 18.843-8.563 6.561-16.936 13.365-25.235 20.257-8.3 6.893-16.53 13.873-24.817 20.783a148 148 0 0 1-12.348 9.582c-2.137 1.428-4.357 2.717-6.62 3.932a11.9 11.9 0 0 0-4.6 3.692 5.76 5.76 0 0 0-.904 2.462c-.033.279.4.316.476.064.61-2.032 2.6-2.999 4.376-3.862a69 69 0 0 0 6.286-3.303 114 114 0 0 0 12.434-9.258c8.169-6.757 16.242-13.629 24.384-20.418 8.22-6.855 16.5-13.643 24.956-20.206q6.284-4.878 12.717-9.563a1 1 0 0 0 .06.11c1.669 2.039 3.538 3.913 5.34 5.833q2.745 2.927 5.506 5.84c3.273 3.467 6.543 6.95 10.102 10.128a55.7 55.7 0 0 0 11.602 8.168 119 119 0 0 0 13.908 5.657c2.804 1.017 5.597 2.073 8.42 3.033 1.408.48 2.848.867 4.288 1.234 1.35.345 2.706.7 4.068.998.936.801 1.89 1.58 2.885 2.299a48 48 0 0 0 17.45 7.653 180 180 0 0 0 19.712 3.01c3.491.411 6.995.747 10.51.854a101 101 0 0 0 10.607-.342c3.95-.297 7.9-.618 11.849-.929l5.925-.465a17.4 17.4 0 0 0 3.07-.371c.938-.246 1.869-.586 2.799-.872a41.1 41.1 0 0 0 13.47.088 48.9 48.9 0 0 0 15.176-4.998 357 357 0 0 0 14.882-8.096q3.653-2.099 7.237-4.314c1.136-.702 2.244-1.492 3.428-2.111a9.04 9.04 0 0 1 4.013-.614c1.24-.026 2.477-.101 3.715-.167q.851.414 1.72.79a23 23 0 0 0-2.271 1.099 21.7 21.7 0 0 0-5 3.928 24.24 24.24 0 0 0-6.018 11.236c-.937 4.117-.919 8.865.92 12.741.884 1.86 2.45 3.704 4.589 4.053 2.818.46 5.26-1.58 7.485-3.002l7.77-4.966A53 53 0 0 0 327.31 276c2.068-1.855 3.938-3.911 6.028-5.747.192.144.393.278.572.415q.625.479 1.224.989a16 16 0 0 1 2.13 2.248 29.5 29.5 0 0 1 3.15 5.286c1.003 2.019 1.99 4.05 2.897 6.115a43 43 0 0 1 1.27 3.221 7.3 7.3 0 0 0 .929 2.307c-1.237.998-2.456 2.021-3.694 3.013a29.7 29.7 0 0 1-10.479 5.825c-3.95 1.109-8.048 1.575-11.863 3.155a37.8 37.8 0 0 0-16.423 13.846 45 45 0 0 0-2.814 4.698 16.3 16.3 0 0 0-2.018 5.875 7.36 7.36 0 0 0 1.368 5.15 5.84 5.84 0 0 0 4.8 2.223 15 15 0 0 0 5.678-1.547c2.109-.916 4.21-1.853 6.314-2.779 4.104-1.807 8.179-3.786 12.411-5.28a31.2 31.2 0 0 1 6.35-1.579c2.202-.286 4.43-.395 6.608-.847.106-.022.209-.057.315-.081a44 44 0 0 0-1.965 1.718c-1.423 1.33-2.82 2.689-4.227 4.035a44 44 0 0 1-3.768 3.461 11.4 11.4 0 0 1-4.584 1.852c-3.34.77-5.995 2.638-8.613 4.77a85 85 0 0 0-7.69 6.786 28.1 28.1 0 0 0-5.635 8.057 15.4 15.4 0 0 0-1.472 8.863c.458 2.406 2.019 4.937 4.68 5.15 1.653.133 3.214-.793 4.596-1.583a49 49 0 0 0 3.938-2.538c4.931-3.487 9.508-7.75 15.158-10.077 3.142-1.295 6.58-1.68 9.669-3.12 3.115-1.452 5.695-3.872 8.292-6.072 2.77-2.347 5.522-4.718 8.32-7.032a45 45 0 0 1 8.132-5.609 19 19 0 0 1 1.092-.509 5 5 0 0 0 .306.408 5.3 5.3 0 0 0 1.796 1.406.28.28 0 0 0 .196.016 15 15 0 0 1 .96 1.586 16.3 16.3 0 0 1 1.251 3.263 30 30 0 0 1 .914 7.237c.133 5.622-.37 11.227-.016 16.851a47.6 47.6 0 0 0 3.646 16.312 27.63 27.63 0 0 0 9.375 11.873c2.095 1.407 4.769 2.241 7.242 1.36a5.71 5.71 0 0 0 3.756-5.704c-.032-2.69-1.077-5.324-1.683-7.917M255.723 73.988a14 14 0 0 0-.22.89l-.098.445c-.33.15-.657.308-.993.447-.117.048-.241.081-.36.126.086-.225.147-.464.21-.69.122-.435.243-.872.354-1.31q.092-.369.18-.737a7 7 0 0 0 .556.44 3.4 3.4 0 0 0 .422.24c-.016.051-.037.1-.051.15m.171 1.115.026-.11c.068-.297.134-.598.185-.899l.013-.103a3.46 3.46 0 0 0 1.58.2q-.89.477-1.804.912M389.1 322.046c.358.936.75 1.853 1.154 2.766-.463-.57-.93-1.134-1.39-1.687a44.6 44.6 0 0 0-4.813-5.08c.066-.753.108-1.508.155-2.25 1.279 1.614 2.651 3.158 3.963 4.744.244.294.48.597.717.898.075.202.137.408.214.609m-.646-1.84a45 45 0 0 0-4.238-4.568q.02-.327.042-.649c.029-.386.051-.774.078-1.16.158.212.319.42.462.624q.623.885 1.27 1.752a38 38 0 0 0 1.74 2.159c.2.62.431 1.228.646 1.843m-1.947-6.425c.307 1.26.658 2.508 1.038 3.747q-.566-.8-1.146-1.59-.603-.82-1.197-1.648-.316-.439-.628-.881l-.191-.27c.19-2.791.36-5.584.536-8.375a65 65 0 0 0 1.588 9.017M102.464 222.4c.707-.51 1.423-1.006 2.133-1.511.222 1.415.627 2.83.977 4.214.048.19.104.379.154.569-1.06-1.121-2.135-2.227-3.264-3.272m6.071 6.263c-.762-.803-1.518-1.616-2.277-2.426-.095-.415-.187-.83-.286-1.244-.343-1.433-.62-2.918-1.064-4.325.908-.645 1.822-1.281 2.734-1.92a56 56 0 0 0 1.231 5.977 68 68 0 0 0 1.85 6.255q-1.094-1.16-2.188-2.317m6.012 6.369q-1.774-1.878-3.547-3.758c-.552-2.184-1.134-4.361-1.677-6.549-.505-2.037-.922-4.103-1.46-6.133 1.031-.722 2.076-1.423 3.114-2.136a74 74 0 0 0 1.952 10.02 91 91 0 0 0 3.028 10.036q-.707-.739-1.41-1.48m198.177 47.721c-.483.405-1.001.772-1.507 1.146-.492.364-.804.856-1.256 1.243v.009c-.37.23-.733.47-1.103.697l-.14.085a10.4 10.4 0 0 0 .309-3.211 11.8 11.8 0 0 0-.748-3.604c-.206-.549-.45-1.083-.68-1.623-.128-.303-.223-.658-.375-.95-.21-.402-.432-.625-.083-1.056a11.5 11.5 0 0 1 3.01-2.539 2.8 2.8 0 0 1 3.513.224 5.4 5.4 0 0 1 1.221 2.605 7.74 7.74 0 0 1 .094 4.045 6.7 6.7 0 0 1-2.255 2.93m32.23 1.86c-.922-2.18-1.96-4.315-3.011-6.435a29 29 0 0 0-3.414-5.538 13.6 13.6 0 0 0-2.402-2.269 14 14 0 0 0-1.483-.958q-.09-.051-.179-.104 2.838-2.401 5.817-4.628 3.536-2.648 7.218-5.093c.26-.173.52-.362.78-.54.52.7 1.047 1.397 1.571 2.096 0 1.311.029 2.624.065 3.935-.21-.228-.416-.46-.628-.687-.034-.036-.087.018-.054.054.234.259.454.53.685.79.043 1.566.1 3.13.155 4.692.143 3.998.167 8.007.353 12.002a.012.012 0 0 0 .024 0c.009-3.998-.144-8.003-.179-12.002-.012-1.443-.022-2.887-.042-4.332q1.343 1.54 2.644 3.114.065 1.544.127 3.088c.169 4.344.39 8.681.63 13.02a.037.037 0 0 0 .075 0 335 335 0 0 0-.295-13.143c-.036-.817-.077-1.634-.114-2.451l1.082 1.314c.017.02.053-.007.037-.028q-.55-.756-1.129-1.49c-.052-1.17-.1-2.339-.162-3.507l.627.837c.522.697 1.038 1.396 1.558 2.094.105 1.555.24 3.108.483 4.637.005.034.057.024.057-.008.028-1.36-.045-2.725-.138-4.089.302.407.607.81.907 1.218q.261.354.526.706c.106 1.578.226 3.156.411 4.723.009.073.117.078.117 0a89 89 0 0 0-.114-4.168c.149.198.294.399.444.595q.25.329.505.67a15.5 15.5 0 0 1-.426 3.808 11.3 11.3 0 0 1-1.082 2.739 7 7 0 0 1-.623.91c-.02-.268-.042-.537-.05-.805a28 28 0 0 1 .032-2.557c.006-.098-.145-.097-.152 0a28 28 0 0 0-.01 3.594c-.344.426-.702.841-1.016 1.297a10.5 10.5 0 0 0-1.132 2.497c-.146.415-.27.84-.42 1.252-.02.051-.046.102-.07.153a20 20 0 0 0-2.064.996 39 39 0 0 0-4.734 3.232 9 9 0 0 0-.488-1.783 47 47 0 0 0-1.32-3.448m3.388-25.608c.398-.275.798-.542 1.192-.827.118.145.23.295.349.439a85 85 0 0 0-.027 2.14c-.502-.586-1-1.176-1.514-1.752m9.676 8.398c-.233-.313-.483-.612-.719-.923a64 64 0 0 0-.125-1.86q.344.503.695 1.002c.047.315.095.628.132.933l.123.993zm.26 1.496c.047.418.095.836.129 1.255q.074.898.099 1.801c-.32-.478-.658-.946-.994-1.414q-.043-.911-.092-1.818-.03-.533-.056-1.07c.045.062.095.12.14.18q.389.531.775 1.066m-.58-4.81q-.34-.465-.681-.922c-.013-.097-.02-.196-.034-.292a1.3 1.3 0 0 0 .13.16c.016.017.04-.008.025-.024a2 2 0 0 1-.172-.25c-.026-.18-.046-.36-.077-.538q.417.396.826.8a6 6 0 0 0-.017 1.066m-.787 2.983c.03.55.055 1.1.089 1.65.024.4.054.802.08 1.202-.472-.643-.958-1.276-1.435-1.915q-.061-.824-.119-1.645-.041-.59-.086-1.181c.497.625.99 1.252 1.471 1.889m-1.558-3.091-.061-.847q-.05-.613-.103-1.226c.33.437.668.87.994 1.31.199.268.39.544.581.819q.022.615.05 1.231l.034.633c-.495-.643-.984-1.29-1.495-1.92m1.405-1.674-.019.487a70 70 0 0 0-1.661-2.135l-.001-.01-.03-.272c.511.516 1.003 1.054 1.541 1.555q.095.09.186.18a2 2 0 0 0 .01.261c-.007-.022-.02-.043-.026-.066m-1.68 2.41.002.032c.06.906.112 1.818.168 2.73-.373-.496-.736-.999-1.115-1.49-.343-.444-.701-.872-1.049-1.312-.04-.836-.076-1.676-.124-2.516a77 77 0 0 1 1.533 1.804c.201.246.386.505.585.753m-2.2-3.691a30 30 0 0 0-.246-2.25c-.005-.036-.06-.025-.061.008-.03.62-.033 1.242-.025 1.866a35 35 0 0 0-2.623-2.66l-.004-.064c0-.014-.019-.012-.022 0 .303-.224.616-.438.901-.68.314.21.624.427.937.636q.513.34 1.033.672a.1.1 0 0 0 0 .046 9.5 9.5 0 0 0 1.555 2.168c.193.245.377.499.567.747.033.678.078 1.355.12 2.032a98 98 0 0 0-2.132-2.521m-.16 3.945.012.258q.065 1.633.135 3.267a69 69 0 0 0-2.64-3.078c-.02-1.304-.046-2.607-.1-3.908zm-2.619-3.933a88 88 0 0 0-.13-2.32c.85 1.015 1.73 2.006 2.603 3.002.03.82.072 1.637.11 2.455q-1.266-1.589-2.583-3.137m-8.07 59.456c-.091.023-.185.036-.276.058a10 10 0 0 1-.435-1.67c-.123-.626-.349-1.249-.416-1.881-.075-.709-.268-1.364-.33-2.078a29 29 0 0 0-2.189-7.768c-.007-.019-.036-.012-.03.008.438 1.37.867 2.747 1.19 4.15a25 25 0 0 1 .415 2.17 6.6 6.6 0 0 1 .063 2.479 2.1 2.1 0 0 0 .242 1.653 12 12 0 0 1 .761 1.829c.122.391.242.79.38 1.18-1.867.405-3.778.543-5.674.762a42.8 42.8 0 0 0-12.09 3.572c-3.624 1.563-7.23 3.17-10.84 4.764a6 6 0 0 0 .903-1.137 3.14 3.14 0 0 0 .39-2.088 12 12 0 0 0-.457-2.185 8 8 0 0 1-.275-1.138 2.34 2.34 0 0 0-.3-1.06 1.65 1.65 0 0 0-1.622-.715c-.329.075-.661.21-.982.318-.442.149-.9.235-1.353.35a19 19 0 0 0-2.66.846 6.7 6.7 0 0 0-2.36 1.292.12.12 0 0 0 .117.2 5.6 5.6 0 0 0 1.226-.547c.428-.215.864-.411 1.305-.598a21 21 0 0 1 2.455-.894 4.05 4.05 0 0 1 2.697-.06 2.5 2.5 0 0 1 .805.74 4.2 4.2 0 0 1 .715 1.07 4.27 4.27 0 0 1 .444 2.853 4.55 4.55 0 0 1-1.522 2.27 16 16 0 0 1-2.06 1.528c-.158.1-.31.206-.465.306a26 26 0 0 1-2.644 1.082 5.9 5.9 0 0 0-.076-1.9 8.8 8.8 0 0 0-.554-2.135 7.86 7.86 0 0 0-2.574-3.23c-.016-.012-.037.015-.021.027a7.53 7.53 0 0 1 2.242 3.415 7 7 0 0 1 .388 1.938 4.5 4.5 0 0 1-.055 1.013q-.028.15-.063.303c-.043-.035-.104-.043-.126.027a1.4 1.4 0 0 0 .035.783c-1.89.497-3.762.474-5.065-1.022-2.502-2.87-.416-7.072 1.105-9.852a38.8 38.8 0 0 1 14.023-14.987 34 34 0 0 1 10.255-3.762c3.94-.852 7.784-1.714 11.292-3.79a81 81 0 0 0 9.183-6.955 33.9 33.9 0 0 1 9.965-5.903 19 19 0 0 1 2.614-.711 9.7 9.7 0 0 1 3.025-.229c.32.047.458-.442.135-.49a26 26 0 0 0-2.793-.407 13.2 13.2 0 0 0-2.987.233 18 18 0 0 0-1.739.44 14.4 14.4 0 0 1 1.147-2.349c.637-.887 1.435-1.62 2.015-2.559a11.7 11.7 0 0 0 1.227-2.848 18.7 18.7 0 0 0 .665-5.683c.054.043.157-.004.126-.078-.04-.095-.092-.183-.135-.276-.006-.177-.002-.356-.013-.533-.075-1.285-.223-2.564-.384-3.84q-.1-.796-.195-1.593 1.259 1.372 2.453 2.806c.108.13.317-.01.274-.16a15.67 15.67 0 0 0-4.702-7.307 21 21 0 0 0-3.77-2.301 15 15 0 0 0-1.891-.935 10 10 0 0 0-1.067-.339 8.2 8.2 0 0 0 1.858-2.372 16.3 16.3 0 0 0 1.21-4.006c.3-1.431.568-2.87.785-4.316a76 76 0 0 0 .836-8.906 29 29 0 0 0-.136-4.373c-.02-.169-.294-.249-.33-.044-.496 2.802-.729 5.65-1.168 8.467a93 93 0 0 1-1.729 8.44 18.5 18.5 0 0 1-1.163 3.747 6.8 6.8 0 0 1-1.485 1.922 4.8 4.8 0 0 0-.053-1.09c-.093-.596-.075-1.223-.565-1.651-.934-.816-1.68-1.868-2.575-2.743a13.1 13.1 0 0 0-5.99-3.54.04.04 0 0 0-.02.075 13.4 13.4 0 0 1 5.493 3.543 14 14 0 0 1 2.19 2.502 4.3 4.3 0 0 1 .267.798 2.2 2.2 0 0 0 .406.632 1.86 1.86 0 0 1 .393 1.333 29 29 0 0 0-3.172-4.177 10.74 10.74 0 0 0-4.517-3.222.033.033 0 0 0-.026.061 15.9 15.9 0 0 1 4.355 3.455 48 48 0 0 1 3.22 4.532c-.044.034-.083.072-.127.105-1.007.778-2.107 1.439-3.164 2.146q-1.736 1.162-3.44 2.37a119 119 0 0 0-11.46 9.051 29 29 0 0 0-.834-4.111 18.8 18.8 0 0 0-1.985-4.873c-.049-.075-.19-.028-.153.065.37.935.852 1.822 1.21 2.766a27 27 0 0 1 .908 2.884 26 26 0 0 1 .597 3.135q.021.166.039.333-.274.248-.546.5a1.83 1.83 0 0 1-.548-1.278c-.034-.46.087-.851-.155-1.257a6.4 6.4 0 0 1-.542-1.314 25 25 0 0 0-.972-2.501 14.9 14.9 0 0 0-3.047-4.449c-.024-.023-.057.011-.036.036a20.5 20.5 0 0 1 3.484 6.584 5.7 5.7 0 0 1 .415 1.833c-.004.554.439 1.034.629 1.556a2.6 2.6 0 0 0 .485 1.052c-.18.17-.37.33-.547.501a46 46 0 0 1-6.007 5.364c-2.387 1.616-4.852 3.124-7.28 4.676q-1.3.835-2.597 1.675a6.9 6.9 0 0 0 1.804-5.206 23.5 23.5 0 0 0-.316-3.447 2.84 2.84 0 0 0-1.482-2.197 3.35 3.35 0 0 0-3.018.507 13.4 13.4 0 0 0-2.95 2.422 6.8 6.8 0 0 0-1.041 1.206c-.262.48-.044.858.153 1.326a16.8 16.8 0 0 1 1.504 4.783 12 12 0 0 1 .035 2.23 11 11 0 0 1-.301 1.883 4.05 4.05 0 0 1-2.469.56 3.72 3.72 0 0 1-2.14-1.296 10.63 10.63 0 0 1-2.193-5.512 19.6 19.6 0 0 1-.012-5.836 22.3 22.3 0 0 1 4.796-10.897 20.5 20.5 0 0 1 4.453-4.06 39 39 0 0 1 5.998-2.902q.134 0 .27.003a.157.157 0 0 0 .16-.19l.066-.029a18.05 18.05 0 0 0 9.167-9.65 15.8 15.8 0 0 0 1.24-6.635 32 32 0 0 1-.146-3.97 7.4 7.4 0 0 1 1.316-3.491 25 25 0 0 1 2.306-2.882.05.05 0 0 0-.071-.072c-1.983 1.547-3.864 3.146-4.593 5.652a19.5 19.5 0 0 0-.657 3.873 37 37 0 0 1-.352 3.798 16 16 0 0 1-.99 3.261 25.8 25.8 0 0 1-1.168-6.933 28.2 28.2 0 0 1 1.09-8.67c.017-.054-.062-.072-.082-.023a30 30 0 0 0-1.487 4.295 20.8 20.8 0 0 0-.519 4.398 24.7 24.7 0 0 0 1.227 8.781 15.8 15.8 0 0 1-5.42 5.59 22 22 0 0 1-2.718 1.347 4.5 4.5 0 0 0-.804-.385c-.986-.343-2.001-.6-3.003-.895a56 56 0 0 1-2.872-.938c-.473-.167-.943-.352-1.43-.474a14 14 0 0 1-1.561-.394c-.067-.024-.11.082-.048.115.48.253.896.597 1.351.89a13 13 0 0 0 1.432.749l1.284.62a49 49 0 0 0-1.727-.238c-1.342-.154-2.765-.559-4.104-.185a13.3 13.3 0 0 0-3.3 1.775q-1.788 1.112-3.594 2.196-7.059 4.235-14.366 8.035c-2.456 1.284-4.88 2.644-7.39 3.823a45.5 45.5 0 0 1-7.253 2.674 43 43 0 0 1-15.204 1.426c-4.259-.378-8.853-1.531-11.985-4.623-2.538-2.507-3.762-6.644-2.262-10.017a7 7 0 0 1 4.387-3.658 67 67 0 0 1 7.046-1.833 86 86 0 0 0 14.23-4.035 35 35 0 0 0 6.52-3.603 40 40 0 0 1 6.21-3.704c2-.92 4.037-1.71 5.956-2.794a33.3 33.3 0 0 0 5.298-3.35 12.4 12.4 0 0 0 2.011-2.239c.09-.124-.098-.248-.202-.156a20.5 20.5 0 0 1-5.579 3.59c-.197.083-.398.154-.597.232a36 36 0 0 0 2.968-2.707c-.07.285-.148.568-.204.859-.016.085.107.152.15.063.254-.52.486-1.046.711-1.577l.053-.052a54 54 0 0 0 3.8-4.567c1.167-1.566 2.186-3.245 3.405-4.772 2.579-3.23 6.367-5.044 9.983-6.873a118 118 0 0 1 11.303-5.054c4.364-1.659 8.832-2.949 13.297-4.292.097-.029.085-.195-.024-.184a65.6 65.6 0 0 0-12.142 2.606 97 97 0 0 0-7.537 2.626c.263-.181.522-.367.785-.547 1.053-.718 2.127-1.404 3.167-2.14 1.079-.762 2.078-1.633 3.182-2.357a.094.094 0 0 0-.094-.162c-1.144.651-2.357 1.16-3.499 1.816-1.136.653-2.23 1.383-3.329 2.1q-1.598 1.041-3.176 2.114c-.56.38-1.119.76-1.663 1.162-.016.012-.028.026-.044.038a91 91 0 0 0-5.135 2.639q-.972.541-1.918 1.138c.329-.497.66-.994 1.003-1.482q1.26-1.788 2.68-3.445c.953-1.113 1.95-2.265 3.006-3.278.047-.045-.016-.131-.071-.092a20.8 20.8 0 0 0-3.256 2.75 35 35 0 0 0-2.798 3.44 49 49 0 0 0-2.108 3.164 16 16 0 0 0-1.55 1.293 31 31 0 0 0-3.79 4.85c-.316.46-.652.904-.98 1.354a94 94 0 0 1 1.578-3.405 84 84 0 0 1 6.143-10.552c.036-.053-.05-.101-.086-.05a82.4 82.4 0 0 0-6.529 10.456 76 76 0 0 0-2.577 5.472l-.003.008c-.373.466-.738.938-1.129 1.39-.963 1.114-1.992 2.161-3.027 3.203 1.3-2.454 2.304-5.087 3.48-7.604a160 160 0 0 1 3.767-7.572.03.03 0 0 0-.05-.03 121 121 0 0 0-4.055 7.542 48.5 48.5 0 0 0-3.261 7.695c-.009.03.012.046.037.051q-.753.755-1.5 1.517a149 149 0 0 1-2.844 2.843 38 38 0 0 0-1.738.66 38 38 0 0 0-6.244 3.115 66 66 0 0 1-6.683 4.206c-4.48 2.202-9.407 3.31-14.246 4.413-2.481.566-4.973 1.112-7.42 1.816a10.85 10.85 0 0 0-5.825 3.408c-2.462 3.156-2.285 7.717-.492 11.143 1.793 3.425 5.286 5.56 8.904 6.74a15 15 0 0 0-1.776.048l-5.184.407-10.368.813c-3.536.278-7.075.574-10.624.604a95 95 0 0 1-10.283-.539c-3.45-.346-6.889-.802-10.327-1.253-3.136-.412-6.27-.859-9.376-1.47a50.7 50.7 0 0 1-17.588-6.612 82 82 0 0 1-8.372-6.13q-2.018-1.667-3.971-3.412c-.652-.58-1.293-1.17-1.953-1.74-.661-.572-1.359-1.089-2.008-1.678a.14.14 0 0 0-.199.2c1.08 1.178 2.07 2.424 3.172 3.59a122 122 0 0 0 3.262 3.355c.935.916 1.89 1.82 2.864 2.701a91 91 0 0 0-5.3-2.47c-2.438-1.034-4.963-1.874-7.452-2.778-4.667-1.693-9.4-3.284-13.896-5.4a52.5 52.5 0 0 1-11.885-7.78c-2.941-2.531-5.672-5.291-8.35-8.097-.985-3.414-1.976-6.827-2.837-10.276-.837-3.354-1.428-6.765-2.236-10.124.999-.686 1.989-1.385 2.998-2.057a138 138 0 0 1 14.03-8.393 142 142 0 0 1 7.3-3.424c2.495-1.09 5.085-2.018 7.517-3.238 1.175-.59 2.369-1.138 3.547-1.72a.52.52 0 0 0 .265-.633c3.968-.629 7.912-1.456 11.827-2.33a175.5 175.5 0 0 0 28.438-8.708q1.72-.706 3.418-1.462a3.8 3.8 0 0 0 .735.717q.683.53 1.34 1.093 1.413 1.208 2.713 2.544 1.267 1.302 2.405 2.722a10 10 0 0 0 1.143 1.404c.07.058.148.105.221.158.128.195.26.387.384.583l.075.122a31 31 0 0 0-2.932 1.745 7.3 7.3 0 0 0-1.822.959q-1.216.776-2.379 1.632a45 45 0 0 0-4.282 3.61 43 43 0 0 0-6.924 8.713 40.4 40.4 0 0 0-2.865 5.62c-.05.123.154.207.215.09a51.4 51.4 0 0 1 12.638-15.801 50.5 50.5 0 0 0-7.736 13.084c-.63 1.44-1.118 2.94-1.631 4.424a.106.106 0 0 0 .192.08c3.06-5.747 5.645-11.843 10.24-16.588a32.53 32.53 0 0 1 15.336-8.518c13.092-3.351 26.386.172 39.022 3.752a189 189 0 0 0 21.343 5.095 169 169 0 0 0 21.878 1.99c14.815.448 29.615-.611 44.4-1.411a59 59 0 0 1 10.838.081 25.4 25.4 0 0 1 8.983 2.97c4.337 2.39 7.89 5.845 11.4 9.3-.332-.217-.66-.44-.995-.65-1.46-.92-2.992-1.69-4.481-2.558a.111.111 0 0 0-.112.192c1.253.823 2.45 1.736 3.682 2.592 1.198.833 2.38 1.69 3.493 2.632a40.5 40.5 0 0 1 5.752 6.067 64 64 0 0 1 7.847 14.29c.645 1.504 1.273 3.014 1.905 4.523l.438 1.046c-.838-.874-1.677-1.743-2.579-2.557a30 30 0 0 0-3.705-2.788 7.2 7.2 0 0 1-1.601-1.393 14.3 14.3 0 0 1-1.417-2.076 68 68 0 0 1-2.338-4.32.1.1 0 0 0-.183.077 29 29 0 0 0 1.87 4.491c.391.746.817 1.47 1.173 2.234a5.4 5.4 0 0 0 1.272 1.918 13 13 0 0 0 1.597 1.08c2.98 2.675 6.084 5.21 9.02 7.937a10.6 10.6 0 0 1 3.139 4.32 11.8 11.8 0 0 1-.034 5.897c-.855 4.277-1.934 8.515-2.884 12.772-.971 4.35-1.904 8.71-2.725 13.09-.767 4.09-1.35 8.2-1.98 12.312a30.2 30.2 0 0 1-2.56 9.315 12.2 12.2 0 0 1-2.82 3.68c-.083.073-.177.129-.263.198a18.6 18.6 0 0 0-1.025-4.744c-.359-1.016-.869-1.97-1.287-2.963-.4-.952-.792-1.916-1.26-2.836-.008-.014-.032-.004-.026.01.387.997.863 1.959 1.26 2.952.37.927.602 1.882.88 2.838a24 24 0 0 1 .971 5.107 10 10 0 0 1-.603.398c-.297-.34-.066-.662-.042-1.05a14 14 0 0 0-.268-2.095 6 6 0 0 0-.76-2.054c-.33-.693-.591-1.423-.895-2.128a47 47 0 0 0-4.601-8.172c-.022-.03-.072-.002-.051.03a42.8 42.8 0 0 1 4.535 9.148 23 23 0 0 1 .601 2.351c.204.841.745 1.525.952 2.363a3.3 3.3 0 0 1-.069 1.23.96.96 0 0 0 .105.542 1 1 0 0 0 .065.076 15 15 0 0 1-2.927 1.198c-1.898.563-3.856.893-5.791 1.29-2.063.424-4.12.882-6.157 1.416a63 63 0 0 0-11.848 4.422 32.3 32.3 0 0 1-5.036 2.1 103 103 0 0 0-.403-4.984c-.109-1.008-.217-2.02-.374-3.021a4 4 0 0 0-.922-2.424.116.116 0 0 0-.192.112c.101.444.305.85.43 1.286a10 10 0 0 1 .273 1.36c.154 1.055.27 2.117.381 3.177.161 1.538.28 3.081.38 4.625-.056.014-.11.036-.167.05m12.458 17.315c-2.758 2.336-5.492 4.704-8.28 7.003a35 35 0 0 1-2.307 1.757 4 4 0 0 0-.08-.58 7 7 0 0 0-.386-1.188 12.2 12.2 0 0 0-1.43-2.47c-.02-.025-.062-.002-.044.026a10.8 10.8 0 0 1 1.12 2.494c.123.413.241.828.344 1.247.052.213.125.44.19.668l-.094.065a9 9 0 0 1-.642-1.028 7.5 7.5 0 0 1-.633-1.19c-.3-.961-.61-1.92-1.004-2.848a19 19 0 0 0-3.078-4.948c-.029-.033-.088.012-.061.047a21.5 21.5 0 0 1 2.993 5.431 7.2 7.2 0 0 1 .685 3.064c-.055.49.126.679.518.954a11 11 0 0 1 .906.725 19 19 0 0 1-.887.54 20 20 0 0 1-4.745 1.814c-1.571.424-3.16.794-4.692 1.35a29.5 29.5 0 0 0-4.001 1.812 60 60 0 0 0-7.409 4.983c-1.2.908-2.394 1.827-3.605 2.723q.052-.178.098-.352a9.7 9.7 0 0 0 .19-3.19 3.44 3.44 0 0 0-.345-1.533 2.33 2.33 0 0 0-1.307-1.085 1.8 1.8 0 0 0-.8-.033 5 5 0 0 0-.883.372q-1.014.376-2.021.774a10.9 10.9 0 0 0-3.842 2.303.03.03 0 0 0 .035.046c1.32-.686 2.54-1.54 3.854-2.237a5.1 5.1 0 0 1 2.557-.828 1.97 1.97 0 0 1 1.628 1.144 7 7 0 0 1 .843 1.586 3.4 3.4 0 0 1-.146 1.87 4.7 4.7 0 0 1-.844 1.579q-.24.302-.446.615a58 58 0 0 1-2.258 1.536c-.418.267-.847.54-1.281.808a8 8 0 0 0-.638-2.584 6.7 6.7 0 0 0-2.784-3.07c-.021-.013-.04.02-.02.034a7.14 7.14 0 0 1 2.396 3.208 6.34 6.34 0 0 1 .41 2.797 13.5 13.5 0 0 1-1.957.96 2.58 2.58 0 0 1-3.053-.64c-1.628-1.818-1.517-4.625-1.034-6.841a21.1 21.1 0 0 1 4.065-8.306 47.3 47.3 0 0 1 7.11-7.053c2.44-2.05 4.9-4.322 7.793-5.718a28 28 0 0 1 4.641-1.374 11.2 11.2 0 0 0 4.128-2.294c1.35-1.127 2.585-2.4 3.855-3.614 1.318-1.26 2.644-2.511 3.947-3.786a38 38 0 0 0 1.88-1.989 12 12 0 0 0 1.19-1.698c3.053-1.159 5.916-2.877 8.97-4.018a84 84 0 0 1 12.738-3.435c3.852-.784 7.877-1.43 10.964-4.07a16.9 16.9 0 0 0 4.89-8.618 102 102 0 0 0 1.897-10.974c.055-.351.117-.7.174-1.051-.234 2.52-.474 5.038-.682 7.56-.31 3.736-.608 7.472-.932 11.206-.308 3.545-.473 7.119-.87 10.654a8.56 8.56 0 0 1-1.458 4.273 6 6 0 0 1-.428.486c-.334-.67-.589-1.374-.878-2.073q-.525-1.268-1.13-2.5a41.5 41.5 0 0 0-2.88-4.863c-.038-.055-.127-.005-.091.054a48 48 0 0 1 2.55 4.84q.596 1.277 1.11 2.59a11 11 0 0 1 .75 2.483 9 9 0 0 1-1.686 1.101c-2.324 1.186-4.965 1.622-7.447 2.36-6.175 1.834-11.078 6.053-15.9 10.137m17.49-6.343a4.54 4.54 0 0 0-1.73-1.646c1.125-.365 2.27-.678 3.417-.995-.029.061-.065.117-.092.18a18 18 0 0 0-.602 1.63 17 17 0 0 0-.46 1.712c-.175-.295-.336-.598-.533-.88m1.704 3.205a18 18 0 0 0-.888-1.856c.188-.692.368-1.386.582-2.07q.25-.798.536-1.585c.053-.146.097-.296.145-.445.381-.106.762-.209 1.143-.32q.747-.221 1.494-.485l-.181.312c-.01.016.001.027.015.03-.073.137-.137.286-.2.417q-.287.608-.553 1.227-.47 1.096-.897 2.213a55 55 0 0 0-1.052 2.974c-.052-.136-.09-.277-.144-.412m19.872 54.2c-2.234 1.188-4.807.031-6.654-1.334a27.27 27.27 0 0 1-8.776-12.336 51 51 0 0 1-2.884-16.89c-.064-2.648.041-5.304.116-7.958 1.228-4.052 2.443-8.105 3.835-12.105.009-.024-.029-.033-.037-.01-1.426 3.82-2.737 7.698-3.785 11.642.056-2.139.086-4.276-.02-6.408 1.143-3.903 2.264-7.806 3.625-11.648.012-.036-.044-.05-.057-.016-1.32 3.57-2.604 7.208-3.617 10.9-.02-.296-.031-.593-.057-.889a32 32 0 0 0-.351-2.676l.22-.685a185 185 0 0 0 3.115-10.742.01.01 0 0 0-.02-.004 499 499 0 0 1-2.152 6.973 468 468 0 0 1-1.116 3.474l-.142.428a22 22 0 0 0-.806-3.03c1.023-2.532 1.9-5.134 2.837-7.693a11.1 11.1 0 0 0 5.136-3.344 11.6 11.6 0 0 0 2.076-6.357c1.454 1.756 2.987 3.445 4.446 5.198.901 1.083 1.747 2.225 2.619 3.342.505 1.097 1.017 2.192 1.513 3.297.09.2.165.403.246.605-.455-.662-.953-1.298-1.441-1.927q-1.12-1.443-2.3-2.84a96 96 0 0 0-5.05-5.5c-.015-.014-.036.007-.023.022a233 233 0 0 1 4.749 5.651q1.15 1.407 2.279 2.828c.673.85 1.336 1.724 2.067 2.528a18 18 0 0 1 .79 7.172c-.222 2.981-.887 5.906-1.33 8.857a80.8 80.8 0 0 0-.7 17.885 82 82 0 0 0 1.165 9.022c.514 2.77 1.3 5.456 1.944 8.191a3.5 3.5 0 0 0-1.148-.985 4.2 4.2 0 0 0-1.091-.425c-.177-.041-.362-.048-.537-.091-.336-.083-.41-.347-.549-.625a10.17 10.17 0 0 1-.767-5.688c.004-.039-.054-.043-.065-.009a9.2 9.2 0 0 0 .23 5.792 1.7 1.7 0 0 0 .621 1.03c.373.208.867.114 1.277.215a3.5 3.5 0 0 1 1.163.536c.363.254.637.6.99.86l.012-.016h.002c.446 2.093.568 4.632-1.598 5.783"/><path fill="currentColor" d="M347.149 274.48q-.083-2.36-.132-4.721a768 768 0 0 1-.125-9.448.025.025 0 0 0-.051 0c-.048 3.15-.017 6.298.072 9.448q.065 2.299.16 4.597c.068 1.61.072 3.242.24 4.844.002.022.034.023.034 0 0-1.571-.143-3.149-.198-4.72m-3.511-10.255a233 233 0 0 0-.26 7.663.022.022 0 0 0 .043 0c.134-2.554.21-5.107.26-7.663a.022.022 0 0 0-.043 0m-27.184 8.28c-.091-.167-.182-.335-.288-.493q-.081-.118-.168-.232c-.065-.09-.144-.165-.207-.257a.035.035 0 0 0-.06.036c.044.095.066.195.107.29q.06.143.124.283c.083.171.18.334.278.498.201.338.44.658.667.98a.031.031 0 0 0 .054-.032c-.162-.359-.317-.728-.507-1.073m1.451 4.337c-.025-.12-.048-.238-.08-.355a49 49 0 0 1-.184-.69c-.004-.016-.026-.01-.023.005q.066.346.127.692.032.174.074.343a2 2 0 0 0 .094.338c.01.022.048.023.046-.006a2 2 0 0 0-.054-.327m26.151-25.519q-1.042-.866-2.129-1.676a47 47 0 0 0-4.692-3.011.033.033 0 0 0-.034.057c1.546.942 3.02 2.002 4.466 3.09q1.117.84 2.185 1.744a17 17 0 0 0 2.014 1.672c.053.032.127-.034.088-.088a10.3 10.3 0 0 0-1.898-1.788m26.712 51.424a21.4 21.4 0 0 0-1.286-3.003c-.027-.055-.123-.016-.1.042.395 1 .706 2.034 1.029 3.059.323 1.028.584 2.082.93 3.101.018.056.111.05.107-.014a13.5 13.5 0 0 0-.68-3.185m-33.523 9.977c-.012-.042-.087-.036-.08.011.175 1.363.383 2.72.54 4.085.004.043.07.046.07 0a15.4 15.4 0 0 0-.53-4.096m42.255 6.486a4.6 4.6 0 0 0-.372-.618 9 9 0 0 0-.92-1.078c-.017-.019-.043.008-.027.027a7.4 7.4 0 0 1 .788 1.167q.165.298.322.6a2.6 2.6 0 0 0 .34.579.051.051 0 0 0 .088-.036 1.6 1.6 0 0 0-.22-.64M363.1 284.563a59 59 0 0 0-5.956-1.878.04.04 0 0 0-.02.075 59 59 0 0 0 5.956 1.874.037.037 0 0 0 .02-.071m.839-1.936c-.148-.145-.265-.123-.46-.169a6 6 0 0 1-.624-.198c-.437-.157-.849-.367-1.275-.55q-.594-.256-1.21-.454a1.84 1.84 0 0 0-1.198-.141.05.05 0 0 0-.029.072 1.8 1.8 0 0 0 1.04.573 13 13 0 0 0 1.265.331c.429.09.86.155 1.284.264q.317.083.626.191c.214.075.333.19.562.153a.043.043 0 0 0 .019-.072m1.275-3.367a1.1 1.1 0 0 0-.483-.223c-.2-.06-.402-.115-.602-.174q-.561-.167-1.117-.353c-.37-.124-.736-.259-1.106-.38-.4-.13-.797-.222-1.206-.318a.022.022 0 0 0-.016.039 8 8 0 0 0 1.087.598c.359.158.73.29 1.1.418q.572.2 1.152.378a2.4 2.4 0 0 0 1.133.234.132.132 0 0 0 .058-.22m-.022-3.784a2 2 0 0 0-.486-.12q-.263-.054-.526-.115c-.326-.073-.651-.15-.973-.242a14.4 14.4 0 0 1-2.006-.727c-.029-.014-.055.028-.025.043a15 15 0 0 0 1.902.88c.336.124.677.24 1.023.336.16.045.324.082.487.119a1.8 1.8 0 0 0 .534.084c.123-.011.206-.194.07-.258m-.742-2.765a4 4 0 0 0-.585-.238c-.195-.068-.39-.141-.586-.205-.408-.131-.822-.246-1.23-.38-.028-.01-.04.034-.012.044.398.145.789.306 1.184.456.194.073.391.136.587.203a4 4 0 0 0 .617.18c.035.006.061-.04.026-.06m-50.571 40.918a4.1 4.1 0 0 0-1.834-.489 7.5 7.5 0 0 0-1.918.241c-.032.007-.026.061.008.058a21 21 0 0 1 3.72.28.05.05 0 0 0 .025-.09m3.103-1.821a3.24 3.24 0 0 0-1.38-.396q-.7-.128-1.404-.234a20 20 0 0 0-1.346-.167c-.508-.04-1.014-.03-1.523-.045-.038-.001-.049.063-.009.069.5.075.994.189 1.492.272.467.079.936.14 1.404.216q.702.112 1.4.247a3.4 3.4 0 0 0 1.35.159c.062-.014.057-.09.016-.121m2.922-1.7a3 3 0 0 0-.679-.084 5 5 0 0 1-.824-.15c-.457-.104-.913-.204-1.368-.312a16 16 0 0 0-1.377-.265c-.473-.07-.947-.076-1.422-.113-.037-.002-.046.06-.01.066.46.075.911.194 1.37.268q.723.116 1.446.22c.464.067.924.16 1.38.265a4 4 0 0 1 .75.223 3.6 3.6 0 0 0 .632.255.194.194 0 0 0 .102-.373m2.537-1.242a6 6 0 0 0-1.189-.304q-.665-.148-1.33-.292a51 51 0 0 0-2.626-.517.021.021 0 0 0-.012.042c.857.246 1.718.458 2.587.66l1.277.295a6.2 6.2 0 0 0 1.257.25c.068.001.103-.103.036-.134m2.859-1.325a1.7 1.7 0 0 0-.473-.069l-.461-.046-1-.098c-.667-.066-1.335-.118-2.002-.18-.023-.002-.022.033 0 .036.667.079 1.333.168 2.001.243l1 .113.462.052a1.7 1.7 0 0 0 .473.028c.045-.007.033-.066 0-.079m2.039-1.274a2.2 2.2 0 0 0-.627-.157q-.344-.052-.692-.073a13 13 0 0 0-1.417.015.04.04 0 0 0 0 .078c.457.008.91.062 1.364.104q.333.03.666.063a3 3 0 0 0 .689.035c.03-.003.053-.048.017-.065m2.212-.732c-.097-.027-.195-.06-.294-.08q-.15-.028-.301-.054a5 5 0 0 0-.604-.057.043.043 0 0 0-.011.084 5 5 0 0 0 .595.122q.15.02.303.037c.1.009.203.007.304.01a.031.031 0 0 0 .008-.062m13.272-3.838a10.6 10.6 0 0 0-5.284-.563c-.032.003-.033.052 0 .051a41 41 0 0 1 5.257.61.053.053 0 0 0 .027-.098m2.765-2.112a2.44 2.44 0 0 0-1.142-.542 10.5 10.5 0 0 0-1.367-.301 7.5 7.5 0 0 0-2.661.087c-.022.004-.017.038.005.038a19 19 0 0 1 2.648.252 11 11 0 0 1 1.273.292 3.8 3.8 0 0 0 1.193.294.071.071 0 0 0 .05-.12m2.055-1.574a2.85 2.85 0 0 0-1.098-.549 10 10 0 0 0-1.279-.317 9.8 9.8 0 0 0-2.62-.097.02.02 0 0 0 0 .04 18 18 0 0 1 2.57.41c.413.096.824.2 1.228.329a4.7 4.7 0 0 0 1.159.281.057.057 0 0 0 .04-.097m.559-2.053a5 5 0 0 0-.84-.133 5.8 5.8 0 0 0-1.67.15c-.042.009-.034.082.01.076a6.4 6.4 0 0 1 1.615.007 8 8 0 0 1 .79.137c.129.03.255.069.383.099a.4.4 0 0 0 .3.007.05.05 0 0 0 .025-.06c-.08-.193-.432-.24-.613-.283m1.605-1.144c-.112-.033-.216-.076-.33-.103s-.231-.036-.346-.051c-.231-.031-.463 0-.694-.014a.024.024 0 0 0-.006.046c.226.046.442.137.673.167.115.016.23.037.347.042.117.004.23-.011.346-.014a.037.037 0 0 0 .01-.073m1.373-1.308a1 1 0 0 0-.224.013 1 1 0 0 0-.24.062c-.152.055-.294.131-.442.195-.049.021-.012.091.035.082.155-.03.314-.048.467-.088a1.3 1.3 0 0 0 .226-.081c.035-.017.068-.04.103-.057a.4.4 0 0 0 .092-.06.04.04 0 0 0-.017-.066m-18.255-69.824a6 6 0 0 0-.558.26 7 7 0 0 0-.513.332 7.5 7.5 0 0 0-.906.761 9.8 9.8 0 0 0-1.497 1.858c-.035.058.05.127.095.073a15.4 15.4 0 0 1 1.647-1.687q.442-.38.899-.745.23-.184.464-.365c.156-.12.295-.26.45-.382.063-.05-.018-.133-.08-.105m53.847 102.802c-.043-.05-.113.022-.072.072 1.913 2.342 3.79 4.706 5.802 6.963.02.023.062-.008.043-.033-1.848-2.399-3.824-4.685-5.773-7.002m-7.588 23.003a97 97 0 0 0-3.212 14.995c-.005.039.062.048.069.01.935-5.03 1.875-10.045 3.173-14.996a.016.016 0 0 0-.03-.009m1.524 2.554a439 439 0 0 0-1.943 8.707c-.299 1.415-.593 2.83-.872 4.249-.143.73-.288 1.46-.424 2.19a6.2 6.2 0 0 0-.216 1.899c.008.058.096.062.121.016a6.5 6.5 0 0 0 .493-1.933c.13-.69.255-1.382.385-2.073.275-1.464.546-2.928.825-4.39.55-2.886 1.11-5.77 1.699-8.647.009-.044-.058-.063-.068-.019m1.399 5.285c-.561 2.543-1.157 5.079-1.677 7.63q-.39 1.915-.74 3.837a22 22 0 0 0-.527 3.664.094.094 0 0 0 .184.025 27 27 0 0 0 .757-3.827q.322-1.868.653-3.735c.447-2.53.88-5.062 1.407-7.578.007-.037-.049-.053-.057-.016m1.007 7.316a49.5 49.5 0 0 0-1.93 11.58c0 .03.05.038.054.007.569-3.88 1.025-7.75 1.937-11.57a.031.031 0 0 0-.06-.017m.573 6.818q-.29 2-.553 4.004c-.181 1.376-.399 2.77-.442 4.157a.033.033 0 0 0 .065.009c.28-1.314.401-2.672.548-4.006q.228-2.077.432-4.157c.003-.028-.046-.035-.05-.007m-13.249-123.415c-.008-.048-.082-.028-.073.02.23 1.304.462 2.607.706 3.909.004.018.031.01.028-.008a373 373 0 0 0-.66-3.92m3.782 5.706c-.186-.966-.365-1.935-.55-2.903a299 299 0 0 1-1.047-5.695c-.01-.058-.111-.045-.104.014.232 1.895.478 3.786.777 5.671q.226 1.407.489 2.807a13 13 0 0 0 .661 2.79c.04.091.18.039.18-.05a13.7 13.7 0 0 0-.406-2.633m2.265 2.094c-.117-.466-.246-.93-.363-1.396a93 93 0 0 1-.622-2.712c-.404-1.84-.744-3.696-1.045-5.555-.004-.023-.042-.018-.04.005a53 53 0 0 0 .719 5.544 52 52 0 0 0 .607 2.823c.111.467.222.937.352 1.4a2.13 2.13 0 0 0 .428.98.06.06 0 0 0 .097-.025 2.3 2.3 0 0 0-.133-1.064m1.487.063q-.25-.913-.475-1.833a92 92 0 0 1-.865-3.832c-.013-.064-.106-.036-.096.026a58 58 0 0 0 .74 3.867q.214.923.454 1.84a7 7 0 0 0 .6 1.81.041.041 0 0 0 .076-.022 8.6 8.6 0 0 0-.434-1.856m-29.009-28.038c-.1-.449-.239-.892-.371-1.332a20 20 0 0 0-.94-2.517c-.02-.043-.087-.012-.075.032.238.873.485 1.743.729 2.615.12.428.22.862.344 1.289a7 7 0 0 0 .405 1.236.06.06 0 0 0 .109-.03 5.4 5.4 0 0 0-.2-1.293m2.318.69c-.24-.669-.478-1.336-.725-2.001a171 171 0 0 0-1.584-4.045c-.008-.02-.04-.013-.034.009.429 1.377.857 2.751 1.32 4.118q.345 1.005.702 2.007a10 10 0 0 0 .804 1.91c.024.038.1.027.093-.025a9.8 9.8 0 0 0-.576-1.974m1.845-.074q-.465-1.179-.934-2.356c-.652-1.634-1.365-3.243-2.046-4.864-.02-.048-.098-.03-.08.021.61 1.675 1.183 3.364 1.827 5.026l.949 2.453a12.2 12.2 0 0 0 1.01 2.363.106.106 0 0 0 .193-.082 13 13 0 0 0-.919-2.561m1.331-1.371q-.393-.995-.795-1.986-.78-1.924-1.594-3.83c-.026-.061-.13-.018-.108.045q.72 1.97 1.47 3.927.37.962.75 1.92a7.6 7.6 0 0 0 .833 1.83c.02.028.08.025.076-.02a7.5 7.5 0 0 0-.632-1.886m.912-1.851-.68-1.746a97 97 0 0 0-1.42-3.409c-.01-.024-.05-.007-.042.018.408 1.202.83 2.398 1.284 3.584l.67 1.748a8.4 8.4 0 0 0 .732 1.671.044.044 0 0 0 .08-.034 9 9 0 0 0-.624-1.832m1.228-.753a21 21 0 0 0-.24-1.235 22 22 0 0 0-.715-2.5 18.7 18.7 0 0 0-2.33-4.448.059.059 0 0 0-.102.06 27.7 27.7 0 0 1 1.803 4.561 22 22 0 0 1 .573 2.295q.113.581.194 1.168c.048.355.025.773.331 1.01a.256.256 0 0 0 .357 0 1.03 1.03 0 0 0 .129-.91m-59.75-9.655-.17.17a.012.012 0 0 0 .016.016l.17-.17a.012.012 0 0 0-.016-.016m-9.384 7.48-3.038 5.497c-1.012 1.831-2.064 3.654-2.93 5.56a.044.044 0 0 0 .076.044c1.11-1.773 2.046-3.657 3.012-5.511l2.906-5.575c.008-.017-.017-.031-.026-.015"/></svg>