<svg xmlns="http://www.w3.org/2000/svg" data-name="tuna" viewBox="0 0 456.472 314.267"><path fill="currentColor" d="M306.533 167.836a6.22 6.22 0 0 0-2.488-4.06c-3.198-2.462-7.294-2.017-11.067-2.499-7.224-.92-13.184-5.73-18.01-10.873-5.684-6.057-10.563-12.893-15.405-19.625-3.201-4.451-6.358-8.947-9.618-13.363a76 76 0 0 1-4.41-10.05 31 31 0 0 0-2.53-6.225 11 11 0 0 0-4.661-4.044 50 50 0 0 0-6.083-2.2c-2.46-.822-4.863-1.808-7.244-2.837-4.653-2.011-9.279-4.041-14.063-5.73-9.543-3.37-19.372-5.822-29.136-8.452-4.886-1.317-9.762-2.68-14.582-4.224-4.794-1.536-9.48-3.483-14.371-4.697a34 34 0 0 0-7.436-1.037 49.6 49.6 0 0 0-7.414.49c-2.498.321-4.976.766-7.465 1.148a76 76 0 0 1-7.592.762c-.275.014-.548.011-.822.019-3.583-1.093-7.073-2.537-10.738-3.313-4.347-.92-8.733-.413-13.098.08q-6.782.764-13.56 1.565c-9.035 1.061-18.068 2.15-27.125 3.013-4.56.436-9.127.843-13.707.986-4.511.14-9.021-.077-13.533-.072a162.4 162.4 0 0 0-26.844 2.524c-1.098.186-2.195.364-3.289.571a.341.341 0 0 0 .09.668c8.947-.665 17.846-1.907 26.826-2.099 4.51-.097 9.016.14 13.525.136 4.533-.006 9.057-.324 13.57-.722 9.017-.795 18.009-1.844 26.998-2.898 4.517-.529 9.033-1.076 13.557-1.552 4.347-.458 8.804-1.17 13.182-.854 4.29.31 8.32 2.034 12.45 3.104a114 114 0 0 0 12.916 2.263c1.04.145 2.08.291 3.124.417.174.02.212-.27.041-.307-3.698-.811-7.37-1.656-11.032-2.598.329-.006.655-.004.986-.022 2.46-.132 4.91-.454 7.351-.783 4.942-.668 9.941-1.467 14.93-.785 4.955.678 9.639 2.565 14.339 4.183 4.745 1.633 9.56 3.054 14.397 4.393 9.671 2.678 19.439 5.032 28.987 8.138q7.199 2.343 14.134 5.365c2.306 1.006 4.604 2.032 6.937 2.976 2.214.896 4.466 1.645 6.735 2.387a16.8 16.8 0 0 1 5.647 2.72 12 12 0 0 1 3.36 5.536 69 69 0 0 0 2.469 6.519c.02.045.046.088.067.133-.708-.901-1.4-1.815-2.125-2.702-.704-.86-1.387-1.736-2.093-2.595-.106-.13-.316.038-.23.177 4.55 7.352 9.56 14.387 14.589 21.415 4.826 6.745 9.663 13.506 15.02 19.844 4.448 5.265 9.575 10.366 16.044 13.041a22.5 22.5 0 0 0 4.85 1.41c1.944.327 3.913.336 5.87.525 3.035.294 7.345 1.696 7.356 5.436.01 3.402-3.57 5.774-6.343 6.941a25.8 25.8 0 0 1-11.252 1.76 90 90 0 0 1-2.786-.176c-.174-.014-.257.267-.092.338a17.8 17.8 0 0 0 11.303.564c3.52-.872 7.142-2.524 9.31-5.55a6.5 6.5 0 0 0 1.284-4.603"/><path fill="currentColor" d="M236.858 156.805c-1.852-1.736-3.718-3.464-5.56-5.216l-1.425-1.355a12 12 0 0 1-1.126-1.003c-.185-.23-.195-.564-.386-.805a1.1 1.1 0 0 0-.662-.382 24 24 0 0 0-1.553-.326l-.241-.044-.043-.042c-.02-.02-.045.007-.033.028-4.85-.891-9.71-1.74-14.542-2.722-.036-.008-.052.047-.015.056 2.412.56 4.81 1.166 7.208 1.787.894.232 1.794.444 2.694.656q2.26 2.29 4.579 4.518c1.434 1.371 2.832 2.862 4.4 4.09l-.3-.073c-1.068-.251-2.14-.49-3.213-.727-.553-.121-1.108-.235-1.654-.387-1.369-1.361-2.79-2.68-4.189-4.005-1.696-1.606-3.411-3.19-5.122-4.78-.044-.04-.11.024-.066.066 1.661 1.64 3.316 3.285 4.993 4.91 1.236 1.197 2.47 2.408 3.728 3.59-.015-.004-.031-.012-.046-.015a2.6 2.6 0 0 0-.8.057c-.088.004-.141.136-.049.18.283.135.382.3.684.36.233.048.511.032.741.063.066.008.13.022.195.032.206.188.403.386.611.57a.123.123 0 0 0 .173-.174l.009-.007c-.102-.106-.212-.205-.315-.31q.507.094 1.011.199 1.615.332 3.228.674c1.028.217 2.053.443 3.08.667.192.178.385.355.585.522a.103.103 0 0 0 .17-.1l-.042-.271c.55.119 1.103.232 1.654.347.13.124.251.26.387.378.035.03.1-.011.069-.054-.074-.097-.162-.183-.238-.278.303.063.604.13.908.191a.018.018 0 0 0 .009-.034c-.338-.099-.68-.183-1.02-.277-.607-.735-1.277-1.424-1.932-2.113q-1.23-1.294-2.473-2.578-1.543-1.588-3.12-3.139a1.7 1.7 0 0 1 .826.117 7.4 7.4 0 0 1 1.319 1.202l1.252 1.181c1.789 1.688 3.555 3.402 5.33 5.1.212.203.537-.122.322-.324m-6.437-.696a57 57 0 0 0-4.53-4.425 217 217 0 0 0-4.611-4.222c.71.168 1.422.336 2.13.513 1.615 1.517 3.273 2.989 4.885 4.51q1.265 1.192 2.51 2.406c.577.563 1.136 1.162 1.719 1.73q-1.05-.261-2.103-.512m.287-3.36q1.202 1.253 2.401 2.509c.645.68 1.284 1.376 1.96 2.03-.513-.14-1.023-.287-1.538-.418v-.003c-.005-.032-.033-.028-.054-.012l-.373-.093c-.637-.702-1.35-1.35-2.023-2.007q-1.278-1.251-2.589-2.468c-1.58-1.467-3.188-2.908-4.873-4.255.623.158 1.244.32 1.86.5a5.3 5.3 0 0 1 1.561.644 1.8 1.8 0 0 0 .539.313z"/><path fill="currentColor" d="M222.52 154.292a101 101 0 0 1-8.212-7.875c-.013-.014-.033.006-.021.02a58.6 58.6 0 0 0 8.209 7.88c.017.014.042-.01.025-.025m2.913-1.267q-1.112-1.12-2.266-2.197a56 56 0 0 0-4.749-3.926c-.013-.01-.03.012-.017.023 1.552 1.37 3.07 2.789 4.574 4.213q1.116 1.056 2.193 2.152a13 13 0 0 0 2.176 2.067c.036.022.074-.022.056-.057a10.2 10.2 0 0 0-1.967-2.275M214.57 184.91l.006-.013a5.5 5.5 0 0 0-1.491-.218c-.481-.05-.963-.094-1.445-.142q-1.564-.156-3.124-.35-3.234-.4-6.446-.96c-.022-.005-.032.028-.01.033q3.194.684 6.418 1.215 1.55.254 3.107.471.75.107 1.5.194a5 5 0 0 0 1.491.08c.18-.035.136-.258-.005-.31m-1.258-1.447c-2.52-.45-5.114-.578-7.661-.8-.016 0-.015.022 0 .024 2.535.317 5.099.735 7.655.822.025.001.032-.041.006-.046m2.817.25a1 1 0 0 1-.1-.027c-.03-.014-.052-.043-.084-.06a.6.6 0 0 0-.189-.033 3 3 0 0 0-.388-.008c-.13 0-.257.02-.388.015l-.389-.012c-.077-.002-.072.109 0 .118l.359.044c.122.015.237.046.356.07.118.024.241.04.36.055q.083.007.165.008a.24.24 0 0 0 .192-.073l-.058.024.15-.017a.053.053 0 0 0 .013-.104m1.781-1.922c-.694-.087-1.417-.044-2.116-.079a71 71 0 0 1-2.03-.128q-2.144-.169-4.263-.547c-.015-.003-.021.02-.006.022a50 50 0 0 0 4.108.704q1.051.136 2.11.207a13.5 13.5 0 0 0 2.197.068.123.123 0 0 0 0-.247m.02-1.956a2.9 2.9 0 0 0-.982-.1c-.347-.011-.695.001-1.041.012q-1.04.03-2.082.033a.035.035 0 0 0 0 .07q1.042.053 2.082.131c.346.027.694.056 1.04.061a2.9 2.9 0 0 0 .982-.055.08.08 0 0 0 0-.152m.391-2.109-.175-.004c-.108-.002-.217.008-.325.015l-.676.042a.018.018 0 0 0 0 .036l.676.042c.108.007.217.017.325.015l.175-.003a.17.17 0 0 0 .132-.04.044.044 0 0 0 0-.063.17.17 0 0 0-.132-.04m.71-1.985c-.006-.003-.076-.041-.046-.023a1 1 0 0 0-.098-.068 1.3 1.3 0 0 0-.197-.073 1.1 1.1 0 0 0-.384-.042 2 2 0 0 0-.233.032l-.084.02a.7.7 0 0 0-.148.088c.02-.012-.036.017-.047.024q-.042.024-.081.051a1.4 1.4 0 0 0-.171.14c-.118.113.031.28.167.216a1 1 0 0 1 .142-.055l.072-.018.042-.009.003-.001a.4.4 0 0 0 .142 0l.031-.005h.004a1.4 1.4 0 0 1 .182-.005c.054.002.108.01.161.014l.061.006.014.002.064.013.184.04c-.054-.011.05.021.014.006q.057.027.116.051c.085.033.249.084.303-.051.06-.148-.105-.283-.213-.353m-20.46 24.917a6.6 6.6 0 0 0-2.492-.18 83 83 0 0 1-2.978-.06c-1.94-.072-3.891-.064-5.827-.21-.049-.003-.06.08-.012.087a53 53 0 0 0 5.729.74c.955.05 1.912.072 2.868.082a6.3 6.3 0 0 0 2.713-.236.13.13 0 0 0 0-.223m.749-2.1a6.1 6.1 0 0 0-2.271-.139c-.804.006-1.606.044-2.408.084-1.605.08-3.21.13-4.816.18a.05.05 0 0 0 0 .1c1.606.05 3.211.1 4.816.18.802.04 1.604.078 2.408.084a6.2 6.2 0 0 0 2.27-.139.184.184 0 0 0 0-.35m.218-1.973a12 12 0 0 0-1.788.157c-.597.044-1.197.068-1.796.082a30 30 0 0 1-3.582-.122c-.04-.004-.048.061-.01.069a22.3 22.3 0 0 0 3.592.416 19 19 0 0 0 1.796-.034 6.7 6.7 0 0 0 1.835-.222.177.177 0 0 0-.047-.346m-.837-1.305c-.337.002-.675-.002-1.013.015q-.994.049-1.99.075a.044.044 0 0 0 0 .088q.996.025 1.99.076c.325.015.651.012.976.015a1.9 1.9 0 0 0 .89-.09.053.053 0 0 0 0-.09 1.8 1.8 0 0 0-.852-.09m.017-1.509a.3.3 0 0 0-.133.017l-.108.03a1 1 0 0 0-.115.05q-.203.098-.402.201c-.056.028-.015.108.04.096q.22-.044.438-.095a1 1 0 0 0 .115-.033l.097-.04a.3.3 0 0 0 .12-.072.1.1 0 0 0 .029-.1.1.1 0 0 0-.081-.054m.329-1.96a.054.054 0 0 0-.065-.01l-.018.013a.1.1 0 0 0-.028.028l-.027.035-.053.07-.107.137a.018.018 0 0 0 .024.024l.137-.107.068-.051.035-.027a.1.1 0 0 0 .028-.028l.014-.02a.05.05 0 0 0-.008-.065m-16.376-20.347a52 52 0 0 0-2.394-4.975c-.015-.028-.066-.01-.053.022.652 1.662 1.392 3.294 2.096 4.936.725 1.69 1.398 3.402 2.199 5.06.017.036.075.01.064-.027a45 45 0 0 0-1.912-5.016m-1.322.776q-.385-.997-.794-1.985a72 72 0 0 0-1.676-3.708c-.015-.03-.06-.004-.046.027a122 122 0 0 1 1.654 3.927q.386.957.75 1.922a18 18 0 0 0 .715 1.794c.018.036.072.01.064-.027a14 14 0 0 0-.667-1.95m-3.914-6.246c-.017-.034-.067-.004-.05.03.816 1.763 1.504 3.584 2.154 5.414.013.035.067.021.057-.015a34 34 0 0 0-2.161-5.429m-19.315 10.343q-.613-.62-1.228-1.238c-.82-.824-1.625-1.662-2.432-2.498-.749-.777-1.514-1.544-2.202-2.377-.403-.487-.75-1.021-1.143-1.514a13 13 0 0 0-1.173-1.1c-3.275-3.178-6.498-6.418-9.742-9.629a.047.047 0 0 0-.066.067c3.103 3.35 6.236 6.683 9.306 10.063a12 12 0 0 0 1.065 1.21c.427.355.877.688 1.302 1.048.879.742 1.666 1.594 2.466 2.419.81.834 1.62 1.667 2.416 2.514q.598.635 1.197 1.268a2.9 2.9 0 0 0 .967.835.06.06 0 0 0 .072-.072 2.9 2.9 0 0 0-.805-.996m-5.355-10.369c-.048-.176-.256-.318-.382-.433-.345-.316-.68-.64-1.017-.965-.671-.65-1.333-1.311-2.005-1.96a91 91 0 0 0-4.161-3.767c-.012-.01-.028.006-.017.017q2.034 1.827 3.93 3.8a49 49 0 0 1 1.803 1.964c.322.372.643.751.936 1.147a5 5 0 0 0 .34.45c.143.154.308.147.497.232.073.033.174-.023.146-.113-.041-.134-.035-.245-.07-.372m5.067 5.341a.6.6 0 0 0-.146-.282 6 6 0 0 0-.524-.41 12 12 0 0 1-.97-.898 120 120 0 0 1-1.844-1.89c-.02-.022-.053.01-.033.033a121 121 0 0 1 1.762 1.973 12 12 0 0 1 .826 1.027l.186.265a3 3 0 0 0 .174.27.5.5 0 0 0 .26.17.7.7 0 0 0 .264.086.11.11 0 0 0 .105-.105.6.6 0 0 0-.06-.24m-48.657-71.924c-.95-.924-2.013-1.743-3.035-2.584l-3.085-2.534c-.02-.016-.05.012-.029.03l3.073 2.63c.994.851 1.975 1.743 3.037 2.509.03.021.064-.026.039-.051m2.866-.485-2.504-2.42c-1.646-1.591-3.312-3.162-4.969-4.743-.022-.02-.054.012-.033.034 1.622 1.615 3.235 3.24 4.867 4.844l2.414 2.373a16.4 16.4 0 0 0 2.41 2.256c.037.023.086-.024.06-.06a16 16 0 0 0-2.245-2.284m5.85 2.856a.06.06 0 0 0-.056 0l-.055.036a.044.044 0 0 0 .034.08c-.215.045-.543-.45-.666-.584q-.34-.366-.678-.733l-1.281-1.386q-1.28-1.387-2.562-2.773-2.564-2.769-5.147-5.52c-.052-.055-.134.028-.083.083q3.235 3.59 6.48 7.168c1.072 1.177 2.14 2.357 3.216 3.53.139.152.578.76.874.485a.236.236 0 0 0-.076-.386m3.758 1.525.005-.003a22.6 22.6 0 0 0-2.284-2.788 162 162 0 0 0-2.586-2.928q-2.58-2.86-5.29-5.6c-.022-.02-.054.012-.034.034q2.595 2.777 5.104 5.632c.815.923 1.617 1.856 2.42 2.789a31 31 0 0 0 2.56 2.946.067.067 0 0 0 .105-.082m3.119.535a.06.06 0 0 0-.058 0l-.05.029a.05.05 0 0 0 .04.091c-.16.039-.855-.987-.973-1.128q-.58-.697-1.162-1.393c-.752-.9-1.5-1.804-2.26-2.699q-2.276-2.68-4.588-5.328c-.03-.035-.078.015-.05.05a446 446 0 0 0 5.633 6.988c.93 1.124 1.842 2.264 2.792 3.37.128.15.46.599.73.362a.208.208 0 0 0-.054-.342m2.073-.097q-.39-.505-.786-1.003a94 94 0 0 0-1.735-2.136q-1.744-2.075-3.57-4.08c-.049-.053-.126.026-.079.08q1.757 2.018 3.437 4.102c.542.674 1.086 1.348 1.622 2.027l.899 1.153a5.6 5.6 0 0 0 .84.97.053.053 0 0 0 .082-.063 5.2 5.2 0 0 0-.71-1.05m1.416-.878c-.659-.81-1.338-1.604-2.01-2.403-.017-.02-.044.008-.028.029.632.815 1.257 1.637 1.903 2.442.641.801 1.262 1.63 1.969 2.377.027.028.078-.01.055-.043-.575-.84-1.247-1.614-1.889-2.402m3.568 2.073c-.106-.13-.21-.264-.32-.393q-.327-.386-.656-.769c-.02-.023-.051.01-.033.033l.623.781c.102.128.21.251.315.376.108.129.213.261.331.381.018.019.052-.006.037-.028-.091-.133-.196-.255-.297-.38m4.94 2.362a19 19 0 0 0-1.788-1.299c-.085-.057-.16.078-.08.137.297.215.59.436.89.646a11 11 0 0 0 .931.576c.037.02.08-.03.047-.06m-2.017 26.307c-.015-.021-.05-.002-.036.02 2.062 3.252 4.197 6.457 6.53 9.52.027.035.087.003.061-.035-2.186-3.168-4.414-6.306-6.555-9.505m7.966 7.503q-2.334-3.235-4.709-6.44c-.024-.032-.08-.002-.055.033q2.306 3.321 4.64 6.623c1.513 2.132 2.97 4.332 4.635 6.35.03.037.088-.01.064-.05-1.39-2.255-3.026-4.37-4.575-6.516m4.548 3.479q-2.747-4.129-5.529-8.234c-.018-.028-.064-.002-.045.027q2.674 4.171 5.384 8.318c1.805 2.761 3.549 5.593 5.524 8.237.024.032.077.004.055-.033-1.648-2.855-3.563-5.571-5.39-8.315m.638-3.496c-.017-.025-.057-.002-.04.024 3.577 5.61 7.09 11.277 10.826 16.784.013.019.042.002.03-.017-3.473-5.677-7.184-11.216-10.816-16.791m6.051 5.5c-.008-.013-.028-.001-.02.012 2.92 4.517 5.827 9.054 8.92 13.455.027.036.087.003.062-.036-2.934-4.512-5.99-8.944-8.962-13.431m7.07 6.947c-.012-.02-.042-.002-.03.017a31.2 31.2 0 0 0 4.053 5.388c.019.02.046-.01.03-.029a45.4 45.4 0 0 1-4.053-5.376m-3.109-23.464c-.018-.019-.047.01-.029.03a99 99 0 0 1 8.175 10.2c.01.015.036 0 .025-.015a73 73 0 0 0-8.17-10.215m10.54 8.549q-2.866-4.22-5.866-8.346c-.022-.03-.073-.001-.05.03q2.987 4.133 5.845 8.357c1.905 2.818 3.706 5.703 5.606 8.523.014.022.049.002.035-.02-1.732-2.92-3.662-5.737-5.57-8.544m8.54 7.21q-1.65-2.369-3.28-4.75-3.263-4.765-6.478-9.562c-.008-.012-.028 0-.02.012q3.189 4.885 6.463 9.711 1.625 2.386 3.268 4.758c1.071 1.547 2.1 3.146 3.28 4.613.02.023.058-.007.042-.032-1.004-1.635-2.178-3.175-3.275-4.75m6.453 4.198q-.897-1.26-1.777-2.533-1.727-2.495-3.39-5.034-3.363-5.124-6.542-10.368a.012.012 0 0 0-.02.012 193 193 0 0 0 6.424 10.574q1.695 2.589 3.458 5.132.88 1.272 1.778 2.532a20 20 0 0 0 1.739 2.291.05.05 0 0 0 .078-.06 26 26 0 0 0-1.748-2.546m2.797-1.03-2.844-4.041q-2.845-4.043-5.72-8.064c-.011-.016-.037-.001-.026.014q2.852 4.11 5.713 8.212l2.836 4.046c.918 1.308 1.778 2.705 2.805 3.93.022.026.063-.007.046-.035-.822-1.413-1.87-2.725-2.81-4.062m4.133 1.731-3.09-4.324c-.005-.006-.015 0-.01.006l3.107 4.413c1.002 1.423 1.97 2.884 3.035 4.261.01.013.032-.004.023-.018-.962-1.482-2.038-2.9-3.065-4.338m4.033.289c-.014-.017-.04.008-.025.025l1.285 1.524c.01.012.026-.005.017-.016zm53.322-13.621c-.41-.903-.804-1.813-1.217-2.714q-1.242-2.707-2.588-5.365c-.017-.034-.066-.004-.05.03q1.269 2.741 2.41 5.538c.361.888.724 1.777 1.051 2.677.264.726.37 1.775 1.06 2.211a.06.06 0 0 0 .087-.035c.216-.792-.433-1.637-.753-2.342m2.64 6.297c-.06-.124-.128-.244-.193-.366q-.2-.377-.399-.758l-.775-1.494c-.039-.074-.148-.01-.112.065l.74 1.515q.182.372.36.747c.06.124.117.25.18.373a1.5 1.5 0 0 0 .232.322c.033.038.088-.003.079-.045a1.5 1.5 0 0 0-.112-.36m-4.227-3.738q-1.282-2.487-2.416-5.047c-.015-.035-.065-.005-.05.03q1.105 2.573 2.356 5.081a37 37 0 0 0 2.706 4.9.035.035 0 0 0 .06-.035c-.79-1.682-1.804-3.275-2.656-4.929m-3.408-1.739c-.01-.021-.047-.006-.038.016a67 67 0 0 0 3.838 8.168c.015.027.052.004.04-.023-1.236-2.741-2.628-5.408-3.84-8.161m-.435 3.785c-.022-.04-.081-.004-.06.036.737 1.462 1.456 2.933 2.268 4.355.015.026.053.003.04-.024-.693-1.484-1.48-2.92-2.248-4.366m23.507 59.813a.2.2 0 0 1-.003-.069l-.003.023Zm-.007-.04.001-.006-.001-.004zm.01.062-.003-.022v.01Z"/><path fill="currentColor" d="M293.747 177.92c-.597-.073-1.153-.334-1.756-.4a23 23 0 0 0-1.766-.146c-1.14-.037-2.273-.04-3.409-.146a22 22 0 0 1-2.981-.49c-.21-.193-.426-.382-.64-.572q-.713-.637-1.44-1.258c-.442-.378-.898-.74-1.337-1.122a4 4 0 0 1-.776-.87l-.076-.118a2.3 2.3 0 0 1-.171-.374.009.009 0 0 0-.017.005c.012.053.034.103.05.155-2.021-3.152-4.299-6.139-6.525-9.145-5.614-7.58-11.215-15.17-16.892-22.703-2.634-3.494-5.262-6.985-8.002-10.392-.385-.937-.764-1.876-1.163-2.809-.631-1.475-1.245-2.959-1.9-4.423a12.9 12.9 0 0 0-2.236-3.598 13 13 0 0 0-2.541-2.007 4.8 4.8 0 0 0-.784-1.668q-.579-.947-1.153-1.896a39 39 0 0 0-2.315-3.378 31.3 31.3 0 0 0-5.716-5.845c-1.08-.84-2.301-1.518-3.453-2.254-1.221-.78-2.463-1.527-3.702-2.278-2.537-1.538-5.087-3.056-7.744-4.378a62 62 0 0 0-8.955-3.504c-.036-.011-.05.044-.015.057a83.5 83.5 0 0 1 15.328 8.032 63 63 0 0 1 6.929 4.83 42 42 0 0 1 5.71 5.611c.933 1.165 1.783 2.387 2.66 3.595q.65.9 1.262 1.827a80 80 0 0 1-2.39-1.595 76 76 0 0 1-4.16-3.133c-1.379-1.11-2.8-2.186-4.101-3.387a.038.038 0 0 0-.054.054c1.075 1.096 2.097 2.243 3.227 3.286a74 74 0 0 0 3.303 2.861c1.16.95 2.339 1.875 3.545 2.765a28.6 28.6 0 0 1 3.209 2.541 12.2 12.2 0 0 1 2.454 3.332c.67 1.354 1.225 2.77 1.819 4.158a324 324 0 0 0 3.927 8.867c1.528 3.3 3.165 6.545 4.738 9.824.059.121.268.035.22-.093-1.48-3.921-2.943-7.84-4.476-11.736a561 561 0 0 0 4.325 6.013q4.1 5.642 8.243 11.255l8.311 11.215c2.541 3.429 5.171 6.813 7.51 10.385a45.5 45.5 0 0 1 3.27 5.777c.476 1.026.824 2.102 1.289 3.13.272.602.558 1.185.823 1.78a11 11 0 0 1 .29 2.352c.004 2.666-1.424 4.8-3.116 6.739a47.6 47.6 0 0 1-5.835 5.643 16 16 0 0 1-6.593 3.515 7.8 7.8 0 0 1-1.717.163l.01-.006.045-.058a.2.2 0 0 0 .034-.106.14.14 0 0 0 0-.077.2.2 0 0 0-.034-.106l-.002-.003-.023-.03a.14.14 0 0 0-.051-.051.14.14 0 0 0-.064-.037l-.034-.015-.032-.004c.742-.464 1.438-1.033 2.13-1.55q1.2-.898 2.376-1.828c1.728-1.368 3.396-2.815 5.2-4.084.43-.302.849-.624 1.294-.904a3.1 3.1 0 0 0 1.069-.896 20.4 20.4 0 0 1 2.158-2.314 7.86 7.86 0 0 0 2.362-4.52c.005-.05-.072-.057-.086-.012a11.56 11.56 0 0 1-3.337 4.632q-.477.461-.964.91c-.405.37-.95.557-1.325.946-.316.329-.554.745-.853 1.092a26 26 0 0 1-1.077 1.191 43 43 0 0 1-4.506 3.894q-1.263.982-2.554 1.927c-.8.584-1.674 1.111-2.41 1.774-.02.018.005.049.028.036.06-.031.117-.071.176-.105a.1.1 0 0 0-.01.037l.002.023.006-.047a.3.3 0 0 0 0 .155l.03.07.001.002.03.04c-3.889-.27-6.961-3.486-9.425-6.38-3.778-4.44-7.51-8.917-11.264-13.375q-1.539-1.828-3.083-3.65c-1.017-1.198-2.007-2.46-3.124-3.567-.565-.559-1.273-.937-1.84-1.507-.53-.532-1.071-1.051-1.605-1.578-1.154-1.138-2.346-2.235-3.532-3.339a.018.018 0 0 0-.025.025c1.043 1.086 2.024 2.221 3.012 3.356.469.54.917 1.094 1.37 1.645q.179.216.355.432-.239-.078-.47-.16a26 26 0 0 1-2.986-1.236 47 47 0 0 1-5.41-3.219c-.036-.025-.078.03-.047.06a26.4 26.4 0 0 0 5.184 3.816c.944.525 1.878 1.073 2.858 1.529a8 8 0 0 0 1.457.593 3 3 0 0 0 .307.052c.038.068.07.14.113.205a17 17 0 0 0 1.332 1.595q.731.858 1.465 1.713 1.424 1.67 2.835 3.35c3.975 4.72 7.934 9.453 11.924 14.16l.214.248a1.3 1.3 0 0 0 .032.21c.02.077.041.168.069.243-.002.032.001.07.002.101 0 .014-.005.053-.007.072l-.015.095a5 5 0 0 1-.14.576q-.04.133-.089.264l-.05.13c-.003.009 0 .004-.003.009l-.02.047q-.13.3-.282.617a35 35 0 0 1-3.744 2.116 25 25 0 0 1-4.676 1.525 46 46 0 0 1-5.099.993 6.04 6.04 0 0 1-2.831-.24 12 12 0 0 1-2.37-1.312c-5.512-3.588-10.353-8.097-15.862-11.688a43 43 0 0 0-4.162-2.417q-1.066-.536-2.167-.996a5.8 5.8 0 0 0-2.26-.715 8.5 8.5 0 0 1-2.47-.483 33 33 0 0 0-2.495-.515c-1.72-.29-3.437-.536-5.138-.924a16.8 16.8 0 0 1-4.772-1.772 11.1 11.1 0 0 1-3.465-3.408c-.941-1.324-1.697-2.773-2.601-4.123a24.6 24.6 0 0 0-3.52-4.106 11 11 0 0 0-2.096-1.795c-.324-.176-.622-.377-.922-.576a.44.44 0 0 0-.203-.136l-.012.001a20 20 0 0 1-1.276-.963q-2.397-1.955-4.781-3.926c-3.186-2.624-6.41-5.199-9.618-7.795l-2.407-1.948c-.028-.023-.07.017-.041.042 3.163 2.757 6.293 5.554 9.48 8.283l4.877 4.177q1.082.927 2.157 1.863c-.139.095-.02.369.102.237a.018.018 0 0 0-.025-.025c.205-.192.298.397.334.503q.094.268.19.533l.442 1.244c.285.8.586 1.594.884 2.39.586 1.565 1.14 3.155 1.865 4.663.018.037.075.011.064-.027a75 75 0 0 0-2.707-7.446c-.211-.534-.412-1.074-.64-1.601l-.005-.01c.248.222.5.44.727.685.334.358.574.803.917 1.145l.069.064c.05.155.097.31.15.464.26.768.522 1.536.799 2.298a42 42 0 0 0 1.848 4.452c.033.067.134.019.117-.05a51 51 0 0 0-2.176-6.48c.255.233.504.47.759.703.318.812.666 1.61.986 2.428.244.623.47 1.253.695 1.883a8.3 8.3 0 0 0 .78 1.825.118.118 0 0 0 .218-.06 3 3 0 0 0-.024-.34 1.86 1.86 0 0 0 .44.773 4.6 4.6 0 0 0 1.248.624 11 11 0 0 1 1.007.564c.03.018.058.04.089.056.006.004.012.001.018.004.07.044.148.077.217.122.75.483 1.424 1.067 2.142 1.59q.435.518.9 1.014a14 14 0 0 0 1.726 1.6 8.6 8.6 0 0 0 2.373 1.16c3.357 1.176 7.008.802 10.46 1.52a10 10 0 0 1 1.22.287c.432.15.685.541 1.093.719.729.317 1.495.547 2.223.87a38 38 0 0 1 4.4 2.339c4.734 2.901 8.928 6.558 13.374 9.865l-.015.033-.067.157-.022.044c-.006.01-.055.09-.068.114-.007.005-.045.053-.053.06a2 2 0 0 1-.223.205c-.02.012-.067.046-.076.052l-.122.082-.303.194c-.236.15-.46.319-.688.483-.446.321-.888.645-1.322.982l-.006.006c-.878.452-1.752.915-2.63 1.372a12.9 12.9 0 0 1-5.934 1.904c.261-.184.514-.4.757-.552a15 15 0 0 1 1.48-.808 9.3 9.3 0 0 0 2.71-1.463c1.427-1.449 2.73-3.02 4.174-4.45.027-.027-.013-.065-.042-.042a23 23 0 0 0-2.173 2.041 13.4 13.4 0 0 1-2.318 2.11c-.422.273-.742.643-1.152.933a10.6 10.6 0 0 1-1.45.788q-.759.376-1.476.822a6 6 0 0 0-.923.605c-.092-.006-.18-.001-.273-.01a18.6 18.6 0 0 1-3.478-.844 70 70 0 0 0-3.519-.983 65 65 0 0 0-7.177-1.35 63 63 0 0 0-7.204-.535c-2.438-.04-4.87.218-7.305.17a12.16 12.16 0 0 1-6.264-1.93 47 47 0 0 1-5.14-3.948c-2.108-1.756-4.079-3.678-6.012-5.622-1.932-1.942-3.906-3.846-5.705-5.913-.017-.02-.045.008-.029.029 1.598 1.942 3.132 3.936 4.802 5.819 1.664 1.876 3.41 3.68 5.164 5.473a39 39 0 0 0 5.05 4.68 14.8 14.8 0 0 0 5.86 2.675q.435.078.874.126-.083.02-.167.038c-.267.055-.536.101-.804.15a86 86 0 0 0-2.535.164c-1.473.118-2.949.257-4.404.518-2.984.535-5.896 1.41-8.873 1.955a8.06 8.06 0 0 1-4.08-.178 8.7 8.7 0 0 1-2.796-1.649 39 39 0 0 1-4.883-5.67c-1.047-1.308-2.076-2.63-3.117-3.943-.532-.672-1.051-1.358-1.598-2.018-.574-.691-1.205-1.32-1.794-1.993-.02-.023-.057.006-.042.031.416.706.781 1.435 1.212 2.136.429.697.892 1.375 1.341 2.06q1.282 1.952 2.572 3.899l.662.991c-1.538-1.39-2.858-2.934-4.269-4.446-1.394-1.496-2.856-2.923-4.223-4.446-2.774-3.09-5.347-6.353-7.863-9.653-5.012-6.572-9.838-13.35-15.668-19.238a63 63 0 0 0-5.023-4.574c-.976-.793-2.01-1.675-3.115-2.407.488.11.978.209 1.47.277a49 49 0 0 0 5.021.423.115.115 0 0 0 .03-.225 55 55 0 0 1-4.736-1.337c-1.562-.524-3.169-.908-4.733-1.426a71 71 0 0 1-4.528-1.68 30 30 0 0 0 3.592.642 23.8 23.8 0 0 0 5.297-.167.147.147 0 0 0 0-.293c-1.653-.221-3.245-.6-4.877-.93-1.513-.306-3.031-.546-4.534-.904-3.14-.746-6.22-1.728-9.295-2.703-5.9-1.872-11.881-3.772-18.142-3.622a41 41 0 0 0-1.626.074 19.6 19.6 0 0 1 5.71-1.025.108.108 0 0 0 0-.216c-4.58-.603-8.908.894-13.002 2.776q-.49.184-.978.382a.06.06 0 0 0-.028.09l-.596.286a70 70 0 0 1-7.143 3.169 58 58 0 0 1-8.774 2.143c-12.266 2.27-24.543 4.466-36.758 7.002-3.422.71-6.853 1.368-10.28 2.052-3.508.699-6.98 1.55-10.488 2.24-.018.004-.01.032.008.029 3.131-.533 6.286-.907 9.419-1.432 3.043-.51 6.081-1.06 9.128-1.549 6.177-.99 12.358-1.99 18.516-3.096 6.15-1.104 12.293-2.244 18.438-3.373 2.909-.534 5.834-1.028 8.689-1.811a46.6 46.6 0 0 0 7.634-2.961c2.592-1.23 5.153-2.541 7.789-3.678q.163-.069.325-.135a43.9 43.9 0 0 1 12.404 1.402c5.215 1.197 10.239 3.068 15.38 4.529a11.8 11.8 0 0 0 3.603 2.199 43 43 0 0 0 4.644 1.852l.24.078a.4.4 0 0 0 .097.263 38 38 0 0 0 4.73 3.755 63 63 0 0 1 4.591 4.09 101 101 0 0 1 8.182 9.2c5.152 6.447 9.838 13.265 15.27 19.487a59 59 0 0 0 4.799 5.058 50 50 0 0 0 5.54 4.062c.108.072.222-.06.181-.161a27.8 27.8 0 0 0 4.126 5.116 9.58 9.58 0 0 0 6.672 2.817 21 21 0 0 0 4.51-.794q2.31-.566 4.64-1.044c1.75-.358 3.492-.729 5.232-1.133.422-.098.841-.207 1.26-.315.886-.113 1.768-.277 2.65-.423.86-.141 1.729-.24 2.585-.394a5.7 5.7 0 0 0 1.1-.334c1.021-.044 2.041-.111 3.056-.13a63 63 0 0 1 7.57.324 62 62 0 0 1 7.397 1.227c2.43.555 4.784 1.453 7.222 1.95a9.7 9.7 0 0 0 3.97.053 15.7 15.7 0 0 0 3.684-1.408 29.4 29.4 0 0 0 5.16-3.135l.072-.036a6.4 6.4 0 0 0 1.414-.913 2.1 2.1 0 0 0 .45-.611c.556.399 1.113.796 1.68 1.18a11.56 11.56 0 0 0 4.822 2.307 17.4 17.4 0 0 0 5.49-.63c3.097-.62 6.481-1.406 9.075-3.314.01-.002.02.003.029 0a4.3 4.3 0 0 0 1.357-.818 5 5 0 0 0 .99-1.236 4 4 0 0 0 .38-.965c2.823 3.023 6.277 5.693 10.642 5.145a15.2 15.2 0 0 0 7.083-3.207 45 45 0 0 0 6.217-5.708c2.04-2.237 3.953-4.666 4.208-7.793a12.7 12.7 0 0 0-.581-4.572 10.3 10.3 0 0 0-.846-2.19 15 15 0 0 0-.81-1.229c-.126-.29-.276-.568-.41-.854.212.079.425.155.643.215a21 21 0 0 0 3.608.647 27 27 0 0 0 3.626.153 16 16 0 0 0 1.703-.185c.649-.092 1.214-.405 1.847-.531.127-.025.08-.194-.028-.207m-11.937-1.674c-.083-.019-.16-.026-.24-.037a43 43 0 0 0-1.236-2.186c.345.366.727.703 1.067 1.026q.727.694 1.47 1.37l.139.127c-.4-.104-.798-.21-1.2-.3"/><path fill="currentColor" d="M275.864 190.648q-.889.64-1.793 1.254c-.59.402-1.206.777-1.756 1.234a5.5 5.5 0 0 0-.663.648 3.3 3.3 0 0 0-.4.75 3.57 3.57 0 0 1-1.267 1.377.015.015 0 0 0 .015.025 6.5 6.5 0 0 0 1.308-1.023c.217-.194.467-.346.692-.532a8 8 0 0 0 .632-.695c1.017-1.063 2.148-2.04 3.253-3.01.015-.013-.005-.04-.021-.028m-23.898 7.131a25 25 0 0 1-5.902 3.25 24.4 24.4 0 0 1-3.175 1.335c-1.083.338-2.19.599-3.293.865-.01.003-.006.02.005.017 1.137-.27 2.27-.556 3.406-.832 1.157-.28 2.373-.457 3.5-.844a13.7 13.7 0 0 0 5.484-3.766.018.018 0 0 0-.025-.025m-5.682 1.097a10 10 0 0 0-1.928.97 16.5 16.5 0 0 1-2.02 1.006c-.045.018-.029.088.02.074a19 19 0 0 0 2.119-.734 5 5 0 0 0 1.868-1.214c.038-.044.003-.122-.06-.102m-21.418 2.374c-.355.25-.726.486-1.068.753a11 11 0 0 0-.988.86.035.035 0 0 0 .043.055 12 12 0 0 0 1.059-.754c.343-.27.662-.58.99-.868.024-.022-.009-.065-.036-.046m60.89-25.187q-.554-.445-1.102-.897-1.161-.957-2.297-1.943a147 147 0 0 1-4.418-3.964c-.052-.049-.13.028-.079.079 1.428 1.405 2.883 2.79 4.394 4.106q1.102.96 2.229 1.893.58.48 1.165.951a4.2 4.2 0 0 0 1.057.73.038.038 0 0 0 .043-.055 4.6 4.6 0 0 0-.992-.9m2.247-.463q-.643-.494-1.282-.993-1.141-.895-2.256-1.822a122 122 0 0 1-4.38-3.802c-.032-.03-.081.018-.049.05a88 88 0 0 0 4.331 3.966q1.103.938 2.233 1.845.523.421 1.053.83a3.1 3.1 0 0 0 1.124.743.05.05 0 0 0 .057-.073c-.163-.326-.548-.527-.831-.745m3.31.135c-1.038-.785-2.144-1.483-3.183-2.27a80 80 0 0 1-3.14-2.49c-.02-.018-.048.01-.029.028.98.918 1.986 1.799 3.046 2.622a29 29 0 0 0 3.203 2.285c.114.066.219-.117.103-.175m-.112-1.945a13 13 0 0 0-1.667-1.313l-1.797-1.208c-.044-.03-.1.04-.057.073l1.707 1.326q.408.316.827.616a9 9 0 0 0 .944.56c.034.02.073-.026.043-.054m2.087 1.261a.4.4 0 0 0-.123-.147q-.077-.059-.159-.113a1 1 0 0 0-.124-.08l-.068-.029q.032.013.001-.005l-.053-.037-.115-.08c-.04-.027-.087-.048-.126-.078-.075-.055-.145-.122-.217-.183a.144.144 0 0 0-.199 0 .14.14 0 0 0 0 .2c.074.066.152.131.224.202.03.03.064.079.097.116l.101.111.051.056q-.016-.025.001.004l.019.031a1.3 1.3 0 0 0 .122.143q.05.057.102.11a.5.5 0 0 0 .093.08 1 1 0 0 0 .11.042.23.23 0 0 0 .245-.084.24.24 0 0 0 .018-.26m3.571.392a2.4 2.4 0 0 0-.559-.378q-.302-.175-.603-.353-.638-.38-1.258-.789a43 43 0 0 1-2.388-1.68c-.031-.024-.072.03-.042.055a27 27 0 0 0 2.288 1.781q.594.409 1.207.79.314.198.635.385a2.3 2.3 0 0 0 .651.307.07.07 0 0 0 .069-.118m1.846-.907a2.2 2.2 0 0 0-.576-.46q-.315-.197-.644-.372-.669-.358-1.36-.672c-.02-.009-.038.02-.018.03q.659.373 1.293.787.311.205.624.407a2.6 2.6 0 0 0 .644.344c.04.012.06-.037.037-.064m1.872-1.192a4 4 0 0 0-.39-.301 6 6 0 0 0-.425-.256c-.293-.164-.604-.303-.908-.447a.041.041 0 0 0-.041.07c.276.192.551.392.84.565q.212.129.434.24a4 4 0 0 0 .456.188.035.035 0 0 0 .034-.059m1.175-1a7 7 0 0 0-.415-.312l-.436-.297c-.041-.028-.078.038-.038.066l.422.303q.212.148.435.281c.025.016.056-.022.032-.04M197.386 108.58c-4.231-2.027-8.737-3.402-12.897-5.575a5.2 5.2 0 0 0-1.409-.607 12 12 0 0 1-1.797-.53q-1.654-.607-3.302-1.232c-2.196-.829-4.378-1.69-6.566-2.538-2.542-.985-5.076-1.992-7.545-3.149-.03-.014-.057.03-.027.046 4.165 2.153 8.39 4.11 12.749 5.84q1.64.652 3.285 1.286c.591.229 1.187.447 1.77.691.526.22.993.558 1.517.767a15 15 0 0 0 1.66.42c.568.153 1.14.269 1.7.442 1.16.358 2.292.794 3.423 1.231 2.482.96 4.927 2.017 7.396 3.01.058.023.1-.075.043-.102m-14.013.771c-.475-.57-.965-1.13-1.434-1.707-.015-.018-.045.006-.032.025.405.608.814 1.217 1.265 1.792a10.4 10.4 0 0 0 1.492 1.665c.04.034.11-.009.078-.06a17 17 0 0 0-1.369-1.715m2.757.879c-.613-.653-1.249-1.283-1.87-1.928-.02-.019-.046.01-.03.03.567.681 1.117 1.375 1.694 2.049a15.5 15.5 0 0 0 1.824 1.918c.038.032.105-.009.074-.057a15.4 15.4 0 0 0-1.693-2.012m2.571.973c-.721-.792-1.44-1.576-2.222-2.31-.019-.017-.054.006-.037.029.625.839 1.304 1.626 1.993 2.414a31 31 0 0 0 2.215 2.317c.025.024.073-.008.05-.039a31 31 0 0 0-1.999-2.41m2.598 1.001q-.833-.936-1.69-1.847c-.016-.017-.04.008-.026.025a95 95 0 0 0 1.601 1.885c.54.62 1.07 1.255 1.663 1.824.018.018.053-.006.037-.028-.487-.653-1.044-1.251-1.585-1.859m3.825 2.08c-.252-.258-.522-.499-.787-.745q-.398-.368-.768-.764c-.019-.02-.046.01-.03.029a8.5 8.5 0 0 0 1.553 1.522c.025.017.053-.02.032-.042m1.259-.24c-.01-.005-.019.01-.008.015l.341.168c.007.003.013-.007.006-.01Zm-14.945-4.271q-.102-.12-.207-.238a7 7 0 0 1-.437-.545 3 3 0 0 1-.33-.59 3 3 0 0 0-.33-.488c-.502-.683-1.012-1.363-1.508-2.051a.032.032 0 0 0-.056.032c.42.75.856 1.486 1.338 2.197a2.4 2.4 0 0 0 .36.468 3.2 3.2 0 0 1 .47.51c.128.17.25.338.365.516q.085.133.176.262a.7.7 0 0 0 .216.204.038.038 0 0 0 .06-.046c-.064-.14-.032-.128-.117-.23m-2.944-1.202a3.6 3.6 0 0 1-.326-.463q-.278-.46-.586-.9a13 13 0 0 0-1.334-1.62c-.024-.025-.059.011-.037.037a21 21 0 0 1 1.294 1.697q.286.419.544.856a2.4 2.4 0 0 1 .235.516.42.42 0 0 0 .238.32.094.094 0 0 0 .115-.066.42.42 0 0 0-.143-.377m-3.383-1.879q-.091-.106-.19-.206c-.135-.142-.265-.29-.396-.436-.127-.142-.264-.276-.391-.418a10 10 0 0 1-.375-.45c-.015-.018-.044.006-.032.025a9 9 0 0 0 .647.972c.12.15.25.291.38.432a3 3 0 0 0 .207.21c.063.052.136.135.225.13a.05.05 0 0 0 .046-.048c.004-.084-.07-.15-.12-.211m-3.506-1.836a2 2 0 0 0-.12-.21 1 1 0 0 0-.17-.177 2 2 0 0 0-.195-.153c-.038-.027-.071.029-.046.06q.071.088.133.183c.043.063.075.133.119.195q.066.09.122.186a2 2 0 0 0 .143.19.041.041 0 0 0 .075-.032.8.8 0 0 0-.06-.242m-68.148 16.878a30 30 0 0 0-2.568-1.645c-.033-.02-.06.029-.03.05a36 36 0 0 1 2.39 1.863 25 25 0 0 0 2.288 1.801c.042.028.104-.03.072-.072a10.2 10.2 0 0 0-2.152-1.997m5.244 2.946q-.433-.39-.857-.789c-.297-.279-.574-.582-.853-.879a5 5 0 0 1-.41-.498 5 5 0 0 1-.279-.528 3.7 3.7 0 0 0-.748-.813 16 16 0 0 0-.788-.71 12 12 0 0 0-1.719-1.187c-.022-.014-.05.019-.028.036a13 13 0 0 1 1.41 1.489c.23.268.457.54.692.805a3.5 3.5 0 0 0 .781.78 4.2 4.2 0 0 1 .943.685c.272.276.548.552.804.842.244.276.481.56.716.844a2.5 2.5 0 0 0 .816.776c.062.028.167-.021.134-.103a2.1 2.1 0 0 0-.614-.75m2.727.696c-.314-.306-.638-.603-.937-.924-.617-.665-1.15-1.399-1.696-2.12a9.8 9.8 0 0 0-1.816-1.838c-.09-.07-.43-.426-.57-.306-.055.047-.052.12.018.138a.015.015 0 0 0 .014-.025c.193.211.346.47.524.695.226.288.468.56.715.83.478.524 1.02.982 1.53 1.475a10.5 10.5 0 0 1 1.387 1.644c.202.298.376.615.577.914a1.9 1.9 0 0 0 .661.714.2.2 0 0 0 .289-.222 2.1 2.1 0 0 0-.696-.975m3.205 1.782a10 10 0 0 0-.937-1.212c-.332-.416-.671-.828-1.007-1.242-.672-.828-1.346-1.643-2.084-2.413-.016-.017-.046.005-.032.025.584.865 1.222 1.679 1.875 2.493l.97 1.21q.26.32.522.637a5.4 5.4 0 0 0 .536.622.1.1 0 0 0 .157-.12m1.625-.444c-.177-.242-.38-.468-.575-.695a12 12 0 0 0-1.32-1.274.023.023 0 0 0-.032.033c.385.468.752.95 1.143 1.414.192.227.371.466.565.69.2.232.414.443.633.656a.035.035 0 0 0 .055-.043 6 6 0 0 0-.469-.78m1.834.514a.018.018 0 0 0-.025.025l.342.339a.015.015 0 0 0 .02-.021Zm-24.15 16.403a12 12 0 0 0-1.432-1.158 25 25 0 0 0-1.572-1.034c-.03-.018-.054.027-.027.046.509.356 1.002.731 1.5 1.1.497.367.975.759 1.492 1.097.03.02.064-.025.039-.05m4.217 1.162c-.325-.282-.656-.558-.983-.837-.656-.558-1.319-1.108-1.98-1.66a111 111 0 0 0-3.927-3.143c-.014-.01-.03.012-.018.023a113 113 0 0 0 3.834 3.445q.947.82 1.901 1.632c.329.277.653.561.986.834a2.9 2.9 0 0 0 .92.613.05.05 0 0 0 .056-.073 2.9 2.9 0 0 0-.79-.834m3.505.735q-.471-.445-.95-.88l-1.981-1.784a163 163 0 0 0-3.974-3.45c-.037-.03-.089.02-.054.054a162 162 0 0 0 3.788 3.636l1.9 1.758q.477.438.961.867a4.8 4.8 0 0 0 .986.766c.07.034.158-.038.112-.113a4.4 4.4 0 0 0-.788-.854m2.629-.013c-.578-.546-1.164-1.084-1.746-1.625-1.15-1.07-2.31-2.124-3.497-3.153a.018.018 0 0 0-.025.025 95 95 0 0 0 3.322 3.328c.558.534 1.115 1.07 1.681 1.596a8.5 8.5 0 0 0 1.732 1.468.047.047 0 0 0 .064-.064 8.4 8.4 0 0 0-1.53-1.575m4.616 1.945c-.45-.345-.924-.659-1.365-1.015-.438-.353-.849-.735-1.263-1.114a140 140 0 0 0-2.687-2.418c-.02-.017-.048.01-.029.029.875.893 1.76 1.776 2.67 2.633a8.6 8.6 0 0 0 2.646 1.95c.041.014.056-.043.028-.065m3.076.684a8.6 8.6 0 0 0-1.771-1.416q-.957-.646-1.905-1.303c-.024-.017-.055.023-.032.041q.897.725 1.785 1.458a8.6 8.6 0 0 0 1.859 1.303.053.053 0 0 0 .064-.083m2.01.115q-.134-.1-.269-.194c-.087-.06-.181-.113-.272-.168l-.554-.338c-.046-.027-.087.044-.042.071l.553.341c.09.056.18.116.272.167l.294.151a.018.018 0 0 0 .018-.03m1.618.255-.004.005.17.17.004-.004ZM8.83 158.379a10 10 0 0 0-1.127-.794 21 21 0 0 0-1.237-.766 50 50 0 0 0-2.584-1.345.015.015 0 0 0-.015.025c.792.568 1.588 1.12 2.411 1.64.41.26.834.498 1.26.727a10 10 0 0 0 1.232.615.062.062 0 0 0 .06-.102m6.06-.372a17 17 0 0 0-2.787-1.78q-1.586-.895-3.18-1.779c-2.086-1.162-4.205-2.28-6.276-3.467a.056.056 0 0 0-.057.096c1.988 1.346 3.956 2.677 6.026 3.898q1.517.895 3.072 1.73a14.8 14.8 0 0 0 3.143 1.405c.056.014.108-.061.06-.103m2.3-2.081c-1.172-.865-2.309-1.696-3.55-2.459q-1.837-1.128-3.712-2.193a81 81 0 0 0-7.727-3.846c-.033-.015-.063.032-.03.05q3.789 2.044 7.515 4.212 1.813 1.053 3.59 2.169c1.251.787 2.523 1.518 3.787 2.284.142.086.254-.123.127-.217m4.915-.814c-2.731-1.801-5.586-3.426-8.373-5.14-2.795-1.717-5.624-3.355-8.558-4.826a.03.03 0 0 0-.03.05c2.812 1.683 5.668 3.282 8.512 4.906 2.848 1.627 5.572 3.44 8.36 5.162.097.06.183-.09.089-.152m4.099-.765a20.6 20.6 0 0 0-4.028-2.684q-2.12-1.276-4.221-2.582c-2.841-1.767-5.692-3.49-8.649-5.058a.038.038 0 0 0-.038.066c2.88 1.69 5.792 3.329 8.653 5.05q2.12 1.275 4.172 2.666a24.4 24.4 0 0 0 4.074 2.605c.037.016.062-.038.037-.063m-1.814-4.317c-3.01-1.996-6.096-3.87-9.09-5.894-.015-.01-.03.014-.014.025a70 70 0 0 0 9.075 5.92.03.03 0 0 0 .03-.051m4.406 2.525c-.603-.328-1.23-.618-1.85-.915a.056.056 0 0 0-.055.096c.578.363 1.118.77 1.657 1.186a9 9 0 0 0 .825.559 5.7 5.7 0 0 0 .87.456.08.08 0 0 0 .09-.116 4.9 4.9 0 0 0-1.537-1.266m5.455.907a7.2 7.2 0 0 0-1.554-1.07c-.59-.371-1.171-.759-1.756-1.14q-1.755-1.14-3.508-2.283-3.507-2.285-7.075-4.468c-.023-.014-.042.02-.02.036q3.436 2.402 6.93 4.714l3.392 2.239c.582.385 1.168.764 1.747 1.154a7.8 7.8 0 0 0 1.702 1.063c.145.05.235-.144.142-.245m-2.02-5.378-1.92-1.169c-1.322-.805-2.645-1.609-3.958-2.43-.06-.038-.116.057-.056.096 1.277.836 2.543 1.686 3.81 2.537l1.869 1.254a5.8 5.8 0 0 0 1.912 1.062c.042.009.094-.04.063-.082a5.7 5.7 0 0 0-1.72-1.268m6.717 4.845a3 3 0 0 0-.591-.478q-.338-.233-.68-.458a40 40 0 0 0-1.37-.862c-.022-.014-.042.021-.02.035q.67.432 1.32.897.323.234.64.476a3.7 3.7 0 0 0 .655.45.038.038 0 0 0 .047-.06m4.209-1.53c-.97-.732-2.113-1.29-3.152-1.922q-1.478-.9-2.942-1.825a357 357 0 0 1-6.002-3.886c-.029-.018-.054.027-.026.046a156 156 0 0 0 5.938 3.994q1.457.935 2.93 1.844a28 28 0 0 0 3.175 1.885.08.08 0 0 0 .08-.136m.417-3.275a3.5 3.5 0 0 0-.706-.45l-.806-.48q-.754-.453-1.502-.916c-1.032-.635-2.064-1.269-3.083-1.924-.02-.013-.036.017-.018.03.999.688 2.003 1.37 3.026 2.021q.742.473 1.494.931.4.245.801.488a3.3 3.3 0 0 0 .734.403.062.062 0 0 0 .06-.103m3.453 2.206q-.365-.248-.738-.485-.733-.469-1.488-.902a.018.018 0 0 0-.018.03q.726.458 1.43.949.352.246.698.5a2.8 2.8 0 0 0 .68.437.03.03 0 0 0 .034-.043 2.3 2.3 0 0 0-.598-.486m4.832-.267c-.779-.526-1.643-.946-2.456-1.42q-1.265-.739-2.517-1.502a209 209 0 0 1-4.884-3.064c-.016-.01-.03.014-.015.025q2.358 1.67 4.812 3.188 1.206.748 2.434 1.458a27 27 0 0 0 2.56 1.427.065.065 0 0 0 .066-.112m2.996-1.053c-1.863-1.212-3.84-2.251-5.776-3.34a.012.012 0 0 0-.012.02c1.906 1.14 3.79 2.34 5.767 3.355a.02.02 0 0 0 .02-.036m6.178.071a20 20 0 0 0-2.352-1.278q-1.18-.633-2.345-1.292a146 146 0 0 1-4.617-2.71c-.026-.017-.05.023-.024.04 1.53.976 3.077 1.926 4.656 2.822q1.164.66 2.343 1.295a15 15 0 0 0 2.32 1.166c.028.008.039-.029.019-.043m2.521-1.13c-1.877-.988-3.747-1.99-5.557-3.099-.016-.01-.03.015-.014.026a29.5 29.5 0 0 0 5.557 3.105c.018.008.031-.023.014-.032m2.368-.716a6.8 6.8 0 0 0-1.416-.898q-.77-.39-1.562-.736c-.037-.017-.07.036-.032.055q.756.381 1.484.814a14 14 0 0 0 1.483.82c.034.015.076-.026.043-.055m1.881-1.104a2.6 2.6 0 0 0-.812-.395 8 8 0 0 0-.9-.239c-.041-.01-.07.049-.03.07a8 8 0 0 0 .83.406 2.6 2.6 0 0 0 .879.238.047.047 0 0 0 .033-.08m2.201-1.143a4 4 0 0 0-.587-.202q-.302-.07-.605-.137a.041.041 0 0 0-.022.08l.59.19a4 4 0 0 0 .609.125.03.03 0 0 0 .015-.056m353.889 88.981c.047-.18.121-.36.186-.535a5 5 0 0 1 .571-1.116 10.3 10.3 0 0 1 1.659-1.773 41 41 0 0 1 4.107-3.067.023.023 0 0 0-.023-.04 22.6 22.6 0 0 0-4.562 2.63 12.7 12.7 0 0 0-1.866 1.838 6.6 6.6 0 0 0-1.438 2.02 1.23 1.23 0 0 0 .268 1.131c.302.342.736.324 1.068.616a14 14 0 0 1 2.03 2.18 14.5 14.5 0 0 1 2.295 5.337c.016.074.127.042.113-.032a15.6 15.6 0 0 0-1.686-4.672c-.407-.727-.824-1.477-1.3-2.16a11 11 0 0 0-.743-.933 3.1 3.1 0 0 1-.723-1.149c.016.074.029-.217.044-.275m29.814-36.916a11.4 11.4 0 0 0-2.734-1.452 22.4 22.4 0 0 0-3.027-.936.035.035 0 0 0-.019.068 23 23 0 0 1 2.954 1.087c.935.419 1.843.898 2.781 1.309a.044.044 0 0 0 .045-.076m-36.669-4.51q-.199-.119-.402-.228l-.87-.474c-.581-.316-1.152-.649-1.727-.974a.059.059 0 0 0-.06.101c.569.337 1.142.667 1.704 1.013l.845.519q.197.121.398.235a.85.85 0 0 0 .4.147.044.044 0 0 0 .037-.066.85.85 0 0 0-.325-.273m-.745 3.13A77 77 0 0 0 406.098 189a.032.032 0 0 0-.032.056c3.508 2.063 6.824 4.389 10.198 6.657.024.017.055-.022.032-.041"/><path fill="currentColor" d="M456.063 198.492a17.3 17.3 0 0 0-1.713-3.168 59 59 0 0 1-5.792-13.392c-.79-2.608-1.47-5.251-2.089-7.904a214 214 0 0 0-.982-4.086c-.257-1.01-.489-2.04-.799-3.04-.018-.19-.032-.38-.051-.57a222 222 0 0 0-.501-4.536 13 13 0 0 0-.883-3.75c-1.12-2.526-3.74-3.796-5.927-5.25q-2.224-1.478-4.444-2.97a58 58 0 0 0-6.5-7.99q-4.076-4.469-8.401-8.701c-2.786-2.726-5.607-5.494-8.653-7.93a20 20 0 0 0-3.209-2.12 4.5 4.5 0 0 0-.61-.622.2.2 0 0 0-.043-.12 66 66 0 0 0-4.696-6.063q-2.561-2.86-5.136-5.709-5.112-5.686-10.106-11.477-9.923-11.519-19.344-23.458c-6.231-7.899-12.61-15.796-17.576-24.574-2.458-4.344-4.87-8.707-7.51-12.945-2.583-4.147-5.34-8.184-8.193-12.15-5.707-7.933-11.77-15.628-18.047-23.117q-1.193-1.424-2.403-2.83c-.048-.056-.145.018-.102.077 5.792 7.96 11.937 15.653 17.632 23.685 2.824 3.982 5.573 8.02 8.187 12.143 2.659 4.194 5.138 8.466 7.525 12.82a127 127 0 0 0 7.934 12.865c2.906 4.066 5.984 8.013 9.057 11.953q9.35 11.99 19.211 23.567 4.95 5.81 10.023 11.512 2.543 2.858 5.11 5.695 1.306 1.449 2.608 2.9c.843.941 1.747 1.803 2.623 2.712.462.479.937.943 1.418 1.403l-.22-.108a21 21 0 0 0-3.557-1.313 22.4 22.4 0 0 0-3.6-.692 19.7 19.7 0 0 0-3.92.09c-.021.002-.022.036 0 .035a23.2 23.2 0 0 1 7.277 1.05 22 22 0 0 1 3.36 1.374q.199.103.392.213a21 21 0 0 0-4.39-.616 38.4 38.4 0 0 0-13.622 1.766.02.02 0 0 0 .01.04 42 42 0 0 1 12.066-.964 23 23 0 0 1 5.766 1.014 16.4 16.4 0 0 1 4.747 2.697 104 104 0 0 1 8.396 7.64q4.179 4.045 8.132 8.314c1.74 1.879 3.405 3.859 5.163 5.743-2.717-1.906-5.364-3.908-8.095-5.795-.07-.049-.156.062-.092.12a167 167 0 0 0 6.656 5.691c2.247 1.833 4.469 3.707 6.854 5.36 1.155.801 2.333 1.566 3.516 2.324a9.6 9.6 0 0 1 2.924 2.48 8.9 8.9 0 0 1 1.222 3.556c.235 1.378.394 2.769.601 4.151.51 3.408 1.192 6.775 1.816 10.162a.12.12 0 0 0 .236-.032q-.086-1.223-.162-2.445c.442 2.255.958 4.5 1.55 6.719a67.4 67.4 0 0 0 4.842 13.226q.822 1.613 1.763 3.16a11.1 11.1 0 0 1 1.581 3.19 11.5 11.5 0 0 1 .08 3.573c-.112 1.31-.237 2.619-.354 3.928l-.724 8.09c-.122 1.362-.226 2.726-.366 4.085a3.7 3.7 0 0 1-.48 1.645 8.5 8.5 0 0 1-1.028 1.231 4.7 4.7 0 0 1 .744-.946.2.2 0 0 0 .052-.199 14 14 0 0 0-.685-2.092c-.222-.452-.491-.87-.695-1.33a7 7 0 0 0-.566-1.088c-.272-.405-.787-.53-1.117-.895-.34-.375-.649-.779-.968-1.17l-1.985-2.435c-.008-.01-.026.004-.018.015l2.072 2.75a5.6 5.6 0 0 1 1.001 1.518 2.2 2.2 0 0 0 .252.678 4.3 4.3 0 0 0 .602.574 5.13 5.13 0 0 1 1.71 2.635c.06.255.146.608-.065.771a4 4 0 0 0-.454.283 2.6 2.6 0 0 0-.324.408 28.6 28.6 0 0 0-3.037-4.992 24 24 0 0 0-1.972-2.38c-.37-.393-.745-.782-1.134-1.157a3.1 3.1 0 0 0-1.1-.856.047.047 0 0 0-.054.069 3.9 3.9 0 0 0 .984.958c.383.34.757.69 1.11 1.06a24 24 0 0 1 2.111 2.535 19 19 0 0 1 1.565 2.636c.486.976.785 2.037 1.208 3.04a.25.25 0 0 0 .266.155c-1.913 2.106-3.804 4.234-5.71 6.347-.899.997-1.789 2.006-2.731 2.962-.57.578-1.151 1.2-1.765 1.771a5 5 0 0 0 .232-.646c.086-.316.14-.64.244-.95.017-.052-.058-.08-.086-.036-.288.461-.653.863-.922 1.34a5.4 5.4 0 0 1-.786 1.154 2.9 2.9 0 0 1-.988.64 3 3 0 0 1-.302.092 1 1 0 0 1-.254.039c-.163.007-.303-.008-.438.006a5.7 5.7 0 0 0-.106-1.166 17.6 17.6 0 0 0-1.958-5.236 5.4 5.4 0 0 0-1.528-1.774 3.3 3.3 0 0 0-2.034-.52c-.041 0-.053.068-.01.075a4.24 4.24 0 0 1 2.008 1.261 6.9 6.9 0 0 1 1.392 2.23 10.9 10.9 0 0 1 1.104 5.084c-.137 1.836-1.44 3.069-2.618 4.341-1.304 1.407-2.611 2.797-3.981 4.137l-.027.026a8 8 0 0 0-.21-.925 10.7 10.7 0 0 0-.996-2.5 31 31 0 0 0-3.07-4.465c-.019-.023-.057.007-.041.032a44 44 0 0 1 2.315 3.905 15 15 0 0 1 .83 2.12 11 11 0 0 1 .288 1.093q.058.279.1.56l.009.078a.18.18 0 0 0-.157.056 8.22 8.22 0 0 1-6.456 2.579 14.8 14.8 0 0 1-7.476-2.417c-3.996-2.74-5.567-7.858-5.182-12.508.45-5.453 3.324-10.345 6.515-14.647 1.595-2.15 3.538-4.14 4.878-6.464 1.074-1.864 1.366-4.224 2.752-5.902a5.4 5.4 0 0 1 3.56-1.75 20 20 0 0 1 4.388-.239 21 21 0 0 1 4.384.742c1.425.4 2.774 1.003 4.172 1.475.091.03.175-.104.097-.166a16.07 16.07 0 0 0-7.67-2.85 17.9 17.9 0 0 0-6.79.076 93 93 0 0 1 1.54-.437c1.24-.337 2.483-.633 3.731-.929a.08.08 0 0 0-.02-.155 19 19 0 0 0-1.949.18c-.003-.01.008-.02-.001-.03a8.2 8.2 0 0 0-1.468-1.142q-.8-.56-1.637-1.067a27 27 0 0 0-3.492-1.76c-.04-.016-.077.042-.035.062a35 35 0 0 1 3.376 1.84q.808.496 1.583 1.042c.496.348.969.783 1.493 1.09-.56.084-1.12.183-1.663.31l-.014.004a4.4 4.4 0 0 0-1.187-.823 42 42 0 0 0-1.351-.784 48 48 0 0 0-2.329-1.193 9.56 9.56 0 0 1 1.456-5.59 10.8 10.8 0 0 1 4.136-3.517 18 18 0 0 1 3.098-1.075c1.051-.294 2.09-.622 3.157-.854.064-.013.051-.122-.015-.115-1.14.135-2.285.188-3.413.41a20.6 20.6 0 0 0-3.44 1.041 10.2 10.2 0 0 0-4.767 3.492 8 8 0 0 0-.583.997c-.366-.092-.73-.193-1.101-.271a12 12 0 0 1-1.755-.481 6.4 6.4 0 0 1-2.395-1.523c-1.269-1.294-2.136-2.921-3.389-4.23a7 7 0 0 0-2.162-1.581 21 21 0 0 1-3.234-1.243 6.1 6.1 0 0 1-1.709-1.977 7.2 7.2 0 0 1-.9-2.924 18.6 18.6 0 0 1 .065-3.81 25 25 0 0 1 .775-4.471c.021-.07-.081-.095-.107-.03a19.5 19.5 0 0 0-1.25 3.958 20 20 0 0 0-.293 3.826c.003.121.01.247.015.37a12.4 12.4 0 0 1-.438-3.193 39 39 0 0 1 .181-4.078 15 15 0 0 1 .86-4.252c.01-.022-.026-.037-.037-.016a21.3 21.3 0 0 0-1.838 8.698 11.1 11.1 0 0 0 .492 4.349c.09.244.212.55.364.865a8.9 8.9 0 0 0-4.013-.264c-1.867.3-3.688.83-5.57 1.049a25.7 25.7 0 0 1-10.174-.807 20.9 20.9 0 0 1-8.7-5.014 28.8 28.8 0 0 1-5.613-7.943 109 109 0 0 1-4.08-10.53.041.041 0 0 0-.079.022 41 41 0 0 0 2.853 9.788 32.7 32.7 0 0 0 3.666 6.606q-.278-.186-.556-.38a30.1 30.1 0 0 1-9.942-11.887c-.01-.024-.053-.007-.043.018a28.4 28.4 0 0 0 5.148 8.665 27.5 27.5 0 0 0 3.8 3.565c1.365 1.054 2.91 1.927 4.202 3.067a.1.1 0 0 0 .06.025 21.3 21.3 0 0 0 3.425 2.653q.837.729 1.68 1.452c1.537 1.325 3.04 2.692 4.677 3.886.327.286.648.578.984.854a24.7 24.7 0 0 0 3.784 2.639c.035.019.062-.007.071-.039a25 25 0 0 0 1.774 1.056 20 20 0 0 1 2.916 1.509 15 15 0 0 1 2.162 2.258 86 86 0 0 0 4.57 4.986 64 64 0 0 0 5.772 5.092c.034.027.083-.018.05-.05a68 68 0 0 1-9.069-10.197 22 22 0 0 0-1.817-2.549 8.4 8.4 0 0 0-2.778-1.532 26.3 26.3 0 0 1-5.72-3.55c-1.044-.847-2.047-1.74-3.066-2.614-.31-.265-.614-.531-.92-.794a25.3 25.3 0 0 0 8.733 1.297 32 32 0 0 0 5.745-.777 561 561 0 0 0 6.176 3.584 60 60 0 0 0 6.514 3.461c.036.015.052-.039.025-.058a60 60 0 0 0-6.483-3.747 548 548 0 0 0-6.15-3.257l.184-.037c.345-.075.691-.14 1.036-.21.362.083.717.173 1.05.264.572.158 1.136.347 1.701.528a158 158 0 0 1 5.269 2.735q1.713.935 3.397 1.922c.578.34 1.157.678 1.72 1.04.44.285.908.808 1.443.834a21 21 0 0 0 1.578 1.99 6.66 6.66 0 0 0 2.834 1.913 6.6 6.6 0 0 0 1.697.233c.047.036.096.068.142.106a7 7 0 0 1 1.103 1.206 12 12 0 0 0 .095 3.463q.107.912.234 1.823.029.214.067.417a66 66 0 0 0-1.532-1.411c-1.102-.973-2.253-1.882-3.383-2.82-.03-.026-.074.017-.044.044 1.094.97 2.136 1.999 3.2 3.002.519.488 1.045.968 1.564 1.455q.239.225.476.452c.022.033.038.068.064.101a1.9 1.9 0 0 0 .45.386q.097.088.201.168a.3.3 0 0 0 .063.108l.079.094a1.4 1.4 0 0 0 .152.15q.167.146.339.285l.263.21c-1.706 1.209-2.336 3.222-3.06 5.185-.985 2.668-3.013 4.744-4.723 6.963-3.575 4.637-6.8 9.78-7.573 15.7-.673 5.149.867 10.785 5.074 14.093a15.1 15.1 0 0 0 6.57 2.839 47 47 0 0 0-6.52 5.134c-1.873 1.741-3.536 3.794-5.68 5.19q-.134-.16-.262-.321a44 44 0 0 1-.666-.867q-.616-.82-1.272-1.608a24 24 0 0 0-1.382-1.533c-.135-.137-.335-.442-.543-.462-.076-.008-.147.017-.124.101.005.02.038.022.042 0 .011-.073.35.297.346.293l.255.301.542.639q.556.658 1.091 1.334a28 28 0 0 1 1.045 1.388c.213.307.4.635.594.956a10 10 0 0 1-1.15.606l-.175.072c-.173-.239-.316-.504-.502-.734a13 13 0 0 0-.89-1.141 12.6 12.6 0 0 1-1.445-2.286 10.4 10.4 0 0 0-3.588-3.341.01.01 0 0 0-.01.017 10.7 10.7 0 0 1 3.645 3.589 8 8 0 0 1 .585 1.111 13 13 0 0 1 .294 1.282c.225.761 1.199.994 1.633 1.618-1.328.554-2.698 1.01-4.024 1.573a64 64 0 0 0-4.255 2.002c-2.731 1.405-5.372 2.978-7.982 4.597-5.315 3.296-10.53 6.736-16.13 9.545-5.647 2.833-11.504 5.223-17.14 8.078a78 78 0 0 0-8.083 4.65c-2.519 1.68-4.893 3.574-7.48 5.153a17.05 17.05 0 0 1-8.025 2.903 5.68 5.68 0 0 1-3.81-1.065 5.4 5.4 0 0 1-1.797-3.469c-.417-3.03 1.253-5.873 2.763-8.36a63.6 63.6 0 0 1 5.591-7.818 51.9 51.9 0 0 1 13.56-11.797 36 36 0 0 1 4.136-2.064c1.432-.598 2.928-1.025 4.35-1.644 2.928-1.273 5.217-3.743 7.621-5.775 4.826-4.079 9.765-8.243 15.603-10.79a27 27 0 0 1 3.643-1.26c.05.013.103.017.15.034.206.074.355.209.569.266.566.152 1.192.084 1.77.218a10 10 0 0 1 1.805.615 22.7 22.7 0 0 1 5.94 4.383.047.047 0 0 0 .067-.066 16.2 16.2 0 0 0-5.952-4.82q-.79-.353-1.605-.645a10.7 10.7 0 0 0-1.767-.621 1 1 0 0 0-.422.025h-.001a13 13 0 0 0-.978.038c-.057-.003-.117-.009-.172-.01a5.3 5.3 0 0 0-1.131.028c.269-.228.536-.46.792-.702a28 28 0 0 0 2.18-2.33 64 64 0 0 0 3.899-5.52 131 131 0 0 1 4.09-5.76 20 20 0 0 1 2.11-2.434 18.6 18.6 0 0 1 2.729-2.037 29 29 0 0 1 3.374-1.754c1.222-.586 2.424-1.213 3.648-1.797.054-.026.016-.114-.041-.096a71 71 0 0 0-6.564 2.352 14 14 0 0 0-2.999 1.55 13.4 13.4 0 0 0-2.308 2.24c-.27.324-.53.655-.791.986-.002-.054.006-.106.003-.16a10 10 0 0 0-.103-.988c-.054-.348-.169-.678-.242-1.02a.031.031 0 0 0-.061.008c.013.338-.028.678-.028 1.018q0 .491.012.982c.005.218.02.434.032.65-.352.46-.683.935-1.02 1.405a42 42 0 0 0-.07-.67 24 24 0 0 0-.595-3.305c-.005-.02-.04-.017-.038.006.098 1.04.198 2.081.264 3.125q.042.671.075 1.343-.537.764-1.06 1.538a17 17 0 0 0-.508-4.909c-.007-.032-.054-.018-.049.014a24.2 24.2 0 0 1 .237 5.36q-.666.984-1.325 1.972c.023-.688.007-1.38-.025-2.059a34 34 0 0 0-.428-3.913c-.002-.015-.028-.012-.027.004a46 46 0 0 1 .224 3.91c.013.814 0 1.63-.004 2.445q-.672.999-1.357 1.987c-.011-.64-.033-1.28-.053-1.92l-.156-4.895a.025.025 0 0 0-.05 0l.045 4.623c.008.8.053 1.62.043 2.433-.313.448-.626.896-.95 1.337-.267.365-.548.718-.828 1.073q-.017-.222-.038-.442-.042-.468-.065-.936a.016.016 0 0 0-.032 0 25 25 0 0 1-.065.936 6 6 0 0 0-.033.743c-.449.555-.912 1.1-1.405 1.62-.084.089-.175.172-.26.26.053-.877.025-1.774.023-2.631q-.005-1.955-.128-3.906c-.001-.017-.029-.017-.028 0q.089 1.914.067 3.83-.012.94-.051 1.879c-.014.331-.039.666-.056 1-.27.272-.536.544-.81.81-.372.36-.93.761-1.038 1.29-4.617 1.34-8.696 4.708-12.36 7.624-2.724 2.168-5.333 4.461-7.992 6.706a14.6 14.6 0 0 1-4.323 2.621c-1.492.558-2.995 1.058-4.45 1.712a47 47 0 0 0-14.557 10.777c-.453.477-.893.967-1.331 1.458a3 3 0 0 0-.178-.114q-.334-.204-.685-.378a9 9 0 0 0-1.415-.564 7.7 7.7 0 0 0-3.036-.292.01.01 0 0 0 0 .02 11.6 11.6 0 0 1 2.72.552 9 9 0 0 1 1.27.527 5.6 5.6 0 0 1 1.007.597 66 66 0 0 0-4.569 5.83 33.1 33.1 0 0 0-4.734 8.5c-.843 2.646-.75 5.772 1.178 7.94a5.6 5.6 0 0 0 2.2 1.486c-2.039 1.296-3.98 2.762-5.92 4.193-2.188 1.614-4.358 3.253-6.536 4.88l-3.267 2.442a23 23 0 0 1-3.205 2.187 8.55 8.55 0 0 1-6.443.467 5.48 5.48 0 0 1-2.853-1.789 6.56 6.56 0 0 1-.774-3.382 15.6 15.6 0 0 1 1.563-7.04c2.107-4.53 5.74-8.141 9.07-11.782 1.822-1.994 3.6-4.04 5.521-5.942 1.387-1.372 2.88-2.6 4.385-3.822.637-.428 1.275-.856 1.892-1.317q1.786-1.334 3.628-2.592a21.4 21.4 0 0 0 3.319-2.494 18.4 18.4 0 0 0 2.246-3.267 39 39 0 0 1 2.516-3.52c1.765-2.21 3.72-4.26 5.66-6.316 3.857-4.088 7.774-8.2 12.365-11.48 2.278-1.629 4.81-2.895 6.949-4.717 2.263-1.928 4.252-4.203 6.35-6.305q2.23-2.233 4.436-4.487a.098.098 0 0 0 .175.011c.145-.215.295-.424.444-.636.704-.713 1.406-1.429 2.116-2.138a75 75 0 0 1 1.825-1.75.354.354 0 0 0 .361-.337c1.113-1.035 2.234-2.068 3.29-3.154a11.65 11.65 0 0 1 4.694-1.979 24 24 0 0 1 5.452-.062 18.8 18.8 0 0 1 5.68 1.138c.026.011.05-.026.023-.04a15.9 15.9 0 0 0-5.368-1.745 27.4 27.4 0 0 0-5.859-.343c-3.856.348-6.582 3.092-9.323 5.556a10.5 10.5 0 0 0-2.482-.205 16 16 0 0 0-3.57.575c-.015.004-.008.025.006.023a13.4 13.4 0 0 1 3.564-.097c.614.072 1.231.15 1.842.262-.056.053-.12.097-.174.151a14 14 0 0 0-5.007.46 13.5 13.5 0 0 0-2.61.981 17.5 17.5 0 0 0-2.46 1.679c-.024.017-.003.056.023.04a12.6 12.6 0 0 1 2.582-1.145 20.5 20.5 0 0 1 2.59-.76c.406-.084.813-.143 1.22-.188-.188.653-.384 1.304-.57 1.956-.203.706-.446 1.415-.61 2.135l-1.237 1.108q.238-.693.433-1.398a26 26 0 0 0 .65-3.106c.004-.03-.04-.043-.046-.013a36 36 0 0 1-.74 3.023q-.214.734-.456 1.46l-.094.26-.069.062q-.826.747-1.62 1.527a23.3 23.3 0 0 0 1.15-4.025c.005-.024-.031-.035-.037-.01-.359 1.418-.825 2.802-1.273 4.193-1.555 1.525-3.05 3.112-4.591 4.648a23.3 23.3 0 0 1-3.224 2.753c-1.177.809-2.42 1.513-3.618 2.29a72 72 0 0 0-12.615 11.076c-1.944 2.04-3.9 4.075-5.75 6.201a47.6 47.6 0 0 0-4.948 6.89 10.2 10.2 0 0 1-3.192 3.284c-1.344.919-2.684 1.84-3.994 2.806-1.114.82-2.16 1.712-3.18 2.633a20.8 20.8 0 0 0-3.521 2.693c-1.905 1.747-3.637 3.675-5.38 5.58-3.572 3.907-7.564 7.768-9.927 12.574a19.5 19.5 0 0 0-1.669 4.916 15 15 0 0 0-2.243-1.028 20 20 0 0 0-2.032-.644 8.4 8.4 0 0 1 .584-3.102 46 46 0 0 1 4.098-8.74 48.6 48.6 0 0 1 12.944-14.129 35 35 0 0 0 4.08-2.947 15.6 15.6 0 0 0 2.522-4.183 46.2 46.2 0 0 1 6.384-8.876c2.321-2.668 4.662-5.344 7.202-7.808a34.5 34.5 0 0 1 8.506-6.161 20 20 0 0 0 2.714-1.555 21 21 0 0 0 2.349-2.033c1.426-1.383 2.876-2.729 4.422-3.978 3.193-2.582 6.687-4.78 10.1-7.054.11-.074.044-.272-.096-.225a33.8 33.8 0 0 0-9.681 5.368 57 57 0 0 0-4.305 3.642 26 26 0 0 1-4.486 3.812 44 44 0 0 1-1.834.993 9 9 0 0 0 .885-.755 14.3 14.3 0 0 0 1.72-2.322q.881-1.33 1.813-2.623c2.412-3.368 5.097-6.531 7.498-9.904.014-.02-.016-.051-.037-.036a28 28 0 0 0-1.95 1.611c.33-1.068.677-2.133.999-3.2a43 43 0 0 1 1.758-4.585 4.14 4.14 0 0 0 .427-2.006 12 12 0 0 0-.57-2.22c-.247-.854-.47-1.715-.734-2.565-.025-.079-.043-.167-.065-.25a8 8 0 0 0 1.654 1.271c.097.055.23-.06.16-.16-2.082-3.03-3.677-6.36-3.35-10.127a11 11 0 0 0 .172-2.996 15 15 0 0 0-1.104-2.876 70 70 0 0 1-2.266-6.187c-2.55-8.19-3.315-17.203-.18-25.351.437-1.136.997-2.24 1.333-3.412a9.9 9.9 0 0 0 .325-3.47c.59 1.649 1.136 3.314 1.575 5.013.034.134.265.11.247-.033a43.2 43.2 0 0 0-3.248-12.443 39.6 39.6 0 0 0-3.18-5.589 65 65 0 0 0-1.83-2.659 23 23 0 0 0-.965-1.252c-.365-.432-.83-.785-1.185-1.218-.033-.041-.105.013-.074.057.323.454.536 1.016.824 1.496.257.428.531.847.794 1.272.122.198.239.398.36.597q-1.706-1.817-3.463-3.585c-2.477-2.495-5.012-4.932-7.544-7.37q-7.294-7.025-14.33-14.303c-4.572-4.723-9.101-9.487-13.702-14.183-2.793-2.85-5.61-5.682-8.498-8.437q.371.262.742.528c.09.064.198-.078.117-.152-2.92-2.681-5.821-5.354-8.875-7.884q-4.488-3.718-8.98-7.432c-5.88-4.859-11.775-9.758-17.923-14.276-2.92-2.145-5.997-4.045-8.96-6.124a27.6 27.6 0 0 1-6.965-6.843c-3.647-5.261-5.499-11.534-6.735-17.75-.8-4.015-1.556-8.04-2.378-12.05a52.8 52.8 0 0 0-3.394-11.546c-.04-.085-.174-.024-.15.063a106 106 0 0 1 2.473 10.819c.373 2.19.664 4.39.97 6.59-.789-2.958-1.852-5.85-2.895-8.72a985 985 0 0 0-4.45-12.063c-.871-2.302-1.888-4.534-2.827-6.807-.016-.04-.082-.025-.067.02.698 2.038 1.303 4.108 2 6.147.7 2.044 1.428 4.077 2.133 6.118 1.41 4.082 2.718 8.2 4.063 12.304a53 53 0 0 0 2.563 6.502c.052.321.097.643.151.963 1.078 6.33 2.79 12.764 6.09 18.325a27.9 27.9 0 0 0 6.198 7.337c2.737 2.254 5.822 4.036 8.727 6.056 6.333 4.4 12.237 9.395 18.218 14.253 3.407 2.767 6.851 5.488 10.284 8.221l.214.169c.502.464 1.014.919 1.51 1.39q7.129 6.754 14.04 13.753c9.302 9.423 18.288 19.152 27.812 28.356 2.809 2.714 5.638 5.409 8.405 8.167q2.073 2.067 4.088 4.19c.668.708 1.302 1.461 2.006 2.131a11.5 11.5 0 0 0 1.469 1.125 164 164 0 0 1 2.759 6.184l.107.741c.151 1.102.391 2.185.46 3.298a9.1 9.1 0 0 1-.337 3.306c-.335 1.066-.852 2.061-1.28 3.09a33.1 33.1 0 0 0-2.37 12.606 46.5 46.5 0 0 0 1.937 12.94 67 67 0 0 0 2.194 6.335c.408 1.017.877 2.011 1.273 3.033a6.07 6.07 0 0 1 .085 3.134 12.2 12.2 0 0 0 1.953 8.186c.031.494.144 1.001.2 1.462a22 22 0 0 0 .436 2.388 21 21 0 0 1 .562 2.371 4.26 4.26 0 0 1-.621 2.205 28 28 0 0 0-1.566 4.319 15.4 15.4 0 0 0-.458 3.892 52 52 0 0 0-5.7 6.582 62 62 0 0 0-1.773 2.513 17.6 17.6 0 0 1-1.816 2.537c-1.42 1.456-3.398 2.438-4.398 4.26a.105.105 0 0 0 .114.154 38 38 0 0 0-3.06 2.489 103 103 0 0 0-7.69 8.165 54.5 54.5 0 0 0-6.836 9.094c-.876 1.554-1.463 3.427-2.773 4.689a13.7 13.7 0 0 1-2.231 1.566q-1.078.686-2.114 1.433a48.5 48.5 0 0 0-13.436 14.934 41.3 41.3 0 0 0-4.208 9.479 5.85 5.85 0 0 0 .468 4.97 3.4 3.4 0 0 0 4.214 1.211 6 6 0 0 0 .489-.235c-.016.211-.035.423-.042.636a11.7 11.7 0 0 0 .436 3.808 4.8 4.8 0 0 0 2.188 2.711 10.04 10.04 0 0 0 6.843 1.277c2.64-.426 4.653-2.092 6.732-3.645l7.921-5.917c2.58-1.927 5.23-3.832 7.617-5.996a10.6 10.6 0 0 0 4.242-.157c6.093-1.398 10.785-6.078 15.975-9.257 5.576-3.415 11.6-5.996 17.527-8.723 2.936-1.351 5.857-2.74 8.697-4.286 2.803-1.526 5.52-3.203 8.22-4.902 5.442-3.422 10.858-6.97 16.784-9.516 1.505-.647 3.066-1.151 4.57-1.799a13.5 13.5 0 0 0 3.993-2.705c1.193-1.137 2.308-2.35 3.511-3.477q1.793-1.68 3.704-3.23 1.802-1.46 3.633-2.887c.195.016.39.039.584.048 2.217.105 4.848-.488 6.154-2.32a.7.7 0 0 0 .272.082c.637.022 1.217-.67 1.606-1.076a75 75 0 0 1 2.109-2.126 45 45 0 0 0 3.816-3.733 5.2 5.2 0 0 0 1.06-2.14 2.1 2.1 0 0 0 1.354-.113 2.76 2.76 0 0 0 1.275-1.056c.104-.148.191-.306.282-.462a11 11 0 0 0 2.55-1.506 29 29 0 0 0 2.534-2.457c1.831-1.975 3.65-3.963 5.481-5.94.872-.942 1.808-1.862 2.592-2.88a6.2 6.2 0 0 0 1.041-3.5l.74-8.214c.246-2.718.578-5.444.713-8.17a9.5 9.5 0 0 0-.388-3.578m-42.599-10.245c-.585-.328-1.16-.672-1.74-1.007q-1.742-1.006-3.515-1.955a103 103 0 0 0-4.72-2.352c.097.032.196.057.292.09.802.274 1.55.675 2.347.978.853.325 1.696.681 2.521 1.072a34.6 34.6 0 0 1 4.473 2.52c.236.158.451.337.672.51q.184.237.362.478c-.233-.119-.484-.217-.692-.334m9.62 9.925-.004-.18q1.08.626 2.153 1.26c.447.267.897.53 1.343.798.224.134.443.275.668.405a3.3 3.3 0 0 0 .526.261c-.562.138-1.117.291-1.667.471l-.006.003a6 6 0 0 0-.56-.312l-.95-.522c-.45-.248-.912-.473-1.373-.699a11 11 0 0 1-.13-1.485m.874 2.747a1.76 1.76 0 0 1-.715-1.14c.411.255.82.515 1.242.753l.944.532c.125.071.255.157.389.231-.197.07-.394.14-.585.22a3 3 0 0 0-.373.182 3.6 3.6 0 0 0-.902-.779m-50.983 27.415a12 12 0 0 0-.737 1.215q-.472.421-.942.843a13 13 0 0 0 .323-2.07c.452-.01.904-.009 1.356.012m-3.125 2.183c.182-.7.312-1.406.435-2.114q.582-.058 1.165-.077a13 13 0 0 0-.391 2.279q-.833.742-1.663 1.488c.177-.52.318-1.054.454-1.576m-69.978 73.966c-1.178.494-2.578.694-3.468-.365a3.06 3.06 0 0 1-.695-1.77c.652.214 1.301.438 1.941.689.783.307 1.538.677 2.31 1.007-.027.147-.065.292-.088.44"/><path fill="currentColor" d="M353.504 140.177c-.584-.765-1.158-1.539-1.75-2.298-1.256-1.61-2.623-3.18-3.73-4.898a10.1 10.1 0 0 0-1.907-2.273 25 25 0 0 1-2.129-2.206 285 285 0 0 1-4.066-4.588c-1.543-1.786-3.078-3.577-4.447-5.502-.02-.028-.064-.003-.046.026a96 96 0 0 0 7.199 9.567c.676.794 1.385 1.567 2.033 2.384a21 21 0 0 0 1.846 2.406c.745.702 1.514 1.361 2.23 2.097.71.729 1.363 1.52 2.01 2.303.756.914 1.492 1.85 2.175 2.82.314.445.614.9.909 1.36a5.3 5.3 0 0 0 1.01 1.352.16.16 0 0 0 .264-.154 8 8 0 0 0-1.6-2.396m6.455.166a.2.2 0 0 0-.036-.104q-2.99-3.913-5.671-8.045a149 149 0 0 1-2.598-4.113c-.858-1.417-1.658-2.885-2.598-4.25-.035-.05-.133-.02-.107.046a36 36 0 0 0 2.182 4.24l.043.072c.454 1.28.887 2.568 1.289 3.865q.35 1.128.659 2.269c.112.412.21.834.316 1.253-.363-.398-.737-.79-1.095-1.192-.875-.983-1.753-1.963-2.591-2.977-1.68-2.03-3.355-4.064-5.068-6.068-.034-.04-.106.015-.073.057a433 433 0 0 0 4.77 6.044 105 105 0 0 1 2.433 3.201q.601.815 1.182 1.644a6 6 0 0 0 1.416 1.26.097.097 0 0 0 .152-.118 7 7 0 0 0-.81-1.498 28 28 0 0 0-.378-1.495q-.337-1.223-.72-2.433a49 49 0 0 0-1.245-3.418c.451.771.914 1.536 1.38 2.3.462 1.23.912 2.465 1.327 3.71.286.856.549 1.72.806 2.586.21.707.403 1.426.647 2.123-.02-.014-.044-.024-.064-.04-.013-.01-.03.012-.018.024.035.035.076.07.113.105.045.125.077.255.128.378.021.052.115.054.109-.015-.004-.046-.015-.093-.022-.14a.28.28 0 0 0 .225.174 4.1 4.1 0 0 0 1.328.813 4 4 0 0 0 .883.17c.013.005.022.018.035.024a.15.15 0 0 0 .135-.009 5 5 0 0 0 .794-.023c.026.018.045.043.071.06a.275.275 0 0 0 .37-.077.73.73 0 0 0 .616-.076.076.076 0 0 0 .012-.093.57.57 0 0 0-.327-.234"/><path fill="currentColor" d="M350.888 129.477a52 52 0 0 0-1.43-4.04c-.009-.021-.042-.013-.035.009a94 94 0 0 1 1.33 4.068c.414 1.366.737 2.76 1.158 4.124a.023.023 0 0 0 .045-.013 32 32 0 0 0-1.068-4.148m-1.821-1.577q-.543-1.97-.982-3.968c-.003-.015-.025-.009-.022.006q.412 2.004.926 3.984a36 36 0 0 0 1.173 3.917.032.032 0 0 0 .062-.017c-.351-1.316-.795-2.608-1.157-3.922m-2.407-4.25a.006.006 0 0 0-.01.004c.407 1.536.805 3.076 1.232 4.607a.015.015 0 0 0 .028-.007c-.4-1.539-.83-3.07-1.25-4.603m10.553 5.492a14 14 0 0 1-1.177-1.511 268 268 0 0 1-2.127-3.158l-4.152-6.233c-.01-.016-.036-.001-.025.015l4.09 6.27q1.005 1.54 1.995 3.092a13 13 0 0 1 .987 1.763 3.1 3.1 0 0 0 .96 1.252c.087.075.246.005.205-.12a3.2 3.2 0 0 0-.756-1.37m3.242 4.003-.026.097a.304.304 0 0 0-.076-.363 1 1 0 0 0-.2-.171c-.04-.023-.048-.017-.076-.04l-.093-.083a.6.6 0 0 0-.203-.152l.048.028c-.156-.129-.27-.304-.431-.426-.048-.036-.1.032-.076.076a2.3 2.3 0 0 0 .208.302 1.4 1.4 0 0 1 .116.159c.015.028.024.06.042.088l.045.073c.031.052.068.102.096.156q.007.004.004-.01a.2.2 0 0 0 .016.076.5.5 0 0 0 .054.103c.074.118.171.264.316.276a1 1 0 0 1 .161.07.083.083 0 0 0 .12-.092.7.7 0 0 1-.045-.167m11.61 34.525a24 24 0 0 1-.691-2.703c-.383-1.89-.924-3.747-1.306-5.639-.005-.022-.037-.012-.034.01a31.4 31.4 0 0 0 1.154 5.792 52 52 0 0 0 1.748 5.422c.016.034.067.009.059-.025-.236-.97-.622-1.907-.93-2.857m3.531 3.992q-.322-.912-.628-1.828-.613-1.833-1.177-3.683a314 314 0 0 1-2.13-7.431.03.03 0 0 0-.057.015 76 76 0 0 0 1.849 7.51q.552 1.852 1.168 3.684a12.9 12.9 0 0 0 1.329 3.4c.03.042.114.034.109-.03a6.6 6.6 0 0 0-.463-1.637m2.086.302q-.639-1.87-1.19-3.769c-.719-2.494-1.297-5.024-1.978-7.528-.013-.048-.081-.027-.073.02a60 60 0 0 0 1.952 7.66q.567 1.83 1.176 3.648a18.3 18.3 0 0 0 1.332 3.604.026.026 0 0 0 .048-.02 27 27 0 0 0-1.267-3.615m2.822 2.078q-.501-1.351-.958-2.719-.929-2.784-1.7-5.618a.02.02 0 0 0-.039.01 80 80 0 0 0 1.653 5.743q.47 1.418.987 2.82a20 20 0 0 0 1.032 2.591.047.047 0 0 0 .086-.036c-.266-.948-.718-1.867-1.061-2.791m2.923 2.159c-.23-.557-.46-1.115-.68-1.676a74 74 0 0 1-1.27-3.39c-.02-.06-.113-.036-.095.026.347 1.198.71 2.389 1.14 3.56q.31.848.655 1.682a6.5 6.5 0 0 0 .763 1.55c.05.064.134-.008.123-.07a8.4 8.4 0 0 0-.636-1.682m1.411-2.159a.018.018 0 0 0-.034.01 13.4 13.4 0 0 0 1.652 4.027.023.023 0 0 0 .04-.023 38 38 0 0 1-1.658-4.014m20.543 28.935a22 22 0 0 1-1.639-1.533 9 9 0 0 1-.648-.94 6 6 0 0 0-.817-.771 76 76 0 0 1-6.168-6.51c-.034-.041-.106.014-.074.056a76 76 0 0 0 5.82 6.876 5.7 5.7 0 0 0 .791.797c.267.18.56.284.824.483.649.493 1.239 1.066 1.851 1.602a43 43 0 0 0 3.484 2.846c.017.011.037-.015.022-.028-1.135-.976-2.322-1.888-3.446-2.878m3.359 5.352c-.808-.788-1.71-1.466-2.584-2.178q-1.319-1.07-2.565-2.226A53 53 0 0 1 398.93 199c-.032-.038-.084.016-.054.054a53 53 0 0 0 4.6 5.108 24.4 24.4 0 0 0 5.215 4.232.041.041 0 0 0 .05-.065m-24.562-22.763a63 63 0 0 0-5.838-5.426c-1.974-1.785-3.953-3.567-5.848-5.437a.07.07 0 0 0-.1.1c1.85 1.963 3.702 3.926 5.664 5.777a35.7 35.7 0 0 0 6.072 5.05.041.041 0 0 0 .05-.064m5.419 3.604a12.3 12.3 0 0 0-1.907-1.411 23 23 0 0 0-2.13-1.177c-.024-.011-.045.022-.021.036.692.397 1.375.816 2.04 1.259.663.442 1.308.916 1.983 1.34a.03.03 0 0 0 .035-.047m1.234 4.316c-3.16-2.642-6.557-4.981-9.65-7.703-3.044-2.679-5.981-5.5-8.855-8.36a.062.062 0 0 0-.087.087c2.847 2.946 5.778 5.829 8.895 8.49 1.54 1.315 3.187 2.485 4.78 3.735 1.622 1.27 3.225 2.573 4.896 3.779.016.011.037-.015.021-.028m-1.668 1.652c-2.042-1.72-4.245-3.256-6.345-4.904a254 254 0 0 1-6.253-5.05c-.02-.018-.05.01-.03.028a156 156 0 0 0 6.227 5.246 68 68 0 0 0 6.372 4.717c.022.013.05-.02.029-.037m-1.442 2.037a42.4 42.4 0 0 0-5.73-4.398c-.038-.025-.073.035-.035.06a68 68 0 0 1 5.736 4.367c.02.017.048-.01.029-.029m4.305 16.975c-1.914-1.139-3.918-2.12-5.834-3.256a12.4 12.4 0 0 1-2.76-2.037 2.02 2.02 0 0 0-1.176-.565 6 6 0 0 1-1.685-.646 294 294 0 0 0-11.852-5.619c-.041-.018-.077.04-.036.061q5.846 2.922 11.537 6.16a6 6 0 0 1 1.438.982 2.24 2.24 0 0 0 1.02.713c.307.084.629.078.937.169.23.067.459.165.682.253.593.231 1.18.497 1.752.774 2.009.968 3.937 2.096 5.948 3.062a.03.03 0 0 0 .03-.05m14.035-3.141c-2.075.134-4.138.294-6.199.512l-.418-.122a.015.015 0 0 0-.008.028l.358.1a84 84 0 0 0-3.374.418c-.802.118-1.6.31-2.407.388a6.2 6.2 0 0 1-2.417-.627c-1.584-.549-3.175-1.065-4.711-1.74-.071-.032-.134.07-.062.106 1.509.739 2.99 1.535 4.537 2.193.703.299 1.42.557 2.126.846a3.7 3.7 0 0 0 2.384.028c3.393-.707 6.781-1.489 10.2-2.066.036-.006.028-.066-.009-.064m-15.689-1.394a4.8 4.8 0 0 0-1.374-.587q-.793-.288-1.584-.583c-1.13-.42-2.254-.856-3.38-1.287-2.25-.862-4.49-1.748-6.71-2.683-.058-.025-.101.076-.044.101q3.212 1.416 6.458 2.751c1.117.457 2.244.888 3.372 1.317q.79.3 1.58.594a5.3 5.3 0 0 0 1.628.507c.06.002.107-.088.054-.13"/><path fill="currentColor" d="M396.303 211.614a1 1 0 0 0-.425-.185q-.296-.088-.59-.18-.61-.19-1.215-.395a57 57 0 0 1-2.361-.845c-.025-.01-.042.032-.018.043.76.323 1.524.642 2.3.923q.58.21 1.166.405.293.098.587.192a1.2 1.2 0 0 0 .54.106.038.038 0 0 0 .016-.064m-1.278-2.171c-3.374-1.466-6.811-2.759-10.296-3.938-.028-.01-.04.035-.012.045 3.46 1.227 6.887 2.557 10.292 3.93.021.01.037-.028.016-.037m4.431.159a32 32 0 0 0-3.925-1.437c-.04-.013-.057.05-.018.062 1.325.427 2.62.934 3.923 1.423.027.01.047-.036.02-.048m11.995 25.902a21 21 0 0 1-.371-3.834.044.044 0 0 0-.088 0 17.8 17.8 0 0 0 .168 3.842 9.8 9.8 0 0 0 1.126 3.656.041.041 0 0 0 .075-.031c-.22-1.227-.678-2.405-.91-3.633m3.056 4.83c-.312-.82-.6-1.65-.845-2.493a32.3 32.3 0 0 1-1.091-5.321c-.003-.022-.037-.023-.035 0a27 27 0 0 0 .868 5.295 26 26 0 0 0 .846 2.59 9.8 9.8 0 0 0 1.152 2.394c.024.032.082.015.07-.03a26 26 0 0 0-.965-2.435m2.24 1.143q-.218-.456-.419-.92-.397-.917-.709-1.869a25 25 0 0 1-.934-3.788c-.003-.02-.037-.015-.034.005a20.6 20.6 0 0 0 .839 3.889q.302.934.686 1.84.185.44.393.87a2.7 2.7 0 0 0 .478.82.032.032 0 0 0 .054-.03 3.2 3.2 0 0 0-.354-.817m1.302 2.676-.069-.137-.128-.254-.266-.528c-.013-.027-.053-.004-.04.023l.253.524.124.257.063.128a.4.4 0 0 0 .069.12c.014.012.041.005.04-.017a.3.3 0 0 0-.046-.116m1.603-.131q-.237-.375-.458-.759-.417-.721-.784-1.466a27 27 0 0 1-1.343-3.262.026.026 0 0 0-.05.014 19.6 19.6 0 0 0 1.2 3.233q.38.802.831 1.566a5.3 5.3 0 0 0 .943 1.382c.02.017.059.001.049-.029a3.4 3.4 0 0 0-.388-.68m1.46-.289a12 12 0 0 1-.707-1.269c-.011-.024-.046-.003-.035.02a12 12 0 0 0 .694 1.303 6.7 6.7 0 0 0 .853 1.157c.013.014.039-.005.027-.021-.272-.4-.57-.782-.832-1.19m2.08.53c-.004-.007-.014 0-.01.006l.085.17c.003.007.013.001.01-.006Zm15.781-17.087a17.7 17.7 0 0 0-2.084-3.012c-.045-.052-.117.022-.075.074a20 20 0 0 1 1.997 3.098c.567 1.048.993 2.212 1.657 3.203a.035.035 0 0 0 .064-.027 16.7 16.7 0 0 0-1.559-3.336m.161-1.651c-.013-.023-.048-.003-.036.02.353.69.704 1.38 1.101 2.046a.023.023 0 0 0 .04-.024c-.339-.697-.722-1.368-1.105-2.042m-14.836-30.555c-.032-.013-.045.038-.014.05a22 22 0 0 1 7.191 4.786c.013.014.034-.007.02-.02a19.75 19.75 0 0 0-7.197-4.816m3.936.318c-.006-.004-.012.006-.006.01a27 27 0 0 1 2.686 1.95c.833.687 1.602 1.438 2.372 2.194a.015.015 0 0 0 .02-.02 24 24 0 0 0-5.072-4.134m5.254 2.163a.015.015 0 0 0-.015.026 8.2 8.2 0 0 1 1.435 1.279c.015.017.045-.005.032-.025a4.4 4.4 0 0 0-1.452-1.28m-11.141-6.758a11.3 11.3 0 0 0-4.351-.594.03.03 0 0 0 0 .058c1.447.183 2.88.536 4.34.617.05.003.05-.065.01-.08m1.015-1.208a13 13 0 0 0-3.552-1.153 7.66 7.66 0 0 0-3.537.093c-.01.004-.006.019.005.017a10.2 10.2 0 0 1 3.657.183c1.147.248 2.256.686 3.405.913.03.007.053-.037.022-.053m1.303-1.275a12.4 12.4 0 0 0-4.244-1.731 19.3 19.3 0 0 0-4.553-.54.023.023 0 0 0 0 .046 21.5 21.5 0 0 1 4.563.755c1.45.401 2.791 1.045 4.207 1.534.04.014.058-.043.027-.065m1.346-1.566a5.7 5.7 0 0 0-1.503-.74q-.88-.366-1.786-.661a25 25 0 0 0-3.703-.892c-.015-.003-.022.02-.007.022a25 25 0 0 1 3.563.925q.895.306 1.763.68a11 11 0 0 0 1.639.725c.031.007.062-.035.034-.059m1.632-1.051a7 7 0 0 0-2.58-1.338c-.015-.004-.02.018-.006.023a9 9 0 0 1 1.346.591c.42.229.813.5 1.215.756.02.012.043-.017.025-.032m2.018-.812a6 6 0 0 0-1.442-.826q-.759-.344-1.544-.625c-.015-.005-.026.02-.011.027q.772.33 1.515.721a13 13 0 0 0 1.456.747.027.027 0 0 0 .026-.045m1.54-.793a4.4 4.4 0 0 0-.63-.354 42 42 0 0 0-.656-.31c-.023-.01-.044.022-.02.036q.317.186.637.366a4.4 4.4 0 0 0 .649.31c.03.011.043-.031.02-.048M333.917 172.6c-.964-12.728-18.017-19.302-18.742-19.576l-1.764 4.678c4.112 1.552 14.918 7.32 15.52 15.274.5 6.593-5.896 14.139-18.522 21.965l-5.052-5.785-6.644 20.422 20.589-4.457-5.563-6.368c14.027-8.85 20.823-17.633 20.178-26.154m79.312 22.681c-.033-.023-.063.03-.032.055 1.996 1.542 3.88 3.216 5.838 4.805.013.01.032-.007.02-.02a47 47 0 0 0-5.826-4.84m8.811 7.496-.703-.559q-.707-.553-1.383-1.146c-.02-.018-.05.011-.03.03q.645.638 1.31 1.256.329.302.673.587a2.1 2.1 0 0 0 .706.47.036.036 0 0 0 .04-.052 2.3 2.3 0 0 0-.614-.586m-4.141-1.563a.02.02 0 0 0-.027.027 27 27 0 0 0 1.844 1.922.025.025 0 0 0 .036-.036c-.567-.682-1.221-1.293-1.853-1.913m16.978 3.407a25 25 0 0 0-3.91-.345c-.664.007-1.329.06-1.99.06a8.6 8.6 0 0 0-1.91.432.018.018 0 0 0 .004.035 16 16 0 0 0 1.9.045 17 17 0 0 1 1.996-.138c1.293-.033 2.612-.099 3.904-.043.026.001.033-.042.006-.046m-9.201.484q-.125.015-.249.034c-.086.013-.175.015-.261.025a1 1 0 0 0-.25.054.7.7 0 0 0-.212.147.03.03 0 0 0 .021.05 1 1 0 0 0 .236-.036 2 2 0 0 0 .234-.105 1.4 1.4 0 0 1 .233-.101q.123-.033.25-.056c.006-.001.005-.012-.002-.012m4.799 1.434a43 43 0 0 0-3.397.141 10.6 10.6 0 0 0-1.552.181 2.6 2.6 0 0 0-1.432.621.061.061 0 0 0 .043.104 4.5 4.5 0 0 0 1.508-.29c.508-.13 1.008-.29 1.522-.39a25 25 0 0 1 3.308-.316.025.025 0 0 0 0-.05m-2.117 2.079a15 15 0 0 0-2.236.153q-.57.085-1.14.18-.285.048-.562.125a.7.7 0 0 0-.209.068 1.2 1.2 0 0 0-.177.204.07.07 0 0 0 .03.114 1.2 1.2 0 0 0 .255.079.8.8 0 0 0 .215-.05q.278-.076.552-.163a11 11 0 0 1 1.068-.287c.73-.156 1.468-.297 2.208-.396.015-.002.011-.027-.004-.027m-3.461 2.012a3.6 3.6 0 0 1-.635.15 3 3 0 0 0-.32.053c-.114.028-.262.063-.306.185l.055-.07a1 1 0 0 0-.095.08.06.06 0 0 0 .012.093.5.5 0 0 0 .111.044l-.052-.03c.085.095.27.056.377.026a1.6 1.6 0 0 0 .31-.133 6 6 0 0 0 .564-.348c.024-.016.01-.06-.02-.05m-33.799 33.479c-.032-.014-.06.031-.028.047a12.7 12.7 0 0 1 2.73 1.921.025.025 0 0 0 .036-.036 7.5 7.5 0 0 0-2.738-1.932m5.284 4.279q-.095-.101-.2-.193a2 2 0 0 0-.223-.156q-.12-.076-.247-.14a.012.012 0 0 0-.012.02q.116.079.223.166c.07.057.133.12.202.178q.101.084.195.177.098.097.198.193c.017.016.048-.005.034-.026a1.5 1.5 0 0 0-.17-.22m-30.401 14.693a14.2 14.2 0 0 0-2.317-1.899c-.69-.442-1.818-1.212-2.644-.706a.08.08 0 0 0 .019.142 5.5 5.5 0 0 0 1.052.218 3.9 3.9 0 0 1 1.235.444 13.3 13.3 0 0 1 1.945 1.416 16.6 16.6 0 0 1 3.116 3.52q.299.453.564.928.132.237.257.478.054.103.106.207l.074.15a11 11 0 0 1-.903-.93l-.996-1.014a37 37 0 0 0-3.397-3.14c-.315-.249-.625-.505-.936-.759a2.6 2.6 0 0 0-.845-.556c-.19-.048-.4-.032-.595-.078-.218-.051-.43-.129-.646-.187a8 8 0 0 0-1.12-.21c-.008-.001-.01.014-.001.015a7.3 7.3 0 0 1 1.311.35c.464.177.75.52 1.191.71a9 9 0 0 1 1.322.628 11 11 0 0 1 1.282.976c1.573 1.358 2.982 2.918 4.435 4.402.034.035.083-.01.064-.05a18 18 0 0 0-3.573-5.055m-31.598 10.904q-.345-.09-.694-.156a10 10 0 0 0-1.448-.158 12.3 12.3 0 0 0-2.938.246c-.022.005-.012.037.01.034a11 11 0 0 1 2.928-.062 14 14 0 0 1 1.467.253c.232.052.459.118.689.175a.66.66 0 0 0 .46.012.057.057 0 0 0 .02-.078.72.72 0 0 0-.494-.266m32.235-27.361a10.97 10.97 0 0 0-5.9-2.143c-.057-.006-.071.091-.014.1a22.4 22.4 0 0 1 5.862 2.11c.04.019.093-.033.052-.067m2.204.007a12.8 12.8 0 0 0-5.452-2.667.04.04 0 0 0-.021.075 24.7 24.7 0 0 1 5.433 2.645c.032.019.069-.026.04-.052m-18.645-.849a8.82 8.82 0 0 0-5.808-.537c-.019.004-.015.037.005.035a17.1 17.1 0 0 1 5.777.563c.036.007.06-.043.026-.061m-16.424 49.933a103 103 0 0 0-5.036-1.915c-.01-.004-.014.011-.005.015a103 103 0 0 0 5.032 1.934c.021.008.03-.025.009-.034m3.437-.785a5.6 5.6 0 0 0-1.57-.703q-.92-.34-1.843-.669c-1.23-.438-2.463-.867-3.692-1.308-.015-.005-.02.017-.007.023 1.194.486 2.384.98 3.575 1.472.584.241 1.172.474 1.759.71a5.8 5.8 0 0 0 1.74.568.055.055 0 0 0 .038-.093m2.577-1.445c-.116-.227-.336-.245-.572-.314-.327-.094-.658-.177-.987-.264-.69-.183-1.324-.496-1.999-.728a75 75 0 0 0-3.989-1.231.01.01 0 0 0-.005.019c1.297.438 2.59.89 3.883 1.339a21 21 0 0 1 2.065.707c.306.143.61.291.917.433.216.1.41.238.644.145a.074.074 0 0 0 .043-.106m2.085-1.225a1.4 1.4 0 0 0-.596-.32q-.402-.162-.807-.31-.758-.278-1.525-.529a39 39 0 0 0-3.224-.89.016.016 0 0 0-.008.03c1.052.311 2.093.66 3.125 1.03q.762.272 1.513.57.376.15.75.302a1.7 1.7 0 0 0 .728.224.063.063 0 0 0 .044-.107m2.368-1.11a5.3 5.3 0 0 0-1.086-.45q-.588-.21-1.184-.393a29 29 0 0 0-2.416-.622.01.01 0 0 0-.005.018c.784.228 1.564.477 2.338.738q.57.192 1.137.395a8 8 0 0 0 1.178.403.05.05 0 0 0 .038-.09m.847-1.381a13 13 0 0 0-2.041-.517.012.012 0 0 0-.007.023 13 13 0 0 0 2.036.535.022.022 0 0 0 .012-.041m.768-1.195c-.017-.006-.024.02-.007.026l.255.084c.015.005.02-.018.007-.023Zm3.484-2.538c-.015-.003-.021.019-.007.022.623.149 1.244.305 1.876.411.02.004.028-.025.008-.03-.619-.165-1.249-.28-1.877-.403m4.423-1.092a14 14 0 0 0-2.365-.62c-.797-.18-1.597-.342-2.397-.507a.022.022 0 0 0-.011.042c.801.218 1.602.439 2.408.641a14 14 0 0 0 2.356.505c.039.003.038-.049.009-.061m2.651-1.298a5.8 5.8 0 0 0-1.353-.423 58 58 0 0 0-1.55-.342c-1.018-.213-2.041-.402-3.064-.595a.012.012 0 0 0-.006.022c1 .275 2 .553 3.005.808q.74.188 1.484.36a6 6 0 0 0 1.468.228.031.031 0 0 0 .016-.058m1.777-1.271a42 42 0 0 0-4.84-1.314.018.018 0 0 0-.01.034 42 42 0 0 0 4.836 1.333.027.027 0 0 0 .014-.053m1.71-1.282a4 4 0 0 0-.668-.232q-.334-.102-.67-.2-.7-.198-1.4-.392a.01.01 0 0 0-.004.019q.69.231 1.38.458.334.107.668.21a4 4 0 0 0 .683.18c.023.004.031-.033.011-.043m.766-1.046c-.042-.008-.06.055-.018.064a9 9 0 0 0 1.023.188c.016.002.017-.022.003-.027a9 9 0 0 0-1.008-.225m3.302-.686a2 2 0 0 0-.213-.061c-.149-.038-.303-.061-.453-.09a.057.057 0 0 0-.03.108c.146.046.292.099.44.136a2 2 0 0 0 .22.048.7.7 0 0 0 .225.015.037.037 0 0 0 .017-.062.7.7 0 0 0-.206-.094M304.2 308.682a.025.025 0 0 0-.013.05c.81.248 1.623.5 2.408.824a13 13 0 0 1 2.264 1.239c.016.01.036-.014.021-.028a11.3 11.3 0 0 0-4.68-2.085m6.879.792a4.7 4.7 0 0 0-1.499-1.017 14 14 0 0 0-1.688-.714 18 18 0 0 0-3.602-.836c-.018-.002-.021.027-.004.03a17.3 17.3 0 0 1 3.542 1.11c.547.236 1.08.498 1.608.774a9 9 0 0 0 1.572.773.073.073 0 0 0 .07-.12m2.831-1.114a2.2 2.2 0 0 0-.767-.453c-.377-.166-.762-.316-1.141-.478-.633-.272-1.228-.62-1.851-.912a11.5 11.5 0 0 0-3.824-1.052c-.008 0-.01.014-.002.015a17.2 17.2 0 0 1 3.908 1.193 14 14 0 0 1 1.981.935 4.8 4.8 0 0 0 1.66.838c.046.006.063-.057.036-.086m2.596-1.423a10 10 0 0 0-1.42-.9 21 21 0 0 0-1.59-.81 22 22 0 0 0-3.255-1.18.006.006 0 0 0-.003.01 22 22 0 0 1 3.27 1.257q.757.359 1.484.772c.501.285.973.623 1.478.897.028.015.063-.024.036-.046m1.723-2.136a4.7 4.7 0 0 0-1.33-.79q-.651-.321-1.33-.582a20 20 0 0 0-3.015-.883.016.016 0 0 0-.009.03 19.4 19.4 0 0 1 2.94 1.05q.695.314 1.368.666a7.5 7.5 0 0 0 1.283.67.096.096 0 0 0 .093-.16m.922-2.208a17 17 0 0 0-1.157-.597 18 18 0 0 0-2.38-.888c-.024-.007-.033.03-.01.038a23 23 0 0 1 2.319 1.051c.362.186.722.376 1.074.58q.264.153.524.313a1.6 1.6 0 0 0 .528.257c.048.01.104-.043.07-.092a2.8 2.8 0 0 0-.968-.662m2.914-.971a2.1 2.1 0 0 0-.752-.365l-.89-.335q-.875-.329-1.748-.66c-.027-.01-.046.034-.02.046q.851.385 1.7.775l.835.382q.195.088.392.167a1.1 1.1 0 0 0 .428.123.079.079 0 0 0 .055-.133m1.342-1.705a2 2 0 0 0-.24-.124c-.167-.079-.34-.145-.512-.212-.353-.137-.717-.243-1.072-.373-.021-.007-.035.026-.015.036.336.174.661.372 1.002.539.166.081.332.163.503.233a2 2 0 0 0 .253.092c.074.018.157.054.226.013a.04.04 0 0 0 .02-.047c-.017-.078-.103-.116-.165-.157m2.021-1.208a2 2 0 0 0-.34-.216 4 4 0 0 0-.39-.178c-.265-.102-.548-.137-.818-.222-.047-.015-.08.06-.034.082.254.121.486.281.746.393a3 3 0 0 0 .406.139 2 2 0 0 0 .208.044 2 2 0 0 0 .192.03.043.043 0 0 0 .03-.073m2.579-1.159-.068-.058a.6.6 0 0 0-.154-.089.9.9 0 0 0-.342-.063.023.023 0 0 0 0 .047.8.8 0 0 1 .308.095q.07.036.136.077a1 1 0 0 0 .136.091.024.024 0 0 0 .032-.032.2.2 0 0 0-.048-.067m-27.604 4.564a2.6 2.6 0 0 0-.963-.428c-.375-.14-.75-.282-1.127-.414a118 118 0 0 0-2.27-.765c-.009-.003-.015.01-.006.014q1.07.455 2.15.888c.372.149.747.288 1.122.43l.562.213a1.2 1.2 0 0 0 .507.122.036.036 0 0 0 .025-.06m-1.4-2.21c-.39-.116-.784-.217-1.176-.325a.01.01 0 0 0-.005.019c.379.126.757.259 1.138.378a10 10 0 0 0 1.154.322c.014.003.025-.018.01-.025a10 10 0 0 0-1.12-.37m1.364-1.173c-.064-.023-.13-.041-.196-.062l-.384-.123c-.022-.007-.03.027-.01.034l.382.133.187.065q.099.028.2.052a.012.012 0 0 0 .005-.023c-.06-.025-.122-.053-.184-.076m76.702-26.554a6.4 6.4 0 0 0-1.682-.452q-.863-.148-1.734-.248c-.035-.004-.042.054-.008.062q.859.199 1.717.404a8 8 0 0 0 1.691.292c.03 0 .045-.045.016-.058m3.418-1.323a15.2 15.2 0 0 0-3.467-1.145q-1.838-.447-3.708-.75c-.012-.001-.017.017-.005.02q1.813.384 3.594.903c1.18.345 2.352.798 3.56 1.033.035.007.061-.042.026-.06m2.533-1.683c-.144-.23-.388-.263-.645-.318-.343-.074-.685-.134-1.023-.23a56 56 0 0 0-1.888-.505 34 34 0 0 0-3.853-.71c-.013-.002-.016.02-.003.022 1.269.28 2.537.585 3.797.904q.947.239 1.885.514a9 9 0 0 1 .918.347.98.98 0 0 0 .744.142.115.115 0 0 0 .068-.166m2.636-1.756c-.275-.425-.96-.369-1.399-.457q-.899-.18-1.78-.43a20 20 0 0 0-3.624-.852c-.015-.002-.015.018-.004.023a19.5 19.5 0 0 0 3.544.879q.875.17 1.732.409a4 4 0 0 1 .862.344 1.04 1.04 0 0 0 .615.178.063.063 0 0 0 .054-.094m3.119-1.787a1.2 1.2 0 0 0-.636-.164 5.6 5.6 0 0 1-.913-.108 13 13 0 0 1-1.47-.443 22 22 0 0 0-3.073-.845c-.032-.007-.059.042-.024.057a14.4 14.4 0 0 0 3.055.94c.542.103 1.085.205 1.616.359.458.133.923.496 1.416.425.112-.016.105-.17.029-.221m2.679-2.159a.75.75 0 0 0-.543-.168 5 5 0 0 1-.75-.013 12 12 0 0 1-1.483-.32c-.46-.121-.917-.247-1.385-.331a1.34 1.34 0 0 0-1.066.058.014.014 0 0 0 .01.025 1.5 1.5 0 0 1 .69.096q.298.074.598.127c.44.078.886.121 1.329.183a11 11 0 0 1 1.345.25c.371.1.802.45 1.197.311a.132.132 0 0 0 .058-.219m4.633-2.06a.57.57 0 0 0-.452-.102 4.4 4.4 0 0 1-.704.03 8.6 8.6 0 0 1-1.431-.24c-.44-.11-.872-.246-1.316-.337-.465-.095-.936-.151-1.405-.22a.04.04 0 0 0-.02.075 9 9 0 0 0 1.34.456 9 9 0 0 0 1.331.17q.702.053 1.4.138a7 7 0 0 1 .772.17.57.57 0 0 0 .47-.03.07.07 0 0 0 .015-.11m1.569-1.569a5.3 5.3 0 0 0-.884-.212l-.897-.16c-.015-.002-.021.02-.007.023q.449.115.898.227a5 5 0 0 0 .884.168c.028.002.03-.038.006-.046m13.192-5.848a3 3 0 0 0-.897-.36 16 16 0 0 0-.922-.24c-.64-.154-1.283-.304-1.921-.468a.012.012 0 0 0-.007.023c.628.205 1.25.424 1.874.64.3.104.602.208.907.293a3 3 0 0 0 .948.177.035.035 0 0 0 .018-.065m1.458-1.726a10 10 0 0 0-1.5-.522c-.502-.152-1.002-.307-1.505-.455-1.043-.308-2.088-.607-3.132-.91-.027-.009-.037.031-.011.04 1.024.372 2.051.735 3.086 1.077q.748.244 1.5.473a9.3 9.3 0 0 0 1.535.395c.052.007.072-.076.027-.098m.851-2.058a13.5 13.5 0 0 0-2.545-.88c-.886-.272-1.779-.524-2.668-.783-.035-.01-.048.041-.015.052.877.307 1.751.622 2.632.915a13.5 13.5 0 0 0 2.578.761c.036.004.047-.05.018-.065m1.446-1.688a8.3 8.3 0 0 0-1.543-.47c-.537-.138-1.075-.26-1.606-.421-.044-.014-.06.052-.02.067.52.195 1.038.403 1.568.566a5.5 5.5 0 0 0 1.581.331c.037 0 .056-.055.02-.073m-29.499-17.456c-.004-.03-.057-.023-.053.007a38 38 0 0 1 .114 4.261c0 .024.039.03.042.006a15 15 0 0 0-.103-4.274m-3.749 7.67a.012.012 0 0 0-.023 0c-.024 1.287-.188 2.56-.34 3.836-.002.024.038.03.043.006a15.2 15.2 0 0 0 .32-3.842m-2.44 2.122-.214.85c-.07.284-.122.574-.181.86a.016.016 0 0 0 .03.008c.079-.28.166-.56.233-.845l.2-.854c.01-.044-.057-.063-.068-.02m-16.242 10.049c-.094 1.016-.21 2.04-.215 3.061 0 .026.036.024.04 0 .133-1.012.158-2.041.203-3.06 0-.019-.026-.018-.028 0m-1.729.593a47 47 0 0 0-.308 5.535c0 .031.052.042.057.008a47 47 0 0 0 .274-5.543c0-.015-.022-.015-.023 0m-1.816 1.785a34 34 0 0 0-.21 1.915 9.7 9.7 0 0 0 .002 1.919c.004.033.059.05.065.008a15 15 0 0 0 .122-1.89c.018-.65.024-1.302.049-1.952 0-.018-.025-.017-.028 0m-2.006 2.124a60 60 0 0 0-.346 2.559c-.002.017.028.021.03.004.152-.845.269-1.694.384-2.545.006-.044-.061-.063-.068-.018m1.836-37.955c-.792-.646-1.684-1.152-2.455-1.829a11.7 11.7 0 0 1-2.104-2.324.016.016 0 0 0-.027.016 10.5 10.5 0 0 0 1.873 2.567 6.15 6.15 0 0 0 2.647 1.684c.06.015.122-.069.066-.114m2.869.318a8 8 0 0 0-1.373-.987 32 32 0 0 1-1.478-1.046 27 27 0 0 1-2.775-2.36c-.02-.02-.048.01-.03.03a24 24 0 0 0 2.624 2.565c.45.374.92.724 1.4 1.06a5.3 5.3 0 0 0 1.56.863.075.075 0 0 0 .072-.124m2.43-.071a1.1 1.1 0 0 0-.6-.465 7 7 0 0 1-.737-.39 9 9 0 0 1-1.37-1.142 13.8 13.8 0 0 0-2.697-2.037c-.014-.007-.024.012-.012.02.933.71 1.736 1.576 2.67 2.283.475.36.94.726 1.39 1.116.348.303.79.846 1.297.762a.1.1 0 0 0 .06-.146m2.079-.089c-.497-.368-1-.727-1.502-1.09a15 15 0 0 0-1.787-1.153.012.012 0 0 0-.014.018 25 25 0 0 0 2.906 2.283c.122.09.243.182.369.266.071.048.172.124.259.064.182-.126-.147-.326-.231-.388m2.496-.098a6 6 0 0 0-1.486-.849q-.802-.371-1.606-.74c-.027-.013-.05.024-.024.04l1.52.889a6 6 0 0 0 1.552.735c.042.01.08-.044.044-.075m.402-.593c-.033-.012-.056.043-.024.057a11 11 0 0 0 1.286.507.02.02 0 0 0 .015-.036 11 11 0 0 0-1.277-.528m4.595 1.046a3 3 0 0 0-.311-.166 4 4 0 0 0-.31-.142c-.213-.09-.438-.156-.657-.23-.066-.023-.113.085-.048.114.21.095.419.201.635.28q.161.06.325.107a3 3 0 0 0 .343.091.03.03 0 0 0 .023-.054m-18.01-15.303c-1.725-1.125-3.502-2.178-5.151-3.416-.016-.012-.036.014-.022.028a18.3 18.3 0 0 0 5.145 3.456c.04.016.062-.047.029-.068m-3.251-5.4q-.525-.447-1.027-.918a5.3 5.3 0 0 0-1.113-.84.194.194 0 0 0-.234.304 5.3 5.3 0 0 0 1.142.802q.606.335 1.197.698c.027.017.06-.024.035-.046m5.025 2.719a2.8 2.8 0 0 0-.71-.51q-.375-.213-.761-.407a31 31 0 0 0-1.619-.756c-.009-.004-.017.01-.007.014a18 18 0 0 1 1.57.838q.37.223.733.455a3.5 3.5 0 0 0 .763.418c.032.01.05-.03.03-.052m-1.178-3.805q-.513-.314-1.037-.613-1.073-.617-2.114-1.288a16 16 0 0 1-1.956-1.535c-.312-.277-.631-.547-.938-.83-.195-.181-.482-.55-.775-.52a.05.05 0 0 0-.047.037c-.05.277.244.525.424.704a9 9 0 0 0 .9.766 25 25 0 0 0 2.136 1.314c.706.426 1.416.849 2.109 1.296.356.23.706.47 1.054.711a4.1 4.1 0 0 0 1.025.643c.03.01.065-.03.044-.057a2.8 2.8 0 0 0-.825-.628m-.149-3.148a5 5 0 0 0-.845-.532 42 42 0 0 1-.97-.583 28 28 0 0 1-1.941-1.305c-.622-.465-1.205-.976-1.824-1.443q-.434-.329-.885-.632c-.336-.227-.706-.367-1.054-.566a.014.014 0 0 0-.017.021c.268.265.488.562.78.806.285.237.587.456.89.667.637.443 1.325.813 1.989 1.214.646.39 1.277.803 1.913 1.21l1.013.652a4.7 4.7 0 0 0 .924.537.028.028 0 0 0 .027-.045m-6.203-7.726a2 2 0 0 0-.177-.214c-.059-.065-.111-.137-.174-.199a3 3 0 0 0-.21-.181 2.2 2.2 0 0 0-.47-.288 1 1 0 0 0-.277-.088 1 1 0 0 1-.263-.04c-.02-.008-.038.02-.018.031a.8.8 0 0 1 .165.188 1 1 0 0 0 .18.184 5.5 5.5 0 0 0 .872.6c.074.044.143.1.219.14.08.044.149.106.229.149a.055.055 0 0 0 .075-.075c-.042-.075-.104-.137-.15-.207m3.068 2.059a.4.4 0 0 0-.038-.045.5.5 0 0 0-.118-.064c-.073-.028-.148-.05-.221-.077a9 9 0 0 1-.465-.184c-.018-.007-.033.017-.015.027a8 8 0 0 1 .593.362.32.32 0 0 0 .224.076h-.033a.3.3 0 0 0 .088.006.04.04 0 0 0 .023-.057.2.2 0 0 0-.038-.044m-5.084-6.534c-.017-.006-.028.02-.012.029a11.3 11.3 0 0 1 1.917 1.32.021.021 0 0 0 .03-.03 4.5 4.5 0 0 0-1.935-1.319m1.338-2.958a2 2 0 0 0-.25-.213 2 2 0 0 0-.591-.286c-.019-.005-.032.025-.014.033a3.2 3.2 0 0 1 1.025.744c.015.017.043-.005.03-.023a2 2 0 0 0-.2-.255m3.751-12.205c-.186-.631-.382-1.259-.578-1.887-.384-1.234-.803-2.456-1.189-3.69a.014.014 0 0 0-.026.008c.321 1.25.607 2.51.93 3.76.158.614.315 1.227.482 1.838a6.7 6.7 0 0 0 .626 1.739.063.063 0 0 0 .116-.032 6.4 6.4 0 0 0-.361-1.736m1.38.623c-.124-.336-.258-.668-.39-1.001-.252-.634-.532-1.255-.802-1.881-.006-.012-.026-.004-.022.009.232.648.438 1.304.657 1.956q.163.491.323.982a3.3 3.3 0 0 0 .399.894c.02.028.07.021.069-.018a3 3 0 0 0-.234-.94m1.04-1.615c-.005-.01-.022-.003-.018.007a18.5 18.5 0 0 0 1.089 2.48.025.025 0 0 0 .046-.019 18.5 18.5 0 0 0-1.117-2.468m7.605-27.843q-.33-.372-.65-.753a53 53 0 0 1-1.257-1.54c-.01-.012-.03.004-.021.017a28 28 0 0 0 1.197 1.564q.318.383.646.757a5 5 0 0 0 .672.703c.017.013.04-.013.03-.03a6 6 0 0 0-.617-.718m.964-.873q-.398-.468-.8-.933l-1.578-1.836c-.018-.021-.048.01-.03.03l1.53 1.833q.371.445.744.888a9 9 0 0 0 .812.92c.016.014.043-.005.031-.024a8 8 0 0 0-.71-.878m-15.619 13.114c-.022-.894-.058-1.787-.088-2.681a.041.041 0 0 0-.082 0 25 25 0 0 0 .102 5.372c.008.05.082.034.084-.011.05-.89.006-1.79-.016-2.68m-1.988-3.362c-.067-1.334-.149-2.667-.23-4-.003-.045-.071-.046-.07 0 .031 1.333.062 2.667.107 4 .046 1.334.062 2.675.234 4a.031.031 0 0 0 .062 0c.061-1.333-.036-2.67-.103-4m-1.812-2.979a37 37 0 0 0-.262-5.028c-.002-.013-.023-.01-.023.004-.042 1.673.052 3.35.036 5.024-.017 1.669-.156 3.358-.07 5.024.002.035.059.048.066.01a28 28 0 0 0 .253-5.034m-1.982-8.68a.018.018 0 0 0-.035 0q-.22 2.954-.319 5.915c-.069 1.97-.168 3.945-.056 5.915a.041.041 0 0 0 .082 0c.228-1.962.247-3.942.296-5.915q.072-2.957.032-5.915m-1.835-2.807a.016.016 0 0 0-.03 0c-.122 2.025-.222 4.051-.334 6.077-.057 1.016.04 2.027-.06 3.037-.047.468-.116.933-.167 1.4a3.4 3.4 0 0 0-.016 1.414c.012.037.07.052.09.012a6.4 6.4 0 0 0 .163-2.593c-.002-1.059.21-2.093.25-3.153a137 137 0 0 0 .105-6.194m-2.705-2.386a.03.03 0 0 0-.058 0c-.105 1.94-.349 3.897-.359 5.839-.002.482.094.944.078 1.432q-.023.716-.062 1.432-.038.716-.086 1.432a2.16 2.16 0 0 0 .054 1.121.04.04 0 0 0 .068 0 2.15 2.15 0 0 0 .126-1.121q-.001-.661.008-1.322.007-.771.033-1.542c.016-.489.144-.95.172-1.432.11-1.936.003-3.9.026-5.838m-2.406-3.313c-.203 2.122-.3 4.276-.61 6.385a7.5 7.5 0 0 0 .027 1.246c.01.555-.037 1.117-.082 1.67a29 29 0 0 1-.188 1.63 3.6 3.6 0 0 0-.076 1.269c.032.148.231.123.275 0a4.3 4.3 0 0 0 .084-1.469c-.003-.477.004-.954.029-1.43.03-.589.067-1.18.151-1.763a8 8 0 0 0 .17-1.338c-.026-2.06.164-4.141.239-6.2 0-.013-.019-.013-.02 0m-2.403-2.558c-.343 1.878-.558 3.776-.762 5.672-.055.508.057.993.014 1.504q-.058.694-.139 1.388c-.062.53-.136 1.059-.212 1.587l-.1.685a7 7 0 0 0-.03.742l-.012-.004a.08.08 0 0 0-.087.035.156.156 0 0 0-.005.194.135.135 0 0 0 .15.06l.083-.02a.17.17 0 0 0 .121-.122 14.6 14.6 0 0 0 .183-2.695 51 51 0 0 1 .131-1.503c.052-.526.218-.997.313-1.504a27 27 0 0 0 .246-3.007 52 52 0 0 0 .137-3.007c0-.017-.028-.022-.03-.004m-2.907-2.893a39.4 39.4 0 0 0-.707 6.04c-.083 1.104-.265 2.18-.445 3.271a8.2 8.2 0 0 0-.234 2.792.1.1 0 0 0 .182.024 7.8 7.8 0 0 0 .364-2.654c.062-1.146.111-2.275.272-3.414a39.5 39.5 0 0 0 .603-6.055.018.018 0 0 0-.034-.004m-2.806-2.977c-.264 1.12-.422 2.266-.59 3.404a25 25 0 0 0-.345 2.982 27 27 0 0 1-.452 3.423 28 28 0 0 0-.498 3.204.106.106 0 0 0 .207.028 28 28 0 0 0 .39-3.219 26 26 0 0 1 .494-3.417 25 25 0 0 0 .477-2.964c.147-1.14.306-2.286.356-3.436a.02.02 0 0 0-.039-.005m-2.937-4.176c-.36 2.223-.663 4.452-.97 6.683-.083.612-.057 1.124-.093 1.733-.039.66-.15 1.317-.243 1.971a18.4 18.4 0 0 0-.398 3.228.055.055 0 0 0 .107.015 19 19 0 0 0 .358-3.234c.062-.654.104-1.327.228-1.973.102-.526.247-.957.301-1.492.234-2.31.519-4.615.744-6.927.002-.02-.031-.024-.034-.004m-3.136 1.095a302 302 0 0 0-.706 4.715q-.156 1.101-.29 2.204a18 18 0 0 0-.262 2.367.024.024 0 0 0 .046.007 18.5 18.5 0 0 0 .353-2.355q.156-1.1.298-2.203c.206-1.575.401-3.152.604-4.728.003-.024-.039-.03-.043-.006m-2.382-4.137q-.32 1.33-.627 2.664a8.8 8.8 0 0 0-.384 2.35 13 13 0 0 1-.323 2.7 15 15 0 0 0-.334 2.347.03.03 0 0 0 .054.015 4.9 4.9 0 0 0 .386-2.15 10 10 0 0 1 .429-2.854 8.8 8.8 0 0 0 .382-2.183q.186-1.448.443-2.882c.003-.017-.022-.024-.026-.007m-3.217-3.864q-.402 2.78-.786 5.56c-.116.853-.222 1.706-.328 2.56a6.7 6.7 0 0 0-.074 2.558c.015.054.105.06.117 0 .147-.8.123-1.646.22-2.457.107-.91.222-1.82.323-2.732.202-1.827.391-3.654.578-5.482.003-.028-.046-.035-.05-.007m-2.157-2.37q-.437 2.47-.769 4.957c-.113.86-.211 1.721-.305 2.584a21 21 0 0 0-.26 2.588c.002.075.119.096.135.018.163-.782.16-1.613.247-2.407.091-.83.194-1.657.293-2.486q.314-2.626.689-5.246c.002-.02-.027-.029-.03-.009m-3.062-2.557c-.21 1.736-.477 3.463-.732 5.193a20 20 0 0 0-.286 2.315 8 8 0 0 1-.215 1.398 2.5 2.5 0 0 0-.128.971.032.032 0 0 0 .057.008 2.5 2.5 0 0 0 .214-.96 11 11 0 0 1 .283-1.483 16 16 0 0 0 .391-2.303c.22-1.706.354-3.423.467-5.14.002-.032-.047-.03-.05 0m-1.595-6.547c-.343 2.355-.766 4.696-1.125 7.048-.077.502.024 1.011-.029 1.523-.068.65-.18 1.297-.289 1.942a16.6 16.6 0 0 0-.474 3.44.069.069 0 0 0 .134.018 16.6 16.6 0 0 0 .452-3.443c.065-.651.127-1.304.234-1.95.084-.507.316-.97.374-1.475.276-2.363.486-4.734.777-7.096.004-.03-.05-.037-.054-.007m-2.835-3.992-.583 4.163c-.097.694-.19 1.388-.291 2.081-.043.297-.14.603-.16.902-.024.367.037.737.012 1.108-.099 1.476-.322 2.952-.536 4.414l-.303 2.078a5.6 5.6 0 0 0-.14 1.776.065.065 0 0 0 .117.015 5.2 5.2 0 0 0 .268-1.633l.19-2.093c.137-1.514.264-3.042.52-4.541.055-.328.161-.631.235-.952a6 6 0 0 0 .078-.91c.054-.7.135-1.397.203-2.094l.417-4.31c.001-.015-.025-.02-.027-.004m-3.065-3.496q-.196 2.25-.502 4.491c-.099.721-.209 1.44-.318 2.16-.044.29-.105.58-.136.87-.041.385-.021.773-.069 1.162-.003.024.037.03.043.006.087-.382.24-.748.317-1.128.067-.329.103-.666.151-.998a54 54 0 0 0 .257-2.124c.154-1.476.253-2.956.311-4.44.002-.035-.051-.034-.054 0m-1.297 10.373-.288 2.72a17.5 17.5 0 0 1-.377 2.656c-.01.035.04.046.052.014a8.5 8.5 0 0 0 .389-2.563q.117-1.413.232-2.827c0-.005-.008-.005-.008 0m-2.185-12.858q-.377 2.538-.763 5.074l-.377 2.488a5.9 5.9 0 0 0-.195 2.27.057.057 0 0 0 .104.013 5.6 5.6 0 0 0 .402-2.144l.307-2.595q.3-2.547.607-5.094c.005-.048-.078-.06-.085-.012M298.3 95.925a17 17 0 0 1-.163 1.705q-.06.403-.13.805a1.8 1.8 0 0 0-.08.74.03.03 0 0 0 .048.014 1.6 1.6 0 0 0 .199-.74q.062-.4.1-.8.08-.861.088-1.724a.031.031 0 0 0-.062 0m-1.184-17.782c-.238 1.542-.475 3.085-.72 4.626-.13.811-.265 1.622-.386 2.434-.107.718-.13 1.419-.202 2.138-.157 1.557-.38 3.107-.589 4.658l-.312 2.329a11.8 11.8 0 0 0-.249 2.452.047.047 0 0 0 .092.012 10 10 0 0 0 .345-2.096l.294-2.33c.21-1.665.402-3.334.667-4.992.114-.713.272-1.396.352-2.117.087-.776.16-1.553.239-2.33.16-1.594.331-3.187.5-4.78.002-.017-.028-.022-.03-.004m-3.828 2.443c-.003-.02-.037-.015-.035.005a7.4 7.4 0 0 1-.254 1.873l-.288 1.711-.288 1.711c-.047.274-.087.549-.14.82a1.7 1.7 0 0 0-.065.316c.002.182.06.364.058.55a.03.03 0 0 0 .058.008c.051-.174.148-.326.208-.492a1.5 1.5 0 0 0 .038-.34c.029-.277.07-.551.105-.826l.24-1.858.233-1.789a6 6 0 0 0 .13-1.689m-1.308 8.857q-.188.838-.35 1.681-.08.413-.146.83a4.4 4.4 0 0 0-.086.821.04.04 0 0 0 .077.01 5 5 0 0 0 .154-.825l.123-.836q.124-.836.277-1.667c.006-.032-.042-.046-.049-.014m-1.722-12.838c-.38 2.186-.762 4.371-1.107 6.562l-.498 3.17a20.5 20.5 0 0 0-.41 3.202.033.033 0 0 0 .066.01 20 20 0 0 0 .57-3.15l.5-3.296c.324-2.16.613-4.326.905-6.49.003-.017-.023-.025-.026-.008m-3.188-4.518q-.39 1.958-.778 3.917-.19.96-.376 1.922c-.061.32-.126.64-.184.961a2 2 0 0 0-.058.807.083.083 0 0 0 .15.02 2.3 2.3 0 0 0 .223-.896l.135-.897q.147-.972.3-1.942.307-1.941.648-3.876c.007-.039-.052-.056-.06-.016m-1.615 9.023q-.236 1.196-.521 2.38c-.092.381-.189.76-.28 1.141a6.3 6.3 0 0 0-.224 1.165.03.03 0 0 0 .055.015 5.2 5.2 0 0 0 .347-1.13c.09-.383.167-.767.24-1.152q.23-1.201.41-2.412c.002-.017-.024-.025-.027-.007m-2.615-9.868c-.724 3.275-1.567 6.546-2.047 9.87-.007.048.062.07.076.02.87-3.243 1.383-6.584 2.009-9.88.005-.025-.032-.035-.038-.01m-3.193-2.561c-.511 2.984-1.262 5.906-1.906 8.861a.031.031 0 0 0 .06.017 55.4 55.4 0 0 0 1.873-8.87c.002-.017-.024-.025-.027-.008m-2.867-7.996a63.8 63.8 0 0 0-3.178 13.705c-.004.037.059.046.065.009a122 122 0 0 1 3.159-13.702c.008-.029-.036-.04-.046-.012m-2.438-5.011a77 77 0 0 0-4.127 14.964c-.007.046.06.068.071.02 1.216-5.046 2.392-10.061 4.101-14.971.01-.03-.035-.04-.045-.013m-2.326-4.775q-1.758 4.735-3.326 9.537c-1.041 3.195-2.086 6.408-2.827 9.689a.053.053 0 0 0 .102.028c1.067-3.191 1.951-6.442 2.954-9.655q1.502-4.815 3.16-9.582c.015-.04-.049-.057-.063-.017m-2.947-3.994a85.5 85.5 0 0 0-6.836 19.908.053.053 0 0 0 .102.028 162 162 0 0 1 6.784-19.907c.014-.034-.035-.064-.05-.03m-3.445-4.187c-3.228 7.124-6.136 14.614-7.597 22.321a.037.037 0 0 0 .072.02c1.131-3.726 2.16-7.483 3.387-11.18a143 143 0 0 1 4.185-11.134c.013-.032-.033-.06-.047-.027m-2.316-5.16c-1.875 3.896-3.64 7.859-5.153 11.91-.178.48-.39.96-.533 1.45-.156.531-.23 1.081-.393 1.613-.326 1.06-.69 2.108-1.047 3.157q-.537 1.575-1.043 3.16a20.4 20.4 0 0 0-.9 3.202c-.006.036.046.068.063.028a24 24 0 0 0 .913-2.962q.464-1.597.957-3.185c.306-.983.628-1.962.986-2.928.39-1.054.902-2.028 1.288-3.086 1.52-4.158 3.114-8.285 4.896-12.34.01-.022-.023-.042-.034-.02m-4.62-.35a213 213 0 0 0-4.468 9.922q-1.07 2.564-2.062 5.158-.473 1.24-.93 2.486a15 15 0 0 0-.86 2.759c-.016.1.118.175.175.073a15.6 15.6 0 0 0 .97-2.379c.316-.869.629-1.74.95-2.606q.945-2.542 1.935-5.069a239 239 0 0 1 4.313-10.33c.007-.016-.016-.03-.023-.014m-2.534-3.948q-2.545 4.591-4.741 9.358a62 62 0 0 0-3.795 9.572c-.015.058.072.1.1.042 1.521-3.095 2.679-6.377 4.064-9.536q2.088-4.76 4.4-9.42c.008-.018-.018-.034-.028-.016m-3.532-1.388a117 117 0 0 0-4.679 8.773 71.5 71.5 0 0 0-3.745 8.984c-.01.033.042.056.057.024 1.376-2.97 2.596-6.007 3.981-8.973q2.081-4.457 4.406-8.796a.012.012 0 0 0-.02-.011m-2.734-2.427a62 62 0 0 0-6.387 12.347c-.012.033.04.055.057.024 2.166-4.094 4.18-8.264 6.374-12.345a.025.025 0 0 0-.044-.026m-2.164-2.406a52 52 0 0 0-4.176 7.11.025.025 0 0 0 .044.026c1.424-2.352 2.724-4.775 4.179-7.109.019-.03-.028-.056-.047-.027m-1.813-4.558c-.822 1.34-1.625 2.697-2.346 4.095a21 21 0 0 0-1.796 4.229.063.063 0 0 0 .114.048c.754-1.348 1.308-2.804 1.962-4.202.658-1.406 1.343-2.796 2.107-4.147a.023.023 0 0 0-.04-.024m-2.284-3.563a25 25 0 0 0-1.79 2.873q-.387.738-.72 1.502a5.1 5.1 0 0 0-.476 1.472c-.005.047.058.052.08.022a7.6 7.6 0 0 0 .711-1.434q.336-.762.702-1.512c.478-.981.982-1.958 1.534-2.9.015-.026-.024-.047-.041-.023m-2.114-2.259c-.147.205-.328.388-.483.587a8 8 0 0 0-.414.6 5 5 0 0 0-.353.65 1.7 1.7 0 0 0-.197.666.06.06 0 0 0 .1.042 2 2 0 0 0 .422-.572q.18-.309.344-.627c.11-.213.224-.423.33-.637a7 7 0 0 1 .338-.657c.036-.056-.05-.104-.087-.052M289.45 3.235a125 125 0 0 1-1.519 5.894 26 26 0 0 0-.833 2.867 24 24 0 0 1-.731 3.019c-1.176 3.89-2.585 7.69-3.947 11.517-.01.03.034.04.045.013a114 114 0 0 0 3.993-11.505 43 43 0 0 1 1.028-3.006 20 20 0 0 0 .667-2.72 236 236 0 0 0 1.331-6.07c.005-.021-.028-.03-.034-.009M287.721.248a456 456 0 0 1-1.659 5.322q-.413 1.304-.85 2.6c-.145.432-.297.863-.444 1.294a11 11 0 0 0-.277 1.45c-.008.038.05.07.068.028a11 11 0 0 0 .555-1.164c.144-.468.263-.946.396-1.417q.37-1.316.747-2.628a369 369 0 0 0 1.517-5.47.027.027 0 0 0-.053-.015m-4.493 15.012c-1.05 2.889-2.277 5.732-3.206 8.662-.01.031.04.053.054.023 1.267-2.798 2.188-5.774 3.19-8.674.008-.024-.03-.034-.038-.01m-.568-8.446c-.93 2.321-1.94 4.611-2.93 6.907-.934 2.162-1.97 4.297-2.702 6.537a.047.047 0 0 0 .086.036 49.6 49.6 0 0 0 2.983-6.55c.925-2.285 1.763-4.602 2.619-6.914.013-.036-.043-.05-.057-.016m-4.065 1.79c-.695 1.38-1.428 2.74-2.13 4.115-.706 1.383-1.353 2.79-2.006 4.199a.043.043 0 0 0 .074.043c.816-1.348 1.59-2.714 2.27-4.137.66-1.383 1.238-2.792 1.82-4.208.007-.016-.02-.028-.028-.012"/></svg>