<svg xmlns="http://www.w3.org/2000/svg" data-name="turtle" viewBox="0 0 440.001 337.782"><path fill="currentColor" d="M134.931 221.71a32 32 0 0 0-2.076-5.512 9.73 9.73 0 0 0-3.377-4.232 36.4 36.4 0 0 0-4.942-2.18c-1.08-.413-2.155-.846-3.246-1.228-1.178-.413-2.384-.72-3.556-1.15a.055.055 0 0 0-.042.1c.909.44 1.76.964 2.656 1.426.932.481 1.881.922 2.831 1.365a22.5 22.5 0 0 1 4.583 2.577 12.1 12.1 0 0 1 3.212 3.949c.826 1.612 1.41 3.336 2.208 4.963.517 1.055 1.08 2.087 1.615 3.132.536 1.046 1 2.133 1.569 3.16a.184.184 0 0 0 .335-.142c-.514-2.088-1.194-4.156-1.77-6.228"/><path fill="currentColor" d="M420.469 238.2a8.23 8.23 0 0 0-2.477-4.465c-2.939-2.852-7.075-3.393-10.997-3.42-4.38-.03-8.737.029-13.11-.277a99.5 99.5 0 0 1-13.081-1.754 73.4 73.4 0 0 1-22.496-8.413 58.3 58.3 0 0 1-9.264-6.708 54 54 0 0 1-4.078-4.046c-1.318-1.457-2.524-3.01-3.854-4.455a18.5 18.5 0 0 0-4.567-3.75 30 30 0 0 0-5.642-2.214 47 47 0 0 1-5.605-2.022 47 47 0 0 1-5.237-2.833 58 58 0 0 1-3.312-2.253 14.9 14.9 0 0 0-1.28-5.17 46.6 46.6 0 0 0-3.45-5.991 359 359 0 0 0-3.659-5.652c-.3-1.487-.545-2.987-.806-4.465-.469-2.653-.839-5.322-1.234-7.987-.798-5.387-1.678-10.738-3.654-15.84-3.944-10.179-10.797-18.942-14.51-29.224a64 64 0 0 1-1.378-4.366l-.047-.165c.296-1.733.562-3.47.77-5.222a26.4 26.4 0 0 1 .701-4.068 14 14 0 0 1 1.799-3.664 25.4 25.4 0 0 0 3.432-7.052 28 28 0 0 0 .834-7.837c-.126-5.864-1.608-11.6-1.808-17.46a68 68 0 0 1 .446-8.955c.29-2.945.639-5.883 1.014-8.818.862-6.728 2.098-13.4 3.172-20.094a.031.031 0 0 0-.06-.017 153 153 0 0 0-4.094 17.526q-.815 4.426-1.446 8.88a88 88 0 0 0-.993 8.903c-.23 5.952 1.21 11.753 1.667 17.657a31.3 31.3 0 0 1-.248 7.918 19.7 19.7 0 0 1-2.92 7.256 26.4 26.4 0 0 0-2.206 3.853 13.7 13.7 0 0 0-.989 4.59q-.07 1.203-.1 2.405a40 40 0 0 1-.425-4.905c-.035-.866-.036-1.738-.097-2.603-.061-.867-.189-1.732-.248-2.602a.055.055 0 0 0-.11 0c-.022 1.532-.22 3.054-.293 4.586a70 70 0 0 0-.079 4.578 30 30 0 0 0 1.078 7.968c.074.25.16.496.238.745l.001.03a.14.14 0 0 0 .033.076 77.5 77.5 0 0 0 6.479 14.117c2.312 4.152 4.74 8.253 6.774 12.55-.68 2.252-1.378 4.5-2.111 6.735-.377 1.15-.764 2.296-1.15 3.443-.18.535-.365 1.067-.537 1.605-.032.103-.061.232-.091.363-.474-.675-.936-1.358-1.418-2.027a.063.063 0 0 0-.108.063c.459.836.928 1.667 1.396 2.497a1.66 1.66 0 0 1-.441.868c-.094.075.009.215.11.19a.92.92 0 0 0 .614-.553c1.932 3.406 3.933 6.77 5.93 10.14 2.582 4.355 5.145 8.721 7.81 13.025 1.23 1.984 2.545 3.922 3.683 5.96a15.4 15.4 0 0 1 1.974 5.334.49.49 0 0 0 .047.521l.004.005c.01.111.025.22.03.333a43 43 0 0 1-.686 7.436c-.32 2.5-.661 5-.906 7.509-.548 5.615-.935 11.24-1.393 16.863-.016.195.31.242.345.046.756-4.33 1.602-8.647 2.303-12.986-.023 2.193-.01 4.385.03 6.578.108 5.928.346 11.86.2 17.788a70.7 70.7 0 0 1-2.131 17.355 23 23 0 0 1-3.23 7.241c-.075.105-.16.193-.239.292-2.005.5-4.035.92-6.026 1.475a54 54 0 0 0-6.115 1.943.32.32 0 0 0-.22.389 1.2 1.2 0 0 0 .408.575c-.565.769-1.728.742-2.613.69a24 24 0 0 1-3.765-.541c-.069-.015-.098.088-.03.105a23 23 0 0 0 4.234.708 3.86 3.86 0 0 0 2.778-.813.3.3 0 0 0 .046-.357 4 4 0 0 0-.184-.331c1.862-.736 3.853-1.148 5.756-1.76 1.898-.61 3.763-1.328 5.647-1.98-1.563 1.9-3.721 2.707-6.066 3.395l-4.989 1.459a33 33 0 0 1-4.673 1.221 6.76 6.76 0 0 1-3.946-.568 13.3 13.3 0 0 1-2.762-2.119c.26-4.264 1.224-8.435 1.883-12.65.274-1.755.509-3.514.72-5.275a.368.368 0 0 0 .334-.458c.28-1.046.694-2.057 1.03-3.094.382-1.18.726-2.375 1.031-3.577a23.2 23.2 0 0 0 .99-7.213.086.086 0 0 0-.168-.023c-.858 2.611-1.287 5.34-2.13 7.962a39 39 0 0 1-.604 1.714c.107-1.297.198-2.596.26-3.898a42 42 0 0 0 .015-3.407c-.004-.118-.194-.156-.215-.03-.747 4.427-1.232 8.895-1.988 13.322-.745 4.365-1.837 8.646-2.687 12.987a38.4 38.4 0 0 0-.56 6.832 110 110 0 0 1-.284 6.74c-.347 4.544-.839 9.079-1.275 13.615l-.652 6.784a29.4 29.4 0 0 1-.95 5.734 11.68 11.68 0 0 1-7.378 7.409 29.5 29.5 0 0 1-6.19 1.497c-2.143.32-4.305.564-6.468.714a41.6 41.6 0 0 1-6.688-.015c-1.857-.17-4.21-.354-5.728-1.562a9.6 9.6 0 0 1-1.804-2.17q-.84-1.225-1.673-2.455a131 131 0 0 1-3.358-5.184 66 66 0 0 1-2.922-5.28c-.876-1.788-1.592-3.647-2.461-5.436-.134-.275-.28-.543-.424-.813-.062-.185-.134-.368-.195-.554-.188-.576-.322-1.265-.55-1.88q.731-3.62 1.472-7.236c.055.264.106.528.167.79a54 54 0 0 0 1.804 6.14 39.6 39.6 0 0 0 5.937 11.194c.11.139.365-.011.3-.174-1.54-3.897-3.243-7.737-4.664-11.687q-1.065-2.961-1.925-5.99-.432-1.51-.843-3.027-.062-.23-.12-.467l.062-.308c.487-2.35 1.071-4.672 1.601-7.01.106-.466.2-.933.296-1.399a77.8 77.8 0 0 1 8.946-16.35c.034-.046-.044-.106-.08-.062a55.6 55.6 0 0 0-7.727 12.267c.147-.452.295-.903.462-1.349 1.59-4.236 4.215-8.008 5.66-12.3a26 26 0 0 0 .83-3.24c.022-.112-.145-.16-.174-.048a28.3 28.3 0 0 1-2.577 6.1c-1.028 1.965-2.177 3.863-3.222 5.819a54.3 54.3 0 0 0-4.998 12.854c-1.118 4.68-1.992 9.422-2.944 14.138l-1.777 8.801c-.534 1.853-.909 3.757-1.279 5.646-.28 1.432-.513 2.875-.734 4.32l-2.185 10.82c-.419 2.075-.782 4.173-1.36 6.21a12.55 12.55 0 0 1-2.413 4.94c-2.65 3.01-7.134 3.296-10.883 3.33a39.5 39.5 0 0 1-11.235-1.55 41 41 0 0 1-5.046-1.824c-.043-.044-.079-.092-.127-.134a.36.36 0 0 0-.355-.072 41.5 41.5 0 0 1-4.943-2.632 39.5 39.5 0 0 1-4.655-3.388c-1.46-1.239-2.73-2.679-4.222-3.87-.365-.29-.734-.567-1.099-.85a11 11 0 0 1-.693-1.211 17.4 17.4 0 0 1-1.137-3.572c-1.262-5.293-2.485-10.595-3.727-15.893-.348-1.484-.711-2.967-.985-4.467-.128-.703-.18-1.42-.309-2.12a4 4 0 0 0-.537-1.25l3.078-8.033a49 49 0 0 0 3.96 4.782q1.167 1.266 2.352 2.514l1.221 1.286.029.03q.075 1.907.136 3.814c-.547-.69-1.245-1.294-1.843-1.923-.765-.805-1.51-1.63-2.248-2.458a173 173 0 0 0-4.533-4.88c-.032-.034-.08.015-.05.05a170 170 0 0 0 4.435 4.843q1.117 1.17 2.205 2.367a27 27 0 0 0 2.043 2.264c.108 3.225.212 6.45.416 9.67.21 3.307.283 6.608.316 9.922a.14.14 0 0 0 .281 0 151 151 0 0 0 1.008-18.608c-.08-3.142-.206-6.284-.413-9.42-.2-3.02-.352-6.08-.803-9.074a5.76 5.76 0 0 0-1.86-3.702 3.75 3.75 0 0 0-1.815-.8c1.5-1.445 3.163-2.707 4.67-4.143a16 16 0 0 0 2.02-2.29c.126-.176-.147-.374-.294-.226a26.2 26.2 0 0 1-5.195 3.536 13.8 13.8 0 0 0-4.685 4.215 38.6 38.6 0 0 0-2.998 7.042l-2.887 7.53-2.931 7.645a61 61 0 0 0-2.57 7.476c-1.047 4.337-.507 9.053-2.201 13.236-1.52 3.75-5.04 5.723-8.822 6.594-4.377 1.008-9.055.808-13.499.467a59.7 59.7 0 0 1-14.256-2.558c-3.62-1.208-7.325-3.34-8.639-7.147a16 16 0 0 1-.492-6.893c.258-2.506.751-4.985 1.09-7.481l.838-6.182c-.033.864-.078 1.726-.094 2.592-.058 3.326.209 6.675.368 9.998a.176.176 0 0 0 .352 0q.4-4.52.95-9.023c.359-2.949.46-5.93.666-8.891q.624-8.946 1.69-17.853 1.058-8.832 2.558-17.604.76-4.45 1.63-8.88c.526-2.679 1.142-5.343 1.608-8.034a25.6 25.6 0 0 0 .247-8.01 10.8 10.8 0 0 0-2.39-5.868 5 5 0 0 1 .688.335.313.313 0 0 0 .316-.54 21 21 0 0 0-2.58-1.588 15.5 15.5 0 0 0-2.972-.899 18.2 18.2 0 0 0-6.326-.094c-4.429.669-8.547 2.642-12.44 4.774-4.22 2.31-8.391 4.693-12.665 6.905q-6.525 3.377-13.085 6.687a86.5 86.5 0 0 1-13.15 5.577 73.5 73.5 0 0 1-14.075 2.799c-8.807.926-18.268.78-26.342-3.292a27 27 0 0 1-8.826-6.971c-2.334-2.864-4.42-6.754-4.08-10.558a5.79 5.79 0 0 1 2.478-4.307 7 7 0 0 1 .844-.47c.445.054.982-.058 1.353-.045a5.56 5.56 0 0 1 3.968 1.93 4.84 4.84 0 0 1 1.036 1.951c.168.654.314 1.49 1.003 1.807a5.7 5.7 0 0 0 2.584.022q1.57-.105 3.143-.18c.04-.002.056-.07.01-.077-.811-.115-1.617-.266-2.428-.382a9.5 9.5 0 0 1-2.554-.481c-.326-.151-.483-.234-.618-.567-.12-.296-.186-.61-.302-.909a6 6 0 0 0-.899-1.556 6.6 6.6 0 0 0-2.974-2.1 6 6 0 0 0-.834-.226q.584-.109 1.169-.168c3.71-.384 7.465.195 11.184.184a73 73 0 0 0 2.638-.062 3.5 3.5 0 0 0 .47.711c.393.497.882.9 1.282 1.39a1.92 1.92 0 0 1 .512 1.89 1.33 1.33 0 0 1-1.542.948c-.039-.011-.055.048-.017.06a1.28 1.28 0 0 0 1.386-.479 1.95 1.95 0 0 0 .307-1.74 5.6 5.6 0 0 0-.872-1.98c-.183-.282-.37-.56-.545-.846a62.7 62.7 0 0 0 20.55-4.44 50.6 50.6 0 0 0 10.668-5.905c1.556-1.139 2.997-2.425 4.468-3.662.38.109.755.234 1.11.347a12 12 0 0 1 2.492 1.151 22 22 0 0 1 2.45 1.508c.732.575 1.409 1.204 2.082 1.846a.023.023 0 0 0 .033-.033q-1.037-1.11-2.078-2.218a11.5 11.5 0 0 0-2.23-2.042 8.6 8.6 0 0 0-2.677-1.111 4 4 0 0 0-.453-.054 22.8 22.8 0 0 1 5.336-3.44 55 55 0 0 0 6.18-2.827c2.048-1.205 3.966-2.623 5.902-3.998 4.01-2.848 8.032-5.68 12.027-8.548a94.5 94.5 0 0 0 11.046-8.961c1.7-1.659 3.314-3.401 4.907-5.162 1.668-1.844 3.368-3.684 4.936-5.612 1.182-1.452 2.37-2.897 3.548-4.352a46 46 0 0 0-1.68 6.124q-.321 1.468-.6 2.943c-.04.205.266.295.316.087a36 36 0 0 1 4.28-11.296 13.9 13.9 0 0 1 3.909-4.125c.987-.659 2.108-1.027 3.138-1.607a10 10 0 0 0 2.68-2.19 42 42 0 0 0 3.867-5.988q1.937-3.242 3.963-6.429 4.052-6.373 8.451-12.516a272 272 0 0 1 18.98-23.597 98 98 0 0 0 9.264-11.155 34.3 34.3 0 0 0 3.351-6.482 58 58 0 0 0 1.036-2.924.48.48 0 0 0 .177-.323l.033-.306c.394-1.214.771-2.434 1.175-3.645a43 43 0 0 1 2.904-6.856 52 52 0 0 1 1.932-3.276c.662-1.04 1.27-2.11 1.95-3.14 2.881-4.362 6.052-8.522 8.967-12.859q1.128-1.678 2.253-3.36c.058-.087-.078-.195-.147-.113-2.48 2.95-4.879 5.964-7.29 8.968.957-1.712 1.803-3.492 2.629-5.261q3.795-8.124 6.989-16.486a225 225 0 0 0 1.794-4.838c.576-1.616 1.063-3.265 1.66-4.871.058-.158-.188-.219-.25-.069-1.152 2.813-2.468 5.57-3.66 8.368q-1.76 4.128-3.627 8.208a186 186 0 0 1-3.818 7.86c-1.371 2.648-3.003 5.157-4.36 7.81-1.53 2.988-3.015 5.988-4.798 8.84a.14.14 0 0 0-.017.113 40 40 0 0 0-3.48 6.325c-.742 1.724-1.338 3.505-1.914 5.293l-.219-.386q-1.021-1.824-2.1-3.615a200 200 0 0 0-4.41-6.975c-2.99-4.54-6.106-8.995-9.126-13.515a313 313 0 0 1-17.15-29.82l-4.718-9.078c-1.571-3.025-3.276-5.98-4.841-9.006-.088-.17-.34-.02-.257.15 1.338 2.734 2.57 5.521 3.874 8.272 1.303 2.748 2.658 5.471 3.99 8.205 2.604 5.35 5.164 10.723 7.725 16.095a122 122 0 0 0 8.545 14.481c2.993 4.538 6.11 8.992 9.13 13.513a227 227 0 0 1 5.01 7.803q1.177 1.929 2.295 3.893c.372.656.727 1.32 1.097 1.977.103.182.211.375.328.562a42 42 0 0 1-2.607 6.497c-2.226 4.234-5.4 7.848-8.59 11.373a300 300 0 0 0-19.334 23.48q-4.51 6.13-8.674 12.503c-2.74 4.194-5.246 8.52-7.88 12.778a15 15 0 0 1-1.977 2.646 13 13 0 0 1-2.655 1.927c-1.478-1.994-3.12-3.858-4.725-5.751q-2.441-2.878-4.89-5.75-4.936-5.79-9.903-11.552-9.897-11.478-19.916-22.85Q83.333 89 73.236 77.78c-6.732-7.481-13.515-14.905-20.432-22.215q-5.227-5.524-10.511-10.991c-3.494-3.62-6.94-7.28-10.538-10.797-.901-.881-1.84-1.71-2.721-2.613-.025-.025-.062.013-.039.039 1.694 1.864 3.268 3.841 4.93 5.738 1.66 1.893 3.36 3.75 5.052 5.615 3.384 3.73 6.719 7.503 10.077 11.255q10.113 11.297 20.262 22.56 10.11 11.208 20.1 22.524 9.992 11.315 19.863 22.735t19.624 22.94a61 61 0 0 0 2.343 2.632 14.9 14.9 0 0 0-3.408 3.15 16.6 16.6 0 0 0-1.695 2.757.42.42 0 0 0-.484.11c-1.829 1.798-3.606 3.643-5.415 5.463-1.746 1.756-3.362 3.662-5.03 5.495a85.5 85.5 0 0 1-10.5 9.943c-3.806 2.98-7.814 5.704-11.758 8.496l-6.145 4.35a56 56 0 0 1-5.903 3.839c-2.067 1.104-4.323 1.76-6.427 2.783a25.3 25.3 0 0 0-5.476 3.959 50.7 50.7 0 0 1-10.263 7.112 59 59 0 0 1-23.76 6.132q-3.1.169-6.208.067c-1.895-.06-3.785-.23-5.68-.247-3.344-.03-7.17.346-9.655 2.85-3.079 3.103-2.502 7.776-.911 11.456a24.4 24.4 0 0 0 6.921 9.002c6.784 5.598 15.51 7.69 24.161 7.78a82 82 0 0 0 14.321-1.206 66.4 66.4 0 0 0 13.967-3.879c4.488-1.814 8.785-4.047 13.09-6.247 4.476-2.288 8.967-4.548 13.394-6.929 7.817-4.203 15.71-9.93 25.036-9.26a17 17 0 0 1 2.993.485c.476.123.998.236 1.509.383a24 24 0 0 1 1.287 2.912 11.8 11.8 0 0 1 .57 3.295 26 26 0 0 1-.12 3.461c-.122 1.164-.404 2.313-.609 3.464-.472 2.65-1.088 5.274-1.612 7.914q-.853 4.308-1.603 8.636-2.731 15.783-4.05 31.769c-.97 4.28-1.807 8.591-2.646 12.901-.524 2.692-1.056 5.382-1.498 8.088a29 29 0 0 0-.53 7.234 12.14 12.14 0 0 0 2.322 6.388 14.2 14.2 0 0 0 4.733 3.869c4.048 2.123 8.74 2.947 13.219 3.573a66.8 66.8 0 0 0 15.322.63 22.2 22.2 0 0 0 8.464-2.292c.04.468.083.937.147 1.407.147 1.08.39 2.147.615 3.212a102 102 0 0 0 1.61 6.451q.442 1.571.918 3.132a12 12 0 0 0 1.069 2.705 7.9 7.9 0 0 0 4.632 3.171c3.946 1.239 8.292.797 12.34.418q3.367-.315 6.712-.84a10.64 10.64 0 0 0 5.316-1.966 8.8 8.8 0 0 0 2.828-5.002 15 15 0 0 0 .286-3.639l-.022-.616c.216.084.427.184.644.265a42.2 42.2 0 0 0 11.604 2.53 39 39 0 0 0 5.915-.01 19.1 19.1 0 0 0 6.286-1.385 9.2 9.2 0 0 0 1.989-1.23c-.594 1.334.004 3.086.746 4.272a8.44 8.44 0 0 0 4.456 3.448 17.1 17.1 0 0 0 6.367.692 62 62 0 0 0 6.797-.677 61 61 0 0 0 6.693-1.408 36 36 0 0 0 5.808-1.983 10.5 10.5 0 0 0 4.197-3.274c1.244-1.729 1.382-3.849 1.529-5.902.193-2.696.436-5.398.538-8.1a7.4 7.4 0 0 0-.03-1.71q1.378-.094 2.753-.238c1.637-.173 3.28-.364 4.908-.63.014.048.033.094.048.14-.492 1.76 1.15 4.01 2.41 5.052a10.9 10.9 0 0 0 7.738 2.117 45 45 0 0 0 7.757-1.235 29 29 0 0 0 6.88-2.473 16.5 16.5 0 0 0 5.504-4.58 17.05 17.05 0 0 0 2.97-6.838 37.5 37.5 0 0 0 .663-7.791c-.005-2.942-.122-5.886-.222-8.825-.118-3.482-.272-6.964-.534-10.438q-.198-2.635-.49-5.263-.15-1.344-.327-2.685a7.7 7.7 0 0 0-.26-1.327c1.117-.324 2.234-.644 3.346-.982a15.4 15.4 0 0 0 3.842-1.622 13.86 13.86 0 0 0 4.865-6.45c2.157-4.986 2.94-10.496 3.343-15.901a2.44 2.44 0 0 0 1.986-.02c.784-.35 1.445-1.045 2.343-.665a23 23 0 0 1 2.62 1.602 56 56 0 0 0 11.317 5.151c1.943.637 3.942 1.031 5.896 1.615 1.905.57 3.023 2.278 4.442 3.56a33.1 33.1 0 0 0 9.673 5.976c7.89 3.246 16.613 3.611 25.013 2.816 7.625-.721 15.429-1.973 22.634-4.655 6.528-2.43 13.188-6.38 16.899-12.484a8.18 8.18 0 0 0 1.293-5.576m-124.937-82.456c.172-.432.322-.876.463-1.312q.612-1.898 1.158-3.815 1.06-3.704 1.945-7.452.467.99.905 1.993c.246.568.473 1.14.692 1.715a50 50 0 0 1-1.435 5.679q-.453 1.422-.975 2.822-.262.7-.543 1.39c-.049.12-.451 1.051-.6 1.282-.53-.773-1.075-1.534-1.61-2.302m1.848 2.652a.97.97 0 0 0 .392-.464 28 28 0 0 0 1.335-3.544 49 49 0 0 0 1.714-7.173q.697 1.878 1.24 3.793a42 42 0 0 1-1.105 4.934c-.28.967-.602 1.922-.945 2.869a14 14 0 0 0-.818 2.246q-.9-1.334-1.813-2.66m3.812 5.62c-.595-.887-1.197-1.77-1.794-2.656a7.5 7.5 0 0 0 1.086-2.419 33 33 0 0 0 .882-2.998 35 35 0 0 0 .803-4.525q.638 2.312 1.115 4.667a64 64 0 0 1-.741 3.334c-.24.949-.498 1.892-.783 2.829-.169.556-.417 1.163-.568 1.769m1.711 1.941c-.025.14-.05.28-.067.42l-.01.082-1.244-1.859a10.2 10.2 0 0 0 .649-1.997c.276-1.014.528-2.036.744-3.065a49 49 0 0 0 .471-2.643q.358 1.883.649 3.789c-.166.706-.338 1.41-.506 2.115-.166.698-.31 1.402-.469 2.102-.079.35-.154.702-.217 1.056m1.448 2.784-.751-1.126-.375-.56a1.6 1.6 0 0 0 .335-.745c.137-.507.231-1.025.326-1.542.168-.914.297-1.831.413-2.75.223 1.485.445 2.97.699 4.45l-.282.924a23 23 0 0 0-.365 1.35m.587.88c.046-.172.082-.347.118-.515.067-.31.114-.625.169-.937.013-.077.021-.155.034-.232.132.695.273 1.39.432 2.08.093.405.208.804.314 1.205zm-123.842 97.332c.232.128.47.221.729.346a3.26 3.26 0 0 1 1.264 1.111 4.8 4.8 0 0 1 .634 1.79q-.437-.56-.89-1.101a57 57 0 0 0-1.196-1.397 8 8 0 0 0-.63-.64c.031-.036.058-.074.09-.109m-1.156 1.572a9 9 0 0 1 .655-.958c.123.194.246.388.385.572q.59.774 1.205 1.53a19 19 0 0 0 1.708 1.918l.015.163c.077.92.144 1.839.214 2.758a49 49 0 0 0-4.63-5.131q.207-.434.448-.852m-1.545 3.523c.297-.775.592-1.554.935-2.31a44 44 0 0 0 4.869 5.762c.088 1.203.162 2.407.235 3.611-.855-.967-1.754-1.901-2.589-2.86-1.168-1.34-2.351-2.667-3.528-4Zm-.173.452c1.038 1.366 2.094 2.72 3.214 4.02.988 1.145 1.977 2.363 3.055 3.466l.026.388c.056 1.007.095 2.015.137 3.023-.308-.308-.62-.61-.899-.907-.787-.838-1.584-1.665-2.373-2.5a122 122 0 0 1-4.233-4.69Zm17.368 55.69a7.87 7.87 0 0 1-1.727 4.283 7.17 7.17 0 0 1-4.425 2.04c-1.974.342-3.969.588-5.962.793-3.746.385-7.78.884-11.503.09-1.569-.336-3.44-.896-4.482-2.208a6.6 6.6 0 0 1-1-2.19 123 123 0 0 1-.89-2.98c-.623-2.17-1.19-4.354-1.753-6.538-.281-1.091-.524-2.194-.82-3.281-.19-.695-.414-1.378-.634-2.06a12.5 12.5 0 0 0 1.502-1.183c3.468-3.248 3.946-7.983 4.353-12.45a33.4 33.4 0 0 1 1.285-7.086c.813-2.58 1.855-5.092 2.823-7.617l.492-1.282c.207 1.324.503 2.632.808 3.937q.971 4.167 1.95 8.332l1.95 8.335a15.1 15.1 0 0 0 3.039 6.879 24 24 0 0 0 2.96 2.698c.598.481 1.189.985 1.808 1.439a9 9 0 0 0 .865.595c.519.418 1.033.841 1.57 1.235a42.5 42.5 0 0 0 7.865 4.547c-.003.187 0 .379.007.586a20.6 20.6 0 0 1-.08 3.086m63.853-16.857c-.08.486-.126.982-.175 1.472-.106 1.062-.175 2.127-.254 3.191-.148 1.976-.27 3.956-.442 5.93a6.52 6.52 0 0 1-1.678 4.226 10.6 10.6 0 0 1-3.657 2.27 50.8 50.8 0 0 1-10.64 2.783q-2.78.458-5.594.642a23 23 0 0 1-5.453-.09 7.5 7.5 0 0 1-4.596-2.376 5.2 5.2 0 0 1-1.088-2.112c-.188-.77-.198-1.562-.396-2.33a.5.5 0 0 0-.401-.365 12.9 12.9 0 0 0 2.5-3.984c-.01.124-.03.248-.038.372a8.8 8.8 0 0 0 .346 3.864c.07.19.373.284.478.063.982-2.06.705-4.28.814-6.496.081-1.645.192-3.29.322-4.933.74-3.518 1.378-7.065 2.088-10.583q1.58-7.818 3.147-15.64a47 47 0 0 0 1.27 2.987c.157.334.33.661.5.99a50 50 0 0 0 2.337 4.7 126 126 0 0 0 6.824 10.636 10.3 10.3 0 0 0 1.912 2.219 7.6 7.6 0 0 0 2.792 1.367 27.5 27.5 0 0 0 6.615.826 42 42 0 0 0 2.553-.03c-.03.133-.063.264-.086.4m39.742-44.971a11 11 0 0 1 .148 1.288c.045.366.084.732.126 1.099a4 4 0 0 0-.444-.522 10 10 0 0 0-1.029-.863q-.304-.229-.621-.435c.613-.188 1.221-.383 1.82-.567m-2.483.765c.313.228.629.453.934.69.334.26.654.54.978.811a9 9 0 0 0 .907.662c.02.186.044.371.064.557.118 1.106.21 2.215.303 3.323-.146-.138-.293-.276-.431-.41a65 65 0 0 0-2.47-2.26 62 62 0 0 0-3.337-2.686 20.6 20.6 0 0 0 3.052-.687m3.94 31.607c-.408 4.517-1.962 8.943-5.728 11.73-3.578 2.648-8.076 3.707-12.392 4.419-2.744.452-5.96.956-8.57-.31a6.25 6.25 0 0 1-2.577-2.238 5.3 5.3 0 0 1-.644-1.563 6 6 0 0 0-.393-1.066l.228-.041c3.872-.789 7.854-2.384 10.401-5.543 2.66-3.3 2.985-7.533 3.375-11.592l1.367-14.186c.226-2.348.453-4.696.595-7.05.11-1.846.134-3.693.172-5.54a9 9 0 0 0 .963.75 8.4 8.4 0 0 0 3.438 1.327 9.6 9.6 0 0 0 2.29.04c1.16 1.03 2.322 2.06 3.464 3.112q1.198 1.103 2.378 2.226c.316.3.637.626.968.944l.009.099c.1 1.291.183 2.583.26 3.876-1.536-1.666-3.29-3.176-4.959-4.658a71 71 0 0 0-7.103-5.639c-.022-.015-.049.02-.029.037 2.276 1.97 4.588 3.895 6.828 5.905 1.094.982 2.163 1.988 3.226 3.002.688.656 1.375 1.32 2.074 1.971q.116 2.048.201 4.097l.004.125c-.567-.554-1.16-1.084-1.732-1.62l-3.076-2.884c-2.021-1.896-4.072-3.76-6.11-5.639-.067-.06-.165.037-.1.1 2.024 1.949 4.037 3.91 6.079 5.84l2.975 2.815c.652.617 1.298 1.264 1.98 1.862.106 2.702.187 5.404.258 8.107a62 62 0 0 1-.12 7.185m17.143-59.794a2 2 0 0 1-.843.317c-.192.006-.423-.193-.45-.01a.7.7 0 0 0-.012-.24c.053-.889.073-1.777.106-2.665.19.33.385.658.598.97q.362.534.747 1.05c.089.12.183.232.277.347zm2.496-.846a3.4 3.4 0 0 0-1.79.468q-.123-.172-.252-.339-.418-.54-.811-1.098-.416-.587-.827-1.177.067-1.997.074-3.994c.586.97 1.183 1.933 1.812 2.879q.746 1.12 1.535 2.209c.284.392.574.791.885 1.17a3 3 0 0 0-.626-.118m5.36 2.781q-1.356-.759-2.667-1.594a12 12 0 0 0-1.506-.863c-.34-.575-.748-1.116-1.133-1.656l-1.559-2.196c-.71-1.003-1.406-2.016-2.104-3.029.003-1.072-.024-2.144-.04-3.217a204 204 0 0 0 4.231 6.066q1.392 1.91 2.82 3.795c.676.896 1.33 1.853 2.043 2.74zm89.121 5.325a30.8 30.8 0 0 1-8.06 5.957c-6.138 3.225-13.043 4.796-19.85 5.86-8.422 1.319-17.198 2.06-25.585.118a36.3 36.3 0 0 1-10.234-3.994 28.6 28.6 0 0 1-4.456-3.21 44 44 0 0 0-3.437-3.279.8.8 0 0 0 .276-.296 6 6 0 0 0 .236-.776q.222-.684.458-1.365a28 28 0 0 1 1.195-2.927 28.4 28.4 0 0 1 3.146-5.13c.035-.045-.042-.104-.08-.061a29.8 29.8 0 0 0-3.543 5.016 29 29 0 0 0-1.346 2.74q-.302.708-.547 1.436c-.076.227-.156.456-.22.687a.7.7 0 0 0-.024.39c-.118-.069-.232-.143-.355-.202-1.766-.858-3.836-1.098-5.71-1.653a54 54 0 0 1-5.64-2.013 53 53 0 0 1-4.311-2.08c-.03-.062-.066-.122-.09-.188-.018-.042-.074-.022-.086.015-.8-1.15-1.747-2.226-2.595-3.333q-1.44-1.878-2.85-3.778a592 592 0 0 1-4.425-6.027 268 268 0 0 0-.228-7.671q-.235-5.247-.486-10.494a316 316 0 0 1-.217-5.364c-.022-.73-.034-1.456-.054-2.182.076-.555.156-1.108.227-1.664.313-2.453.734-4.924.879-7.395a28.3 28.3 0 0 0 7.175 4.848 41 41 0 0 0 5.417 2.104 44 44 0 0 1 5.07 1.782 16 16 0 0 0-1.713 1.342 31 31 0 0 0-2.57 2.416 27 27 0 0 0-2.208 2.604c-.513.7-.983 1.813-.157 2.491.06.05.175.005.143-.084-.183-.517.148-.927.424-1.343.282-.427.6-.826.922-1.225q.96-1.19 2.036-2.28 1.073-1.09 2.25-2.07c.555-.463 1.21-.896 1.75-1.412 3.272 1.774 5.44 4.804 7.863 7.55a56 56 0 0 0 8.177 7.526 67.7 67.7 0 0 0 19.936 10.234 96.4 96.4 0 0 0 25.337 4.356q3.192.15 6.388.143c2.085-.002 4.175-.093 6.257.05a16 16 0 0 1 3.465.62 9.7 9.7 0 0 0-1.688.308 22 22 0 0 0-2.935 1.025 9.7 9.7 0 0 0-2.427 1.348 3.8 3.8 0 0 0-.833.946c-.246.407-.332.9-.605 1.29-.535.76-1.974.783-2.804.817a14.8 14.8 0 0 1-3.374-.096c-1.036-.202-2.255-.906-2.264-2.094-.008-1.103.954-1.986 1.708-2.665.12-.108-.058-.285-.177-.177-.97.884-2.173 2.145-1.655 3.58.555 1.538 2.252 1.838 3.698 1.88.998.03 1.99.05 2.982.171a3.14 3.14 0 0 0 2.19-.264c.733-.48.813-1.31 1.256-1.993a4.9 4.9 0 0 1 2.074-1.554 46.5 46.5 0 0 1 5.981-2.118 7.9 7.9 0 0 1 4.222 3.719c1.696 3.368-1.077 6.754-3.299 9.088"/><path fill="currentColor" d="M192.672 331.933a2.7 2.7 0 0 0-1.255-1.025 7 7 0 0 0-.738-.217c-.318-.091-.544-.31-.863-.383a8 8 0 0 0-2.23-.006c-.955.06-1.909.139-2.863.208-1.914.139-3.82.406-5.725.637q-1.429.171-2.862.305c-.637.06-1.295.145-1.948.169a.11.11 0 0 0-.114-.1l-.925.072c-.24.02-.186.383.043.323l.915-.157c.674-.075 1.367-.076 2.029-.105.83-.035 1.658-.067 2.489-.08 1.783-.028 3.57-.03 5.351-.107 1.653-.07 3.3-.253 4.951-.331a6 6 0 0 0 .957-.062 2.4 2.4 0 0 1 .817-.149 2.58 2.58 0 0 1 1.664.978q-3.12.367-6.242.71c-2.055.226-4.117.528-6.183.609-.963.037-1.932.03-2.895.018-.507-.007-.978-.142-1.476-.15a2.8 2.8 0 0 0-1.354.34 4.6 4.6 0 0 1-1.482.253 10 10 0 0 1-1.567.04 13 13 0 0 1-3.025-.581c-.046-.015-.079.059-.034.078a20 20 0 0 0 5.53 1.26 3 3 0 0 1 .58.082 3 3 0 0 0 .671.242 2.9 2.9 0 0 0 1.413-.227 19 19 0 0 1 3.01-.728c2.156-.485 4.373-.676 6.564-.948q3.35-.415 6.703-.803a.11.11 0 0 0 .094-.165m52.028-3.569c-.466-.335-.962-.098-1.467.032a16 16 0 0 1-1.67.295c-1.253.181-2.51.314-3.77.431a69 69 0 0 1-7.292.39.063.063 0 0 0 0 .125 65 65 0 0 0 7.535.13 64 64 0 0 0 3.629-.322c.643-.075 1.278-.163 1.925-.197.506-.027.914-.039 1.216-.478a.303.303 0 0 0-.106-.406m6.725-1.675a9 9 0 0 0-1.778.348c-.595.173-1.194.335-1.793.498a.074.074 0 0 0 .04.143c.596-.126 1.192-.255 1.791-.37a9 9 0 0 0 1.756-.504c.055-.023.057-.12-.016-.115m40.849-46.614c-.042-.032-.099.04-.057.074q2.027 1.59 3.954 3.302c1.284 1.144 2.514 2.345 3.799 3.487a.043.043 0 0 0 .06-.06 56 56 0 0 0-7.756-6.803m3.105 7.625a.04.04 0 0 0-.056.055c.855.848 1.706 1.699 2.567 2.54a.02.02 0 0 0 .028-.028c-.84-.861-1.692-1.713-2.54-2.567m2.252 4.418c-.019-.008-.034.019-.016.027a4.8 4.8 0 0 1 1.628 1.144c.01.011.026-.006.016-.017a4.8 4.8 0 0 0-1.628-1.154M81.496 202.669c.06-.143.246-.293.246-.458 0-.335-.458-.759-.656-1.01a15 15 0 0 0-1.008-1.119 28 28 0 0 0-2.143-2.001q-.552-.463-1.126-.9a3.55 3.55 0 0 0-1.275-.737c-.158-.04-.328.143-.225.292a4 4 0 0 0 .974.902q.655.494 1.281 1.026a34 34 0 0 1 2.263 2.095c.351.357.697.72 1.048 1.078.14.142.415.326.487.52.077.208-.048.52-.079.728a5.5 5.5 0 0 0-.02 1.466c.023.187.138.475.02.605-.251.275-.756-.223-.862-.424-.007-.014-.026-.002-.02.012a.9.9 0 0 0 1.042.525.043.043 0 0 0 .03-.052 5.6 5.6 0 0 1-.124-1.66 3.1 3.1 0 0 1 .147-.888m.283-4.159a3 3 0 0 0-.274-.316 5 5 0 0 0-.643-.564 9.4 9.4 0 0 0-1.473-.862.074.074 0 0 0-.075.129 11 11 0 0 1 1.316.998c.203.178.414.349.62.522.102.086.201.174.308.253a2 2 0 0 0 .333.246c.05.023.127-.016.103-.079a1.4 1.4 0 0 0-.215-.326m51.155 11.451a16.9 16.9 0 0 0-3.845-4.768 46 46 0 0 0-4.734-3.857c-.025-.019-.057.023-.033.043a46 46 0 0 1 4.338 4.243 59 59 0 0 0 4.078 4.491.126.126 0 0 0 .196-.152m202.549-4.19c-.627.057-1.139.74-1.553 1.153-.537.536-1.044 1.1-1.546 1.669a28 28 0 0 0-2.776 3.566 15 15 0 0 0-1.611 3.377 18 18 0 0 1-.165-1.193l-.234-2.446c-.003-.034-.057-.036-.055 0l.13 2.446c.044.818-.012 1.628.007 2.445a.255.255 0 0 0 .5.068 19.1 19.1 0 0 1 4.955-8.007 63 63 0 0 1 1.655-1.557c.153-.14.721-.797.991-.697.256.095-.739 1.26-.799 1.337l-1.687 2.145a9.7 9.7 0 0 0-1.48 2.126.098.098 0 0 0 .143.11 9.4 9.4 0 0 0 1.668-1.905l1.673-2.159c.28-.36.556-.72.837-1.079a1.15 1.15 0 0 0 .315-.575.83.83 0 0 0-.968-.824m58.923 27.545a6 6 0 0 0-1.275 1.06 4.6 4.6 0 0 0-.493.686 2 2 0 0 0-.177.425.45.45 0 0 0-.004.23c.01.061.005.123.02.185a.102.102 0 0 0 .148.06 2 2 0 0 0 .168-.137l-.086.05a.4.4 0 0 0 .18-.11 2 2 0 0 0 .111-.161c.074-.108.134-.22.198-.335.122-.22.246-.44.38-.653a6 6 0 0 1 .915-1.19c.056-.054-.017-.155-.085-.11m-23.227-4.321a13.6 13.6 0 0 0-4.698 3.994 11 11 0 0 0-.852 1.301c-.067.121-.13.249-.206.366-.09.141-.114.172-.258.033a1.25 1.25 0 0 1-.323-.838 3.1 3.1 0 0 1 .667-1.648q.48-.731.976-1.45 1.148-1.685 2.309-3.361c.026-.037-.027-.093-.064-.064a8.4 8.4 0 0 0-1.755 1.764 31 31 0 0 0-1.47 2.26 4.63 4.63 0 0 0-.92 2.148 1.59 1.59 0 0 0 .746 1.45.06.06 0 0 0 .084-.022 16.66 16.66 0 0 1 5.795-5.879.031.031 0 0 0-.031-.054m-130.093-6.392q-.209-.665-.395-1.336c-.235-.831-.507-1.65-.777-2.47-.588-1.79-1.226-3.566-1.842-5.347q-1-2.893-2.033-5.774c-.714-2.005-1.55-3.964-2.279-5.964-.054-.15-.29-.09-.24.066.975 3.145 1.862 6.312 2.86 9.45a25.2 25.2 0 0 1 .259 6.337 5.4 5.4 0 0 1-1.053 3.196c-.361.386-.81.678-1.183 1.05a2.93 2.93 0 0 0-.786 1.399 10.4 10.4 0 0 1-.82 1.654l-.994 1.877q-.906 1.712-1.82 3.42l-.718 1.34c-.045.006-.089.042-.068.092l.008.019-2.854 5.327c-.082-.209-.17-.415-.25-.624-.012-.032-.063-.02-.053.014.074.246.161.487.237.732l-.02.038-2.066 3.855c-.274.511-.539 1.043-.81 1.574-.067-.143-.13-.287-.198-.43-.022-.048-.103-.014-.085.036.064.185.135.369.2.554a15 15 0 0 1-1.41 2.322.313.313 0 1 0 .528.308 14 14 0 0 1 1.028-2.229c.472 1.313.962 2.62 1.485 3.915a40 40 0 0 0 1.98 4.673.14.14 0 0 0 .259-.07l-.034-.473a.047.047 0 0 0-.092-.012l-.012.035c-.463-1.512-1.184-2.98-1.788-4.432a105 105 0 0 0-1.692-3.828c.265-.479.535-.953.787-1.424l.631-1.18c.523 1.591 1.041 3.18 1.625 4.752.319.86.652 1.715.979 2.572a10.3 10.3 0 0 0 .87 1.944 12.6 12.6 0 0 0-.828 1.774.15.15 0 0 0 .248.144 21 21 0 0 0 2.679-4.14c.095.152.187.306.293.449a.148.148 0 0 0 .27-.114 8 8 0 0 0-.316-.778q1.254-2.184 2.452-4.4c.669-1.24 1.307-2.5 1.94-3.76l.004.006a.035.035 0 0 0 .064-.027l-.023-.068q.712-1.422 1.396-2.857.279.555.588 1.09a.051.051 0 0 0 .092-.04 23 23 0 0 0-.517-1.405c.378-.801.753-1.605 1.11-2.415.671-1.518 1.372-3.039 1.904-4.612.25-.742.388-1.509.614-2.256a3.7 3.7 0 0 1 .607-1.172 2 2 0 0 0 .384-1.254 4.4 4.4 0 0 0-.325-1.123m-12.431 26.59a14 14 0 0 0-.668-1.891c-.333-.856-.658-1.715-1.002-2.566-.619-1.533-1.286-3.036-1.954-4.544l1.26-2.355.153-.285c.499 1.567 1.038 3.12 1.679 4.636q.588 1.392 1.23 2.76c.262.562.521 1.152.814 1.719-.492.835-1.023 1.67-1.512 2.526m1.793-3.007c-.216-.421-.442-.837-.645-1.254q-.655-1.346-1.258-2.717-1.053-2.393-2.014-4.825l1.491-2.787a46 46 0 0 0 1.606 4.82c.316.792.646 1.581 1.006 2.354a11.2 11.2 0 0 0 1.088 2.093c-.425.771-.838 1.55-1.274 2.316m2.731-4.966c-.445.84-.916 1.667-1.374 2.5a21 21 0 0 0-.956-2.068 66 66 0 0 1-1.068-2.457q-.938-2.311-1.705-4.692l1.314-2.456c.61 1.45 1.213 2.904 1.845 4.345l1.06 2.419.53 1.209a3.7 3.7 0 0 0 .486.948zm.283-.542c-.06-.194-.154-.383-.233-.569-.171-.404-.358-.803-.537-1.205l-1.113-2.496c-.679-1.524-1.387-3.034-2.089-4.548l.634-1.183.78-1.45c.64 1.548 1.279 3.097 1.948 4.634.614 1.407 1.21 2.864 1.962 4.214-.45.868-.896 1.738-1.352 2.603m6.471-13.392a34 34 0 0 1-2.068 4.754l-.221.439a43 43 0 0 0-1.631-4.016 157 157 0 0 0-2.07-4.5c-.044-.096-.212-.027-.17.071.619 1.482 1.23 2.967 1.87 4.44.607 1.4 1.173 2.847 1.909 4.187q-.524 1.04-1.05 2.078c-.385-.901-.8-1.792-1.2-2.68-.734-1.622-1.492-3.235-2.237-4.852-.057-.124-.235-.016-.182.106.697 1.61 1.386 3.222 2.09 4.828.435.992.865 2 1.335 2.984-.453.893-.895 1.791-1.354 2.68-.475-1.351-1.101-2.668-1.687-3.964-.73-1.617-1.49-3.218-2.252-4.82l1.063-1.974.952-1.758a9 9 0 0 1 1.048-1.811c.172-.189.388-.33.556-.523a8 8 0 0 1 .649-.71 8.3 8.3 0 0 0 1.244-1.196 6.1 6.1 0 0 0 .944-2.903 18 18 0 0 0 .13-3.16l.82 2.504a16.6 16.6 0 0 1 1.194 5.082c-.003.762-.289 1.546.17 2.248a1.58 1.58 0 0 1 .42.973 4.4 4.4 0 0 1-.272 1.493m-17.67 19.532a.047.047 0 0 0-.081.047c.618 1.307 1.13 2.664 1.757 3.966.022.046.09.013.079-.033a13.5 13.5 0 0 0-1.755-3.98"/><path fill="currentColor" d="M235.69 222.491c-.032-.069-.13-.009-.1.06a90 90 0 0 0 2.03 4.428c.017.035.079.01.064-.027a90 90 0 0 0-1.994-4.46m40.912-17.237a22 22 0 0 1-1.576-3.387c-.971-2.296-2.003-4.572-3.143-6.79-1.286-2.502-2.72-4.911-4.177-7.316a.137.137 0 0 0-.236.138 123 123 0 0 1 6.13 13.047c.438 1.08.893 2.165 1.235 3.28a6.8 6.8 0 0 1 .355 1.64c.03.625.211 1.226.252 1.85a10.5 10.5 0 0 1-.679 3.349 27 27 0 0 1-1.387 3.417c-1.135 2.706-2.391 5.352-3.608 8.02-.024.055.052.102.081.048 1.279-2.333 2.498-4.7 3.853-6.992.675-1.14 1.279-2.34 2.005-3.45a7.6 7.6 0 0 0 1.603-3.223 5.43 5.43 0 0 0-.708-3.63m19.287 10.287a117 117 0 0 0-7.05-12.31.059.059 0 0 0-.101.058 58 58 0 0 0 6.985 12.38c.08.1.21-.028.166-.128m3.361.48c-.384-.682-.765-1.366-1.153-2.047q-1.165-2.04-2.339-4.075c-1.56-2.72-3.229-5.366-4.877-8.033a.07.07 0 0 0-.12.07c1.425 2.796 2.823 5.599 4.34 8.348l2.21 4.006c.38.686.766 1.367 1.15 2.05a7.6 7.6 0 0 0 1.251 1.931l.016-.016a.28.28 0 0 0 .469-.266 7.2 7.2 0 0 0-.947-1.968m-1.002-7.841a12 12 0 0 0-.792-1.82 13 13 0 0 0-1.086-1.638 6 6 0 0 0-1.255-1.346.028.028 0 0 0-.04.03 11 11 0 0 0 .835 1.585q.455.836.895 1.682c.284.545.587 1.08.874 1.622.3.569.555 1.177.887 1.726.043.07.18.048.168-.045a8.7 8.7 0 0 0-.486-1.796m4.108 8.084c-.218-.333-.428-.673-.657-.999-.453-.645-.838-1.345-1.228-2.03a.168.168 0 0 0-.29.17c.385.689.782 1.381 1.1 2.104.157.353.334.698.5 1.046a3.3 3.3 0 0 0 .28.51.84.84 0 0 0 .434.316.15.15 0 0 0 .182-.104 1.33 1.33 0 0 0-.32-1.013m1.42-2.376q-.712-1.183-1.369-2.4c-.889-1.64-1.701-3.327-2.483-5.02-.02-.043-.094-.012-.079.034a35 35 0 0 0 2.163 5.116q.653 1.27 1.394 2.49a9 9 0 0 0 1.561 2.21c.068.06.198.005.163-.095a13.4 13.4 0 0 0-1.35-2.334m1.766-2.067a50 50 0 0 0-.927-1.9c-.665-1.301-1.423-2.539-2.153-3.804-.058-.101-.205-.012-.155.091.637 1.317 1.21 2.665 1.85 3.981.308.634.615 1.267.935 1.895a8.3 8.3 0 0 0 1.081 1.829c.056.06.134-.006.124-.072a8 8 0 0 0-.755-2.02m-.526-6.385c-.061-.105-.216-.013-.162.095a34 34 0 0 0 2.514 4.615c.038.053.142.023.114-.048a34 34 0 0 0-2.466-4.662m3.35-.243-.351-.428a.07.07 0 0 0-.1 0 .07.07 0 0 0 0 .1l.35.417c.117.139.246.265.373.394.025.024.07-.008.05-.038-.105-.151-.206-.303-.322-.445M193.06 219.99a51.7 51.7 0 0 1-4.932 10.212 55.4 55.4 0 0 1-6.802 8.873c-1.443 1.553-3.009 3.003-4.409 4.593a.141.141 0 0 0 .17.22c3.278-1.843 5.952-4.875 8.236-7.807a47 47 0 0 0 5.916-9.914 52 52 0 0 0 2.115-6.095c.056-.19-.232-.266-.294-.081m-37.652-1.545q-1.015 2.444-2.198 4.812c-.37.74-.735 1.482-1.116 2.216-.19.367-.386.732-.578 1.099-.107.206-.241.414-.328.63a3 3 0 0 0-.103.572.059.059 0 0 0 .098.057c.156-.157.292-.208.418-.388a6 6 0 0 0 .338-.624c.194-.366.377-.738.56-1.11.391-.797.773-1.6 1.124-2.415q1.023-2.379 1.898-4.818c.026-.072-.085-.099-.113-.03m2.249 23.782a.82.82 0 0 0-.112-.517 11 11 0 0 0-.843-1.758 74 74 0 0 0-1.188-2.212c-.411-.728-.845-1.444-1.27-2.165-.453-.77-.857-1.58-1.334-2.334-.022-.035-.087-.013-.071.03.316.828.72 1.63 1.062 2.45.309.737.608 1.479.927 2.212.336.77.693 1.53 1.058 2.288a7.1 7.1 0 0 0 1.29 2.236.288.288 0 0 0 .477-.126l.003-.08.007.004zm.893-2.747c-1.077-2.028-2.185-4.04-3.28-6.057-.032-.058-.117-.007-.088.05.998 2.03 1.982 4.066 2.998 6.085a40.6 40.6 0 0 0 3.22 5.954c.035.046.122.022.1-.042a40 40 0 0 0-2.95-5.99m6.02 6.205q-.397-.664-.783-1.335-.856-1.485-1.656-3.001a112 112 0 0 1-2.987-6.04c-.024-.051-.115-.014-.093.04a84 84 0 0 0 2.798 6.037q.762 1.473 1.582 2.916.436.77.886 1.531a4.8 4.8 0 0 0 .888 1.291.06.06 0 0 0 .098-.057 5.2 5.2 0 0 0-.733-1.382m.48-3.793c-.044-.08-.16-.01-.122.071a28.5 28.5 0 0 0 2.511 4.45.05.05 0 0 0 .088-.052c-.776-1.517-1.667-2.97-2.478-4.469m30.118-19.242c-2.598 5.198-5.65 10.191-8.698 15.132-.062.1.09.224.165.128a66 66 0 0 0 4.824-7.19 67 67 0 0 0 3.843-7.991c.038-.09-.089-.171-.134-.079m31.71-66.634c-.03-.704-.028-1.412-.027-2.116.004-2.863.055-5.726.084-8.588.032-3.195.084-6.39.179-9.582.003-.106-.159-.105-.164 0-.32 5.642-.7 11.281-.997 16.925a20 20 0 0 1-.368 4.29 4.45 4.45 0 0 0-.273 2.058 17 17 0 0 1 .35 2.117c.191 2.857.063 5.733.002 8.591-.07 3.206-.076 6.386.095 9.588a.094.094 0 0 0 .187 0c.214-2.824.319-5.635.358-8.467.039-2.824.052-5.65.275-8.467.058-.736.137-1.462.254-2.191a8.2 8.2 0 0 0 .36-2.042c-.059-.723-.285-1.389-.315-2.116m-26.764-21.338c-1.722 4.972-3.315 9.984-4.9 15.001-.402 1.274-.807 2.547-1.201 3.822a13 13 0 0 1-.584 1.727 6 6 0 0 0-.692 1.896 77 77 0 0 1-1.567 7.8c-.691 2.92-1.343 5.836-1.892 8.786-.018.098.125.14.151.042q1.017-3.81 1.978-7.63a60 60 0 0 1 2.233-7.563 14 14 0 0 0 .721-1.815c.163-.676.064-1.388.229-2.077.3-1.259.62-2.513.94-3.768.648-2.548 1.351-5.08 2.088-7.604q1.257-4.307 2.586-8.593c.018-.058-.07-.081-.09-.025m-5.933 3.741c-.78 1.712-1.638 3.387-2.371 5.12-.336.792-.673 1.583-1 2.38-.364.884-.82 1.723-1.164 2.613a25 25 0 0 0-.62 2.636 25 25 0 0 1-.895 2.687c-.685 1.768-1.44 3.506-2.017 5.313-.012.038.047.064.064.027.762-1.653 1.368-3.367 2.017-5.067a27 27 0 0 1 1.172-2.684c.412-.802 1-1.53 1.338-2.365.34-.84.547-1.72.858-2.57.326-.888.641-1.78.957-2.67.63-1.781 1.128-3.603 1.71-5.398.01-.03-.037-.05-.05-.021m66.448 14.197q-.377-2.711-.595-5.441c-.066-.835-.132-1.67-.143-2.509a11.6 11.6 0 0 1 .122-2.66.72.72 0 0 0 .263-.57 9 9 0 0 0-.308-1.21 11 11 0 0 1-.202-1.426 27 27 0 0 1-.115-2.516q-.011-2.576.132-5.146c.004-.076-.11-.074-.117 0a120 120 0 0 0-.344 5.146 58 58 0 0 1-.152 2.516 22 22 0 0 1-.143 1.311 11 11 0 0 0-.27 1.324.76.76 0 0 0 .305.604 15.3 15.3 0 0 1 .393 2.627c.102.875.169 1.753.259 2.628q.264 2.581.65 5.148a96 96 0 0 0 2.214 10.542.02.02 0 0 0 .038-.01 104 104 0 0 1-1.987-10.358m1.293-3.131a.094.094 0 0 0-.181.05c.49 2.048.948 4.104 1.564 6.119a.055.055 0 0 0 .106-.03c-.4-2.068-.961-4.1-1.49-6.139m-85.02 134.31c-.017-.02-.044.008-.028.027 1.214 1.449 2.418 2.907 3.707 4.29.025.025.06-.013.039-.04-1.185-1.471-2.457-2.87-3.718-4.277m3.427 8.827c-.512-.51-1.046-.995-1.573-1.487-.048-.045-.12.027-.072.072.532.487 1.059.982 1.606 1.453.026.023.064-.013.039-.038m95.341 10.246a.256.256 0 0 0-.252-.251c-2.812.068-5.623.427-8.436.568q-2.084.104-4.171.129-1.043.012-2.086.005a5.8 5.8 0 0 0-2.011.124.182.182 0 0 0 0 .346 5 5 0 0 0 1.888.209q1.104.023 2.209.024 2.147.001 4.293-.082a49 49 0 0 0 8.231-.803c.198.181.47.413.217.633-.12.104-.544.1-.72.134-.48.094-.958.19-1.438.28q-1.44.27-2.888.488a22.8 22.8 0 0 1-6.038.45 8.2 8.2 0 0 0-2.678-.027 15.7 15.7 0 0 1-2.997.319 33.3 33.3 0 0 1-5.997-.514c-.004 0-.007.006-.002.007a50 50 0 0 0 5.637.888c1.007.105 2.017.195 3.022.316a6.7 6.7 0 0 0 2.656-.208 26 26 0 0 1 2.812-.594c.964-.14 1.931-.26 2.895-.408 2.004-.306 4.02-.638 5.988-1.132a.023.023 0 0 0 .016-.027 3.1 3.1 0 0 1-.15-.874m-60.3 20.359a22 22 0 0 0-3.554-.663q-1.672-.303-3.33-.68a34 34 0 0 1-1.76-.437 5.5 5.5 0 0 1-.862-.283c-.312-.147-.552-.427-.854-.57a2.1 2.1 0 0 0-.748-.118 6 6 0 0 1-.978-.189q-.822-.213-1.64-.444a79 79 0 0 1-13.32-5.285c-.014-.007-.025.012-.012.02a78.5 78.5 0 0 0 13.033 5.92q.855.309 1.716.597a7 7 0 0 1 .933.368 2 2 0 0 0 .705.281c.28.025.589-.094.875-.088a6 6 0 0 1 1.045.181c.592.125 1.18.262 1.772.391q1.772.387 3.561.692a14 14 0 0 0 3.406.399.047.047 0 0 0 .012-.092m-4.262-2.891c-.22-.445-.663-.35-1.104-.384a16 16 0 0 1-1.765-.256q-1.774-.346-3.523-.801a70 70 0 0 1-6.762-2.145c-.017-.006-.028.022-.012.029a55 55 0 0 0 6.681 2.451q1.731.51 3.49.92c.604.142 1.206.283 1.803.455.435.126.801.346 1.158-.009a.22.22 0 0 0 .034-.26m-57.758-7.402a90 90 0 0 0-9.15-1.846q-2.166-.318-4.346-.515-1.195-.108-2.394-.178-.538-.032-1.078-.056c-.2-.01-.4-.011-.599-.025l-.135-.016a.585.585 0 0 0-.585-.512.537.537 0 0 0-.392.904c.452.596 1.68.342 2.31.35q1.617.02 3.232.11a71 71 0 0 1 12.574 1.82 63 63 0 0 1-6.464.267 7.7 7.7 0 0 1-3.501-.471 2.5 2.5 0 0 0-1.473-.163 14 14 0 0 1-1.793-.109 64.4 64.4 0 0 1-13.91-2.623c-.015-.004-.02.018-.006.023a72 72 0 0 0 13.69 3.398c.54.075 1.085.124 1.622.207a3.7 3.7 0 0 0 1.622.186 5 5 0 0 1 .945-.3c.304-.034.627-.02.934-.025.584-.008 1.169.017 1.753.02a74 74 0 0 0 7.123-.292c.084-.007.112-.13.021-.154m132.979-.716c-1.747.377-3.436.879-5.216 1.12a26.7 26.7 0 0 1-5.33.179c-.056-.004-.055.08 0 .086a26.8 26.8 0 0 0 5.542-.065 17 17 0 0 0 5.04-1.235c.05-.023.014-.096-.036-.086m-39.641-57.672c-1.513 2.425-2.99 4.877-4.268 7.436a32.3 32.3 0 0 0-3.088 7.809c-.018.092.107.156.157.066 1.363-2.451 2.288-5.152 3.466-7.696 1.187-2.564 2.427-5.104 3.862-7.54a.074.074 0 0 0-.129-.075m-1.24 7.115c-2.213 4.048-4.317 8.236-5.255 12.787a.074.074 0 0 0 .143.04c1.767-4.24 3.215-8.614 5.307-12.713.066-.13-.125-.243-.195-.114m-.485 7.165a29.4 29.4 0 0 0-3.634 9.691.043.043 0 0 0 .083.023 61.7 61.7 0 0 1 3.666-9.647c.039-.076-.074-.142-.115-.067m-.947 6.933a13.9 13.9 0 0 0-1.396 4.829.04.04 0 0 0 .077.01 27.5 27.5 0 0 1 1.405-4.803c.02-.048-.063-.083-.086-.036m.088 5.84.004 1.02a.012.012 0 0 0 .024 0l.004-1.02a.016.016 0 0 0-.032 0m1.103 2.87c-.013-.032-.066-.017-.053.015l.347.85c.009.022.046.013.037-.01Zm9.486-64.677a.055.055 0 0 0-.078.077 135 135 0 0 0 4.926 4.947.035.035 0 0 0 .05-.05 135 135 0 0 0-4.898-4.974m8.5 4.149c-.272-.26-.608-.46-.894-.708-.313-.27-.6-.57-.887-.867-.676-.697-1.346-1.4-2.028-2.09l-4.093-4.143c-.043-.043-.108.022-.067.066l4.096 4.363c.663.703 1.335 1.398 2.004 2.094a4.1 4.1 0 0 0 1.811 1.383.06.06 0 0 0 .058-.098m1.025-3.336c-.372-.327-.746-.654-1.101-1-.749-.728-1.493-1.464-2.238-2.197a58 58 0 0 0-4.644-4.094c-.039-.031-.094.02-.056.055q2.301 2.067 4.59 4.15a55 55 0 0 1 2.2 2.117c.349.353.673.73.99 1.111a2.75 2.75 0 0 0 .99.944.094.094 0 0 0 .115-.116 2.46 2.46 0 0 0-.846-.97m3.261-1.69-1.174-1.07q-1.143-1.037-2.29-2.07-2.296-2.067-4.61-4.111c-.056-.05-.14.032-.083.083q2.3 2.058 4.582 4.138 1.108 1.01 2.21 2.026.585.538 1.167 1.077a6.4 6.4 0 0 0 1.083.927c.036.02.084-.022.059-.059a5.8 5.8 0 0 0-.944-.94"/><path fill="currentColor" d="m267.925 214.907-1.686-1.468c-1.11-.966-2.237-1.909-3.361-2.857-.034-.029-.083.018-.05.05 1.064 1.008 2.124 2.022 3.204 3.014l1.597 1.466q.4.367.804.728a3.1 3.1 0 0 0 .848.623c.072.03.156-.034.112-.112a6.3 6.3 0 0 0-1.468-1.444m2.43-1.75c-.182-.2-.376-.384-.573-.57-.382-.36-.765-.72-1.17-1.055a37 37 0 0 0-2.467-1.864c-.051-.035-.114.045-.067.086.78.675 1.543 1.373 2.29 2.082.371.352.753.69 1.123 1.042.185.177.367.356.56.524a1.8 1.8 0 0 0 .565.406.098.098 0 0 0 .12-.12 1.6 1.6 0 0 0-.38-.53m1.714-2.388a5 5 0 0 0-.355-.366 11 11 0 0 0-.767-.672q-.785-.627-1.615-1.198c-.054-.037-.123.05-.07.092q.771.62 1.482 1.309l.695.67q.183.176.371.348a.84.84 0 0 0 .377.24c.037.005.09-.017.084-.065a.73.73 0 0 0-.202-.357m.686-2.577a3.2 3.2 0 0 0-.683-.537.078.078 0 0 0-.079.135 3.4 3.4 0 0 1 1.195 1.147.035.035 0 0 0 .061-.036 2.7 2.7 0 0 0-.494-.71m-41.591-65.656c-.009-.034-.058-.02-.052.015a60 60 0 0 0 1.582 7.65c.014.049.099.042.092-.012a60 60 0 0 0-1.622-7.653m-.953 3.219a.031.031 0 0 0-.06.016 60 60 0 0 0 1.84 7.328.059.059 0 0 0 .113-.03 60 60 0 0 0-1.893-7.314m.754 8.096a46 46 0 0 0-1.058-3.682.047.047 0 0 0-.09.025q.456 1.824.845 3.667c.261 1.225.468 2.461.823 3.663a.047.047 0 0 0 .092-.012 19.3 19.3 0 0 0-.612-3.66m-.966 2.124c-.012-.054-.093-.03-.084.023.285 1.647.592 3.284.954 4.916.009.04.066.022.06-.017-.267-1.65-.587-3.286-.93-4.922m66.933-15.01c-.747 2.09-1.507 4.175-2.219 6.277a55 55 0 0 0-1.892 6.366c-.013.065.084.117.114.048a54 54 0 0 0 2.162-6.181c.663-2.155 1.276-4.325 1.903-6.492.012-.044-.053-.06-.068-.018m-2.086-3.367a103 103 0 0 1-2.068 6.498 128 128 0 0 1-1.147 3.088 22 22 0 0 0-1.18 3.307.094.094 0 0 0 .171.072 14.2 14.2 0 0 0 1.388-3.032c.404-1.061.77-2.136 1.116-3.217a73 73 0 0 0 1.773-6.7.027.027 0 0 0-.053-.015m-2.352-1.861a203 203 0 0 0-1.997 5.65c-.305.91-.59 1.826-.882 2.74a12.2 12.2 0 0 0-.668 2.824.083.083 0 0 0 .152.041 12.2 12.2 0 0 0 1.06-2.714c.28-.918.567-1.834.834-2.755a202 202 0 0 0 1.569-5.767.035.035 0 0 0-.068-.019m-2.368-2.772c-.555 1.494-1.128 2.981-1.659 4.485a93 93 0 0 0-.744 2.174 10.7 10.7 0 0 0-.577 2.24c-.007.073.097.091.13.036a10.8 10.8 0 0 0 .886-2.155c.248-.724.48-1.453.71-2.184.476-1.516.909-3.043 1.36-4.567.02-.069-.082-.094-.106-.03m-1.473-3.043q-.61 1.9-1.287 3.78a37 37 0 0 0-1.302 3.763.059.059 0 0 0 .107.045 18 18 0 0 0 1.451-3.662 51 51 0 0 0 1.076-3.914.023.023 0 0 0-.045-.012m-2.168-1.86q-.53 1.461-1.116 2.9a28 28 0 0 0-1.09 2.896.055.055 0 0 0 .1.042 15.7 15.7 0 0 0 1.2-2.82q.513-1.491.951-3.005c.009-.03-.035-.04-.045-.013m-1.541-5.111-.339.852c-.003.01.012.013.016.004l.345-.85c.006-.013-.017-.02-.022-.006m-.879-26.827q-.512-.651-1.035-1.293l-2.097-2.56c-.05-.061-.159.02-.11.085l1.98 2.65q.464.619.94 1.229a5.2 5.2 0 0 0 1.073 1.209.067.067 0 0 0 .097-.075 4.8 4.8 0 0 0-.848-1.245m-1.221-5.926a49 49 0 0 0-5.226-5.173c-.042-.036-.1.02-.06.06a110 110 0 0 1 4.86 5.4c1.55 1.848 2.987 3.787 4.542 5.63.053.063.148-.017.11-.085a33.5 33.5 0 0 0-4.226-5.832m2.988-.38a91 91 0 0 0-2.37-2.804q-2.437-2.75-5.072-5.307a.027.027 0 0 0-.039.039q2.476 2.645 4.823 5.412c.77.909 1.535 1.82 2.283 2.747a21.4 21.4 0 0 0 2.351 2.807.063.063 0 0 0 .098-.076 15.3 15.3 0 0 0-2.074-2.819m1.215-2.842-1.859-1.853c-.046-.047-.115.023-.071.071l1.744 1.915a17.4 17.4 0 0 0 1.83 1.83c.044.036.126-.012.086-.066a17 17 0 0 0-1.73-1.897m2.005-2.193a.05.05 0 0 0 0 .1.05.05 0 0 0 0-.1m-62.623-8.846c-7.004-1.892-14.293-1.142-21.12 1.068a.04.04 0 0 0 .021.076c6.826-1.899 14.099-1.86 21.074-.952.11.015.13-.164.026-.192m13.283 3.552a31 31 0 0 0-5.473-1.611c-.044-.01-.063.057-.019.068 1.856.438 3.66 1.027 5.477 1.595.035.011.046-.04.015-.053M64.826 57.065c-.006-.03-.05-.016-.045.013.479 2.685.967 5.365 1.53 8.034.008.04.066.022.06-.017-.463-2.688-.999-5.358-1.545-8.03m4.31-.354c-.02-.094-.158-.053-.143.04a97 97 0 0 0 3.651 16.527.086.086 0 0 0 .166-.045c-1.005-5.554-2.533-10.996-3.674-16.522m6.042 4.589a24.6 24.6 0 0 0-1.151-3.906.035.035 0 0 0-.068.018c.307 1.27.458 2.59.702 3.874.25 1.321.538 2.64.709 3.974.008.063.103.068.102 0a26 26 0 0 0-.294-3.96m2.933 15.46a40 40 0 0 0-.588-2.306c-.454-1.581-.82-3.184-1.155-4.795-.032-.153-.264-.088-.234.064.3 1.493.599 2.996.783 4.508a41 41 0 0 0 .661 4.059.158.158 0 0 0 .23.093c.598-.369.436-1.026.303-1.622m5.293 3.739c-.212-.838-.453-1.668-.658-2.507a85 85 0 0 1-1.075-4.952c-.616-3.373-.98-6.789-2.126-10.04-.022-.061-.129-.057-.123.018a62.6 62.6 0 0 0 2.055 9.947c.395 1.647.72 3.302 1.011 4.97.15.857.267 1.718.407 2.576a4.4 4.4 0 0 0 .61 2.198.122.122 0 0 0 .203-.054 4.2 4.2 0 0 0-.304-2.156m6.817 7.993c-.105-.484-.234-.96-.36-1.438q-.38-1.434-.753-2.868-.76-2.934-1.36-5.905c-.39-1.944-.7-3.905-1.115-5.844a27 27 0 0 0-.666-2.845c-.134-.407-.355-.802-.821-.82a.059.059 0 0 0-.016.114c.527.114.549.821.621 1.231.079.449.161.894.258 1.339.193.886.385 1.772.601 2.653.432 1.761.883 3.518 1.268 5.29.386 1.778.736 3.557 1.049 5.35.15.855.293 1.713.438 2.57.075.448.15.896.245 1.342a4 4 0 0 0 .466 1.184.118.118 0 0 0 .218-.06 4.1 4.1 0 0 0-.073-1.293m5.855 5.452c-.245-.882-.538-1.749-.79-2.628-.506-1.76-.89-3.55-1.262-5.343-.373-1.796-.65-3.612-1.015-5.41-.367-1.81-.924-3.529-1.437-5.295a.047.047 0 0 0-.09.025c.286 1.825.518 3.626.953 5.428.429 1.778.95 3.532 1.375 5.311.425 1.783.842 3.568 1.13 5.38.137.868.236 1.743.383 2.61a4.3 4.3 0 0 0 .732 2.36.206.206 0 0 0 .34-.09 4.2 4.2 0 0 0-.319-2.348m5.706 9.855-.524-2.917c-.366-2.027-.68-4.06-1.108-6.075q-1.28-6.03-2.62-12.048c-.013-.054-.094-.03-.084.023q1.129 6.014 2.183 12.041c.346 1.987.788 3.95 1.171 5.93q.282 1.454.559 2.908a18 18 0 0 0 .688 3.126.082.082 0 0 0 .161-.022 16 16 0 0 0-.426-2.966m.756-14.59c-.016-.069-.12-.04-.105.029 1.06 5.053 2.01 10.13 3.095 15.177.005.026.041.014.038-.01-.745-5.113-1.835-10.17-3.028-15.196m4.222 20.154-.292-1.097-.574-2.155a.012.012 0 0 0-.022.007l.513 2.171.251 1.065a4.5 4.5 0 0 0 .283 1.022.035.035 0 0 0 .066-.017 4.3 4.3 0 0 0-.224-.996m4.559 1.917a125 125 0 0 1-1.04-4.864 139 139 0 0 1-.832-4.706 10.2 10.2 0 0 0-1.303-3.955.05.05 0 0 0-.088.051 14.3 14.3 0 0 1 1.032 4.335c.21 1.555.44 3.11.725 4.654.285 1.552.616 3.096.974 4.632a24.5 24.5 0 0 0 1.296 4.464c.057.128.288.068.27-.073a44 44 0 0 0-1.033-4.538m4.293 3.313q-.704-3.575-1.424-7.147c-.013-.065-.107-.036-.098.027q.537 3.558 1.08 7.114a57 57 0 0 0 1.358 7.038c.028.098.192.083.184-.025a57 57 0 0 0-1.1-7.007m4.634 7.49c-.026-.049-.1-.006-.074.043a14.7 14.7 0 0 1 1.23 3.729c.005.021.04.017.039-.005a10.1 10.1 0 0 0-1.195-3.767m3.203 5.619c-.044-.026-.084.044-.04.067a.67.67 0 0 1 .35.639c-.003.03.042.03.046 0a.73.73 0 0 0-.356-.706M27.752 233.812c-2.754-2.326-5.752-4.384-8.65-6.52-.015-.011-.034.013-.02.024 2.843 2.21 5.638 4.538 8.622 6.557.037.025.082-.033.048-.061m8.378 2.687c-.835-.727-1.774-1.34-2.67-1.99-.922-.665-1.842-1.334-2.768-1.994l-5.643-4.021c-.038-.027-.072.034-.036.06l5.48 4.084q1.326.985 2.66 1.961c.942.692 1.864 1.442 2.864 2.047.09.054.196-.076.114-.147m6.974.853a6.3 6.3 0 0 0-1.494-1.06q-.913-.588-1.821-1.185-1.765-1.161-3.509-2.356-3.483-2.386-6.91-4.856c-.02-.015-.039.018-.02.033a177 177 0 0 0 6.82 5.013q1.685 1.174 3.39 2.317.904.605 1.813 1.202a6.3 6.3 0 0 0 1.678.983.055.055 0 0 0 .053-.091m5.225.576a7.3 7.3 0 0 0-1.293-1.023l-1.502-1.094-2.909-2.12c-1.97-1.435-3.955-2.847-5.938-4.264-.033-.024-.063.03-.031.054 1.92 1.444 3.838 2.893 5.772 4.319l2.805 2.069 1.496 1.103a8.3 8.3 0 0 0 1.529 1.048.059.059 0 0 0 .071-.092m4.017-.515c-1.565-1.067-3.198-2.043-4.775-3.095q-2.365-1.578-4.658-3.26c-.02-.015-.04.02-.02.034q2.257 1.74 4.593 3.371a56 56 0 0 0 4.774 3.099.086.086 0 0 0 .086-.149m3.165-.558a8.4 8.4 0 0 0-1.293-1.033q-.732-.524-1.476-1.03-1.467-.997-2.982-1.919c-.047-.029-.09.045-.043.074q1.475.938 2.903 1.945.714.504 1.416 1.026a11.4 11.4 0 0 0 1.423 1.004.043.043 0 0 0 .052-.067m2.746-.725c-.718-.538-1.476-1.02-2.223-1.517-.038-.025-.073.035-.036.06.74.508 1.469 1.032 2.235 1.498.027.016.048-.023.024-.04m2.552-.66q-.104-.083-.207-.162a2 2 0 0 0-.236-.135 8 8 0 0 0-.47-.234q-.492-.233-.98-.473a.016.016 0 0 0-.015.027q.465.277.928.56c.149.093.297.184.452.266a3 3 0 0 0 .493.21c.032.01.062-.037.035-.059m3.282-.72c-.1-.157-.313-.215-.475-.29-.189-.09-.384-.163-.574-.25a8 8 0 0 1-1.069-.6c-.054-.037-.123.05-.07.092a11 11 0 0 0 1.024.705 4 4 0 0 0 .546.298.94.94 0 0 0 .578.143.067.067 0 0 0 .04-.098m5.422-2.021c-.272-.18-.56-.338-.843-.502q-.836-.482-1.67-.966a.086.086 0 0 0-.088.148q.809.53 1.616 1.062c.264.174.525.356.8.513a2.4 2.4 0 0 0 .807.383.07.07 0 0 0 .06-.106 2.4 2.4 0 0 0-.682-.532m3.545-.816a7 7 0 0 0-1.204-.663l-1.215-.624q-1.257-.648-2.512-1.3c-.04-.02-.076.04-.036.061l2.493 1.333 1.201.647a7 7 0 0 0 1.231.618c.039.012.076-.044.042-.072m1.165-1.778a76 76 0 0 0-1.179-.721q-1.109-.67-2.23-1.32a112 112 0 0 0-4.7-2.568c-.023-.011-.042.021-.02.034q2.29 1.3 4.548 2.659 1.111.665 2.212 1.35l1.097.69a3.4 3.4 0 0 0 1.074.578c.033.006.073-.03.049-.063a2.8 2.8 0 0 0-.85-.639m.355-2.491a43 43 0 0 0-6.948-3.967c-.027-.013-.05.026-.023.04 2.389 1.196 4.663 2.588 6.94 3.981.035.021.064-.03.032-.054m3.974 2.147a15.4 15.4 0 0 0-3.271-2.183c-.068-.039-.117.057-.06.101a15.5 15.5 0 0 0 3.264 2.168c.054.023.115-.038.067-.086m2.169-1.815a7.5 7.5 0 0 0-1.23-.898q-.672-.443-1.36-.861-1.378-.836-2.815-1.567c-.049-.025-.092.048-.043.074q1.403.738 2.75 1.576.663.413 1.31.85a12 12 0 0 0 1.341.888.04.04 0 0 0 .047-.062m2.51-1.565c-.211-.145-.565-.323-.639-.364q-.327-.186-.659-.363-.69-.369-1.4-.69a36 36 0 0 0-2.875-1.144c-.066-.023-.113.086-.048.114a33.4 33.4 0 0 1 4.454 2.347c.325.2 1.412 1.111 1.648.35.137-.443-.355-.427-.481-.25m1.448-1.944a5 5 0 0 0-.42-.226q-.454-.204-.911-.399c-.622-.264-1.25-.508-1.867-.788a.05.05 0 0 0-.051.088c.562.37 1.1.77 1.653 1.154q.406.283.819.557a5 5 0 0 0 .414.235.7.7 0 0 0 .554.124.286.286 0 0 0 .196-.344c-.05-.208-.214-.301-.387-.401m2.259-1.112c-.125-.059-.255-.105-.383-.156-.248-.1-.49-.212-.738-.314a16 16 0 0 1-1.517-.718.07.07 0 0 0-.071.122c.479.307.97.603 1.476.863.249.128.51.236.768.344.193.08.515.264.723.16a.07.07 0 0 0 .024-.091c-.047-.109-.18-.163-.282-.21m2.47-.336a4 4 0 0 0-.832-.39l-.871-.331c-.105-.04-.146.124-.046.165l.849.35a4 4 0 0 0 .867.284.043.043 0 0 0 .033-.078m2.048-1.332a1.5 1.5 0 0 0-.284-.218c-.054-.03-.113-.05-.169-.075a2 2 0 0 0-.196-.077 13 13 0 0 1-.714-.218.07.07 0 0 0-.054.128q.332.17.656.357a2 2 0 0 0 .351.15 1.4 1.4 0 0 0 .368.053.06.06 0 0 0 .042-.1m2.9-1.244a2.5 2.5 0 0 0-.467-.19c-.176-.05-.35-.102-.528-.141l-1.049-.234a.094.094 0 0 0-.05.181l1.03.302c.169.05.34.087.511.127a2 2 0 0 0 .249.054c.09.01.184.007.274.01a.059.059 0 0 0 .03-.109m256.526 32.685a32 32 0 0 0-2.23-2.344q-.56-.554-1.11-1.115a9.4 9.4 0 0 0-1.128-1.102c-.017-.013-.034.01-.026.026a6.6 6.6 0 0 0 .92 1.25q.529.64 1.095 1.25a13.2 13.2 0 0 0 2.413 2.12c.056.037.103-.04.066-.085m4.877 1.586a.063.063 0 0 0 0 .12 4 4 0 0 1-.335-.435q-.228-.251-.469-.49l-.907-.904c-.64-.638-1.292-1.264-1.944-1.89-1.286-1.236-2.608-2.434-3.901-3.662a.047.047 0 0 0-.066.066c1.604 1.699 3.178 3.424 4.797 5.11.4.416.811.822 1.218 1.232a10 10 0 0 0 1.222 1.161c.17.122.52.248.59-.051.035-.148-.053-.29-.205-.257m4.015.654q-.62-.552-1.234-1.112c-.797-.727-1.583-1.465-2.37-2.203q-2.36-2.212-4.655-4.494c-.018-.018-.045.009-.028.027a109 109 0 0 0 4.54 4.733 99 99 0 0 0 2.356 2.217q.58.531 1.167 1.056a3.9 3.9 0 0 0 1.146.867c.047.018.082-.041.062-.08a4 4 0 0 0-.984-1.011m4.784 1.394q-.56-.518-1.115-1.04-1.082-1.016-2.15-2.048c-1.425-1.375-2.876-2.72-4.29-4.107a.047.047 0 0 0-.066.066c1.36 1.473 2.722 2.953 4.149 4.362q1.056 1.043 2.126 2.07a7.1 7.1 0 0 0 2.015 1.688c.057.023.09-.048.07-.092a2.7 2.7 0 0 0-.739-.9m3.277.471c-.25-.253-.518-.489-.779-.731-.551-.514-1.1-1.031-1.658-1.539a210 210 0 0 0-3.346-2.96c-.019-.015-.045.01-.028.029a209 209 0 0 0 3.141 3.164c.523.513 1.056 1.017 1.585 1.523.257.246.508.5.773.737a2.2 2.2 0 0 0 .802.573.063.063 0 0 0 .077-.076 2 2 0 0 0-.567-.72m3.812.101q-.252-.219-.51-.43a18 18 0 0 0-1.02-.786 23 23 0 0 0-2.26-1.408.035.035 0 0 0-.036.06 23 23 0 0 1 2.176 1.504c.33.258.66.517.982.788q.255.214.503.436a1.2 1.2 0 0 0 .45.326.063.063 0 0 0 .078-.077 1.06 1.06 0 0 0-.364-.413m4.234.228c-.146-.094-.292-.191-.443-.278-.157-.089-.322-.166-.483-.249l-.948-.488c-.071-.037-.134.07-.063.108l.938.506c.153.083.305.17.46.249.163.08.333.148.5.22a.04.04 0 0 0 .04-.068m3.426-.556-.138-.027a5 5 0 0 0-.304-.045l-.619-.078c-.034-.004-.043.056-.008.062l.614.107q.146.027.293.044l.152.016a.5.5 0 0 0 .147.007.028.028 0 0 0 .006-.05.5.5 0 0 0-.143-.036m-47.47-14.525c-4.02-4.512-7.835-9.2-11.39-14.085-.042-.056-.136-.002-.095.055a161 161 0 0 0 11.336 14.178c.09.1.24-.049.148-.148m3.685-.122q-.476-.582-.955-1.16c-.658-.792-1.328-1.575-1.996-2.358a240 240 0 0 0-4.017-4.575c-.02-.022-.052.01-.033.033 1.286 1.538 2.561 3.083 3.845 4.622q.934 1.12 1.861 2.245.48.577.962 1.153a4.6 4.6 0 0 0 .957 1.048c.033.02.084-.014.069-.053a3.8 3.8 0 0 0-.693-.955m1.921-1.152-.866-.836c-.025-.024-.064.014-.039.039l.863.839c.287.28.568.568.868.834a.023.023 0 0 0 .033-.034c-.274-.292-.571-.563-.86-.842m-31.21 18.229c-1.607.378-3.221.717-4.842 1.027a32 32 0 0 1-5.015.793c-.429.012-.322.691.077.567 1.597-.496 3.285-.701 4.918-1.067 1.64-.366 3.27-.778 4.893-1.207a.059.059 0 0 0-.03-.113m4.108-8.506a19 19 0 0 0-3.016-.26q-1.56-.077-3.121-.151c-.061-.003-.06.088 0 .094l3.061.27a19 19 0 0 0 3.061.155c.058-.004.079-.094.015-.107m-2.907-2.031a.02.02 0 0 0 0 .038l1.702-.007a.012.012 0 0 0 0-.024zm2.554-3.239-.852-.007a.031.031 0 0 0 0 .062l.851-.008a.023.023 0 0 0 0-.047m-9.173-72.841c-.92-.87-1.935-1.65-2.916-2.449-.988-.804-2.008-1.57-3.015-2.35-.046-.037-.113.026-.066.066.982.833 1.954 1.681 2.956 2.491.976.79 1.941 1.614 2.974 2.329.052.035.111-.044.067-.086M288.6 170.94a48 48 0 0 0-1.206 9.051c-.003.078.108.073.117 0 .386-3.014.797-6.026 1.135-9.045.003-.027-.04-.032-.046-.007m-3.462 2.909c-.158 1.589-.316 3.177-.404 4.771-.003.052.085.066.092.013.218-1.59.367-3.187.516-4.784.012-.13-.19-.128-.204 0"/><path fill="currentColor" d="M434.897 259.12c9.34-22.55 5.5-45.55-8.57-51.38-14.06-5.82-33.04 7.73-42.38 30.28-9.34 22.54-5.5 45.54 8.56 51.37a19.7 19.7 0 0 0 13.54.3l-1.53-5.6a11.9 11.9 0 0 1-5.16-.85c-10.15-4.2-12.21-22.51-4.59-40.89 7.61-18.39 22.01-29.88 32.16-25.68 10.15 4.21 12.21 22.52 4.6 40.9a63 63 0 0 1-4.782 9.305l-5.895-5.656-2.195 18 16.683-4.098-5.82-5.584a69 69 0 0 0 5.379-10.418M5.104 241.21c-9.34-22.55-5.5-45.55 8.57-51.38 14.06-5.82 33.04 7.73 42.38 30.28 9.34 22.54 5.5 45.54-8.56 51.37a19.7 19.7 0 0 1-13.54.3l1.53-5.6a11.9 11.9 0 0 0 5.16-.85c10.15-4.2 12.21-22.51 4.59-40.89-7.61-18.39-22.01-29.88-32.16-25.68-10.15 4.21-12.21 22.52-4.6 40.9a63 63 0 0 0 4.782 9.306l5.894-5.656 2.196 18-16.683-4.097 5.82-5.585a69 69 0 0 1-5.38-10.418"/></svg>